<?xml version="1.0" encoding="utf-8"?>
<!-- Generator: Adobe Illustrator 20.0.0, SVG Export Plug-In . SVG Version: 6.00 Build 0)  -->
<svg version="1.1" id="Layer_1" xmlns="http://www.w3.org/2000/svg" xmlns:xlink="http://www.w3.org/1999/xlink" x="0px" y="0px"
	 viewBox="0 0 357.8 331.7" style="enable-background:new 0 0 357.8 331.7;" xml:space="preserve">
<style type="text/css">
	.st0{fill:#FBD208;}
</style>
<g>
	<path class="st0" d="M250.4,90.3c10.9,0,21.7,0,32.6,0c0.1,0.4,0.1,0.9,0.2,1.3c-17.8,7.6-35.6,15.1-54.3,23.1
		c3.5,2.4,6.3,4.3,9.7,6.6c-20.5,11.8-40.6,23.2-61,34.9c-20.3-11.4-40.6-22.8-61.5-34.5c4-2.6,7.6-4.9,12.1-7.8
		c-20.5-7.6-40.1-14.9-59.8-22.2c0-0.5,0.1-1.1,0.1-1.6c10.8,0,21.6,0,32.4,0c0.1-0.6,0.3-1.3,0.4-1.9c-26.5-18.8-53-37.6-79.4-56.4
		c0.1-0.2,0.2-0.4,0.3-0.6c31.1,10.1,62.1,20.1,93.5,30.3c0.2-1.7,0.3-2.7,0.5-4.2c10.9,7,21.6,14,32.8,21.2
		c-7.3,8.2-14.4,16-22.5,25.1c11.1-2.2,20.9-4,31.1-6c1.2,4.1,2.4,7.8,3.8,12.7c3-4.8,5.4-8.8,8.4-13.7c-3,0.8-5,1.4-7.2,2
		c-1-1.9-1.9-3.8-3-5.9c-6,0.9-11.8,1.7-19,2.8c5.8-6.2,10.9-11.7,16.3-17.4c-9.3-7.2-18.2-14-27.2-20.9c0.1-0.2,0.2-0.4,0.3-0.6
		c7.1,1.7,14.2,3.4,22,5.3c-0.6-3.2-1.1-5.5-1.7-8.6c3.7,1.5,6.9,2.9,11.4,4.8c-4.6-15.3-8.8-29.5-13.1-43.7
		c0.2-0.1,0.4-0.2,0.5-0.4c8.8,12,17.5,24.1,27,37c9.8-14,19.2-27.4,28.6-40.7c0.2,0.1,0.4,0.1,0.5,0.2
		c-4.9,15.3-9.7,30.6-14.8,46.6c4.1-1.4,7.2-2.4,10.9-3.6c-0.6,3.1-1.1,5.6-1.7,8.8c7.4-1.8,14.3-3.4,21.2-5.1
		c0.1,0.2,0.3,0.4,0.4,0.6c-8.6,6.5-17.1,13-27.4,20.8c6.6,5.4,12.8,10.5,18.9,15.5c-0.4,0.5-0.8,1-1.2,1.6
		c-6.4-1.2-12.9-2.4-19.7-3.6c-0.7,2.9-1.4,5.6-2.1,8.6c-2.1-1.3-3.8-2.3-5.5-3.4c-0.2,0.2-0.4,0.4-0.6,0.5c2.5,4,5,8,8.2,13.1
		c1.5-4.9,2.6-8.7,4-13.2c10.3,2.2,20.4,4.4,30.5,6.6c0.2-0.3,0.4-0.7,0.6-1c-8-8.4-16-16.7-24.4-25.5c11.7-7.6,23-14.8,34.7-22.4
		c0,1.9,0,3.3,0,5.6c29.8-9.7,59.4-19.3,88.9-29c0.1,0.2,0.3,0.4,0.4,0.6c-25.5,18.7-51,37.5-76.5,56.2
		C250.2,89.3,250.3,89.8,250.4,90.3z M176.5,136.2c0.4,0,0.8,0.1,1.3,0.1c1.4-16,3.1-32.1,4.1-48.1c0.2-3.1-2.6-6.3-4.4-10.5
		c-2.6,3.5-4.2,5.8-6.1,8.4C173,102.6,174.8,119.4,176.5,136.2z"/>
	<path class="st0" d="M176.6,331.7C140.9,270.4,105.7,210,70.1,148.8c4,0.6,7.1,1,11.3,1.7c-7.3-14.7-14.2-28.8-21.1-42.8
		c0.6-0.3,1.2-0.6,1.7-0.9c37.9,65.8,75.7,131.5,114.2,198.3c19.7-33.8,38.7-66.8,58-99.7c19.1-32.6,37.8-65.4,57.1-97.8
		c0.6,0.3,1.2,0.7,1.8,1c-7.2,13.8-14.4,27.7-22.1,42.5c4.3-1.2,7.3-2.1,11.7-3.4C247.1,209.4,212.1,270.2,176.6,331.7z"/>
	<path class="st0" d="M163.7,155.2c4.7,2.6,9.2,5.1,13.8,7.7c4.8-2.6,9.4-5.1,14.3-7.7c13.9,8.5,27.8,17,42.8,26.1
		c-9.4-0.8-17.4-1.5-26.6-2.2c3.4,8.4,6.4,16,9.9,24.6c-9.2-5.6-17.4-10.7-26.3-16.1c-4.5,16.4-8.9,32.3-13.7,49.5
		c-5-17-9.7-32.6-14.5-48.8c-8.8,4.9-17.2,9.6-25.5,14.3c-0.3-0.2-0.6-0.4-0.8-0.6c3.4-7.6,6.9-15.1,10.7-23.6
		c-8.7,1.3-16.5,2.5-25.8,3.9C136.7,172.7,150.2,164,163.7,155.2z"/>
	<path class="st0" d="M229.1,43.5c-0.5-2.4-0.9-4.6-1.4-7.3C271,24.2,313.9,12.2,357.8,0c-3.9,7.4-7.3,13.8-10.7,20.3
		c-2.1,0-3.9,0-6.1,0c1.4-3.1,2.7-5.7,4.5-9.7C306.2,21.7,267.9,32.6,229.1,43.5z"/>
	<path class="st0" d="M8.4,10.4c1.7,4.8,3.1,8.7,4.7,13.1c-2-0.1-3.6-0.2-5.4-0.3C5.1,16,2.7,9,0,1c39.9,11.6,79.1,23.1,118.7,34.6
		c-0.7,1.6-1.2,2.7-1.9,4.1C80.9,30,45.2,20.3,8.4,10.4z"/>
</g>
</svg>
