<?xml version="1.0" encoding="utf-8"?>
<!-- Generator: Adobe Illustrator 20.0.0, SVG Export Plug-In . SVG Version: 6.00 Build 0)  -->
<svg version="1.1"
	 id="svg2985" inkscape:version="0.48.2 r9819" sodipodi:docname="Custom Poke Ball.svg" xmlns:cc="http://creativecommons.org/ns#" xmlns:dc="http://purl.org/dc/elements/1.1/" xmlns:inkscape="http://www.inkscape.org/namespaces/inkscape" xmlns:rdf="http://www.w3.org/1999/02/22-rdf-syntax-ns#" xmlns:sodipodi="http://sodipodi.sourceforge.net/DTD/sodipodi-0.dtd" xmlns:svg="http://www.w3.org/2000/svg"
	 xmlns="http://www.w3.org/2000/svg" xmlns:xlink="http://www.w3.org/1999/xlink" x="0px" y="0px" viewBox="0 0 90 90"
	 style="enable-background:new 0 0 90 90;" xml:space="preserve">
<sodipodi:namedview  bordercolor="#666666" borderopacity="1" gridtolerance="10" guidetolerance="10" id="namedview2987" inkscape:current-layer="svg2985" inkscape:cx="45" inkscape:cy="45" inkscape:pageopacity="0" inkscape:pageshadow="2" inkscape:window-height="706" inkscape:window-maximized="1" inkscape:window-width="1366" inkscape:window-x="-8" inkscape:window-y="-8" inkscape:zoom="5.7444444" objecttolerance="10" pagecolor="#ffffff" showgrid="false">
	</sodipodi:namedview>
<path id="path3129" style="fill:#231815;" d="M45,0C20.1,0,0,20.1,0,45s20.1,45,45,45s45-20.1,45-45S69.9,0,45,0z"/>
<path id="path3002" style="fill:#FFFFFF;" d="M31.5,53.4c-5.2,0-9.4,4.2-9.4,9.4s4.2,9.4,9.4,9.4S41,68,41,62.8S36.7,53.4,31.5,53.4
	z M31.5,56.5c3.5,0,6.3,2.8,6.3,6.3c0,3.5-2.8,6.3-6.3,6.3s-6.2-2.8-6.2-6.3C25.3,59.3,28.1,56.5,31.5,56.5z M31.5,58.6
	c-2.4,0-4.2,1.9-4.2,4.2s1.9,4.2,4.2,4.2s4.3-1.9,4.3-4.2S33.9,58.6,31.5,58.6z"/>
<path id="path3043" style="fill:#0E5A2F;" d="M45,3.3C22,3.3,3.3,22,3.3,45c0,1.9,0.1,3.8,0.4,5.7c4.8,2.7,10,4.8,15.2,6.3
	c2.2-4.8,7-8.1,12.6-8.1c7,0,12.7,5.1,13.8,11.8c14.2,0,28.6-2.9,41.1-10.2c0.2-1.8,0.4-3.7,0.4-5.6C86.7,22,68,3.3,45,3.3z"/>
<path id="path3057" style="fill:#307D54;" d="M45,3.3C23,3.3,5,20.3,3.4,42c4.3,5.3,10.5,9.4,17.8,11.6c2.5-2.9,6.2-4.7,10.3-4.7
	c4.4,0,8.4,2.1,10.9,5.3c15.5-3.6,27-15.8,27-30.4c0-5.7-1.7-11-4.8-15.6C58.8,5.1,52.1,3.3,45,3.3z"/>
<path id="path3120" style="fill:#A5A3C3;" d="M83,62.2c-10.4,4.3-21.5,6.5-32.2,7.2c-2.3,0.1-4.7,0.1-7.1,0.1
	c-2.4,4.3-7,7.3-12.2,7.3c-6.6,0-12.1-4.6-13.5-10.8c-3.7-1-7.4-2.3-11-3.8c6.5,14.5,21.1,24.5,38,24.5S76.5,76.6,83,62.2z"/>
<path id="path3108" style="fill:#D1C3E0;" d="M7,62.2c2.2,4.9,5.3,9.3,9.2,12.9c7.3,5.9,16.5,9.4,26.6,9.4c15.5,0,29-8.4,36.4-20.8
	C70,67,60.3,68.7,51,69.4c-2.3,0.1-4.7,0.1-7.1,0.1c-2.4,4.3-7,7.3-12.2,7.3c-6.6,0-12.1-4.6-13.5-10.8C14.3,65,10.6,63.7,7,62.2z"
	/>
<path id="path3072" style="fill:#FFFFFF;" d="M14.6,65.5c-0.4,0-0.8,0.1-1,0.3c-1.5,1.1-0.2,4.7,2.9,7.9s6.8,4.9,8.2,3.8
	c0.6-0.4,0.7-1.3,0.5-2.3c-3.4-1.7-6-4.8-7-8.5C16.8,65.9,15.5,65.5,14.6,65.5z"/>
<path id="path6469" inkscape:connector-curvature="0" style="fill:#B01F24;" d="M37.3,46.5c0,0,7.3-0.2,6.4-4.2S37.3,46.5,37.3,46.5
	z"/>
<path id="path6471" inkscape:connector-curvature="0" inkscape:transform-center-x="3.6381555" inkscape:transform-center-y="-4.4716698" style="fill:#B01F24;" d="
	M28.4,46c0,0-6.7-2.8-4.5-6.2C26.2,36.3,28.4,46,28.4,46z"/>
<path id="path6986" style="fill:#30A241;" d="M15.2,15.8C7.9,23.3,3.4,33.4,3.3,44.6c7.7,6.4,13,9.8,16,11.6c0.8-1.5,2-2.9,3.3-4
	c0.2-8.5-0.1-24.8-5.2-33.2C16.8,17.9,16,16.9,15.2,15.8z M76.4,17.5c-6.9,2.3-14,6.4-18.9,13.5c-8.2,11.8-12.4,19.7-14.3,24.1
	c0.8,1.2,1.4,2.6,1.8,4c7.6-0.6,26-2.6,34.4-9.3c2.5-2,4.9-4.9,7.2-8.2C85.8,32.4,82.1,24.1,76.4,17.5z"/>
<path id="path6981" style="fill:#9BCA54;" d="M15.2,15.8c-6.7,6.8-11,16-11.8,26.1c4.3,5.3,10.5,9.4,17.8,11.6c0.5-0.5,1-1,1.5-1.4
	c0.2-8.5-0.1-24.8-5.2-33.2C16.8,17.9,16,16.9,15.2,15.8z M69.2,20.6C64.8,23,60.7,26.4,57.4,31c-7.6,10.9-11.6,18.3-13.8,22.9
	C58.6,50,69.4,38,69.4,23.8C69.4,22.7,69.3,21.7,69.2,20.6z"/>
<path id="path3066" sodipodi:cx="25.088533" sodipodi:cy="25.097055" sodipodi:rx="9.0900478" sodipodi:ry="9.0900478" sodipodi:type="arc" style="fill:#FFFFFF;" d="
	M35.6,25.4c0,5.5-4.4,9.9-9.7,9.9s-9.7-4.4-9.7-9.9s4.4-9.9,9.7-9.9S35.6,19.9,35.6,25.4z"/>
<path id="path6999" style="fill:#30A241;" d="M14.5,64.9c-0.9,1.6-1.5,4.1-1.9,6.3c0.9,1.1,1.8,2.1,2.8,3.1c1.9-0.4,4.1-1.1,5.9-2.1
	c-1.6-1.7-2.8-3.9-3.3-6.3C16.8,65.6,15.7,65.3,14.5,64.9z M58.4,68.6c-2.5,0.3-5,0.6-7.5,0.8c-2.3,0.1-4.7,0.1-7.1,0.1
	c-1.4,2.6-3.7,4.7-6.4,6c6.5,5.3,25.1,7.1,25.1,7.1S61.4,74.2,58.4,68.6z"/>
<path id="path6994" style="fill:#9BCA54;" d="M14.5,64.9c-0.9,1.6-1.5,4.1-1.9,6.2c0.9,1.1,1.8,2.2,2.8,3.2c1.9-0.4,4.1-1.1,5.9-2.1
	c-1.6-1.7-2.8-3.9-3.3-6.3C16.8,65.6,15.7,65.3,14.5,64.9z M58.4,68.6c-2.5,0.3-5.1,0.6-7.6,0.8c-2.3,0.1-4.7,0.1-7.1,0.1
	c-1.4,2.6-3.7,4.7-6.4,6c4.4,3.5,14.1,5.5,20.1,6.4c1.6-0.6,3.1-1.2,4.5-2C61.5,76.9,60.3,72.2,58.4,68.6z"/>
</svg>
