<?xml version="1.0" encoding="utf-8"?>
<!-- Generator: Adobe Illustrator 20.0.0, SVG Export Plug-In . SVG Version: 6.00 Build 0)  -->
<svg version="1.1"
	 id="svg2985" inkscape:version="0.48.2 r9819" sodipodi:docname="Custom Poke Ball.svg" xmlns:cc="http://creativecommons.org/ns#" xmlns:dc="http://purl.org/dc/elements/1.1/" xmlns:inkscape="http://www.inkscape.org/namespaces/inkscape" xmlns:rdf="http://www.w3.org/1999/02/22-rdf-syntax-ns#" xmlns:sodipodi="http://sodipodi.sourceforge.net/DTD/sodipodi-0.dtd" xmlns:svg="http://www.w3.org/2000/svg"
	 xmlns="http://www.w3.org/2000/svg" xmlns:xlink="http://www.w3.org/1999/xlink" x="0px" y="0px" viewBox="0 0 90 90"
	 style="enable-background:new 0 0 90 90;" xml:space="preserve">
<sodipodi:namedview  bordercolor="#666666" borderopacity="1" gridtolerance="10" guidetolerance="10" id="namedview2987" inkscape:current-layer="svg2985" inkscape:cx="45" inkscape:cy="45" inkscape:pageopacity="0" inkscape:pageshadow="2" inkscape:window-height="706" inkscape:window-maximized="1" inkscape:window-width="1366" inkscape:window-x="-8" inkscape:window-y="-8" inkscape:zoom="5.7444444" objecttolerance="10" pagecolor="#ffffff" showgrid="false">
	</sodipodi:namedview>
<path id="path3129" style="fill:#231815;" d="M45,0C20.1,0,0,20.1,0,45s20.1,45,45,45s45-20.1,45-45S69.9,0,45,0z"/>
<path id="path3002" style="fill:#FFFFFF;" d="M31.5,53.4c-5.2,0-9.4,4.2-9.4,9.4s4.2,9.4,9.4,9.4S41,68,41,62.8S36.7,53.4,31.5,53.4
	z M31.5,56.5c3.5,0,6.3,2.8,6.3,6.3c0,3.5-2.8,6.3-6.3,6.3s-6.2-2.8-6.2-6.3C25.3,59.3,28.1,56.5,31.5,56.5z M31.5,58.6
	c-2.4,0-4.2,1.9-4.2,4.2s1.9,4.2,4.2,4.2s4.3-1.9,4.3-4.2S33.9,58.6,31.5,58.6z"/>
<path id="path3043" style="fill:#0E5A2F;" d="M45,3.3C22,3.3,3.3,22,3.3,45c0,1.9,0.1,3.8,0.4,5.7c4.8,2.7,10,4.8,15.2,6.3
	c2.2-4.8,7-8.1,12.6-8.1c7,0,12.7,5.1,13.8,11.8c14.2,0,28.6-2.9,41.1-10.2c0.2-1.8,0.4-3.7,0.4-5.6C86.7,22,68,3.3,45,3.3z"/>
<path id="path3120" style="fill:#A5A3C3;" d="M83,62.2c-10.4,4.3-21.5,6.5-32.2,7.2c-2.3,0.1-4.7,0.1-7.1,0.1
	c-2.4,4.3-7,7.3-12.2,7.3c-6.6,0-12.1-4.6-13.5-10.8c-3.7-1-7.4-2.3-11-3.8c6.5,14.5,21.1,24.5,38,24.5S76.5,76.6,83,62.2z"/>
<path id="path3108" style="fill:#D1C3E0;" d="M7,62.2c2.2,4.9,5.3,9.3,9.2,12.9c7.3,5.9,16.5,9.4,26.6,9.4c15.5,0,29-8.4,36.4-20.8
	C70,67,60.3,68.7,51,69.4c-2.3,0.1-4.7,0.1-7.1,0.1c-2.4,4.3-7,7.3-12.2,7.3c-6.6,0-12.1-4.6-13.5-10.8C14.3,65,10.6,63.7,7,62.2z"
	/>
<path id="path3072" style="fill:#FFFFFF;" d="M14.6,65.5c-0.4,0-0.8,0.1-1,0.3c-1.5,1.1-0.2,4.7,2.9,7.9s6.8,4.9,8.2,3.8
	c0.6-0.4,0.7-1.3,0.5-2.3c-3.4-1.7-6-4.8-7-8.5C16.8,65.9,15.5,65.5,14.6,65.5z"/>
<path id="path6150" style="fill:#5D7840;" d="M45,3.3c-6.5,0-12.7,1.5-18.2,4.2c1.7,1.9,7.2,3.3,12.3,4.6
	c7.8,1.9,27.7,10.1,35.3,14.1c7.9,4.1,11,9.9,9.6,13s-9.2,0-9.2,0s3.5,2.8,6.3,9.6c0.6,1.5,1.1,2.8,1.5,3.8c1.3-0.6,2.5-1.3,3.7-2
	c0.2-1.8,0.4-3.7,0.4-5.6c0-9.3-3-17.9-8.2-24.8c-7-5.9-13.8-9.4-13.8-9.4s-10.3-0.5-12.9-2.2C50.1,7.3,47.1,4.9,45,3.3
	C45.1,3.3,45,3.3,45,3.3z"/>
<path id="path3057" style="fill:#307D54;" d="M45,3.3C23,3.3,5,20.3,3.4,42c4.3,5.3,10.5,9.4,17.8,11.6c2.5-2.9,6.2-4.7,10.3-4.7
	c4.4,0,8.4,2.1,10.9,5.3c15.5-3.6,27-15.8,27-30.4c0-5.7-1.7-11-4.8-15.6C58.8,5.1,52.1,3.3,45,3.3z"/>
<path id="path6148" style="fill:#5D7840;" d="M5.4,32.9c0,0-3,14.3,13,19.3c1.3,0.4,2.3,0.7,3.2,0.8c0.9-0.9,2-1.7,3.1-2.4
	c-1.8-3.1-7.3-7.7-7.3-7.7L5.4,32.9z"/>
<path id="path6125" style="fill:#5D7840;" d="M35.7,38.7c-0.5,0-1.1,0.2-2.1,0.7c-4.5,2.1,1.1,4.4,1.1,9.4c0,0.2,0,0.4,0,0.5
	c5.5,1.3,9.7,5.8,10.6,11.5c7.1,0,14.3-0.7,21.3-2.4c0.3-1.6,0.7-3.9,1.1-7c1-8.4-5.4-8.4-19.7-8.9C36.4,42,37.6,38.6,35.7,38.7z"/>
<path id="path6156" style="fill:#726127;" d="M62.3,7.1c-7.3,0.7-7.5,4.9,0.9,7.5c4.4,1.4,11.3,4.9,17,8
	c-4.3-6.7-10.4-12.1-17.7-15.5C62.4,7.1,62.4,7.1,62.3,7.1z"/>
<path id="path5603" style="fill:#726127;" d="M84.9,32.8c-3.7,1.4-7.3,2.5-9.2,2.7C70.8,36,59.9,37.1,55.5,40s-5.4,7-11,9.4
	c-1.8,0.8-3.9,1.2-5.9,1.4c3.5,2.1,6,5.7,6.6,9.9c4.4,0,8.8-0.3,13.2-0.9c3-1.3,5.6-2.8,7-4.5c5.6-6.4,5.9-7.3,10.8-9.6
	c3.3-1.5,7,0.4,10.4,1.6c0-0.8,0.1-1.6,0.1-2.4C86.7,40.7,86.1,36.6,84.9,32.8z"/>
<path id="path6144" style="fill:#779752;" d="M45,3.3c-6.5,0-12.7,1.5-18.2,4.2c1.7,1.9,7.2,3.3,12.3,4.5
	c6.4,1.6,21.3,6.1,30.2,10.8c-0.1-3.9-1.1-7.5-2.7-10.9c-1.2-0.7-2-1.1-2-1.1s-10.3-0.5-12.9-2.2C50.1,7.3,47.1,4.9,45,3.3
	C45.1,3.3,45,3.3,45,3.3z"/>
<path id="path6142" style="fill:#779752;" d="M5.4,32.9c0,0-3,14.3,13,19.3c1.3,0.4,2.4,0.7,3.2,0.8c0.9-0.9,1.9-1.7,3.1-2.3
	c-1.7-3-7.3-7.7-7.3-7.7L5.4,32.9z"/>
<path id="path6132" style="fill:#779752;" d="M35.7,38.7c-0.5,0-1.1,0.2-2.1,0.7c-4.5,2.1,1.1,4.4,1.1,9.4c0,0.2,0,0.4,0,0.5
	c3.1,0.7,5.9,2.5,7.8,4.9c7.6-1.8,14.3-5.6,19-10.8c-3.2-0.6-7.7-0.8-13.5-1C36.4,42,37.6,38.6,35.7,38.7z"/>
<path id="path5599" style="fill:#AAA54C;" d="M45,3.3c-7.2,0-14,1.9-20,5.1c3,6.1,4.2,10.2,1.2,13.7c-1.6,1.9-7.1-1.7-13.2-3.9
	C7.5,24.7,4,32.9,3.3,42c2.1,2.5,4.5,4.8,7.3,6.7C9,46.2,7.1,43.1,7,41.4c-0.2-3,0.3-8,2.6-11.7S23,35.9,25.1,36s3.3,1.7,9.1-2.8
	s6.3-5.9,6.8-10.3s-2.1-4.7-2.2-8s4.8-6.1,6.9-8.5c1-1.1,1.4-2.2,1.5-3.1C46.4,3.3,45.7,3.3,45,3.3z M62.8,7.2
	c-8.2,0.4-15.1,1.5-14.9,3.9c0.4,4.3,14.4,9.9,21.6,12.6c0-5.7-1.7-11-4.8-15.6C64,7.9,63.4,7.5,62.8,7.2z M66.2,36.7
	c-4.2,0.7-8.4,1.7-10.7,3.3c-4.4,3-5.4,7-11,9.4c-1.8,0.8-3.9,1.2-5.9,1.4c1.5,0.9,2.8,2,3.8,3.3C53.1,51.8,61.8,45.3,66.2,36.7z"/>
<path id="path3066" sodipodi:cx="25.088533" sodipodi:cy="25.097055" sodipodi:rx="9.0900478" sodipodi:ry="9.0900478" sodipodi:type="arc" style="fill:#FFFFFF;" d="
	M35.6,25.4c0,5.5-4.4,9.9-9.7,9.9s-9.7-4.4-9.7-9.9s4.4-9.9,9.7-9.9S35.6,19.9,35.6,25.4z"/>
</svg>
