<?xml version="1.0" encoding="utf-8"?>
<!-- Generator: Adobe Illustrator 20.0.0, SVG Export Plug-In . SVG Version: 6.00 Build 0)  -->
<svg version="1.1"
	 id="svg2985" inkscape:version="0.48.2 r9819" sodipodi:docname="Lunar Ball.svg" xmlns:cc="http://creativecommons.org/ns#" xmlns:dc="http://purl.org/dc/elements/1.1/" xmlns:inkscape="http://www.inkscape.org/namespaces/inkscape" xmlns:rdf="http://www.w3.org/1999/02/22-rdf-syntax-ns#" xmlns:sodipodi="http://sodipodi.sourceforge.net/DTD/sodipodi-0.dtd" xmlns:svg="http://www.w3.org/2000/svg"
	 xmlns="http://www.w3.org/2000/svg" xmlns:xlink="http://www.w3.org/1999/xlink" x="0px" y="0px" viewBox="0 0 90 90"
	 style="enable-background:new 0 0 90 90;" xml:space="preserve">
<sodipodi:namedview  bordercolor="#666666" borderopacity="1" gridtolerance="10" guidetolerance="10" id="namedview2987" inkscape:current-layer="svg2985" inkscape:cx="45" inkscape:cy="45" inkscape:pageopacity="0" inkscape:pageshadow="2" inkscape:window-height="706" inkscape:window-maximized="1" inkscape:window-width="1366" inkscape:window-x="-8" inkscape:window-y="-8" inkscape:zoom="5.7444444" objecttolerance="10" pagecolor="#ffffff" showgrid="false">
	</sodipodi:namedview>
<path id="path3129" style="fill:#231815;" d="M45,0C20.1,0,0,20.1,0,45s20.1,45,45,45s45-20.1,45-45S69.9,0,45,0z"/>
<path id="path4513" style="fill:#C82D8C;" d="M31.5,54.3c4.7,0,8.5,3.8,8.5,8.5s-3.8,8.5-8.5,8.5S23,67.5,23,62.8
	S26.8,54.3,31.5,54.3z M31.5,53.4c-5.2,0-9.4,4.2-9.4,9.4s4.2,9.4,9.4,9.4S41,68,41,62.8S36.7,53.4,31.5,53.4z"/>
<path id="path3002" style="fill:#EDE72E;" d="M31.5,58.6c2.4,0,4.3,1.9,4.3,4.2S33.9,67,31.5,67s-4.2-1.9-4.2-4.2
	S29.2,58.6,31.5,58.6z M31.5,56.5c-3.5,0-6.2,2.8-6.2,6.3c0,3.5,2.8,6.3,6.2,6.3s6.3-2.8,6.3-6.3C37.8,59.3,35,56.5,31.5,56.5z"/>
<path id="path3043" style="fill:#5E318F;" d="M45,3.3C22,3.3,3.3,22,3.3,45c0,1.9,0.1,3.8,0.4,5.7c4.8,2.7,10,4.8,15.2,6.3
	c2.2-4.8,7-8.1,12.6-8.1c7,0,12.7,5.1,13.8,11.8c14.2,0,28.6-2.9,41.1-10.2c0.2-1.8,0.4-3.7,0.4-5.6C86.7,22,68,3.3,45,3.3z"/>
<path id="path3057" style="fill:#7E308E;" d="M45,3.3C23,3.3,5,20.3,3.4,42c4.3,5.3,10.5,9.4,17.8,11.6c2.5-2.9,6.2-4.7,10.3-4.7
	c4.4,0,8.4,2.1,10.9,5.3c15.5-3.6,27-15.8,27-30.4c0-5.7-1.7-11-4.8-15.6C58.8,5.1,52.1,3.3,45,3.3z"/>
<path id="path3066" sodipodi:cx="25.088533" sodipodi:cy="25.097055" sodipodi:rx="9.0900478" sodipodi:ry="9.0900478" sodipodi:type="arc" style="fill:#A54A98;" d="
	M35.6,25.4c0,5.5-4.4,9.9-9.7,9.9s-9.7-4.4-9.7-9.9s4.4-9.9,9.7-9.9S35.6,19.9,35.6,25.4z"/>
<path id="path3120" style="fill:#A40182;" d="M83,62.2c-10.4,4.3-21.5,6.5-32.2,7.2c-2.3,0.1-4.7,0.1-7.1,0.1
	c-2.4,4.3-7,7.3-12.2,7.3c-6.6,0-12.1-4.6-13.5-10.8c-3.7-1-7.4-2.3-11-3.8c6.5,14.5,21.1,24.5,38,24.5S76.5,76.6,83,62.2z"/>
<path id="path3108" style="fill:#C82D8C;" d="M7,62.2c2.2,4.9,5.3,9.3,9.2,12.9c7.3,5.9,16.5,9.4,26.6,9.4c15.5,0,29-8.4,36.4-20.8
	C70,67,60.3,68.7,51,69.4c-2.3,0.1-4.7,0.1-7.1,0.1c-2.4,4.3-7,7.3-12.2,7.3c-6.6,0-12.1-4.6-13.5-10.8C14.3,65,10.6,63.7,7,62.2z"
	/>
<path id="path3072" style="fill:#E4C1DB;" d="M14.6,65.5c-0.4,0-0.8,0.1-1,0.3c-1.5,1.1-0.2,4.7,2.9,7.9s6.8,4.9,8.2,3.8
	c0.6-0.4,0.7-1.3,0.5-2.3c-3.4-1.7-6-4.8-7-8.5C16.8,65.9,15.5,65.5,14.6,65.5z"/>
<path id="path3944" style="fill:#D29936;" d="M3.7,38.8c-0.2,1.5-0.3,3-0.4,4.5l1.3,2.6L3.7,38.8z"/>
<path id="path4465" inkscape:flatsided="false" inkscape:randomized="0" inkscape:rounded="0" inkscape:transform-center-x="-0.98144598" inkscape:transform-center-y="-0.9650043" sodipodi:arg1="-2.8797933" sodipodi:arg2="-2.2514748" sodipodi:cx="-49.439072" sodipodi:cy="19.148935" sodipodi:r1="14.64974" sodipodi:r2="5.8739085" sodipodi:sides="5" sodipodi:type="star" style="fill:#CCB82B;" d="
	M30.6,11.6l10.5-0.1l5.6-7l1.3,7l10.4,0.2l-9.7,4.4l0.8,7.1L42.2,19l-9.9,4.2l5.2-7.1L30.6,11.6z"/>
<path id="path4467" style="fill:#EFEA2E;" d="M34.3,20.4l-2,2.7L35,22C34.8,21.5,34.6,20.9,34.3,20.4z"/>
<path id="path4472" inkscape:flatsided="false" inkscape:randomized="0" inkscape:rounded="0" inkscape:transform-center-x="0.027421961" inkscape:transform-center-y="-0.46342273" sodipodi:arg1="-2.8797933" sodipodi:arg2="-2.2514748" sodipodi:cx="-49.439072" sodipodi:cy="19.148935" sodipodi:r1="14.64974" sodipodi:r2="5.8739085" sodipodi:sides="5" sodipodi:type="star" style="fill:#D29936;" d="
	M83.4,31.6l-9,2l-3-9.1l-2.9,10.6l-9,2.5l7.2,4.5l-2.5,10.7l7.4-7.8l7.5,4.1l-2.7-9.4L83.4,31.6z"/>
<path id="path4474" style="fill:#CCB82B;" d="M66.8,35.6l-7.4,2l4.5,2.8C65,39,66,37.3,66.8,35.6z"/>
<path id="path4493" style="fill:#CCB82B;" d="M6.1,30.1c-0.4,1.1-0.8,2.1-1.1,3.2l2.4-2.6L6.1,30.1z"/>
<path id="path4479" style="fill:#CCB82B;" d="M3.8,38.9c-0.1,1-0.3,2-0.3,3.1c0.3,0.3,0.6,0.7,0.9,1L3.8,38.9z"/>
</svg>
