<?xml version="1.0" encoding="utf-8"?>
<!-- Generator: Adobe Illustrator 20.0.0, SVG Export Plug-In . SVG Version: 6.00 Build 0)  -->
<svg version="1.1" id="Layer_1" xmlns="http://www.w3.org/2000/svg" xmlns:xlink="http://www.w3.org/1999/xlink" x="0px" y="0px"
	 viewBox="0 0 90 90" style="enable-background:new 0 0 90 90;" xml:space="preserve">
<g id="Layer_2">
	<path style="fill:#222222;stroke:#000000;stroke-width:3;stroke-miterlimit:10;" d="M74.1,86.1H15.9c-6.6,0-12-5.4-12-12V15.9
		c0-6.6,5.4-12,12-12h58.2c6.6,0,12,5.4,12,12v58.2C86.1,80.7,80.7,86.1,74.1,86.1z"/>
	<polygon style="fill:#333333;" points="25.1,5.5 15.4,69.4 9.7,82.3 7.4,82.6 3.9,77 3.9,14.5 5.8,9.4 9.5,6.4 13.5,3.9 19.1,3.9 	
		"/>
	<path style="fill:#111111;" d="M66.5,5.5l2.2-1.6c0,0,15.3-2.3,16.9,8.6c1.6,11,0.5,62.2,0.5,62.2l-3.9,7.2L75.6,69L66.5,5.5z"/>
	<path style="fill:#555555;stroke:#777777;stroke-width:0.5;stroke-miterlimit:10;" d="M66.5,72.5h-43c-6.6,0-12-5.4-12-12v-43
		c0-6.6,5.4-12,12-12h43c6.6,0,12,5.4,12,12v43C78.5,67.1,73.1,72.5,66.5,72.5z"/>
	<path style="fill:none;stroke:#000000;stroke-width:3;stroke-miterlimit:10;" d="M74.2,86.1H16c-6.6,0-12-5.4-12-12V15.9
		c0-6.6,5.4-12,12-12h58.2c6.6,0,12,5.4,12,12v58.2C86.2,80.7,80.8,86.1,74.2,86.1z"/>
</g>
<g id="svg2985" inkscape:version="0.48.2 r9819" sodipodi:docname="Custom Poke Ball.svg" xmlns:cc="http://creativecommons.org/ns#" xmlns:dc="http://purl.org/dc/elements/1.1/" xmlns:inkscape="http://www.inkscape.org/namespaces/inkscape" xmlns:rdf="http://www.w3.org/1999/02/22-rdf-syntax-ns#" xmlns:sodipodi="http://sodipodi.sourceforge.net/DTD/sodipodi-0.dtd" xmlns:svg="http://www.w3.org/2000/svg">
	
		<sodipodi:namedview  bordercolor="#666666" borderopacity="1" gridtolerance="10" guidetolerance="10" id="namedview2987" inkscape:current-layer="svg2985" inkscape:cx="45" inkscape:cy="45" inkscape:pageopacity="0" inkscape:pageshadow="2" inkscape:window-height="706" inkscape:window-maximized="1" inkscape:window-width="1366" inkscape:window-x="-8" inkscape:window-y="-8" inkscape:zoom="5.7444444" objecttolerance="10" pagecolor="#ffffff" showgrid="false">
		</sodipodi:namedview>
	<path id="path3129" style="fill:#231815;" d="M45,10c-15.5,0-28,12.5-28,28s12.5,28,28,28s28-12.5,28-28S60.5,10,45,10z"/>
	<path id="path3002" style="fill:#FFFFFF;" d="M36.6,43.2c-3.2,0-5.9,2.6-5.9,5.9c0,3.2,2.6,5.9,5.9,5.9s5.9-2.6,5.9-5.9
		S39.9,43.2,36.6,43.2z M36.6,45.2c2.2,0,3.9,1.8,3.9,3.9c0,2.2-1.8,3.9-3.9,3.9c-2.2,0-3.9-1.8-3.9-3.9
		C32.7,46.9,34.5,45.2,36.6,45.2z M36.6,46.4c-1.5,0-2.6,1.2-2.6,2.6s1.2,2.6,2.6,2.6s2.7-1.2,2.7-2.6S38.1,46.4,36.6,46.4z"/>
	<path id="path3043" style="fill:#FF9603;" d="M45,12c-14.3,0-26,11.6-26,26c0,1.2,0.1,2.4,0.2,3.5c3,1.7,6.2,3,9.5,3.9
		c1.4-3,4.4-5,7.9-5c4.3,0,7.9,3.2,8.6,7.4c8.8,0,17.8-1.8,25.5-6.3c0.2-1.1,0.2-2.3,0.2-3.5C71,23.7,59.3,12,45,12z"/>
	<path id="path3057" style="fill:#FFAB35;" d="M45,12c-13.7,0-24.9,10.6-25.9,24.1c2.7,3.3,6.6,5.9,11.1,7.2
		c1.6-1.8,3.9-2.9,6.4-2.9c2.8,0,5.2,1.3,6.8,3.3c9.7-2.2,16.8-9.9,16.8-18.9c0-3.5-1.1-6.9-3-9.7C53.6,13.1,49.4,12,45,12z"/>
	
		<path id="path3066" sodipodi:cx="25.088533" sodipodi:cy="25.097055" sodipodi:rx="9.0900478" sodipodi:ry="9.0900478" sodipodi:type="arc" style="fill:#FFFFFF;" d="
		M39.2,25.8c0,3.4-2.7,6.2-6.1,6.2S27,29.2,27,25.8s2.7-6.2,6.1-6.2S39.2,22.4,39.2,25.8z"/>
	<path id="path3120" style="fill:#A5A3C3;" d="M68.7,48.7c-6.4,2.7-13.4,4-20,4.5c-1.5,0.1-2.9,0.1-4.4,0c-1.5,2.7-4.3,4.5-7.6,4.5
		c-4.1,0-7.5-2.9-8.4-6.7c-2.3-0.6-4.6-1.4-6.8-2.4C25.4,57.7,34.5,64,45,64S64.6,57.7,68.7,48.7z"/>
	<path id="path3108" style="fill:#D1C3E0;" d="M21.4,48.7c1.4,3,3.3,5.8,5.7,8c4.5,3.7,10.3,5.9,16.5,5.9c9.7,0,18.1-5.2,22.6-13
		c-5.7,2.1-11.8,3.1-17.6,3.5c-1.5,0.1-2.9,0.1-4.4,0c-1.5,2.7-4.3,4.5-7.6,4.5c-4.1,0-7.5-2.9-8.4-6.7
		C25.9,50.4,23.6,49.6,21.4,48.7z"/>
	<path id="path3072" style="fill:#FFFFFF;" d="M26.1,50.8c-0.3,0-0.5,0.1-0.6,0.2c-0.9,0.7-0.1,2.9,1.8,4.9s4.2,3,5.1,2.3
		c0.4-0.3,0.4-0.8,0.3-1.4c-2.1-1.1-3.7-3-4.4-5.3C27.5,51,26.7,50.7,26.1,50.8z"/>
</g>
</svg>
