<?xml version="1.0" encoding="utf-8"?>
<!-- Generator: Adobe Illustrator 20.0.0, SVG Export Plug-In . SVG Version: 6.00 Build 0)  -->
<svg version="1.1"
	 id="svg2985" inkscape:version="0.48.2 r9819" sodipodi:docname="Custom Poke Ball.svg" xmlns:cc="http://creativecommons.org/ns#" xmlns:dc="http://purl.org/dc/elements/1.1/" xmlns:inkscape="http://www.inkscape.org/namespaces/inkscape" xmlns:rdf="http://www.w3.org/1999/02/22-rdf-syntax-ns#" xmlns:sodipodi="http://sodipodi.sourceforge.net/DTD/sodipodi-0.dtd" xmlns:svg="http://www.w3.org/2000/svg"
	 xmlns="http://www.w3.org/2000/svg" xmlns:xlink="http://www.w3.org/1999/xlink" x="0px" y="0px" viewBox="0 0 90 94"
	 style="enable-background:new 0 0 90 94;" xml:space="preserve">
<sodipodi:namedview  bordercolor="#666666" borderopacity="1" gridtolerance="10" guidetolerance="10" id="namedview2987" inkscape:current-layer="svg2985" inkscape:cx="45" inkscape:cy="47" inkscape:pageopacity="0" inkscape:pageshadow="2" inkscape:window-height="706" inkscape:window-maximized="1" inkscape:window-width="1366" inkscape:window-x="-8" inkscape:window-y="-8" inkscape:zoom="5.5" objecttolerance="10" pagecolor="#ffffff" showgrid="false">
	</sodipodi:namedview>
<path id="path3129" inkscape:connector-curvature="0" style="fill:#231815;" d="M45,4C20.1,4,0,24.1,0,49s20.1,45,45,45
	s45-20.1,45-45S69.9,4,45,4z"/>
<path id="path3002" inkscape:connector-curvature="0" style="fill:#FFFFFF;" d="M31.5,57.4c-5.2,0-9.4,4.2-9.4,9.4s4.2,9.4,9.4,9.4
	S41,72,41,66.8S36.7,57.4,31.5,57.4z M31.5,60.5c3.5,0,6.3,2.8,6.3,6.3c0,3.5-2.8,6.3-6.3,6.3s-6.2-2.8-6.2-6.3
	C25.3,63.3,28.1,60.5,31.5,60.5z M31.5,62.6c-2.4,0-4.2,1.9-4.2,4.2s1.9,4.2,4.2,4.2s4.3-1.9,4.3-4.2S33.9,62.6,31.5,62.6z"/>
<path id="path3043" inkscape:connector-curvature="0" style="fill:#D2CDE6;" d="M45,7.3C22,7.3,3.3,26,3.3,49c0,1.9,0.1,3.8,0.4,5.7
	c4.8,2.7,10,4.8,15.2,6.3c2.2-4.8,7-8.1,12.6-8.1c7,0,12.7,5.1,13.8,11.8c14.2,0,28.6-2.9,41.1-10.2c0.2-1.8,0.4-3.7,0.4-5.6
	C86.7,26,68,7.3,45,7.3z"/>
<path id="path3057" inkscape:connector-curvature="0" style="fill:#FFFFFF;" d="M45,7.3C23,7.3,5,24.3,3.4,46
	c4.3,5.3,10.5,9.4,17.8,11.6c2.5-2.9,6.2-4.7,10.3-4.7c4.4,0,8.4,2.1,10.9,5.3c15.5-3.6,27-15.8,27-30.4c0-5.7-1.7-11-4.8-15.6
	C58.8,9.1,52.1,7.3,45,7.3z"/>
<path id="path3120" inkscape:connector-curvature="0" style="fill:#A5A3C3;" d="M83,66.2c-10.4,4.3-21.5,6.5-32.2,7.2
	c-2.3,0.1-4.7,0.1-7.1,0.1c-2.4,4.3-7,7.3-12.2,7.3c-6.6,0-12.1-4.6-13.5-10.8c-3.7-1-7.4-2.3-11-3.8c6.5,14.5,21.1,24.5,38,24.5
	C61.9,90.7,76.5,80.6,83,66.2z"/>
<path id="path3108" inkscape:connector-curvature="0" style="fill:#D1C3E0;" d="M7,66.2c2.2,4.9,5.3,9.3,9.2,12.9
	c7.3,5.9,16.5,9.4,26.6,9.4c15.5,0,29-8.4,36.4-20.8C70,71,60.3,72.7,51,73.4c-2.3,0.1-4.7,0.1-7.1,0.1c-2.4,4.3-7,7.3-12.2,7.3
	c-6.6,0-12.1-4.6-13.5-10.8C14.3,69,10.6,67.7,7,66.2z"/>
<path id="path3072" inkscape:connector-curvature="0" style="fill:#FFFFFF;" d="M14.6,69.5c-0.4,0-0.8,0.1-1,0.3
	c-1.5,1.1-0.2,4.7,2.9,7.9s6.8,4.9,8.2,3.8c0.6-0.4,0.7-1.3,0.5-2.3c-3.4-1.7-6-4.8-7-8.5C16.8,69.9,15.5,69.5,14.6,69.5z"/>
<path id="path4334" style="fill:#D35337;" d="M50,7.6c5.4,4.7,16.7,15.2,19.2,23.1c2.8,8.5,3.6,19.9,3.9,29.8
	c4.5-1.5,9-3.4,13.2-5.9c0.2-1.8,0.4-3.7,0.4-5.6C86.7,27.7,70.7,10.1,50,7.6z"/>
<path id="path4352" inkscape:connector-curvature="0" style="fill:#D35337;" d="M19.7,15.8C9.7,23.4,3.3,35.5,3.3,49
	c0,1.9,0.1,3.8,0.4,5.7c1.8,1,3.7,2,5.6,2.8c-0.9-8.4,0.2-12.8,0.3-15.7C9.8,37.6,16.9,21.9,19.7,15.8z"/>
<path id="path4357" inkscape:connector-curvature="0" style="fill:#F18E38;" d="M19.7,15.8C10.5,22.9,4.3,33.7,3.4,46
	c1.6,2,3.5,3.8,5.5,5.4c0-4.6,0.6-7.5,0.7-9.5C9.8,37.6,16.9,21.9,19.7,15.8z"/>
<path id="path4359" inkscape:connector-curvature="0" style="fill:#FDD000;" d="M19.7,15.8c-4.6,3.5-8.4,8-11.2,13
	c1.2,2,2.3,3.8,3.3,5.2C14.2,27.8,17.9,19.8,19.7,15.8z"/>
<path id="path4323" style="fill:#716C6A;" d="M45,7.3c-13.6,0-25.6,6.5-33.2,16.5c1.5,6.4,6,13.5,18.9,13.6
	c19.6,0.1,35.1-5.3,43.6-18C66.8,11.9,56.4,7.3,45,7.3z"/>
<path id="path4310" inkscape:connector-curvature="0" style="fill:#943033;" d="M41.4,0c-3.6,0.1-7.1-0.1-9.3,1.5
	C29.9,3,29.2,4.8,28,7.1c-1.2,2.2-1.8,5.4-2.5,7.6c-0.5,1.5-0.6,3.7-0.8,6.5s-0.4,6.2-0.1,9.4s-0.1,5.3,1.1,8
	c1.2,2.6,3.2,5.1,6.2,5.3c2.3,0.2,3-0.9,4.5-2.2s2.3-2.8,3.4-4.7c2.2-3.7,4.2-9.7,7.1-13.5c6.1-8.1,8.6-11.8,9.8-13.3
	c0.9-1.2,1.7-0.9,2-2.8c0.2-1-0.3-3.8-1.2-4.4c-2.1-1.3-3.5-1.7-6.1-2.2C48.8,0.2,45.1-0.1,41.4,0z"/>
<path id="path3519" style="fill:#F18E38;" d="M41.5,3.1c3.4-0.1,7.1,0.5,9,0.9c1.7,0.3,3.8,1.1,3.8,2.4c0,1-2.5,2.8-3.8,4.8
	s-6.3,10.1-6.3,10.1c-2.8,4.6-5.1,10.1-7.1,13.5c-1,1.7-2.2,2.8-2.8,3.7c-0.6,1-0.9,1.8-2.3,1.7c-1-0.1-1.6-1.8-2.4-3.6
	s-1.4-4.6-1.7-7.5s-0.3-6-0.1-8.5s0.5-4.7,0.7-5.3c0.6-2,1.5-4.3,2.6-6.2s2.2-3.3,3.1-3.8C34.7,4.9,38.2,3.2,41.5,3.1z"/>
<path id="path4295" inkscape:connector-curvature="0" style="fill:#000022;" d="M41.4,0c-3.6,0.1-7.1-0.1-9.3,1.5
	c-2.2,1.5-2.9,3.3-4.2,5.6c-0.9,1.6-1.4,3.6-1.9,5.4c0.3,0.5,0.7,0.9,1.2,1c0.6,0.2,1.3,0,2.1-0.4c0.5-1.4,1.1-2.8,1.8-4
	c1-1.9,2.2-3.3,3.1-3.8c0.6-0.3,4-2,7.4-2c3.4-0.1,7.1,0.5,9,0.8c1.7,0.3,3.8,1.1,3.8,2.4c0,0.2-0.1,0.4-0.2,0.6
	c0.7,0.8,1.7,2,2.8,2.6C57.7,9,58.3,9,58.6,7.4c0.2-1-0.3-3.8-1.2-4.4c-2.1-1.3-3.5-1.7-6.1-2.2C48.8,0.2,45.1-0.1,41.4,0z"/>
<path id="path4300" style="fill:#D35337;" d="M52.4,4.5c-4.2,4.1-9.1,10-11.8,16.8c-3.1,7.7-6.7,14.3-9.2,18.6
	c0.2,0.2,0.4,0.3,0.6,0.3c1.5,0.1,1.7-0.7,2.3-1.7c0.6-0.9,1.8-2,2.8-3.7c2-3.4,4.3-8.9,7.1-13.5c0,0,5-8.1,6.3-10.1
	s3.8-3.7,3.8-4.8C54.3,5.5,53.5,4.9,52.4,4.5z"/>
<path id="path4302" style="fill:#FDD000;" d="M38.6,3.5c-2.2,0.5-4.1,1.4-4.5,1.6c-0.9,0.5-2,1.9-3.1,3.8c-1,1.9-1.9,4.1-2.6,6.2
	c-0.2,0.6-0.6,2.8-0.7,5.3s-0.2,5.7,0.1,8.6c0.1,1.1,0.3,2.2,0.5,3.2c1.2-4.4,2.3-10.9,4.2-17.3C34,10.4,36.3,6.6,38.6,3.5z"/>
<path id="path4320" style="fill:#FFFFFF;" d="M31.3,27.4c-1.5,0.3-2.7,2-3,4.2c-0.3,2.5,0.8,4.7,2.5,4.9s3.3-1.7,3.7-4.2
	s-0.8-4.7-2.5-4.9C31.8,27.4,31.6,27.3,31.3,27.4z"/>
<path id="path4328" style="fill:#D35337;" d="M83,66.2c-3.1,1.3-6.4,2.4-9.6,3.3c0.1,4.2,0.2,7.7,0.4,9.7
	C77.7,75.5,80.8,71.1,83,66.2z"/>
<path id="path4345" style="fill:#F18E38;" d="M7,66.2c1.7,3.7,3.9,7.1,6.5,10.2c-1-3.1-1.8-6-2.4-8.6C9.7,67.3,8.4,66.8,7,66.2z"/>
</svg>
