<?xml version="1.0" encoding="utf-8"?>
<!-- Generator: Adobe Illustrator 20.0.0, SVG Export Plug-In . SVG Version: 6.00 Build 0)  -->
<svg version="1.1"
	 id="svg2985" inkscape:version="0.48.2 r9819" sodipodi:docname="Custom Poke Ball.svg" xmlns:cc="http://creativecommons.org/ns#" xmlns:dc="http://purl.org/dc/elements/1.1/" xmlns:inkscape="http://www.inkscape.org/namespaces/inkscape" xmlns:rdf="http://www.w3.org/1999/02/22-rdf-syntax-ns#" xmlns:sodipodi="http://sodipodi.sourceforge.net/DTD/sodipodi-0.dtd" xmlns:svg="http://www.w3.org/2000/svg"
	 xmlns="http://www.w3.org/2000/svg" xmlns:xlink="http://www.w3.org/1999/xlink" x="0px" y="0px" viewBox="0 0 90 90"
	 style="enable-background:new 0 0 90 90;" xml:space="preserve">
<sodipodi:namedview  bordercolor="#666666" borderopacity="1" gridtolerance="10" guidetolerance="10" id="namedview2987" inkscape:current-layer="svg2985" inkscape:cx="45" inkscape:cy="45" inkscape:pageopacity="0" inkscape:pageshadow="2" inkscape:window-height="706" inkscape:window-maximized="1" inkscape:window-width="1366" inkscape:window-x="-8" inkscape:window-y="-8" inkscape:zoom="5.7444444" objecttolerance="10" pagecolor="#ffffff" showgrid="false">
	</sodipodi:namedview>
<path id="path3129" style="fill:#231815;" d="M45,0C20.1,0,0,20.1,0,45s20.1,45,45,45s45-20.1,45-45S69.9,0,45,0z"/>
<path id="path3002" style="fill:#FFFFFF;" d="M31.5,53.4c-5.2,0-9.4,4.2-9.4,9.4s4.2,9.4,9.4,9.4S41,68,41,62.8S36.7,53.4,31.5,53.4
	z M31.5,56.5c3.5,0,6.3,2.8,6.3,6.3c0,3.5-2.8,6.3-6.3,6.3s-6.2-2.8-6.2-6.3C25.3,59.3,28.1,56.5,31.5,56.5z M31.5,58.6
	c-2.4,0-4.2,1.9-4.2,4.2s1.9,4.2,4.2,4.2s4.3-1.9,4.3-4.2S33.9,58.6,31.5,58.6z"/>
<path id="path3043" style="fill:#C05828;" d="M45,3.3C22,3.3,3.3,22,3.3,45c0,1.9,0.1,3.8,0.4,5.7c4.8,2.7,10,4.8,15.2,6.3
	c2.2-4.8,7-8.1,12.6-8.1c7,0,12.7,5.1,13.8,11.8c14.2,0,28.6-2.9,41.1-10.2c0.2-1.8,0.4-3.7,0.4-5.6C86.7,22,68,3.3,45,3.3z"/>
<path id="path3057" style="fill:#E87840;" d="M45,3.3C23,3.3,5,20.3,3.4,42c4.3,5.3,10.5,9.4,17.8,11.6c2.5-2.9,6.2-4.7,10.3-4.7
	c4.4,0,8.4,2.1,10.9,5.3c15.5-3.6,27-15.8,27-30.4c0-5.7-1.7-11-4.8-15.6C58.8,5.1,52.1,3.3,45,3.3z"/>
<path id="path3120" style="fill:#A5A3C3;" d="M83,62.2c-10.4,4.3-21.5,6.5-32.2,7.2c-2.3,0.1-4.7,0.1-7.1,0.1
	c-2.4,4.3-7,7.3-12.2,7.3c-6.6,0-12.1-4.6-13.5-10.8c-3.7-1-7.4-2.3-11-3.8c6.5,14.5,21.1,24.5,38,24.5S76.5,76.6,83,62.2z"/>
<path id="path3108" style="fill:#D1C3E0;" d="M7,62.2c2.2,4.9,5.3,9.3,9.2,12.9c7.3,5.9,16.5,9.4,26.6,9.4c15.5,0,29-8.4,36.4-20.8
	C70,67,60.3,68.7,51,69.4c-2.3,0.1-4.7,0.1-7.1,0.1c-2.4,4.3-7,7.3-12.2,7.3c-6.6,0-12.1-4.6-13.5-10.8C14.3,65,10.6,63.7,7,62.2z"
	/>
<path id="path3072" style="fill:#FFFFFF;" d="M14.6,65.5c-0.4,0-0.8,0.1-1,0.3c-1.5,1.1-0.2,4.7,2.9,7.9s6.8,4.9,8.2,3.8
	c0.6-0.4,0.7-1.3,0.5-2.3c-3.4-1.7-6-4.8-7-8.5C16.8,65.9,15.5,65.5,14.6,65.5z"/>
<path id="path5032" style="fill:#F8C848;" d="M45,3.3c-2.8,0-5.5,0.3-8.2,0.8L19.7,20.9h11.8L23.2,36h9.1l17.2-19.7h-8.9L57.2,5.1
	C53.3,3.9,49.2,3.3,45,3.3z"/>
<path id="path5034" style="fill:#F0A810;" d="M83,62.2c-4.5,1.9-9.1,3.3-13.8,4.4c1.3,3.3,2.9,6.2,4.7,8.5
	C77.7,71.4,80.8,67,83,62.2z"/>
<path id="path3066" sodipodi:cx="25.088533" sodipodi:cy="25.097055" sodipodi:rx="9.0900478" sodipodi:ry="9.0900478" sodipodi:type="arc" style="fill:#FFFFFF;" d="
	M32.3,22.7c0,4-3.2,7.2-7.2,7.2s-7.2-3.2-7.2-7.2s3.2-7.2,7.2-7.2S32.3,18.7,32.3,22.7z"/>
<path id="path5549" style="fill:#F8E080;" d="M28.6,12.2l-8.9,8.7h11.8l-4.9,9c0.1,0,0.2,0,0.3,0c4.9,0,8.9-4,8.9-8.9
	C35.8,16.6,32.7,13,28.6,12.2z"/>
<path id="path5564" style="fill:#F0A810;" d="M7,62.2c0.5,1.2,1.1,2.3,1.7,3.4C9,64.8,9.2,64,9.4,63.2C8.6,62.9,7.8,62.5,7,62.2z"/>
<path id="path5558" style="fill:#F8C848;" d="M7.9,62.6c-0.1,0.4-0.2,0.7-0.2,1.1c0.3,0.6,0.6,1.3,1,1.9c0.2-0.8,0.5-1.5,0.7-2.4
	C8.9,63,8.4,62.8,7.9,62.6z"/>
<path id="path5593" style="fill:#F0A810;" d="M7.1,27.7C4.6,32.9,3.3,38.8,3.3,45c0,1.9,0.1,3.8,0.4,5.7c2.4,1.4,4.9,2.5,7.4,3.6
	c0.2-1.6,0.4-3.3,0.6-5C12.5,39,10.3,32.2,7.1,27.7z"/>
<path id="path5566" style="fill:#F8C848;" d="M7.1,27.6c-0.2,0.4-0.3,0.7-0.5,1.1c2.6,4.5,4.2,11,3.4,20.5c-0.1,1.5-0.3,2.9-0.4,4.3
	c0.5,0.2,1.1,0.5,1.6,0.7c0.2-1.6,0.4-3.2,0.6-5C12.5,39,10.3,32.2,7.1,27.6z"/>
<path id="path5568" style="fill:#F0A810;" d="M79.5,21.5c-8,5.5-14.9,15-13.3,31.6c0.2,1.8,0.4,3.5,0.8,5.2
	c6.8-1.6,13.3-4.1,19.4-7.7c0.2-1.8,0.4-3.7,0.4-5.6C86.7,36.3,84,28.2,79.5,21.5z"/>
<path id="path5570" style="fill:#F8C848;" d="M73.3,65.5c-1.4,0.4-2.7,0.7-4.1,1.1c1.3,3.3,2.9,6.2,4.7,8.5c0.8-0.8,1.6-1.6,2.4-2.5
	C75.1,70.6,74.1,68.2,73.3,65.5z"/>
<path id="path5572" style="fill:#F8C848;" d="M79.5,21.5c-8,5.5-14.9,15-13.3,31.6c0.2,1.8,0.4,3.5,0.8,5.2c1.5-0.4,3-0.8,4.4-1.2
	c-0.2-1.3-0.4-2.6-0.5-3.9c-1.5-15.2,3.4-24.5,9.6-30.1C80.1,22.5,79.8,22,79.5,21.5z"/>
</svg>
