<?xml version="1.0" encoding="utf-8"?>
<!-- Generator: Adobe Illustrator 20.0.0, SVG Export Plug-In . SVG Version: 6.00 Build 0)  -->
<svg version="1.1"
	 id="svg2985" inkscape:version="0.48.2 r9819" sodipodi:docname="Custom Poke Ball.svg" xmlns:cc="http://creativecommons.org/ns#" xmlns:dc="http://purl.org/dc/elements/1.1/" xmlns:inkscape="http://www.inkscape.org/namespaces/inkscape" xmlns:rdf="http://www.w3.org/1999/02/22-rdf-syntax-ns#" xmlns:sodipodi="http://sodipodi.sourceforge.net/DTD/sodipodi-0.dtd" xmlns:svg="http://www.w3.org/2000/svg"
	 xmlns="http://www.w3.org/2000/svg" xmlns:xlink="http://www.w3.org/1999/xlink" x="0px" y="0px" viewBox="0 0 90 90"
	 style="enable-background:new 0 0 90 90;" xml:space="preserve">
<sodipodi:namedview  bordercolor="#666666" borderopacity="1" gridtolerance="10" guidetolerance="10" id="namedview2987" inkscape:current-layer="svg2985" inkscape:cx="45" inkscape:cy="45" inkscape:pageopacity="0" inkscape:pageshadow="2" inkscape:window-height="706" inkscape:window-maximized="1" inkscape:window-width="1366" inkscape:window-x="-8" inkscape:window-y="-8" inkscape:zoom="5.7444444" objecttolerance="10" pagecolor="#ffffff" showgrid="false">
	</sodipodi:namedview>
<path id="path3129" style="fill:#231815;" d="M45,0C20.1,0,0,20.1,0,45s20.1,45,45,45s45-20.1,45-45S69.9,0,45,0z"/>
<path id="path4936" inkscape:connector-curvature="0" style="fill:#B01F24;" d="M45,3.3C22,3.3,3.3,22,3.3,45S22,86.7,45,86.7
	S86.7,68,86.7,45S68,3.3,45,3.3z"/>
<path id="path4953" inkscape:connector-curvature="0" sodipodi:nodetypes="ssccss" style="fill:#ED6D1E;" d="M35.8,32.2
	c-12,0-20.3,13.3-20.3,29.8c0,6.7,5.3,14.2,10.7,20.2c5.1,2.6,10.9,4.1,16.9,4.4c6.7-5.4,20.2-20.5,26.6-34.2
	C76.8,37.5,47.8,32.2,35.8,32.2z"/>
<path id="path3043" style="fill:#30A241;" d="M45,3.3C22,3.3,3.3,22,3.3,45c0,1.9,0.1,3.8,0.4,5.7c4.8,2.7,10,4.8,15.2,6.3
	c2.2-4.8,7-8.1,12.6-8.1c7,0,12.7,5.1,13.8,11.8c14.2,0,28.6-2.9,41.1-10.2c0.2-1.8,0.4-3.7,0.4-5.6C86.7,22,68,3.3,45,3.3z"/>
<path id="path3120" style="fill:#30A241;" d="M83,62.2c-10.4,4.3-21.5,6.5-32.2,7.2c-2.3,0.1-4.7,0.1-7.1,0.1
	c-2.4,4.3-7,7.3-12.2,7.3c-6.6,0-12.1-4.6-13.5-10.8c-3.7-1-7.4-2.3-11-3.8c6.5,14.5,21.1,24.5,38,24.5S76.5,76.6,83,62.2z"/>
<path id="path3002-1" inkscape:connector-curvature="0" style="fill:#231815;" d="M31.5,53.4c-5.2,0-9.4,4.2-9.4,9.4
	s4.2,9.4,9.4,9.4S41,68,41,62.8S36.7,53.4,31.5,53.4z M31.5,54.6c4.5,0,8.2,3.7,8.2,8.2S36.1,71,31.5,71s-8.2-3.7-8.2-8.2
	S27,54.6,31.5,54.6z M31.5,56.5c-3.5,0-6.2,2.8-6.2,6.3c0,3.5,2.8,6.3,6.2,6.3s6.3-2.8,6.3-6.3C37.8,59.3,35,56.5,31.5,56.5z
	 M31.5,58.6c2.4,0,4.3,1.9,4.3,4.2S33.9,67,31.5,67s-4.2-1.9-4.2-4.2S29.2,58.6,31.5,58.6z"/>
<path id="path4970" style="fill:#9BCA54;" d="M43.4,16.5c-15.2,0-27.6,15-27.6,33.5c0,2.1,0.2,4.1,0.5,6.1c0.9,0.3,1.7,0.6,2.6,0.8
	c2.2-4.8,7-8.1,12.6-8.1c7,0,12.7,5.1,13.8,11.8c8.4,0,16.9-1.1,25.1-3.4c0.4-2.3,0.7-4.8,0.7-7.2C71,31.6,58.7,16.5,43.4,16.5z"/>
<path id="path4947" style="fill:#4F4B47;" d="M59.5,5.9c2.8,2,4.6,4.4,4.6,7.1c0,6.4-9.6,11.6-21.5,11.6S21.1,19.4,21.1,13
	c0-0.8,0.2-1.7,0.5-2.5c-4.3,3-8.1,6.7-11.1,11C11.4,26,12,31.3,12,36.9c0,6.3-0.7,12.1-1.8,16.9c1.9,0.8,3.8,1.5,5.7,2.2
	c1.7-13.6,9.4-23.8,19.9-23.8c11.5,0,21.2,12.2,21.9,27.7c3.1-0.4,6.3-1,9.3-1.7c-0.7-3.1-1.1-6.5-1.1-10.1c0-13.9,5.8-25.2,13-25.2
	c0.6,0,1.1,0.1,1.6,0.2C75.7,15.3,68.3,9.1,59.5,5.9z"/>
<path id="path4965" style="fill:#4F4B47;" d="M7,62.2c3.9,8.7,10.8,15.8,19.3,20.1c-4.5-5-9-11.1-10.4-16.9
	C12.9,64.5,9.9,63.4,7,62.2z"/>
<path id="path4975" style="fill:#9BCA54;" d="M67.2,67.1c-5.5,1.2-11,1.9-16.4,2.3c-2.3,0.1-4.7,0.1-7.1,0.1
	c-2.4,4.3-7,7.3-12.2,7.3c-2.3,0-4.5-0.6-6.4-1.6c4.9,5.2,11.3,8.4,18.3,8.4C53.6,83.6,62.4,76.9,67.2,67.1z"/>
<path id="path4950" style="fill:#4F4B47;" d="M70,66.4c-4.4,1.1-8.9,1.9-13.4,2.4c-2.4,7.4-8.3,13.7-13.5,17.8
	c0.6,0,1.3,0.1,1.9,0.1c12.4,0,23.5-5.4,31.2-14C73.8,71.7,71.7,69.5,70,66.4z"/>
</svg>
