<?xml version="1.0" encoding="utf-8"?>
<!-- Generator: Adobe Illustrator 20.0.0, SVG Export Plug-In . SVG Version: 6.00 Build 0)  -->
<svg version="1.1"
	 id="svg2985" inkscape:version="0.48.2 r9819" sodipodi:docname="Custom Poke Ball.svg" xmlns:cc="http://creativecommons.org/ns#" xmlns:dc="http://purl.org/dc/elements/1.1/" xmlns:inkscape="http://www.inkscape.org/namespaces/inkscape" xmlns:rdf="http://www.w3.org/1999/02/22-rdf-syntax-ns#" xmlns:sodipodi="http://sodipodi.sourceforge.net/DTD/sodipodi-0.dtd" xmlns:svg="http://www.w3.org/2000/svg"
	 xmlns="http://www.w3.org/2000/svg" xmlns:xlink="http://www.w3.org/1999/xlink" x="0px" y="0px" viewBox="0 0 90 90"
	 style="enable-background:new 0 0 90 90;" xml:space="preserve">
<sodipodi:namedview  bordercolor="#666666" borderopacity="1" gridtolerance="10" guidetolerance="10" id="namedview2987" inkscape:current-layer="svg2985" inkscape:cx="45" inkscape:cy="45" inkscape:pageopacity="0" inkscape:pageshadow="2" inkscape:window-height="706" inkscape:window-maximized="1" inkscape:window-width="1366" inkscape:window-x="-8" inkscape:window-y="-8" inkscape:zoom="5.7444444" objecttolerance="10" pagecolor="#ffffff" showgrid="false">
	</sodipodi:namedview>
<path id="path3129" style="fill:#231815;" d="M45,0C20.1,0,0,20.1,0,45s20.1,45,45,45s45-20.1,45-45S69.9,0,45,0z"/>
<path id="path6261" style="fill:#D04038;" d="M45,3.1C21.9,3.1,3.1,21.9,3.1,45c0,1.8,0.1,3.5,0.3,5.3c3,1.7,6.1,3.2,8.9,4.1
	s4.7,2.9,4.7,5.2c0,0.4-0.1,0.7-0.2,1.1c0.2,0.1,0.4,0.1,0.6,0.2c0.9-6.8,6.8-12.1,13.9-12.1c7.7,0,14,6.3,14,14c0,0.5,0,1-0.1,1.6
	c0.5,0,0.9,0,1.4,0c0.3-2.1,2.5-3.7,9.8-4.1c8-0.4,19.7-4.1,30-9.9c0.2-1.7,0.3-3.5,0.3-5.3C86.9,21.9,68.1,3.1,45,3.1z"/>
<path id="path5673" style="fill:#D04038;" d="M6.3,61.2C12.7,76.3,27.6,86.9,45,86.9s32.3-10.6,38.7-25.7c-10.1,5-21.2,8.1-28.2,7.9
	C49,69,47,67.4,46.8,65.3c-0.5,0-1,0-1.5,0c-1.2,6.5-6.9,11.5-13.8,11.5c-7.7,0-14-6.3-14-14c0-0.3,0-0.6,0-0.9
	c-0.3-0.1-0.6-0.2-0.9-0.2c-0.8,1.3-2.4,2-4.5,1.5C8.8,62.4,7.6,61.8,6.3,61.2z"/>
<path id="path3002" style="fill:#F86860;" d="M31.5,53.4c-5.2,0-9.4,4.2-9.4,9.4s4.2,9.4,9.4,9.4S41,68,41,62.8S36.7,53.4,31.5,53.4
	z M31.5,56.5c3.5,0,6.3,2.8,6.3,6.3c0,3.5-2.8,6.3-6.3,6.3s-6.2-2.8-6.2-6.3C25.3,59.3,28.1,56.5,31.5,56.5z M31.5,58.6
	c-2.4,0-4.2,1.9-4.2,4.2s1.9,4.2,4.2,4.2s4.3-1.9,4.3-4.2S33.9,58.6,31.5,58.6z"/>
<path id="path6268" style="fill:#F86860;" d="M45,3.1C21.9,3.1,3.1,21.9,3.1,45c0,1.8,0.1,3.5,0.3,5.3c3,1.7,6.1,3.2,8.9,4.1
	s4.7,2.9,4.7,5.2c0,0.4-0.1,0.7-0.2,1.1c0.2,0.1,0.4,0.1,0.6,0.2c0.9-6.8,6.8-12.1,13.9-12.1c0.2,0,0.5,0,0.7,0
	c7.2,0.4,13,6.2,13.3,13.4c0,0.2,0.1,0.4,0,0.6c0,0.5,0,1-0.1,1.6c0.5,0,0.9,0,1.4,0c0.3-2.1,2.5-3.7,9.8-4.1c1-0.1,2.1-0.2,3.2-0.3
	c0.2,0,0.3,0,0.5-0.1c0.1,0,0.2,0,0.3-0.1c0.5-0.1,1.1-0.2,1.6-0.3c0.3-0.1,0.7-0.1,1-0.2c0.3-0.1,0.7-0.1,1-0.2
	c0.3-0.1,0.5-0.1,0.8-0.2c0.4-0.1,0.9-0.2,1.3-0.3c0.5-0.1,1.1-0.3,1.6-0.4c0.2-0.1,0.4-0.1,0.5-0.2c0.1,0,0.2-0.1,0.3-0.1
	c0.6-0.2,1.3-0.4,1.9-0.6c0.7-0.2,1.3-0.5,2-0.7c0.1,0,0.2-0.1,0.3-0.1c4.6-6.4,7.3-13.9,7.3-22c0-6.6-1.8-12.8-5-18.4l0,0
	c-0.2-0.2-0.4-0.4-0.7-0.7c-0.3-0.3-0.5-0.5-0.8-0.8c-0.1-0.1-0.1-0.1-0.2-0.2c-0.4-0.4-0.8-0.7-1.2-1.1L72,13.2
	c-0.4-0.4-0.9-0.7-1.3-1.1c-0.1-0.1-0.2-0.1-0.3-0.2c0,0-0.1,0-0.1-0.1c-0.5-0.4-1.1-0.8-1.6-1.2c-0.6-0.4-1.1-0.8-1.7-1.1l0,0
	c-0.5-0.3-1.1-0.7-1.6-1c-0.1,0-0.1-0.1-0.2-0.1c-0.6-0.3-1.2-0.7-1.8-1s-1.3-0.6-1.9-0.9S60.2,6,59.6,5.7s-1.3-0.5-2-0.7
	s-1.3-0.4-2-0.6S54.4,4.2,53.7,4c-0.6-0.1-1.2-0.2-1.8-0.3c-0.1,0-0.2,0-0.3-0.1c-0.3,0-0.5-0.1-0.8-0.1C48.9,3.3,47,3.1,45,3.1z"/>
<path id="path6266" style="fill:#F86860;" d="M6.3,61.2c0.3,0.6,0.5,1.2,0.8,1.8c0,0.1,0.1,0.2,0.1,0.2c0.3,0.5,0.5,1.1,0.8,1.6
	c0.1,0.1,0.1,0.2,0.2,0.3c0.3,0.5,0.5,1,0.8,1.5c0.2,0.4,0.5,0.8,0.7,1.1C9.9,67.8,10,68,10,68.1c0.2,0.4,0.5,0.7,0.8,1.1
	c0,0.1,0.1,0.1,0.1,0.2c0.3,0.4,0.5,0.7,0.8,1.1s0.6,0.8,0.9,1.2c0.1,0.1,0.2,0.2,0.2,0.3c0.2,0.3,0.5,0.6,0.8,0.8
	c0.2,0.2,0.4,0.5,0.6,0.7c0.1,0.1,0.2,0.3,0.4,0.4c0.3,0.4,0.7,0.7,1.1,1.1c4.5,1.1,9.3,1.8,14.3,1.8c-0.9-0.1-1.8-0.3-2.7-0.6
	c-0.4-0.1-0.9-0.3-1.3-0.5s-0.8-0.3-1.2-0.6L24.7,75c-0.4-0.2-0.7-0.4-1.1-0.7c-0.2-0.2-0.5-0.3-0.7-0.5c-0.1-0.1-0.2-0.2-0.3-0.3
	c0,0,0,0-0.1-0.1c-0.3-0.3-0.7-0.6-1-0.9s-0.6-0.6-0.9-1c-0.2-0.3-0.5-0.6-0.7-0.9c-0.1-0.1-0.1-0.2-0.2-0.3
	c-0.1-0.2-0.3-0.4-0.4-0.7c-0.1-0.2-0.2-0.4-0.3-0.6c0-0.1-0.1-0.1-0.1-0.2c-0.2-0.3-0.3-0.7-0.5-1l0,0c-0.2-0.4-0.3-0.8-0.4-1.2
	c-0.1-0.4-0.2-0.7-0.3-1.1v-0.1c0-0.2-0.1-0.3-0.1-0.5c0-0.3-0.1-0.6-0.1-0.9c0-0.4-0.1-0.9-0.1-1.3c0-0.3,0-0.6,0-0.9
	c-0.3-0.1-0.6-0.2-0.9-0.2c-0.6,1-1.8,1.7-3.4,1.7c-0.4,0-0.7-0.1-1.1-0.2c-1.6-0.4-2.7-0.7-3.5-1S7,61.5,6.3,61.2z"/>
<path id="path5709" style="fill:#F86860;" d="M46.7,65.3c-0.5,0-1,0-1.5,0c-0.3,1.8-1,3.5-2,5c-0.1,0.3-0.1,0.5-0.2,1
	c-0.8,3.7,6.7,0.3,16.2-2.4c-0.3,0-0.7,0.1-1,0.1s-0.7,0-1,0.1c-0.6,0-1.3,0-1.8,0c-0.9,0-1.7-0.1-2.4-0.1c-0.7-0.1-1.3-0.2-1.9-0.3
	l0,0c-0.3-0.1-0.5-0.1-0.8-0.2s-0.5-0.1-0.7-0.2c-0.4-0.2-0.8-0.3-1.2-0.5C47.3,67.1,46.8,66.2,46.7,65.3z"/>
<path id="path5704" style="fill:#F8A098;" d="M45,3.1C22.7,3.1,4.5,20.6,3.2,42.5c5.8,1.9,12.3,2.9,19.2,2.9
	C45.9,45.4,65,33.2,65,18.1c0-4.3-1.6-8.4-4.3-12C55.8,4.2,50.5,3.1,45,3.1z"/>
<path id="path5656" style="fill:#F8A098;" d="M31.5,53.4c-5.2,0-9.4,4.2-9.4,9.4c0,2.8,1.2,5.3,3.2,7.1c-1.5-1.7-2.5-3.9-2.5-6.4
	c0-5.2,4.2-9.4,9.4-9.4c2.5,0,4.7,1,6.4,2.5C36.9,54.6,34.4,53.4,31.5,53.4z"/>
<path id="path5660" style="fill:#F4A7A4;" d="M31.5,58.6c-2.4,0-4.2,1.9-4.2,4.2c0,1.4,0.6,2.5,1.6,3.3c-0.4-0.7-0.7-1.4-0.7-2.3
	c0-2.4,1.9-4.2,4.2-4.2c1,0,1.9,0.4,2.7,1C34.4,59.4,33.1,58.6,31.5,58.6z"/>
<path id="path5701" style="fill:#FFFFFF;" d="M31.2,13.4c-5.9,0-11.1,4.8-11.5,10.7s4.1,10.7,10,10.7S40.8,30,41.2,24.1
	S37.1,13.4,31.2,13.4z"/>
<path id="path5717" style="fill:#D04038;" d="M85.6,56c-9.6,4.3-21,7.1-33.5,7.8c-0.6,0-1,0.5-1,1s0.5,1,1,1
	c12-0.6,23.2-3.2,32.7-7.2C85.1,57.7,85.3,56.9,85.6,56z"/>
<path id="path6248" style="fill:#F86860;" d="M4.2,55.4c0.2,0.8,0.5,1.7,0.7,2.5c2.3,1,4.7,1.9,7.2,2.7c0.5,0.2,1.1-0.1,1.3-0.6
	s-0.1-1.1-0.6-1.3l0,0C9.8,57.7,7,56.6,4.2,55.4z"/>
<path id="path6237" style="fill:#F86860;" d="M70.2,61.2c-5.7,1.4-11.8,2.3-18.2,2.6c-0.6,0-1,0.5-1,1s0.5,1,1,1
	c5.5-0.3,10.8-1,15.8-2.1C68.8,62.9,69.5,62.1,70.2,61.2z"/>
</svg>
