<?xml version="1.0" encoding="utf-8"?>
<!-- Generator: Adobe Illustrator 20.0.0, SVG Export Plug-In . SVG Version: 6.00 Build 0)  -->
<svg version="1.1"
	 id="svg2985" inkscape:version="0.48.2 r9819" sodipodi:docname="Custom Poke Ball.svg" xmlns:cc="http://creativecommons.org/ns#" xmlns:dc="http://purl.org/dc/elements/1.1/" xmlns:inkscape="http://www.inkscape.org/namespaces/inkscape" xmlns:rdf="http://www.w3.org/1999/02/22-rdf-syntax-ns#" xmlns:sodipodi="http://sodipodi.sourceforge.net/DTD/sodipodi-0.dtd" xmlns:svg="http://www.w3.org/2000/svg"
	 xmlns="http://www.w3.org/2000/svg" xmlns:xlink="http://www.w3.org/1999/xlink" x="0px" y="0px" viewBox="0 0 91 90"
	 style="enable-background:new 0 0 91 90;" xml:space="preserve">
<sodipodi:namedview  bordercolor="#666666" borderopacity="1" gridtolerance="10" guidetolerance="10" id="namedview2987" inkscape:current-layer="svg2985" inkscape:cx="45.5" inkscape:cy="45" inkscape:pageopacity="0" inkscape:pageshadow="2" inkscape:window-height="706" inkscape:window-maximized="1" inkscape:window-width="1366" inkscape:window-x="-8" inkscape:window-y="-8" inkscape:zoom="5.7444444" objecttolerance="10" pagecolor="#ffffff" showgrid="false">
	</sodipodi:namedview>
<path id="path3129" inkscape:connector-curvature="0" style="fill:#231815;" d="M45,0C20.1,0,0,20.1,0,45s20.1,45,45,45
	s45-20.1,45-45S69.9,0,45,0z"/>
<path id="path3002" inkscape:connector-curvature="0" style="fill:#FFFFFF;" d="M31.5,53.4c-5.2,0-9.4,4.2-9.4,9.4s4.2,9.4,9.4,9.4
	S41,68,41,62.8S36.7,53.4,31.5,53.4z M31.5,56.5c3.5,0,6.3,2.8,6.3,6.3c0,3.5-2.8,6.3-6.3,6.3s-6.2-2.8-6.2-6.3
	C25.3,59.3,28.1,56.5,31.5,56.5z M31.5,58.6c-2.4,0-4.2,1.9-4.2,4.2s1.9,4.2,4.2,4.2s4.3-1.9,4.3-4.2S33.9,58.6,31.5,58.6z"/>
<path id="path3043" inkscape:connector-curvature="0" style="fill:#2E7287;" d="M45,3.3C22,3.3,3.3,22,3.3,45c0,1.9,0.1,3.8,0.4,5.7
	c4.8,2.7,10,4.8,15.2,6.3c2.2-4.8,7-8.1,12.6-8.1c7,0,12.7,5.1,13.8,11.8c14.2,0,28.6-2.9,41.1-10.2c0.2-1.8,0.4-3.7,0.4-5.6
	C86.7,22,68,3.3,45,3.3z"/>
<path id="path3057" inkscape:connector-curvature="0" style="fill:#0998B4;" d="M45,3.3C23,3.3,5,20.3,3.4,42
	c4.3,5.3,10.5,9.4,17.8,11.6c2.5-2.9,6.2-4.7,10.3-4.7c4.4,0,8.4,2.1,10.9,5.3c15.5-3.6,27-15.8,27-30.4c0-5.7-1.7-11-4.8-15.6
	C58.8,5.1,52.1,3.3,45,3.3z"/>
<path id="path3066" inkscape:connector-curvature="0" style="fill:#FFFFFF;" d="M27.3,15.5c-5.4,0-10.3,4.4-11.1,9.9
	c-0.8,5.5,3,9.9,8.3,9.9s10.3-4.4,11.1-9.9S32.7,15.5,27.3,15.5z"/>
<path id="path3120" inkscape:connector-curvature="0" style="fill:#A5A3C3;" d="M83,62.2c-10.4,4.3-21.5,6.5-32.2,7.2
	c-2.3,0.1-4.7,0.1-7.1,0.1c-2.4,4.3-7,7.3-12.2,7.3c-6.6,0-12.1-4.6-13.5-10.8c-3.7-1-7.4-2.3-11-3.8c6.5,14.5,21.1,24.5,38,24.5
	S76.5,76.6,83,62.2z"/>
<path id="path3108" inkscape:connector-curvature="0" style="fill:#D1C3E0;" d="M7,62.2c2.2,4.9,5.3,9.3,9.2,12.9
	c7.3,5.9,16.5,9.4,26.6,9.4c15.5,0,29-8.4,36.4-20.8C70,67,60.3,68.7,51,69.4c-2.3,0.1-4.7,0.1-7.1,0.1c-2.4,4.3-7,7.3-12.2,7.3
	c-6.6,0-12.1-4.6-13.5-10.8C14.3,65,10.6,63.7,7,62.2z"/>
<path id="path3072" inkscape:connector-curvature="0" style="fill:#FFFFFF;" d="M14.6,65.5c-0.4,0-0.8,0.1-1,0.3
	c-1.5,1.1-0.2,4.7,2.9,7.9s6.8,4.9,8.2,3.8c0.6-0.4,0.7-1.3,0.5-2.3c-3.4-1.7-6-4.8-7-8.5C16.8,65.9,15.5,65.5,14.6,65.5z"/>
<path id="path5103" style="fill:#525C5F;" d="M23.8,14.8L9.2,33.4l13.2,18.9c1.5-1.3,3.1-2.2,5-2.8c-2.4-1.9-6.3-6.1-11.8-15.6
	c0,0,4.7-7.1,10.6-11.7S23.8,14.8,23.8,14.8z"/>
<path id="path5099" inkscape:connector-curvature="0" sodipodi:nodetypes="csssccscc" style="fill:#231815;" d="M73.8,30.6
	c0,0-5.7-10.8-15.7-17.2S32.9-2.3,24.4,1.7s-1.2,8,4,7.7s-5.9,10.8-5.9,10.8l3,3c0,0,3.3-4.2,8.5-6.8S44,12,44,12
	S75.6,41.1,73.8,30.6z"/>
<path id="path5089" style="fill:#525C5F;" d="M29.5,6.3C27.7,7,26,7.8,24.3,8.8l1.7,1c0,0-3.7,1.9-7.7,5.9c-3.8,3.8-8.9,8.2-9.5,8.7
	c-0.1,0.2-0.2,0.4-0.3,0.6l2.3,5.7L34.1,8.2L29.5,6.3z"/>
<path id="path5094" style="fill:#525C5F;" d="M7.5,37.1c-1.6-0.1-2.9,1.5-4,3.8c-0.1,1.4-0.2,2.8-0.2,4.2c0,1.9,0.1,3.8,0.4,5.7
	c0.6,0.3,1.2,0.7,1.8,1c0.3-1.4,0.8-2.9,1.3-4.3c1.6-3.8,4.4-7,4.4-7C9.9,38.1,8.6,37.2,7.5,37.1z"/>
<path id="path5101" inkscape:connector-curvature="0" style="fill:#231815;" d="M5.4,35.7c0,0,3.1,9.4,9.1,15.3s8,8.5,8,8.5l1.4-5.9
	l-15-18.8L5.4,35.7z"/>
<path id="path5087" inkscape:connector-curvature="0" style="fill:#231815;" d="M11.7,28c0,0-1.6-8-4-8S3,23.3,2.4,27.7
	c-0.5,4.4,12.9,27.2,19,29.6S5.2,33.1,11.7,28z"/>
<path id="path5066" inkscape:connector-curvature="0" style="fill:#525C5F;" d="M63.9,5.2c0,0,1.4,0.9,1.6,1.9s-2.6,0.5-7.1,0.7
	s-13.1,2.6-13.1,2.6l2.3-5L63.9,5.2z"/>
<path id="path5064" inkscape:connector-curvature="0" style="fill:#231815;" d="M77.1,17.4c0,0,5.6-2.4,6.8,0.2s3.7,4,1.7,8.5
	s-7.8,11.5-7.8,11.5s2.1,3.5,2.6,7.5s1.7,11.3,1.7,11.3l-4,1.6l-5.4-22.8L77.1,17.4z"/>
<path id="path5068" inkscape:connector-curvature="0" style="fill:#525C5F;" d="M76.8,17.1c0,0,4.2,0.3,5,1.7
	c0.9,1.4-10.6,13.4-10.6,13.4l-2.8-3.7C68.4,28.5,72.8,27.2,76.8,17.1z"/>
<path id="path5079" style="fill:#525C5F;" d="M70.3,39.3C68,39.5,66,41.4,66,41.4s2.8,2.1,4.7,10.1c0.5,2.1,0.8,3.9,1,5.4
	c1.8-0.6,3.6-1.2,5.3-1.9c-0.3-4.1-1.1-9.8-2.9-13.1C73,39.9,71.6,39.3,70.3,39.3z"/>
<path id="path5077" inkscape:connector-curvature="0" sodipodi:nodetypes="csccc" style="fill:#231815;" d="M73.6,42.5
	c0,0-6.5,7-13.6,11.7c-7.7,5-14.1,8.2-14.1,8.2l-2.8-4.9C43.2,57.4,72.1,39,73.6,42.5z"/>
<path id="path5031" style="fill:#292D31;" d="M51.4,2.1c-2.8,0-7.8,0.2-9.8,1.4c-1.1,0.6-2.3,1.3-3.4,1.9c-0.9-0.3-1.8-0.7-2.8-0.9
	c-11.2-4-13.5,2.7-8.3,2.9c1.6,0.4,3.3,0.9,5,1.5c-6,3.5-11.3,7-14.2,10.2c-2.5,2.7-5.1,5.8-7.7,8.9c-0.5-1.2-0.9-2.4-1.5-3.5
	c-1.8-3.8-4.4,4.3-3.4,7.5c0.2,0.5,0.4,0.9,0.5,1.4c-0.5,0.6-1,1.3-1.5,1.9c-2.3,4.7-2,6.4-2,9.8c0,1.3,1,2.5,1.1,3.8
	c1.2-2.8,2.9-6.1,5.1-9.7c0.3,0.6,0.7,1.3,1,1.8c3.1,5.5,7.5,10.3,10.8,13.6c1.3-1.7,3-3.1,4.9-4.1c-2.3-2.6-5.4-6.2-9.3-11.1
	c-1.5-1.9-2.6-3.9-3.5-6c2.3-3,4.9-6,8.1-9c5.7-5.4,12-9.9,18.3-13.1c6.8,3,13.7,7.2,19.3,13.4c3.7,4,6.5,7.7,8.7,11
	c-1.2,1.3-2.5,2.7-3.8,4c-7.9,7.7-15.7,11.9-20.9,14.1c1.6,1.9,2.7,4.2,3.2,6.8c6.4-3.7,14.9-8.9,21.6-14.6c1.2-1,2.5-2.3,3.9-3.7
	c3.3,6.6,3.8,11.2,3.7,13.8c2-0.7,3.9-1.5,5.8-2.3c-0.2-4.1-1-9.4-4.9-16.5c2.7-3.2,5.4-6.5,7.7-9.4c2.5-9.1-1.9-12.1-4.3-7.5
	c-1.9,3-4.4,6.5-7.5,10.3c-2.5-3.5-5.7-7.3-9.8-11.5C56.9,14.5,51.3,11,45.7,8.3c4.9-1.7,9.7-2.5,14.2-2.3c10.5-0.2-1.3-3.9-6.5-3.9
	C53.1,2.1,52.3,2.1,51.4,2.1z"/>
<path id="path5050" style="fill:#525C5F;" d="M38.9,11.2c-0.7,0.4-1.4,0.7-2.1,1.1c0.1,0.1,0.2,0.3,0.4,0.4
	c6.5,3.7,19.5,12.1,26.5,22.4c-3.2,5.8-14.4,12.8-22.8,17.4c0.4,0.4,0.8,0.8,1.2,1.2c5.2-2.2,13.1-6.4,20.9-14.1
	c1.4-1.3,2.6-2.7,3.8-4c-2.2-3.3-5-6.9-8.7-11c-5.4-5.9-12-10.1-18.6-13.1C39.3,11.5,39.1,11.4,38.9,11.2z"/>
</svg>
