<?xml version="1.0" encoding="utf-8"?>
<!-- Generator: Adobe Illustrator 20.0.0, SVG Export Plug-In . SVG Version: 6.00 Build 0)  -->
<svg version="1.1"
	 id="svg2985" inkscape:version="0.48.2 r9819" sodipodi:docname="Custom Poke Ball.svg" xmlns:cc="http://creativecommons.org/ns#" xmlns:dc="http://purl.org/dc/elements/1.1/" xmlns:inkscape="http://www.inkscape.org/namespaces/inkscape" xmlns:rdf="http://www.w3.org/1999/02/22-rdf-syntax-ns#" xmlns:sodipodi="http://sodipodi.sourceforge.net/DTD/sodipodi-0.dtd" xmlns:svg="http://www.w3.org/2000/svg"
	 xmlns="http://www.w3.org/2000/svg" xmlns:xlink="http://www.w3.org/1999/xlink" x="0px" y="0px" viewBox="0 0 90 90"
	 style="enable-background:new 0 0 90 90;" xml:space="preserve">
<sodipodi:namedview  bordercolor="#666666" borderopacity="1" gridtolerance="10" guidetolerance="10" id="namedview2987" inkscape:current-layer="svg2985" inkscape:cx="45" inkscape:cy="45" inkscape:pageopacity="0" inkscape:pageshadow="2" inkscape:window-height="706" inkscape:window-maximized="1" inkscape:window-width="1366" inkscape:window-x="-8" inkscape:window-y="-8" inkscape:zoom="5.7444444" objecttolerance="10" pagecolor="#ffffff" showgrid="false">
	</sodipodi:namedview>
<path id="path3824" inkscape:connector-curvature="0" sodipodi:nodetypes="sssss" style="fill:#356BB3;" d="M16.8,16.5
	c4.3,6.7,0.8,15.3-5.5,17.9c-3.2,1.3-5.7,1-8.2-1.7c-4.5-4.9-3.7-13.1,0-16.4C8.1,12.1,14.4,12.8,16.8,16.5z"/>
<path id="path3826" inkscape:connector-curvature="0" sodipodi:nodetypes="sssss" style="fill:#5997D1;" d="M17,17
	c2.6,2.1,1.9,7.8,0,12.1c-2.4,5.3-9.7,8.1-13,3.8C0.4,28.3-0.2,21.2,4,17C8.4,12.6,13.4,14.1,17,17z"/>
<path id="path3828" sodipodi:cx="75.986458" sodipodi:cy="30.029013" sodipodi:rx="3.0464218" sodipodi:ry="3.2205029" sodipodi:type="arc" style="fill:#81C7EF;" d="
	M2.3,20.5c0,2.2,1.7,4,3.7,4c2.1,0,3.7-1.8,3.7-3.9l0,0c0-2.2-1.7-4-3.7-4S2.3,18.3,2.3,20.5L2.3,20.5z"/>
<path id="path3129" style="fill:#231815;" d="M45,0C20.1,0,0,20.1,0,45s20.1,45,45,45s45-20.1,45-45S69.9,0,45,0z"/>
<path id="path3002" style="fill:#FFFFFF;" d="M31.5,53.4c-5.2,0-9.4,4.2-9.4,9.4s4.2,9.4,9.4,9.4S41,68,41,62.8S36.7,53.4,31.5,53.4
	z M31.5,56.5c3.5,0,6.3,2.8,6.3,6.3c0,3.5-2.8,6.3-6.3,6.3s-6.2-2.8-6.2-6.3C25.3,59.3,28.1,56.5,31.5,56.5z M31.5,58.6
	c-2.4,0-4.2,1.9-4.2,4.2s1.9,4.2,4.2,4.2s4.3-1.9,4.3-4.2S33.9,58.6,31.5,58.6z"/>
<path id="path3043" style="fill:#44494D;" d="M45,3.3C22,3.3,3.3,22,3.3,45c0,1.9,0.1,3.8,0.4,5.7c4.8,2.7,10,4.8,15.2,6.3
	c2.2-4.8,7-8.1,12.6-8.1c7,0,12.7,5.1,13.8,11.8c14.2,0,28.6-2.9,41.1-10.2c0.2-1.8,0.4-3.7,0.4-5.6C86.7,22,68,3.3,45,3.3z"/>
<path id="path3057" style="fill:#626872;" d="M45,3.3C23,3.3,5,20.3,3.4,42c4.3,5.3,10.5,9.4,17.8,11.6c2.5-2.9,6.2-4.7,10.3-4.7
	c4.4,0,8.4,2.1,10.9,5.3c15.5-3.6,27-15.8,27-30.4c0-5.7-1.7-11-4.8-15.6C58.8,5.1,52.1,3.3,45,3.3z"/>
<path id="path3066" sodipodi:cx="25.088533" sodipodi:cy="25.097055" sodipodi:rx="9.0900478" sodipodi:ry="9.0900478" sodipodi:type="arc" style="fill:#FFFFFF;" d="
	M35.6,25.4c0,5.5-4.4,9.9-9.7,9.9s-9.7-4.4-9.7-9.9s4.4-9.9,9.7-9.9S35.6,19.9,35.6,25.4z"/>
<path id="path3120" style="fill:#A5A3C3;" d="M83,62.2c-10.4,4.3-21.5,6.5-32.2,7.2c-2.3,0.1-4.7,0.1-7.1,0.1
	c-2.4,4.3-7,7.3-12.2,7.3c-6.6,0-12.1-4.6-13.5-10.8c-3.7-1-7.4-2.3-11-3.8c6.5,14.5,21.1,24.5,38,24.5S76.5,76.6,83,62.2z"/>
<path id="path3108" style="fill:#D1C3E0;" d="M7,62.2c2.2,4.9,5.3,9.3,9.2,12.9c7.3,5.9,16.5,9.4,26.6,9.4c15.5,0,29-8.4,36.4-20.8
	C70,67,60.3,68.7,51,69.4c-2.3,0.1-4.7,0.1-7.1,0.1c-2.4,4.3-7,7.3-12.2,7.3c-6.6,0-12.1-4.6-13.5-10.8C14.3,65,10.6,63.7,7,62.2z"
	/>
<path id="path3072" style="fill:#FFFFFF;" d="M14.6,65.5c-0.4,0-0.8,0.1-1,0.3c-1.5,1.1-0.2,4.7,2.9,7.9s6.8,4.9,8.2,3.8
	c0.6-0.4,0.7-1.3,0.5-2.3c-3.4-1.7-6-4.8-7-8.5C16.8,65.9,15.5,65.5,14.6,65.5z"/>
<path id="path3800" inkscape:connector-curvature="0" sodipodi:nodetypes="sssss" style="fill:#356BB3;" d="M72.4,22.2
	c-4.3,6.7-0.8,15.3,5.5,17.9c3.2,1.3,6.6,1,9-1.7c4.5-4.9,3.7-13.6,0-16.9C81.9,17.3,74.8,18.5,72.4,22.2z"/>
<path id="path3030" inkscape:connector-curvature="0" sodipodi:nodetypes="sssss" style="fill:#5997D1;" d="M72.2,22.8
	c-2.6,2.1-1.9,7.8,0,12.1c2.4,5.3,9.7,8.1,13,3.8c3.6-4.6,4.1-11.8,0-15.9C80.8,18.4,75.7,19.9,72.2,22.8z"/>
<path id="path3805" sodipodi:cx="75.986458" sodipodi:cy="30.029013" sodipodi:rx="3.0464218" sodipodi:ry="3.2205029" sodipodi:type="arc" style="fill:#81C7EF;" d="
	M78.4,26.3c0,2.2-1.7,4-3.7,4c-2.1,0-3.7-1.8-3.7-3.9l0,0c0-2.2,1.7-4,3.7-4C76.8,22.3,78.4,24.1,78.4,26.3L78.4,26.3z"/>
<path id="path3811" sodipodi:cx="49.787235" sodipodi:cy="35.16441" sodipodi:rx="3.8297873" sodipodi:ry="3.8297873" sodipodi:type="arc" style="fill:#356BB3;" d="
	M62.5,40.4c0,4.8-3.9,8.7-8.7,8.7s-8.7-3.9-8.7-8.7s3.9-8.7,8.7-8.7S62.5,35.6,62.5,40.4z"/>
<path id="path3809" sodipodi:cx="49.787235" sodipodi:cy="35.16441" sodipodi:rx="3.8297873" sodipodi:ry="3.8297873" sodipodi:type="arc" style="fill:#5997D1;" d="
	M60.1,40.6c0,4.1-3.4,7.5-7.5,7.5s-7.5-3.4-7.5-7.5s3.4-7.5,7.5-7.5S60.1,36.4,60.1,40.6z"/>
<path id="path3807" sodipodi:cx="49.787235" sodipodi:cy="35.16441" sodipodi:rx="3.8297873" sodipodi:ry="3.8297873" sodipodi:type="arc" style="fill:#81C7EF;" d="
	M54.3,38.5c0,2.1-1.7,3.8-3.8,3.8s-3.8-1.7-3.8-3.8s1.7-3.8,3.8-3.8S54.3,36.4,54.3,38.5z"/>
<path id="path3813" sodipodi:cx="49.787235" sodipodi:cy="35.16441" sodipodi:rx="3.8297873" sodipodi:ry="3.8297873" sodipodi:type="arc" style="fill:#356BB3;" d="
	M21.6,39.3c0,4.8-3.9,8.7-8.7,8.7s-8.7-3.9-8.7-8.7s3.9-8.7,8.7-8.7S21.6,34.5,21.6,39.3z"/>
<path id="path3815" sodipodi:cx="49.787235" sodipodi:cy="35.16441" sodipodi:rx="3.8297873" sodipodi:ry="3.8297873" sodipodi:type="arc" style="fill:#5997D1;" d="
	M19.1,39.5c0,4.1-3.4,7.5-7.5,7.5s-7.5-3.4-7.5-7.5S7.5,32,11.7,32S19.1,35.4,19.1,39.5z"/>
<path id="path3817" sodipodi:cx="49.787235" sodipodi:cy="35.16441" sodipodi:rx="3.8297873" sodipodi:ry="3.8297873" sodipodi:type="arc" style="fill:#81C7EF;" d="
	M13.4,37.4c0,2.1-1.7,3.8-3.8,3.8s-3.8-1.7-3.8-3.8s1.7-3.8,3.8-3.8S13.4,35.3,13.4,37.4z"/>
</svg>
