<?xml version="1.0" encoding="utf-8"?>
<!-- Generator: Adobe Illustrator 20.0.0, SVG Export Plug-In . SVG Version: 6.00 Build 0)  -->
<svg version="1.1"
	 id="svg2985" inkscape:version="0.48.2 r9819" sodipodi:docname="Great Ball.svg" xmlns:cc="http://creativecommons.org/ns#" xmlns:dc="http://purl.org/dc/elements/1.1/" xmlns:inkscape="http://www.inkscape.org/namespaces/inkscape" xmlns:rdf="http://www.w3.org/1999/02/22-rdf-syntax-ns#" xmlns:sodipodi="http://sodipodi.sourceforge.net/DTD/sodipodi-0.dtd" xmlns:svg="http://www.w3.org/2000/svg"
	 xmlns="http://www.w3.org/2000/svg" xmlns:xlink="http://www.w3.org/1999/xlink" x="0px" y="0px" viewBox="0 0 90 90"
	 style="enable-background:new 0 0 90 90;" xml:space="preserve">
<sodipodi:namedview  bordercolor="#666666" borderopacity="1" gridtolerance="10" guidetolerance="10" id="namedview2987" inkscape:current-layer="svg2985" inkscape:cx="45" inkscape:cy="45" inkscape:pageopacity="0" inkscape:pageshadow="2" inkscape:window-height="706" inkscape:window-maximized="1" inkscape:window-width="1366" inkscape:window-x="-8" inkscape:window-y="-8" inkscape:zoom="5.7444444" objecttolerance="10" pagecolor="#ffffff" showgrid="false">
	</sodipodi:namedview>
<path id="path3129" style="fill:#231815;" d="M45,0C20.1,0,0,20.1,0,45s20.1,45,45,45s45-20.1,45-45S69.9,0,45,0z"/>
<path id="path3002" style="fill:#FFFFFF;" d="M31.5,53.4c-5.2,0-9.4,4.2-9.4,9.4s4.2,9.4,9.4,9.4S41,68,41,62.8S36.7,53.4,31.5,53.4
	z M31.5,56.5c3.5,0,6.3,2.8,6.3,6.3c0,3.5-2.8,6.3-6.3,6.3s-6.2-2.8-6.2-6.3C25.3,59.3,28.1,56.5,31.5,56.5z M31.5,58.6
	c-2.4,0-4.2,1.9-4.2,4.2s1.9,4.2,4.2,4.2s4.3-1.9,4.3-4.2S33.9,58.6,31.5,58.6z"/>
<path id="path3043" style="fill:#1E51A2;" d="M45,3.3C22,3.3,3.3,22,3.3,45c0,1.9,0.1,3.8,0.4,5.7c4.8,2.7,10,4.8,15.2,6.3
	c2.2-4.8,7-8.1,12.6-8.1c7,0,12.7,5.1,13.8,11.8c14.2,0,28.6-2.9,41.1-10.2c0.2-1.8,0.4-3.7,0.4-5.6C86.7,22,68,3.3,45,3.3z"/>
<path id="path3057" style="fill:#3B82C4;" d="M45,3.3C23,3.3,5,20.3,3.4,42c4.3,5.3,10.5,9.4,17.8,11.6c2.5-2.9,6.2-4.7,10.3-4.7
	c4.4,0,8.4,2.1,10.9,5.3c15.5-3.6,27-15.8,27-30.4c0-5.7-1.7-11-4.8-15.6C58.8,5.1,52.1,3.3,45,3.3z"/>
<path id="path3066" sodipodi:cx="25.088533" sodipodi:cy="25.097055" sodipodi:rx="9.0900478" sodipodi:ry="9.0900478" sodipodi:type="arc" style="fill:#FFFFFF;" d="
	M39.6,25.4c0,5.5-4.4,9.9-9.7,9.9s-9.7-4.4-9.7-9.9s4.4-9.9,9.7-9.9S39.6,19.9,39.6,25.4z"/>
<path id="path3120" style="fill:#A5A3C3;" d="M83,62.2c-10.4,4.3-21.5,6.5-32.2,7.2c-2.3,0.1-4.7,0.1-7.1,0.1
	c-2.4,4.3-7,7.3-12.2,7.3c-6.6,0-12.1-4.6-13.5-10.8c-3.7-1-7.4-2.3-11-3.8c6.5,14.5,21.1,24.5,38,24.5S76.5,76.6,83,62.2z"/>
<path id="path3108" style="fill:#D1C3E0;" d="M7,62.2c2.2,4.9,5.3,9.3,9.2,12.9c7.3,5.9,16.5,9.4,26.6,9.4c15.5,0,29-8.4,36.4-20.8
	C70,67,60.3,68.7,51,69.4c-2.3,0.1-4.7,0.1-7.1,0.1c-2.4,4.3-7,7.3-12.2,7.3c-6.6,0-12.1-4.6-13.5-10.8C14.3,65,10.6,63.7,7,62.2z"
	/>
<path id="path3072" style="fill:#FFFFFF;" d="M14.6,65.5c-0.4,0-0.8,0.1-1,0.3c-1.5,1.1-0.2,4.7,2.9,7.9s6.8,4.9,8.2,3.8
	c0.6-0.4,0.7-1.3,0.5-2.3c-3.4-1.7-6-4.8-7-8.5C16.8,65.9,15.5,65.5,14.6,65.5z"/>
<path id="path3807" inkscape:connector-curvature="0" style="fill:#000022;" d="M59.7,50c0,0-0.3,3.7,1.9,3.7S71.9,52,79.7,41.2
	s9.1-12.7,8.5-15.7c-0.5-3-1.2-8-7.5-13.4s-7.3-6.4-9.6-5.9s-4.4,2.3-1.9,6.1S99.7,20,59.7,50z"/>
<path id="path3809" style="fill:#014099;" d="M78.6,31.8c-2.9,4.7-8.7,10.6-18.8,18.2c0,0-0.4,3.7,1.9,3.7C64,53.7,72,52,79.8,41.2
	c0.9-1.2,1.4-1.9,2.1-2.9C81.2,36.1,80.2,33.6,78.6,31.8z"/>
<path id="path3008" inkscape:connector-curvature="0" sodipodi:nodetypes="cssccsc" style="fill:#B02D2E;" d="M73.1,10.1
	c0,0,10.8,9.6,11,15S76.4,39,73.5,42.3c-2.6,3-10.6,7.7-10.6,7.7l-5.6-8.7c0,0,12.4-14.1,15.1-23.7C74,12,73.1,10.1,73.1,10.1z"/>
<path id="path3814" inkscape:connector-curvature="0" sodipodi:nodetypes="cssssssc" style="fill:#000022;" d="M24.7,5.6
	c0,3.5-4.2,3.5-4.9,8c-0.3,2.3-0.7,8.2,0.1,13.7c0.8,5.5,2.6,10.7,1.8,12.9c-1.6,4.4-6.4,7.5-8.9,7.5S5.4,42.8,2.4,36.4
	s-1.9-15,2.4-20.2S19.8-2.1,24.7,5.6z"/>
<path id="path3816" style="fill:#014099;" d="M14.4,12.7L11,34.3l-6.3,6.2c2.8,4.3,6.3,7.2,8.2,7.2c2.4,0,7.3-3.1,8.9-7.5
	c0.8-2.2-1.1-7.4-1.8-12.9c-0.7-5-0.5-10.1-0.2-12.8L14.4,12.7z"/>
<path id="path3778" style="fill:#E94646;" d="M15.9,15.6l-11,9.8c-0.4,3,0.2,5.8,1,8.7v0.1c1.4-2,3.2-4.2,4.8-4.4
	c1.2-0.1,3.3-0.1,5.4,0.1c-0.2-1.2-0.4-2.6-0.5-4.2C15.3,21.5,15.4,18.2,15.9,15.6z"/>
<path id="path3790" style="fill:#F4A7A4;" d="M18.6,8C8.9,15.4,5.5,20.7,4.9,25.4l11-9.8C16.7,10.2,18.6,8,18.6,8z"/>
<path id="path3782" style="fill:#B02D2E;" d="M12.1,29.7c-0.5,0-1,0-1.3,0.1C9.2,30,7.3,32.2,6,34.2c2.1,7.4,6.8,10.5,6.8,10.5
	l6.4-6.1c0,0-1.7,0-3-8.8C14.7,29.8,13.3,29.7,12.1,29.7z"/>
<path id="path3792" inkscape:connector-curvature="0" sodipodi:nodetypes="scsccccscs" style="fill:#E94646;" d="M71.7,9.6
	c-1.2,0-2.4,1.9-2.4,1.9s1.6,0.2-1.8,8.9S53.4,40.8,53.4,40.8l6.1,10.9l3.3-1.8l-5.5-8.6c0,0,12.4-14.1,15.1-23.7
	c1.2-4.2,1-6.3,0.8-7.1C72.7,10,72.1,9.6,71.7,9.6z"/>
<path id="path3794" inkscape:connector-curvature="0" sodipodi:nodetypes="cscccc" style="fill:#F4A7A4;" d="M69,16
	c-0.3,1.1-0.8,2.5-1.5,4.3C64.2,29,53.4,40.7,53.4,40.7l3.8,0.5c0,0,12.4-14.1,15.1-23.7L69,16z"/>
</svg>
