<?xml version="1.0" encoding="utf-8"?>
<!-- Generator: Adobe Illustrator 20.0.0, SVG Export Plug-In . SVG Version: 6.00 Build 0)  -->
<svg version="1.1"
	 id="svg2985" inkscape:version="0.48.2 r9819" sodipodi:docname="Drasil Ball.svg" xmlns:cc="http://creativecommons.org/ns#" xmlns:dc="http://purl.org/dc/elements/1.1/" xmlns:inkscape="http://www.inkscape.org/namespaces/inkscape" xmlns:rdf="http://www.w3.org/1999/02/22-rdf-syntax-ns#" xmlns:sodipodi="http://sodipodi.sourceforge.net/DTD/sodipodi-0.dtd" xmlns:svg="http://www.w3.org/2000/svg"
	 xmlns="http://www.w3.org/2000/svg" xmlns:xlink="http://www.w3.org/1999/xlink" x="0px" y="0px" viewBox="0 0 90 90"
	 style="enable-background:new 0 0 90 90;" xml:space="preserve">
<sodipodi:namedview  bordercolor="#666666" borderopacity="1" gridtolerance="10" guidetolerance="10" id="namedview2987" inkscape:current-layer="svg2985" inkscape:cx="45" inkscape:cy="45" inkscape:pageopacity="0" inkscape:pageshadow="2" inkscape:window-height="706" inkscape:window-maximized="1" inkscape:window-width="1366" inkscape:window-x="-8" inkscape:window-y="-8" inkscape:zoom="5.7444444" objecttolerance="10" pagecolor="#ffffff" showgrid="false">
	</sodipodi:namedview>
<path id="path3129" style="fill:#231815;" d="M45,0C20.1,0,0,20.1,0,45s20.1,45,45,45s45-20.1,45-45S69.9,0,45,0z"/>
<path id="path3002" style="fill:#FFFFFF;" d="M31.5,53.4c-5.2,0-9.4,4.2-9.4,9.4s4.2,9.4,9.4,9.4S41,68,41,62.8S36.7,53.4,31.5,53.4
	z M31.5,56.5c3.5,0,6.3,2.8,6.3,6.3c0,3.5-2.8,6.3-6.3,6.3s-6.2-2.8-6.2-6.3C25.3,59.3,28.1,56.5,31.5,56.5z M31.5,58.6
	c-2.4,0-4.2,1.9-4.2,4.2s1.9,4.2,4.2,4.2s4.3-1.9,4.3-4.2S33.9,58.6,31.5,58.6z"/>
<path id="path3043" style="fill:#F18E38;" d="M45,3.3C22,3.3,3.3,22,3.3,45c0,1.9,0.1,3.8,0.4,5.7c4.8,2.7,10,4.8,15.2,6.3
	c2.2-4.8,7-8.1,12.6-8.1c7,0,12.7,5.1,13.8,11.8c14.2,0,28.6-2.9,41.1-10.2c0.2-1.8,0.4-3.7,0.4-5.6C86.7,22,68,3.3,45,3.3z"/>
<path id="path3057" style="fill:#FCC807;" d="M45,3.3C23,3.3,5,20.3,3.4,42c4.3,5.3,10.5,9.4,17.8,11.6c2.5-2.9,6.2-4.7,10.3-4.7
	c4.4,0,8.4,2.1,10.9,5.3c15.5-3.6,27-15.8,27-30.4c0-5.7-1.7-11-4.8-15.6C58.8,5.1,52.1,3.3,45,3.3z"/>
<path id="path3066" sodipodi:cx="25.088533" sodipodi:cy="25.097055" sodipodi:rx="9.0900478" sodipodi:ry="9.0900478" sodipodi:type="arc" style="fill:#FFFFFF;" d="
	M35.6,25.4c0,5.5-4.4,9.9-9.7,9.9s-9.7-4.4-9.7-9.9s4.4-9.9,9.7-9.9S35.6,19.9,35.6,25.4z"/>
<path id="path3120" style="fill:#A5A3C3;" d="M83,62.2c-10.4,4.3-21.5,6.5-32.2,7.2c-2.3,0.1-4.7,0.1-7.1,0.1
	c-2.4,4.3-7,7.3-12.2,7.3c-6.6,0-12.1-4.6-13.5-10.8c-3.7-1-7.4-2.3-11-3.8c6.5,14.5,21.1,24.5,38,24.5S76.5,76.6,83,62.2z"/>
<path id="path3108" style="fill:#D1C3E0;" d="M7,62.2c2.2,4.9,5.3,9.3,9.2,12.9c7.3,5.9,16.5,9.4,26.6,9.4c15.5,0,29-8.4,36.4-20.8
	C70,67,60.3,68.7,51,69.4c-2.3,0.1-4.7,0.1-7.1,0.1c-2.4,4.3-7,7.3-12.2,7.3c-6.6,0-12.1-4.6-13.5-10.8C14.3,65,10.6,63.7,7,62.2z"
	/>
<path id="path3072" style="fill:#FFFFFF;" d="M14.6,65.5c-0.4,0-0.8,0.1-1,0.3c-1.5,1.1-0.2,4.7,2.9,7.9s6.8,4.9,8.2,3.8
	c0.6-0.4,0.7-1.3,0.5-2.3c-3.4-1.7-6-4.8-7-8.5C16.8,65.9,15.5,65.5,14.6,65.5z"/>
<path id="path5084" style="fill:#923436;" d="M43.7,6.1l-0.1,0.1c0,0,0,0.1-0.1,0.1c0,0,0,0.1-0.1,0.2C43.2,6.8,43.1,7,43,7.3
	c-0.4,1.3-0.1,2.4,0.8,3.2c-0.1,0.3-0.3,0.5-0.3,0.8c-0.3,0.7-0.2,1.4-0.1,2c-2.4-0.4-4.4-1-5.4-1.9c-0.5-0.5-0.8-1-0.8-1.6
	s0.4-1.3,1.2-2.2l0,0c0.1-0.2,0.1-0.4-0.1-0.5l0,0C38.3,7,38.2,7,38.1,7c-3.3,0.5-6.4,2.1-8.9,4.1s-4.4,4.4-5.1,6.4
	c-1.2,3.6-1.1,6.9,0.2,9.7c0.1,0.2,0.3,0.3,0.5,0.2c0,0,0.1,0,0.1-0.1c4.6-3.9,10.8-6.6,16.9-7L39.2,31v0.1c-0.1,0.2,0,0.4,0.2,0.5
	s0.3,0,0.4-0.1c0,0,0-0.1,0.1-0.1v-0.1l5-11c5.9,0.4,10.2,3,12.1,6.9c0.1,0.2,0.3,0.3,0.5,0.2c0,0,0.1,0,0.1-0.1
	c3.2-2.7,5.6-6,6.9-9.6c1.4-4.1-1-9.8-6.9-10.8c-0.2,0-0.4,0.1-0.4,0.3v0.1c0.2,0.8,0.1,1.5-0.3,2.1c-0.4,0.6-1.1,1.2-2,1.8
	c-1.7,0.9-4,1.5-6.5,1.8c0.5-0.5,1-1,1.2-1.7c0.1-0.3,0.1-0.5,0.2-0.8c1.4-0.7,2.6-1.8,3-3.2C52.9,7,53,6.6,53,6.3
	c0-0.2-0.1-0.4-0.3-0.4c-0.1,0-0.2,0-0.3,0.1c0,0,0,0.1-0.1,0.1c-0.6,1-1.8,1.8-3.1,2.3c-0.4-0.4-0.9-0.7-1.6-0.7
	c-0.7,0-1.4,0.3-2,0.8c-0.9-0.4-1.4-1.2-1.4-2.1c0-0.2-0.1-0.4-0.3-0.4C43.8,6,43.7,6.1,43.7,6.1L43.7,6.1z"/>
<path id="path5080" inkscape:connector-curvature="0" style="fill:#D35337;" d="M43.8,6.4c-0.2,0.3-0.3,0.6-0.4,0.9
	c-0.4,1.3-0.1,2.4,0.9,3.1c-0.2,0.3-0.3,0.6-0.4,0.9c-0.3,0.9-0.3,1.8,0.1,2.3c-5.4-0.4-9.1-2.8-5.7-6.3C32,8.2,25.9,13.7,24.6,17.6
	c-1.2,3.5-1,6.7,0.2,9.4c4.8-4.1,11.2-6.9,17.6-7.2l-2.7,11.3l5.2-11.3c6.2,0.3,10.7,3.1,12.6,7.2c3.1-2.7,5.6-5.9,6.8-9.4
	c1.4-3.9-0.9-9.3-6.6-10.3c0.9,3.5-4.4,5.8-10.1,6.3c0.7-0.6,1.4-1.4,1.7-2.3c0.1-0.3,0.2-0.6,0.2-0.9c1.4-0.7,2.6-1.8,3-3.1
	c0.1-0.3,0.2-0.6,0.2-0.9c-0.7,1.2-2,2.1-3.5,2.6c-0.3-0.5-0.8-0.8-1.5-0.8S46.1,8.5,45.5,9C44.4,8.5,43.7,7.6,43.8,6.4z"/>
<path id="path5092" style="fill:#D35337;" d="M25.9,15.5c-0.3,0-0.5,0-0.8,0c-0.4,0.7-0.8,1.4-1,2c-1.2,3.6-1.1,6.9,0.2,9.7
	c0.1,0.2,0.3,0.3,0.5,0.2c0,0,0.1,0,0.1-0.1c2.9-2.4,6.3-4.4,10-5.7C33.5,18,30,15.5,25.9,15.5z"/>
<path id="path5087" style="fill:#F18E38;" d="M25.6,15.5c-0.5,0.8-0.9,1.5-1.1,2.2c-1.2,3.5-1.1,6.7,0.2,9.4
	c2.9-2.5,6.4-4.5,10.1-5.7c-1.5-3.5-4.9-5.8-8.9-5.8C25.8,15.5,25.7,15.5,25.6,15.5z"/>
</svg>
