<?xml version="1.0" encoding="utf-8"?>
<!-- Generator: Adobe Illustrator 20.0.0, SVG Export Plug-In . SVG Version: 6.00 Build 0)  -->
<svg version="1.1"
	 id="svg2985" inkscape:version="0.48.2 r9819" sodipodi:docname="Custom Poke Ball.svg" xmlns:cc="http://creativecommons.org/ns#" xmlns:dc="http://purl.org/dc/elements/1.1/" xmlns:inkscape="http://www.inkscape.org/namespaces/inkscape" xmlns:rdf="http://www.w3.org/1999/02/22-rdf-syntax-ns#" xmlns:sodipodi="http://sodipodi.sourceforge.net/DTD/sodipodi-0.dtd" xmlns:svg="http://www.w3.org/2000/svg"
	 xmlns="http://www.w3.org/2000/svg" xmlns:xlink="http://www.w3.org/1999/xlink" x="0px" y="0px" viewBox="0 0 90 90"
	 style="enable-background:new 0 0 90 90;" xml:space="preserve">
<sodipodi:namedview  bordercolor="#666666" borderopacity="1" gridtolerance="10" guidetolerance="10" id="namedview2987" inkscape:current-layer="svg2985" inkscape:cx="45" inkscape:cy="45" inkscape:pageopacity="0" inkscape:pageshadow="2" inkscape:window-height="706" inkscape:window-maximized="1" inkscape:window-width="1366" inkscape:window-x="-8" inkscape:window-y="-8" inkscape:zoom="5.7444444" objecttolerance="10" pagecolor="#ffffff" showgrid="false">
	</sodipodi:namedview>
<path id="path3129" style="fill:#231815;" d="M45,0C20.1,0,0,20.1,0,45s20.1,45,45,45s45-20.1,45-45S69.9,0,45,0z"/>
<path id="path6916" style="fill:#94493A;" d="M31.5,48.9c-5.6,0-10.4,3.3-12.6,8.1c-5.2-1.6-10.4-3.6-15.2-6.3
	c0.6,4,1.7,7.9,3.3,11.5l0,0c3.6,1.5,7.2,2.8,11,3.8c1.4,6.2,6.9,10.8,13.5,10.8c5.3,0,9.9-2.9,12.2-7.3c2.4,0,4.7,0,7.1-0.1
	c10.7-0.7,21.8-2.9,32.2-7.2c1.6-3.6,2.8-7.5,3.3-11.6c-12.5,7.2-26.9,10.1-41,10.1C44.3,54,38.5,48.9,31.5,48.9z M31.5,54.6
	c4.5,0,8.2,3.7,8.2,8.2S36.1,71,31.5,71s-8.2-3.7-8.2-8.2S27,54.6,31.5,54.6z"/>
<path id="path7502" style="fill:#D35337;" d="M31.5,48.9c-5.6,0-10.4,3.3-12.6,8.1c-0.8-0.2-1.7-0.5-2.5-0.8c-2.5-0.8-5-1.8-7.4-2.8
	c0.1,1.7,0.3,3.4,0.5,5.1c0.2,1.7,0.6,3.4,0.9,5.1c2.4,0.9,4.9,1.7,7.4,2.4c0,0,0,0,0.1,0c1.4,6.2,6.9,10.8,13.5,10.8
	c5.3,0,9.9-2.9,12.2-7.3c2.4,0,4.7,0,7.1-0.1c0.2,0,0.4,0,0.6-0.1c2.6-0.2,5.3-0.5,8-0.9l1.7-9c-2.7,0.5-5.4,0.8-8.1,1
	c-1.3,0.1-2.6,0.2-3.9,0.2c-1.3,0.1-2.6,0.1-3.9,0.1C44.3,54,38.5,48.9,31.5,48.9z M31.5,54.6c4.5,0,8.2,3.7,8.2,8.2
	S36.1,71,31.5,71s-8.2-3.7-8.2-8.2c0-2.3,0.9-4.3,2.4-5.8c0.2-0.2,0.4-0.4,0.6-0.5C27.7,55.3,29.5,54.6,31.5,54.6z"/>
<path id="path7490" style="fill:#D29936;" d="M31.5,48.9c-5.6,0-10.4,3.3-12.6,8.1c-3.3-1-6.7-2.2-9.9-3.6c0.1,1.7,0.3,3.4,0.5,5.1
	c0.2,1.7,0.6,3.4,0.9,5.1c2.5,0.9,5,1.7,7.5,2.4c1.4,6.2,6.9,10.8,13.5,10.8c5.3,0,9.9-2.9,12.2-7.3c2.4,0,4.7,0,7.1-0.1
	c0.2,0,0.4,0,0.6-0.1l1.6-8.9c-2.6,0.2-5.2,0.3-7.8,0.3C44.3,54,38.5,48.9,31.5,48.9z M31.5,54.6c4.5,0,8.2,3.7,8.2,8.2
	S36.1,71,31.5,71s-8.2-3.7-8.2-8.2S27,54.6,31.5,54.6z"/>
<path id="path3043" style="fill:#44494D;" d="M45,3.3C22,3.3,3.3,22,3.3,45c0,1.9,0.1,3.8,0.4,5.7c4.8,2.7,10,4.8,15.2,6.3
	c2.2-4.8,7-8.1,12.6-8.1c7,0,12.7,5.1,13.8,11.8c14.2,0,28.6-2.9,41.1-10.2c0.2-1.8,0.4-3.7,0.4-5.6C86.7,22,68,3.3,45,3.3z"/>
<path id="path3057" style="fill:#626872;" d="M45,3.3C23,3.3,5,20.3,3.4,42c4.3,5.3,10.5,9.4,17.8,11.6c2.5-2.9,6.2-4.7,10.3-4.7
	c4.4,0,8.4,2.1,10.9,5.3c15.5-3.6,27-15.8,27-30.4c0-5.7-1.7-11-4.8-15.6C58.8,5.1,52.1,3.3,45,3.3z"/>
<path id="path3120" style="fill:#3C4140;" d="M83,62.2c-10.4,4.3-21.5,6.5-32.2,7.2c-2.3,0.1-4.7,0.1-7.1,0.1
	c-2.4,4.3-7,7.3-12.2,7.3c-6.6,0-12.1-4.6-13.5-10.8c-3.7-1-7.4-2.3-11-3.8c6.5,14.5,21.1,24.5,38,24.5S76.5,76.6,83,62.2z"/>
<path id="path3108" style="fill:#44494D;" d="M7,62.2c2.2,4.9,5.3,9.3,9.2,12.9c7.3,5.9,16.5,9.4,26.6,9.4c15.5,0,29-8.4,36.4-20.8
	C70,67,60.3,68.7,51,69.4c-2.3,0.1-4.7,0.1-7.1,0.1c-2.4,4.3-7,7.3-12.2,7.3c-6.6,0-12.1-4.6-13.5-10.8C14.3,65,10.6,63.7,7,62.2z"
	/>
<path id="path7454" style="fill:#A6A3BC;" d="M83,62.2c-10.4,4.3-21.5,6.5-32.2,7.2c-2.3,0.1-4.7,0.1-7.1,0.1
	c-2.4,4.3-7,7.3-12.2,7.3c-6.6,0-12.1-4.6-13.5-10.8c-3.7-1-7.4-2.3-11-3.8c1,2.2,2.1,4.2,3.4,6.2c1.3,0.4,2.6,0.8,3.9,1.2
	c2.7,6.9,9.4,11.8,17.2,11.8c5.9,0,11.2-2.9,14.6-7.3c1.6,0,3.3,0,4.9,0h0.1h0.1c9.3-0.6,19-2.3,28.4-5.6C80.9,66.4,82,64.4,83,62.2
	z"/>
<path id="path7457" style="fill:#A6A3BC;" d="M31.5,44.3c-5.9,0-11.1,2.9-14.5,7.2c-3.8-1.3-7.6-2.8-11.1-4.8l-2.7-1.5
	c0,1.9,0.1,3.7,0.4,5.5c4.8,2.7,10,4.8,15.2,6.3c2.2-4.8,7-8.1,12.6-8.1c7,0,12.7,5.1,13.8,11.8c14.2,0,28.6-2.9,41.1-10.2
	c0.2-1.8,0.4-3.6,0.4-5.5L84,46.7c-10.7,6.2-23,8.9-35.3,9.3C45.9,49.2,39.3,44.3,31.5,44.3z"/>
<path id="path3002" style="fill:#F6E753;" d="M31.5,53.4c-5.2,0-9.4,4.2-9.4,9.4s4.2,9.4,9.4,9.4S41,68,41,62.8S36.7,53.4,31.5,53.4
	z M31.5,56.5c3.5,0,6.3,2.8,6.3,6.3c0,3.5-2.8,6.3-6.3,6.3s-6.2-2.8-6.2-6.3C25.3,59.3,28.1,56.5,31.5,56.5z M31.5,58.6
	c-2.4,0-4.2,1.9-4.2,4.2s1.9,4.2,4.2,4.2s4.3-1.9,4.3-4.2S33.9,58.6,31.5,58.6z"/>
<path id="path7500" style="fill:#FFFFFF;" d="M31.5,44.3c-5.9,0-11.1,2.9-14.5,7.2c-2.8-1-5.6-2-8.3-3.3c0,1.7,0.1,3.4,0.3,5.2
	c3.2,1.4,6.5,2.7,9.9,3.7c2.2-4.8,7-8.1,12.6-8.1c7,0,12.7,5.1,13.8,11.8c2.6,0,5.2-0.1,7.8-0.3l0.9-4.8c-1.8,0.2-3.5,0.3-5.3,0.3
	C45.9,49.2,39.3,44.3,31.5,44.3z"/>
<path id="path7485" style="fill:#FFFFFF;" d="M10.5,63.6c0.4,1.8,0.8,3.5,1.3,5.2c0.8,0.3,1.7,0.5,2.5,0.8
	c2.7,6.9,9.4,11.8,17.2,11.8c5.9,0,11.2-2.9,14.6-7.3c1.5,0,3,0,4.5,0l0.9-4.7c-0.2,0-0.4,0-0.6,0.1c-2.3,0.1-4.7,0.1-7.1,0.1
	c-2.4,4.3-7,7.3-12.2,7.3c-6.6,0-12.1-4.6-13.5-10.8C15.5,65.3,13,64.5,10.5,63.6z"/>
<path id="path7510" style="fill:#D29936;" d="M21.8,10.3c-4.4,3-8.2,6.8-11.2,11.2c7.4,5.5,20.6,9.1,35.7,9.1c14,0,26.4-3.1,34-8
	c-2.9-4.5-6.6-8.5-11-11.6c-6.1,3.1-14.2,4.9-23,4.9C36.7,16,28,13.8,21.8,10.3z"/>
<path id="path7528" style="fill:#CCB82B;" d="M21.8,10.3c-4.4,3-8.2,6.8-11.2,11.2c7.1,5.3,19.7,8.8,34,9.1L44.3,16
	C35.5,15.7,27.6,13.6,21.8,10.3z"/>
<path id="path7512" style="fill:#94493A;" d="M18.7,12.6c-2,1.6-3.8,3.4-5.4,5.3c6.9,5.4,19.1,9,32.9,9c12.9,0,24.4-3.1,31.4-7.9
	c-1.6-2-3.4-3.9-5.3-5.6c-6.5,3.8-15.8,6.2-26.1,6.2C35.1,19.7,25.2,16.9,18.7,12.6z"/>
<path id="path7526" style="fill:#EFEA2E;" d="M23.7,11.3c-2.2,1.4-4.8,3.3-6.4,5.6c-1.1,1.5-2.6,3.9-4.2,6.3
	c5.8,3.4,13.9,5.9,23.3,6.9l-0.2-14.9C31.5,14.4,27.2,13,23.7,11.3z"/>
<path id="path7534" style="fill:#D35337;" d="M20.4,13.6c-1.2,1-2.3,2.1-3.2,3.3c-0.5,0.7-1.1,1.6-1.8,2.6
	c6.8,4.4,17.2,7.2,29.1,7.5l-0.1-7.3C35,19.4,26.5,17.1,20.4,13.6z"/>
<path id="path3066" sodipodi:cx="25.088533" sodipodi:cy="25.097055" sodipodi:rx="9.0900478" sodipodi:ry="9.0900478" sodipodi:type="arc" style="fill:#FFFFFF;" d="
	M35.6,25.4c0,5.5-4.4,9.9-9.7,9.9s-9.7-4.4-9.7-9.9s4.4-9.9,9.7-9.9S35.6,19.9,35.6,25.4z"/>
</svg>
