<?xml version="1.0" encoding="utf-8"?>
<!-- Generator: Adobe Illustrator 20.0.0, SVG Export Plug-In . SVG Version: 6.00 Build 0)  -->
<svg version="1.1"
	 id="svg2985" inkscape:version="0.48.2 r9819" sodipodi:docname="Custom Poke Ball.svg" xmlns:cc="http://creativecommons.org/ns#" xmlns:dc="http://purl.org/dc/elements/1.1/" xmlns:inkscape="http://www.inkscape.org/namespaces/inkscape" xmlns:rdf="http://www.w3.org/1999/02/22-rdf-syntax-ns#" xmlns:sodipodi="http://sodipodi.sourceforge.net/DTD/sodipodi-0.dtd" xmlns:svg="http://www.w3.org/2000/svg"
	 xmlns="http://www.w3.org/2000/svg" xmlns:xlink="http://www.w3.org/1999/xlink" x="0px" y="0px" viewBox="0 0 90 90"
	 style="enable-background:new 0 0 90 90;" xml:space="preserve">
<sodipodi:namedview  bordercolor="#666666" borderopacity="1" gridtolerance="10" guidetolerance="10" id="namedview2987" inkscape:current-layer="svg2985" inkscape:cx="45" inkscape:cy="45" inkscape:pageopacity="0" inkscape:pageshadow="2" inkscape:window-height="706" inkscape:window-maximized="1" inkscape:window-width="1366" inkscape:window-x="-8" inkscape:window-y="-8" inkscape:zoom="5.7444444" objecttolerance="10" pagecolor="#ffffff" showgrid="false">
	</sodipodi:namedview>
<path id="path3129" style="fill:#231815;" d="M45,0C20.1,0,0,20.1,0,45s20.1,45,45,45s45-20.1,45-45S69.9,0,45,0z"/>
<path id="path3002" style="fill:#FFFFFF;" d="M31.5,53.4c-5.2,0-9.4,4.2-9.4,9.4s4.2,9.4,9.4,9.4S41,68,41,62.8S36.7,53.4,31.5,53.4
	z M31.5,56.5c3.5,0,6.3,2.8,6.3,6.3c0,3.5-2.8,6.3-6.3,6.3s-6.2-2.8-6.2-6.3C25.3,59.3,28.1,56.5,31.5,56.5z M31.5,58.6
	c-2.4,0-4.2,1.9-4.2,4.2s1.9,4.2,4.2,4.2s4.3-1.9,4.3-4.2S33.9,58.6,31.5,58.6z"/>
<path id="path3043" style="fill:#3B82C4;" d="M45,3.3C22,3.3,3.3,22,3.3,45c0,1.9,0.1,3.8,0.4,5.7c4.8,2.7,10,4.8,15.2,6.3
	c2.2-4.8,7-8.1,12.6-8.1c7,0,12.7,5.1,13.8,11.8c14.2,0,28.6-2.9,41.1-10.2c0.2-1.8,0.4-3.7,0.4-5.6C86.7,22,68,3.3,45,3.3z"/>
<path id="path3057" style="fill:#73B5E4;" d="M45,3.3C23,3.3,5,20.3,3.4,42c4.3,5.3,10.5,9.4,17.8,11.6c2.5-2.9,6.2-4.7,10.3-4.7
	c4.4,0,8.4,2.1,10.9,5.3c15.5-3.6,27-15.8,27-30.4c0-5.7-1.7-11-4.8-15.6C58.8,5.1,52.1,3.3,45,3.3z"/>
<path id="path3120" style="fill:#15608B;" d="M83,62.2c-10.4,4.3-21.5,6.5-32.2,7.2c-2.3,0.1-4.7,0.1-7.1,0.1
	c-2.4,4.3-7,7.3-12.2,7.3c-6.6,0-12.1-4.6-13.5-10.8c-3.7-1-7.4-2.3-11-3.8c6.5,14.5,21.1,24.5,38,24.5S76.5,76.6,83,62.2z"/>
<path id="path3108" style="fill:#3B82C4;" d="M7,62.2c2.2,4.9,5.3,9.3,9.2,12.9c7.3,5.9,16.5,9.4,26.6,9.4c15.5,0,29-8.4,36.4-20.8
	C70,67,60.3,68.7,51,69.4c-2.3,0.1-4.7,0.1-7.1,0.1c-2.4,4.3-7,7.3-12.2,7.3c-6.6,0-12.1-4.6-13.5-10.8C14.3,65,10.6,63.7,7,62.2z"
	/>
<path id="path3441" style="fill:#CCB82B;" d="M11.2,63.8c-0.8,0.6-1.6,1.2-2.4,1.8c3,5.3,7.1,9.8,12,13.3c1.5-1,3.2-2.1,5-3.4
	l8.1,7.5l8.3-5.4c4.3,3.1,8.6,5.7,12.9,7.9c7.1-1.8,13.6-5.3,18.7-10.2C67.1,74.6,60.3,72.8,54,70l1.6-1c-1.6,0.2-3.1,0.3-4.7,0.4
	c-2.3,0.1-4.7,0.1-7.1,0.1c-2.4,4.3-7,7.3-12.2,7.3c-6.6,0-12.1-4.6-13.5-10.8C15.7,65.3,13.4,64.6,11.2,63.8z"/>
<path id="path3448" style="fill:#CCB82B;" d="M26.3,7.7C17.7,12,10.8,19.2,6.9,28.1c1.5,7.1,4.2,13.7,7.7,19.8l-6.5,5
	c3.5,1.7,7.2,3,10.9,4.1c2.2-4.8,7-8.1,12.6-8.1c7,0,12.7,5.1,13.8,11.8c4.7,0,9.4-0.3,14-1l-6.5-6.6c9-8.6,18.3-19.1,26.9-31.3
	c-4-6-9.5-10.8-16-14.1C55.5,20.1,47,30.5,38.9,39.1l-5.6-5.7l-7.6,5.8C23,30.4,22.9,19.9,26.3,7.7z"/>
<path id="path3450" style="fill:#EFEA2E;" d="M26.3,7.7C17.7,12,10.8,19.2,6.9,28.1c1.5,7.1,4.2,13.7,7.7,19.8l-2.2,1.8
	c2.7,1.7,5.7,3,8.9,4c2.5-2.9,6.2-4.7,10.3-4.7c4.4,0,8.4,2.1,10.9,5.3c15.5-3.6,27-15.8,27-30.4c0-5.7-1.7-11-4.8-15.6
	c-0.3-0.3-0.7-0.4-1-0.6c-8.3,12.4-16.8,22.8-24.9,31.4l-5.6-5.7l-7.6,5.8C23,30.4,22.9,19.9,26.3,7.7z"/>
<path id="path3066" sodipodi:cx="25.088533" sodipodi:cy="25.097055" sodipodi:rx="9.0900478" sodipodi:ry="9.0900478" sodipodi:type="arc" style="fill:#FFFFFF;" d="
	M35.6,25.4c0,5.5-4.4,9.9-9.7,9.9s-9.7-4.4-9.7-9.9s4.4-9.9,9.7-9.9S35.6,19.9,35.6,25.4z"/>
</svg>
