<?xml version="1.0" encoding="utf-8"?>
<!-- Generator: Adobe Illustrator 20.0.0, SVG Export Plug-In . SVG Version: 6.00 Build 0)  -->
<svg version="1.1"
	 id="svg2985" inkscape:version="0.48.2 r9819" sodipodi:docname="Custom Poke Ball.svg" xmlns:cc="http://creativecommons.org/ns#" xmlns:dc="http://purl.org/dc/elements/1.1/" xmlns:inkscape="http://www.inkscape.org/namespaces/inkscape" xmlns:rdf="http://www.w3.org/1999/02/22-rdf-syntax-ns#" xmlns:sodipodi="http://sodipodi.sourceforge.net/DTD/sodipodi-0.dtd" xmlns:svg="http://www.w3.org/2000/svg"
	 xmlns="http://www.w3.org/2000/svg" xmlns:xlink="http://www.w3.org/1999/xlink" x="0px" y="0px" viewBox="0 0 90 90"
	 style="enable-background:new 0 0 90 90;" xml:space="preserve">
<sodipodi:namedview  bordercolor="#666666" borderopacity="1" gridtolerance="10" guidetolerance="10" id="namedview2987" inkscape:current-layer="svg2985" inkscape:cx="45" inkscape:cy="45" inkscape:pageopacity="0" inkscape:pageshadow="2" inkscape:window-height="706" inkscape:window-maximized="1" inkscape:window-width="1366" inkscape:window-x="-8" inkscape:window-y="-8" inkscape:zoom="5.7444444" objecttolerance="10" pagecolor="#ffffff" showgrid="false">
	</sodipodi:namedview>
<path style="fill:#CC8300;stroke:#000000;stroke-width:3;stroke-miterlimit:10;" d="M7.8,77.6c-0.1,6.1,7.9,7.3,17.6,7.5
	c9.8,0.2,17.5-0.7,17.6-6.7c0.1-6.1-7.7-11.1-17.4-11.3C15.8,66.9,7.9,71.6,7.8,77.6z"/>
<circle style="fill:#CC8300;stroke:#000000;stroke-width:3;stroke-miterlimit:10;" cx="64.5" cy="21.2" r="12.2"/>
<circle style="fill:#CC8300;stroke:#000000;stroke-width:3;stroke-miterlimit:10;" cx="73.3" cy="36.4" r="12.2"/>
<path id="path3129" style="fill:#010101;" d="M45.1,7C24,7,7,24,7,45.1s17.1,38.1,38.1,38.1s38.1-17.1,38.1-38.1S66,7,45.1,7z"/>
<path id="path3002" style="fill:#FFFFFF;" d="M33.6,52.1c-4.4,0-8,3.6-8,8s3.6,8,8,8s8-3.6,8-8S38,52.1,33.6,52.1z M33.6,54.8
	c2.9,0,5.3,2.4,5.3,5.3s-2.4,5.3-5.3,5.3s-5.3-2.4-5.3-5.3S30.7,54.8,33.6,54.8z M33.6,56.5c-2,0-3.6,1.6-3.6,3.6s1.6,3.6,3.6,3.6
	s3.6-1.6,3.6-3.6S35.6,56.5,33.6,56.5z"/>
<path id="path3043" style="fill:#222222;" d="M45.1,9.7C25.6,9.7,9.7,25.5,9.7,45.1c0,1.6,0.1,3.2,0.3,4.8c4.1,2.3,8.4,4,13,5.3
	c1.9-4,5.9-6.8,10.6-6.8c5.9,0,10.7,4.3,11.6,10c11.9,0,24.2-2.5,34.7-8.6c0.2-1.5,0.3-3.1,0.3-4.7C80.3,25.6,64.5,9.7,45.1,9.7z"/>
<path id="path3057" style="fill:#666666;" d="M45.1,9.7c-18.7,0-33.8,14.5-35.2,32.7c3.7,4.5,8.9,7.9,15.1,9.8
	c2.1-2.4,5.2-3.9,8.7-3.9c3.7,0,7.1,1.8,9.2,4.5c13.2-3,22.8-13.4,22.8-25.7c0-4.8-1.5-9.3-4-13.3C56.7,11.2,51.1,9.7,45.1,9.7z"/>
<path id="path3066" sodipodi:cx="25.088533" sodipodi:cy="25.097055" sodipodi:rx="9.0900478" sodipodi:ry="9.0900478" sodipodi:type="arc" style="display:none;fill:#999999;" d="
	M35.6,25.4c0,5.5-4.4,9.9-9.7,9.9s-9.7-4.4-9.7-9.9s4.4-9.9,9.7-9.9S35.6,19.9,35.6,25.4z"/>
<path id="path3120" style="fill:#333333;" d="M77.2,59.5C68.5,63.2,59,65.1,50,65.7c-2,0.1-4,0.1-6,0.1c-2,3.7-5.9,6.1-10.3,6.1
	c-5.6,0-10.2-3.9-11.4-9.1c-3.2-0.9-6.2-1.9-9.3-3.2C18.6,72,30.9,80.4,45.2,80.4S71.7,71.8,77.2,59.5z"/>
<path id="path3108" style="fill:#666666;" d="M12.9,59.6c1.9,4.1,4.5,7.8,7.7,10.9c6.1,5,14,7.9,22.5,7.9c13.2,0,24.6-7.1,30.8-17.7
	c-7.8,2.8-16,4.2-23.9,4.8c-2,0.1-4,0.1-6,0.1c-2,3.7-5.9,6.1-10.3,6.1c-5.6,0-10.2-3.9-11.4-9.1C19.1,61.9,15.9,60.8,12.9,59.6z"/>
<path id="path3072" style="fill:#999999;" d="M19.4,62.5c-0.3,0-0.6,0.1-0.9,0.3c-1.2,0.9-0.1,3.9,2.4,6.6s5.7,4.1,7,3.2
	c0.5-0.4,0.6-1.1,0.4-1.9c-2.9-1.5-5-4-5.9-7.2C21.3,62.8,20.2,62.4,19.4,62.5z"/>
<ellipse transform="matrix(0.2028 -0.9792 0.9792 0.2028 -10.5368 53.9059)" style="fill:#FFFFFF;" cx="27.8" cy="33.4" rx="11.4" ry="6"/>
<ellipse transform="matrix(0.2028 -0.9792 0.9792 0.2028 2.7814 78.0898)" style="fill:#FFFFFF;" cx="49.4" cy="37.3" rx="11.4" ry="6"/>
<ellipse transform="matrix(3.640272e-02 -0.9993 0.9993 3.640272e-02 31.206 56.865)" style="fill:#999999;stroke:#000000;stroke-width:3;stroke-miterlimit:10;" cx="45.1" cy="12.3" rx="5.4" ry="13.2"/>
<path style="fill:none;stroke:#000000;stroke-width:4;stroke-linecap:round;stroke-miterlimit:10;" d="M45.4,11
	c0.6-5.2,3.3-9.1,6.1-8.8"/>
<path style="fill:#CC8300;stroke:#000000;stroke-width:3;stroke-miterlimit:10;" d="M46,80.5c0.3,6.3,8.7,8.4,18.3,7.8
	s16.7-3.5,16.3-9.8c-0.3-6.3-8.3-10.9-17.9-10.3S45.7,74.2,46,80.5z"/>
</svg>
