<?xml version="1.0" encoding="utf-8"?>
<!-- Generator: Adobe Illustrator 20.0.0, SVG Export Plug-In . SVG Version: 6.00 Build 0)  -->
<svg version="1.1"
	 id="svg2985" inkscape:version="0.48.2 r9819" sodipodi:docname="Custom Poke Ball.svg" xmlns:cc="http://creativecommons.org/ns#" xmlns:dc="http://purl.org/dc/elements/1.1/" xmlns:inkscape="http://www.inkscape.org/namespaces/inkscape" xmlns:rdf="http://www.w3.org/1999/02/22-rdf-syntax-ns#" xmlns:sodipodi="http://sodipodi.sourceforge.net/DTD/sodipodi-0.dtd" xmlns:svg="http://www.w3.org/2000/svg"
	 xmlns="http://www.w3.org/2000/svg" xmlns:xlink="http://www.w3.org/1999/xlink" x="0px" y="0px" viewBox="0 0 90 90"
	 style="enable-background:new 0 0 90 90;" xml:space="preserve">
<sodipodi:namedview  bordercolor="#666666" borderopacity="1" gridtolerance="10" guidetolerance="10" id="namedview2987" inkscape:current-layer="svg2985" inkscape:cx="45" inkscape:cy="45" inkscape:pageopacity="0" inkscape:pageshadow="2" inkscape:window-height="706" inkscape:window-maximized="1" inkscape:window-width="1366" inkscape:window-x="-8" inkscape:window-y="-8" inkscape:zoom="5.7444444" objecttolerance="10" pagecolor="#ffffff" showgrid="false">
	</sodipodi:namedview>
<path id="path3129" style="fill:#231815;" d="M45,0C20.1,0,0,20.1,0,45s20.1,45,45,45s45-20.1,45-45S69.9,0,45,0z"/>
<path id="path4279" inkscape:connector-curvature="0" style="fill:#5086BF;" d="M45,3.3C22,3.3,3.3,22,3.3,45S22,86.7,45,86.7
	S86.7,68,86.7,45S68,3.3,45,3.3z"/>
<path id="path4291" inkscape:connector-curvature="0" sodipodi:nodetypes="cscscc" style="fill:#7D98CD;" d="M25.2,18.6
	c5.2,4-17.1,12.8-15,39c1.6,19,22.6,27,22.6,27s21-2.6,26.3-24.5C63.8,40.6,38.9,27.4,42,23.3L25.2,18.6z"/>
<path id="path3043" style="fill:#D72E8B;" d="M45,3.3C22,3.3,3.3,22,3.3,45c0,1.9,0.1,3.8,0.4,5.7c4.8,2.7,10,4.8,15.2,6.3
	c2.2-4.8,7-8.1,12.6-8.1c7,0,12.7,5.1,13.8,11.8c14.2,0,28.6-2.9,41.1-10.2c0.2-1.8,0.4-3.7,0.4-5.6C86.7,22,68,3.3,45,3.3z"/>
<path id="path3057" style="fill:#E95098;" d="M45,3.3C23,3.3,5,20.3,3.4,42c4.3,5.3,10.5,9.4,17.8,11.6c2.5-2.9,6.2-4.7,10.3-4.7
	c4.4,0,8.4,2.1,10.9,5.3c15.5-3.6,27-15.8,27-30.4c0-5.7-1.7-11-4.8-15.6C58.8,5.1,52.1,3.3,45,3.3z"/>
<path id="path3120" style="fill:#E95098;" d="M83,62.2c-10.4,4.3-21.5,6.5-32.2,7.2c-2.3,0.1-4.7,0.1-7.1,0.1
	c-2.4,4.3-7,7.3-12.2,7.3c-6.6,0-12.1-4.6-13.5-10.8c-3.7-1-7.4-2.3-11-3.8c6.5,14.5,21.1,24.5,38,24.5S76.5,76.6,83,62.2z"/>
<path id="path3108" style="fill:#D72E8B;" d="M7,62.2c2.2,4.9,5.3,9.3,9.2,12.9c7.3,5.9,16.5,9.4,26.6,9.4c15.5,0,29-8.4,36.4-20.8
	C70,67,60.3,68.7,51,69.4c-2.3,0.1-4.7,0.1-7.1,0.1c-2.4,4.3-7,7.3-12.2,7.3c-6.6,0-12.1-4.6-13.5-10.8C14.3,65,10.6,63.7,7,62.2z"
	/>
<path id="path3002" style="fill:#231815;" d="M31.5,53.4c-5.2,0-9.4,4.2-9.4,9.4s4.2,9.4,9.4,9.4S41,68,41,62.8S36.7,53.4,31.5,53.4
	z M31.5,54.6c4.5,0,8.2,3.7,8.2,8.2S36.1,71,31.5,71s-8.2-3.7-8.2-8.2S27,54.6,31.5,54.6z M31.5,56.5c-3.5,0-6.2,2.8-6.2,6.3
	c0,3.5,2.8,6.3,6.2,6.3s6.3-2.8,6.3-6.3C37.8,59.3,35,56.5,31.5,56.5z M31.5,58.6c2.4,0,4.3,1.9,4.3,4.2S33.9,67,31.5,67
	s-4.2-1.9-4.2-4.2S29.2,58.6,31.5,58.6z"/>
<path id="path4857" style="fill:#F8C4A2;" d="M69.9,11.5c4.4,7,12.5,21.2,13.7,33.9c0.2,2.4,0.2,4.6,0.1,6.6
	c0.9-0.5,1.8-0.9,2.7-1.4c0.2-1.8,0.4-3.7,0.4-5.6C86.7,31.3,80.1,19.1,69.9,11.5z M23.2,18.1c-3.5,0.1-9.7,3.6-15.8,8.7
	C4.8,32.3,3.3,38.5,3.3,45c0,1.9,0.1,3.8,0.4,5.7c2.1,1.2,4.3,2.2,6.5,3.2c0.2-23.3,20.1-31.4,15.1-35.2
	C24.8,18.2,24.1,18.1,23.2,18.1z M47.6,20.5c-2.2,0.1-4.2,0.9-5.6,2.8c-3,4,21.6,17.1,17.3,36.4c5.4-0.8,10.7-2.1,15.8-3.9
	c-0.3-3.5-1-7.5-2.7-11.8C67.2,30.7,55.5,20.3,47.6,20.5z"/>
<path id="path4316" style="fill:#FEF4D6;" d="M23.2,18.1c-3.5,0.1-9.7,3.6-15.8,8.6c-2.2,4.7-3.6,9.8-4,15.3c2,2.4,4.4,4.6,7.1,6.5
	c2.8-19.2,19.3-26.3,14.7-29.8C24.8,18.2,24.1,18.1,23.2,18.1z"/>
<path id="path4293" style="fill:#FEF4D6;" d="M47.6,20.5c-2.2,0.1-4.2,0.9-5.6,2.8c-2.3,3,11.2,11.3,16.1,23.4
	c4.1-3.4,7.3-7.5,9.2-12.2C61.4,26.1,53.5,20.3,47.6,20.5z"/>
<path id="path3066" sodipodi:cx="25.088533" sodipodi:cy="25.097055" sodipodi:rx="9.0900478" sodipodi:ry="9.0900478" sodipodi:type="arc" style="fill:#FFFFFF;" d="
	M35.6,25.4c0,5.5-4.4,9.9-9.7,9.9s-9.7-4.4-9.7-9.9s4.4-9.9,9.7-9.9S35.6,19.9,35.6,25.4z"/>
<path id="path4846" style="fill:#F8C4A2;" d="M83,62.2c-0.5,0.2-1,0.4-1.5,0.6c-2.1,5.3-5.2,7.6-6.3,7.2c-0.7-0.3-0.5-2-0.2-4.9
	C68.7,67,62.2,68.3,55.8,69C48,82.8,33,84.7,33,84.7S16.7,78.5,11.7,64c-1.5-0.5-3.1-1.1-4.6-1.8c6.5,14.5,21.1,24.5,38,24.5
	C61.9,86.7,76.5,76.6,83,62.2z"/>
</svg>
