<?xml version="1.0" encoding="utf-8"?>
<!-- Generator: Adobe Illustrator 20.0.0, SVG Export Plug-In . SVG Version: 6.00 Build 0)  -->
<svg version="1.1" id="Layer_1" xmlns="http://www.w3.org/2000/svg" xmlns:xlink="http://www.w3.org/1999/xlink" x="0px" y="0px"
	 viewBox="0 0 265.4 264.9" style="enable-background:new 0 0 265.4 264.9;" xml:space="preserve">
<path style="fill:#A6A8AB;" d="M264.5,144.9c-1.9,9-3.2,18.3-5.9,27c-5.2,16.8-13.7,31.8-25,45.4c-10.8,12.9-23.8,23-38.3,31.1
	c-10.6,5.9-21.8,9.9-33.7,12.7c-10.3,2.4-20.7,4-31.2,3.8c-16.2-0.4-31.9-3.7-47-9.7c-13.5-5.4-25.4-13.1-36.5-22.5
	c-22.4-18.9-36.2-42.9-43.3-71c-3.5-14-4-28.3-2.8-42.3C2.7,95,11.4,72.7,26.2,53c13.2-17.6,29.7-31.4,49.7-40.6
	C89.5,6.1,103.7,1.9,118.7,1c6.1-0.3,12.3-1.1,18.4-0.9c17.3,0.7,34,4.4,49.9,11.7c14.7,6.7,27.9,15.4,39.1,26.8
	c19.1,19.3,31.5,42.3,36.4,69.2c0.7,3.7,1.3,7.5,2,11.2C264.4,127.6,264.5,136.2,264.5,144.9z M256.4,132.1
	C257.6,64.1,201.1,8.8,135,8C63.9,7.1,8.7,63.4,8.6,132c-0.1,69.1,55.9,122.6,121.3,124.1C200.8,257.7,258,198.5,256.4,132.1z"/>
<path style="fill:#FDFDFD;" d="M264.5,144.9c0-8.6,0-17.3-0.1-25.9c0.3,0.7,0.9,1.4,0.9,2.1c0.1,7.2,0.1,14.4,0,21.6
	C265.3,143.5,264.8,144.2,264.5,144.9z"/>
<path style="fill:#448994;" d="M256.4,132.1c1.6,66.4-55.6,125.6-126.5,124C64.6,254.6,8.5,201.1,8.6,132C8.7,63.4,63.9,7.1,135,8
	C201.1,8.8,257.6,64.1,256.4,132.1z M33.3,131.9c-1.3,55,44.7,98.8,96.7,100c58.8,1.4,101.5-46.6,102.6-97
	c1.3-57.8-44.8-102.5-99.2-102.8C76.4,31.8,32,79.1,33.3,131.9z"/>
<path style="fill:#A6A8AB;" d="M33.3,131.9C32,79.1,76.4,31.8,133.3,32.1c54.5,0.3,100.5,45,99.2,102.8
	c-1.1,50.4-43.8,98.4-102.6,97C78,230.7,32,186.9,33.3,131.9z M133,40.9c-50.3-0.6-91.5,40.9-91.6,90.8
	c-0.1,49.5,38.6,91.7,91.2,91.9c50.2,0.2,91.3-38.8,91.6-91.5C224.4,80.5,182.6,40.7,133,40.9z"/>
<path style="fill:#448A94;" d="M133,40.9c49.6-0.2,91.4,39.7,91.2,91.2c-0.2,52.7-41.3,91.6-91.6,91.5
	c-52.6-0.2-91.3-42.4-91.2-91.9C41.4,81.8,82.7,40.2,133,40.9z M132.9,43.9c-48-1.2-88.3,39.4-88.6,87.4
	c-0.3,48.1,37.9,89.4,88.4,89.4c49.5,0,88.3-39.2,88.6-88.2C221.6,82.4,180.4,43,132.9,43.9z"/>
<path style="fill:#A6A8AB;" d="M132.9,43.9c47.5-0.9,88.7,38.6,88.4,88.6c-0.3,49-39.1,88.2-88.6,88.2c-50.5,0-88.7-41.3-88.4-89.4
	C44.6,83.3,84.9,42.7,132.9,43.9z M48.3,131.7c-1,47.3,38,84.7,83.3,85.1c48.5,0.5,85-38.3,85.9-82.8c0.9-48.8-37.7-87.1-85.2-86.9
	C84.7,47.5,47.7,86.1,48.3,131.7z"/>
<path style="fill:#448994;" d="M48.3,131.7c-0.6-45.6,36.4-84.2,83.9-84.5c47.5-0.3,86.2,38.1,85.2,86.9
	c-0.9,44.5-37.4,83.3-85.9,82.8C86.3,216.4,47.3,179,48.3,131.7z M99.4,142.8c0,0.1,0,0.2,0,0.2c2.3,0,4.7,0,7,0
	c4.1-0.1,4.6-0.7,3.6-4.8c-2.1-8.6-5.2-16.8-10-24.3c-4.9-7.5-10-14.9-12.1-23.8c-1-4.5-2.3-9-3.6-13.4c-0.5-1.6-1.5-4.1-2.7-4.3
	c-1.3-0.3-3.7,1.1-4.5,2.5c-2.5,4.4-5.2,8.9-6.6,13.8c-2.9,10.1-3.6,20.4-2.2,30.9c1.4,10.8,10.5,21.3,21.1,23.1
	C92.6,143.3,96,142.8,99.4,142.8z M197.9,109.4c0.3-9.1-1.5-17.9-4.6-26.3c-1.5-4-3.3-8-7.4-10.3c-1.8-1-3.1-1.2-3.7,1.3
	c-0.5,2.1-1.3,4.1-1.8,6.2c-2.5,10-5.6,19.7-11.3,28.5c-3.7,5.7-6.9,11.7-9.8,17.9c-1.8,3.9-2.8,8.1-3.8,12.3
	c-0.7,2.7,0.1,4.5,3.5,4.2c3.8-0.3,7.7-0.4,11.5,0c11.8,1.2,24.4-9.5,26-20.9C197.1,117.9,197.4,113.6,197.9,109.4z M76.7,165.9v0.1
	c-1.8,0-3.7-0.1-5.5,0c-1,0.1-1.9,0.6-2.9,0.7c-3.4,0.1-3.5,1.8-2,4.2c7.8,12,18,20.7,32.2,23.8c7.5,1.7,14.5-2.4,17.1-9.6
	c1-2.8,1.5-5.8,1.6-8.7c0.2-5.5-2-7.9-7.8-8.4C98.5,167.2,87.6,166.6,76.7,165.9z M189.3,165.7c-4.2,0.4-8,0.9-11.7,1.1
	c-4,0.2-8-0.1-12,0.2c-4.3,0.4-8.5,1.4-12.7,1.7c-2.7,0.3-4,1.9-4.2,4.1c-0.8,6.1,0.1,12,4.1,16.9c4.5,5.5,11.3,6.7,19.6,3.6
	c10.4-3.9,18.4-11,25.1-19.7c0.9-1.2,1.7-2.5,2.4-3.8c0.9-1.7,0.6-2.8-1.6-3.1C195.1,166.5,192,166.1,189.3,165.7z M133,139.9
	c-9,0-14.4,5.2-14.7,13.8c-0.4,10.3,7.8,15.1,14.5,15c7.5,0,14.3-4.9,14.6-14.4C147.6,146,141.4,139.9,133,139.9z"/>
<path style="fill:#62C9D8;" d="M99.4,142.8c-3.3,0-6.7,0.5-10-0.1c-10.6-1.8-19.7-12.3-21.1-23.1c-1.4-10.5-0.6-20.9,2.2-30.9
	c1.4-4.8,4.1-9.4,6.6-13.8c0.8-1.3,3.2-2.7,4.5-2.5c1.2,0.2,2.1,2.7,2.7,4.3c1.4,4.4,2.6,8.9,3.6,13.4c2.1,9,7.2,16.3,12.1,23.8
	c4.8,7.5,7.9,15.7,10,24.3c1,4.1,0.5,4.7-3.6,4.8c-2.3,0-4.7,0-7,0C99.4,142.9,99.4,142.9,99.4,142.8z"/>
<path style="fill:#62C9D8;" d="M197.9,109.4c-0.5,4.3-0.8,8.6-1.4,12.8c-1.6,11.3-14.3,22-26,20.9c-3.8-0.4-7.7-0.2-11.5,0
	c-3.4,0.2-4.2-1.6-3.5-4.2c1-4.2,2-8.4,3.8-12.3c2.9-6.1,6.1-12.2,9.8-17.9c5.8-8.8,8.8-18.5,11.3-28.5c0.5-2.1,1.3-4.1,1.8-6.2
	c0.6-2.5,1.9-2.3,3.7-1.3c4,2.3,5.9,6.3,7.4,10.3C196.4,91.5,198.1,100.2,197.9,109.4z"/>
<path style="fill:#62C9D8;" d="M76.7,165.9c10.9,0.7,21.8,1.3,32.7,2.2c5.8,0.5,8.1,2.9,7.8,8.4c-0.1,2.9-0.6,6-1.6,8.7
	c-2.6,7.2-9.6,11.3-17.1,9.6C84.3,191.7,74,182.9,66.3,171c-1.5-2.3-1.4-4.1,2-4.2c1,0,1.9-0.6,2.9-0.7c1.8-0.1,3.7,0,5.5,0
	C76.7,166,76.7,165.9,76.7,165.9z"/>
<path style="fill:#62C9D8;" d="M189.3,165.7c2.8,0.4,5.9,0.8,9,1.1c2.2,0.2,2.5,1.4,1.6,3.1c-0.7,1.3-1.5,2.6-2.4,3.8
	c-6.7,8.7-14.7,15.8-25.1,19.7c-8.3,3.1-15.1,1.9-19.6-3.6c-4-4.9-4.9-10.8-4.1-16.9c0.3-2.2,1.5-3.9,4.2-4.1
	c4.3-0.4,8.5-1.4,12.7-1.7c4-0.3,8,0,12-0.2C181.3,166.6,185.1,166.1,189.3,165.7z"/>
<path style="fill:#62C9D8;" d="M133,139.9c8.4,0,14.5,6.2,14.3,14.4c-0.3,9.5-7.1,14.4-14.6,14.4c-6.6,0-14.8-4.8-14.5-15
	C118.6,145.1,124,139.8,133,139.9z"/>
</svg>
