<?xml version="1.0" encoding="utf-8"?>
<!-- Generator: Adobe Illustrator 20.0.0, SVG Export Plug-In . SVG Version: 6.00 Build 0)  -->
<svg version="1.1" id="Layer_1" xmlns="http://www.w3.org/2000/svg" xmlns:xlink="http://www.w3.org/1999/xlink" x="0px" y="0px"
	 viewBox="0 0 264.5 264" style="enable-background:new 0 0 264.5 264;" xml:space="preserve">
<path style="fill:#A6A8AB;" d="M0,134.6C-0.1,96.9,12,67,35.3,41.8c26-28.1,58.8-41.4,97-41.8c72.5-0.8,132.2,59.4,132.2,132
	c0,71.4-58.6,133.3-134.4,132c-36-0.6-67.6-13.9-92.6-39.6C12.6,198.9-0.7,167.8,0,134.6z M132.6,256.2
	c32.4,0.3,64.2-13.9,85.6-34.5c25.5-24.6,38.9-54.9,38.6-89.9C256.2,62.7,202.1,7.5,132.1,7.5C62.5,7.6,8.3,63.7,8.1,132.1
	C8,200.1,64.4,256.4,132.6,256.2z"/>
<path style="fill:#85D1F4;" d="M132.6,256.2C64.4,256.4,8,200.1,8.1,132.1C8.3,63.7,62.5,7.6,132.1,7.5
	c70-0.1,124.1,55.2,124.7,124.3c0.3,35-13.1,65.3-38.6,89.9C196.8,242.3,165,256.5,132.6,256.2z M132.2,231.2
	c55,1,99.1-44.7,99.8-97.3c0.8-57.3-44.1-100.6-97.7-101.7C78.2,31,33.1,77.2,32.7,131.5C32.5,185.9,78.5,232.5,132.2,231.2z"/>
<path style="fill:#A6A8AB;" d="M132.2,231.2c-53.7,1.3-99.7-45.4-99.4-99.7C33.1,77.2,78.3,31,134.4,32.2
	c53.5,1.1,98.5,44.3,97.7,101.7C231.3,186.6,187.2,232.2,132.2,231.2z M132.4,223.2c49.7,0.9,90.9-40.6,91.7-89.2
	c0.9-52.7-41.2-92.8-89.8-93.8c-52.5-1.1-93,42.8-93.5,90.7C40.3,181.5,83.3,224.6,132.4,223.2z"/>
<path style="fill:#85D1F4;" d="M132.4,223.2c-49.1,1.3-92.1-41.8-91.6-92.3c0.5-47.9,41-91.8,93.5-90.7c48.6,1,90.7,41.1,89.8,93.8
	C223.3,182.6,182.1,224.1,132.4,223.2z M132.5,43.7c-50.1,0-90.6,41-88.3,92.7c2,44.9,39.2,85.5,92.1,83.7
	c44.1-1.5,87.1-39.5,84-93.9C217.9,83,181.9,43.8,132.5,43.7z"/>
<path style="fill:#A6A9AC;" d="M132.5,43.7c49.3,0.2,85.3,39.3,87.8,82.5c3.1,54.4-39.9,92.3-84,93.9c-52.9,1.8-90.2-38.8-92.1-83.7
	C42,84.7,82.4,43.7,132.5,43.7z M217.2,132.2c1.5-46.3-38.8-85.1-83.8-85.3c-47.2-0.3-86,37.7-86.1,84.8
	c-0.1,47.4,38,85.3,85.1,85.4C180.2,217.1,218,177.6,217.2,132.2z"/>
<path style="fill:#85D1F4;" d="M217.2,132.2c0.8,45.4-37,84.9-84.8,84.8c-47.1-0.1-85.2-38-85.1-85.4c0.1-47,38.9-85,86.1-84.8
	C178.4,47.1,218.7,85.9,217.2,132.2z M195.1,160.2c0-3.2,0-6.5,0-9.7c0-13.8,0-27.7,0-41.5c0-1.6-0.5-3.1-0.8-4.7
	c3.8-2.9,7.5-5.8,11.5-8.8c-2.6-3.6-5.1-7.2-7.8-11.1c-3.3,2.4-6.4,4.5-9.4,6.9c-2.4,1.9-4.5,2.2-7.2,0.5
	c-10.9-6.7-21.7-13.4-32.8-19.9c-6.1-3.6-11.6-7.2-9.4-15.6c0-0.2,0-0.3,0-0.5c0.1-1.9-0.8-2.5-2.7-2.7c-10.6-1.1-10.9-0.9-11.3,9.6
	c0,0.2,0,0.3,0,0.5c0.3,2.3-1,3.7-2.8,4.8c-12.9,7.8-25.9,15.6-38.8,23.4c-2.8,1.7-4.8,1.9-7.5-0.5c-2.6-2.4-6-4.1-9-6.2
	c-2.2,2.8-4.4,5.6-6.6,8.4c-0.1,0.1-0.2,0.3-0.3,0.4c-1.3,1.3-1,2.3,0.4,3.2c2.2,1.5,4.2,3.4,6.5,4.6c3.3,1.7,4.1,4.2,4,7.7
	c-0.2,14.8-0.3,29.7,0.1,44.5c0.1,4.7-1.6,7.3-5.2,9.6c-7.1,4.5-7,4.7-2.7,11.8c0.2,0.4,0.6,0.8,0.9,1.1c2.8,3.6,2.8,3.5,6.4,0.7
	c1.7-1.3,4-2,5.2-3.6c2.8-3.6,5.4-2.3,8.3-0.6c2.4,1.4,4.8,2.8,7.2,4.3c10.5,6.4,21,12.7,31.4,19.2c1.2,0.7,2.2,2.5,2.3,3.9
	c0.3,3.6,0.1,7.3,0.1,11c4.3,2.4,8.9,0.7,13.4,1c0.5,0,1.4-1.1,1.4-1.6c-0.1-4-0.5-8.1-0.7-12.1c3.2-1.9,6.4-3.8,9.5-5.7
	c11.5-7.1,23.1-14.3,34.6-21.4c0.7-0.5,2.3-0.4,3,0.1c3.8,2.6,7.5,5.4,11.3,8.3c2-2.8,4-5.8,6.2-8.6c1.7-2.1,1.2-3.4-1-4.8
	C200.3,164.3,197.8,162.2,195.1,160.2z"/>
<path style="fill:#D7EFF9;" d="M125.2,211c0-3.7,0.2-7.3-0.1-11c-0.1-1.4-1.1-3.2-2.3-3.9c-10.4-6.5-20.9-12.8-31.4-19.2
	c-2.4-1.4-4.8-2.8-7.2-4.3c-2.9-1.7-5.6-3-8.3,0.6c-1.2,1.6-3.6,2.3-5.2,3.6c-3.7,2.8-3.6,2.9-6.4-0.7c-0.3-0.4-0.7-0.7-0.9-1.1
	c-4.3-7.1-4.4-7.2,2.7-11.8c3.7-2.4,5.4-5,5.2-9.6c-0.4-14.8-0.2-29.7-0.1-44.5c0-3.5-0.7-6-4-7.7c-2.3-1.2-4.3-3-6.5-4.6
	c-1.4-1-1.7-2-0.4-3.2c0.1-0.1,0.2-0.2,0.3-0.4c2.2-2.8,4.4-5.6,6.6-8.4c3,2,6.4,3.7,9,6.2c2.6,2.4,4.7,2.2,7.5,0.5
	c12.9-7.9,25.8-15.6,38.8-23.4c1.8-1.1,3.1-2.5,2.8-4.8c0-0.2,0-0.3,0-0.5c0.3-10.5,0.7-10.7,11.3-9.6c1.9,0.2,2.8,0.8,2.7,2.7
	c0,0.2,0,0.3,0,0.5c-2.2,8.4,3.2,12,9.4,15.6c11.1,6.4,21.9,13.1,32.8,19.9c2.7,1.7,4.8,1.4,7.2-0.5c3-2.3,6.1-4.5,9.4-6.9
	c2.7,3.8,5.3,7.4,7.8,11.1c-4,3-7.7,5.9-11.5,8.8c0,17.8-0.1,35.5-0.1,53.3c0,0.9,0.6,1.7,1,2.6c2.6,2,5.2,4.1,7.9,5.9
	c2.2,1.4,2.6,2.7,1,4.8c-2.2,2.8-4.2,5.8-6.2,8.6c-3.8-2.8-7.5-5.7-11.3-8.3c-0.7-0.5-2.3-0.6-3-0.1c-11.6,7.1-23.1,14.2-34.6,21.4
	c-3.2,2-6.4,3.8-9.5,5.7c-0.1,3.3-0.2,6.6-0.1,9.8c0.1,2.4-0.9,3.2-3.2,3.1C132.4,211,128.8,211.1,125.2,211z M137.1,163.1
	c5.7-3.7,11.4-7.3,17-11c3.6-2.4,3.5-3.9-0.6-5.7c-5.7-2.5-11.6-4.8-17.4-7.2c-0.1,0.1-0.4,0.2-0.4,0.3c-0.2,7.8-0.4,15.6-0.5,23.4
	C135.3,163,136.5,163.1,137.1,163.1z M130.1,87.1c0-1.3,0.1-1.8,0-2.3c-0.2-1.4-0.4-2.9-0.6-4.3c-1.5,0.5-3.1,0.8-4.3,1.7
	c-10.4,6.8-20.7,13.7-31,20.7c-1.8,1.2-3.2,3.1-4.8,4.6c1.8,1,3.7,1.9,5.5,3.1c3.4,2.3,6.3,1.6,9.5-0.8c6.7-4.8,13.6-9.4,20.6-13.8
	C128.7,93.7,131.2,91.1,130.1,87.1z M87.6,156.5c14.1,9.4,27.2,18.2,40.4,27c0.4,0.2,0.9,0.2,2,0.5c0-3.8,0.2-7.4-0.1-11
	c-0.1-1.1-1.2-2.3-2.1-3c-8.6-5.9-17.2-11.8-25.9-17.5c-1-0.6-2.6-1.1-3.5-0.8C95.1,152.9,91.8,154.6,87.6,156.5z M134.8,86.5
	c0.3,6.2,0.3,6.2,5.5,9.7c6.5,4.3,13.2,8.4,19.4,13.1c4.1,3.2,7.7,2.8,11.8,0.6c4.3-2.3,4.5-3.6,0.3-6.4
	c-10.2-6.8-20.4-13.6-30.7-20.2c-1.5-1-3.5-1.3-5.2-1.9C135.6,83.1,135.2,84.8,134.8,86.5z M177.2,156.4c-3.5-1.6-6.3-2.8-9.2-4.1
	c-2.1-1-3.9-0.6-5.9,0.7c-6.9,4.8-13.7,9.9-21.1,13.9c-5.6,3-6.5,7.2-6,12.7c0.4,3.5,1.3,4,4.2,2c6.8-4.4,13.5-9,20.3-13.5
	C165.3,164.4,171,160.5,177.2,156.4z M128.9,164.3c0.4-0.2,0.8-0.5,1.2-0.7c0-7.3,0-14.6,0-21.9c0-1.9-0.6-3-2.7-2.1
	c-7,2.9-13.9,5.9-21.8,9.2C113.9,154.3,121.4,159.3,128.9,164.3z M105.8,115c7.7,3.2,14.5,6.2,21.3,8.9c1.6,0.6,3,0.1,3-2.1
	c0-7.4,0-14.7,0-23.2C121.7,104.4,114.2,109.4,105.8,115z M159,115c-7.4-5-13.5-9.2-19.7-13.2c-2.4-1.6-4.1-1-4.1,1.5
	c-0.2,7.1-0.1,14.2-0.1,21.8C143.1,121.7,150.5,118.6,159,115z M178.1,132.2c0-5.3,0.1-10.7-0.1-16c0-1-1-2.7-1.7-2.7
	c-2.9-0.2-7.1,4.4-7.1,7.4c0,6.8,0,13.7,0,20.5c0,5.8,0,5.8,5.3,8c3,1.3,3.5,1,3.6-2.2C178.2,142.2,178.1,137.2,178.1,132.2z
	 M87.1,112.8c0,6.3,0,11.7,0,17.1c0,5.8-0.1,11.6,0.1,17.4c0,0.9,1.1,2.6,1.7,2.7c3.2,0.2,7.1-3.6,7.1-6.8
	c0.1-7.6,0.1-15.2-0.1-22.9c0-1.3-0.7-3-1.6-3.7C92.4,115.1,90.1,114.2,87.1,112.8z M143.3,131.8c6.5,3.7,12.1,7.1,17.9,10.2
	c1.6,0.8,2.9-0.1,2.9-2.2c0-5.3,0-10.6,0-15.9c0-2.2-0.7-3.4-3-2.1C155.5,124.9,149.9,128.1,143.3,131.8z M101.4,143.2
	c6.8-3.8,13.1-7.4,20.1-11.3c-7.1-4-13.3-7.4-20.1-11.2C101.4,128.6,101.4,135.5,101.4,143.2z"/>
<path style="fill:#7DC6E8;" d="M195.1,160.2c-0.3-0.9-1-1.7-1-2.6c0-17.8,0.1-35.5,0.1-53.3c0.3,1.6,0.8,3.1,0.8,4.7
	c0.1,13.8,0,27.7,0,41.5C195.1,153.7,195.1,156.9,195.1,160.2z"/>
<path style="fill:#83C9E9;" d="M125.2,211c3.6,0,7.2,0,10.8,0.2c2.3,0.1,3.3-0.7,3.2-3.1c-0.1-3.3,0.1-6.6,0.1-9.8
	c0.3,4,0.6,8.1,0.7,12.1c0,0.5-1,1.6-1.4,1.6C134.1,211.7,129.5,213.4,125.2,211z"/>
<path style="fill:#86D1F4;" d="M130.1,87.1c1.1,3.9-1.4,6.5-5.1,8.9c-7,4.4-13.9,8.9-20.6,13.8c-3.2,2.3-6.1,3-9.5,0.8
	c-1.7-1.1-3.6-2.1-5.5-3.1c1.6-1.6,3-3.4,4.8-4.6c10.3-7,20.6-13.8,31-20.7c1.3-0.8,2.9-1.1,4.3-1.7c0.2,1.4,0.4,2.9,0.6,4.3
	C130.2,85.3,130.1,85.8,130.1,87.1z"/>
<path style="fill:#86D1F4;" d="M87.6,156.5c4.2-1.9,7.4-3.5,10.8-4.8c1-0.4,2.6,0.2,3.5,0.8c8.7,5.8,17.3,11.6,25.9,17.5
	c1,0.7,2.1,1.9,2.1,3c0.3,3.6,0.1,7.2,0.1,11c-1.1-0.3-1.7-0.3-2-0.5C114.9,174.7,101.7,165.9,87.6,156.5z"/>
<path style="fill:#86D1F4;" d="M134.8,86.5c0.4-1.7,0.8-3.4,1.2-5.1c1.7,0.6,3.7,1,5.2,1.9c10.3,6.7,20.5,13.4,30.7,20.2
	c4.2,2.8,4,4.1-0.3,6.4c-4.1,2.2-7.7,2.6-11.8-0.6c-6.2-4.8-12.9-8.8-19.4-13.1C135.1,92.8,135.1,92.8,134.8,86.5z"/>
<path style="fill:#86D1F4;" d="M177.2,156.4c-6.2,4.2-11.9,8-17.6,11.8c-6.7,4.5-13.5,9-20.3,13.5c-3,1.9-3.9,1.4-4.2-2
	c-0.6-5.4,0.3-9.6,6-12.7c7.4-4,14.2-9.1,21.1-13.9c2-1.4,3.7-1.7,5.9-0.7C170.9,153.6,173.7,154.8,177.2,156.4z"/>
<path style="fill:#86D1F4;" d="M128.9,164.3c-7.5-5-15-10-23.3-15.5c7.9-3.3,14.8-6.3,21.8-9.2c2.1-0.9,2.7,0.3,2.7,2.1
	c0,7.3,0,14.6,0,21.9C129.7,163.8,129.3,164.1,128.9,164.3z"/>
<path style="fill:#86D1F4;" d="M105.8,115c8.4-5.6,15.9-10.6,24.3-16.3c0,8.5,0,15.8,0,23.2c0,2.2-1.4,2.7-3,2.1
	C120.3,121.2,113.5,118.3,105.8,115z"/>
<path style="fill:#86D1F4;" d="M159,115c-8.5,3.6-15.9,6.7-23.8,10c0-7.6-0.1-14.7,0.1-21.8c0.1-2.4,1.7-3,4.1-1.5
	C145.5,105.8,151.6,110,159,115z"/>
<path style="fill:#87D1F4;" d="M178.1,132.2c0,5,0.1,10,0,15c-0.1,3.2-0.6,3.5-3.6,2.2c-5.3-2.2-5.3-2.2-5.3-8c0-6.8,0-13.7,0-20.5
	c0-3,4.3-7.6,7.1-7.4c0.7,0.1,1.7,1.8,1.7,2.7C178.2,121.5,178.1,126.8,178.1,132.2z"/>
<path style="fill:#87D1F4;" d="M87.1,112.8c2.9,1.5,5.3,2.3,7.2,3.7c1,0.7,1.6,2.5,1.6,3.7c0.2,7.6,0.1,15.2,0.1,22.9
	c0,3.2-3.8,7-7.1,6.8c-0.6,0-1.7-1.7-1.7-2.7c-0.2-5.8-0.1-11.6-0.1-17.4C87.1,124.5,87.1,119,87.1,112.8z"/>
<path style="fill:#86D1F4;" d="M136.1,139.3c5.8,2.4,11.7,4.6,17.4,7.2c4.1,1.8,4.2,3.3,0.6,5.7c-5.6,3.7-11.4,7.3-17,11
	c-0.3-1.7-0.9-3.5-0.9-5.2C136.1,151.7,136.1,145.5,136.1,139.3z"/>
<path style="fill:#87D1F4;" d="M143.3,131.8c6.6-3.8,12.2-7,17.8-10.1c2.3-1.2,3,0,3,2.1c0,5.3,0,10.6,0,15.9c0,2.1-1.3,3-2.9,2.2
	C155.4,138.9,149.8,135.6,143.3,131.8z"/>
<path style="fill:#86D1F3;" d="M101.4,143.2c0-7.7,0-14.6,0-22.5c6.8,3.8,13,7.3,20.1,11.2C114.5,135.8,108.2,139.4,101.4,143.2z"/>
<path style="fill:#7CC5E7;" d="M136.1,139.3c0,6.2-0.1,12.4,0.1,18.6c0,1.7,0.6,3.5,0.9,5.2c-0.6-0.1-1.9-0.1-1.9-0.2
	c0.1-7.8,0.3-15.6,0.5-23.4C135.7,139.5,136,139.4,136.1,139.3z"/>
</svg>
