<?xml version="1.0" encoding="utf-8"?>
<!-- Generator: Adobe Illustrator 20.0.0, SVG Export Plug-In . SVG Version: 6.00 Build 0)  -->
<svg version="1.1" id="Layer_1" xmlns="http://www.w3.org/2000/svg" xmlns:xlink="http://www.w3.org/1999/xlink" x="0px" y="0px"
	 viewBox="0 0 264.7 264.4" style="enable-background:new 0 0 264.7 264.4;" xml:space="preserve">
<path style="fill:#A6A8AB;" d="M132.9,0c71-1.5,132.3,59.7,131.7,132.5c-0.6,74-60.9,128.8-125.8,131.8
	c-36.3,1.6-68.2-9.7-95.1-34.2c-26-23.6-40.9-53.2-43.4-88.3C-2.3,103.6,9,69.7,35.6,41.7C62,13.9,94.7,0.3,132.9,0z M256.5,131.9
	C257.8,67.3,204.8,7.6,132.6,7.7C61.8,7.8,8.7,64.2,8.5,131.3C8.3,200.1,62.7,255.7,132.1,256C204.9,256.3,257.8,196.1,256.5,131.9z
	"/>
<path style="fill:#951A45;" d="M256.5,131.9c1.3,64.3-51.6,124.5-124.3,124.1C62.7,255.7,8.3,200.1,8.5,131.3
	C8.7,64.2,61.8,7.8,132.6,7.7C204.8,7.6,257.8,67.3,256.5,131.9z M132.7,231.5c54.9,0.6,98.4-45.2,99.7-97.1
	c1.4-56.3-45.1-102.3-99.6-102.3c-55,0-99.7,45.6-99.9,99.5C32.7,185.7,77.8,232.3,132.7,231.5z"/>
<path style="fill:#A6A8AB;" d="M132.7,231.5c-55,0.8-100-45.7-99.8-99.9c0.2-53.9,44.9-99.5,99.9-99.5c54.5,0,101,46.1,99.6,102.3
	C231.1,186.3,187.6,232.1,132.7,231.5z M41.1,131.5c-0.1,50.3,40.1,90.3,88.6,91.8c51.3,1.6,94.2-39.3,94.4-90.9
	c0.2-51.3-40.6-90.9-89.3-92C83,39.1,41.3,81,41.1,131.5z"/>
<path style="fill:#951A45;" d="M41.1,131.5C41.3,81,83,39.1,134.9,40.4c48.7,1.2,89.5,40.8,89.3,92c-0.2,51.6-43.1,92.5-94.4,90.9
	C81.2,221.8,41.1,181.9,41.1,131.5z M132.2,220.2c48.5,0.3,88.8-38.7,88.9-88.2c0.1-49.7-39.9-88.2-87.5-88.6
	C83.8,43,44.4,83,44.2,131.6C44.1,180.4,83.7,220.2,132.2,220.2z"/>
<path style="fill:#A6A8AB;" d="M132.2,220.2c-48.4,0-88.1-39.9-87.9-88.6C44.4,83,83.8,43,133.6,43.5c47.6,0.4,87.5,38.9,87.5,88.6
	C221,181.5,180.7,220.5,132.2,220.2z M132.2,216.5c46.8,0.8,84-38.2,85.3-82.1c1.4-47.6-37.9-87.4-84.7-87.4
	c-47.1,0-84.3,38.8-85,83.5C47.1,177.5,86.1,217.1,132.2,216.5z"/>
<path style="fill:#951A45;" d="M132.2,216.5c-46.1,0.5-85.1-39-84.4-86c0.7-44.7,37.9-83.5,85-83.5c46.8,0,86.1,39.8,84.7,87.4
	C216.2,178.3,179,217.4,132.2,216.5z M82.5,70.4c4.9,6.9,5.2,12.3,0.3,18.6c-2.1,2.7-5.4,4.7-8.4,6.6C65.7,101,59,107.9,57,118.1
	c-0.9,4.5-0.8,9.2-0.7,13.9c0.1,12.4,6.7,22.1,18.5,26.2c6.7,2.4,13.6,4.3,20.5,5.8c6.8,1.5,11,5.6,14.2,11.4c4.9,9,7,18.9,8.7,28.9
	c0.5,2.9,1.9,2.9,4,3c2.4,0.1,3.2-0.8,3.2-3.2c0.2-7.8,0.3-15.6,1-23.4c0.5-6.1-2.4-9.9-6.8-13.4c-5.2-4.2-10.3-8.5-14.8-13.3
	c-5.3-5.7-7.7-12.7-5.6-20.6c2.1-8.2,4.3-16.3,6.4-24.5c1.3-4.9,1.3-9.7-0.5-14.6c-2.6-7-6.9-12.9-11.8-18.3
	C90.6,73.4,87.7,70.1,82.5,70.4z M182.1,70c-1.4,0.7-3,1.1-4.2,2c-6.8,4.6-11.3,11.1-15.1,18.2c-3.7,6.8-4.3,13.6-1.8,21.1
	c2.4,6.9,4.2,14,5.7,21.1c1.7,8.4,0.6,16.2-6.3,22.4c-5.7,5.1-11.5,10.1-17.1,15.3c-1.3,1.2-2.7,2.8-3,4.3c-0.7,3.7-1,7.6-1,11.4
	c0.1,6.3,0.5,12.6,1,18.9c0.1,0.9,1.3,2.5,2,2.6c1.6,0,3.6-0.3,4.8-1.3c0.9-0.8,0.9-2.7,1.1-4.2c1.5-8.5,3.5-16.9,7.3-24.7
	c3.1-6.4,7.5-11.3,14.9-12.8c6.1-1.3,12.2-2.9,18.2-4.8c9.3-3,16.5-8.7,19.6-18.4c2.5-7.9,2.8-15.9,0.5-24
	c-3-10.7-10.5-17.4-19.7-22.7C179.5,88.7,177.2,80.3,182.1,70z M120.5,117.3c4.1-2.4,5.4-3.8,6.6-7c2.2-5.9,2.8-12.1,0.8-17.9
	c-1.5-4.4-4.4-8.4-6.8-12.5c-0.4-0.6-2.1-0.9-3-0.6c-0.4,0.1-0.9,1.8-0.7,2.6c2.4,9.6,1.8,19.4,1.9,29.1
	C119.4,113.1,120.1,115.1,120.5,117.3z M137.1,101.3c-0.4,4.5,1,9.5,4.5,13.8c0.8,1,2.4,1.3,3.6,1.9c0.3-1.2,0.8-2.4,0.9-3.6
	c0.4-7.9,0.7-15.8,1.1-23.8c0.1-2.8,0.7-5.6,0.9-8.3c0.1-0.7-0.5-1.5-0.8-2.2c-0.8,0.3-1.8,0.5-2.4,1
	C139.1,85.6,137,92.5,137.1,101.3z"/>
<path style="fill:#E81368;" d="M82.5,70.4c5.2-0.4,8.1,2.9,10.6,5.7c4.9,5.4,9.2,11.2,11.8,18.3c1.8,4.9,1.8,9.7,0.5,14.6
	c-2.1,8.2-4.2,16.3-6.4,24.5c-2.1,8,0.3,14.9,5.6,20.6c4.5,4.8,9.6,9.2,14.8,13.3c4.4,3.5,7.4,7.3,6.8,13.4
	c-0.7,7.8-0.8,15.6-1,23.4c-0.1,2.4-0.9,3.3-3.2,3.2c-2.1-0.1-3.5,0-4-3c-1.7-10-3.8-19.8-8.7-28.9c-3.2-5.8-7.4-9.9-14.2-11.4
	c-6.9-1.6-13.8-3.5-20.5-5.8c-11.8-4.1-18.4-13.8-18.5-26.2c0-4.6-0.2-9.4,0.7-13.9c2.1-10.3,8.8-17.2,17.5-22.5
	c3-1.9,6.3-3.8,8.4-6.6C87.7,82.7,87.4,77.3,82.5,70.4z"/>
<path style="fill:#E81368;" d="M182.1,70c-4.9,10.3-2.6,18.7,6.9,24.2c9.1,5.3,16.6,12,19.7,22.7c2.3,8.1,2,16.1-0.5,24
	c-3.1,9.7-10.2,15.3-19.6,18.4c-6,1.9-12.1,3.5-18.2,4.8c-7.4,1.6-11.8,6.4-14.9,12.8c-3.8,7.8-5.8,16.2-7.3,24.7
	c-0.3,1.5-0.2,3.4-1.1,4.2c-1.1,1-3.1,1.3-4.8,1.3c-0.7,0-1.9-1.6-2-2.6c-0.5-6.3-0.9-12.6-1-18.9c0-3.8,0.3-7.6,1-11.4
	c0.3-1.6,1.7-3.2,3-4.3c5.6-5.2,11.4-10.2,17.1-15.3c6.8-6.1,8-14,6.3-22.4c-1.5-7.1-3.3-14.2-5.7-21.1c-2.6-7.4-1.9-14.2,1.8-21.1
	c3.8-7.1,8.3-13.6,15.1-18.2C179.1,71.1,180.7,70.7,182.1,70z"/>
<path style="fill:#E71367;" d="M120.5,117.3c-0.4-2.2-1.2-4.2-1.2-6.2c-0.2-9.7,0.4-19.5-1.9-29.1c-0.2-0.8,0.3-2.5,0.7-2.6
	c0.9-0.2,2.6,0,3,0.6c2.5,4,5.3,8,6.8,12.5c2,5.9,1.4,12-0.8,17.9C125.9,113.5,124.7,114.9,120.5,117.3z"/>
<path style="fill:#E81367;" d="M137.1,101.3c-0.1-8.8,1.9-15.7,7.8-21.2c0.6-0.6,1.6-0.7,2.4-1c0.3,0.7,0.9,1.5,0.8,2.2
	c-0.2,2.8-0.8,5.6-0.9,8.3c-0.4,7.9-0.7,15.8-1.1,23.8c-0.1,1.2-0.6,2.4-0.9,3.6c-1.2-0.6-2.8-1-3.6-1.9
	C138.2,110.8,136.7,105.8,137.1,101.3z"/>
</svg>
