<?xml version="1.0" encoding="utf-8"?>
<!-- Generator: Adobe Illustrator 20.0.0, SVG Export Plug-In . SVG Version: 6.00 Build 0)  -->
<svg version="1.1" id="Layer_1" xmlns="http://www.w3.org/2000/svg" xmlns:xlink="http://www.w3.org/1999/xlink" x="0px" y="0px"
	 viewBox="0 0 264.5 265.1" style="enable-background:new 0 0 264.5 265.1;" xml:space="preserve">
<path style="fill:#A6A8AB;" d="M0.9,119.3c0.5-13.1,4.1-25.5,9-37.6c5.5-13.8,13.6-25.9,23.3-37.1C51.9,22.9,75.4,9.7,103,3.2
	c13.1-3.1,26.3-3.8,39.5-2.8c25.3,1.9,48.3,10.5,68.8,25.7c17.6,13,31.1,29.4,40.4,49c7.3,15.3,11.3,31.5,12.5,48.6
	c1.2,18.2-1.2,35.6-7.2,52.5c-5.4,15.1-13.2,28.8-23.6,41.2c-13,15.6-29.1,27-47.2,35.7c-10.9,5.2-22.6,8.2-34.5,10
	c-6.5,1-13,2-19.6,2c-5.9,0-11.7-1.4-17.6-1.8c-9.9-0.8-19.3-3.6-28.6-7c-13.3-4.8-25.3-11.8-36.3-20.9
	c-11.9-9.9-22.5-21.1-30.4-34.5c-7.5-12.7-13.6-26-16.2-40.6c-0.9-5-1.5-10-2.2-15.1C0.9,136.6,0.9,127.9,0.9,119.3z M132.2,256.3
	c68.2,1,123.4-55,124.9-120.9C258.7,63.7,201.3,7.9,133.8,7.5C62.4,7.2,9.3,63.7,8.1,130C6.8,201.1,65.6,257.2,132.2,256.3z"/>
<path style="fill:#FDFDFD;" d="M0.9,119.3c0,8.7,0,17.3,0,26c-0.3-0.7-0.9-1.4-0.9-2.1c-0.1-7.2-0.1-14.5,0-21.7
	C0.1,120.7,0.6,120,0.9,119.3z"/>
<path style="fill:#75525C;" d="M132.2,256.3C65.6,257.2,6.8,201.1,8.1,130C9.3,63.7,62.4,7.2,133.8,7.5
	c67.5,0.3,124.9,56.1,123.3,127.8C255.6,201.3,200.3,257.3,132.2,256.3z M132.6,231.3c54.3,0.8,98.8-44.5,99.4-97.4
	c0.3-28.5-9.7-53-30-73c-19.1-18.8-42.6-28.3-69.2-28.4c-27.1-0.1-51.1,9.7-70.4,29s-29.3,43-29.3,70.3
	C33.1,187.9,79.1,232,132.6,231.3z"/>
<path style="fill:#A6A8AB;" d="M132.6,231.3C79.1,232,33.1,188,33.1,131.9c0-27.3,10-51,29.3-70.3s43.3-29.1,70.4-29
	c26.5,0.1,50.1,9.5,69.2,28.4c20.3,20,30.3,44.4,30,73C231.4,186.8,186.9,232.1,132.6,231.3z M41,132c-0.6,50.5,40.8,92.2,91.7,91.9
	c50.3-0.2,91.3-38.6,91.8-91.5c0.5-51.4-40.6-92-92.2-92.2C81.8,40.1,40.4,82.3,41,132z"/>
<path style="fill:#75525C;" d="M41,132c-0.6-49.8,40.8-91.9,91.4-91.8C184,40.4,225,81,224.5,132.4c-0.5,53-41.5,91.3-91.8,91.5
	C81.7,224.2,40.4,182.5,41,132z M44.9,131.6c-1.2,47.9,38.5,88.6,87.3,88.6c48.9,0,88.6-38.3,88.6-88.1c-0.1-50-39.6-86.7-86.1-88
	C84.8,42.8,43.8,84.3,44.9,131.6z"/>
<path style="fill:#A6A8AB;" d="M44.9,131.6c-1.1-47.2,39.9-88.8,89.7-87.5c46.5,1.2,86,38,86.1,88c0.1,49.8-39.6,88.1-88.6,88.1
	C83.4,220.1,43.7,179.4,44.9,131.6z M132.2,217.2c47.8,0.2,85-38.5,85.7-83.8c0.7-48.4-38.5-84.7-82-86.4
	c-48.3-1.8-88.7,37.3-88.5,85C47.6,180.4,85.8,216.6,132.2,217.2z"/>
<path style="fill:#75525C;" d="M132.2,217.2c-46.3-0.6-84.6-36.8-84.8-85.2c-0.2-47.7,40.2-86.8,88.5-85c43.5,1.6,82.7,38,82,86.4
	C217.2,178.8,180,217.5,132.2,217.2z M70.9,132.3c-0.3,33.8,27.1,61.6,61.3,61.7c36.1,0.1,62.4-27.8,62.3-61.9
	c-0.1-36.9-29.3-61.8-62.2-61.9C98.8,70.1,70.1,98.4,70.9,132.3z"/>
<path style="fill:#C997A5;" d="M70.9,132.3c-0.8-33.9,28-62.1,61.4-62c33,0.1,62.2,24.9,62.2,61.9c0.1,34-26.3,61.9-62.3,61.9
	C98,193.9,70.6,166.1,70.9,132.3z M132.5,91.1c-7.7-0.6-15.2,1.7-22.1,6.2C97,106,88.1,122.6,92.3,141c3.2,14.2,12.2,24.1,25.7,29.7
	c1.6,0.7,2.9,0.9,3.1-1.5c0.4-6.9,0.2-13.4-6-18.4c-6-4.9-8.3-11.5-8.3-19.4c0-13.2,11.9-28.5,31.6-24.6c9.6,1.9,16.3,8.1,19.2,17.7
	c2.9,9.7,1,18.6-6.6,25.5c-5.5,5-7.8,10.8-7,18.2c0.3,2.6,0.5,3.7,3.5,2.5c15.6-6.6,24.9-18.4,26.4-35.2
	C176,111,156,90.3,132.5,91.1z"/>
<path style="fill:#75525C;" d="M132.5,91.1c23.5-0.8,43.6,19.9,41.3,44.2c-1.5,16.7-10.8,28.5-26.4,35.2c-2.9,1.3-3.2,0.1-3.5-2.5
	c-0.8-7.3,1.5-13.2,7-18.2c7.6-6.9,9.5-15.8,6.6-25.5c-2.9-9.6-9.6-15.8-19.2-17.7c-19.7-3.9-31.6,11.4-31.6,24.6
	c0,7.9,2.3,14.6,8.3,19.4c6.2,5,6.4,11.5,6,18.4c-0.1,2.4-1.4,2.2-3.1,1.5c-13.6-5.6-22.5-15.5-25.7-29.7
	c-4.2-18.4,4.7-35,18.1-43.6C117.3,92.9,124.8,90.5,132.5,91.1z"/>
</svg>
