<?xml version="1.0" encoding="utf-8"?>
<!-- Generator: Adobe Illustrator 20.0.0, SVG Export Plug-In . SVG Version: 6.00 Build 0)  -->
<svg version="1.1" id="Layer_1" xmlns="http://www.w3.org/2000/svg" xmlns:xlink="http://www.w3.org/1999/xlink" x="0px" y="0px"
	 viewBox="0 0 265.1 264.9" style="enable-background:new 0 0 265.1 264.9;" xml:space="preserve">
<path style="fill:#A6A8AB;" d="M264.1,145.9c-1,5.2-2,10.3-3,15.5c-3.7,18.2-11.9,34.3-22.5,49.3c-10,14.1-23,25.2-37.5,34.4
	c-12.1,7.6-25.3,12.7-39.3,15.9c-11,2.5-22,4.3-33.2,3.8c-16.5-0.7-32.5-4.2-47.8-10.7c-10.5-4.4-19.9-10.3-28.9-17
	c-10.4-7.6-18.9-17-26.5-27.2c-11.3-15.2-18.6-32.2-22.6-50.6c-1.7-8-1.9-16.3-2.4-24.5c-1-16.8,2-33.1,7.9-48.8
	C13,72.9,19.8,61,28.4,50c12.1-15.5,27-27.5,44.5-36.3c14.5-7.2,29.8-11.2,46-13c21.6-2.3,42.3,0.8,62.3,8.5
	c13.9,5.4,26.5,13.3,38,23.2c14,12,24.5,26.4,32.5,42.8c6,12.3,10,25.2,11.4,38.8c0.2,1.6,0.7,3.2,1.1,4.8
	C264.2,128,264.1,136.9,264.1,145.9z M132.3,256c65.4,0.8,124.1-52.2,124.3-123.8C256.7,63.1,201.3,9,134.5,8
	C64.9,6.9,8.5,62.5,8.4,131.7C8.2,203.3,66.8,256.5,132.3,256z"/>
<path style="fill:#FDFDFD;" d="M264.1,145.9c0-9,0-18,0.1-26.9c0.3,0.7,0.8,1.4,0.8,2.2c0.1,7.5,0.1,15.1,0,22.6
	C265,144.5,264.4,145.2,264.1,145.9z"/>
<path style="fill:#147B3D;" d="M132.3,256c-65.4,0.5-124-52.7-123.9-124.3C8.5,62.5,64.9,6.9,134.5,8c66.8,1,122.3,55.1,122.1,124.2
	C256.4,203.8,197.7,256.8,132.3,256z M32.9,131.9c-1,52.7,42.5,98.8,97.3,100c57,1.2,102.3-45.4,102.1-99.9
	C232.1,78,189,32.5,133,32.3C74.9,32,32,79.8,32.9,131.9z"/>
<path style="fill:#A6A8AB;" d="M32.9,131.9C32,79.8,74.9,32,133,32.3c56,0.2,99.1,45.7,99.3,99.7c0.2,54.5-45.1,101.1-102.1,99.9
	C75.5,230.7,31.9,184.6,32.9,131.9z M132.2,40.7c-48.7-0.5-92.7,40.4-91.1,94.2c1.4,48.2,40.3,88.9,91.7,88.6
	c53.2-0.3,91.6-43.1,91.2-92.2C223.6,80.4,181.6,40.1,132.2,40.7z"/>
<path style="fill:#147B3D;" d="M132.2,40.7c49.4-0.6,91.4,39.6,91.8,90.6c0.4,49.2-38,91.9-91.2,92.2c-51.4,0.3-90.3-40.4-91.7-88.6
	C39.5,81.2,83.5,40.2,132.2,40.7z M44.1,131.9c-0.1,47.8,37.8,88.7,88.5,88.6c50.4-0.1,87.8-40,88.4-87.2
	c0.6-50.5-40.3-89.4-88-89.6C85.4,43.4,44.1,82,44.1,131.9z"/>
<path style="fill:#A6A8AB;" d="M44.1,131.9c0-49.9,41.4-88.5,88.9-88.2c47.7,0.3,88.6,39.2,88,89.6c-0.6,47.3-38,87.1-88.4,87.2
	C81.8,220.6,43.9,179.7,44.1,131.9z M47.9,132c-0.8,45.2,36.6,84.7,83.9,84.9c47,0.2,84.8-37.5,85.5-83.5
	c0.7-44.7-34.7-86.1-84.8-86.2C83.1,47.2,47.1,87.9,47.9,132z"/>
<path style="fill:#147B3D;" d="M47.9,132c-0.7-44.1,35.3-84.8,84.6-84.7c50.1,0,85.5,41.5,84.8,86.2c-0.7,46-38.5,83.7-85.5,83.5
	C84.5,216.7,47,177.2,47.9,132z M132.5,212L132.5,212c1,0,2,0,3,0c7.2,0,7.2,0,7.7-7.2c0.4-7.4,0.5-7.2,7.2-9.8
	c15.1-5.8,28.2-14.4,36.7-28.6c8.5-14.1,11-28.9,4.5-44.7c-5.6-13.7-14.1-25.5-23.8-36.5c-8.8-10-18.4-19.2-27.6-28.8
	c-1.6-1.7-3.3-3.3-5-4.9c-1.9-1.7-3.6-1.7-5.5,0.3c-7.4,7.6-15,15-22.5,22.5c-10.8,10.9-20.2,22.8-28,36.1
	c-4.2,7.2-8.1,14.7-8.8,23.1c-1.9,21.4,7.7,37.5,23.9,50.3c6.9,5.5,14.8,9.6,23.3,12c2.6,0.8,3.8,2,3.7,4.9
	c-0.1,2.9,0.4,5.9,0.9,8.9c0.2,0.9,1.5,2.2,2.4,2.3C127.1,212.2,129.8,212,132.5,212z"/>
<path style="fill:#27CA50;" d="M132.5,212c-2.7,0-5.4,0.2-8-0.1c-0.9-0.1-2.2-1.4-2.4-2.3c-0.6-2.9-1-5.9-0.9-8.9
	c0.1-2.9-1.1-4.1-3.7-4.9c-8.6-2.4-16.4-6.5-23.3-12c-16.2-12.8-25.8-29-23.9-50.3c0.7-8.4,4.6-15.9,8.8-23.1
	c7.8-13.2,17.2-25.2,28-36.1c7.5-7.5,15.1-14.9,22.5-22.5c2-2,3.6-2,5.5-0.3c1.7,1.5,3.4,3.2,5,4.9c9.3,9.6,18.8,18.8,27.6,28.8
	c9.7,10.9,18.2,22.8,23.8,36.5c6.4,15.8,4,30.6-4.5,44.7s-21.6,22.7-36.7,28.6c-6.7,2.6-6.8,2.5-7.2,9.8c-0.4,7.2-0.4,7.2-7.7,7.2
	C134.5,212,133.5,212,132.5,212L132.5,212z M158.1,112.2c-1.3,0.5-1.9,0.7-2.6,1c-3.7,1.5-7.3,3.3-11.1,4.4
	c-5.6,1.7-7.3,0.2-7.4-5.6c0-3.3-0.2-6.7,0-10c0.2-3.5-2.6-3.8-4.6-3.7c-2.1,0-4.7,0.4-4.5,3.9c0.3,3.6,0.2,7.3,0,11
	c-0.3,4.3-1.9,5.5-6.2,4.7c-1.6-0.3-3.2-0.9-4.7-1.5c-3.2-1.3-6.3-2.7-9.4-4c-0.3,0.2-0.6,0.4-0.8,0.6c0.7,1.9,1.1,4.1,2.3,5.6
	c3.2,4,6.5,7.9,10.3,11.3c4.3,3.9,9.2,7.3,7.8,14.3c-0.2,0.9,0.3,1.9,0.5,2.9c1.2,6.2-1.2,8.5-7.2,7.1c-3.2-0.8-6.4-1.6-10.4-2.6
	c2.1,3.1,3.5,5.3,5.1,7.4c3.6,4.5,7.1,9.2,11.1,13.4c3.3,3.5,8.3,3.7,11.8,0.8c6.8-5.7,10.9-13.5,15.7-20.9
	c-2.3,0.1-4.3,0.8-6.3,1.4c-9.3,2.6-11.7,0.7-10.3-8.9c0.5-3.5,1.2-7.3,3.2-10.1c1.9-2.9,5.7-4.5,8.2-7.1
	C152.6,123.3,157,119.2,158.1,112.2z"/>
<path style="fill:#147B3D;" d="M158.1,112.2c-1.1,7-5.6,11.1-9.6,15.4c-2.5,2.6-6.3,4.2-8.2,7.1c-1.9,2.8-2.7,6.7-3.2,10.1
	c-1.4,9.6,1,11.5,10.3,8.9c2-0.6,3.9-1.3,6.3-1.4c-4.9,7.4-8.9,15.2-15.7,20.9c-3.5,2.9-8.5,2.7-11.8-0.8c-4-4.2-7.5-8.9-11.1-13.4
	c-1.6-2.1-3-4.3-5.1-7.4c4,1,7.2,1.8,10.4,2.6c6,1.4,8.4-0.9,7.2-7.1c-0.2-1-0.7-2-0.5-2.9c1.4-7-3.5-10.3-7.8-14.3
	c-3.8-3.4-7.1-7.4-10.3-11.3c-1.2-1.5-1.6-3.7-2.3-5.6c0.3-0.2,0.6-0.4,0.8-0.6c3.1,1.3,6.3,2.7,9.4,4c1.5,0.6,3.1,1.2,4.7,1.5
	c4.2,0.8,5.9-0.4,6.2-4.7c0.3-3.6,0.3-7.3,0-11c-0.3-3.6,2.4-3.9,4.5-3.9s4.8,0.2,4.6,3.7c-0.2,3.3-0.1,6.7,0,10
	c0.1,5.8,1.8,7.3,7.4,5.6c3.8-1.2,7.4-2.9,11.1-4.4C156.2,112.9,156.8,112.7,158.1,112.2z"/>
</svg>
