<?xml version="1.0" encoding="utf-8"?>
<!-- Generator: Adobe Illustrator 20.0.0, SVG Export Plug-In . SVG Version: 6.00 Build 0)  -->
<svg version="1.1" id="Layer_1" xmlns="http://www.w3.org/2000/svg" xmlns:xlink="http://www.w3.org/1999/xlink" x="0px" y="0px"
	 viewBox="0 0 264.4 264.7" style="enable-background:new 0 0 264.4 264.7;" xml:space="preserve">
<path style="fill:#A6A8AB;" d="M0,136.3c0-41.4,13.4-72.8,39.1-98.4C65,12.1,96.9-0.1,133.4,0c70.5,0.3,134.5,58.9,130.8,138.6
	c-3.1,67.2-58.4,127-136,126.1c-35.6-0.4-66.4-14.7-91.1-40.5C12.5,198.4-0.3,167.6,0,136.3z M132.7,256.1
	c66.9,0.8,123.9-54,124.2-123.4C257.2,62.3,200,8.9,135,7.7C65.1,6.5,8,63.4,8,132.2C8.1,200.8,65.2,257.6,132.7,256.1z"/>
<path style="fill:#5E2D88;" d="M132.7,256.1C65.2,257.6,8.1,200.8,8,132.2C8,63.4,65.1,6.5,135,7.7c65,1.2,122.2,54.6,121.9,125
	C256.6,202.1,199.6,256.9,132.7,256.1z M132,32.9c-53.3-1-99.3,44.3-99.1,99.3c0.2,53.8,43,99.4,99.2,99.5
	c56.3,0.1,99.6-44.5,99.9-99.3C232.3,76,185.2,31.4,132,32.9z"/>
<path style="fill:#A6A8AB;" d="M132,32.9c53.2-1.4,100.3,43.2,100,99.5c-0.3,54.8-43.6,99.4-99.9,99.3c-56.2-0.1-99-45.7-99.2-99.5
	C32.8,77.2,78.7,31.8,132,32.9z M41,131.8c-1,48.5,38.9,92.1,91.6,92.1c50.1,0,90.6-40.7,91.5-90c0.9-51-39.2-93.3-91.4-93.5
	C80.8,40.1,40.6,82.3,41,131.8z"/>
<path style="fill:#5E2D89;" d="M41,131.8c-0.4-49.5,39.7-91.7,91.7-91.5c52.2,0.2,92.2,42.5,91.4,93.5c-0.8,49.2-41.4,90-91.5,90
	C79.9,223.8,40,180.3,41,131.8z M132.2,220.1c48.8,0.4,88.6-38.7,88.4-88.2c-0.2-51-41.6-87.9-88-87.9c-48.8-0.1-87.5,39-88.4,86.4
	C43.2,181.2,85.1,220.8,132.2,220.1z"/>
<path style="fill:#A6A8AB;" d="M132.2,220.1c-47.1,0.7-89-38.9-88-89.8c0.9-47.4,39.6-86.5,88.4-86.4c46.3,0.1,87.8,36.9,88,87.9
	C220.8,181.4,181.1,220.5,132.2,220.1z M217.3,132c0.5-46.1-37.3-84.6-83.9-84.9c-46.8-0.4-86,36.5-86,85c0,48.3,39.3,85.1,85.6,85
	C178.9,216.9,218.1,178.2,217.3,132z"/>
<path style="fill:#5E2D88;" d="M217.3,132c0.8,46.2-38.3,84.9-84.3,85.1c-46.3,0.1-85.5-36.6-85.6-85c0-48.6,39.2-85.4,86-85
	C180,47.5,217.7,85.9,217.3,132z M132.3,143.9c24.8,0.4,43.6-19.1,43.6-43c0-24.8-18.5-43.7-43.7-43.6
	c-24.1,0.1-42.6,19.1-43.1,43.2C88.6,124.5,110.3,145.1,132.3,143.9z M182.1,175.1c1.1-13.5-11.9-25.1-24.6-25.3
	c-13.7-0.2-25.5,12-25.5,25.1c0,13.5,12.1,25.1,24.8,25.3C170.4,200.3,183.1,188.3,182.1,175.1z M109.3,178.1
	c0.7-8.3-7-12.9-12.7-13c-7,0-13.6,6.7-13.2,13.5c0.5,8.2,6.7,12.6,13.4,12.4C104.5,190.9,109.3,186,109.3,178.1z"/>
<path style="fill:#9A69D9;" d="M132.3,143.9c-21.9,1.2-43.7-19.5-43.2-43.4c0.5-24.1,18.9-43.1,43.1-43.2
	c25.2-0.1,43.7,18.9,43.7,43.6C175.9,124.9,157,144.3,132.3,143.9z M140.6,80.9c-7.8,0-13.6,5.9-13.5,13.5
	c0.1,6.9,6.6,13.5,13.4,13.6c7.2,0.1,13.8-6.8,13.7-14.3C154.1,86.4,148.2,80.9,140.6,80.9z"/>
<path style="fill:#9A69D9;" d="M182.1,175.1c1,13.2-11.7,25.2-25.3,25.1c-12.8-0.2-24.9-11.8-24.8-25.3c0-13,11.8-25.2,25.5-25.1
	C170.3,149.9,183.2,161.6,182.1,175.1z"/>
<path style="fill:#9A68D9;" d="M109.3,178.1c0.1,7.9-4.7,12.8-12.5,13c-6.8,0.1-12.9-4.2-13.4-12.4c-0.4-6.9,6.2-13.6,13.2-13.5
	C102.3,165.1,110,169.8,109.3,178.1z"/>
<path style="fill:#5E2D88;" d="M140.6,80.9c7.6,0,13.5,5.5,13.7,12.8c0.1,7.5-6.5,14.4-13.7,14.3c-6.9-0.1-13.3-6.7-13.4-13.6
	C127,86.7,132.8,80.9,140.6,80.9z"/>
</svg>
