<?xml version="1.0" encoding="utf-8"?>
<!-- Generator: Adobe Illustrator 20.0.0, SVG Export Plug-In . SVG Version: 6.00 Build 0)  -->
<svg version="1.1" id="Layer_1" xmlns="http://www.w3.org/2000/svg" xmlns:xlink="http://www.w3.org/1999/xlink" x="0px" y="0px"
	 viewBox="0 0 265.2 265" style="enable-background:new 0 0 265.2 265;" xml:space="preserve">
<path style="fill:#A6A8AB;" d="M264.2,145.1c-1.4,7-2.4,14-4.1,20.8c-4.6,17.5-12.6,33.3-23.8,47.6c-13.3,16.9-29.6,29.7-48.9,38.8
	c-11.9,5.6-24.4,8.9-37.4,10.7c-5.5,0.7-11.1,1.8-16.6,1.9c-5.4,0.2-11,0-16.3-1c-8.8-1.6-17.8-3.3-26.2-6.1
	c-17.5-5.8-33-14.8-46.8-27.2c-13.6-12.3-24.2-26.5-32-43C7.3,177.5,4.2,166.9,2,155.8c-2.4-12.2-2.4-24.5-1.6-36.6
	c0.9-14.3,4.8-28.1,11-41.2c4.5-9.4,9.5-18.5,15.9-26.8C38.5,36.7,52,25,68,16.2C81.6,8.7,96,3.6,111.3,1.4c12-1.7,24-1.8,36.2-0.5
	c16.6,1.8,32,6.5,46.7,14.3C209,23,222,33.4,233,46.3c15.9,18.7,25.5,40.1,30,64c0.6,2.9,0.8,5.9,1.3,8.8
	C264.2,127.8,264.2,136.4,264.2,145.1z M256.3,131.8C257.5,64.5,201,9.4,136.1,7.8C65.8,6.2,8.5,62.6,8.4,131.3
	c-0.1,69.9,56,124.1,122.9,124.8C201.5,256.8,257.8,198.5,256.3,131.8z"/>
<path style="fill:#FDFDFD;" d="M264.2,145.1c0-8.7,0-17.3,0-26c0.3,0.7,0.9,1.4,0.9,2.1c0.1,7.2,0.1,14.5,0,21.7
	C265.1,143.7,264.6,144.4,264.2,145.1z"/>
<path style="fill:#A7702D;" d="M256.3,131.8c1.5,66.7-54.9,125-125.1,124.3c-66.9-0.7-123-54.9-122.9-124.8
	C8.5,62.6,65.8,6.2,136.1,7.8C201,9.4,257.5,64.5,256.3,131.8z M232.2,132.2c0.6-54.1-43.5-99.9-99.6-100
	C77.3,32,33.8,77.8,32.9,129.7c-1,55.6,43.4,102.1,99.7,102C189.3,231.7,232.5,185.6,232.2,132.2z"/>
<path style="fill:#A6A8AB;" d="M232.2,132.2c0.3,53.4-42.9,99.5-99.6,99.6c-56.3,0.1-100.7-46.4-99.7-102
	c0.9-51.9,44.5-97.7,99.7-97.6C188.7,32.3,232.8,78.1,232.2,132.2z M131.9,223.2c49.6,1.1,91.8-39.7,92.2-90.4
	c0.3-50.4-39.3-92.3-91.4-92.4c-51.2-0.1-91,40.8-91.6,90.6C40.4,182.2,83.2,223.9,131.9,223.2z"/>
<path style="fill:#A7702D;" d="M131.9,223.2c-48.7,0.7-91.5-41-90.9-92.2c0.7-49.8,40.4-90.7,91.6-90.6c52.1,0.1,91.7,42,91.4,92.4
	C223.7,183.5,181.5,224.3,131.9,223.2z M132.5,220.2c48.6,0.4,88.4-38.9,88.5-87.8c0-49.7-38.5-88.6-88.1-88.9
	c-50.3-0.3-88.5,40.1-88.7,88.2C43.9,180.5,83.9,220.6,132.5,220.2z"/>
<path style="fill:#A6A8AB;" d="M132.5,220.2c-48.7,0.4-88.6-39.7-88.3-88.5c0.2-48.1,38.5-88.5,88.7-88.2
	c49.6,0.3,88.1,39.2,88.1,88.9C220.9,181.3,181.1,220.6,132.5,220.2z M48,131.9c-1.2,44.8,35.9,85.1,84.8,84.9
	c48.2-0.1,84.2-39.2,84.6-84.3c0.4-46.8-37.9-85-84-85.5C84.9,46.5,46.6,87.4,48,131.9z"/>
<path style="fill:#A7702D;" d="M48,131.9C46.6,87.4,84.9,46.5,133.4,47c46.1,0.5,84.4,38.6,84,85.5c-0.4,45.1-36.4,84.2-84.6,84.3
	C83.9,217,46.8,176.7,48,131.9z M174.7,197.4c6-10.3,11.5-19.7,17-29.2c4.1-7,8.1-14.1,12.1-21.2c0.9-1.6,0.9-2.7-0.4-4.3
	c-8.6-10.5-17.3-21-25.5-31.8c-2.2-3-3.5-2.4-5.8-0.8c-11.9,8.4-24.1,16.5-35.8,25.1c-3.1,2.3-4.8,1.9-7.5-0.1
	c-11.9-8.5-24-16.7-35.9-25.1c-2.3-1.7-3.7-1.7-5.6,0.8c-7.6,9.8-15.5,19.5-23.4,29.1c-4.2,5.1-4.3,5.8-1,11.2
	c4.6,7.7,9,15.5,13.5,23.2c4.3,7.4,8.7,14.9,13.2,22.6c1.2-1.1,2.2-1.8,3-2.8c5.2-6.2,10.4-12.5,15.5-18.8
	c7.5-9.3,15-18.5,22.5-27.9c1.3-1.7,2.3-1.4,3.5,0.1c9.2,11.5,18.5,23,27.8,34.4C165.9,187.1,170.1,192,174.7,197.4z M132.3,53.9
	c-0.7,1-1.1,1.8-1.6,2.4c-9.7,12.4-19.5,24.7-29.2,37c-2.6,3.2-2.7,3.4,0.6,5.6c9.1,6.3,18.3,12.5,27.4,19c2.4,1.7,4.1,1.8,6.6,0
	c7.8-5.6,15.7-11,23.6-16.6c2.1-1.5,5.2-2.9,5.8-5c0.5-1.4-2.4-3.9-4-5.9C151.9,78.5,142.3,66.5,132.3,53.9z"/>
<path style="fill:#6E491F;" d="M174.7,197.4c-4.6-5.4-8.8-10.3-12.9-15.3c-9.3-11.4-18.6-22.9-27.8-34.4c-1.2-1.5-2.2-1.8-3.5-0.1
	c-7.5,9.3-14.9,18.6-22.5,27.9c-5.1,6.3-10.3,12.6-15.5,18.8c-0.8,1-1.9,1.7-3,2.8c-4.5-7.7-8.8-15.1-13.2-22.6
	c-4.5-7.7-8.9-15.5-13.5-23.2c-3.2-5.4-3.1-6.2,1-11.2c7.9-9.6,15.7-19.2,23.4-29.1c2-2.5,3.3-2.4,5.6-0.8
	c11.9,8.4,24,16.6,35.9,25.1c2.7,1.9,4.5,2.4,7.5,0.1c11.7-8.6,23.9-16.7,35.8-25.1c2.3-1.7,3.6-2.2,5.8,0.8
	c8.2,10.8,16.9,21.3,25.5,31.8c1.3,1.6,1.4,2.7,0.4,4.3c-4.1,7-8.1,14.1-12.1,21.2C186.2,177.7,180.6,187.1,174.7,197.4z"/>
<path style="fill:#6E491F;" d="M132.3,53.9c10.1,12.6,19.6,24.7,29.2,36.7c1.5,1.9,4.4,4.5,4,5.9c-0.7,2.1-3.7,3.4-5.8,5
	c-7.9,5.5-15.8,10.9-23.6,16.6c-2.4,1.8-4.1,1.7-6.6,0c-9-6.4-18.3-12.6-27.4-19c-3.2-2.2-3.1-2.4-0.6-5.6
	c9.8-12.3,19.5-24.7,29.2-37C131.2,55.7,131.6,54.9,132.3,53.9z"/>
</svg>
