<?xml version="1.0" encoding="utf-8"?>
<!-- Generator: Adobe Illustrator 20.0.0, SVG Export Plug-In . SVG Version: 6.00 Build 0)  -->
<svg version="1.1" id="Layer_1" xmlns="http://www.w3.org/2000/svg" xmlns:xlink="http://www.w3.org/1999/xlink" x="0px" y="0px"
	 viewBox="0 0 265.2 264.9" style="enable-background:new 0 0 265.2 264.9;" xml:space="preserve">
<path style="fill:#A6A8AB;" d="M146.1,0.6c9.3,2.1,18.8,3.6,27.9,6.4c15.9,4.8,29.8,13.2,42.6,23.7c20.1,16.4,33.7,37.2,41.6,61.6
	c2.5,7.6,3.3,15.7,5,23.6c0.3,1.3,0.7,2.5,1,3.8c0,8.3,0,16.6,0,25c-1.7,8.1-3,16.2-5,24.2c-3.8,15.1-11.1,28.7-20.1,41.3
	c-11,15.3-24.9,27.5-41.1,37c-13.2,7.7-27.6,12.5-42.7,15.6c-11.5,2.4-23.1,2.6-34.6,1.8c-12.8-0.9-25.2-4-37.2-8.8
	c-14.8-6-28.4-14.1-40-25.2c-8.5-8.1-16.6-16.6-22.9-26.7c-9-14.8-15.2-30.5-18.6-47.5c-2.5-12.6-2.2-25.2-1.5-37.6
	c0.7-13,4.4-25.7,9.7-37.9c4.3-10.1,9.5-19.6,16.3-28.2c14.4-18.4,31.8-33,53.7-41.9c10.9-4.5,22-7.8,33.8-9c1.5-0.2,2.9-0.6,4.3-1
	C127.5,0.7,136.8,0.6,146.1,0.6z M256.4,132.6C257.2,66.8,204.1,8,132.3,8.1C61.9,8.2,8.2,64.8,8.3,132.4
	c0.1,68,54.2,123.8,123.8,124C203.6,256.6,256.9,198.2,256.4,132.6z"/>
<path style="fill:#FDFDFD;" d="M146.1,0.6c-9.3,0-18.6,0-27.9,0.1c0.2-0.2,0.5-0.6,0.7-0.6c8.8,0,17.7-0.1,26.5,0
	C145.6,0,145.9,0.4,146.1,0.6z"/>
<path style="fill:#FDFDFD;" d="M264.2,144.7c0-8.3,0-16.6,0-25c0.3,0.9,0.9,1.7,0.9,2.6c0.1,6.6,0.1,13.1,0,19.7
	C265.1,143,264.5,143.8,264.2,144.7z"/>
<path style="fill:#AA1F24;" d="M256.4,132.6c0.5,65.7-52.8,124-124.3,123.8c-69.6-0.2-123.7-56-123.8-124
	C8.2,64.8,61.9,8.2,132.3,8.1C204.1,8,257.2,66.8,256.4,132.6z M132.1,231.9c53.9,0.8,99.4-43.6,100.1-98.2
	c0.7-56.4-45.4-101.2-99.7-101.2c-51.9,0-99.6,40.9-99.8,99.6C32.5,190.2,79.9,232.3,132.1,231.9z"/>
<path style="fill:#A6A8AB;" d="M132.1,231.9c-52.2,0.4-99.6-41.7-99.4-99.8c0.2-58.7,47.8-99.5,99.8-99.6
	c54.3,0,100.5,44.8,99.7,101.2C231.5,188.2,186.1,232.7,132.1,231.9z M41.1,132.1c-0.5,49.3,39.8,91,90.2,91.6
	c50.6,0.7,92.3-39.9,92.7-90.6c0.4-50.9-40.7-92.3-91-92.4C81,40.6,40.6,83.4,41.1,132.1z"/>
<path style="fill:#AA1F24;" d="M41.1,132.1C40.6,83.4,81,40.6,133,40.7c50.2,0.1,91.4,41.5,91,92.4c-0.4,50.7-42.1,91.3-92.7,90.6
	C80.9,223.1,40.5,181.4,41.1,132.1z M44.2,132.2c-0.3,47.9,38.3,87.5,86.5,88.4c48.5,0.9,90.2-37.1,90.2-88.3
	c0-51.1-40.8-88.1-87.6-88.4C82.8,43.5,43.8,84.4,44.2,132.2z"/>
<path style="fill:#A6A8AB;" d="M44.2,132.2c-0.4-47.8,38.6-88.7,89.1-88.3c46.7,0.3,87.6,37.4,87.6,88.4c0,51.2-41.7,89.3-90.2,88.3
	C82.5,219.7,43.8,180.1,44.2,132.2z M132.7,47.5C87.8,47,47.4,82.8,47.6,132.4c0.2,50.9,41.7,84.5,84.4,84.7
	c46.5,0.3,85-37.7,85.4-84.3C217.7,85.7,178.9,47.1,132.7,47.5z"/>
<path style="fill:#AA1F24;" d="M132.7,47.5c46.3-0.3,85,38.2,84.7,85.4c-0.3,46.5-38.9,84.5-85.4,84.3
	c-42.7-0.2-84.2-33.8-84.4-84.7C47.4,82.8,87.8,47,132.7,47.5z M202.4,131.6c-3.2,3.4-6,6.4-8.9,9.3c-0.8,0.8-2.2,1.1-3.4,1.6
	c-0.3-1-0.8-2-1-3.1c-2.1-13.5-4.6-26.8-10.1-39.4c-6.4-14.5-15.6-26.7-30.2-33.9c-12.4-6.1-25.7-6-39-5c-0.4,0-0.8,0.5-1.5,1
	c1,0.6,1.8,1.1,2.6,1.5c8.5,3.4,10.4,9.4,5.3,16.8c-0.8,1.1-1.6,2.1-2.4,3.1c-5.2,6-10.6,11.9-15.6,18.2c-2.1,2.6-3,2-4-0.5
	c-1.7-4.1-3.3-8.1-5-12.3C84,91,80.4,94.5,79.1,99.5c-1.4,5.4-2.6,11-3,16.5c-0.5,8.4-0.1,16.8-0.1,24.8c-3.3-0.3-7.1-0.7-10.9-1
	c-3-0.2-4.3,1.3-4,4.2c0.3,3.5,0.3,7,1,10.4c4.3,20.7,14.8,36.8,34.9,45.3c6.5,2.8,13.3,4.4,21.1,4c-1-1.6-1.5-2.7-2.2-3.6
	c-4.3-5-7.7-10.4-9.9-16.6c-4-11.2-3-21.4,5.2-30.5c1.4-1.5,2.5-3.7,2.7-5.6c0.7-7,1-14.1,1.4-21.3c6.1,1.7,8.3,8.5,13.5,13.2
	c0.1-2.7,0-4.3,0.3-5.9c1.1-5.3,2.1-10.7,3.7-15.9c1-3.4,2.4-3.5,4-0.4c2.1,4.1,3.7,8.5,5.1,12.9c1,3,1.2,6.3,1.7,9.4
	c1.8-1.6,2.4-3.4,3.4-5c1.5-2.3,3.1-4.6,5-6.6c1.1-1.2,2.8-1.4,3,1.2c0.3,3.8,0.8,7.6,0.8,11.4c0,3,0.8,4.9,3.6,6.4
	c5.2,2.8,8.4,7.3,10.2,13c2.2,7,1.9,14.1,0.7,21.2c-0.8,4.8-2.2,9.5-3.4,14.7C186.6,187.2,209.5,161.2,202.4,131.6z M113.1,178.7
	c-1.4,13.5,11.6,24.4,23.6,24.2s23.8-8.3,24.1-23.5c0.3-15.1-11.1-24.5-23.9-24.6C123,154.6,111.8,166.5,113.1,178.7z"/>
<path style="fill:#FC4B5A;" d="M202.4,131.6c7.1,29.7-15.8,55.7-35.3,64c1.2-5.1,2.6-9.8,3.4-14.7c1.2-7.1,1.5-14.2-0.7-21.2
	c-1.8-5.7-5-10.2-10.2-13c-2.7-1.5-3.6-3.4-3.6-6.4c0-3.8-0.6-7.6-0.8-11.4c-0.2-2.6-1.8-2.3-3-1.2c-1.9,2-3.5,4.3-5,6.6
	c-1,1.6-1.7,3.5-3.4,5c-0.5-3.2-0.7-6.4-1.7-9.4c-1.4-4.4-3-8.8-5.1-12.9c-1.6-3.1-3-3-4,0.4c-1.6,5.2-2.6,10.6-3.7,15.9
	c-0.3,1.6-0.2,3.2-0.3,5.9c-5.2-4.8-7.4-11.6-13.5-13.2c-0.4,7.2-0.7,14.3-1.4,21.3c-0.2,2-1.4,4.1-2.7,5.6
	c-8.3,9.1-9.2,19.4-5.2,30.5c2.2,6.2,5.6,11.6,9.9,16.6c0.7,0.8,1.2,1.9,2.2,3.6c-7.8,0.3-14.6-1.3-21.1-4
	c-20.1-8.5-30.6-24.6-34.9-45.3c-0.7-3.4-0.7-6.9-1-10.4c-0.3-2.9,1-4.5,4-4.2c3.8,0.3,7.6,0.7,10.9,1c0-8-0.4-16.4,0.1-24.8
	c0.3-5.6,1.5-11.1,3-16.5c1.3-5.1,4.9-8.5,10.1-10.6c1.7,4.2,3.3,8.3,5,12.3c1,2.4,1.9,3.1,4,0.5c5-6.2,10.4-12.1,15.6-18.2
	c0.9-1,1.7-2.1,2.4-3.1c5.1-7.4,3.2-13.4-5.3-16.8c-0.9-0.3-1.6-0.9-2.6-1.5c0.7-0.5,1.1-1,1.5-1c13.4-1,26.6-1.1,39,5
	c14.6,7.2,23.8,19.4,30.2,33.9c5.5,12.5,8,25.9,10.1,39.4c0.2,1.1,0.7,2.1,1,3.1c1.1-0.5,2.5-0.8,3.4-1.6
	C196.4,138,199.2,134.9,202.4,131.6z"/>
<path style="fill:#FC4B5A;" d="M113.1,178.7c-1.3-12.2,9.9-24,23.8-23.9c12.8,0.1,24.3,9.5,23.9,24.6c-0.3,15.2-12.1,23.3-24.1,23.5
	C124.7,203,111.6,192.2,113.1,178.7z"/>
</svg>
