<?xml version="1.0" encoding="utf-8"?>
<!-- Generator: Adobe Illustrator 20.0.0, SVG Export Plug-In . SVG Version: 6.00 Build 0)  -->
<svg version="1.1" id="Layer_1" xmlns="http://www.w3.org/2000/svg" xmlns:xlink="http://www.w3.org/1999/xlink" x="0px" y="0px"
	 viewBox="0 0 265.2 264.2" style="enable-background:new 0 0 265.2 264.2;" xml:space="preserve">
<path style="fill:#A6A8AB;" d="M147.2,0c6.4,1.3,12.9,2.4,19.3,4.1C184.7,8.7,201,17,215.6,29c14.7,12,26.5,26.4,35,43.3
	c6.5,12.9,11.1,26.5,12.6,41c0.2,1.6,0.7,3.2,1,4.8c0,9,0,18,0,27c-1.7,11.1-3.9,22.1-7.9,32.7c-5,13.3-11.9,25.4-20.8,36.5
	c-10,12.4-21.8,22.9-35.3,31c-10.9,6.6-22.7,11.4-35.1,14.7c-14.4,3.9-29,4.9-43.7,3.9c-12.3-0.8-24.3-3.8-35.8-8.2
	c-12.7-4.9-24.5-11.5-35.1-20c-13.8-11.1-25.1-24.4-33.9-39.8c-7.7-13.5-12.7-27.9-15-43c-1.7-11.1-2-22.6-1.1-33.7
	c1.2-14.9,5.3-29.2,11.7-43c8-17.3,19.2-32.1,33.3-44.6c18.4-16.4,40.2-26,64.4-30.4c2.8-0.5,5.6-0.8,8.3-1.2
	C127.9,0,137.6,0,147.2,0z M8.2,131.5C7.8,199.4,63.8,255.8,132,256.1c68.8,0.3,125.3-55.6,125.2-124.7
	C257,62.4,200.8,7.1,132.6,7.1C63.5,7.1,7.9,64,8.2,131.5z"/>
<path style="fill:#FDFDFD;" d="M147.2,0c-9.7,0-19.3,0-29,0C127.9,0,137.6,0,147.2,0z"/>
<path style="fill:#FDFDFD;" d="M264.3,145c0-9,0-18,0-27c0.3,0.5,0.9,1.1,0.9,1.6c0.1,7.9,0.1,15.8,0,23.7
	C265.2,143.9,264.6,144.5,264.3,145z"/>
<path style="fill:#33336B;" d="M8.2,131.5C7.9,64,63.5,7.1,132.6,7.1c68.1,0,124.4,55.3,124.5,124.3s-56.3,125-125.2,124.7
	C63.8,255.8,7.8,199.4,8.2,131.5z M132.5,231.1c54.7-0.2,99.7-43.5,99.6-99.6c0-55.7-44.5-99.3-99.2-99.4
	C77.1,32,33.7,76.9,33.2,130.6C32.7,186.3,77.7,230.9,132.5,231.1z"/>
<path style="fill:#A6A8AB;" d="M132.5,231.1c-54.8-0.2-99.8-44.8-99.3-100.5c0.5-53.7,43.9-98.6,99.7-98.5
	c54.8,0.1,99.2,43.7,99.2,99.4C232.1,187.5,187.2,230.9,132.5,231.1z M41.1,131.7c-1.3,48.8,40.7,90.7,89.5,91.7
	c51.1,1.1,93.9-41.7,93.9-91.7c0-50.2-42.3-91.8-91.6-92C82.8,39.5,39.6,82.2,41.1,131.7z"/>
<path style="fill:#33336B;" d="M41.1,131.7c-1.5-49.5,41.7-92.1,91.8-92c49.3,0.2,91.6,41.7,91.6,92c0,50-42.8,92.8-93.9,91.7
	C81.8,222.4,39.8,180.5,41.1,131.7z M132.8,43.9c-45.7-1.3-88.3,35.9-88.2,87.7c0,52.1,42.6,87,86.3,87.9
	c49.2,1,89.6-39.9,89.8-87.5C220.9,83.3,180,42.6,132.8,43.9z"/>
<path style="fill:#A6A8AB;" d="M132.8,43.9c47.2-1.3,88,39.4,87.9,88.2c-0.2,47.5-40.6,88.5-89.8,87.5
	c-43.7-0.9-86.3-35.8-86.3-87.9C44.5,79.8,87.1,42.6,132.8,43.9z M217.4,131.4c0.9-44.4-35.2-85.1-84.7-84.9
	c-48.9,0.1-85.2,38.1-85.1,85.3c0.1,46.7,36.1,84.7,85,84.9C181.7,216.9,218.5,176.4,217.4,131.4z"/>
<path style="fill:#33336B;" d="M217.4,131.4c1.1,45-35.7,85.6-84.9,85.3c-48.9-0.3-84.9-38.2-85-84.9c-0.1-47.2,36.3-85.1,85.1-85.3
	C182.2,46.3,218.3,87,217.4,131.4z M107.6,197.5c0,0.4-0.1,0.9-0.1,1.3c1.7,0.4,3.4,1,5.1,1.1c9.9,0.9,19.8,1.8,29.8,0.1
	c8.8-1.5,16.7-4.3,21.8-12.4c2.4-3.8,2.6-7.6-0.1-11.1c-1.8-2.4-3.9-4.5-6.1-6.5c-2.1-1.9-4.6-3.3-6.8-5c-2.4-1.9-2.4-2.8,0.4-4.2
	c3.4-1.6,7-3.1,10.6-4.3c8.4-2.8,15.6-7,21.2-14.1c7.8-10.1,11.8-21.7,11.5-34.3c-0.2-12.7-7.2-22.8-16.8-30.5
	c-16.3-13-35.1-17.4-55.7-14.8c-17.2,2.2-31.6,9.6-42.6,23.1c-5.3,6.5-9.7,13.8-9.4,22.5c0.4,11.6,5.6,21,14.6,28.3
	c4,3.2,8.4,6,12.5,9.1c3.4,2.5,3.4,3.6,0.7,6.8c-1.2,1.4-2.4,2.8-3.3,4.4c-4,7.3-2.8,11.9,3.2,15.8c1.9,1.3,3.9,2.5,6,3.5
	c6.2,2.9,12.5,5.5,18.6,8.5c2.2,1.1,6.1,1.9,5.2,5c-0.5,1.8-3.9,3.2-6.3,4C117,195.4,112.3,196.3,107.6,197.5z"/>
<path style="fill:#8F6790;" d="M107.6,197.5c4.6-1.1,9.4-2.1,13.9-3.5c2.4-0.8,5.8-2.2,6.3-4c0.9-3.1-3-3.9-5.2-5
	c-6.1-3.1-12.4-5.6-18.6-8.5c-2.1-1-4.1-2.2-6-3.5c-6-4-7.2-8.6-3.2-15.8c0.9-1.6,2.1-3,3.3-4.4c2.7-3.2,2.6-4.3-0.7-6.8
	c-4.1-3.1-8.5-5.8-12.5-9.1c-9-7.3-14.2-16.7-14.6-28.3c-0.3-8.7,4.1-16,9.4-22.5c11-13.5,25.4-20.9,42.6-23.1
	c20.6-2.6,39.4,1.8,55.7,14.8c9.6,7.7,16.6,17.7,16.8,30.5c0.2,12.5-3.7,24.1-11.5,34.3c-5.5,7.1-12.8,11.3-21.2,14.1
	c-3.6,1.2-7.2,2.6-10.6,4.3c-2.9,1.4-2.9,2.3-0.4,4.2c2.2,1.7,4.7,3.1,6.8,5c2.2,2,4.3,4.1,6.1,6.5c2.7,3.6,2.4,7.3,0.1,11.1
	c-5,8.1-13,10.9-21.8,12.4c-9.9,1.7-19.9,0.9-29.8-0.1c-1.7-0.2-3.4-0.7-5.1-1.1C107.6,198.4,107.6,197.9,107.6,197.5z"/>
</svg>
