<?xml version="1.0" encoding="utf-8"?>
<!-- Generator: Adobe Illustrator 20.0.0, SVG Export Plug-In . SVG Version: 6.00 Build 0)  -->
<svg version="1.1" id="Layer_1" xmlns="http://www.w3.org/2000/svg" xmlns:xlink="http://www.w3.org/1999/xlink" x="0px" y="0px"
	 viewBox="0 0 264.8 264.6" style="enable-background:new 0 0 264.8 264.6;" xml:space="preserve">
<path style="fill:#A6A8AB;" d="M145.6,263.9c-38.2,3.6-71.7-7.3-100.4-32.4c-25.5-22.3-40.6-50.6-44.3-84.3
	c-4.5-40.7,7.6-76.3,35.4-106.1C62.5,13.1,95.6-0.3,133.7,0c72.7,0.6,130.8,59,131.1,132.1"/>
<path style="fill:#A6A8AB;" d="M264.8,132.2c-0.3,72.7-57.7,126-119.2,131.8"/>
<path style="fill:#A6A8AB;" d="M257.3,132.1C257.3,58.6,196.6,6.8,133,7.8C67.8,6.6,8.1,60.1,8.2,132.3
	C8.4,201.5,63.3,256,131.8,256.5C201.4,257,257.3,201.9,257.3,132.1"/>
<path style="fill:#1C4B27;" d="M257.3,132.1c0,69.7-55.9,124.8-125.4,124.4C63.3,256,8.4,201.5,8.2,132.3C8.1,60.1,67.8,6.6,133,7.8
	C196.6,6.8,257.3,58.6,257.3,132.1"/>
<path style="fill:#1C4B27;" d="M132.7,231.1c53.3,1.4,99.4-44,99.5-98.9c0.1-54.7-44.8-98.6-97.6-99.6c-56.5-1-101,46.1-101.3,98.9
	C33.1,186.3,79.5,232.6,132.7,231.1z"/>
<path style="fill:#A6A8AB;" d="M132.7,231.1c-53.2,1.5-99.6-44.8-99.4-99.5c0.2-52.8,44.8-99.9,101.3-98.9
	c52.7,1,97.6,44.9,97.6,99.6C232.1,187.1,186,232.5,132.7,231.1z M132.4,223.9c49.5,0.2,91.9-39.6,92.2-91.3c0.2-51-40-92.5-92-92.4
	C80.7,40.3,42,81.5,40.9,129.9C39.8,182.4,82.2,223.8,132.4,223.9z"/>
<path style="fill:#1C4B27;" d="M132.4,223.9c-50.2-0.1-92.6-41.5-91.5-93.9c1.1-48.5,39.8-89.7,91.6-89.8c52-0.1,92.3,41.5,92,92.4
	C224.4,184.2,181.9,224.1,132.4,223.9z M132.6,220c47.3,0.6,88-38,88.2-87.5c0.2-48.8-38.6-88.3-87.9-88.5
	c-50.1-0.1-88.3,40.5-88.2,88.1C44.7,181,84.9,220.3,132.6,220z"/>
<path style="fill:#A6A8AB;" d="M132.6,220c-47.6,0.4-87.8-38.9-87.9-87.9c0-47.6,38.2-88.2,88.2-88.1c49.2,0.1,88.1,39.7,87.9,88.5
	C220.6,182,179.9,220.5,132.6,220z M132.8,216.9c45.8,0.8,84.2-37.3,85.1-83.1c0.9-48-37.9-86.6-84.6-86.8
	c-48.1-0.2-85.4,39.4-85.6,84.8C47.5,178.1,86.3,217.8,132.8,216.9z"/>
<path style="fill:#1C4B27;" d="M132.8,216.9c-46.5,0.9-85.3-38.8-85.1-85.1c0.2-45.4,37.5-85,85.6-84.8
	c46.7,0.2,85.4,38.8,84.6,86.8C217,179.6,178.6,217.7,132.8,216.9z M190.9,135c-0.4-7.6-0.6-14.2-1.3-20.8
	c-0.6-5.6-1.3-11.2-2.9-16.6c-2.6-8.4-10.2-10.2-16.8-4.3c-2,1.8-3.7,3.8-5.3,5.9c-6.3,8.3-13.7,15.3-23.5,19.3
	c-1.9,0.8-2.4,1.8-2.4,3.7c0,20.1,0,40.3,0.1,60.4c0,1.6,0.8,3.8,2,4.7c5.8,3.9,12.1,5.3,18.8,2.1c7.7-3.6,13.9-9.1,19.3-15.5
	c5.3-6.3,9.5-13.2,10.4-21.6C190.1,146.2,190.5,140.1,190.9,135z M126.8,152.6c0-10-0.1-20,0-30c0-2.3-0.6-3.4-2.9-4.4
	c-8.2-3.2-14.7-8.8-20.2-15.6c-2.1-2.6-4.1-5.2-6.3-7.7c-3.3-3.6-7.2-6.4-12.3-4.7c-4.8,1.6-6.3,6-7.4,10.5c-0.1,0.3,0,0.7-0.1,1
	c-0.7,6.7-1.2,13.5-2.2,20.2c-1.5,10.6-1.2,21.3,0.9,31.7c3.2,16,14.1,26.6,27.6,34.8c6.3,3.8,12.6,3,19-0.1
	c2.7-1.4,3.9-3.2,3.8-6.3C126.7,172.3,126.8,162.5,126.8,152.6z M132.8,68.4c0,0.2,0,0.4,0,0.6c-5.3,0-10.7-0.3-16,0.1
	c-4.4,0.3-8.9,0.9-13.2,2c-8,2.1-11.2,11.2-6.3,17.6c6.9,9.1,15,16.9,24.8,22.7c5.9,3.5,12.2,4.4,18.9,1
	c11.7-5.9,20.6-14.9,28.2-25.3c2.4-3.3,2.3-7.1,0-10.2c-3-4-6.9-6.7-12.1-7C149,69.4,140.9,68.9,132.8,68.4z"/>
<path style="fill:#3C9850;" d="M190.9,135c-0.4,5.1-0.8,11.3-1.4,17.3c-0.9,8.4-5.1,15.4-10.4,21.6c-5.4,6.4-11.6,11.9-19.3,15.5
	c-6.7,3.1-13,1.8-18.8-2.1c-1.2-0.8-2-3.1-2-4.7c-0.1-20.1-0.1-40.3-0.1-60.4c0-1.9,0.4-2.9,2.4-3.7c9.8-4,17.2-11,23.5-19.3
	c1.6-2.1,3.3-4.2,5.3-5.9c6.6-5.9,14.1-4.1,16.8,4.3c1.6,5.3,2.3,11,2.9,16.6C190.4,120.7,190.5,127.4,190.9,135z"/>
<path style="fill:#3C9850;" d="M126.8,152.6c0,9.8-0.1,19.6,0.1,29.5c0,3.1-1.1,4.9-3.8,6.3c-6.4,3.2-12.7,4-19,0.1
	c-13.5-8.2-24.3-18.8-27.6-34.8c-2.1-10.4-2.4-21-0.9-31.7c1-6.7,1.5-13.5,2.2-20.2c0-0.3,0-0.7,0.1-1c1.1-4.5,2.6-8.9,7.4-10.5
	c5.1-1.7,9,1.1,12.3,4.7c2.2,2.4,4.3,5.1,6.3,7.7c5.4,6.9,11.9,12.4,20.2,15.6c2.3,0.9,2.9,2.1,2.9,4.4
	C126.7,132.7,126.8,142.7,126.8,152.6z"/>
<path style="fill:#3C9850;" d="M132.8,68.4c8.1,0.5,16.2,1,24.3,1.5c5.2,0.3,9.1,3,12.1,7c2.3,3.1,2.4,6.9,0,10.2
	c-7.6,10.4-16.5,19.4-28.2,25.3c-6.7,3.4-13,2.5-18.9-1c-9.8-5.8-17.9-13.6-24.8-22.7c-4.9-6.5-1.7-15.6,6.3-17.6
	c4.3-1.1,8.8-1.7,13.2-2c5.3-0.3,10.7-0.1,16-0.1C132.8,68.8,132.8,68.6,132.8,68.4z"/>
</svg>
