<?xml version="1.0" encoding="utf-8"?>
<!-- Generator: Adobe Illustrator 20.0.0, SVG Export Plug-In . SVG Version: 6.00 Build 0)  -->
<svg version="1.1" id="Layer_1" xmlns="http://www.w3.org/2000/svg" xmlns:xlink="http://www.w3.org/1999/xlink" x="0px" y="0px"
	 viewBox="0 0 264.1 263.8" style="enable-background:new 0 0 264.1 263.8;" xml:space="preserve">
<path style="fill:#A6A8AB;" d="M132.1,0c71.3-1.3,131.9,58.1,132,131.6c0.1,72.7-57.3,130.9-131.8,132.2
	c-34.7,0.6-65.5-11.8-90.8-36c-28-26.7-41.8-59.7-41.5-98.5C0.5,58.3,60.7-1.6,132.1,0z M8,131.8C7.2,198.6,62.2,256,131.9,256
	c69.8,0,123.4-56.7,124.2-122.6c0.9-68.3-54-126-124.5-125.9C61.6,7.5,7,65.4,8,131.8z"/>
<path style="fill:#984025;" d="M8,131.8C7,65.4,61.6,7.5,131.7,7.4C202.1,7.4,257,65,256.2,133.3c-0.8,65.9-54.4,122.6-124.2,122.6
	C62.2,256,7.2,198.6,8,131.8z M231.3,131.5c1.4-51.8-42.3-99.3-98.9-99.5C77.8,31.9,33,75.5,32.2,130.1
	c-0.8,57.9,46.5,101.3,99.5,101.3C188.5,231.5,232.9,183.8,231.3,131.5z"/>
<path style="fill:#A6A8AB;" d="M231.3,131.5c1.6,52.3-42.8,99.9-99.6,99.9c-52.9,0-100.3-43.4-99.5-101.3
	C33,75.5,77.8,31.9,132.4,32C189,32.2,232.7,79.8,231.3,131.5z M132,223.2c46.9,0.3,91.2-36.8,91.5-91.3
	c0.3-52.3-41.9-91.1-90.7-91.7C82.2,39.5,40.3,81,40.3,131.5C40.2,182.6,82.1,223.6,132,223.2z"/>
<path style="fill:#984025;" d="M132,223.2c-49.9,0.4-91.8-40.6-91.7-91.7c0.1-50.5,42-92,92.6-91.4c48.7,0.6,90.9,39.4,90.7,91.7
	C223.2,186.4,178.9,223.5,132,223.2z M220.2,131.7c0.2-48.1-38.1-87.9-87.4-88.3C81.2,43,44,85.2,43.7,131.2
	c-0.3,46.7,37,88.5,87.5,88.9C181.5,220.4,220.4,179.9,220.2,131.7z"/>
<path style="fill:#A6A8AB;" d="M220.2,131.7c0.3,48.2-38.7,88.6-89,88.3c-50.5-0.4-87.7-42.2-87.5-88.9c0.3-46,37.5-88.2,89.1-87.8
	C182.1,43.8,220.4,83.6,220.2,131.7z M47.1,131.4c-0.4,45.6,35.8,85.6,85.2,85.2c49.1-0.3,84.6-38.9,84.5-84.9
	c0-47.7-37.4-85.2-85-85C80.1,47,46.8,89,47.1,131.4z"/>
<path style="fill:#984025;" d="M47.1,131.4C46.8,89,80.1,47,131.9,46.7c47.6-0.2,84.9,37.3,85,85c0,46-35.4,84.6-84.5,84.9
	C82.9,217,46.7,177,47.1,131.4z M116.8,181.2c10,0,20-0.1,30,0c2.5,0,3.5-0.8,3.5-3.4c-0.1-7-0.1-14,0-21c0.1-2.8-1-3.8-3.7-3.7
	c-6.8,0.1-13.7-0.1-20.5,0.1c-3.1,0.1-4-1-3.9-4c0.2-8.3,0-16.6,0.1-25c0-2.8-0.5-4.2-3.8-4.2c-10.3,0.2-20.6,0.1-31,0
	c-2.7,0-3.4,1-3.4,3.5c0.1,18,0.1,36,0,53.9c0,2.8,1,3.7,3.7,3.7C97.4,181.1,107.1,181.2,116.8,181.2z M184.1,150.7
	c0-8.8-0.1-17.7,0.1-26.5c0.1-2.9-0.7-4.1-3.9-4.1c-14.8,0.2-29.6,0.1-44.5,0c-2.7,0-3.9,0.6-3.8,3.6c0.2,7,0.2,14,0,21
	c-0.1,3,1.2,3.7,3.8,3.6c4.8-0.2,9.7-0.1,14.5,0c5.6,0,5.7,0.1,5.7,5.5c0,7.8,0.1,15.7-0.1,23.5c-0.1,3,0.7,4.2,3.9,4.1
	c6.7-0.2,13.3,0,20-0.1c4.2,0,4.3-0.1,4.3-4.5C184.2,168,184.1,159.3,184.1,150.7z M156.1,94.2c0-6.1-0.1-12.3,0-18.4
	c0-2.4-0.5-3.7-3.3-3.6c-4.5,0.2-9,0.1-13.4,0c-2.3-0.1-3.3,0.7-3.3,3.1c0.1,12.3,0.1,24.6,0,36.9c0,2.4,1,3.2,3.3,3.1
	c4.1-0.1,8.3-0.2,12.4,0c3.2,0.2,4.5-0.7,4.3-4.1C155.9,105.5,156.1,99.8,156.1,94.2z M184.1,93.6c0-6-0.1-12,0-18
	c0.1-2.6-0.9-3.5-3.5-3.4c-4.2,0.2-8.3,0.1-12.5,0c-2.3-0.1-3.2,0.8-3.2,3.2c0.1,12.3,0.1,24.6,0,36.9c0,2.1,0.8,3,2.9,2.9
	c4.3-0.1,8.7-0.1,13,0c2.3,0.1,3.2-0.8,3.2-3.2C184.1,105.9,184.1,99.7,184.1,93.6z M84.1,93.2c0,6.3,0,12.6,0,19
	c0,2,0.5,3.1,2.8,3.1c4.5-0.1,9-0.1,13.5,0c2.2,0,2.8-1,2.8-3c0-12.3-0.1-24.6,0-36.9c0-2.5-1.1-3.1-3.3-3.1c-4,0.1-8,0.2-12,0
	c-3.2-0.2-3.9,1.2-3.8,4.1C84.2,81.9,84.1,87.5,84.1,93.2z M113,93.4c0,6.2,0.1,12.3,0,18.5c0,2.2,0.5,3.4,3,3.3
	c4.3-0.1,8.7-0.1,13,0c2.5,0.1,3.1-1,3.1-3.3c-0.1-12.1-0.1-24.3,0-36.4c0-2.2-0.5-3.4-3-3.3c-4.3,0.1-8.7,0.1-13,0
	c-2.4-0.1-3.2,1-3.1,3.3C113.1,81.4,113,87.4,113,93.4z"/>
<path style="fill:#EE6239;" d="M116.8,181.2c-9.7,0-19.3-0.1-29,0.1c-2.8,0-3.8-0.8-3.7-3.7c0.1-18,0.1-36,0-53.9
	c0-2.5,0.7-3.5,3.4-3.5c10.3,0.1,20.6,0.2,31,0c3.3-0.1,3.8,1.4,3.8,4.2c-0.1,8.3,0.1,16.6-0.1,25c-0.1,3,0.8,4.1,3.9,4
	c6.8-0.2,13.7,0,20.5-0.1c2.8-0.1,3.8,0.8,3.7,3.7c-0.2,7-0.1,14,0,21c0,2.6-1,3.4-3.5,3.4C136.7,181.1,126.7,181.2,116.8,181.2z"/>
<path style="fill:#EE6239;" d="M184.1,150.7c0,8.7,0,17.3,0,26c0,4.5-0.1,4.5-4.3,4.5c-6.7,0-13.3-0.1-20,0.1
	c-3.2,0.1-4-1.1-3.9-4.1c0.2-7.8,0.1-15.7,0.1-23.5c0-5.4-0.1-5.5-5.7-5.5c-4.8,0-9.7-0.1-14.5,0c-2.7,0.1-3.9-0.6-3.8-3.6
	c0.2-7,0.2-14,0-21c-0.1-3,1.2-3.6,3.8-3.6c14.8,0.1,29.6,0.1,44.5,0c3.2,0,3.9,1.2,3.9,4.1C184,133,184.1,141.8,184.1,150.7z"/>
<path style="fill:#EE6239;" d="M156.1,94.2c0,5.6-0.2,11.3,0.1,16.9c0.2,3.4-1.1,4.3-4.3,4.1c-4.1-0.2-8.3-0.1-12.4,0
	c-2.3,0.1-3.3-0.7-3.3-3.1c0.1-12.3,0.1-24.6,0-36.9c0-2.4,1-3.2,3.3-3.1c4.5,0.1,9,0.2,13.4,0c2.8-0.1,3.3,1.2,3.3,3.6
	C156,81.9,156.1,88.1,156.1,94.2z"/>
<path style="fill:#EE6239;" d="M184.1,93.6c0,6.2-0.1,12.3,0,18.5c0,2.4-0.9,3.2-3.2,3.2c-4.3-0.1-8.7-0.1-13,0
	c-2.1,0-2.9-0.8-2.9-2.9c0.1-12.3,0.1-24.6,0-36.9c0-2.4,0.9-3.2,3.2-3.2c4.2,0.1,8.3,0.1,12.5,0c2.6-0.1,3.5,0.8,3.5,3.4
	C184,81.6,184.1,87.6,184.1,93.6z"/>
<path style="fill:#EE6239;" d="M84.1,93.2c0-5.7,0.1-11.3-0.1-17c-0.1-2.9,0.6-4.3,3.8-4.1c4,0.3,8,0.1,12,0
	c2.2-0.1,3.3,0.6,3.3,3.1c-0.1,12.3-0.1,24.6,0,36.9c0,2-0.6,3.1-2.8,3c-4.5-0.1-9-0.1-13.5,0c-2.3,0-2.8-1-2.8-3.1
	C84.1,105.8,84.1,99.5,84.1,93.2z"/>
<path style="fill:#EE6239;" d="M113,93.4c0-6,0.1-12,0-18c0-2.3,0.7-3.3,3.1-3.3c4.3,0.1,8.7,0.1,13,0c2.5-0.1,3,1.1,3,3.3
	c-0.1,12.1-0.1,24.3,0,36.4c0,2.3-0.7,3.3-3.1,3.3c-4.3-0.1-8.7-0.1-13,0c-2.5,0.1-3.1-1.1-3-3.3C113.1,105.7,113,99.6,113,93.4z"/>
</svg>
