<?xml version="1.0" encoding="utf-8"?>
<!-- Generator: Adobe Illustrator 20.0.0, SVG Export Plug-In . SVG Version: 6.00 Build 0)  -->
<svg version="1.1" id="Layer_1" xmlns="http://www.w3.org/2000/svg" xmlns:xlink="http://www.w3.org/1999/xlink" x="0px" y="0px"
	 viewBox="0 0 264.9 264.6" style="enable-background:new 0 0 264.9 264.6;" xml:space="preserve">
<path style="fill:#A6A8AB;" d="M264.9,132.3c-1,75.4-60.2,126.1-119.2,131.6c-37.9,3.6-71-7.2-99.6-31.6c-25.7-22-40.9-50.1-45-83.7
	c-4.9-40.1,6.5-75.5,33.4-105.5C60.7,14,94.1-0.2,133,0C206.3,0.4,264,58.1,264.9,132.3z M132.5,256.1
	c64.8,1,124.3-52.3,124.4-123.9C257.1,62.6,200.4,9,134.9,7.8C69,6.5,8.6,59.2,8.5,131.8C8.4,204.7,68.7,256.9,132.5,256.1z"/>
<path style="fill:#040707;" d="M132.5,256.1c-63.8,0.8-124.1-51.4-124-124.3C8.6,59.2,69,6.5,134.9,7.8
	c65.4,1.2,122.2,54.8,122,124.5C256.8,203.8,197.3,257.1,132.5,256.1z M132.8,32.6c-51.5-1.1-99.5,41.1-99.8,99
	c-0.3,56,44.7,99.4,98.3,100.1c56.7,0.7,101.2-45.5,101.1-99.9C232.2,75,185,31.6,132.8,32.6z"/>
<path style="fill:#A6A8AB;" d="M132.8,32.6c52.1-1,99.4,42.5,99.5,99.2c0.2,54.4-44.3,100.6-101.1,99.9
	c-53.5-0.7-98.5-44.2-98.3-100.1C33.4,73.7,81.4,31.5,132.8,32.6z M224.2,132.3c0.7-46.2-36.1-91.9-91.6-91.9
	c-53.3,0-90.7,43.1-91.5,90c-0.8,49.8,38.9,93.1,91.4,93.2C186.1,223.7,224.5,179.7,224.2,132.3z"/>
<path style="fill:#050707;" d="M224.2,132.3c0.3,47.4-38.1,91.3-91.7,91.3c-52.5,0-92.2-43.4-91.4-93.2c0.8-46.9,38.2-90,91.5-90
	C188.1,40.5,224.9,86.2,224.2,132.3z M132.5,220.2c48.6,0.1,88.4-39.1,88.5-86.9c0.1-49.9-38.8-89.3-88.1-89.5
	c-45.3-0.3-88.2,35.2-88.4,88C44.2,184.3,87.2,220.7,132.5,220.2z"/>
<path style="fill:#A6A8AB;" d="M132.5,220.2c-45.3,0.5-88.2-35.9-88-88.4C44.7,79,87.7,43.5,133,43.7c49.3,0.3,88.2,39.6,88.1,89.5
	C220.9,181.1,181.1,220.3,132.5,220.2z M47.8,131.9c-0.1,46.4,37.8,84.4,83.6,85.1c44,0.6,86.2-34.2,86.3-84.9
	c0-48.4-38.8-84.7-84.1-85C86.1,46.7,47.9,84.8,47.8,131.9z"/>
<path style="fill:#040707;" d="M47.8,131.9c0.1-47.2,38.3-85.2,85.7-84.9c45.3,0.3,84.2,36.6,84.1,85c0,50.7-42.2,85.6-86.3,84.9
	C85.6,216.3,47.7,178.3,47.8,131.9z M85.3,66.1c-0.9,0.4-1.3,0.5-1.5,0.7c-0.4,0.3-0.8,0.6-1.2,0.9c-12.4,10.6-17.3,25-19.3,40.4
	c-3.1,23,6.9,41.2,23.2,56.1c7,6.4,15.4,11.5,23.6,16.5c10.4,6.4,17.7,14.5,19,27c0.2,2.2,1.2,2.8,3.2,2.9c3.4,0.2,4.2-0.4,4.7-4.7
	c1-8.4,4.9-15.1,11.6-20.1c4.8-3.5,9.9-6.7,15-9.8c13.3-8,23.8-18.6,31.7-31.8c9.2-15.5,9.2-32.2,4.3-49.1
	c-2.9-10-7.4-19.3-15.2-26.5c-0.9-0.8-2.2-1.1-3.4-1.7c-0.3,1.2-0.7,2.4-0.8,3.6c-0.5,5.6-0.5,11.3-1.5,16.8
	c-5.2,27.1-33.6,40.5-55.6,35.2c-10.5-2.5-20-7.2-26.9-16c-8.6-11-11.4-23.7-10.2-37.4C85.8,68.5,85.5,67.5,85.3,66.1z"/>
<path style="fill:#595978;" d="M85.3,66.1c0.2,1.4,0.6,2.3,0.5,3.3c-1.1,13.7,1.6,26.4,10.2,37.4c6.9,8.8,16.4,13.4,26.9,16
	c22,5.3,50.4-8.2,55.6-35.2c1.1-5.5,1-11.2,1.5-16.8c0.1-1.2,0.5-2.4,0.8-3.6c1.1,0.5,2.5,0.9,3.4,1.7c7.9,7.2,12.3,16.5,15.2,26.5
	c4.9,16.9,4.9,33.5-4.3,49.1c-7.8,13.2-18.4,23.9-31.7,31.8c-5.1,3.1-10.2,6.2-15,9.8c-6.7,4.9-10.6,11.7-11.6,20.1
	c-0.5,4.4-1.3,4.9-4.7,4.7c-2-0.1-2.9-0.7-3.2-2.9c-1.3-12.5-8.6-20.6-19-27c-8.2-5-16.5-10.1-23.6-16.5
	C70,149.6,60,131.4,63.1,108.4c2.1-15.4,7-29.8,19.3-40.4c0.4-0.3,0.7-0.7,1.2-0.9C84,66.6,84.3,66.5,85.3,66.1z"/>
</svg>
