<?xml version="1.0" encoding="utf-8"?>
<!-- Generator: Adobe Illustrator 20.0.0, SVG Export Plug-In . SVG Version: 6.00 Build 0)  -->
<svg version="1.1" id="Layer_1" xmlns="http://www.w3.org/2000/svg" xmlns:xlink="http://www.w3.org/1999/xlink" x="0px" y="0px"
	 viewBox="0 0 264.8 264.7" style="enable-background:new 0 0 264.8 264.7;" xml:space="preserve">
<path style="fill:#A6A8AB;" d="M264.8,132.2C264.2,205,206,265.8,128.4,264.7c-31.6-0.5-59.8-12.1-83.5-33.4
	C20,209,4.7,181.2,1,147.9c-5-45,9.5-83.3,42.7-114C69.1,10.4,99.8-0.5,134.2,0C206.4,1,264.3,58.8,264.8,132.2z M132.7,7.9
	C66.5,6.7,8.7,61.4,8.2,130.7C7.6,200.9,63.3,256,131.5,256.6c72.1,0.6,124.7-58.6,125.6-122.6C258.2,64.2,199.7,6.5,132.7,7.9z"/>
<path style="fill:#48190B;" d="M132.7,7.9c67-1.4,125.4,56.3,124.4,126.1c-0.9,63.9-53.6,123.2-125.6,122.6
	C63.3,256,7.6,200.9,8.2,130.7C8.7,61.4,66.5,6.7,132.7,7.9z M33.6,131.9c-1.5,53.8,44.7,98.7,97.2,99.6
	c55.5,0.9,100.6-44.9,101.3-97.7c0.8-55.8-44.9-100-97.5-101.1C78.4,31.6,32.2,78.8,33.6,131.9z"/>
<path style="fill:#A6A8AB;" d="M33.6,131.9c-1.4-53.1,44.8-100.3,101-99.2c52.6,1,98.2,45.2,97.5,101.1
	c-0.7,52.9-45.8,98.6-101.3,97.7C78.3,230.6,32.1,185.7,33.6,131.9z M132.6,223.9c48.9,0.1,92-38.8,91.9-92
	c-0.1-51.4-40.4-91.6-91.7-91.7c-53.4-0.1-91.8,43.3-92,91.5C40.6,182.1,81.7,223.9,132.6,223.9z"/>
<path style="fill:#48190B;" d="M132.6,223.9c-50.9-0.1-92-41.8-91.8-92.2c0.2-48.2,38.6-91.6,92-91.5c51.2,0.1,91.6,40.3,91.7,91.7
	C224.6,185.1,181.5,224,132.6,223.9z M44.8,131.8c-0.7,48.2,39.4,88,87.4,88.3c47.8,0.2,88.5-38,88.6-87.6
	c0-49.5-38.9-88.3-87.8-88.5C82.4,43.8,44.3,85.2,44.8,131.8z"/>
<path style="fill:#A6A8AB;" d="M44.8,131.8C44.3,85.2,82.4,43.8,133,44c48.9,0.2,87.8,38.9,87.7,88.5s-40.8,87.8-88.6,87.6
	C84.2,219.9,44.1,180,44.8,131.8z M47.8,132.1c-0.9,46.1,38,84,82.6,85c47.2,1.1,87.1-37,87.3-84.5c0.2-47.4-38.3-85.5-84.9-85.6
	C84.9,46.8,46.9,86.7,47.8,132.1z"/>
<path style="fill:#48190B;" d="M47.8,132.1C46.9,86.7,84.9,46.8,132.9,47c46.6,0.1,85.1,38.1,84.9,85.6
	c-0.2,47.5-40.1,85.7-87.3,84.5C85.9,216,47,178.2,47.8,132.1z M132.4,172c5.8,0,11.7-0.1,17.5,0.1c2.6,0.1,4.5-0.7,6-2.7
	c8.3-10.6,16.5-21.1,24.8-31.7c2.6-3.4,2.5-4.2-0.3-7.6c-8.2-10.2-16.4-20.4-24.4-30.8c-1.7-2.2-3.3-3.3-6.1-3.3
	c-11.3,0.1-22.7,0.2-34,0c-3,0-5,1-6.8,3.3c-8.2,10.6-16.4,21.2-24.9,31.6c-1.9,2.3-2.5,3.7-0.4,6.2c8.9,10.9,17.7,21.9,26.4,33
	c1.4,1.7,2.8,2,4.7,2C120.7,172,126.6,172,132.4,172z M104.6,68.2c3,7.5,5.8,14.6,8.8,21.5c0.4,1,2.2,2,3.4,2
	c10.7,0.2,21.3,0.2,32,0c1.2,0,3-1,3.5-2c3-7,5.7-14.1,8.6-21.6C142,68.2,123.7,68.2,104.6,68.2z M175.6,188.2
	c10.6-14.7,21-29,32.1-44.3c-8.3,0-15.3-0.1-22.2,0.1c-1,0-2.2,0.8-2.8,1.5c-6.2,7.6-12.3,15.2-18.4,22.8c-1.4,1.8-1.8,3.6,0.1,5.7
	C168.1,178.4,171.5,183.1,175.6,188.2z M58.1,143.9c0.8,1.4,1.2,2.3,1.8,3.1c5.7,7.9,11.5,15.8,17.2,23.7c3.3,4.6,6.5,9.2,9.8,13.7
	c1.4,1.8,2.9,3.5,5.1,0.8c3.2-4,6.5-8,9.6-12c1.1-1.5,1-2.7-0.3-4.4c-5.9-7.3-11.7-14.8-17.5-22.3c-1.4-1.8-3.1-2.8-5.5-2.7
	C71.8,144,65.4,143.9,58.1,143.9z"/>
<path style="fill:#8A3E22;" d="M132.4,172c-5.8,0-11.7,0-17.5,0c-1.9,0-3.3-0.2-4.7-2c-8.7-11.1-17.5-22.1-26.4-33
	c-2-2.5-1.5-3.9,0.4-6.2c8.5-10.4,16.7-21,24.9-31.6c1.8-2.3,3.7-3.4,6.8-3.3c11.3,0.2,22.7,0.1,34,0c2.8,0,4.4,1,6.1,3.3
	c8,10.4,16.2,20.6,24.4,30.8c2.8,3.5,2.9,4.3,0.3,7.6c-8.2,10.6-16.5,21.1-24.8,31.7c-1.6,2-3.4,2.8-6,2.7
	C144.1,171.9,138.2,172,132.4,172z"/>
<path style="fill:#8A3E22;" d="M104.6,68.2c19.1,0,37.4,0,56.3,0c-3,7.5-5.6,14.6-8.6,21.6c-0.4,1-2.3,1.9-3.5,2
	c-10.7,0.2-21.3,0.2-32,0c-1.2,0-3-1-3.4-2C110.3,82.8,107.6,75.7,104.6,68.2z"/>
<path style="fill:#893D21;" d="M175.6,188.2c-4-5.1-7.4-9.8-11.2-14.1c-1.9-2.2-1.5-3.9-0.1-5.7c6.1-7.7,12.2-15.3,18.4-22.8
	c0.6-0.8,1.8-1.5,2.8-1.5c6.9-0.1,13.9-0.1,22.2-0.1C196.6,159.2,186.2,173.5,175.6,188.2z"/>
<path style="fill:#893D22;" d="M58.1,143.9c7.3,0,13.8,0.1,20.3-0.1c2.5-0.1,4.1,0.9,5.5,2.7c5.8,7.4,11.5,14.9,17.5,22.3
	c1.3,1.6,1.4,2.9,0.3,4.4c-3.2,4-6.4,8-9.6,12c-2.2,2.7-3.7,1.1-5.1-0.8c-3.3-4.5-6.5-9.2-9.8-13.7c-5.7-7.9-11.5-15.8-17.2-23.7
	C59.3,146.2,58.9,145.3,58.1,143.9z"/>
</svg>
