<?xml version="1.0" encoding="utf-8"?>
<!-- Generator: Adobe Illustrator 20.0.0, SVG Export Plug-In . SVG Version: 6.00 Build 0)  -->
<svg version="1.1" id="Layer_1" xmlns="http://www.w3.org/2000/svg" xmlns:xlink="http://www.w3.org/1999/xlink" x="0px" y="0px"
	 viewBox="0 0 264.9 265.2" style="enable-background:new 0 0 264.9 265.2;" xml:space="preserve">
<path style="fill:#A6A8AB;" d="M146.9,0.8c11.9,2.1,23.7,4.2,34.9,9c13.5,5.8,25.9,13.1,37.2,22.6c14.4,12.1,25.1,26.8,33.2,43.5
	c6.6,13.5,10.7,27.7,11.7,42.8c0.4,5.6,1.1,11.3,0.9,16.9c-0.8,28.1-9.5,53.5-26.4,76.1c-13.2,17.6-29.9,30.8-49.5,40.6
	c-11.6,5.8-24.1,9.3-36.8,11.3c-9.9,1.6-20.3,1.9-30.3,1.1c-19.6-1.7-38.3-7.1-55.5-17.5c-10.5-6.4-20.4-13.5-28.9-22.4
	c-8-8.4-14.9-17.7-20.6-27.8c-7-12.8-12.1-26.5-14.6-41c-1.7-9.9-2.7-20.1-2.1-30.1c1-16.4,4.6-32.4,11.6-47.5
	c5.6-12.1,12.7-23,21.3-33.2C51.8,23,75.9,10,103.7,3.2c5-1.2,10.1-1.6,15.2-2.4C128.3,0.8,137.6,0.8,146.9,0.8z M143.9,256.9
	c24.7-0.4,55.2-13.5,79.8-39.4c22.6-23.8,33.9-52.7,33.8-85.3c-0.1-33.5-12-63-35.8-86.9c-23.8-24-52.8-36.9-86.8-37.3
	C65.1,6.9,8.4,62.3,8.2,132.1C8.1,201.8,64.1,256.9,143.9,256.9z"/>
<path style="fill:#FDFDFD;" d="M146.9,0.8c-9.3,0-18.6,0-28,0c0.4-0.3,0.8-0.8,1.2-0.8c8.5,0,17.1,0,25.6,0
	C146.1,0,146.5,0.6,146.9,0.8z"/>
<path style="fill:#60756E;" d="M143.9,256.9C64.1,256.9,8,201.8,8.2,132.1C8.4,62.3,65.1,6.9,134.9,7.9c34,0.5,63,13.4,86.8,37.3
	s35.7,53.5,35.8,86.9c0.1,32.5-11.2,61.5-33.8,85.3C199.1,243.4,168.7,256.5,143.9,256.9z M232,132.7c1-54.3-44-99.7-99-99.7
	s-98,44.3-99.3,96.9c-1.4,56.8,44.5,101.8,98.7,102C187.6,232.1,232.7,186.5,232,132.7z"/>
<path style="fill:#A6A8AB;" d="M232,132.7c0.8,53.8-44.4,99.4-99.5,99.2c-54.2-0.2-100.1-45.2-98.7-102C35,77.3,78,33,133,33
	S232.9,78.4,232,132.7z M132.9,40.9c-49.9-1.2-90.8,40.8-92,88.9c-1.4,53.1,42.3,93.3,89.1,94.5c52.3,1.3,94.7-40.9,94.8-91.4
	C225,81.3,182.5,39.8,132.9,40.9z"/>
<path style="fill:#60756E;" d="M132.9,40.9c49.6-1.1,92.1,40.4,91.9,92c-0.1,50.4-42.5,92.7-94.8,91.4
	c-46.8-1.2-90.5-41.4-89.1-94.5C42.1,81.6,83,39.6,132.9,40.9z M132.9,220c47.4,1.6,87.7-38.9,88-86.7c0.4-49.3-40.3-87.9-86.4-88.7
	C84.6,43.7,45,85,44.8,131.9C44.6,180.3,84.8,221.4,132.9,220z"/>
<path style="fill:#A6A8AB;" d="M132.9,220c-48.1,1.4-88.3-39.6-88.1-88.1C45,85,84.6,43.8,134.5,44.6c46.1,0.8,86.7,39.4,86.4,88.7
	C220.6,181.1,180.3,221.5,132.9,220z M217.9,132.5c0.9-46.6-37.3-85.4-84.7-85.5c-47.9-0.1-85.4,38.7-85.6,85.3
	c-0.2,46.1,37.3,85.6,85.4,85.5C180.7,217.7,218.8,178.8,217.9,132.5z"/>
<path style="fill:#60756E;" d="M217.9,132.5c0.9,46.3-37.3,85.2-84.9,85.3c-48.1,0.1-85.6-39.5-85.4-85.5
	c0.2-46.7,37.7-85.4,85.6-85.3C180.6,47.1,218.9,85.9,217.9,132.5z M121,202.2c0-12.7,0.1-24.4-0.1-36c0-1.7-1.2-3.8-2.4-5.1
	c-6.7-7-13.5-13.8-20.5-20.5c-2.1-2-2-3.3,0-5.2c10.8-10.6,21.5-21.3,32.2-32.2c2.2-2.2,3.4-2.2,5.6,0
	c10.5,10.7,21.1,21.3,31.8,31.8c2.3,2.3,2.5,3.6,0,6c-7.1,6.8-13.9,13.9-20.9,20.8c-1.9,1.9-2.7,3.9-2.7,6.6
	c0.1,9.8,0,19.7,0.1,29.5c0,1.3,0.2,2.5,0.3,3c21-21,42.1-42.1,63.2-63.2c0.7,0.4,0.4-0.2,0-0.6c-24.1-24.1-48-48.1-71.9-72
	c-2.7-2.7-2.8-2.7-6.2,0.7c-23.1,23.1-46.2,46.2-69.3,69.3c-3.7,3.7-3.7,2.8-0.1,6.4c19.1,19.1,38.2,38.2,57.3,57.3
	C118.2,199.7,119.2,200.5,121,202.2z"/>
<path style="fill:#43BC93;" d="M121,202.2c-1.8-1.6-2.8-2.5-3.7-3.4c-19.1-19.1-38.2-38.2-57.3-57.3c-3.6-3.6-3.5-2.7,0.1-6.4
	c23.1-23.1,46.2-46.2,69.3-69.3c3.4-3.4,3.5-3.4,6.2-0.7c23.9,23.9,47.8,47.8,71.7,71.7c0.4,0.4,0.8,1,0,0.6
	c-21.1,21.1-42.2,42.2-63.2,63.2c0-0.5-0.2-1.7-0.3-3c0-9.8,0.1-19.7-0.1-29.5c0-2.7,0.8-4.7,2.7-6.6c7-6.9,13.8-14,20.9-20.8
	c2.4-2.3,2.3-3.7,0-6c-10.7-10.5-21.3-21.1-31.8-31.8c-2.2-2.2-3.4-2.2-5.6,0c-10.6,10.8-21.4,21.5-32.2,32.2c-2,2-2.1,3.2,0,5.2
	c6.9,6.7,13.8,13.6,20.5,20.5c1.3,1.3,2.4,3.3,2.4,5.1C121.1,177.8,121,189.4,121,202.2z"/>
</svg>
