<?xml version="1.0" encoding="utf-8"?>
<!-- Generator: Adobe Illustrator 20.0.0, SVG Export Plug-In . SVG Version: 6.00 Build 0)  -->
<svg version="1.1" id="Layer_1" xmlns="http://www.w3.org/2000/svg" xmlns:xlink="http://www.w3.org/1999/xlink" x="0px" y="0px"
	 viewBox="0 0 264.7 264.7" style="enable-background:new 0 0 264.7 264.7;" xml:space="preserve">
<path style="fill:#A6A8AB;" d="M0,140.7C-0.1,60.1,59-3,138.1,0.1C205.2,2.8,266,58,264.7,134.1c-1.2,72.8-57.5,124.4-120.9,130
	c-37.8,3.3-71.4-7.9-99.6-33.4C15.2,204.5,0.8,171.2,0,140.7z M8.8,131.5c-1,68,54.7,123.9,122.2,124.7
	c70.1,0.7,125.6-55.2,125.8-123.8C257,62.3,200.5,9.9,136.2,8C64.7,6,7.7,65.6,8.8,131.5z"/>
<path style="fill:#A42A6C;" d="M8.8,131.5C7.7,65.6,64.7,6,136.2,8C200.5,9.9,257,62.3,256.8,132.4
	c-0.1,68.5-55.7,124.5-125.8,123.8C63.6,255.4,7.8,199.5,8.8,131.5z M33,132c-0.3,54.3,43.5,100.1,99.7,99.9
	c55.1-0.2,99.6-42.7,99.8-100c0.2-56-45-99.7-100.1-99.7C77.2,32.2,32.7,77.6,33,132z"/>
<path style="fill:#A6A8AB;" d="M33,132c-0.3-54.4,44.3-99.8,99.4-99.8s100.3,43.7,100.1,99.7c-0.2,57.3-44.7,99.8-99.8,100
	C76.5,232.1,32.7,186.3,33,132z M132.8,223.3c49.2,0.8,90.7-40.9,91.3-89.9c0.6-50.4-39.2-92.9-91.3-92.9
	c-51.4,0-91.3,40.5-91.5,91.2C41,184.2,83.9,223.8,132.8,223.3z"/>
<path style="fill:#A42A6C;" d="M132.8,223.3c-49,0.5-91.8-39.1-91.6-91.5c0.2-50.7,40.1-91.2,91.5-91.2c52.1,0,91.9,42.5,91.3,92.9
	C223.6,182.4,182.1,224.1,132.8,223.3z M132.9,220.3c48.1,0.6,89.6-40.1,88.2-90.5C219.8,83.9,183,43.6,133,43.6
	c-50.3,0-88.9,39.6-88.7,89.2C44.4,181.6,84.4,220.8,132.9,220.3z"/>
<path style="fill:#A6A8AB;" d="M132.9,220.3c-48.5,0.5-88.4-38.7-88.6-87.6C44.1,83.1,82.7,43.6,133,43.6c50,0,86.9,40.3,88.1,86.2
	C222.4,180.2,181,220.9,132.9,220.3z M47.9,132c0.1,46.5,36.5,84.7,84.5,84.8c47.9,0.1,85.1-36.8,85.1-84.7
	c0.1-49.1-39-84.3-83.5-84.9C85.7,46.6,47.7,85.7,47.9,132z"/>
<path style="fill:#A42A6C;" d="M47.9,132C47.7,85.7,85.7,46.6,134,47.2c44.5,0.6,83.6,35.8,83.5,84.9c-0.1,47.9-37.3,84.9-85.1,84.7
	C84.4,216.7,48.1,178.6,47.9,132z M132.7,193.1c2.8,0,5.7,0,8.5,0c0.6,0,1.3-0.3,1.9-0.5c17.2-3.2,30.9-12.5,43.1-24.3
	c9.5-9.1,17-19.8,24.3-30.8c2.7-4,2.7-7.1,0.2-10.8c-10.5-16.1-22.3-31-38.1-42.3c-11.3-8.1-23.7-13.4-37.7-14
	c-13.6-0.6-26.1,3.9-37.7,11C86.3,88.1,77.1,97,69,106.9c-5.5,6.8-10.2,14.3-15.1,21.6c-1.3,1.9-2.2,3.8-0.7,6.4
	c9.7,16.1,21.2,30.6,36.1,42.1C102,186.9,116.1,193.6,132.7,193.1z"/>
<path style="fill:#F61D91;" d="M132.7,193.1c-16.6,0.4-30.7-6.3-43.4-16.2c-14.8-11.6-26.4-26.1-36.1-42.1c-1.5-2.5-0.7-4.4,0.7-6.4
	c5-7.2,9.6-14.8,15.1-21.6c8.1-9.9,17.3-18.8,28.3-25.5c11.5-7.1,24-11.6,37.7-11c13.9,0.6,26.4,5.9,37.7,14
	c15.8,11.3,27.6,26.2,38.1,42.3c2.5,3.8,2.4,6.9-0.2,10.8c-7.3,10.9-14.8,21.7-24.3,30.8c-12.2,11.8-26,21.1-43.1,24.3
	c-0.6,0.1-1.3,0.5-1.9,0.5C138.3,193.2,135.5,193.1,132.7,193.1z M149,131.8c0-9.2-7.4-17-16.3-16.5c-10.2,0.5-16.4,7.2-16.7,16.3
	c-0.4,9.7,8.3,17,16.5,16.9C142.1,148.4,149.6,140.9,149,131.8z M90.3,159.1c-10.1-18.2-10-35.7-0.6-53.5
	c-13.6,4.3-20.9,14.8-21.6,26.5C67.6,142.4,78,155.1,90.3,159.1z M176.5,157.9c9-2.9,15.9-8.3,19.1-17.2c3.8-10.7,1-20.1-7.5-27.9
	c-5.1-4.7-8.8-6.6-11.8-5.5C185.4,124,185,140.7,176.5,157.9z"/>
<path style="fill:#A42A6C;" d="M149,131.8c0.5,9.1-7,16.6-16.4,16.7c-8.2,0.1-16.9-7.2-16.5-16.9c0.3-9.1,6.5-15.8,16.7-16.3
	C141.7,114.9,149,122.6,149,131.8z"/>
<path style="fill:#A52A6C;" d="M90.3,159.1c-12.3-4-22.8-16.7-22.2-27c0.6-11.7,8-22.3,21.6-26.5C80.3,123.3,80.3,140.9,90.3,159.1z
	"/>
<path style="fill:#A52A6C;" d="M176.5,157.9c8.6-17.1,9-33.9-0.2-50.6c3-1.1,6.7,0.8,11.8,5.5c8.4,7.8,11.3,17.2,7.5,27.9
	C192.4,149.6,185.4,154.9,176.5,157.9z"/>
</svg>
