<?xml version="1.0" encoding="utf-8"?>
<!-- Generator: Adobe Illustrator 20.0.0, SVG Export Plug-In . SVG Version: 6.00 Build 0)  -->
<svg version="1.1" id="Layer_1" xmlns="http://www.w3.org/2000/svg" xmlns:xlink="http://www.w3.org/1999/xlink" x="0px" y="0px"
	 viewBox="0 0 264.7 264.3" style="enable-background:new 0 0 264.7 264.3;" xml:space="preserve">
<path style="fill:#A6A8AB;" d="M132.6,0.1c71.8-1.3,133.3,58.8,132.1,133.4c-1.2,73.5-58.1,125.6-121.9,130.4
	c-42.3,3.2-78.5-11.2-107.6-42.2C15.7,200.8,4.2,176,1,147.6c-4.4-38.4,6.2-72.3,30.9-101.9C59.1,13.2,99.4-1.1,132.6,0.1z M257,132
	C257.4,63.6,201.6,7.6,133.6,7.3C63.9,6.9,8.3,62.5,8.1,131.5C8,200.7,64.4,255.9,132.2,256.2C201,256.6,257.7,199.4,257,132z"/>
<path style="fill:#4A677D;" d="M257,132c0.7,67.5-56,124.6-124.8,124.3C64.4,255.9,8,200.7,8.1,131.5C8.3,62.5,63.9,6.9,133.6,7.3
	C201.6,7.6,257.4,63.6,257,132z M232,131.9c0.4-53.9-43-99.8-99.4-99.6c-55.3,0.2-99,42.7-99.4,99.1c-0.4,56.1,44.6,99.4,99.2,99.7
	C187.2,231.5,232.5,186.5,232,131.9z"/>
<path style="fill:#A6A8AB;" d="M232,131.9c0.5,54.6-44.8,99.6-99.5,99.3c-54.6-0.3-99.6-43.6-99.2-99.7c0.4-56.4,44-98.9,99.4-99.1
	C189,32.1,232.4,78,232,131.9z M133.1,40.1c-50.7-0.8-91.6,41.5-92.3,90c-0.7,51.3,39.7,93.5,91.4,93.6s92.2-40.2,92.3-92.1
	C224.7,80.1,182.5,40.1,133.1,40.1z"/>
<path style="fill:#4A677D;" d="M133.1,40.1c49.4,0,91.5,40,91.4,91.4c-0.1,51.9-40.6,92.2-92.3,92.1c-51.7-0.1-92-42.3-91.4-93.6
	C41.5,81.5,82.4,39.3,133.1,40.1z M133.2,44c-49-1-86.9,39.2-88.5,84.3c-1.7,51.2,38.6,91.3,87,91.6c49.9,0.3,87.9-38.1,89-86.1
	C222,81.8,179.2,43.1,133.2,44z"/>
<path style="fill:#A6A8AB;" d="M133.2,44c46-0.8,88.9,37.9,87.6,89.8c-1.2,47.9-39.1,86.4-89,86.1c-48.4-0.3-88.7-40.4-87-91.6
	C46.2,83.2,84.2,43,133.2,44z M133.3,47C87,45.6,47.6,85.2,47.7,131.6c0.1,46.4,37.2,85.3,84.6,85.3c48.2-0.1,85-37.7,85.4-84.6
	C218.2,84.3,178.9,46.6,133.3,47z"/>
<path style="fill:#4A677D;" d="M133.3,47c45.6-0.4,84.9,37.3,84.4,85.3c-0.4,46.9-37.2,84.5-85.4,84.6C84.8,217,47.8,178,47.7,131.6
	C47.6,85.2,87,45.6,133.3,47z M159.3,178.8c6.8-1.7,13.2-2.8,19.3-4.9c7.3-2.5,13.9-6.3,17.7-13.6c3.2-6.2,1.5-9.4-5.4-9.1
	c-3.8,0.2-7.5,1.3-11.2,2c-0.7,0.1-1.5-0.1-2.2-0.1c0.1-0.7,0.1-1.5,0.4-2.1c2.7-5.5,5.9-10.7,8.2-16.3c4.2-10.1,5.6-20.8,6.6-31.6
	c0.8-8.1,0.1-16.3-2.7-24.1c-3.1-8.7-10.3-10.5-17.1-4.4c-1.1,1-2.3,2-3.1,3.2c-2.7,4-5.5,7.9-7.8,12.2
	c-15,28.5-23.6,59.1-29.1,90.7c-0.6,3.6-1.2,7.3-1.7,10.9c-2.2-7.8-3.2-15.5-5-23c-2.9-12.1-5.8-24.2-9.4-36.1
	c-5.2-17-11.6-33.7-21.2-48.8c-2.4-3.7-5.6-7.1-8.8-10.1c-3.9-3.7-8.8-3.6-12.3,0.6c-2.1,2.6-3.7,5.9-4.4,9.2
	c-2.2,10.4-1.8,20.9,0,31.2c2.3,13.2,5.3,26.1,13.7,37c0.4,0.5,0.5,1.3,0.9,2.4c-2.6-0.7-4.4-1.4-6.4-1.7c-3.3-0.5-6.6-1.2-9.9-1.1
	c-4.5,0.1-6.1,2.7-4.5,7c0.4,1.1,1,2.1,1.6,3.1c5.4,8.4,13.8,12.2,23,14.6c4.2,1.1,8.5,1.7,12.7,2.5c-1.2,1-2.5,1.3-3.7,1.8
	c-2.9,1.1-6,2.1-8.7,3.6c-4,2.3-3.8,5.8,0.2,7.8c1.5,0.7,3.1,1.3,4.7,1.5c7.8,0.7,15.5,1.5,23.3,1.9c2.9,0.1,4.5,0.9,5.4,3.8
	c1.6,5.4,1.8,5.4,7.3,5.6c1.5,0.1,3-0.3,4.4-0.2c2.7,0.3,3.6-0.9,4.2-3.5c1.3-5.4,2-5.4,7.6-5.8c7.8-0.5,15.5-1.2,23.3-2.2
	c2.7-0.3,6.1-1.5,6.3-4.7s-2.7-4.8-5.5-5.7c-2.5-0.9-5.1-1.5-7.6-2.3C161.4,179.7,160.6,179.3,159.3,178.8z"/>
<path style="fill:#93B1C6;" d="M159.3,178.8c1.2,0.4,2.1,0.8,3,1.1c2.5,0.8,5.1,1.4,7.6,2.3c2.8,1,5.6,2.6,5.5,5.7
	c-0.2,3.3-3.5,4.4-6.3,4.7c-7.7,1-15.5,1.7-23.3,2.2c-5.7,0.4-6.3,0.4-7.6,5.8c-0.6,2.6-1.5,3.8-4.2,3.5c-1.5-0.2-3,0.2-4.4,0.2
	c-5.5-0.2-5.7-0.2-7.3-5.6c-0.9-2.9-2.4-3.7-5.4-3.8c-7.8-0.4-15.5-1.1-23.3-1.9c-1.6-0.2-3.2-0.8-4.7-1.5c-4.1-2-4.3-5.5-0.2-7.8
	c2.7-1.5,5.8-2.5,8.7-3.6c1.2-0.5,2.5-0.7,3.7-1.8c-4.2-0.8-8.5-1.4-12.7-2.5c-9.2-2.4-17.6-6.2-23-14.6c-0.6-1-1.2-2-1.6-3.1
	c-1.6-4.3,0-7,4.5-7c3.3,0,6.6,0.6,9.9,1.1c1.9,0.3,3.8,1,6.4,1.7c-0.4-1.1-0.5-1.9-0.9-2.4c-8.3-11-11.4-23.9-13.7-37
	c-1.8-10.4-2.2-20.9,0-31.2c0.7-3.3,2.3-6.6,4.4-9.2c3.5-4.2,8.4-4.4,12.3-0.6c3.2,3.1,6.4,6.4,8.8,10.1c9.6,15.2,16,31.8,21.2,48.8
	c3.6,11.9,6.6,24,9.4,36.1c1.8,7.5,2.8,15.3,5,23c0.6-3.6,1.1-7.3,1.7-10.9c5.5-31.6,14.1-62.2,29.1-90.7c2.2-4.2,5.1-8.2,7.8-12.2
	c0.8-1.2,2-2.2,3.1-3.2c6.8-6.1,14-4.3,17.1,4.4c2.8,7.8,3.5,16,2.7,24.1c-1,10.7-2.4,21.5-6.6,31.6c-2.3,5.6-5.5,10.9-8.2,16.3
	c-0.3,0.6-0.3,1.4-0.4,2.1c0.7,0,1.5,0.2,2.2,0.1c3.7-0.6,7.5-1.8,11.2-2c6.9-0.3,8.6,2.9,5.4,9.1c-3.8,7.3-10.4,11.1-17.7,13.6
	C172.6,176,166.2,177.1,159.3,178.8z"/>
</svg>
