<?xml version="1.0" encoding="UTF-8" ?>
<!DOCTYPE svg PUBLIC "-//W3C//DTD SVG 1.1//EN" "http://www.w3.org/Graphics/SVG/1.1/DTD/svg11.dtd">
<svg width="215pt" height="215pt" viewBox="0 0 215 215" version="1.1" xmlns="http://www.w3.org/2000/svg">
<g id="#1e2b20d0">
<path fill="#1e2b20" opacity="0.82" d=" M 156.77 27.05 C 159.52 28.64 161.78 31.34 162.32 34.54 C 165.41 32.42 168.79 29.34 172.87 30.14 C 172.47 32.85 171.37 35.40 170.89 38.10 C 173.59 37.90 176.46 36.90 179.06 38.10 C 176.58 42.30 174.11 46.84 174.52 51.89 C 175.64 61.00 181.16 68.61 185.59 76.37 C 190.54 86.41 194.24 97.77 192.46 109.07 C 191.39 114.94 190.20 121.79 184.80 125.27 C 184.80 124.63 184.81 123.36 184.82 122.72 C 188.97 119.15 190.54 113.79 191.00 108.51 C 193.31 98.46 189.55 88.39 185.60 79.28 C 183.63 74.37 180.29 70.21 177.79 65.58 C 175.59 61.00 173.51 56.17 173.19 51.03 C 172.91 46.34 175.69 42.35 177.57 38.28 C 174.77 38.66 170.51 37.98 169.77 41.67 C 169.54 40.97 169.09 39.58 168.86 38.88 C 169.50 36.10 170.48 33.42 171.40 30.73 C 169.79 31.11 168.24 31.67 166.86 32.58 C 165.48 33.36 164.15 34.38 163.51 35.87 C 161.00 42.28 154.42 45.94 147.84 46.75 C 151.30 44.94 155.27 44.06 158.19 41.31 C 159.51 39.94 160.87 38.53 161.69 36.79 C 161.42 34.46 160.36 32.32 158.99 30.46 C 158.70 30.04 158.14 29.20 157.86 28.78 C 155.57 32.67 153.13 37.04 148.63 38.68 C 140.95 41.65 132.54 41.53 124.44 41.23 C 113.19 40.60 101.47 42.98 92.33 49.83 C 91.52 50.42 90.75 51.06 90.00 51.72 C 87.13 54.45 85.03 57.90 83.86 61.68 C 82.09 61.96 80.31 62.19 78.55 62.48 C 73.93 61.80 69.26 62.20 64.68 62.94 C 60.13 63.40 56.14 65.88 51.76 67.02 C 54.41 64.51 57.86 63.31 61.18 62.03 C 58.68 60.94 56.18 59.83 53.55 59.10 C 51.12 58.53 48.60 58.03 46.10 58.37 C 44.73 59.12 44.01 60.57 43.12 61.79 C 42.13 63.49 41.15 65.21 40.22 66.95 C 39.81 64.82 41.41 63.13 42.34 61.39 C 43.46 59.96 44.29 57.67 46.41 57.61 C 52.38 56.63 58.11 59.33 63.18 62.19 C 69.69 61.05 76.31 61.04 82.88 61.63 C 83.53 55.71 88.06 50.97 92.85 47.84 C 97.51 44.73 102.89 43.07 108.16 41.33 C 112.56 39.49 117.43 40.31 122.06 39.96 C 130.13 40.22 138.42 40.77 146.24 38.29 C 151.53 36.95 155.47 32.22 156.77 27.05 Z" />
</g>
<g id="#8abb8aff">
<path fill="#8abb8a" opacity="1.00" d=" M 148.63 38.68 C 153.13 37.04 155.57 32.67 157.86 28.78 C 158.14 29.20 158.70 30.04 158.99 30.46 C 158.53 34.06 158.22 37.68 158.19 41.31 C 155.27 44.06 151.30 44.94 147.84 46.75 C 154.42 45.94 161.00 42.28 163.51 35.87 C 165.34 37.23 168.05 34.42 166.86 32.58 C 168.24 31.67 169.79 31.11 171.40 30.73 C 170.48 33.42 169.50 36.10 168.86 38.88 C 167.82 43.10 167.06 47.37 166.27 51.64 C 164.09 56.59 163.66 62.54 159.41 66.35 C 151.26 74.78 138.81 75.41 128.01 77.75 C 126.56 72.09 126.06 66.04 123.26 60.83 C 121.84 58.22 118.58 59.19 116.18 58.94 C 117.69 57.42 119.18 55.87 120.75 54.41 C 122.90 56.10 124.97 58.53 128.02 58.17 C 133.52 58.71 138.04 54.63 141.04 50.48 C 139.71 50.09 138.37 49.72 137.03 49.36 C 137.20 49.06 137.54 48.45 137.71 48.15 C 132.38 48.90 126.79 49.30 121.95 51.87 C 118.70 53.56 116.37 56.48 114.36 59.45 C 110.08 60.63 106.07 62.56 101.90 64.03 C 98.52 64.24 95.31 62.60 91.94 62.35 C 91.60 58.75 90.95 55.20 90.00 51.72 C 90.75 51.06 91.52 50.42 92.33 49.83 C 94.43 49.46 96.51 48.94 98.50 48.16 C 98.50 48.59 98.49 49.45 98.49 49.88 C 102.21 50.30 106.29 51.65 109.84 49.79 C 114.87 47.24 119.57 44.07 124.44 41.23 C 132.54 41.53 140.95 41.65 148.63 38.68 M 139.08 47.28 C 138.51 48.91 139.05 49.45 140.69 48.90 C 141.24 47.27 140.71 46.73 139.08 47.28 Z" />
</g>
<g id="#6aaa70ff">
<path fill="#6aaa70" opacity="1.00" d=" M 158.99 30.46 C 160.36 32.32 161.42 34.46 161.69 36.79 C 160.87 38.53 159.51 39.94 158.19 41.31 C 158.22 37.68 158.53 34.06 158.99 30.46 Z" />
</g>
<g id="#a9dbabff">
<path fill="#a9dbab" opacity="1.00" d=" M 163.51 35.87 C 164.15 34.38 165.48 33.36 166.86 32.58 C 168.05 34.42 165.34 37.23 163.51 35.87 Z" />
</g>
<g id="#35543bff">
<path fill="#35543b" opacity="1.00" d=" M 166.27 51.64 C 167.06 47.37 167.82 43.10 168.86 38.88 C 169.09 39.58 169.54 40.97 169.77 41.67 C 169.00 47.09 167.41 52.49 168.05 58.03 C 169.25 66.24 172.78 73.83 175.70 81.53 C 177.67 86.42 178.43 91.68 178.01 96.93 C 177.46 97.56 176.90 98.18 176.33 98.79 C 175.90 93.39 176.39 87.80 174.34 82.65 C 171.30 74.20 167.74 65.84 166.29 56.92 C 166.26 55.16 166.24 53.40 166.27 51.64 Z" />
</g>
<g id="#5f9367ff">
<path fill="#5f9367" opacity="1.00" d=" M 169.77 41.67 C 170.51 37.98 174.77 38.66 177.57 38.28 C 175.69 42.35 172.91 46.34 173.19 51.03 C 173.51 56.17 175.59 61.00 177.79 65.58 C 173.91 70.35 179.34 76.53 175.70 81.53 C 172.78 73.83 169.25 66.24 168.05 58.03 C 167.41 52.49 169.00 47.09 169.77 41.67 Z" />
</g>
<g id="#a3cca0ff">
<path fill="#a3cca0" opacity="1.00" d=" M 92.33 49.83 C 101.47 42.98 113.19 40.60 124.44 41.23 C 119.57 44.07 114.87 47.24 109.84 49.79 C 106.29 51.65 102.21 50.30 98.49 49.88 C 98.49 49.45 98.50 48.59 98.50 48.16 C 96.51 48.94 94.43 49.46 92.33 49.83 Z" />
</g>
<g id="#6f9970ff">
<path fill="#6f9970" opacity="1.00" d=" M 139.08 47.28 C 140.71 46.73 141.24 47.27 140.69 48.90 C 139.05 49.45 138.51 48.91 139.08 47.28 Z" />
</g>
<g id="#2b3e33f4">
<path fill="#2b3e33" opacity="0.96" d=" M 121.95 51.87 C 126.79 49.30 132.38 48.90 137.71 48.15 C 137.54 48.45 137.20 49.06 137.03 49.36 C 131.43 50.28 125.54 51.11 120.75 54.41 C 119.18 55.87 117.69 57.42 116.18 58.94 C 118.58 59.19 121.84 58.22 123.26 60.83 C 126.06 66.04 126.56 72.09 128.01 77.75 C 128.32 79.13 128.62 80.51 128.93 81.89 C 129.45 84.14 130.07 86.48 131.74 88.18 C 140.15 97.10 149.30 105.54 160.06 111.54 C 165.46 111.50 169.54 107.50 173.88 104.83 C 171.03 109.01 166.68 111.74 161.81 112.93 C 167.03 116.91 171.35 121.90 174.98 127.34 C 175.16 127.55 175.52 127.96 175.71 128.17 C 176.32 128.86 177.08 129.31 177.98 129.54 C 176.74 132.53 179.32 134.90 180.20 137.58 C 184.54 148.24 184.84 160.75 180.19 171.37 C 179.37 173.19 178.42 175.09 176.68 176.19 C 182.54 165.33 184.39 151.78 179.95 140.09 C 176.03 130.90 170.42 122.37 163.01 115.62 L 162.78 115.34 C 162.40 115.57 161.64 116.04 161.25 116.27 C 159.02 112.74 155.48 110.45 151.89 108.49 C 149.53 106.71 147.30 104.72 144.77 103.18 C 142.57 102.80 140.65 104.32 138.72 105.12 C 140.63 110.31 143.68 114.97 146.15 119.89 C 147.02 121.21 147.55 123.15 149.27 123.58 C 153.30 124.39 157.48 124.34 161.53 123.67 C 161.69 121.44 162.12 119.23 162.92 117.14 C 162.99 119.56 163.93 122.29 162.63 124.55 C 157.90 126.91 152.37 125.36 147.38 124.71 C 143.95 118.19 140.12 111.86 137.00 105.18 C 138.93 103.71 141.09 102.57 143.35 101.70 C 142.69 101.14 142.02 100.59 141.35 100.06 C 137.60 96.19 133.91 92.27 129.87 88.70 C 130.96 93.27 131.74 97.92 132.18 102.60 C 132.27 105.30 132.54 107.99 132.72 110.68 C 132.45 110.58 131.92 110.37 131.65 110.27 C 130.10 96.42 127.94 82.58 124.50 69.07 C 123.79 66.24 122.95 63.42 121.47 60.88 C 118.57 59.85 115.57 61.07 112.73 61.69 C 107.74 62.88 103.17 65.22 98.53 67.32 C 98.68 66.77 98.97 65.69 99.12 65.15 C 97.09 64.71 95.06 64.27 93.02 63.90 C 89.83 63.42 86.61 63.13 83.39 63.03 C 82.06 62.88 80.73 62.73 79.40 62.58 L 78.55 62.48 C 80.31 62.19 82.09 61.96 83.86 61.68 C 86.56 61.75 89.25 62.09 91.94 62.35 C 95.31 62.60 98.52 64.24 101.90 64.03 C 106.07 62.56 110.08 60.63 114.36 59.45 C 116.37 56.48 118.70 53.56 121.95 51.87 Z" />
</g>
<g id="#9ac39cff">
<path fill="#9ac39c" opacity="1.00" d=" M 120.75 54.41 C 125.54 51.11 131.43 50.28 137.03 49.36 C 138.37 49.72 139.71 50.09 141.04 50.48 C 138.04 54.63 133.52 58.71 128.02 58.17 C 124.97 58.53 122.90 56.10 120.75 54.41 Z" />
</g>
<g id="#5f9167ff">
<path fill="#5f9167" opacity="1.00" d=" M 83.86 61.68 C 85.03 57.90 87.13 54.45 90.00 51.72 C 90.95 55.20 91.60 58.75 91.94 62.35 C 89.25 62.09 86.56 61.75 83.86 61.68 Z" />
</g>
<g id="#74aa78ff">
<path fill="#74aa78" opacity="1.00" d=" M 159.41 66.35 C 163.66 62.54 164.09 56.59 166.27 51.64 C 166.24 53.40 166.26 55.16 166.29 56.92 C 165.74 62.71 163.21 68.88 157.90 71.85 C 152.57 75.90 145.75 76.47 139.66 78.78 C 136.16 80.15 131.88 79.23 128.93 81.89 C 128.62 80.51 128.32 79.13 128.01 77.75 C 138.81 75.41 151.26 74.78 159.41 66.35 Z" />
<path fill="#74aa78" opacity="1.00" d=" M 175.71 128.17 C 177.59 127.83 179.48 127.47 181.36 127.14 C 180.96 127.59 180.14 128.51 179.74 128.97 L 179.31 129.88 C 178.98 129.79 178.31 129.62 177.98 129.54 C 177.08 129.31 176.32 128.86 175.71 128.17 Z" />
</g>
<g id="#619467ff">
<path fill="#619467" opacity="1.00" d=" M 166.29 56.92 C 167.74 65.84 171.30 74.20 174.34 82.65 C 176.39 87.80 175.90 93.39 176.33 98.79 C 176.90 98.18 177.46 97.56 178.01 96.93 C 179.40 94.95 179.05 92.42 179.19 90.14 C 180.18 91.89 181.44 93.46 182.93 94.82 C 183.54 93.24 184.12 91.66 184.69 90.07 C 185.83 90.61 187.13 90.92 188.12 91.76 C 190.51 97.08 188.61 103.23 191.00 108.51 C 190.54 113.79 188.97 119.15 184.82 122.72 C 181.89 124.93 178.53 126.45 174.98 127.34 C 171.35 121.90 167.03 116.91 161.81 112.93 C 166.68 111.74 171.03 109.01 173.88 104.83 C 169.54 107.50 165.46 111.50 160.06 111.54 C 149.30 105.54 140.15 97.10 131.74 88.18 C 130.07 86.48 129.45 84.14 128.93 81.89 C 131.88 79.23 136.16 80.15 139.66 78.78 C 145.75 76.47 152.57 75.90 157.90 71.85 C 163.21 68.88 165.74 62.71 166.29 56.92 Z" />
</g>
<g id="#afe4ccff">
<path fill="#afe4cc" opacity="1.00" d=" M 43.12 61.79 C 44.01 60.57 44.73 59.12 46.10 58.37 C 48.60 58.03 51.12 58.53 53.55 59.10 C 50.07 60.00 46.58 60.81 43.12 61.79 Z" />
</g>
<g id="#8cc7acff">
<path fill="#8cc7ac" opacity="1.00" d=" M 53.55 59.10 C 56.18 59.83 58.68 60.94 61.18 62.03 C 57.86 63.31 54.41 64.51 51.76 67.02 C 49.69 68.57 47.52 69.98 45.21 71.15 C 42.28 72.44 40.04 74.79 37.59 76.78 C 38.25 73.47 39.15 70.23 40.19 67.02 C 40.19 67.00 40.21 66.97 40.22 66.95 C 41.15 65.21 42.13 63.49 43.12 61.79 C 46.58 60.81 50.07 60.00 53.55 59.10 Z" />
</g>
<g id="#a9d4bfff">
<path fill="#a9d4bf" opacity="1.00" d=" M 112.73 61.69 C 115.57 61.07 118.57 59.85 121.47 60.88 C 116.94 63.12 112.84 66.13 108.35 68.42 C 104.92 70.24 100.97 70.18 97.20 70.04 C 97.67 69.14 98.12 68.24 98.53 67.32 C 103.17 65.22 107.74 62.88 112.73 61.69 Z" />
</g>
<g id="#90c8adff">
<path fill="#90c8ad" opacity="1.00" d=" M 121.47 60.88 C 122.95 63.42 123.79 66.24 124.50 69.07 C 122.06 71.25 122.58 74.62 122.24 77.53 C 121.50 84.87 120.08 92.27 116.89 98.97 C 115.79 101.24 115.26 103.73 115.14 106.24 C 113.34 99.81 110.31 91.93 103.04 90.28 C 97.92 90.88 94.27 95.45 91.32 99.32 C 86.47 105.47 85.69 113.63 85.94 121.18 C 88.28 122.57 90.98 122.65 93.63 122.55 C 93.50 122.28 93.25 121.73 93.12 121.45 C 93.81 121.44 95.20 121.42 95.90 121.41 C 95.76 121.69 95.48 122.25 95.34 122.54 C 99.94 121.97 104.57 121.55 109.14 120.71 C 109.46 122.08 109.77 123.47 110.03 124.86 C 111.64 124.44 113.25 124.05 114.87 123.65 C 114.50 124.10 113.77 124.99 113.41 125.43 C 100.26 131.88 85.34 132.05 71.03 132.99 C 63.72 133.25 56.22 133.76 49.10 131.67 C 42.51 129.77 35.81 127.69 30.07 123.82 C 32.38 122.27 34.59 124.25 36.72 125.06 C 39.14 126.23 41.80 126.72 44.41 127.24 C 44.85 127.27 45.73 127.33 46.17 127.36 C 46.70 127.67 47.76 128.27 48.29 128.57 C 50.35 125.37 47.58 121.58 49.39 118.35 C 51.09 114.81 51.87 110.96 52.16 107.07 C 51.02 108.72 49.68 110.24 47.80 111.06 C 44.95 112.29 44.01 115.48 42.71 118.03 C 42.15 115.93 41.52 113.85 40.95 111.75 C 40.93 107.08 41.30 102.36 40.34 97.75 C 40.17 94.30 40.30 90.63 38.00 87.79 L 38.87 87.36 C 38.61 87.01 38.09 86.30 37.83 85.94 C 36.68 86.38 35.55 86.86 34.45 87.39 C 34.10 86.95 33.39 86.07 33.04 85.63 C 34.91 82.11 37.45 79.01 40.37 76.32 C 41.14 76.45 41.91 76.56 42.68 76.66 C 42.59 79.62 42.01 82.90 43.43 85.60 C 45.22 86.66 47.22 87.28 49.13 88.07 C 48.88 90.55 49.25 93.03 49.86 95.43 C 51.31 95.18 53.21 95.36 53.81 93.64 C 54.64 91.06 54.29 88.29 54.36 85.63 C 55.36 85.01 56.36 84.37 57.33 83.71 C 58.42 83.90 59.53 84.07 60.61 84.32 C 62.67 85.77 64.79 87.13 66.95 88.44 C 70.43 86.54 74.01 84.78 77.32 82.56 C 83.17 82.56 86.04 76.37 89.70 72.75 C 89.32 71.60 88.92 70.46 88.52 69.32 C 89.40 67.05 91.02 65.24 93.02 63.90 C 95.06 64.27 97.09 64.71 99.12 65.15 C 98.97 65.69 98.68 66.77 98.53 67.32 C 98.12 68.24 97.67 69.14 97.20 70.04 C 100.97 70.18 104.92 70.24 108.35 68.42 C 112.84 66.13 116.94 63.12 121.47 60.88 M 44.18 90.35 C 43.89 94.05 43.54 97.79 44.01 101.50 C 45.46 98.21 46.09 93.37 44.18 90.35 M 82.39 98.32 C 81.97 99.97 80.48 102.55 82.75 103.48 C 82.82 104.14 82.98 105.46 83.06 106.12 C 86.08 103.36 88.13 99.62 89.88 95.97 C 90.98 93.99 89.28 92.35 87.79 91.30 L 88.29 90.28 C 85.05 91.66 83.99 95.46 82.39 98.32 M 59.31 103.86 C 61.77 107.07 65.71 110.77 69.96 110.40 C 70.42 105.65 71.66 100.82 71.02 96.06 C 70.75 95.83 70.22 95.38 69.96 95.15 C 65.27 96.01 62.57 100.76 59.31 103.86 M 59.23 126.07 C 58.93 126.40 58.33 127.07 58.02 127.40 C 58.77 130.61 63.12 125.17 59.23 126.07 Z" />
</g>
<g id="#567063fe">
<path fill="#567063" opacity="1.00" d=" M 64.68 62.94 C 69.26 62.20 73.93 61.80 78.55 62.48 L 79.40 62.58 C 74.49 62.51 69.59 62.91 64.68 62.94 Z" />
</g>
<g id="#acd6c2ff">
<path fill="#acd6c2" opacity="1.00" d=" M 51.76 67.02 C 56.14 65.88 60.13 63.40 64.68 62.94 C 69.59 62.91 74.49 62.51 79.40 62.58 C 80.73 62.73 82.06 62.88 83.39 63.03 C 78.59 64.92 73.40 64.17 68.38 64.32 C 68.10 66.40 67.82 68.47 67.55 70.54 C 69.50 70.87 71.45 71.24 73.37 71.75 L 71.49 72.46 C 71.45 72.47 71.37 72.50 71.33 72.51 C 66.29 73.86 61.54 76.31 57.35 79.38 C 57.40 81.42 59.52 82.76 60.61 84.32 C 59.53 84.07 58.42 83.90 57.33 83.71 C 56.36 84.37 55.36 85.01 54.36 85.63 C 52.64 86.50 50.90 87.31 49.13 88.07 C 47.22 87.28 45.22 86.66 43.43 85.60 C 42.01 82.90 42.59 79.62 42.68 76.66 C 41.91 76.56 41.14 76.45 40.37 76.32 C 42.04 74.65 43.60 72.87 45.21 71.15 C 47.52 69.98 49.69 68.57 51.76 67.02 Z" />
</g>
<g id="#a5d2baff">
<path fill="#a5d2ba" opacity="1.00" d=" M 83.39 63.03 C 86.61 63.13 89.83 63.42 93.02 63.90 C 91.02 65.24 89.40 67.05 88.52 69.32 C 88.92 70.46 89.32 71.60 89.70 72.75 C 86.04 76.37 83.17 82.56 77.32 82.56 C 81.37 79.66 85.46 76.40 87.86 71.94 C 87.97 70.46 86.38 69.71 85.09 70.02 C 81.13 70.01 77.17 70.63 73.37 71.75 C 71.45 71.24 69.50 70.87 67.55 70.54 C 67.82 68.47 68.10 66.40 68.38 64.32 C 73.40 64.17 78.59 64.92 83.39 63.03 Z" />
</g>
<g id="#6f9c73ff">
<path fill="#6f9c73" opacity="1.00" d=" M 175.70 81.53 C 179.34 76.53 173.91 70.35 177.79 65.58 C 180.29 70.21 183.63 74.37 185.60 79.28 C 189.55 88.39 193.31 98.46 191.00 108.51 C 188.61 103.23 190.51 97.08 188.12 91.76 C 187.13 90.92 185.83 90.61 184.69 90.07 C 184.12 91.66 183.54 93.24 182.93 94.82 C 181.44 93.46 180.18 91.89 179.19 90.14 C 179.05 92.42 179.40 94.95 178.01 96.93 C 178.43 91.68 177.67 86.42 175.70 81.53 Z" />
</g>
<g id="#263831d2">
<path fill="#263831" opacity="0.82" d=" M 36.37 79.18 C 36.93 75.04 36.89 70.05 40.19 67.02 C 39.15 70.23 38.25 73.47 37.59 76.78 C 40.04 74.79 42.28 72.44 45.21 71.15 C 43.60 72.87 42.04 74.65 40.37 76.32 C 37.45 79.01 34.91 82.11 33.04 85.63 C 31.65 88.42 30.27 91.23 28.70 93.93 C 29.52 88.36 33.06 83.59 36.37 79.18 Z" />
</g>
<g id="#365244ff">
<path fill="#365244" opacity="1.00" d=" M 73.37 71.75 C 77.17 70.63 81.13 70.01 85.09 70.02 C 86.38 69.71 87.97 70.46 87.86 71.94 C 85.46 76.40 81.37 79.66 77.32 82.56 C 74.01 84.78 70.43 86.54 66.95 88.44 C 64.79 87.13 62.67 85.77 60.61 84.32 C 59.52 82.76 57.40 81.42 57.35 79.38 C 61.54 76.31 66.29 73.86 71.33 72.51 C 67.89 76.11 62.61 76.81 58.84 80.01 C 59.74 80.95 60.63 81.90 61.55 82.82 C 63.48 84.40 65.89 87.32 68.63 85.85 C 75.41 82.66 82.06 78.35 86.26 71.99 C 82.83 71.93 79.31 71.78 76.02 72.92 C 74.50 72.92 72.99 72.71 71.49 72.46 L 73.37 71.75 Z" />
</g>
<g id="#79a591ff">
<path fill="#79a591" opacity="1.00" d=" M 122.24 77.53 C 122.58 74.62 122.06 71.25 124.50 69.07 C 127.94 82.58 130.10 96.42 131.65 110.27 C 131.10 111.46 130.73 112.81 129.76 113.75 C 127.79 113.91 125.80 113.62 123.83 113.87 C 120.80 115.46 118.44 118.04 115.86 120.24 C 116.01 120.79 116.15 121.35 116.27 121.91 C 115.80 122.49 115.34 123.09 114.87 123.65 C 113.25 124.05 111.64 124.44 110.03 124.86 C 109.77 123.47 109.46 122.08 109.14 120.71 C 111.17 119.98 113.45 119.52 115.12 118.09 C 116.35 114.29 115.42 110.15 115.14 106.24 C 115.26 103.73 115.79 101.24 116.89 98.97 C 120.08 92.27 121.50 84.87 122.24 77.53 Z" />
</g>
<g id="#649278ff">
<path fill="#649278" opacity="1.00" d=" M 71.33 72.51 C 71.37 72.50 71.45 72.47 71.49 72.46 C 72.99 72.71 74.50 72.92 76.02 72.92 C 72.11 77.58 65.61 78.45 61.55 82.82 C 60.63 81.90 59.74 80.95 58.84 80.01 C 62.61 76.81 67.89 76.11 71.33 72.51 Z" />
</g>
<g id="#4b8066ff">
<path fill="#4b8066" opacity="1.00" d=" M 76.02 72.92 C 79.31 71.78 82.83 71.93 86.26 71.99 C 82.06 78.35 75.41 82.66 68.63 85.85 C 65.89 87.32 63.48 84.40 61.55 82.82 C 65.61 78.45 72.11 77.58 76.02 72.92 Z" />
<path fill="#4b8066" opacity="1.00" d=" M 40.34 97.75 C 41.30 102.36 40.93 107.08 40.95 111.75 C 40.81 112.33 40.52 113.48 40.37 114.06 L 39.39 114.53 L 39.41 113.19 C 39.73 108.67 39.80 104.15 39.68 99.63 L 40.34 97.75 Z" />
</g>
<g id="#a0d6baff">
<path fill="#a0d6ba" opacity="1.00" d=" M 33.04 85.63 C 33.39 86.07 34.10 86.95 34.45 87.39 C 35.55 86.86 36.68 86.38 37.83 85.94 C 38.09 86.30 38.61 87.01 38.87 87.36 L 38.00 87.79 C 32.54 90.29 29.04 95.95 27.81 101.67 C 27.49 101.01 27.17 100.35 26.86 99.69 C 27.34 98.45 27.76 97.18 28.13 95.90 C 28.31 95.24 28.50 94.59 28.70 93.93 C 30.27 91.23 31.65 88.42 33.04 85.63 Z" />
</g>
<g id="#304e40ff">
<path fill="#304e40" opacity="1.00" d=" M 49.13 88.07 C 50.90 87.31 52.64 86.50 54.36 85.63 C 54.29 88.29 54.64 91.06 53.81 93.64 C 53.21 95.36 51.31 95.18 49.86 95.43 C 49.25 93.03 48.88 90.55 49.13 88.07 M 51.05 94.26 C 53.69 93.08 52.77 90.18 52.80 87.89 C 49.60 88.18 51.07 92.17 51.05 94.26 Z" />
</g>
<g id="#494c49ed">
<path fill="#494c49" opacity="0.93" d=" M 27.81 101.67 C 29.04 95.95 32.54 90.29 38.00 87.79 C 40.30 90.63 40.17 94.30 40.34 97.75 L 39.68 99.63 C 39.50 98.91 39.14 97.47 38.96 96.75 C 39.91 94.25 37.17 92.63 36.55 95.70 C 35.74 97.64 34.88 99.59 34.48 101.67 C 33.58 106.14 33.33 110.85 34.63 115.27 C 34.80 115.94 35.14 117.29 35.31 117.96 C 36.48 118.15 37.62 118.11 38.75 117.84 C 38.99 116.74 39.21 115.64 39.39 114.53 L 40.37 114.06 C 40.13 115.75 39.96 117.44 39.80 119.14 C 36.21 119.78 31.95 118.72 29.86 115.54 C 30.77 115.89 32.59 116.59 33.49 116.94 C 31.20 108.19 32.32 98.29 38.14 91.13 C 38.35 88.99 35.65 90.26 34.97 91.09 C 30.96 94.75 29.62 100.22 28.09 105.21 C 27.50 107.11 27.63 109.11 27.65 111.07 C 27.38 111.28 26.83 111.69 26.56 111.89 C 26.56 110.38 26.57 108.86 26.59 107.35 C 26.05 106.68 25.52 106.02 24.98 105.35 C 24.87 110.50 23.58 115.55 23.62 120.71 C 25.44 128.22 33.46 130.98 38.42 135.94 C 34.53 134.85 31.46 132.03 28.46 129.47 C 26.61 127.71 24.40 126.15 23.25 123.80 C 22.87 119.97 23.03 116.12 23.24 112.29 C 23.94 106.07 25.57 99.88 28.21 94.20 L 28.13 95.90 C 27.76 97.18 27.34 98.45 26.86 99.69 C 27.17 100.35 27.49 101.01 27.81 101.67 M 27.32 104.24 C 27.19 103.78 26.92 102.87 26.79 102.41 C 24.66 101.46 26.05 106.28 27.32 104.24 Z" />
</g>
<g id="#50886bff">
<path fill="#50886b" opacity="1.00" d=" M 51.05 94.26 C 51.07 92.17 49.60 88.18 52.80 87.89 C 52.77 90.18 53.69 93.08 51.05 94.26 Z" />
</g>
<g id="#81b39cff">
<path fill="#81b39c" opacity="1.00" d=" M 129.87 88.70 C 133.91 92.27 137.60 96.19 141.35 100.06 C 138.11 98.94 135.63 96.55 133.19 94.25 C 133.35 97.08 133.22 99.93 132.18 102.60 C 131.74 97.92 130.96 93.27 129.87 88.70 Z" />
</g>
<g id="#ffffffff">
<path fill="#ffffff" opacity="1.00" d=" M 34.97 91.09 C 35.65 90.26 38.35 88.99 38.14 91.13 C 32.32 98.29 31.20 108.19 33.49 116.94 C 32.59 116.59 30.77 115.89 29.86 115.54 C 29.82 115.51 29.73 115.43 29.69 115.40 C 29.21 114.78 28.25 113.53 27.77 112.91 C 27.74 112.45 27.68 111.53 27.65 111.07 C 27.63 109.11 27.50 107.11 28.09 105.21 C 29.62 100.22 30.96 94.75 34.97 91.09 Z" />
<path fill="#ffffff" opacity="1.00" d=" M 87.92 112.03 C 89.00 103.81 93.91 96.28 101.02 92.01 C 95.43 100.40 94.53 111.82 98.60 121.03 C 97.92 121.12 96.57 121.31 95.90 121.41 C 95.20 121.42 93.81 121.44 93.12 121.45 C 91.51 121.28 89.87 121.13 88.37 120.50 C 86.61 118.07 87.69 114.78 87.92 112.03 Z" />
<path fill="#ffffff" opacity="1.00" d=" M 103.42 104.02 C 103.61 102.01 104.44 100.02 106.57 99.46 C 109.95 103.34 109.11 109.14 107.29 113.54 L 106.67 113.59 C 106.27 113.53 105.49 113.41 105.09 113.35 C 103.23 110.60 103.17 107.21 103.42 104.02 Z" />
<path fill="#ffffff" opacity="1.00" d=" M 37.45 103.30 C 37.68 101.84 38.32 100.62 39.37 99.63 C 39.58 104.15 39.46 108.67 39.41 113.19 L 39.39 114.53 C 38.71 113.59 38.03 112.66 37.36 111.72 C 37.15 108.92 37.21 106.10 37.45 103.30 Z" />
<path fill="#ffffff" opacity="1.00" d=" M 53.65 180.55 C 54.35 178.86 55.09 177.18 56.00 175.59 C 57.53 176.17 58.56 177.53 59.82 178.52 C 57.78 179.23 55.70 179.86 53.65 180.55 Z" />
<path fill="#ffffff" opacity="1.00" d=" M 63.17 180.61 C 63.79 179.10 64.59 177.68 65.49 176.33 C 66.16 177.29 66.83 178.27 67.50 179.24 C 67.32 179.63 66.97 180.42 66.80 180.81 L 65.96 181.00 C 65.26 180.90 63.86 180.71 63.17 180.61 Z" />
<path fill="#ffffff" opacity="1.00" d=" M 150.54 177.01 L 150.82 176.77 C 151.83 177.66 152.84 178.55 153.86 179.43 C 152.83 179.80 151.80 180.19 150.79 180.61 C 150.67 180.66 150.42 180.76 150.29 180.81 C 150.45 179.54 150.54 178.28 150.54 177.01 Z" />
<path fill="#ffffff" opacity="1.00" d=" M 101.24 179.51 C 102.88 179.57 104.02 180.79 104.91 182.04 C 103.84 182.42 102.74 182.61 101.62 182.61 C 101.49 181.99 101.23 180.75 101.10 180.13 L 101.24 179.51 Z" />
<path fill="#ffffff" opacity="1.00" d=" M 165.98 181.18 C 166.46 180.58 167.44 179.38 167.92 178.78 C 168.58 179.16 169.90 179.93 170.56 180.31 C 169.64 181.93 167.47 181.93 165.98 181.18 Z" />
</g>
<g id="#52504cff">
<path fill="#52504c" opacity="1.00" d=" M 91.32 99.32 C 94.27 95.45 97.92 90.88 103.04 90.28 C 110.31 91.93 113.34 99.81 115.14 106.24 C 115.42 110.15 116.35 114.29 115.12 118.09 C 113.45 119.52 111.17 119.98 109.14 120.71 C 104.57 121.55 99.94 121.97 95.34 122.54 C 95.48 122.25 95.76 121.69 95.90 121.41 C 96.57 121.31 97.92 121.12 98.60 121.03 C 94.53 111.82 95.43 100.40 101.02 92.01 C 93.91 96.28 89.00 103.81 87.92 112.03 C 87.69 114.78 86.61 118.07 88.37 120.50 C 89.87 121.13 91.51 121.28 93.12 121.45 C 93.25 121.73 93.50 122.28 93.63 122.55 C 90.98 122.65 88.28 122.57 85.94 121.18 C 85.69 113.63 86.47 105.47 91.32 99.32 M 101.18 94.07 L 101.53 94.69 C 100.41 96.58 99.07 98.43 98.76 100.67 C 96.72 105.61 98.12 111.17 98.19 116.35 L 98.89 116.12 C 98.95 117.81 99.10 119.98 101.13 120.47 C 105.10 120.09 109.11 119.34 112.80 117.80 C 114.74 117.12 114.60 114.86 114.61 113.20 C 113.91 105.47 111.84 96.57 104.67 92.32 C 103.27 91.26 102.23 93.51 101.18 94.07 Z" />
</g>
<g id="#3f5e51ff">
<path fill="#3f5e51" opacity="1.00" d=" M 44.18 90.35 C 46.09 93.37 45.46 98.21 44.01 101.50 C 43.54 97.79 43.89 94.05 44.18 90.35 Z" />
</g>
<g id="#3b6f55ff">
<path fill="#3b6f55" opacity="1.00" d=" M 82.39 98.32 C 83.99 95.46 85.05 91.66 88.29 90.28 L 87.79 91.30 C 85.30 94.99 83.36 99.04 82.75 103.48 C 80.48 102.55 81.97 99.97 82.39 98.32 Z" />
<path fill="#3b6f55" opacity="1.00" d=" M 44.41 127.24 C 44.58 126.61 44.91 125.36 45.08 124.74 C 45.35 125.39 45.90 126.71 46.17 127.36 C 45.73 127.33 44.85 127.27 44.41 127.24 Z" />
<path fill="#3b6f55" opacity="1.00" d=" M 166.94 150.46 C 167.20 148.92 167.46 147.38 167.64 145.83 C 167.82 147.65 168.00 149.47 168.12 151.29 C 168.09 152.66 168.08 154.04 168.11 155.41 C 166.86 157.32 166.07 159.98 163.64 160.69 C 161.39 161.75 159.51 159.68 157.91 158.43 C 159.59 154.26 162.93 151.12 165.90 147.86 C 166.16 148.51 166.68 149.81 166.94 150.46 Z" />
</g>
<g id="#abd4bdff">
<path fill="#abd4bd" opacity="1.00" d=" M 82.75 103.48 C 83.36 99.04 85.30 94.99 87.79 91.30 C 89.28 92.35 90.98 93.99 89.88 95.97 C 88.13 99.62 86.08 103.36 83.06 106.12 C 82.98 105.46 82.82 104.14 82.75 103.48 Z" />
</g>
<g id="#a74048ff">
<path fill="#a74048" opacity="1.00" d=" M 101.18 94.07 C 102.23 93.51 103.27 91.26 104.67 92.32 C 111.84 96.57 113.91 105.47 114.61 113.20 C 112.16 113.27 109.72 113.34 107.29 113.54 C 109.11 109.14 109.95 103.34 106.57 99.46 C 104.78 97.98 103.29 96.19 101.53 94.69 L 101.18 94.07 Z" />
<path fill="#a74048" opacity="1.00" d=" M 98.19 116.35 C 98.12 111.17 96.72 105.61 98.76 100.67 C 98.99 102.51 98.08 105.01 100.02 106.19 C 101.47 106.30 102.30 104.69 103.42 104.02 C 103.17 107.21 103.23 110.60 105.09 113.35 C 105.49 113.41 106.27 113.53 106.67 113.59 C 104.06 114.40 101.50 115.32 98.89 116.12 L 98.19 116.35 Z" />
</g>
<g id="#b33a45ff">
<path fill="#b33a45" opacity="1.00" d=" M 36.55 95.70 C 37.17 92.63 39.91 94.25 38.96 96.75 C 38.36 96.48 37.16 95.96 36.55 95.70 Z" />
</g>
<g id="#719f90ff">
<path fill="#719f90" opacity="1.00" d=" M 133.19 94.25 C 135.63 96.55 138.11 98.94 141.35 100.06 C 142.02 100.59 142.69 101.14 143.35 101.70 C 141.09 102.57 138.93 103.71 137.00 105.18 C 140.12 111.86 143.95 118.19 147.38 124.71 C 152.37 125.36 157.90 126.91 162.63 124.55 C 163.93 122.29 162.99 119.56 162.92 117.14 C 162.94 116.76 162.98 116.00 163.01 115.62 C 170.42 122.37 176.03 130.90 179.95 140.09 C 184.39 151.78 182.54 165.33 176.68 176.19 C 175.96 177.43 175.37 179.00 174.08 179.78 C 173.58 179.85 172.59 180.00 172.09 180.07 C 170.68 179.22 169.53 177.84 167.93 177.38 C 166.44 178.34 165.31 179.74 164.11 181.03 C 162.57 179.29 161.15 176.26 158.43 176.59 C 157.49 177.66 157.01 179.03 156.33 180.25 C 154.89 178.80 153.44 177.36 151.94 175.98 C 151.66 176.18 151.10 176.57 150.82 176.77 L 150.54 177.01 C 150.25 176.85 149.68 176.52 149.40 176.35 C 149.10 176.03 148.50 175.39 148.20 175.07 C 147.12 172.18 145.42 169.47 145.03 166.37 C 145.31 164.47 145.68 162.58 146.03 160.69 C 149.82 160.57 153.62 160.48 157.38 159.96 C 158.90 161.02 160.47 161.97 162.02 162.98 C 164.03 162.04 166.45 161.56 167.94 159.79 C 168.14 158.34 168.20 156.88 168.11 155.41 C 168.08 154.04 168.09 152.66 168.12 151.29 C 169.14 144.62 168.16 137.85 168.52 131.14 C 164.64 132.71 161.17 135.06 157.55 137.13 C 156.55 136.99 155.69 137.27 155.00 137.97 C 152.17 140.54 150.00 143.72 147.97 146.93 C 147.81 143.25 147.53 139.57 146.72 135.97 C 146.62 136.56 146.43 137.73 146.34 138.32 C 143.19 136.55 141.21 133.23 138.07 131.56 C 133.80 132.22 129.77 133.87 125.79 135.48 C 125.20 135.00 124.61 134.53 124.01 134.07 C 124.89 132.63 125.63 131.11 126.39 129.61 C 126.01 129.62 125.24 129.66 124.86 129.68 C 121.37 129.56 118.93 132.51 116.09 134.09 C 112.56 136.78 107.39 134.86 104.08 138.01 C 101.15 139.95 99.19 143.31 95.93 144.69 C 88.01 145.77 80.05 147.65 72.02 146.61 C 74.55 146.24 77.09 146.00 79.64 145.78 C 79.42 145.41 79.00 144.68 78.78 144.32 C 85.29 143.12 91.65 140.82 96.99 136.85 C 99.47 134.97 102.75 134.25 104.76 131.77 C 107.39 128.19 112.69 128.84 115.63 125.65 C 116.49 124.59 116.61 123.18 116.27 121.91 C 116.15 121.35 116.01 120.79 115.86 120.24 C 118.44 118.04 120.80 115.46 123.83 113.87 C 125.80 113.62 127.79 113.91 129.76 113.75 C 130.73 112.81 131.10 111.46 131.65 110.27 C 131.92 110.37 132.45 110.58 132.72 110.68 C 132.54 107.99 132.27 105.30 132.18 102.60 C 133.22 99.93 133.35 97.08 133.19 94.25 Z" />
</g>
<g id="#344e40ff">
<path fill="#344e40" opacity="1.00" d=" M 59.31 103.86 C 62.57 100.76 65.27 96.01 69.96 95.15 C 70.22 95.38 70.75 95.83 71.02 96.06 C 71.66 100.82 70.42 105.65 69.96 110.40 C 65.71 110.77 61.77 107.07 59.31 103.86 M 61.26 104.09 C 63.26 106.44 65.99 108.17 68.90 109.21 C 68.94 105.06 68.97 100.89 69.81 96.81 C 66.26 98.00 63.32 101.09 61.26 104.09 Z" />
</g>
<g id="#b16d76ff">
<path fill="#b16d76" opacity="1.00" d=" M 98.76 100.67 C 99.07 98.43 100.41 96.58 101.53 94.69 C 103.29 96.19 104.78 97.98 106.57 99.46 C 104.44 100.02 103.61 102.01 103.42 104.02 C 102.30 104.69 101.47 106.30 100.02 106.19 C 98.08 105.01 98.99 102.51 98.76 100.67 Z" />
</g>
<g id="#ae6973ff">
<path fill="#ae6973" opacity="1.00" d=" M 36.55 95.70 C 37.16 95.96 38.36 96.48 38.96 96.75 C 39.14 97.47 39.50 98.91 39.68 99.63 C 39.80 104.15 39.73 108.67 39.41 113.19 C 39.46 108.67 39.58 104.15 39.37 99.63 C 38.32 100.62 37.68 101.84 37.45 103.30 C 36.84 103.49 35.61 103.88 35.00 104.07 C 34.87 103.47 34.61 102.27 34.48 101.67 C 34.88 99.59 35.74 97.64 36.55 95.70 Z" />
</g>
<g id="#518164ff">
<path fill="#518164" opacity="1.00" d=" M 61.26 104.09 C 63.32 101.09 66.26 98.00 69.81 96.81 C 68.97 100.89 68.94 105.06 68.90 109.21 C 65.99 108.17 63.26 106.44 61.26 104.09 Z" />
</g>
<g id="#93d0b2ff">
<path fill="#93d0b2" opacity="1.00" d=" M 27.32 104.24 C 26.05 106.28 24.66 101.46 26.79 102.41 C 26.92 102.87 27.19 103.78 27.32 104.24 Z" />
</g>
<g id="#a63d44ff">
<path fill="#a63d44" opacity="1.00" d=" M 34.63 115.27 C 33.33 110.85 33.58 106.14 34.48 101.67 C 34.61 102.27 34.87 103.47 35.00 104.07 C 35.61 103.88 36.84 103.49 37.45 103.30 C 37.21 106.10 37.15 108.92 37.36 111.72 C 34.63 110.55 34.39 113.28 34.63 115.27 Z" />
</g>
<g id="#47745cff">
<path fill="#47745c" opacity="1.00" d=" M 138.72 105.12 C 140.65 104.32 142.57 102.80 144.77 103.18 C 147.30 104.72 149.53 106.71 151.89 108.49 C 153.90 112.02 157.44 114.18 160.52 116.67 L 161.25 116.27 C 161.64 116.04 162.40 115.57 162.78 115.34 L 163.01 115.62 C 162.98 116.00 162.94 116.76 162.92 117.14 C 162.12 119.23 161.69 121.44 161.53 123.67 C 157.48 124.34 153.30 124.39 149.27 123.58 C 147.55 123.15 147.02 121.21 146.15 119.89 C 143.68 114.97 140.63 110.31 138.72 105.12 Z" />
</g>
<g id="#9ecfb9ff">
<path fill="#9ecfb9" opacity="1.00" d=" M 24.98 105.35 C 25.52 106.02 26.05 106.68 26.59 107.35 C 26.57 108.86 26.56 110.38 26.56 111.89 C 26.83 111.69 27.38 111.28 27.65 111.07 C 27.68 111.53 27.74 112.45 27.77 112.91 C 26.60 114.36 27.89 117.06 29.69 115.40 C 29.73 115.43 29.82 115.51 29.86 115.54 C 31.95 118.72 36.21 119.78 39.80 119.14 C 39.96 117.44 40.13 115.75 40.37 114.06 C 40.52 113.48 40.81 112.33 40.95 111.75 C 41.52 113.85 42.15 115.93 42.71 118.03 C 44.01 115.48 44.95 112.29 47.80 111.06 C 49.68 110.24 51.02 108.72 52.16 107.07 C 51.87 110.96 51.09 114.81 49.39 118.35 C 47.58 121.58 50.35 125.37 48.29 128.57 C 47.76 128.27 46.70 127.67 46.17 127.36 C 45.90 126.71 45.35 125.39 45.08 124.74 C 44.91 125.36 44.58 126.61 44.41 127.24 C 41.80 126.72 39.14 126.23 36.72 125.06 C 34.59 124.25 32.38 122.27 30.07 123.82 C 29.48 123.42 28.89 123.00 28.33 122.56 C 28.04 122.02 27.46 120.93 27.17 120.39 L 27.01 120.10 C 25.88 120.28 24.75 120.50 23.62 120.71 C 23.58 115.55 24.87 110.50 24.98 105.35 Z" />
</g>
<g id="#5b8a70ff">
<path fill="#5b8a70" opacity="1.00" d=" M 151.89 108.49 C 155.48 110.45 159.02 112.74 161.25 116.27 L 160.52 116.67 C 157.44 114.18 153.90 112.02 151.89 108.49 Z" />
</g>
<g id="#c85f67ff">
<path fill="#c85f67" opacity="1.00" d=" M 34.63 115.27 C 34.39 113.28 34.63 110.55 37.36 111.72 C 38.03 112.66 38.71 113.59 39.39 114.53 C 39.21 115.64 38.99 116.74 38.75 117.84 C 37.62 118.11 36.48 118.15 35.31 117.96 C 35.14 117.29 34.80 115.94 34.63 115.27 Z" />
</g>
<g id="#0000008d">
<path fill="#000000" opacity="0.55" d=" M 22.12 114.10 C 22.40 113.65 22.96 112.74 23.24 112.29 C 23.03 116.12 22.87 119.97 23.25 123.80 C 20.73 121.55 22.41 117.23 22.12 114.10 Z" />
</g>
<g id="#c45c64ff">
<path fill="#c45c64" opacity="1.00" d=" M 106.67 113.59 L 107.29 113.54 C 109.72 113.34 112.16 113.27 114.61 113.20 C 114.60 114.86 114.74 117.12 112.80 117.80 C 109.11 119.34 105.10 120.09 101.13 120.47 C 99.10 119.98 98.95 117.81 98.89 116.12 C 101.50 115.32 104.06 114.40 106.67 113.59 Z" />
</g>
<g id="#7aa692ff">
<path fill="#7aa692" opacity="1.00" d=" M 23.62 120.71 C 24.75 120.50 25.88 120.28 27.01 120.10 L 27.17 120.39 C 25.89 121.29 26.19 122.73 27.10 123.78 C 30.89 127.31 36.47 128.07 39.83 132.15 C 51.24 139.66 64.60 147.09 78.78 144.32 C 79.00 144.68 79.42 145.41 79.64 145.78 C 77.09 146.00 74.55 146.24 72.02 146.61 C 80.05 147.65 88.01 145.77 95.93 144.69 C 99.19 143.31 101.15 139.95 104.08 138.01 C 107.39 134.86 112.56 136.78 116.09 134.09 C 118.93 132.51 121.37 129.56 124.86 129.68 C 123.08 132.19 121.83 135.35 119.04 136.94 C 111.43 141.45 103.20 145.24 94.37 146.52 C 86.05 147.93 77.50 149.04 69.07 147.99 C 62.82 146.54 56.33 145.52 50.60 142.45 C 46.96 140.77 43.77 138.22 39.99 136.83 C 39.69 136.71 39.10 136.47 38.80 136.35 L 38.42 135.94 C 33.46 130.98 25.44 128.22 23.62 120.71 Z" />
</g>
<g id="#394240ff">
<path fill="#394240" opacity="1.00" d=" M 27.10 123.78 C 26.19 122.73 25.89 121.29 27.17 120.39 C 27.46 120.93 28.04 122.02 28.33 122.56 C 28.89 123.00 29.48 123.42 30.07 123.82 C 35.81 127.69 42.51 129.77 49.10 131.67 C 56.22 133.76 63.72 133.25 71.03 132.99 C 85.34 132.05 100.26 131.88 113.41 125.43 C 113.77 124.99 114.50 124.10 114.87 123.65 C 115.34 123.09 115.80 122.49 116.27 121.91 C 116.61 123.18 116.49 124.59 115.63 125.65 C 112.69 128.84 107.39 128.19 104.76 131.77 C 102.75 134.25 99.47 134.97 96.99 136.85 C 91.65 140.82 85.29 143.12 78.78 144.32 C 64.60 147.09 51.24 139.66 39.83 132.15 C 36.47 128.07 30.89 127.31 27.10 123.78 M 40.30 130.34 C 40.85 130.93 40.85 130.93 40.30 130.34 M 100.16 132.63 C 101.10 133.70 103.46 132.40 102.75 131.08 C 101.77 130.24 99.04 131.14 100.16 132.63 M 43.24 132.01 C 43.02 133.23 45.01 134.19 45.97 133.53 C 46.44 132.18 44.20 131.26 43.24 132.01 M 80.94 134.06 C 70.27 134.67 59.46 135.60 48.89 133.48 C 48.50 133.81 47.72 134.47 47.33 134.80 C 48.78 136.55 51.13 137.12 53.07 138.17 L 53.28 138.10 C 64.58 144.52 79.28 145.15 90.66 138.65 C 93.65 137.41 96.46 135.71 99.00 133.69 C 98.92 133.29 98.77 132.50 98.69 132.11 C 92.80 132.65 86.93 134.22 80.94 134.06 Z" />
</g>
<g id="#395b40ff">
<path fill="#395b40" opacity="1.00" d=" M 174.98 127.34 C 178.53 126.45 181.89 124.93 184.82 122.72 C 184.81 123.36 184.80 124.63 184.80 125.27 C 184.51 126.24 183.82 126.78 182.74 126.88 C 182.40 126.95 181.71 127.07 181.36 127.14 C 179.48 127.47 177.59 127.83 175.71 128.17 C 175.52 127.96 175.16 127.55 174.98 127.34 Z" />
</g>
<g id="#476457ff">
<path fill="#476457" opacity="1.00" d=" M 59.23 126.07 C 63.12 125.17 58.77 130.61 58.02 127.40 C 58.33 127.07 58.93 126.40 59.23 126.07 Z" />
</g>
<g id="#0e160fca">
<path fill="#0e160f" opacity="0.79" d=" M 181.36 127.14 C 181.71 127.07 182.40 126.95 182.74 126.88 C 183.18 128.30 180.92 129.70 179.74 128.97 C 180.14 128.51 180.96 127.59 181.36 127.14 Z" />
</g>
<g id="#a7a6c3ff">
<path fill="#a7a6c3" opacity="1.00" d=" M 40.30 130.34 C 40.85 130.93 40.85 130.93 40.30 130.34 Z" />
</g>
<g id="#2f433bf2">
<path fill="#2f433b" opacity="0.95" d=" M 124.86 129.68 C 125.24 129.66 126.01 129.62 126.39 129.61 C 125.63 131.11 124.89 132.63 124.01 134.07 C 120.59 137.10 117.04 140.06 112.94 142.13 C 106.04 145.59 98.47 147.11 91.01 148.77 C 84.21 149.74 77.32 150.66 70.47 149.61 C 65.83 149.21 61.39 147.76 56.93 146.54 C 52.29 145.28 48.05 142.96 43.97 140.47 C 43.85 146.60 44.53 152.77 46.37 158.63 C 49.21 154.21 53.76 151.45 58.65 149.81 C 59.25 150.88 59.79 151.99 60.27 153.13 C 60.11 153.81 59.78 155.18 59.62 155.87 C 59.37 154.85 58.87 152.82 58.62 151.80 C 56.15 151.95 53.98 153.15 52.04 154.58 C 50.17 156.15 48.65 158.07 47.18 160.00 C 46.69 159.58 45.72 158.73 45.23 158.31 C 42.86 152.18 43.14 145.43 42.59 138.97 C 41.19 138.75 40.32 138.03 39.99 136.83 C 43.77 138.22 46.96 140.77 50.60 142.45 C 56.33 145.52 62.82 146.54 69.07 147.99 C 77.50 149.04 86.05 147.93 94.37 146.52 C 103.20 145.24 111.43 141.45 119.04 136.94 C 121.83 135.35 123.08 132.19 124.86 129.68 Z" />
</g>
<g id="#c0c6dbff">
<path fill="#c0c6db" opacity="1.00" d=" M 100.16 132.63 C 99.04 131.14 101.77 130.24 102.75 131.08 C 103.46 132.40 101.10 133.70 100.16 132.63 Z" />
</g>
<g id="#8bc7acff">
<path fill="#8bc7ac" opacity="1.00" d=" M 157.55 137.13 C 161.17 135.06 164.64 132.71 168.52 131.14 C 168.16 137.85 169.14 144.62 168.12 151.29 C 168.00 149.47 167.82 147.65 167.64 145.83 C 167.29 143.79 167.27 140.85 165.04 139.96 C 161.35 141.31 158.17 143.75 155.09 146.14 C 153.62 147.49 151.66 148.80 151.33 150.92 C 152.69 154.31 154.86 157.34 157.38 159.96 C 153.62 160.48 149.82 160.57 146.03 160.69 C 145.68 162.58 145.31 164.47 145.03 166.37 C 144.85 163.71 144.32 160.89 145.46 158.36 C 147.20 154.32 147.68 149.78 150.06 146.00 C 152.09 142.69 154.54 139.61 157.55 137.13 Z" />
</g>
<g id="#8c7786ff">
<path fill="#8c7786" opacity="1.00" d=" M 43.24 132.01 C 44.20 131.26 46.44 132.18 45.97 133.53 C 45.01 134.19 43.02 133.23 43.24 132.01 Z" />
</g>
<g id="#8d6b80ff">
<path fill="#8d6b80" opacity="1.00" d=" M 80.94 134.06 C 86.93 134.22 92.80 132.65 98.69 132.11 C 98.77 132.50 98.92 133.29 99.00 133.69 C 96.46 135.71 93.65 137.41 90.66 138.65 C 85.32 138.62 80.31 136.53 75.05 135.94 C 67.75 135.07 60.26 135.82 53.28 138.10 L 53.07 138.17 C 51.13 137.12 48.78 136.55 47.33 134.80 C 47.72 134.47 48.50 133.81 48.89 133.48 C 59.46 135.60 70.27 134.67 80.94 134.06 Z" />
</g>
<g id="#7fb098ff">
<path fill="#7fb098" opacity="1.00" d=" M 125.79 135.48 C 129.77 133.87 133.80 132.22 138.07 131.56 C 141.21 133.23 143.19 136.55 146.34 138.32 C 146.98 146.40 146.09 154.86 141.95 161.98 C 137.62 170.35 132.24 178.96 123.49 183.24 C 122.55 182.10 121.59 181.00 120.58 179.93 C 119.43 180.83 118.31 181.78 117.20 182.73 C 116.90 182.22 116.29 181.20 115.99 180.69 C 118.63 177.96 122.38 176.71 125.18 174.17 C 133.14 168.10 137.26 158.49 139.94 149.13 C 140.92 145.08 142.64 140.77 140.91 136.67 C 140.21 136.50 139.52 136.33 138.82 136.16 C 137.68 134.71 135.92 133.88 134.07 134.33 C 126.91 136.20 120.13 139.51 114.46 144.31 C 114.08 143.76 113.32 142.67 112.94 142.13 C 117.04 140.06 120.59 137.10 124.01 134.07 C 124.61 134.53 125.20 135.00 125.79 135.48 Z" />
</g>
<g id="#94caaeff">
<path fill="#94caae" opacity="1.00" d=" M 114.46 144.31 C 120.13 139.51 126.91 136.20 134.07 134.33 C 135.92 133.88 137.68 134.71 138.82 136.16 C 139.52 136.33 140.21 136.50 140.91 136.67 C 142.64 140.77 140.92 145.08 139.94 149.13 C 137.26 158.49 133.14 168.10 125.18 174.17 C 122.38 176.71 118.63 177.96 115.99 180.69 C 116.29 181.20 116.90 182.22 117.20 182.73 C 116.96 182.93 116.48 183.33 116.24 183.53 C 114.73 181.92 113.48 179.70 111.16 179.18 C 109.57 180.04 108.35 181.41 107.06 182.65 C 105.73 180.99 104.39 179.36 102.90 177.84 C 103.16 175.80 103.46 173.77 103.82 171.76 C 105.20 172.76 106.39 174.13 108.06 174.67 C 111.30 174.19 115.62 173.01 116.28 169.25 C 117.49 164.05 120.17 159.05 119.41 153.56 C 114.89 153.52 111.03 156.22 107.25 158.36 C 108.73 153.98 110.71 149.80 113.03 145.81 C 113.39 145.43 114.11 144.68 114.46 144.31 M 119.86 150.15 C 121.36 152.61 123.13 156.87 126.73 155.85 C 130.55 153.72 127.55 149.06 126.83 145.96 C 124.01 146.32 121.77 148.18 119.86 150.15 Z" />
</g>
<g id="#b990a6ff">
<path fill="#b990a6" opacity="1.00" d=" M 53.28 138.10 C 60.26 135.82 67.75 135.07 75.05 135.94 C 80.31 136.53 85.32 138.62 90.66 138.65 C 79.28 145.15 64.58 144.52 53.28 138.10 Z" />
</g>
<g id="#2b3c36ed">
<path fill="#2b3c36" opacity="0.93" d=" M 146.72 135.97 C 147.53 139.57 147.81 143.25 147.97 146.93 C 150.00 143.72 152.17 140.54 155.00 137.97 C 155.69 137.27 156.55 136.99 157.55 137.13 C 154.54 139.61 152.09 142.69 150.06 146.00 C 147.68 149.78 147.20 154.32 145.46 158.36 C 144.32 160.89 144.85 163.71 145.03 166.37 C 145.42 169.47 147.12 172.18 148.20 175.07 C 146.21 173.84 145.66 171.36 144.56 169.44 C 142.97 169.19 141.38 168.99 139.80 168.74 C 135.81 174.50 131.60 180.75 124.87 183.50 C 122.86 184.12 121.29 185.47 119.91 186.99 C 118.71 185.99 117.57 184.87 116.17 184.15 C 113.98 184.88 112.11 186.29 110.02 187.24 C 109.16 186.11 108.41 184.89 107.73 183.65 C 105.37 183.04 102.98 183.46 100.59 183.43 C 100.49 182.43 100.28 180.44 100.17 179.44 C 100.40 179.61 100.87 179.96 101.10 180.13 C 101.23 180.75 101.49 181.99 101.62 182.61 C 102.74 182.61 103.84 182.42 104.91 182.04 C 104.02 180.79 102.88 179.57 101.24 179.51 L 101.01 179.47 C 101.82 177.69 102.06 175.77 102.39 173.87 C 100.40 172.75 98.47 173.61 96.62 174.54 L 96.94 172.51 L 97.36 172.85 L 97.64 172.46 L 97.28 172.07 C 97.03 171.50 96.53 170.35 96.28 169.78 C 98.22 170.84 100.16 171.89 102.07 172.99 C 102.79 170.53 103.41 167.98 103.03 165.41 C 101.02 165.27 99.00 165.14 97.00 164.88 C 95.51 164.60 94.03 164.28 92.55 163.96 C 93.44 165.46 94.25 166.99 95.07 168.52 L 95.38 169.10 C 93.31 167.90 92.41 165.57 91.22 163.63 C 88.49 162.61 85.49 160.32 83.01 163.02 C 82.97 162.43 82.88 161.25 82.84 160.66 C 78.72 157.97 73.49 156.29 70.65 152.09 C 71.94 152.81 73.21 153.55 74.47 154.34 C 77.58 156.41 80.93 158.11 84.32 159.69 C 89.45 162.19 95.24 162.65 100.78 163.64 C 101.84 163.79 102.90 163.95 103.97 164.11 C 105.35 160.35 106.41 156.50 107.90 152.78 C 109.00 150.23 108.01 147.28 109.41 144.79 C 109.33 146.41 109.13 148.03 108.94 149.64 C 110.26 147.83 111.55 145.99 113.08 144.35 L 113.03 145.81 C 110.71 149.80 108.73 153.98 107.25 158.36 C 111.03 156.22 114.89 153.52 119.41 153.56 C 120.17 159.05 117.49 164.05 116.28 169.25 C 115.62 173.01 111.30 174.19 108.06 174.67 C 106.39 174.13 105.20 172.76 103.82 171.76 C 103.46 173.77 103.16 175.80 102.90 177.84 C 104.39 179.36 105.73 180.99 107.06 182.65 C 108.35 181.41 109.57 180.04 111.16 179.18 C 113.48 179.70 114.73 181.92 116.24 183.53 C 116.48 183.33 116.96 182.93 117.20 182.73 C 118.31 181.78 119.43 180.83 120.58 179.93 C 121.59 181.00 122.55 182.10 123.49 183.24 C 132.24 178.96 137.62 170.35 141.95 161.98 C 146.09 154.86 146.98 146.40 146.34 138.32 C 146.43 137.73 146.62 136.56 146.72 135.97 M 106.55 161.38 L 106.38 161.02 C 105.84 164.01 105.14 166.96 104.32 169.89 C 105.35 171.20 106.36 172.69 108.03 173.24 C 111.02 172.79 114.79 171.56 115.22 168.04 C 115.77 163.43 118.20 159.28 118.37 154.59 C 113.98 155.85 109.52 157.77 106.55 161.38 M 142.51 164.34 C 141.84 165.29 139.84 167.65 141.95 168.12 C 144.53 168.87 143.72 164.94 142.51 164.34 M 110.61 186.02 C 111.49 185.03 114.55 185.03 113.99 183.16 C 113.17 182.11 112.18 181.20 111.22 180.28 C 108.61 181.50 108.09 184.34 110.61 186.02 M 119.37 182.01 C 117.80 182.63 117.90 185.53 119.97 184.92 C 122.06 184.73 121.33 181.15 119.37 182.01 Z" />
</g>
<g id="#2d473cff">
<path fill="#2d473c" opacity="1.00" d=" M 155.09 146.14 C 158.17 143.75 161.35 141.31 165.04 139.96 C 167.27 140.85 167.29 143.79 167.64 145.83 C 167.46 147.38 167.20 148.92 166.94 150.46 C 166.68 149.81 166.16 148.51 165.90 147.86 C 165.73 145.78 165.54 143.70 165.12 141.65 C 160.31 143.39 156.19 146.50 152.64 150.13 C 153.71 153.28 155.55 156.09 157.91 158.43 C 159.51 159.68 161.39 161.75 163.64 160.69 C 166.07 159.98 166.86 157.32 168.11 155.41 C 168.20 156.88 168.14 158.34 167.94 159.79 C 166.45 161.56 164.03 162.04 162.02 162.98 C 160.47 161.97 158.90 161.02 157.38 159.96 C 154.86 157.34 152.69 154.31 151.33 150.92 C 151.66 148.80 153.62 147.49 155.09 146.14 Z" />
</g>
<g id="#8bc7adff">
<path fill="#8bc7ad" opacity="1.00" d=" M 43.97 140.47 C 48.05 142.96 52.29 145.28 56.93 146.54 C 57.49 147.63 58.06 148.73 58.65 149.81 C 53.76 151.45 49.21 154.21 46.37 158.63 C 44.53 152.77 43.85 146.60 43.97 140.47 Z" />
</g>
<g id="#5e8b86ff">
<path fill="#5e8b86" opacity="1.00" d=" M 91.01 148.77 C 98.47 147.11 106.04 145.59 112.94 142.13 C 113.32 142.67 114.08 143.76 114.46 144.31 C 114.11 144.68 113.39 145.43 113.03 145.81 L 113.08 144.35 C 111.55 145.99 110.26 147.83 108.94 149.64 C 109.13 148.03 109.33 146.41 109.41 144.79 C 108.01 147.28 109.00 150.23 107.90 152.78 C 106.41 156.50 105.35 160.35 103.97 164.11 C 102.90 163.95 101.84 163.79 100.78 163.64 C 101.04 163.33 101.57 162.70 101.84 162.38 C 98.71 161.76 95.34 161.37 92.83 159.19 C 89.92 156.70 85.99 156.17 82.85 154.07 C 80.35 152.06 77.17 153.80 74.47 154.34 C 73.21 153.55 71.94 152.81 70.65 152.09 C 70.58 151.26 70.52 150.44 70.47 149.61 C 77.32 150.66 84.21 149.74 91.01 148.77 Z" />
</g>
<g id="#5c8871ff">
<path fill="#5c8871" opacity="1.00" d=" M 152.64 150.13 C 156.19 146.50 160.31 143.39 165.12 141.65 C 165.54 143.70 165.73 145.78 165.90 147.86 C 162.93 151.12 159.59 154.26 157.91 158.43 C 155.55 156.09 153.71 153.28 152.64 150.13 Z" />
</g>
<g id="#365446ff">
<path fill="#365446" opacity="1.00" d=" M 119.86 150.15 C 121.77 148.18 124.01 146.32 126.83 145.96 C 127.55 149.06 130.55 153.72 126.73 155.85 C 123.13 156.87 121.36 152.61 119.86 150.15 M 121.77 150.01 C 122.12 151.84 123.24 153.57 124.96 154.37 C 128.71 154.42 126.41 149.94 126.14 147.71 C 124.49 148.07 123.12 149.06 121.77 150.01 Z" />
</g>
<g id="#78aa97ff">
<path fill="#78aa97" opacity="1.00" d=" M 56.93 146.54 C 61.39 147.76 65.83 149.21 70.47 149.61 C 70.52 150.44 70.58 151.26 70.65 152.09 C 73.49 156.29 78.72 157.97 82.84 160.66 C 82.88 161.25 82.97 162.43 83.01 163.02 L 82.77 163.82 C 77.79 168.52 76.50 177.31 69.17 179.35 C 68.14 177.85 66.93 176.51 65.55 175.34 C 64.24 176.85 62.91 178.35 61.67 179.93 C 61.47 179.49 61.08 178.61 60.88 178.17 C 60.06 176.77 59.00 175.53 57.82 174.43 C 57.10 173.76 56.38 173.09 55.65 172.43 C 56.67 170.65 57.36 168.71 57.95 166.75 C 60.08 163.58 62.76 160.23 60.96 156.19 C 60.81 155.15 60.56 154.13 60.27 153.13 C 59.79 151.99 59.25 150.88 58.65 149.81 C 58.06 148.73 57.49 147.63 56.93 146.54 Z" />
</g>
<g id="#629177ff">
<path fill="#629177" opacity="1.00" d=" M 121.77 150.01 C 123.12 149.06 124.49 148.07 126.14 147.71 C 126.41 149.94 128.71 154.42 124.96 154.37 C 123.24 153.57 122.12 151.84 121.77 150.01 Z" />
</g>
<g id="#618e77ff">
<path fill="#618e77" opacity="1.00" d=" M 52.04 154.58 C 53.98 153.15 56.15 151.95 58.62 151.80 C 58.87 152.82 59.37 154.85 59.62 155.87 C 59.78 155.18 60.11 153.81 60.27 153.13 C 60.56 154.13 60.81 155.15 60.96 156.19 C 60.42 159.42 59.44 162.68 57.17 165.13 C 55.52 167.37 52.37 166.15 50.02 166.30 C 49.78 166.02 49.30 165.47 49.07 165.20 C 49.83 165.16 51.36 165.08 52.13 165.04 C 53.06 161.60 52.87 158.01 52.04 154.58 Z" />
</g>
<g id="#6b9a8dff">
<path fill="#6b9a8d" opacity="1.00" d=" M 74.47 154.34 C 77.17 153.80 80.35 152.06 82.85 154.07 C 85.99 156.17 89.92 156.70 92.83 159.19 C 95.34 161.37 98.71 161.76 101.84 162.38 C 101.57 162.70 101.04 163.33 100.78 163.64 C 95.24 162.65 89.45 162.19 84.32 159.69 C 80.93 158.11 77.58 156.41 74.47 154.34 Z" />
</g>
<g id="#80a58cff">
<path fill="#80a58c" opacity="1.00" d=" M 47.18 160.00 C 48.65 158.07 50.17 156.15 52.04 154.58 C 52.87 158.01 53.06 161.60 52.13 165.04 C 51.36 165.08 49.83 165.16 49.07 165.20 C 48.36 163.49 47.77 161.74 47.18 160.00 Z" />
</g>
<g id="#789d8aff">
<path fill="#789d8a" opacity="1.00" d=" M 106.55 161.38 C 109.52 157.77 113.98 155.85 118.37 154.59 C 118.20 159.28 115.77 163.43 115.22 168.04 C 114.48 167.32 113.74 166.60 113.00 165.88 C 111.56 165.76 110.09 165.80 108.69 165.41 C 107.85 164.13 107.21 162.74 106.55 161.38 Z" />
</g>
<g id="#1d2d26de">
<path fill="#1d2d26" opacity="0.87" d=" M 57.17 165.13 C 59.44 162.68 60.42 159.42 60.96 156.19 C 62.76 160.23 60.08 163.58 57.95 166.75 C 55.44 168.35 52.44 167.34 49.70 167.23 C 50.45 168.99 51.29 170.71 52.27 172.37 C 52.07 173.31 51.84 174.25 51.58 175.18 C 50.28 169.27 46.67 164.19 45.23 158.31 C 45.72 158.73 46.69 159.58 47.18 160.00 C 47.77 161.74 48.36 163.49 49.07 165.20 C 49.30 165.47 49.78 166.02 50.02 166.30 C 52.37 166.15 55.52 167.37 57.17 165.13 Z" />
</g>
<g id="#5a816cff">
<path fill="#5a816c" opacity="1.00" d=" M 106.38 161.02 L 106.55 161.38 C 107.21 162.74 107.85 164.13 108.69 165.41 C 110.09 165.80 111.56 165.76 113.00 165.88 C 113.74 166.60 114.48 167.32 115.22 168.04 C 114.79 171.56 111.02 172.79 108.03 173.24 C 106.36 172.69 105.35 171.20 104.32 169.89 C 105.14 166.96 105.84 164.01 106.38 161.02 Z" />
</g>
<g id="#1e2624c7">
<path fill="#1e2624" opacity="0.78" d=" M 69.17 179.35 C 76.50 177.31 77.79 168.52 82.77 163.82 C 82.93 164.03 83.27 164.44 83.44 164.64 C 79.43 169.47 77.50 176.47 71.54 179.52 C 70.01 180.02 68.43 181.77 66.80 180.81 C 66.97 180.42 67.32 179.63 67.50 179.24 C 66.83 178.27 66.16 177.29 65.49 176.33 C 64.59 177.68 63.79 179.10 63.17 180.61 C 63.86 180.71 65.26 180.90 65.96 181.00 C 66.16 181.25 66.58 181.74 66.78 181.99 C 64.22 182.35 62.11 180.92 59.81 180.22 C 57.49 180.06 55.36 181.30 53.20 181.98 C 52.04 180.36 48.58 178.68 50.95 176.51 L 51.09 177.54 L 51.25 178.88 C 51.90 178.93 53.19 179.04 53.84 179.09 C 53.77 179.50 53.63 180.33 53.55 180.75 L 53.65 180.55 C 55.70 179.86 57.78 179.23 59.82 178.52 C 60.09 178.43 60.62 178.26 60.88 178.17 C 61.08 178.61 61.47 179.49 61.67 179.93 C 62.91 178.35 64.24 176.85 65.55 175.34 C 66.93 176.51 68.14 177.85 69.17 179.35 Z" />
</g>
<g id="#74a397ff">
<path fill="#74a397" opacity="1.00" d=" M 92.55 163.96 C 94.03 164.28 95.51 164.60 97.00 164.88 C 96.34 166.08 95.68 167.29 95.07 168.52 C 94.25 166.99 93.44 165.46 92.55 163.96 Z" />
</g>
<g id="#679792ff">
<path fill="#679792" opacity="1.00" d=" M 142.51 164.34 C 143.72 164.94 144.53 168.87 141.95 168.12 C 139.84 167.65 141.84 165.29 142.51 164.34 Z" />
</g>
<g id="#5f9085ff">
<path fill="#5f9085" opacity="1.00" d=" M 97.00 164.88 C 99.00 165.14 101.02 165.27 103.03 165.41 C 103.41 167.98 102.79 170.53 102.07 172.99 C 100.16 171.89 98.22 170.84 96.28 169.78 C 96.05 169.61 95.61 169.27 95.38 169.10 L 95.07 168.52 C 95.68 167.29 96.34 166.08 97.00 164.88 Z" />
</g>
<g id="#95ccb0ff">
<path fill="#95ccb0" opacity="1.00" d=" M 49.70 167.23 C 52.44 167.34 55.44 168.35 57.95 166.75 C 57.36 168.71 56.67 170.65 55.65 172.43 C 56.38 173.09 57.10 173.76 57.82 174.43 C 57.40 174.32 56.57 174.09 56.15 173.98 C 55.70 174.42 54.79 175.29 54.33 175.73 C 53.65 174.60 52.95 173.49 52.27 172.37 C 51.29 170.71 50.45 168.99 49.70 167.23 Z" />
</g>
<g id="#3b4945f9">
<path fill="#3b4945" opacity="0.98" d=" M 52.27 172.37 C 52.95 173.49 53.65 174.60 54.33 175.73 C 54.79 175.29 55.70 174.42 56.15 173.98 C 56.57 174.09 57.40 174.32 57.82 174.43 C 59.00 175.53 60.06 176.77 60.88 178.17 C 60.62 178.26 60.09 178.43 59.82 178.52 C 58.56 177.53 57.53 176.17 56.00 175.59 C 55.09 177.18 54.35 178.86 53.65 180.55 L 53.55 180.75 C 53.63 180.33 53.77 179.50 53.84 179.09 C 53.19 179.04 51.90 178.93 51.25 178.88 L 51.09 177.54 C 51.52 177.58 52.37 177.66 52.79 177.70 C 53.39 176.27 52.94 175.59 51.45 175.66 L 51.58 175.18 C 51.84 174.25 52.07 173.31 52.27 172.37 Z" />
</g>
<g id="#939aaeff">
<path fill="#939aae" opacity="1.00" d=" M 97.28 172.07 L 97.64 172.46 L 97.36 172.85 L 96.94 172.51 L 97.28 172.07 Z" />
</g>
<g id="#c5cbdaff">
<path fill="#c5cbda" opacity="1.00" d=" M 51.45 175.66 C 52.94 175.59 53.39 176.27 52.79 177.70 C 52.37 177.66 51.52 177.58 51.09 177.54 L 50.95 176.51 L 51.45 175.66 Z" />
</g>
<g id="#070a0998">
<path fill="#070a09" opacity="0.60" d=" M 149.40 176.35 C 149.68 176.52 150.25 176.85 150.54 177.01 C 150.54 178.28 150.45 179.54 150.29 180.81 C 148.99 180.38 148.66 177.50 149.40 176.35 Z" />
</g>
<g id="#2a3231d9">
<path fill="#2a3231" opacity="0.85" d=" M 150.82 176.77 C 151.10 176.57 151.66 176.18 151.94 175.98 C 153.44 177.36 154.89 178.80 156.33 180.25 C 157.01 179.03 157.49 177.66 158.43 176.59 C 161.15 176.26 162.57 179.29 164.11 181.03 C 165.31 179.74 166.44 178.34 167.93 177.38 C 169.53 177.84 170.68 179.22 172.09 180.07 C 172.59 180.00 173.58 179.85 174.08 179.78 C 172.77 181.78 169.96 181.89 167.96 182.94 C 164.88 180.73 161.49 182.64 158.14 182.65 C 156.31 180.28 153.40 180.81 150.79 180.61 C 151.80 180.19 152.83 179.80 153.86 179.43 C 152.84 178.55 151.83 177.66 150.82 176.77 M 158.52 178.43 C 158.35 178.87 158.03 179.74 157.87 180.17 C 157.25 183.21 160.96 181.02 162.27 180.99 C 161.31 180.06 160.08 176.74 158.52 178.43 M 165.98 181.18 C 167.47 181.93 169.64 181.93 170.56 180.31 C 169.90 179.93 168.58 179.16 167.92 178.78 C 167.44 179.38 166.46 180.58 165.98 181.18 Z" />
</g>
<g id="#cacedeff">
<path fill="#cacede" opacity="1.00" d=" M 158.52 178.43 C 160.08 176.74 161.31 180.06 162.27 180.99 C 160.96 181.02 157.25 183.21 157.87 180.17 C 158.03 179.74 158.35 178.87 158.52 178.43 Z" />
</g>
<g id="#eaecf5ff">
<path fill="#eaecf5" opacity="1.00" d=" M 110.61 186.02 C 108.09 184.34 108.61 181.50 111.22 180.28 C 112.18 181.20 113.17 182.11 113.99 183.16 C 114.55 185.03 111.49 185.03 110.61 186.02 Z" />
</g>
<g id="#e7eaf2ff">
<path fill="#e7eaf2" opacity="1.00" d=" M 119.37 182.01 C 121.33 181.15 122.06 184.73 119.97 184.92 C 117.90 185.53 117.80 182.63 119.37 182.01 Z" />
</g>
</svg>
