<?xml version="1.0" encoding="UTF-8" ?>
<!DOCTYPE svg PUBLIC "-//W3C//DTD SVG 1.1//EN" "http://www.w3.org/Graphics/SVG/1.1/DTD/svg11.dtd">
<svg width="215pt" height="215pt" viewBox="0 0 215 215" version="1.1" xmlns="http://www.w3.org/2000/svg">
<g id="#030504ff">
<path fill="#030504" opacity="1.00" d=" M 92.97 27.09 C 93.51 27.30 94.61 27.72 95.15 27.93 L 94.72 28.51 C 94.50 28.81 94.06 29.42 93.84 29.72 C 94.24 32.33 94.63 34.95 94.65 37.59 C 94.60 39.88 94.61 42.17 94.66 44.46 C 94.40 45.49 93.88 47.56 93.62 48.59 C 93.65 44.69 94.28 40.76 93.53 36.89 C 94.01 33.61 93.34 30.35 92.97 27.09 Z" />
<path fill="#030504" opacity="1.00" d=" M 79.49 42.52 C 81.14 39.65 81.11 36.27 81.77 33.11 C 83.66 34.39 84.48 37.92 87.23 37.28 C 86.98 37.48 86.49 37.88 86.25 38.08 C 85.65 38.60 84.46 39.63 83.87 40.15 C 84.86 38.08 84.27 36.04 82.69 34.36 C 81.98 36.93 81.41 39.53 80.65 42.09 C 79.93 43.80 79.07 45.44 78.20 47.07 C 77.74 45.40 78.87 43.97 79.49 42.52 Z" />
<path fill="#030504" opacity="1.00" d=" M 142.43 39.18 C 145.55 37.70 149.70 37.11 152.96 38.80 C 149.78 38.61 146.61 38.74 143.45 39.05 C 143.39 41.55 143.33 44.05 143.27 46.56 C 143.08 48.98 142.82 51.40 142.53 53.82 C 142.11 53.07 141.70 52.31 141.30 51.55 C 143.15 47.70 142.17 43.29 142.43 39.18 Z" />
<path fill="#030504" opacity="1.00" d=" M 32.05 65.76 C 35.74 65.39 39.40 64.79 43.06 64.20 C 43.62 65.40 44.10 66.64 44.51 67.90 C 43.99 67.21 42.96 65.84 42.45 65.15 C 39.33 65.60 36.20 65.90 33.06 66.14 C 34.35 70.69 37.36 74.50 38.59 79.07 C 36.21 76.64 35.15 73.31 33.15 70.61 C 31.93 71.14 30.72 71.67 29.50 72.21 C 29.68 72.68 30.02 73.61 30.19 74.08 C 29.73 73.55 28.83 72.49 28.37 71.96 C 30.04 71.35 31.70 70.74 33.37 70.14 C 32.90 68.69 32.46 67.23 32.05 65.76 Z" />
<path fill="#030504" opacity="1.00" d=" M 47.26 66.34 C 50.77 66.59 54.38 66.44 57.77 67.49 C 57.91 67.98 58.19 68.95 58.33 69.44 C 55.82 66.70 51.79 67.44 48.47 66.91 C 48.94 70.59 49.59 74.25 50.56 77.83 C 50.74 78.69 50.91 79.55 51.09 80.41 C 50.99 80.69 50.79 81.25 50.68 81.54 C 48.78 77.24 46.35 73.17 44.86 68.69 C 46.29 70.89 47.50 73.22 48.99 75.38 C 48.53 72.35 47.82 69.36 47.26 66.34 Z" />
<path fill="#030504" opacity="1.00" d=" M 30.97 75.55 C 32.72 78.06 34.42 80.60 35.94 83.26 C 34.42 82.66 32.92 82.04 31.43 81.39 C 29.08 80.24 26.76 79.03 24.41 77.89 C 24.15 79.89 23.89 81.90 23.64 83.91 C 24.54 84.61 25.44 85.30 26.36 85.97 C 25.04 85.50 23.77 84.90 22.54 84.24 C 23.08 81.89 23.57 79.54 24.00 77.17 C 27.27 78.60 30.46 80.23 33.78 81.54 C 32.72 79.60 31.57 77.69 30.97 75.55 Z" />
<path fill="#030504" opacity="1.00" d=" M 176.80 78.57 C 180.34 82.18 179.33 88.57 184.37 90.90 L 182.09 89.89 C 182.26 90.77 182.59 92.54 182.76 93.42 C 181.56 90.16 179.41 87.36 176.61 85.30 C 177.78 85.90 178.96 86.48 180.15 87.05 C 179.04 84.22 177.93 81.39 176.80 78.57 Z" />
<path fill="#030504" opacity="1.00" d=" M 112.31 78.85 C 116.13 82.27 119.93 85.76 122.89 89.98 C 119.14 93.00 115.53 96.20 112.24 99.72 C 112.63 96.77 111.66 93.90 111.65 90.96 C 111.53 86.90 112.75 82.92 112.31 78.85 M 115.85 94.27 C 117.78 92.89 119.61 91.38 121.39 89.82 C 120.62 88.76 119.79 87.75 118.90 86.79 C 117.69 89.20 116.66 91.70 115.85 94.27 Z" />
<path fill="#030504" opacity="1.00" d=" M 28.63 87.08 C 29.05 87.20 29.89 87.44 30.31 87.56 C 27.84 88.22 25.37 88.90 22.92 89.62 C 24.08 91.48 25.21 93.35 26.46 95.16 C 26.68 95.46 27.14 96.05 27.36 96.34 C 27.71 96.77 28.39 97.61 28.74 98.04 C 32.77 96.65 36.67 94.91 40.63 93.33 C 39.48 94.39 38.31 95.43 37.10 96.42 C 36.41 96.82 35.71 97.18 35.01 97.56 C 32.66 96.66 30.44 98.13 28.26 98.83 C 25.97 95.74 23.92 92.49 22.06 89.13 C 24.32 88.68 26.53 88.04 28.63 87.08 Z" />
<path fill="#030504" opacity="1.00" d=" M 151.13 89.23 C 154.58 90.56 156.82 93.67 158.07 97.04 C 155.27 95.02 154.03 91.32 151.13 89.23 Z" />
<path fill="#030504" opacity="1.00" d=" M 157.33 89.67 C 157.56 89.53 158.03 89.26 158.27 89.12 C 160.39 91.96 162.83 94.57 165.62 96.76 L 164.56 96.96 C 162.06 94.62 159.74 92.09 157.33 89.67 Z" />
<path fill="#030504" opacity="1.00" d=" M 165.60 94.49 C 164.57 92.56 163.78 90.52 163.35 88.37 C 164.58 90.21 165.05 92.39 165.60 94.49 Z" />
<path fill="#030504" opacity="1.00" d=" M 148.34 112.73 C 154.47 111.41 160.75 110.97 166.99 110.63 C 172.10 110.02 175.86 114.06 180.37 115.66 C 183.75 115.92 186.38 113.64 188.92 111.78 C 188.92 112.06 188.91 112.63 188.91 112.92 C 187.54 113.88 186.95 115.46 186.68 117.06 C 186.28 116.66 185.48 115.86 185.08 115.46 C 183.71 115.91 182.37 116.44 180.96 116.71 C 175.85 115.29 171.72 110.54 166.04 111.43 C 160.27 111.94 154.36 112.02 148.76 113.64 C 148.41 116.56 147.72 119.42 146.79 122.21 C 143.75 121.52 142.09 118.82 140.33 116.52 C 138.59 118.05 136.82 119.54 135.18 121.18 C 137.01 118.30 139.82 116.20 142.70 114.46 C 144.55 113.79 146.44 113.21 148.34 112.73 M 141.31 115.78 C 141.81 116.83 142.30 117.88 142.81 118.92 L 143.14 118.80 C 144.06 119.69 145.04 120.52 146.06 121.30 C 146.62 119.89 147.19 118.49 147.69 117.06 C 147.72 116.32 147.77 114.82 147.80 114.07 C 145.58 114.39 143.43 115.06 141.31 115.78 Z" />
<path fill="#030504" opacity="1.00" d=" M 181.74 126.06 C 183.64 123.38 185.29 120.54 186.90 117.69 C 187.34 117.89 188.23 118.29 188.68 118.49 L 189.44 118.84 C 185.68 119.89 184.67 123.95 181.74 126.06 Z" />
<path fill="#030504" opacity="1.00" d=" M 50.23 130.04 C 48.88 132.39 47.35 134.63 45.52 136.64 C 44.64 136.38 43.75 136.12 42.87 135.86 C 45.20 133.78 47.74 131.94 50.23 130.04 Z" />
<path fill="#030504" opacity="1.00" d=" M 88.96 139.05 C 91.80 138.03 94.53 136.68 96.87 134.75 C 96.81 135.23 96.70 136.20 96.65 136.69 C 95.09 137.57 93.54 138.48 91.89 139.19 C 90.91 139.15 89.93 139.10 88.96 139.05 Z" />
<path fill="#030504" opacity="1.00" d=" M 79.56 136.11 C 79.87 136.17 80.48 136.29 80.79 136.35 C 81.54 138.03 82.20 139.77 82.84 141.50 C 80.94 142.43 79.01 143.30 77.04 144.08 C 77.33 142.25 77.61 140.42 78.11 138.64 C 78.47 138.01 79.20 136.74 79.56 136.11 M 79.68 138.91 C 78.82 139.75 78.42 140.72 78.49 141.83 C 80.70 142.93 82.55 137.58 79.68 138.91 Z" />
<path fill="#030504" opacity="1.00" d=" M 159.43 139.72 C 162.66 138.92 165.71 137.56 168.65 136.03 L 167.90 137.18 C 159.33 141.56 149.45 143.23 139.90 142.09 C 136.71 141.58 133.42 140.91 130.72 139.04 C 139.91 142.29 150.10 142.64 159.43 139.72 Z" />
<path fill="#030504" opacity="1.00" d=" M 99.93 142.71 C 100.02 142.06 100.21 140.77 100.30 140.12 C 100.57 141.69 100.85 143.26 101.13 144.83 C 102.00 151.46 103.05 158.13 105.18 164.49 C 105.86 166.39 106.71 168.23 107.31 170.16 L 107.45 171.92 C 102.34 163.06 101.16 152.67 99.93 142.71 Z" />
<path fill="#030504" opacity="1.00" d=" M 128.50 141.70 C 132.30 146.93 134.33 153.22 135.44 159.53 C 135.54 160.24 135.72 161.66 135.81 162.36 C 138.97 161.13 142.03 159.62 144.71 157.52 C 148.89 154.78 152.39 151.20 155.84 147.63 C 153.56 151.84 149.68 154.72 146.47 158.16 C 142.69 159.12 139.69 162.00 135.90 163.08 C 136.51 167.01 136.99 170.98 137.19 174.96 C 136.80 178.38 140.17 180.41 140.76 183.62 C 140.09 183.62 138.74 183.61 138.06 183.61 L 138.76 182.83 C 138.92 182.64 139.25 182.27 139.41 182.08 C 138.82 180.80 137.93 179.89 136.71 179.33 C 134.88 180.40 136.51 182.17 137.87 182.62 C 135.64 182.51 134.94 183.60 135.77 185.91 C 132.75 185.02 129.68 184.29 126.55 183.94 C 126.44 184.68 126.22 186.17 126.12 186.91 C 123.41 186.24 120.98 184.65 118.13 184.59 C 116.16 184.53 114.44 183.40 113.54 181.66 C 115.16 183.18 117.22 183.93 119.42 183.98 C 120.28 182.34 121.28 180.77 122.48 179.36 C 123.68 180.66 124.89 181.96 126.08 183.28 C 127.28 181.54 128.10 179.29 130.11 178.32 C 132.09 178.46 133.48 180.28 135.15 181.19 C 137.78 175.07 135.60 168.40 134.92 162.11 C 134.21 155.85 132.28 149.80 129.22 144.29 C 128.94 143.44 128.70 142.58 128.50 141.70 M 127.28 183.10 C 129.87 183.77 132.47 184.38 135.10 184.90 C 134.35 182.55 132.94 180.54 130.98 179.06 C 129.38 180.04 128.24 181.52 127.28 183.10 M 120.53 183.98 C 122.14 184.73 123.78 185.38 125.48 185.90 C 125.98 183.97 124.74 182.45 123.64 181.11 C 121.87 180.46 121.44 183.05 120.53 183.98 Z" />
<path fill="#030504" opacity="1.00" d=" M 114.24 144.37 C 114.65 144.36 115.47 144.35 115.88 144.35 C 119.00 146.15 121.85 148.38 124.53 150.78 C 121.35 149.23 118.62 146.98 115.83 144.86 C 113.99 148.78 113.15 154.08 116.28 157.59 C 117.81 159.38 119.25 162.12 121.99 161.92 C 123.75 162.13 125.13 160.91 126.53 160.07 C 126.61 157.48 126.72 154.89 126.80 152.31 C 127.16 153.04 127.87 154.52 128.23 155.26 C 127.76 157.36 127.25 159.45 126.67 161.52 C 124.28 162.31 121.41 163.36 119.08 161.82 C 115.92 159.32 113.43 155.67 113.17 151.55 C 113.40 149.14 113.75 146.74 114.24 144.37 Z" />
<path fill="#030504" opacity="1.00" d=" M 66.91 149.07 C 67.47 149.25 68.60 149.60 69.16 149.78 C 70.98 153.44 74.10 156.72 74.65 160.85 C 73.56 163.86 70.63 165.74 68.44 167.94 C 66.50 167.29 64.88 166.06 63.34 164.76 L 64.40 164.91 C 65.33 165.55 66.21 166.26 67.10 166.97 C 70.35 165.90 72.37 162.93 73.84 160.02 C 72.38 155.97 70.26 151.88 66.91 149.07 Z" />
<path fill="#030504" opacity="1.00" d=" M 117.06 172.66 C 113.61 171.29 114.10 165.40 117.11 163.83 C 116.41 166.73 114.21 170.46 117.70 172.35 C 119.15 171.16 120.61 169.98 122.07 168.81 C 120.65 167.46 119.24 166.09 117.90 164.66 C 119.83 165.75 121.60 167.11 123.34 168.49 C 121.67 170.30 119.70 172.66 117.06 172.66 Z" />
<path fill="#030504" opacity="1.00" d=" M 165.14 175.29 C 166.24 176.26 167.33 177.24 168.38 178.27 L 168.44 179.56 C 167.32 178.46 166.16 177.40 165.00 176.34 C 164.23 177.28 163.46 178.24 162.70 179.20 C 161.45 178.88 160.21 178.58 158.96 178.28 C 159.71 178.41 161.21 178.68 161.96 178.81 C 163.02 177.64 164.07 176.45 165.14 175.29 Z" />
</g>
<g id="#edb1b8fe">
<path fill="#edb1b8" opacity="1.00" d=" M 93.84 29.72 C 94.06 29.42 94.50 28.81 94.72 28.51 C 95.00 28.87 95.57 29.59 95.85 29.95 C 96.38 30.91 97.10 31.70 98.01 32.33 L 98.87 33.30 C 97.99 33.34 97.11 33.38 96.23 33.42 C 96.86 37.04 97.13 40.73 96.76 44.39 C 96.03 42.13 95.30 39.88 94.65 37.59 C 94.63 34.95 94.24 32.33 93.84 29.72 Z" />
</g>
<g id="#533639c0">
<path fill="#533639" opacity="0.75" d=" M 95.85 29.95 C 97.65 29.72 98.37 30.51 98.01 32.33 C 97.10 31.70 96.38 30.91 95.85 29.95 Z" />
</g>
<g id="#000000ff">
<path fill="#000000" opacity="1.00" d=" M 100.75 30.65 C 101.38 30.99 102.63 31.69 103.25 32.03 C 103.93 31.66 105.28 30.90 105.96 30.52 C 106.11 31.31 106.42 32.88 106.57 33.66 C 107.94 33.01 109.33 32.41 110.75 31.87 C 111.21 33.62 111.62 35.38 111.96 37.16 L 110.89 35.99 C 110.65 34.85 110.41 33.71 110.17 32.57 C 108.96 33.28 107.75 34.00 106.55 34.71 C 106.13 33.58 105.71 32.46 105.29 31.34 C 104.58 32.12 103.87 32.90 103.16 33.68 C 102.59 32.98 102.03 32.28 101.48 31.57 L 100.75 30.65 Z" />
<path fill="#000000" opacity="1.00" d=" M 87.83 36.10 C 88.44 35.64 89.65 34.73 90.25 34.28 C 90.08 36.14 89.92 38.01 89.78 39.88 C 90.33 39.67 91.44 39.24 91.99 39.03 C 90.79 40.72 89.70 42.49 88.80 44.36 C 86.38 51.09 87.70 58.35 88.48 65.25 C 89.07 66.12 89.67 66.99 90.27 67.86 C 90.10 68.82 89.76 70.75 89.59 71.71 L 88.88 70.65 C 88.53 68.87 88.22 67.08 87.85 65.31 C 85.42 55.68 86.54 45.61 89.49 36.24 L 87.83 36.10 Z" />
<path fill="#000000" opacity="1.00" d=" M 133.40 97.62 C 133.60 95.20 134.49 92.94 135.70 90.87 C 144.42 91.55 152.51 96.28 157.54 103.41 C 150.84 105.80 143.69 106.67 137.13 109.56 C 136.59 109.58 135.51 109.64 134.97 109.67 C 133.61 107.65 133.87 105.20 133.95 102.90 C 134.10 104.90 134.37 106.89 134.63 108.88 C 137.32 108.77 139.89 107.98 142.41 107.11 C 140.98 102.28 140.04 97.28 140.45 92.23 C 138.41 92.26 135.94 92.03 134.81 94.16 C 134.15 96.79 134.10 99.53 133.95 102.23 C 133.84 100.68 133.63 99.15 133.40 97.62 M 141.68 93.15 C 140.92 97.52 141.78 101.88 142.91 106.09 C 146.53 106.55 150.20 104.63 153.85 104.14 C 156.87 101.62 151.67 99.29 150.41 97.45 C 150.94 100.01 150.55 102.59 148.22 104.04 C 145.92 101.49 146.23 98.03 146.40 94.86 C 144.82 94.29 143.25 93.71 141.68 93.15 Z" />
<path fill="#000000" opacity="1.00" d=" M 184.72 91.83 C 185.41 93.88 186.20 95.91 187.06 97.90 L 185.24 97.15 C 186.09 100.18 187.01 103.41 184.94 106.18 C 184.15 101.49 185.35 96.59 184.72 91.83 Z" />
<path fill="#000000" opacity="1.00" d=" M 55.13 106.26 C 54.21 105.54 54.92 102.89 56.26 103.91 C 55.98 104.50 55.41 105.67 55.13 106.26 Z" />
<path fill="#000000" opacity="1.00" d=" M 168.65 136.03 C 171.90 134.09 175.18 132.17 178.17 129.82 C 176.58 132.57 173.56 133.85 171.22 135.82 C 171.67 139.29 173.29 142.44 174.16 145.80 C 176.47 155.04 177.55 164.66 176.43 174.15 C 177.99 175.58 179.46 177.10 180.82 178.72 C 179.32 178.73 177.82 178.74 176.33 178.74 C 176.41 179.41 176.58 180.76 176.67 181.43 C 174.35 181.25 172.11 180.61 169.95 179.77 C 169.76 180.16 169.39 180.94 169.21 181.33 C 166.70 181.51 164.43 180.26 162.06 179.70 C 160.27 179.14 158.18 179.16 156.77 177.77 C 157.32 177.89 158.41 178.15 158.96 178.28 C 160.21 178.58 161.45 178.88 162.70 179.20 C 164.66 179.70 166.60 180.27 168.54 180.83 L 168.44 179.56 L 168.38 178.27 C 169.29 176.93 170.27 175.64 171.22 174.33 C 172.52 175.41 173.91 176.35 175.47 177.02 L 175.44 175.40 C 176.01 170.94 176.46 166.46 176.15 161.96 C 174.83 162.63 173.60 163.61 172.11 163.86 C 170.09 162.33 168.71 160.14 167.12 158.21 C 165.03 155.55 165.40 152.21 165.63 149.06 C 166.16 148.08 166.81 147.17 167.54 146.33 C 169.29 147.01 171.03 147.73 172.80 148.36 C 170.89 148.16 168.95 147.42 167.04 148.04 C 164.00 153.67 168.57 158.97 172.13 162.97 C 173.46 162.95 174.78 162.45 175.64 161.40 C 176.25 157.01 174.59 152.78 173.80 148.53 C 173.48 145.91 172.84 143.35 171.94 140.88 C 171.40 139.36 170.84 137.85 170.23 136.37 C 169.65 136.57 168.49 136.98 167.90 137.18 L 168.65 136.03 M 171.21 175.36 C 170.67 176.08 169.60 177.53 169.07 178.26 C 171.10 179.90 173.78 180.23 176.27 180.64 C 174.94 178.56 173.26 176.72 171.21 175.36 M 178.64 178.02 C 178.52 176.91 177.83 176.23 176.58 175.99 C 174.59 176.67 177.46 178.99 178.64 178.02 Z" />
<path fill="#000000" opacity="1.00" d=" M 161.45 158.10 C 161.86 158.31 162.68 158.74 163.09 158.96 C 161.86 161.02 161.43 163.36 161.33 165.74 C 162.73 164.37 164.18 163.00 165.93 162.08 C 165.31 164.72 162.82 165.84 160.78 167.24 C 160.67 164.18 160.98 161.12 161.45 158.10 Z" />
</g>
<g id="#e6969eff">
<path fill="#e6969e" opacity="1.00" d=" M 101.48 31.57 C 102.03 32.28 102.59 32.98 103.16 33.68 C 103.87 32.90 104.58 32.12 105.29 31.34 C 105.71 32.46 106.13 33.58 106.55 34.71 C 107.75 34.00 108.96 33.28 110.17 32.57 C 110.41 33.71 110.65 34.85 110.89 35.99 C 110.01 39.20 109.48 42.49 108.74 45.73 C 105.87 54.27 99.20 61.21 90.91 64.68 C 91.64 60.32 92.89 56.04 93.19 51.61 L 93.46 51.72 C 93.81 50.48 94.12 49.22 94.44 47.96 C 94.78 48.57 95.45 49.79 95.79 50.39 C 96.51 48.23 96.64 46.03 94.66 44.46 C 94.61 42.17 94.60 39.88 94.65 37.59 C 95.30 39.88 96.03 42.13 96.76 44.39 C 97.13 40.73 96.86 37.04 96.23 33.42 C 97.11 33.38 97.99 33.34 98.87 33.30 L 99.45 33.29 L 99.34 33.78 C 99.48 33.68 99.75 33.48 99.89 33.38 C 100.28 32.93 101.08 32.03 101.48 31.57 Z" />
</g>
<g id="#4f3235f9">
<path fill="#4f3235" opacity="0.98" d=" M 99.45 33.29 L 99.89 33.38 C 99.75 33.48 99.48 33.68 99.34 33.78 L 99.45 33.29 Z" />
</g>
<g id="#f29ba3ff">
<path fill="#f29ba3" opacity="1.00" d=" M 80.65 42.09 C 81.41 39.53 81.98 36.93 82.69 34.36 C 84.27 36.04 84.86 38.08 83.87 40.15 C 83.70 40.50 83.38 41.21 83.22 41.56 C 82.57 41.69 81.29 41.96 80.65 42.09 Z" />
</g>
<g id="#e6979fff">
<path fill="#e6979f" opacity="1.00" d=" M 87.23 37.28 C 87.79 37.02 88.92 36.50 89.49 36.24 C 86.54 45.61 85.42 55.68 87.85 65.31 C 82.24 66.38 76.99 63.06 73.45 58.98 C 73.72 58.15 74.01 57.34 74.32 56.53 C 75.57 56.21 77.17 56.34 77.85 55.00 C 79.98 51.54 84.22 49.68 85.35 45.58 C 86.19 43.18 86.27 40.60 86.25 38.08 C 86.49 37.88 86.98 37.48 87.23 37.28 Z" />
</g>
<g id="#ca6a79ff">
<path fill="#ca6a79" opacity="1.00" d=" M 108.74 45.73 C 109.48 42.49 110.01 39.20 110.89 35.99 L 111.96 37.16 C 112.13 37.33 112.46 37.68 112.63 37.86 C 114.41 39.89 116.85 41.10 119.20 42.35 C 119.58 42.57 120.35 43.02 120.74 43.24 L 120.75 43.75 C 120.93 46.91 120.29 50.82 123.19 52.98 C 121.59 55.03 119.98 57.06 118.38 59.11 C 119.17 60.22 119.95 61.33 120.73 62.44 C 119.52 62.08 118.31 61.72 117.10 61.37 C 115.31 64.21 113.58 67.09 111.92 70.01 C 113.07 71.14 114.22 72.26 115.39 73.37 C 111.71 71.74 110.59 75.60 108.92 77.86 C 107.18 76.48 105.63 74.22 103.15 74.38 C 99.62 74.47 96.09 75.10 92.55 74.51 C 92.36 74.82 91.97 75.43 91.77 75.74 C 91.24 76.66 90.73 77.59 90.24 78.53 C 90.11 76.25 89.93 73.97 89.59 71.71 C 89.76 70.75 90.10 68.82 90.27 67.86 C 90.48 66.80 90.70 65.74 90.91 64.68 C 99.20 61.21 105.87 54.27 108.74 45.73 Z" />
</g>
<g id="#ed9da5ff">
<path fill="#ed9da5" opacity="1.00" d=" M 93.53 36.89 C 94.28 40.76 93.65 44.69 93.62 48.59 C 93.88 47.56 94.40 45.49 94.66 44.46 C 96.64 46.03 96.51 48.23 95.79 50.39 C 95.45 49.79 94.78 48.57 94.44 47.96 C 94.12 49.22 93.81 50.48 93.46 51.72 L 93.19 51.61 C 92.49 51.33 91.78 51.07 91.07 50.82 C 90.42 48.63 89.68 46.47 88.80 44.36 C 89.70 42.49 90.79 40.72 91.99 39.03 C 92.38 38.50 93.14 37.43 93.53 36.89 Z" />
</g>
<g id="#1d0f11a5">
<path fill="#1d0f11" opacity="0.65" d=" M 112.63 37.86 C 115.08 38.85 117.89 39.85 119.20 42.35 C 116.85 41.10 114.41 39.89 112.63 37.86 Z" />
</g>
<g id="#eab2b7ff">
<path fill="#eab2b7" opacity="1.00" d=" M 83.87 40.15 C 84.46 39.63 85.65 38.60 86.25 38.08 C 86.27 40.60 86.19 43.18 85.35 45.58 C 84.22 49.68 79.98 51.54 77.85 55.00 C 77.17 56.34 75.57 56.21 74.32 56.53 C 75.51 53.58 76.84 50.69 77.90 47.68 L 78.20 47.07 C 79.07 45.44 79.93 43.80 80.65 42.09 C 81.29 41.96 82.57 41.69 83.22 41.56 C 83.38 41.21 83.70 40.50 83.87 40.15 Z" />
</g>
<g id="#82c095ff">
<path fill="#82c095" opacity="1.00" d=" M 143.45 39.05 C 146.61 38.74 149.78 38.61 152.96 38.80 L 151.67 40.27 C 149.48 40.22 147.29 40.22 145.10 40.24 C 144.82 42.80 144.62 45.36 144.44 47.93 C 144.15 47.58 143.56 46.90 143.27 46.56 C 143.33 44.05 143.39 41.55 143.45 39.05 Z" />
<path fill="#82c095" opacity="1.00" d=" M 113.82 69.90 C 114.71 68.04 115.76 66.27 116.77 64.48 C 116.22 66.78 115.69 69.08 115.09 71.36 C 114.77 71.00 114.14 70.27 113.82 69.90 Z" />
<path fill="#82c095" opacity="1.00" d=" M 27.36 96.34 C 32.68 94.85 37.91 92.59 41.36 88.09 C 44.49 89.48 47.73 90.59 50.94 91.77 C 47.74 93.77 44.19 95.07 40.69 96.42 C 39.54 96.94 38.28 96.64 37.10 96.42 C 38.31 95.43 39.48 94.39 40.63 93.33 C 36.67 94.91 32.77 96.65 28.74 98.04 C 28.39 97.61 27.71 96.77 27.36 96.34 Z" />
</g>
<g id="#679477ff">
<path fill="#679477" opacity="1.00" d=" M 145.10 40.24 C 147.29 40.22 149.48 40.22 151.67 40.27 C 153.37 40.51 155.06 40.76 156.76 40.96 C 156.75 43.59 156.67 46.21 156.62 48.83 C 160.07 47.72 163.23 45.87 166.74 44.89 C 166.71 47.99 166.55 51.09 166.45 54.20 C 164.60 54.93 162.74 55.65 160.87 56.34 C 161.58 56.47 162.99 56.73 163.70 56.86 C 162.43 57.56 161.19 58.30 159.95 59.04 C 163.09 58.74 166.24 58.38 169.35 57.78 C 169.23 60.33 168.73 62.85 168.33 65.37 C 165.71 65.61 163.07 65.77 160.43 65.85 C 158.38 65.82 156.37 66.25 154.82 67.68 C 151.00 68.55 147.02 68.88 143.16 68.06 C 145.06 65.08 148.26 62.61 148.62 58.89 C 145.88 61.78 143.85 65.27 140.98 68.05 C 138.53 70.46 136.05 72.85 133.90 75.54 C 133.33 71.32 133.49 67.05 133.07 62.81 L 134.12 62.69 C 133.39 57.85 131.23 53.33 130.91 48.42 L 130.86 47.99 L 131.89 48.75 C 131.95 49.09 132.08 49.78 132.14 50.13 C 133.86 48.66 135.59 47.19 137.23 45.63 C 138.14 46.97 139.14 48.25 140.11 49.55 C 140.40 50.05 141.00 51.05 141.30 51.55 C 141.70 52.31 142.11 53.07 142.53 53.82 C 142.82 51.40 143.08 48.98 143.27 46.56 C 143.56 46.90 144.15 47.58 144.44 47.93 C 144.62 45.36 144.82 42.80 145.10 40.24 Z" />
</g>
<g id="#161f19b0">
<path fill="#161f19" opacity="0.69" d=" M 132.39 47.67 C 133.11 45.47 134.95 44.04 136.67 42.64 C 138.01 44.83 139.45 47.02 140.11 49.55 C 139.14 48.25 138.14 46.97 137.23 45.63 C 136.99 45.22 136.49 44.40 136.24 43.99 C 134.95 45.21 133.67 46.44 132.39 47.67 Z" />
</g>
<g id="#e17e86ff">
<path fill="#e17e86" opacity="1.00" d=" M 120.75 43.75 C 122.50 45.05 124.26 46.39 125.67 48.07 C 128.61 51.72 131.24 55.72 132.48 60.29 C 129.26 58.02 126.25 55.47 123.19 52.98 C 120.29 50.82 120.93 46.91 120.75 43.75 Z" />
</g>
<g id="#b66779ff">
<path fill="#b66779" opacity="1.00" d=" M 88.80 44.36 C 89.68 46.47 90.42 48.63 91.07 50.82 C 91.78 51.07 92.49 51.33 93.19 51.61 C 92.89 56.04 91.64 60.32 90.91 64.68 C 90.70 65.74 90.48 66.80 90.27 67.86 C 89.67 66.99 89.07 66.12 88.48 65.25 C 87.70 58.35 86.38 51.09 88.80 44.36 Z" />
</g>
<g id="#91c69fff">
<path fill="#91c69f" opacity="1.00" d=" M 132.39 47.67 C 133.67 46.44 134.95 45.21 136.24 43.99 C 136.49 44.40 136.99 45.22 137.23 45.63 C 135.59 47.19 133.86 48.66 132.14 50.13 C 132.08 49.78 131.95 49.09 131.89 48.75 C 132.01 48.48 132.26 47.94 132.39 47.67 Z" />
</g>
<g id="#593343ff">
<path fill="#593343" opacity="1.00" d=" M 76.95 48.33 C 77.19 48.17 77.66 47.84 77.90 47.68 C 76.84 50.69 75.51 53.58 74.32 56.53 C 74.01 57.34 73.72 58.15 73.45 58.98 C 72.35 62.46 71.78 66.07 71.35 69.68 C 73.55 70.36 76.12 70.44 78.00 71.88 C 80.18 74.84 80.52 78.68 81.48 82.13 C 81.91 79.51 81.30 76.33 83.25 74.24 C 85.21 74.85 86.98 75.90 88.78 76.87 C 88.80 74.79 88.85 72.72 88.88 70.65 L 89.59 71.71 C 89.93 73.97 90.11 76.25 90.24 78.53 C 90.73 77.59 91.24 76.66 91.77 75.74 C 95.07 77.70 98.25 79.84 101.30 82.17 C 101.13 85.57 100.92 89.06 99.18 92.08 C 99.30 89.09 99.48 86.10 99.93 83.13 C 99.53 82.78 98.72 82.08 98.31 81.72 C 96.42 80.13 94.29 78.87 92.14 77.66 C 91.41 80.92 90.85 84.22 90.36 87.52 C 90.02 87.47 89.35 87.38 89.02 87.33 C 88.83 86.70 88.46 85.45 88.27 84.82 C 87.69 81.42 87.54 77.18 83.89 75.56 C 82.80 79.59 82.44 83.76 82.37 87.92 C 82.10 88.25 81.58 88.91 81.31 89.24 C 81.03 87.45 80.79 85.66 80.47 83.89 C 79.68 80.41 78.76 76.93 77.37 73.64 C 76.90 72.39 75.39 72.23 74.37 71.64 C 74.32 73.19 74.27 74.75 74.17 76.30 C 73.64 74.68 73.10 73.05 72.57 71.42 C 69.96 70.76 67.35 70.13 64.72 69.54 C 65.08 74.70 65.51 79.87 65.63 85.05 C 63.88 82.25 62.31 79.35 60.76 76.43 C 60.01 74.64 59.35 72.80 58.81 70.93 C 61.42 73.93 62.02 78.12 64.57 81.18 C 64.55 77.21 64.14 73.27 63.69 69.33 C 65.70 68.08 68.17 69.96 70.36 70.04 C 70.83 62.42 73.38 55.02 76.95 48.33 Z" />
</g>
<g id="#3b4e45ff">
<path fill="#3b4e45" opacity="1.00" d=" M 125.67 48.07 C 127.98 49.49 129.23 52.02 130.97 54.00 L 130.25 50.37 C 130.41 49.88 130.74 48.90 130.91 48.42 C 131.23 53.33 133.39 57.85 134.12 62.69 L 133.07 62.81 C 130.00 60.59 127.33 57.89 124.36 55.57 C 124.12 55.39 123.65 55.03 123.41 54.85 C 122.18 56.17 121.01 57.53 119.91 58.95 C 120.13 59.20 120.59 59.72 120.82 59.98 C 123.75 63.19 127.19 65.97 129.47 69.72 C 124.81 68.61 121.36 65.16 117.43 62.67 C 117.26 63.12 116.93 64.03 116.77 64.48 C 115.76 66.27 114.71 68.04 113.82 69.90 C 114.14 70.27 114.77 71.00 115.09 71.36 C 116.85 73.06 118.50 75.38 121.11 75.66 C 124.89 76.10 128.68 76.46 132.33 77.57 C 132.85 76.89 133.37 76.21 133.90 75.54 C 136.05 72.85 138.53 70.46 140.98 68.05 C 143.85 65.27 145.88 61.78 148.62 58.89 C 148.26 62.61 145.06 65.08 143.16 68.06 C 142.37 69.13 141.59 70.21 140.82 71.29 C 139.51 73.13 138.17 74.96 136.81 76.77 C 135.80 76.92 134.80 77.07 133.80 77.23 C 138.12 77.95 142.42 76.91 146.70 76.44 C 151.15 75.99 155.60 76.83 160.05 76.66 C 162.52 75.32 161.96 71.77 162.94 69.46 C 160.28 68.67 157.57 68.03 154.82 67.68 C 156.37 66.25 158.38 65.82 160.43 65.85 C 159.50 68.38 162.02 68.07 163.64 68.44 C 163.37 71.06 162.92 73.66 162.36 76.24 C 165.87 75.16 169.49 74.53 173.07 73.74 C 174.48 74.56 175.89 75.52 176.03 77.32 L 175.11 76.33 C 174.77 75.97 174.10 75.26 173.76 74.91 C 170.01 75.19 166.19 75.66 162.75 77.29 C 165.09 78.26 167.49 79.11 169.79 80.19 C 170.81 80.90 171.79 81.66 172.77 82.43 C 172.72 85.48 174.08 89.06 172.09 91.74 C 170.50 91.00 169.07 89.97 167.76 88.82 L 168.13 88.50 C 169.14 88.11 170.08 88.30 170.94 89.08 C 171.28 89.35 171.95 89.89 172.28 90.17 C 172.04 88.07 172.05 85.91 171.35 83.90 C 170.56 81.96 168.37 81.29 166.70 80.37 C 163.29 78.81 159.60 77.88 155.83 77.98 C 159.31 81.13 163.88 82.98 166.88 86.65 L 166.62 87.12 L 166.25 87.35 C 163.11 84.98 160.00 82.57 156.70 80.43 C 155.68 79.62 154.69 78.79 153.71 77.94 C 149.24 77.58 144.73 77.86 140.37 78.92 C 137.68 79.43 134.90 79.92 132.19 79.27 C 125.37 76.85 118.07 76.81 110.93 76.93 C 108.05 86.90 112.01 97.25 110.98 107.39 C 110.63 109.16 110.19 110.91 109.80 112.67 C 109.77 109.57 109.84 106.48 110.02 103.39 C 105.62 108.26 100.98 112.98 95.53 116.67 C 89.82 119.28 87.57 125.52 85.83 131.09 C 85.15 132.90 85.87 134.71 86.62 136.35 C 87.02 137.46 87.33 138.59 87.60 139.73 C 86.69 138.76 85.83 137.75 85.02 136.71 C 83.23 131.07 86.67 125.76 88.96 120.84 C 86.53 122.06 84.05 123.20 81.69 124.58 C 77.17 126.85 73.98 130.89 71.45 135.16 C 68.93 139.37 67.61 144.15 66.08 148.78 C 64.61 154.00 63.47 159.30 62.47 164.63 C 62.25 166.95 62.22 169.28 62.28 171.61 C 62.32 174.51 62.48 177.49 63.88 180.10 C 65.44 180.03 67.00 179.98 68.57 179.93 C 69.55 178.84 70.54 177.75 71.53 176.66 C 72.52 178.25 73.61 179.78 74.66 181.34 C 75.75 179.45 76.87 177.59 78.08 175.79 C 79.62 177.30 81.16 178.83 82.70 180.35 C 83.55 178.99 84.33 177.59 84.99 176.13 C 85.25 175.80 85.79 175.13 86.06 174.79 C 85.52 176.41 86.48 177.89 86.91 179.39 C 85.44 176.37 83.37 180.49 86.64 180.17 L 87.76 180.80 C 85.40 180.89 81.89 179.26 81.56 182.87 C 80.19 182.73 78.82 182.56 77.46 182.38 L 78.49 181.68 C 79.21 181.69 80.65 181.71 81.37 181.72 C 80.50 180.49 80.19 177.81 78.21 178.11 C 77.32 179.07 77.44 180.45 77.24 181.65 C 75.40 181.56 73.14 181.06 73.10 183.63 C 70.24 181.13 66.41 181.11 63.02 180.04 C 60.98 175.68 61.33 170.62 61.44 165.92 C 62.45 158.84 63.95 151.77 66.41 145.04 C 64.79 145.18 63.18 145.32 61.56 145.46 C 61.75 143.31 61.86 141.15 61.92 139.00 C 58.75 138.50 58.62 142.12 57.96 144.20 C 54.81 146.37 50.98 146.80 47.25 146.53 C 47.71 145.23 48.21 143.96 48.74 142.70 C 48.83 143.45 49.01 144.97 49.10 145.73 C 51.62 145.15 54.14 144.53 56.63 143.82 C 59.08 138.38 60.90 132.66 63.85 127.46 C 62.79 133.02 63.04 138.70 62.98 144.34 L 63.82 144.19 C 64.32 144.10 65.32 143.91 65.83 143.82 C 67.80 139.22 69.46 134.40 72.60 130.41 C 75.34 126.29 79.59 123.61 83.85 121.29 C 83.03 120.98 82.21 120.68 81.40 120.37 C 80.18 121.31 78.97 122.26 77.75 123.20 C 74.70 121.19 71.88 118.38 68.02 118.20 C 67.70 118.15 67.07 118.05 66.75 117.99 C 66.73 117.44 66.70 116.35 66.68 115.80 C 67.69 116.19 68.71 116.56 69.73 116.94 C 73.28 114.89 76.76 112.72 80.14 110.40 L 80.24 111.66 C 78.27 113.69 75.98 115.39 74.13 117.53 C 73.84 119.47 76.75 119.93 77.87 121.11 C 80.32 119.28 82.72 117.38 85.26 115.68 L 86.34 115.67 C 85.47 117.03 84.61 118.39 83.74 119.75 C 84.23 119.96 85.21 120.37 85.70 120.58 C 88.83 119.12 92.02 117.63 94.62 115.30 C 94.90 114.23 93.58 113.80 93.01 113.14 C 89.76 110.59 86.31 108.32 82.88 106.04 C 80.98 107.00 79.05 107.88 77.08 108.66 C 78.40 107.40 79.77 106.20 81.18 105.04 C 78.31 103.28 75.55 106.73 72.72 107.25 C 74.28 105.77 76.04 104.52 77.86 103.37 C 76.12 102.37 74.40 101.35 72.65 100.37 C 74.30 100.54 75.95 100.64 77.59 100.87 C 80.02 102.51 82.53 104.08 85.27 105.16 C 83.28 103.67 81.19 102.33 79.06 101.05 L 78.99 99.59 C 82.42 101.30 85.75 103.19 88.96 105.28 C 89.26 103.76 89.58 102.25 89.91 100.74 C 90.43 102.71 90.85 104.70 91.22 106.71 C 93.72 108.60 96.21 110.52 98.61 112.55 C 103.13 109.14 107.05 104.97 110.05 100.16 C 108.51 100.52 106.98 100.90 105.45 101.28 C 105.93 99.61 107.13 97.99 106.97 96.21 C 105.74 94.24 104.07 92.60 102.54 90.87 C 101.09 93.42 100.10 96.27 98.07 98.44 C 98.09 96.40 98.19 94.30 99.05 92.41 C 100.21 91.29 101.42 90.22 102.63 89.15 C 104.72 91.31 106.86 93.43 109.04 95.52 C 108.43 89.65 108.40 83.74 108.92 77.86 C 110.59 75.60 111.71 71.74 115.39 73.37 C 114.22 72.26 113.07 71.14 111.92 70.01 C 113.58 67.09 115.31 64.21 117.10 61.37 C 118.31 61.72 119.52 62.08 120.73 62.44 L 120.72 62.78 L 121.18 63.08 C 121.80 63.72 121.80 63.72 121.18 63.08 C 121.07 62.92 120.84 62.60 120.73 62.44 C 119.95 61.33 119.17 60.22 118.38 59.11 C 119.98 57.06 121.59 55.03 123.19 52.98 C 126.25 55.47 129.26 58.02 132.48 60.29 C 131.24 55.72 128.61 51.72 125.67 48.07 M 113.17 74.51 C 111.61 77.49 116.49 74.71 113.17 74.51 M 108.18 97.42 C 107.58 98.83 107.99 99.32 109.41 98.88 C 110.01 97.47 109.60 96.98 108.18 97.42 M 91.24 109.09 C 91.31 110.82 93.70 112.11 95.28 112.37 C 94.85 110.76 93.03 108.78 91.24 109.09 M 95.28 112.37 C 95.44 112.52 95.78 112.83 95.95 112.99 C 95.78 112.83 95.44 112.52 95.28 112.37 M 95.95 112.99 C 96.47 113.53 96.47 113.53 95.95 112.99 M 71.38 182.05 C 73.49 182.98 72.99 179.72 71.73 179.16 C 69.88 178.64 69.71 181.70 71.38 182.05 Z" />
</g>
<g id="#77a08fff">
<path fill="#77a08f" opacity="1.00" d=" M 123.41 54.85 C 123.65 55.03 124.12 55.39 124.36 55.57 C 123.18 57.04 122.00 58.51 120.82 59.98 C 120.59 59.72 120.13 59.20 119.91 58.95 C 121.01 57.53 122.18 56.17 123.41 54.85 Z" />
</g>
<g id="#5d8274ff">
<path fill="#5d8274" opacity="1.00" d=" M 124.36 55.57 C 127.33 57.89 130.00 60.59 133.07 62.81 C 133.49 67.05 133.33 71.32 133.90 75.54 C 133.37 76.21 132.85 76.89 132.33 77.57 C 128.68 76.46 124.89 76.10 121.11 75.66 C 118.50 75.38 116.85 73.06 115.09 71.36 C 115.69 69.08 116.22 66.78 116.77 64.48 C 116.93 64.03 117.26 63.12 117.43 62.67 C 121.36 65.16 124.81 68.61 129.47 69.72 C 127.19 65.97 123.75 63.19 120.82 59.98 C 122.00 58.51 123.18 57.04 124.36 55.57 Z" />
</g>
<g id="#7cac89ff">
<path fill="#7cac89" opacity="1.00" d=" M 163.70 56.86 C 165.63 56.29 167.68 56.39 169.68 56.27 L 169.35 57.78 C 166.24 58.38 163.09 58.74 159.95 59.04 C 161.19 58.30 162.43 57.56 163.70 56.86 Z" />
</g>
<g id="#ce6a78ff">
<path fill="#ce6a78" opacity="1.00" d=" M 71.35 69.68 C 71.78 66.07 72.35 62.46 73.45 58.98 C 76.99 63.06 82.24 66.38 87.85 65.31 C 88.22 67.08 88.53 68.87 88.88 70.65 C 88.85 72.72 88.80 74.79 88.78 76.87 C 86.98 75.90 85.21 74.85 83.25 74.24 C 81.30 76.33 81.91 79.51 81.48 82.13 C 80.52 78.68 80.18 74.84 78.00 71.88 C 76.12 70.44 73.55 70.36 71.35 69.68 Z" />
</g>
<g id="#f67e90ff">
<path fill="#f67e90" opacity="1.00" d=" M 120.73 62.44 C 120.84 62.60 121.07 62.92 121.18 63.08 L 120.72 62.78 L 120.73 62.44 Z" />
</g>
<g id="#db6a7bff">
<path fill="#db6a7b" opacity="1.00" d=" M 121.18 63.08 C 121.80 63.72 121.80 63.72 121.18 63.08 Z" />
</g>
<g id="#76b581ff">
<path fill="#76b581" opacity="1.00" d=" M 33.06 66.14 C 36.20 65.90 39.33 65.60 42.45 65.15 C 42.96 65.84 43.99 67.21 44.51 67.90 C 44.60 68.10 44.77 68.50 44.86 68.69 C 46.35 73.17 48.78 77.24 50.68 81.54 C 51.78 84.93 53.45 88.11 54.53 91.52 C 49.79 89.91 45.02 88.37 40.10 87.40 C 40.41 87.57 41.04 87.91 41.36 88.09 C 37.91 92.59 32.68 94.85 27.36 96.34 C 27.14 96.05 26.68 95.46 26.46 95.16 C 28.03 94.56 29.72 94.11 31.09 93.08 C 33.12 91.17 33.77 88.35 34.42 85.75 C 33.20 84.46 31.80 83.21 31.43 81.39 C 32.92 82.04 34.42 82.66 35.94 83.26 C 34.42 80.60 32.72 78.06 30.97 75.55 C 30.77 75.18 30.38 74.45 30.19 74.08 C 30.02 73.61 29.68 72.68 29.50 72.21 C 30.72 71.67 31.93 71.14 33.15 70.61 C 35.15 73.31 36.21 76.64 38.59 79.07 C 37.36 74.50 34.35 70.69 33.06 66.14 Z" />
</g>
<g id="#679377ff">
<path fill="#679377" opacity="1.00" d=" M 48.47 66.91 C 51.79 67.44 55.82 66.70 58.33 69.44 C 58.45 69.81 58.69 70.56 58.81 70.93 C 59.35 72.80 60.01 74.64 60.76 76.43 C 60.70 77.88 60.57 79.32 60.45 80.76 C 58.22 81.25 55.97 81.62 53.70 81.86 C 53.09 80.34 52.47 78.82 51.85 77.31 C 51.53 77.44 50.88 77.70 50.56 77.83 C 49.59 74.25 48.94 70.59 48.47 66.91 Z" />
</g>
<g id="#72a587ff">
<path fill="#72a587" opacity="1.00" d=" M 143.16 68.06 C 147.02 68.88 151.00 68.55 154.82 67.68 C 157.57 68.03 160.28 68.67 162.94 69.46 C 161.96 71.77 162.52 75.32 160.05 76.66 C 155.60 76.83 151.15 75.99 146.70 76.44 C 147.32 74.55 147.94 72.67 148.56 70.78 C 145.98 70.83 143.39 71.01 140.82 71.29 C 141.59 70.21 142.37 69.13 143.16 68.06 Z" />
<path fill="#72a587" opacity="1.00" d=" M 77.59 100.87 L 79.06 101.05 C 81.19 102.33 83.28 103.67 85.27 105.16 C 82.53 104.08 80.02 102.51 77.59 100.87 Z" />
</g>
<g id="#71a17bff">
<path fill="#71a17b" opacity="1.00" d=" M 64.72 69.54 C 67.35 70.13 69.96 70.76 72.57 71.42 C 73.10 73.05 73.64 74.68 74.17 76.30 C 72.78 80.27 70.49 85.05 65.82 85.65 C 61.33 85.97 58.22 89.40 54.53 91.52 C 53.45 88.11 51.78 84.93 50.68 81.54 C 50.79 81.25 50.99 80.69 51.09 80.41 C 50.91 79.55 50.74 78.69 50.56 77.83 C 50.88 77.70 51.53 77.44 51.85 77.31 C 52.47 78.82 53.09 80.34 53.70 81.86 C 55.97 81.62 58.22 81.25 60.45 80.76 C 60.57 79.32 60.70 77.88 60.76 76.43 C 62.31 79.35 63.88 82.25 65.63 85.05 C 65.51 79.87 65.08 74.70 64.72 69.54 Z" />
</g>
<g id="#80bd92ff">
<path fill="#80bd92" opacity="1.00" d=" M 140.82 71.29 C 143.39 71.01 145.98 70.83 148.56 70.78 C 147.94 72.67 147.32 74.55 146.70 76.44 C 142.42 76.91 138.12 77.95 133.80 77.23 C 134.80 77.07 135.80 76.92 136.81 76.77 C 138.17 74.96 139.51 73.13 140.82 71.29 Z" />
</g>
<g id="#689576ff">
<path fill="#689576" opacity="1.00" d=" M 74.37 71.64 C 75.39 72.23 76.90 72.39 77.37 73.64 C 78.76 76.93 79.68 80.41 80.47 83.89 C 80.67 87.50 78.76 90.59 76.65 93.32 C 76.23 93.32 75.39 93.31 74.97 93.31 C 74.56 91.45 74.16 89.59 73.60 87.77 C 73.52 91.01 73.73 94.24 73.99 97.47 C 71.14 96.46 68.73 94.66 67.16 92.06 C 67.19 92.69 67.25 93.96 67.28 94.59 C 68.31 95.44 69.33 96.31 70.34 97.20 C 64.88 95.89 60.05 92.75 54.53 91.52 C 58.22 89.40 61.33 85.97 65.82 85.65 C 70.49 85.05 72.78 80.27 74.17 76.30 C 74.27 74.75 74.32 73.19 74.37 71.64 Z" />
</g>
<g id="#a16176ff">
<path fill="#a16176" opacity="1.00" d=" M 92.55 74.51 C 96.09 75.10 99.62 74.47 103.15 74.38 C 105.63 74.22 107.18 76.48 108.92 77.86 C 108.40 83.74 108.43 89.65 109.04 95.52 C 106.86 93.43 104.72 91.31 102.63 89.15 C 101.42 90.22 100.21 91.29 99.05 92.41 L 99.18 92.08 C 100.92 89.06 101.13 85.57 101.30 82.17 C 98.25 79.84 95.07 77.70 91.77 75.74 C 91.97 75.43 92.36 74.82 92.55 74.51 Z" />
</g>
<g id="#669270ff">
<path fill="#669270" opacity="1.00" d=" M 113.17 74.51 C 116.49 74.71 111.61 77.49 113.17 74.51 Z" />
</g>
<g id="#88c0c4ff">
<path fill="#88c0c4" opacity="1.00" d=" M 162.75 77.29 C 166.19 75.66 170.01 75.19 173.76 74.91 C 174.10 75.26 174.77 75.97 175.11 76.33 C 173.32 77.60 171.55 78.88 169.79 80.19 C 167.49 79.11 165.09 78.26 162.75 77.29 Z" />
</g>
<g id="#709a79ff">
<path fill="#709a79" opacity="1.00" d=" M 83.89 75.56 C 87.54 77.18 87.69 81.42 88.27 84.82 C 88.20 85.31 88.07 86.29 88.00 86.78 C 87.15 85.70 86.31 84.62 85.48 83.53 C 84.48 85.02 83.47 86.51 82.37 87.92 C 82.44 83.76 82.80 79.59 83.89 75.56 Z" />
</g>
<g id="#82b4baff">
<path fill="#82b4ba" opacity="1.00" d=" M 110.93 76.93 C 118.07 76.81 125.37 76.85 132.19 79.27 C 129.72 80.81 126.97 82.93 127.57 86.24 C 129.57 90.00 131.65 93.73 133.40 97.62 C 133.63 99.15 133.84 100.68 133.95 102.23 L 133.95 102.90 C 133.87 105.20 133.61 107.65 134.97 109.67 C 135.51 109.64 136.59 109.58 137.13 109.56 C 135.94 110.49 134.80 111.47 133.64 112.44 C 135.83 112.35 138.45 110.85 140.31 112.56 C 140.90 113.04 142.10 113.98 142.70 114.46 C 139.82 116.20 137.01 118.30 135.18 121.18 C 134.13 123.70 131.76 125.07 129.40 126.16 C 129.65 129.48 130.36 132.73 130.92 136.01 C 129.68 136.20 128.43 136.40 127.19 136.59 C 127.78 137.02 128.37 137.45 128.97 137.88 C 128.80 139.15 128.62 140.42 128.50 141.70 C 128.70 142.58 128.94 143.44 129.22 144.29 C 128.52 147.16 128.19 150.10 127.94 153.04 L 126.80 152.31 C 126.04 151.80 125.29 151.29 124.53 150.78 C 121.85 148.38 119.00 146.15 115.88 144.35 C 115.47 144.35 114.65 144.36 114.24 144.37 C 113.76 144.39 112.80 144.43 112.32 144.45 C 112.14 140.90 111.66 137.31 109.95 134.15 C 111.98 129.69 112.77 124.83 113.35 120.01 C 116.38 119.99 120.46 122.48 122.75 119.67 C 122.95 116.16 122.21 112.63 122.55 109.10 C 122.25 108.84 121.65 108.30 121.35 108.03 C 119.29 109.62 117.05 110.96 114.63 111.91 C 113.44 110.38 112.23 108.87 110.98 107.39 C 112.01 97.25 108.05 86.90 110.93 76.93 M 112.31 78.85 C 112.75 82.92 111.53 86.90 111.65 90.96 C 111.66 93.90 112.63 96.77 112.24 99.72 C 115.53 96.20 119.14 93.00 122.89 89.98 C 119.93 85.76 116.13 82.27 112.31 78.85 Z" />
</g>
<g id="#5594a7ff">
<path fill="#5594a7" opacity="1.00" d=" M 169.79 80.19 C 171.55 78.88 173.32 77.60 175.11 76.33 L 176.03 77.32 C 176.22 77.63 176.61 78.26 176.80 78.57 C 177.93 81.39 179.04 84.22 180.15 87.05 C 178.96 86.48 177.78 85.90 176.61 85.30 C 175.31 84.37 174.03 83.41 172.77 82.43 C 171.79 81.66 170.81 80.90 169.79 80.19 Z" />
</g>
<g id="#6ba87eff">
<path fill="#6ba87e" opacity="1.00" d=" M 24.41 77.89 C 26.76 79.03 29.08 80.24 31.43 81.39 C 31.80 83.21 33.20 84.46 34.42 85.75 C 33.77 88.35 33.12 91.17 31.09 93.08 C 29.72 94.11 28.03 94.56 26.46 95.16 C 25.21 93.35 24.08 91.48 22.92 89.62 C 25.37 88.90 27.84 88.22 30.31 87.56 C 29.89 87.44 29.05 87.20 28.63 87.08 C 28.06 86.80 26.92 86.25 26.36 85.97 C 25.44 85.30 24.54 84.61 23.64 83.91 C 23.89 81.90 24.15 79.89 24.41 77.89 Z" />
</g>
<g id="#6c967fff">
<path fill="#6c967f" opacity="1.00" d=" M 92.14 77.66 C 94.29 78.87 96.42 80.13 98.31 81.72 C 96.43 81.97 94.55 82.23 92.66 82.48 C 92.35 84.20 92.04 85.93 91.66 87.64 C 91.34 87.61 90.68 87.55 90.36 87.52 C 90.85 84.22 91.41 80.92 92.14 77.66 Z" />
</g>
<g id="#a5c6caff">
<path fill="#a5c6ca" opacity="1.00" d=" M 140.37 78.92 C 144.73 77.86 149.24 77.58 153.71 77.94 C 154.69 78.79 155.68 79.62 156.70 80.43 C 152.91 82.76 148.22 82.20 144.00 81.88 C 142.12 82.00 141.36 80.14 140.37 78.92 Z" />
</g>
<g id="#3e7583ff">
<path fill="#3e7583" opacity="1.00" d=" M 155.83 77.98 C 159.60 77.88 163.29 78.81 166.70 80.37 C 165.23 83.49 167.67 85.51 170.13 86.93 C 170.33 87.47 170.74 88.54 170.94 89.08 C 170.08 88.30 169.14 88.11 168.13 88.50 L 167.76 88.82 C 167.25 88.33 166.75 87.84 166.25 87.35 L 166.62 87.12 L 166.88 86.65 C 163.88 82.98 159.31 81.13 155.83 77.98 Z" />
</g>
<g id="#89c0c4ff">
<path fill="#89c0c4" opacity="1.00" d=" M 132.19 79.27 C 134.90 79.92 137.68 79.43 140.37 78.92 C 141.36 80.14 142.12 82.00 144.00 81.88 C 148.22 82.20 152.91 82.76 156.70 80.43 C 160.00 82.57 163.11 84.98 166.25 87.35 C 166.75 87.84 167.25 88.33 167.76 88.82 C 167.49 91.40 167.11 93.96 166.73 96.52 L 166.30 96.62 C 166.12 96.09 165.78 95.02 165.60 94.49 C 165.05 92.39 164.58 90.21 163.35 88.37 C 161.93 87.28 159.66 88.27 158.27 89.12 C 158.03 89.26 157.56 89.53 157.33 89.67 C 159.74 92.09 162.06 94.62 164.56 96.96 C 163.28 97.23 162.00 97.54 160.72 97.84 C 160.38 99.05 160.05 100.26 159.71 101.47 C 159.13 101.08 158.55 100.69 157.98 100.30 C 157.83 101.34 157.68 102.37 157.54 103.41 C 152.51 96.28 144.42 91.55 135.70 90.87 C 134.49 92.94 133.60 95.20 133.40 97.62 C 131.65 93.73 129.57 90.00 127.57 86.24 C 126.97 82.93 129.72 80.81 132.19 79.27 M 151.13 89.23 C 154.03 91.32 155.27 95.02 158.07 97.04 C 156.82 93.67 154.58 90.56 151.13 89.23 Z" />
</g>
<g id="#1a5875ff">
<path fill="#1a5875" opacity="1.00" d=" M 166.70 80.37 C 168.37 81.29 170.56 81.96 171.35 83.90 C 172.05 85.91 172.04 88.07 172.28 90.17 C 171.95 89.89 171.28 89.35 170.94 89.08 C 170.74 88.54 170.33 87.47 170.13 86.93 C 167.67 85.51 165.23 83.49 166.70 80.37 Z" />
</g>
<g id="#618573ff">
<path fill="#618573" opacity="1.00" d=" M 92.66 82.48 C 94.55 82.23 96.43 81.97 98.31 81.72 C 98.72 82.08 99.53 82.78 99.93 83.13 C 99.48 86.10 99.30 89.09 99.18 92.08 L 99.05 92.41 C 98.19 94.30 98.09 96.40 98.07 98.44 C 100.10 96.27 101.09 93.42 102.54 90.87 C 104.07 92.60 105.74 94.24 106.97 96.21 C 107.13 97.99 105.93 99.61 105.45 101.28 C 106.98 100.90 108.51 100.52 110.05 100.16 C 107.05 104.97 103.13 109.14 98.61 112.55 C 96.21 110.52 93.72 108.60 91.22 106.71 C 90.85 104.70 90.43 102.71 89.91 100.74 C 89.58 102.25 89.26 103.76 88.96 105.28 C 85.75 103.19 82.42 101.30 78.99 99.59 C 77.28 97.77 75.29 95.93 74.97 93.31 C 75.39 93.31 76.23 93.32 76.65 93.32 C 78.76 90.59 80.67 87.50 80.47 83.89 C 80.79 85.66 81.03 87.45 81.31 89.24 C 81.58 88.91 82.10 88.25 82.37 87.92 C 83.47 86.51 84.48 85.02 85.48 83.53 C 86.31 84.62 87.15 85.70 88.00 86.78 C 88.07 86.29 88.20 85.31 88.27 84.82 C 88.46 85.45 88.83 86.70 89.02 87.33 C 89.35 87.38 90.02 87.47 90.36 87.52 C 90.68 87.55 91.34 87.61 91.66 87.64 C 92.04 85.93 92.35 84.20 92.66 82.48 Z" />
</g>
<g id="#82b5baff">
<path fill="#82b5ba" opacity="1.00" d=" M 172.77 82.43 C 174.03 83.41 175.31 84.37 176.61 85.30 C 179.41 87.36 181.56 90.16 182.76 93.42 C 182.59 92.54 182.26 90.77 182.09 89.89 L 184.37 90.90 C 184.45 91.13 184.63 91.60 184.72 91.83 C 185.35 96.59 184.15 101.49 184.94 106.18 L 185.15 106.67 C 184.93 107.23 184.49 108.33 184.27 108.88 C 184.13 109.34 183.87 110.24 183.74 110.69 C 182.58 112.32 181.46 113.98 180.37 115.66 C 175.86 114.06 172.10 110.02 166.99 110.63 C 160.75 110.97 154.47 111.41 148.34 112.73 C 151.12 109.33 154.99 107.02 157.54 103.41 C 157.68 102.37 157.83 101.34 157.98 100.30 C 158.55 100.69 159.13 101.08 159.71 101.47 C 160.05 100.26 160.38 99.05 160.72 97.84 C 162.00 97.54 163.28 97.23 164.56 96.96 L 165.62 96.76 L 166.30 96.62 L 166.73 96.52 C 167.11 93.96 167.49 91.40 167.76 88.82 C 169.07 89.97 170.50 91.00 172.09 91.74 C 174.08 89.06 172.72 85.48 172.77 82.43 M 182.59 101.12 C 182.70 99.54 182.73 97.97 182.69 96.39 C 181.66 97.67 181.08 99.96 182.59 101.12 M 176.13 107.98 C 175.81 109.63 176.42 110.29 177.98 109.97 C 178.31 108.31 177.69 107.65 176.13 107.98 Z" />
</g>
<g id="#30453dff">
<path fill="#30453d" opacity="1.00" d=" M 40.10 87.40 C 45.02 88.37 49.79 89.91 54.53 91.52 C 60.05 92.75 64.88 95.89 70.34 97.20 C 70.87 100.48 73.34 95.85 70.34 97.20 C 69.33 96.31 68.31 95.44 67.28 94.59 C 67.25 93.96 67.19 92.69 67.16 92.06 C 68.73 94.66 71.14 96.46 73.99 97.47 C 73.73 94.24 73.52 91.01 73.60 87.77 C 74.16 89.59 74.56 91.45 74.97 93.31 C 75.29 95.93 77.28 97.77 78.99 99.59 L 79.06 101.05 L 77.59 100.87 C 75.95 100.64 74.30 100.54 72.65 100.37 L 72.26 100.17 C 66.52 96.91 60.40 94.37 54.01 92.70 C 52.98 92.40 51.96 92.11 50.94 91.77 C 47.73 90.59 44.49 89.48 41.36 88.09 C 41.04 87.91 40.41 87.57 40.10 87.40 Z" />
<path fill="#30453d" opacity="1.00" d=" M 182.59 101.12 C 181.08 99.96 181.66 97.67 182.69 96.39 C 182.73 97.97 182.70 99.54 182.59 101.12 Z" />
</g>
<g id="#3a3c3cff">
<path fill="#3a3c3c" opacity="1.00" d=" M 115.85 94.27 C 116.66 91.70 117.69 89.20 118.90 86.79 C 119.79 87.75 120.62 88.76 121.39 89.82 C 119.61 91.38 117.78 92.89 115.85 94.27 Z" />
</g>
<g id="#3c6d7cff">
<path fill="#3c6d7c" opacity="1.00" d=" M 158.27 89.12 C 159.66 88.27 161.93 87.28 163.35 88.37 C 163.78 90.52 164.57 92.56 165.60 94.49 C 165.78 95.02 166.12 96.09 166.30 96.62 L 165.62 96.76 C 162.83 94.57 160.39 91.96 158.27 89.12 Z" />
</g>
<g id="#70a97dff">
<path fill="#70a97d" opacity="1.00" d=" M 50.94 91.77 C 51.96 92.11 52.98 92.40 54.01 92.70 C 53.82 93.75 53.62 94.80 53.43 95.85 C 49.29 94.50 45.84 97.07 42.89 99.64 C 40.40 101.32 37.77 102.78 35.13 104.21 C 33.90 102.98 32.67 101.76 31.51 100.48 L 31.48 99.65 C 32.36 99.12 34.13 98.08 35.01 97.56 C 35.71 97.18 36.41 96.82 37.10 96.42 C 38.28 96.64 39.54 96.94 40.69 96.42 C 44.19 95.07 47.74 93.77 50.94 91.77 Z" />
</g>
<g id="#639076ff">
<path fill="#639076" opacity="1.00" d=" M 54.01 92.70 C 60.40 94.37 66.52 96.91 72.26 100.17 C 70.22 102.84 68.27 105.57 66.00 108.04 C 63.55 109.09 61.31 110.52 59.12 112.02 C 56.74 111.00 54.31 110.07 51.87 109.21 C 52.52 108.68 53.84 107.62 54.49 107.09 C 53.94 106.56 53.37 106.04 52.81 105.52 C 51.87 106.51 50.91 107.48 49.98 108.48 C 49.59 108.92 48.80 109.80 48.41 110.24 C 44.80 108.80 41.23 107.28 37.74 105.58 C 39.68 103.81 41.69 102.02 42.89 99.64 C 45.84 97.07 49.29 94.50 53.43 95.85 C 53.62 94.80 53.82 93.75 54.01 92.70 M 55.13 106.26 C 55.41 105.67 55.98 104.50 56.26 103.91 C 54.92 102.89 54.21 105.54 55.13 106.26 Z" />
</g>
<g id="#ffffffff">
<path fill="#ffffff" opacity="1.00" d=" M 134.81 94.16 C 135.94 92.03 138.41 92.26 140.45 92.23 C 140.04 97.28 140.98 102.28 142.41 107.11 C 139.89 107.98 137.32 108.77 134.63 108.88 C 134.37 106.89 134.10 104.90 133.95 102.90 L 133.95 102.23 C 134.10 99.53 134.15 96.79 134.81 94.16 Z" />
<path fill="#ffffff" opacity="1.00" d=" M 186.68 117.06 C 186.95 115.46 187.54 113.88 188.91 112.92 C 189.48 114.74 189.38 116.71 188.68 118.49 C 188.23 118.29 187.34 117.89 186.90 117.69 L 186.68 117.06 Z" />
<path fill="#ffffff" opacity="1.00" d=" M 143.14 118.80 C 144.66 118.23 146.18 117.68 147.69 117.06 C 147.19 118.49 146.62 119.89 146.06 121.30 C 145.04 120.52 144.06 119.69 143.14 118.80 Z" />
<path fill="#ffffff" opacity="1.00" d=" M 171.21 175.36 C 173.26 176.72 174.94 178.56 176.27 180.64 C 173.78 180.23 171.10 179.90 169.07 178.26 C 169.60 177.53 170.67 176.08 171.21 175.36 Z" />
<path fill="#ffffff" opacity="1.00" d=" M 162.70 179.20 C 163.46 178.24 164.23 177.28 165.00 176.34 C 166.16 177.40 167.32 178.46 168.44 179.56 L 168.54 180.83 C 166.60 180.27 164.66 179.70 162.70 179.20 Z" />
<path fill="#ffffff" opacity="1.00" d=" M 78.21 178.11 C 80.19 177.81 80.50 180.49 81.37 181.72 C 80.65 181.71 79.21 181.69 78.49 181.68 L 77.24 181.65 C 77.44 180.45 77.32 179.07 78.21 178.11 Z" />
<path fill="#ffffff" opacity="1.00" d=" M 127.28 183.10 C 128.24 181.52 129.38 180.04 130.98 179.06 C 132.94 180.54 134.35 182.55 135.10 184.90 C 132.47 184.38 129.87 183.77 127.28 183.10 Z" />
<path fill="#ffffff" opacity="1.00" d=" M 137.87 182.62 C 136.51 182.17 134.88 180.40 136.71 179.33 C 137.93 179.89 138.82 180.80 139.41 182.08 C 139.25 182.27 138.92 182.64 138.76 182.83 L 137.87 182.62 Z" />
<path fill="#ffffff" opacity="1.00" d=" M 120.53 183.98 C 121.44 183.05 121.87 180.46 123.64 181.11 C 124.74 182.45 125.98 183.97 125.48 185.90 C 123.78 185.38 122.14 184.73 120.53 183.98 Z" />
</g>
<g id="#bf666eff">
<path fill="#bf666e" opacity="1.00" d=" M 141.68 93.15 C 143.25 93.71 144.82 94.29 146.40 94.86 C 146.23 98.03 145.92 101.49 148.22 104.04 C 150.55 102.59 150.94 100.01 150.41 97.45 C 151.67 99.29 156.87 101.62 153.85 104.14 C 150.20 104.63 146.53 106.55 142.91 106.09 C 141.78 101.88 140.92 97.52 141.68 93.15 Z" />
<path fill="#bf666e" opacity="1.00" d=" M 185.24 97.15 L 187.06 97.90 C 187.20 98.36 187.48 99.27 187.62 99.72 C 187.73 101.27 187.84 102.82 187.95 104.37 C 188.07 105.04 188.30 106.39 188.42 107.06 C 187.70 107.01 186.27 106.91 185.55 106.86 L 185.15 106.67 L 184.94 106.18 C 187.01 103.41 186.09 100.18 185.24 97.15 Z" />
</g>
<g id="#67a381ff">
<path fill="#67a381" opacity="1.00" d=" M 70.34 97.20 C 70.87 100.48 73.34 95.85 70.34 97.20 Z" />
</g>
<g id="#894b5fff">
<path fill="#894b5f" opacity="1.00" d=" M 108.18 97.42 C 109.60 96.98 110.01 97.47 109.41 98.88 C 107.99 99.32 107.58 98.83 108.18 97.42 Z" />
</g>
<g id="#17221bcb">
<path fill="#17221b" opacity="0.80" d=" M 31.43 98.65 L 31.48 99.65 L 31.51 100.48 C 32.67 101.76 33.90 102.98 35.13 104.21 C 37.77 102.78 40.40 101.32 42.89 99.64 C 41.69 102.02 39.68 103.81 37.74 105.58 C 41.23 107.28 44.80 108.80 48.41 110.24 C 48.04 110.49 47.30 111.00 46.93 111.26 C 41.16 108.04 34.62 105.67 30.19 100.58 C 30.50 100.09 31.12 99.13 31.43 98.65 Z" />
</g>
<g id="#354248d0">
<path fill="#354248" opacity="0.82" d=" M 187.62 99.72 C 190.08 102.00 189.75 105.81 191.32 108.65 C 189.31 108.37 187.33 107.85 185.55 106.86 C 186.27 106.91 187.70 107.01 188.42 107.06 L 189.17 107.10 C 189.81 105.92 189.40 105.01 187.95 104.37 C 187.84 102.82 187.73 101.27 187.62 99.72 Z" />
</g>
<g id="#608473ff">
<path fill="#608473" opacity="1.00" d=" M 66.00 108.04 C 68.27 105.57 70.22 102.84 72.26 100.17 L 72.65 100.37 C 74.40 101.35 76.12 102.37 77.86 103.37 C 76.04 104.52 74.28 105.77 72.72 107.25 C 75.55 106.73 78.31 103.28 81.18 105.04 C 79.77 106.20 78.40 107.40 77.08 108.66 C 79.05 107.88 80.98 107.00 82.88 106.04 C 86.31 108.32 89.76 110.59 93.01 113.14 C 93.58 113.80 94.90 114.23 94.62 115.30 C 92.02 117.63 88.83 119.12 85.70 120.58 C 85.21 120.37 84.23 119.96 83.74 119.75 C 84.61 118.39 85.47 117.03 86.34 115.67 L 85.26 115.68 C 83.90 115.51 82.50 115.39 81.26 114.79 C 80.78 113.80 80.49 112.73 80.24 111.66 L 80.14 110.40 C 76.76 112.72 73.28 114.89 69.73 116.94 C 68.71 116.56 67.69 116.19 66.68 115.80 C 64.82 115.01 62.95 114.23 61.08 113.43 C 62.71 111.62 64.36 109.84 66.00 108.04 Z" />
</g>
<g id="#538896ff">
<path fill="#538896" opacity="1.00" d=" M 95.53 116.67 C 100.98 112.98 105.62 108.26 110.02 103.39 C 109.84 106.48 109.77 109.57 109.80 112.67 L 109.73 113.20 C 108.14 112.80 106.54 112.39 104.94 111.99 C 106.35 113.61 107.76 115.22 109.18 116.82 C 108.53 117.95 107.90 119.09 107.20 120.19 C 106.00 121.80 104.71 123.32 103.40 124.84 C 101.87 123.00 100.40 121.11 98.78 119.36 C 98.16 118.86 96.92 117.84 96.31 117.34 L 95.53 116.67 Z" />
</g>
<g id="#96c1c3ff">
<path fill="#96c1c3" opacity="1.00" d=" M 137.13 109.56 C 143.69 106.67 150.84 105.80 157.54 103.41 C 154.99 107.02 151.12 109.33 148.34 112.73 C 146.44 113.21 144.55 113.79 142.70 114.46 C 142.10 113.98 140.90 113.04 140.31 112.56 C 138.45 110.85 135.83 112.35 133.64 112.44 C 134.80 111.47 135.94 110.49 137.13 109.56 Z" />
</g>
<g id="#9ea3a5ff">
<path fill="#9ea3a5" opacity="1.00" d=" M 187.95 104.37 C 189.40 105.01 189.81 105.92 189.17 107.10 L 188.42 107.06 C 188.30 106.39 188.07 105.04 187.95 104.37 Z" />
</g>
<g id="#121a15bd">
<path fill="#121a15" opacity="0.74" d=" M 52.81 105.52 C 53.37 106.04 53.94 106.56 54.49 107.09 C 53.84 107.62 52.52 108.68 51.87 109.21 C 54.31 110.07 56.74 111.00 59.12 112.02 C 61.31 110.52 63.55 109.09 66.00 108.04 C 64.36 109.84 62.71 111.62 61.08 113.43 C 62.95 114.23 64.82 115.01 66.68 115.80 C 66.70 116.35 66.73 117.44 66.75 117.99 L 65.66 118.15 C 65.97 115.66 63.03 115.56 61.50 114.44 C 57.80 112.16 53.15 111.61 49.98 108.48 C 50.91 107.48 51.87 106.51 52.81 105.52 Z" />
</g>
<g id="#5899acff">
<path fill="#5899ac" opacity="1.00" d=" M 185.15 106.67 L 185.55 106.86 C 187.33 107.85 189.31 108.37 191.32 108.65 C 191.46 109.08 191.76 109.93 191.91 110.36 C 192.14 112.03 192.56 114.84 190.23 115.15 C 189.90 114.59 189.24 113.48 188.91 112.92 C 188.91 112.63 188.92 112.06 188.92 111.78 C 186.38 113.64 183.75 115.92 180.37 115.66 C 181.46 113.98 182.58 112.32 183.74 110.69 C 186.15 112.11 187.16 107.76 184.27 108.88 C 184.49 108.33 184.93 107.23 185.15 106.67 Z" />
<path fill="#5899ac" opacity="1.00" d=" M 135.44 159.53 C 138.69 159.47 141.42 157.03 144.71 157.52 C 142.03 159.62 138.97 161.13 135.81 162.36 C 135.72 161.66 135.54 160.24 135.44 159.53 Z" />
</g>
<g id="#8dc1c5ff">
<path fill="#8dc1c5" opacity="1.00" d=" M 110.98 107.39 C 112.23 108.87 113.44 110.38 114.63 111.91 C 117.05 110.96 119.29 109.62 121.35 108.03 C 121.65 108.30 122.25 108.84 122.55 109.10 C 122.21 112.63 122.95 116.16 122.75 119.67 C 120.46 122.48 116.38 119.99 113.35 120.01 C 112.77 124.83 111.98 129.69 109.95 134.15 C 107.29 129.94 107.33 124.97 107.20 120.19 C 107.90 119.09 108.53 117.95 109.18 116.82 C 107.76 115.22 106.35 113.61 104.94 111.99 C 106.54 112.39 108.14 112.80 109.73 113.20 L 109.80 112.67 C 110.19 110.91 110.63 109.16 110.98 107.39 Z" />
<path fill="#8dc1c5" opacity="1.00" d=" M 171.94 140.88 C 172.84 143.35 173.48 145.91 173.80 148.53 C 173.55 148.49 173.05 148.41 172.80 148.36 C 171.03 147.73 169.29 147.01 167.54 146.33 C 169.06 144.55 170.50 142.72 171.94 140.88 Z" />
</g>
<g id="#3c646eff">
<path fill="#3c646e" opacity="1.00" d=" M 176.13 107.98 C 177.69 107.65 178.31 108.31 177.98 109.97 C 176.42 110.29 175.81 109.63 176.13 107.98 Z" />
</g>
<g id="#659176ff">
<path fill="#659176" opacity="1.00" d=" M 91.24 109.09 C 93.03 108.78 94.85 110.76 95.28 112.37 C 93.70 112.11 91.31 110.82 91.24 109.09 Z" />
<path fill="#659176" opacity="1.00" d=" M 74.13 117.53 C 75.98 115.39 78.27 113.69 80.24 111.66 C 80.49 112.73 80.78 113.80 81.26 114.79 C 82.50 115.39 83.90 115.51 85.26 115.68 C 82.72 117.38 80.32 119.28 77.87 121.11 C 76.75 119.93 73.84 119.47 74.13 117.53 Z" />
</g>
<g id="#3f707eff">
<path fill="#3f707e" opacity="1.00" d=" M 184.27 108.88 C 187.16 107.76 186.15 112.11 183.74 110.69 C 183.87 110.24 184.13 109.34 184.27 108.88 Z" />
</g>
<g id="#111f23bd">
<path fill="#111f23" opacity="0.74" d=" M 191.91 110.36 L 193.01 110.11 C 192.95 112.26 192.67 114.41 192.30 116.53 C 191.53 116.16 190.84 115.70 190.23 115.15 C 192.56 114.84 192.14 112.03 191.91 110.36 Z" />
</g>
<g id="#648574ff">
<path fill="#648574" opacity="1.00" d=" M 95.28 112.37 C 95.44 112.52 95.78 112.83 95.95 112.99 C 95.78 112.83 95.44 112.52 95.28 112.37 Z" />
</g>
<g id="#5595a7ff">
<path fill="#5595a7" opacity="1.00" d=" M 148.76 113.64 C 154.36 112.02 160.27 111.94 166.04 111.43 C 171.72 110.54 175.85 115.29 180.96 116.71 C 182.37 116.44 183.71 115.91 185.08 115.46 C 185.48 115.86 186.28 116.66 186.68 117.06 L 186.90 117.69 C 185.29 120.54 183.64 123.38 181.74 126.06 C 180.92 127.10 180.00 128.06 179.04 128.98 C 179.45 127.08 179.74 125.16 180.07 123.24 C 175.46 127.37 168.61 125.16 163.75 128.75 C 162.15 130.01 159.47 131.46 159.96 133.87 C 160.67 136.02 158.50 137.39 157.43 138.93 C 157.93 139.12 158.93 139.52 159.43 139.72 C 150.10 142.64 139.91 142.29 130.72 139.04 C 130.28 138.75 129.41 138.17 128.97 137.88 C 128.37 137.45 127.78 137.02 127.19 136.59 C 128.43 136.40 129.68 136.20 130.92 136.01 C 130.36 132.73 129.65 129.48 129.40 126.16 C 131.76 125.07 134.13 123.70 135.18 121.18 C 136.82 119.54 138.59 118.05 140.33 116.52 C 142.09 118.82 143.75 121.52 146.79 122.21 C 147.72 119.42 148.41 116.56 148.76 113.64 Z" />
</g>
<g id="#bec2d2ff">
<path fill="#bec2d2" opacity="1.00" d=" M 141.31 115.78 C 143.43 115.06 145.58 114.39 147.80 114.07 C 147.77 114.82 147.72 116.32 147.69 117.06 C 146.18 117.68 144.66 118.23 143.14 118.80 L 142.81 118.92 C 142.30 117.88 141.81 116.83 141.31 115.78 Z" />
</g>
<g id="#055c72ff">
<path fill="#055c72" opacity="1.00" d=" M 85.83 131.09 C 87.57 125.52 89.82 119.28 95.53 116.67 L 96.31 117.34 C 97.72 121.79 95.86 126.36 95.78 130.87 C 95.63 131.93 95.51 133.01 95.39 134.08 C 95.30 130.02 95.53 125.59 92.71 122.30 C 92.33 125.96 93.54 129.56 93.33 133.20 C 91.23 134.51 88.89 135.37 86.62 136.35 C 85.87 134.71 85.15 132.90 85.83 131.09 Z" />
</g>
<g id="#6c9c7aff">
<path fill="#6c9c7a" opacity="1.00" d=" M 65.66 118.15 L 66.75 117.99 C 67.07 118.05 67.70 118.15 68.02 118.20 C 69.23 122.64 70.17 127.35 69.07 131.91 C 68.48 134.66 65.60 135.87 64.13 138.06 C 63.73 140.07 63.85 142.15 63.82 144.19 L 62.98 144.34 C 63.04 138.70 62.79 133.02 63.85 127.46 C 60.90 132.66 59.08 138.38 56.63 143.82 C 54.14 144.53 51.62 145.15 49.10 145.73 C 49.01 144.97 48.83 143.45 48.74 142.70 C 48.95 141.99 49.38 140.57 49.60 139.86 C 47.70 140.44 47.12 142.44 46.14 143.92 C 44.38 143.71 42.64 143.36 40.93 142.95 C 41.47 141.92 41.90 140.72 42.91 140.04 C 43.23 139.61 43.85 138.75 44.16 138.31 C 44.50 137.89 45.18 137.06 45.52 136.64 C 47.35 134.63 48.88 132.39 50.23 130.04 C 47.74 131.94 45.20 133.78 42.87 135.86 L 42.00 136.64 C 41.63 136.32 40.89 135.69 40.52 135.37 C 42.46 133.13 44.44 130.92 46.50 128.79 L 44.84 128.50 L 45.07 128.37 C 47.71 127.04 50.33 125.62 52.60 123.72 L 52.91 123.48 C 53.21 123.42 53.81 123.30 54.11 123.24 C 55.95 123.04 57.51 122.02 58.94 120.93 C 59.27 120.79 59.95 120.52 60.29 120.38 C 61.38 120.35 62.29 119.91 63.01 119.09 C 63.67 118.85 64.99 118.39 65.66 118.15 Z" />
</g>
<g id="#547063ff">
<path fill="#547063" opacity="1.00" d=" M 68.02 118.20 C 71.88 118.38 74.70 121.19 77.75 123.20 C 78.97 122.26 80.18 121.31 81.40 120.37 C 82.21 120.68 83.03 120.98 83.85 121.29 C 79.59 123.61 75.34 126.29 72.60 130.41 C 69.46 134.40 67.80 139.22 65.83 143.82 C 65.32 143.91 64.32 144.10 63.82 144.19 C 63.85 142.15 63.73 140.07 64.13 138.06 C 65.60 135.87 68.48 134.66 69.07 131.91 C 70.17 127.35 69.23 122.64 68.02 118.20 Z" />
</g>
<g id="#123e4aff">
<path fill="#123e4a" opacity="1.00" d=" M 96.31 117.34 C 96.92 117.84 98.16 118.86 98.78 119.36 C 98.72 119.85 98.62 120.82 98.57 121.30 C 98.12 124.22 97.63 127.14 96.86 129.99 L 95.78 130.87 C 95.86 126.36 97.72 121.79 96.31 117.34 Z" />
</g>
<g id="#101712a8">
<path fill="#101712" opacity="0.66" d=" M 60.29 120.38 C 60.54 118.68 61.44 118.25 63.01 119.09 C 62.29 119.91 61.38 120.35 60.29 120.38 Z" />
</g>
<g id="#9bc8cbff">
<path fill="#9bc8cb" opacity="1.00" d=" M 98.78 119.36 C 100.40 121.11 101.87 123.00 103.40 124.84 C 104.71 123.32 106.00 121.80 107.20 120.19 C 107.33 124.97 107.29 129.94 109.95 134.15 C 111.66 137.31 112.14 140.90 112.32 144.45 C 112.80 144.43 113.76 144.39 114.24 144.37 C 113.75 146.74 113.40 149.14 113.17 151.55 C 112.58 149.66 111.85 147.81 111.13 145.97 C 108.62 148.91 107.72 152.66 107.70 156.46 C 106.84 156.41 105.98 156.36 105.12 156.31 C 105.50 159.02 105.61 161.77 105.18 164.49 C 103.05 158.13 102.00 151.46 101.13 144.83 C 101.42 142.17 102.96 139.19 101.78 136.61 C 100.08 136.30 98.34 136.51 96.65 136.69 C 96.70 136.20 96.81 135.23 96.87 134.75 C 96.91 133.16 96.88 131.57 96.86 129.99 C 98.66 129.09 100.36 128.01 102.03 126.91 C 101.00 124.97 99.88 123.07 98.57 121.30 C 98.62 120.82 98.72 119.85 98.78 119.36 Z" />
</g>
<g id="#151f19c3">
<path fill="#151f19" opacity="0.76" d=" M 53.91 122.83 C 54.74 121.21 57.25 120.17 58.94 120.93 C 57.51 122.02 55.95 123.04 54.11 123.24 L 53.91 122.83 Z" />
</g>
<g id="#608e9dff">
<path fill="#608e9d" opacity="1.00" d=" M 81.69 124.58 C 84.05 123.20 86.53 122.06 88.96 120.84 C 86.67 125.76 83.23 131.07 85.02 136.71 C 84.42 137.08 83.22 137.83 82.62 138.20 C 82.21 135.14 83.70 132.31 84.42 129.42 C 82.12 131.37 80.01 133.53 78.03 135.81 C 76.79 135.17 74.52 135.24 74.25 133.58 C 76.32 130.27 80.98 128.62 81.69 124.58 Z" />
</g>
<g id="#578b99ff">
<path fill="#578b99" opacity="1.00" d=" M 98.57 121.30 C 99.88 123.07 101.00 124.97 102.03 126.91 C 100.36 128.01 98.66 129.09 96.86 129.99 C 97.63 127.14 98.12 124.22 98.57 121.30 Z" />
</g>
<g id="#285f79ff">
<path fill="#285f79" opacity="1.00" d=" M 93.33 133.20 C 93.54 129.56 92.33 125.96 92.71 122.30 C 95.53 125.59 95.30 130.02 95.39 134.08 C 95.51 133.01 95.63 131.93 95.78 130.87 L 96.86 129.99 C 96.88 131.57 96.91 133.16 96.87 134.75 C 94.53 136.68 91.80 138.03 88.96 139.05 C 89.93 139.10 90.91 139.15 91.89 139.19 C 90.52 139.63 89.03 140.29 87.60 139.73 C 87.33 138.59 87.02 137.46 86.62 136.35 C 88.89 135.37 91.23 134.51 93.33 133.20 Z" />
</g>
<g id="#75abb5ff">
<path fill="#75abb5" opacity="1.00" d=" M 163.75 128.75 C 168.61 125.16 175.46 127.37 180.07 123.24 C 179.74 125.16 179.45 127.08 179.04 128.98 C 178.82 129.19 178.39 129.61 178.17 129.82 C 175.18 132.17 171.90 134.09 168.65 136.03 C 165.71 137.56 162.66 138.92 159.43 139.72 C 158.93 139.52 157.93 139.12 157.43 138.93 C 158.50 137.39 160.67 136.02 159.96 133.87 C 159.47 131.46 162.15 130.01 163.75 128.75 Z" />
</g>
<g id="#151d17a5">
<path fill="#151d17" opacity="0.65" d=" M 45.07 128.37 C 46.79 125.88 49.81 124.60 52.60 123.72 C 50.33 125.62 47.71 127.04 45.07 128.37 Z" />
</g>
<g id="#a4cbcfff">
<path fill="#a4cbcf" opacity="1.00" d=" M 71.45 135.16 C 73.98 130.89 77.17 126.85 81.69 124.58 C 80.98 128.62 76.32 130.27 74.25 133.58 C 74.52 135.24 76.79 135.17 78.03 135.81 L 79.56 136.11 C 79.20 136.74 78.47 138.01 78.11 138.64 C 75.52 138.26 73.22 137.08 71.45 135.16 Z" />
</g>
<g id="#1a231da8">
<path fill="#1a231d" opacity="0.66" d=" M 42.26 129.35 L 43.11 128.67 L 43.98 128.93 C 43.56 129.27 42.74 129.93 42.32 130.27 L 42.26 129.35 Z" />
</g>
<g id="#85b895ff">
<path fill="#85b895" opacity="1.00" d=" M 43.98 128.93 L 44.84 128.50 L 46.50 128.79 C 44.44 130.92 42.46 133.13 40.52 135.37 C 40.14 135.20 39.40 134.85 39.03 134.68 C 39.09 134.17 39.21 133.16 39.28 132.66 C 39.68 132.22 40.50 131.33 40.91 130.88 C 41.26 130.73 41.97 130.42 42.32 130.27 C 42.74 129.93 43.56 129.27 43.98 128.93 Z" />
</g>
<g id="#88bfc3ff">
<path fill="#88bfc3" opacity="1.00" d=" M 78.03 135.81 C 80.01 133.53 82.12 131.37 84.42 129.42 C 83.70 132.31 82.21 135.14 82.62 138.20 C 83.22 137.83 84.42 137.08 85.02 136.71 C 85.83 137.75 86.69 138.76 87.60 139.73 C 89.03 140.29 90.52 139.63 91.89 139.19 C 93.54 138.48 95.09 137.57 96.65 136.69 C 98.34 136.51 100.08 136.30 101.78 136.61 C 102.96 139.19 101.42 142.17 101.13 144.83 C 100.85 143.26 100.57 141.69 100.30 140.12 C 100.21 140.77 100.02 142.06 99.93 142.71 C 96.88 148.62 90.89 152.02 85.57 155.61 C 84.17 156.78 82.34 156.43 80.68 156.38 C 80.37 158.27 79.88 160.17 78.72 161.74 C 75.41 166.55 72.42 171.97 67.11 174.89 C 65.51 173.77 63.90 172.69 62.28 171.61 C 62.22 169.28 62.25 166.95 62.47 164.63 C 62.69 164.66 63.13 164.73 63.34 164.76 C 64.88 166.06 66.50 167.29 68.44 167.94 C 70.63 165.74 73.56 163.86 74.65 160.85 C 74.10 156.72 70.98 153.44 69.16 149.78 C 68.60 149.60 67.47 149.25 66.91 149.07 L 66.08 148.78 C 67.61 144.15 68.93 139.37 71.45 135.16 C 73.22 137.08 75.52 138.26 78.11 138.64 C 77.61 140.42 77.33 142.25 77.04 144.08 C 79.01 143.30 80.94 142.43 82.84 141.50 C 82.20 139.77 81.54 138.03 80.79 136.35 C 80.48 136.29 79.87 136.17 79.56 136.11 L 78.03 135.81 Z" />
</g>
<g id="#12181586">
<path fill="#121815" opacity="0.53" d=" M 39.03 134.68 C 35.86 134.73 38.75 129.38 40.91 130.88 C 40.50 131.33 39.68 132.22 39.28 132.66 C 39.21 133.16 39.09 134.17 39.03 134.68 Z" />
</g>
<g id="#02040376">
<path fill="#020403" opacity="0.46" d=" M 39.26 135.71 C 40.13 136.16 41.75 136.95 41.48 138.13 C 40.22 138.99 38.11 136.83 39.26 135.71 Z" />
</g>
<g id="#47899fff">
<path fill="#47899f" opacity="1.00" d=" M 167.90 137.18 C 168.49 136.98 169.65 136.57 170.23 136.37 C 170.84 137.85 171.40 139.36 171.94 140.88 C 170.50 142.72 169.06 144.55 167.54 146.33 C 166.81 147.17 166.16 148.08 165.63 149.06 C 165.34 148.85 164.77 148.42 164.48 148.20 C 163.31 151.44 161.98 154.67 161.45 158.10 C 160.98 161.12 160.67 164.18 160.78 167.24 C 159.80 168.08 159.13 169.35 157.89 169.83 C 155.82 170.43 154.30 168.61 152.61 167.79 C 152.21 167.79 151.40 167.78 150.99 167.77 L 150.70 167.77 C 150.12 166.42 149.44 165.09 149.15 163.64 C 148.80 161.95 148.56 160.04 147.14 158.86 L 146.47 158.16 C 149.68 154.72 153.56 151.84 155.84 147.63 C 152.39 151.20 148.89 154.78 144.71 157.52 C 141.42 157.03 138.69 159.47 135.44 159.53 C 134.33 153.22 132.30 146.93 128.50 141.70 C 128.62 140.42 128.80 139.15 128.97 137.88 C 129.41 138.17 130.28 138.75 130.72 139.04 C 133.42 140.91 136.71 141.58 139.90 142.09 C 149.45 143.23 159.33 141.56 167.90 137.18 Z" />
</g>
<g id="#1c251fc9">
<path fill="#1c251f" opacity="0.79" d=" M 43.25 138.29 L 44.16 138.31 C 43.85 138.75 43.23 139.61 42.91 140.04 L 42.61 139.18 L 43.25 138.29 Z" />
</g>
<g id="#4a8da2ff">
<path fill="#4a8da2" opacity="1.00" d=" M 79.68 138.91 C 82.55 137.58 80.70 142.93 78.49 141.83 C 78.42 140.72 78.82 139.75 79.68 138.91 Z" />
<path fill="#4a8da2" opacity="1.00" d=" M 85.57 155.61 C 90.89 152.02 96.88 148.62 99.93 142.71 C 101.16 152.67 102.34 163.06 107.45 171.92 C 101.42 172.02 96.33 168.56 91.02 166.28 C 90.42 167.24 89.73 168.14 88.97 168.97 C 87.81 170.04 86.90 171.43 86.80 173.05 L 86.61 172.96 C 84.36 171.59 83.94 174.77 84.99 176.13 C 84.33 177.59 83.55 178.99 82.70 180.35 C 81.16 178.83 79.62 177.30 78.08 175.79 C 76.87 177.59 75.75 179.45 74.66 181.34 C 73.61 179.78 72.52 178.25 71.53 176.66 C 70.54 177.75 69.55 178.84 68.57 179.93 C 67.00 179.98 65.44 180.03 63.88 180.10 C 62.48 177.49 62.32 174.51 62.28 171.61 C 63.90 172.69 65.51 173.77 67.11 174.89 C 72.42 171.97 75.41 166.55 78.72 161.74 C 79.88 160.17 80.37 158.27 80.68 156.38 C 82.34 156.43 84.17 156.78 85.57 155.61 Z" />
</g>
<g id="#5695a8ff">
<path fill="#5695a8" opacity="1.00" d=" M 129.22 144.29 C 132.28 149.80 134.21 155.85 134.92 162.11 C 135.60 168.40 137.78 175.07 135.15 181.19 C 133.48 180.28 132.09 178.46 130.11 178.32 C 128.10 179.29 127.28 181.54 126.08 183.28 C 124.89 181.96 123.68 180.66 122.48 179.36 C 121.28 180.77 120.28 182.34 119.42 183.98 C 117.22 183.93 115.16 183.18 113.54 181.66 C 113.45 181.52 113.29 181.23 113.20 181.09 C 112.04 178.72 110.57 176.53 108.96 174.45 C 108.82 173.98 108.55 173.05 108.41 172.58 C 112.59 173.16 114.31 177.36 117.52 179.48 C 119.31 180.45 120.38 178.41 121.18 177.17 C 123.99 172.39 126.66 167.20 126.67 161.52 C 127.25 159.45 127.76 157.36 128.23 155.26 C 127.87 154.52 127.16 153.04 126.80 152.31 L 127.94 153.04 C 128.19 150.10 128.52 147.16 129.22 144.29 Z" />
</g>
<g id="#83b5baff">
<path fill="#83b5ba" opacity="1.00" d=" M 107.70 156.46 C 107.72 152.66 108.62 148.91 111.13 145.97 C 111.85 147.81 112.58 149.66 113.17 151.55 C 113.43 155.67 115.92 159.32 119.08 161.82 C 121.41 163.36 124.28 162.31 126.67 161.52 C 126.66 167.20 123.99 172.39 121.18 177.17 C 120.38 178.41 119.31 180.45 117.52 179.48 C 114.31 177.36 112.59 173.16 108.41 172.58 C 108.23 172.52 107.87 172.40 107.70 172.34 C 107.60 171.80 107.41 170.71 107.31 170.16 C 106.71 168.23 105.86 166.39 105.18 164.49 C 105.61 161.77 105.50 159.02 105.12 156.31 C 105.98 156.36 106.84 156.41 107.70 156.46 M 117.06 172.66 C 119.70 172.66 121.67 170.30 123.34 168.49 C 121.60 167.11 119.83 165.75 117.90 164.66 C 117.70 164.45 117.31 164.04 117.11 163.83 C 114.10 165.40 113.61 171.29 117.06 172.66 Z" />
</g>
<g id="#346a7cff">
<path fill="#346a7c" opacity="1.00" d=" M 116.28 157.59 C 113.15 154.08 113.99 148.78 115.83 144.86 C 118.62 146.98 121.35 149.23 124.53 150.78 C 125.29 151.29 126.04 151.80 126.80 152.31 C 126.72 154.89 126.61 157.48 126.53 160.07 C 125.13 160.91 123.75 162.13 121.99 161.92 C 119.25 162.12 117.81 159.38 116.28 157.59 Z" />
</g>
<g id="#5696a8ff">
<path fill="#5696a8" opacity="1.00" d=" M 164.48 148.20 C 164.77 148.42 165.34 148.85 165.63 149.06 C 165.40 152.21 165.03 155.55 167.12 158.21 C 168.01 164.71 171.62 170.25 175.44 175.40 L 175.47 177.02 C 173.91 176.35 172.52 175.41 171.22 174.33 C 170.27 175.64 169.29 176.93 168.38 178.27 C 167.33 177.24 166.24 176.26 165.14 175.29 C 164.07 176.45 163.02 177.64 161.96 178.81 C 161.21 178.68 159.71 178.41 158.96 178.28 C 158.41 178.15 157.32 177.89 156.77 177.77 L 156.38 177.67 L 156.07 176.66 C 155.59 174.63 154.50 172.82 152.95 171.44 C 151.96 170.43 151.55 169.03 150.99 167.77 C 151.40 167.78 152.21 167.79 152.61 167.79 C 154.30 168.61 155.82 170.43 157.89 169.83 C 159.13 169.35 159.80 168.08 160.78 167.24 C 162.82 165.84 165.31 164.72 165.93 162.08 C 164.18 163.00 162.73 164.37 161.33 165.74 C 161.43 163.36 161.86 161.02 163.09 158.96 C 162.68 158.74 161.86 158.31 161.45 158.10 C 161.98 154.67 163.31 151.44 164.48 148.20 Z" />
</g>
<g id="#33687bff">
<path fill="#33687b" opacity="1.00" d=" M 167.04 148.04 C 168.95 147.42 170.89 148.16 172.80 148.36 C 173.05 148.41 173.55 148.49 173.80 148.53 C 174.59 152.78 176.25 157.01 175.64 161.40 C 174.78 162.45 173.46 162.95 172.13 162.97 C 168.57 158.97 164.00 153.67 167.04 148.04 Z" />
</g>
<g id="#427481ff">
<path fill="#427481" opacity="1.00" d=" M 66.08 148.78 L 66.91 149.07 C 70.26 151.88 72.38 155.97 73.84 160.02 C 72.37 162.93 70.35 165.90 67.10 166.97 C 66.21 166.26 65.33 165.55 64.40 164.91 L 63.34 164.76 C 63.13 164.73 62.69 164.66 62.47 164.63 C 63.47 159.30 64.61 154.00 66.08 148.78 Z" />
</g>
<g id="#112127bf">
<path fill="#112127" opacity="0.75" d=" M 147.14 158.86 C 148.56 160.04 148.80 161.95 149.15 163.64 C 147.26 163.87 146.27 160.29 147.14 158.86 Z" />
</g>
<g id="#85b6bbff">
<path fill="#85b6bb" opacity="1.00" d=" M 167.12 158.21 C 168.71 160.14 170.09 162.33 172.11 163.86 C 173.60 163.61 174.83 162.63 176.15 161.96 C 176.46 166.46 176.01 170.94 175.44 175.40 C 171.62 170.25 168.01 164.71 167.12 158.21 Z" />
</g>
<g id="#467c88ff">
<path fill="#467c88" opacity="1.00" d=" M 117.11 163.83 C 117.31 164.04 117.70 164.45 117.90 164.66 C 119.24 166.09 120.65 167.46 122.07 168.81 C 120.61 169.98 119.15 171.16 117.70 172.35 C 114.21 170.46 116.41 166.73 117.11 163.83 Z" />
</g>
<g id="#0b14169b">
<path fill="#0b1416" opacity="0.61" d=" M 86.80 173.05 C 86.90 171.43 87.81 170.04 88.97 168.97 C 89.76 170.34 88.51 173.28 86.80 173.05 Z" />
</g>
<g id="#63adc4ff">
<path fill="#63adc4" opacity="1.00" d=" M 84.99 176.13 C 83.94 174.77 84.36 171.59 86.61 172.96 C 86.47 173.42 86.20 174.33 86.06 174.79 C 85.79 175.13 85.25 175.80 84.99 176.13 Z" />
</g>
<g id="#122125c5">
<path fill="#122125" opacity="0.77" d=" M 152.95 171.44 C 154.50 172.82 155.59 174.63 156.07 176.66 C 154.09 176.69 152.41 173.27 152.95 171.44 Z" />
</g>
<g id="#0e181ba3">
<path fill="#0e181b" opacity="0.64" d=" M 108.96 174.45 C 110.57 176.53 112.04 178.72 113.20 181.09 C 111.15 179.42 109.26 177.18 108.96 174.45 Z" />
</g>
<g id="#cad1e0ff">
<path fill="#cad1e0" opacity="1.00" d=" M 178.64 178.02 C 177.46 178.99 174.59 176.67 176.58 175.99 C 177.83 176.23 178.52 176.91 178.64 178.02 Z" />
</g>
<g id="#b0b4c0ff">
<path fill="#b0b4c0" opacity="1.00" d=" M 86.64 180.17 C 83.37 180.49 85.44 176.37 86.91 179.39 L 86.64 180.17 Z" />
</g>
<g id="#c0c3ceff">
<path fill="#c0c3ce" opacity="1.00" d=" M 71.38 182.05 C 69.71 181.70 69.88 178.64 71.73 179.16 C 72.99 179.72 73.49 182.98 71.38 182.05 Z" />
</g>
</svg>
