<?xml version="1.0" encoding="UTF-8" ?>
<!DOCTYPE svg PUBLIC "-//W3C//DTD SVG 1.1//EN" "http://www.w3.org/Graphics/SVG/1.1/DTD/svg11.dtd">
<svg width="215pt" height="215pt" viewBox="0 0 215 215" version="1.1" xmlns="http://www.w3.org/2000/svg">
<g id="#382325a8">
<path fill="#382325" opacity="0.66" d=" M 74.50 46.06 C 78.20 42.64 83.54 42.45 88.25 41.58 C 92.94 40.77 98.64 40.27 102.25 44.02 C 99.86 43.21 97.49 42.24 94.98 41.89 C 92.56 41.97 90.15 42.12 87.76 42.44 C 85.71 42.78 83.66 43.13 81.64 43.63 C 79.20 44.28 76.84 45.14 74.50 46.06 Z" />
</g>
<g id="#d78389ff">
<path fill="#d78389" opacity="1.00" d=" M 87.76 42.44 C 90.15 42.12 92.56 41.97 94.98 41.89 C 94.10 42.81 93.23 43.75 92.40 44.71 C 92.67 46.76 93.22 48.76 93.88 50.72 C 91.21 49.83 88.47 49.15 85.72 48.56 C 86.03 48.05 86.64 47.03 86.95 46.52 C 85.18 47.05 83.40 47.57 81.63 48.07 C 83.49 46.00 85.51 44.08 87.76 42.44 Z" />
</g>
<g id="#efcaceff">
<path fill="#efcace" opacity="1.00" d=" M 94.98 41.89 C 97.49 42.24 99.86 43.21 102.25 44.02 L 102.52 44.11 C 102.20 44.53 101.56 45.38 101.24 45.81 C 100.71 45.39 99.64 44.56 99.10 44.14 C 96.87 44.40 94.63 44.55 92.40 44.71 C 93.23 43.75 94.10 42.81 94.98 41.89 Z" />
<path fill="#efcace" opacity="1.00" d=" M 141.05 55.88 C 143.71 54.59 146.61 53.98 149.55 53.88 C 151.23 55.28 153.00 56.57 154.75 57.88 C 153.22 58.39 151.69 58.90 150.15 59.39 C 149.22 58.92 148.28 58.47 147.33 58.06 C 145.28 57.20 143.15 56.57 141.05 55.88 Z" />
</g>
<g id="#3b2224b5">
<path fill="#3b2224" opacity="0.71" d=" M 113.86 44.32 C 121.02 40.15 130.49 41.81 137.20 46.11 C 134.32 45.20 131.46 44.26 128.54 43.50 L 127.28 43.29 C 123.48 42.43 119.59 43.08 115.84 43.89 C 115.35 44.00 114.36 44.21 113.86 44.32 Z" />
</g>
<g id="#edced0ff">
<path fill="#edced0" opacity="1.00" d=" M 81.64 43.63 C 83.66 43.13 85.71 42.78 87.76 42.44 C 85.51 44.08 83.49 46.00 81.63 48.07 C 83.40 47.57 85.18 47.05 86.95 46.52 C 86.64 47.03 86.03 48.05 85.72 48.56 C 83.47 48.28 81.19 48.22 78.92 48.25 C 79.63 48.10 81.05 47.79 81.76 47.64 C 81.73 46.64 81.67 44.63 81.64 43.63 Z" />
<path fill="#edced0" opacity="1.00" d=" M 61.69 51.75 C 64.65 50.74 67.72 50.07 70.82 49.67 C 71.53 49.64 72.95 49.58 73.66 49.55 C 72.04 52.32 69.07 53.54 66.23 54.66 C 64.91 54.01 63.59 53.37 62.29 52.67 L 61.69 51.75 Z" />
<path fill="#edced0" opacity="1.00" d=" M 155.03 65.05 C 156.36 62.90 158.59 63.25 160.20 64.80 C 159.19 65.03 157.17 65.50 156.16 65.73 C 155.88 65.56 155.32 65.22 155.03 65.05 Z" />
<path fill="#edced0" opacity="1.00" d=" M 83.17 159.20 C 83.47 159.31 84.06 159.52 84.36 159.63 C 84.64 160.41 85.20 161.98 85.49 162.76 L 84.35 162.34 C 83.77 162.12 82.62 161.68 82.05 161.46 C 82.42 160.71 82.80 159.95 83.17 159.20 Z" />
</g>
<g id="#e48990ff">
<path fill="#e48990" opacity="1.00" d=" M 115.84 43.89 C 119.59 43.08 123.48 42.43 127.28 43.29 C 125.62 44.15 124.02 45.13 122.46 46.17 C 120.40 46.32 118.33 46.40 116.26 46.46 C 116.13 45.60 115.99 44.75 115.84 43.89 Z" />
</g>
<g id="#ea7982ff">
<path fill="#ea7982" opacity="1.00" d=" M 74.50 46.06 C 76.84 45.14 79.20 44.28 81.64 43.63 C 81.67 44.63 81.73 46.64 81.76 47.64 C 81.05 47.79 79.63 48.10 78.92 48.25 C 76.57 48.43 74.22 48.55 71.87 48.65 L 72.96 46.78 C 73.34 46.60 74.11 46.24 74.50 46.06 Z" />
</g>
<g id="#a8916fff">
<path fill="#a8916f" opacity="1.00" d=" M 113.86 44.32 C 114.36 44.21 115.35 44.00 115.84 43.89 C 115.99 44.75 116.13 45.60 116.26 46.46 C 116.39 47.61 116.51 48.77 116.61 49.92 C 115.97 50.26 114.67 50.94 114.02 51.27 C 113.29 49.79 112.57 48.30 111.87 46.80 C 111.64 47.59 111.42 48.38 111.18 49.17 C 110.77 50.30 110.11 51.25 109.20 52.01 C 108.75 50.52 107.60 49.31 106.08 48.92 C 106.23 49.53 106.55 50.77 106.70 51.38 C 106.36 51.36 105.68 51.33 105.34 51.31 C 103.49 50.19 101.86 48.76 100.28 47.30 L 101.24 45.81 C 101.56 45.38 102.20 44.53 102.52 44.11 L 102.84 45.29 C 102.84 46.66 104.49 49.81 105.78 47.65 C 106.48 46.52 107.19 45.40 107.89 44.27 C 108.60 45.17 109.30 46.07 110.01 46.97 C 111.26 46.05 112.48 45.05 113.86 44.32 Z" />
</g>
<g id="#f2c6cbff">
<path fill="#f2c6cb" opacity="1.00" d=" M 122.46 46.17 C 124.02 45.13 125.62 44.15 127.28 43.29 L 128.54 43.50 C 128.41 44.70 128.81 46.06 128.22 47.16 C 127.26 47.56 126.29 47.93 125.31 48.29 C 124.60 47.76 123.18 46.70 122.46 46.17 Z" />
</g>
<g id="#e58793ff">
<path fill="#e58793" opacity="1.00" d=" M 128.54 43.50 C 131.46 44.26 134.32 45.20 137.20 46.11 C 137.66 46.32 138.58 46.74 139.04 46.96 C 139.45 47.28 140.28 47.94 140.70 48.26 C 141.03 48.49 141.68 48.93 142.01 49.16 L 143.14 50.63 C 141.06 50.54 138.99 50.43 136.91 50.33 C 137.20 47.75 132.75 46.75 132.97 49.78 C 130.12 49.94 127.33 50.50 124.52 50.97 C 124.72 50.30 125.11 48.96 125.31 48.29 C 126.29 47.93 127.26 47.56 128.22 47.16 C 128.81 46.06 128.41 44.70 128.54 43.50 Z" />
</g>
<g id="#c9666fff">
<path fill="#c9666f" opacity="1.00" d=" M 92.40 44.71 C 94.63 44.55 96.87 44.40 99.10 44.14 C 99.64 44.56 100.71 45.39 101.24 45.81 L 100.28 47.30 C 99.02 47.38 97.62 46.93 96.46 47.55 C 95.37 48.52 94.97 50.00 94.25 51.24 L 93.88 50.72 C 93.22 48.76 92.67 46.76 92.40 44.71 Z" />
</g>
<g id="#563a37f5">
<path fill="#563a37" opacity="0.96" d=" M 102.84 45.29 C 104.17 44.65 105.75 46.34 105.78 47.65 C 104.49 49.81 102.84 46.66 102.84 45.29 Z" />
</g>
<g id="#d56874ff">
<path fill="#d56874" opacity="1.00" d=" M 116.26 46.46 C 118.33 46.40 120.40 46.32 122.46 46.17 C 123.18 46.70 124.60 47.76 125.31 48.29 C 125.11 48.96 124.72 50.30 124.52 50.97 C 121.94 52.05 121.19 49.01 119.83 47.49 C 119.63 47.56 119.23 47.70 119.02 47.77 L 117.44 48.35 C 117.14 47.88 116.55 46.93 116.26 46.46 Z" />
</g>
<g id="#40303aff">
<path fill="#40303a" opacity="1.00" d=" M 71.09 47.92 C 71.56 47.64 72.49 47.07 72.96 46.78 L 71.87 48.65 C 74.22 48.55 76.57 48.43 78.92 48.25 C 81.19 48.22 83.47 48.28 85.72 48.56 C 88.47 49.15 91.21 49.83 93.88 50.72 L 94.25 51.24 C 94.97 50.00 95.37 48.52 96.46 47.55 C 97.62 46.93 99.02 47.38 100.28 47.30 C 101.86 48.76 103.49 50.19 105.34 51.31 C 105.03 51.59 104.41 52.17 104.10 52.46 C 102.00 50.44 99.52 48.89 96.79 47.88 C 96.99 49.70 98.47 50.44 99.99 51.03 C 99.84 51.54 99.55 52.55 99.40 53.05 C 98.06 51.99 96.73 50.93 95.38 49.88 C 95.50 50.60 95.74 52.04 95.86 52.76 C 95.95 53.25 96.14 54.23 96.23 54.72 C 94.95 54.62 93.66 54.55 92.37 54.51 C 90.35 54.46 88.33 54.49 86.32 54.64 C 80.36 55.11 74.75 57.25 69.19 59.31 C 68.71 59.35 67.74 59.41 67.26 59.44 C 75.89 54.50 85.99 53.05 95.80 53.25 C 89.47 48.40 81.12 49.39 73.66 49.55 C 72.95 49.58 71.53 49.64 70.82 49.67 C 70.89 49.24 71.03 48.36 71.09 47.92 Z" />
<path fill="#40303a" opacity="1.00" d=" M 99.99 69.40 C 100.64 69.21 101.29 69.01 101.95 68.82 C 105.06 68.76 108.40 68.42 110.90 70.70 C 113.19 69.19 115.91 68.79 118.59 68.57 C 119.07 70.28 119.70 71.95 120.11 73.69 C 120.13 75.52 120.09 77.35 120.07 79.18 C 118.71 78.85 117.35 78.52 115.98 78.20 C 113.50 79.58 110.79 80.59 107.92 80.61 C 106.23 80.48 104.54 80.36 102.86 80.20 C 103.62 78.61 104.38 77.01 105.14 75.42 C 107.22 75.52 109.31 75.62 111.39 75.73 C 110.92 74.86 110.45 74.00 109.98 73.14 C 108.30 73.15 106.63 73.17 104.96 73.18 C 104.41 74.18 103.85 75.18 103.28 76.18 C 103.15 74.42 102.95 72.68 102.75 70.94 C 101.59 71.48 100.44 72.02 99.28 72.56 C 99.37 73.18 99.47 73.80 99.58 74.42 C 97.91 76.12 96.28 77.87 94.66 79.62 L 94.06 78.83 C 94.14 76.10 94.36 73.38 94.70 70.67 L 95.05 69.57 C 96.69 69.52 98.34 69.46 99.99 69.40 Z" />
</g>
<g id="#2e2433ff">
<path fill="#2e2433" opacity="1.00" d=" M 111.87 46.80 C 112.57 48.30 113.29 49.79 114.02 51.27 C 114.67 50.94 115.97 50.26 116.61 49.92 C 116.51 48.77 116.39 47.61 116.26 46.46 C 116.55 46.93 117.14 47.88 117.44 48.35 C 118.17 49.63 118.85 50.94 119.52 52.25 C 118.86 51.60 117.55 50.29 116.90 49.63 C 116.09 50.78 115.30 51.94 114.54 53.12 C 113.46 51.77 112.32 50.46 111.18 49.17 C 111.42 48.38 111.64 47.59 111.87 46.80 Z" />
<path fill="#2e2433" opacity="1.00" d=" M 119.02 47.77 C 119.23 47.70 119.63 47.56 119.83 47.49 C 121.19 49.01 121.94 52.05 124.52 50.97 C 127.33 50.50 130.12 49.94 132.97 49.78 C 134.26 50.11 135.58 50.29 136.91 50.33 C 138.99 50.43 141.06 50.54 143.14 50.63 L 142.01 49.16 C 145.63 52.19 150.58 52.13 154.81 53.84 L 154.68 54.26 C 152.56 53.71 150.43 53.23 148.31 52.71 C 144.05 51.43 139.59 51.13 135.19 50.82 C 133.39 50.72 131.60 50.69 129.81 50.75 C 126.24 50.94 122.80 52.05 119.98 54.29 C 128.45 55.21 137.13 55.60 145.02 59.15 C 148.45 60.96 151.73 63.03 155.03 65.05 C 155.32 65.22 155.88 65.56 156.16 65.73 C 157.39 66.53 158.62 67.32 159.84 68.13 C 159.36 68.23 158.38 68.44 157.90 68.54 C 157.55 68.27 156.86 67.74 156.51 67.47 C 152.15 63.94 147.35 60.93 142.12 58.88 C 136.96 56.88 131.45 56.06 125.95 55.78 C 123.15 55.49 120.31 55.65 117.60 56.46 C 114.51 57.22 111.75 58.83 109.13 60.59 C 112.47 61.61 116.06 62.57 118.51 65.24 C 118.51 66.35 118.54 67.46 118.59 68.57 C 115.91 68.79 113.19 69.19 110.90 70.70 C 108.40 68.42 105.06 68.76 101.95 68.82 C 101.29 69.01 100.64 69.21 99.99 69.40 C 98.34 69.46 96.69 69.52 95.05 69.57 C 95.25 68.97 95.66 67.75 95.86 67.15 L 93.85 67.84 C 95.51 66.41 97.23 65.04 99.00 63.74 C 101.46 62.32 104.20 61.48 106.92 60.71 C 103.93 57.82 100.28 55.74 96.23 54.72 C 96.14 54.23 95.95 53.25 95.86 52.76 C 98.82 55.08 102.56 56.14 105.40 58.64 C 106.19 59.37 106.97 60.11 107.75 60.86 C 111.47 56.65 117.81 56.68 121.33 52.34 C 120.55 50.82 119.79 49.29 119.02 47.77 Z" />
<path fill="#2e2433" opacity="1.00" d=" M 35.95 95.91 C 36.17 95.41 36.62 94.41 36.85 93.90 L 37.00 94.16 C 37.61 95.15 38.22 96.13 38.84 97.12 C 35.89 96.83 32.94 96.50 30.01 96.10 C 29.20 97.05 28.39 97.99 27.57 98.93 C 29.72 99.36 31.87 99.78 34.01 100.23 C 33.53 100.37 32.57 100.66 32.09 100.80 C 30.15 100.35 28.23 99.81 26.31 99.26 C 27.36 98.04 28.42 96.82 29.47 95.60 C 31.63 95.72 33.79 95.83 35.95 95.91 Z" />
<path fill="#2e2433" opacity="1.00" d=" M 146.24 101.72 C 147.86 103.88 149.36 106.14 150.74 108.46 C 152.97 108.72 155.20 108.96 157.44 109.20 C 156.55 107.42 155.67 105.63 154.85 103.82 C 158.02 106.10 160.22 110.04 164.44 110.49 C 164.01 108.95 163.57 107.42 163.13 105.88 C 164.76 107.48 166.37 109.09 167.98 110.71 C 169.13 110.40 170.28 110.07 171.43 109.74 C 171.73 109.88 172.32 110.17 172.61 110.31 C 171.81 110.72 170.20 111.54 169.40 111.95 C 168.22 111.69 167.03 111.50 165.84 111.33 C 163.54 111.01 161.27 110.59 159.02 110.07 C 155.38 110.21 150.93 111.07 148.67 107.42 C 146.46 107.56 144.25 107.73 142.04 107.93 C 143.42 111.58 146.03 114.49 148.27 117.62 C 149.49 119.48 150.77 121.35 151.47 123.48 C 150.96 126.22 149.56 128.72 148.12 131.08 C 146.30 134.11 142.58 134.88 139.77 136.68 C 136.02 138.64 134.48 142.82 131.63 145.71 C 128.79 148.83 125.08 151.05 122.41 154.32 C 121.29 157.12 120.90 160.25 121.64 163.20 L 121.66 163.27 C 121.27 163.42 120.50 163.71 120.12 163.85 C 120.49 160.67 120.93 157.50 121.50 154.36 C 117.01 154.89 112.50 154.44 108.00 154.40 C 103.25 154.35 98.41 155.29 93.73 154.12 C 102.67 153.68 111.68 154.41 120.59 153.71 C 127.78 149.50 133.29 143.02 137.57 135.97 C 143.17 135.08 148.03 131.14 149.96 125.80 C 151.84 122.16 147.81 119.27 146.24 116.35 C 144.66 114.07 142.93 111.91 141.02 109.90 C 141.39 108.63 141.75 107.36 142.16 106.11 C 143.70 106.40 145.23 106.68 146.77 106.97 C 146.59 105.22 146.41 103.47 146.24 101.72 Z" />
<path fill="#2e2433" opacity="1.00" d=" M 120.67 120.65 C 120.84 119.12 121.05 117.59 121.25 116.05 L 121.26 116.51 C 121.30 118.96 121.15 121.60 122.78 123.61 C 124.40 121.68 126.53 120.30 128.71 119.08 C 130.68 117.92 132.64 116.74 134.61 115.59 C 135.61 119.38 135.86 124.71 131.70 126.67 C 130.18 126.42 128.66 126.16 127.16 125.84 C 129.10 125.94 131.21 126.11 132.89 124.92 C 134.93 122.77 134.52 119.74 134.35 117.04 C 130.49 117.05 132.65 121.99 129.37 122.95 C 127.60 122.16 125.72 121.25 123.97 122.67 C 125.01 123.74 126.05 124.83 127.16 125.84 C 124.99 124.81 122.71 124.05 120.35 123.61 C 120.43 122.87 120.59 121.39 120.67 120.65 M 129.25 120.68 C 129.69 121.10 129.69 121.10 129.25 120.68 Z" />
<path fill="#2e2433" opacity="1.00" d=" M 79.16 118.93 C 79.64 119.04 80.60 119.26 81.08 119.37 C 81.59 119.49 82.61 119.74 83.12 119.86 L 81.84 121.13 C 79.71 122.11 82.55 124.01 82.68 121.68 L 83.35 120.10 C 84.93 121.19 86.48 122.34 87.98 123.54 L 87.36 124.04 C 86.86 123.77 85.87 123.23 85.37 122.96 C 84.01 123.27 82.66 123.64 81.27 123.82 C 80.10 122.42 79.78 120.59 79.16 118.93 Z" />
<path fill="#2e2433" opacity="1.00" d=" M 160.68 128.51 C 161.07 128.97 161.85 129.89 162.24 130.35 C 161.74 133.63 161.59 136.94 161.32 140.25 C 160.82 142.69 160.12 145.09 159.54 147.51 C 161.58 146.89 163.62 146.25 165.65 145.60 C 165.49 145.85 165.15 146.34 164.99 146.58 C 163.84 147.54 162.68 148.46 161.60 149.49 C 160.54 148.90 158.62 148.86 158.22 150.27 C 158.49 151.84 160.67 151.71 161.81 151.25 C 160.10 153.78 157.26 149.75 155.64 152.81 C 157.06 149.19 159.07 145.78 160.02 141.99 C 161.14 137.59 160.99 133.00 160.68 128.51 Z" />
<path fill="#2e2433" opacity="1.00" d=" M 80.88 132.89 C 82.28 133.07 83.68 133.27 85.06 133.54 C 84.32 135.22 82.76 137.00 83.65 138.95 C 84.47 140.83 85.80 142.41 87.01 144.05 C 87.55 144.13 88.64 144.28 89.18 144.36 L 90.03 145.32 C 93.61 147.50 97.69 148.81 101.92 148.58 C 107.45 148.33 113.51 149.70 118.56 146.81 C 119.75 146.41 120.95 146.04 122.16 145.70 C 120.62 148.68 125.56 147.52 122.94 145.48 C 122.53 145.01 121.71 144.05 121.30 143.58 C 122.05 143.82 123.55 144.29 124.30 144.53 C 124.91 144.72 126.15 145.09 126.77 145.27 C 124.07 147.65 121.66 150.73 118.11 151.84 C 113.79 152.46 109.41 151.60 105.07 151.89 C 100.34 151.87 95.11 152.74 90.92 150.00 C 87.55 147.82 84.36 145.36 81.39 142.67 C 79.63 141.19 79.64 138.70 79.07 136.64 L 79.96 135.33 C 80.38 138.15 81.19 140.96 83.20 143.09 C 82.58 140.05 82.31 136.94 82.83 133.86 C 82.18 134.12 80.89 134.65 80.25 134.91 C 80.41 134.41 80.72 133.40 80.88 132.89 M 88.40 146.39 C 88.68 146.66 88.68 146.66 88.40 146.39 M 91.13 147.52 C 90.46 149.18 90.94 149.73 92.58 149.16 C 93.24 147.48 92.76 146.94 91.13 147.52 M 119.08 147.59 C 118.36 148.85 118.70 149.57 120.08 149.74 C 120.80 148.50 120.47 147.78 119.08 147.59 M 93.24 149.11 C 93.80 150.34 94.74 151.00 96.05 151.11 C 101.34 152.09 106.68 150.32 111.99 151.20 C 114.19 151.11 117.64 152.37 118.65 149.57 C 110.18 149.56 101.64 150.43 93.24 149.11 Z" />
<path fill="#2e2433" opacity="1.00" d=" M 162.56 150.83 C 166.80 149.09 168.09 144.24 171.71 141.70 C 170.92 143.08 170.07 144.43 169.27 145.81 C 170.18 147.30 170.66 148.96 170.98 150.66 C 169.60 150.29 168.23 149.88 166.87 149.46 C 165.43 149.92 163.99 150.38 162.56 150.83 M 168.03 147.48 C 167.01 148.44 168.55 150.28 169.70 149.59 C 170.60 148.64 169.18 146.72 168.03 147.48 Z" />
<path fill="#2e2433" opacity="1.00" d=" M 130.71 164.68 C 133.94 163.20 133.59 168.24 134.62 170.16 C 136.61 170.06 138.67 169.80 140.34 168.61 C 140.28 169.12 140.17 170.14 140.11 170.65 C 137.28 170.76 134.13 170.16 131.72 172.02 C 131.24 172.89 130.58 173.62 129.79 174.22 C 128.95 171.81 127.38 169.82 125.01 168.77 L 125.61 168.82 C 126.14 168.85 127.22 168.93 127.76 168.96 C 128.48 170.24 129.21 171.52 129.92 172.81 C 131.12 171.83 132.31 170.84 133.50 169.85 C 132.75 168.04 132.26 165.99 130.71 164.68 Z" />
</g>
<g id="#3e1f21bf">
<path fill="#3e1f21" opacity="0.75" d=" M 139.04 46.96 L 139.90 46.68 L 140.76 47.35 L 140.70 48.26 C 140.28 47.94 139.45 47.28 139.04 46.96 Z" />
</g>
<g id="#472e2fb7">
<path fill="#472e2f" opacity="0.72" d=" M 53.83 55.08 C 58.50 50.54 65.48 50.60 71.09 47.92 C 71.03 48.36 70.89 49.24 70.82 49.67 C 67.72 50.07 64.65 50.74 61.69 51.75 C 59.02 52.72 56.43 53.93 53.83 55.08 Z" />
</g>
<g id="#e5c281ff">
<path fill="#e5c281" opacity="1.00" d=" M 96.79 47.88 C 99.52 48.89 102.00 50.44 104.10 52.46 C 104.41 52.17 105.03 51.59 105.34 51.31 C 105.68 51.33 106.36 51.36 106.70 51.38 C 107.33 51.54 108.57 51.86 109.20 52.01 C 110.11 51.25 110.77 50.30 111.18 49.17 C 112.32 50.46 113.46 51.77 114.54 53.12 L 114.27 53.77 C 113.21 53.25 112.15 52.72 111.09 52.20 C 109.18 54.35 107.29 56.50 105.40 58.64 C 102.56 56.14 98.82 55.08 95.86 52.76 C 95.74 52.04 95.50 50.60 95.38 49.88 C 96.73 50.93 98.06 51.99 99.40 53.05 C 99.55 52.55 99.84 51.54 99.99 51.03 C 98.47 50.44 96.99 49.70 96.79 47.88 Z" />
</g>
<g id="#b19769ff">
<path fill="#b19769" opacity="1.00" d=" M 117.44 48.35 L 119.02 47.77 C 119.79 49.29 120.55 50.82 121.33 52.34 C 117.81 56.68 111.47 56.65 107.75 60.86 C 106.97 60.11 106.19 59.37 105.40 58.64 C 107.29 56.50 109.18 54.35 111.09 52.20 C 112.15 52.72 113.21 53.25 114.27 53.77 L 114.54 53.12 C 115.30 51.94 116.09 50.78 116.90 49.63 C 117.55 50.29 118.86 51.60 119.52 52.25 C 118.85 50.94 118.17 49.63 117.44 48.35 Z" />
</g>
<g id="#e4b3b9ff">
<path fill="#e4b3b9" opacity="1.00" d=" M 132.97 49.78 C 132.75 46.75 137.20 47.75 136.91 50.33 C 135.58 50.29 134.26 50.11 132.97 49.78 Z" />
</g>
<g id="#675940ff">
<path fill="#675940" opacity="1.00" d=" M 106.08 48.92 C 107.60 49.31 108.75 50.52 109.20 52.01 C 108.57 51.86 107.33 51.54 106.70 51.38 C 106.55 50.77 106.23 49.53 106.08 48.92 Z" />
</g>
<g id="#e1838dff">
<path fill="#e1838d" opacity="1.00" d=" M 73.66 49.55 C 81.12 49.39 89.47 48.40 95.80 53.25 C 85.99 53.05 75.89 54.50 67.26 59.44 L 66.61 59.71 C 66.14 58.36 65.69 57.01 65.24 55.67 C 64.59 56.38 63.94 57.11 63.28 57.81 C 62.98 57.29 62.40 56.24 62.11 55.71 C 62.47 55.49 63.19 55.06 63.55 54.84 C 63.14 54.11 62.72 53.39 62.29 52.67 C 63.59 53.37 64.91 54.01 66.23 54.66 C 69.07 53.54 72.04 52.32 73.66 49.55 Z" />
</g>
<g id="#dd8389ff">
<path fill="#dd8389" opacity="1.00" d=" M 119.98 54.29 C 122.80 52.05 126.24 50.94 129.81 50.75 C 129.80 51.35 129.79 52.55 129.79 53.15 C 131.10 53.03 132.41 52.92 133.73 52.81 C 134.09 52.31 134.82 51.32 135.19 50.82 C 139.59 51.13 144.05 51.43 148.31 52.71 L 149.55 53.88 C 146.61 53.98 143.71 54.59 141.05 55.88 C 143.15 56.57 145.28 57.20 147.33 58.06 C 146.75 58.33 145.60 58.88 145.02 59.15 C 137.13 55.60 128.45 55.21 119.98 54.29 Z" />
</g>
<g id="#f2c8cbff">
<path fill="#f2c8cb" opacity="1.00" d=" M 129.81 50.75 C 131.60 50.69 133.39 50.72 135.19 50.82 C 134.82 51.32 134.09 52.31 133.73 52.81 C 132.41 52.92 131.10 53.03 129.79 53.15 C 129.79 52.55 129.80 51.35 129.81 50.75 Z" />
</g>
<g id="#d3666fff">
<path fill="#d3666f" opacity="1.00" d=" M 53.83 55.08 C 56.43 53.93 59.02 52.72 61.69 51.75 L 62.29 52.67 C 62.72 53.39 63.14 54.11 63.55 54.84 C 63.19 55.06 62.47 55.49 62.11 55.71 C 58.91 57.72 55.05 59.32 53.50 63.06 C 57.42 62.91 60.77 60.68 63.28 57.81 C 63.94 57.11 64.59 56.38 65.24 55.67 C 65.69 57.01 66.14 58.36 66.61 59.71 C 60.14 62.43 53.62 65.54 48.48 70.43 C 47.77 71.06 47.02 71.66 46.27 72.24 C 45.78 69.80 45.45 67.30 45.82 64.82 C 46.78 62.29 48.12 59.92 49.19 57.43 L 49.92 58.20 C 51.03 60.19 53.81 58.09 52.19 56.45 C 52.29 55.78 52.83 55.33 53.83 55.08 Z" />
</g>
<g id="#d6676fff">
<path fill="#d6676f" opacity="1.00" d=" M 148.31 52.71 C 150.43 53.23 152.56 53.71 154.68 54.26 C 160.07 55.52 164.57 59.25 167.01 64.20 C 166.93 65.54 166.94 66.91 167.25 68.23 C 166.14 68.86 165.15 69.97 165.27 71.35 C 163.47 70.25 161.64 69.22 159.84 68.13 C 158.62 67.32 157.39 66.53 156.16 65.73 C 157.17 65.50 159.19 65.03 160.20 64.80 C 158.59 63.25 156.36 62.90 155.03 65.05 C 151.73 63.03 148.45 60.96 145.02 59.15 C 145.60 58.88 146.75 58.33 147.33 58.06 C 148.28 58.47 149.22 58.92 150.15 59.39 C 151.69 58.90 153.22 58.39 154.75 57.88 C 153.00 56.57 151.23 55.28 149.55 53.88 L 148.31 52.71 Z" />
</g>
<g id="#ffffffff">
<path fill="#ffffff" opacity="1.00" d=" M 86.32 54.64 C 88.33 54.49 90.35 54.46 92.37 54.51 C 90.36 55.41 88.34 56.27 86.31 57.12 C 86.31 56.50 86.32 55.26 86.32 54.64 Z" />
<path fill="#ffffff" opacity="1.00" d=" M 129.37 122.95 C 132.65 121.99 130.49 117.05 134.35 117.04 C 134.52 119.74 134.93 122.77 132.89 124.92 C 131.21 126.11 129.10 125.94 127.16 125.84 C 126.05 124.83 125.01 123.74 123.97 122.67 C 125.72 121.25 127.60 122.16 129.37 122.95 Z" />
<path fill="#ffffff" opacity="1.00" d=" M 77.09 118.43 C 77.60 118.56 78.64 118.81 79.16 118.93 C 79.78 120.59 80.10 122.42 81.27 123.82 C 82.66 123.64 84.01 123.27 85.37 122.96 C 85.87 123.23 86.86 123.77 87.36 124.04 C 85.49 125.55 83.69 128.56 80.89 127.12 C 77.03 126.05 76.84 121.72 77.09 118.43 Z" />
<path fill="#ffffff" opacity="1.00" d=" M 131.35 132.27 C 131.70 131.10 133.90 130.70 134.28 132.06 C 133.97 132.62 133.36 133.73 133.05 134.29 C 131.80 134.29 131.23 133.61 131.35 132.27 Z" />
<path fill="#ffffff" opacity="1.00" d=" M 77.98 132.58 C 78.70 132.66 80.15 132.82 80.88 132.89 C 80.72 133.40 80.41 134.41 80.25 134.91 C 80.18 135.02 80.04 135.22 79.96 135.33 L 79.07 136.64 L 78.80 135.58 C 78.60 134.83 78.19 133.33 77.98 132.58 Z" />
<path fill="#ffffff" opacity="1.00" d=" M 88.40 146.39 C 88.68 146.66 88.68 146.66 88.40 146.39 Z" />
<path fill="#ffffff" opacity="1.00" d=" M 122.16 145.70 L 122.94 145.48 C 125.56 147.52 120.62 148.68 122.16 145.70 Z" />
<path fill="#ffffff" opacity="1.00" d=" M 91.13 147.52 C 92.76 146.94 93.24 147.48 92.58 149.16 C 90.94 149.73 90.46 149.18 91.13 147.52 Z" />
<path fill="#ffffff" opacity="1.00" d=" M 119.08 147.59 C 120.47 147.78 120.80 148.50 120.08 149.74 C 118.70 149.57 118.36 148.85 119.08 147.59 Z" />
<path fill="#ffffff" opacity="1.00" d=" M 158.22 150.27 C 158.62 148.86 160.54 148.90 161.60 149.49 C 161.65 149.93 161.76 150.81 161.81 151.25 C 160.67 151.71 158.49 151.84 158.22 150.27 Z" />
<path fill="#ffffff" opacity="1.00" d=" M 142.70 165.83 C 143.16 167.83 143.53 169.87 143.63 171.93 L 142.15 171.88 C 141.64 171.57 140.62 170.96 140.11 170.65 C 140.17 170.14 140.28 169.12 140.34 168.61 C 141.11 167.66 141.90 166.74 142.70 165.83 Z" />
</g>
<g id="#d5848aff">
<path fill="#d5848a" opacity="1.00" d=" M 69.19 59.31 C 74.75 57.25 80.36 55.11 86.32 54.64 C 86.32 55.26 86.31 56.50 86.31 57.12 C 88.34 56.27 90.36 55.41 92.37 54.51 C 93.66 54.55 94.95 54.62 96.23 54.72 C 100.28 55.74 103.93 57.82 106.92 60.71 C 104.20 61.48 101.46 62.32 99.00 63.74 C 97.66 62.56 96.12 61.16 94.19 61.43 C 92.06 61.44 91.06 63.53 89.81 64.89 C 90.07 65.47 90.60 66.63 90.86 67.22 C 89.64 67.86 88.42 68.50 87.20 69.15 C 86.74 68.62 85.81 67.56 85.34 67.03 C 83.96 67.39 82.57 67.74 81.20 68.15 C 82.77 65.29 84.28 62.41 85.74 59.50 C 81.43 56.27 74.72 59.16 74.06 64.51 C 71.64 64.04 69.28 64.87 67.00 65.60 C 67.49 64.53 67.98 63.47 68.47 62.40 C 68.06 61.99 67.23 61.17 66.82 60.77 C 67.41 60.40 68.60 59.68 69.19 59.31 Z" />
</g>
<g id="#ebc3c7ff">
<path fill="#ebc3c7" opacity="1.00" d=" M 53.50 63.06 C 55.05 59.32 58.91 57.72 62.11 55.71 C 62.40 56.24 62.98 57.29 63.28 57.81 C 60.77 60.68 57.42 62.91 53.50 63.06 Z" />
</g>
<g id="#edc7caff">
<path fill="#edc7ca" opacity="1.00" d=" M 117.60 56.46 C 120.31 55.65 123.15 55.49 125.95 55.78 C 124.97 58.82 121.39 58.84 118.77 58.58 C 118.48 58.05 117.89 56.99 117.60 56.46 Z" />
</g>
<g id="#dd848bff">
<path fill="#dd848b" opacity="1.00" d=" M 125.95 55.78 C 131.45 56.06 136.96 56.88 142.12 58.88 C 141.02 61.34 139.63 63.68 137.83 65.70 C 137.75 66.03 137.59 66.70 137.51 67.03 C 135.70 66.04 133.89 65.05 132.08 64.06 C 131.91 65.70 131.73 67.35 131.56 68.99 C 129.59 68.49 127.63 67.96 125.69 67.34 C 125.48 69.08 125.24 70.82 125.01 72.56 C 122.98 70.00 120.74 67.62 118.51 65.24 C 116.06 62.57 112.47 61.61 109.13 60.59 C 111.75 58.83 114.51 57.22 117.60 56.46 C 117.89 56.99 118.48 58.05 118.77 58.58 C 121.39 58.84 124.97 58.82 125.95 55.78 M 135.22 62.67 C 135.83 63.88 137.74 64.72 138.96 63.93 C 139.84 61.97 135.72 60.70 135.22 62.67 Z" />
</g>
<g id="#e9bec2ff">
<path fill="#e9bec2" opacity="1.00" d=" M 49.92 58.20 C 50.48 57.76 51.62 56.89 52.19 56.45 C 53.81 58.09 51.03 60.19 49.92 58.20 Z" />
<path fill="#e9bec2" opacity="1.00" d=" M 135.46 70.72 C 137.19 70.07 139.10 70.13 140.92 69.88 C 140.66 71.66 140.40 73.44 140.02 75.19 C 138.68 76.56 137.26 77.84 135.85 79.12 C 134.34 77.87 132.83 76.61 131.31 75.36 C 132.62 73.75 133.77 71.97 135.46 70.72 Z" />
</g>
<g id="#edcacdff">
<path fill="#edcacd" opacity="1.00" d=" M 74.06 64.51 C 74.72 59.16 81.43 56.27 85.74 59.50 C 84.28 62.41 82.77 65.29 81.20 68.15 C 79.64 68.63 78.11 69.19 76.57 69.74 C 75.05 68.37 73.87 66.68 74.06 64.51 Z" />
</g>
<g id="#351b1eb6">
<path fill="#351b1e" opacity="0.71" d=" M 66.61 59.71 L 67.26 59.44 C 67.74 59.41 68.71 59.35 69.19 59.31 C 68.60 59.68 67.41 60.40 66.82 60.77 C 65.15 61.85 63.59 63.11 62.15 64.48 C 61.16 64.72 60.15 64.64 59.28 64.09 C 55.48 65.86 52.26 68.62 48.48 70.43 C 53.62 65.54 60.14 62.43 66.61 59.71 Z" />
</g>
<g id="#d9676fff">
<path fill="#d9676f" opacity="1.00" d=" M 142.12 58.88 C 147.35 60.93 152.15 63.94 156.51 67.47 C 154.76 67.64 152.69 67.01 151.15 68.07 C 150.47 71.37 149.71 75.39 146.01 76.58 C 143.95 76.45 141.99 75.73 140.02 75.19 C 140.40 73.44 140.66 71.66 140.92 69.88 C 139.10 70.13 137.19 70.07 135.46 70.72 C 133.77 71.97 132.62 73.75 131.31 75.36 C 130.24 75.93 129.16 76.49 128.08 77.05 C 127.10 75.52 126.09 74.01 125.01 72.56 C 125.24 70.82 125.48 69.08 125.69 67.34 C 127.63 67.96 129.59 68.49 131.56 68.99 C 131.73 67.35 131.91 65.70 132.08 64.06 C 133.89 65.05 135.70 66.04 137.51 67.03 C 137.59 66.70 137.75 66.03 137.83 65.70 C 139.63 63.68 141.02 61.34 142.12 58.88 Z" />
<path fill="#d9676f" opacity="1.00" d=" M 129.25 120.68 C 129.69 121.10 129.69 121.10 129.25 120.68 Z" />
<path fill="#d9676f" opacity="1.00" d=" M 82.68 121.68 C 82.55 124.01 79.71 122.11 81.84 121.13 L 82.68 121.68 Z" />
</g>
<g id="#d3676eff">
<path fill="#d3676e" opacity="1.00" d=" M 62.15 64.48 C 63.59 63.11 65.15 61.85 66.82 60.77 C 67.23 61.17 68.06 61.99 68.47 62.40 C 67.98 63.47 67.49 64.53 67.00 65.60 C 69.28 64.87 71.64 64.04 74.06 64.51 C 73.87 66.68 75.05 68.37 76.57 69.74 C 78.11 69.19 79.64 68.63 81.20 68.15 C 82.57 67.74 83.96 67.39 85.34 67.03 C 85.81 67.56 86.74 68.62 87.20 69.15 C 88.42 68.50 89.64 67.86 90.86 67.22 C 91.47 67.49 92.69 68.02 93.30 68.29 C 92.18 69.27 91.09 70.29 90.01 71.31 C 84.89 71.60 79.80 70.81 74.70 70.49 C 74.32 72.30 73.95 74.10 73.58 75.91 C 71.45 74.57 69.45 72.87 66.99 72.19 C 63.99 72.59 61.10 73.98 58.02 73.44 C 58.52 72.23 59.02 71.01 59.53 69.80 C 58.90 69.11 58.27 68.43 57.64 67.74 C 58.09 67.35 58.99 66.56 59.44 66.17 C 60.46 65.81 61.57 65.49 62.15 64.48 Z" />
</g>
<g id="#efcbceff">
<path fill="#efcbce" opacity="1.00" d=" M 94.19 61.43 C 96.12 61.16 97.66 62.56 99.00 63.74 C 97.23 65.04 95.51 66.41 93.85 67.84 L 93.30 68.29 C 92.69 68.02 91.47 67.49 90.86 67.22 C 90.60 66.63 90.07 65.47 89.81 64.89 C 91.06 63.53 92.06 61.44 94.19 61.43 Z" />
</g>
<g id="#f1ced1ff">
<path fill="#f1ced1" opacity="1.00" d=" M 135.22 62.67 C 135.72 60.70 139.84 61.97 138.96 63.93 C 137.74 64.72 135.83 63.88 135.22 62.67 Z" />
</g>
<g id="#3821239f">
<path fill="#382123" opacity="0.62" d=" M 167.01 64.20 C 168.37 66.79 169.67 72.22 165.83 73.25 L 166.56 72.24 C 167.65 71.19 167.72 69.59 167.25 68.23 C 166.94 66.91 166.93 65.54 167.01 64.20 Z" />
</g>
<g id="#bb5e68ff">
<path fill="#bb5e68" opacity="1.00" d=" M 151.15 68.07 C 152.69 67.01 154.76 67.64 156.51 67.47 C 156.86 67.74 157.55 68.27 157.90 68.54 C 159.22 69.56 160.36 70.79 161.45 72.06 C 160.34 73.04 159.68 74.38 158.97 75.65 C 158.62 75.76 157.92 75.97 157.57 76.08 C 157.42 77.01 157.35 77.96 157.31 78.90 C 152.33 81.26 147.33 83.77 141.91 84.90 C 141.17 84.37 140.43 83.84 139.70 83.30 C 138.81 84.61 137.82 85.85 137.00 87.21 L 136.19 87.05 C 135.74 86.94 134.83 86.74 134.37 86.64 C 134.20 86.42 133.84 85.98 133.67 85.76 C 131.68 82.94 129.95 79.95 128.08 77.05 C 129.16 76.49 130.24 75.93 131.31 75.36 C 132.83 76.61 134.34 77.87 135.85 79.12 C 137.26 77.84 138.68 76.56 140.02 75.19 C 141.99 75.73 143.95 76.45 146.01 76.58 C 149.71 75.39 150.47 71.37 151.15 68.07 Z" />
</g>
<g id="#b75e68ff">
<path fill="#b75e68" opacity="1.00" d=" M 54.33 74.56 C 53.66 72.02 56.38 69.81 57.64 67.74 C 58.27 68.43 58.90 69.11 59.53 69.80 C 59.02 71.01 58.52 72.23 58.02 73.44 C 61.10 73.98 63.99 72.59 66.99 72.19 C 69.45 72.87 71.45 74.57 73.58 75.91 C 73.95 74.10 74.32 72.30 74.70 70.49 C 79.80 70.81 84.89 71.60 90.01 71.31 C 89.09 72.14 88.17 72.97 87.18 73.71 C 85.59 74.03 84.66 75.43 84.71 77.00 C 83.65 78.79 82.56 80.56 81.44 82.31 C 81.02 82.89 80.18 84.05 79.76 84.63 C 77.40 84.11 75.05 83.48 72.69 82.94 L 71.59 82.68 C 71.61 81.92 71.66 80.38 71.68 79.61 C 70.88 80.30 70.08 80.99 69.27 81.66 L 67.94 80.77 C 66.53 79.70 64.78 79.30 63.09 78.94 C 59.84 78.28 57.12 76.25 54.33 74.56 Z" />
</g>
<g id="#d8797ff6">
<path fill="#d8797f" opacity="0.96" d=" M 165.27 71.35 C 165.15 69.97 166.14 68.86 167.25 68.23 C 167.72 69.59 167.65 71.19 166.56 72.24 C 166.23 72.02 165.59 71.57 165.27 71.35 Z" />
</g>
<g id="#2c433cff">
<path fill="#2c433c" opacity="1.00" d=" M 92.90 79.49 C 93.50 76.55 93.65 73.51 94.70 70.67 C 94.36 73.38 94.14 76.10 94.06 78.83 C 94.04 81.68 93.64 85.00 95.78 87.27 C 97.11 86.16 98.35 84.95 99.59 83.74 C 100.22 84.95 100.86 86.15 101.50 87.35 C 102.46 86.33 103.42 85.30 104.38 84.27 C 105.51 84.94 106.64 85.60 107.78 86.27 C 107.60 86.75 107.24 87.70 107.05 88.18 C 106.17 87.38 105.28 86.59 104.39 85.79 C 103.47 86.97 102.55 88.14 101.63 89.32 C 100.84 88.10 100.06 86.88 99.29 85.66 C 98.46 86.93 97.64 88.21 96.82 89.50 C 99.58 90.17 102.34 90.84 105.16 91.24 C 109.64 91.64 114.06 90.59 118.43 89.74 C 117.36 88.72 116.29 87.71 115.22 86.70 C 114.10 87.47 112.99 88.26 111.82 88.93 C 110.27 88.52 109.89 86.73 109.01 85.63 C 109.82 85.99 111.45 86.73 112.26 87.09 C 113.33 86.15 114.39 85.20 115.45 84.27 C 116.46 85.69 117.48 87.11 118.52 88.52 C 120.02 85.63 120.17 82.37 120.07 79.18 C 120.09 77.35 120.13 75.52 120.11 73.69 C 120.61 76.03 120.69 78.43 121.00 80.79 L 121.99 81.57 C 119.44 82.17 121.85 84.49 123.25 82.85 C 124.50 82.36 125.77 81.90 127.05 81.51 C 127.26 81.61 127.66 81.82 127.86 81.92 C 126.71 82.52 125.55 83.12 124.41 83.74 C 121.96 84.72 120.24 86.68 119.48 89.20 C 124.28 88.42 129.21 87.85 133.67 85.76 C 133.84 85.98 134.20 86.42 134.37 86.64 C 134.83 86.74 135.74 86.94 136.19 87.05 L 136.95 87.29 C 136.96 87.49 136.97 87.88 136.97 88.07 C 132.09 88.81 126.41 88.25 122.45 91.75 C 129.51 90.63 136.66 90.05 143.79 90.88 C 152.88 93.20 162.11 94.97 171.11 97.57 C 166.05 97.98 161.41 95.60 156.55 94.67 C 157.36 96.09 158.17 97.51 158.99 98.92 C 156.24 96.65 153.56 94.08 149.99 93.17 C 151.87 95.64 153.96 97.93 155.96 100.29 C 152.93 98.30 150.62 95.36 147.49 93.54 C 145.06 92.93 142.52 93.24 140.04 93.26 C 134.86 93.60 129.49 93.00 124.55 94.91 C 131.25 96.32 138.03 92.49 144.73 94.28 C 148.69 96.34 144.84 100.82 143.27 103.26 C 144.05 100.85 144.74 98.41 145.46 95.97 L 144.40 95.75 C 144.20 96.33 143.79 97.49 143.59 98.07 C 138.85 98.74 135.51 102.49 132.44 105.82 C 133.36 106.08 135.21 106.61 136.14 106.88 C 137.08 107.24 138.04 107.38 139.04 107.30 C 139.37 106.69 140.02 105.46 140.35 104.84 L 141.22 104.95 C 140.73 106.29 140.23 107.63 139.73 108.97 C 136.77 107.81 133.72 106.93 130.62 106.29 C 131.22 105.55 131.82 104.82 132.44 104.10 C 135.70 100.83 139.50 98.19 143.29 95.60 C 137.91 95.93 132.48 96.30 127.25 97.71 C 127.24 97.95 127.22 98.42 127.21 98.66 C 127.20 99.49 127.16 101.15 127.15 101.99 C 126.65 102.01 125.66 102.06 125.17 102.08 C 125.46 102.57 126.05 103.56 126.34 104.05 C 124.28 106.75 122.91 110.29 119.61 111.74 C 116.11 114.98 112.15 117.66 108.75 121.00 C 108.01 119.93 107.27 118.86 106.54 117.80 C 105.99 118.98 105.43 120.16 104.85 121.33 C 104.37 121.32 103.40 121.29 102.91 121.27 C 100.61 119.49 98.34 117.66 96.07 115.84 C 97.58 114.53 99.07 113.20 100.58 111.89 L 101.45 112.50 C 100.70 114.27 99.98 116.05 99.26 117.84 C 100.86 118.58 102.45 119.34 104.04 120.09 C 104.76 117.90 105.45 115.69 106.25 113.53 C 107.01 115.42 107.76 117.33 108.49 119.23 C 110.11 118.05 111.72 116.86 113.33 115.67 C 112.18 114.02 111.04 112.36 109.84 110.75 C 110.17 110.92 110.83 111.27 111.16 111.44 C 112.74 112.33 114.26 113.33 115.78 114.33 C 116.34 113.76 117.45 112.63 118.00 112.06 C 116.35 109.54 114.62 107.08 112.97 104.56 C 115.74 105.97 117.81 108.57 120.70 109.71 C 120.59 108.36 119.84 107.18 119.34 105.96 C 120.56 106.44 121.79 106.91 123.02 107.39 C 123.71 106.24 124.40 105.09 125.10 103.94 C 122.64 102.10 120.21 100.21 117.82 98.27 C 120.66 99.28 123.55 100.12 126.49 100.76 C 125.78 99.09 125.16 97.35 124.18 95.81 C 121.80 94.53 118.99 94.33 116.37 93.86 C 118.44 93.46 120.47 92.92 122.51 92.36 C 119.62 90.36 116.19 91.90 113.10 92.45 C 110.64 93.06 108.10 92.81 105.62 92.55 C 105.45 94.74 105.27 97.03 106.39 99.01 C 106.61 101.21 106.34 103.43 105.39 105.43 C 104.64 101.28 104.35 97.06 104.07 92.86 C 100.11 91.52 95.98 90.77 91.83 90.37 C 91.57 90.97 91.05 92.16 90.79 92.76 C 92.38 93.11 93.97 93.47 95.57 93.78 C 92.47 94.10 89.41 94.65 86.36 95.27 C 86.19 96.53 86.02 97.79 85.85 99.05 C 88.97 98.06 92.09 97.05 95.23 96.16 C 92.08 98.25 88.67 99.91 85.22 101.44 C 85.21 100.74 85.21 99.33 85.21 98.63 C 79.45 97.56 73.41 96.05 67.56 97.06 C 67.13 97.23 66.28 97.57 65.85 97.73 C 66.39 96.76 66.93 95.78 67.46 94.79 C 70.62 94.74 73.77 94.39 76.93 94.43 C 80.77 94.41 84.82 95.14 88.40 93.31 C 84.85 93.01 81.26 93.12 77.75 92.40 C 81.78 90.68 86.12 90.28 90.45 90.17 C 85.12 87.66 79.09 87.56 73.36 86.62 C 70.89 86.31 68.40 86.08 65.91 85.86 C 66.36 87.09 66.81 88.33 67.27 89.56 C 64.49 87.65 61.32 86.54 57.92 86.78 C 59.25 88.46 60.56 90.14 61.82 91.87 C 60.18 91.13 57.94 90.93 57.09 89.10 C 57.09 88.41 57.07 87.03 57.07 86.34 C 59.47 86.10 61.93 85.77 64.28 86.54 C 66.22 85.08 68.72 85.16 71.01 84.75 C 71.54 85.10 72.59 85.80 73.11 86.15 C 74.76 86.09 76.41 86.02 78.06 85.93 C 76.92 84.04 74.53 83.81 72.69 82.94 C 75.05 83.48 77.40 84.11 79.76 84.63 C 80.18 84.05 81.02 82.89 81.44 82.31 L 81.93 82.90 C 82.32 83.20 83.11 83.79 83.50 84.09 C 87.02 86.19 90.59 88.35 94.66 89.22 C 93.93 87.34 93.17 85.47 92.41 83.60 C 90.46 83.15 88.51 82.70 86.57 82.24 C 85.90 82.12 84.58 81.86 83.92 81.73 C 84.21 81.61 84.81 81.38 85.10 81.26 C 86.59 81.29 88.07 81.38 89.56 81.42 C 90.56 82.91 92.77 81.97 92.52 80.24 L 92.90 79.49 Z" />
<path fill="#2c433c" opacity="1.00" d=" M 85.32 105.21 C 89.14 103.23 93.34 102.20 97.33 100.59 C 94.81 102.89 92.06 104.90 89.27 106.85 C 89.89 107.98 90.51 109.11 91.13 110.24 C 94.23 108.81 97.35 107.42 100.53 106.18 C 99.42 107.85 98.28 109.51 97.19 111.19 C 96.36 112.49 95.57 113.80 94.77 115.12 C 93.01 113.03 94.94 111.28 96.17 109.63 C 94.47 110.44 92.76 111.23 91.04 111.99 C 89.70 109.31 88.89 105.64 85.32 105.21 Z" />
<path fill="#2c433c" opacity="1.00" d=" M 142.75 165.78 C 143.89 165.56 145.05 165.41 146.21 165.25 C 144.29 167.89 143.83 171.14 143.28 174.27 C 142.79 173.52 142.41 172.73 142.15 171.88 L 143.63 171.93 C 143.53 169.87 143.16 167.83 142.70 165.83 L 142.75 165.78 Z" />
</g>
<g id="#554048ff">
<path fill="#554048" opacity="1.00" d=" M 99.28 72.56 C 100.44 72.02 101.59 71.48 102.75 70.94 C 102.95 72.68 103.15 74.42 103.28 76.18 C 102.94 76.75 102.26 77.90 101.92 78.47 C 100.87 77.31 100.19 75.85 99.58 74.42 C 99.47 73.80 99.37 73.18 99.28 72.56 Z" />
</g>
<g id="#c37681ff">
<path fill="#c37681" opacity="1.00" d=" M 158.97 75.65 C 159.68 74.38 160.34 73.04 161.45 72.06 C 161.63 72.31 161.98 72.81 162.15 73.07 C 162.11 73.48 162.02 74.32 161.98 74.74 C 161.61 75.04 160.89 75.66 160.52 75.97 C 160.13 75.89 159.36 75.73 158.97 75.65 Z" />
</g>
<g id="#291f27ff">
<path fill="#291f27" opacity="1.00" d=" M 104.96 73.18 C 106.63 73.17 108.30 73.15 109.98 73.14 C 110.45 74.00 110.92 74.86 111.39 75.73 C 109.31 75.62 107.22 75.52 105.14 75.42 C 104.38 77.01 103.62 78.61 102.86 80.20 C 102.43 80.15 101.58 80.03 101.15 79.97 C 100.44 79.11 99.75 78.24 99.07 77.36 C 97.98 78.58 96.87 79.79 95.77 81.00 C 95.50 80.65 94.94 79.96 94.66 79.62 C 96.28 77.87 97.91 76.12 99.58 74.42 C 100.19 75.85 100.87 77.31 101.92 78.47 C 102.26 77.90 102.94 76.75 103.28 76.18 C 103.85 75.18 104.41 74.18 104.96 73.18 Z" />
</g>
<g id="#180f1099">
<path fill="#180f10" opacity="0.60" d=" M 162.15 73.07 C 163.62 73.79 163.56 74.34 161.98 74.74 C 162.02 74.32 162.11 73.48 162.15 73.07 Z" />
</g>
<g id="#5e3138dd">
<path fill="#5e3138" opacity="0.87" d=" M 84.71 77.00 C 84.66 75.43 85.59 74.03 87.18 73.71 C 87.47 75.32 85.98 76.42 84.71 77.00 Z" />
</g>
<g id="#281719aa">
<path fill="#281719" opacity="0.67" d=" M 157.57 76.08 C 157.92 75.97 158.62 75.76 158.97 75.65 C 159.36 75.73 160.13 75.89 160.52 75.97 L 160.74 76.37 C 159.94 77.43 158.68 78.85 157.31 78.90 C 157.35 77.96 157.42 77.01 157.57 76.08 Z" />
</g>
<g id="#83705cff">
<path fill="#83705c" opacity="1.00" d=" M 95.77 81.00 C 96.87 79.79 97.98 78.58 99.07 77.36 C 99.75 78.24 100.44 79.11 101.15 79.97 C 101.58 80.03 102.43 80.15 102.86 80.20 C 104.54 80.36 106.23 80.48 107.92 80.61 C 108.91 81.23 109.90 81.87 110.88 82.51 C 110.28 83.01 109.06 84.02 108.45 84.53 C 108.28 84.96 107.95 85.83 107.78 86.27 C 106.64 85.60 105.51 84.94 104.38 84.27 C 103.42 85.30 102.46 86.33 101.50 87.35 C 100.86 86.15 100.22 84.95 99.59 83.74 C 98.35 84.95 97.11 86.16 95.78 87.27 C 93.64 85.00 94.04 81.68 94.06 78.83 L 94.66 79.62 C 94.94 79.96 95.50 80.65 95.77 81.00 Z" />
</g>
<g id="#62503fff">
<path fill="#62503f" opacity="1.00" d=" M 107.92 80.61 C 110.79 80.59 113.50 79.58 115.98 78.20 C 117.35 78.52 118.71 78.85 120.07 79.18 C 120.17 82.37 120.02 85.63 118.52 88.52 C 117.48 87.11 116.46 85.69 115.45 84.27 C 114.39 85.20 113.33 86.15 112.26 87.09 C 111.45 86.73 109.82 85.99 109.01 85.63 C 109.89 86.73 110.27 88.52 111.82 88.93 C 112.99 88.26 114.10 87.47 115.22 86.70 C 116.29 87.71 117.36 88.72 118.43 89.74 C 114.06 90.59 109.64 91.64 105.16 91.24 C 105.80 90.23 106.46 89.22 107.05 88.18 C 107.24 87.70 107.60 86.75 107.78 86.27 C 107.95 85.83 108.28 84.96 108.45 84.53 C 109.06 84.02 110.28 83.01 110.88 82.51 C 109.90 81.87 108.91 81.23 107.92 80.61 Z" />
</g>
<g id="#1f121586">
<path fill="#1f1215" opacity="0.53" d=" M 63.09 78.94 C 64.78 79.30 66.53 79.70 67.94 80.77 C 66.51 81.88 62.81 80.98 63.09 78.94 Z" />
</g>
<g id="#405d47ef">
<path fill="#405d47" opacity="0.94" d=" M 89.56 81.42 C 90.30 81.13 91.78 80.53 92.52 80.24 C 92.77 81.97 90.56 82.91 89.56 81.42 Z" />
</g>
<g id="#618c61ff">
<path fill="#618c61" opacity="1.00" d=" M 121.99 81.57 C 122.31 81.89 122.93 82.53 123.25 82.85 C 121.85 84.49 119.44 82.17 121.99 81.57 Z" />
<path fill="#618c61" opacity="1.00" d=" M 65.91 85.86 C 68.40 86.08 70.89 86.31 73.36 86.62 C 72.24 88.06 71.11 89.50 69.98 90.93 C 62.14 92.74 53.77 93.21 46.80 97.65 C 48.85 97.22 50.90 96.76 52.97 96.37 C 53.37 96.60 54.18 97.05 54.58 97.28 C 54.61 98.36 54.60 99.45 54.60 100.54 C 55.66 100.80 56.71 101.08 57.77 101.34 C 56.31 104.80 56.14 110.00 51.72 110.97 C 51.44 110.21 50.87 108.69 50.59 107.92 C 50.03 108.96 49.47 110.00 48.91 111.04 C 47.40 111.21 45.88 111.39 44.37 111.56 C 44.46 110.89 44.66 109.53 44.76 108.86 C 44.89 108.12 45.16 106.66 45.30 105.92 C 45.83 104.82 46.84 103.38 45.87 102.21 C 44.37 101.38 43.99 103.73 44.03 104.73 C 43.03 107.23 41.90 109.66 40.90 112.16 C 40.77 112.50 40.50 113.18 40.36 113.52 C 38.15 113.23 35.94 112.96 33.73 112.71 C 33.90 112.36 34.23 111.66 34.40 111.31 C 35.07 111.63 36.41 112.28 37.09 112.60 C 39.87 107.11 41.40 100.74 45.90 96.30 C 44.67 94.36 42.64 93.27 40.66 92.24 C 40.46 91.89 40.04 91.18 39.83 90.83 C 42.67 91.91 45.68 92.70 48.73 92.04 C 48.49 91.61 48.02 90.75 47.78 90.32 L 50.05 90.47 C 49.58 89.82 48.64 88.50 48.18 87.85 C 51.07 87.64 54.08 87.18 56.77 88.59 L 57.09 89.10 C 57.94 90.93 60.18 91.13 61.82 91.87 C 60.56 90.14 59.25 88.46 57.92 86.78 C 61.32 86.54 64.49 87.65 67.27 89.56 C 66.81 88.33 66.36 87.09 65.91 85.86 Z" />
</g>
<g id="#5b835fff">
<path fill="#5b835f" opacity="1.00" d=" M 81.93 82.90 C 82.43 82.61 83.42 82.02 83.92 81.73 C 84.58 81.86 85.90 82.12 86.57 82.24 C 85.61 82.96 84.63 83.67 83.50 84.09 C 83.11 83.79 82.32 83.20 81.93 82.90 Z" />
</g>
<g id="#38544dff">
<path fill="#38544d" opacity="1.00" d=" M 86.57 82.24 C 88.51 82.70 90.46 83.15 92.41 83.60 C 93.17 85.47 93.93 87.34 94.66 89.22 C 90.59 88.35 87.02 86.19 83.50 84.09 C 84.63 83.67 85.61 82.96 86.57 82.24 Z" />
</g>
<g id="#5f835cfd">
<path fill="#5f835c" opacity="1.00" d=" M 124.41 83.74 C 125.55 83.12 126.71 82.52 127.86 81.92 C 129.02 82.70 130.16 83.50 131.28 84.33 C 130.48 84.46 128.88 84.73 128.08 84.87 C 126.83 84.56 125.61 84.19 124.41 83.74 Z" />
</g>
<g id="#3a574cff">
<path fill="#3a574c" opacity="1.00" d=" M 119.48 89.20 C 120.24 86.68 121.96 84.72 124.41 83.74 C 125.61 84.19 126.83 84.56 128.08 84.87 C 129.94 85.20 131.81 85.40 133.67 85.76 C 129.21 87.85 124.28 88.42 119.48 89.20 Z" />
</g>
<g id="#866f5aff">
<path fill="#866f5a" opacity="1.00" d=" M 96.82 89.50 C 97.64 88.21 98.46 86.93 99.29 85.66 C 100.06 86.88 100.84 88.10 101.63 89.32 C 102.55 88.14 103.47 86.97 104.39 85.79 C 105.28 86.59 106.17 87.38 107.05 88.18 C 106.46 89.22 105.80 90.23 105.16 91.24 C 102.34 90.84 99.58 90.17 96.82 89.50 Z" />
</g>
<g id="#0305035c">
<path fill="#030503" opacity="0.36" d=" M 148.39 87.27 C 147.50 85.43 151.31 85.24 150.71 87.14 C 150.13 87.18 148.97 87.24 148.39 87.27 Z" />
</g>
<g id="#3c5b53ff">
<path fill="#3c5b53" opacity="1.00" d=" M 73.36 86.62 C 79.09 87.56 85.12 87.66 90.45 90.17 C 86.12 90.28 81.78 90.68 77.75 92.40 C 75.20 91.74 72.64 91.02 69.98 90.93 C 71.11 89.50 72.24 88.06 73.36 86.62 Z" />
</g>
<g id="#446958ff">
<path fill="#446958" opacity="1.00" d=" M 136.95 87.29 C 138.06 86.88 139.19 86.56 140.36 86.33 C 141.74 87.84 143.15 89.34 144.58 90.82 L 143.79 90.88 C 136.66 90.05 129.51 90.63 122.45 91.75 C 126.41 88.25 132.09 88.81 136.97 88.07 C 136.97 87.88 136.96 87.49 136.95 87.29 Z" />
</g>
<g id="#669060ff">
<path fill="#669060" opacity="1.00" d=" M 140.36 86.33 C 142.12 86.33 143.89 86.37 145.65 86.46 C 145.32 87.92 145.01 89.39 144.58 90.82 C 143.15 89.34 141.74 87.84 140.36 86.33 Z" />
</g>
<g id="#5f8960ff">
<path fill="#5f8960" opacity="1.00" d=" M 145.65 86.46 C 146.25 87.49 147.37 87.32 148.39 87.27 C 148.97 87.24 150.13 87.18 150.71 87.14 C 152.13 87.27 153.91 87.19 154.89 88.35 C 157.91 88.16 160.88 88.75 163.82 89.33 C 163.71 89.69 163.49 90.42 163.38 90.78 C 167.14 89.95 170.81 91.53 174.03 93.31 C 174.34 93.74 174.97 94.59 175.28 95.02 C 174.77 95.21 173.73 95.59 173.22 95.78 C 174.90 96.39 176.63 96.88 178.34 97.44 C 177.79 97.60 176.69 97.90 176.15 98.05 C 176.63 99.24 177.12 100.42 177.61 101.61 C 176.89 101.59 176.17 101.58 175.46 101.57 C 175.27 102.11 174.90 103.20 174.71 103.74 C 173.50 103.60 172.29 103.46 171.09 103.32 C 171.29 104.62 171.49 105.93 171.74 107.24 C 170.84 106.25 169.91 105.28 169.03 104.28 C 167.74 102.11 166.11 100.15 164.12 98.59 C 165.40 101.38 167.20 103.89 169.08 106.31 C 169.85 107.46 170.63 108.60 171.43 109.74 C 170.28 110.07 169.13 110.40 167.98 110.71 C 166.37 109.09 164.76 107.48 163.13 105.88 C 163.57 107.42 164.01 108.95 164.44 110.49 C 160.22 110.04 158.02 106.10 154.85 103.82 C 155.67 105.63 156.55 107.42 157.44 109.20 C 155.20 108.96 152.97 108.72 150.74 108.46 C 149.36 106.14 147.86 103.88 146.24 101.72 C 146.41 103.47 146.59 105.22 146.77 106.97 C 145.23 106.68 143.70 106.40 142.16 106.11 C 142.50 105.15 142.88 104.20 143.27 103.26 C 144.84 100.82 148.69 96.34 144.73 94.28 C 138.03 92.49 131.25 96.32 124.55 94.91 C 129.49 93.00 134.86 93.60 140.04 93.26 C 142.52 93.24 145.06 92.93 147.49 93.54 C 150.62 95.36 152.93 98.30 155.96 100.29 C 153.96 97.93 151.87 95.64 149.99 93.17 C 153.56 94.08 156.24 96.65 158.99 98.92 C 158.17 97.51 157.36 96.09 156.55 94.67 C 161.41 95.60 166.05 97.98 171.11 97.57 C 162.11 94.97 152.88 93.20 143.79 90.88 L 144.58 90.82 C 145.01 89.39 145.32 87.92 145.65 86.46 Z" />
</g>
<g id="#86a987ff">
<path fill="#86a987" opacity="1.00" d=" M 38.78 90.47 C 39.59 89.91 41.19 88.79 42.00 88.24 C 43.81 88.72 45.62 89.22 47.44 89.70 L 47.78 90.32 C 48.02 90.75 48.49 91.61 48.73 92.04 C 45.68 92.70 42.67 91.91 39.83 90.83 L 38.78 90.47 Z" />
</g>
<g id="#39584eff">
<path fill="#39584e" opacity="1.00" d=" M 91.83 90.37 C 95.98 90.77 100.11 91.52 104.07 92.86 C 101.25 93.27 98.42 93.61 95.57 93.78 C 93.97 93.47 92.38 93.11 90.79 92.76 C 91.05 92.16 91.57 90.97 91.83 90.37 Z" />
</g>
<g id="#314940ff">
<path fill="#314940" opacity="1.00" d=" M 46.80 97.65 C 53.77 93.21 62.14 92.74 69.98 90.93 C 72.64 91.02 75.20 91.74 77.75 92.40 C 81.26 93.12 84.85 93.01 88.40 93.31 C 84.82 95.14 80.77 94.41 76.93 94.43 C 73.77 94.39 70.62 94.74 67.46 94.79 C 62.56 94.49 57.72 95.26 52.97 96.37 C 50.90 96.76 48.85 97.22 46.80 97.65 Z" />
</g>
<g id="#4a6d55ff">
<path fill="#4a6d55" opacity="1.00" d=" M 113.10 92.45 C 116.19 91.90 119.62 90.36 122.51 92.36 C 120.47 92.92 118.44 93.46 116.37 93.86 C 113.93 93.89 111.49 93.87 109.05 93.85 C 109.58 94.92 110.11 96.00 110.65 97.08 C 109.22 97.71 107.80 98.36 106.39 99.01 C 105.27 97.03 105.45 94.74 105.62 92.55 C 108.10 92.81 110.64 93.06 113.10 92.45 Z" />
</g>
<g id="#7b9e7cff">
<path fill="#7b9e7c" opacity="1.00" d=" M 37.00 94.16 C 37.92 93.68 39.75 92.72 40.66 92.24 C 42.64 93.27 44.67 94.36 45.90 96.30 C 41.40 100.74 39.87 107.11 37.09 112.60 C 36.41 112.28 35.07 111.63 34.40 111.31 C 34.67 110.73 35.23 109.56 35.50 108.98 C 36.34 107.30 37.24 105.65 38.01 103.95 C 36.19 105.51 34.47 107.21 33.09 109.18 C 32.81 109.55 32.27 110.28 32.00 110.64 C 30.97 113.56 28.05 112.54 25.78 112.11 C 26.76 110.74 27.76 109.38 28.79 108.04 C 26.68 108.97 24.54 109.83 22.41 110.71 C 22.45 108.76 22.49 106.81 22.53 104.87 C 25.75 103.59 28.83 101.97 32.09 100.80 C 32.57 100.66 33.53 100.37 34.01 100.23 C 31.87 99.78 29.72 99.36 27.57 98.93 C 28.39 97.99 29.20 97.05 30.01 96.10 C 32.94 96.50 35.89 96.83 38.84 97.12 C 38.22 96.13 37.61 95.15 37.00 94.16 Z" />
</g>
<g id="#608b60ff">
<path fill="#608b60" opacity="1.00" d=" M 95.57 93.78 C 98.42 93.61 101.25 93.27 104.07 92.86 C 104.35 97.06 104.64 101.28 105.39 105.43 C 106.34 103.43 106.61 101.21 106.39 99.01 C 107.80 98.36 109.22 97.71 110.65 97.08 C 110.11 96.00 109.58 94.92 109.05 93.85 C 111.49 93.87 113.93 93.89 116.37 93.86 C 118.99 94.33 121.80 94.53 124.18 95.81 C 125.16 97.35 125.78 99.09 126.49 100.76 C 123.55 100.12 120.66 99.28 117.82 98.27 C 120.21 100.21 122.64 102.10 125.10 103.94 C 124.40 105.09 123.71 106.24 123.02 107.39 C 121.79 106.91 120.56 106.44 119.34 105.96 C 119.84 107.18 120.59 108.36 120.70 109.71 C 117.81 108.57 115.74 105.97 112.97 104.56 C 114.62 107.08 116.35 109.54 118.00 112.06 C 115.72 111.86 113.44 111.68 111.16 111.44 C 110.83 111.27 110.17 110.92 109.84 110.75 C 108.50 109.92 107.16 109.07 105.83 108.22 C 104.34 109.62 102.83 111.00 101.45 112.50 L 100.58 111.89 C 99.46 111.60 98.32 111.41 97.19 111.19 C 98.28 109.51 99.42 107.85 100.53 106.18 C 97.35 107.42 94.23 108.81 91.13 110.24 C 90.51 109.11 89.89 107.98 89.27 106.85 C 92.06 104.90 94.81 102.89 97.33 100.59 C 93.34 102.20 89.14 103.23 85.32 105.21 C 85.23 103.95 85.16 102.69 85.22 101.44 C 88.67 99.91 92.08 98.25 95.23 96.16 C 92.09 97.05 88.97 98.06 85.85 99.05 C 86.02 97.79 86.19 96.53 86.36 95.27 C 89.41 94.65 92.47 94.10 95.57 93.78 Z" />
</g>
<g id="#141c1399">
<path fill="#141c13" opacity="0.60" d=" M 174.03 93.31 C 175.79 91.25 178.22 96.22 175.28 95.02 C 174.97 94.59 174.34 93.74 174.03 93.31 Z" />
</g>
<g id="#587958ff">
<path fill="#587958" opacity="1.00" d=" M 52.97 96.37 C 57.72 95.26 62.56 94.49 67.46 94.79 C 66.93 95.78 66.39 96.76 65.85 97.73 C 66.28 97.57 67.13 97.23 67.56 97.06 C 67.95 97.28 68.72 97.72 69.11 97.94 C 70.07 100.73 70.93 103.56 71.79 106.39 L 72.08 107.52 C 72.01 107.53 71.89 107.55 71.82 107.56 C 70.30 107.72 68.77 107.88 67.25 108.03 C 67.04 106.16 66.81 104.30 66.55 102.44 C 65.68 104.28 64.94 106.18 64.19 108.07 C 63.15 107.59 62.11 107.13 61.07 106.66 C 60.38 105.13 59.67 103.60 58.94 102.09 C 58.89 101.96 58.79 101.70 58.74 101.57 C 58.50 101.51 58.02 101.40 57.77 101.34 C 56.71 101.08 55.66 100.80 54.60 100.54 C 54.60 99.45 54.61 98.36 54.58 97.28 C 54.18 97.05 53.37 96.60 52.97 96.37 Z" />
</g>
<g id="#84b7b3ff">
<path fill="#84b7b3" opacity="1.00" d=" M 67.56 97.06 C 73.41 96.05 79.45 97.56 85.21 98.63 C 85.21 99.33 85.21 100.74 85.22 101.44 C 85.16 102.69 85.23 103.95 85.32 105.21 C 88.89 105.64 89.70 109.31 91.04 111.99 C 92.76 111.23 94.47 110.44 96.17 109.63 C 94.94 111.28 93.01 113.03 94.77 115.12 C 95.57 113.80 96.36 112.49 97.19 111.19 C 98.32 111.41 99.46 111.60 100.58 111.89 C 99.07 113.20 97.58 114.53 96.07 115.84 C 98.34 117.66 100.61 119.49 102.91 121.27 C 103.92 122.20 104.88 123.17 105.85 124.14 C 105.78 127.65 105.72 131.16 105.63 134.67 C 104.30 134.91 102.98 135.15 101.66 135.41 C 100.75 134.05 99.64 133.87 98.34 134.84 C 97.66 134.98 96.29 135.27 95.61 135.41 C 87.30 131.34 76.77 133.40 69.33 127.41 C 68.18 126.56 67.26 125.20 65.77 124.98 C 64.18 124.66 62.34 124.82 61.31 123.30 C 61.90 121.91 62.57 120.55 63.25 119.20 C 64.28 118.00 65.43 116.91 66.40 115.66 C 68.51 113.18 71.16 110.92 71.82 107.56 C 71.89 107.55 72.01 107.53 72.08 107.52 C 72.20 107.97 72.45 108.87 72.58 109.32 C 73.85 108.97 75.12 108.63 76.39 108.27 C 77.88 107.90 79.37 107.54 80.88 107.20 C 77.19 103.84 73.49 100.40 69.11 97.94 C 68.72 97.72 67.95 97.28 67.56 97.06 M 75.50 116.17 C 78.06 115.11 80.67 114.16 83.29 113.27 C 80.24 112.52 76.89 112.99 75.50 116.17 M 79.45 127.56 C 84.00 130.10 87.94 125.30 90.67 122.27 C 89.96 120.45 89.23 118.63 88.42 116.85 C 88.44 118.89 88.63 120.93 88.89 122.95 C 88.66 123.10 88.20 123.40 87.98 123.54 C 86.48 122.34 84.93 121.19 83.35 120.10 L 82.68 121.68 L 81.84 121.13 L 83.12 119.86 C 82.61 119.74 81.59 119.49 81.08 119.37 C 79.67 118.41 78.23 117.49 76.77 116.61 C 76.32 120.29 75.25 125.63 79.45 127.56 Z" />
</g>
<g id="#85b8b4ff">
<path fill="#85b8b4" opacity="1.00" d=" M 127.25 97.71 C 132.48 96.30 137.91 95.93 143.29 95.60 C 139.50 98.19 135.70 100.83 132.44 104.10 C 130.95 104.63 129.46 105.11 127.96 105.58 C 127.63 103.29 127.31 100.98 127.21 98.66 C 127.22 98.42 127.24 97.95 127.25 97.71 Z" />
</g>
<g id="#69aaa7ff">
<path fill="#69aaa7" opacity="1.00" d=" M 144.40 95.75 L 145.46 95.97 C 144.74 98.41 144.05 100.85 143.27 103.26 C 142.88 104.20 142.50 105.15 142.16 106.11 C 141.75 107.36 141.39 108.63 141.02 109.90 C 142.93 111.91 144.66 114.07 146.24 116.35 C 143.78 123.13 137.22 127.04 130.60 128.90 C 130.87 128.34 131.43 127.23 131.70 126.67 C 135.86 124.71 135.61 119.38 134.61 115.59 C 132.64 116.74 130.68 117.92 128.71 119.08 C 127.16 116.19 124.16 115.89 121.26 116.51 L 121.25 116.05 C 121.05 117.59 120.84 119.12 120.67 120.65 C 118.93 119.96 117.14 119.41 115.31 119.00 C 112.58 122.23 111.06 126.20 110.84 130.42 C 117.33 131.71 123.77 130.44 130.13 129.07 C 129.02 129.94 127.96 130.86 126.90 131.77 C 122.13 132.43 117.53 133.95 113.30 136.26 C 109.78 138.24 105.66 137.72 101.79 137.82 C 99.69 137.10 97.64 136.29 95.61 135.41 C 96.29 135.27 97.66 134.98 98.34 134.84 C 99.25 136.18 100.36 136.37 101.66 135.41 C 102.98 135.15 104.30 134.91 105.63 134.67 C 105.72 131.16 105.78 127.65 105.85 124.14 C 104.88 123.17 103.92 122.20 102.91 121.27 C 103.40 121.29 104.37 121.32 104.85 121.33 C 105.43 120.16 105.99 118.98 106.54 117.80 C 107.27 118.86 108.01 119.93 108.75 121.00 C 112.15 117.66 116.11 114.98 119.61 111.74 C 122.91 110.29 124.28 106.75 126.34 104.05 C 126.05 103.56 125.46 102.57 125.17 102.08 C 125.66 102.06 126.65 102.01 127.15 101.99 C 127.16 101.15 127.20 99.49 127.21 98.66 C 127.31 100.98 127.63 103.29 127.96 105.58 C 129.46 105.11 130.95 104.63 132.44 104.10 C 131.82 104.82 131.22 105.55 130.62 106.29 C 133.72 106.93 136.77 107.81 139.73 108.97 C 140.23 107.63 140.73 106.29 141.22 104.95 C 142.05 102.67 142.81 100.37 143.59 98.07 C 143.79 97.49 144.20 96.33 144.40 95.75 M 126.52 112.54 C 129.19 113.18 131.89 113.70 134.62 114.02 C 132.62 111.81 129.14 110.79 126.52 112.54 M 110.25 134.32 C 110.79 134.81 110.79 134.81 110.25 134.32 Z" />
</g>
<g id="#974d4bff">
<path fill="#974d4b" opacity="1.00" d=" M 69.11 97.94 C 73.49 100.40 77.19 103.84 80.88 107.20 C 79.37 107.54 77.88 107.90 76.39 108.27 C 74.99 106.82 73.60 105.37 72.17 103.94 C 72.08 104.55 71.88 105.78 71.79 106.39 C 70.93 103.56 70.07 100.73 69.11 97.94 Z" />
<path fill="#974d4b" opacity="1.00" d=" M 93.24 149.11 C 101.64 150.43 110.18 149.56 118.65 149.57 C 117.64 152.37 114.19 151.11 111.99 151.20 C 106.68 150.32 101.34 152.09 96.05 151.11 C 94.74 151.00 93.80 150.34 93.24 149.11 Z" />
</g>
<g id="#874645ff">
<path fill="#874645" opacity="1.00" d=" M 132.44 105.82 C 135.51 102.49 138.85 98.74 143.59 98.07 C 142.81 100.37 142.05 102.67 141.22 104.95 L 140.35 104.84 C 140.08 104.73 139.53 104.50 139.26 104.39 C 138.01 104.92 137.00 105.85 136.14 106.88 C 135.21 106.61 133.36 106.08 132.44 105.82 Z" />
<path fill="#874645" opacity="1.00" d=" M 80.25 134.91 C 80.89 134.65 82.18 134.12 82.83 133.86 C 82.31 136.94 82.58 140.05 83.20 143.09 C 81.19 140.96 80.38 138.15 79.96 135.33 C 80.04 135.22 80.18 135.02 80.25 134.91 Z" />
</g>
<g id="#7c9f7cff">
<path fill="#7c9f7c" opacity="1.00" d=" M 176.15 98.05 C 176.69 97.90 177.79 97.60 178.34 97.44 C 180.62 98.12 182.94 98.85 184.98 100.11 C 185.70 100.85 186.58 101.22 187.62 101.22 C 188.16 101.38 189.23 101.69 189.76 101.85 C 190.25 102.17 191.21 102.81 191.69 103.12 C 190.55 104.29 189.41 105.45 188.29 106.64 L 188.24 106.70 L 187.22 106.09 C 184.77 104.55 182.10 103.43 179.32 102.66 C 180.80 104.11 182.38 105.48 184.13 106.61 C 184.58 106.90 185.46 107.48 185.90 107.77 C 186.93 108.70 187.90 109.69 188.89 110.68 C 187.28 111.06 185.68 111.45 184.07 111.84 C 181.46 109.63 178.75 107.52 175.75 105.86 C 177.27 107.99 178.96 109.98 180.65 111.97 C 179.43 111.89 176.97 111.75 175.75 111.67 C 174.40 110.20 173.06 108.73 171.74 107.24 C 171.49 105.93 171.29 104.62 171.09 103.32 C 172.29 103.46 173.50 103.60 174.71 103.74 C 174.90 103.20 175.27 102.11 175.46 101.57 C 176.17 101.58 176.89 101.59 177.61 101.61 C 177.12 100.42 176.63 99.24 176.15 98.05 Z" />
</g>
<g id="#3c573cff">
<path fill="#3c573c" opacity="1.00" d=" M 164.12 98.59 C 166.11 100.15 167.74 102.11 169.03 104.28 L 169.08 106.31 C 167.20 103.89 165.40 101.38 164.12 98.59 Z" />
</g>
<g id="#202a1fab">
<path fill="#202a1f" opacity="0.67" d=" M 184.98 100.11 C 186.51 99.11 187.39 99.48 187.62 101.22 C 186.58 101.22 185.70 100.85 184.98 100.11 Z" />
</g>
<g id="#254047ff">
<path fill="#254047" opacity="1.00" d=" M 57.77 101.34 C 58.02 101.40 58.50 101.51 58.74 101.57 C 58.79 101.70 58.89 101.96 58.94 102.09 C 58.62 104.66 58.48 107.26 58.71 109.85 C 60.56 109.34 62.41 108.80 64.19 108.07 C 64.94 106.18 65.68 104.28 66.55 102.44 C 66.81 104.30 67.04 106.16 67.25 108.03 C 68.77 107.88 70.30 107.72 71.82 107.56 C 71.16 110.92 68.51 113.18 66.40 115.66 C 65.42 112.83 68.80 111.05 70.10 108.94 C 65.76 109.43 60.61 109.91 58.15 114.10 C 56.38 116.77 54.99 119.69 54.09 122.76 C 53.26 125.97 52.87 129.29 53.01 132.60 C 53.17 135.13 53.40 137.65 53.55 140.18 C 56.17 143.58 58.20 147.38 60.12 151.21 L 59.83 151.55 L 59.74 151.66 C 59.37 151.23 58.62 150.38 58.24 149.96 C 57.34 150.08 55.54 150.32 54.64 150.44 C 54.53 149.77 54.30 148.41 54.19 147.73 C 53.71 147.86 52.74 148.12 52.25 148.25 C 52.39 147.30 52.53 146.35 52.67 145.41 C 53.24 145.17 54.38 144.70 54.96 144.47 C 53.83 143.12 52.70 141.79 51.57 140.44 C 51.71 139.46 51.84 138.48 51.96 137.51 C 52.84 130.53 51.44 123.46 52.79 116.52 C 53.36 116.99 53.93 117.47 54.50 117.95 C 55.86 115.75 57.32 113.61 58.86 111.53 C 58.18 110.86 57.49 110.20 56.80 109.53 C 54.25 112.01 50.62 112.27 47.28 112.73 C 46.12 112.87 44.96 113.01 43.80 113.14 C 44.16 111.72 44.47 110.29 44.76 108.86 C 44.66 109.53 44.46 110.89 44.37 111.56 C 45.88 111.39 47.40 111.21 48.91 111.04 C 49.47 110.00 50.03 108.96 50.59 107.92 C 50.87 108.69 51.44 110.21 51.72 110.97 C 56.14 110.00 56.31 104.80 57.77 101.34 M 54.47 146.16 C 53.90 147.38 55.61 149.19 56.86 148.65 C 57.56 147.40 55.75 145.45 54.47 146.16 Z" />
<path fill="#254047" opacity="1.00" d=" M 60.35 123.21 C 60.54 121.44 62.11 120.38 63.25 119.20 C 62.57 120.55 61.90 121.91 61.31 123.30 C 60.72 125.64 62.23 127.73 63.31 129.67 C 65.03 133.08 68.89 134.23 72.00 135.98 C 72.14 135.40 72.42 134.26 72.56 133.69 C 74.18 136.32 75.63 139.05 77.26 141.68 C 79.89 146.04 84.77 148.12 88.61 151.21 C 87.99 152.77 87.42 154.34 86.85 155.91 L 86.85 155.18 C 87.68 149.31 80.61 147.91 77.69 144.09 C 75.84 141.41 74.48 138.00 71.28 136.67 C 68.75 135.30 65.69 134.58 63.86 132.20 C 61.91 129.65 59.76 126.60 60.35 123.21 Z" />
</g>
<g id="#2b402bee">
<path fill="#2b402b" opacity="0.93" d=" M 44.03 104.73 C 43.99 103.73 44.37 101.38 45.87 102.21 C 46.84 103.38 45.83 104.82 45.30 105.92 C 44.98 105.62 44.34 105.03 44.03 104.73 Z" />
</g>
<g id="#1a241ab6">
<path fill="#1a241a" opacity="0.71" d=" M 189.76 101.85 C 190.63 101.96 192.35 102.18 193.21 102.29 C 192.13 104.30 190.42 105.80 188.29 106.64 C 189.41 105.45 190.55 104.29 191.69 103.12 C 191.21 102.81 190.25 102.17 189.76 101.85 Z" />
</g>
<g id="#659163ff">
<path fill="#659163" opacity="1.00" d=" M 58.94 102.09 C 59.67 103.60 60.38 105.13 61.07 106.66 C 62.11 107.13 63.15 107.59 64.19 108.07 C 62.41 108.80 60.56 109.34 58.71 109.85 C 58.48 107.26 58.62 104.66 58.94 102.09 Z" />
</g>
<g id="#1f291fcb">
<path fill="#1f291f" opacity="0.80" d=" M 179.32 102.66 C 182.10 103.43 184.77 104.55 187.22 106.09 C 186.45 106.22 184.91 106.48 184.13 106.61 C 182.38 105.48 180.80 104.11 179.32 102.66 Z" />
</g>
<g id="#465b44f1">
<path fill="#465b44" opacity="0.95" d=" M 38.01 103.95 C 37.24 105.65 36.34 107.30 35.50 108.98 L 35.96 106.91 C 35.24 107.48 33.80 108.61 33.09 109.18 C 34.47 107.21 36.19 105.51 38.01 103.95 Z" />
</g>
<g id="#bc6666ff">
<path fill="#bc6666" opacity="1.00" d=" M 72.17 103.94 C 73.60 105.37 74.99 106.82 76.39 108.27 C 75.12 108.63 73.85 108.97 72.58 109.32 C 72.45 108.87 72.20 107.97 72.08 107.52 L 71.79 106.39 C 71.88 105.78 72.08 104.55 72.17 103.94 Z" />
</g>
<g id="#cc7272ff">
<path fill="#cc7272" opacity="1.00" d=" M 139.26 104.39 C 139.53 104.50 140.08 104.73 140.35 104.84 C 140.02 105.46 139.37 106.69 139.04 107.30 C 138.04 107.38 137.08 107.24 136.14 106.88 C 137.00 105.85 138.01 104.92 139.26 104.39 Z" />
</g>
<g id="#0c120c73">
<path fill="#0c120c" opacity="0.45" d=" M 44.03 104.73 C 44.34 105.03 44.98 105.62 45.30 105.92 C 45.16 106.66 44.89 108.12 44.76 108.86 C 44.47 110.29 44.16 111.72 43.80 113.14 C 43.64 113.45 43.32 114.08 43.16 114.39 C 43.33 112.58 43.49 110.77 43.64 108.97 C 42.73 110.03 41.82 111.10 40.90 112.16 C 41.90 109.66 43.03 107.23 44.03 104.73 Z" />
</g>
<g id="#202b20b1">
<path fill="#202b20" opacity="0.69" d=" M 169.03 104.28 C 169.91 105.28 170.84 106.25 171.74 107.24 C 173.06 108.73 174.40 110.20 175.75 111.67 C 176.97 111.75 179.43 111.89 180.65 111.97 C 178.96 109.98 177.27 107.99 175.75 105.86 C 178.75 107.52 181.46 109.63 184.07 111.84 C 185.68 111.45 187.28 111.06 188.89 110.68 C 187.90 109.69 186.93 108.70 185.90 107.77 C 187.54 108.47 188.99 109.50 190.31 110.69 C 188.26 111.42 186.19 112.12 184.12 112.82 C 183.52 112.28 182.31 111.19 181.70 110.65 C 181.57 111.23 181.30 112.37 181.17 112.94 C 178.01 113.21 175.14 112.10 172.61 110.31 C 172.32 110.17 171.73 109.88 171.43 109.74 C 170.63 108.60 169.85 107.46 169.08 106.31 L 169.03 104.28 Z" />
</g>
<g id="#3b656cff">
<path fill="#3b656c" opacity="1.00" d=" M 142.04 107.93 C 144.25 107.73 146.46 107.56 148.67 107.42 C 150.93 111.07 155.38 110.21 159.02 110.07 C 161.27 110.59 163.54 111.01 165.84 111.33 C 163.64 113.01 161.90 115.17 160.61 117.61 C 161.27 117.52 162.59 117.34 163.25 117.25 C 162.83 119.68 162.53 122.14 162.20 124.60 C 161.57 123.01 160.94 121.42 160.30 119.84 C 160.16 120.40 159.89 121.53 159.76 122.09 C 159.23 119.63 158.12 117.36 156.80 115.23 C 154.45 117.43 151.41 118.13 148.27 117.62 C 146.03 114.49 143.42 111.58 142.04 107.93 Z" />
</g>
<g id="#070a065b">
<path fill="#070a06" opacity="0.36" d=" M 33.09 109.18 C 33.80 108.61 35.24 107.48 35.96 106.91 L 35.50 108.98 C 35.23 109.56 34.67 110.73 34.40 111.31 C 34.23 111.66 33.90 112.36 33.73 112.71 C 35.94 112.96 38.15 113.23 40.36 113.52 C 37.26 114.34 33.01 114.43 32.00 110.64 C 32.27 110.28 32.81 109.55 33.09 109.18 Z" />
</g>
<g id="#7ea17dff">
<path fill="#7ea17d" opacity="1.00" d=" M 101.45 112.50 C 102.83 111.00 104.34 109.62 105.83 108.22 C 107.16 109.07 108.50 109.92 109.84 110.75 C 111.04 112.36 112.18 114.02 113.33 115.67 C 111.72 116.86 110.11 118.05 108.49 119.23 C 107.76 117.33 107.01 115.42 106.25 113.53 C 105.45 115.69 104.76 117.90 104.04 120.09 C 102.45 119.34 100.86 118.58 99.26 117.84 C 99.98 116.05 100.70 114.27 101.45 112.50 Z" />
</g>
<g id="#3d696fff">
<path fill="#3d696f" opacity="1.00" d=" M 56.80 109.53 C 57.49 110.20 58.18 110.86 58.86 111.53 C 57.32 113.61 55.86 115.75 54.50 117.95 C 53.93 117.47 53.36 116.99 52.79 116.52 C 50.16 116.68 48.57 114.74 47.28 112.73 C 50.62 112.27 54.25 112.01 56.80 109.53 Z" />
</g>
<g id="#3c666cff">
<path fill="#3c666c" opacity="1.00" d=" M 58.15 114.10 C 60.61 109.91 65.76 109.43 70.10 108.94 C 68.80 111.05 65.42 112.83 66.40 115.66 C 65.43 116.91 64.28 118.00 63.25 119.20 C 63.80 117.69 64.26 116.15 64.75 114.61 C 62.55 114.46 60.35 114.30 58.15 114.10 Z" />
</g>
<g id="#7aa474ff">
<path fill="#7aa474" opacity="1.00" d=" M 111.16 111.44 C 113.44 111.68 115.72 111.86 118.00 112.06 C 117.45 112.63 116.34 113.76 115.78 114.33 C 114.26 113.33 112.74 112.33 111.16 111.44 Z" />
</g>
<g id="#418084ff">
<path fill="#418084" opacity="1.00" d=" M 165.84 111.33 C 167.03 111.50 168.22 111.69 169.40 111.95 C 172.04 113.58 173.07 116.84 174.64 119.40 C 177.02 123.50 177.12 128.35 176.60 132.93 L 175.33 132.48 C 173.80 131.38 172.12 132.59 171.62 134.16 C 170.98 135.31 170.32 136.44 169.66 137.57 C 168.75 137.41 167.84 137.25 166.94 137.10 C 166.36 137.91 165.79 138.72 165.22 139.54 C 163.92 139.77 162.61 140.01 161.32 140.25 C 161.59 136.94 161.74 133.63 162.24 130.35 C 163.90 126.12 164.47 121.59 164.23 117.07 L 163.25 117.25 C 162.59 117.34 161.27 117.52 160.61 117.61 C 161.90 115.17 163.64 113.01 165.84 111.33 Z" />
<path fill="#418084" opacity="1.00" d=" M 77.69 144.09 C 80.61 147.91 87.68 149.31 86.85 155.18 C 86.40 156.81 85.77 158.38 85.19 159.96 L 84.36 159.63 C 84.06 159.52 83.47 159.31 83.17 159.20 C 82.80 159.95 82.42 160.71 82.05 161.46 C 82.62 161.68 83.77 162.12 84.35 162.34 C 81.82 162.30 79.36 162.91 76.92 163.50 C 76.48 162.52 76.03 161.54 75.56 160.58 C 75.82 159.96 76.34 158.71 76.60 158.09 C 75.12 157.69 74.39 159.27 74.15 160.44 C 73.84 161.03 73.23 162.23 72.93 162.82 C 71.41 162.59 69.88 162.40 68.35 162.26 L 68.06 161.63 C 67.70 160.81 67.26 160.03 66.74 159.29 C 66.26 159.64 65.28 160.34 64.80 160.69 C 65.44 156.73 61.79 154.43 59.83 151.55 L 60.12 151.21 C 60.73 150.54 61.35 149.89 62.00 149.27 C 62.57 149.30 63.72 149.37 64.29 149.41 C 69.50 150.54 73.98 147.29 77.69 144.09 M 77.69 158.21 C 80.96 158.10 84.70 156.25 85.54 152.84 C 82.77 154.40 80.11 156.15 77.69 158.21 M 69.27 157.12 C 68.43 158.89 72.34 159.86 72.69 158.09 C 72.25 156.81 70.31 156.28 69.27 157.12 Z" />
</g>
<g id="#4c7c7aff">
<path fill="#4c7c7a" opacity="1.00" d=" M 126.52 112.54 C 129.14 110.79 132.62 111.81 134.62 114.02 C 131.89 113.70 129.19 113.18 126.52 112.54 Z" />
</g>
<g id="#407f83ff">
<path fill="#407f83" opacity="1.00" d=" M 43.80 113.14 C 44.96 113.01 46.12 112.87 47.28 112.73 C 48.57 114.74 50.16 116.68 52.79 116.52 C 51.44 123.46 52.84 130.53 51.96 137.51 C 48.67 137.16 45.29 137.27 42.28 138.81 C 42.28 138.53 42.29 137.97 42.29 137.69 C 42.01 137.25 41.46 136.37 41.18 135.93 L 40.34 135.56 C 40.34 135.08 40.35 134.11 40.35 133.63 C 40.49 132.51 40.10 131.65 39.18 131.04 L 38.30 130.35 C 40.10 125.07 39.75 119.10 43.16 114.39 C 43.32 114.08 43.64 113.45 43.80 113.14 M 42.38 120.27 C 41.81 121.71 42.24 122.14 43.67 121.58 C 44.24 120.15 43.81 119.71 42.38 120.27 M 43.15 131.33 C 42.23 132.16 43.13 134.41 44.43 133.83 C 45.29 133.00 44.45 130.74 43.15 131.33 Z" />
</g>
<g id="#587674ff">
<path fill="#587674" opacity="1.00" d=" M 75.50 116.17 C 76.89 112.99 80.24 112.52 83.29 113.27 C 80.67 114.16 78.06 115.11 75.50 116.17 Z" />
</g>
<g id="#498d89ff">
<path fill="#498d89" opacity="1.00" d=" M 54.09 122.76 C 54.99 119.69 56.38 116.77 58.15 114.10 C 60.35 114.30 62.55 114.46 64.75 114.61 C 64.26 116.15 63.80 117.69 63.25 119.20 C 62.11 120.38 60.54 121.44 60.35 123.21 C 59.76 126.60 61.91 129.65 63.86 132.20 C 65.69 134.58 68.75 135.30 71.28 136.67 C 74.48 138.00 75.84 141.41 77.69 144.09 C 73.98 147.29 69.50 150.54 64.29 149.41 C 63.07 147.84 61.83 146.29 60.53 144.78 C 59.77 146.58 60.64 148.08 62.00 149.27 C 61.35 149.89 60.73 150.54 60.12 151.21 C 58.20 147.38 56.17 143.58 53.55 140.18 C 53.40 137.65 53.17 135.13 53.01 132.60 C 57.81 133.70 59.04 127.75 57.74 124.28 C 56.58 123.65 55.31 123.24 54.09 122.76 Z" />
</g>
<g id="#418185ff">
<path fill="#418185" opacity="1.00" d=" M 156.80 115.23 C 158.12 117.36 159.23 119.63 159.76 122.09 C 159.99 124.24 160.28 126.38 160.68 128.51 C 160.99 133.00 161.14 137.59 160.02 141.99 C 159.07 145.78 157.06 149.19 155.64 152.81 C 154.67 154.36 154.93 157.41 152.76 157.76 C 152.31 158.03 151.41 158.57 150.96 158.83 C 150.50 159.66 149.90 160.37 149.17 160.96 C 148.83 161.37 148.15 162.18 147.80 162.58 C 147.31 163.50 146.78 164.39 146.21 165.25 C 145.05 165.41 143.89 165.56 142.75 165.78 L 142.70 165.83 C 141.90 166.74 141.11 167.66 140.34 168.61 C 138.67 169.80 136.61 170.06 134.62 170.16 C 133.59 168.24 133.94 163.20 130.71 164.68 C 129.63 166.04 128.63 167.46 127.76 168.96 C 127.22 168.93 126.14 168.85 125.61 168.82 C 125.06 168.74 123.95 168.60 123.40 168.53 C 122.86 166.73 122.22 164.98 121.64 163.20 C 120.90 160.25 121.29 157.12 122.41 154.32 C 125.08 151.05 128.79 148.83 131.63 145.71 C 134.48 142.82 136.02 138.64 139.77 136.68 C 142.58 134.88 146.30 134.11 148.12 131.08 C 149.56 128.72 150.96 126.22 151.47 123.48 C 150.77 121.35 149.49 119.48 148.27 117.62 C 151.41 118.13 154.45 117.43 156.80 115.23 M 151.65 143.30 C 150.64 144.56 149.63 145.82 148.65 147.11 C 150.89 147.39 152.31 146.07 153.05 144.13 C 152.70 143.92 152.00 143.51 151.65 143.30 M 134.24 148.43 C 132.15 148.86 132.37 153.15 134.66 152.58 C 134.90 151.42 135.29 149.14 134.24 148.43 M 143.48 157.43 C 142.53 157.28 141.59 157.12 140.65 156.97 C 142.01 160.13 147.10 159.05 146.21 155.37 C 145.31 156.07 144.40 156.76 143.48 157.43 Z" />
</g>
<g id="#84b3b2ff">
<path fill="#84b3b2" opacity="1.00" d=" M 121.26 116.51 C 124.16 115.89 127.16 116.19 128.71 119.08 C 126.53 120.30 124.40 121.68 122.78 123.61 C 121.15 121.60 121.30 118.96 121.26 116.51 Z" />
</g>
<g id="#2d4b52ff">
<path fill="#2d4b52" opacity="1.00" d=" M 79.45 127.56 C 75.25 125.63 76.32 120.29 76.77 116.61 C 78.23 117.49 79.67 118.41 81.08 119.37 C 80.60 119.26 79.64 119.04 79.16 118.93 C 78.64 118.81 77.60 118.56 77.09 118.43 C 76.84 121.72 77.03 126.05 80.89 127.12 C 83.69 128.56 85.49 125.55 87.36 124.04 L 87.98 123.54 C 88.20 123.40 88.66 123.10 88.89 122.95 C 88.63 120.93 88.44 118.89 88.42 116.85 C 89.23 118.63 89.96 120.45 90.67 122.27 C 87.94 125.30 84.00 130.10 79.45 127.56 Z" />
<path fill="#2d4b52" opacity="1.00" d=" M 163.25 117.25 L 164.23 117.07 C 164.47 121.59 163.90 126.12 162.24 130.35 C 161.85 129.89 161.07 128.97 160.68 128.51 C 160.28 126.38 159.99 124.24 159.76 122.09 C 159.89 121.53 160.16 120.40 160.30 119.84 C 160.94 121.42 161.57 123.01 162.20 124.60 C 162.53 122.14 162.83 119.68 163.25 117.25 Z" />
<path fill="#2d4b52" opacity="1.00" d=" M 75.82 132.85 C 73.34 131.49 70.24 130.39 69.33 127.41 C 76.77 133.40 87.30 131.34 95.61 135.41 C 97.64 136.29 99.69 137.10 101.79 137.82 C 101.08 137.91 99.68 138.10 98.97 138.19 C 94.50 136.17 89.85 134.59 85.06 133.54 C 83.68 133.27 82.28 133.07 80.88 132.89 C 80.15 132.82 78.70 132.66 77.98 132.58 C 78.19 133.33 78.60 134.83 78.80 135.58 C 77.68 135.43 76.55 135.30 75.42 135.17 C 75.52 134.59 75.72 133.43 75.82 132.85 Z" />
</g>
<g id="#4e9496ff">
<path fill="#4e9496" opacity="1.00" d=" M 130.60 128.90 C 137.22 127.04 143.78 123.13 146.24 116.35 C 147.81 119.27 151.84 122.16 149.96 125.80 C 148.03 131.14 143.17 135.08 137.57 135.97 C 133.29 143.02 127.78 149.50 120.59 153.71 C 111.68 154.41 102.67 153.68 93.73 154.12 L 93.09 153.83 C 92.62 153.59 91.68 153.11 91.21 152.87 C 90.56 152.46 89.26 151.63 88.61 151.21 C 84.77 148.12 79.89 146.04 77.26 141.68 C 75.63 139.05 74.18 136.32 72.56 133.69 C 72.42 134.26 72.14 135.40 72.00 135.98 C 68.89 134.23 65.03 133.08 63.31 129.67 C 62.23 127.73 60.72 125.64 61.31 123.30 C 62.34 124.82 64.18 124.66 65.77 124.98 C 67.26 125.20 68.18 126.56 69.33 127.41 C 70.24 130.39 73.34 131.49 75.82 132.85 C 75.72 133.43 75.52 134.59 75.42 135.17 C 76.55 135.30 77.68 135.43 78.80 135.58 L 79.07 136.64 C 79.64 138.70 79.63 141.19 81.39 142.67 C 84.36 145.36 87.55 147.82 90.92 150.00 C 95.11 152.74 100.34 151.87 105.07 151.89 C 109.41 151.60 113.79 152.46 118.11 151.84 C 121.66 150.73 124.07 147.65 126.77 145.27 C 128.70 143.44 130.99 141.72 131.81 139.07 C 132.95 136.15 134.07 132.88 136.85 131.11 C 139.15 129.79 141.86 128.85 143.23 126.39 C 138.82 130.61 132.57 130.77 126.90 131.77 C 127.96 130.86 129.02 129.94 130.13 129.07 L 130.60 128.90 Z" />
</g>
<g id="#83b4b2ff">
<path fill="#83b4b2" opacity="1.00" d=" M 115.31 119.00 C 117.14 119.41 118.93 119.96 120.67 120.65 C 120.59 121.39 120.43 122.87 120.35 123.61 C 122.71 124.05 124.99 124.81 127.16 125.84 C 128.66 126.16 130.18 126.42 131.70 126.67 C 131.43 127.23 130.87 128.34 130.60 128.90 L 130.13 129.07 C 123.77 130.44 117.33 131.71 110.84 130.42 C 111.06 126.20 112.58 122.23 115.31 119.00 Z" />
</g>
<g id="#224546ff">
<path fill="#224546" opacity="1.00" d=" M 42.38 120.27 C 43.81 119.71 44.24 120.15 43.67 121.58 C 42.24 122.14 41.81 121.71 42.38 120.27 Z" />
</g>
<g id="#639f9bff">
<path fill="#639f9b" opacity="1.00" d=" M 54.09 122.76 C 55.31 123.24 56.58 123.65 57.74 124.28 C 59.04 127.75 57.81 133.70 53.01 132.60 C 52.87 129.29 53.26 125.97 54.09 122.76 Z" />
</g>
<g id="#763c39ff">
<path fill="#763c39" opacity="1.00" d=" M 143.23 126.39 C 141.86 128.85 139.15 129.79 136.85 131.11 C 134.07 132.88 132.95 136.15 131.81 139.07 C 130.99 141.72 128.70 143.44 126.77 145.27 C 126.15 145.09 124.91 144.72 124.30 144.53 C 125.55 141.91 128.82 139.25 127.30 136.12 C 126.88 134.97 126.22 133.78 125.04 133.28 C 120.10 133.64 115.99 136.65 111.49 138.33 C 107.35 138.75 103.08 139.01 98.97 138.19 C 99.68 138.10 101.08 137.91 101.79 137.82 C 105.66 137.72 109.78 138.24 113.30 136.26 C 117.53 133.95 122.13 132.43 126.90 131.77 C 132.57 130.77 138.82 130.61 143.23 126.39 M 131.35 132.27 C 131.23 133.61 131.80 134.29 133.05 134.29 C 133.36 133.73 133.97 132.62 134.28 132.06 C 133.90 130.70 131.70 131.10 131.35 132.27 Z" />
</g>
<g id="#050a0b81">
<path fill="#050a0b" opacity="0.51" d=" M 39.18 131.04 C 40.10 131.65 40.49 132.51 40.35 133.63 C 38.71 133.40 38.32 132.54 39.18 131.04 Z" />
</g>
<g id="#274e52ff">
<path fill="#274e52" opacity="1.00" d=" M 43.15 131.33 C 44.45 130.74 45.29 133.00 44.43 133.83 C 43.13 134.41 42.23 132.16 43.15 131.33 Z" />
</g>
<g id="#2c4b4fff">
<path fill="#2c4b4f" opacity="1.00" d=" M 171.62 134.16 C 172.12 132.59 173.80 131.38 175.33 132.48 C 174.69 133.78 173.05 135.72 171.62 134.16 Z" />
</g>
<g id="#a6949fff">
<path fill="#a6949f" opacity="1.00" d=" M 111.49 138.33 C 115.99 136.65 120.10 133.64 125.04 133.28 C 126.22 133.78 126.88 134.97 127.30 136.12 C 128.82 139.25 125.55 141.91 124.30 144.53 C 123.55 144.29 122.05 143.82 121.30 143.58 C 121.71 144.05 122.53 145.01 122.94 145.48 L 122.16 145.70 C 120.95 146.04 119.75 146.41 118.56 146.81 C 119.32 145.86 120.05 144.88 120.78 143.91 C 110.50 140.58 99.48 141.83 89.18 144.36 C 88.64 144.28 87.55 144.13 87.01 144.05 C 85.80 142.41 84.47 140.83 83.65 138.95 C 82.76 137.00 84.32 135.22 85.06 133.54 C 89.85 134.59 94.50 136.17 98.97 138.19 C 103.08 139.01 107.35 138.75 111.49 138.33 Z" />
</g>
<g id="#3b646aff">
<path fill="#3b646a" opacity="1.00" d=" M 171.62 134.16 C 173.05 135.72 174.69 133.78 175.33 132.48 L 176.60 132.93 C 175.46 136.08 174.31 139.43 171.71 141.70 C 168.09 144.24 166.80 149.09 162.56 150.83 L 161.81 151.25 C 161.76 150.81 161.65 149.93 161.60 149.49 C 162.68 148.46 163.84 147.54 164.99 146.58 C 165.15 146.34 165.49 145.85 165.65 145.60 C 163.62 146.25 161.58 146.89 159.54 147.51 C 160.12 145.09 160.82 142.69 161.32 140.25 C 162.61 140.01 163.92 139.77 165.22 139.54 C 165.79 138.72 166.36 137.91 166.94 137.10 C 167.84 137.25 168.75 137.41 169.66 137.57 C 170.32 136.44 170.98 135.31 171.62 134.16 Z" />
</g>
<g id="#4c7575ff">
<path fill="#4c7575" opacity="1.00" d=" M 98.34 134.84 C 99.64 133.87 100.75 134.05 101.66 135.41 C 100.36 136.37 99.25 136.18 98.34 134.84 Z" />
</g>
<g id="#2d5051ff">
<path fill="#2d5051" opacity="1.00" d=" M 110.25 134.32 C 110.79 134.81 110.79 134.81 110.25 134.32 Z" />
</g>
<g id="#0910109e">
<path fill="#091010" opacity="0.62" d=" M 41.18 135.93 C 41.46 136.37 42.01 137.25 42.29 137.69 C 41.93 137.46 41.20 136.99 40.84 136.75 L 41.18 135.93 Z" />
</g>
<g id="#3d666cff">
<path fill="#3d666c" opacity="1.00" d=" M 42.28 138.81 C 45.29 137.27 48.67 137.16 51.96 137.51 C 51.84 138.48 51.71 139.46 51.57 140.44 C 52.70 141.79 53.83 143.12 54.96 144.47 C 54.38 144.70 53.24 145.17 52.67 145.41 C 52.53 146.35 52.39 147.30 52.25 148.25 C 52.18 148.75 52.05 149.74 51.98 150.24 C 49.85 149.73 47.71 149.34 45.56 148.94 C 46.17 147.77 45.58 146.18 44.18 146.04 C 44.35 144.62 44.54 143.21 44.74 141.80 C 43.92 140.80 43.10 139.80 42.28 138.81 Z" />
</g>
<g id="#c9acbdff">
<path fill="#c9acbd" opacity="1.00" d=" M 89.18 144.36 C 99.48 141.83 110.50 140.58 120.78 143.91 C 120.05 144.88 119.32 145.86 118.56 146.81 C 113.51 149.70 107.45 148.33 101.92 148.58 C 97.69 148.81 93.61 147.50 90.03 145.32 L 89.18 144.36 Z" />
</g>
<g id="#315f61ff">
<path fill="#315f61" opacity="1.00" d=" M 151.65 143.30 C 152.00 143.51 152.70 143.92 153.05 144.13 C 152.31 146.07 150.89 147.39 148.65 147.11 C 149.63 145.82 150.64 144.56 151.65 143.30 Z" />
</g>
<g id="#366263ff">
<path fill="#366263" opacity="1.00" d=" M 60.53 144.78 C 61.83 146.29 63.07 147.84 64.29 149.41 C 63.72 149.37 62.57 149.30 62.00 149.27 C 60.64 148.08 59.77 146.58 60.53 144.78 Z" />
</g>
<g id="#c4c1bcff">
<path fill="#c4c1bc" opacity="1.00" d=" M 44.18 146.04 C 45.58 146.18 46.17 147.77 45.56 148.94 C 45.01 148.98 43.90 149.06 43.35 149.10 C 42.84 147.87 43.12 146.85 44.18 146.04 Z" />
</g>
<g id="#416b72ff">
<path fill="#416b72" opacity="1.00" d=" M 54.47 146.16 C 55.75 145.45 57.56 147.40 56.86 148.65 C 55.61 149.19 53.90 147.38 54.47 146.16 Z" />
</g>
<g id="#d4d1cbff">
<path fill="#d4d1cb" opacity="1.00" d=" M 168.03 147.48 C 169.18 146.72 170.60 148.64 169.70 149.59 C 168.55 150.28 167.01 148.44 168.03 147.48 Z" />
</g>
<g id="#e6e2dcff">
<path fill="#e6e2dc" opacity="1.00" d=" M 52.25 148.25 C 52.74 148.12 53.71 147.86 54.19 147.73 C 54.30 148.41 54.53 149.77 54.64 150.44 C 54.56 150.82 54.38 151.58 54.29 151.95 C 53.71 151.53 52.56 150.67 51.98 150.24 C 52.05 149.74 52.18 148.75 52.25 148.25 Z" />
<path fill="#e6e2dc" opacity="1.00" d=" M 74.15 160.44 C 74.50 160.47 75.21 160.54 75.56 160.58 C 76.03 161.54 76.48 162.52 76.92 163.50 C 76.64 164.01 76.08 165.04 75.80 165.55 C 74.64 164.87 73.69 163.92 72.93 162.82 C 73.23 162.23 73.84 161.03 74.15 160.44 Z" />
<path fill="#e6e2dc" opacity="1.00" d=" M 130.71 164.68 C 132.26 165.99 132.75 168.04 133.50 169.85 C 132.31 170.84 131.12 171.83 129.92 172.81 C 129.21 171.52 128.48 170.24 127.76 168.96 C 128.63 167.46 129.63 166.04 130.71 164.68 Z" />
</g>
<g id="#2b5457ff">
<path fill="#2b5457" opacity="1.00" d=" M 134.24 148.43 C 135.29 149.14 134.90 151.42 134.66 152.58 C 132.37 153.15 132.15 148.86 134.24 148.43 Z" />
</g>
<g id="#294f56ff">
<path fill="#294f56" opacity="1.00" d=" M 77.69 158.21 C 80.11 156.15 82.77 154.40 85.54 152.84 C 84.70 156.25 80.96 158.10 77.69 158.21 Z" />
</g>
<g id="#0b131392">
<path fill="#0b1313" opacity="0.57" d=" M 91.21 152.87 C 91.68 153.11 92.62 153.59 93.09 153.83 L 92.28 154.27 L 91.32 153.78 L 91.21 152.87 Z" />
</g>
<g id="#2f5b5fff">
<path fill="#2f5b5f" opacity="1.00" d=" M 143.48 157.43 C 144.40 156.76 145.31 156.07 146.21 155.37 C 147.10 159.05 142.01 160.13 140.65 156.97 C 141.59 157.12 142.53 157.28 143.48 157.43 Z" />
</g>
<g id="#274d54ff">
<path fill="#274d54" opacity="1.00" d=" M 69.27 157.12 C 70.31 156.28 72.25 156.81 72.69 158.09 C 72.34 159.86 68.43 158.89 69.27 157.12 Z" />
</g>
<g id="#1f4a51ff">
<path fill="#1f4a51" opacity="1.00" d=" M 74.15 160.44 C 74.39 159.27 75.12 157.69 76.60 158.09 C 76.34 158.71 75.82 159.96 75.56 160.58 C 75.21 160.54 74.50 160.47 74.15 160.44 Z" />
</g>
<g id="#03070784">
<path fill="#030707" opacity="0.52" d=" M 150.96 158.83 C 151.41 158.57 152.31 158.03 152.76 157.76 L 152.69 158.68 L 151.77 159.23 L 150.96 158.83 Z" />
</g>
<g id="#d0cbc6ff">
<path fill="#d0cbc6" opacity="1.00" d=" M 64.80 160.69 C 65.28 160.34 66.26 159.64 66.74 159.29 C 67.26 160.03 67.70 160.81 68.06 161.63 C 67.29 161.78 65.77 162.07 65.01 162.22 C 64.95 161.84 64.85 161.07 64.80 160.69 Z" />
</g>
<g id="#122223b6">
<path fill="#122223" opacity="0.71" d=" M 147.80 162.58 C 148.15 162.18 148.83 161.37 149.17 160.96 L 149.44 161.84 L 148.73 162.67 L 147.80 162.58 Z" />
</g>
<g id="#dedad3ff">
<path fill="#dedad3" opacity="1.00" d=" M 120.12 163.85 C 120.50 163.71 121.27 163.42 121.66 163.27 C 122.06 164.65 122.48 166.02 122.93 167.39 L 122.89 167.40 C 121.25 167.82 119.61 168.25 117.97 168.68 C 118.29 167.73 118.92 165.82 119.23 164.87 C 119.45 164.61 119.90 164.11 120.12 163.85 Z" />
</g>
<g id="#3837369a">
<path fill="#383736" opacity="0.60" d=" M 117.26 169.67 C 117.52 167.92 117.90 166.14 119.23 164.87 C 118.92 165.82 118.29 167.73 117.97 168.68 C 119.61 168.25 121.25 167.82 122.89 167.40 C 121.25 168.66 119.24 169.20 117.26 169.67 Z" />
</g>
</svg>
