<?xml version="1.0" encoding="UTF-8" ?>
<!DOCTYPE svg PUBLIC "-//W3C//DTD SVG 1.1//EN" "http://www.w3.org/Graphics/SVG/1.1/DTD/svg11.dtd">
<svg width="215pt" height="215pt" viewBox="0 0 215 215" version="1.1" xmlns="http://www.w3.org/2000/svg">
<g id="#141414ff">
<path fill="#141414" opacity="1.00" d=" M 47.98 42.40 C 53.57 26.73 73.81 17.17 89.05 25.03 C 91.06 26.35 94.02 26.97 94.99 29.36 L 94.78 29.94 C 93.01 28.76 91.32 27.46 89.53 26.32 C 85.17 23.59 79.93 22.54 74.85 23.09 C 67.25 23.78 59.85 27.35 54.80 33.09 C 52.22 35.97 50.16 39.23 47.98 42.40 Z" />
<path fill="#141414" opacity="1.00" d=" M 95.98 31.14 L 96.49 31.21 C 101.00 37.57 103.35 45.23 105.26 52.71 C 106.64 59.97 109.37 67.40 107.46 74.82 C 106.62 77.74 105.76 80.79 103.79 83.18 C 105.14 78.54 107.52 74.01 107.13 69.04 C 106.70 61.66 105.04 54.40 103.09 47.29 C 101.56 41.56 98.45 36.47 95.98 31.14 Z" />
<path fill="#141414" opacity="1.00" d=" M 92.10 42.13 C 92.66 42.20 93.77 42.33 94.32 42.39 C 99.26 46.02 101.13 52.59 101.42 58.46 C 100.54 56.56 99.37 54.83 98.14 53.15 C 97.79 55.99 97.52 58.86 96.78 61.63 C 95.58 61.51 94.38 61.39 93.19 61.27 C 92.63 59.77 92.07 58.26 91.49 56.77 C 89.86 58.91 89.71 61.57 90.48 64.09 C 90.97 64.91 91.51 65.70 92.08 66.47 C 93.34 66.40 94.51 65.91 95.67 65.49 C 97.72 64.46 99.67 63.26 101.61 62.05 C 101.01 64.29 98.36 64.93 96.63 66.09 C 94.63 66.66 92.62 67.18 90.60 67.66 C 89.44 64.23 88.72 60.64 88.69 57.01 C 88.49 51.90 88.71 46.28 92.10 42.13 M 91.95 43.34 C 89.48 47.14 89.04 53.82 93.73 56.11 C 95.60 52.17 96.23 45.91 91.95 43.34 Z" />
<path fill="#141414" opacity="1.00" d=" M 89.02 77.69 C 93.61 76.95 98.04 75.30 101.37 71.94 C 97.64 77.32 95.17 83.64 90.43 88.27 C 86.26 92.31 80.18 94.19 74.45 93.38 C 71.39 92.75 68.63 91.07 65.49 90.75 C 62.25 88.28 59.36 85.27 55.69 83.42 C 51.80 82.16 50.49 77.79 46.91 76.02 C 46.55 75.04 46.17 74.06 45.79 73.09 C 47.63 75.43 50.01 77.30 52.77 78.42 C 57.59 80.46 62.50 83.18 67.91 82.66 C 75.17 82.12 81.98 79.34 89.02 77.69 M 91.68 77.99 C 92.76 78.92 93.85 79.84 94.97 80.74 C 95.52 79.39 96.08 78.05 96.65 76.71 C 95.00 77.18 93.34 77.59 91.68 77.99 M 56.25 81.51 C 58.75 84.41 61.66 87.22 65.35 88.50 C 65.42 88.54 65.55 88.60 65.62 88.64 C 66.82 89.34 68.00 90.09 69.16 90.86 C 75.85 93.50 85.10 93.57 89.53 86.99 C 89.87 86.94 90.56 86.83 90.90 86.77 C 90.90 86.32 90.89 85.41 90.88 84.96 C 92.39 84.53 93.27 83.04 94.44 82.10 C 93.10 80.85 91.75 79.60 90.38 78.38 C 79.42 81.44 67.46 86.22 56.25 81.51 M 52.61 79.65 C 52.70 81.05 53.45 81.66 54.87 81.51 C 54.78 80.13 54.03 79.51 52.61 79.65 Z" />
<path fill="#141414" opacity="1.00" d=" M 74.47 74.98 C 76.11 74.43 76.62 74.97 76.00 76.59 C 74.35 77.14 73.84 76.60 74.47 74.98 Z" />
<path fill="#141414" opacity="1.00" d=" M 56.84 89.81 C 61.35 91.54 65.81 93.38 70.39 94.91 C 69.01 95.61 67.64 96.33 66.26 97.04 C 60.80 99.79 55.06 101.94 49.59 104.70 C 46.95 105.73 44.26 107.68 41.29 106.80 C 40.94 107.14 40.23 107.81 39.88 108.14 C 39.06 107.88 37.42 107.35 36.60 107.09 C 36.93 107.83 37.60 109.31 37.94 110.04 C 36.07 110.34 34.19 110.64 32.33 110.95 C 34.16 112.38 35.98 113.83 37.69 115.42 C 35.08 114.33 32.89 112.52 30.82 110.64 C 32.75 110.14 34.69 109.70 36.64 109.34 C 36.52 108.59 36.29 107.09 36.17 106.34 C 37.95 106.75 40.26 108.12 40.92 105.49 C 41.64 105.82 42.36 106.16 43.08 106.51 C 47.60 104.66 51.97 102.51 56.40 100.48 C 60.39 98.85 64.46 97.34 68.09 94.99 C 64.33 93.33 59.97 92.65 56.84 89.81 Z" />
<path fill="#141414" opacity="1.00" d=" M 101.35 93.57 C 101.31 92.61 101.27 91.66 101.22 90.70 C 101.36 91.42 101.65 92.85 101.80 93.57 C 111.34 96.84 120.49 101.12 130.00 104.48 C 132.92 104.33 135.49 101.96 138.48 102.62 C 138.42 104.34 137.29 105.73 136.54 107.21 C 138.86 107.42 141.34 107.39 143.35 108.76 C 141.95 110.10 140.53 111.43 139.16 112.79 C 139.81 113.35 141.12 114.47 141.77 115.03 C 132.69 118.75 123.19 123.07 113.10 121.20 C 119.67 130.96 126.41 140.69 131.83 151.14 C 134.56 152.93 138.09 152.38 141.17 152.15 C 148.25 150.88 155.32 147.56 159.73 141.69 C 162.68 137.54 165.05 132.93 166.32 127.99 C 166.55 128.08 166.99 128.26 167.22 128.35 C 166.36 131.33 165.25 134.23 163.79 136.97 C 160.23 144.46 153.43 149.85 145.59 152.33 C 141.32 153.30 136.92 153.33 132.59 152.87 C 134.45 157.92 134.81 163.30 135.60 168.58 C 140.56 167.19 145.74 166.06 150.08 163.15 C 154.09 160.46 157.70 157.15 160.60 153.29 C 161.77 151.77 162.95 150.22 164.47 149.02 C 163.72 150.10 163.13 151.26 162.71 152.50 L 162.58 152.96 C 158.55 156.77 155.06 161.25 150.13 164.03 C 145.88 167.21 140.46 167.66 135.69 169.63 C 135.60 170.38 135.42 171.88 135.32 172.63 C 142.08 171.33 148.32 168.29 154.18 164.77 C 149.43 170.12 141.83 171.68 135.24 173.73 C 134.35 177.96 138.47 179.75 140.08 182.95 C 139.43 182.52 138.13 181.66 137.48 181.24 C 137.25 182.38 135.77 183.82 137.20 184.76 C 138.64 186.47 141.24 185.80 143.16 186.31 C 142.49 185.55 141.14 184.01 140.46 183.25 C 142.47 183.07 143.07 185.30 143.93 186.64 C 142.31 186.72 140.69 186.78 139.07 186.83 C 139.66 188.06 141.15 189.17 140.71 190.69 C 137.41 191.26 134.11 190.40 131.02 189.29 C 131.52 190.25 132.51 192.16 133.01 193.12 C 127.99 192.31 123.40 190.03 118.70 188.20 C 116.71 187.66 116.31 185.48 115.62 183.84 C 114.53 180.58 112.80 177.60 111.02 174.69 C 114.50 177.50 115.32 182.08 117.23 185.88 C 118.58 187.11 120.38 187.68 121.97 188.52 C 122.78 187.73 123.58 186.93 124.39 186.13 C 124.19 186.61 123.80 187.59 123.60 188.08 C 125.62 190.59 129.06 191.10 131.91 192.24 C 129.99 189.64 127.80 187.25 125.43 185.06 C 125.39 184.72 125.31 184.06 125.28 183.72 C 126.75 184.86 128.20 186.02 129.66 187.18 C 130.88 183.53 134.81 183.09 137.39 180.85 C 136.53 179.76 135.67 178.68 134.80 177.60 C 134.61 168.45 133.91 159.16 130.47 150.57 C 125.88 142.05 120.68 133.86 115.40 125.75 C 114.26 124.18 113.30 122.35 111.67 121.23 C 109.51 120.19 107.11 119.82 104.81 119.25 C 103.79 118.63 102.82 117.94 101.85 117.27 C 104.96 117.93 107.99 118.94 111.11 119.61 C 117.46 121.45 124.26 120.58 130.45 118.53 C 133.76 117.20 137.00 115.66 140.52 114.91 C 139.67 113.99 138.82 113.07 137.97 112.16 C 139.49 111.02 141.01 109.86 142.50 108.67 C 140.17 108.02 137.76 108.08 135.38 108.28 C 135.66 107.65 136.22 106.40 136.51 105.77 C 136.81 105.10 137.41 103.75 137.72 103.07 C 134.35 103.74 130.86 106.36 127.42 104.52 C 118.74 101.16 110.35 97.00 101.37 94.44 L 101.35 93.57 M 130.52 187.95 C 133.47 189.29 136.65 190.03 139.86 190.35 C 138.91 187.26 135.88 185.29 133.13 183.91 C 131.66 184.62 130.64 186.36 130.52 187.95 Z" />
<path fill="#141414" opacity="1.00" d=" M 72.83 103.41 C 74.76 101.48 76.99 99.36 79.92 99.39 C 84.42 98.47 87.81 102.13 90.52 105.13 C 94.86 110.36 99.03 115.84 101.92 122.03 C 105.03 128.72 106.47 136.00 107.69 143.23 C 108.16 142.95 109.10 142.40 109.58 142.12 C 108.17 143.96 106.86 145.87 105.81 147.94 C 104.01 151.36 103.19 155.19 103.27 159.04 C 103.36 161.41 103.91 163.74 104.89 165.89 C 106.49 168.74 108.38 171.42 110.39 173.99 C 108.77 172.96 107.13 171.71 105.09 171.82 C 99.37 171.79 93.80 169.66 88.06 170.57 C 84.13 171.13 79.92 171.38 76.43 173.46 C 75.34 175.47 76.73 178.26 75.01 179.98 C 71.46 181.23 67.66 181.51 64.05 182.53 C 58.90 183.77 54.14 186.17 49.19 188.01 C 49.45 187.14 49.95 185.39 50.20 184.51 C 47.89 185.81 45.53 187.05 43.03 187.96 C 43.32 186.45 43.75 184.97 44.26 183.52 C 42.55 183.80 40.83 184.03 39.11 184.18 C 40.28 181.92 41.83 179.76 44.30 178.82 C 42.82 180.34 41.49 182.01 40.23 183.72 C 43.48 183.46 48.14 181.12 46.35 177.17 L 46.25 176.58 L 46.52 176.96 C 46.84 177.41 47.47 178.30 47.79 178.75 C 48.34 178.37 49.43 177.60 49.98 177.22 C 50.36 177.58 51.13 178.29 51.51 178.65 C 51.96 179.08 52.86 179.95 53.31 180.38 C 54.25 180.01 55.19 179.65 56.13 179.28 C 57.42 180.52 58.70 181.75 59.99 182.99 C 63.82 181.61 67.80 180.79 71.77 179.92 C 72.98 179.52 74.62 179.33 75.15 177.96 C 75.41 176.46 74.57 175.07 74.24 173.65 C 78.68 170.81 84.00 170.30 89.08 169.52 C 80.81 167.33 72.94 162.84 68.25 155.50 C 65.48 151.46 64.47 146.61 62.56 142.18 C 62.75 134.99 62.69 127.79 63.89 120.66 C 58.67 121.62 53.32 121.65 48.03 121.38 C 44.73 121.00 41.60 122.36 38.38 122.78 C 38.81 120.46 39.64 117.78 38.01 115.72 C 38.77 116.46 39.53 117.20 40.28 117.95 C 39.93 118.92 39.25 120.84 38.91 121.80 C 44.86 119.70 51.20 120.81 57.35 120.49 C 59.62 120.53 61.89 120.20 64.00 119.35 C 64.14 118.78 64.42 117.62 64.56 117.05 C 65.72 111.83 66.20 106.48 67.58 101.31 C 67.59 101.99 67.61 103.35 67.62 104.03 C 67.57 107.40 66.62 110.66 65.92 113.93 C 68.15 110.38 70.17 106.68 72.83 103.41 M 74.58 102.79 C 69.72 107.32 67.55 113.74 64.92 119.65 C 63.68 129.07 61.88 139.07 65.59 148.18 C 68.55 156.30 74.88 163.00 82.85 166.34 C 90.41 169.21 98.42 171.07 106.54 171.05 C 104.79 167.56 102.21 164.16 102.40 160.06 C 101.72 154.48 104.31 149.32 106.84 144.55 C 105.56 129.41 98.61 115.02 88.09 104.13 C 86.06 102.26 83.76 100.45 80.95 100.01 C 78.41 99.33 76.47 101.50 74.58 102.79 M 43.76 186.94 C 47.01 185.82 50.07 184.21 52.87 182.20 C 52.05 180.61 51.02 179.13 49.95 177.71 C 47.38 180.40 44.83 183.28 43.76 186.94 M 50.05 186.92 C 52.96 185.54 55.94 184.33 58.96 183.23 C 57.96 182.19 56.98 181.13 56.00 180.06 C 53.15 181.42 51.66 184.38 50.05 186.92 Z" />
<path fill="#141414" opacity="1.00" d=" M 169.62 127.43 L 171.06 127.82 C 172.38 127.62 173.70 127.38 175.01 127.09 C 173.43 127.62 171.84 128.13 170.26 128.65 C 170.30 134.12 170.83 140.41 167.56 145.07 C 168.55 139.87 169.96 134.71 169.61 129.35 C 169.61 128.87 169.62 127.91 169.62 127.43 Z" />
<path fill="#141414" opacity="1.00" d=" M 162.58 152.96 C 164.60 152.70 165.33 150.53 166.34 149.07 C 165.51 153.07 162.86 156.78 159.61 159.20 C 161.00 157.07 162.43 154.97 163.83 152.85 L 162.58 152.96 Z" />
</g>
<g id="#e9aa7dff">
<path fill="#e9aa7d" opacity="1.00" d=" M 74.85 23.09 C 79.93 22.54 85.17 23.59 89.53 26.32 C 90.56 31.85 94.16 36.61 94.32 42.39 C 93.77 42.33 92.66 42.20 92.10 42.13 C 88.71 46.28 88.49 51.90 88.69 57.01 C 88.72 60.64 89.44 64.23 90.60 67.66 C 92.62 67.18 94.63 66.66 96.63 66.09 C 94.40 70.14 91.30 73.66 89.02 77.69 C 81.98 79.34 75.17 82.12 67.91 82.66 C 62.50 83.18 57.59 80.46 52.77 78.42 C 50.01 77.30 47.63 75.43 45.79 73.09 C 45.47 72.58 44.84 71.56 44.52 71.05 C 45.06 69.20 45.57 67.35 46.05 65.48 C 47.89 67.26 50.24 68.22 52.70 68.73 C 52.99 61.24 53.12 53.28 49.80 46.37 C 49.15 46.45 47.84 46.60 47.19 46.68 C 47.29 45.92 47.48 44.40 47.58 43.65 L 47.69 42.82 L 47.98 42.40 C 50.16 39.23 52.22 35.97 54.80 33.09 C 55.01 33.63 55.43 34.71 55.65 35.25 C 55.51 37.47 55.39 39.70 55.36 41.93 C 57.76 41.44 60.09 40.56 62.01 39.00 C 65.08 39.57 68.20 40.98 71.35 40.38 C 73.87 38.09 75.72 35.03 76.83 31.82 C 77.10 28.79 75.74 25.92 74.85 23.09 M 83.78 47.63 C 84.30 47.38 85.33 46.90 85.85 46.66 C 87.58 47.50 88.01 43.70 86.14 44.27 C 86.38 43.11 86.59 41.95 86.78 40.77 C 84.67 42.43 84.06 45.10 83.78 47.63 M 53.65 43.56 C 54.09 45.96 53.60 49.17 56.14 50.54 C 55.69 48.17 56.06 45.00 53.65 43.56 M 60.49 75.32 C 60.04 76.91 60.63 77.53 62.25 77.18 C 62.70 75.60 62.11 74.98 60.49 75.32 M 74.47 74.98 C 73.84 76.60 74.35 77.14 76.00 76.59 C 76.62 74.97 76.11 74.43 74.47 74.98 Z" />
</g>
<g id="#edb28bff">
<path fill="#edb28b" opacity="1.00" d=" M 54.80 33.09 C 59.85 27.35 67.25 23.78 74.85 23.09 C 75.74 25.92 77.10 28.79 76.83 31.82 C 75.72 35.03 73.87 38.09 71.35 40.38 C 68.20 40.98 65.08 39.57 62.01 39.00 C 64.18 36.18 66.01 32.93 65.78 29.25 C 61.18 28.34 58.13 32.00 55.65 35.25 C 55.43 34.71 55.01 33.63 54.80 33.09 Z" />
</g>
<g id="#b8896aff">
<path fill="#b8896a" opacity="1.00" d=" M 89.53 26.32 C 91.32 27.46 93.01 28.76 94.78 29.94 C 95.08 30.24 95.68 30.84 95.98 31.14 C 98.45 36.47 101.56 41.56 103.09 47.29 C 105.04 54.40 106.70 61.66 107.13 69.04 C 107.52 74.01 105.14 78.54 103.79 83.18 C 103.56 83.64 103.09 84.57 102.86 85.03 C 102.09 85.77 101.70 86.65 101.67 87.70 C 101.31 89.76 101.47 92.64 99.05 93.43 C 99.62 93.47 100.77 93.54 101.35 93.57 L 101.37 94.44 C 101.97 100.39 95.25 103.46 90.52 105.13 C 87.81 102.13 84.42 98.47 79.92 99.39 C 76.99 99.36 74.76 101.48 72.83 103.41 C 72.04 103.06 70.47 102.37 69.69 102.02 C 69.00 102.69 68.31 103.36 67.62 104.03 C 67.61 103.35 67.59 101.99 67.58 101.31 C 67.62 99.78 66.82 98.41 66.26 97.04 C 67.64 96.33 69.01 95.61 70.39 94.91 C 65.81 93.38 61.35 91.54 56.84 89.81 C 56.53 89.69 55.90 89.45 55.59 89.33 L 55.23 88.80 C 54.62 87.64 53.34 87.15 52.16 86.77 C 51.98 86.70 51.61 86.54 51.43 86.47 C 49.11 84.22 46.81 81.95 44.53 79.67 C 44.44 79.44 44.26 78.97 44.17 78.74 C 43.54 76.19 43.70 73.54 44.52 71.05 C 44.84 71.56 45.47 72.58 45.79 73.09 C 46.17 74.06 46.55 75.04 46.91 76.02 C 50.49 77.79 51.80 82.16 55.69 83.42 C 59.36 85.27 62.25 88.28 65.49 90.75 C 68.63 91.07 71.39 92.75 74.45 93.38 C 80.18 94.19 86.26 92.31 90.43 88.27 C 95.17 83.64 97.64 77.32 101.37 71.94 C 98.04 75.30 93.61 76.95 89.02 77.69 C 91.30 73.66 94.40 70.14 96.63 66.09 C 98.36 64.93 101.01 64.29 101.61 62.05 C 101.56 60.85 101.49 59.65 101.42 58.46 C 101.13 52.59 99.26 46.02 94.32 42.39 C 94.16 36.61 90.56 31.85 89.53 26.32 M 75.48 96.06 C 76.39 97.12 77.39 98.23 78.95 98.02 C 80.71 97.92 83.61 98.76 84.20 96.42 C 81.29 96.23 78.39 96.10 75.48 96.06 Z" />
</g>
<g id="#edc8b0ff">
<path fill="#edc8b0" opacity="1.00" d=" M 55.65 35.25 C 58.13 32.00 61.18 28.34 65.78 29.25 C 66.01 32.93 64.18 36.18 62.01 39.00 C 60.09 40.56 57.76 41.44 55.36 41.93 C 55.39 39.70 55.51 37.47 55.65 35.25 Z" />
</g>
<g id="#87654dff">
<path fill="#87654d" opacity="1.00" d=" M 83.78 47.63 C 84.06 45.10 84.67 42.43 86.78 40.77 C 86.59 41.95 86.38 43.11 86.14 44.27 C 86.07 44.87 85.92 46.06 85.85 46.66 C 85.33 46.90 84.30 47.38 83.78 47.63 Z" />
</g>
<g id="#181919ff">
<path fill="#181919" opacity="1.00" d=" M 46.13 52.99 C 47.25 49.98 46.01 46.47 47.58 43.65 C 47.48 44.40 47.29 45.92 47.19 46.68 C 47.84 46.60 49.15 46.45 49.80 46.37 C 53.12 53.28 52.99 61.24 52.70 68.73 C 50.24 68.22 47.89 67.26 46.05 65.48 C 45.57 67.35 45.06 69.20 44.52 71.05 C 43.70 73.54 43.54 76.19 44.17 78.74 L 43.48 78.89 C 42.52 75.04 43.71 71.22 44.82 67.56 C 46.48 62.84 44.78 57.77 46.13 52.99 M 48.48 54.65 C 47.89 54.80 46.69 55.11 46.09 55.26 C 45.89 57.81 46.18 60.36 46.57 62.87 C 46.72 64.46 47.76 65.67 49.01 66.57 C 50.01 67.15 51.09 67.59 52.16 68.07 C 52.24 66.19 52.24 64.31 52.18 62.44 C 51.04 62.97 49.91 63.51 48.78 64.05 C 48.61 62.66 48.22 61.33 47.60 60.07 C 48.13 58.42 48.51 56.71 48.51 54.98 C 49.33 56.25 49.51 59.23 51.61 58.69 C 51.54 55.17 50.93 51.60 49.69 48.30 C 47.43 49.22 48.64 52.69 48.48 54.65 Z" />
<path fill="#181919" opacity="1.00" d=" M 60.49 75.32 C 62.11 74.98 62.70 75.60 62.25 77.18 C 60.63 77.53 60.04 76.91 60.49 75.32 Z" />
</g>
<g id="#a67959ff">
<path fill="#a67959" opacity="1.00" d=" M 53.65 43.56 C 56.06 45.00 55.69 48.17 56.14 50.54 C 53.60 49.17 54.09 45.96 53.65 43.56 Z" />
</g>
<g id="#fcc79fff">
<path fill="#fcc79f" opacity="1.00" d=" M 86.14 44.27 C 88.01 43.70 87.58 47.50 85.85 46.66 C 85.92 46.06 86.07 44.87 86.14 44.27 Z" />
</g>
<g id="#ffffffff">
<path fill="#ffffff" opacity="1.00" d=" M 91.95 43.34 C 96.23 45.91 95.60 52.17 93.73 56.11 C 89.04 53.82 89.48 47.14 91.95 43.34 Z" />
<path fill="#ffffff" opacity="1.00" d=" M 48.48 54.65 C 48.64 52.69 47.43 49.22 49.69 48.30 C 50.93 51.60 51.54 55.17 51.61 58.69 C 49.51 59.23 49.33 56.25 48.51 54.98 L 48.48 54.65 Z" />
<path fill="#ffffff" opacity="1.00" d=" M 91.68 77.99 C 93.34 77.59 95.00 77.18 96.65 76.71 C 96.08 78.05 95.52 79.39 94.97 80.74 C 93.85 79.84 92.76 78.92 91.68 77.99 Z" />
<path fill="#ffffff" opacity="1.00" d=" M 52.61 79.65 C 54.03 79.51 54.78 80.13 54.87 81.51 C 53.45 81.66 52.70 81.05 52.61 79.65 Z" />
<path fill="#ffffff" opacity="1.00" d=" M 164.47 149.02 C 165.02 148.69 165.63 148.54 166.29 148.55 L 166.34 149.07 C 165.33 150.53 164.60 152.70 162.58 152.96 L 162.71 152.50 C 163.13 151.26 163.72 150.10 164.47 149.02 Z" />
<path fill="#ffffff" opacity="1.00" d=" M 44.30 178.82 C 44.81 178.41 45.84 177.58 46.35 177.17 C 48.14 181.12 43.48 183.46 40.23 183.72 C 41.49 182.01 42.82 180.34 44.30 178.82 Z" />
<path fill="#ffffff" opacity="1.00" d=" M 50.05 186.92 C 51.66 184.38 53.15 181.42 56.00 180.06 C 56.98 181.13 57.96 182.19 58.96 183.23 C 55.94 184.33 52.96 185.54 50.05 186.92 Z" />
<path fill="#ffffff" opacity="1.00" d=" M 137.20 184.76 C 135.77 183.82 137.25 182.38 137.48 181.24 C 138.13 181.66 139.43 182.52 140.08 182.95 C 140.15 182.99 140.28 183.08 140.35 183.12 L 140.46 183.25 C 141.14 184.01 142.49 185.55 143.16 186.31 C 141.24 185.80 138.64 186.47 137.20 184.76 Z" />
<path fill="#ffffff" opacity="1.00" d=" M 124.39 186.13 C 124.65 185.86 125.17 185.32 125.43 185.06 C 127.80 187.25 129.99 189.64 131.91 192.24 C 129.06 191.10 125.62 190.59 123.60 188.08 C 123.80 187.59 124.19 186.61 124.39 186.13 Z" />
</g>
<g id="#15627dff">
<path fill="#15627d" opacity="1.00" d=" M 98.14 53.15 C 99.37 54.83 100.54 56.56 101.42 58.46 C 101.49 59.65 101.56 60.85 101.61 62.05 C 99.67 63.26 97.72 64.46 95.67 65.49 C 96.04 64.20 96.43 62.92 96.78 61.63 C 97.52 58.86 97.79 55.99 98.14 53.15 Z" />
</g>
<g id="#104e5fff">
<path fill="#104e5f" opacity="1.00" d=" M 46.09 55.26 C 46.69 55.11 47.89 54.80 48.48 54.65 L 48.51 54.98 C 48.51 56.71 48.13 58.42 47.60 60.07 C 47.34 60.77 46.83 62.17 46.57 62.87 C 46.18 60.36 45.89 57.81 46.09 55.26 Z" />
</g>
<g id="#055a72ff">
<path fill="#055a72" opacity="1.00" d=" M 90.48 64.09 C 89.71 61.57 89.86 58.91 91.49 56.77 C 92.07 58.26 92.63 59.77 93.19 61.27 C 92.28 62.21 91.38 63.15 90.48 64.09 Z" />
</g>
<g id="#6593a3ff">
<path fill="#6593a3" opacity="1.00" d=" M 46.57 62.87 C 46.83 62.17 47.34 60.77 47.60 60.07 C 48.22 61.33 48.61 62.66 48.78 64.05 C 48.83 64.68 48.95 65.94 49.01 66.57 C 47.76 65.67 46.72 64.46 46.57 62.87 Z" />
</g>
<g id="#5a8fa0ff">
<path fill="#5a8fa0" opacity="1.00" d=" M 93.19 61.27 C 94.38 61.39 95.58 61.51 96.78 61.63 C 96.43 62.92 96.04 64.20 95.67 65.49 C 94.51 65.91 93.34 66.40 92.08 66.47 C 91.51 65.70 90.97 64.91 90.48 64.09 C 91.38 63.15 92.28 62.21 93.19 61.27 Z" />
</g>
<g id="#025d78ff">
<path fill="#025d78" opacity="1.00" d=" M 48.78 64.05 C 49.91 63.51 51.04 62.97 52.18 62.44 C 52.24 64.31 52.24 66.19 52.16 68.07 C 51.09 67.59 50.01 67.15 49.01 66.57 C 48.95 65.94 48.83 64.68 48.78 64.05 Z" />
</g>
<g id="#e3713bff">
<path fill="#e3713b" opacity="1.00" d=" M 168.58 71.73 C 169.61 73.94 172.06 75.21 172.56 77.68 C 172.97 77.59 173.81 77.42 174.22 77.34 C 174.40 82.39 174.18 87.57 175.68 92.46 C 176.72 94.37 178.55 95.67 180.21 97.00 C 180.34 97.75 180.58 99.24 180.70 99.99 C 179.32 100.24 177.95 100.49 176.58 100.75 L 176.21 99.83 C 174.92 96.65 173.52 93.46 171.26 90.85 C 171.06 90.59 170.66 90.08 170.46 89.82 C 170.33 93.21 170.63 96.73 169.30 99.94 C 168.68 97.52 167.52 95.31 166.69 92.97 C 168.48 89.28 172.25 86.77 173.36 82.63 C 170.79 84.92 168.44 87.43 166.15 90.00 C 166.10 89.56 165.99 88.69 165.93 88.25 C 166.16 82.66 167.40 77.18 168.58 71.73 Z" />
</g>
<g id="#9b6a80ff">
<path fill="#9b6a80" opacity="1.00" d=" M 56.25 81.51 C 67.46 86.22 79.42 81.44 90.38 78.38 C 91.75 79.60 93.10 80.85 94.44 82.10 C 93.27 83.04 92.39 84.53 90.88 84.96 C 83.41 83.73 74.41 84.91 69.16 90.86 C 68.00 90.09 66.82 89.34 65.62 88.64 C 65.55 88.60 65.42 88.54 65.35 88.50 C 61.66 87.22 58.75 84.41 56.25 81.51 Z" />
</g>
<g id="#31241bba">
<path fill="#31241b" opacity="0.73" d=" M 44.53 79.67 C 46.81 81.95 49.11 84.22 51.43 86.47 C 48.36 85.23 45.74 82.78 44.53 79.67 Z" />
</g>
<g id="#75412eba">
<path fill="#75412e" opacity="0.73" d=" M 159.96 89.08 C 160.48 86.49 161.07 83.90 162.24 81.52 C 163.47 83.76 164.75 85.98 165.93 88.25 C 165.99 88.69 166.10 89.56 166.15 90.00 C 165.68 89.78 164.73 89.33 164.26 89.11 C 164.03 87.12 163.31 85.24 162.08 83.65 C 161.50 86.00 161.08 88.38 160.68 90.77 C 160.15 90.60 159.08 90.27 158.55 90.11 C 158.57 91.77 158.59 93.43 158.61 95.10 C 158.64 97.61 158.52 100.17 157.67 102.56 C 157.73 97.37 157.82 92.18 157.91 87.00 C 158.59 87.69 159.27 88.38 159.96 89.08 Z" />
</g>
<g id="#e38765ff">
<path fill="#e38765" opacity="1.00" d=" M 166.15 90.00 C 168.44 87.43 170.79 84.92 173.36 82.63 C 172.25 86.77 168.48 89.28 166.69 92.97 C 167.52 95.31 168.68 97.52 169.30 99.94 C 167.91 103.05 166.76 106.26 166.14 109.61 C 166.91 109.74 168.45 110.00 169.21 110.13 L 169.22 110.53 C 168.18 111.92 167.10 113.26 166.06 114.66 C 164.14 117.33 162.15 120.06 161.12 123.22 C 160.46 124.49 161.81 125.30 162.56 126.06 C 162.98 126.22 163.82 126.56 164.24 126.72 C 166.46 127.87 167.03 125.25 168.05 123.91 C 168.57 125.08 169.10 126.25 169.62 127.43 C 169.62 127.91 169.61 128.87 169.61 129.35 C 169.01 129.10 167.82 128.60 167.22 128.35 C 166.99 128.26 166.55 128.08 166.32 127.99 C 162.81 126.78 157.55 125.36 158.51 120.47 C 159.93 119.75 162.16 119.58 162.75 117.84 C 163.92 114.07 165.79 109.64 163.29 105.98 C 163.85 105.86 164.98 105.60 165.54 105.48 C 166.47 102.93 167.09 100.27 167.09 97.55 C 164.39 99.47 162.01 101.79 159.45 103.89 C 158.92 103.84 157.86 103.75 157.33 103.70 L 157.67 102.56 C 158.52 100.17 158.64 97.61 158.61 95.10 C 160.66 94.23 162.70 93.32 164.73 92.38 C 164.61 91.56 164.38 89.93 164.26 89.11 C 164.73 89.33 165.68 89.78 166.15 90.00 Z" />
</g>
<g id="#c9b6bfff">
<path fill="#c9b6bf" opacity="1.00" d=" M 69.16 90.86 C 74.41 84.91 83.41 83.73 90.88 84.96 C 90.89 85.41 90.90 86.32 90.90 86.77 C 90.56 86.83 89.87 86.94 89.53 86.99 C 85.10 93.57 75.85 93.50 69.16 90.86 Z" />
</g>
<g id="#2b2019d4">
<path fill="#2b2019" opacity="0.83" d=" M 101.67 87.70 C 101.70 86.65 102.09 85.77 102.86 85.03 C 103.79 86.61 103.40 87.50 101.67 87.70 Z" />
</g>
<g id="#ffe46bff">
<path fill="#ffe46b" opacity="1.00" d=" M 160.68 90.77 C 161.08 88.38 161.50 86.00 162.08 83.65 C 163.31 85.24 164.03 87.12 164.26 89.11 C 164.38 89.93 164.61 91.56 164.73 92.38 C 162.70 93.32 160.66 94.23 158.61 95.10 C 158.59 93.43 158.57 91.77 158.55 90.11 C 159.08 90.27 160.15 90.60 160.68 90.77 Z" />
<path fill="#ffe46b" opacity="1.00" d=" M 178.41 111.23 C 178.57 110.64 178.88 109.46 179.04 108.87 C 179.69 109.41 181.01 110.50 181.67 111.05 C 180.86 113.17 180.15 115.34 179.64 117.56 L 179.43 118.37 L 179.33 117.77 C 178.96 115.60 178.58 113.42 178.41 111.23 Z" />
</g>
<g id="#2a1f18c9">
<path fill="#2a1f18" opacity="0.79" d=" M 52.16 86.77 C 53.34 87.15 54.62 87.64 55.23 88.80 C 54.04 89.73 51.42 88.31 52.16 86.77 Z" />
</g>
<g id="#a1adbfff">
<path fill="#a1adbf" opacity="1.00" d=" M 65.35 88.50 C 65.42 88.54 65.55 88.60 65.62 88.64 C 65.55 88.60 65.42 88.54 65.35 88.50 Z" />
</g>
<g id="#de553aff">
<path fill="#de553a" opacity="1.00" d=" M 170.46 89.82 C 170.66 90.08 171.06 90.59 171.26 90.85 C 171.52 96.40 172.98 101.90 172.21 107.48 C 171.41 107.59 170.62 107.70 169.83 107.81 C 169.68 108.39 169.37 109.55 169.21 110.13 C 168.45 110.00 166.91 109.74 166.14 109.61 C 166.76 106.26 167.91 103.05 169.30 99.94 C 170.63 96.73 170.33 93.21 170.46 89.82 Z" />
</g>
<g id="#fbdc66ff">
<path fill="#fbdc66" opacity="1.00" d=" M 171.26 90.85 C 173.52 93.46 174.92 96.65 176.21 99.83 C 173.86 103.41 172.65 107.54 171.42 111.61 C 172.37 111.62 173.32 111.62 174.27 111.64 C 172.65 116.03 169.82 119.88 168.53 124.41 C 169.70 123.30 170.85 122.18 171.91 120.97 C 171.60 123.25 171.37 125.54 171.06 127.82 L 169.62 127.43 C 169.10 126.25 168.57 125.08 168.05 123.91 C 167.03 125.25 166.46 127.87 164.24 126.72 C 165.55 121.22 169.95 116.37 169.22 110.53 L 169.21 110.13 C 169.37 109.55 169.68 108.39 169.83 107.81 C 170.62 107.70 171.41 107.59 172.21 107.48 C 172.98 101.90 171.52 96.40 171.26 90.85 Z" />
</g>
<g id="#eaab7dff">
<path fill="#eaab7d" opacity="1.00" d=" M 101.37 94.44 C 110.35 97.00 118.74 101.16 127.42 104.52 C 130.86 106.36 134.35 103.74 137.72 103.07 C 137.41 103.75 136.81 105.10 136.51 105.77 C 132.62 106.40 130.18 109.65 127.21 111.88 L 127.35 111.94 C 128.48 113.23 129.60 114.55 130.72 115.86 L 129.29 115.59 C 128.59 115.42 127.19 115.06 126.48 114.89 C 126.03 114.96 125.12 115.10 124.67 115.18 C 124.44 115.65 123.98 116.60 123.75 117.08 C 119.61 118.24 115.19 118.10 111.11 119.61 C 107.99 118.94 104.96 117.93 101.85 117.27 C 102.82 117.94 103.79 118.63 104.81 119.25 C 105.87 124.06 110.86 126.24 115.40 125.75 C 120.68 133.86 125.88 142.05 130.47 150.57 C 128.99 155.28 128.60 161.05 124.05 164.00 C 118.43 168.29 111.24 165.11 104.89 165.89 C 103.91 163.74 103.36 161.41 103.27 159.04 C 105.27 159.12 107.72 160.21 109.26 158.35 C 112.88 155.63 115.55 150.31 112.22 146.31 C 110.09 146.88 107.95 147.42 105.81 147.94 C 106.86 145.87 108.17 143.96 109.58 142.12 C 109.10 142.40 108.16 142.95 107.69 143.23 C 106.47 136.00 105.03 128.72 101.92 122.03 C 99.03 115.84 94.86 110.36 90.52 105.13 C 95.25 103.46 101.97 100.39 101.37 94.44 Z" />
</g>
<g id="#7d5d47ff">
<path fill="#7d5d47" opacity="1.00" d=" M 75.48 96.06 C 78.39 96.10 81.29 96.23 84.20 96.42 C 83.61 98.76 80.71 97.92 78.95 98.02 C 77.39 98.23 76.39 97.12 75.48 96.06 Z" />
</g>
<g id="#87553dcc">
<path fill="#87553d" opacity="0.80" d=" M 180.21 97.00 C 180.79 97.68 181.34 98.37 181.86 99.10 C 181.31 102.84 178.32 105.70 177.73 109.45 C 179.14 108.05 180.52 106.60 182.08 105.37 C 181.71 106.70 181.32 108.02 180.91 109.34 C 181.49 109.32 182.65 109.29 183.23 109.27 C 182.43 112.18 181.64 115.21 179.64 117.56 C 180.15 115.34 180.86 113.17 181.67 111.05 C 181.01 110.50 179.69 109.41 179.04 108.87 C 178.88 109.46 178.57 110.64 178.41 111.23 L 176.26 111.64 C 176.99 109.51 177.60 107.34 178.48 105.27 C 179.28 103.53 180.09 101.80 180.70 99.99 C 180.58 99.24 180.34 97.75 180.21 97.00 Z" />
</g>
<g id="#e9ab7dff">
<path fill="#e9ab7d" opacity="1.00" d=" M 49.59 104.70 C 55.06 101.94 60.80 99.79 66.26 97.04 C 66.82 98.41 67.62 99.78 67.58 101.31 C 66.20 106.48 65.72 111.83 64.56 117.05 C 58.53 117.48 52.35 117.35 46.52 119.21 C 50.12 119.71 53.74 120.09 57.35 120.49 C 51.20 120.81 44.86 119.70 38.91 121.80 C 39.25 120.84 39.93 118.92 40.28 117.95 C 39.53 117.20 38.77 116.46 38.01 115.72 C 37.93 115.64 37.77 115.49 37.69 115.42 C 35.98 113.83 34.16 112.38 32.33 110.95 C 34.19 110.64 36.07 110.34 37.94 110.04 C 37.60 109.31 36.93 107.83 36.60 107.09 C 37.42 107.35 39.06 107.88 39.88 108.14 C 40.23 107.81 40.94 107.14 41.29 106.80 C 44.26 107.68 46.95 105.73 49.59 104.70 Z" />
<path fill="#e9ab7d" opacity="1.00" d=" M 167.22 128.35 C 167.82 128.60 169.01 129.10 169.61 129.35 C 169.96 134.71 168.55 139.87 167.56 145.07 C 167.53 145.26 167.46 145.64 167.42 145.83 C 166.43 142.79 166.38 139.21 163.79 136.97 C 165.25 134.23 166.36 131.33 167.22 128.35 Z" />
</g>
<g id="#e3743eff">
<path fill="#e3743e" opacity="1.00" d=" M 159.45 103.89 C 162.01 101.79 164.39 99.47 167.09 97.55 C 167.09 100.27 166.47 102.93 165.54 105.48 C 164.98 105.60 163.85 105.86 163.29 105.98 C 163.04 105.79 162.56 105.42 162.31 105.23 C 161.64 106.30 160.98 107.36 160.31 108.42 C 159.69 108.55 158.44 108.82 157.81 108.95 C 158.32 107.25 158.83 105.55 159.45 103.89 Z" />
</g>
<g id="#d4c5b2ff">
<path fill="#d4c5b2" opacity="1.00" d=" M 74.58 102.79 C 76.47 101.50 78.41 99.33 80.95 100.01 C 83.76 100.45 86.06 102.26 88.09 104.13 C 84.26 107.10 77.64 106.86 74.58 102.79 Z" />
</g>
<g id="#fbe09aff">
<path fill="#fbe09a" opacity="1.00" d=" M 171.42 111.61 C 172.65 107.54 173.86 103.41 176.21 99.83 L 176.58 100.75 C 177.19 102.27 177.83 103.77 178.48 105.27 C 177.60 107.34 176.99 109.51 176.26 111.64 C 174.67 114.68 173.09 117.73 171.91 120.97 C 170.85 122.18 169.70 123.30 168.53 124.41 C 169.82 119.88 172.65 116.03 174.27 111.64 C 173.32 111.62 172.37 111.62 171.42 111.61 Z" />
</g>
<g id="#f9ce60ff">
<path fill="#f9ce60" opacity="1.00" d=" M 176.58 100.75 C 177.95 100.49 179.32 100.24 180.70 99.99 C 180.09 101.80 179.28 103.53 178.48 105.27 C 177.83 103.77 177.19 102.27 176.58 100.75 Z" />
</g>
<g id="#edae7fff">
<path fill="#edae7f" opacity="1.00" d=" M 67.62 104.03 C 68.31 103.36 69.00 102.69 69.69 102.02 C 70.47 102.37 72.04 103.06 72.83 103.41 C 70.17 106.68 68.15 110.38 65.92 113.93 C 66.62 110.66 67.57 107.40 67.62 104.03 Z" />
</g>
<g id="#f5e7cdff">
<path fill="#f5e7cd" opacity="1.00" d=" M 64.92 119.65 C 67.55 113.74 69.72 107.32 74.58 102.79 C 77.64 106.86 84.26 107.10 88.09 104.13 C 98.61 115.02 105.56 129.41 106.84 144.55 C 97.69 144.00 89.77 149.92 80.78 150.52 C 77.08 150.87 73.24 150.48 69.89 148.77 C 75.64 149.23 81.56 149.74 87.01 147.38 C 83.33 137.28 76.84 127.19 66.47 123.06 C 65.95 121.92 65.44 120.78 64.92 119.65 Z" />
</g>
<g id="#fbdb65ff">
<path fill="#fbdb65" opacity="1.00" d=" M 157.33 103.70 C 157.86 103.75 158.92 103.84 159.45 103.89 C 158.83 105.55 158.32 107.25 157.81 108.95 C 158.44 108.82 159.69 108.55 160.31 108.42 C 160.98 107.36 161.64 106.30 162.31 105.23 C 162.56 105.42 163.04 105.79 163.29 105.98 C 165.79 109.64 163.92 114.07 162.75 117.84 C 162.16 119.58 159.93 119.75 158.51 120.47 C 156.77 118.80 155.17 116.93 153.05 115.71 C 150.54 111.13 155.00 107.37 157.04 103.67 L 157.33 103.70 Z" />
</g>
<g id="#bb8a6bff">
<path fill="#bb8a6b" opacity="1.00" d=" M 127.21 111.88 C 130.18 109.65 132.62 106.40 136.51 105.77 C 136.22 106.40 135.66 107.65 135.38 108.28 C 137.76 108.08 140.17 108.02 142.50 108.67 C 141.01 109.86 139.49 111.02 137.97 112.16 C 138.82 113.07 139.67 113.99 140.52 114.91 C 137.00 115.66 133.76 117.20 130.45 118.53 C 124.26 120.58 117.46 121.45 111.11 119.61 C 115.19 118.10 119.61 118.24 123.75 117.08 C 123.98 116.60 124.44 115.65 124.67 115.18 C 125.12 115.10 126.03 114.96 126.48 114.89 C 127.19 115.06 128.59 115.42 129.29 115.59 C 127.63 115.24 126.40 116.35 125.15 117.14 C 127.35 117.12 129.60 117.26 131.78 116.79 C 132.59 114.17 129.51 112.45 127.35 111.94 L 127.21 111.88 Z" />
<path fill="#bb8a6b" opacity="1.00" d=" M 130.47 150.57 C 133.91 159.16 134.61 168.45 134.80 177.60 C 135.67 178.68 136.53 179.76 137.39 180.85 C 134.81 183.09 130.88 183.53 129.66 187.18 C 128.20 186.02 126.75 184.86 125.28 183.72 C 125.31 184.06 125.39 184.72 125.43 185.06 C 125.17 185.32 124.65 185.86 124.39 186.13 C 123.58 186.93 122.78 187.73 121.97 188.52 C 120.38 187.68 118.58 187.11 117.23 185.88 C 115.32 182.08 114.50 177.50 111.02 174.69 L 110.63 174.30 L 110.39 173.99 C 108.38 171.42 106.49 168.74 104.89 165.89 C 111.24 165.11 118.43 168.29 124.05 164.00 C 128.60 161.05 128.99 155.28 130.47 150.57 Z" />
</g>
<g id="#fbe094ff">
<path fill="#fbe094" opacity="1.00" d=" M 166.06 114.66 C 167.10 113.26 168.18 111.92 169.22 110.53 C 169.95 116.37 165.55 121.22 164.24 126.72 C 163.82 126.56 162.98 126.22 162.56 126.06 C 164.26 122.44 165.80 118.69 166.06 114.66 Z" />
</g>
<g id="#543e2fff">
<path fill="#543e2f" opacity="1.00" d=" M 127.35 111.94 C 129.51 112.45 132.59 114.17 131.78 116.79 C 129.60 117.26 127.35 117.12 125.15 117.14 C 126.40 116.35 127.63 115.24 129.29 115.59 L 130.72 115.86 C 129.60 114.55 128.48 113.23 127.35 111.94 Z" />
</g>
<g id="#e16b3bff">
<path fill="#e16b3b" opacity="1.00" d=" M 171.91 120.97 C 173.09 117.73 174.67 114.68 176.26 111.64 L 178.41 111.23 C 178.58 113.42 178.96 115.60 179.33 117.77 C 179.22 119.89 178.41 121.95 178.74 124.12 C 179.26 126.34 176.44 126.50 175.01 127.09 C 173.70 127.38 172.38 127.62 171.06 127.82 C 171.37 125.54 171.60 123.25 171.91 120.97 Z" />
</g>
<g id="#fbd968ff">
<path fill="#fbd968" opacity="1.00" d=" M 161.12 123.22 C 162.15 120.06 164.14 117.33 166.06 114.66 C 165.80 118.69 164.26 122.44 162.56 126.06 C 161.81 125.30 160.46 124.49 161.12 123.22 Z" />
</g>
<g id="#be8d6dff">
<path fill="#be8d6d" opacity="1.00" d=" M 46.52 119.21 C 52.35 117.35 58.53 117.48 64.56 117.05 C 64.42 117.62 64.14 118.78 64.00 119.35 C 61.89 120.20 59.62 120.53 57.35 120.49 C 53.74 120.09 50.12 119.71 46.52 119.21 Z" />
</g>
<g id="#faefdbff">
<path fill="#faefdb" opacity="1.00" d=" M 64.92 119.65 C 65.44 120.78 65.95 121.92 66.47 123.06 C 76.84 127.19 83.33 137.28 87.01 147.38 C 81.56 149.74 75.64 149.23 69.89 148.77 C 69.12 148.43 68.34 148.08 67.58 147.71 C 67.08 147.83 66.09 148.06 65.59 148.18 C 61.88 139.07 63.68 129.07 64.92 119.65 Z" />
</g>
<g id="#b58869ff">
<path fill="#b58869" opacity="1.00" d=" M 104.81 119.25 C 107.11 119.82 109.51 120.19 111.67 121.23 C 113.30 122.35 114.26 124.18 115.40 125.75 C 110.86 126.24 105.87 124.06 104.81 119.25 Z" />
<path fill="#b58869" opacity="1.00" d=" M 145.59 152.33 C 153.43 149.85 160.23 144.46 163.79 136.97 C 166.38 139.21 166.43 142.79 167.42 145.83 C 167.25 146.50 166.90 147.84 166.73 148.52 L 166.29 148.55 C 165.63 148.54 165.02 148.69 164.47 149.02 C 162.95 150.22 161.77 151.77 160.60 153.29 C 160.37 151.66 160.12 150.04 159.87 148.41 C 156.22 150.78 151.74 150.91 147.85 152.73 C 147.29 152.63 146.15 152.43 145.59 152.33 Z" />
</g>
<g id="#ecb08aff">
<path fill="#ecb08a" opacity="1.00" d=" M 62.10 141.21 L 62.56 142.18 C 64.47 146.61 65.48 151.46 68.25 155.50 C 62.53 160.61 56.46 166.88 48.21 166.90 C 48.25 166.32 48.34 165.15 48.38 164.56 C 51.53 162.64 55.32 161.66 57.95 158.96 C 59.51 157.45 59.51 155.15 59.93 153.16 C 57.51 152.43 55.07 151.80 52.61 151.21 C 53.44 150.20 54.24 149.16 55.18 148.25 C 56.07 147.75 56.74 147.04 57.19 146.12 C 57.48 145.90 58.06 145.45 58.35 145.23 C 59.35 144.73 60.30 144.16 61.20 143.50 L 61.40 142.94 C 61.58 142.51 61.92 141.64 62.10 141.21 Z" />
</g>
<g id="#35281fb9">
<path fill="#35281f" opacity="0.73" d=" M 58.35 145.23 C 57.77 143.73 60.10 141.96 61.40 142.94 L 61.20 143.50 C 60.30 144.16 59.35 144.73 58.35 145.23 Z" />
</g>
<g id="#dbccb9ff">
<path fill="#dbccb9" opacity="1.00" d=" M 80.78 150.52 C 89.77 149.92 97.69 144.00 106.84 144.55 C 104.31 149.32 101.72 154.48 102.40 160.06 C 102.21 164.16 104.79 167.56 106.54 171.05 C 98.42 171.07 90.41 169.21 82.85 166.34 C 74.88 163.00 68.55 156.30 65.59 148.18 C 66.09 148.06 67.08 147.83 67.58 147.71 C 68.34 148.08 69.12 148.43 69.89 148.77 C 73.24 150.48 77.08 150.87 80.78 150.52 Z" />
<path fill="#dbccb9" opacity="1.00" d=" M 150.13 164.03 C 155.06 161.25 158.55 156.77 162.58 152.96 L 163.83 152.85 C 162.43 154.97 161.00 157.07 159.61 159.20 C 159.44 159.37 159.11 159.72 158.94 159.89 C 157.34 161.01 155.65 162.17 154.87 164.04 L 154.62 164.51 L 154.18 164.77 C 148.32 168.29 142.08 171.33 135.32 172.63 C 135.42 171.88 135.60 170.38 135.69 169.63 C 140.46 167.66 145.88 167.21 150.13 164.03 Z" />
</g>
<g id="#0e0a0869">
<path fill="#0e0a08" opacity="0.41" d=" M 55.18 148.25 C 54.71 146.47 55.38 145.76 57.19 146.12 C 56.74 147.04 56.07 147.75 55.18 148.25 Z" />
</g>
<g id="#efc7acff">
<path fill="#efc7ac" opacity="1.00" d=" M 105.81 147.94 C 107.95 147.42 110.09 146.88 112.22 146.31 C 115.55 150.31 112.88 155.63 109.26 158.35 C 107.72 160.21 105.27 159.12 103.27 159.04 C 103.19 155.19 104.01 151.36 105.81 147.94 Z" />
</g>
<g id="#a17a63ff">
<path fill="#a17a63" opacity="1.00" d=" M 159.87 148.41 C 160.12 150.04 160.37 151.66 160.60 153.29 C 157.70 157.15 154.09 160.46 150.08 163.15 C 145.74 166.06 140.56 167.19 135.60 168.58 C 134.81 163.30 134.45 157.92 132.59 152.87 C 136.92 153.33 141.32 153.30 145.59 152.33 C 146.15 152.43 147.29 152.63 147.85 152.73 C 151.74 150.91 156.22 150.78 159.87 148.41 Z" />
</g>
<g id="#f0cbb2ff">
<path fill="#f0cbb2" opacity="1.00" d=" M 48.76 158.88 C 49.83 156.22 51.07 153.63 52.61 151.21 C 55.07 151.80 57.51 152.43 59.93 153.16 C 59.51 155.15 59.51 157.45 57.95 158.96 C 55.32 161.66 51.53 162.64 48.38 164.56 C 48.45 162.66 48.61 160.77 48.76 158.88 Z" />
</g>
<g id="#ba8a6aff">
<path fill="#ba8a6a" opacity="1.00" d=" M 48.21 166.90 C 56.46 166.88 62.53 160.61 68.25 155.50 C 72.94 162.84 80.81 167.33 89.08 169.52 C 84.00 170.30 78.68 170.81 74.24 173.65 C 74.57 175.07 75.41 176.46 75.15 177.96 C 74.62 179.33 72.98 179.52 71.77 179.92 C 67.80 180.79 63.82 181.61 59.99 182.99 C 58.70 181.75 57.42 180.52 56.13 179.28 C 55.19 179.65 54.25 180.01 53.31 180.38 C 52.86 179.95 51.96 179.08 51.51 178.65 C 51.67 177.93 51.99 176.49 52.15 175.76 L 52.42 174.59 C 50.13 172.60 48.58 169.95 48.21 166.90 Z" />
</g>
<g id="#272421b6">
<path fill="#272421" opacity="0.71" d=" M 154.87 164.04 C 155.65 162.17 157.34 161.01 158.94 159.89 C 159.53 161.88 156.80 164.40 154.87 164.04 Z" />
</g>
<g id="#dfab84fd">
<path fill="#dfab84" opacity="1.00" d=" M 46.52 176.96 C 48.14 175.82 49.80 174.74 51.53 173.77 L 52.15 175.76 C 51.99 176.49 51.67 177.93 51.51 178.65 C 51.13 178.29 50.36 177.58 49.98 177.22 C 49.43 177.60 48.34 178.37 47.79 178.75 C 47.47 178.30 46.84 177.41 46.52 176.96 Z" />
</g>
<g id="#c5c9dcff">
<path fill="#c5c9dc" opacity="1.00" d=" M 43.76 186.94 C 44.83 183.28 47.38 180.40 49.95 177.71 C 51.02 179.13 52.05 180.61 52.87 182.20 C 50.07 184.21 47.01 185.82 43.76 186.94 Z" />
</g>
<g id="#ced1e0ff">
<path fill="#ced1e0" opacity="1.00" d=" M 130.52 187.95 C 130.64 186.36 131.66 184.62 133.13 183.91 C 135.88 185.29 138.91 187.26 139.86 190.35 C 136.65 190.03 133.47 189.29 130.52 187.95 Z" />
</g>
</svg>
