<?xml version="1.0" encoding="UTF-8" ?>
<!DOCTYPE svg PUBLIC "-//W3C//DTD SVG 1.1//EN" "http://www.w3.org/Graphics/SVG/1.1/DTD/svg11.dtd">
<svg width="215pt" height="215pt" viewBox="0 0 215 215" version="1.1" xmlns="http://www.w3.org/2000/svg">
<g id="#1d100ea7">
<path fill="#1d100e" opacity="0.65" d=" M 105.36 23.00 C 104.94 21.08 109.20 21.28 108.68 23.18 C 107.57 23.16 106.46 23.10 105.36 23.00 Z" />
</g>
<g id="#e27f6eff">
<path fill="#e27f6e" opacity="1.00" d=" M 105.36 23.00 C 106.46 23.10 107.57 23.16 108.68 23.18 L 109.98 23.22 L 110.12 24.80 C 110.10 24.94 110.05 25.24 110.02 25.39 C 103.34 25.96 100.11 32.81 94.36 35.33 C 90.54 37.08 86.73 38.94 83.60 41.79 C 87.09 41.74 90.59 41.60 94.08 41.42 C 94.71 44.55 94.62 47.81 93.10 50.69 C 89.60 53.20 86.14 55.80 83.15 58.91 C 81.61 58.74 80.07 58.59 78.55 58.34 C 78.43 58.23 78.20 58.02 78.09 57.91 C 79.77 55.74 80.33 53.11 80.03 50.40 C 79.58 50.42 78.70 50.45 78.26 50.47 C 77.96 50.48 77.37 50.52 77.07 50.54 C 76.02 53.09 75.48 55.88 76.25 58.59 C 76.43 60.49 77.84 61.89 79.53 62.59 C 82.09 62.72 84.64 62.83 87.19 62.93 C 88.71 62.97 90.22 62.97 91.74 62.93 C 90.28 64.99 88.84 67.32 86.37 68.26 C 80.75 70.52 74.79 71.83 68.82 72.72 C 68.27 73.01 67.16 73.61 66.61 73.91 C 65.13 75.32 63.47 76.52 61.82 77.71 C 60.48 75.92 59.41 73.92 58.83 71.76 C 60.21 71.29 62.04 71.28 62.75 69.75 C 63.87 68.32 62.35 66.61 62.07 65.16 C 62.72 64.54 63.39 63.93 64.02 63.29 C 66.79 61.61 63.86 58.12 66.21 56.13 C 66.19 54.40 66.18 52.64 65.86 50.93 C 65.23 49.59 64.57 48.27 63.88 46.97 L 63.82 46.84 C 64.63 46.37 65.42 45.88 66.19 45.36 C 68.94 43.77 70.15 40.58 72.65 38.78 C 78.37 36.70 84.48 35.70 89.99 33.01 C 93.83 34.79 97.00 31.24 99.57 28.89 C 99.49 28.42 99.34 27.49 99.27 27.02 L 99.22 26.75 C 100.24 26.22 101.25 25.64 102.32 25.21 C 102.74 24.88 103.57 24.22 103.98 23.89 C 104.33 23.67 105.02 23.22 105.36 23.00 Z" />
</g>
<g id="#432520cd">
<path fill="#432520" opacity="0.80" d=" M 102.25 24.29 L 103.10 23.61 L 103.98 23.89 C 103.57 24.22 102.74 24.88 102.32 25.21 L 102.25 24.29 Z" />
</g>
<g id="#c05d4dff">
<path fill="#c05d4d" opacity="1.00" d=" M 110.12 24.80 L 110.33 23.81 C 112.41 26.42 110.15 29.37 107.87 30.83 C 106.93 31.24 106.23 31.91 105.79 32.83 C 105.54 33.07 105.05 33.55 104.81 33.78 C 103.87 34.23 103.23 34.94 102.87 35.92 C 102.57 36.24 101.96 36.88 101.65 37.20 C 101.41 37.39 100.93 37.76 100.69 37.95 C 100.62 39.59 101.94 40.74 102.91 41.87 C 104.54 43.73 105.49 46.04 106.69 48.17 C 105.60 48.30 104.52 48.43 103.44 48.56 C 104.10 51.19 104.51 53.88 104.69 56.59 C 106.13 57.72 107.60 58.83 109.00 60.03 C 109.22 60.62 109.67 61.81 109.89 62.40 C 110.00 60.51 110.13 58.63 110.19 56.74 C 110.66 58.48 111.27 60.21 111.35 62.03 C 109.88 66.36 107.42 70.26 105.24 74.26 C 103.93 72.97 102.63 71.69 101.30 70.42 C 99.29 71.41 97.18 72.19 94.98 72.68 L 94.91 72.77 C 88.85 77.63 80.49 73.82 73.59 75.87 C 71.04 77.20 68.77 79.03 66.18 80.31 C 65.61 80.24 64.47 80.09 63.90 80.02 C 63.73 79.87 63.38 79.56 63.20 79.41 C 62.86 78.99 62.16 78.13 61.82 77.71 C 63.47 76.52 65.13 75.32 66.61 73.91 C 67.21 75.66 69.51 74.13 68.82 72.72 C 74.79 71.83 80.75 70.52 86.37 68.26 C 88.84 67.32 90.28 64.99 91.74 62.93 C 93.13 62.44 94.50 61.86 95.88 61.31 C 95.59 57.51 94.72 53.80 93.94 50.08 C 93.73 50.23 93.31 50.54 93.10 50.69 C 94.62 47.81 94.71 44.55 94.08 41.42 C 90.59 41.60 87.09 41.74 83.60 41.79 C 86.73 38.94 90.54 37.08 94.36 35.33 C 100.11 32.81 103.34 25.96 110.02 25.39 C 110.05 25.24 110.10 24.94 110.12 24.80 Z" />
</g>
<g id="#e2968eff">
<path fill="#e2968e" opacity="1.00" d=" M 94.87 29.68 C 96.28 28.72 97.78 27.88 99.27 27.02 C 99.34 27.49 99.49 28.42 99.57 28.89 C 97.00 31.24 93.83 34.79 89.99 33.01 C 91.67 31.98 93.28 30.85 94.87 29.68 Z" />
</g>
<g id="#39201cb1">
<path fill="#39201c" opacity="0.69" d=" M 87.06 33.25 C 89.68 32.09 91.98 30.20 94.87 29.68 C 93.28 30.85 91.67 31.98 89.99 33.01 C 84.48 35.70 78.37 36.70 72.65 38.78 C 70.15 40.58 68.94 43.77 66.19 45.36 C 68.02 42.87 69.57 40.02 72.07 38.14 C 76.94 36.16 82.30 35.55 87.06 33.25 Z" />
</g>
<g id="#04020164">
<path fill="#040201" opacity="0.39" d=" M 105.79 32.83 C 106.23 31.91 106.93 31.24 107.87 30.83 C 108.23 32.62 107.54 33.29 105.79 32.83 Z" />
</g>
<g id="#07030272">
<path fill="#070302" opacity="0.45" d=" M 102.87 35.92 C 103.23 34.94 103.87 34.23 104.81 33.78 C 105.27 35.53 104.63 36.24 102.87 35.92 Z" />
</g>
<g id="#371a15b7">
<path fill="#371a15" opacity="0.72" d=" M 100.69 37.95 C 100.93 37.76 101.41 37.39 101.65 37.20 C 102.91 38.19 103.16 40.36 102.91 41.87 C 101.94 40.74 100.62 39.59 100.69 37.95 Z" />
</g>
<g id="#020202ff">
<path fill="#020202" opacity="1.00" d=" M 62.15 52.13 C 61.70 50.17 62.50 48.25 63.82 46.84 L 63.88 46.97 C 63.09 48.83 61.68 50.81 62.64 52.90 C 63.04 53.97 63.10 56.10 64.75 55.62 C 66.46 54.78 65.45 52.42 65.86 50.93 C 66.18 52.64 66.19 54.40 66.21 56.13 C 63.86 58.12 66.79 61.61 64.02 63.29 C 63.19 59.60 62.98 55.82 62.15 52.13 Z" />
<path fill="#020202" opacity="1.00" d=" M 83.15 58.91 C 86.14 55.80 89.60 53.20 93.10 50.69 C 93.31 50.54 93.73 50.23 93.94 50.08 C 94.72 53.80 95.59 57.51 95.88 61.31 C 95.25 58.00 94.47 54.71 93.15 51.60 C 92.05 52.38 90.96 53.16 89.87 53.95 C 90.10 54.71 90.31 55.47 90.52 56.23 C 90.29 56.42 89.85 56.79 89.63 56.98 C 89.94 53.23 85.17 56.59 88.25 58.02 L 89.06 57.70 C 89.33 58.07 89.87 58.81 90.15 59.18 C 89.56 59.27 88.39 59.46 87.80 59.55 C 87.60 60.67 87.40 61.80 87.19 62.93 C 84.64 62.83 82.09 62.72 79.53 62.59 C 80.75 61.37 81.94 60.14 83.15 58.91 Z" />
<path fill="#020202" opacity="1.00" d=" M 73.59 75.87 C 80.49 73.82 88.85 77.63 94.91 72.77 C 94.38 73.61 93.89 74.47 93.40 75.34 C 87.92 75.82 82.42 75.71 76.93 75.79 C 73.62 75.62 71.27 78.25 68.78 79.98 C 67.36 81.04 65.38 80.86 63.90 80.02 C 64.47 80.09 65.61 80.24 66.18 80.31 C 68.77 79.03 71.04 77.20 73.59 75.87 Z" />
<path fill="#020202" opacity="1.00" d=" M 80.52 99.58 C 82.87 97.64 85.43 94.63 88.85 95.59 C 92.24 96.95 94.94 99.83 96.26 103.22 C 98.77 109.58 100.60 116.21 101.59 122.97 C 102.42 128.69 103.31 134.42 103.67 140.19 C 101.76 147.26 101.70 154.71 102.60 161.94 C 102.82 164.30 104.34 166.20 105.91 167.86 C 107.81 169.78 109.49 171.89 110.84 174.24 C 110.20 175.16 109.53 176.07 108.86 176.98 C 112.10 170.59 102.41 168.58 101.92 162.68 C 98.23 162.26 94.59 161.50 91.06 160.33 C 89.33 159.74 87.60 160.70 85.95 161.12 C 86.63 160.69 88.00 159.84 88.68 159.42 C 83.45 156.31 78.48 152.48 75.19 147.27 C 72.93 143.51 71.14 139.45 70.32 135.12 C 69.67 135.89 68.37 137.44 67.72 138.22 C 71.63 133.78 69.75 127.74 70.74 122.42 C 71.44 118.80 72.04 114.98 74.18 111.88 C 71.59 118.74 70.38 126.13 70.84 133.46 C 71.47 140.95 75.63 147.62 80.81 152.87 C 86.16 158.61 93.92 161.20 101.57 161.95 C 101.67 155.95 100.90 149.84 102.37 143.94 C 102.99 141.17 103.07 138.31 102.72 135.51 C 101.53 125.64 100.32 115.66 96.87 106.28 C 95.80 102.43 93.61 98.89 90.24 96.65 C 84.41 94.39 80.44 100.65 77.79 104.84 C 77.64 104.52 77.34 103.87 77.19 103.55 C 73.71 104.93 70.21 106.28 66.63 107.36 C 70.01 105.07 74.07 104.24 77.86 102.90 C 78.73 101.78 79.59 100.65 80.52 99.58 Z" />
<path fill="#020202" opacity="1.00" d=" M 108.86 104.34 C 112.79 103.85 116.41 105.51 119.72 107.44 C 117.87 106.74 116.02 106.04 114.18 105.33 C 114.13 105.72 114.04 106.50 113.99 106.89 C 113.33 106.22 112.67 105.55 112.00 104.90 C 111.22 104.76 109.64 104.48 108.86 104.34 Z" />
<path fill="#020202" opacity="1.00" d=" M 38.57 120.54 C 41.12 117.39 44.12 114.59 47.22 111.99 C 46.62 112.76 46.04 113.55 45.44 114.33 C 42.84 117.01 39.88 119.46 38.18 122.86 C 38.28 122.28 38.47 121.12 38.57 120.54 Z" />
<path fill="#020202" opacity="1.00" d=" M 56.05 124.10 C 57.35 121.28 58.54 118.39 60.20 115.76 C 59.26 118.31 58.35 120.87 57.46 123.44 C 56.41 123.99 55.35 124.55 54.31 125.12 L 54.44 124.05 L 54.54 123.18 C 53.37 122.41 52.18 121.66 50.97 120.94 C 50.34 121.44 49.08 122.45 48.44 122.96 C 48.37 125.67 48.35 128.38 48.55 131.09 C 50.61 128.97 52.56 126.73 54.37 124.39 C 53.32 127.50 50.79 129.71 48.61 132.03 C 48.44 130.46 47.88 129.41 46.92 128.88 C 44.60 129.89 45.24 133.10 44.31 135.08 C 44.87 136.01 45.43 136.93 45.98 137.87 C 45.31 137.79 43.98 137.65 43.31 137.58 C 43.71 137.43 44.51 137.12 44.90 136.97 C 44.53 136.57 43.78 135.77 43.41 135.37 C 44.17 132.54 46.11 129.11 43.69 126.52 C 42.60 125.88 41.54 124.53 40.16 125.28 C 38.25 128.83 39.18 133.66 41.63 136.83 L 42.27 137.66 C 39.97 137.34 37.84 136.40 35.91 135.14 C 35.84 133.52 35.79 131.90 35.64 130.28 C 35.11 131.51 34.60 132.75 33.93 133.90 C 34.08 132.77 34.38 130.51 34.53 129.39 C 35.00 129.02 35.94 128.29 36.41 127.93 C 36.56 128.32 36.86 129.10 37.01 129.48 C 38.02 128.51 38.46 127.32 38.33 125.92 L 37.73 125.60 L 36.27 124.85 L 37.22 124.68 C 39.06 124.37 41.24 123.89 42.82 125.20 C 44.18 125.94 45.12 127.61 46.76 127.68 C 46.76 124.29 48.95 119.22 53.12 121.23 C 54.11 122.17 55.08 123.13 56.05 124.10 M 36.61 129.84 C 36.44 131.21 36.36 132.59 36.35 133.98 C 36.87 136.04 39.24 136.27 40.92 136.82 C 40.17 135.65 39.52 134.43 38.96 133.17 C 38.44 131.80 38.85 129.69 36.61 129.84 Z" />
<path fill="#020202" opacity="1.00" d=" M 135.77 133.60 C 136.35 133.58 137.50 133.54 138.08 133.52 C 140.37 133.15 142.14 134.71 143.99 135.76 C 142.31 138.13 141.37 140.93 140.32 143.62 C 142.76 143.32 144.44 141.55 146.21 140.06 C 145.05 141.50 144.20 143.75 142.02 143.73 C 139.68 143.79 138.07 145.57 136.61 147.17 C 138.84 147.46 141.09 147.72 143.29 148.27 C 139.17 148.13 134.63 148.33 131.32 145.43 C 131.59 149.84 131.36 154.26 131.13 158.67 C 136.81 158.77 142.80 159.72 148.19 157.42 C 151.33 156.05 154.58 154.58 156.91 151.97 C 158.73 149.97 160.50 147.89 162.65 146.23 C 159.53 150.22 156.46 154.55 151.75 156.80 C 145.03 159.72 137.57 160.20 130.41 158.97 C 130.44 161.17 130.48 163.37 130.52 165.57 C 137.71 165.87 144.81 164.14 151.10 160.66 C 145.49 165.47 137.65 165.76 130.65 166.49 C 131.64 172.01 134.22 177.46 133.45 183.15 C 132.95 175.98 129.68 169.24 129.82 161.99 C 129.98 156.74 131.58 151.48 130.56 146.23 C 130.18 145.83 129.42 145.02 129.03 144.61 C 129.01 144.40 128.97 143.98 128.95 143.77 C 130.46 141.05 130.90 137.92 130.56 134.86 C 131.75 137.48 130.80 140.35 130.52 143.04 C 131.40 144.34 132.38 145.57 133.47 146.72 C 134.31 144.93 135.05 143.01 134.85 140.98 C 134.55 139.22 135.12 135.49 131.58 137.29 C 131.69 136.81 131.90 135.84 132.01 135.35 C 132.80 135.55 133.58 135.75 134.37 135.94 C 134.72 135.36 135.42 134.19 135.77 133.60 M 136.84 134.41 C 135.54 134.62 134.98 135.42 135.15 136.82 C 135.54 140.18 135.79 143.64 134.59 146.88 C 138.13 145.89 139.91 142.80 141.39 139.71 C 141.47 138.13 141.72 136.53 141.41 134.96 C 140.27 133.46 138.35 133.88 136.84 134.41 Z" />
<path fill="#020202" opacity="1.00" d=" M 55.29 163.21 C 51.65 158.56 53.88 152.23 58.10 148.82 C 57.41 149.89 56.75 150.98 56.12 152.08 C 54.91 154.10 53.89 156.33 54.19 158.74 C 54.32 159.27 54.58 160.32 54.71 160.84 C 54.85 161.44 55.15 162.62 55.29 163.21 Z" />
<path fill="#020202" opacity="1.00" d=" M 159.66 152.66 C 159.99 152.24 160.65 151.40 160.98 150.98 L 161.28 151.83 L 160.60 152.70 L 159.66 152.66 Z" />
<path fill="#020202" opacity="1.00" d=" M 50.71 177.17 C 52.46 175.97 54.25 174.82 56.08 173.75 C 54.27 175.64 56.02 177.60 58.12 177.96 C 56.05 180.38 54.30 183.05 52.85 185.90 L 55.19 185.26 C 54.36 186.15 53.29 186.71 52.09 186.92 C 52.62 185.59 53.17 184.27 53.74 182.96 C 51.56 183.58 49.40 184.27 47.23 184.92 C 47.75 183.51 48.29 182.10 48.80 180.68 C 47.47 181.04 46.13 181.38 44.80 181.72 C 45.33 180.61 45.86 179.44 47.06 178.90 L 45.96 181.27 C 48.19 180.39 50.30 179.22 52.25 177.82 C 50.66 179.73 49.28 181.79 48.06 183.95 C 50.92 182.82 56.34 182.47 55.85 178.19 C 55.62 175.29 52.39 177.04 50.71 177.17 Z" />
<path fill="#020202" opacity="1.00" d=" M 59.64 178.27 C 61.66 178.38 62.02 180.58 62.91 181.98 C 65.13 181.73 67.34 181.46 69.55 181.15 C 64.86 182.22 60.19 183.38 55.66 185.02 C 57.80 183.79 60.06 182.80 62.35 181.89 C 61.48 180.66 60.60 179.43 59.64 178.27 Z" />
<path fill="#020202" opacity="1.00" d=" M 105.71 181.10 C 106.28 180.09 106.89 179.10 107.55 178.15 C 109.40 180.26 110.12 183.76 112.80 184.84 C 113.25 184.55 114.15 183.97 114.60 183.68 L 115.23 182.92 C 113.20 185.91 114.97 189.23 115.94 192.24 C 116.23 191.84 116.82 191.04 117.11 190.65 C 117.58 190.16 118.52 189.20 118.99 188.72 C 117.93 190.00 117.55 192.77 115.57 192.74 C 114.29 190.70 114.53 187.89 112.91 186.13 C 110.53 184.88 108.07 186.68 105.64 186.86 C 107.27 185.80 109.15 185.30 110.98 184.72 C 110.02 183.14 109.05 181.58 108.11 180.00 C 107.78 180.16 107.12 180.47 106.79 180.62 L 105.71 181.10 Z" />
<path fill="#020202" opacity="1.00" d=" M 117.19 180.37 C 119.92 180.92 120.71 183.83 121.85 185.98 C 122.50 185.95 123.82 185.90 124.47 185.87 C 125.13 183.50 126.33 181.36 128.08 179.63 C 129.49 181.27 130.82 182.98 132.10 184.73 C 131.17 186.70 130.50 188.77 129.60 190.75 C 127.83 191.20 126.98 188.89 126.91 187.50 C 127.47 188.32 128.59 189.95 129.16 190.76 C 129.73 188.91 130.58 187.11 130.80 185.17 C 130.79 183.19 128.78 182.06 127.80 180.57 C 126.67 182.15 125.08 183.86 125.94 185.96 L 125.93 186.57 C 124.42 186.68 122.91 186.66 121.40 186.61 C 120.55 184.67 119.48 182.82 118.06 181.24 C 117.56 181.39 116.56 181.69 116.06 181.84 C 116.34 181.48 116.91 180.74 117.19 180.37 Z" />
</g>
<g id="#e59489ff">
<path fill="#e59489" opacity="1.00" d=" M 62.64 52.90 C 61.68 50.81 63.09 48.83 63.88 46.97 C 64.57 48.27 65.23 49.59 65.86 50.93 C 65.45 52.42 66.46 54.78 64.75 55.62 C 63.10 56.10 63.04 53.97 62.64 52.90 Z" />
<path fill="#e59489" opacity="1.00" d=" M 125.38 110.95 C 127.26 116.14 125.40 121.85 126.40 127.23 C 126.85 125.50 127.29 123.76 127.73 122.02 C 129.74 125.50 130.86 129.39 130.69 133.42 C 128.71 133.39 126.72 133.38 124.73 133.37 C 125.84 125.94 125.74 118.43 125.38 110.95 Z" />
</g>
<g id="#e0867aff">
<path fill="#e0867a" opacity="1.00" d=" M 103.44 48.56 C 104.52 48.43 105.60 48.30 106.69 48.17 C 106.66 48.40 106.60 48.86 106.58 49.09 C 105.64 52.94 107.98 56.45 109.00 60.03 C 107.60 58.83 106.13 57.72 104.69 56.59 C 104.51 53.88 104.10 51.19 103.44 48.56 Z" />
<path fill="#e0867a" opacity="1.00" d=" M 55.92 103.19 C 56.96 102.61 58.03 102.09 59.12 101.63 C 60.79 101.99 62.42 102.52 64.03 103.08 C 63.06 106.46 62.13 110.00 59.77 112.71 C 57.44 115.46 55.13 118.24 53.12 121.23 C 48.95 119.22 46.76 124.29 46.76 127.68 C 45.12 127.61 44.18 125.94 42.82 125.20 C 41.24 123.89 39.06 124.37 37.22 124.68 C 37.43 124.28 37.85 123.47 38.06 123.06 C 41.64 121.50 45.55 118.68 45.44 114.33 C 46.04 113.55 46.62 112.76 47.22 111.99 C 47.46 111.78 47.93 111.37 48.17 111.17 C 49.10 110.69 49.77 109.97 50.17 109.01 C 50.38 108.80 50.79 108.38 51.00 108.17 C 52.22 107.33 53.24 106.26 54.08 105.05 C 54.63 104.36 55.24 103.74 55.92 103.19 Z" />
</g>
<g id="#a55d51ff">
<path fill="#a55d51" opacity="1.00" d=" M 77.07 50.54 C 77.37 50.52 77.96 50.48 78.26 50.47 C 77.79 52.53 77.29 54.58 76.78 56.63 C 76.64 57.12 76.38 58.10 76.25 58.59 C 75.48 55.88 76.02 53.09 77.07 50.54 Z" />
</g>
<g id="#e4988dff">
<path fill="#e4988d" opacity="1.00" d=" M 78.26 50.47 C 78.70 50.45 79.58 50.42 80.03 50.40 C 80.33 53.11 79.77 55.74 78.09 57.91 L 76.78 56.63 C 77.29 54.58 77.79 52.53 78.26 50.47 Z" />
</g>
<g id="#d87161ff">
<path fill="#d87161" opacity="1.00" d=" M 109.00 60.03 C 107.98 56.45 105.64 52.94 106.58 49.09 C 108.29 51.36 109.46 54.00 110.19 56.74 C 110.13 58.63 110.00 60.51 109.89 62.40 C 109.67 61.81 109.22 60.62 109.00 60.03 Z" />
<path fill="#d87161" opacity="1.00" d=" M 36.41 127.93 C 36.74 127.35 37.40 126.18 37.73 125.60 L 38.33 125.92 C 38.46 127.32 38.02 128.51 37.01 129.48 C 36.86 129.10 36.56 128.32 36.41 127.93 Z" />
<path fill="#d87161" opacity="1.00" d=" M 165.89 130.53 C 166.58 130.51 167.96 130.47 168.65 130.45 C 167.79 135.78 166.87 141.38 164.05 146.06 L 164.33 144.77 C 164.46 144.18 164.71 143.00 164.84 142.41 C 160.66 144.38 156.68 146.76 152.43 148.59 C 148.20 150.52 143.44 149.77 138.97 149.41 C 142.36 149.16 145.93 149.56 149.13 148.17 C 151.19 147.12 153.18 145.89 155.41 145.18 C 157.07 144.81 158.54 143.80 159.17 142.16 C 159.35 141.86 159.72 141.26 159.90 140.96 C 160.24 140.55 160.93 139.75 161.27 139.35 C 161.43 139.00 161.73 138.30 161.88 137.96 C 162.21 137.55 162.88 136.73 163.21 136.32 C 163.43 135.77 163.86 134.68 164.08 134.13 C 164.66 132.92 165.27 131.72 165.89 130.53 Z" />
</g>
<g id="#ddd3daff">
<path fill="#ddd3da" opacity="1.00" d=" M 89.87 53.95 C 90.96 53.16 92.05 52.38 93.15 51.60 C 94.47 54.71 95.25 58.00 95.88 61.31 C 94.30 61.50 92.72 61.70 91.15 61.90 C 90.99 60.00 90.83 58.10 90.52 56.23 C 90.31 55.47 90.10 54.71 89.87 53.95 Z" />
<path fill="#ddd3da" opacity="1.00" d=" M 136.84 134.41 C 138.35 133.88 140.27 133.46 141.41 134.96 C 141.72 136.53 141.47 138.13 141.39 139.71 C 139.91 142.80 138.13 145.89 134.59 146.88 C 135.79 143.64 135.54 140.18 135.15 136.82 C 135.40 139.11 135.83 141.38 136.24 143.64 C 137.63 140.77 138.82 137.81 139.86 134.79 C 139.11 134.70 137.59 134.50 136.84 134.41 Z" />
</g>
<g id="#ffffffff">
<path fill="#ffffff" opacity="1.00" d=" M 88.25 58.02 C 85.17 56.59 89.94 53.23 89.63 56.98 L 89.06 57.70 L 88.25 58.02 Z" />
<path fill="#ffffff" opacity="1.00" d=" M 40.16 125.28 C 41.54 124.53 42.60 125.88 43.69 126.52 C 43.09 129.97 42.45 133.42 41.63 136.83 C 39.18 133.66 38.25 128.83 40.16 125.28 Z" />
<path fill="#ffffff" opacity="1.00" d=" M 36.61 129.84 C 38.85 129.69 38.44 131.80 38.96 133.17 C 39.52 134.43 40.17 135.65 40.92 136.82 C 39.24 136.27 36.87 136.04 36.35 133.98 C 36.36 132.59 36.44 131.21 36.61 129.84 Z" />
<path fill="#ffffff" opacity="1.00" d=" M 125.92 134.49 C 127.42 134.01 129.32 133.49 130.56 134.86 C 130.90 137.92 130.46 141.05 128.95 143.77 C 126.95 141.06 126.62 137.67 125.92 134.49 Z" />
<path fill="#ffffff" opacity="1.00" d=" M 50.19 177.37 L 50.71 177.17 C 52.39 177.04 55.62 175.29 55.85 178.19 C 56.34 182.47 50.92 182.82 48.06 183.95 C 49.28 181.79 50.66 179.73 52.25 177.82 C 50.30 179.22 48.19 180.39 45.96 181.27 L 47.06 178.90 C 47.36 178.72 47.95 178.36 48.24 178.18 C 48.73 177.98 49.70 177.57 50.19 177.37 Z" />
<path fill="#ffffff" opacity="1.00" d=" M 106.79 180.62 C 107.12 180.47 107.78 180.16 108.11 180.00 C 109.05 181.58 110.02 183.14 110.98 184.72 C 109.15 185.30 107.27 185.80 105.64 186.86 C 105.40 187.21 104.91 187.91 104.67 188.26 C 104.53 187.27 104.40 186.29 104.26 185.30 C 104.79 183.60 105.69 182.02 106.79 180.62 Z" />
<path fill="#ffffff" opacity="1.00" d=" M 116.06 181.84 C 116.56 181.69 117.56 181.39 118.06 181.24 C 116.78 184.23 116.48 187.45 117.11 190.65 C 116.82 191.04 116.23 191.84 115.94 192.24 C 114.97 189.23 113.20 185.91 115.23 182.92 C 115.44 182.65 115.85 182.11 116.06 181.84 Z" />
</g>
<g id="#ca6554ff">
<path fill="#ca6554" opacity="1.00" d=" M 76.78 56.63 L 78.09 57.91 C 78.20 58.02 78.43 58.23 78.55 58.34 C 80.07 58.59 81.61 58.74 83.15 58.91 C 81.94 60.14 80.75 61.37 79.53 62.59 C 77.84 61.89 76.43 60.49 76.25 58.59 C 76.38 58.10 76.64 57.12 76.78 56.63 Z" />
</g>
<g id="#6a6269ff">
<path fill="#6a6269" opacity="1.00" d=" M 89.63 56.98 C 89.85 56.79 90.29 56.42 90.52 56.23 C 90.83 58.10 90.99 60.00 91.15 61.90 C 92.72 61.70 94.30 61.50 95.88 61.31 C 94.50 61.86 93.13 62.44 91.74 62.93 C 90.22 62.97 88.71 62.97 87.19 62.93 C 87.40 61.80 87.60 60.67 87.80 59.55 C 88.39 59.46 89.56 59.27 90.15 59.18 C 89.87 58.81 89.33 58.07 89.06 57.70 L 89.63 56.98 Z" />
</g>
<g id="#e6a199fe">
<path fill="#e6a199" opacity="1.00" d=" M 58.92 68.45 C 59.91 67.30 61.01 66.25 62.07 65.16 C 62.35 66.61 63.87 68.32 62.75 69.75 C 62.04 71.28 60.21 71.29 58.83 71.76 C 58.85 70.93 58.89 69.28 58.92 68.45 Z" />
</g>
<g id="#2414129f">
<path fill="#241412" opacity="0.62" d=" M 63.20 79.41 C 59.54 77.73 56.54 72.01 58.92 68.45 C 58.89 69.28 58.85 70.93 58.83 71.76 C 59.41 73.92 60.48 75.92 61.82 77.71 C 62.16 78.13 62.86 78.99 63.20 79.41 Z" />
</g>
<g id="#b15a4eff">
<path fill="#b15a4e" opacity="1.00" d=" M 94.98 72.68 C 97.18 72.19 99.29 71.41 101.30 70.42 C 102.63 71.69 103.93 72.97 105.24 74.26 C 101.35 80.01 104.39 86.84 106.78 92.51 L 105.99 92.54 C 102.42 92.58 98.62 93.29 95.24 91.79 C 91.63 90.15 87.58 88.32 86.19 84.27 C 86.01 84.79 85.63 85.82 85.44 86.33 C 85.43 85.34 85.42 83.36 85.42 82.38 C 82.22 82.96 79.11 84.02 75.88 84.39 C 73.22 83.45 70.97 81.71 68.78 79.98 C 71.27 78.25 73.62 75.62 76.93 75.79 C 82.42 75.71 87.92 75.82 93.40 75.34 C 93.89 74.47 94.38 73.61 94.91 72.77 L 94.98 72.68 Z" />
<path fill="#b15a4e" opacity="1.00" d=" M 69.95 155.00 C 71.65 152.39 73.28 149.73 75.19 147.27 C 78.48 152.48 83.45 156.31 88.68 159.42 C 88.00 159.84 86.63 160.69 85.95 161.12 C 83.66 162.69 81.34 164.33 79.52 166.46 C 78.81 169.65 79.88 173.01 79.83 176.27 C 77.46 177.14 75.13 178.14 72.69 178.81 C 72.28 179.14 71.45 179.79 71.04 180.12 C 70.67 180.38 69.92 180.89 69.55 181.15 C 67.34 181.46 65.13 181.73 62.91 181.98 C 62.02 180.58 61.66 178.38 59.64 178.27 C 59.26 178.19 58.50 178.03 58.12 177.96 C 58.98 176.88 59.89 175.82 60.54 174.61 C 60.60 172.92 59.36 171.49 58.78 169.97 C 58.26 170.66 57.75 171.35 57.24 172.05 C 57.17 169.00 56.20 166.10 55.29 163.21 C 55.15 162.62 54.85 161.44 54.71 160.84 C 55.28 161.17 56.42 161.82 56.98 162.15 C 56.45 163.62 58.04 165.96 59.48 164.36 C 63.13 161.45 67.31 158.97 69.95 155.00 M 63.24 164.25 C 63.75 164.74 63.75 164.74 63.24 164.25 Z" />
</g>
<g id="#813f36ff">
<path fill="#813f36" opacity="1.00" d=" M 66.61 73.91 C 67.16 73.61 68.27 73.01 68.82 72.72 C 69.51 74.13 67.21 75.66 66.61 73.91 Z" />
</g>
<g id="#e36c39ff">
<path fill="#e36c39" opacity="1.00" d=" M 144.30 74.12 C 147.20 76.27 149.82 78.81 151.97 81.73 C 153.10 83.27 154.23 84.82 155.45 86.30 C 154.39 87.94 152.93 89.18 151.08 89.84 C 149.09 84.48 146.10 79.54 144.30 74.12 Z" />
</g>
<g id="#6f3b34a6">
<path fill="#6f3b34" opacity="0.65" d=" M 153.94 79.89 C 154.63 80.54 155.31 81.21 155.97 81.89 L 154.81 81.26 C 155.08 83.06 155.37 84.86 155.74 86.65 L 155.45 86.30 C 154.23 84.82 153.10 83.27 151.97 81.73 C 152.71 82.39 154.20 83.73 154.95 84.39 C 154.70 83.27 154.19 81.02 153.94 79.89 Z" />
</g>
<g id="#d57448f6">
<path fill="#d57448" opacity="0.96" d=" M 154.81 81.26 L 155.97 81.89 C 157.72 83.40 159.00 85.34 160.17 87.31 L 160.72 88.17 C 159.01 87.92 156.81 88.39 155.74 86.65 C 155.37 84.86 155.08 83.06 154.81 81.26 Z" />
</g>
<g id="#e17e6eff">
<path fill="#e17e6e" opacity="1.00" d=" M 86.19 84.27 C 87.58 88.32 91.63 90.15 95.24 91.79 C 98.62 93.29 102.42 92.58 105.99 92.54 C 108.87 92.34 112.31 92.45 113.85 95.35 C 114.74 96.72 116.11 97.64 117.63 98.19 C 121.36 99.86 124.85 102.07 128.79 103.21 C 130.57 103.91 132.93 104.11 133.76 106.14 C 135.04 108.31 136.23 110.54 137.28 112.84 C 136.75 119.75 141.20 126.86 138.08 133.52 C 137.50 133.54 136.35 133.58 135.77 133.60 C 135.42 134.19 134.72 135.36 134.37 135.94 C 133.58 135.75 132.80 135.55 132.01 135.35 C 131.68 134.87 131.02 133.90 130.69 133.42 C 130.86 129.39 129.74 125.50 127.73 122.02 C 127.29 123.76 126.85 125.50 126.40 127.23 C 125.40 121.85 127.26 116.14 125.38 110.95 C 124.64 110.35 123.89 109.75 123.14 109.16 C 122.60 108.87 121.51 108.28 120.97 107.98 C 120.66 107.85 120.03 107.58 119.72 107.44 C 116.41 105.51 112.79 103.85 108.86 104.34 C 108.17 111.05 107.56 117.85 105.40 124.28 C 104.13 123.84 102.86 123.41 101.59 122.97 C 100.60 116.21 98.77 109.58 96.26 103.22 C 94.94 99.83 92.24 96.95 88.85 95.59 C 85.43 94.63 82.87 97.64 80.52 99.58 C 78.48 98.57 76.44 97.55 74.40 96.54 C 75.93 94.98 77.44 93.35 79.40 92.30 C 79.90 92.27 80.90 92.21 81.40 92.18 C 82.60 92.33 84.00 91.71 84.15 90.37 C 84.55 89.02 84.96 87.66 85.44 86.33 C 85.63 85.82 86.01 84.79 86.19 84.27 Z" />
</g>
<g id="#dd513bff">
<path fill="#dd513b" opacity="1.00" d=" M 155.45 86.30 L 155.74 86.65 C 156.81 88.39 159.01 87.92 160.72 88.17 C 160.92 88.46 161.33 89.04 161.53 89.33 C 161.35 91.95 160.93 94.54 160.25 97.07 C 157.87 94.96 155.42 92.62 152.11 92.25 C 151.76 91.44 151.42 90.65 151.08 89.84 C 152.93 89.18 154.39 87.94 155.45 86.30 Z" />
</g>
<g id="#713830ac">
<path fill="#713830" opacity="0.67" d=" M 160.17 87.31 C 162.24 87.06 163.99 87.53 164.99 89.50 C 164.02 89.71 163.04 89.88 162.06 90.01 C 161.93 89.84 161.66 89.50 161.53 89.33 C 161.33 89.04 160.92 88.46 160.72 88.17 L 160.17 87.31 Z" />
</g>
<g id="#3e231fc6">
<path fill="#3e231f" opacity="0.78" d=" M 81.40 92.18 C 80.77 90.84 83.11 89.49 84.15 90.37 C 84.00 91.71 82.60 92.33 81.40 92.18 Z" />
</g>
<g id="#e47f46ff">
<path fill="#e47f46" opacity="1.00" d=" M 161.53 89.33 C 161.66 89.50 161.93 89.84 162.06 90.01 C 163.04 89.88 164.02 89.71 164.99 89.50 L 165.05 90.41 C 165.23 94.29 165.09 98.66 168.74 101.09 C 168.80 100.23 168.92 98.50 168.98 97.63 C 169.46 97.67 169.94 97.70 170.43 97.74 L 170.61 97.75 C 168.96 100.93 171.31 104.05 172.34 106.99 C 171.04 106.16 169.73 105.34 168.42 104.53 C 168.49 105.39 168.62 107.11 168.69 107.97 C 168.78 108.60 168.98 109.85 169.08 110.47 C 168.19 110.01 167.30 109.58 166.43 109.11 C 168.42 105.45 165.02 101.39 163.90 97.84 C 163.75 97.51 163.45 96.86 163.30 96.53 C 162.30 96.80 161.31 97.50 160.25 97.07 C 160.93 94.54 161.35 91.95 161.53 89.33 Z" />
</g>
<g id="#de573bff">
<path fill="#de573b" opacity="1.00" d=" M 165.05 90.41 C 167.06 92.68 168.82 95.16 170.43 97.74 C 169.94 97.70 169.46 97.67 168.98 97.63 C 168.92 98.50 168.80 100.23 168.74 101.09 C 165.09 98.66 165.23 94.29 165.05 90.41 Z" />
<path fill="#de573b" opacity="1.00" d=" M 147.12 95.85 C 148.76 97.02 150.19 98.45 151.68 99.80 C 152.37 99.83 153.06 99.76 153.76 99.74 C 154.65 99.93 155.54 100.13 156.43 100.33 C 156.89 101.00 157.35 101.68 157.81 102.36 L 157.87 102.54 C 158.62 104.80 159.25 107.11 159.42 109.50 C 159.52 111.36 159.59 113.23 159.65 115.10 C 158.74 112.81 157.84 110.53 156.94 108.24 C 156.64 108.37 156.05 108.64 155.76 108.77 C 154.32 107.42 152.89 106.05 151.32 104.84 L 150.87 104.48 C 149.47 101.67 148.13 98.82 147.12 95.85 Z" />
<path fill="#de573b" opacity="1.00" d=" M 173.87 98.14 C 175.73 101.79 177.00 105.68 178.30 109.54 C 177.57 110.44 176.83 111.34 176.09 112.24 C 175.79 111.89 175.18 111.17 174.88 110.82 C 174.43 108.19 174.10 105.55 173.42 102.97 C 173.62 101.36 173.77 99.76 173.87 98.14 Z" />
</g>
<g id="#341c17b0">
<path fill="#341c17" opacity="0.69" d=" M 76.09 92.97 C 77.19 92.73 78.30 92.51 79.40 92.30 C 77.44 93.35 75.93 94.98 74.40 96.54 C 69.63 99.09 64.27 100.15 59.12 101.63 C 58.03 102.09 56.96 102.61 55.92 103.19 C 56.60 102.24 57.35 101.20 58.57 100.95 C 63.55 99.49 68.68 98.41 73.43 96.28 C 74.56 95.40 75.24 94.09 76.09 92.97 Z" />
</g>
<g id="#f4c16cff">
<path fill="#f4c16c" opacity="1.00" d=" M 152.11 92.25 C 155.42 92.62 157.87 94.96 160.25 97.07 C 161.31 97.50 162.30 96.80 163.30 96.53 C 163.45 96.86 163.75 97.51 163.90 97.84 C 163.57 98.81 163.25 99.78 162.92 100.76 C 161.75 100.67 160.58 100.58 159.42 100.49 C 159.01 100.96 158.21 101.90 157.81 102.36 C 157.35 101.68 156.89 101.00 156.43 100.33 C 155.18 98.51 154.09 96.59 153.14 94.60 C 152.88 94.02 152.36 92.84 152.11 92.25 Z" />
</g>
<g id="#120a0876">
<path fill="#120a08" opacity="0.46" d=" M 113.85 95.35 C 115.39 94.37 118.46 96.37 117.63 98.19 C 116.11 97.64 114.74 96.72 113.85 95.35 Z" />
</g>
<g id="#783831b2">
<path fill="#783831" opacity="0.70" d=" M 153.14 94.60 C 154.09 96.59 155.18 98.51 156.43 100.33 C 155.54 100.13 154.65 99.93 153.76 99.74 C 153.06 99.76 152.37 99.83 151.68 99.80 C 151.73 99.09 151.83 97.68 151.88 96.98 L 154.11 98.24 C 153.87 97.33 153.38 95.51 153.14 94.60 Z" />
</g>
<g id="#bd5f4eff">
<path fill="#bd5f4e" opacity="1.00" d=" M 59.12 101.63 C 64.27 100.15 69.63 99.09 74.40 96.54 C 76.44 97.55 78.48 98.57 80.52 99.58 C 79.59 100.65 78.73 101.78 77.86 102.90 C 74.07 104.24 70.01 105.07 66.63 107.36 C 64.01 109.75 62.11 112.80 60.20 115.76 C 58.54 118.39 57.35 121.28 56.05 124.10 C 55.08 123.13 54.11 122.17 53.12 121.23 C 55.13 118.24 57.44 115.46 59.77 112.71 C 62.13 110.00 63.06 106.46 64.03 103.08 C 62.42 102.52 60.79 101.99 59.12 101.63 Z" />
</g>
<g id="#f0d9cdff">
<path fill="#f0d9cd" opacity="1.00" d=" M 77.79 104.84 C 80.44 100.65 84.41 94.39 90.24 96.65 C 89.85 97.05 89.06 97.83 88.67 98.23 C 91.28 101.74 92.10 106.41 91.62 110.68 C 90.00 113.45 86.42 114.08 84.18 116.23 C 83.05 118.33 82.94 120.82 81.94 122.98 C 79.73 125.44 76.39 126.54 74.16 128.99 C 72.94 130.40 71.91 131.95 70.84 133.46 C 70.38 126.13 71.59 118.74 74.18 111.88 C 75.27 109.48 76.48 107.13 77.79 104.84 Z" />
</g>
<g id="#e7ccbaff">
<path fill="#e7ccba" opacity="1.00" d=" M 90.24 96.65 C 93.61 98.89 95.80 102.43 96.87 106.28 C 100.32 115.66 101.53 125.64 102.72 135.51 C 101.72 133.93 100.67 132.39 99.61 130.85 C 98.44 134.33 97.82 138.02 96.23 141.35 C 91.34 145.87 84.35 147.08 77.89 146.73 C 79.04 148.69 80.01 150.74 80.81 152.87 C 75.63 147.62 71.47 140.95 70.84 133.46 C 71.91 131.95 72.94 130.40 74.16 128.99 C 76.39 126.54 79.73 125.44 81.94 122.98 C 82.94 120.82 83.05 118.33 84.18 116.23 C 86.42 114.08 90.00 113.45 91.62 110.68 C 92.10 106.41 91.28 101.74 88.67 98.23 C 89.06 97.83 89.85 97.05 90.24 96.65 Z" />
<path fill="#e7ccba" opacity="1.00" d=" M 45.44 114.33 C 45.55 118.68 41.64 121.50 38.06 123.06 L 38.18 122.86 C 39.88 119.46 42.84 117.01 45.44 114.33 Z" />
<path fill="#e7ccba" opacity="1.00" d=" M 162.65 146.23 C 163.07 145.87 163.91 145.13 164.33 144.77 L 164.05 146.06 C 163.31 147.85 162.23 149.50 160.98 150.98 C 160.65 151.40 159.99 152.24 159.66 152.66 C 159.27 153.54 158.66 154.24 157.85 154.75 C 156.92 155.21 156.23 155.90 155.77 156.83 C 154.76 158.14 153.19 158.90 151.89 159.90 C 151.84 158.86 151.79 157.83 151.75 156.80 C 156.46 154.55 159.53 150.22 162.65 146.23 Z" />
</g>
<g id="#fdecb1ff">
<path fill="#fdecb1" opacity="1.00" d=" M 162.92 100.76 C 163.25 99.78 163.57 98.81 163.90 97.84 C 165.02 101.39 168.42 105.45 166.43 109.11 C 165.50 107.47 164.67 105.78 163.86 104.08 C 163.21 101.28 159.88 102.55 157.87 102.54 L 157.81 102.36 C 158.21 101.90 159.01 100.96 159.42 100.49 C 160.58 100.58 161.75 100.67 162.92 100.76 Z" />
<path fill="#fdecb1" opacity="1.00" d=" M 168.69 107.97 C 170.64 109.15 172.74 110.03 174.88 110.82 C 175.18 111.17 175.79 111.89 176.09 112.24 C 176.83 111.34 177.57 110.44 178.30 109.54 L 178.38 109.45 C 178.89 111.59 179.48 113.72 179.92 115.89 C 179.49 116.54 178.62 117.84 178.18 118.48 C 177.49 116.75 176.80 115.02 176.12 113.30 C 174.81 113.42 173.52 113.55 172.22 113.68 C 171.23 112.54 170.17 111.49 169.08 110.47 C 168.98 109.85 168.78 108.60 168.69 107.97 Z" />
</g>
<g id="#f5c25fff">
<path fill="#f5c25f" opacity="1.00" d=" M 172.34 106.99 C 171.31 104.05 168.96 100.93 170.61 97.75 C 171.62 99.45 172.60 101.17 173.42 102.97 C 174.10 105.55 174.43 108.19 174.88 110.82 C 172.74 110.03 170.64 109.15 168.69 107.97 C 168.62 107.11 168.49 105.39 168.42 104.53 C 169.73 105.34 171.04 106.16 172.34 106.99 Z" />
</g>
<g id="#fad564ff">
<path fill="#fad564" opacity="1.00" d=" M 157.87 102.54 C 159.88 102.55 163.21 101.28 163.86 104.08 C 163.62 105.62 163.62 107.20 164.19 108.67 C 163.02 108.34 161.85 108.00 160.68 107.66 C 161.83 109.36 162.98 111.06 164.12 112.76 C 162.55 111.67 160.99 110.58 159.42 109.50 C 159.25 107.11 158.62 104.80 157.87 102.54 Z" />
</g>
<g id="#331f1dc3">
<path fill="#331f1d" opacity="0.76" d=" M 51.00 108.17 C 49.98 106.58 52.49 104.08 54.08 105.05 C 53.24 106.26 52.22 107.33 51.00 108.17 Z" />
</g>
<g id="#c25d4dff">
<path fill="#c25d4d" opacity="1.00" d=" M 108.86 104.34 C 109.64 104.48 111.22 104.76 112.00 104.90 C 112.67 105.55 113.33 106.22 113.99 106.89 C 114.25 107.33 114.77 108.21 115.04 108.65 C 115.74 111.42 116.90 114.03 118.39 116.47 C 120.07 121.12 121.11 125.96 121.95 130.83 C 121.55 132.18 121.91 133.25 123.04 134.04 C 127.07 136.27 126.46 141.35 129.03 144.61 C 129.42 145.02 130.18 145.83 130.56 146.23 C 131.58 151.48 129.98 156.74 129.82 161.99 C 129.68 169.24 132.95 175.98 133.45 183.15 C 133.11 183.55 132.44 184.34 132.10 184.73 C 130.82 182.98 129.49 181.27 128.08 179.63 C 126.33 181.36 125.13 183.50 124.47 185.87 C 123.82 185.90 122.50 185.95 121.85 185.98 C 120.71 183.83 119.92 180.92 117.19 180.37 C 116.91 180.74 116.34 181.48 116.06 181.84 C 115.85 182.11 115.44 182.65 115.23 182.92 L 114.60 183.68 C 115.23 180.01 112.42 177.22 110.84 174.24 C 109.49 171.89 107.81 169.78 105.91 167.86 C 108.41 167.58 110.91 168.01 113.18 169.11 C 114.32 169.69 115.44 170.32 116.57 170.94 C 116.08 169.96 115.58 169.00 115.06 168.06 C 116.91 167.27 119.07 166.92 120.61 165.56 C 123.30 161.64 124.99 156.78 124.20 151.99 C 123.73 145.46 122.55 138.23 117.61 133.51 C 111.99 130.58 106.76 136.04 103.67 140.19 C 103.31 134.42 102.42 128.69 101.59 122.97 C 102.86 123.41 104.13 123.84 105.40 124.28 C 107.56 117.85 108.17 111.05 108.86 104.34 M 121.18 176.43 C 119.72 178.72 125.12 178.32 124.54 176.30 C 123.41 175.64 122.29 175.69 121.18 176.43 Z" />
</g>
<g id="#efae66fe">
<path fill="#efae66" opacity="1.00" d=" M 151.32 104.84 C 152.89 106.05 154.32 107.42 155.76 108.77 C 155.44 110.45 155.24 112.15 155.04 113.85 C 154.13 113.00 153.16 112.20 152.17 111.44 L 151.72 111.08 C 151.90 108.99 151.74 106.90 151.32 104.84 Z" />
</g>
<g id="#e0643cff">
<path fill="#e0643c" opacity="1.00" d=" M 164.19 108.67 C 163.62 107.20 163.62 105.62 163.86 104.08 C 164.67 105.78 165.50 107.47 166.43 109.11 C 167.30 109.58 168.19 110.01 169.08 110.47 C 170.17 111.49 171.23 112.54 172.22 113.68 C 173.04 116.20 173.68 118.78 174.40 121.34 C 175.10 120.88 175.79 120.41 176.48 119.93 C 175.46 122.03 174.89 124.28 174.34 126.54 C 173.66 128.66 171.31 129.42 169.57 130.43 L 169.41 129.88 C 170.45 127.66 172.95 125.39 171.59 122.76 C 169.43 117.92 167.41 112.93 164.19 108.67 Z" />
</g>
<g id="#381d18bf">
<path fill="#381d18" opacity="0.75" d=" M 133.76 106.14 L 134.77 105.78 C 140.48 116.07 144.48 127.20 147.89 138.42 L 147.24 139.23 C 146.64 137.49 146.01 135.77 145.46 134.02 C 143.44 126.71 140.55 119.66 137.28 112.84 C 136.23 110.54 135.04 108.31 133.76 106.14 Z" />
</g>
<g id="#502c27df">
<path fill="#502c27" opacity="0.87" d=" M 120.97 107.98 C 121.51 108.28 122.60 108.87 123.14 109.16 C 122.60 108.87 121.51 108.28 120.97 107.98 Z" />
</g>
<g id="#fbdd6bff">
<path fill="#fbdd6b" opacity="1.00" d=" M 155.76 108.77 C 156.05 108.64 156.64 108.37 156.94 108.24 C 157.84 110.53 158.74 112.81 159.65 115.10 C 159.59 113.23 159.52 111.36 159.42 109.50 C 160.99 110.58 162.55 111.67 164.12 112.76 C 162.98 111.06 161.83 109.36 160.68 107.66 C 161.85 108.00 163.02 108.34 164.19 108.67 C 167.41 112.93 169.43 117.92 171.59 122.76 C 172.95 125.39 170.45 127.66 169.41 129.88 C 168.77 128.17 168.05 126.48 167.37 124.78 C 166.65 125.88 165.95 126.99 165.29 128.13 C 163.14 125.14 161.04 122.07 158.24 119.65 C 157.10 117.76 156.17 115.75 155.04 113.85 C 155.24 112.15 155.44 110.45 155.76 108.77 Z" />
</g>
<g id="#150c0b8e">
<path fill="#150c0b" opacity="0.56" d=" M 48.17 111.17 C 47.74 109.40 48.41 108.68 50.17 109.01 C 49.77 109.97 49.10 110.69 48.17 111.17 Z" />
</g>
<g id="#401e19ba">
<path fill="#401e19" opacity="0.73" d=" M 115.04 108.65 C 116.66 111.02 117.69 113.70 118.39 116.47 C 116.90 114.03 115.74 111.42 115.04 108.65 Z" />
</g>
<g id="#e14e3bff">
<path fill="#e14e3b" opacity="1.00" d=" M 150.91 111.15 L 152.17 111.44 C 153.16 112.20 154.13 113.00 155.04 113.85 C 156.17 115.75 157.10 117.76 158.24 119.65 C 157.46 119.23 155.92 118.37 155.15 117.94 C 155.54 119.51 155.97 121.08 156.38 122.65 C 156.59 123.52 157.02 125.26 157.24 126.13 C 156.41 123.39 155.52 120.54 153.18 118.68 C 152.31 117.82 151.41 116.98 150.52 116.14 C 150.58 115.29 150.71 113.58 150.77 112.73 L 150.91 111.15 Z" />
</g>
<g id="#381c1b60">
<path fill="#381c1b" opacity="0.38" d=" M 150.87 117.97 C 149.84 116.32 150.11 114.45 150.77 112.73 C 150.71 113.58 150.58 115.29 150.52 116.14 C 151.41 116.98 152.31 117.82 153.18 118.68 C 152.61 118.51 151.45 118.15 150.87 117.97 Z" />
</g>
<g id="#bb5b4dff">
<path fill="#bb5b4d" opacity="1.00" d=" M 138.08 133.52 C 141.20 126.86 136.75 119.75 137.28 112.84 C 140.55 119.66 143.44 126.71 145.46 134.02 C 145.09 134.45 144.36 135.32 143.99 135.76 C 142.14 134.71 140.37 133.15 138.08 133.52 Z" />
</g>
<g id="#f5c365ff">
<path fill="#f5c365" opacity="1.00" d=" M 172.22 113.68 C 173.52 113.55 174.81 113.42 176.12 113.30 C 176.80 115.02 177.49 116.75 178.18 118.48 C 177.76 118.85 176.90 119.57 176.48 119.93 C 175.79 120.41 175.10 120.88 174.40 121.34 C 173.68 118.78 173.04 116.20 172.22 113.68 Z" />
</g>
<g id="#f9e09eff">
<path fill="#f9e09e" opacity="1.00" d=" M 155.15 117.94 C 155.92 118.37 157.46 119.23 158.24 119.65 C 161.04 122.07 163.14 125.14 165.29 128.13 C 165.44 128.73 165.74 129.93 165.89 130.53 L 165.23 130.34 C 162.34 127.78 161.07 121.97 156.38 122.65 C 155.97 121.08 155.54 119.51 155.15 117.94 Z" />
</g>
<g id="#ecedeeff">
<path fill="#ecedee" opacity="1.00" d=" M 48.44 122.96 C 49.08 122.45 50.34 121.44 50.97 120.94 C 52.18 121.66 53.37 122.41 54.54 123.18 L 54.44 124.05 L 54.37 124.39 C 52.56 126.73 50.61 128.97 48.55 131.09 C 48.35 128.38 48.37 125.67 48.44 122.96 Z" />
<path fill="#ecedee" opacity="1.00" d=" M 58.12 177.96 C 58.50 178.03 59.26 178.19 59.64 178.27 C 60.60 179.43 61.48 180.66 62.35 181.89 C 60.06 182.80 57.80 183.79 55.66 185.02 L 55.19 185.26 L 52.85 185.90 C 54.30 183.05 56.05 180.38 58.12 177.96 Z" />
</g>
<g id="#f6da7dfe">
<path fill="#f6da7d" opacity="1.00" d=" M 156.38 122.65 C 161.07 121.97 162.34 127.78 165.23 130.34 C 163.36 129.87 161.49 129.39 159.77 128.52 C 161.94 126.86 158.68 125.45 157.48 127.13 C 157.42 126.88 157.30 126.38 157.24 126.13 C 157.02 125.26 156.59 123.52 156.38 122.65 Z" />
</g>
<g id="#d39f5cff">
<path fill="#d39f5c" opacity="1.00" d=" M 165.29 128.13 C 165.95 126.99 166.65 125.88 167.37 124.78 C 168.05 126.48 168.77 128.17 169.41 129.88 L 169.57 130.43 L 168.65 130.45 C 167.96 130.47 166.58 130.51 165.89 130.53 C 165.74 129.93 165.44 128.73 165.29 128.13 Z" />
</g>
<g id="#feefadff">
<path fill="#feefad" opacity="1.00" d=" M 157.48 127.13 C 158.68 125.45 161.94 126.86 159.77 128.52 C 159.20 128.17 158.06 127.48 157.48 127.13 Z" />
</g>
<g id="#bdc2cdff">
<path fill="#bdc2cd" opacity="1.00" d=" M 43.69 126.52 C 46.11 129.11 44.17 132.54 43.41 135.37 C 43.78 135.77 44.53 136.57 44.90 136.97 C 44.51 137.12 43.71 137.43 43.31 137.58 C 43.05 137.60 42.53 137.64 42.27 137.66 L 41.63 136.83 C 42.45 133.42 43.09 129.97 43.69 126.52 Z" />
<path fill="#bdc2cd" opacity="1.00" d=" M 118.06 181.24 C 119.48 182.82 120.55 184.67 121.40 186.61 C 120.57 187.28 119.76 187.98 118.99 188.72 C 118.52 189.20 117.58 190.16 117.11 190.65 C 116.48 187.45 116.78 184.23 118.06 181.24 Z" />
</g>
<g id="#56342c9b">
<path fill="#56342c" opacity="0.61" d=" M 157.48 127.13 C 158.06 127.48 159.20 128.17 159.77 128.52 C 161.49 129.39 163.36 129.87 165.23 130.34 L 165.89 130.53 C 165.27 131.72 164.66 132.92 164.08 134.13 C 164.19 133.39 164.41 131.91 164.52 131.17 C 162.09 130.11 158.79 129.75 157.48 127.13 Z" />
</g>
<g id="#c4a897ff">
<path fill="#c4a897" opacity="1.00" d=" M 96.23 141.35 C 97.82 138.02 98.44 134.33 99.61 130.85 C 100.67 132.39 101.72 133.93 102.72 135.51 C 103.07 138.31 102.99 141.17 102.37 143.94 C 100.90 149.84 101.67 155.95 101.57 161.95 C 93.92 161.20 86.16 158.61 80.81 152.87 C 80.01 150.74 79.04 148.69 77.89 146.73 C 84.35 147.08 91.34 145.87 96.23 141.35 Z" />
</g>
<g id="#26110ec2">
<path fill="#26110e" opacity="0.76" d=" M 121.95 130.83 C 123.22 131.64 123.59 132.71 123.04 134.04 C 121.91 133.25 121.55 132.18 121.95 130.83 Z" />
</g>
<g id="#e07e6eff">
<path fill="#e07e6e" opacity="1.00" d=" M 103.67 140.19 C 106.76 136.04 111.99 130.58 117.61 133.51 C 122.55 138.23 123.73 145.46 124.20 151.99 C 124.99 156.78 123.30 161.64 120.61 165.56 C 119.07 166.92 116.91 167.27 115.06 168.06 C 114.06 167.31 113.02 166.62 111.99 165.94 C 112.38 166.99 112.78 168.05 113.18 169.11 C 110.91 168.01 108.41 167.58 105.91 167.86 C 104.34 166.20 102.82 164.30 102.60 161.94 C 101.70 154.71 101.76 147.26 103.67 140.19 M 110.37 157.87 C 109.49 160.77 109.94 163.87 112.98 165.17 C 114.93 162.46 113.34 158.94 110.37 157.87 Z" />
</g>
<g id="#e4e5e9ff">
<path fill="#e4e5e9" opacity="1.00" d=" M 143.99 135.76 C 144.36 135.32 145.09 134.45 145.46 134.02 C 146.01 135.77 146.64 137.49 147.24 139.23 C 146.98 139.44 146.47 139.86 146.21 140.06 C 144.44 141.55 142.76 143.32 140.32 143.62 C 141.37 140.93 142.31 138.13 143.99 135.76 Z" />
<path fill="#e4e5e9" opacity="1.00" d=" M 125.94 185.96 C 125.08 183.86 126.67 182.15 127.80 180.57 C 128.78 182.06 130.79 183.19 130.80 185.17 C 130.58 187.11 129.73 188.91 129.16 190.76 C 128.59 189.95 127.47 188.32 126.91 187.50 C 126.66 187.12 126.18 186.35 125.94 185.96 Z" />
</g>
<g id="#fbfbfcff">
<path fill="#fbfbfc" opacity="1.00" d=" M 135.15 136.82 C 134.98 135.42 135.54 134.62 136.84 134.41 C 137.59 134.50 139.11 134.70 139.86 134.79 C 138.82 137.81 137.63 140.77 136.24 143.64 C 135.83 141.38 135.40 139.11 135.15 136.82 Z" />
</g>
<g id="#3d201ab8">
<path fill="#3d201a" opacity="0.72" d=" M 162.30 136.24 L 163.21 136.32 C 162.88 136.73 162.21 137.55 161.88 137.96 L 161.62 137.08 L 162.30 136.24 Z" />
</g>
<g id="#df7e6eff">
<path fill="#df7e6e" opacity="1.00" d=" M 67.72 138.22 C 68.37 137.44 69.67 135.89 70.32 135.12 C 71.14 139.45 72.93 143.51 75.19 147.27 C 73.28 149.73 71.65 152.39 69.95 155.00 C 67.31 158.97 63.13 161.45 59.48 164.36 C 58.93 163.32 58.10 162.58 56.98 162.15 C 56.42 161.82 55.28 161.17 54.71 160.84 C 54.58 160.32 54.32 159.27 54.19 158.74 C 55.79 158.74 57.39 158.74 59.00 158.74 C 58.59 156.31 57.78 153.95 56.12 152.08 C 56.75 150.98 57.41 149.89 58.10 148.82 C 58.32 148.60 58.77 148.17 58.99 147.95 C 60.30 146.96 61.39 145.72 62.14 144.26 C 62.59 143.36 63.23 142.66 64.07 142.15 C 65.02 141.73 65.72 141.07 66.19 140.15 C 66.67 139.48 67.18 138.84 67.72 138.22 Z" />
</g>
<g id="#2d1713bf">
<path fill="#2d1713" opacity="0.75" d=" M 160.36 139.24 L 161.27 139.35 C 160.93 139.75 160.24 140.55 159.90 140.96 L 159.65 140.06 L 160.36 139.24 Z" />
</g>
<g id="#180d0b82">
<path fill="#180d0b" opacity="0.51" d=" M 64.07 142.15 C 63.72 140.37 64.43 139.70 66.19 140.15 C 65.72 141.07 65.02 141.73 64.07 142.15 Z" />
</g>
<g id="#4d2822cf">
<path fill="#4d2822" opacity="0.81" d=" M 155.41 145.18 C 154.89 143.55 157.66 141.47 159.17 142.16 C 158.54 143.80 157.07 144.81 155.41 145.18 Z" />
</g>
<g id="#a95950ff">
<path fill="#a95950" opacity="1.00" d=" M 152.43 148.59 C 156.68 146.76 160.66 144.38 164.84 142.41 C 164.71 143.00 164.46 144.18 164.33 144.77 C 163.91 145.13 163.07 145.87 162.65 146.23 C 160.50 147.89 158.73 149.97 156.91 151.97 C 154.58 154.58 151.33 156.05 148.19 157.42 C 142.80 159.72 136.81 158.77 131.13 158.67 C 131.36 154.26 131.59 149.84 131.32 145.43 C 134.63 148.33 139.17 148.13 143.29 148.27 C 145.23 148.31 147.18 148.23 149.13 148.17 C 145.93 149.56 142.36 149.16 138.97 149.41 C 143.44 149.77 148.20 150.52 152.43 148.59 Z" />
</g>
<g id="#331c18a2">
<path fill="#331c18" opacity="0.64" d=" M 58.99 147.95 C 57.91 146.31 60.39 143.38 62.14 144.26 C 61.39 145.72 60.30 146.96 58.99 147.95 Z" />
</g>
<g id="#df9f99ff">
<path fill="#df9f99" opacity="1.00" d=" M 56.12 152.08 C 57.78 153.95 58.59 156.31 59.00 158.74 C 57.39 158.74 55.79 158.74 54.19 158.74 C 53.89 156.33 54.91 154.10 56.12 152.08 Z" />
</g>
<g id="#1816148c">
<path fill="#181614" opacity="0.55" d=" M 155.77 156.83 C 156.23 155.90 156.92 155.21 157.85 154.75 C 158.23 156.53 157.54 157.23 155.77 156.83 Z" />
</g>
<g id="#a69389ff">
<path fill="#a69389" opacity="1.00" d=" M 130.41 158.97 C 137.57 160.20 145.03 159.72 151.75 156.80 C 151.79 157.83 151.84 158.86 151.89 159.90 L 151.91 160.27 C 151.71 160.37 151.30 160.57 151.10 160.66 C 144.81 164.14 137.71 165.87 130.52 165.57 C 130.48 163.37 130.44 161.17 130.41 158.97 Z" />
</g>
<g id="#e5a199ff">
<path fill="#e5a199" opacity="1.00" d=" M 110.37 157.87 C 113.34 158.94 114.93 162.46 112.98 165.17 C 109.94 163.87 109.49 160.77 110.37 157.87 Z" />
</g>
<g id="#7e4239ff">
<path fill="#7e4239" opacity="1.00" d=" M 56.98 162.15 C 58.10 162.58 58.93 163.32 59.48 164.36 C 58.04 165.96 56.45 163.62 56.98 162.15 Z" />
</g>
<g id="#6c372fff">
<path fill="#6c372f" opacity="1.00" d=" M 63.24 164.25 C 63.75 164.74 63.75 164.74 63.24 164.25 Z" />
</g>
<g id="#8f493dff">
<path fill="#8f493d" opacity="1.00" d=" M 111.99 165.94 C 113.02 166.62 114.06 167.31 115.06 168.06 C 115.58 169.00 116.08 169.96 116.57 170.94 C 115.44 170.32 114.32 169.69 113.18 169.11 C 112.78 168.05 112.38 166.99 111.99 165.94 Z" />
</g>
<g id="#e28070ff">
<path fill="#e28070" opacity="1.00" d=" M 57.24 172.05 C 57.75 171.35 58.26 170.66 58.78 169.97 C 59.36 171.49 60.60 172.92 60.54 174.61 C 59.89 175.82 58.98 176.88 58.12 177.96 C 56.02 177.60 54.27 175.64 56.08 173.75 C 56.37 173.32 56.95 172.48 57.24 172.05 Z" />
</g>
<g id="#e2806fff">
<path fill="#e2806f" opacity="1.00" d=" M 108.86 176.98 C 109.53 176.07 110.20 175.16 110.84 174.24 C 112.42 177.22 115.23 180.01 114.60 183.68 C 114.15 183.97 113.25 184.55 112.80 184.84 C 110.12 183.76 109.40 180.26 107.55 178.15 C 107.88 177.86 108.53 177.27 108.86 176.98 Z" />
</g>
<g id="#96493cff">
<path fill="#96493c" opacity="1.00" d=" M 121.18 176.43 C 122.29 175.69 123.41 175.64 124.54 176.30 C 125.12 178.32 119.72 178.72 121.18 176.43 Z" />
</g>
<g id="#1313127b">
<path fill="#131312" opacity="0.48" d=" M 48.41 177.28 L 49.41 176.86 L 50.19 177.37 C 49.70 177.57 48.73 177.98 48.24 178.18 L 48.41 177.28 Z" />
</g>
<g id="#281310d1">
<path fill="#281310" opacity="0.82" d=" M 71.04 180.12 C 71.45 179.79 72.28 179.14 72.69 178.81 L 72.76 179.72 L 71.91 180.40 L 71.04 180.12 Z" />
</g>
<g id="#0202025d">
<path fill="#020202" opacity="0.36" d=" M 104.67 188.26 C 103.40 190.95 101.53 185.02 104.26 185.30 C 104.40 186.29 104.53 187.27 104.67 188.26 Z" />
</g>
</svg>
