<?xml version="1.0" encoding="UTF-8" ?>
<!DOCTYPE svg PUBLIC "-//W3C//DTD SVG 1.1//EN" "http://www.w3.org/Graphics/SVG/1.1/DTD/svg11.dtd">
<svg width="215pt" height="215pt" viewBox="0 0 215 215" version="1.1" xmlns="http://www.w3.org/2000/svg">
<g id="#030203ff">
<path fill="#030203" opacity="1.00" d=" M 80.94 23.92 C 87.37 22.07 94.31 21.59 100.81 23.37 C 103.01 23.99 105.41 24.46 107.08 26.16 C 100.83 23.75 94.01 22.09 87.30 23.23 C 86.18 23.46 85.07 23.71 83.97 23.99 C 80.48 24.76 77.10 25.92 73.79 27.23 C 75.57 25.12 78.44 24.68 80.94 23.92 Z" />
<path fill="#030203" opacity="1.00" d=" M 107.28 26.31 C 112.72 27.31 117.41 31.60 120.28 36.22 C 119.17 35.10 118.04 34.00 116.91 32.90 C 114.40 30.20 111.03 28.65 107.87 26.88 L 107.28 26.31 Z" />
<path fill="#030203" opacity="1.00" d=" M 92.87 46.91 C 94.20 43.43 96.39 40.19 99.77 38.44 C 101.25 38.40 102.73 38.34 104.21 38.26 C 105.70 39.87 107.01 41.64 108.15 43.52 C 108.11 43.73 108.02 44.14 107.98 44.35 C 107.56 45.98 107.20 47.63 106.95 49.30 C 106.50 53.70 105.00 57.85 103.59 62.01 L 103.81 62.49 C 100.03 61.69 96.01 61.89 92.39 60.43 C 91.12 59.80 91.42 58.24 91.29 57.09 C 91.15 53.62 91.96 50.22 92.87 46.91 M 101.07 39.11 C 97.66 39.18 95.95 44.13 99.18 45.85 C 101.70 47.94 104.67 45.67 105.56 43.08 C 104.91 41.12 103.71 38.27 101.07 39.11 M 102.77 51.71 C 102.23 54.46 100.24 57.63 97.17 57.64 C 95.33 56.41 92.06 55.43 92.34 58.84 C 95.02 61.60 99.56 60.97 103.14 61.34 C 104.13 57.87 105.70 54.52 105.63 50.84 C 104.91 51.06 103.48 51.50 102.77 51.71 Z" />
<path fill="#030203" opacity="1.00" d=" M 123.72 40.91 C 128.65 47.01 129.20 55.45 128.86 63.01 C 128.43 66.22 127.96 69.75 125.75 72.29 C 128.65 64.43 129.30 55.66 126.45 47.69 C 125.71 45.37 124.70 43.14 123.72 40.91 Z" />
<path fill="#030203" opacity="1.00" d=" M 60.05 46.69 C 62.37 47.00 61.30 49.55 61.25 51.11 C 60.63 53.54 60.12 56.01 59.22 58.36 C 57.92 59.53 56.47 58.14 55.15 57.77 C 56.76 54.76 55.46 51.03 57.45 48.21 C 57.31 51.69 55.75 55.65 58.21 58.68 C 59.87 54.79 57.39 50.29 60.05 46.69 Z" />
<path fill="#030203" opacity="1.00" d=" M 105.68 61.47 C 106.19 59.84 106.80 58.24 107.57 56.71 C 108.50 58.38 108.60 60.71 106.79 61.84 C 106.51 61.75 105.96 61.57 105.68 61.47 Z" />
<path fill="#030203" opacity="1.00" d=" M 53.63 69.53 C 51.92 66.63 51.22 62.21 54.04 59.77 C 53.43 61.65 52.96 63.57 52.50 65.50 C 53.66 65.61 54.82 65.71 55.98 65.82 C 57.56 67.43 59.08 69.14 60.97 70.42 C 65.92 71.48 69.55 65.92 74.44 66.85 C 80.37 67.69 86.32 68.27 92.26 68.94 C 98.90 70.52 106.00 70.93 112.40 68.19 C 108.05 71.64 102.12 70.95 96.95 70.47 C 90.27 69.45 83.53 68.94 76.85 67.93 C 71.32 66.47 66.77 70.85 61.57 71.84 C 59.04 69.56 56.42 67.32 53.33 65.81 C 53.40 66.74 53.55 68.60 53.63 69.53 Z" />
<path fill="#030203" opacity="1.00" d=" M 37.45 105.10 L 38.39 105.17 C 37.32 106.77 36.26 108.39 35.20 110.01 C 37.29 110.71 39.40 111.38 41.38 112.38 C 38.74 112.61 36.22 111.85 34.16 110.19 C 35.22 108.47 36.27 106.74 37.45 105.10 Z" />
<path fill="#030203" opacity="1.00" d=" M 97.08 118.11 C 98.53 115.21 100.91 112.98 103.56 111.18 C 105.17 113.63 106.40 116.40 106.11 119.41 C 105.61 117.71 105.03 116.03 104.41 114.37 C 104.07 113.94 103.39 113.08 103.05 112.64 C 100.98 114.37 99.15 116.37 97.08 118.11 Z" />
<path fill="#030203" opacity="1.00" d=" M 148.68 141.70 C 155.82 131.45 172.01 126.39 182.22 135.09 C 181.14 134.59 180.04 134.12 178.94 133.67 C 172.13 130.34 164.16 131.50 157.53 134.66 C 154.21 136.59 151.62 139.48 149.13 142.34 L 148.68 141.70 Z" />
<path fill="#030203" opacity="1.00" d=" M 45.38 157.92 C 46.60 151.45 49.30 144.91 54.09 140.30 C 53.75 140.87 53.07 142.03 52.72 142.61 C 51.10 145.48 49.42 148.34 48.16 151.39 C 47.42 153.41 46.79 155.47 46.47 157.60 C 45.62 161.78 45.75 166.08 46.46 170.27 C 46.13 170.50 45.46 170.96 45.12 171.19 C 43.34 172.48 41.79 174.04 40.27 175.61 C 42.92 176.14 45.16 175.20 46.97 173.37 L 47.05 173.47 C 45.98 175.54 44.84 177.58 43.77 179.65 C 44.79 179.53 46.84 179.30 47.87 179.18 C 49.05 179.00 50.22 178.78 51.39 178.52 C 51.53 178.46 51.81 178.36 51.96 178.31 C 51.72 179.99 51.49 181.67 51.25 183.36 C 52.86 182.66 54.45 181.95 56.08 181.31 C 58.54 180.37 61.07 179.65 63.62 179.01 C 59.52 181.47 54.82 183.08 50.16 184.14 C 50.40 182.56 50.67 180.99 50.95 179.42 C 48.05 179.90 45.15 180.36 42.25 180.84 C 42.80 179.38 43.37 177.92 43.93 176.46 C 42.61 175.90 40.26 176.98 39.47 175.41 C 41.05 173.29 43.23 171.74 45.07 169.86 C 45.61 165.95 44.56 161.87 45.38 157.92 Z" />
<path fill="#030203" opacity="1.00" d=" M 187.08 141.75 C 190.49 146.10 189.95 151.98 189.27 157.11 C 188.17 162.28 185.50 167.16 181.45 170.62 C 181.33 170.52 181.08 170.32 180.96 170.22 C 188.80 163.25 191.07 151.33 187.08 141.75 Z" />
<path fill="#030203" opacity="1.00" d=" M 131.09 145.04 C 131.39 144.80 132.00 144.33 132.30 144.09 C 132.83 147.80 133.70 151.45 134.70 155.06 L 135.65 153.86 C 136.28 153.31 136.92 152.78 137.58 152.27 C 138.14 152.55 139.27 153.10 139.83 153.38 C 138.51 154.64 137.15 155.85 135.70 156.97 C 135.30 156.97 134.51 156.98 134.12 156.99 C 133.89 156.33 133.44 155.02 133.21 154.36 C 132.19 151.66 131.04 149.00 130.26 146.22 C 130.77 146.79 131.80 147.92 132.31 148.49 C 131.91 147.33 131.50 146.19 131.09 145.04 Z" />
<path fill="#030203" opacity="1.00" d=" M 160.98 151.98 C 164.51 147.28 172.97 146.44 176.39 151.65 C 172.87 148.69 167.75 147.98 163.82 150.59 C 158.63 153.54 158.46 160.94 161.02 165.68 C 165.59 170.90 173.69 174.51 180.27 170.89 C 177.02 173.98 172.60 176.00 168.13 176.33 C 170.21 175.41 172.27 174.41 174.32 173.43 C 169.28 172.98 164.17 171.05 160.98 166.95 C 157.65 162.70 157.44 156.18 160.98 151.98 Z" />
<path fill="#030203" opacity="1.00" d=" M 135.77 173.05 L 136.68 173.11 C 143.16 174.25 149.48 176.31 156.07 176.82 C 160.10 177.11 164.12 176.60 168.13 176.33 C 166.11 177.87 163.39 177.39 161.03 177.65 C 152.63 178.05 144.51 175.47 136.39 173.70 C 136.10 177.50 136.33 181.31 136.17 185.12 L 135.88 184.10 C 135.43 180.44 135.52 176.73 135.77 173.05 Z" />
<path fill="#030203" opacity="1.00" d=" M 136.74 186.74 C 138.25 187.52 138.46 189.17 137.51 190.48 C 134.61 191.05 131.88 188.32 129.00 189.53 C 127.56 190.53 126.54 192.16 124.88 192.82 C 122.44 193.24 120.29 191.45 118.84 189.69 C 120.50 190.59 122.18 191.46 123.91 192.22 C 124.31 191.88 125.12 191.22 125.53 190.89 C 127.11 189.47 128.98 188.28 131.20 188.47 C 133.30 188.83 135.40 189.23 137.51 189.55 C 137.32 188.85 136.93 187.44 136.74 186.74 Z" />
</g>
<g id="#8fc4d2ff">
<path fill="#8fc4d2" opacity="1.00" d=" M 87.30 23.23 C 94.01 22.09 100.83 23.75 107.08 26.16 C 107.13 26.20 107.23 26.27 107.28 26.31 L 107.87 26.88 C 108.13 27.46 108.65 28.61 108.91 29.19 C 110.22 30.24 111.65 31.16 113.14 31.94 C 112.64 33.15 112.14 34.35 111.64 35.55 C 110.38 35.46 109.13 35.36 107.88 35.27 C 108.16 37.61 108.47 39.96 108.38 42.33 L 108.15 43.52 C 107.01 41.64 105.70 39.87 104.21 38.26 C 102.73 38.34 101.25 38.40 99.77 38.44 C 99.51 37.73 99.00 36.30 98.75 35.58 C 98.59 35.16 98.27 34.30 98.11 33.87 C 96.86 35.24 93.59 36.22 94.50 38.55 C 90.99 40.29 91.24 44.37 91.04 47.71 C 91.50 47.51 92.41 47.11 92.87 46.91 C 91.96 50.22 91.15 53.62 91.29 57.09 C 91.42 58.24 91.12 59.80 92.39 60.43 C 96.01 61.89 100.03 61.69 103.81 62.49 C 104.22 63.53 105.61 65.28 104.06 66.07 C 100.79 68.82 96.27 68.60 92.26 68.94 C 86.32 68.27 80.37 67.69 74.44 66.85 C 69.55 65.92 65.92 71.48 60.97 70.42 C 59.08 69.14 57.56 67.43 55.98 65.82 C 54.82 65.71 53.66 65.61 52.50 65.50 C 52.96 63.57 53.43 61.65 54.04 59.77 C 54.32 59.27 54.87 58.27 55.15 57.77 C 56.47 58.14 57.92 59.53 59.22 58.36 C 60.12 56.01 60.63 53.54 61.25 51.11 C 62.41 47.00 63.63 42.87 63.76 38.57 C 63.15 38.29 61.93 37.72 61.32 37.43 L 61.57 36.59 C 63.23 35.03 64.94 33.53 66.76 32.15 C 68.12 33.49 69.16 35.34 70.96 36.15 C 76.25 36.62 81.03 33.20 84.27 29.30 C 85.62 27.51 87.59 25.69 87.30 23.23 M 65.43 36.31 C 64.49 37.32 64.36 38.39 65.02 39.54 C 66.96 40.18 67.89 34.97 65.43 36.31 M 56.96 62.21 C 55.47 65.21 60.29 62.30 56.96 62.21 M 66.08 63.11 C 65.53 64.53 65.98 64.97 67.41 64.40 C 67.95 62.98 67.51 62.55 66.08 63.11 Z" />
</g>
<g id="#b8dee7ff">
<path fill="#b8dee7" opacity="1.00" d=" M 83.97 23.99 C 85.07 23.71 86.18 23.46 87.30 23.23 C 87.59 25.69 85.62 27.51 84.27 29.30 C 81.03 33.20 76.25 36.62 70.96 36.15 C 69.16 35.34 68.12 33.49 66.76 32.15 C 67.77 31.38 68.80 30.64 69.84 29.89 C 70.01 31.28 70.18 32.67 70.35 34.06 C 74.33 33.90 77.88 31.52 78.53 27.41 C 80.50 26.56 82.65 25.82 83.97 23.99 Z" />
<path fill="#b8dee7" opacity="1.00" d=" M 47.05 173.47 C 47.98 173.57 48.91 173.68 49.85 173.80 C 48.76 174.93 47.66 176.06 46.57 177.19 C 46.90 177.69 47.55 178.68 47.87 179.18 C 46.84 179.30 44.79 179.53 43.77 179.65 C 44.84 177.58 45.98 175.54 47.05 173.47 Z" />
</g>
<g id="#d0e4ebff">
<path fill="#d0e4eb" opacity="1.00" d=" M 73.79 27.23 C 77.10 25.92 80.48 24.76 83.97 23.99 C 82.65 25.82 80.50 26.56 78.53 27.41 C 77.88 31.52 74.33 33.90 70.35 34.06 C 70.18 32.67 70.01 31.28 69.84 29.89 C 71.06 29.02 72.30 28.17 73.55 27.34 C 73.61 27.31 73.73 27.26 73.79 27.23 Z" />
</g>
<g id="#1e292dc4">
<path fill="#1e292d" opacity="0.77" d=" M 67.93 29.90 C 69.65 28.80 71.31 26.99 73.55 27.34 C 72.30 28.17 71.06 29.02 69.84 29.89 C 68.80 30.64 67.77 31.38 66.76 32.15 C 64.94 33.53 63.23 35.03 61.57 36.59 C 62.59 33.50 65.53 31.81 67.93 29.90 Z" />
</g>
<g id="#9ad4e2ff">
<path fill="#9ad4e2" opacity="1.00" d=" M 107.87 26.88 C 111.03 28.65 114.40 30.20 116.91 32.90 C 115.64 32.61 114.38 32.29 113.14 31.94 C 111.65 31.16 110.22 30.24 108.91 29.19 C 108.65 28.61 108.13 27.46 107.87 26.88 Z" />
</g>
<g id="#77aebeff">
<path fill="#77aebe" opacity="1.00" d=" M 113.14 31.94 C 114.38 32.29 115.64 32.61 116.91 32.90 C 118.04 34.00 119.17 35.10 120.28 36.22 C 120.43 36.45 120.72 36.91 120.86 37.15 C 121.34 38.24 122.09 39.17 122.97 39.97 C 123.16 40.21 123.53 40.68 123.72 40.91 C 124.70 43.14 125.71 45.37 126.45 47.69 C 126.35 48.24 126.15 49.33 126.05 49.88 C 123.94 47.50 121.76 45.21 119.41 43.07 C 119.60 45.09 119.81 47.10 120.02 49.11 C 118.81 47.83 117.59 46.56 116.37 45.29 C 114.07 48.95 111.72 52.59 109.21 56.11 C 109.24 52.15 109.12 48.17 107.98 44.35 C 108.02 44.14 108.11 43.73 108.15 43.52 L 108.38 42.33 C 108.47 39.96 108.16 37.61 107.88 35.27 C 109.13 35.36 110.38 35.46 111.64 35.55 C 112.14 34.35 112.64 33.15 113.14 31.94 Z" />
</g>
<g id="#60868fff">
<path fill="#60868f" opacity="1.00" d=" M 94.50 38.55 C 93.59 36.22 96.86 35.24 98.11 33.87 C 98.27 34.30 98.59 35.16 98.75 35.58 C 97.34 36.58 95.92 37.57 94.50 38.55 Z" />
</g>
<g id="#668e98ff">
<path fill="#668e98" opacity="1.00" d=" M 65.43 36.31 C 67.89 34.97 66.96 40.18 65.02 39.54 C 64.36 38.39 64.49 37.32 65.43 36.31 Z" />
</g>
<g id="#b0d3dbff">
<path fill="#b0d3db" opacity="1.00" d=" M 94.50 38.55 C 95.92 37.57 97.34 36.58 98.75 35.58 C 99.00 36.30 99.51 37.73 99.77 38.44 C 96.39 40.19 94.20 43.43 92.87 46.91 C 92.41 47.11 91.50 47.51 91.04 47.71 C 91.24 44.37 90.99 40.29 94.50 38.55 Z" />
</g>
<g id="#587881f9">
<path fill="#587881" opacity="0.98" d=" M 60.44 37.03 C 60.66 37.13 61.10 37.33 61.32 37.43 C 61.93 37.72 63.15 38.29 63.76 38.57 C 63.63 42.87 62.41 47.00 61.25 51.11 C 61.30 49.55 62.37 47.00 60.05 46.69 L 60.04 46.16 C 60.35 46.06 60.99 45.85 61.31 45.75 C 61.80 44.02 62.01 42.23 62.26 40.45 C 62.51 40.10 63.02 39.39 63.27 39.04 C 62.70 39.30 61.58 39.83 61.02 40.09 C 60.90 39.47 60.66 38.21 60.54 37.58 L 60.44 37.03 Z" />
</g>
<g id="#111a1c93">
<path fill="#111a1c" opacity="0.58" d=" M 120.86 37.15 C 122.37 36.04 124.19 38.76 122.97 39.97 C 122.09 39.17 121.34 38.24 120.86 37.15 Z" />
</g>
<g id="#222326d1">
<path fill="#222326" opacity="0.82" d=" M 60.54 37.58 C 60.66 38.21 60.90 39.47 61.02 40.09 C 61.58 39.83 62.70 39.30 63.27 39.04 C 63.02 39.39 62.51 40.10 62.26 40.45 C 60.40 41.85 59.67 43.90 60.04 46.16 C 59.61 46.26 58.77 46.45 58.35 46.55 C 58.87 43.51 60.31 40.69 60.54 37.58 Z" />
</g>
<g id="#ffffffff">
<path fill="#ffffff" opacity="1.00" d=" M 101.07 39.11 C 103.71 38.27 104.91 41.12 105.56 43.08 C 104.67 45.67 101.70 47.94 99.18 45.85 C 95.95 44.13 97.66 39.18 101.07 39.11 Z" />
<path fill="#ffffff" opacity="1.00" d=" M 106.95 49.30 C 107.07 51.78 107.29 54.25 107.57 56.71 C 106.80 58.24 106.19 59.84 105.68 61.47 C 105.16 61.61 104.11 61.87 103.59 62.01 C 105.00 57.85 106.50 53.70 106.95 49.30 Z" />
<path fill="#ffffff" opacity="1.00" d=" M 129.97 105.72 C 131.00 111.75 130.80 117.99 129.30 123.92 C 127.55 130.93 128.52 138.36 131.09 145.04 C 131.50 146.19 131.91 147.33 132.31 148.49 C 131.80 147.92 130.77 146.79 130.26 146.22 C 129.55 145.38 128.86 144.52 128.11 143.72 C 128.65 139.04 126.14 134.69 126.50 130.01 C 126.36 125.50 127.62 121.16 129.13 116.96 C 129.93 114.97 129.12 112.87 128.74 110.89 C 129.20 109.18 129.56 107.44 129.97 105.72 Z" />
</g>
<g id="#dbd8d7ff">
<path fill="#dbd8d7" opacity="1.00" d=" M 60.04 46.16 C 59.67 43.90 60.40 41.85 62.26 40.45 C 62.01 42.23 61.80 44.02 61.31 45.75 C 60.99 45.85 60.35 46.06 60.04 46.16 Z" />
</g>
<g id="#659eb0ff">
<path fill="#659eb0" opacity="1.00" d=" M 119.41 43.07 C 121.76 45.21 123.94 47.50 126.05 49.88 C 126.15 49.33 126.35 48.24 126.45 47.69 C 129.30 55.66 128.65 64.43 125.75 72.29 C 125.67 72.53 125.52 73.01 125.45 73.25 L 125.06 73.74 C 120.08 80.86 113.50 87.34 105.06 90.07 C 93.98 93.21 81.94 91.26 71.67 86.39 C 73.43 85.76 75.20 85.12 76.97 84.49 C 74.68 82.92 72.49 81.22 70.12 79.77 C 67.65 78.11 64.22 79.20 61.91 77.22 C 60.83 76.44 59.81 75.59 58.77 74.76 L 58.54 76.33 L 58.35 76.04 C 56.95 73.80 55.40 71.66 53.64 69.69 L 53.63 69.53 C 53.55 68.60 53.40 66.74 53.33 65.81 C 56.42 67.32 59.04 69.56 61.57 71.84 C 66.77 70.85 71.32 66.47 76.85 67.93 C 83.53 68.94 90.27 69.45 96.95 70.47 C 102.12 70.95 108.05 71.64 112.40 68.19 C 106.00 70.93 98.90 70.52 92.26 68.94 C 96.27 68.60 100.79 68.82 104.06 66.07 C 105.61 65.28 104.22 63.53 103.81 62.49 L 103.59 62.01 C 104.11 61.87 105.16 61.61 105.68 61.47 C 105.96 61.57 106.51 61.75 106.79 61.84 C 108.60 60.71 108.50 58.38 107.57 56.71 C 107.29 54.25 107.07 51.78 106.95 49.30 C 107.20 47.63 107.56 45.98 107.98 44.35 C 109.12 48.17 109.24 52.15 109.21 56.11 C 111.72 52.59 114.07 48.95 116.37 45.29 C 117.59 46.56 118.81 47.83 120.02 49.11 C 119.81 47.10 119.60 45.09 119.41 43.07 Z" />
<path fill="#659eb0" opacity="1.00" d=" M 27.66 104.54 C 28.28 104.40 29.53 104.11 30.15 103.96 C 32.58 104.35 35.01 104.78 37.45 105.10 C 36.27 106.74 35.22 108.47 34.16 110.19 C 36.22 111.85 38.74 112.61 41.38 112.38 C 45.47 114.87 50.30 115.16 54.96 115.39 C 54.58 116.39 54.43 118.05 52.95 117.93 C 44.34 119.29 35.56 118.26 27.07 116.58 C 29.18 115.93 29.70 113.66 27.93 112.24 L 28.15 112.09 C 31.92 110.63 29.30 106.67 27.66 104.54 Z" />
</g>
<g id="#c088a2ff">
<path fill="#c088a2" opacity="1.00" d=" M 58.35 46.55 C 58.77 46.45 59.61 46.26 60.04 46.16 L 60.05 46.69 C 57.39 50.29 59.87 54.79 58.21 58.68 C 55.75 55.65 57.31 51.69 57.45 48.21 C 57.52 47.50 57.82 46.95 58.35 46.55 Z" />
<path fill="#c088a2" opacity="1.00" d=" M 102.77 51.71 C 103.48 51.50 104.91 51.06 105.63 50.84 C 105.70 54.52 104.13 57.87 103.14 61.34 C 99.56 60.97 95.02 61.60 92.34 58.84 C 92.06 55.43 95.33 56.41 97.17 57.64 C 100.24 57.63 102.23 54.46 102.77 51.71 Z" />
</g>
<g id="#899da3ff">
<path fill="#899da3" opacity="1.00" d=" M 56.96 62.21 C 60.29 62.30 55.47 65.21 56.96 62.21 Z" />
</g>
<g id="#55777fff">
<path fill="#55777f" opacity="1.00" d=" M 66.08 63.11 C 67.51 62.55 67.95 62.98 67.41 64.40 C 65.98 64.97 65.53 64.53 66.08 63.11 Z" />
</g>
<g id="#131d20aa">
<path fill="#131d20" opacity="0.67" d=" M 53.64 69.69 C 55.40 71.66 56.95 73.80 58.35 76.04 C 55.69 74.98 54.64 72.13 53.64 69.69 Z" />
</g>
<g id="#3e3a33ff">
<path fill="#3e3a33" opacity="1.00" d=" M 105.06 90.07 C 113.50 87.34 120.08 80.86 125.06 73.74 C 125.35 75.56 125.61 77.38 125.85 79.21 C 126.04 79.49 126.42 80.03 126.61 80.31 C 125.91 81.30 125.25 82.31 124.72 83.40 C 124.88 85.94 124.43 88.79 125.77 91.07 C 128.89 92.80 132.28 94.03 135.20 96.12 C 136.39 97.56 137.61 98.98 138.87 100.37 C 138.91 99.97 138.99 99.18 139.03 98.78 L 139.13 97.86 C 140.87 102.78 143.17 107.59 143.91 112.80 C 145.70 126.16 143.36 139.83 137.82 152.07 L 137.58 152.27 C 136.92 152.78 136.28 153.31 135.65 153.86 C 139.19 147.26 141.37 140.04 142.93 132.75 C 139.63 136.75 136.57 141.04 132.30 144.09 C 132.00 144.33 131.39 144.80 131.09 145.04 C 128.52 138.36 127.55 130.93 129.30 123.92 C 130.80 117.99 131.00 111.75 129.97 105.72 C 129.56 107.44 129.20 109.18 128.74 110.89 C 127.30 114.78 124.53 117.92 122.50 121.48 C 119.86 127.59 120.67 134.71 123.26 140.68 C 124.66 142.00 126.47 142.75 128.11 143.72 C 128.86 144.52 129.55 145.38 130.26 146.22 L 129.63 147.15 C 126.43 143.27 121.22 140.64 116.15 142.19 C 111.16 143.01 107.40 146.80 104.95 151.00 C 102.80 154.65 100.12 158.80 101.29 163.23 C 102.67 167.29 105.15 170.89 106.45 175.00 C 107.16 177.09 107.87 179.19 108.61 181.27 C 109.02 183.94 109.10 186.63 109.19 189.33 C 110.93 188.91 112.67 188.47 114.44 188.14 C 115.36 188.32 116.27 188.53 117.18 188.76 C 114.33 189.25 111.50 189.83 108.69 190.50 C 108.36 183.71 106.60 177.09 103.82 170.91 C 100.25 170.36 96.57 169.93 93.05 168.85 C 87.79 168.97 82.89 167.07 77.93 165.61 C 76.84 166.29 75.86 167.10 74.85 167.88 C 75.30 166.96 75.75 166.05 76.20 165.13 C 73.46 163.10 70.73 161.05 68.33 158.62 C 67.30 157.53 66.31 156.40 65.36 155.24 C 61.17 150.22 58.41 144.28 55.40 138.54 C 55.23 131.89 53.27 125.30 54.44 118.61 C 45.54 120.49 36.59 118.69 27.68 117.99 C 26.51 117.77 25.27 117.48 24.40 116.60 C 24.26 114.75 25.62 113.13 27.46 112.86 C 26.73 113.94 26.04 115.05 25.41 116.20 L 27.07 116.58 C 35.56 118.26 44.34 119.29 52.95 117.93 C 54.43 118.05 54.58 116.39 54.96 115.39 C 56.82 104.41 63.48 95.21 70.37 86.80 C 66.33 86.15 62.59 88.02 58.90 89.34 C 51.85 91.78 44.96 94.84 38.87 99.19 C 37.55 100.06 36.28 101.06 34.81 101.67 C 32.45 102.25 29.75 101.65 27.67 103.13 L 27.17 103.78 L 27.66 104.54 C 29.30 106.67 31.92 110.63 28.15 112.09 C 28.54 111.05 28.93 110.01 29.33 108.98 C 28.32 106.87 26.21 104.94 26.52 102.45 C 28.00 101.07 30.18 101.62 32.00 101.31 C 34.71 101.45 36.77 99.47 38.87 98.06 C 47.26 91.59 57.72 88.99 67.43 85.21 C 66.83 84.59 65.63 83.33 65.03 82.71 C 67.22 83.98 69.44 85.18 71.67 86.39 C 81.94 91.26 93.98 93.21 105.06 90.07 M 121.30 80.77 C 119.27 82.56 117.13 84.29 115.67 86.61 C 118.50 87.20 121.29 88.01 123.81 89.46 C 123.46 88.15 123.11 86.84 122.75 85.54 C 123.65 82.44 125.15 79.43 125.06 76.12 C 123.70 77.58 122.48 79.16 121.30 80.77 M 68.73 90.81 C 66.79 93.24 64.84 95.66 63.04 98.20 C 66.70 102.73 72.52 104.20 77.93 105.41 C 82.22 106.39 86.59 107.20 91.00 107.20 C 92.61 107.05 94.67 107.34 95.69 105.77 C 97.39 100.64 100.37 96.14 103.62 91.88 C 93.00 93.81 81.81 92.41 71.94 88.09 C 70.55 88.51 69.75 89.86 68.73 90.81 M 110.16 89.67 C 107.15 90.38 104.93 92.70 103.01 94.99 C 102.74 95.46 102.46 95.93 102.19 96.40 C 97.51 102.95 94.96 110.79 93.72 118.69 C 91.94 120.62 90.33 122.73 89.45 125.24 C 89.95 125.10 90.95 124.82 91.44 124.68 C 97.43 126.73 103.61 130.65 110.14 128.44 C 111.30 127.79 113.79 127.67 113.45 125.80 L 113.35 124.85 L 113.76 124.94 C 114.62 123.60 115.37 122.19 116.09 120.78 C 113.55 120.63 111.03 120.90 108.53 121.28 L 109.29 120.05 C 111.69 119.69 114.41 118.82 116.61 120.32 C 117.73 122.29 115.56 124.08 115.09 125.90 C 120.88 122.10 125.52 116.20 127.45 109.51 C 130.14 103.06 128.15 94.82 122.54 90.57 C 120.12 88.60 116.95 88.20 114.00 87.64 C 112.73 88.33 111.45 89.00 110.16 89.67 M 127.32 93.16 C 129.01 96.67 129.92 100.44 130.78 104.22 C 133.39 111.29 131.65 118.91 130.35 126.06 C 129.59 131.65 129.98 137.37 132.01 142.67 C 133.99 141.10 135.81 139.33 137.49 137.44 C 139.89 134.16 143.41 130.73 143.15 126.41 C 144.20 117.96 143.67 108.49 138.26 101.52 C 135.17 98.11 131.52 95.09 127.32 93.16 M 62.19 99.79 C 59.58 104.16 57.61 108.96 56.80 114.01 C 57.74 119.26 60.14 124.15 61.90 129.16 C 67.69 130.51 73.51 131.76 79.37 132.74 C 80.69 124.43 80.69 115.99 82.01 107.68 C 81.34 107.52 80.01 107.20 79.35 107.04 C 74.24 105.66 68.97 104.56 64.65 101.30 C 63.83 100.79 63.01 100.29 62.19 99.79 M 83.20 107.96 C 82.41 116.31 81.46 124.64 80.63 132.98 C 87.67 134.10 94.86 134.85 101.98 134.21 C 102.76 133.08 103.46 131.90 104.08 130.68 C 100.88 129.83 97.83 128.54 94.78 127.26 C 92.61 126.34 90.06 127.12 87.98 125.94 C 88.01 122.44 91.79 120.33 92.58 117.00 C 93.20 114.08 93.82 111.15 94.74 108.31 C 90.88 108.62 87.05 107.99 83.20 107.96 M 55.12 128.01 C 55.58 131.79 55.80 135.73 57.66 139.14 C 58.50 135.38 60.64 131.77 60.23 127.83 C 59.18 124.24 57.29 120.94 56.34 117.31 C 54.39 120.53 55.01 124.44 55.12 128.01 M 109.01 130.13 L 108.87 130.40 C 107.64 130.53 106.41 130.66 105.18 130.80 C 104.56 131.90 103.94 133.01 103.32 134.11 C 104.07 135.27 104.82 136.43 105.57 137.59 C 106.95 139.55 108.42 141.44 109.99 143.25 C 113.49 141.52 117.29 140.49 121.22 140.77 C 119.65 135.17 119.15 129.31 120.28 123.57 C 116.97 126.44 113.12 128.63 109.01 130.13 M 59.20 138.39 C 57.45 142.99 61.49 147.00 63.67 150.69 C 65.43 153.29 67.41 155.73 69.43 158.13 C 73.01 157.04 76.47 155.63 79.90 154.15 C 79.33 147.41 79.82 140.58 79.05 133.89 C 73.36 133.10 67.65 132.17 62.25 130.11 C 60.74 132.66 60.01 135.56 59.20 138.39 M 80.86 134.27 C 80.71 140.89 80.57 147.55 81.50 154.13 C 86.69 157.94 92.83 159.97 98.92 161.84 C 100.58 155.10 104.12 148.86 109.09 144.01 C 107.88 142.42 106.66 140.83 105.45 139.23 C 104.00 137.55 102.61 135.13 100.00 135.55 C 93.58 135.88 87.21 135.21 80.86 134.27 M 70.52 158.93 C 72.68 161.31 75.34 163.13 78.21 164.56 L 78.58 164.54 C 85.45 168.05 93.52 168.90 100.98 166.91 C 100.70 165.87 100.43 164.84 100.18 163.80 C 93.66 161.24 86.57 159.83 81.07 155.19 C 77.56 156.45 74.02 157.64 70.52 158.93 M 99.11 168.17 C 96.21 169.53 100.79 171.11 101.91 169.60 C 103.04 167.97 100.08 167.50 99.11 168.17 Z" />
</g>
<g id="#77adbcff">
<path fill="#77adbc" opacity="1.00" d=" M 58.77 74.76 C 59.81 75.59 60.83 76.44 61.91 77.22 C 64.22 79.20 67.65 78.11 70.12 79.77 C 72.49 81.22 74.68 82.92 76.97 84.49 C 75.20 85.12 73.43 85.76 71.67 86.39 C 69.44 85.18 67.22 83.98 65.03 82.71 C 62.58 80.91 60.43 78.70 58.54 76.33 L 58.77 74.76 Z" />
<path fill="#77adbc" opacity="1.00" d=" M 112.95 91.15 C 115.65 93.04 118.48 95.08 120.05 98.05 C 120.83 101.59 119.96 105.22 119.41 108.73 C 121.11 108.30 122.80 107.88 124.50 107.46 C 124.92 108.16 125.36 108.85 125.81 109.53 C 126.22 109.53 127.04 109.52 127.45 109.51 C 125.52 116.20 120.88 122.10 115.09 125.90 C 115.56 124.08 117.73 122.29 116.61 120.32 C 114.41 118.82 111.69 119.69 109.29 120.05 C 113.04 114.07 119.52 108.96 119.18 101.23 C 116.16 98.52 114.95 94.57 112.95 91.15 Z" />
</g>
<g id="#eff0f3ff">
<path fill="#eff0f3" opacity="1.00" d=" M 121.30 80.77 C 122.48 79.16 123.70 77.58 125.06 76.12 C 125.15 79.43 123.65 82.44 122.75 85.54 C 122.28 83.94 121.79 82.35 121.30 80.77 Z" />
</g>
<g id="#b2b7baff">
<path fill="#b2b7ba" opacity="1.00" d=" M 115.67 86.61 C 117.13 84.29 119.27 82.56 121.30 80.77 C 121.79 82.35 122.28 83.94 122.75 85.54 C 123.11 86.84 123.46 88.15 123.81 89.46 C 121.29 88.01 118.50 87.20 115.67 86.61 Z" />
</g>
<g id="#bd968aff">
<path fill="#bd968a" opacity="1.00" d=" M 124.72 83.40 C 125.25 82.31 125.91 81.30 126.61 80.31 C 126.87 80.71 127.38 81.50 127.63 81.90 C 128.82 84.00 130.52 85.71 132.23 87.39 C 132.38 87.66 132.68 88.19 132.83 88.46 C 133.19 88.94 133.90 89.91 134.25 90.40 L 134.74 90.80 L 134.84 91.27 C 135.05 93.20 136.41 94.63 137.67 95.99 C 138.01 96.69 138.69 98.08 139.03 98.78 C 138.99 99.18 138.91 99.97 138.87 100.37 C 137.61 98.98 136.39 97.56 135.20 96.12 C 132.56 91.29 129.86 86.01 124.72 83.40 Z" />
</g>
<g id="#2e2522e2">
<path fill="#2e2522" opacity="0.89" d=" M 127.63 81.90 C 130.07 82.69 131.53 85.05 132.23 87.39 C 130.52 85.71 128.82 84.00 127.63 81.90 Z" />
</g>
<g id="#a77362ff">
<path fill="#a77362" opacity="1.00" d=" M 124.72 83.40 C 129.86 86.01 132.56 91.29 135.20 96.12 C 132.28 94.03 128.89 92.80 125.77 91.07 C 124.43 88.79 124.88 85.94 124.72 83.40 Z" />
</g>
<g id="#90c6d4ff">
<path fill="#90c6d4" opacity="1.00" d=" M 58.90 89.34 C 62.59 88.02 66.33 86.15 70.37 86.80 C 63.48 95.21 56.82 104.41 54.96 115.39 C 50.30 115.16 45.47 114.87 41.38 112.38 C 39.40 111.38 37.29 110.71 35.20 110.01 C 36.26 108.39 37.32 106.77 38.39 105.17 L 37.45 105.10 C 35.01 104.78 32.58 104.35 30.15 103.96 C 29.53 103.75 28.29 103.34 27.67 103.13 C 29.75 101.65 32.45 102.25 34.81 101.67 C 36.28 101.06 37.55 100.06 38.87 99.19 C 40.92 101.87 44.44 102.08 47.03 100.00 C 51.03 96.51 55.43 93.40 58.90 89.34 Z" />
</g>
<g id="#b6ad97ff">
<path fill="#b6ad97" opacity="1.00" d=" M 68.73 90.81 C 69.75 89.86 70.55 88.51 71.94 88.09 C 81.81 92.41 93.00 93.81 103.62 91.88 C 100.37 96.14 97.39 100.64 95.69 105.77 C 89.02 104.44 82.58 102.06 77.20 97.81 C 74.08 95.86 71.08 93.68 68.73 90.81 Z" />
</g>
<g id="#65a2b5ff">
<path fill="#65a2b5" opacity="1.00" d=" M 110.16 89.67 C 111.45 89.00 112.73 88.33 114.00 87.64 C 116.95 88.20 120.12 88.60 122.54 90.57 C 128.15 94.82 130.14 103.06 127.45 109.51 C 127.04 109.52 126.22 109.53 125.81 109.53 C 125.36 108.85 124.92 108.16 124.50 107.46 C 122.80 107.88 121.11 108.30 119.41 108.73 C 119.96 105.22 120.83 101.59 120.05 98.05 C 118.48 95.08 115.65 93.04 112.95 91.15 C 112.05 90.60 111.12 90.10 110.16 89.67 Z" />
</g>
<g id="#211b19b3">
<path fill="#211b19" opacity="0.70" d=" M 132.83 88.46 C 133.93 87.03 136.10 89.99 134.25 90.40 C 133.90 89.91 133.19 88.94 132.83 88.46 Z" />
</g>
<g id="#b4d3ddff">
<path fill="#b4d3dd" opacity="1.00" d=" M 38.87 99.19 C 44.96 94.84 51.85 91.78 58.90 89.34 C 55.43 93.40 51.03 96.51 47.03 100.00 C 44.44 102.08 40.92 101.87 38.87 99.19 Z" />
</g>
<g id="#8fc5d2ff">
<path fill="#8fc5d2" opacity="1.00" d=" M 103.01 94.99 C 104.93 92.70 107.15 90.38 110.16 89.67 C 111.12 90.10 112.05 90.60 112.95 91.15 C 114.95 94.57 116.16 98.52 119.18 101.23 C 119.52 108.96 113.04 114.07 109.29 120.05 L 108.53 121.28 C 111.03 120.90 113.55 120.63 116.09 120.78 C 115.37 122.19 114.62 123.60 113.76 124.94 L 113.35 124.85 C 111.99 121.53 105.64 123.84 106.11 119.41 C 106.40 116.40 105.17 113.63 103.56 111.18 C 100.91 112.98 98.53 115.21 97.08 118.11 C 99.15 116.37 100.98 114.37 103.05 112.64 C 103.39 113.08 104.07 113.94 104.41 114.37 C 100.21 117.97 95.96 121.48 91.44 124.68 C 90.95 124.82 89.95 125.10 89.45 125.24 C 90.33 122.73 91.94 120.62 93.72 118.69 C 94.96 110.79 97.51 102.95 102.19 96.40 C 102.45 99.18 102.38 102.08 103.58 104.68 C 105.45 103.52 107.51 102.56 109.06 100.96 C 110.31 98.94 109.48 96.50 109.37 94.31 C 107.31 94.97 105.17 95.69 103.01 94.99 Z" />
</g>
<g id="#e9dfc8ff">
<path fill="#e9dfc8" opacity="1.00" d=" M 63.04 98.20 C 64.84 95.66 66.79 93.24 68.73 90.81 C 71.08 93.68 74.08 95.86 77.20 97.81 C 78.85 99.87 79.72 102.40 79.94 105.01 C 79.44 105.11 78.43 105.31 77.93 105.41 C 72.52 104.20 66.70 102.73 63.04 98.20 Z" />
<path fill="#e9dfc8" opacity="1.00" d=" M 61.56 113.95 C 61.56 109.57 62.96 105.30 64.65 101.30 C 68.97 104.56 74.24 105.66 79.35 107.04 C 77.27 111.49 75.65 116.32 71.87 119.69 C 70.97 119.24 70.07 118.78 69.18 118.33 C 67.93 121.24 66.25 123.95 64.00 126.20 C 63.14 122.13 62.01 118.10 61.56 113.95 Z" />
</g>
<g id="#28211fc0">
<path fill="#28211f" opacity="0.75" d=" M 134.84 91.27 C 136.87 90.91 138.57 94.28 137.67 95.99 C 136.41 94.63 135.05 93.20 134.84 91.27 Z" />
</g>
<g id="#b8dde6ff">
<path fill="#b8dde6" opacity="1.00" d=" M 103.01 94.99 C 105.17 95.69 107.31 94.97 109.37 94.31 C 109.48 96.50 110.31 98.94 109.06 100.96 C 107.51 102.56 105.45 103.52 103.58 104.68 C 102.38 102.08 102.45 99.18 102.19 96.40 C 102.46 95.93 102.74 95.46 103.01 94.99 Z" />
</g>
<g id="#a87463ff">
<path fill="#a87463" opacity="1.00" d=" M 127.32 93.16 C 131.52 95.09 135.17 98.11 138.26 101.52 C 138.76 103.65 139.18 105.82 139.35 108.01 C 138.45 108.43 137.51 108.75 136.58 109.07 C 135.45 116.02 137.41 122.88 137.46 129.82 C 139.35 128.39 140.87 126.56 141.65 124.28 C 142.15 124.98 142.66 125.69 143.15 126.41 C 143.41 130.73 139.89 134.16 137.49 137.44 C 135.04 133.70 132.00 130.27 130.35 126.06 C 131.65 118.91 133.39 111.29 130.78 104.22 C 129.92 100.44 129.01 96.67 127.32 93.16 Z" />
</g>
<g id="#ddcdafff">
<path fill="#ddcdaf" opacity="1.00" d=" M 77.20 97.81 C 82.58 102.06 89.02 104.44 95.69 105.77 C 94.67 107.34 92.61 107.05 91.00 107.20 C 86.59 107.20 82.22 106.39 77.93 105.41 C 78.43 105.31 79.44 105.11 79.94 105.01 C 79.72 102.40 78.85 99.87 77.20 97.81 Z" />
</g>
<g id="#e1d1b0ff">
<path fill="#e1d1b0" opacity="1.00" d=" M 62.19 99.79 C 63.01 100.29 63.83 100.79 64.65 101.30 C 62.96 105.30 61.56 109.57 61.56 113.95 C 62.01 118.10 63.14 122.13 64.00 126.20 C 66.25 123.95 67.93 121.24 69.18 118.33 C 70.07 118.78 70.97 119.24 71.87 119.69 C 75.65 116.32 77.27 111.49 79.35 107.04 C 80.01 107.20 81.34 107.52 82.01 107.68 C 80.69 115.99 80.69 124.43 79.37 132.74 C 73.51 131.76 67.69 130.51 61.90 129.16 C 60.14 124.15 57.74 119.26 56.80 114.01 C 57.61 108.96 59.58 104.16 62.19 99.79 Z" />
</g>
<g id="#be9b90ff">
<path fill="#be9b90" opacity="1.00" d=" M 138.26 101.52 C 143.67 108.49 144.20 117.96 143.15 126.41 C 142.66 125.69 142.15 124.98 141.65 124.28 C 140.87 126.56 139.35 128.39 137.46 129.82 C 137.41 122.88 135.45 116.02 136.58 109.07 C 137.51 108.75 138.45 108.43 139.35 108.01 C 139.18 105.82 138.76 103.65 138.26 101.52 Z" />
</g>
<g id="#c5f1f8ff">
<path fill="#c5f1f8" opacity="1.00" d=" M 27.67 103.13 C 28.29 103.34 29.53 103.75 30.15 103.96 C 29.53 104.11 28.28 104.40 27.66 104.54 L 27.17 103.78 L 27.67 103.13 Z" />
</g>
<g id="#dfcfb0ff">
<path fill="#dfcfb0" opacity="1.00" d=" M 83.20 107.96 C 87.05 107.99 90.88 108.62 94.74 108.31 C 93.82 111.15 93.20 114.08 92.58 117.00 C 91.79 120.33 88.01 122.44 87.98 125.94 C 90.06 127.12 92.61 126.34 94.78 127.26 C 97.83 128.54 100.88 129.83 104.08 130.68 C 103.46 131.90 102.76 133.08 101.98 134.21 C 94.86 134.85 87.67 134.10 80.63 132.98 C 81.46 124.64 82.41 116.31 83.20 107.96 Z" />
</g>
<g id="#b2b6baff">
<path fill="#b2b6ba" opacity="1.00" d=" M 128.74 110.89 C 129.12 112.87 129.93 114.97 129.13 116.96 C 127.62 121.16 126.36 125.50 126.50 130.01 C 126.14 134.69 128.65 139.04 128.11 143.72 C 126.47 142.75 124.66 142.00 123.26 140.68 C 120.67 134.71 119.86 127.59 122.50 121.48 C 124.53 117.92 127.30 114.78 128.74 110.89 Z" />
</g>
<g id="#a9d5dfff">
<path fill="#a9d5df" opacity="1.00" d=" M 27.46 112.86 L 27.93 112.24 C 29.70 113.66 29.18 115.93 27.07 116.58 L 25.41 116.20 C 26.04 115.05 26.73 113.94 27.46 112.86 Z" />
</g>
<g id="#669eb0ff">
<path fill="#669eb0" opacity="1.00" d=" M 91.44 124.68 C 95.96 121.48 100.21 117.97 104.41 114.37 C 105.03 116.03 105.61 117.71 106.11 119.41 C 105.64 123.84 111.99 121.53 113.35 124.85 L 113.45 125.80 C 113.79 127.67 111.30 127.79 110.14 128.44 C 103.61 130.65 97.43 126.73 91.44 124.68 Z" />
<path fill="#669eb0" opacity="1.00" d=" M 133.21 154.36 C 133.44 155.02 133.89 156.33 134.12 156.99 C 136.07 165.92 134.05 175.21 135.88 184.10 L 136.17 185.12 C 134.50 186.22 132.85 187.34 131.20 188.47 C 128.98 188.28 127.11 189.47 125.53 190.89 C 124.93 189.37 124.66 187.46 123.01 186.69 C 121.04 187.07 119.23 188.00 117.42 188.81 L 117.18 188.76 C 116.27 188.53 115.36 188.32 114.44 188.14 C 112.35 185.98 110.27 183.79 108.61 181.27 C 107.87 179.19 107.16 177.09 106.45 175.00 C 110.32 174.64 114.24 174.34 118.11 174.99 C 122.85 176.08 127.98 173.12 130.03 168.81 C 132.52 164.38 131.63 159.07 133.21 154.36 Z" />
</g>
<g id="#e8d7b4ff">
<path fill="#e8d7b4" opacity="1.00" d=" M 55.12 128.01 C 55.01 124.44 54.39 120.53 56.34 117.31 C 57.29 120.94 59.18 124.24 60.23 127.83 C 60.64 131.77 58.50 135.38 57.66 139.14 C 55.80 135.73 55.58 131.79 55.12 128.01 Z" />
</g>
<g id="#b6ac96ff">
<path fill="#b6ac96" opacity="1.00" d=" M 109.01 130.13 C 113.12 128.63 116.97 126.44 120.28 123.57 C 119.15 129.31 119.65 135.17 121.22 140.77 C 117.29 140.49 113.49 141.52 109.99 143.25 C 108.42 141.44 106.95 139.55 105.57 137.59 C 106.63 135.18 107.72 132.78 108.87 130.40 L 109.01 130.13 Z" />
</g>
<g id="#8e6d63ff">
<path fill="#8e6d63" opacity="1.00" d=" M 132.01 142.67 C 129.98 137.37 129.59 131.65 130.35 126.06 C 132.00 130.27 135.04 133.70 137.49 137.44 C 135.81 139.33 133.99 141.10 132.01 142.67 Z" />
<path fill="#8e6d63" opacity="1.00" d=" M 132.30 144.09 C 136.57 141.04 139.63 136.75 142.93 132.75 C 141.37 140.04 139.19 147.26 135.65 153.86 L 134.70 155.06 C 133.70 151.45 132.83 147.80 132.30 144.09 Z" />
</g>
<g id="#deceafff">
<path fill="#deceaf" opacity="1.00" d=" M 59.20 138.39 C 60.01 135.56 60.74 132.66 62.25 130.11 C 67.65 132.17 73.36 133.10 79.05 133.89 C 79.82 140.58 79.33 147.41 79.90 154.15 C 74.54 152.79 69.20 151.18 63.67 150.69 C 61.49 147.00 57.45 142.99 59.20 138.39 Z" />
</g>
<g id="#d9cbb2ff">
<path fill="#d9cbb2" opacity="1.00" d=" M 105.18 130.80 C 106.41 130.66 107.64 130.53 108.87 130.40 C 107.72 132.78 106.63 135.18 105.57 137.59 C 104.82 136.43 104.07 135.27 103.32 134.11 C 103.94 133.01 104.56 131.90 105.18 130.80 Z" />
</g>
<g id="#8fc4d0ff">
<path fill="#8fc4d0" opacity="1.00" d=" M 157.53 134.66 C 164.16 131.50 172.13 130.34 178.94 133.67 C 177.31 136.68 175.86 140.21 172.46 141.60 C 165.34 144.99 156.05 147.55 149.13 142.34 C 151.62 139.48 154.21 136.59 157.53 134.66 Z" />
</g>
<g id="#669fb1ff">
<path fill="#669fb1" opacity="1.00" d=" M 178.94 133.67 C 180.04 134.12 181.14 134.59 182.22 135.09 C 182.42 135.36 182.82 135.91 183.02 136.19 C 183.84 137.51 184.79 138.75 185.82 139.93 C 186.14 140.38 186.77 141.29 187.08 141.75 C 191.07 151.33 188.80 163.25 180.96 170.22 C 180.78 170.39 180.44 170.72 180.27 170.89 C 173.69 174.51 165.59 170.90 161.02 165.68 C 158.46 160.94 158.63 153.54 163.82 150.59 C 167.75 147.98 172.87 148.69 176.39 151.65 C 172.97 146.44 164.51 147.28 160.98 151.98 C 157.44 156.18 157.65 162.70 160.98 166.95 C 164.17 171.05 169.28 172.98 174.32 173.43 C 172.27 174.41 170.21 175.41 168.13 176.33 C 164.12 176.60 160.10 177.11 156.07 176.82 C 149.48 176.31 143.16 174.25 136.68 173.11 C 136.58 167.72 136.47 162.31 135.70 156.97 C 137.15 155.85 138.51 154.64 139.83 153.38 C 140.08 153.14 140.56 152.67 140.81 152.44 C 142.56 150.86 144.12 149.07 145.25 146.99 L 145.61 146.39 L 146.38 146.14 C 147.47 145.85 148.05 145.13 148.14 143.98 C 148.27 143.41 148.54 142.27 148.68 141.70 L 149.13 142.34 C 156.05 147.55 165.34 144.99 172.46 141.60 C 175.86 140.21 177.31 136.68 178.94 133.67 Z" />
</g>
<g id="#dccdafff">
<path fill="#dccdaf" opacity="1.00" d=" M 80.86 134.27 C 87.21 135.21 93.58 135.88 100.00 135.55 C 102.61 135.13 104.00 137.55 105.45 139.23 C 100.91 141.97 97.73 146.40 93.25 149.22 C 89.73 151.76 85.12 151.79 81.50 154.13 C 80.57 147.55 80.71 140.89 80.86 134.27 Z" />
</g>
<g id="#0e1618a2">
<path fill="#0e1618" opacity="0.64" d=" M 183.02 136.19 C 184.94 135.03 187.23 138.32 185.82 139.93 C 184.79 138.75 183.84 137.51 183.02 136.19 Z" />
</g>
<g id="#90c7d6ff">
<path fill="#90c7d6" opacity="1.00" d=" M 55.40 138.54 C 58.41 144.28 61.17 150.22 65.36 155.24 C 63.90 157.52 62.72 159.99 60.98 162.08 C 56.48 164.14 51.91 167.05 46.73 166.21 C 46.83 164.59 46.92 162.97 46.99 161.36 C 52.57 160.92 58.46 157.15 58.77 151.11 C 57.78 147.71 54.83 145.34 52.72 142.61 C 53.07 142.03 53.75 140.87 54.09 140.30 C 54.41 139.86 55.07 138.98 55.40 138.54 Z" />
</g>
<g id="#b6ac97ff">
<path fill="#b6ac97" opacity="1.00" d=" M 93.25 149.22 C 97.73 146.40 100.91 141.97 105.45 139.23 C 106.66 140.83 107.88 142.42 109.09 144.01 C 104.12 148.86 100.58 155.10 98.92 161.84 C 92.83 159.97 86.69 157.94 81.50 154.13 C 85.12 151.79 89.73 151.76 93.25 149.22 Z" />
</g>
<g id="#8fc5d3ff">
<path fill="#8fc5d3" opacity="1.00" d=" M 104.95 151.00 C 107.40 146.80 111.16 143.01 116.15 142.19 C 121.22 140.64 126.43 143.27 129.63 147.15 L 130.26 146.22 C 131.04 149.00 132.19 151.66 133.21 154.36 C 131.63 159.07 132.52 164.38 130.03 168.81 C 127.98 173.12 122.85 176.08 118.11 174.99 C 114.24 174.34 110.32 174.64 106.45 175.00 C 105.15 170.89 102.67 167.29 101.29 163.23 C 100.12 158.80 102.80 154.65 104.95 151.00 M 111.09 162.01 C 110.75 163.69 109.58 165.61 110.70 167.25 C 111.66 168.71 113.46 170.42 115.32 169.37 C 116.73 167.62 116.41 165.21 115.63 163.27 C 114.62 161.76 112.63 162.17 111.09 162.01 Z" />
<path fill="#8fc5d3" opacity="1.00" d=" M 131.20 188.47 C 132.85 187.34 134.50 186.22 136.17 185.12 C 136.31 185.52 136.60 186.34 136.74 186.74 C 136.93 187.44 137.32 188.85 137.51 189.55 C 135.40 189.23 133.30 188.83 131.20 188.47 Z" />
</g>
<g id="#b5d8e1ff">
<path fill="#b5d8e1" opacity="1.00" d=" M 52.72 142.61 C 54.83 145.34 57.78 147.71 58.77 151.11 C 58.46 157.15 52.57 160.92 46.99 161.36 L 47.02 160.55 C 48.04 157.64 50.16 154.39 48.16 151.39 C 49.42 148.34 51.10 145.48 52.72 142.61 Z" />
</g>
<g id="#3d5d68f2">
<path fill="#3d5d68" opacity="0.95" d=" M 147.41 143.78 L 148.14 143.98 C 148.05 145.13 147.47 145.85 146.38 146.14 L 146.13 145.37 C 146.45 144.97 147.09 144.17 147.41 143.78 Z" />
</g>
<g id="#111b1eb7">
<path fill="#111b1e" opacity="0.72" d=" M 140.81 152.44 C 141.44 150.04 143.29 148.35 145.25 146.99 C 144.12 149.07 142.56 150.86 140.81 152.44 Z" />
</g>
<g id="#b7ae97ff">
<path fill="#b7ae97" opacity="1.00" d=" M 63.67 150.69 C 69.20 151.18 74.54 152.79 79.90 154.15 C 76.47 155.63 73.01 157.04 69.43 158.13 C 67.41 155.73 65.43 153.29 63.67 150.69 Z" />
</g>
<g id="#c4edf8ff">
<path fill="#c4edf8" opacity="1.00" d=" M 48.16 151.39 C 50.16 154.39 48.04 157.64 47.02 160.55 C 46.88 159.81 46.61 158.34 46.47 157.60 C 46.79 155.47 47.42 153.41 48.16 151.39 Z" />
</g>
<g id="#76afbfff">
<path fill="#76afbf" opacity="1.00" d=" M 60.98 162.08 C 62.72 159.99 63.90 157.52 65.36 155.24 C 66.31 156.40 67.30 157.53 68.33 158.62 C 67.30 158.59 66.26 158.57 65.23 158.55 C 64.46 160.29 63.79 162.10 62.74 163.69 C 60.17 167.20 55.58 168.46 52.88 171.80 C 52.21 173.99 51.91 176.28 51.39 178.52 C 50.22 178.78 49.05 179.00 47.87 179.18 C 47.55 178.68 46.90 177.69 46.57 177.19 C 47.66 176.06 48.76 174.93 49.85 173.80 C 48.91 173.68 47.98 173.57 47.05 173.47 L 46.97 173.37 C 46.51 172.83 45.58 171.74 45.12 171.19 C 45.46 170.96 46.13 170.50 46.46 170.27 C 45.75 166.08 45.62 161.78 46.47 157.60 C 46.61 158.34 46.88 159.81 47.02 160.55 L 46.99 161.36 C 46.92 162.97 46.83 164.59 46.73 166.21 C 51.91 167.05 56.48 164.14 60.98 162.08 Z" />
</g>
<g id="#b6ad96ff">
<path fill="#b6ad96" opacity="1.00" d=" M 70.52 158.93 C 74.02 157.64 77.56 156.45 81.07 155.19 C 86.57 159.83 93.66 161.24 100.18 163.80 C 93.91 169.08 85.68 163.92 78.58 164.54 L 78.21 164.56 C 75.34 163.13 72.68 161.31 70.52 158.93 Z" />
</g>
<g id="#294148fc">
<path fill="#294148" opacity="1.00" d=" M 134.12 156.99 C 134.51 156.98 135.30 156.97 135.70 156.97 C 136.47 162.31 136.58 167.72 136.68 173.11 L 135.77 173.05 C 135.52 176.73 135.43 180.44 135.88 184.10 C 134.05 175.21 136.07 165.92 134.12 156.99 Z" />
</g>
<g id="#669eafff">
<path fill="#669eaf" opacity="1.00" d=" M 65.23 158.55 C 66.26 158.57 67.30 158.59 68.33 158.62 C 70.73 161.05 73.46 163.10 76.20 165.13 C 75.75 166.05 75.30 166.96 74.85 167.88 C 73.47 170.36 72.87 173.14 71.88 175.77 C 69.67 177.80 66.39 178.08 63.62 179.01 C 61.07 179.65 58.54 180.37 56.08 181.31 C 55.29 180.06 54.50 178.81 53.71 177.57 C 53.13 177.82 52.54 178.07 51.96 178.31 C 51.81 178.36 51.53 178.46 51.39 178.52 C 51.91 176.28 52.21 173.99 52.88 171.80 C 55.58 168.46 60.17 167.20 62.74 163.69 C 63.79 162.10 64.46 160.29 65.23 158.55 Z" />
</g>
<g id="#b4d4ddff">
<path fill="#b4d4dd" opacity="1.00" d=" M 111.09 162.01 C 112.63 162.17 114.62 161.76 115.63 163.27 C 116.41 165.21 116.73 167.62 115.32 169.37 C 113.46 170.42 111.66 168.71 110.70 167.25 C 109.58 165.61 110.75 163.69 111.09 162.01 Z" />
</g>
<g id="#c5baa3ff">
<path fill="#c5baa3" opacity="1.00" d=" M 78.58 164.54 C 85.68 163.92 93.91 169.08 100.18 163.80 C 100.43 164.84 100.70 165.87 100.98 166.91 C 93.52 168.90 85.45 168.05 78.58 164.54 Z" />
</g>
<g id="#9196a0ff">
<path fill="#9196a0" opacity="1.00" d=" M 99.11 168.17 C 100.08 167.50 103.04 167.97 101.91 169.60 C 100.79 171.11 96.21 169.53 99.11 168.17 Z" />
</g>
<g id="#9fdbe9ff">
<path fill="#9fdbe9" opacity="1.00" d=" M 40.27 175.61 C 41.79 174.04 43.34 172.48 45.12 171.19 C 45.58 171.74 46.51 172.83 46.97 173.37 C 45.16 175.20 42.92 176.14 40.27 175.61 Z" />
</g>
<g id="#82becfff">
<path fill="#82becf" opacity="1.00" d=" M 51.96 178.31 C 52.54 178.07 53.13 177.82 53.71 177.57 C 54.50 178.81 55.29 180.06 56.08 181.31 C 54.45 181.95 52.86 182.66 51.25 183.36 C 51.49 181.67 51.72 179.99 51.96 178.31 Z" />
</g>
<g id="#87becdff">
<path fill="#87becd" opacity="1.00" d=" M 108.61 181.27 C 110.27 183.79 112.35 185.98 114.44 188.14 C 112.67 188.47 110.93 188.91 109.19 189.33 C 109.10 186.63 109.02 183.94 108.61 181.27 Z" />
</g>
<g id="#90c6d3ff">
<path fill="#90c6d3" opacity="1.00" d=" M 117.42 188.81 C 119.23 188.00 121.04 187.07 123.01 186.69 C 124.66 187.46 124.93 189.37 125.53 190.89 C 125.12 191.22 124.31 191.88 123.91 192.22 C 122.18 191.46 120.50 190.59 118.84 189.69 C 118.49 189.47 117.77 189.03 117.42 188.81 Z" />
</g>
</svg>
