<?xml version="1.0" encoding="UTF-8" ?>
<!DOCTYPE svg PUBLIC "-//W3C//DTD SVG 1.1//EN" "http://www.w3.org/Graphics/SVG/1.1/DTD/svg11.dtd">
<svg width="215pt" height="215pt" viewBox="0 0 215 215" version="1.1" xmlns="http://www.w3.org/2000/svg">
<g id="#eaf0f3ff">
<path fill="#eaf0f3" opacity="1.00" d=" M 51.33 33.74 C 51.60 29.54 53.48 25.53 56.00 22.21 C 57.10 23.07 58.27 23.93 58.98 25.17 C 62.54 31.48 64.35 38.57 65.62 45.64 C 65.35 45.93 64.80 46.51 64.52 46.80 C 63.48 44.25 62.14 41.83 60.50 39.62 C 59.60 36.79 58.72 33.95 57.74 31.14 C 58.07 32.65 58.43 34.16 58.76 35.68 C 57.66 36.98 55.87 37.94 55.75 39.84 C 54.30 47.68 54.17 55.98 57.21 63.49 C 57.12 63.65 56.92 63.97 56.83 64.13 C 55.73 63.35 54.65 62.57 53.53 61.82 C 48.58 54.41 47.25 44.75 49.07 36.09 C 49.63 35.91 50.75 35.55 51.31 35.37 L 51.33 33.74 Z" />
<path fill="#eaf0f3" opacity="1.00" d=" M 176.85 96.99 C 178.00 97.21 178.83 97.85 179.33 98.89 C 181.54 103.04 182.61 107.69 183.33 112.31 C 180.23 110.36 176.61 109.83 173.02 110.39 C 175.29 109.17 177.93 109.29 180.42 109.04 C 179.80 104.88 178.70 100.78 176.85 96.99 Z" />
</g>
<g id="#241c1cff">
<path fill="#241c1c" opacity="1.00" d=" M 58.98 25.17 C 60.90 26.65 61.72 29.01 62.63 31.16 C 65.20 38.05 66.92 45.31 67.12 52.68 C 67.72 52.63 68.93 52.54 69.54 52.50 C 67.52 54.11 65.52 55.75 63.65 57.53 C 59.03 61.77 55.48 67.21 54.21 73.41 C 53.55 76.41 53.86 79.48 54.47 82.45 C 54.64 82.95 54.99 83.95 55.17 84.45 C 56.31 90.03 54.94 95.77 56.32 101.28 C 55.87 100.53 54.96 99.04 54.51 98.29 C 53.46 98.44 51.35 98.75 50.29 98.91 C 51.71 98.23 53.20 97.70 54.63 97.03 C 56.00 92.84 54.87 88.54 53.83 84.44 C 52.63 80.17 54.37 75.11 50.90 71.70 C 51.43 72.09 52.49 72.89 53.02 73.28 C 53.34 69.90 55.10 66.97 56.83 64.13 C 56.92 63.97 57.12 63.65 57.21 63.49 C 58.65 61.03 61.39 59.06 61.45 56.01 C 61.79 49.14 60.46 42.31 58.76 35.68 C 58.43 34.16 58.07 32.65 57.74 31.14 C 58.72 33.95 59.60 36.79 60.50 39.62 C 61.99 45.37 62.79 51.30 62.16 57.23 C 63.54 56.05 64.92 54.87 66.32 53.71 C 66.25 51.01 66.08 48.31 65.62 45.64 C 64.35 38.57 62.54 31.48 58.98 25.17 Z" />
<path fill="#241c1c" opacity="1.00" d=" M 132.37 27.37 C 134.62 26.15 137.21 25.58 139.70 26.38 C 139.84 30.92 137.93 35.10 136.07 39.13 C 140.12 50.17 133.07 61.10 125.98 69.07 C 125.62 71.41 126.36 74.74 123.85 76.07 C 125.08 72.14 125.10 67.72 128.39 64.75 C 133.76 57.93 137.81 49.28 136.04 40.41 C 134.21 42.62 132.37 44.83 130.47 46.98 C 133.24 41.95 136.40 37.11 138.47 31.73 C 138.83 29.90 139.61 27.21 137.06 26.62 C 132.24 27.70 128.14 30.65 124.03 33.24 C 126.05 30.39 129.38 28.97 132.37 27.37 Z" />
<path fill="#241c1c" opacity="1.00" d=" M 48.39 36.86 C 48.65 35.29 50.23 34.63 51.33 33.74 L 51.31 35.37 C 50.75 35.55 49.63 35.91 49.07 36.09 C 47.25 44.75 48.58 54.41 53.53 61.82 C 51.52 60.89 49.53 59.92 47.60 58.85 C 45.58 63.07 48.05 67.44 50.14 71.08 C 46.99 68.53 45.89 63.93 46.18 60.04 C 46.67 57.56 49.59 59.33 50.98 59.58 C 48.54 52.37 45.97 44.42 48.39 36.86 Z" />
<path fill="#241c1c" opacity="1.00" d=" M 77.09 48.40 C 84.79 45.87 93.35 46.15 100.84 49.26 C 102.06 49.71 103.09 50.50 104.04 51.37 C 93.38 45.97 80.31 46.42 69.91 52.23 C 71.50 49.86 74.59 49.36 77.09 48.40 Z" />
<path fill="#241c1c" opacity="1.00" d=" M 150.92 78.89 C 155.63 73.60 162.67 70.11 169.85 70.80 C 173.88 71.47 178.18 72.76 180.86 76.06 C 184.18 79.76 185.28 84.95 184.60 89.79 L 183.63 89.81 C 184.74 84.12 182.52 78.06 178.05 74.40 C 174.58 72.14 170.42 71.28 166.33 71.61 C 157.10 72.34 149.78 79.60 146.20 87.72 C 146.11 84.17 148.75 81.40 150.92 78.89 Z" />
<path fill="#241c1c" opacity="1.00" d=" M 85.36 87.83 C 90.04 82.31 96.27 78.41 101.64 73.63 C 101.51 74.16 101.25 75.22 101.12 75.76 C 101.63 76.99 102.14 78.23 102.62 79.49 C 102.59 79.89 102.53 80.68 102.50 81.08 C 101.68 79.34 100.90 77.58 100.09 75.84 C 98.72 77.10 97.34 78.37 95.98 79.65 C 96.44 80.73 96.88 81.82 97.31 82.91 C 97.45 83.35 97.75 84.23 97.90 84.68 C 97.49 84.99 96.67 85.62 96.26 85.93 C 96.24 88.32 96.20 90.71 96.16 93.09 C 95.43 92.89 93.98 92.49 93.26 92.28 C 93.14 91.47 93.03 90.65 92.94 89.84 C 92.96 91.47 92.44 92.66 91.37 93.41 L 91.01 93.36 C 90.30 90.44 90.12 87.44 89.99 84.45 C 87.81 86.31 85.60 88.13 83.37 89.95 C 82.94 89.59 82.07 88.89 81.64 88.54 C 81.58 87.90 81.46 86.62 81.40 85.98 C 81.66 86.48 82.19 87.49 82.45 87.99 C 83.42 87.95 84.39 87.89 85.36 87.83 M 91.46 83.07 C 91.84 83.65 92.61 84.81 92.99 85.39 C 96.18 85.90 95.83 82.34 94.99 80.42 C 93.80 81.29 92.63 82.17 91.46 83.07 Z" />
<path fill="#241c1c" opacity="1.00" d=" M 103.46 83.87 C 105.05 86.96 104.71 90.45 104.44 93.79 L 103.50 93.57 C 103.53 93.16 103.58 92.33 103.61 91.92 C 103.76 89.24 103.75 86.55 103.46 83.87 Z" />
<path fill="#241c1c" opacity="1.00" d=" M 186.86 116.77 C 191.93 120.34 192.37 127.59 191.12 133.17 C 188.23 142.11 183.09 151.16 174.87 156.11 C 180.57 151.25 185.34 145.27 188.42 138.41 C 190.61 133.68 190.51 128.27 189.90 123.20 C 189.21 120.92 188.08 118.80 186.86 116.77 Z" />
<path fill="#241c1c" opacity="1.00" d=" M 156.16 168.53 C 158.87 173.16 159.38 178.62 161.31 183.56 C 162.11 185.56 162.67 187.64 162.92 189.78 C 159.51 189.47 156.27 188.30 152.98 187.44 C 151.89 188.01 150.79 188.56 149.69 189.12 C 150.61 187.91 151.76 186.93 153.26 186.54 C 156.19 187.54 159.16 188.42 162.19 189.09 C 161.97 188.39 161.53 187.00 161.31 186.31 C 159.42 180.44 157.30 174.60 156.16 168.53 Z" />
<path fill="#241c1c" opacity="1.00" d=" M 54.04 179.19 C 53.71 177.43 54.40 176.72 56.14 177.06 C 55.71 178.03 55.02 178.74 54.04 179.19 Z" />
</g>
<g id="#e6edf1ff">
<path fill="#e6edf1" opacity="1.00" d=" M 124.03 33.24 C 128.14 30.65 132.24 27.70 137.06 26.62 C 139.61 27.21 138.83 29.90 138.47 31.73 C 135.27 28.82 131.48 32.06 128.66 33.89 C 124.32 37.13 121.06 41.53 117.58 45.62 C 113.81 49.77 112.81 55.43 111.40 60.66 C 108.94 62.79 106.97 65.43 105.62 68.39 C 105.44 63.97 105.84 59.48 107.26 55.28 C 108.97 51.01 111.87 47.38 114.26 43.48 C 114.52 43.18 115.04 42.58 115.31 42.28 C 116.16 41.72 116.76 40.97 117.13 40.02 C 117.29 39.84 117.61 39.47 117.77 39.29 C 119.71 37.53 121.58 35.68 123.39 33.77 C 123.55 33.64 123.87 33.37 124.03 33.24 Z" />
</g>
<g id="#bbe0ecff">
<path fill="#bbe0ec" opacity="1.00" d=" M 128.66 33.89 C 131.48 32.06 135.27 28.82 138.47 31.73 C 136.40 37.11 133.24 41.95 130.47 46.98 C 130.29 47.22 129.94 47.70 129.76 47.95 C 129.25 47.77 128.21 47.43 127.69 47.25 C 125.49 49.15 123.79 51.54 121.89 53.72 C 121.23 53.14 120.58 52.55 119.92 51.96 C 118.85 53.59 117.64 55.13 116.10 56.34 C 117.02 52.16 119.53 48.42 119.55 44.05 C 122.36 40.45 125.76 37.40 128.66 33.89 Z" />
</g>
<g id="#292d2ead">
<path fill="#292d2e" opacity="0.68" d=" M 117.77 39.29 C 118.73 36.74 120.88 34.77 123.39 33.77 C 121.58 35.68 119.71 37.53 117.77 39.29 Z" />
</g>
<g id="#2c2f2cff">
<path fill="#2c2f2c" opacity="1.00" d=" M 117.58 45.62 C 121.06 41.53 124.32 37.13 128.66 33.89 C 125.76 37.40 122.36 40.45 119.55 44.05 C 115.27 48.62 113.26 54.75 112.17 60.80 C 111.54 63.72 111.56 66.78 110.39 69.56 C 110.34 66.56 110.75 63.58 111.40 60.66 C 112.81 55.43 113.81 49.77 117.58 45.62 Z" />
<path fill="#2c2f2c" opacity="1.00" d=" M 107.33 52.75 C 109.86 49.83 110.86 45.62 114.26 43.48 C 111.87 47.38 108.97 51.01 107.26 55.28 C 105.84 59.48 105.44 63.97 105.62 68.39 C 106.33 71.72 108.48 74.67 111.08 76.84 C 114.82 79.26 119.64 79.08 123.46 76.96 C 122.72 77.80 121.98 78.64 121.24 79.48 C 123.52 81.91 123.02 85.72 125.62 87.89 C 125.44 89.16 125.21 90.42 124.92 91.67 C 127.09 91.91 129.27 92.09 131.44 92.38 C 135.59 93.54 139.85 94.18 144.10 94.85 C 144.45 92.57 144.36 90.01 146.03 88.18 C 145.64 90.43 145.26 92.67 145.02 94.93 C 145.38 95.07 146.11 95.34 146.47 95.48 C 150.03 96.77 154.01 97.44 156.91 100.06 C 159.52 102.46 161.91 105.10 164.07 107.92 C 163.64 110.13 161.61 111.00 159.59 111.49 C 160.38 110.39 161.38 109.47 162.36 108.54 C 161.43 107.01 160.51 105.46 159.58 103.93 C 159.85 106.83 159.84 109.87 158.34 112.47 C 155.56 113.42 153.14 115.11 150.50 116.36 C 149.16 117.11 147.02 117.93 147.60 119.90 C 148.87 128.45 149.39 137.13 148.06 145.72 C 147.49 145.36 146.35 144.64 145.78 144.28 C 146.22 144.66 147.09 145.44 147.53 145.83 C 147.50 147.83 147.12 149.99 148.42 151.71 C 148.98 152.61 149.55 153.51 150.13 154.40 C 153.31 153.07 156.51 151.75 159.46 149.95 C 161.53 148.60 163.57 147.17 165.38 145.47 C 167.68 143.31 168.95 140.28 171.33 138.19 C 170.61 140.18 169.47 141.98 168.08 143.58 C 163.05 148.50 157.21 152.68 150.52 155.02 C 151.09 156.06 151.66 157.10 152.24 158.13 C 154.51 157.58 156.78 157.02 159.07 156.52 C 156.96 157.34 154.82 158.10 152.68 158.82 C 153.69 160.87 154.70 162.91 155.72 164.96 C 162.25 163.20 168.41 160.42 174.06 156.71 C 169.44 161.74 162.33 163.40 156.07 165.51 C 155.91 165.89 155.58 166.65 155.42 167.02 C 150.93 158.71 147.16 149.28 138.83 143.98 C 137.13 142.56 134.77 142.89 132.92 143.81 C 127.71 146.12 124.00 150.92 121.92 156.12 C 120.94 158.68 119.81 161.26 119.65 164.04 C 121.12 167.74 124.02 170.68 125.82 174.23 C 127.82 177.76 130.11 181.32 130.53 185.45 C 129.42 186.48 128.94 187.71 129.09 189.14 C 129.53 189.16 130.40 189.20 130.84 189.21 C 133.16 188.74 135.49 188.27 137.83 187.89 C 138.19 188.10 138.92 188.53 139.28 188.75 C 135.76 188.68 132.47 190.00 129.14 190.94 C 126.75 188.18 130.58 184.99 129.00 182.05 C 127.41 178.28 125.16 174.85 123.08 171.35 C 115.41 170.64 107.61 172.49 100.06 170.49 C 97.32 169.82 94.73 168.70 92.10 167.71 C 90.42 168.90 88.72 170.07 86.98 171.17 C 88.04 169.77 89.13 168.40 90.23 167.03 C 87.46 165.52 84.72 163.93 82.18 162.05 C 81.66 161.67 81.15 161.27 80.65 160.86 C 78.43 158.70 76.23 156.50 74.24 154.12 C 72.27 151.58 70.57 148.86 68.58 146.33 C 68.57 143.90 67.35 141.75 66.62 139.50 C 65.18 135.03 64.51 130.36 64.20 125.70 C 58.44 125.26 52.59 125.77 46.92 124.44 C 40.29 123.34 32.97 122.32 28.17 117.08 L 28.19 116.90 C 28.62 114.21 28.45 111.49 27.81 108.85 C 26.79 110.19 25.89 111.61 25.11 113.09 C 25.26 114.58 26.93 115.31 27.71 116.43 C 25.58 116.29 24.39 114.43 23.01 113.09 C 25.62 110.68 28.05 108.10 30.13 105.23 C 36.47 102.92 42.74 99.88 49.52 99.15 C 45.79 100.50 42.04 101.78 38.31 103.10 C 37.18 103.48 36.04 103.84 34.91 104.20 C 35.55 105.04 36.19 105.89 36.82 106.73 C 34.85 109.46 33.48 112.54 31.73 115.39 C 31.13 115.49 29.94 115.69 29.34 115.79 C 29.54 116.37 29.94 117.54 30.14 118.12 C 33.23 116.17 36.33 113.89 40.01 113.25 C 41.72 112.91 42.17 114.93 43.04 115.93 C 42.39 117.34 41.82 118.80 41.03 120.14 C 39.47 120.68 37.81 120.82 36.21 121.17 C 45.22 123.53 54.58 125.47 63.94 124.48 C 64.04 118.88 64.68 113.29 66.32 107.92 C 65.33 107.35 64.34 106.78 63.35 106.21 C 61.61 105.20 59.91 104.15 58.22 103.06 C 58.28 101.95 58.34 100.83 58.39 99.72 C 62.59 101.94 67.10 103.51 71.17 105.98 C 72.62 107.04 74.37 106.33 75.93 106.01 C 81.48 104.44 87.30 105.09 92.95 104.16 C 96.27 103.64 99.61 103.09 102.77 101.89 C 105.41 100.89 107.50 98.73 110.29 98.08 C 107.93 100.68 104.23 102.47 103.97 106.44 C 113.39 101.30 118.93 90.71 118.80 80.10 C 114.14 80.48 110.15 77.86 107.22 74.49 C 104.22 69.43 103.69 63.17 105.65 57.64 C 106.05 56.43 106.46 55.23 106.88 54.04 C 106.44 53.55 105.57 52.58 105.14 52.10 C 105.69 52.26 106.79 52.59 107.33 52.75 M 119.95 79.52 C 119.85 80.97 119.82 82.42 119.87 83.87 C 119.51 87.14 118.30 90.21 117.54 93.39 C 119.48 92.93 121.83 93.27 123.49 92.03 C 123.55 90.96 123.59 89.89 123.60 88.83 C 123.06 85.57 122.77 81.73 119.95 79.52 M 119.27 94.18 L 119.46 95.15 L 118.96 94.11 C 118.22 94.37 116.75 94.89 116.01 95.15 C 114.86 97.02 113.50 98.84 112.95 101.01 C 111.65 109.45 116.28 118.50 123.91 122.31 C 126.89 122.61 129.87 122.16 132.83 121.94 L 132.96 122.46 L 131.43 123.20 C 130.49 129.40 131.22 136.24 134.94 141.48 C 139.45 142.23 142.72 145.46 146.13 148.21 C 142.96 141.66 137.62 136.14 136.37 128.73 C 136.45 126.51 136.30 124.30 136.28 122.09 C 135.48 122.26 133.87 122.60 133.06 122.77 L 132.88 121.49 C 137.91 120.63 142.68 118.83 147.39 116.96 C 146.39 115.40 145.52 113.77 144.74 112.09 C 145.71 110.36 146.48 108.26 148.34 107.27 C 151.25 107.57 152.80 110.48 155.01 112.02 C 153.97 109.53 151.99 107.67 150.49 105.48 C 149.14 102.68 152.40 101.00 153.94 99.26 C 142.88 95.25 131.07 92.86 119.27 94.18 M 151.57 102.95 C 150.74 105.18 153.17 106.33 154.28 107.84 C 154.99 109.14 155.72 110.43 156.45 111.71 C 159.08 109.57 158.60 105.92 157.85 102.99 C 157.00 101.96 156.02 101.06 154.91 100.31 C 153.77 101.15 152.53 101.89 151.57 102.95 M 60.38 102.12 C 60.09 103.50 60.65 104.05 62.05 103.79 C 62.34 102.42 61.79 101.86 60.38 102.12 M 104.58 107.35 L 104.51 107.54 C 101.04 110.43 97.73 113.63 93.61 115.58 C 91.86 116.53 89.86 117.13 88.50 118.67 C 88.57 117.52 88.98 116.54 89.74 115.74 C 90.80 115.34 91.85 114.91 92.90 114.47 C 90.78 115.16 87.51 113.26 86.55 116.01 C 87.16 116.68 87.78 117.34 88.38 118.03 C 86.51 121.19 88.52 124.76 88.93 128.03 C 89.68 132.80 90.66 137.50 91.89 142.17 C 93.90 142.39 95.93 142.56 97.95 142.33 C 105.67 141.31 113.48 140.33 120.74 137.35 C 123.85 135.82 126.97 134.29 130.18 132.98 C 130.21 129.73 130.16 126.48 130.11 123.23 C 127.51 123.56 124.87 123.58 122.28 123.17 C 118.15 120.62 115.45 116.53 113.17 112.36 C 111.99 108.98 111.31 105.42 111.83 101.85 C 109.59 103.92 107.12 105.70 104.58 107.35 M 100.85 103.96 C 100.56 105.64 103.60 106.63 103.79 104.57 C 104.74 102.33 101.37 102.18 100.85 103.96 M 65.06 106.01 C 76.33 112.88 90.45 112.05 102.45 107.64 C 101.16 106.39 99.91 104.59 98.03 104.34 C 94.33 104.86 90.72 106.15 86.93 105.72 C 82.14 105.20 77.50 106.52 73.04 108.09 C 69.95 106.80 67.38 104.19 64.10 103.54 C 61.71 103.91 64.07 105.62 65.06 106.01 M 29.37 108.06 C 29.08 110.15 29.79 112.19 30.27 114.19 C 32.39 111.89 33.87 109.09 35.99 106.78 C 34.26 104.25 30.05 105.09 29.37 108.06 M 67.87 108.59 C 64.89 114.06 64.75 120.65 65.17 126.72 C 65.50 130.09 65.14 134.59 68.83 136.24 C 71.75 137.59 74.88 139.82 78.11 139.54 L 78.11 140.21 C 82.31 140.91 86.49 141.73 90.72 142.23 C 89.06 134.53 86.78 126.76 86.90 118.83 C 83.94 116.88 80.75 115.32 77.96 113.12 C 75.07 110.68 71.18 110.25 67.87 108.59 M 147.18 114.83 C 149.50 114.66 152.00 114.84 153.99 113.39 C 152.35 111.66 150.92 109.65 148.81 108.46 C 146.13 109.24 146.20 112.71 147.18 114.83 M 32.58 118.65 C 34.93 118.96 37.51 120.26 39.83 119.38 C 40.71 118.05 43.22 114.45 40.09 114.27 C 37.30 115.17 34.74 116.69 32.58 118.65 M 139.49 121.27 C 138.11 121.48 136.70 122.88 137.95 124.22 C 137.00 131.52 141.04 138.22 145.19 143.87 C 145.86 141.84 146.89 139.79 146.70 137.59 C 147.45 131.37 147.08 125.07 145.97 118.93 C 143.81 119.71 141.63 120.44 139.49 121.27 M 118.09 139.53 C 109.68 142.03 100.92 143.11 92.18 143.50 C 93.43 147.89 95.46 151.98 97.28 156.15 C 99.00 156.73 100.72 157.26 102.46 157.77 L 102.11 158.00 C 107.54 158.88 112.61 161.31 118.14 161.66 C 119.61 160.45 119.75 158.29 120.61 156.67 C 122.95 150.29 127.96 145.25 133.82 141.98 C 132.44 139.45 131.25 136.83 130.18 134.16 C 126.22 136.10 122.03 137.60 118.09 139.53 M 66.29 135.88 C 68.48 143.68 72.47 151.02 78.21 156.78 L 78.22 156.92 C 80.46 159.52 83.33 161.42 86.19 163.27 C 89.60 161.07 92.75 158.53 95.94 156.04 C 93.93 151.98 92.52 147.68 91.13 143.38 C 88.25 142.94 85.39 142.35 82.48 142.17 C 76.76 140.96 71.41 138.64 66.29 135.88 M 91.10 161.30 L 90.97 161.32 C 89.71 162.24 88.48 163.19 87.25 164.14 C 96.46 169.78 108.61 173.15 118.90 168.53 C 118.99 169.07 119.18 170.15 119.27 170.69 C 119.90 170.65 121.17 170.55 121.80 170.50 C 119.70 168.38 119.15 165.37 117.93 162.76 C 111.97 161.96 106.28 160.01 100.63 158.06 C 96.99 155.63 93.49 158.65 91.10 161.30 Z" />
<path fill="#2c2f2c" opacity="1.00" d=" M 162.82 88.78 C 162.06 85.66 164.52 82.67 167.14 81.32 C 169.83 80.41 171.73 82.89 173.26 84.67 C 171.84 83.96 170.45 83.17 168.97 82.59 C 166.72 82.08 164.46 83.91 163.94 86.06 C 162.90 89.37 165.05 92.57 167.30 94.80 C 170.58 97.55 175.14 96.31 178.75 94.98 L 179.36 94.76 C 179.01 97.99 181.47 100.52 182.26 103.51 C 183.85 107.61 183.11 112.53 186.16 116.02 C 184.37 114.27 182.24 112.86 179.86 112.07 C 175.40 110.34 169.64 112.33 167.74 116.86 C 166.87 120.27 167.81 124.27 170.44 126.68 C 173.17 128.98 177.74 128.06 179.52 125.03 C 180.11 123.22 179.04 120.83 177.00 120.69 C 175.76 121.03 174.52 121.40 173.31 121.80 C 174.70 119.82 177.49 118.00 179.39 120.46 C 183.09 124.49 177.63 129.65 173.31 129.60 C 168.25 127.85 165.91 122.50 166.14 117.44 C 164.22 120.83 162.52 124.41 159.92 127.36 C 158.58 128.49 157.19 129.57 155.75 130.58 C 160.14 126.84 163.00 121.67 165.08 116.37 C 166.39 111.88 167.19 107.24 167.30 102.56 C 167.30 100.45 167.05 98.36 166.71 96.29 C 164.89 94.11 163.27 91.64 162.82 88.78 M 167.63 96.68 C 169.35 103.61 167.75 110.78 165.88 117.50 C 167.97 114.84 169.76 111.79 173.02 110.39 C 176.61 109.83 180.23 110.36 183.33 112.31 C 182.61 107.69 181.54 103.04 179.33 98.89 C 178.83 97.85 178.00 97.21 176.85 96.99 L 176.02 96.65 L 175.47 97.91 C 174.50 97.19 171.96 97.20 171.74 98.64 C 171.65 99.23 171.49 100.42 171.40 101.02 C 170.80 99.07 170.06 96.85 167.63 96.68 Z" />
<path fill="#2c2f2c" opacity="1.00" d=" M 75.29 100.74 C 76.93 99.92 77.49 102.55 76.36 103.36 C 75.87 103.42 74.88 103.54 74.39 103.60 C 73.81 102.45 74.11 101.49 75.29 100.74 Z" />
</g>
<g id="#b8dfebff">
<path fill="#b8dfeb" opacity="1.00" d=" M 55.75 39.84 C 55.87 37.94 57.66 36.98 58.76 35.68 C 60.46 42.31 61.79 49.14 61.45 56.01 C 61.39 59.06 58.65 61.03 57.21 63.49 C 54.17 55.98 54.30 47.68 55.75 39.84 Z" />
<path fill="#b8dfeb" opacity="1.00" d=" M 166.33 71.61 C 170.42 71.28 174.58 72.14 178.05 74.40 L 177.51 74.93 C 178.81 77.91 178.59 81.11 178.71 84.27 C 180.13 87.03 181.71 89.76 182.06 92.92 C 180.96 93.61 179.91 94.38 178.75 94.98 C 175.14 96.31 170.58 97.55 167.30 94.80 C 165.05 92.57 162.90 89.37 163.94 86.06 C 164.46 83.91 166.72 82.08 168.97 82.59 C 170.45 83.17 171.84 83.96 173.26 84.67 C 171.73 82.89 169.83 80.41 167.14 81.32 C 164.52 82.67 162.06 85.66 162.82 88.78 C 163.27 91.64 164.89 94.11 166.71 96.29 C 167.05 98.36 167.30 100.45 167.30 102.56 C 165.94 104.16 164.80 105.94 164.07 107.92 C 161.91 105.10 159.52 102.46 156.91 100.06 C 154.01 97.44 150.03 96.77 146.47 95.48 C 148.07 93.08 149.41 90.45 151.48 88.42 C 153.61 87.21 156.27 86.92 157.98 85.02 C 161.68 81.24 165.11 76.87 166.33 71.61 Z" />
<path fill="#b8dfeb" opacity="1.00" d=" M 150.50 116.36 C 153.14 115.11 155.56 113.42 158.34 112.47 C 160.11 112.43 161.89 112.42 163.67 112.41 C 164.14 113.73 164.61 115.05 165.08 116.37 C 163.00 121.67 160.14 126.84 155.75 130.58 C 154.19 131.98 151.53 132.64 151.13 134.97 C 149.96 140.50 149.84 146.21 148.42 151.71 C 147.12 149.99 147.50 147.83 147.53 145.83 C 147.09 145.44 146.22 144.66 145.78 144.28 C 146.35 144.64 147.49 145.36 148.06 145.72 C 149.39 137.13 148.87 128.45 147.60 119.90 C 147.02 117.93 149.16 117.11 150.50 116.36 Z" />
</g>
<g id="#c3e8f4ff">
<path fill="#c3e8f4" opacity="1.00" d=" M 60.50 39.62 C 62.14 41.83 63.48 44.25 64.52 46.80 C 64.80 46.51 65.35 45.93 65.62 45.64 C 66.08 48.31 66.25 51.01 66.32 53.71 C 64.92 54.87 63.54 56.05 62.16 57.23 C 62.79 51.30 61.99 45.37 60.50 39.62 Z" />
</g>
<g id="#1115169a">
<path fill="#111516" opacity="0.60" d=" M 115.31 42.28 C 114.71 40.54 115.31 39.78 117.13 40.02 C 116.76 40.97 116.16 41.72 115.31 42.28 Z" />
</g>
<g id="#e6edf0ff">
<path fill="#e6edf0" opacity="1.00" d=" M 130.47 46.98 C 132.37 44.83 134.21 42.62 136.04 40.41 C 137.81 49.28 133.76 57.93 128.39 64.75 C 128.12 60.38 130.35 55.88 128.48 51.68 C 127.95 50.31 129.25 49.09 129.76 47.95 C 129.94 47.70 130.29 47.22 130.47 46.98 Z" />
</g>
<g id="#cce5efff">
<path fill="#cce5ef" opacity="1.00" d=" M 112.17 60.80 C 113.26 54.75 115.27 48.62 119.55 44.05 C 119.53 48.42 117.02 52.16 116.10 56.34 C 117.64 55.13 118.85 53.59 119.92 51.96 C 120.58 52.55 121.23 53.14 121.89 53.72 C 123.79 51.54 125.49 49.15 127.69 47.25 C 128.21 47.43 129.25 47.77 129.76 47.95 C 129.25 49.09 127.95 50.31 128.48 51.68 C 130.35 55.88 128.12 60.38 128.39 64.75 C 125.10 67.72 125.08 72.14 123.85 76.07 L 123.82 76.14 L 123.17 75.39 C 119.36 77.36 115.14 76.38 111.08 76.84 C 108.48 74.67 106.33 71.72 105.62 68.39 C 106.97 65.43 108.94 62.79 111.40 60.66 C 110.75 63.58 110.34 66.56 110.39 69.56 C 111.56 66.78 111.54 63.72 112.17 60.80 Z" />
</g>
<g id="#afbddcff">
<path fill="#afbddc" opacity="1.00" d=" M 69.91 52.23 C 80.31 46.42 93.38 45.97 104.04 51.37 L 104.76 51.67 C 104.05 52.22 102.62 53.33 101.91 53.89 C 103.15 55.15 104.41 56.38 105.65 57.64 C 103.69 63.17 104.22 69.43 107.22 74.49 C 106.57 77.57 105.76 80.61 104.73 83.59 C 104.01 82.23 103.31 80.86 102.62 79.49 C 102.14 78.23 101.63 76.99 101.12 75.76 C 101.25 75.22 101.51 74.16 101.64 73.63 C 96.27 78.41 90.04 82.31 85.36 87.83 C 84.39 87.89 83.42 87.95 82.45 87.99 C 82.19 87.49 81.66 86.48 81.40 85.98 C 81.46 86.62 81.58 87.90 81.64 88.54 C 82.07 88.89 82.94 89.59 83.37 89.95 C 85.60 88.13 87.81 86.31 89.99 84.45 C 90.12 87.44 90.30 90.44 91.01 93.36 L 91.37 93.41 C 91.51 93.59 91.79 93.94 91.94 94.11 C 91.92 96.83 94.50 98.45 97.03 98.17 C 96.80 100.79 94.71 102.48 92.95 104.16 C 87.30 105.09 81.48 104.44 75.93 106.01 C 74.37 106.33 72.62 107.04 71.17 105.98 C 67.10 103.51 62.59 101.94 58.39 99.72 C 58.34 100.83 58.28 101.95 58.22 103.06 C 59.91 104.15 61.61 105.20 63.35 106.21 C 58.08 111.94 50.60 114.81 43.04 115.93 C 42.17 114.93 41.72 112.91 40.01 113.25 C 36.33 113.89 33.23 116.17 30.14 118.12 C 29.94 117.54 29.54 116.37 29.34 115.79 C 29.94 115.69 31.13 115.49 31.73 115.39 C 33.48 112.54 34.85 109.46 36.82 106.73 C 36.19 105.89 35.55 105.04 34.91 104.20 C 36.04 103.84 37.18 103.48 38.31 103.10 C 43.99 106.38 51.25 103.67 54.51 98.29 C 54.96 99.04 55.87 100.53 56.32 101.28 C 54.94 95.77 56.31 90.03 55.17 84.45 L 56.11 84.45 C 57.10 86.16 57.44 88.10 57.63 90.04 C 57.75 89.52 58.00 88.50 58.12 87.99 C 58.90 91.00 59.58 94.36 62.52 96.03 C 63.71 96.84 64.84 98.38 66.45 97.84 C 66.35 94.21 65.75 90.63 65.55 87.01 C 62.23 83.46 59.67 79.33 56.76 75.46 C 56.83 77.55 56.79 79.64 56.49 81.71 C 55.99 81.90 54.97 82.27 54.47 82.45 C 53.86 79.48 53.55 76.41 54.21 73.41 C 58.39 71.26 64.02 69.30 64.92 64.02 C 65.63 61.76 64.27 59.62 63.65 57.53 C 65.52 55.75 67.52 54.11 69.54 52.50 C 69.63 52.43 69.82 52.30 69.91 52.23 M 67.12 86.25 C 66.05 87.14 67.08 89.76 68.53 88.85 C 69.54 87.96 68.55 85.39 67.12 86.25 M 57.11 93.94 C 56.64 95.24 56.87 96.38 57.80 97.35 C 58.88 98.12 61.45 97.91 60.38 96.00 C 60.00 94.47 58.50 93.98 57.11 93.94 M 68.34 101.17 C 67.89 102.54 68.38 103.07 69.79 102.75 C 70.24 101.38 69.75 100.85 68.34 101.17 M 75.29 100.74 C 74.11 101.49 73.81 102.45 74.39 103.60 C 74.88 103.54 75.87 103.42 76.36 103.36 C 77.49 102.55 76.93 99.92 75.29 100.74 Z" />
<path fill="#afbddc" opacity="1.00" d=" M 119.27 94.18 C 131.07 92.86 142.88 95.25 153.94 99.26 C 152.40 101.00 149.14 102.68 150.49 105.48 C 151.99 107.67 153.97 109.53 155.01 112.02 C 152.80 110.48 151.25 107.57 148.34 107.27 C 146.48 108.26 145.71 110.36 144.74 112.09 C 144.39 112.14 143.68 112.26 143.32 112.31 C 141.68 112.19 140.05 112.02 138.41 111.87 C 140.92 107.28 141.17 101.95 142.90 97.09 C 138.98 96.51 135.54 98.31 132.47 100.52 C 131.28 99.70 130.11 98.81 128.82 98.15 C 125.92 98.20 123.15 99.16 120.36 99.82 C 120.08 98.26 119.80 96.70 119.46 95.15 L 119.27 94.18 Z" />
<path fill="#afbddc" opacity="1.00" d=" M 68.58 146.33 C 70.57 148.86 72.27 151.58 74.24 154.12 C 71.08 156.09 69.08 159.22 67.33 162.40 C 66.07 165.14 62.86 165.62 60.34 166.61 C 59.42 166.10 58.49 165.59 57.57 165.09 L 57.49 163.91 C 58.85 157.50 63.58 152.73 67.44 147.72 C 67.73 147.37 68.30 146.68 68.58 146.33 Z" />
</g>
<g id="#8ba8d1ff">
<path fill="#8ba8d1" opacity="1.00" d=" M 104.76 51.67 L 105.14 52.10 C 105.57 52.58 106.44 53.55 106.88 54.04 C 106.46 55.23 106.05 56.43 105.65 57.64 C 104.41 56.38 103.15 55.15 101.91 53.89 C 102.62 53.33 104.05 52.22 104.76 51.67 Z" />
</g>
<g id="#d6dcedff">
<path fill="#d6dced" opacity="1.00" d=" M 54.21 73.41 C 55.48 67.21 59.03 61.77 63.65 57.53 C 64.27 59.62 65.63 61.76 64.92 64.02 C 64.02 69.30 58.39 71.26 54.21 73.41 Z" />
</g>
<g id="#badfebff">
<path fill="#badfeb" opacity="1.00" d=" M 50.14 71.08 C 48.05 67.44 45.58 63.07 47.60 58.85 C 49.53 59.92 51.52 60.89 53.53 61.82 C 54.65 62.57 55.73 63.35 56.83 64.13 C 55.10 66.97 53.34 69.90 53.02 73.28 C 52.49 72.89 51.43 72.09 50.90 71.70 C 50.71 71.54 50.33 71.23 50.14 71.08 Z" />
<path fill="#badfeb" opacity="1.00" d=" M 189.90 123.20 C 190.51 128.27 190.61 133.68 188.42 138.41 C 185.34 145.27 180.57 151.25 174.87 156.11 C 174.66 156.26 174.26 156.56 174.06 156.71 C 168.41 160.42 162.25 163.20 155.72 164.96 C 154.70 162.91 153.69 160.87 152.68 158.82 C 154.82 158.10 156.96 157.34 159.07 156.52 C 156.78 157.02 154.51 157.58 152.24 158.13 C 151.66 157.10 151.09 156.06 150.52 155.02 C 157.21 152.68 163.05 148.50 168.08 143.58 C 170.35 143.97 171.71 141.90 173.25 140.65 C 174.79 141.25 176.61 142.39 178.20 141.24 C 180.71 139.34 182.38 136.58 184.11 134.01 C 186.50 130.62 186.50 125.93 189.90 123.20 Z" />
</g>
<g id="#e7eef1ff">
<path fill="#e7eef1" opacity="1.00" d=" M 146.20 87.72 C 149.78 79.60 157.10 72.34 166.33 71.61 C 165.11 76.87 161.68 81.24 157.98 85.02 C 156.27 86.92 153.61 87.21 151.48 88.42 C 149.41 90.45 148.07 93.08 146.47 95.48 C 146.11 95.34 145.38 95.07 145.02 94.93 C 145.26 92.67 145.64 90.43 146.03 88.18 C 146.07 88.07 146.16 87.84 146.20 87.72 Z" />
</g>
<g id="#7295c2ff">
<path fill="#7295c2" opacity="1.00" d=" M 107.22 74.49 C 110.15 77.86 114.14 80.48 118.80 80.10 C 118.93 90.71 113.39 101.30 103.97 106.44 C 104.23 102.47 107.93 100.68 110.29 98.08 C 107.50 98.73 105.41 100.89 102.77 101.89 C 99.61 103.09 96.27 103.64 92.95 104.16 C 94.71 102.48 96.80 100.79 97.03 98.17 C 97.14 97.41 97.36 95.91 97.47 95.16 C 97.83 95.65 98.53 96.64 98.89 97.14 C 99.25 97.15 99.96 97.19 100.32 97.21 C 101.75 97.87 103.16 99.17 104.86 98.69 C 106.97 98.35 108.07 96.35 109.31 94.85 L 108.08 94.61 C 106.86 94.35 105.65 94.07 104.44 93.79 C 104.71 90.45 105.05 86.96 103.46 83.87 C 103.11 82.95 102.79 82.02 102.50 81.08 C 102.53 80.68 102.59 79.89 102.62 79.49 C 103.31 80.86 104.01 82.23 104.73 83.59 C 105.76 80.61 106.57 77.57 107.22 74.49 Z" />
</g>
<g id="#e4fafcff">
<path fill="#e4fafc" opacity="1.00" d=" M 111.08 76.84 C 115.14 76.38 119.36 77.36 123.17 75.39 L 123.82 76.14 L 123.46 76.96 C 119.64 79.08 114.82 79.26 111.08 76.84 Z" />
</g>
<g id="#d4e9f1ff">
<path fill="#d4e9f1" opacity="1.00" d=" M 177.51 74.93 L 178.05 74.40 C 182.52 78.06 184.74 84.12 183.63 89.81 C 183.23 90.90 182.71 91.93 182.06 92.92 C 181.71 89.76 180.13 87.03 178.71 84.27 C 178.59 81.11 178.81 77.91 177.51 74.93 Z" />
<path fill="#d4e9f1" opacity="1.00" d=" M 164.07 107.92 C 164.80 105.94 165.94 104.16 167.30 102.56 C 167.19 107.24 166.39 111.88 165.08 116.37 C 164.61 115.05 164.14 113.73 163.67 112.41 C 161.89 112.42 160.11 112.43 158.34 112.47 C 159.84 109.87 159.85 106.83 159.58 103.93 C 160.51 105.46 161.43 107.01 162.36 108.54 C 161.38 109.47 160.38 110.39 159.59 111.49 C 161.61 111.00 163.64 110.13 164.07 107.92 Z" />
</g>
<g id="#583e3cff">
<path fill="#583e3c" opacity="1.00" d=" M 56.76 75.46 C 59.67 79.33 62.23 83.46 65.55 87.01 C 65.75 90.63 66.35 94.21 66.45 97.84 C 64.84 98.38 63.71 96.84 62.52 96.03 C 61.84 94.23 61.16 92.41 60.72 90.53 C 59.73 86.76 61.15 82.48 58.56 79.16 C 57.14 81.93 57.34 85.07 58.12 87.99 C 58.00 88.50 57.75 89.52 57.63 90.04 C 57.44 88.10 57.10 86.16 56.11 84.45 C 56.35 83.55 56.48 82.64 56.49 81.71 C 56.79 79.64 56.83 77.55 56.76 75.46 M 61.22 84.31 C 60.66 85.47 61.49 86.93 62.40 87.69 C 64.10 87.43 62.81 83.67 61.22 84.31 Z" />
</g>
<g id="#c8cfe3ff">
<path fill="#c8cfe3" opacity="1.00" d=" M 95.98 79.65 C 97.34 78.37 98.72 77.10 100.09 75.84 C 100.90 77.58 101.68 79.34 102.50 81.08 C 100.75 81.65 99.03 82.27 97.31 82.91 C 96.88 81.82 96.44 80.73 95.98 79.65 Z" />
</g>
<g id="#eef1f7ff">
<path fill="#eef1f7" opacity="1.00" d=" M 58.12 87.99 C 57.34 85.07 57.14 81.93 58.56 79.16 C 61.15 82.48 59.73 86.76 60.72 90.53 C 61.16 92.41 61.84 94.23 62.52 96.03 C 59.58 94.36 58.90 91.00 58.12 87.99 Z" />
</g>
<g id="#f4f5f8ff">
<path fill="#f4f5f8" opacity="1.00" d=" M 119.95 79.52 C 122.77 81.73 123.06 85.57 123.60 88.83 C 122.23 87.27 120.89 85.67 119.87 83.87 C 119.82 82.42 119.85 80.97 119.95 79.52 Z" />
</g>
<g id="#c7d8faff">
<path fill="#c7d8fa" opacity="1.00" d=" M 54.47 82.45 C 54.97 82.27 55.99 81.90 56.49 81.71 C 56.48 82.64 56.35 83.55 56.11 84.45 L 55.17 84.45 C 54.99 83.95 54.64 82.95 54.47 82.45 Z" />
</g>
<g id="#ffffffff">
<path fill="#ffffff" opacity="1.00" d=" M 91.46 83.07 C 92.63 82.17 93.80 81.29 94.99 80.42 C 95.83 82.34 96.18 85.90 92.99 85.39 C 92.61 84.81 91.84 83.65 91.46 83.07 Z" />
<path fill="#ffffff" opacity="1.00" d=" M 97.31 82.91 C 99.03 82.27 100.75 81.65 102.50 81.08 C 102.79 82.02 103.11 82.95 103.46 83.87 C 103.75 86.55 103.76 89.24 103.61 91.92 C 102.06 93.69 100.54 95.47 98.89 97.14 C 98.53 96.64 97.83 95.65 97.47 95.16 L 95.33 95.25 L 95.83 96.73 C 94.58 95.78 93.31 94.86 91.94 94.11 C 91.79 93.94 91.51 93.59 91.37 93.41 C 92.44 92.66 92.96 91.47 92.94 89.84 C 93.03 90.65 93.14 91.47 93.26 92.28 C 93.36 92.89 93.56 94.10 93.66 94.71 C 95.23 94.76 96.81 94.80 98.38 94.83 C 98.52 91.44 98.61 88.01 97.90 84.68 C 97.75 84.23 97.45 83.35 97.31 82.91 Z" />
<path fill="#ffffff" opacity="1.00" d=" M 171.74 98.64 C 171.96 97.20 174.50 97.19 175.47 97.91 C 174.90 99.32 172.90 98.95 171.74 98.64 Z" />
<path fill="#ffffff" opacity="1.00" d=" M 151.57 102.95 C 152.53 101.89 153.77 101.15 154.91 100.31 C 156.02 101.06 157.00 101.96 157.85 102.99 C 157.06 104.88 155.78 106.47 154.28 107.84 C 153.17 106.33 150.74 105.18 151.57 102.95 Z" />
<path fill="#ffffff" opacity="1.00" d=" M 29.37 108.06 C 30.05 105.09 34.26 104.25 35.99 106.78 C 33.87 109.09 32.39 111.89 30.27 114.19 C 29.79 112.19 29.08 110.15 29.37 108.06 Z" />
<path fill="#ffffff" opacity="1.00" d=" M 25.11 113.09 C 25.89 111.61 26.79 110.19 27.81 108.85 C 28.45 111.49 28.62 114.21 28.19 116.90 L 27.71 116.43 C 26.93 115.31 25.26 114.58 25.11 113.09 Z" />
<path fill="#ffffff" opacity="1.00" d=" M 132.57 120.90 L 132.94 121.98 L 132.88 121.49 L 133.06 122.77 C 133.87 122.60 135.48 122.26 136.28 122.09 C 136.30 124.30 136.45 126.51 136.37 128.73 C 136.10 129.53 135.82 130.32 135.53 131.11 C 134.55 128.26 133.69 125.38 132.96 122.46 L 132.83 121.94 L 132.57 120.90 Z" />
</g>
<g id="#dfe1e7ff">
<path fill="#dfe1e7" opacity="1.00" d=" M 61.22 84.31 C 62.81 83.67 64.10 87.43 62.40 87.69 C 61.49 86.93 60.66 85.47 61.22 84.31 Z" />
</g>
<g id="#bec5d3ff">
<path fill="#bec5d3" opacity="1.00" d=" M 119.87 83.87 C 120.89 85.67 122.23 87.27 123.60 88.83 C 123.59 89.89 123.55 90.96 123.49 92.03 C 121.83 93.27 119.48 92.93 117.54 93.39 C 118.30 90.21 119.51 87.14 119.87 83.87 Z" />
</g>
<g id="#573933ff">
<path fill="#573933" opacity="1.00" d=" M 96.26 85.93 C 96.67 85.62 97.49 84.99 97.90 84.68 C 98.61 88.01 98.52 91.44 98.38 94.83 C 96.81 94.80 95.23 94.76 93.66 94.71 C 93.56 94.10 93.36 92.89 93.26 92.28 C 93.98 92.49 95.43 92.89 96.16 93.09 C 96.20 90.71 96.24 88.32 96.26 85.93 Z" />
</g>
<g id="#7588a7ff">
<path fill="#7588a7" opacity="1.00" d=" M 67.12 86.25 C 68.55 85.39 69.54 87.96 68.53 88.85 C 67.08 89.76 66.05 87.14 67.12 86.25 Z" />
</g>
<g id="#cbbda4ff">
<path fill="#cbbda4" opacity="1.00" d=" M 124.92 91.67 C 125.21 90.42 125.44 89.16 125.62 87.89 L 126.78 89.26 C 127.45 90.28 128.50 90.91 129.61 91.36 C 130.06 91.62 130.98 92.13 131.44 92.38 C 129.27 92.09 127.09 91.91 124.92 91.67 Z" />
<path fill="#cbbda4" opacity="1.00" d=" M 122.28 123.17 C 124.87 123.58 127.51 123.56 130.11 123.23 C 130.16 126.48 130.21 129.73 130.18 132.98 C 126.97 134.29 123.85 135.82 120.74 137.35 C 118.83 132.71 121.98 127.90 122.28 123.17 Z" />
<path fill="#cbbda4" opacity="1.00" d=" M 118.09 139.53 C 122.03 137.60 126.22 136.10 130.18 134.16 C 131.25 136.83 132.44 139.45 133.82 141.98 C 127.96 145.25 122.95 150.29 120.61 156.67 C 119.75 158.29 119.61 160.45 118.14 161.66 C 112.61 161.31 107.54 158.88 102.11 158.00 L 102.46 157.77 C 109.74 153.70 113.45 146.04 118.09 139.53 Z" />
</g>
<g id="#232220bb">
<path fill="#232220" opacity="0.73" d=" M 126.78 89.26 C 127.98 88.12 130.61 89.86 129.61 91.36 C 128.50 90.91 127.45 90.28 126.78 89.26 Z" />
</g>
<g id="#99acd1ff">
<path fill="#99acd1" opacity="1.00" d=" M 103.61 91.92 C 103.58 92.33 103.53 93.16 103.50 93.57 L 104.44 93.79 C 105.65 94.07 106.86 94.35 108.08 94.61 C 105.11 93.84 102.71 95.81 100.32 97.21 C 99.96 97.19 99.25 97.15 98.89 97.14 C 100.54 95.47 102.06 93.69 103.61 91.92 Z" />
<path fill="#99acd1" opacity="1.00" d=" M 74.24 154.12 C 76.23 156.50 78.43 158.70 80.65 160.86 C 78.73 160.47 76.96 159.63 75.34 158.54 C 73.17 160.22 70.79 161.72 69.02 163.85 C 68.24 165.35 68.04 167.07 67.62 168.70 C 65.64 168.91 63.66 169.13 61.68 169.28 C 59.66 168.68 58.26 167.03 57.57 165.09 C 58.49 165.59 59.42 166.10 60.34 166.61 C 62.86 165.62 66.07 165.14 67.33 162.40 C 69.08 159.22 71.08 156.09 74.24 154.12 Z" />
</g>
<g id="#7b8ebdff">
<path fill="#7b8ebd" opacity="1.00" d=" M 57.11 93.94 C 58.50 93.98 60.00 94.47 60.38 96.00 C 61.45 97.91 58.88 98.12 57.80 97.35 C 56.87 96.38 56.64 95.24 57.11 93.94 Z" />
</g>
<g id="#403638ff">
<path fill="#403638" opacity="1.00" d=" M 91.94 94.11 C 93.31 94.86 94.58 95.78 95.83 96.73 L 95.33 95.25 L 97.47 95.16 C 97.36 95.91 97.14 97.41 97.03 98.17 C 94.50 98.45 91.92 96.83 91.94 94.11 Z" />
</g>
<g id="#3d6398ff">
<path fill="#3d6398" opacity="1.00" d=" M 100.32 97.21 C 102.71 95.81 105.11 93.84 108.08 94.61 L 109.31 94.85 C 108.07 96.35 106.97 98.35 104.86 98.69 C 103.16 99.17 101.75 97.87 100.32 97.21 Z" />
</g>
<g id="#6b8fbaff">
<path fill="#6b8fba" opacity="1.00" d=" M 116.01 95.15 C 116.75 94.89 118.22 94.37 118.96 94.11 C 118.15 99.59 118.35 106.99 124.07 109.79 C 130.11 112.18 136.86 113.66 143.32 112.31 C 143.68 112.26 144.39 112.14 144.74 112.09 C 145.52 113.77 146.39 115.40 147.39 116.96 C 142.68 118.83 137.91 120.63 132.88 121.49 L 132.94 121.98 L 132.57 120.90 L 132.83 121.94 C 129.87 122.16 126.89 122.61 123.91 122.31 C 116.28 118.50 111.65 109.45 112.95 101.01 C 113.50 98.84 114.86 97.02 116.01 95.15 Z" />
</g>
<g id="#a4b4d6ff">
<path fill="#a4b4d6" opacity="1.00" d=" M 118.96 94.11 L 119.46 95.15 C 119.80 96.70 120.08 98.26 120.36 99.82 C 123.15 99.16 125.92 98.20 128.82 98.15 C 130.11 98.81 131.28 99.70 132.47 100.52 C 135.54 98.31 138.98 96.51 142.90 97.09 C 141.17 101.95 140.92 107.28 138.41 111.87 C 140.05 112.02 141.68 112.19 143.32 112.31 C 136.86 113.66 130.11 112.18 124.07 109.79 C 118.35 106.99 118.15 99.59 118.96 94.11 Z" />
</g>
<g id="#b6dee9ff">
<path fill="#b6dee9" opacity="1.00" d=" M 167.63 96.68 C 170.06 96.85 170.80 99.07 171.40 101.02 C 171.49 100.42 171.65 99.23 171.74 98.64 C 172.90 98.95 174.90 99.32 175.47 97.91 L 176.02 96.65 L 176.85 96.99 C 178.70 100.78 179.80 104.88 180.42 109.04 C 177.93 109.29 175.29 109.17 173.02 110.39 C 169.76 111.79 167.97 114.84 165.88 117.50 C 167.75 110.78 169.35 103.61 167.63 96.68 Z" />
</g>
<g id="#c4cfe7ff">
<path fill="#c4cfe7" opacity="1.00" d=" M 49.52 99.15 C 49.71 99.09 50.10 98.97 50.29 98.91 C 51.35 98.75 53.46 98.44 54.51 98.29 C 51.25 103.67 43.99 106.38 38.31 103.10 C 42.04 101.78 45.79 100.50 49.52 99.15 Z" />
</g>
<g id="#707e96ff">
<path fill="#707e96" opacity="1.00" d=" M 68.34 101.17 C 69.75 100.85 70.24 101.38 69.79 102.75 C 68.38 103.07 67.89 102.54 68.34 101.17 Z" />
</g>
<g id="#c8ccd9ff">
<path fill="#c8ccd9" opacity="1.00" d=" M 60.38 102.12 C 61.79 101.86 62.34 102.42 62.05 103.79 C 60.65 104.05 60.09 103.50 60.38 102.12 Z" />
</g>
<g id="#ccbea4ff">
<path fill="#ccbea4" opacity="1.00" d=" M 104.58 107.35 C 107.12 105.70 109.59 103.92 111.83 101.85 C 111.31 105.42 111.99 108.98 113.17 112.36 C 109.18 114.25 104.72 113.40 100.50 113.15 C 101.72 111.69 102.98 110.25 104.09 108.71 C 104.19 108.42 104.40 107.83 104.51 107.54 L 104.58 107.35 Z" />
</g>
<g id="#e7e9f4ff">
<path fill="#e7e9f4" opacity="1.00" d=" M 100.85 103.96 C 101.37 102.18 104.74 102.33 103.79 104.57 C 103.60 106.63 100.56 105.64 100.85 103.96 Z" />
<path fill="#e7e9f4" opacity="1.00" d=" M 32.58 118.65 C 34.74 116.69 37.30 115.17 40.09 114.27 C 43.22 114.45 40.71 118.05 39.83 119.38 C 37.51 120.26 34.93 118.96 32.58 118.65 Z" />
</g>
<g id="#c8cfdcff">
<path fill="#c8cfdc" opacity="1.00" d=" M 157.85 102.99 C 158.60 105.92 159.08 109.57 156.45 111.71 C 155.72 110.43 154.99 109.14 154.28 107.84 C 155.78 106.47 157.06 104.88 157.85 102.99 Z" />
</g>
<g id="#7397c4ff">
<path fill="#7397c4" opacity="1.00" d=" M 65.06 106.01 C 64.07 105.62 61.71 103.91 64.10 103.54 C 67.38 104.19 69.95 106.80 73.04 108.09 C 77.50 106.52 82.14 105.20 86.93 105.72 C 90.72 106.15 94.33 104.86 98.03 104.34 C 99.91 104.59 101.16 106.39 102.45 107.64 C 90.45 112.05 76.33 112.88 65.06 106.01 Z" />
</g>
<g id="#7296c2ff">
<path fill="#7296c2" opacity="1.00" d=" M 63.35 106.21 C 64.34 106.78 65.33 107.35 66.32 107.92 C 64.68 113.29 64.04 118.88 63.94 124.48 C 54.58 125.47 45.22 123.53 36.21 121.17 C 37.81 120.82 39.47 120.68 41.03 120.14 C 41.82 118.80 42.39 117.34 43.04 115.93 C 50.60 114.81 58.08 111.94 63.35 106.21 Z" />
</g>
<g id="#fcecc9ff">
<path fill="#fcecc9" opacity="1.00" d=" M 93.61 115.58 C 97.73 113.63 101.04 110.43 104.51 107.54 C 104.40 107.83 104.19 108.42 104.09 108.71 C 102.98 110.25 101.72 111.69 100.50 113.15 C 104.72 113.40 109.18 114.25 113.17 112.36 C 115.45 116.53 118.15 120.62 122.28 123.17 C 121.98 127.90 118.83 132.71 120.74 137.35 C 113.48 140.33 105.67 141.31 97.95 142.33 C 95.93 142.56 93.90 142.39 91.89 142.17 C 90.66 137.50 89.68 132.80 88.93 128.03 C 88.52 124.76 86.51 121.19 88.38 118.03 C 87.78 117.34 87.16 116.68 86.55 116.01 C 87.51 113.26 90.78 115.16 92.90 114.47 C 91.85 114.91 90.80 115.34 89.74 115.74 C 88.98 116.54 88.57 117.52 88.50 118.67 C 89.86 117.13 91.86 116.53 93.61 115.58 Z" />
</g>
<g id="#fceccaff">
<path fill="#fcecca" opacity="1.00" d=" M 67.87 108.59 C 71.18 110.25 75.07 110.68 77.96 113.12 C 80.75 115.32 83.94 116.88 86.90 118.83 C 86.78 126.76 89.06 134.53 90.72 142.23 C 86.49 141.73 82.31 140.91 78.11 140.21 L 78.11 139.54 C 78.15 135.75 75.84 132.48 74.17 129.25 C 73.21 129.81 72.24 130.37 71.28 130.94 C 71.22 127.21 71.25 123.48 71.48 119.76 C 69.62 122.29 67.50 124.62 65.17 126.72 C 64.75 120.65 64.89 114.06 67.87 108.59 Z" />
</g>
<g id="#f5f4f9ff">
<path fill="#f5f4f9" opacity="1.00" d=" M 147.18 114.83 C 146.20 112.71 146.13 109.24 148.81 108.46 C 150.92 109.65 152.35 111.66 153.99 113.39 C 152.00 114.84 149.50 114.66 147.18 114.83 Z" />
</g>
<g id="#d0e7f0ff">
<path fill="#d0e7f0" opacity="1.00" d=" M 167.74 116.86 C 169.64 112.33 175.40 110.34 179.86 112.07 C 182.24 112.86 184.37 114.27 186.16 116.02 C 186.34 116.20 186.68 116.58 186.86 116.77 C 188.08 118.80 189.21 120.92 189.90 123.20 C 186.50 125.93 186.50 130.62 184.11 134.01 C 182.38 136.58 180.71 139.34 178.20 141.24 C 176.61 142.39 174.79 141.25 173.25 140.65 C 171.71 141.90 170.35 143.97 168.08 143.58 C 169.47 141.98 170.61 140.18 171.33 138.19 C 172.16 136.23 172.94 134.24 173.67 132.25 C 173.31 131.46 172.96 130.66 172.62 129.86 L 173.31 129.60 C 177.63 129.65 183.09 124.49 179.39 120.46 C 177.49 118.00 174.70 119.82 173.31 121.80 C 174.52 121.40 175.76 121.03 177.00 120.69 C 179.04 120.83 180.11 123.22 179.52 125.03 C 177.74 128.06 173.17 128.98 170.44 126.68 C 167.81 124.27 166.87 120.27 167.74 116.86 Z" />
</g>
<g id="#9d9085ff">
<path fill="#9d9085" opacity="1.00" d=" M 139.49 121.27 C 141.63 120.44 143.81 119.71 145.97 118.93 C 147.08 125.07 147.45 131.37 146.70 137.59 C 146.33 135.13 145.91 132.69 145.56 130.24 C 145.14 130.74 144.29 131.73 143.87 132.23 C 142.25 129.31 140.24 126.63 137.95 124.22 C 136.70 122.88 138.11 121.48 139.49 121.27 Z" />
</g>
<g id="#b9dfebff">
<path fill="#b9dfeb" opacity="1.00" d=" M 159.92 127.36 C 162.52 124.41 164.22 120.83 166.14 117.44 C 165.91 122.50 168.25 127.85 173.31 129.60 L 172.62 129.86 C 172.96 130.66 173.31 131.46 173.67 132.25 C 172.94 134.24 172.16 136.23 171.33 138.19 C 168.95 140.28 167.68 143.31 165.38 145.47 C 163.57 147.17 161.53 148.60 159.46 149.95 C 159.47 149.24 159.49 147.83 159.51 147.13 C 158.28 147.33 157.05 147.53 155.83 147.73 C 158.22 145.48 160.69 143.30 163.11 141.08 C 159.36 141.39 155.67 142.14 152.00 142.97 C 155.16 138.85 157.91 134.43 160.25 129.81 C 160.17 129.19 160.00 127.97 159.92 127.36 Z" />
</g>
<g id="#fbf5e8ff">
<path fill="#fbf5e8" opacity="1.00" d=" M 65.17 126.72 C 67.50 124.62 69.62 122.29 71.48 119.76 C 71.25 123.48 71.22 127.21 71.28 130.94 C 72.24 130.37 73.21 129.81 74.17 129.25 C 75.84 132.48 78.15 135.75 78.11 139.54 C 74.88 139.82 71.75 137.59 68.83 136.24 C 65.14 134.59 65.50 130.09 65.17 126.72 Z" />
</g>
<g id="#bcc4d0ff">
<path fill="#bcc4d0" opacity="1.00" d=" M 131.43 123.20 L 132.96 122.46 C 133.69 125.38 134.55 128.26 135.53 131.11 C 135.82 130.32 136.10 129.53 136.37 128.73 C 137.62 136.14 142.96 141.66 146.13 148.21 C 142.72 145.46 139.45 142.23 134.94 141.48 C 131.22 136.24 130.49 129.40 131.43 123.20 Z" />
</g>
<g id="#8f7c6cff">
<path fill="#8f7c6c" opacity="1.00" d=" M 137.95 124.22 C 140.24 126.63 142.25 129.31 143.87 132.23 C 144.29 131.73 145.14 130.74 145.56 130.24 C 145.91 132.69 146.33 135.13 146.70 137.59 C 146.89 139.79 145.86 141.84 145.19 143.87 C 141.04 138.22 137.00 131.52 137.95 124.22 Z" />
</g>
<g id="#a7d3e0ff">
<path fill="#a7d3e0" opacity="1.00" d=" M 155.75 130.58 C 157.19 129.57 158.58 128.49 159.92 127.36 C 160.00 127.97 160.17 129.19 160.25 129.81 C 157.91 134.43 155.16 138.85 152.00 142.97 C 155.67 142.14 159.36 141.39 163.11 141.08 C 160.69 143.30 158.22 145.48 155.83 147.73 C 157.05 147.53 158.28 147.33 159.51 147.13 C 159.49 147.83 159.47 149.24 159.46 149.95 C 156.51 151.75 153.31 153.07 150.13 154.40 C 149.55 153.51 148.98 152.61 148.42 151.71 C 149.84 146.21 149.96 140.50 151.13 134.97 C 151.53 132.64 154.19 131.98 155.75 130.58 Z" />
</g>
<g id="#f5f0e5ff">
<path fill="#f5f0e5" opacity="1.00" d=" M 66.29 135.88 C 71.41 138.64 76.76 140.96 82.48 142.17 C 80.98 142.47 79.51 142.84 78.03 143.20 C 77.44 147.72 77.82 152.26 78.21 156.78 C 72.47 151.02 68.48 143.68 66.29 135.88 Z" />
</g>
<g id="#fcebcbff">
<path fill="#fcebcb" opacity="1.00" d=" M 92.18 143.50 C 100.92 143.11 109.68 142.03 118.09 139.53 C 113.45 146.04 109.74 153.70 102.46 157.77 C 100.72 157.26 99.00 156.73 97.28 156.15 C 95.46 151.98 93.43 147.89 92.18 143.50 Z" />
</g>
<g id="#fcecccff">
<path fill="#fceccc" opacity="1.00" d=" M 82.48 142.17 C 85.39 142.35 88.25 142.94 91.13 143.38 C 92.52 147.68 93.93 151.98 95.94 156.04 C 92.75 158.53 89.60 161.07 86.19 163.27 C 83.33 161.42 80.46 159.52 78.22 156.92 L 78.21 156.78 C 77.82 152.26 77.44 147.72 78.03 143.20 C 79.51 142.84 80.98 142.47 82.48 142.17 Z" />
</g>
<g id="#6a8fb9ff">
<path fill="#6a8fb9" opacity="1.00" d=" M 132.92 143.81 C 134.77 142.89 137.13 142.56 138.83 143.98 C 147.16 149.28 150.93 158.71 155.42 167.02 L 156.07 168.06 L 156.16 168.53 C 157.30 174.60 159.42 180.44 161.31 186.31 C 159.73 185.56 158.15 184.66 156.38 184.44 C 155.28 185.05 154.28 185.82 153.26 186.54 C 151.76 186.93 150.61 187.91 149.69 189.12 C 149.59 189.22 149.40 189.42 149.31 189.51 C 148.09 190.55 146.85 191.79 145.17 191.94 C 144.47 189.42 143.77 186.89 143.01 184.39 C 141.32 185.60 139.63 186.83 137.83 187.89 C 135.49 188.27 133.16 188.74 130.84 189.21 C 131.43 187.94 131.32 186.69 130.53 185.45 C 130.11 181.32 127.82 177.76 125.82 174.23 C 130.09 175.00 134.56 176.21 138.87 175.01 C 142.98 173.53 146.27 170.26 148.03 166.28 C 145.33 163.76 142.48 161.23 138.90 160.05 C 134.15 158.12 128.94 158.33 123.92 158.38 C 123.25 157.62 122.59 156.87 121.92 156.12 C 124.00 150.92 127.71 146.12 132.92 143.81 Z" />
<path fill="#6a8fb9" opacity="1.00" d=" M 56.14 177.06 C 56.45 176.60 57.08 175.68 57.39 175.22 C 57.60 175.70 58.01 176.67 58.22 177.15 C 58.11 177.54 57.88 178.31 57.77 178.70 C 58.20 178.91 59.05 179.32 59.48 179.53 C 59.74 179.79 60.25 180.32 60.51 180.59 C 57.93 180.75 55.34 180.86 52.75 180.84 C 53.07 180.43 53.72 179.60 54.04 179.19 C 55.02 178.74 55.71 178.03 56.14 177.06 Z" />
</g>
<g id="#1f242dc1">
<path fill="#1f242d" opacity="0.76" d=" M 61.26 154.08 C 63.10 151.82 64.38 148.51 67.44 147.72 C 63.58 152.73 58.85 157.50 57.49 163.91 C 56.00 168.36 58.15 172.74 58.22 177.15 C 58.01 176.67 57.60 175.70 57.39 175.22 C 54.21 168.21 56.78 159.92 61.26 154.08 Z" />
</g>
<g id="#a7b6d8ff">
<path fill="#a7b6d8" opacity="1.00" d=" M 121.92 156.12 C 122.59 156.87 123.25 157.62 123.92 158.38 C 128.94 158.33 134.15 158.12 138.90 160.05 C 142.48 161.23 145.33 163.76 148.03 166.28 C 146.27 170.26 142.98 173.53 138.87 175.01 C 134.56 176.21 130.09 175.00 125.82 174.23 C 124.02 170.68 121.12 167.74 119.65 164.04 C 119.81 161.26 120.94 158.68 121.92 156.12 M 131.17 164.08 C 130.61 165.19 130.14 166.34 129.66 167.50 C 129.24 167.50 128.40 167.50 127.98 167.49 C 128.03 169.44 126.89 171.99 128.95 173.28 C 130.98 173.34 133.01 173.06 135.04 172.86 C 134.61 169.75 134.05 165.86 131.17 164.08 Z" />
<path fill="#a7b6d8" opacity="1.00" d=" M 129.09 189.14 C 128.94 187.71 129.42 186.48 130.53 185.45 C 131.32 186.69 131.43 187.94 130.84 189.21 C 130.40 189.20 129.53 189.16 129.09 189.14 Z" />
</g>
<g id="#efe4c5ff">
<path fill="#efe4c5" opacity="1.00" d=" M 91.10 161.30 C 93.49 158.65 96.99 155.63 100.63 158.06 C 97.67 159.68 94.51 161.07 91.10 161.30 Z" />
</g>
<g id="#8a9ec7ff">
<path fill="#8a9ec7" opacity="1.00" d=" M 69.02 163.85 C 70.79 161.72 73.17 160.22 75.34 158.54 C 76.96 159.63 78.73 160.47 80.65 160.86 C 81.15 161.27 81.66 161.67 82.18 162.05 C 76.93 167.34 69.38 172.27 61.68 169.28 C 63.66 169.13 65.64 168.91 67.62 168.70 C 68.04 167.07 68.24 165.35 69.02 163.85 Z" />
</g>
<g id="#d0c0a5ff">
<path fill="#d0c0a5" opacity="1.00" d=" M 100.63 158.06 C 106.28 160.01 111.97 161.96 117.93 162.76 C 119.15 165.37 119.70 168.38 121.80 170.50 C 121.17 170.55 119.90 170.65 119.27 170.69 C 119.18 170.15 118.99 169.07 118.90 168.53 C 108.61 173.15 96.46 169.78 87.25 164.14 C 88.48 163.19 89.71 162.24 90.97 161.32 L 91.10 161.30 C 94.51 161.07 97.67 159.68 100.63 158.06 Z" />
</g>
<g id="#5f7faaff">
<path fill="#5f7faa" opacity="1.00" d=" M 61.68 169.28 C 69.38 172.27 76.93 167.34 82.18 162.05 C 84.72 163.93 87.46 165.52 90.23 167.03 C 89.13 168.40 88.04 169.77 86.98 171.17 C 86.05 172.39 85.14 173.61 84.17 174.79 C 81.98 177.26 80.09 179.98 78.62 182.95 C 78.50 183.12 78.27 183.48 78.16 183.65 C 77.14 184.60 76.10 185.51 75.06 186.43 C 74.54 186.00 73.51 185.13 72.99 184.69 C 72.77 184.43 72.33 183.90 72.11 183.63 L 71.36 182.72 C 68.35 183.14 65.69 184.68 63.27 186.43 L 62.42 187.00 C 62.42 186.50 62.42 185.51 62.42 185.02 C 63.24 183.54 63.39 180.81 60.97 181.07 L 60.51 180.59 C 60.25 180.32 59.74 179.79 59.48 179.53 C 59.05 179.32 58.20 178.91 57.77 178.70 C 57.88 178.31 58.11 177.54 58.22 177.15 C 58.15 172.74 56.00 168.36 57.49 163.91 L 57.57 165.09 C 58.26 167.03 59.66 168.68 61.68 169.28 Z" />
</g>
<g id="#c4cfe6ff">
<path fill="#c4cfe6" opacity="1.00" d=" M 131.17 164.08 C 134.05 165.86 134.61 169.75 135.04 172.86 C 133.01 173.06 130.98 173.34 128.95 173.28 C 126.89 171.99 128.03 169.44 127.98 167.49 C 128.40 167.50 129.24 167.50 129.66 167.50 C 130.14 166.34 130.61 165.19 131.17 164.08 Z" />
</g>
<g id="#161e29bf">
<path fill="#161e29" opacity="0.75" d=" M 78.62 182.95 C 80.09 179.98 81.98 177.26 84.17 174.79 C 83.22 177.99 81.39 181.01 78.62 182.95 Z" />
</g>
<g id="#8ea0c8ff">
<path fill="#8ea0c8" opacity="1.00" d=" M 60.97 181.07 C 63.39 180.81 63.24 183.54 62.42 185.02 C 60.92 184.66 59.83 182.28 60.97 181.07 Z" />
</g>
<g id="#19212cbf">
<path fill="#19212c" opacity="0.75" d=" M 63.27 186.43 C 65.69 184.68 68.35 183.14 71.36 182.72 L 72.11 183.63 C 68.85 183.53 66.42 186.13 63.27 186.43 Z" />
</g>
<g id="#07090c9d">
<path fill="#07090c" opacity="0.62" d=" M 75.06 186.43 C 76.10 185.51 77.14 184.60 78.16 183.65 C 77.58 184.80 77.48 186.59 76.02 187.03 C 74.34 187.72 73.29 186.08 72.99 184.69 C 73.51 185.13 74.54 186.00 75.06 186.43 Z" />
</g>
<g id="#abb9d9ff">
<path fill="#abb9d9" opacity="1.00" d=" M 137.83 187.89 C 139.63 186.83 141.32 185.60 143.01 184.39 C 143.77 186.89 144.47 189.42 145.17 191.94 C 143.73 191.21 142.29 190.47 140.87 189.71 C 140.47 189.47 139.68 188.99 139.28 188.75 C 138.92 188.53 138.19 188.10 137.83 187.89 Z" />
</g>
<g id="#a0b5dbff">
<path fill="#a0b5db" opacity="1.00" d=" M 156.38 184.44 C 158.15 184.66 159.73 185.56 161.31 186.31 C 161.53 187.00 161.97 188.39 162.19 189.09 C 159.16 188.42 156.19 187.54 153.26 186.54 C 154.28 185.82 155.28 185.05 156.38 184.44 Z" />
</g>
<g id="#111318ac">
<path fill="#111318" opacity="0.67" d=" M 140.87 189.71 C 142.29 190.47 143.73 191.21 145.17 191.94 C 146.85 191.79 148.09 190.55 149.31 189.51 C 148.69 194.68 142.81 192.98 140.87 189.71 Z" />
</g>
</svg>
