<?xml version="1.0" encoding="UTF-8" ?>
<!DOCTYPE svg PUBLIC "-//W3C//DTD SVG 1.1//EN" "http://www.w3.org/Graphics/SVG/1.1/DTD/svg11.dtd">
<svg width="215pt" height="215pt" viewBox="0 0 215 215" version="1.1" xmlns="http://www.w3.org/2000/svg">
<g id="#161718ff">
<path fill="#161718" opacity="1.00" d=" M 67.29 25.55 C 71.81 24.37 76.27 22.67 81.00 22.58 C 87.80 22.33 94.84 21.53 101.40 23.84 C 111.50 27.22 121.35 32.37 128.48 40.46 C 128.69 40.96 129.11 41.96 129.32 42.46 C 121.85 33.92 111.67 28.12 100.94 24.72 C 103.77 27.28 107.45 30.42 106.44 34.75 C 106.26 39.80 101.55 43.09 97.03 44.13 C 87.66 46.42 77.88 47.80 69.21 52.29 C 64.93 54.27 67.17 60.18 64.04 63.10 C 62.37 65.10 59.56 64.71 57.25 65.02 C 54.25 62.59 53.32 58.98 53.13 55.29 C 50.44 51.43 45.41 50.64 41.31 48.99 L 40.03 48.57 C 37.28 52.13 36.74 56.71 35.92 60.99 C 34.79 67.34 35.71 73.95 38.06 79.91 C 38.72 81.37 39.50 82.76 40.27 84.17 C 42.20 80.13 44.34 75.71 48.60 73.69 C 53.14 71.62 58.04 70.14 63.03 69.78 C 69.37 69.71 75.62 71.72 81.08 74.88 C 84.26 77.71 87.73 80.33 90.10 83.93 C 93.06 88.00 94.94 92.96 99.02 96.11 C 104.28 100.57 111.72 103.11 118.46 100.69 C 127.77 98.65 133.87 89.96 136.23 81.22 C 137.59 75.42 138.46 69.42 137.82 63.46 C 136.87 56.00 133.10 49.45 129.60 42.97 C 132.07 44.35 133.41 47.05 134.55 49.54 C 135.92 53.30 137.85 56.91 138.42 60.92 C 139.29 66.02 138.98 71.24 138.29 76.34 C 146.79 83.51 150.13 95.16 149.70 105.96 C 149.42 111.02 149.00 116.31 146.51 120.84 C 144.69 124.48 143.27 128.43 140.43 131.45 C 137.96 133.96 135.14 136.11 132.17 138.00 C 132.75 142.78 130.54 147.70 133.11 152.17 C 132.58 151.56 131.52 150.35 130.99 149.74 C 129.65 157.84 123.26 164.10 115.56 166.43 C 121.34 175.59 132.11 179.99 142.39 181.70 C 144.34 182.21 144.85 179.67 145.56 178.41 C 147.15 173.20 147.94 166.48 143.86 162.19 C 140.31 159.36 135.79 157.44 133.79 153.07 C 140.50 160.15 150.07 165.29 160.06 164.15 C 161.62 164.14 163.80 162.21 164.95 163.86 C 164.35 164.10 163.14 164.59 162.54 164.83 C 163.61 165.59 164.70 166.33 165.77 167.10 C 168.59 169.87 167.80 173.97 167.41 177.48 C 170.39 175.14 173.86 173.06 175.67 169.60 C 177.18 166.68 179.03 162.89 176.48 159.96 C 172.89 158.67 170.24 162.08 167.11 163.16 C 166.71 163.14 165.92 163.11 165.52 163.09 C 168.16 161.44 170.87 159.92 173.46 158.18 C 173.64 156.11 174.64 154.31 176.85 153.85 C 173.89 145.57 173.96 136.60 175.01 127.99 C 176.12 124.90 176.40 120.84 179.28 118.84 C 175.52 126.87 174.53 135.98 175.95 144.69 C 176.09 145.61 176.24 146.52 176.39 147.44 C 176.75 150.01 177.81 152.39 179.11 154.61 C 182.25 152.40 183.94 148.83 185.51 145.44 C 187.23 141.42 189.09 137.44 190.23 133.21 C 190.97 130.47 191.50 127.67 191.68 124.84 C 191.45 121.32 191.43 117.02 188.14 114.85 C 187.14 114.02 186.01 113.44 184.73 113.12 C 188.20 112.95 191.45 115.02 192.29 118.48 C 194.22 127.64 190.45 136.65 186.75 144.83 C 185.18 148.50 183.44 152.20 180.55 155.04 C 182.35 157.56 180.96 160.53 178.66 162.12 C 178.88 168.05 174.70 172.70 171.73 177.42 L 171.41 177.45 C 168.25 177.49 165.00 179.86 164.67 183.14 L 164.51 183.87 C 158.54 187.69 151.85 190.29 144.92 191.76 C 144.21 191.66 142.77 191.47 142.05 191.38 C 146.30 190.10 150.83 189.80 154.91 187.94 C 158.45 186.26 162.49 184.55 164.11 180.67 C 158.22 182.50 152.13 183.72 145.93 183.31 C 143.72 182.89 142.69 185.18 141.36 186.47 C 139.21 189.06 135.86 190.06 133.05 191.75 C 135.73 191.64 138.41 191.37 141.09 191.62 C 140.24 192.97 138.36 192.33 137.05 192.62 C 133.01 192.85 128.94 192.77 124.91 192.39 C 123.93 192.41 123.12 192.06 122.48 191.32 C 126.15 191.14 129.94 191.23 133.45 189.93 C 137.12 188.78 140.42 186.53 142.34 183.12 C 135.83 181.94 129.50 179.92 123.89 176.37 C 121.37 179.15 118.69 181.98 115.11 183.37 C 111.07 185.09 106.62 184.64 102.35 185.06 C 108.19 188.76 115.45 188.71 121.73 191.37 C 117.61 191.85 113.74 190.08 109.81 189.16 C 102.88 187.58 96.70 183.89 90.79 180.09 C 88.74 178.43 86.23 177.08 84.98 174.67 C 90.26 178.97 95.98 183.17 102.89 184.28 C 105.81 184.27 108.69 183.65 111.55 183.11 C 116.13 182.28 119.66 179.13 122.59 175.71 C 121.66 174.90 120.72 174.11 119.80 173.29 C 117.10 170.88 115.31 167.22 111.64 166.11 C 108.31 171.74 100.63 174.55 94.87 170.84 C 90.15 171.22 85.44 170.61 80.91 169.23 C 82.06 170.79 83.22 172.34 84.31 173.95 C 81.63 173.10 80.74 169.99 79.10 167.98 C 75.85 169.64 72.00 170.55 68.45 169.29 C 62.90 167.39 60.07 160.19 62.94 155.04 C 60.97 151.06 61.38 146.17 64.60 142.96 C 62.05 140.48 58.05 142.89 55.43 140.53 C 49.58 136.52 48.58 127.19 53.55 122.10 C 53.95 120.35 53.36 116.98 55.28 116.37 C 55.01 118.09 54.81 119.83 54.60 121.56 C 63.11 120.98 68.07 132.20 64.42 139.16 C 64.14 139.67 63.58 140.70 63.30 141.21 C 71.42 147.14 82.68 148.37 91.75 143.91 C 90.64 142.46 89.52 141.01 88.52 139.49 C 84.90 133.18 89.89 125.30 96.20 123.22 C 97.46 123.02 98.73 122.83 100.01 122.68 C 99.73 119.16 99.66 115.64 99.88 112.13 C 97.60 110.24 95.03 108.72 92.22 107.76 C 90.08 107.07 87.88 106.56 85.67 106.12 C 80.30 111.53 72.22 113.18 64.85 113.14 C 62.60 112.85 60.37 112.46 58.14 112.08 C 57.35 113.06 56.57 114.05 55.80 115.05 C 56.11 114.19 56.73 112.47 57.04 111.61 C 51.01 109.00 44.55 104.96 42.66 98.29 C 43.30 99.00 44.60 100.40 45.24 101.10 C 45.16 98.64 45.11 96.12 45.85 93.74 C 46.23 93.16 47.00 92.01 47.39 91.43 C 49.98 88.18 53.55 85.44 57.76 84.85 C 66.91 84.14 77.55 88.44 80.83 97.62 C 82.29 101.29 81.46 105.25 79.21 108.41 L 79.05 108.68 L 79.23 108.92 L 79.47 108.65 L 79.21 108.41 C 86.49 106.03 92.44 98.86 92.25 90.99 C 91.76 87.48 89.40 84.62 87.08 82.09 C 82.82 77.78 78.02 73.48 71.89 72.22 C 64.34 70.63 55.92 71.10 49.15 75.07 C 44.75 77.49 42.10 82.21 41.09 86.99 C 40.40 90.19 41.71 93.31 42.09 96.46 L 41.88 97.24 C 40.25 93.69 39.90 89.77 40.24 85.92 C 32.18 74.92 33.88 60.08 38.55 48.07 C 33.79 46.73 27.75 46.26 24.69 41.91 C 32.13 46.10 40.74 47.15 48.56 50.35 C 50.90 51.48 53.88 52.81 54.10 55.77 C 54.89 58.22 54.61 61.46 57.06 62.99 C 59.49 64.89 63.57 63.23 64.15 60.25 C 65.00 57.05 64.84 52.90 68.39 51.30 C 75.81 47.65 83.95 45.75 92.00 44.08 C 96.23 43.07 100.99 42.13 103.86 38.54 C 105.60 35.96 105.11 32.56 104.45 29.69 C 102.55 27.04 99.35 25.34 96.11 26.65 C 87.40 29.88 79.19 34.34 71.21 39.08 C 66.50 41.70 61.16 44.17 55.63 43.10 C 51.57 42.08 48.59 38.92 45.02 36.92 C 40.51 34.42 36.61 30.77 31.57 29.30 C 30.36 29.41 29.15 29.60 27.96 29.86 C 27.43 29.97 26.38 30.20 25.85 30.31 C 26.96 27.68 30.66 27.97 32.98 28.41 C 38.29 30.86 42.67 34.92 47.92 37.50 C 53.88 32.80 59.99 27.97 67.29 25.55 M 82.80 23.40 C 75.15 23.63 67.82 26.44 60.97 29.66 C 56.88 32.02 52.55 34.25 49.35 37.81 L 49.77 39.03 L 50.34 38.93 C 53.38 41.13 57.57 43.15 61.28 41.59 C 62.36 41.40 63.44 41.19 64.52 40.95 L 64.57 40.69 C 71.80 37.95 78.06 33.14 85.14 30.01 C 90.06 28.28 94.44 24.14 100.02 25.33 L 99.99 24.42 C 94.32 23.54 88.54 22.70 82.80 23.40 M 138.01 77.80 C 137.88 78.64 137.62 80.31 137.49 81.15 C 136.28 86.87 133.00 91.89 129.24 96.26 C 125.35 100.63 119.45 102.30 113.83 102.90 C 110.83 103.06 107.87 102.51 105.13 101.27 C 104.00 102.57 103.15 104.08 102.73 105.76 C 101.12 111.25 99.67 117.38 102.08 122.87 C 103.69 124.30 105.63 125.34 107.07 126.96 C 109.12 128.98 109.48 131.97 110.41 134.57 C 111.21 134.99 112.00 135.41 112.80 135.83 C 117.66 137.45 122.83 139.55 128.01 138.12 C 135.86 135.93 142.15 129.41 144.89 121.84 C 148.36 116.91 148.17 110.72 148.68 104.99 C 148.63 95.19 146.22 84.06 138.01 77.80 M 56.92 86.42 C 53.30 87.35 49.96 89.66 48.23 93.03 C 47.99 93.36 47.51 94.03 47.27 94.36 L 47.09 94.29 C 46.65 96.77 45.68 99.35 46.35 101.86 C 47.84 105.75 51.88 107.53 55.31 109.36 L 55.31 109.81 C 61.82 111.82 69.35 113.13 75.62 109.71 C 79.68 107.39 80.70 102.31 79.92 98.02 L 79.52 98.49 C 79.04 95.03 76.26 92.41 73.71 90.24 C 69.12 86.32 62.71 85.61 56.92 86.42 M 53.83 122.74 L 53.97 123.14 C 50.84 125.91 50.79 130.73 51.99 134.44 L 51.79 134.85 C 54.25 138.20 58.05 142.61 62.66 139.98 C 64.80 136.85 65.25 132.77 63.33 129.41 L 63.50 129.06 C 61.37 125.73 58.30 121.90 53.83 122.74 M 93.94 125.33 C 92.02 126.95 90.41 128.89 89.24 131.11 C 88.81 132.67 88.65 134.27 88.60 135.88 C 89.46 140.04 92.59 143.97 97.07 144.35 C 101.23 145.17 105.08 142.42 107.35 139.17 C 109.59 135.30 108.29 130.34 105.43 127.17 C 104.00 126.09 102.67 124.77 100.95 124.17 C 98.54 123.75 96.16 124.50 93.94 125.33 M 109.91 135.66 C 109.44 138.12 108.17 140.29 106.56 142.19 C 111.23 145.33 113.28 151.67 110.74 156.81 C 111.79 159.42 112.00 162.22 111.91 165.00 C 115.85 165.65 119.41 163.51 122.55 161.43 C 127.20 157.93 129.02 152.21 130.70 146.90 C 131.55 144.28 131.45 141.49 131.12 138.79 C 123.99 140.52 116.07 139.97 109.91 135.66 M 94.32 144.99 C 91.74 144.35 89.55 146.77 86.99 147.01 C 79.84 147.83 71.73 148.52 65.60 143.95 C 62.55 146.71 62.01 151.20 63.73 154.83 C 65.29 158.53 68.27 161.33 71.48 163.64 C 78.17 167.74 86.01 170.31 93.94 169.67 C 91.37 165.57 91.68 159.66 95.43 156.39 C 99.24 152.54 105.73 152.84 109.92 155.92 C 110.57 151.21 110.26 145.78 105.99 142.79 C 102.61 145.12 98.33 146.44 94.32 144.99 M 96.64 156.60 C 95.66 157.81 94.65 158.99 93.63 160.16 C 93.41 163.06 93.13 166.18 94.84 168.72 C 98.12 172.46 103.34 171.11 107.28 169.34 C 110.98 166.40 111.64 160.13 108.37 156.67 C 105.01 154.34 99.99 154.09 96.64 156.60 M 174.27 157.11 C 175.93 158.28 177.52 159.54 179.03 160.90 C 179.98 159.27 180.78 157.29 179.32 155.68 C 177.99 153.24 174.94 155.16 174.27 157.11 M 62.78 157.08 C 62.14 160.50 63.31 163.74 65.59 166.27 C 68.33 168.97 73.39 170.00 76.48 167.34 C 74.36 166.59 72.30 165.65 70.43 164.40 C 67.40 162.46 65.52 159.25 62.78 157.08 M 145.52 162.84 C 146.23 164.06 146.94 165.29 147.65 166.52 C 149.05 172.00 147.12 177.33 145.25 182.42 C 151.14 182.76 156.83 181.13 162.48 179.69 C 163.77 179.29 165.19 178.92 166.10 177.83 C 167.39 174.05 166.92 169.63 163.77 166.91 C 163.44 166.96 162.78 167.06 162.45 167.10 L 162.96 165.89 C 157.04 165.45 151.10 165.08 145.52 162.84 Z" />
<path fill="#161718" opacity="1.00" d=" M 166.70 181.56 C 167.11 181.22 167.93 180.52 168.34 180.17 L 168.49 180.98 C 168.04 181.13 167.15 181.42 166.70 181.56 Z" />
</g>
<g id="#add8a2ff">
<path fill="#add8a2" opacity="1.00" d=" M 82.80 23.40 C 88.54 22.70 94.32 23.54 99.99 24.42 L 100.02 25.33 C 94.44 24.14 90.06 28.28 85.14 30.01 C 83.54 28.39 81.91 26.78 80.27 25.20 C 82.21 25.01 84.15 24.81 86.10 24.60 C 85.00 24.19 83.90 23.79 82.80 23.40 Z" />
<path fill="#add8a2" opacity="1.00" d=" M 167.11 163.16 C 170.24 162.08 172.89 158.67 176.48 159.96 C 175.01 160.85 173.53 161.73 172.03 162.58 C 173.66 163.34 175.18 164.32 176.38 165.68 C 175.25 165.15 174.14 164.60 173.04 164.05 C 172.51 164.26 171.46 164.69 170.94 164.90 C 170.49 166.12 170.06 167.34 169.63 168.57 C 169.24 167.32 168.85 166.07 168.45 164.83 C 167.55 165.58 166.65 166.33 165.77 167.10 C 164.70 166.33 163.61 165.59 162.54 164.83 C 163.14 164.59 164.35 164.10 164.95 163.86 C 165.49 163.68 166.57 163.33 167.11 163.16 Z" />
</g>
<g id="#c7e3bdff">
<path fill="#c7e3bd" opacity="1.00" d=" M 60.97 29.66 C 67.82 26.44 75.15 23.63 82.80 23.40 C 83.90 23.79 85.00 24.19 86.10 24.60 C 84.15 24.81 82.21 25.01 80.27 25.20 C 81.91 26.78 83.54 28.39 85.14 30.01 C 78.06 33.14 71.80 37.95 64.57 40.69 C 64.63 40.36 64.76 39.70 64.82 39.37 C 66.68 38.30 68.55 37.25 70.35 36.09 C 67.84 35.88 65.34 35.68 62.84 35.45 C 62.23 33.52 61.61 31.58 60.97 29.66 Z" />
</g>
<g id="#87c877ff">
<path fill="#87c877" opacity="1.00" d=" M 100.94 24.72 C 111.67 28.12 121.85 33.92 129.32 42.46 C 129.39 42.59 129.53 42.84 129.60 42.97 C 133.10 49.45 136.87 56.00 137.82 63.46 C 136.16 61.41 134.65 59.20 133.76 56.70 C 132.69 48.83 126.42 42.55 119.00 40.26 C 113.16 37.83 106.02 40.35 102.27 45.24 C 99.24 48.74 98.29 53.48 98.40 57.98 C 97.57 70.04 109.46 80.21 121.09 79.61 C 118.22 81.61 115.48 84.25 111.80 84.51 C 108.02 84.86 104.14 85.15 100.40 84.38 C 94.80 82.62 89.84 79.35 85.13 75.95 C 84.00 74.97 82.52 74.81 81.08 74.88 C 75.62 71.72 69.37 69.71 63.03 69.78 C 58.04 70.14 53.14 71.62 48.60 73.69 C 44.34 75.71 42.20 80.13 40.27 84.17 C 39.50 82.76 38.72 81.37 38.06 79.91 C 39.13 76.28 37.57 72.67 37.28 69.05 C 36.36 62.10 38.68 55.30 41.31 48.99 C 45.41 50.64 50.44 51.43 53.13 55.29 C 53.32 58.98 54.25 62.59 57.25 65.02 C 59.56 64.71 62.37 65.10 64.04 63.10 C 67.17 60.18 64.93 54.27 69.21 52.29 C 77.88 47.80 87.66 46.42 97.03 44.13 C 101.55 43.09 106.26 39.80 106.44 34.75 C 107.45 30.42 103.77 27.28 100.94 24.72 Z" />
<path fill="#87c877" opacity="1.00" d=" M 129.24 96.26 C 133.00 91.89 136.28 86.87 137.49 81.15 C 140.50 85.10 143.31 89.27 145.05 93.97 C 145.22 96.41 145.15 98.87 145.03 101.31 C 143.81 101.63 142.60 102.00 141.42 102.43 C 140.29 103.66 140.19 105.48 139.61 106.99 C 130.75 104.15 122.58 113.62 123.18 122.03 C 122.76 126.25 126.63 130.33 130.95 129.58 C 137.43 128.69 141.36 122.48 143.10 116.70 C 143.26 117.42 143.58 118.85 143.74 119.57 C 144.03 120.14 144.61 121.27 144.89 121.84 C 142.15 129.41 135.86 135.93 128.01 138.12 C 122.83 139.55 117.66 137.45 112.80 135.83 C 113.94 135.51 115.09 135.20 116.23 134.89 C 113.84 131.94 110.55 129.05 110.47 124.96 C 110.19 117.55 109.86 109.48 113.83 102.90 C 119.45 102.30 125.35 100.63 129.24 96.26 Z" />
<path fill="#87c877" opacity="1.00" d=" M 56.92 86.42 C 62.71 85.61 69.12 86.32 73.71 90.24 C 76.26 92.41 79.04 95.03 79.52 98.49 C 77.18 101.58 73.83 103.68 70.28 105.12 C 65.58 107.34 60.27 106.42 55.26 106.68 C 55.28 107.57 55.29 108.46 55.31 109.36 C 51.88 107.53 47.84 105.75 46.35 101.86 C 45.68 99.35 46.65 96.77 47.09 94.29 L 47.27 94.36 C 52.78 97.21 58.63 92.77 61.29 88.05 C 61.52 87.73 61.98 87.09 62.21 86.77 C 60.45 86.63 58.69 86.49 56.92 86.42 Z" />
<path fill="#87c877" opacity="1.00" d=" M 133.21 110.13 C 136.27 108.18 140.21 110.60 140.42 114.07 C 141.73 120.52 135.77 129.32 128.64 127.37 C 122.64 122.68 127.22 112.72 133.21 110.13 Z" />
</g>
<g id="#f47c55ff">
<path fill="#f47c55" opacity="1.00" d=" M 71.21 39.08 C 79.19 34.34 87.40 29.88 96.11 26.65 C 99.35 25.34 102.55 27.04 104.45 29.69 C 100.77 30.93 99.34 35.09 95.82 36.57 C 90.19 39.28 84.44 41.78 78.38 43.34 C 72.43 44.83 66.89 47.55 60.94 49.01 C 55.67 50.24 50.52 47.95 45.59 46.37 C 37.58 43.62 29.25 40.72 23.08 34.66 C 23.82 33.28 24.61 31.93 25.36 30.56 L 25.45 30.40 L 25.85 30.31 C 26.38 30.20 27.43 29.97 27.96 29.86 C 26.20 31.20 25.93 33.28 27.83 34.69 C 29.11 34.11 30.40 33.52 31.67 32.93 C 31.65 32.02 31.60 30.21 31.57 29.30 C 36.61 30.77 40.51 34.42 45.02 36.92 C 48.59 38.92 51.57 42.08 55.63 43.10 C 61.16 44.17 66.50 41.70 71.21 39.08 M 76.05 38.81 C 79.94 38.33 83.50 36.62 87.14 35.26 C 90.26 33.80 93.89 32.82 96.14 30.04 C 88.79 31.08 82.69 35.82 76.05 38.81 Z" />
</g>
<g id="#fbc8b7ff">
<path fill="#fbc8b7" opacity="1.00" d=" M 27.96 29.86 C 29.15 29.60 30.36 29.41 31.57 29.30 C 31.60 30.21 31.65 32.02 31.67 32.93 C 30.40 33.52 29.11 34.11 27.83 34.69 C 25.93 33.28 26.20 31.20 27.96 29.86 Z" />
<path fill="#fbc8b7" opacity="1.00" d=" M 76.05 38.81 C 82.69 35.82 88.79 31.08 96.14 30.04 C 93.89 32.82 90.26 33.80 87.14 35.26 C 83.50 36.62 79.94 38.33 76.05 38.81 Z" />
</g>
<g id="#b3daa6ff">
<path fill="#b3daa6" opacity="1.00" d=" M 49.35 37.81 C 52.55 34.25 56.88 32.02 60.97 29.66 C 61.61 31.58 62.23 33.52 62.84 35.45 C 65.34 35.68 67.84 35.88 70.35 36.09 C 68.55 37.25 66.68 38.30 64.82 39.37 C 64.76 39.70 64.63 40.36 64.57 40.69 L 64.52 40.95 C 63.44 41.19 62.36 41.40 61.28 41.59 C 59.72 40.92 58.09 40.32 56.72 39.29 C 56.16 37.90 55.83 36.44 55.42 35.01 C 53.70 36.27 52.03 37.61 50.34 38.93 L 49.77 39.03 L 49.35 37.81 Z" />
</g>
<g id="#c26849ff">
<path fill="#c26849" opacity="1.00" d=" M 95.82 36.57 C 99.34 35.09 100.77 30.93 104.45 29.69 C 105.11 32.56 105.60 35.96 103.86 38.54 C 100.99 42.13 96.23 43.07 92.00 44.08 C 83.95 45.75 75.81 47.65 68.39 51.30 C 64.84 52.90 65.00 57.05 64.15 60.25 C 63.57 63.23 59.49 64.89 57.06 62.99 C 54.61 61.46 54.89 58.22 54.10 55.77 C 53.88 52.81 50.90 51.48 48.56 50.35 C 40.74 47.15 32.13 46.10 24.69 41.91 L 24.24 41.69 L 24.07 41.03 C 23.51 38.95 22.96 36.83 23.08 34.66 C 29.25 40.72 37.58 43.62 45.59 46.37 C 50.52 47.95 55.67 50.24 60.94 49.01 C 66.89 47.55 72.43 44.83 78.38 43.34 C 84.44 41.78 90.19 39.28 95.82 36.57 Z" />
</g>
<g id="#2b160fba">
<path fill="#2b160f" opacity="0.73" d=" M 24.07 41.03 C 20.65 38.42 21.59 32.37 25.36 30.56 C 24.61 31.93 23.82 33.28 23.08 34.66 C 22.96 36.83 23.51 38.95 24.07 41.03 Z" />
</g>
<g id="#8ac977ff">
<path fill="#8ac977" opacity="1.00" d=" M 50.34 38.93 C 52.03 37.61 53.70 36.27 55.42 35.01 C 55.83 36.44 56.16 37.90 56.72 39.29 C 58.09 40.32 59.72 40.92 61.28 41.59 C 57.57 43.15 53.38 41.13 50.34 38.93 Z" />
</g>
<g id="#090b0bff">
<path fill="#090b0b" opacity="1.00" d=" M 102.27 45.24 C 106.02 40.35 113.16 37.83 119.00 40.26 C 126.42 42.55 132.69 48.83 133.76 56.70 C 134.08 62.20 133.13 67.82 129.92 72.41 C 127.25 75.13 124.33 77.60 121.09 79.61 C 109.46 80.21 97.57 70.04 98.40 57.98 C 98.29 53.48 99.24 48.74 102.27 45.24 M 102.91 45.90 C 97.40 53.64 97.65 65.55 104.88 72.17 C 109.68 76.42 116.58 80.42 123.04 77.39 C 133.10 71.83 135.59 57.15 128.86 48.09 L 128.54 48.24 C 124.97 43.28 119.17 39.98 112.96 40.36 C 108.98 40.63 105.45 42.94 102.91 45.90 Z" />
<path fill="#090b0b" opacity="1.00" d=" M 114.36 44.58 C 117.34 44.62 120.48 44.90 122.81 46.98 L 123.04 48.51 C 120.83 47.25 118.46 46.31 116.06 45.46 C 114.92 45.91 113.79 46.38 112.66 46.85 C 109.19 48.18 110.24 52.77 111.92 55.15 C 115.52 58.88 121.14 60.28 126.18 59.40 C 126.72 57.28 127.31 55.17 127.97 53.08 C 130.22 58.87 129.71 65.86 125.89 70.88 C 123.91 73.07 120.80 73.94 117.94 74.18 C 112.02 73.28 107.38 68.41 105.36 62.96 C 103.18 55.85 106.38 46.20 114.36 44.58 Z" />
</g>
<g id="#ffe69cff">
<path fill="#ffe69c" opacity="1.00" d=" M 102.91 45.90 C 105.45 42.94 108.98 40.63 112.96 40.36 C 112.66 41.07 112.05 42.48 111.74 43.19 C 112.40 43.54 113.71 44.23 114.36 44.58 C 106.38 46.20 103.18 55.85 105.36 62.96 C 107.38 68.41 112.02 73.28 117.94 74.18 C 120.80 73.94 123.91 73.07 125.89 70.88 C 129.71 65.86 130.22 58.87 127.97 53.08 C 127.38 51.83 126.70 50.63 125.95 49.48 C 126.60 49.17 127.89 48.55 128.54 48.24 L 128.86 48.09 C 135.59 57.15 133.10 71.83 123.04 77.39 C 116.58 80.42 109.68 76.42 104.88 72.17 C 97.65 65.55 97.40 53.64 102.91 45.90 Z" />
</g>
<g id="#fff5caff">
<path fill="#fff5ca" opacity="1.00" d=" M 112.96 40.36 C 119.17 39.98 124.97 43.28 128.54 48.24 C 127.89 48.55 126.60 49.17 125.95 49.48 C 124.94 48.59 123.90 47.75 122.81 46.98 C 120.48 44.90 117.34 44.62 114.36 44.58 C 113.71 44.23 112.40 43.54 111.74 43.19 C 112.05 42.48 112.66 41.07 112.96 40.36 Z" />
</g>
<g id="#727475ff">
<path fill="#727475" opacity="1.00" d=" M 112.66 46.85 C 113.79 46.38 114.92 45.91 116.06 45.46 C 118.46 46.31 120.83 47.25 123.04 48.51 C 124.83 50.76 128.43 54.65 124.95 57.02 C 120.06 58.78 113.59 56.01 111.82 51.02 C 111.99 49.61 112.34 48.23 112.66 46.85 Z" />
</g>
<g id="#343535ff">
<path fill="#343535" opacity="1.00" d=" M 111.92 55.15 C 110.24 52.77 109.19 48.18 112.66 46.85 C 112.34 48.23 111.99 49.61 111.82 51.02 C 113.59 56.01 120.06 58.78 124.95 57.02 C 128.43 54.65 124.83 50.76 123.04 48.51 L 122.81 46.98 C 123.90 47.75 124.94 48.59 125.95 49.48 C 126.70 50.63 127.38 51.83 127.97 53.08 C 127.31 55.17 126.72 57.28 126.18 59.40 C 121.14 60.28 115.52 58.88 111.92 55.15 Z" />
</g>
<g id="#b2e2a5ff">
<path fill="#b2e2a5" opacity="1.00" d=" M 40.03 48.57 L 41.31 48.99 C 38.68 55.30 36.36 62.10 37.28 69.05 C 37.57 72.67 39.13 76.28 38.06 79.91 C 35.71 73.95 34.79 67.34 35.92 60.99 C 36.74 56.71 37.28 52.13 40.03 48.57 Z" />
</g>
<g id="#79b768ff">
<path fill="#79b768" opacity="1.00" d=" M 133.76 56.70 C 134.65 59.20 136.16 61.41 137.82 63.46 C 138.46 69.42 137.59 75.42 136.23 81.22 C 135.52 80.21 134.82 79.21 134.11 78.21 C 133.17 79.43 132.22 80.65 131.29 81.88 C 131.07 78.70 130.66 75.52 129.92 72.41 C 133.13 67.82 134.08 62.20 133.76 56.70 Z" />
</g>
<g id="#89c978ff">
<path fill="#89c978" opacity="1.00" d=" M 49.15 75.07 C 55.92 71.10 64.34 70.63 71.89 72.22 C 78.02 73.48 82.82 77.78 87.08 82.09 C 83.80 86.88 85.60 93.63 80.83 97.62 C 77.55 88.44 66.91 84.14 57.76 84.85 C 59.52 84.56 61.28 84.32 63.04 84.00 L 63.30 83.26 C 62.99 80.60 63.35 76.98 60.64 75.44 C 56.76 73.51 51.88 74.94 48.93 77.88 C 45.44 82.22 43.23 88.42 45.85 93.74 C 45.11 96.12 45.16 98.64 45.24 101.10 C 44.60 100.40 43.30 99.00 42.66 98.29 L 42.35 97.96 C 42.28 97.58 42.16 96.83 42.09 96.46 C 41.71 93.31 40.40 90.19 41.09 86.99 C 42.10 82.21 44.75 77.49 49.15 75.07 Z" />
</g>
<g id="#76a666ff">
<path fill="#76a666" opacity="1.00" d=" M 121.09 79.61 C 124.33 77.60 127.25 75.13 129.92 72.41 C 130.66 75.52 131.07 78.70 131.29 81.88 C 132.22 80.65 133.17 79.43 134.11 78.21 C 134.82 79.21 135.52 80.21 136.23 81.22 C 133.87 89.96 127.77 98.65 118.46 100.69 C 111.72 103.11 104.28 100.57 99.02 96.11 C 94.94 92.96 93.06 88.00 90.10 83.93 C 87.73 80.33 84.26 77.71 81.08 74.88 C 82.52 74.81 84.00 74.97 85.13 75.95 C 89.84 79.35 94.80 82.62 100.40 84.38 C 104.14 85.15 108.02 84.86 111.80 84.51 C 115.48 84.25 118.22 81.61 121.09 79.61 Z" />
</g>
<g id="#aed8a3ff">
<path fill="#aed8a3" opacity="1.00" d=" M 48.93 77.88 C 51.88 74.94 56.76 73.51 60.64 75.44 C 63.35 76.98 62.99 80.60 63.30 83.26 C 61.57 83.17 59.82 83.15 58.10 82.88 C 56.67 81.46 56.61 78.16 54.03 78.35 C 51.12 78.65 48.78 81.09 47.60 83.63 C 47.00 86.18 47.34 88.84 47.39 91.43 C 47.00 92.01 46.23 93.16 45.85 93.74 C 43.23 88.42 45.44 82.22 48.93 77.88 Z" />
<path fill="#aed8a3" opacity="1.00" d=" M 145.05 93.97 C 148.14 100.25 146.71 107.39 145.98 114.03 C 145.93 116.12 144.82 117.87 143.74 119.57 C 143.58 118.85 143.26 117.42 143.10 116.70 C 143.06 113.13 142.18 109.60 139.61 106.99 C 140.19 105.48 140.29 103.66 141.42 102.43 C 142.60 102.00 143.81 101.63 145.03 101.31 C 145.15 98.87 145.22 96.41 145.05 93.97 Z" />
</g>
<g id="#c2e1baff">
<path fill="#c2e1ba" opacity="1.00" d=" M 47.60 83.63 C 48.78 81.09 51.12 78.65 54.03 78.35 C 56.61 78.16 56.67 81.46 58.10 82.88 C 59.82 83.15 61.57 83.17 63.30 83.26 L 63.04 84.00 C 61.28 84.32 59.52 84.56 57.76 84.85 C 53.55 85.44 49.98 88.18 47.39 91.43 C 47.34 88.84 47.00 86.18 47.60 83.63 Z" />
</g>
<g id="#b1daa6ff">
<path fill="#b1daa6" opacity="1.00" d=" M 138.01 77.80 C 146.22 84.06 148.63 95.19 148.68 104.99 C 148.17 110.72 148.36 116.91 144.89 121.84 C 144.61 121.27 144.03 120.14 143.74 119.57 C 144.82 117.87 145.93 116.12 145.98 114.03 C 146.71 107.39 148.14 100.25 145.05 93.97 C 143.31 89.27 140.50 85.10 137.49 81.15 C 137.62 80.31 137.88 78.64 138.01 77.80 Z" />
</g>
<g id="#75a465ff">
<path fill="#75a465" opacity="1.00" d=" M 80.83 97.62 C 85.60 93.63 83.80 86.88 87.08 82.09 C 89.40 84.62 91.76 87.48 92.25 90.99 C 92.44 98.86 86.49 106.03 79.21 108.41 C 81.46 105.25 82.29 101.29 80.83 97.62 Z" />
<path fill="#75a465" opacity="1.00" d=" M 105.13 101.27 C 107.87 102.51 110.83 103.06 113.83 102.90 C 109.86 109.48 110.19 117.55 110.47 124.96 C 110.55 129.05 113.84 131.94 116.23 134.89 C 115.09 135.20 113.94 135.51 112.80 135.83 C 112.00 135.41 111.21 134.99 110.41 134.57 C 109.48 131.97 109.12 128.98 107.07 126.96 C 105.63 125.34 103.69 124.30 102.08 122.87 C 99.67 117.38 101.12 111.25 102.73 105.76 C 103.15 104.08 104.00 102.57 105.13 101.27 Z" />
</g>
<g id="#c2ecb7ff">
<path fill="#c2ecb7" opacity="1.00" d=" M 48.23 93.03 C 49.96 89.66 53.30 87.35 56.92 86.42 C 58.69 86.49 60.45 86.63 62.21 86.77 C 61.98 87.09 61.52 87.73 61.29 88.05 C 56.30 87.62 52.17 90.40 48.23 93.03 Z" />
</g>
<g id="#aed8a4ff">
<path fill="#aed8a4" opacity="1.00" d=" M 48.23 93.03 C 52.17 90.40 56.30 87.62 61.29 88.05 C 58.63 92.77 52.78 97.21 47.27 94.36 C 47.51 94.03 47.99 93.36 48.23 93.03 Z" />
</g>
<g id="#74a465ff">
<path fill="#74a465" opacity="1.00" d=" M 79.52 98.49 L 79.92 98.02 C 80.70 102.31 79.68 107.39 75.62 109.71 C 69.35 113.13 61.82 111.82 55.31 109.81 L 55.31 109.36 C 55.29 108.46 55.28 107.57 55.26 106.68 C 60.27 106.42 65.58 107.34 70.28 105.12 C 73.83 103.68 77.18 101.58 79.52 98.49 Z" />
</g>
<g id="#c9b57dff">
<path fill="#c9b57d" opacity="1.00" d=" M 85.67 106.12 C 87.88 106.56 90.08 107.07 92.22 107.76 C 90.05 110.06 87.69 112.21 84.94 113.80 C 81.80 114.82 78.52 115.70 75.19 115.56 C 71.69 115.01 68.39 113.55 64.85 113.14 C 72.22 113.18 80.30 111.53 85.67 106.12 Z" />
<path fill="#c9b57d" opacity="1.00" d=" M 63.30 141.21 C 63.58 140.70 64.14 139.67 64.42 139.16 C 68.71 141.20 73.19 143.55 78.07 143.42 C 81.75 142.70 85.02 140.75 88.52 139.49 C 89.52 141.01 90.64 142.46 91.75 143.91 C 82.68 148.37 71.42 147.14 63.30 141.21 Z" />
</g>
<g id="#ffea9cff">
<path fill="#ffea9c" opacity="1.00" d=" M 123.18 122.03 C 122.58 113.62 130.75 104.15 139.61 106.99 C 142.18 109.60 143.06 113.13 143.10 116.70 C 141.36 122.48 137.43 128.69 130.95 129.58 C 126.63 130.33 122.76 126.25 123.18 122.03 M 133.21 110.13 C 127.22 112.72 122.64 122.68 128.64 127.37 C 135.77 129.32 141.73 120.52 140.42 114.07 C 140.21 110.60 136.27 108.18 133.21 110.13 Z" />
</g>
<g id="#74a565ff">
<path fill="#74a565" opacity="1.00" d=" M 79.05 108.68 L 79.21 108.41 L 79.47 108.65 L 79.23 108.92 L 79.05 108.68 Z" />
</g>
<g id="#e0cb89ff">
<path fill="#e0cb89" opacity="1.00" d=" M 84.94 113.80 C 87.69 112.21 90.05 110.06 92.22 107.76 C 95.03 108.72 97.60 110.24 99.88 112.13 C 99.66 115.64 99.73 119.16 100.01 122.68 C 98.73 122.83 97.46 123.02 96.20 123.22 C 92.70 119.78 89.68 115.64 84.94 113.80 Z" />
<path fill="#e0cb89" opacity="1.00" d=" M 133.30 160.29 C 136.69 159.17 139.98 162.02 141.03 165.08 C 142.16 167.72 140.15 170.82 137.43 171.34 C 131.64 172.23 127.02 162.89 133.30 160.29 M 133.33 162.23 C 129.01 165.12 134.78 172.85 138.65 169.54 C 142.19 166.52 137.24 159.78 133.33 162.23 Z" />
</g>
<g id="#fce497ff">
<path fill="#fce497" opacity="1.00" d=" M 58.14 112.08 C 60.37 112.46 62.60 112.85 64.85 113.14 C 68.39 113.55 71.69 115.01 75.19 115.56 C 78.52 115.70 81.80 114.82 84.94 113.80 C 89.68 115.64 92.70 119.78 96.20 123.22 C 89.89 125.30 84.90 133.18 88.52 139.49 C 85.02 140.75 81.75 142.70 78.07 143.42 C 73.19 143.55 68.71 141.20 64.42 139.16 C 68.07 132.20 63.11 120.98 54.60 121.56 C 54.81 119.83 55.01 118.09 55.28 116.37 L 55.55 115.73 L 55.80 115.05 C 56.57 114.05 57.35 113.06 58.14 112.08 Z" />
<path fill="#fce497" opacity="1.00" d=" M 123.44 143.47 C 129.82 143.67 128.81 154.55 123.02 155.41 C 117.12 154.46 118.23 144.69 123.44 143.47 M 123.18 145.17 C 120.23 146.69 119.01 151.99 122.23 153.83 C 127.33 155.04 128.72 144.24 123.18 145.17 Z" />
</g>
<g id="#252116b8">
<path fill="#252116" opacity="0.72" d=" M 179.90 118.38 C 179.08 116.76 181.46 114.38 183.11 114.96 C 182.25 116.28 181.27 117.55 179.90 118.38 Z" />
</g>
<g id="#efd791ff">
<path fill="#efd791" opacity="1.00" d=" M 183.11 114.96 C 184.44 113.56 186.60 114.18 188.14 114.85 C 191.43 117.02 191.45 121.32 191.68 124.84 C 191.12 124.74 190.00 124.53 189.44 124.43 C 188.83 126.35 188.15 128.26 187.36 130.12 C 184.48 128.92 181.52 127.92 178.50 127.14 C 176.36 132.82 178.01 139.08 175.95 144.69 C 174.53 135.98 175.52 126.87 179.28 118.84 C 179.44 118.73 179.75 118.50 179.90 118.38 C 181.27 117.55 182.25 116.28 183.11 114.96 Z" />
</g>
<g id="#f8de95ff">
<path fill="#f8de95" opacity="1.00" d=" M 53.83 122.74 C 58.30 121.90 61.37 125.73 63.50 129.06 L 63.33 129.41 C 62.43 131.21 61.69 133.09 60.58 134.77 C 58.96 136.01 57.11 136.91 55.39 138.00 C 57.71 139.03 60.18 139.54 62.66 139.98 C 58.05 142.61 54.25 138.20 51.79 134.85 L 51.99 134.44 C 53.04 132.22 54.27 130.11 55.67 128.11 C 55.10 126.45 54.53 124.80 53.97 123.14 L 53.83 122.74 Z" />
</g>
<g id="#fcf3b1ff">
<path fill="#fcf3b1" opacity="1.00" d=" M 51.99 134.44 C 50.79 130.73 50.84 125.91 53.97 123.14 C 54.53 124.80 55.10 126.45 55.67 128.11 C 54.27 130.11 53.04 132.22 51.99 134.44 Z" />
</g>
<g id="#fde597ff">
<path fill="#fde597" opacity="1.00" d=" M 93.94 125.33 C 96.16 124.50 98.54 123.75 100.95 124.17 C 102.67 124.77 104.00 126.09 105.43 127.17 C 104.01 130.56 103.43 135.15 99.53 136.66 C 96.00 138.45 92.14 136.62 88.60 135.88 C 88.65 134.27 88.81 132.67 89.24 131.11 C 91.42 131.57 93.95 132.54 95.74 130.64 C 95.12 128.87 94.53 127.10 93.94 125.33 Z" />
<path fill="#fde597" opacity="1.00" d=" M 63.73 154.83 C 62.01 151.20 62.55 146.71 65.60 143.95 C 71.73 148.52 79.84 147.83 86.99 147.01 C 89.55 146.77 91.74 144.35 94.32 144.99 C 90.94 149.40 87.65 154.37 82.22 156.44 C 76.13 158.90 69.62 156.85 63.73 154.83 Z" />
</g>
<g id="#d5c489ff">
<path fill="#d5c489" opacity="1.00" d=" M 189.44 124.43 C 190.00 124.53 191.12 124.74 191.68 124.84 C 191.50 127.67 190.97 130.47 190.23 133.21 C 189.65 132.60 189.06 131.99 188.48 131.38 C 187.17 136.30 185.71 141.45 182.40 145.44 C 180.97 147.28 178.43 147.00 176.39 147.44 C 176.24 146.52 176.09 145.61 175.95 144.69 C 178.01 139.08 176.36 132.82 178.50 127.14 C 181.52 127.92 184.48 128.92 187.36 130.12 C 188.15 128.26 188.83 126.35 189.44 124.43 Z" />
<path fill="#d5c489" opacity="1.00" d=" M 152.87 170.21 C 155.83 167.04 161.42 168.70 162.72 172.63 C 160.80 175.23 157.32 175.17 154.47 174.46 C 153.03 173.76 151.43 171.63 152.87 170.21 M 154.21 172.00 C 155.32 175.38 160.39 174.95 161.88 171.93 C 160.21 169.29 155.18 168.47 154.21 172.00 Z" />
<path fill="#d5c489" opacity="1.00" d=" M 164.67 183.14 C 165.00 179.86 168.25 177.49 171.41 177.45 C 170.87 177.89 169.78 178.79 169.23 179.23 L 169.05 179.37 L 168.98 179.56 C 168.86 179.92 168.62 180.63 168.49 180.98 L 168.34 180.17 C 167.93 180.52 167.11 181.22 166.70 181.56 C 166.20 181.96 165.18 182.74 164.67 183.14 Z" />
</g>
<g id="#fdefc3ff">
<path fill="#fdefc3" opacity="1.00" d=" M 89.24 131.11 C 90.41 128.89 92.02 126.95 93.94 125.33 C 94.53 127.10 95.12 128.87 95.74 130.64 C 93.95 132.54 91.42 131.57 89.24 131.11 Z" />
</g>
<g id="#c8b57eff">
<path fill="#c8b57e" opacity="1.00" d=" M 99.53 136.66 C 103.43 135.15 104.01 130.56 105.43 127.17 C 108.29 130.34 109.59 135.30 107.35 139.17 C 105.08 142.42 101.23 145.17 97.07 144.35 C 92.59 143.97 89.46 140.04 88.60 135.88 C 92.14 136.62 96.00 138.45 99.53 136.66 Z" />
</g>
<g id="#c7b57dff">
<path fill="#c7b57d" opacity="1.00" d=" M 63.33 129.41 C 65.25 132.77 64.80 136.85 62.66 139.98 C 60.18 139.54 57.71 139.03 55.39 138.00 C 57.11 136.91 58.96 136.01 60.58 134.77 C 61.69 133.09 62.43 131.21 63.33 129.41 Z" />
</g>
<g id="#ad9d73ff">
<path fill="#ad9d73" opacity="1.00" d=" M 188.48 131.38 C 189.06 131.99 189.65 132.60 190.23 133.21 C 189.09 137.44 187.23 141.42 185.51 145.44 C 183.94 148.83 182.25 152.40 179.11 154.61 C 177.81 152.39 176.75 150.01 176.39 147.44 C 178.43 147.00 180.97 147.28 182.40 145.44 C 185.71 141.45 187.17 136.30 188.48 131.38 Z" />
</g>
<g id="#7ab768ff">
<path fill="#7ab768" opacity="1.00" d=" M 109.91 135.66 C 116.07 139.97 123.99 140.52 131.12 138.79 C 131.45 141.49 131.55 144.28 130.70 146.90 C 129.02 152.21 127.20 157.93 122.55 161.43 C 119.41 163.51 115.85 165.65 111.91 165.00 C 112.00 162.22 111.79 159.42 110.74 156.81 C 113.28 151.67 111.23 145.33 106.56 142.19 C 108.17 140.29 109.44 138.12 109.91 135.66 M 123.44 143.47 C 118.23 144.69 117.12 154.46 123.02 155.41 C 128.81 154.55 129.82 143.67 123.44 143.47 Z" />
<path fill="#7ab768" opacity="1.00" d=" M 123.18 145.17 C 128.72 144.24 127.33 155.04 122.23 153.83 C 119.01 151.99 120.23 146.69 123.18 145.17 Z" />
</g>
<g id="#c9b67eff">
<path fill="#c9b67e" opacity="1.00" d=" M 94.32 144.99 C 98.33 146.44 102.61 145.12 105.99 142.79 C 110.26 145.78 110.57 151.21 109.92 155.92 C 105.73 152.84 99.24 152.54 95.43 156.39 C 91.68 159.66 91.37 165.57 93.94 169.67 C 86.01 170.31 78.17 167.74 71.48 163.64 C 68.27 161.33 65.29 158.53 63.73 154.83 C 69.62 156.85 76.13 158.90 82.22 156.44 C 87.65 154.37 90.94 149.40 94.32 144.99 Z" />
<path fill="#c9b67e" opacity="1.00" d=" M 102.35 185.06 C 106.62 184.64 111.07 185.09 115.11 183.37 C 115.24 183.71 115.49 184.38 115.62 184.71 C 114.36 185.30 113.11 185.90 111.86 186.50 C 118.56 189.86 126.18 189.52 133.45 189.93 C 129.94 191.23 126.15 191.14 122.48 191.32 C 122.29 191.33 121.92 191.36 121.73 191.37 C 115.45 188.71 108.19 188.76 102.35 185.06 Z" />
</g>
<g id="#6ba861ff">
<path fill="#6ba861" opacity="1.00" d=" M 115.56 166.43 C 123.26 164.10 129.65 157.84 130.99 149.74 C 131.52 150.35 132.58 151.56 133.11 152.17 C 133.28 152.39 133.62 152.84 133.79 153.07 C 135.79 157.44 140.31 159.36 143.86 162.19 C 147.94 166.48 147.15 173.20 145.56 178.41 C 144.85 179.67 144.34 182.21 142.39 181.70 C 132.11 179.99 121.34 175.59 115.56 166.43 M 133.30 160.29 C 127.02 162.89 131.64 172.23 137.43 171.34 C 140.15 170.82 142.16 167.72 141.03 165.08 C 139.98 162.02 136.69 159.17 133.30 160.29 Z" />
</g>
<g id="#c8b47dff">
<path fill="#c8b47d" opacity="1.00" d=" M 96.64 156.60 C 99.99 154.09 105.01 154.34 108.37 156.67 C 111.64 160.13 110.98 166.40 107.28 169.34 C 103.34 171.11 98.12 172.46 94.84 168.72 C 97.93 168.38 101.16 167.16 102.43 164.06 C 103.41 160.17 99.05 158.56 96.64 156.60 Z" />
</g>
<g id="#ccbd85ff">
<path fill="#ccbd85" opacity="1.00" d=" M 174.27 157.11 C 174.94 155.16 177.99 153.24 179.32 155.68 C 180.78 157.29 179.98 159.27 179.03 160.90 C 177.52 159.54 175.93 158.28 174.27 157.11 Z" />
</g>
<g id="#fee597ff">
<path fill="#fee597" opacity="1.00" d=" M 93.63 160.16 C 94.65 158.99 95.66 157.81 96.64 156.60 C 99.05 158.56 103.41 160.17 102.43 164.06 C 101.16 167.16 97.93 168.38 94.84 168.72 C 93.13 166.18 93.41 163.06 93.63 160.16 Z" />
</g>
<g id="#fee596ff">
<path fill="#fee596" opacity="1.00" d=" M 62.78 157.08 C 65.52 159.25 67.40 162.46 70.43 164.40 C 68.81 165.01 67.20 165.62 65.59 166.27 C 63.31 163.74 62.14 160.50 62.78 157.08 Z" />
</g>
<g id="#69a261ff">
<path fill="#69a261" opacity="1.00" d=" M 172.03 162.58 C 173.53 161.73 175.01 160.85 176.48 159.96 C 179.03 162.89 177.18 166.68 175.67 169.60 C 173.86 173.06 170.39 175.14 167.41 177.48 C 167.80 173.97 168.59 169.87 165.77 167.10 C 166.65 166.33 167.55 165.58 168.45 164.83 C 168.85 166.07 169.24 167.32 169.63 168.57 C 170.06 167.34 170.49 166.12 170.94 164.90 C 171.46 164.69 172.51 164.26 173.04 164.05 C 174.14 164.60 175.25 165.15 176.38 165.68 C 175.18 164.32 173.66 163.34 172.03 162.58 Z" />
</g>
<g id="#6aa760ff">
<path fill="#6aa760" opacity="1.00" d=" M 133.33 162.23 C 137.24 159.78 142.19 166.52 138.65 169.54 C 134.78 172.85 129.01 165.12 133.33 162.23 Z" />
</g>
<g id="#cab57cff">
<path fill="#cab57c" opacity="1.00" d=" M 70.43 164.40 C 72.30 165.65 74.36 166.59 76.48 167.34 C 73.39 170.00 68.33 168.97 65.59 166.27 C 67.20 165.62 68.81 165.01 70.43 164.40 Z" />
</g>
<g id="#92ca92ff">
<path fill="#92ca92" opacity="1.00" d=" M 145.52 162.84 C 151.10 165.08 157.04 165.45 162.96 165.89 L 162.45 167.10 C 157.52 168.08 152.59 166.63 147.65 166.52 C 146.94 165.29 146.23 164.06 145.52 162.84 Z" />
</g>
<g id="#d3be83ff">
<path fill="#d3be83" opacity="1.00" d=" M 111.64 166.11 C 115.31 167.22 117.10 170.88 119.80 173.29 C 116.54 173.19 114.91 169.82 112.22 168.46 C 111.11 169.28 110.10 170.23 109.07 171.15 C 110.01 172.49 110.95 173.83 111.87 175.20 C 108.75 176.42 105.25 173.03 102.66 175.79 C 105.04 176.85 107.47 177.78 109.91 178.70 C 109.02 179.66 108.14 180.61 107.25 181.56 C 108.68 182.08 110.11 182.59 111.55 183.11 C 108.69 183.65 105.81 184.27 102.89 184.28 C 95.98 183.17 90.26 178.97 84.98 174.67 L 84.64 174.43 L 84.31 173.95 C 83.22 172.34 82.06 170.79 80.91 169.23 C 85.44 170.61 90.15 171.22 94.87 170.84 C 100.63 174.55 108.31 171.74 111.64 166.11 Z" />
</g>
<g id="#68a15fff">
<path fill="#68a15f" opacity="1.00" d=" M 147.65 166.52 C 152.59 166.63 157.52 168.08 162.45 167.10 C 162.78 167.06 163.44 166.96 163.77 166.91 C 166.92 169.63 167.39 174.05 166.10 177.83 C 165.19 178.92 163.77 179.29 162.48 179.69 C 156.83 181.13 151.14 182.76 145.25 182.42 C 147.12 177.33 149.05 172.00 147.65 166.52 M 152.87 170.21 C 151.43 171.63 153.03 173.76 154.47 174.46 C 157.32 175.17 160.80 175.23 162.72 172.63 C 161.42 168.70 155.83 167.04 152.87 170.21 Z" />
</g>
<g id="#b8a777ff">
<path fill="#b8a777" opacity="1.00" d=" M 112.22 168.46 C 114.91 169.82 116.54 173.19 119.80 173.29 C 120.72 174.11 121.66 174.90 122.59 175.71 C 119.66 179.13 116.13 182.28 111.55 183.11 C 110.11 182.59 108.68 182.08 107.25 181.56 C 108.14 180.61 109.02 179.66 109.91 178.70 C 107.47 177.78 105.04 176.85 102.66 175.79 C 105.25 173.03 108.75 176.42 111.87 175.20 C 110.95 173.83 110.01 172.49 109.07 171.15 C 110.10 170.23 111.11 169.28 112.22 168.46 Z" />
</g>
<g id="#66a05fff">
<path fill="#66a05f" opacity="1.00" d=" M 154.21 172.00 C 155.18 168.47 160.21 169.29 161.88 171.93 C 160.39 174.95 155.32 175.38 154.21 172.00 Z" />
</g>
<g id="#aa9b71ff">
<path fill="#aa9b71" opacity="1.00" d=" M 115.11 183.37 C 118.69 181.98 121.37 179.15 123.89 176.37 C 129.50 179.92 135.83 181.94 142.34 183.12 C 140.42 186.53 137.12 188.78 133.45 189.93 C 126.18 189.52 118.56 189.86 111.86 186.50 C 113.11 185.90 114.36 185.30 115.62 184.71 C 115.49 184.38 115.24 183.71 115.11 183.37 Z" />
</g>
<g id="#030302de">
<path fill="#030302" opacity="0.87" d=" M 169.05 179.37 L 169.23 179.23 C 169.17 179.32 169.05 179.48 168.98 179.56 L 169.05 179.37 Z" />
</g>
<g id="#aa9d71ff">
<path fill="#aa9d71" opacity="1.00" d=" M 145.93 183.31 C 152.13 183.72 158.22 182.50 164.11 180.67 C 162.49 184.55 158.45 186.26 154.91 187.94 C 150.83 189.80 146.30 190.10 142.05 191.38 L 141.68 192.36 L 141.09 191.62 C 138.41 191.37 135.73 191.64 133.05 191.75 C 135.86 190.06 139.21 189.06 141.36 186.47 C 142.69 185.18 143.72 182.89 145.93 183.31 Z" />
</g>
</svg>
