<?xml version="1.0" encoding="UTF-8" ?>
<!DOCTYPE svg PUBLIC "-//W3C//DTD SVG 1.1//EN" "http://www.w3.org/Graphics/SVG/1.1/DTD/svg11.dtd">
<svg width="215pt" height="215pt" viewBox="0 0 215 215" version="1.1" xmlns="http://www.w3.org/2000/svg">
<g id="#708c50ff">
<path fill="#708c50" opacity="1.00" d=" M 63.07 26.20 C 64.98 22.66 71.57 20.52 73.89 24.86 C 75.86 30.44 77.78 36.06 80.01 41.55 L 79.22 42.49 C 76.64 36.49 75.10 30.11 72.58 24.09 C 69.27 21.69 65.93 24.55 63.07 26.20 Z" />
<path fill="#708c50" opacity="1.00" d=" M 50.68 49.57 C 54.56 41.65 54.63 31.42 62.46 25.92 L 62.28 26.96 C 58.01 30.80 56.26 36.24 54.77 41.59 C 53.56 44.63 52.34 47.68 51.44 50.83 C 49.05 57.60 45.33 63.77 41.73 69.96 L 41.00 70.45 C 43.72 63.27 48.28 56.90 50.68 49.57 Z" />
<path fill="#708c50" opacity="1.00" d=" M 78.15 62.87 C 80.28 61.19 82.92 59.45 85.77 60.12 C 88.67 61.39 90.55 64.21 93.46 65.50 C 93.97 65.67 94.30 66.01 94.42 66.51 C 95.46 70.60 97.00 74.72 96.28 79.01 C 96.02 84.18 91.59 88.12 86.76 89.21 C 82.83 89.43 79.78 86.79 77.00 84.40 C 75.78 82.43 75.01 80.23 74.28 78.04 C 71.66 79.44 69.89 81.82 68.23 84.19 C 65.78 87.12 62.77 89.57 60.75 92.84 C 64.99 95.82 69.39 98.62 73.14 102.23 C 77.26 106.05 81.89 109.27 86.07 113.02 C 88.07 114.51 86.74 117.06 85.91 118.82 C 82.31 125.57 79.43 132.73 74.91 138.94 C 72.87 141.11 75.12 143.62 76.20 145.64 C 80.01 151.53 82.59 158.37 87.85 163.20 C 92.02 167.36 98.22 167.96 103.50 169.96 C 103.55 169.54 103.65 168.70 103.71 168.28 C 104.89 168.02 106.08 167.76 107.27 167.49 C 108.52 168.29 109.74 169.13 111.05 169.84 C 113.33 171.74 116.18 170.20 118.70 169.77 C 122.21 168.91 125.88 169.19 129.39 168.34 C 132.28 167.61 134.39 165.35 136.53 163.43 C 136.81 163.71 137.37 164.27 137.65 164.55 C 138.68 161.80 139.76 158.99 139.75 156.00 C 139.74 151.79 140.33 147.00 137.44 143.52 C 131.76 136.22 122.22 131.11 120.70 121.22 C 122.08 122.15 122.94 123.55 123.73 124.97 C 125.85 120.48 127.13 115.29 131.01 111.91 C 128.69 117.25 124.93 122.10 124.39 128.08 C 129.21 134.28 136.07 138.86 139.90 145.87 C 140.24 146.90 140.51 147.94 140.71 149.01 C 144.47 151.28 147.24 154.80 150.74 157.41 C 152.47 158.62 153.70 160.33 154.96 161.98 C 158.29 163.00 160.62 165.74 162.93 168.18 C 160.25 167.16 158.22 165.09 156.20 163.15 C 156.29 165.81 156.32 168.48 156.32 171.15 C 159.32 171.16 162.25 170.47 164.85 168.95 C 166.31 170.43 167.68 172.04 169.55 173.03 C 169.54 173.19 169.54 173.50 169.53 173.66 C 169.50 174.07 169.43 174.90 169.40 175.32 C 172.46 177.38 176.00 178.52 179.54 179.49 C 179.97 180.63 180.41 181.78 180.85 182.93 C 180.55 181.31 180.20 179.70 179.72 178.12 C 180.70 178.45 181.66 178.83 182.60 179.27 C 182.54 180.35 182.48 181.42 182.43 182.50 C 177.63 189.30 169.16 192.82 160.96 192.33 C 156.61 191.93 152.20 193.17 147.92 192.06 C 143.77 191.15 139.30 190.48 135.89 187.73 C 129.36 187.59 123.58 184.39 117.65 182.10 C 115.86 181.39 114.08 180.42 113.14 178.67 C 104.02 177.79 95.98 172.82 86.97 171.42 C 84.37 170.84 81.28 170.67 79.63 168.26 C 81.98 165.52 85.51 166.42 88.61 166.86 C 80.95 159.47 77.30 149.22 70.93 140.90 C 65.88 138.92 60.31 138.46 54.91 138.24 C 58.41 146.78 66.31 152.63 70.17 161.00 C 67.84 158.95 64.71 157.55 63.12 154.81 C 63.58 155.02 64.51 155.46 64.97 155.68 C 63.81 154.04 62.62 152.43 61.39 150.85 C 58.38 147.04 55.40 143.21 52.39 139.40 C 52.39 139.56 52.37 139.87 52.37 140.03 L 51.76 141.09 C 51.68 140.29 51.51 138.67 51.43 137.86 C 48.15 136.31 45.19 134.22 42.25 132.11 L 42.61 131.99 C 42.88 131.87 43.44 131.63 43.72 131.51 C 40.29 128.42 38.58 124.04 37.17 119.76 C 37.78 119.87 38.99 120.10 39.59 120.22 C 39.81 120.76 40.23 121.85 40.44 122.39 C 40.69 123.03 40.93 123.68 41.18 124.32 C 43.63 123.60 46.17 123.46 48.70 123.72 C 49.06 121.11 49.44 118.50 50.03 115.93 C 51.84 108.11 55.61 100.92 57.54 93.16 C 54.94 91.28 52.28 89.48 49.44 87.99 C 46.40 91.29 43.54 94.84 39.78 97.37 C 38.53 95.21 37.28 93.05 36.11 90.85 C 34.31 98.89 36.01 107.25 37.96 115.11 C 38.09 115.74 38.34 116.99 38.47 117.62 C 37.95 118.32 37.43 119.01 36.89 119.69 C 36.65 118.70 36.17 116.72 35.93 115.73 C 35.30 113.00 34.75 110.26 34.12 107.53 C 33.45 112.20 34.16 116.92 35.34 121.43 C 36.56 125.07 39.99 127.40 41.77 130.76 C 38.32 129.36 36.54 125.76 34.59 122.81 C 30.17 111.19 33.92 98.74 36.17 87.10 C 35.97 81.38 39.01 76.35 40.27 70.91 C 41.55 70.93 42.82 70.95 44.10 71.03 C 46.32 75.90 48.13 80.93 49.98 85.94 C 52.80 88.16 56.13 89.61 59.11 91.59 C 63.66 86.08 68.75 81.02 73.33 75.53 C 73.96 71.00 74.84 66.30 78.15 62.87 M 78.10 66.13 C 79.82 68.38 83.39 68.48 85.80 69.99 C 88.87 71.74 92.24 73.08 94.75 75.66 C 93.91 72.57 93.62 69.00 91.04 66.78 C 88.74 64.68 86.45 61.34 82.87 62.06 C 80.85 62.66 78.92 64.16 78.10 66.13 M 76.11 70.16 C 74.79 72.58 75.53 75.37 75.92 77.92 C 76.61 80.87 78.50 83.32 80.82 85.20 C 85.22 89.63 93.79 85.85 94.30 79.87 C 94.46 77.71 92.99 76.01 91.40 74.79 C 90.51 77.65 88.02 79.65 84.91 79.08 C 84.03 78.33 83.15 77.57 82.25 76.85 C 81.84 74.67 81.95 72.45 82.11 70.26 C 80.14 70.09 77.87 68.58 76.11 70.16 M 37.58 80.95 C 36.63 84.39 36.67 88.15 38.27 91.40 C 39.03 92.64 39.77 93.90 40.54 95.13 C 42.36 93.07 44.24 91.06 46.06 88.99 C 47.55 87.88 48.67 85.87 47.67 84.05 C 45.96 80.54 45.12 76.58 42.78 73.42 L 43.16 72.63 C 40.20 74.48 39.11 78.00 37.58 80.95 M 59.35 94.79 C 56.42 102.41 52.89 109.88 51.76 118.04 C 51.37 120.95 49.38 125.50 52.99 127.01 C 55.82 129.65 59.24 131.50 62.41 133.68 C 65.68 135.81 68.88 138.20 72.71 139.21 C 76.62 133.03 80.39 126.68 82.99 119.83 C 84.30 118.33 84.57 116.32 84.80 114.43 C 78.85 110.04 73.54 104.85 67.75 100.26 C 64.98 98.39 62.59 95.82 59.35 94.79 M 142.12 151.39 C 142.22 153.98 142.31 156.56 142.29 159.15 C 141.76 159.99 140.50 161.44 141.66 162.30 C 144.93 165.86 148.95 168.52 153.61 169.87 C 156.03 165.81 154.17 159.55 149.39 158.32 C 147.14 155.84 144.88 153.32 142.12 151.39 Z" />
<path fill="#708c50" opacity="1.00" d=" M 95.65 68.16 C 98.70 71.17 101.99 74.01 104.86 77.19 C 100.98 75.19 97.72 72.01 95.65 68.16 Z" />
<path fill="#708c50" opacity="1.00" d=" M 105.92 78.11 C 109.05 79.48 111.34 82.16 114.32 83.81 C 122.54 88.80 130.76 93.91 139.59 97.74 C 139.45 99.36 139.18 101.01 138.14 102.32 C 136.01 105.15 134.21 108.22 131.83 110.85 C 132.57 109.22 133.39 107.64 134.39 106.15 C 135.84 104.00 137.23 101.80 138.49 99.53 C 136.43 97.06 133.32 96.09 130.56 94.64 C 127.50 93.06 124.52 91.34 121.57 89.57 C 117.45 86.88 113.24 84.36 109.05 81.80 C 107.91 80.65 106.89 79.40 105.92 78.11 Z" />
<path fill="#708c50" opacity="1.00" d=" M 55.33 144.82 C 55.60 145.25 56.16 146.12 56.43 146.55 L 55.55 146.53 C 55.50 146.10 55.38 145.25 55.33 144.82 Z" />
<path fill="#708c50" opacity="1.00" d=" M 58.52 148.92 C 59.54 149.44 60.68 149.88 61.39 150.85 C 61.40 151.21 61.41 151.93 61.41 152.29 C 59.80 152.94 58.12 150.36 58.52 148.92 Z" />
<path fill="#708c50" opacity="1.00" d=" M 71.45 161.67 C 72.69 161.40 73.98 162.36 74.04 163.64 C 72.95 164.41 70.80 162.97 71.45 161.67 Z" />
<path fill="#708c50" opacity="1.00" d=" M 75.44 164.74 C 76.82 164.46 78.26 165.49 78.36 166.91 C 77.56 168.38 74.98 165.96 75.44 164.74 Z" />
<path fill="#708c50" opacity="1.00" d=" M 170.30 174.25 C 173.11 174.42 175.56 175.93 178.02 177.16 L 176.83 177.22 C 174.34 177.08 172.13 175.86 170.30 174.25 Z" />
</g>
<g id="#d4e5bbff">
<path fill="#d4e5bb" opacity="1.00" d=" M 63.07 26.20 C 65.93 24.55 69.27 21.69 72.58 24.09 C 68.60 27.96 64.85 32.59 59.31 34.19 C 58.12 36.78 57.95 40.65 54.77 41.59 C 56.26 36.24 58.01 30.80 62.28 26.96 C 62.47 26.77 62.87 26.39 63.07 26.20 Z" />
<path fill="#d4e5bb" opacity="1.00" d=" M 51.44 50.83 C 51.55 53.38 51.50 56.02 50.10 58.26 C 47.76 62.37 46.61 67.02 44.10 71.03 C 42.82 70.95 41.55 70.93 40.27 70.91 C 40.45 70.79 40.82 70.56 41.00 70.45 L 41.73 69.96 C 45.33 63.77 49.05 57.60 51.44 50.83 Z" />
<path fill="#d4e5bb" opacity="1.00" d=" M 37.58 80.95 C 39.11 78.00 40.20 74.48 43.16 72.63 L 42.78 73.42 C 40.63 77.12 39.21 81.12 38.40 85.32 C 37.99 83.89 37.62 82.44 37.58 80.95 Z" />
<path fill="#d4e5bb" opacity="1.00" d=" M 127.35 95.62 C 125.27 93.87 121.50 92.80 121.57 89.57 C 124.52 91.34 127.50 93.06 130.56 94.64 C 133.32 96.09 136.43 97.06 138.49 99.53 C 134.68 98.46 130.51 98.29 127.35 95.62 Z" />
<path fill="#d4e5bb" opacity="1.00" d=" M 36.11 90.85 C 37.28 93.05 38.53 95.21 39.78 97.37 C 37.81 103.33 39.67 109.54 39.78 115.62 C 39.32 115.49 38.41 115.24 37.96 115.11 C 36.01 107.25 34.31 98.89 36.11 90.85 Z" />
<path fill="#d4e5bb" opacity="1.00" d=" M 34.12 107.53 C 34.75 110.26 35.30 113.00 35.93 115.73 C 35.81 117.64 35.56 119.53 35.34 121.43 C 34.16 116.92 33.45 112.20 34.12 107.53 Z" />
</g>
<g id="#aacc73ff">
<path fill="#aacc73" opacity="1.00" d=" M 72.58 24.09 C 75.10 30.11 76.64 36.49 79.22 42.49 C 79.75 49.31 78.93 56.11 78.15 62.87 C 74.84 66.30 73.96 71.00 73.33 75.53 C 68.75 81.02 63.66 86.08 59.11 91.59 C 56.13 89.61 52.80 88.16 49.98 85.94 C 48.13 80.93 46.32 75.90 44.10 71.03 C 46.61 67.02 47.76 62.37 50.10 58.26 C 51.50 56.02 51.55 53.38 51.44 50.83 C 52.34 47.68 53.56 44.63 54.77 41.59 C 57.95 40.65 58.12 36.78 59.31 34.19 C 64.85 32.59 68.60 27.96 72.58 24.09 Z" />
<path fill="#aacc73" opacity="1.00" d=" M 78.10 66.13 C 78.92 64.16 80.85 62.66 82.87 62.06 C 86.45 61.34 88.74 64.68 91.04 66.78 C 89.30 67.86 87.55 68.93 85.80 69.99 C 83.39 68.48 79.82 68.38 78.10 66.13 Z" />
<path fill="#aacc73" opacity="1.00" d=" M 38.40 85.32 C 39.21 81.12 40.63 77.12 42.78 73.42 C 45.12 76.58 45.96 80.54 47.67 84.05 C 48.67 85.87 47.55 87.88 46.06 88.99 C 43.63 90.28 40.97 90.98 38.27 91.40 C 36.67 88.15 36.63 84.39 37.58 80.95 C 37.62 82.44 37.99 83.89 38.40 85.32 Z" />
<path fill="#aacc73" opacity="1.00" d=" M 107.02 82.08 C 107.53 82.01 108.54 81.87 109.05 81.80 C 113.24 84.36 117.45 86.88 121.57 89.57 C 121.50 92.80 125.27 93.87 127.35 95.62 C 130.51 98.29 134.68 98.46 138.49 99.53 C 137.23 101.80 135.84 104.00 134.39 106.15 C 133.43 104.70 132.55 103.06 130.88 102.34 C 126.37 99.98 122.08 97.14 118.47 93.52 C 114.76 89.59 109.94 86.74 107.02 82.08 Z" />
<path fill="#aacc73" opacity="1.00" d=" M 68.23 84.19 C 68.66 84.54 69.53 85.23 69.96 85.58 C 72.33 85.36 74.69 84.99 77.00 84.40 C 79.78 86.79 82.83 89.43 86.76 89.21 C 84.90 92.79 84.73 97.11 82.37 100.43 C 79.75 102.29 76.19 101.74 73.14 102.23 C 69.39 98.62 64.99 95.82 60.75 92.84 C 62.77 89.57 65.78 87.12 68.23 84.19 Z" />
<path fill="#aacc73" opacity="1.00" d=" M 49.44 87.99 C 52.28 89.48 54.94 91.28 57.54 93.16 C 55.61 100.92 51.84 108.11 50.03 115.93 C 47.13 118.48 44.50 121.76 40.44 122.39 C 40.23 121.85 39.81 120.76 39.59 120.22 C 38.99 120.10 37.78 119.87 37.17 119.76 C 38.58 124.04 40.29 128.42 43.72 131.51 C 43.44 131.63 42.88 131.87 42.61 131.99 C 42.40 131.68 41.98 131.07 41.77 130.76 C 39.99 127.40 36.56 125.07 35.34 121.43 C 35.56 119.53 35.81 117.64 35.93 115.73 C 36.17 116.72 36.65 118.70 36.89 119.69 C 37.43 119.01 37.95 118.32 38.47 117.62 C 38.34 116.99 38.09 115.74 37.96 115.11 C 38.41 115.24 39.32 115.49 39.78 115.62 C 39.67 109.54 37.81 103.33 39.78 97.37 C 43.54 94.84 46.40 91.29 49.44 87.99 Z" />
<path fill="#aacc73" opacity="1.00" d=" M 59.35 94.79 C 62.59 95.82 64.98 98.39 67.75 100.26 C 73.54 104.85 78.85 110.04 84.80 114.43 C 84.57 116.32 84.30 118.33 82.99 119.83 C 78.59 122.48 74.84 126.55 69.60 127.55 C 64.12 128.98 58.48 127.76 52.99 127.01 C 49.38 125.50 51.37 120.95 51.76 118.04 C 52.89 109.88 56.42 102.41 59.35 94.79 Z" />
<path fill="#aacc73" opacity="1.00" d=" M 52.39 139.40 C 55.40 143.21 58.38 147.04 61.39 150.85 C 60.68 149.88 59.54 149.44 58.52 148.92 C 57.29 148.50 56.60 147.71 56.43 146.55 C 56.16 146.12 55.60 145.25 55.33 144.82 L 54.72 144.59 C 54.05 143.36 53.26 142.19 52.37 141.11 L 52.37 140.03 C 52.37 139.87 52.39 139.56 52.39 139.40 Z" />
<path fill="#aacc73" opacity="1.00" d=" M 87.81 146.58 C 90.31 147.72 93.00 148.33 95.52 149.43 C 98.37 150.99 101.01 152.93 103.94 154.38 C 105.08 153.55 106.06 151.77 107.73 152.49 C 111.74 153.71 115.31 156.01 119.02 157.91 C 119.33 160.83 120.99 163.17 123.61 164.47 C 122.07 165.08 120.53 165.71 118.99 166.33 C 116.34 165.59 113.59 165.38 110.87 165.75 C 111.44 167.11 112.03 168.47 112.60 169.84 C 112.21 169.84 111.44 169.84 111.05 169.84 C 109.74 169.13 108.52 168.29 107.27 167.49 C 104.52 165.20 100.89 165.74 97.61 165.27 C 94.68 163.94 92.88 161.04 90.72 158.77 C 90.78 158.34 90.89 157.46 90.95 157.03 C 90.35 155.83 89.74 154.64 89.14 153.44 C 90.93 153.74 92.72 154.04 94.52 154.29 C 92.61 151.45 90.14 149.06 87.81 146.58 Z" />
<path fill="#aacc73" opacity="1.00" d=" M 61.39 150.85 C 62.62 152.43 63.81 154.04 64.97 155.68 C 64.51 155.46 63.58 155.02 63.12 154.81 C 62.05 154.25 61.48 153.41 61.41 152.29 C 61.41 151.93 61.40 151.21 61.39 150.85 Z" />
<path fill="#aacc73" opacity="1.00" d=" M 142.12 151.39 C 144.88 153.32 147.14 155.84 149.39 158.32 C 147.49 157.79 145.84 156.72 144.38 155.42 C 143.75 156.70 143.11 157.98 142.29 159.15 C 142.31 156.56 142.22 153.98 142.12 151.39 Z" />
<path fill="#aacc73" opacity="1.00" d=" M 169.40 175.32 C 169.43 174.90 169.50 174.07 169.53 173.66 L 170.30 174.25 C 172.13 175.86 174.34 177.08 176.83 177.22 C 177.51 177.31 178.88 177.48 179.56 177.56 L 179.72 178.12 C 180.20 179.70 180.55 181.31 180.85 182.93 C 180.41 181.78 179.97 180.63 179.54 179.49 C 176.00 178.52 172.46 177.38 169.40 175.32 Z" />
</g>
<g id="#84a752ff">
<path fill="#84a752" opacity="1.00" d=" M 79.22 42.49 L 80.01 41.55 C 81.99 46.31 83.65 51.25 86.48 55.59 C 88.56 59.06 91.17 62.17 93.46 65.50 C 90.55 64.21 88.67 61.39 85.77 60.12 C 82.92 59.45 80.28 61.19 78.15 62.87 C 78.93 56.11 79.75 49.31 79.22 42.49 Z" />
<path fill="#84a752" opacity="1.00" d=" M 85.80 69.99 C 87.55 68.93 89.30 67.86 91.04 66.78 C 93.62 69.00 93.91 72.57 94.75 75.66 C 92.24 73.08 88.87 71.74 85.80 69.99 Z" />
<path fill="#84a752" opacity="1.00" d=" M 96.28 79.01 C 97.00 74.72 95.46 70.60 94.42 66.51 C 94.73 66.93 95.34 67.75 95.65 68.16 C 97.72 72.01 100.98 75.19 104.86 77.19 L 105.48 77.53 L 105.92 78.11 C 106.89 79.40 107.91 80.65 109.05 81.80 C 108.54 81.87 107.53 82.01 107.02 82.08 C 109.94 86.74 114.76 89.59 118.47 93.52 C 122.08 97.14 126.37 99.98 130.88 102.34 C 132.55 103.06 133.43 104.70 134.39 106.15 C 133.39 107.64 132.57 109.22 131.83 110.85 L 131.58 111.37 L 131.01 111.91 C 127.13 115.29 125.85 120.48 123.73 124.97 C 122.94 123.55 122.08 122.15 120.70 121.22 C 122.22 131.11 131.76 136.22 137.44 143.52 C 140.33 147.00 139.74 151.79 139.75 156.00 C 139.76 158.99 138.68 161.80 137.65 164.55 C 137.37 164.27 136.81 163.71 136.53 163.43 C 134.39 165.35 132.28 167.61 129.39 168.34 C 125.88 169.19 122.21 168.91 118.70 169.77 C 116.18 170.20 113.33 171.74 111.05 169.84 C 111.44 169.84 112.21 169.84 112.60 169.84 C 112.03 168.47 111.44 167.11 110.87 165.75 C 113.59 165.38 116.34 165.59 118.99 166.33 C 120.53 165.71 122.07 165.08 123.61 164.47 C 120.99 163.17 119.33 160.83 119.02 157.91 C 115.31 156.01 111.74 153.71 107.73 152.49 C 106.06 151.77 105.08 153.55 103.94 154.38 C 101.01 152.93 98.37 150.99 95.52 149.43 C 93.00 148.33 90.31 147.72 87.81 146.58 C 90.14 149.06 92.61 151.45 94.52 154.29 C 92.72 154.04 90.93 153.74 89.14 153.44 C 89.74 154.64 90.35 155.83 90.95 157.03 C 90.89 157.46 90.78 158.34 90.72 158.77 C 92.88 161.04 94.68 163.94 97.61 165.27 C 100.89 165.74 104.52 165.20 107.27 167.49 C 106.08 167.76 104.89 168.02 103.71 168.28 C 103.65 168.70 103.55 169.54 103.50 169.96 C 98.22 167.96 92.02 167.36 87.85 163.20 C 82.59 158.37 80.01 151.53 76.20 145.64 C 75.12 143.62 72.87 141.11 74.91 138.94 C 79.43 132.73 82.31 125.57 85.91 118.82 C 86.74 117.06 88.07 114.51 86.07 113.02 C 81.89 109.27 77.26 106.05 73.14 102.23 C 76.19 101.74 79.75 102.29 82.37 100.43 C 84.73 97.11 84.90 92.79 86.76 89.21 C 91.59 88.12 96.02 84.18 96.28 79.01 Z" />
<path fill="#84a752" opacity="1.00" d=" M 68.23 84.19 C 69.89 81.82 71.66 79.44 74.28 78.04 C 75.01 80.23 75.78 82.43 77.00 84.40 C 74.69 84.99 72.33 85.36 69.96 85.58 C 69.53 85.23 68.66 84.54 68.23 84.19 Z" />
<path fill="#84a752" opacity="1.00" d=" M 38.27 91.40 C 40.97 90.98 43.63 90.28 46.06 88.99 C 44.24 91.06 42.36 93.07 40.54 95.13 C 39.77 93.90 39.03 92.64 38.27 91.40 Z" />
<path fill="#84a752" opacity="1.00" d=" M 40.44 122.39 C 44.50 121.76 47.13 118.48 50.03 115.93 C 49.44 118.50 49.06 121.11 48.70 123.72 C 46.17 123.46 43.63 123.60 41.18 124.32 C 40.93 123.68 40.69 123.03 40.44 122.39 Z" />
<path fill="#84a752" opacity="1.00" d=" M 69.60 127.55 C 74.84 126.55 78.59 122.48 82.99 119.83 C 80.39 126.68 76.62 133.03 72.71 139.21 C 68.88 138.20 65.68 135.81 62.41 133.68 C 59.24 131.50 55.82 129.65 52.99 127.01 C 58.48 127.76 64.12 128.98 69.60 127.55 Z" />
<path fill="#84a752" opacity="1.00" d=" M 54.91 138.24 C 60.31 138.46 65.88 138.92 70.93 140.90 C 77.30 149.22 80.95 159.47 88.61 166.86 C 85.51 166.42 81.98 165.52 79.63 168.26 L 78.87 168.80 C 78.75 168.33 78.49 167.38 78.36 166.91 C 78.26 165.49 76.82 164.46 75.44 164.74 L 74.30 164.78 L 74.04 163.64 C 73.98 162.36 72.69 161.40 71.45 161.67 L 70.49 161.71 L 70.17 161.00 C 66.31 152.63 58.41 146.78 54.91 138.24 Z" />
<path fill="#84a752" opacity="1.00" d=" M 144.38 155.42 C 145.84 156.72 147.49 157.79 149.39 158.32 C 154.17 159.55 156.03 165.81 153.61 169.87 C 148.95 168.52 144.93 165.86 141.66 162.30 C 140.50 161.44 141.76 159.99 142.29 159.15 C 143.11 157.98 143.75 156.70 144.38 155.42 Z" />
<path fill="#84a752" opacity="1.00" d=" M 156.20 163.15 C 158.22 165.09 160.25 167.16 162.93 168.18 C 163.41 168.37 164.37 168.75 164.85 168.95 C 162.25 170.47 159.32 171.16 156.32 171.15 C 156.32 168.48 156.29 165.81 156.20 163.15 Z" />
</g>
<g id="#ffffffff">
<path fill="#ffffff" opacity="1.00" d=" M 76.11 70.16 C 77.87 68.58 80.14 70.09 82.11 70.26 C 81.95 72.45 81.84 74.67 82.25 76.85 C 80.14 77.23 78.03 77.58 75.92 77.92 C 75.53 75.37 74.79 72.58 76.11 70.16 Z" />
</g>
<g id="#d2e1e6ff">
<path fill="#d2e1e6" opacity="1.00" d=" M 91.40 74.79 C 92.99 76.01 94.46 77.71 94.30 79.87 C 93.79 85.85 85.22 89.63 80.82 85.20 C 78.50 83.32 76.61 80.87 75.92 77.92 C 78.03 77.58 80.14 77.23 82.25 76.85 C 83.15 77.57 84.03 78.33 84.91 79.08 C 88.02 79.65 90.51 77.65 91.40 74.79 Z" />
</g>
</svg>
