<?xml version="1.0" encoding="UTF-8" ?>
<!DOCTYPE svg PUBLIC "-//W3C//DTD SVG 1.1//EN" "http://www.w3.org/Graphics/SVG/1.1/DTD/svg11.dtd">
<svg width="215pt" height="215pt" viewBox="0 0 215 215" version="1.1" xmlns="http://www.w3.org/2000/svg">
<g id="#251b17ef">
<path fill="#251b17" opacity="0.94" d=" M 101.43 22.62 C 101.71 21.02 103.45 23.29 103.34 23.99 C 103.84 25.44 103.82 26.83 103.26 28.18 C 102.38 26.43 101.98 24.49 101.43 22.62 Z" />
<path fill="#251b17" opacity="0.94" d=" M 91.16 33.62 C 93.26 29.47 97.08 26.27 100.72 23.45 C 97.75 27.04 94.58 30.46 91.16 33.62 Z" />
<path fill="#251b17" opacity="0.94" d=" M 82.94 42.06 C 85.45 39.47 87.12 36.05 90.44 34.29 L 90.03 34.98 C 89.84 35.29 89.46 35.91 89.27 36.23 C 86.14 39.91 82.10 43.18 80.64 47.96 L 79.96 47.55 C 79.83 47.32 79.57 46.84 79.45 46.61 C 80.09 45.37 80.74 44.13 81.39 42.90 C 77.67 43.33 73.96 44.02 70.44 45.31 C 68.62 45.92 66.83 46.64 65.04 47.33 L 63.02 48.13 C 68.55 43.53 76.04 42.71 82.94 42.06 Z" />
<path fill="#251b17" opacity="0.94" d=" M 105.10 48.99 C 113.77 53.41 118.77 62.65 120.53 71.92 C 123.99 83.19 119.54 95.23 112.63 104.23 L 111.84 103.76 C 114.39 99.56 117.35 95.53 118.77 90.75 C 122.00 82.38 120.53 72.96 117.37 64.80 C 114.96 58.39 109.65 53.87 105.10 48.99 Z" />
<path fill="#251b17" opacity="0.94" d=" M 60.06 52.04 C 60.63 52.27 61.77 52.74 62.34 52.97 C 62.10 54.24 61.82 55.50 61.52 56.76 C 59.94 58.14 58.33 60.02 56.02 59.87 C 54.22 56.42 57.59 53.81 60.06 52.04 M 59.50 53.91 C 58.60 54.29 57.70 56.18 59.07 56.53 C 60.82 56.80 61.87 52.96 59.50 53.91 Z" />
<path fill="#251b17" opacity="0.94" d=" M 48.71 61.64 C 50.64 58.84 52.47 55.82 55.41 53.96 C 53.64 56.19 52.07 58.57 50.58 60.99 C 57.01 60.80 63.24 63.06 68.32 66.94 C 71.80 70.42 74.41 75.02 74.70 80.01 C 74.75 84.59 70.24 87.87 66.00 88.19 C 60.83 88.59 55.61 87.35 50.93 85.17 C 49.30 84.34 47.73 83.39 46.14 82.49 C 46.86 86.30 47.55 90.18 49.29 93.69 C 50.96 97.03 53.31 99.95 55.30 103.09 C 49.62 98.44 46.21 91.24 45.48 83.99 C 45.13 80.88 43.01 78.41 41.83 75.61 C 46.58 82.04 53.82 86.94 62.01 87.17 C 65.89 87.11 70.78 86.54 72.79 82.69 C 74.89 77.76 72.36 72.39 68.84 68.84 C 63.75 64.38 56.86 61.88 50.09 62.53 C 45.82 62.86 42.17 66.28 41.48 70.50 C 41.49 71.61 41.50 73.84 41.51 74.95 C 39.98 72.45 39.66 68.91 41.59 66.53 C 43.31 64.11 45.99 62.66 48.71 61.64 Z" />
<path fill="#251b17" opacity="0.94" d=" M 86.13 72.13 C 86.96 69.55 89.78 68.81 91.96 67.77 C 93.27 68.85 94.79 69.77 95.77 71.20 C 97.08 74.40 94.34 78.00 91.07 78.29 C 88.10 78.12 85.57 75.09 86.13 72.13 M 89.49 71.76 C 90.43 72.64 91.38 73.51 92.34 74.37 C 93.10 73.18 95.15 71.92 93.45 70.57 C 92.43 68.75 90.47 70.99 89.49 71.76 Z" />
<path fill="#251b17" opacity="0.94" d=" M 55.84 103.63 C 56.32 104.00 57.29 104.72 57.77 105.08 C 67.62 113.72 82.00 117.44 94.69 113.86 L 95.25 114.00 C 95.49 114.22 95.96 114.65 96.20 114.87 L 96.17 115.29 C 83.83 118.62 70.40 116.00 60.07 108.54 C 59.21 107.85 58.45 107.93 57.79 108.80 C 53.63 113.22 51.35 119.84 53.30 125.77 C 56.18 133.78 63.36 139.76 71.53 141.84 C 78.66 144.16 87.10 143.16 93.01 138.37 C 99.60 133.79 102.22 124.95 100.05 117.35 C 99.99 116.74 99.88 115.53 99.83 114.92 C 100.03 114.50 100.43 113.67 100.63 113.26 C 101.35 116.80 101.87 120.42 101.86 124.04 C 101.86 127.54 100.17 130.70 99.02 133.91 C 101.69 137.46 102.27 141.92 101.53 146.21 C 106.03 148.51 108.06 153.19 109.63 157.70 L 109.97 158.27 L 109.89 158.71 C 109.50 160.71 109.12 162.71 108.60 164.69 C 105.37 172.26 97.57 178.28 89.06 177.37 C 90.79 180.80 93.48 183.56 96.36 186.06 C 93.71 184.81 90.78 184.14 88.29 182.57 C 86.66 181.17 86.69 178.90 86.68 176.93 C 83.98 176.39 81.42 175.35 79.07 173.92 C 75.38 175.20 72.46 171.75 71.78 168.45 C 72.04 165.89 73.04 163.44 72.89 160.82 C 70.13 159.34 67.58 157.53 65.08 155.66 C 62.87 155.47 60.19 155.16 59.18 152.84 C 57.31 149.90 58.63 146.39 60.63 143.93 C 60.93 142.14 61.24 140.35 61.57 138.57 C 57.86 134.84 53.87 131.21 52.06 126.10 C 49.42 125.00 46.89 122.82 46.51 119.85 C 46.68 117.34 47.56 114.41 49.99 113.23 C 49.06 115.02 47.49 116.80 47.78 118.96 C 47.96 121.47 49.84 123.31 51.23 125.24 C 51.45 121.16 52.13 117.14 52.92 113.15 C 52.42 113.12 51.41 113.06 50.90 113.04 L 50.16 112.76 C 51.12 112.56 53.04 112.15 53.99 111.95 C 55.33 110.28 56.67 108.62 58.02 106.96 C 57.28 105.86 56.55 104.75 55.84 103.63 M 98.63 134.86 C 97.17 136.29 95.72 137.72 94.25 139.14 C 91.57 140.82 88.78 142.33 85.94 143.73 C 77.94 145.73 69.16 144.07 62.53 139.14 C 59.03 147.73 65.65 157.95 74.45 159.74 L 74.66 159.96 C 78.10 160.87 81.65 161.24 85.19 161.55 C 83.81 160.02 82.24 158.64 81.11 156.90 C 79.33 152.83 84.21 147.08 88.50 149.60 C 92.17 150.96 92.90 155.21 92.04 158.60 C 94.71 156.66 97.02 154.30 98.74 151.47 C 99.44 148.96 100.46 146.51 100.85 143.92 C 101.12 140.74 99.82 137.74 98.63 134.86 M 63.42 154.60 C 62.04 151.82 61.65 148.58 60.17 145.92 C 57.07 148.68 60.25 153.36 63.42 154.60 M 101.22 147.97 C 101.05 148.59 100.71 149.83 100.55 150.45 L 100.51 150.41 C 98.80 154.45 95.63 157.70 92.04 160.13 C 87.81 162.48 82.70 162.92 78.01 161.95 C 76.53 161.59 75.06 161.28 73.58 160.97 C 73.70 168.37 79.59 174.46 86.68 175.88 L 86.70 175.95 C 88.11 176.07 89.53 176.20 90.94 176.33 C 89.56 174.30 88.62 171.80 89.31 169.33 C 90.39 167.10 92.81 164.82 95.47 165.72 C 98.73 166.56 100.35 169.92 100.60 173.04 C 105.32 169.06 108.94 163.16 108.12 156.76 L 107.90 156.59 C 106.85 153.25 105.36 148.23 101.22 147.97 M 83.62 151.62 C 81.82 153.17 82.29 155.62 82.41 157.70 C 84.10 158.66 85.83 160.39 87.94 159.80 C 90.71 158.96 91.81 155.71 91.45 153.08 L 90.74 153.19 C 89.99 150.28 85.63 149.16 83.62 151.62 M 72.60 165.83 C 72.30 169.28 74.44 171.99 77.44 173.41 C 76.00 170.79 74.72 168.01 72.60 165.83 M 92.41 167.53 C 90.07 169.05 90.13 172.02 90.66 174.44 C 92.63 175.30 94.82 176.29 96.87 175.01 C 99.42 174.08 99.19 171.09 99.07 168.89 C 97.16 167.71 94.58 165.77 92.41 167.53 M 87.90 178.93 C 87.35 180.05 88.45 182.03 89.76 181.85 C 90.24 180.75 89.19 178.77 87.90 178.93 Z" />
<path fill="#251b17" opacity="0.94" d=" M 105.45 108.90 C 107.38 107.43 109.33 105.98 111.30 104.57 C 109.21 108.57 104.98 110.74 101.01 112.48 C 102.46 111.25 103.93 110.04 105.45 108.90 Z" />
<path fill="#251b17" opacity="0.94" d=" M 81.45 124.69 C 85.50 123.18 89.55 126.98 89.52 131.01 C 89.68 135.93 82.87 139.73 79.18 135.89 C 75.02 132.87 76.49 125.87 81.45 124.69 M 78.33 132.69 C 79.83 134.41 81.53 136.49 84.08 136.27 C 86.29 135.47 87.34 133.29 88.44 131.40 C 87.67 129.14 87.09 125.45 84.02 125.45 C 79.94 124.74 77.46 129.12 78.33 132.69 Z" />
<path fill="#251b17" opacity="0.94" d=" M 162.88 138.83 C 164.97 135.82 165.56 132.12 167.01 128.82 C 168.95 128.29 170.70 129.67 171.53 131.32 C 176.18 139.87 175.84 151.13 170.04 159.05 C 168.10 161.86 164.89 163.07 161.65 163.59 C 163.15 166.43 163.07 169.63 162.68 172.72 C 163.30 174.63 164.37 177.00 162.53 178.62 C 160.98 180.75 158.27 180.46 156.00 179.93 C 153.61 180.90 151.09 181.44 148.50 181.17 C 147.83 183.31 146.67 185.25 144.76 186.50 C 143.92 186.34 143.08 186.19 142.24 186.05 C 139.10 188.02 135.35 187.89 131.80 187.48 C 131.15 189.89 129.46 192.24 126.76 192.41 C 122.12 192.28 117.14 193.92 112.89 191.33 C 116.06 191.45 119.23 191.65 122.39 191.86 C 121.70 189.66 120.02 186.95 122.05 184.93 C 124.40 181.74 128.68 183.42 131.47 185.01 C 132.86 179.21 133.47 172.43 129.50 167.46 C 126.83 163.78 122.24 162.40 117.87 162.35 C 119.47 166.90 121.24 171.80 119.68 176.63 C 118.67 182.36 112.87 184.88 108.37 187.47 C 109.71 188.66 111.06 189.85 112.38 191.06 C 110.37 190.31 108.61 189.07 106.98 187.69 C 103.61 187.48 99.82 188.52 96.87 186.42 C 98.88 186.45 100.88 186.50 102.89 186.55 C 102.08 185.36 101.25 184.18 100.40 183.03 C 101.54 179.97 104.59 175.44 108.32 177.81 C 111.10 178.93 111.18 182.12 111.53 184.65 C 116.87 180.98 120.68 174.30 118.64 167.77 C 117.52 163.82 115.03 160.45 111.56 158.26 L 110.90 157.74 C 113.54 157.86 115.33 159.76 117.02 161.50 C 120.62 161.10 124.01 162.17 127.26 163.59 C 129.74 162.36 132.03 160.18 135.01 160.46 C 137.63 160.25 140.02 161.42 142.29 162.58 C 143.66 160.93 144.87 158.91 146.98 158.10 C 149.34 157.07 151.97 157.91 154.42 158.08 C 153.77 155.75 152.89 153.20 153.94 150.84 C 155.85 146.12 160.28 143.12 162.88 138.83 M 168.17 128.85 C 166.70 133.76 164.55 138.52 161.34 142.55 C 158.28 146.22 153.98 149.99 154.82 155.31 C 155.58 157.82 156.88 160.61 159.44 161.68 C 163.20 163.59 168.01 161.38 169.80 157.75 C 172.66 152.00 174.24 145.25 172.80 138.88 C 172.05 135.23 170.82 131.59 168.17 128.85 M 143.23 162.93 C 148.34 166.97 150.26 174.06 148.42 180.23 C 150.62 180.10 152.81 179.81 154.93 179.21 C 154.77 177.33 153.91 175.05 155.46 173.50 C 156.99 171.46 159.69 171.56 161.97 171.37 C 161.71 169.03 162.08 166.43 160.72 164.38 C 158.74 162.61 156.66 160.93 154.57 159.29 C 150.46 157.01 145.62 159.25 143.23 162.93 M 128.45 164.15 C 130.74 167.09 133.19 170.14 133.82 173.93 C 134.90 178.19 133.50 182.49 132.00 186.45 C 134.84 186.83 137.75 186.84 140.47 185.81 C 139.81 184.03 138.15 181.68 140.14 180.10 C 141.92 177.79 144.94 178.43 147.42 178.79 C 148.22 173.38 146.53 167.33 142.42 163.61 C 138.36 160.14 132.51 161.36 128.45 164.15 M 156.64 174.97 L 155.82 174.35 C 155.95 176.49 156.20 179.64 159.05 179.68 C 161.50 179.34 162.10 176.76 163.05 174.91 C 161.92 173.79 160.78 172.68 159.64 171.58 L 159.03 173.27 C 157.56 172.82 156.76 173.39 156.64 174.97 M 102.52 183.64 C 102.86 189.26 112.87 185.83 110.08 180.88 L 109.37 180.72 C 109.18 179.29 107.07 179.01 105.98 178.43 C 103.76 179.10 102.22 181.28 102.52 183.64 M 142.85 178.56 L 143.12 179.48 C 141.58 179.40 140.13 181.42 140.80 182.83 C 141.21 186.16 146.19 185.89 146.80 182.81 C 147.78 180.20 144.78 179.08 142.85 178.56 M 125.01 183.57 L 125.30 184.63 C 123.80 184.47 122.20 186.29 122.69 187.74 C 122.89 188.47 123.29 189.93 123.50 190.66 C 126.04 194.04 131.69 189.65 129.87 186.20 C 129.26 184.02 126.81 183.98 125.01 183.57 Z" />
</g>
<g id="#f6f4f6ff">
<path fill="#f6f4f6" opacity="1.00" d=" M 101.43 22.62 C 101.98 24.49 102.38 26.43 103.26 28.18 L 103.24 28.71 C 102.83 36.72 102.98 44.76 102.76 52.78 C 100.70 52.72 98.64 52.66 96.58 52.60 C 98.44 52.24 100.31 51.88 102.19 51.53 C 102.24 44.24 100.89 37.06 100.49 29.80 C 98.79 37.52 96.58 45.12 94.29 52.69 C 89.53 51.81 84.82 50.45 80.64 47.96 C 82.10 43.18 86.14 39.91 89.27 36.23 C 89.46 35.91 89.84 35.29 90.03 34.98 C 90.31 34.64 90.87 33.96 91.16 33.62 C 94.58 30.46 97.75 27.04 100.72 23.45 C 100.90 23.25 101.25 22.83 101.43 22.62 Z" />
<path fill="#f6f4f6" opacity="1.00" d=" M 59.50 53.91 C 61.87 52.96 60.82 56.80 59.07 56.53 C 57.70 56.18 58.60 54.29 59.50 53.91 Z" />
<path fill="#f6f4f6" opacity="1.00" d=" M 46.52 65.48 C 48.92 65.30 51.37 65.29 53.53 66.51 C 53.42 66.95 53.19 67.82 53.08 68.26 C 50.95 68.33 48.83 68.37 46.70 68.40 C 46.64 67.43 46.58 66.45 46.52 65.48 Z" />
<path fill="#f6f4f6" opacity="1.00" d=" M 89.49 71.76 C 90.47 70.99 92.43 68.75 93.45 70.57 C 95.15 71.92 93.10 73.18 92.34 74.37 C 91.38 73.51 90.43 72.64 89.49 71.76 Z" />
<path fill="#f6f4f6" opacity="1.00" d=" M 168.17 128.85 C 170.82 131.59 172.05 135.23 172.80 138.88 C 171.92 137.56 170.98 136.29 170.06 135.01 C 169.31 138.01 169.24 141.56 166.92 143.89 C 164.82 145.93 161.45 144.62 159.12 146.02 C 157.24 148.88 156.13 152.17 154.82 155.31 C 153.98 149.99 158.28 146.22 161.34 142.55 C 164.55 138.52 166.70 133.76 168.17 128.85 Z" />
</g>
<g id="#bdbccaff">
<path fill="#bdbcca" opacity="1.00" d=" M 103.24 28.71 C 103.79 36.71 104.25 44.76 103.92 52.79 L 102.82 53.49 C 99.96 53.88 97.09 53.28 94.29 52.69 C 96.58 45.12 98.79 37.52 100.49 29.80 C 100.89 37.06 102.24 44.24 102.19 51.53 C 100.31 51.88 98.44 52.24 96.58 52.60 C 98.64 52.66 100.70 52.72 102.76 52.78 C 102.98 44.76 102.83 36.72 103.24 28.71 Z" />
<path fill="#bdbcca" opacity="1.00" d=" M 170.06 135.01 C 170.98 136.29 171.92 137.56 172.80 138.88 C 174.24 145.25 172.66 152.00 169.80 157.75 C 168.01 161.38 163.20 163.59 159.44 161.68 C 156.88 160.61 155.58 157.82 154.82 155.31 C 156.13 152.17 157.24 148.88 159.12 146.02 C 161.45 144.62 164.82 145.93 166.92 143.89 C 169.24 141.56 169.31 138.01 170.06 135.01 Z" />
</g>
<g id="#c9a57aff">
<path fill="#c9a57a" opacity="1.00" d=" M 70.44 45.31 C 73.96 44.02 77.67 43.33 81.39 42.90 C 80.74 44.13 80.09 45.37 79.45 46.61 C 79.57 46.84 79.83 47.32 79.96 47.55 C 82.06 52.12 87.67 52.80 91.84 54.53 C 86.29 62.05 76.84 64.49 68.32 66.94 C 63.24 63.06 57.01 60.80 50.58 60.99 C 52.07 58.57 53.64 56.19 55.41 53.96 C 57.64 51.67 60.25 49.73 63.02 48.13 L 65.04 47.33 C 64.14 49.21 63.22 51.08 62.34 52.97 C 61.77 52.74 60.63 52.27 60.06 52.04 C 57.59 53.81 54.22 56.42 56.02 59.87 C 58.33 60.02 59.94 58.14 61.52 56.76 C 67.77 54.82 74.75 52.45 77.99 46.26 C 75.48 45.89 72.97 45.54 70.44 45.31 Z" />
<path fill="#c9a57a" opacity="1.00" d=" M 46.14 82.49 C 47.73 83.39 49.30 84.34 50.93 85.17 C 50.51 85.87 49.66 87.27 49.23 87.97 C 51.52 93.97 57.00 98.52 57.77 105.08 C 57.29 104.72 56.32 104.00 55.84 103.63 L 55.49 103.38 L 55.30 103.09 C 53.31 99.95 50.96 97.03 49.29 93.69 C 47.55 90.18 46.86 86.30 46.14 82.49 Z" />
<path fill="#c9a57a" opacity="1.00" d=" M 110.95 98.00 C 113.19 95.21 115.64 92.55 118.77 90.75 C 117.35 95.53 114.39 99.56 111.84 103.76 L 111.40 104.50 L 111.30 104.57 C 109.33 105.98 107.38 107.43 105.45 108.90 C 104.99 107.93 104.57 106.95 104.19 105.95 C 105.85 102.85 108.78 100.72 110.95 98.00 Z" />
<path fill="#c9a57a" opacity="1.00" d=" M 57.79 108.80 C 58.45 107.93 59.21 107.85 60.07 108.54 C 61.04 112.29 61.51 116.26 60.25 120.00 C 58.74 124.26 61.00 128.57 62.97 132.26 C 65.04 136.15 69.67 137.78 71.53 141.84 C 63.36 139.76 56.18 133.78 53.30 125.77 C 51.35 119.84 53.63 113.22 57.79 108.80 Z" />
<path fill="#c9a57a" opacity="1.00" d=" M 96.27 131.22 C 99.06 127.15 99.08 122.02 100.05 117.35 C 102.22 124.95 99.60 133.79 93.01 138.37 L 91.39 138.46 C 92.94 136.00 94.67 133.65 96.27 131.22 Z" />
<path fill="#c9a57a" opacity="1.00" d=" M 98.63 134.86 C 99.82 137.74 101.12 140.74 100.85 143.92 C 100.46 146.51 99.44 148.96 98.74 151.47 C 98.44 147.05 99.28 141.19 94.25 139.14 C 95.72 137.72 97.17 136.29 98.63 134.86 Z" />
<path fill="#c9a57a" opacity="1.00" d=" M 74.45 159.74 C 65.65 157.95 59.03 147.73 62.53 139.14 C 69.16 144.07 77.94 145.73 85.94 143.73 C 78.76 147.78 70.46 144.21 63.40 141.67 C 64.18 145.51 64.34 149.87 67.07 152.96 C 69.45 155.31 72.29 157.15 74.45 159.74 Z" />
<path fill="#c9a57a" opacity="1.00" d=" M 101.22 147.97 C 105.36 148.23 106.85 153.25 107.90 156.59 C 105.37 154.63 102.86 152.65 100.55 150.45 C 100.71 149.83 101.05 148.59 101.22 147.97 Z" />
<path fill="#c9a57a" opacity="1.00" d=" M 109.97 158.27 C 110.37 158.26 111.16 158.26 111.56 158.26 C 115.03 160.45 117.52 163.82 118.64 167.77 C 116.55 165.46 114.38 162.56 111.03 162.26 C 110.16 163.01 109.35 163.82 108.60 164.69 C 109.12 162.71 109.50 160.71 109.89 158.71 L 109.97 158.27 Z" />
<path fill="#c9a57a" opacity="1.00" d=" M 73.58 160.97 C 75.06 161.28 76.53 161.59 78.01 161.95 C 80.16 166.41 83.21 170.31 86.16 174.25 C 86.29 174.66 86.55 175.47 86.68 175.88 C 79.59 174.46 73.70 168.37 73.58 160.97 Z" />
<path fill="#c9a57a" opacity="1.00" d=" M 89.06 177.37 C 92.99 178.92 96.84 180.73 100.40 183.03 C 101.25 184.18 102.08 185.36 102.89 186.55 C 100.88 186.50 98.88 186.45 96.87 186.42 L 96.79 186.41 L 96.36 186.06 C 93.48 183.56 90.79 180.80 89.06 177.37 Z" />
</g>
<g id="#dec6acff">
<path fill="#dec6ac" opacity="1.00" d=" M 65.04 47.33 C 66.83 46.64 68.62 45.92 70.44 45.31 C 72.97 45.54 75.48 45.89 77.99 46.26 C 74.75 52.45 67.77 54.82 61.52 56.76 C 61.82 55.50 62.10 54.24 62.34 52.97 C 63.22 51.08 64.14 49.21 65.04 47.33 Z" />
</g>
<g id="#ab8257ff">
<path fill="#ab8257" opacity="1.00" d=" M 79.96 47.55 L 80.64 47.96 C 84.82 50.45 89.53 51.81 94.29 52.69 C 97.09 53.28 99.96 53.88 102.82 53.49 L 104.34 53.30 C 104.31 51.99 104.27 49.38 104.24 48.07 L 105.10 48.99 C 109.65 53.87 114.96 58.39 117.37 64.80 C 120.53 72.96 122.00 82.38 118.77 90.75 C 115.64 92.55 113.19 95.21 110.95 98.00 C 108.78 100.72 105.85 102.85 104.19 105.95 C 104.57 106.95 104.99 107.93 105.45 108.90 C 103.93 110.04 102.46 111.25 101.01 112.48 C 99.24 112.97 97.48 113.53 95.74 114.13 L 95.25 114.00 L 94.69 113.86 C 82.00 117.44 67.62 113.72 57.77 105.08 C 57.00 98.52 51.52 93.97 49.23 87.97 C 49.66 87.27 50.51 85.87 50.93 85.17 C 55.61 87.35 60.83 88.59 66.00 88.19 C 70.24 87.87 74.75 84.59 74.70 80.01 C 74.41 75.02 71.80 70.42 68.32 66.94 C 76.84 64.49 86.29 62.05 91.84 54.53 C 87.67 52.80 82.06 52.12 79.96 47.55 M 86.13 72.13 C 85.57 75.09 88.10 78.12 91.07 78.29 C 94.34 78.00 97.08 74.40 95.77 71.20 C 94.79 69.77 93.27 68.85 91.96 67.77 C 89.78 68.81 86.96 69.55 86.13 72.13 Z" />
<path fill="#ab8257" opacity="1.00" d=" M 60.07 108.54 C 70.40 116.00 83.83 118.62 96.17 115.29 L 96.20 114.87 C 96.66 114.50 97.58 113.76 98.04 113.39 C 98.49 113.77 99.38 114.54 99.83 114.92 C 99.88 115.53 99.99 116.74 100.05 117.35 C 99.08 122.02 99.06 127.15 96.27 131.22 C 94.67 133.65 92.94 136.00 91.39 138.46 L 93.01 138.37 C 87.10 143.16 78.66 144.16 71.53 141.84 C 69.67 137.78 65.04 136.15 62.97 132.26 C 61.00 128.57 58.74 124.26 60.25 120.00 C 61.51 116.26 61.04 112.29 60.07 108.54 M 81.45 124.69 C 76.49 125.87 75.02 132.87 79.18 135.89 C 82.87 139.73 89.68 135.93 89.52 131.01 C 89.55 126.98 85.50 123.18 81.45 124.69 Z" />
<path fill="#ab8257" opacity="1.00" d=" M 85.94 143.73 C 88.78 142.33 91.57 140.82 94.25 139.14 C 99.28 141.19 98.44 147.05 98.74 151.47 C 97.02 154.30 94.71 156.66 92.04 158.60 C 92.90 155.21 92.17 150.96 88.50 149.60 C 84.21 147.08 79.33 152.83 81.11 156.90 C 82.24 158.64 83.81 160.02 85.19 161.55 C 81.65 161.24 78.10 160.87 74.66 159.96 L 74.45 159.74 C 72.29 157.15 69.45 155.31 67.07 152.96 C 64.34 149.87 64.18 145.51 63.40 141.67 C 70.46 144.21 78.76 147.78 85.94 143.73 Z" />
<path fill="#ab8257" opacity="1.00" d=" M 100.51 150.41 L 100.55 150.45 C 102.86 152.65 105.37 154.63 107.90 156.59 L 108.12 156.76 C 108.94 163.16 105.32 169.06 100.60 173.04 C 100.35 169.92 98.73 166.56 95.47 165.72 C 92.81 164.82 90.39 167.10 89.31 169.33 C 88.62 171.80 89.56 174.30 90.94 176.33 C 89.53 176.20 88.11 176.07 86.70 175.95 L 86.68 175.88 C 86.55 175.47 86.29 174.66 86.16 174.25 C 83.21 170.31 80.16 166.41 78.01 161.95 C 82.70 162.92 87.81 162.48 92.04 160.13 C 95.63 157.70 98.80 154.45 100.51 150.41 Z" />
<path fill="#ab8257" opacity="1.00" d=" M 143.23 162.93 C 145.62 159.25 150.46 157.01 154.57 159.29 C 156.66 160.93 158.74 162.61 160.72 164.38 C 162.08 166.43 161.71 169.03 161.97 171.37 C 159.69 171.56 156.99 171.46 155.46 173.50 C 153.91 175.05 154.77 177.33 154.93 179.21 C 152.81 179.81 150.62 180.10 148.42 180.23 C 150.26 174.06 148.34 166.97 143.23 162.93 Z" />
<path fill="#ab8257" opacity="1.00" d=" M 128.45 164.15 C 132.51 161.36 138.36 160.14 142.42 163.61 C 146.53 167.33 148.22 173.38 147.42 178.79 C 144.94 178.43 141.92 177.79 140.14 180.10 C 138.15 181.68 139.81 184.03 140.47 185.81 C 137.75 186.84 134.84 186.83 132.00 186.45 C 133.50 182.49 134.90 178.19 133.82 173.93 C 133.19 170.14 130.74 167.09 128.45 164.15 Z" />
<path fill="#ab8257" opacity="1.00" d=" M 108.60 164.69 C 109.35 163.82 110.16 163.01 111.03 162.26 C 114.38 162.56 116.55 165.46 118.64 167.77 C 120.68 174.30 116.87 180.98 111.53 184.65 C 111.18 182.12 111.10 178.93 108.32 177.81 C 104.59 175.44 101.54 179.97 100.40 183.03 C 96.84 180.73 92.99 178.92 89.06 177.37 C 97.57 178.28 105.37 172.26 108.60 164.69 Z" />
<path fill="#ab8257" opacity="1.00" d=" M 117.87 162.35 C 122.24 162.40 126.83 163.78 129.50 167.46 C 133.47 172.43 132.86 179.21 131.47 185.01 C 128.68 183.42 124.40 181.74 122.05 184.93 C 120.02 186.95 121.70 189.66 122.39 191.86 C 119.23 191.65 116.06 191.45 112.89 191.33 L 112.68 191.33 L 112.38 191.06 C 111.06 189.85 109.71 188.66 108.37 187.47 C 112.87 184.88 118.67 182.36 119.68 176.63 C 121.24 171.80 119.47 166.90 117.87 162.35 Z" />
</g>
<g id="#d48badff">
<path fill="#d48bad" opacity="1.00" d=" M 41.48 70.50 C 42.17 66.28 45.82 62.86 50.09 62.53 C 56.86 61.88 63.75 64.38 68.84 68.84 C 67.29 71.76 66.33 75.80 62.76 76.87 C 55.12 79.01 46.94 76.02 41.48 70.50 M 46.52 65.48 C 46.58 66.45 46.64 67.43 46.70 68.40 C 48.83 68.37 50.95 68.33 53.08 68.26 C 53.19 67.82 53.42 66.95 53.53 66.51 C 51.37 65.29 48.92 65.30 46.52 65.48 Z" />
<path fill="#d48bad" opacity="1.00" d=" M 49.99 113.23 L 50.90 113.04 C 51.41 113.06 52.42 113.12 52.92 113.15 C 52.13 117.14 51.45 121.16 51.23 125.24 C 49.84 123.31 47.96 121.47 47.78 118.96 C 47.49 116.80 49.06 115.02 49.99 113.23 Z" />
<path fill="#d48bad" opacity="1.00" d=" M 78.33 132.69 C 77.46 129.12 79.94 124.74 84.02 125.45 C 87.09 125.45 87.67 129.14 88.44 131.40 C 85.16 132.39 81.74 132.69 78.33 132.69 Z" />
<path fill="#d48bad" opacity="1.00" d=" M 63.42 154.60 C 60.25 153.36 57.07 148.68 60.17 145.92 C 61.65 148.58 62.04 151.82 63.42 154.60 Z" />
<path fill="#d48bad" opacity="1.00" d=" M 83.62 151.62 C 85.63 149.16 89.99 150.28 90.74 153.19 C 88.83 155.80 85.31 156.56 82.41 157.70 C 82.29 155.62 81.82 153.17 83.62 151.62 Z" />
<path fill="#d48bad" opacity="1.00" d=" M 72.60 165.83 C 74.72 168.01 76.00 170.79 77.44 173.41 C 74.44 171.99 72.30 169.28 72.60 165.83 Z" />
<path fill="#d48bad" opacity="1.00" d=" M 92.41 167.53 C 94.58 165.77 97.16 167.71 99.07 168.89 C 96.60 171.21 93.75 173.06 90.66 174.44 C 90.13 172.02 90.07 169.05 92.41 167.53 Z" />
<path fill="#d48bad" opacity="1.00" d=" M 156.64 174.97 C 156.76 173.39 157.56 172.82 159.03 173.27 C 158.85 174.40 157.90 176.49 156.64 174.97 Z" />
<path fill="#d48bad" opacity="1.00" d=" M 102.52 183.64 C 102.22 181.28 103.76 179.10 105.98 178.43 C 107.07 179.01 109.18 179.29 109.37 180.72 C 107.05 181.61 104.81 182.68 102.52 183.64 Z" />
<path fill="#d48bad" opacity="1.00" d=" M 140.80 182.83 C 140.13 181.42 141.58 179.40 143.12 179.48 C 144.08 181.16 142.46 182.73 140.80 182.83 Z" />
<path fill="#d48bad" opacity="1.00" d=" M 122.69 187.74 C 122.20 186.29 123.80 184.47 125.30 184.63 C 126.25 186.39 124.33 187.80 122.69 187.74 Z" />
</g>
<g id="#ad7288ff">
<path fill="#ad7288" opacity="1.00" d=" M 68.84 68.84 C 72.36 72.39 74.89 77.76 72.79 82.69 C 70.78 86.54 65.89 87.11 62.01 87.17 C 53.82 86.94 46.58 82.04 41.83 75.61 L 41.51 75.26 L 41.51 74.95 C 41.50 73.84 41.49 71.61 41.48 70.50 C 46.94 76.02 55.12 79.01 62.76 76.87 C 66.33 75.80 67.29 71.76 68.84 68.84 Z" />
<path fill="#ad7288" opacity="1.00" d=" M 78.33 132.69 C 81.74 132.69 85.16 132.39 88.44 131.40 C 87.34 133.29 86.29 135.47 84.08 136.27 C 81.53 136.49 79.83 134.41 78.33 132.69 Z" />
<path fill="#ad7288" opacity="1.00" d=" M 90.74 153.19 L 91.45 153.08 C 91.81 155.71 90.71 158.96 87.94 159.80 C 85.83 160.39 84.10 158.66 82.41 157.70 C 85.31 156.56 88.83 155.80 90.74 153.19 Z" />
<path fill="#ad7288" opacity="1.00" d=" M 99.07 168.89 C 99.19 171.09 99.42 174.08 96.87 175.01 C 94.82 176.29 92.63 175.30 90.66 174.44 C 93.75 173.06 96.60 171.21 99.07 168.89 Z" />
<path fill="#ad7288" opacity="1.00" d=" M 159.03 173.27 L 159.64 171.58 C 160.78 172.68 161.92 173.79 163.05 174.91 C 162.10 176.76 161.50 179.34 159.05 179.68 C 156.20 179.64 155.95 176.49 155.82 174.35 L 156.64 174.97 C 157.90 176.49 158.85 174.40 159.03 173.27 Z" />
<path fill="#ad7288" opacity="1.00" d=" M 87.90 178.93 C 89.19 178.77 90.24 180.75 89.76 181.85 C 88.45 182.03 87.35 180.05 87.90 178.93 Z" />
<path fill="#ad7288" opacity="1.00" d=" M 142.85 178.56 C 144.78 179.08 147.78 180.20 146.80 182.81 C 146.19 185.89 141.21 186.16 140.80 182.83 C 142.46 182.73 144.08 181.16 143.12 179.48 L 142.85 178.56 Z" />
<path fill="#ad7288" opacity="1.00" d=" M 102.52 183.64 C 104.81 182.68 107.05 181.61 109.37 180.72 L 110.08 180.88 C 112.87 185.83 102.86 189.26 102.52 183.64 Z" />
<path fill="#ad7288" opacity="1.00" d=" M 125.01 183.57 C 126.81 183.98 129.26 184.02 129.87 186.20 C 131.69 189.65 126.04 194.04 123.50 190.66 C 123.29 189.93 122.89 188.47 122.69 187.74 C 124.33 187.80 126.25 186.39 125.30 184.63 L 125.01 183.57 Z" />
</g>
</svg>
