<?xml version="1.0" encoding="UTF-8" ?>
<!DOCTYPE svg PUBLIC "-//W3C//DTD SVG 1.1//EN" "http://www.w3.org/Graphics/SVG/1.1/DTD/svg11.dtd">
<svg width="215pt" height="215pt" viewBox="0 0 215 215" version="1.1" xmlns="http://www.w3.org/2000/svg">
<g id="#342e34fe">
<path fill="#342e34" opacity="1.00" d=" M 129.90 21.88 C 131.68 23.73 133.41 25.81 133.90 28.41 C 132.66 26.59 131.40 24.78 130.09 23.01 C 130.04 39.69 129.85 56.39 130.65 73.05 C 132.52 74.68 134.42 76.36 136.73 77.35 C 139.51 78.39 142.66 80.38 145.63 78.78 C 149.98 77.04 152.28 72.75 154.40 68.86 C 153.69 66.28 152.67 63.80 151.33 61.47 C 150.00 58.96 148.77 56.40 147.48 53.87 C 144.83 48.11 141.76 42.55 138.90 36.89 C 139.91 37.97 140.74 39.18 141.55 40.42 C 142.20 40.06 143.49 39.34 144.14 38.98 C 141.54 40.20 142.19 42.64 143.65 44.52 C 145.84 44.78 148.36 46.00 150.28 44.32 C 156.32 40.00 162.62 35.96 168.26 31.12 C 162.85 30.08 157.87 32.33 152.97 34.22 C 158.60 30.19 167.27 28.43 173.07 33.01 C 171.42 32.40 169.40 31.18 167.85 32.70 C 162.27 36.87 156.54 40.85 150.83 44.84 C 148.93 46.32 146.37 45.37 144.19 45.45 C 145.49 48.03 146.81 50.60 148.03 53.22 C 149.01 52.62 150.00 52.01 150.98 51.41 C 152.12 53.40 153.17 55.43 154.15 57.50 C 161.39 51.28 169.72 46.47 176.92 40.22 C 176.05 38.05 175.15 35.89 173.92 33.89 C 176.59 35.62 177.23 39.00 177.50 41.94 C 178.09 49.93 177.64 58.09 175.39 65.81 C 175.05 67.01 174.50 68.15 173.75 69.15 C 174.57 65.86 175.45 62.57 176.13 59.25 C 171.85 61.81 168.07 65.08 163.87 67.75 C 160.12 70.37 155.77 72.45 153.16 76.36 C 153.05 75.96 152.84 75.14 152.74 74.73 C 151.29 77.35 147.03 77.92 146.67 80.93 C 147.10 82.24 147.75 83.52 147.87 84.92 C 146.27 87.07 144.14 88.74 142.23 90.60 C 137.46 87.15 131.31 87.42 125.82 88.60 C 126.04 89.58 126.27 90.55 126.49 91.53 C 125.99 93.12 125.49 94.71 125.00 96.30 C 129.95 98.17 135.34 100.13 138.28 104.88 C 133.71 102.50 129.91 97.20 124.16 98.04 C 123.29 99.40 124.75 100.63 125.26 101.81 C 126.82 104.54 129.33 106.53 132.13 107.89 C 136.38 109.94 139.59 113.48 143.17 116.46 C 142.83 112.05 139.64 108.87 138.28 104.88 C 139.68 106.27 140.94 108.11 143.04 108.42 C 147.60 109.50 151.94 111.27 156.42 112.60 C 157.66 108.11 159.27 103.65 159.50 98.96 C 153.82 98.02 148.31 96.26 142.60 95.45 C 138.62 91.20 132.37 93.24 127.33 91.63 C 133.88 91.46 140.35 93.08 146.92 92.45 C 148.43 88.19 150.22 84.03 151.33 79.64 C 151.54 78.83 151.95 77.20 152.16 76.39 C 152.50 77.00 152.82 77.61 153.13 78.24 L 152.59 79.66 C 150.97 83.74 149.51 87.88 148.14 92.05 C 155.02 90.99 161.07 87.14 165.88 82.25 C 167.48 80.55 168.82 78.63 170.13 76.71 C 169.41 79.27 167.42 81.13 166.45 83.56 C 163.01 86.14 159.68 89.01 155.65 90.64 C 151.07 92.45 146.16 93.18 141.27 93.53 C 142.37 94.32 143.52 95.14 144.93 95.20 C 154.18 96.45 163.18 98.99 172.20 101.32 C 171.77 95.96 170.42 90.67 167.96 85.87 C 171.42 89.65 172.14 95.07 172.72 99.97 C 172.97 105.41 172.57 111.70 168.77 115.96 C 170.92 111.53 172.36 106.70 172.15 101.73 C 168.26 101.07 164.49 99.86 160.58 99.32 C 159.45 103.61 158.55 107.95 157.20 112.17 C 160.57 114.34 161.30 118.41 162.11 122.02 C 164.59 120.90 166.33 118.80 168.10 116.82 C 164.78 123.75 156.61 126.64 149.38 126.79 C 149.64 129.55 150.99 131.98 152.02 134.51 C 150.56 133.88 149.14 133.19 147.74 132.45 C 148.30 135.60 149.37 138.61 150.29 141.67 L 149.66 141.85 C 148.29 138.74 147.29 135.47 147.20 132.04 C 147.39 130.35 145.93 129.41 144.74 128.61 C 144.26 129.11 143.78 129.61 143.31 130.11 C 142.38 124.38 137.32 120.74 133.08 117.37 C 130.88 115.62 128.63 113.71 125.79 113.17 C 120.83 111.92 115.69 113.27 110.70 112.39 C 111.84 111.43 112.55 110.21 112.82 108.72 C 111.76 108.26 110.68 107.82 109.61 107.40 C 113.93 105.18 118.82 104.48 123.63 104.84 C 123.08 103.90 122.54 102.95 122.00 102.00 C 118.27 102.92 114.41 102.82 110.64 102.25 C 108.09 104.17 106.13 106.70 104.11 109.14 C 103.81 108.12 103.50 107.11 103.16 106.11 C 103.07 110.53 99.10 113.29 98.05 117.40 C 97.88 116.70 97.53 115.29 97.35 114.59 C 96.94 115.06 96.11 116.00 95.69 116.47 C 92.10 117.28 88.53 118.51 85.47 120.60 C 88.02 124.04 85.88 128.17 85.79 131.98 C 85.99 138.20 81.16 143.01 80.47 149.07 C 79.36 154.30 80.67 159.57 81.90 164.65 C 78.27 165.74 74.44 166.20 70.95 167.72 C 69.48 168.18 68.03 169.37 66.41 168.76 C 69.56 166.13 76.14 164.83 75.35 159.57 L 75.32 159.12 C 77.43 154.59 75.40 149.69 73.97 145.27 C 73.27 143.42 73.80 141.28 75.15 139.86 C 74.90 140.88 74.41 142.91 74.17 143.93 C 76.57 143.73 77.37 141.28 78.43 139.51 C 81.39 134.09 83.13 127.87 82.36 121.67 C 81.18 123.75 80.30 125.99 79.58 128.27 C 79.32 124.43 80.95 120.92 83.06 117.83 C 83.66 115.68 86.04 115.12 88.01 115.22 C 85.14 116.09 83.32 118.57 83.12 121.52 C 84.47 119.77 85.33 117.40 87.55 116.55 C 90.20 115.34 92.74 113.89 95.24 112.39 C 96.35 111.63 97.37 110.73 98.08 109.57 C 97.58 110.02 96.58 110.91 96.08 111.36 C 95.54 110.95 95.01 110.53 94.48 110.12 C 98.86 109.38 95.10 105.23 94.09 103.25 C 92.98 103.91 91.88 104.56 90.77 105.21 C 91.00 107.99 92.29 110.46 93.72 112.81 C 93.13 112.97 91.95 113.29 91.37 113.45 C 91.46 112.91 91.66 111.82 91.76 111.27 C 89.58 105.75 88.69 99.74 89.68 93.85 C 88.96 92.86 88.31 91.83 87.71 90.76 C 88.49 91.60 89.30 92.43 90.13 93.24 C 92.87 96.01 96.02 98.43 99.74 99.73 C 98.31 96.36 96.48 93.11 96.00 89.43 C 97.89 92.65 98.79 96.38 100.93 99.45 C 102.50 99.68 103.96 98.87 105.46 98.53 C 103.24 95.31 101.90 91.52 102.41 87.56 C 98.73 87.33 95.30 88.84 91.75 89.52 C 90.20 89.55 88.64 89.58 87.09 89.62 L 87.71 90.76 C 85.67 89.12 83.37 87.85 80.94 86.88 C 81.32 91.39 76.28 93.20 72.69 93.54 C 75.16 91.07 77.58 88.49 79.13 85.32 L 76.94 85.80 C 77.20 84.65 77.47 83.51 77.75 82.37 C 79.13 82.58 80.51 82.82 81.88 83.10 L 81.20 80.66 C 82.18 82.16 83.56 83.32 85.12 84.20 C 83.98 80.55 80.82 77.99 79.96 74.20 C 80.59 74.34 81.84 74.60 82.47 74.74 C 84.01 78.90 84.94 83.99 89.09 86.41 C 90.41 86.50 91.57 85.69 92.80 85.31 C 99.53 82.28 107.44 81.38 112.97 76.15 C 113.37 77.61 115.89 78.75 116.82 77.22 C 118.96 71.67 120.31 65.51 124.15 60.83 C 122.23 65.60 119.75 70.15 118.20 75.07 C 121.71 72.17 125.79 69.97 129.06 66.78 C 129.79 62.11 129.18 57.33 129.17 52.61 C 129.58 42.38 128.93 32.07 129.90 21.88 M 162.89 52.06 C 163.84 56.29 165.50 60.30 166.71 64.45 C 169.35 63.01 171.65 61.06 174.15 59.40 C 175.29 58.61 176.78 57.78 176.65 56.15 C 177.08 51.36 177.19 46.53 176.89 41.73 C 172.24 45.20 167.50 48.54 162.89 52.06 M 148.59 53.95 C 150.22 57.53 152.09 61.01 154.12 64.40 L 155.26 63.18 C 154.41 59.56 152.25 56.33 150.90 52.84 C 150.32 53.12 149.17 53.67 148.59 53.95 M 154.43 58.91 C 155.17 60.13 155.98 61.35 156.42 62.73 C 155.80 63.47 155.16 64.19 154.50 64.90 C 155.00 68.21 154.54 71.56 153.09 74.60 C 157.32 71.20 161.95 68.34 166.26 65.05 C 165.39 60.78 163.20 56.95 162.24 52.70 C 159.43 54.43 156.24 56.04 154.43 58.91 M 117.11 77.26 C 118.20 78.27 119.27 79.29 120.45 80.21 C 117.91 79.69 115.66 78.08 113.03 78.03 C 110.38 79.50 107.89 81.55 104.68 81.58 C 101.99 86.33 102.56 92.84 105.80 97.20 C 107.21 98.45 108.59 99.83 110.34 100.60 C 113.76 102.39 117.69 101.82 121.36 101.47 C 121.17 99.98 121.01 98.48 120.87 96.99 C 121.92 97.43 122.96 97.87 124.00 98.31 C 124.59 95.28 125.27 92.15 124.70 89.05 C 123.62 88.04 122.37 87.25 121.15 86.44 C 120.68 85.98 119.74 85.06 119.27 84.60 C 122.01 84.51 124.75 84.72 127.49 84.71 C 126.74 84.56 125.23 84.28 124.48 84.13 C 125.04 83.59 125.62 83.05 126.20 82.53 C 130.31 84.81 133.23 80.97 135.94 78.53 C 131.48 76.96 129.12 72.40 129.44 67.84 C 125.16 70.75 120.94 73.79 117.11 77.26 M 132.22 83.15 L 131.89 83.17 L 132.01 83.91 C 134.47 84.01 136.88 84.55 139.18 85.42 C 139.67 84.31 140.15 83.20 140.59 82.08 C 140.62 81.47 140.66 80.25 140.69 79.64 C 137.18 78.23 134.16 80.35 132.22 83.15 M 140.03 86.82 C 143.51 87.51 143.22 82.35 143.09 80.16 C 141.51 82.09 140.45 84.37 140.03 86.82 M 98.78 84.27 C 99.50 85.80 103.53 85.37 102.70 83.26 C 101.42 82.67 99.78 83.45 98.78 84.27 M 90.06 94.72 C 89.89 97.93 89.96 101.13 90.16 104.33 C 92.97 103.38 95.40 101.59 97.91 100.04 C 95.01 98.70 92.62 96.58 90.06 94.72 M 94.87 103.00 C 95.69 104.82 96.64 106.58 97.80 108.22 C 101.07 105.66 103.77 102.48 106.09 99.06 C 102.40 100.64 97.95 100.08 94.87 103.00 M 104.56 104.91 C 105.01 105.42 105.47 105.94 105.93 106.45 C 106.95 104.15 109.42 102.96 110.34 100.60 C 107.69 100.80 106.39 103.35 104.56 104.91 M 122.98 100.94 C 124.30 104.64 126.59 107.88 128.88 111.03 C 132.33 115.95 138.04 118.61 141.68 123.38 C 143.73 125.62 145.58 129.38 149.24 128.44 C 148.83 127.31 148.14 126.41 147.17 125.74 C 142.03 122.00 137.64 117.34 132.98 113.04 C 129.10 109.45 126.81 104.54 122.98 100.94 M 101.31 107.24 C 101.77 107.78 101.77 107.78 101.31 107.24 M 141.32 108.64 C 143.27 113.13 144.89 117.75 145.38 122.65 C 146.68 123.85 148.14 124.87 149.47 126.04 C 153.91 126.15 158.29 124.78 162.00 122.37 C 160.38 119.99 160.33 116.72 158.48 114.61 C 152.86 112.36 147.10 110.44 141.32 108.64 Z" />
<path fill="#342e34" opacity="1.00" d=" M 76.06 36.01 C 77.11 34.23 78.13 32.25 80.06 31.26 C 82.14 30.74 84.76 31.23 86.00 33.15 C 84.36 32.46 82.69 31.76 80.92 31.53 C 79.24 32.13 78.24 33.70 77.02 34.90 C 79.03 37.35 80.82 39.98 82.28 42.80 C 83.22 40.69 83.19 37.80 85.43 36.58 C 86.29 36.56 88.01 36.52 88.88 36.49 C 88.37 35.86 87.35 34.60 86.84 33.97 C 87.96 34.86 88.99 35.86 90.13 36.72 C 94.26 37.77 98.86 37.10 102.66 39.30 C 97.39 38.84 92.19 37.66 86.90 37.49 C 85.78 38.41 84.74 39.39 83.77 40.45 C 90.43 41.05 97.27 39.91 103.79 41.87 C 103.80 41.28 103.80 40.09 103.81 39.50 C 105.51 39.97 104.93 41.98 104.00 42.82 C 101.98 45.10 100.12 47.53 98.46 50.08 C 99.30 51.70 99.47 53.99 101.15 54.99 C 104.16 55.43 107.39 55.24 110.05 56.99 L 109.22 56.87 C 107.48 56.56 105.75 56.21 104.01 55.91 C 101.62 55.72 99.22 55.67 96.82 55.60 C 95.96 58.02 96.06 61.04 93.83 62.72 C 93.95 60.70 94.13 58.69 94.37 56.68 C 92.37 57.81 90.36 58.94 88.36 60.08 C 88.41 60.71 88.50 61.95 88.54 62.58 C 87.93 62.59 86.69 62.62 86.07 62.63 C 85.58 63.66 85.10 64.69 84.63 65.73 C 84.15 66.98 83.71 68.25 83.32 69.54 C 82.92 70.93 82.55 72.33 82.22 73.75 C 81.63 70.91 80.05 68.45 78.23 66.25 C 79.22 62.84 79.52 59.29 79.77 55.77 C 78.71 54.14 77.55 52.58 76.27 51.13 C 75.70 51.64 74.56 52.67 73.99 53.18 C 73.55 57.13 74.50 61.02 77.29 63.94 C 76.70 63.73 75.52 63.32 74.93 63.11 C 75.97 67.11 77.10 71.08 78.26 75.04 C 74.90 68.66 73.99 61.22 73.31 54.12 L 72.12 53.59 C 74.29 51.51 76.99 50.11 79.50 48.47 C 76.43 48.58 73.68 50.00 70.90 51.14 C 71.62 50.41 72.36 49.71 73.13 49.04 C 73.77 45.69 73.12 41.79 75.24 38.91 C 74.44 41.92 73.98 45.02 74.39 48.13 C 77.00 48.03 81.43 45.53 82.62 49.14 C 84.11 52.84 85.18 56.74 87.52 60.04 C 89.71 58.33 92.13 56.93 94.69 55.85 C 95.42 53.77 96.17 51.70 96.95 49.63 C 93.39 49.64 89.86 49.28 86.36 48.69 C 82.44 44.84 80.20 39.63 76.06 36.01 M 83.23 44.13 C 84.82 45.50 85.93 47.67 88.01 48.35 C 91.01 48.62 94.02 48.59 97.02 48.85 C 95.45 46.37 93.88 43.87 92.08 41.54 C 88.98 41.70 85.36 41.35 83.23 44.13 M 93.05 41.46 C 94.54 43.77 96.02 46.10 97.33 48.52 C 98.85 46.47 100.03 44.21 101.09 41.89 C 98.42 41.66 95.73 41.53 93.05 41.46 M 77.29 50.81 C 78.96 53.65 80.90 56.31 82.70 59.07 C 83.63 60.45 84.52 62.01 86.21 62.57 C 85.04 58.52 82.66 54.95 80.99 51.09 C 80.43 49.23 78.44 50.63 77.29 50.81 M 97.33 55.07 C 99.32 56.53 100.32 52.35 98.33 51.94 C 97.08 52.68 96.75 53.72 97.33 55.07 M 80.07 57.89 C 79.86 61.86 78.32 66.32 81.19 69.73 C 81.69 69.28 82.67 68.38 83.17 67.93 C 83.61 66.27 84.17 64.64 84.77 63.02 C 83.19 61.33 82.24 58.93 80.07 57.89 Z" />
<path fill="#342e34" opacity="1.00" d=" M 146.22 38.04 C 146.10 36.04 149.45 34.17 151.22 35.08 C 149.80 36.44 148.15 37.58 146.22 38.04 Z" />
<path fill="#342e34" opacity="1.00" d=" M 63.11 56.33 C 64.56 54.16 66.93 52.76 69.39 52.02 C 67.42 53.63 65.31 55.05 63.11 56.33 Z" />
<path fill="#342e34" opacity="1.00" d=" M 125.05 59.36 C 124.31 57.53 126.14 54.25 128.20 54.32 C 127.52 56.21 126.60 58.03 125.05 59.36 Z" />
<path fill="#342e34" opacity="1.00" d=" M 63.58 61.79 C 65.30 59.36 67.42 57.24 69.91 55.62 C 68.19 58.02 66.05 60.15 63.58 61.79 Z" />
<path fill="#342e34" opacity="1.00" d=" M 62.07 63.57 C 60.26 65.39 58.06 60.03 60.38 59.40 C 61.00 60.77 61.57 62.16 62.07 63.57 Z" />
<path fill="#342e34" opacity="1.00" d=" M 94.64 77.99 C 91.78 70.77 98.41 60.70 106.46 61.53 C 108.00 62.65 109.59 64.06 109.78 66.09 C 110.53 69.52 107.85 72.34 105.63 74.57 C 102.78 77.52 98.43 77.53 94.64 77.99 M 98.36 66.26 C 96.51 68.68 95.63 71.61 95.14 74.58 C 95.33 75.63 95.10 77.83 96.87 77.41 C 100.69 77.20 104.45 75.14 106.46 71.85 L 106.85 71.86 C 108.95 69.16 109.84 63.63 105.26 63.05 C 102.37 61.98 99.81 63.94 98.36 66.26 Z" />
<path fill="#342e34" opacity="1.00" d=" M 170.93 74.77 C 171.23 73.33 171.92 72.03 172.91 70.94 C 174.09 72.18 172.69 75.43 170.93 74.77 Z" />
<path fill="#342e34" opacity="1.00" d=" M 114.77 82.47 C 117.32 82.00 119.90 81.64 122.43 81.04 C 122.68 81.22 123.18 81.57 123.43 81.75 C 123.74 82.20 124.36 83.10 124.67 83.54 C 122.70 83.46 120.73 83.34 118.77 83.19 C 119.14 83.53 119.88 84.21 120.26 84.54 L 119.27 84.60 C 117.53 84.50 115.96 83.73 114.77 82.47 Z" />
<path fill="#342e34" opacity="1.00" d=" M 71.42 90.32 L 72.35 90.42 C 71.99 90.82 71.28 91.61 70.92 92.00 L 70.69 91.13 L 71.42 90.32 Z" />
<path fill="#342e34" opacity="1.00" d=" M 69.82 93.00 L 69.95 93.67 C 70.01 94.03 70.14 94.74 70.20 95.10 C 71.04 94.58 71.86 94.06 72.69 93.54 C 72.71 95.19 70.85 96.19 71.36 97.97 C 70.10 97.00 68.72 96.18 67.29 95.50 C 68.22 94.75 69.06 93.92 69.82 93.00 Z" />
<path fill="#342e34" opacity="1.00" d=" M 69.96 99.92 C 71.32 101.31 72.62 102.74 73.94 104.17 L 73.83 101.83 L 73.80 100.61 C 75.15 104.34 75.22 109.33 71.92 112.09 C 72.87 109.86 73.22 107.46 73.48 105.08 C 72.25 103.40 71.06 101.68 69.96 99.92 Z" />
<path fill="#342e34" opacity="1.00" d=" M 104.03 111.07 C 105.64 109.96 107.24 108.82 108.91 107.79 C 106.78 110.19 104.64 112.70 103.77 115.88 C 104.62 115.69 106.32 115.31 107.17 115.12 C 106.09 115.98 105.05 116.86 104.03 117.78 C 100.81 120.33 100.59 124.48 101.35 128.21 C 103.09 126.31 104.77 124.33 106.83 122.76 C 107.40 122.38 108.55 121.62 109.13 121.24 C 116.03 118.97 123.47 120.56 129.96 123.37 C 135.21 125.90 138.86 130.81 140.31 136.39 C 141.13 134.82 141.96 133.26 142.94 131.79 C 141.52 137.29 137.72 142.18 132.89 145.11 C 136.40 139.08 130.63 133.20 125.31 131.04 C 121.47 129.60 117.31 128.00 113.16 128.96 C 109.52 129.90 105.23 131.80 104.73 136.05 L 104.88 137.60 C 101.60 133.12 100.61 127.38 100.32 121.94 C 98.68 120.82 97.19 119.51 95.79 118.10 L 97.16 117.47 C 97.96 118.84 98.88 120.13 100.10 121.17 C 100.65 117.18 100.96 112.73 104.09 109.78 C 104.07 110.10 104.05 110.75 104.03 111.07 Z" />
<path fill="#342e34" opacity="1.00" d=" M 64.77 118.23 C 66.71 116.22 68.70 114.21 71.17 112.86 C 69.40 115.04 67.26 116.93 64.77 118.23 Z" />
<path fill="#342e34" opacity="1.00" d=" M 88.55 114.98 C 88.64 114.93 88.81 114.84 88.90 114.79 L 88.73 114.90 L 88.55 114.98 Z" />
<path fill="#342e34" opacity="1.00" d=" M 42.15 125.98 C 43.83 122.32 44.56 118.12 47.16 114.95 C 46.53 116.75 45.89 118.55 45.21 120.33 C 42.81 126.09 40.43 131.86 38.13 137.66 C 38.40 133.47 40.84 129.88 42.15 125.98 Z" />
<path fill="#342e34" opacity="1.00" d=" M 59.74 122.01 C 60.52 120.40 62.01 119.41 63.66 118.85 C 64.11 120.66 61.38 122.57 59.74 122.01 Z" />
<path fill="#342e34" opacity="1.00" d=" M 57.06 124.25 C 57.47 123.91 58.29 123.23 58.71 122.89 L 58.78 123.81 L 57.93 124.51 L 57.06 124.25 Z" />
<path fill="#342e34" opacity="1.00" d=" M 52.78 127.75 C 53.07 126.69 53.77 126.05 54.89 125.83 C 55.13 127.46 54.43 128.10 52.78 127.75 Z" />
<path fill="#342e34" opacity="1.00" d=" M 47.79 132.06 C 48.54 130.51 49.79 129.16 51.56 128.86 C 51.98 130.56 49.38 132.58 47.79 132.06 Z" />
<path fill="#342e34" opacity="1.00" d=" M 75.90 138.36 C 76.98 135.21 77.43 131.70 79.40 128.95 C 78.76 132.25 77.71 135.49 75.90 138.36 Z" />
<path fill="#342e34" opacity="1.00" d=" M 43.07 136.25 C 43.87 134.65 45.20 133.43 46.90 132.86 C 47.31 134.62 44.77 136.75 43.07 136.25 Z" />
<path fill="#342e34" opacity="1.00" d=" M 39.88 138.69 C 40.19 138.25 40.82 137.37 41.13 136.93 L 41.95 136.91 L 42.25 137.71 L 41.68 138.58 C 41.23 138.61 40.33 138.67 39.88 138.69 Z" />
<path fill="#342e34" opacity="1.00" d=" M 156.56 140.04 C 156.88 140.31 157.53 140.87 157.85 141.14 C 163.07 149.09 165.28 158.57 166.28 167.92 C 166.61 170.98 164.78 173.88 165.46 176.96 C 165.91 181.83 169.43 186.31 168.10 191.31 C 168.04 192.42 167.47 192.87 166.40 192.67 C 165.58 190.47 164.29 188.24 164.56 185.82 C 165.47 187.61 166.19 189.49 166.87 191.39 C 168.87 187.54 166.03 183.31 164.50 179.77 C 164.40 181.46 164.32 183.15 164.33 184.84 C 162.87 186.63 161.98 183.95 161.48 182.95 C 161.00 179.35 161.75 175.60 160.47 172.11 C 157.83 164.34 155.45 156.48 152.41 148.85 C 151.74 147.18 151.33 145.42 151.00 143.66 C 155.34 151.44 156.75 160.48 161.04 168.30 C 162.04 167.03 162.54 165.59 162.54 163.99 C 162.82 155.60 160.44 147.41 156.56 140.04 Z" />
<path fill="#342e34" opacity="1.00" d=" M 110.81 143.84 C 112.41 141.66 115.01 141.16 117.47 142.03 C 115.66 142.25 113.87 142.49 112.07 142.73 C 111.86 148.11 112.65 153.45 113.06 158.80 C 113.23 161.40 113.29 164.01 113.35 166.61 C 113.69 166.67 114.37 166.79 114.71 166.85 C 114.46 167.40 113.95 168.50 113.70 169.05 C 112.42 166.93 112.62 164.38 112.45 162.01 C 112.28 156.63 111.77 151.27 111.26 145.92 C 110.30 144.45 108.85 143.37 108.00 141.82 C 108.92 142.51 109.87 143.17 110.81 143.84 Z" />
<path fill="#342e34" opacity="1.00" d=" M 123.83 152.63 C 124.14 152.21 124.75 151.36 125.06 150.94 L 125.38 151.81 L 124.73 152.68 L 123.83 152.63 Z" />
<path fill="#342e34" opacity="1.00" d=" M 121.79 155.59 C 122.11 155.17 122.75 154.33 123.07 153.91 L 123.37 154.78 L 122.70 155.63 L 121.79 155.59 Z" />
<path fill="#342e34" opacity="1.00" d=" M 71.18 164.24 C 71.00 162.63 71.72 162.04 73.33 162.45 C 73.07 163.54 72.36 164.14 71.18 164.24 Z" />
<path fill="#342e34" opacity="1.00" d=" M 69.49 164.78 C 69.57 164.72 69.74 164.60 69.83 164.54 C 69.74 164.60 69.57 164.72 69.49 164.78 Z" />
<path fill="#342e34" opacity="1.00" d=" M 62.38 167.32 C 63.04 165.54 66.50 164.96 68.23 165.64 C 66.60 167.00 64.49 167.64 62.38 167.32 Z" />
<path fill="#342e34" opacity="1.00" d=" M 59.47 174.48 C 57.76 172.49 59.17 169.17 61.10 167.82 C 60.73 169.25 60.37 170.68 60.00 172.11 C 61.24 171.21 62.48 170.31 63.78 169.50 L 65.15 169.55 C 63.85 171.77 61.30 172.78 59.47 174.48 Z" />
</g>
<g id="#d9dedcff">
<path fill="#d9dedc" opacity="1.00" d=" M 130.09 23.01 C 131.40 24.78 132.66 26.59 133.90 28.41 C 134.88 30.00 135.72 31.68 136.78 33.23 C 135.74 33.28 134.70 33.32 133.67 33.36 C 133.71 33.85 133.81 34.82 133.85 35.30 C 132.98 32.72 132.13 30.13 131.32 27.53 C 129.19 33.96 132.78 40.21 135.20 45.99 C 135.53 45.70 136.19 45.12 136.52 44.83 C 137.37 47.65 138.35 50.44 139.54 53.14 C 139.47 51.31 139.38 49.48 139.29 47.66 C 141.56 50.29 143.60 53.67 147.48 53.87 C 148.77 56.40 150.00 58.96 151.33 61.47 C 149.56 64.54 149.45 68.02 150.25 71.40 C 147.11 69.43 144.53 66.75 142.05 64.03 C 142.88 68.49 144.61 72.72 145.28 77.21 C 142.43 77.34 139.58 77.44 136.73 77.35 C 134.42 76.36 132.52 74.68 130.65 73.05 C 129.85 56.39 130.04 39.69 130.09 23.01 Z" />
<path fill="#d9dedc" opacity="1.00" d=" M 84.63 65.73 C 85.53 65.73 87.34 65.72 88.25 65.72 C 89.37 68.86 87.03 71.68 84.99 73.79 C 84.42 72.37 83.87 70.95 83.32 69.54 C 83.71 68.25 84.15 66.98 84.63 65.73 Z" />
<path fill="#d9dedc" opacity="1.00" d=" M 98.78 84.27 C 99.78 83.45 101.42 82.67 102.70 83.26 C 103.53 85.37 99.50 85.80 98.78 84.27 Z" />
<path fill="#d9dedc" opacity="1.00" d=" M 54.66 99.55 C 55.40 98.07 56.84 97.18 58.12 96.22 L 58.84 96.33 C 62.40 96.77 65.88 97.69 69.16 99.14 C 66.66 102.26 64.16 105.39 61.87 108.68 C 63.41 107.58 64.95 106.48 66.50 105.39 C 66.18 106.86 65.87 108.33 65.54 109.80 C 66.55 109.55 67.56 109.31 68.57 109.07 C 67.15 114.54 61.96 118.83 56.57 120.20 C 57.45 117.86 58.30 115.50 58.96 113.08 C 55.33 116.07 53.18 120.34 49.99 123.71 C 48.04 123.61 46.43 124.67 44.98 125.81 C 45.49 124.03 46.47 122.05 45.21 120.33 C 45.89 118.55 46.53 116.75 47.16 114.95 C 49.42 109.71 51.87 104.53 54.66 99.55 Z" />
<path fill="#d9dedc" opacity="1.00" d=" M 107.17 115.12 C 108.69 114.69 110.23 114.31 111.76 113.92 C 110.55 116.23 109.62 118.67 109.13 121.24 C 108.55 121.62 107.40 122.38 106.83 122.76 C 105.88 121.11 104.95 119.44 104.03 117.78 C 105.05 116.86 106.09 115.98 107.17 115.12 Z" />
</g>
<g id="#e5e9f0ff">
<path fill="#e5e9f0" opacity="1.00" d=" M 135.20 45.99 C 132.78 40.21 129.19 33.96 131.32 27.53 C 132.13 30.13 132.98 32.72 133.85 35.30 C 134.66 38.50 135.59 41.66 136.52 44.83 C 136.19 45.12 135.53 45.70 135.20 45.99 Z" />
<path fill="#e5e9f0" opacity="1.00" d=" M 152.97 34.22 C 157.87 32.33 162.85 30.08 168.26 31.12 C 162.62 35.96 156.32 40.00 150.28 44.32 C 148.36 46.00 145.84 44.78 143.65 44.52 C 142.19 42.64 141.54 40.20 144.14 38.98 C 144.66 38.74 145.70 38.28 146.22 38.04 C 148.15 37.58 149.80 36.44 151.22 35.08 C 151.66 34.86 152.54 34.43 152.97 34.22 Z" />
<path fill="#e5e9f0" opacity="1.00" d=" M 77.02 34.90 C 78.24 33.70 79.24 32.13 80.92 31.53 C 82.69 31.76 84.36 32.46 86.00 33.15 C 86.21 33.36 86.63 33.77 86.84 33.97 C 87.35 34.60 88.37 35.86 88.88 36.49 C 88.01 36.52 86.29 36.56 85.43 36.58 C 83.19 37.80 83.22 40.69 82.28 42.80 C 80.82 39.98 79.03 37.35 77.02 34.90 Z" />
<path fill="#e5e9f0" opacity="1.00" d=" M 167.85 32.70 C 169.40 31.18 171.42 32.40 173.07 33.01 C 173.28 33.23 173.71 33.67 173.92 33.89 C 175.15 35.89 176.05 38.05 176.92 40.22 C 169.72 46.47 161.39 51.28 154.15 57.50 C 153.17 55.43 152.12 53.40 150.98 51.41 C 150.00 52.01 149.01 52.62 148.03 53.22 C 146.81 50.60 145.49 48.03 144.19 45.45 C 146.37 45.37 148.93 46.32 150.83 44.84 C 156.54 40.85 162.27 36.87 167.85 32.70 Z" />
<path fill="#e5e9f0" opacity="1.00" d=" M 76.06 36.01 C 80.20 39.63 82.44 44.84 86.36 48.69 C 89.86 49.28 93.39 49.64 96.95 49.63 C 96.17 51.70 95.42 53.77 94.69 55.85 C 92.13 56.93 89.71 58.33 87.52 60.04 C 85.18 56.74 84.11 52.84 82.62 49.14 C 81.43 45.53 77.00 48.03 74.39 48.13 C 73.98 45.02 74.44 41.92 75.24 38.91 C 75.44 38.19 75.85 36.74 76.06 36.01 Z" />
<path fill="#e5e9f0" opacity="1.00" d=" M 83.23 44.13 C 85.36 41.35 88.98 41.70 92.08 41.54 C 93.88 43.87 95.45 46.37 97.02 48.85 C 94.02 48.59 91.01 48.62 88.01 48.35 C 85.93 47.67 84.82 45.50 83.23 44.13 Z" />
<path fill="#e5e9f0" opacity="1.00" d=" M 162.89 52.06 C 167.50 48.54 172.24 45.20 176.89 41.73 C 177.19 46.53 177.08 51.36 176.65 56.15 C 176.78 57.78 175.29 58.61 174.15 59.40 C 171.65 61.06 169.35 63.01 166.71 64.45 C 165.50 60.30 163.84 56.29 162.89 52.06 Z" />
<path fill="#e5e9f0" opacity="1.00" d=" M 77.29 50.81 C 78.44 50.63 80.43 49.23 80.99 51.09 C 82.66 54.95 85.04 58.52 86.21 62.57 C 84.52 62.01 83.63 60.45 82.70 59.07 C 80.90 56.31 78.96 53.65 77.29 50.81 Z" />
<path fill="#e5e9f0" opacity="1.00" d=" M 73.99 53.18 C 74.56 52.67 75.70 51.64 76.27 51.13 C 77.55 52.58 78.71 54.14 79.77 55.77 C 79.52 59.29 79.22 62.84 78.23 66.25 C 80.05 68.45 81.63 70.91 82.22 73.75 C 82.28 73.99 82.41 74.49 82.47 74.74 C 81.84 74.60 80.59 74.34 79.96 74.20 C 80.82 77.99 83.98 80.55 85.12 84.20 C 83.56 83.32 82.18 82.16 81.20 80.66 C 80.05 78.88 79.01 77.02 78.26 75.04 C 77.10 71.08 75.97 67.11 74.93 63.11 C 75.52 63.32 76.70 63.73 77.29 63.94 C 74.50 61.02 73.55 57.13 73.99 53.18 Z" />
<path fill="#e5e9f0" opacity="1.00" d=" M 97.33 55.07 C 96.75 53.72 97.08 52.68 98.33 51.94 C 100.32 52.35 99.32 56.53 97.33 55.07 Z" />
<path fill="#e5e9f0" opacity="1.00" d=" M 148.59 53.95 C 149.17 53.67 150.32 53.12 150.90 52.84 C 152.25 56.33 154.41 59.56 155.26 63.18 L 154.12 64.40 C 152.09 61.01 150.22 57.53 148.59 53.95 Z" />
<path fill="#e5e9f0" opacity="1.00" d=" M 154.43 58.91 C 156.24 56.04 159.43 54.43 162.24 52.70 C 163.20 56.95 165.39 60.78 166.26 65.05 C 161.95 68.34 157.32 71.20 153.09 74.60 C 154.54 71.56 155.00 68.21 154.50 64.90 C 155.16 64.19 155.80 63.47 156.42 62.73 C 155.98 61.35 155.17 60.13 154.43 58.91 Z" />
<path fill="#e5e9f0" opacity="1.00" d=" M 128.20 54.32 L 129.17 52.61 C 129.18 57.33 129.79 62.11 129.06 66.78 C 125.79 69.97 121.71 72.17 118.20 75.07 C 119.75 70.15 122.23 65.60 124.15 60.83 C 124.37 60.46 124.82 59.73 125.05 59.36 C 126.60 58.03 127.52 56.21 128.20 54.32 Z" />
<path fill="#e5e9f0" opacity="1.00" d=" M 80.07 57.89 C 82.24 58.93 83.19 61.33 84.77 63.02 C 84.17 64.64 83.61 66.27 83.17 67.93 C 82.67 68.38 81.69 69.28 81.19 69.73 C 78.32 66.32 79.86 61.86 80.07 57.89 Z" />
<path fill="#e5e9f0" opacity="1.00" d=" M 163.87 67.75 C 168.07 65.08 171.85 61.81 176.13 59.25 C 175.45 62.57 174.57 65.86 173.75 69.15 C 173.54 69.60 173.12 70.49 172.91 70.94 C 171.92 72.03 171.23 73.33 170.93 74.77 C 170.73 75.25 170.33 76.23 170.13 76.71 C 168.82 78.63 167.48 80.55 165.88 82.25 C 162.22 79.23 157.12 78.30 152.59 79.66 L 153.13 78.24 C 152.82 77.61 152.50 77.00 152.16 76.39 C 151.95 77.20 151.54 78.83 151.33 79.64 C 149.77 80.07 148.22 80.51 146.67 80.93 C 147.03 77.92 151.29 77.35 152.74 74.73 C 152.84 75.14 153.05 75.96 153.16 76.36 C 155.77 72.45 160.12 70.37 163.87 67.75 Z" />
<path fill="#e5e9f0" opacity="1.00" d=" M 98.36 66.26 C 99.81 63.94 102.37 61.98 105.26 63.05 C 104.19 65.87 101.32 68.03 98.36 66.26 Z" />
<path fill="#e5e9f0" opacity="1.00" d=" M 117.11 77.26 C 120.94 73.79 125.16 70.75 129.44 67.84 C 129.12 72.40 131.48 76.96 135.94 78.53 C 133.23 80.97 130.31 84.81 126.20 82.53 C 125.62 83.05 125.04 83.59 124.48 84.13 C 125.23 84.28 126.74 84.56 127.49 84.71 C 124.75 84.72 122.01 84.51 119.27 84.60 L 120.26 84.54 C 119.88 84.21 119.14 83.53 118.77 83.19 C 120.73 83.34 122.70 83.46 124.67 83.54 C 124.36 83.10 123.74 82.20 123.43 81.75 C 123.18 81.57 122.68 81.22 122.43 81.04 C 121.93 80.83 120.94 80.42 120.45 80.21 C 119.27 79.29 118.20 78.27 117.11 77.26 Z" />
<path fill="#e5e9f0" opacity="1.00" d=" M 132.22 83.15 C 134.16 80.35 137.18 78.23 140.69 79.64 C 140.66 80.25 140.62 81.47 140.59 82.08 C 137.84 82.66 135.04 83.02 132.22 83.15 Z" />
<path fill="#e5e9f0" opacity="1.00" d=" M 155.65 90.64 C 159.68 89.01 163.01 86.14 166.45 83.56 C 166.83 84.13 167.58 85.29 167.96 85.87 C 170.42 90.67 171.77 95.96 172.20 101.32 C 163.18 98.99 154.18 96.45 144.93 95.20 C 143.52 95.14 142.37 94.32 141.27 93.53 C 146.16 93.18 151.07 92.45 155.65 90.64 Z" />
<path fill="#e5e9f0" opacity="1.00" d=" M 87.09 89.62 C 88.64 89.58 90.20 89.55 91.75 89.52 C 92.44 89.54 93.81 89.58 94.49 89.60 C 93.00 90.76 91.54 91.98 90.13 93.24 C 89.30 92.43 88.49 91.60 87.71 90.76 L 87.09 89.62 Z" />
<path fill="#e5e9f0" opacity="1.00" d=" M 125.00 96.30 C 125.49 94.71 125.99 93.12 126.49 91.53 L 127.33 91.63 C 132.37 93.24 138.62 91.20 142.60 95.45 C 148.31 96.26 153.82 98.02 159.50 98.96 C 159.27 103.65 157.66 108.11 156.42 112.60 C 151.94 111.27 147.60 109.50 143.04 108.42 C 140.94 108.11 139.68 106.27 138.28 104.88 C 135.34 100.13 129.95 98.17 125.00 96.30 Z" />
<path fill="#e5e9f0" opacity="1.00" d=" M 90.06 94.72 C 92.62 96.58 95.01 98.70 97.91 100.04 C 95.40 101.59 92.97 103.38 90.16 104.33 C 89.96 101.13 89.89 97.93 90.06 94.72 Z" />
<path fill="#e5e9f0" opacity="1.00" d=" M 94.87 103.00 C 97.95 100.08 102.40 100.64 106.09 99.06 C 103.77 102.48 101.07 105.66 97.80 108.22 C 96.64 106.58 95.69 104.82 94.87 103.00 Z" />
<path fill="#e5e9f0" opacity="1.00" d=" M 160.58 99.32 C 164.49 99.86 168.26 101.07 172.15 101.73 C 172.36 106.70 170.92 111.53 168.77 115.96 C 168.60 116.17 168.27 116.61 168.10 116.82 C 166.33 118.80 164.59 120.90 162.11 122.02 C 161.30 118.41 160.57 114.34 157.20 112.17 C 158.55 107.95 159.45 103.61 160.58 99.32 Z" />
<path fill="#e5e9f0" opacity="1.00" d=" M 104.56 104.91 C 106.39 103.35 107.69 100.80 110.34 100.60 C 109.42 102.96 106.95 104.15 105.93 106.45 C 105.47 105.94 105.01 105.42 104.56 104.91 Z" />
<path fill="#e5e9f0" opacity="1.00" d=" M 90.77 105.21 C 91.88 104.56 92.98 103.91 94.09 103.25 C 95.10 105.23 98.86 109.38 94.48 110.12 C 95.01 110.53 95.54 110.95 96.08 111.36 C 96.58 110.91 97.58 110.02 98.08 109.57 C 97.37 110.73 96.35 111.63 95.24 112.39 C 92.74 113.89 90.20 115.34 87.55 116.55 C 85.33 117.40 84.47 119.77 83.12 121.52 C 83.32 118.57 85.14 116.09 88.01 115.22 L 88.55 114.98 L 88.73 114.90 L 88.90 114.79 C 89.52 114.45 90.75 113.79 91.37 113.45 C 91.95 113.29 93.13 112.97 93.72 112.81 C 92.29 110.46 91.00 107.99 90.77 105.21 Z" />
<path fill="#e5e9f0" opacity="1.00" d=" M 103.16 106.11 C 103.50 107.11 103.81 108.12 104.11 109.14 L 104.09 109.78 C 100.96 112.73 100.65 117.18 100.10 121.17 C 98.88 120.13 97.96 118.84 97.16 117.47 L 95.79 118.10 L 95.69 116.47 C 96.11 116.00 96.94 115.06 97.35 114.59 C 97.53 115.29 97.88 116.70 98.05 117.40 C 99.10 113.29 103.07 110.53 103.16 106.11 Z" />
<path fill="#e5e9f0" opacity="1.00" d=" M 141.32 108.64 C 147.10 110.44 152.86 112.36 158.48 114.61 C 160.33 116.72 160.38 119.99 162.00 122.37 C 158.29 124.78 153.91 126.15 149.47 126.04 C 148.14 124.87 146.68 123.85 145.38 122.65 C 144.89 117.75 143.27 113.13 141.32 108.64 Z" />
<path fill="#e5e9f0" opacity="1.00" d=" M 45.21 120.33 C 46.47 122.05 45.49 124.03 44.98 125.81 C 46.43 124.67 48.04 123.61 49.99 123.71 C 46.65 127.84 43.68 132.27 41.13 136.93 C 40.82 137.37 40.19 138.25 39.88 138.69 C 39.22 139.78 38.08 140.40 37.03 141.06 C 37.35 139.91 37.67 138.76 38.13 137.66 C 40.43 131.86 42.81 126.09 45.21 120.33 Z" />
<path fill="#e5e9f0" opacity="1.00" d=" M 115.57 157.48 C 116.29 154.24 117.18 151.04 118.55 148.01 C 117.07 153.42 115.47 158.93 115.58 164.59 C 115.64 165.45 115.35 166.21 114.71 166.85 C 114.37 166.79 113.69 166.67 113.35 166.61 C 113.29 164.01 113.23 161.40 113.06 158.80 C 113.69 158.47 114.94 157.81 115.57 157.48 Z" />
</g>
<g id="#adb2b9ff">
<path fill="#adb2b9" opacity="1.00" d=" M 133.67 33.36 C 134.70 33.32 135.74 33.28 136.78 33.23 C 137.53 34.42 138.27 35.63 138.90 36.89 C 141.76 42.55 144.83 48.11 147.48 53.87 C 143.60 53.67 141.56 50.29 139.29 47.66 C 139.38 49.48 139.47 51.31 139.54 53.14 C 138.35 50.44 137.37 47.65 136.52 44.83 C 135.59 41.66 134.66 38.50 133.85 35.30 C 133.81 34.82 133.71 33.85 133.67 33.36 Z" />
<path fill="#adb2b9" opacity="1.00" d=" M 83.77 40.45 C 84.74 39.39 85.78 38.41 86.90 37.49 C 92.19 37.66 97.39 38.84 102.66 39.30 C 102.95 39.35 103.52 39.45 103.81 39.50 C 103.80 40.09 103.80 41.28 103.79 41.87 C 97.27 39.91 90.43 41.05 83.77 40.45 Z" />
<path fill="#adb2b9" opacity="1.00" d=" M 70.90 51.14 C 73.68 50.00 76.43 48.58 79.50 48.47 C 76.99 50.11 74.29 51.51 72.12 53.59 C 71.42 54.31 70.68 54.98 69.91 55.62 C 67.42 57.24 65.30 59.36 63.58 61.79 C 63.21 62.23 62.45 63.12 62.07 63.57 C 61.57 62.16 61.00 60.77 60.38 59.40 L 60.12 58.80 C 61.10 57.97 62.04 57.06 63.11 56.33 C 65.31 55.05 67.42 53.63 69.39 52.02 C 69.77 51.80 70.52 51.36 70.90 51.14 Z" />
<path fill="#adb2b9" opacity="1.00" d=" M 151.33 61.47 C 152.67 63.80 153.69 66.28 154.40 68.86 C 152.28 72.75 149.98 77.04 145.63 78.78 C 142.66 80.38 139.51 78.39 136.73 77.35 C 139.58 77.44 142.43 77.34 145.28 77.21 C 144.61 72.72 142.88 68.49 142.05 64.03 C 144.53 66.75 147.11 69.43 150.25 71.40 C 149.45 68.02 149.56 64.54 151.33 61.47 Z" />
<path fill="#adb2b9" opacity="1.00" d=" M 95.14 74.58 C 98.44 72.13 102.41 71.27 106.46 71.85 C 104.45 75.14 100.69 77.20 96.87 77.41 C 95.10 77.83 95.33 75.63 95.14 74.58 Z" />
<path fill="#adb2b9" opacity="1.00" d=" M 152.59 79.66 C 157.12 78.30 162.22 79.23 165.88 82.25 C 161.07 87.14 155.02 90.99 148.14 92.05 C 149.51 87.88 150.97 83.74 152.59 79.66 Z" />
<path fill="#adb2b9" opacity="1.00" d=" M 146.67 80.93 C 148.22 80.51 149.77 80.07 151.33 79.64 C 150.22 84.03 148.43 88.19 146.92 92.45 C 140.35 93.08 133.88 91.46 127.33 91.63 L 126.49 91.53 C 126.27 90.55 126.04 89.58 125.82 88.60 C 131.31 87.42 137.46 87.15 142.23 90.60 C 144.14 88.74 146.27 87.07 147.87 84.92 C 147.75 83.52 147.10 82.24 146.67 80.93 Z" />
<path fill="#adb2b9" opacity="1.00" d=" M 140.03 86.82 C 140.45 84.37 141.51 82.09 143.09 80.16 C 143.22 82.35 143.51 87.51 140.03 86.82 Z" />
<path fill="#adb2b9" opacity="1.00" d=" M 132.22 83.15 C 135.04 83.02 137.84 82.66 140.59 82.08 C 140.15 83.20 139.67 84.31 139.18 85.42 C 136.88 84.55 134.47 84.01 132.01 83.91 L 131.89 83.17 L 132.22 83.15 Z" />
<path fill="#adb2b9" opacity="1.00" d=" M 72.35 90.42 C 73.65 88.68 75.21 87.11 76.94 85.80 L 79.13 85.32 C 77.58 88.49 75.16 91.07 72.69 93.54 L 72.69 93.54 C 71.86 94.06 71.04 94.58 70.20 95.10 C 70.14 94.74 70.01 94.03 69.95 93.67 C 70.19 93.25 70.67 92.42 70.92 92.00 C 71.28 91.61 71.99 90.82 72.35 90.42 Z" />
<path fill="#adb2b9" opacity="1.00" d=" M 91.75 89.52 C 95.30 88.84 98.73 87.33 102.41 87.56 C 101.90 91.52 103.24 95.31 105.46 98.53 C 103.96 98.87 102.50 99.68 100.93 99.45 C 98.79 96.38 97.89 92.65 96.00 89.43 C 96.48 93.11 98.31 96.36 99.74 99.73 C 96.02 98.43 92.87 96.01 90.13 93.24 C 91.54 91.98 93.00 90.76 94.49 89.60 C 93.81 89.58 92.44 89.54 91.75 89.52 Z" />
<path fill="#adb2b9" opacity="1.00" d=" M 58.84 96.33 C 61.47 95.30 64.60 93.93 67.29 95.50 C 68.72 96.18 70.10 97.00 71.36 97.97 C 72.59 98.98 73.41 100.27 73.83 101.83 L 73.94 104.17 C 72.62 102.74 71.32 101.31 69.96 99.92 C 71.06 101.68 72.25 103.40 73.48 105.08 C 73.22 107.46 72.87 109.86 71.92 112.09 L 71.77 112.49 L 71.17 112.86 C 68.70 114.21 66.71 116.22 64.77 118.23 C 64.49 118.39 63.94 118.70 63.66 118.85 C 62.01 119.41 60.52 120.40 59.74 122.01 C 59.48 122.23 58.96 122.67 58.71 122.89 C 58.29 123.23 57.47 123.91 57.06 124.25 C 56.56 125.06 55.84 125.58 54.89 125.83 C 53.77 126.05 53.07 126.69 52.78 127.75 L 52.52 128.57 L 51.56 128.86 C 49.79 129.16 48.54 130.51 47.79 132.06 C 47.57 132.26 47.12 132.66 46.90 132.86 C 45.20 133.43 43.87 134.65 43.07 136.25 C 42.79 136.42 42.23 136.74 41.95 136.91 L 41.13 136.93 C 43.68 132.27 46.65 127.84 49.99 123.71 C 53.18 120.34 55.33 116.07 58.96 113.08 C 58.30 115.50 57.45 117.86 56.57 120.20 C 61.96 118.83 67.15 114.54 68.57 109.07 C 67.56 109.31 66.55 109.55 65.54 109.80 C 65.87 108.33 66.18 106.86 66.50 105.39 C 64.95 106.48 63.41 107.58 61.87 108.68 C 64.16 105.39 66.66 102.26 69.16 99.14 C 65.88 97.69 62.40 96.77 58.84 96.33 Z" />
<path fill="#adb2b9" opacity="1.00" d=" M 122.98 100.94 C 126.81 104.54 129.10 109.45 132.98 113.04 C 137.64 117.34 142.03 122.00 147.17 125.74 C 148.14 126.41 148.83 127.31 149.24 128.44 C 145.58 129.38 143.73 125.62 141.68 123.38 C 138.04 118.61 132.33 115.95 128.88 111.03 C 126.59 107.88 124.30 104.64 122.98 100.94 Z" />
<path fill="#adb2b9" opacity="1.00" d=" M 101.31 107.24 C 101.77 107.78 101.77 107.78 101.31 107.24 Z" />
<path fill="#adb2b9" opacity="1.00" d=" M 108.91 107.79 C 109.08 107.69 109.43 107.50 109.61 107.40 C 110.68 107.82 111.76 108.26 112.82 108.72 C 112.55 110.21 111.84 111.43 110.70 112.39 C 109.52 113.30 108.36 114.23 107.17 115.12 C 106.32 115.31 104.62 115.69 103.77 115.88 C 104.64 112.70 106.78 110.19 108.91 107.79 Z" />
<path fill="#adb2b9" opacity="1.00" d=" M 79.58 128.27 C 80.30 125.99 81.18 123.75 82.36 121.67 C 83.13 127.87 81.39 134.09 78.43 139.51 C 77.37 141.28 76.57 143.73 74.17 143.93 C 74.41 142.91 74.90 140.88 75.15 139.86 C 75.33 139.49 75.71 138.73 75.90 138.36 C 77.71 135.49 78.76 132.25 79.40 128.95 C 79.44 128.78 79.54 128.44 79.58 128.27 Z" />
<path fill="#adb2b9" opacity="1.00" d=" M 147.74 132.45 C 149.14 133.19 150.56 133.88 152.02 134.51 L 152.52 134.73 C 153.91 136.47 155.40 138.14 156.56 140.04 C 160.44 147.41 162.82 155.60 162.54 163.99 C 162.54 165.59 162.04 167.03 161.04 168.30 C 156.75 160.48 155.34 151.44 151.00 143.66 L 150.69 143.12 C 150.59 142.75 150.39 142.03 150.29 141.67 C 149.37 138.61 148.30 135.60 147.74 132.45 Z" />
<path fill="#adb2b9" opacity="1.00" d=" M 75.35 159.57 C 76.14 164.83 69.56 166.13 66.41 168.76 L 66.14 169.59 C 65.89 169.58 65.40 169.56 65.15 169.55 L 63.78 169.50 C 62.48 170.31 61.24 171.21 60.00 172.11 C 60.37 170.68 60.73 169.25 61.10 167.82 L 61.25 167.26 L 62.38 167.32 C 64.49 167.64 66.60 167.00 68.23 165.64 L 69.49 164.78 C 69.57 164.72 69.74 164.60 69.83 164.54 L 71.18 164.24 C 72.36 164.14 73.07 163.54 73.33 162.45 L 73.49 161.84 C 73.95 161.27 74.88 160.13 75.35 159.57 Z" />
<path fill="#adb2b9" opacity="1.00" d=" M 164.50 179.77 C 166.03 183.31 168.87 187.54 166.87 191.39 C 166.19 189.49 165.47 187.61 164.56 185.82 L 164.33 184.84 C 164.32 183.15 164.40 181.46 164.50 179.77 Z" />
</g>
<g id="#e6c75cff">
<path fill="#e6c75c" opacity="1.00" d=" M 93.83 62.72 C 96.06 61.04 95.96 58.02 96.82 55.60 C 99.22 55.67 101.62 55.72 104.01 55.91 C 105.14 57.63 106.05 59.50 106.46 61.53 C 98.41 60.70 91.78 70.77 94.64 77.99 C 96.16 78.42 97.70 78.79 99.24 79.18 C 96.75 80.81 93.82 82.28 92.80 85.31 C 91.57 85.69 90.41 86.50 89.09 86.41 C 84.94 83.99 84.01 78.90 82.47 74.74 C 82.41 74.49 82.28 73.99 82.22 73.75 C 82.55 72.33 82.92 70.93 83.32 69.54 C 83.87 70.95 84.42 72.37 84.99 73.79 C 87.03 71.68 89.37 68.86 88.25 65.72 C 87.34 65.72 85.53 65.73 84.63 65.73 C 85.10 64.69 85.58 63.66 86.07 62.63 C 86.69 62.62 87.93 62.59 88.54 62.58 C 88.50 61.95 88.41 60.71 88.36 60.08 C 90.36 58.94 92.37 57.81 94.37 56.68 C 94.13 58.69 93.95 60.70 93.83 62.72 Z" />
<path fill="#e6c75c" opacity="1.00" d=" M 104.68 81.58 C 107.89 81.55 110.38 79.50 113.03 78.03 C 115.66 78.08 117.91 79.69 120.45 80.21 C 120.94 80.42 121.93 80.83 122.43 81.04 C 119.90 81.64 117.32 82.00 114.77 82.47 C 115.96 83.73 117.53 84.50 119.27 84.60 C 119.74 85.06 120.68 85.98 121.15 86.44 C 119.32 89.10 117.84 92.30 114.89 93.92 C 111.99 95.34 108.83 96.11 105.80 97.20 C 102.56 92.84 101.99 86.33 104.68 81.58 Z" />
<path fill="#e6c75c" opacity="1.00" d=" M 110.64 102.25 C 114.41 102.82 118.27 102.92 122.00 102.00 C 122.54 102.95 123.08 103.90 123.63 104.84 C 118.82 104.48 113.93 105.18 109.61 107.40 C 109.43 107.50 109.08 107.69 108.91 107.79 C 107.24 108.82 105.64 109.96 104.03 111.07 C 104.05 110.75 104.07 110.10 104.09 109.78 L 104.11 109.14 C 106.13 106.70 108.09 104.17 110.64 102.25 Z" />
<path fill="#e6c75c" opacity="1.00" d=" M 107.17 115.12 C 108.36 114.23 109.52 113.30 110.70 112.39 C 115.69 113.27 120.83 111.92 125.79 113.17 C 128.63 113.71 130.88 115.62 133.08 117.37 C 130.66 118.38 130.67 121.22 129.96 123.37 C 123.47 120.56 116.03 118.97 109.13 121.24 C 109.62 118.67 110.55 116.23 111.76 113.92 C 110.23 114.31 108.69 114.69 107.17 115.12 Z" />
<path fill="#e6c75c" opacity="1.00" d=" M 101.35 128.21 C 100.59 124.48 100.81 120.33 104.03 117.78 C 104.95 119.44 105.88 121.11 106.83 122.76 C 104.77 124.33 103.09 126.31 101.35 128.21 Z" />
<path fill="#e6c75c" opacity="1.00" d=" M 113.16 128.96 C 117.31 128.00 121.47 129.60 125.31 131.04 C 122.50 132.61 119.88 134.52 116.93 135.84 C 113.05 137.51 108.75 136.60 104.73 136.05 C 105.23 131.80 109.52 129.90 113.16 128.96 Z" />
<path fill="#e6c75c" opacity="1.00" d=" M 117.47 142.03 C 119.09 142.60 122.47 142.36 121.74 144.94 C 121.28 149.90 116.60 154.57 119.29 159.59 C 118.21 161.36 117.21 163.24 115.58 164.59 C 115.47 158.93 117.07 153.42 118.55 148.01 C 117.18 151.04 116.29 154.24 115.57 157.48 C 114.94 157.81 113.69 158.47 113.06 158.80 C 112.65 153.45 111.86 148.11 112.07 142.73 C 113.87 142.49 115.66 142.25 117.47 142.03 Z" />
</g>
<g id="#c39954ff">
<path fill="#c39954" opacity="1.00" d=" M 104.01 55.91 C 105.75 56.21 107.48 56.56 109.22 56.87 C 116.29 59.95 119.16 70.87 112.97 76.15 C 107.44 81.38 99.53 82.28 92.80 85.31 C 93.82 82.28 96.75 80.81 99.24 79.18 C 97.70 78.79 96.16 78.42 94.64 77.99 C 98.43 77.53 102.78 77.52 105.63 74.57 C 107.85 72.34 110.53 69.52 109.78 66.09 C 109.59 64.06 108.00 62.65 106.46 61.53 C 106.05 59.50 105.14 57.63 104.01 55.91 Z" />
<path fill="#c39954" opacity="1.00" d=" M 105.26 63.05 C 109.84 63.63 108.95 69.16 106.85 71.86 L 106.46 71.85 C 102.41 71.27 98.44 72.13 95.14 74.58 C 95.63 71.61 96.51 68.68 98.36 66.26 C 101.32 68.03 104.19 65.87 105.26 63.05 Z" />
<path fill="#c39954" opacity="1.00" d=" M 114.89 93.92 C 117.84 92.30 119.32 89.10 121.15 86.44 C 122.37 87.25 123.62 88.04 124.70 89.05 C 125.27 92.15 124.59 95.28 124.00 98.31 C 122.96 97.87 121.92 97.43 120.87 96.99 C 121.01 98.48 121.17 99.98 121.36 101.47 C 117.69 101.82 113.76 102.39 110.34 100.60 C 108.59 99.83 107.21 98.45 105.80 97.20 C 108.83 96.11 111.99 95.34 114.89 93.92 Z" />
<path fill="#c39954" opacity="1.00" d=" M 124.16 98.04 C 129.91 97.20 133.71 102.50 138.28 104.88 C 139.64 108.87 142.83 112.05 143.17 116.46 C 139.59 113.48 136.38 109.94 132.13 107.89 C 129.33 106.53 126.82 104.54 125.26 101.81 C 124.75 100.63 123.29 99.40 124.16 98.04 Z" />
<path fill="#c39954" opacity="1.00" d=" M 129.96 123.37 C 130.67 121.22 130.66 118.38 133.08 117.37 C 137.32 120.74 142.38 124.38 143.31 130.11 L 143.49 130.96 L 142.94 131.79 C 141.96 133.26 141.13 134.82 140.31 136.39 C 138.86 130.81 135.21 125.90 129.96 123.37 Z" />
<path fill="#c39954" opacity="1.00" d=" M 125.31 131.04 C 130.63 133.20 136.40 139.08 132.89 145.11 C 131.12 146.77 128.89 147.77 126.67 148.63 C 126.16 149.42 125.63 150.19 125.06 150.94 C 124.75 151.36 124.14 152.21 123.83 152.63 C 123.64 152.95 123.26 153.59 123.07 153.91 C 122.75 154.33 122.11 155.17 121.79 155.59 C 121.24 157.08 120.22 158.33 119.29 159.59 C 116.60 154.57 121.28 149.90 121.74 144.94 C 122.47 142.36 119.09 142.60 117.47 142.03 C 115.01 141.16 112.41 141.66 110.81 143.84 C 109.87 143.17 108.92 142.51 108.00 141.82 C 106.73 140.60 105.71 139.14 104.88 137.60 L 104.73 136.05 C 108.75 136.60 113.05 137.51 116.93 135.84 C 119.88 134.52 122.50 132.61 125.31 131.04 Z" />
</g>
</svg>
