<?xml version="1.0" encoding="UTF-8" ?>
<!DOCTYPE svg PUBLIC "-//W3C//DTD SVG 1.1//EN" "http://www.w3.org/Graphics/SVG/1.1/DTD/svg11.dtd">
<svg width="215pt" height="215pt" viewBox="0 0 215 215" version="1.1" xmlns="http://www.w3.org/2000/svg">
<g id="#1e180fb5">
<path fill="#1e180f" opacity="0.71" d=" M 73.94 24.19 C 74.80 22.55 76.76 22.36 78.32 21.78 C 77.85 23.38 77.29 25.06 75.76 25.95 C 75.99 25.29 76.46 23.98 76.69 23.32 C 76.00 23.54 74.63 23.97 73.94 24.19 Z" />
</g>
<g id="#be9661ff">
<path fill="#be9661" opacity="1.00" d=" M 73.94 24.19 C 74.63 23.97 76.00 23.54 76.69 23.32 C 76.46 23.98 75.99 25.29 75.76 25.95 C 75.53 26.37 75.07 27.21 74.84 27.63 C 73.71 29.41 72.64 31.22 71.65 33.08 C 75.80 32.16 79.89 30.93 84.07 30.10 C 83.15 31.13 82.23 32.16 81.30 33.18 C 78.08 33.48 74.97 34.45 72.10 35.93 C 73.32 36.51 74.54 37.10 75.77 37.67 C 66.61 42.00 57.28 46.90 47.09 48.01 C 48.88 45.71 50.77 43.48 52.73 41.32 C 53.13 41.89 53.94 43.03 54.34 43.59 C 57.07 42.58 59.52 40.94 60.87 38.28 C 59.89 38.52 58.91 38.75 57.93 38.99 C 58.07 37.91 58.24 36.83 58.31 35.74 C 60.42 33.90 62.54 32.07 64.41 29.99 L 64.81 29.57 C 65.10 29.43 65.69 29.15 65.98 29.00 C 68.30 27.98 70.36 26.47 72.41 25.01 C 72.80 24.80 73.56 24.39 73.94 24.19 Z" />
<path fill="#be9661" opacity="1.00" d=" M 89.14 52.54 C 90.30 53.09 91.26 54.04 91.50 55.34 C 92.80 60.23 93.29 65.30 94.75 70.16 C 93.84 69.15 92.66 68.24 92.32 66.85 C 90.95 62.16 90.24 57.30 89.14 52.54 Z" />
<path fill="#be9661" opacity="1.00" d=" M 67.89 87.07 C 68.95 82.68 73.58 80.90 76.60 78.06 C 78.27 78.22 79.95 78.38 81.62 78.54 C 79.70 81.49 77.18 84.08 75.91 87.42 C 77.00 87.29 78.09 87.15 79.19 87.02 C 77.48 91.83 74.16 96.00 73.51 101.18 C 69.94 97.51 65.73 92.55 67.89 87.07 Z" />
</g>
<g id="#1b140da5">
<path fill="#1b140d" opacity="0.65" d=" M 64.80 29.20 C 67.01 27.32 69.43 25.38 72.41 25.01 C 70.36 26.47 68.30 27.98 65.98 29.00 L 64.80 29.20 Z" />
</g>
<g id="#000000ff">
<path fill="#000000" opacity="1.00" d=" M 71.65 33.08 C 72.64 31.22 73.71 29.41 74.84 27.63 C 74.36 29.09 73.79 30.51 73.12 31.88 C 77.38 30.97 81.54 29.47 85.93 29.30 C 84.70 30.78 83.42 32.22 82.16 33.67 C 85.30 33.54 83.26 35.04 82.77 35.99 C 82.09 35.64 80.72 34.95 80.04 34.60 C 80.35 34.25 80.98 33.54 81.30 33.18 C 82.23 32.16 83.15 31.13 84.07 30.10 C 79.89 30.93 75.80 32.16 71.65 33.08 Z" />
<path fill="#000000" opacity="1.00" d=" M 48.65 37.26 C 51.22 34.85 52.10 30.97 55.32 29.22 C 55.01 31.82 54.74 34.42 54.58 37.03 C 55.32 36.80 56.81 36.35 57.55 36.12 C 56.05 37.95 54.34 39.60 52.73 41.32 C 50.77 43.48 48.88 45.71 47.09 48.01 C 46.00 49.54 45.11 51.19 44.25 52.85 C 48.01 53.40 50.79 50.64 53.88 49.08 C 61.39 45.08 69.69 42.79 78.06 41.45 C 78.05 39.36 79.25 37.71 81.12 36.88 C 80.35 37.96 79.58 39.03 78.80 40.10 C 82.75 41.64 86.98 40.20 91.07 40.31 C 90.76 40.64 90.14 41.31 89.83 41.64 C 88.53 41.54 87.24 41.34 85.93 41.33 C 76.46 42.30 67.06 44.36 58.27 48.10 C 54.74 49.22 51.62 51.22 48.57 53.25 C 49.12 53.51 50.22 54.03 50.77 54.28 C 50.51 54.62 49.97 55.29 49.70 55.62 C 50.27 56.74 50.86 57.86 51.39 59.00 C 53.82 64.35 54.74 70.71 52.81 76.35 C 50.89 79.37 48.43 82.62 44.34 81.93 L 43.59 81.61 C 43.06 86.49 41.35 91.12 39.00 95.40 C 39.75 90.71 43.04 86.71 42.60 81.75 C 40.51 80.89 35.62 81.24 36.78 77.69 L 37.55 78.22 C 39.02 80.13 40.21 76.43 37.85 77.38 C 39.48 74.51 41.39 71.38 39.20 68.23 L 39.72 68.93 C 40.11 69.61 40.88 70.97 41.26 71.64 C 43.00 70.03 44.75 68.44 46.52 66.85 C 42.53 64.02 37.74 60.80 32.60 62.12 C 35.53 63.19 38.11 65.04 39.23 68.05 C 37.75 66.74 36.46 65.22 34.84 64.09 C 32.51 62.94 29.82 63.00 27.35 62.30 C 26.92 60.46 28.93 59.16 29.72 57.68 C 32.31 53.78 37.48 53.84 41.51 52.58 C 41.82 52.55 42.44 52.49 42.75 52.46 C 45.68 47.34 49.99 43.24 53.39 38.47 C 54.27 36.02 54.17 33.31 54.42 30.74 C 52.02 33.39 50.31 36.55 48.50 39.61 C 48.10 38.33 47.67 37.06 47.32 35.77 C 47.40 34.72 47.93 33.90 48.92 33.29 C 48.85 34.28 48.72 36.27 48.65 37.26 M 36.72 54.81 C 35.40 54.36 33.64 55.10 32.86 56.22 L 33.04 56.71 L 31.90 56.40 C 30.66 58.09 29.59 59.90 28.87 61.87 C 31.32 60.21 34.24 60.85 36.98 60.50 C 42.80 62.74 47.33 67.29 53.12 69.54 C 52.35 63.94 50.43 58.36 47.39 53.58 C 43.83 53.80 40.09 53.42 36.72 54.81 M 41.76 73.21 C 41.26 74.54 40.76 75.87 40.25 77.19 C 40.84 77.21 42.02 77.23 42.61 77.24 C 44.63 76.35 46.59 75.32 48.24 73.84 L 48.92 73.90 C 50.10 72.78 51.23 71.60 52.20 70.28 C 50.73 69.43 49.31 68.51 47.95 67.51 C 45.05 68.24 43.11 70.70 41.76 73.21 M 39.09 78.98 L 39.51 80.39 C 42.56 80.77 45.85 81.36 48.82 80.39 C 51.29 78.11 52.84 74.93 52.86 71.53 C 48.57 74.41 44.52 78.57 39.09 78.98 Z" />
<path fill="#000000" opacity="1.00" d=" M 84.96 44.09 C 85.79 43.60 86.62 43.11 87.47 42.65 L 87.74 44.03 C 90.58 45.34 93.59 46.27 96.47 47.50 C 96.25 49.02 96.77 50.31 97.90 51.33 C 96.26 50.29 94.45 49.20 94.01 47.14 C 91.04 46.00 87.98 45.11 84.96 44.09 Z" />
<path fill="#000000" opacity="1.00" d=" M 51.19 53.33 C 59.17 51.52 67.40 51.52 75.49 50.54 C 83.71 50.28 91.87 51.86 99.86 53.66 L 99.07 52.11 C 100.15 52.61 100.90 53.49 100.86 54.72 C 97.95 54.07 95.01 53.52 92.04 53.22 C 93.62 64.13 96.16 75.28 102.25 84.61 C 108.97 86.77 114.99 90.56 120.95 94.25 C 123.48 96.04 126.27 97.62 128.16 100.15 C 125.97 98.93 123.85 97.59 121.80 96.17 C 113.87 91.00 105.50 85.22 95.69 84.94 C 97.32 84.50 98.99 84.22 100.66 83.93 C 98.36 79.49 96.28 74.93 94.75 70.16 C 93.29 65.30 92.80 60.23 91.50 55.34 C 91.26 54.04 90.30 53.09 89.14 52.54 C 84.95 52.35 80.77 52.07 76.59 51.78 C 79.34 55.24 82.66 58.26 85.11 61.96 L 85.35 63.04 C 84.21 62.61 83.07 62.18 81.94 61.74 C 81.55 62.23 80.78 63.22 80.39 63.72 C 78.55 62.51 76.66 61.35 74.75 60.25 C 73.80 62.98 72.91 65.74 72.09 68.53 C 66.91 63.35 60.46 59.84 54.10 56.38 C 53.12 55.37 52.15 54.36 51.19 53.33 M 54.88 56.35 C 56.96 55.32 58.45 56.86 60.10 57.74 L 60.29 56.28 C 60.73 56.16 61.60 55.91 62.03 55.79 L 57.10 55.80 L 60.41 53.61 C 59.27 54.80 57.05 55.29 57.06 52.82 C 55.50 53.43 54.85 54.71 54.88 56.35 M 64.82 52.34 C 64.05 54.82 63.03 57.25 61.21 59.16 C 62.84 59.68 64.48 60.21 66.13 60.70 C 68.07 58.16 69.39 55.24 70.53 52.27 C 68.63 52.29 66.72 52.32 64.82 52.34 Z" />
<path fill="#000000" opacity="1.00" d=" M 34.07 106.01 C 35.60 102.46 36.37 98.42 38.98 95.45 C 38.07 98.00 36.97 100.47 35.95 102.98 C 35.85 103.26 35.65 103.81 35.55 104.08 C 33.29 109.81 31.31 115.77 31.28 121.99 C 31.36 125.19 31.13 128.79 33.23 131.44 C 34.09 127.23 34.52 122.95 35.17 118.71 C 35.56 123.22 35.71 127.76 36.54 132.22 C 36.91 134.13 37.40 136.02 37.88 137.91 C 39.95 138.78 42.03 139.63 44.13 140.45 C 44.16 138.54 44.18 136.62 44.19 134.71 C 45.02 137.75 46.25 140.84 49.38 142.16 C 48.27 142.02 46.06 141.76 44.95 141.62 L 44.43 141.57 C 42.38 140.95 40.31 140.35 38.39 139.39 C 35.26 137.52 37.65 132.26 34.37 130.79 C 34.33 131.77 34.24 133.72 34.19 134.70 C 32.73 135.08 32.53 133.04 31.90 132.18 C 28.52 123.68 31.01 114.23 34.07 106.01 Z" />
<path fill="#000000" opacity="1.00" d=" M 128.97 100.69 C 130.79 101.90 133.38 102.90 133.58 105.44 C 132.78 105.16 131.18 104.62 130.38 104.35 C 130.14 104.72 129.66 105.44 129.42 105.81 C 128.53 104.74 127.66 103.65 126.81 102.56 C 128.26 102.94 129.71 103.32 131.17 103.70 C 130.62 102.95 129.52 101.45 128.97 100.69 Z" />
<path fill="#000000" opacity="1.00" d=" M 152.93 106.36 C 156.52 103.76 161.50 100.77 165.80 103.61 C 163.30 103.75 160.71 103.42 158.27 104.09 C 156.57 104.94 155.12 106.19 153.61 107.33 C 153.44 107.08 153.10 106.60 152.93 106.36 Z" />
<path fill="#000000" opacity="1.00" d=" M 131.01 108.05 C 131.64 108.69 132.26 109.34 132.88 110.00 C 132.81 110.75 132.66 112.26 132.59 113.01 C 132.13 112.59 131.20 111.76 130.74 111.34 C 130.69 112.07 130.58 113.52 130.53 114.25 C 130.00 112.58 129.37 110.95 128.76 109.31 C 129.46 109.38 130.88 109.51 131.58 109.58 L 131.01 108.05 Z" />
</g>
<g id="#16110cce">
<path fill="#16110c" opacity="0.81" d=" M 58.26 35.29 C 58.43 32.64 61.99 30.77 64.41 29.99 C 62.54 32.07 60.42 33.90 58.31 35.74 L 58.26 35.29 Z" />
</g>
<g id="#fef5bbff">
<path fill="#fef5bb" opacity="1.00" d=" M 48.50 39.61 C 50.31 36.55 52.02 33.39 54.42 30.74 C 54.17 33.31 54.27 36.02 53.39 38.47 C 49.99 43.24 45.68 47.34 42.75 52.46 C 42.44 52.49 41.82 52.55 41.51 52.58 C 42.04 51.07 42.57 49.57 43.17 48.09 C 44.05 44.78 45.14 41.53 46.13 38.25 C 46.50 38.94 47.24 40.33 47.61 41.02 C 47.92 40.55 48.21 40.08 48.50 39.61 Z" />
<path fill="#fef5bb" opacity="1.00" d=" M 138.55 133.47 C 138.92 132.95 139.64 131.91 140.01 131.39 C 141.80 136.59 143.64 141.89 143.80 147.44 C 141.16 143.21 140.84 137.92 138.55 133.47 Z" />
</g>
<g id="#915e31ff">
<path fill="#915e31" opacity="1.00" d=" M 72.10 35.93 C 74.97 34.45 78.08 33.48 81.30 33.18 C 80.98 33.54 80.35 34.25 80.04 34.60 C 80.72 34.95 82.09 35.64 82.77 35.99 C 82.36 36.21 81.54 36.66 81.12 36.88 C 79.25 37.71 78.05 39.36 78.06 41.45 C 69.69 42.79 61.39 45.08 53.88 49.08 C 50.79 50.64 48.01 53.40 44.25 52.85 C 45.11 51.19 46.00 49.54 47.09 48.01 C 57.28 46.90 66.61 42.00 75.77 37.67 C 74.54 37.10 73.32 36.51 72.10 35.93 Z" />
</g>
<g id="#f9f6dfff">
<path fill="#f9f6df" opacity="1.00" d=" M 58.26 35.29 L 58.31 35.74 C 58.24 36.83 58.07 37.91 57.93 38.99 C 58.91 38.75 59.89 38.52 60.87 38.28 C 59.52 40.94 57.07 42.58 54.34 43.59 C 53.94 43.03 53.13 41.89 52.73 41.32 C 54.34 39.60 56.05 37.95 57.55 36.12 C 57.73 35.92 58.08 35.50 58.26 35.29 Z" />
<path fill="#f9f6df" opacity="1.00" d=" M 37.76 104.97 C 38.79 103.67 39.81 102.36 40.83 101.05 C 40.75 103.49 40.83 105.95 41.16 108.38 C 41.85 107.40 42.54 106.43 43.23 105.45 C 44.04 105.41 44.85 105.37 45.67 105.33 C 45.97 106.57 46.31 107.81 46.66 109.03 C 48.35 107.97 49.05 105.99 50.06 104.38 C 50.62 104.73 51.17 105.09 51.72 105.45 C 52.30 104.69 52.88 103.93 53.46 103.18 C 53.80 105.89 54.58 108.56 56.84 110.30 C 56.16 112.50 55.40 114.67 54.65 116.85 C 54.12 115.19 53.61 113.52 52.82 111.97 C 51.30 112.64 51.04 114.43 50.33 115.77 C 49.88 114.66 49.43 113.55 48.96 112.45 C 47.77 114.96 46.60 117.49 45.45 120.03 C 44.80 116.99 44.08 113.96 43.17 110.99 C 41.72 112.95 40.38 114.99 39.10 117.07 C 38.94 114.16 38.82 111.24 38.77 108.33 C 38.08 108.83 37.38 109.33 36.69 109.83 C 36.60 107.87 36.17 105.94 35.55 104.08 C 35.65 103.81 35.85 103.26 35.95 102.98 C 36.55 103.64 37.15 104.31 37.76 104.97 Z" />
</g>
<g id="#916f72ff">
<path fill="#916f72" opacity="1.00" d=" M 47.32 35.77 C 47.67 37.06 48.10 38.33 48.50 39.61 C 48.21 40.08 47.92 40.55 47.61 41.02 C 47.24 40.33 46.50 38.94 46.13 38.25 C 46.53 37.42 46.92 36.60 47.32 35.77 Z" />
<path fill="#916f72" opacity="1.00" d=" M 75.26 161.64 C 76.81 162.09 78.37 162.55 79.92 163.01 C 80.19 164.37 80.47 165.74 80.75 167.11 C 83.79 168.14 86.71 169.51 89.36 171.32 C 87.20 172.83 84.68 173.43 82.12 172.57 C 80.33 172.21 78.49 171.93 76.74 172.63 C 72.77 174.23 67.42 172.61 64.95 176.95 C 63.65 177.02 62.36 177.10 61.07 177.17 C 60.84 176.20 60.60 175.23 60.34 174.27 C 62.76 173.45 65.09 172.41 67.34 171.20 C 65.44 170.98 63.53 170.77 61.62 170.62 C 64.94 170.30 68.46 170.16 71.27 168.14 C 69.33 168.39 67.41 168.73 65.50 169.11 C 66.96 168.12 68.40 167.11 69.76 166.00 L 70.54 165.39 L 70.88 165.29 C 73.10 165.10 74.63 163.75 75.26 161.64 Z" />
</g>
<g id="#f5edb3ff">
<path fill="#f5edb3" opacity="1.00" d=" M 58.27 48.10 C 67.06 44.36 76.46 42.30 85.93 41.33 C 87.24 41.34 88.53 41.54 89.83 41.64 C 89.24 41.89 88.06 42.40 87.47 42.65 C 86.62 43.11 85.79 43.60 84.96 44.09 C 87.98 45.11 91.04 46.00 94.01 47.14 C 94.45 49.20 96.26 50.29 97.90 51.33 C 98.20 51.53 98.78 51.92 99.07 52.11 L 99.86 53.66 C 91.87 51.86 83.71 50.28 75.49 50.54 C 73.70 48.09 70.60 49.05 68.05 49.06 C 64.76 49.34 61.39 49.32 58.27 48.10 Z" />
<path fill="#f5edb3" opacity="1.00" d=" M 51.39 59.00 C 52.29 58.12 53.19 57.25 54.10 56.38 C 60.46 59.84 66.91 63.35 72.09 68.53 C 72.56 69.10 73.01 69.70 73.45 70.31 C 70.97 77.82 66.05 84.86 66.19 92.99 C 67.59 96.85 70.42 99.99 73.18 102.95 C 70.47 107.09 67.39 111.20 66.28 116.11 C 65.22 120.13 64.81 124.28 64.36 128.40 C 63.93 126.47 63.15 124.65 61.69 123.27 C 61.86 124.98 62.11 126.67 62.43 128.36 C 61.32 128.02 60.21 127.67 59.09 127.32 C 58.91 127.92 58.53 129.10 58.35 129.70 C 57.55 129.16 56.75 128.63 55.96 128.10 C 55.84 131.30 56.25 134.83 54.12 137.51 C 53.41 134.73 52.68 131.93 51.33 129.37 C 51.13 133.32 51.85 137.22 52.46 141.10 C 48.51 135.13 48.07 127.72 47.40 120.80 C 45.74 123.12 46.60 126.12 46.59 128.75 C 46.46 129.23 46.19 130.19 46.06 130.67 C 45.20 130.65 44.35 130.61 43.49 130.57 C 43.03 132.01 42.57 133.45 42.11 134.90 C 41.14 133.30 40.17 131.70 39.20 130.10 C 38.31 130.80 37.42 131.51 36.54 132.22 C 35.71 127.76 35.56 123.22 35.17 118.71 C 34.52 122.95 34.09 127.23 33.23 131.44 C 31.13 128.79 31.36 125.19 31.28 121.99 C 31.31 115.77 33.29 109.81 35.55 104.08 C 36.17 105.94 36.60 107.87 36.69 109.83 C 37.38 109.33 38.08 108.83 38.77 108.33 C 38.82 111.24 38.94 114.16 39.10 117.07 C 40.38 114.99 41.72 112.95 43.17 110.99 C 44.08 113.96 44.80 116.99 45.45 120.03 C 46.60 117.49 47.77 114.96 48.96 112.45 C 49.43 113.55 49.88 114.66 50.33 115.77 C 51.04 114.43 51.30 112.64 52.82 111.97 C 53.61 113.52 54.12 115.19 54.65 116.85 C 55.40 114.67 56.16 112.50 56.84 110.30 C 54.58 108.56 53.80 105.89 53.46 103.18 C 52.88 103.93 52.30 104.69 51.72 105.45 C 51.17 105.09 50.62 104.73 50.06 104.38 C 49.05 105.99 48.35 107.97 46.66 109.03 C 46.31 107.81 45.97 106.57 45.67 105.33 C 44.85 105.37 44.04 105.41 43.23 105.45 C 42.54 106.43 41.85 107.40 41.16 108.38 C 40.83 105.95 40.75 103.49 40.83 101.05 C 39.81 102.36 38.79 103.67 37.76 104.97 C 37.15 104.31 36.55 103.64 35.95 102.98 C 36.97 100.47 38.07 98.00 38.98 95.45 L 39.00 95.40 C 41.35 91.12 43.06 86.49 43.59 81.61 L 44.34 81.93 C 46.25 84.11 48.84 85.03 51.71 84.80 C 52.99 82.15 54.54 79.21 52.81 76.35 C 54.74 70.71 53.82 64.35 51.39 59.00 Z" />
<path fill="#f5edb3" opacity="1.00" d=" M 135.01 132.97 C 135.53 132.63 136.58 131.96 137.10 131.63 C 139.56 139.52 142.37 147.35 144.15 155.44 L 142.93 153.40 C 142.56 153.95 142.20 154.51 141.84 155.08 C 143.17 157.34 144.16 159.77 145.13 162.20 C 144.59 162.71 143.50 163.71 142.96 164.21 C 142.48 164.11 141.52 163.90 141.04 163.80 C 140.67 163.51 139.92 162.94 139.55 162.65 C 135.17 158.99 130.32 155.94 125.95 152.28 C 124.12 150.72 122.27 149.17 120.38 147.68 C 120.37 146.08 120.36 144.47 120.35 142.88 C 123.22 144.94 126.32 147.04 130.05 146.65 C 129.11 144.46 128.16 142.26 127.25 140.06 C 128.52 140.68 129.79 141.30 131.06 141.92 C 132.44 141.53 133.83 141.15 135.21 140.76 C 136.84 144.87 139.27 148.61 140.78 152.77 C 141.24 152.93 142.15 153.23 142.60 153.39 C 140.65 148.40 137.23 144.11 135.50 139.04 C 135.38 137.01 135.23 134.99 135.01 132.97 Z" />
</g>
<g id="#c9bc94ff">
<path fill="#c9bc94" opacity="1.00" d=" M 48.57 53.25 C 51.62 51.22 54.74 49.22 58.27 48.10 C 61.39 49.32 64.76 49.34 68.05 49.06 C 70.60 49.05 73.70 48.09 75.49 50.54 C 67.40 51.52 59.17 51.52 51.19 53.33 C 52.15 54.36 53.12 55.37 54.10 56.38 C 53.19 57.25 52.29 58.12 51.39 59.00 C 50.86 57.86 50.27 56.74 49.70 55.62 C 49.97 55.29 50.51 54.62 50.77 54.28 C 50.22 54.03 49.12 53.51 48.57 53.25 Z" />
</g>
<g id="#926032ff">
<path fill="#926032" opacity="1.00" d=" M 76.59 51.78 C 80.77 52.07 84.95 52.35 89.14 52.54 C 90.24 57.30 90.95 62.16 92.32 66.85 C 92.66 68.24 93.84 69.15 94.75 70.16 C 96.28 74.93 98.36 79.49 100.66 83.93 C 98.99 84.22 97.32 84.50 95.69 84.94 C 89.22 87.12 83.35 92.22 81.69 99.00 C 80.37 101.47 80.27 104.36 79.55 107.03 C 77.51 105.11 75.48 103.18 73.51 101.18 C 74.16 96.00 77.48 91.83 79.19 87.02 C 78.09 87.15 77.00 87.29 75.91 87.42 C 77.18 84.08 79.70 81.49 81.62 78.54 C 79.95 78.38 78.27 78.22 76.60 78.06 C 77.12 77.60 78.18 76.70 78.70 76.24 C 82.31 73.75 85.48 70.67 87.96 67.04 C 87.07 65.32 86.18 63.58 85.11 61.96 C 82.66 58.26 79.34 55.24 76.59 51.78 Z" />
</g>
<g id="#ffffffff">
<path fill="#ffffff" opacity="1.00" d=" M 54.88 56.35 C 54.85 54.71 55.50 53.43 57.06 52.82 C 57.05 55.29 59.27 54.80 60.41 53.61 L 57.10 55.80 L 62.03 55.79 C 61.60 55.91 60.73 56.16 60.29 56.28 L 60.10 57.74 C 58.45 56.86 56.96 55.32 54.88 56.35 Z" />
<path fill="#ffffff" opacity="1.00" d=" M 64.82 52.34 C 66.72 52.32 68.63 52.29 70.53 52.27 C 69.39 55.24 68.07 58.16 66.13 60.70 C 64.48 60.21 62.84 59.68 61.21 59.16 C 63.03 57.25 64.05 54.82 64.82 52.34 Z" />
<path fill="#ffffff" opacity="1.00" d=" M 32.86 56.22 C 33.64 55.10 35.40 54.36 36.72 54.81 C 36.68 56.68 34.56 57.48 33.04 56.71 L 32.86 56.22 Z" />
<path fill="#ffffff" opacity="1.00" d=" M 74.09 192.01 C 73.43 187.42 76.36 183.74 80.15 181.66 C 82.72 182.75 83.23 185.43 82.48 187.90 C 79.25 188.25 76.62 190.17 74.09 192.01 Z" />
</g>
<g id="#d9b9bfff">
<path fill="#d9b9bf" opacity="1.00" d=" M 36.72 54.81 C 40.09 53.42 43.83 53.80 47.39 53.58 C 44.73 56.95 41.11 59.34 36.98 60.50 C 34.24 60.85 31.32 60.21 28.87 61.87 C 29.59 59.90 30.66 58.09 31.90 56.40 L 33.04 56.71 C 34.56 57.48 36.68 56.68 36.72 54.81 Z" />
<path fill="#d9b9bf" opacity="1.00" d=" M 55.83 170.78 C 57.76 170.65 59.69 170.59 61.62 170.62 C 63.53 170.77 65.44 170.98 67.34 171.20 C 65.09 172.41 62.76 173.45 60.34 174.27 C 59.35 172.53 57.48 171.74 55.83 170.78 Z" />
</g>
<g id="#ae858cff">
<path fill="#ae858c" opacity="1.00" d=" M 47.39 53.58 C 50.43 58.36 52.35 63.94 53.12 69.54 C 47.33 67.29 42.80 62.74 36.98 60.50 C 41.11 59.34 44.73 56.95 47.39 53.58 Z" />
<path fill="#ae858c" opacity="1.00" d=" M 96.23 164.74 C 98.19 164.50 100.16 164.25 102.13 164.01 C 102.50 166.04 102.53 168.22 103.46 170.11 C 106.56 171.49 109.97 172.62 111.88 175.67 C 111.71 175.00 111.38 173.67 111.22 173.00 C 112.79 172.98 114.37 172.96 115.95 172.94 C 116.99 174.56 118.91 176.98 116.62 178.50 C 112.32 180.73 107.59 178.10 103.16 177.74 C 100.89 177.99 99.07 179.51 97.56 181.10 C 97.42 181.23 97.12 181.50 96.98 181.63 C 93.66 184.54 90.10 187.43 85.44 187.47 C 84.48 184.55 87.67 183.63 89.50 182.27 C 90.94 181.54 91.23 179.79 92.00 178.54 L 89.94 178.95 C 91.75 177.38 93.48 175.68 94.73 173.61 C 90.64 177.20 85.27 178.48 79.92 177.97 C 78.58 179.22 77.26 180.50 75.95 181.79 C 74.06 181.96 72.17 182.15 70.29 182.36 C 70.30 181.18 70.31 180.00 70.30 178.83 C 70.49 179.23 70.89 180.04 71.09 180.44 C 74.11 178.52 77.49 177.14 80.10 174.63 L 80.71 174.52 C 84.55 175.29 88.31 173.85 91.09 171.20 C 91.50 170.85 92.33 170.14 92.74 169.79 L 94.38 169.50 C 94.39 170.16 94.42 171.47 94.43 172.12 C 95.60 169.83 96.22 167.32 96.23 164.74 Z" />
</g>
<g id="#372a27ff">
<path fill="#372a27" opacity="1.00" d=" M 74.75 60.25 C 76.66 61.35 78.55 62.51 80.39 63.72 C 80.78 63.22 81.55 62.23 81.94 61.74 C 83.07 62.18 84.21 62.61 85.35 63.04 L 85.11 61.96 C 86.18 63.58 87.07 65.32 87.96 67.04 C 85.48 70.67 82.31 73.75 78.70 76.24 C 76.73 76.28 74.83 76.79 73.13 77.80 C 73.75 75.36 74.45 72.76 73.45 70.31 C 73.01 69.70 72.56 69.10 72.09 68.53 C 72.91 65.74 73.80 62.98 74.75 60.25 Z" />
</g>
<g id="#916e72ff">
<path fill="#916e72" opacity="1.00" d=" M 32.60 62.12 C 37.74 60.80 42.53 64.02 46.52 66.85 C 44.75 68.44 43.00 70.03 41.26 71.64 C 40.88 70.97 40.11 69.61 39.72 68.93 C 39.60 68.71 39.36 68.27 39.23 68.05 C 38.11 65.04 35.53 63.19 32.60 62.12 Z" />
</g>
<g id="#b07f91ff">
<path fill="#b07f91" opacity="1.00" d=" M 41.76 73.21 C 43.11 70.70 45.05 68.24 47.95 67.51 C 49.31 68.51 50.73 69.43 52.20 70.28 C 51.23 71.60 50.10 72.78 48.92 73.90 L 48.24 73.84 C 46.08 73.62 43.92 73.42 41.76 73.21 Z" />
</g>
<g id="#2d291dff">
<path fill="#2d291d" opacity="1.00" d=" M 73.45 70.31 C 74.45 72.76 73.75 75.36 73.13 77.80 C 74.83 76.79 76.73 76.28 78.70 76.24 C 78.18 76.70 77.12 77.60 76.60 78.06 C 73.58 80.90 68.95 82.68 67.89 87.07 C 65.73 92.55 69.94 97.51 73.51 101.18 C 75.48 103.18 77.51 105.11 79.55 107.03 C 80.27 104.36 80.37 101.47 81.69 99.00 C 81.15 103.60 80.54 108.21 80.82 112.85 C 80.64 118.50 82.40 123.90 84.14 129.19 C 86.28 136.35 91.06 142.65 97.38 146.65 C 97.02 144.72 96.63 142.79 96.25 140.87 C 98.66 142.20 100.98 143.71 103.15 145.43 C 103.51 144.90 104.24 143.84 104.61 143.31 C 107.35 144.22 110.24 145.06 113.11 144.15 C 112.94 143.23 112.76 142.30 112.58 141.38 C 112.98 141.07 113.76 140.44 114.15 140.13 C 111.81 135.68 109.31 131.27 107.69 126.49 C 110.90 127.84 113.35 130.38 116.00 132.56 C 116.07 131.57 116.22 129.60 116.29 128.61 C 118.13 129.58 119.92 130.65 121.62 131.84 C 122.85 131.27 124.48 131.19 125.35 130.06 C 125.38 128.18 125.15 126.31 125.01 124.44 C 126.73 125.18 128.42 125.96 130.09 126.81 C 131.05 123.54 131.18 120.07 130.11 116.81 C 130.53 117.11 131.35 117.69 131.77 117.99 C 131.79 117.55 131.83 116.68 131.85 116.25 C 131.52 115.75 130.86 114.75 130.53 114.25 C 130.58 113.52 130.69 112.07 130.74 111.34 C 131.20 111.76 132.13 112.59 132.59 113.01 C 133.82 114.06 134.36 115.61 135.09 117.00 C 137.06 115.74 139.05 114.35 141.43 114.02 C 139.41 115.87 134.95 117.01 136.85 120.56 C 139.34 118.50 141.31 115.93 143.14 113.30 C 146.91 112.20 149.07 108.53 152.82 107.39 C 150.89 109.59 148.61 111.44 146.37 113.31 C 145.92 113.70 145.48 114.09 145.05 114.50 C 142.68 116.87 140.05 119.10 138.33 122.01 C 138.73 124.10 139.61 126.06 140.34 128.06 C 143.71 126.12 146.95 123.97 150.45 122.25 C 154.43 120.49 158.50 118.93 162.58 117.40 C 166.90 116.56 171.82 113.22 175.96 116.04 C 178.63 119.33 182.32 117.12 185.37 115.77 C 184.85 115.16 184.33 114.56 183.80 113.97 L 182.84 112.91 C 184.62 113.50 185.98 114.78 187.27 116.07 C 184.64 117.34 181.88 118.36 179.42 119.96 C 176.99 118.60 174.62 117.13 172.11 115.91 C 169.10 117.03 166.02 117.99 162.96 118.99 C 155.25 121.57 147.90 125.13 140.99 129.40 C 141.38 130.40 141.77 131.39 142.17 132.39 C 152.88 133.20 163.66 131.71 174.09 129.34 C 177.87 128.36 181.54 126.97 185.22 125.67 C 183.77 124.04 182.28 122.45 180.80 120.86 C 183.32 121.78 185.06 123.89 186.89 125.74 C 178.10 130.56 167.92 131.93 158.13 133.25 C 152.88 134.08 147.56 133.83 142.27 133.79 C 143.43 138.78 144.81 143.80 144.69 148.97 C 144.83 153.15 143.92 157.44 145.36 161.48 C 146.62 163.85 142.10 166.47 141.04 163.80 C 141.52 163.90 142.48 164.11 142.96 164.21 C 143.50 163.71 144.59 162.71 145.13 162.20 C 144.16 159.77 143.17 157.34 141.84 155.08 C 142.20 154.51 142.56 153.95 142.93 153.40 L 144.15 155.44 C 142.37 147.35 139.56 139.52 137.10 131.63 C 136.77 130.39 136.52 129.15 136.28 127.90 C 137.07 129.74 137.81 131.60 138.55 133.47 C 140.84 137.92 141.16 143.21 143.80 147.44 C 143.64 141.89 141.80 136.59 140.01 131.39 C 138.60 127.23 136.92 123.16 135.12 119.14 C 134.35 119.32 132.81 119.68 132.04 119.86 C 132.49 121.25 132.94 122.65 133.38 124.05 C 131.75 125.16 131.45 126.94 131.60 128.77 C 129.94 128.14 128.28 127.50 126.63 126.86 C 126.50 128.55 126.81 130.35 126.24 131.97 C 125.23 132.91 124.10 133.72 123.03 134.59 C 121.29 133.33 119.55 132.09 117.79 130.87 C 118.03 132.54 118.28 134.21 118.52 135.89 C 115.66 134.05 113.13 131.80 110.48 129.70 C 112.30 133.82 114.68 137.68 116.29 141.90 C 115.64 142.86 114.99 143.83 114.35 144.81 C 113.29 145.38 112.23 145.96 111.17 146.54 C 109.11 146.01 107.06 145.47 105.01 144.89 C 105.67 146.14 106.31 147.39 106.95 148.66 C 103.77 147.18 100.79 145.35 97.63 143.83 C 101.08 149.17 107.11 151.78 112.62 154.42 C 120.02 157.57 127.68 160.34 135.66 161.59 C 132.15 158.26 127.82 155.84 124.91 151.90 L 125.95 152.28 C 130.32 155.94 135.17 158.99 139.55 162.65 C 132.42 163.14 125.85 159.95 119.08 158.53 C 114.17 161.07 108.90 162.88 103.42 163.71 C 103.38 165.18 103.35 166.66 103.31 168.14 C 105.73 170.31 108.68 172.11 112.08 171.71 C 114.73 171.33 116.93 172.83 118.94 174.33 L 118.66 175.04 C 117.64 176.61 117.98 179.48 120.30 179.50 C 120.19 178.64 119.97 176.92 119.86 176.06 C 121.07 177.26 121.30 179.00 121.67 180.59 C 119.52 180.08 117.29 179.39 115.11 180.24 C 110.92 181.81 107.08 178.67 102.94 178.53 C 101.12 179.33 99.41 180.36 97.56 181.10 C 99.07 179.51 100.89 177.99 103.16 177.74 C 107.59 178.10 112.32 180.73 116.62 178.50 C 118.91 176.98 116.99 174.56 115.95 172.94 C 114.37 172.96 112.79 172.98 111.22 173.00 C 111.38 173.67 111.71 175.00 111.88 175.67 C 109.97 172.62 106.56 171.49 103.46 170.11 C 102.53 168.22 102.50 166.04 102.13 164.01 C 100.16 164.25 98.19 164.50 96.23 164.74 C 96.22 167.32 95.60 169.83 94.43 172.12 C 94.42 171.47 94.39 170.16 94.38 169.50 L 92.74 169.79 C 94.19 168.34 95.16 166.54 95.63 164.55 C 90.84 164.45 86.08 163.94 81.37 163.02 C 81.48 163.75 81.68 165.22 81.78 165.95 C 84.64 168.10 88.10 169.23 91.09 171.20 C 88.31 173.85 84.55 175.29 80.71 174.52 C 80.21 173.30 79.31 172.90 78.00 173.32 C 79.17 172.40 80.72 172.57 82.12 172.57 C 84.68 173.43 87.20 172.83 89.36 171.32 C 86.71 169.51 83.79 168.14 80.75 167.11 C 80.47 165.74 80.19 164.37 79.92 163.01 C 78.37 162.55 76.81 162.09 75.26 161.64 C 74.63 163.75 73.10 165.10 70.88 165.29 C 71.77 163.89 74.47 162.80 73.52 160.86 C 67.18 158.53 61.31 155.13 55.62 151.54 C 55.25 151.10 54.53 150.23 54.16 149.79 C 61.07 153.77 67.88 158.11 75.59 160.43 C 88.12 164.79 102.19 163.92 114.62 159.64 C 115.42 159.36 118.31 158.41 116.43 157.57 C 110.69 155.05 105.06 152.24 99.90 148.65 C 96.30 148.85 93.82 145.85 91.40 143.66 C 86.29 138.86 83.25 132.36 81.26 125.75 C 79.73 120.99 79.25 115.99 79.42 111.00 C 79.80 107.09 75.27 105.60 73.18 102.95 C 70.42 99.99 67.59 96.85 66.19 92.99 C 66.05 84.86 70.97 77.82 73.45 70.31 Z" />
<path fill="#2d291d" opacity="1.00" d=" M 134.24 138.26 C 134.56 138.45 135.18 138.85 135.50 139.04 C 137.23 144.11 140.65 148.40 142.60 153.39 C 142.15 153.23 141.24 152.93 140.78 152.77 C 139.27 148.61 136.84 144.87 135.21 140.76 C 134.88 139.93 134.56 139.09 134.24 138.26 Z" />
</g>
<g id="#f4f4ffff">
<path fill="#f4f4ff" opacity="1.00" d=" M 41.76 73.21 C 43.92 73.42 46.08 73.62 48.24 73.84 C 46.59 75.32 44.63 76.35 42.61 77.24 C 42.02 77.23 40.84 77.21 40.25 77.19 C 40.76 75.87 41.26 74.54 41.76 73.21 Z" />
<path fill="#f4f4ff" opacity="1.00" d=" M 118.66 175.04 C 118.96 175.29 119.56 175.80 119.86 176.06 C 119.97 176.92 120.19 178.64 120.30 179.50 C 117.98 179.48 117.64 176.61 118.66 175.04 Z" />
<path fill="#f4f4ff" opacity="1.00" d=" M 61.40 186.06 C 59.82 181.41 64.34 178.45 67.94 176.85 C 69.00 178.58 68.89 180.57 68.64 182.50 C 66.09 183.39 63.63 184.52 61.40 186.06 Z" />
</g>
<g id="#ac8389ff">
<path fill="#ac8389" opacity="1.00" d=" M 39.09 78.98 C 44.52 78.57 48.57 74.41 52.86 71.53 C 52.84 74.93 51.29 78.11 48.82 80.39 C 45.85 81.36 42.56 80.77 39.51 80.39 L 39.09 78.98 Z" />
</g>
<g id="#9b7579ff">
<path fill="#9b7579" opacity="1.00" d=" M 37.85 77.38 C 40.21 76.43 39.02 80.13 37.55 78.22 L 37.85 77.38 Z" />
</g>
<g id="#c3b58fff">
<path fill="#c3b58f" opacity="1.00" d=" M 44.34 81.93 C 48.43 82.62 50.89 79.37 52.81 76.35 C 54.54 79.21 52.99 82.15 51.71 84.80 C 48.84 85.03 46.25 84.11 44.34 81.93 Z" />
</g>
<g id="#bd9661ff">
<path fill="#bd9661" opacity="1.00" d=" M 81.69 99.00 C 83.35 92.22 89.22 87.12 95.69 84.94 C 105.50 85.22 113.87 91.00 121.80 96.17 C 120.35 96.68 118.89 97.17 117.43 97.64 C 119.71 99.97 121.80 102.58 122.66 105.80 C 122.02 105.72 120.73 105.58 120.09 105.51 C 121.12 108.81 122.09 112.29 121.11 115.72 C 119.64 115.34 118.17 114.95 116.71 114.57 C 116.66 115.82 116.61 117.07 116.56 118.32 C 114.40 118.59 112.28 119.14 110.11 119.42 C 106.82 119.04 104.54 115.01 100.99 115.89 C 94.12 117.31 87.34 114.75 80.82 112.85 C 80.54 108.21 81.15 103.60 81.69 99.00 Z" />
</g>
<g id="#8f5e32ff">
<path fill="#8f5e32" opacity="1.00" d=" M 121.80 96.17 C 123.85 97.59 125.97 98.93 128.16 100.15 C 128.36 100.28 128.77 100.56 128.97 100.69 C 129.52 101.45 130.62 102.95 131.17 103.70 C 129.71 103.32 128.26 102.94 126.81 102.56 C 127.66 103.65 128.53 104.74 129.42 105.81 C 129.82 106.37 130.62 107.49 131.01 108.05 L 131.58 109.58 C 130.88 109.51 129.46 109.38 128.76 109.31 C 129.37 110.95 130.00 112.58 130.53 114.25 C 130.86 114.75 131.52 115.75 131.85 116.25 C 131.83 116.68 131.79 117.55 131.77 117.99 C 131.35 117.69 130.53 117.11 130.11 116.81 C 129.84 116.27 129.30 115.18 129.03 114.63 C 126.15 117.23 123.44 120.36 119.61 121.53 C 116.12 122.53 112.53 123.07 109.02 123.92 C 104.46 125.11 99.71 124.57 95.09 125.19 C 91.86 125.62 88.59 125.65 85.36 125.24 C 84.95 126.55 84.55 127.87 84.14 129.19 C 82.40 123.90 80.64 118.50 80.82 112.85 C 87.34 114.75 94.12 117.31 100.99 115.89 C 104.54 115.01 106.82 119.04 110.11 119.42 C 112.28 119.14 114.40 118.59 116.56 118.32 C 116.61 117.07 116.66 115.82 116.71 114.57 C 118.17 114.95 119.64 115.34 121.11 115.72 C 122.09 112.29 121.12 108.81 120.09 105.51 C 120.73 105.58 122.02 105.72 122.66 105.80 C 121.80 102.58 119.71 99.97 117.43 97.64 C 118.89 97.17 120.35 96.68 121.80 96.17 Z" />
</g>
<g id="#e0d1a2ff">
<path fill="#e0d1a2" opacity="1.00" d=" M 73.18 102.95 C 75.27 105.60 79.80 107.09 79.42 111.00 C 79.25 115.99 79.73 120.99 81.26 125.75 C 80.59 127.69 79.99 129.66 79.44 131.63 C 79.15 131.50 78.57 131.25 78.29 131.12 C 78.60 125.93 78.20 120.74 77.91 115.56 C 78.10 113.47 78.87 111.20 77.84 109.22 C 76.94 107.72 75.40 106.79 74.10 105.69 C 72.39 109.57 69.69 112.89 67.78 116.65 C 66.14 121.49 66.15 126.67 65.03 131.63 C 64.82 130.55 64.60 129.47 64.36 128.40 C 64.81 124.28 65.22 120.13 66.28 116.11 C 67.39 111.20 70.47 107.09 73.18 102.95 Z" />
</g>
<g id="#bb9461ff">
<path fill="#bb9461" opacity="1.00" d=" M 158.27 104.09 C 160.71 103.42 163.30 103.75 165.80 103.61 L 166.14 103.60 L 166.55 103.85 C 171.70 106.66 177.03 109.12 182.03 112.23 C 182.24 112.40 182.64 112.74 182.84 112.91 L 183.80 113.97 C 181.12 114.37 178.53 115.20 175.96 116.04 C 171.82 113.22 166.90 116.56 162.58 117.40 C 157.19 115.94 151.39 116.03 146.37 113.31 C 148.61 111.44 150.89 109.59 152.82 107.39 C 153.02 107.38 153.41 107.34 153.61 107.33 C 155.12 106.19 156.57 104.94 158.27 104.09 Z" />
</g>
<g id="#221a11c2">
<path fill="#221a11" opacity="0.76" d=" M 166.55 103.85 C 169.92 103.78 172.76 105.86 175.65 107.32 C 177.90 108.75 180.63 109.81 182.03 112.23 C 177.03 109.12 171.70 106.66 166.55 103.85 Z" />
</g>
<g id="#c3b68eff">
<path fill="#c3b68e" opacity="1.00" d=" M 74.10 105.69 C 75.40 106.79 76.94 107.72 77.84 109.22 C 78.87 111.20 78.10 113.47 77.91 115.56 C 77.43 115.64 76.49 115.82 76.01 115.90 C 77.04 121.36 77.01 126.93 76.82 132.46 C 73.50 129.23 74.64 124.12 72.04 120.56 C 72.05 126.56 73.20 132.53 72.61 138.54 C 71.82 139.40 71.04 140.26 70.26 141.13 C 68.15 138.21 65.49 135.36 65.03 131.63 C 66.15 126.67 66.14 121.49 67.78 116.65 C 69.69 112.89 72.39 109.57 74.10 105.69 Z" />
</g>
<g id="#916034ff">
<path fill="#916034" opacity="1.00" d=" M 145.05 114.50 C 145.48 114.09 145.92 113.70 146.37 113.31 C 151.39 116.03 157.19 115.94 162.58 117.40 C 158.50 118.93 154.43 120.49 150.45 122.25 C 150.44 121.82 150.42 120.95 150.41 120.52 C 148.50 118.62 146.74 116.59 145.05 114.50 Z" />
</g>
<g id="#794f2eff">
<path fill="#794f2e" opacity="1.00" d=" M 130.53 114.25 C 130.86 114.75 131.52 115.75 131.85 116.25 C 131.52 115.75 130.86 114.75 130.53 114.25 Z" />
<path fill="#794f2e" opacity="1.00" d=" M 119.61 121.53 C 123.44 120.36 126.15 117.23 129.03 114.63 C 129.30 115.18 129.84 116.27 130.11 116.81 C 131.18 120.07 131.05 123.54 130.09 126.81 C 128.42 125.96 126.73 125.18 125.01 124.44 C 125.15 126.31 125.38 128.18 125.35 130.06 C 124.48 131.19 122.85 131.27 121.62 131.84 C 119.92 130.65 118.13 129.58 116.29 128.61 C 116.22 129.60 116.07 131.57 116.00 132.56 C 113.35 130.38 110.90 127.84 107.69 126.49 C 109.31 131.27 111.81 135.68 114.15 140.13 C 113.76 140.44 112.98 141.07 112.58 141.38 C 112.76 142.30 112.94 143.23 113.11 144.15 C 110.24 145.06 107.35 144.22 104.61 143.31 C 104.24 143.84 103.51 144.90 103.15 145.43 C 100.98 143.71 98.66 142.20 96.25 140.87 C 96.63 142.79 97.02 144.72 97.38 146.65 C 91.06 142.65 86.28 136.35 84.14 129.19 C 84.55 127.87 84.95 126.55 85.36 125.24 C 88.59 125.65 91.86 125.62 95.09 125.19 C 99.71 124.57 104.46 125.11 109.02 123.92 C 112.53 123.07 116.12 122.53 119.61 121.53 Z" />
</g>
<g id="#7b502fff">
<path fill="#7b502f" opacity="1.00" d=" M 141.43 114.02 C 141.86 113.84 142.71 113.48 143.14 113.30 C 141.31 115.93 139.34 118.50 136.85 120.56 C 134.95 117.01 139.41 115.87 141.43 114.02 Z" />
</g>
<g id="#996737ff">
<path fill="#996737" opacity="1.00" d=" M 175.96 116.04 C 178.53 115.20 181.12 114.37 183.80 113.97 C 184.33 114.56 184.85 115.16 185.37 115.77 C 182.32 117.12 178.63 119.33 175.96 116.04 Z" />
</g>
<g id="#7a502eff">
<path fill="#7a502e" opacity="1.00" d=" M 138.33 122.01 C 140.05 119.10 142.68 116.87 145.05 114.50 C 146.74 116.59 148.50 118.62 150.41 120.52 C 150.42 120.95 150.44 121.82 150.45 122.25 C 146.95 123.97 143.71 126.12 140.34 128.06 C 139.61 126.06 138.73 124.10 138.33 122.01 Z" />
</g>
<g id="#514937ff">
<path fill="#514937" opacity="1.00" d=" M 76.01 115.90 C 76.49 115.82 77.43 115.64 77.91 115.56 C 78.20 120.74 78.60 125.93 78.29 131.12 C 77.88 132.47 77.39 133.80 76.86 135.11 C 75.93 134.02 75.00 132.94 74.07 131.86 C 74.01 134.56 74.14 137.29 73.68 139.97 C 73.13 141.54 71.43 142.26 70.26 143.30 C 69.13 141.95 68.00 140.60 66.86 139.25 C 66.94 140.25 67.09 142.24 67.16 143.23 C 63.10 145.62 57.52 145.78 54.24 142.00 C 54.03 142.52 53.62 143.57 53.41 144.10 C 51.28 143.14 49.95 141.06 48.24 139.54 C 47.44 135.99 46.98 132.37 46.59 128.75 C 46.60 126.12 45.74 123.12 47.40 120.80 C 48.07 127.72 48.51 135.13 52.46 141.10 C 51.85 137.22 51.13 133.32 51.33 129.37 C 52.68 131.93 53.41 134.73 54.12 137.51 C 54.75 142.85 61.78 145.08 65.86 142.12 C 64.53 137.58 63.52 132.96 62.43 128.36 C 62.11 126.67 61.86 124.98 61.69 123.27 C 63.15 124.65 63.93 126.47 64.36 128.40 C 64.60 129.47 64.82 130.55 65.03 131.63 C 65.49 135.36 68.15 138.21 70.26 141.13 C 71.04 140.26 71.82 139.40 72.61 138.54 C 73.20 132.53 72.05 126.56 72.04 120.56 C 74.64 124.12 73.50 129.23 76.82 132.46 C 77.01 126.93 77.04 121.36 76.01 115.90 Z" />
</g>
<g id="#a47644ff">
<path fill="#a47644" opacity="1.00" d=" M 162.96 118.99 C 166.02 117.99 169.10 117.03 172.11 115.91 C 174.62 117.13 176.99 118.60 179.42 119.96 L 180.49 120.53 L 180.80 120.86 C 182.28 122.45 183.77 124.04 185.22 125.67 C 181.54 126.97 177.87 128.36 174.09 129.34 C 170.99 128.06 167.80 126.89 164.40 126.87 C 164.40 124.76 164.41 122.66 164.42 120.55 C 164.06 120.16 163.33 119.38 162.96 118.99 Z" />
</g>
<g id="#c5b78eff">
<path fill="#c5b78e" opacity="1.00" d=" M 132.04 119.86 C 132.81 119.68 134.35 119.32 135.12 119.14 C 136.92 123.16 138.60 127.23 140.01 131.39 C 139.64 131.91 138.92 132.95 138.55 133.47 C 137.81 131.60 137.07 129.74 136.28 127.90 C 136.52 129.15 136.77 130.39 137.10 131.63 C 136.58 131.96 135.53 132.63 135.01 132.97 C 135.23 134.99 135.38 137.01 135.50 139.04 C 135.18 138.85 134.56 138.45 134.24 138.26 C 134.56 139.09 134.88 139.93 135.21 140.76 C 133.83 141.15 132.44 141.53 131.06 141.92 C 129.79 141.30 128.52 140.68 127.25 140.06 C 128.16 142.26 129.11 144.46 130.05 146.65 C 126.32 147.04 123.22 144.94 120.35 142.88 C 120.36 144.47 120.37 146.08 120.38 147.68 C 122.27 149.17 124.12 150.72 125.95 152.28 L 124.91 151.90 C 127.82 155.84 132.15 158.26 135.66 161.59 C 127.68 160.34 120.02 157.57 112.62 154.42 C 107.11 151.78 101.08 149.17 97.63 143.83 C 100.79 145.35 103.77 147.18 106.95 148.66 C 106.31 147.39 105.67 146.14 105.01 144.89 C 107.06 145.47 109.11 146.01 111.17 146.54 C 112.23 145.96 113.29 145.38 114.35 144.81 C 114.99 143.83 115.64 142.86 116.29 141.90 C 114.68 137.68 112.30 133.82 110.48 129.70 C 113.13 131.80 115.66 134.05 118.52 135.89 C 118.28 134.21 118.03 132.54 117.79 130.87 C 119.55 132.09 121.29 133.33 123.03 134.59 C 124.10 133.72 125.23 132.91 126.24 131.97 C 126.81 130.35 126.50 128.55 126.63 126.86 C 128.28 127.50 129.94 128.14 131.60 128.77 C 131.45 126.94 131.75 125.16 133.38 124.05 C 132.94 122.65 132.49 121.25 132.04 119.86 Z" />
</g>
<g id="#7b512eff">
<path fill="#7b512e" opacity="1.00" d=" M 140.99 129.40 C 147.90 125.13 155.25 121.57 162.96 118.99 C 163.33 119.38 164.06 120.16 164.42 120.55 C 164.41 122.66 164.40 124.76 164.40 126.87 C 167.80 126.89 170.99 128.06 174.09 129.34 C 163.66 131.71 152.88 133.20 142.17 132.39 C 141.77 131.39 141.38 130.40 140.99 129.40 Z" />
</g>
<g id="#c2b58eff">
<path fill="#c2b58e" opacity="1.00" d=" M 81.26 125.75 C 83.25 132.36 86.29 138.86 91.40 143.66 C 93.82 145.85 96.30 148.85 99.90 148.65 C 105.06 152.24 110.69 155.05 116.43 157.57 C 118.31 158.41 115.42 159.36 114.62 159.64 C 102.19 163.92 88.12 164.79 75.59 160.43 C 79.32 157.82 83.90 160.05 88.05 159.81 C 81.47 156.08 74.83 152.47 68.58 148.20 C 68.48 149.95 67.73 151.49 66.54 152.75 C 63.52 150.75 60.43 148.86 57.29 147.06 C 56.34 148.07 55.30 148.99 54.16 149.79 L 53.98 149.93 C 53.40 148.34 51.99 147.24 50.35 146.91 L 49.43 146.63 L 49.18 145.93 C 48.84 144.94 48.15 144.26 47.11 143.91 C 46.57 143.34 45.49 142.19 44.95 141.62 C 46.06 141.76 48.27 142.02 49.38 142.16 C 46.25 140.84 45.02 137.75 44.19 134.71 C 44.18 136.62 44.16 138.54 44.13 140.45 C 42.03 139.63 39.95 138.78 37.88 137.91 C 37.40 136.02 36.91 134.13 36.54 132.22 C 37.42 131.51 38.31 130.80 39.20 130.10 C 40.17 131.70 41.14 133.30 42.11 134.90 C 42.57 133.45 43.03 132.01 43.49 130.57 C 44.35 130.61 45.20 130.65 46.06 130.67 C 46.19 130.19 46.46 129.23 46.59 128.75 C 46.98 132.37 47.44 135.99 48.24 139.54 C 49.95 141.06 51.28 143.14 53.41 144.10 C 53.62 143.57 54.03 142.52 54.24 142.00 C 57.52 145.78 63.10 145.62 67.16 143.23 C 67.09 142.24 66.94 140.25 66.86 139.25 C 68.00 140.60 69.13 141.95 70.26 143.30 C 71.43 142.26 73.13 141.54 73.68 139.97 C 74.14 137.29 74.01 134.56 74.07 131.86 C 75.00 132.94 75.93 134.02 76.86 135.11 C 77.39 133.80 77.88 132.47 78.29 131.12 C 78.57 131.25 79.15 131.50 79.44 131.63 C 79.99 129.66 80.59 127.69 81.26 125.75 Z" />
</g>
<g id="#c5b68eff">
<path fill="#c5b68e" opacity="1.00" d=" M 59.09 127.32 C 60.21 127.67 61.32 128.02 62.43 128.36 C 63.52 132.96 64.53 137.58 65.86 142.12 C 61.78 145.08 54.75 142.85 54.12 137.51 C 56.25 134.83 55.84 131.30 55.96 128.10 C 56.75 128.63 57.55 129.16 58.35 129.70 C 58.53 129.10 58.91 127.92 59.09 127.32 Z" />
</g>
<g id="#15120f9f">
<path fill="#15120f" opacity="0.62" d=" M 47.11 143.91 C 48.15 144.26 48.84 144.94 49.18 145.93 C 47.48 146.31 46.79 145.63 47.11 143.91 Z" />
</g>
<g id="#27241cc8">
<path fill="#27241c" opacity="0.78" d=" M 50.35 146.91 C 51.99 147.24 53.40 148.34 53.98 149.93 C 52.40 150.50 49.71 148.64 50.35 146.91 Z" />
</g>
<g id="#d8cb9eff">
<path fill="#d8cb9e" opacity="1.00" d=" M 54.16 149.79 C 55.30 148.99 56.34 148.07 57.29 147.06 C 60.43 148.86 63.52 150.75 66.54 152.75 C 67.73 151.49 68.48 149.95 68.58 148.20 C 74.83 152.47 81.47 156.08 88.05 159.81 C 83.90 160.05 79.32 157.82 75.59 160.43 C 67.88 158.11 61.07 153.77 54.16 149.79 Z" />
</g>
<g id="#493739ff">
<path fill="#493739" opacity="1.00" d=" M 64.01 167.72 C 66.35 167.71 68.29 166.20 70.41 165.41 L 69.76 166.00 C 68.40 167.11 66.96 168.12 65.50 169.11 C 67.41 168.73 69.33 168.39 71.27 168.14 C 68.46 170.16 64.94 170.30 61.62 170.62 C 59.69 170.59 57.76 170.65 55.83 170.78 C 57.48 171.74 59.35 172.53 60.34 174.27 C 60.60 175.23 60.84 176.20 61.07 177.17 C 62.36 177.10 63.65 177.02 64.95 176.95 C 67.42 172.61 72.77 174.23 76.74 172.63 C 78.49 171.93 80.33 172.21 82.12 172.57 C 80.72 172.57 79.17 172.40 78.00 173.32 C 77.85 173.71 77.56 174.47 77.41 174.85 C 74.42 175.31 71.39 175.26 68.38 175.00 C 69.03 176.27 69.69 177.54 70.30 178.83 C 70.31 180.00 70.30 181.18 70.29 182.36 C 72.17 182.15 74.06 181.96 75.95 181.79 C 77.26 180.50 78.58 179.22 79.92 177.97 C 85.27 178.48 90.64 177.20 94.73 173.61 C 93.48 175.68 91.75 177.38 89.94 178.95 C 86.33 179.95 82.57 179.51 78.91 180.13 C 80.57 181.06 82.99 181.21 84.00 183.07 C 84.77 184.46 84.39 186.12 84.53 187.64 C 84.76 187.59 85.21 187.51 85.44 187.47 C 90.10 187.43 93.66 184.54 96.98 181.63 C 95.75 184.91 92.58 187.46 89.05 187.71 C 86.20 188.01 83.70 189.88 80.77 189.59 C 77.91 189.50 75.98 192.11 73.39 193.00 C 72.39 189.06 74.28 185.46 76.81 182.58 C 73.08 181.89 70.06 184.70 66.39 184.30 C 64.28 184.95 62.46 186.40 60.29 186.98 C 59.74 183.69 60.54 180.46 63.18 178.27 C 60.43 178.93 57.67 179.56 54.85 179.91 C 56.15 178.89 57.58 178.06 59.03 177.28 C 59.05 175.06 57.91 173.33 56.10 172.13 C 53.88 174.86 51.39 177.79 51.90 181.59 C 52.40 181.34 53.40 180.84 53.90 180.59 C 54.16 182.17 52.48 182.22 51.56 182.80 C 50.43 180.64 50.60 178.28 51.83 176.18 C 49.27 176.95 46.69 177.68 43.99 177.46 C 41.99 178.06 40.14 179.07 38.21 179.84 C 37.58 174.89 42.42 172.25 44.89 168.71 C 47.79 167.93 51.08 168.40 54.02 167.31 C 57.32 166.13 60.64 167.96 64.01 167.72 M 45.32 169.02 C 46.37 170.12 47.42 171.21 48.47 172.31 C 48.60 173.55 48.73 174.79 48.85 176.03 C 49.90 175.75 50.95 175.48 52.01 175.21 C 52.63 173.74 53.23 172.26 53.81 170.77 C 56.10 169.38 58.61 168.52 61.30 168.38 C 55.94 167.00 50.73 169.78 45.32 169.02 M 38.86 178.40 C 41.54 177.45 44.21 176.46 46.97 175.75 C 47.10 173.94 46.78 172.20 45.77 170.68 C 42.25 171.90 40.09 175.04 38.86 178.40 M 61.40 186.06 C 63.63 184.52 66.09 183.39 68.64 182.50 C 68.89 180.57 69.00 178.58 67.94 176.85 C 64.34 178.45 59.82 181.41 61.40 186.06 M 74.09 192.01 C 76.62 190.17 79.25 188.25 82.48 187.90 C 83.23 185.43 82.72 182.75 80.15 181.66 C 76.36 183.74 73.43 187.42 74.09 192.01 Z" />
</g>
<g id="#cc9da6ff">
<path fill="#cc9da6" opacity="1.00" d=" M 45.32 169.02 C 50.73 169.78 55.94 167.00 61.30 168.38 C 58.61 168.52 56.10 169.38 53.81 170.77 C 52.06 171.38 50.26 171.84 48.47 172.31 C 47.42 171.21 46.37 170.12 45.32 169.02 Z" />
</g>
<g id="#e8e9f2ff">
<path fill="#e8e9f2" opacity="1.00" d=" M 38.86 178.40 C 40.09 175.04 42.25 171.90 45.77 170.68 C 46.78 172.20 47.10 173.94 46.97 175.75 C 44.21 176.46 41.54 177.45 38.86 178.40 Z" />
</g>
<g id="#9b7679ff">
<path fill="#9b7679" opacity="1.00" d=" M 48.47 172.31 C 50.26 171.84 52.06 171.38 53.81 170.77 C 53.23 172.26 52.63 173.74 52.01 175.21 C 50.95 175.48 49.90 175.75 48.85 176.03 C 48.73 174.79 48.60 173.55 48.47 172.31 Z" />
</g>
<g id="#e9ebf3ff">
<path fill="#e9ebf3" opacity="1.00" d=" M 51.90 181.59 C 51.39 177.79 53.88 174.86 56.10 172.13 C 57.91 173.33 59.05 175.06 59.03 177.28 C 57.58 178.06 56.15 178.89 54.85 179.91 C 54.62 180.08 54.14 180.42 53.90 180.59 C 53.40 180.84 52.40 181.34 51.90 181.59 Z" />
</g>
<g id="#e8c6cdff">
<path fill="#e8c6cd" opacity="1.00" d=" M 68.38 175.00 C 71.39 175.26 74.42 175.31 77.41 174.85 C 78.09 174.80 79.43 174.69 80.10 174.63 C 77.49 177.14 74.11 178.52 71.09 180.44 C 70.89 180.04 70.49 179.23 70.30 178.83 C 69.69 177.54 69.03 176.27 68.38 175.00 Z" />
</g>
<g id="#ddbcc2ff">
<path fill="#ddbcc2" opacity="1.00" d=" M 78.91 180.13 C 82.57 179.51 86.33 179.95 89.94 178.95 L 92.00 178.54 C 91.23 179.79 90.94 181.54 89.50 182.27 C 87.67 183.63 84.48 184.55 85.44 187.47 C 85.21 187.51 84.76 187.59 84.53 187.64 C 84.39 186.12 84.77 184.46 84.00 183.07 C 82.99 181.21 80.57 181.06 78.91 180.13 Z" />
</g>
</svg>
