<?xml version="1.0" encoding="UTF-8" ?>
<!DOCTYPE svg PUBLIC "-//W3C//DTD SVG 1.1//EN" "http://www.w3.org/Graphics/SVG/1.1/DTD/svg11.dtd">
<svg width="215pt" height="215pt" viewBox="0 0 215 215" version="1.1" xmlns="http://www.w3.org/2000/svg">
<g id="#02010274">
<path fill="#020102" opacity="0.45" d=" M 137.17 33.02 C 134.20 32.87 130.65 33.99 128.16 31.87 C 131.12 32.17 134.44 31.51 137.17 33.02 Z" />
</g>
<g id="#b7a3c1ff">
<path fill="#b7a3c1" opacity="1.00" d=" M 123.92 36.93 C 125.78 33.85 129.72 33.10 133.03 33.76 L 133.71 33.86 C 131.47 35.65 130.46 38.40 128.80 40.65 C 127.24 42.60 127.95 45.27 127.76 47.57 C 127.13 47.12 126.50 46.67 125.87 46.22 C 125.15 46.81 124.44 47.40 123.72 47.99 C 123.46 47.51 122.92 46.54 122.66 46.06 C 122.26 43.03 121.62 39.38 123.92 36.93 Z" />
</g>
<g id="#a185adff">
<path fill="#a185ad" opacity="1.00" d=" M 133.03 33.76 L 132.48 33.66 C 134.32 33.67 136.16 33.74 137.99 33.87 L 138.43 34.12 C 141.46 35.96 144.88 36.93 148.15 38.20 C 148.53 38.36 149.30 38.67 149.68 38.83 C 150.34 40.53 152.10 41.33 153.62 42.11 C 153.91 42.26 154.51 42.57 154.81 42.73 C 155.12 43.87 155.87 44.68 157.04 45.16 C 157.23 45.35 157.60 45.73 157.79 45.92 C 158.23 47.05 159.00 47.77 160.11 48.09 C 160.26 48.34 160.58 48.83 160.74 49.07 C 163.35 52.97 166.45 56.53 168.98 60.50 C 169.17 60.89 169.56 61.66 169.75 62.05 C 172.43 69.35 175.48 76.62 176.58 84.37 C 175.39 84.37 174.21 84.38 173.03 84.39 C 171.91 80.45 170.65 76.50 168.57 72.95 C 168.48 72.72 168.31 72.26 168.22 72.04 C 167.33 68.47 165.33 65.33 162.84 62.67 C 162.72 62.51 162.48 62.18 162.36 62.01 C 159.68 57.30 154.77 54.60 150.37 51.73 C 147.73 50.28 147.14 46.99 144.98 45.04 C 142.57 42.83 139.50 40.42 136.01 41.05 C 133.92 42.03 133.99 44.45 134.00 46.42 C 134.42 45.29 134.84 44.16 135.25 43.03 C 136.52 42.89 137.79 42.77 139.07 42.67 C 138.59 43.32 138.12 43.97 137.64 44.62 C 137.75 46.53 138.46 48.61 137.49 50.41 C 136.08 53.65 132.01 53.86 129.20 55.25 C 126.83 53.29 125.10 50.72 123.72 47.99 C 124.44 47.40 125.15 46.81 125.87 46.22 C 126.50 46.67 127.13 47.12 127.76 47.57 C 127.95 45.27 127.24 42.60 128.80 40.65 C 130.46 38.40 131.47 35.65 133.71 33.86 L 133.03 33.76 Z" />
</g>
<g id="#1e1820cc">
<path fill="#1e1820" opacity="0.80" d=" M 138.43 34.12 C 140.51 33.47 142.42 35.01 144.34 35.59 C 145.65 36.32 147.67 36.51 148.15 38.20 C 144.88 36.93 141.46 35.96 138.43 34.12 Z" />
</g>
<g id="#251e27e2">
<path fill="#251e27" opacity="0.89" d=" M 149.68 38.83 C 151.31 38.48 154.31 40.26 153.62 42.11 C 152.10 41.33 150.34 40.53 149.68 38.83 Z" />
</g>
<g id="#2d242fdf">
<path fill="#2d242f" opacity="0.87" d=" M 134.00 46.42 C 133.99 44.45 133.92 42.03 136.01 41.05 C 139.50 40.42 142.57 42.83 144.98 45.04 C 147.14 46.99 147.73 50.28 150.37 51.73 C 154.77 54.60 159.68 57.30 162.36 62.01 L 161.36 61.95 C 158.13 57.68 153.50 54.66 148.75 52.32 C 148.30 55.15 147.05 58.31 143.95 59.04 C 145.71 57.15 148.23 54.90 147.23 52.01 C 146.59 47.62 143.05 44.27 139.07 42.67 C 137.79 42.77 136.52 42.89 135.25 43.03 C 134.84 44.16 134.42 45.29 134.00 46.42 Z" />
</g>
<g id="#886c8cff">
<path fill="#886c8c" opacity="1.00" d=" M 139.07 42.67 C 143.05 44.27 146.59 47.62 147.23 52.01 C 148.23 54.90 145.71 57.15 143.95 59.04 L 143.66 59.35 C 138.55 59.61 133.09 58.90 129.20 55.25 C 132.01 53.86 136.08 53.65 137.49 50.41 C 138.46 48.61 137.75 46.53 137.64 44.62 C 138.12 43.97 138.59 43.32 139.07 42.67 Z" />
<path fill="#886c8c" opacity="1.00" d=" M 69.20 70.63 C 72.01 70.02 74.17 68.06 76.74 66.91 L 77.13 67.50 C 79.97 71.10 81.66 75.40 81.45 80.03 C 78.44 80.64 75.44 81.31 72.46 82.09 C 72.45 78.05 71.23 74.10 69.20 70.63 Z" />
<path fill="#886c8c" opacity="1.00" d=" M 177.03 132.59 C 178.66 136.18 180.17 140.04 183.38 142.55 C 183.41 142.59 183.48 142.67 183.52 142.70 C 185.26 145.47 188.57 146.28 191.00 148.21 C 192.56 150.32 191.85 153.06 191.69 155.46 C 191.25 158.37 191.36 161.48 189.88 164.13 C 189.80 163.34 189.62 161.77 189.53 160.99 C 189.50 161.62 189.43 162.87 189.39 163.50 C 186.54 163.62 183.73 164.06 180.92 164.52 C 178.92 164.78 177.41 163.41 175.94 162.28 C 176.53 160.63 177.10 158.96 177.66 157.30 C 171.15 156.48 165.07 153.43 160.69 148.52 L 160.93 148.01 C 163.78 147.63 167.06 148.54 169.40 146.41 C 174.16 143.28 174.46 137.19 177.03 132.59 M 179.89 157.74 C 183.15 157.70 186.94 157.28 188.28 153.77 C 185.19 154.15 182.41 155.98 179.89 157.74 Z" />
<path fill="#886c8c" opacity="1.00" d=" M 97.78 157.92 C 98.45 156.44 99.04 154.85 100.40 153.86 C 101.03 157.46 100.20 161.64 102.15 164.84 C 107.60 166.22 112.65 162.64 117.29 160.26 C 118.22 159.62 119.35 159.92 120.39 159.93 C 118.80 162.26 116.97 164.45 115.69 166.98 L 115.43 167.45 L 115.06 167.71 C 112.55 169.25 110.39 171.30 108.61 173.64 C 108.48 173.80 108.21 174.12 108.08 174.28 C 107.82 174.38 107.29 174.60 107.02 174.70 C 106.46 174.93 105.34 175.40 104.77 175.63 C 104.67 174.31 104.56 172.99 104.46 171.68 C 102.93 170.79 101.41 169.88 99.97 168.86 C 98.40 167.18 96.15 167.27 94.18 168.15 C 95.12 164.65 96.43 161.27 97.78 157.92 Z" />
</g>
<g id="#141015b4">
<path fill="#141015" opacity="0.71" d=" M 154.81 42.73 C 156.46 42.71 157.21 43.52 157.04 45.16 C 155.87 44.68 155.12 43.87 154.81 42.73 Z" />
</g>
<g id="#161217ad">
<path fill="#161217" opacity="0.68" d=" M 157.79 45.92 C 159.44 45.69 160.22 46.42 160.11 48.09 C 159.00 47.77 158.23 47.05 157.79 45.92 Z" />
</g>
<g id="#1d171eb4">
<path fill="#1d171e" opacity="0.71" d=" M 122.66 46.06 C 122.92 46.54 123.46 47.51 123.72 47.99 C 125.10 50.72 126.83 53.29 129.20 55.25 C 133.09 58.90 138.55 59.61 143.66 59.35 C 134.69 62.91 123.92 55.14 122.66 46.06 Z" />
</g>
<g id="#1d181fb2">
<path fill="#1d181f" opacity="0.70" d=" M 160.74 49.07 C 164.56 51.55 167.69 56.08 168.98 60.50 C 166.45 56.53 163.35 52.97 160.74 49.07 Z" />
</g>
<g id="#211a23ad">
<path fill="#211a23" opacity="0.68" d=" M 169.75 62.05 C 171.39 62.90 171.62 64.96 172.39 66.46 C 176.75 77.09 179.11 88.55 178.70 100.05 C 178.57 100.62 178.32 101.75 178.20 102.32 C 178.04 98.51 178.03 94.68 177.56 90.89 C 177.27 88.71 176.90 86.54 176.58 84.37 C 175.48 76.62 172.43 69.35 169.75 62.05 Z" />
</g>
<g id="#2a222dc6">
<path fill="#2a222d" opacity="0.78" d=" M 162.84 62.67 C 165.33 65.33 167.33 68.47 168.22 72.04 C 165.78 69.50 164.33 65.89 162.84 62.67 Z" />
</g>
<g id="#a084acff">
<path fill="#a084ac" opacity="1.00" d=" M 63.23 69.97 C 63.89 67.75 65.49 66.01 66.82 64.18 C 70.20 64.47 73.90 65.47 76.74 66.91 C 74.17 68.06 72.01 70.02 69.20 70.63 C 68.45 69.75 67.68 68.89 66.90 68.03 C 62.82 74.67 60.62 82.45 61.92 90.25 C 60.69 89.99 60.06 89.24 60.04 88.01 C 59.00 81.77 60.97 75.68 63.23 69.97 Z" />
</g>
<g id="#3e333aea">
<path fill="#3e333a" opacity="0.92" d=" M 66.90 68.03 C 67.68 68.89 68.45 69.75 69.20 70.63 C 71.23 74.10 72.45 78.05 72.46 82.09 C 75.44 81.31 78.44 80.64 81.45 80.03 L 81.53 80.84 C 83.77 81.09 86.03 81.28 88.27 81.66 C 83.54 81.92 78.63 81.33 74.12 83.10 C 68.27 85.10 63.91 89.64 59.26 93.48 C 59.87 89.35 58.01 85.28 58.88 81.11 C 59.66 77.27 60.19 72.71 63.23 69.97 C 60.97 75.68 59.00 81.77 60.04 88.01 C 60.06 89.24 60.69 89.99 61.92 90.25 C 60.62 82.45 62.82 74.67 66.90 68.03 M 63.73 78.83 C 63.36 81.91 63.00 85.02 63.24 88.13 C 65.30 86.77 67.28 85.28 69.31 83.86 L 69.64 84.03 C 70.01 83.48 70.76 82.38 71.13 81.83 C 71.00 77.91 69.75 74.10 67.81 70.72 C 65.25 72.60 64.93 76.08 63.73 78.83 Z" />
</g>
<g id="#1d171ea8">
<path fill="#1d171e" opacity="0.66" d=" M 77.13 67.50 L 77.73 67.63 C 82.12 70.23 82.14 76.02 82.42 80.54 C 89.21 80.71 97.36 80.88 102.29 86.20 C 97.93 83.82 93.22 82.20 88.27 81.66 C 86.03 81.28 83.77 81.09 81.53 80.84 L 81.45 80.03 C 81.66 75.40 79.97 71.10 77.13 67.50 Z" />
</g>
<g id="#b89e7fff">
<path fill="#b89e7f" opacity="1.00" d=" M 63.73 78.83 C 64.93 76.08 65.25 72.60 67.81 70.72 C 69.75 74.10 71.00 77.91 71.13 81.83 C 70.76 82.38 70.01 83.48 69.64 84.03 L 69.31 83.86 C 66.87 82.89 64.77 81.30 63.73 78.83 Z" />
</g>
<g id="#2e2530d1">
<path fill="#2e2530" opacity="0.82" d=" M 168.35 73.84 L 168.57 72.95 C 170.65 76.50 171.91 80.45 173.03 84.39 C 174.85 92.14 173.97 100.31 171.78 107.89 C 170.76 110.29 173.26 112.22 174.13 114.22 C 176.94 106.82 178.36 98.81 177.56 90.89 C 178.03 94.68 178.04 98.51 178.20 102.32 C 177.84 107.09 175.57 111.42 174.61 116.05 C 176.63 122.43 176.55 129.36 179.49 135.47 C 180.43 138.03 182.55 139.94 183.38 142.55 C 180.17 140.04 178.66 136.18 177.03 132.59 C 175.60 127.32 175.64 121.71 173.66 116.57 C 172.65 113.51 170.74 110.90 168.99 108.24 C 169.47 108.23 170.42 108.20 170.89 108.19 C 172.82 101.41 173.26 94.30 172.47 87.31 C 171.63 82.67 169.86 78.28 168.35 73.84 Z" />
</g>
<g id="#29222bbd">
<path fill="#29222b" opacity="0.74" d=" M 118.67 77.94 C 123.39 76.20 129.21 74.20 133.81 77.27 C 138.00 85.61 138.68 95.84 135.77 104.70 C 135.25 101.42 136.46 98.23 136.51 94.97 C 136.52 91.90 136.11 88.85 135.65 85.83 C 135.19 83.28 134.39 80.80 133.55 78.35 C 127.42 74.33 119.71 78.32 113.91 81.28 C 114.44 79.16 116.98 78.80 118.67 77.94 Z" />
</g>
<g id="#b5a1c0ff">
<path fill="#b5a1c0" opacity="1.00" d=" M 113.91 81.28 C 119.71 78.32 127.42 74.33 133.55 78.35 C 129.80 80.08 126.00 81.73 122.57 84.06 C 121.88 84.37 121.20 84.69 120.52 85.02 C 116.42 82.67 112.70 85.81 109.29 87.85 C 108.91 87.43 108.16 86.60 107.79 86.18 L 107.37 85.75 L 108.63 85.11 C 110.39 84.30 111.82 82.97 113.28 81.72 C 113.44 81.61 113.75 81.39 113.91 81.28 Z" />
</g>
<g id="#d7bda0ff">
<path fill="#d7bda0" opacity="1.00" d=" M 63.73 78.83 C 64.77 81.30 66.87 82.89 69.31 83.86 C 67.28 85.28 65.30 86.77 63.24 88.13 C 63.00 85.02 63.36 81.91 63.73 78.83 Z" />
</g>
<g id="#9e82aaff">
<path fill="#9e82aa" opacity="1.00" d=" M 122.57 84.06 C 126.00 81.73 129.80 80.08 133.55 78.35 C 134.39 80.80 135.19 83.28 135.65 85.83 C 135.41 87.68 135.40 89.87 133.65 91.00 C 133.11 92.49 132.58 93.99 132.12 95.51 C 131.70 92.02 132.33 87.93 130.01 85.02 C 128.19 82.63 125.02 83.88 122.57 84.06 Z" />
<path fill="#9e82aa" opacity="1.00" d=" M 161.76 103.12 L 162.20 103.22 C 162.54 103.39 163.22 103.72 163.55 103.89 C 164.61 105.37 166.06 106.53 167.80 107.11 L 168.43 107.37 L 168.99 108.24 C 170.74 110.90 172.65 113.51 173.66 116.57 C 175.64 121.71 175.60 127.32 177.03 132.59 C 174.46 137.19 174.16 143.28 169.40 146.41 C 167.06 148.54 163.78 147.63 160.93 148.01 L 160.10 147.83 C 158.19 145.18 156.91 141.99 156.41 138.74 C 156.30 138.71 156.08 138.66 155.97 138.63 C 149.69 135.78 143.62 139.85 137.58 141.25 C 136.72 141.27 135.86 141.28 135.00 141.26 C 134.53 141.12 133.58 140.85 133.10 140.71 C 133.10 139.98 133.10 138.52 133.10 137.78 C 128.72 145.08 125.68 153.17 120.39 159.93 C 119.35 159.92 118.22 159.62 117.29 160.26 C 112.65 162.64 107.60 166.22 102.15 164.84 C 100.20 161.64 101.03 157.46 100.40 153.86 L 100.33 152.96 L 100.93 152.31 C 104.45 148.55 106.44 143.70 109.38 139.52 C 111.57 136.45 113.75 133.37 115.87 130.25 C 115.51 130.29 114.77 130.36 114.41 130.40 C 114.10 130.77 113.49 131.51 113.19 131.88 C 111.46 131.72 109.73 131.59 107.99 131.46 C 108.64 128.39 108.93 125.22 108.23 122.13 C 112.94 121.30 117.72 121.07 122.48 120.67 C 131.51 119.22 140.70 120.66 149.75 119.60 C 150.84 118.26 149.84 116.80 148.25 116.76 C 142.81 115.51 137.16 116.17 131.63 115.81 C 132.78 113.54 133.98 111.29 135.25 109.09 C 136.83 108.75 139.14 109.66 140.02 107.84 C 138.56 107.45 137.10 107.08 135.64 106.72 L 135.93 106.32 C 136.99 105.84 138.08 105.46 139.21 105.20 C 138.91 105.59 138.33 106.36 138.04 106.75 C 141.78 107.29 145.59 107.97 149.37 107.45 C 153.79 106.94 157.57 104.41 161.76 103.12 Z" />
</g>
<g id="#1f1921ba">
<path fill="#1f1921" opacity="0.73" d=" M 107.44 85.41 C 109.04 83.34 111.30 81.99 113.54 80.74 L 113.28 81.72 C 111.82 82.97 110.39 84.30 108.63 85.11 L 107.44 85.41 Z" />
</g>
<g id="#b8a3c2ff">
<path fill="#b8a3c2" opacity="1.00" d=" M 74.12 83.10 C 78.63 81.33 83.54 81.92 88.27 81.66 C 88.30 83.90 89.87 86.99 87.58 88.59 C 83.46 91.57 78.58 94.47 73.29 93.78 C 68.85 93.91 64.37 95.31 60.78 97.96 C 60.01 96.72 59.25 95.48 58.52 94.22 C 58.71 94.04 59.08 93.67 59.26 93.48 C 63.91 89.64 68.27 85.10 74.12 83.10 Z" />
</g>
<g id="#a285adff">
<path fill="#a285ad" opacity="1.00" d=" M 88.27 81.66 C 93.22 82.20 97.93 83.82 102.29 86.20 C 102.75 86.49 103.68 87.08 104.14 87.37 L 104.18 88.12 C 103.46 89.24 102.03 90.41 102.39 91.87 C 104.27 92.06 105.35 89.70 105.73 88.15 L 105.92 87.41 C 106.39 87.10 107.32 86.49 107.79 86.18 C 108.16 86.60 108.91 87.43 109.29 87.85 C 112.70 85.81 116.42 82.67 120.52 85.02 C 115.78 87.41 111.79 90.99 108.48 95.12 C 108.14 94.88 107.46 94.41 107.12 94.17 C 104.16 98.07 99.19 98.33 94.87 99.61 C 87.65 102.33 80.36 105.75 74.87 111.32 C 74.61 109.91 74.37 108.49 74.12 107.08 C 67.97 109.77 61.12 109.44 54.84 111.56 L 54.24 111.76 C 51.57 110.93 48.81 110.46 46.03 110.19 C 45.72 111.17 45.40 112.15 45.12 113.15 L 44.88 113.97 C 44.36 110.79 42.06 106.60 44.68 103.89 C 44.79 104.72 45.02 106.39 45.14 107.23 C 47.94 107.43 50.98 107.57 53.15 105.48 C 51.59 105.19 50.03 104.92 48.47 104.65 C 48.63 103.83 48.78 103.00 48.94 102.18 C 51.58 101.35 55.44 101.06 56.27 97.87 C 56.63 96.43 57.36 95.18 58.52 94.22 C 59.25 95.48 60.01 96.72 60.78 97.96 C 64.37 95.31 68.85 93.91 73.29 93.78 C 78.58 94.47 83.46 91.57 87.58 88.59 C 89.87 86.99 88.30 83.90 88.27 81.66 Z" />
<path fill="#a285ad" opacity="1.00" d=" M 35.03 129.51 C 38.79 127.94 42.60 126.33 46.68 125.82 C 46.77 128.50 46.82 131.18 46.98 133.86 C 45.68 133.86 44.37 133.90 43.07 133.96 C 41.03 132.79 38.99 131.63 36.88 130.59 C 36.36 130.35 35.33 129.85 34.81 129.60 L 35.03 129.51 Z" />
</g>
<g id="#4d3f44ff">
<path fill="#4d3f44" opacity="1.00" d=" M 122.57 84.06 C 125.02 83.88 128.19 82.63 130.01 85.02 C 132.33 87.93 131.70 92.02 132.12 95.51 C 131.03 101.51 131.40 108.90 125.98 112.95 C 121.12 113.85 116.21 112.14 111.90 109.98 C 111.71 104.93 112.06 99.18 108.48 95.12 C 111.79 90.99 115.78 87.41 120.52 85.02 C 121.20 84.69 121.88 84.37 122.57 84.06 M 110.65 95.09 C 111.35 96.40 111.97 97.75 112.55 99.11 C 113.15 102.36 113.22 105.67 112.96 108.95 C 116.71 110.95 120.98 111.80 125.19 112.09 C 125.83 111.29 126.49 110.52 127.07 109.68 C 130.36 104.22 130.56 97.37 130.24 91.15 C 129.99 88.81 129.98 85.13 126.99 84.63 C 120.43 85.81 114.86 90.08 110.65 95.09 Z" />
</g>
<g id="#896d8eff">
<path fill="#896d8e" opacity="1.00" d=" M 173.03 84.39 C 174.21 84.38 175.39 84.37 176.58 84.37 C 176.90 86.54 177.27 88.71 177.56 90.89 C 178.36 98.81 176.94 106.82 174.13 114.22 C 173.26 112.22 170.76 110.29 171.78 107.89 C 173.97 100.31 174.85 92.14 173.03 84.39 Z" />
</g>
<g id="#b79c7eff">
<path fill="#b79c7e" opacity="1.00" d=" M 110.65 95.09 C 114.86 90.08 120.43 85.81 126.99 84.63 C 129.98 85.13 129.99 88.81 130.24 91.15 C 130.56 97.37 130.36 104.22 127.07 109.68 C 126.00 105.34 126.66 99.18 121.91 96.95 C 118.69 96.76 115.64 98.34 112.55 99.11 C 111.97 97.75 111.35 96.40 110.65 95.09 Z" />
</g>
<g id="#8e7191ff">
<path fill="#8e7191" opacity="1.00" d=" M 135.65 85.83 C 136.11 88.85 136.52 91.90 136.51 94.97 C 136.46 98.23 135.25 101.42 135.77 104.70 C 135.81 105.10 135.89 105.91 135.93 106.32 L 135.64 106.72 C 135.49 106.82 135.19 107.00 135.04 107.09 L 134.32 105.84 C 133.27 109.31 131.67 112.60 129.44 115.48 C 126.68 115.76 123.14 114.52 121.06 116.92 C 121.03 116.92 120.98 116.92 120.96 116.92 C 120.24 114.70 117.74 115.82 116.10 115.50 C 112.80 115.49 109.91 113.58 106.75 112.89 C 107.83 113.92 108.94 114.93 110.06 115.91 C 105.88 116.02 101.77 116.79 97.70 117.70 C 96.90 117.14 96.10 116.59 95.30 116.03 C 97.90 111.08 100.03 105.32 97.97 99.77 C 97.20 99.73 95.64 99.65 94.87 99.61 C 99.19 98.33 104.16 98.07 107.12 94.17 C 107.46 94.41 108.14 94.88 108.48 95.12 C 112.06 99.18 111.71 104.93 111.90 109.98 C 116.21 112.14 121.12 113.85 125.98 112.95 C 131.40 108.90 131.03 101.51 132.12 95.51 C 132.58 93.99 133.11 92.49 133.65 91.00 C 135.40 89.87 135.41 87.68 135.65 85.83 Z" />
</g>
<g id="#000000b7">
<path fill="#000000" opacity="0.72" d=" M 104.14 87.37 C 104.58 87.38 105.48 87.40 105.92 87.41 L 105.73 88.15 C 105.34 88.14 104.57 88.13 104.18 88.12 L 104.14 87.37 Z" />
</g>
<g id="#272622d2">
<path fill="#272622" opacity="0.82" d=" M 38.23 87.99 C 39.64 87.79 42.28 88.82 42.41 90.37 C 41.98 90.44 41.11 90.58 40.67 90.65 C 39.48 90.54 38.12 89.22 38.23 87.99 Z" />
</g>
<g id="#3e3140ff">
<path fill="#3e3140" opacity="1.00" d=" M 104.18 88.12 C 104.57 88.13 105.34 88.14 105.73 88.15 C 105.35 89.70 104.27 92.06 102.39 91.87 C 102.03 90.41 103.46 89.24 104.18 88.12 Z" />
</g>
<g id="#f6e6ccff">
<path fill="#f6e6cc" opacity="1.00" d=" M 40.67 90.65 C 41.11 90.58 41.98 90.44 42.41 90.37 L 43.24 90.25 L 43.67 91.11 C 44.62 92.96 46.71 93.95 48.65 94.44 C 48.82 94.46 49.16 94.50 49.33 94.52 C 50.81 96.20 52.59 97.57 54.35 98.94 C 53.76 99.17 52.57 99.61 51.98 99.84 C 51.05 99.04 50.11 98.27 49.13 97.55 L 48.63 97.17 L 48.48 96.66 C 48.22 95.06 46.66 94.27 45.27 93.84 C 44.74 93.51 43.68 92.86 43.15 92.53 C 43.03 92.43 42.79 92.21 42.67 92.10 C 42.17 91.74 41.17 91.01 40.67 90.65 Z" />
<path fill="#f6e6cc" opacity="1.00" d=" M 93.87 119.84 C 102.85 118.39 111.84 117.03 120.96 116.92 C 120.98 116.92 121.03 116.92 121.06 116.92 C 129.03 117.56 137.19 116.45 145.03 118.40 C 140.06 118.26 135.07 118.15 130.12 118.74 C 118.64 119.20 107.08 119.84 95.80 122.21 C 95.16 121.41 94.52 120.62 93.87 119.84 Z" />
<path fill="#f6e6cc" opacity="1.00" d=" M 69.51 150.64 C 70.31 150.61 71.10 150.64 71.89 150.69 C 71.82 156.01 79.07 156.02 82.44 153.71 C 83.14 154.20 84.55 155.18 85.26 155.66 C 79.94 159.39 71.36 157.15 69.51 150.64 Z" />
<path fill="#f6e6cc" opacity="1.00" d=" M 94.18 168.15 C 96.15 167.27 98.40 167.18 99.97 168.86 C 100.72 171.65 101.81 174.34 103.07 176.95 C 101.65 178.07 100.17 179.11 98.66 180.10 C 98.26 180.33 97.45 180.79 97.05 181.02 L 96.69 181.11 C 96.58 180.57 96.35 179.49 96.23 178.95 C 96.35 178.45 96.60 177.44 96.72 176.93 C 98.52 177.87 100.17 173.32 97.67 174.83 C 97.35 175.16 96.72 175.83 96.40 176.16 C 95.99 176.34 95.17 176.69 94.75 176.87 C 93.06 177.42 91.63 178.55 90.58 179.97 C 89.97 180.67 89.35 181.38 88.73 182.08 C 87.23 179.67 89.35 177.29 90.36 175.18 C 91.47 173.95 92.54 172.68 93.48 171.31 C 91.21 172.17 88.97 173.10 86.71 173.96 L 87.61 172.23 C 89.03 170.80 90.82 169.84 92.54 168.83 C 92.95 168.66 93.77 168.32 94.18 168.15 Z" />
</g>
<g id="#6b605eff">
<path fill="#6b605e" opacity="1.00" d=" M 43.67 91.11 C 45.44 90.89 48.51 92.49 48.65 94.44 C 46.71 93.95 44.62 92.96 43.67 91.11 Z" />
<path fill="#6b605e" opacity="1.00" d=" M 45.27 93.84 C 46.66 94.27 48.22 95.06 48.48 96.66 C 47.01 97.26 44.85 95.36 45.27 93.84 Z" />
<path fill="#6b605e" opacity="1.00" d=" M 134.32 105.84 L 135.04 107.09 C 135.19 107.00 135.49 106.82 135.64 106.72 C 137.10 107.08 138.56 107.45 140.02 107.84 C 139.14 109.66 136.83 108.75 135.25 109.09 C 133.98 111.29 132.78 113.54 131.63 115.81 C 137.16 116.17 142.81 115.51 148.25 116.76 C 149.84 116.80 150.84 118.26 149.75 119.60 C 140.70 120.66 131.51 119.22 122.48 120.67 C 117.72 121.07 112.94 121.30 108.23 122.13 C 106.17 122.40 104.11 122.64 102.05 122.90 C 99.77 123.21 97.51 123.64 95.26 124.08 C 95.39 123.61 95.66 122.68 95.80 122.21 C 107.08 119.84 118.64 119.20 130.12 118.74 C 135.07 118.15 140.06 118.26 145.03 118.40 C 137.19 116.45 129.03 117.56 121.06 116.92 C 123.14 114.52 126.68 115.76 129.44 115.48 C 131.67 112.60 133.27 109.31 134.32 105.84 Z" />
</g>
<g id="#01010098">
<path fill="#010100" opacity="0.60" d=" M 42.67 92.10 C 42.79 92.21 43.03 92.43 43.15 92.53 C 43.03 92.43 42.79 92.21 42.67 92.10 Z" />
</g>
<g id="#242023c2">
<path fill="#242023" opacity="0.76" d=" M 49.33 94.52 C 51.96 94.46 53.25 97.79 55.98 97.38 L 56.27 97.87 C 55.44 101.06 51.58 101.35 48.94 102.18 L 48.56 102.26 L 47.85 101.79 C 48.61 101.54 50.12 101.05 50.88 100.80 C 50.04 99.84 49.45 98.76 49.13 97.55 C 50.11 98.27 51.05 99.04 51.98 99.84 C 52.57 99.61 53.76 99.17 54.35 98.94 C 52.59 97.57 50.81 96.20 49.33 94.52 Z" />
</g>
<g id="#d8c0a7ff">
<path fill="#d8c0a7" opacity="1.00" d=" M 112.55 99.11 C 115.64 98.34 118.69 96.76 121.91 96.95 C 126.66 99.18 126.00 105.34 127.07 109.68 C 126.49 110.52 125.83 111.29 125.19 112.09 C 120.98 111.80 116.71 110.95 112.96 108.95 C 113.22 105.67 113.15 102.36 112.55 99.11 Z" />
</g>
<g id="#605256ff">
<path fill="#605256" opacity="1.00" d=" M 74.87 111.32 C 80.36 105.75 87.65 102.33 94.87 99.61 C 95.64 99.65 97.20 99.73 97.97 99.77 C 100.03 105.32 97.90 111.08 95.30 116.03 C 89.31 114.95 83.19 114.58 77.27 113.10 C 79.15 112.88 81.03 112.71 82.91 112.56 C 84.35 113.38 86.92 113.69 87.36 111.58 C 88.13 109.39 88.02 107.04 87.96 104.75 C 86.46 105.40 84.97 106.06 83.51 106.79 C 82.40 107.40 81.34 108.10 80.31 108.84 C 78.86 110.05 77.71 111.57 76.69 113.15 C 76.33 113.23 75.62 113.38 75.26 113.45 L 73.66 113.06 C 73.96 112.62 74.57 111.75 74.87 111.32 M 89.37 103.46 C 91.04 107.18 88.15 110.67 88.43 114.27 C 90.53 114.24 92.63 114.18 94.72 114.01 C 96.13 111.57 96.66 108.81 97.07 106.06 C 97.07 104.31 96.94 102.56 96.12 100.98 C 93.87 101.81 91.61 102.61 89.37 103.46 Z" />
</g>
<g id="#1d191fa9">
<path fill="#1d191f" opacity="0.66" d=" M 145.70 101.66 C 147.29 99.63 150.61 100.41 152.95 99.97 C 156.50 100.42 160.89 100.51 163.43 103.40 L 162.20 103.22 L 161.76 103.12 C 156.71 100.89 151.07 100.60 145.70 101.66 Z" />
</g>
<g id="#d3d4dfff">
<path fill="#d3d4df" opacity="1.00" d=" M 89.37 103.46 C 91.61 102.61 93.87 101.81 96.12 100.98 C 96.94 102.56 97.07 104.31 97.07 106.06 C 95.23 106.26 93.40 106.46 91.56 106.65 C 90.82 105.58 90.09 104.52 89.37 103.46 Z" />
</g>
<g id="#b7a3c3ff">
<path fill="#b7a3c3" opacity="1.00" d=" M 145.70 101.66 C 151.07 100.60 156.71 100.89 161.76 103.12 C 157.57 104.41 153.79 106.94 149.37 107.45 C 145.59 107.97 141.78 107.29 138.04 106.75 C 138.33 106.36 138.91 105.59 139.21 105.20 L 139.68 104.57 C 140.02 104.49 140.70 104.32 141.04 104.24 C 142.38 104.04 143.56 103.33 144.49 102.37 C 144.79 102.20 145.40 101.84 145.70 101.66 Z" />
</g>
<g id="#b09abbff">
<path fill="#b09abb" opacity="1.00" d=" M 48.56 102.26 L 48.94 102.18 C 48.78 103.00 48.63 103.83 48.47 104.65 C 50.03 104.92 51.59 105.19 53.15 105.48 C 50.98 107.57 47.94 107.43 45.14 107.23 C 45.02 106.39 44.79 104.72 44.68 103.89 C 45.90 103.18 47.14 102.47 48.56 102.26 Z" />
</g>
<g id="#141115be">
<path fill="#141115" opacity="0.75" d=" M 141.04 104.24 C 140.53 102.64 143.32 101.46 144.49 102.37 C 143.56 103.33 142.38 104.04 141.04 104.24 Z" />
</g>
<g id="#ffffffff">
<path fill="#ffffff" opacity="1.00" d=" M 89.37 103.46 C 90.09 104.52 90.82 105.58 91.56 106.65 C 93.40 106.46 95.23 106.26 97.07 106.06 C 96.66 108.81 96.13 111.57 94.72 114.01 C 92.63 114.18 90.53 114.24 88.43 114.27 C 88.15 110.67 91.04 107.18 89.37 103.46 Z" />
<path fill="#ffffff" opacity="1.00" d=" M 80.31 108.84 C 81.34 108.10 82.40 107.40 83.51 106.79 C 83.96 108.70 83.78 110.61 82.08 111.84 C 81.64 111.09 80.75 109.59 80.31 108.84 Z" />
<path fill="#ffffff" opacity="1.00" d=" M 48.02 120.47 C 49.75 121.16 51.54 121.75 53.43 121.52 C 55.12 123.52 57.38 124.87 59.64 126.12 C 59.59 128.10 59.56 130.08 59.44 132.06 C 58.66 133.98 58.09 136.12 56.66 137.69 C 55.43 138.06 54.32 137.10 53.18 136.81 C 52.75 134.24 52.52 131.65 52.61 129.05 C 50.91 130.99 51.92 133.88 51.45 136.20 C 46.10 132.89 48.87 125.63 48.02 120.47 Z" />
</g>
<g id="#231c25e4">
<path fill="#231c25" opacity="0.89" d=" M 163.55 103.89 C 165.31 103.37 167.41 105.09 168.02 106.69 L 167.80 107.11 C 166.06 106.53 164.61 105.37 163.55 103.89 Z" />
</g>
<g id="#994c52ff">
<path fill="#994c52" opacity="1.00" d=" M 83.51 106.79 C 84.97 106.06 86.46 105.40 87.96 104.75 C 88.02 107.04 88.13 109.39 87.36 111.58 C 85.79 111.08 84.25 111.81 82.91 112.56 C 81.03 112.71 79.15 112.88 77.27 113.10 L 76.69 113.15 C 77.71 111.57 78.86 110.05 80.31 108.84 C 80.75 109.59 81.64 111.09 82.08 111.84 C 83.78 110.61 83.96 108.70 83.51 106.79 Z" />
</g>
<g id="#896a8eff">
<path fill="#896a8e" opacity="1.00" d=" M 54.84 111.56 C 61.12 109.44 67.97 109.77 74.12 107.08 C 74.37 108.49 74.61 109.91 74.87 111.32 C 74.57 111.75 73.96 112.62 73.66 113.06 L 75.26 113.45 C 75.03 113.51 74.57 113.64 74.33 113.70 C 68.17 113.37 62.08 111.98 55.86 112.59 C 55.61 112.33 55.10 111.81 54.84 111.56 Z" />
</g>
<g id="#8e7091ff">
<path fill="#8e7091" opacity="1.00" d=" M 46.03 110.19 C 48.81 110.46 51.57 110.93 54.24 111.76 C 53.47 112.72 53.01 113.80 52.85 115.01 C 50.70 115.18 48.53 115.18 46.40 115.58 L 45.57 115.98 C 45.46 115.27 45.24 113.86 45.12 113.15 C 45.40 112.15 45.72 111.17 46.03 110.19 Z" />
</g>
<g id="#ea7f73ff">
<path fill="#ea7f73" opacity="1.00" d=" M 82.91 112.56 C 84.25 111.81 85.79 111.08 87.36 111.58 C 86.92 113.69 84.35 113.38 82.91 112.56 Z" />
</g>
<g id="#3e313dff">
<path fill="#3e313d" opacity="1.00" d=" M 54.24 111.76 L 54.84 111.56 C 55.10 111.81 55.61 112.33 55.86 112.59 C 55.12 113.48 54.29 114.28 53.36 114.98 L 52.85 115.01 C 53.01 113.80 53.47 112.72 54.24 111.76 Z" />
</g>
<g id="#d4c3aeff">
<path fill="#d4c3ae" opacity="1.00" d=" M 53.36 114.98 C 54.29 114.28 55.12 113.48 55.86 112.59 C 62.08 111.98 68.17 113.37 74.33 113.70 C 74.53 115.79 74.55 117.90 74.51 120.00 C 81.63 120.09 88.40 117.45 95.30 116.03 C 96.10 116.59 96.90 117.14 97.70 117.70 C 96.21 118.01 94.87 118.68 93.87 119.84 C 94.52 120.62 95.16 121.41 95.80 122.21 C 95.66 122.68 95.39 123.61 95.26 124.08 C 97.51 123.64 99.77 123.21 102.05 122.90 C 104.82 127.09 106.84 131.79 106.90 136.90 C 107.44 137.12 108.51 137.55 109.05 137.77 C 107.24 140.42 105.59 143.18 103.88 145.90 C 101.10 145.25 98.31 146.23 96.37 148.26 C 96.27 148.34 96.08 148.48 95.98 148.55 C 92.36 150.85 88.97 153.51 85.26 155.66 C 84.55 155.18 83.14 154.20 82.44 153.71 C 86.57 150.71 88.93 144.91 87.18 139.99 C 84.22 134.43 78.39 131.34 74.26 126.77 C 71.43 123.57 68.32 120.63 65.04 117.88 C 60.31 118.25 55.75 119.87 51.00 119.97 C 48.97 119.16 47.80 117.14 46.40 115.58 C 48.53 115.18 50.70 115.18 52.85 115.01 L 53.36 114.98 Z" />
</g>
<g id="#f1e1cbff">
<path fill="#f1e1cb" opacity="1.00" d=" M 75.26 113.45 C 75.62 113.38 76.33 113.23 76.69 113.15 L 77.27 113.10 C 83.19 114.58 89.31 114.95 95.30 116.03 C 88.40 117.45 81.63 120.09 74.51 120.00 C 74.55 117.90 74.53 115.79 74.33 113.70 C 74.57 113.64 75.03 113.51 75.26 113.45 Z" />
</g>
<g id="#5c4f55ff">
<path fill="#5c4f55" opacity="1.00" d=" M 106.75 112.89 C 109.91 113.58 112.80 115.49 116.10 115.50 C 117.74 115.82 120.24 114.70 120.96 116.92 C 111.84 117.03 102.85 118.39 93.87 119.84 C 94.87 118.68 96.21 118.01 97.70 117.70 C 101.77 116.79 105.88 116.02 110.06 115.91 C 108.94 114.93 107.83 113.92 106.75 112.89 Z" />
</g>
<g id="#51474af8">
<path fill="#51474a" opacity="0.97" d=" M 45.57 115.98 L 46.40 115.58 C 47.80 117.14 48.97 119.16 51.00 119.97 C 55.75 119.87 60.31 118.25 65.04 117.88 C 68.32 120.63 71.43 123.57 74.26 126.77 C 78.39 131.34 84.22 134.43 87.18 139.99 C 88.93 144.91 86.57 150.71 82.44 153.71 C 79.07 156.02 71.82 156.01 71.89 150.69 C 73.63 152.23 75.35 154.63 78.02 153.93 C 82.05 154.01 84.63 150.29 85.53 146.78 C 85.91 144.91 86.18 143.03 86.48 141.16 C 84.17 138.02 81.66 134.94 78.40 132.73 C 76.55 135.36 74.75 138.06 73.37 140.98 C 73.03 140.66 72.34 140.01 72.00 139.69 L 71.88 141.15 C 69.03 136.89 66.27 132.55 62.94 128.65 C 60.96 131.86 60.17 135.78 57.70 138.67 C 53.80 139.46 48.95 137.36 46.98 133.86 C 46.82 131.18 46.77 128.50 46.68 125.82 C 42.60 126.33 38.79 127.94 35.03 129.51 C 35.23 127.98 36.96 127.80 38.06 127.22 C 41.01 126.03 44.11 125.28 47.16 124.40 C 47.32 122.56 47.50 120.73 47.68 118.89 C 46.97 117.92 46.27 116.96 45.57 115.98 M 53.43 121.52 C 51.54 121.75 49.75 121.16 48.02 120.47 C 48.87 125.63 46.10 132.89 51.45 136.20 C 51.92 133.88 50.91 130.99 52.61 129.05 C 52.52 131.65 52.75 134.24 53.18 136.81 C 54.32 137.10 55.43 138.06 56.66 137.69 C 58.09 136.12 58.66 133.98 59.44 132.06 C 61.81 128.17 63.69 124.01 66.14 120.15 C 61.93 118.52 57.47 120.25 53.43 121.52 M 63.88 127.52 C 65.70 129.15 67.02 131.23 68.65 133.02 C 69.82 135.26 71.16 137.41 72.48 139.57 C 73.18 138.45 73.85 137.32 74.49 136.18 C 75.55 134.73 76.55 133.22 77.15 131.52 C 73.66 128.67 71.04 124.94 67.61 122.03 C 65.17 122.13 64.87 125.70 63.88 127.52 Z" />
</g>
<g id="#d2d3deff">
<path fill="#d2d3de" opacity="1.00" d=" M 53.43 121.52 C 57.47 120.25 61.93 118.52 66.14 120.15 C 63.69 124.01 61.81 128.17 59.44 132.06 C 59.56 130.08 59.59 128.10 59.64 126.12 C 57.38 124.87 55.12 123.52 53.43 121.52 Z" />
</g>
<g id="#946c78ff">
<path fill="#946c78" opacity="1.00" d=" M 63.88 127.52 C 64.87 125.70 65.17 122.13 67.61 122.03 C 71.04 124.94 73.66 128.67 77.15 131.52 C 76.55 133.22 75.55 134.73 74.49 136.18 C 72.54 135.13 70.57 134.12 68.65 133.02 C 67.02 131.23 65.70 129.15 63.88 127.52 Z" />
</g>
<g id="#8c6f8fff">
<path fill="#8c6f8f" opacity="1.00" d=" M 102.05 122.90 C 104.11 122.64 106.17 122.40 108.23 122.13 C 108.93 125.22 108.64 128.39 107.99 131.46 C 109.73 131.59 111.46 131.72 113.19 131.88 C 111.71 133.77 110.41 135.80 109.05 137.77 C 108.51 137.55 107.44 137.12 106.90 136.90 C 106.84 131.79 104.82 127.09 102.05 122.90 Z" />
</g>
<g id="#8a6d8eff">
<path fill="#8a6d8e" opacity="1.00" d=" M 57.70 138.67 C 60.17 135.78 60.96 131.86 62.94 128.65 C 66.27 132.55 69.03 136.89 71.88 141.15 L 71.83 142.07 C 61.97 140.98 52.03 140.18 42.11 140.64 C 42.25 138.95 42.35 137.27 42.64 135.60 C 42.75 135.19 42.96 134.37 43.07 133.96 C 44.37 133.90 45.68 133.86 46.98 133.86 C 48.95 137.36 53.80 139.46 57.70 138.67 Z" />
</g>
<g id="#393234c8">
<path fill="#393234" opacity="0.78" d=" M 23.92 131.01 C 27.11 129.91 30.67 131.17 33.77 129.56 C 33.34 130.13 32.48 131.26 32.06 131.82 C 29.20 131.28 26.28 131.34 23.49 132.23 C 25.06 133.42 26.83 134.38 28.83 134.58 C 29.52 135.16 30.21 135.75 30.90 136.34 C 30.25 136.74 29.61 137.14 28.96 137.54 C 26.65 138.62 25.27 140.82 24.16 143.02 C 25.39 142.48 26.61 141.93 27.83 141.37 C 29.85 140.89 31.81 141.59 33.80 141.84 C 36.60 141.73 39.32 140.92 42.11 140.64 C 52.03 140.18 61.97 140.98 71.83 142.07 L 71.88 141.15 L 72.00 139.69 C 72.34 140.01 73.03 140.66 73.37 140.98 C 72.94 142.13 72.50 143.28 72.13 144.45 C 71.97 145.28 71.66 146.96 71.51 147.80 C 71.15 148.03 70.42 148.50 70.06 148.74 C 70.39 146.80 71.05 144.94 71.59 143.06 C 62.79 142.05 53.93 141.18 45.06 141.49 C 40.02 141.67 34.93 143.76 29.94 142.23 C 27.66 142.12 25.55 143.40 23.31 143.78 C 23.45 140.27 26.63 138.10 29.05 136.04 C 26.99 135.10 24.86 134.30 22.88 133.19 C 21.21 132.68 22.96 131.04 23.92 131.01 Z" />
</g>
<g id="#f2e8d5ff">
<path fill="#f2e8d5" opacity="1.00" d=" M 33.77 129.56 L 33.99 129.27 L 34.81 129.60 C 35.33 129.85 36.36 130.35 36.88 130.59 C 35.29 130.63 34.37 131.36 34.14 132.76 L 33.77 133.97 C 32.13 134.23 30.48 134.43 28.83 134.58 C 26.83 134.38 25.06 133.42 23.49 132.23 C 26.28 131.34 29.20 131.28 32.06 131.82 C 32.48 131.26 33.34 130.13 33.77 129.56 Z" />
</g>
<g id="#3a3137e9">
<path fill="#3a3137" opacity="0.91" d=" M 114.41 130.40 C 114.77 130.36 115.51 130.29 115.87 130.25 C 113.75 133.37 111.57 136.45 109.38 139.52 C 106.44 143.70 104.45 148.55 100.93 152.31 C 101.27 150.54 102.29 149.05 103.26 147.57 C 101.06 146.38 98.59 147.95 96.37 148.26 C 98.31 146.23 101.10 145.25 103.88 145.90 C 105.59 143.18 107.24 140.42 109.05 137.77 C 110.41 135.80 111.71 133.77 113.19 131.88 C 113.49 131.51 114.10 130.77 114.41 130.40 Z" />
</g>
<g id="#675b5bff">
<path fill="#675b5b" opacity="1.00" d=" M 34.14 132.76 C 34.37 131.36 35.29 130.63 36.88 130.59 C 38.99 131.63 41.03 132.79 43.07 133.96 C 42.96 134.37 42.75 135.19 42.64 135.60 L 41.71 134.95 C 39.94 133.52 37.90 132.47 35.70 131.84 C 36.08 132.93 36.43 134.02 36.78 135.13 C 36.79 135.64 36.81 136.68 36.82 137.19 C 35.69 135.87 34.74 134.40 34.14 132.76 Z" />
</g>
<g id="#e9e0c8ff">
<path fill="#e9e0c8" opacity="1.00" d=" M 35.70 131.84 C 37.90 132.47 39.94 133.52 41.71 134.95 C 40.07 134.91 38.41 134.89 36.78 135.13 C 36.43 134.02 36.08 132.93 35.70 131.84 Z" />
</g>
<g id="#cfbeaaff">
<path fill="#cfbeaa" opacity="1.00" d=" M 34.14 132.76 C 34.74 134.40 35.69 135.87 36.82 137.19 C 36.81 136.68 36.79 135.64 36.78 135.13 C 38.41 134.89 40.07 134.91 41.71 134.95 L 42.64 135.60 C 42.35 137.27 42.25 138.95 42.11 140.64 C 39.32 140.92 36.60 141.73 33.80 141.84 C 31.81 141.59 29.85 140.89 27.83 141.37 C 28.96 140.23 30.02 139.03 31.09 137.83 C 30.55 137.76 29.49 137.61 28.96 137.54 C 29.61 137.14 30.25 136.74 30.90 136.34 C 30.21 135.75 29.52 135.16 28.83 134.58 C 30.48 134.43 32.13 134.23 33.77 133.97 L 34.14 132.76 Z" />
</g>
<g id="#c792a9ff">
<path fill="#c792a9" opacity="1.00" d=" M 68.65 133.02 C 70.57 134.12 72.54 135.13 74.49 136.18 C 73.85 137.32 73.18 138.45 72.48 139.57 C 71.16 137.41 69.82 135.26 68.65 133.02 Z" />
</g>
<g id="#be9ba2ff">
<path fill="#be9ba2" opacity="1.00" d=" M 78.40 132.73 C 81.66 134.94 84.17 138.02 86.48 141.16 C 86.18 143.03 85.91 144.91 85.53 146.78 C 81.00 146.26 76.78 144.01 72.13 144.45 C 72.50 143.28 72.94 142.13 73.37 140.98 C 74.75 138.06 76.55 135.36 78.40 132.73 Z" />
</g>
<g id="#f8eed7ff">
<path fill="#f8eed7" opacity="1.00" d=" M 24.16 143.02 C 25.27 140.82 26.65 138.62 28.96 137.54 C 29.49 137.61 30.55 137.76 31.09 137.83 C 30.02 139.03 28.96 140.23 27.83 141.37 C 26.61 141.93 25.39 142.48 24.16 143.02 Z" />
</g>
<g id="#373134e3">
<path fill="#373134" opacity="0.89" d=" M 120.39 159.93 C 125.68 153.17 128.72 145.08 133.10 137.78 C 133.10 138.52 133.10 139.98 133.10 140.71 C 133.58 140.85 134.53 141.12 135.00 141.26 C 134.44 141.27 133.31 141.30 132.74 141.31 C 131.02 144.65 129.09 147.90 127.84 151.46 C 134.01 153.17 140.60 154.77 146.97 153.10 C 150.87 152.24 154.42 150.34 158.11 148.87 C 157.89 149.22 157.44 149.90 157.22 150.24 C 152.78 152.60 147.92 154.23 142.92 154.87 C 140.98 157.20 139.37 160.27 136.13 160.95 C 132.86 161.64 130.19 163.71 127.13 164.91 C 127.25 164.01 127.51 162.22 127.63 161.32 C 125.28 162.26 122.95 163.29 120.81 164.66 C 120.63 164.23 120.25 163.37 120.06 162.93 C 118.64 164.30 117.61 166.23 115.69 166.98 C 116.97 164.45 118.80 162.26 120.39 159.93 M 126.98 152.64 C 127.51 153.26 127.51 153.26 126.98 152.64 M 124.35 156.87 C 125.14 156.68 126.70 156.29 127.49 156.10 C 124.83 157.85 121.93 159.81 121.19 163.13 C 124.72 161.48 128.70 160.57 131.47 157.64 C 131.65 157.82 132.02 158.18 132.20 158.36 C 130.40 159.78 128.10 161.17 127.82 163.70 C 130.58 161.87 133.62 160.58 136.83 159.77 C 138.56 158.48 140.02 156.88 141.20 155.08 C 137.74 155.21 134.35 154.54 131.00 153.80 C 128.56 153.68 125.17 154.09 124.35 156.87 Z" />
</g>
<g id="#f2e1caff">
<path fill="#f2e1ca" opacity="1.00" d=" M 137.58 141.25 C 143.62 139.85 149.69 135.78 155.97 138.63 C 156.17 139.54 156.57 141.36 156.77 142.27 C 150.78 145.36 143.59 145.17 137.35 142.93 C 137.41 142.51 137.53 141.67 137.58 141.25 Z" />
</g>
<g id="#b4ab9fff">
<path fill="#b4ab9f" opacity="1.00" d=" M 135.00 141.26 C 135.86 141.28 136.72 141.27 137.58 141.25 C 137.53 141.67 137.41 142.51 137.35 142.93 C 143.59 145.17 150.78 145.36 156.77 142.27 L 156.81 142.25 C 157.67 144.31 158.62 146.32 159.71 148.27 C 159.31 148.42 158.51 148.72 158.11 148.87 C 154.42 150.34 150.87 152.24 146.97 153.10 C 140.60 154.77 134.01 153.17 127.84 151.46 C 129.09 147.90 131.02 144.65 132.74 141.31 C 133.31 141.30 134.44 141.27 135.00 141.26 Z" />
</g>
<g id="#201920d2">
<path fill="#201920" opacity="0.82" d=" M 183.52 142.70 C 187.39 144.70 193.21 146.64 192.99 151.98 C 192.41 156.67 192.75 161.64 190.98 166.09 L 190.05 166.81 C 190.01 166.14 189.93 164.80 189.88 164.13 C 191.36 161.48 191.25 158.37 191.69 155.46 C 191.85 153.06 192.56 150.32 191.00 148.21 C 188.57 146.28 185.26 145.47 183.52 142.70 Z" />
</g>
<g id="#dfc2c8ff">
<path fill="#dfc2c8" opacity="1.00" d=" M 72.13 144.45 C 76.78 144.01 81.00 146.26 85.53 146.78 C 84.63 150.29 82.05 154.01 78.02 153.93 C 75.35 154.63 73.63 152.23 71.89 150.69 C 71.94 148.61 72.02 146.52 72.13 144.45 Z" />
</g>
<g id="#312c28c1">
<path fill="#312c28" opacity="0.76" d=" M 71.51 147.80 C 71.66 146.96 71.97 145.28 72.13 144.45 C 72.02 146.52 71.94 148.61 71.89 150.69 C 71.10 150.64 70.31 150.61 69.51 150.64 C 71.36 157.15 79.94 159.39 85.26 155.66 C 88.97 153.51 92.36 150.85 95.98 148.55 C 95.65 150.73 93.09 151.42 91.60 152.69 C 88.16 154.76 85.01 157.71 80.94 158.44 C 76.93 158.77 72.28 157.55 69.98 154.00 C 69.38 152.38 68.30 149.99 70.06 148.74 C 70.42 148.50 71.15 148.03 71.51 147.80 Z" />
</g>
<g id="#221c21bd">
<path fill="#221c21" opacity="0.74" d=" M 160.42 149.50 C 160.49 149.25 160.62 148.76 160.69 148.52 C 165.07 153.43 171.15 156.48 177.66 157.30 C 177.10 158.96 176.53 160.63 175.94 162.28 C 173.86 163.90 171.82 165.57 169.90 167.38 C 169.40 165.10 172.49 164.25 173.84 162.90 C 175.78 162.01 175.86 159.76 176.18 157.94 C 170.06 157.27 164.44 154.13 160.42 149.50 Z" />
</g>
<g id="#0000001d">
<path fill="#000000" opacity="0.11" d=" M 126.98 152.64 C 127.51 153.26 127.51 153.26 126.98 152.64 Z" />
</g>
<g id="#755e82ff">
<path fill="#755e82" opacity="1.00" d=" M 124.35 156.87 C 125.17 154.09 128.56 153.68 131.00 153.80 C 134.35 154.54 137.74 155.21 141.20 155.08 C 140.02 156.88 138.56 158.48 136.83 159.77 C 135.93 158.79 135.04 157.83 134.15 156.86 C 133.50 157.36 132.85 157.86 132.20 158.36 C 132.02 158.18 131.65 157.82 131.47 157.64 C 130.71 156.90 129.95 156.16 129.20 155.42 C 128.77 155.59 127.92 155.93 127.49 156.10 C 126.70 156.29 125.14 156.68 124.35 156.87 Z" />
</g>
<g id="#503e52ff">
<path fill="#503e52" opacity="1.00" d=" M 179.89 157.74 C 182.41 155.98 185.19 154.15 188.28 153.77 C 186.94 157.28 183.15 157.70 179.89 157.74 Z" />
</g>
<g id="#b1a79cff">
<path fill="#b1a79c" opacity="1.00" d=" M 127.49 156.10 C 127.92 155.93 128.77 155.59 129.20 155.42 C 129.95 156.16 130.71 156.90 131.47 157.64 C 128.70 160.57 124.72 161.48 121.19 163.13 C 121.93 159.81 124.83 157.85 127.49 156.10 Z" />
</g>
<g id="#c2b8acff">
<path fill="#c2b8ac" opacity="1.00" d=" M 132.20 158.36 C 132.85 157.86 133.50 157.36 134.15 156.86 C 135.04 157.83 135.93 158.79 136.83 159.77 C 133.62 160.58 130.58 161.87 127.82 163.70 C 128.10 161.17 130.40 159.78 132.20 158.36 Z" />
</g>
<g id="#d3c4aeff">
<path fill="#d3c4ae" opacity="1.00" d=" M 189.39 163.50 C 189.43 162.87 189.50 161.62 189.53 160.99 C 189.62 161.77 189.80 163.34 189.88 164.13 C 189.93 164.80 190.01 166.14 190.05 166.81 L 190.06 166.93 C 189.54 167.26 188.50 167.91 187.98 168.23 C 186.78 165.31 183.93 164.19 180.92 164.52 C 183.73 164.06 186.54 163.62 189.39 163.50 Z" />
</g>
<g id="#f3e3cbff">
<path fill="#f3e3cb" opacity="1.00" d=" M 169.90 167.38 C 171.82 165.57 173.86 163.90 175.94 162.28 C 177.41 163.41 178.92 164.78 180.92 164.52 C 183.93 164.19 186.78 165.31 187.98 168.23 L 188.19 168.95 C 188.00 169.09 187.63 169.36 187.44 169.50 C 185.16 171.14 182.92 172.85 180.54 174.35 C 180.80 172.40 181.36 170.51 181.86 168.62 C 183.12 169.29 184.44 167.48 183.77 166.39 C 182.80 166.27 182.07 166.72 181.58 167.73 C 180.62 168.39 179.65 169.02 178.73 169.73 C 178.54 169.91 178.16 170.28 177.97 170.47 C 176.36 172.04 175.18 173.96 173.98 175.84 C 172.63 171.53 175.00 167.83 177.15 164.34 C 175.60 165.45 174.23 166.79 172.85 168.12 C 171.67 168.80 170.46 169.43 169.25 170.05 C 169.38 169.47 169.64 168.31 169.77 167.73 C 169.80 167.64 169.87 167.47 169.90 167.38 Z" />
</g>
<g id="#514b43e0">
<path fill="#514b43" opacity="0.88" d=" M 172.85 168.12 C 174.23 166.79 175.60 165.45 177.15 164.34 C 175.00 167.83 172.63 171.53 173.98 175.84 C 175.18 173.96 176.36 172.04 177.97 170.47 C 177.31 172.69 176.12 174.75 174.58 176.48 C 173.74 176.64 173.14 176.30 172.80 175.45 C 172.86 173.01 172.90 170.56 172.85 168.12 Z" />
</g>
<g id="#908578ff">
<path fill="#908578" opacity="1.00" d=" M 181.58 167.73 C 182.07 166.72 182.80 166.27 183.77 166.39 C 184.44 167.48 183.12 169.29 181.86 168.62 L 181.58 167.73 Z" />
</g>
<g id="#151311b3">
<path fill="#151311" opacity="0.70" d=" M 187.98 168.23 C 188.50 167.91 189.54 167.26 190.06 166.93 C 190.17 168.49 189.54 169.16 188.19 168.95 L 187.98 168.23 Z" />
</g>
<g id="#1b151cad">
<path fill="#1b151c" opacity="0.68" d=" M 108.61 173.64 C 110.39 171.30 112.55 169.25 115.06 167.71 C 113.46 170.12 111.33 172.58 108.61 173.64 Z" />
</g>
<g id="#0000006a">
<path fill="#000000" opacity="0.42" d=" M 168.06 171.02 C 167.66 169.26 168.22 168.16 169.77 167.73 C 169.64 168.31 169.38 169.47 169.25 170.05 C 170.46 169.43 171.67 168.80 172.85 168.12 C 172.90 170.56 172.86 173.01 172.80 175.45 C 171.77 173.93 172.00 172.06 171.97 170.33 C 170.68 170.61 169.37 170.84 168.06 171.02 Z" />
</g>
<g id="#2e2a26b4">
<path fill="#2e2a26" opacity="0.71" d=" M 178.73 169.73 C 179.65 169.02 180.62 168.39 181.58 167.73 L 181.86 168.62 C 181.36 170.51 180.80 172.40 180.54 174.35 C 182.92 172.85 185.16 171.14 187.44 169.50 C 186.18 172.61 182.52 173.82 180.03 175.85 C 178.66 173.73 179.84 171.43 180.87 169.47 L 178.73 169.73 Z" />
</g>
<g id="#272421af">
<path fill="#272421" opacity="0.69" d=" M 84.72 175.48 C 85.33 171.89 89.07 169.10 92.54 168.83 C 90.82 169.84 89.03 170.80 87.61 172.23 C 87.23 172.69 86.46 173.61 86.07 174.07 L 88.10 174.02 C 87.16 174.88 86.03 175.37 84.72 175.48 Z" />
</g>
<g id="#cfbfaaff">
<path fill="#cfbfaa" opacity="1.00" d=" M 99.97 168.86 C 101.41 169.88 102.93 170.79 104.46 171.68 C 104.56 172.99 104.67 174.31 104.77 175.63 C 104.35 175.96 103.49 176.62 103.07 176.95 C 101.81 174.34 100.72 171.65 99.97 168.86 Z" />
</g>
<g id="#6d655cf9">
<path fill="#6d655c" opacity="0.98" d=" M 86.71 173.96 C 88.97 173.10 91.21 172.17 93.48 171.31 C 92.54 172.68 91.47 173.95 90.36 175.18 L 91.16 173.10 L 89.67 173.63 L 88.10 174.02 L 86.07 174.07 C 86.46 173.61 87.23 172.69 87.61 172.23 L 86.71 173.96 Z" />
</g>
<g id="#0c0b0aa2">
<path fill="#0c0b0a" opacity="0.64" d=" M 89.67 173.63 L 91.16 173.10 L 90.36 175.18 C 89.35 177.29 87.23 179.67 88.73 182.08 L 89.16 183.17 C 87.56 183.28 86.82 182.57 86.94 181.03 C 86.82 178.30 88.68 176.04 89.67 173.63 Z" />
</g>
<g id="#786e63ff">
<path fill="#786e63" opacity="1.00" d=" M 97.67 174.83 C 100.17 173.32 98.52 177.87 96.72 176.93 L 96.40 176.16 C 96.72 175.83 97.35 175.16 97.67 174.83 Z" />
</g>
<g id="#2e2829c1">
<path fill="#2e2829" opacity="0.76" d=" M 104.77 175.63 C 105.34 175.40 106.46 174.93 107.02 174.70 C 105.58 177.67 101.78 179.31 98.66 180.10 C 100.17 179.11 101.65 178.07 103.07 176.95 C 103.49 176.62 104.35 175.96 104.77 175.63 Z" />
</g>
<g id="#443e38b9">
<path fill="#443e38" opacity="0.73" d=" M 90.58 179.97 C 91.63 178.55 93.06 177.42 94.75 176.87 C 95.17 178.67 92.22 180.68 90.58 179.97 Z" />
</g>
<g id="#090807a4">
<path fill="#090807" opacity="0.64" d=" M 95.30 182.70 C 94.37 181.77 94.49 178.51 96.23 178.95 C 96.35 179.49 96.58 180.57 96.69 181.11 L 97.05 181.02 C 98.21 181.85 96.21 183.59 95.30 182.70 Z" />
</g>
</svg>
