<?xml version="1.0" encoding="UTF-8" ?>
<!DOCTYPE svg PUBLIC "-//W3C//DTD SVG 1.1//EN" "http://www.w3.org/Graphics/SVG/1.1/DTD/svg11.dtd">
<svg width="215pt" height="215pt" viewBox="0 0 215 215" version="1.1" xmlns="http://www.w3.org/2000/svg">
<g id="#22180dbb">
<path fill="#22180d" opacity="0.73" d=" M 65.26 23.14 C 66.22 23.14 66.83 23.61 67.08 24.54 C 66.64 24.74 65.76 25.15 65.32 25.35 C 64.08 29.24 63.65 33.33 62.80 37.31 C 62.05 38.47 61.29 39.63 60.45 40.74 C 59.83 40.87 58.60 41.13 57.98 41.25 C 64.13 37.24 62.07 28.91 65.26 23.14 Z" />
</g>
<g id="#7e633fff">
<path fill="#7e633f" opacity="1.00" d=" M 65.32 25.35 C 65.76 25.15 66.64 24.74 67.08 24.54 C 67.27 24.88 67.66 25.55 67.86 25.89 C 68.92 28.00 70.59 29.68 72.26 31.32 C 72.40 31.60 72.68 32.16 72.83 32.45 C 74.39 35.89 75.84 39.39 76.79 43.06 C 75.22 42.33 73.61 41.71 71.95 41.24 C 71.65 38.86 71.59 36.46 71.69 34.06 C 70.81 34.33 69.94 34.59 69.07 34.85 C 68.18 32.51 67.22 30.21 66.14 27.95 C 66.53 29.41 66.97 30.86 67.44 32.29 C 65.86 33.93 64.26 35.56 62.80 37.31 C 63.65 33.33 64.08 29.24 65.32 25.35 Z" />
</g>
<g id="#21170dd1">
<path fill="#21170d" opacity="0.82" d=" M 67.86 25.89 C 69.79 27.25 71.60 28.96 72.26 31.32 C 70.59 29.68 68.92 28.00 67.86 25.89 Z" />
</g>
<g id="#0f090aff">
<path fill="#0f090a" opacity="1.00" d=" M 67.44 32.29 C 66.97 30.86 66.53 29.41 66.14 27.95 C 67.22 30.21 68.18 32.51 69.07 34.85 C 69.94 34.59 70.81 34.33 71.69 34.06 C 71.59 36.46 71.65 38.86 71.95 41.24 C 73.61 41.71 75.22 42.33 76.79 43.06 C 75.84 39.39 74.39 35.89 72.83 32.45 L 73.44 32.21 C 75.14 35.80 76.74 39.44 77.93 43.24 C 76.54 43.99 75.15 44.76 73.77 45.54 C 73.84 44.73 73.97 43.11 74.04 42.30 C 72.93 42.77 71.83 43.26 70.74 43.77 C 70.18 41.11 70.35 38.39 70.64 35.70 C 69.27 37.54 67.89 39.37 66.42 41.13 C 67.44 38.19 69.41 35.34 67.44 32.29 Z" />
<path fill="#0f090a" opacity="1.00" d=" M 90.60 37.36 C 91.17 37.35 92.32 37.32 92.89 37.30 C 91.98 38.63 91.16 40.03 90.38 41.44 C 92.88 42.26 95.51 42.44 98.12 42.28 C 97.35 43.30 96.58 44.31 95.80 45.33 C 97.68 46.37 99.83 46.01 101.87 46.02 C 100.58 47.25 99.51 48.69 98.22 49.92 C 100.13 50.22 102.17 51.40 104.11 50.58 C 113.65 46.50 124.35 46.70 134.48 47.69 C 136.55 48.27 139.24 48.14 140.67 49.97 C 139.48 52.03 137.74 53.75 135.69 54.95 C 136.95 53.17 138.24 51.42 139.62 49.73 C 138.23 49.35 136.86 48.94 135.46 48.64 C 127.07 47.19 118.39 47.49 110.12 49.48 C 107.25 50.20 104.54 51.46 102.09 53.11 C 100.32 54.66 98.67 56.33 96.93 57.91 C 98.26 55.48 99.88 53.23 101.57 51.03 C 99.49 50.87 97.40 50.72 95.32 50.57 C 95.48 50.19 95.78 49.41 95.94 49.02 C 97.40 48.58 98.73 47.83 100.04 47.06 C 98.20 46.78 96.36 46.52 94.51 46.30 C 95.30 45.16 96.09 44.04 96.89 42.91 C 93.85 43.30 90.74 43.33 87.78 42.44 C 88.76 41.37 89.76 40.32 90.66 39.19 C 90.65 38.88 90.63 38.28 90.63 37.97 L 90.60 37.36 Z" />
<path fill="#0f090a" opacity="1.00" d=" M 60.61 47.71 C 63.28 46.17 63.72 42.61 66.42 41.13 C 66.29 41.45 66.03 42.08 65.89 42.39 C 64.78 44.68 63.54 47.02 61.45 48.58 C 55.46 49.44 50.00 52.30 44.78 55.22 C 47.48 51.59 52.37 50.61 56.39 49.00 C 56.39 46.78 56.43 44.55 56.48 42.33 L 57.13 42.40 C 57.21 44.46 57.39 46.52 57.60 48.57 C 58.36 48.35 59.86 47.92 60.61 47.71 Z" />
<path fill="#0f090a" opacity="1.00" d=" M 24.43 42.30 C 26.74 43.34 28.60 45.18 29.91 47.32 C 27.97 45.77 26.16 44.08 24.43 42.30 Z" />
<path fill="#0f090a" opacity="1.00" d=" M 158.42 44.46 C 161.75 45.40 164.99 47.43 167.05 50.26 C 164.12 48.18 161.12 46.17 157.80 44.77 C 158.12 45.61 158.78 47.29 159.11 48.13 C 157.74 47.51 156.24 45.13 158.42 44.46 Z" />
<path fill="#0f090a" opacity="1.00" d=" M 27.22 47.50 C 29.22 49.60 30.96 51.91 32.78 54.16 C 35.34 57.43 37.95 60.67 40.35 64.06 L 39.16 64.29 C 35.93 58.20 30.27 53.66 27.22 47.50 Z" />
<path fill="#0f090a" opacity="1.00" d=" M 36.72 53.95 C 39.54 55.30 40.63 58.47 42.54 60.74 C 42.78 59.33 43.16 57.96 43.69 56.64 L 43.60 58.01 C 43.70 58.78 43.90 60.31 44.00 61.08 C 44.49 62.80 45.11 64.49 45.94 66.08 C 44.78 64.86 43.91 63.04 42.02 62.91 L 41.22 62.67 C 41.66 59.07 38.47 56.71 36.72 53.95 Z" />
<path fill="#0f090a" opacity="1.00" d=" M 67.61 60.55 C 73.08 58.56 78.75 57.10 84.51 56.27 C 86.07 56.41 87.63 56.56 89.19 56.73 C 88.28 57.02 87.39 57.36 86.51 57.74 C 87.05 60.37 87.37 63.09 86.71 65.75 C 84.71 65.35 82.71 64.91 80.73 64.43 C 76.43 63.18 72.04 62.19 67.55 62.05 C 67.57 61.68 67.60 60.93 67.61 60.55 M 81.84 61.01 C 81.20 59.93 80.59 58.84 79.92 57.78 C 78.92 59.38 78.52 61.15 78.72 63.10 C 81.35 63.50 83.84 64.97 86.56 64.48 C 85.69 61.96 86.66 56.15 82.17 57.54 C 83.46 58.74 84.68 61.01 81.84 61.01 M 72.03 59.84 C 71.56 61.46 72.12 62.04 73.71 61.58 C 74.19 59.92 73.63 59.34 72.03 59.84 Z" />
<path fill="#0f090a" opacity="1.00" d=" M 134.78 62.05 C 136.28 63.11 137.30 64.66 138.38 66.12 C 136.18 68.98 133.45 71.36 130.95 73.94 C 130.77 76.58 129.78 79.04 128.28 81.21 C 130.19 81.84 133.40 82.95 130.45 85.07 C 132.87 85.87 135.24 86.84 137.52 87.98 C 137.42 89.28 137.37 90.57 137.41 91.88 C 135.80 90.85 135.14 89.00 134.30 87.39 C 132.73 86.68 131.16 85.98 129.58 85.30 C 129.74 84.29 129.92 83.28 130.11 82.28 C 127.31 82.62 125.05 84.32 122.55 85.44 C 118.92 86.41 115.09 85.49 111.69 84.09 C 111.61 83.80 111.45 83.22 111.38 82.92 C 115.90 85.39 121.98 85.84 126.04 82.21 C 128.67 80.23 128.82 76.76 129.96 73.94 C 131.69 71.70 133.95 69.93 135.76 67.75 C 136.14 67.32 136.89 66.47 137.27 66.04 C 136.43 64.71 135.65 63.35 134.78 62.05 Z" />
<path fill="#0f090a" opacity="1.00" d=" M 32.73 64.68 C 34.83 65.82 36.93 67.00 39.17 67.86 C 38.61 71.61 39.31 75.33 40.00 79.00 C 39.90 79.99 39.78 80.97 39.64 81.95 C 39.35 79.37 38.97 76.81 38.48 74.27 C 34.26 75.02 30.04 76.04 25.73 75.88 C 26.24 75.01 26.97 74.42 27.93 74.13 C 31.60 72.83 35.44 71.97 38.91 70.13 C 37.38 67.69 34.18 67.15 32.73 64.68 M 28.64 74.57 C 28.94 74.72 29.53 75.01 29.83 75.16 C 32.75 74.27 37.04 74.87 38.79 71.97 C 35.30 72.34 31.95 73.47 28.64 74.57 Z" />
<path fill="#0f090a" opacity="1.00" d=" M 41.85 67.82 C 45.69 70.97 50.70 70.52 55.32 70.60 C 55.68 70.29 56.42 69.68 56.79 69.37 C 59.68 71.78 60.73 75.48 62.06 78.84 C 63.77 83.77 65.85 88.64 66.58 93.84 C 67.52 98.90 64.82 103.86 61.52 107.50 C 58.28 109.72 53.80 108.52 50.55 106.82 C 50.93 106.83 51.70 106.86 52.09 106.87 C 54.90 107.51 57.77 107.83 60.65 107.73 C 59.34 105.71 57.95 103.75 56.69 101.69 C 54.77 98.44 53.89 94.72 53.35 91.02 C 52.44 90.82 50.62 90.43 49.72 90.24 C 49.59 91.95 49.43 93.67 49.24 95.38 C 48.94 93.54 48.79 91.69 48.73 89.83 C 48.25 89.70 47.29 89.43 46.81 89.30 C 46.58 88.85 46.11 87.95 45.88 87.50 C 46.50 87.82 47.73 88.47 48.35 88.79 C 48.37 86.42 48.29 84.04 48.33 81.66 C 48.90 84.16 49.29 86.70 49.69 89.23 C 50.65 89.35 52.58 89.58 53.55 89.70 C 54.46 84.89 56.03 80.25 58.16 75.84 C 59.14 74.42 59.02 71.57 56.94 71.27 C 52.78 71.19 48.59 71.74 44.46 70.90 C 43.27 73.04 43.73 75.58 43.70 77.92 C 43.76 80.57 43.84 83.22 43.84 85.87 C 43.55 85.79 42.96 85.61 42.67 85.53 C 43.57 90.33 43.43 95.20 43.11 100.05 C 42.81 102.51 44.30 104.59 46.09 106.08 C 44.22 105.97 43.00 104.26 42.46 102.63 C 42.07 99.43 42.71 96.20 42.57 92.98 C 42.59 89.31 41.04 85.89 40.78 82.25 C 41.12 83.14 41.79 84.93 42.13 85.82 C 42.53 85.10 42.94 84.38 43.34 83.67 C 42.78 80.83 42.27 77.93 42.57 75.02 C 42.68 72.61 43.54 69.96 41.85 67.82 M 54.85 88.06 C 53.65 90.63 54.80 93.31 55.58 95.80 C 56.96 99.62 58.45 103.76 61.73 106.37 C 63.88 103.12 65.62 99.54 66.13 95.62 L 65.55 95.63 C 64.73 88.89 62.33 82.50 59.90 76.21 C 56.56 79.18 56.39 84.09 54.85 88.06 Z" />
<path fill="#0f090a" opacity="1.00" d=" M 87.51 78.96 C 88.99 78.66 90.45 78.28 91.94 78.02 C 97.09 78.47 102.79 78.37 107.27 81.27 C 102.30 83.17 96.92 82.73 91.71 82.65 C 88.91 82.82 85.78 81.73 83.20 83.13 C 83.16 83.38 83.08 83.89 83.04 84.15 C 87.35 86.44 91.58 88.88 95.78 91.38 C 100.67 94.45 106.28 96.52 110.30 100.82 C 107.59 100.69 104.89 100.30 102.37 99.26 C 96.40 96.69 90.73 93.48 84.98 90.44 C 82.49 88.91 80.06 87.25 77.94 85.23 C 87.67 90.15 96.57 97.18 107.41 99.59 C 103.10 96.33 98.26 93.86 93.61 91.15 C 89.11 88.80 84.94 85.82 80.22 83.90 C 80.74 83.38 81.25 82.84 81.75 82.29 C 80.25 81.70 78.73 81.22 77.24 80.63 C 79.03 80.81 80.83 81.00 82.64 81.08 C 90.00 81.17 97.49 82.30 104.77 80.81 C 100.80 79.72 96.68 79.47 92.58 79.46 C 90.89 79.31 89.20 79.12 87.51 78.96 Z" />
<path fill="#0f090a" opacity="1.00" d=" M 143.22 101.81 C 144.74 102.98 141.72 104.37 141.29 105.58 C 141.14 105.38 140.83 105.00 140.68 104.80 C 140.40 103.21 141.75 102.01 143.22 101.81 Z" />
<path fill="#0f090a" opacity="1.00" d=" M 46.09 106.08 C 46.55 106.35 47.46 106.87 47.91 107.14 C 49.74 108.34 51.57 109.55 53.46 110.65 C 54.44 111.23 55.42 111.80 56.40 112.37 C 56.40 112.80 56.42 113.66 56.43 114.09 C 56.01 113.51 55.16 112.34 54.74 111.76 C 53.72 117.46 52.68 123.20 52.77 129.01 C 52.96 131.83 53.45 134.66 52.83 137.47 C 53.47 139.46 53.60 141.53 53.55 143.61 C 55.03 142.84 56.51 142.06 57.98 141.28 C 58.92 142.58 59.86 143.88 60.89 145.11 C 60.50 145.11 59.70 145.09 59.31 145.08 C 58.46 144.07 57.59 143.08 56.69 142.11 C 56.85 142.75 57.15 144.02 57.30 144.66 C 55.81 143.18 54.13 144.05 52.56 144.82 C 52.56 143.19 52.65 141.55 52.65 139.92 C 49.48 139.87 52.48 136.55 52.48 134.97 C 52.36 131.10 52.01 127.21 52.41 123.33 C 49.84 125.03 46.70 126.12 43.68 124.93 C 45.92 124.65 48.54 125.02 50.37 123.42 C 53.04 121.35 52.75 117.59 53.63 114.64 C 52.67 113.97 51.70 113.29 50.71 112.67 C 47.34 112.52 44.82 114.94 42.97 117.45 L 42.70 116.29 C 43.79 114.93 45.09 113.76 46.33 112.54 C 45.43 111.47 44.54 110.39 43.58 109.37 C 38.14 105.48 31.37 111.61 30.50 117.14 C 34.05 115.07 38.24 114.27 41.54 111.77 C 40.84 113.61 39.66 115.20 38.00 116.29 C 37.47 117.02 36.95 117.75 36.43 118.49 C 33.45 121.18 30.40 126.48 34.12 129.77 C 35.41 128.16 36.31 126.30 37.38 124.56 C 38.20 123.66 39.05 122.80 39.91 121.95 C 40.68 122.74 41.51 123.45 42.41 124.09 C 37.84 121.22 37.45 127.86 35.02 130.03 C 31.82 130.37 31.40 126.37 31.76 124.09 C 32.00 120.23 36.72 118.93 37.06 115.08 C 34.80 115.97 32.67 117.18 30.34 117.87 C 28.46 110.54 40.10 103.30 44.93 110.00 C 46.87 112.76 50.42 112.27 53.36 112.67 C 51.83 109.54 47.72 109.10 46.09 106.08 Z" />
<path fill="#0f090a" opacity="1.00" d=" M 142.87 107.85 C 145.39 110.74 146.39 114.53 147.62 118.07 C 149.99 124.54 149.54 131.56 149.43 138.33 C 159.84 137.76 170.10 132.77 176.29 124.26 C 178.88 121.16 179.99 117.18 182.30 113.91 C 181.29 117.72 179.53 121.29 176.98 124.31 C 178.90 125.19 180.70 126.28 182.50 127.38 C 182.58 128.02 182.75 129.29 182.83 129.92 C 182.42 129.27 181.99 128.63 181.56 128.00 C 180.19 126.87 178.71 125.72 176.90 125.46 C 174.39 127.18 172.45 129.56 170.23 131.61 C 171.96 132.97 173.62 134.42 175.21 135.95 C 175.14 137.74 175.08 139.52 175.04 141.32 L 177.00 140.67 C 172.98 145.51 166.95 147.81 161.36 150.29 C 159.28 151.25 157.02 151.75 154.76 152.03 C 157.07 150.95 160.63 150.14 160.68 146.97 C 161.31 143.63 160.15 139.65 156.91 138.13 C 154.21 138.30 151.67 139.47 148.95 139.42 C 148.48 143.93 146.53 148.00 144.82 152.12 C 144.38 152.89 144.44 153.74 144.77 154.53 C 144.04 154.62 142.59 154.80 141.86 154.89 C 143.36 152.18 144.75 149.41 145.84 146.51 C 150.58 134.91 149.31 121.61 143.80 110.52 C 143.57 109.86 143.10 108.52 142.87 107.85 M 164.99 135.08 C 165.89 136.58 167.02 137.93 168.08 139.33 L 168.50 139.10 C 168.45 141.46 168.37 143.82 168.33 146.19 C 170.95 145.29 172.89 143.34 174.63 141.28 C 174.49 139.49 174.36 137.70 174.23 135.91 L 173.85 136.11 C 172.78 134.76 171.60 133.51 170.38 132.29 C 168.55 133.13 166.51 133.69 164.99 135.08 M 158.02 137.74 C 162.41 140.22 162.02 145.50 160.83 149.68 C 163.07 148.75 165.61 147.99 167.11 145.93 C 167.78 144.02 167.80 141.98 167.88 139.98 L 166.62 139.89 C 167.47 138.72 166.08 136.93 164.82 136.81 L 164.27 137.11 L 164.53 135.60 C 162.28 136.08 160.12 136.85 158.02 137.74 Z" />
<path fill="#0f090a" opacity="1.00" d=" M 74.42 144.99 C 75.07 146.02 75.71 147.06 76.34 148.10 C 76.82 147.60 77.78 146.61 78.26 146.11 C 80.86 147.00 83.46 147.92 86.12 148.63 C 86.21 147.63 86.40 145.63 86.50 144.63 C 87.70 145.06 88.91 145.50 90.08 146.01 C 89.02 146.16 87.96 146.32 86.90 146.49 C 86.81 147.33 86.64 149.01 86.55 149.85 C 84.25 149.18 81.96 148.51 79.69 147.74 C 79.25 147.74 78.38 147.73 77.95 147.72 L 77.63 148.51 C 77.42 148.91 76.99 149.71 76.77 150.11 C 75.94 148.99 75.17 147.82 74.39 146.66 C 74.40 146.24 74.42 145.41 74.42 144.99 Z" />
<path fill="#0f090a" opacity="1.00" d=" M 59.04 147.74 C 67.54 160.36 82.74 165.96 96.90 169.47 C 108.37 171.12 120.77 169.86 130.98 164.01 C 134.86 161.86 137.77 158.43 141.26 155.76 C 140.55 157.30 139.45 158.61 138.34 159.87 C 139.26 161.83 140.85 164.87 138.21 166.25 C 138.41 164.33 138.50 162.39 138.46 160.46 C 133.84 163.65 129.02 166.71 123.55 168.26 C 118.94 169.94 113.84 169.79 109.35 171.82 C 107.90 171.49 106.44 171.27 104.96 171.17 C 101.72 172.77 98.62 174.77 95.95 177.22 C 95.07 179.77 94.67 182.45 94.43 185.13 C 97.63 182.41 100.52 178.91 104.88 178.13 C 108.23 176.83 111.64 178.57 115.03 178.67 C 116.16 177.79 117.20 176.80 118.31 175.89 C 118.58 175.81 119.11 175.66 119.38 175.58 C 117.35 177.51 115.52 179.87 115.38 182.80 C 115.06 185.08 114.97 187.38 114.82 189.67 C 112.75 186.46 114.10 182.71 115.38 179.50 C 111.43 179.12 107.34 177.65 103.48 179.28 C 99.66 180.01 97.78 183.67 94.94 185.89 C 92.18 184.04 94.54 180.75 94.54 178.22 C 92.78 179.33 91.13 180.58 89.50 181.87 C 88.80 180.04 88.38 178.03 89.61 176.31 C 89.71 177.31 89.90 179.33 89.99 180.34 C 94.08 177.19 97.91 173.67 102.59 171.41 C 98.12 170.92 92.56 170.94 89.92 175.28 C 89.89 171.63 94.12 171.84 96.19 170.11 C 90.25 168.80 84.64 166.46 78.93 164.48 C 74.61 164.83 70.30 164.55 66.02 163.93 C 62.34 163.41 58.89 164.86 55.47 165.96 C 56.52 164.55 58.01 163.60 59.73 163.28 C 65.47 162.95 71.18 163.79 76.91 163.91 C 71.69 160.52 65.91 157.79 61.74 153.01 C 58.41 152.56 55.07 152.11 51.73 151.75 C 54.74 150.75 57.85 151.77 60.85 152.26 C 60.35 150.71 59.63 149.25 59.04 147.74 Z" />
<path fill="#0f090a" opacity="1.00" d=" M 54.57 158.10 C 55.05 157.97 56.00 157.70 56.48 157.57 C 58.54 157.64 60.61 157.67 62.67 157.68 C 62.53 157.95 62.24 158.50 62.10 158.77 C 59.78 158.77 57.47 158.69 55.16 158.66 C 52.79 162.03 51.10 165.86 50.94 170.03 C 52.28 168.87 53.58 167.67 54.91 166.51 C 54.75 168.98 52.55 170.67 50.21 170.90 C 49.48 167.86 50.72 164.95 51.76 162.15 C 50.09 162.77 48.40 163.33 46.72 163.91 C 49.59 162.31 52.70 160.94 54.57 158.10 Z" />
<path fill="#0f090a" opacity="1.00" d=" M 40.83 167.13 C 40.50 164.14 41.58 160.63 44.12 158.86 C 43.43 160.18 42.79 161.54 42.22 162.93 C 41.96 164.19 41.73 165.45 41.52 166.73 C 42.70 166.11 43.87 165.49 45.03 164.87 C 43.95 165.94 42.61 168.44 40.83 167.13 Z" />
</g>
<g id="#8b735cff">
<path fill="#8b735c" opacity="1.00" d=" M 62.80 37.31 C 64.26 35.56 65.86 33.93 67.44 32.29 C 69.41 35.34 67.44 38.19 66.42 41.13 C 63.72 42.61 63.28 46.17 60.61 47.71 C 60.61 45.38 60.56 43.06 60.45 40.74 C 61.29 39.63 62.05 38.47 62.80 37.31 Z" />
</g>
<g id="#f4debaff">
<path fill="#f4deba" opacity="1.00" d=" M 70.64 35.70 C 70.35 38.39 70.18 41.11 70.74 43.77 C 70.28 42.68 69.82 41.59 69.35 40.50 C 68.35 41.61 67.35 42.71 66.35 43.80 C 66.23 43.45 66.01 42.75 65.89 42.39 C 66.03 42.08 66.29 41.45 66.42 41.13 C 67.89 39.37 69.27 37.54 70.64 35.70 Z" />
<path fill="#f4deba" opacity="1.00" d=" M 43.60 58.01 C 47.18 59.31 50.98 59.32 54.72 59.49 C 56.13 61.10 56.99 63.10 58.33 64.75 C 62.43 65.78 66.88 65.44 70.75 67.34 C 73.37 68.79 75.45 71.00 77.71 72.93 C 75.57 73.98 73.52 75.26 71.85 76.99 C 73.98 76.23 75.98 75.19 77.98 74.17 C 78.89 74.83 79.80 75.49 80.72 76.14 L 81.43 76.63 C 80.08 76.72 78.98 77.24 78.13 78.20 C 78.68 79.06 79.55 79.36 80.74 79.12 C 82.99 79.09 85.25 79.04 87.51 78.96 C 89.20 79.12 90.89 79.31 92.58 79.46 C 89.28 80.08 85.99 80.80 82.64 81.08 C 80.83 81.00 79.03 80.81 77.24 80.63 C 78.73 81.22 80.25 81.70 81.75 82.29 C 81.25 82.84 80.74 83.38 80.22 83.90 C 84.94 85.82 89.11 88.80 93.61 91.15 C 98.26 93.86 103.10 96.33 107.41 99.59 C 96.57 97.18 87.67 90.15 77.94 85.23 C 80.06 87.25 82.49 88.91 84.98 90.44 C 85.31 97.02 88.45 103.27 87.64 109.92 C 86.90 112.80 84.16 114.53 82.19 116.55 C 84.05 118.63 86.02 120.62 88.21 122.34 C 83.74 123.75 79.63 130.35 84.04 134.01 C 85.87 133.73 86.81 131.65 88.16 130.55 C 90.49 134.58 93.51 138.46 98.41 139.31 C 97.80 140.06 97.17 140.78 96.50 141.48 C 94.96 141.34 93.63 140.45 92.23 139.86 C 92.72 141.31 93.21 142.77 93.69 144.23 C 92.25 143.32 90.82 142.40 89.40 141.49 C 88.42 142.53 87.45 143.57 86.50 144.63 C 86.40 145.63 86.21 147.63 86.12 148.63 C 83.46 147.92 80.86 147.00 78.26 146.11 C 77.78 146.61 76.82 147.60 76.34 148.10 C 75.71 147.06 75.07 146.02 74.42 144.99 C 74.42 145.41 74.40 146.24 74.39 146.66 L 74.31 148.31 C 71.31 147.04 68.61 145.17 66.71 142.50 C 65.57 143.57 64.43 144.64 63.30 145.71 C 62.70 145.56 61.49 145.26 60.89 145.11 C 59.86 143.88 58.92 142.58 57.98 141.28 C 56.51 142.06 55.03 142.84 53.55 143.61 C 53.60 141.53 53.47 139.46 52.83 137.47 C 53.45 134.66 52.96 131.83 52.77 129.01 C 52.68 123.20 53.72 117.46 54.74 111.76 C 55.16 112.34 56.01 113.51 56.43 114.09 C 56.45 114.50 56.48 115.32 56.50 115.73 C 59.42 117.72 62.39 120.10 66.06 120.38 C 70.86 118.67 70.29 112.94 71.47 108.91 C 65.58 110.40 59.49 110.42 53.46 110.65 C 51.57 109.55 49.74 108.34 47.91 107.14 L 48.32 105.82 C 48.88 106.07 49.99 106.57 50.55 106.82 C 53.80 108.52 58.28 109.72 61.52 107.50 C 64.82 103.86 67.52 98.90 66.58 93.84 C 65.85 88.64 63.77 83.77 62.06 78.84 C 60.73 75.48 59.68 71.78 56.79 69.37 C 56.42 69.68 55.68 70.29 55.32 70.60 C 50.70 70.52 45.69 70.97 41.85 67.82 C 43.54 69.96 42.68 72.61 42.57 75.02 C 42.27 77.93 42.78 80.83 43.34 83.67 C 42.94 84.38 42.53 85.10 42.13 85.82 C 41.79 84.93 41.12 83.14 40.78 82.25 C 40.44 81.19 40.21 80.10 40.00 79.00 C 39.31 75.33 38.61 71.61 39.17 67.86 C 36.93 67.00 34.83 65.82 32.73 64.68 L 31.96 64.17 C 31.93 64.14 31.85 64.09 31.82 64.07 C 30.72 63.28 29.62 62.50 28.50 61.74 C 29.03 61.62 30.09 61.38 30.62 61.26 C 31.22 61.56 32.42 62.17 33.02 62.48 C 33.55 62.71 34.60 63.19 35.13 63.42 C 36.83 63.86 38.48 64.46 40.12 65.07 C 40.74 64.34 41.38 63.62 42.02 62.91 C 43.91 63.04 44.78 64.86 45.94 66.08 C 49.18 70.43 55.65 65.79 55.04 61.21 C 54.58 61.35 53.65 61.63 53.18 61.77 L 52.45 61.94 C 49.60 62.23 46.78 61.64 44.00 61.08 C 43.90 60.31 43.70 58.78 43.60 58.01 Z" />
<path fill="#f4deba" opacity="1.00" d=" M 28.64 74.57 C 31.95 73.47 35.30 72.34 38.79 71.97 C 37.04 74.87 32.75 74.27 29.83 75.16 C 29.53 75.01 28.94 74.72 28.64 74.57 Z" />
<path fill="#f4deba" opacity="1.00" d=" M 77.95 147.72 C 78.38 147.73 79.25 147.74 79.69 147.74 C 79.17 147.94 78.15 148.32 77.63 148.51 L 77.95 147.72 Z" />
</g>
<g id="#daba97ff">
<path fill="#daba97" opacity="1.00" d=" M 84.52 40.71 C 86.52 39.73 88.57 38.83 90.63 37.97 C 90.63 38.28 90.65 38.88 90.66 39.19 C 89.76 40.32 88.76 41.37 87.78 42.44 C 86.68 41.89 85.59 41.32 84.52 40.71 Z" />
<path fill="#daba97" opacity="1.00" d=" M 105.96 138.28 C 104.49 134.79 104.71 129.49 108.67 127.81 C 112.22 131.17 109.16 135.96 105.96 138.28 Z" />
</g>
<g id="#0b0a07b1">
<path fill="#0b0a07" opacity="0.69" d=" M 22.98 42.74 C 20.12 42.31 23.89 39.24 24.14 42.01 C 23.85 42.19 23.27 42.56 22.98 42.74 Z" />
</g>
<g id="#836541ff">
<path fill="#836541" opacity="1.00" d=" M 57.98 41.25 C 58.60 41.13 59.83 40.87 60.45 40.74 C 60.56 43.06 60.61 45.38 60.61 47.71 C 59.86 47.92 58.36 48.35 57.60 48.57 C 57.39 46.52 57.21 44.46 57.13 42.40 L 57.10 41.42 L 57.98 41.25 Z" />
</g>
<g id="#bd8c4aff">
<path fill="#bd8c4a" opacity="1.00" d=" M 77.93 43.24 C 79.91 42.19 81.99 41.36 84.04 40.44 L 84.52 40.71 C 85.59 41.32 86.68 41.89 87.78 42.44 C 90.74 43.33 93.85 43.30 96.89 42.91 C 96.09 44.04 95.30 45.16 94.51 46.30 C 96.36 46.52 98.20 46.78 100.04 47.06 C 98.73 47.83 97.40 48.58 95.94 49.02 C 93.43 49.70 91.09 50.80 88.88 52.15 C 90.26 52.64 91.65 53.12 93.05 53.59 C 90.13 54.22 87.31 55.22 84.51 56.27 C 78.75 57.10 73.08 58.56 67.61 60.55 C 67.60 60.93 67.57 61.68 67.55 62.05 C 72.04 62.19 76.43 63.18 80.73 64.43 C 79.26 65.13 77.79 65.83 76.33 66.52 C 77.53 68.34 78.74 70.15 79.97 71.96 C 79.21 72.26 78.46 72.58 77.71 72.93 C 75.45 71.00 73.37 68.79 70.75 67.34 C 66.88 65.44 62.43 65.78 58.33 64.75 C 56.99 63.10 56.13 61.10 54.72 59.49 C 50.98 59.32 47.18 59.31 43.60 58.01 L 43.69 56.64 C 43.72 56.43 43.78 56.00 43.80 55.78 C 48.06 59.34 53.99 58.18 58.87 56.83 C 61.05 56.40 61.01 53.71 61.84 52.07 C 63.57 51.20 65.31 50.37 67.08 49.61 C 65.17 49.46 63.29 49.13 61.45 48.58 C 63.54 47.02 64.78 44.68 65.89 42.39 C 66.01 42.75 66.23 43.45 66.35 43.80 C 67.35 42.71 68.35 41.61 69.35 40.50 C 69.82 41.59 70.28 42.68 70.74 43.77 C 71.83 43.26 72.93 42.77 74.04 42.30 C 73.97 43.11 73.84 44.73 73.77 45.54 C 75.15 44.76 76.54 43.99 77.93 43.24 Z" />
<path fill="#bd8c4a" opacity="1.00" d=" M 84.98 90.44 C 90.73 93.48 96.40 96.69 102.37 99.26 C 103.12 106.94 104.66 114.97 102.54 122.55 C 101.16 121.40 100.24 118.85 98.08 119.22 C 95.33 119.73 93.94 122.37 92.63 124.54 C 91.13 123.86 89.62 123.19 88.21 122.34 C 86.02 120.62 84.05 118.63 82.19 116.55 C 84.16 114.53 86.90 112.80 87.64 109.92 C 88.45 103.27 85.31 97.02 84.98 90.44 Z" />
</g>
<g id="#fee6c2ff">
<path fill="#fee6c2" opacity="1.00" d=" M 22.98 42.74 C 23.27 42.56 23.85 42.19 24.14 42.01 L 24.43 42.30 C 26.16 44.08 27.97 45.77 29.91 47.32 C 30.13 47.55 30.57 48.03 30.79 48.27 C 31.21 49.21 31.89 49.88 32.83 50.28 C 33.10 50.51 33.64 50.97 33.91 51.20 C 34.31 52.20 34.71 53.19 35.09 54.19 C 34.52 54.19 33.36 54.17 32.78 54.16 C 30.96 51.91 29.22 49.60 27.22 47.50 C 25.80 45.92 24.47 44.26 22.98 42.74 Z" />
<path fill="#fee6c2" opacity="1.00" d=" M 77.98 74.17 C 84.20 71.27 91.29 72.41 97.91 72.57 C 105.13 73.38 112.50 73.19 119.59 74.93 C 108.59 75.63 97.51 75.07 86.50 75.93 C 84.57 75.96 82.64 76.04 80.72 76.14 C 79.80 75.49 78.89 74.83 77.98 74.17 Z" />
<path fill="#fee6c2" opacity="1.00" d=" M 42.67 85.53 C 42.96 85.61 43.55 85.79 43.84 85.87 C 45.54 90.10 44.06 94.69 44.89 99.06 C 45.53 101.89 47.52 104.22 47.91 107.14 C 47.46 106.87 46.55 106.35 46.09 106.08 C 44.30 104.59 42.81 102.51 43.11 100.05 C 43.43 95.20 43.57 90.33 42.67 85.53 Z" />
</g>
<g id="#d7b996ff">
<path fill="#d7b996" opacity="1.00" d=" M 157.80 44.77 C 161.12 46.17 164.12 48.18 167.05 50.26 C 167.24 50.41 167.61 50.73 167.80 50.88 C 170.23 53.31 172.67 55.73 175.12 58.15 C 175.27 58.33 175.58 58.68 175.73 58.85 C 177.67 61.75 179.61 64.66 181.81 67.38 C 182.15 67.89 182.47 68.43 182.76 68.98 C 186.31 75.89 189.83 82.92 191.17 90.66 C 189.30 90.82 187.44 91.01 185.57 91.23 C 184.57 84.42 183.26 77.35 179.06 71.69 C 178.83 71.30 178.39 70.51 178.16 70.12 C 177.07 67.75 175.65 65.55 173.97 63.56 C 173.35 62.74 172.79 61.89 172.24 61.03 C 171.10 59.04 169.51 57.37 167.86 55.79 C 167.63 55.55 167.17 55.06 166.94 54.82 C 166.13 53.78 165.14 52.92 164.06 52.18 C 163.63 51.74 162.76 50.84 162.33 50.39 C 161.91 50.01 161.06 49.24 160.64 48.86 C 160.25 48.68 159.49 48.31 159.11 48.13 C 158.78 47.29 158.12 45.61 157.80 44.77 Z" />
<path fill="#d7b996" opacity="1.00" d=" M 84.02 132.66 C 82.80 128.99 84.42 124.57 88.38 123.53 C 88.28 125.26 88.20 126.99 88.02 128.71 C 87.19 130.46 85.71 131.76 84.02 132.66 Z" />
</g>
<g id="#2d251eff">
<path fill="#2d251e" opacity="1.00" d=" M 30.79 48.27 C 32.57 47.87 33.25 48.54 32.83 50.28 C 31.89 49.88 31.21 49.21 30.79 48.27 Z" />
<path fill="#2d251e" opacity="1.00" d=" M 110.53 53.96 C 117.93 50.54 126.26 50.09 134.29 50.18 C 134.06 50.48 133.60 51.08 133.37 51.37 C 132.26 51.48 131.16 51.56 130.05 51.61 C 120.70 51.76 110.00 53.20 103.99 61.24 C 103.30 64.70 104.69 68.35 104.82 71.88 C 107.33 71.96 109.84 72.02 112.34 72.30 C 116.05 73.09 119.80 73.59 123.52 74.31 C 121.81 76.05 119.28 76.09 116.99 76.20 C 113.55 76.30 110.11 76.45 106.68 76.68 C 101.74 76.76 96.81 76.71 91.89 76.94 C 90.07 76.72 88.29 76.32 86.50 75.93 C 97.51 75.07 108.59 75.63 119.59 74.93 C 112.50 73.19 105.13 73.38 97.91 72.57 C 91.29 72.41 84.20 71.27 77.98 74.17 C 75.98 75.19 73.98 76.23 71.85 76.99 C 73.52 75.26 75.57 73.98 77.71 72.93 C 78.46 72.58 79.21 72.26 79.97 71.96 C 87.63 69.96 95.58 71.42 103.35 71.71 C 103.53 68.23 102.52 64.85 102.40 61.41 C 104.36 58.24 107.67 56.23 110.53 53.96 Z" />
<path fill="#2d251e" opacity="1.00" d=" M 182.76 68.98 C 188.23 74.76 190.23 83.02 192.19 90.56 C 192.86 100.53 193.75 110.91 190.49 120.55 C 189.34 123.54 188.38 126.82 185.95 129.06 C 190.13 121.39 192.22 112.75 191.98 104.01 C 191.93 100.31 192.44 96.48 191.22 92.91 C 190.21 91.64 188.59 90.90 187.04 91.72 C 185.59 93.19 186.10 95.38 186.24 97.21 C 186.31 97.48 186.44 98.04 186.51 98.32 C 186.31 99.15 185.91 100.81 185.71 101.65 C 186.17 101.67 187.10 101.73 187.56 101.75 C 185.05 104.67 184.75 108.62 183.56 112.13 L 183.03 111.73 C 184.11 106.89 185.46 102.02 185.41 97.01 C 184.94 91.44 184.11 85.88 182.57 80.49 C 181.66 77.45 179.88 74.76 179.06 71.69 C 183.26 77.35 184.57 84.42 185.57 91.23 C 187.44 91.01 189.30 90.82 191.17 90.66 C 189.83 82.92 186.31 75.89 182.76 68.98 Z" />
<path fill="#2d251e" opacity="1.00" d=" M 43.70 77.92 C 44.13 81.15 44.45 84.51 45.88 87.50 C 46.11 87.95 46.58 88.85 46.81 89.30 C 44.58 92.89 45.97 97.36 46.90 101.16 C 47.76 103.72 49.89 105.45 52.09 106.87 C 51.70 106.86 50.93 106.83 50.55 106.82 C 49.99 106.57 48.88 106.07 48.32 105.82 L 47.91 107.14 C 47.52 104.22 45.53 101.89 44.89 99.06 C 44.06 94.69 45.54 90.10 43.84 85.87 C 43.84 83.22 43.76 80.57 43.70 77.92 Z" />
<path fill="#2d251e" opacity="1.00" d=" M 140.92 100.40 C 141.69 100.87 142.45 101.34 143.22 101.81 C 141.75 102.01 140.40 103.21 140.68 104.80 C 139.97 103.86 139.30 102.89 138.69 101.89 C 138.71 101.63 138.75 101.12 138.77 100.86 C 139.31 101.15 140.39 101.73 140.94 102.02 C 140.93 101.61 140.93 100.80 140.92 100.40 Z" />
<path fill="#2d251e" opacity="1.00" d=" M 62.82 111.74 C 65.56 112.74 67.73 114.98 68.07 117.96 C 66.33 115.88 64.14 114.15 62.82 111.74 Z" />
<path fill="#2d251e" opacity="1.00" d=" M 42.36 120.61 C 42.38 119.16 42.40 117.71 42.70 116.29 L 42.97 117.45 C 43.52 120.38 46.40 117.97 48.09 117.66 C 49.07 118.24 50.05 118.82 51.02 119.41 C 48.13 119.78 45.25 120.22 42.36 120.61 Z" />
<path fill="#2d251e" opacity="1.00" d=" M 92.63 124.54 C 93.94 122.37 95.33 119.73 98.08 119.22 C 100.24 118.85 101.16 121.40 102.54 122.55 C 102.04 124.81 102.46 127.05 103.79 128.95 C 105.75 128.23 108.06 126.32 110.11 127.85 C 111.65 129.43 112.13 131.94 110.85 133.83 C 109.55 135.97 108.08 139.34 104.98 138.59 C 102.77 138.54 100.60 139.04 98.41 139.31 C 93.51 138.46 90.49 134.58 88.16 130.55 C 86.81 131.65 85.87 133.73 84.04 134.01 C 79.63 130.35 83.74 123.75 88.21 122.34 C 89.62 123.19 91.13 123.86 92.63 124.54 M 96.30 120.91 C 94.38 122.78 93.94 125.43 94.17 128.00 C 96.08 127.99 97.31 126.48 98.40 125.14 C 98.76 125.20 99.49 125.31 99.85 125.37 C 97.94 127.18 96.27 129.69 93.43 129.99 C 92.99 126.96 91.43 124.42 88.38 123.53 C 84.42 124.57 82.80 128.99 84.02 132.66 C 85.71 131.76 87.19 130.46 88.02 128.71 C 88.44 128.64 89.28 128.49 89.71 128.41 C 89.67 129.04 89.60 130.30 89.56 130.93 C 91.34 133.77 93.38 136.93 96.95 137.59 C 99.75 138.59 104.45 137.86 104.29 134.07 C 105.24 131.47 103.74 129.42 101.54 128.18 C 101.36 126.07 101.21 123.95 101.07 121.83 L 100.89 122.05 C 99.70 121.19 97.66 119.17 96.30 120.91 M 105.96 138.28 C 109.16 135.96 112.22 131.17 108.67 127.81 C 104.71 129.49 104.49 134.79 105.96 138.28 Z" />
</g>
<g id="#c5924dff">
<path fill="#c5924d" opacity="1.00" d=" M 110.12 49.48 C 118.39 47.49 127.07 47.19 135.46 48.64 C 135.17 49.03 134.58 49.80 134.29 50.18 C 126.26 50.09 117.93 50.54 110.53 53.96 C 107.71 53.80 104.89 53.54 102.09 53.11 C 104.54 51.46 107.25 50.20 110.12 49.48 Z" />
</g>
<g id="#cba773ff">
<path fill="#cba773" opacity="1.00" d=" M 44.78 55.22 C 50.00 52.30 55.46 49.44 61.45 48.58 C 63.29 49.13 65.17 49.46 67.08 49.61 C 65.31 50.37 63.57 51.20 61.84 52.07 C 61.01 53.71 61.05 56.40 58.87 56.83 C 53.99 58.18 48.06 59.34 43.80 55.78 L 44.78 55.22 Z" />
</g>
<g id="#93683aff">
<path fill="#93683a" opacity="1.00" d=" M 88.88 52.15 C 91.09 50.80 93.43 49.70 95.94 49.02 C 95.78 49.41 95.48 50.19 95.32 50.57 C 97.40 50.72 99.49 50.87 101.57 51.03 C 99.88 53.23 98.26 55.48 96.93 57.91 C 98.67 56.33 100.32 54.66 102.09 53.11 C 104.89 53.54 107.71 53.80 110.53 53.96 C 107.67 56.23 104.36 58.24 102.40 61.41 C 102.52 64.85 103.53 68.23 103.35 71.71 C 95.58 71.42 87.63 69.96 79.97 71.96 C 78.74 70.15 77.53 68.34 76.33 66.52 C 77.79 65.83 79.26 65.13 80.73 64.43 C 82.71 64.91 84.71 65.35 86.71 65.75 C 87.37 63.09 87.05 60.37 86.51 57.74 C 87.39 57.36 88.28 57.02 89.19 56.73 C 87.63 56.56 86.07 56.41 84.51 56.27 C 87.31 55.22 90.13 54.22 93.05 53.59 C 91.65 53.12 90.26 52.64 88.88 52.15 Z" />
</g>
<g id="#966b3aff">
<path fill="#966b3a" opacity="1.00" d=" M 135.46 48.64 C 136.86 48.94 138.23 49.35 139.62 49.73 C 138.24 51.42 136.95 53.17 135.69 54.95 C 134.92 56.01 134.06 57.01 133.36 58.13 C 132.57 59.68 134.04 60.87 134.78 62.05 C 135.65 63.35 136.43 64.71 137.27 66.04 C 136.89 66.47 136.14 67.32 135.76 67.75 C 133.76 67.63 131.76 67.54 129.76 67.49 L 129.95 66.57 C 130.79 61.62 130.56 56.58 130.05 51.61 C 131.16 51.56 132.26 51.48 133.37 51.37 C 133.60 51.08 134.06 50.48 134.29 50.18 C 134.58 49.80 135.17 49.03 135.46 48.64 Z" />
</g>
<g id="#28221bb0">
<path fill="#28221b" opacity="0.69" d=" M 162.33 50.39 C 161.41 51.91 158.64 49.38 160.64 48.86 C 161.06 49.24 161.91 50.01 162.33 50.39 Z" />
</g>
<g id="#d9bd99ff">
<path fill="#d9bd99" opacity="1.00" d=" M 33.91 51.20 C 35.06 51.87 35.92 52.91 36.72 53.95 C 38.47 56.71 41.66 59.07 41.22 62.67 C 41.00 63.02 40.56 63.72 40.35 64.06 C 37.95 60.67 35.34 57.43 32.78 54.16 C 33.36 54.17 34.52 54.19 35.09 54.19 C 34.71 53.19 34.31 52.20 33.91 51.20 Z" />
<path fill="#d9bd99" opacity="1.00" d=" M 34.12 129.77 C 30.40 126.48 33.45 121.18 36.43 118.49 C 36.68 120.52 37.02 122.54 37.38 124.56 C 36.31 126.30 35.41 128.16 34.12 129.77 Z" />
</g>
<g id="#352e25bc">
<path fill="#352e25" opacity="0.74" d=" M 167.80 50.88 C 171.05 52.19 173.57 55.06 175.12 58.15 C 172.67 55.73 170.23 53.31 167.80 50.88 Z" />
</g>
<g id="#79614cff">
<path fill="#79614c" opacity="1.00" d=" M 103.99 61.24 C 110.00 53.20 120.70 51.76 130.05 51.61 C 130.56 56.58 130.79 61.62 129.95 66.57 C 123.69 66.34 117.12 68.12 112.34 72.30 C 109.84 72.02 107.33 71.96 104.82 71.88 C 104.69 68.35 103.30 64.70 103.99 61.24 Z" />
<path fill="#79614c" opacity="1.00" d=" M 191.22 92.91 C 192.44 96.48 191.93 100.31 191.98 104.01 L 190.90 103.70 C 190.19 103.14 189.49 102.57 188.80 101.98 C 189.48 101.62 190.85 100.90 191.54 100.54 C 190.31 98.90 188.56 98.09 186.51 98.32 C 186.44 98.04 186.31 97.48 186.24 97.21 C 187.92 97.22 189.60 97.25 191.29 97.27 C 191.28 95.82 191.25 94.36 191.22 92.91 Z" />
</g>
<g id="#211b168d">
<path fill="#211b16" opacity="0.55" d=" M 164.06 52.18 C 165.14 52.92 166.13 53.78 166.94 54.82 C 165.50 56.25 162.68 53.73 164.06 52.18 Z" />
</g>
<g id="#3c3329cc">
<path fill="#3c3329" opacity="0.80" d=" M 167.86 55.79 C 169.51 57.37 171.10 59.04 172.24 61.03 C 170.20 59.86 168.70 57.98 167.86 55.79 Z" />
</g>
<g id="#ffffffff">
<path fill="#ffffff" opacity="1.00" d=" M 81.84 61.01 C 84.68 61.01 83.46 58.74 82.17 57.54 C 86.66 56.15 85.69 61.96 86.56 64.48 C 83.84 64.97 81.35 63.50 78.72 63.10 C 78.52 61.15 78.92 59.38 79.92 57.78 C 80.59 58.84 81.20 59.93 81.84 61.01 Z" />
<path fill="#ffffff" opacity="1.00" d=" M 72.03 59.84 C 73.63 59.34 74.19 59.92 73.71 61.58 C 72.12 62.04 71.56 61.46 72.03 59.84 Z" />
<path fill="#ffffff" opacity="1.00" d=" M 44.46 70.90 C 48.59 71.74 52.78 71.19 56.94 71.27 C 59.02 71.57 59.14 74.42 58.16 75.84 C 56.03 80.25 54.46 84.89 53.55 89.70 C 52.58 89.58 50.65 89.35 49.69 89.23 C 49.29 86.70 48.90 84.16 48.33 81.66 C 48.29 84.04 48.37 86.42 48.35 88.79 C 47.73 88.47 46.50 87.82 45.88 87.50 C 44.45 84.51 44.13 81.15 43.70 77.92 C 43.73 75.58 43.27 73.04 44.46 70.90 Z" />
<path fill="#ffffff" opacity="1.00" d=" M 82.64 81.08 C 85.99 80.80 89.28 80.08 92.58 79.46 C 96.68 79.47 100.80 79.72 104.77 80.81 C 97.49 82.30 90.00 81.17 82.64 81.08 Z" />
<path fill="#ffffff" opacity="1.00" d=" M 46.90 101.16 C 45.97 97.36 44.58 92.89 46.81 89.30 C 47.29 89.43 48.25 89.70 48.73 89.83 C 48.79 91.69 48.94 93.54 49.24 95.38 C 49.43 93.67 49.59 91.95 49.72 90.24 C 50.62 90.43 52.44 90.82 53.35 91.02 C 53.89 94.72 54.77 98.44 56.69 101.69 C 55.51 101.26 54.33 100.85 53.16 100.40 C 52.53 101.18 51.91 101.97 51.28 102.77 C 50.34 101.57 49.41 100.37 48.49 99.17 C 48.09 99.67 47.30 100.66 46.90 101.16 Z" />
</g>
<g id="#2a231cbb">
<path fill="#2a231c" opacity="0.73" d=" M 175.73 58.85 C 177.93 59.66 178.90 61.94 180.28 63.65 C 180.92 64.81 182.33 65.89 181.81 67.38 C 179.61 64.66 177.67 61.75 175.73 58.85 Z" />
</g>
<g id="#120f0dad">
<path fill="#120f0d" opacity="0.68" d=" M 28.50 61.74 C 25.92 60.43 31.04 58.57 30.62 61.26 C 30.09 61.38 29.03 61.62 28.50 61.74 Z" />
</g>
<g id="#c3ad8aff">
<path fill="#c3ad8a" opacity="1.00" d=" M 44.00 61.08 C 46.78 61.64 49.60 62.23 52.45 61.94 C 51.49 62.87 49.73 63.92 50.17 65.50 C 51.63 65.63 54.52 63.26 53.18 61.77 C 53.65 61.63 54.58 61.35 55.04 61.21 C 55.65 65.79 49.18 70.43 45.94 66.08 C 45.11 64.49 44.49 62.80 44.00 61.08 Z" />
</g>
<g id="#14110ea4">
<path fill="#14110e" opacity="0.64" d=" M 33.02 62.48 C 33.52 60.73 37.06 62.38 35.13 63.42 C 34.60 63.19 33.55 62.71 33.02 62.48 Z" />
</g>
<g id="#40382cff">
<path fill="#40382c" opacity="1.00" d=" M 52.45 61.94 L 53.18 61.77 C 54.52 63.26 51.63 65.63 50.17 65.50 C 49.73 63.92 51.49 62.87 52.45 61.94 Z" />
</g>
<g id="#0000007c">
<path fill="#000000" opacity="0.49" d=" M 31.82 64.07 C 31.85 64.09 31.93 64.14 31.96 64.17 C 31.93 64.14 31.85 64.09 31.82 64.07 Z" />
</g>
<g id="#28221bb4">
<path fill="#28221b" opacity="0.71" d=" M 173.97 63.56 C 175.65 65.55 177.07 67.75 178.16 70.12 C 176.03 68.52 174.49 66.18 173.97 63.56 Z" />
</g>
<g id="#af9677ff">
<path fill="#af9677" opacity="1.00" d=" M 112.34 72.30 C 117.12 68.12 123.69 66.34 129.95 66.57 L 129.76 67.49 C 128.07 72.60 124.51 77.16 119.73 79.73 C 116.39 81.56 112.45 80.68 108.87 80.24 C 108.09 79.08 107.39 77.88 106.68 76.68 C 110.11 76.45 113.55 76.30 116.99 76.20 C 119.28 76.09 121.81 76.05 123.52 74.31 C 119.80 73.59 116.05 73.09 112.34 72.30 Z" />
<path fill="#af9677" opacity="1.00" d=" M 42.22 162.93 C 46.29 161.21 50.27 159.21 54.57 158.10 C 52.70 160.94 49.59 162.31 46.72 163.91 C 46.30 164.15 45.45 164.63 45.03 164.87 C 43.87 165.49 42.70 166.11 41.52 166.73 C 41.73 165.45 41.96 164.19 42.22 162.93 Z" />
</g>
<g id="#bd8b49ff">
<path fill="#bd8b49" opacity="1.00" d=" M 129.76 67.49 C 131.76 67.54 133.76 67.63 135.76 67.75 C 133.95 69.93 131.69 71.70 129.96 73.94 C 128.82 76.76 128.67 80.23 126.04 82.21 C 121.98 85.84 115.90 85.39 111.38 82.92 C 110.54 82.03 109.69 81.15 108.87 80.24 C 112.45 80.68 116.39 81.56 119.73 79.73 C 124.51 77.16 128.07 72.60 129.76 67.49 Z" />
</g>
<g id="#755938ff">
<path fill="#755938" opacity="1.00" d=" M 80.72 76.14 C 82.64 76.04 84.57 75.96 86.50 75.93 C 88.29 76.32 90.07 76.72 91.89 76.94 L 91.94 78.02 C 90.45 78.28 88.99 78.66 87.51 78.96 C 85.25 79.04 82.99 79.09 80.74 79.12 C 81.38 78.57 81.99 77.99 82.56 77.36 C 82.27 77.18 81.71 76.81 81.43 76.63 L 80.72 76.14 Z" />
</g>
<g id="#9a7680ff">
<path fill="#9a7680" opacity="1.00" d=" M 54.85 88.06 C 56.39 84.09 56.56 79.18 59.90 76.21 C 62.33 82.50 64.73 88.89 65.55 95.63 C 62.23 95.62 58.90 95.68 55.58 95.80 C 54.80 93.31 53.65 90.63 54.85 88.06 Z" />
</g>
<g id="#403424ff">
<path fill="#403424" opacity="1.00" d=" M 78.13 78.20 C 78.98 77.24 80.08 76.72 81.43 76.63 C 81.71 76.81 82.27 77.18 82.56 77.36 C 81.99 77.99 81.38 78.57 80.74 79.12 C 79.55 79.36 78.68 79.06 78.13 78.20 Z" />
</g>
<g id="#94693aff">
<path fill="#94693a" opacity="1.00" d=" M 91.89 76.94 C 96.81 76.71 101.74 76.76 106.68 76.68 C 107.39 77.88 108.09 79.08 108.87 80.24 C 109.69 81.15 110.54 82.03 111.38 82.92 C 111.45 83.22 111.61 83.80 111.69 84.09 C 115.09 85.49 118.92 86.41 122.55 85.44 C 125.05 84.32 127.31 82.62 130.11 82.28 C 129.92 83.28 129.74 84.29 129.58 85.30 C 131.16 85.98 132.73 86.68 134.30 87.39 C 135.14 89.00 135.80 90.85 137.41 91.88 C 137.81 92.15 138.61 92.68 139.02 92.95 C 139.43 93.26 140.26 93.89 140.67 94.21 C 141.04 94.48 141.76 95.03 142.12 95.30 C 142.17 95.77 142.27 96.70 142.32 97.17 C 141.60 97.54 140.16 98.27 139.44 98.64 L 139.09 98.79 C 139.01 99.31 138.85 100.35 138.77 100.86 C 138.75 101.12 138.71 101.63 138.69 101.89 C 139.30 102.89 139.97 103.86 140.68 104.80 C 140.83 105.00 141.14 105.38 141.29 105.58 C 141.69 106.15 142.48 107.28 142.87 107.85 C 143.10 108.52 143.57 109.86 143.80 110.52 C 143.54 111.33 143.01 112.93 142.74 113.74 C 141.91 112.86 141.09 111.96 140.27 111.08 C 140.69 113.63 140.93 116.20 141.08 118.78 C 140.12 118.32 139.16 117.87 138.21 117.41 C 138.10 119.39 137.98 121.38 137.87 123.36 C 137.37 123.44 136.39 123.60 135.90 123.68 C 136.57 127.65 137.55 131.55 138.65 135.42 C 139.97 135.37 141.30 135.26 142.63 135.22 C 142.95 136.59 143.29 137.97 143.62 139.34 C 144.40 139.40 145.19 139.45 145.97 139.51 C 145.63 141.82 145.45 144.18 145.84 146.51 C 144.75 149.41 143.36 152.18 141.86 154.89 C 141.71 155.11 141.41 155.54 141.26 155.76 C 137.77 158.43 134.86 161.86 130.98 164.01 C 120.77 169.86 108.37 171.12 96.90 169.47 C 102.30 169.18 108.60 167.17 110.79 161.70 C 113.49 156.46 111.85 150.49 109.75 145.38 C 107.96 143.25 105.74 141.40 104.98 138.59 C 108.08 139.34 109.55 135.97 110.85 133.83 C 112.13 131.94 111.65 129.43 110.11 127.85 C 108.06 126.32 105.75 128.23 103.79 128.95 C 102.46 127.05 102.04 124.81 102.54 122.55 C 104.66 114.97 103.12 106.94 102.37 99.26 C 104.89 100.30 107.59 100.69 110.30 100.82 C 106.28 96.52 100.67 94.45 95.78 91.38 L 97.34 91.26 C 95.22 88.56 93.20 85.76 91.71 82.65 C 96.92 82.73 102.30 83.17 107.27 81.27 C 102.79 78.37 97.09 78.47 91.94 78.02 L 91.89 76.94 Z" />
</g>
<g id="#bf8d4aff">
<path fill="#bf8d4a" opacity="1.00" d=" M 83.20 83.13 C 85.78 81.73 88.91 82.82 91.71 82.65 C 93.20 85.76 95.22 88.56 97.34 91.26 L 95.78 91.38 C 91.58 88.88 87.35 86.44 83.04 84.15 C 83.08 83.89 83.16 83.38 83.20 83.13 Z" />
</g>
<g id="#e2cbb1ff">
<path fill="#e2cbb1" opacity="1.00" d=" M 187.04 91.72 C 188.59 90.90 190.21 91.64 191.22 92.91 C 191.25 94.36 191.28 95.82 191.29 97.27 C 189.60 97.25 187.92 97.22 186.24 97.21 C 186.10 95.38 185.59 93.19 187.04 91.72 Z" />
</g>
<g id="#23190ec4">
<path fill="#23190e" opacity="0.77" d=" M 139.02 92.95 L 139.92 92.65 L 140.77 93.31 L 140.67 94.21 C 140.26 93.89 139.43 93.26 139.02 92.95 Z" />
</g>
<g id="#22170dd1">
<path fill="#22170d" opacity="0.82" d=" M 142.12 95.30 L 142.80 94.88 C 144.97 94.74 144.08 98.70 142.32 97.17 C 142.27 96.70 142.17 95.77 142.12 95.30 Z" />
</g>
<g id="#c899aeff">
<path fill="#c899ae" opacity="1.00" d=" M 55.58 95.80 C 58.90 95.68 62.23 95.62 65.55 95.63 L 66.13 95.62 C 65.62 99.54 63.88 103.12 61.73 106.37 C 58.45 103.76 56.96 99.62 55.58 95.80 Z" />
</g>
<g id="#a47741ff">
<path fill="#a47741" opacity="1.00" d=" M 139.09 98.79 L 139.44 98.64 C 139.81 99.08 140.55 99.96 140.92 100.40 C 140.93 100.80 140.93 101.61 140.94 102.02 C 140.39 101.73 139.31 101.15 138.77 100.86 C 138.85 100.35 139.01 99.31 139.09 98.79 Z" />
<path fill="#a47741" opacity="1.00" d=" M 140.27 111.08 C 141.09 111.96 141.91 112.86 142.74 113.74 C 143.01 112.93 143.54 111.33 143.80 110.52 C 149.31 121.61 150.58 134.91 145.84 146.51 C 145.45 144.18 145.63 141.82 145.97 139.51 C 145.19 139.45 144.40 139.40 143.62 139.34 C 143.29 137.97 142.95 136.59 142.63 135.22 C 141.30 135.26 139.97 135.37 138.65 135.42 C 137.55 131.55 136.57 127.65 135.90 123.68 C 136.39 123.60 137.37 123.44 137.87 123.36 C 137.98 121.38 138.10 119.39 138.21 117.41 C 139.16 117.87 140.12 118.32 141.08 118.78 C 140.93 116.20 140.69 113.63 140.27 111.08 Z" />
</g>
<g id="#e1cab0ff">
<path fill="#e1cab0" opacity="1.00" d=" M 186.51 98.32 C 188.56 98.09 190.31 98.90 191.54 100.54 C 190.85 100.90 189.48 101.62 188.80 101.98 C 189.49 102.57 190.19 103.14 190.90 103.70 C 189.67 106.65 188.94 109.76 188.28 112.88 C 187.70 113.82 187.12 114.76 186.52 115.69 C 186.26 115.53 185.74 115.22 185.48 115.07 C 185.58 113.69 185.69 112.32 185.79 110.95 C 185.52 111.45 184.97 112.45 184.69 112.95 C 184.41 112.75 183.84 112.34 183.56 112.13 C 184.75 108.62 185.05 104.67 187.56 101.75 C 187.10 101.73 186.17 101.67 185.71 101.65 C 185.91 100.81 186.31 99.15 186.51 98.32 Z" />
</g>
<g id="#d8d9e2ff">
<path fill="#d8d9e2" opacity="1.00" d=" M 48.49 99.17 C 49.41 100.37 50.34 101.57 51.28 102.77 C 51.91 101.97 52.53 101.18 53.16 100.40 C 54.33 100.85 55.51 101.26 56.69 101.69 C 57.95 103.75 59.34 105.71 60.65 107.73 C 57.77 107.83 54.90 107.51 52.09 106.87 C 49.89 105.45 47.76 103.72 46.90 101.16 C 47.30 100.66 48.09 99.67 48.49 99.17 Z" />
</g>
<g id="#a0886eff">
<path fill="#a0886e" opacity="1.00" d=" M 190.90 103.70 L 191.98 104.01 C 192.22 112.75 190.13 121.39 185.95 129.06 C 183.98 133.59 180.77 137.52 177.00 140.67 L 175.04 141.32 C 175.08 139.52 175.14 137.74 175.21 135.95 C 177.37 133.33 179.51 130.69 181.56 128.00 C 181.99 128.63 182.42 129.27 182.83 129.92 C 182.75 129.29 182.58 128.02 182.50 127.38 C 184.82 122.72 187.58 118.14 188.28 112.88 C 188.94 109.76 189.67 106.65 190.90 103.70 Z" />
<path fill="#a0886e" opacity="1.00" d=" M 41.54 111.77 C 42.23 110.97 42.91 110.17 43.58 109.37 C 44.54 110.39 45.43 111.47 46.33 112.54 C 45.09 113.76 43.79 114.93 42.70 116.29 C 42.40 117.71 42.38 119.16 42.36 120.61 C 45.25 120.22 48.13 119.78 51.02 119.41 C 50.05 118.82 49.07 118.24 48.09 117.66 C 49.10 116.08 49.92 114.37 50.71 112.67 C 51.70 113.29 52.67 113.97 53.63 114.64 C 52.75 117.59 53.04 121.35 50.37 123.42 C 48.54 125.02 45.92 124.65 43.68 124.93 C 43.37 124.72 42.73 124.30 42.41 124.09 C 41.51 123.45 40.68 122.74 39.91 121.95 C 39.05 122.80 38.20 123.66 37.38 124.56 C 37.02 122.54 36.68 120.52 36.43 118.49 C 36.95 117.75 37.47 117.02 38.00 116.29 C 39.66 115.20 40.84 113.61 41.54 111.77 Z" />
<path fill="#a0886e" opacity="1.00" d=" M 100.89 122.05 L 101.07 121.83 C 101.21 123.95 101.36 126.07 101.54 128.18 C 103.74 129.42 105.24 131.47 104.29 134.07 C 104.45 137.86 99.75 138.59 96.95 137.59 C 93.38 136.93 91.34 133.77 89.56 130.93 C 89.60 130.30 89.67 129.04 89.71 128.41 C 89.28 128.49 88.44 128.64 88.02 128.71 C 88.20 126.99 88.28 125.26 88.38 123.53 C 91.43 124.42 92.99 126.96 93.43 129.99 C 96.27 129.69 97.94 127.18 99.85 125.37 C 99.49 125.31 98.76 125.20 98.40 125.14 C 99.24 124.12 100.06 123.08 100.89 122.05 Z" />
<path fill="#a0886e" opacity="1.00" d=" M 123.55 168.26 C 129.02 166.71 133.84 163.65 138.46 160.46 C 138.50 162.39 138.41 164.33 138.21 166.25 C 137.88 166.40 137.22 166.70 136.90 166.85 C 135.93 167.18 135.25 167.83 134.86 168.80 C 134.65 169.04 134.23 169.52 134.01 169.75 C 131.68 171.76 129.73 174.19 128.67 177.10 C 128.23 178.46 126.84 179.02 125.71 179.67 C 125.21 180.02 124.21 180.72 123.72 181.07 C 123.75 178.65 125.00 175.69 123.16 173.67 C 122.49 173.83 121.14 174.14 120.46 174.29 C 120.32 174.57 120.05 175.14 119.91 175.42 L 119.38 175.58 C 119.11 175.66 118.58 175.81 118.31 175.89 C 117.20 176.80 116.16 177.79 115.03 178.67 C 111.64 178.57 108.23 176.83 104.88 178.13 C 100.52 178.91 97.63 182.41 94.43 185.13 C 94.67 182.45 95.07 179.77 95.95 177.22 C 100.90 179.64 105.79 174.84 109.35 171.82 C 113.84 169.79 118.94 169.94 123.55 168.26 Z" />
</g>
<g id="#d6b895ff">
<path fill="#d6b895" opacity="1.00" d=" M 30.50 117.14 C 31.37 111.61 38.14 105.48 43.58 109.37 C 42.91 110.17 42.23 110.97 41.54 111.77 C 38.24 114.27 34.05 115.07 30.50 117.14 Z" />
</g>
<g id="#c4ad8bff">
<path fill="#c4ad8b" opacity="1.00" d=" M 53.46 110.65 C 59.49 110.42 65.58 110.40 71.47 108.91 C 70.29 112.94 70.86 118.67 66.06 120.38 C 62.39 120.10 59.42 117.72 56.50 115.73 C 56.48 115.32 56.45 114.50 56.43 114.09 C 56.42 113.66 56.40 112.80 56.40 112.37 C 55.42 111.80 54.44 111.23 53.46 110.65 M 59.74 111.70 C 60.46 114.20 62.13 116.22 63.92 118.04 C 63.51 115.42 62.42 112.70 59.74 111.70 M 62.82 111.74 C 64.14 114.15 66.33 115.88 68.07 117.96 C 67.73 114.98 65.56 112.74 62.82 111.74 Z" />
</g>
<g id="#d5b895ff">
<path fill="#d5b895" opacity="1.00" d=" M 185.79 110.95 C 185.69 112.32 185.58 113.69 185.48 115.07 C 185.74 115.22 186.26 115.53 186.52 115.69 C 187.12 114.76 187.70 113.82 188.28 112.88 C 187.58 118.14 184.82 122.72 182.50 127.38 C 180.70 126.28 178.90 125.19 176.98 124.31 C 179.53 121.29 181.29 117.72 182.30 113.91 C 182.49 113.37 182.85 112.28 183.03 111.73 L 183.56 112.13 C 183.84 112.34 184.41 112.75 184.69 112.95 C 184.97 112.45 185.52 111.45 185.79 110.95 Z" />
</g>
<g id="#796954ff">
<path fill="#796954" opacity="1.00" d=" M 59.74 111.70 C 62.42 112.70 63.51 115.42 63.92 118.04 C 62.13 116.22 60.46 114.20 59.74 111.70 Z" />
</g>
<g id="#e4ceb5ff">
<path fill="#e4ceb5" opacity="1.00" d=" M 42.97 117.45 C 44.82 114.94 47.34 112.52 50.71 112.67 C 49.92 114.37 49.10 116.08 48.09 117.66 C 46.40 117.97 43.52 120.38 42.97 117.45 Z" />
</g>
<g id="#e0cbb3ff">
<path fill="#e0cbb3" opacity="1.00" d=" M 96.30 120.91 C 97.66 119.17 99.70 121.19 100.89 122.05 C 100.06 123.08 99.24 124.12 98.40 125.14 C 97.31 126.48 96.08 127.99 94.17 128.00 C 93.94 125.43 94.38 122.78 96.30 120.91 Z" />
</g>
<g id="#d5b794ff">
<path fill="#d5b794" opacity="1.00" d=" M 170.23 131.61 C 172.45 129.56 174.39 127.18 176.90 125.46 C 178.71 125.72 180.19 126.87 181.56 128.00 C 179.51 130.69 177.37 133.33 175.21 135.95 C 173.62 134.42 171.96 132.97 170.23 131.61 Z" />
<path fill="#d5b794" opacity="1.00" d=" M 89.92 175.28 C 92.56 170.94 98.12 170.92 102.59 171.41 C 97.91 173.67 94.08 177.19 89.99 180.34 C 89.90 179.33 89.71 177.31 89.61 176.31 L 89.54 175.72 L 89.92 175.28 Z" />
</g>
<g id="#d5b693ff">
<path fill="#d5b693" opacity="1.00" d=" M 164.99 135.08 C 166.51 133.69 168.55 133.13 170.38 132.29 C 171.60 133.51 172.78 134.76 173.85 136.11 C 172.06 137.10 170.28 138.09 168.50 139.10 L 168.08 139.33 C 167.02 137.93 165.89 136.58 164.99 135.08 Z" />
</g>
<g id="#95826dff">
<path fill="#95826d" opacity="1.00" d=" M 158.02 137.74 C 160.12 136.85 162.28 136.08 164.53 135.60 L 164.27 137.11 C 163.60 138.68 165.04 140.13 166.62 139.89 L 167.88 139.98 C 167.80 141.98 167.78 144.02 167.11 145.93 C 165.61 147.99 163.07 148.75 160.83 149.68 C 162.02 145.50 162.41 140.22 158.02 137.74 Z" />
</g>
<g id="#a0896fff">
<path fill="#a0896f" opacity="1.00" d=" M 173.85 136.11 L 174.23 135.91 C 174.36 137.70 174.49 139.49 174.63 141.28 C 172.89 143.34 170.95 145.29 168.33 146.19 C 168.37 143.82 168.45 141.46 168.50 139.10 C 170.28 138.09 172.06 137.10 173.85 136.11 Z" />
</g>
<g id="#cdb08eff">
<path fill="#cdb08e" opacity="1.00" d=" M 164.27 137.11 L 164.82 136.81 C 166.08 136.93 167.47 138.72 166.62 139.89 C 165.04 140.13 163.60 138.68 164.27 137.11 Z" />
</g>
<g id="#c1aa8aff">
<path fill="#c1aa8a" opacity="1.00" d=" M 98.41 139.31 C 100.60 139.04 102.77 138.54 104.98 138.59 C 105.74 141.40 107.96 143.25 109.75 145.38 C 111.85 150.49 113.49 156.46 110.79 161.70 C 108.60 167.17 102.30 169.18 96.90 169.47 C 82.74 165.96 67.54 160.36 59.04 147.74 C 58.37 146.78 57.50 145.86 57.30 144.66 C 57.15 144.02 56.85 142.75 56.69 142.11 C 57.59 143.08 58.46 144.07 59.31 145.08 C 59.70 145.09 60.50 145.11 60.89 145.11 C 61.49 145.26 62.70 145.56 63.30 145.71 C 64.43 144.64 65.57 143.57 66.71 142.50 C 68.61 145.17 71.31 147.04 74.31 148.31 L 74.39 146.66 C 75.17 147.82 75.94 148.99 76.77 150.11 C 76.99 149.71 77.42 148.91 77.63 148.51 C 78.15 148.32 79.17 147.94 79.69 147.74 C 81.96 148.51 84.25 149.18 86.55 149.85 C 86.64 149.01 86.81 147.33 86.90 146.49 C 87.96 146.32 89.02 146.16 90.08 146.01 C 88.91 145.50 87.70 145.06 86.50 144.63 C 87.45 143.57 88.42 142.53 89.40 141.49 C 90.82 142.40 92.25 143.32 93.69 144.23 C 93.21 142.77 92.72 141.31 92.23 139.86 C 93.63 140.45 94.96 141.34 96.50 141.48 C 97.17 140.78 97.80 140.06 98.41 139.31 Z" />
</g>
<g id="#897b6bff">
<path fill="#897b6b" opacity="1.00" d=" M 148.95 139.42 C 151.67 139.47 154.21 138.30 156.91 138.13 C 160.15 139.65 161.31 143.63 160.68 146.97 C 160.63 150.14 157.07 150.95 154.76 152.03 C 151.80 152.59 148.81 153.03 145.94 153.96 C 145.66 153.50 145.10 152.58 144.82 152.12 C 146.53 148.00 148.48 143.93 148.95 139.42 Z" />
<path fill="#897b6b" opacity="1.00" d=" M 51.73 151.75 C 55.07 152.11 58.41 152.56 61.74 153.01 C 65.91 157.79 71.69 160.52 76.91 163.91 C 71.18 163.79 65.47 162.95 59.73 163.28 C 60.54 161.78 61.31 160.27 62.10 158.77 C 62.24 158.50 62.53 157.95 62.67 157.68 C 60.61 157.67 58.54 157.64 56.48 157.57 L 55.51 155.36 C 57.15 155.20 58.80 155.14 60.45 155.16 C 60.47 155.05 60.50 154.82 60.52 154.71 C 57.01 154.88 53.48 154.88 49.98 154.45 C 50.42 153.77 51.29 152.42 51.73 151.75 Z" />
</g>
<g id="#d7b998ff">
<path fill="#d7b998" opacity="1.00" d=" M 46.45 156.78 C 48.48 153.62 52.46 154.91 55.51 155.36 L 56.48 157.57 C 56.00 157.70 55.05 157.97 54.57 158.10 C 50.27 159.21 46.29 161.21 42.22 162.93 C 42.79 161.54 43.43 160.18 44.12 158.86 C 44.41 158.62 44.99 158.14 45.27 157.91 C 45.57 157.62 46.15 157.06 46.45 156.78 Z" />
</g>
<g id="#15120fab">
<path fill="#15120f" opacity="0.67" d=" M 45.09 156.39 L 45.97 156.17 L 46.45 156.78 C 46.15 157.06 45.57 157.62 45.27 157.91 C 45.23 157.53 45.13 156.77 45.09 156.39 Z" />
</g>
<g id="#d2b593ff">
<path fill="#d2b593" opacity="1.00" d=" M 55.16 158.66 C 57.47 158.69 59.78 158.77 62.10 158.77 C 61.31 160.27 60.54 161.78 59.73 163.28 C 58.01 163.60 56.52 164.55 55.47 165.96 L 55.20 166.25 L 54.91 166.51 C 53.58 167.67 52.28 168.87 50.94 170.03 C 51.10 165.86 52.79 162.03 55.16 158.66 Z" />
</g>
<g id="#0504037d">
<path fill="#050403" opacity="0.49" d=" M 134.86 168.80 C 135.25 167.83 135.93 167.18 136.90 166.85 C 137.29 168.57 136.62 169.22 134.86 168.80 Z" />
</g>
<g id="#2d261fdd">
<path fill="#2d261f" opacity="0.87" d=" M 128.67 177.10 C 129.73 174.19 131.68 171.76 134.01 169.75 C 132.45 172.29 131.47 175.68 128.67 177.10 Z" />
</g>
<g id="#dbbc98ff">
<path fill="#dbbc98" opacity="1.00" d=" M 95.95 177.22 C 98.62 174.77 101.72 172.77 104.96 171.17 C 106.44 171.27 107.90 171.49 109.35 171.82 C 105.79 174.84 100.90 179.64 95.95 177.22 Z" />
</g>
<g id="#d7ba96ff">
<path fill="#d7ba96" opacity="1.00" d=" M 120.46 174.29 C 121.14 174.14 122.49 173.83 123.16 173.67 C 125.00 175.69 123.75 178.65 123.72 181.07 C 123.34 183.07 121.46 184.26 120.20 185.70 C 118.38 187.47 116.64 189.31 114.76 191.01 L 114.82 189.67 C 114.97 187.38 115.06 185.08 115.38 182.80 C 115.53 183.67 115.84 185.43 116.00 186.30 C 118.62 185.31 120.18 183.09 121.03 180.52 C 120.30 180.39 118.84 180.12 118.11 179.99 C 118.71 178.47 119.29 176.94 119.91 175.42 C 120.05 175.14 120.32 174.57 120.46 174.29 Z" />
</g>
<g id="#e0cbb1ff">
<path fill="#e0cbb1" opacity="1.00" d=" M 119.38 175.58 L 119.91 175.42 C 119.29 176.94 118.71 178.47 118.11 179.99 C 118.84 180.12 120.30 180.39 121.03 180.52 C 120.18 183.09 118.62 185.31 116.00 186.30 C 115.84 185.43 115.53 183.67 115.38 182.80 C 115.52 179.87 117.35 177.51 119.38 175.58 Z" />
</g>
<g id="#352c24d1">
<path fill="#352c24" opacity="0.82" d=" M 114.76 191.01 C 116.64 189.31 118.38 187.47 120.20 185.70 C 119.37 187.89 118.17 189.94 116.66 191.73 C 115.86 191.93 115.23 191.68 114.76 191.01 Z" />
</g>
</svg>
