<?xml version="1.0" encoding="UTF-8" ?>
<!DOCTYPE svg PUBLIC "-//W3C//DTD SVG 1.1//EN" "http://www.w3.org/Graphics/SVG/1.1/DTD/svg11.dtd">
<svg width="215pt" height="215pt" viewBox="0 0 215 215" version="1.1" xmlns="http://www.w3.org/2000/svg">
<g id="#150f0b95">
<path fill="#150f0b" opacity="0.58" d=" M 153.86 24.29 C 154.94 23.06 156.53 22.62 158.01 22.07 C 157.37 24.86 156.06 27.52 153.78 29.33 C 154.07 28.70 154.65 27.43 154.95 26.80 C 155.52 25.67 156.15 24.56 156.76 23.44 C 156.04 23.65 154.59 24.08 153.86 24.29 Z" />
</g>
<g id="#966248ff">
<path fill="#966248" opacity="1.00" d=" M 126.35 28.97 C 128.33 26.48 130.65 24.23 133.43 22.68 C 132.38 27.06 130.83 31.29 129.37 35.55 L 131.40 35.31 C 126.72 38.94 120.45 39.35 115.47 42.51 C 115.91 38.06 116.49 33.63 117.62 29.30 C 118.37 31.63 118.99 34.01 119.61 36.38 C 122.16 34.20 124.42 31.70 126.35 28.97 Z" />
</g>
<g id="#b4937bff">
<path fill="#b4937b" opacity="1.00" d=" M 153.86 24.29 C 154.59 24.08 156.04 23.65 156.76 23.44 C 156.15 24.56 155.52 25.67 154.95 26.80 C 152.72 27.42 150.38 28.03 148.61 29.61 C 144.72 32.88 140.83 36.15 137.05 39.55 C 139.15 39.51 141.25 39.49 143.35 39.57 C 145.33 39.54 147.31 39.42 149.26 39.10 C 153.99 38.30 158.69 37.35 163.39 36.40 C 163.35 37.02 163.26 38.27 163.22 38.89 C 166.56 38.77 169.89 38.67 173.23 38.59 L 172.21 40.38 C 171.30 40.97 170.34 41.53 169.28 41.79 C 168.91 41.79 168.17 41.78 167.80 41.78 C 167.69 41.23 167.48 40.12 167.38 39.57 C 163.77 39.06 160.22 39.84 157.25 41.95 C 144.77 47.12 133.55 57.26 119.34 56.71 C 118.26 56.67 117.19 56.65 116.12 56.62 C 114.21 54.96 112.18 53.42 109.93 52.24 L 109.50 52.00 C 109.42 50.05 110.37 48.39 111.43 46.85 C 113.20 49.60 115.52 51.92 117.94 54.09 C 118.03 53.34 118.21 51.85 118.30 51.11 C 116.57 49.28 114.85 47.46 113.13 45.63 C 113.37 45.30 113.87 44.64 114.11 44.32 C 114.58 43.72 115.03 43.12 115.47 42.51 C 120.45 39.35 126.72 38.94 131.40 35.31 C 132.46 34.52 133.57 33.77 134.80 33.21 C 137.16 32.21 139.43 31.03 141.65 29.75 C 141.93 29.62 142.49 29.38 142.77 29.25 C 145.21 28.46 147.59 27.48 149.79 26.15 C 151.10 25.44 152.45 24.78 153.86 24.29 M 131.24 47.47 C 128.58 49.50 126.00 51.88 125.06 55.21 C 128.44 53.69 131.25 50.69 135.12 50.47 C 137.19 50.29 137.27 47.67 138.08 46.22 C 135.86 46.74 133.35 49.50 131.24 47.47 Z" />
</g>
<g id="#2a221dc0">
<path fill="#2a221d" opacity="0.75" d=" M 142.77 29.25 C 144.66 27.40 147.17 26.39 149.79 26.15 C 147.59 27.48 145.21 28.46 142.77 29.25 Z" />
</g>
<g id="#a67456ff">
<path fill="#a67456" opacity="1.00" d=" M 148.61 29.61 C 150.38 28.03 152.72 27.42 154.95 26.80 C 154.65 27.43 154.07 28.70 153.78 29.33 C 153.60 29.64 153.24 30.27 153.06 30.58 C 151.29 33.04 149.54 35.51 147.86 38.03 C 146.87 38.20 145.89 38.38 144.91 38.56 C 146.36 38.76 147.81 38.94 149.26 39.10 C 147.31 39.42 145.33 39.54 143.35 39.57 C 141.25 39.49 139.15 39.51 137.05 39.55 C 140.83 36.15 144.72 32.88 148.61 29.61 Z" />
<path fill="#a67456" opacity="1.00" d=" M 118.61 83.48 C 120.21 84.10 121.86 84.57 123.53 84.94 C 125.88 85.10 128.25 84.99 130.59 85.30 C 132.57 87.21 133.95 89.62 135.48 91.88 C 135.67 89.15 135.93 86.42 136.27 83.70 C 138.83 88.26 140.06 93.37 141.53 98.34 C 142.54 102.05 143.81 106.08 142.11 109.80 C 141.83 108.82 141.29 106.86 141.02 105.88 C 139.33 109.33 138.42 113.12 136.33 116.36 C 136.03 114.32 135.78 112.27 135.57 110.22 C 133.22 113.00 130.85 115.76 128.47 118.53 C 128.20 116.75 127.93 114.98 127.66 113.21 C 126.21 113.56 124.77 113.90 123.32 114.25 C 123.49 110.58 123.63 106.91 123.87 103.25 C 123.58 103.37 122.98 103.61 122.68 103.73 C 121.80 101.97 120.07 100.92 118.68 99.62 C 117.92 98.45 117.25 97.22 116.58 96.00 C 117.38 96.73 118.18 97.46 118.98 98.19 C 119.55 95.86 120.13 93.54 120.68 91.21 C 119.16 91.90 117.65 92.60 116.16 93.35 C 117.14 91.14 117.98 88.86 118.85 86.60 C 118.43 86.53 117.57 86.39 117.14 86.32 C 117.63 85.37 118.12 84.43 118.61 83.48 Z" />
</g>
<g id="#010001ff">
<path fill="#010001" opacity="1.00" d=" M 117.48 27.64 C 119.13 29.80 119.11 32.68 119.83 35.21 C 122.09 33.22 124.02 30.88 126.35 28.97 C 124.42 31.70 122.16 34.20 119.61 36.38 C 118.99 34.01 118.37 31.63 117.62 29.30 C 116.49 33.63 115.91 38.06 115.47 42.51 C 115.03 43.12 114.58 43.72 114.11 44.32 C 115.21 38.75 115.96 33.11 117.48 27.64 Z" />
<path fill="#010001" opacity="1.00" d=" M 156.63 50.76 C 157.33 50.33 158.72 49.48 159.42 49.05 L 159.23 50.73 C 162.91 50.86 166.67 50.44 170.27 51.40 C 165.71 51.61 161.13 51.60 156.63 50.76 Z" />
<path fill="#010001" opacity="1.00" d=" M 32.54 57.44 C 34.55 56.27 36.85 57.96 38.87 58.39 C 44.77 60.75 51.23 62.39 56.33 66.30 C 49.14 63.35 42.17 59.76 34.58 57.92 C 34.25 58.01 33.58 58.19 33.25 58.28 C 31.80 61.32 33.98 64.74 35.99 67.00 C 40.72 71.39 45.97 75.17 51.33 78.77 C 54.36 80.82 57.37 82.93 60.58 84.71 L 60.93 86.16 C 56.49 83.42 52.12 80.57 47.80 77.64 C 44.43 75.34 41.19 71.83 37.10 71.25 C 34.99 73.61 37.38 76.80 37.89 79.38 L 38.19 80.31 C 36.70 78.14 35.75 75.62 35.54 72.99 C 34.87 71.37 36.49 70.45 37.67 69.77 C 34.37 66.66 30.98 62.21 32.54 57.44 Z" />
<path fill="#010001" opacity="1.00" d=" M 59.61 64.84 L 59.89 64.96 C 60.78 65.69 61.66 66.43 62.53 67.18 C 62.06 67.55 61.12 68.30 60.66 68.67 C 60.01 68.28 59.36 67.91 58.71 67.55 C 59.44 67.01 59.72 66.30 59.55 65.42 L 59.61 64.84 Z" />
<path fill="#010001" opacity="1.00" d=" M 160.31 86.60 C 161.42 89.44 162.41 92.32 163.57 95.14 C 161.76 94.06 159.96 92.94 158.14 91.88 C 158.60 97.25 161.54 102.54 160.03 107.95 C 159.19 113.56 158.21 119.68 154.53 124.19 C 156.06 120.61 157.59 117.00 158.44 113.19 C 159.00 110.35 159.73 107.26 158.50 104.49 C 157.01 101.33 154.15 99.13 151.46 97.04 C 152.15 102.12 153.58 107.17 153.13 112.34 C 152.30 111.28 151.48 110.23 150.66 109.17 C 150.10 110.65 149.54 112.13 148.98 113.61 C 148.51 111.84 147.98 110.09 147.48 108.34 C 147.30 107.50 147.14 106.67 147.02 105.82 C 147.21 104.51 147.43 103.21 147.64 101.91 C 148.62 103.65 149.64 105.38 150.74 107.06 C 150.93 103.22 150.84 99.36 151.27 95.53 C 154.75 98.13 157.28 101.69 160.18 104.87 C 159.30 100.13 158.21 95.43 157.42 90.68 C 158.52 91.30 160.73 92.54 161.84 93.16 C 161.30 90.97 160.79 88.79 160.31 86.60 Z" />
<path fill="#010001" opacity="1.00" d=" M 24.02 105.36 C 29.94 105.24 35.63 107.11 41.22 108.83 C 44.90 110.17 48.83 110.99 52.13 113.18 C 43.30 110.37 34.63 106.78 25.32 105.88 C 25.51 106.72 25.91 108.39 26.10 109.23 C 25.06 108.14 24.45 106.78 24.02 105.36 Z" />
<path fill="#010001" opacity="1.00" d=" M 57.39 113.12 C 60.34 115.78 62.90 118.84 65.93 121.41 C 69.73 125.18 74.88 126.99 78.96 130.36 C 76.55 129.44 74.26 128.24 71.95 127.12 C 73.82 131.45 76.59 135.28 79.21 139.17 C 77.20 137.48 75.76 135.27 74.23 133.16 C 72.31 133.91 70.37 134.62 68.40 135.26 C 70.13 134.40 71.84 133.51 73.55 132.64 C 73.12 131.52 72.69 130.40 72.26 129.29 C 66.40 129.14 60.63 130.12 54.84 130.77 C 54.70 130.36 54.43 129.54 54.29 129.13 C 60.19 129.92 66.05 128.54 71.93 128.27 C 68.83 123.98 64.05 121.42 60.45 117.61 C 58.22 116.02 55.76 114.83 53.31 113.64 C 54.35 114.00 56.43 114.71 57.47 115.07 C 57.45 114.58 57.41 113.61 57.39 113.12 Z" />
<path fill="#010001" opacity="1.00" d=" M 80.20 140.64 L 80.94 139.66 C 81.32 140.77 81.68 141.89 82.01 143.01 C 82.01 144.43 82.00 145.85 82.05 147.27 C 82.45 149.64 83.18 151.92 83.93 154.20 C 83.43 154.60 82.43 155.41 81.93 155.82 L 82.79 156.62 C 84.43 159.33 84.39 162.47 83.41 165.40 C 83.48 163.30 83.66 161.16 83.14 159.10 C 82.94 157.65 81.79 156.79 80.77 155.89 C 81.60 155.28 82.43 154.67 83.25 154.06 C 82.48 151.77 81.48 149.49 81.47 147.03 C 81.24 144.92 81.90 142.40 80.05 140.84 L 80.20 140.64 Z" />
</g>
<g id="#251e19b0">
<path fill="#251e19" opacity="0.69" d=" M 134.80 33.21 C 136.42 31.04 139.10 30.22 141.65 29.75 C 139.43 31.03 137.16 32.21 134.80 33.21 Z" />
</g>
<g id="#080204ff">
<path fill="#080204" opacity="1.00" d=" M 147.86 38.03 C 149.54 35.51 151.29 33.04 153.06 30.58 C 151.90 33.39 150.16 35.90 148.55 38.46 C 153.48 37.76 158.33 36.53 163.29 36.01 C 163.82 36.17 164.88 36.50 165.42 36.66 C 165.00 37.04 164.18 37.79 163.77 38.17 C 167.88 38.20 171.98 37.81 176.10 37.73 C 174.90 38.75 173.61 39.66 172.21 40.38 L 173.23 38.59 C 169.89 38.67 166.56 38.77 163.22 38.89 C 163.26 38.27 163.35 37.02 163.39 36.40 C 158.69 37.35 153.99 38.30 149.26 39.10 C 147.81 38.94 146.36 38.76 144.91 38.56 C 145.89 38.38 146.87 38.20 147.86 38.03 Z" />
<path fill="#080204" opacity="1.00" d=" M 171.16 58.54 C 177.68 60.92 184.57 61.93 191.26 63.68 C 181.80 67.40 171.64 69.00 162.13 72.46 C 161.95 72.76 161.60 73.35 161.42 73.64 C 161.08 73.42 160.39 72.96 160.05 72.74 C 163.45 70.82 167.31 69.96 171.03 68.86 C 176.85 67.28 182.85 66.18 188.37 63.66 C 182.75 62.14 176.92 61.36 171.48 59.21 L 171.16 58.54 Z" />
<path fill="#080204" opacity="1.00" d=" M 69.45 63.77 C 71.75 64.33 74.10 64.69 76.45 64.99 L 76.44 65.20 C 76.43 65.63 76.40 66.48 76.39 66.91 C 78.75 68.22 81.23 69.30 83.58 70.64 C 87.31 73.13 91.23 75.43 94.34 78.71 C 90.50 76.19 86.83 73.38 82.72 71.28 C 78.42 68.56 73.74 66.51 69.45 63.77 Z" />
<path fill="#080204" opacity="1.00" d=" M 62.53 67.18 C 66.50 70.18 70.67 72.89 74.74 75.74 C 77.62 77.74 80.53 79.72 83.14 82.07 C 79.94 80.20 76.88 78.11 73.70 76.21 C 69.44 73.55 65.19 70.84 60.66 68.67 C 61.12 68.30 62.06 67.55 62.53 67.18 Z" />
<path fill="#080204" opacity="1.00" d=" M 104.78 81.91 C 106.76 83.28 108.59 85.89 111.33 84.72 C 110.82 85.44 109.80 86.89 109.29 87.61 C 111.55 87.52 113.81 87.40 116.07 87.31 C 115.48 89.65 114.86 91.98 114.30 94.33 C 114.76 94.08 115.69 93.59 116.16 93.35 C 117.65 92.60 119.16 91.90 120.68 91.21 C 120.13 93.54 119.55 95.86 118.98 98.19 C 118.18 97.46 117.38 96.73 116.58 96.00 C 117.25 97.22 117.92 98.45 118.68 99.62 C 117.55 102.57 116.43 105.53 115.35 108.49 C 117.79 106.89 120.16 105.20 122.68 103.73 C 122.98 103.61 123.58 103.37 123.87 103.25 C 123.63 106.91 123.49 110.58 123.32 114.25 C 122.93 117.93 122.38 121.60 122.32 125.31 C 124.50 123.17 126.51 120.87 128.47 118.53 C 130.85 115.76 133.22 113.00 135.57 110.22 C 135.78 112.27 136.03 114.32 136.33 116.36 C 138.42 113.12 139.33 109.33 141.02 105.88 C 141.29 106.86 141.83 108.82 142.11 109.80 C 142.18 113.07 142.63 116.36 144.23 119.28 C 145.34 114.83 146.16 110.32 147.02 105.82 C 147.14 106.67 147.30 107.50 147.48 108.34 C 145.78 113.31 146.01 118.84 143.47 123.53 C 142.16 118.73 142.93 113.38 140.26 109.00 C 138.88 112.32 137.71 115.72 136.38 119.06 C 135.79 116.82 135.33 114.55 134.85 112.29 C 132.69 114.66 130.63 117.12 128.61 119.62 C 126.41 122.35 124.07 124.98 121.52 127.40 C 121.37 121.36 122.67 115.41 122.70 109.37 C 118.73 114.12 115.41 119.32 112.04 124.50 C 115.52 127.18 119.24 129.75 123.55 130.85 C 126.39 131.64 129.30 132.18 132.24 132.44 C 131.60 132.53 130.32 132.72 129.68 132.82 C 122.83 132.66 116.63 129.00 111.44 124.81 C 108.23 127.04 105.16 129.62 101.40 130.88 C 99.13 131.42 96.84 131.90 94.58 132.49 C 97.04 134.86 99.72 136.96 102.31 139.19 L 103.32 140.19 C 99.99 138.72 97.32 136.21 94.81 133.64 L 93.80 132.67 C 91.15 132.43 88.50 132.45 85.85 132.23 C 83.73 131.66 81.59 131.16 79.49 130.53 C 84.67 130.79 89.84 132.06 95.04 131.25 C 102.34 130.44 109.51 126.72 113.62 120.50 C 116.01 116.97 116.71 112.68 117.58 108.59 C 116.35 109.25 115.11 109.91 113.88 110.58 C 115.01 106.92 117.59 102.99 115.79 99.12 C 114.11 95.56 112.69 91.83 110.40 88.61 C 109.91 88.63 108.91 88.67 108.42 88.69 C 108.68 85.84 106.39 83.92 104.78 81.91 Z" />
<path fill="#080204" opacity="1.00" d=" M 130.52 143.55 C 132.37 142.71 134.19 141.79 135.95 140.75 C 133.48 144.04 132.58 148.20 131.36 152.06 C 131.45 156.39 134.34 159.78 136.23 163.46 C 133.29 160.29 131.53 156.06 127.74 153.72 C 127.61 154.60 127.36 156.37 127.24 157.25 C 126.23 156.44 125.22 155.63 124.21 154.83 C 122.59 158.95 127.82 160.77 129.01 164.17 C 129.17 164.98 129.47 166.62 129.62 167.44 C 128.86 167.43 127.32 167.41 126.56 167.40 C 127.15 166.81 128.33 165.62 128.92 165.03 C 127.19 162.73 125.05 160.82 123.05 158.78 C 122.99 157.58 123.06 156.39 123.25 155.19 C 122.45 154.47 121.65 153.75 120.85 153.02 L 122.24 153.39 C 122.73 153.45 123.71 153.56 124.20 153.62 C 125.20 154.34 126.20 155.07 127.21 155.79 C 127.20 154.93 127.17 153.20 127.16 152.34 C 128.47 153.36 129.73 154.43 131.03 155.47 C 129.03 151.25 132.73 147.61 133.55 143.61 C 132.76 144.01 131.17 144.82 130.37 145.22 C 130.63 144.78 131.13 143.89 131.38 143.45 L 130.52 143.55 Z" />
<path fill="#080204" opacity="1.00" d=" M 100.04 149.89 C 107.79 150.77 115.54 149.53 123.17 148.29 C 121.50 148.83 119.81 149.32 118.12 149.81 C 118.66 150.47 119.74 151.79 120.28 152.46 C 119.17 151.65 118.10 150.80 117.03 149.96 C 111.71 150.95 106.30 150.71 100.93 150.91 C 99.30 151.86 97.94 153.19 96.29 154.11 L 96.85 153.52 C 97.94 152.33 98.99 151.11 100.04 149.89 Z" />
<path fill="#080204" opacity="1.00" d=" M 136.68 163.97 C 142.38 166.80 148.49 171.74 155.13 168.63 C 157.25 169.68 159.32 170.86 161.11 172.44 C 159.07 171.55 157.08 170.55 155.07 169.62 C 154.62 169.71 153.72 169.90 153.28 170.00 C 148.33 171.78 143.84 168.18 139.33 166.68 C 138.38 165.84 137.51 164.92 136.68 163.97 Z" />
<path fill="#080204" opacity="1.00" d=" M 117.99 176.72 C 118.44 173.95 118.16 170.10 121.38 168.88 C 120.60 170.01 119.81 171.14 119.02 172.26 C 119.87 173.22 120.72 174.16 121.58 175.11 C 123.77 173.87 125.92 172.45 128.37 171.74 C 131.70 172.31 135.00 173.55 137.61 175.77 C 139.16 177.20 140.62 178.73 142.16 180.19 C 142.29 179.30 142.54 177.53 142.67 176.64 C 143.88 175.83 145.10 175.01 146.32 174.20 C 144.22 173.28 142.15 172.31 140.09 171.31 C 139.63 170.54 139.17 169.77 138.71 169.00 C 141.99 171.37 145.54 173.36 149.18 175.10 C 151.92 175.55 155.18 174.52 157.26 176.91 C 154.44 175.75 151.38 175.87 148.40 175.96 C 148.13 179.15 149.21 182.68 147.52 185.60 C 146.57 184.31 145.67 182.99 144.92 181.59 C 145.59 182.25 146.95 183.58 147.63 184.24 C 147.96 181.16 147.88 177.95 146.29 175.20 C 145.59 175.57 144.21 176.32 143.52 176.69 C 143.35 177.26 143.02 178.40 142.85 178.97 C 143.22 179.45 143.95 180.40 144.32 180.87 C 143.54 180.85 141.97 180.79 141.18 180.77 C 138.42 177.06 134.79 173.43 129.97 172.88 C 126.19 171.94 123.69 175.82 120.09 176.02 C 119.94 175.86 119.62 175.54 119.47 175.38 L 119.41 176.02 L 117.99 176.72 Z" />
<path fill="#080204" opacity="1.00" d=" M 160.36 174.90 C 160.44 174.99 160.62 175.17 160.71 175.26 C 161.42 178.39 164.09 180.23 166.47 182.06 C 166.33 180.99 166.05 178.86 165.91 177.79 C 167.00 179.36 166.76 181.32 166.90 183.12 C 164.54 180.33 160.10 180.66 158.16 177.65 C 158.74 178.10 159.89 179.02 160.46 179.47 C 160.44 178.33 160.38 176.04 160.36 174.90 Z" />
</g>
<g id="#0000005f">
<path fill="#000000" opacity="0.37" d=" M 163.29 36.01 C 163.08 33.34 168.06 35.57 165.42 36.66 C 164.88 36.50 163.82 36.17 163.29 36.01 Z" />
</g>
<g id="#8f604aff">
<path fill="#8f604a" opacity="1.00" d=" M 157.25 41.95 C 160.22 39.84 163.77 39.06 167.38 39.57 C 167.48 40.12 167.69 41.23 167.80 41.78 C 168.17 41.78 168.91 41.79 169.28 41.79 C 168.64 42.80 167.76 43.47 166.63 43.80 C 164.76 44.24 163.16 45.32 162.09 46.91 C 161.34 47.80 160.45 48.51 159.42 49.05 C 158.72 49.48 157.33 50.33 156.63 50.76 C 161.13 51.60 165.71 51.61 170.27 51.40 C 172.30 51.37 174.33 51.50 176.36 51.68 C 175.45 52.04 174.57 52.62 173.58 52.65 C 168.02 51.78 162.35 51.48 156.80 52.55 C 160.96 53.10 165.12 53.57 169.25 54.32 C 167.48 54.99 166.87 57.81 169.22 58.04 C 169.70 58.17 170.67 58.41 171.16 58.54 L 171.48 59.21 C 171.63 59.51 171.93 60.11 172.08 60.41 C 172.59 61.21 173.15 61.98 173.71 62.76 C 171.09 62.94 168.48 63.19 165.87 63.48 C 168.82 64.03 171.77 64.54 174.73 65.01 C 173.49 66.29 172.26 67.57 171.03 68.86 C 167.31 69.96 163.45 70.82 160.05 72.74 C 160.39 72.96 161.08 73.42 161.42 73.64 C 163.30 74.66 165.24 75.55 167.15 76.50 C 164.27 77.13 161.35 77.54 158.41 77.66 C 158.91 80.67 159.60 83.64 160.31 86.60 C 160.79 88.79 161.30 90.97 161.84 93.16 C 160.73 92.54 158.52 91.30 157.42 90.68 C 158.21 95.43 159.30 100.13 160.18 104.87 C 157.28 101.69 154.75 98.13 151.27 95.53 C 150.84 99.36 150.93 103.22 150.74 107.06 C 149.64 105.38 148.62 103.65 147.64 101.91 C 147.43 103.21 147.21 104.51 147.02 105.82 C 146.16 110.32 145.34 114.83 144.23 119.28 C 142.63 116.36 142.18 113.07 142.11 109.80 C 143.81 106.08 142.54 102.05 141.53 98.34 C 140.06 93.37 138.83 88.26 136.27 83.70 C 135.93 86.42 135.67 89.15 135.48 91.88 C 133.95 89.62 132.57 87.21 130.59 85.30 C 128.25 84.99 125.88 85.10 123.53 84.94 C 127.79 80.79 128.27 74.58 131.26 69.68 C 133.59 69.08 135.15 67.20 136.80 65.60 C 137.07 65.36 137.62 64.89 137.89 64.65 C 138.74 63.08 139.40 61.38 139.73 59.62 C 140.23 57.40 140.33 55.11 140.38 52.85 C 145.75 48.80 152.43 46.76 157.25 41.95 Z" />
</g>
<g id="#9c684dff">
<path fill="#9c684d" opacity="1.00" d=" M 119.34 56.71 C 133.55 57.26 144.77 47.12 157.25 41.95 C 152.43 46.76 145.75 48.80 140.38 52.85 C 136.16 55.23 131.65 57.04 127.43 59.43 C 127.61 60.88 128.22 62.35 127.82 63.82 C 124.23 63.29 122.07 59.02 119.34 56.71 Z" />
</g>
<g id="#281a14c9">
<path fill="#281a14" opacity="0.79" d=" M 162.09 46.91 C 163.16 45.32 164.76 44.24 166.63 43.80 C 166.97 45.73 163.78 47.70 162.09 46.91 Z" />
</g>
<g id="#c1a692ff">
<path fill="#c1a692" opacity="1.00" d=" M 111.43 46.85 C 111.85 46.54 112.70 45.93 113.13 45.63 C 114.85 47.46 116.57 49.28 118.30 51.11 C 118.21 51.85 118.03 53.34 117.94 54.09 C 115.52 51.92 113.20 49.60 111.43 46.85 Z" />
</g>
<g id="#c3a995ff">
<path fill="#c3a995" opacity="1.00" d=" M 131.24 47.47 C 133.35 49.50 135.86 46.74 138.08 46.22 C 137.27 47.67 137.19 50.29 135.12 50.47 C 131.25 50.69 128.44 53.69 125.06 55.21 C 126.00 51.88 128.58 49.50 131.24 47.47 Z" />
</g>
<g id="#a17155ff">
<path fill="#a17155" opacity="1.00" d=" M 156.80 52.55 C 162.35 51.48 168.02 51.78 173.58 52.65 C 172.81 52.97 171.27 53.60 170.50 53.91 C 170.18 54.01 169.56 54.22 169.25 54.32 C 165.12 53.57 160.96 53.10 156.80 52.55 Z" />
</g>
<g id="#201f20ff">
<path fill="#201f20" opacity="1.00" d=" M 109.93 52.24 C 112.18 53.42 114.21 54.96 116.12 56.62 C 117.19 56.65 118.26 56.67 119.34 56.71 C 122.07 59.02 124.23 63.29 127.82 63.82 C 128.22 62.35 127.61 60.88 127.43 59.43 C 131.65 57.04 136.16 55.23 140.38 52.85 C 140.33 55.11 140.23 57.40 139.73 59.62 C 139.52 57.99 139.29 56.37 139.05 54.75 C 137.16 55.60 135.28 56.47 133.40 57.34 C 133.38 59.87 133.27 62.40 133.13 64.93 C 134.71 64.85 136.30 64.76 137.89 64.65 C 137.62 64.89 137.07 65.36 136.80 65.60 C 134.25 65.45 131.66 65.34 129.15 65.83 C 127.70 66.72 131.04 68.49 131.26 69.68 C 128.27 74.58 127.79 80.79 123.53 84.94 C 121.86 84.57 120.21 84.10 118.61 83.48 C 117.65 82.74 116.73 81.95 115.81 81.18 C 116.28 80.68 117.23 79.67 117.71 79.17 C 117.46 76.97 117.08 74.72 115.40 73.13 C 114.28 76.09 113.15 79.12 110.94 81.48 C 111.47 81.71 112.54 82.18 113.08 82.41 C 112.85 82.70 112.41 83.28 112.18 83.56 L 111.93 83.90 C 111.44 83.46 110.45 82.58 109.96 82.14 C 110.39 81.16 110.83 80.18 111.26 79.20 C 110.10 78.43 108.94 77.64 107.95 76.65 C 109.30 77.37 110.67 78.03 112.04 78.71 C 112.84 76.70 113.34 74.51 114.69 72.78 C 115.98 71.54 117.77 71.06 119.33 70.28 C 118.70 71.01 117.44 72.47 116.81 73.21 C 119.20 74.55 119.47 72.12 119.83 70.19 C 122.79 71.14 125.57 72.53 128.00 74.47 C 128.69 72.72 129.38 70.98 130.06 69.23 C 128.49 67.45 126.93 65.66 125.33 63.91 C 124.30 62.36 122.09 62.81 120.92 63.93 C 120.32 63.53 119.71 63.15 119.09 62.78 C 120.00 62.71 121.81 62.59 122.71 62.52 C 121.91 61.42 121.09 60.33 120.24 59.26 C 119.57 58.53 118.88 57.80 118.19 57.09 C 116.47 58.75 115.44 62.10 112.62 61.96 C 108.67 60.68 107.39 64.75 105.92 67.45 C 105.05 69.58 104.75 71.91 105.62 74.10 C 103.13 72.85 104.47 69.95 105.04 67.95 C 106.41 64.80 107.70 59.86 112.18 60.66 C 111.41 57.86 110.54 55.08 109.93 52.24 M 111.93 54.98 C 111.86 57.37 111.94 59.95 113.90 61.65 C 113.59 59.38 115.26 55.46 111.93 54.98 M 130.25 59.33 C 129.46 60.60 129.70 61.40 130.98 61.72 C 131.77 60.46 131.53 59.66 130.25 59.33 M 117.67 82.17 C 119.74 83.03 122.78 85.01 124.43 82.40 C 126.02 80.04 128.77 76.70 126.11 74.07 C 125.24 76.73 123.86 79.18 122.06 81.32 C 121.56 81.07 120.55 80.57 120.04 80.32 C 121.61 79.91 122.86 79.04 123.80 77.71 L 124.07 77.77 C 124.82 75.57 125.60 71.78 122.03 72.11 C 118.20 73.76 118.00 78.56 117.67 82.17 Z" />
</g>
<g id="#160e0bc3">
<path fill="#160e0b" opacity="0.76" d=" M 169.25 54.32 C 169.56 54.22 170.18 54.01 170.50 53.91 C 170.68 55.25 169.47 56.69 169.22 58.04 C 166.87 57.81 167.48 54.99 169.25 54.32 Z" />
</g>
<g id="#f2f6fcff">
<path fill="#f2f6fc" opacity="1.00" d=" M 133.40 57.34 C 135.28 56.47 137.16 55.60 139.05 54.75 C 139.29 56.37 139.52 57.99 139.73 59.62 C 139.40 61.38 138.74 63.08 137.89 64.65 C 136.30 64.76 134.71 64.85 133.13 64.93 C 133.27 62.40 133.38 59.87 133.40 57.34 Z" />
</g>
<g id="#d0d1d3ff">
<path fill="#d0d1d3" opacity="1.00" d=" M 111.93 54.98 C 115.26 55.46 113.59 59.38 113.90 61.65 C 111.94 59.95 111.86 57.37 111.93 54.98 Z" />
</g>
<g id="#f4dddaff">
<path fill="#f4ddda" opacity="1.00" d=" M 33.25 58.28 C 33.58 58.19 34.25 58.01 34.58 57.92 C 42.17 59.76 49.14 63.35 56.33 66.30 C 56.92 66.61 58.11 67.24 58.71 67.55 C 59.36 67.91 60.01 68.28 60.66 68.67 L 60.33 69.27 C 57.03 71.09 53.79 73.02 50.74 75.24 C 50.93 76.41 51.13 77.59 51.33 78.77 C 45.97 75.17 40.72 71.39 35.99 67.00 C 33.98 64.74 31.80 61.32 33.25 58.28 Z" />
</g>
<g id="#e6c5c6ff">
<path fill="#e6c5c6" opacity="1.00" d=" M 112.62 61.96 C 115.44 62.10 116.47 58.75 118.19 57.09 C 118.88 57.80 119.57 58.53 120.24 59.26 C 118.90 60.27 117.57 61.28 116.24 62.30 C 116.75 62.72 117.78 63.56 118.30 63.98 C 116.72 66.47 115.34 69.15 113.18 71.19 C 111.11 72.96 108.58 74.06 106.20 75.34 C 106.06 75.03 105.76 74.41 105.62 74.10 C 104.75 71.91 105.05 69.58 105.92 67.45 C 109.74 68.48 111.50 64.89 112.62 61.96 Z" />
</g>
<g id="#d0d1d2ff">
<path fill="#d0d1d2" opacity="1.00" d=" M 130.25 59.33 C 131.53 59.66 131.77 60.46 130.98 61.72 C 129.70 61.40 129.46 60.60 130.25 59.33 Z" />
</g>
<g id="#bda098ff">
<path fill="#bda098" opacity="1.00" d=" M 116.24 62.30 C 117.57 61.28 118.90 60.27 120.24 59.26 C 121.09 60.33 121.91 61.42 122.71 62.52 C 121.81 62.59 120.00 62.71 119.09 62.78 C 119.71 63.15 120.32 63.53 120.92 63.93 C 122.14 65.08 124.26 65.47 125.33 63.91 C 126.93 65.66 128.49 67.45 130.06 69.23 C 129.38 70.98 128.69 72.72 128.00 74.47 C 125.57 72.53 122.79 71.14 119.83 70.19 C 119.47 72.12 119.20 74.55 116.81 73.21 C 117.44 72.47 118.70 71.01 119.33 70.28 C 117.77 71.06 115.98 71.54 114.69 72.78 C 113.34 74.51 112.84 76.70 112.04 78.71 C 110.67 78.03 109.30 77.37 107.95 76.65 C 107.52 76.32 106.64 75.66 106.20 75.34 C 108.58 74.06 111.11 72.96 113.18 71.19 C 115.34 69.15 116.72 66.47 118.30 63.98 C 117.78 63.56 116.75 62.72 116.24 62.30 Z" />
<path fill="#bda098" opacity="1.00" d=" M 90.70 172.45 C 91.41 172.65 92.83 173.06 93.54 173.26 L 93.28 174.12 C 92.87 175.40 92.52 176.70 92.31 178.03 C 92.95 178.38 93.62 178.70 94.31 178.97 C 95.06 179.24 96.55 179.80 97.30 180.07 L 96.59 180.40 C 96.24 180.58 95.53 180.94 95.18 181.12 C 95.34 182.81 95.57 184.50 95.79 186.19 C 90.41 183.19 84.18 183.47 78.24 183.53 L 77.36 183.86 C 76.80 184.06 75.69 184.47 75.14 184.67 L 73.69 185.13 C 73.45 184.62 72.98 183.58 72.74 183.07 C 73.08 181.83 73.42 180.59 73.76 179.36 C 75.22 179.04 76.65 178.58 78.04 178.02 C 79.77 178.86 81.38 179.94 82.67 181.39 C 80.37 181.81 78.06 182.19 75.75 182.57 C 80.59 183.21 85.48 183.30 90.32 182.63 C 88.26 182.34 86.20 182.08 84.14 181.84 C 87.01 180.22 89.16 177.61 89.13 174.17 C 89.57 174.51 90.47 175.17 90.91 175.50 C 90.86 174.74 90.76 173.21 90.70 172.45 M 80.24 180.32 C 80.77 180.84 80.77 180.84 80.24 180.32 Z" />
</g>
<g id="#9b6d51ff">
<path fill="#9b6d51" opacity="1.00" d=" M 172.08 60.41 C 171.93 60.11 171.63 59.51 171.48 59.21 C 176.92 61.36 182.75 62.14 188.37 63.66 C 182.85 66.18 176.85 67.28 171.03 68.86 C 172.26 67.57 173.49 66.29 174.73 65.01 C 171.77 64.54 168.82 64.03 165.87 63.48 C 168.48 63.19 171.09 62.94 173.71 62.76 C 173.15 61.98 172.59 61.21 172.08 60.41 Z" />
</g>
<g id="#e9c8c9ff">
<path fill="#e9c8c9" opacity="1.00" d=" M 56.95 62.86 C 57.12 62.32 57.45 61.24 57.61 60.70 C 59.13 60.71 60.64 60.73 62.15 60.74 C 64.57 61.71 67.09 62.52 69.35 63.85 C 68.99 64.10 68.27 64.59 67.91 64.83 C 65.24 64.72 61.52 61.72 59.89 64.96 L 59.61 64.84 C 58.68 64.25 57.79 63.59 56.95 62.86 Z" />
<path fill="#e9c8c9" opacity="1.00" d=" M 66.34 181.48 C 68.61 180.16 71.17 179.61 73.76 179.36 C 73.42 180.59 73.08 181.83 72.74 183.07 C 72.98 183.58 73.45 184.62 73.69 185.13 C 72.00 186.11 70.56 187.44 69.07 188.69 C 69.28 187.57 69.70 185.32 69.90 184.19 C 68.71 183.29 67.52 182.38 66.34 181.48 Z" />
</g>
<g id="#f8ececff">
<path fill="#f8ecec" opacity="1.00" d=" M 105.92 67.45 C 107.39 64.75 108.67 60.68 112.62 61.96 C 111.50 64.89 109.74 68.48 105.92 67.45 Z" />
</g>
<g id="#ebc1bbff">
<path fill="#ebc1bb" opacity="1.00" d=" M 59.89 64.96 C 61.52 61.72 65.24 64.72 67.91 64.83 C 68.27 64.59 68.99 64.10 69.35 63.85 L 69.45 63.77 C 73.74 66.51 78.42 68.56 82.72 71.28 C 79.38 71.51 76.03 71.43 72.77 70.63 C 73.44 72.33 74.10 74.03 74.74 75.74 C 70.67 72.89 66.50 70.18 62.53 67.18 C 61.66 66.43 60.78 65.69 59.89 64.96 Z" />
</g>
<g id="#ddbebbff">
<path fill="#ddbebb" opacity="1.00" d=" M 120.92 63.93 C 122.09 62.81 124.30 62.36 125.33 63.91 C 124.26 65.47 122.14 65.08 120.92 63.93 Z" />
</g>
<g id="#eec4beff">
<path fill="#eec4be" opacity="1.00" d=" M 76.39 66.91 C 76.40 66.48 76.43 65.63 76.44 65.20 C 77.03 65.52 78.21 66.15 78.80 66.47 C 80.06 67.21 81.37 67.93 82.82 68.20 C 83.08 68.27 83.61 68.39 83.87 68.45 L 83.58 70.64 C 81.23 69.30 78.75 68.22 76.39 66.91 Z" />
<path fill="#eec4be" opacity="1.00" d=" M 37.89 79.38 C 38.37 77.57 38.94 75.78 39.50 73.98 C 42.12 75.51 44.89 76.78 47.80 77.64 C 52.12 80.57 56.49 83.42 60.93 86.16 C 61.08 86.83 61.24 87.49 61.41 88.15 C 58.77 87.03 56.12 85.98 53.47 84.91 C 54.35 86.78 55.21 88.67 56.03 90.56 C 52.60 91.39 49.08 90.88 45.60 90.95 C 45.25 90.59 44.54 89.88 44.18 89.53 C 44.11 89.46 43.97 89.32 43.90 89.25 L 43.81 89.11 C 42.31 86.49 40.59 84.02 38.87 81.55 C 38.70 81.24 38.36 80.62 38.19 80.31 L 37.89 79.38 Z" />
<path fill="#eec4be" opacity="1.00" d=" M 46.96 95.05 C 49.62 97.39 52.07 99.95 54.64 102.38 C 53.61 104.81 50.93 102.41 49.32 102.07 L 49.19 101.97 C 48.38 99.68 47.66 97.37 46.96 95.05 Z" />
</g>
<g id="#191313a8">
<path fill="#191313" opacity="0.66" d=" M 78.80 66.47 C 79.98 65.15 83.44 66.31 82.82 68.20 C 81.37 67.93 80.06 67.21 78.80 66.47 Z" />
</g>
<g id="#a77255ff">
<path fill="#a77255" opacity="1.00" d=" M 129.15 65.83 C 131.66 65.34 134.25 65.45 136.80 65.60 C 135.15 67.20 133.59 69.08 131.26 69.68 C 131.04 68.49 127.70 66.72 129.15 65.83 Z" />
</g>
<g id="#ebc2bcff">
<path fill="#ebc2bc" opacity="1.00" d=" M 60.66 68.67 C 65.19 70.84 69.44 73.55 73.70 76.21 C 72.10 76.73 70.50 77.24 68.91 77.74 C 70.48 81.11 72.77 84.05 75.04 86.98 C 71.37 85.55 67.93 83.63 64.46 81.80 C 64.57 83.03 64.68 84.25 64.79 85.48 C 63.38 85.24 61.97 85.01 60.58 84.71 C 57.37 82.93 54.36 80.82 51.33 78.77 C 51.13 77.59 50.93 76.41 50.74 75.24 C 53.79 73.02 57.03 71.09 60.33 69.27 L 60.66 68.67 Z" />
</g>
<g id="#d2706aff">
<path fill="#d2706a" opacity="1.00" d=" M 83.87 68.45 C 86.27 69.57 88.73 70.59 90.99 71.98 C 91.42 72.29 92.27 72.91 92.70 73.21 C 92.93 73.34 93.37 73.60 93.60 73.72 C 95.64 75.43 97.81 76.97 100.09 78.34 C 100.29 78.51 100.68 78.87 100.88 79.05 C 101.58 80.04 102.51 80.86 103.66 81.29 C 103.94 81.44 104.50 81.76 104.78 81.91 C 106.39 83.92 108.68 85.84 108.42 88.69 C 108.91 88.67 109.91 88.63 110.40 88.61 C 110.25 94.24 111.52 100.82 107.41 105.42 C 103.96 109.73 98.22 110.92 93.00 111.31 C 84.92 111.85 76.51 111.37 69.02 108.03 C 64.95 106.39 61.48 103.32 57.04 102.68 C 52.79 99.21 49.18 95.08 45.60 90.95 C 49.08 90.88 52.60 91.39 56.03 90.56 C 55.21 88.67 54.35 86.78 53.47 84.91 C 56.12 85.98 58.77 87.03 61.41 88.15 C 61.24 87.49 61.08 86.83 60.93 86.16 L 60.58 84.71 C 61.97 85.01 63.38 85.24 64.79 85.48 C 64.68 84.25 64.57 83.03 64.46 81.80 C 67.93 83.63 71.37 85.55 75.04 86.98 C 72.77 84.05 70.48 81.11 68.91 77.74 C 70.50 77.24 72.10 76.73 73.70 76.21 C 76.88 78.11 79.94 80.20 83.14 82.07 C 80.53 79.72 77.62 77.74 74.74 75.74 C 74.10 74.03 73.44 72.33 72.77 70.63 C 76.03 71.43 79.38 71.51 82.72 71.28 C 86.83 73.38 90.50 76.19 94.34 78.71 C 91.23 75.43 87.31 73.13 83.58 70.64 L 83.87 68.45 Z" />
</g>
<g id="#ffffffff">
<path fill="#ffffff" opacity="1.00" d=" M 37.10 71.25 C 41.19 71.83 44.43 75.34 47.80 77.64 C 44.89 76.78 42.12 75.51 39.50 73.98 C 38.94 75.78 38.37 77.57 37.89 79.38 C 37.38 76.80 34.99 73.61 37.10 71.25 Z" />
<path fill="#ffffff" opacity="1.00" d=" M 153.28 170.00 C 153.72 169.90 154.62 169.71 155.07 169.62 C 157.08 170.55 159.07 171.55 161.11 172.44 L 161.16 172.46 C 162.56 173.91 163.95 175.37 165.30 176.87 C 165.45 177.10 165.76 177.56 165.91 177.79 C 166.05 178.86 166.33 180.99 166.47 182.06 C 164.09 180.23 161.42 178.39 160.71 175.26 C 160.62 175.17 160.44 174.99 160.36 174.90 C 158.42 173.42 156.07 172.69 153.78 171.95 C 153.66 171.46 153.40 170.49 153.28 170.00 Z" />
<path fill="#ffffff" opacity="1.00" d=" M 143.52 176.69 C 144.21 176.32 145.59 175.57 146.29 175.20 C 147.88 177.95 147.96 181.16 147.63 184.24 C 146.95 183.58 145.59 182.25 144.92 181.59 C 144.77 181.41 144.47 181.05 144.32 180.87 C 143.95 180.40 143.22 179.45 142.85 178.97 C 143.02 178.40 143.35 177.26 143.52 176.69 Z" />
<path fill="#ffffff" opacity="1.00" d=" M 64.41 191.80 C 62.84 188.20 64.17 184.58 66.79 181.90 C 67.66 183.17 68.37 184.52 68.92 185.94 C 68.39 187.60 67.03 188.79 65.96 190.11 C 65.57 190.53 64.79 191.38 64.41 191.80 Z" />
<path fill="#ffffff" opacity="1.00" d=" M 99.86 183.73 C 104.17 182.01 105.51 188.98 104.42 192.05 C 102.07 189.83 97.92 187.57 99.86 183.73 Z" />
</g>
<g id="#2f1617c2">
<path fill="#2f1617" opacity="0.76" d=" M 90.99 71.98 L 91.86 71.66 L 92.74 72.30 L 92.70 73.21 C 92.27 72.91 91.42 72.29 90.99 71.98 Z" />
</g>
<g id="#b48a8fff">
<path fill="#b48a8f" opacity="1.00" d=" M 117.67 82.17 C 118.00 78.56 118.20 73.76 122.03 72.11 C 125.60 71.78 124.82 75.57 124.07 77.77 L 123.80 77.71 C 122.31 77.49 120.77 76.75 119.27 77.31 C 118.30 78.35 118.48 80.05 120.04 80.32 C 120.55 80.57 121.56 81.07 122.06 81.32 C 123.86 79.18 125.24 76.73 126.11 74.07 C 128.77 76.70 126.02 80.04 124.43 82.40 C 122.78 85.01 119.74 83.03 117.67 82.17 Z" />
</g>
<g id="#2f1817b2">
<path fill="#2f1817" opacity="0.70" d=" M 93.60 73.72 C 96.12 74.66 98.61 75.99 100.09 78.34 C 97.81 76.97 95.64 75.43 93.60 73.72 Z" />
</g>
<g id="#b59078ff">
<path fill="#b59078" opacity="1.00" d=" M 115.40 73.13 C 117.08 74.72 117.46 76.97 117.71 79.17 C 117.23 79.67 116.28 80.68 115.81 81.18 C 116.73 81.95 117.65 82.74 118.61 83.48 C 118.12 84.43 117.63 85.37 117.14 86.32 C 117.57 86.39 118.43 86.53 118.85 86.60 C 117.98 88.86 117.14 91.14 116.16 93.35 C 115.69 93.59 114.76 94.08 114.30 94.33 C 114.86 91.98 115.48 89.65 116.07 87.31 C 113.81 87.40 111.55 87.52 109.29 87.61 C 109.80 86.89 110.82 85.44 111.33 84.72 L 111.93 83.90 L 112.18 83.56 C 112.41 83.28 112.85 82.70 113.08 82.41 C 112.54 82.18 111.47 81.71 110.94 81.48 C 113.15 79.12 114.28 76.09 115.40 73.13 Z" />
</g>
<g id="#ebc7d1ff">
<path fill="#ebc7d1" opacity="1.00" d=" M 119.27 77.31 C 120.77 76.75 122.31 77.49 123.80 77.71 C 122.86 79.04 121.61 79.91 120.04 80.32 C 118.48 80.05 118.30 78.35 119.27 77.31 Z" />
</g>
<g id="#341b19c6">
<path fill="#341b19" opacity="0.78" d=" M 100.88 79.05 C 102.13 77.91 104.59 79.82 103.66 81.29 C 102.51 80.86 101.58 80.04 100.88 79.05 Z" />
</g>
<g id="#362a2bae">
<path fill="#362a2b" opacity="0.68" d=" M 38.87 81.55 C 40.59 84.02 42.31 86.49 43.81 89.11 C 41.18 87.43 39.53 84.55 38.87 81.55 Z" />
</g>
<g id="#b04e56ff">
<path fill="#b04e56" opacity="1.00" d=" M 110.40 88.61 C 112.69 91.83 114.11 95.56 115.79 99.12 C 117.59 102.99 115.01 106.92 113.88 110.58 C 113.27 108.99 112.66 107.40 112.05 105.82 C 109.21 111.44 104.88 116.41 99.04 119.01 C 93.56 120.58 87.76 121.63 82.05 120.85 C 77.26 120.23 72.43 119.90 67.62 119.49 C 67.20 119.97 66.35 120.93 65.93 121.41 C 62.90 118.84 60.34 115.78 57.39 113.12 L 56.47 112.29 L 56.31 111.71 C 56.14 110.44 55.06 109.65 54.12 108.94 C 53.90 108.63 53.46 108.00 53.24 107.69 C 52.90 106.53 52.17 105.53 51.16 104.85 C 50.29 104.10 49.67 103.18 49.32 102.07 C 50.93 102.41 53.61 104.81 54.64 102.38 C 56.97 104.54 59.42 106.56 62.05 108.34 C 60.45 106.38 58.78 104.50 57.04 102.68 C 61.48 103.32 64.95 106.39 69.02 108.03 C 76.51 111.37 84.92 111.85 93.00 111.31 C 98.22 110.92 103.96 109.73 107.41 105.42 C 111.52 100.82 110.25 94.24 110.40 88.61 Z" />
</g>
<g id="#241f21ff">
<path fill="#241f21" opacity="1.00" d=" M 44.18 89.53 C 44.54 89.88 45.25 90.59 45.60 90.95 C 49.18 95.08 52.79 99.21 57.04 102.68 C 58.78 104.50 60.45 106.38 62.05 108.34 C 59.42 106.56 56.97 104.54 54.64 102.38 C 52.07 99.95 49.62 97.39 46.96 95.05 C 47.66 97.37 48.38 99.68 49.19 101.97 C 47.26 99.79 46.42 96.88 46.75 94.02 C 45.76 92.60 44.89 91.11 44.18 89.53 Z" />
<path fill="#241f21" opacity="1.00" d=" M 150.66 109.17 C 151.48 110.23 152.30 111.28 153.13 112.34 C 152.92 113.95 152.59 115.54 152.21 117.13 C 150.89 122.79 148.93 128.41 145.08 132.88 C 146.14 132.48 147.20 132.09 148.27 131.71 C 146.96 133.68 144.72 134.64 142.80 135.90 C 140.63 137.19 138.90 139.11 136.65 140.28 C 139.84 137.27 142.85 134.04 145.31 130.39 C 141.33 131.97 137.09 132.59 132.82 132.40 C 137.76 131.72 143.60 131.27 146.86 126.96 C 149.98 123.26 149.59 118.08 148.98 113.61 C 149.54 112.13 150.10 110.65 150.66 109.17 Z" />
<path fill="#241f21" opacity="1.00" d=" M 102.31 139.19 C 111.06 143.32 120.89 145.35 130.52 143.55 L 131.38 143.45 C 131.13 143.89 130.63 144.78 130.37 145.22 C 128.76 146.10 127.09 146.86 125.40 147.58 C 126.88 146.45 128.38 145.35 129.90 144.27 C 120.90 145.32 111.25 145.16 103.32 140.19 L 102.31 139.19 Z" />
<path fill="#241f21" opacity="1.00" d=" M 95.93 140.82 C 98.81 142.23 100.85 144.78 101.89 147.78 C 100.17 145.23 97.89 143.17 95.93 140.82 Z" />
<path fill="#241f21" opacity="1.00" d=" M 91.43 160.58 C 91.02 157.65 92.76 155.81 95.25 154.78 C 94.32 155.84 93.35 156.84 92.38 157.86 C 92.14 159.50 93.18 162.34 90.36 161.94 C 90.29 164.97 90.22 168.01 90.18 171.04 C 91.31 171.77 92.43 172.51 93.54 173.26 C 92.83 173.06 91.41 172.65 90.70 172.45 C 90.76 173.21 90.86 174.74 90.91 175.50 C 90.47 175.17 89.57 174.51 89.13 174.17 C 89.23 168.81 89.55 163.44 89.33 158.08 C 88.67 158.47 87.35 159.26 86.70 159.65 C 86.29 159.51 85.47 159.23 85.07 159.09 C 84.19 164.37 83.79 169.84 81.75 174.84 C 81.19 176.53 79.51 177.30 78.04 178.02 C 76.65 178.58 75.22 179.04 73.76 179.36 C 71.17 179.61 68.61 180.16 66.34 181.48 C 67.52 182.38 68.71 183.29 69.90 184.19 C 69.70 185.32 69.28 187.57 69.07 188.69 C 70.56 187.44 72.00 186.11 73.69 185.13 L 75.14 184.67 C 72.59 187.24 69.66 189.59 65.96 190.11 C 67.03 188.79 68.39 187.60 68.92 185.94 C 68.37 184.52 67.66 183.17 66.79 181.90 C 64.17 184.58 62.84 188.20 64.41 191.80 L 64.64 192.90 C 60.85 190.10 63.60 185.32 64.78 181.87 C 66.76 180.74 68.53 178.78 70.97 178.78 C 73.86 178.69 76.90 178.31 79.11 176.23 C 82.65 173.81 82.28 169.07 83.41 165.40 C 84.39 162.47 84.43 159.33 82.79 156.62 C 83.25 157.03 84.19 157.85 84.65 158.26 C 86.08 157.82 87.52 157.40 88.95 156.97 C 89.78 158.17 90.61 159.37 91.43 160.58 Z" />
<path fill="#241f21" opacity="1.00" d=" M 97.30 180.07 C 99.94 179.43 103.78 180.46 104.36 183.54 C 105.05 186.62 106.18 190.08 104.45 193.03 C 100.41 190.97 97.33 187.37 92.97 185.91 C 87.83 183.33 81.96 184.52 76.45 184.22 L 77.36 183.86 L 78.24 183.53 C 84.18 183.47 90.41 183.19 95.79 186.19 C 96.48 186.51 97.86 187.16 98.54 187.48 C 98.04 184.35 100.17 182.68 102.91 181.77 C 100.83 181.19 98.73 180.67 96.59 180.40 L 97.30 180.07 M 99.86 183.73 C 97.92 187.57 102.07 189.83 104.42 192.05 C 105.51 188.98 104.17 182.01 99.86 183.73 Z" />
</g>
<g id="#a24b52ff">
<path fill="#a24b52" opacity="1.00" d=" M 151.46 97.04 C 154.15 99.13 157.01 101.33 158.50 104.49 C 159.73 107.26 159.00 110.35 158.44 113.19 C 158.32 112.44 158.07 110.93 157.95 110.18 C 155.66 112.15 153.48 114.33 152.21 117.13 C 152.59 115.54 152.92 113.95 153.13 112.34 C 153.58 107.17 152.15 102.12 151.46 97.04 Z" />
</g>
<g id="#b9957cff">
<path fill="#b9957c" opacity="1.00" d=" M 118.68 99.62 C 120.07 100.92 121.80 101.97 122.68 103.73 C 120.16 105.20 117.79 106.89 115.35 108.49 C 116.43 105.53 117.55 102.57 118.68 99.62 Z" />
</g>
<g id="#210e0fb5">
<path fill="#210e0f" opacity="0.71" d=" M 51.16 104.85 C 52.17 105.53 52.90 106.53 53.24 107.69 C 51.75 108.58 50.01 106.03 51.16 104.85 Z" />
</g>
<g id="#b6937dff">
<path fill="#b6937d" opacity="1.00" d=" M 25.32 105.88 C 34.63 106.78 43.30 110.37 52.13 113.18 C 52.43 113.29 53.02 113.53 53.31 113.64 C 55.76 114.83 58.22 116.02 60.45 117.61 C 52.81 115.56 44.92 114.85 37.05 114.55 C 34.89 114.39 32.83 115.14 30.83 115.83 C 29.58 114.03 28.23 112.29 26.91 110.54 C 26.71 110.22 26.30 109.56 26.10 109.23 C 25.91 108.39 25.51 106.72 25.32 105.88 Z" />
</g>
<g id="#9d4a51ff">
<path fill="#9d4a51" opacity="1.00" d=" M 99.04 119.01 C 104.88 116.41 109.21 111.44 112.05 105.82 C 112.66 107.40 113.27 108.99 113.88 110.58 C 115.11 109.91 116.35 109.25 117.58 108.59 C 116.71 112.68 116.01 116.97 113.62 120.50 C 109.51 126.72 102.34 130.44 95.04 131.25 C 89.84 132.06 84.67 130.79 79.49 130.53 C 79.36 130.49 79.09 130.40 78.96 130.36 C 74.88 126.99 69.73 125.18 65.93 121.41 C 66.35 120.93 67.20 119.97 67.62 119.49 C 72.43 119.90 77.26 120.23 82.05 120.85 C 87.76 121.63 93.56 120.58 99.04 119.01 Z" />
</g>
<g id="#241012c9">
<path fill="#241012" opacity="0.79" d=" M 54.12 108.94 C 55.06 109.65 56.14 110.44 56.31 111.71 C 54.87 112.54 53.04 110.16 54.12 108.94 Z" />
</g>
<g id="#cbbcaaff">
<path fill="#cbbcaa" opacity="1.00" d=" M 143.47 123.53 C 146.01 118.84 145.78 113.31 147.48 108.34 C 147.98 110.09 148.51 111.84 148.98 113.61 C 149.59 118.08 149.98 123.26 146.86 126.96 C 143.60 131.27 137.76 131.72 132.82 132.40 L 132.24 132.44 C 129.30 132.18 126.39 131.64 123.55 130.85 C 127.42 128.42 131.68 125.98 134.09 121.95 C 133.51 119.95 130.33 120.38 128.61 119.62 C 130.63 117.12 132.69 114.66 134.85 112.29 C 135.33 114.55 135.79 116.82 136.38 119.06 C 137.71 115.72 138.88 112.32 140.26 109.00 C 142.93 113.38 142.16 118.73 143.47 123.53 Z" />
</g>
<g id="#f5e5caff">
<path fill="#f5e5ca" opacity="1.00" d=" M 112.04 124.50 C 115.41 119.32 118.73 114.12 122.70 109.37 C 122.67 115.41 121.37 121.36 121.52 127.40 C 124.07 124.98 126.41 122.35 128.61 119.62 C 130.33 120.38 133.51 119.95 134.09 121.95 C 131.68 125.98 127.42 128.42 123.55 130.85 C 119.24 129.75 115.52 127.18 112.04 124.50 Z" />
</g>
<g id="#261a14b7">
<path fill="#261a14" opacity="0.72" d=" M 26.91 110.54 C 28.23 112.29 29.58 114.03 30.83 115.83 C 32.00 117.58 33.12 119.36 34.29 121.11 C 30.93 118.38 28.31 114.64 26.91 110.54 Z" />
</g>
<g id="#c76b66ff">
<path fill="#c76b66" opacity="1.00" d=" M 152.21 117.13 C 153.48 114.33 155.66 112.15 157.95 110.18 C 158.07 110.93 158.32 112.44 158.44 113.19 C 157.59 117.00 156.06 120.61 154.53 124.19 C 153.52 125.88 152.60 127.87 150.80 128.83 C 149.69 129.17 149.07 129.88 148.94 130.96 L 148.87 131.48 L 148.27 131.71 C 147.20 132.09 146.14 132.48 145.08 132.88 C 148.93 128.41 150.89 122.79 152.21 117.13 Z" />
</g>
<g id="#b28e77ff">
<path fill="#b28e77" opacity="1.00" d=" M 123.32 114.25 C 124.77 113.90 126.21 113.56 127.66 113.21 C 127.93 114.98 128.20 116.75 128.47 118.53 C 126.51 120.87 124.50 123.17 122.32 125.31 C 122.38 121.60 122.93 117.93 123.32 114.25 Z" />
</g>
<g id="#8f5b45ff">
<path fill="#8f5b45" opacity="1.00" d=" M 30.83 115.83 C 32.83 115.14 34.89 114.39 37.05 114.55 C 44.92 114.85 52.81 115.56 60.45 117.61 C 64.05 121.42 68.83 123.98 71.93 128.27 C 66.05 128.54 60.19 129.92 54.29 129.13 C 47.36 127.48 39.92 125.65 34.29 121.11 C 33.12 119.36 32.00 117.58 30.83 115.83 Z" />
</g>
<g id="#f4e4c9ff">
<path fill="#f4e4c9" opacity="1.00" d=" M 101.40 130.88 C 105.16 129.62 108.23 127.04 111.44 124.81 C 116.63 129.00 122.83 132.66 129.68 132.82 C 127.96 133.18 126.20 133.75 124.43 133.37 C 116.79 132.01 108.85 133.49 101.40 130.88 Z" />
</g>
<g id="#c4b4a5ff">
<path fill="#c4b4a5" opacity="1.00" d=" M 71.95 127.12 C 74.26 128.24 76.55 129.44 78.96 130.36 C 79.09 130.40 79.36 130.49 79.49 130.53 C 81.59 131.16 83.73 131.66 85.85 132.23 C 86.23 132.69 86.99 133.61 87.37 134.07 C 89.85 134.08 92.33 133.84 94.81 133.64 C 97.32 136.21 99.99 138.72 103.32 140.19 C 111.25 145.16 120.90 145.32 129.90 144.27 C 128.38 145.35 126.88 146.45 125.40 147.58 C 127.09 146.86 128.76 146.10 130.37 145.22 C 131.17 144.82 132.76 144.01 133.55 143.61 C 132.73 147.61 129.03 151.25 131.03 155.47 C 129.73 154.43 128.47 153.36 127.16 152.34 C 127.17 153.20 127.20 154.93 127.21 155.79 C 126.20 155.07 125.20 154.34 124.20 153.62 C 123.71 153.56 122.73 153.45 122.24 153.39 L 120.85 153.02 C 120.71 152.88 120.42 152.60 120.28 152.46 C 119.74 151.79 118.66 150.47 118.12 149.81 C 119.81 149.32 121.50 148.83 123.17 148.29 C 115.54 149.53 107.79 150.77 100.04 149.89 C 98.99 151.11 97.94 152.33 96.85 153.52 C 92.43 150.35 87.87 146.76 82.05 147.27 C 82.00 145.85 82.01 144.43 82.01 143.01 C 82.40 141.18 82.83 139.33 83.62 137.62 C 85.00 137.13 86.39 136.71 87.82 136.36 C 86.64 135.74 85.46 135.13 84.27 134.54 C 83.21 136.28 82.16 138.03 80.94 139.66 L 80.20 140.64 C 79.95 140.27 79.46 139.54 79.21 139.17 C 76.59 135.28 73.82 131.45 71.95 127.12 M 95.93 140.82 C 97.89 143.17 100.17 145.23 101.89 147.78 C 100.85 144.78 98.81 142.23 95.93 140.82 Z" />
</g>
<g id="#221213c2">
<path fill="#221213" opacity="0.76" d=" M 148.94 130.96 C 149.07 129.88 149.69 129.17 150.80 128.83 C 151.23 130.46 150.61 131.16 148.94 130.96 Z" />
</g>
<g id="#8e5a45ff">
<path fill="#8e5a45" opacity="1.00" d=" M 54.84 130.77 C 60.63 130.12 66.40 129.14 72.26 129.29 C 72.69 130.40 73.12 131.52 73.55 132.64 C 71.84 133.51 70.13 134.40 68.40 135.26 C 60.01 137.59 50.64 143.38 42.13 138.44 C 46.00 135.59 50.43 133.68 55.02 132.30 C 53.17 132.20 51.32 132.08 49.46 132.03 C 51.19 131.35 52.99 130.91 54.84 130.77 Z" />
</g>
<g id="#c5b6a6ff">
<path fill="#c5b6a6" opacity="1.00" d=" M 94.58 132.49 C 96.84 131.90 99.13 131.42 101.40 130.88 C 108.85 133.49 116.79 132.01 124.43 133.37 C 126.20 133.75 127.96 133.18 129.68 132.82 C 130.32 132.72 131.60 132.53 132.24 132.44 L 132.82 132.40 C 137.09 132.59 141.33 131.97 145.31 130.39 C 142.85 134.04 139.84 137.27 136.65 140.28 C 136.47 140.40 136.12 140.64 135.95 140.75 C 134.19 141.79 132.37 142.71 130.52 143.55 C 120.89 145.35 111.06 143.32 102.31 139.19 C 99.72 136.96 97.04 134.86 94.58 132.49 Z" />
</g>
<g id="#b57f5eff">
<path fill="#b57f5e" opacity="1.00" d=" M 40.36 135.32 C 43.19 133.76 46.30 132.68 49.46 132.03 C 51.32 132.08 53.17 132.20 55.02 132.30 C 50.43 133.68 46.00 135.59 42.13 138.44 C 41.23 137.55 39.66 136.83 40.36 135.32 Z" />
</g>
<g id="#deccbbff">
<path fill="#deccbb" opacity="1.00" d=" M 85.85 132.23 C 88.50 132.45 91.15 132.43 93.80 132.67 L 94.81 133.64 C 92.33 133.84 89.85 134.08 87.37 134.07 C 86.99 133.61 86.23 132.69 85.85 132.23 Z" />
</g>
<g id="#8f8276ff">
<path fill="#8f8276" opacity="1.00" d=" M 84.27 134.54 C 85.46 135.13 86.64 135.74 87.82 136.36 C 86.39 136.71 85.00 137.13 83.62 137.62 C 82.83 139.33 82.40 141.18 82.01 143.01 C 81.68 141.89 81.32 140.77 80.94 139.66 C 82.16 138.03 83.21 136.28 84.27 134.54 Z" />
</g>
<g id="#e0d1bfff">
<path fill="#e0d1bf" opacity="1.00" d=" M 82.05 147.27 C 87.87 146.76 92.43 150.35 96.85 153.52 L 96.29 154.11 C 96.03 154.28 95.51 154.62 95.25 154.78 C 92.76 155.81 91.02 157.65 91.43 160.58 C 90.61 159.37 89.78 158.17 88.95 156.97 C 87.52 157.40 86.08 157.82 84.65 158.26 C 84.19 157.85 83.25 157.03 82.79 156.62 L 81.93 155.82 C 82.43 155.41 83.43 154.60 83.93 154.20 C 83.18 151.92 82.45 149.64 82.05 147.27 Z" />
</g>
<g id="#cbaea8ff">
<path fill="#cbaea8" opacity="1.00" d=" M 127.74 153.72 C 131.53 156.06 133.29 160.29 136.23 163.46 C 136.34 163.59 136.57 163.85 136.68 163.97 C 137.51 164.92 138.38 165.84 139.33 166.68 C 138.90 167.30 138.04 168.55 137.61 169.17 C 136.00 167.39 134.39 165.62 132.80 163.83 C 132.06 165.13 131.32 166.42 130.59 167.72 C 130.08 166.53 129.57 165.33 129.01 164.17 C 127.82 160.77 122.59 158.95 124.21 154.83 C 125.22 155.63 126.23 156.44 127.24 157.25 C 127.36 156.37 127.61 154.60 127.74 153.72 Z" />
</g>
<g id="#d0b2acff">
<path fill="#d0b2ac" opacity="1.00" d=" M 85.07 159.09 C 85.47 159.23 86.29 159.51 86.70 159.65 C 87.35 159.26 88.67 158.47 89.33 158.08 C 89.55 163.44 89.23 168.81 89.13 174.17 C 89.16 177.61 87.01 180.22 84.14 181.84 C 86.20 182.08 88.26 182.34 90.32 182.63 C 85.48 183.30 80.59 183.21 75.75 182.57 C 78.06 182.19 80.37 181.81 82.67 181.39 C 81.38 179.94 79.77 178.86 78.04 178.02 C 79.51 177.30 81.19 176.53 81.75 174.84 C 83.79 169.84 84.19 164.37 85.07 159.09 Z" />
</g>
<g id="#bd9f97ff">
<path fill="#bd9f97" opacity="1.00" d=" M 129.01 164.17 C 129.57 165.33 130.08 166.53 130.59 167.72 C 131.32 166.42 132.06 165.13 132.80 163.83 C 134.39 165.62 136.00 167.39 137.61 169.17 C 138.04 168.55 138.90 167.30 139.33 166.68 C 143.84 168.18 148.33 171.78 153.28 170.00 C 153.40 170.49 153.66 171.46 153.78 171.95 C 156.07 172.69 158.42 173.42 160.36 174.90 C 160.38 176.04 160.44 178.33 160.46 179.47 C 159.89 179.02 158.74 178.10 158.16 177.65 C 157.94 177.46 157.48 177.09 157.26 176.91 C 155.18 174.52 151.92 175.55 149.18 175.10 C 145.54 173.36 141.99 171.37 138.71 169.00 C 139.17 169.77 139.63 170.54 140.09 171.31 C 139.26 172.79 138.43 174.28 137.61 175.77 C 135.00 173.55 131.70 172.31 128.37 171.74 C 125.92 172.45 123.77 173.87 121.58 175.11 C 120.72 174.16 119.87 173.22 119.02 172.26 C 119.81 171.14 120.60 170.01 121.38 168.88 L 121.59 168.58 C 122.27 169.66 123.14 169.90 124.22 169.29 C 125.43 167.90 122.75 167.59 121.90 167.95 C 123.39 167.40 124.98 167.36 126.56 167.40 C 127.32 167.41 128.86 167.43 129.62 167.44 C 129.47 166.62 129.17 164.98 129.01 164.17 Z" />
</g>
<g id="#d9b8b1ff">
<path fill="#d9b8b1" opacity="1.00" d=" M 121.90 167.95 C 122.75 167.59 125.43 167.90 124.22 169.29 C 123.14 169.90 122.27 169.66 121.59 168.58 L 121.90 167.95 Z" />
</g>
<g id="#e7c6c8ff">
<path fill="#e7c6c8" opacity="1.00" d=" M 137.61 175.77 C 138.43 174.28 139.26 172.79 140.09 171.31 C 142.15 172.31 144.22 173.28 146.32 174.20 C 145.10 175.01 143.88 175.83 142.67 176.64 C 142.54 177.53 142.29 179.30 142.16 180.19 C 140.62 178.73 139.16 177.20 137.61 175.77 Z" />
</g>
<g id="#282222d9">
<path fill="#282222" opacity="0.85" d=" M 161.16 172.46 C 164.24 170.78 165.36 174.63 165.30 176.87 C 163.95 175.37 162.56 173.91 161.16 172.46 Z" />
</g>
<g id="#3a2f2ce3">
<path fill="#3a2f2c" opacity="0.89" d=" M 93.28 174.12 C 94.76 174.74 94.52 177.56 94.31 178.97 C 93.62 178.70 92.95 178.38 92.31 178.03 C 92.52 176.70 92.87 175.40 93.28 174.12 Z" />
</g>
<g id="#f2edecff">
<path fill="#f2edec" opacity="1.00" d=" M 119.47 175.38 C 119.62 175.54 119.94 175.86 120.09 176.02 L 119.41 176.02 L 119.47 175.38 Z" />
</g>
<g id="#5f4e49ff">
<path fill="#5f4e49" opacity="1.00" d=" M 80.24 180.32 C 80.77 180.84 80.77 180.84 80.24 180.32 Z" />
</g>
<g id="#eccac9ff">
<path fill="#eccac9" opacity="1.00" d=" M 95.18 181.12 C 95.53 180.94 96.24 180.58 96.59 180.40 C 98.73 180.67 100.83 181.19 102.91 181.77 C 100.17 182.68 98.04 184.35 98.54 187.48 C 97.86 187.16 96.48 186.51 95.79 186.19 C 95.57 184.50 95.34 182.81 95.18 181.12 Z" />
</g>
</svg>
