<?xml version="1.0" encoding="UTF-8" ?>
<!DOCTYPE svg PUBLIC "-//W3C//DTD SVG 1.1//EN" "http://www.w3.org/Graphics/SVG/1.1/DTD/svg11.dtd">
<svg width="215pt" height="215pt" viewBox="0 0 215 215" version="1.1" xmlns="http://www.w3.org/2000/svg">
<g id="#191417d8">
<path fill="#191417" opacity="0.85" d=" M 62.07 23.31 C 65.37 21.93 69.75 21.37 72.87 23.41 C 78.00 24.22 83.86 25.80 87.03 30.21 C 86.30 29.83 85.57 29.44 84.85 29.04 C 81.76 27.17 78.50 25.50 74.95 24.70 C 74.19 24.60 72.67 24.38 71.91 24.28 C 62.21 23.37 52.34 26.17 44.28 31.56 C 40.80 33.95 37.67 36.89 35.57 40.60 C 35.30 41.01 34.76 41.83 34.50 42.24 L 33.93 41.85 C 28.50 45.71 22.21 51.59 24.55 58.98 C 27.22 64.11 33.68 64.72 38.76 63.73 C 39.32 63.73 40.45 63.72 41.01 63.72 C 42.08 63.96 43.07 64.41 43.97 65.04 C 39.19 63.81 34.18 66.33 29.49 64.37 C 25.01 62.40 20.72 57.10 23.16 52.06 C 26.47 45.62 33.26 42.10 37.49 36.36 C 43.54 28.85 53.08 25.69 62.07 23.31 Z" />
<path fill="#191417" opacity="0.85" d=" M 148.11 182.21 C 152.64 180.55 156.70 177.89 161.03 175.80 C 158.10 179.61 153.22 180.97 149.05 182.95 C 136.50 187.40 123.26 189.33 110.02 190.31 C 106.53 190.43 103.19 191.82 99.67 191.49 C 90.51 191.55 81.43 190.57 72.35 189.39 C 80.26 189.05 88.11 190.61 96.01 190.11 C 113.57 189.36 131.38 187.98 148.11 182.21 Z" />
</g>
<g id="#e0ccdeff">
<path fill="#e0ccde" opacity="1.00" d=" M 44.28 31.56 C 52.34 26.17 62.21 23.37 71.91 24.28 C 71.61 24.77 71.02 25.75 70.72 26.24 C 67.60 26.01 64.47 26.01 61.36 26.27 C 58.41 30.56 53.85 33.79 48.63 34.52 C 46.68 34.76 45.69 32.51 44.28 31.56 Z" />
</g>
<g id="#be99bcff">
<path fill="#be99bc" opacity="1.00" d=" M 71.91 24.28 C 72.67 24.38 74.19 24.60 74.95 24.70 C 72.61 27.70 70.51 30.89 68.76 34.26 C 64.02 36.26 60.21 40.04 55.18 41.42 C 48.98 43.26 42.69 46.27 36.06 45.06 C 35.51 44.14 34.98 43.19 34.50 42.24 C 34.76 41.83 35.30 41.01 35.57 40.60 C 39.17 40.89 42.85 41.67 46.41 40.64 C 53.05 38.78 59.28 35.70 65.28 32.34 C 67.83 31.07 69.37 28.63 70.72 26.24 C 71.02 25.75 71.61 24.77 71.91 24.28 Z" />
</g>
<g id="#b387afff">
<path fill="#b387af" opacity="1.00" d=" M 74.95 24.70 C 78.50 25.50 81.76 27.17 84.85 29.04 C 83.96 30.71 83.53 32.79 82.02 34.04 C 79.82 35.11 77.31 35.24 74.90 35.39 C 72.89 34.83 70.84 34.41 68.76 34.26 C 70.51 30.89 72.61 27.70 74.95 24.70 Z" />
<path fill="#b387af" opacity="1.00" d=" M 96.72 94.04 C 98.62 88.33 103.21 84.19 107.22 79.93 C 108.57 83.98 108.95 88.24 108.88 92.49 C 104.89 93.38 100.83 94.30 96.72 94.04 Z" />
<path fill="#b387af" opacity="1.00" d=" M 53.36 110.38 C 55.70 108.76 58.35 107.67 61.22 107.61 C 59.66 109.87 57.88 112.21 57.49 115.00 C 57.53 118.88 61.00 121.53 64.40 122.60 C 67.75 123.80 71.26 124.53 74.80 124.90 C 76.71 129.94 82.81 128.15 86.98 128.46 C 98.42 128.72 109.56 125.73 120.42 122.45 C 123.29 121.47 126.34 121.89 129.29 122.15 C 123.32 123.15 117.71 125.55 111.80 126.82 C 101.68 129.06 91.29 130.10 80.94 130.13 C 73.94 129.62 66.61 129.05 60.31 125.70 C 56.83 124.05 56.10 119.91 53.62 117.31 C 50.47 115.08 46.71 117.35 44.37 119.68 C 45.83 122.39 46.53 126.08 49.68 127.39 C 58.67 131.29 68.28 133.63 77.97 134.95 C 82.38 135.48 86.87 135.60 91.23 134.66 C 88.11 134.15 84.98 133.77 81.85 133.36 C 87.36 132.10 93.04 132.09 98.64 131.49 C 104.21 131.03 109.63 129.58 115.21 129.24 C 115.44 129.97 115.67 130.71 115.90 131.44 C 120.73 129.87 125.69 128.79 130.56 127.38 C 128.68 132.61 122.38 132.50 118.07 134.48 C 113.77 136.48 109.38 138.22 104.79 139.41 C 108.49 139.49 112.37 139.22 115.79 140.94 C 114.03 141.98 112.19 143.00 110.11 143.17 C 99.70 144.19 89.18 145.63 78.73 144.20 C 69.84 142.80 60.74 141.56 52.56 137.57 C 47.99 135.62 44.47 131.99 40.25 129.44 C 39.94 123.32 42.66 117.57 46.21 112.76 C 47.28 111.48 48.48 110.30 49.86 109.36 C 50.29 109.11 51.15 108.59 51.58 108.34 C 52.02 108.85 52.92 109.87 53.36 110.38 Z" />
</g>
<g id="#d3b7d1ff">
<path fill="#d3b7d1" opacity="1.00" d=" M 61.36 26.27 C 64.47 26.01 67.60 26.01 70.72 26.24 C 69.37 28.63 67.83 31.07 65.28 32.34 C 59.28 35.70 53.05 38.78 46.41 40.64 C 42.85 41.67 39.17 40.89 35.57 40.60 C 37.67 36.89 40.80 33.95 44.28 31.56 C 45.69 32.51 46.68 34.76 48.63 34.52 C 53.85 33.79 58.41 30.56 61.36 26.27 Z" />
</g>
<g id="#89607eff">
<path fill="#89607e" opacity="1.00" d=" M 84.85 29.04 C 85.57 29.44 86.30 29.83 87.03 30.21 L 87.09 30.24 L 87.41 30.67 C 89.41 33.65 92.23 36.04 93.84 39.27 C 96.43 44.26 97.42 49.83 98.69 55.24 C 98.64 53.02 98.58 50.81 98.51 48.59 C 102.09 50.75 105.65 52.96 108.90 55.60 L 107.24 54.99 C 108.74 57.59 109.68 60.45 109.73 63.47 C 117.57 69.79 120.23 81.92 114.38 90.42 C 112.59 91.23 110.75 91.92 108.88 92.49 C 108.95 88.24 108.57 83.98 107.22 79.93 C 103.21 84.19 98.62 88.33 96.72 94.04 C 92.45 93.38 88.07 92.86 84.07 91.10 C 80.96 89.77 78.54 87.31 76.14 85.00 C 78.16 82.58 80.19 80.16 81.94 77.53 C 77.40 81.11 73.75 85.84 68.48 88.45 C 63.45 90.80 57.70 92.39 52.16 91.08 C 48.58 90.28 45.44 88.24 42.74 85.84 C 42.67 85.49 42.54 84.79 42.48 84.44 L 42.91 82.41 C 44.85 84.76 46.68 87.69 49.92 88.30 C 58.41 90.09 68.61 87.28 73.44 79.67 C 77.77 73.43 75.29 64.64 70.16 59.68 C 65.94 55.89 59.65 56.67 54.86 58.86 C 51.31 60.57 47.11 60.83 43.99 63.38 C 42.24 63.34 40.44 63.08 38.76 63.73 C 33.68 64.72 27.22 64.11 24.55 58.98 C 25.32 58.30 26.10 57.63 26.88 56.97 C 26.77 58.62 27.20 58.80 28.16 57.52 C 28.49 58.11 29.14 59.30 29.46 59.89 C 30.88 59.67 32.31 59.45 33.72 59.13 C 34.00 59.37 34.57 59.87 34.85 60.11 C 39.06 60.26 43.00 58.45 46.97 57.31 C 52.54 55.68 57.76 53.11 63.06 50.80 C 69.36 55.06 79.60 50.95 80.00 43.05 C 80.63 39.53 77.48 37.11 74.90 35.39 C 77.31 35.24 79.82 35.11 82.02 34.04 C 83.53 32.79 83.96 30.71 84.85 29.04 Z" />
<path fill="#89607e" opacity="1.00" d=" M 61.22 107.61 C 62.89 106.46 64.62 105.40 66.33 104.31 C 70.20 111.79 78.98 115.00 86.92 115.70 C 94.37 116.67 101.74 114.46 108.19 110.84 C 104.19 115.34 99.90 119.82 94.68 122.88 C 90.51 123.77 86.17 123.49 81.95 124.15 C 76.02 124.98 70.26 123.03 64.40 122.60 C 61.00 121.53 57.53 118.88 57.49 115.00 C 57.88 112.21 59.66 109.87 61.22 107.61 Z" />
<path fill="#89607e" opacity="1.00" d=" M 32.55 165.75 C 40.64 168.62 48.69 171.64 57.09 173.50 C 57.66 177.41 59.76 180.79 61.89 184.04 C 51.21 183.12 40.48 179.32 32.54 171.94 C 32.56 169.87 32.56 167.81 32.55 165.75 Z" />
</g>
<g id="#282119ff">
<path fill="#282119" opacity="1.00" d=" M 87.41 30.67 C 88.87 30.92 90.10 31.80 90.99 32.95 C 94.24 37.01 96.07 41.94 98.02 46.69 C 103.59 51.21 110.72 53.98 114.98 60.02 C 119.07 64.78 122.10 70.56 122.73 76.88 C 123.57 86.04 119.92 94.86 115.69 102.78 C 115.43 102.72 114.89 102.58 114.63 102.52 C 117.57 98.12 119.26 93.07 120.83 88.07 C 119.26 89.04 117.70 90.04 116.08 90.93 C 115.57 91.16 114.55 91.62 114.04 91.85 C 102.48 96.49 88.09 96.66 78.02 88.52 C 77.13 87.43 76.30 86.29 75.46 85.16 C 75.03 85.47 74.61 85.78 74.18 86.09 C 69.89 88.51 68.87 93.74 65.43 97.03 C 65.86 99.16 66.33 101.30 67.07 103.35 C 70.30 109.71 77.25 112.92 83.96 114.14 C 92.51 115.55 102.00 114.42 108.83 108.68 C 109.63 107.96 110.41 107.21 111.21 106.50 C 112.15 105.68 113.06 104.83 113.94 103.95 L 113.98 104.64 C 114.12 105.00 114.39 105.71 114.52 106.06 C 112.21 107.92 110.36 110.24 108.48 112.51 C 105.56 116.10 101.86 118.92 98.59 122.17 C 107.34 120.35 116.10 118.18 124.29 114.55 C 128.72 111.89 133.45 109.56 138.64 108.91 C 141.97 108.27 145.06 110.19 148.16 111.02 C 142.95 105.42 134.90 104.75 127.74 104.39 C 123.54 104.71 119.41 105.63 115.20 105.83 C 123.06 101.98 132.63 103.00 140.83 105.40 C 151.71 108.40 157.76 121.43 154.43 131.93 C 155.69 130.96 156.95 129.99 158.20 129.02 C 156.29 131.46 154.25 133.79 152.24 136.15 C 157.23 138.55 161.38 142.19 165.66 145.61 C 173.79 140.55 178.18 131.39 182.05 122.96 C 186.20 114.11 189.42 104.63 189.63 94.76 C 189.43 92.22 190.01 89.06 187.84 87.19 C 186.44 85.58 184.22 85.53 182.26 85.48 C 181.11 85.82 179.97 86.20 178.85 86.61 C 176.84 87.77 175.23 89.66 175.04 92.05 C 173.95 99.95 172.19 107.81 169.13 115.20 L 167.51 116.40 C 169.83 109.08 172.90 101.85 173.60 94.11 C 173.88 91.28 175.25 88.69 175.47 85.85 C 175.80 85.94 176.48 86.12 176.82 86.21 C 180.49 84.55 184.51 83.83 188.39 85.25 C 189.63 81.43 188.64 77.52 186.77 74.10 L 187.70 73.60 C 189.86 77.42 190.61 81.94 189.20 86.16 C 190.59 89.32 192.82 92.35 192.78 95.94 C 193.13 102.80 192.08 109.68 189.77 116.14 C 189.76 115.31 189.75 113.64 189.74 112.80 C 191.26 106.31 192.93 99.55 191.44 92.89 C 190.16 99.45 189.55 106.17 187.42 112.54 C 183.30 125.31 177.42 138.26 166.74 146.87 C 167.29 147.67 167.84 148.47 168.39 149.27 C 169.71 152.03 171.44 154.79 171.50 157.95 C 172.10 164.98 167.73 171.87 161.71 175.26 C 162.40 174.35 163.78 172.51 164.47 171.60 C 156.02 177.09 146.23 179.74 136.42 181.57 C 126.46 183.97 116.21 184.56 106.06 185.64 C 98.04 186.52 89.97 185.88 81.93 186.22 C 74.91 186.50 67.96 185.37 60.96 185.10 C 49.56 184.49 39.19 178.82 30.18 172.18 L 29.90 173.51 L 29.65 174.65 C 25.75 169.95 22.03 164.32 22.22 157.97 C 22.31 155.77 22.33 153.14 24.27 151.68 C 23.98 153.27 23.66 154.86 23.41 156.46 C 22.01 163.01 25.82 169.51 31.69 172.37 C 31.55 169.86 31.34 167.35 31.32 164.84 C 31.97 162.28 32.76 159.75 33.85 157.34 C 36.03 154.24 38.70 151.47 41.89 149.41 C 44.11 148.04 46.54 147.07 49.02 146.30 C 45.92 144.02 43.36 141.13 41.10 138.03 C 38.04 139.36 34.94 140.73 32.36 142.91 C 29.99 144.77 28.16 147.19 26.33 149.55 C 26.13 149.67 25.73 149.90 25.53 150.01 L 24.49 150.37 C 28.23 144.25 34.18 139.90 40.69 137.10 C 39.42 132.02 38.19 126.39 40.41 121.39 C 41.73 118.18 43.15 114.70 46.21 112.76 C 42.66 117.57 39.94 123.32 40.25 129.44 C 40.24 133.45 41.80 137.51 45.01 140.01 C 51.69 145.06 59.80 147.81 68.01 149.09 C 87.44 153.59 107.73 150.41 126.45 144.37 C 131.68 142.69 137.31 142.04 142.18 139.36 C 143.74 138.33 145.81 137.11 145.87 135.01 C 146.75 126.05 139.85 117.45 131.08 115.82 C 126.68 114.85 122.48 116.95 118.39 118.27 C 104.44 123.17 89.58 125.66 74.80 124.90 C 71.26 124.53 67.75 123.80 64.40 122.60 C 70.26 123.03 76.02 124.98 81.95 124.15 C 86.17 123.49 90.51 123.77 94.68 122.88 C 99.90 119.82 104.19 115.34 108.19 110.84 C 101.74 114.46 94.37 116.67 86.92 115.70 C 78.98 115.00 70.20 111.79 66.33 104.31 C 66.16 104.02 65.81 103.45 65.64 103.16 C 65.30 101.29 64.95 99.42 64.60 97.56 C 62.54 99.51 60.40 101.37 58.25 103.22 C 56.13 105.05 53.99 106.89 51.58 108.34 C 51.15 108.59 50.29 109.11 49.86 109.36 C 56.17 102.54 65.17 97.95 69.58 89.40 C 63.49 91.43 56.73 93.93 50.38 91.48 C 47.38 90.41 43.75 89.26 42.74 85.84 C 45.44 88.24 48.58 90.28 52.16 91.08 C 57.70 92.39 63.45 90.80 68.48 88.45 C 73.75 85.84 77.40 81.11 81.94 77.53 C 80.19 80.16 78.16 82.58 76.14 85.00 C 78.54 87.31 80.96 89.77 84.07 91.10 C 88.07 92.86 92.45 93.38 96.72 94.04 C 100.83 94.30 104.89 93.38 108.88 92.49 C 110.75 91.92 112.59 91.23 114.38 90.42 C 115.65 89.81 116.92 89.17 118.15 88.48 C 123.48 84.87 122.06 77.41 120.71 72.09 C 118.56 65.60 114.35 59.75 108.90 55.60 C 105.65 52.96 102.09 50.75 98.51 48.59 C 98.58 50.81 98.64 53.02 98.69 55.24 C 97.42 49.83 96.43 44.26 93.84 39.27 C 92.23 36.04 89.41 33.65 87.41 30.67 M 126.99 114.74 C 131.21 114.31 135.56 115.44 138.97 117.95 C 143.85 122.67 148.44 129.14 146.71 136.32 C 150.00 133.93 153.47 131.04 154.45 126.90 C 154.75 121.29 152.71 115.26 147.70 112.24 C 141.23 108.25 132.70 110.41 126.99 114.74 M 142.97 139.98 C 128.96 145.98 114.03 149.32 99.04 151.72 C 90.99 151.89 82.86 153.17 74.86 151.66 C 69.48 150.64 64.02 149.92 58.77 148.33 C 55.46 147.47 52.65 145.38 49.33 144.55 C 51.64 147.22 54.84 148.82 58.12 149.95 C 73.23 156.27 90.09 155.40 106.05 153.85 C 118.42 151.80 131.02 149.16 142.04 142.90 C 146.22 140.30 150.66 137.51 152.93 132.95 C 149.60 135.27 146.70 138.26 142.97 139.98 M 148.51 140.30 C 151.72 140.16 155.33 139.45 157.97 141.82 C 153.46 141.78 148.42 140.65 144.39 143.32 C 141.18 145.36 137.61 146.72 134.34 148.65 C 140.19 150.34 145.15 154.76 147.70 160.26 C 149.79 165.95 149.18 172.48 146.74 177.98 C 152.77 176.36 158.57 173.99 164.01 170.93 C 167.55 168.39 170.50 164.47 170.46 159.93 C 170.75 152.22 164.70 146.18 158.65 142.35 C 157.40 139.98 154.94 138.76 152.46 138.09 C 150.71 137.28 149.77 139.55 148.51 140.30 M 49.33 144.55 C 49.04 144.12 49.04 144.12 49.33 144.55 M 45.86 148.34 C 44.03 149.23 42.30 150.28 40.55 151.30 L 40.95 151.57 C 38.69 152.93 36.98 154.94 35.39 157.01 L 35.16 156.95 C 34.25 159.87 33.31 162.78 32.55 165.75 C 32.56 167.81 32.56 169.87 32.54 171.94 C 40.48 179.32 51.21 183.12 61.89 184.04 C 59.76 180.79 57.66 177.41 57.09 173.50 C 56.42 171.01 56.46 168.42 56.84 165.89 C 57.62 163.03 58.97 160.40 60.47 157.87 C 61.91 156.36 63.52 154.97 65.16 153.65 C 60.97 152.50 56.85 151.05 53.08 148.85 C 50.92 147.43 48.22 147.44 45.86 148.34 M 128.31 150.37 C 119.63 152.92 110.70 154.53 101.73 155.65 C 89.92 156.22 77.97 156.74 66.33 154.14 C 65.23 155.15 64.13 156.16 63.05 157.19 L 62.89 157.13 C 62.16 157.99 61.42 158.86 60.68 159.73 C 59.67 161.75 58.82 163.85 58.11 165.99 C 57.69 168.81 57.41 171.74 58.61 174.42 C 59.80 178.54 61.93 184.20 67.07 184.20 C 79.68 185.63 92.40 185.51 105.01 184.44 C 116.65 184.02 128.21 182.11 139.58 179.70 C 141.96 178.98 145.08 178.68 146.15 176.06 C 148.45 170.61 147.91 164.44 145.92 158.98 L 145.44 159.07 C 144.12 156.88 142.47 154.93 140.54 153.26 C 138.59 151.46 136.34 149.84 133.71 149.29 C 131.86 149.27 130.08 149.92 128.31 150.37 Z" />
<path fill="#282119" opacity="1.00" d=" M 155.17 35.96 C 154.78 32.96 158.78 31.79 160.95 33.16 C 163.87 34.38 165.59 37.33 165.77 40.41 C 167.71 40.91 169.97 41.06 171.44 42.59 C 172.58 43.91 172.78 45.74 173.37 47.32 C 177.99 49.22 181.03 54.08 180.34 59.09 C 182.27 60.65 184.24 62.36 185.11 64.76 C 186.31 67.38 184.74 70.48 186.25 73.00 L 185.60 73.38 C 185.02 73.07 183.88 72.44 183.30 72.13 L 182.32 71.96 C 180.81 71.72 179.29 71.53 177.77 71.38 C 176.48 72.77 175.19 74.15 173.90 75.53 L 173.54 75.64 C 170.35 72.06 169.38 67.17 170.63 62.56 C 167.64 60.39 164.87 56.59 166.00 52.72 C 165.14 52.06 164.28 51.38 163.42 50.71 C 164.05 50.88 165.30 51.21 165.92 51.38 C 166.93 50.62 167.91 49.81 168.94 49.06 C 166.95 51.71 166.02 55.13 167.84 58.15 C 168.69 59.32 169.61 60.44 170.53 61.57 C 173.05 59.36 176.12 57.95 179.54 58.23 C 179.20 55.29 178.32 52.42 176.45 50.07 C 174.37 48.84 171.96 48.50 169.58 48.72 C 172.82 48.09 172.21 44.93 170.59 42.95 C 168.49 42.22 166.33 41.72 164.16 41.26 C 165.00 39.72 164.47 38.10 163.77 36.63 C 162.03 35.04 159.93 33.94 157.82 32.93 C 154.83 34.91 156.39 38.20 157.85 40.60 C 159.13 41.79 160.64 42.66 162.18 43.46 C 162.22 45.32 162.28 47.19 162.41 49.05 C 161.07 47.75 161.29 45.80 161.08 44.13 C 157.86 42.64 155.55 39.50 155.17 35.96 M 173.52 60.46 C 170.73 62.64 171.04 66.51 170.85 69.66 C 171.72 71.04 172.60 72.41 173.49 73.78 C 176.31 70.53 180.70 69.35 184.77 70.84 C 185.37 66.75 183.48 62.95 180.28 60.47 C 178.09 60.06 175.33 58.37 173.52 60.46 Z" />
<path fill="#282119" opacity="1.00" d=" M 55.18 41.42 C 60.21 40.04 64.02 36.26 68.76 34.26 C 70.84 34.41 72.89 34.83 74.90 35.39 C 77.48 37.11 80.63 39.53 80.00 43.05 C 79.60 50.95 69.36 55.06 63.06 50.80 C 59.60 48.23 60.16 43.77 60.84 40.05 C 55.00 42.82 48.81 44.72 42.62 46.50 C 40.37 46.71 38.10 46.77 35.85 46.63 C 34.61 45.34 34.41 43.49 33.93 41.85 L 34.50 42.24 C 34.98 43.19 35.51 44.14 36.06 45.06 C 42.69 46.27 48.98 43.26 55.18 41.42 M 68.51 35.56 C 71.29 37.94 72.71 41.26 73.78 44.66 C 73.66 46.71 73.44 48.76 73.15 50.79 C 76.07 48.91 79.35 46.02 78.63 42.14 C 78.71 39.81 76.68 38.38 75.31 36.80 C 73.05 36.32 70.79 35.89 68.51 35.56 M 65.22 37.27 C 63.20 39.00 61.84 41.38 61.16 43.94 C 61.68 45.90 61.94 48.15 63.77 49.39 C 66.09 51.61 69.50 51.32 72.45 51.18 C 72.40 49.31 72.36 47.44 72.34 45.57 C 72.99 41.57 69.44 36.65 65.22 37.27 Z" />
<path fill="#282119" opacity="1.00" d=" M 38.81 180.74 C 43.47 181.98 47.62 184.58 52.29 185.77 C 57.37 187.13 62.65 187.51 67.78 188.63 C 65.79 188.70 63.81 188.83 61.82 188.84 C 53.83 187.47 45.21 186.01 38.81 180.74 Z" />
</g>
<g id="#fbdd9aff">
<path fill="#fbdd9a" opacity="1.00" d=" M 157.85 40.60 C 156.39 38.20 154.83 34.91 157.82 32.93 C 159.93 33.94 162.03 35.04 163.77 36.63 C 161.80 37.96 159.83 39.28 157.85 40.60 Z" />
</g>
<g id="#fef7d9ff">
<path fill="#fef7d9" opacity="1.00" d=" M 68.51 35.56 C 70.79 35.89 73.05 36.32 75.31 36.80 C 75.77 39.56 75.55 42.38 73.78 44.66 C 72.71 41.26 71.29 37.94 68.51 35.56 Z" />
<path fill="#fef7d9" opacity="1.00" d=" M 65.22 37.27 C 69.44 36.65 72.99 41.57 72.34 45.57 C 68.55 45.67 64.73 45.32 61.16 43.94 C 61.84 41.38 63.20 39.00 65.22 37.27 Z" />
</g>
<g id="#fde190ff">
<path fill="#fde190" opacity="1.00" d=" M 75.31 36.80 C 76.68 38.38 78.71 39.81 78.63 42.14 C 79.35 46.02 76.07 48.91 73.15 50.79 C 73.44 48.76 73.66 46.71 73.78 44.66 C 75.55 42.38 75.77 39.56 75.31 36.80 Z" />
</g>
<g id="#ccb57eff">
<path fill="#ccb57e" opacity="1.00" d=" M 157.85 40.60 C 159.83 39.28 161.80 37.96 163.77 36.63 C 164.47 38.10 165.00 39.72 164.16 41.26 C 163.16 43.44 162.40 45.76 162.66 48.20 C 162.67 48.53 162.70 49.20 162.71 49.53 L 162.74 50.32 C 162.66 50.01 162.49 49.37 162.41 49.05 C 162.28 47.19 162.22 45.32 162.18 43.46 C 160.64 42.66 159.13 41.79 157.85 40.60 Z" />
</g>
<g id="#c2a1c2ff">
<path fill="#c2a1c2" opacity="1.00" d=" M 42.62 46.50 C 48.81 44.72 55.00 42.82 60.84 40.05 C 60.16 43.77 59.60 48.23 63.06 50.80 C 57.76 53.11 52.54 55.68 46.97 57.31 C 43.00 58.45 39.06 60.26 34.85 60.11 C 35.12 59.55 35.67 58.42 35.94 57.85 C 35.38 58.17 34.28 58.81 33.72 59.13 C 32.31 59.45 30.88 59.67 29.46 59.89 C 29.14 59.30 28.49 58.11 28.16 57.52 L 27.70 56.72 L 26.88 56.97 C 26.10 57.63 25.32 58.30 24.55 58.98 C 22.21 51.59 28.50 45.71 33.93 41.85 C 34.41 43.49 34.61 45.34 35.85 46.63 C 36.20 46.99 36.91 47.71 37.26 48.07 C 39.49 48.17 41.73 48.09 43.97 47.98 C 43.63 47.61 42.96 46.87 42.62 46.50 M 28.43 56.87 C 32.60 56.23 31.47 51.02 31.68 48.01 C 29.29 50.40 27.59 53.39 28.43 56.87 Z" />
</g>
<g id="#f9dd92ff">
<path fill="#f9dd92" opacity="1.00" d=" M 164.16 41.26 C 166.33 41.72 168.49 42.22 170.59 42.95 C 168.60 45.57 165.89 47.47 162.66 48.20 C 162.40 45.76 163.16 43.44 164.16 41.26 Z" />
</g>
<g id="#c9b37eff">
<path fill="#c9b37e" opacity="1.00" d=" M 170.59 42.95 C 172.21 44.93 172.82 48.09 169.58 48.72 L 168.94 49.06 C 167.91 49.81 166.93 50.62 165.92 51.38 C 165.30 51.21 164.05 50.88 163.42 50.71 C 163.24 50.41 162.89 49.82 162.71 49.53 C 162.70 49.20 162.67 48.53 162.66 48.20 C 165.89 47.47 168.60 45.57 170.59 42.95 Z" />
</g>
<g id="#fce28fff">
<path fill="#fce28f" opacity="1.00" d=" M 61.16 43.94 C 64.73 45.32 68.55 45.67 72.34 45.57 C 72.36 47.44 72.40 49.31 72.45 51.18 C 69.50 51.32 66.09 51.61 63.77 49.39 C 61.94 48.15 61.68 45.90 61.16 43.94 Z" />
</g>
<g id="#d9b5d8ff">
<path fill="#d9b5d8" opacity="1.00" d=" M 35.85 46.63 C 38.10 46.77 40.37 46.71 42.62 46.50 C 42.96 46.87 43.63 47.61 43.97 47.98 C 41.73 48.09 39.49 48.17 37.26 48.07 C 36.91 47.71 36.20 46.99 35.85 46.63 Z" />
</g>
<g id="#e2d0e1ff">
<path fill="#e2d0e1" opacity="1.00" d=" M 28.43 56.87 C 27.59 53.39 29.29 50.40 31.68 48.01 C 31.47 51.02 32.60 56.23 28.43 56.87 Z" />
</g>
<g id="#f5d990ff">
<path fill="#f5d990" opacity="1.00" d=" M 168.94 49.06 L 169.58 48.72 C 171.96 48.50 174.37 48.84 176.45 50.07 C 175.52 51.89 174.76 53.83 173.51 55.48 C 171.87 56.80 169.76 57.33 167.84 58.15 C 166.02 55.13 166.95 51.71 168.94 49.06 Z" />
</g>
<g id="#bda97bff">
<path fill="#bda97b" opacity="1.00" d=" M 173.51 55.48 C 174.76 53.83 175.52 51.89 176.45 50.07 C 178.32 52.42 179.20 55.29 179.54 58.23 C 176.12 57.95 173.05 59.36 170.53 61.57 C 169.61 60.44 168.69 59.32 167.84 58.15 C 169.76 57.33 171.87 56.80 173.51 55.48 Z" />
</g>
<g id="#be9bbdff">
<path fill="#be9bbd" opacity="1.00" d=" M 107.24 54.99 L 108.90 55.60 C 114.35 59.75 118.56 65.60 120.71 72.09 C 119.64 77.53 119.96 83.19 118.15 88.48 C 116.92 89.17 115.65 89.81 114.38 90.42 C 120.23 81.92 117.57 69.79 109.73 63.47 C 109.68 60.45 108.74 57.59 107.24 54.99 Z" />
</g>
<g id="#412f3eff">
<path fill="#412f3e" opacity="1.00" d=" M 26.88 56.97 L 27.70 56.72 L 28.16 57.52 C 27.20 58.80 26.77 58.62 26.88 56.97 Z" />
</g>
<g id="#352225ff">
<path fill="#352225" opacity="1.00" d=" M 54.86 58.86 C 59.65 56.67 65.94 55.89 70.16 59.68 C 75.29 64.64 77.77 73.43 73.44 79.67 C 68.61 87.28 58.41 90.09 49.92 88.30 C 46.68 87.69 44.85 84.76 42.91 82.41 L 42.48 84.44 C 40.87 79.55 46.19 75.91 45.73 71.02 C 46.19 68.71 43.83 66.90 44.30 64.68 C 45.15 66.09 46.00 67.52 46.67 69.03 C 46.81 72.13 45.83 75.08 45.01 78.02 C 43.72 81.72 46.45 85.92 50.18 86.72 C 55.79 87.96 61.81 87.04 66.88 84.33 C 62.33 85.02 57.66 86.38 53.11 84.89 C 49.76 84.25 46.05 81.89 46.20 78.07 C 46.69 75.46 48.46 73.34 50.18 71.42 C 56.73 66.36 65.26 65.42 73.22 66.68 C 71.49 62.16 67.55 57.81 62.27 58.40 C 55.98 59.40 50.24 62.43 44.10 64.03 L 43.99 63.38 C 47.11 60.83 51.31 60.57 54.86 58.86 M 51.99 72.12 L 51.79 72.09 C 49.28 74.20 47.55 77.06 47.39 80.40 C 47.72 80.54 48.36 80.80 48.68 80.94 C 53.38 86.16 61.23 84.25 67.16 82.58 C 73.17 81.29 75.18 74.16 74.11 68.81 C 66.86 65.96 58.14 67.44 51.99 72.12 Z" />
</g>
<g id="#543d50ff">
<path fill="#543d50" opacity="1.00" d=" M 33.72 59.13 C 34.28 58.81 35.38 58.17 35.94 57.85 C 35.67 58.42 35.12 59.55 34.85 60.11 C 34.57 59.87 34.00 59.37 33.72 59.13 Z" />
</g>
<g id="#896165ff">
<path fill="#896165" opacity="1.00" d=" M 62.27 58.40 C 67.55 57.81 71.49 62.16 73.22 66.68 C 65.26 65.42 56.73 66.36 50.18 71.42 C 49.01 70.62 47.84 69.83 46.67 69.03 C 46.00 67.52 45.15 66.09 44.30 64.68 L 44.10 64.03 C 50.24 62.43 55.98 59.40 62.27 58.40 Z" />
</g>
<g id="#e0c98bff">
<path fill="#e0c98b" opacity="1.00" d=" M 173.52 60.46 C 175.33 58.37 178.09 60.06 180.28 60.47 C 179.61 62.65 179.44 65.15 177.92 66.96 C 176.19 69.04 173.27 69.04 170.85 69.66 C 171.04 66.51 170.73 62.64 173.52 60.46 Z" />
</g>
<g id="#ae9c76ff">
<path fill="#ae9c76" opacity="1.00" d=" M 180.28 60.47 C 183.48 62.95 185.37 66.75 184.77 70.84 C 180.70 69.35 176.31 70.53 173.49 73.78 C 172.60 72.41 171.72 71.04 170.85 69.66 C 173.27 69.04 176.19 69.04 177.92 66.96 C 179.44 65.15 179.61 62.65 180.28 60.47 Z" />
</g>
<g id="#bb8d91ff">
<path fill="#bb8d91" opacity="1.00" d=" M 51.99 72.12 C 58.14 67.44 66.86 65.96 74.11 68.81 C 75.18 74.16 73.17 81.29 67.16 82.58 C 61.23 84.25 53.38 86.16 48.68 80.94 C 55.49 82.62 64.51 83.05 69.22 76.86 C 64.30 72.93 57.82 73.32 51.99 72.12 Z" />
<path fill="#bb8d91" opacity="1.00" d=" M 46.67 69.03 C 47.84 69.83 49.01 70.62 50.18 71.42 C 48.46 73.34 46.69 75.46 46.20 78.07 C 46.05 81.89 49.76 84.25 53.11 84.89 C 57.66 86.38 62.33 85.02 66.88 84.33 C 61.81 87.04 55.79 87.96 50.18 86.72 C 46.45 85.92 43.72 81.72 45.01 78.02 C 45.83 75.08 46.81 72.13 46.67 69.03 Z" />
</g>
<g id="#ebbfc3ff">
<path fill="#ebbfc3" opacity="1.00" d=" M 51.79 72.09 L 51.99 72.12 C 57.82 73.32 64.30 72.93 69.22 76.86 C 64.51 83.05 55.49 82.62 48.68 80.94 C 48.36 80.80 47.72 80.54 47.39 80.40 C 47.55 77.06 49.28 74.20 51.79 72.09 Z" />
</g>
<g id="#ead392ff">
<path fill="#ead392" opacity="1.00" d=" M 173.90 75.53 C 175.19 74.15 176.48 72.77 177.77 71.38 C 179.29 71.53 180.81 71.72 182.32 71.96 C 179.60 73.35 176.92 74.90 173.90 75.53 Z" />
</g>
<g id="#d5be87ff">
<path fill="#d5be87" opacity="1.00" d=" M 182.32 71.96 L 183.30 72.13 C 182.60 76.51 178.86 79.87 174.35 79.66 C 174.18 78.70 173.85 76.78 173.69 75.82 L 173.54 75.64 L 173.90 75.53 C 176.92 74.90 179.60 73.35 182.32 71.96 Z" />
</g>
<g id="#9a8a67ff">
<path fill="#9a8a67" opacity="1.00" d=" M 183.30 72.13 C 183.88 72.44 185.02 73.07 185.60 73.38 C 184.40 75.25 183.54 77.36 182.07 79.04 C 180.03 80.96 177.08 81.11 174.49 81.73 C 174.17 82.89 173.84 84.07 173.53 85.24 C 173.52 82.12 172.33 78.78 173.69 75.82 C 173.85 76.78 174.18 78.70 174.35 79.66 C 178.86 79.87 182.60 76.51 183.30 72.13 Z" />
<path fill="#9a8a67" opacity="1.00" d=" M 142.97 139.98 C 146.70 138.26 149.60 135.27 152.93 132.95 C 150.66 137.51 146.22 140.30 142.04 142.90 C 131.02 149.16 118.42 151.80 106.05 153.85 C 90.09 155.40 73.23 156.27 58.12 149.95 C 54.84 148.82 51.64 147.22 49.33 144.55 C 52.65 145.38 55.46 147.47 58.77 148.33 C 64.02 149.92 69.48 150.64 74.86 151.66 C 82.86 153.17 90.99 151.89 99.04 151.72 C 114.03 149.32 128.96 145.98 142.97 139.98 Z" />
</g>
<g id="#d6b3d5ff">
<path fill="#d6b3d5" opacity="1.00" d=" M 120.71 72.09 C 122.06 77.41 123.48 84.87 118.15 88.48 C 119.96 83.19 119.64 77.53 120.71 72.09 Z" />
</g>
<g id="#86775eff">
<path fill="#86775e" opacity="1.00" d=" M 185.60 73.38 L 186.25 73.00 C 186.38 73.28 186.64 73.82 186.77 74.10 C 188.64 77.52 189.63 81.43 188.39 85.25 C 184.51 83.83 180.49 84.55 176.82 86.21 C 176.48 86.12 175.80 85.94 175.47 85.85 C 174.98 85.70 174.01 85.39 173.53 85.24 C 173.84 84.07 174.17 82.89 174.49 81.73 C 177.08 81.11 180.03 80.96 182.07 79.04 C 183.54 77.36 184.40 75.25 185.60 73.38 Z" />
</g>
<g id="#e4cb89ff">
<path fill="#e4cb89" opacity="1.00" d=" M 74.18 86.09 C 74.61 85.78 75.03 85.47 75.46 85.16 C 76.30 86.29 77.13 87.43 78.02 88.52 C 77.49 88.64 76.43 88.88 75.90 89.00 C 75.45 91.12 75.41 93.37 74.47 95.37 C 72.91 98.25 70.29 100.32 67.90 102.48 C 68.61 98.54 71.74 95.92 73.69 92.64 C 74.99 90.66 74.40 88.26 74.18 86.09 Z" />
</g>
<g id="#d1b5cfff">
<path fill="#d1b5cf" opacity="1.00" d=" M 178.85 86.61 C 179.97 86.20 181.11 85.82 182.26 85.48 C 183.22 88.88 184.47 92.35 183.85 95.94 C 183.65 100.54 182.20 104.91 180.68 109.21 C 180.24 109.38 179.37 109.72 178.93 109.89 C 177.06 113.29 175.73 117.02 173.18 120.02 C 172.13 120.21 171.08 120.41 170.03 120.61 C 174.96 109.91 178.56 98.47 178.85 86.61 Z" />
</g>
<g id="#8a627fff">
<path fill="#8a627f" opacity="1.00" d=" M 182.26 85.48 C 184.22 85.53 186.44 85.58 187.84 87.19 C 190.01 89.06 189.43 92.22 189.63 94.76 C 188.99 94.71 187.72 94.61 187.09 94.55 C 186.30 96.92 185.47 99.27 184.50 101.57 C 183.97 99.74 183.66 97.85 183.85 95.94 C 184.47 92.35 183.22 88.88 182.26 85.48 Z" />
</g>
<g id="#fbe4b9ff">
<path fill="#fbe4b9" opacity="1.00" d=" M 65.43 97.03 C 68.87 93.74 69.89 88.51 74.18 86.09 C 74.40 88.26 74.99 90.66 73.69 92.64 C 71.74 95.92 68.61 98.54 67.90 102.48 C 67.69 102.69 67.28 103.13 67.07 103.35 C 66.33 101.30 65.86 99.16 65.43 97.03 Z" />
</g>
<g id="#ad80aaff">
<path fill="#ad80aa" opacity="1.00" d=" M 175.04 92.05 C 175.23 89.66 176.84 87.77 178.85 86.61 C 178.56 98.47 174.96 109.91 170.03 120.61 C 171.08 120.41 172.13 120.21 173.18 120.02 C 171.53 122.10 169.36 123.67 167.14 125.09 C 167.96 121.83 168.65 118.53 169.13 115.20 C 172.19 107.81 173.95 99.95 175.04 92.05 Z" />
</g>
<g id="#b09d69ff">
<path fill="#b09d69" opacity="1.00" d=" M 75.90 89.00 C 76.43 88.88 77.49 88.64 78.02 88.52 C 88.09 96.66 102.48 96.49 114.04 91.85 C 111.89 97.34 109.27 102.69 108.83 108.68 C 102.00 114.42 92.51 115.55 83.96 114.14 C 77.25 112.92 70.30 109.71 67.07 103.35 C 67.28 103.13 67.69 102.69 67.90 102.48 C 70.29 100.32 72.91 98.25 74.47 95.37 C 75.41 93.37 75.45 91.12 75.90 89.00 Z" />
</g>
<g id="#f9ebb9ff">
<path fill="#f9ebb9" opacity="1.00" d=" M 116.08 90.93 C 117.70 90.04 119.26 89.04 120.83 88.07 C 119.26 93.07 117.57 98.12 114.63 102.52 L 114.53 102.68 L 114.30 103.27 L 113.94 103.95 C 113.06 104.83 112.15 105.68 111.21 106.50 C 111.44 100.91 115.22 96.37 116.08 90.93 Z" />
</g>
<g id="#e1c987ff">
<path fill="#e1c987" opacity="1.00" d=" M 114.04 91.85 C 114.55 91.62 115.57 91.16 116.08 90.93 C 115.22 96.37 111.44 100.91 111.21 106.50 C 110.41 107.21 109.63 107.96 108.83 108.68 C 109.27 102.69 111.89 97.34 114.04 91.85 Z" />
</g>
<g id="#735267ff">
<path fill="#735267" opacity="1.00" d=" M 187.09 94.55 C 187.72 94.61 188.99 94.71 189.63 94.76 C 189.42 104.63 186.20 114.11 182.05 122.96 C 181.43 122.41 180.80 121.85 180.18 121.29 C 175.37 123.54 170.90 126.55 165.75 128.04 C 168.77 125.55 171.97 123.31 175.10 120.97 C 178.78 118.21 179.80 113.45 180.68 109.21 C 182.20 104.91 183.65 100.54 183.85 95.94 C 183.66 97.85 183.97 99.74 184.50 101.57 C 185.47 99.27 186.30 96.92 187.09 94.55 Z" />
</g>
<g id="#665849ff">
<path fill="#665849" opacity="1.00" d=" M 191.44 92.89 C 192.93 99.55 191.26 106.31 189.74 112.80 C 189.50 113.67 189.27 114.55 189.07 115.44 C 187.93 119.59 186.10 123.52 184.90 127.65 C 184.73 128.09 184.40 128.97 184.23 129.42 C 181.25 133.92 178.16 138.38 175.61 143.15 L 175.34 143.68 L 174.72 143.78 C 173.52 143.89 172.89 144.55 172.82 145.75 L 172.69 146.63 L 171.68 146.86 C 170.41 147.08 169.77 147.83 169.77 149.11 L 168.39 149.27 C 167.84 148.47 167.29 147.67 166.74 146.87 C 177.42 138.26 183.30 125.31 187.42 112.54 C 189.55 106.17 190.16 99.45 191.44 92.89 Z" />
</g>
<g id="#d8bad6ff">
<path fill="#d8bad6" opacity="1.00" d=" M 58.25 103.22 C 60.40 101.37 62.54 99.51 64.60 97.56 C 64.95 99.42 65.30 101.29 65.64 103.16 C 63.20 103.62 60.70 103.61 58.25 103.22 Z" />
</g>
<g id="#c5a5c5ff">
<path fill="#c5a5c5" opacity="1.00" d=" M 51.58 108.34 C 53.99 106.89 56.13 105.05 58.25 103.22 C 60.70 103.61 63.20 103.62 65.64 103.16 C 65.81 103.45 66.16 104.02 66.33 104.31 C 64.62 105.40 62.89 106.46 61.22 107.61 C 58.35 107.67 55.70 108.76 53.36 110.38 C 52.92 109.87 52.02 108.85 51.58 108.34 Z" />
</g>
<g id="#5d4454ff">
<path fill="#5d4454" opacity="1.00" d=" M 115.20 105.83 C 119.41 105.63 123.54 104.71 127.74 104.39 C 128.16 104.85 129.00 105.78 129.41 106.24 C 126.75 108.33 124.95 111.23 124.29 114.55 C 116.10 118.18 107.34 120.35 98.59 122.17 C 101.86 118.92 105.56 116.10 108.48 112.51 C 110.36 110.24 112.21 107.92 114.52 106.06 L 115.20 105.83 Z" />
</g>
<g id="#875f7cff">
<path fill="#875f7c" opacity="1.00" d=" M 127.74 104.39 C 134.90 104.75 142.95 105.42 148.16 111.02 C 145.06 110.19 141.97 108.27 138.64 108.91 C 133.45 109.56 128.72 111.89 124.29 114.55 C 124.95 111.23 126.75 108.33 129.41 106.24 C 129.00 105.78 128.16 104.85 127.74 104.39 Z" />
</g>
<g id="#8c6283ff">
<path fill="#8c6283" opacity="1.00" d=" M 178.93 109.89 C 179.37 109.72 180.24 109.38 180.68 109.21 C 179.80 113.45 178.78 118.21 175.10 120.97 C 171.97 123.31 168.77 125.55 165.75 128.04 C 165.36 128.19 164.58 128.50 164.20 128.65 C 164.90 126.48 165.48 124.24 165.19 121.94 C 166.08 120.31 166.72 118.56 167.32 116.81 C 167.37 116.71 167.47 116.51 167.51 116.40 L 169.13 115.20 C 168.65 118.53 167.96 121.83 167.14 125.09 C 169.36 123.67 171.53 122.10 173.18 120.02 C 175.73 117.02 177.06 113.29 178.93 109.89 Z" />
</g>
<g id="#8a607fff">
<path fill="#8a607f" opacity="1.00" d=" M 126.99 114.74 C 132.70 110.41 141.23 108.25 147.70 112.24 C 152.71 115.26 154.75 121.29 154.45 126.90 C 153.47 131.04 150.00 133.93 146.71 136.32 C 148.44 129.14 143.85 122.67 138.97 117.95 C 135.56 115.44 131.21 114.31 126.99 114.74 Z" />
</g>
<g id="#d0b4cfff">
<path fill="#d0b4cf" opacity="1.00" d=" M 44.37 119.68 C 46.71 117.35 50.47 115.08 53.62 117.31 C 56.10 119.91 56.83 124.05 60.31 125.70 C 66.61 129.05 73.94 129.62 80.94 130.13 C 91.29 130.10 101.68 129.06 111.80 126.82 C 117.71 125.55 123.32 123.15 129.29 122.15 C 130.51 122.24 131.72 122.34 132.94 122.44 C 132.15 124.09 131.37 125.74 130.56 127.38 C 125.69 128.79 120.73 129.87 115.90 131.44 C 115.67 130.71 115.44 129.97 115.21 129.24 C 109.63 129.58 104.21 131.03 98.64 131.49 C 93.04 132.09 87.36 132.10 81.85 133.36 C 84.98 133.77 88.11 134.15 91.23 134.66 C 86.87 135.60 82.38 135.48 77.97 134.95 C 68.28 133.63 58.67 131.29 49.68 127.39 C 46.53 126.08 45.83 122.39 44.37 119.68 Z" />
</g>
<g id="#88607eff">
<path fill="#88607e" opacity="1.00" d=" M 118.39 118.27 C 122.48 116.95 126.68 114.85 131.08 115.82 C 139.85 117.45 146.75 126.05 145.87 135.01 C 145.81 137.11 143.74 138.33 142.18 139.36 C 137.31 142.04 131.68 142.69 126.45 144.37 C 107.73 150.41 87.44 153.59 68.01 149.09 C 59.80 147.81 51.69 145.06 45.01 140.01 C 41.80 137.51 40.24 133.45 40.25 129.44 C 44.47 131.99 47.99 135.62 52.56 137.57 C 60.74 141.56 69.84 142.80 78.73 144.20 C 89.18 145.63 99.70 144.19 110.11 143.17 C 112.19 143.00 114.03 141.98 115.79 140.94 C 112.37 139.22 108.49 139.49 104.79 139.41 C 109.38 138.22 113.77 136.48 118.07 134.48 C 122.38 132.50 128.68 132.61 130.56 127.38 C 131.37 125.74 132.15 124.09 132.94 122.44 C 131.72 122.34 130.51 122.24 129.29 122.15 C 126.34 121.89 123.29 121.47 120.42 122.45 C 109.56 125.73 98.42 128.72 86.98 128.46 C 82.81 128.15 76.71 129.94 74.80 124.90 C 89.58 125.66 104.44 123.17 118.39 118.27 Z" />
<path fill="#88607e" opacity="1.00" d=" M 45.86 148.34 C 48.22 147.44 50.92 147.43 53.08 148.85 C 56.85 151.05 60.97 152.50 65.16 153.65 C 63.52 154.97 61.91 156.36 60.47 157.87 C 55.39 155.60 49.79 154.62 45.01 151.65 C 46.24 151.06 47.48 150.48 48.71 149.89 C 48.00 149.50 46.57 148.73 45.86 148.34 Z" />
</g>
<g id="#17130fbc">
<path fill="#17130f" opacity="0.74" d=" M 184.90 127.65 C 186.10 123.52 187.93 119.59 189.07 115.44 C 190.38 117.04 188.87 118.90 188.47 120.54 C 187.49 122.98 186.50 125.42 185.57 127.88 L 184.90 127.65 Z" />
</g>
<g id="#1d1419d4">
<path fill="#1d1419" opacity="0.83" d=" M 161.56 125.32 C 163.33 122.40 164.67 119.06 167.32 116.81 C 166.72 118.56 166.08 120.31 165.19 121.94 C 164.00 123.09 162.78 124.20 161.56 125.32 Z" />
</g>
<g id="#5d4354ff">
<path fill="#5d4354" opacity="1.00" d=" M 180.18 121.29 C 180.80 121.85 181.43 122.41 182.05 122.96 C 178.18 131.39 173.79 140.55 165.66 145.61 C 161.38 142.19 157.23 138.55 152.24 136.15 C 154.25 133.79 156.29 131.46 158.20 129.02 C 159.24 127.71 160.34 126.46 161.56 125.32 C 162.78 124.20 164.00 123.09 165.19 121.94 C 165.48 124.24 164.90 126.48 164.20 128.65 C 164.58 128.50 165.36 128.19 165.75 128.04 C 170.90 126.55 175.37 123.54 180.18 121.29 Z" />
</g>
<g id="#1a1512d2">
<path fill="#1a1512" opacity="0.82" d=" M 175.61 143.15 C 178.16 138.38 181.25 133.92 184.23 129.42 C 182.70 134.63 179.61 139.48 175.61 143.15 Z" />
</g>
<g id="#aa7ba4ff">
<path fill="#aa7ba4" opacity="1.00" d=" M 41.10 138.03 C 43.36 141.13 45.92 144.02 49.02 146.30 C 46.54 147.07 44.11 148.04 41.89 149.41 C 41.80 147.44 41.77 145.46 41.37 143.52 C 38.67 142.01 35.32 143.80 32.36 142.91 C 34.94 140.73 38.04 139.36 41.10 138.03 Z" />
</g>
<g id="#89607fff">
<path fill="#89607f" opacity="1.00" d=" M 148.51 140.30 C 149.77 139.55 150.71 137.28 152.46 138.09 C 154.94 138.76 157.40 139.98 158.65 142.35 C 164.70 146.18 170.75 152.22 170.46 159.93 C 170.50 164.47 167.55 168.39 164.01 170.93 C 158.57 173.99 152.77 176.36 146.74 177.98 C 149.18 172.48 149.79 165.95 147.70 160.26 C 145.15 154.76 140.19 150.34 134.34 148.65 C 137.61 146.72 141.18 145.36 144.39 143.32 C 148.42 140.65 153.46 141.78 157.97 141.82 C 155.33 139.45 151.72 140.16 148.51 140.30 Z" />
</g>
<g id="#c5a4c4ff">
<path fill="#c5a4c4" opacity="1.00" d=" M 26.33 149.55 C 28.16 147.19 29.99 144.77 32.36 142.91 C 35.32 143.80 38.67 142.01 41.37 143.52 C 41.77 145.46 41.80 147.44 41.89 149.41 C 38.70 151.47 36.03 154.24 33.85 157.34 C 32.61 154.27 31.35 151.21 30.07 148.15 C 28.82 148.60 27.56 149.05 26.33 149.55 Z" />
</g>
<g id="#9d8e5fff">
<path fill="#9d8e5f" opacity="1.00" d=" M 49.33 144.55 C 49.04 144.12 49.04 144.12 49.33 144.55 Z" />
</g>
<g id="#171210d0">
<path fill="#171210" opacity="0.82" d=" M 172.82 145.75 C 172.89 144.55 173.52 143.89 174.72 143.78 C 174.99 145.36 174.35 146.02 172.82 145.75 Z" />
</g>
<g id="#191213cc">
<path fill="#191213" opacity="0.80" d=" M 169.77 149.11 C 169.77 147.83 170.41 147.08 171.68 146.86 C 171.94 148.33 171.30 149.08 169.77 149.11 Z" />
</g>
<g id="#b488b0ff">
<path fill="#b488b0" opacity="1.00" d=" M 26.33 149.55 C 27.56 149.05 28.82 148.60 30.07 148.15 C 31.35 151.21 32.61 154.27 33.85 157.34 C 32.76 159.75 31.97 162.28 31.32 164.84 C 28.64 162.09 26.09 159.21 23.41 156.46 C 23.66 154.86 23.98 153.27 24.27 151.68 C 24.32 151.43 24.41 150.94 24.46 150.69 C 24.73 150.52 25.26 150.18 25.53 150.01 C 25.73 149.90 26.13 149.67 26.33 149.55 Z" />
</g>
<g id="#ae81aaff">
<path fill="#ae81aa" opacity="1.00" d=" M 40.55 151.30 C 42.30 150.28 44.03 149.23 45.86 148.34 C 46.57 148.73 48.00 149.50 48.71 149.89 C 47.48 150.48 46.24 151.06 45.01 151.65 C 49.79 154.62 55.39 155.60 60.47 157.87 C 58.46 158.32 56.33 158.72 54.36 157.87 C 49.72 156.17 45.01 154.44 40.95 151.57 L 40.55 151.30 Z" />
</g>
<g id="#875f7dff">
<path fill="#875f7d" opacity="1.00" d=" M 128.31 150.37 C 130.08 149.92 131.86 149.27 133.71 149.29 C 136.34 149.84 138.59 151.46 140.54 153.26 C 136.44 154.99 131.84 154.22 127.63 155.57 C 109.23 160.54 89.90 161.48 71.00 159.40 C 68.24 159.10 65.63 158.15 63.05 157.19 C 64.13 156.16 65.23 155.15 66.33 154.14 C 77.97 156.74 89.92 156.22 101.73 155.65 C 110.70 154.53 119.63 152.92 128.31 150.37 Z" />
</g>
<g id="#ceb3ceff">
<path fill="#ceb3ce" opacity="1.00" d=" M 35.39 157.01 C 36.98 154.94 38.69 152.93 40.95 151.57 C 45.01 154.44 49.72 156.17 54.36 157.87 C 56.33 158.72 58.46 158.32 60.47 157.87 C 58.97 160.40 57.62 163.03 56.84 165.89 C 52.26 164.36 47.33 163.47 43.30 160.66 C 40.89 159.00 38.33 157.47 35.39 157.01 Z" />
</g>
<g id="#b386aeff">
<path fill="#b386ae" opacity="1.00" d=" M 127.63 155.57 C 131.84 154.22 136.44 154.99 140.54 153.26 C 142.47 154.93 144.12 156.88 145.44 159.07 C 140.38 159.91 135.88 162.60 130.95 163.92 C 131.48 164.63 132.00 165.34 132.52 166.05 C 124.96 168.09 116.91 167.63 109.53 170.43 C 105.51 171.83 101.25 172.28 97.03 172.63 C 99.24 173.12 101.43 173.66 103.61 174.24 C 97.25 179.60 88.46 176.57 80.98 176.67 C 73.43 176.95 66.07 175.19 58.61 174.42 C 57.41 171.74 57.69 168.81 58.11 165.99 C 66.27 167.86 74.99 168.50 83.03 165.77 C 95.01 165.02 107.00 164.10 118.97 163.08 C 123.48 162.56 127.73 160.80 132.21 160.08 C 132.33 160.62 132.57 161.70 132.70 162.24 C 134.81 161.70 136.65 160.67 136.83 158.29 C 137.97 157.42 139.11 156.58 140.25 155.72 C 132.55 155.31 125.47 158.81 117.96 159.83 C 109.69 161.00 101.33 161.38 93.01 162.12 C 82.20 163.17 71.26 162.05 60.68 159.73 C 61.42 158.86 62.16 157.99 62.89 157.13 L 63.05 157.19 C 65.63 158.15 68.24 159.10 71.00 159.40 C 89.90 161.48 109.23 160.54 127.63 155.57 Z" />
</g>
<g id="#d1b5d0ff">
<path fill="#d1b5d0" opacity="1.00" d=" M 117.96 159.83 C 125.47 158.81 132.55 155.31 140.25 155.72 C 139.11 156.58 137.97 157.42 136.83 158.29 C 136.65 160.67 134.81 161.70 132.70 162.24 C 132.57 161.70 132.33 160.62 132.21 160.08 C 127.73 160.80 123.48 162.56 118.97 163.08 C 107.00 164.10 95.01 165.02 83.03 165.77 C 74.99 168.50 66.27 167.86 58.11 165.99 C 58.82 163.85 59.67 161.75 60.68 159.73 C 71.26 162.05 82.20 163.17 93.01 162.12 C 101.33 161.38 109.69 161.00 117.96 159.83 Z" />
</g>
<g id="#89617eff">
<path fill="#89617e" opacity="1.00" d=" M 23.41 156.46 C 26.09 159.21 28.64 162.09 31.32 164.84 C 31.34 167.35 31.55 169.86 31.69 172.37 C 25.82 169.51 22.01 163.01 23.41 156.46 Z" />
</g>
<g id="#af82acff">
<path fill="#af82ac" opacity="1.00" d=" M 35.16 156.95 L 35.39 157.01 C 38.33 157.47 40.89 159.00 43.30 160.66 C 47.33 163.47 52.26 164.36 56.84 165.89 C 56.46 168.42 56.42 171.01 57.09 173.50 C 48.69 171.64 40.64 168.62 32.55 165.75 C 33.31 162.78 34.25 159.87 35.16 156.95 Z" />
</g>
<g id="#885f7eff">
<path fill="#885f7e" opacity="1.00" d=" M 130.95 163.92 C 135.88 162.60 140.38 159.91 145.44 159.07 L 145.92 158.98 C 147.91 164.44 148.45 170.61 146.15 176.06 C 145.08 178.68 141.96 178.98 139.58 179.70 C 128.21 182.11 116.65 184.02 105.01 184.44 C 92.40 185.51 79.68 185.63 67.07 184.20 C 61.93 184.20 59.80 178.54 58.61 174.42 C 66.07 175.19 73.43 176.95 80.98 176.67 C 88.46 176.57 97.25 179.60 103.61 174.24 C 101.43 173.66 99.24 173.12 97.03 172.63 C 101.25 172.28 105.51 171.83 109.53 170.43 C 116.91 167.63 124.96 168.09 132.52 166.05 C 132.00 165.34 131.48 164.63 130.95 163.92 Z" />
</g>
<g id="#9a8965ff">
<path fill="#9a8965" opacity="1.00" d=" M 29.90 173.51 L 30.18 172.18 C 39.19 178.82 49.56 184.49 60.96 185.10 C 67.96 185.37 74.91 186.50 81.93 186.22 C 89.97 185.88 98.04 186.52 106.06 185.64 C 116.21 184.56 126.46 183.97 136.42 181.57 C 146.23 179.74 156.02 177.09 164.47 171.60 C 163.78 172.51 162.40 174.35 161.71 175.26 C 161.54 175.40 161.20 175.67 161.03 175.80 C 156.70 177.89 152.64 180.55 148.11 182.21 C 131.38 187.98 113.57 189.36 96.01 190.11 C 88.11 190.61 80.26 189.05 72.35 189.39 C 70.82 189.16 69.30 188.87 67.78 188.63 C 62.65 187.51 57.37 187.13 52.29 185.77 C 47.62 184.58 43.47 181.98 38.81 180.74 C 35.27 179.31 31.99 176.70 29.90 173.51 Z" />
</g>
<g id="#09080682">
<path fill="#090806" opacity="0.51" d=" M 67.78 188.63 C 69.30 188.87 70.82 189.16 72.35 189.39 C 81.43 190.57 90.51 191.55 99.67 191.49 C 92.78 192.56 85.73 192.09 78.87 191.03 C 73.17 190.44 67.45 189.97 61.82 188.84 C 63.81 188.83 65.79 188.70 67.78 188.63 Z" />
</g>
</svg>
