<?xml version="1.0" encoding="UTF-8" ?>
<!DOCTYPE svg PUBLIC "-//W3C//DTD SVG 1.1//EN" "http://www.w3.org/Graphics/SVG/1.1/DTD/svg11.dtd">
<svg width="215pt" height="215pt" viewBox="0 0 215 215" version="1.1" xmlns="http://www.w3.org/2000/svg">
<g id="#342f2eff">
<path fill="#342f2e" opacity="1.00" d=" M 50.17 42.28 C 51.16 36.17 56.00 31.69 59.26 26.69 C 59.43 27.21 59.78 28.27 59.96 28.79 C 59.88 30.65 59.71 32.50 59.55 34.35 C 58.49 34.37 57.44 34.38 56.39 34.40 C 53.37 39.13 51.35 44.41 48.42 49.18 C 48.27 48.58 47.99 47.38 47.84 46.78 L 48.40 46.18 C 49.61 45.24 50.20 43.80 50.17 42.28 Z" />
<path fill="#342f2e" opacity="1.00" d=" M 51.40 86.15 C 52.23 84.65 54.95 86.03 53.52 87.43 C 52.67 88.57 50.23 87.54 51.40 86.15 Z" />
<path fill="#342f2e" opacity="1.00" d=" M 93.73 111.54 C 97.17 109.53 101.47 108.77 105.14 110.65 C 102.43 110.34 99.71 110.47 97.00 110.64 C 97.49 111.60 98.48 113.51 98.98 114.47 C 99.45 113.83 100.41 112.55 100.88 111.91 C 102.68 114.26 105.32 116.62 104.35 119.92 C 104.17 120.45 103.81 121.51 103.63 122.04 C 103.64 120.86 103.63 119.67 103.59 118.49 C 103.50 118.10 103.32 117.33 103.24 116.94 L 102.50 116.65 C 102.26 116.20 101.76 115.28 101.51 114.82 L 100.76 113.39 C 100.03 113.87 99.29 114.35 98.56 114.83 C 97.33 113.23 95.76 111.99 93.73 111.54 Z" />
<path fill="#342f2e" opacity="1.00" d=" M 128.02 133.81 C 128.62 134.01 129.81 134.42 130.40 134.62 C 131.76 136.94 133.10 139.28 134.61 141.51 C 135.76 140.97 136.92 140.45 138.08 139.93 C 137.14 140.80 136.23 141.71 135.34 142.62 C 137.10 146.61 137.95 150.89 138.37 155.21 C 140.37 154.70 142.35 154.12 144.33 153.51 L 145.14 153.27 C 143.85 155.88 140.26 155.22 137.88 155.82 C 137.64 159.96 137.35 164.12 136.34 168.16 C 136.23 167.87 136.01 167.30 135.90 167.02 C 136.96 160.86 137.39 154.48 135.93 148.35 C 135.26 145.58 134.33 142.84 132.79 140.43 L 131.80 139.74 C 129.42 138.60 128.05 136.46 128.02 133.81 Z" />
</g>
<g id="#070102ff">
<path fill="#070102" opacity="1.00" d=" M 59.96 28.79 C 63.14 41.36 62.05 54.65 59.28 67.19 C 64.34 65.45 69.79 66.19 75.03 66.20 C 79.95 66.19 84.60 67.90 89.09 69.72 C 91.14 67.54 93.47 65.47 96.48 64.81 C 93.95 66.48 91.57 68.36 89.37 70.44 C 83.75 67.93 77.64 66.61 71.48 66.58 C 65.39 66.28 59.18 67.22 53.73 70.06 C 55.26 68.96 56.90 68.02 58.55 67.11 C 60.60 58.69 61.41 49.98 61.11 41.32 C 55.79 43.54 51.44 47.56 47.82 51.96 C 44.88 57.56 45.49 64.42 45.87 70.56 C 45.88 71.37 45.91 72.97 45.93 73.77 C 46.53 73.72 47.73 73.61 48.33 73.56 C 47.67 73.98 46.34 74.83 45.68 75.25 C 43.75 65.81 45.11 55.94 47.84 46.78 C 47.99 47.38 48.27 48.58 48.42 49.18 C 51.35 44.41 53.37 39.13 56.39 34.40 C 57.44 34.38 58.49 34.37 59.55 34.35 C 59.71 32.50 59.88 30.65 59.96 28.79 Z" />
<path fill="#070102" opacity="1.00" d=" M 160.77 64.07 C 160.37 62.35 161.05 61.57 162.83 61.75 C 162.43 62.75 161.75 63.53 160.77 64.07 Z" />
<path fill="#070102" opacity="1.00" d=" M 40.03 80.87 C 41.13 78.88 42.56 76.52 44.99 76.09 C 43.36 77.71 41.66 79.25 40.03 80.87 Z" />
<path fill="#070102" opacity="1.00" d=" M 37.38 105.25 C 33.51 100.53 32.91 92.99 36.19 87.80 C 35.69 89.56 35.22 91.33 34.73 93.09 C 36.13 93.50 37.54 94.10 38.21 95.49 C 40.70 99.62 43.00 104.45 42.19 109.40 L 41.63 110.12 C 42.92 111.23 44.22 112.33 45.57 113.37 C 42.41 112.26 39.88 109.56 38.34 106.65 C 39.20 107.34 40.92 108.71 41.79 109.40 C 41.94 106.01 41.14 102.70 39.75 99.64 C 38.93 97.35 37.42 95.42 35.88 93.57 C 33.64 97.08 35.87 101.07 37.06 104.51 L 37.38 105.25 Z" />
<path fill="#070102" opacity="1.00" d=" M 87.55 172.97 C 90.05 170.55 93.68 169.96 97.02 169.80 C 103.76 170.06 109.85 173.36 116.31 174.96 C 109.59 174.72 103.76 170.29 96.96 170.39 C 93.63 170.34 90.64 171.96 87.55 172.97 Z" />
</g>
<g id="#0b0a0aaf">
<path fill="#0b0a0a" opacity="0.69" d=" M 48.40 46.18 C 47.46 44.97 48.47 41.89 50.17 42.28 C 50.20 43.80 49.61 45.24 48.40 46.18 Z" />
</g>
<g id="#f4d77cff">
<path fill="#f4d77c" opacity="1.00" d=" M 47.82 51.96 C 51.44 47.56 55.79 43.54 61.11 41.32 C 61.41 49.98 60.60 58.69 58.55 67.11 C 56.90 68.02 55.26 68.96 53.73 70.06 C 51.96 71.28 50.19 72.50 48.33 73.56 C 47.73 73.61 46.53 73.72 45.93 73.77 C 45.91 72.97 45.88 71.37 45.87 70.56 C 47.83 64.59 47.49 58.17 47.82 51.96 Z" />
<path fill="#f4d77c" opacity="1.00" d=" M 44.99 76.09 L 45.50 76.02 C 45.23 77.37 44.95 78.77 44.17 79.94 C 43.10 80.86 41.97 81.70 40.86 82.58 L 41.12 82.50 L 40.77 82.87 C 40.60 82.93 40.28 83.06 40.11 83.13 L 39.19 83.70 L 37.97 84.46 C 38.56 83.21 39.13 81.93 40.03 80.87 C 41.66 79.25 43.36 77.71 44.99 76.09 Z" />
<path fill="#f4d77c" opacity="1.00" d=" M 111.26 113.04 C 111.86 111.80 112.47 110.57 113.08 109.33 C 113.67 110.29 114.27 111.25 114.87 112.22 L 114.89 112.27 C 114.80 116.46 116.27 121.70 121.16 122.31 C 122.41 124.51 123.85 126.60 125.41 128.60 C 125.47 128.70 125.60 128.89 125.67 128.98 C 126.62 130.50 127.50 132.08 128.02 133.81 C 128.05 136.46 129.42 138.60 131.80 139.74 C 130.19 145.97 130.85 153.21 126.33 158.36 C 121.71 163.29 114.67 165.29 108.05 164.84 C 102.00 165.19 96.06 163.35 90.02 163.73 C 84.63 164.24 80.10 167.49 75.08 169.19 C 71.40 170.58 67.63 168.33 63.88 169.00 L 63.01 168.88 C 62.60 168.11 62.20 167.34 61.81 166.57 C 64.05 162.82 66.41 158.18 64.21 153.85 C 62.28 150.73 59.86 147.83 59.29 144.07 C 59.08 144.62 58.64 145.73 58.42 146.29 C 57.68 143.12 56.76 139.99 55.93 136.84 C 55.48 135.09 54.61 133.49 53.63 131.98 C 53.77 133.48 53.95 134.97 54.14 136.47 C 52.48 136.41 50.81 136.37 49.15 136.35 C 40.88 136.19 32.86 133.72 24.63 133.44 C 24.72 132.90 24.90 131.80 24.99 131.26 C 26.29 131.45 27.60 131.65 28.90 131.86 C 29.79 131.03 30.67 130.20 31.56 129.37 L 32.19 128.77 C 31.64 128.42 30.53 127.71 29.98 127.36 C 30.47 126.37 31.28 125.59 31.98 124.75 C 31.27 124.84 29.85 125.02 29.14 125.11 C 28.25 124.52 27.36 123.94 26.49 123.33 L 25.59 121.55 C 26.27 121.75 27.61 122.16 28.29 122.36 C 28.50 122.58 28.92 123.03 29.13 123.25 C 33.95 122.63 39.55 122.42 43.17 118.74 C 43.19 118.33 43.21 117.52 43.22 117.11 C 45.10 116.65 46.99 116.29 48.89 115.95 C 49.58 116.72 50.27 117.49 50.96 118.25 C 50.79 117.78 50.43 116.82 50.25 116.35 C 57.35 121.66 65.43 125.76 74.09 127.80 C 79.76 128.90 85.75 129.96 91.38 128.08 C 92.44 129.82 94.06 131.09 95.72 132.22 C 93.56 129.73 91.63 127.04 90.29 124.02 C 90.35 123.46 90.48 122.33 90.54 121.76 C 89.79 121.06 89.31 120.23 89.11 119.28 C 89.69 119.04 90.86 118.57 91.44 118.33 L 91.82 117.31 C 92.05 119.02 92.17 120.76 92.60 122.44 C 93.89 124.33 96.25 125.11 98.10 126.34 C 97.39 126.82 96.70 127.32 96.02 127.83 C 97.70 131.99 101.23 136.08 106.04 136.16 C 109.81 135.82 111.43 131.21 111.05 127.93 C 110.86 124.01 107.05 122.07 104.35 119.92 C 105.32 116.62 102.68 114.26 100.88 111.91 C 100.41 112.55 99.45 113.83 98.98 114.47 C 98.48 113.51 97.49 111.60 97.00 110.64 C 99.71 110.47 102.43 110.34 105.14 110.65 C 107.16 111.49 109.18 112.35 111.26 113.04 Z" />
<path fill="#f4d77c" opacity="1.00" d=" M 80.46 181.30 L 81.21 180.11 C 81.84 181.97 83.33 183.81 82.94 185.87 C 81.58 185.82 80.65 184.62 79.48 184.07 C 79.73 183.38 80.21 181.99 80.46 181.30 Z" />
<path fill="#f4d77c" opacity="1.00" d=" M 129.58 181.42 C 129.95 181.03 130.70 180.24 131.07 179.84 C 132.37 182.03 133.54 184.35 133.50 186.98 C 132.35 186.32 131.21 185.66 130.07 185.00 C 129.87 183.81 129.70 182.62 129.58 181.42 Z" />
</g>
<g id="#0e0608ff">
<path fill="#0e0608" opacity="1.00" d=" M 180.98 46.26 C 181.78 44.81 183.33 44.21 184.79 43.63 C 188.87 54.70 191.15 66.35 192.63 78.03 C 192.80 79.51 192.87 81.04 192.31 82.46 C 191.63 74.40 190.18 66.43 188.57 58.51 C 188.48 58.15 188.30 57.42 188.21 57.05 C 187.15 52.76 185.81 48.54 184.09 44.47 C 183.04 45.06 182.01 45.65 180.98 46.26 Z" />
<path fill="#0e0608" opacity="1.00" d=" M 97.76 64.11 C 113.31 53.96 132.42 49.72 150.85 50.04 C 150.80 50.69 150.70 51.98 150.66 52.63 L 150.41 52.35 C 148.79 49.41 144.79 50.37 142.68 52.17 C 141.78 54.68 142.23 57.42 143.69 59.62 C 136.50 65.60 128.04 69.74 119.57 73.58 C 114.95 75.22 110.42 77.26 105.56 78.03 C 107.54 77.28 109.49 76.46 111.46 75.70 C 113.90 74.85 116.55 74.33 118.72 72.85 C 120.62 71.15 121.61 68.74 122.71 66.50 C 124.36 62.91 126.40 59.45 127.38 55.59 C 127.48 54.88 127.70 53.46 127.81 52.75 C 123.66 53.75 119.55 54.91 115.49 56.23 C 109.25 58.08 103.69 61.52 97.76 64.11 Z" />
<path fill="#0e0608" opacity="1.00" d=" M 79.67 88.51 C 81.61 85.69 85.82 84.56 88.78 86.38 C 92.76 89.82 92.99 96.00 90.52 100.38 C 88.83 102.74 86.02 105.22 82.91 103.91 C 79.94 103.34 78.72 100.27 77.60 97.84 C 77.37 94.62 77.53 91.12 79.67 88.51 M 80.88 87.86 C 78.11 90.24 77.96 93.98 78.65 97.31 L 78.11 98.12 C 79.44 100.44 81.19 102.82 83.93 103.52 C 87.78 104.22 90.64 100.33 91.29 96.94 C 92.47 93.73 91.11 90.36 89.19 87.76 C 86.75 86.09 82.99 85.17 80.88 87.86 Z" />
<path fill="#0e0608" opacity="1.00" d=" M 129.06 174.36 C 130.74 173.47 132.29 172.34 133.72 171.09 C 134.00 175.49 135.90 179.67 135.41 184.15 C 134.18 185.01 133.76 186.41 133.28 187.76 C 131.05 187.82 129.50 185.66 127.86 184.40 C 128.41 184.55 129.51 184.85 130.07 185.00 C 131.21 185.66 132.35 186.32 133.50 186.98 C 133.54 184.35 132.37 182.03 131.07 179.84 C 131.23 179.83 131.53 179.80 131.69 179.78 C 132.19 179.79 133.20 179.80 133.70 179.80 C 131.70 180.56 133.10 183.74 134.70 183.65 C 135.06 182.38 134.58 181.07 134.44 179.81 C 134.13 177.38 133.76 174.95 133.27 172.55 C 131.90 173.22 130.60 174.16 129.06 174.36 Z" />
</g>
<g id="#faedc4ff">
<path fill="#faedc4" opacity="1.00" d=" M 180.98 46.26 C 182.01 45.65 183.04 45.06 184.09 44.47 C 185.81 48.54 187.15 52.76 188.21 57.05 C 186.21 56.56 184.16 55.78 182.08 56.12 C 179.91 57.38 178.18 59.56 175.54 59.80 C 175.03 57.56 174.44 55.25 172.58 53.71 C 173.59 52.97 174.40 52.01 175.19 51.04 C 175.49 50.83 176.08 50.41 176.38 50.19 C 176.78 49.84 177.59 49.14 177.99 48.79 L 178.33 48.40 C 178.75 48.06 179.58 47.38 179.99 47.05 C 180.24 46.85 180.73 46.46 180.98 46.26 Z" />
<path fill="#faedc4" opacity="1.00" d=" M 41.12 82.50 C 42.28 81.98 45.53 81.41 44.80 83.65 C 43.90 85.82 40.97 85.06 40.77 82.87 L 41.12 82.50 Z" />
</g>
<g id="#2f2c26a5">
<path fill="#2f2c26" opacity="0.65" d=" M 178.26 47.49 L 179.11 46.79 L 179.99 47.05 C 179.58 47.38 178.75 48.06 178.33 48.40 L 178.26 47.49 Z" />
</g>
<g id="#545244cc">
<path fill="#545244" opacity="0.80" d=" M 176.28 49.28 L 177.10 48.55 L 177.99 48.79 C 177.59 49.14 176.78 49.84 176.38 50.19 L 176.28 49.28 Z" />
</g>
<g id="#363130ff">
<path fill="#363130" opacity="1.00" d=" M 142.68 52.17 C 144.79 50.37 148.79 49.41 150.41 52.35 C 148.45 55.02 146.14 57.39 143.69 59.62 C 142.23 57.42 141.78 54.68 142.68 52.17 Z" />
</g>
<g id="#3e3b2ebe">
<path fill="#3e3b2e" opacity="0.75" d=" M 171.29 54.22 C 170.68 52.44 173.54 50.30 175.19 51.04 C 174.40 52.01 173.59 52.97 172.58 53.71 C 172.26 53.84 171.61 54.09 171.29 54.22 Z" />
</g>
<g id="#f8eba9ff">
<path fill="#f8eba9" opacity="1.00" d=" M 45.87 70.56 C 45.49 64.42 44.88 57.56 47.82 51.96 C 47.49 58.17 47.83 64.59 45.87 70.56 Z" />
</g>
<g id="#faefb3ff">
<path fill="#faefb3" opacity="1.00" d=" M 115.49 56.23 C 119.55 54.91 123.66 53.75 127.81 52.75 C 127.70 53.46 127.48 54.88 127.38 55.59 C 123.43 55.76 119.34 57.89 115.49 56.23 Z" />
</g>
<g id="#f5e2a9ff">
<path fill="#f5e2a9" opacity="1.00" d=" M 171.29 54.22 C 171.61 54.09 172.26 53.84 172.58 53.71 C 174.44 55.25 175.03 57.56 175.54 59.80 C 178.18 59.56 179.91 57.38 182.08 56.12 C 184.16 55.78 186.21 56.56 188.21 57.05 C 188.30 57.42 188.48 58.15 188.57 58.51 C 186.94 58.76 184.91 58.31 183.66 59.67 C 181.49 62.02 179.60 64.62 177.33 66.88 C 176.70 65.95 176.08 65.03 175.47 64.11 C 173.97 66.05 172.50 68.01 171.10 70.02 C 171.42 67.03 172.29 63.44 169.48 61.31 C 169.45 60.37 169.43 59.43 169.38 58.49 C 168.89 58.34 167.91 58.06 167.42 57.92 C 168.57 57.23 169.36 56.13 170.18 55.11 C 170.46 54.89 171.01 54.44 171.29 54.22 Z" />
<path fill="#f5e2a9" opacity="1.00" d=" M 28.29 122.36 C 33.23 120.51 38.07 118.33 43.22 117.11 C 43.21 117.52 43.19 118.33 43.17 118.74 C 39.55 122.42 33.95 122.63 29.13 123.25 C 28.92 123.03 28.50 122.58 28.29 122.36 Z" />
</g>
<g id="#2d281cb3">
<path fill="#2d281c" opacity="0.70" d=" M 166.83 57.76 C 166.28 56.19 168.78 54.37 170.18 55.11 C 169.36 56.13 168.57 57.23 167.42 57.92 L 166.83 57.76 Z" />
</g>
<g id="#f3d77bff">
<path fill="#f3d77b" opacity="1.00" d=" M 97.76 64.11 C 103.69 61.52 109.25 58.08 115.49 56.23 C 119.34 57.89 123.43 55.76 127.38 55.59 C 126.40 59.45 124.36 62.91 122.71 66.50 C 121.61 68.74 120.62 71.15 118.72 72.85 C 116.55 74.33 113.90 74.85 111.46 75.70 C 111.78 74.76 112.23 73.87 112.78 73.04 C 105.55 73.58 97.54 75.35 90.99 71.24 C 91.62 74.45 92.59 77.75 92.08 81.05 C 91.25 82.98 89.95 84.65 88.78 86.38 C 85.82 84.56 81.61 85.69 79.67 88.51 C 77.53 91.12 77.37 94.62 77.60 97.84 C 73.55 99.08 69.29 100.75 67.18 104.71 C 66.77 102.68 66.32 100.66 65.92 98.63 C 65.45 96.00 64.88 93.39 64.35 90.78 C 64.99 89.80 65.63 88.83 66.26 87.85 C 64.05 89.46 61.93 91.74 58.99 91.74 C 54.22 92.10 49.47 92.71 44.69 92.95 C 46.51 93.47 48.40 93.59 50.27 93.63 C 52.34 97.11 53.61 100.99 55.81 104.39 C 52.23 105.57 48.42 105.04 44.73 105.22 C 44.03 106.70 43.28 108.17 42.19 109.40 C 43.00 104.45 40.70 99.62 38.21 95.49 C 37.54 94.10 36.13 93.50 34.73 93.09 C 35.22 91.33 35.69 89.56 36.19 87.80 C 36.67 86.65 37.02 85.29 37.97 84.46 L 39.19 83.70 C 38.70 86.16 36.40 90.31 39.90 91.50 C 43.95 91.19 44.64 86.08 45.95 82.99 C 53.88 82.55 60.59 78.10 67.41 74.52 C 70.23 72.92 71.77 69.80 71.48 66.58 C 77.64 66.61 83.75 67.93 89.37 70.44 C 91.57 68.36 93.95 66.48 96.48 64.81 C 96.80 64.64 97.44 64.29 97.76 64.11 M 70.12 83.78 C 71.42 85.41 73.52 85.40 75.42 85.44 C 78.69 83.95 81.31 80.67 79.68 76.97 C 78.46 75.68 77.03 74.21 75.09 74.32 C 70.50 73.80 66.38 80.38 70.12 83.78 M 51.40 86.15 C 50.23 87.54 52.67 88.57 53.52 87.43 C 54.95 86.03 52.23 84.65 51.40 86.15 Z" />
</g>
<g id="#f1d37aff">
<path fill="#f1d37a" opacity="1.00" d=" M 166.83 57.76 L 167.42 57.92 C 167.91 58.06 168.89 58.34 169.38 58.49 C 169.43 59.43 169.45 60.37 169.48 61.31 C 172.29 63.44 171.42 67.03 171.10 70.02 C 172.50 68.01 173.97 66.05 175.47 64.11 C 176.08 65.03 176.70 65.95 177.33 66.88 C 179.60 64.62 181.49 62.02 183.66 59.67 C 184.91 58.31 186.94 58.76 188.57 58.51 C 190.18 66.43 191.63 74.40 192.31 82.46 C 191.92 82.55 191.16 82.72 190.77 82.81 C 189.52 83.00 188.35 83.74 187.74 84.86 L 187.27 85.55 C 186.94 85.64 186.28 85.81 185.95 85.90 C 183.93 86.21 182.37 87.57 181.01 88.99 C 179.80 90.07 178.38 90.89 176.95 91.66 L 176.06 90.78 C 177.39 89.38 178.80 88.06 180.21 86.74 C 179.05 85.25 177.87 83.67 176.11 82.84 C 173.58 80.97 170.30 82.90 167.65 81.29 C 161.29 78.16 154.17 77.28 147.15 77.44 C 147.45 77.08 148.05 76.36 148.36 76.00 C 148.57 75.81 149.00 75.42 149.21 75.23 C 150.16 74.76 150.85 74.05 151.29 73.09 C 151.48 72.88 151.87 72.46 152.07 72.25 C 153.02 71.77 153.73 71.05 154.21 70.09 C 154.43 69.87 154.88 69.44 155.11 69.22 C 156.05 68.78 156.77 68.10 157.25 67.17 C 157.76 66.75 158.79 65.91 159.30 65.49 C 159.36 65.44 159.47 65.35 159.52 65.30 C 159.83 64.99 160.46 64.38 160.77 64.07 C 161.75 63.53 162.43 62.75 162.83 61.75 L 163.04 61.21 L 164.02 61.12 C 165.16 61.05 165.88 60.44 166.18 59.28 C 166.34 58.90 166.67 58.14 166.83 57.76 Z" />
</g>
<g id="#a29153fd">
<path fill="#a29153" opacity="1.00" d=" M 165.40 59.08 L 166.18 59.28 C 165.88 60.44 165.16 61.05 164.02 61.12 L 163.83 60.40 C 164.22 60.07 165.01 59.41 165.40 59.08 Z" />
</g>
<g id="#a99858ff">
<path fill="#a99858" opacity="1.00" d=" M 159.30 65.49 C 159.36 65.44 159.47 65.35 159.52 65.30 C 159.47 65.35 159.36 65.44 159.30 65.49 Z" />
</g>
<g id="#f7e7b1ff">
<path fill="#f7e7b1" opacity="1.00" d=" M 53.73 70.06 C 59.18 67.22 65.39 66.28 71.48 66.58 C 71.77 69.80 70.23 72.92 67.41 74.52 C 60.59 78.10 53.88 82.55 45.95 82.99 C 45.29 82.58 43.99 81.77 43.34 81.36 L 44.17 79.94 C 44.95 78.77 45.23 77.37 45.50 76.02 L 45.68 75.25 C 46.34 74.83 47.67 73.98 48.33 73.56 C 50.19 72.50 51.96 71.28 53.73 70.06 Z" />
</g>
<g id="#0e0b0683">
<path fill="#0e0b06" opacity="0.51" d=" M 155.11 69.22 C 154.75 67.45 155.46 66.77 157.25 67.17 C 156.77 68.10 156.05 68.78 155.11 69.22 Z" />
</g>
<g id="#15120a9c">
<path fill="#15120a" opacity="0.61" d=" M 152.07 72.25 C 151.71 70.49 152.42 69.78 154.21 70.09 C 153.73 71.05 153.02 71.77 152.07 72.25 Z" />
</g>
<g id="#e2c371ff">
<path fill="#e2c371" opacity="1.00" d=" M 90.99 71.24 C 97.54 75.35 105.55 73.58 112.78 73.04 C 112.23 73.87 111.78 74.76 111.46 75.70 C 109.49 76.46 107.54 77.28 105.56 78.03 C 103.71 78.64 101.79 79.03 99.90 79.49 C 100.54 80.56 101.23 81.61 101.79 82.73 C 105.81 91.49 108.82 100.69 113.08 109.33 C 112.47 110.57 111.86 111.80 111.26 113.04 C 109.18 112.35 107.16 111.49 105.14 110.65 C 101.47 108.77 97.17 109.53 93.73 111.54 C 95.76 111.99 97.33 113.23 98.56 114.83 C 99.29 114.35 100.03 113.87 100.76 113.39 L 101.51 114.82 C 101.40 118.00 98.21 116.29 96.41 115.81 C 94.94 116.67 93.31 116.80 91.69 116.30 C 91.59 115.85 91.39 114.95 91.30 114.51 C 92.36 113.87 93.31 113.08 94.13 112.15 C 93.53 112.28 92.33 112.55 91.73 112.68 C 90.85 115.24 89.44 117.55 88.01 119.83 C 89.39 122.47 90.38 125.29 91.38 128.08 C 85.75 129.96 79.76 128.90 74.09 127.80 C 65.43 125.76 57.35 121.66 50.25 116.35 C 49.03 115.46 47.75 114.65 46.44 113.89 C 46.22 113.76 45.79 113.50 45.57 113.37 C 44.22 112.33 42.92 111.23 41.63 110.12 L 42.19 109.40 C 43.28 108.17 44.03 106.70 44.73 105.22 C 48.42 105.04 52.23 105.57 55.81 104.39 C 57.57 107.26 60.26 109.52 63.69 109.95 C 66.32 106.77 66.43 102.53 65.92 98.63 C 66.32 100.66 66.77 102.68 67.18 104.71 C 69.29 100.75 73.55 99.08 77.60 97.84 C 78.72 100.27 79.94 103.34 82.91 103.91 C 86.02 105.22 88.83 102.74 90.52 100.38 C 92.99 96.00 92.76 89.82 88.78 86.38 C 89.95 84.65 91.25 82.98 92.08 81.05 C 92.59 77.75 91.62 74.45 90.99 71.24 M 94.18 114.18 C 94.72 114.68 94.72 114.68 94.18 114.18 Z" />
</g>
<g id="#07060380">
<path fill="#070603" opacity="0.50" d=" M 149.21 75.23 C 148.83 73.46 149.52 72.75 151.29 73.09 C 150.85 74.05 150.16 74.76 149.21 75.23 Z" />
</g>
<g id="#000000ff">
<path fill="#000000" opacity="1.00" d=" M 70.12 83.78 C 66.38 80.38 70.50 73.80 75.09 74.32 C 77.03 74.21 78.46 75.68 79.68 76.97 C 78.42 78.55 77.31 80.33 75.68 81.57 C 73.91 81.87 72.12 81.91 70.34 82.06 C 71.91 83.36 73.63 84.47 75.42 85.44 C 73.52 85.40 71.42 85.41 70.12 83.78 M 72.46 75.33 C 70.47 76.64 71.03 78.84 72.93 79.93 C 74.08 79.01 75.11 77.96 76.02 76.80 C 75.11 75.95 73.79 73.52 72.46 75.33 Z" />
<path fill="#000000" opacity="1.00" d=" M 140.64 84.36 C 142.42 80.98 145.48 78.44 148.36 76.00 C 148.05 76.36 147.45 77.08 147.15 77.44 C 145.14 79.89 142.85 82.08 140.64 84.36 Z" />
<path fill="#000000" opacity="1.00" d=" M 101.79 82.73 C 103.75 84.51 104.35 87.19 105.41 89.51 C 108.41 97.15 111.61 104.71 114.87 112.22 C 114.27 111.25 113.67 110.29 113.08 109.33 C 108.82 100.69 105.81 91.49 101.79 82.73 Z" />
<path fill="#000000" opacity="1.00" d=" M 46.44 113.89 C 47.75 114.65 49.03 115.46 50.25 116.35 C 50.43 116.82 50.79 117.78 50.96 118.25 C 50.27 117.49 49.58 116.72 48.89 115.95 C 46.99 116.29 45.10 116.65 43.22 117.11 C 38.07 118.33 33.23 120.51 28.29 122.36 C 27.61 122.16 26.27 121.75 25.59 121.55 L 26.49 123.33 C 26.21 123.51 25.65 123.88 25.37 124.06 C 25.34 123.27 25.28 121.68 25.25 120.88 C 26.48 121.13 27.72 121.37 28.95 121.61 C 34.58 118.75 40.69 116.79 46.93 115.83 C 46.80 115.34 46.56 114.38 46.44 113.89 Z" />
<path fill="#000000" opacity="1.00" d=" M 24.31 131.16 L 24.99 131.26 C 24.90 131.80 24.72 132.90 24.63 133.44 C 32.86 133.72 40.88 136.19 49.15 136.35 C 49.60 136.51 50.49 136.83 50.94 136.99 C 52.61 137.06 54.27 136.94 55.93 136.84 C 56.76 139.99 57.68 143.12 58.42 146.29 C 59.74 153.02 59.27 160.10 61.81 166.57 C 62.20 167.34 62.60 168.11 63.01 168.88 C 60.36 167.28 60.07 163.81 59.56 161.04 C 58.76 153.11 58.02 145.09 55.29 137.53 C 50.47 138.06 45.89 136.56 41.11 136.31 C 35.51 135.80 30.06 133.75 24.38 134.22 C 24.36 133.20 24.33 132.18 24.31 131.16 Z" />
<path fill="#000000" opacity="1.00" d=" M 66.91 172.64 C 70.03 174.39 73.39 175.96 77.01 176.17 C 80.22 176.03 83.25 174.79 86.24 173.70 C 85.82 174.22 85.00 175.26 84.59 175.78 C 84.83 179.56 85.81 183.97 82.72 186.90 C 80.95 185.99 79.15 185.04 77.85 183.48 C 78.26 183.63 79.07 183.92 79.48 184.07 C 80.65 184.62 81.58 185.82 82.94 185.87 C 83.33 183.81 81.84 181.97 81.21 180.11 C 81.42 179.81 81.82 179.20 82.02 178.90 C 82.27 179.41 82.76 180.44 83.01 180.95 C 82.31 182.23 82.62 183.09 83.93 183.52 C 83.91 182.92 83.89 181.71 83.88 181.11 C 83.97 179.30 84.08 177.50 84.20 175.69 C 81.52 176.32 78.80 176.64 76.06 176.85 C 76.39 178.46 76.70 180.07 77.01 181.69 L 77.13 182.36 C 76.29 180.56 75.69 178.65 75.19 176.73 C 72.30 175.79 68.77 175.34 66.91 172.64 Z" />
</g>
<g id="#e5e5e7ff">
<path fill="#e5e5e7" opacity="1.00" d=" M 72.46 75.33 C 73.79 73.52 75.11 75.95 76.02 76.80 C 75.11 77.96 74.08 79.01 72.93 79.93 C 71.03 78.84 70.47 76.64 72.46 75.33 Z" />
</g>
<g id="#392e25ff">
<path fill="#392e25" opacity="1.00" d=" M 79.68 76.97 C 81.31 80.67 78.69 83.95 75.42 85.44 C 73.63 84.47 71.91 83.36 70.34 82.06 C 72.12 81.91 73.91 81.87 75.68 81.57 C 77.31 80.33 78.42 78.55 79.68 76.97 Z" />
</g>
<g id="#e3c471ff">
<path fill="#e3c471" opacity="1.00" d=" M 147.15 77.44 C 154.17 77.28 161.29 78.16 167.65 81.29 C 170.30 82.90 173.58 80.97 176.11 82.84 C 177.87 83.67 179.05 85.25 180.21 86.74 C 178.80 88.06 177.39 89.38 176.06 90.78 L 176.95 91.66 C 175.82 92.50 174.67 93.33 173.49 94.12 L 173.09 94.38 C 172.44 94.80 171.78 95.21 171.11 95.61 C 165.12 99.44 158.77 102.81 153.31 107.40 L 152.82 107.82 C 152.34 106.59 151.86 105.37 151.39 104.15 C 150.36 105.41 149.34 106.68 148.33 107.96 C 148.50 105.55 148.63 103.15 148.70 100.74 C 147.27 102.69 146.01 104.76 144.60 106.72 C 143.48 105.85 143.00 104.46 142.29 103.29 C 141.55 104.31 140.80 105.31 140.05 106.32 C 139.07 104.24 137.91 102.25 136.73 100.27 C 136.58 100.00 136.29 99.45 136.14 99.17 C 135.35 97.47 134.47 95.79 133.99 93.96 C 134.56 91.74 136.15 89.94 137.31 88.00 C 137.52 87.81 137.95 87.43 138.17 87.23 C 139.10 86.72 139.78 85.98 140.21 85.01 C 140.32 84.84 140.53 84.52 140.64 84.36 C 142.85 82.08 145.14 79.89 147.15 77.44 Z" />
</g>
<g id="#130a0eff">
<path fill="#130a0e" opacity="1.00" d=" M 40.86 82.58 C 41.97 81.70 43.10 80.86 44.17 79.94 L 43.34 81.36 C 43.99 81.77 45.29 82.58 45.95 82.99 C 44.64 86.08 43.95 91.19 39.90 91.50 C 36.40 90.31 38.70 86.16 39.19 83.70 L 40.11 83.13 C 40.28 83.06 40.60 82.93 40.77 82.87 C 40.97 85.06 43.90 85.82 44.80 83.65 C 45.53 81.41 42.28 81.98 41.12 82.50 L 40.86 82.58 Z" />
<path fill="#130a0e" opacity="1.00" d=" M 58.99 91.74 C 61.93 91.74 64.05 89.46 66.26 87.85 C 65.63 88.83 64.99 89.80 64.35 90.78 C 64.88 93.39 65.45 96.00 65.92 98.63 C 66.43 102.53 66.32 106.77 63.69 109.95 C 60.26 109.52 57.57 107.26 55.81 104.39 C 53.61 100.99 52.34 97.11 50.27 93.63 C 48.40 93.59 46.51 93.47 44.69 92.95 C 49.47 92.71 54.22 92.10 58.99 91.74 M 51.58 92.93 C 52.26 97.33 55.03 100.99 57.04 104.87 C 58.68 103.21 59.72 100.57 62.34 100.35 C 60.45 101.27 59.38 103.12 58.23 104.79 C 58.35 107.62 61.61 109.32 64.09 108.13 C 65.31 106.84 65.34 104.96 65.74 103.35 C 65.63 102.07 65.52 100.81 65.43 99.54 L 64.29 99.83 C 64.92 96.90 64.92 93.73 63.30 91.10 C 59.70 93.10 55.47 92.16 51.58 92.93 Z" />
<path fill="#130a0e" opacity="1.00" d=" M 91.73 112.68 C 92.33 112.55 93.53 112.28 94.13 112.15 C 93.31 113.08 92.36 113.87 91.30 114.51 C 91.39 114.95 91.59 115.85 91.69 116.30 C 91.72 116.55 91.79 117.06 91.82 117.31 L 91.44 118.33 C 90.86 118.57 89.69 119.04 89.11 119.28 C 89.31 120.23 89.79 121.06 90.54 121.76 C 90.48 122.33 90.35 123.46 90.29 124.02 C 91.63 127.04 93.56 129.73 95.72 132.22 C 94.06 131.09 92.44 129.82 91.38 128.08 C 90.38 125.29 89.39 122.47 88.01 119.83 C 89.44 117.55 90.85 115.24 91.73 112.68 Z" />
<path fill="#130a0e" opacity="1.00" d=" M 97.78 125.28 C 95.35 123.34 97.05 120.80 98.88 119.22 C 98.56 119.69 97.91 120.63 97.59 121.10 C 97.67 122.49 97.73 123.88 97.78 125.28 Z" />
</g>
<g id="#3d361eb3">
<path fill="#3d361e" opacity="0.70" d=" M 187.74 84.86 C 188.35 83.74 189.52 83.00 190.77 82.81 C 191.49 84.31 188.92 85.69 187.74 84.86 Z" />
</g>
<g id="#100d088d">
<path fill="#100d08" opacity="0.55" d=" M 138.17 87.23 C 137.75 85.47 138.43 84.73 140.21 85.01 C 139.78 85.98 139.10 86.72 138.17 87.23 Z" />
</g>
<g id="#3a321da7">
<path fill="#3a321d" opacity="0.65" d=" M 181.01 88.99 C 182.37 87.57 183.93 86.21 185.95 85.90 L 186.13 86.34 C 185.26 87.99 182.90 89.65 181.01 88.99 Z" />
</g>
<g id="#e6826aff">
<path fill="#e6826a" opacity="1.00" d=" M 80.88 87.86 C 82.99 85.17 86.75 86.09 89.19 87.76 C 87.15 90.30 85.97 93.37 84.31 96.15 C 83.11 95.48 81.92 94.80 80.73 94.12 C 80.04 95.19 79.35 96.25 78.65 97.31 C 77.96 93.98 78.11 90.24 80.88 87.86 Z" />
<path fill="#e6826a" opacity="1.00" d=" M 37.06 104.51 C 35.87 101.07 33.64 97.08 35.88 93.57 C 37.42 95.42 38.93 97.35 39.75 99.64 C 38.89 101.28 37.98 102.90 37.06 104.51 Z" />
</g>
<g id="#342c1abe">
<path fill="#342c1a" opacity="0.75" d=" M 132.61 93.95 C 133.88 91.77 134.95 89.23 137.31 88.00 C 136.15 89.94 134.56 91.74 133.99 93.96 C 134.47 95.79 135.35 97.47 136.14 99.17 C 134.14 98.13 133.67 95.75 132.61 93.95 Z" />
</g>
<g id="#cf6350ff">
<path fill="#cf6350" opacity="1.00" d=" M 84.31 96.15 C 85.97 93.37 87.15 90.30 89.19 87.76 C 91.11 90.36 92.47 93.73 91.29 96.94 C 90.64 100.33 87.78 104.22 83.93 103.52 C 81.19 102.82 79.44 100.44 78.11 98.12 L 78.65 97.31 C 79.35 96.25 80.04 95.19 80.73 94.12 C 81.92 94.80 83.11 95.48 84.31 96.15 Z" />
</g>
<g id="#835860ff">
<path fill="#835860" opacity="1.00" d=" M 51.58 92.93 C 55.47 92.16 59.70 93.10 63.30 91.10 C 64.92 93.73 64.92 96.90 64.29 99.83 C 63.80 99.96 62.83 100.22 62.34 100.35 C 59.72 100.57 58.68 103.21 57.04 104.87 C 55.03 100.99 52.26 97.33 51.58 92.93 Z" />
</g>
<g id="#0503028f">
<path fill="#050302" opacity="0.56" d=" M 173.09 94.38 L 173.49 94.12 C 173.39 94.19 173.19 94.32 173.09 94.38 Z" />
</g>
<g id="#312a18a9">
<path fill="#312a18" opacity="0.66" d=" M 153.31 107.40 C 158.77 102.81 165.12 99.44 171.11 95.61 C 169.92 98.24 166.77 99.02 164.59 100.64 C 160.69 102.67 157.44 105.82 153.31 107.40 Z" />
</g>
<g id="#d56553ff">
<path fill="#d56553" opacity="1.00" d=" M 39.75 99.64 C 41.14 102.70 41.94 106.01 41.79 109.40 C 40.92 108.71 39.20 107.34 38.34 106.65 C 37.97 106.22 37.65 105.75 37.38 105.25 L 37.06 104.51 C 37.98 102.90 38.89 101.28 39.75 99.64 Z" />
</g>
<g id="#a96a7eff">
<path fill="#a96a7e" opacity="1.00" d=" M 62.34 100.35 C 62.83 100.22 63.80 99.96 64.29 99.83 L 65.43 99.54 C 65.52 100.81 65.63 102.07 65.74 103.35 C 63.23 103.79 60.73 104.28 58.23 104.79 C 59.38 103.12 60.45 101.27 62.34 100.35 Z" />
</g>
<g id="#2b2415ae">
<path fill="#2b2415" opacity="0.68" d=" M 136.73 100.27 C 137.91 102.25 139.07 104.24 140.05 106.32 C 140.47 107.30 140.87 108.29 141.26 109.28 C 138.67 107.11 137.49 103.48 136.73 100.27 Z" />
</g>
<g id="#c7a964ff">
<path fill="#c7a964" opacity="1.00" d=" M 144.60 106.72 C 146.01 104.76 147.27 102.69 148.70 100.74 C 148.63 103.15 148.50 105.55 148.33 107.96 C 149.34 106.68 150.36 105.41 151.39 104.15 C 151.86 105.37 152.34 106.59 152.82 107.82 C 151.98 108.49 151.15 109.17 150.41 109.95 C 150.76 111.47 151.59 112.81 152.48 114.08 L 152.33 114.82 C 152.23 115.33 152.02 116.36 151.92 116.87 C 150.46 115.79 149.29 113.44 147.17 114.21 C 144.84 115.52 142.94 117.77 140.06 117.84 C 141.43 116.80 142.77 115.71 144.11 114.63 C 143.28 113.13 142.45 111.63 141.65 110.13 C 141.55 109.91 141.36 109.49 141.26 109.28 C 140.87 108.29 140.47 107.30 140.05 106.32 C 140.80 105.31 141.55 104.31 142.29 103.29 C 143.00 104.46 143.48 105.85 144.60 106.72 Z" />
</g>
<g id="#cb93a5ff">
<path fill="#cb93a5" opacity="1.00" d=" M 58.23 104.79 C 60.73 104.28 63.23 103.79 65.74 103.35 C 65.34 104.96 65.31 106.84 64.09 108.13 C 61.61 109.32 58.35 107.62 58.23 104.79 Z" />
</g>
<g id="#312919bf">
<path fill="#312919" opacity="0.75" d=" M 141.65 110.13 C 142.45 111.63 143.28 113.13 144.11 114.63 C 142.77 115.71 141.43 116.80 140.06 117.84 C 139.76 117.96 139.17 118.19 138.88 118.31 C 139.81 116.60 141.45 115.52 142.94 114.35 C 142.62 113.29 141.97 111.18 141.65 110.13 Z" />
</g>
<g id="#66543cf8">
<path fill="#66543c" opacity="0.97" d=" M 114.89 112.27 C 115.19 112.65 115.79 113.41 116.10 113.79 C 116.30 114.81 116.81 115.64 117.63 116.28 C 118.25 117.02 118.79 117.81 119.25 118.66 C 119.89 119.87 120.51 121.10 121.16 122.31 C 116.27 121.70 114.80 116.46 114.89 112.27 Z" />
</g>
<g id="#645631ff">
<path fill="#645631" opacity="1.00" d=" M 94.18 114.18 C 94.72 114.68 94.72 114.68 94.18 114.18 Z" />
</g>
<g id="#0302025d">
<path fill="#030202" opacity="0.36" d=" M 116.10 113.79 C 117.84 113.73 118.35 114.55 117.63 116.28 C 116.81 115.64 116.30 114.81 116.10 113.79 Z" />
</g>
<g id="#b49960ff">
<path fill="#b49960" opacity="1.00" d=" M 140.06 117.84 C 142.94 117.77 144.84 115.52 147.17 114.21 C 149.29 113.44 150.46 115.79 151.92 116.87 C 152.02 116.36 152.23 115.33 152.33 114.82 C 153.44 116.42 154.28 118.18 154.74 120.08 C 153.51 120.95 152.32 121.86 151.06 122.68 C 147.69 124.67 144.50 126.94 141.24 129.10 C 142.26 130.12 143.27 131.16 144.22 132.26 C 144.46 132.57 144.95 133.17 145.20 133.48 C 144.91 133.87 144.34 134.67 144.06 135.06 C 142.80 134.30 141.54 133.54 140.28 132.78 C 140.62 133.94 140.95 135.09 141.28 136.25 L 140.25 136.01 C 137.28 133.39 134.76 130.31 131.63 127.86 C 130.99 127.31 130.51 126.65 130.20 125.86 L 129.78 125.05 C 130.18 124.86 130.98 124.49 131.37 124.31 C 132.56 123.93 133.46 123.05 134.15 122.05 C 134.44 121.85 135.01 121.47 135.29 121.27 C 136.50 120.91 137.51 120.11 138.15 119.02 C 138.33 118.84 138.69 118.49 138.88 118.31 C 139.17 118.19 139.76 117.96 140.06 117.84 Z" />
<path fill="#b49960" opacity="1.00" d=" M 76.06 176.85 C 78.80 176.64 81.52 176.32 84.20 175.69 C 84.08 177.50 83.97 179.30 83.88 181.11 L 83.01 180.95 C 82.76 180.44 82.27 179.41 82.02 178.90 C 81.82 179.20 81.42 179.81 81.21 180.11 L 80.46 181.30 C 79.78 180.46 79.11 179.62 78.44 178.78 C 78.08 179.51 77.37 180.96 77.01 181.69 C 76.70 180.07 76.39 178.46 76.06 176.85 Z" />
</g>
<g id="#cdaf67ff">
<path fill="#cdaf67" opacity="1.00" d=" M 96.41 115.81 C 98.21 116.29 101.40 118.00 101.51 114.82 C 101.76 115.28 102.26 116.20 102.50 116.65 C 102.39 117.17 102.15 118.21 102.04 118.73 C 102.42 118.67 103.20 118.55 103.59 118.49 C 103.63 119.67 103.64 120.86 103.63 122.04 C 102.82 124.46 99.95 124.96 98.10 126.34 C 96.25 125.11 93.89 124.33 92.60 122.44 C 92.17 120.76 92.05 119.02 91.82 117.31 C 91.79 117.06 91.72 116.55 91.69 116.30 C 93.31 116.80 94.94 116.67 96.41 115.81 M 97.78 125.28 C 97.73 123.88 97.67 122.49 97.59 121.10 C 97.91 120.63 98.56 119.69 98.88 119.22 C 97.05 120.80 95.35 123.34 97.78 125.28 Z" />
</g>
<g id="#efd27fff">
<path fill="#efd27f" opacity="1.00" d=" M 102.50 116.65 L 103.24 116.94 C 103.32 117.33 103.50 118.10 103.59 118.49 C 103.20 118.55 102.42 118.67 102.04 118.73 C 102.15 118.21 102.39 117.17 102.50 116.65 Z" />
</g>
<g id="#1e1a0f8f">
<path fill="#1e1a0f" opacity="0.56" d=" M 119.25 118.66 C 121.91 121.50 124.40 124.80 125.41 128.60 C 123.85 126.60 122.41 124.51 121.16 122.31 C 120.51 121.10 119.89 119.87 119.25 118.66 Z" />
</g>
<g id="#251f13b7">
<path fill="#251f13" opacity="0.72" d=" M 135.29 121.27 C 134.48 119.82 136.90 118.05 138.15 119.02 C 137.51 120.11 136.50 120.91 135.29 121.27 Z" />
</g>
<g id="#e3c371ff">
<path fill="#e3c371" opacity="1.00" d=" M 103.63 122.04 C 103.81 121.51 104.17 120.45 104.35 119.92 C 107.05 122.07 110.86 124.01 111.05 127.93 C 111.43 131.21 109.81 135.82 106.04 136.16 C 101.23 136.08 97.70 131.99 96.02 127.83 C 96.70 127.32 97.39 126.82 98.10 126.34 C 99.95 124.96 102.82 124.46 103.63 122.04 Z" />
</g>
<g id="#261f14bd">
<path fill="#261f14" opacity="0.74" d=" M 131.37 124.31 C 130.47 122.86 132.89 120.96 134.15 122.05 C 133.46 123.05 132.56 123.93 131.37 124.31 Z" />
</g>
<g id="#d6b66aff">
<path fill="#d6b66a" opacity="1.00" d=" M 26.49 123.33 C 27.36 123.94 28.25 124.52 29.14 125.11 C 28.33 125.81 27.94 126.68 27.98 127.74 C 29.14 128.34 30.35 128.85 31.56 129.37 C 30.67 130.20 29.79 131.03 28.90 131.86 C 27.60 131.65 26.29 131.45 24.99 131.26 L 24.31 131.16 L 22.89 130.95 C 22.95 130.56 23.06 129.77 23.12 129.38 C 23.41 128.94 23.99 128.07 24.29 127.63 L 24.05 126.96 C 23.73 126.46 23.08 125.46 22.76 124.96 C 23.41 124.74 24.72 124.29 25.37 124.06 C 25.65 123.88 26.21 123.51 26.49 123.33 Z" />
</g>
<g id="#272115ac">
<path fill="#272115" opacity="0.67" d=" M 141.24 129.10 C 144.50 126.94 147.69 124.67 151.06 122.68 C 149.10 125.66 145.51 126.96 142.75 129.07 C 143.24 130.13 143.73 131.20 144.22 132.26 C 143.27 131.16 142.26 130.12 141.24 129.10 Z" />
</g>
<g id="#13120e6b">
<path fill="#13120e" opacity="0.42" d=" M 22.09 125.11 L 22.76 124.96 C 23.08 125.46 23.73 126.46 24.05 126.96 C 22.49 127.29 21.84 126.68 22.09 125.11 Z" />
</g>
<g id="#877548ff">
<path fill="#877548" opacity="1.00" d=" M 29.14 125.11 C 29.85 125.02 31.27 124.84 31.98 124.75 C 31.28 125.59 30.47 126.37 29.98 127.36 C 30.53 127.71 31.64 128.42 32.19 128.77 L 31.56 129.37 C 30.35 128.85 29.14 128.34 27.98 127.74 C 27.94 126.68 28.33 125.81 29.14 125.11 Z" />
</g>
<g id="#02010179">
<path fill="#020101" opacity="0.47" d=" M 130.20 125.86 C 129.87 128.45 127.40 124.55 129.78 125.05 L 130.20 125.86 Z" />
</g>
<g id="#2f2819b5">
<path fill="#2f2819" opacity="0.71" d=" M 131.63 127.86 C 134.76 130.31 137.28 133.39 140.25 136.01 C 140.63 136.81 140.99 137.62 141.32 138.44 L 140.48 138.81 C 138.68 134.32 133.89 132.07 131.63 127.86 Z" />
</g>
<g id="#0a09078c">
<path fill="#0a0907" opacity="0.55" d=" M 22.28 129.30 L 23.12 129.38 C 23.06 129.77 22.95 130.56 22.89 130.95 C 22.61 130.73 22.05 130.29 21.77 130.07 L 22.28 129.30 Z" />
</g>
<g id="#1f1a10ba">
<path fill="#1f1a10" opacity="0.73" d=" M 125.67 128.98 C 128.07 129.94 128.87 132.74 130.40 134.62 C 129.81 134.42 128.62 134.01 128.02 133.81 C 127.50 132.08 126.62 130.50 125.67 128.98 Z" />
</g>
<g id="#85643dff">
<path fill="#85643d" opacity="1.00" d=" M 53.63 131.98 C 54.61 133.49 55.48 135.09 55.93 136.84 C 54.27 136.94 52.61 137.06 50.94 136.99 C 50.49 136.83 49.60 136.51 49.15 136.35 C 50.81 136.37 52.48 136.41 54.14 136.47 C 53.95 134.97 53.77 133.48 53.63 131.98 Z" />
<path fill="#85643d" opacity="1.00" d=" M 140.28 132.78 C 141.54 133.54 142.80 134.30 144.06 135.06 C 144.34 134.67 144.91 133.87 145.20 133.48 L 145.46 133.11 C 147.47 136.06 150.92 138.13 151.96 141.66 C 147.57 143.35 143.34 145.41 138.95 147.08 C 140.10 149.70 142.60 151.32 144.33 153.51 C 142.35 154.12 140.37 154.70 138.37 155.21 C 137.95 150.89 137.10 146.61 135.34 142.62 C 136.23 141.71 137.14 140.80 138.08 139.93 C 138.68 139.65 139.88 139.09 140.48 138.81 L 141.32 138.44 C 140.99 137.62 140.63 136.81 140.25 136.01 L 141.28 136.25 C 140.95 135.09 140.62 133.94 140.28 132.78 Z" />
</g>
<g id="#c6a863ff">
<path fill="#c6a863" opacity="1.00" d=" M 131.80 139.74 L 132.79 140.43 C 134.33 142.84 135.26 145.58 135.93 148.35 C 134.12 152.71 135.44 157.50 134.67 162.04 C 134.58 164.62 133.05 167.62 135.23 169.76 C 134.85 170.09 134.10 170.75 133.72 171.09 C 132.29 172.34 130.74 173.47 129.06 174.36 C 127.13 174.46 125.20 174.60 123.39 175.29 C 121.06 175.80 118.61 175.44 116.31 174.96 C 109.85 173.36 103.76 170.06 97.02 169.80 C 93.68 169.96 90.05 170.55 87.55 172.97 L 87.06 173.37 C 86.86 173.45 86.44 173.62 86.24 173.70 C 83.25 174.79 80.22 176.03 77.01 176.17 C 73.39 175.96 70.03 174.39 66.91 172.64 C 65.88 171.53 63.11 170.94 63.88 169.00 C 67.63 168.33 71.40 170.58 75.08 169.19 C 80.10 167.49 84.63 164.24 90.02 163.73 C 96.06 163.35 102.00 165.19 108.05 164.84 C 114.67 165.29 121.71 163.29 126.33 158.36 C 130.85 153.21 130.19 145.97 131.80 139.74 Z" />
</g>
<g id="#f6dd91ff">
<path fill="#f6dd91" opacity="1.00" d=" M 59.29 144.07 C 59.86 147.83 62.28 150.73 64.21 153.85 C 66.41 158.18 64.05 162.82 61.81 166.57 C 59.27 160.10 59.74 153.02 58.42 146.29 C 58.64 145.73 59.08 144.62 59.29 144.07 Z" />
</g>
<g id="#d4b56aff">
<path fill="#d4b56a" opacity="1.00" d=" M 134.67 162.04 C 135.44 157.50 134.12 152.71 135.93 148.35 C 137.39 154.48 136.96 160.86 135.90 167.02 C 135.73 167.70 135.40 169.07 135.23 169.76 C 133.05 167.62 134.58 164.62 134.67 162.04 Z" />
</g>
<g id="#ac915aff">
<path fill="#ac915a" opacity="1.00" d=" M 129.06 174.36 C 130.60 174.16 131.90 173.22 133.27 172.55 C 133.76 174.95 134.13 177.38 134.44 179.81 L 133.70 179.80 C 133.20 179.80 132.19 179.79 131.69 179.78 C 131.53 179.80 131.23 179.83 131.07 179.84 C 130.70 180.24 129.95 181.03 129.58 181.42 C 129.70 182.62 129.87 183.81 130.07 185.00 C 129.51 184.85 128.41 184.55 127.86 184.40 C 127.67 184.06 127.28 183.38 127.09 183.04 C 127.33 182.42 127.33 182.42 127.09 183.04 C 125.10 181.35 124.02 178.48 124.29 175.92 C 124.73 175.78 125.60 175.51 126.03 175.37 C 125.37 175.35 124.05 175.31 123.39 175.29 C 125.20 174.60 127.13 174.46 129.06 174.36 Z" />
</g>
<g id="#7e6b40fb">
<path fill="#7e6b40" opacity="1.00" d=" M 78.44 178.78 C 79.11 179.62 79.78 180.46 80.46 181.30 C 80.21 181.99 79.73 183.38 79.48 184.07 C 79.07 183.92 78.26 183.63 77.85 183.48 C 77.67 183.20 77.31 182.64 77.13 182.36 L 77.01 181.69 C 77.37 180.96 78.08 179.51 78.44 178.78 Z" />
</g>
<g id="#d0b169ff">
<path fill="#d0b169" opacity="1.00" d=" M 133.70 179.80 L 134.44 179.81 C 134.58 181.07 135.06 182.38 134.70 183.65 C 133.10 183.74 131.70 180.56 133.70 179.80 Z" />
</g>
<g id="#d5b66cff">
<path fill="#d5b66c" opacity="1.00" d=" M 83.01 180.95 L 83.88 181.11 C 83.89 181.71 83.91 182.92 83.93 183.52 C 82.62 183.09 82.31 182.23 83.01 180.95 Z" />
</g>
<g id="#edc976ff">
<path fill="#edc976" opacity="1.00" d=" M 127.09 183.04 C 127.33 182.42 127.33 182.42 127.09 183.04 Z" />
</g>
</svg>
