<?xml version="1.0" encoding="UTF-8" ?>
<!DOCTYPE svg PUBLIC "-//W3C//DTD SVG 1.1//EN" "http://www.w3.org/Graphics/SVG/1.1/DTD/svg11.dtd">
<svg width="215pt" height="215pt" viewBox="0 0 215 215" version="1.1" xmlns="http://www.w3.org/2000/svg">
<g id="#0503027b">
<path fill="#050302" opacity="0.48" d=" M 33.07 32.79 C 32.72 31.22 33.25 30.74 34.67 31.37 L 34.81 32.12 C 34.54 32.36 34.00 32.85 33.74 33.09 L 33.07 32.79 Z" />
</g>
<g id="#6b492cff">
<path fill="#6b492c" opacity="1.00" d=" M 33.74 33.09 C 34.00 32.85 34.54 32.36 34.81 32.12 C 36.86 34.45 39.12 36.61 40.93 39.14 C 41.32 40.07 41.93 40.82 42.76 41.40 C 44.32 43.16 46.14 44.96 46.81 47.26 C 47.12 47.69 47.72 48.55 48.02 48.97 C 48.38 49.57 49.09 50.77 49.44 51.37 C 49.47 51.43 49.53 51.53 49.56 51.59 L 50.19 52.79 C 50.00 53.63 49.61 55.33 49.42 56.17 C 46.19 54.74 45.29 50.68 42.14 49.37 C 41.21 46.93 40.17 44.53 39.08 42.15 C 39.19 45.44 39.37 48.75 38.94 52.02 L 38.25 51.80 C 38.98 48.42 38.65 44.96 38.11 41.58 C 38.02 39.04 36.74 36.82 35.21 34.88 C 34.84 34.43 34.10 33.54 33.74 33.09 Z" />
<path fill="#6b492c" opacity="1.00" d=" M 96.00 42.02 C 99.35 40.08 103.11 38.98 106.79 37.82 C 107.64 37.91 109.33 38.07 110.18 38.15 C 102.09 41.42 95.12 46.88 89.04 53.04 C 87.63 54.65 85.46 54.80 83.48 54.97 C 83.26 54.15 82.84 52.50 82.63 51.68 C 83.01 51.31 83.78 50.58 84.16 50.21 C 85.04 49.73 85.73 49.04 86.22 48.15 C 88.62 46.14 91.26 44.19 94.26 43.20 C 94.70 42.91 95.57 42.32 96.00 42.02 Z" />
</g>
<g id="#0c09067a">
<path fill="#0c0906" opacity="0.48" d=" M 35.21 34.88 C 36.74 36.82 38.02 39.04 38.11 41.58 C 36.89 39.46 36.11 37.14 35.21 34.88 Z" />
</g>
<g id="#4e3827ff">
<path fill="#4e3827" opacity="1.00" d=" M 106.79 37.82 C 110.15 36.61 113.73 36.26 117.26 35.81 C 118.03 35.69 118.74 35.85 119.40 36.30 C 115.40 36.85 111.51 38.51 108.69 41.46 L 108.39 41.39 C 108.06 41.31 107.39 41.15 107.06 41.08 C 99.72 45.32 92.42 50.66 88.47 58.36 C 86.67 61.30 88.89 65.75 92.61 64.67 C 93.11 64.47 94.13 64.08 94.64 63.88 L 94.84 64.49 C 92.37 65.42 89.73 65.66 87.13 65.88 C 83.96 60.44 78.12 57.23 71.91 56.73 C 68.23 56.28 64.54 56.76 60.94 57.54 C 60.33 57.64 59.12 57.84 58.52 57.94 L 57.86 58.03 C 64.96 54.65 73.17 55.74 80.39 58.12 C 80.56 55.80 81.57 53.71 82.63 51.68 C 82.84 52.50 83.26 54.15 83.48 54.97 C 85.46 54.80 87.63 54.65 89.04 53.04 C 95.12 46.88 102.09 41.42 110.18 38.15 C 109.33 38.07 107.64 37.91 106.79 37.82 Z" />
<path fill="#4e3827" opacity="1.00" d=" M 42.14 49.37 C 45.29 50.68 46.19 54.74 49.42 56.17 C 49.61 55.33 50.00 53.63 50.19 52.79 C 51.13 55.12 51.99 57.48 52.73 59.89 C 53.73 59.57 55.72 58.93 56.72 58.62 C 53.87 60.23 51.03 62.03 48.96 64.62 C 47.66 66.26 46.54 68.02 45.51 69.84 C 43.93 68.68 42.06 67.65 41.49 65.62 C 42.65 66.58 43.84 67.50 45.06 68.40 C 45.48 64.47 44.90 60.53 44.25 56.66 C 43.72 54.18 42.96 51.76 42.14 49.37 Z" />
<path fill="#4e3827" opacity="1.00" d=" M 86.80 108.68 C 88.70 106.44 91.60 106.52 94.23 107.19 C 95.92 107.45 97.38 108.38 98.75 109.34 C 100.40 108.85 102.05 108.32 103.76 108.03 C 104.93 107.85 107.27 107.49 108.45 107.31 C 110.00 110.84 105.26 110.13 103.15 110.49 C 102.02 110.69 100.92 111.01 99.85 111.46 C 101.72 115.93 103.09 120.62 103.91 125.39 C 101.54 120.27 101.40 114.14 97.80 109.62 C 97.25 109.53 96.15 109.35 95.61 109.27 C 95.91 111.26 96.22 113.25 96.47 115.25 C 95.58 113.23 95.04 111.02 93.70 109.24 C 92.20 108.35 90.36 108.63 88.71 108.34 C 88.40 109.58 88.09 110.82 87.78 112.06 C 88.81 113.86 89.84 115.66 90.75 117.53 C 88.91 115.47 87.51 113.08 85.85 110.89 C 85.36 112.50 83.91 114.28 84.94 115.99 C 87.20 121.48 92.10 125.36 94.29 130.89 C 95.49 134.27 96.01 137.86 97.34 141.21 C 97.55 141.71 97.97 142.69 98.19 143.18 C 97.76 142.72 96.91 141.79 96.49 141.32 C 94.35 140.85 91.98 140.96 90.06 139.78 C 91.98 140.01 93.91 140.11 95.85 140.24 C 94.27 135.17 92.53 130.10 89.81 125.51 C 89.04 124.32 88.24 123.16 87.45 121.98 C 85.96 119.81 84.68 117.49 83.78 115.01 C 83.38 112.38 85.06 110.39 86.80 108.68 Z" />
<path fill="#4e3827" opacity="1.00" d=" M 153.93 126.62 L 153.84 125.89 C 156.11 130.70 157.87 135.75 159.55 140.80 C 157.17 140.99 156.12 138.35 154.72 136.89 C 155.65 137.68 157.50 139.27 158.43 140.06 C 157.60 135.87 155.46 132.12 154.28 128.05 C 154.19 127.69 154.02 126.97 153.93 126.62 Z" />
</g>
<g id="#01010048">
<path fill="#010100" opacity="0.28" d=" M 40.93 39.14 C 42.74 38.87 43.36 39.62 42.76 41.40 C 41.93 40.82 41.32 40.07 40.93 39.14 Z" />
</g>
<g id="#cfb26aff">
<path fill="#cfb26a" opacity="1.00" d=" M 88.47 58.36 C 92.42 50.66 99.72 45.32 107.06 41.08 C 107.39 41.15 108.06 41.31 108.39 41.39 C 106.26 43.84 103.84 46.28 103.04 49.55 L 102.70 49.56 C 102.36 49.58 101.68 49.61 101.34 49.62 C 96.84 53.54 93.79 58.83 92.61 64.67 C 88.89 65.75 86.67 61.30 88.47 58.36 Z" />
</g>
<g id="#0e090692">
<path fill="#0e0906" opacity="0.57" d=" M 94.25 42.29 L 95.14 41.68 L 96.00 42.02 C 95.57 42.32 94.70 42.91 94.26 43.20 L 94.25 42.29 Z" />
</g>
<g id="#e0c173ff">
<path fill="#e0c173" opacity="1.00" d=" M 39.08 42.15 C 40.17 44.53 41.21 46.93 42.14 49.37 C 42.96 51.76 43.72 54.18 44.25 56.66 C 41.85 55.98 40.57 53.72 38.94 52.02 C 39.37 48.75 39.19 45.44 39.08 42.15 Z" />
</g>
<g id="#150e08a0">
<path fill="#150e08" opacity="0.63" d=" M 46.81 47.26 L 47.72 47.23 L 48.35 48.11 L 48.02 48.97 C 47.72 48.55 47.12 47.69 46.81 47.26 Z" />
</g>
<g id="#02010051">
<path fill="#020100" opacity="0.32" d=" M 84.16 50.21 C 83.72 48.41 84.40 47.73 86.22 48.15 C 85.73 49.04 85.04 49.73 84.16 50.21 Z" />
</g>
<g id="#f8db7eff">
<path fill="#f8db7e" opacity="1.00" d=" M 101.34 49.62 C 101.68 49.61 102.36 49.58 102.70 49.56 C 102.56 50.62 102.48 51.69 102.44 52.76 L 103.04 53.61 C 103.54 53.58 104.52 53.54 105.02 53.51 C 105.33 53.82 105.97 54.45 106.29 54.76 C 105.88 54.99 105.06 55.45 104.66 55.68 C 103.47 56.16 102.44 56.96 101.75 58.05 C 101.21 58.72 100.59 59.30 99.88 59.78 C 98.43 60.67 97.22 61.86 96.11 63.13 C 95.74 63.32 95.01 63.69 94.64 63.88 C 94.13 64.08 93.11 64.47 92.61 64.67 C 93.79 58.83 96.84 53.54 101.34 49.62 Z" />
</g>
<g id="#0503029c">
<path fill="#050302" opacity="0.61" d=" M 49.44 51.37 C 49.47 51.43 49.53 51.53 49.56 51.59 C 49.53 51.53 49.47 51.43 49.44 51.37 Z" />
</g>
<g id="#f9db7eff">
<path fill="#f9db7e" opacity="1.00" d=" M 28.27 52.52 C 30.55 51.42 33.07 52.43 35.07 53.65 C 35.92 54.53 37.74 54.43 37.85 52.98 L 38.25 51.80 L 38.94 52.02 C 40.57 53.72 41.85 55.98 44.25 56.66 C 44.90 60.53 45.48 64.47 45.06 68.40 C 43.84 67.50 42.65 66.58 41.49 65.62 C 41.43 65.43 41.30 65.05 41.24 64.86 C 40.97 63.32 40.03 62.07 38.98 60.96 C 38.83 60.63 38.54 59.96 38.39 59.63 C 38.17 58.26 37.25 57.18 36.00 56.62 C 35.27 56.10 34.60 55.53 33.97 54.89 C 32.86 53.72 31.41 52.58 29.69 52.78 L 29.51 53.30 C 29.31 53.90 28.89 55.10 28.68 55.70 C 28.59 54.97 28.40 53.51 28.30 52.78 L 28.27 52.52 Z" />
<path fill="#f9db7e" opacity="1.00" d=" M 152.43 133.87 C 152.81 133.94 153.58 134.07 153.97 134.14 C 154.03 134.51 154.14 135.27 154.20 135.65 C 152.74 135.88 152.15 135.28 152.43 133.87 Z" />
</g>
<g id="#19150c6a">
<path fill="#19150c" opacity="0.42" d=" M 102.44 52.76 C 104.76 52.38 107.14 52.12 109.43 52.83 C 107.92 52.78 106.44 53.06 105.02 53.51 C 104.52 53.54 103.54 53.58 103.04 53.61 L 102.44 52.76 Z" />
</g>
<g id="#20110cff">
<path fill="#20110c" opacity="1.00" d=" M 33.70 60.64 C 29.75 61.61 25.96 55.95 28.30 52.78 C 28.40 53.51 28.59 54.97 28.68 55.70 C 29.01 58.14 30.69 60.78 33.51 60.42 C 33.44 58.49 32.17 57.09 31.05 55.67 C 33.10 56.56 33.82 58.52 33.70 60.64 Z" />
<path fill="#20110c" opacity="1.00" d=" M 49.08 66.39 C 50.50 64.54 52.84 63.86 54.86 65.22 C 54.80 66.49 54.72 67.77 54.61 69.04 C 53.37 69.93 52.01 71.15 50.35 70.54 C 49.03 69.59 49.29 67.80 49.08 66.39 M 51.90 65.35 C 51.40 66.72 51.89 67.18 53.37 66.73 C 53.87 65.36 53.38 64.90 51.90 65.35 Z" />
<path fill="#20110c" opacity="1.00" d=" M 137.63 103.36 C 138.86 105.00 140.06 106.67 141.16 108.40 C 140.70 108.38 139.77 108.34 139.31 108.31 C 129.71 105.92 119.79 107.20 110.05 107.50 C 110.04 108.48 110.04 109.45 110.04 110.42 C 114.71 110.68 119.31 111.93 123.46 114.10 C 116.90 111.90 110.12 110.34 103.15 110.49 C 105.26 110.13 110.00 110.84 108.45 107.31 C 107.27 107.49 104.93 107.85 103.76 108.03 C 115.60 106.23 127.97 105.23 139.75 107.90 C 139.22 106.77 138.16 104.49 137.63 103.36 Z" />
<path fill="#20110c" opacity="1.00" d=" M 160.49 104.76 C 165.71 107.23 170.83 110.31 175.07 114.23 C 170.17 111.30 165.65 107.77 160.52 105.22 L 160.49 104.76 Z" />
<path fill="#20110c" opacity="1.00" d=" M 188.86 126.68 C 190.71 128.10 192.09 129.99 193.17 132.04 C 190.12 131.71 187.27 130.41 184.70 128.79 C 187.18 129.66 189.63 130.59 192.12 131.46 C 191.09 129.83 190.04 128.21 188.86 126.68 Z" />
<path fill="#20110c" opacity="1.00" d=" M 79.05 139.78 C 82.63 138.56 86.53 138.13 90.06 139.78 C 87.22 139.30 84.34 138.95 81.48 139.51 C 81.69 144.71 82.50 150.39 79.98 155.18 C 80.75 151.17 81.35 147.07 81.03 142.97 C 81.18 141.50 80.38 140.34 79.05 139.78 Z" />
<path fill="#20110c" opacity="1.00" d=" M 66.96 149.98 C 68.05 147.98 69.29 146.02 71.12 144.61 C 70.15 146.54 66.98 148.61 68.93 150.84 C 71.55 154.27 70.37 158.82 70.61 162.78 C 71.80 161.81 72.98 160.82 74.15 159.83 C 73.92 160.29 73.45 161.20 73.21 161.66 C 71.71 162.55 69.39 164.58 71.57 166.13 L 71.90 166.47 C 71.40 166.88 70.39 167.69 69.89 168.09 C 69.56 169.15 69.22 170.21 68.86 171.26 C 68.76 169.77 68.67 168.28 68.58 166.79 C 68.66 166.43 68.81 165.71 68.89 165.35 C 70.13 160.35 71.88 153.52 66.96 149.98 Z" />
</g>
<g id="#322c1a93">
<path fill="#322c1a" opacity="0.58" d=" M 29.69 52.78 C 31.41 52.58 32.86 53.72 33.97 54.89 C 32.44 55.11 30.46 54.62 29.51 53.30 L 29.69 52.78 Z" />
</g>
<g id="#2a24157e">
<path fill="#2a2415" opacity="0.49" d=" M 35.07 53.65 C 35.77 53.48 37.15 53.15 37.85 52.98 C 37.74 54.43 35.92 54.53 35.07 53.65 Z" />
</g>
<g id="#af9659fc">
<path fill="#af9659" opacity="1.00" d=" M 105.02 53.51 C 106.44 53.06 107.92 52.78 109.43 52.83 L 109.97 53.12 C 109.08 53.88 108.08 54.50 107.00 54.97 L 106.29 54.76 C 105.97 54.45 105.33 53.82 105.02 53.51 Z" />
</g>
<g id="#423430ff">
<path fill="#423430" opacity="1.00" d=" M 109.97 53.12 C 114.42 54.21 113.58 61.07 109.64 62.22 C 109.49 62.06 109.19 61.74 109.04 61.57 C 110.50 60.19 112.58 58.32 111.66 56.08 C 110.94 53.96 108.58 54.80 107.00 54.97 C 108.08 54.50 109.08 53.88 109.97 53.12 Z" />
<path fill="#423430" opacity="1.00" d=" M 73.01 63.03 C 74.60 62.53 76.62 61.33 77.95 63.01 C 81.18 65.15 77.69 70.55 74.36 68.52 C 72.05 67.64 72.18 64.92 73.01 63.03 M 75.12 62.77 C 73.55 63.39 74.29 65.85 75.93 65.48 C 77.92 65.30 76.88 61.97 75.12 62.77 Z" />
<path fill="#423430" opacity="1.00" d=" M 45.52 103.43 C 45.65 103.07 45.91 102.36 46.04 102.00 L 45.81 103.39 C 43.20 113.14 39.73 123.78 43.61 133.69 C 43.82 134.24 44.24 135.34 44.45 135.89 C 45.15 137.58 45.93 139.23 46.66 140.91 L 45.87 140.73 C 45.69 141.04 45.31 141.68 45.13 142.00 C 44.38 143.08 43.62 144.15 42.86 145.23 C 42.66 143.97 42.46 142.72 42.26 141.47 L 42.20 141.08 C 43.05 140.15 43.89 139.20 44.74 138.26 C 39.93 129.46 40.74 118.82 43.73 109.57 C 41.08 108.81 38.13 108.65 35.84 106.97 C 38.43 107.48 40.96 108.24 43.48 109.05 C 44.22 107.19 44.90 105.32 45.52 103.43 Z" />
<path fill="#423430" opacity="1.00" d=" M 95.51 130.70 C 96.81 129.48 97.73 127.23 99.86 127.49 C 101.69 127.32 102.76 129.27 103.25 130.74 C 103.81 129.39 104.60 128.06 104.32 126.51 C 106.25 131.07 106.49 136.48 104.94 141.15 C 105.08 137.40 105.94 133.31 103.95 129.88 C 103.00 132.54 104.51 136.75 101.48 138.37 C 97.36 138.75 96.65 133.57 95.51 130.70 M 99.12 128.11 C 94.43 129.42 97.37 135.31 99.88 137.53 C 103.41 138.59 102.87 134.20 102.94 131.99 C 102.34 130.27 101.30 127.98 99.12 128.11 Z" />
</g>
<g id="#413b21aa">
<path fill="#413b21" opacity="0.67" d=" M 101.75 58.05 C 102.44 56.96 103.47 56.16 104.66 55.68 C 105.47 57.15 103.05 58.97 101.75 58.05 Z" />
</g>
<g id="#796e40d0">
<path fill="#796e40" opacity="0.82" d=" M 36.00 56.62 C 37.25 57.18 38.17 58.26 38.39 59.63 C 36.99 60.01 35.28 57.90 36.00 56.62 Z" />
</g>
<g id="#f1c87fff">
<path fill="#f1c87f" opacity="1.00" d=" M 60.94 57.54 C 64.54 56.76 68.23 56.28 71.91 56.73 C 71.01 59.03 70.85 62.05 68.39 63.32 C 64.24 66.18 59.30 67.38 54.61 69.04 C 54.72 67.77 54.80 66.49 54.86 65.22 C 58.12 63.62 60.84 61.15 62.89 58.17 C 62.40 58.01 61.43 57.70 60.94 57.54 Z" />
</g>
<g id="#efb95dff">
<path fill="#efb95d" opacity="1.00" d=" M 71.91 56.73 C 78.12 57.23 83.96 60.44 87.13 65.88 C 89.16 68.42 90.11 71.62 90.68 74.77 C 90.42 75.31 89.91 76.38 89.65 76.91 C 89.06 76.17 88.49 75.42 87.93 74.65 C 86.43 72.30 85.12 69.13 82.03 68.60 C 79.04 68.71 76.94 71.70 76.60 74.46 C 76.20 77.16 77.79 79.56 79.11 81.76 C 73.58 83.85 68.10 86.80 62.01 86.50 C 58.26 86.73 54.70 85.47 51.11 84.65 C 49.09 84.80 47.32 86.04 45.45 86.73 C 45.73 86.44 46.30 85.85 46.59 85.55 C 49.70 83.07 49.76 78.57 48.81 75.03 C 48.32 73.07 45.82 73.66 44.36 73.31 C 44.48 72.75 44.73 71.63 44.85 71.08 L 45.51 69.84 C 46.54 68.02 47.66 66.26 48.96 64.62 L 49.08 66.39 C 49.29 67.80 49.03 69.59 50.35 70.54 C 52.01 71.15 53.37 69.93 54.61 69.04 C 59.30 67.38 64.24 66.18 68.39 63.32 C 70.85 62.05 71.01 59.03 71.91 56.73 M 73.01 63.03 C 72.18 64.92 72.05 67.64 74.36 68.52 C 77.69 70.55 81.18 65.15 77.95 63.01 C 76.62 61.33 74.60 62.53 73.01 63.03 M 60.51 68.81 C 60.48 71.50 65.09 71.70 65.14 69.02 C 63.63 68.65 62.06 68.77 60.51 68.81 M 68.04 73.38 C 63.47 72.87 58.99 74.21 54.43 73.95 C 55.17 75.14 56.38 76.32 57.91 75.65 C 62.21 74.58 66.66 75.05 71.04 75.06 C 71.97 74.10 72.75 73.02 73.39 71.85 C 71.64 72.43 69.96 73.59 68.04 73.38 Z" />
<path fill="#efb95d" opacity="1.00" d=" M 37.02 92.63 C 39.84 92.39 42.67 92.58 45.50 92.51 L 46.36 93.21 C 47.70 94.31 49.02 95.41 50.34 96.51 L 50.69 96.81 C 48.96 98.92 47.29 101.09 45.81 103.39 L 46.04 102.00 C 45.91 102.36 45.65 103.07 45.52 103.43 C 41.63 103.87 37.64 103.71 33.91 102.46 C 33.46 102.04 32.57 101.20 32.12 100.78 C 33.56 99.61 35.01 98.44 36.45 97.27 C 35.55 96.25 34.65 95.23 33.75 94.21 C 34.57 93.81 36.20 93.03 37.02 92.63 Z" />
</g>
<g id="#f6dfb3ff">
<path fill="#f6dfb3" opacity="1.00" d=" M 58.52 57.94 C 59.12 57.84 60.33 57.64 60.94 57.54 C 61.43 57.70 62.40 58.01 62.89 58.17 C 60.84 61.15 58.12 63.62 54.86 65.22 C 52.84 63.86 50.50 64.54 49.08 66.39 L 48.96 64.62 C 51.03 62.03 53.87 60.23 56.72 58.62 C 57.17 58.45 58.07 58.11 58.52 57.94 Z" />
</g>
<g id="#01010167">
<path fill="#010101" opacity="0.40" d=" M 105.95 60.07 C 105.88 58.45 107.71 57.85 108.97 57.50 C 108.66 58.16 108.04 59.47 107.73 60.12 C 108.06 60.49 108.72 61.21 109.04 61.57 C 109.19 61.74 109.49 62.06 109.64 62.22 L 110.22 62.85 C 108.34 63.52 105.73 62.27 105.95 60.07 Z" />
</g>
<g id="#2a241578">
<path fill="#2a2415" opacity="0.47" d=" M 96.11 63.13 C 97.22 61.86 98.43 60.67 99.88 59.78 C 100.73 61.63 97.87 64.12 96.11 63.13 Z" />
</g>
<g id="#413921ae">
<path fill="#413921" opacity="0.68" d=" M 38.98 60.96 C 40.03 62.07 40.97 63.32 41.24 64.86 C 39.51 65.38 38.02 62.32 38.98 60.96 Z" />
</g>
<g id="#fbf1daff">
<path fill="#fbf1da" opacity="1.00" d=" M 75.12 62.77 C 76.88 61.97 77.92 65.30 75.93 65.48 C 74.29 65.85 73.55 63.39 75.12 62.77 Z" />
<path fill="#fbf1da" opacity="1.00" d=" M 45.81 103.39 C 47.29 101.09 48.96 98.92 50.69 96.81 C 59.29 104.00 70.63 106.54 81.34 108.84 C 81.36 110.07 81.18 111.27 80.81 112.44 C 77.36 116.83 76.82 123.02 79.37 127.98 C 78.51 130.07 77.62 132.15 76.59 134.17 C 76.31 134.47 75.76 135.07 75.48 135.37 C 68.67 135.61 61.83 136.94 55.04 135.72 C 51.17 135.27 47.60 132.74 43.61 133.69 C 39.73 123.78 43.20 113.14 45.81 103.39 Z" />
</g>
<g id="#dfe1e6ff">
<path fill="#dfe1e6" opacity="1.00" d=" M 51.90 65.35 C 53.38 64.90 53.87 65.36 53.37 66.73 C 51.89 67.18 51.40 66.72 51.90 65.35 Z" />
</g>
<g id="#3b3636ff">
<path fill="#3b3636" opacity="1.00" d=" M 60.51 68.81 C 62.06 68.77 63.63 68.65 65.14 69.02 C 65.09 71.70 60.48 71.50 60.51 68.81 Z" />
<path fill="#3b3636" opacity="1.00" d=" M 72.88 143.16 C 74.70 141.66 76.75 140.40 79.05 139.78 C 80.38 140.34 81.18 141.50 81.03 142.97 C 81.35 147.07 80.75 151.17 79.98 155.18 C 79.72 156.18 79.20 157.02 78.44 157.68 C 77.48 158.23 76.96 159.05 76.88 160.14 C 76.40 162.69 73.91 164.18 72.17 165.87 C 72.75 164.53 72.94 163.08 73.21 161.66 C 73.45 161.20 73.92 160.29 74.15 159.83 C 75.97 157.14 77.53 154.27 78.39 151.13 C 79.35 149.18 79.73 146.82 78.46 144.90 C 77.90 143.75 77.33 142.59 76.77 141.44 C 75.47 142.00 74.17 142.56 72.88 143.16 Z" />
</g>
<g id="#6e4e2dff">
<path fill="#6e4e2d" opacity="1.00" d=" M 76.60 74.46 C 76.94 71.70 79.04 68.71 82.03 68.60 C 85.12 69.13 86.43 72.30 87.93 74.65 C 87.70 77.40 87.44 80.26 85.80 82.58 C 83.56 84.19 81.10 83.26 79.11 81.76 C 77.79 79.56 76.20 77.16 76.60 74.46 M 77.40 72.73 C 76.78 77.27 79.53 81.87 84.18 82.69 C 89.24 79.55 86.99 69.61 80.82 69.45 C 79.48 70.31 78.49 71.60 77.40 72.73 Z" />
<path fill="#6e4e2d" opacity="1.00" d=" M 59.80 172.81 C 62.51 170.45 66.36 169.74 68.58 166.79 C 68.67 168.28 68.76 169.77 68.86 171.26 L 68.81 171.42 C 67.66 173.89 66.63 176.41 65.79 179.00 C 65.08 180.88 63.39 182.09 62.02 183.45 C 61.51 183.43 60.49 183.37 59.97 183.34 C 59.82 181.58 59.55 179.82 59.06 178.12 L 58.44 178.04 C 57.59 177.96 55.90 177.78 55.06 177.70 C 54.54 178.99 54.03 180.29 53.53 181.59 C 52.86 180.78 52.24 179.94 51.64 179.09 C 51.35 176.12 54.49 174.44 54.95 171.64 C 55.42 171.30 56.38 170.61 56.86 170.27 C 57.13 170.63 57.69 171.36 57.97 171.72 C 58.42 171.99 59.34 172.54 59.80 172.81 M 60.38 177.25 C 58.71 178.54 60.74 180.94 62.16 179.26 C 64.02 178.08 61.77 175.50 60.38 177.25 Z" />
</g>
<g id="#f8da7dff">
<path fill="#f8da7d" opacity="1.00" d=" M 77.40 72.73 C 78.49 71.60 79.48 70.31 80.82 69.45 C 86.99 69.61 89.24 79.55 84.18 82.69 C 79.53 81.87 76.78 77.27 77.40 72.73 Z" />
<path fill="#f8da7d" opacity="1.00" d=" M 44.91 85.76 C 42.75 81.08 43.28 75.84 44.85 71.08 C 44.73 71.63 44.48 72.75 44.36 73.31 C 45.82 73.66 48.32 73.07 48.81 75.03 C 49.76 78.57 49.70 83.07 46.59 85.55 L 44.91 85.76 Z" />
</g>
<g id="#a88041ff">
<path fill="#a88041" opacity="1.00" d=" M 68.04 73.38 C 69.96 73.59 71.64 72.43 73.39 71.85 C 72.75 73.02 71.97 74.10 71.04 75.06 C 66.66 75.05 62.21 74.58 57.91 75.65 C 56.38 76.32 55.17 75.14 54.43 73.95 C 58.99 74.21 63.47 72.87 68.04 73.38 Z" />
</g>
<g id="#c29552ff">
<path fill="#c29552" opacity="1.00" d=" M 87.93 74.65 C 88.49 75.42 89.06 76.17 89.65 76.91 C 89.91 76.38 90.42 75.31 90.68 74.77 C 91.77 79.59 91.75 84.67 91.52 89.60 C 93.13 90.00 94.75 90.39 96.36 90.78 C 93.25 91.00 89.04 90.19 87.92 94.02 C 90.32 95.24 92.99 96.11 95.39 94.40 C 95.19 94.82 94.78 95.68 94.58 96.11 C 95.22 96.90 95.87 97.69 96.54 98.47 C 96.46 99.22 96.38 99.97 96.31 100.73 C 96.78 101.82 97.24 102.92 97.71 104.02 C 93.71 104.48 89.72 103.94 85.74 103.50 C 88.20 104.56 90.89 104.76 93.45 105.48 L 94.23 107.19 C 91.60 106.52 88.70 106.44 86.80 108.68 C 84.89 108.48 82.99 108.27 81.08 108.05 C 79.74 103.87 77.87 99.79 74.81 96.57 C 75.35 94.13 75.00 91.64 75.14 89.18 C 77.38 88.49 79.24 90.73 81.08 91.73 C 81.93 88.17 86.36 86.62 85.80 82.58 C 87.44 80.26 87.70 77.40 87.93 74.65 Z" />
</g>
<g id="#d6a455ff">
<path fill="#d6a455" opacity="1.00" d=" M 62.01 86.50 C 68.10 86.80 73.58 83.85 79.11 81.76 C 81.10 83.26 83.56 84.19 85.80 82.58 C 86.36 86.62 81.93 88.17 81.08 91.73 C 79.24 90.73 77.38 88.49 75.14 89.18 C 75.00 91.64 75.35 94.13 74.81 96.57 C 71.51 93.75 67.56 90.91 62.97 91.29 C 58.18 91.11 54.08 93.87 50.34 96.51 C 49.02 95.41 47.70 94.31 46.36 93.21 C 47.20 91.00 46.17 88.82 45.45 86.73 C 47.32 86.04 49.09 84.80 51.11 84.65 C 54.70 85.47 58.26 86.73 62.01 86.50 Z" />
</g>
<g id="#e6d9c2ff">
<path fill="#e6d9c2" opacity="1.00" d=" M 50.34 96.51 C 54.08 93.87 58.18 91.11 62.97 91.29 C 67.56 90.91 71.51 93.75 74.81 96.57 C 77.87 99.79 79.74 103.87 81.08 108.05 L 81.34 108.84 C 70.63 106.54 59.29 104.00 50.69 96.81 L 50.34 96.51 Z" />
</g>
<g id="#efb95cff">
<path fill="#efb95c" opacity="1.00" d=" M 87.92 94.02 C 89.04 90.19 93.25 91.00 96.36 90.78 L 97.07 90.76 C 97.99 91.06 98.91 91.36 99.84 91.65 C 99.54 92.03 98.94 92.79 98.64 93.17 C 97.54 93.55 96.46 93.96 95.39 94.40 C 92.99 96.11 90.32 95.24 87.92 94.02 Z" />
<path fill="#efb95c" opacity="1.00" d=" M 79.37 127.98 C 80.08 129.15 80.87 130.27 81.65 131.41 C 80.47 133.12 78.50 133.71 76.59 134.17 C 77.62 132.15 78.51 130.07 79.37 127.98 Z" />
</g>
<g id="#5e4029ff">
<path fill="#5e4029" opacity="1.00" d=" M 99.84 91.65 L 100.85 91.27 L 102.03 92.08 C 102.78 92.87 103.69 93.25 104.76 93.22 L 106.34 93.31 C 105.05 93.51 103.76 93.74 102.48 93.98 C 104.08 96.92 108.23 99.41 110.82 96.07 C 111.12 96.37 111.74 96.96 112.04 97.25 C 112.01 97.86 111.94 99.08 111.90 99.68 C 111.55 100.92 110.76 101.85 109.53 102.47 C 109.49 102.49 109.40 102.53 109.36 102.56 L 107.89 103.02 C 107.38 103.18 106.35 103.50 105.84 103.65 C 102.00 105.45 97.43 104.00 93.45 105.48 C 90.89 104.76 88.20 104.56 85.74 103.50 C 89.72 103.94 93.71 104.48 97.71 104.02 C 97.24 102.92 96.78 101.82 96.31 100.73 C 96.38 99.97 96.46 99.22 96.54 98.47 C 95.87 97.69 95.22 96.90 94.58 96.11 C 94.78 95.68 95.19 94.82 95.39 94.40 C 96.46 93.96 97.54 93.55 98.64 93.17 C 98.94 92.79 99.54 92.03 99.84 91.65 Z" />
</g>
<g id="#1d140bbf">
<path fill="#1d140b" opacity="0.75" d=" M 102.03 92.08 C 103.60 91.16 104.51 91.54 104.76 93.22 C 103.69 93.25 102.78 92.87 102.03 92.08 Z" />
</g>
<g id="#0a080575">
<path fill="#0a0805" opacity="0.46" d=" M 129.04 93.71 C 127.79 92.35 130.95 90.88 130.99 92.81 C 130.67 93.07 130.03 93.60 129.71 93.86 L 129.04 93.71 Z" />
</g>
<g id="#6e4e2eff">
<path fill="#6e4e2e" opacity="1.00" d=" M 24.72 94.53 C 28.60 92.95 32.85 92.47 37.02 92.63 C 36.20 93.03 34.57 93.81 33.75 94.21 C 34.65 95.23 35.55 96.25 36.45 97.27 C 35.01 98.44 33.56 99.61 32.12 100.78 C 32.57 101.20 33.46 102.04 33.91 102.46 C 34.22 103.88 34.51 105.31 34.77 106.74 C 32.62 106.07 30.55 105.18 28.51 104.24 L 28.24 103.55 C 27.86 102.48 27.08 101.93 25.90 101.88 C 23.35 101.29 22.36 98.30 22.11 95.98 L 22.81 96.66 C 23.15 97.15 23.81 98.14 24.15 98.63 C 26.52 98.42 28.52 97.57 28.70 94.91 C 27.70 94.81 25.71 94.62 24.72 94.53 Z" />
<path fill="#6e4e2e" opacity="1.00" d=" M 79.37 127.98 C 76.82 123.02 77.36 116.83 80.81 112.44 C 80.27 113.90 79.72 115.35 79.21 116.82 C 78.82 118.51 78.56 120.23 78.36 121.96 C 78.92 125.29 81.25 128.04 81.65 131.41 C 80.87 130.27 80.08 129.15 79.37 127.98 Z" />
</g>
<g id="#856848fa">
<path fill="#856848" opacity="0.98" d=" M 106.34 93.31 C 108.01 93.90 109.38 95.08 110.82 96.07 C 108.23 99.41 104.08 96.92 102.48 93.98 C 103.76 93.74 105.05 93.51 106.34 93.31 Z" />
</g>
<g id="#c6a762ff">
<path fill="#c6a762" opacity="1.00" d=" M 129.71 93.86 C 130.03 93.60 130.67 93.07 130.99 92.81 L 131.97 93.27 C 133.73 94.31 135.67 94.97 137.70 95.26 C 138.28 95.47 139.44 95.89 140.02 96.10 C 140.73 96.90 141.62 97.32 142.69 97.36 C 143.10 97.47 143.92 97.68 144.34 97.79 C 147.15 99.18 150.04 100.39 153.01 101.41 L 153.11 101.44 C 152.58 101.64 151.50 102.04 150.96 102.24 C 152.24 103.08 153.52 103.90 154.80 104.73 C 153.90 106.46 152.65 107.96 151.14 109.21 C 151.95 110.24 152.75 111.27 153.56 112.29 C 152.93 114.13 153.21 117.16 150.74 117.56 C 148.84 117.14 147.07 116.19 145.13 115.95 C 143.47 116.65 142.16 117.92 140.76 119.02 C 141.39 120.30 142.01 121.58 142.64 122.86 C 141.03 122.12 139.41 121.39 137.79 120.68 C 138.10 121.24 138.73 122.36 139.05 122.92 C 136.32 121.32 133.67 119.58 131.12 117.71 C 134.04 116.83 136.50 118.90 139.01 120.00 C 139.02 116.54 137.89 113.25 136.66 110.06 C 137.32 109.62 138.65 108.75 139.31 108.31 C 139.77 108.34 140.70 108.38 141.16 108.40 C 140.06 106.67 138.86 105.00 137.63 103.36 C 137.55 103.16 137.39 102.77 137.31 102.57 C 137.02 101.36 136.46 99.93 135.07 99.70 L 134.41 99.47 L 134.33 98.62 C 134.44 97.22 133.24 96.27 132.13 95.69 C 131.30 95.11 130.49 94.50 129.71 93.86 Z" />
</g>
<g id="#1f1a1088">
<path fill="#1f1a10" opacity="0.53" d=" M 131.97 93.27 C 133.63 92.24 137.56 93.10 137.70 95.26 C 135.67 94.97 133.73 94.31 131.97 93.27 Z" />
</g>
<g id="#907351ff">
<path fill="#907351" opacity="1.00" d=" M 22.81 96.66 C 23.29 96.13 24.24 95.06 24.72 94.53 C 25.71 94.62 27.70 94.81 28.70 94.91 C 28.52 97.57 26.52 98.42 24.15 98.63 C 23.81 98.14 23.15 97.15 22.81 96.66 Z" />
</g>
<g id="#665734d8">
<path fill="#665734" opacity="0.85" d=" M 132.13 95.69 C 133.24 96.27 134.44 97.22 134.33 98.62 C 132.95 99.10 131.38 96.89 132.13 95.69 Z" />
</g>
<g id="#2822149c">
<path fill="#282214" opacity="0.61" d=" M 140.02 96.10 C 141.62 95.24 142.51 95.66 142.69 97.36 C 141.62 97.32 140.73 96.90 140.02 96.10 Z" />
</g>
<g id="#03020157">
<path fill="#030201" opacity="0.34" d=" M 112.04 97.25 C 113.83 96.66 113.64 100.39 111.90 99.68 C 111.94 99.08 112.01 97.86 112.04 97.25 Z" />
</g>
<g id="#2620139f">
<path fill="#262013" opacity="0.62" d=" M 144.34 97.79 C 147.31 98.36 151.10 98.81 153.01 101.41 C 150.04 100.39 147.15 99.18 144.34 97.79 Z" />
</g>
<g id="#6a5935dd">
<path fill="#6a5935" opacity="0.87" d=" M 135.07 99.70 C 136.46 99.93 137.02 101.36 137.31 102.57 C 135.95 103.07 134.31 100.90 135.07 99.70 Z" />
</g>
<g id="#302115ce">
<path fill="#302115" opacity="0.81" d=" M 25.90 101.88 C 27.08 101.93 27.86 102.48 28.24 103.55 C 26.59 104.00 25.81 103.45 25.90 101.88 Z" />
</g>
<g id="#cca059ff">
<path fill="#cca059" opacity="1.00" d=" M 33.91 102.46 C 37.64 103.71 41.63 103.87 45.52 103.43 C 44.90 105.32 44.22 107.19 43.48 109.05 C 40.96 108.24 38.43 107.48 35.84 106.97 C 35.57 106.91 35.04 106.80 34.77 106.74 C 34.51 105.31 34.22 103.88 33.91 102.46 Z" />
</g>
<g id="#0100008d">
<path fill="#010000" opacity="0.55" d=" M 109.36 102.56 C 109.40 102.53 109.49 102.49 109.53 102.47 C 109.49 102.49 109.40 102.53 109.36 102.56 Z" />
</g>
<g id="#d5b668ff">
<path fill="#d5b668" opacity="1.00" d=" M 150.96 102.24 C 151.50 102.04 152.58 101.64 153.11 101.44 C 155.75 102.06 158.00 103.73 160.49 104.76 L 160.52 105.22 C 160.35 107.70 161.13 110.02 162.54 112.05 C 161.07 112.06 159.60 112.09 158.14 112.12 C 159.65 113.42 161.15 114.73 162.64 116.06 C 159.05 117.66 155.25 118.71 151.40 119.42 C 152.16 121.85 153.13 124.20 153.93 126.62 C 154.02 126.97 154.19 127.69 154.28 128.05 C 152.02 128.69 149.76 129.32 147.51 129.96 C 144.95 127.30 141.71 125.44 139.05 122.92 C 138.73 122.36 138.10 121.24 137.79 120.68 C 139.41 121.39 141.03 122.12 142.64 122.86 C 142.01 121.58 141.39 120.30 140.76 119.02 C 142.16 117.92 143.47 116.65 145.13 115.95 C 147.07 116.19 148.84 117.14 150.74 117.56 C 153.21 117.16 152.93 114.13 153.56 112.29 C 152.75 111.27 151.95 110.24 151.14 109.21 C 152.65 107.96 153.90 106.46 154.80 104.73 C 153.52 103.90 152.24 103.08 150.96 102.24 Z" />
</g>
<g id="#0805039f">
<path fill="#080503" opacity="0.62" d=" M 105.84 103.65 C 106.35 103.50 107.38 103.18 107.89 103.02 L 107.62 103.89 L 106.57 104.21 L 105.84 103.65 Z" />
</g>
<g id="#f6d877ff">
<path fill="#f6d877" opacity="1.00" d=" M 162.54 112.05 C 161.13 110.02 160.35 107.70 160.52 105.22 C 165.65 107.77 170.17 111.30 175.07 114.23 C 175.29 114.39 175.74 114.73 175.96 114.89 C 176.36 115.25 177.16 115.97 177.56 116.33 C 177.84 116.43 178.39 116.64 178.67 116.74 L 178.71 117.06 C 178.90 121.46 183.91 123.31 186.11 126.68 C 179.88 127.13 174.65 120.91 168.36 123.09 C 162.71 122.14 157.23 119.50 151.40 119.42 C 155.25 118.71 159.05 117.66 162.64 116.06 C 161.15 114.73 159.65 113.42 158.14 112.12 C 159.60 112.09 161.07 112.06 162.54 112.05 Z" />
</g>
<g id="#c0a361ff">
<path fill="#c0a361" opacity="1.00" d=" M 110.05 107.50 C 119.79 107.20 129.71 105.92 139.31 108.31 C 138.65 108.75 137.32 109.62 136.66 110.06 C 137.89 113.25 139.02 116.54 139.01 120.00 C 136.50 118.90 134.04 116.83 131.12 117.71 C 128.43 116.91 126.04 115.24 123.46 114.10 C 119.31 111.93 114.71 110.68 110.04 110.42 C 110.04 109.45 110.04 108.48 110.05 107.50 Z" />
</g>
<g id="#e7b358ff">
<path fill="#e7b358" opacity="1.00" d=" M 81.08 108.05 C 82.99 108.27 84.89 108.48 86.80 108.68 C 85.06 110.39 83.38 112.38 83.78 115.01 C 83.48 114.21 83.18 113.41 82.88 112.61 C 82.36 112.57 81.33 112.48 80.81 112.44 C 81.18 111.27 81.36 110.07 81.34 108.84 L 81.08 108.05 Z" />
</g>
<g id="#f4daacff">
<path fill="#f4daac" opacity="1.00" d=" M 88.71 108.34 C 90.36 108.63 92.20 108.35 93.70 109.24 C 95.04 111.02 95.58 113.23 96.47 115.25 C 96.22 113.25 95.91 111.26 95.61 109.27 C 96.15 109.35 97.25 109.53 97.80 109.62 C 101.40 114.14 101.54 120.27 103.91 125.39 C 104.01 125.67 104.22 126.23 104.32 126.51 C 104.60 128.06 103.81 129.39 103.25 130.74 C 102.76 129.27 101.69 127.32 99.86 127.49 C 97.73 127.23 96.81 129.48 95.51 130.70 C 95.21 130.75 94.60 130.84 94.29 130.89 C 92.10 125.36 87.20 121.48 84.94 115.99 C 83.91 114.28 85.36 112.50 85.85 110.89 C 87.51 113.08 88.91 115.47 90.75 117.53 C 89.84 115.66 88.81 113.86 87.78 112.06 C 88.09 110.82 88.40 109.58 88.71 108.34 Z" />
</g>
<g id="#f2cd87ff">
<path fill="#f2cd87" opacity="1.00" d=" M 80.81 112.44 C 81.33 112.48 82.36 112.57 82.88 112.61 C 83.18 113.41 83.48 114.21 83.78 115.01 C 84.68 117.49 85.96 119.81 87.45 121.98 C 85.39 121.65 83.19 121.68 81.28 120.74 C 80.10 119.79 79.92 118.09 79.21 116.82 C 79.72 115.35 80.27 113.90 80.81 112.44 Z" />
</g>
<g id="#423b21aa">
<path fill="#423b21" opacity="0.67" d=" M 175.96 114.89 L 176.83 114.64 L 177.66 115.37 L 177.56 116.33 C 177.16 115.97 176.36 115.25 175.96 114.89 Z" />
</g>
<g id="#edb95dff">
<path fill="#edb95d" opacity="1.00" d=" M 78.36 121.96 C 78.56 120.23 78.82 118.51 79.21 116.82 C 79.92 118.09 80.10 119.79 81.28 120.74 C 83.19 121.68 85.39 121.65 87.45 121.98 C 88.24 123.16 89.04 124.32 89.81 125.51 C 85.62 126.75 81.91 123.66 78.36 121.96 Z" />
</g>
<g id="#ead576fe">
<path fill="#ead576" opacity="1.00" d=" M 186.11 126.68 C 183.91 123.31 178.90 121.46 178.71 117.06 L 179.74 118.06 C 180.32 118.98 181.10 119.68 182.08 120.17 C 184.56 122.09 186.67 124.45 188.86 126.68 C 190.04 128.21 191.09 129.83 192.12 131.46 C 189.63 130.59 187.18 129.66 184.70 128.79 C 179.34 126.63 173.79 125.04 168.36 123.09 C 174.65 120.91 179.88 127.13 186.11 126.68 Z" />
</g>
<g id="#332c18a5">
<path fill="#332c18" opacity="0.65" d=" M 179.74 118.06 C 181.54 117.69 182.32 118.40 182.08 120.17 C 181.10 119.68 180.32 118.98 179.74 118.06 Z" />
</g>
<g id="#c39753ff">
<path fill="#c39753" opacity="1.00" d=" M 78.36 121.96 C 81.91 123.66 85.62 126.75 89.81 125.51 C 92.53 130.10 94.27 135.17 95.85 140.24 C 93.91 140.11 91.98 140.01 90.06 139.78 C 86.53 138.13 82.63 138.56 79.05 139.78 C 76.75 140.40 74.70 141.66 72.88 143.16 C 72.28 143.62 71.69 144.10 71.12 144.61 C 69.29 146.02 68.05 147.98 66.96 149.98 C 71.88 153.52 70.13 160.35 68.89 165.35 C 68.67 164.85 68.23 163.86 68.01 163.36 C 65.80 164.49 63.45 165.32 60.94 165.35 C 59.56 160.76 60.38 155.92 59.48 151.27 L 59.41 150.91 C 57.99 150.33 56.57 149.77 55.15 149.20 C 54.09 147.60 52.46 146.58 50.62 146.09 C 49.38 144.65 48.14 143.20 46.98 141.69 L 46.66 140.91 C 45.93 139.23 45.15 137.58 44.45 135.89 C 47.71 138.40 51.13 140.95 55.24 141.85 C 62.53 143.76 70.36 140.63 75.48 135.37 C 75.76 135.07 76.31 134.47 76.59 134.17 C 78.50 133.71 80.47 133.12 81.65 131.41 C 81.25 128.04 78.92 125.29 78.36 121.96 Z" />
</g>
<g id="#ddab59ff">
<path fill="#ddab59" opacity="1.00" d=" M 99.12 128.11 C 101.30 127.98 102.34 130.27 102.94 131.99 C 102.87 134.20 103.41 138.59 99.88 137.53 C 97.37 135.31 94.43 129.42 99.12 128.11 Z" />
</g>
<g id="#efcd72ff">
<path fill="#efcd72" opacity="1.00" d=" M 147.51 129.96 C 149.76 129.32 152.02 128.69 154.28 128.05 C 155.46 132.12 157.60 135.87 158.43 140.06 C 157.50 139.27 155.65 137.68 154.72 136.89 L 154.19 136.44 L 154.20 135.65 C 154.14 135.27 154.03 134.51 153.97 134.14 C 153.58 134.07 152.81 133.94 152.43 133.87 L 151.30 133.86 L 151.13 132.81 C 150.95 131.69 150.27 130.99 149.09 130.72 C 148.70 130.53 147.90 130.15 147.51 129.96 Z" />
</g>
<g id="#c4ab8bff">
<path fill="#c4ab8b" opacity="1.00" d=" M 94.29 130.89 C 94.60 130.84 95.21 130.75 95.51 130.70 C 96.65 133.57 97.36 138.75 101.48 138.37 C 104.51 136.75 103.00 132.54 103.95 129.88 C 105.94 133.31 105.08 137.40 104.94 141.15 C 104.05 143.67 101.51 144.86 98.96 144.53 L 99.84 144.16 C 101.11 143.66 102.31 143.01 103.50 142.34 C 101.45 141.92 99.40 141.55 97.34 141.21 C 96.01 137.86 95.49 134.27 94.29 130.89 Z" />
</g>
<g id="#aa9152f4">
<path fill="#aa9152" opacity="0.96" d=" M 149.09 130.72 C 150.27 130.99 150.95 131.69 151.13 132.81 C 149.51 133.00 148.83 132.31 149.09 130.72 Z" />
</g>
<g id="#e5d8c2ff">
<path fill="#e5d8c2" opacity="1.00" d=" M 43.61 133.69 C 47.60 132.74 51.17 135.27 55.04 135.72 C 61.83 136.94 68.67 135.61 75.48 135.37 C 70.36 140.63 62.53 143.76 55.24 141.85 C 51.13 140.95 47.71 138.40 44.45 135.89 C 44.24 135.34 43.82 134.24 43.61 133.69 Z" />
</g>
<g id="#060505aa">
<path fill="#060505" opacity="0.67" d=" M 45.13 142.00 C 45.31 141.68 45.69 141.04 45.87 140.73 L 46.66 140.91 L 46.98 141.69 C 46.52 141.77 45.59 141.92 45.13 142.00 Z" />
</g>
<g id="#e7cca5ff">
<path fill="#e7cca5" opacity="1.00" d=" M 97.34 141.21 C 99.40 141.55 101.45 141.92 103.50 142.34 C 102.31 143.01 101.11 143.66 99.84 144.16 L 98.52 143.98 L 98.19 143.18 C 97.97 142.69 97.55 141.71 97.34 141.21 Z" />
</g>
<g id="#635e5cff">
<path fill="#635e5c" opacity="1.00" d=" M 42.26 141.47 C 42.46 142.72 42.66 143.97 42.86 145.23 C 42.67 145.49 42.30 146.03 42.12 146.30 C 38.65 151.25 36.81 159.19 41.08 164.16 C 44.70 169.00 51.21 170.38 56.81 168.62 C 56.82 169.03 56.85 169.86 56.86 170.27 C 56.38 170.61 55.42 171.30 54.95 171.64 C 52.54 172.76 49.47 172.85 47.04 171.82 C 45.73 170.96 44.29 170.35 42.79 169.95 C 41.68 169.63 40.73 168.89 40.05 167.97 C 39.71 166.99 39.13 166.21 38.29 165.61 C 37.75 164.97 37.36 164.26 37.10 163.47 C 36.63 159.51 36.75 155.51 37.16 151.56 C 38.05 147.86 39.90 144.43 42.26 141.47 Z" />
</g>
<g id="#0302026a">
<path fill="#030202" opacity="0.42" d=" M 78.46 144.90 C 79.73 146.82 79.35 149.18 78.39 151.13 C 77.69 149.12 77.46 146.87 78.46 144.90 Z" />
</g>
<g id="#21190e7f">
<path fill="#21190e" opacity="0.50" d=" M 50.62 146.09 C 52.46 146.58 54.09 147.60 55.15 149.20 C 52.98 149.55 51.05 148.25 50.62 146.09 Z" />
</g>
<g id="#100e0e9e">
<path fill="#100e0e" opacity="0.62" d=" M 41.08 164.16 C 36.81 159.19 38.65 151.25 42.12 146.30 C 40.17 152.01 38.10 158.40 41.08 164.16 Z" />
</g>
<g id="#edb65bff">
<path fill="#edb65b" opacity="1.00" d=" M 59.48 151.27 C 60.38 155.92 59.56 160.76 60.94 165.35 C 63.45 165.32 65.80 164.49 68.01 163.36 C 68.23 163.86 68.67 164.85 68.89 165.35 C 68.81 165.71 68.66 166.43 68.58 166.79 C 66.36 169.74 62.51 170.45 59.80 172.81 C 59.34 172.54 58.42 171.99 57.97 171.72 C 56.47 169.88 57.77 167.73 58.37 165.84 C 60.47 161.22 58.89 156.13 59.48 151.27 Z" />
</g>
<g id="#141313a7">
<path fill="#141313" opacity="0.65" d=" M 37.10 163.47 C 35.20 159.96 35.46 155.11 37.16 151.56 C 36.75 155.51 36.63 159.51 37.10 163.47 Z" />
</g>
<g id="#121110b7">
<path fill="#121110" opacity="0.72" d=" M 76.88 160.14 C 76.96 159.05 77.48 158.23 78.44 157.68 C 79.03 159.38 78.51 160.20 76.88 160.14 Z" />
</g>
<g id="#534f4fff">
<path fill="#534f4f" opacity="1.00" d=" M 71.57 166.13 C 69.39 164.58 71.71 162.55 73.21 161.66 C 72.94 163.08 72.75 164.53 72.17 165.87 L 71.57 166.13 Z" />
</g>
<g id="#0403044f">
<path fill="#040304" opacity="0.31" d=" M 38.29 165.61 C 39.13 166.21 39.71 166.99 40.05 167.97 C 38.24 168.13 37.65 167.35 38.29 165.61 Z" />
</g>
<g id="#100f0f88">
<path fill="#100f0f" opacity="0.53" d=" M 42.79 169.95 C 44.29 170.35 45.73 170.96 47.04 171.82 C 45.75 173.04 42.42 171.82 42.79 169.95 Z" />
</g>
<g id="#22170fc5">
<path fill="#22170f" opacity="0.77" d=" M 65.79 179.00 C 66.63 176.41 67.66 173.89 68.81 171.42 C 68.58 174.09 68.00 177.25 65.79 179.00 Z" />
</g>
<g id="#8c6e4cff">
<path fill="#8c6e4c" opacity="1.00" d=" M 60.38 177.25 C 61.77 175.50 64.02 178.08 62.16 179.26 C 60.74 180.94 58.71 178.54 60.38 177.25 Z" />
</g>
<g id="#8a6c4aff">
<path fill="#8a6c4a" opacity="1.00" d=" M 55.06 177.70 C 55.90 177.78 57.59 177.96 58.44 178.04 C 57.93 180.53 55.97 181.64 53.53 181.59 C 54.03 180.29 54.54 178.99 55.06 177.70 Z" />
</g>
<g id="#4b3420fc">
<path fill="#4b3420" opacity="1.00" d=" M 58.44 178.04 L 59.06 178.12 C 59.55 179.82 59.82 181.58 59.97 183.34 C 57.50 184.27 55.16 183.55 53.53 181.59 C 55.97 181.64 57.93 180.53 58.44 178.04 Z" />
</g>
</svg>
