<?xml version="1.0" encoding="UTF-8" ?>
<!DOCTYPE svg PUBLIC "-//W3C//DTD SVG 1.1//EN" "http://www.w3.org/Graphics/SVG/1.1/DTD/svg11.dtd">
<svg width="215pt" height="215pt" viewBox="0 0 215 215" version="1.1" xmlns="http://www.w3.org/2000/svg">
<g id="#0b1f2dff">
<path fill="#0b1f2d" opacity="1.00" d=" M 58.00 26.62 C 67.55 20.84 80.41 20.81 90.13 26.12 C 86.79 25.18 83.51 23.95 80.06 23.44 C 76.05 22.90 70.86 22.70 68.88 27.05 C 71.67 27.32 74.48 27.49 77.29 27.63 C 87.49 29.75 96.96 35.25 103.41 43.48 C 105.47 48.41 107.66 53.55 107.12 59.03 C 106.64 55.56 106.07 52.07 104.69 48.83 C 102.03 41.07 95.20 35.64 87.91 32.44 C 83.32 37.49 79.45 43.15 76.27 49.18 C 80.25 51.21 84.04 53.61 88.06 55.57 C 91.47 55.39 95.23 53.78 98.09 56.61 C 97.42 56.79 96.08 57.14 95.41 57.32 C 95.14 58.91 94.88 60.51 94.51 62.09 C 94.19 62.45 93.55 63.18 93.23 63.55 C 93.44 61.66 93.71 59.77 93.70 57.86 C 93.56 56.00 91.03 55.43 89.88 56.70 C 86.92 59.15 85.89 63.17 86.47 66.87 C 85.56 67.42 84.65 67.96 83.76 68.54 C 80.75 71.86 78.62 75.99 74.94 78.68 C 71.20 81.42 66.85 83.98 62.04 83.71 C 57.84 83.95 54.33 81.23 50.97 79.09 C 49.95 78.16 49.22 76.55 47.69 76.42 C 47.81 77.18 48.06 78.69 48.19 79.45 C 47.25 79.51 45.37 79.61 44.43 79.67 C 47.11 83.26 49.51 87.13 52.92 90.11 C 56.34 93.07 58.85 97.29 63.27 98.93 C 65.58 99.97 68.18 99.86 70.58 99.18 L 70.95 98.69 C 76.06 90.35 86.03 88.03 93.78 83.01 L 92.91 84.40 C 87.90 88.08 81.78 89.92 76.87 93.76 C 74.28 95.77 72.80 98.98 69.95 100.66 C 65.39 101.46 60.67 100.00 57.59 96.50 C 57.66 99.37 57.19 102.20 56.83 105.04 C 57.29 109.40 58.36 113.69 59.36 117.96 C 58.32 117.86 56.25 117.67 55.21 117.57 C 56.22 119.14 57.22 120.71 58.14 122.32 C 55.42 123.95 52.81 125.77 49.90 127.05 C 53.12 135.41 57.76 143.62 64.88 149.23 C 71.35 154.37 79.11 158.12 87.37 159.10 C 92.58 159.81 97.98 160.15 103.12 158.79 L 104.21 158.65 C 102.63 160.32 100.18 160.25 98.07 160.48 C 90.89 160.80 83.47 160.15 76.86 157.12 C 73.86 158.73 74.14 162.99 70.92 164.25 C 71.72 163.05 72.49 161.82 73.25 160.60 C 70.12 161.67 66.93 162.65 63.60 162.84 C 67.76 161.32 72.30 160.38 75.64 157.25 C 72.58 155.60 69.55 153.90 66.66 151.96 C 62.71 153.23 58.59 153.91 54.66 155.28 C 49.97 155.63 45.23 155.40 40.71 153.98 C 41.29 154.69 42.46 156.11 43.05 156.82 L 42.97 157.34 C 37.14 153.85 35.62 146.20 35.80 139.88 C 36.36 135.81 36.97 131.26 39.89 128.14 C 38.34 131.72 37.28 135.50 36.91 139.40 C 42.60 140.27 48.43 140.07 54.00 138.57 C 52.23 135.10 50.73 131.51 49.34 127.88 C 48.47 125.01 44.75 124.01 42.12 124.77 C 42.14 124.26 42.18 123.25 42.20 122.74 C 44.16 123.41 46.15 123.97 48.14 124.51 C 50.11 125.32 52.31 125.18 53.72 123.43 C 51.78 123.29 49.84 123.21 47.90 123.18 C 47.67 121.74 47.50 120.29 47.38 118.84 C 48.18 117.48 49.04 116.14 50.11 114.98 C 50.90 115.37 52.48 116.15 53.27 116.54 C 50.96 113.22 54.47 111.28 57.02 110.21 C 56.13 107.25 55.10 103.79 51.96 102.50 C 47.64 101.52 43.13 103.11 39.61 105.61 C 36.68 107.58 36.24 111.40 34.82 114.37 C 34.55 111.01 36.23 108.16 37.59 105.25 C 37.59 100.57 37.26 95.88 37.69 91.20 C 35.46 92.77 33.09 94.54 32.14 97.22 C 31.11 102.58 31.94 108.10 33.27 113.34 C 30.04 108.31 30.91 101.74 31.68 96.11 C 33.31 92.16 34.31 87.24 38.21 84.85 C 36.44 87.36 34.97 90.07 33.49 92.76 C 38.58 90.03 44.45 89.18 50.14 90.09 C 49.66 90.20 48.69 90.41 48.21 90.52 C 44.99 90.56 41.69 90.38 38.64 91.63 C 38.23 95.98 37.69 100.40 38.66 104.72 C 42.23 102.75 46.11 101.16 50.26 101.27 C 52.41 101.99 54.36 103.15 56.29 104.30 C 56.30 101.26 56.95 98.07 55.92 95.13 C 54.19 92.96 52.07 91.15 50.28 89.03 C 47.89 86.22 45.70 83.24 43.48 80.29 C 43.78 77.41 40.36 76.17 39.48 73.65 C 36.66 68.82 37.37 63.16 38.78 58.03 C 38.25 53.45 40.49 49.38 41.35 45.05 C 39.47 38.08 37.61 30.84 38.54 23.57 C 45.18 22.64 51.68 24.92 58.00 26.62 M 58.44 27.33 C 55.72 27.51 53.35 25.52 50.62 25.37 C 46.71 24.90 42.31 23.05 38.63 25.19 C 38.84 31.19 39.62 37.22 41.40 42.97 C 41.80 43.11 42.60 43.39 43.00 43.53 C 42.88 42.25 42.78 40.97 42.69 39.68 C 43.18 39.62 44.17 39.50 44.67 39.43 C 44.30 35.90 43.17 32.34 40.92 29.54 C 40.59 28.54 40.32 27.53 40.29 26.48 C 40.66 26.77 41.41 27.35 41.78 27.64 C 43.25 31.13 45.70 34.34 45.72 38.29 C 49.45 33.81 54.46 30.63 59.97 28.83 L 59.63 28.49 C 62.05 27.96 64.48 27.42 66.96 27.21 C 68.43 25.87 69.85 24.48 71.24 23.05 C 66.86 24.04 62.19 24.66 58.44 27.33 M 58.58 30.01 L 58.52 30.25 C 54.79 31.11 50.58 34.10 51.32 38.45 L 50.58 38.66 C 50.64 39.04 50.75 39.80 50.81 40.18 C 50.34 43.91 50.42 47.68 50.36 51.43 C 50.99 51.13 52.26 50.53 52.89 50.23 C 56.67 48.82 60.66 48.36 64.65 48.14 C 68.31 48.09 71.93 48.85 75.58 48.76 C 78.95 42.82 82.84 37.21 87.19 31.95 C 85.14 30.41 82.60 29.97 80.16 29.42 C 73.10 27.32 65.48 27.23 58.58 30.01 M 39.66 56.82 C 40.88 56.55 42.12 56.56 43.17 57.35 C 43.75 56.94 44.93 56.12 45.51 55.71 C 44.83 56.82 44.14 57.92 43.42 59.02 C 44.65 63.45 45.62 67.94 46.73 72.40 C 49.00 69.87 51.41 67.40 54.52 65.91 L 54.51 65.79 C 56.29 65.32 58.06 64.81 59.84 64.34 C 59.65 59.35 60.04 54.37 60.70 49.42 C 56.11 49.78 51.87 51.61 47.93 53.89 C 48.33 53.42 49.11 52.47 49.51 51.99 C 49.25 46.08 49.64 40.21 51.23 34.49 C 44.16 39.72 40.17 48.15 39.66 56.82 M 61.98 49.14 C 61.72 50.49 61.48 51.85 61.26 53.21 C 59.92 56.61 60.79 60.45 60.62 64.03 C 67.65 64.75 74.76 66.20 80.87 69.88 C 84.81 66.66 84.64 60.68 87.91 56.84 C 82.66 53.17 76.82 49.66 70.29 49.17 C 67.52 49.12 64.75 49.12 61.98 49.14 M 40.88 56.85 C 39.33 59.92 38.46 63.70 40.08 66.92 C 41.02 68.63 43.66 71.16 44.59 67.97 C 43.78 64.16 43.53 59.93 40.88 56.85 M 57.00 65.61 L 57.08 66.17 C 55.85 66.59 54.62 67.01 53.39 67.44 L 53.35 67.70 C 50.38 68.79 48.60 71.53 47.43 74.30 C 48.57 75.40 49.73 76.48 50.91 77.55 L 50.83 77.78 C 53.49 80.07 56.55 81.86 59.98 82.71 C 68.47 83.58 76.10 77.83 80.55 71.06 C 77.16 69.07 73.62 67.30 70.05 65.65 C 65.73 65.14 61.34 65.42 57.00 65.61 M 46.52 78.83 C 46.38 76.36 46.24 73.77 44.70 71.71 C 42.24 73.96 42.86 78.44 46.52 78.83 M 53.39 113.51 C 53.37 113.96 53.34 114.86 53.32 115.30 C 55.11 115.77 56.92 116.21 58.75 116.50 C 58.02 114.89 57.15 113.34 56.20 111.86 C 55.50 112.27 54.09 113.10 53.39 113.51 M 47.93 121.14 C 50.84 122.19 53.92 122.43 56.98 122.10 C 55.63 119.53 53.29 117.78 50.95 116.17 C 49.51 117.54 48.41 119.19 47.93 121.14 M 36.66 140.04 C 36.76 145.17 37.12 151.77 42.64 154.07 C 41.58 149.72 40.42 145.34 40.45 140.82 C 39.19 140.56 37.92 140.30 36.66 140.04 M 41.50 140.74 C 41.09 143.95 41.81 147.12 42.46 150.24 C 43.38 152.11 44.43 154.82 47.01 154.46 C 53.20 154.51 59.48 153.62 65.21 151.21 C 62.35 148.75 59.66 146.09 57.33 143.12 C 56.43 141.74 55.52 140.38 54.58 139.02 C 50.56 141.24 45.90 140.64 41.50 140.74 Z" />
</g>
<g id="#fbe59eff">
<path fill="#fbe59e" opacity="1.00" d=" M 68.88 27.05 C 70.86 22.70 76.05 22.90 80.06 23.44 C 78.52 23.79 77.00 24.20 75.48 24.60 C 76.61 25.28 77.73 25.97 78.86 26.65 C 78.47 26.89 77.68 27.39 77.29 27.63 C 74.48 27.49 71.67 27.32 68.88 27.05 Z" />
<path fill="#fbe59e" opacity="1.00" d=" M 58.44 27.33 C 62.19 24.66 66.86 24.04 71.24 23.05 C 69.85 24.48 68.43 25.87 66.96 27.21 C 64.48 27.42 62.05 27.96 59.63 28.49 C 59.33 28.20 58.74 27.62 58.44 27.33 Z" />
</g>
<g id="#e8c979ff">
<path fill="#e8c979" opacity="1.00" d=" M 75.48 24.60 C 77.00 24.20 78.52 23.79 80.06 23.44 C 83.51 23.95 86.79 25.18 90.13 26.12 C 90.80 26.38 92.13 26.89 92.80 27.15 C 92.65 27.76 92.34 28.97 92.18 29.57 C 93.42 29.74 94.44 29.34 95.26 28.37 C 94.62 27.93 93.96 27.52 93.28 27.15 C 96.35 28.19 99.34 26.78 102.41 26.64 C 106.15 28.77 110.48 28.82 114.65 28.44 C 110.11 30.67 105.78 33.31 101.62 36.18 C 102.80 37.93 103.99 39.66 105.30 41.31 C 104.83 41.85 103.89 42.93 103.41 43.48 C 96.96 35.25 87.49 29.75 77.29 27.63 C 77.68 27.39 78.47 26.89 78.86 26.65 C 77.73 25.97 76.61 25.28 75.48 24.60 Z" />
<path fill="#e8c979" opacity="1.00" d=" M 50.62 25.37 C 53.35 25.52 55.72 27.51 58.44 27.33 C 58.74 27.62 59.33 28.20 59.63 28.49 L 59.97 28.83 C 54.46 30.63 49.45 33.81 45.72 38.29 C 45.70 34.34 43.25 31.13 41.78 27.64 C 44.31 28.25 46.82 28.93 49.30 29.73 C 49.74 28.27 50.18 26.82 50.62 25.37 Z" />
<path fill="#e8c979" opacity="1.00" d=" M 80.16 29.42 C 82.60 29.97 85.14 30.41 87.19 31.95 C 82.84 37.21 78.95 42.82 75.58 48.76 C 71.93 48.85 68.31 48.09 64.65 48.14 C 66.98 47.54 69.57 47.10 71.30 45.29 C 75.66 40.93 78.22 35.18 80.16 29.42 Z" />
<path fill="#e8c979" opacity="1.00" d=" M 61.26 53.21 C 63.76 50.93 66.86 49.35 70.29 49.17 C 76.82 49.66 82.66 53.17 87.91 56.84 C 84.64 60.68 84.81 66.66 80.87 69.88 C 74.76 66.20 67.65 64.75 60.62 64.03 C 60.79 60.45 59.92 56.61 61.26 53.21 Z" />
<path fill="#e8c979" opacity="1.00" d=" M 51.03 59.07 C 53.88 58.18 56.45 56.57 59.28 55.58 C 59.33 57.66 59.37 59.74 59.41 61.81 C 58.67 61.37 57.93 60.93 57.20 60.48 C 56.25 61.67 55.29 62.86 54.43 64.11 C 54.45 64.53 54.49 65.37 54.51 65.79 L 54.52 65.91 C 51.41 67.40 49.00 69.87 46.73 72.40 C 45.62 67.94 44.65 63.45 43.42 59.02 C 45.95 59.11 48.50 59.38 51.03 59.07 Z" />
<path fill="#e8c979" opacity="1.00" d=" M 57.00 65.61 C 61.34 65.42 65.73 65.14 70.05 65.65 C 73.62 67.30 77.16 69.07 80.55 71.06 C 76.10 77.83 68.47 83.58 59.98 82.71 C 57.74 77.48 58.23 71.66 57.08 66.17 L 57.00 65.61 Z" />
<path fill="#e8c979" opacity="1.00" d=" M 93.04 97.21 C 97.63 95.27 103.37 96.82 106.33 100.82 C 103.19 102.73 100.20 104.86 97.08 106.79 C 96.17 106.17 95.26 105.56 94.34 104.95 L 94.61 104.51 C 95.38 103.13 96.41 101.80 96.63 100.19 C 95.93 98.71 94.31 98.07 93.04 97.21 Z" />
<path fill="#e8c979" opacity="1.00" d=" M 179.53 100.47 C 180.60 99.69 181.33 98.07 182.85 98.10 C 185.02 99.95 183.57 103.11 183.58 105.51 C 181.33 106.69 179.18 108.13 177.57 110.13 C 177.51 110.32 177.40 110.70 177.34 110.89 C 178.84 113.00 179.91 115.38 179.57 118.03 C 178.75 116.23 177.90 114.45 177.07 112.66 C 173.05 114.20 169.12 115.96 165.43 118.18 C 163.11 116.73 160.54 115.72 157.95 114.86 C 162.40 112.77 166.75 110.47 171.14 108.25 L 170.35 107.65 C 171.67 106.80 172.99 105.94 174.39 105.23 C 175.93 104.57 177.22 103.49 178.16 102.10 C 178.59 101.54 179.04 100.99 179.53 100.47 Z" />
<path fill="#e8c979" opacity="1.00" d=" M 89.33 109.53 C 91.07 108.47 92.80 107.41 94.53 106.34 C 97.62 108.82 99.98 112.15 99.70 116.31 C 95.85 117.11 92.04 118.36 88.91 120.82 L 88.30 120.86 C 85.70 118.60 82.45 116.65 78.93 118.12 C 79.81 116.50 80.55 114.80 81.01 113.01 L 81.84 113.15 C 84.32 113.32 85.19 109.62 86.79 108.10 C 87.64 108.57 88.48 109.05 89.33 109.53 Z" />
<path fill="#e8c979" opacity="1.00" d=" M 117.90 118.30 C 124.72 116.33 132.06 118.30 137.36 122.90 C 137.41 126.81 137.59 130.78 138.88 134.51 C 134.63 139.00 128.19 140.29 122.34 141.28 L 122.24 142.90 C 126.99 141.98 131.58 140.48 136.00 138.52 C 133.97 146.68 126.29 151.14 119.18 154.36 C 118.87 155.31 118.57 156.27 118.29 157.24 C 116.35 153.01 115.50 148.41 115.34 143.78 C 115.75 143.32 116.56 142.41 116.97 141.95 C 112.41 141.15 107.45 141.28 103.36 138.84 C 101.65 136.44 103.68 133.72 104.46 131.36 C 105.08 131.30 106.30 131.16 106.92 131.10 C 107.31 133.97 107.66 137.98 111.19 138.65 C 118.29 138.58 125.10 132.45 125.39 125.24 C 125.31 121.56 121.35 120.57 118.80 118.94 L 117.90 118.30 Z" />
</g>
<g id="#eddba9ff">
<path fill="#eddba9" opacity="1.00" d=" M 38.63 25.19 C 42.31 23.05 46.71 24.90 50.62 25.37 C 50.18 26.82 49.74 28.27 49.30 29.73 C 46.82 28.93 44.31 28.25 41.78 27.64 C 41.41 27.35 40.66 26.77 40.29 26.48 C 39.88 26.15 39.04 25.51 38.63 25.19 Z" />
</g>
<g id="#b69d68ff">
<path fill="#b69d68" opacity="1.00" d=" M 103.84 25.87 C 108.31 25.35 112.82 25.29 117.31 25.43 C 117.71 25.76 118.50 26.42 118.90 26.75 C 117.44 34.90 114.53 42.68 112.21 50.61 C 112.74 51.03 113.81 51.89 114.35 52.32 C 114.47 52.67 114.73 53.36 114.85 53.70 L 115.00 54.12 L 115.46 54.18 C 117.26 54.11 118.48 55.58 119.58 56.78 C 123.20 61.42 127.01 65.98 129.58 71.33 C 129.35 71.99 128.89 73.32 128.66 73.98 C 126.94 72.88 125.11 71.94 123.09 71.56 C 120.45 70.00 118.08 68.04 115.88 65.93 C 115.25 72.90 111.52 78.93 108.64 85.13 C 107.49 85.05 106.33 84.95 105.18 84.86 C 104.14 84.76 103.09 84.64 102.05 84.52 C 100.93 83.16 99.81 81.81 98.69 80.46 C 101.15 77.67 103.79 74.89 105.24 71.41 C 106.33 68.38 106.79 65.16 107.29 61.99 C 105.96 68.61 102.91 74.68 98.32 79.63 C 98.39 76.72 98.42 73.81 98.21 70.91 C 100.08 66.97 100.46 62.50 99.26 58.30 C 100.23 55.37 101.18 52.42 102.07 49.46 C 102.94 49.25 103.81 49.04 104.69 48.83 C 106.07 52.07 106.64 55.56 107.12 59.03 C 107.66 53.55 105.47 48.41 103.41 43.48 C 103.89 42.93 104.83 41.85 105.30 41.31 C 107.17 43.57 108.93 45.93 110.59 48.35 C 112.14 45.17 113.48 41.84 113.72 38.28 C 113.80 37.93 113.95 37.23 114.03 36.88 C 114.03 37.16 114.03 37.73 114.03 38.02 C 115.11 34.72 115.94 31.36 116.91 28.03 C 116.51 28.10 115.71 28.25 115.31 28.32 C 115.48 27.73 115.84 26.55 116.01 25.96 C 112.24 25.95 108.50 26.47 104.73 26.51 L 103.84 25.87 Z" />
<path fill="#b69d68" opacity="1.00" d=" M 109.88 84.30 C 112.73 79.11 114.86 73.60 116.86 68.04 C 121.28 70.74 124.50 74.89 127.09 79.29 C 126.55 80.41 126.02 81.53 125.48 82.65 C 124.35 81.77 123.22 80.90 122.08 80.04 C 123.29 84.31 125.82 88.08 126.64 92.48 L 126.78 92.98 C 125.51 94.28 124.25 95.59 122.99 96.90 C 121.05 90.80 115.70 86.50 109.88 84.30 Z" />
<path fill="#b69d68" opacity="1.00" d=" M 37.38 118.75 C 40.62 117.29 44.08 118.17 47.38 118.84 C 47.50 120.29 47.67 121.74 47.90 123.18 L 48.14 124.51 C 46.15 123.97 44.16 123.41 42.20 122.74 C 42.01 122.63 41.64 122.42 41.45 122.31 C 40.02 121.21 38.65 120.03 37.38 118.75 Z" />
</g>
<g id="#02020198">
<path fill="#020201" opacity="0.60" d=" M 117.31 25.43 C 118.88 24.98 119.99 26.58 119.47 27.94 C 118.27 35.18 115.71 42.12 113.55 49.11 C 113.75 49.92 114.15 51.52 114.35 52.32 C 113.81 51.89 112.74 51.03 112.21 50.61 C 114.53 42.68 117.44 34.90 118.90 26.75 C 118.50 26.42 117.71 25.76 117.31 25.43 Z" />
<path fill="#020201" opacity="0.60" d=" M 179.53 100.47 C 180.05 99.07 180.56 97.41 182.11 96.80 C 187.48 97.15 186.67 104.33 184.47 107.56 C 183.49 110.63 183.49 114.06 181.94 116.91 C 181.70 117.38 181.22 118.32 180.98 118.79 C 180.90 119.39 180.74 120.59 180.66 121.19 C 180.40 120.45 179.89 118.95 179.63 118.20 L 179.57 118.03 C 179.91 115.38 178.84 113.00 177.34 110.89 C 177.40 110.70 177.51 110.32 177.57 110.13 C 178.91 112.09 180.13 114.11 181.21 116.23 C 182.37 112.75 183.24 109.17 183.58 105.51 C 183.57 103.11 185.02 99.95 182.85 98.10 C 181.33 98.07 180.60 99.69 179.53 100.47 Z" />
<path fill="#020201" opacity="0.60" d=" M 45.01 158.21 L 45.43 158.40 C 47.04 159.18 48.58 160.07 50.12 160.98 C 48.63 160.48 47.15 159.97 45.65 159.50 C 43.94 160.07 42.26 160.76 40.58 161.42 C 41.62 162.32 42.64 163.24 43.72 164.10 C 45.43 164.72 47.64 164.53 48.89 166.05 C 50.30 167.55 50.40 169.71 50.82 171.62 C 55.70 170.55 60.51 169.19 65.30 167.78 C 64.42 168.82 63.21 169.45 61.91 169.81 C 58.03 170.96 54.10 172.17 50.02 172.23 C 49.95 171.04 49.74 169.90 49.38 168.79 C 48.80 167.76 48.18 166.76 47.52 165.78 C 46.13 165.28 44.69 164.94 43.24 164.68 C 41.72 163.94 40.65 162.65 39.68 161.30 C 41.07 159.96 42.74 159.01 44.55 158.34 L 45.01 158.21 Z" />
</g>
<g id="#907d53fe">
<path fill="#907d53" opacity="1.00" d=" M 38.63 25.19 C 39.04 25.51 39.88 26.15 40.29 26.48 C 40.32 27.53 40.59 28.54 40.92 29.54 C 42.11 32.79 42.52 36.24 42.69 39.68 C 42.78 40.97 42.88 42.25 43.00 43.53 C 42.60 43.39 41.80 43.11 41.40 42.97 C 39.62 37.22 38.84 31.19 38.63 25.19 Z" />
</g>
<g id="#f2e0abff">
<path fill="#f2e0ab" opacity="1.00" d=" M 102.08 26.50 C 102.74 26.50 104.07 26.51 104.73 26.51 C 108.50 26.47 112.24 25.95 116.01 25.96 C 115.84 26.55 115.48 27.73 115.31 28.32 L 114.65 28.44 C 110.48 28.82 106.15 28.77 102.41 26.64 L 102.08 26.50 Z" />
</g>
<g id="#0b1e2dff">
<path fill="#0b1e2d" opacity="1.00" d=" M 92.80 27.15 L 93.28 27.15 C 93.96 27.52 94.62 27.93 95.26 28.37 C 94.44 29.34 93.42 29.74 92.18 29.57 C 92.34 28.97 92.65 27.76 92.80 27.15 Z" />
<path fill="#0b1e2d" opacity="1.00" d=" M 114.65 28.44 L 115.31 28.32 C 115.71 28.25 116.51 28.10 116.91 28.03 C 115.94 31.36 115.11 34.72 114.03 38.02 C 114.03 37.73 114.03 37.16 114.03 36.88 C 114.47 34.47 114.99 32.07 115.47 29.66 C 110.92 31.25 106.87 33.94 103.07 36.86 C 104.22 38.28 105.37 39.71 106.45 41.19 C 107.79 43.07 109.15 44.94 110.62 46.71 C 111.27 44.90 111.92 43.08 112.54 41.25 C 112.84 40.51 113.43 39.02 113.72 38.28 C 113.48 41.84 112.14 45.17 110.59 48.35 C 108.93 45.93 107.17 43.57 105.30 41.31 C 103.99 39.66 102.80 37.93 101.62 36.18 C 105.78 33.31 110.11 30.67 114.65 28.44 Z" />
<path fill="#0b1e2d" opacity="1.00" d=" M 95.41 57.32 C 96.08 57.14 97.42 56.79 98.09 56.61 C 98.38 57.03 98.97 57.88 99.26 58.30 C 100.46 62.50 100.08 66.97 98.21 70.91 C 98.42 73.81 98.39 76.72 98.32 79.63 C 102.91 74.68 105.96 68.61 107.29 61.99 C 106.79 65.16 106.33 68.38 105.24 71.41 C 103.79 74.89 101.15 77.67 98.69 80.46 C 99.81 81.81 100.93 83.16 102.05 84.52 C 103.09 84.64 104.14 84.76 105.18 84.86 C 101.52 85.28 98.62 87.75 96.41 90.52 C 95.66 92.11 95.01 93.74 94.35 95.36 C 99.71 95.64 105.60 96.98 108.90 101.62 L 109.15 103.26 C 108.20 102.57 107.24 101.89 106.27 101.23 C 103.48 103.32 100.63 105.32 97.73 107.24 C 98.92 109.76 100.04 112.33 100.68 115.05 C 100.46 118.87 98.53 122.24 96.91 125.60 C 99.99 124.61 103.08 123.64 106.16 122.67 L 105.28 124.11 C 99.64 126.48 93.36 127.22 87.30 126.45 C 86.29 126.85 85.26 127.19 84.21 127.46 C 81.11 126.05 78.14 124.34 74.96 123.09 C 75.35 122.55 76.14 121.48 76.53 120.94 C 77.33 120.07 78.15 119.22 78.99 118.37 C 77.08 117.19 75.03 116.28 72.95 115.46 C 75.50 112.81 79.19 111.05 80.45 107.37 C 82.93 101.95 87.79 97.93 93.40 96.06 C 93.73 91.06 97.15 87.32 101.28 84.88 C 100.27 83.54 99.25 82.20 98.23 80.88 C 96.47 82.08 94.70 83.25 92.91 84.40 L 93.78 83.01 C 95.02 81.73 96.29 80.47 97.57 79.22 C 97.75 76.85 97.92 74.48 98.03 72.11 C 95.68 74.06 93.35 76.06 90.85 77.83 C 89.00 78.36 87.14 79.12 85.18 79.05 C 82.67 76.12 83.73 72.03 83.76 68.54 C 84.65 67.96 85.56 67.42 86.47 66.87 C 89.51 67.74 91.81 66.09 93.23 63.55 C 93.55 63.18 94.19 62.45 94.51 62.09 C 94.88 60.51 95.14 58.91 95.41 57.32 M 86.61 72.58 C 84.81 73.62 84.10 76.88 86.41 77.72 C 89.80 77.97 93.63 75.10 92.61 71.42 C 90.57 71.40 88.19 70.93 86.61 72.58 M 93.04 97.21 C 89.77 98.20 86.93 100.25 84.92 103.00 C 88.18 103.27 91.54 103.20 94.61 104.51 L 94.34 104.95 C 95.26 105.56 96.17 106.17 97.08 106.79 C 100.20 104.86 103.19 102.73 106.33 100.82 C 103.37 96.82 97.63 95.27 93.04 97.21 M 80.60 109.24 C 81.03 110.54 81.41 111.85 81.84 113.15 L 81.01 113.01 C 80.55 114.80 79.81 116.50 78.93 118.12 C 82.45 116.65 85.70 118.60 88.30 120.86 L 88.91 120.82 C 87.38 121.94 87.72 123.92 87.56 125.58 C 90.62 125.80 93.72 125.68 96.66 124.75 C 98.09 122.10 99.59 119.39 99.70 116.31 C 99.98 112.15 97.62 108.82 94.53 106.34 C 91.78 104.09 88.18 103.87 84.82 103.35 C 83.00 104.99 81.75 107.10 80.60 109.24 M 74.60 115.82 C 76.13 116.03 77.68 116.20 79.22 116.34 C 79.86 114.58 80.46 112.79 80.99 110.99 C 78.19 111.45 76.07 113.53 74.60 115.82 M 76.10 123.27 C 79.91 123.74 83.70 123.02 87.38 122.11 C 86.48 120.27 84.89 118.95 82.92 118.38 C 79.80 118.20 78.04 121.34 76.10 123.27 M 82.12 125.00 C 82.73 126.99 86.55 126.27 86.57 124.28 C 85.13 124.24 83.39 124.27 82.12 125.00 Z" />
<path fill="#0b1e2d" opacity="1.00" d=" M 115.88 65.93 C 118.08 68.04 120.45 70.00 123.09 71.56 C 125.90 75.73 128.46 80.11 129.97 84.93 L 130.49 84.31 L 131.14 83.57 C 131.16 84.52 131.21 86.42 131.23 87.38 C 129.56 89.88 127.85 92.35 126.26 94.90 C 127.17 97.70 128.04 100.51 128.69 103.38 C 128.51 103.87 128.15 104.84 127.97 105.33 C 127.56 102.05 126.81 98.83 125.85 95.67 C 124.38 96.67 122.69 97.91 123.25 99.96 C 123.77 106.28 120.88 112.33 116.66 116.88 C 116.38 117.12 115.82 117.60 115.54 117.83 L 113.74 118.32 C 118.98 113.77 122.72 106.96 122.42 99.90 C 121.59 94.90 118.48 90.38 114.23 87.62 C 112.45 86.62 110.54 85.87 108.64 85.13 C 111.52 78.93 115.25 72.90 115.88 65.93 M 109.88 84.30 C 115.70 86.50 121.05 90.80 122.99 96.90 C 124.25 95.59 125.51 94.28 126.78 92.98 L 126.64 92.48 C 128.16 90.63 129.92 88.62 129.60 86.03 C 129.11 83.67 128.02 81.50 127.09 79.29 C 124.50 74.89 121.28 70.74 116.86 68.04 C 114.86 73.60 112.73 79.11 109.88 84.30 Z" />
<path fill="#0b1e2d" opacity="1.00" d=" M 153.95 115.08 C 159.54 113.63 164.53 110.67 169.57 107.98 L 171.14 108.25 C 166.75 110.47 162.40 112.77 157.95 114.86 C 160.54 115.72 163.11 116.73 165.43 118.18 C 168.41 120.73 169.80 124.44 171.06 128.03 C 174.09 124.91 176.78 121.48 179.63 118.20 C 179.89 118.95 180.40 120.45 180.66 121.19 C 180.16 121.68 179.18 122.66 178.69 123.14 C 178.95 122.17 179.47 120.21 179.74 119.23 C 176.82 122.59 174.12 126.14 171.18 129.47 C 171.39 131.33 171.61 133.18 171.89 135.03 C 171.19 135.83 170.46 136.62 169.74 137.41 L 169.81 136.03 C 170.28 131.37 169.72 126.67 168.20 122.24 C 163.28 123.56 158.49 125.35 153.46 126.26 C 153.35 126.48 153.12 126.92 153.01 127.14 L 152.37 128.45 C 149.72 123.82 146.47 118.99 141.30 116.96 L 140.39 116.57 C 144.93 116.37 149.58 116.52 153.95 115.08 M 144.08 117.14 C 147.18 119.69 150.01 122.57 152.25 125.92 C 157.33 124.67 162.67 123.83 167.19 121.03 C 165.62 119.52 163.90 118.18 162.03 117.06 C 159.14 116.08 156.01 115.03 153.00 116.26 C 150.03 116.60 147.08 117.11 144.08 117.14 Z" />
<path fill="#0b1e2d" opacity="1.00" d=" M 172.62 133.21 C 173.79 130.00 175.62 127.04 177.99 124.56 C 176.87 127.73 175.43 131.21 172.62 133.21 Z" />
<path fill="#0b1e2d" opacity="1.00" d=" M 29.30 173.08 C 31.52 168.22 35.33 164.31 39.68 161.30 C 40.65 162.65 41.72 163.94 43.24 164.68 C 39.70 167.64 35.75 170.26 33.19 174.22 C 33.04 174.42 32.73 174.82 32.57 175.02 C 37.86 174.76 43.09 173.83 48.24 172.63 C 47.41 173.51 46.40 174.03 45.20 174.20 C 41.11 174.95 36.96 175.49 32.79 175.52 C 31.68 174.66 29.96 174.42 29.30 173.08 M 30.36 173.56 L 31.87 173.29 C 35.03 170.10 38.26 166.91 42.16 164.59 C 41.46 164.28 40.05 163.66 39.35 163.35 C 34.95 165.05 32.16 169.40 30.36 173.56 Z" />
<path fill="#0b1e2d" opacity="1.00" d=" M 115.96 168.94 C 118.39 169.60 120.75 170.47 123.11 171.34 C 122.48 171.51 121.23 171.86 120.60 172.03 C 120.84 174.71 121.40 177.35 122.40 179.85 C 123.11 178.81 123.81 177.77 124.48 176.70 C 127.01 174.73 130.33 174.85 133.01 176.46 C 134.85 175.44 136.75 174.52 138.77 173.88 C 140.76 175.67 142.53 177.69 144.13 179.84 C 144.14 176.02 143.58 172.21 141.98 168.73 C 145.14 172.41 146.24 179.02 142.31 182.58 C 142.74 180.15 141.74 178.06 139.96 176.46 C 138.46 175.99 136.72 174.95 135.22 176.03 C 133.76 176.70 133.86 178.65 133.29 179.95 C 133.52 180.24 133.98 180.84 134.21 181.13 C 134.79 184.80 133.69 189.34 136.80 192.09 L 138.21 190.81 C 137.74 193.16 135.85 193.31 134.62 191.41 C 132.99 191.82 131.89 191.33 131.33 189.95 L 133.44 190.83 C 133.56 187.49 133.42 184.15 133.12 180.82 C 132.62 176.69 127.72 174.67 124.56 177.46 C 123.40 180.66 125.82 183.41 127.18 186.09 C 123.74 181.99 118.89 177.65 119.97 171.70 C 118.73 170.65 117.25 169.92 115.96 168.94 Z" />
</g>
<g id="#ebd9a5ff">
<path fill="#ebd9a5" opacity="1.00" d=" M 58.58 30.01 C 65.48 27.23 73.10 27.32 80.16 29.42 C 78.22 35.18 75.66 40.93 71.30 45.29 C 69.57 47.10 66.98 47.54 64.65 48.14 C 60.66 48.36 56.67 48.82 52.89 50.23 C 52.48 46.83 51.98 43.42 50.81 40.18 C 50.75 39.80 50.64 39.04 50.58 38.66 L 51.32 38.45 C 54.48 37.45 56.14 34.09 58.19 31.70 C 58.27 31.34 58.44 30.61 58.52 30.25 L 58.58 30.01 Z" />
<path fill="#ebd9a5" opacity="1.00" d=" M 96.41 90.52 C 98.62 87.75 101.52 85.28 105.18 84.86 C 106.33 84.95 107.49 85.05 108.64 85.13 C 108.44 87.01 109.70 89.54 107.96 90.99 C 105.44 93.57 101.78 94.30 98.30 93.94 C 97.67 92.80 97.04 91.66 96.41 90.52 Z" />
</g>
<g id="#ede8d1ff">
<path fill="#ede8d1" opacity="1.00" d=" M 40.92 29.54 C 43.17 32.34 44.30 35.90 44.67 39.43 C 44.17 39.50 43.18 39.62 42.69 39.68 C 42.52 36.24 42.11 32.79 40.92 29.54 Z" />
<path fill="#ede8d1" opacity="1.00" d=" M 59.36 117.96 C 59.82 117.43 60.28 116.90 60.74 116.37 C 65.87 118.33 71.10 120.06 76.53 120.94 C 76.14 121.48 75.35 122.55 74.96 123.09 C 78.14 124.34 81.11 126.05 84.21 127.46 C 85.26 127.19 86.29 126.85 87.30 126.45 C 93.36 127.22 99.64 126.48 105.28 124.11 C 107.03 123.41 108.77 122.69 110.52 121.97 C 105.25 126.84 101.22 133.16 99.90 140.27 C 99.48 139.24 99.06 138.21 98.61 137.19 C 91.76 141.85 83.96 145.80 75.58 146.46 C 71.22 146.90 67.01 145.43 62.79 144.60 C 63.90 146.14 65.01 147.69 66.09 149.27 L 64.88 149.23 C 57.76 143.62 53.12 135.41 49.90 127.05 C 52.81 125.77 55.42 123.95 58.14 122.32 C 57.22 120.71 56.22 119.14 55.21 117.57 C 56.25 117.67 58.32 117.86 59.36 117.96 Z" />
</g>
<g id="#beb8a6ff">
<path fill="#beb8a6" opacity="1.00" d=" M 103.07 36.86 C 106.87 33.94 110.92 31.25 115.47 29.66 C 114.99 32.07 114.47 34.47 114.03 36.88 C 113.95 37.23 113.80 37.93 113.72 38.28 C 113.43 39.02 112.84 40.51 112.54 41.25 C 112.55 40.59 112.56 39.27 112.56 38.61 C 110.52 39.47 108.49 40.33 106.45 41.19 C 105.37 39.71 104.22 38.28 103.07 36.86 Z" />
</g>
<g id="#f6edc7ff">
<path fill="#f6edc7" opacity="1.00" d=" M 51.32 38.45 C 50.58 34.10 54.79 31.11 58.52 30.25 C 58.44 30.61 58.27 31.34 58.19 31.70 C 56.14 34.09 54.48 37.45 51.32 38.45 Z" />
</g>
<g id="#e8ca79ff">
<path fill="#e8ca79" opacity="1.00" d=" M 76.27 49.18 C 79.45 43.15 83.32 37.49 87.91 32.44 C 95.20 35.64 102.03 41.07 104.69 48.83 C 103.81 49.04 102.94 49.25 102.07 49.46 C 101.18 52.42 100.23 55.37 99.26 58.30 C 98.97 57.88 98.38 57.03 98.09 56.61 C 95.23 53.78 91.47 55.39 88.06 55.57 C 84.04 53.61 80.25 51.21 76.27 49.18 Z" />
</g>
<g id="#ecd9a5ff">
<path fill="#ecd9a5" opacity="1.00" d=" M 39.66 56.82 C 40.17 48.15 44.16 39.72 51.23 34.49 C 49.64 40.21 49.25 46.08 49.51 51.99 C 49.11 52.47 48.33 53.42 47.93 53.89 C 51.87 51.61 56.11 49.78 60.70 49.42 C 60.04 54.37 59.65 59.35 59.84 64.34 C 58.06 64.81 56.29 65.32 54.51 65.79 C 54.49 65.37 54.45 64.53 54.43 64.11 C 55.29 62.86 56.25 61.67 57.20 60.48 C 57.93 60.93 58.67 61.37 59.41 61.81 C 59.37 59.74 59.33 57.66 59.28 55.58 C 56.45 56.57 53.88 58.18 51.03 59.07 C 48.50 59.38 45.95 59.11 43.42 59.02 C 44.14 57.92 44.83 56.82 45.51 55.71 C 44.93 56.12 43.75 56.94 43.17 57.35 C 42.12 56.56 40.88 56.55 39.66 56.82 Z" />
</g>
<g id="#eae5d1ff">
<path fill="#eae5d1" opacity="1.00" d=" M 106.45 41.19 C 108.49 40.33 110.52 39.47 112.56 38.61 C 112.56 39.27 112.55 40.59 112.54 41.25 C 111.92 43.08 111.27 44.90 110.62 46.71 C 109.15 44.94 107.79 43.07 106.45 41.19 Z" />
</g>
<g id="#fdf2b7ff">
<path fill="#fdf2b7" opacity="1.00" d=" M 50.81 40.18 C 51.98 43.42 52.48 46.83 52.89 50.23 C 52.26 50.53 50.99 51.13 50.36 51.43 C 50.42 47.68 50.34 43.91 50.81 40.18 Z" />
</g>
<g id="#eee0bcff">
<path fill="#eee0bc" opacity="1.00" d=" M 61.98 49.14 C 64.75 49.12 67.52 49.12 70.29 49.17 C 66.86 49.35 63.76 50.93 61.26 53.21 C 61.48 51.85 61.72 50.49 61.98 49.14 Z" />
<path fill="#eee0bc" opacity="1.00" d=" M 53.39 67.44 C 54.62 67.01 55.85 66.59 57.08 66.17 C 58.23 71.66 57.74 77.48 59.98 82.71 C 56.55 81.86 53.49 80.07 50.83 77.78 L 50.91 77.55 C 52.09 74.37 52.93 71.07 53.35 67.70 L 53.39 67.44 Z" />
</g>
<g id="#000000c6">
<path fill="#000000" opacity="0.78" d=" M 114.85 53.70 C 115.00 53.82 115.30 54.06 115.46 54.18 L 115.00 54.12 L 114.85 53.70 Z" />
</g>
<g id="#ffffffff">
<path fill="#ffffff" opacity="1.00" d=" M 89.88 56.70 C 91.03 55.43 93.56 56.00 93.70 57.86 C 93.71 59.77 93.44 61.66 93.23 63.55 C 91.81 66.09 89.51 67.74 86.47 66.87 C 85.89 63.17 86.92 59.15 89.88 56.70 Z" />
<path fill="#ffffff" opacity="1.00" d=" M 40.88 56.85 C 43.53 59.93 43.78 64.16 44.59 67.97 C 43.66 71.16 41.02 68.63 40.08 66.92 C 38.46 63.70 39.33 59.92 40.88 56.85 Z" />
<path fill="#ffffff" opacity="1.00" d=" M 30.36 173.56 C 32.16 169.40 34.95 165.05 39.35 163.35 C 40.05 163.66 41.46 164.28 42.16 164.59 C 38.26 166.91 35.03 170.10 31.87 173.29 L 30.36 173.56 Z" />
<path fill="#ffffff" opacity="1.00" d=" M 134.21 181.13 C 137.36 183.88 136.80 188.35 136.80 192.09 C 133.69 189.34 134.79 184.80 134.21 181.13 Z" />
</g>
<g id="#241f14b3">
<path fill="#241f14" opacity="0.70" d=" M 119.58 56.78 C 121.59 57.51 122.75 59.38 124.05 60.95 C 128.85 67.09 132.45 74.14 134.67 81.61 C 134.14 81.32 133.08 80.74 132.55 80.45 L 132.26 79.94 C 132.21 76.85 131.12 73.96 129.58 71.33 C 127.01 65.98 123.20 61.42 119.58 56.78 Z" />
</g>
<g id="#f0dea5ff">
<path fill="#f0dea5" opacity="1.00" d=" M 47.43 74.30 C 48.60 71.53 50.38 68.79 53.35 67.70 C 52.93 71.07 52.09 74.37 50.91 77.55 C 49.73 76.48 48.57 75.40 47.43 74.30 Z" />
</g>
<g id="#eae5d0ff">
<path fill="#eae5d0" opacity="1.00" d=" M 74.94 78.68 C 78.62 75.99 80.75 71.86 83.76 68.54 C 83.73 72.03 82.67 76.12 85.18 79.05 C 87.14 79.12 89.00 78.36 90.85 77.83 L 92.40 78.02 C 87.46 83.80 80.44 87.10 74.48 91.63 C 72.32 93.31 70.27 95.75 70.95 98.69 L 70.58 99.18 C 68.18 99.86 65.58 99.97 63.27 98.93 C 58.85 97.29 56.34 93.07 52.92 90.11 C 49.51 87.13 47.11 83.26 44.43 79.67 C 45.37 79.61 47.25 79.51 48.19 79.45 C 48.88 79.36 50.28 79.18 50.97 79.09 C 54.33 81.23 57.84 83.95 62.04 83.71 C 66.85 83.98 71.20 81.42 74.94 78.68 Z" />
</g>
<g id="#135078ff">
<path fill="#135078" opacity="1.00" d=" M 86.61 72.58 C 88.19 70.93 90.57 71.40 92.61 71.42 C 93.63 75.10 89.80 77.97 86.41 77.72 C 84.10 76.88 84.81 73.62 86.61 72.58 Z" />
</g>
<g id="#ccb171ff">
<path fill="#ccb171" opacity="1.00" d=" M 123.09 71.56 C 125.11 71.94 126.94 72.88 128.66 73.98 C 128.89 73.32 129.35 71.99 129.58 71.33 C 131.12 73.96 132.21 76.85 132.26 79.94 C 131.74 81.41 131.54 83.09 130.49 84.31 L 129.97 84.93 C 128.46 80.11 125.90 75.73 123.09 71.56 Z" />
</g>
<g id="#0e486fff">
<path fill="#0e486f" opacity="1.00" d=" M 46.52 78.83 C 42.86 78.44 42.24 73.96 44.70 71.71 C 46.24 73.77 46.38 76.36 46.52 78.83 Z" />
</g>
<g id="#d1cab6ff">
<path fill="#d1cab6" opacity="1.00" d=" M 90.85 77.83 C 93.35 76.06 95.68 74.06 98.03 72.11 C 97.92 74.48 97.75 76.85 97.57 79.22 C 96.29 80.47 95.02 81.73 93.78 83.01 C 86.03 88.03 76.06 90.35 70.95 98.69 C 70.27 95.75 72.32 93.31 74.48 91.63 C 80.44 87.10 87.46 83.80 92.40 78.02 L 90.85 77.83 Z" />
</g>
<g id="#fefde5ff">
<path fill="#fefde5" opacity="1.00" d=" M 47.69 76.42 C 49.22 76.55 49.95 78.16 50.97 79.09 C 50.28 79.18 48.88 79.36 48.19 79.45 C 48.06 78.69 47.81 77.18 47.69 76.42 Z" />
</g>
<g id="#cfb471ff">
<path fill="#cfb471" opacity="1.00" d=" M 126.64 92.48 C 125.82 88.08 123.29 84.31 122.08 80.04 C 123.22 80.90 124.35 81.77 125.48 82.65 C 126.02 81.53 126.55 80.41 127.09 79.29 C 128.02 81.50 129.11 83.67 129.60 86.03 C 129.92 88.62 128.16 90.63 126.64 92.48 Z" />
</g>
<g id="#efd795ff">
<path fill="#efd795" opacity="1.00" d=" M 38.21 84.85 C 39.77 83.11 41.64 81.70 43.48 80.29 C 45.70 83.24 47.89 86.22 50.28 89.03 L 50.14 90.09 C 44.45 89.18 38.58 90.03 33.49 92.76 C 34.97 90.07 36.44 87.36 38.21 84.85 Z" />
</g>
<g id="#bfb8a6ff">
<path fill="#bfb8a6" opacity="1.00" d=" M 92.91 84.40 C 94.70 83.25 96.47 82.08 98.23 80.88 C 99.25 82.20 100.27 83.54 101.28 84.88 C 97.15 87.32 93.73 91.06 93.40 96.06 C 87.79 97.93 82.93 101.95 80.45 107.37 C 79.19 111.05 75.50 112.81 72.95 115.46 C 75.03 116.28 77.08 117.19 78.99 118.37 C 78.15 119.22 77.33 120.07 76.53 120.94 C 71.10 120.06 65.87 118.33 60.74 116.37 C 60.28 116.90 59.82 117.43 59.36 117.96 C 58.36 113.69 57.29 109.40 56.83 105.04 C 57.19 102.20 57.66 99.37 57.59 96.50 C 60.67 100.00 65.39 101.46 69.95 100.66 C 72.80 98.98 74.28 95.77 76.87 93.76 C 81.78 89.92 87.90 88.08 92.91 84.40 Z" />
</g>
<g id="#caaf70ff">
<path fill="#caaf70" opacity="1.00" d=" M 131.23 87.38 C 132.02 85.73 131.81 82.83 133.92 82.30 C 135.01 89.77 138.06 97.28 136.40 104.90 C 135.17 107.89 132.51 109.93 130.34 112.21 C 130.03 109.23 129.52 106.27 128.69 103.38 C 128.04 100.51 127.17 97.70 126.26 94.90 C 127.85 92.35 129.56 89.88 131.23 87.38 Z" />
<path fill="#caaf70" opacity="1.00" d=" M 171.18 129.47 C 174.12 126.14 176.82 122.59 179.74 119.23 C 179.47 120.21 178.95 122.17 178.69 123.14 C 178.62 123.38 178.48 123.85 178.42 124.09 L 177.99 124.56 C 175.62 127.04 173.79 130.00 172.62 133.21 C 172.44 133.66 172.07 134.58 171.89 135.03 C 171.61 133.18 171.39 131.33 171.18 129.47 Z" />
<path fill="#caaf70" opacity="1.00" d=" M 40.71 153.98 C 45.23 155.40 49.97 155.63 54.66 155.28 C 51.83 156.96 48.45 157.16 45.43 158.40 L 45.01 158.21 C 44.67 157.99 44.00 157.56 43.66 157.35 L 43.05 156.82 C 42.46 156.11 41.29 154.69 40.71 153.98 Z" />
<path fill="#caaf70" opacity="1.00" d=" M 125.23 174.79 C 129.43 171.26 134.95 173.24 139.81 173.54 C 139.55 173.63 139.03 173.79 138.77 173.88 C 136.75 174.52 134.85 175.44 133.01 176.46 C 130.33 174.85 127.01 174.73 124.48 176.70 C 124.67 176.22 125.04 175.27 125.23 174.79 Z" />
</g>
<g id="#52504bff">
<path fill="#52504b" opacity="1.00" d=" M 133.92 82.30 C 134.24 82.41 134.88 82.64 135.21 82.75 C 134.95 87.66 137.54 92.17 137.53 97.07 C 137.63 103.14 137.75 109.28 136.61 115.27 C 137.87 115.69 139.15 116.09 140.39 116.57 L 141.30 116.96 C 139.82 116.87 138.33 116.80 136.84 116.75 C 136.51 117.71 136.17 118.69 135.84 119.66 C 143.39 125.18 148.15 134.23 148.13 143.63 C 150.33 143.07 152.53 142.46 154.69 141.76 C 154.63 137.22 153.73 132.76 152.37 128.45 L 153.01 127.14 C 156.15 132.65 156.79 139.21 155.52 145.36 C 155.16 147.19 153.86 148.59 152.76 150.01 C 153.19 147.89 153.70 145.78 154.23 143.69 C 152.19 144.19 150.14 144.69 148.10 145.18 C 147.68 147.88 147.25 150.57 146.85 153.27 C 147.23 153.31 148.00 153.39 148.39 153.43 L 149.45 153.53 C 148.07 154.09 146.67 154.59 145.26 155.06 C 145.23 154.25 145.16 152.63 145.13 151.82 C 142.59 154.41 140.14 157.31 136.70 158.72 C 132.01 160.64 126.89 161.38 121.84 161.21 C 116.34 160.56 110.59 159.91 105.87 156.74 C 109.78 157.56 113.66 158.52 117.57 159.36 C 116.96 157.71 116.32 156.08 115.78 154.42 C 114.77 150.62 114.39 146.70 113.95 142.81 C 109.88 142.18 105.71 141.45 102.18 139.16 C 100.62 144.59 101.44 150.33 104.02 155.31 L 104.22 155.99 C 103.97 156.34 103.47 157.05 103.23 157.40 C 100.40 152.14 99.60 146.17 99.90 140.27 C 101.22 133.16 105.25 126.84 110.52 121.97 C 108.77 122.69 107.03 123.41 105.28 124.11 L 106.16 122.67 C 110.51 119.75 110.77 114.34 111.63 109.68 C 112.80 113.07 111.74 116.56 110.57 119.79 C 111.62 119.29 112.68 118.80 113.74 118.32 L 115.54 117.83 C 115.82 117.60 116.38 117.12 116.66 116.88 L 116.57 117.00 C 120.88 116.75 125.36 116.20 129.09 113.86 C 128.61 111.03 128.17 108.20 127.97 105.33 C 128.15 104.84 128.51 103.87 128.69 103.38 C 129.52 106.27 130.03 109.23 130.34 112.21 C 132.51 109.93 135.17 107.89 136.40 104.90 C 138.06 97.28 135.01 89.77 133.92 82.30 M 127.38 116.53 C 129.88 117.25 132.33 118.13 134.75 119.07 C 135.85 115.49 136.29 111.77 136.71 108.06 C 133.63 110.92 130.59 113.81 127.38 116.53 M 117.90 118.30 L 118.80 118.94 C 112.19 120.08 107.90 126.10 104.46 131.36 C 103.68 133.72 101.65 136.44 103.36 138.84 C 107.45 141.28 112.41 141.15 116.97 141.95 C 116.56 142.41 115.75 143.32 115.34 143.78 C 115.50 148.41 116.35 153.01 118.29 157.24 C 117.92 158.64 119.91 159.51 121.04 159.68 C 127.26 160.40 133.50 158.69 138.99 155.85 C 139.64 151.62 139.88 147.26 138.84 143.07 C 138.32 141.13 138.19 138.79 136.37 137.56 L 136.00 138.52 C 131.58 140.48 126.99 141.98 122.24 142.90 L 122.34 141.28 C 128.19 140.29 134.63 139.00 138.88 134.51 C 140.09 133.10 141.56 131.79 142.16 129.97 C 142.25 126.83 139.18 125.04 137.36 122.90 C 132.06 118.30 124.72 116.33 117.90 118.30 M 138.34 137.45 C 140.29 142.84 141.36 148.56 140.81 154.30 C 142.39 152.73 144.00 151.19 145.68 149.74 C 146.90 143.42 146.46 136.72 143.70 130.86 C 142.11 133.20 140.34 135.43 138.34 137.45 Z" />
</g>
<g id="#eecf7bff">
<path fill="#eecf7b" opacity="1.00" d=" M 108.64 85.13 C 110.54 85.87 112.45 86.62 114.23 87.62 C 115.04 93.62 113.96 99.58 112.22 105.31 C 112.06 105.51 111.73 105.89 111.56 106.09 C 110.73 104.57 109.90 103.04 108.90 101.62 C 105.60 96.98 99.71 95.64 94.35 95.36 C 95.01 93.74 95.66 92.11 96.41 90.52 C 97.04 91.66 97.67 92.80 98.30 93.94 C 101.78 94.30 105.44 93.57 107.96 90.99 C 109.70 89.54 108.44 87.01 108.64 85.13 Z" />
</g>
<g id="#b89e68ff">
<path fill="#b89e68" opacity="1.00" d=" M 114.23 87.62 C 118.48 90.38 121.59 94.90 122.42 99.90 C 122.72 106.96 118.98 113.77 113.74 118.32 C 112.68 118.80 111.62 119.29 110.57 119.79 C 111.74 116.56 112.80 113.07 111.63 109.68 C 110.77 114.34 110.51 119.75 106.16 122.67 C 103.08 123.64 99.99 124.61 96.91 125.60 C 98.53 122.24 100.46 118.87 100.68 115.05 C 103.59 112.37 106.03 108.52 110.09 107.55 C 112.73 107.17 114.45 104.97 116.11 103.09 C 118.10 100.77 120.32 98.29 120.18 94.99 C 117.72 98.58 115.39 102.29 112.22 105.31 C 113.96 99.58 115.04 93.62 114.23 87.62 Z" />
</g>
<g id="#d0b572ff">
<path fill="#d0b572" opacity="1.00" d=" M 50.28 89.03 C 52.07 91.15 54.19 92.96 55.92 95.13 C 56.95 98.07 56.30 101.26 56.29 104.30 C 54.36 103.15 52.41 101.99 50.26 101.27 C 50.68 97.55 51.86 93.03 48.21 90.52 C 48.69 90.41 49.66 90.20 50.14 90.09 L 50.28 89.03 Z" />
</g>
<g id="#edcf7bff">
<path fill="#edcf7b" opacity="1.00" d=" M 38.64 91.63 C 41.69 90.38 44.99 90.56 48.21 90.52 C 51.86 93.03 50.68 97.55 50.26 101.27 C 46.11 101.16 42.23 102.75 38.66 104.72 C 37.69 100.40 38.23 95.98 38.64 91.63 Z" />
</g>
<g id="#e9ca79ff">
<path fill="#e9ca79" opacity="1.00" d=" M 32.14 97.22 C 33.09 94.54 35.46 92.77 37.69 91.20 C 37.26 95.88 37.59 100.57 37.59 105.25 C 36.23 108.16 34.55 111.01 34.82 114.37 C 36.24 111.40 36.68 107.58 39.61 105.61 C 43.13 103.11 47.64 101.52 51.96 102.50 C 55.10 103.79 56.13 107.25 57.02 110.21 C 54.47 111.28 50.96 113.22 53.27 116.54 C 52.48 116.15 50.90 115.37 50.11 114.98 C 49.04 116.14 48.18 117.48 47.38 118.84 C 44.08 118.17 40.62 117.29 37.38 118.75 C 36.51 117.38 35.76 115.95 34.93 114.56 L 34.01 114.49 L 33.52 114.46 C 33.46 114.18 33.33 113.62 33.27 113.34 C 31.94 108.10 31.11 102.58 32.14 97.22 Z" />
</g>
<g id="#6e603eff">
<path fill="#6e603e" opacity="1.00" d=" M 112.22 105.31 C 115.39 102.29 117.72 98.58 120.18 94.99 C 120.32 98.29 118.10 100.77 116.11 103.09 C 114.45 104.97 112.73 107.17 110.09 107.55 C 109.76 106.12 109.44 104.69 109.15 103.26 L 108.90 101.62 C 109.90 103.04 110.73 104.57 111.56 106.09 C 111.73 105.89 112.06 105.51 112.22 105.31 Z" />
</g>
<g id="#b89f68ff">
<path fill="#b89f68" opacity="1.00" d=" M 123.25 99.96 C 122.69 97.91 124.38 96.67 125.85 95.67 C 126.81 98.83 127.56 102.05 127.97 105.33 C 128.17 108.20 128.61 111.03 129.09 113.86 C 125.36 116.20 120.88 116.75 116.57 117.00 L 116.66 116.88 C 120.88 112.33 123.77 106.28 123.25 99.96 Z" />
</g>
<g id="#eed694ff">
<path fill="#eed694" opacity="1.00" d=" M 84.92 103.00 C 86.93 100.25 89.77 98.20 93.04 97.21 C 94.31 98.07 95.93 98.71 96.63 100.19 C 96.41 101.80 95.38 103.13 94.61 104.51 C 91.54 103.20 88.18 103.27 84.92 103.00 Z" />
</g>
<g id="#eccd7aff">
<path fill="#eccd7a" opacity="1.00" d=" M 97.73 107.24 C 100.63 105.32 103.48 103.32 106.27 101.23 C 107.24 101.89 108.20 102.57 109.15 103.26 C 109.44 104.69 109.76 106.12 110.09 107.55 C 106.03 108.52 103.59 112.37 100.68 115.05 C 100.04 112.33 98.92 109.76 97.73 107.24 Z" />
</g>
<g id="#342d1bac">
<path fill="#342d1b" opacity="0.67" d=" M 174.39 105.23 C 173.59 103.41 176.51 101.25 178.16 102.10 C 177.22 103.49 175.93 104.57 174.39 105.23 Z" />
</g>
<g id="#ebd393ff">
<path fill="#ebd393" opacity="1.00" d=" M 80.60 109.24 C 81.75 107.10 83.00 104.99 84.82 103.35 C 88.18 103.87 91.78 104.09 94.53 106.34 C 92.80 107.41 91.07 108.47 89.33 109.53 C 88.48 109.05 87.64 108.57 86.79 108.10 C 85.19 109.62 84.32 113.32 81.84 113.15 C 81.41 111.85 81.03 110.54 80.60 109.24 Z" />
</g>
<g id="#c5aa6eff">
<path fill="#c5aa6e" opacity="1.00" d=" M 177.57 110.13 C 179.18 108.13 181.33 106.69 183.58 105.51 C 183.24 109.17 182.37 112.75 181.21 116.23 C 180.13 114.11 178.91 112.09 177.57 110.13 Z" />
</g>
<g id="#b69c68ff">
<path fill="#b69c68" opacity="1.00" d=" M 127.38 116.53 C 130.59 113.81 133.63 110.92 136.71 108.06 C 136.29 111.77 135.85 115.49 134.75 119.07 C 132.33 118.13 129.88 117.25 127.38 116.53 Z" />
</g>
<g id="#f1f3f7ff">
<path fill="#f1f3f7" opacity="1.00" d=" M 74.60 115.82 C 76.07 113.53 78.19 111.45 80.99 110.99 C 80.46 112.79 79.86 114.58 79.22 116.34 C 77.68 116.20 76.13 116.03 74.60 115.82 Z" />
</g>
<g id="#edeff2ff">
<path fill="#edeff2" opacity="1.00" d=" M 53.39 113.51 C 54.09 113.10 55.50 112.27 56.20 111.86 C 57.15 113.34 58.02 114.89 58.75 116.50 C 56.92 116.21 55.11 115.77 53.32 115.30 C 53.34 114.86 53.37 113.96 53.39 113.51 Z" />
</g>
<g id="#b19a68ff">
<path fill="#b19a68" opacity="1.00" d=" M 165.43 118.18 C 169.12 115.96 173.05 114.20 177.07 112.66 C 177.90 114.45 178.75 116.23 179.57 118.03 L 179.63 118.20 C 176.78 121.48 174.09 124.91 171.06 128.03 C 169.80 124.44 168.41 120.73 165.43 118.18 Z" />
</g>
<g id="#1d1911bb">
<path fill="#1d1911" opacity="0.73" d=" M 34.01 114.49 L 34.93 114.56 C 35.76 115.95 36.51 117.38 37.38 118.75 C 38.65 120.03 40.02 121.21 41.45 122.31 L 41.28 123.30 C 38.20 121.23 35.23 118.82 33.48 115.47 L 34.01 114.49 Z" />
</g>
<g id="#9b8e69ff">
<path fill="#9b8e69" opacity="1.00" d=" M 144.08 117.14 C 147.08 117.11 150.03 116.60 153.00 116.26 C 155.83 117.01 159.37 119.49 162.03 117.06 C 163.90 118.18 165.62 119.52 167.19 121.03 C 162.67 123.83 157.33 124.67 152.25 125.92 C 150.01 122.57 147.18 119.69 144.08 117.14 Z" />
</g>
<g id="#d1bb7bff">
<path fill="#d1bb7b" opacity="1.00" d=" M 153.00 116.26 C 156.01 115.03 159.14 116.08 162.03 117.06 C 159.37 119.49 155.83 117.01 153.00 116.26 Z" />
</g>
<g id="#fafcfeff">
<path fill="#fafcfe" opacity="1.00" d=" M 47.93 121.14 C 48.41 119.19 49.51 117.54 50.95 116.17 C 53.29 117.78 55.63 119.53 56.98 122.10 C 53.92 122.43 50.84 122.19 47.93 121.14 Z" />
<path fill="#fafcfe" opacity="1.00" d=" M 43.24 164.68 C 44.69 164.94 46.13 165.28 47.52 165.78 C 43.89 167.70 39.39 169.32 37.96 173.59 C 36.37 173.79 34.78 173.99 33.19 174.22 C 35.75 170.26 39.70 167.64 43.24 164.68 Z" />
</g>
<g id="#b59c68ff">
<path fill="#b59c68" opacity="1.00" d=" M 88.91 120.82 C 92.04 118.36 95.85 117.11 99.70 116.31 C 99.59 119.39 98.09 122.10 96.66 124.75 C 93.72 125.68 90.62 125.80 87.56 125.58 C 87.72 123.92 87.38 121.94 88.91 120.82 Z" />
</g>
<g id="#9a8c6aff">
<path fill="#9a8c6a" opacity="1.00" d=" M 136.84 116.75 C 138.33 116.80 139.82 116.87 141.30 116.96 C 146.47 118.99 149.72 123.82 152.37 128.45 C 153.73 132.76 154.63 137.22 154.69 141.76 C 152.53 142.46 150.33 143.07 148.13 143.63 C 148.15 134.23 143.39 125.18 135.84 119.66 C 136.17 118.69 136.51 117.71 136.84 116.75 Z" />
</g>
<g id="#00000077">
<path fill="#000000" opacity="0.47" d=" M 180.98 118.79 C 181.22 118.32 181.70 117.38 181.94 116.91 L 182.39 117.72 L 181.89 118.68 L 180.98 118.79 Z" />
</g>
<g id="#fdffffff">
<path fill="#fdffff" opacity="1.00" d=" M 76.10 123.27 C 78.04 121.34 79.80 118.20 82.92 118.38 C 84.89 118.95 86.48 120.27 87.38 122.11 C 83.70 123.02 79.91 123.74 76.10 123.27 Z" />
</g>
<g id="#efdba6ff">
<path fill="#efdba6" opacity="1.00" d=" M 104.46 131.36 C 107.90 126.10 112.19 120.08 118.80 118.94 C 121.35 120.57 125.31 121.56 125.39 125.24 C 125.10 132.45 118.29 138.58 111.19 138.65 C 107.66 137.98 107.31 133.97 106.92 131.10 C 106.30 131.16 105.08 131.30 104.46 131.36 Z" />
</g>
<g id="#e1e4ecff">
<path fill="#e1e4ec" opacity="1.00" d=" M 47.90 123.18 C 49.84 123.21 51.78 123.29 53.72 123.43 C 52.31 125.18 50.11 125.32 48.14 124.51 L 47.90 123.18 Z" />
<path fill="#e1e4ec" opacity="1.00" d=" M 135.22 176.03 C 136.72 174.95 138.46 175.99 139.96 176.46 C 138.37 180.29 137.42 184.65 139.26 188.59 C 139.12 188.90 138.84 189.50 138.70 189.81 C 138.58 190.06 138.33 190.56 138.21 190.81 L 136.80 192.09 C 136.80 188.35 137.36 183.88 134.21 181.13 C 133.98 180.84 133.52 180.24 133.29 179.95 C 133.86 178.65 133.76 176.70 135.22 176.03 Z" />
</g>
<g id="#b39b67ff">
<path fill="#b39b67" opacity="1.00" d=" M 137.36 122.90 C 139.18 125.04 142.25 126.83 142.16 129.97 C 141.56 131.79 140.09 133.10 138.88 134.51 C 137.59 130.78 137.41 126.81 137.36 122.90 Z" />
</g>
<g id="#9b8d6aff">
<path fill="#9b8d6a" opacity="1.00" d=" M 153.46 126.26 C 158.49 125.35 163.28 123.56 168.20 122.24 C 169.72 126.67 170.28 131.37 169.81 136.03 C 169.73 136.36 169.56 137.01 169.48 137.34 C 164.89 142.46 159.68 146.99 153.85 150.65 C 153.33 150.62 152.28 150.57 151.76 150.54 C 150.65 151.52 149.53 152.49 148.39 153.43 C 148.00 153.39 147.23 153.31 146.85 153.27 C 147.25 150.57 147.68 147.88 148.10 145.18 C 150.14 144.69 152.19 144.19 154.23 143.69 C 153.70 145.78 153.19 147.89 152.76 150.01 C 153.86 148.59 155.16 147.19 155.52 145.36 C 156.79 139.21 156.15 132.65 153.01 127.14 C 153.12 126.92 153.35 126.48 153.46 126.26 Z" />
</g>
<g id="#ccd5ebff">
<path fill="#ccd5eb" opacity="1.00" d=" M 82.12 125.00 C 83.39 124.27 85.13 124.24 86.57 124.28 C 86.55 126.27 82.73 126.99 82.12 125.00 Z" />
</g>
<g id="#efd794ff">
<path fill="#efd794" opacity="1.00" d=" M 42.12 124.77 C 44.75 124.01 48.47 125.01 49.34 127.88 C 50.73 131.51 52.23 135.10 54.00 138.57 C 48.43 140.07 42.60 140.27 36.91 139.40 C 37.28 135.50 38.34 131.72 39.89 128.14 C 40.52 126.95 41.31 125.84 42.12 124.77 Z" />
</g>
<g id="#b39a68ff">
<path fill="#b39a68" opacity="1.00" d=" M 138.34 137.45 C 140.34 135.43 142.11 133.20 143.70 130.86 C 146.46 136.72 146.90 143.42 145.68 149.74 C 144.00 151.19 142.39 152.73 140.81 154.30 C 141.36 148.56 140.29 142.84 138.34 137.45 Z" />
</g>
<g id="#c2bba8ff">
<path fill="#c2bba8" opacity="1.00" d=" M 75.58 146.46 C 83.96 145.80 91.76 141.85 98.61 137.19 C 99.06 138.21 99.48 139.24 99.90 140.27 C 99.60 146.17 100.40 152.14 103.23 157.40 C 97.99 158.60 92.44 157.02 87.37 159.10 C 79.11 158.12 71.35 154.37 64.88 149.23 L 66.09 149.27 C 65.01 147.69 63.90 146.14 62.79 144.60 C 67.01 145.43 71.22 146.90 75.58 146.46 Z" />
</g>
<g id="#b29a67ff">
<path fill="#b29a67" opacity="1.00" d=" M 136.37 137.56 C 138.19 138.79 138.32 141.13 138.84 143.07 C 139.88 147.26 139.64 151.62 138.99 155.85 C 133.50 158.69 127.26 160.40 121.04 159.68 C 119.91 159.51 117.92 158.64 118.29 157.24 C 118.57 156.27 118.87 155.31 119.18 154.36 C 126.29 151.14 133.97 146.68 136.00 138.52 L 136.37 137.56 Z" />
</g>
<g id="#252219cb">
<path fill="#252219" opacity="0.80" d=" M 153.85 150.65 C 159.68 146.99 164.89 142.46 169.48 137.34 C 165.12 144.84 157.40 150.46 149.45 153.53 L 148.39 153.43 C 149.53 152.49 150.65 151.52 151.76 150.54 C 152.28 150.57 153.33 150.62 153.85 150.65 Z" />
</g>
<g id="#f5d47aff">
<path fill="#f5d47a" opacity="1.00" d=" M 36.66 140.04 C 37.92 140.30 39.19 140.56 40.45 140.82 C 40.42 145.34 41.58 149.72 42.64 154.07 C 37.12 151.77 36.76 145.17 36.66 140.04 Z" />
</g>
<g id="#eccd7bff">
<path fill="#eccd7b" opacity="1.00" d=" M 41.50 140.74 C 45.90 140.64 50.56 141.24 54.58 139.02 C 55.52 140.38 56.43 141.74 57.33 143.12 C 52.71 146.16 47.77 148.68 42.46 150.24 C 41.81 147.12 41.09 143.95 41.50 140.74 Z" />
</g>
<g id="#e8cb7aff">
<path fill="#e8cb7a" opacity="1.00" d=" M 104.02 155.31 C 101.44 150.33 100.62 144.59 102.18 139.16 C 105.71 141.45 109.88 142.18 113.95 142.81 C 114.39 146.70 114.77 150.62 115.78 154.42 C 112.00 155.76 107.96 155.44 104.02 155.31 Z" />
<path fill="#e8cb7a" opacity="1.00" d=" M 40.58 161.42 C 42.26 160.76 43.94 160.07 45.65 159.50 C 45.50 160.58 45.35 161.67 45.20 162.75 C 44.83 163.09 44.09 163.76 43.72 164.10 C 42.64 163.24 41.62 162.32 40.58 161.42 Z" />
</g>
<g id="#b79e68ff">
<path fill="#b79e68" opacity="1.00" d=" M 57.33 143.12 C 59.66 146.09 62.35 148.75 65.21 151.21 C 59.48 153.62 53.20 154.51 47.01 154.46 C 44.43 154.82 43.38 152.11 42.46 150.24 C 47.77 148.68 52.71 146.16 57.33 143.12 Z" />
</g>
<g id="#9f8e66ff">
<path fill="#9f8e66" opacity="1.00" d=" M 54.66 155.28 C 58.59 153.91 62.71 153.23 66.66 151.96 C 69.55 153.90 72.58 155.60 75.64 157.25 C 72.30 160.38 67.76 161.32 63.60 162.84 C 66.93 162.65 70.12 161.67 73.25 160.60 C 72.49 161.82 71.72 163.05 70.92 164.25 C 69.43 165.93 67.39 167.03 65.30 167.78 C 60.51 169.19 55.70 170.55 50.82 171.62 C 50.40 169.71 50.30 167.55 48.89 166.05 C 47.64 164.53 45.43 164.72 43.72 164.10 C 44.09 163.76 44.83 163.09 45.20 162.75 C 45.35 161.67 45.50 160.58 45.65 159.50 C 47.15 159.97 48.63 160.48 50.12 160.98 C 48.58 160.07 47.04 159.18 45.43 158.40 C 48.45 157.16 51.83 156.96 54.66 155.28 Z" />
</g>
<g id="#9b8c65ff">
<path fill="#9b8c65" opacity="1.00" d=" M 136.70 158.72 C 140.14 157.31 142.59 154.41 145.13 151.82 C 145.16 152.63 145.23 154.25 145.26 155.06 C 144.68 159.03 142.73 162.81 140.37 166.05 C 140.91 166.94 141.49 167.80 141.98 168.73 C 143.58 172.21 144.14 176.02 144.13 179.84 C 142.53 177.69 140.76 175.67 138.77 173.88 C 139.03 173.79 139.55 173.63 139.81 173.54 C 134.95 173.24 129.43 171.26 125.23 174.79 C 125.04 175.27 124.67 176.22 124.48 176.70 C 123.81 177.77 123.11 178.81 122.40 179.85 C 121.40 177.35 120.84 174.71 120.60 172.03 C 121.23 171.86 122.48 171.51 123.11 171.34 C 120.75 170.47 118.39 169.60 115.96 168.94 L 115.76 168.88 C 116.51 167.36 116.59 165.17 118.33 164.38 C 121.40 163.09 124.79 163.05 128.03 162.51 C 125.98 162.03 123.92 161.54 121.84 161.21 C 126.89 161.38 132.01 160.64 136.70 158.72 Z" />
</g>
<g id="#b49c68ff">
<path fill="#b49c68" opacity="1.00" d=" M 115.78 154.42 C 116.32 156.08 116.96 157.71 117.57 159.36 C 113.66 158.52 109.78 157.56 105.87 156.74 C 110.59 159.91 116.34 160.56 121.84 161.21 C 123.92 161.54 125.98 162.03 128.03 162.51 C 124.79 163.05 121.40 163.09 118.33 164.38 C 116.59 165.17 116.51 167.36 115.76 168.88 C 115.40 168.58 114.66 168.00 114.29 167.70 C 113.46 166.79 112.45 166.07 111.26 165.76 C 110.99 165.58 110.45 165.21 110.18 165.03 C 109.33 163.80 108.30 162.71 107.07 161.88 C 106.08 161.13 105.33 160.13 104.57 159.16 C 104.65 158.08 104.54 157.02 104.22 155.99 L 104.02 155.31 C 107.96 155.44 112.00 155.76 115.78 154.42 Z" />
</g>
<g id="#d4cdb9ff">
<path fill="#d4cdb9" opacity="1.00" d=" M 87.37 159.10 C 92.44 157.02 97.99 158.60 103.23 157.40 L 103.42 158.05 L 103.12 158.79 C 97.98 160.15 92.58 159.81 87.37 159.10 Z" />
</g>
<g id="#201c12ba">
<path fill="#201c12" opacity="0.73" d=" M 107.07 161.88 C 108.30 162.71 109.33 163.80 110.18 165.03 C 108.55 165.98 106.13 163.47 107.07 161.88 Z" />
</g>
<g id="#b1b8d0ff">
<path fill="#b1b8d0" opacity="1.00" d=" M 47.52 165.78 C 48.18 166.76 48.80 167.76 49.38 168.79 C 49.39 169.68 49.41 171.46 49.42 172.35 C 49.12 172.42 48.54 172.56 48.24 172.63 C 43.09 173.83 37.86 174.76 32.57 175.02 C 32.73 174.82 33.04 174.42 33.19 174.22 C 34.78 173.99 36.37 173.79 37.96 173.59 C 39.39 169.32 43.89 167.70 47.52 165.78 Z" />
</g>
<g id="#211d15b8">
<path fill="#211d15" opacity="0.72" d=" M 111.26 165.76 C 112.45 166.07 113.46 166.79 114.29 167.70 C 113.15 168.88 110.40 167.31 111.26 165.76 Z" />
</g>
<g id="#e2e5ecff">
<path fill="#e2e5ec" opacity="1.00" d=" M 124.56 177.46 C 127.72 174.67 132.62 176.69 133.12 180.82 C 131.35 181.09 129.47 182.30 127.69 181.46 C 126.48 180.27 125.57 178.81 124.56 177.46 Z" />
</g>
<g id="#b2b8d1ff">
<path fill="#b2b8d1" opacity="1.00" d=" M 139.96 176.46 C 141.74 178.06 142.74 180.15 142.31 182.58 L 142.32 183.05 L 142.07 183.46 C 141.02 185.10 140.09 186.82 139.26 188.59 C 137.42 184.65 138.37 180.29 139.96 176.46 Z" />
</g>
<g id="#f9fcfdff">
<path fill="#f9fcfd" opacity="1.00" d=" M 124.56 177.46 C 125.57 178.81 126.48 180.27 127.69 181.46 C 129.47 182.30 131.35 181.09 133.12 180.82 C 133.42 184.15 133.56 187.49 133.44 190.83 L 131.33 189.95 L 131.22 189.83 C 130.32 188.64 129.24 187.58 128.00 186.76 C 127.79 186.59 127.38 186.25 127.18 186.09 C 125.82 183.41 123.40 180.66 124.56 177.46 Z" />
</g>
<g id="#191a1da3">
<path fill="#191a1d" opacity="0.64" d=" M 139.26 188.59 C 140.09 186.82 141.02 185.10 142.07 183.46 C 141.82 185.95 140.59 188.17 139.60 190.43 L 138.70 189.81 C 138.84 189.50 139.12 188.90 139.26 188.59 Z" />
</g>
<g id="#1f1f1eb9">
<path fill="#1f1f1e" opacity="0.73" d=" M 128.00 186.76 C 129.24 187.58 130.32 188.64 131.22 189.83 C 129.62 190.86 127.14 188.39 128.00 186.76 Z" />
</g>
</svg>
