<?xml version="1.0" encoding="UTF-8" ?>
<!DOCTYPE svg PUBLIC "-//W3C//DTD SVG 1.1//EN" "http://www.w3.org/Graphics/SVG/1.1/DTD/svg11.dtd">
<svg width="215pt" height="215pt" viewBox="0 0 215 215" version="1.1" xmlns="http://www.w3.org/2000/svg">
<g id="#0a040aff">
<path fill="#0a040a" opacity="1.00" d=" M 103.37 24.99 C 104.21 25.54 105.05 26.09 105.89 26.64 C 105.49 26.75 104.70 26.97 104.30 27.07 C 104.49 30.89 104.44 34.96 106.31 38.41 C 111.08 41.14 115.07 44.90 119.18 48.49 C 119.45 45.18 118.77 41.92 117.24 38.99 C 117.71 39.26 118.66 39.80 119.13 40.08 C 119.28 35.67 119.01 31.19 120.10 26.87 C 125.00 28.45 127.89 33.19 131.43 36.64 L 130.00 36.57 C 127.15 33.31 124.45 29.86 120.84 27.40 C 120.62 28.70 120.42 30.01 120.24 31.33 C 119.88 34.09 119.86 36.87 119.94 39.65 C 120.06 43.87 118.77 48.70 121.67 52.29 C 124.27 55.91 126.27 59.91 127.76 64.10 C 128.43 65.88 129.03 67.70 129.54 69.53 C 129.42 70.41 129.22 71.26 128.93 72.10 C 127.20 62.93 122.73 54.09 116.18 47.41 C 113.97 45.19 111.55 43.18 108.98 41.40 C 106.79 40.25 104.73 37.80 102.12 38.17 C 100.55 41.16 102.62 44.76 103.18 47.91 C 104.72 54.21 107.68 60.12 111.97 64.99 L 112.27 66.40 C 110.65 64.87 109.15 63.22 107.69 61.55 C 106.17 58.72 105.18 55.26 102.27 53.49 C 99.15 51.37 95.80 49.64 92.43 47.98 C 89.48 46.57 86.48 45.28 83.42 44.14 C 79.31 42.57 75.07 41.39 70.77 40.48 C 70.87 41.15 71.05 42.50 71.14 43.17 C 70.36 42.23 69.91 41.14 69.78 39.90 C 75.83 40.28 81.47 42.56 87.16 44.43 C 85.58 40.37 84.33 36.17 84.01 31.80 C 85.82 32.25 87.62 32.85 89.03 34.13 C 87.66 33.69 86.29 33.30 84.92 32.91 C 85.62 36.88 86.63 40.81 88.14 44.56 C 93.48 47.09 98.65 50.01 103.41 53.53 C 102.58 50.08 101.87 46.58 100.48 43.30 C 100.79 41.14 100.83 38.90 101.68 36.87 C 102.48 37.10 104.08 37.54 104.88 37.76 C 104.05 33.55 103.39 29.30 103.37 24.99 Z" />
<path fill="#0a040a" opacity="1.00" d=" M 163.90 42.18 C 164.69 40.15 166.27 38.63 167.81 37.15 C 169.08 40.70 169.57 44.44 169.75 48.19 C 172.14 48.59 174.75 48.52 176.86 49.90 C 174.43 49.64 172.01 49.25 169.59 48.87 C 169.58 49.73 169.57 51.44 169.57 52.29 C 169.66 55.92 169.21 59.54 168.12 63.01 C 169.10 64.04 170.09 65.06 171.06 66.12 C 169.82 65.46 168.56 64.86 167.30 64.24 C 166.64 65.61 165.88 66.93 164.86 68.05 C 168.89 60.78 169.67 52.27 168.60 44.14 C 168.37 42.18 168.11 40.22 167.87 38.26 C 166.54 39.56 165.21 40.86 163.90 42.18 Z" />
<path fill="#0a040a" opacity="1.00" d=" M 151.88 43.35 L 152.36 43.18 C 152.94 45.27 153.48 47.48 155.17 48.98 C 154.61 49.89 155.00 52.74 156.53 51.49 C 157.35 50.27 157.13 49.30 155.87 48.59 C 159.49 48.41 160.60 44.71 163.24 42.95 C 161.09 46.22 158.57 49.24 156.67 52.67 C 155.60 54.52 156.77 56.66 156.96 58.59 C 157.44 60.80 157.67 63.06 157.80 65.32 C 157.66 64.89 157.37 64.05 157.23 63.62 C 156.09 59.60 155.24 55.51 154.11 51.48 C 153.37 48.77 152.56 46.08 151.88 43.35 Z" />
<path fill="#0a040a" opacity="1.00" d=" M 143.86 55.79 C 144.53 53.83 145.06 51.70 146.61 50.23 C 147.07 51.13 147.50 52.05 147.92 52.97 C 147.47 52.62 146.58 51.93 146.13 51.58 C 145.30 54.22 144.53 56.89 143.73 59.54 C 142.20 64.26 141.02 69.10 140.40 74.02 C 140.60 74.51 141.01 75.48 141.21 75.96 C 142.43 78.91 144.09 81.64 145.46 84.51 C 142.39 80.73 139.32 76.26 139.83 71.14 C 140.51 65.87 142.29 60.84 143.86 55.79 Z" />
<path fill="#0a040a" opacity="1.00" d=" M 178.37 50.35 C 182.30 49.67 186.85 51.70 186.82 56.19 C 186.35 55.97 185.40 55.53 184.92 55.32 C 184.79 56.21 184.52 57.99 184.38 58.88 C 188.66 63.12 189.78 69.14 191.55 74.64 C 193.33 68.68 190.62 62.88 187.83 57.75 C 192.29 61.98 193.96 69.16 192.01 75.00 C 190.72 79.02 191.39 83.60 189.11 87.31 C 188.66 87.07 187.75 86.59 187.29 86.34 L 188.10 85.82 C 190.47 84.53 190.14 81.28 190.53 78.98 C 191.18 74.49 189.57 70.21 188.05 66.09 C 187.29 63.19 185.36 60.89 183.09 59.02 C 180.92 62.38 177.46 67.04 181.14 70.67 C 178.12 69.14 173.40 70.66 171.83 66.94 C 173.73 68.18 175.92 68.78 178.10 69.31 C 178.34 65.17 180.55 61.63 182.86 58.34 C 183.86 56.60 184.68 54.76 185.49 52.93 C 185.02 52.78 184.08 52.49 183.62 52.34 C 181.87 51.66 180.14 50.97 178.37 50.35 Z" />
<path fill="#0a040a" opacity="1.00" d=" M 148.58 54.32 C 149.44 54.69 150.24 55.23 150.53 56.18 C 152.07 59.46 153.43 62.83 154.56 66.28 C 155.03 69.62 155.39 73.03 154.99 76.40 C 154.19 78.91 153.03 81.32 151.34 83.35 C 151.62 82.26 151.93 81.18 152.28 80.11 C 153.23 77.52 154.80 74.96 154.45 72.09 C 153.95 67.41 152.39 62.90 150.53 58.60 C 149.89 57.17 149.22 55.75 148.58 54.32 Z" />
<path fill="#0a040a" opacity="1.00" d=" M 60.09 56.16 C 67.31 55.68 74.20 58.12 81.12 59.77 C 80.42 58.45 79.70 57.14 78.96 55.85 C 79.60 56.56 80.27 57.27 80.95 57.96 C 82.51 59.66 84.59 60.72 86.78 61.38 C 91.38 62.84 95.73 64.97 99.87 67.42 C 103.61 69.73 107.46 72.09 110.17 75.65 C 107.04 73.57 104.14 71.13 100.80 69.38 C 95.76 66.49 90.67 63.57 85.13 61.73 C 81.27 60.51 77.33 59.53 73.38 58.66 C 69.38 57.68 65.34 56.87 61.23 56.57 C 62.49 59.78 63.96 62.92 65.78 65.86 C 67.99 69.51 70.78 72.77 73.84 75.74 C 75.95 77.87 78.48 79.55 81.21 80.77 C 80.82 80.78 80.04 80.79 79.65 80.80 C 75.93 79.56 72.13 78.55 68.29 77.79 C 60.81 75.78 53.01 75.96 45.35 76.57 C 41.44 76.88 37.54 77.26 33.68 77.97 C 33.69 78.48 33.73 79.51 33.74 80.03 C 33.16 79.31 31.75 78.83 32.35 77.67 C 41.29 75.42 50.61 75.35 59.78 75.52 C 59.40 74.87 58.66 73.58 58.29 72.93 C 58.91 73.40 59.55 73.87 60.20 74.31 C 64.32 76.73 69.25 76.67 73.82 77.49 C 71.41 74.54 68.96 71.60 66.09 69.09 C 63.66 68.08 61.20 67.13 58.76 66.14 C 61.17 66.54 63.52 67.18 65.87 67.81 C 63.59 64.12 61.60 60.24 60.09 56.16 Z" />
<path fill="#0a040a" opacity="1.00" d=" M 112.70 66.59 L 113.99 66.97 C 114.46 67.35 115.40 68.10 115.87 68.47 C 118.55 70.51 121.53 72.11 124.44 73.81 C 121.86 72.78 119.28 71.75 116.64 70.91 C 116.63 74.24 116.89 77.55 117.31 80.85 C 117.77 84.74 117.53 88.96 119.62 92.44 C 121.51 95.19 124.82 96.30 127.73 97.63 C 131.35 99.16 134.67 101.49 137.04 104.66 C 135.66 104.54 134.28 104.57 132.90 104.74 C 133.28 104.36 134.04 103.59 134.42 103.20 C 133.82 102.69 132.61 101.67 132.01 101.16 C 128.49 98.25 123.97 97.11 120.17 94.68 C 119.29 93.33 118.50 91.93 117.69 90.55 C 115.75 92.24 113.92 94.06 112.13 95.91 C 112.82 96.59 113.52 97.27 114.24 97.94 C 116.62 100.71 120.75 99.60 123.51 101.67 C 125.15 102.86 126.58 104.31 128.07 105.67 L 128.75 104.96 C 129.64 104.96 131.43 104.96 132.32 104.97 C 131.53 105.30 129.96 105.97 129.18 106.31 C 132.49 109.33 136.93 110.45 141.17 111.51 C 142.84 112.05 144.51 111.35 146.04 110.72 C 147.78 109.95 149.69 109.08 150.45 107.18 C 151.24 105.35 152.06 103.53 153.08 101.82 C 152.20 104.51 151.55 107.45 149.84 109.74 C 147.44 111.15 144.62 111.59 141.93 112.12 C 140.67 111.90 139.42 111.66 138.17 111.41 C 135.09 110.64 132.05 109.52 129.47 107.64 C 126.18 105.33 123.46 102.14 119.61 100.70 C 116.48 99.92 113.04 100.24 110.66 102.60 C 108.34 105.61 105.74 109.04 105.89 113.02 C 107.20 118.10 111.19 121.87 114.53 125.70 C 116.43 127.83 118.33 129.96 120.32 132.01 C 119.32 131.67 118.32 131.34 117.32 131.02 C 114.58 133.45 111.23 134.98 107.85 136.29 C 105.34 137.20 102.71 137.67 100.07 137.92 C 100.55 138.46 101.51 139.54 101.99 140.08 C 100.44 139.43 98.50 136.95 97.04 138.96 C 92.32 143.56 85.71 145.99 79.12 145.40 C 79.42 149.76 80.60 154.01 80.74 158.39 C 80.26 156.78 79.81 155.18 79.48 153.54 C 79.07 150.99 78.79 148.42 78.50 145.86 C 77.68 145.32 76.86 144.77 76.04 144.23 C 84.14 145.69 93.61 143.39 98.36 136.21 C 104.36 127.65 102.45 115.48 95.90 107.77 C 97.21 108.78 98.45 109.90 99.40 111.27 C 103.36 119.23 104.14 129.06 99.13 136.76 C 104.40 136.77 109.67 135.49 113.97 132.37 C 115.04 131.64 116.09 130.90 117.16 130.19 C 114.00 126.98 110.96 123.65 108.11 120.17 C 107.17 118.45 106.12 116.77 105.47 114.91 C 104.87 111.89 105.89 108.87 106.71 106.00 C 106.32 105.32 105.52 103.97 105.13 103.29 C 104.89 102.24 104.68 101.19 104.49 100.13 C 98.66 100.99 92.76 101.58 86.91 100.59 C 84.94 100.02 84.15 102.25 83.05 103.34 C 86.01 103.61 89.00 103.83 91.85 104.74 C 82.03 101.92 72.66 109.51 68.41 117.81 C 66.21 125.72 66.88 134.56 71.03 141.75 C 70.04 140.97 69.06 140.17 68.01 139.49 C 66.45 139.78 65.63 141.08 65.41 142.55 C 64.40 147.52 64.69 152.65 65.35 157.65 C 65.89 161.82 66.81 165.94 67.87 170.01 C 69.32 168.30 70.27 165.32 72.88 165.21 C 74.35 165.77 75.01 167.41 76.09 168.45 C 77.04 167.07 78.05 165.72 79.10 164.41 C 79.59 164.52 80.56 164.73 81.05 164.84 C 82.47 163.90 80.94 161.18 81.08 159.66 C 82.15 161.99 82.61 164.53 82.58 167.09 C 82.68 173.07 83.59 179.25 81.74 185.07 C 81.51 186.15 80.88 186.94 79.86 187.43 C 79.98 187.06 80.22 186.33 80.35 185.96 C 82.02 182.24 82.25 178.13 82.21 174.11 C 82.17 171.50 82.13 168.86 81.50 166.31 C 81.13 166.20 80.41 165.97 80.04 165.86 C 76.06 167.20 75.80 172.69 77.37 176.07 L 77.61 176.83 C 77.26 180.20 77.09 183.57 77.12 186.96 C 76.99 188.16 76.34 189.21 75.81 190.28 C 72.91 185.14 70.92 179.58 69.09 173.99 C 64.66 164.07 63.10 152.93 64.50 142.16 C 64.50 139.59 67.65 139.45 68.90 137.74 C 62.50 138.14 56.38 140.31 50.00 140.98 C 41.78 142.47 33.37 143.11 25.02 142.49 C 23.90 142.22 21.73 142.12 22.38 140.44 C 24.04 138.62 26.06 137.17 28.18 135.93 C 26.32 137.62 24.54 139.39 22.84 141.25 C 24.35 141.41 25.86 141.55 27.37 141.67 C 32.72 142.15 38.09 141.78 43.41 141.15 C 51.57 140.38 59.52 138.36 67.59 137.04 C 65.63 128.86 65.72 119.91 70.07 112.49 C 70.21 112.22 70.49 111.67 70.63 111.40 C 73.75 108.52 77.46 106.42 81.02 104.14 C 82.62 103.34 82.97 101.49 83.71 100.03 C 78.43 99.96 73.37 98.35 68.76 95.86 C 68.22 93.83 70.23 92.70 71.54 91.61 C 75.35 88.91 79.24 86.30 83.35 84.08 C 93.07 79.50 105.55 74.95 115.36 81.73 L 114.13 81.37 C 107.89 79.41 101.07 78.57 94.72 80.56 C 87.28 82.90 80.50 86.80 74.07 91.14 C 72.33 92.06 70.80 93.32 69.42 94.72 C 70.61 95.23 71.82 95.75 73.02 96.27 C 78.83 99.47 85.56 99.47 91.96 100.35 C 99.47 101.17 107.26 98.99 112.96 93.97 C 114.63 92.36 117.21 90.71 116.83 88.07 C 116.78 86.13 116.56 84.21 116.35 82.29 C 115.98 78.26 115.30 74.20 115.99 70.17 C 114.88 68.99 113.77 67.80 112.70 66.59 M 105.14 99.99 C 105.61 101.73 106.35 103.39 107.41 104.85 C 109.16 102.43 111.18 100.13 113.89 98.75 C 112.98 97.93 112.06 97.11 111.13 96.30 C 109.15 97.55 107.15 98.78 105.14 99.99 M 70.03 168.26 C 69.83 168.97 69.44 170.41 69.24 171.12 C 70.75 177.00 72.26 183.37 76.06 188.19 C 77.00 182.53 76.84 176.64 75.32 171.09 C 74.87 169.07 74.19 167.10 73.11 165.32 C 72.04 166.25 71.02 167.24 70.03 168.26 Z" />
<path fill="#0a040a" opacity="1.00" d=" M 160.07 70.64 C 161.75 71.39 163.06 70.15 164.26 69.14 C 163.46 70.16 162.65 71.17 161.84 72.18 C 162.32 74.58 163.24 76.94 163.33 79.41 C 162.73 81.01 161.65 82.38 160.72 83.80 C 161.44 88.33 159.57 92.46 157.74 96.46 C 156.07 96.64 154.44 97.07 152.82 97.51 C 153.27 96.21 153.75 94.92 154.25 93.64 C 157.61 93.63 159.05 89.58 158.31 86.75 C 156.84 88.77 155.61 90.95 154.34 93.10 C 154.72 89.86 156.84 87.18 158.45 84.45 C 159.76 82.98 161.66 81.89 162.41 79.99 C 162.80 76.71 161.29 73.60 160.07 70.64 Z" />
<path fill="#0a040a" opacity="1.00" d=" M 124.51 77.26 C 125.45 77.67 126.39 78.11 127.33 78.54 C 130.21 80.37 132.61 82.88 134.42 85.77 C 135.24 88.83 135.73 91.97 136.52 95.05 C 137.06 97.36 138.54 99.38 138.72 101.79 C 137.78 99.77 137.23 97.60 136.27 95.59 C 135.07 95.12 133.78 94.91 132.53 94.63 C 130.06 94.12 127.20 93.56 125.69 91.29 C 123.81 88.51 123.77 84.95 123.91 81.71 C 124.08 80.22 124.31 78.74 124.51 77.26 M 132.91 90.85 C 136.01 88.81 132.54 85.13 131.00 83.15 C 128.69 85.43 129.07 90.72 132.91 90.85 Z" />
<path fill="#0a040a" opacity="1.00" d=" M 48.71 91.27 C 50.16 91.92 51.60 92.57 53.04 93.24 C 57.92 95.74 63.27 97.36 68.78 97.48 C 68.76 97.81 68.71 98.48 68.69 98.82 C 66.97 98.49 65.25 98.15 63.53 97.80 C 58.29 96.13 53.10 98.49 48.30 100.40 C 46.54 101.19 44.80 102.03 43.06 102.84 C 41.70 101.80 40.29 100.84 38.88 99.88 C 39.57 100.06 40.94 100.43 41.63 100.61 C 42.22 100.76 43.41 101.06 44.01 101.21 C 48.00 99.34 52.13 97.81 56.35 96.59 C 54.49 95.03 52.46 93.42 49.95 93.19 C 48.12 93.36 46.38 94.02 44.61 94.47 C 43.90 94.62 42.46 94.90 41.75 95.04 C 43.95 93.55 47.17 93.60 48.71 91.27 Z" />
<path fill="#0a040a" opacity="1.00" d=" M 62.09 114.04 C 64.51 113.36 66.97 112.84 69.47 112.59 C 66.00 113.89 62.49 115.07 59.01 116.32 C 58.51 116.44 57.52 116.68 57.03 116.79 C 48.13 115.99 38.61 116.98 30.38 112.70 C 40.76 114.90 51.63 117.19 62.09 114.04 Z" />
<path fill="#0a040a" opacity="1.00" d=" M 144.87 113.76 C 146.71 115.71 146.50 118.71 148.14 120.76 C 150.84 123.57 154.59 125.15 157.07 128.20 C 152.48 125.82 148.68 122.26 144.64 119.10 C 140.78 115.65 134.54 117.27 130.84 120.22 C 129.30 121.24 130.42 123.41 131.28 124.52 C 135.50 130.05 142.11 132.85 148.14 135.93 C 156.57 140.15 166.28 141.26 175.55 139.89 C 176.98 139.62 178.29 138.97 179.60 138.38 C 177.67 137.56 175.73 136.80 173.81 135.98 C 176.23 136.48 178.60 137.18 180.97 137.86 C 178.79 140.48 175.06 140.33 172.02 141.11 L 171.27 141.25 C 171.21 141.60 171.10 142.30 171.04 142.65 L 170.79 142.48 C 168.63 140.70 165.59 141.78 163.05 141.27 C 153.90 140.81 145.70 136.28 137.99 131.73 C 135.35 130.34 132.89 127.22 129.59 128.39 C 127.91 128.96 126.03 130.08 125.46 131.85 C 125.63 134.39 127.45 136.31 129.14 138.04 C 127.49 137.43 125.85 136.81 124.20 136.23 C 124.54 136.09 125.21 135.83 125.55 135.70 C 125.10 134.26 124.53 132.87 123.85 131.53 C 124.95 130.40 126.08 129.29 127.29 128.27 C 128.55 127.88 129.84 127.57 131.13 127.27 C 130.45 125.15 128.98 122.97 129.71 120.68 C 131.76 117.57 135.76 116.76 139.21 116.35 C 141.61 116.56 143.87 117.41 146.08 118.35 C 145.67 116.82 145.28 115.29 144.87 113.76 Z" />
<path fill="#0a040a" opacity="1.00" d=" M 112.43 141.40 C 115.76 140.70 118.88 139.30 121.91 137.78 C 120.64 139.44 118.65 140.19 116.82 141.04 C 116.53 145.17 116.63 149.70 113.94 153.14 C 114.49 151.45 115.04 149.74 115.43 148.00 C 115.75 145.92 115.88 143.82 116.05 141.72 C 114.26 142.27 112.47 142.80 110.72 143.45 C 110.53 143.85 110.16 144.64 109.98 145.04 C 109.54 143.65 108.89 142.36 107.25 143.35 C 103.49 147.32 104.98 153.45 105.38 158.36 C 105.56 159.10 105.92 160.59 106.10 161.34 C 106.38 160.88 106.94 159.96 107.22 159.49 L 107.96 159.17 L 107.80 159.86 C 107.37 161.11 107.32 163.43 105.40 162.78 C 104.07 158.30 104.36 153.59 104.00 148.99 C 103.60 146.04 102.87 143.16 102.55 140.20 C 105.78 140.97 109.09 141.62 112.43 141.40 M 104.02 142.22 C 103.88 142.63 103.61 143.44 103.47 143.85 C 105.05 147.02 107.38 140.61 104.02 142.22 Z" />
<path fill="#0a040a" opacity="1.00" d=" M 129.96 138.75 C 135.11 141.19 140.42 143.43 146.04 144.51 C 153.85 145.39 161.82 144.97 169.41 142.82 C 164.57 145.83 158.53 145.64 153.04 145.73 C 145.00 145.61 136.19 144.13 129.96 138.75 Z" />
</g>
<g id="#704c26ff">
<path fill="#704c26" opacity="1.00" d=" M 104.30 27.07 C 104.70 26.97 105.49 26.75 105.89 26.64 C 106.10 27.06 106.54 27.89 106.76 28.31 C 106.96 29.36 107.59 29.99 108.64 30.19 C 109.73 30.42 110.49 31.05 110.91 32.09 C 111.25 33.01 111.58 33.93 111.90 34.86 C 110.42 34.99 108.93 35.13 107.45 35.26 C 107.17 36.05 106.60 37.62 106.31 38.41 C 104.44 34.96 104.49 30.89 104.30 27.07 Z" />
</g>
<g id="#24170bcb">
<path fill="#24170b" opacity="0.80" d=" M 106.76 28.31 C 108.46 27.93 109.09 28.56 108.64 30.19 C 107.59 29.99 106.96 29.36 106.76 28.31 Z" />
</g>
<g id="#b48752ff">
<path fill="#b48752" opacity="1.00" d=" M 120.84 27.40 C 124.45 29.86 127.15 33.31 130.00 36.57 C 129.45 38.30 129.41 40.12 129.47 41.92 C 127.16 37.79 124.27 33.92 120.24 31.33 C 120.42 30.01 120.62 28.70 120.84 27.40 Z" />
</g>
<g id="#724d26ff">
<path fill="#724d26" opacity="1.00" d=" M 143.86 35.97 C 144.40 34.18 143.92 31.77 145.68 30.58 L 145.60 31.27 C 145.40 32.84 145.18 34.41 145.03 35.98 C 145.18 40.46 146.62 44.76 148.90 48.59 C 149.65 48.54 150.40 48.49 151.15 48.44 C 152.14 49.45 153.12 50.46 154.11 51.48 C 155.24 55.51 156.09 59.60 157.23 63.62 C 156.34 64.51 155.45 65.39 154.56 66.28 C 153.43 62.83 152.07 59.46 150.53 56.18 C 150.24 55.23 149.44 54.69 148.58 54.32 C 148.42 53.98 148.09 53.31 147.92 52.97 C 147.50 52.05 147.07 51.13 146.61 50.23 C 145.06 51.70 144.53 53.83 143.86 55.79 C 142.29 60.84 140.51 65.87 139.83 71.14 C 138.06 69.10 136.12 67.24 134.03 65.55 C 133.79 66.17 133.31 67.42 133.07 68.04 C 131.26 66.79 129.43 65.55 127.76 64.10 C 126.27 59.91 124.27 55.91 121.67 52.29 C 118.77 48.70 120.06 43.87 119.94 39.65 C 123.06 44.75 125.14 52.14 132.14 52.83 C 133.39 54.06 134.61 55.30 135.84 56.55 C 137.29 52.57 136.45 48.32 137.32 44.25 C 139.28 46.20 141.38 48.13 142.50 50.71 C 141.75 45.77 143.28 40.86 143.86 35.97 Z" />
<path fill="#724d26" opacity="1.00" d=" M 84.92 32.91 C 86.29 33.30 87.66 33.69 89.03 34.13 C 91.11 35.19 93.20 36.36 94.83 38.08 C 96.61 39.92 98.57 41.58 100.48 43.30 C 101.87 46.58 102.58 50.08 103.41 53.53 C 98.65 50.01 93.48 47.09 88.14 44.56 C 86.63 40.81 85.62 36.88 84.92 32.91 Z" />
<path fill="#724d26" opacity="1.00" d=" M 92.43 47.98 C 95.80 49.64 99.15 51.37 102.27 53.49 C 105.18 55.26 106.17 58.72 107.69 61.55 C 106.62 61.04 105.54 60.57 104.46 60.10 C 102.32 62.12 100.84 64.67 99.87 67.42 C 95.73 64.97 91.38 62.84 86.78 61.38 C 84.59 60.72 82.51 59.66 80.95 57.96 C 84.32 54.14 88.44 51.11 92.43 47.98 Z" />
<path fill="#724d26" opacity="1.00" d=" M 85.13 61.73 C 90.67 63.57 95.76 66.49 100.80 69.38 C 98.98 69.40 97.18 69.10 95.43 68.62 C 94.21 70.49 92.54 71.98 90.17 71.80 C 87.99 74.30 85.85 76.83 83.60 79.27 C 83.58 79.61 83.55 80.29 83.53 80.64 C 82.76 80.69 81.98 80.74 81.21 80.77 C 78.48 79.55 75.95 77.87 73.84 75.74 C 78.31 71.67 81.49 66.50 85.13 61.73 Z" />
<path fill="#724d26" opacity="1.00" d=" M 68.29 77.79 C 72.13 78.55 75.93 79.56 79.65 80.80 C 80.91 81.86 82.13 82.97 83.35 84.08 C 79.24 86.30 75.35 88.91 71.54 91.61 C 70.23 92.70 68.22 93.83 68.76 95.86 L 68.78 97.48 C 63.27 97.36 57.92 95.74 53.04 93.24 C 54.96 90.61 57.94 89.31 60.54 87.54 C 63.70 84.80 65.82 81.11 68.29 77.79 Z" />
</g>
<g id="#5b3a2aff">
<path fill="#5b3a2a" opacity="1.00" d=" M 110.91 32.09 C 112.02 33.02 113.43 33.87 113.76 35.40 C 113.95 36.56 114.59 37.18 115.69 37.26 L 116.49 37.34 C 116.68 37.75 117.05 38.58 117.24 38.99 C 118.77 41.92 119.45 45.18 119.18 48.49 C 115.07 44.90 111.08 41.14 106.31 38.41 C 106.60 37.62 107.17 36.05 107.45 35.26 C 108.93 35.13 110.42 34.99 111.90 34.86 C 111.58 33.93 111.25 33.01 110.91 32.09 Z" />
</g>
<g id="#936b3aff">
<path fill="#936b3a" opacity="1.00" d=" M 119.94 39.65 C 119.86 36.87 119.88 34.09 120.24 31.33 C 124.27 33.92 127.16 37.79 129.47 41.92 C 129.41 40.12 129.45 38.30 130.00 36.57 L 131.43 36.64 C 131.53 37.05 131.72 37.88 131.82 38.30 C 131.93 39.45 132.55 40.09 133.68 40.20 L 134.67 40.38 L 134.83 41.43 C 134.79 42.70 135.96 43.41 136.92 43.97 L 137.32 44.25 C 136.45 48.32 137.29 52.57 135.84 56.55 C 134.61 55.30 133.39 54.06 132.14 52.83 C 125.14 52.14 123.06 44.75 119.94 39.65 Z" />
<path fill="#936b3a" opacity="1.00" d=" M 73.38 58.66 C 77.33 59.53 81.27 60.51 85.13 61.73 C 81.49 66.50 78.31 71.67 73.84 75.74 C 70.78 72.77 67.99 69.51 65.78 65.86 C 68.21 65.70 70.64 65.45 73.05 65.07 C 72.19 63.58 71.31 62.09 70.44 60.61 C 71.42 59.96 72.40 59.31 73.38 58.66 Z" />
<path fill="#936b3a" opacity="1.00" d=" M 45.35 76.57 C 53.01 75.96 60.81 75.78 68.29 77.79 C 65.82 81.11 63.70 84.80 60.54 87.54 C 57.94 89.31 54.96 90.61 53.04 93.24 C 51.60 92.57 50.16 91.92 48.71 91.27 C 46.22 90.23 44.01 88.67 41.76 87.20 L 42.03 86.42 C 42.23 85.80 42.42 85.18 42.61 84.56 C 45.13 83.97 47.58 83.11 49.98 82.13 C 48.36 80.35 46.81 78.49 45.35 76.57 Z" />
</g>
<g id="#b38651ff">
<path fill="#b38651" opacity="1.00" d=" M 145.03 35.98 C 145.18 34.41 145.40 32.84 145.60 31.27 C 145.92 31.72 146.58 32.63 146.91 33.08 C 147.84 35.20 148.67 37.36 149.64 39.47 C 147.58 39.15 146.36 37.37 145.03 35.98 Z" />
</g>
<g id="#2b1f12bc">
<path fill="#2b1f12" opacity="0.74" d=" M 146.91 33.08 C 149.05 35.34 150.69 38.15 151.14 41.26 C 150.63 40.67 150.13 40.07 149.64 39.47 C 148.67 37.36 147.84 35.20 146.91 33.08 Z" />
</g>
<g id="#0e0806b5">
<path fill="#0e0806" opacity="0.71" d=" M 113.76 35.40 C 115.35 35.00 115.99 35.62 115.69 37.26 C 114.59 37.18 113.95 36.56 113.76 35.40 Z" />
</g>
<g id="#120c0691">
<path fill="#120c06" opacity="0.57" d=" M 100.23 36.02 C 100.59 36.23 101.32 36.66 101.68 36.87 C 100.83 38.90 100.79 41.14 100.48 43.30 C 98.57 41.58 96.61 39.92 94.83 38.08 C 96.59 39.06 98.37 40.00 100.19 40.88 C 100.18 39.26 100.20 37.64 100.23 36.02 Z" />
</g>
<g id="#936a3aff">
<path fill="#936a3a" opacity="1.00" d=" M 145.03 35.98 C 146.36 37.37 147.58 39.15 149.64 39.47 C 150.13 40.07 150.63 40.67 151.14 41.26 L 151.48 41.65 C 151.58 42.08 151.78 42.92 151.88 43.35 C 152.56 46.08 153.37 48.77 154.11 51.48 C 153.12 50.46 152.14 49.45 151.15 48.44 C 150.40 48.49 149.65 48.54 148.90 48.59 C 146.62 44.76 145.18 40.46 145.03 35.98 Z" />
</g>
<g id="#e9d3abff">
<path fill="#e9d3ab" opacity="1.00" d=" M 102.12 38.17 C 104.73 37.80 106.79 40.25 108.98 41.40 C 109.98 45.26 111.29 49.10 111.17 53.15 C 108.87 50.89 106.41 48.67 103.18 47.91 C 102.62 44.76 100.55 41.16 102.12 38.17 Z" />
</g>
<g id="#362614e2">
<path fill="#362614" opacity="0.89" d=" M 131.82 38.30 C 133.43 37.97 134.05 38.61 133.68 40.20 C 132.55 40.09 131.93 39.45 131.82 38.30 Z" />
</g>
<g id="#e6c26dff">
<path fill="#e6c26d" opacity="1.00" d=" M 163.90 42.18 C 165.21 40.86 166.54 39.56 167.87 38.26 C 168.11 40.22 168.37 42.18 168.60 44.14 C 164.87 49.08 162.00 54.77 156.96 58.59 C 156.77 56.66 155.60 54.52 156.67 52.67 C 158.57 49.24 161.09 46.22 163.24 42.95 C 163.41 42.75 163.74 42.37 163.90 42.18 Z" />
</g>
<g id="#a47f4cff">
<path fill="#a47f4c" opacity="1.00" d=" M 70.77 40.48 C 75.07 41.39 79.31 42.57 83.42 44.14 C 82.04 44.55 80.65 44.96 79.26 45.37 C 79.75 46.19 80.24 47.01 80.74 47.83 C 79.63 49.42 78.52 51.00 77.39 52.57 C 75.85 49.78 73.83 47.29 71.94 44.75 C 71.74 44.35 71.34 43.56 71.14 43.17 C 71.05 42.50 70.87 41.15 70.77 40.48 Z" />
</g>
<g id="#22180dbf">
<path fill="#22180d" opacity="0.75" d=" M 134.83 41.43 C 136.17 40.44 138.03 42.80 136.92 43.97 C 135.96 43.41 134.79 42.70 134.83 41.43 Z" />
</g>
<g id="#e2bf6eff">
<path fill="#e2bf6e" opacity="1.00" d=" M 108.98 41.40 C 111.55 43.18 113.97 45.19 116.18 47.41 C 116.96 54.36 124.01 59.62 122.22 67.04 C 120.84 68.99 117.92 68.06 115.87 68.47 C 115.40 68.10 114.46 67.35 113.99 66.97 C 113.31 66.32 112.63 65.66 111.97 64.99 C 107.68 60.12 104.72 54.21 103.18 47.91 C 106.41 48.67 108.87 50.89 111.17 53.15 C 111.29 49.10 109.98 45.26 108.98 41.40 Z" />
<path fill="#e2bf6e" opacity="1.00" d=" M 176.86 49.90 C 177.24 50.01 177.99 50.24 178.37 50.35 C 180.14 50.97 181.87 51.66 183.62 52.34 C 181.02 53.10 177.80 52.95 176.86 49.90 Z" />
<path fill="#e2bf6e" opacity="1.00" d=" M 150.53 58.60 C 152.39 62.90 153.95 67.41 154.45 72.09 C 154.80 74.96 153.23 77.52 152.28 80.11 C 148.50 78.99 144.82 77.56 141.21 75.96 C 141.01 75.48 140.60 74.51 140.40 74.02 C 141.02 69.10 142.20 64.26 143.73 59.54 C 145.21 62.27 146.83 64.92 148.63 67.45 C 148.71 65.27 148.74 63.10 148.75 60.93 C 149.20 60.35 150.09 59.18 150.53 58.60 Z" />
</g>
<g id="#956d3aff">
<path fill="#956d3a" opacity="1.00" d=" M 83.42 44.14 C 86.48 45.28 89.48 46.57 92.43 47.98 C 88.44 51.11 84.32 54.14 80.95 57.96 C 80.27 57.27 79.60 56.56 78.96 55.85 C 78.71 55.42 78.20 54.57 77.95 54.14 C 77.81 53.75 77.53 52.96 77.39 52.57 C 78.52 51.00 79.63 49.42 80.74 47.83 C 80.24 47.01 79.75 46.19 79.26 45.37 C 80.65 44.96 82.04 44.55 83.42 44.14 Z" />
</g>
<g id="#2e2213d3">
<path fill="#2e2213" opacity="0.83" d=" M 71.94 44.75 C 73.83 47.29 75.85 49.78 77.39 52.57 C 77.53 52.96 77.81 53.75 77.95 54.14 L 77.97 55.18 C 75.75 51.85 73.01 48.68 71.94 44.75 Z" />
</g>
<g id="#b0935dff">
<path fill="#b0935d" opacity="1.00" d=" M 156.96 58.59 C 162.00 54.77 164.87 49.08 168.60 44.14 C 169.67 52.27 168.89 60.78 164.86 68.05 C 164.71 68.33 164.41 68.87 164.26 69.14 C 163.06 70.15 161.75 71.39 160.07 70.64 C 161.29 73.60 162.80 76.71 162.41 79.99 C 161.66 81.89 159.76 82.98 158.45 84.45 C 158.64 82.53 158.86 80.61 159.12 78.69 C 157.75 77.92 156.37 77.16 154.99 76.40 C 155.39 73.03 155.03 69.62 154.56 66.28 C 155.45 65.39 156.34 64.51 157.23 63.62 C 157.37 64.05 157.66 64.89 157.80 65.32 C 157.67 63.06 157.44 60.80 156.96 58.59 Z" />
</g>
<g id="#b1945dff">
<path fill="#b1945d" opacity="1.00" d=" M 116.18 47.41 C 122.73 54.09 127.20 62.93 128.93 72.10 C 129.22 71.26 129.42 70.41 129.54 69.53 C 130.61 70.92 131.91 72.25 132.27 74.03 C 130.45 76.65 126.84 74.53 124.44 73.81 C 121.53 72.11 118.55 70.51 115.87 68.47 C 117.92 68.06 120.84 68.99 122.22 67.04 C 124.01 59.62 116.96 54.36 116.18 47.41 Z" />
<path fill="#b1945d" opacity="1.00" d=" M 71.03 141.75 C 66.88 134.56 66.21 125.72 68.41 117.81 C 68.79 122.90 70.27 128.33 74.11 131.92 C 80.90 137.25 90.16 138.18 98.36 136.21 C 93.61 143.39 84.14 145.69 76.04 144.23 C 76.86 144.77 77.68 145.32 78.50 145.86 C 78.79 148.42 79.07 150.99 79.48 153.54 C 74.36 152.93 69.74 155.39 65.35 157.65 C 64.69 152.65 64.40 147.52 65.41 142.55 C 65.63 141.08 66.45 139.78 68.01 139.49 C 69.06 140.17 70.04 140.97 71.03 141.75 Z" />
</g>
<g id="#8c7b5bff">
<path fill="#8c7b5b" opacity="1.00" d=" M 155.17 48.98 L 155.87 48.59 C 157.13 49.30 157.35 50.27 156.53 51.49 C 155.00 52.74 154.61 49.89 155.17 48.98 Z" />
</g>
<g id="#ad9560ff">
<path fill="#ad9560" opacity="1.00" d=" M 169.59 48.87 C 172.01 49.25 174.43 49.64 176.86 49.90 C 177.80 52.95 181.02 53.10 183.62 52.34 C 184.08 52.49 185.02 52.78 185.49 52.93 C 184.68 54.76 183.86 56.60 182.86 58.34 C 181.48 57.09 180.29 55.54 178.61 54.67 C 175.60 53.85 172.50 53.38 169.57 52.29 C 169.57 51.44 169.58 49.73 169.59 48.87 Z" />
</g>
<g id="#e9d4aeff">
<path fill="#e9d4ae" opacity="1.00" d=" M 146.13 51.58 C 146.58 51.93 147.47 52.62 147.92 52.97 C 148.09 53.31 148.42 53.98 148.58 54.32 C 149.22 55.75 149.89 57.17 150.53 58.60 C 150.09 59.18 149.20 60.35 148.75 60.93 C 148.74 63.10 148.71 65.27 148.63 67.45 C 146.83 64.92 145.21 62.27 143.73 59.54 C 144.53 56.89 145.30 54.22 146.13 51.58 Z" />
</g>
<g id="#8c7a59ff">
<path fill="#8c7a59" opacity="1.00" d=" M 169.57 52.29 C 172.50 53.38 175.60 53.85 178.61 54.67 C 180.29 55.54 181.48 57.09 182.86 58.34 C 180.55 61.63 178.34 65.17 178.10 69.31 C 175.92 68.78 173.73 68.18 171.83 66.94 C 171.64 66.73 171.25 66.32 171.06 66.12 C 170.09 65.06 169.10 64.04 168.12 63.01 C 169.21 59.54 169.66 55.92 169.57 52.29 Z" />
<path fill="#8c7a59" opacity="1.00" d=" M 117.32 131.02 C 118.32 131.34 119.32 131.67 120.32 132.01 C 121.67 133.32 122.96 134.70 124.33 136.01 C 123.72 136.45 122.51 137.34 121.91 137.78 C 118.88 139.30 115.76 140.70 112.43 141.40 C 110.39 140.72 108.37 139.98 106.31 139.39 C 106.86 138.89 107.95 137.89 108.49 137.39 C 108.33 137.11 108.01 136.56 107.85 136.29 C 111.23 134.98 114.58 133.45 117.32 131.02 Z" />
</g>
<g id="#f3f1f3ff">
<path fill="#f3f1f3" opacity="1.00" d=" M 184.92 55.32 C 185.40 55.53 186.35 55.97 186.82 56.19 C 187.07 56.58 187.58 57.36 187.83 57.75 C 190.62 62.88 193.33 68.68 191.55 74.64 C 189.78 69.14 188.66 63.12 184.38 58.88 C 184.52 57.99 184.79 56.21 184.92 55.32 Z" />
<path fill="#f3f1f3" opacity="1.00" d=" M 70.03 168.26 C 70.60 169.44 71.17 170.61 71.75 171.79 C 72.94 171.56 74.13 171.32 75.32 171.09 C 76.84 176.64 77.00 182.53 76.06 188.19 C 72.26 183.37 70.75 177.00 69.24 171.12 C 69.44 170.41 69.83 168.97 70.03 168.26 Z" />
</g>
<g id="#aa8a5dff">
<path fill="#aa8a5d" opacity="1.00" d=" M 61.23 56.57 C 65.34 56.87 69.38 57.68 73.38 58.66 C 72.40 59.31 71.42 59.96 70.44 60.61 C 71.31 62.09 72.19 63.58 73.05 65.07 C 70.64 65.45 68.21 65.70 65.78 65.86 C 63.96 62.92 62.49 59.78 61.23 56.57 Z" />
<path fill="#aa8a5d" opacity="1.00" d=" M 74.07 91.14 C 80.50 86.80 87.28 82.90 94.72 80.56 C 98.57 80.72 102.33 81.62 106.01 82.70 C 101.00 84.50 97.65 89.20 92.38 90.42 C 88.21 92.12 83.70 91.19 79.35 91.56 C 77.57 91.74 75.80 91.55 74.07 91.14 Z" />
</g>
<g id="#674329ff">
<path fill="#674329" opacity="1.00" d=" M 99.87 67.42 C 100.84 64.67 102.32 62.12 104.46 60.10 C 105.54 60.57 106.62 61.04 107.69 61.55 C 109.15 63.22 110.65 64.87 112.27 66.40 L 111.97 64.99 C 112.63 65.66 113.31 66.32 113.99 66.97 L 112.70 66.59 C 113.77 67.80 114.88 68.99 115.99 70.17 C 115.30 74.20 115.98 78.26 116.35 82.29 L 115.36 81.73 C 105.55 74.95 93.07 79.50 83.35 84.08 C 82.13 82.97 80.91 81.86 79.65 80.80 C 80.04 80.79 80.82 80.78 81.21 80.77 C 81.98 80.74 82.76 80.69 83.53 80.64 C 83.55 80.29 83.58 79.61 83.60 79.27 C 85.85 76.83 87.99 74.30 90.17 71.80 C 92.54 71.98 94.21 70.49 95.43 68.62 C 97.18 69.10 98.98 69.40 100.80 69.38 C 104.14 71.13 107.04 73.57 110.17 75.65 C 107.46 72.09 103.61 69.73 99.87 67.42 Z" />
</g>
<g id="#b4b7c5ff">
<path fill="#b4b7c5" opacity="1.00" d=" M 181.14 70.67 C 177.46 67.04 180.92 62.38 183.09 59.02 C 185.36 60.89 187.29 63.19 188.05 66.09 C 187.67 66.80 186.92 68.21 186.54 68.92 C 186.25 70.46 186.04 72.01 185.83 73.56 C 185.26 73.38 184.12 73.02 183.55 72.84 L 183.82 74.25 C 182.87 73.10 181.95 71.92 181.14 70.67 Z" />
</g>
<g id="#e6c26eff">
<path fill="#e6c26e" opacity="1.00" d=" M 127.76 64.10 C 129.43 65.55 131.26 66.79 133.07 68.04 C 133.31 67.42 133.79 66.17 134.03 65.55 C 136.12 67.24 138.06 69.10 139.83 71.14 C 139.32 76.26 142.39 80.73 145.46 84.51 C 146.17 85.38 146.90 86.24 147.62 87.11 C 148.88 85.88 150.16 84.66 151.34 83.35 C 153.03 81.32 154.19 78.91 154.99 76.40 C 156.37 77.16 157.75 77.92 159.12 78.69 C 158.86 80.61 158.64 82.53 158.45 84.45 C 156.84 87.18 154.72 89.86 154.34 93.10 L 154.25 93.64 C 153.75 94.92 153.27 96.21 152.82 97.51 C 152.01 99.93 151.01 102.28 149.94 104.60 C 146.65 103.59 143.23 103.77 140.74 106.41 C 140.53 106.10 140.12 105.48 139.91 105.18 C 139.47 104.06 139.07 102.94 138.72 101.79 C 138.54 99.38 137.06 97.36 136.52 95.05 C 135.73 91.97 135.24 88.83 134.42 85.77 C 135.35 82.92 132.85 80.68 130.91 79.04 C 129.92 78.07 128.56 77.89 127.33 78.54 C 126.39 78.11 125.45 77.67 124.51 77.26 C 124.31 78.74 124.08 80.22 123.91 81.71 C 121.79 80.92 119.55 80.68 117.31 80.85 C 116.89 77.55 116.63 74.24 116.64 70.91 C 119.28 71.75 121.86 72.78 124.44 73.81 C 126.84 74.53 130.45 76.65 132.27 74.03 C 131.91 72.25 130.61 70.92 129.54 69.53 C 129.03 67.70 128.43 65.88 127.76 64.10 Z" />
<path fill="#e6c26e" opacity="1.00" d=" M 65.35 157.65 C 69.74 155.39 74.36 152.93 79.48 153.54 C 79.81 155.18 80.26 156.78 80.74 158.39 C 80.82 158.70 80.99 159.34 81.08 159.66 C 80.94 161.18 82.47 163.90 81.05 164.84 C 80.56 164.73 79.59 164.52 79.10 164.41 C 78.05 165.72 77.04 167.07 76.09 168.45 C 75.01 167.41 74.35 165.77 72.88 165.21 C 70.27 165.32 69.32 168.30 67.87 170.01 C 66.81 165.94 65.89 161.82 65.35 157.65 Z" />
</g>
<g id="#160f07b0">
<path fill="#160f07" opacity="0.69" d=" M 52.65 64.76 C 54.57 64.88 56.48 65.17 58.24 65.97 C 57.28 65.91 55.36 65.79 54.40 65.73 C 54.53 66.56 54.81 68.22 54.94 69.05 C 53.95 67.75 53.20 66.29 52.65 64.76 Z" />
</g>
<g id="#6f4c28ff">
<path fill="#6f4c28" opacity="1.00" d=" M 54.40 65.73 C 55.36 65.79 57.28 65.91 58.24 65.97 L 58.76 66.14 C 61.20 67.13 63.66 68.08 66.09 69.09 C 63.18 69.68 60.72 71.15 60.20 74.31 C 59.55 73.87 58.91 73.40 58.29 72.93 C 58.04 72.62 57.53 72.01 57.28 71.70 C 56.97 71.27 56.33 70.43 56.01 70.01 C 55.75 69.77 55.21 69.29 54.94 69.05 C 54.81 68.22 54.53 66.56 54.40 65.73 Z" />
</g>
<g id="#e9e8edff">
<path fill="#e9e8ed" opacity="1.00" d=" M 186.54 68.92 C 186.92 68.21 187.67 66.80 188.05 66.09 C 189.57 70.21 191.18 74.49 190.53 78.98 C 190.14 81.28 190.47 84.53 188.10 85.82 C 187.81 83.82 187.29 81.88 186.65 79.98 L 186.94 79.23 C 187.48 79.36 188.57 79.63 189.11 79.76 C 188.23 76.15 187.15 72.59 186.54 68.92 Z" />
</g>
<g id="#5a392aff">
<path fill="#5a392a" opacity="1.00" d=" M 66.09 69.09 C 68.96 71.60 71.41 74.54 73.82 77.49 C 69.25 76.67 64.32 76.73 60.20 74.31 C 60.72 71.15 63.18 69.68 66.09 69.09 Z" />
<path fill="#5a392a" opacity="1.00" d=" M 44.61 94.47 C 46.38 94.02 48.12 93.36 49.95 93.19 C 52.46 93.42 54.49 95.03 56.35 96.59 C 52.13 97.81 48.00 99.34 44.01 101.21 C 43.41 101.06 42.22 100.76 41.63 100.61 C 42.87 98.54 44.25 96.56 45.71 94.64 L 44.61 94.47 Z" />
</g>
<g id="#ccccd6ff">
<path fill="#ccccd6" opacity="1.00" d=" M 185.83 73.56 C 186.04 72.01 186.25 70.46 186.54 68.92 C 187.15 72.59 188.23 76.15 189.11 79.76 C 188.57 79.63 187.48 79.36 186.94 79.23 L 186.65 79.98 C 185.61 78.12 184.52 76.26 183.82 74.25 L 183.55 72.84 C 184.12 73.02 185.26 73.38 185.83 73.56 Z" />
</g>
<g id="#0d0804a0">
<path fill="#0d0804" opacity="0.63" d=" M 56.01 70.01 C 56.33 70.43 56.97 71.27 57.28 71.70 L 56.37 71.74 L 55.72 70.88 L 56.01 70.01 Z" />
</g>
<g id="#b2955dff">
<path fill="#b2955d" opacity="1.00" d=" M 141.21 75.96 C 144.82 77.56 148.50 78.99 152.28 80.11 C 151.93 81.18 151.62 82.26 151.34 83.35 C 150.16 84.66 148.88 85.88 147.62 87.11 C 146.90 86.24 146.17 85.38 145.46 84.51 C 144.09 81.64 142.43 78.91 141.21 75.96 Z" />
<path fill="#b2955d" opacity="1.00" d=" M 114.53 125.70 C 118.96 124.82 123.00 127.57 127.29 128.27 C 126.08 129.29 124.95 130.40 123.85 131.53 C 124.53 132.87 125.10 134.26 125.55 135.70 C 123.52 134.93 121.97 133.35 120.32 132.01 C 118.33 129.96 116.43 127.83 114.53 125.70 Z" />
</g>
<g id="#ac8d5dff">
<path fill="#ac8d5d" opacity="1.00" d=" M 33.68 77.97 C 37.54 77.26 41.44 76.88 45.35 76.57 C 46.81 78.49 48.36 80.35 49.98 82.13 C 47.58 83.11 45.13 83.97 42.61 84.56 C 42.42 85.18 42.23 85.80 42.03 86.42 C 39.73 84.44 37.38 82.52 34.84 80.85 C 34.57 80.65 34.02 80.23 33.74 80.03 C 33.73 79.51 33.69 78.48 33.68 77.97 Z" />
</g>
<g id="#eed8abff">
<path fill="#eed8ab" opacity="1.00" d=" M 127.33 78.54 C 128.56 77.89 129.92 78.07 130.91 79.04 C 132.85 80.68 135.35 82.92 134.42 85.77 C 132.61 82.88 130.21 80.37 127.33 78.54 Z" />
<path fill="#eed8ab" opacity="1.00" d=" M 81.34 108.42 C 83.67 107.17 86.48 109.49 85.35 112.01 C 83.17 115.43 79.68 117.84 75.88 119.14 C 74.52 119.79 73.46 119.47 72.69 118.17 C 73.84 113.77 76.54 109.36 81.34 108.42 Z" />
</g>
<g id="#946c3aff">
<path fill="#946c3a" opacity="1.00" d=" M 94.72 80.56 C 101.07 78.57 107.89 79.41 114.13 81.37 C 113.71 84.65 114.01 88.71 110.89 90.81 C 104.56 96.28 95.83 96.27 87.94 96.57 C 82.96 96.78 77.97 95.32 73.02 96.27 C 71.82 95.75 70.61 95.23 69.42 94.72 C 70.80 93.32 72.33 92.06 74.07 91.14 C 75.80 91.55 77.57 91.74 79.35 91.56 C 83.70 91.19 88.21 92.12 92.38 90.42 C 97.65 89.20 101.00 84.50 106.01 82.70 C 102.33 81.62 98.57 80.72 94.72 80.56 Z" />
</g>
<g id="#241c12c6">
<path fill="#241c12" opacity="0.78" d=" M 34.84 80.85 C 37.38 82.52 39.73 84.44 42.03 86.42 L 41.76 87.20 C 39.07 85.61 36.47 83.57 34.84 80.85 Z" />
</g>
<g id="#ece3ccff">
<path fill="#ece3cc" opacity="1.00" d=" M 117.31 80.85 C 119.55 80.68 121.79 80.92 123.91 81.71 C 123.77 84.95 123.81 88.51 125.69 91.29 C 127.20 93.56 130.06 94.12 132.53 94.63 C 130.93 95.63 129.33 96.63 127.73 97.63 C 124.82 96.30 121.51 95.19 119.62 92.44 C 117.53 88.96 117.77 84.74 117.31 80.85 Z" />
<path fill="#ece3cc" opacity="1.00" d=" M 138.41 105.89 C 138.79 105.71 139.54 105.36 139.91 105.18 C 140.12 105.48 140.53 106.10 140.74 106.41 C 143.57 108.63 147.22 107.61 150.45 107.18 C 149.69 109.08 147.78 109.95 146.04 110.72 C 143.92 110.76 141.94 109.99 140.03 109.17 C 140.18 107.74 139.64 106.65 138.41 105.89 Z" />
</g>
<g id="#744e26ff">
<path fill="#744e26" opacity="1.00" d=" M 114.13 81.37 L 115.36 81.73 L 116.35 82.29 C 116.56 84.21 116.78 86.13 116.83 88.07 C 117.21 90.71 114.63 92.36 112.96 93.97 C 107.26 98.99 99.47 101.17 91.96 100.35 C 85.56 99.47 78.83 99.47 73.02 96.27 C 77.97 95.32 82.96 96.78 87.94 96.57 C 95.83 96.27 104.56 96.28 110.89 90.81 C 114.01 88.71 113.71 84.65 114.13 81.37 Z" />
<path fill="#744e26" opacity="1.00" d=" M 128.75 104.96 C 129.85 103.70 130.91 102.42 132.01 101.16 C 132.61 101.67 133.82 102.69 134.42 103.20 C 134.04 103.59 133.28 104.36 132.90 104.74 L 132.32 104.97 C 131.43 104.96 129.64 104.96 128.75 104.96 Z" />
</g>
<g id="#fafafbff">
<path fill="#fafafb" opacity="1.00" d=" M 132.91 90.85 C 129.07 90.72 128.69 85.43 131.00 83.15 C 132.54 85.13 136.01 88.81 132.91 90.85 Z" />
</g>
<g id="#fefcfeff">
<path fill="#fefcfe" opacity="1.00" d=" M 154.34 93.10 C 155.61 90.95 156.84 88.77 158.31 86.75 C 159.05 89.58 157.61 93.63 154.25 93.64 L 154.34 93.10 Z" />
<path fill="#fefcfe" opacity="1.00" d=" M 111.31 156.67 C 111.57 156.23 112.09 155.35 112.35 154.91 C 112.31 155.34 112.22 156.19 112.18 156.62 L 111.31 156.67 Z" />
<path fill="#fefcfe" opacity="1.00" d=" M 80.30 172.25 C 80.94 172.87 81.57 173.49 82.21 174.11 C 82.25 178.13 82.02 182.24 80.35 185.96 C 79.65 182.85 78.77 179.79 77.61 176.83 L 77.37 176.07 C 78.35 174.79 79.33 173.52 80.30 172.25 Z" />
</g>
<g id="#9c8154ff">
<path fill="#9c8154" opacity="1.00" d=" M 112.13 95.91 C 113.92 94.06 115.75 92.24 117.69 90.55 C 118.50 91.93 119.29 93.33 120.17 94.68 C 118.17 95.73 116.19 96.82 114.24 97.94 C 113.52 97.27 112.82 96.59 112.13 95.91 Z" />
</g>
<g id="#734c28ff">
<path fill="#734c28" opacity="1.00" d=" M 39.14 96.63 C 39.80 95.78 40.67 95.25 41.75 95.04 C 42.46 94.90 43.90 94.62 44.61 94.47 L 45.71 94.64 C 44.25 96.56 42.87 98.54 41.63 100.61 C 40.94 100.43 39.57 100.06 38.88 99.88 C 38.31 99.71 37.16 99.36 36.59 99.18 C 37.60 98.52 38.36 97.55 39.14 96.63 Z" />
</g>
<g id="#bbae9eff">
<path fill="#bbae9e" opacity="1.00" d=" M 114.24 97.94 C 116.19 96.82 118.17 95.73 120.17 94.68 C 123.97 97.11 128.49 98.25 132.01 101.16 C 130.91 102.42 129.85 103.70 128.75 104.96 L 128.07 105.67 C 126.58 104.31 125.15 102.86 123.51 101.67 C 120.75 99.60 116.62 100.71 114.24 97.94 Z" />
</g>
<g id="#cbbeacff">
<path fill="#cbbeac" opacity="1.00" d=" M 132.53 94.63 C 133.78 94.91 135.07 95.12 136.27 95.59 C 137.23 97.60 137.78 99.77 138.72 101.79 C 139.07 102.94 139.47 104.06 139.91 105.18 C 139.54 105.36 138.79 105.71 138.41 105.89 L 137.83 106.17 C 137.63 105.79 137.24 105.03 137.04 104.66 C 134.67 101.49 131.35 99.16 127.73 97.63 C 129.33 96.63 130.93 95.63 132.53 94.63 Z" />
</g>
<g id="#281a0dce">
<path fill="#281a0d" opacity="0.81" d=" M 36.59 99.18 C 34.31 98.23 37.70 95.35 39.14 96.63 C 38.36 97.55 37.60 98.52 36.59 99.18 Z" />
</g>
<g id="#684429ff">
<path fill="#684429" opacity="1.00" d=" M 68.76 95.86 C 73.37 98.35 78.43 99.96 83.71 100.03 C 82.97 101.49 82.62 103.34 81.02 104.14 C 77.46 106.42 73.75 108.52 70.63 111.40 C 70.49 111.67 70.21 112.22 70.07 112.49 L 69.47 112.59 C 66.97 112.84 64.51 113.36 62.09 114.04 C 61.57 113.48 61.06 112.92 60.54 112.36 C 62.21 108.49 63.83 104.60 65.67 100.81 C 66.62 100.37 67.57 99.91 68.52 99.45 L 68.69 98.82 C 68.71 98.48 68.76 97.81 68.78 97.48 L 68.76 95.86 Z" />
</g>
<g id="#eccf92ff">
<path fill="#eccf92" opacity="1.00" d=" M 152.82 97.51 C 154.44 97.07 156.07 96.64 157.74 96.46 L 156.43 97.49 C 155.29 98.22 154.38 99.26 153.82 100.49 C 153.63 100.83 153.26 101.49 153.08 101.82 C 152.06 103.53 151.24 105.35 150.45 107.18 C 147.22 107.61 143.57 108.63 140.74 106.41 C 143.23 103.77 146.65 103.59 149.94 104.60 C 151.01 102.28 152.01 99.93 152.82 97.51 Z" />
</g>
<g id="#976e3aff">
<path fill="#976e3a" opacity="1.00" d=" M 48.30 100.40 C 53.10 98.49 58.29 96.13 63.53 97.80 C 59.81 101.10 55.85 104.26 51.17 106.09 C 51.28 105.69 51.51 104.90 51.63 104.50 C 50.58 104.06 49.54 103.63 48.50 103.19 C 48.44 102.26 48.37 101.33 48.30 100.40 Z" />
</g>
<g id="#ceae67ff">
<path fill="#ceae67" opacity="1.00" d=" M 105.14 99.99 C 107.15 98.78 109.15 97.55 111.13 96.30 C 112.06 97.11 112.98 97.93 113.89 98.75 C 111.18 100.13 109.16 102.43 107.41 104.85 C 106.35 103.39 105.61 101.73 105.14 99.99 Z" />
<path fill="#ceae67" opacity="1.00" d=" M 100.07 137.92 C 102.71 137.67 105.34 137.20 107.85 136.29 C 108.01 136.56 108.33 137.11 108.49 137.39 C 107.95 137.89 106.86 138.89 106.31 139.39 C 108.37 139.98 110.39 140.72 112.43 141.40 C 109.09 141.62 105.78 140.97 102.55 140.20 L 101.99 140.08 C 101.51 139.54 100.55 138.46 100.07 137.92 Z" />
</g>
<g id="#754f26ff">
<path fill="#754f26" opacity="1.00" d=" M 63.53 97.80 C 65.25 98.15 66.97 98.49 68.69 98.82 L 68.52 99.45 C 67.57 99.91 66.62 100.37 65.67 100.81 C 63.83 104.60 62.21 108.49 60.54 112.36 C 61.06 112.92 61.57 113.48 62.09 114.04 C 51.63 117.19 40.76 114.90 30.38 112.70 C 30.62 112.36 31.10 111.70 31.35 111.36 C 38.30 111.84 44.89 108.70 51.17 106.09 C 55.85 104.26 59.81 101.10 63.53 97.80 Z" />
</g>
<g id="#39342fce">
<path fill="#39342f" opacity="0.81" d=" M 153.82 100.49 C 154.38 99.26 155.29 98.22 156.43 97.49 C 157.64 98.93 155.40 101.62 153.82 100.49 Z" />
</g>
<g id="#a58251ff">
<path fill="#a58251" opacity="1.00" d=" M 43.06 102.84 C 44.80 102.03 46.54 101.19 48.30 100.40 C 48.37 101.33 48.44 102.26 48.50 103.19 C 49.54 103.63 50.58 104.06 51.63 104.50 C 51.51 104.90 51.28 105.69 51.17 106.09 C 44.89 108.70 38.30 111.84 31.35 111.36 C 32.91 109.88 34.40 108.24 36.32 107.22 C 36.74 106.89 37.58 106.25 38.00 105.93 C 39.41 104.51 41.28 103.69 43.06 102.84 Z" />
</g>
<g id="#9e8356ff">
<path fill="#9e8356" opacity="1.00" d=" M 83.05 103.34 C 84.15 102.25 84.94 100.02 86.91 100.59 C 92.76 101.58 98.66 100.99 104.49 100.13 C 104.68 101.19 104.89 102.24 105.13 103.29 C 103.09 105.86 101.23 108.55 99.40 111.27 C 98.45 109.90 97.21 108.78 95.90 107.77 C 94.59 106.71 93.26 105.67 91.85 104.74 C 89.00 103.83 86.01 103.61 83.05 103.34 Z" />
</g>
<g id="#ecdabaff">
<path fill="#ecdaba" opacity="1.00" d=" M 110.66 102.60 C 113.04 100.24 116.48 99.92 119.61 100.70 C 120.95 104.87 124.77 107.19 127.94 109.86 C 123.41 108.98 119.62 105.69 114.89 105.82 C 112.63 106.28 111.72 104.08 110.66 102.60 Z" />
</g>
<g id="#e2bf6dff">
<path fill="#e2bf6d" opacity="1.00" d=" M 119.61 100.70 C 123.46 102.14 126.18 105.33 129.47 107.64 C 132.05 109.52 135.09 110.64 138.17 111.41 C 138.51 113.06 138.85 114.70 139.21 116.35 C 135.76 116.76 131.76 117.57 129.71 120.68 C 128.98 122.97 130.45 125.15 131.13 127.27 C 129.84 127.57 128.55 127.88 127.29 128.27 C 123.00 127.57 118.96 124.82 114.53 125.70 C 111.19 121.87 107.20 118.10 105.89 113.02 C 105.74 109.04 108.34 105.61 110.66 102.60 C 111.72 104.08 112.63 106.28 114.89 105.82 C 119.62 105.69 123.41 108.98 127.94 109.86 C 124.77 107.19 120.95 104.87 119.61 100.70 Z" />
</g>
<g id="#cbbdacff">
<path fill="#cbbdac" opacity="1.00" d=" M 99.40 111.27 C 101.23 108.55 103.09 105.86 105.13 103.29 C 105.52 103.97 106.32 105.32 106.71 106.00 C 105.89 108.87 104.87 111.89 105.47 114.91 C 106.12 116.77 107.17 118.45 108.11 120.17 C 108.57 122.45 109.18 124.70 109.53 127.01 C 108.75 127.86 107.83 128.57 106.96 129.33 C 109.43 130.01 111.78 131.06 113.97 132.37 C 109.67 135.49 104.40 136.77 99.13 136.76 C 104.14 129.06 103.36 119.23 99.40 111.27 Z" />
</g>
<g id="#e4c06eff">
<path fill="#e4c06e" opacity="1.00" d=" M 68.41 117.81 C 72.66 109.51 82.03 101.92 91.85 104.74 C 93.26 105.67 94.59 106.71 95.90 107.77 C 102.45 115.48 104.36 127.65 98.36 136.21 C 90.16 138.18 80.90 137.25 74.11 131.92 C 70.27 128.33 68.79 122.90 68.41 117.81 M 81.34 108.42 C 76.54 109.36 73.84 113.77 72.69 118.17 C 73.46 119.47 74.52 119.79 75.88 119.14 C 79.68 117.84 83.17 115.43 85.35 112.01 C 86.48 109.49 83.67 107.17 81.34 108.42 Z" />
</g>
<g id="#2a2013af">
<path fill="#2a2013" opacity="0.69" d=" M 36.27 106.30 L 37.12 105.64 L 38.00 105.93 C 37.58 106.25 36.74 106.89 36.32 107.22 L 36.27 106.30 Z" />
</g>
<g id="#4d473fe2">
<path fill="#4d473f" opacity="0.89" d=" M 137.83 106.17 L 138.41 105.89 C 139.64 106.65 140.18 107.74 140.03 109.17 C 138.62 108.86 138.03 107.44 137.83 106.17 Z" />
</g>
<g id="#af945eff">
<path fill="#af945e" opacity="1.00" d=" M 138.17 111.41 C 139.42 111.66 140.67 111.90 141.93 112.12 C 143.04 112.34 144.12 112.89 144.87 113.76 C 145.28 115.29 145.67 116.82 146.08 118.35 C 143.87 117.41 141.61 116.56 139.21 116.35 C 138.85 114.70 138.51 113.06 138.17 111.41 Z" />
</g>
<g id="#8f7c5aff">
<path fill="#8f7c5a" opacity="1.00" d=" M 59.01 116.32 C 62.49 115.07 66.00 113.89 69.47 112.59 L 70.07 112.49 C 65.72 119.91 65.63 128.86 67.59 137.04 C 59.52 138.36 51.57 140.38 43.41 141.15 C 42.38 140.60 41.36 140.05 40.34 139.49 C 44.44 137.04 48.34 134.02 50.81 129.86 C 53.47 125.30 55.99 120.66 59.01 116.32 Z" />
</g>
<g id="#9f895cff">
<path fill="#9f895c" opacity="1.00" d=" M 57.03 116.79 C 57.52 116.68 58.51 116.44 59.01 116.32 C 55.99 120.66 53.47 125.30 50.81 129.86 C 48.34 134.02 44.44 137.04 40.34 139.49 C 41.36 140.05 42.38 140.60 43.41 141.15 C 38.09 141.78 32.72 142.15 27.37 141.67 C 31.38 138.58 36.64 137.81 40.62 134.66 C 44.72 131.47 48.20 127.57 51.78 123.83 C 52.79 122.47 55.08 120.73 53.24 118.97 C 54.45 118.17 55.70 117.41 57.03 116.79 Z" />
</g>
<g id="#f8f7f9ff">
<path fill="#f8f7f9" opacity="1.00" d=" M 130.84 120.22 C 134.54 117.27 140.78 115.65 144.64 119.10 C 148.68 122.26 152.48 125.82 157.07 128.20 C 162.43 131.24 168.11 133.64 173.81 135.98 C 175.73 136.80 177.67 137.56 179.60 138.38 C 178.29 138.97 176.98 139.62 175.55 139.89 C 166.28 141.26 156.57 140.15 148.14 135.93 C 142.11 132.85 135.50 130.05 131.28 124.52 C 130.42 123.41 129.30 121.24 130.84 120.22 Z" />
</g>
<g id="#282215a6">
<path fill="#282215" opacity="0.65" d=" M 40.37 126.48 C 44.27 124.16 47.80 121.08 52.20 119.72 C 45.97 124.12 39.48 128.12 33.08 132.26 C 34.72 129.50 37.88 128.31 40.37 126.48 Z" />
</g>
<g id="#cfb36bff">
<path fill="#cfb36b" opacity="1.00" d=" M 52.20 119.72 L 53.24 118.97 C 55.08 120.73 52.79 122.47 51.78 123.83 C 48.20 127.57 44.72 131.47 40.62 134.66 C 36.64 137.81 31.38 138.58 27.37 141.67 C 25.86 141.55 24.35 141.41 22.84 141.25 C 24.54 139.39 26.32 137.62 28.18 135.93 C 29.73 134.60 31.37 133.38 33.08 132.26 C 39.48 128.12 45.97 124.12 52.20 119.72 Z" />
<path fill="#cfb36b" opacity="1.00" d=" M 104.02 142.22 C 107.38 140.61 105.05 147.02 103.47 143.85 C 103.61 143.44 103.88 142.63 104.02 142.22 Z" />
</g>
<g id="#e0d3bdff">
<path fill="#e0d3bd" opacity="1.00" d=" M 108.11 120.17 C 110.96 123.65 114.00 126.98 117.16 130.19 C 116.09 130.90 115.04 131.64 113.97 132.37 C 111.78 131.06 109.43 130.01 106.96 129.33 C 107.83 128.57 108.75 127.86 109.53 127.01 C 109.18 124.70 108.57 122.45 108.11 120.17 Z" />
</g>
<g id="#eae8ebff">
<path fill="#eae8eb" opacity="1.00" d=" M 129.59 128.39 C 132.89 127.22 135.35 130.34 137.99 131.73 C 145.70 136.28 153.90 140.81 163.05 141.27 C 165.59 141.78 168.63 140.70 170.79 142.48 L 169.41 142.82 C 161.82 144.97 153.85 145.39 146.04 144.51 C 140.42 143.43 135.11 141.19 129.96 138.75 C 129.75 138.57 129.35 138.22 129.14 138.04 C 127.45 136.31 125.63 134.39 125.46 131.85 C 126.03 130.08 127.91 128.96 129.59 128.39 Z" />
</g>
<g id="#010101a7">
<path fill="#010101" opacity="0.65" d=" M 171.27 141.25 L 172.02 141.11 C 171.98 141.51 171.91 142.30 171.88 142.70 L 171.04 142.65 C 171.10 142.30 171.21 141.60 171.27 141.25 Z" />
</g>
<g id="#5f5f65ff">
<path fill="#5f5f65" opacity="1.00" d=" M 110.72 143.45 C 112.47 142.80 114.26 142.27 116.05 141.72 C 115.88 143.82 115.75 145.92 115.43 148.00 C 115.47 146.60 115.38 145.20 115.16 143.82 C 113.69 143.06 112.00 144.73 111.86 146.14 C 111.22 149.20 110.89 152.33 110.12 155.38 C 109.88 154.87 109.42 153.86 109.18 153.36 C 109.34 150.58 109.63 147.81 109.98 145.04 C 110.16 144.64 110.53 143.85 110.72 143.45 Z" />
</g>
<g id="#aab1c2ff">
<path fill="#aab1c2" opacity="1.00" d=" M 107.25 143.35 C 108.89 142.36 109.54 143.65 109.98 145.04 C 109.63 147.81 109.34 150.58 109.18 153.36 C 108.83 155.31 108.39 157.24 107.96 159.17 L 107.22 159.49 C 107.01 157.82 106.80 156.15 106.45 154.51 C 106.03 155.78 105.67 157.06 105.38 158.36 C 104.98 153.45 103.49 147.32 107.25 143.35 Z" />
</g>
<g id="#9ea4b6ff">
<path fill="#9ea4b6" opacity="1.00" d=" M 111.86 146.14 C 112.00 144.73 113.69 143.06 115.16 143.82 C 115.38 145.20 115.47 146.60 115.43 148.00 C 115.04 149.74 114.49 151.45 113.94 153.14 C 113.54 153.59 112.74 154.47 112.35 154.91 C 112.09 155.35 111.57 156.23 111.31 156.67 C 111.24 157.33 111.09 158.63 111.02 159.29 C 110.43 158.05 110.13 156.75 110.12 155.38 C 110.89 152.33 111.22 149.20 111.86 146.14 Z" />
</g>
<g id="#edeff5ff">
<path fill="#edeff5" opacity="1.00" d=" M 106.45 154.51 C 106.80 156.15 107.01 157.82 107.22 159.49 C 106.94 159.96 106.38 160.88 106.10 161.34 C 105.92 160.59 105.56 159.10 105.38 158.36 C 105.67 157.06 106.03 155.78 106.45 154.51 Z" />
</g>
<g id="#1a1a1cb8">
<path fill="#1a1a1c" opacity="0.72" d=" M 109.18 153.36 C 109.42 153.86 109.88 154.87 110.12 155.38 C 110.13 156.75 110.43 158.05 111.02 159.29 C 109.96 159.54 108.88 159.71 107.80 159.86 L 107.96 159.17 C 108.39 157.24 108.83 155.31 109.18 153.36 Z" />
</g>
<g id="#d4d5ddff">
<path fill="#d4d5dd" opacity="1.00" d=" M 70.03 168.26 C 71.02 167.24 72.04 166.25 73.11 165.32 C 74.19 167.10 74.87 169.07 75.32 171.09 C 74.13 171.32 72.94 171.56 71.75 171.79 C 71.17 170.61 70.60 169.44 70.03 168.26 Z" />
</g>
<g id="#b3b7c4ff">
<path fill="#b3b7c4" opacity="1.00" d=" M 77.37 176.07 C 75.80 172.69 76.06 167.20 80.04 165.86 C 80.41 165.97 81.13 166.20 81.50 166.31 C 82.13 168.86 82.17 171.50 82.21 174.11 C 81.57 173.49 80.94 172.87 80.30 172.25 C 79.33 173.52 78.35 174.79 77.37 176.07 Z" />
</g>
<g id="#21212298">
<path fill="#212122" opacity="0.60" d=" M 77.12 186.96 C 77.09 183.57 77.26 180.20 77.61 176.83 C 78.77 179.79 79.65 182.85 80.35 185.96 C 80.22 186.33 79.98 187.06 79.86 187.43 C 79.45 185.81 79.10 184.16 78.78 182.53 L 77.69 182.38 C 77.52 183.91 77.35 185.44 77.12 186.96 Z" />
</g>
</svg>
