<?xml version="1.0" encoding="UTF-8" ?>
<!DOCTYPE svg PUBLIC "-//W3C//DTD SVG 1.1//EN" "http://www.w3.org/Graphics/SVG/1.1/DTD/svg11.dtd">
<svg width="215pt" height="215pt" viewBox="0 0 215 215" version="1.1" xmlns="http://www.w3.org/2000/svg">
<g id="#111316ff">
<path fill="#111316" opacity="1.00" d=" M 84.40 25.00 C 86.18 25.46 88.37 25.99 88.98 28.01 C 89.62 31.58 89.62 35.27 90.70 38.78 C 93.03 37.97 95.33 37.06 97.65 36.19 L 96.39 37.23 C 95.66 37.77 94.92 38.30 94.17 38.82 C 98.91 39.97 101.48 44.22 104.99 47.14 C 107.41 45.66 109.18 43.38 111.24 41.48 C 109.21 40.25 107.19 39.00 105.13 37.82 C 103.17 36.60 101.07 35.55 98.74 35.27 C 99.10 35.01 99.81 34.47 100.16 34.20 C 104.71 34.50 107.95 38.65 111.91 40.62 C 114.77 38.46 118.22 37.48 121.65 36.67 C 129.05 34.23 136.30 31.32 143.73 28.98 C 143.90 29.78 144.24 31.38 144.41 32.18 C 143.24 32.89 142.04 33.56 140.77 34.07 C 141.82 32.85 142.72 31.53 143.49 30.11 C 135.75 32.75 128.16 35.84 120.32 38.14 C 117.89 38.91 115.55 39.96 113.43 41.38 C 111.31 42.94 109.36 44.71 107.44 46.52 C 107.03 46.90 106.20 47.68 105.79 48.07 C 106.39 49.53 106.98 51.00 107.61 52.46 C 104.21 48.45 101.04 44.10 96.65 41.09 C 91.40 38.73 85.55 39.54 79.99 38.86 C 70.51 38.24 61.15 36.48 51.70 35.60 C 48.31 35.28 44.72 35.14 41.66 36.89 L 41.14 38.22 C 40.18 41.22 40.05 44.43 40.85 47.49 C 41.05 48.39 41.26 49.29 41.46 50.20 C 41.20 50.03 40.67 49.68 40.40 49.51 C 39.84 48.45 39.31 47.38 38.80 46.29 C 35.86 50.95 32.93 56.77 35.80 62.20 C 37.96 68.54 36.92 75.55 39.31 81.89 C 40.17 84.61 41.32 87.23 42.19 89.95 C 41.56 90.77 40.69 91.32 39.58 91.61 C 38.71 92.57 37.76 93.45 36.67 94.16 C 37.80 92.33 39.12 90.62 40.47 88.94 C 40.15 88.22 39.51 86.80 39.19 86.09 C 38.79 86.71 38.00 87.93 37.60 88.55 L 37.18 88.24 C 37.02 87.93 36.69 87.31 36.53 87.00 C 37.14 86.50 38.35 85.51 38.96 85.01 C 38.37 82.75 37.84 80.48 37.35 78.21 C 33.71 80.84 30.85 84.69 26.54 86.31 C 27.80 85.17 29.08 84.05 30.39 82.97 C 32.72 81.08 35.03 79.16 37.22 77.11 C 36.80 75.70 36.38 74.28 35.96 72.87 C 35.35 73.28 34.12 74.11 33.51 74.53 C 36.36 71.16 36.78 66.07 34.63 62.23 C 31.77 56.52 35.14 50.18 38.34 45.40 C 39.68 41.58 39.48 35.75 44.40 34.57 C 55.45 33.93 66.25 37.21 77.27 37.62 C 78.59 35.69 79.92 33.75 81.46 31.99 C 80.60 33.82 79.74 35.65 78.88 37.49 C 82.41 37.66 85.95 37.84 89.49 38.11 C 89.11 35.61 88.82 33.10 88.50 30.59 C 88.49 28.70 87.63 26.98 85.82 26.24 C 84.63 27.07 83.70 28.15 83.01 29.48 C 82.56 30.18 82.11 30.88 81.68 31.58 C 82.17 29.23 83.21 27.07 84.40 25.00 Z" />
<path fill="#111316" opacity="1.00" d=" M 71.20 44.90 C 77.45 44.00 83.80 44.19 90.09 44.57 C 91.82 45.04 93.53 45.59 95.24 46.14 C 94.58 46.21 93.26 46.36 92.59 46.43 C 93.71 50.86 95.88 56.88 92.12 60.58 C 91.94 60.45 91.58 60.21 91.40 60.09 C 92.28 57.80 93.74 55.58 93.77 53.07 C 93.18 50.50 91.98 48.14 90.84 45.78 C 89.51 45.62 88.18 45.46 86.86 45.30 C 87.83 48.86 88.07 52.62 87.07 56.20 C 87.82 56.99 88.58 57.79 89.35 58.57 C 86.31 56.51 83.37 54.31 80.46 52.06 C 77.39 49.64 73.91 47.76 71.20 44.90 M 74.83 45.62 C 75.57 47.65 77.30 48.85 79.24 49.57 C 79.85 50.23 80.46 50.88 81.07 51.54 L 81.25 51.51 C 82.64 52.76 84.07 53.98 85.50 55.20 L 86.43 54.15 C 87.97 51.34 86.82 47.91 84.90 45.59 C 83.43 45.42 81.95 45.45 80.47 45.43 C 78.59 45.34 76.70 45.37 74.83 45.62 Z" />
<path fill="#111316" opacity="1.00" d=" M 41.88 60.36 C 42.82 59.39 43.78 58.44 44.74 57.49 C 47.71 59.53 50.59 61.74 53.80 63.40 C 56.20 64.63 58.89 64.44 61.49 64.23 C 60.62 64.79 59.75 65.34 58.88 65.91 C 60.40 70.68 61.08 75.66 62.20 80.53 C 63.07 84.79 64.43 89.71 61.67 93.60 C 60.18 96.44 56.50 95.48 53.90 95.80 C 52.14 95.68 50.40 95.42 48.66 95.15 C 48.61 93.65 48.56 92.14 48.56 90.63 C 48.56 85.36 48.43 80.03 47.08 74.90 C 45.63 74.21 43.53 74.19 42.74 72.55 C 41.29 69.24 41.33 65.52 40.23 62.10 C 40.64 61.67 41.47 60.80 41.88 60.36 M 41.59 63.76 C 42.29 66.30 42.54 68.99 43.63 71.41 C 44.49 73.25 47.05 73.60 48.81 73.10 C 50.38 70.24 50.55 66.79 52.33 64.00 C 49.71 62.79 47.54 60.84 45.03 59.47 C 42.59 59.09 42.34 62.18 41.59 63.76 M 52.99 64.94 C 52.11 67.48 51.24 70.03 50.46 72.61 C 50.04 72.97 49.19 73.70 48.76 74.06 C 48.83 77.11 48.98 80.17 49.52 83.17 C 49.41 85.19 49.61 87.20 49.70 89.22 C 51.43 87.78 53.11 86.28 54.71 84.70 C 55.30 84.77 55.89 84.85 56.49 84.92 C 53.29 86.41 50.28 89.23 49.98 92.92 C 52.00 95.47 56.00 94.72 58.88 94.40 C 63.04 92.14 61.57 86.71 61.26 82.89 C 59.85 83.41 58.44 83.94 57.08 84.58 C 57.32 84.20 57.82 83.44 58.06 83.06 C 59.19 82.33 61.27 82.10 60.76 80.28 C 60.09 75.42 58.51 70.71 58.08 65.80 C 56.39 65.48 54.69 65.20 52.99 64.94 Z" />
<path fill="#111316" opacity="1.00" d=" M 83.03 65.16 C 92.24 68.56 99.98 74.75 107.99 80.23 C 111.55 82.96 115.55 85.29 118.28 88.93 C 110.62 88.60 104.41 83.32 97.69 80.22 C 92.01 76.20 85.59 72.63 81.46 66.90 C 82.02 67.26 83.14 67.98 83.70 68.34 C 92.99 76.52 103.80 83.00 115.30 87.53 C 110.11 82.57 103.78 79.00 98.05 74.70 C 93.67 71.52 88.91 68.99 84.23 66.30 C 83.93 66.02 83.33 65.44 83.03 65.16 Z" />
<path fill="#111316" opacity="1.00" d=" M 26.39 82.33 C 28.47 79.68 30.32 76.68 33.26 74.90 C 31.71 77.25 29.93 79.45 28.16 81.64 C 26.46 83.72 24.89 85.89 23.37 88.10 L 25.29 87.31 L 26.66 87.57 C 25.19 88.39 23.67 89.15 22.12 89.82 C 22.65 86.90 24.78 84.70 26.39 82.33 Z" />
<path fill="#111316" opacity="1.00" d=" M 81.15 76.98 C 84.83 78.68 87.52 81.88 90.13 84.89 C 93.65 89.29 97.17 93.75 99.70 98.81 C 93.35 97.37 88.65 92.31 84.60 87.51 C 82.79 84.89 80.14 82.38 80.23 78.96 L 80.66 79.67 C 84.66 86.75 90.19 93.07 97.37 97.05 C 93.47 89.83 87.81 83.79 82.04 78.05 C 81.82 77.78 81.37 77.24 81.15 76.98 Z" />
<path fill="#111316" opacity="1.00" d=" M 35.83 88.61 C 36.02 88.90 36.40 89.50 36.59 89.79 L 36.62 90.52 C 35.43 92.26 34.43 94.11 33.52 96.00 C 34.24 95.66 35.66 94.98 36.37 94.63 C 35.68 96.39 34.14 97.23 32.33 97.38 C 33.16 94.33 34.28 91.37 35.83 88.61 Z" />
<path fill="#111316" opacity="1.00" d=" M 43.08 91.09 C 43.18 91.09 43.39 91.09 43.49 91.09 C 44.34 94.36 46.25 97.18 48.40 99.73 C 49.40 101.00 50.42 102.25 51.36 103.57 C 50.98 106.62 50.81 109.69 50.52 112.75 C 49.96 109.43 51.69 105.56 49.29 102.68 C 47.14 100.09 45.32 97.26 43.19 94.66 C 42.93 93.47 42.89 92.28 43.08 91.09 Z" />
<path fill="#111316" opacity="1.00" d=" M 101.10 183.67 C 103.53 185.56 105.82 189.29 109.24 186.96 C 109.85 186.53 111.07 185.67 111.68 185.25 C 110.78 187.25 108.64 188.12 107.21 189.66 C 106.46 189.68 105.71 189.70 104.97 189.72 C 103.93 187.56 101.44 185.94 101.10 183.67 Z" />
</g>
<g id="#dae6f9ff">
<path fill="#dae6f9" opacity="1.00" d=" M 83.01 29.48 C 83.70 28.15 84.63 27.07 85.82 26.24 C 87.63 26.98 88.49 28.70 88.50 30.59 C 86.65 30.32 84.81 29.98 83.01 29.48 Z" />
</g>
<g id="#a9b7d4ff">
<path fill="#a9b7d4" opacity="1.00" d=" M 81.68 31.58 C 82.11 30.88 82.56 30.18 83.01 29.48 C 84.81 29.98 86.65 30.32 88.50 30.59 C 88.82 33.10 89.11 35.61 89.49 38.11 C 85.95 37.84 82.41 37.66 78.88 37.49 C 79.74 35.65 80.60 33.82 81.46 31.99 C 81.52 31.89 81.63 31.68 81.68 31.58 Z" />
<path fill="#a9b7d4" opacity="1.00" d=" M 110.08 49.35 C 113.54 47.29 117.17 45.52 120.97 44.17 C 120.31 45.38 119.65 46.58 118.99 47.79 C 119.56 47.85 120.72 47.98 121.30 48.05 C 121.07 48.95 120.84 49.86 120.62 50.77 C 117.50 52.09 114.56 53.82 111.82 55.82 C 111.06 55.69 110.30 55.56 109.54 55.43 C 108.91 54.43 108.25 53.45 107.61 52.46 C 106.98 51.00 106.39 49.53 105.79 48.07 C 106.20 47.68 107.03 46.90 107.44 46.52 C 108.32 47.46 109.20 48.41 110.08 49.35 Z" />
</g>
<g id="#ffffffff">
<path fill="#ffffff" opacity="1.00" d=" M 120.32 38.14 C 128.16 35.84 135.75 32.75 143.49 30.11 C 142.72 31.53 141.82 32.85 140.77 34.07 L 140.25 34.48 C 140.03 34.54 139.59 34.68 139.37 34.75 C 136.17 36.01 132.97 37.34 129.95 39.01 C 124.30 37.32 118.99 40.89 113.43 41.38 C 115.55 39.96 117.89 38.91 120.32 38.14 Z" />
<path fill="#ffffff" opacity="1.00" d=" M 74.83 45.62 C 76.70 45.37 78.59 45.34 80.47 45.43 C 80.07 46.81 79.66 48.19 79.24 49.57 C 77.30 48.85 75.57 47.65 74.83 45.62 Z" />
<path fill="#ffffff" opacity="1.00" d=" M 41.59 63.76 C 42.34 62.18 42.59 59.09 45.03 59.47 C 47.54 60.84 49.71 62.79 52.33 64.00 C 50.55 66.79 50.38 70.24 48.81 73.10 C 47.05 73.60 44.49 73.25 43.63 71.41 C 42.54 68.99 42.29 66.30 41.59 63.76 Z" />
<path fill="#ffffff" opacity="1.00" d=" M 124.26 177.47 C 126.28 173.82 129.51 169.53 134.13 169.78 C 131.44 172.06 128.98 174.59 126.60 177.19 C 126.02 177.26 124.84 177.40 124.26 177.47 Z" />
<path fill="#ffffff" opacity="1.00" d=" M 95.58 180.61 C 95.61 180.17 95.67 179.28 95.70 178.83 C 97.04 179.31 98.36 179.84 99.66 180.43 C 98.57 181.66 96.98 182.19 95.56 182.92 C 95.57 182.34 95.58 181.19 95.58 180.61 Z" />
<path fill="#ffffff" opacity="1.00" d=" M 100.80 182.81 C 101.97 178.55 107.08 179.56 110.23 180.65 C 107.63 181.78 105.60 185.55 109.24 186.96 C 105.82 189.29 103.53 185.56 101.10 183.67 L 100.80 182.81 Z" />
</g>
<g id="#15171fff">
<path fill="#15171f" opacity="1.00" d=" M 139.26 36.66 C 142.54 35.72 145.96 34.49 149.41 34.77 C 157.26 37.50 163.37 43.38 170.16 47.94 C 175.24 51.29 180.15 55.16 186.05 56.99 C 188.49 57.78 190.89 58.70 193.19 59.85 C 192.85 61.01 192.51 62.17 192.17 63.33 C 188.50 63.78 184.81 63.52 181.13 63.44 C 178.64 71.63 173.84 78.99 168.77 85.83 C 166.27 88.77 163.32 92.45 159.09 92.42 C 153.79 92.74 148.52 91.87 143.26 91.30 C 145.53 94.02 147.87 96.77 150.83 98.77 C 156.88 98.19 162.33 95.16 168.17 93.72 C 170.90 93.26 174.88 96.20 173.11 99.14 C 169.14 105.36 163.23 110.18 160.20 117.03 C 160.77 118.40 160.75 120.21 162.02 121.19 C 164.89 121.50 167.88 121.13 170.60 122.31 C 170.66 127.12 165.80 129.04 162.83 131.90 C 162.89 140.90 161.15 150.17 156.04 157.73 C 159.15 161.79 160.86 167.14 159.19 172.17 C 158.08 174.31 155.92 175.62 153.67 176.31 C 154.68 175.38 155.70 174.46 156.69 173.52 C 159.22 170.77 158.87 166.78 157.97 163.45 C 157.17 161.87 156.27 160.35 155.39 158.82 C 149.71 164.13 142.37 167.02 135.01 169.15 C 136.17 170.78 137.30 172.43 138.41 174.09 C 138.26 174.69 137.97 175.87 137.82 176.46 C 138.76 176.63 139.71 176.81 140.66 176.98 C 142.28 174.63 144.40 172.08 147.57 172.31 C 149.83 172.97 150.98 175.24 152.42 176.90 C 149.21 179.76 144.90 181.01 140.65 180.47 C 140.62 179.78 140.56 178.38 140.52 177.68 C 135.07 174.90 129.81 179.20 124.24 178.66 C 122.15 175.46 126.43 172.81 128.12 170.55 C 124.78 171.11 121.40 171.38 118.03 171.57 C 115.54 175.51 117.57 181.02 113.74 184.19 C 113.56 184.13 113.21 184.01 113.04 183.95 C 112.57 182.48 111.55 181.41 110.23 180.65 C 107.08 179.56 101.97 178.55 100.80 182.81 C 98.57 182.81 96.38 183.19 94.21 183.61 C 94.22 182.37 94.68 181.38 95.58 180.61 C 95.58 181.19 95.57 182.34 95.56 182.92 C 96.98 182.19 98.57 181.66 99.66 180.43 C 98.36 179.84 97.04 179.31 95.70 178.83 C 96.02 176.75 96.32 174.66 96.58 172.57 C 93.65 172.04 89.55 173.78 87.48 171.08 C 88.68 168.99 90.19 167.11 91.60 165.17 C 86.03 163.88 80.91 161.24 76.10 158.21 C 73.69 163.02 71.84 168.17 68.63 172.54 C 67.30 174.46 64.94 175.11 62.97 176.14 C 62.25 174.88 61.55 173.61 60.86 172.35 C 56.43 173.25 52.00 175.58 47.41 174.36 C 49.10 171.09 51.20 168.05 53.47 165.17 C 48.72 150.02 45.43 133.63 49.16 117.88 C 49.08 114.77 52.57 113.27 51.83 109.93 L 52.13 110.65 C 52.25 110.95 52.48 111.54 52.60 111.83 C 52.84 115.02 53.29 118.20 53.33 121.41 C 52.39 119.05 51.66 116.62 50.85 114.22 C 48.20 124.41 48.33 135.12 49.90 145.47 C 50.75 150.43 51.96 155.31 53.18 160.18 C 53.52 161.67 53.85 163.16 54.18 164.65 C 57.83 165.19 60.70 167.53 62.45 170.70 C 64.52 170.41 66.61 170.31 68.69 170.63 C 71.12 166.42 73.42 162.12 75.26 157.61 C 72.92 155.64 70.62 153.63 68.47 151.46 C 63.70 146.31 58.07 140.69 57.63 133.28 C 58.43 135.01 59.18 136.76 59.98 138.50 C 67.15 150.66 78.65 161.34 92.85 164.19 C 91.77 159.84 90.68 155.49 89.75 151.11 C 88.99 147.31 86.67 144.11 85.37 140.50 C 85.44 139.77 85.57 138.31 85.64 137.59 C 86.57 139.95 87.52 142.32 88.92 144.46 C 89.20 141.23 88.95 137.84 90.44 134.85 C 90.42 139.20 89.38 143.57 90.36 147.89 C 91.13 151.57 92.07 155.23 92.90 158.90 C 94.51 165.01 98.71 170.83 96.93 177.40 C 98.16 178.22 99.38 179.05 100.60 179.89 C 102.62 179.34 104.63 178.48 106.76 178.59 C 109.70 178.97 112.24 180.65 114.78 182.06 C 114.60 175.59 117.99 169.98 120.34 164.20 C 122.43 160.03 123.84 155.56 126.04 151.44 C 125.28 158.19 121.54 164.04 119.10 170.25 C 129.26 169.95 139.35 167.18 148.26 162.31 C 153.03 159.81 156.73 155.51 158.65 150.50 C 163.19 137.66 162.71 122.90 156.62 110.65 C 151.04 99.33 141.71 90.15 130.70 84.10 C 126.37 81.28 120.08 80.04 118.60 74.33 C 115.93 67.88 113.14 61.43 109.54 55.43 C 110.30 55.56 111.06 55.69 111.82 55.82 C 114.56 53.82 117.50 52.09 120.62 50.77 C 125.58 48.79 130.85 47.80 136.01 46.48 C 145.17 44.24 154.36 48.28 162.08 52.91 C 167.70 56.85 174.49 62.31 173.56 69.99 C 172.11 75.36 168.43 79.78 165.11 84.12 C 163.36 86.08 161.76 88.71 158.93 89.11 C 153.01 89.86 147.03 89.17 141.09 89.27 L 141.01 89.80 C 146.65 90.61 152.33 91.34 158.03 91.32 C 160.26 91.35 162.61 90.87 164.24 89.25 C 169.96 83.93 173.43 76.80 177.20 70.08 C 178.57 67.70 179.40 65.07 180.10 62.43 C 183.65 62.51 187.23 62.88 190.76 62.36 C 191.18 61.89 192.03 60.96 192.45 60.49 C 189.71 59.47 186.95 58.52 184.20 57.52 C 173.93 53.28 165.88 45.32 156.64 39.37 C 154.28 37.92 151.84 36.37 149.05 35.97 C 145.37 35.87 141.84 37.14 138.29 37.96 C 134.50 38.87 130.71 39.79 126.97 40.87 C 127.71 40.40 129.20 39.47 129.95 39.01 C 132.97 37.34 136.17 36.01 139.37 34.75 C 139.35 35.23 139.29 36.18 139.26 36.66 M 137.43 47.70 C 146.94 52.53 155.16 62.77 152.94 73.99 C 151.56 80.37 146.17 84.47 140.77 87.44 C 145.03 88.76 149.52 87.97 153.90 88.24 C 156.44 88.07 159.34 88.20 161.39 86.44 C 163.80 84.13 165.60 81.29 167.45 78.54 L 167.80 78.35 C 170.20 74.51 173.28 70.09 171.62 65.33 C 169.57 60.37 165.26 56.75 160.86 53.88 C 153.85 49.72 145.79 46.07 137.43 47.70 M 130.27 49.28 C 123.79 50.74 117.51 53.36 112.11 57.24 C 112.54 58.07 112.98 58.91 113.41 59.75 C 115.76 64.95 118.17 70.13 120.46 75.36 C 121.64 77.89 124.22 79.26 126.62 80.42 C 130.55 82.26 134.22 84.58 137.88 86.89 C 140.96 85.42 144.22 84.09 146.75 81.71 C 150.37 78.56 152.05 73.62 152.22 68.94 C 151.04 61.56 146.44 55.05 140.21 51.02 L 139.98 51.08 C 137.19 49.02 133.60 48.46 130.27 49.28 M 154.08 99.43 C 153.17 99.48 152.26 99.53 151.36 99.58 C 154.63 104.43 158.08 109.27 159.91 114.89 C 162.92 109.29 167.88 105.17 171.37 99.92 C 172.66 97.52 172.08 94.80 169.14 94.18 C 164.19 96.15 159.08 97.62 154.08 99.43 M 162.03 122.28 C 162.43 125.01 162.67 127.76 162.91 130.51 C 165.61 128.69 168.04 126.50 170.13 123.99 C 168.03 121.61 164.83 122.33 162.03 122.28 M 54.05 165.70 C 52.11 168.27 49.90 170.76 48.96 173.91 C 53.16 173.65 57.44 173.09 61.20 171.08 C 59.38 168.61 56.91 166.78 54.05 165.70 M 89.01 170.88 C 91.24 171.44 93.55 171.59 95.85 171.61 C 95.25 169.65 95.03 166.67 92.99 165.76 C 91.42 167.26 90.18 169.06 89.01 170.88 M 124.26 177.47 C 124.84 177.40 126.02 177.26 126.60 177.19 C 130.29 176.89 133.81 175.76 137.39 174.93 C 136.38 173.16 135.25 171.47 134.13 169.78 C 129.51 169.53 126.28 173.82 124.26 177.47 M 63.19 173.83 C 64.45 174.68 66.26 173.66 67.14 172.66 C 66.65 170.82 62.25 171.75 63.19 173.83 M 141.75 179.63 C 144.66 179.33 148.38 179.44 150.34 176.93 C 150.17 174.70 147.55 174.09 146.04 172.98 C 143.74 174.54 141.84 176.71 141.75 179.63 Z" />
<path fill="#15171f" opacity="1.00" d=" M 47.86 47.18 C 49.06 45.73 50.44 44.43 51.93 43.27 C 51.09 44.87 50.15 46.40 49.29 47.99 C 48.93 47.79 48.21 47.38 47.86 47.18 Z" />
</g>
<g id="#e1e8f3ff">
<path fill="#e1e8f3" opacity="1.00" d=" M 51.70 35.60 C 61.15 36.48 70.51 38.24 79.99 38.86 C 85.55 39.54 91.40 38.73 96.65 41.09 C 94.46 42.26 92.27 43.41 90.09 44.57 C 83.80 44.19 77.45 44.00 71.20 44.90 C 73.91 47.76 77.39 49.64 80.46 52.06 C 77.03 56.40 72.25 59.52 66.82 60.70 C 62.55 62.08 57.59 60.56 53.80 63.40 C 50.59 61.74 47.71 59.53 44.74 57.49 C 43.78 58.44 42.82 59.39 41.88 60.36 C 41.21 60.05 39.86 59.43 39.19 59.12 C 38.06 60.14 36.93 61.17 35.80 62.20 C 32.93 56.77 35.86 50.95 38.80 46.29 C 39.31 47.38 39.84 48.45 40.40 49.51 C 41.33 51.28 42.57 53.69 45.00 53.20 C 47.71 53.22 49.16 50.59 50.86 48.91 C 50.47 48.68 49.68 48.22 49.29 47.99 C 50.15 46.40 51.09 44.87 51.93 43.27 C 52.31 39.16 47.42 40.25 44.94 40.86 C 41.61 41.10 41.90 45.13 40.85 47.49 C 40.05 44.43 40.18 41.22 41.14 38.22 C 47.47 36.38 53.97 37.69 60.40 37.92 C 57.53 37.03 54.64 36.21 51.70 35.60 Z" />
</g>
<g id="#e1e8f4ff">
<path fill="#e1e8f4" opacity="1.00" d=" M 97.65 36.19 C 97.92 35.96 98.47 35.50 98.74 35.27 C 101.07 35.55 103.17 36.60 105.13 37.82 C 102.22 37.65 99.30 37.56 96.39 37.23 L 97.65 36.19 Z" />
<path fill="#e1e8f4" opacity="1.00" d=" M 138.29 37.96 C 141.84 37.14 145.37 35.87 149.05 35.97 C 151.84 36.37 154.28 37.92 156.64 39.37 C 152.05 39.31 147.50 39.96 142.92 40.05 C 141.07 40.28 139.70 38.88 138.29 37.96 Z" />
<path fill="#e1e8f4" opacity="1.00" d=" M 39.31 81.89 C 39.67 81.76 40.38 81.49 40.74 81.36 C 42.33 85.06 43.43 90.84 48.56 90.63 C 48.56 92.14 48.61 93.65 48.66 95.15 C 48.69 96.68 48.55 98.21 48.40 99.73 C 46.25 97.18 44.34 94.36 43.49 91.09 C 43.39 91.09 43.18 91.09 43.08 91.09 C 42.86 90.80 42.42 90.23 42.19 89.95 C 41.32 87.23 40.17 84.61 39.31 81.89 Z" />
</g>
<g id="#f6fbfeff">
<path fill="#f6fbfe" opacity="1.00" d=" M 41.66 36.89 C 44.72 35.14 48.31 35.28 51.70 35.60 C 54.64 36.21 57.53 37.03 60.40 37.92 C 53.97 37.69 47.47 36.38 41.14 38.22 L 41.66 36.89 Z" />
</g>
<g id="#90a5c7ff">
<path fill="#90a5c7" opacity="1.00" d=" M 94.17 38.82 C 94.92 38.30 95.66 37.77 96.39 37.23 C 99.30 37.56 102.22 37.65 105.13 37.82 C 107.19 39.00 109.21 40.25 111.24 41.48 C 109.18 43.38 107.41 45.66 104.99 47.14 C 101.48 44.22 98.91 39.97 94.17 38.82 Z" />
</g>
<g id="#bccbe7ff">
<path fill="#bccbe7" opacity="1.00" d=" M 113.43 41.38 C 118.99 40.89 124.30 37.32 129.95 39.01 C 129.20 39.47 127.71 40.40 126.97 40.87 C 130.71 39.79 134.50 38.87 138.29 37.96 C 139.70 38.88 141.07 40.28 142.92 40.05 C 147.50 39.96 152.05 39.31 156.64 39.37 C 165.88 45.32 173.93 53.28 184.20 57.52 C 183.86 57.81 183.18 58.39 182.84 58.67 C 184.54 59.34 186.26 59.99 187.98 60.61 C 185.10 60.60 182.20 60.79 179.41 61.57 C 183.17 62.12 186.96 62.37 190.76 62.36 C 187.23 62.88 183.65 62.51 180.10 62.43 C 179.40 65.07 178.57 67.70 177.20 70.08 C 173.43 76.80 169.96 83.93 164.24 89.25 C 162.61 90.87 160.26 91.35 158.03 91.32 C 152.33 91.34 146.65 90.61 141.01 89.80 L 141.09 89.27 C 147.03 89.17 153.01 89.86 158.93 89.11 C 161.76 88.71 163.36 86.08 165.11 84.12 C 168.43 79.78 172.11 75.36 173.56 69.99 C 174.49 62.31 167.70 56.85 162.08 52.91 C 154.36 48.28 145.17 44.24 136.01 46.48 C 130.85 47.80 125.58 48.79 120.62 50.77 C 120.84 49.86 121.07 48.95 121.30 48.05 C 120.72 47.98 119.56 47.85 118.99 47.79 C 119.65 46.58 120.31 45.38 120.97 44.17 C 117.17 45.52 113.54 47.29 110.08 49.35 C 109.20 48.41 108.32 47.46 107.44 46.52 C 109.36 44.71 111.31 42.94 113.43 41.38 Z" />
<path fill="#bccbe7" opacity="1.00" d=" M 37.60 88.55 C 38.00 87.93 38.79 86.71 39.19 86.09 C 39.51 86.80 40.15 88.22 40.47 88.94 C 39.12 90.62 37.80 92.33 36.67 94.16 C 36.60 94.28 36.45 94.52 36.37 94.63 C 35.66 94.98 34.24 95.66 33.52 96.00 C 34.43 94.11 35.43 92.26 36.62 90.52 L 36.59 89.79 C 36.74 89.41 37.03 88.63 37.18 88.24 L 37.60 88.55 Z" />
</g>
<g id="#bfcde9ff">
<path fill="#bfcde9" opacity="1.00" d=" M 44.94 40.86 C 47.42 40.25 52.31 39.16 51.93 43.27 C 50.44 44.43 49.06 45.73 47.86 47.18 C 48.21 47.38 48.93 47.79 49.29 47.99 C 49.68 48.22 50.47 48.68 50.86 48.91 C 49.16 50.59 47.71 53.22 45.00 53.20 C 42.57 53.69 41.33 51.28 40.40 49.51 C 40.67 49.68 41.20 50.03 41.46 50.20 C 41.26 49.29 41.05 48.39 40.85 47.49 C 41.90 45.13 41.61 41.10 44.94 40.86 Z" />
</g>
<g id="#becce8ff">
<path fill="#becce8" opacity="1.00" d=" M 96.65 41.09 C 101.04 44.10 104.21 48.45 107.61 52.46 C 108.25 53.45 108.91 54.43 109.54 55.43 C 113.14 61.43 115.93 67.88 118.60 74.33 C 118.48 74.96 118.25 76.22 118.13 76.85 C 120.63 81.96 123.80 89.15 118.99 93.89 C 115.59 98.86 109.49 100.38 105.01 104.07 C 102.57 106.03 99.71 107.35 97.21 109.22 C 96.31 111.36 96.91 114.25 94.83 115.77 C 92.85 117.73 89.97 117.58 87.42 117.45 C 81.64 117.07 75.39 119.19 70.09 115.93 C 66.21 114.26 64.50 110.07 61.04 107.85 C 57.80 105.71 54.99 102.98 52.96 99.66 C 53.88 98.85 54.81 98.04 55.74 97.22 C 55.28 96.87 54.36 96.16 53.90 95.80 C 56.50 95.48 60.18 96.44 61.67 93.60 C 64.43 89.71 63.07 84.79 62.20 80.53 C 61.08 75.66 60.40 70.68 58.88 65.91 C 59.75 65.34 60.62 64.79 61.49 64.23 C 58.89 64.44 56.20 64.63 53.80 63.40 C 57.59 60.56 62.55 62.08 66.82 60.70 C 72.25 59.52 77.03 56.40 80.46 52.06 C 83.37 54.31 86.31 56.51 89.35 58.57 C 89.86 58.95 90.88 59.71 91.40 60.09 C 91.58 60.21 91.94 60.45 92.12 60.58 C 95.88 56.88 93.71 50.86 92.59 46.43 C 93.26 46.36 94.58 46.21 95.24 46.14 C 93.53 45.59 91.82 45.04 90.09 44.57 C 92.27 43.41 94.46 42.26 96.65 41.09 M 83.03 65.16 C 83.33 65.44 83.93 66.02 84.23 66.30 L 83.70 68.34 C 83.14 67.98 82.02 67.26 81.46 66.90 C 85.59 72.63 92.01 76.20 97.69 80.22 C 104.41 83.32 110.62 88.60 118.28 88.93 C 115.55 85.29 111.55 82.96 107.99 80.23 C 99.98 74.75 92.24 68.56 83.03 65.16 M 81.15 76.98 C 81.37 77.24 81.82 77.78 82.04 78.05 L 80.66 79.67 L 80.23 78.96 C 80.14 82.38 82.79 84.89 84.60 87.51 C 88.65 92.31 93.35 97.37 99.70 98.81 C 97.17 93.75 93.65 89.29 90.13 84.89 C 87.52 81.88 84.83 78.68 81.15 76.98 Z" />
</g>
<g id="#9f3a33ff">
<path fill="#9f3a33" opacity="1.00" d=" M 80.47 45.43 C 81.95 45.45 83.43 45.42 84.90 45.59 C 86.82 47.91 87.97 51.34 86.43 54.15 C 86.41 53.24 86.38 51.40 86.36 50.48 C 84.65 50.82 82.95 51.16 81.25 51.51 L 81.07 51.54 C 80.46 50.88 79.85 50.23 79.24 49.57 C 79.66 48.19 80.07 46.81 80.47 45.43 Z" />
</g>
<g id="#e5e6f0ff">
<path fill="#e5e6f0" opacity="1.00" d=" M 86.86 45.30 C 88.18 45.46 89.51 45.62 90.84 45.78 C 91.98 48.14 93.18 50.50 93.77 53.07 C 93.74 55.58 92.28 57.80 91.40 60.09 C 90.88 59.71 89.86 58.95 89.35 58.57 C 88.58 57.79 87.82 56.99 87.07 56.20 C 88.07 52.62 87.83 48.86 86.86 45.30 Z" />
</g>
<g id="#5d619bff">
<path fill="#5d619b" opacity="1.00" d=" M 137.43 47.70 C 145.79 46.07 153.85 49.72 160.86 53.88 C 165.26 56.75 169.57 60.37 171.62 65.33 C 173.28 70.09 170.20 74.51 167.80 78.35 L 167.45 78.54 C 165.09 79.75 162.72 80.95 160.34 82.11 C 160.06 78.87 159.65 75.60 158.32 72.60 C 155.95 75.66 153.61 78.74 151.10 81.69 C 151.95 81.63 152.81 81.58 153.67 81.52 C 153.74 83.76 153.82 86.00 153.90 88.24 C 149.52 87.97 145.03 88.76 140.77 87.44 C 146.17 84.47 151.56 80.37 152.94 73.99 C 155.16 62.77 146.94 52.53 137.43 47.70 Z" />
<path fill="#5d619b" opacity="1.00" d=" M 135.42 158.61 C 136.99 156.47 139.47 158.40 138.59 160.58 C 137.06 162.46 134.64 160.66 135.42 158.61 Z" />
</g>
<g id="#13758eff">
<path fill="#13758e" opacity="1.00" d=" M 130.27 49.28 C 133.60 48.46 137.19 49.02 139.98 51.08 C 130.88 53.06 121.04 53.75 113.41 59.75 C 112.98 58.91 112.54 58.07 112.11 57.24 C 117.51 53.36 123.79 50.74 130.27 49.28 Z" />
</g>
<g id="#f58068ff">
<path fill="#f58068" opacity="1.00" d=" M 81.25 51.51 C 82.95 51.16 84.65 50.82 86.36 50.48 C 86.38 51.40 86.41 53.24 86.43 54.15 L 85.50 55.20 C 84.07 53.98 82.64 52.76 81.25 51.51 Z" />
</g>
<g id="#318b96ff">
<path fill="#318b96" opacity="1.00" d=" M 139.98 51.08 L 140.21 51.02 C 146.44 55.05 151.04 61.56 152.22 68.94 C 152.05 73.62 150.37 78.56 146.75 81.71 C 144.22 84.09 140.96 85.42 137.88 86.89 C 134.22 84.58 130.55 82.26 126.62 80.42 C 124.22 79.26 121.64 77.89 120.46 75.36 C 118.17 70.13 115.76 64.95 113.41 59.75 C 121.04 53.75 130.88 53.06 139.98 51.08 Z" />
</g>
<g id="#d7e5f6ff">
<path fill="#d7e5f6" opacity="1.00" d=" M 182.84 58.67 C 183.18 58.39 183.86 57.81 184.20 57.52 C 186.95 58.52 189.71 59.47 192.45 60.49 C 192.03 60.96 191.18 61.89 190.76 62.36 C 186.96 62.37 183.17 62.12 179.41 61.57 C 182.20 60.79 185.10 60.60 187.98 60.61 C 186.26 59.99 184.54 59.34 182.84 58.67 Z" />
</g>
<g id="#bccae7ff">
<path fill="#bccae7" opacity="1.00" d=" M 39.19 59.12 C 39.86 59.43 41.21 60.05 41.88 60.36 C 41.47 60.80 40.64 61.67 40.23 62.10 C 41.33 65.52 41.29 69.24 42.74 72.55 C 43.53 74.19 45.63 74.21 47.08 74.90 C 48.43 80.03 48.56 85.36 48.56 90.63 C 43.43 90.84 42.33 85.06 40.74 81.36 C 40.38 81.49 39.67 81.76 39.31 81.89 C 36.92 75.55 37.96 68.54 35.80 62.20 C 36.93 61.17 38.06 60.14 39.19 59.12 Z" />
</g>
<g id="#8c6272ff">
<path fill="#8c6272" opacity="1.00" d=" M 52.99 64.94 C 54.69 65.20 56.39 65.48 58.08 65.80 C 58.51 70.71 60.09 75.42 60.76 80.28 C 61.27 82.10 59.19 82.33 58.06 83.06 C 57.82 83.44 57.32 84.20 57.08 84.58 C 56.93 84.67 56.63 84.84 56.49 84.92 C 55.89 84.85 55.30 84.77 54.71 84.70 C 53.23 82.78 51.76 80.87 50.27 78.96 C 50.00 80.36 49.74 81.76 49.52 83.17 C 48.98 80.17 48.83 77.11 48.76 74.06 C 49.19 73.70 50.04 72.97 50.46 72.61 C 51.24 70.03 52.11 67.48 52.99 64.94 Z" />
</g>
<g id="#dee5f1ff">
<path fill="#dee5f1" opacity="1.00" d=" M 84.23 66.30 C 88.91 68.99 93.67 71.52 98.05 74.70 C 103.78 79.00 110.11 82.57 115.30 87.53 C 103.80 83.00 92.99 76.52 83.70 68.34 L 84.23 66.30 Z" />
</g>
<g id="#92a8cbff">
<path fill="#92a8cb" opacity="1.00" d=" M 33.51 74.53 C 34.12 74.11 35.35 73.28 35.96 72.87 C 36.38 74.28 36.80 75.70 37.22 77.11 C 35.03 79.16 32.72 81.08 30.39 82.97 C 29.83 82.63 28.71 81.97 28.16 81.64 C 29.93 79.45 31.71 77.25 33.26 74.90 C 33.32 74.81 33.45 74.62 33.51 74.53 Z" />
</g>
<g id="#7276abff">
<path fill="#7276ab" opacity="1.00" d=" M 151.10 81.69 C 153.61 78.74 155.95 75.66 158.32 72.60 C 159.65 75.60 160.06 78.87 160.34 82.11 C 162.72 80.95 165.09 79.75 167.45 78.54 C 165.60 81.29 163.80 84.13 161.39 86.44 C 159.34 88.20 156.44 88.07 153.90 88.24 C 153.82 86.00 153.74 83.76 153.67 81.52 C 152.81 81.58 151.95 81.63 151.10 81.69 Z" />
</g>
<g id="#ced9edff">
<path fill="#ced9ed" opacity="1.00" d=" M 118.13 76.85 C 118.25 76.22 118.48 74.96 118.60 74.33 C 120.08 80.04 126.37 81.28 130.70 84.10 C 141.71 90.15 151.04 99.33 156.62 110.65 C 155.89 110.51 154.45 110.22 153.72 110.07 C 152.90 113.95 152.60 118.09 150.44 121.53 C 146.90 127.07 142.64 132.41 136.90 135.80 C 134.49 137.27 131.48 137.55 129.19 139.20 C 125.68 144.21 123.10 149.82 119.85 155.00 C 117.33 158.47 113.03 160.00 110.30 163.28 C 108.79 164.66 107.49 167.45 105.00 166.48 C 100.57 164.67 97.39 160.83 94.54 157.13 C 93.99 157.72 93.45 158.31 92.90 158.90 C 92.07 155.23 91.13 151.57 90.36 147.89 C 89.38 143.57 90.42 139.20 90.44 134.85 C 88.95 137.84 89.20 141.23 88.92 144.46 C 87.52 142.32 86.57 139.95 85.64 137.59 C 85.57 138.31 85.44 139.77 85.37 140.50 C 85.19 140.89 84.82 141.68 84.63 142.07 C 84.38 141.41 83.88 140.10 83.62 139.45 C 80.72 140.75 77.81 142.04 74.90 143.35 C 69.75 140.41 64.64 137.09 61.48 131.91 C 61.49 133.51 61.50 135.11 61.51 136.71 C 61.13 137.15 60.36 138.05 59.98 138.50 C 59.18 136.76 58.43 135.01 57.63 133.28 C 57.02 131.94 56.19 130.71 55.37 129.49 C 54.20 135.02 52.46 140.42 49.90 145.47 C 48.33 135.12 48.20 124.41 50.85 114.22 C 51.66 116.62 52.39 119.05 53.33 121.41 C 53.29 118.20 52.84 115.02 52.60 111.83 C 52.48 111.54 52.25 110.95 52.13 110.65 C 51.14 108.39 52.01 105.89 51.36 103.57 C 50.42 102.25 49.40 101.00 48.40 99.73 C 48.55 98.21 48.69 96.68 48.66 95.15 C 50.40 95.42 52.14 95.68 53.90 95.80 C 54.36 96.16 55.28 96.87 55.74 97.22 C 54.81 98.04 53.88 98.85 52.96 99.66 C 54.99 102.98 57.80 105.71 61.04 107.85 C 64.50 110.07 66.21 114.26 70.09 115.93 C 75.39 119.19 81.64 117.07 87.42 117.45 C 89.97 117.58 92.85 117.73 94.83 115.77 C 96.91 114.25 96.31 111.36 97.21 109.22 C 99.71 107.35 102.57 106.03 105.01 104.07 C 109.49 100.38 115.59 98.86 118.99 93.89 C 123.80 89.15 120.63 81.96 118.13 76.85 M 139.13 99.01 C 136.55 103.26 139.95 108.03 142.92 111.04 C 144.62 112.32 147.43 114.39 149.32 112.34 C 151.29 107.40 148.17 101.65 143.71 99.25 C 142.36 98.74 140.29 97.64 139.13 99.01 M 119.30 125.35 C 118.06 125.54 117.64 127.05 117.29 128.07 C 116.36 132.38 117.93 137.91 122.43 139.53 C 124.78 140.49 126.42 137.94 126.61 135.92 C 126.83 133.50 126.73 130.85 125.21 128.84 C 123.88 126.92 121.99 124.39 119.30 125.35 M 114.14 157.45 C 116.17 156.14 117.02 153.38 115.81 151.22 C 115.12 148.96 112.56 148.36 110.78 147.23 C 106.19 149.92 109.15 157.57 114.14 157.45 Z" />
</g>
<g id="#b27791ff">
<path fill="#b27791" opacity="1.00" d=" M 49.52 83.17 C 49.74 81.76 50.00 80.36 50.27 78.96 C 51.76 80.87 53.23 82.78 54.71 84.70 C 53.11 86.28 51.43 87.78 49.70 89.22 C 49.61 87.20 49.41 85.19 49.52 83.17 Z" />
</g>
<g id="#dae0edff">
<path fill="#dae0ed" opacity="1.00" d=" M 80.66 79.67 L 82.04 78.05 C 87.81 83.79 93.47 89.83 97.37 97.05 C 90.19 93.07 84.66 86.75 80.66 79.67 Z" />
</g>
<g id="#c7d5eeff">
<path fill="#c7d5ee" opacity="1.00" d=" M 28.16 81.64 C 28.71 81.97 29.83 82.63 30.39 82.97 C 29.08 84.05 27.80 85.17 26.54 86.31 C 26.23 86.56 25.60 87.06 25.29 87.31 L 23.37 88.10 C 24.89 85.89 26.46 83.72 28.16 81.64 Z" />
</g>
<g id="#ecc3d2ff">
<path fill="#ecc3d2" opacity="1.00" d=" M 57.08 84.58 C 58.44 83.94 59.85 83.41 61.26 82.89 C 61.57 86.71 63.04 92.14 58.88 94.40 C 56.00 94.72 52.00 95.47 49.98 92.92 C 50.28 89.23 53.29 86.41 56.49 84.92 C 56.63 84.84 56.93 84.67 57.08 84.58 Z" />
</g>
<g id="#c3d0eaff">
<path fill="#c3d0ea" opacity="1.00" d=" M 154.08 99.43 C 159.08 97.62 164.19 96.15 169.14 94.18 C 172.08 94.80 172.66 97.52 171.37 99.92 C 170.79 99.62 169.63 99.03 169.06 98.73 C 164.25 99.98 158.81 101.98 154.08 99.43 Z" />
</g>
<g id="#7e84b5ff">
<path fill="#7e84b5" opacity="1.00" d=" M 139.13 99.01 C 140.29 97.64 142.36 98.74 143.71 99.25 C 148.17 101.65 151.29 107.40 149.32 112.34 C 147.43 114.39 144.62 112.32 142.92 111.04 C 139.95 108.03 136.55 103.26 139.13 99.01 Z" />
</g>
<g id="#8ea3c7ff">
<path fill="#8ea3c7" opacity="1.00" d=" M 151.36 99.58 C 152.26 99.53 153.17 99.48 154.08 99.43 C 158.81 101.98 164.25 99.98 169.06 98.73 C 169.63 99.03 170.79 99.62 171.37 99.92 C 167.88 105.17 162.92 109.29 159.91 114.89 C 158.08 109.27 154.63 104.43 151.36 99.58 Z" />
</g>
<g id="#a9b8d4ff">
<path fill="#a9b8d4" opacity="1.00" d=" M 153.72 110.07 C 154.45 110.22 155.89 110.51 156.62 110.65 C 162.71 122.90 163.19 137.66 158.65 150.50 C 156.73 155.51 153.03 159.81 148.26 162.31 C 139.35 167.18 129.26 169.95 119.10 170.25 C 121.54 164.04 125.28 158.19 126.04 151.44 C 123.84 155.56 122.43 160.03 120.34 164.20 C 117.99 169.98 114.60 175.59 114.78 182.06 C 112.24 180.65 109.70 178.97 106.76 178.59 C 104.63 178.48 102.62 179.34 100.60 179.89 C 99.38 179.05 98.16 178.22 96.93 177.40 C 98.71 170.83 94.51 165.01 92.90 158.90 C 93.45 158.31 93.99 157.72 94.54 157.13 C 97.39 160.83 100.57 164.67 105.00 166.48 C 107.49 167.45 108.79 164.66 110.30 163.28 C 113.03 160.00 117.33 158.47 119.85 155.00 C 123.10 149.82 125.68 144.21 129.19 139.20 C 131.48 137.55 134.49 137.27 136.90 135.80 C 142.64 132.41 146.90 127.07 150.44 121.53 C 152.60 118.09 152.90 113.95 153.72 110.07 M 150.25 147.93 C 150.04 150.41 153.46 150.04 154.54 148.55 C 158.41 144.70 159.60 136.99 154.97 133.28 C 151.42 137.18 150.38 142.83 150.25 147.93 M 135.42 158.61 C 134.64 160.66 137.06 162.46 138.59 160.58 C 139.47 158.40 136.99 156.47 135.42 158.61 Z" />
</g>
<g id="#9dafd0ff">
<path fill="#9dafd0" opacity="1.00" d=" M 162.03 122.28 C 164.83 122.33 168.03 121.61 170.13 123.99 C 168.04 126.50 165.61 128.69 162.91 130.51 C 162.67 127.76 162.43 125.01 162.03 122.28 Z" />
</g>
<g id="#7f85b5ff">
<path fill="#7f85b5" opacity="1.00" d=" M 119.30 125.35 C 121.99 124.39 123.88 126.92 125.21 128.84 C 126.73 130.85 126.83 133.50 126.61 135.92 C 126.42 137.94 124.78 140.49 122.43 139.53 C 117.93 137.91 116.36 132.38 117.29 128.07 C 117.64 127.05 118.06 125.54 119.30 125.35 Z" />
</g>
<g id="#aab8d5ff">
<path fill="#aab8d5" opacity="1.00" d=" M 55.37 129.49 C 56.19 130.71 57.02 131.94 57.63 133.28 C 58.07 140.69 63.70 146.31 68.47 151.46 C 65.61 153.84 62.84 156.32 60.14 158.88 C 59.23 158.28 58.31 157.68 57.40 157.08 C 57.15 158.60 56.91 160.13 56.66 161.66 C 55.50 161.16 54.34 160.67 53.18 160.18 C 51.96 155.31 50.75 150.43 49.90 145.47 C 52.46 140.42 54.20 135.02 55.37 129.49 Z" />
</g>
<g id="#acbad6ff">
<path fill="#acbad6" opacity="1.00" d=" M 61.48 131.91 C 64.64 137.09 69.75 140.41 74.90 143.35 C 77.81 142.04 80.72 140.75 83.62 139.45 C 83.88 140.10 84.38 141.41 84.63 142.07 C 84.82 141.68 85.19 140.89 85.37 140.50 C 86.67 144.11 88.99 147.31 89.75 151.11 C 90.68 155.49 91.77 159.84 92.85 164.19 C 78.65 161.34 67.15 150.66 59.98 138.50 C 60.36 138.05 61.13 137.15 61.51 136.71 C 61.50 135.11 61.49 133.51 61.48 131.91 Z" />
</g>
<g id="#5d619cff">
<path fill="#5d619c" opacity="1.00" d=" M 150.25 147.93 C 150.38 142.83 151.42 137.18 154.97 133.28 C 159.60 136.99 158.41 144.70 154.54 148.55 C 153.46 150.04 150.04 150.41 150.25 147.93 Z" />
</g>
<g id="#7d83b4ff">
<path fill="#7d83b4" opacity="1.00" d=" M 114.14 157.45 C 109.15 157.57 106.19 149.92 110.78 147.23 C 112.56 148.36 115.12 148.96 115.81 151.22 C 117.02 153.38 116.17 156.14 114.14 157.45 Z" />
</g>
<g id="#90a3c4ff">
<path fill="#90a3c4" opacity="1.00" d=" M 60.14 158.88 C 62.84 156.32 65.61 153.84 68.47 151.46 C 70.62 153.63 72.92 155.64 75.26 157.61 C 73.42 162.12 71.12 166.42 68.69 170.63 C 66.61 170.31 64.52 170.41 62.45 170.70 C 60.70 167.53 57.83 165.19 54.18 164.65 C 53.85 163.16 53.52 161.67 53.18 160.18 C 54.34 160.67 55.50 161.16 56.66 161.66 C 56.91 160.13 57.15 158.60 57.40 157.08 C 58.31 157.68 59.23 158.28 60.14 158.88 Z" />
</g>
<g id="#8da2c5ff">
<path fill="#8da2c5" opacity="1.00" d=" M 135.01 169.15 C 142.37 167.02 149.71 164.13 155.39 158.82 C 156.27 160.35 157.17 161.87 157.97 163.45 C 156.69 164.83 155.43 166.23 154.17 167.64 C 155.02 169.60 155.85 171.56 156.69 173.52 C 155.70 174.46 154.68 175.38 153.67 176.31 C 153.42 176.54 152.92 177.00 152.67 177.23 L 152.42 176.90 C 150.98 175.24 149.83 172.97 147.57 172.31 C 144.40 172.08 142.28 174.63 140.66 176.98 C 139.71 176.81 138.76 176.63 137.82 176.46 C 137.97 175.87 138.26 174.69 138.41 174.09 C 137.30 172.43 136.17 170.78 135.01 169.15 Z" />
</g>
<g id="#abbbd9ff">
<path fill="#abbbd9" opacity="1.00" d=" M 154.17 167.64 C 155.43 166.23 156.69 164.83 157.97 163.45 C 158.87 166.78 159.22 170.77 156.69 173.52 C 155.85 171.56 155.02 169.60 154.17 167.64 Z" />
</g>
<g id="#e3e3e3ff">
<path fill="#e3e3e3" opacity="1.00" d=" M 54.05 165.70 C 56.91 166.78 59.38 168.61 61.20 171.08 C 57.44 173.09 53.16 173.65 48.96 173.91 C 49.90 170.76 52.11 168.27 54.05 165.70 Z" />
</g>
<g id="#d0cad3ff">
<path fill="#d0cad3" opacity="1.00" d=" M 89.01 170.88 C 90.18 169.06 91.42 167.26 92.99 165.76 C 95.03 166.67 95.25 169.65 95.85 171.61 C 93.55 171.59 91.24 171.44 89.01 170.88 Z" />
</g>
<g id="#cec7d0ff">
<path fill="#cec7d0" opacity="1.00" d=" M 126.60 177.19 C 128.98 174.59 131.44 172.06 134.13 169.78 C 135.25 171.47 136.38 173.16 137.39 174.93 C 133.81 175.76 130.29 176.89 126.60 177.19 Z" />
</g>
<g id="#f2eff3ff">
<path fill="#f2eff3" opacity="1.00" d=" M 63.19 173.83 C 62.25 171.75 66.65 170.82 67.14 172.66 C 66.26 173.66 64.45 174.68 63.19 173.83 Z" />
</g>
<g id="#cfc9d1ff">
<path fill="#cfc9d1" opacity="1.00" d=" M 141.75 179.63 C 141.84 176.71 143.74 174.54 146.04 172.98 C 147.55 174.09 150.17 174.70 150.34 176.93 C 148.38 179.44 144.66 179.33 141.75 179.63 Z" />
</g>
<g id="#e1e2e3ff">
<path fill="#e1e2e3" opacity="1.00" d=" M 110.23 180.65 C 111.55 181.41 112.57 182.48 113.04 183.95 C 113.21 184.01 113.56 184.13 113.74 184.19 C 113.33 184.52 112.86 184.71 112.34 184.77 L 111.68 185.25 C 111.07 185.67 109.85 186.53 109.24 186.96 C 105.60 185.55 107.63 181.78 110.23 180.65 Z" />
</g>
</svg>
