<?xml version="1.0" encoding="UTF-8" ?>
<!DOCTYPE svg PUBLIC "-//W3C//DTD SVG 1.1//EN" "http://www.w3.org/Graphics/SVG/1.1/DTD/svg11.dtd">
<svg width="215pt" height="215pt" viewBox="0 0 215 215" version="1.1" xmlns="http://www.w3.org/2000/svg">
<g id="#0f1314af">
<path fill="#0f1314" opacity="0.69" d=" M 104.39 22.93 C 104.72 19.81 111.22 23.15 108.14 24.64 C 107.22 23.48 105.91 22.79 104.39 22.93 Z" />
</g>
<g id="#9dc2cbff">
<path fill="#9dc2cb" opacity="1.00" d=" M 104.39 22.93 C 105.91 22.79 107.22 23.48 108.14 24.64 C 107.84 25.15 107.23 26.15 106.92 26.65 C 106.06 28.22 105.36 29.87 104.72 31.53 C 104.33 30.45 103.93 29.38 103.51 28.31 C 101.53 28.80 99.35 30.75 97.35 29.39 C 97.83 28.86 98.79 27.80 99.28 27.27 C 99.51 27.08 99.98 26.70 100.22 26.51 C 101.49 26.07 102.45 25.12 103.19 24.02 C 103.49 23.74 104.09 23.20 104.39 22.93 Z" />
<path fill="#9dc2cb" opacity="1.00" d=" M 115.98 180.23 C 117.89 179.80 119.83 179.47 121.75 179.11 C 120.34 180.76 117.92 181.27 115.98 180.23 Z" />
</g>
<g id="#1c2425ae">
<path fill="#1c2425" opacity="0.68" d=" M 100.22 26.51 C 99.56 25.03 101.85 23.19 103.19 24.02 C 102.45 25.12 101.49 26.07 100.22 26.51 Z" />
</g>
<g id="#01020379">
<path fill="#010203" opacity="0.47" d=" M 96.80 29.13 C 96.97 27.49 97.80 26.87 99.28 27.27 C 98.79 27.80 97.83 28.86 97.35 29.39 L 96.80 29.13 Z" />
</g>
<g id="#242f33bd">
<path fill="#242f33" opacity="0.74" d=" M 104.72 31.53 C 105.36 29.87 106.06 28.22 106.92 26.65 C 105.53 30.36 106.05 34.20 108.44 37.35 C 107.21 36.26 106.09 35.05 105.25 33.63 C 105.11 33.11 104.85 32.06 104.72 31.53 Z" />
</g>
<g id="#8bb2bfff">
<path fill="#8bb2bf" opacity="1.00" d=" M 97.35 29.39 C 99.35 30.75 101.53 28.80 103.51 28.31 C 103.93 29.38 104.33 30.45 104.72 31.53 C 104.85 32.06 105.11 33.11 105.25 33.63 C 100.99 38.63 103.59 45.84 100.11 51.13 C 98.98 53.11 97.72 55.01 96.47 56.91 C 95.60 55.90 94.72 54.89 93.85 53.89 C 92.11 56.62 91.22 59.79 91.92 63.02 C 90.92 64.20 89.90 65.36 88.87 66.50 C 87.07 66.29 85.26 66.09 83.46 65.89 C 83.49 67.09 83.52 68.30 83.55 69.51 C 81.64 66.77 79.71 64.03 78.11 61.10 C 78.77 60.05 79.42 59.00 80.08 57.95 C 81.00 58.82 81.93 59.66 82.87 60.51 C 82.20 57.84 81.92 55.09 82.02 52.34 C 82.91 48.34 82.77 44.23 83.12 40.17 C 83.84 40.08 85.28 39.92 86.00 39.83 C 86.40 39.77 87.18 39.65 87.58 39.59 C 88.54 38.44 89.40 37.21 90.28 35.99 C 90.46 35.79 90.81 35.38 90.99 35.18 C 92.00 34.73 92.74 34.00 93.20 33.00 C 93.39 32.78 93.77 32.36 93.96 32.14 C 95.01 31.74 95.79 31.04 96.29 30.06 C 96.41 29.82 96.67 29.36 96.80 29.13 L 97.35 29.39 Z" />
</g>
<g id="#252f32ac">
<path fill="#252f32" opacity="0.67" d=" M 81.99 30.87 C 82.06 29.23 83.83 28.04 85.40 28.44 C 86.06 31.84 86.22 35.33 86.97 38.72 C 88.01 37.74 88.91 36.54 90.28 35.99 C 89.40 37.21 88.54 38.44 87.58 39.59 C 87.18 39.65 86.40 39.77 86.00 39.83 C 85.16 36.18 85.85 32.04 83.93 28.75 C 82.60 31.00 82.27 33.61 82.13 36.17 C 81.88 41.55 81.42 46.96 82.02 52.34 C 81.92 55.09 82.20 57.84 82.87 60.51 C 81.93 59.66 81.00 58.82 80.08 57.95 C 78.70 56.58 77.23 55.30 75.57 54.28 C 75.80 56.75 76.98 58.95 78.11 61.10 C 79.71 64.03 81.64 66.77 83.55 69.51 C 84.86 71.30 86.19 73.10 87.17 75.11 C 85.65 74.29 84.74 72.78 83.72 71.45 C 80.46 66.88 77.35 62.16 75.00 57.05 C 74.23 55.72 75.01 52.42 77.04 53.92 C 78.54 55.19 79.89 56.62 81.38 57.90 C 80.75 48.92 80.28 39.76 81.99 30.87 Z" />
</g>
<g id="#a3cdd7ff">
<path fill="#a3cdd7" opacity="1.00" d=" M 82.13 36.17 C 82.27 33.61 82.60 31.00 83.93 28.75 C 85.85 32.04 85.16 36.18 86.00 39.83 C 85.28 39.92 83.84 40.08 83.12 40.17 C 82.77 44.23 82.91 48.34 82.02 52.34 C 81.42 46.96 81.88 41.55 82.13 36.17 Z" />
</g>
<g id="#10141699">
<path fill="#101416" opacity="0.60" d=" M 93.96 32.14 C 93.80 30.40 94.57 29.70 96.29 30.06 C 95.79 31.04 95.01 31.74 93.96 32.14 Z" />
</g>
<g id="#0f131495">
<path fill="#0f1314" opacity="0.58" d=" M 90.99 35.18 C 90.73 33.44 91.47 32.71 93.20 33.00 C 92.74 34.00 92.00 34.73 90.99 35.18 Z" />
</g>
<g id="#77a2b3ff">
<path fill="#77a2b3" opacity="1.00" d=" M 105.25 33.63 C 106.09 35.05 107.21 36.26 108.44 37.35 C 108.51 37.51 108.64 37.82 108.70 37.98 C 110.23 42.38 113.60 46.16 113.91 50.95 C 113.34 54.98 112.62 59.09 110.83 62.79 C 107.50 63.14 104.00 63.28 100.96 64.82 C 96.58 68.31 95.38 74.68 90.26 77.43 C 89.60 77.07 88.28 76.34 87.63 75.97 C 87.51 75.76 87.28 75.32 87.17 75.11 C 86.19 73.10 84.86 71.30 83.55 69.51 C 83.52 68.30 83.49 67.09 83.46 65.89 C 85.26 66.09 87.07 66.29 88.87 66.50 C 89.90 65.36 90.92 64.20 91.92 63.02 C 91.22 59.79 92.11 56.62 93.85 53.89 C 94.72 54.89 95.60 55.90 96.47 56.91 C 97.72 55.01 98.98 53.11 100.11 51.13 C 103.59 45.84 100.99 38.63 105.25 33.63 Z" />
</g>
<g id="#48575ced">
<path fill="#48575c" opacity="0.93" d=" M 108.70 37.98 C 111.25 39.97 112.13 43.36 113.61 46.12 C 116.31 51.70 113.09 57.60 112.12 63.17 C 117.24 63.16 122.53 63.10 127.43 64.76 C 129.38 61.34 129.39 56.83 132.19 53.94 C 130.93 58.00 129.29 61.93 128.19 66.04 C 126.91 70.41 126.56 74.97 125.69 79.42 C 125.42 78.30 125.16 77.16 124.93 76.03 C 125.23 72.46 125.98 68.96 126.85 65.50 C 126.27 65.39 125.09 65.15 124.50 65.04 C 117.85 63.35 110.82 63.83 104.16 65.17 C 101.03 65.65 99.26 68.48 97.65 70.89 C 94.86 74.95 92.88 79.52 91.80 84.33 C 91.09 81.77 92.16 79.27 92.91 76.87 C 90.94 78.55 88.42 79.82 87.08 82.13 C 86.69 86.77 87.36 91.52 88.98 95.89 C 89.61 99.53 91.02 103.01 91.35 106.69 C 89.23 105.42 87.36 103.80 85.80 101.88 C 81.67 109.32 86.13 118.52 92.59 122.99 C 93.93 123.87 95.24 125.24 97.00 125.05 C 100.15 124.64 102.86 122.71 105.95 122.06 C 108.37 122.00 110.61 123.18 112.91 123.80 C 118.28 119.57 124.95 115.59 132.06 116.73 C 129.31 118.99 129.38 123.16 126.30 125.12 C 125.07 123.29 123.93 121.41 122.84 119.49 C 119.69 120.59 117.13 122.73 114.52 124.73 C 112.78 126.04 110.73 124.53 108.89 124.23 C 106.41 123.10 103.80 124.28 101.66 125.59 C 108.43 128.59 115.97 128.62 123.15 127.40 C 120.81 128.52 118.26 129.03 115.76 129.62 C 115.42 129.69 114.75 129.84 114.41 129.92 C 110.37 129.63 106.39 128.81 102.55 127.53 C 104.14 129.29 105.74 131.09 106.73 133.28 C 107.36 134.83 107.97 136.39 108.55 137.96 C 108.99 139.64 108.95 141.33 108.43 143.02 C 107.07 139.76 106.80 136.11 104.98 133.04 C 103.61 130.71 102.28 128.35 100.71 126.16 C 97.99 126.75 95.20 127.23 92.94 125.10 C 87.35 120.89 82.23 114.53 82.95 107.11 C 83.06 104.70 84.41 102.69 85.65 100.72 L 83.92 100.70 C 84.30 100.33 85.06 99.60 85.44 99.23 C 85.39 96.88 85.01 94.44 85.92 92.20 C 85.90 94.76 86.08 97.31 86.35 99.85 L 88.89 99.54 C 88.31 98.26 87.74 96.98 87.17 95.70 C 86.99 94.10 86.73 92.51 86.17 91.00 C 87.08 88.36 85.93 85.77 85.77 83.13 C 86.28 81.13 88.02 79.83 89.47 78.51 C 89.01 77.87 88.09 76.61 87.63 75.97 C 88.28 76.34 89.60 77.07 90.26 77.43 C 95.38 74.68 96.58 68.31 100.96 64.82 C 104.00 63.28 107.50 63.14 110.83 62.79 C 112.62 59.09 113.34 54.98 113.91 50.95 C 113.60 46.16 110.23 42.38 108.70 37.98 M 88.04 100.24 C 87.32 101.39 88.29 104.12 89.72 103.94 C 90.00 102.72 89.56 100.27 88.04 100.24 M 124.53 118.89 C 125.07 120.36 125.65 121.81 126.30 123.23 C 128.41 122.30 128.50 119.70 129.10 117.78 C 127.54 118.01 125.98 118.26 124.53 118.89 Z" />
</g>
<g id="#2e3537bc">
<path fill="#2e3537" opacity="0.74" d=" M 167.91 39.13 C 170.24 38.88 173.63 37.32 175.07 40.06 C 172.94 42.40 170.15 43.91 167.68 45.82 C 167.72 46.43 167.78 47.64 167.82 48.24 C 167.19 47.54 166.56 46.84 165.93 46.15 C 167.27 45.08 168.61 44.03 170.00 43.02 C 171.50 41.94 173.11 40.90 174.08 39.26 C 162.48 40.06 151.97 45.99 142.31 52.06 L 141.86 51.33 C 149.86 46.00 158.58 41.57 167.91 39.13 Z" />
</g>
<g id="#c3d9deff">
<path fill="#c3d9de" opacity="1.00" d=" M 142.31 52.06 C 151.97 45.99 162.48 40.06 174.08 39.26 C 173.11 40.90 171.50 41.94 170.00 43.02 C 167.37 41.68 165.23 43.81 163.13 45.09 C 160.94 46.50 158.45 47.73 157.38 50.28 C 154.03 51.47 150.87 53.13 147.86 55.00 C 144.67 54.11 141.56 56.73 138.47 55.47 C 139.43 54.49 140.42 53.53 141.46 52.62 C 141.67 52.48 142.10 52.20 142.31 52.06 Z" />
<path fill="#c3d9de" opacity="1.00" d=" M 92.59 122.99 C 86.13 118.52 81.67 109.32 85.80 101.88 C 87.36 103.80 89.23 105.42 91.35 106.69 C 91.45 108.57 90.99 110.56 91.68 112.35 C 93.88 114.12 97.03 114.01 99.28 115.71 C 99.95 116.60 99.55 117.80 99.66 118.83 C 98.32 119.62 97.15 120.76 96.58 122.23 C 95.24 122.41 93.91 122.70 92.59 122.99 Z" />
</g>
<g id="#96bdc7ff">
<path fill="#96bdc7" opacity="1.00" d=" M 163.13 45.09 C 165.23 43.81 167.37 41.68 170.00 43.02 C 168.61 44.03 167.27 45.08 165.93 46.15 C 166.56 46.84 167.19 47.54 167.82 48.24 C 168.05 48.53 168.52 49.10 168.76 49.38 C 169.74 50.84 171.05 52.31 172.90 52.55 L 173.25 52.62 C 174.18 53.28 175.11 53.94 176.04 54.62 C 175.38 54.67 174.06 54.78 173.39 54.83 C 174.61 56.76 175.95 58.62 177.56 60.24 C 177.29 60.51 176.73 61.04 176.45 61.31 C 172.94 63.78 174.15 68.41 173.91 72.03 C 173.99 77.20 171.67 82.28 167.53 85.42 C 167.21 85.66 166.56 86.15 166.24 86.39 C 165.99 85.97 165.50 85.12 165.25 84.69 C 171.44 79.95 171.62 71.46 170.36 64.45 C 169.30 59.78 168.06 54.83 164.63 51.29 C 162.71 49.39 159.77 49.90 157.38 50.28 C 158.45 47.73 160.94 46.50 163.13 45.09 Z" />
</g>
<g id="#414b4ccb">
<path fill="#414b4c" opacity="0.80" d=" M 137.10 43.27 C 137.97 43.60 138.83 43.94 139.70 44.28 C 139.11 47.83 137.95 51.25 137.43 54.81 C 138.82 54.31 139.81 52.31 141.46 52.62 C 140.42 53.53 139.43 54.49 138.47 55.47 C 137.61 56.48 136.83 57.56 136.09 58.65 C 136.53 54.19 137.61 49.84 138.70 45.51 L 138.07 44.64 C 137.83 44.30 137.34 43.61 137.10 43.27 Z" />
</g>
<g id="#394041ba">
<path fill="#394041" opacity="0.73" d=" M 132.71 52.66 C 133.35 49.92 133.93 46.48 136.38 44.77 C 135.27 47.46 134.13 50.13 132.71 52.66 Z" />
</g>
<g id="#c3d9dfff">
<path fill="#c3d9df" opacity="1.00" d=" M 136.38 44.77 L 136.84 43.70 L 138.07 44.64 L 138.70 45.51 C 137.61 49.84 136.53 54.19 136.09 58.65 C 134.44 61.81 132.74 67.27 128.19 66.04 C 129.29 61.93 130.93 58.00 132.19 53.94 C 132.32 53.62 132.58 52.98 132.71 52.66 C 134.13 50.13 135.27 47.46 136.38 44.77 Z" />
</g>
<g id="#161c1d98">
<path fill="#161c1d" opacity="0.60" d=" M 168.76 49.38 C 170.35 48.89 173.13 50.81 172.90 52.55 C 171.05 52.31 169.74 50.84 168.76 49.38 Z" />
</g>
<g id="#2c3c4dff">
<path fill="#2c3c4d" opacity="1.00" d=" M 147.86 55.00 C 150.87 53.13 154.03 51.47 157.38 50.28 C 159.77 49.90 162.71 49.39 164.63 51.29 C 168.06 54.83 169.30 59.78 170.36 64.45 C 171.62 71.46 171.44 79.95 165.25 84.69 C 159.42 88.29 152.94 90.86 146.20 92.10 C 144.25 92.53 142.26 92.79 140.27 92.76 C 146.10 88.61 153.59 85.98 157.20 79.36 L 158.02 80.37 C 156.46 85.09 151.33 87.20 147.70 90.12 C 151.93 89.15 156.00 87.57 159.95 85.78 C 163.37 84.20 166.78 82.01 168.38 78.45 C 169.40 75.35 169.91 72.07 169.49 68.81 C 168.55 63.05 167.62 56.69 163.57 52.19 C 160.20 49.91 156.22 52.47 153.05 53.92 C 145.22 57.66 138.90 63.78 133.49 70.43 C 132.64 71.55 132.24 72.90 131.73 74.18 C 131.34 74.68 131.34 74.68 131.73 74.18 C 137.34 70.50 142.53 65.84 149.09 63.89 C 151.57 63.11 153.69 65.13 155.11 66.89 C 156.92 69.27 159.08 72.51 157.31 75.51 C 156.45 71.47 154.66 67.28 150.96 65.08 C 144.93 66.19 139.94 70.18 135.11 73.73 C 132.78 75.60 130.60 77.67 128.75 80.02 C 131.98 82.50 135.81 84.60 137.78 88.34 C 134.51 85.37 131.18 82.40 127.10 80.59 C 130.01 69.55 138.88 61.41 147.86 55.00 Z" />
</g>
<g id="#365380ff">
<path fill="#365380" opacity="1.00" d=" M 153.05 53.92 C 156.22 52.47 160.20 49.91 163.57 52.19 C 167.62 56.69 168.55 63.05 169.49 68.81 C 167.06 68.68 164.60 68.44 162.34 67.45 C 161.54 70.04 160.34 72.47 158.88 74.75 C 158.86 76.68 158.83 78.62 158.79 80.55 C 160.11 80.55 161.43 80.54 162.76 80.54 C 163.41 79.90 164.08 79.25 164.74 78.61 C 165.95 78.55 167.16 78.50 168.38 78.45 C 166.78 82.01 163.37 84.20 159.95 85.78 C 156.00 87.57 151.93 89.15 147.70 90.12 C 151.33 87.20 156.46 85.09 158.02 80.37 L 157.20 79.36 C 157.12 78.25 157.09 77.14 157.09 76.03 L 157.31 75.51 C 159.08 72.51 156.92 69.27 155.11 66.89 C 153.69 65.13 151.57 63.11 149.09 63.89 C 142.53 65.84 137.34 70.50 131.73 74.18 C 132.24 72.90 132.64 71.55 133.49 70.43 C 138.90 63.78 145.22 57.66 153.05 53.92 Z" />
<path fill="#365380" opacity="1.00" d=" M 71.75 119.07 C 74.39 117.64 76.43 115.38 79.02 113.92 C 78.25 117.11 74.65 118.50 71.75 119.07 Z" />
</g>
<g id="#96bcc6ff">
<path fill="#96bcc6" opacity="1.00" d=" M 138.47 55.47 C 141.56 56.73 144.67 54.11 147.86 55.00 C 138.88 61.41 130.01 69.55 127.10 80.59 C 131.18 82.40 134.51 85.37 137.78 88.34 C 138.66 89.78 139.47 91.27 140.27 92.76 C 142.26 92.79 144.25 92.53 146.20 92.10 L 146.56 93.67 C 145.43 93.96 144.30 94.27 143.18 94.59 C 144.16 94.63 146.11 94.71 147.09 94.75 C 146.60 99.06 145.09 103.16 144.39 107.43 L 144.27 108.33 L 144.02 108.79 C 142.09 112.61 140.15 116.44 137.79 120.02 C 136.21 118.41 134.13 117.50 132.06 116.73 C 124.95 115.59 118.28 119.57 112.91 123.80 C 110.61 123.18 108.37 122.00 105.95 122.06 C 102.86 122.71 100.15 124.64 97.00 125.05 C 95.24 125.24 93.93 123.87 92.59 122.99 C 93.91 122.70 95.24 122.41 96.58 122.23 C 98.83 123.56 99.96 120.64 99.66 118.83 C 99.55 117.80 99.95 116.60 99.28 115.71 C 97.03 114.01 93.88 114.12 91.68 112.35 C 90.99 110.56 91.45 108.57 91.35 106.69 C 91.02 103.01 89.61 99.53 88.98 95.89 L 89.80 96.69 C 90.66 97.08 91.56 97.40 92.49 97.59 C 94.36 100.19 96.20 104.30 100.05 103.82 C 101.74 102.81 102.26 100.81 103.01 99.13 C 103.80 95.86 107.01 94.33 109.57 92.62 C 116.25 88.86 121.39 82.72 124.93 76.03 C 125.16 77.16 125.42 78.30 125.69 79.42 C 126.56 74.97 126.91 70.41 128.19 66.04 C 132.74 67.27 134.44 61.81 136.09 58.65 C 136.83 57.56 137.61 56.48 138.47 55.47 M 113.23 104.32 C 112.46 105.76 110.70 107.34 111.81 109.06 C 113.94 110.38 116.65 110.60 118.36 112.65 C 122.00 111.23 126.10 109.67 128.06 106.04 L 126.63 105.64 C 128.40 104.97 130.19 104.32 132.05 103.89 C 132.11 101.87 131.41 99.99 130.60 98.19 C 130.19 97.68 129.37 96.66 128.97 96.15 L 130.05 96.54 C 129.14 94.59 127.86 92.86 126.57 91.15 C 121.56 94.88 116.85 99.19 113.23 104.32 M 109.89 102.31 C 110.34 102.18 111.23 101.93 111.68 101.80 C 112.10 99.28 112.77 96.82 113.39 94.34 C 110.60 95.78 110.58 99.59 109.89 102.31 Z" />
</g>
<g id="#abd4dfff">
<path fill="#abd4df" opacity="1.00" d=" M 75.57 54.28 C 77.23 55.30 78.70 56.58 80.08 57.95 C 79.42 59.00 78.77 60.05 78.11 61.10 C 76.98 58.95 75.80 56.75 75.57 54.28 Z" />
</g>
<g id="#cae2e8ff">
<path fill="#cae2e8" opacity="1.00" d=" M 173.39 54.83 C 174.06 54.78 175.38 54.67 176.04 54.62 L 176.98 54.55 C 179.16 55.40 181.52 56.07 182.95 58.08 C 181.41 59.25 179.41 59.43 177.86 60.56 L 177.56 60.24 C 175.95 58.62 174.61 56.76 173.39 54.83 Z" />
<path fill="#cae2e8" opacity="1.00" d=" M 146.20 92.10 C 152.94 90.86 159.42 88.29 165.25 84.69 C 165.50 85.12 165.99 85.97 166.24 86.39 C 165.93 86.49 165.32 86.68 165.02 86.78 C 161.83 88.32 158.46 89.62 155.56 91.68 C 155.17 91.81 154.40 92.07 154.02 92.20 C 151.49 92.47 149.02 93.06 146.56 93.67 L 146.20 92.10 Z" />
</g>
<g id="#242d2fb9">
<path fill="#242d2f" opacity="0.73" d=" M 173.91 72.03 C 174.15 68.41 172.94 63.78 176.45 61.31 C 173.29 66.79 176.06 73.24 173.65 78.92 C 172.62 81.73 170.56 84.65 167.53 85.42 C 171.67 82.28 173.99 77.20 173.91 72.03 Z" />
</g>
<g id="#cee0e5ff">
<path fill="#cee0e5" opacity="1.00" d=" M 104.16 65.17 C 110.82 63.83 117.85 63.35 124.50 65.04 C 120.68 67.13 116.29 65.75 112.19 66.20 C 108.25 69.36 105.25 75.51 99.42 74.92 C 98.84 73.57 98.25 72.23 97.65 70.89 C 99.26 68.48 101.03 65.65 104.16 65.17 Z" />
</g>
<g id="#c2d9deff">
<path fill="#c2d9de" opacity="1.00" d=" M 124.50 65.04 C 125.09 65.15 126.27 65.39 126.85 65.50 C 125.98 68.96 125.23 72.46 124.93 76.03 C 121.39 82.72 116.25 88.86 109.57 92.62 C 107.01 94.33 103.80 95.86 103.01 99.13 C 99.63 102.10 96.20 98.32 94.50 95.41 C 92.73 91.99 92.63 88.03 91.80 84.33 C 92.88 79.52 94.86 74.95 97.65 70.89 C 98.25 72.23 98.84 73.57 99.42 74.92 C 105.25 75.51 108.25 69.36 112.19 66.20 C 116.29 65.75 120.68 67.13 124.50 65.04 Z" />
<path fill="#c2d9de" opacity="1.00" d=" M 59.86 95.43 C 61.38 95.99 62.93 97.06 64.61 96.40 C 65.73 97.07 66.87 97.68 68.00 98.32 C 68.12 98.41 68.37 98.59 68.49 98.67 C 70.61 100.49 72.90 102.10 75.35 103.45 C 74.88 103.63 73.94 103.98 73.47 104.15 C 75.13 107.23 76.31 111.05 74.33 114.29 C 71.22 116.53 67.58 114.23 64.46 113.22 C 64.08 113.72 63.32 114.71 62.94 115.21 C 61.19 110.51 58.91 106.03 57.17 101.32 C 57.58 100.35 58.00 99.37 58.41 98.40 C 59.99 99.31 61.59 100.19 63.23 101.00 C 62.23 99.07 61.12 97.20 59.86 95.43 Z" />
<path fill="#c2d9de" opacity="1.00" d=" M 80.86 106.74 C 81.38 106.83 82.42 107.01 82.95 107.11 C 82.23 114.53 87.35 120.89 92.94 125.10 C 91.17 128.40 92.27 132.05 92.96 135.48 C 89.91 135.88 86.89 137.57 85.56 140.45 C 84.06 143.14 84.70 146.31 84.78 149.24 C 78.50 141.56 80.48 130.28 85.80 122.65 C 81.84 125.39 80.78 130.49 79.85 134.90 C 79.40 137.57 79.49 140.28 79.11 142.96 C 78.35 144.50 77.25 145.84 76.24 147.23 C 74.59 144.05 73.01 140.43 69.67 138.68 C 72.12 142.90 75.03 146.92 76.34 151.70 C 75.30 154.74 75.09 158.34 72.63 160.67 C 70.56 162.89 67.88 164.37 65.20 165.70 C 63.12 165.04 60.95 165.27 58.83 165.44 C 57.26 165.14 55.85 164.40 54.54 163.52 C 56.79 159.10 58.73 154.53 60.52 149.90 C 58.56 146.41 54.37 146.98 51.17 148.20 C 49.03 149.16 49.19 151.86 48.71 153.80 C 48.08 157.29 47.66 160.81 47.04 164.30 C 46.59 160.06 46.85 155.79 47.61 151.60 C 48.73 146.65 50.38 141.69 53.41 137.56 C 54.25 136.40 54.98 135.16 55.44 133.80 C 54.09 134.44 53.21 136.89 51.49 136.30 C 54.44 129.49 57.27 122.38 62.33 116.81 C 63.22 118.62 64.89 119.60 66.74 120.17 C 71.13 122.46 77.79 122.15 80.41 117.40 C 82.35 114.53 81.58 110.94 81.11 107.76 L 80.86 106.74 M 61.65 126.71 C 60.95 129.03 61.24 131.50 61.44 133.88 C 64.21 132.08 68.48 128.73 66.04 125.12 C 64.48 125.18 62.30 124.82 61.65 126.71 Z" />
</g>
<g id="#5084aaff">
<path fill="#5084aa" opacity="1.00" d=" M 135.11 73.73 C 139.94 70.18 144.93 66.19 150.96 65.08 C 154.66 67.28 156.45 71.47 157.31 75.51 L 157.09 76.03 C 156.22 77.85 155.46 79.75 154.31 81.41 C 153.18 82.06 151.91 81.57 150.77 81.22 C 145.69 79.56 140.90 77.14 135.81 75.50 C 135.57 74.91 135.34 74.32 135.11 73.73 Z" />
</g>
<g id="#7d91adff">
<path fill="#7d91ad" opacity="1.00" d=" M 162.34 67.45 C 164.60 68.44 167.06 68.68 169.49 68.81 C 169.91 72.07 169.40 75.35 168.38 78.45 C 167.16 78.50 165.95 78.55 164.74 78.61 C 164.08 79.25 163.41 79.90 162.76 80.54 C 161.43 80.54 160.11 80.55 158.79 80.55 C 158.83 78.62 158.86 76.68 158.88 74.75 C 160.34 72.47 161.54 70.04 162.34 67.45 Z" />
</g>
<g id="#3c5e94ff">
<path fill="#3c5e94" opacity="1.00" d=" M 131.73 74.18 C 131.34 74.68 131.34 74.68 131.73 74.18 Z" />
</g>
<g id="#71a6c8ff">
<path fill="#71a6c8" opacity="1.00" d=" M 128.75 80.02 C 130.60 77.67 132.78 75.60 135.11 73.73 C 135.34 74.32 135.57 74.91 135.81 75.50 C 140.90 77.14 145.69 79.56 150.77 81.22 C 151.91 81.57 153.18 82.06 154.31 81.41 C 155.46 79.75 156.22 77.85 157.09 76.03 C 157.09 77.14 157.12 78.25 157.20 79.36 C 153.59 85.98 146.10 88.61 140.27 92.76 C 139.47 91.27 138.66 89.78 137.78 88.34 C 135.81 84.60 131.98 82.50 128.75 80.02 Z" />
</g>
<g id="#a4c8cfff">
<path fill="#a4c8cf" opacity="1.00" d=" M 87.08 82.13 C 88.42 79.82 90.94 78.55 92.91 76.87 C 92.16 79.27 91.09 81.77 91.80 84.33 C 92.63 88.03 92.73 91.99 94.50 95.41 C 96.20 98.32 99.63 102.10 103.01 99.13 C 102.26 100.81 101.74 102.81 100.05 103.82 C 96.20 104.30 94.36 100.19 92.49 97.59 C 91.87 95.92 92.10 93.63 90.30 92.64 C 90.18 93.65 89.93 95.68 89.80 96.69 L 88.98 95.89 C 87.36 91.52 86.69 86.77 87.08 82.13 Z" />
<path fill="#a4c8cf" opacity="1.00" d=" M 152.78 147.83 C 152.60 145.00 152.28 141.98 153.93 139.48 C 154.90 143.89 155.03 148.47 154.40 152.94 C 154.14 156.75 150.58 159.02 147.69 160.91 C 145.29 159.69 142.93 157.31 139.99 159.01 C 139.12 156.61 137.97 154.33 136.32 152.37 C 136.50 151.81 136.86 150.70 137.04 150.15 C 137.47 148.73 137.83 147.30 138.21 145.87 C 138.67 146.76 139.15 147.64 139.62 148.53 C 142.68 146.53 145.82 144.42 147.60 141.11 C 149.98 142.79 151.78 145.09 152.78 147.83 Z" />
</g>
<g id="#2d393cdd">
<path fill="#2d393c" opacity="0.87" d=" M 155.56 91.68 C 158.46 89.62 161.83 88.32 165.02 86.78 C 162.94 89.87 158.45 91.37 154.88 92.25 L 155.56 91.68 Z" />
</g>
<g id="#344042c8">
<path fill="#344042" opacity="0.78" d=" M 53.53 93.80 C 53.07 92.01 55.86 89.37 57.26 91.26 L 55.70 91.47 C 55.28 91.81 54.44 92.50 54.03 92.84 C 54.94 95.72 56.12 98.49 57.17 101.32 C 58.91 106.03 61.19 110.51 62.94 115.21 C 63.58 117.28 65.03 118.90 66.74 120.17 C 64.89 119.60 63.22 118.62 62.33 116.81 C 57.27 122.38 54.44 129.49 51.49 136.30 L 50.57 136.03 C 51.15 134.39 51.84 132.78 52.20 131.07 C 48.42 128.92 43.83 128.17 40.54 125.10 C 44.89 126.29 48.69 129.02 53.15 129.97 C 54.24 127.92 55.35 125.89 56.47 123.87 C 55.89 122.54 55.37 121.18 54.92 119.81 C 55.65 120.68 56.38 121.54 57.13 122.40 C 58.78 119.89 60.43 117.38 62.07 114.87 C 60.14 113.91 58.21 112.94 56.21 112.13 C 54.76 111.60 53.28 111.17 51.79 110.78 C 51.90 112.45 52.43 114.04 53.07 115.57 C 53.40 116.42 53.73 117.26 54.07 118.11 C 52.24 116.53 51.63 114.06 50.84 111.88 C 51.12 110.54 52.68 109.69 53.93 110.36 C 56.31 111.20 58.54 112.47 61.03 113.03 C 58.49 106.64 55.57 100.38 53.53 93.80 Z" />
</g>
<g id="#685c5cff">
<path fill="#685c5c" opacity="1.00" d=" M 113.23 104.32 C 116.85 99.19 121.56 94.88 126.57 91.15 C 127.86 92.86 129.14 94.59 130.05 96.54 L 128.97 96.15 C 127.90 95.05 126.84 93.95 125.77 92.86 C 124.48 96.49 125.99 100.54 125.06 104.32 C 126.85 104.06 128.68 103.93 130.40 103.32 C 130.86 101.65 130.57 99.89 130.60 98.19 C 131.41 99.99 132.11 101.87 132.05 103.89 C 130.19 104.32 128.40 104.97 126.63 105.64 C 122.91 106.25 119.27 107.23 115.65 108.23 C 115.37 107.08 115.09 105.93 114.81 104.79 C 114.16 105.54 113.52 106.30 112.87 107.06 C 113.40 107.55 114.46 108.53 115.00 109.02 C 114.20 109.03 112.61 109.05 111.81 109.06 C 110.70 107.34 112.46 105.76 113.23 104.32 M 118.17 100.35 L 118.24 100.80 C 116.36 101.53 115.49 103.03 116.32 104.95 C 117.71 108.21 121.12 105.04 123.57 105.03 C 125.24 102.23 124.53 98.84 123.70 95.90 C 121.63 97.08 119.90 98.74 118.17 100.35 Z" />
</g>
<g id="#d8e5eaff">
<path fill="#d8e5ea" opacity="1.00" d=" M 54.03 92.84 C 54.44 92.50 55.28 91.81 55.70 91.47 L 57.26 91.26 C 57.57 91.40 58.19 91.69 58.50 91.84 C 60.51 93.40 62.53 94.93 64.61 96.40 C 62.93 97.06 61.38 95.99 59.86 95.43 C 61.12 97.20 62.23 99.07 63.23 101.00 C 61.59 100.19 59.99 99.31 58.41 98.40 C 58.00 99.37 57.58 100.35 57.17 101.32 C 56.12 98.49 54.94 95.72 54.03 92.84 Z" />
</g>
<g id="#272c2daf">
<path fill="#272c2d" opacity="0.69" d=" M 58.50 91.84 C 61.00 92.01 62.72 94.10 64.77 95.29 C 65.86 96.25 67.72 96.71 68.00 98.32 C 66.87 97.68 65.73 97.07 64.61 96.40 C 62.53 94.93 60.51 93.40 58.50 91.84 Z" />
</g>
<g id="#d3d1d2ff">
<path fill="#d3d1d2" opacity="1.00" d=" M 86.17 91.00 C 86.73 92.51 86.99 94.10 87.17 95.70 C 87.74 96.98 88.31 98.26 88.89 99.54 L 86.35 99.85 C 86.08 97.31 85.90 94.76 85.92 92.20 L 86.17 91.00 Z" />
</g>
<g id="#293336c4">
<path fill="#293336" opacity="0.77" d=" M 146.56 93.67 C 149.02 93.06 151.49 92.47 154.02 92.20 C 154.16 92.42 154.44 92.85 154.58 93.07 C 152.47 93.53 150.36 93.94 148.24 94.34 C 147.53 99.06 146.30 103.68 144.83 108.21 L 144.39 107.43 C 145.09 103.16 146.60 99.06 147.09 94.75 C 146.11 94.71 144.16 94.63 143.18 94.59 C 144.30 94.27 145.43 93.96 146.56 93.67 Z" />
</g>
<g id="#7f9da3ff">
<path fill="#7f9da3" opacity="1.00" d=" M 90.30 92.64 C 92.10 93.63 91.87 95.92 92.49 97.59 C 91.56 97.40 90.66 97.08 89.80 96.69 C 89.93 95.68 90.18 93.65 90.30 92.64 Z" />
</g>
<g id="#eeedf2ff">
<path fill="#eeedf2" opacity="1.00" d=" M 125.06 104.32 C 125.99 100.54 124.48 96.49 125.77 92.86 C 126.84 93.95 127.90 95.05 128.97 96.15 C 129.37 96.66 130.19 97.68 130.60 98.19 C 130.57 99.89 130.86 101.65 130.40 103.32 C 128.68 103.93 126.85 104.06 125.06 104.32 Z" />
<path fill="#eeedf2" opacity="1.00" d=" M 116.32 104.95 C 115.49 103.03 116.36 101.53 118.24 100.80 C 118.41 101.85 118.58 102.90 118.75 103.95 C 118.15 104.20 116.93 104.70 116.32 104.95 Z" />
<path fill="#eeedf2" opacity="1.00" d=" M 148.94 161.49 C 150.01 160.63 151.09 159.77 152.18 158.91 C 152.04 159.70 151.76 161.29 151.62 162.08 C 151.40 162.62 150.96 163.71 150.75 164.25 C 150.18 163.31 149.55 162.40 148.94 161.49 Z" />
<path fill="#eeedf2" opacity="1.00" d=" M 109.76 175.58 C 111.59 174.85 113.27 173.77 115.09 173.00 C 113.74 173.96 112.34 174.84 110.94 175.70 C 110.60 176.39 110.25 177.08 109.91 177.78 L 109.05 177.93 C 107.65 176.99 106.33 175.92 105.05 174.82 C 106.64 174.88 108.18 175.43 109.76 175.58 Z" />
</g>
<g id="#617a80ff">
<path fill="#617a80" opacity="1.00" d=" M 109.89 102.31 C 110.58 99.59 110.60 95.78 113.39 94.34 C 112.77 96.82 112.10 99.28 111.68 101.80 C 111.23 101.93 110.34 102.18 109.89 102.31 Z" />
</g>
<g id="#c24536ff">
<path fill="#c24536" opacity="1.00" d=" M 118.17 100.35 C 119.90 98.74 121.63 97.08 123.70 95.90 C 124.53 98.84 125.24 102.23 123.57 105.03 C 122.71 102.98 120.36 104.04 118.75 103.95 C 118.58 102.90 118.41 101.85 118.24 100.80 L 118.17 100.35 Z" />
</g>
<g id="#3f4b4dcb">
<path fill="#3f4b4d" opacity="0.80" d=" M 68.49 98.67 C 71.84 99.25 74.30 102.05 77.15 103.75 C 79.26 102.87 81.20 101.51 83.46 101.00 C 81.99 102.09 80.43 103.03 78.84 103.91 C 79.51 104.86 80.18 105.80 80.86 106.74 L 81.11 107.76 C 79.41 106.05 77.50 104.55 75.35 103.45 C 72.90 102.10 70.61 100.49 68.49 98.67 Z" />
</g>
<g id="#b13a28ff">
<path fill="#b13a28" opacity="1.00" d=" M 88.04 100.24 C 89.56 100.27 90.00 102.72 89.72 103.94 C 88.29 104.12 87.32 101.39 88.04 100.24 Z" />
</g>
<g id="#cfe7ecff">
<path fill="#cfe7ec" opacity="1.00" d=" M 83.46 101.00 L 83.92 100.70 L 85.65 100.72 C 84.41 102.69 83.06 104.70 82.95 107.11 C 82.42 107.01 81.38 106.83 80.86 106.74 C 80.18 105.80 79.51 104.86 78.84 103.91 C 80.43 103.03 81.99 102.09 83.46 101.00 Z" />
</g>
<g id="#a5cbd1ff">
<path fill="#a5cbd1" opacity="1.00" d=" M 73.47 104.15 C 73.94 103.98 74.88 103.63 75.35 103.45 C 77.50 104.55 79.41 106.05 81.11 107.76 C 81.58 110.94 82.35 114.53 80.41 117.40 C 77.79 122.15 71.13 122.46 66.74 120.17 C 65.03 118.90 63.58 117.28 62.94 115.21 C 63.32 114.71 64.08 113.72 64.46 113.22 C 67.58 114.23 71.22 116.53 74.33 114.29 C 76.31 111.05 75.13 107.23 73.47 104.15 M 71.75 119.07 C 74.65 118.50 78.25 117.11 79.02 113.92 C 76.43 115.38 74.39 117.64 71.75 119.07 Z" />
</g>
<g id="#ef735aff">
<path fill="#ef735a" opacity="1.00" d=" M 116.32 104.95 C 116.93 104.70 118.15 104.20 118.75 103.95 C 120.36 104.04 122.71 102.98 123.57 105.03 C 121.12 105.04 117.71 108.21 116.32 104.95 Z" />
</g>
<g id="#a6ccd2ff">
<path fill="#a6ccd2" opacity="1.00" d=" M 112.87 107.06 C 113.52 106.30 114.16 105.54 114.81 104.79 C 115.09 105.93 115.37 107.08 115.65 108.23 C 119.27 107.23 122.91 106.25 126.63 105.64 L 128.06 106.04 C 126.10 109.67 122.00 111.23 118.36 112.65 C 116.65 110.60 113.94 110.38 111.81 109.06 C 112.61 109.05 114.20 109.03 115.00 109.02 C 114.46 108.53 113.40 107.55 112.87 107.06 Z" />
</g>
<g id="#455358ee">
<path fill="#455358" opacity="0.93" d=" M 137.79 120.02 C 140.15 116.44 142.09 112.61 144.02 108.79 C 143.88 110.75 143.19 112.59 142.19 114.27 C 143.15 115.21 144.47 115.92 144.92 117.27 C 143.96 116.83 143.00 116.39 142.04 115.95 C 140.54 118.23 139.07 120.54 137.64 122.87 C 138.49 122.84 140.19 122.78 141.05 122.75 C 135.83 124.63 132.41 129.45 131.83 134.90 C 131.58 135.42 131.07 136.45 130.82 136.96 C 130.47 140.15 130.41 143.43 129.15 146.44 C 127.73 149.24 129.71 152.11 129.60 155.01 C 129.61 159.34 130.42 164.32 127.87 168.11 C 127.89 167.67 127.94 166.77 127.96 166.32 C 128.64 161.29 129.69 156.10 128.15 151.12 C 125.82 154.57 124.23 158.53 121.35 161.60 C 120.98 162.00 120.24 162.80 119.87 163.20 C 120.03 164.04 120.20 164.88 120.37 165.73 C 119.85 166.51 119.32 167.30 118.80 168.08 C 119.14 169.69 119.48 171.30 119.83 172.91 C 121.10 173.63 122.37 174.34 123.65 175.06 C 124.71 173.25 125.87 171.49 127.09 169.78 C 126.84 170.57 126.34 172.14 126.09 172.93 C 126.94 174.20 128.77 175.33 128.21 177.10 C 126.49 177.17 124.76 177.29 123.04 177.42 C 121.22 173.26 115.04 174.08 112.76 177.38 C 113.70 178.23 114.62 179.09 115.54 179.96 C 114.34 179.91 113.36 179.40 112.59 178.42 C 111.92 178.26 110.58 177.94 109.91 177.78 C 110.25 177.08 110.60 176.39 110.94 175.70 C 112.34 174.84 113.74 173.96 115.09 173.00 C 113.27 173.77 111.59 174.85 109.76 175.58 C 108.18 175.43 106.64 174.88 105.05 174.82 C 106.33 175.92 107.65 176.99 109.05 177.93 C 109.22 178.24 109.56 178.86 109.73 179.18 L 108.22 178.29 C 107.46 178.42 105.95 178.67 105.19 178.80 C 105.12 176.44 104.21 173.17 101.21 173.56 C 93.32 175.99 84.79 175.73 76.96 173.22 C 76.38 174.52 75.76 175.81 75.12 177.08 L 74.91 176.36 C 75.45 174.41 76.18 172.53 76.84 170.62 C 79.59 164.51 78.44 157.79 76.34 151.70 C 75.03 146.92 72.12 142.90 69.67 138.68 C 73.01 140.43 74.59 144.05 76.24 147.23 C 76.74 148.34 77.19 149.47 77.61 150.61 C 80.04 157.69 80.70 165.59 77.90 172.67 C 79.19 172.99 80.49 173.29 81.79 173.55 C 88.07 174.73 94.65 174.59 100.80 172.80 C 98.15 166.97 92.62 163.31 89.18 158.01 C 87.92 155.92 87.09 153.58 85.70 151.58 C 83.98 149.84 82.07 148.23 80.93 146.01 C 79.65 142.47 79.60 138.62 79.85 134.90 C 80.78 130.49 81.84 125.39 85.80 122.65 C 80.48 130.28 78.50 141.56 84.78 149.24 C 84.70 146.31 84.06 143.14 85.56 140.45 C 86.89 137.57 89.91 135.88 92.96 135.48 C 94.27 135.71 95.58 135.99 96.89 136.26 C 91.73 135.78 86.95 138.95 85.42 143.89 C 86.56 152.08 90.83 159.56 96.97 165.04 C 99.56 167.23 100.40 170.87 103.10 172.92 C 107.28 173.87 111.98 172.99 115.41 170.36 C 116.84 169.55 117.08 167.92 117.16 166.43 C 117.66 166.40 118.65 166.34 119.14 166.31 L 119.02 164.74 C 118.39 164.93 117.13 165.30 116.51 165.48 C 114.46 161.86 111.62 158.66 110.36 154.64 C 108.36 150.00 107.78 144.54 104.22 140.73 C 102.47 138.72 99.16 138.67 97.91 136.21 C 102.22 137.27 106.53 139.96 108.28 144.18 C 109.91 149.98 111.63 155.96 115.16 160.93 C 115.94 161.72 116.55 163.40 117.94 163.00 C 119.47 162.30 120.39 160.76 121.41 159.49 C 125.49 153.53 129.28 146.91 129.44 139.50 C 129.48 139.30 129.54 138.90 129.57 138.70 C 129.74 131.55 133.98 125.71 137.79 120.02 M 117.21 170.28 C 116.83 170.70 116.08 171.53 115.70 171.95 C 116.26 172.16 117.36 172.56 117.92 172.77 C 118.64 171.62 118.40 170.79 117.21 170.28 M 125.71 175.26 C 126.32 175.87 126.32 175.87 125.71 175.26 Z" />
</g>
<g id="#a5ccd5ff">
<path fill="#a5ccd5" opacity="1.00" d=" M 51.79 110.78 C 53.28 111.17 54.76 111.60 56.21 112.13 C 55.17 113.28 54.12 114.43 53.07 115.57 C 52.43 114.04 51.90 112.45 51.79 110.78 Z" />
</g>
<g id="#80a5b6ff">
<path fill="#80a5b6" opacity="1.00" d=" M 56.21 112.13 C 58.21 112.94 60.14 113.91 62.07 114.87 C 60.43 117.38 58.78 119.89 57.13 122.40 C 56.38 121.54 55.65 120.68 54.92 119.81 C 54.71 119.38 54.28 118.53 54.07 118.11 C 53.73 117.26 53.40 116.42 53.07 115.57 C 54.12 114.43 55.17 113.28 56.21 112.13 Z" />
</g>
<g id="#89b0beff">
<path fill="#89b0be" opacity="1.00" d=" M 142.04 115.95 C 143.00 116.39 143.96 116.83 144.92 117.27 L 145.44 117.51 L 145.51 117.60 C 147.06 119.85 148.68 122.06 150.26 124.29 C 147.94 122.59 145.23 121.77 142.38 122.24 C 144.55 123.09 147.13 123.40 148.81 125.17 C 152.25 128.61 152.77 133.69 154.05 138.15 C 154.02 138.48 153.96 139.14 153.93 139.48 C 152.28 141.98 152.60 145.00 152.78 147.83 C 151.78 145.09 149.98 142.79 147.60 141.11 C 145.82 144.42 142.68 146.53 139.62 148.53 C 139.15 147.64 138.67 146.76 138.21 145.87 C 137.83 147.30 137.47 148.73 137.04 150.15 C 137.54 145.22 135.34 140.43 132.66 136.43 C 132.45 136.05 132.04 135.28 131.83 134.90 C 132.41 129.45 135.83 124.63 141.05 122.75 C 140.19 122.78 138.49 122.84 137.64 122.87 C 139.07 120.54 140.54 118.23 142.04 115.95 Z" />
</g>
<g id="#88afbdff">
<path fill="#88afbd" opacity="1.00" d=" M 132.06 116.73 C 134.13 117.50 136.21 118.41 137.79 120.02 C 133.98 125.71 129.74 131.55 129.57 138.70 C 126.15 134.12 121.42 130.75 115.76 129.62 C 118.26 129.03 120.81 128.52 123.15 127.40 C 115.97 128.62 108.43 128.59 101.66 125.59 C 103.80 124.28 106.41 123.10 108.89 124.23 C 110.73 124.53 112.78 126.04 114.52 124.73 C 117.13 122.73 119.69 120.59 122.84 119.49 C 123.93 121.41 125.07 123.29 126.30 125.12 C 129.38 123.16 129.31 118.99 132.06 116.73 Z" />
</g>
<g id="#dfdbdfff">
<path fill="#dfdbdf" opacity="1.00" d=" M 124.53 118.89 C 125.98 118.26 127.54 118.01 129.10 117.78 C 128.50 119.70 128.41 122.30 126.30 123.23 C 125.65 121.81 125.07 120.36 124.53 118.89 Z" />
</g>
<g id="#263236c5">
<path fill="#263236" opacity="0.77" d=" M 145.51 117.60 C 148.36 118.89 149.60 122.25 151.11 124.82 C 151.77 128.64 153.67 132.10 154.29 135.91 C 154.23 136.47 154.11 137.59 154.05 138.15 C 152.77 133.69 152.25 128.61 148.81 125.17 C 147.13 123.40 144.55 123.09 142.38 122.24 C 145.23 121.77 147.94 122.59 150.26 124.29 C 148.68 122.06 147.06 119.85 145.51 117.60 Z" />
</g>
<g id="#577077ff">
<path fill="#577077" opacity="1.00" d=" M 99.66 118.83 C 99.96 120.64 98.83 123.56 96.58 122.23 C 97.15 120.76 98.32 119.62 99.66 118.83 Z" />
</g>
<g id="#222b2ea9">
<path fill="#222b2e" opacity="0.66" d=" M 32.35 131.99 C 31.32 128.16 29.55 122.75 33.92 120.39 C 35.86 121.37 38.32 122.11 39.30 124.25 L 38.18 123.61 C 36.79 122.83 35.42 122.02 34.06 121.20 C 31.07 124.21 33.25 128.71 33.50 132.37 C 34.01 134.59 34.65 136.79 35.24 139.00 C 33.33 137.26 33.34 134.28 32.35 131.99 Z" />
</g>
<g id="#a0c4ceff">
<path fill="#a0c4ce" opacity="1.00" d=" M 33.50 132.37 C 33.25 128.71 31.07 124.21 34.06 121.20 C 35.42 122.02 36.79 122.83 38.18 123.61 C 37.37 126.89 35.96 129.99 33.50 132.37 Z" />
</g>
<g id="#80a7b6ff">
<path fill="#80a7b6" opacity="1.00" d=" M 38.18 123.61 L 39.30 124.25 C 39.61 124.46 40.23 124.89 40.54 125.10 C 43.83 128.17 48.42 128.92 52.20 131.07 C 51.84 132.78 51.15 134.39 50.57 136.03 C 49.74 140.97 47.35 145.46 46.48 150.35 L 47.61 151.60 L 46.23 150.98 C 46.15 151.75 45.99 153.28 45.92 154.05 C 45.45 153.93 44.53 153.69 44.06 153.57 L 43.76 153.49 C 42.93 152.27 41.90 151.17 41.30 149.82 C 40.86 148.62 40.30 147.35 39.10 146.75 L 38.47 146.33 C 38.39 145.95 38.23 145.20 38.16 144.83 C 38.01 143.27 37.10 141.99 36.02 140.93 C 35.82 140.45 35.43 139.48 35.24 139.00 C 34.65 136.79 34.01 134.59 33.50 132.37 C 35.96 129.99 37.37 126.89 38.18 123.61 Z" />
</g>
<g id="#48668cff">
<path fill="#48668c" opacity="1.00" d=" M 61.65 126.71 C 62.30 124.82 64.48 125.18 66.04 125.12 C 68.48 128.73 64.21 132.08 61.44 133.88 C 61.24 131.50 60.95 129.03 61.65 126.71 Z" />
</g>
<g id="#95bcc6ff">
<path fill="#95bcc6" opacity="1.00" d=" M 92.94 125.10 C 95.20 127.23 97.99 126.75 100.71 126.16 C 102.28 128.35 103.61 130.71 104.98 133.04 C 106.80 136.11 107.07 139.76 108.43 143.02 C 108.39 143.31 108.32 143.89 108.28 144.18 C 106.53 139.96 102.22 137.27 97.91 136.21 C 99.16 138.67 102.47 138.72 104.22 140.73 C 107.78 144.54 108.36 150.00 110.36 154.64 C 111.62 158.66 114.46 161.86 116.51 165.48 C 117.13 165.30 118.39 164.93 119.02 164.74 L 119.14 166.31 C 118.65 166.34 117.66 166.40 117.16 166.43 C 117.08 167.92 116.84 169.55 115.41 170.36 C 111.98 172.99 107.28 173.87 103.10 172.92 C 100.40 170.87 99.56 167.23 96.97 165.04 C 90.83 159.56 86.56 152.08 85.42 143.89 C 86.95 138.95 91.73 135.78 96.89 136.26 C 95.58 135.99 94.27 135.71 92.96 135.48 C 92.27 132.05 91.17 128.40 92.94 125.10 M 88.61 143.03 C 89.31 147.61 91.31 152.38 95.05 155.31 C 95.97 153.70 97.02 151.82 96.28 149.92 C 95.33 146.80 94.57 143.60 93.27 140.61 C 91.70 137.86 87.98 140.34 88.61 143.03 Z" />
</g>
<g id="#8db5c2ff">
<path fill="#8db5c2" opacity="1.00" d=" M 102.55 127.53 C 106.39 128.81 110.37 129.63 114.41 129.92 C 112.03 131.43 109.45 132.54 106.73 133.28 C 105.74 131.09 104.14 129.29 102.55 127.53 Z" />
</g>
<g id="#b5c8d0ff">
<path fill="#b5c8d0" opacity="1.00" d=" M 114.41 129.92 C 114.75 129.84 115.42 129.69 115.76 129.62 C 121.42 130.75 126.15 134.12 129.57 138.70 C 129.54 138.90 129.48 139.30 129.44 139.50 C 127.81 141.70 126.96 144.31 125.74 146.73 C 122.74 148.69 118.98 150.83 115.31 149.59 C 111.55 146.68 109.65 142.10 109.89 137.39 C 109.56 137.53 108.88 137.82 108.55 137.96 C 107.97 136.39 107.36 134.83 106.73 133.28 C 109.45 132.54 112.03 131.43 114.41 129.92 Z" />
</g>
<g id="#55666aff">
<path fill="#55666a" opacity="1.00" d=" M 51.49 136.30 C 53.21 136.89 54.09 134.44 55.44 133.80 C 54.98 135.16 54.25 136.40 53.41 137.56 C 50.38 141.69 48.73 146.65 47.61 151.60 L 46.48 150.35 C 47.35 145.46 49.74 140.97 50.57 136.03 L 51.49 136.30 Z" />
</g>
<g id="#9cbdc5ff">
<path fill="#9cbdc5" opacity="1.00" d=" M 79.11 142.96 C 79.49 140.28 79.40 137.57 79.85 134.90 C 79.60 138.62 79.65 142.47 80.93 146.01 C 80.17 147.77 79.03 149.32 77.61 150.61 C 77.19 149.47 76.74 148.34 76.24 147.23 C 77.25 145.84 78.35 144.50 79.11 142.96 Z" />
</g>
<g id="#394143c9">
<path fill="#394143" opacity="0.79" d=" M 154.29 135.91 C 155.90 142.98 157.10 151.02 153.48 157.67 C 152.80 159.10 152.90 160.98 151.62 162.08 C 151.76 161.29 152.04 159.70 152.18 158.91 C 151.09 159.77 150.01 160.63 148.94 161.49 C 149.55 162.40 150.18 163.31 150.75 164.25 L 151.15 165.17 C 149.13 164.70 148.37 162.67 147.02 161.35 C 145.30 163.22 144.74 166.03 142.65 167.54 C 142.42 167.47 141.95 167.32 141.72 167.25 C 140.45 164.41 140.55 161.12 138.94 158.42 C 137.25 158.94 135.72 160.80 133.86 160.10 C 134.33 156.03 136.32 152.15 136.34 147.98 C 135.86 143.91 133.74 140.33 132.66 136.43 C 135.34 140.43 137.54 145.22 137.04 150.15 C 136.86 150.70 136.50 151.81 136.32 152.37 C 137.97 154.33 139.12 156.61 139.99 159.01 C 142.93 157.31 145.29 159.69 147.69 160.91 C 150.58 159.02 154.14 156.75 154.40 152.94 C 155.03 148.47 154.90 143.89 153.93 139.48 C 153.96 139.14 154.02 138.48 154.05 138.15 C 154.11 137.59 154.23 136.47 154.29 135.91 M 136.28 154.28 C 135.45 155.98 134.89 157.78 134.95 159.69 C 136.28 158.99 137.51 158.11 138.62 157.08 C 137.84 156.14 137.06 155.21 136.28 154.28 M 140.88 159.55 C 141.05 161.99 141.66 164.36 142.26 166.73 C 144.07 165.55 144.60 163.35 145.63 161.59 C 144.49 160.07 142.71 159.55 140.88 159.55 Z" />
</g>
<g id="#c5d5d9ff">
<path fill="#c5d5d9" opacity="1.00" d=" M 108.55 137.96 C 108.88 137.82 109.56 137.53 109.89 137.39 C 109.65 142.10 111.55 146.68 115.31 149.59 C 118.98 150.83 122.74 148.69 125.74 146.73 C 126.96 144.31 127.81 141.70 129.44 139.50 C 129.28 146.91 125.49 153.53 121.41 159.49 C 120.39 160.76 119.47 162.30 117.94 163.00 C 116.55 163.40 115.94 161.72 115.16 160.93 C 111.63 155.96 109.91 149.98 108.28 144.18 C 108.32 143.89 108.39 143.31 108.43 143.02 C 108.95 141.33 108.99 139.64 108.55 137.96 Z" />
</g>
<g id="#c5dce0ff">
<path fill="#c5dce0" opacity="1.00" d=" M 88.61 143.03 C 87.98 140.34 91.70 137.86 93.27 140.61 C 94.57 143.60 95.33 146.80 96.28 149.92 C 97.02 151.82 95.97 153.70 95.05 155.31 C 91.31 152.38 89.31 147.61 88.61 143.03 Z" />
</g>
<g id="#1c2528a5">
<path fill="#1c2528" opacity="0.65" d=" M 36.02 140.93 C 37.10 141.99 38.01 143.27 38.16 144.83 C 36.46 145.38 35.13 142.22 36.02 140.93 Z" />
</g>
<g id="#c4d4d8ff">
<path fill="#c4d4d8" opacity="1.00" d=" M 77.61 150.61 C 79.03 149.32 80.17 147.77 80.93 146.01 C 82.07 148.23 83.98 149.84 85.70 151.58 C 87.09 153.58 87.92 155.92 89.18 158.01 L 89.40 159.33 C 88.29 158.69 87.20 158.06 86.11 157.41 C 84.62 158.37 82.44 158.90 81.91 160.81 C 81.00 164.34 80.82 168.00 80.17 171.57 C 80.87 171.78 82.25 172.19 82.94 172.40 C 82.65 172.69 82.08 173.26 81.79 173.55 C 80.49 173.29 79.19 172.99 77.90 172.67 C 80.70 165.59 80.04 157.69 77.61 150.61 Z" />
</g>
<g id="#192024bc">
<path fill="#192024" opacity="0.74" d=" M 39.10 146.75 C 40.30 147.35 40.86 148.62 41.30 149.82 C 39.81 150.57 38.27 147.96 39.10 146.75 Z" />
</g>
<g id="#4f6b90ff">
<path fill="#4f6b90" opacity="1.00" d=" M 51.17 148.20 C 54.37 146.98 58.56 146.41 60.52 149.90 C 58.73 154.53 56.79 159.10 54.54 163.52 C 53.82 164.35 52.79 165.72 51.79 164.33 C 48.33 161.92 48.44 157.55 48.71 153.80 C 49.19 151.86 49.03 149.16 51.17 148.20 Z" />
</g>
<g id="#3a4144d4">
<path fill="#3a4144" opacity="0.83" d=" M 46.23 150.98 L 47.61 151.60 C 46.85 155.79 46.59 160.06 47.04 164.30 C 47.16 167.67 47.99 170.94 48.95 174.16 C 49.67 176.31 50.19 178.56 51.32 180.56 C 53.22 182.52 55.54 184.04 57.31 186.15 C 60.42 181.97 65.90 182.42 70.10 184.51 C 71.32 182.58 72.59 180.69 73.83 178.78 C 72.34 181.75 75.95 183.67 75.81 186.65 C 74.22 187.15 72.58 187.42 70.93 187.59 C 70.59 190.53 66.63 195.12 64.05 191.86 C 67.30 193.06 69.81 189.92 70.06 186.95 C 66.74 183.01 60.53 183.61 57.55 187.63 C 55.24 187.34 52.72 188.71 50.60 187.50 C 50.39 185.84 50.99 184.22 51.35 182.62 C 47.59 175.00 45.40 166.46 45.86 157.94 C 46.15 156.21 44.75 154.98 44.06 153.57 C 44.53 153.69 45.45 153.93 45.92 154.05 C 45.99 153.28 46.15 151.75 46.23 150.98 M 52.18 182.91 C 51.69 184.25 51.33 185.63 51.09 187.04 C 52.83 187.00 54.56 186.94 56.29 186.85 C 55.64 184.92 53.78 183.96 52.18 182.91 M 70.21 186.55 C 71.90 186.68 73.55 186.45 75.16 185.88 C 74.45 184.59 73.69 183.33 72.91 182.09 C 71.82 183.45 70.83 184.90 70.21 186.55 Z" />
</g>
<g id="#93bbc5ff">
<path fill="#93bbc5" opacity="1.00" d=" M 76.34 151.70 C 78.44 157.79 79.59 164.51 76.84 170.62 C 75.55 168.64 76.26 166.34 76.67 164.23 C 74.52 166.22 72.00 167.79 69.05 168.20 C 66.14 168.20 65.98 171.96 63.41 172.58 C 64.11 170.32 64.66 168.01 65.20 165.70 C 67.88 164.37 70.56 162.89 72.63 160.67 C 75.09 158.34 75.30 154.74 76.34 151.70 Z" />
</g>
<g id="#7ba5b8ff">
<path fill="#7ba5b8" opacity="1.00" d=" M 121.35 161.60 C 124.23 158.53 125.82 154.57 128.15 151.12 C 129.69 156.10 128.64 161.29 127.96 166.32 C 127.60 164.63 127.17 162.96 126.77 161.29 C 124.96 161.39 123.15 161.50 121.35 161.60 Z" />
</g>
<g id="#93b9c4ff">
<path fill="#93b9c4" opacity="1.00" d=" M 47.04 164.30 C 47.66 160.81 48.08 157.29 48.71 153.80 C 48.44 157.55 48.33 161.92 51.79 164.33 C 52.79 165.72 53.82 164.35 54.54 163.52 C 55.85 164.40 57.26 165.14 58.83 165.44 C 58.55 166.25 58.27 167.07 57.98 167.88 C 58.44 169.05 58.92 170.21 59.41 171.37 C 55.77 169.86 50.55 169.74 48.95 174.16 C 47.99 170.94 47.16 167.67 47.04 164.30 Z" />
</g>
<g id="#f2f1f4ff">
<path fill="#f2f1f4" opacity="1.00" d=" M 136.28 154.28 C 137.06 155.21 137.84 156.14 138.62 157.08 C 137.51 158.11 136.28 158.99 134.95 159.69 C 134.89 157.78 135.45 155.98 136.28 154.28 Z" />
</g>
<g id="#b5c6cfff">
<path fill="#b5c6cf" opacity="1.00" d=" M 86.11 157.41 C 87.20 158.06 88.29 158.69 89.40 159.33 L 89.18 158.01 C 92.62 163.31 98.15 166.97 100.80 172.80 C 94.65 174.59 88.07 174.73 81.79 173.55 C 82.08 173.26 82.65 172.69 82.94 172.40 C 82.25 172.19 80.87 171.78 80.17 171.57 C 80.82 168.00 81.00 164.34 81.91 160.81 C 82.44 158.90 84.62 158.37 86.11 157.41 Z" />
</g>
<g id="#fafafcff">
<path fill="#fafafc" opacity="1.00" d=" M 140.88 159.55 C 142.71 159.55 144.49 160.07 145.63 161.59 C 144.60 163.35 144.07 165.55 142.26 166.73 C 141.66 164.36 141.05 161.99 140.88 159.55 Z" />
</g>
<g id="#5e8da5ff">
<path fill="#5e8da5" opacity="1.00" d=" M 121.35 161.60 C 123.15 161.50 124.96 161.39 126.77 161.29 C 127.17 162.96 127.60 164.63 127.96 166.32 C 127.94 166.77 127.89 167.67 127.87 168.11 C 127.67 168.53 127.28 169.36 127.09 169.78 C 125.87 171.49 124.71 173.25 123.65 175.06 C 122.37 174.34 121.10 173.63 119.83 172.91 C 119.48 171.30 119.14 169.69 118.80 168.08 C 119.32 167.30 119.85 166.51 120.37 165.73 C 120.20 164.88 120.03 164.04 119.87 163.20 C 120.24 162.80 120.98 162.00 121.35 161.60 Z" />
</g>
<g id="#89b1beff">
<path fill="#89b1be" opacity="1.00" d=" M 69.05 168.20 C 72.00 167.79 74.52 166.22 76.67 164.23 C 76.26 166.34 75.55 168.64 76.84 170.62 C 76.18 172.53 75.45 174.41 74.91 176.36 C 74.64 176.97 74.10 178.17 73.83 178.78 C 72.59 180.69 71.32 182.58 70.10 184.51 C 65.90 182.42 60.42 181.97 57.31 186.15 C 55.54 184.04 53.22 182.52 51.32 180.56 C 50.19 178.56 49.67 176.31 48.95 174.16 C 50.55 169.74 55.77 169.86 59.41 171.37 C 60.17 172.35 61.01 173.28 61.83 174.22 C 62.35 173.66 62.88 173.12 63.41 172.58 C 65.98 171.96 66.14 168.20 69.05 168.20 Z" />
</g>
<g id="#43638aff">
<path fill="#43638a" opacity="1.00" d=" M 58.83 165.44 C 60.95 165.27 63.12 165.04 65.20 165.70 C 64.66 168.01 64.11 170.32 63.41 172.58 C 62.88 173.12 62.35 173.66 61.83 174.22 C 61.01 173.28 60.17 172.35 59.41 171.37 C 58.92 170.21 58.44 169.05 57.98 167.88 C 58.27 167.07 58.55 166.25 58.83 165.44 Z" />
</g>
<g id="#e9e7ebff">
<path fill="#e9e7eb" opacity="1.00" d=" M 117.21 170.28 C 118.40 170.79 118.64 171.62 117.92 172.77 C 117.36 172.56 116.26 172.16 115.70 171.95 C 116.08 171.53 116.83 170.70 117.21 170.28 Z" />
</g>
<g id="#abbacbff">
<path fill="#abbacb" opacity="1.00" d=" M 112.76 177.38 C 115.04 174.08 121.22 173.26 123.04 177.42 C 122.72 177.84 122.07 178.69 121.75 179.11 C 119.83 179.47 117.89 179.80 115.98 180.23 L 115.86 180.25 L 115.54 179.96 C 114.62 179.09 113.70 178.23 112.76 177.38 Z" />
</g>
<g id="#b4c1d2ff">
<path fill="#b4c1d2" opacity="1.00" d=" M 125.71 175.26 C 126.32 175.87 126.32 175.87 125.71 175.26 Z" />
</g>
<g id="#e7e5eaff">
<path fill="#e7e5ea" opacity="1.00" d=" M 52.18 182.91 C 53.78 183.96 55.64 184.92 56.29 186.85 C 54.56 186.94 52.83 187.00 51.09 187.04 C 51.33 185.63 51.69 184.25 52.18 182.91 Z" />
</g>
<g id="#d5d1d5ff">
<path fill="#d5d1d5" opacity="1.00" d=" M 70.21 186.55 C 70.83 184.90 71.82 183.45 72.91 182.09 C 73.69 183.33 74.45 184.59 75.16 185.88 C 73.55 186.45 71.90 186.68 70.21 186.55 Z" />
</g>
<g id="#e0dfe0ff">
<path fill="#e0dfe0" opacity="1.00" d=" M 57.55 187.63 C 60.53 183.61 66.74 183.01 70.06 186.95 C 69.81 189.92 67.30 193.06 64.05 191.86 C 61.68 190.80 59.35 189.54 57.55 187.63 Z" />
</g>
</svg>
