<?xml version="1.0" encoding="UTF-8" ?>
<!DOCTYPE svg PUBLIC "-//W3C//DTD SVG 1.1//EN" "http://www.w3.org/Graphics/SVG/1.1/DTD/svg11.dtd">
<svg width="215pt" height="215pt" viewBox="0 0 215 215" version="1.1" xmlns="http://www.w3.org/2000/svg">
<g id="#00000195">
<path fill="#000001" opacity="0.58" d=" M 93.84 22.62 C 94.96 21.45 95.48 21.67 95.42 23.30 C 95.02 23.13 94.24 22.79 93.84 22.62 Z" />
</g>
<g id="#8ab0c8ff">
<path fill="#8ab0c8" opacity="1.00" d=" M 93.84 22.62 C 94.24 22.79 95.02 23.13 95.42 23.30 C 97.36 23.76 98.62 25.49 100.17 26.63 C 98.35 27.55 96.48 28.37 94.56 29.06 C 94.74 29.91 95.10 31.59 95.27 32.43 C 93.98 33.42 93.52 31.45 93.26 30.57 C 93.13 27.92 92.93 25.17 93.84 22.62 Z" />
</g>
<g id="#141b1f86">
<path fill="#141b1f" opacity="0.53" d=" M 147.80 25.01 C 153.94 24.11 160.23 23.64 166.44 23.73 C 168.95 24.60 168.16 27.74 165.74 28.04 L 166.67 26.63 C 166.63 26.07 166.54 24.96 166.50 24.40 C 163.40 24.52 160.31 24.83 157.22 25.09 C 154.07 25.13 150.94 24.98 147.80 25.01 Z" />
</g>
<g id="#3a322aff">
<path fill="#3a322a" opacity="1.00" d=" M 138.83 27.20 C 141.39 25.24 144.74 25.35 147.80 25.01 C 150.94 24.98 154.07 25.13 157.22 25.09 C 151.08 25.70 144.86 25.79 138.83 27.20 Z" />
<path fill="#3a322a" opacity="1.00" d=" M 142.07 29.05 C 146.02 27.69 150.29 28.18 154.40 28.18 C 156.98 29.60 160.13 30.95 161.12 34.00 C 163.95 42.99 160.83 54.68 151.84 58.91 C 148.99 59.09 146.18 58.33 143.48 57.51 C 141.85 56.86 140.25 56.11 138.66 55.38 C 138.60 54.21 138.53 53.05 138.44 51.89 C 139.21 53.03 140.05 54.12 140.94 55.17 C 142.38 55.54 144.08 56.59 145.50 55.59 C 150.35 52.67 153.08 47.07 152.96 41.47 C 152.16 39.06 151.23 36.44 149.00 34.98 C 146.49 33.40 143.44 33.11 140.62 32.40 C 142.08 32.16 143.54 31.92 145.01 31.74 C 148.84 32.65 151.99 35.24 153.87 38.67 C 154.18 41.56 154.57 44.61 153.42 47.39 C 152.10 51.53 148.65 54.36 145.78 57.42 C 148.67 57.92 151.86 58.14 154.35 56.27 C 158.83 53.07 160.34 47.29 161.08 42.11 C 161.14 38.17 160.77 33.18 157.07 30.87 C 152.24 28.89 146.67 29.35 141.71 30.64 C 137.85 33.49 134.68 37.14 132.30 41.29 L 131.62 40.28 C 132.02 39.31 132.44 38.33 132.88 37.37 C 135.45 34.15 138.15 30.67 142.07 29.05 Z" />
<path fill="#3a322a" opacity="1.00" d=" M 162.51 32.13 C 162.22 30.59 163.73 29.69 164.73 28.84 C 164.14 30.15 162.79 31.44 163.44 32.99 C 165.79 42.09 164.15 53.23 156.56 59.46 C 152.72 62.43 147.75 61.17 143.46 60.19 C 144.04 63.00 144.74 66.18 147.93 67.02 L 147.28 67.18 C 146.87 67.28 146.04 67.48 145.63 67.59 C 147.36 71.54 148.79 75.76 151.70 79.04 C 156.14 80.52 159.64 83.62 162.27 87.43 C 164.63 87.68 167.00 87.98 169.30 88.58 L 168.36 88.96 C 166.64 88.85 164.92 88.70 163.22 88.56 C 163.95 90.75 164.68 92.94 165.42 95.13 C 167.27 93.81 169.19 92.49 170.57 90.64 L 171.13 89.95 C 171.09 93.27 167.82 94.52 165.41 95.94 C 165.33 99.03 165.06 102.16 165.80 105.20 C 165.44 104.68 164.72 103.64 164.37 103.11 C 162.80 105.88 161.33 108.81 158.91 110.94 C 157.04 112.58 155.01 114.08 153.46 116.05 C 157.79 115.67 162.32 114.92 166.45 116.73 C 170.69 118.00 172.86 122.11 175.27 125.45 C 175.14 118.23 169.24 113.32 166.77 106.99 C 170.73 112.76 175.96 118.47 176.11 125.87 C 175.69 131.41 172.71 136.45 168.82 140.28 C 171.52 143.18 173.56 146.58 175.82 149.80 C 174.43 152.52 174.20 155.82 172.06 158.13 C 167.76 163.42 159.57 166.10 153.39 162.55 C 151.00 161.35 149.35 159.18 147.72 157.14 C 144.66 161.66 140.35 165.12 135.79 168.04 C 139.03 167.87 142.37 167.93 145.33 169.46 C 143.17 169.39 141.03 169.08 138.91 168.66 C 136.05 171.05 133.30 173.77 129.73 175.10 C 131.90 173.13 134.24 171.35 136.45 169.42 C 132.41 169.78 128.44 170.62 124.53 171.67 C 120.68 171.88 116.83 171.88 112.98 171.75 C 108.19 171.71 103.86 168.58 99.01 169.42 C 93.85 169.71 87.94 172.29 87.37 178.09 C 95.66 180.84 104.60 180.39 113.17 179.63 C 118.28 178.92 123.21 177.39 128.13 175.89 C 125.57 178.29 121.83 178.60 118.60 179.53 C 108.66 181.33 98.24 181.67 88.36 179.31 C 88.06 180.97 89.09 183.25 87.50 184.47 C 80.55 186.76 73.05 187.84 66.74 191.74 C 65.79 192.24 64.79 192.77 63.68 192.67 C 63.54 191.14 63.56 189.60 63.54 188.07 C 62.60 187.79 60.74 187.25 59.81 186.98 L 60.68 186.99 C 61.75 187.04 62.82 187.10 63.90 187.17 C 65.25 185.19 65.94 182.12 68.50 181.40 L 69.27 181.48 C 65.90 183.99 64.62 188.20 64.16 192.20 C 67.24 190.98 70.04 189.16 72.64 187.13 C 72.04 185.32 71.43 183.53 70.83 181.73 C 73.50 182.53 73.54 185.47 73.98 187.72 C 78.59 185.70 83.83 185.13 88.03 182.22 C 87.45 179.48 87.05 176.71 86.72 173.93 C 81.90 175.09 77.44 177.35 72.68 178.71 C 71.55 178.67 70.42 178.68 69.29 178.72 C 63.89 178.52 59.57 175.10 56.72 170.74 C 55.65 171.77 54.58 172.82 53.51 173.85 C 52.44 173.53 51.36 173.21 50.29 172.90 L 50.37 172.63 C 51.28 170.71 49.24 169.03 48.72 167.28 C 46.49 163.48 47.12 158.93 48.34 154.92 C 47.58 161.26 49.21 167.62 53.17 172.65 C 57.30 170.18 56.04 165.04 57.29 161.09 C 58.64 156.03 58.76 150.76 59.99 145.68 C 55.13 146.02 52.15 149.88 49.18 153.24 C 50.39 151.13 51.70 149.08 53.07 147.07 C 46.50 147.80 39.88 147.07 33.47 145.58 C 30.64 144.72 27.80 143.84 24.84 143.58 C 25.46 145.67 26.10 147.76 26.63 149.88 C 26.71 150.21 26.89 150.89 26.97 151.22 L 27.17 152.04 C 25.74 149.39 23.94 146.51 24.47 143.36 C 25.98 142.04 27.89 143.35 29.53 143.63 C 38.83 146.46 48.73 147.47 58.33 145.69 C 61.33 141.25 56.15 136.03 58.77 131.66 C 60.25 130.28 62.08 131.92 63.00 133.13 C 61.80 132.75 60.58 132.36 59.32 132.26 C 58.44 134.27 59.48 136.37 59.73 138.40 C 59.99 140.48 60.04 142.58 60.11 144.68 C 61.71 141.66 63.71 138.88 66.00 136.35 C 65.30 135.51 64.61 134.66 63.92 133.82 C 65.30 134.69 66.68 135.55 68.09 136.39 C 64.27 139.93 61.43 144.36 60.74 149.61 C 59.36 153.94 58.82 159.31 62.11 162.94 C 65.06 165.48 69.44 164.69 72.98 164.20 C 78.60 163.23 82.39 158.38 84.46 153.40 C 85.54 151.50 84.02 149.57 83.53 147.74 C 81.39 142.51 80.21 136.89 80.39 131.23 C 77.04 132.93 73.47 134.09 69.89 135.20 C 72.94 132.10 78.32 132.63 81.18 128.95 C 81.38 122.88 85.07 117.29 83.32 111.15 C 80.59 111.99 78.38 113.76 76.58 115.93 C 78.54 111.80 82.62 107.01 79.83 102.36 C 78.69 99.79 75.73 99.18 73.27 98.63 C 69.29 97.99 65.24 98.40 61.31 99.16 C 55.48 100.36 49.42 100.73 43.92 103.19 C 44.50 102.01 45.68 101.49 46.87 101.15 C 55.58 98.52 65.03 98.83 73.41 95.06 C 72.37 95.75 71.34 96.43 70.31 97.12 C 72.53 97.55 74.74 98.02 76.92 98.62 C 78.79 99.80 80.99 100.96 81.88 103.12 C 82.82 106.20 80.98 109.18 80.20 112.07 C 84.37 111.10 83.64 106.34 85.37 103.35 C 86.30 100.93 88.82 98.86 88.27 96.07 C 87.49 94.89 86.44 93.93 85.40 92.99 C 84.30 92.47 83.17 92.04 82.01 91.69 C 79.34 90.68 77.16 93.08 74.91 94.13 C 77.27 91.69 79.43 89.06 82.01 86.85 C 81.13 88.18 80.21 89.48 79.28 90.77 C 83.60 89.92 87.56 92.43 89.75 96.04 C 92.40 93.72 95.18 91.55 98.03 89.48 C 97.20 88.30 96.36 87.13 95.52 85.96 C 95.45 84.61 95.39 83.26 95.35 81.91 C 90.91 82.45 86.61 83.89 82.83 86.31 C 85.74 82.26 91.30 81.76 95.88 81.26 C 97.79 77.87 99.30 74.23 99.39 70.28 C 101.02 66.47 97.43 63.82 94.91 61.67 L 96.67 61.75 C 98.41 63.47 100.88 65.29 100.72 68.03 C 100.62 72.91 98.51 77.44 97.05 82.02 C 98.44 84.57 100.16 86.96 102.78 88.38 C 101.80 85.52 99.75 82.63 100.52 79.47 C 101.62 75.40 104.52 72.16 106.34 68.42 C 107.47 66.60 108.40 64.53 110.11 63.16 C 111.95 62.25 113.88 63.27 115.64 63.86 C 114.65 63.98 112.69 64.21 111.71 64.32 C 110.53 64.23 109.55 64.88 109.06 65.94 C 106.95 69.50 104.64 72.94 102.61 76.55 C 101.15 80.64 102.39 84.91 105.19 88.08 C 111.58 86.48 116.16 80.70 117.75 74.50 L 117.97 73.62 C 118.14 74.06 118.46 74.92 118.63 75.36 C 116.59 81.04 112.48 86.47 106.79 88.81 C 103.77 90.25 100.62 88.64 98.22 86.80 L 97.48 87.53 C 98.47 85.63 97.29 83.58 96.05 82.15 C 95.68 84.03 95.87 86.24 97.48 87.53 C 99.03 89.12 100.82 90.48 102.79 91.51 C 110.20 94.75 119.94 93.76 125.52 87.54 C 129.80 82.84 133.57 77.22 134.53 70.81 C 135.11 68.77 133.72 66.98 132.88 65.25 C 130.85 61.74 128.61 58.13 125.23 55.76 C 123.45 54.43 121.44 56.32 119.71 56.83 C 119.78 57.65 119.94 59.28 120.02 60.10 C 117.47 58.56 114.77 57.30 112.05 56.09 C 105.00 53.60 98.73 48.38 90.98 48.33 C 88.17 48.16 85.71 49.72 83.25 50.84 C 84.17 52.53 86.77 54.29 84.73 56.22 C 83.65 55.34 82.64 54.38 81.68 53.38 C 84.07 52.67 81.39 49.86 80.61 52.27 C 78.54 50.82 78.72 47.26 80.39 45.55 C 80.31 46.55 80.16 48.55 80.08 49.55 C 81.97 49.63 83.99 49.84 85.60 48.63 C 88.21 46.70 91.52 47.18 94.55 47.28 C 102.53 50.47 110.37 53.98 118.22 57.47 C 120.34 55.65 122.85 54.39 125.63 53.94 C 130.15 58.72 135.31 64.06 135.71 71.00 C 134.81 77.42 131.00 83.07 126.78 87.82 C 122.23 92.76 115.17 94.70 108.62 94.32 C 106.46 93.70 104.34 92.94 102.20 92.27 C 102.45 99.76 108.81 105.43 108.84 112.96 C 109.07 116.58 106.83 119.58 104.99 122.48 C 100.31 126.15 94.02 126.60 88.77 123.86 C 87.34 121.98 85.86 120.13 84.39 118.28 C 83.44 121.25 82.08 124.26 82.28 127.43 C 83.42 130.49 86.27 132.50 88.75 134.45 C 91.82 136.58 95.15 138.33 98.67 139.58 C 106.50 142.81 115.01 144.46 123.48 144.31 C 126.61 144.37 129.76 144.24 132.79 143.43 C 132.40 141.47 131.96 139.42 130.47 137.97 C 129.64 137.29 128.81 136.61 127.97 135.94 C 128.10 135.35 128.35 134.17 128.47 133.58 C 125.88 131.85 122.75 130.84 120.70 128.40 C 116.93 124.29 116.02 117.61 118.91 112.78 C 120.77 109.31 124.14 107.09 127.24 104.84 C 131.88 101.20 137.07 97.16 138.23 91.02 C 139.56 85.29 143.59 79.90 149.65 78.79 C 147.06 73.41 144.72 67.89 143.25 62.09 C 142.85 59.23 139.62 58.56 137.61 57.07 C 139.38 57.69 141.15 58.35 142.93 58.96 C 146.84 60.26 151.35 61.55 155.19 59.32 C 160.30 56.42 162.33 50.30 163.36 44.86 C 164.33 40.59 162.97 36.36 162.51 32.13 M 140.04 88.07 C 138.55 93.97 136.41 100.27 138.67 106.28 C 140.13 111.20 145.26 114.02 150.08 114.56 C 155.84 114.02 159.61 108.85 162.51 104.37 C 165.36 100.10 164.89 94.51 162.48 90.16 C 159.91 84.86 154.96 79.50 148.47 80.65 C 144.61 81.46 140.99 84.09 140.04 88.07 M 84.87 117.02 C 87.05 120.71 90.47 124.38 95.07 124.45 C 99.10 124.96 103.29 123.39 105.66 120.03 C 107.17 116.95 108.17 113.41 107.08 110.03 C 105.88 103.72 100.66 98.63 101.27 91.93 C 100.69 91.51 99.52 90.66 98.94 90.23 C 89.91 95.62 82.19 106.04 84.87 117.02 M 124.78 107.73 C 119.61 111.44 116.56 118.43 119.65 124.45 C 121.91 128.65 125.93 132.82 131.16 132.04 C 131.04 130.95 130.74 129.93 130.26 128.98 C 130.52 126.93 131.34 125.04 132.25 123.21 C 134.55 121.85 136.78 120.19 139.45 119.67 C 142.29 119.31 145.15 120.07 147.99 119.74 C 150.29 119.36 152.25 117.97 154.24 116.85 C 151.51 114.66 147.54 116.27 144.60 114.38 C 138.00 111.54 135.07 103.70 137.09 96.98 C 133.66 101.30 129.26 104.59 124.78 107.73 M 154.37 118.47 C 151.69 120.05 148.75 121.48 145.56 120.60 C 141.45 120.37 137.35 121.04 133.75 123.09 C 134.01 123.65 134.55 124.78 134.82 125.35 C 134.71 126.11 134.49 127.64 134.38 128.40 L 133.89 128.34 C 133.44 129.14 132.99 129.95 132.55 130.76 C 133.74 131.85 134.84 133.08 134.57 134.83 C 134.02 136.51 133.47 138.21 132.91 139.89 C 133.24 140.93 133.60 141.96 133.99 142.98 C 131.77 143.82 134.65 146.69 136.09 145.83 C 135.76 145.31 135.12 144.26 134.80 143.73 C 137.27 142.59 137.65 147.03 139.86 147.23 C 147.58 148.18 155.74 147.24 162.74 143.75 C 167.47 140.61 172.25 136.48 173.79 130.81 C 175.67 125.10 170.45 120.56 166.33 117.55 C 162.45 116.07 157.95 116.27 154.37 118.47 M 131.97 128.87 C 133.47 128.90 134.83 125.55 132.92 125.03 C 131.45 125.48 131.43 127.70 131.97 128.87 M 81.64 129.15 C 81.64 133.95 81.46 139.03 83.49 143.49 C 86.10 147.24 90.46 149.15 94.34 151.30 C 101.05 155.29 108.92 156.61 116.53 157.73 C 123.00 159.38 129.71 157.82 136.10 156.50 C 141.31 155.26 146.82 153.32 149.95 148.66 C 145.28 148.68 140.41 148.89 136.13 146.70 C 135.44 146.67 134.06 146.61 133.36 146.59 C 133.00 146.22 132.28 145.49 131.92 145.12 C 120.92 146.20 109.60 145.14 99.36 140.77 C 95.62 139.23 92.19 137.06 88.65 135.13 L 88.64 135.07 C 85.86 133.65 83.91 131.19 81.64 129.15 M 128.73 134.75 C 130.14 136.00 131.66 137.14 133.37 137.96 C 133.48 136.04 133.48 134.11 133.39 132.19 C 131.75 132.88 130.20 133.76 128.73 134.75 M 156.58 147.16 C 154.56 147.78 151.51 147.46 151.02 150.12 C 150.03 152.79 147.99 156.06 150.23 158.68 C 154.54 162.94 161.77 164.28 167.13 161.24 C 170.40 158.98 174.04 155.99 173.91 151.61 C 173.68 147.46 171.29 144.08 168.45 141.25 C 164.95 144.02 161.06 146.41 156.58 147.16 M 84.09 145.98 C 85.22 148.90 86.63 151.70 88.43 154.26 C 92.44 162.06 100.27 166.93 108.27 169.86 C 118.89 172.88 131.05 170.84 139.61 163.69 C 143.26 160.69 147.17 157.19 148.40 152.47 C 136.67 159.74 121.87 160.74 108.68 157.38 C 104.08 156.90 99.98 154.70 95.58 153.51 C 91.60 151.23 87.54 149.05 84.09 145.98 M 148.40 152.47 C 148.88 151.98 148.88 151.98 148.40 152.47 M 78.28 163.21 C 74.13 166.00 68.75 166.08 64.03 164.94 C 61.26 164.32 59.85 161.68 58.16 159.68 C 57.77 163.73 56.57 168.36 59.00 172.01 C 61.48 174.95 65.00 177.76 69.08 177.45 C 75.62 177.65 81.29 173.91 87.56 172.68 C 91.23 169.44 96.08 168.31 100.85 168.02 C 94.61 164.45 89.58 159.15 85.82 153.07 C 84.09 156.92 82.01 160.94 78.28 163.21 Z" />
<path fill="#3a322a" opacity="1.00" d=" M 80.53 44.02 C 82.13 41.74 83.50 39.07 86.13 37.82 C 84.45 39.95 82.90 42.18 81.38 44.43 L 80.53 44.02 Z" />
<path fill="#3a322a" opacity="1.00" d=" M 112.81 39.07 C 115.51 38.46 118.43 38.04 121.13 38.91 C 123.16 41.69 123.15 45.48 123.62 48.81 C 121.90 48.45 120.19 48.03 118.55 47.41 C 115.31 46.02 111.90 45.10 108.54 44.07 C 107.69 43.60 106.14 43.68 106.10 42.42 C 108.09 40.88 110.44 39.89 112.81 39.07 M 114.44 39.82 C 115.26 41.64 115.88 43.54 116.41 45.47 C 118.46 46.43 120.56 47.27 122.72 47.96 C 122.37 45.55 121.90 43.18 121.39 40.81 C 119.40 39.09 116.82 39.57 114.44 39.82 M 108.33 42.37 C 108.66 43.69 109.42 43.94 110.63 43.09 C 110.31 41.76 109.54 41.52 108.33 42.37 Z" />
<path fill="#3a322a" opacity="1.00" d=" M 39.51 117.51 C 36.71 113.27 38.84 106.29 43.16 103.77 C 42.10 105.32 41.06 106.87 40.18 108.53 C 39.65 109.77 39.20 111.05 38.73 112.32 C 40.97 111.52 43.28 111.58 45.27 112.98 C 44.75 115.70 44.72 118.47 44.76 121.23 C 44.56 121.09 44.15 120.83 43.94 120.69 C 43.53 117.82 44.84 114.14 41.94 112.24 C 39.46 112.86 39.16 115.36 39.51 117.51 Z" />
<path fill="#3a322a" opacity="1.00" d=" M 48.06 105.61 C 48.58 105.57 49.61 105.47 50.12 105.43 C 50.51 105.56 51.28 105.81 51.66 105.94 C 53.08 107.44 52.65 109.54 52.68 111.40 C 54.53 109.89 56.59 108.45 59.09 108.55 C 58.76 109.06 58.10 110.10 57.77 110.61 C 57.38 110.35 56.62 109.81 56.23 109.54 C 54.04 111.43 52.19 113.66 50.41 115.93 C 49.28 114.78 48.15 113.64 47.00 112.52 C 47.04 110.18 47.37 107.85 48.06 105.61 M 48.39 108.02 C 47.74 110.59 49.02 113.16 50.95 114.81 C 51.35 112.68 51.90 110.53 51.85 108.35 C 51.49 106.80 47.98 105.02 48.39 108.02 Z" />
<path fill="#3a322a" opacity="1.00" d=" M 40.86 118.86 C 41.38 119.17 42.42 119.78 42.94 120.09 C 42.94 120.95 42.95 122.66 42.95 123.52 C 43.75 123.39 45.36 123.13 46.17 123.00 C 47.39 124.58 48.48 126.25 49.47 127.98 C 53.98 129.26 58.68 128.84 63.18 127.74 C 59.43 130.62 54.37 129.40 50.03 129.14 C 49.79 132.78 45.01 131.65 43.38 129.65 C 40.21 126.66 43.66 122.01 40.86 118.86 M 48.74 131.25 C 49.08 129.02 47.52 127.20 46.66 125.30 C 45.93 124.88 44.46 124.06 43.73 123.64 C 40.37 126.99 45.12 131.32 48.74 131.25 Z" />
<path fill="#3a322a" opacity="1.00" d=" M 168.98 175.20 C 172.57 173.73 174.48 170.13 177.05 167.46 C 174.84 172.76 169.88 177.19 164.01 177.64 C 158.76 177.87 154.15 175.03 149.65 172.74 C 148.14 178.77 153.14 184.62 159.02 185.49 C 160.09 183.31 160.73 180.38 163.35 179.54 C 165.13 178.63 167.02 179.66 168.70 180.27 C 169.55 181.77 170.28 183.34 171.00 184.91 C 173.95 184.72 176.91 184.60 179.87 184.55 C 178.38 180.63 181.39 177.35 184.91 176.13 C 185.99 176.92 185.50 178.61 186.01 179.71 C 185.18 179.24 183.51 178.29 182.68 177.82 C 182.01 178.64 181.36 179.48 180.73 180.33 C 180.66 181.07 180.52 182.53 180.45 183.26 C 182.77 184.68 185.31 185.67 187.87 186.57 L 189.06 187.04 C 188.37 184.95 187.65 182.88 186.76 180.87 C 189.05 182.50 189.26 185.53 189.89 188.04 C 187.15 187.65 184.73 186.24 182.09 185.55 C 178.36 185.12 174.59 185.46 170.86 185.71 C 170.50 187.32 171.18 189.51 169.81 190.73 C 168.23 190.96 166.50 190.30 165.88 188.74 L 167.58 189.17 C 168.06 189.45 169.01 190.00 169.49 190.28 C 171.14 185.71 168.29 178.95 162.56 180.46 C 161.74 181.58 160.90 182.71 160.43 184.03 C 161.55 185.53 162.94 186.78 164.30 188.06 C 163.11 187.64 161.97 187.11 160.90 186.46 C 155.38 186.53 150.67 182.92 148.62 177.91 C 148.21 175.93 148.93 173.96 149.25 172.02 C 148.10 171.33 146.96 170.60 145.96 169.71 C 149.15 170.74 152.00 172.50 154.93 174.07 C 159.17 176.35 164.46 177.10 168.98 175.20 Z" />
<path fill="#3a322a" opacity="1.00" d=" M 45.01 182.00 C 47.25 180.16 48.09 176.85 51.06 175.92 C 50.58 176.40 49.61 177.36 49.13 177.84 C 50.73 178.39 52.26 179.13 53.51 180.29 C 53.66 181.96 53.76 183.64 53.88 185.31 C 55.40 185.69 56.91 186.08 58.43 186.48 C 55.35 186.53 52.34 185.84 49.29 185.57 C 50.41 185.02 51.91 184.79 52.59 183.60 C 52.58 181.72 52.29 179.29 50.02 178.94 C 46.83 180.51 44.40 183.22 42.63 186.25 C 44.51 186.10 46.40 185.93 48.29 185.75 C 46.27 187.02 43.78 186.86 41.52 187.24 C 42.24 185.22 43.37 183.40 45.01 182.00 Z" />
</g>
<g id="#83b2ceff">
<path fill="#83b2ce" opacity="1.00" d=" M 157.22 25.09 C 160.31 24.83 163.40 24.52 166.50 24.40 C 166.54 24.96 166.63 26.07 166.67 26.63 C 162.51 26.32 158.42 27.21 154.40 28.18 C 150.29 28.18 146.02 27.69 142.07 29.05 C 138.15 30.67 135.45 34.15 132.88 37.37 C 132.53 36.98 131.84 36.19 131.49 35.80 C 132.95 34.22 134.19 32.46 135.44 30.72 C 135.57 30.61 135.82 30.38 135.94 30.27 C 136.92 29.78 137.66 29.04 138.17 28.07 C 138.34 27.85 138.66 27.41 138.83 27.20 C 144.86 25.79 151.08 25.70 157.22 25.09 Z" />
</g>
<g id="#293742c0">
<path fill="#293742" opacity="0.75" d=" M 125.47 30.81 C 126.22 28.41 127.90 26.48 130.04 25.20 C 132.52 27.02 132.15 30.25 132.43 32.94 C 133.18 32.38 134.69 31.27 135.44 30.72 C 134.19 32.46 132.95 34.22 131.49 35.80 C 130.62 36.59 129.72 37.33 128.83 38.08 C 130.62 35.71 132.43 33.05 131.44 29.92 C 131.00 28.58 130.54 27.26 130.05 25.94 C 128.55 27.59 127.01 29.20 125.47 30.81 Z" />
</g>
<g id="#648cafff">
<path fill="#648caf" opacity="1.00" d=" M 154.40 28.18 C 158.42 27.21 162.51 26.32 166.67 26.63 L 165.74 28.04 C 165.49 28.24 164.98 28.64 164.73 28.84 C 163.73 29.69 162.22 30.59 162.51 32.13 C 162.97 36.36 164.33 40.59 163.36 44.86 C 162.33 50.30 160.30 56.42 155.19 59.32 C 151.35 61.55 146.84 60.26 142.93 58.96 L 143.48 57.51 C 146.18 58.33 148.99 59.09 151.84 58.91 C 160.83 54.68 163.95 42.99 161.12 34.00 C 160.13 30.95 156.98 29.60 154.40 28.18 Z" />
</g>
<g id="#6fa0bdff">
<path fill="#6fa0bd" opacity="1.00" d=" M 94.56 29.06 C 96.48 28.37 98.35 27.55 100.17 26.63 C 100.54 27.00 101.29 27.74 101.67 28.11 C 102.57 29.12 103.42 30.17 104.30 31.20 C 102.48 31.68 100.68 32.19 98.84 32.58 L 98.11 32.64 C 97.17 32.53 96.22 32.46 95.27 32.43 C 95.10 31.59 94.74 29.91 94.56 29.06 Z" />
<path fill="#6fa0bd" opacity="1.00" d=" M 59.32 132.26 C 60.58 132.36 61.80 132.75 63.00 133.13 L 63.50 133.29 C 62.28 135.02 61.03 136.73 59.73 138.40 C 59.48 136.37 58.44 134.27 59.32 132.26 Z" />
</g>
<g id="#78a6c1ff">
<path fill="#78a6c1" opacity="1.00" d=" M 125.47 30.81 C 127.01 29.20 128.55 27.59 130.05 25.94 C 130.54 27.26 131.00 28.58 131.44 29.92 C 129.34 30.66 127.19 31.34 124.95 31.37 L 125.47 30.81 Z" />
</g>
<g id="#243038ba">
<path fill="#243038" opacity="0.73" d=" M 101.67 28.11 C 103.14 29.01 104.53 30.04 106.05 30.86 C 110.08 31.48 114.55 30.02 118.29 32.15 C 117.42 32.13 115.68 32.09 114.81 32.07 C 111.39 31.47 107.35 33.19 104.30 31.20 C 103.42 30.17 102.57 29.12 101.67 28.11 Z" />
</g>
<g id="#0f1215b5">
<path fill="#0f1215" opacity="0.71" d=" M 135.94 30.27 C 135.65 28.51 136.39 27.78 138.17 28.07 C 137.66 29.04 136.92 29.78 135.94 30.27 Z" />
</g>
<g id="#648caeff">
<path fill="#648cae" opacity="1.00" d=" M 124.95 31.37 C 127.19 31.34 129.34 30.66 131.44 29.92 C 132.43 33.05 130.62 35.71 128.83 38.08 C 129.72 37.33 130.62 36.59 131.49 35.80 C 131.84 36.19 132.53 36.98 132.88 37.37 C 132.44 38.33 132.02 39.31 131.62 40.28 L 132.30 41.29 C 133.12 42.07 134.01 42.77 134.82 43.57 C 136.56 45.79 137.62 48.42 138.26 51.15 L 138.44 51.89 C 138.53 53.05 138.60 54.21 138.66 55.38 C 140.25 56.11 141.85 56.86 143.48 57.51 L 142.93 58.96 C 141.15 58.35 139.38 57.69 137.61 57.07 C 139.62 58.56 142.85 59.23 143.25 62.09 C 144.72 67.89 147.06 73.41 149.65 78.79 C 143.59 79.90 139.56 85.29 138.23 91.02 C 137.07 97.16 131.88 101.20 127.24 104.84 C 121.32 103.70 116.15 100.39 111.92 96.20 C 113.29 95.94 114.66 95.69 116.03 95.46 C 113.53 95.31 111.03 95.05 108.62 94.32 C 115.17 94.70 122.23 92.76 126.78 87.82 C 131.00 83.07 134.81 77.42 135.71 71.00 C 135.31 64.06 130.15 58.72 125.63 53.94 C 122.85 54.39 120.34 55.65 118.22 57.47 C 110.37 53.98 102.53 50.47 94.55 47.28 C 100.19 47.00 105.43 49.83 111.07 49.40 C 113.67 49.25 116.11 48.26 118.55 47.41 C 120.19 48.03 121.90 48.45 123.62 48.81 C 123.15 45.48 123.16 41.69 121.13 38.91 C 118.43 38.04 115.51 38.46 112.81 39.07 C 114.38 37.06 116.02 35.11 117.73 33.21 C 116.76 32.82 115.79 32.44 114.81 32.07 C 115.68 32.09 117.42 32.13 118.29 32.15 C 120.59 32.39 123.28 33.66 124.95 31.37 Z" />
<path fill="#648cae" opacity="1.00" d=" M 73.27 98.63 C 75.73 99.18 78.69 99.79 79.83 102.36 C 82.62 107.01 78.54 111.80 76.58 115.93 C 75.56 117.69 74.35 119.36 72.85 120.74 C 70.01 122.97 66.96 124.94 64.30 127.41 L 64.16 127.53 C 63.92 127.58 63.43 127.68 63.18 127.74 C 58.68 128.84 53.98 129.26 49.47 127.98 C 48.48 126.25 47.39 124.58 46.17 123.00 C 45.36 123.13 43.75 123.39 42.95 123.52 C 42.95 122.66 42.94 120.95 42.94 120.09 L 43.94 120.69 C 44.15 120.83 44.56 121.09 44.76 121.23 C 44.72 118.47 44.75 115.70 45.27 112.98 C 45.70 112.87 46.57 112.64 47.00 112.52 C 48.15 113.64 49.28 114.78 50.41 115.93 C 52.19 113.66 54.04 111.43 56.23 109.54 C 56.62 109.81 57.38 110.35 57.77 110.61 C 58.10 110.10 58.76 109.06 59.09 108.55 C 63.66 108.29 67.97 106.25 71.60 103.57 C 72.90 102.69 73.37 101.16 73.53 99.68 L 73.27 98.63 Z" />
<path fill="#648cae" opacity="1.00" d=" M 83.53 147.74 C 84.02 149.57 85.54 151.50 84.46 153.40 C 82.39 158.38 78.60 163.23 72.98 164.20 C 69.44 164.69 65.06 165.48 62.11 162.94 C 58.82 159.31 59.36 153.94 60.74 149.61 C 62.12 152.43 63.04 155.46 64.50 158.25 C 66.17 156.36 67.63 154.19 69.79 152.81 C 72.72 150.83 76.06 154.96 79.00 152.90 C 80.92 151.59 82.12 149.53 83.53 147.74 Z" />
</g>
<g id="#7d6c60ff">
<path fill="#7d6c60" opacity="1.00" d=" M 141.71 30.64 C 146.67 29.35 152.24 28.89 157.07 30.87 C 160.77 33.18 161.14 38.17 161.08 42.11 C 160.00 41.92 158.93 41.73 157.86 41.53 C 156.65 40.41 155.93 36.94 153.87 38.67 C 151.99 35.24 148.84 32.65 145.01 31.74 C 143.91 31.37 142.80 31.00 141.71 30.64 Z" />
</g>
<g id="#82abc5ff">
<path fill="#82abc5" opacity="1.00" d=" M 98.84 32.58 C 100.68 32.19 102.48 31.68 104.30 31.20 C 107.35 33.19 111.39 31.47 114.81 32.07 C 115.79 32.44 116.76 32.82 117.73 33.21 C 116.02 35.11 114.38 37.06 112.81 39.07 C 110.44 39.89 108.09 40.88 106.10 42.42 C 106.14 43.68 107.69 43.60 108.54 44.07 C 111.90 45.10 115.31 46.02 118.55 47.41 C 116.11 48.26 113.67 49.25 111.07 49.40 C 105.43 49.83 100.19 47.00 94.55 47.28 C 91.52 47.18 88.21 46.70 85.60 48.63 C 83.99 49.84 81.97 49.63 80.08 49.55 C 80.16 48.55 80.31 46.55 80.39 45.55 C 80.43 45.17 80.50 44.40 80.53 44.02 L 81.38 44.43 C 82.60 45.01 83.83 45.59 85.08 46.12 C 86.79 46.98 87.98 44.68 88.03 43.24 C 92.69 39.96 97.47 36.84 102.13 33.54 C 101.31 33.30 99.66 32.82 98.84 32.58 M 104.14 42.21 C 106.55 40.61 108.15 38.13 109.92 35.89 C 107.25 36.90 103.99 39.00 104.14 42.21 Z" />
<path fill="#82abc5" opacity="1.00" d=" M 102.20 92.27 C 104.34 92.94 106.46 93.70 108.62 94.32 C 111.03 95.05 113.53 95.31 116.03 95.46 C 114.66 95.69 113.29 95.94 111.92 96.20 C 116.15 100.39 121.32 103.70 127.24 104.84 C 124.14 107.09 120.77 109.31 118.91 112.78 C 116.02 117.61 116.93 124.29 120.70 128.40 C 122.75 130.84 125.88 131.85 128.47 133.58 C 128.35 134.17 128.10 135.35 127.97 135.94 C 128.81 136.61 129.64 137.29 130.47 137.97 C 127.77 139.64 125.25 141.64 123.48 144.31 C 115.01 144.46 106.50 142.81 98.67 139.58 C 99.20 139.33 100.25 138.83 100.78 138.58 C 100.30 138.32 99.35 137.79 98.87 137.53 C 96.84 133.96 94.09 130.89 91.05 128.16 C 90.28 130.25 89.51 132.35 88.75 134.45 C 86.27 132.50 83.42 130.49 82.28 127.43 C 82.08 124.26 83.44 121.25 84.39 118.28 C 85.86 120.13 87.34 121.98 88.77 123.86 C 90.82 128.18 96.54 130.13 100.73 127.75 C 103.05 126.88 103.90 124.46 104.99 122.48 C 106.83 119.58 109.07 116.58 108.84 112.96 C 108.81 105.43 102.45 99.76 102.20 92.27 Z" />
<path fill="#82abc5" opacity="1.00" d=" M 154.37 118.47 C 157.95 116.27 162.45 116.07 166.33 117.55 C 162.90 122.15 158.76 126.18 154.32 129.80 C 157.88 129.02 161.54 128.86 165.17 129.17 C 159.48 136.47 150.12 140.04 141.05 140.18 C 139.29 140.15 137.49 139.90 135.93 139.05 C 134.35 138.31 134.94 136.19 134.57 134.83 C 134.84 133.08 133.74 131.85 132.55 130.76 C 132.99 129.95 133.44 129.14 133.89 128.34 L 134.38 128.40 C 139.49 130.21 146.08 126.34 145.56 120.60 C 148.75 121.48 151.69 120.05 154.37 118.47 Z" />
<path fill="#82abc5" opacity="1.00" d=" M 69.89 135.20 C 73.47 134.09 77.04 132.93 80.39 131.23 C 80.21 136.89 81.39 142.51 83.53 147.74 C 82.12 149.53 80.92 151.59 79.00 152.90 C 76.06 154.96 72.72 150.83 69.79 152.81 C 67.63 154.19 66.17 156.36 64.50 158.25 C 63.04 155.46 62.12 152.43 60.74 149.61 C 61.43 144.36 64.27 139.93 68.09 136.39 L 68.80 135.57 C 69.07 135.48 69.62 135.29 69.89 135.20 M 65.52 142.49 C 63.47 145.37 64.18 148.96 65.27 152.05 C 68.12 149.74 70.31 146.55 71.16 142.96 C 71.25 139.71 66.40 139.83 65.52 142.49 Z" />
</g>
<g id="#594c46ff">
<path fill="#594c46" opacity="1.00" d=" M 132.30 41.29 C 134.68 37.14 137.85 33.49 141.71 30.64 C 142.80 31.00 143.91 31.37 145.01 31.74 C 143.54 31.92 142.08 32.16 140.62 32.40 C 143.44 33.11 146.49 33.40 149.00 34.98 C 151.23 36.44 152.16 39.06 152.96 41.47 C 147.41 44.50 144.33 50.11 140.94 55.17 C 140.05 54.12 139.21 53.03 138.44 51.89 L 138.26 51.15 C 137.70 48.41 136.82 45.61 134.82 43.57 C 134.01 42.77 133.12 42.07 132.30 41.29 Z" />
</g>
<g id="#9bbcd2ff">
<path fill="#9bbcd2" opacity="1.00" d=" M 92.30 34.00 C 94.29 33.76 96.21 33.25 98.11 32.64 L 98.84 32.58 C 99.66 32.82 101.31 33.30 102.13 33.54 C 97.47 36.84 92.69 39.96 88.03 43.24 C 86.64 43.65 85.02 44.42 85.08 46.12 C 83.83 45.59 82.60 45.01 81.38 44.43 C 82.90 42.18 84.45 39.95 86.13 37.82 C 87.99 36.26 90.30 35.36 92.30 34.00 Z" />
<path fill="#9bbcd2" opacity="1.00" d=" M 82.83 86.31 C 86.61 83.89 90.91 82.45 95.35 81.91 C 95.39 83.26 95.45 84.61 95.52 85.96 C 94.90 85.37 94.28 84.79 93.64 84.22 C 91.88 88.97 85.69 90.18 82.06 86.76 L 82.83 86.31 Z" />
</g>
<g id="#506c7fff">
<path fill="#506c7f" opacity="1.00" d=" M 104.14 42.21 C 103.99 39.00 107.25 36.90 109.92 35.89 C 108.15 38.13 106.55 40.61 104.14 42.21 Z" />
</g>
<g id="#9b8775ff">
<path fill="#9b8775" opacity="1.00" d=" M 153.87 38.67 C 155.93 36.94 156.65 40.41 157.86 41.53 C 158.93 41.73 160.00 41.92 161.08 42.11 C 160.34 47.29 158.83 53.07 154.35 56.27 C 151.86 58.14 148.67 57.92 145.78 57.42 C 148.65 54.36 152.10 51.53 153.42 47.39 C 154.57 44.61 154.18 41.56 153.87 38.67 Z" />
</g>
<g id="#ffffffff">
<path fill="#ffffff" opacity="1.00" d=" M 114.44 39.82 C 116.82 39.57 119.40 39.09 121.39 40.81 C 121.90 43.18 122.37 45.55 122.72 47.96 C 120.56 47.27 118.46 46.43 116.41 45.47 C 115.88 43.54 115.26 41.64 114.44 39.82 Z" />
<path fill="#ffffff" opacity="1.00" d=" M 48.39 108.02 C 47.98 105.02 51.49 106.80 51.85 108.35 C 51.90 110.53 51.35 112.68 50.95 114.81 C 49.02 113.16 47.74 110.59 48.39 108.02 Z" />
<path fill="#ffffff" opacity="1.00" d=" M 128.73 134.75 C 130.20 133.76 131.75 132.88 133.39 132.19 C 133.48 134.11 133.48 136.04 133.37 137.96 C 131.66 137.14 130.14 136.00 128.73 134.75 Z" />
<path fill="#ffffff" opacity="1.00" d=" M 136.09 145.83 C 134.65 146.69 131.77 143.82 133.99 142.98 C 134.20 143.17 134.60 143.55 134.80 143.73 C 135.12 144.26 135.76 145.31 136.09 145.83 Z" />
<path fill="#ffffff" opacity="1.00" d=" M 180.73 180.33 C 181.36 179.48 182.01 178.64 182.68 177.82 C 183.51 178.29 185.18 179.24 186.01 179.71 L 186.32 179.89 C 186.43 180.14 186.65 180.63 186.76 180.87 C 187.65 182.88 188.37 184.95 189.06 187.04 L 187.87 186.57 C 186.58 183.40 183.73 181.62 180.73 180.33 Z" />
</g>
<g id="#dbdadaff">
<path fill="#dbdada" opacity="1.00" d=" M 108.33 42.37 C 109.54 41.52 110.31 41.76 110.63 43.09 C 109.42 43.94 108.66 43.69 108.33 42.37 Z" />
</g>
<g id="#675950ff">
<path fill="#675950" opacity="1.00" d=" M 140.94 55.17 C 144.33 50.11 147.41 44.50 152.96 41.47 C 153.08 47.07 150.35 52.67 145.50 55.59 C 144.08 56.59 142.38 55.54 140.94 55.17 Z" />
</g>
<g id="#6d8a9dff">
<path fill="#6d8a9d" opacity="1.00" d=" M 85.08 46.12 C 85.02 44.42 86.64 43.65 88.03 43.24 C 87.98 44.68 86.79 46.98 85.08 46.12 Z" />
</g>
<g id="#9c7e85ff">
<path fill="#9c7e85" opacity="1.00" d=" M 83.25 50.84 C 85.71 49.72 88.17 48.16 90.98 48.33 C 98.73 48.38 105.00 53.60 112.05 56.09 C 110.10 57.74 107.72 59.20 106.67 61.64 C 106.14 63.86 106.44 66.17 106.34 68.42 C 104.52 72.16 101.62 75.40 100.52 79.47 C 99.75 82.63 101.80 85.52 102.78 88.38 C 100.16 86.96 98.44 84.57 97.05 82.02 C 98.51 77.44 100.62 72.91 100.72 68.03 C 100.88 65.29 98.41 63.47 96.67 61.75 L 94.91 61.67 C 94.41 61.67 93.41 61.65 92.91 61.64 C 92.74 61.64 92.40 61.64 92.23 61.64 C 89.71 59.86 87.54 57.56 84.73 56.22 C 86.77 54.29 84.17 52.53 83.25 50.84 Z" />
</g>
<g id="#6a99bcff">
<path fill="#6a99bc" opacity="1.00" d=" M 80.61 52.27 C 81.39 49.86 84.07 52.67 81.68 53.38 C 81.42 53.10 80.88 52.55 80.61 52.27 Z" />
</g>
<g id="#cac1a2ff">
<path fill="#cac1a2" opacity="1.00" d=" M 119.71 56.83 C 121.44 56.32 123.45 54.43 125.23 55.76 C 128.61 58.13 130.85 61.74 132.88 65.25 C 133.72 66.98 135.11 68.77 134.53 70.81 C 133.57 77.22 129.80 82.84 125.52 87.54 C 119.94 93.76 110.20 94.75 102.79 91.51 C 108.34 90.39 113.57 87.60 116.81 82.83 C 120.89 77.37 121.51 70.24 121.71 63.64 C 121.20 64.79 120.68 65.93 120.23 67.10 C 120.22 65.68 120.22 64.25 120.22 62.83 C 120.20 62.44 120.17 61.65 120.16 61.26 L 120.02 60.10 C 119.94 59.28 119.78 57.65 119.71 56.83 Z" />
</g>
<g id="#6f5c5fff">
<path fill="#6f5c5f" opacity="1.00" d=" M 112.05 56.09 C 114.77 57.30 117.47 58.56 120.02 60.10 L 120.16 61.26 C 117.77 60.60 117.90 64.29 120.22 62.83 C 120.22 64.25 120.22 65.68 120.23 67.10 C 120.03 69.91 119.62 72.71 118.63 75.36 C 118.46 74.92 118.14 74.06 117.97 73.62 C 118.31 70.30 118.78 66.98 119.15 63.66 C 116.75 64.50 114.22 64.87 111.71 64.32 C 112.69 64.21 114.65 63.98 115.64 63.86 C 113.88 63.27 111.95 62.25 110.11 63.16 C 108.40 64.53 107.47 66.60 106.34 68.42 C 106.44 66.17 106.14 63.86 106.67 61.64 C 107.72 59.20 110.10 57.74 112.05 56.09 Z" />
</g>
<g id="#3c3233ff">
<path fill="#3c3233" opacity="1.00" d=" M 120.22 62.83 C 117.90 64.29 117.77 60.60 120.16 61.26 C 120.17 61.65 120.20 62.44 120.22 62.83 Z" />
</g>
<g id="#658fb1ff">
<path fill="#658fb1" opacity="1.00" d=" M 92.91 61.64 C 93.41 61.65 94.41 61.67 94.91 61.67 C 97.43 63.82 101.02 66.47 99.39 70.28 C 99.05 69.49 98.39 67.91 98.06 67.13 C 97.80 66.09 97.19 65.32 96.24 64.81 C 95.01 63.88 93.97 62.74 92.91 61.64 Z" />
<path fill="#658fb1" opacity="1.00" d=" M 140.04 88.07 C 140.99 84.09 144.61 81.46 148.47 80.65 C 145.81 84.84 141.58 88.66 141.72 94.01 C 142.27 97.78 146.59 99.59 150.01 99.19 C 155.33 98.26 159.03 93.96 162.48 90.16 C 164.89 94.51 165.36 100.10 162.51 104.37 C 159.61 108.85 155.84 114.02 150.08 114.56 C 145.26 114.02 140.13 111.20 138.67 106.28 C 136.41 100.27 138.55 93.97 140.04 88.07 Z" />
</g>
<g id="#bf98a3ff">
<path fill="#bf98a3" opacity="1.00" d=" M 109.06 65.94 C 109.55 64.88 110.53 64.23 111.71 64.32 C 114.22 64.87 116.75 64.50 119.15 63.66 C 118.78 66.98 118.31 70.30 117.97 73.62 L 117.75 74.50 C 112.61 74.21 107.56 75.27 102.61 76.55 C 104.64 72.94 106.95 69.50 109.06 65.94 Z" />
</g>
<g id="#ece5ceff">
<path fill="#ece5ce" opacity="1.00" d=" M 120.23 67.10 C 120.68 65.93 121.20 64.79 121.71 63.64 C 121.51 70.24 120.89 77.37 116.81 82.83 C 113.57 87.60 108.34 90.39 102.79 91.51 C 100.82 90.48 99.03 89.12 97.48 87.53 L 98.22 86.80 C 100.62 88.64 103.77 90.25 106.79 88.81 C 112.48 86.47 116.59 81.04 118.63 75.36 C 119.62 72.71 120.03 69.91 120.23 67.10 Z" />
<path fill="#ece5ce" opacity="1.00" d=" M 90.77 144.29 C 89.65 141.35 89.30 138.20 88.65 135.13 C 92.19 137.06 95.62 139.23 99.36 140.77 C 98.41 142.87 97.47 144.98 96.55 147.09 C 94.48 146.57 92.03 146.24 90.77 144.29 Z" />
</g>
<g id="#100f1374">
<path fill="#100f13" opacity="0.45" d=" M 96.24 64.81 C 97.19 65.32 97.80 66.09 98.06 67.13 C 96.37 67.33 95.76 66.56 96.24 64.81 Z" />
</g>
<g id="#566d83ff">
<path fill="#566d83" opacity="1.00" d=" M 145.63 67.59 C 146.04 67.48 146.87 67.28 147.28 67.18 C 151.85 68.20 156.49 68.96 161.00 70.23 C 158.84 70.12 156.68 70.13 154.53 70.16 C 157.05 71.72 159.83 72.76 162.70 73.44 C 161.36 73.95 160.05 74.56 158.65 74.84 C 158.26 74.96 157.49 75.21 157.11 75.33 C 156.78 75.46 156.12 75.70 155.79 75.83 C 155.34 76.10 154.44 76.66 153.99 76.93 C 153.41 77.46 152.27 78.51 151.70 79.04 C 148.79 75.76 147.36 71.54 145.63 67.59 Z" />
</g>
<g id="#658196fb">
<path fill="#658196" opacity="1.00" d=" M 154.53 70.16 C 156.68 70.13 158.84 70.12 161.00 70.23 C 162.48 70.53 163.04 71.60 162.70 73.44 C 159.83 72.76 157.05 71.72 154.53 70.16 Z" />
</g>
<g id="#e3c7d0ff">
<path fill="#e3c7d0" opacity="1.00" d=" M 102.61 76.55 C 107.56 75.27 112.61 74.21 117.75 74.50 C 116.16 80.70 111.58 86.48 105.19 88.08 C 102.39 84.91 101.15 80.64 102.61 76.55 Z" />
</g>
<g id="#03030392">
<path fill="#030303" opacity="0.57" d=" M 157.11 75.33 C 157.49 75.21 158.26 74.96 158.65 74.84 C 158.53 75.20 158.29 75.92 158.17 76.28 L 157.29 76.09 L 157.11 75.33 Z" />
</g>
<g id="#15191ec4">
<path fill="#15191e" opacity="0.77" d=" M 153.99 76.93 C 154.44 76.66 155.34 76.10 155.79 75.83 L 155.77 76.74 L 154.85 77.31 L 153.99 76.93 Z" />
</g>
<g id="#84adc6ff">
<path fill="#84adc6" opacity="1.00" d=" M 148.47 80.65 C 154.96 79.50 159.91 84.86 162.48 90.16 C 159.03 93.96 155.33 98.26 150.01 99.19 C 146.59 99.59 142.27 97.78 141.72 94.01 C 141.58 88.66 145.81 84.84 148.47 80.65 Z" />
</g>
<g id="#ccc4a2ff">
<path fill="#ccc4a2" opacity="1.00" d=" M 96.05 82.15 C 97.29 83.58 98.47 85.63 97.48 87.53 C 95.87 86.24 95.68 84.03 96.05 82.15 Z" />
<path fill="#ccc4a2" opacity="1.00" d=" M 84.87 117.02 C 85.46 116.53 86.06 116.04 86.65 115.55 C 88.49 116.70 90.31 117.92 92.34 118.72 C 96.58 120.49 101.24 119.35 105.66 120.03 C 103.29 123.39 99.10 124.96 95.07 124.45 C 90.47 124.38 87.05 120.71 84.87 117.02 Z" />
</g>
<g id="#85adc6ff">
<path fill="#85adc6" opacity="1.00" d=" M 93.64 84.22 C 94.28 84.79 94.90 85.37 95.52 85.96 C 96.36 87.13 97.20 88.30 98.03 89.48 C 95.18 91.55 92.40 93.72 89.75 96.04 C 87.56 92.43 83.60 89.92 79.28 90.77 C 80.21 89.48 81.13 88.18 82.01 86.85 L 82.06 86.76 C 85.69 90.18 91.88 88.97 93.64 84.22 Z" />
</g>
<g id="#678091ff">
<path fill="#678091" opacity="1.00" d=" M 163.22 88.56 C 164.92 88.70 166.64 88.85 168.36 88.96 C 168.91 89.38 170.02 90.22 170.57 90.64 C 169.19 92.49 167.27 93.81 165.42 95.13 C 164.68 92.94 163.95 90.75 163.22 88.56 Z" />
</g>
<g id="#e1d8b9ff">
<path fill="#e1d8b9" opacity="1.00" d=" M 84.87 117.02 C 82.19 106.04 89.91 95.62 98.94 90.23 C 99.52 90.66 100.69 91.51 101.27 91.93 C 100.66 98.63 105.88 103.72 107.08 110.03 C 108.17 113.41 107.17 116.95 105.66 120.03 C 101.24 119.35 96.58 120.49 92.34 118.72 C 90.31 117.92 88.49 116.70 86.65 115.55 C 86.06 116.04 85.46 116.53 84.87 117.02 Z" />
</g>
<g id="#85aec7ff">
<path fill="#85aec7" opacity="1.00" d=" M 74.91 94.13 C 77.16 93.08 79.34 90.68 82.01 91.69 C 83.17 92.04 84.30 92.47 85.40 92.99 C 82.65 94.98 79.82 96.85 76.92 98.62 C 74.74 98.02 72.53 97.55 70.31 97.12 C 71.34 96.43 72.37 95.75 73.41 95.06 C 73.78 94.83 74.53 94.36 74.91 94.13 Z" />
</g>
<g id="#658dafff">
<path fill="#658daf" opacity="1.00" d=" M 85.40 92.99 C 86.44 93.93 87.49 94.89 88.27 96.07 C 88.82 98.86 86.30 100.93 85.37 103.35 C 83.64 106.34 84.37 111.10 80.20 112.07 C 80.98 109.18 82.82 106.20 81.88 103.12 C 80.99 100.96 78.79 99.80 76.92 98.62 C 79.82 96.85 82.65 94.98 85.40 92.99 Z" />
</g>
<g id="#e3d9b9ff">
<path fill="#e3d9b9" opacity="1.00" d=" M 124.78 107.73 C 129.26 104.59 133.66 101.30 137.09 96.98 C 135.07 103.70 138.00 111.54 144.60 114.38 C 147.54 116.27 151.51 114.66 154.24 116.85 C 152.25 117.97 150.29 119.36 147.99 119.74 C 145.15 120.07 142.29 119.31 139.45 119.67 C 136.78 120.19 134.55 121.85 132.25 123.21 C 131.34 125.04 130.52 126.93 130.26 128.98 C 127.08 126.79 123.61 124.67 119.65 124.45 C 116.56 118.43 119.61 111.44 124.78 107.73 Z" />
<path fill="#e3d9b9" opacity="1.00" d=" M 84.09 145.98 C 87.54 149.05 91.60 151.23 95.58 153.51 C 93.29 153.08 91.07 152.39 88.85 151.69 C 88.75 152.33 88.53 153.62 88.43 154.26 C 86.63 151.70 85.22 148.90 84.09 145.98 Z" />
</g>
<g id="#9bbcd1ff">
<path fill="#9bbcd1" opacity="1.00" d=" M 61.31 99.16 C 65.24 98.40 69.29 97.99 73.27 98.63 L 73.53 99.68 C 66.97 99.32 60.72 101.49 54.63 103.63 C 53.36 103.99 52.52 105.02 51.66 105.94 C 51.28 105.81 50.51 105.56 50.12 105.43 C 49.61 105.47 48.58 105.57 48.06 105.61 C 47.58 105.63 46.61 105.67 46.12 105.69 C 44.26 106.87 42.39 108.12 40.18 108.53 C 41.06 106.87 42.10 105.32 43.16 103.77 L 43.43 103.37 L 43.92 103.19 C 49.42 100.73 55.48 100.36 61.31 99.16 Z" />
</g>
<g id="#84adc5ff">
<path fill="#84adc5" opacity="1.00" d=" M 54.63 103.63 C 60.72 101.49 66.97 99.32 73.53 99.68 C 73.37 101.16 72.90 102.69 71.60 103.57 C 67.97 106.25 63.66 108.29 59.09 108.55 C 56.59 108.45 54.53 109.89 52.68 111.40 C 52.65 109.54 53.08 107.44 51.66 105.94 C 52.52 105.02 53.36 103.99 54.63 103.63 Z" />
</g>
<g id="#648baeff">
<path fill="#648bae" opacity="1.00" d=" M 164.37 103.11 C 164.72 103.64 165.44 104.68 165.80 105.20 C 166.04 105.65 166.53 106.54 166.77 106.99 C 169.24 113.32 175.14 118.23 175.27 125.45 C 172.86 122.11 170.69 118.00 166.45 116.73 C 162.32 114.92 157.79 115.67 153.46 116.05 C 155.01 114.08 157.04 112.58 158.91 110.94 C 161.33 108.81 162.80 105.88 164.37 103.11 Z" />
</g>
<g id="#86afc6ff">
<path fill="#86afc6" opacity="1.00" d=" M 46.12 105.69 C 46.61 105.67 47.58 105.63 48.06 105.61 C 47.37 107.85 47.04 110.18 47.00 112.52 C 46.57 112.64 45.70 112.87 45.27 112.98 C 43.28 111.58 40.97 111.52 38.73 112.32 C 39.20 111.05 39.65 109.77 40.18 108.53 C 42.39 108.12 44.26 106.87 46.12 105.69 Z" />
</g>
<g id="#e3e5edff">
<path fill="#e3e5ed" opacity="1.00" d=" M 39.51 117.51 C 39.16 115.36 39.46 112.86 41.94 112.24 C 44.84 114.14 43.53 117.82 43.94 120.69 L 42.94 120.09 C 42.42 119.78 41.38 119.17 40.86 118.86 C 40.53 118.66 39.86 118.28 39.53 118.08 L 39.51 117.51 Z" />
</g>
<g id="#658eb0ff">
<path fill="#658eb0" opacity="1.00" d=" M 166.33 117.55 C 170.45 120.56 175.67 125.10 173.79 130.81 C 172.25 136.48 167.47 140.61 162.74 143.75 C 155.74 147.24 147.58 148.18 139.86 147.23 C 137.65 147.03 137.27 142.59 134.80 143.73 C 134.60 143.55 134.20 143.17 133.99 142.98 C 133.60 141.96 133.24 140.93 132.91 139.89 C 133.47 138.21 134.02 136.51 134.57 134.83 C 134.94 136.19 134.35 138.31 135.93 139.05 C 137.49 139.90 139.29 140.15 141.05 140.18 C 150.12 140.04 159.48 136.47 165.17 129.17 C 161.54 128.86 157.88 129.02 154.32 129.80 C 158.76 126.18 162.90 122.15 166.33 117.55 Z" />
</g>
<g id="#141b22c0">
<path fill="#141b22" opacity="0.75" d=" M 64.30 127.41 C 66.96 124.94 70.01 122.97 72.85 120.74 C 70.93 123.82 67.93 126.61 64.30 127.41 Z" />
</g>
<g id="#9abad0ff">
<path fill="#9abad0" opacity="1.00" d=" M 133.75 123.09 C 137.35 121.04 141.45 120.37 145.56 120.60 C 146.08 126.34 139.49 130.21 134.38 128.40 C 134.49 127.64 134.71 126.11 134.82 125.35 C 134.55 124.78 134.01 123.65 133.75 123.09 Z" />
</g>
<g id="#6893b4ff">
<path fill="#6893b4" opacity="1.00" d=" M 88.77 123.86 C 94.02 126.60 100.31 126.15 104.99 122.48 C 103.90 124.46 103.05 126.88 100.73 127.75 C 96.54 130.13 90.82 128.18 88.77 123.86 Z" />
</g>
<g id="#cac1a1ff">
<path fill="#cac1a1" opacity="1.00" d=" M 119.65 124.45 C 123.61 124.67 127.08 126.79 130.26 128.98 C 130.74 129.93 131.04 130.95 131.16 132.04 C 125.93 132.82 121.91 128.65 119.65 124.45 Z" />
</g>
<g id="#c9cddfff">
<path fill="#c9cddf" opacity="1.00" d=" M 48.74 131.25 C 45.12 131.32 40.37 126.99 43.73 123.64 C 44.46 124.06 45.93 124.88 46.66 125.30 C 47.52 127.20 49.08 129.02 48.74 131.25 Z" />
<path fill="#c9cddf" opacity="1.00" d=" M 180.73 180.33 C 183.73 181.62 186.58 183.40 187.87 186.57 C 185.31 185.67 182.77 184.68 180.45 183.26 C 180.52 182.53 180.66 181.07 180.73 180.33 Z" />
</g>
<g id="#ececf0ff">
<path fill="#ececf0" opacity="1.00" d=" M 131.97 128.87 C 131.43 127.70 131.45 125.48 132.92 125.03 C 134.83 125.55 133.47 128.90 131.97 128.87 Z" />
</g>
<g id="#9cbed3ff">
<path fill="#9cbed3" opacity="1.00" d=" M 88.75 134.45 C 89.51 132.35 90.28 130.25 91.05 128.16 C 94.09 130.89 96.84 133.96 98.87 137.53 C 99.35 137.79 100.30 138.32 100.78 138.58 C 100.25 138.83 99.20 139.33 98.67 139.58 C 95.15 138.33 91.82 136.58 88.75 134.45 Z" />
</g>
<g id="#e1d7b8ff">
<path fill="#e1d7b8" opacity="1.00" d=" M 81.64 129.15 C 83.91 131.19 85.86 133.65 88.64 135.07 L 88.65 135.13 C 89.30 138.20 89.65 141.35 90.77 144.29 C 92.03 146.24 94.48 146.57 96.55 147.09 C 97.47 144.98 98.41 142.87 99.36 140.77 C 109.60 145.14 120.92 146.20 131.92 145.12 C 132.28 145.49 133.00 146.22 133.36 146.59 C 125.87 146.35 118.26 146.40 111.02 148.60 C 105.59 150.54 99.34 148.02 94.34 151.30 C 90.46 149.15 86.10 147.24 83.49 143.49 C 81.46 139.03 81.64 133.95 81.64 129.15 Z" />
</g>
<g id="#5c7893ff">
<path fill="#5c7893" opacity="1.00" d=" M 63.50 133.29 L 63.92 133.82 C 64.61 134.66 65.30 135.51 66.00 136.35 C 63.71 138.88 61.71 141.66 60.11 144.68 C 60.04 142.58 59.99 140.48 59.73 138.40 C 61.03 136.73 62.28 135.02 63.50 133.29 Z" />
<path fill="#5c7893" opacity="1.00" d=" M 172.06 158.13 C 174.20 155.82 174.43 152.52 175.82 149.80 C 178.01 154.56 179.42 160.09 177.66 165.21 C 178.60 167.33 179.66 169.40 180.86 171.38 C 179.61 173.56 178.64 176.01 176.77 177.76 C 174.49 179.56 171.44 179.71 168.70 180.27 C 167.02 179.66 165.13 178.63 163.35 179.54 C 160.73 180.38 160.09 183.31 159.02 185.49 C 153.14 184.62 148.14 178.77 149.65 172.74 C 154.15 175.03 158.76 177.87 164.01 177.64 C 169.88 177.19 174.84 172.76 177.05 167.46 C 174.48 170.13 172.57 173.73 168.98 175.20 C 164.46 177.10 159.17 176.35 154.93 174.07 C 152.00 172.50 149.15 170.74 145.96 169.71 C 145.80 169.65 145.48 169.52 145.33 169.46 C 142.37 167.93 139.03 167.87 135.79 168.04 C 140.35 165.12 144.66 161.66 147.72 157.14 C 149.35 159.18 151.00 161.35 153.39 162.55 C 159.57 166.10 167.76 163.42 172.06 158.13 Z" />
</g>
<g id="#6890b3ff">
<path fill="#6890b3" opacity="1.00" d=" M 130.47 137.97 C 131.96 139.42 132.40 141.47 132.79 143.43 C 129.76 144.24 126.61 144.37 123.48 144.31 C 125.25 141.64 127.77 139.64 130.47 137.97 Z" />
</g>
<g id="#9abbd1ff">
<path fill="#9abbd1" opacity="1.00" d=" M 65.52 142.49 C 66.40 139.83 71.25 139.71 71.16 142.96 C 70.31 146.55 68.12 149.74 65.27 152.05 C 64.18 148.96 63.47 145.37 65.52 142.49 Z" />
</g>
<g id="#6b99b6ff">
<path fill="#6b99b6" opacity="1.00" d=" M 156.58 147.16 C 161.06 146.41 164.95 144.02 168.45 141.25 C 171.29 144.08 173.68 147.46 173.91 151.61 C 170.34 154.44 167.01 157.89 162.62 159.40 C 160.71 159.59 158.82 159.04 156.94 158.80 C 156.04 154.75 158.59 151.49 160.87 148.48 C 159.44 148.04 158.01 147.60 156.58 147.16 Z" />
</g>
<g id="#7592a7ff">
<path fill="#7592a7" opacity="1.00" d=" M 24.84 143.58 C 27.80 143.84 30.64 144.72 33.47 145.58 C 34.85 147.56 36.39 149.43 37.97 151.26 C 34.14 151.36 30.35 150.75 26.63 149.88 C 26.10 147.76 25.46 145.67 24.84 143.58 Z" />
</g>
<g id="#576e84ff">
<path fill="#576e84" opacity="1.00" d=" M 33.47 145.58 C 39.88 147.07 46.50 147.80 53.07 147.07 C 51.70 149.08 50.39 151.13 49.18 153.24 C 52.15 149.88 55.13 146.02 59.99 145.68 C 58.76 150.76 58.64 156.03 57.29 161.09 C 56.04 165.04 57.30 170.18 53.17 172.65 C 49.21 167.62 47.58 161.26 48.34 154.92 C 47.12 158.93 46.49 163.48 48.72 167.28 C 49.24 169.03 51.28 170.71 50.37 172.63 L 49.07 171.86 C 48.14 170.73 46.93 169.86 45.43 169.73 C 45.06 169.58 44.31 169.29 43.93 169.14 C 43.52 168.82 42.69 168.16 42.28 167.84 C 41.96 167.62 41.33 167.19 41.01 166.98 C 40.41 165.94 39.55 164.81 38.22 164.81 L 37.46 164.69 L 37.32 164.53 C 35.64 162.36 33.63 160.48 31.62 158.62 C 31.50 158.38 31.27 157.88 31.16 157.63 C 30.79 157.13 30.06 156.13 29.70 155.63 L 29.04 155.12 L 29.07 154.74 C 28.78 154.31 28.22 153.46 27.93 153.03 C 27.69 152.58 27.21 151.68 26.97 151.22 C 26.89 150.89 26.71 150.21 26.63 149.88 C 30.35 150.75 34.14 151.36 37.97 151.26 C 36.39 149.43 34.85 147.56 33.47 145.58 Z" />
<path fill="#576e84" opacity="1.00" d=" M 99.01 169.42 C 103.86 168.58 108.19 171.71 112.98 171.75 C 116.83 171.88 120.68 171.88 124.53 171.67 C 124.25 172.86 124.51 174.50 123.24 175.21 C 119.61 177.48 115.15 177.60 111.04 178.26 C 111.57 178.60 112.64 179.29 113.17 179.63 C 104.60 180.39 95.66 180.84 87.37 178.09 C 87.94 172.29 93.85 169.71 99.01 169.42 Z" />
</g>
<g id="#bcb498ff">
<path fill="#bcb498" opacity="1.00" d=" M 111.02 148.60 C 118.26 146.40 125.87 146.35 133.36 146.59 C 134.06 146.61 135.44 146.67 136.13 146.70 C 140.41 148.89 145.28 148.68 149.95 148.66 C 146.82 153.32 141.31 155.26 136.10 156.50 C 129.71 157.82 123.00 159.38 116.53 157.73 C 108.92 156.61 101.05 155.29 94.34 151.30 C 99.34 148.02 105.59 150.54 111.02 148.60 Z" />
</g>
<g id="#6389a9ff">
<path fill="#6389a9" opacity="1.00" d=" M 151.02 150.12 C 151.51 147.46 154.56 147.78 156.58 147.16 C 158.01 147.60 159.44 148.04 160.87 148.48 C 158.59 151.49 156.04 154.75 156.94 158.80 C 158.82 159.04 160.71 159.59 162.62 159.40 C 167.01 157.89 170.34 154.44 173.91 151.61 C 174.04 155.99 170.40 158.98 167.13 161.24 C 161.77 164.28 154.54 162.94 150.23 158.68 C 147.99 156.06 150.03 152.79 151.02 150.12 Z" />
</g>
<g id="#bcb397ff">
<path fill="#bcb397" opacity="1.00" d=" M 88.85 151.69 C 91.07 152.39 93.29 153.08 95.58 153.51 C 99.98 154.70 104.08 156.90 108.68 157.38 C 121.87 160.74 136.67 159.74 148.40 152.47 C 147.17 157.19 143.26 160.69 139.61 163.69 C 131.05 170.84 118.89 172.88 108.27 169.86 C 100.27 166.93 92.44 162.06 88.43 154.26 C 88.53 153.62 88.75 152.33 88.85 151.69 Z" />
</g>
<g id="#bdb191ff">
<path fill="#bdb191" opacity="1.00" d=" M 148.40 152.47 C 148.88 151.98 148.88 151.98 148.40 152.47 Z" />
</g>
<g id="#1b2025cf">
<path fill="#1b2025" opacity="0.81" d=" M 27.93 153.03 C 28.22 153.46 28.78 154.31 29.07 154.74 L 28.19 154.73 C 28.12 154.30 27.99 153.46 27.93 153.03 Z" />
</g>
<g id="#5f819fff">
<path fill="#5f819f" opacity="1.00" d=" M 78.28 163.21 C 82.01 160.94 84.09 156.92 85.82 153.07 C 89.58 159.15 94.61 164.45 100.85 168.02 C 96.08 168.31 91.23 169.44 87.56 172.68 C 81.29 173.91 75.62 177.65 69.08 177.45 C 65.00 177.76 61.48 174.95 59.00 172.01 C 56.57 168.36 57.77 163.73 58.16 159.68 C 59.85 161.68 61.26 164.32 64.03 164.94 C 68.75 166.08 74.13 166.00 78.28 163.21 Z" />
<path fill="#5f819f" opacity="1.00" d=" M 72.68 178.71 C 77.44 177.35 81.90 175.09 86.72 173.93 C 87.05 176.71 87.45 179.48 88.03 182.22 C 83.83 185.13 78.59 185.70 73.98 187.72 C 73.54 185.47 73.50 182.53 70.83 181.73 C 70.44 181.67 69.66 181.54 69.27 181.48 L 68.50 181.40 L 70.05 181.04 C 71.35 181.00 72.77 180.17 72.68 178.71 Z" />
</g>
<g id="#101418aa">
<path fill="#101418" opacity="0.67" d=" M 29.12 155.89 L 29.70 155.63 C 30.06 156.13 30.79 157.13 31.16 157.63 C 29.73 158.07 29.05 157.49 29.12 155.89 Z" />
</g>
<g id="#111518b6">
<path fill="#111518" opacity="0.71" d=" M 31.62 158.62 C 33.63 160.48 35.64 162.36 37.32 164.53 C 34.84 163.26 32.64 161.27 31.62 158.62 Z" />
</g>
<g id="#1c2228d3">
<path fill="#1c2228" opacity="0.83" d=" M 38.22 164.81 C 39.55 164.81 40.41 165.94 41.01 166.98 C 39.82 167.81 37.41 166.21 38.22 164.81 Z" />
</g>
<g id="#181f24d0">
<path fill="#181f24" opacity="0.82" d=" M 42.28 167.84 C 42.69 168.16 43.52 168.82 43.93 169.14 L 43.06 169.41 L 42.21 168.74 L 42.28 167.84 Z" />
</g>
<g id="#263039d3">
<path fill="#263039" opacity="0.83" d=" M 45.43 169.73 C 46.93 169.86 48.14 170.73 49.07 171.86 C 47.81 172.91 44.82 171.40 45.43 169.73 Z" />
</g>
<g id="#5d7893ff">
<path fill="#5d7893" opacity="1.00" d=" M 124.53 171.67 C 128.44 170.62 132.41 169.78 136.45 169.42 C 134.24 171.35 131.90 173.13 129.73 175.10 L 129.23 175.54 C 128.95 175.63 128.40 175.80 128.13 175.89 C 123.21 177.39 118.28 178.92 113.17 179.63 C 112.64 179.29 111.57 178.60 111.04 178.26 C 115.15 177.60 119.61 177.48 123.24 175.21 C 124.51 174.50 124.25 172.86 124.53 171.67 Z" />
</g>
<g id="#658eafff">
<path fill="#658eaf" opacity="1.00" d=" M 53.51 173.85 C 54.58 172.82 55.65 171.77 56.72 170.74 C 59.57 175.10 63.89 178.52 69.29 178.72 C 69.48 179.30 69.86 180.46 70.05 181.04 L 68.50 181.40 C 65.94 182.12 65.25 185.19 63.90 187.17 C 62.82 187.10 61.75 187.04 60.68 186.99 C 60.11 186.86 58.99 186.61 58.43 186.48 C 56.91 186.08 55.40 185.69 53.88 185.31 C 53.76 183.64 53.66 181.96 53.51 180.29 C 54.23 178.20 54.30 176.01 53.41 173.95 L 53.51 173.85 Z" />
</g>
<g id="#648bacff">
<path fill="#648bac" opacity="1.00" d=" M 176.77 177.76 C 178.64 176.01 179.61 173.56 180.86 171.38 C 182.18 172.99 183.51 174.58 184.91 176.13 C 181.39 177.35 178.38 180.63 179.87 184.55 C 176.91 184.60 173.95 184.72 171.00 184.91 C 170.28 183.34 169.55 181.77 168.70 180.27 C 171.44 179.71 174.49 179.56 176.77 177.76 Z" />
</g>
<g id="#89b6d1ff">
<path fill="#89b6d1" opacity="1.00" d=" M 51.06 175.92 C 51.65 175.43 52.82 174.44 53.41 173.95 C 54.30 176.01 54.23 178.20 53.51 180.29 C 52.26 179.13 50.73 178.39 49.13 177.84 C 49.61 177.36 50.58 176.40 51.06 175.92 Z" />
</g>
<g id="#82acc6ff">
<path fill="#82acc6" opacity="1.00" d=" M 69.29 178.72 C 70.42 178.68 71.55 178.67 72.68 178.71 C 72.77 180.17 71.35 181.00 70.05 181.04 C 69.86 180.46 69.48 179.30 69.29 178.72 Z" />
</g>
<g id="#e7e9eeff">
<path fill="#e7e9ee" opacity="1.00" d=" M 42.63 186.25 C 44.40 183.22 46.83 180.51 50.02 178.94 C 52.29 179.29 52.58 181.72 52.59 183.60 C 51.91 184.79 50.41 185.02 49.29 185.57 C 49.04 185.62 48.54 185.71 48.29 185.75 C 46.40 185.93 44.51 186.10 42.63 186.25 Z" />
</g>
<g id="#c2c5d3ff">
<path fill="#c2c5d3" opacity="1.00" d=" M 160.43 184.03 C 160.90 182.71 161.74 181.58 162.56 180.46 C 164.62 183.13 166.27 186.07 167.58 189.17 L 165.88 188.74 C 165.60 188.67 165.03 188.54 164.75 188.47 L 164.30 188.06 C 162.94 186.78 161.55 185.53 160.43 184.03 Z" />
</g>
<g id="#eeeef2ff">
<path fill="#eeeef2" opacity="1.00" d=" M 162.56 180.46 C 168.29 178.95 171.14 185.71 169.49 190.28 C 169.01 190.00 168.06 189.45 167.58 189.17 C 166.27 186.07 164.62 183.13 162.56 180.46 Z" />
</g>
<g id="#e9e9edff">
<path fill="#e9e9ed" opacity="1.00" d=" M 64.16 192.20 C 64.62 188.20 65.90 183.99 69.27 181.48 C 69.66 181.54 70.44 181.67 70.83 181.73 C 71.43 183.53 72.04 185.32 72.64 187.13 C 70.04 189.16 67.24 190.98 64.16 192.20 Z" />
</g>
</svg>
