<?xml version="1.0" encoding="UTF-8" ?>
<!DOCTYPE svg PUBLIC "-//W3C//DTD SVG 1.1//EN" "http://www.w3.org/Graphics/SVG/1.1/DTD/svg11.dtd">
<svg width="215pt" height="215pt" viewBox="0 0 215 215" version="1.1" xmlns="http://www.w3.org/2000/svg">
<g id="#292029d2">
<path fill="#292029" opacity="0.82" d=" M 80.92 29.42 C 81.37 26.84 82.99 24.29 85.31 23.01 C 84.11 25.31 82.93 27.70 80.92 29.42 Z" />
</g>
<g id="#b185b2ff">
<path fill="#b185b2" opacity="1.00" d=" M 85.31 23.01 L 85.85 22.00 L 86.76 22.64 C 88.75 25.61 87.30 29.19 87.53 32.48 L 87.50 33.36 C 88.00 34.19 88.48 35.05 88.92 35.91 C 87.34 34.31 86.45 32.22 85.57 30.19 C 82.04 30.70 79.66 33.48 77.27 35.84 C 77.18 35.55 77.00 34.96 76.92 34.66 C 77.18 34.25 77.70 33.44 77.97 33.03 C 79.01 32.62 79.71 31.90 80.10 30.88 C 80.21 30.60 80.44 30.05 80.56 29.78 L 80.92 29.42 C 82.93 27.70 84.11 25.31 85.31 23.01 Z" />
<path fill="#b185b2" opacity="1.00" d=" M 46.77 83.28 C 47.29 83.33 48.34 83.41 48.86 83.45 C 49.36 83.62 50.37 83.95 50.87 84.12 C 50.39 84.36 49.43 84.85 48.95 85.10 C 49.75 86.95 50.55 88.82 51.35 90.68 C 49.04 88.75 47.40 86.24 46.77 83.28 Z" />
<path fill="#b185b2" opacity="1.00" d=" M 43.49 87.42 C 44.57 87.92 45.64 88.44 46.70 88.98 C 46.12 90.73 45.53 92.47 44.91 94.21 C 44.26 91.99 43.79 89.72 43.49 87.42 Z" />
<path fill="#b185b2" opacity="1.00" d=" M 172.00 129.88 C 172.35 128.24 174.58 128.87 175.65 129.35 C 175.68 129.69 175.75 130.37 175.78 130.71 C 174.59 131.24 172.45 131.50 172.00 129.88 Z" />
</g>
<g id="#121115ff">
<path fill="#121115" opacity="1.00" d=" M 86.76 22.64 C 90.75 24.04 88.49 29.58 87.53 32.48 C 87.30 29.19 88.75 25.61 86.76 22.64 Z" />
<path fill="#121115" opacity="1.00" d=" M 149.40 34.45 C 151.89 33.27 154.28 30.96 157.24 31.79 C 157.73 33.65 157.23 35.53 155.81 36.85 C 153.72 38.90 152.23 41.67 149.59 43.08 L 150.30 42.00 C 151.80 39.83 153.67 37.95 155.31 35.87 C 155.89 34.66 156.31 33.40 156.57 32.07 C 152.97 33.35 149.72 35.37 146.35 37.11 C 144.88 37.83 143.38 38.50 141.89 39.17 C 143.81 36.82 146.89 36.00 149.40 34.45 Z" />
<path fill="#121115" opacity="1.00" d=" M 93.80 45.22 C 92.78 43.23 94.37 41.30 95.16 39.57 C 93.07 46.08 98.27 51.73 100.46 57.50 C 102.08 60.11 101.74 64.36 105.06 65.50 C 102.80 68.79 100.19 71.83 97.71 74.95 C 98.01 75.54 98.62 76.72 98.92 77.30 C 98.43 76.99 97.45 76.37 96.96 76.07 C 96.40 75.53 95.85 74.99 95.31 74.44 C 94.94 74.26 94.20 73.90 93.82 73.72 C 92.43 76.65 91.76 80.15 93.69 83.00 C 93.29 82.85 92.50 82.53 92.10 82.38 C 91.25 81.23 90.45 80.05 89.62 78.89 C 88.38 81.00 88.44 83.48 88.14 85.83 C 87.69 89.59 86.57 93.25 86.55 97.06 C 86.51 104.95 84.68 112.71 84.82 120.61 C 84.77 123.20 84.87 125.86 84.10 128.37 C 83.53 121.45 84.13 114.54 84.39 107.63 C 84.52 105.53 84.76 103.44 84.94 101.35 C 82.77 101.29 80.60 101.20 78.44 101.10 C 80.58 100.55 82.78 100.21 84.99 100.05 C 85.60 93.03 87.66 86.17 87.54 79.09 C 88.74 78.30 90.06 78.08 91.50 78.43 C 91.90 76.03 92.11 73.33 94.23 71.76 C 95.11 72.57 96.01 73.35 96.94 74.10 C 98.33 72.78 99.44 71.20 100.58 69.67 C 101.35 68.18 103.54 66.72 102.37 64.90 C 99.45 58.37 96.41 51.88 93.80 45.22 Z" />
<path fill="#121115" opacity="1.00" d=" M 128.34 47.59 C 132.55 45.39 135.77 41.37 140.42 40.05 C 136.48 43.36 131.99 45.92 127.96 49.12 C 127.80 49.87 127.47 51.38 127.31 52.14 C 126.96 52.44 126.27 53.04 125.92 53.34 C 126.07 51.75 126.25 50.16 126.46 48.57 C 126.78 47.22 127.17 45.88 127.49 44.52 C 127.47 43.84 127.45 43.16 127.40 42.48 C 126.79 42.70 125.58 43.16 124.97 43.38 C 124.28 41.40 126.99 41.22 128.03 41.98 C 129.57 43.47 128.33 45.84 128.34 47.59 Z" />
<path fill="#121115" opacity="1.00" d=" M 122.21 46.11 C 121.97 44.48 122.67 43.85 124.33 44.22 L 124.26 44.89 C 123.75 45.20 122.72 45.80 122.21 46.11 Z" />
<path fill="#121115" opacity="1.00" d=" M 52.41 48.87 C 55.21 49.89 55.63 53.13 56.97 55.42 C 57.35 55.37 58.11 55.29 58.49 55.25 C 58.10 56.17 57.72 57.10 57.36 58.03 C 56.06 55.48 54.73 52.94 53.21 50.51 C 52.68 55.64 52.48 60.79 52.27 65.94 C 52.07 71.46 51.14 76.95 51.44 82.49 C 50.59 82.84 49.73 83.16 48.86 83.45 C 48.34 83.41 47.29 83.33 46.77 83.28 C 47.40 86.24 49.04 88.75 51.35 90.68 C 51.53 91.09 51.90 91.92 52.09 92.33 C 50.29 91.22 48.54 90.03 46.70 88.98 C 45.64 88.44 44.57 87.92 43.49 87.42 C 43.79 89.72 44.26 91.99 44.91 94.21 C 46.17 99.18 48.27 103.92 49.19 108.98 L 49.04 109.74 C 47.82 109.28 48.16 107.44 47.66 106.43 C 46.21 101.20 44.45 96.07 42.83 90.90 C 42.46 89.40 41.87 87.84 42.33 86.29 C 44.18 86.02 45.63 87.42 47.20 88.12 C 46.61 86.12 45.95 84.15 45.21 82.21 C 46.84 82.11 48.48 82.11 50.12 82.14 C 51.18 71.06 51.50 59.95 52.41 48.87 Z" />
<path fill="#121115" opacity="1.00" d=" M 144.64 49.87 C 146.14 49.45 147.96 49.81 148.76 51.29 C 151.08 54.69 150.06 59.06 149.64 62.87 C 147.67 73.01 144.85 83.01 140.34 92.34 C 135.23 102.63 130.33 113.75 120.89 120.86 C 115.51 124.75 109.69 128.04 103.71 130.89 C 102.43 131.45 101.14 131.97 99.88 132.55 C 98.59 133.54 97.42 134.67 96.29 135.83 C 98.32 131.41 100.68 127.15 102.41 122.59 C 102.86 120.37 105.80 116.98 102.94 115.45 C 99.86 117.28 98.02 120.46 95.72 123.09 C 93.50 125.62 91.27 128.15 89.42 130.97 C 89.43 130.47 89.47 129.48 89.49 128.98 C 89.52 125.55 89.23 122.11 89.63 118.69 C 91.42 107.16 93.77 95.22 100.21 85.28 C 108.57 74.74 118.94 66.00 129.47 57.71 C 134.01 54.25 139.01 51.15 144.64 49.87 M 126.49 61.62 C 119.66 67.01 113.13 72.80 107.19 79.16 C 102.65 83.60 99.08 89.00 96.67 94.87 C 93.11 104.97 90.08 115.63 91.06 126.45 C 95.44 122.58 97.96 116.31 103.82 114.36 C 104.20 115.03 104.95 116.38 105.32 117.05 C 104.40 122.00 101.93 126.50 100.09 131.15 C 105.33 128.84 110.59 126.41 115.26 123.05 C 125.64 117.62 132.05 107.31 136.47 96.83 L 136.79 96.76 C 141.50 87.31 145.80 77.39 147.14 66.84 C 148.69 63.11 148.95 58.98 148.68 54.99 C 148.58 52.95 147.24 50.57 144.93 50.66 C 137.93 52.61 131.89 56.91 126.49 61.62 Z" />
<path fill="#121115" opacity="1.00" d=" M 152.63 64.03 C 153.20 61.91 154.07 59.77 156.10 58.64 C 153.96 62.83 152.37 67.33 151.79 72.01 C 151.45 74.97 152.15 77.94 151.76 80.89 C 150.84 82.81 148.74 83.81 147.51 85.52 C 144.96 90.17 144.15 95.55 141.59 100.19 C 141.94 100.42 142.63 100.90 142.98 101.14 C 142.09 102.27 141.18 103.40 140.33 104.56 C 137.71 109.91 133.88 114.49 129.74 118.72 C 124.58 124.31 117.51 127.44 110.76 130.63 C 108.94 131.50 106.49 132.23 106.33 134.63 C 105.81 133.84 105.25 133.06 104.71 132.29 C 114.62 128.08 124.72 123.08 131.76 114.65 C 138.88 107.09 142.00 96.94 145.47 87.39 C 146.42 84.61 149.25 83.22 150.87 80.90 C 150.40 75.19 150.64 69.46 152.63 64.03 Z" />
<path fill="#121115" opacity="1.00" d=" M 158.51 112.11 C 158.49 107.57 160.18 103.20 162.95 99.63 C 162.40 102.38 160.97 104.84 160.25 107.54 C 167.55 105.38 174.79 103.06 182.11 100.98 C 184.04 101.86 185.75 103.27 184.58 105.57 C 184.12 105.62 183.19 105.73 182.72 105.78 C 182.99 105.24 183.53 104.18 183.80 103.64 C 183.34 103.23 182.42 102.40 181.96 101.98 C 178.75 102.72 175.77 104.20 172.58 105.00 C 169.08 106.02 165.49 106.73 162.05 107.97 C 160.09 108.47 159.55 110.63 158.51 112.11 Z" />
<path fill="#121115" opacity="1.00" d=" M 51.45 114.34 C 56.10 109.57 61.36 103.76 68.49 103.53 C 60.52 106.13 54.52 112.45 49.12 118.57 C 51.79 117.53 54.46 116.41 57.28 115.80 C 55.78 117.58 53.53 118.31 51.37 118.93 C 49.06 119.50 46.93 120.57 44.77 121.55 C 39.91 123.44 34.96 125.25 30.57 128.13 C 32.39 129.16 34.44 129.57 36.49 129.79 C 44.62 130.12 52.93 132.82 60.95 130.45 C 60.97 130.80 61.02 131.48 61.04 131.82 C 59.92 134.12 58.70 136.37 57.53 138.65 C 57.68 136.47 58.44 134.43 59.58 132.58 C 56.44 132.75 53.34 132.21 50.22 132.03 C 49.85 132.38 49.10 133.06 48.73 133.40 C 48.36 137.09 47.50 141.65 50.86 144.28 C 52.69 142.95 54.51 141.58 56.07 139.93 L 56.10 141.01 C 54.26 143.25 51.25 145.25 48.32 143.84 C 47.35 139.77 47.71 135.58 48.35 131.49 C 46.27 131.44 44.15 131.17 42.09 131.60 C 40.73 133.29 39.84 135.28 39.02 137.27 C 37.61 141.05 38.81 145.04 39.96 148.71 C 41.01 152.46 43.12 155.98 43.05 159.98 C 42.42 161.40 41.80 162.82 41.23 164.27 C 41.26 164.63 41.31 165.36 41.33 165.72 C 41.36 166.08 41.42 166.80 41.45 167.16 L 39.97 167.35 C 39.92 164.32 41.87 161.85 42.45 158.98 C 40.64 153.00 37.77 147.21 37.25 140.90 C 37.68 137.38 39.98 134.43 40.73 130.98 C 36.86 130.83 33.04 130.15 29.27 129.32 C 29.26 128.90 29.25 128.05 29.25 127.63 C 34.80 124.44 40.84 122.25 46.68 119.65 C 49.60 118.10 50.88 114.76 49.69 111.65 C 50.25 112.56 50.84 113.46 51.45 114.34 Z" />
<path fill="#121115" opacity="1.00" d=" M 150.12 112.00 C 152.27 110.98 154.64 111.40 156.87 111.87 C 156.59 113.24 156.12 114.56 155.49 115.81 C 153.37 118.53 151.47 121.44 150.16 124.64 C 153.78 124.14 157.32 123.19 160.94 122.77 C 165.21 124.87 160.38 128.86 159.16 131.38 C 161.62 131.37 164.08 131.36 166.54 131.38 C 167.23 134.18 165.82 136.71 164.50 139.07 C 165.39 139.84 166.29 140.61 167.19 141.38 C 167.82 138.60 167.98 134.99 171.04 133.71 C 168.99 136.66 168.13 139.99 168.51 143.58 C 165.95 142.08 163.55 140.36 161.13 138.66 L 161.53 138.55 C 164.63 138.51 165.00 134.99 166.16 132.85 C 163.88 132.75 161.58 132.69 159.31 132.97 C 158.48 133.08 157.65 133.22 156.83 133.36 C 157.76 131.03 158.92 128.79 160.45 126.80 C 161.05 125.90 161.44 124.91 161.62 123.84 C 158.21 124.69 154.72 125.22 151.30 126.05 C 150.34 126.30 149.38 126.56 148.42 126.83 C 149.05 123.73 150.36 120.85 152.14 118.26 C 152.85 117.15 153.59 116.07 154.35 115.00 C 154.61 114.48 155.13 113.44 155.39 112.92 C 154.92 111.32 152.91 112.56 151.92 112.90 C 147.32 114.61 142.55 115.92 138.16 118.16 C 136.02 119.02 133.82 119.98 131.46 119.74 C 137.36 116.46 143.86 114.47 150.12 112.00 Z" />
<path fill="#121115" opacity="1.00" d=" M 105.50 142.32 C 105.73 142.42 106.21 142.63 106.44 142.73 C 106.75 146.93 106.16 151.13 105.25 155.22 C 104.62 158.20 103.71 161.56 100.69 162.98 C 96.41 164.59 91.73 164.70 87.48 166.38 C 85.83 168.57 84.32 170.94 82.04 172.55 C 78.84 174.89 74.51 175.85 72.41 179.49 C 75.14 178.35 77.14 180.00 79.00 181.68 C 79.44 181.57 80.31 181.36 80.74 181.26 C 84.79 180.86 86.58 185.56 86.89 188.85 C 87.70 188.67 89.32 188.32 90.12 188.14 C 99.17 185.79 106.89 179.81 116.17 178.20 C 122.00 177.23 128.00 177.14 133.84 177.99 C 128.35 171.06 126.72 159.37 133.71 152.88 C 129.51 158.89 129.39 166.96 132.40 173.51 C 135.77 180.02 143.18 182.87 150.03 183.96 C 155.52 185.22 161.00 183.26 166.52 183.51 C 163.83 184.65 160.94 185.21 158.06 185.60 C 158.24 186.12 158.62 187.15 158.81 187.67 C 162.24 186.44 165.61 185.04 169.02 183.76 C 168.36 185.46 166.30 185.67 164.88 186.45 C 158.57 189.25 151.52 191.17 144.67 189.15 C 144.17 187.36 144.13 185.49 144.41 183.65 C 140.79 182.64 137.62 180.55 134.14 179.23 C 128.83 178.35 123.37 178.35 118.03 178.85 C 106.76 180.93 97.29 188.53 85.88 190.09 C 81.20 190.19 77.05 193.03 72.33 192.83 C 72.56 191.90 73.03 190.05 73.26 189.12 C 71.51 189.21 69.25 190.21 68.28 188.14 C 69.15 186.03 70.12 183.95 71.39 182.05 C 71.70 180.12 71.53 177.55 73.62 176.55 C 77.46 174.43 81.89 172.68 84.53 169.02 L 84.18 167.81 L 83.01 167.52 C 77.52 169.56 72.23 172.18 66.85 174.52 C 64.25 175.59 61.34 175.59 58.67 174.78 C 58.53 176.36 58.49 177.96 58.19 179.53 C 57.04 181.83 53.62 179.60 53.15 177.76 C 54.43 178.62 55.89 179.14 57.35 179.62 C 57.46 178.81 57.67 177.20 57.78 176.40 C 57.82 176.03 57.88 175.30 57.92 174.93 C 55.06 172.42 51.42 170.86 47.63 170.51 C 48.57 172.39 49.64 174.22 51.13 175.71 L 52.20 176.80 C 48.01 175.93 43.77 177.98 39.89 179.47 C 37.98 180.64 37.03 179.02 37.52 177.17 C 35.81 177.73 34.08 178.26 32.32 178.61 C 32.54 175.32 34.77 172.73 35.76 169.68 C 36.81 169.04 37.87 168.43 38.94 167.83 C 38.03 169.03 37.17 170.26 36.37 171.54 C 35.15 173.50 34.15 175.59 33.26 177.72 C 35.62 176.91 39.39 176.18 38.90 172.84 C 39.91 172.21 40.91 171.59 41.94 171.01 L 42.43 171.45 C 40.55 173.82 39.05 176.48 38.17 179.39 C 40.75 178.28 43.72 177.57 45.61 175.35 L 44.98 173.96 L 44.53 172.16 C 45.77 173.27 46.31 175.50 48.16 175.79 C 48.80 174.58 48.57 173.56 47.45 172.75 C 45.22 171.04 42.78 169.58 40.88 167.47 L 42.89 167.71 C 43.67 168.57 44.44 169.44 45.22 170.31 C 50.33 168.19 54.86 172.07 59.24 174.08 C 61.81 175.49 64.72 174.31 67.20 173.30 C 75.57 169.57 83.81 165.13 93.01 163.82 C 96.58 163.07 101.20 162.57 102.99 158.88 C 104.35 153.47 105.40 147.91 105.50 142.32 M 74.94 180.03 C 72.14 182.15 70.32 185.40 69.35 188.74 C 73.90 189.33 76.08 185.18 78.61 182.27 C 77.39 181.59 76.50 179.91 74.94 180.03 M 73.13 192.35 C 75.40 191.78 77.65 191.10 79.92 190.49 C 81.83 189.99 83.65 189.24 85.37 188.28 C 85.34 187.29 85.29 185.32 85.26 184.33 L 83.97 184.57 L 84.85 184.03 C 83.91 183.13 82.97 182.25 82.03 181.37 C 78.35 184.31 74.70 187.81 73.13 192.35 M 145.19 184.24 C 145.27 185.79 145.40 187.35 145.63 188.90 C 146.84 187.55 148.02 186.19 149.22 184.85 C 147.88 184.65 146.53 184.44 145.19 184.24 M 147.40 189.17 C 150.64 189.31 153.83 188.63 157.05 188.33 C 157.46 184.62 153.41 185.62 151.10 185.51 C 149.65 186.49 148.19 187.54 147.40 189.17 Z" />
<path fill="#121115" opacity="1.00" d=" M 169.78 144.99 C 174.88 148.14 177.38 154.35 178.93 159.94 C 180.82 166.58 178.50 173.50 175.02 179.17 C 173.66 181.01 171.78 182.41 169.77 183.47 C 173.87 179.12 177.41 173.98 178.31 167.94 C 179.48 163.24 177.40 158.63 175.79 154.32 C 174.50 150.78 171.67 148.17 169.78 144.99 Z" />
<path fill="#121115" opacity="1.00" d=" M 130.71 153.09 C 132.06 151.02 134.17 149.69 136.15 148.29 C 134.55 150.10 132.95 152.04 130.71 153.09 Z" />
</g>
<g id="#916a93ff">
<path fill="#916a93" opacity="1.00" d=" M 77.27 35.84 C 79.66 33.48 82.04 30.70 85.57 30.19 C 86.45 32.22 87.34 34.31 88.92 35.91 C 91.07 36.96 93.58 34.65 95.82 36.06 L 96.31 36.54 L 96.38 37.17 C 96.07 37.77 95.47 38.97 95.16 39.57 C 94.37 41.30 92.78 43.23 93.80 45.22 C 96.41 51.88 99.45 58.37 102.37 64.90 C 103.54 66.72 101.35 68.18 100.58 69.67 C 100.51 67.94 100.47 66.22 100.45 64.49 C 91.24 65.08 82.91 69.47 75.25 74.28 C 68.67 79.20 60.62 75.04 53.31 76.07 C 53.17 77.77 53.01 79.48 52.75 81.17 C 52.42 81.50 51.76 82.16 51.44 82.49 C 51.14 76.95 52.07 71.46 52.27 65.94 C 52.48 60.79 52.68 55.64 53.21 50.51 C 54.73 52.94 56.06 55.48 57.36 58.03 C 57.72 57.10 58.10 56.17 58.49 55.25 C 58.78 54.77 59.36 53.82 59.65 53.34 C 61.39 51.70 62.95 49.89 64.29 47.91 C 64.49 47.71 64.90 47.33 65.10 47.13 C 66.06 46.72 66.74 46.03 67.14 45.06 C 67.38 44.82 67.85 44.34 68.08 44.10 C 69.04 43.68 69.73 42.99 70.13 42.03 C 70.28 41.83 70.57 41.42 70.72 41.22 C 72.97 39.36 75.10 37.27 76.29 34.54 L 76.67 33.86 L 76.92 34.66 C 77.00 34.96 77.18 35.55 77.27 35.84 Z" />
</g>
<g id="#2d212dd3">
<path fill="#2d212d" opacity="0.83" d=" M 77.97 33.03 C 77.67 31.31 78.38 30.59 80.10 30.88 C 79.71 31.90 79.01 32.62 77.97 33.03 Z" />
</g>
<g id="#d4b2d7ff">
<path fill="#d4b2d7" opacity="1.00" d=" M 146.35 37.11 C 149.72 35.37 152.97 33.35 156.57 32.07 C 156.31 33.40 155.89 34.66 155.31 35.87 C 152.85 36.04 150.83 37.42 148.76 38.59 C 147.90 38.20 147.10 37.70 146.35 37.11 Z" />
</g>
<g id="#00000072">
<path fill="#000000" opacity="0.45" d=" M 94.59 34.03 C 96.51 32.48 98.69 36.33 96.73 37.46 L 96.38 37.17 L 96.31 36.54 L 95.82 36.06 C 95.18 35.45 94.77 34.77 94.59 34.03 Z" />
<path fill="#000000" opacity="0.45" d=" M 175.83 112.83 C 176.22 111.87 176.88 111.17 177.82 110.74 C 178.25 112.50 177.59 113.19 175.83 112.83 Z" />
</g>
<g id="#281e28cb">
<path fill="#281e28" opacity="0.80" d=" M 70.72 41.22 C 72.04 38.61 73.98 36.33 76.29 34.54 C 75.10 37.27 72.97 39.36 70.72 41.22 Z" />
</g>
<g id="#bc96bfff">
<path fill="#bc96bf" opacity="1.00" d=" M 148.76 38.59 C 150.83 37.42 152.85 36.04 155.31 35.87 C 153.67 37.95 151.80 39.83 150.30 42.00 C 149.72 41.75 148.57 41.25 148.00 40.99 C 143.25 45.06 137.92 48.34 132.64 51.63 C 131.08 52.87 129.09 52.29 127.31 52.14 C 127.47 51.38 127.80 49.87 127.96 49.12 C 131.99 45.92 136.48 43.36 140.42 40.05 C 140.78 39.83 141.52 39.39 141.89 39.17 C 143.38 38.50 144.88 37.83 146.35 37.11 C 147.10 37.70 147.90 38.20 148.76 38.59 Z" />
</g>
<g id="#9b719dff">
<path fill="#9b719d" opacity="1.00" d=" M 132.64 51.63 C 137.92 48.34 143.25 45.06 148.00 40.99 C 148.57 41.25 149.72 41.75 150.30 42.00 L 149.59 43.08 C 149.53 43.17 149.41 43.36 149.34 43.45 C 149.72 43.39 150.47 43.27 150.84 43.21 C 152.38 45.77 153.82 48.43 154.73 51.29 C 154.67 51.85 154.53 52.99 154.47 53.55 C 156.39 54.18 158.33 54.79 160.33 55.13 C 159.09 56.12 157.88 57.15 156.67 58.18 C 156.53 58.29 156.24 58.53 156.10 58.64 C 154.07 59.77 153.20 61.91 152.63 64.03 C 151.88 63.74 150.39 63.16 149.64 62.87 C 150.06 59.06 151.08 54.69 148.76 51.29 C 147.96 49.81 146.14 49.45 144.64 49.87 C 139.01 51.15 134.01 54.25 129.47 57.71 C 118.94 66.00 108.57 74.74 100.21 85.28 C 93.77 95.22 91.42 107.16 89.63 118.69 C 88.55 116.98 87.24 115.11 87.87 112.96 C 89.12 106.51 90.25 100.02 91.34 93.54 C 91.67 89.82 91.55 86.08 92.10 82.38 C 92.50 82.53 93.29 82.85 93.69 83.00 C 94.74 83.26 95.79 83.52 96.85 83.76 C 96.67 81.19 96.63 78.62 96.96 76.07 C 97.45 76.37 98.43 76.99 98.92 77.30 C 99.39 77.35 100.34 77.44 100.81 77.48 C 103.75 74.82 105.64 71.21 108.38 68.35 C 113.26 63.18 117.62 57.56 122.07 52.03 C 123.19 50.48 124.81 49.47 126.46 48.57 C 126.25 50.16 126.07 51.75 125.92 53.34 C 126.27 53.04 126.96 52.44 127.31 52.14 C 129.09 52.29 131.08 52.87 132.64 51.63 Z" />
<path fill="#9b719d" opacity="1.00" d=" M 84.82 120.61 C 85.45 123.29 85.92 126.01 86.04 128.76 C 86.91 128.82 88.63 128.92 89.49 128.98 C 89.47 129.48 89.43 130.47 89.42 130.97 C 91.27 128.15 93.50 125.62 95.72 123.09 C 96.09 123.53 96.82 124.39 97.19 124.83 C 98.68 123.58 100.33 122.32 102.41 122.59 C 100.68 127.15 98.32 131.41 96.29 135.83 C 97.42 134.67 98.59 133.54 99.88 132.55 C 101.25 133.68 103.28 134.33 104.03 136.04 C 104.07 137.86 103.67 139.65 103.37 141.44 C 103.90 141.66 104.97 142.10 105.50 142.32 C 105.40 147.91 104.35 153.47 102.99 158.88 C 101.20 162.57 96.58 163.07 93.01 163.82 C 83.81 165.13 75.57 169.57 67.20 173.30 C 64.72 174.31 61.81 175.49 59.24 174.08 C 54.86 172.07 50.33 168.19 45.22 170.31 C 44.44 169.44 43.67 168.57 42.89 167.71 L 42.02 166.63 C 45.67 166.44 49.36 166.20 52.88 165.19 C 52.29 168.60 56.54 165.45 54.21 163.95 C 57.98 160.96 59.92 155.75 64.78 154.25 C 64.65 154.53 64.38 155.09 64.25 155.37 C 67.76 155.31 71.26 155.64 74.76 155.64 C 74.51 157.43 74.26 159.23 74.03 161.03 C 77.71 161.14 80.52 158.79 82.92 156.29 C 81.98 155.89 81.04 155.50 80.09 155.12 C 82.84 155.68 85.10 153.62 85.85 151.14 C 87.12 146.62 86.09 141.74 83.69 137.79 C 83.95 137.30 84.49 136.34 84.76 135.85 C 83.37 136.72 81.98 137.58 80.61 138.48 C 80.36 134.73 82.90 131.72 84.10 128.37 C 84.87 125.86 84.77 123.20 84.82 120.61 Z" />
<path fill="#9b719d" opacity="1.00" d=" M 38.51 128.00 C 46.03 128.89 53.16 125.39 60.58 125.43 C 63.71 126.18 62.14 129.94 61.04 131.82 C 61.02 131.48 60.97 130.80 60.95 130.45 C 52.93 132.82 44.62 130.12 36.49 129.79 C 37.00 129.34 38.01 128.44 38.51 128.00 Z" />
</g>
<g id="#100c1093">
<path fill="#100c10" opacity="0.58" d=" M 68.08 44.10 C 67.70 42.35 68.38 41.66 70.13 42.03 C 69.73 42.99 69.04 43.68 68.08 44.10 Z" />
</g>
<g id="#ffffffff">
<path fill="#ffffff" opacity="1.00" d=" M 124.97 43.38 C 125.58 43.16 126.79 42.70 127.40 42.48 C 127.45 43.16 127.47 43.84 127.49 44.52 C 126.37 44.95 125.27 45.38 124.16 45.82 L 124.26 44.89 L 124.33 44.22 L 124.39 43.60 L 124.97 43.38 Z" />
<path fill="#ffffff" opacity="1.00" d=" M 66.88 153.67 C 69.21 150.86 71.67 148.17 74.00 145.35 C 74.67 148.78 75.62 152.52 78.74 154.57 L 77.88 155.05 C 74.18 155.22 70.38 155.02 66.88 153.67 Z" />
<path fill="#ffffff" opacity="1.00" d=" M 51.13 175.71 C 53.38 175.10 55.61 175.91 57.78 176.40 C 57.67 177.20 57.46 178.81 57.35 179.62 C 55.89 179.14 54.43 178.62 53.15 177.76 C 52.91 177.52 52.43 177.04 52.20 176.80 L 51.13 175.71 Z" />
</g>
<g id="#1f1820c8">
<path fill="#1f1820" opacity="0.78" d=" M 150.84 43.21 C 153.57 43.69 154.01 46.78 155.12 48.83 C 155.98 52.42 162.14 50.09 162.58 54.01 C 161.66 56.36 158.96 57.52 156.67 58.18 C 157.88 57.15 159.09 56.12 160.33 55.13 C 160.77 54.79 161.65 54.12 162.09 53.78 C 159.78 52.58 157.27 51.86 154.73 51.29 C 153.82 48.43 152.38 45.77 150.84 43.21 Z" />
</g>
<g id="#0a070a89">
<path fill="#0a070a" opacity="0.54" d=" M 65.10 47.13 C 64.72 45.36 65.41 44.67 67.14 45.06 C 66.74 46.03 66.06 46.72 65.10 47.13 Z" />
</g>
<g id="#bb94beff">
<path fill="#bb94be" opacity="1.00" d=" M 122.21 46.11 C 122.72 45.80 123.75 45.20 124.26 44.89 L 124.16 45.82 C 125.27 45.38 126.37 44.95 127.49 44.52 C 127.17 45.88 126.78 47.22 126.46 48.57 C 124.81 49.47 123.19 50.48 122.07 52.03 C 117.62 57.56 113.26 63.18 108.38 68.35 C 105.64 71.21 103.75 74.82 100.81 77.48 C 100.34 77.44 99.39 77.35 98.92 77.30 C 98.62 76.72 98.01 75.54 97.71 74.95 C 100.19 71.83 102.80 68.79 105.06 65.50 C 105.23 65.27 105.58 64.80 105.75 64.56 C 109.89 59.47 114.47 54.77 118.48 49.58 C 118.62 49.48 118.88 49.28 119.01 49.17 C 119.96 48.71 120.67 48.01 121.15 47.06 C 121.41 46.82 121.94 46.35 122.21 46.11 Z" />
</g>
<g id="#171217bc">
<path fill="#171217" opacity="0.74" d=" M 119.01 49.17 C 118.67 47.39 119.38 46.69 121.15 47.06 C 120.67 48.01 119.96 48.71 119.01 49.17 Z" />
</g>
<g id="#1d151dad">
<path fill="#1d151d" opacity="0.68" d=" M 59.65 53.34 C 60.44 51.05 61.97 48.84 64.29 47.91 C 62.95 49.89 61.39 51.70 59.65 53.34 Z" />
</g>
<g id="#251d25c0">
<path fill="#251d25" opacity="0.75" d=" M 111.92 55.91 C 114.15 53.85 115.44 50.60 118.48 49.58 C 114.47 54.77 109.89 59.47 105.75 64.56 C 106.35 60.88 109.78 58.70 111.92 55.91 Z" />
</g>
<g id="#2b6965ff">
<path fill="#2b6965" opacity="1.00" d=" M 126.49 61.62 C 131.89 56.91 137.93 52.61 144.93 50.66 C 147.24 50.57 148.58 52.95 148.68 54.99 C 148.95 58.98 148.69 63.11 147.14 66.84 C 142.46 66.62 137.58 66.48 133.28 68.66 C 133.37 67.74 133.46 66.83 133.55 65.91 C 125.26 69.04 118.90 75.66 113.74 82.64 C 108.53 90.59 104.23 99.42 103.11 108.97 C 102.93 110.78 102.60 112.82 103.82 114.36 C 97.96 116.31 95.44 122.58 91.06 126.45 C 90.08 115.63 93.11 104.97 96.67 94.87 C 99.08 89.00 102.65 83.60 107.19 79.16 C 113.13 72.80 119.66 67.01 126.49 61.62 Z" />
</g>
<g id="#c093c2ff">
<path fill="#c093c2" opacity="1.00" d=" M 154.47 53.55 C 154.53 52.99 154.67 51.85 154.73 51.29 C 157.27 51.86 159.78 52.58 162.09 53.78 C 161.65 54.12 160.77 54.79 160.33 55.13 C 158.33 54.79 156.39 54.18 154.47 53.55 Z" />
</g>
<g id="#9f74a0ff">
<path fill="#9f74a0" opacity="1.00" d=" M 149.64 62.87 C 150.39 63.16 151.88 63.74 152.63 64.03 C 150.64 69.46 150.40 75.19 150.87 80.90 C 149.25 83.22 146.42 84.61 145.47 87.39 C 142.00 96.94 138.88 107.09 131.76 114.65 C 124.72 123.08 114.62 128.08 104.71 132.29 C 104.46 131.94 103.96 131.24 103.71 130.89 C 109.69 128.04 115.51 124.75 120.89 120.86 C 130.33 113.75 135.23 102.63 140.34 92.34 C 144.85 83.01 147.67 73.01 149.64 62.87 Z" />
</g>
<g id="#805f7fff">
<path fill="#805f7f" opacity="1.00" d=" M 75.25 74.28 C 82.91 69.47 91.24 65.08 100.45 64.49 C 100.47 66.22 100.51 67.94 100.58 69.67 C 99.44 71.20 98.33 72.78 96.94 74.10 C 96.01 73.35 95.11 72.57 94.23 71.76 C 92.11 73.33 91.90 76.03 91.50 78.43 C 90.06 78.08 88.74 78.30 87.54 79.09 C 87.51 78.65 87.46 77.76 87.43 77.31 C 88.24 76.48 89.06 75.65 89.87 74.81 C 86.86 75.84 84.00 77.27 80.88 77.96 C 77.34 78.69 74.83 82.09 71.05 81.97 C 64.94 82.32 58.82 81.83 52.75 81.17 C 53.01 79.48 53.17 77.77 53.31 76.07 C 60.62 75.04 68.67 79.20 75.25 74.28 Z" />
</g>
<g id="#268882ff">
<path fill="#268882" opacity="1.00" d=" M 113.74 82.64 C 118.90 75.66 125.26 69.04 133.55 65.91 C 133.46 66.83 133.37 67.74 133.28 68.66 C 137.58 66.48 142.46 66.62 147.14 66.84 C 145.80 77.39 141.50 87.31 136.79 96.76 L 136.47 96.83 C 131.05 97.94 126.08 100.50 121.42 103.41 C 117.27 106.10 113.12 109.18 110.79 113.67 C 112.00 113.37 113.22 113.07 114.43 112.77 C 114.06 116.20 113.47 119.60 112.77 122.98 C 113.39 123.00 114.64 123.03 115.26 123.05 C 110.59 126.41 105.33 128.84 100.09 131.15 C 101.93 126.50 104.40 122.00 105.32 117.05 C 104.95 116.38 104.20 115.03 103.82 114.36 C 102.60 112.82 102.93 110.78 103.11 108.97 C 104.23 99.42 108.53 90.59 113.74 82.64 Z" />
</g>
<g id="#bc94beff">
<path fill="#bc94be" opacity="1.00" d=" M 93.69 83.00 C 91.76 80.15 92.43 76.65 93.82 73.72 C 93.92 74.14 94.13 74.98 94.23 75.40 C 94.50 75.16 95.04 74.68 95.31 74.44 C 95.85 74.99 96.40 75.53 96.96 76.07 C 96.63 78.62 96.67 81.19 96.85 83.76 C 95.79 83.52 94.74 83.26 93.69 83.00 Z" />
</g>
<g id="#f1cdf2ff">
<path fill="#f1cdf2" opacity="1.00" d=" M 93.82 73.72 C 94.20 73.90 94.94 74.26 95.31 74.44 C 95.04 74.68 94.50 75.16 94.23 75.40 C 94.13 74.98 93.92 74.14 93.82 73.72 Z" />
</g>
<g id="#775974ff">
<path fill="#775974" opacity="1.00" d=" M 80.88 77.96 C 84.00 77.27 86.86 75.84 89.87 74.81 C 89.06 75.65 88.24 76.48 87.43 77.31 C 87.46 77.76 87.51 78.65 87.54 79.09 C 87.66 86.17 85.60 93.03 84.99 100.05 C 82.78 100.21 80.58 100.55 78.44 101.10 C 75.04 101.56 71.76 102.54 68.49 103.53 C 61.36 103.76 56.10 109.57 51.45 114.34 C 50.84 113.46 50.25 112.56 49.69 111.65 C 49.56 110.75 49.39 109.86 49.19 108.98 C 48.27 103.92 46.17 99.18 44.91 94.21 C 45.53 92.47 46.12 90.73 46.70 88.98 C 48.54 90.03 50.29 91.22 52.09 92.33 C 51.90 91.92 51.53 91.09 51.35 90.68 C 50.55 88.82 49.75 86.95 48.95 85.10 C 49.43 84.85 50.39 84.36 50.87 84.12 C 50.37 83.95 49.36 83.62 48.86 83.45 C 49.73 83.16 50.59 82.84 51.44 82.49 C 51.76 82.16 52.42 81.50 52.75 81.17 C 58.82 81.83 64.94 82.32 71.05 81.97 C 74.83 82.09 77.34 78.69 80.88 77.96 Z" />
</g>
<g id="#1b151bad">
<path fill="#1b151b" opacity="0.68" d=" M 170.57 78.21 C 171.13 74.98 176.49 75.49 176.25 78.94 C 175.11 81.27 173.99 83.82 171.78 85.34 C 172.72 83.35 173.80 81.44 175.09 79.66 C 174.69 78.71 174.91 76.55 173.27 77.08 C 172.59 77.36 171.25 77.93 170.57 78.21 Z" />
</g>
<g id="#b385b6ff">
<path fill="#b385b6" opacity="1.00" d=" M 173.27 77.08 C 174.91 76.55 174.69 78.71 175.09 79.66 C 173.80 81.44 172.72 83.35 171.78 85.34 C 171.59 85.64 171.21 86.25 171.01 86.55 C 168.23 90.09 165.84 93.93 163.67 97.87 L 163.64 98.06 C 157.83 98.75 151.99 98.79 146.17 99.38 C 153.27 93.20 160.67 87.36 167.68 81.07 L 167.78 81.00 C 168.79 80.58 169.56 79.89 170.07 78.93 C 170.19 78.75 170.44 78.39 170.57 78.21 C 171.25 77.93 172.59 77.36 173.27 77.08 Z" />
</g>
<g id="#3a2a3be1">
<path fill="#3a2a3b" opacity="0.88" d=" M 167.78 81.00 C 167.53 79.26 168.29 78.57 170.07 78.93 C 169.56 79.89 168.79 80.58 167.78 81.00 Z" />
</g>
<g id="#c098c2ff">
<path fill="#c098c2" opacity="1.00" d=" M 88.14 85.83 C 88.44 83.48 88.38 81.00 89.62 78.89 C 90.45 80.05 91.25 81.23 92.10 82.38 C 91.55 86.08 91.67 89.82 91.34 93.54 C 90.25 100.02 89.12 106.51 87.87 112.96 C 87.24 115.11 88.55 116.98 89.63 118.69 C 89.23 122.11 89.52 125.55 89.49 128.98 C 88.63 128.92 86.91 128.82 86.04 128.76 C 85.92 126.01 85.45 123.29 84.82 120.61 C 84.68 112.71 86.51 104.95 86.55 97.06 C 86.57 93.25 87.69 89.59 88.14 85.83 Z" />
<path fill="#c098c2" opacity="1.00" d=" M 151.30 126.05 C 154.72 125.22 158.21 124.69 161.62 123.84 C 161.44 124.91 161.05 125.90 160.45 126.80 C 157.39 126.71 154.26 126.99 151.30 126.05 Z" />
</g>
<g id="#1c151cc9">
<path fill="#1c151c" opacity="0.79" d=" M 162.30 84.35 C 164.02 83.18 165.30 80.67 167.68 81.07 C 160.67 87.36 153.27 93.20 146.17 99.38 C 145.40 99.68 144.62 99.99 143.85 100.30 C 144.17 98.67 145.79 97.94 146.94 96.98 C 152.36 93.14 157.08 88.44 162.30 84.35 Z" />
</g>
<g id="#261c26d3">
<path fill="#261c26" opacity="0.83" d=" M 163.67 97.87 C 165.84 93.93 168.23 90.09 171.01 86.55 C 170.21 90.59 167.26 93.77 165.13 97.19 C 164.76 97.36 164.04 97.70 163.67 97.87 Z" />
</g>
<g id="#4a9896ff">
<path fill="#4a9896" opacity="1.00" d=" M 121.42 103.41 C 126.08 100.50 131.05 97.94 136.47 96.83 C 132.05 107.31 125.64 117.62 115.26 123.05 C 114.64 123.03 113.39 123.00 112.77 122.98 C 113.47 119.60 114.06 116.20 114.43 112.77 C 113.22 113.07 112.00 113.37 110.79 113.67 C 113.12 109.18 117.27 106.10 121.42 103.41 Z" />
</g>
<g id="#836182ff">
<path fill="#836182" opacity="1.00" d=" M 146.17 99.38 C 151.99 98.79 157.83 98.75 163.64 98.06 C 163.46 98.45 163.12 99.24 162.95 99.63 C 160.18 103.20 158.49 107.57 158.51 112.11 C 159.55 110.63 160.09 108.47 162.05 107.97 C 165.49 106.73 169.08 106.02 172.58 105.00 C 175.15 105.99 177.61 107.31 179.61 109.24 C 179.16 109.61 178.27 110.36 177.82 110.74 C 176.88 111.17 176.22 111.87 175.83 112.83 C 175.63 113.04 175.24 113.47 175.05 113.68 C 172.11 115.91 169.95 118.94 167.40 121.58 C 167.39 120.05 167.90 118.60 168.42 117.19 C 166.37 115.65 164.41 113.80 161.90 113.08 C 159.41 112.47 157.27 114.36 155.49 115.81 C 156.12 114.56 156.59 113.24 156.87 111.87 C 156.80 110.73 156.72 109.59 156.62 108.45 C 152.51 106.74 148.37 105.08 144.28 103.31 C 143.03 103.90 141.74 104.50 140.33 104.56 C 141.18 103.40 142.09 102.27 142.98 101.14 L 143.52 100.44 L 143.85 100.30 C 144.62 99.99 145.40 99.68 146.17 99.38 Z" />
</g>
<g id="#ceaecfff">
<path fill="#ceaecf" opacity="1.00" d=" M 68.49 103.53 C 71.76 102.54 75.04 101.56 78.44 101.10 C 80.60 101.20 82.77 101.29 84.94 101.35 C 84.76 103.44 84.52 105.53 84.39 107.63 C 82.23 108.73 80.12 109.94 77.91 110.97 C 74.23 112.74 69.67 110.82 66.18 113.21 C 62.61 115.37 59.23 117.90 55.32 119.44 C 53.99 120.33 52.65 119.38 51.37 118.93 C 53.53 118.31 55.78 117.58 57.28 115.80 C 54.46 116.41 51.79 117.53 49.12 118.57 C 54.52 112.45 60.52 106.13 68.49 103.53 Z" />
</g>
<g id="#b083b5ff">
<path fill="#b083b5" opacity="1.00" d=" M 172.58 105.00 C 175.77 104.20 178.75 102.72 181.96 101.98 C 182.42 102.40 183.34 103.23 183.80 103.64 C 183.53 104.18 182.99 105.24 182.72 105.78 C 181.77 107.00 180.57 108.02 179.61 109.24 C 177.61 107.31 175.15 105.99 172.58 105.00 Z" />
</g>
<g id="#755872ff">
<path fill="#755872" opacity="1.00" d=" M 140.33 104.56 C 141.74 104.50 143.03 103.90 144.28 103.31 C 148.37 105.08 152.51 106.74 156.62 108.45 C 156.72 109.59 156.80 110.73 156.87 111.87 C 154.64 111.40 152.27 110.98 150.12 112.00 C 143.86 114.47 137.36 116.46 131.46 119.74 C 131.03 119.49 130.17 118.98 129.74 118.72 C 133.88 114.49 137.71 109.91 140.33 104.56 Z" />
</g>
<g id="#bc95bfff">
<path fill="#bc95bf" opacity="1.00" d=" M 77.91 110.97 C 80.12 109.94 82.23 108.73 84.39 107.63 C 84.13 114.54 83.53 121.45 84.10 128.37 C 82.90 131.72 80.36 134.73 80.61 138.48 C 79.04 139.61 77.54 140.83 76.10 142.12 C 75.62 141.23 75.15 140.35 74.69 139.47 C 72.52 140.89 70.03 141.69 67.42 141.45 C 66.01 143.62 63.68 145.85 64.33 148.69 C 65.46 149.51 66.85 149.82 68.13 150.34 C 67.03 151.66 65.91 152.96 64.78 154.25 C 59.92 155.75 57.98 160.96 54.21 163.95 C 53.88 164.26 53.21 164.88 52.88 165.19 C 49.36 166.20 45.67 166.44 42.02 166.63 C 41.85 166.40 41.51 165.95 41.33 165.72 C 41.31 165.36 41.26 164.63 41.23 164.27 C 44.18 164.66 47.47 165.87 50.29 164.32 C 52.70 162.81 51.60 159.59 51.80 157.24 C 50.23 156.82 48.68 156.29 47.07 156.11 C 44.90 156.22 43.96 158.36 43.05 159.98 C 43.12 155.98 41.01 152.46 39.96 148.71 C 41.42 145.11 40.91 140.60 39.02 137.27 C 39.84 135.28 40.73 133.29 42.09 131.60 C 44.15 131.17 46.27 131.44 48.35 131.49 C 47.71 135.58 47.35 139.77 48.32 143.84 C 51.25 145.25 54.26 143.25 56.10 141.01 C 56.62 140.25 57.11 139.47 57.53 138.65 C 58.70 136.37 59.92 134.12 61.04 131.82 C 62.14 129.94 63.71 126.18 60.58 125.43 C 53.16 125.39 46.03 128.89 38.51 128.00 C 40.78 125.79 43.23 123.79 45.88 122.06 L 44.77 121.55 C 46.93 120.57 49.06 119.50 51.37 118.93 C 52.65 119.38 53.99 120.33 55.32 119.44 C 59.23 117.90 62.61 115.37 66.18 113.21 C 69.67 110.82 74.23 112.74 77.91 110.97 Z" />
</g>
<g id="#d7bcd7ff">
<path fill="#d7bcd7" opacity="1.00" d=" M 151.92 112.90 C 152.91 112.56 154.92 111.32 155.39 112.92 C 155.13 113.44 154.61 114.48 154.35 115.00 C 153.36 114.51 152.55 113.81 151.92 112.90 Z" />
<path fill="#d7bcd7" opacity="1.00" d=" M 30.57 128.13 C 34.96 125.25 39.91 123.44 44.77 121.55 L 45.88 122.06 C 43.23 123.79 40.78 125.79 38.51 128.00 C 38.01 128.44 37.00 129.34 36.49 129.79 C 34.44 129.57 32.39 129.16 30.57 128.13 Z" />
</g>
<g id="#b586b8ff">
<path fill="#b586b8" opacity="1.00" d=" M 138.16 118.16 C 142.55 115.92 147.32 114.61 151.92 112.90 C 152.55 113.81 153.36 114.51 154.35 115.00 C 153.59 116.07 152.85 117.15 152.14 118.26 C 147.52 118.30 142.59 119.69 138.16 118.16 Z" />
</g>
<g id="#735771ff">
<path fill="#735771" opacity="1.00" d=" M 155.49 115.81 C 157.27 114.36 159.41 112.47 161.90 113.08 C 164.41 113.80 166.37 115.65 168.42 117.19 C 167.90 118.60 167.39 120.05 167.40 121.58 L 167.42 121.90 C 165.86 127.12 172.06 128.18 175.75 128.67 L 175.65 129.35 C 174.58 128.87 172.35 128.24 172.00 129.88 C 172.45 131.50 174.59 131.24 175.78 130.71 C 174.58 132.24 172.69 132.83 171.04 133.71 C 167.98 134.99 167.82 138.60 167.19 141.38 C 166.29 140.61 165.39 139.84 164.50 139.07 C 165.82 136.71 167.23 134.18 166.54 131.38 C 164.08 131.36 161.62 131.37 159.16 131.38 C 160.38 128.86 165.21 124.87 160.94 122.77 C 157.32 123.19 153.78 124.14 150.16 124.64 C 151.47 121.44 153.37 118.53 155.49 115.81 Z" />
</g>
<g id="#0f0b0eb2">
<path fill="#0f0b0e" opacity="0.70" d=" M 167.40 121.58 C 169.95 118.94 172.11 115.91 175.05 113.68 C 174.50 116.50 171.58 117.87 170.12 120.17 C 168.57 121.81 168.72 124.17 168.38 126.25 C 168.05 124.80 167.73 123.35 167.42 121.90 L 167.40 121.58 Z" />
</g>
<g id="#b184b5ff">
<path fill="#b184b5" opacity="1.00" d=" M 95.72 123.09 C 98.02 120.46 99.86 117.28 102.94 115.45 C 105.80 116.98 102.86 120.37 102.41 122.59 C 100.33 122.32 98.68 123.58 97.19 124.83 C 96.82 124.39 96.09 123.53 95.72 123.09 Z" />
</g>
<g id="#9c729dff">
<path fill="#9c729d" opacity="1.00" d=" M 131.46 119.74 C 133.82 119.98 136.02 119.02 138.16 118.16 C 142.59 119.69 147.52 118.30 152.14 118.26 C 150.36 120.85 149.05 123.73 148.42 126.83 C 149.38 126.56 150.34 126.30 151.30 126.05 C 154.26 126.99 157.39 126.71 160.45 126.80 C 158.92 128.79 157.76 131.03 156.83 133.36 C 157.65 133.22 158.48 133.08 159.31 132.97 C 160.53 134.12 161.81 135.21 163.14 136.25 C 162.73 136.83 161.93 137.97 161.53 138.55 L 161.13 138.66 C 163.55 140.36 165.95 142.08 168.51 143.58 C 169.06 143.92 169.48 144.39 169.78 144.99 C 171.67 148.17 174.50 150.78 175.79 154.32 C 177.40 158.63 179.48 163.24 178.31 167.94 C 177.41 173.98 173.87 179.12 169.77 183.47 C 169.58 183.54 169.21 183.68 169.02 183.76 C 165.61 185.04 162.24 186.44 158.81 187.67 C 158.62 187.15 158.24 186.12 158.06 185.60 C 160.94 185.21 163.83 184.65 166.52 183.51 C 161.00 183.26 155.52 185.22 150.03 183.96 C 143.18 182.87 135.77 180.02 132.40 173.51 C 129.39 166.96 129.51 158.89 133.71 152.88 C 126.72 159.37 128.35 171.06 133.84 177.99 C 128.00 177.14 122.00 177.23 116.17 178.20 C 106.89 179.81 99.17 185.79 90.12 188.14 C 89.26 187.42 88.39 186.69 87.53 185.97 C 92.38 182.96 97.60 180.32 101.40 175.93 C 98.87 170.38 92.49 168.83 87.48 166.38 C 91.73 164.70 96.41 164.59 100.69 162.98 C 104.98 164.15 109.42 165.76 113.92 164.94 C 116.43 164.47 118.15 162.47 119.95 160.84 C 119.22 158.95 118.23 157.02 115.87 157.45 C 116.53 156.49 117.18 155.52 117.84 154.56 C 116.68 153.60 115.51 152.65 114.35 151.69 C 112.21 145.79 109.42 140.08 106.33 134.63 C 106.49 132.23 108.94 131.50 110.76 130.63 C 117.51 127.44 124.58 124.31 129.74 118.72 C 130.17 118.98 131.03 119.49 131.46 119.74 M 121.25 136.23 C 114.60 139.42 118.38 151.41 125.59 150.59 C 130.26 148.57 131.06 142.34 128.59 138.35 C 126.90 136.32 123.77 134.82 121.25 136.23 M 138.94 153.02 C 135.56 159.50 137.33 167.76 141.90 173.19 C 143.90 175.30 146.87 172.86 149.19 174.42 C 150.60 173.09 151.83 171.57 152.92 169.97 C 155.72 171.12 158.75 170.75 161.68 170.52 C 164.30 167.25 169.24 164.82 168.68 159.97 C 168.11 153.12 164.48 146.08 158.36 142.64 C 150.44 140.36 142.13 145.87 138.94 153.02 M 130.71 153.09 C 132.95 152.04 134.55 150.10 136.15 148.29 C 134.17 149.69 132.06 151.02 130.71 153.09 Z" />
</g>
<g id="#896589ff">
<path fill="#896589" opacity="1.00" d=" M 99.88 132.55 C 101.14 131.97 102.43 131.45 103.71 130.89 C 103.96 131.24 104.46 131.94 104.71 132.29 C 105.25 133.06 105.81 133.84 106.33 134.63 C 109.42 140.08 112.21 145.79 114.35 151.69 C 113.60 153.53 112.85 155.37 112.11 157.21 C 113.36 157.31 114.62 157.38 115.87 157.45 C 118.23 157.02 119.22 158.95 119.95 160.84 C 118.15 162.47 116.43 164.47 113.92 164.94 C 109.42 165.76 104.98 164.15 100.69 162.98 C 103.71 161.56 104.62 158.20 105.25 155.22 C 106.16 151.13 106.75 146.93 106.44 142.73 C 106.21 142.63 105.73 142.42 105.50 142.32 C 104.97 142.10 103.90 141.66 103.37 141.44 C 103.67 139.65 104.07 137.86 104.03 136.04 C 103.28 134.33 101.25 133.68 99.88 132.55 Z" />
</g>
<g id="#6b516dff">
<path fill="#6b516d" opacity="1.00" d=" M 50.22 132.03 C 53.34 132.21 56.44 132.75 59.58 132.58 C 58.44 134.43 57.68 136.47 57.53 138.65 C 57.11 139.47 56.62 140.25 56.10 141.01 L 56.07 139.93 C 56.07 139.64 56.05 139.04 56.05 138.75 C 52.40 139.25 50.74 135.72 48.73 133.40 C 49.10 133.06 49.85 132.38 50.22 132.03 Z" />
</g>
<g id="#b888b9ff">
<path fill="#b888b9" opacity="1.00" d=" M 159.31 132.97 C 161.58 132.69 163.88 132.75 166.16 132.85 C 165.00 134.99 164.63 138.51 161.53 138.55 C 161.93 137.97 162.73 136.83 163.14 136.25 C 161.81 135.21 160.53 134.12 159.31 132.97 Z" />
</g>
<g id="#896194ff">
<path fill="#896194" opacity="1.00" d=" M 48.73 133.40 C 50.74 135.72 52.40 139.25 56.05 138.75 C 56.05 139.04 56.07 139.64 56.07 139.93 C 54.51 141.58 52.69 142.95 50.86 144.28 C 47.50 141.65 48.36 137.09 48.73 133.40 Z" />
</g>
<g id="#230f11ff">
<path fill="#230f11" opacity="1.00" d=" M 80.61 138.48 C 81.98 137.58 83.37 136.72 84.76 135.85 C 84.49 136.34 83.95 137.30 83.69 137.79 C 86.09 141.74 87.12 146.62 85.85 151.14 C 85.10 153.62 82.84 155.68 80.09 155.12 C 79.75 154.98 79.08 154.71 78.74 154.57 C 75.62 152.52 74.67 148.78 74.00 145.35 C 71.67 148.17 69.21 150.86 66.88 153.67 C 70.38 155.02 74.18 155.22 77.88 155.05 C 76.88 155.41 75.84 155.60 74.76 155.64 C 71.26 155.64 67.76 155.31 64.25 155.37 C 64.38 155.09 64.65 154.53 64.78 154.25 C 65.91 152.96 67.03 151.66 68.13 150.34 C 70.55 147.39 73.32 144.74 76.10 142.12 C 77.54 140.83 79.04 139.61 80.61 138.48 M 75.25 144.94 L 75.92 145.58 C 75.35 148.88 77.37 152.31 80.07 154.07 C 82.77 155.46 84.65 152.30 85.34 150.14 C 84.47 150.31 82.73 150.65 81.86 150.82 C 80.49 149.52 79.37 147.99 78.65 146.24 C 78.72 145.34 78.87 143.54 78.94 142.63 C 77.14 141.32 76.30 144.06 75.25 144.94 Z" />
</g>
<g id="#79597eff">
<path fill="#79597e" opacity="1.00" d=" M 121.25 136.23 C 123.77 134.82 126.90 136.32 128.59 138.35 C 131.06 142.34 130.26 148.57 125.59 150.59 C 118.38 151.41 114.60 139.42 121.25 136.23 Z" />
</g>
<g id="#dbb8dcff">
<path fill="#dbb8dc" opacity="1.00" d=" M 39.02 137.27 C 40.91 140.60 41.42 145.11 39.96 148.71 C 38.81 145.04 37.61 141.05 39.02 137.27 Z" />
</g>
<g id="#ccadcdff">
<path fill="#ccadcd" opacity="1.00" d=" M 67.42 141.45 C 70.03 141.69 72.52 140.89 74.69 139.47 C 75.15 140.35 75.62 141.23 76.10 142.12 C 73.32 144.74 70.55 147.39 68.13 150.34 C 66.85 149.82 65.46 149.51 64.33 148.69 C 63.68 145.85 66.01 143.62 67.42 141.45 Z" />
<path fill="#ccadcd" opacity="1.00" d=" M 72.41 179.49 C 74.51 175.85 78.84 174.89 82.04 172.55 C 82.52 173.64 83.00 174.73 83.48 175.82 C 82.58 177.64 81.69 179.46 80.74 181.26 C 80.31 181.36 79.44 181.57 79.00 181.68 C 77.14 180.00 75.14 178.35 72.41 179.49 Z" />
</g>
<g id="#be96c0ff">
<path fill="#be96c0" opacity="1.00" d=" M 138.94 153.02 C 142.13 145.87 150.44 140.36 158.36 142.64 C 164.48 146.08 168.11 153.12 168.68 159.97 C 169.24 164.82 164.30 167.25 161.68 170.52 C 158.75 170.75 155.72 171.12 152.92 169.97 C 151.83 171.57 150.60 173.09 149.19 174.42 C 146.87 172.86 143.90 175.30 141.90 173.19 C 137.33 167.76 135.56 159.50 138.94 153.02 M 149.78 151.11 C 150.35 153.38 151.31 155.54 152.52 157.54 C 154.41 159.09 156.98 159.20 159.28 159.69 C 160.49 160.78 161.96 163.25 163.84 161.85 C 165.26 157.73 164.49 151.85 160.21 149.68 C 157.08 147.64 151.43 146.86 149.78 151.11 Z" />
</g>
<g id="#faefefff">
<path fill="#faefef" opacity="1.00" d=" M 75.25 144.94 C 76.30 144.06 77.14 141.32 78.94 142.63 C 78.87 143.54 78.72 145.34 78.65 146.24 C 78.42 146.43 77.94 146.80 77.70 146.99 C 77.26 146.64 76.37 145.93 75.92 145.58 L 75.25 144.94 Z" />
</g>
<g id="#e8665eff">
<path fill="#e8665e" opacity="1.00" d=" M 75.92 145.58 C 76.37 145.93 77.26 146.64 77.70 146.99 C 77.94 146.80 78.42 146.43 78.65 146.24 C 79.37 147.99 80.49 149.52 81.86 150.82 C 82.73 150.65 84.47 150.31 85.34 150.14 C 84.65 152.30 82.77 155.46 80.07 154.07 C 77.37 152.31 75.35 148.88 75.92 145.58 Z" />
</g>
<g id="#8c6596ff">
<path fill="#8c6596" opacity="1.00" d=" M 149.78 151.11 C 151.43 146.86 157.08 147.64 160.21 149.68 C 164.49 151.85 165.26 157.73 163.84 161.85 C 161.96 163.25 160.49 160.78 159.28 159.69 C 156.98 159.20 154.41 159.09 152.52 157.54 C 151.31 155.54 150.35 153.38 149.78 151.11 Z" />
</g>
<g id="#725573ff">
<path fill="#725573" opacity="1.00" d=" M 114.35 151.69 C 115.51 152.65 116.68 153.60 117.84 154.56 C 117.18 155.52 116.53 156.49 115.87 157.45 C 114.62 157.38 113.36 157.31 112.11 157.21 C 112.85 155.37 113.60 153.53 114.35 151.69 Z" />
</g>
<g id="#b587b9ff">
<path fill="#b587b9" opacity="1.00" d=" M 78.74 154.57 C 79.08 154.71 79.75 154.98 80.09 155.12 C 81.04 155.50 81.98 155.89 82.92 156.29 C 80.52 158.79 77.71 161.14 74.03 161.03 C 74.26 159.23 74.51 157.43 74.76 155.64 C 75.84 155.60 76.88 155.41 77.88 155.05 L 78.74 154.57 Z" />
</g>
<g id="#cdaeceff">
<path fill="#cdaece" opacity="1.00" d=" M 43.05 159.98 C 43.96 158.36 44.90 156.22 47.07 156.11 C 48.68 156.29 50.23 156.82 51.80 157.24 C 51.60 159.59 52.70 162.81 50.29 164.32 C 47.47 165.87 44.18 164.66 41.23 164.27 C 41.80 162.82 42.42 161.40 43.05 159.98 Z" />
</g>
<g id="#533d54ff">
<path fill="#533d54" opacity="1.00" d=" M 54.21 163.95 C 56.54 165.45 52.29 168.60 52.88 165.19 C 53.21 164.88 53.88 164.26 54.21 163.95 Z" />
</g>
<g id="#7d5e7bff">
<path fill="#7d5e7b" opacity="1.00" d=" M 41.45 167.16 C 41.42 166.80 41.36 166.08 41.33 165.72 C 41.51 165.95 41.85 166.40 42.02 166.63 L 42.89 167.71 L 40.88 167.47 C 42.78 169.58 45.22 171.04 47.45 172.75 C 48.57 173.56 48.80 174.58 48.16 175.79 C 46.31 175.50 45.77 173.27 44.53 172.16 L 44.98 173.96 C 44.14 173.10 43.30 172.26 42.43 171.45 L 41.94 171.01 C 40.91 171.59 39.91 172.21 38.90 172.84 C 38.07 172.40 37.22 171.96 36.37 171.54 C 37.17 170.26 38.03 169.03 38.94 167.83 C 39.20 167.71 39.71 167.47 39.97 167.35 L 41.45 167.16 Z" />
</g>
<g id="#bd96bfff">
<path fill="#bd96bf" opacity="1.00" d=" M 82.04 172.55 C 84.32 170.94 85.83 168.57 87.48 166.38 C 92.49 168.83 98.87 170.38 101.40 175.93 C 97.60 180.32 92.38 182.96 87.53 185.97 C 88.39 186.69 89.26 187.42 90.12 188.14 C 89.32 188.32 87.70 188.67 86.89 188.85 C 86.58 185.56 84.79 180.86 80.74 181.26 C 81.69 179.46 82.58 177.64 83.48 175.82 C 83.00 174.73 82.52 173.64 82.04 172.55 Z" />
</g>
<g id="#dadadaff">
<path fill="#dadada" opacity="1.00" d=" M 47.63 170.51 C 51.42 170.86 55.06 172.42 57.92 174.93 C 57.88 175.30 57.82 176.03 57.78 176.40 C 55.61 175.91 53.38 175.10 51.13 175.71 C 49.64 174.22 48.57 172.39 47.63 170.51 Z" />
<path fill="#dadada" opacity="1.00" d=" M 79.39 188.07 C 80.83 186.79 82.29 185.53 83.97 184.57 L 85.26 184.33 C 85.29 185.32 85.34 187.29 85.37 188.28 C 83.65 189.24 81.83 189.99 79.92 190.49 C 79.79 189.89 79.53 188.68 79.39 188.07 Z" />
</g>
<g id="#f6f7f8ff">
<path fill="#f6f7f8" opacity="1.00" d=" M 36.37 171.54 C 37.22 171.96 38.07 172.40 38.90 172.84 C 39.39 176.18 35.62 176.91 33.26 177.72 C 34.15 175.59 35.15 173.50 36.37 171.54 Z" />
<path fill="#f6f7f8" opacity="1.00" d=" M 42.43 171.45 C 43.30 172.26 44.14 173.10 44.98 173.96 L 45.61 175.35 C 43.72 177.57 40.75 178.28 38.17 179.39 C 39.05 176.48 40.55 173.82 42.43 171.45 Z" />
<path fill="#f6f7f8" opacity="1.00" d=" M 73.13 192.35 C 74.70 187.81 78.35 184.31 82.03 181.37 C 82.97 182.25 83.91 183.13 84.85 184.03 L 83.97 184.57 C 82.29 185.53 80.83 186.79 79.39 188.07 C 79.53 188.68 79.79 189.89 79.92 190.49 C 77.65 191.10 75.40 191.78 73.13 192.35 Z" />
<path fill="#f6f7f8" opacity="1.00" d=" M 147.40 189.17 C 148.19 187.54 149.65 186.49 151.10 185.51 C 153.41 185.62 157.46 184.62 157.05 188.33 C 153.83 188.63 150.64 189.31 147.40 189.17 Z" />
</g>
<g id="#ececedff">
<path fill="#ececed" opacity="1.00" d=" M 74.94 180.03 C 76.50 179.91 77.39 181.59 78.61 182.27 C 76.08 185.18 73.90 189.33 69.35 188.74 C 70.32 185.40 72.14 182.15 74.94 180.03 Z" />
<path fill="#ececed" opacity="1.00" d=" M 145.19 184.24 C 146.53 184.44 147.88 184.65 149.22 184.85 C 148.02 186.19 146.84 187.55 145.63 188.90 C 145.40 187.35 145.27 185.79 145.19 184.24 Z" />
</g>
</svg>
