<?xml version="1.0" encoding="UTF-8" ?>
<!DOCTYPE svg PUBLIC "-//W3C//DTD SVG 1.1//EN" "http://www.w3.org/Graphics/SVG/1.1/DTD/svg11.dtd">
<svg width="215pt" height="215pt" viewBox="0 0 215 215" version="1.1" xmlns="http://www.w3.org/2000/svg">
<g id="#c09fc5ff">
<path fill="#c09fc5" opacity="1.00" d=" M 42.55 22.38 C 42.73 22.37 43.09 22.34 43.28 22.33 C 43.23 28.82 43.47 35.31 44.36 41.73 C 44.20 42.45 43.87 43.90 43.70 44.63 C 43.08 44.07 42.45 43.51 41.83 42.96 C 38.90 45.78 37.34 49.58 36.54 53.50 C 36.24 53.39 35.66 53.16 35.37 53.04 C 36.69 46.74 36.93 40.27 38.35 33.99 C 38.71 34.20 39.41 34.63 39.76 34.84 C 40.10 33.57 40.43 32.30 40.78 31.03 C 41.83 34.00 41.29 37.35 42.74 40.18 C 43.39 34.56 42.28 28.93 42.54 23.29 L 42.55 22.38 Z" />
</g>
<g id="#c7a5ccfe">
<path fill="#c7a5cc" opacity="1.00" d=" M 41.12 23.56 C 41.47 23.49 42.19 23.36 42.54 23.29 C 42.28 28.93 43.39 34.56 42.74 40.18 C 41.29 37.35 41.83 34.00 40.78 31.03 C 40.43 32.30 40.10 33.57 39.76 34.84 C 39.41 34.63 38.71 34.20 38.35 33.99 C 39.07 30.46 39.66 26.87 41.12 23.56 Z" />
</g>
<g id="#332c34ba">
<path fill="#332c34" opacity="0.73" d=" M 38.78 27.50 C 39.31 26.10 39.41 24.09 41.12 23.56 C 39.66 26.87 39.07 30.46 38.35 33.99 C 36.93 40.27 36.69 46.74 35.37 53.04 C 34.67 57.84 33.14 62.45 32.13 67.18 C 31.47 72.48 33.08 77.67 33.52 82.92 C 34.36 89.23 34.31 95.61 34.65 101.95 C 34.69 103.37 35.10 104.67 35.87 105.87 C 33.70 106.82 33.97 104.08 33.78 102.88 C 33.57 93.56 32.90 84.22 31.40 75.03 C 30.37 72.54 29.49 69.19 30.92 66.74 C 35.51 54.17 35.56 40.45 38.78 27.50 Z" />
</g>
<g id="#342b36c8">
<path fill="#342b36" opacity="0.78" d=" M 145.23 37.29 C 145.20 34.90 151.80 33.28 150.84 37.01 C 147.08 44.77 139.28 51.09 138.93 60.16 C 142.50 61.02 145.44 57.84 148.85 57.55 C 146.92 59.14 144.53 59.96 142.33 61.08 C 141.84 61.32 140.86 61.80 140.37 62.04 C 139.15 61.02 137.38 59.95 137.82 58.06 C 139.08 53.42 141.58 49.24 144.40 45.39 C 146.73 42.44 148.59 39.12 149.88 35.58 C 148.14 35.55 146.73 36.60 145.23 37.29 Z" />
</g>
<g id="#ab8facff">
<path fill="#ab8fac" opacity="1.00" d=" M 50.92 36.35 C 51.39 36.33 52.33 36.28 52.80 36.26 C 52.73 37.42 52.69 38.58 52.68 39.74 L 52.66 39.86 C 51.36 45.56 51.66 51.67 52.56 57.44 C 49.98 60.38 50.85 64.44 50.66 68.02 C 50.78 72.91 50.42 77.82 49.24 82.58 C 47.66 88.82 48.07 95.79 44.28 101.29 C 42.44 103.97 38.36 104.12 36.95 107.13 L 36.63 107.81 C 36.44 107.32 36.06 106.35 35.87 105.87 C 35.10 104.67 34.69 103.37 34.65 101.95 C 34.31 95.61 34.36 89.23 33.52 82.92 C 33.08 77.67 31.47 72.48 32.13 67.18 C 33.14 62.45 34.67 57.84 35.37 53.04 C 35.66 53.16 36.24 53.39 36.54 53.50 C 37.34 49.58 38.90 45.78 41.83 42.96 C 42.45 43.51 43.08 44.07 43.70 44.63 C 43.87 43.90 44.20 42.45 44.36 41.73 C 44.69 43.49 45.28 45.20 45.52 46.98 C 47.24 46.96 47.82 45.32 48.30 43.96 C 49.11 41.40 50.05 38.89 50.92 36.35 Z" />
</g>
<g id="#0000004c">
<path fill="#000000" opacity="0.30" d=" M 52.80 36.26 C 54.66 36.05 54.57 40.16 52.68 39.74 C 52.69 38.58 52.73 37.42 52.80 36.26 Z" />
</g>
<g id="#d5bcd7ff">
<path fill="#d5bcd7" opacity="1.00" d=" M 145.23 37.29 C 146.73 36.60 148.14 35.55 149.88 35.58 C 148.59 39.12 146.73 42.44 144.40 45.39 C 144.29 44.74 144.08 43.43 143.97 42.78 C 140.04 45.83 137.39 50.26 133.21 53.04 L 132.28 52.52 C 135.44 48.84 138.90 45.40 141.56 41.32 C 141.59 41.29 141.65 41.24 141.68 41.22 C 142.79 40.64 143.59 39.78 144.06 38.63 C 144.19 38.38 144.44 37.89 144.56 37.64 L 145.23 37.29 Z" />
</g>
<g id="#3d323fc5">
<path fill="#3d323f" opacity="0.77" d=" M 101.42 38.36 C 102.50 37.37 104.33 36.34 105.75 37.22 C 105.19 42.69 104.02 48.07 103.42 53.54 C 102.64 57.41 102.74 61.38 102.70 65.31 C 101.92 57.03 102.97 48.70 104.36 40.54 C 104.46 39.85 104.67 38.47 104.78 37.78 C 104.21 37.97 103.07 38.35 102.50 38.54 C 99.32 43.34 98.78 49.41 97.06 54.84 C 94.63 61.54 92.83 68.46 90.31 75.11 C 90.27 70.16 92.80 65.59 94.06 60.86 C 96.65 53.41 97.98 45.49 101.42 38.36 Z" />
</g>
<g id="#d3b3d9ff">
<path fill="#d3b3d9" opacity="1.00" d=" M 102.50 38.54 C 103.07 38.35 104.21 37.97 104.78 37.78 C 104.67 38.47 104.46 39.85 104.36 40.54 C 101.66 43.25 101.37 47.32 100.37 50.83 C 99.50 52.31 98.94 54.33 97.06 54.84 C 98.78 49.41 99.32 43.34 102.50 38.54 Z" />
</g>
<g id="#654b68ff">
<path fill="#654b68" opacity="1.00" d=" M 141.68 41.22 C 141.59 39.50 142.38 38.64 144.06 38.63 C 143.59 39.78 142.79 40.64 141.68 41.22 Z" />
<path fill="#654b68" opacity="1.00" d=" M 143.90 130.29 C 144.78 130.23 146.55 130.11 147.43 130.05 C 147.50 132.30 147.03 134.51 146.40 136.66 C 145.62 136.46 144.85 136.25 144.08 136.01 C 143.92 134.11 143.83 132.20 143.90 130.29 Z" />
<path fill="#654b68" opacity="1.00" d=" M 76.23 143.44 C 76.47 143.41 76.96 143.35 77.21 143.33 C 76.62 145.55 75.27 147.69 75.71 150.07 C 76.16 151.69 76.69 153.29 77.10 154.92 L 76.49 155.82 C 75.64 154.03 73.40 152.39 74.15 150.19 C 74.76 147.92 75.42 145.65 76.23 143.44 Z" />
<path fill="#654b68" opacity="1.00" d=" M 71.48 171.74 C 70.64 173.95 71.06 177.40 68.70 178.47 C 68.69 177.81 68.68 176.51 68.67 175.86 C 69.57 174.45 70.54 173.10 71.48 171.74 Z" />
<path fill="#654b68" opacity="1.00" d=" M 151.03 185.02 C 152.10 183.41 151.76 181.12 153.14 179.60 C 153.10 180.53 153.04 182.40 153.01 183.33 C 154.64 183.32 156.25 183.15 157.84 182.82 C 156.94 182.14 156.27 181.31 155.86 180.31 C 156.57 180.15 157.99 179.83 158.69 179.67 L 156.42 180.36 C 157.00 181.12 158.15 182.64 158.73 183.40 C 156.85 184.30 154.77 184.42 152.72 184.41 C 151.79 185.33 150.77 186.15 149.70 186.90 C 149.06 189.11 148.09 191.46 146.06 192.73 C 144.80 192.43 142.90 191.25 143.32 189.72 C 144.27 190.42 145.19 191.16 146.07 191.95 C 146.33 191.67 146.85 191.10 147.10 190.82 C 148.83 188.81 150.06 185.42 147.01 184.00 C 144.58 182.26 143.00 184.49 141.69 186.30 L 140.49 186.24 C 140.98 183.45 143.99 181.19 146.82 181.98 C 148.46 182.64 149.34 184.61 151.03 185.02 Z" />
</g>
<g id="#1f191fb6">
<path fill="#1f191f" opacity="0.71" d=" M 52.56 57.44 C 51.66 51.67 51.36 45.56 52.66 39.86 C 53.81 46.08 51.83 52.73 54.11 58.82 C 54.81 61.82 56.83 64.41 57.16 67.48 C 54.60 64.76 53.79 60.87 52.56 57.44 Z" />
</g>
<g id="#a47fa8ff">
<path fill="#a47fa8" opacity="1.00" d=" M 100.37 50.83 C 101.37 47.32 101.66 43.25 104.36 40.54 C 102.97 48.70 101.92 57.03 102.70 65.31 C 102.82 66.88 102.94 68.45 103.03 70.02 C 102.97 71.54 103.62 72.24 104.98 72.13 C 110.28 71.86 110.12 64.83 114.11 62.58 C 114.41 64.79 114.46 67.03 114.38 69.25 C 111.42 72.06 107.99 74.83 106.95 78.97 C 105.42 84.79 102.02 89.87 98.39 94.58 C 95.69 95.85 92.72 96.24 89.85 96.91 C 88.14 98.09 86.71 99.63 85.14 100.98 C 84.83 94.68 85.56 88.36 84.95 82.05 C 84.95 77.27 83.98 72.42 85.29 67.73 C 87.17 72.97 87.50 78.82 90.37 83.66 C 90.71 83.81 91.38 84.12 91.72 84.27 C 91.18 82.43 90.48 80.65 89.79 78.87 C 91.09 78.76 92.38 78.63 93.68 78.51 C 95.47 75.58 97.29 72.49 97.54 68.98 C 98.02 62.86 99.70 56.92 100.37 50.83 Z" />
</g>
<g id="#1f1b20b8">
<path fill="#1f1b20" opacity="0.72" d=" M 131.64 51.92 C 134.15 48.21 137.84 45.29 140.30 41.46 L 141.56 41.32 C 138.90 45.40 135.44 48.84 132.28 52.52 L 131.64 51.92 Z" />
</g>
<g id="#c2a1c7ff">
<path fill="#c2a1c7" opacity="1.00" d=" M 133.21 53.04 C 137.39 50.26 140.04 45.83 143.97 42.78 C 144.08 43.43 144.29 44.74 144.40 45.39 C 141.58 49.24 139.08 53.42 137.82 58.06 C 137.38 59.95 139.15 61.02 140.37 62.04 C 140.71 62.41 141.39 63.15 141.73 63.52 C 137.28 64.55 132.87 65.88 128.70 67.76 C 122.66 71.07 117.21 75.37 112.29 80.16 C 112.96 77.67 113.08 75.09 112.86 72.53 C 115.34 70.06 118.37 68.04 120.26 65.05 C 120.33 64.96 120.45 64.79 120.51 64.70 C 124.52 61.02 128.19 56.95 131.65 52.75 C 131.65 52.54 131.64 52.13 131.64 51.92 L 132.28 52.52 L 133.21 53.04 Z" />
</g>
<g id="#c2a1c8ff">
<path fill="#c2a1c8" opacity="1.00" d=" M 97.06 54.84 C 98.94 54.33 99.50 52.31 100.37 50.83 C 99.70 56.92 98.02 62.86 97.54 68.98 C 97.29 72.49 95.47 75.58 93.68 78.51 C 92.38 78.63 91.09 78.76 89.79 78.87 C 89.86 78.16 89.99 76.75 90.06 76.04 C 90.12 75.80 90.24 75.34 90.31 75.11 C 92.83 68.46 94.63 61.54 97.06 54.84 Z" />
<path fill="#c2a1c8" opacity="1.00" d=" M 82.33 81.02 C 84.09 75.16 81.56 68.32 84.28 62.50 C 84.62 64.24 84.94 65.99 85.29 67.73 C 83.98 72.42 84.95 77.27 84.95 82.05 C 85.56 88.36 84.83 94.68 85.14 100.98 C 86.71 99.63 88.14 98.09 89.85 96.91 C 92.72 96.24 95.69 95.85 98.39 94.58 C 95.86 97.33 93.93 100.63 90.96 102.96 C 89.56 104.29 87.50 105.73 88.00 107.96 C 88.65 113.35 91.34 118.87 89.07 124.25 C 88.22 125.71 87.18 127.06 86.04 128.31 C 85.97 129.03 85.82 130.46 85.75 131.18 C 86.85 129.81 87.95 128.21 89.96 128.61 C 90.01 127.90 90.10 126.48 90.15 125.77 L 90.56 126.33 C 90.84 126.69 91.41 127.43 91.69 127.80 C 92.49 123.99 93.15 120.06 92.48 116.17 C 92.13 112.79 91.20 108.52 94.25 106.07 C 94.48 113.37 94.43 120.67 94.47 127.98 C 94.54 131.14 93.10 134.04 92.17 136.99 C 91.35 138.40 90.30 139.67 89.20 140.87 C 84.47 142.19 82.71 147.62 78.15 149.20 C 80.80 146.24 79.48 142.37 78.55 138.99 C 77.90 140.37 77.55 141.85 77.21 143.33 C 76.96 143.35 76.47 143.41 76.23 143.44 C 75.42 145.65 74.76 147.92 74.15 150.19 C 73.40 152.39 75.64 154.03 76.49 155.82 C 75.37 161.29 73.05 166.40 71.48 171.74 C 70.54 173.10 69.57 174.45 68.67 175.86 C 67.16 179.06 63.18 178.63 60.29 179.44 L 60.22 178.96 C 60.18 178.61 60.08 177.90 60.03 177.55 C 60.82 176.49 62.43 175.58 62.07 174.03 C 61.00 172.18 59.50 170.64 58.09 169.06 L 57.89 169.67 C 57.59 170.51 57.00 172.19 56.70 173.03 C 55.15 170.94 53.08 168.81 53.39 165.99 C 53.58 161.30 52.73 156.69 52.42 152.03 C 55.44 151.15 58.51 150.08 61.69 150.14 C 62.34 151.00 63.10 151.76 63.95 152.43 C 66.56 150.11 68.43 145.87 66.36 142.63 C 65.05 141.45 63.44 142.53 62.10 143.02 C 58.61 144.60 55.36 146.66 51.76 148.02 C 49.64 147.80 47.54 147.42 45.46 146.98 C 49.49 143.19 53.77 139.64 57.25 135.29 C 61.20 135.80 64.89 132.53 66.52 129.14 C 66.94 129.45 67.78 130.08 68.20 130.39 C 69.60 128.94 69.70 127.00 69.34 125.13 C 69.66 125.26 70.29 125.52 70.61 125.65 C 72.12 122.70 73.58 119.72 75.30 116.88 C 77.65 119.74 79.81 122.87 82.88 125.02 C 84.76 120.58 83.14 115.40 82.08 110.90 C 79.26 109.05 77.26 113.09 75.09 114.33 C 74.92 112.95 74.70 111.59 74.49 110.23 C 69.93 113.89 66.50 118.79 63.76 123.91 C 63.12 124.76 62.43 125.58 61.79 126.43 C 61.30 127.44 60.84 128.47 60.39 129.51 C 56.76 133.69 53.56 138.37 49.19 141.85 C 48.76 137.17 45.57 132.22 49.11 127.93 C 49.29 127.74 49.65 127.36 49.83 127.17 C 57.81 119.37 62.85 109.22 70.34 101.03 C 71.25 99.80 72.37 98.75 73.48 97.70 C 75.39 95.89 77.02 93.81 78.72 91.81 L 80.14 92.86 C 79.25 94.08 79.44 95.69 79.23 97.11 C 81.92 90.12 80.03 82.56 80.81 75.29 L 81.60 74.70 C 81.92 76.80 82.12 78.91 82.33 81.02 Z" />
</g>
<g id="#272128c3">
<path fill="#272128" opacity="0.76" d=" M 120.81 63.25 C 124.16 59.86 127.38 56.36 130.40 52.68 L 131.65 52.75 C 128.19 56.95 124.52 61.02 120.51 64.70 L 120.81 63.25 Z" />
</g>
<g id="#241e25a7">
<path fill="#241e25" opacity="0.65" d=" M 102.70 65.31 C 102.74 61.38 102.64 57.41 103.42 53.54 C 103.44 58.20 102.70 62.98 104.18 67.51 C 107.70 64.28 110.42 59.78 114.57 57.49 C 111.77 61.68 107.76 64.91 104.47 68.70 C 104.11 69.03 103.39 69.69 103.03 70.02 C 102.94 68.45 102.82 66.88 102.70 65.31 Z" />
</g>
<g id="#2d252eaf">
<path fill="#2d252e" opacity="0.69" d=" M 156.91 57.13 C 157.26 55.38 159.64 55.19 161.01 54.46 C 163.37 53.88 162.96 58.45 160.94 57.95 C 161.22 57.21 161.78 55.74 162.06 55.00 C 160.35 55.74 158.66 56.50 156.91 57.13 Z" />
</g>
<g id="#4a3d4cf1">
<path fill="#4a3d4c" opacity="0.95" d=" M 114.81 57.13 C 114.98 55.67 116.07 55.58 117.21 55.70 C 119.35 59.56 114.63 64.54 116.95 67.90 C 118.01 66.93 118.58 65.07 120.26 65.05 C 118.37 68.04 115.34 70.06 112.86 72.53 C 108.25 75.58 108.79 81.81 105.84 86.07 C 102.39 91.42 99.11 97.00 94.42 101.40 C 92.95 102.89 91.14 104.10 90.08 105.95 C 89.34 107.83 89.63 109.93 89.91 111.87 C 90.96 116.60 91.07 121.52 90.56 126.33 L 90.15 125.77 C 89.88 125.39 89.34 124.63 89.07 124.25 C 91.34 118.87 88.65 113.35 88.00 107.96 C 87.50 105.73 89.56 104.29 90.96 102.96 C 93.93 100.63 95.86 97.33 98.39 94.58 C 102.02 89.87 105.42 84.79 106.95 78.97 C 107.99 74.83 111.42 72.06 114.38 69.25 L 114.81 68.66 C 115.15 64.74 115.95 60.88 117.08 57.11 C 116.51 57.11 115.38 57.12 114.81 57.13 Z" />
</g>
<g id="#4c3d4dfb">
<path fill="#4c3d4d" opacity="1.00" d=" M 149.10 56.36 C 150.78 56.40 152.83 56.32 153.00 58.54 C 153.53 58.40 154.58 58.11 155.11 57.97 C 154.10 58.85 153.32 59.95 152.70 61.13 C 149.74 65.34 145.33 68.51 143.42 73.42 C 142.12 76.55 140.23 79.59 139.94 83.03 C 140.35 83.18 141.15 83.46 141.56 83.60 C 137.94 85.39 139.27 89.68 138.95 92.93 C 138.65 97.23 138.32 101.54 138.02 105.84 C 136.20 107.88 133.63 108.92 131.29 110.19 C 126.09 112.86 120.95 115.76 116.46 119.53 C 113.35 122.11 110.85 125.29 108.20 128.30 L 107.77 127.25 C 108.99 125.30 110.62 123.65 111.93 121.76 L 112.36 121.21 C 112.49 120.88 112.75 120.22 112.89 119.89 L 113.51 120.23 L 114.02 119.79 C 120.35 114.19 127.94 110.38 135.29 106.35 C 136.94 105.65 136.71 103.53 136.83 102.08 C 136.78 97.14 137.28 92.23 137.51 87.30 C 138.17 81.06 140.42 75.04 143.78 69.76 C 145.85 66.43 149.06 64.04 151.26 60.82 C 151.55 59.90 151.83 58.97 152.11 58.04 C 151.63 57.77 150.68 57.25 150.20 56.98 C 149.92 56.83 149.37 56.51 149.10 56.36 Z" />
</g>
<g id="#bd99c0ff">
<path fill="#bd99c0" opacity="1.00" d=" M 156.91 57.13 C 158.66 56.50 160.35 55.74 162.06 55.00 C 161.78 55.74 161.22 57.21 160.94 57.95 C 160.85 58.07 160.66 58.30 160.56 58.42 C 159.58 59.44 158.71 60.57 158.01 61.80 C 156.46 60.69 154.77 61.33 153.14 61.80 L 152.70 61.13 C 153.32 59.95 154.10 58.85 155.11 57.97 C 155.56 57.76 156.46 57.34 156.91 57.13 Z" />
</g>
<g id="#bf9ec4ff">
<path fill="#bf9ec4" opacity="1.00" d=" M 114.81 57.13 C 115.38 57.12 116.51 57.11 117.08 57.11 C 115.95 60.88 115.15 64.74 114.81 68.66 L 114.38 69.25 C 114.46 67.03 114.41 64.79 114.11 62.58 C 110.12 64.83 110.28 71.86 104.98 72.13 C 104.85 71.27 104.60 69.56 104.47 68.70 C 107.76 64.91 111.77 61.68 114.57 57.49 C 114.63 57.40 114.75 57.22 114.81 57.13 Z" />
</g>
<g id="#c19bc7ff">
<path fill="#c19bc7" opacity="1.00" d=" M 150.20 56.98 C 150.68 57.25 151.63 57.77 152.11 58.04 C 151.83 58.97 151.55 59.90 151.26 60.82 C 148.23 59.84 145.32 62.20 142.33 61.08 C 144.53 59.96 146.92 59.14 148.85 57.55 C 149.19 57.41 149.86 57.12 150.20 56.98 Z" />
</g>
<g id="#917191ff">
<path fill="#917191" opacity="1.00" d=" M 52.56 57.44 C 53.79 60.87 54.60 64.76 57.16 67.48 L 57.45 67.77 C 57.52 68.13 57.66 68.86 57.73 69.22 C 58.38 71.08 59.53 72.69 60.65 74.30 C 59.13 79.04 57.96 84.16 58.88 89.14 C 61.87 89.77 63.75 86.71 66.32 85.73 C 64.91 92.38 63.17 99.21 64.43 106.04 C 60.12 111.90 56.54 118.57 51.40 123.66 C 51.12 123.14 50.55 122.09 50.27 121.57 L 50.23 121.50 C 49.32 118.96 48.19 116.38 46.00 114.69 C 45.84 114.45 45.51 113.98 45.35 113.74 C 45.03 112.58 44.28 111.90 43.12 111.69 C 42.85 111.54 42.30 111.24 42.02 111.09 C 41.20 110.01 40.14 109.07 38.80 108.74 C 38.34 108.34 37.41 107.53 36.95 107.13 C 38.36 104.12 42.44 103.97 44.28 101.29 C 48.07 95.79 47.66 88.82 49.24 82.58 C 50.42 77.82 50.78 72.91 50.66 68.02 C 50.85 64.44 49.98 60.38 52.56 57.44 Z" />
</g>
<g id="#463947d9">
<path fill="#463947" opacity="0.85" d=" M 80.75 62.94 C 81.04 61.31 82.27 58.48 84.39 59.37 C 86.10 64.87 86.66 70.72 88.37 76.25 C 88.79 76.20 89.63 76.09 90.06 76.04 C 89.99 76.75 89.86 78.16 89.79 78.87 C 90.48 80.65 91.18 82.43 91.72 84.27 C 91.38 84.12 90.71 83.81 90.37 83.66 C 87.50 78.82 87.17 72.97 85.29 67.73 C 84.94 65.99 84.62 64.24 84.28 62.50 C 84.09 61.57 83.81 60.67 83.45 59.81 C 82.44 60.67 81.92 61.75 81.88 63.05 C 81.57 66.92 81.48 70.82 81.60 74.70 L 80.81 75.29 C 80.41 71.19 80.67 67.05 80.75 62.94 Z" />
</g>
<g id="#211b22bf">
<path fill="#211b22" opacity="0.75" d=" M 158.01 61.80 C 158.71 60.57 159.58 59.44 160.56 58.42 C 159.83 62.70 155.83 65.89 154.38 70.10 C 154.26 69.85 154.02 69.34 153.90 69.09 C 154.75 66.40 156.74 64.28 158.01 61.80 Z" />
</g>
<g id="#d8b5ddff">
<path fill="#d8b5dd" opacity="1.00" d=" M 83.45 59.81 C 83.81 60.67 84.09 61.57 84.28 62.50 C 81.56 68.32 84.09 75.16 82.33 81.02 C 82.12 78.91 81.92 76.80 81.60 74.70 C 81.48 70.82 81.57 66.92 81.88 63.05 C 81.92 61.75 82.44 60.67 83.45 59.81 Z" />
</g>
<g id="#a47ea8ff">
<path fill="#a47ea8" opacity="1.00" d=" M 142.33 61.08 C 145.32 62.20 148.23 59.84 151.26 60.82 C 149.06 64.04 145.85 66.43 143.78 69.76 C 140.42 75.04 138.17 81.06 137.51 87.30 C 136.87 85.79 136.18 84.30 135.59 82.77 C 134.99 79.82 134.50 76.86 133.79 73.94 C 133.96 73.48 134.30 72.57 134.47 72.11 C 125.36 70.91 117.63 77.64 112.03 84.04 C 111.74 83.52 111.15 82.47 110.85 81.95 C 111.21 81.50 111.93 80.61 112.29 80.16 C 117.21 75.37 122.66 71.07 128.70 67.76 C 132.87 65.88 137.28 64.55 141.73 63.52 C 141.39 63.15 140.71 62.41 140.37 62.04 C 140.86 61.80 141.84 61.32 142.33 61.08 Z" />
<path fill="#a47ea8" opacity="1.00" d=" M 94.25 106.07 C 95.72 104.50 97.10 102.71 99.25 102.06 C 96.54 106.89 96.42 112.65 96.12 118.04 C 96.53 121.27 95.41 124.85 97.13 127.79 C 97.86 128.94 98.68 130.02 99.57 131.05 C 100.48 128.01 101.30 124.95 102.41 121.98 C 102.81 120.68 103.69 119.74 104.83 119.06 C 104.62 120.16 104.28 121.25 104.23 122.38 C 105.95 123.62 104.90 125.71 104.92 127.42 C 107.38 125.80 108.67 122.96 111.16 121.37 L 111.93 121.76 C 110.62 123.65 108.99 125.30 107.77 127.25 L 108.20 128.30 C 109.48 131.10 110.18 134.11 111.18 137.01 C 111.91 141.21 112.13 145.69 111.01 149.85 C 105.35 151.29 99.07 152.40 94.85 156.81 C 91.83 160.05 89.61 163.95 87.51 167.83 C 86.38 167.41 85.04 165.72 83.82 166.83 C 81.32 168.85 78.94 171.29 78.03 174.47 C 77.04 175.16 76.15 175.96 75.31 176.82 C 74.64 177.49 73.99 178.20 73.16 178.69 C 71.25 179.78 69.74 181.39 68.16 182.89 C 65.54 182.47 62.88 181.88 60.76 180.19 L 60.29 179.44 C 63.18 178.63 67.16 179.06 68.67 175.86 C 68.68 176.51 68.69 177.81 68.70 178.47 C 71.06 177.40 70.64 173.95 71.48 171.74 C 73.05 166.40 75.37 161.29 76.49 155.82 L 77.10 154.92 C 76.69 153.29 76.16 151.69 75.71 150.07 C 76.32 149.86 77.54 149.42 78.15 149.20 C 82.71 147.62 84.47 142.19 89.20 140.87 C 85.99 145.48 82.19 149.74 79.90 154.93 L 81.81 154.44 C 81.50 156.45 81.06 158.49 81.39 160.54 C 85.04 161.79 87.92 158.60 90.62 156.69 C 92.94 155.17 94.27 152.70 94.73 150.01 C 94.13 149.31 93.53 148.61 92.93 147.91 C 93.54 146.89 93.65 145.73 93.54 144.58 C 93.75 142.68 93.15 140.89 92.45 139.16 C 93.04 138.13 93.64 137.10 94.24 136.07 C 93.72 136.30 92.68 136.76 92.17 136.99 C 93.10 134.04 94.54 131.14 94.47 127.98 C 94.43 120.67 94.48 113.37 94.25 106.07 Z" />
</g>
<g id="#907091ff">
<path fill="#907091" opacity="1.00" d=" M 143.42 73.42 C 145.33 68.51 149.74 65.34 152.70 61.13 L 153.14 61.80 C 154.77 61.33 156.46 60.69 158.01 61.80 C 156.74 64.28 154.75 66.40 153.90 69.09 C 152.54 72.49 150.59 75.66 148.97 78.94 C 148.26 79.92 147.57 80.93 146.91 81.95 C 149.31 83.87 152.29 85.65 152.95 88.91 C 153.90 91.16 154.07 94.35 156.65 95.38 C 158.48 96.30 159.77 98.02 161.58 99.01 C 161.97 99.34 162.76 100.00 163.16 100.32 C 162.50 104.37 167.14 106.22 167.15 110.03 C 167.24 110.79 167.41 112.30 167.50 113.05 C 167.71 111.01 167.91 108.97 168.18 106.93 L 169.12 105.87 L 168.89 107.34 C 168.43 108.64 168.99 110.44 170.59 110.45 C 171.32 111.41 172.84 112.42 172.65 113.73 C 172.38 114.95 171.86 116.25 172.51 117.46 C 173.76 120.68 175.00 123.99 177.04 126.81 C 177.45 126.66 178.27 126.37 178.68 126.23 C 179.06 127.20 179.40 128.18 179.69 129.18 C 179.09 130.94 176.67 130.92 175.83 132.50 C 175.35 133.61 174.95 134.76 174.63 135.93 C 173.34 136.37 172.03 136.73 170.70 137.01 C 169.47 135.11 168.15 132.25 165.44 132.56 C 164.24 133.36 163.19 134.36 162.06 135.26 C 161.59 135.21 160.63 135.12 160.15 135.08 C 159.88 134.78 159.34 134.20 159.06 133.90 C 158.69 130.83 163.33 130.18 163.09 127.06 C 160.94 128.89 158.74 130.68 156.76 132.70 C 156.02 133.45 155.17 134.04 154.20 134.47 C 154.21 130.56 155.98 126.95 156.21 123.06 C 156.51 120.72 156.57 118.25 157.82 116.17 C 159.11 116.90 160.26 118.36 161.89 118.09 C 162.61 114.29 162.19 110.13 159.81 106.97 C 158.48 108.14 157.18 109.36 155.92 110.60 C 153.82 106.67 152.21 102.30 148.80 99.28 C 145.97 96.52 142.41 94.74 138.95 92.93 C 139.27 89.68 137.94 85.39 141.56 83.60 C 141.15 83.46 140.35 83.18 139.94 83.03 C 140.23 79.59 142.12 76.55 143.42 73.42 Z" />
<path fill="#907091" opacity="1.00" d=" M 108.20 128.30 C 110.85 125.29 113.35 122.11 116.46 119.53 C 117.74 120.23 120.00 120.00 120.28 121.85 C 121.37 125.09 120.69 128.53 120.36 131.84 C 123.08 132.14 125.57 130.91 127.96 129.77 C 130.32 131.24 132.61 132.81 134.99 134.25 C 135.67 133.41 136.34 132.56 137.01 131.71 C 138.90 131.43 140.70 132.03 142.46 132.65 C 142.94 131.86 143.42 131.08 143.90 130.29 C 143.83 132.20 143.92 134.11 144.08 136.01 C 144.85 136.25 145.62 136.46 146.40 136.66 C 147.03 134.51 147.50 132.30 147.43 130.05 C 149.62 128.20 151.95 126.53 154.37 125.00 C 154.08 128.28 152.86 131.33 151.99 134.47 L 152.42 135.46 L 151.84 135.63 C 149.95 136.38 149.52 138.94 148.80 140.67 C 148.71 141.00 148.53 141.65 148.44 141.97 C 147.82 142.44 146.58 143.37 145.96 143.84 C 143.70 141.54 141.98 137.10 138.19 137.49 C 132.07 139.65 127.22 144.24 122.78 148.80 C 119.32 152.65 115.40 156.68 114.63 162.03 C 110.93 161.88 107.27 161.22 103.77 160.02 C 105.48 158.41 107.21 156.76 108.26 154.62 C 105.14 155.45 103.74 159.00 100.52 159.59 C 100.73 157.75 100.97 155.91 101.22 154.08 C 104.81 151.59 110.50 153.11 112.92 148.99 C 113.54 144.94 112.98 140.81 112.20 136.83 C 111.91 136.55 111.33 135.99 111.04 135.72 L 111.18 137.01 C 110.18 134.11 109.48 131.10 108.20 128.30 Z" />
<path fill="#907091" opacity="1.00" d=" M 116.02 160.75 C 118.72 154.32 124.03 149.33 129.21 144.83 C 129.29 145.33 129.46 146.31 129.55 146.80 C 126.36 151.52 122.94 156.12 120.84 161.47 C 119.21 161.40 117.61 161.09 116.02 160.75 Z" />
</g>
<g id="#312831d2">
<path fill="#312831" opacity="0.82" d=" M 57.73 69.22 L 58.49 69.25 C 60.72 72.68 63.20 75.96 66.20 78.77 C 67.22 79.90 68.83 81.32 68.01 83.04 C 66.19 90.01 64.58 97.13 65.12 104.39 L 65.98 105.07 C 67.41 103.77 68.21 101.29 70.34 101.03 C 62.85 109.22 57.81 119.37 49.83 127.17 C 50.52 125.36 50.41 123.45 50.27 121.57 C 50.55 122.09 51.12 123.14 51.40 123.66 C 56.54 118.57 60.12 111.90 64.43 106.04 C 63.17 99.21 64.91 92.38 66.32 85.73 C 66.64 84.23 67.23 82.71 66.97 81.15 C 64.93 78.80 62.55 76.77 60.65 74.30 C 59.53 72.69 58.38 71.08 57.73 69.22 Z" />
</g>
<g id="#775e7aff">
<path fill="#775e7a" opacity="1.00" d=" M 103.03 70.02 C 103.39 69.69 104.11 69.03 104.47 68.70 C 104.60 69.56 104.85 71.27 104.98 72.13 C 103.62 72.24 102.97 71.54 103.03 70.02 Z" />
</g>
<g id="#3e3f47ff">
<path fill="#3e3f47" opacity="1.00" d=" M 112.03 84.04 C 117.63 77.64 125.36 70.91 134.47 72.11 C 134.30 72.57 133.96 73.48 133.79 73.94 C 134.50 76.86 134.99 79.82 135.59 82.77 C 136.90 89.46 136.21 96.37 135.06 103.03 C 134.69 105.41 132.20 106.46 130.38 107.60 C 124.56 110.65 118.77 113.98 113.94 118.47 L 114.02 119.79 L 113.47 119.32 L 112.89 119.89 C 112.75 120.22 112.49 120.88 112.36 121.21 C 112.06 121.25 111.46 121.33 111.16 121.37 C 108.67 122.96 107.38 125.80 104.92 127.42 C 104.90 125.71 105.95 123.62 104.23 122.38 C 104.28 121.25 104.62 120.16 104.83 119.06 C 103.69 119.74 102.81 120.68 102.41 121.98 C 101.75 121.42 101.08 120.86 100.42 120.30 C 98.99 122.64 97.81 125.12 97.13 127.79 C 95.41 124.85 96.53 121.27 96.12 118.04 C 96.42 112.65 96.54 106.89 99.25 102.06 C 103.23 95.86 107.23 89.63 112.03 84.04 M 128.10 73.98 C 121.82 76.48 116.19 80.66 112.22 86.15 C 107.89 91.92 103.62 97.78 100.02 104.05 C 97.40 109.42 98.03 115.60 97.87 121.39 C 99.57 120.65 100.19 118.57 101.40 117.25 C 101.88 117.48 102.85 117.95 103.33 118.18 C 104.27 117.56 105.24 116.98 106.24 116.45 C 106.14 118.63 106.53 120.77 107.49 122.74 C 109.32 121.13 111.04 119.40 112.82 117.74 L 112.90 117.21 C 117.42 113.92 121.91 110.52 126.97 108.08 C 129.28 106.80 131.90 105.72 133.54 103.56 C 134.22 100.76 133.96 97.82 134.36 94.98 C 134.45 93.22 135.13 91.35 134.24 89.70 C 133.99 84.56 133.91 79.37 132.48 74.39 C 131.56 72.70 129.48 73.48 128.10 73.98 Z" />
</g>
<g id="#d1bad6ff">
<path fill="#d1bad6" opacity="1.00" d=" M 105.84 86.07 C 108.79 81.81 108.25 75.58 112.86 72.53 C 113.08 75.09 112.96 77.67 112.29 80.16 C 111.93 80.61 111.21 81.50 110.85 81.95 C 109.31 83.90 107.91 86.01 105.88 87.52 L 105.84 86.07 Z" />
</g>
<g id="#5c7776ff">
<path fill="#5c7776" opacity="1.00" d=" M 128.10 73.98 C 129.48 73.48 131.56 72.70 132.48 74.39 C 133.91 79.37 133.99 84.56 134.24 89.70 C 131.04 92.43 127.27 94.34 123.94 96.88 C 120.29 99.52 117.25 102.88 113.77 105.71 C 112.59 106.85 110.91 107.98 110.95 109.81 C 112.10 110.03 113.26 110.25 114.42 110.48 C 113.73 112.68 113.17 114.92 112.90 117.21 L 112.82 117.74 C 111.04 119.40 109.32 121.13 107.49 122.74 C 106.53 120.77 106.14 118.63 106.24 116.45 C 105.24 116.98 104.27 117.56 103.33 118.18 C 102.85 117.95 101.88 117.48 101.40 117.25 C 100.19 118.57 99.57 120.65 97.87 121.39 C 98.03 115.60 97.40 109.42 100.02 104.05 C 103.62 97.78 107.89 91.92 112.22 86.15 C 116.19 80.66 121.82 76.48 128.10 73.98 Z" />
</g>
<g id="#a98dabff">
<path fill="#a98dab" opacity="1.00" d=" M 58.88 89.14 C 57.96 84.16 59.13 79.04 60.65 74.30 C 62.55 76.77 64.93 78.80 66.97 81.15 C 67.23 82.71 66.64 84.23 66.32 85.73 C 63.75 86.71 61.87 89.77 58.88 89.14 Z" />
</g>
<g id="#7f667bff">
<path fill="#7f667b" opacity="1.00" d=" M 146.91 81.95 C 147.57 80.93 148.26 79.92 148.97 78.94 L 148.39 80.48 C 151.83 80.69 155.62 79.89 158.78 81.50 C 159.01 83.28 157.31 84.40 156.86 85.99 C 155.90 89.04 156.53 92.26 156.65 95.38 C 154.07 94.35 153.90 91.16 152.95 88.91 C 152.29 85.65 149.31 83.87 146.91 81.95 Z" />
</g>
<g id="#bf9dc4ff">
<path fill="#bf9dc4" opacity="1.00" d=" M 105.88 87.52 C 107.91 86.01 109.31 83.90 110.85 81.95 C 111.15 82.47 111.74 83.52 112.03 84.04 C 107.23 89.63 103.23 95.86 99.25 102.06 C 97.10 102.71 95.72 104.50 94.25 106.07 C 91.20 108.52 92.13 112.79 92.48 116.17 C 93.15 120.06 92.49 123.99 91.69 127.80 C 91.41 127.43 90.84 126.69 90.56 126.33 C 91.07 121.52 90.96 116.60 89.91 111.87 C 90.82 110.11 92.20 107.41 90.08 105.95 C 91.14 104.10 92.95 102.89 94.42 101.40 C 99.11 97.00 102.39 91.42 105.84 86.07 L 105.88 87.52 Z" />
</g>
<g id="#d5bbd9ff">
<path fill="#d5bbd9" opacity="1.00" d=" M 135.59 82.77 C 136.18 84.30 136.87 85.79 137.51 87.30 C 137.28 92.23 136.78 97.14 136.83 102.08 C 136.71 103.53 136.94 105.65 135.29 106.35 C 127.94 110.38 120.35 114.19 114.02 119.79 L 113.94 118.47 C 118.77 113.98 124.56 110.65 130.38 107.60 C 132.20 106.46 134.69 105.41 135.06 103.03 C 136.21 96.37 136.90 89.46 135.59 82.77 Z" />
<path fill="#d5bbd9" opacity="1.00" d=" M 63.76 123.91 C 66.50 118.79 69.93 113.89 74.49 110.23 C 74.70 111.59 74.92 112.95 75.09 114.33 C 75.15 114.97 75.25 116.24 75.30 116.88 C 73.58 119.72 72.12 122.70 70.61 125.65 C 70.29 125.52 69.66 125.26 69.34 125.13 C 69.17 124.62 68.84 123.59 68.68 123.08 C 67.04 123.36 65.40 123.64 63.76 123.91 Z" />
</g>
<g id="#17141891">
<path fill="#171418" opacity="0.57" d=" M 79.68 88.95 C 79.52 87.29 79.39 85.63 79.34 83.98 C 80.42 86.81 80.09 89.89 80.14 92.86 L 78.72 91.81 C 77.02 93.81 75.39 95.89 73.48 97.70 C 74.09 94.08 78.17 92.28 79.68 88.95 Z" />
</g>
<g id="#6b9e9dff">
<path fill="#6b9e9d" opacity="1.00" d=" M 123.94 96.88 C 127.27 94.34 131.04 92.43 134.24 89.70 C 135.13 91.35 134.45 93.22 134.36 94.98 C 133.96 97.82 134.22 100.76 133.54 103.56 C 131.90 105.72 129.28 106.80 126.97 108.08 C 121.91 110.52 117.42 113.92 112.90 117.21 C 113.17 114.92 113.73 112.68 114.42 110.48 C 113.26 110.25 112.10 110.03 110.95 109.81 C 110.91 107.98 112.59 106.85 113.77 105.71 C 117.25 102.88 120.29 99.52 123.94 96.88 Z" />
</g>
<g id="#a181a3ff">
<path fill="#a181a3" opacity="1.00" d=" M 138.95 92.93 C 142.41 94.74 145.97 96.52 148.80 99.28 C 152.21 102.30 153.82 106.67 155.92 110.60 C 156.58 112.91 156.13 115.19 155.22 117.35 C 154.88 119.89 154.74 122.46 154.37 125.00 C 151.95 126.53 149.62 128.20 147.43 130.05 C 146.55 130.11 144.78 130.23 143.90 130.29 C 143.42 131.08 142.94 131.86 142.46 132.65 C 140.70 132.03 138.90 131.43 137.01 131.71 C 136.49 128.59 136.50 125.35 135.55 122.32 C 134.44 120.95 132.85 120.12 131.35 119.27 C 130.02 120.59 128.36 121.69 127.51 123.40 C 127.31 125.53 127.73 127.66 127.96 129.77 C 125.57 130.91 123.08 132.14 120.36 131.84 C 120.69 128.53 121.37 125.09 120.28 121.85 C 120.00 120.00 117.74 120.23 116.46 119.53 C 120.95 115.76 126.09 112.86 131.29 110.19 C 133.63 108.92 136.20 107.88 138.02 105.84 C 138.32 101.54 138.65 97.23 138.95 92.93 M 144.11 103.02 C 141.56 106.07 143.88 109.78 144.71 113.02 C 146.08 116.45 144.82 121.53 149.28 122.86 C 150.35 122.24 151.30 121.23 151.40 119.93 C 152.11 114.52 149.80 109.31 147.37 104.62 C 146.83 103.32 145.24 103.36 144.11 103.02 Z" />
</g>
<g id="#1c171dbc">
<path fill="#1c171d" opacity="0.74" d=" M 161.58 99.01 C 165.22 99.49 168.79 101.95 169.12 105.87 L 168.18 106.93 C 168.16 103.87 165.99 101.27 163.16 100.32 C 162.76 100.00 161.97 99.34 161.58 99.01 Z" />
</g>
<g id="#a280a5ff">
<path fill="#a280a5" opacity="1.00" d=" M 163.16 100.32 C 165.99 101.27 168.16 103.87 168.18 106.93 C 167.91 108.97 167.71 111.01 167.50 113.05 C 167.41 112.30 167.24 110.79 167.15 110.03 C 167.14 106.22 162.50 104.37 163.16 100.32 Z" />
</g>
<g id="#745876ff">
<path fill="#745876" opacity="1.00" d=" M 144.11 103.02 C 145.24 103.36 146.83 103.32 147.37 104.62 C 149.80 109.31 152.11 114.52 151.40 119.93 C 151.30 121.23 150.35 122.24 149.28 122.86 C 144.82 121.53 146.08 116.45 144.71 113.02 C 143.88 109.78 141.56 106.07 144.11 103.02 Z" />
</g>
<g id="#e9cdeeff">
<path fill="#e9cdee" opacity="1.00" d=" M 90.08 105.95 C 92.20 107.41 90.82 110.11 89.91 111.87 C 89.63 109.93 89.34 107.83 90.08 105.95 Z" />
</g>
<g id="#684d6aff">
<path fill="#684d6a" opacity="1.00" d=" M 155.92 110.60 C 157.18 109.36 158.48 108.14 159.81 106.97 C 162.19 110.13 162.61 114.29 161.89 118.09 C 160.26 118.36 159.11 116.90 157.82 116.17 C 156.57 118.25 156.51 120.72 156.21 123.06 C 156.48 121.08 156.10 119.13 155.22 117.35 C 156.13 115.19 156.58 112.91 155.92 110.60 Z" />
</g>
<g id="#0b0a0bc5">
<path fill="#0b0a0b" opacity="0.77" d=" M 168.89 107.34 C 170.11 107.12 170.90 109.43 170.59 110.45 C 168.99 110.44 168.43 108.64 168.89 107.34 Z" />
</g>
<g id="#110e11a6">
<path fill="#110e11" opacity="0.65" d=" M 38.80 108.74 C 40.14 109.07 41.20 110.01 42.02 111.09 C 40.78 111.92 38.26 110.18 38.80 108.74 Z" />
</g>
<g id="#8a6b8fff">
<path fill="#8a6b8f" opacity="1.00" d=" M 75.09 114.33 C 77.26 113.09 79.26 109.05 82.08 110.90 C 83.14 115.40 84.76 120.58 82.88 125.02 C 79.81 122.87 77.65 119.74 75.30 116.88 C 75.25 116.24 75.15 114.97 75.09 114.33 Z" />
</g>
<g id="#1f191fbf">
<path fill="#1f191f" opacity="0.75" d=" M 43.12 111.69 C 44.28 111.90 45.03 112.58 45.35 113.74 C 43.71 113.95 42.97 113.26 43.12 111.69 Z" />
</g>
<g id="#98799cfe">
<path fill="#98799c" opacity="1.00" d=" M 172.65 113.73 C 174.28 115.11 175.21 117.19 175.81 119.20 C 176.38 121.69 177.72 123.89 178.68 126.23 C 178.27 126.37 177.45 126.66 177.04 126.81 C 175.00 123.99 173.76 120.68 172.51 117.46 C 171.86 116.25 172.38 114.95 172.65 113.73 Z" />
</g>
<g id="#1d171d9e">
<path fill="#1d171d" opacity="0.62" d=" M 46.00 114.69 C 48.19 116.38 49.32 118.96 50.23 121.50 C 48.09 119.95 47.32 116.96 46.00 114.69 Z" />
</g>
<g id="#423542ff">
<path fill="#423542" opacity="1.00" d=" M 155.22 117.35 C 156.10 119.13 156.48 121.08 156.21 123.06 C 155.98 126.95 154.21 130.56 154.20 134.47 L 152.78 135.09 L 151.99 134.47 C 152.86 131.33 154.08 128.28 154.37 125.00 C 154.74 122.46 154.88 119.89 155.22 117.35 Z" />
</g>
<g id="#eebff1ff">
<path fill="#eebff1" opacity="1.00" d=" M 113.47 119.32 L 114.02 119.79 L 113.51 120.23 L 112.89 119.89 L 113.47 119.32 Z" />
</g>
<g id="#725775ff">
<path fill="#725775" opacity="1.00" d=" M 131.35 119.27 C 132.85 120.12 134.44 120.95 135.55 122.32 C 136.50 125.35 136.49 128.59 137.01 131.71 C 136.34 132.56 135.67 133.41 134.99 134.25 C 132.61 132.81 130.32 131.24 127.96 129.77 C 127.73 127.66 127.31 125.53 127.51 123.40 C 128.36 121.69 130.02 120.59 131.35 119.27 Z" />
</g>
<g id="#38323ac6">
<path fill="#38323a" opacity="0.78" d=" M 175.81 119.20 L 176.55 119.34 C 179.70 124.76 180.05 131.54 184.85 135.94 C 184.39 138.39 180.36 137.08 178.41 137.28 C 175.62 136.02 172.83 137.75 169.95 137.59 C 167.50 137.35 166.55 140.61 164.05 140.41 C 165.88 139.06 167.62 137.57 169.27 135.99 C 167.96 134.91 166.60 133.85 164.92 133.46 C 162.96 134.93 163.14 137.42 163.32 139.59 L 162.70 139.98 C 162.66 139.24 162.57 137.75 162.53 137.01 C 161.65 136.46 160.86 135.82 160.15 135.08 C 160.63 135.12 161.59 135.21 162.06 135.26 C 163.19 134.36 164.24 133.36 165.44 132.56 C 168.15 132.25 169.47 135.11 170.70 137.01 C 172.03 136.73 173.34 136.37 174.63 135.93 C 174.95 134.76 175.35 133.61 175.83 132.50 C 176.67 130.92 179.09 130.94 179.69 129.18 C 179.40 128.18 179.06 127.20 178.68 126.23 C 177.72 123.89 176.38 121.69 175.81 119.20 M 175.54 134.96 C 176.77 136.40 178.94 136.19 180.65 136.45 C 181.24 136.43 182.42 136.37 183.01 136.34 C 182.79 135.80 182.34 134.70 182.11 134.15 C 181.35 132.78 180.38 131.49 179.01 130.69 C 177.33 131.64 176.17 133.14 175.54 134.96 Z" />
</g>
<g id="#e4b2e8ff">
<path fill="#e4b2e8" opacity="1.00" d=" M 112.36 121.21 C 112.49 120.88 112.75 120.22 112.89 119.89 C 112.75 120.22 112.49 120.88 112.36 121.21 Z" />
</g>
<g id="#c49fc9ff">
<path fill="#c49fc9" opacity="1.00" d=" M 100.42 120.30 C 101.08 120.86 101.75 121.42 102.41 121.98 C 101.30 124.95 100.48 128.01 99.57 131.05 C 98.68 130.02 97.86 128.94 97.13 127.79 C 97.81 125.12 98.99 122.64 100.42 120.30 Z" />
</g>
<g id="#d9a7deff">
<path fill="#d9a7de" opacity="1.00" d=" M 111.16 121.37 C 111.46 121.33 112.06 121.25 112.36 121.21 L 111.93 121.76 L 111.16 121.37 Z" />
</g>
<g id="#ab93aeff">
<path fill="#ab93ae" opacity="1.00" d=" M 63.76 123.91 C 65.40 123.64 67.04 123.36 68.68 123.08 C 68.84 123.59 69.17 124.62 69.34 125.13 C 69.70 127.00 69.60 128.94 68.20 130.39 C 67.78 130.08 66.94 129.45 66.52 129.14 C 65.07 128.01 63.46 127.15 61.79 126.43 C 62.43 125.58 63.12 124.76 63.76 123.91 Z" />
</g>
<g id="#6b586fff">
<path fill="#6b586f" opacity="1.00" d=" M 89.07 124.25 C 89.34 124.63 89.88 125.39 90.15 125.77 C 90.10 126.48 90.01 127.90 89.96 128.61 C 87.95 128.21 86.85 129.81 85.75 131.18 C 85.82 130.46 85.97 129.03 86.04 128.31 C 87.18 127.06 88.22 125.71 89.07 124.25 Z" />
</g>
<g id="#d2b8d6ff">
<path fill="#d2b8d6" opacity="1.00" d=" M 60.39 129.51 C 60.84 128.47 61.30 127.44 61.79 126.43 C 63.46 127.15 65.07 128.01 66.52 129.14 C 64.89 132.53 61.20 135.80 57.25 135.29 C 58.90 133.25 60.50 131.16 62.07 129.05 C 61.65 129.16 60.81 129.39 60.39 129.51 Z" />
</g>
<g id="#453744fc">
<path fill="#453744" opacity="1.00" d=" M 156.76 132.70 C 158.74 130.68 160.94 128.89 163.09 127.06 C 163.33 130.18 158.69 130.83 159.06 133.90 C 158.49 133.60 157.34 133.00 156.76 132.70 Z" />
</g>
<g id="#403642d3">
<path fill="#403642" opacity="0.83" d=" M 46.39 131.04 C 47.09 129.87 47.67 128.34 49.11 127.93 C 45.57 132.22 48.76 137.17 49.19 141.85 C 53.56 138.37 56.76 133.69 60.39 129.51 C 60.81 129.39 61.65 129.16 62.07 129.05 C 60.50 131.16 58.90 133.25 57.25 135.29 C 53.77 139.64 49.49 143.19 45.46 146.98 C 43.42 148.83 41.41 150.72 39.17 152.32 C 38.87 150.81 40.68 150.32 41.46 149.38 C 43.88 147.33 46.01 144.95 48.48 142.96 C 48.62 138.84 46.01 135.19 46.39 131.04 Z" />
</g>
<g id="#c8cad3ff">
<path fill="#c8cad3" opacity="1.00" d=" M 175.54 134.96 C 176.17 133.14 177.33 131.64 179.01 130.69 C 180.38 131.49 181.35 132.78 182.11 134.15 C 181.52 134.85 181.03 135.62 180.65 136.45 C 178.94 136.19 176.77 136.40 175.54 134.96 Z" />
</g>
<g id="#cacbd3ff">
<path fill="#cacbd3" opacity="1.00" d=" M 163.32 139.59 C 163.14 137.42 162.96 134.93 164.92 133.46 C 166.60 133.85 167.96 134.91 169.27 135.99 C 167.62 137.57 165.88 139.06 164.05 140.41 L 163.47 140.68 L 163.32 139.59 Z" />
</g>
<g id="#f2f3f8ff">
<path fill="#f2f3f8" opacity="1.00" d=" M 180.65 136.45 C 181.03 135.62 181.52 134.85 182.11 134.15 C 182.34 134.70 182.79 135.80 183.01 136.34 C 182.42 136.37 181.24 136.43 180.65 136.45 Z" />
</g>
<g id="#473c44ff">
<path fill="#473c44" opacity="1.00" d=" M 92.17 136.99 C 92.68 136.76 93.72 136.30 94.24 136.07 C 93.64 137.10 93.04 138.13 92.45 139.16 C 93.15 140.89 93.75 142.68 93.54 144.58 C 92.75 143.20 92.55 141.30 91.13 140.38 C 90.12 141.71 89.09 143.04 88.06 144.36 C 88.13 144.76 88.26 145.57 88.33 145.97 C 87.43 148.19 86.37 150.37 86.01 152.77 C 84.63 153.38 83.24 153.95 81.81 154.44 L 79.90 154.93 C 82.19 149.74 85.99 145.48 89.20 140.87 C 90.30 139.67 91.35 138.40 92.17 136.99 M 83.14 150.14 C 82.66 151.79 83.22 152.37 84.82 151.86 C 85.32 150.22 84.76 149.65 83.14 150.14 Z" />
</g>
<g id="#413541f1">
<path fill="#413541" opacity="0.95" d=" M 111.04 135.72 C 111.33 135.99 111.91 136.55 112.20 136.83 C 112.98 140.81 113.54 144.94 112.92 148.99 C 110.50 153.11 104.81 151.59 101.22 154.08 C 100.97 155.91 100.73 157.75 100.52 159.59 C 103.74 159.00 105.14 155.45 108.26 154.62 C 107.21 156.76 105.48 158.41 103.77 160.02 C 107.27 161.22 110.93 161.88 114.63 162.03 C 115.40 156.68 119.32 152.65 122.78 148.80 C 127.22 144.24 132.07 139.65 138.19 137.49 C 141.98 137.10 143.70 141.54 145.96 143.84 C 146.58 143.37 147.82 142.44 148.44 141.97 C 147.80 143.10 147.00 144.12 146.16 145.10 C 146.50 147.06 146.69 149.05 146.49 151.04 C 146.91 153.21 148.16 155.31 147.66 157.58 C 146.98 155.98 146.33 154.37 145.74 152.74 C 144.02 154.50 142.24 156.31 139.91 157.26 C 141.97 154.48 144.67 152.11 145.99 148.83 C 145.53 144.84 142.81 141.47 139.72 139.09 C 137.77 137.60 135.96 139.45 134.51 140.64 C 132.77 142.07 130.97 143.43 129.21 144.83 C 124.03 149.33 118.72 154.32 116.02 160.75 C 117.61 161.09 119.21 161.40 120.84 161.47 C 124.90 161.48 128.84 160.48 132.71 159.34 C 134.16 158.97 135.61 158.62 137.07 158.32 C 136.63 159.57 135.31 159.92 134.21 160.39 C 129.65 162.14 124.80 162.86 119.92 162.82 C 117.28 162.06 114.60 162.84 111.92 162.65 C 108.08 162.62 104.50 160.74 100.68 160.70 C 100.32 162.32 101.20 164.68 99.25 165.52 L 98.40 164.19 L 99.91 163.79 C 99.81 160.72 99.88 157.65 100.25 154.60 C 98.19 155.35 96.61 156.88 95.08 158.37 C 95.57 159.22 96.06 160.07 96.55 160.93 C 97.00 161.47 97.89 162.55 98.34 163.09 L 98.00 163.41 C 96.55 164.23 96.43 166.41 94.77 166.88 C 95.36 165.58 95.94 164.27 96.55 162.98 C 95.87 161.86 95.11 160.80 94.27 159.80 C 90.91 163.60 89.30 168.52 86.18 172.45 L 85.94 171.05 C 86.45 169.96 86.97 168.89 87.51 167.83 C 89.61 163.95 91.83 160.05 94.85 156.81 C 99.07 152.40 105.35 151.29 111.01 149.85 C 112.13 145.69 111.91 141.21 111.18 137.01 L 111.04 135.72 Z" />
</g>
<g id="#352b36c9">
<path fill="#352b36" opacity="0.79" d=" M 148.80 140.67 C 149.52 138.94 149.95 136.38 151.84 135.63 C 152.29 137.20 150.58 140.82 148.80 140.67 Z" />
</g>
<g id="#cfb4d3ff">
<path fill="#cfb4d3" opacity="1.00" d=" M 77.21 143.33 C 77.55 141.85 77.90 140.37 78.55 138.99 C 79.48 142.37 80.80 146.24 78.15 149.20 C 77.54 149.42 76.32 149.86 75.71 150.07 C 75.27 147.69 76.62 145.55 77.21 143.33 Z" />
</g>
<g id="#917292ff">
<path fill="#917292" opacity="1.00" d=" M 134.51 140.64 C 135.96 139.45 137.77 137.60 139.72 139.09 C 142.81 141.47 145.53 144.84 145.99 148.83 C 144.67 152.11 141.97 154.48 139.91 157.26 C 142.24 156.31 144.02 154.50 145.74 152.74 C 146.33 154.37 146.98 155.98 147.66 157.58 C 149.30 162.80 151.82 167.72 153.09 173.05 C 153.15 175.23 153.13 177.41 153.14 179.60 C 151.76 181.12 152.10 183.41 151.03 185.02 C 149.34 184.61 148.46 182.64 146.82 181.98 C 143.99 181.19 140.98 183.45 140.49 186.24 L 141.69 186.30 C 141.83 186.71 142.11 187.53 142.25 187.94 C 141.28 187.87 140.31 187.80 139.35 187.72 C 139.51 185.57 137.89 183.59 138.94 181.44 C 139.42 181.30 140.37 181.03 140.85 180.89 C 140.77 179.65 140.69 178.41 140.68 177.17 C 140.63 175.83 140.90 174.26 139.59 173.41 C 135.74 170.21 135.17 164.98 134.21 160.39 C 135.31 159.92 136.63 159.57 137.07 158.32 C 135.61 158.62 134.16 158.97 132.71 159.34 C 132.69 158.82 132.64 157.79 132.61 157.28 C 133.86 155.67 135.94 154.26 135.73 151.98 C 135.81 148.16 134.95 144.41 134.51 140.64 M 138.31 161.19 C 138.25 163.39 138.29 165.72 139.18 167.77 C 140.81 169.98 143.02 171.69 145.01 173.57 C 146.35 172.93 147.58 171.54 147.02 169.95 C 146.53 165.69 145.99 160.98 141.94 158.53 C 140.64 159.18 138.82 159.66 138.31 161.19 Z" />
</g>
<g id="#dfdee8ff">
<path fill="#dfdee8" opacity="1.00" d=" M 88.06 144.36 C 89.09 143.04 90.12 141.71 91.13 140.38 C 92.55 141.30 92.75 143.20 93.54 144.58 C 93.65 145.73 93.54 146.89 92.93 147.91 C 92.78 148.07 92.47 148.38 92.32 148.53 C 91.21 149.03 90.11 149.54 89.01 150.06 C 88.79 148.69 88.57 147.33 88.33 145.97 C 88.26 145.57 88.13 144.76 88.06 144.36 Z" />
<path fill="#dfdee8" opacity="1.00" d=" M 40.90 169.72 C 41.39 169.34 42.37 168.59 42.86 168.22 C 43.25 169.36 41.59 171.65 40.90 169.72 Z" />
<path fill="#dfdee8" opacity="1.00" d=" M 153.09 173.05 C 153.66 175.02 153.32 177.42 154.75 179.05 C 155.03 179.36 155.58 179.99 155.86 180.31 C 156.27 181.31 156.94 182.14 157.84 182.82 C 156.25 183.15 154.64 183.32 153.01 183.33 C 153.04 182.40 153.10 180.53 153.14 179.60 C 153.13 177.41 153.15 175.23 153.09 173.05 Z" />
</g>
<g id="#ab8eacff">
<path fill="#ab8eac" opacity="1.00" d=" M 129.21 144.83 C 130.97 143.43 132.77 142.07 134.51 140.64 C 134.95 144.41 135.81 148.16 135.73 151.98 C 135.94 154.26 133.86 155.67 132.61 157.28 C 132.64 157.79 132.69 158.82 132.71 159.34 C 128.84 160.48 124.90 161.48 120.84 161.47 C 122.94 156.12 126.36 151.52 129.55 146.80 C 129.46 146.31 129.29 145.33 129.21 144.83 Z" />
</g>
<g id="#a57fa9ff">
<path fill="#a57fa9" opacity="1.00" d=" M 62.10 143.02 C 63.44 142.53 65.05 141.45 66.36 142.63 C 68.43 145.87 66.56 150.11 63.95 152.43 C 63.10 151.76 62.34 151.00 61.69 150.14 C 62.33 150.26 63.60 150.51 64.24 150.64 C 64.17 149.46 63.71 147.99 62.21 148.51 C 58.23 148.92 54.29 149.80 50.59 151.33 C 50.89 152.85 51.36 154.31 52.00 155.73 C 49.63 155.75 50.57 152.16 48.23 152.56 C 46.07 153.29 43.90 153.96 41.66 154.38 C 44.26 151.23 48.25 149.87 51.76 148.02 C 55.36 146.66 58.61 144.60 62.10 143.02 Z" />
</g>
<g id="#706262ff">
<path fill="#706262" opacity="1.00" d=" M 88.33 145.97 C 88.57 147.33 88.79 148.69 89.01 150.06 C 90.11 149.54 91.21 149.03 92.32 148.53 C 91.02 150.90 88.23 151.56 86.01 152.77 C 86.37 150.37 87.43 148.19 88.33 145.97 Z" />
</g>
<g id="#d7bbdaff">
<path fill="#d7bbda" opacity="1.00" d=" M 39.17 152.32 C 41.41 150.72 43.42 148.83 45.46 146.98 C 47.54 147.42 49.64 147.80 51.76 148.02 C 48.25 149.87 44.26 151.23 41.66 154.38 C 39.93 154.82 38.28 155.48 36.61 156.10 C 36.88 154.96 37.40 153.95 38.16 153.07 C 38.41 152.88 38.91 152.51 39.17 152.32 Z" />
</g>
<g id="#4c404ee2">
<path fill="#4c404e" opacity="0.89" d=" M 50.59 151.33 C 54.29 149.80 58.23 148.92 62.21 148.51 C 63.71 147.99 64.17 149.46 64.24 150.64 C 63.60 150.51 62.33 150.26 61.69 150.14 C 58.51 150.08 55.44 151.15 52.42 152.03 C 52.73 156.69 53.58 161.30 53.39 165.99 C 53.08 168.81 55.15 170.94 56.70 173.03 C 57.00 172.19 57.59 170.51 57.89 169.67 C 57.74 170.56 57.44 172.33 57.29 173.21 C 58.33 174.57 59.29 176.00 60.03 177.55 C 60.08 177.90 60.18 178.61 60.22 178.96 C 58.69 178.49 58.57 176.56 57.76 175.43 C 55.76 176.48 55.04 180.64 52.22 178.87 L 53.19 178.26 C 54.70 177.65 55.62 176.29 56.59 175.08 C 55.78 174.04 54.87 173.09 53.88 172.22 C 53.33 172.69 52.24 173.64 51.69 174.11 C 51.74 174.72 51.84 175.95 51.88 176.57 C 46.84 173.19 42.27 180.11 37.30 178.54 C 38.13 177.01 38.63 175.17 40.11 174.12 C 39.50 175.42 38.97 176.74 38.46 178.08 C 41.81 177.71 44.81 176.01 47.83 174.64 C 46.94 172.67 45.38 170.59 43.27 169.94 C 42.61 170.91 41.92 171.85 41.20 172.78 C 40.88 171.51 39.62 170.44 40.07 169.05 L 40.90 169.72 C 41.59 171.65 43.25 169.36 42.86 168.22 C 43.67 166.14 44.71 163.75 46.19 161.99 C 45.83 164.45 44.54 166.72 44.70 169.25 C 46.64 169.20 47.56 167.18 48.90 166.07 C 50.65 168.05 48.16 169.37 47.27 170.86 C 47.99 172.30 48.81 173.69 49.54 175.13 C 50.70 173.95 51.87 172.78 53.04 171.61 C 51.22 166.51 53.75 160.27 49.63 156.02 C 48.95 157.29 48.17 158.50 47.25 159.61 C 47.33 157.43 48.57 155.58 49.41 153.64 C 47.11 152.90 45.22 155.17 42.95 155.37 C 40.50 155.51 37.27 157.86 35.33 155.35 C 36.03 154.35 36.79 153.16 38.16 153.07 C 37.40 153.95 36.88 154.96 36.61 156.10 C 38.28 155.48 39.93 154.82 41.66 154.38 C 43.90 153.96 46.07 153.29 48.23 152.56 C 50.57 152.16 49.63 155.75 52.00 155.73 C 51.36 154.31 50.89 152.85 50.59 151.33 Z" />
</g>
<g id="#c5a2c9ff">
<path fill="#c5a2c9" opacity="1.00" d=" M 92.32 148.53 C 92.47 148.38 92.78 148.07 92.93 147.91 C 93.53 148.61 94.13 149.31 94.73 150.01 C 94.27 152.70 92.94 155.17 90.62 156.69 C 87.92 158.60 85.04 161.79 81.39 160.54 C 81.06 158.49 81.50 156.45 81.81 154.44 C 83.24 153.95 84.63 153.38 86.01 152.77 C 88.23 151.56 91.02 150.90 92.32 148.53 Z" />
</g>
<g id="#b2b1abff">
<path fill="#b2b1ab" opacity="1.00" d=" M 83.14 150.14 C 84.76 149.65 85.32 150.22 84.82 151.86 C 83.22 152.37 82.66 151.79 83.14 150.14 Z" />
</g>
<g id="#c7c8d1ff">
<path fill="#c7c8d1" opacity="1.00" d=" M 95.08 158.37 C 96.61 156.88 98.19 155.35 100.25 154.60 C 99.88 157.65 99.81 160.72 99.91 163.79 L 98.40 164.19 L 98.00 163.41 L 98.34 163.09 C 100.55 161.96 97.94 158.56 96.55 160.93 C 96.06 160.07 95.57 159.22 95.08 158.37 Z" />
</g>
<g id="#947395ff">
<path fill="#947395" opacity="1.00" d=" M 47.25 159.61 C 48.17 158.50 48.95 157.29 49.63 156.02 C 53.75 160.27 51.22 166.51 53.04 171.61 C 51.87 172.78 50.70 173.95 49.54 175.13 C 48.81 173.69 47.99 172.30 47.27 170.86 C 48.16 169.37 50.65 168.05 48.90 166.07 C 47.56 167.18 46.64 169.20 44.70 169.25 C 44.54 166.72 45.83 164.45 46.19 161.99 C 46.33 161.10 46.68 160.30 47.25 159.61 Z" />
</g>
<g id="#201a20b0">
<path fill="#201a20" opacity="0.69" d=" M 147.66 157.58 L 148.42 157.02 C 149.87 162.18 152.64 166.86 154.03 172.05 C 154.61 174.14 153.94 176.48 155.36 178.35 C 155.21 178.53 154.90 178.87 154.75 179.05 C 153.32 177.42 153.66 175.02 153.09 173.05 C 151.82 167.72 149.30 162.80 147.66 157.58 Z" />
</g>
<g id="#684e6bff">
<path fill="#684e6b" opacity="1.00" d=" M 138.31 161.19 C 138.82 159.66 140.64 159.18 141.94 158.53 C 145.99 160.98 146.53 165.69 147.02 169.95 C 147.58 171.54 146.35 172.93 145.01 173.57 C 143.02 171.69 140.81 169.98 139.18 167.77 C 138.29 165.72 138.25 163.39 138.31 161.19 Z" />
</g>
<g id="#8d6f8fff">
<path fill="#8d6f8f" opacity="1.00" d=" M 94.27 159.80 C 95.11 160.80 95.87 161.86 96.55 162.98 C 95.94 164.27 95.36 165.58 94.77 166.88 C 94.64 167.16 94.38 167.71 94.25 167.98 C 94.06 168.14 93.68 168.47 93.49 168.63 C 90.98 171.59 87.74 173.48 84.40 175.32 C 84.21 175.37 83.82 175.46 83.63 175.51 C 83.18 175.25 82.29 174.75 81.84 174.49 C 83.29 173.84 84.95 173.51 86.18 172.45 C 89.30 168.52 90.91 163.60 94.27 159.80 Z" />
</g>
<g id="#f5f7f9ff">
<path fill="#f5f7f9" opacity="1.00" d=" M 96.55 160.93 C 97.94 158.56 100.55 161.96 98.34 163.09 C 97.89 162.55 97.00 161.47 96.55 160.93 Z" />
</g>
<g id="#a78cabff">
<path fill="#a78cab" opacity="1.00" d=" M 119.92 162.82 C 124.80 162.86 129.65 162.14 134.21 160.39 C 135.17 164.98 135.74 170.21 139.59 173.41 C 140.90 174.26 140.63 175.83 140.68 177.17 C 138.90 175.23 137.06 173.06 134.35 172.49 C 134.62 172.19 135.16 171.60 135.43 171.30 C 133.93 167.36 129.58 166.64 126.12 165.22 C 126.44 169.48 130.80 171.70 132.83 175.16 C 134.58 177.51 136.76 179.49 138.94 181.44 C 137.89 183.59 139.51 185.57 139.35 187.72 C 138.85 187.47 137.86 186.98 137.37 186.73 C 136.55 184.18 135.85 180.62 132.47 180.61 C 132.10 180.14 131.37 179.18 131.00 178.70 C 130.82 178.28 130.46 177.43 130.28 177.00 C 129.49 174.30 127.39 172.30 125.82 170.05 C 124.03 167.85 122.85 165.12 120.52 163.40 C 120.37 163.25 120.07 162.96 119.92 162.82 Z" />
</g>
<g id="#201921c3">
<path fill="#201921" opacity="0.76" d=" M 120.52 163.40 C 122.85 165.12 124.03 167.85 125.82 170.05 C 127.39 172.30 129.49 174.30 130.28 177.00 L 129.40 176.84 C 126.29 172.49 122.78 168.22 120.52 163.40 Z" />
</g>
<g id="#bf9cc3ff">
<path fill="#bf9cc3" opacity="1.00" d=" M 126.12 165.22 C 129.58 166.64 133.93 167.36 135.43 171.30 C 135.16 171.60 134.62 172.19 134.35 172.49 C 133.97 173.16 133.21 174.49 132.83 175.16 C 130.80 171.70 126.44 169.48 126.12 165.22 Z" />
</g>
<g id="#b48ebbff">
<path fill="#b48ebb" opacity="1.00" d=" M 83.82 166.83 C 85.04 165.72 86.38 167.41 87.51 167.83 C 86.97 168.89 86.45 169.96 85.94 171.05 C 83.55 172.70 80.74 173.51 78.03 174.47 C 78.94 171.29 81.32 168.85 83.82 166.83 Z" />
</g>
<g id="#d5bcd9ff">
<path fill="#d5bcd9" opacity="1.00" d=" M 58.09 169.06 C 59.50 170.64 61.00 172.18 62.07 174.03 C 62.43 175.58 60.82 176.49 60.03 177.55 C 59.29 176.00 58.33 174.57 57.29 173.21 C 57.44 172.33 57.74 170.56 57.89 169.67 L 58.09 169.06 Z" />
</g>
<g id="#292229cb">
<path fill="#292229" opacity="0.80" d=" M 84.40 175.32 C 87.74 173.48 90.98 171.59 93.49 168.63 C 92.49 172.34 88.20 175.07 84.40 175.32 Z" />
</g>
<g id="#c1c4ccff">
<path fill="#c1c4cc" opacity="1.00" d=" M 41.20 172.78 C 41.92 171.85 42.61 170.91 43.27 169.94 C 45.38 170.59 46.94 172.67 47.83 174.64 C 44.81 176.01 41.81 177.71 38.46 178.08 C 38.97 176.74 39.50 175.42 40.11 174.12 C 40.38 173.79 40.93 173.11 41.20 172.78 Z" />
</g>
<g id="#4f404ff8">
<path fill="#4f404f" opacity="0.97" d=" M 78.03 174.47 C 80.74 173.51 83.55 172.70 85.94 171.05 L 86.18 172.45 C 84.95 173.51 83.29 173.84 81.84 174.49 C 82.29 174.75 83.18 175.25 83.63 175.51 C 81.11 176.89 78.10 176.84 75.31 176.82 C 76.15 175.96 77.04 175.16 78.03 174.47 Z" />
</g>
<g id="#d6dae2ff">
<path fill="#d6dae2" opacity="1.00" d=" M 51.69 174.11 C 52.24 173.64 53.33 172.69 53.88 172.22 C 54.87 173.09 55.78 174.04 56.59 175.08 C 55.62 176.29 54.70 177.65 53.19 178.26 C 52.86 177.84 52.21 176.99 51.88 176.57 C 51.84 175.95 51.74 174.72 51.69 174.11 Z" />
</g>
<g id="#745478ff">
<path fill="#745478" opacity="1.00" d=" M 134.35 172.49 C 137.06 173.06 138.90 175.23 140.68 177.17 C 140.69 178.41 140.77 179.65 140.85 180.89 C 140.37 181.03 139.42 181.30 138.94 181.44 C 136.76 179.49 134.58 177.51 132.83 175.16 C 133.21 174.49 133.97 173.16 134.35 172.49 Z" />
</g>
<g id="#221b23ac">
<path fill="#221b23" opacity="0.67" d=" M 68.16 182.89 C 69.74 181.39 71.25 179.78 73.16 178.69 C 71.93 181.19 69.30 184.22 66.11 183.46 C 63.63 183.29 60.92 182.43 59.86 179.96 L 60.76 180.19 C 62.88 181.88 65.54 182.47 68.16 182.89 Z" />
</g>
<g id="#323034c9">
<path fill="#323034" opacity="0.79" d=" M 131.00 178.70 C 131.37 179.18 132.10 180.14 132.47 180.61 C 135.85 180.62 136.55 184.18 137.37 186.73 C 137.86 186.98 138.85 187.47 139.35 187.72 C 140.31 187.80 141.28 187.87 142.25 187.94 L 142.75 189.36 C 140.34 189.27 138.12 188.19 135.95 187.25 C 134.25 188.13 132.53 189.00 130.70 189.60 C 129.69 187.04 131.39 184.41 131.89 181.91 C 131.67 181.11 131.22 179.50 131.00 178.70 M 133.18 181.76 C 132.29 183.85 131.35 185.94 130.95 188.20 C 132.84 188.07 134.50 187.13 136.11 186.22 C 135.25 184.68 134.71 182.80 133.18 181.76 Z" />
</g>
<g id="#dfe1e6ff">
<path fill="#dfe1e6" opacity="1.00" d=" M 133.18 181.76 C 134.71 182.80 135.25 184.68 136.11 186.22 C 134.50 187.13 132.84 188.07 130.95 188.20 C 131.35 185.94 132.29 183.85 133.18 181.76 Z" />
</g>
<g id="#ffffffff">
<path fill="#ffffff" opacity="1.00" d=" M 141.69 186.30 C 143.00 184.49 144.58 182.26 147.01 184.00 C 146.60 184.30 145.78 184.91 145.38 185.22 C 145.43 187.23 146.09 189.09 147.10 190.82 C 146.85 191.10 146.33 191.67 146.07 191.95 C 145.19 191.16 144.27 190.42 143.32 189.72 C 143.18 189.63 142.89 189.45 142.75 189.36 L 142.25 187.94 C 142.11 187.53 141.83 186.71 141.69 186.30 Z" />
</g>
<g id="#cacdd5ff">
<path fill="#cacdd5" opacity="1.00" d=" M 147.01 184.00 C 150.06 185.42 148.83 188.81 147.10 190.82 C 146.09 189.09 145.43 187.23 145.38 185.22 C 145.78 184.91 146.60 184.30 147.01 184.00 Z" />
</g>
</svg>
