<?xml version="1.0" encoding="UTF-8" ?>
<!DOCTYPE svg PUBLIC "-//W3C//DTD SVG 1.1//EN" "http://www.w3.org/Graphics/SVG/1.1/DTD/svg11.dtd">
<svg width="215pt" height="215pt" viewBox="0 0 215 215" version="1.1" xmlns="http://www.w3.org/2000/svg">
<g id="#1a1a1aff">
<path fill="#1a1a1a" opacity="1.00" d=" M 39.05 22.27 C 56.35 23.33 71.76 32.47 85.92 41.75 C 87.51 40.22 88.79 36.76 91.27 37.18 L 90.76 37.65 C 84.27 43.20 81.92 52.83 84.88 60.80 C 87.15 67.72 92.95 72.93 99.50 75.79 C 107.17 78.56 117.00 74.41 119.57 66.48 C 122.12 61.27 120.08 53.68 114.39 51.52 C 108.42 47.75 100.22 53.49 101.62 60.35 C 101.48 60.57 101.21 61.02 101.07 61.24 C 99.17 57.01 101.40 52.46 105.23 50.27 C 108.20 48.41 111.74 49.32 114.76 50.52 C 118.74 52.85 122.66 57.12 121.68 62.07 C 121.57 64.29 121.13 66.47 120.33 68.54 C 118.20 73.08 113.78 75.62 109.31 77.37 C 105.60 77.54 101.69 78.02 98.17 76.52 C 92.51 74.11 87.73 69.76 84.77 64.37 C 83.07 59.24 82.58 53.78 82.53 48.40 C 80.58 49.69 78.61 50.95 76.50 51.96 C 79.72 49.07 84.19 47.25 85.16 42.56 C 83.02 40.97 80.81 39.47 78.50 38.15 C 73.56 35.13 68.60 32.11 63.22 29.93 C 61.70 31.92 60.15 33.89 58.70 35.94 C 55.03 40.88 51.19 45.73 48.30 51.19 C 49.65 56.45 51.31 61.63 52.71 66.87 C 52.39 67.14 51.74 67.68 51.42 67.95 C 50.59 64.95 50.08 61.82 48.68 59.01 C 47.53 58.66 46.34 58.47 45.12 58.46 C 45.16 60.47 45.21 62.47 45.26 64.48 C 46.85 65.14 49.29 65.32 49.58 67.44 C 49.42 70.16 48.41 72.82 49.03 75.56 C 52.02 74.62 52.30 71.19 52.99 68.61 L 53.22 70.40 C 53.65 70.49 54.50 70.65 54.93 70.74 C 53.56 72.86 51.90 74.80 50.80 77.08 C 52.52 80.56 54.37 84.49 58.52 85.44 C 57.88 85.46 56.58 85.49 55.93 85.50 C 56.75 87.43 57.55 89.38 57.98 91.44 C 54.66 85.69 51.18 80.04 47.38 74.59 C 47.21 72.02 48.06 69.46 48.20 66.89 C 46.13 66.59 44.03 66.70 41.97 67.08 C 41.47 66.74 40.47 66.08 39.97 65.75 C 39.84 66.22 39.59 67.17 39.47 67.64 C 38.07 68.98 36.12 70.34 34.09 69.61 C 32.79 68.82 31.72 67.73 30.57 66.75 L 30.20 66.41 C 32.45 64.17 30.03 58.88 33.99 58.24 C 37.00 59.71 38.72 62.94 41.20 65.10 C 38.16 52.32 36.68 39.09 37.62 25.96 C 37.58 24.58 38.53 23.48 39.05 22.27 M 38.80 23.75 C 41.56 32.22 44.91 40.49 47.40 49.05 C 47.66 48.94 48.18 48.72 48.45 48.61 C 50.50 43.92 54.33 40.38 56.78 35.92 L 56.99 36.02 C 58.75 33.86 60.60 31.76 62.19 29.46 C 55.60 26.61 48.78 23.96 41.56 23.39 C 40.87 23.48 39.49 23.66 38.80 23.75 M 32.72 66.80 C 33.58 69.61 38.74 69.08 38.61 65.95 C 39.08 62.69 35.48 61.01 33.70 58.87 C 31.95 60.94 31.67 64.33 32.72 66.80 Z" />
<path fill="#1a1a1a" opacity="1.00" d=" M 131.76 44.10 C 133.32 45.39 134.89 46.77 136.91 47.29 C 145.88 45.66 155.06 45.57 164.16 45.76 C 170.66 46.40 177.29 46.51 183.60 48.36 C 185.02 48.83 186.60 49.16 187.58 50.42 C 185.97 50.00 184.36 49.60 182.75 49.24 C 177.28 47.95 171.68 47.32 166.08 47.01 C 167.09 50.03 168.14 53.05 168.81 56.16 C 169.94 61.41 170.62 66.74 170.86 72.09 C 176.60 65.18 181.63 57.68 187.72 51.05 C 187.90 55.39 186.03 59.43 184.69 63.47 C 181.85 72.01 177.69 80.12 172.30 87.33 C 170.52 89.65 169.12 92.39 166.66 94.08 C 168.16 89.88 171.88 86.98 173.64 82.88 C 171.42 83.23 168.91 83.46 167.68 85.64 C 166.02 88.17 162.56 88.53 160.87 90.99 C 160.12 93.69 161.27 96.50 162.92 98.63 L 162.93 98.63 C 162.61 99.36 161.98 100.82 161.67 101.56 C 164.79 100.87 167.94 100.19 170.93 99.04 C 173.19 97.39 174.58 94.70 177.02 93.29 C 179.41 93.99 179.99 97.14 180.99 99.17 C 184.89 99.26 188.81 99.09 192.67 99.77 C 192.68 100.17 192.70 100.97 192.71 101.37 C 190.85 103.06 189.09 104.87 187.67 106.94 C 187.50 109.48 190.69 111.37 189.44 114.05 C 189.03 117.27 185.54 118.28 183.22 119.87 C 183.36 119.43 183.64 118.53 183.78 118.08 C 182.96 117.62 182.13 117.20 181.29 116.80 C 183.25 113.81 187.10 111.46 186.87 107.52 C 183.28 107.38 180.15 104.38 181.69 100.64 C 180.39 99.69 179.41 98.44 178.77 96.97 C 178.36 96.18 177.54 94.60 177.13 93.81 C 175.82 95.27 174.57 96.79 173.37 98.35 C 171.69 100.80 168.48 100.74 165.92 101.51 C 159.47 102.82 153.49 105.78 147.03 107.00 C 150.78 103.69 155.83 103.13 160.47 101.85 C 160.29 95.29 158.42 88.84 155.90 82.82 C 158.12 84.06 158.30 86.82 158.98 89.00 C 162.35 84.07 166.14 79.42 169.30 74.36 C 170.15 71.14 169.49 67.67 169.03 64.41 C 168.03 59.68 167.40 54.87 166.08 50.21 C 165.49 48.81 165.03 46.50 163.02 46.70 C 154.86 46.11 146.73 47.38 138.59 47.77 C 137.86 47.85 136.41 48.00 135.69 48.08 C 137.64 51.97 140.93 54.98 142.89 58.89 C 140.99 56.90 139.22 54.80 137.40 52.75 C 137.33 53.67 137.18 55.53 137.11 56.45 C 136.28 51.96 134.09 47.96 131.76 44.10 M 182.57 103.07 C 181.94 104.83 183.93 105.81 184.84 106.94 C 187.62 105.80 189.61 103.57 191.19 101.10 C 188.94 99.09 182.98 99.03 182.57 103.07 M 182.90 117.09 C 187.20 118.86 189.61 113.77 188.41 110.26 C 186.18 112.02 184.23 114.52 182.90 117.09 Z" />
<path fill="#1a1a1a" opacity="1.00" d=" M 22.60 71.37 C 23.35 68.67 26.23 67.42 28.86 67.70 C 28.90 70.93 29.98 74.11 29.45 77.39 C 28.06 77.62 26.67 77.87 25.27 78.11 C 27.02 90.64 31.79 102.48 37.26 113.80 C 38.28 115.57 39.35 117.37 39.70 119.41 C 38.78 118.41 37.87 117.39 36.98 116.37 C 36.21 125.07 37.02 133.84 37.97 142.49 C 39.54 158.02 45.72 172.85 53.99 185.99 C 59.41 183.29 67.02 183.48 71.43 187.97 C 76.33 184.80 80.75 180.73 84.04 175.89 C 77.93 172.89 71.62 170.12 66.36 165.69 C 59.77 160.29 53.29 154.29 49.28 146.65 C 58.32 158.69 69.91 169.48 84.27 174.71 C 92.21 177.35 100.75 177.56 108.98 176.38 C 114.59 176.17 119.51 173.16 124.96 172.24 C 119.16 175.82 112.23 176.76 105.66 178.04 C 107.09 180.44 108.64 182.77 110.20 185.10 C 106.75 183.06 105.80 177.11 100.93 177.91 C 95.51 178.57 90.24 176.50 84.94 176.64 C 81.49 180.52 78.34 184.85 73.85 187.63 C 69.84 189.85 65.65 192.14 60.99 192.52 C 59.06 192.32 57.05 191.56 55.86 189.95 C 58.39 191.40 61.24 191.99 64.12 191.28 C 66.54 190.66 68.79 189.54 70.65 187.85 C 68.52 186.82 66.39 185.50 63.94 185.50 C 60.80 185.40 57.53 185.32 54.72 186.95 C 54.98 187.69 55.52 189.18 55.78 189.92 C 50.92 183.98 47.81 176.72 44.32 169.89 C 39.82 158.45 36.39 146.39 36.31 134.00 C 35.67 127.66 35.33 121.25 36.25 114.92 C 31.76 103.58 26.46 92.33 24.76 80.11 C 24.64 77.00 21.28 74.61 22.60 71.37 M 23.45 74.82 C 24.30 76.72 26.75 76.68 28.51 76.83 C 28.39 74.48 28.28 72.13 28.31 69.78 C 25.17 67.31 21.79 71.86 23.45 74.82 Z" />
<path fill="#1a1a1a" opacity="1.00" d=" M 84.36 91.88 C 77.04 90.17 78.07 78.59 84.94 76.99 C 81.41 79.30 79.66 83.84 80.91 87.90 C 81.89 89.37 83.38 90.41 84.36 91.88 Z" />
<path fill="#1a1a1a" opacity="1.00" d=" M 122.78 81.56 C 126.96 83.41 128.51 88.50 127.48 92.71 C 126.17 94.74 124.50 96.58 122.00 97.00 C 122.40 96.61 123.22 95.83 123.63 95.44 C 125.96 93.76 127.21 90.84 126.42 88.00 C 126.35 85.32 123.93 83.75 122.78 81.56 Z" />
<path fill="#1a1a1a" opacity="1.00" d=" M 67.34 94.45 C 72.08 91.80 77.85 93.05 82.50 95.26 C 81.97 96.52 81.53 98.32 79.91 98.51 C 76.32 98.94 72.58 98.81 69.08 97.85 C 67.58 97.52 66.93 95.82 67.34 94.45 M 68.10 95.98 C 69.81 98.06 72.61 97.49 74.98 97.64 C 77.15 97.54 79.83 97.95 81.29 95.89 C 77.15 93.97 71.86 92.37 68.10 95.98 Z" />
<path fill="#1a1a1a" opacity="1.00" d=" M 121.94 101.01 C 126.36 98.17 132.15 98.96 136.53 101.47 C 137.75 103.08 135.68 105.47 133.85 105.36 C 129.65 105.41 124.60 105.86 121.42 102.53 C 121.55 102.15 121.81 101.39 121.94 101.01 M 122.50 103.18 C 125.62 103.89 128.76 104.81 132.00 104.61 C 133.54 104.25 135.81 103.82 135.92 101.80 C 132.77 100.56 129.35 100.44 126.02 100.71 C 124.31 100.48 122.88 101.51 122.50 103.18 Z" />
<path fill="#1a1a1a" opacity="1.00" d=" M 150.67 135.75 C 161.97 132.68 172.68 127.60 182.15 120.69 C 180.94 122.90 178.64 124.14 176.86 125.83 C 180.97 134.52 180.04 144.63 177.30 153.57 C 176.62 155.08 176.44 157.16 174.79 157.97 C 175.91 154.52 177.30 151.13 177.93 147.54 C 179.17 140.51 178.97 133.04 176.16 126.39 C 172.08 128.65 167.84 130.61 163.72 132.80 C 164.09 134.31 164.42 135.84 164.67 137.38 C 164.83 144.97 162.63 153.44 156.25 158.16 C 153.84 160.97 152.83 164.70 150.93 167.87 C 148.89 172.31 145.84 176.17 143.62 180.51 C 151.06 179.29 157.60 175.42 163.99 171.65 C 163.97 173.68 161.49 174.03 160.15 175.00 C 154.59 178.27 148.54 180.78 142.10 181.62 C 138.13 187.24 132.39 193.09 124.96 192.83 C 119.45 193.13 113.18 190.57 110.53 185.53 C 112.23 186.91 114.03 188.16 115.85 189.37 C 118.68 185.53 124.10 185.60 128.25 186.91 C 130.04 187.25 131.47 188.44 132.51 189.89 C 134.59 187.85 137.01 186.18 139.03 184.07 C 148.14 173.40 154.07 160.47 158.50 147.27 C 159.69 142.87 160.64 138.39 160.85 133.83 C 158.61 134.31 156.37 134.82 154.12 135.24 C 153.26 135.37 151.53 135.62 150.67 135.75 M 162.51 133.68 C 161.81 141.60 159.66 149.33 156.43 156.59 C 159.01 154.97 160.09 152.01 161.42 149.43 C 163.65 144.62 164.75 138.61 162.51 133.68 M 116.79 189.94 C 120.88 192.83 126.32 191.68 130.89 190.82 C 131.50 188.85 129.18 188.68 127.92 188.01 C 124.23 187.11 119.54 186.77 116.79 189.94 Z" />
</g>
<g id="#88725eff">
<path fill="#88725e" opacity="1.00" d=" M 38.80 23.75 C 39.49 23.66 40.87 23.48 41.56 23.39 C 44.97 29.18 50.87 33.02 56.78 35.92 C 54.33 40.38 50.50 43.92 48.45 48.61 C 48.18 48.72 47.66 48.94 47.40 49.05 C 44.91 40.49 41.56 32.22 38.80 23.75 Z" />
</g>
<g id="#ad9784ff">
<path fill="#ad9784" opacity="1.00" d=" M 41.56 23.39 C 48.78 23.96 55.60 26.61 62.19 29.46 C 60.60 31.76 58.75 33.86 56.99 36.02 L 56.78 35.92 C 50.87 33.02 44.97 29.18 41.56 23.39 Z" />
</g>
<g id="#fbe1e4ff">
<path fill="#fbe1e4" opacity="1.00" d=" M 63.22 29.93 C 68.60 32.11 73.56 35.13 78.50 38.15 C 76.33 40.39 73.53 38.59 70.97 38.48 C 66.58 38.83 62.97 34.84 58.56 36.85 L 58.70 35.94 C 60.15 33.89 61.70 31.92 63.22 29.93 Z" />
</g>
<g id="#10161cff">
<path fill="#10161c" opacity="1.00" d=" M 91.20 36.17 C 94.94 33.82 98.94 31.77 103.16 30.43 C 110.47 29.68 118.08 31.43 124.06 35.79 C 123.74 35.81 123.09 35.84 122.77 35.86 C 117.44 32.82 111.28 30.50 105.06 31.54 C 99.95 31.82 95.68 34.92 91.27 37.18 L 91.20 36.17 Z" />
<path fill="#10161c" opacity="1.00" d=" M 116.90 84.76 C 117.35 83.78 118.39 82.03 119.53 83.44 C 121.27 86.78 120.08 90.86 118.36 93.96 C 118.03 94.35 117.38 95.12 117.06 95.51 C 116.62 94.87 115.74 93.60 115.31 92.96 C 115.50 90.18 115.42 87.22 116.90 84.76 M 118.04 85.12 C 116.48 88.24 121.32 85.28 118.04 85.12 Z" />
</g>
<g id="#f9e1e4ff">
<path fill="#f9e1e4" opacity="1.00" d=" M 91.27 37.18 C 95.68 34.92 99.95 31.82 105.06 31.54 C 111.28 30.50 117.44 32.82 122.77 35.86 C 123.17 36.09 123.96 36.55 124.36 36.79 C 126.28 38.52 128.06 40.40 129.85 42.26 C 128.45 42.08 127.08 41.78 125.71 41.46 C 123.76 44.06 121.36 46.38 118.11 47.18 C 116.26 47.44 115.39 48.94 114.76 50.52 C 111.74 49.32 108.20 48.41 105.23 50.27 C 102.42 48.53 99.37 47.24 96.53 45.56 C 93.53 43.89 92.40 40.45 90.76 37.65 L 91.27 37.18 Z" />
<path fill="#f9e1e4" opacity="1.00" d=" M 138.59 47.77 C 146.73 47.38 154.86 46.11 163.02 46.70 C 165.03 46.50 165.49 48.81 166.08 50.21 C 167.40 54.87 168.03 59.68 169.03 64.41 C 165.55 62.29 166.99 57.32 164.33 54.63 C 161.56 53.91 158.52 54.37 155.91 52.97 C 153.16 51.63 150.01 51.98 147.04 51.79 C 147.95 50.93 148.86 50.06 149.77 49.20 C 146.03 49.03 141.89 50.03 138.59 47.77 Z" />
<path fill="#f9e1e4" opacity="1.00" d=" M 175.39 112.78 C 174.28 107.66 179.06 104.31 181.69 100.64 C 180.15 104.38 183.28 107.38 186.87 107.52 C 187.10 111.46 183.25 113.81 181.29 116.80 C 179.11 115.97 175.53 115.81 175.39 112.78 Z" />
</g>
<g id="#f9d0d4ff">
<path fill="#f9d0d4" opacity="1.00" d=" M 48.30 51.19 C 51.19 45.73 55.03 40.88 58.70 35.94 L 58.56 36.85 C 62.97 34.84 66.58 38.83 70.97 38.48 C 73.53 38.59 76.33 40.39 78.50 38.15 C 80.81 39.47 83.02 40.97 85.16 42.56 C 84.19 47.25 79.72 49.07 76.50 51.96 C 78.61 50.95 80.58 49.69 82.53 48.40 C 82.58 53.78 83.07 59.24 84.77 64.37 C 84.64 64.79 84.40 65.62 84.27 66.04 C 84.63 67.39 87.00 69.84 84.64 70.43 C 78.15 71.21 71.93 73.78 66.71 77.69 C 65.07 79.25 62.49 81.52 63.86 84.00 C 65.03 87.53 68.49 89.23 71.71 90.47 C 70.31 91.26 68.90 92.04 67.55 92.94 C 67.50 93.32 67.39 94.07 67.34 94.45 C 66.93 95.82 67.58 97.52 69.08 97.85 C 72.58 98.81 76.32 98.94 79.91 98.51 C 81.53 98.32 81.97 96.52 82.50 95.26 C 85.13 93.70 88.07 95.08 90.86 95.23 C 91.34 95.62 92.31 96.41 92.79 96.80 C 92.88 101.58 92.15 107.34 96.17 110.85 C 97.86 112.89 100.61 112.90 103.02 113.13 C 107.76 110.55 109.41 105.25 110.51 100.33 C 109.46 100.54 108.43 100.86 107.41 101.18 C 107.29 100.62 107.03 99.49 106.90 98.93 C 108.50 99.03 110.11 99.10 111.71 99.17 C 111.71 98.67 111.70 97.67 111.69 97.17 C 112.47 96.57 113.26 95.98 114.06 95.39 C 115.30 95.91 116.53 96.44 117.78 96.94 C 117.60 96.58 117.24 95.87 117.06 95.51 C 117.38 95.12 118.03 94.35 118.36 93.96 C 120.12 94.42 121.88 94.91 123.63 95.44 C 123.22 95.83 122.40 96.61 122.00 97.00 C 124.50 96.58 126.17 94.74 127.48 92.71 C 131.71 90.37 136.15 88.29 139.91 85.19 C 139.31 84.05 138.72 82.91 138.14 81.77 C 138.87 80.05 139.45 78.27 139.80 76.44 C 136.27 76.09 132.64 76.06 129.30 74.73 C 127.05 73.77 124.58 73.84 122.18 73.92 C 123.48 70.80 123.91 67.43 123.95 64.08 C 122.90 65.65 122.60 68.32 120.33 68.54 C 121.13 66.47 121.57 64.29 121.68 62.07 C 122.66 57.12 118.74 52.85 114.76 50.52 C 115.39 48.94 116.26 47.44 118.11 47.18 C 121.36 46.38 123.76 44.06 125.71 41.46 C 127.08 41.78 128.45 42.08 129.85 42.26 C 130.20 42.56 130.91 43.17 131.26 43.48 C 131.38 43.63 131.63 43.94 131.76 44.10 C 134.09 47.96 136.28 51.96 137.11 56.45 C 137.18 55.53 137.33 53.67 137.40 52.75 C 139.22 54.80 140.99 56.90 142.89 58.89 C 140.93 54.98 137.64 51.97 135.69 48.08 C 136.41 48.00 137.86 47.85 138.59 47.77 C 141.89 50.03 146.03 49.03 149.77 49.20 C 148.86 50.06 147.95 50.93 147.04 51.79 C 150.01 51.98 153.16 51.63 155.91 52.97 C 158.52 54.37 161.56 53.91 164.33 54.63 C 166.99 57.32 165.55 62.29 169.03 64.41 C 169.49 67.67 170.15 71.14 169.30 74.36 C 166.14 79.42 162.35 84.07 158.98 89.00 C 158.30 86.82 158.12 84.06 155.90 82.82 C 158.42 88.84 160.29 95.29 160.47 101.85 C 155.83 103.13 150.78 103.69 147.03 107.00 C 153.49 105.78 159.47 102.82 165.92 101.51 C 168.48 100.74 171.69 100.80 173.37 98.35 C 175.20 98.02 177.00 97.54 178.77 96.97 C 179.41 98.44 180.39 99.69 181.69 100.64 C 179.06 104.31 174.28 107.66 175.39 112.78 C 175.53 115.81 179.11 115.97 181.29 116.80 C 182.13 117.20 182.96 117.62 183.78 118.08 C 183.64 118.53 183.36 119.43 183.22 119.87 C 182.96 120.08 182.42 120.49 182.15 120.69 C 172.68 127.60 161.97 132.68 150.67 135.75 C 151.53 135.62 153.26 135.37 154.12 135.24 C 151.45 139.42 148.83 143.82 144.69 146.73 C 134.38 154.43 121.75 158.52 109.04 159.83 C 104.45 161.14 99.68 159.72 95.10 160.80 C 95.64 162.11 96.19 163.42 96.74 164.73 C 93.73 167.39 89.56 168.72 85.92 166.40 C 85.80 164.83 85.30 163.33 84.59 161.93 C 84.93 161.56 85.62 160.81 85.96 160.44 C 83.63 157.90 79.93 157.93 76.85 156.96 C 68.75 154.58 61.23 150.51 54.27 145.80 C 50.30 142.46 45.69 139.69 42.70 135.35 C 41.70 133.87 40.39 132.66 38.92 131.66 C 38.68 135.28 38.78 138.94 37.97 142.49 C 37.02 133.84 36.21 125.07 36.98 116.37 C 37.87 117.39 38.78 118.41 39.70 119.41 C 42.43 121.92 45.69 123.73 48.75 125.80 C 48.61 124.69 48.47 123.58 48.34 122.48 C 49.07 122.43 49.81 122.38 50.55 122.34 C 50.79 119.46 52.59 117.28 54.11 114.99 C 55.20 110.56 50.36 108.95 47.19 107.61 C 44.92 106.34 43.65 109.37 42.27 110.65 C 40.34 107.61 38.55 104.46 36.11 101.79 C 35.55 105.38 37.01 108.72 37.88 112.12 C 37.73 112.54 37.42 113.38 37.26 113.80 C 31.79 102.48 27.02 90.64 25.27 78.11 C 26.67 77.87 28.06 77.62 29.45 77.39 C 32.90 79.85 38.89 80.21 41.16 76.00 C 43.35 73.27 40.59 70.16 39.47 67.64 C 39.59 67.17 39.84 66.22 39.97 65.75 C 40.47 66.08 41.47 66.74 41.97 67.08 C 44.03 66.70 46.13 66.59 48.20 66.89 C 48.06 69.46 47.21 72.02 47.38 74.59 C 51.18 80.04 54.66 85.69 57.98 91.44 C 57.55 89.38 56.75 87.43 55.93 85.50 C 56.58 85.49 57.88 85.46 58.52 85.44 C 54.37 84.49 52.52 80.56 50.80 77.08 C 51.90 74.80 53.56 72.86 54.93 70.74 C 54.50 70.65 53.65 70.49 53.22 70.40 L 52.99 68.61 C 52.92 68.18 52.78 67.31 52.71 66.87 C 51.31 61.63 49.65 56.45 48.30 51.19 M 121.94 101.01 C 121.81 101.39 121.55 102.15 121.42 102.53 C 124.60 105.86 129.65 105.41 133.85 105.36 C 135.68 105.47 137.75 103.08 136.53 101.47 C 132.15 98.96 126.36 98.17 121.94 101.01 Z" />
</g>
<g id="#282122ba">
<path fill="#282122" opacity="0.73" d=" M 124.36 36.79 C 127.35 37.60 130.42 40.48 131.26 43.48 C 130.91 43.17 130.20 42.56 129.85 42.26 C 128.06 40.40 126.28 38.52 124.36 36.79 Z" />
</g>
<g id="#f9d0d5ff">
<path fill="#f9d0d5" opacity="1.00" d=" M 84.88 60.80 C 81.92 52.83 84.27 43.20 90.76 37.65 C 92.40 40.45 93.53 43.89 96.53 45.56 C 99.37 47.24 102.42 48.53 105.23 50.27 C 101.40 52.46 99.17 57.01 101.07 61.24 C 101.21 61.02 101.48 60.57 101.62 60.35 C 102.96 58.39 103.85 56.15 105.22 54.21 C 107.48 51.63 111.32 52.15 114.39 51.52 C 120.08 53.68 122.12 61.27 119.57 66.48 C 117.00 74.41 107.17 78.56 99.50 75.79 C 92.95 72.93 87.15 67.72 84.88 60.80 Z" />
</g>
<g id="#ad9884ff">
<path fill="#ad9884" opacity="1.00" d=" M 166.08 47.01 C 171.68 47.32 177.28 47.95 182.75 49.24 C 179.52 52.34 174.73 52.47 170.67 53.77 C 170.05 54.57 169.43 55.36 168.81 56.16 C 168.14 53.05 167.09 50.03 166.08 47.01 Z" />
</g>
<g id="#87725eff">
<path fill="#87725e" opacity="1.00" d=" M 182.75 49.24 C 184.36 49.60 185.97 50.00 187.58 50.42 C 187.61 50.57 187.68 50.89 187.72 51.05 C 181.63 57.68 176.60 65.18 170.86 72.09 C 170.62 66.74 169.94 61.41 168.81 56.16 C 169.43 55.36 170.05 54.57 170.67 53.77 C 174.73 52.47 179.52 52.34 182.75 49.24 Z" />
</g>
<g id="#f8e4e8ff">
<path fill="#f8e4e8" opacity="1.00" d=" M 101.62 60.35 C 100.22 53.49 108.42 47.75 114.39 51.52 C 111.32 52.15 107.48 51.63 105.22 54.21 C 103.85 56.15 102.96 58.39 101.62 60.35 Z" />
</g>
<g id="#535455ff">
<path fill="#535455" opacity="1.00" d=" M 45.12 58.46 C 46.34 58.47 47.53 58.66 48.68 59.01 C 50.08 61.82 50.59 64.95 51.42 67.95 C 51.74 67.68 52.39 67.14 52.71 66.87 C 52.78 67.31 52.92 68.18 52.99 68.61 C 52.30 71.19 52.02 74.62 49.03 75.56 C 48.41 72.82 49.42 70.16 49.58 67.44 C 49.29 65.32 46.85 65.14 45.26 64.48 C 45.21 62.47 45.16 60.47 45.12 58.46 Z" />
</g>
<g id="#f7f8f9ff">
<path fill="#f7f8f9" opacity="1.00" d=" M 32.72 66.80 C 31.67 64.33 31.95 60.94 33.70 58.87 C 35.48 61.01 39.08 62.69 38.61 65.95 C 38.74 69.08 33.58 69.61 32.72 66.80 Z" />
</g>
<g id="#eabfc9ff">
<path fill="#eabfc9" opacity="1.00" d=" M 120.33 68.54 C 122.60 68.32 122.90 65.65 123.95 64.08 C 123.91 67.43 123.48 70.80 122.18 73.92 C 117.86 81.09 108.17 82.06 100.89 79.53 C 103.71 78.94 107.04 79.48 109.31 77.37 C 113.78 75.62 118.20 73.08 120.33 68.54 Z" />
</g>
<g id="#fad8dbff">
<path fill="#fad8db" opacity="1.00" d=" M 84.27 66.04 C 84.40 65.62 84.64 64.79 84.77 64.37 C 87.73 69.76 92.51 74.11 98.17 76.52 C 101.69 78.02 105.60 77.54 109.31 77.37 C 107.04 79.48 103.71 78.94 100.89 79.53 C 108.17 82.06 117.86 81.09 122.18 73.92 C 124.58 73.84 127.05 73.77 129.30 74.73 C 132.64 76.06 136.27 76.09 139.80 76.44 C 139.45 78.27 138.87 80.05 138.14 81.77 C 138.72 82.91 139.31 84.05 139.91 85.19 C 136.15 88.29 131.71 90.37 127.48 92.71 C 128.51 88.50 126.96 83.41 122.78 81.56 C 123.93 83.75 126.35 85.32 126.42 88.00 C 127.21 90.84 125.96 93.76 123.63 95.44 C 121.88 94.91 120.12 94.42 118.36 93.96 C 120.08 90.86 121.27 86.78 119.53 83.44 C 118.39 82.03 117.35 83.78 116.90 84.76 C 115.42 87.22 115.50 90.18 115.31 92.96 C 115.74 93.60 116.62 94.87 117.06 95.51 C 117.24 95.87 117.60 96.58 117.78 96.94 C 116.53 96.44 115.30 95.91 114.06 95.39 C 113.26 95.98 112.47 96.57 111.69 97.17 C 105.18 98.51 98.59 96.62 92.24 95.29 C 91.89 95.28 91.20 95.25 90.86 95.23 C 88.07 95.08 85.13 93.70 82.50 95.26 C 77.85 93.05 72.08 91.80 67.34 94.45 C 67.39 94.07 67.50 93.32 67.55 92.94 C 68.90 92.04 70.31 91.26 71.71 90.47 C 68.49 89.23 65.03 87.53 63.86 84.00 C 62.49 81.52 65.07 79.25 66.71 77.69 C 71.93 73.78 78.15 71.21 84.64 70.43 C 87.00 69.84 84.63 67.39 84.27 66.04 M 84.36 91.88 C 83.38 90.41 81.89 89.37 80.91 87.90 C 79.66 83.84 81.41 79.30 84.94 76.99 C 78.07 78.59 77.04 90.17 84.36 91.88 M 88.45 78.93 C 87.88 80.44 88.38 81.37 89.97 81.72 C 89.73 82.10 89.25 82.87 89.00 83.26 L 89.64 83.12 L 88.52 83.46 L 88.46 83.38 C 88.32 82.72 88.05 81.40 87.92 80.74 C 85.72 83.48 85.65 87.93 87.09 91.09 C 88.95 91.48 89.87 89.61 89.89 88.05 C 90.26 85.02 91.75 80.90 88.45 78.93 Z" />
</g>
<g id="#fce2e5ff">
<path fill="#fce2e5" opacity="1.00" d=" M 30.57 66.75 C 31.72 67.73 32.79 68.82 34.09 69.61 C 36.12 70.34 38.07 68.98 39.47 67.64 C 40.59 70.16 43.35 73.27 41.16 76.00 C 38.89 80.21 32.90 79.85 29.45 77.39 C 29.98 74.11 28.90 70.93 28.86 67.70 C 29.28 67.46 30.14 66.99 30.57 66.75 Z" />
</g>
<g id="#e3e4ecff">
<path fill="#e3e4ec" opacity="1.00" d=" M 23.45 74.82 C 21.79 71.86 25.17 67.31 28.31 69.78 C 28.28 72.13 28.39 74.48 28.51 76.83 C 26.75 76.68 24.30 76.72 23.45 74.82 Z" />
</g>
<g id="#173346ff">
<path fill="#173346" opacity="1.00" d=" M 88.45 78.93 C 91.75 80.90 90.26 85.02 89.89 88.05 C 89.87 89.61 88.95 91.48 87.09 91.09 C 85.65 87.93 85.72 83.48 87.92 80.74 C 88.05 81.40 88.32 82.72 88.46 83.38 L 88.52 83.46 L 89.64 83.12 L 89.00 83.26 C 89.25 82.87 89.73 82.10 89.97 81.72 C 88.38 81.37 87.88 80.44 88.45 78.93 Z" />
</g>
<g id="#525353ff">
<path fill="#525353" opacity="1.00" d=" M 167.68 85.64 C 168.91 83.46 171.42 83.23 173.64 82.88 C 171.88 86.98 168.16 89.88 166.66 94.08 L 166.41 94.69 L 165.70 94.79 C 164.56 94.89 163.92 95.55 163.78 96.75 C 163.56 97.22 163.14 98.16 162.92 98.63 C 161.27 96.50 160.12 93.69 160.87 90.99 C 162.56 88.53 166.02 88.17 167.68 85.64 Z" />
</g>
<g id="#e9eaecff">
<path fill="#e9eaec" opacity="1.00" d=" M 118.04 85.12 C 121.32 85.28 116.48 88.24 118.04 85.12 Z" />
</g>
<g id="#fed8f1ff">
<path fill="#fed8f1" opacity="1.00" d=" M 68.10 95.98 C 71.86 92.37 77.15 93.97 81.29 95.89 C 79.83 97.95 77.15 97.54 74.98 97.64 C 72.61 97.49 69.81 98.06 68.10 95.98 Z" />
</g>
<g id="#45373bff">
<path fill="#45373b" opacity="1.00" d=" M 90.86 95.23 C 91.20 95.25 91.89 95.28 92.24 95.29 C 98.59 96.62 105.18 98.51 111.69 97.17 C 111.70 97.67 111.71 98.67 111.71 99.17 C 110.11 99.10 108.50 99.03 106.90 98.93 C 107.03 99.49 107.29 100.62 107.41 101.18 C 108.43 100.86 109.46 100.54 110.51 100.33 C 109.41 105.25 107.76 110.55 103.02 113.13 C 100.61 112.90 97.86 112.89 96.17 110.85 C 92.15 107.34 92.88 101.58 92.79 96.80 C 92.31 96.41 91.34 95.62 90.86 95.23 M 93.79 97.50 C 93.97 98.08 94.32 99.24 94.50 99.82 C 94.24 103.94 94.84 109.46 99.17 111.29 C 101.92 112.98 105.75 110.83 106.32 107.78 L 107.01 108.00 C 107.42 106.50 107.83 105.00 108.20 103.49 C 106.24 102.50 106.04 100.22 104.93 98.56 C 101.20 98.31 97.51 97.75 93.79 97.50 Z" />
</g>
<g id="#0e0e0ed6">
<path fill="#0e0e0e" opacity="0.84" d=" M 163.78 96.75 C 163.92 95.55 164.56 94.89 165.70 94.79 C 166.01 96.37 165.37 97.02 163.78 96.75 Z" />
</g>
<g id="#feecefff">
<path fill="#feecef" opacity="1.00" d=" M 173.37 98.35 C 174.57 96.79 175.82 95.27 177.13 93.81 C 177.54 94.60 178.36 96.18 178.77 96.97 C 177.00 97.54 175.20 98.02 173.37 98.35 Z" />
</g>
<g id="#bc93aaff">
<path fill="#bc93aa" opacity="1.00" d=" M 93.79 97.50 C 97.51 97.75 101.20 98.31 104.93 98.56 C 106.04 100.22 106.24 102.50 108.20 103.49 C 107.83 105.00 107.42 106.50 107.01 108.00 L 106.32 107.78 C 102.98 106.36 99.35 106.26 95.79 106.29 C 95.62 104.09 95.45 101.84 94.50 99.82 C 94.32 99.24 93.97 98.08 93.79 97.50 Z" />
</g>
<g id="#e3c7d9ff">
<path fill="#e3c7d9" opacity="1.00" d=" M 94.50 99.82 C 95.45 101.84 95.62 104.09 95.79 106.29 C 99.35 106.26 102.98 106.36 106.32 107.78 C 105.75 110.83 101.92 112.98 99.17 111.29 C 94.84 109.46 94.24 103.94 94.50 99.82 Z" />
</g>
<g id="#dfe1e9ff">
<path fill="#dfe1e9" opacity="1.00" d=" M 182.57 103.07 C 182.98 99.03 188.94 99.09 191.19 101.10 C 189.61 103.57 187.62 105.80 184.84 106.94 C 183.93 105.81 181.94 104.83 182.57 103.07 Z" />
</g>
<g id="#eecae1ff">
<path fill="#eecae1" opacity="1.00" d=" M 122.50 103.18 C 122.88 101.51 124.31 100.48 126.02 100.71 C 129.35 100.44 132.77 100.56 135.92 101.80 C 135.81 103.82 133.54 104.25 132.00 104.61 C 128.76 104.81 125.62 103.89 122.50 103.18 Z" />
</g>
<g id="#e9bfc9ff">
<path fill="#e9bfc9" opacity="1.00" d=" M 36.11 101.79 C 38.55 104.46 40.34 107.61 42.27 110.65 C 43.65 109.37 44.92 106.34 47.19 107.61 C 50.36 108.95 55.20 110.56 54.11 114.99 C 52.59 117.28 50.79 119.46 50.55 122.34 C 49.81 122.38 49.07 122.43 48.34 122.48 C 48.47 123.58 48.61 124.69 48.75 125.80 C 45.69 123.73 42.43 121.92 39.70 119.41 C 39.35 117.37 38.28 115.57 37.26 113.80 C 37.42 113.38 37.73 112.54 37.88 112.12 C 37.01 108.72 35.55 105.38 36.11 101.79 Z" />
</g>
<g id="#f0f2f6ff">
<path fill="#f0f2f6" opacity="1.00" d=" M 182.90 117.09 C 184.23 114.52 186.18 112.02 188.41 110.26 C 189.61 113.77 187.20 118.86 182.90 117.09 Z" />
</g>
<g id="#c7a3afff">
<path fill="#c7a3af" opacity="1.00" d=" M 163.72 132.80 C 167.84 130.61 172.08 128.65 176.16 126.39 C 178.97 133.04 179.17 140.51 177.93 147.54 C 177.09 145.69 176.57 143.72 176.18 141.74 C 172.53 139.52 168.87 137.11 166.59 133.38 C 165.93 134.70 165.27 136.03 164.67 137.38 C 164.42 135.84 164.09 134.31 163.72 132.80 Z" />
</g>
<g id="#ddb3c1ff">
<path fill="#ddb3c1" opacity="1.00" d=" M 38.92 131.66 C 40.39 132.66 41.70 133.87 42.70 135.35 C 45.69 139.69 50.30 142.46 54.27 145.80 C 61.23 150.51 68.75 154.58 76.85 156.96 C 79.93 157.93 83.63 157.90 85.96 160.44 C 85.62 160.81 84.93 161.56 84.59 161.93 C 85.30 163.33 85.80 164.83 85.92 166.40 C 89.56 168.72 93.73 167.39 96.74 164.73 C 96.19 163.42 95.64 162.11 95.10 160.80 C 99.68 159.72 104.45 161.14 109.04 159.83 C 121.75 158.52 134.38 154.43 144.69 146.73 C 148.83 143.82 151.45 139.42 154.12 135.24 C 156.37 134.82 158.61 134.31 160.85 133.83 C 160.64 138.39 159.69 142.87 158.50 147.27 C 154.07 160.47 148.14 173.40 139.03 184.07 C 137.01 186.18 134.59 187.85 132.51 189.89 C 131.47 188.44 130.04 187.25 128.25 186.91 C 124.10 185.60 118.68 185.53 115.85 189.37 C 114.03 188.16 112.23 186.91 110.53 185.53 C 110.44 185.42 110.28 185.21 110.20 185.10 C 108.64 182.77 107.09 180.44 105.66 178.04 C 112.23 176.76 119.16 175.82 124.96 172.24 C 119.51 173.16 114.59 176.17 108.98 176.38 C 100.75 177.56 92.21 177.35 84.27 174.71 C 69.91 169.48 58.32 158.69 49.28 146.65 C 53.29 154.29 59.77 160.29 66.36 165.69 C 71.62 170.12 77.93 172.89 84.04 175.89 C 80.75 180.73 76.33 184.80 71.43 187.97 C 67.02 183.48 59.41 183.29 53.99 185.99 C 45.72 172.85 39.54 158.02 37.97 142.49 C 38.78 138.94 38.68 135.28 38.92 131.66 Z" />
<path fill="#ddb3c1" opacity="1.00" d=" M 162.51 133.68 C 164.75 138.61 163.65 144.62 161.42 149.43 C 160.09 152.01 159.01 154.97 156.43 156.59 C 159.66 149.33 161.81 141.60 162.51 133.68 Z" />
</g>
<g id="#b796a0ff">
<path fill="#b796a0" opacity="1.00" d=" M 164.67 137.38 C 165.27 136.03 165.93 134.70 166.59 133.38 C 168.87 137.11 172.53 139.52 176.18 141.74 C 176.57 143.72 177.09 145.69 177.93 147.54 C 177.30 151.13 175.91 154.52 174.79 157.97 C 174.62 158.33 174.28 159.06 174.11 159.42 C 171.27 163.70 167.85 167.49 164.47 171.34 L 164.40 171.43 L 163.99 171.65 C 157.60 175.42 151.06 179.29 143.62 180.51 C 145.84 176.17 148.89 172.31 150.93 167.87 C 152.83 164.70 153.84 160.97 156.25 158.16 C 162.63 153.44 164.83 144.97 164.67 137.38 Z" />
</g>
<g id="#191516b5">
<path fill="#191516" opacity="0.71" d=" M 164.47 171.34 C 167.85 167.49 171.27 163.70 174.11 159.42 C 173.77 162.65 171.11 164.88 169.38 167.42 C 167.99 168.96 166.83 171.29 164.47 171.34 Z" />
</g>
<g id="#ffffffff">
<path fill="#ffffff" opacity="1.00" d=" M 54.72 186.95 C 57.53 185.32 60.80 185.40 63.94 185.50 C 63.26 186.70 62.58 187.90 61.91 189.10 C 62.64 189.82 63.38 190.55 64.12 191.28 C 61.24 191.99 58.39 191.40 55.86 189.95 L 55.78 189.92 C 55.52 189.18 54.98 187.69 54.72 186.95 Z" />
<path fill="#ffffff" opacity="1.00" d=" M 116.79 189.94 C 119.54 186.77 124.23 187.11 127.92 188.01 C 129.18 188.68 131.50 188.85 130.89 190.82 C 126.32 191.68 120.88 192.83 116.79 189.94 Z" />
</g>
<g id="#d6d8e3ff">
<path fill="#d6d8e3" opacity="1.00" d=" M 63.94 185.50 C 66.39 185.50 68.52 186.82 70.65 187.85 C 68.79 189.54 66.54 190.66 64.12 191.28 C 63.38 190.55 62.64 189.82 61.91 189.10 C 62.58 187.90 63.26 186.70 63.94 185.50 Z" />
</g>
</svg>
