<?xml version="1.0" encoding="UTF-8" ?>
<!DOCTYPE svg PUBLIC "-//W3C//DTD SVG 1.1//EN" "http://www.w3.org/Graphics/SVG/1.1/DTD/svg11.dtd">
<svg width="215pt" height="215pt" viewBox="0 0 215 215" version="1.1" xmlns="http://www.w3.org/2000/svg">
<g id="#60564ffe">
<path fill="#60564f" opacity="1.00" d=" M 41.59 22.25 C 41.97 22.33 42.74 22.48 43.12 22.56 C 47.44 25.30 52.52 26.55 56.85 29.31 C 61.21 32.07 66.06 34.07 70.07 37.35 C 65.05 35.48 59.71 32.99 54.24 34.33 C 52.50 34.69 52.32 36.65 52.22 38.10 C 52.10 44.45 53.82 50.77 57.15 56.17 C 56.16 55.14 55.19 54.06 54.49 52.80 C 49.96 44.58 44.77 36.66 41.26 27.92 C 40.25 26.07 40.93 24.07 41.59 22.25 M 41.04 24.67 C 41.86 25.92 42.63 27.22 43.64 28.33 C 45.08 28.62 46.54 28.70 47.99 28.83 C 47.91 25.60 43.90 23.11 41.04 24.67 Z" />
<path fill="#60564f" opacity="1.00" d=" M 70.69 37.74 C 77.72 40.81 83.20 46.46 90.10 49.79 C 93.33 44.69 98.79 40.68 105.03 40.69 C 109.84 40.67 115.33 40.97 119.16 44.22 C 114.01 42.47 108.55 40.58 103.05 41.76 C 97.27 42.48 91.18 46.69 90.82 52.93 C 89.89 58.47 93.65 63.37 97.43 66.95 C 102.35 71.33 111.39 72.76 115.50 66.57 C 117.15 63.11 117.68 58.21 114.44 55.49 C 111.99 53.20 107.80 50.65 105.26 54.28 C 102.80 56.25 104.64 59.08 105.51 61.34 C 104.17 59.86 102.58 58.29 102.83 56.09 C 103.23 52.28 107.96 50.15 111.28 51.71 C 116.47 54.27 119.48 60.92 117.28 66.42 C 114.98 71.20 108.87 73.07 103.97 71.82 C 98.91 70.80 95.16 66.84 92.17 62.89 C 89.55 59.47 89.44 54.90 90.00 50.81 C 83.24 46.94 77.03 42.23 70.69 37.74 Z" />
<path fill="#60564f" opacity="1.00" d=" M 149.56 50.74 C 162.89 47.95 176.15 43.32 189.96 44.41 C 189.53 45.81 188.95 47.19 187.79 48.15 C 187.85 47.34 187.98 45.73 188.04 44.92 C 185.25 45.20 182.48 45.79 180.01 47.17 C 181.60 47.95 183.19 48.72 184.79 49.49 C 185.38 49.31 186.58 48.96 187.17 48.78 C 181.01 56.05 173.37 61.99 165.62 67.49 C 163.04 69.45 160.64 71.70 157.71 73.13 C 160.73 70.32 164.31 68.00 166.59 64.48 C 169.37 60.29 172.60 56.14 173.37 51.02 C 169.52 49.20 165.20 48.50 160.97 48.98 C 151.09 50.39 141.66 54.30 131.68 55.04 L 131.02 54.18 C 137.39 54.41 143.38 51.86 149.56 50.74 Z" />
<path fill="#60564f" opacity="1.00" d=" M 120.67 45.22 C 122.37 44.72 125.88 46.18 125.67 48.18 C 123.67 47.88 121.94 46.77 120.67 45.22 Z" />
<path fill="#60564f" opacity="1.00" d=" M 126.01 48.78 C 126.41 48.87 127.19 49.04 127.58 49.13 L 127.48 50.09 C 127.12 49.76 126.38 49.11 126.01 48.78 Z" />
<path fill="#60564f" opacity="1.00" d=" M 31.25 50.38 C 34.03 51.03 36.86 51.66 39.29 53.22 C 36.67 52.64 34.03 52.11 31.36 51.80 C 32.50 55.29 34.55 58.34 36.64 61.32 C 38.85 64.90 41.50 68.18 44.15 71.44 C 44.45 68.97 43.42 65.71 45.81 64.02 C 49.04 65.26 51.05 68.22 53.31 70.67 C 55.97 69.89 58.72 69.50 61.49 69.56 C 60.89 72.10 60.12 74.61 59.77 77.20 C 60.69 78.77 62.11 79.94 63.38 81.21 C 64.60 78.82 65.81 76.43 67.10 74.08 C 66.07 72.80 65.03 71.55 64.01 70.28 L 67.47 72.38 C 64.57 67.28 60.14 63.08 58.04 57.54 C 62.02 62.53 65.17 68.13 69.35 72.97 C 67.47 76.04 65.88 79.29 64.45 82.60 C 67.70 85.95 70.36 89.96 74.40 92.43 C 74.39 92.79 74.37 93.50 74.35 93.85 C 75.02 95.07 75.68 96.29 76.32 97.53 C 72.47 94.06 69.56 89.73 65.92 86.06 C 63.39 83.21 60.47 80.73 58.06 77.79 C 58.01 75.33 59.27 73.08 59.82 70.73 C 57.34 71.17 54.85 71.64 52.37 72.10 C 50.51 69.56 48.37 67.24 45.91 65.28 C 45.85 67.86 45.83 70.44 45.88 73.02 C 44.38 73.36 42.87 73.68 41.37 73.97 C 41.95 73.57 43.13 72.78 43.72 72.38 C 39.15 66.24 33.79 60.44 30.89 53.25 C 30.25 52.27 30.88 51.29 31.25 50.38 Z" />
<path fill="#60564f" opacity="1.00" d=" M 40.96 54.38 C 42.13 53.42 45.02 54.60 44.63 56.24 C 43.58 56.13 42.58 55.87 41.61 55.45 C 41.45 55.18 41.12 54.65 40.96 54.38 Z" />
<path fill="#60564f" opacity="1.00" d=" M 46.38 56.69 C 50.31 58.58 54.09 60.99 56.98 64.29 C 53.17 62.18 49.58 59.65 46.38 56.69 Z" />
<path fill="#60564f" opacity="1.00" d=" M 57.73 64.88 C 59.67 65.86 61.43 67.17 62.84 68.83 L 62.01 69.33 C 60.55 67.88 59.10 66.41 57.73 64.88 Z" />
<path fill="#60564f" opacity="1.00" d=" M 173.22 72.80 C 178.46 71.79 183.28 68.77 188.78 69.31 C 188.74 71.18 188.63 73.19 186.78 74.20 C 187.24 72.72 187.71 71.24 188.17 69.77 C 183.59 70.20 179.36 72.06 174.98 73.30 C 174.54 73.17 173.66 72.92 173.22 72.80 Z" />
<path fill="#60564f" opacity="1.00" d=" M 22.68 72.63 C 28.39 71.00 34.07 73.49 39.38 75.37 C 39.87 75.06 40.83 74.45 41.32 74.14 C 40.90 75.61 40.45 77.08 40.27 78.61 C 41.50 80.20 43.48 80.86 45.16 81.83 C 45.35 80.81 45.73 78.77 45.91 77.75 C 45.94 79.34 46.54 81.14 45.74 82.61 C 44.39 83.39 42.82 82.21 41.41 82.13 C 43.12 86.45 44.85 90.76 46.40 95.14 C 45.73 94.34 45.07 93.54 44.42 92.72 C 43.59 92.08 42.76 91.45 41.96 90.78 L 42.96 90.00 C 40.83 85.61 39.54 80.89 38.73 76.10 C 37.84 75.80 36.95 75.51 36.06 75.23 C 32.03 73.93 27.88 72.53 23.59 73.03 C 23.33 73.38 22.82 74.08 22.57 74.43 L 22.15 75.01 C 22.28 74.42 22.55 73.23 22.68 72.63 Z" />
<path fill="#60564f" opacity="1.00" d=" M 149.63 79.11 C 151.83 76.98 154.29 75.12 156.97 73.64 C 154.92 75.93 152.42 77.80 149.63 79.11 Z" />
<path fill="#60564f" opacity="1.00" d=" M 166.51 75.69 C 168.37 74.86 170.33 74.30 172.34 74.02 C 172.01 74.20 171.35 74.58 171.01 74.77 C 164.87 77.65 158.45 79.93 152.56 83.35 C 150.90 83.97 149.24 84.58 147.58 85.17 C 153.36 81.08 160.01 78.43 166.51 75.69 Z" />
<path fill="#60564f" opacity="1.00" d=" M 22.57 74.43 C 24.88 76.71 27.37 78.79 29.95 80.77 C 31.08 81.76 32.24 82.75 33.22 83.90 L 33.45 84.62 C 29.38 81.81 25.02 78.85 22.57 74.43 Z" />
<path fill="#60564f" opacity="1.00" d=" M 183.85 76.78 C 183.94 75.61 184.57 74.97 185.74 74.87 C 186.04 76.45 185.40 77.09 183.85 76.78 Z" />
<path fill="#60564f" opacity="1.00" d=" M 88.32 83.91 C 87.99 81.20 90.27 79.34 91.83 77.48 C 90.05 80.37 88.36 84.65 92.02 86.97 C 93.64 84.34 93.33 81.01 95.07 78.40 C 97.12 80.54 96.18 83.70 95.19 86.09 C 93.99 86.78 92.63 87.11 91.34 87.60 C 90.22 86.49 88.60 85.59 88.32 83.91 Z" />
<path fill="#60564f" opacity="1.00" d=" M 178.33 81.06 C 179.81 79.84 181.44 78.81 183.09 77.83 C 181.32 79.98 179.19 81.83 176.71 83.10 C 177.12 82.59 177.93 81.57 178.33 81.06 Z" />
<path fill="#60564f" opacity="1.00" d=" M 113.31 80.63 C 114.89 80.13 115.52 80.70 115.22 82.33 C 113.62 82.83 112.98 82.26 113.31 80.63 Z" />
<path fill="#60564f" opacity="1.00" d=" M 145.81 81.87 C 146.87 81.13 147.94 80.39 148.99 79.63 C 147.91 81.52 144.52 83.20 146.48 85.58 C 147.98 88.37 148.22 91.73 149.98 94.36 C 153.17 93.94 157.00 93.41 158.67 90.25 C 159.50 89.08 160.32 87.90 161.13 86.71 C 162.51 88.13 163.84 89.61 165.39 90.86 C 167.83 90.00 169.83 88.19 171.98 86.77 C 170.80 88.01 169.73 89.34 168.48 90.50 C 170.92 90.36 173.38 90.27 175.83 90.30 C 175.70 91.08 175.44 92.63 175.31 93.41 C 177.05 93.40 178.79 93.40 180.53 93.42 C 178.77 93.79 177.01 94.14 175.24 94.47 C 174.48 95.36 173.72 96.26 172.95 97.15 C 173.48 99.38 174.60 101.66 173.99 103.98 C 172.32 105.79 170.20 107.08 168.27 108.58 C 169.53 108.26 170.79 107.96 172.05 107.66 C 170.94 108.46 169.83 109.28 168.74 110.10 C 172.28 111.65 176.10 112.65 179.47 114.60 C 180.34 115.33 182.09 115.93 181.54 117.36 C 178.52 119.49 174.66 119.37 171.15 119.80 C 177.21 132.01 175.61 146.68 170.39 158.90 L 169.79 158.65 C 173.42 148.96 175.39 138.41 173.26 128.14 C 172.62 125.53 171.87 122.83 170.18 120.68 C 164.23 120.61 158.29 121.24 152.33 121.05 C 153.90 126.28 157.97 130.56 158.45 136.15 C 159.01 142.75 158.52 149.61 155.89 155.76 C 153.94 160.14 151.33 164.42 147.32 167.21 C 141.90 170.57 140.56 177.25 137.28 182.31 C 144.00 181.63 150.06 178.62 156.00 175.63 C 150.37 180.31 143.05 182.26 135.98 183.50 C 134.79 185.59 133.53 187.72 131.53 189.15 C 136.40 180.92 141.30 172.63 144.76 163.68 C 148.19 153.98 151.04 143.86 150.90 133.49 C 151.08 129.00 151.20 124.51 151.16 120.02 C 148.84 121.39 146.38 122.54 143.72 123.06 C 151.90 117.60 161.25 113.80 168.43 106.88 C 167.04 106.26 165.56 105.79 164.36 104.83 C 165.17 102.39 167.28 100.81 169.23 99.31 C 168.13 101.29 166.94 103.22 165.79 105.18 C 167.85 105.12 169.91 105.02 171.96 104.92 C 173.16 102.33 172.71 99.72 171.04 97.46 C 172.54 95.31 173.98 93.12 175.33 90.87 C 171.90 90.81 168.60 91.76 165.24 92.22 C 163.77 91.25 162.53 89.99 161.17 88.88 C 160.21 90.38 159.46 92.01 158.41 93.44 C 156.09 94.64 153.48 95.06 151.00 95.81 C 145.72 97.12 140.81 99.58 135.54 100.90 C 138.55 97.00 143.90 97.00 148.16 95.28 C 146.93 90.47 145.30 85.78 143.64 81.11 C 144.18 81.30 145.27 81.68 145.81 81.87 M 166.56 110.24 C 162.59 114.34 157.16 116.38 152.70 119.81 C 160.45 118.45 168.37 119.61 176.11 118.44 C 177.86 118.20 179.46 117.43 180.92 116.45 C 178.27 114.93 175.46 113.71 172.59 112.66 L 172.62 112.33 C 170.54 111.82 168.50 111.13 166.56 110.24 M 153.09 126.20 C 152.73 140.30 150.23 154.36 145.01 167.50 C 152.52 162.91 155.62 154.17 157.34 146.00 C 158.12 139.14 156.91 132.04 153.09 126.20 Z" />
<path fill="#60564f" opacity="1.00" d=" M 113.08 83.28 C 114.72 82.76 115.28 83.33 114.77 84.96 C 113.12 85.47 112.56 84.91 113.08 83.28 Z" />
<path fill="#60564f" opacity="1.00" d=" M 172.82 85.87 C 173.45 84.85 174.27 83.67 175.61 83.68 C 176.32 85.09 174.02 86.77 172.82 85.87 Z" />
<path fill="#60564f" opacity="1.00" d=" M 34.32 84.97 C 36.92 86.29 39.42 87.86 41.32 90.11 C 38.76 88.84 35.78 87.55 34.32 84.97 Z" />
<path fill="#60564f" opacity="1.00" d=" M 113.04 86.15 C 116.42 86.34 111.47 89.15 113.04 86.15 Z" />
<path fill="#60564f" opacity="1.00" d=" M 192.09 93.95 C 193.39 94.95 193.24 95.48 191.66 95.54 C 191.77 95.14 191.99 94.35 192.09 93.95 Z" />
<path fill="#60564f" opacity="1.00" d=" M 47.43 97.09 C 49.79 100.99 51.71 105.13 54.07 109.02 C 55.05 110.72 56.09 112.38 57.16 114.03 C 57.33 114.61 57.66 115.77 57.83 116.35 C 56.73 115.20 55.64 114.04 54.55 112.89 C 53.00 121.96 52.73 131.17 53.07 140.35 C 53.40 152.37 57.52 163.90 61.01 175.30 L 61.23 176.28 C 56.80 167.84 55.08 158.30 53.04 149.07 C 51.11 136.32 52.10 123.36 53.97 110.68 C 46.68 109.38 39.54 107.19 32.86 103.97 C 31.64 103.45 30.69 102.51 29.84 101.53 C 32.50 102.90 35.20 104.19 37.97 105.31 C 40.13 106.15 42.34 106.87 44.59 107.46 C 47.27 108.21 49.98 108.85 52.70 109.46 C 50.87 106.26 49.18 102.97 47.30 99.79 L 46.83 99.07 C 43.13 98.92 39.41 99.00 35.72 99.32 C 33.72 99.57 31.73 99.96 29.79 100.50 C 30.52 99.43 31.60 98.68 32.93 98.71 C 36.26 98.27 39.63 98.14 42.99 98.16 C 44.53 98.12 46.22 98.31 47.43 97.09 Z" />
<path fill="#60564f" opacity="1.00" d=" M 188.34 97.98 C 189.22 97.52 190.12 97.06 191.03 96.63 C 189.68 98.97 187.13 100.18 184.64 100.92 C 185.83 99.89 187.04 98.88 188.34 97.98 Z" />
<path fill="#60564f" opacity="1.00" d=" M 173.63 106.94 C 176.35 104.46 179.75 102.95 183.18 101.72 C 180.45 104.18 176.99 105.58 173.63 106.94 Z" />
<path fill="#60564f" opacity="1.00" d=" M 72.69 159.20 C 76.04 160.83 79.04 163.11 82.42 164.68 C 84.14 165.55 86.10 166.16 87.33 167.74 C 82.03 165.91 76.31 163.66 72.69 159.20 Z" />
<path fill="#60564f" opacity="1.00" d=" M 166.86 163.63 C 167.00 162.49 167.37 161.04 168.70 160.79 C 169.57 161.86 168.28 164.41 166.86 163.63 Z" />
<path fill="#60564f" opacity="1.00" d=" M 164.89 166.62 C 165.19 166.20 165.79 165.36 166.10 164.94 L 166.40 165.78 L 165.79 166.63 L 164.89 166.62 Z" />
<path fill="#60564f" opacity="1.00" d=" M 91.25 168.33 C 97.24 169.66 103.36 170.00 109.44 170.63 C 109.99 175.58 110.66 180.56 112.34 185.27 L 112.83 186.55 C 116.41 186.55 120.26 184.35 123.57 186.59 C 124.58 187.68 125.53 188.83 126.49 189.98 C 127.43 189.94 128.36 189.89 129.30 189.84 L 130.23 189.82 C 126.03 191.53 121.42 191.69 116.95 191.70 C 114.36 191.83 111.95 190.68 109.97 189.11 C 110.47 188.59 111.46 187.56 111.95 187.04 C 111.21 184.37 110.88 181.31 108.82 179.26 L 108.81 179.14 C 108.69 176.74 108.42 174.35 108.04 171.97 C 104.45 171.60 100.84 170.75 97.24 171.48 C 95.82 170.08 93.97 169.45 92.02 169.26 C 91.69 169.98 91.04 171.43 90.71 172.15 C 90.90 170.87 91.08 169.60 91.25 168.33 M 112.30 189.69 C 113.70 190.91 116.20 188.87 115.10 187.32 C 113.84 186.54 111.30 188.26 112.30 189.69 M 117.32 186.52 C 116.67 187.63 116.10 188.79 115.62 189.99 C 118.59 190.89 121.69 190.04 124.67 189.73 C 123.39 186.72 120.09 186.59 117.32 186.52 Z" />
<path fill="#60564f" opacity="1.00" d=" M 156.77 175.15 C 159.18 172.65 161.53 170.08 164.19 167.85 C 162.36 170.83 159.87 173.48 156.77 175.15 Z" />
<path fill="#60564f" opacity="1.00" d=" M 98.79 172.83 C 101.29 174.56 103.85 176.21 106.39 177.90 C 103.35 177.16 100.58 175.41 98.79 172.83 Z" />
<path fill="#60564f" opacity="1.00" d=" M 90.33 173.50 C 89.49 177.98 87.72 182.22 86.21 186.50 C 85.09 190.26 80.33 190.62 77.05 190.43 C 72.90 190.11 67.56 189.24 65.76 184.90 C 66.50 185.58 67.26 186.25 68.04 186.90 C 69.05 185.95 70.05 184.98 71.18 184.17 C 72.84 183.85 74.42 184.85 76.02 185.20 C 77.62 185.06 79.24 184.75 80.85 185.02 C 82.19 185.89 83.30 187.05 84.47 188.13 C 86.62 183.33 88.09 178.26 90.33 173.50 M 69.18 187.76 C 71.46 188.21 74.16 190.53 76.24 188.38 C 77.77 191.12 81.06 189.18 83.22 188.44 C 81.65 186.49 77.98 183.68 76.54 187.36 C 75.19 186.32 73.97 184.61 72.03 185.09 C 70.96 185.85 70.11 186.85 69.18 187.76 Z" />
<path fill="#60564f" opacity="1.00" d=" M 62.01 177.61 C 63.20 179.69 64.29 181.83 65.27 184.02 C 63.59 182.25 62.55 179.98 62.01 177.61 Z" />
</g>
<g id="#b18892ff">
<path fill="#b18892" opacity="1.00" d=" M 41.04 24.67 C 43.90 23.11 47.91 25.60 47.99 28.83 C 46.54 28.70 45.08 28.62 43.64 28.33 C 42.63 27.22 41.86 25.92 41.04 24.67 Z" />
<path fill="#b18892" opacity="1.00" d=" M 180.01 47.17 C 182.48 45.79 185.25 45.20 188.04 44.92 C 187.98 45.73 187.85 47.34 187.79 48.15 L 187.75 48.61 L 187.17 48.78 C 186.58 48.96 185.38 49.31 184.79 49.49 C 183.19 48.72 181.60 47.95 180.01 47.17 Z" />
<path fill="#b18892" opacity="1.00" d=" M 62.01 69.33 L 62.84 68.83 C 63.13 69.20 63.72 69.92 64.01 70.28 C 65.03 71.55 66.07 72.80 67.10 74.08 C 65.81 76.43 64.60 78.82 63.38 81.21 C 62.11 79.94 60.69 78.77 59.77 77.20 C 60.12 74.61 60.89 72.10 61.49 69.56 C 61.62 69.50 61.88 69.39 62.01 69.33 Z" />
<path fill="#b18892" opacity="1.00" d=" M 117.90 79.50 C 119.54 80.86 121.09 82.71 121.02 84.97 C 120.55 87.30 118.71 88.92 116.79 90.12 C 116.99 88.64 118.00 87.57 119.02 86.57 C 119.06 84.16 118.56 81.80 117.90 79.50 Z" />
<path fill="#b18892" opacity="1.00" d=" M 147.58 85.17 C 149.24 84.58 150.90 83.97 152.56 83.35 C 154.14 83.21 155.73 83.16 157.31 83.08 C 157.87 85.45 158.35 87.84 158.67 90.25 C 157.00 93.41 153.17 93.94 149.98 94.36 C 148.22 91.73 147.98 88.37 146.48 85.58 L 147.58 85.17 Z" />
<path fill="#b18892" opacity="1.00" d=" M 94.11 90.96 L 94.71 90.66 C 101.01 92.74 107.78 93.85 114.33 92.22 C 112.04 96.26 107.29 97.07 103.08 97.54 C 103.02 96.98 102.89 95.87 102.82 95.32 C 103.92 95.33 106.13 95.35 107.23 95.37 C 105.04 94.29 102.58 94.15 100.20 93.93 L 100.28 94.88 L 102.70 94.74 C 102.00 95.39 101.29 96.04 100.57 96.67 C 98.32 95.06 94.84 93.77 94.11 90.96 Z" />
<path fill="#b18892" opacity="1.00" d=" M 47.30 99.79 C 49.18 102.97 50.87 106.26 52.70 109.46 C 49.98 108.85 47.27 108.21 44.59 107.46 C 44.93 107.23 45.61 106.76 45.96 106.53 C 45.29 106.26 43.96 105.73 43.29 105.47 C 43.87 103.08 45.08 100.99 47.30 99.79 Z" />
<path fill="#b18892" opacity="1.00" d=" M 166.56 110.24 C 168.50 111.13 170.54 111.82 172.62 112.33 L 172.59 112.66 C 172.46 114.23 172.36 115.81 172.46 117.39 C 173.66 117.80 174.87 118.15 176.11 118.44 C 168.37 119.61 160.45 118.45 152.70 119.81 C 157.16 116.38 162.59 114.34 166.56 110.24 Z" />
</g>
<g id="#f4dbd3ff">
<path fill="#f4dbd3" opacity="1.00" d=" M 54.24 34.33 C 59.71 32.99 65.05 35.48 70.07 37.35 C 70.23 37.45 70.53 37.64 70.69 37.74 C 77.03 42.23 83.24 46.94 90.00 50.81 C 89.44 54.90 89.55 59.47 92.17 62.89 C 95.16 66.84 98.91 70.80 103.97 71.82 C 108.87 73.07 114.98 71.20 117.28 66.42 C 119.48 60.92 116.47 54.27 111.28 51.71 C 107.96 50.15 103.23 52.28 102.83 56.09 C 102.58 58.29 104.17 59.86 105.51 61.34 C 104.64 59.08 102.80 56.25 105.26 54.28 C 107.80 50.65 111.99 53.20 114.44 55.49 C 117.68 58.21 117.15 63.11 115.50 66.57 C 109.53 68.07 103.47 67.47 97.43 66.95 C 93.65 63.37 89.89 58.47 90.82 52.93 C 91.18 46.69 97.27 42.48 103.05 41.76 C 108.55 40.58 114.01 42.47 119.16 44.22 C 119.54 44.47 120.29 44.97 120.67 45.22 C 121.94 46.77 123.67 47.88 125.67 48.18 L 126.01 48.78 C 126.38 49.11 127.12 49.76 127.48 50.09 C 128.93 51.19 129.94 52.74 131.02 54.18 L 131.68 55.04 C 141.66 54.30 151.09 50.39 160.97 48.98 C 165.20 48.50 169.52 49.20 173.37 51.02 C 172.60 56.14 169.37 60.29 166.59 64.48 C 164.31 68.00 160.73 70.32 157.71 73.13 C 157.52 73.26 157.15 73.51 156.97 73.64 C 154.29 75.12 151.83 76.98 149.63 79.11 C 149.47 79.24 149.15 79.50 148.99 79.63 C 147.94 80.39 146.87 81.13 145.81 81.87 C 145.27 81.68 144.18 81.30 143.64 81.11 C 145.30 85.78 146.93 90.47 148.16 95.28 C 143.90 97.00 138.55 97.00 135.54 100.90 C 140.81 99.58 145.72 97.12 151.00 95.81 C 153.48 95.06 156.09 94.64 158.41 93.44 C 159.46 92.01 160.21 90.38 161.17 88.88 C 162.53 89.99 163.77 91.25 165.24 92.22 C 168.60 91.76 171.90 90.81 175.33 90.87 C 173.98 93.12 172.54 95.31 171.04 97.46 C 172.71 99.72 173.16 102.33 171.96 104.92 C 169.91 105.02 167.85 105.12 165.79 105.18 C 166.94 103.22 168.13 101.29 169.23 99.31 C 167.28 100.81 165.17 102.39 164.36 104.83 C 165.56 105.79 167.04 106.26 168.43 106.88 C 161.25 113.80 151.90 117.60 143.72 123.06 C 146.38 122.54 148.84 121.39 151.16 120.02 C 151.20 124.51 151.08 129.00 150.90 133.49 C 150.35 129.78 150.05 126.05 150.02 122.30 C 148.10 123.17 146.02 124.14 145.19 126.25 C 141.41 133.94 136.14 141.25 128.61 145.65 C 121.22 150.27 113.15 153.92 104.45 155.13 C 103.56 156.88 102.68 158.64 101.80 160.40 C 102.40 161.58 103.01 162.75 103.61 163.92 C 99.23 166.91 94.18 163.85 90.78 160.83 C 93.30 159.65 95.82 158.49 98.33 157.30 C 94.24 155.18 89.51 155.84 85.16 154.72 C 80.82 153.59 76.22 152.95 72.34 150.55 C 68.71 148.35 65.37 145.69 62.33 142.74 C 58.88 139.56 57.04 135.16 54.28 131.46 C 53.87 134.42 53.40 137.37 53.07 140.35 C 52.73 131.17 53.00 121.96 54.55 112.89 C 55.64 114.04 56.73 115.20 57.83 116.35 C 57.66 115.77 57.33 114.61 57.16 114.03 C 59.77 116.92 62.41 119.81 65.53 122.16 C 65.41 120.85 65.29 119.55 65.16 118.24 C 65.70 117.99 66.78 117.49 67.32 117.24 C 68.21 114.73 69.83 112.20 69.47 109.45 C 68.52 107.03 65.90 105.90 63.97 104.35 C 62.94 104.96 61.91 105.56 60.88 106.17 C 57.83 104.44 55.15 102.13 53.07 99.30 C 53.62 102.80 54.48 106.23 55.56 109.61 L 54.07 109.02 C 51.71 105.13 49.79 100.99 47.43 97.09 C 47.17 96.60 46.66 95.63 46.40 95.14 C 44.85 90.76 43.12 86.45 41.41 82.13 C 42.82 82.21 44.39 83.39 45.74 82.61 C 46.54 81.14 45.94 79.34 45.91 77.75 C 45.73 78.77 45.35 80.81 45.16 81.83 C 43.48 80.86 41.50 80.20 40.27 78.61 C 40.45 77.08 40.90 75.61 41.32 74.14 L 41.37 73.97 C 42.87 73.68 44.38 73.36 45.88 73.02 C 45.83 70.44 45.85 67.86 45.91 65.28 C 48.37 67.24 50.51 69.56 52.37 72.10 C 54.85 71.64 57.34 71.17 59.82 70.73 C 59.27 73.08 58.01 75.33 58.06 77.79 C 60.47 80.73 63.39 83.21 65.92 86.06 C 69.56 89.73 72.47 94.06 76.32 97.53 C 75.68 96.29 75.02 95.07 74.35 93.85 C 74.37 93.50 74.39 92.79 74.40 92.43 C 70.36 89.96 67.70 85.95 64.45 82.60 C 65.88 79.29 67.47 76.04 69.35 72.97 C 65.17 68.13 62.02 62.53 58.04 57.54 C 57.82 57.20 57.38 56.51 57.15 56.17 C 53.82 50.77 52.10 44.45 52.22 38.10 C 52.32 36.65 52.50 34.69 54.24 34.33 M 88.32 83.91 C 88.60 85.59 90.22 86.49 91.34 87.60 C 92.63 87.11 93.99 86.78 95.19 86.09 C 96.18 83.70 97.12 80.54 95.07 78.40 C 93.33 81.01 93.64 84.34 92.02 86.97 C 88.36 84.65 90.05 80.37 91.83 77.48 C 90.27 79.34 87.99 81.20 88.32 83.91 M 113.31 80.63 C 112.98 82.26 113.62 82.83 115.22 82.33 C 115.52 80.70 114.89 80.13 113.31 80.63 M 117.90 79.50 C 118.56 81.80 119.06 84.16 119.02 86.57 C 118.00 87.57 116.99 88.64 116.79 90.12 C 118.71 88.92 120.55 87.30 121.02 84.97 C 121.09 82.71 119.54 80.86 117.90 79.50 M 113.08 83.28 C 112.56 84.91 113.12 85.47 114.77 84.96 C 115.28 83.33 114.72 82.76 113.08 83.28 M 113.04 86.15 C 111.47 89.15 116.42 86.34 113.04 86.15 M 94.11 90.96 C 94.84 93.77 98.32 95.06 100.57 96.67 C 101.29 96.04 102.00 95.39 102.70 94.74 L 100.28 94.88 L 100.20 93.93 C 102.58 94.15 105.04 94.29 107.23 95.37 C 106.13 95.35 103.92 95.33 102.82 95.32 C 102.89 95.87 103.02 96.98 103.08 97.54 C 107.29 97.07 112.04 96.26 114.33 92.22 C 107.78 93.85 101.01 92.74 94.71 90.66 L 94.11 90.96 Z" />
<path fill="#f4dbd3" opacity="1.00" d=" M 112.34 185.27 C 115.02 183.04 117.91 177.94 122.00 180.02 C 124.56 181.20 123.54 184.39 123.57 186.59 C 120.26 184.35 116.41 186.55 112.83 186.55 L 112.34 185.27 Z" />
<path fill="#f4dbd3" opacity="1.00" d=" M 69.18 187.76 C 70.11 186.85 70.96 185.85 72.03 185.09 C 73.97 184.61 75.19 186.32 76.54 187.36 C 77.98 183.68 81.65 186.49 83.22 188.44 C 81.06 189.18 77.77 191.12 76.24 188.38 C 74.16 190.53 71.46 188.21 69.18 187.76 Z" />
<path fill="#f4dbd3" opacity="1.00" d=" M 112.30 189.69 C 111.30 188.26 113.84 186.54 115.10 187.32 C 116.20 188.87 113.70 190.91 112.30 189.69 Z" />
<path fill="#f4dbd3" opacity="1.00" d=" M 117.32 186.52 C 120.09 186.59 123.39 186.72 124.67 189.73 C 121.69 190.04 118.59 190.89 115.62 189.99 C 116.10 188.79 116.67 187.63 117.32 186.52 Z" />
</g>
<g id="#dbc3bdff">
<path fill="#dbc3bd" opacity="1.00" d=" M 31.36 51.80 C 34.03 52.11 36.67 52.64 39.29 53.22 C 39.58 53.29 40.14 53.42 40.43 53.48 L 40.96 54.38 C 41.12 54.65 41.45 55.18 41.61 55.45 C 41.23 55.61 40.46 55.94 40.07 56.11 C 40.60 57.37 41.14 58.63 41.67 59.90 C 40.03 59.51 38.39 59.12 36.74 58.73 C 36.72 59.38 36.67 60.67 36.64 61.32 C 34.55 58.34 32.50 55.29 31.36 51.80 Z" />
<path fill="#dbc3bd" opacity="1.00" d=" M 97.43 66.95 C 103.47 67.47 109.53 68.07 115.50 66.57 C 111.39 72.76 102.35 71.33 97.43 66.95 Z" />
<path fill="#dbc3bd" opacity="1.00" d=" M 174.98 73.30 C 179.36 72.06 183.59 70.20 188.17 69.77 C 187.71 71.24 187.24 72.72 186.78 74.20 L 186.62 74.72 L 185.74 74.87 C 184.57 74.97 183.94 75.61 183.85 76.78 L 183.74 77.44 L 183.09 77.83 C 181.44 78.81 179.81 79.84 178.33 81.06 C 177.76 80.75 176.62 80.13 176.04 79.82 C 173.42 80.18 170.79 80.53 168.17 80.87 C 169.42 79.55 170.68 78.23 171.94 76.91 C 171.71 76.38 171.25 75.31 171.01 74.77 C 171.35 74.58 172.01 74.20 172.34 74.02 L 172.87 73.71 C 173.40 73.60 174.45 73.40 174.98 73.30 Z" />
<path fill="#dbc3bd" opacity="1.00" d=" M 23.59 73.03 C 27.88 72.53 32.03 73.93 36.06 75.23 C 35.02 75.53 33.99 75.84 32.95 76.14 C 33.90 77.57 34.86 78.99 35.84 80.41 C 33.86 80.10 31.85 80.03 29.95 80.77 C 27.37 78.79 24.88 76.71 22.57 74.43 C 22.82 74.08 23.33 73.38 23.59 73.03 Z" />
<path fill="#dbc3bd" opacity="1.00" d=" M 180.53 93.42 C 184.38 93.50 188.36 92.73 192.09 93.95 C 191.99 94.35 191.77 95.14 191.66 95.54 L 191.67 96.31 L 191.03 96.63 C 190.12 97.06 189.22 97.52 188.34 97.98 C 185.86 97.63 183.38 97.33 180.90 97.01 C 180.77 95.81 180.65 94.61 180.53 93.42 Z" />
<path fill="#dbc3bd" opacity="1.00" d=" M 55.56 109.61 C 54.48 106.23 53.62 102.80 53.07 99.30 C 55.15 102.13 57.83 104.44 60.88 106.17 C 61.91 105.56 62.94 104.96 63.97 104.35 C 65.90 105.90 68.52 107.03 69.47 109.45 C 69.83 112.20 68.21 114.73 67.32 117.24 C 66.78 117.49 65.70 117.99 65.16 118.24 C 65.29 119.55 65.41 120.85 65.53 122.16 C 62.41 119.81 59.77 116.92 57.16 114.03 C 56.09 112.38 55.05 110.72 54.07 109.02 L 55.56 109.61 Z" />
<path fill="#dbc3bd" opacity="1.00" d=" M 29.79 100.50 C 31.73 99.96 33.72 99.57 35.72 99.32 C 37.18 100.55 38.64 101.78 40.10 103.01 C 39.39 103.77 38.68 104.54 37.97 105.31 C 35.20 104.19 32.50 102.90 29.84 101.53 L 28.68 100.90 L 29.79 100.50 Z" />
<path fill="#dbc3bd" opacity="1.00" d=" M 172.46 117.39 C 172.36 115.81 172.46 114.23 172.59 112.66 C 175.46 113.71 178.27 114.93 180.92 116.45 C 179.46 117.43 177.86 118.20 176.11 118.44 C 174.87 118.15 173.66 117.80 172.46 117.39 Z" />
<path fill="#dbc3bd" opacity="1.00" d=" M 152.33 121.05 C 158.29 121.24 164.23 120.61 170.18 120.68 C 171.87 122.83 172.62 125.53 173.26 128.14 C 175.39 138.41 173.42 148.96 169.79 158.65 C 169.64 159.14 169.33 160.12 169.18 160.61 C 168.67 159.50 168.17 158.39 167.67 157.28 C 165.83 158.06 164.03 159.05 162.04 159.41 C 159.89 158.37 157.94 156.97 155.89 155.76 C 158.52 149.61 159.01 142.75 158.45 136.15 C 157.97 130.56 153.90 126.28 152.33 121.05 Z" />
<path fill="#dbc3bd" opacity="1.00" d=" M 145.19 126.25 C 146.02 124.14 148.10 123.17 150.02 122.30 C 150.05 126.05 150.35 129.78 150.90 133.49 C 151.04 143.86 148.19 153.98 144.76 163.68 C 141.30 172.63 136.40 180.92 131.53 189.15 L 131.26 189.65 C 130.77 189.70 129.79 189.79 129.30 189.84 C 128.36 189.89 127.43 189.94 126.49 189.98 C 125.53 188.83 124.58 187.68 123.57 186.59 C 123.54 184.39 124.56 181.20 122.00 180.02 C 117.91 177.94 115.02 183.04 112.34 185.27 C 110.66 180.56 109.99 175.58 109.44 170.63 C 103.36 170.00 97.24 169.66 91.25 168.33 C 91.08 169.60 90.90 170.87 90.71 172.15 C 90.62 172.49 90.42 173.16 90.33 173.50 C 88.09 178.26 86.62 183.33 84.47 188.13 C 83.30 187.05 82.19 185.89 80.85 185.02 C 79.24 184.75 77.62 185.06 76.02 185.20 C 74.42 184.85 72.84 183.85 71.18 184.17 C 70.05 184.98 69.05 185.95 68.04 186.90 C 67.26 186.25 66.50 185.58 65.76 184.90 C 65.64 184.68 65.39 184.24 65.27 184.02 C 64.29 181.83 63.20 179.69 62.01 177.61 C 61.76 177.03 61.26 175.88 61.01 175.30 C 57.52 163.90 53.40 152.37 53.07 140.35 C 53.40 137.37 53.87 134.42 54.28 131.46 C 57.04 135.16 58.88 139.56 62.33 142.74 C 65.37 145.69 68.71 148.35 72.34 150.55 C 76.22 152.95 80.82 153.59 85.16 154.72 C 89.51 155.84 94.24 155.18 98.33 157.30 C 95.82 158.49 93.30 159.65 90.78 160.83 C 94.18 163.85 99.23 166.91 103.61 163.92 C 103.01 162.75 102.40 161.58 101.80 160.40 C 102.68 158.64 103.56 156.88 104.45 155.13 C 113.15 153.92 121.22 150.27 128.61 145.65 C 136.14 141.25 141.41 133.94 145.19 126.25 M 72.69 159.20 C 76.31 163.66 82.03 165.91 87.33 167.74 C 86.10 166.16 84.14 165.55 82.42 164.68 C 79.04 163.11 76.04 160.83 72.69 159.20 Z" />
</g>
<g id="#c6a6a7ff">
<path fill="#c6a6a7" opacity="1.00" d=" M 41.61 55.45 C 42.58 55.87 43.58 56.13 44.63 56.24 C 44.99 56.29 45.73 56.38 46.09 56.43 L 46.38 56.69 C 49.58 59.65 53.17 62.18 56.98 64.29 L 57.43 64.55 L 57.73 64.88 C 59.10 66.41 60.55 67.88 62.01 69.33 C 61.88 69.39 61.62 69.50 61.49 69.56 C 58.72 69.50 55.97 69.89 53.31 70.67 C 51.05 68.22 49.04 65.26 45.81 64.02 C 43.42 65.71 44.45 68.97 44.15 71.44 C 41.50 68.18 38.85 64.90 36.64 61.32 C 36.67 60.67 36.72 59.38 36.74 58.73 C 38.39 59.12 40.03 59.51 41.67 59.90 C 41.14 58.63 40.60 57.37 40.07 56.11 C 40.46 55.94 41.23 55.61 41.61 55.45 Z" />
<path fill="#c6a6a7" opacity="1.00" d=" M 36.06 75.23 C 36.95 75.51 37.84 75.80 38.73 76.10 C 39.54 80.89 40.83 85.61 42.96 90.00 L 41.96 90.78 L 41.32 90.11 C 39.42 87.86 36.92 86.29 34.32 84.97 L 33.78 84.48 L 33.22 83.90 C 32.24 82.75 31.08 81.76 29.95 80.77 C 31.85 80.03 33.86 80.10 35.84 80.41 C 34.86 78.99 33.90 77.57 32.95 76.14 C 33.99 75.84 35.02 75.53 36.06 75.23 Z" />
<path fill="#c6a6a7" opacity="1.00" d=" M 152.56 83.35 C 158.45 79.93 164.87 77.65 171.01 74.77 C 171.25 75.31 171.71 76.38 171.94 76.91 C 170.68 78.23 169.42 79.55 168.17 80.87 C 170.79 80.53 173.42 80.18 176.04 79.82 C 176.62 80.13 177.76 80.75 178.33 81.06 C 177.93 81.57 177.12 82.59 176.71 83.10 L 176.35 83.56 L 175.61 83.68 C 174.27 83.67 173.45 84.85 172.82 85.87 C 172.61 86.09 172.19 86.54 171.98 86.77 C 169.83 88.19 167.83 90.00 165.39 90.86 C 163.84 89.61 162.51 88.13 161.13 86.71 C 160.32 87.90 159.50 89.08 158.67 90.25 C 158.35 87.84 157.87 85.45 157.31 83.08 C 155.73 83.16 154.14 83.21 152.56 83.35 Z" />
<path fill="#c6a6a7" opacity="1.00" d=" M 175.24 94.47 C 177.01 94.14 178.77 93.79 180.53 93.42 C 180.65 94.61 180.77 95.81 180.90 97.01 C 183.38 97.33 185.86 97.63 188.34 97.98 C 187.04 98.88 185.83 99.89 184.64 100.92 L 184.13 101.36 C 183.89 101.45 183.41 101.63 183.18 101.72 C 179.75 102.95 176.35 104.46 173.63 106.94 L 173.05 107.42 C 172.80 107.48 172.30 107.60 172.05 107.66 C 170.79 107.96 169.53 108.26 168.27 108.58 C 170.20 107.08 172.32 105.79 173.99 103.98 C 174.60 101.66 173.48 99.38 172.95 97.15 C 173.72 96.26 174.48 95.36 175.24 94.47 Z" />
<path fill="#c6a6a7" opacity="1.00" d=" M 35.72 99.32 C 39.41 99.00 43.13 98.92 46.83 99.07 L 47.30 99.79 C 45.08 100.99 43.87 103.08 43.29 105.47 C 43.96 105.73 45.29 106.26 45.96 106.53 C 45.61 106.76 44.93 107.23 44.59 107.46 C 42.34 106.87 40.13 106.15 37.97 105.31 C 38.68 104.54 39.39 103.77 40.10 103.01 C 38.64 101.78 37.18 100.55 35.72 99.32 Z" />
<path fill="#c6a6a7" opacity="1.00" d=" M 153.09 126.20 C 156.91 132.04 158.12 139.14 157.34 146.00 C 155.62 154.17 152.52 162.91 145.01 167.50 C 150.23 154.36 152.73 140.30 153.09 126.20 Z" />
<path fill="#c6a6a7" opacity="1.00" d=" M 147.32 167.21 C 151.33 164.42 153.94 160.14 155.89 155.76 C 157.94 156.97 159.89 158.37 162.04 159.41 C 164.03 159.05 165.83 158.06 167.67 157.28 C 168.17 158.39 168.67 159.50 169.18 160.61 L 168.70 160.79 C 167.37 161.04 167.00 162.49 166.86 163.63 C 166.67 163.96 166.29 164.61 166.10 164.94 C 165.79 165.36 165.19 166.20 164.89 166.62 L 164.89 167.23 L 164.19 167.85 C 161.53 170.08 159.18 172.65 156.77 175.15 C 156.58 175.27 156.19 175.51 156.00 175.63 C 150.06 178.62 144.00 181.63 137.28 182.31 C 140.56 177.25 141.90 170.57 147.32 167.21 Z" />
<path fill="#c6a6a7" opacity="1.00" d=" M 97.24 171.48 C 100.84 170.75 104.45 171.60 108.04 171.97 C 108.42 174.35 108.69 176.74 108.81 179.14 C 108.21 178.83 106.99 178.21 106.39 177.90 C 103.85 176.21 101.29 174.56 98.79 172.83 C 98.40 172.49 97.63 171.82 97.24 171.48 Z" />
</g>
</svg>
