<?xml version="1.0" encoding="UTF-8" ?>
<!DOCTYPE svg PUBLIC "-//W3C//DTD SVG 1.1//EN" "http://www.w3.org/Graphics/SVG/1.1/DTD/svg11.dtd">
<svg width="215pt" height="215pt" viewBox="0 0 215 215" version="1.1" xmlns="http://www.w3.org/2000/svg">
<g id="#0a090792">
<path fill="#0a0907" opacity="0.57" d=" M 159.22 25.25 C 161.53 23.90 161.14 28.05 159.05 27.57 C 159.10 26.99 159.18 25.83 159.22 25.25 Z" />
</g>
<g id="#fbf7e3ff">
<path fill="#fbf7e3" opacity="1.00" d=" M 143.85 30.78 C 148.15 28.75 153.02 28.31 157.34 26.36 C 157.95 27.27 158.14 28.90 156.61 28.87 C 151.95 30.51 146.08 30.36 142.72 34.45 C 145.49 33.36 148.21 32.10 151.11 31.36 C 151.57 31.61 152.48 32.13 152.94 32.38 C 151.65 32.70 150.36 33.03 149.08 33.35 C 148.34 34.83 147.91 36.55 146.78 37.79 C 145.01 38.51 143.11 38.89 141.27 39.37 C 140.17 38.59 139.11 35.89 137.64 37.29 C 137.38 38.85 137.36 40.45 137.33 42.03 C 134.27 44.17 130.12 44.58 128.28 48.24 C 128.20 46.37 128.32 44.49 128.71 42.65 L 128.78 42.28 C 130.33 41.10 131.19 39.28 132.27 37.70 C 132.41 37.62 132.69 37.45 132.83 37.37 C 134.23 36.92 135.43 36.04 136.33 34.89 C 136.49 34.75 136.81 34.48 136.98 34.35 C 139.32 33.26 141.59 32.04 143.85 30.78 Z" />
</g>
<g id="#5f583eff">
<path fill="#5f583e" opacity="1.00" d=" M 186.86 27.47 C 186.32 28.99 185.54 30.57 183.89 31.11 L 185.23 29.05 C 182.63 30.07 179.94 30.82 177.24 31.49 C 169.70 33.09 162.19 30.73 154.63 31.01 C 153.45 31.04 152.28 31.17 151.11 31.36 C 148.21 32.10 145.49 33.36 142.72 34.45 C 146.08 30.36 151.95 30.51 156.61 28.87 L 154.59 30.29 C 165.36 30.73 176.95 33.16 186.86 27.47 Z" />
<path fill="#5f583e" opacity="1.00" d=" M 71.03 37.35 C 75.37 32.21 82.54 30.63 89.01 30.71 C 92.00 30.82 95.46 30.36 97.97 32.29 C 90.13 30.59 81.28 30.83 74.34 35.26 C 73.22 35.94 72.12 36.64 71.03 37.35 Z" />
<path fill="#5f583e" opacity="1.00" d=" M 137.64 37.29 C 139.11 35.89 140.17 38.59 141.27 39.37 C 144.57 44.39 147.23 49.79 149.82 55.21 L 150.18 55.68 C 151.28 56.05 152.37 56.46 153.45 56.91 C 152.53 56.83 150.69 56.66 149.77 56.58 C 150.58 58.13 151.49 59.68 151.80 61.44 C 148.50 56.26 146.28 50.52 143.45 45.10 C 142.12 42.31 140.44 39.65 137.84 37.86 C 139.81 40.88 141.22 44.24 141.70 47.83 C 142.01 50.13 142.22 52.43 142.46 54.74 C 141.84 54.51 140.61 54.05 139.99 53.82 C 138.67 53.32 137.34 52.84 136.01 52.35 C 137.56 49.12 137.37 45.52 137.33 42.03 C 137.36 40.45 137.38 38.85 137.64 37.29 M 138.50 44.18 C 138.48 46.82 138.46 49.47 138.45 52.12 C 139.23 52.60 140.79 53.57 141.57 54.06 C 141.64 50.76 140.17 47.70 140.29 44.40 L 138.50 44.18 Z" />
<path fill="#5f583e" opacity="1.00" d=" M 66.90 41.06 C 68.20 40.38 69.02 39.10 70.09 38.13 C 69.77 38.76 69.15 40.01 68.84 40.64 C 70.63 40.84 72.43 41.01 74.22 41.24 C 78.12 42.03 81.74 43.82 84.90 46.22 C 89.41 49.36 92.10 54.21 94.87 58.81 C 96.09 61.47 96.84 64.31 97.47 67.16 C 97.82 69.76 97.85 72.39 97.39 74.98 C 95.62 84.49 91.50 93.40 90.24 103.03 C 87.86 115.26 90.48 128.68 98.03 138.69 C 99.68 136.88 98.07 134.76 97.61 132.82 C 95.13 125.74 95.39 118.05 96.62 110.75 C 98.63 100.76 104.03 91.92 109.53 83.50 C 112.09 79.72 113.68 75.42 115.17 71.14 C 114.59 69.53 113.61 67.97 113.67 66.21 C 113.42 64.21 115.99 63.92 117.18 62.88 C 116.97 60.54 116.80 58.20 116.47 55.87 C 115.97 52.76 114.52 49.91 113.69 46.90 C 115.83 48.28 115.25 51.66 117.55 52.82 L 117.55 52.82 C 117.48 54.28 117.50 55.75 117.61 57.21 C 117.73 59.05 117.77 60.89 117.78 62.73 C 119.80 62.11 121.82 61.52 123.86 60.97 C 123.19 59.72 122.56 58.47 121.94 57.20 C 123.51 57.74 123.98 59.57 124.96 60.74 C 125.53 60.10 126.66 58.82 127.22 58.17 C 126.87 58.92 126.18 60.41 125.83 61.15 C 121.39 62.34 116.36 63.72 114.28 68.29 C 115.45 69.13 116.36 70.67 117.81 70.97 C 121.88 69.14 126.61 68.88 130.25 66.14 C 130.64 66.21 131.41 66.35 131.80 66.42 C 129.34 67.83 126.85 69.37 123.97 69.69 C 122.13 69.89 120.43 70.47 119.11 71.79 C 122.31 73.34 125.92 73.50 129.19 74.81 L 127.74 74.94 C 127.34 76.66 127.01 78.39 126.68 80.12 C 128.70 82.79 129.86 85.94 130.69 89.16 C 131.53 87.26 132.36 85.35 133.23 83.46 C 132.24 89.18 128.69 94.09 127.64 99.82 C 126.46 103.91 126.09 108.40 127.46 112.49 C 128.53 114.43 130.56 115.69 131.85 117.50 C 131.76 116.28 131.59 113.85 131.51 112.63 C 132.23 115.47 132.95 118.36 134.51 120.88 L 133.12 121.26 C 130.51 117.98 126.42 115.65 125.78 111.12 C 125.55 107.79 126.32 104.40 125.41 101.13 C 126.94 97.44 128.27 93.67 129.81 89.99 C 129.08 87.15 128.84 83.95 126.71 81.75 C 123.94 89.55 118.93 96.27 113.61 102.49 C 106.39 111.20 100.69 122.10 101.16 133.69 C 110.97 124.79 118.19 113.61 124.60 102.13 L 124.79 103.96 C 121.03 111.90 115.70 118.91 110.29 125.78 C 107.02 129.47 103.40 132.86 100.44 136.83 C 100.21 137.20 99.76 137.94 99.53 138.31 C 98.16 140.88 96.26 145.79 100.13 147.00 C 106.32 149.44 113.12 147.06 119.06 144.97 C 121.49 140.61 119.35 135.78 119.57 131.16 C 121.39 135.25 121.97 139.75 120.67 144.09 C 122.14 143.65 123.62 143.22 125.10 142.80 C 125.08 139.31 124.94 135.81 124.50 132.35 C 124.08 126.64 124.36 120.92 124.34 115.21 C 126.17 120.18 124.53 125.65 125.91 130.77 C 126.20 134.65 126.27 138.54 126.53 142.41 C 129.29 141.77 132.11 141.50 134.89 141.02 C 136.86 139.98 135.95 137.53 136.24 135.77 C 136.30 133.23 136.79 130.73 136.78 128.19 C 136.75 127.53 136.69 126.20 136.66 125.54 L 138.10 125.89 C 138.13 127.46 138.16 129.04 138.19 130.62 C 138.04 131.50 137.73 133.27 137.58 134.15 C 138.14 133.88 139.26 133.36 139.82 133.09 C 139.99 134.57 140.18 136.05 140.39 137.53 C 139.69 136.47 138.98 135.42 138.26 134.38 C 137.74 136.33 137.32 138.29 136.95 140.27 C 138.29 140.18 139.62 140.15 140.97 140.17 L 141.28 140.82 C 139.79 141.21 138.35 141.72 136.81 141.78 C 130.55 142.27 124.43 143.99 118.59 146.24 C 111.67 149.01 102.96 151.66 96.62 146.12 C 96.50 143.86 96.73 141.60 97.19 139.39 C 90.11 130.84 87.44 119.32 88.25 108.40 C 88.84 101.36 90.47 94.42 92.83 87.78 C 95.25 80.12 97.82 71.82 95.47 63.82 C 93.57 57.46 89.61 51.74 84.56 47.46 C 79.37 43.50 72.72 40.39 66.07 41.90 C 59.79 42.67 54.30 45.93 49.02 49.19 C 53.63 44.37 60.47 42.22 66.90 41.06 M 116.03 71.45 C 114.29 80.54 107.78 87.63 103.61 95.65 C 100.38 102.04 97.70 108.87 97.14 116.07 C 95.91 122.64 97.51 129.21 99.12 135.56 L 100.24 135.11 C 100.95 131.46 99.76 127.54 100.80 123.86 C 102.82 116.68 106.17 109.81 110.92 104.03 C 116.82 96.66 123.13 89.16 125.93 79.97 C 126.08 78.37 127.27 76.58 126.31 75.06 C 122.70 74.40 119.20 73.34 116.03 71.45 Z" />
<path fill="#5f583e" opacity="1.00" d=" M 128.15 44.05 C 128.29 43.70 128.57 43.00 128.71 42.65 C 128.32 44.49 128.20 46.37 128.28 48.24 C 128.82 49.90 129.92 51.28 130.97 52.64 C 132.13 52.54 133.30 52.45 134.47 52.36 L 134.43 52.85 C 131.74 54.14 129.10 55.66 127.29 58.09 C 128.38 54.93 125.51 52.37 124.68 49.50 C 126.16 51.15 127.36 53.02 128.17 55.08 C 128.65 54.72 129.63 53.99 130.12 53.63 C 128.27 51.47 127.15 48.86 126.39 46.14 C 126.77 46.19 127.51 46.30 127.89 46.35 C 127.95 45.78 128.08 44.62 128.15 44.05 Z" />
<path fill="#5f583e" opacity="1.00" d=" M 38.53 67.41 C 39.61 64.26 39.66 60.39 42.10 57.91 C 41.35 60.75 40.23 63.48 39.76 66.39 C 41.78 65.61 43.82 64.88 45.96 64.50 C 48.06 64.35 50.18 64.40 52.26 64.77 C 56.77 65.65 61.10 67.79 64.32 71.10 C 74.02 79.93 75.28 93.72 76.90 105.94 C 78.15 115.24 81.16 124.56 86.69 132.22 C 88.94 135.64 92.57 137.66 95.44 140.47 C 90.70 139.09 86.65 136.20 82.43 133.77 C 79.86 132.23 77.32 130.65 74.66 129.29 C 61.39 121.68 44.45 120.39 30.64 127.32 C 30.21 127.53 29.34 127.94 28.91 128.15 C 32.30 124.85 37.34 123.68 41.89 122.91 C 41.39 122.39 40.40 121.34 39.91 120.82 C 44.17 123.20 49.19 120.97 53.77 121.68 C 49.02 117.47 45.42 112.13 42.72 106.41 C 40.27 100.94 39.02 95.01 39.19 89.01 C 39.18 87.76 39.42 86.53 40.17 85.50 C 39.78 92.06 40.28 98.73 43.27 104.70 C 45.69 110.77 49.45 116.37 54.39 120.67 C 56.06 122.38 58.56 122.19 60.74 122.61 C 70.59 124.23 78.82 130.25 87.19 135.26 C 80.54 126.54 76.72 115.89 75.51 105.04 C 74.95 100.65 74.51 96.24 73.43 91.93 C 71.89 82.45 67.09 73.12 58.50 68.24 C 51.13 63.76 41.84 65.69 35.00 70.25 C 35.75 68.85 37.27 68.24 38.53 67.41 Z" />
<path fill="#5f583e" opacity="1.00" d=" M 151.85 61.55 C 153.58 63.54 154.24 66.16 155.16 68.58 C 158.92 79.01 161.71 89.87 162.49 100.97 C 162.81 106.75 161.56 112.52 158.87 117.64 C 157.74 125.88 154.39 133.61 151.49 141.34 C 155.05 142.28 158.59 143.35 161.98 144.81 L 161.81 145.07 L 161.57 145.43 C 157.59 144.09 153.58 141.70 149.24 142.39 C 149.07 141.90 148.75 140.93 148.58 140.44 C 151.85 142.44 151.70 137.65 152.78 135.94 C 155.03 130.22 156.92 124.35 158.17 118.32 C 154.58 122.85 150.26 126.72 146.52 131.13 C 146.28 130.52 145.81 129.31 145.58 128.70 C 144.65 129.97 143.73 131.25 142.86 132.56 C 142.73 132.17 142.46 131.37 142.32 130.98 C 144.66 128.20 147.20 125.59 149.46 122.74 C 149.37 123.72 149.20 125.66 149.12 126.64 C 151.16 124.13 153.40 121.73 154.80 118.78 C 155.00 119.06 155.40 119.61 155.59 119.89 C 156.82 116.98 159.56 115.00 160.52 111.97 C 160.77 111.04 160.99 110.10 161.19 109.15 C 162.78 101.91 161.10 94.53 159.86 87.37 C 159.36 84.64 158.60 81.97 157.81 79.32 C 156.31 73.24 153.88 67.45 151.85 61.55 Z" />
<path fill="#5f583e" opacity="1.00" d=" M 47.14 143.08 C 52.92 136.72 61.95 135.20 70.15 135.74 C 73.10 136.15 76.04 136.67 78.95 137.35 C 84.39 138.87 90.04 139.90 95.17 142.35 C 94.29 142.35 92.52 142.34 91.64 142.33 C 92.71 143.62 93.85 144.89 94.77 146.31 C 92.87 149.30 92.53 153.26 94.80 156.16 C 98.35 161.04 104.69 161.72 110.05 163.31 C 112.95 164.31 115.79 162.48 118.51 161.67 C 116.88 163.45 114.50 163.81 112.26 164.25 C 115.92 165.16 119.28 166.98 122.97 167.79 C 123.42 165.01 123.78 162.21 123.55 159.39 C 122.07 160.02 120.61 160.67 119.15 161.35 C 121.07 159.66 123.25 158.33 125.43 157.01 C 128.67 155.02 132.03 153.19 135.66 152.03 C 141.05 150.36 146.81 149.71 152.41 150.50 C 151.01 150.76 149.62 151.10 148.21 151.36 C 145.53 151.73 142.82 151.91 140.12 152.14 C 139.85 153.42 139.54 154.70 139.21 155.97 L 138.94 156.73 C 138.79 156.22 138.50 155.19 138.35 154.68 C 138.36 154.17 138.37 153.13 138.37 152.62 C 135.47 152.76 133.00 154.73 133.80 157.86 C 135.26 157.29 136.73 156.73 138.21 156.20 C 136.45 157.75 134.68 159.30 133.01 160.94 C 132.77 160.99 132.29 161.07 132.06 161.12 C 132.21 158.82 132.60 156.56 133.08 154.32 C 130.48 155.62 127.76 156.77 125.48 158.60 C 124.25 160.61 124.28 163.13 123.90 165.41 C 123.83 166.02 123.70 167.26 123.63 167.87 C 126.57 169.63 129.47 171.47 132.34 173.34 L 132.11 172.20 C 132.33 173.24 132.57 174.27 132.80 175.31 C 128.92 172.81 125.10 170.15 120.88 168.23 C 114.66 165.10 107.68 164.29 101.18 161.99 C 98.27 160.85 95.61 159.11 93.54 156.75 C 92.76 155.29 92.22 153.71 91.96 152.07 C 91.99 149.68 92.92 147.47 93.95 145.35 C 89.13 143.69 84.04 145.08 79.27 146.20 C 75.36 147.09 71.99 149.36 68.81 151.72 C 67.39 152.89 66.10 154.21 64.87 155.58 L 64.76 154.19 C 71.38 146.21 82.30 143.22 92.33 143.13 C 84.44 139.55 75.71 137.37 67.02 137.05 C 60.48 137.19 52.57 137.76 48.47 143.64 C 45.92 146.42 44.26 149.95 44.10 153.75 C 43.82 156.53 44.95 159.13 46.10 161.59 C 45.66 161.49 44.78 161.31 44.34 161.21 C 43.67 158.56 43.21 155.85 43.17 153.11 C 43.23 151.48 43.53 149.86 44.11 148.33 C 45.01 146.52 46.06 144.79 47.14 143.08 Z" />
</g>
<g id="#efe4a4ff">
<path fill="#efe4a4" opacity="1.00" d=" M 177.24 31.49 C 179.94 30.82 182.63 30.07 185.23 29.05 L 183.89 31.11 C 183.77 31.22 183.53 31.43 183.42 31.54 C 179.65 34.48 175.53 37.05 170.92 38.42 C 171.48 37.35 172.06 36.28 172.63 35.21 C 171.03 34.98 169.43 34.74 167.84 34.48 C 170.90 33.22 174.51 33.49 177.24 31.49 Z" />
<path fill="#efe4a4" opacity="1.00" d=" M 122.12 45.34 C 123.19 45.54 125.32 45.94 126.39 46.14 C 127.15 48.86 128.27 51.47 130.12 53.63 C 129.63 53.99 128.65 54.72 128.17 55.08 C 127.36 53.02 126.16 51.15 124.68 49.50 C 124.59 49.38 124.41 49.14 124.31 49.01 C 123.57 47.79 122.84 46.57 122.12 45.34 Z" />
</g>
<g id="#36342ca3">
<path fill="#36342c" opacity="0.64" d=" M 136.98 34.35 C 138.39 32.19 141.33 30.95 143.85 30.78 C 141.59 32.04 139.32 33.26 136.98 34.35 Z" />
</g>
<g id="#f0e4a1ff">
<path fill="#f0e4a1" opacity="1.00" d=" M 151.11 31.36 C 152.28 31.17 153.45 31.04 154.63 31.01 C 158.97 31.78 161.76 35.72 166.11 36.46 C 166.32 37.27 166.53 38.08 166.76 38.88 L 167.00 39.24 C 172.21 41.31 177.56 43.37 181.97 46.94 C 184.27 49.00 186.34 51.31 188.51 53.51 C 188.59 53.71 188.75 54.12 188.83 54.32 C 189.15 54.76 189.79 55.62 190.12 56.06 C 190.26 56.26 190.54 56.66 190.68 56.86 C 191.06 57.78 191.82 59.63 192.20 60.55 L 190.07 59.07 C 189.87 58.84 189.47 58.38 189.28 58.15 C 188.56 56.96 187.48 56.08 186.20 55.59 C 186.00 55.45 185.62 55.18 185.42 55.05 C 184.55 53.92 183.40 53.03 182.01 52.68 C 181.57 52.46 180.68 52.02 180.24 51.80 C 179.03 50.83 177.66 50.10 176.16 49.71 C 175.67 49.53 174.68 49.18 174.18 49.00 C 170.77 47.58 167.12 47.00 163.57 46.04 C 161.38 45.09 159.01 44.81 156.66 45.28 C 157.43 46.32 158.54 46.81 159.81 46.84 C 161.17 47.49 162.52 48.20 163.80 49.02 C 165.07 50.07 166.31 51.18 167.37 52.46 L 168.74 54.40 C 166.25 54.24 164.43 52.28 162.39 51.09 C 162.43 52.13 162.47 53.18 162.51 54.22 C 158.24 53.77 153.79 53.09 149.82 55.21 C 147.23 49.79 144.57 44.39 141.27 39.37 C 143.11 38.89 145.01 38.51 146.78 37.79 C 147.91 36.55 148.34 34.83 149.08 33.35 C 150.36 33.03 151.65 32.70 152.94 32.38 C 152.48 32.13 151.57 31.61 151.11 31.36 Z" />
<path fill="#f0e4a1" opacity="1.00" d=" M 89.01 39.12 C 92.56 41.66 96.98 40.29 100.30 38.08 C 102.29 39.58 104.20 41.18 106.02 42.89 C 106.56 41.45 107.32 40.11 108.18 38.84 C 110.16 40.71 111.70 42.97 113.05 45.32 C 113.21 45.71 113.53 46.50 113.69 46.90 C 114.52 49.91 115.97 52.76 116.47 55.87 C 116.38 56.51 116.19 57.80 116.10 58.44 C 114.94 58.02 113.78 57.60 112.62 57.19 C 111.37 60.59 108.76 63.08 105.81 65.04 C 104.33 62.83 102.70 60.72 100.78 58.88 C 100.49 60.25 100.23 61.62 99.97 63.00 C 98.35 61.51 96.63 60.14 94.87 58.81 C 92.10 54.21 89.41 49.36 84.90 46.22 C 85.43 43.78 87.14 42.07 89.75 42.27 C 89.50 41.22 89.26 40.17 89.01 39.12 Z" />
<path fill="#f0e4a1" opacity="1.00" d=" M 48.47 143.64 C 52.57 137.76 60.48 137.19 67.02 137.05 C 75.71 137.37 84.44 139.55 92.33 143.13 C 82.30 143.22 71.38 146.21 64.76 154.19 L 64.69 153.88 C 64.15 152.27 63.50 150.70 62.85 149.15 C 61.32 149.23 59.79 149.31 58.27 149.39 C 59.08 146.78 59.97 144.20 61.09 141.72 C 57.24 143.48 52.84 143.60 49.17 145.82 C 48.99 145.27 48.64 144.18 48.47 143.64 Z" />
<path fill="#f0e4a1" opacity="1.00" d=" M 33.50 143.27 C 36.03 141.80 38.57 140.34 41.19 139.02 C 39.75 141.44 38.02 143.67 36.16 145.78 C 37.42 145.36 38.67 144.94 39.93 144.53 C 41.33 145.79 42.73 147.06 44.11 148.33 C 43.53 149.86 43.23 151.48 43.17 153.11 C 39.35 154.03 35.43 153.48 31.56 153.55 C 31.17 153.97 30.37 154.79 29.97 155.20 C 27.96 153.29 26.23 151.10 24.87 148.67 C 23.51 146.24 22.72 143.52 22.55 140.75 C 23.58 140.57 24.60 140.41 25.63 140.24 C 25.81 142.15 25.98 144.07 26.16 145.98 C 28.30 143.59 30.63 141.33 33.51 139.84 C 33.51 140.98 33.50 142.12 33.50 143.27 Z" />
<path fill="#f0e4a1" opacity="1.00" d=" M 94.77 146.31 C 95.23 146.26 96.16 146.17 96.62 146.12 C 102.96 151.66 111.67 149.01 118.59 146.24 C 120.00 146.54 121.42 146.84 122.84 147.13 C 122.25 147.80 121.66 148.47 121.07 149.14 C 123.08 149.14 125.08 149.14 127.08 149.16 C 125.40 151.20 123.61 153.16 121.68 154.96 C 123.22 155.19 125.22 154.95 125.43 157.01 C 123.25 158.33 121.07 159.66 119.15 161.35 C 118.99 161.43 118.67 161.59 118.51 161.67 C 115.79 162.48 112.95 164.31 110.05 163.31 C 104.69 161.72 98.35 161.04 94.80 156.16 C 92.53 153.26 92.87 149.30 94.77 146.31 Z" />
<path fill="#f0e4a1" opacity="1.00" d=" M 65.27 160.59 L 65.86 160.46 C 68.50 163.39 70.90 166.96 74.87 168.15 C 80.70 169.95 86.96 170.66 93.04 170.12 C 96.16 167.91 97.25 163.41 101.18 161.99 C 107.68 164.29 114.66 165.10 120.88 168.23 C 116.50 169.30 112.40 171.55 107.81 171.56 C 109.42 172.47 111.03 173.39 112.66 174.28 C 112.54 175.09 112.43 175.90 112.31 176.71 C 113.26 177.46 114.21 178.20 115.16 178.96 C 103.48 177.98 91.87 180.51 80.21 179.48 C 77.58 179.13 74.98 178.43 72.59 177.28 C 67.84 173.93 63.21 169.48 62.74 163.32 C 63.57 162.40 64.39 161.47 65.27 160.59 Z" />
</g>
<g id="#f6efc8ff">
<path fill="#f6efc8" opacity="1.00" d=" M 154.63 31.01 C 162.19 30.73 169.70 33.09 177.24 31.49 C 174.51 33.49 170.90 33.22 167.84 34.48 C 169.43 34.74 171.03 34.98 172.63 35.21 C 172.06 36.28 171.48 37.35 170.92 38.42 C 169.53 38.60 168.14 38.75 166.76 38.88 C 166.53 38.08 166.32 37.27 166.11 36.46 C 161.76 35.72 158.97 31.78 154.63 31.01 Z" />
</g>
<g id="#fbf7e2ff">
<path fill="#fbf7e2" opacity="1.00" d=" M 74.34 35.26 C 81.28 30.83 90.13 30.59 97.97 32.29 C 100.55 32.87 102.96 34.11 104.96 35.83 C 106.05 36.81 107.13 37.82 108.18 38.84 C 107.32 40.11 106.56 41.45 106.02 42.89 C 104.20 41.18 102.29 39.58 100.30 38.08 C 96.98 40.29 92.56 41.66 89.01 39.12 C 89.26 40.17 89.50 41.22 89.75 42.27 C 87.14 42.07 85.43 43.78 84.90 46.22 C 81.74 43.82 78.12 42.03 74.22 41.24 C 76.01 39.60 78.38 39.29 80.69 39.04 C 79.18 36.89 76.73 36.00 74.34 35.26 Z" />
<path fill="#fbf7e2" opacity="1.00" d=" M 35.00 70.25 C 41.84 65.69 51.13 63.76 58.50 68.24 C 57.07 68.31 55.64 68.38 54.21 68.44 C 55.23 69.73 56.24 71.02 57.24 72.32 C 54.03 72.35 50.83 72.30 47.62 72.24 C 48.99 73.12 50.38 73.99 51.76 74.86 C 50.69 75.50 49.60 76.12 48.60 76.87 C 48.01 78.50 48.99 81.04 47.07 81.90 C 44.79 83.14 42.32 84.02 40.17 85.50 C 39.42 86.53 39.18 87.76 39.19 89.01 C 38.40 89.63 37.61 90.24 36.82 90.85 C 35.91 89.47 35.03 88.08 34.17 86.68 C 32.61 87.81 31.05 88.94 29.48 90.06 C 29.09 88.36 28.70 86.66 28.31 84.96 C 27.50 85.98 26.68 87.00 25.86 88.02 C 25.71 87.49 25.40 86.44 25.25 85.91 C 25.60 83.69 26.43 81.59 27.19 79.49 C 27.36 79.21 27.72 78.65 27.89 78.37 C 29.28 76.99 30.49 75.44 31.44 73.72 C 31.53 73.62 31.73 73.40 31.82 73.30 C 32.88 72.65 33.74 71.81 34.40 70.77 C 34.55 70.64 34.85 70.38 35.00 70.25 Z" />
<path fill="#fbf7e2" opacity="1.00" d=" M 31.10 130.82 C 35.78 128.25 40.67 125.49 46.20 125.63 C 45.29 126.53 44.38 127.43 43.46 128.32 C 43.32 130.45 43.22 132.58 43.14 134.71 C 45.75 134.49 48.36 134.29 50.97 134.08 C 48.55 136.51 47.75 139.82 47.14 143.08 C 46.06 144.79 45.01 146.52 44.11 148.33 C 42.73 147.06 41.33 145.79 39.93 144.53 C 38.67 144.94 37.42 145.36 36.16 145.78 C 38.02 143.67 39.75 141.44 41.19 139.02 C 38.57 140.34 36.03 141.80 33.50 143.27 C 33.50 142.12 33.51 140.98 33.51 139.84 C 30.63 141.33 28.30 143.59 26.16 145.98 C 25.98 144.07 25.81 142.15 25.63 140.24 C 24.60 140.41 23.58 140.57 22.55 140.75 C 23.26 138.04 23.22 134.92 24.99 132.63 C 26.39 131.65 27.46 130.31 28.26 128.82 C 28.42 128.65 28.75 128.32 28.91 128.15 C 29.34 127.94 30.21 127.53 30.64 127.32 C 30.75 128.20 30.98 129.95 31.10 130.82 Z" />
</g>
<g id="#4e4a35b7">
<path fill="#4e4a35" opacity="0.72" d=" M 170.92 38.42 C 175.53 37.05 179.65 34.48 183.42 31.54 C 182.92 33.25 181.26 34.05 179.91 34.97 C 176.80 36.81 173.61 38.71 169.99 39.32 C 177.02 42.67 184.78 46.29 188.51 53.51 C 186.34 51.31 184.27 49.00 181.97 46.94 C 177.56 43.37 172.21 41.31 167.00 39.24 L 166.76 38.88 C 168.14 38.75 169.53 38.60 170.92 38.42 Z" />
</g>
<g id="#efe49fff">
<path fill="#efe49f" opacity="1.00" d=" M 71.03 37.35 C 72.12 36.64 73.22 35.94 74.34 35.26 C 76.73 36.00 79.18 36.89 80.69 39.04 C 78.38 39.29 76.01 39.60 74.22 41.24 C 72.43 41.01 70.63 40.84 68.84 40.64 C 69.15 40.01 69.77 38.76 70.09 38.13 C 70.32 37.93 70.79 37.54 71.03 37.35 Z" />
</g>
<g id="#5c5a52df">
<path fill="#5c5a52" opacity="0.87" d=" M 132.83 37.37 C 132.38 35.79 134.98 34.39 136.33 34.89 C 135.43 36.04 134.23 36.92 132.83 37.37 Z" />
</g>
<g id="#00000017">
<path fill="#000000" opacity="0.09" d=" M 104.96 35.83 C 108.63 36.59 110.98 40.23 112.89 43.20 C 112.93 43.73 113.01 44.79 113.05 45.32 C 111.70 42.97 110.16 40.71 108.18 38.84 C 107.13 37.82 106.05 36.81 104.96 35.83 Z" />
<path fill="#000000" opacity="0.09" d=" M 159.81 46.84 C 160.75 46.64 162.63 46.24 163.57 46.04 C 167.12 47.00 170.77 47.58 174.18 49.00 C 170.46 49.32 166.93 47.86 163.38 47.00 C 163.48 47.51 163.69 48.52 163.80 49.02 C 162.52 48.20 161.17 47.49 159.81 46.84 Z" />
<path fill="#000000" opacity="0.09" d=" M 139.82 133.09 C 140.73 132.49 141.57 131.78 142.32 130.98 C 142.46 131.37 142.73 132.17 142.86 132.56 C 142.64 134.99 141.24 137.45 142.03 139.89 C 143.95 141.64 146.60 140.24 148.81 140.12 C 146.58 141.66 143.79 141.38 141.28 140.82 L 140.97 140.17 C 140.77 139.29 140.58 138.41 140.39 137.53 C 140.18 136.05 139.99 134.57 139.82 133.09 Z" />
<path fill="#000000" opacity="0.09" d=" M 24.87 148.67 C 26.23 151.10 27.96 153.29 29.97 155.20 L 31.02 156.16 C 27.64 155.76 24.84 152.01 24.87 148.67 Z" />
</g>
<g id="#25242195">
<path fill="#252421" opacity="0.58" d=" M 128.78 42.28 C 128.28 40.38 130.24 37.45 132.27 37.70 C 131.19 39.28 130.33 41.10 128.78 42.28 Z" />
</g>
<g id="#fcf8e3ff">
<path fill="#fcf8e3" opacity="1.00" d=" M 137.84 37.86 C 140.44 39.65 142.12 42.31 143.45 45.10 C 143.01 45.78 142.14 47.15 141.70 47.83 C 141.22 44.24 139.81 40.88 137.84 37.86 Z" />
<path fill="#fcf8e3" opacity="1.00" d=" M 49.17 145.82 C 52.84 143.60 57.24 143.48 61.09 141.72 C 59.97 144.20 59.08 146.78 58.27 149.39 C 59.79 149.31 61.32 149.23 62.85 149.15 C 63.50 150.70 64.15 152.27 64.69 153.88 C 63.67 156.20 62.59 158.49 61.66 160.86 L 61.19 162.10 C 60.16 160.47 59.20 158.80 58.28 157.12 C 57.08 158.12 55.88 159.13 54.67 160.12 C 53.68 158.15 53.05 156.03 52.57 153.88 C 49.80 154.90 48.97 157.98 47.51 160.25 C 46.74 157.91 45.81 155.58 44.10 153.75 C 44.26 149.95 45.92 146.42 48.47 143.64 C 48.64 144.18 48.99 145.27 49.17 145.82 Z" />
</g>
<g id="#fbf8e3ff">
<path fill="#fbf8e3" opacity="1.00" d=" M 49.02 49.19 C 54.30 45.93 59.79 42.67 66.07 41.90 C 72.72 40.39 79.37 43.50 84.56 47.46 C 83.21 47.82 81.85 48.19 80.49 48.55 C 80.22 49.02 79.68 49.96 79.41 50.43 C 77.33 49.57 75.08 48.75 72.81 49.42 C 68.55 50.45 64.18 50.65 59.84 51.07 C 61.18 51.98 62.53 52.87 63.88 53.77 C 61.31 55.37 58.42 56.30 55.46 56.91 C 56.23 60.02 54.83 62.97 52.26 64.77 C 50.18 64.40 48.06 64.35 45.96 64.50 C 46.92 63.13 47.88 61.76 48.82 60.38 C 47.92 59.75 47.02 59.12 46.11 58.50 C 47.99 57.28 50.11 56.24 51.28 54.23 C 48.11 54.84 45.18 56.21 42.22 57.46 C 42.38 57.23 42.71 56.79 42.87 56.57 C 43.92 55.60 44.82 54.46 45.31 53.11 C 45.44 52.91 45.69 52.53 45.82 52.34 C 46.86 51.71 47.68 50.87 48.28 49.80 C 48.47 49.65 48.84 49.34 49.02 49.19 Z" />
</g>
<g id="#f5e8a2ff">
<path fill="#f5e8a2" opacity="1.00" d=" M 128.28 48.24 C 130.12 44.58 134.27 44.17 137.33 42.03 C 137.37 45.52 137.56 49.12 136.01 52.35 C 137.34 52.84 138.67 53.32 139.99 53.82 C 136.62 57.83 134.29 62.67 130.25 66.14 C 126.61 68.88 121.88 69.14 117.81 70.97 C 116.36 70.67 115.45 69.13 114.28 68.29 C 116.36 63.72 121.39 62.34 125.83 61.15 C 126.19 61.20 126.90 61.29 127.26 61.33 C 130.28 62.09 134.18 60.82 135.19 57.63 L 134.63 56.05 C 134.48 54.99 134.45 53.92 134.43 52.85 L 134.47 52.36 C 133.30 52.45 132.13 52.54 130.97 52.64 C 129.92 51.28 128.82 49.90 128.28 48.24 Z" />
</g>
<g id="#25221893">
<path fill="#252218" opacity="0.58" d=" M 121.17 44.26 C 123.52 44.29 126.72 46.86 128.15 44.05 C 128.08 44.62 127.95 45.78 127.89 46.35 C 127.51 46.30 126.77 46.19 126.39 46.14 C 125.32 45.94 123.19 45.54 122.12 45.34 C 122.84 46.57 123.57 47.79 124.31 49.01 C 122.69 48.00 121.01 46.31 121.17 44.26 Z" />
</g>
<g id="#cfbf91ff">
<path fill="#cfbf91" opacity="1.00" d=" M 138.50 44.18 L 140.29 44.40 C 140.17 47.70 141.64 50.76 141.57 54.06 C 140.79 53.57 139.23 52.60 138.45 52.12 C 138.46 49.47 138.48 46.82 138.50 44.18 Z" />
</g>
<g id="#e0d29bff">
<path fill="#e0d29b" opacity="1.00" d=" M 143.45 45.10 C 146.28 50.52 148.50 56.26 151.80 61.44 L 151.85 61.55 C 153.88 67.45 156.31 73.24 157.81 79.32 C 157.26 81.41 156.78 83.51 156.44 85.64 C 153.90 87.30 151.27 89.75 147.99 89.18 C 144.60 88.68 140.60 89.50 137.80 87.06 C 136.81 84.27 136.04 81.32 134.31 78.87 C 133.57 77.89 132.76 76.98 131.88 76.13 L 130.74 75.53 C 130.36 75.35 129.58 74.99 129.19 74.81 C 125.92 73.50 122.31 73.34 119.11 71.79 C 120.43 70.47 122.13 69.89 123.97 69.69 C 126.85 69.37 129.34 67.83 131.80 66.42 C 131.41 66.35 130.64 66.21 130.25 66.14 C 134.29 62.67 136.62 57.83 139.99 53.82 C 140.61 54.05 141.84 54.51 142.46 54.74 C 142.22 52.43 142.01 50.13 141.70 47.83 C 142.14 47.15 143.01 45.78 143.45 45.10 Z" />
</g>
<g id="#948c63fb">
<path fill="#948c63" opacity="1.00" d=" M 156.66 45.28 C 159.01 44.81 161.38 45.09 163.57 46.04 C 162.63 46.24 160.75 46.64 159.81 46.84 C 158.54 46.81 157.43 46.32 156.66 45.28 Z" />
</g>
<g id="#f3e7a2ff">
<path fill="#f3e7a2" opacity="1.00" d=" M 80.49 48.55 C 81.85 48.19 83.21 47.82 84.56 47.46 C 89.61 51.74 93.57 57.46 95.47 63.82 C 95.36 64.58 95.15 66.10 95.04 66.85 C 93.90 65.88 92.76 64.91 91.64 63.93 C 91.64 66.83 91.55 69.79 90.39 72.50 C 87.95 69.47 85.34 66.59 82.51 63.92 C 82.49 66.66 81.91 69.34 80.98 71.91 C 77.90 70.81 74.98 69.31 72.33 67.40 C 72.41 68.48 72.48 69.57 72.56 70.65 C 71.84 71.27 71.14 71.90 70.42 72.52 C 69.14 71.83 67.85 71.13 66.57 70.44 C 66.01 70.61 64.89 70.93 64.32 71.10 C 61.10 67.79 56.77 65.65 52.26 64.77 C 54.83 62.97 56.23 60.02 55.46 56.91 C 58.42 56.30 61.31 55.37 63.88 53.77 C 62.53 52.87 61.18 51.98 59.84 51.07 C 64.18 50.65 68.55 50.45 72.81 49.42 C 75.08 48.75 77.33 49.57 79.41 50.43 C 79.68 49.96 80.22 49.02 80.49 48.55 Z" />
<path fill="#f3e7a2" opacity="1.00" d=" M 28.31 84.96 C 28.70 86.66 29.09 88.36 29.48 90.06 C 31.05 88.94 32.61 87.81 34.17 86.68 C 35.03 88.08 35.91 89.47 36.82 90.85 C 37.61 90.24 38.40 89.63 39.19 89.01 C 39.02 95.01 40.27 100.94 42.72 106.41 C 41.90 106.12 41.07 105.91 40.21 105.77 C 39.13 106.51 38.09 107.34 36.99 108.03 C 34.80 105.84 31.44 104.39 28.83 106.82 C 26.10 100.26 24.51 93.03 25.25 85.91 C 25.40 86.44 25.71 87.49 25.86 88.02 C 26.68 87.00 27.50 85.98 28.31 84.96 Z" />
<path fill="#f3e7a2" opacity="1.00" d=" M 30.64 127.32 C 44.45 120.39 61.39 121.68 74.66 129.29 C 71.24 131.05 67.15 131.04 63.98 133.34 C 66.10 133.96 68.60 133.92 70.15 135.74 C 61.95 135.20 52.92 136.72 47.14 143.08 C 47.75 139.82 48.55 136.51 50.97 134.08 C 48.36 134.29 45.75 134.49 43.14 134.71 C 43.22 132.58 43.32 130.45 43.46 128.32 C 44.38 127.43 45.29 126.53 46.20 125.63 C 40.67 125.49 35.78 128.25 31.10 130.82 C 30.98 129.95 30.75 128.20 30.64 127.32 Z" />
</g>
<g id="#3b3a34bc">
<path fill="#3b3a34" opacity="0.74" d=" M 45.82 52.34 C 45.69 50.56 46.51 49.72 48.28 49.80 C 47.68 50.87 46.86 51.71 45.82 52.34 Z" />
</g>
<g id="#1e1c158f">
<path fill="#1e1c15" opacity="0.56" d=" M 176.16 49.71 C 177.66 50.10 179.03 50.83 180.24 51.80 C 178.95 52.91 175.62 51.47 176.16 49.71 Z" />
</g>
<g id="#dbcd97ff">
<path fill="#dbcd97" opacity="1.00" d=" M 162.39 51.09 C 164.43 52.28 166.25 54.24 168.74 54.40 C 170.57 56.75 172.22 59.24 173.53 61.92 L 171.74 60.73 L 170.51 59.36 C 169.59 58.33 168.50 57.47 167.46 56.59 C 168.98 59.74 170.95 62.70 171.89 66.11 C 172.12 68.80 172.06 71.51 171.68 74.18 C 171.40 72.72 171.10 71.26 170.77 69.81 C 169.96 71.50 169.19 73.20 168.44 74.91 C 167.59 72.17 166.09 69.69 164.58 67.27 C 164.54 67.14 164.45 66.89 164.40 66.76 C 164.15 65.34 163.25 64.18 161.97 63.54 C 161.84 63.41 161.57 63.14 161.44 63.01 C 159.87 60.59 157.75 58.50 154.95 57.62 C 154.57 57.44 153.83 57.09 153.45 56.91 C 152.37 56.46 151.28 56.05 150.18 55.68 L 149.82 55.21 C 153.79 53.09 158.24 53.77 162.51 54.22 C 162.47 53.18 162.43 52.13 162.39 51.09 Z" />
</g>
<g id="#4e4c44cf">
<path fill="#4e4c44" opacity="0.81" d=" M 42.87 56.57 C 42.14 55.21 43.75 52.64 45.31 53.11 C 44.82 54.46 43.92 55.60 42.87 56.57 Z" />
</g>
<g id="#fbf8e2ff">
<path fill="#fbf8e2" opacity="1.00" d=" M 127.29 58.09 C 129.10 55.66 131.74 54.14 134.43 52.85 C 134.45 53.92 134.48 54.99 134.63 56.05 L 133.74 56.32 C 133.43 57.30 133.12 58.28 132.81 59.26 C 132.72 58.50 132.54 56.98 132.45 56.22 C 130.41 57.60 128.74 59.40 127.26 61.33 C 126.90 61.29 126.19 61.20 125.83 61.15 C 126.18 60.41 126.87 58.92 127.22 58.17 L 127.29 58.09 Z" />
<path fill="#fbf8e2" opacity="1.00" d=" M 118.59 146.24 C 124.43 143.99 130.55 142.27 136.81 141.78 C 138.66 142.17 140.47 142.74 142.28 143.32 C 140.19 144.26 138.04 145.07 135.88 145.82 C 135.70 146.71 135.50 147.60 135.33 148.49 C 134.03 149.35 132.74 150.22 131.45 151.09 C 132.85 151.40 134.25 151.72 135.66 152.03 C 132.03 153.19 128.67 155.02 125.43 157.01 C 125.22 154.95 123.22 155.19 121.68 154.96 C 123.61 153.16 125.40 151.20 127.08 149.16 C 125.08 149.14 123.08 149.14 121.07 149.14 C 121.66 148.47 122.25 147.80 122.84 147.13 C 121.42 146.84 120.00 146.54 118.59 146.24 Z" />
</g>
<g id="#2e2b1fb1">
<path fill="#2e2b1f" opacity="0.69" d=" M 167.37 52.46 C 171.15 54.17 172.58 59.03 174.60 62.50 C 174.27 62.50 173.62 62.49 173.30 62.49 C 172.91 62.05 172.13 61.17 171.74 60.73 L 173.53 61.92 C 172.22 59.24 170.57 56.75 168.74 54.40 L 167.37 52.46 Z" />
</g>
<g id="#3b3727b9">
<path fill="#3b3727" opacity="0.73" d=" M 182.01 52.68 C 183.40 53.03 184.55 53.92 185.42 55.05 C 184.09 55.68 181.60 54.21 182.01 52.68 Z" />
</g>
<g id="#f0e4a3ff">
<path fill="#f0e4a3" opacity="1.00" d=" M 42.22 57.46 C 45.18 56.21 48.11 54.84 51.28 54.23 C 50.11 56.24 47.99 57.28 46.11 58.50 C 47.02 59.12 47.92 59.75 48.82 60.38 C 47.88 61.76 46.92 63.13 45.96 64.50 C 43.82 64.88 41.78 65.61 39.76 66.39 C 40.23 63.48 41.35 60.75 42.10 57.91 L 42.22 57.46 Z" />
</g>
<g id="#f4eaaaff">
<path fill="#f4eaaa" opacity="1.00" d=" M 117.61 57.21 C 117.50 55.75 117.48 54.28 117.55 52.82 L 118.62 53.95 C 119.34 54.91 120.22 55.71 121.24 56.34 L 121.93 57.18 C 120.48 57.20 119.04 57.20 117.61 57.21 Z" />
</g>
<g id="#343023c0">
<path fill="#343023" opacity="0.75" d=" M 118.62 53.95 C 120.42 53.70 121.29 54.49 121.24 56.34 C 120.22 55.71 119.34 54.91 118.62 53.95 Z" />
</g>
<g id="#4b4532cf">
<path fill="#4b4532" opacity="0.81" d=" M 188.83 54.32 L 189.74 54.30 L 190.40 55.18 L 190.12 56.06 C 189.79 55.62 189.15 54.76 188.83 54.32 Z" />
</g>
<g id="#d7c891ff">
<path fill="#d7c891" opacity="1.00" d=" M 116.47 55.87 C 116.80 58.20 116.97 60.54 117.18 62.88 C 115.99 63.92 113.42 64.21 113.67 66.21 C 113.61 67.97 114.59 69.53 115.17 71.14 C 113.68 75.42 112.09 79.72 109.53 83.50 C 109.28 82.92 108.78 81.77 108.53 81.20 C 104.05 85.36 99.72 89.72 94.56 93.06 C 92.70 96.15 93.38 100.58 90.24 103.03 C 91.50 93.40 95.62 84.49 97.39 74.98 C 97.80 75.20 98.63 75.64 99.05 75.86 C 99.36 72.59 99.33 69.30 98.93 66.05 C 98.57 66.33 97.84 66.89 97.47 67.16 C 96.84 64.31 96.09 61.47 94.87 58.81 C 96.63 60.14 98.35 61.51 99.97 63.00 C 100.23 61.62 100.49 60.25 100.78 58.88 C 102.70 60.72 104.33 62.83 105.81 65.04 C 108.76 63.08 111.37 60.59 112.62 57.19 C 113.78 57.60 114.94 58.02 116.10 58.44 C 116.19 57.80 116.38 56.51 116.47 55.87 Z" />
</g>
<g id="#3d3929b4">
<path fill="#3d3929" opacity="0.71" d=" M 186.20 55.59 C 187.48 56.08 188.56 56.96 189.28 58.15 C 187.92 58.85 185.63 57.08 186.20 55.59 Z" />
</g>
<g id="#d5c795ff">
<path fill="#d5c795" opacity="1.00" d=" M 117.61 57.21 C 119.04 57.20 120.48 57.20 121.93 57.18 L 121.94 57.20 C 122.56 58.47 123.19 59.72 123.86 60.97 C 121.82 61.52 119.80 62.11 117.78 62.73 C 117.77 60.89 117.73 59.05 117.61 57.21 Z" />
</g>
<g id="#9c6552ff">
<path fill="#9c6552" opacity="1.00" d=" M 127.26 61.33 C 128.74 59.40 130.41 57.60 132.45 56.22 C 132.54 56.98 132.72 58.50 132.81 59.26 C 133.12 58.28 133.43 57.30 133.74 56.32 L 134.63 56.05 L 135.19 57.63 C 134.18 60.82 130.28 62.09 127.26 61.33 Z" />
</g>
<g id="#797052ec">
<path fill="#797052" opacity="0.93" d=" M 167.46 56.59 C 168.50 57.47 169.59 58.33 170.51 59.36 C 170.22 61.71 171.49 63.85 171.89 66.11 C 170.95 62.70 168.98 59.74 167.46 56.59 Z" />
</g>
<g id="#44402db7">
<path fill="#44402d" opacity="0.72" d=" M 190.68 56.86 C 192.24 58.19 193.07 60.24 192.99 62.28 C 191.71 61.50 190.71 60.42 190.07 59.07 L 192.20 60.55 C 191.82 59.63 191.06 57.78 190.68 56.86 Z" />
</g>
<g id="#302d219d">
<path fill="#302d21" opacity="0.62" d=" M 154.95 57.62 C 157.75 58.50 159.87 60.59 161.44 63.01 C 159.13 61.44 157.02 59.50 154.95 57.62 Z" />
</g>
<g id="#1f1d1480">
<path fill="#1f1d14" opacity="0.50" d=" M 170.51 59.36 L 171.74 60.73 C 172.13 61.17 172.91 62.05 173.30 62.49 C 173.62 62.49 174.27 62.50 174.60 62.50 L 175.01 62.50 C 175.01 62.86 175.01 63.59 175.01 63.96 C 174.21 63.53 172.62 62.69 171.82 62.26 C 173.56 68.51 173.88 76.60 168.94 81.45 C 169.13 80.98 169.52 80.05 169.72 79.59 C 170.47 77.83 171.33 76.08 171.68 74.18 C 172.06 71.51 172.12 68.80 171.89 66.11 C 171.49 63.85 170.22 61.71 170.51 59.36 Z" />
</g>
<g id="#d7c892ff">
<path fill="#d7c892" opacity="1.00" d=" M 82.51 63.92 C 85.34 66.59 87.95 69.47 90.39 72.50 C 91.55 69.79 91.64 66.83 91.64 63.93 C 92.76 64.91 93.90 65.88 95.04 66.85 C 95.15 66.10 95.36 64.58 95.47 63.82 C 97.82 71.82 95.25 80.12 92.83 87.78 C 90.47 94.42 88.84 101.36 88.25 108.40 C 87.87 106.00 87.07 103.70 86.29 101.41 C 83.11 102.81 79.98 104.33 76.90 105.94 C 75.28 93.72 74.02 79.93 64.32 71.10 C 64.89 70.93 66.01 70.61 66.57 70.44 C 67.85 71.13 69.14 71.83 70.42 72.52 C 71.14 71.90 71.84 71.27 72.56 70.65 C 72.48 69.57 72.41 68.48 72.33 67.40 C 74.98 69.31 77.90 70.81 80.98 71.91 C 81.91 69.34 82.49 66.66 82.51 63.92 Z" />
<path fill="#d7c892" opacity="1.00" d=" M 74.66 129.29 C 77.32 130.65 79.86 132.23 82.43 133.77 C 81.91 134.78 81.39 135.79 80.85 136.79 C 80.37 136.93 79.42 137.21 78.95 137.35 C 76.04 136.67 73.10 136.15 70.15 135.74 C 68.60 133.92 66.10 133.96 63.98 133.34 C 67.15 131.04 71.24 131.05 74.66 129.29 Z" />
<path fill="#d7c892" opacity="1.00" d=" M 116.87 129.15 C 118.22 129.52 119.56 129.89 120.91 130.26 C 120.58 130.48 119.91 130.93 119.57 131.16 C 119.35 135.78 121.49 140.61 119.06 144.97 C 113.12 147.06 106.32 149.44 100.13 147.00 C 96.26 145.79 98.16 140.88 99.53 138.31 C 100.19 139.63 100.89 141.04 102.26 141.75 C 109.67 145.69 121.03 137.54 116.87 129.15 Z" />
</g>
<g id="#736b4ed8">
<path fill="#736b4e" opacity="0.85" d=" M 161.97 63.54 C 163.25 64.18 164.15 65.34 164.40 66.76 C 162.99 66.96 161.32 64.86 161.97 63.54 Z" />
</g>
<g id="#f4e4a2ff">
<path fill="#f4e4a2" opacity="1.00" d=" M 97.47 67.16 C 97.84 66.89 98.57 66.33 98.93 66.05 C 99.33 69.30 99.36 72.59 99.05 75.86 C 98.63 75.64 97.80 75.20 97.39 74.98 C 97.85 72.39 97.82 69.76 97.47 67.16 Z" />
</g>
<g id="#f0e5a2ff">
<path fill="#f0e5a2" opacity="1.00" d=" M 54.21 68.44 C 55.64 68.38 57.07 68.31 58.50 68.24 C 67.09 73.12 71.89 82.45 73.43 91.93 C 72.88 93.25 72.34 94.58 71.79 95.90 C 69.93 94.33 68.10 92.74 66.30 91.10 C 66.34 93.27 67.21 95.77 65.65 97.62 C 64.08 99.35 64.64 101.75 64.61 103.86 C 63.38 103.48 62.16 103.10 60.93 102.74 C 59.08 103.94 57.07 104.87 54.99 105.58 C 53.78 104.27 52.58 102.98 51.37 101.68 C 50.33 101.58 49.29 101.48 48.26 101.38 C 46.62 99.58 44.97 97.80 43.33 96.02 C 43.67 98.87 45.20 102.11 43.27 104.70 C 40.28 98.73 39.78 92.06 40.17 85.50 C 42.32 84.02 44.79 83.14 47.07 81.90 C 48.99 81.04 48.01 78.50 48.60 76.87 C 49.60 76.12 50.69 75.50 51.76 74.86 C 50.38 73.99 48.99 73.12 47.62 72.24 C 50.83 72.30 54.03 72.35 57.24 72.32 C 56.24 71.02 55.23 69.73 54.21 68.44 Z" />
</g>
<g id="#22201792">
<path fill="#222017" opacity="0.57" d=" M 164.58 67.27 C 166.09 69.69 167.59 72.17 168.44 74.91 C 168.76 76.08 169.40 78.42 169.72 79.59 C 169.52 80.05 169.13 80.98 168.94 81.45 C 168.83 76.31 165.73 72.05 164.58 67.27 Z" />
</g>
<g id="#fbf5aeff">
<path fill="#fbf5ae" opacity="1.00" d=" M 168.44 74.91 C 169.19 73.20 169.96 71.50 170.77 69.81 C 171.10 71.26 171.40 72.72 171.68 74.18 C 171.33 76.08 170.47 77.83 169.72 79.59 C 169.40 78.42 168.76 76.08 168.44 74.91 Z" />
</g>
<g id="#3a3934c8">
<path fill="#3a3934" opacity="0.78" d=" M 31.82 73.30 C 31.75 71.50 32.61 70.66 34.40 70.77 C 33.74 71.81 32.88 72.65 31.82 73.30 Z" />
</g>
<g id="#c0b188ff">
<path fill="#c0b188" opacity="1.00" d=" M 116.03 71.45 C 119.20 73.34 122.70 74.40 126.31 75.06 C 127.27 76.58 126.08 78.37 125.93 79.97 C 123.13 89.16 116.82 96.66 110.92 104.03 C 106.17 109.81 102.82 116.68 100.80 123.86 C 99.76 127.54 100.95 131.46 100.24 135.11 L 99.12 135.56 C 97.51 129.21 95.91 122.64 97.14 116.07 C 97.70 108.87 100.38 102.04 103.61 95.65 C 107.78 87.63 114.29 80.54 116.03 71.45 Z" />
<path fill="#c0b188" opacity="1.00" d=" M 94.56 93.06 C 99.72 89.72 104.05 85.36 108.53 81.20 C 108.78 81.77 109.28 82.92 109.53 83.50 C 104.03 91.92 98.63 100.76 96.62 110.75 C 95.39 118.05 95.13 125.74 97.61 132.82 C 98.07 134.76 99.68 136.88 98.03 138.69 C 90.48 128.68 87.86 115.26 90.24 103.03 C 93.38 100.58 92.70 96.15 94.56 93.06 Z" />
</g>
<g id="#383632c1">
<path fill="#383632" opacity="0.76" d=" M 27.89 78.37 C 27.29 76.53 29.50 73.47 31.44 73.72 C 30.49 75.44 29.28 76.99 27.89 78.37 Z" />
</g>
<g id="#25231a96">
<path fill="#25231a" opacity="0.59" d=" M 130.74 75.53 L 131.88 76.13 C 132.76 76.98 133.57 77.89 134.31 78.87 C 134.21 80.30 135.24 82.49 133.25 82.96 C 133.24 81.68 133.23 80.39 133.22 79.10 C 132.41 77.90 131.58 76.71 130.74 75.53 Z" />
</g>
<g id="#f7f0cbff">
<path fill="#f7f0cb" opacity="1.00" d=" M 134.31 78.87 C 136.04 81.32 136.81 84.27 137.80 87.06 C 138.17 88.52 138.48 89.99 138.79 91.46 C 139.37 91.17 139.95 90.88 140.54 90.59 C 141.80 93.72 143.08 96.84 144.39 99.96 C 144.76 98.85 145.09 97.72 145.50 96.63 C 145.85 96.84 146.54 97.26 146.89 97.47 C 147.30 96.85 147.72 96.22 148.14 95.60 C 149.39 96.09 150.64 96.57 151.89 97.06 C 152.14 94.70 152.36 92.33 152.53 89.97 C 153.19 91.14 153.85 92.31 154.52 93.49 C 155.22 93.15 155.93 92.81 156.64 92.47 C 157.24 93.66 157.84 94.86 158.44 96.06 C 158.55 93.12 158.53 90.07 159.86 87.37 C 161.10 94.53 162.78 101.91 161.19 109.15 C 160.48 108.54 159.77 107.93 159.06 107.31 C 157.75 109.62 156.68 112.28 154.21 113.59 C 153.62 112.53 153.04 111.47 152.47 110.41 C 149.74 112.44 147.19 114.69 144.83 117.13 C 143.55 114.57 141.93 112.19 139.73 110.35 C 138.78 111.45 137.82 112.55 136.87 113.65 C 135.40 109.40 134.19 105.05 132.17 101.01 C 131.17 102.41 130.17 103.81 129.15 105.19 C 128.61 103.41 128.08 101.63 127.64 99.82 C 128.69 94.09 132.24 89.18 133.23 83.46 L 133.25 82.96 C 135.24 82.49 134.21 80.30 134.31 78.87 Z" />
</g>
<g id="#3a3629a8">
<path fill="#3a3629" opacity="0.66" d=" M 24.46 86.08 C 24.90 83.77 25.17 81.01 27.19 79.49 C 26.43 81.59 25.60 83.69 25.25 85.91 C 24.51 93.03 26.10 100.26 28.83 106.82 C 30.16 109.30 31.75 111.62 33.25 114.00 C 31.99 113.66 31.45 112.39 30.75 111.43 C 25.61 104.14 23.70 94.88 24.46 86.08 Z" />
</g>
<g id="#eee2a0ff">
<path fill="#eee2a0" opacity="1.00" d=" M 156.44 85.64 C 156.78 83.51 157.26 81.41 157.81 79.32 C 158.60 81.97 159.36 84.64 159.86 87.37 C 158.53 90.07 158.55 93.12 158.44 96.06 C 157.84 94.86 157.24 93.66 156.64 92.47 C 155.93 92.81 155.22 93.15 154.52 93.49 C 153.85 92.31 153.19 91.14 152.53 89.97 C 152.36 92.33 152.14 94.70 151.89 97.06 C 150.64 96.57 149.39 96.09 148.14 95.60 C 147.72 96.22 147.30 96.85 146.89 97.47 C 146.54 97.26 145.85 96.84 145.50 96.63 C 145.09 97.72 144.76 98.85 144.39 99.96 C 143.08 96.84 141.80 93.72 140.54 90.59 C 139.95 90.88 139.37 91.17 138.79 91.46 C 138.48 89.99 138.17 88.52 137.80 87.06 C 140.60 89.50 144.60 88.68 147.99 89.18 C 151.27 89.75 153.90 87.30 156.44 85.64 Z" />
</g>
<g id="#beb088ff">
<path fill="#beb088" opacity="1.00" d=" M 126.71 81.75 C 128.84 83.95 129.08 87.15 129.81 89.99 C 128.27 93.67 126.94 97.44 125.41 101.13 C 126.32 104.40 125.55 107.79 125.78 111.12 C 125.36 108.75 125.08 106.35 124.79 103.96 L 124.60 102.13 C 118.19 113.61 110.97 124.79 101.16 133.69 C 100.69 122.10 106.39 111.20 113.61 102.49 C 118.93 96.27 123.94 89.55 126.71 81.75 Z" />
</g>
<g id="#d5c691ff">
<path fill="#d5c691" opacity="1.00" d=" M 66.30 91.10 C 68.10 92.74 69.93 94.33 71.79 95.90 C 72.34 94.58 72.88 93.25 73.43 91.93 C 74.51 96.24 74.95 100.65 75.51 105.04 C 75.06 107.23 72.74 107.85 71.44 109.38 C 69.73 111.39 67.71 113.10 65.56 114.62 C 62.91 116.50 62.01 119.79 60.74 122.61 C 58.56 122.19 56.06 122.38 54.39 120.67 C 49.45 116.37 45.69 110.77 43.27 104.70 C 45.20 102.11 43.67 98.87 43.33 96.02 C 44.97 97.80 46.62 99.58 48.26 101.38 C 49.29 101.48 50.33 101.58 51.37 101.68 C 52.58 102.98 53.78 104.27 54.99 105.58 C 57.07 104.87 59.08 103.94 60.93 102.74 C 62.16 103.10 63.38 103.48 64.61 103.86 C 64.64 101.75 64.08 99.35 65.65 97.62 C 67.21 95.77 66.34 93.27 66.30 91.10 Z" />
</g>
<g id="#e4d79dff">
<path fill="#e4d79d" opacity="1.00" d=" M 127.46 112.49 C 126.09 108.40 126.46 103.91 127.64 99.82 C 128.08 101.63 128.61 103.41 129.15 105.19 C 130.17 103.81 131.17 102.41 132.17 101.01 C 134.19 105.05 135.40 109.40 136.87 113.65 C 137.82 112.55 138.78 111.45 139.73 110.35 C 141.93 112.19 143.55 114.57 144.83 117.13 C 147.19 114.69 149.74 112.44 152.47 110.41 C 153.04 111.47 153.62 112.53 154.21 113.59 C 156.68 112.28 157.75 109.62 159.06 107.31 C 159.77 107.93 160.48 108.54 161.19 109.15 C 160.99 110.10 160.77 111.04 160.52 111.97 C 157.27 112.93 155.08 115.61 152.52 117.64 C 149.69 120.03 146.48 121.89 143.27 123.71 C 142.53 121.73 141.76 119.76 140.93 117.82 C 140.31 118.53 139.43 118.93 138.79 119.62 C 138.51 120.29 137.94 121.65 137.66 122.32 C 137.15 121.42 136.12 119.63 135.61 118.73 C 135.65 119.82 135.74 121.99 135.78 123.08 C 135.35 122.35 134.93 121.61 134.51 120.88 C 132.95 118.36 132.23 115.47 131.51 112.63 C 131.59 113.85 131.76 116.28 131.85 117.50 C 130.56 115.69 128.53 114.43 127.46 112.49 Z" />
</g>
<g id="#bdae88ff">
<path fill="#bdae88" opacity="1.00" d=" M 76.90 105.94 C 79.98 104.33 83.11 102.81 86.29 101.41 C 87.07 103.70 87.87 106.00 88.25 108.40 C 87.44 119.32 90.11 130.84 97.19 139.39 C 96.73 141.60 96.50 143.86 96.62 146.12 C 96.16 146.17 95.23 146.26 94.77 146.31 C 93.85 144.89 92.71 143.62 91.64 142.33 C 92.52 142.34 94.29 142.35 95.17 142.35 C 90.04 139.90 84.39 138.87 78.95 137.35 C 79.42 137.21 80.37 136.93 80.85 136.79 C 81.39 135.79 81.91 134.78 82.43 133.77 C 86.65 136.20 90.70 139.09 95.44 140.47 C 92.57 137.66 88.94 135.64 86.69 132.22 C 81.16 124.56 78.15 115.24 76.90 105.94 Z" />
<path fill="#bdae88" opacity="1.00" d=" M 75.51 105.04 C 76.72 115.89 80.54 126.54 87.19 135.26 C 78.82 130.25 70.59 124.23 60.74 122.61 C 62.01 119.79 62.91 116.50 65.56 114.62 C 67.71 113.10 69.73 111.39 71.44 109.38 C 72.74 107.85 75.06 107.23 75.51 105.04 Z" />
<path fill="#bdae88" opacity="1.00" d=" M 138.26 134.38 C 138.98 135.42 139.69 136.47 140.39 137.53 C 140.58 138.41 140.77 139.29 140.97 140.17 C 139.62 140.15 138.29 140.18 136.95 140.27 C 137.32 138.29 137.74 136.33 138.26 134.38 Z" />
</g>
<g id="#d8c993ff">
<path fill="#d8c993" opacity="1.00" d=" M 28.83 106.82 C 31.44 104.39 34.80 105.84 36.99 108.03 C 38.09 107.34 39.13 106.51 40.21 105.77 C 41.07 105.91 41.90 106.12 42.72 106.41 C 45.42 112.13 49.02 117.47 53.77 121.68 C 49.19 120.97 44.17 123.20 39.91 120.82 C 39.76 120.69 39.47 120.44 39.32 120.31 C 37.51 118.29 35.65 116.32 33.66 114.49 C 33.56 114.37 33.35 114.12 33.25 114.00 C 31.75 111.62 30.16 109.30 28.83 106.82 Z" />
<path fill="#d8c993" opacity="1.00" d=" M 146.52 131.13 C 150.26 126.72 154.58 122.85 158.17 118.32 C 156.92 124.35 155.03 130.22 152.78 135.94 C 151.11 137.17 149.48 138.45 147.88 139.75 L 148.81 140.12 C 146.60 140.24 143.95 141.64 142.03 139.89 C 141.24 137.45 142.64 134.99 142.86 132.56 C 143.73 131.25 144.65 129.97 145.58 128.70 C 145.81 129.31 146.28 130.52 146.52 131.13 Z" />
</g>
<g id="#f1e5a2ff">
<path fill="#f1e5a2" opacity="1.00" d=" M 124.79 103.96 C 125.08 106.35 125.36 108.75 125.78 111.12 C 126.42 115.65 130.51 117.98 133.12 121.26 C 134.43 123.52 135.74 125.79 136.78 128.19 C 136.79 130.73 136.30 133.23 136.24 135.77 C 134.60 136.74 132.98 137.72 131.35 138.69 C 129.50 136.08 127.61 133.49 125.91 130.77 C 124.53 125.65 126.17 120.18 124.34 115.21 C 124.36 120.92 124.08 126.64 124.50 132.35 C 123.88 131.28 123.25 130.22 122.61 129.17 C 122.19 129.44 121.34 129.99 120.91 130.26 C 119.56 129.89 118.22 129.52 116.87 129.15 C 121.03 137.54 109.67 145.69 102.26 141.75 C 100.89 141.04 100.19 139.63 99.53 138.31 C 99.76 137.94 100.21 137.20 100.44 136.83 C 102.76 142.88 112.12 141.76 114.45 136.34 C 115.67 134.40 115.83 132.09 115.98 129.87 C 113.31 129.76 111.23 128.33 110.29 125.78 C 115.70 118.91 121.03 111.90 124.79 103.96 Z" />
</g>
<g id="#c9ba8cff">
<path fill="#c9ba8c" opacity="1.00" d=" M 152.52 117.64 C 155.08 115.61 157.27 112.93 160.52 111.97 C 159.56 115.00 156.82 116.98 155.59 119.89 C 155.40 119.61 155.00 119.06 154.80 118.78 C 153.40 121.73 151.16 124.13 149.12 126.64 C 149.20 125.66 149.37 123.72 149.46 122.74 C 147.20 125.59 144.66 128.20 142.32 130.98 C 141.57 131.78 140.73 132.49 139.82 133.09 C 139.26 133.36 138.14 133.88 137.58 134.15 C 137.73 133.27 138.04 131.50 138.19 130.62 C 138.44 130.51 138.96 130.31 139.22 130.21 C 138.14 126.71 141.00 122.74 138.79 119.62 C 139.43 118.93 140.31 118.53 140.93 117.82 C 141.76 119.76 142.53 121.73 143.27 123.71 C 146.48 121.89 149.69 120.03 152.52 117.64 Z" />
</g>
<g id="#504a36bb">
<path fill="#504a36" opacity="0.73" d=" M 33.66 114.49 C 35.65 116.32 37.51 118.29 39.32 120.31 C 36.78 119.20 34.85 116.95 33.66 114.49 Z" />
</g>
<g id="#9e916dff">
<path fill="#9e916d" opacity="1.00" d=" M 135.61 118.73 C 136.12 119.63 137.15 121.42 137.66 122.32 C 137.94 121.65 138.51 120.29 138.79 119.62 C 141.00 122.74 138.14 126.71 139.22 130.21 C 138.96 130.31 138.44 130.51 138.19 130.62 C 138.16 129.04 138.13 127.46 138.10 125.89 L 136.66 125.54 C 136.69 126.20 136.75 127.53 136.78 128.19 C 135.74 125.79 134.43 123.52 133.12 121.26 L 134.51 120.88 C 134.93 121.61 135.35 122.35 135.78 123.08 C 135.74 121.99 135.65 119.82 135.61 118.73 Z" />
</g>
<g id="#f3ebbcff">
<path fill="#f3ebbc" opacity="1.00" d=" M 100.44 136.83 C 103.40 132.86 107.02 129.47 110.29 125.78 C 111.23 128.33 113.31 129.76 115.98 129.87 C 115.83 132.09 115.67 134.40 114.45 136.34 C 112.12 141.76 102.76 142.88 100.44 136.83 Z" />
<path fill="#f3ebbc" opacity="1.00" d=" M 79.27 146.20 C 84.04 145.08 89.13 143.69 93.95 145.35 C 92.92 147.47 91.99 149.68 91.96 152.07 C 89.02 152.77 86.22 151.72 83.61 150.45 C 83.32 149.44 83.03 148.43 82.74 147.43 C 79.02 149.82 74.17 149.18 70.87 152.46 C 70.36 152.27 69.33 151.90 68.81 151.72 C 71.99 149.36 75.36 147.09 79.27 146.20 Z" />
<path fill="#f3ebbc" opacity="1.00" d=" M 73.12 158.03 C 75.33 156.45 77.51 154.81 79.61 153.09 C 79.79 154.64 79.95 156.19 80.11 157.74 C 81.72 156.27 83.40 154.88 85.10 153.51 C 87.35 154.74 88.62 157.01 90.09 159.01 C 90.42 158.42 91.08 157.25 91.41 156.67 C 91.95 156.69 93.01 156.73 93.54 156.75 C 95.61 159.11 98.27 160.85 101.18 161.99 C 97.25 163.41 96.16 167.91 93.04 170.12 C 86.96 170.66 80.70 169.95 74.87 168.15 C 70.90 166.96 68.50 163.39 65.86 160.46 C 66.30 160.39 67.17 160.24 67.60 160.17 C 68.66 158.73 69.71 157.28 70.77 155.85 C 71.55 156.57 72.33 157.30 73.12 158.03 Z" />
</g>
<g id="#7f7d77d6">
<path fill="#7f7d77" opacity="0.84" d=" M 24.99 132.63 C 24.34 130.96 26.58 128.59 28.26 128.82 C 27.46 130.31 26.39 131.65 24.99 132.63 Z" />
</g>
<g id="#bbac88ff">
<path fill="#bbac88" opacity="1.00" d=" M 120.91 130.26 C 121.34 129.99 122.19 129.44 122.61 129.17 C 123.25 130.22 123.88 131.28 124.50 132.35 C 124.94 135.81 125.08 139.31 125.10 142.80 C 123.62 143.22 122.14 143.65 120.67 144.09 C 121.97 139.75 121.39 135.25 119.57 131.16 C 119.91 130.93 120.58 130.48 120.91 130.26 Z" />
</g>
<g id="#d8c992ff">
<path fill="#d8c992" opacity="1.00" d=" M 125.91 130.77 C 127.61 133.49 129.50 136.08 131.35 138.69 C 132.98 137.72 134.60 136.74 136.24 135.77 C 135.95 137.53 136.86 139.98 134.89 141.02 C 132.11 141.50 129.29 141.77 126.53 142.41 C 126.27 138.54 126.20 134.65 125.91 130.77 Z" />
</g>
<g id="#f5e9a2ff">
<path fill="#f5e9a2" opacity="1.00" d=" M 147.88 139.75 C 149.48 138.45 151.11 137.17 152.78 135.94 C 151.70 137.65 151.85 142.44 148.58 140.44 C 148.75 140.93 149.07 141.90 149.24 142.39 C 153.58 141.70 157.59 144.09 161.57 145.43 C 161.37 145.73 160.98 146.32 160.78 146.62 C 159.26 146.61 157.74 146.56 156.22 146.49 C 157.40 148.20 158.51 149.95 159.51 151.77 C 157.17 151.21 154.80 150.75 152.41 150.50 C 146.81 149.71 141.05 150.36 135.66 152.03 C 134.25 151.72 132.85 151.40 131.45 151.09 C 132.74 150.22 134.03 149.35 135.33 148.49 C 135.50 147.60 135.70 146.71 135.88 145.82 C 138.04 145.07 140.19 144.26 142.28 143.32 C 140.47 142.74 138.66 142.17 136.81 141.78 C 138.35 141.72 139.79 141.21 141.28 140.82 C 143.79 141.38 146.58 141.66 148.81 140.12 L 147.88 139.75 Z" />
</g>
<g id="#e3a94dff">
<path fill="#e3a94d" opacity="1.00" d=" M 161.57 145.43 L 161.81 145.07 C 162.35 145.32 163.43 145.82 163.97 146.06 C 164.41 146.36 165.30 146.95 165.74 147.24 C 165.98 147.41 166.46 147.74 166.70 147.91 C 167.44 149.07 168.58 149.90 169.91 150.31 C 170.12 150.40 170.52 150.58 170.73 150.67 C 172.71 153.15 174.54 155.77 176.28 158.43 L 176.29 158.44 L 176.31 160.00 C 176.01 160.36 175.40 161.10 175.10 161.47 L 174.83 161.86 C 171.70 158.10 167.35 155.59 162.90 153.69 C 162.54 153.51 161.82 153.15 161.46 152.97 C 160.81 152.56 160.16 152.16 159.51 151.77 C 158.51 149.95 157.40 148.20 156.22 146.49 C 157.74 146.56 159.26 146.61 160.78 146.62 C 160.98 146.32 161.37 145.73 161.57 145.43 Z" />
</g>
<g id="#2a1f0eac">
<path fill="#2a1f0e" opacity="0.67" d=" M 163.97 146.06 L 164.83 145.71 L 165.74 146.32 L 165.74 147.24 C 165.30 146.95 164.41 146.36 163.97 146.06 Z" />
</g>
<g id="#fbf8eaff">
<path fill="#fbf8ea" opacity="1.00" d=" M 70.87 152.46 C 74.17 149.18 79.02 149.82 82.74 147.43 C 83.03 148.43 83.32 149.44 83.61 150.45 C 86.22 151.72 89.02 152.77 91.96 152.07 C 92.22 153.71 92.76 155.29 93.54 156.75 C 93.01 156.73 91.95 156.69 91.41 156.67 C 91.08 157.25 90.42 158.42 90.09 159.01 C 88.62 157.01 87.35 154.74 85.10 153.51 C 83.40 154.88 81.72 156.27 80.11 157.74 C 79.95 156.19 79.79 154.64 79.61 153.09 C 77.51 154.81 75.33 156.45 73.12 158.03 C 72.33 157.30 71.55 156.57 70.77 155.85 C 69.71 157.28 68.66 158.73 67.60 160.17 C 67.17 160.24 66.30 160.39 65.86 160.46 L 65.27 160.59 C 64.39 161.47 63.57 162.40 62.74 163.32 C 62.51 160.54 63.88 158.07 64.87 155.58 C 66.10 154.21 67.39 152.89 68.81 151.72 C 69.33 151.90 70.36 152.27 70.87 152.46 Z" />
</g>
<g id="#423117c0">
<path fill="#423117" opacity="0.75" d=" M 166.70 147.91 C 167.99 147.23 170.47 148.80 169.91 150.31 C 168.58 149.90 167.44 149.07 166.70 147.91 Z" />
</g>
<g id="#332f21a3">
<path fill="#332f21" opacity="0.64" d=" M 152.41 150.50 C 154.80 150.75 157.17 151.21 159.51 151.77 C 160.16 152.16 160.81 152.56 161.46 152.97 C 157.35 152.51 153.37 151.03 149.17 151.33 C 148.21 155.79 147.24 160.36 147.59 164.95 C 147.72 167.58 150.99 167.96 151.77 170.25 L 150.98 169.71 C 149.63 168.79 148.26 167.92 146.91 167.02 C 146.69 163.97 146.53 160.89 146.93 157.84 C 147.36 155.68 147.82 153.52 148.21 151.36 C 149.62 151.10 151.01 150.76 152.41 150.50 Z" />
</g>
<g id="#2f221097">
<path fill="#2f2210" opacity="0.59" d=" M 170.73 150.67 C 173.55 152.20 175.68 155.33 176.28 158.43 C 174.54 155.77 172.71 153.15 170.73 150.67 Z" />
</g>
<g id="#d5c792ff">
<path fill="#d5c792" opacity="1.00" d=" M 140.12 152.14 C 142.82 151.91 145.53 151.73 148.21 151.36 C 147.82 153.52 147.36 155.68 146.93 157.84 C 146.72 163.95 141.80 168.43 141.52 174.44 C 140.69 173.97 139.95 173.41 139.30 172.75 C 138.45 169.17 138.86 165.47 138.90 161.84 C 139.44 162.84 139.99 163.83 140.55 164.82 C 142.01 164.34 143.95 164.26 144.70 162.69 C 145.55 159.57 145.62 156.31 145.91 153.11 C 144.66 153.09 143.42 153.07 142.17 153.05 C 141.18 154.02 140.19 154.99 139.21 155.97 C 139.54 154.70 139.85 153.42 140.12 152.14 Z" />
</g>
<g id="#dccd93ff">
<path fill="#dccd93" opacity="1.00" d=" M 31.56 153.55 C 35.43 153.48 39.35 154.03 43.17 153.11 C 43.21 155.85 43.67 158.56 44.34 161.21 C 39.62 160.58 34.71 159.35 31.02 156.16 L 29.97 155.20 C 30.37 154.79 31.17 153.97 31.56 153.55 Z" />
</g>
<g id="#a0907aff">
<path fill="#a0907a" opacity="1.00" d=" M 133.80 157.86 C 133.00 154.73 135.47 152.76 138.37 152.62 C 138.37 153.13 138.36 154.17 138.35 154.68 C 138.26 156.76 138.26 158.85 138.32 160.93 C 136.55 160.93 134.77 160.93 133.01 160.94 C 134.68 159.30 136.45 157.75 138.21 156.20 C 136.73 156.73 135.26 157.29 133.80 157.86 Z" />
</g>
<g id="#c4b584ff">
<path fill="#c4b584" opacity="1.00" d=" M 139.21 155.97 C 140.19 154.99 141.18 154.02 142.17 153.05 C 143.42 153.07 144.66 153.09 145.91 153.11 C 145.62 156.31 145.55 159.57 144.70 162.69 C 143.95 164.26 142.01 164.34 140.55 164.82 C 139.99 163.83 139.44 162.84 138.90 161.84 C 138.88 160.13 138.90 158.43 138.94 156.73 L 139.21 155.97 Z" />
</g>
<g id="#f4e8a2ff">
<path fill="#f4e8a2" opacity="1.00" d=" M 44.10 153.75 C 45.81 155.58 46.74 157.91 47.51 160.25 C 48.97 157.98 49.80 154.90 52.57 153.88 C 53.05 156.03 53.68 158.15 54.67 160.12 C 55.88 159.13 57.08 158.12 58.28 157.12 C 59.20 158.80 60.16 160.47 61.19 162.10 C 61.13 163.40 61.13 164.71 61.13 166.03 C 57.17 165.85 53.04 164.56 49.21 166.17 C 48.12 164.68 46.89 163.26 46.10 161.59 C 44.95 159.13 43.82 156.53 44.10 153.75 Z" />
</g>
<g id="#5c5643d8">
<path fill="#5c5643" opacity="0.85" d=" M 64.69 153.88 L 64.76 154.19 L 64.87 155.58 C 63.88 158.07 62.51 160.54 62.74 163.32 C 63.21 169.48 67.84 173.93 72.59 177.28 C 70.88 176.76 69.42 175.73 67.84 174.94 C 61.36 174.25 53.95 172.24 49.97 166.70 C 54.85 170.39 60.38 173.46 66.55 174.18 C 63.72 170.30 61.11 165.87 61.66 160.86 C 62.59 158.49 63.67 156.20 64.69 153.88 Z" />
</g>
<g id="#2d210fa3">
<path fill="#2d210f" opacity="0.64" d=" M 162.90 153.69 C 167.35 155.59 171.70 158.10 174.83 161.86 C 171.85 160.29 169.45 157.85 166.44 156.34 C 165.22 155.53 163.50 155.17 162.90 153.69 Z" />
</g>
<g id="#c3b484ff">
<path fill="#c3b484" opacity="1.00" d=" M 125.48 158.60 C 127.76 156.77 130.48 155.62 133.08 154.32 C 132.60 156.56 132.21 158.82 132.06 161.12 C 131.95 162.78 131.85 164.45 131.74 166.12 C 131.53 165.67 131.12 164.79 130.91 164.35 C 128.53 164.37 126.20 164.85 123.90 165.41 C 124.28 163.13 124.25 160.61 125.48 158.60 Z" />
</g>
<g id="#423b2ac0">
<path fill="#423b2a" opacity="0.75" d=" M 138.35 154.68 C 138.50 155.19 138.79 156.22 138.94 156.73 C 138.90 158.43 138.88 160.13 138.90 161.84 C 138.86 165.47 138.45 169.17 139.30 172.75 C 139.95 173.41 140.69 173.97 141.52 174.44 C 142.25 174.41 143.72 174.35 144.45 174.32 C 144.54 173.37 144.70 171.47 144.79 170.52 C 145.28 172.02 145.47 173.58 144.81 175.07 C 145.82 175.04 147.84 174.98 148.85 174.95 L 148.07 176.07 C 144.87 175.89 141.00 175.90 138.57 173.53 C 137.35 169.71 137.97 165.62 138.02 161.69 C 136.36 161.55 134.68 161.51 133.03 161.73 C 132.06 166.12 132.28 170.61 133.70 174.87 C 135.44 176.58 137.74 178.01 138.47 180.47 C 136.63 178.70 134.80 176.91 132.80 175.31 C 132.57 174.27 132.33 173.24 132.11 172.20 C 131.58 170.21 131.63 168.15 131.74 166.12 C 131.85 164.45 131.95 162.78 132.06 161.12 C 132.29 161.07 132.77 160.99 133.01 160.94 C 134.77 160.93 136.55 160.93 138.32 160.93 C 138.26 158.85 138.26 156.76 138.35 154.68 Z" />
</g>
<g id="#e8db9cff">
<path fill="#e8db9c" opacity="1.00" d=" M 141.52 174.44 C 141.80 168.43 146.72 163.95 146.93 157.84 C 146.53 160.89 146.69 163.97 146.91 167.02 C 148.26 167.92 149.63 168.79 150.98 169.71 C 150.99 170.40 151.01 171.80 151.03 172.49 C 150.02 171.61 149.03 170.72 148.05 169.83 C 148.27 170.44 148.72 171.67 148.95 172.29 C 148.93 172.77 148.90 173.72 148.89 174.20 C 148.88 174.39 148.86 174.76 148.85 174.95 C 147.84 174.98 145.82 175.04 144.81 175.07 C 145.47 173.58 145.28 172.02 144.79 170.52 C 144.70 171.47 144.54 173.37 144.45 174.32 C 143.72 174.35 142.25 174.41 141.52 174.44 Z" />
</g>
<g id="#322918b8">
<path fill="#322918" opacity="0.72" d=" M 176.29 158.44 C 178.53 161.26 179.32 165.22 178.80 168.75 C 178.05 167.83 177.39 166.86 176.83 165.83 L 177.35 165.28 C 178.42 164.44 177.77 163.01 177.17 162.10 C 176.96 161.58 176.53 160.52 176.31 160.00 L 176.29 158.44 Z" />
</g>
<g id="#f8d982ff">
<path fill="#f8d982" opacity="1.00" d=" M 175.10 161.47 C 175.40 161.10 176.01 160.36 176.31 160.00 C 176.53 160.52 176.96 161.58 177.17 162.10 C 176.76 162.14 175.95 162.20 175.54 162.24 L 175.10 161.47 Z" />
</g>
<g id="#d9ca92ff">
<path fill="#d9ca92" opacity="1.00" d=" M 61.19 162.10 L 61.66 160.86 C 61.11 165.87 63.72 170.30 66.55 174.18 C 60.38 173.46 54.85 170.39 49.97 166.70 L 49.21 166.17 C 53.04 164.56 57.17 165.85 61.13 166.03 C 61.13 164.71 61.13 163.40 61.19 162.10 Z" />
</g>
<g id="#c0ac6afd">
<path fill="#c0ac6a" opacity="1.00" d=" M 175.54 162.24 C 175.95 162.20 176.76 162.14 177.17 162.10 C 177.77 163.01 178.42 164.44 177.35 165.28 C 176.43 164.54 175.73 163.62 175.26 162.53 L 175.54 162.24 Z" />
</g>
<g id="#e6da9cff">
<path fill="#e6da9c" opacity="1.00" d=" M 123.90 165.41 C 126.20 164.85 128.53 164.37 130.91 164.35 C 131.12 164.79 131.53 165.67 131.74 166.12 C 131.63 168.15 131.58 170.21 132.11 172.20 L 132.34 173.34 C 129.47 171.47 126.57 169.63 123.63 167.87 C 123.70 167.26 123.83 166.02 123.90 165.41 Z" />
</g>
<g id="#e2a84dff">
<path fill="#e2a84d" opacity="1.00" d=" M 120.88 168.23 C 125.10 170.15 128.92 172.81 132.80 175.31 C 134.80 176.91 136.63 178.70 138.47 180.47 C 139.02 181.16 139.52 181.90 140.04 182.62 C 139.56 182.57 138.60 182.47 138.12 182.41 C 137.83 182.93 137.26 183.95 136.97 184.47 L 136.75 184.35 C 130.20 180.59 122.57 179.51 115.16 178.96 C 114.21 178.20 113.26 177.46 112.31 176.71 C 112.43 175.90 112.54 175.09 112.66 174.28 C 111.03 173.39 109.42 172.47 107.81 171.56 C 112.40 171.55 116.50 169.30 120.88 168.23 Z" />
</g>
<g id="#726a4ef0">
<path fill="#726a4e" opacity="0.94" d=" M 148.05 169.83 C 149.03 170.72 150.02 171.61 151.03 172.49 C 151.01 171.80 150.99 170.40 150.98 169.71 L 151.77 170.25 C 152.40 172.14 150.83 173.60 149.90 175.03 L 148.89 174.20 C 148.90 173.72 148.93 172.77 148.95 172.29 C 148.72 171.67 148.27 170.44 148.05 169.83 Z" />
</g>
<g id="#413823aa">
<path fill="#413823" opacity="0.67" d=" M 80.21 179.48 C 91.87 180.51 103.48 177.98 115.16 178.96 C 122.57 179.51 130.20 180.59 136.75 184.35 C 130.53 182.88 124.51 180.03 117.96 180.13 C 107.31 178.74 96.64 180.62 85.96 180.46 C 84.04 180.28 81.93 180.53 80.21 179.48 Z" />
</g>
<g id="#f5d479ff">
<path fill="#f5d479" opacity="1.00" d=" M 138.12 182.41 C 138.60 182.47 139.56 182.57 140.04 182.62 C 140.21 182.96 140.54 183.64 140.70 183.98 C 141.14 184.90 142.01 186.75 142.45 187.67 C 140.86 186.52 139.18 185.52 137.41 184.67 C 137.30 184.62 137.08 184.52 136.97 184.47 C 137.26 183.95 137.83 182.93 138.12 182.41 Z" />
</g>
<g id="#3d3420ab">
<path fill="#3d3420" opacity="0.67" d=" M 140.70 183.98 C 142.68 185.21 143.01 187.81 143.65 189.88 C 141.40 188.37 139.31 186.59 137.41 184.67 C 139.18 185.52 140.86 186.52 142.45 187.67 C 142.01 186.75 141.14 184.90 140.70 183.98 Z" />
</g>
</svg>
