<?xml version="1.0" encoding="UTF-8" ?>
<!DOCTYPE svg PUBLIC "-//W3C//DTD SVG 1.1//EN" "http://www.w3.org/Graphics/SVG/1.1/DTD/svg11.dtd">
<svg width="215pt" height="215pt" viewBox="0 0 215 215" version="1.1" xmlns="http://www.w3.org/2000/svg">
<g id="#1f1d1cff">
<path fill="#1f1d1c" opacity="1.00" d=" M 63.36 27.25 C 64.90 25.40 66.70 27.17 68.37 27.69 C 76.32 30.29 83.42 34.91 90.05 39.92 C 90.87 40.56 91.51 41.35 91.97 42.30 C 88.19 39.62 84.54 36.75 80.54 34.40 C 76.10 31.48 71.03 29.69 66.02 28.03 C 65.35 27.83 64.02 27.45 63.36 27.25 Z" />
<path fill="#1f1d1c" opacity="1.00" d=" M 57.24 42.63 C 57.72 37.74 59.47 32.40 63.12 28.97 C 62.52 30.19 61.90 31.40 61.27 32.61 C 59.72 35.86 58.70 39.34 57.24 42.63 Z" />
<path fill="#1f1d1c" opacity="1.00" d=" M 92.69 42.85 C 95.69 44.15 96.85 47.63 99.70 49.22 C 107.35 45.96 115.79 43.29 124.17 44.82 C 127.66 45.98 131.80 46.98 133.99 50.18 C 128.93 47.14 123.12 44.76 117.09 45.44 C 108.21 46.21 98.93 49.26 92.73 55.97 C 89.55 59.17 86.05 62.38 84.59 66.79 C 83.25 70.77 81.32 74.72 81.42 79.01 C 81.48 85.32 83.75 91.47 87.26 96.66 C 92.16 102.52 100.92 104.99 108.07 102.09 C 111.41 100.64 114.74 98.47 116.05 94.89 C 117.74 91.46 117.18 87.55 116.43 83.96 C 112.78 84.92 109.63 86.95 106.64 89.17 C 106.22 89.35 105.39 89.71 104.97 89.89 C 108.21 86.49 112.08 83.27 116.89 82.61 C 123.37 81.80 130.01 81.69 136.14 79.15 C 131.23 84.04 123.62 83.08 117.30 83.77 C 119.04 87.58 119.30 91.94 117.38 95.73 C 113.10 103.28 102.69 106.34 94.77 103.35 C 90.25 101.23 86.65 97.68 83.49 93.90 C 83.54 97.28 83.89 100.76 82.91 104.06 C 81.44 110.92 76.58 117.29 69.83 119.60 C 64.07 122.06 56.53 120.31 52.76 115.21 C 47.17 108.23 47.63 97.86 52.68 90.72 C 56.16 86.12 61.15 82.52 66.92 81.56 C 72.45 80.81 77.81 83.67 81.54 87.56 C 78.21 77.70 82.07 67.05 88.06 59.09 C 90.91 55.50 94.57 52.70 98.16 49.90 C 96.37 47.52 94.52 45.19 92.69 42.85 M 61.48 84.31 C 56.39 87.70 51.41 92.29 50.42 98.66 L 49.64 99.06 C 49.28 103.44 49.78 107.96 52.04 111.82 C 53.98 116.53 58.87 119.73 63.97 119.64 C 70.10 119.97 75.20 115.71 79.06 111.41 L 78.53 110.31 C 74.09 114.51 66.83 115.87 61.57 112.29 C 58.99 110.75 58.05 107.77 56.51 105.37 C 55.10 96.26 62.27 85.90 71.98 86.28 C 76.42 85.82 79.70 89.17 82.61 91.98 C 80.22 83.38 68.89 80.17 61.48 84.31 M 61.45 91.64 L 61.57 92.17 C 59.53 95.09 57.02 98.22 57.51 102.03 C 57.17 104.90 58.90 107.27 60.44 109.50 C 60.88 109.91 61.77 110.73 62.21 111.14 C 64.90 112.91 68.06 113.16 71.18 112.83 C 74.48 112.51 76.94 110.14 78.66 107.47 L 79.12 107.65 C 80.65 102.94 83.68 98.45 82.43 93.27 L 81.50 94.11 C 81.14 93.54 80.43 92.40 80.07 91.83 C 79.87 91.47 79.45 90.75 79.25 90.39 C 74.15 85.87 66.17 87.18 61.45 91.64 M 80.43 107.30 C 80.67 107.54 80.67 107.54 80.43 107.30 M 78.99 109.20 L 79.14 109.82 L 79.78 109.74 L 79.64 109.09 L 78.99 109.20 M 78.53 109.72 L 78.53 110.31 L 79.17 110.40 L 79.14 109.82 L 78.53 109.72 Z" />
<path fill="#1f1d1c" opacity="1.00" d=" M 51.56 73.16 C 52.82 63.23 52.47 52.61 56.94 43.44 C 55.30 49.85 54.10 56.36 53.27 62.93 C 52.75 65.98 53.09 69.08 53.76 72.09 C 50.85 74.88 48.53 78.21 46.08 81.39 C 46.92 78.11 49.67 75.85 51.56 73.16 Z" />
<path fill="#1f1d1c" opacity="1.00" d=" M 134.48 50.62 C 137.98 51.90 139.60 55.49 141.59 58.34 C 143.63 61.56 143.75 65.61 146.05 68.71 L 144.55 67.83 C 144.37 68.78 144.02 70.67 143.84 71.62 C 143.64 65.30 141.73 58.93 137.59 54.06 C 136.57 52.89 135.53 51.75 134.48 50.62 Z" />
<path fill="#1f1d1c" opacity="1.00" d=" M 146.80 69.32 C 148.43 70.21 150.01 71.59 152.01 71.37 C 161.05 71.12 169.95 73.08 178.57 75.63 C 180.17 76.28 182.08 76.68 183.05 78.27 C 181.49 77.63 179.91 77.02 178.32 76.49 C 172.01 74.33 165.41 73.05 158.75 72.73 C 158.59 72.49 158.26 72.03 158.09 71.80 C 155.08 71.88 152.07 72.16 149.09 72.63 C 148.34 71.51 147.58 70.41 146.80 69.32 Z" />
<path fill="#1f1d1c" opacity="1.00" d=" M 183.47 78.47 C 187.10 78.23 190.25 81.05 192.74 83.38 C 193.14 86.00 191.33 88.19 190.32 90.45 C 185.72 99.34 179.85 108.33 171.13 113.52 C 174.03 110.19 177.75 107.64 180.34 104.04 C 180.57 103.73 181.02 103.11 181.24 102.81 C 184.37 98.64 187.14 94.21 189.81 89.74 C 190.69 87.81 192.31 85.74 191.59 83.52 C 189.45 81.08 186.17 80.13 183.47 78.47 Z" />
<path fill="#1f1d1c" opacity="1.00" d=" M 43.52 85.04 C 43.90 84.19 44.49 83.48 45.26 82.93 C 39.31 94.75 37.10 108.15 38.65 121.27 C 38.61 122.68 38.58 124.09 38.57 125.50 C 38.10 123.51 37.83 121.46 37.02 119.58 C 32.79 118.99 28.42 119.59 24.48 121.27 L 24.11 120.46 C 28.21 118.25 32.91 118.33 37.43 118.44 C 36.55 107.04 38.53 95.36 43.52 85.04 Z" />
<path fill="#1f1d1c" opacity="1.00" d=" M 122.10 103.06 C 127.81 100.69 134.34 102.26 139.21 105.77 C 141.43 106.90 142.44 109.26 143.50 111.36 C 142.81 111.42 141.42 111.54 140.72 111.60 C 141.67 112.35 142.68 113.06 143.76 112.11 C 144.57 115.95 145.57 119.78 144.70 123.73 L 143.66 123.58 C 142.72 126.24 141.67 128.99 139.59 130.99 C 140.08 131.54 140.58 132.08 141.09 132.62 C 142.23 130.45 142.03 126.97 144.66 125.96 C 143.19 130.48 141.00 135.06 137.03 137.90 C 132.01 141.46 124.98 142.66 119.40 139.68 C 113.12 136.69 109.03 130.04 108.79 123.14 C 109.72 120.52 109.21 117.60 110.48 115.08 C 112.78 109.90 116.57 104.98 122.10 103.06 M 115.69 108.67 C 110.40 113.80 109.02 121.81 110.91 128.76 C 113.50 135.10 119.76 141.02 127.06 140.22 C 132.70 140.27 137.63 136.87 140.92 132.51 C 140.26 132.62 138.93 132.86 138.26 132.98 C 136.34 135.54 133.11 137.02 129.91 136.66 C 124.88 136.19 120.33 132.99 117.92 128.59 L 117.50 128.54 C 115.35 122.14 116.70 114.54 121.59 109.76 C 125.70 106.27 131.94 104.55 136.95 107.08 C 138.97 108.29 140.49 110.15 142.49 111.39 C 140.11 107.12 135.87 103.92 131.04 103.04 C 125.44 102.55 119.55 104.45 115.69 108.67 M 119.97 113.26 L 120.18 113.56 C 116.70 118.48 117.36 125.04 120.13 130.11 L 120.59 129.91 C 121.18 130.66 121.76 131.42 122.34 132.19 C 124.04 133.36 125.91 134.26 127.72 135.25 C 128.58 135.34 130.30 135.53 131.16 135.63 C 134.92 135.29 138.31 132.81 139.70 129.29 L 139.90 129.35 C 142.61 125.29 143.70 120.15 142.02 115.47 C 141.28 113.35 140.13 111.39 138.47 109.86 C 137.80 109.47 136.45 108.70 135.78 108.32 L 136.46 107.89 C 133.06 107.45 129.48 106.78 126.13 107.84 C 123.65 109.09 121.83 111.26 119.97 113.26 Z" />
<path fill="#1f1d1c" opacity="1.00" d=" M 164.00 102.97 C 166.20 103.61 165.75 106.98 163.97 107.94 C 163.78 106.95 163.60 105.96 163.43 104.98 C 163.57 104.47 163.86 103.47 164.00 102.97 Z" />
<path fill="#1f1d1c" opacity="1.00" d=" M 158.32 139.60 C 161.02 133.68 162.58 127.40 164.15 121.12 C 164.69 123.06 164.37 125.07 163.76 126.95 C 162.08 133.63 159.34 140.01 156.06 146.05 C 151.49 153.04 145.31 158.83 138.99 164.22 C 137.70 165.73 136.93 167.60 135.94 169.31 C 140.14 172.20 143.66 176.31 145.63 181.02 C 147.02 184.52 143.37 186.84 140.74 188.19 C 136.85 189.73 132.69 188.36 128.99 186.94 C 122.09 185.16 116.23 180.87 111.01 176.18 C 104.99 176.70 98.90 177.19 92.87 176.39 C 88.90 175.73 85.10 174.32 81.20 173.35 C 80.14 173.14 79.33 172.56 78.76 171.62 C 87.54 174.63 96.86 176.58 106.17 175.72 C 110.02 175.38 113.70 174.14 117.47 173.35 C 117.84 173.40 118.59 173.51 118.97 173.56 C 116.84 174.45 114.70 175.34 112.57 176.24 C 115.02 178.49 117.56 180.66 120.45 182.34 C 126.01 185.53 132.58 187.68 139.04 186.89 C 141.55 186.31 145.74 185.48 145.10 182.02 C 143.77 177.05 139.62 173.57 135.81 170.43 C 135.29 170.64 134.27 171.07 133.75 171.28 C 132.11 170.91 130.49 170.43 128.87 169.96 C 127.25 170.56 125.62 171.17 123.99 171.78 C 125.30 170.84 126.58 169.87 127.85 168.89 C 126.66 167.56 125.45 166.26 124.31 164.91 C 122.16 161.51 120.38 157.78 120.41 153.66 C 122.14 157.30 123.26 161.25 125.58 164.58 C 127.24 167.22 129.90 169.32 133.06 169.75 C 135.41 169.45 136.48 167.11 137.33 165.20 C 138.78 161.52 139.06 157.47 138.71 153.56 C 138.67 153.13 138.60 152.27 138.56 151.84 C 138.88 151.68 139.52 151.36 139.84 151.20 C 140.00 154.94 139.66 158.66 139.63 162.40 C 147.10 156.05 154.48 148.78 158.32 139.60 Z" />
<path fill="#1f1d1c" opacity="1.00" d=" M 80.02 123.15 C 82.66 125.45 84.78 128.50 88.14 129.81 C 92.25 131.64 96.90 130.90 101.00 129.45 C 100.04 131.20 97.85 131.49 96.08 131.85 C 89.75 132.40 82.20 129.61 80.02 123.15 Z" />
<path fill="#1f1d1c" opacity="1.00" d=" M 27.99 130.67 C 29.95 132.04 31.94 133.36 33.92 134.70 C 36.41 136.32 39.20 137.40 42.00 138.34 C 41.35 136.14 40.69 133.93 40.18 131.69 C 43.20 135.27 43.74 140.19 46.08 144.17 C 44.78 142.95 43.92 141.38 43.07 139.83 C 37.64 137.71 31.47 135.61 27.99 130.67 Z" />
</g>
<g id="#f4dbe4ff">
<path fill="#f4dbe4" opacity="1.00" d=" M 63.45 28.33 C 64.09 28.25 65.38 28.10 66.02 28.03 C 71.03 29.69 76.10 31.48 80.54 34.40 C 80.00 34.62 78.92 35.05 78.37 35.26 C 79.01 36.40 79.65 37.54 80.28 38.69 C 79.15 38.72 77.96 38.67 76.97 38.02 C 73.01 35.80 69.22 33.25 65.68 30.40 C 64.34 31.36 62.96 32.38 61.27 32.61 C 61.90 31.40 62.52 30.19 63.12 28.97 L 63.45 28.33 Z" />
</g>
<g id="#f6ced7ff">
<path fill="#f6ced7" opacity="1.00" d=" M 61.27 32.61 C 62.96 32.38 64.34 31.36 65.68 30.40 C 69.22 33.25 73.01 35.80 76.97 38.02 C 77.96 38.67 79.15 38.72 80.28 38.69 C 79.65 37.54 79.01 36.40 78.37 35.26 C 78.92 35.05 80.00 34.62 80.54 34.40 C 84.54 36.75 88.19 39.62 91.97 42.30 C 92.15 42.44 92.51 42.71 92.69 42.85 C 94.52 45.19 96.37 47.52 98.16 49.90 C 94.57 52.70 90.91 55.50 88.06 59.09 C 82.12 58.24 76.66 60.86 70.98 61.99 C 73.96 59.33 77.65 57.80 81.30 56.29 C 81.52 55.77 81.95 54.72 82.17 54.20 C 77.71 46.40 71.73 39.42 64.74 33.76 C 57.15 42.43 56.99 54.54 54.83 65.27 C 54.44 64.69 53.66 63.51 53.27 62.93 C 54.10 56.36 55.30 49.85 56.94 43.44 C 57.01 43.23 57.17 42.83 57.24 42.63 C 58.70 39.34 59.72 35.86 61.27 32.61 Z" />
</g>
<g id="#e6b2bcff">
<path fill="#e6b2bc" opacity="1.00" d=" M 54.83 65.27 C 56.99 54.54 57.15 42.43 64.74 33.76 C 64.77 34.46 64.84 35.85 64.87 36.55 C 59.82 44.68 57.84 54.51 58.29 64.00 C 58.47 65.77 57.93 67.47 57.18 69.04 C 56.05 70.06 54.89 71.06 53.76 72.09 C 53.09 69.08 52.75 65.98 53.27 62.93 C 53.66 63.51 54.44 64.69 54.83 65.27 Z" />
</g>
<g id="#161c28ff">
<path fill="#161c28" opacity="1.00" d=" M 64.74 33.76 C 71.73 39.42 77.71 46.40 82.17 54.20 C 74.33 57.15 67.12 61.62 60.32 66.47 C 59.25 67.30 58.21 68.16 57.18 69.04 C 57.93 67.47 58.47 65.77 58.29 64.00 C 57.84 54.51 59.82 44.68 64.87 36.55 C 64.84 35.85 64.77 34.46 64.74 33.76 M 59.99 55.41 C 59.53 58.65 59.30 61.92 59.70 65.18 C 62.76 63.23 65.85 61.30 68.65 58.97 C 65.99 57.31 63.28 55.32 59.99 55.41 Z" />
</g>
<g id="#f7dbe5ff">
<path fill="#f7dbe5" opacity="1.00" d=" M 92.73 55.97 C 98.93 49.26 108.21 46.21 117.09 45.44 C 123.12 44.76 128.93 47.14 133.99 50.18 C 134.12 50.29 134.36 50.51 134.48 50.62 C 135.53 51.75 136.57 52.89 137.59 54.06 C 133.96 58.47 128.50 60.43 123.34 62.41 C 118.27 64.48 112.68 64.08 107.34 64.78 C 105.79 64.16 104.21 62.41 102.45 63.43 C 99.22 65.12 96.80 67.97 93.88 70.11 C 94.76 67.79 95.79 65.53 96.97 63.35 C 95.72 63.40 94.48 63.45 93.24 63.50 C 93.62 60.97 93.77 58.38 92.73 55.97 Z" />
<path fill="#f7dbe5" opacity="1.00" d=" M 169.42 113.19 C 172.99 109.62 176.46 105.94 180.16 102.50 L 180.34 104.04 C 177.75 107.64 174.03 110.19 171.13 113.52 L 171.00 113.54 L 169.42 113.19 Z" />
</g>
<g id="#f2ced6ff">
<path fill="#f2ced6" opacity="1.00" d=" M 137.59 54.06 C 141.73 58.93 143.64 65.30 143.84 71.62 C 144.02 70.67 144.37 68.78 144.55 67.83 L 146.05 68.71 C 146.24 68.86 146.61 69.17 146.80 69.32 C 147.58 70.41 148.34 71.51 149.09 72.63 C 149.32 72.93 149.79 73.54 150.02 73.84 C 152.46 71.62 155.82 72.76 158.75 72.73 C 165.41 73.05 172.01 74.33 178.32 76.49 C 177.74 76.68 176.59 77.06 176.01 77.25 C 180.92 79.80 186.70 80.88 190.83 84.76 C 190.14 86.09 189.46 87.43 188.73 88.73 L 187.91 87.96 C 186.95 86.92 185.82 86.00 184.41 85.64 C 175.45 82.91 165.82 81.88 156.60 83.86 C 159.40 89.89 161.97 96.09 163.05 102.69 C 163.15 103.26 163.34 104.40 163.43 104.98 C 163.60 105.96 163.78 106.95 163.97 107.94 C 164.12 109.43 164.25 110.93 164.36 112.43 C 164.48 114.18 164.55 115.93 164.58 117.68 C 164.52 118.84 164.37 119.98 164.15 121.12 C 162.58 127.40 161.02 133.68 158.32 139.60 C 155.12 140.15 152.68 142.27 150.32 144.33 C 146.96 147.37 142.27 147.95 138.44 150.17 C 138.47 150.59 138.53 151.42 138.56 151.84 C 138.60 152.27 138.67 153.13 138.71 153.56 C 136.68 157.85 135.17 162.49 131.88 166.04 C 129.89 164.74 127.93 163.40 125.97 162.06 C 125.87 162.69 125.68 163.95 125.58 164.58 C 123.26 161.25 122.14 157.30 120.41 153.66 C 114.58 152.00 108.41 153.58 102.54 152.12 C 93.93 149.70 84.94 148.67 76.52 145.54 C 71.71 143.58 67.34 140.74 62.62 138.58 C 58.18 136.54 53.68 134.30 50.31 130.66 C 46.70 126.75 43.31 122.63 40.38 118.18 C 39.79 119.20 39.21 120.23 38.65 121.27 C 37.10 108.15 39.31 94.75 45.26 82.93 C 45.47 82.55 45.87 81.78 46.08 81.39 C 48.53 78.21 50.85 74.88 53.76 72.09 C 54.89 71.06 56.05 70.06 57.18 69.04 C 58.21 68.16 59.25 67.30 60.32 66.47 C 61.85 66.44 63.39 66.40 64.92 66.35 C 58.92 70.43 54.70 76.76 52.66 83.67 C 51.93 85.98 52.22 88.40 52.68 90.72 C 47.63 97.86 47.17 108.23 52.76 115.21 C 56.53 120.31 64.07 122.06 69.83 119.60 C 76.58 117.29 81.44 110.92 82.91 104.06 C 83.89 100.76 83.54 97.28 83.49 93.90 C 86.65 97.68 90.25 101.23 94.77 103.35 C 96.76 109.14 103.87 109.64 109.04 109.09 C 112.19 108.93 114.36 106.37 116.47 104.34 C 118.95 101.94 120.50 98.52 120.29 95.04 C 119.96 93.30 118.15 95.43 117.38 95.73 C 119.30 91.94 119.04 87.58 117.30 83.77 C 123.62 83.08 131.23 84.04 136.14 79.15 C 130.01 81.69 123.37 81.80 116.89 82.61 C 112.08 83.27 108.21 86.49 104.97 89.89 C 105.39 89.71 106.22 89.35 106.64 89.17 C 109.83 92.55 108.87 97.29 106.43 100.75 C 106.84 101.08 107.66 101.75 108.07 102.09 C 100.92 104.99 92.16 102.52 87.26 96.66 C 83.75 91.47 81.48 85.32 81.42 79.01 C 81.32 74.72 83.25 70.77 84.59 66.79 C 86.05 62.38 89.55 59.17 92.73 55.97 C 93.77 58.38 93.62 60.97 93.24 63.50 C 94.48 63.45 95.72 63.40 96.97 63.35 C 95.79 65.53 94.76 67.79 93.88 70.11 C 96.80 67.97 99.22 65.12 102.45 63.43 C 104.21 62.41 105.79 64.16 107.34 64.78 C 112.68 64.08 118.27 64.48 123.34 62.41 C 128.50 60.43 133.96 58.47 137.59 54.06 M 119.76 84.84 C 119.56 87.66 119.50 90.49 119.75 93.31 C 125.28 93.25 129.65 88.48 131.56 83.65 C 127.67 84.39 123.72 84.77 119.76 84.84 M 122.10 103.06 C 116.57 104.98 112.78 109.90 110.48 115.08 C 109.21 117.60 109.72 120.52 108.79 123.14 C 109.03 130.04 113.12 136.69 119.40 139.68 C 124.98 142.66 132.01 141.46 137.03 137.90 C 141.00 135.06 143.19 130.48 144.66 125.96 C 142.03 126.97 142.23 130.45 141.09 132.62 C 140.58 132.08 140.08 131.54 139.59 130.99 C 141.67 128.99 142.72 126.24 143.66 123.58 L 144.70 123.73 C 145.57 119.78 144.57 115.95 143.76 112.11 C 142.68 113.06 141.67 112.35 140.72 111.60 C 141.42 111.54 142.81 111.42 143.50 111.36 C 142.44 109.26 141.43 106.90 139.21 105.77 C 134.34 102.26 127.81 100.69 122.10 103.06 M 80.02 123.15 C 82.20 129.61 89.75 132.40 96.08 131.85 C 97.85 131.49 100.04 131.20 101.00 129.45 C 96.90 130.90 92.25 131.64 88.14 129.81 C 84.78 128.50 82.66 125.45 80.02 123.15 Z" />
</g>
<g id="#f2dae3ff">
<path fill="#f2dae3" opacity="1.00" d=" M 60.32 66.47 C 67.12 61.62 74.33 57.15 82.17 54.20 C 81.95 54.72 81.52 55.77 81.30 56.29 C 77.65 57.80 73.96 59.33 70.98 61.99 C 76.66 60.86 82.12 58.24 88.06 59.09 C 82.07 67.05 78.21 77.70 81.54 87.56 C 77.81 83.67 72.45 80.81 66.92 81.56 C 61.15 82.52 56.16 86.12 52.68 90.72 C 52.22 88.40 51.93 85.98 52.66 83.67 C 54.70 76.76 58.92 70.43 64.92 66.35 C 63.39 66.40 61.85 66.44 60.32 66.47 Z" />
</g>
<g id="#52596aff">
<path fill="#52596a" opacity="1.00" d=" M 59.99 55.41 C 63.28 55.32 65.99 57.31 68.65 58.97 C 65.85 61.30 62.76 63.23 59.70 65.18 C 59.30 61.92 59.53 58.65 59.99 55.41 Z" />
<path fill="#52596a" opacity="1.00" d=" M 164.47 98.54 C 167.81 98.64 171.13 99.08 174.36 99.98 C 172.54 104.49 167.91 106.53 164.72 109.83 C 164.83 110.26 165.05 111.11 165.17 111.53 C 164.96 111.76 164.56 112.20 164.36 112.43 C 164.25 110.93 164.12 109.43 163.97 107.94 C 165.75 106.98 166.20 103.61 164.00 102.97 C 163.86 103.47 163.57 104.47 163.43 104.98 C 163.34 104.40 163.15 103.26 163.05 102.69 C 163.53 101.30 164.00 99.92 164.47 98.54 Z" />
</g>
<g id="#9e848aff">
<path fill="#9e848a" opacity="1.00" d=" M 149.09 72.63 C 152.07 72.16 155.08 71.88 158.09 71.80 C 158.26 72.03 158.59 72.49 158.75 72.73 C 155.82 72.76 152.46 71.62 150.02 73.84 C 149.79 73.54 149.32 72.93 149.09 72.63 Z" />
</g>
<g id="#ffffffff">
<path fill="#ffffff" opacity="1.00" d=" M 176.01 77.25 C 176.59 77.06 177.74 76.68 178.32 76.49 C 179.91 77.02 181.49 77.63 183.05 78.27 C 183.16 78.32 183.37 78.42 183.47 78.47 C 186.17 80.13 189.45 81.08 191.59 83.52 C 192.31 85.74 190.69 87.81 189.81 89.74 C 187.14 94.21 184.37 98.64 181.24 102.81 C 182.27 97.45 186.33 93.47 188.73 88.73 C 189.46 87.43 190.14 86.09 190.83 84.76 C 186.70 80.88 180.92 79.80 176.01 77.25 Z" />
<path fill="#ffffff" opacity="1.00" d=" M 61.48 84.31 C 68.89 80.17 80.22 83.38 82.61 91.98 C 79.70 89.17 76.42 85.82 71.98 86.28 C 62.27 85.90 55.10 96.26 56.51 105.37 C 54.95 102.85 54.75 99.77 53.22 97.24 C 52.28 97.70 51.35 98.18 50.42 98.66 C 51.41 92.29 56.39 87.70 61.48 84.31 Z" />
<path fill="#ffffff" opacity="1.00" d=" M 73.65 91.49 C 74.74 89.47 77.42 90.35 79.25 90.39 C 79.45 90.75 79.87 91.47 80.07 91.83 C 79.74 93.43 80.13 96.02 78.04 96.55 C 76.63 96.53 75.21 96.46 73.80 96.36 C 73.59 94.77 72.94 93.05 73.65 91.49 Z" />
<path fill="#ffffff" opacity="1.00" d=" M 115.69 108.67 C 119.55 104.45 125.44 102.55 131.04 103.04 C 135.87 103.92 140.11 107.12 142.49 111.39 C 140.49 110.15 138.97 108.29 136.95 107.08 C 131.94 104.55 125.70 106.27 121.59 109.76 C 116.70 114.54 115.35 122.14 117.50 128.54 C 117.21 128.50 116.63 128.41 116.34 128.37 C 115.32 126.02 114.30 123.62 112.34 121.88 C 112.03 124.20 111.61 126.52 110.91 128.76 C 109.02 121.81 110.40 113.80 115.69 108.67 Z" />
<path fill="#ffffff" opacity="1.00" d=" M 132.70 110.46 C 133.57 109.55 134.75 109.02 135.78 108.32 C 136.45 108.70 137.80 109.47 138.47 109.86 C 138.82 111.09 140.14 112.59 139.07 113.81 C 138.04 116.60 134.89 115.49 132.69 115.31 C 132.66 113.70 132.16 112.01 132.70 110.46 Z" />
<path fill="#ffffff" opacity="1.00" d=" M 78.53 109.72 L 79.14 109.82 L 79.17 110.40 L 78.53 110.31 L 78.53 109.72 Z" />
</g>
<g id="#171c28ff">
<path fill="#171c28" opacity="1.00" d=" M 156.60 83.86 C 165.82 81.88 175.45 82.91 184.41 85.64 C 185.82 86.00 186.95 86.92 187.91 87.96 C 187.40 87.77 186.37 87.39 185.86 87.20 C 180.76 96.71 173.08 104.36 165.17 111.53 C 165.05 111.11 164.83 110.26 164.72 109.83 C 167.91 106.53 172.54 104.49 174.36 99.98 C 171.13 99.08 167.81 98.64 164.47 98.54 C 164.00 99.92 163.53 101.30 163.05 102.69 C 161.97 96.09 159.40 89.89 156.60 83.86 Z" />
</g>
<g id="#e3abb5ff">
<path fill="#e3abb5" opacity="1.00" d=" M 119.76 84.84 C 123.72 84.77 127.67 84.39 131.56 83.65 C 129.65 88.48 125.28 93.25 119.75 93.31 C 119.50 90.49 119.56 87.66 119.76 84.84 Z" />
</g>
<g id="#e2aab4ff">
<path fill="#e2aab4" opacity="1.00" d=" M 106.64 89.17 C 109.63 86.95 112.78 84.92 116.43 83.96 C 117.18 87.55 117.74 91.46 116.05 94.89 C 114.74 98.47 111.41 100.64 108.07 102.09 C 107.66 101.75 106.84 101.08 106.43 100.75 C 108.87 97.29 109.83 92.55 106.64 89.17 Z" />
</g>
<g id="#006a85ff">
<path fill="#006a85" opacity="1.00" d=" M 61.45 91.64 C 66.17 87.18 74.15 85.87 79.25 90.39 C 77.42 90.35 74.74 89.47 73.65 91.49 C 72.94 93.05 73.59 94.77 73.80 96.36 C 75.06 96.95 76.37 98.10 77.86 97.63 C 79.63 97.21 80.31 95.28 81.50 94.11 L 82.43 93.27 C 83.68 98.45 80.65 102.94 79.12 107.65 L 78.66 107.47 C 76.87 106.80 75.12 106.05 73.38 105.28 C 71.26 104.18 68.89 103.79 66.60 103.25 C 63.45 100.46 62.40 96.13 61.57 92.17 L 61.45 91.64 Z" />
</g>
<g id="#ddabb3ff">
<path fill="#ddabb3" opacity="1.00" d=" M 165.17 111.53 C 173.08 104.36 180.76 96.71 185.86 87.20 C 186.37 87.39 187.40 87.77 187.91 87.96 L 188.73 88.73 C 186.33 93.47 182.27 97.45 181.24 102.81 C 181.02 103.11 180.57 103.73 180.34 104.04 L 180.16 102.50 C 176.46 105.94 172.99 109.62 169.42 113.19 L 171.00 113.54 L 170.62 113.67 C 169.43 113.94 168.54 114.83 167.79 115.72 C 166.91 116.67 165.84 117.33 164.58 117.68 C 164.55 115.93 164.48 114.18 164.36 112.43 C 164.56 112.20 164.96 111.76 165.17 111.53 Z" />
</g>
<g id="#66a4b6ff">
<path fill="#66a4b6" opacity="1.00" d=" M 80.07 91.83 C 80.43 92.40 81.14 93.54 81.50 94.11 C 80.31 95.28 79.63 97.21 77.86 97.63 C 76.37 98.10 75.06 96.95 73.80 96.36 C 75.21 96.46 76.63 96.53 78.04 96.55 C 80.13 96.02 79.74 93.43 80.07 91.83 Z" />
</g>
<g id="#008292ff">
<path fill="#008292" opacity="1.00" d=" M 57.51 102.03 C 57.02 98.22 59.53 95.09 61.57 92.17 C 62.40 96.13 63.45 100.46 66.60 103.25 C 68.89 103.79 71.26 104.18 73.38 105.28 C 69.05 105.59 62.44 104.52 60.44 109.50 C 58.90 107.27 57.17 104.90 57.51 102.03 Z" />
</g>
<g id="#dda9b2ff">
<path fill="#dda9b2" opacity="1.00" d=" M 117.38 95.73 C 118.15 95.43 119.96 93.30 120.29 95.04 C 120.50 98.52 118.95 101.94 116.47 104.34 C 114.36 106.37 112.19 108.93 109.04 109.09 C 103.87 109.64 96.76 109.14 94.77 103.35 C 102.69 106.34 113.10 103.28 117.38 95.73 Z" />
</g>
<g id="#e7e8edff">
<path fill="#e7e8ed" opacity="1.00" d=" M 50.42 98.66 C 51.35 98.18 52.28 97.70 53.22 97.24 C 54.75 99.77 54.95 102.85 56.51 105.37 C 58.05 107.77 58.99 110.75 61.57 112.29 C 66.83 115.87 74.09 114.51 78.53 110.31 L 79.06 111.41 C 75.20 115.71 70.10 119.97 63.97 119.64 C 58.87 119.73 53.98 116.53 52.04 111.82 C 49.78 107.96 49.28 103.44 49.64 99.06 L 50.42 98.66 Z" />
<path fill="#e7e8ed" opacity="1.00" d=" M 112.34 121.88 C 114.30 123.62 115.32 126.02 116.34 128.37 C 116.63 128.41 117.21 128.50 117.50 128.54 L 117.92 128.59 C 120.33 132.99 124.88 136.19 129.91 136.66 C 133.11 137.02 136.34 135.54 138.26 132.98 C 138.93 132.86 140.26 132.62 140.92 132.51 C 137.63 136.87 132.70 140.27 127.06 140.22 C 119.76 141.02 113.50 135.10 110.91 128.76 C 111.61 126.52 112.03 124.20 112.34 121.88 Z" />
</g>
<g id="#52a5b6ff">
<path fill="#52a5b6" opacity="1.00" d=" M 60.44 109.50 C 62.44 104.52 69.05 105.59 73.38 105.28 C 75.12 106.05 76.87 106.80 78.66 107.47 C 76.94 110.14 74.48 112.51 71.18 112.83 C 70.67 110.52 69.95 107.18 66.88 107.33 C 64.34 106.81 62.82 108.98 62.21 111.14 C 61.77 110.73 60.88 109.91 60.44 109.50 Z" />
</g>
<g id="#98cbd3ff">
<path fill="#98cbd3" opacity="1.00" d=" M 62.21 111.14 C 62.82 108.98 64.34 106.81 66.88 107.33 C 69.95 107.18 70.67 110.52 71.18 112.83 C 68.06 113.16 64.90 112.91 62.21 111.14 Z" />
</g>
<g id="#ccc4c5ff">
<path fill="#ccc4c5" opacity="1.00" d=" M 80.43 107.30 C 80.67 107.54 80.67 107.54 80.43 107.30 Z" />
</g>
<g id="#006582ff">
<path fill="#006582" opacity="1.00" d=" M 119.97 113.26 C 121.83 111.26 123.65 109.09 126.13 107.84 C 129.48 106.78 133.06 107.45 136.46 107.89 L 135.78 108.32 C 134.75 109.02 133.57 109.55 132.70 110.46 C 132.16 112.01 132.66 113.70 132.69 115.31 C 134.89 115.49 138.04 116.60 139.07 113.81 C 140.14 112.59 138.82 111.09 138.47 109.86 C 140.13 111.39 141.28 113.35 142.02 115.47 C 141.44 117.34 141.12 119.38 139.96 121.00 C 136.49 122.93 131.95 123.92 128.32 121.81 C 124.73 120.08 122.36 116.76 120.18 113.56 L 119.97 113.26 Z" />
</g>
<g id="#dadbdfff">
<path fill="#dadbdf" opacity="1.00" d=" M 78.99 109.20 L 79.64 109.09 L 79.78 109.74 L 79.14 109.82 L 78.99 109.20 Z" />
</g>
<g id="#007b8eff">
<path fill="#007b8e" opacity="1.00" d=" M 120.18 113.56 C 122.36 116.76 124.73 120.08 128.32 121.81 C 131.95 123.92 136.49 122.93 139.96 121.00 C 141.12 119.38 141.44 117.34 142.02 115.47 C 143.70 120.15 142.61 125.29 139.90 129.35 L 139.70 129.29 C 133.56 126.88 126.48 126.68 120.59 129.91 L 120.13 130.11 C 117.36 125.04 116.70 118.48 120.18 113.56 Z" />
</g>
<g id="#1a1617b6">
<path fill="#1a1617" opacity="0.71" d=" M 167.79 115.72 C 168.54 114.83 169.43 113.94 170.62 113.67 C 171.57 115.16 168.93 116.93 167.79 115.72 Z" />
</g>
<g id="#dfacb6ff">
<path fill="#dfacb6" opacity="1.00" d=" M 40.38 118.18 C 43.31 122.63 46.70 126.75 50.31 130.66 C 53.68 134.30 58.18 136.54 62.62 138.58 C 67.34 140.74 71.71 143.58 76.52 145.54 C 84.94 148.67 93.93 149.70 102.54 152.12 C 108.41 153.58 114.58 152.00 120.41 153.66 C 120.38 157.78 122.16 161.51 124.31 164.91 L 124.06 165.68 C 123.49 165.62 122.35 165.50 121.78 165.44 C 119.25 167.46 116.76 169.53 114.30 171.62 C 115.34 172.22 116.40 172.79 117.47 173.35 C 113.70 174.14 110.02 175.38 106.17 175.72 C 96.86 176.58 87.54 174.63 78.76 171.62 L 78.46 171.50 C 74.82 169.88 71.33 167.94 68.02 165.73 C 66.59 164.60 65.06 163.59 63.45 162.73 C 59.74 159.47 55.99 156.25 52.54 152.71 C 52.14 152.25 51.77 151.77 51.43 151.27 C 51.15 150.97 50.59 150.37 50.32 150.07 C 50.05 149.73 49.52 149.05 49.26 148.71 C 48.90 147.55 48.19 146.55 47.27 145.77 C 46.98 145.37 46.38 144.57 46.08 144.17 C 43.74 140.19 43.20 135.27 40.18 131.69 C 40.69 133.93 41.35 136.14 42.00 138.34 C 39.20 137.40 36.41 136.32 33.92 134.70 C 35.39 133.57 36.98 132.57 38.23 131.19 C 39.35 129.48 38.67 127.38 38.57 125.50 C 38.58 124.09 38.61 122.68 38.65 121.27 C 39.21 120.23 39.79 119.20 40.38 118.18 Z" />
</g>
<g id="#f2ced7ff">
<path fill="#f2ced7" opacity="1.00" d=" M 24.48 121.27 C 28.42 119.59 32.79 118.99 37.02 119.58 C 37.83 121.46 38.10 123.51 38.57 125.50 C 38.67 127.38 39.35 129.48 38.23 131.19 C 36.98 132.57 35.39 133.57 33.92 134.70 C 31.94 133.36 29.95 132.04 27.99 130.67 C 27.81 130.51 27.45 130.17 27.27 130.01 C 25.31 127.61 23.68 124.93 22.64 121.99 C 23.10 121.81 24.02 121.45 24.48 121.27 Z" />
<path fill="#f2ced7" opacity="1.00" d=" M 133.75 171.28 C 134.27 171.07 135.29 170.64 135.81 170.43 C 139.62 173.57 143.77 177.05 145.10 182.02 C 145.74 185.48 141.55 186.31 139.04 186.89 C 132.58 187.68 126.01 185.53 120.45 182.34 C 123.67 177.41 127.56 172.34 133.75 171.28 Z" />
</g>
<g id="#332b2dcf">
<path fill="#332b2d" opacity="0.81" d=" M 27.27 130.01 C 24.54 128.58 21.25 125.32 22.64 121.99 C 23.68 124.93 25.31 127.61 27.27 130.01 Z" />
</g>
<g id="#59adbbff">
<path fill="#59adbb" opacity="1.00" d=" M 120.59 129.91 C 126.48 126.68 133.56 126.88 139.70 129.29 C 138.31 132.81 134.92 135.29 131.16 135.63 C 131.38 133.42 132.52 130.26 129.80 129.09 C 126.83 127.46 124.08 130.03 122.34 132.19 C 121.76 131.42 121.18 130.66 120.59 129.91 Z" />
</g>
<g id="#98ccd4ff">
<path fill="#98ccd4" opacity="1.00" d=" M 122.34 132.19 C 124.08 130.03 126.83 127.46 129.80 129.09 C 132.52 130.26 131.38 133.42 131.16 135.63 C 130.30 135.53 128.58 135.34 127.72 135.25 C 125.91 134.26 124.04 133.36 122.34 132.19 Z" />
</g>
<g id="#e3adb7ff">
<path fill="#e3adb7" opacity="1.00" d=" M 150.32 144.33 C 152.68 142.27 155.12 140.15 158.32 139.60 C 154.48 148.78 147.10 156.05 139.63 162.40 C 139.66 158.66 140.00 154.94 139.84 151.20 C 139.52 151.36 138.88 151.68 138.56 151.84 C 138.53 151.42 138.47 150.59 138.44 150.17 C 142.27 147.95 146.96 147.37 150.32 144.33 Z" />
</g>
<g id="#281f21cb">
<path fill="#281f21" opacity="0.80" d=" M 47.27 145.77 C 48.19 146.55 48.90 147.55 49.26 148.71 C 47.74 149.61 46.03 146.89 47.27 145.77 Z" />
</g>
<g id="#191315b3">
<path fill="#191315" opacity="0.70" d=" M 50.32 150.07 C 50.59 150.37 51.15 150.97 51.43 151.27 L 50.96 151.85 C 50.67 151.57 50.08 150.99 49.79 150.71 L 50.32 150.07 Z" />
</g>
<g id="#2d2526ee">
<path fill="#2d2526" opacity="0.93" d=" M 52.54 152.71 C 55.99 156.25 59.74 159.47 63.45 162.73 C 61.42 162.16 59.63 161.04 57.82 160.00 C 56.02 160.10 54.40 161.02 52.78 161.74 C 48.15 164.06 43.53 167.20 41.42 172.12 C 40.07 174.85 42.39 177.89 45.15 178.35 C 52.40 180.05 59.89 178.40 66.86 176.23 C 69.81 174.93 72.39 172.97 74.91 171.00 C 72.35 169.61 69.90 167.99 68.02 165.73 C 71.33 167.94 74.82 169.88 78.46 171.50 C 77.82 171.51 76.53 171.53 75.88 171.54 C 72.76 173.90 69.76 176.66 65.87 177.70 C 58.25 179.90 49.49 181.93 42.09 177.91 C 39.13 176.08 39.90 171.93 41.57 169.46 C 45.47 164.30 51.33 161.00 57.39 159.01 C 55.78 156.91 53.26 155.38 52.54 152.71 Z" />
</g>
<g id="#ddaab4ff">
<path fill="#ddaab4" opacity="1.00" d=" M 138.71 153.56 C 139.06 157.47 138.78 161.52 137.33 165.20 C 136.48 167.11 135.41 169.45 133.06 169.75 C 129.90 169.32 127.24 167.22 125.58 164.58 C 125.68 163.95 125.87 162.69 125.97 162.06 C 127.93 163.40 129.89 164.74 131.88 166.04 C 135.17 162.49 136.68 157.85 138.71 153.56 Z" />
</g>
<g id="#c795a8ff">
<path fill="#c795a8" opacity="1.00" d=" M 52.78 161.74 C 54.40 161.02 56.02 160.10 57.82 160.00 C 59.63 161.04 61.42 162.16 63.45 162.73 C 65.06 163.59 66.59 164.60 68.02 165.73 C 69.90 167.99 72.35 169.61 74.91 171.00 C 72.39 172.97 69.81 174.93 66.86 176.23 C 64.35 174.02 63.58 170.70 61.91 167.96 C 59.33 165.29 55.83 163.78 52.78 161.74 Z" />
<path fill="#c795a8" opacity="1.00" d=" M 114.30 171.62 C 116.76 169.53 119.25 167.46 121.78 165.44 C 122.35 165.50 123.49 165.62 124.06 165.68 L 124.31 164.91 C 125.45 166.26 126.66 167.56 127.85 168.89 C 126.58 169.87 125.30 170.84 123.99 171.78 C 125.62 171.17 127.25 170.56 128.87 169.96 C 130.49 170.43 132.11 170.91 133.75 171.28 C 127.56 172.34 123.67 177.41 120.45 182.34 C 117.56 180.66 115.02 178.49 112.57 176.24 C 114.70 175.34 116.84 174.45 118.97 173.56 C 118.59 173.51 117.84 173.40 117.47 173.35 C 116.40 172.79 115.34 172.22 114.30 171.62 Z" />
</g>
<g id="#f6d0d9ff">
<path fill="#f6d0d9" opacity="1.00" d=" M 41.42 172.12 C 43.53 167.20 48.15 164.06 52.78 161.74 C 55.83 163.78 59.33 165.29 61.91 167.96 C 63.58 170.70 64.35 174.02 66.86 176.23 C 59.89 178.40 52.40 180.05 45.15 178.35 C 42.39 177.89 40.07 174.85 41.42 172.12 Z" />
</g>
</svg>
