<?xml version="1.0" encoding="UTF-8" ?>
<!DOCTYPE svg PUBLIC "-//W3C//DTD SVG 1.1//EN" "http://www.w3.org/Graphics/SVG/1.1/DTD/svg11.dtd">
<svg width="215pt" height="215pt" viewBox="0 0 215 215" version="1.1" xmlns="http://www.w3.org/2000/svg">
<g id="#313232ff">
<path fill="#313232" opacity="1.00" d=" M 166.00 24.06 C 166.82 23.22 168.15 21.50 169.42 22.42 C 170.73 25.08 170.50 28.15 170.44 31.02 C 169.79 40.93 167.48 50.75 163.49 59.86 C 162.61 61.80 161.60 63.83 159.74 65.01 C 159.89 64.70 160.21 64.08 160.37 63.78 C 164.68 56.85 166.92 48.86 168.46 40.92 C 169.24 34.91 170.53 28.78 169.19 22.76 C 168.12 23.18 167.05 23.61 166.00 24.06 Z" />
<path fill="#313232" opacity="1.00" d=" M 37.65 27.68 C 42.67 26.78 47.70 28.16 52.46 29.67 C 54.08 30.29 55.95 30.71 57.02 32.20 C 50.85 30.33 44.45 26.83 37.87 28.62 C 38.30 33.57 40.20 38.15 42.09 42.68 C 42.05 42.97 41.96 43.57 41.92 43.87 C 39.65 38.81 36.71 33.41 37.65 27.68 Z" />
<path fill="#313232" opacity="1.00" d=" M 151.65 38.67 C 153.65 34.48 157.33 31.05 161.20 28.57 C 157.82 31.75 154.88 35.36 151.65 38.67 Z" />
<path fill="#313232" opacity="1.00" d=" M 157.91 39.60 C 160.37 36.67 162.78 33.62 166.03 31.51 C 163.70 33.92 162.13 36.82 162.27 40.27 C 161.21 48.85 158.48 57.37 153.32 64.38 C 151.67 66.65 149.53 68.51 147.93 70.82 C 148.50 71.66 149.11 72.48 149.77 73.27 C 151.18 72.45 152.60 71.64 154.02 70.82 C 153.24 72.42 151.46 72.99 150.02 73.80 C 155.22 83.32 158.67 93.69 161.00 104.26 C 165.76 104.07 170.43 101.61 175.20 102.91 C 176.95 103.33 178.34 105.07 177.59 106.91 C 175.87 113.69 169.90 117.99 164.60 121.95 C 164.38 122.25 163.93 122.84 163.70 123.14 C 161.72 111.60 159.74 99.97 155.88 88.88 C 154.00 83.04 151.50 77.32 147.84 72.36 C 146.73 70.95 145.53 69.60 144.38 68.23 C 141.90 71.08 140.07 74.65 136.71 76.61 C 133.15 78.89 128.90 79.94 124.69 79.76 C 122.84 79.22 121.00 78.63 119.19 77.96 C 110.28 74.48 106.32 63.68 109.41 54.92 C 102.73 55.18 96.27 57.33 90.89 61.33 C 91.51 63.42 92.17 65.50 92.63 67.64 L 92.75 69.07 C 89.84 61.74 85.69 55.06 80.70 48.97 C 84.81 51.90 87.25 56.64 89.96 60.80 C 93.83 58.63 97.48 55.83 101.98 55.10 C 105.47 53.89 109.84 55.21 112.63 52.31 C 112.31 49.49 111.89 46.22 114.00 43.93 C 116.81 40.11 122.16 39.94 126.42 40.70 C 128.35 41.28 130.84 41.32 132.03 43.22 C 127.15 41.21 121.27 39.81 116.37 42.46 C 114.09 44.40 112.60 47.51 113.13 50.53 C 113.20 54.54 117.18 57.63 120.99 57.73 C 122.32 56.52 123.75 54.87 123.37 52.92 C 122.38 51.47 121.00 50.37 119.76 49.15 C 121.58 49.39 123.00 50.46 124.07 51.90 C 126.19 55.02 122.73 59.14 119.28 58.32 C 116.15 57.96 114.13 55.38 112.51 52.95 C 107.09 59.13 108.96 69.15 114.85 74.37 C 123.21 81.11 137.82 79.14 142.51 68.93 C 146.51 60.48 142.08 49.88 134.57 44.95 C 134.26 44.70 133.64 44.21 133.33 43.96 L 132.74 43.13 C 136.76 44.89 139.79 48.15 142.00 51.86 C 142.94 50.61 143.70 49.14 145.06 48.27 C 144.41 49.57 143.80 50.88 143.24 52.21 C 143.17 55.03 144.36 57.73 144.89 60.47 C 147.48 56.53 149.10 52.07 151.45 48.00 C 153.25 44.94 155.57 42.25 157.91 39.60 M 147.38 68.73 C 150.63 66.67 153.17 63.34 154.35 59.68 C 150.81 61.49 148.32 64.89 147.38 68.73 M 145.17 61.45 C 144.35 62.49 144.31 63.54 145.06 64.61 C 146.50 64.73 146.70 61.19 145.17 61.45 M 161.34 105.58 C 162.69 110.58 163.73 115.69 163.73 120.90 C 166.86 119.33 170.31 117.40 172.22 114.44 C 174.74 111.83 176.64 108.62 177.29 105.02 C 176.87 104.81 176.03 104.40 175.61 104.20 C 172.65 102.93 169.47 103.56 166.43 104.06 C 164.71 104.47 163.00 104.97 161.34 105.58 Z" />
<path fill="#313232" opacity="1.00" d=" M 43.98 33.33 C 47.18 33.67 50.34 34.41 53.26 35.78 C 61.90 39.63 69.85 45.00 76.79 51.42 C 79.71 54.98 82.79 58.45 85.12 62.44 C 85.30 64.56 86.05 66.98 84.94 68.95 C 82.10 70.84 79.18 66.67 76.31 68.64 C 67.04 63.36 57.57 57.34 52.01 47.93 C 49.86 43.86 48.21 39.51 47.60 34.93 C 46.39 34.40 45.18 33.87 43.98 33.33 M 52.33 44.28 C 54.27 51.58 60.52 56.99 66.76 60.78 C 65.47 56.27 63.51 51.96 61.01 48.00 C 59.23 45.02 55.33 45.00 52.33 44.28 Z" />
<path fill="#313232" opacity="1.00" d=" M 58.71 32.97 C 63.88 34.17 68.35 37.28 72.43 40.54 C 75.07 42.95 78.05 45.14 79.91 48.26 C 78.77 47.36 77.63 46.47 76.50 45.56 C 71.42 40.28 65.29 36.14 58.71 32.97 Z" />
<path fill="#313232" opacity="1.00" d=" M 43.01 44.61 C 45.11 48.10 47.73 51.23 50.03 54.58 L 50.37 55.06 C 47.05 52.44 44.14 48.74 43.01 44.61 Z" />
<path fill="#313232" opacity="1.00" d=" M 61.98 65.71 C 66.56 67.98 71.02 70.52 75.80 72.37 C 79.38 73.90 83.33 74.66 86.53 76.97 C 84.06 76.24 81.65 75.32 79.15 74.71 C 77.16 75.48 76.28 77.71 75.06 79.32 C 75.50 77.40 76.46 75.68 77.45 74.00 C 72.28 71.34 66.18 69.84 61.98 65.71 Z" />
<path fill="#313232" opacity="1.00" d=" M 139.61 77.27 C 140.90 75.01 143.63 75.57 145.65 76.21 C 150.55 79.15 153.22 84.42 154.62 89.79 C 154.92 93.74 154.69 98.80 150.92 101.11 C 147.27 102.93 144.61 98.90 142.64 96.45 C 139.45 92.65 139.55 87.47 138.81 82.83 C 138.75 81.56 138.31 80.22 138.79 78.99 C 139.10 80.38 139.65 81.71 140.37 82.94 C 140.49 84.00 140.59 85.06 140.70 86.13 C 140.86 88.51 141.30 90.91 142.54 92.99 C 143.10 94.04 143.67 95.08 144.17 96.16 L 144.17 98.17 C 146.36 97.47 149.12 97.33 150.11 94.85 C 150.70 92.15 149.83 89.46 148.88 86.96 C 147.67 84.59 146.36 82.28 144.94 80.03 C 149.56 83.34 151.67 89.55 150.94 95.05 C 150.81 97.96 147.59 98.50 145.51 99.53 C 147.88 100.47 150.88 100.80 152.18 98.06 C 155.98 90.63 152.17 80.60 144.89 76.78 C 143.17 75.80 141.50 77.40 139.91 77.86 C 139.83 77.71 139.69 77.42 139.61 77.27 Z" />
<path fill="#313232" opacity="1.00" d=" M 103.81 80.69 C 106.75 78.35 110.76 79.19 113.91 80.59 L 113.20 80.87 C 113.41 81.13 113.85 81.66 114.06 81.92 C 111.27 80.24 107.94 79.95 104.96 81.33 C 104.01 82.10 103.13 82.96 102.33 83.89 C 100.42 86.59 99.10 89.98 100.30 93.26 C 100.79 95.44 101.94 97.40 103.19 99.23 C 106.05 102.02 109.84 100.49 112.96 99.17 L 113.01 100.40 C 109.78 102.13 105.03 102.76 102.48 99.54 C 97.97 94.37 97.60 84.76 103.81 80.69 Z" />
<path fill="#313232" opacity="1.00" d=" M 142.07 80.79 C 140.62 80.27 140.52 79.79 141.77 79.36 C 141.84 79.72 141.99 80.43 142.07 80.79 Z" />
<path fill="#313232" opacity="1.00" d=" M 73.81 81.01 C 73.84 81.33 73.90 81.97 73.93 82.29 C 72.72 87.04 71.22 91.71 69.98 96.45 C 69.63 97.83 69.30 99.21 69.07 100.61 C 67.71 108.51 66.62 116.44 65.52 124.38 L 65.46 124.74 C 64.82 132.35 60.76 140.24 64.18 147.68 C 65.04 149.88 66.15 151.98 67.26 154.07 C 63.45 150.71 62.29 145.06 61.73 140.22 C 66.10 120.56 66.43 99.96 73.81 81.01 Z" />
<path fill="#313232" opacity="1.00" d=" M 122.17 101.28 C 128.38 101.49 134.66 102.57 140.82 101.11 C 139.58 103.69 137.65 105.93 134.99 107.11 C 130.09 109.03 123.30 106.96 122.17 101.28 M 123.40 102.19 C 124.31 103.50 125.31 104.75 126.33 105.98 C 129.33 107.20 132.90 107.27 135.74 105.59 L 136.34 105.66 C 137.17 104.62 137.99 103.58 138.81 102.54 C 133.67 102.62 128.51 102.90 123.40 102.19 Z" />
<path fill="#313232" opacity="1.00" d=" M 72.83 160.05 C 74.26 160.40 75.31 161.47 76.05 162.69 C 74.67 163.63 71.99 161.62 72.83 160.05 Z" />
<path fill="#313232" opacity="1.00" d=" M 103.02 174.03 C 116.74 175.29 130.65 172.72 143.13 166.91 C 142.07 167.87 140.76 168.66 140.16 170.02 C 144.57 170.62 150.24 168.57 153.53 172.53 C 155.18 174.11 155.58 176.41 155.70 178.59 L 155.07 178.67 C 155.23 174.45 151.21 170.44 146.96 170.71 C 143.40 170.76 139.83 170.37 136.27 170.65 C 131.96 172.24 127.56 173.64 122.96 174.09 C 123.31 174.56 123.99 175.51 124.33 175.98 C 123.10 175.70 121.97 175.18 120.95 174.45 C 113.26 175.04 105.55 175.06 97.88 174.27 C 98.18 176.25 98.51 178.23 98.86 180.22 C 98.39 179.32 97.93 178.42 97.54 177.49 C 97.39 176.64 97.08 174.94 96.93 174.09 C 92.07 172.95 87.73 170.32 82.84 169.30 C 82.94 168.92 83.13 168.17 83.22 167.79 C 85.50 168.89 87.87 169.77 90.27 170.57 C 94.42 172.03 98.60 173.59 103.02 174.03 Z" />
<path fill="#313232" opacity="1.00" d=" M 79.18 183.98 C 79.24 179.84 79.72 175.33 82.22 171.89 C 81.80 173.79 81.32 175.69 80.85 177.58 C 80.01 181.35 78.84 186.05 82.01 189.09 C 85.92 192.94 92.18 192.60 97.02 190.92 C 94.34 193.23 90.35 192.99 87.07 192.47 C 82.97 191.85 78.78 188.47 79.18 183.98 Z" />
<path fill="#313232" opacity="1.00" d=" M 125.87 176.81 C 127.62 177.47 129.32 178.25 131.01 179.06 C 137.26 181.97 144.47 183.30 151.28 181.83 C 148.33 183.99 144.30 183.40 140.90 182.97 C 135.63 181.84 129.98 180.50 125.87 176.81 Z" />
</g>
<g id="#f0e7eeff">
<path fill="#f0e7ee" opacity="1.00" d=" M 166.00 24.06 C 167.05 23.61 168.12 23.18 169.19 22.76 C 170.53 28.78 169.24 34.91 168.46 40.92 C 166.92 48.86 164.68 56.85 160.37 63.78 C 160.25 57.33 166.71 51.96 164.05 45.42 C 164.21 43.44 164.20 41.42 162.27 40.27 C 162.13 36.82 163.70 33.92 166.03 31.51 C 162.78 33.62 160.37 36.67 157.91 39.60 C 157.13 38.86 156.36 38.12 155.59 37.39 C 154.31 38.42 153.02 39.46 151.73 40.49 L 151.52 38.91 L 151.65 38.67 C 154.88 35.36 157.82 31.75 161.20 28.57 L 161.61 28.27 C 162.97 27.48 164.11 26.40 165.02 25.12 C 165.27 24.86 165.75 24.33 166.00 24.06 Z" />
</g>
<g id="#403f40b2">
<path fill="#403f40" opacity="0.70" d=" M 161.61 28.27 C 160.50 26.50 163.34 23.99 165.02 25.12 C 164.11 26.40 162.97 27.48 161.61 28.27 Z" />
</g>
<g id="#f7eef3ff">
<path fill="#f7eef3" opacity="1.00" d=" M 37.87 28.62 C 44.45 26.83 50.85 30.33 57.02 32.20 C 57.44 32.39 58.29 32.77 58.71 32.97 C 65.29 36.14 71.42 40.28 76.50 45.56 C 75.90 45.64 74.69 45.81 74.09 45.90 C 75.10 47.68 75.99 49.53 76.79 51.42 C 69.85 45.00 61.90 39.63 53.26 35.78 C 50.34 34.41 47.18 33.67 43.98 33.33 C 45.18 33.87 46.39 34.40 47.60 34.93 C 48.21 39.51 49.86 43.86 52.01 47.93 C 51.48 50.18 52.41 53.19 50.03 54.58 C 47.73 51.23 45.11 48.10 43.01 44.61 C 42.78 44.13 42.32 43.16 42.09 42.68 C 40.20 38.15 38.30 33.57 37.87 28.62 Z" />
</g>
<g id="#efd0d7ff">
<path fill="#efd0d7" opacity="1.00" d=" M 151.73 40.49 C 153.02 39.46 154.31 38.42 155.59 37.39 C 156.36 38.12 157.13 38.86 157.91 39.60 C 155.57 42.25 153.25 44.94 151.45 48.00 C 148.36 48.86 146.66 52.29 143.24 52.21 C 143.80 50.88 144.41 49.57 145.06 48.27 L 145.07 48.25 C 147.25 45.26 149.39 42.24 151.38 39.13 L 151.52 38.91 L 151.73 40.49 Z" />
</g>
<g id="#383134c4">
<path fill="#383134" opacity="0.77" d=" M 145.07 48.25 C 145.70 44.63 148.42 41.21 151.38 39.13 C 149.39 42.24 147.25 45.26 145.07 48.25 Z" />
</g>
<g id="#f4e1e7ff">
<path fill="#f4e1e7" opacity="1.00" d=" M 116.37 42.46 C 121.27 39.81 127.15 41.21 132.03 43.22 C 132.35 43.41 133.00 43.78 133.33 43.96 C 133.64 44.21 134.26 44.70 134.57 44.95 C 133.02 46.66 131.47 48.69 128.98 48.91 C 126.94 49.15 125.27 50.26 124.07 51.90 C 123.00 50.46 121.58 49.39 119.76 49.15 C 121.00 50.37 122.38 51.47 123.37 52.92 C 123.75 54.87 122.32 56.52 120.99 57.73 C 117.18 57.63 113.20 54.54 113.13 50.53 C 112.60 47.51 114.09 44.40 116.37 42.46 Z" />
<path fill="#f4e1e7" opacity="1.00" d=" M 72.90 107.01 C 77.76 106.21 82.75 105.89 87.57 107.14 C 85.02 107.85 82.40 108.22 79.75 108.23 C 79.62 109.46 80.07 111.09 78.71 111.80 C 77.26 112.26 75.71 111.74 74.22 111.74 C 74.04 112.17 73.66 113.02 73.47 113.45 C 72.27 111.47 72.14 109.18 72.90 107.01 Z" />
</g>
<g id="#d6a7b2ff">
<path fill="#d6a7b2" opacity="1.00" d=" M 153.32 64.38 C 158.48 57.37 161.21 48.85 162.27 40.27 C 164.20 41.42 164.21 43.44 164.05 45.42 C 163.00 49.68 161.91 53.99 159.72 57.83 C 158.26 60.84 155.92 63.45 155.07 66.73 C 155.55 66.84 156.51 67.06 156.99 67.18 C 156.29 68.04 155.66 68.96 155.01 69.87 C 154.77 70.11 154.27 70.58 154.02 70.82 C 152.60 71.64 151.18 72.45 149.77 73.27 C 149.11 72.48 148.50 71.66 147.93 70.82 C 149.53 68.51 151.67 66.65 153.32 64.38 Z" />
</g>
<g id="#7c7d7eff">
<path fill="#7c7d7e" opacity="1.00" d=" M 52.33 44.28 C 55.33 45.00 59.23 45.02 61.01 48.00 C 63.51 51.96 65.47 56.27 66.76 60.78 C 60.52 56.99 54.27 51.58 52.33 44.28 Z" />
</g>
<g id="#f7d5dbff">
<path fill="#f7d5db" opacity="1.00" d=" M 134.57 44.95 C 142.08 49.88 146.51 60.48 142.51 68.93 C 137.90 70.49 134.23 74.37 129.11 74.43 C 124.34 75.61 119.56 73.25 114.85 74.37 C 108.96 69.15 107.09 59.13 112.51 52.95 C 114.13 55.38 116.15 57.96 119.28 58.32 C 122.73 59.14 126.19 55.02 124.07 51.90 C 125.27 50.26 126.94 49.15 128.98 48.91 C 131.47 48.69 133.02 46.66 134.57 44.95 Z" />
</g>
<g id="#eecad1ff">
<path fill="#eecad1" opacity="1.00" d=" M 74.09 45.90 C 74.69 45.81 75.90 45.64 76.50 45.56 C 77.63 46.47 78.77 47.36 79.91 48.26 C 80.11 48.44 80.51 48.80 80.70 48.97 C 85.69 55.06 89.84 61.74 92.75 69.07 L 92.63 67.64 C 94.83 70.10 96.67 73.81 95.08 77.05 C 92.65 78.96 89.18 77.91 86.53 76.97 C 83.33 74.66 79.38 73.90 75.80 72.37 C 71.02 70.52 66.56 67.98 61.98 65.71 C 61.74 65.49 61.26 65.06 61.02 64.84 C 60.02 63.60 58.74 62.63 57.33 61.91 C 57.03 61.65 56.43 61.15 56.13 60.89 C 55.68 59.97 54.98 59.31 54.04 58.89 C 53.80 58.66 53.32 58.21 53.08 57.99 C 52.69 57.03 52.05 56.31 51.15 55.82 C 50.95 55.63 50.57 55.25 50.37 55.06 L 50.03 54.58 C 52.41 53.19 51.48 50.18 52.01 47.93 C 57.57 57.34 67.04 63.36 76.31 68.64 C 78.87 69.97 81.56 71.03 84.11 72.39 C 86.25 73.86 88.81 74.11 91.18 73.03 C 90.40 71.46 89.64 69.90 88.79 68.37 C 87.62 66.36 86.33 64.43 85.12 62.44 C 82.79 58.45 79.71 54.98 76.79 51.42 C 75.99 49.53 75.10 47.68 74.09 45.90 Z" />
</g>
<g id="#e6c6d0ff">
<path fill="#e6c6d0" opacity="1.00" d=" M 159.72 57.83 C 161.91 53.99 163.00 49.68 164.05 45.42 C 166.71 51.96 160.25 57.33 160.37 63.78 C 160.21 64.08 159.89 64.70 159.74 65.01 C 159.52 65.31 159.09 65.90 158.88 66.20 C 158.40 66.45 157.46 66.93 156.99 67.18 C 156.51 67.06 155.55 66.84 155.07 66.73 C 155.92 63.45 158.26 60.84 159.72 57.83 Z" />
</g>
<g id="#daabb6ff">
<path fill="#daabb6" opacity="1.00" d=" M 143.24 52.21 C 146.66 52.29 148.36 48.86 151.45 48.00 C 149.10 52.07 147.48 56.53 144.89 60.47 C 144.36 57.73 143.17 55.03 143.24 52.21 Z" />
</g>
<g id="#f8e3e9ff">
<path fill="#f8e3e9" opacity="1.00" d=" M 90.89 61.33 C 96.27 57.33 102.73 55.18 109.41 54.92 C 106.32 63.68 110.28 74.48 119.19 77.96 C 118.23 79.02 117.27 80.08 116.31 81.14 C 114.30 78.65 111.74 76.43 108.49 75.86 C 102.68 74.53 96.90 78.48 94.58 83.68 C 92.37 87.40 93.20 91.88 93.44 95.97 C 93.20 96.17 92.71 96.58 92.46 96.78 C 92.15 96.12 91.53 94.81 91.22 94.15 C 86.83 95.20 82.76 97.68 78.16 97.71 C 75.78 97.88 74.54 95.53 73.09 94.07 C 72.31 95.21 71.65 96.68 69.98 96.45 C 71.22 91.71 72.72 87.04 73.93 82.29 C 74.25 81.28 74.62 80.29 75.06 79.32 C 76.28 77.71 77.16 75.48 79.15 74.71 C 81.65 75.32 84.06 76.24 86.53 76.97 C 89.18 77.91 92.65 78.96 95.08 77.05 C 96.67 73.81 94.83 70.10 92.63 67.64 C 92.17 65.50 91.51 63.42 90.89 61.33 Z" />
<path fill="#f8e3e9" opacity="1.00" d=" M 145.65 76.21 C 146.37 74.92 147.10 73.64 147.84 72.36 C 151.50 77.32 154.00 83.04 155.88 88.88 L 154.62 89.79 C 153.22 84.42 150.55 79.15 145.65 76.21 Z" />
<path fill="#f8e3e9" opacity="1.00" d=" M 69.07 100.61 C 69.61 102.89 70.28 105.14 70.95 107.38 C 70.71 108.30 70.48 109.23 70.19 110.14 C 67.87 114.68 68.96 120.37 65.52 124.38 C 66.62 116.44 67.71 108.51 69.07 100.61 Z" />
</g>
<g id="#252021b0">
<path fill="#252021" opacity="0.69" d=" M 51.15 55.82 C 52.05 56.31 52.69 57.03 53.08 57.99 C 51.29 58.29 50.65 57.57 51.15 55.82 Z" />
</g>
<g id="#201c1d92">
<path fill="#201c1d" opacity="0.57" d=" M 54.04 58.89 C 54.98 59.31 55.68 59.97 56.13 60.89 C 54.35 61.32 53.66 60.65 54.04 58.89 Z" />
</g>
<g id="#777a7aff">
<path fill="#777a7a" opacity="1.00" d=" M 147.38 68.73 C 148.32 64.89 150.81 61.49 154.35 59.68 C 153.17 63.34 150.63 66.67 147.38 68.73 Z" />
</g>
<g id="#151717ff">
<path fill="#151717" opacity="1.00" d=" M 145.17 61.45 C 146.70 61.19 146.50 64.73 145.06 64.61 C 144.31 63.54 144.35 62.49 145.17 61.45 Z" />
</g>
<g id="#201b1c9d">
<path fill="#201b1c" opacity="0.62" d=" M 57.33 61.91 C 58.74 62.63 60.02 63.60 61.02 64.84 C 59.41 66.04 56.37 63.73 57.33 61.91 Z" />
</g>
<g id="#302b2cff">
<path fill="#302b2c" opacity="1.00" d=" M 85.12 62.44 C 86.33 64.43 87.62 66.36 88.79 68.37 C 87.86 70.35 85.91 71.36 84.11 72.39 C 81.56 71.03 78.87 69.97 76.31 68.64 C 79.18 66.67 82.10 70.84 84.94 68.95 C 86.05 66.98 85.30 64.56 85.12 62.44 Z" />
</g>
<g id="#2a2123b4">
<path fill="#2a2123" opacity="0.71" d=" M 156.99 67.18 C 157.46 66.93 158.40 66.45 158.88 66.20 C 159.47 68.04 156.88 70.73 155.01 69.87 C 155.66 68.96 156.29 68.04 156.99 67.18 Z" />
</g>
<g id="#e7b4bdff">
<path fill="#e7b4bd" opacity="1.00" d=" M 88.79 68.37 C 89.64 69.90 90.40 71.46 91.18 73.03 C 88.81 74.11 86.25 73.86 84.11 72.39 C 85.91 71.36 87.86 70.35 88.79 68.37 Z" />
</g>
<g id="#eec2c8ff">
<path fill="#eec2c8" opacity="1.00" d=" M 129.11 74.43 C 134.23 74.37 137.90 70.49 142.51 68.93 C 137.82 79.14 123.21 81.11 114.85 74.37 C 119.56 73.25 124.34 75.61 129.11 74.43 Z" />
</g>
<g id="#e3b1b7ff">
<path fill="#e3b1b7" opacity="1.00" d=" M 136.71 76.61 C 140.07 74.65 141.90 71.08 144.38 68.23 C 145.53 69.60 146.73 70.95 147.84 72.36 C 147.10 73.64 146.37 74.92 145.65 76.21 C 143.63 75.57 140.90 75.01 139.61 77.27 C 139.41 77.70 139.00 78.56 138.79 78.99 C 138.31 80.22 138.75 81.56 138.81 82.83 C 134.10 82.38 128.21 83.78 124.69 79.76 C 128.90 79.94 133.15 78.89 136.71 76.61 Z" />
</g>
<g id="#6a5c5fff">
<path fill="#6a5c5f" opacity="1.00" d=" M 94.58 83.68 C 96.90 78.48 102.68 74.53 108.49 75.86 C 111.74 76.43 114.30 78.65 116.31 81.14 C 119.94 85.82 118.97 92.22 117.78 97.59 C 116.10 100.06 113.96 102.22 111.33 103.66 C 107.99 104.44 104.32 105.52 101.02 103.97 C 97.35 102.70 95.08 99.30 93.44 95.97 C 93.20 91.88 92.37 87.40 94.58 83.68 M 98.98 79.94 C 94.06 83.48 93.53 90.46 95.02 95.88 C 96.99 103.92 108.94 106.17 114.12 99.92 L 113.01 100.40 L 112.96 99.17 C 115.79 98.07 116.46 94.67 117.01 92.03 C 117.80 88.42 116.77 84.48 114.06 81.92 C 113.85 81.66 113.41 81.13 113.20 80.87 L 113.91 80.59 C 113.42 78.66 111.26 78.11 109.70 77.30 C 105.99 75.61 101.99 77.80 98.98 79.94 Z" />
<path fill="#6a5c5f" opacity="1.00" d=" M 70.95 107.38 C 75.26 104.07 80.99 104.67 86.04 105.29 C 89.40 106.01 93.37 106.45 95.41 109.59 C 92.81 108.75 90.27 107.65 87.57 107.14 C 82.75 105.89 77.76 106.21 72.90 107.01 C 72.14 109.18 72.27 111.47 73.47 113.45 C 76.69 117.86 81.22 121.26 86.25 123.35 C 87.89 124.10 89.53 124.86 91.16 125.63 C 90.72 125.79 89.83 126.10 89.39 126.26 C 81.52 123.16 73.57 118.29 70.19 110.14 C 70.48 109.23 70.71 108.30 70.95 107.38 Z" />
</g>
<g id="#ffffffff">
<path fill="#ffffff" opacity="1.00" d=" M 98.98 79.94 C 101.99 77.80 105.99 75.61 109.70 77.30 C 111.26 78.11 113.42 78.66 113.91 80.59 C 110.76 79.19 106.75 78.35 103.81 80.69 C 97.60 84.76 97.97 94.37 102.48 99.54 C 105.03 102.76 109.78 102.13 113.01 100.40 L 114.12 99.92 C 108.94 106.17 96.99 103.92 95.02 95.88 C 93.53 90.46 94.06 83.48 98.98 79.94 Z" />
<path fill="#ffffff" opacity="1.00" d=" M 138.79 78.99 C 139.00 78.56 139.41 77.70 139.61 77.27 C 139.69 77.42 139.83 77.71 139.91 77.86 C 141.50 77.40 143.17 75.80 144.89 76.78 C 152.17 80.60 155.98 90.63 152.18 98.06 C 150.88 100.80 147.88 100.47 145.51 99.53 C 147.59 98.50 150.81 97.96 150.94 95.05 C 151.67 89.55 149.56 83.34 144.94 80.03 C 144.00 79.33 142.94 79.11 141.77 79.36 C 140.52 79.79 140.62 80.27 142.07 80.79 C 142.68 80.98 143.91 81.35 144.52 81.53 C 144.55 83.26 144.54 84.98 144.50 86.70 C 143.23 86.52 141.96 86.33 140.70 86.13 C 140.59 85.06 140.49 84.00 140.37 82.94 C 139.65 81.71 139.10 80.38 138.79 78.99 Z" />
<path fill="#ffffff" opacity="1.00" d=" M 102.33 83.89 C 103.13 82.96 104.01 82.10 104.96 81.33 C 108.49 81.15 109.70 86.02 106.55 87.55 C 103.99 88.87 101.93 86.40 102.33 83.89 Z" />
</g>
<g id="#f7d6dbff">
<path fill="#f7d6db" opacity="1.00" d=" M 119.19 77.96 C 121.00 78.63 122.84 79.22 124.69 79.76 C 128.21 83.78 134.10 82.38 138.81 82.83 C 139.55 87.47 139.45 92.65 142.64 96.45 C 144.61 98.90 147.27 102.93 150.92 101.11 C 154.69 98.80 154.92 93.74 154.62 89.79 L 155.88 88.88 C 159.74 99.97 161.72 111.60 163.70 123.14 C 163.89 126.53 163.92 129.93 163.65 133.32 C 163.03 133.07 161.79 132.57 161.17 132.32 C 160.56 133.24 159.94 134.15 159.37 135.09 C 158.05 128.15 156.98 120.94 153.24 114.80 C 150.31 110.12 147.77 105.02 143.68 101.23 C 138.81 97.51 132.18 95.11 126.12 97.06 C 123.34 97.89 120.68 99.07 117.99 100.16 C 117.94 99.52 117.83 98.23 117.78 97.59 C 118.97 92.22 119.94 85.82 116.31 81.14 C 117.27 80.08 118.23 79.02 119.19 77.96 Z" />
</g>
<g id="#006888ff">
<path fill="#006888" opacity="1.00" d=" M 141.77 79.36 C 142.94 79.11 144.00 79.33 144.94 80.03 C 146.36 82.28 147.67 84.59 148.88 86.96 C 147.45 88.70 145.54 89.87 143.44 90.64 C 143.22 91.22 142.77 92.40 142.54 92.99 C 141.30 90.91 140.86 88.51 140.70 86.13 C 141.96 86.33 143.23 86.52 144.50 86.70 C 144.54 84.98 144.55 83.26 144.52 81.53 C 143.91 81.35 142.68 80.98 142.07 80.79 C 141.99 80.43 141.84 79.72 141.77 79.36 Z" />
<path fill="#006888" opacity="1.00" d=" M 104.96 81.33 C 107.94 79.95 111.27 80.24 114.06 81.92 C 116.77 84.48 117.80 88.42 117.01 92.03 C 116.46 94.67 115.79 98.07 112.96 99.17 C 113.35 98.32 113.76 97.47 114.19 96.64 C 116.26 93.75 116.12 90.21 115.97 86.83 C 114.13 89.43 111.82 91.91 108.58 92.61 C 106.01 93.55 103.48 92.25 101.12 91.35 C 100.91 91.83 100.50 92.78 100.30 93.26 C 99.10 89.98 100.42 86.59 102.33 83.89 C 101.93 86.40 103.99 88.87 106.55 87.55 C 109.70 86.02 108.49 81.15 104.96 81.33 Z" />
</g>
<g id="#008596ff">
<path fill="#008596" opacity="1.00" d=" M 108.58 92.61 C 111.82 91.91 114.13 89.43 115.97 86.83 C 116.12 90.21 116.26 93.75 114.19 96.64 C 110.32 96.35 106.05 96.07 103.19 99.23 C 101.94 97.40 100.79 95.44 100.30 93.26 C 100.50 92.78 100.91 91.83 101.12 91.35 C 103.48 92.25 106.01 93.55 108.58 92.61 Z" />
</g>
<g id="#008395ff">
<path fill="#008395" opacity="1.00" d=" M 148.88 86.96 C 149.83 89.46 150.70 92.15 150.11 94.85 C 147.97 94.38 145.41 93.72 144.17 96.16 C 143.67 95.08 143.10 94.04 142.54 92.99 C 142.77 92.40 143.22 91.22 143.44 90.64 C 145.54 89.87 147.45 88.70 148.88 86.96 Z" />
</g>
<g id="#f4d4d9ff">
<path fill="#f4d4d9" opacity="1.00" d=" M 69.98 96.45 C 71.65 96.68 72.31 95.21 73.09 94.07 C 74.54 95.53 75.78 97.88 78.16 97.71 C 82.76 97.68 86.83 95.20 91.22 94.15 C 91.53 94.81 92.15 96.12 92.46 96.78 C 92.71 96.58 93.20 96.17 93.44 95.97 C 95.08 99.30 97.35 102.70 101.02 103.97 C 104.32 105.52 107.99 104.44 111.33 103.66 C 109.86 107.48 106.36 109.77 103.79 112.77 C 100.51 116.56 97.39 120.51 95.08 124.97 C 95.12 123.39 95.41 121.70 94.74 120.20 C 91.57 119.70 88.80 121.79 86.25 123.35 C 81.22 121.26 76.69 117.86 73.47 113.45 C 73.66 113.02 74.04 112.17 74.22 111.74 C 75.71 111.74 77.26 112.26 78.71 111.80 C 80.07 111.09 79.62 109.46 79.75 108.23 C 82.40 108.22 85.02 107.85 87.57 107.14 C 90.27 107.65 92.81 108.75 95.41 109.59 C 93.37 106.45 89.40 106.01 86.04 105.29 C 80.99 104.67 75.26 104.07 70.95 107.38 C 70.28 105.14 69.61 102.89 69.07 100.61 C 69.30 99.21 69.63 97.83 69.98 96.45 Z" />
<path fill="#f4d4d9" opacity="1.00" d=" M 65.52 124.38 C 68.96 120.37 67.87 114.68 70.19 110.14 C 73.57 118.29 81.52 123.16 89.39 126.26 C 88.73 126.55 87.42 127.12 86.76 127.41 C 88.29 128.53 90.10 129.07 91.92 129.48 C 89.00 133.26 87.33 137.79 85.66 142.22 L 85.37 142.11 C 77.03 138.82 69.76 132.64 65.46 124.74 L 65.52 124.38 Z" />
</g>
<g id="#7ec4ceff">
<path fill="#7ec4ce" opacity="1.00" d=" M 144.17 96.16 C 145.41 93.72 147.97 94.38 150.11 94.85 C 149.12 97.33 146.36 97.47 144.17 98.17 L 144.17 96.16 Z" />
<path fill="#7ec4ce" opacity="1.00" d=" M 103.19 99.23 C 106.05 96.07 110.32 96.35 114.19 96.64 C 113.76 97.47 113.35 98.32 112.96 99.17 C 109.84 100.49 106.05 102.02 103.19 99.23 Z" />
</g>
<g id="#f4eef3ff">
<path fill="#f4eef3" opacity="1.00" d=" M 126.12 97.06 C 132.18 95.11 138.81 97.51 143.68 101.23 C 147.77 105.02 150.31 110.12 153.24 114.80 C 156.98 120.94 158.05 128.15 159.37 135.09 C 154.91 137.40 150.69 140.18 146.02 142.07 C 136.42 145.82 126.28 148.03 116.01 148.81 C 110.63 148.71 107.88 155.83 102.38 154.62 C 99.88 154.09 97.12 153.58 95.24 151.71 C 93.50 149.92 94.00 147.18 93.05 145.04 C 90.73 143.77 88.14 143.11 85.66 142.22 C 87.33 137.79 89.00 133.26 91.92 129.48 C 93.02 128.02 94.17 126.57 95.08 124.97 C 97.39 120.51 100.51 116.56 103.79 112.77 C 106.36 109.77 109.86 107.48 111.33 103.66 C 113.96 102.22 116.10 100.06 117.78 97.59 C 117.83 98.23 117.94 99.52 117.99 100.16 C 120.68 99.07 123.34 97.89 126.12 97.06 M 122.17 101.28 C 123.30 106.96 130.09 109.03 134.99 107.11 C 137.65 105.93 139.58 103.69 140.82 101.11 C 134.66 102.57 128.38 101.49 122.17 101.28 Z" />
</g>
<g id="#caa0adff">
<path fill="#caa0ad" opacity="1.00" d=" M 123.40 102.19 C 128.51 102.90 133.67 102.62 138.81 102.54 C 137.99 103.58 137.17 104.62 136.34 105.66 L 135.74 105.59 C 132.64 105.44 129.20 104.30 126.33 105.98 C 125.31 104.75 124.31 103.50 123.40 102.19 Z" />
<path fill="#caa0ad" opacity="1.00" d=" M 82.84 169.30 C 87.73 170.32 92.07 172.95 96.93 174.09 C 97.08 174.94 97.39 176.64 97.54 177.49 C 95.53 177.39 93.55 177.09 91.58 176.72 C 87.98 175.93 84.47 177.66 80.85 177.58 C 81.32 175.69 81.80 173.79 82.22 171.89 C 82.38 171.24 82.69 169.95 82.84 169.30 Z" />
</g>
<g id="#e5bac1ff">
<path fill="#e5bac1" opacity="1.00" d=" M 161.34 105.58 C 163.00 104.97 164.71 104.47 166.43 104.06 C 169.39 105.37 172.77 106.38 175.61 104.20 C 176.03 104.40 176.87 104.81 177.29 105.02 C 176.64 108.62 174.74 111.83 172.22 114.44 C 172.34 113.41 172.45 112.39 172.56 111.36 C 170.09 111.02 167.64 110.54 165.24 109.87 C 165.02 108.64 164.79 107.42 164.56 106.20 C 163.76 106.04 162.14 105.73 161.34 105.58 Z" />
</g>
<g id="#f9d2d9ff">
<path fill="#f9d2d9" opacity="1.00" d=" M 166.43 104.06 C 169.47 103.56 172.65 102.93 175.61 104.20 C 172.77 106.38 169.39 105.37 166.43 104.06 Z" />
</g>
<g id="#e6b9c8ff">
<path fill="#e6b9c8" opacity="1.00" d=" M 126.33 105.98 C 129.20 104.30 132.64 105.44 135.74 105.59 C 132.90 107.27 129.33 107.20 126.33 105.98 Z" />
</g>
<g id="#cca1afff">
<path fill="#cca1af" opacity="1.00" d=" M 161.34 105.58 C 162.14 105.73 163.76 106.04 164.56 106.20 C 164.79 107.42 165.02 108.64 165.24 109.87 C 167.64 110.54 170.09 111.02 172.56 111.36 C 172.45 112.39 172.34 113.41 172.22 114.44 C 170.31 117.40 166.86 119.33 163.73 120.90 C 163.73 115.69 162.69 110.58 161.34 105.58 Z" />
</g>
<g id="#e8bec3ff">
<path fill="#e8bec3" opacity="1.00" d=" M 86.25 123.35 C 88.80 121.79 91.57 119.70 94.74 120.20 C 95.41 121.70 95.12 123.39 95.08 124.97 C 94.17 126.57 93.02 128.02 91.92 129.48 C 90.10 129.07 88.29 128.53 86.76 127.41 C 87.42 127.12 88.73 126.55 89.39 126.26 C 89.83 126.10 90.72 125.79 91.16 125.63 C 89.53 124.86 87.89 124.10 86.25 123.35 Z" />
</g>
<g id="#271f21a4">
<path fill="#271f21" opacity="0.64" d=" M 163.70 123.14 C 163.93 122.84 164.38 122.25 164.60 121.95 C 165.15 132.30 164.49 143.18 159.37 152.44 C 158.85 153.56 157.81 154.27 156.85 154.98 C 160.94 148.48 163.26 140.99 163.65 133.32 C 163.92 129.93 163.89 126.53 163.70 123.14 Z" />
</g>
<g id="#d3a8b2ff">
<path fill="#d3a8b2" opacity="1.00" d=" M 64.18 147.68 C 60.76 140.24 64.82 132.35 65.46 124.74 C 69.76 132.64 77.03 138.82 85.37 142.11 C 84.39 144.79 83.08 147.37 82.50 150.17 C 82.49 153.70 83.16 157.26 84.34 160.59 C 86.04 164.08 89.11 166.77 90.27 170.57 C 87.87 169.77 85.50 168.89 83.22 167.79 C 82.91 167.61 82.28 167.26 81.96 167.08 C 81.54 166.77 80.69 166.14 80.26 165.83 C 79.93 165.66 79.25 165.32 78.92 165.15 C 78.53 164.80 77.74 164.10 77.35 163.75 C 77.03 163.48 76.38 162.96 76.05 162.69 C 75.31 161.47 74.26 160.40 72.83 160.05 C 72.50 159.92 71.84 159.67 71.50 159.54 L 71.35 158.65 C 70.99 158.27 70.27 157.49 69.91 157.11 L 69.39 156.64 C 69.04 156.24 68.34 155.44 67.99 155.04 C 67.81 154.80 67.44 154.31 67.26 154.07 C 66.15 151.98 65.04 149.88 64.18 147.68 Z" />
</g>
<g id="#d5a8b2ff">
<path fill="#d5a8b2" opacity="1.00" d=" M 161.17 132.32 C 161.79 132.57 163.03 133.07 163.65 133.32 C 163.26 140.99 160.94 148.48 156.85 154.98 C 156.68 155.20 156.34 155.63 156.18 155.85 C 153.99 158.24 151.62 160.46 149.03 162.41 C 149.98 157.82 153.60 154.55 155.34 150.32 C 157.68 145.55 158.44 140.26 159.37 135.09 C 159.94 134.15 160.56 133.24 161.17 132.32 Z" />
</g>
<g id="#dcd7e2ff">
<path fill="#dcd7e2" opacity="1.00" d=" M 146.02 142.07 C 150.69 140.18 154.91 137.40 159.37 135.09 C 158.44 140.26 157.68 145.55 155.34 150.32 C 153.60 154.55 149.98 157.82 149.03 162.41 C 147.53 163.60 146.07 164.84 144.58 166.06 C 144.22 166.27 143.49 166.70 143.13 166.91 C 130.65 172.72 116.74 175.29 103.02 174.03 C 98.60 173.59 94.42 172.03 90.27 170.57 C 89.11 166.77 86.04 164.08 84.34 160.59 C 83.16 157.26 82.49 153.70 82.50 150.17 C 83.08 147.37 84.39 144.79 85.37 142.11 L 85.66 142.22 C 88.14 143.11 90.73 143.77 93.05 145.04 C 94.00 147.18 93.50 149.92 95.24 151.71 C 97.12 153.58 99.88 154.09 102.38 154.62 C 107.88 155.83 110.63 148.71 116.01 148.81 C 126.28 148.03 136.42 145.82 146.02 142.07 Z" />
</g>
<g id="#241d1fb0">
<path fill="#241d1f" opacity="0.69" d=" M 67.99 155.04 C 68.34 155.44 69.04 156.24 69.39 156.64 L 68.48 156.75 L 67.76 155.93 L 67.99 155.04 Z" />
</g>
<g id="#413438c6">
<path fill="#413438" opacity="0.78" d=" M 149.03 162.41 C 151.62 160.46 153.99 158.24 156.18 155.85 C 155.34 158.51 153.05 160.21 151.04 161.98 C 149.07 163.59 147.14 165.43 144.58 166.06 C 146.07 164.84 147.53 163.60 149.03 162.41 Z" />
</g>
<g id="#2e2528cb">
<path fill="#2e2528" opacity="0.80" d=" M 69.91 157.11 C 70.27 157.49 70.99 158.27 71.35 158.65 C 70.94 158.48 70.11 158.13 69.70 157.96 L 69.91 157.11 Z" />
</g>
<g id="#413437c2">
<path fill="#413437" opacity="0.76" d=" M 77.35 163.75 C 77.74 164.10 78.53 164.80 78.92 165.15 L 78.03 165.37 L 77.23 164.66 L 77.35 163.75 Z" />
</g>
<g id="#483a3ed9">
<path fill="#483a3e" opacity="0.85" d=" M 80.26 165.83 C 80.69 166.14 81.54 166.77 81.96 167.08 L 81.08 167.38 L 80.21 166.74 L 80.26 165.83 Z" />
</g>
<g id="#cda3afff">
<path fill="#cda3af" opacity="1.00" d=" M 122.96 174.09 C 127.56 173.64 131.96 172.24 136.27 170.65 C 136.38 171.17 136.59 172.22 136.69 172.74 C 134.93 174.96 133.02 177.06 131.01 179.06 C 129.32 178.25 127.62 177.47 125.87 176.81 C 125.54 176.69 124.90 176.43 124.57 176.31 L 124.33 175.98 C 123.99 175.51 123.31 174.56 122.96 174.09 Z" />
</g>
<g id="#f4d6dbff">
<path fill="#f4d6db" opacity="1.00" d=" M 136.27 170.65 C 139.83 170.37 143.40 170.76 146.96 170.71 C 151.21 170.44 155.23 174.45 155.07 178.67 C 154.18 180.09 152.85 181.23 151.28 181.83 C 144.47 183.30 137.26 181.97 131.01 179.06 C 133.02 177.06 134.93 174.96 136.69 172.74 C 136.59 172.22 136.38 171.17 136.27 170.65 Z" />
<path fill="#f4d6db" opacity="1.00" d=" M 80.85 177.58 C 84.47 177.66 87.98 175.93 91.58 176.72 C 93.55 177.09 95.53 177.39 97.54 177.49 C 97.93 178.42 98.39 179.32 98.86 180.22 C 99.12 180.76 99.64 181.84 99.90 182.38 C 100.42 185.20 99.74 188.01 98.03 190.31 C 97.78 190.46 97.28 190.77 97.02 190.92 C 92.18 192.60 85.92 192.94 82.01 189.09 C 78.84 186.05 80.01 181.35 80.85 177.58 Z" />
</g>
<g id="#342d2fc7">
<path fill="#342d2f" opacity="0.78" d=" M 99.90 182.38 L 100.77 182.15 C 101.48 185.06 101.25 189.00 98.03 190.31 C 99.74 188.01 100.42 185.20 99.90 182.38 Z" />
</g>
</svg>
