<?xml version="1.0" encoding="UTF-8" ?>
<!DOCTYPE svg PUBLIC "-//W3C//DTD SVG 1.1//EN" "http://www.w3.org/Graphics/SVG/1.1/DTD/svg11.dtd">
<svg width="215pt" height="215pt" viewBox="0 0 215 215" version="1.1" xmlns="http://www.w3.org/2000/svg">
<g id="#0d0d0dff">
<path fill="#0d0d0d" opacity="1.00" d=" M 89.94 27.17 C 92.22 25.94 94.87 26.37 97.35 26.29 C 97.55 26.97 97.96 28.35 98.17 29.04 C 97.46 30.00 97.22 31.47 96.01 31.95 C 96.52 30.54 97.01 29.13 97.50 27.71 C 95.72 27.67 93.94 27.62 92.17 27.69 C 86.36 28.50 80.79 30.38 75.27 32.27 L 75.15 31.82 C 79.95 29.86 84.90 28.36 89.94 27.17 Z" />
<path fill="#0d0d0d" opacity="1.00" d=" M 71.86 35.98 C 78.26 33.60 84.71 30.26 91.73 30.81 C 91.29 35.70 88.78 40.14 88.56 45.07 C 88.34 47.40 88.46 49.77 88.04 52.08 C 83.34 55.70 77.83 58.22 73.48 62.34 C 70.19 65.51 65.77 68.17 64.45 72.78 L 64.08 72.62 L 63.95 73.01 C 61.97 73.44 61.07 75.38 60.35 77.07 L 60.07 77.65 L 60.47 78.06 C 59.81 78.43 58.48 79.16 57.82 79.52 C 57.95 80.36 58.42 80.86 59.23 81.02 C 59.54 80.28 60.16 78.80 60.47 78.06 L 60.74 77.45 L 60.35 77.07 C 62.30 76.68 64.06 75.12 63.95 73.01 L 64.34 73.17 L 64.45 72.78 C 68.24 70.26 70.98 66.54 74.34 63.52 L 73.48 62.34 L 74.47 63.48 C 78.77 60.19 83.17 56.91 88.34 55.15 C 89.20 61.26 89.72 67.46 91.55 73.39 C 92.97 78.69 95.46 83.61 97.88 88.51 C 98.38 87.98 98.88 87.45 99.38 86.91 C 98.96 86.23 98.13 84.88 97.71 84.20 C 98.58 85.11 99.64 85.61 100.87 85.71 C 100.41 86.92 99.95 88.13 99.46 89.33 C 98.73 90.05 98.01 90.79 97.32 91.55 C 92.70 98.42 92.25 107.80 96.84 114.82 C 96.09 114.06 95.33 113.30 94.58 112.55 C 93.66 114.53 92.70 116.49 91.74 118.45 C 92.60 115.04 94.57 111.62 93.38 108.03 C 92.56 104.97 93.26 101.80 92.68 98.72 C 94.44 95.55 96.13 92.36 97.72 89.10 C 90.73 79.47 89.50 67.39 87.52 56.03 C 86.22 56.76 84.92 57.49 83.63 58.25 C 73.49 63.88 65.73 72.87 58.94 82.08 C 58.78 82.26 58.46 82.61 58.31 82.78 C 57.84 82.42 56.90 81.71 56.43 81.35 C 56.90 80.24 57.43 79.17 58.02 78.13 C 61.62 73.65 65.21 69.13 69.23 65.02 C 74.77 60.03 80.81 55.58 87.32 51.93 C 87.42 49.74 87.50 47.54 87.59 45.34 C 88.48 40.54 90.17 35.93 91.00 31.12 C 83.10 32.11 75.67 35.26 68.47 38.51 C 64.60 40.24 61.01 42.52 57.56 44.97 C 55.17 46.57 52.77 48.17 50.52 49.96 C 49.38 50.89 48.14 51.65 46.80 52.23 C 53.86 45.14 62.78 40.05 71.86 35.98 Z" />
<path fill="#0d0d0d" opacity="1.00" d=" M 90.76 58.97 C 90.66 50.20 90.93 40.89 95.27 33.03 C 92.02 42.33 90.51 52.26 91.78 62.08 C 92.40 67.68 93.91 73.12 94.95 78.64 C 92.28 72.45 91.47 65.62 90.76 58.97 Z" />
<path fill="#0d0d0d" opacity="1.00" d=" M 100.03 47.02 C 101.01 45.60 102.33 44.49 104.05 45.51 C 103.19 45.75 101.46 46.23 100.60 46.47 C 108.47 50.41 113.41 58.79 114.79 67.30 C 113.92 67.85 113.01 68.34 112.12 68.84 C 112.75 67.91 114.40 66.98 113.47 65.70 C 112.87 64.87 112.19 64.11 111.53 63.34 C 112.01 63.14 112.98 62.73 113.46 62.52 L 112.97 61.72 C 109.95 56.43 106.69 50.78 101.16 47.77 C 100.88 47.58 100.32 47.21 100.03 47.02 Z" />
<path fill="#0d0d0d" opacity="1.00" d=" M 32.84 65.82 C 36.89 61.13 40.91 56.11 46.15 52.74 C 38.56 60.43 30.87 68.31 25.74 77.92 L 27.33 77.69 L 28.39 77.55 C 27.16 78.38 25.92 79.19 24.66 79.97 C 26.11 74.61 29.26 69.97 32.84 65.82 Z" />
<path fill="#0d0d0d" opacity="1.00" d=" M 179.51 64.17 C 179.77 62.59 180.67 61.29 181.67 60.09 C 182.95 61.87 184.22 63.69 184.99 65.76 C 189.73 78.98 192.48 92.95 192.71 107.01 C 192.92 119.87 193.12 133.11 188.88 145.43 C 190.11 139.44 191.03 133.39 191.67 127.30 C 191.04 126.63 190.42 125.97 189.79 125.31 C 189.73 135.98 187.17 146.48 183.30 156.37 C 183.36 153.65 182.56 151.03 181.62 148.51 C 182.48 150.00 183.31 151.51 184.12 153.04 C 188.00 141.75 189.04 129.81 189.76 117.97 C 190.14 109.01 189.25 100.08 187.58 91.28 C 186.42 84.34 184.22 77.54 180.91 71.31 C 176.52 77.33 172.43 83.59 167.31 89.04 C 167.58 91.07 167.89 93.11 168.15 95.15 C 169.56 108.98 166.50 122.94 161.83 135.91 C 161.43 136.40 160.64 137.38 160.25 137.87 C 165.41 136.80 171.33 137.14 175.24 141.12 C 170.83 138.68 165.12 136.59 160.43 139.43 C 159.32 140.10 157.83 143.27 156.69 141.00 L 157.60 140.58 C 159.26 140.22 160.19 138.70 160.04 137.06 C 161.27 135.75 162.13 134.16 162.64 132.44 C 165.12 124.49 166.72 116.27 167.44 107.98 C 167.98 101.40 166.93 94.86 166.60 88.30 C 172.52 83.17 176.14 76.16 180.92 70.08 C 187.31 80.18 188.91 92.30 190.19 103.94 C 190.89 111.36 190.12 118.82 190.89 126.23 C 192.80 122.81 191.93 118.74 192.15 115.00 C 192.45 97.61 189.99 79.99 183.41 63.82 C 182.99 63.27 182.17 62.17 181.75 61.63 C 181.45 62.14 180.85 63.17 180.55 63.69 C 179.67 67.19 178.17 70.50 176.05 73.42 C 177.20 70.33 178.84 67.43 179.51 64.17 Z" />
<path fill="#0d0d0d" opacity="1.00" d=" M 104.47 78.78 C 106.24 73.16 112.34 70.41 117.84 70.28 C 122.09 70.24 125.95 72.32 128.92 75.23 C 130.76 79.41 131.99 84.23 130.51 88.72 C 128.99 92.36 125.91 96.21 121.53 95.78 C 121.04 95.29 120.08 94.29 119.60 93.80 L 120.14 93.41 C 120.37 93.26 120.82 92.95 121.05 92.80 C 121.28 93.54 121.72 95.01 121.95 95.74 C 124.18 94.56 125.36 92.38 125.48 89.91 C 124.05 90.23 122.94 91.28 121.79 92.13 C 121.06 89.64 120.09 86.86 117.52 85.73 C 114.78 85.04 111.92 85.30 109.12 85.24 C 108.99 85.95 108.74 87.37 108.61 88.08 C 111.74 88.29 115.12 88.63 117.13 91.37 C 115.82 90.68 114.50 89.99 113.10 89.49 C 110.59 88.98 107.99 88.91 105.51 88.25 C 104.29 87.31 103.71 85.79 103.12 84.42 C 103.52 82.52 103.97 80.64 104.47 78.78 M 115.85 74.90 C 117.14 74.37 117.97 72.35 117.12 71.16 C 115.19 70.29 113.98 74.39 115.85 74.90 M 124.88 79.98 C 127.06 78.73 129.74 76.24 127.18 73.80 C 125.60 75.49 124.87 77.69 124.88 79.98 M 105.81 88.21 C 109.19 88.45 106.92 84.07 107.25 82.04 C 105.48 83.47 103.68 86.25 105.81 88.21 Z" />
<path fill="#0d0d0d" opacity="1.00" d=" M 135.17 74.57 C 135.68 74.29 136.69 73.74 137.20 73.46 C 136.88 73.91 136.24 74.82 135.92 75.28 C 135.10 75.90 134.27 76.51 133.44 77.10 C 133.57 80.49 133.64 83.88 133.53 87.26 C 134.93 87.93 136.32 88.59 137.74 89.22 C 136.74 89.23 134.75 89.25 133.75 89.26 C 132.30 85.19 133.69 80.49 132.35 76.26 C 133.29 75.69 134.22 75.12 135.17 74.57 Z" />
<path fill="#0d0d0d" opacity="1.00" d=" M 161.55 91.97 C 162.48 91.33 163.41 90.67 164.34 90.02 C 164.53 90.82 164.90 92.41 165.09 93.20 C 166.28 104.17 165.47 115.35 162.65 126.02 C 161.67 129.67 159.99 133.20 160.04 137.06 C 159.61 137.28 158.76 137.73 158.34 137.95 C 156.87 134.76 155.00 131.76 153.67 128.51 C 155.61 130.98 157.17 133.73 158.24 136.69 C 164.13 124.37 165.11 110.25 164.48 96.79 C 164.37 95.11 164.23 93.43 164.09 91.75 C 159.11 94.65 154.18 97.77 148.58 99.33 C 141.97 101.59 134.94 101.52 128.05 101.64 C 127.45 104.82 126.45 107.91 125.08 110.84 C 125.50 108.65 125.96 106.47 126.51 104.32 C 127.82 100.08 128.82 95.65 131.13 91.81 C 130.37 94.26 129.67 96.72 129.10 99.21 C 135.46 100.03 141.58 97.96 147.73 96.76 C 141.80 99.78 135.07 100.00 128.58 100.53 C 140.11 101.72 152.20 98.93 161.55 91.97 Z" />
<path fill="#0d0d0d" opacity="1.00" d=" M 154.34 94.29 C 153.94 92.60 156.85 91.18 158.16 92.15 C 157.16 93.27 155.88 94.18 154.34 94.29 Z" />
<path fill="#0d0d0d" opacity="1.00" d=" M 148.68 122.72 C 150.47 124.27 152.00 126.09 153.33 128.05 C 151.47 126.56 149.86 124.78 148.68 122.72 Z" />
</g>
<g id="#639ebbff">
<path fill="#639ebb" opacity="1.00" d=" M 75.27 32.27 C 80.79 30.38 86.36 28.50 92.17 27.69 C 92.06 28.47 91.84 30.03 91.73 30.81 C 84.71 30.26 78.26 33.60 71.86 35.98 C 62.78 40.05 53.86 45.14 46.80 52.23 L 46.46 52.47 L 46.15 52.74 C 40.91 56.11 36.89 61.13 32.84 65.82 C 29.26 69.97 26.11 74.61 24.66 79.97 C 24.39 80.70 23.87 82.18 23.61 82.92 C 23.14 80.80 23.28 78.62 23.96 76.56 L 24.29 76.11 C 25.09 75.19 25.64 74.09 25.98 72.92 C 26.43 71.79 26.99 70.72 27.65 69.70 C 27.66 69.68 27.70 69.62 27.72 69.59 C 28.16 69.02 29.03 67.87 29.47 67.30 C 30.43 66.27 31.27 65.15 32.01 63.96 C 32.22 63.71 32.65 63.23 32.86 62.98 C 33.20 62.57 33.87 61.76 34.21 61.35 C 34.44 61.05 34.91 60.47 35.15 60.17 C 36.08 59.73 36.77 59.04 37.20 58.10 C 37.69 57.31 38.33 56.67 39.13 56.20 C 40.07 55.77 40.77 55.10 41.23 54.18 C 41.79 53.37 42.52 52.75 43.41 52.31 C 44.51 51.84 45.48 51.09 46.14 50.08 C 46.71 49.27 47.43 48.64 48.29 48.19 C 48.73 47.89 49.60 47.29 50.04 47.00 C 50.65 46.17 51.42 45.57 52.37 45.21 C 52.76 44.86 53.55 44.15 53.94 43.80 C 54.29 43.63 54.98 43.31 55.33 43.14 C 55.74 42.81 56.55 42.14 56.96 41.81 C 57.30 41.65 57.98 41.33 58.32 41.17 C 58.73 40.84 59.55 40.18 59.96 39.85 C 60.30 39.71 60.99 39.43 61.34 39.29 C 62.74 38.89 63.92 38.01 65.00 37.06 C 65.42 36.82 66.25 36.35 66.66 36.11 C 69.00 35.17 71.29 34.11 73.54 32.96 C 73.97 32.79 74.84 32.44 75.27 32.27 Z" />
<path fill="#639ebb" opacity="1.00" d=" M 116.65 64.12 C 116.90 64.98 117.15 65.83 117.40 66.69 C 119.70 66.72 121.96 67.12 124.16 67.80 L 123.42 67.80 C 121.22 67.76 119.02 67.79 116.82 67.81 C 117.08 68.42 117.59 69.66 117.84 70.28 C 112.34 70.41 106.24 73.16 104.47 78.78 C 104.25 77.29 104.01 75.74 104.76 74.35 C 106.84 72.07 109.38 70.26 112.12 68.84 C 113.01 68.34 113.92 67.85 114.79 67.30 C 115.46 66.27 116.08 65.21 116.65 64.12 Z" />
<path fill="#639ebb" opacity="1.00" d=" M 176.05 73.42 C 178.17 70.50 179.67 67.19 180.55 63.69 C 180.92 64.20 181.66 65.22 182.04 65.72 C 182.38 65.25 183.06 64.30 183.41 63.82 C 189.99 79.99 192.45 97.61 192.15 115.00 C 191.93 118.74 192.80 122.81 190.89 126.23 C 190.12 118.82 190.89 111.36 190.19 103.94 C 188.91 92.30 187.31 80.18 180.92 70.08 C 176.14 76.16 172.52 83.17 166.60 88.30 C 165.95 89.89 165.46 91.53 165.09 93.20 C 164.90 92.41 164.53 90.82 164.34 90.02 C 163.41 90.67 162.48 91.33 161.55 91.97 C 161.01 91.82 159.92 91.54 159.38 91.39 C 161.97 89.32 164.50 87.17 167.17 85.20 C 168.08 84.73 168.74 84.02 169.14 83.07 C 169.60 82.36 170.13 81.71 170.73 81.10 C 171.08 80.65 171.80 79.74 172.15 79.29 C 172.95 78.07 173.78 76.88 174.58 75.66 C 174.60 75.62 174.64 75.56 174.67 75.52 C 175.01 75.00 175.70 73.95 176.05 73.42 Z" />
<path fill="#639ebb" opacity="1.00" d=" M 189.79 125.31 C 190.42 125.97 191.04 126.63 191.67 127.30 C 191.03 133.39 190.11 139.44 188.88 145.43 L 188.85 145.53 C 187.76 148.45 186.74 151.39 185.87 154.39 L 185.70 154.82 C 185.48 155.30 185.03 156.26 184.81 156.74 C 184.58 157.39 184.11 158.69 183.88 159.34 C 183.64 158.84 183.15 157.86 182.90 157.37 L 183.30 156.37 C 187.17 146.48 189.73 135.98 189.79 125.31 Z" />
</g>
<g id="#80aac3ff">
<path fill="#80aac3" opacity="1.00" d=" M 92.17 27.69 C 93.94 27.62 95.72 27.67 97.50 27.71 C 97.01 29.13 96.52 30.54 96.01 31.95 L 95.26 32.17 C 94.08 31.73 92.90 31.28 91.73 30.81 C 91.84 30.03 92.06 28.47 92.17 27.69 Z" />
<path fill="#80aac3" opacity="1.00" d=" M 100.60 46.47 C 101.46 46.23 103.19 45.75 104.05 45.51 C 104.47 45.94 105.32 46.80 105.74 47.23 C 106.29 48.08 107.04 48.71 107.98 49.10 C 108.77 49.66 109.40 50.37 109.87 51.23 C 110.67 52.65 111.70 53.91 112.80 55.10 C 114.69 57.78 115.72 61.00 116.65 64.12 C 116.08 65.21 115.46 66.27 114.79 67.30 C 113.41 58.79 108.47 50.41 100.60 46.47 Z" />
<path fill="#80aac3" opacity="1.00" d=" M 135.35 71.27 C 141.72 68.76 148.64 68.55 155.38 69.11 L 155.57 69.14 C 156.91 69.96 158.23 70.81 159.54 71.69 C 152.85 69.53 145.53 69.48 139.11 72.58 C 138.45 72.83 137.81 73.13 137.20 73.46 C 136.69 73.74 135.68 74.29 135.17 74.57 C 134.53 74.11 133.24 73.18 132.60 72.72 C 133.48 72.17 134.40 71.68 135.35 71.27 Z" />
<path fill="#80aac3" opacity="1.00" d=" M 158.34 137.95 C 158.76 137.73 159.61 137.28 160.04 137.06 C 160.19 138.70 159.26 140.22 157.60 140.58 C 157.79 139.92 158.16 138.61 158.34 137.95 Z" />
</g>
<g id="#4b8dafff">
<path fill="#4b8daf" opacity="1.00" d=" M 91.73 30.81 C 92.90 31.28 94.08 31.73 95.26 32.17 L 95.46 32.62 L 95.27 33.03 C 90.93 40.89 90.66 50.20 90.76 58.97 C 91.47 65.62 92.28 72.45 94.95 78.64 L 95.35 79.51 C 95.36 79.55 95.40 79.63 95.42 79.67 L 96.30 81.51 L 96.35 81.62 L 96.40 81.72 C 96.73 82.34 97.38 83.58 97.71 84.20 C 98.13 84.88 98.96 86.23 99.38 86.91 C 98.88 87.45 98.38 87.98 97.88 88.51 C 95.46 83.61 92.97 78.69 91.55 73.39 C 89.72 67.46 89.20 61.26 88.34 55.15 C 83.17 56.91 78.77 60.19 74.47 63.48 L 73.48 62.34 C 77.83 58.22 83.34 55.70 88.04 52.08 C 88.46 49.77 88.34 47.40 88.56 45.07 C 88.78 40.14 91.29 35.70 91.73 30.81 Z" />
<path fill="#4b8daf" opacity="1.00" d=" M 64.45 72.78 C 65.77 68.17 70.19 65.51 73.48 62.34 L 74.34 63.52 C 70.98 66.54 68.24 70.26 64.45 72.78 Z" />
<path fill="#4b8daf" opacity="1.00" d=" M 60.35 77.07 C 61.07 75.38 61.97 73.44 63.95 73.01 C 64.06 75.12 62.30 76.68 60.35 77.07 Z" />
<path fill="#4b8daf" opacity="1.00" d=" M 131.11 73.34 C 131.38 73.11 131.91 72.65 132.18 72.42 L 132.60 72.72 C 133.24 73.18 134.53 74.11 135.17 74.57 C 134.22 75.12 133.29 75.69 132.35 76.26 C 133.69 80.49 132.30 85.19 133.75 89.26 C 134.75 89.25 136.74 89.23 137.74 89.22 C 140.20 89.16 142.65 88.98 145.10 88.82 C 142.79 89.44 140.42 89.80 138.07 90.26 C 136.20 90.31 134.33 90.35 132.47 90.36 C 132.13 90.72 131.47 91.45 131.13 91.81 C 128.82 95.65 127.82 100.08 126.51 104.32 C 122.55 104.64 119.05 107.05 115.02 106.95 C 111.16 107.07 106.70 107.18 103.96 103.96 C 100.28 100.92 99.99 95.92 99.69 91.53 C 99.10 91.53 97.91 91.54 97.32 91.55 C 98.01 90.79 98.73 90.05 99.46 89.33 C 99.95 88.13 100.41 86.92 100.87 85.71 C 101.22 84.81 101.92 83.02 102.27 82.13 C 102.48 82.70 102.91 83.84 103.12 84.42 C 103.71 85.79 104.29 87.31 105.51 88.25 C 107.99 88.91 110.59 88.98 113.10 89.49 C 110.53 89.78 107.15 89.07 105.27 91.24 C 103.82 98.38 115.28 103.43 119.64 97.71 C 120.11 97.23 121.05 96.26 121.53 95.78 C 125.91 96.21 128.99 92.36 130.51 88.72 C 131.99 84.23 130.76 79.41 128.92 75.23 C 129.47 74.75 130.57 73.81 131.11 73.34 Z" />
<path fill="#4b8daf" opacity="1.00" d=" M 57.82 79.52 C 58.48 79.16 59.81 78.43 60.47 78.06 C 60.16 78.80 59.54 80.28 59.23 81.02 C 58.42 80.86 57.95 80.36 57.82 79.52 Z" />
<path fill="#4b8daf" opacity="1.00" d=" M 165.09 93.20 C 165.46 91.53 165.95 89.89 166.60 88.30 C 166.93 94.86 167.98 101.40 167.44 107.98 C 166.72 116.27 165.12 124.49 162.64 132.44 C 162.13 134.16 161.27 135.75 160.04 137.06 C 159.99 133.20 161.67 129.67 162.65 126.02 C 165.47 115.35 166.28 104.17 165.09 93.20 Z" />
<path fill="#4b8daf" opacity="1.00" d=" M 158.16 92.15 C 158.47 91.96 159.08 91.58 159.38 91.39 C 159.92 91.54 161.01 91.82 161.55 91.97 C 152.20 98.93 140.11 101.72 128.58 100.53 C 135.07 100.00 141.80 99.78 147.73 96.76 C 148.13 96.66 148.93 96.46 149.33 96.35 C 150.37 96.33 151.24 95.94 151.96 95.17 C 152.55 94.95 153.74 94.51 154.34 94.29 C 155.88 94.18 157.16 93.27 158.16 92.15 Z" />
</g>
<g id="#775473ff">
<path fill="#775473" opacity="1.00" d=" M 68.47 38.51 C 75.67 35.26 83.10 32.11 91.00 31.12 C 90.17 35.93 88.48 40.54 87.59 45.34 C 86.54 43.00 86.32 38.98 83.00 38.93 C 78.17 38.44 73.31 38.72 68.47 38.51 Z" />
</g>
<g id="#162831b2">
<path fill="#162831" opacity="0.70" d=" M 66.66 36.11 C 68.55 34.34 70.89 33.03 73.54 32.96 C 71.29 34.11 69.00 35.17 66.66 36.11 Z" />
</g>
<g id="#1420269e">
<path fill="#142026" opacity="0.62" d=" M 61.34 39.29 C 60.54 37.51 63.67 35.87 65.00 37.06 C 63.92 38.01 62.74 38.89 61.34 39.29 Z" />
</g>
<g id="#936593ff">
<path fill="#936593" opacity="1.00" d=" M 57.56 44.97 C 61.01 42.52 64.60 40.24 68.47 38.51 C 73.31 38.72 78.17 38.44 83.00 38.93 C 86.32 38.98 86.54 43.00 87.59 45.34 C 87.50 47.54 87.42 49.74 87.32 51.93 C 80.81 55.58 74.77 60.03 69.23 65.02 C 67.11 63.17 65.90 60.66 65.01 58.05 C 63.88 54.79 61.89 51.94 59.75 49.26 C 58.33 49.15 56.91 49.04 55.48 48.93 C 56.41 47.75 57.49 46.58 57.56 44.97 Z" />
</g>
<g id="#20333ecf">
<path fill="#20333e" opacity="0.81" d=" M 58.24 40.26 L 59.08 39.58 L 59.96 39.85 C 59.55 40.18 58.73 40.84 58.32 41.17 L 58.24 40.26 Z" />
</g>
<g id="#20313ac7">
<path fill="#20313a" opacity="0.78" d=" M 55.25 42.24 L 56.08 41.55 L 56.96 41.81 C 56.55 42.14 55.74 42.81 55.33 43.14 L 55.25 42.24 Z" />
</g>
<g id="#22353fc1">
<path fill="#22353f" opacity="0.76" d=" M 52.25 44.30 L 53.05 43.58 L 53.94 43.80 C 53.55 44.15 52.76 44.86 52.37 45.21 L 52.25 44.30 Z" />
</g>
<g id="#9e6c9dff">
<path fill="#9e6c9d" opacity="1.00" d=" M 50.52 49.96 C 52.77 48.17 55.17 46.57 57.56 44.97 C 57.49 46.58 56.41 47.75 55.48 48.93 C 56.91 49.04 58.33 49.15 59.75 49.26 C 61.89 51.94 63.88 54.79 65.01 58.05 C 65.90 60.66 67.11 63.17 69.23 65.02 C 65.21 69.13 61.62 73.65 58.02 78.13 C 58.08 73.51 57.87 68.89 57.87 64.27 C 57.55 64.28 56.91 64.29 56.59 64.30 C 55.20 63.37 53.85 62.38 52.51 61.40 C 53.35 60.96 54.20 60.53 55.04 60.10 C 54.31 58.63 53.58 57.16 52.85 55.69 C 50.58 56.15 48.26 56.25 45.96 55.99 C 47.69 54.17 50.32 52.75 50.52 49.96 Z" />
</g>
<g id="#18252d9f">
<path fill="#18252d" opacity="0.62" d=" M 48.29 47.27 L 49.19 46.65 L 50.04 47.00 C 49.60 47.29 48.73 47.89 48.29 48.19 L 48.29 47.27 Z" />
</g>
<g id="#10161989">
<path fill="#101619" opacity="0.54" d=" M 105.74 47.23 C 107.52 46.67 108.26 47.30 107.98 49.10 C 107.04 48.71 106.29 48.08 105.74 47.23 Z" />
</g>
<g id="#2e4f61f5">
<path fill="#2e4f61" opacity="0.96" d=" M 98.72 49.85 C 99.04 49.14 99.70 47.73 100.03 47.02 C 100.32 47.21 100.88 47.58 101.16 47.77 C 99.85 51.47 98.83 55.32 99.14 59.28 C 99.11 63.48 100.24 67.60 102.04 71.36 C 102.69 72.56 103.82 73.39 104.76 74.35 C 104.01 75.74 104.25 77.29 104.47 78.78 C 103.97 80.64 103.52 82.52 103.12 84.42 C 102.91 83.84 102.48 82.70 102.27 82.13 C 102.41 80.03 102.80 77.94 102.74 75.83 L 102.75 75.52 L 102.51 75.27 C 100.09 72.88 98.80 69.58 97.98 66.33 C 97.60 60.84 97.34 55.23 98.72 49.85 Z" />
</g>
<g id="#775474ff">
<path fill="#775474" opacity="1.00" d=" M 101.16 47.77 C 106.69 50.78 109.95 56.43 112.97 61.72 C 109.27 61.55 105.48 62.13 102.81 64.91 C 102.90 61.08 101.84 57.37 100.59 53.79 C 100.08 55.61 99.55 57.43 99.14 59.28 C 98.83 55.32 99.85 51.47 101.16 47.77 Z" />
</g>
<g id="#111a1f98">
<path fill="#111a1f" opacity="0.60" d=" M 43.41 52.31 C 42.44 50.85 44.89 48.90 46.14 50.08 C 45.48 51.09 44.51 51.84 43.41 52.31 Z" />
</g>
<g id="#0a141889">
<path fill="#0a1418" opacity="0.54" d=" M 97.98 66.33 C 96.30 61.04 96.42 54.94 98.72 49.85 C 97.34 55.23 97.60 60.84 97.98 66.33 Z" />
</g>
<g id="#a870a9ff">
<path fill="#a870a9" opacity="1.00" d=" M 46.80 52.23 C 48.14 51.65 49.38 50.89 50.52 49.96 C 50.32 52.75 47.69 54.17 45.96 55.99 C 48.26 56.25 50.58 56.15 52.85 55.69 C 53.58 57.16 54.31 58.63 55.04 60.10 C 54.20 60.53 53.35 60.96 52.51 61.40 C 53.85 62.38 55.20 63.37 56.59 64.30 C 56.18 64.31 55.38 64.33 54.97 64.34 C 54.25 64.08 53.52 63.81 52.81 63.53 C 44.26 63.62 37.80 69.81 31.62 74.91 C 34.80 74.94 38.03 74.83 41.13 75.64 C 36.40 74.97 31.79 76.24 27.33 77.69 L 25.74 77.92 C 30.87 68.31 38.56 60.43 46.15 52.74 L 46.49 52.50 L 46.80 52.23 Z" />
</g>
<g id="#1a2228a4">
<path fill="#1a2228" opacity="0.64" d=" M 109.87 51.23 C 111.75 50.28 114.09 53.47 112.80 55.10 C 111.70 53.91 110.67 52.65 109.87 51.23 Z" />
</g>
<g id="#2e293aff">
<path fill="#2e293a" opacity="1.00" d=" M 46.46 52.47 L 46.80 52.23 L 46.49 52.50 L 46.15 52.74 L 46.46 52.47 Z" />
</g>
<g id="#03050573">
<path fill="#030505" opacity="0.45" d=" M 39.13 56.20 C 38.76 54.42 39.46 53.75 41.23 54.18 C 40.77 55.10 40.07 55.77 39.13 56.20 Z" />
</g>
<g id="#9a689bff">
<path fill="#9a689b" opacity="1.00" d=" M 100.59 53.79 C 101.84 57.37 102.90 61.08 102.81 64.91 C 102.60 67.07 102.25 69.21 102.04 71.36 C 100.24 67.60 99.11 63.48 99.14 59.28 C 99.55 57.43 100.08 55.61 100.59 53.79 Z" />
</g>
<g id="#7c5875ff">
<path fill="#7c5875" opacity="1.00" d=" M 83.63 58.25 C 84.92 57.49 86.22 56.76 87.52 56.03 C 89.50 67.39 90.73 79.47 97.72 89.10 C 96.13 92.36 94.44 95.55 92.68 98.72 C 90.89 96.85 89.12 94.94 87.16 93.24 C 86.50 92.66 85.83 92.10 85.15 91.56 C 86.90 80.56 87.74 68.84 83.63 58.25 Z" />
</g>
<g id="#06090b87">
<path fill="#06090b" opacity="0.53" d=" M 35.15 60.17 C 34.74 58.41 35.42 57.72 37.20 58.10 C 36.77 59.04 36.08 59.73 35.15 60.17 Z" />
</g>
<g id="#926592ff">
<path fill="#926592" opacity="1.00" d=" M 58.94 82.08 C 65.73 72.87 73.49 63.88 83.63 58.25 C 87.74 68.84 86.90 80.56 85.15 91.56 C 77.69 86.77 68.54 85.25 59.80 85.67 C 63.23 85.06 66.72 84.89 70.18 84.55 C 66.43 83.78 62.24 84.33 58.94 82.08 Z" />
</g>
<g id="#1d2d36b9">
<path fill="#1d2d36" opacity="0.73" d=" M 33.29 61.27 L 34.21 61.35 C 33.87 61.76 33.20 62.57 32.86 62.98 L 32.59 62.11 L 33.29 61.27 Z" />
</g>
<g id="#5e455bff">
<path fill="#5e455b" opacity="1.00" d=" M 102.81 64.91 C 105.48 62.13 109.27 61.55 112.97 61.72 L 113.46 62.52 C 112.98 62.73 112.01 63.14 111.53 63.34 C 112.19 64.11 112.87 64.87 113.47 65.70 C 114.40 66.98 112.75 67.91 112.12 68.84 C 109.38 70.26 106.84 72.07 104.76 74.35 C 103.82 73.39 102.69 72.56 102.04 71.36 C 102.25 69.21 102.60 67.07 102.81 64.91 Z" />
</g>
<g id="#91c0dcff">
<path fill="#91c0dc" opacity="1.00" d=" M 180.55 63.69 C 180.85 63.17 181.45 62.14 181.75 61.63 C 182.17 62.17 182.99 63.27 183.41 63.82 C 183.06 64.30 182.38 65.25 182.04 65.72 C 181.66 65.22 180.92 64.20 180.55 63.69 Z" />
</g>
<g id="#b68fb9ff">
<path fill="#b68fb9" opacity="1.00" d=" M 31.62 74.91 C 37.80 69.81 44.26 63.62 52.81 63.53 C 53.52 63.81 54.25 64.08 54.97 64.34 C 55.38 64.33 56.18 64.31 56.59 64.30 C 56.91 64.29 57.55 64.28 57.87 64.27 C 57.87 68.89 58.08 73.51 58.02 78.13 C 57.43 79.17 56.90 80.24 56.43 81.35 C 55.30 82.86 54.20 84.39 53.11 85.92 C 52.97 85.73 52.71 85.35 52.57 85.16 C 52.23 84.53 51.54 83.26 51.20 82.62 C 50.83 81.44 50.03 80.46 48.95 79.86 C 48.72 79.68 48.26 79.31 48.03 79.13 C 47.61 78.81 46.77 78.16 46.35 77.83 C 44.55 77.25 42.89 76.33 41.13 75.64 C 38.03 74.83 34.80 74.94 31.62 74.91 Z" />
</g>
<g id="#080d0f73">
<path fill="#080d0f" opacity="0.45" d=" M 29.47 67.30 C 28.15 65.86 30.26 62.83 32.01 63.96 C 31.27 65.15 30.43 66.27 29.47 67.30 Z" />
</g>
<g id="#87b1cbff">
<path fill="#87b1cb" opacity="1.00" d=" M 116.82 67.81 C 119.02 67.79 121.22 67.76 123.42 67.80 C 124.06 68.07 125.36 68.61 126.01 68.88 C 126.44 69.18 127.30 69.79 127.73 70.09 C 129.35 70.52 130.08 72.19 131.11 73.34 C 130.57 73.81 129.47 74.75 128.92 75.23 C 125.95 72.32 122.09 70.24 117.84 70.28 C 117.59 69.66 117.08 68.42 116.82 67.81 Z" />
</g>
<g id="#1b2429a9">
<path fill="#1b2429" opacity="0.66" d=" M 135.17 70.47 C 141.58 68.27 148.80 66.63 155.38 69.11 C 148.64 68.55 141.72 68.76 135.35 71.27 L 135.17 70.47 Z" />
</g>
<g id="#01010262">
<path fill="#010102" opacity="0.38" d=" M 27.65 69.70 C 27.66 69.68 27.70 69.62 27.72 69.59 C 27.70 69.62 27.66 69.68 27.65 69.70 Z" />
</g>
<g id="#374853d6">
<path fill="#374853" opacity="0.84" d=" M 126.01 68.88 L 126.87 68.55 L 127.75 69.18 L 127.73 70.09 C 127.30 69.79 126.44 69.18 126.01 68.88 Z" />
</g>
<g id="#3d475af1">
<path fill="#3d475a" opacity="0.95" d=" M 155.57 69.14 C 157.23 69.57 158.82 70.22 160.33 71.04 C 159.44 73.93 158.81 76.99 156.99 79.48 C 156.39 79.52 155.19 79.58 154.60 79.61 C 155.46 77.09 156.33 74.57 157.17 72.03 C 151.87 70.91 146.53 71.84 141.33 72.97 L 139.11 72.58 C 145.53 69.48 152.85 69.53 159.54 71.69 C 158.23 70.81 156.91 69.96 155.57 69.14 Z" />
</g>
<g id="#c5c5c8ff">
<path fill="#c5c5c8" opacity="1.00" d=" M 115.85 74.90 C 113.98 74.39 115.19 70.29 117.12 71.16 C 117.97 72.35 117.14 74.37 115.85 74.90 Z" />
</g>
<g id="#795674ff">
<path fill="#795674" opacity="1.00" d=" M 141.33 72.97 C 146.53 71.84 151.87 70.91 157.17 72.03 C 156.33 74.57 155.46 77.09 154.60 79.61 C 155.19 79.58 156.39 79.52 156.99 79.48 C 154.32 83.00 151.31 87.93 146.35 87.81 C 145.18 87.69 144.01 87.58 142.83 87.51 C 147.66 86.19 151.86 83.04 154.32 78.66 C 150.30 78.28 146.17 78.57 142.54 80.50 C 141.91 77.85 139.68 76.28 137.63 74.75 C 138.86 74.15 140.09 73.54 141.33 72.97 Z" />
</g>
<g id="#4da5c8ff">
<path fill="#4da5c8" opacity="1.00" d=" M 64.08 72.62 L 64.45 72.78 L 64.34 73.17 L 63.95 73.01 L 64.08 72.62 Z" />
</g>
<g id="#8b6289ff">
<path fill="#8b6289" opacity="1.00" d=" M 167.31 89.04 C 172.43 83.59 176.52 77.33 180.91 71.31 C 184.22 77.54 186.42 84.34 187.58 91.28 C 187.01 91.33 185.88 91.45 185.32 91.50 C 182.77 89.30 179.88 85.85 176.10 87.16 C 172.74 88.92 169.67 91.60 168.15 95.15 C 167.89 93.11 167.58 91.07 167.31 89.04 Z" />
</g>
<g id="#0b111578">
<path fill="#0b1115" opacity="0.47" d=" M 24.29 76.11 C 22.95 75.05 24.30 72.17 25.98 72.92 C 25.64 74.09 25.09 75.19 24.29 76.11 Z" />
</g>
<g id="#60465cff">
<path fill="#60465c" opacity="1.00" d=" M 137.20 73.46 C 137.81 73.13 138.45 72.83 139.11 72.58 L 141.33 72.97 C 140.09 73.54 138.86 74.15 137.63 74.75 C 139.68 76.28 141.91 77.85 142.54 80.50 C 142.38 83.76 140.15 86.13 137.98 88.30 C 139.60 88.03 141.21 87.77 142.83 87.51 C 144.01 87.58 145.18 87.69 146.35 87.81 L 147.29 88.60 C 146.75 88.65 145.65 88.76 145.10 88.82 C 142.65 88.98 140.20 89.16 137.74 89.22 C 136.32 88.59 134.93 87.93 133.53 87.26 C 133.64 83.88 133.57 80.49 133.44 77.10 C 134.27 76.51 135.10 75.90 135.92 75.28 C 136.24 74.82 136.88 73.91 137.20 73.46 M 135.40 87.52 C 138.43 86.48 141.22 84.18 140.94 80.67 C 138.34 82.12 135.34 84.18 135.40 87.52 Z" />
</g>
<g id="#020303a1">
<path fill="#020303" opacity="0.63" d=" M 102.51 75.27 L 102.75 75.52 L 102.74 75.83 C 102.68 75.69 102.57 75.41 102.51 75.27 Z" />
</g>
<g id="#bbbcc2ff">
<path fill="#bbbcc2" opacity="1.00" d=" M 124.88 79.98 C 124.87 77.69 125.60 75.49 127.18 73.80 C 129.74 76.24 127.06 78.73 124.88 79.98 Z" />
</g>
<g id="#06090b96">
<path fill="#06090b" opacity="0.59" d=" M 174.58 75.66 C 174.60 75.62 174.64 75.56 174.67 75.52 C 174.64 75.56 174.60 75.62 174.58 75.66 Z" />
</g>
<g id="#0f151999">
<path fill="#0f1519" opacity="0.60" d=" M 21.94 84.30 C 21.84 81.57 22.22 78.76 23.96 76.56 C 23.28 78.62 23.14 80.80 23.61 82.92 C 23.53 83.65 22.97 84.11 21.94 84.30 Z" />
</g>
<g id="#4397b8ff">
<path fill="#4397b8" opacity="1.00" d=" M 60.07 77.65 L 60.35 77.07 L 60.74 77.45 L 60.47 78.06 L 60.07 77.65 Z" />
</g>
<g id="#3d303ec8">
<path fill="#3d303e" opacity="0.78" d=" M 46.35 77.83 C 46.77 78.16 47.61 78.81 48.03 79.13 L 47.15 79.42 L 46.29 78.75 L 46.35 77.83 Z" />
</g>
<g id="#060a0cb0">
<path fill="#060a0c" opacity="0.69" d=" M 95.35 79.51 C 95.36 79.55 95.40 79.63 95.42 79.67 C 95.40 79.63 95.36 79.55 95.35 79.51 Z" />
</g>
<g id="#aa72aaff">
<path fill="#aa72aa" opacity="1.00" d=" M 142.54 80.50 C 146.17 78.57 150.30 78.28 154.32 78.66 C 151.86 83.04 147.66 86.19 142.83 87.51 C 141.21 87.77 139.60 88.03 137.98 88.30 C 140.15 86.13 142.38 83.76 142.54 80.50 Z" />
<path fill="#aa72aa" opacity="1.00" d=" M 58.31 82.78 C 58.46 82.61 58.78 82.26 58.94 82.08 C 62.24 84.33 66.43 83.78 70.18 84.55 C 66.72 84.89 63.23 85.06 59.80 85.67 C 59.02 85.84 57.46 86.18 56.68 86.35 C 57.23 85.17 57.77 83.98 58.31 82.78 Z" />
</g>
<g id="#0102024a">
<path fill="#010202" opacity="0.29" d=" M 170.73 81.10 C 168.68 80.73 171.01 77.73 172.15 79.29 C 171.80 79.74 171.08 80.65 170.73 81.10 Z" />
</g>
<g id="#332733af">
<path fill="#332733" opacity="0.69" d=" M 48.95 79.86 C 50.03 80.46 50.83 81.44 51.20 82.62 C 49.77 83.52 47.95 81.12 48.95 79.86 Z" />
</g>
<g id="#040608a9">
<path fill="#040608" opacity="0.66" d=" M 96.30 81.51 C 96.32 81.56 96.37 81.67 96.40 81.72 L 96.35 81.62 L 96.30 81.51 Z" />
</g>
<g id="#7c577cff">
<path fill="#7c577c" opacity="1.00" d=" M 135.40 87.52 C 135.34 84.18 138.34 82.12 140.94 80.67 C 141.22 84.18 138.43 86.48 135.40 87.52 Z" />
</g>
<g id="#566077ff">
<path fill="#566077" opacity="1.00" d=" M 53.11 85.92 C 54.20 84.39 55.30 82.86 56.43 81.35 C 56.90 81.71 57.84 82.42 58.31 82.78 C 57.77 83.98 57.23 85.17 56.68 86.35 C 56.19 86.91 55.72 87.49 55.28 88.09 L 54.69 89.40 C 54.29 88.18 53.73 87.03 53.11 85.92 Z" />
</g>
<g id="#bc92bbff">
<path fill="#bc92bb" opacity="1.00" d=" M 105.81 88.21 C 103.68 86.25 105.48 83.47 107.25 82.04 C 106.92 84.07 109.19 88.45 105.81 88.21 Z" />
<path fill="#bc92bb" opacity="1.00" d=" M 180.27 111.92 C 181.21 113.02 182.15 114.12 183.11 115.21 C 185.73 114.98 187.98 116.12 189.76 117.97 C 189.04 129.81 188.00 141.75 184.12 153.04 C 183.31 151.51 182.48 150.00 181.62 148.51 C 180.87 147.27 180.00 146.09 179.25 144.85 C 178.81 143.93 178.15 143.24 177.26 142.76 C 176.57 142.23 175.89 141.68 175.24 141.12 C 171.33 137.14 165.41 136.80 160.25 137.87 C 160.64 137.38 161.43 136.40 161.83 135.91 C 162.80 135.83 164.76 135.68 165.74 135.60 C 169.00 130.64 169.88 124.16 174.77 120.25 C 175.57 120.79 176.39 121.33 177.20 121.88 C 178.55 118.67 179.57 115.33 180.27 111.92 Z" />
</g>
<g id="#080f127f">
<path fill="#080f12" opacity="0.50" d=" M 167.17 85.20 C 166.71 83.43 167.37 82.72 169.14 83.07 C 168.74 84.02 168.08 84.73 167.17 85.20 Z" />
<path fill="#080f12" opacity="0.50" d=" M 82.92 137.06 C 83.28 135.88 84.01 134.88 84.83 133.99 C 86.08 135.13 84.54 137.92 82.92 137.06 Z" />
</g>
<g id="#15181c97">
<path fill="#15181c" opacity="0.59" d=" M 52.57 85.16 C 52.71 85.35 52.97 85.73 53.11 85.92 C 53.73 87.03 54.29 88.18 54.69 89.40 L 54.53 89.99 C 52.34 90.89 51.65 86.52 52.57 85.16 Z" />
</g>
<g id="#484848ff">
<path fill="#484848" opacity="1.00" d=" M 109.12 85.24 C 111.92 85.30 114.78 85.04 117.52 85.73 C 120.09 86.86 121.06 89.64 121.79 92.13 L 121.05 92.80 C 120.82 92.95 120.37 93.26 120.14 93.41 L 119.60 93.80 C 118.79 92.98 117.98 92.16 117.13 91.37 C 115.12 88.63 111.74 88.29 108.61 88.08 C 108.74 87.37 108.99 85.95 109.12 85.24 Z" />
<path fill="#484848" opacity="1.00" d=" M 105.80 186.22 C 106.37 182.88 106.69 179.51 106.91 176.13 C 106.92 179.32 107.38 182.49 107.76 185.65 C 107.64 186.89 107.20 188.08 106.87 189.27 C 106.60 188.51 106.06 186.98 105.80 186.22 Z" />
</g>
<g id="#2016209c">
<path fill="#201620" opacity="0.61" d=" M 55.28 88.09 C 55.72 87.49 56.19 86.91 56.68 86.35 C 57.46 86.18 59.02 85.84 59.80 85.67 C 68.54 85.25 77.69 86.77 85.15 91.56 C 85.83 92.10 86.50 92.66 87.16 93.24 C 83.29 91.73 79.89 89.12 75.79 88.21 C 69.10 86.73 61.79 84.99 55.28 88.09 Z" />
</g>
<g id="#a46fa6ff">
<path fill="#a46fa6" opacity="1.00" d=" M 168.15 95.15 C 169.67 91.60 172.74 88.92 176.10 87.16 C 179.88 85.85 182.77 89.30 185.32 91.50 C 185.88 91.45 187.01 91.33 187.58 91.28 C 189.25 100.08 190.14 109.01 189.76 117.97 C 187.98 116.12 185.73 114.98 183.11 115.21 C 182.15 114.12 181.21 113.02 180.27 111.92 C 179.57 115.33 178.55 118.67 177.20 121.88 C 176.39 121.33 175.57 120.79 174.77 120.25 C 169.88 124.16 169.00 130.64 165.74 135.60 C 164.76 135.68 162.80 135.83 161.83 135.91 C 166.50 122.94 169.56 108.98 168.15 95.15 Z" />
<path fill="#a46fa6" opacity="1.00" d=" M 145.16 105.22 C 151.09 101.39 157.58 98.36 164.48 96.79 C 165.11 110.25 164.13 124.37 158.24 136.69 C 157.17 133.73 155.61 130.98 153.67 128.51 C 153.58 128.39 153.42 128.16 153.33 128.05 C 152.00 126.09 150.47 124.27 148.68 122.72 C 148.49 122.53 148.10 122.15 147.91 121.96 C 146.85 120.78 145.65 119.75 144.31 118.92 C 143.47 118.39 142.70 117.78 142.01 117.08 C 141.58 116.76 140.74 116.12 140.32 115.80 C 139.96 115.58 139.24 115.12 138.88 114.90 C 137.88 114.14 136.86 113.40 135.73 112.85 C 138.98 110.44 141.82 107.51 145.16 105.22 Z" />
</g>
<g id="#6099b7ff">
<path fill="#6099b7" opacity="1.00" d=" M 105.27 91.24 C 107.15 89.07 110.53 89.78 113.10 89.49 C 114.50 89.99 115.82 90.68 117.13 91.37 C 117.98 92.16 118.79 92.98 119.60 93.80 C 120.08 94.29 121.04 95.29 121.53 95.78 C 121.05 96.26 120.11 97.23 119.64 97.71 C 115.28 103.43 103.82 98.38 105.27 91.24 Z" />
</g>
<g id="#b7b8bdff">
<path fill="#b7b8bd" opacity="1.00" d=" M 121.79 92.13 C 122.94 91.28 124.05 90.23 125.48 89.91 C 125.36 92.38 124.18 94.56 121.95 95.74 C 121.72 95.01 121.28 93.54 121.05 92.80 L 121.79 92.13 Z" />
</g>
<g id="#477c97ff">
<path fill="#477c97" opacity="1.00" d=" M 97.32 91.55 C 97.91 91.54 99.10 91.53 99.69 91.53 C 99.99 95.92 100.28 100.92 103.96 103.96 C 106.70 107.18 111.16 107.07 115.02 106.95 C 119.05 107.05 122.55 104.64 126.51 104.32 C 125.96 106.47 125.50 108.65 125.08 110.84 C 125.06 110.96 125.00 111.21 124.97 111.34 L 124.70 112.48 C 123.38 113.54 122.31 114.94 120.82 115.75 C 119.82 116.06 119.12 116.71 118.72 117.68 C 118.14 118.49 117.49 119.24 116.78 119.94 C 113.74 128.40 113.16 137.43 111.74 146.23 C 111.45 145.52 110.87 144.10 110.59 143.39 C 110.49 138.59 111.06 133.80 111.25 129.01 C 110.70 126.25 110.53 123.40 109.39 120.80 C 106.44 120.46 103.07 120.00 101.07 117.53 C 99.74 115.03 97.47 116.63 97.02 118.78 C 96.71 119.04 96.09 119.58 95.79 119.84 C 94.61 120.02 93.97 120.66 93.86 121.77 L 93.76 122.58 L 92.69 122.86 C 90.85 123.03 90.13 124.85 89.66 126.38 C 88.97 128.26 87.68 129.84 86.61 131.52 C 86.59 131.55 86.55 131.61 86.53 131.63 C 86.10 132.22 85.26 133.40 84.83 133.99 C 84.01 134.88 83.28 135.88 82.92 137.06 C 81.81 139.75 80.39 142.34 78.58 144.63 C 77.80 145.30 77.30 146.14 77.08 147.14 C 76.01 149.61 74.66 151.99 72.88 154.02 C 71.99 154.85 71.29 155.87 70.91 157.04 C 68.06 161.70 66.01 167.18 61.78 170.78 C 64.32 164.04 68.78 158.25 72.35 152.04 C 74.66 148.30 76.66 144.37 79.24 140.81 C 80.39 139.35 81.28 137.70 81.91 135.96 C 82.24 134.97 82.73 134.08 83.37 133.29 C 84.19 132.66 84.73 131.85 84.98 130.85 C 86.07 128.10 87.61 125.57 89.09 123.02 C 90.53 122.37 91.04 120.82 91.40 119.42 C 91.48 119.18 91.65 118.69 91.74 118.45 C 92.70 116.49 93.66 114.53 94.58 112.55 C 95.33 113.30 96.09 114.06 96.84 114.82 C 92.25 107.80 92.70 98.42 97.32 91.55 Z" />
</g>
<g id="#8c628aff">
<path fill="#8c628a" opacity="1.00" d=" M 148.58 99.33 C 154.18 97.77 159.11 94.65 164.09 91.75 C 164.23 93.43 164.37 95.11 164.48 96.79 C 157.58 98.36 151.09 101.39 145.16 105.22 C 141.82 107.51 138.98 110.44 135.73 112.85 C 135.39 112.82 134.71 112.76 134.37 112.73 C 131.22 112.31 128.05 111.95 124.88 112.40 L 124.97 111.34 C 125.00 111.21 125.06 110.96 125.08 110.84 C 126.45 107.91 127.45 104.82 128.05 101.64 C 134.94 101.52 141.97 101.59 148.58 99.33 Z" />
</g>
<g id="#0c181ea4">
<path fill="#0c181e" opacity="0.64" d=" M 149.33 96.35 C 149.51 94.62 150.38 94.22 151.96 95.17 C 151.24 95.94 150.37 96.33 149.33 96.35 Z" />
</g>
<g id="#261a25a9">
<path fill="#261a25" opacity="0.66" d=" M 134.37 112.73 C 134.71 112.76 135.39 112.82 135.73 112.85 C 136.86 113.40 137.88 114.14 138.88 114.90 C 137.41 115.81 134.05 114.67 134.37 112.73 Z" />
</g>
<g id="#1c313bdd">
<path fill="#1c313b" opacity="0.87" d=" M 97.02 118.78 C 97.47 116.63 99.74 115.03 101.07 117.53 C 100.19 118.64 98.35 119.27 97.02 118.78 Z" />
</g>
<g id="#274453d7">
<path fill="#274453" opacity="0.84" d=" M 118.72 117.68 C 119.12 116.71 119.82 116.06 120.82 115.75 C 121.15 117.46 120.45 118.11 118.72 117.68 Z" />
</g>
<g id="#30202fb1">
<path fill="#30202f" opacity="0.69" d=" M 140.32 115.80 C 140.74 116.12 141.58 116.76 142.01 117.08 L 141.14 117.38 L 140.27 116.72 L 140.32 115.80 Z" />
</g>
<g id="#121f26bc">
<path fill="#121f26" opacity="0.74" d=" M 89.09 123.02 C 88.21 121.68 89.75 118.93 91.40 119.42 C 91.04 120.82 90.53 122.37 89.09 123.02 Z" />
</g>
<g id="#0c080c6d">
<path fill="#0c080c" opacity="0.43" d=" M 144.31 118.92 C 145.65 119.75 146.85 120.78 147.91 121.96 C 146.31 123.32 143.24 120.71 144.31 118.92 Z" />
</g>
<g id="#223946e9">
<path fill="#223946" opacity="0.91" d=" M 93.86 121.77 C 93.97 120.66 94.61 120.02 95.79 119.84 C 96.13 121.41 95.49 122.06 93.86 121.77 Z" />
</g>
<g id="#1f3642d2">
<path fill="#1f3642" opacity="0.82" d=" M 89.66 126.38 C 90.13 124.85 90.85 123.03 92.69 122.86 C 93.43 124.35 91.20 126.79 89.66 126.38 Z" />
</g>
<g id="#050a0c6a">
<path fill="#050a0c" opacity="0.42" d=" M 83.37 133.29 C 82.67 131.56 83.21 130.74 84.98 130.85 C 84.73 131.85 84.19 132.66 83.37 133.29 Z" />
</g>
<g id="#0a1217c8">
<path fill="#0a1217" opacity="0.78" d=" M 86.53 131.63 C 86.55 131.61 86.59 131.55 86.61 131.52 C 86.59 131.55 86.55 131.61 86.53 131.63 Z" />
</g>
<g id="#0a141873">
<path fill="#0a1418" opacity="0.45" d=" M 79.24 140.81 C 77.97 139.10 79.74 135.50 81.91 135.96 C 81.28 137.70 80.39 139.35 79.24 140.81 Z" />
</g>
<g id="#06050665">
<path fill="#060506" opacity="0.40" d=" M 177.26 142.76 C 178.15 143.24 178.81 143.93 179.25 144.85 C 177.44 145.23 176.77 144.53 177.26 142.76 Z" />
</g>
<g id="#325b70f7">
<path fill="#325b70" opacity="0.97" d=" M 110.12 145.73 C 110.24 145.14 110.47 143.97 110.59 143.39 C 110.87 144.10 111.45 145.52 111.74 146.23 C 111.79 149.87 111.36 153.53 110.56 157.08 C 110.08 158.55 109.88 160.10 109.96 161.65 C 109.93 162.19 109.85 163.25 109.81 163.78 C 109.28 166.92 109.01 170.09 108.89 173.27 C 108.86 173.63 108.78 174.36 108.74 174.73 C 108.24 177.92 108.00 181.15 107.85 184.38 L 107.76 185.65 C 107.38 182.49 106.92 179.32 106.91 176.13 C 107.04 175.28 107.31 173.58 107.44 172.73 C 108.04 170.68 108.14 168.55 108.00 166.43 C 108.11 165.53 108.32 163.72 108.43 162.82 C 108.93 161.05 109.10 159.22 109.05 157.39 C 109.11 156.64 109.21 155.12 109.27 154.36 C 109.69 151.50 109.93 148.61 110.12 145.73 Z" />
</g>
<g id="#060b0e6f">
<path fill="#060b0e" opacity="0.44" d=" M 77.08 147.14 C 77.30 146.14 77.80 145.30 78.58 144.63 C 79.36 146.32 78.86 147.16 77.08 147.14 Z" />
</g>
<g id="#070d1075">
<path fill="#070d10" opacity="0.46" d=" M 109.27 154.36 C 108.87 151.45 109.10 148.49 110.12 145.73 C 109.93 148.61 109.69 151.50 109.27 154.36 Z" />
</g>
<g id="#0a10136d">
<path fill="#0a1013" opacity="0.43" d=" M 185.87 154.39 C 186.74 151.39 187.76 148.45 188.85 145.53 C 188.76 148.70 187.86 151.88 185.87 154.39 Z" />
</g>
<g id="#070e117b">
<path fill="#070e11" opacity="0.48" d=" M 70.91 157.04 C 71.29 155.87 71.99 154.85 72.88 154.02 C 74.10 155.18 72.49 157.89 70.91 157.04 Z" />
</g>
<g id="#090e1183">
<path fill="#090e11" opacity="0.51" d=" M 184.81 156.74 C 185.03 156.26 185.48 155.30 185.70 154.82 L 186.19 155.61 L 185.74 156.60 L 184.81 156.74 Z" />
</g>
<g id="#070d106e">
<path fill="#070d10" opacity="0.43" d=" M 108.43 162.82 C 107.13 161.52 106.88 157.67 109.05 157.39 C 109.10 159.22 108.93 161.05 108.43 162.82 Z" />
</g>
<g id="#0c171c90">
<path fill="#0c171c" opacity="0.56" d=" M 109.96 161.65 C 109.88 160.10 110.08 158.55 110.56 157.08 C 111.84 158.08 112.02 161.76 109.96 161.65 Z" />
</g>
<g id="#090d0f89">
<path fill="#090d0f" opacity="0.54" d=" M 183.88 159.34 C 182.84 161.96 180.29 157.34 182.90 157.37 C 183.15 157.86 183.64 158.84 183.88 159.34 Z" />
</g>
<g id="#09121684">
<path fill="#091216" opacity="0.52" d=" M 108.89 173.27 C 109.01 170.09 109.28 166.92 109.81 163.78 C 110.07 166.97 110.07 170.25 108.89 173.27 Z" />
</g>
<g id="#09111580">
<path fill="#091115" opacity="0.50" d=" M 107.44 172.73 C 106.24 171.14 105.83 167.09 108.00 166.43 C 108.14 168.55 108.04 170.68 107.44 172.73 Z" />
</g>
<g id="#060c0e67">
<path fill="#060c0e" opacity="0.40" d=" M 107.85 184.38 C 108.00 181.15 108.24 177.92 108.74 174.73 C 109.11 177.97 108.85 181.26 107.85 184.38 Z" />
</g>
</svg>
