<?xml version="1.0" encoding="UTF-8" ?>
<!DOCTYPE svg PUBLIC "-//W3C//DTD SVG 1.1//EN" "http://www.w3.org/Graphics/SVG/1.1/DTD/svg11.dtd">
<svg width="215pt" height="215pt" viewBox="0 0 215 215" version="1.1" xmlns="http://www.w3.org/2000/svg">
<g id="#232323ff">
<path fill="#232323" opacity="1.00" d=" M 25.55 33.21 C 26.38 33.30 28.04 33.48 28.86 33.58 C 28.63 33.87 28.17 34.45 27.94 34.74 L 27.26 35.55 C 31.07 37.08 34.33 40.90 38.60 40.64 C 37.46 42.13 39.59 43.66 41.01 43.10 C 42.94 45.89 46.09 47.40 48.60 49.59 C 54.32 54.71 59.55 60.35 64.89 65.87 C 67.41 68.82 70.50 71.42 72.14 75.01 C 71.66 76.95 70.10 78.38 69.00 79.98 C 63.71 86.71 59.73 95.25 60.96 103.99 C 61.63 109.38 65.09 113.73 67.21 118.57 C 60.12 112.46 58.95 101.84 60.08 93.05 C 62.83 86.85 66.75 81.29 70.69 75.80 C 64.28 76.77 58.30 79.44 52.71 82.61 C 45.37 86.92 39.47 93.13 32.86 98.40 C 33.52 96.41 34.60 94.61 35.85 92.94 L 35.08 95.67 C 44.73 85.54 57.03 76.97 71.16 75.03 C 67.36 70.12 62.89 65.79 58.82 61.11 C 55.15 56.95 51.23 53.00 46.80 49.65 C 41.44 45.39 35.59 41.81 30.03 37.82 C 31.10 40.28 32.12 42.76 33.15 45.23 C 30.70 41.17 28.01 37.26 25.55 33.21 Z" />
<path fill="#232323" opacity="1.00" d=" M 37.05 53.64 C 38.09 55.84 39.00 58.12 39.68 60.46 C 42.57 69.54 42.21 79.82 38.06 88.44 C 39.44 81.76 41.67 74.99 40.61 68.09 C 39.98 63.14 38.08 58.49 37.05 53.64 Z" />
<path fill="#232323" opacity="1.00" d=" M 167.11 70.13 C 168.11 67.47 169.39 64.92 170.94 62.54 C 169.50 67.42 166.77 71.90 166.30 77.05 C 164.85 85.30 166.94 93.55 168.90 101.51 C 167.68 99.10 166.88 96.50 166.30 93.87 C 164.77 86.05 164.54 77.75 167.11 70.13 Z" />
<path fill="#232323" opacity="1.00" d=" M 67.69 65.85 C 70.09 67.50 71.98 69.78 73.34 72.34 C 71.21 70.41 69.31 68.23 67.69 65.85 Z" />
<path fill="#232323" opacity="1.00" d=" M 73.85 72.90 C 74.64 73.84 75.36 74.84 76.07 75.84 C 74.69 77.30 73.27 78.73 71.69 79.97 C 72.77 78.50 73.90 77.06 75.04 75.64 C 74.65 74.72 74.25 73.80 73.85 72.90 Z" />
<path fill="#232323" opacity="1.00" d=" M 120.16 80.81 C 121.15 79.82 122.14 78.83 123.17 77.88 C 122.49 78.91 121.82 79.94 121.17 80.98 C 123.78 88.36 127.40 96.61 124.12 104.37 C 125.83 96.28 123.40 88.17 120.16 80.81 Z" />
<path fill="#232323" opacity="1.00" d=" M 67.78 84.58 C 68.24 83.04 69.00 81.44 70.61 80.84 C 71.39 82.36 69.54 85.20 67.78 84.58 Z" />
<path fill="#232323" opacity="1.00" d=" M 125.68 83.80 L 126.57 84.78 C 134.80 93.22 145.16 99.61 156.16 103.78 C 161.31 105.87 166.55 107.75 171.98 108.97 L 171.36 106.58 C 172.57 107.51 173.30 108.83 173.86 110.23 C 172.21 109.85 170.56 109.48 168.91 109.13 C 167.66 108.75 166.41 108.38 165.13 108.12 C 156.98 105.67 149.29 101.95 141.79 97.97 C 136.98 94.71 132.20 91.41 127.99 87.39 C 127.74 87.36 127.26 87.31 127.01 87.28 L 126.80 87.59 C 126.39 86.34 126.00 85.08 125.68 83.80 Z" />
<path fill="#232323" opacity="1.00" d=" M 92.75 95.36 C 93.92 93.79 95.09 92.22 96.27 90.66 C 96.78 92.05 97.30 93.44 97.72 94.86 C 97.67 95.42 97.56 96.53 97.50 97.09 C 95.92 96.51 94.33 95.93 92.75 95.36 M 95.19 94.02 C 95.36 97.39 98.15 92.43 95.19 94.02 Z" />
<path fill="#232323" opacity="1.00" d=" M 58.07 96.06 L 58.45 95.33 C 56.72 102.21 52.60 108.38 52.09 115.59 C 50.84 120.98 50.10 126.46 48.89 131.85 C 47.93 126.53 49.44 121.26 50.66 116.12 C 52.48 109.23 54.54 102.30 58.07 96.06 Z" />
<path fill="#232323" opacity="1.00" d=" M 67.13 102.96 C 66.86 99.89 69.60 97.88 71.28 95.67 L 71.58 95.95 C 73.08 97.35 74.60 98.74 76.12 100.12 C 74.82 100.53 73.58 101.45 72.17 101.38 C 70.88 100.81 69.73 99.96 68.52 99.24 C 68.21 101.15 67.90 103.06 67.60 104.97 C 68.87 103.75 70.68 102.84 72.36 103.93 C 78.25 106.76 85.01 105.99 91.10 104.25 C 95.84 104.40 97.34 109.22 97.83 113.16 C 96.27 117.66 97.20 122.45 96.78 127.09 C 96.30 133.07 94.67 138.88 92.70 144.52 L 94.03 143.93 C 92.43 146.87 90.74 149.77 89.03 152.66 C 85.71 156.96 80.51 160.18 74.92 159.71 C 69.18 159.42 63.17 154.94 63.25 148.79 C 64.25 150.26 65.34 151.66 66.50 153.01 C 67.09 149.48 64.89 146.54 63.36 143.59 C 63.22 144.38 62.94 145.95 62.81 146.74 C 62.43 147.31 61.66 148.46 61.28 149.03 C 61.25 146.51 62.32 144.25 63.46 142.09 L 63.99 143.07 C 64.17 143.40 64.53 144.07 64.71 144.41 C 65.45 143.31 66.18 142.21 66.90 141.10 C 66.44 142.82 66.06 144.55 65.66 146.28 C 66.81 146.85 68.01 148.35 69.28 147.14 C 74.16 144.24 78.97 139.84 79.87 133.96 C 79.58 128.86 75.47 125.17 72.07 121.80 C 71.65 122.96 71.26 124.12 70.89 125.28 C 70.67 124.29 70.42 123.31 70.13 122.34 C 69.92 122.06 69.51 121.49 69.30 121.20 C 68.98 120.79 68.35 119.98 68.03 119.57 C 67.82 119.32 67.41 118.82 67.21 118.57 C 67.88 118.56 69.24 118.53 69.91 118.52 C 68.83 116.73 67.75 114.93 66.64 113.15 C 67.42 113.69 68.96 114.78 69.73 115.33 C 69.12 111.15 67.72 107.13 67.13 102.96 M 73.94 99.49 C 73.26 98.51 72.07 97.72 70.91 97.50 C 68.26 98.82 73.52 102.03 73.94 99.49 M 70.06 104.09 C 68.68 105.97 69.03 108.43 68.91 110.61 C 70.50 109.05 71.90 107.31 73.22 105.51 C 72.28 104.72 71.23 104.24 70.06 104.09 M 90.28 106.29 C 89.94 108.69 90.80 111.04 91.73 113.21 C 92.68 111.18 93.66 109.15 94.23 106.98 C 93.95 105.10 91.29 105.01 90.28 106.29 M 70.26 111.28 C 69.55 112.60 69.60 114.43 70.35 115.73 C 71.68 115.29 71.65 111.62 70.26 111.28 M 81.50 147.41 C 81.57 150.42 82.13 153.51 83.81 156.06 C 84.95 155.09 86.07 154.12 87.20 153.14 C 85.49 151.09 84.12 148.43 81.50 147.41 Z" />
<path fill="#232323" opacity="1.00" d=" M 86.57 100.16 C 89.62 98.58 93.09 98.47 96.42 98.07 C 95.70 99.42 95.31 101.06 94.19 102.14 C 92.80 102.77 91.25 102.89 89.78 103.18 C 88.65 102.24 87.61 101.19 86.57 100.16 M 87.85 99.75 C 88.38 100.40 89.45 101.69 89.99 102.34 C 92.03 101.63 94.65 101.52 95.45 99.01 C 94.44 99.41 92.41 100.22 91.39 100.63 L 90.34 99.74 L 87.85 99.75 Z" />
<path fill="#232323" opacity="1.00" d=" M 44.85 125.71 C 46.51 128.39 48.06 131.14 49.68 133.84 L 50.07 134.51 C 49.58 134.55 48.59 134.63 48.09 134.67 C 47.05 131.67 46.09 128.64 44.85 125.71 Z" />
<path fill="#232323" opacity="1.00" d=" M 99.03 154.83 C 100.49 152.78 101.97 150.74 103.37 148.65 C 102.45 151.26 101.08 153.67 99.53 155.95 C 100.08 156.41 101.18 157.32 101.72 157.78 C 102.68 156.03 103.55 154.13 105.20 152.91 C 103.77 155.44 102.36 157.98 100.80 160.43 C 100.84 159.82 100.93 158.58 100.97 157.97 C 99.93 157.13 98.89 156.30 97.84 155.49 C 97.24 155.02 96.64 154.56 96.05 154.10 C 96.79 154.29 98.28 154.65 99.03 154.83 Z" />
<path fill="#232323" opacity="1.00" d=" M 98.42 161.72 C 98.75 162.78 98.95 163.87 99.01 164.99 C 98.01 170.09 95.03 175.17 97.09 180.44 C 99.63 176.80 100.56 172.33 103.05 168.65 C 101.93 172.30 100.78 175.98 99.10 179.42 C 98.63 180.57 97.33 180.72 96.32 181.12 C 93.41 174.55 98.75 168.34 98.42 161.72 Z" />
</g>
<g id="#86b6cfff">
<path fill="#86b6cf" opacity="1.00" d=" M 27.26 35.55 L 27.94 34.74 L 29.84 35.25 C 30.32 35.49 31.26 35.98 31.73 36.22 C 32.38 36.55 33.68 37.22 34.33 37.55 C 34.37 37.57 34.45 37.62 34.48 37.64 C 34.95 37.97 35.89 38.61 36.36 38.94 C 36.92 39.36 38.04 40.21 38.60 40.64 C 34.33 40.90 31.07 37.08 27.26 35.55 Z" />
<path fill="#86b6cf" opacity="1.00" d=" M 41.01 43.10 L 41.47 43.09 C 43.13 43.55 44.67 44.34 46.08 45.32 C 46.43 45.60 47.13 46.16 47.48 46.44 L 47.53 46.49 L 47.59 46.53 C 48.15 46.94 49.26 47.77 49.82 48.18 L 49.59 48.82 L 48.60 49.59 C 46.09 47.40 42.94 45.89 41.01 43.10 Z" />
<path fill="#86b6cf" opacity="1.00" d=" M 91.97 94.23 C 93.03 92.17 94.83 90.73 96.73 89.50 C 98.09 91.59 99.51 93.64 101.04 95.61 C 101.22 95.84 101.57 96.32 101.75 96.55 C 100.41 95.98 99.07 95.42 97.72 94.86 C 97.30 93.44 96.78 92.05 96.27 90.66 C 95.09 92.22 93.92 93.79 92.75 95.36 C 94.33 95.93 95.92 96.51 97.50 97.09 C 97.23 97.34 96.69 97.83 96.42 98.07 C 93.09 98.47 89.62 98.58 86.57 100.16 C 83.74 101.69 80.48 101.78 77.38 101.21 C 77.06 100.94 76.44 100.39 76.12 100.12 C 74.60 98.74 73.08 97.35 71.58 95.95 C 72.04 95.74 72.96 95.31 73.42 95.09 C 75.22 94.84 77.04 94.67 78.87 94.52 C 78.56 93.44 77.76 92.38 78.15 91.23 C 80.01 90.50 80.07 93.58 81.04 94.55 C 84.49 94.98 87.99 95.21 91.47 94.97 L 91.97 94.23 Z" />
<path fill="#86b6cf" opacity="1.00" d=" M 61.28 149.03 C 61.66 148.46 62.43 147.31 62.81 146.74 C 62.92 147.25 63.14 148.28 63.25 148.79 C 63.17 154.94 69.18 159.42 74.92 159.71 C 80.51 160.18 85.71 156.96 89.03 152.66 C 89.52 152.49 90.49 152.17 90.98 152.00 C 88.70 155.56 85.99 159.39 81.62 160.43 C 76.21 162.41 70.45 160.65 65.45 158.38 C 65.42 158.34 65.38 158.28 65.36 158.24 C 64.44 156.64 63.54 155.03 62.45 153.53 C 62.43 153.50 62.37 153.42 62.34 153.38 L 61.49 152.33 C 61.41 151.22 61.34 150.13 61.28 149.03 Z" />
</g>
<g id="#0d101285">
<path fill="#0d1012" opacity="0.52" d=" M 29.84 35.25 L 30.66 34.80 L 31.62 35.30 L 31.73 36.22 C 31.26 35.98 30.32 35.49 29.84 35.25 Z" />
</g>
<g id="#0c0f12b9">
<path fill="#0c0f12" opacity="0.73" d=" M 34.33 37.55 C 34.37 37.57 34.45 37.62 34.48 37.64 C 34.45 37.62 34.37 37.57 34.33 37.55 Z" />
</g>
<g id="#b98ebeff">
<path fill="#b98ebe" opacity="1.00" d=" M 30.03 37.82 C 35.59 41.81 41.44 45.39 46.80 49.65 C 46.06 53.05 46.62 56.51 48.06 59.66 C 45.24 59.44 42.40 59.64 39.68 60.46 C 39.00 58.12 38.09 55.84 37.05 53.64 C 36.86 53.11 36.46 52.06 36.27 51.54 C 35.88 49.88 35.24 48.29 34.19 46.94 C 33.93 46.51 33.41 45.66 33.15 45.23 C 32.12 42.76 31.10 40.28 30.03 37.82 Z" />
</g>
<g id="#161e24a5">
<path fill="#161e24" opacity="0.65" d=" M 36.36 38.94 C 40.19 39.86 43.52 42.39 46.08 45.32 C 44.67 44.34 43.13 43.55 41.47 43.09 L 41.01 43.10 C 40.61 41.95 39.77 41.01 38.60 40.64 C 38.04 40.21 36.92 39.36 36.36 38.94 Z" />
</g>
<g id="#ffffffff">
<path fill="#ffffff" opacity="1.00" d=" M 38.60 40.64 C 39.77 41.01 40.61 41.95 41.01 43.10 C 39.59 43.66 37.46 42.13 38.60 40.64 Z" />
<path fill="#ffffff" opacity="1.00" d=" M 73.94 99.49 C 73.52 102.03 68.26 98.82 70.91 97.50 C 72.07 97.72 73.26 98.51 73.94 99.49 Z" />
<path fill="#ffffff" opacity="1.00" d=" M 87.85 99.75 L 90.34 99.74 L 91.39 100.63 C 92.41 100.22 94.44 99.41 95.45 99.01 C 94.65 101.52 92.03 101.63 89.99 102.34 C 89.45 101.69 88.38 100.40 87.85 99.75 Z" />
<path fill="#ffffff" opacity="1.00" d=" M 90.28 106.29 C 91.29 105.01 93.95 105.10 94.23 106.98 C 93.66 109.15 92.68 111.18 91.73 113.21 C 90.80 111.04 89.94 108.69 90.28 106.29 Z" />
<path fill="#ffffff" opacity="1.00" d=" M 63.36 143.59 C 64.89 146.54 67.09 149.48 66.50 153.01 C 65.34 151.66 64.25 150.26 63.25 148.79 C 63.14 148.28 62.92 147.25 62.81 146.74 C 62.94 145.95 63.22 144.38 63.36 143.59 Z" />
</g>
<g id="#5b344fff">
<path fill="#5b344f" opacity="1.00" d=" M 186.76 44.04 C 188.89 43.43 191.10 43.16 193.31 43.19 C 191.51 45.49 188.37 45.85 186.05 47.46 L 185.78 47.47 C 183.87 47.49 181.96 47.70 180.12 48.26 C 172.58 50.54 165.06 53.00 158.03 56.61 C 149.80 60.62 142.11 65.76 135.18 71.73 C 132.12 74.46 128.72 76.90 126.21 80.19 C 125.27 81.17 125.38 82.59 125.68 83.80 C 126.00 85.08 126.39 86.34 126.80 87.59 C 127.83 91.67 129.11 95.78 128.71 100.06 C 128.20 115.81 130.91 132.09 138.69 145.96 C 140.19 140.49 140.31 134.30 143.93 129.66 C 141.87 135.67 140.21 141.80 139.57 148.14 C 137.84 146.28 136.03 144.49 133.99 142.98 L 134.45 142.69 L 135.16 142.25 C 132.38 136.22 130.20 129.90 128.82 123.41 C 128.37 118.34 127.73 113.30 127.09 108.25 C 125.49 110.49 123.88 112.72 122.26 114.94 C 117.99 118.85 112.73 121.40 107.28 123.24 C 106.87 128.85 106.35 134.49 104.82 139.94 C 108.71 138.53 112.72 137.33 116.88 137.15 C 118.48 137.14 120.07 137.20 121.67 137.25 C 125.82 138.15 130.06 139.32 133.46 142.00 C 125.27 138.14 115.14 136.29 106.74 140.51 C 106.14 143.13 105.24 145.71 103.72 147.95 C 104.53 145.71 105.30 143.46 106.11 141.23 C 105.14 141.38 104.17 141.53 103.20 141.68 C 104.06 138.15 105.09 134.59 104.95 130.92 C 104.97 128.34 104.47 125.73 104.94 123.18 C 108.13 121.11 111.98 120.43 115.21 118.46 C 121.94 114.74 127.24 107.79 127.26 99.88 C 128.02 93.47 124.66 87.68 123.75 81.54 C 125.36 78.12 128.46 75.73 131.09 73.12 C 139.02 65.74 148.34 60.01 157.85 54.91 C 168.36 49.58 179.90 46.77 191.35 44.27 C 189.82 44.17 188.29 44.09 186.76 44.04 Z" />
</g>
<g id="#0f171c87">
<path fill="#0f171c" opacity="0.53" d=" M 173.91 46.32 C 177.79 45.46 181.60 43.85 185.66 44.24 C 179.27 45.64 172.97 47.35 166.70 49.19 C 168.66 47.33 171.41 47.00 173.91 46.32 Z" />
</g>
<g id="#55a1c4ff">
<path fill="#55a1c4" opacity="1.00" d=" M 185.66 44.24 C 185.93 44.19 186.48 44.09 186.76 44.04 C 188.29 44.09 189.82 44.17 191.35 44.27 C 179.90 46.77 168.36 49.58 157.85 54.91 C 148.34 60.01 139.02 65.74 131.09 73.12 C 128.46 75.73 125.36 78.12 123.75 81.54 C 124.66 87.68 128.02 93.47 127.26 99.88 C 127.24 107.79 121.94 114.74 115.21 118.46 C 115.11 117.69 114.91 116.16 114.82 115.39 L 114.81 115.35 C 116.88 114.09 118.85 112.64 120.37 110.73 C 120.55 110.54 120.89 110.16 121.06 109.97 C 122.09 108.96 122.90 107.74 123.33 106.36 C 123.53 105.86 123.92 104.87 124.12 104.37 C 127.40 96.61 123.78 88.36 121.17 80.98 C 121.82 79.94 122.49 78.91 123.17 77.88 C 123.27 77.76 123.45 77.52 123.54 77.41 C 126.23 74.85 128.96 72.35 131.53 69.68 C 131.64 69.60 131.85 69.42 131.95 69.33 C 135.91 66.51 139.94 63.76 143.61 60.54 L 144.14 60.12 C 144.17 60.10 144.22 60.06 144.25 60.04 C 144.75 59.81 145.76 59.34 146.26 59.11 C 146.69 58.80 147.55 58.19 147.98 57.89 C 148.20 57.74 148.66 57.44 148.88 57.29 C 153.99 54.63 159.17 52.12 164.52 49.98 C 165.23 49.68 165.96 49.42 166.70 49.19 C 172.97 47.35 179.27 45.64 185.66 44.24 Z" />
</g>
<g id="#212f35d7">
<path fill="#212f35" opacity="0.84" d=" M 47.48 46.44 C 47.50 46.46 47.56 46.51 47.59 46.53 L 47.53 46.49 L 47.48 46.44 Z" />
</g>
<g id="#2b202cb3">
<path fill="#2b202c" opacity="0.70" d=" M 34.19 46.94 C 35.24 48.29 35.88 49.88 36.27 51.54 C 34.26 52.02 33.04 48.36 34.19 46.94 Z" />
</g>
<g id="#c092c0ff">
<path fill="#c092c0" opacity="1.00" d=" M 180.12 48.26 C 181.96 47.70 183.87 47.49 185.78 47.47 C 184.76 48.28 183.70 49.02 182.60 49.70 C 181.49 50.21 180.55 51.00 179.90 52.03 C 179.69 52.24 179.25 52.68 179.04 52.89 C 178.08 53.33 177.37 54.01 176.90 54.95 C 176.74 55.12 176.43 55.47 176.28 55.65 C 174.47 57.28 172.75 59.06 171.69 61.28 C 171.58 61.47 171.37 61.84 171.26 62.03 L 170.94 62.54 C 169.39 64.92 168.11 67.47 167.11 70.13 C 165.21 69.23 163.32 68.28 161.54 67.15 C 160.02 68.25 159.41 70.08 158.48 71.63 C 157.28 73.93 155.20 75.55 153.28 77.21 C 152.92 70.01 155.66 63.26 158.03 56.61 C 165.06 53.00 172.58 50.54 180.12 48.26 Z" />
</g>
<g id="#02020259">
<path fill="#020202" opacity="0.35" d=" M 49.82 48.18 C 51.50 47.79 52.12 48.39 51.67 49.98 C 51.15 49.69 50.11 49.11 49.59 48.82 L 49.82 48.18 Z" />
</g>
<g id="#56add5ff">
<path fill="#56add5" opacity="1.00" d=" M 48.60 49.59 L 49.59 48.82 C 50.11 49.11 51.15 49.69 51.67 49.98 C 52.55 50.57 53.28 51.29 53.87 52.16 C 54.33 53.09 55.04 53.76 55.99 54.16 C 56.14 54.27 56.43 54.50 56.57 54.61 C 59.07 57.35 61.72 59.95 64.49 62.42 C 64.60 62.55 64.82 62.80 64.93 62.93 C 65.37 64.09 65.78 65.26 66.16 66.44 L 64.89 65.87 C 59.55 60.35 54.32 54.71 48.60 49.59 Z" />
</g>
<g id="#ab6eadff">
<path fill="#ab6ead" opacity="1.00" d=" M 46.80 49.65 C 51.23 53.00 55.15 56.95 58.82 61.11 C 62.89 65.79 67.36 70.12 71.16 75.03 C 57.03 76.97 44.73 85.54 35.08 95.67 L 35.85 92.94 C 36.43 91.37 37.28 89.92 38.06 88.44 C 42.21 79.82 42.57 69.54 39.68 60.46 C 42.40 59.64 45.24 59.44 48.06 59.66 C 46.62 56.51 46.06 53.05 46.80 49.65 Z" />
</g>
<g id="#17252dad">
<path fill="#17252d" opacity="0.68" d=" M 148.88 57.29 C 153.31 53.60 158.74 50.63 164.52 49.98 C 159.17 52.12 153.99 54.63 148.88 57.29 Z" />
</g>
<g id="#382b39b3">
<path fill="#382b39" opacity="0.70" d=" M 179.90 52.03 C 180.55 51.00 181.49 50.21 182.60 49.70 C 183.55 51.14 181.19 53.17 179.90 52.03 Z" />
</g>
<g id="#0d161a9a">
<path fill="#0d161a" opacity="0.60" d=" M 53.87 52.16 C 55.62 51.72 56.33 52.38 55.99 54.16 C 55.04 53.76 54.33 53.09 53.87 52.16 Z" />
</g>
<g id="#302430ad">
<path fill="#302430" opacity="0.68" d=" M 176.90 54.95 C 177.37 54.01 178.08 53.33 179.04 52.89 C 179.37 54.66 178.65 55.35 176.90 54.95 Z" />
</g>
<g id="#112128af">
<path fill="#112128" opacity="0.69" d=" M 56.57 54.61 C 59.82 56.45 62.76 59.06 64.49 62.42 C 61.72 59.95 59.07 57.35 56.57 54.61 Z" />
</g>
<g id="#2a202bba">
<path fill="#2a202b" opacity="0.73" d=" M 171.69 61.28 C 172.75 59.06 174.47 57.28 176.28 55.65 C 175.20 57.85 173.69 59.84 171.69 61.28 Z" />
</g>
<g id="#ad6faeff">
<path fill="#ad6fae" opacity="1.00" d=" M 135.18 71.73 C 142.11 65.76 149.80 60.62 158.03 56.61 C 155.66 63.26 152.92 70.01 153.28 77.21 C 155.20 75.55 157.28 73.93 158.48 71.63 C 159.41 70.08 160.02 68.25 161.54 67.15 C 163.32 68.28 165.21 69.23 167.11 70.13 C 164.54 77.75 164.77 86.05 166.30 93.87 C 165.72 93.72 164.55 93.44 163.97 93.29 C 163.06 95.10 162.20 96.92 161.38 98.76 C 157.92 99.23 154.41 99.02 151.04 98.13 C 152.81 99.95 154.47 101.87 156.16 103.78 C 145.16 99.61 134.80 93.22 126.57 84.78 C 129.46 80.45 132.53 76.23 135.18 71.73 Z" />
</g>
<g id="#294553d4">
<path fill="#294553" opacity="0.83" d=" M 146.23 58.20 L 147.11 57.57 L 147.98 57.89 C 147.55 58.19 146.69 58.80 146.26 59.11 L 146.23 58.20 Z" />
</g>
<g id="#426d83ff">
<path fill="#426d83" opacity="1.00" d=" M 144.14 60.12 C 144.17 60.10 144.22 60.06 144.25 60.04 C 144.22 60.06 144.17 60.10 144.14 60.12 Z" />
</g>
<g id="#16232baf">
<path fill="#16232b" opacity="0.69" d=" M 131.95 69.33 C 134.94 65.48 139.26 62.67 143.61 60.54 C 139.94 63.76 135.91 66.51 131.95 69.33 Z" />
</g>
<g id="#4299bdff">
<path fill="#4299bd" opacity="1.00" d=" M 64.93 62.93 C 65.93 63.83 66.88 64.78 67.69 65.85 C 69.31 68.23 71.21 70.41 73.34 72.34 C 73.47 72.48 73.72 72.76 73.85 72.90 C 74.25 73.80 74.65 74.72 75.04 75.64 C 73.90 77.06 72.77 78.50 71.69 79.97 L 71.32 80.46 L 70.61 80.84 C 69.00 81.44 68.24 83.04 67.78 84.58 C 67.43 85.64 66.88 86.61 66.26 87.53 C 61.80 93.37 60.70 101.91 63.93 108.56 C 64.11 108.99 64.46 109.87 64.64 110.30 C 64.95 110.74 65.57 111.60 65.87 112.03 C 66.06 112.31 66.45 112.87 66.64 113.15 C 67.75 114.93 68.83 116.73 69.91 118.52 C 69.24 118.53 67.88 118.56 67.21 118.57 C 65.09 113.73 61.63 109.38 60.96 103.99 C 59.73 95.25 63.71 86.71 69.00 79.98 C 70.10 78.38 71.66 76.95 72.14 75.01 C 70.50 71.42 67.41 68.82 64.89 65.87 L 66.16 66.44 C 65.78 65.26 65.37 64.09 64.93 62.93 Z" />
<path fill="#4299bd" opacity="1.00" d=" M 44.08 144.42 C 46.53 144.89 49.42 146.58 51.62 144.55 C 52.38 145.93 53.21 147.29 53.80 148.76 C 54.23 151.03 54.60 153.33 55.14 155.59 C 54.02 156.76 52.93 157.98 51.84 159.19 C 51.10 154.47 49.26 149.77 45.54 146.59 C 45.50 146.54 45.42 146.45 45.38 146.40 C 45.05 145.91 44.41 144.92 44.08 144.42 Z" />
<path fill="#4299bd" opacity="1.00" d=" M 62.34 153.38 C 62.37 153.42 62.43 153.50 62.45 153.53 L 62.33 153.51 L 62.34 153.38 Z" />
</g>
<g id="#111d23ab">
<path fill="#111d23" opacity="0.67" d=" M 123.54 77.41 C 125.13 73.95 128.25 71.46 131.53 69.68 C 128.96 72.35 126.23 74.85 123.54 77.41 Z" />
</g>
<g id="#986494ff">
<path fill="#986494" opacity="1.00" d=" M 126.21 80.19 C 128.72 76.90 132.12 74.46 135.18 71.73 C 132.53 76.23 129.46 80.45 126.57 84.78 L 125.68 83.80 C 125.38 82.59 125.27 81.17 126.21 80.19 Z" />
</g>
<g id="#956390ff">
<path fill="#956390" opacity="1.00" d=" M 52.71 82.61 C 58.30 79.44 64.28 76.77 70.69 75.80 C 66.75 81.29 62.83 86.85 60.08 93.05 L 59.47 93.29 C 52.32 94.69 45.04 96.03 38.54 99.50 C 35.81 101.25 33.24 103.23 30.43 104.84 C 30.03 104.29 29.23 103.20 28.83 102.65 C 30.19 101.25 31.42 99.72 32.86 98.40 C 39.47 93.13 45.37 86.92 52.71 82.61 Z" />
</g>
<g id="#90608dff">
<path fill="#90608d" opacity="1.00" d=" M 127.01 87.28 C 127.26 87.31 127.74 87.36 127.99 87.39 C 132.20 91.41 136.98 94.71 141.79 97.97 C 142.93 100.95 144.91 103.47 147.10 105.75 C 145.09 105.29 143.07 104.87 141.04 104.49 C 141.26 106.13 141.48 107.77 141.71 109.41 C 141.01 109.67 139.61 110.18 138.91 110.44 C 140.46 115.64 143.59 120.12 146.84 124.39 C 146.07 125.68 145.41 127.03 144.72 128.37 C 144.63 128.55 144.43 128.93 144.33 129.11 L 143.93 129.66 C 140.31 134.30 140.19 140.49 138.69 145.96 C 130.91 132.09 128.20 115.81 128.71 100.06 C 129.11 95.78 127.83 91.67 126.80 87.59 L 127.01 87.28 Z" />
<path fill="#90608d" opacity="1.00" d=" M 107.28 123.24 C 112.73 121.40 117.99 118.85 122.26 114.94 C 119.63 119.72 115.56 123.80 114.13 129.18 C 113.26 132.16 115.60 134.68 116.88 137.15 C 112.72 137.33 108.71 138.53 104.82 139.94 C 106.35 134.49 106.87 128.85 107.28 123.24 Z" />
</g>
<g id="#0f1d25ab">
<path fill="#0f1d25" opacity="0.67" d=" M 63.93 108.56 C 60.70 101.91 61.80 93.37 66.26 87.53 C 65.20 91.03 63.45 94.39 63.17 98.10 C 62.84 101.61 63.55 105.09 63.93 108.56 Z" />
</g>
<g id="#364a58d9">
<path fill="#364a58" opacity="0.85" d=" M 73.42 95.09 C 74.59 92.83 76.40 91.02 78.05 89.11 C 79.53 90.59 80.95 92.13 82.27 93.76 C 85.49 94.07 88.73 94.36 91.97 94.23 L 91.47 94.97 C 87.99 95.21 84.49 94.98 81.04 94.55 C 80.07 93.58 80.01 90.50 78.15 91.23 C 77.76 92.38 78.56 93.44 78.87 94.52 C 77.04 94.67 75.22 94.84 73.42 95.09 Z" />
</g>
<g id="#101f26a8">
<path fill="#101f26" opacity="0.66" d=" M 96.73 89.50 C 99.04 90.76 100.87 92.88 101.04 95.61 C 99.51 93.64 98.09 91.59 96.73 89.50 Z" />
</g>
<g id="#a96babff">
<path fill="#a96bab" opacity="1.00" d=" M 38.54 99.50 C 45.04 96.03 52.32 94.69 59.47 93.29 C 59.12 93.96 58.78 94.64 58.45 95.33 L 58.07 96.06 C 54.77 96.89 51.41 97.63 47.98 97.57 C 46.36 99.01 44.77 100.48 43.18 101.96 C 42.44 101.34 41.71 100.71 40.97 100.09 C 36.53 103.79 31.15 106.90 25.18 106.67 L 26.26 106.30 C 27.33 106.04 27.98 105.37 28.23 104.29 C 28.38 103.88 28.68 103.06 28.83 102.65 C 29.23 103.20 30.03 104.29 30.43 104.84 C 33.24 103.23 35.81 101.25 38.54 99.50 Z" />
</g>
<g id="#7b5477ff">
<path fill="#7b5477" opacity="1.00" d=" M 59.47 93.29 L 60.08 93.05 C 58.95 101.84 60.12 112.46 67.21 118.57 C 67.41 118.82 67.82 119.32 68.03 119.57 C 63.74 122.72 59.66 126.22 56.62 130.62 C 54.87 131.14 53.16 131.77 51.49 132.52 C 48.67 127.08 52.70 121.31 52.09 115.59 C 52.60 108.38 56.72 102.21 58.45 95.33 C 58.78 94.64 59.12 93.96 59.47 93.29 Z" />
</g>
<g id="#c192c1ff">
<path fill="#c192c1" opacity="1.00" d=" M 163.97 93.29 C 164.55 93.44 165.72 93.72 166.30 93.87 C 166.88 96.50 167.68 99.10 168.90 101.51 C 169.70 103.21 170.62 104.85 171.36 106.58 L 171.98 108.97 C 166.55 107.75 161.31 105.87 156.16 103.78 C 154.47 101.87 152.81 99.95 151.04 98.13 C 154.41 99.02 157.92 99.23 161.38 98.76 C 162.20 96.92 163.06 95.10 163.97 93.29 Z" />
</g>
<g id="#a76a98ff">
<path fill="#a76a98" opacity="1.00" d=" M 95.19 94.02 C 98.15 92.43 95.36 97.39 95.19 94.02 Z" />
</g>
<g id="#3f84a4ff">
<path fill="#3f84a4" opacity="1.00" d=" M 97.72 94.86 C 99.07 95.42 100.41 95.98 101.75 96.55 L 101.84 97.40 C 101.83 98.90 102.59 100.39 104.03 100.97 C 106.27 106.41 108.09 112.07 108.67 117.95 C 110.73 117.12 112.77 116.25 114.82 115.39 C 114.91 116.16 115.11 117.69 115.21 118.46 C 111.98 120.43 108.13 121.11 104.94 123.18 C 104.47 125.73 104.97 128.34 104.95 130.92 C 105.09 134.59 104.06 138.15 103.20 141.68 C 104.17 141.53 105.14 141.38 106.11 141.23 C 105.30 143.46 104.53 145.71 103.72 147.95 C 103.64 148.12 103.46 148.48 103.37 148.65 C 101.97 150.74 100.49 152.78 99.03 154.83 C 98.28 154.65 96.79 154.29 96.05 154.10 C 96.64 154.56 97.24 155.02 97.84 155.49 C 97.06 156.70 96.30 157.92 95.50 159.12 C 94.18 161.49 91.71 162.82 89.31 163.83 C 81.64 166.16 72.81 165.42 66.59 160.00 C 66.30 159.59 65.73 158.78 65.45 158.38 C 70.45 160.65 76.21 162.41 81.62 160.43 C 85.99 159.39 88.70 155.56 90.98 152.00 C 90.49 152.17 89.52 152.49 89.03 152.66 C 90.74 149.77 92.43 146.87 94.03 143.93 C 98.53 134.48 99.51 123.43 97.83 113.16 C 97.34 109.22 95.84 104.40 91.10 104.25 L 89.78 103.18 C 91.25 102.89 92.80 102.77 94.19 102.14 C 95.31 101.06 95.70 99.42 96.42 98.07 C 96.69 97.83 97.23 97.34 97.50 97.09 C 97.56 96.53 97.67 95.42 97.72 94.86 Z" />
</g>
<g id="#ba8ebeff">
<path fill="#ba8ebe" opacity="1.00" d=" M 47.98 97.57 C 51.41 97.63 54.77 96.89 58.07 96.06 C 54.54 102.30 52.48 109.23 50.66 116.12 C 49.44 121.26 47.93 126.53 48.89 131.85 C 50.10 126.46 50.84 120.98 52.09 115.59 C 52.70 121.31 48.67 127.08 51.49 132.52 C 51.20 132.73 50.61 133.16 50.31 133.37 L 49.68 133.84 C 48.06 131.14 46.51 128.39 44.85 125.71 C 44.76 125.55 44.56 125.22 44.46 125.06 C 43.00 122.26 41.17 119.64 38.76 117.58 C 38.68 117.51 38.53 117.37 38.46 117.30 C 36.55 115.37 34.27 113.86 31.82 112.71 C 31.53 112.57 30.97 112.28 30.68 112.13 C 28.33 110.73 25.66 110.05 23.01 109.47 C 23.53 108.80 24.57 107.46 25.09 106.79 L 25.18 106.67 C 31.15 106.90 36.53 103.79 40.97 100.09 C 41.71 100.71 42.44 101.34 43.18 101.96 C 44.77 100.48 46.36 99.01 47.98 97.57 Z" />
</g>
<g id="#183442da">
<path fill="#183442" opacity="0.85" d=" M 101.84 97.40 C 103.41 97.01 104.77 99.68 104.03 100.97 C 102.59 100.39 101.83 98.90 101.84 97.40 Z" />
</g>
<g id="#aa6dadff">
<path fill="#aa6dad" opacity="1.00" d=" M 141.79 97.97 C 149.29 101.95 156.98 105.67 165.13 108.12 C 165.01 108.46 164.78 109.14 164.66 109.48 C 165.67 110.98 167.64 109.47 168.91 109.13 C 170.56 109.48 172.21 109.85 173.86 110.23 C 168.99 110.20 164.17 110.88 159.67 112.83 C 157.75 113.23 156.16 114.40 154.97 115.92 C 154.71 116.15 154.17 116.62 153.91 116.85 C 152.96 117.28 152.26 117.97 151.83 118.92 C 151.72 119.07 151.49 119.37 151.37 119.52 C 149.80 121.08 148.22 122.65 146.84 124.39 C 143.59 120.12 140.46 115.64 138.91 110.44 C 139.61 110.18 141.01 109.67 141.71 109.41 C 141.48 107.77 141.26 106.13 141.04 104.49 C 143.07 104.87 145.09 105.29 147.10 105.75 C 144.91 103.47 142.93 100.95 141.79 97.97 Z" />
</g>
<g id="#4296bdff">
<path fill="#4296bd" opacity="1.00" d=" M 67.60 104.97 C 67.90 103.06 68.21 101.15 68.52 99.24 C 69.73 99.96 70.88 100.81 72.17 101.38 C 73.58 101.45 74.82 100.53 76.12 100.12 C 76.44 100.39 77.06 100.94 77.38 101.21 C 80.48 101.78 83.74 101.69 86.57 100.16 C 87.61 101.19 88.65 102.24 89.78 103.18 L 91.10 104.25 C 85.01 105.99 78.25 106.76 72.36 103.93 C 70.68 102.84 68.87 103.75 67.60 104.97 Z" />
</g>
<g id="#533753dc">
<path fill="#533753" opacity="0.86" d=" M 26.26 106.30 C 25.92 104.63 26.58 103.96 28.23 104.29 C 27.98 105.37 27.33 106.04 26.26 106.30 Z" />
</g>
<g id="#f0eff1ff">
<path fill="#f0eff1" opacity="1.00" d=" M 70.06 104.09 C 71.23 104.24 72.28 104.72 73.22 105.51 C 71.90 107.31 70.50 109.05 68.91 110.61 C 69.03 108.43 68.68 105.97 70.06 104.09 Z" />
</g>
<g id="#0e191f8f">
<path fill="#0e191f" opacity="0.56" d=" M 121.06 109.97 C 119.89 108.62 121.56 105.58 123.33 106.36 C 122.90 107.74 122.09 108.96 121.06 109.97 Z" />
</g>
<g id="#271c28b1">
<path fill="#271c28" opacity="0.69" d=" M 21.46 109.99 C 22.60 108.84 23.79 107.74 25.09 106.79 C 24.57 107.46 23.53 108.80 23.01 109.47 C 25.66 110.05 28.33 110.73 30.68 112.13 C 27.56 111.68 24.49 110.88 21.46 109.99 Z" />
</g>
<g id="#ae6faeff">
<path fill="#ae6fae" opacity="1.00" d=" M 122.26 114.94 C 123.88 112.72 125.49 110.49 127.09 108.25 C 127.73 113.30 128.37 118.34 128.82 123.41 C 128.33 125.04 127.78 126.65 127.25 128.27 C 126.31 128.81 125.37 129.36 124.43 129.91 C 125.00 131.65 125.58 133.40 126.16 135.15 C 124.67 135.87 123.19 136.59 121.67 137.25 C 120.07 137.20 118.48 137.14 116.88 137.15 C 115.60 134.68 113.26 132.16 114.13 129.18 C 115.56 123.80 119.63 119.72 122.26 114.94 Z" />
</g>
<g id="#c37dc4ff">
<path fill="#c37dc4" opacity="1.00" d=" M 164.66 109.48 C 164.78 109.14 165.01 108.46 165.13 108.12 C 166.41 108.38 167.66 108.75 168.91 109.13 C 167.64 109.47 165.67 110.98 164.66 109.48 Z" />
</g>
<g id="#091317b4">
<path fill="#091317" opacity="0.71" d=" M 64.64 110.30 L 65.58 110.28 L 66.21 111.17 L 65.87 112.03 C 65.57 111.60 64.95 110.74 64.64 110.30 Z" />
</g>
<g id="#285367ff">
<path fill="#285367" opacity="1.00" d=" M 70.26 111.28 C 71.65 111.62 71.68 115.29 70.35 115.73 C 69.60 114.43 69.55 112.60 70.26 111.28 Z" />
</g>
<g id="#0f1c21a3">
<path fill="#0f1c21" opacity="0.64" d=" M 114.81 115.35 C 116.13 113.26 118.24 111.89 120.37 110.73 C 118.85 112.64 116.88 114.09 114.81 115.35 Z" />
</g>
<g id="#201820b0">
<path fill="#201820" opacity="0.69" d=" M 31.82 112.71 C 34.27 113.86 36.55 115.37 38.46 117.30 C 35.84 116.46 33.49 114.92 31.82 112.71 Z" />
</g>
<g id="#241825ba">
<path fill="#241825" opacity="0.73" d=" M 154.97 115.92 C 156.16 114.40 157.75 113.23 159.67 112.83 C 160.00 114.80 156.71 116.62 154.97 115.92 Z" />
</g>
<g id="#161718ff">
<path fill="#161718" opacity="1.00" d=" M 96.78 127.09 C 97.20 122.45 96.27 117.66 97.83 113.16 C 99.51 123.43 98.53 134.48 94.03 143.93 L 92.70 144.52 C 94.67 138.88 96.30 133.07 96.78 127.09 Z" />
</g>
<g id="#0d080da3">
<path fill="#0d080d" opacity="0.64" d=" M 151.83 118.92 C 152.26 117.97 152.96 117.28 153.91 116.85 C 154.29 118.61 153.60 119.30 151.83 118.92 Z" />
</g>
<g id="#241b25b1">
<path fill="#241b25" opacity="0.69" d=" M 38.76 117.58 C 41.17 119.64 43.00 122.26 44.46 125.06 C 41.91 123.14 40.21 120.37 38.76 117.58 Z" />
</g>
<g id="#8c5d8dff">
<path fill="#8c5d8d" opacity="1.00" d=" M 56.62 130.62 C 59.66 126.22 63.74 122.72 68.03 119.57 C 68.35 119.98 68.98 120.79 69.30 121.20 C 68.96 125.73 67.95 130.16 67.02 134.59 C 66.76 135.14 66.23 136.25 65.97 136.80 C 64.77 135.52 63.64 134.18 62.34 132.99 C 60.65 131.74 58.64 131.08 56.62 130.62 Z" />
</g>
<g id="#1f141fb1">
<path fill="#1f141f" opacity="0.69" d=" M 146.84 124.39 C 148.22 122.65 149.80 121.08 151.37 119.52 C 149.51 122.71 147.40 125.80 144.72 128.37 C 145.41 127.03 146.07 125.68 146.84 124.39 Z" />
</g>
<g id="#175063ff">
<path fill="#175063" opacity="1.00" d=" M 69.30 121.20 C 69.51 121.49 69.92 122.06 70.13 122.34 C 70.42 123.31 70.67 124.29 70.89 125.28 C 70.29 130.71 69.49 136.22 66.90 141.10 C 67.07 139.64 67.21 138.18 67.34 136.72 C 67.26 136.19 67.10 135.12 67.02 134.59 C 67.95 130.16 68.96 125.73 69.30 121.20 Z" />
</g>
<g id="#505152ff">
<path fill="#505152" opacity="1.00" d=" M 72.07 121.80 C 75.47 125.17 79.58 128.86 79.87 133.96 C 78.97 139.84 74.16 144.24 69.28 147.14 C 68.01 148.35 66.81 146.85 65.66 146.28 C 66.06 144.55 66.44 142.82 66.90 141.10 C 69.49 136.22 70.29 130.71 70.89 125.28 C 71.26 124.12 71.65 122.96 72.07 121.80 Z" />
</g>
<g id="#ba8fbfff">
<path fill="#ba8fbf" opacity="1.00" d=" M 127.25 128.27 C 127.78 126.65 128.33 125.04 128.82 123.41 C 130.20 129.90 132.38 136.22 135.16 142.25 L 134.45 142.69 L 133.46 142.00 C 130.06 139.32 125.82 138.15 121.67 137.25 C 123.19 136.59 124.67 135.87 126.16 135.15 C 125.58 133.40 125.00 131.65 124.43 129.91 C 125.37 129.36 126.31 128.81 127.25 128.27 Z" />
</g>
<g id="#150e14a3">
<path fill="#150e14" opacity="0.64" d=" M 51.49 132.52 C 53.16 131.77 54.87 131.14 56.62 130.62 C 58.64 131.08 60.65 131.74 62.34 132.99 C 58.39 131.61 54.20 131.91 50.31 133.37 C 50.61 133.16 51.20 132.73 51.49 132.52 Z" />
</g>
<g id="#3e7997ff">
<path fill="#3e7997" opacity="1.00" d=" M 67.02 134.59 C 67.10 135.12 67.26 136.19 67.34 136.72 C 67.21 138.18 67.07 139.64 66.90 141.10 C 66.18 142.21 65.45 143.31 64.71 144.41 C 64.53 144.07 64.17 143.40 63.99 143.07 C 64.73 141.00 65.53 138.96 65.97 136.80 C 66.23 136.25 66.76 135.14 67.02 134.59 Z" />
<path fill="#3e7997" opacity="1.00" d=" M 56.93 155.15 C 58.16 153.47 60.43 153.26 62.33 153.51 L 62.45 153.53 C 63.54 155.03 64.44 156.64 65.36 158.24 C 62.92 156.64 60.00 157.33 57.67 158.73 C 57.34 158.92 56.69 159.30 56.36 159.49 C 56.60 162.93 57.54 166.59 55.96 169.86 C 55.57 171.54 53.53 171.00 52.37 170.69 C 51.76 166.89 52.18 163.02 51.84 159.19 C 52.93 157.98 54.02 156.76 55.14 155.59 C 55.21 155.86 55.35 156.40 55.42 156.67 C 55.80 156.29 56.55 155.53 56.93 155.15 Z" />
</g>
<g id="#0d171da2">
<path fill="#0d171d" opacity="0.64" d=" M 43.95 141.92 C 45.83 140.05 49.19 140.99 50.38 143.21 C 48.31 142.41 43.64 140.58 44.08 144.42 C 44.41 144.92 45.05 145.91 45.38 146.40 C 43.72 145.73 42.44 143.37 43.95 141.92 Z" />
</g>
<g id="#6aa6c6ff">
<path fill="#6aa6c6" opacity="1.00" d=" M 44.08 144.42 C 43.64 140.58 48.31 142.41 50.38 143.21 C 50.69 143.54 51.31 144.22 51.62 144.55 C 49.42 146.58 46.53 144.89 44.08 144.42 Z" />
</g>
<g id="#0d1b22aa">
<path fill="#0d1b22" opacity="0.67" d=" M 45.54 146.59 C 49.26 149.77 51.10 154.47 51.84 159.19 C 52.18 163.02 51.76 166.89 52.37 170.69 C 53.53 171.00 55.57 171.54 55.96 169.86 C 57.54 166.59 56.60 162.93 56.36 159.49 C 56.69 159.30 57.34 158.92 57.67 158.73 C 57.56 159.24 57.33 160.27 57.22 160.79 C 58.01 164.31 58.54 168.84 55.62 171.53 C 53.82 173.25 51.13 171.22 51.19 169.09 C 50.99 165.00 51.41 160.84 50.49 156.82 C 49.72 153.04 47.31 149.93 45.54 146.59 Z" />
</g>
<g id="#dcdde3ff">
<path fill="#dcdde3" opacity="1.00" d=" M 81.50 147.41 C 84.12 148.43 85.49 151.09 87.20 153.14 C 86.07 154.12 84.95 155.09 83.81 156.06 C 82.13 153.51 81.57 150.42 81.50 147.41 Z" />
</g>
<g id="#183542cd">
<path fill="#183542" opacity="0.80" d=" M 110.40 147.64 C 112.24 146.07 114.78 146.83 115.61 149.01 C 115.93 151.36 114.29 153.41 112.94 155.17 C 113.50 153.55 114.05 151.94 114.51 150.29 C 114.36 149.68 114.06 148.45 113.92 147.84 C 113.04 147.79 111.28 147.69 110.40 147.64 Z" />
</g>
<g id="#7cb7d4ff">
<path fill="#7cb7d4" opacity="1.00" d=" M 107.60 150.60 C 108.40 149.50 109.35 148.50 110.40 147.64 C 111.28 147.69 113.04 147.79 113.92 147.84 C 114.06 148.45 114.36 149.68 114.51 150.29 C 112.32 150.65 109.27 153.08 107.60 150.60 Z" />
</g>
<g id="#122933ad">
<path fill="#122933" opacity="0.68" d=" M 53.80 148.76 C 55.28 150.69 54.86 153.62 56.93 155.15 C 56.55 155.53 55.80 156.29 55.42 156.67 C 55.35 156.40 55.21 155.86 55.14 155.59 C 54.60 153.33 54.23 151.03 53.80 148.76 Z" />
</g>
<g id="#3f92b8ff">
<path fill="#3f92b8" opacity="1.00" d=" M 107.08 150.09 L 107.60 150.60 C 109.27 153.08 112.32 150.65 114.51 150.29 C 114.05 151.94 113.50 153.55 112.94 155.17 L 112.80 155.58 L 111.77 155.98 C 110.11 156.40 109.07 157.92 108.79 159.55 L 108.59 160.26 L 108.38 160.49 C 106.38 162.48 104.93 164.91 103.73 167.44 C 103.56 167.74 103.22 168.35 103.05 168.65 C 100.56 172.33 99.63 176.80 97.09 180.44 C 95.03 175.17 98.01 170.09 99.01 164.99 C 100.05 162.33 97.58 160.24 95.50 159.12 C 96.30 157.92 97.06 156.70 97.84 155.49 C 98.89 156.30 99.93 157.13 100.97 157.97 C 100.93 158.58 100.84 159.82 100.80 160.43 C 102.36 157.98 103.77 155.44 105.20 152.91 C 105.79 151.95 106.45 151.03 107.08 150.09 Z" />
</g>
<g id="#193a4acc">
<path fill="#193a4a" opacity="0.80" d=" M 108.79 159.55 C 109.07 157.92 110.11 156.40 111.77 155.98 C 112.42 157.47 110.41 160.11 108.79 159.55 Z" />
</g>
<g id="#1a4759f5">
<path fill="#1a4759" opacity="0.96" d=" M 65.36 158.24 C 65.38 158.28 65.42 158.34 65.45 158.38 C 65.42 158.34 65.38 158.28 65.36 158.24 Z" />
</g>
<g id="#0c191fa5">
<path fill="#0c191f" opacity="0.65" d=" M 66.59 160.00 C 72.81 165.42 81.64 166.16 89.31 163.83 C 86.16 166.40 81.76 166.23 77.94 165.94 C 73.73 165.19 69.01 163.83 66.59 160.00 Z" />
</g>
<g id="#0e212ab8">
<path fill="#0e212a" opacity="0.72" d=" M 103.73 167.44 C 104.93 164.91 106.38 162.48 108.38 160.49 C 107.37 163.12 105.87 165.57 103.73 167.44 Z" />
</g>
</svg>
