<?xml version="1.0" encoding="UTF-8" ?>
<!DOCTYPE svg PUBLIC "-//W3C//DTD SVG 1.1//EN" "http://www.w3.org/Graphics/SVG/1.1/DTD/svg11.dtd">
<svg width="215pt" height="215pt" viewBox="0 0 215 215" version="1.1" xmlns="http://www.w3.org/2000/svg">
<g id="#050305af">
<path fill="#050305" opacity="0.69" d=" M 107.92 38.81 C 111.68 37.41 115.93 36.09 119.85 37.64 C 124.21 40.13 129.57 41.72 132.06 46.49 L 131.00 45.75 C 129.04 44.14 127.00 42.63 124.90 41.20 L 124.53 41.46 C 118.16 37.38 109.70 38.96 103.12 41.82 C 101.38 42.87 99.89 44.26 98.46 45.69 C 102.70 46.73 105.78 49.76 109.06 52.40 C 109.61 52.40 110.70 52.39 111.25 52.39 L 110.48 52.79 C 109.92 53.09 108.80 53.69 108.24 53.98 C 107.51 54.31 106.77 54.63 106.03 54.93 C 106.49 54.08 106.89 53.19 107.22 52.28 C 105.59 50.30 103.43 48.87 101.20 47.67 C 93.32 44.80 84.79 47.02 77.83 51.16 C 82.51 46.08 90.43 45.34 97.02 45.65 C 100.02 42.53 103.66 39.88 107.92 38.81 Z" />
<path fill="#050305" opacity="0.69" d=" M 28.78 84.71 C 31.50 81.16 33.58 76.64 37.78 74.63 C 35.82 77.02 33.72 79.29 31.87 81.77 C 25.48 90.21 21.65 101.09 23.29 111.72 C 24.11 117.31 29.34 123.10 35.43 121.16 C 36.49 120.79 37.54 120.42 38.60 120.03 C 36.64 122.11 33.59 123.43 30.82 122.21 C 24.00 120.29 21.67 112.32 21.96 105.99 C 22.58 98.53 24.21 90.82 28.78 84.71 Z" />
<path fill="#050305" opacity="0.69" d=" M 89.14 152.86 C 90.73 153.38 92.33 153.86 93.92 154.38 C 106.64 159.02 121.04 158.17 133.45 152.93 C 131.69 154.74 129.20 155.41 126.92 156.33 C 127.40 157.45 127.88 158.58 128.36 159.70 C 134.85 162.22 141.65 163.78 148.29 165.83 C 151.04 166.88 154.35 168.89 154.46 172.18 C 154.63 174.65 152.26 176.05 150.85 177.72 C 148.96 177.91 146.96 178.26 145.19 177.33 C 141.70 175.69 137.84 174.98 134.51 173.00 L 135.97 173.16 L 137.19 173.49 C 138.94 173.98 140.68 174.53 142.44 174.99 C 146.10 175.90 151.32 177.09 153.63 173.08 C 153.62 169.34 149.61 167.72 146.79 166.30 C 144.66 165.59 142.50 165.00 140.33 164.43 C 137.74 163.77 135.14 163.16 132.60 162.37 C 129.29 161.78 127.10 159.45 125.66 156.56 C 125.31 156.71 124.59 157.00 124.24 157.15 C 123.58 158.29 123.25 159.59 122.69 160.79 C 122.58 159.65 122.43 158.52 122.27 157.39 C 113.19 159.29 103.79 158.03 94.87 155.88 C 96.99 158.27 93.66 159.82 93.35 157.18 C 93.52 156.57 93.85 155.34 94.02 154.73 C 93.26 154.61 91.74 154.37 90.98 154.25 C 90.44 156.04 90.12 158.03 88.66 159.35 C 88.99 157.86 89.39 156.38 89.83 154.92 C 89.66 154.40 89.31 153.38 89.14 152.86 Z" />
</g>
<g id="#aa6f61ff">
<path fill="#aa6f61" opacity="1.00" d=" M 103.12 41.82 C 109.70 38.96 118.16 37.38 124.53 41.46 C 123.38 42.27 122.22 43.08 121.07 43.90 C 121.61 44.40 122.70 45.39 123.25 45.89 C 118.51 48.43 112.73 49.23 107.62 47.39 C 105.12 46.56 104.07 44.04 103.12 41.82 M 114.26 41.18 C 113.23 42.54 115.65 43.86 116.62 42.79 C 117.61 41.45 115.22 40.08 114.26 41.18 Z" />
</g>
<g id="#ddc6c1ff">
<path fill="#ddc6c1" opacity="1.00" d=" M 114.26 41.18 C 115.22 40.08 117.61 41.45 116.62 42.79 C 115.65 43.86 113.23 42.54 114.26 41.18 Z" />
</g>
<g id="#874f44ff">
<path fill="#874f44" opacity="1.00" d=" M 98.46 45.69 C 99.89 44.26 101.38 42.87 103.12 41.82 C 104.07 44.04 105.12 46.56 107.62 47.39 C 112.73 49.23 118.51 48.43 123.25 45.89 C 124.26 46.26 125.32 46.60 126.41 46.37 C 126.44 44.53 125.48 42.89 124.90 41.20 C 127.00 42.63 129.04 44.14 131.00 45.75 C 131.10 46.28 131.29 47.32 131.39 47.84 C 127.12 48.34 123.29 50.33 120.10 53.15 C 117.23 52.42 114.12 50.77 111.25 52.39 C 110.70 52.39 109.61 52.40 109.06 52.40 C 105.78 49.76 102.70 46.73 98.46 45.69 Z" />
</g>
<g id="#e5d6d2ff">
<path fill="#e5d6d2" opacity="1.00" d=" M 121.07 43.90 C 122.22 43.08 123.38 42.27 124.53 41.46 L 124.90 41.20 C 125.48 42.89 126.44 44.53 126.41 46.37 C 125.32 46.60 124.26 46.26 123.25 45.89 C 122.70 45.39 121.61 44.40 121.07 43.90 Z" />
<path fill="#e5d6d2" opacity="1.00" d=" M 129.52 60.04 C 129.19 57.83 132.72 57.19 132.42 59.73 C 131.55 61.05 130.58 61.16 129.52 60.04 Z" />
<path fill="#e5d6d2" opacity="1.00" d=" M 105.59 72.14 C 107.94 73.01 110.50 73.99 111.17 76.70 C 108.98 77.41 106.96 76.87 105.21 75.48 C 105.30 74.64 105.49 72.97 105.59 72.14 Z" />
<path fill="#e5d6d2" opacity="1.00" d=" M 118.71 78.23 C 119.37 77.15 120.42 76.45 121.54 75.92 C 121.57 77.30 121.60 78.69 121.63 80.07 C 121.25 79.84 120.49 79.37 120.11 79.13 C 119.76 78.91 119.06 78.45 118.71 78.23 Z" />
<path fill="#e5d6d2" opacity="1.00" d=" M 90.07 122.83 C 95.19 119.76 101.53 122.19 107.05 120.51 C 107.18 121.09 107.45 122.24 107.58 122.81 C 101.75 122.35 95.89 122.18 90.07 122.83 Z" />
</g>
<g id="#091116f8">
<path fill="#091116" opacity="0.97" d=" M 183.32 43.00 C 185.74 43.66 186.91 46.02 188.04 48.04 L 186.17 46.71 C 188.24 53.61 185.30 61.06 180.99 66.47 C 180.96 64.44 182.75 63.04 183.38 61.21 C 184.50 58.23 185.70 55.22 186.12 52.05 C 186.43 48.77 184.73 45.82 183.32 43.00 Z" />
<path fill="#091116" opacity="0.97" d=" M 131.00 45.75 L 132.06 46.49 C 134.45 48.29 137.67 47.81 140.41 48.68 L 139.40 48.94 C 132.95 47.84 125.71 49.03 120.97 53.86 C 122.44 56.01 123.84 58.21 125.59 60.15 C 130.55 64.46 135.27 70.09 134.73 77.12 C 134.79 82.43 132.46 87.27 130.79 92.19 C 134.10 92.59 137.54 92.88 140.76 91.79 C 144.23 90.85 146.76 87.96 150.21 86.97 L 150.99 87.07 C 146.38 90.96 140.68 93.31 134.65 93.69 C 138.93 96.37 143.55 98.52 147.44 101.79 C 148.00 102.24 149.14 103.12 149.71 103.56 C 153.08 106.35 156.70 109.05 159.09 112.79 C 155.30 111.26 153.38 106.78 149.61 104.92 C 149.99 107.44 151.09 109.96 150.60 112.55 C 149.86 109.99 149.16 107.43 148.40 104.88 C 143.83 98.89 136.45 96.20 130.19 92.41 C 126.97 95.56 123.38 98.39 119.22 100.17 C 113.11 101.01 106.82 100.07 101.18 97.63 C 99.25 96.92 97.32 95.63 95.19 96.18 C 89.61 97.19 84.25 99.19 79.15 101.65 C 75.20 103.59 73.94 108.10 72.29 111.83 C 72.24 109.27 74.65 106.87 73.30 104.37 L 74.13 103.61 C 78.60 100.63 83.64 98.60 88.65 96.72 C 91.00 96.05 93.42 95.69 95.84 95.34 C 93.89 93.36 92.14 90.53 88.98 90.68 C 83.33 90.17 78.28 87.22 74.16 83.45 C 72.36 84.45 70.55 85.44 68.75 86.46 C 64.93 88.47 61.59 91.25 58.61 94.37 C 59.88 91.15 62.97 89.31 65.27 86.90 C 56.67 84.92 48.35 88.30 40.36 90.95 C 41.79 90.06 43.27 89.26 44.84 88.63 C 45.88 88.25 46.93 87.89 47.99 87.55 C 54.06 85.43 60.58 85.09 66.90 86.15 C 69.23 84.87 71.58 83.64 73.97 82.47 C 69.29 76.38 68.47 68.12 70.40 60.85 C 62.85 61.76 55.24 63.42 48.52 67.11 C 48.03 67.39 47.06 67.95 46.57 68.23 C 45.36 68.92 44.16 69.62 42.97 70.34 L 42.63 69.28 C 51.13 64.00 60.81 60.64 70.82 60.03 C 72.73 57.10 73.95 52.66 77.52 51.48 C 75.08 54.66 72.41 57.86 71.38 61.82 C 69.08 69.07 70.73 77.32 75.79 83.02 C 79.31 87.66 85.38 88.80 90.72 89.96 C 87.74 82.03 87.85 72.16 93.61 65.49 C 96.89 61.00 102.37 59.04 106.03 54.93 C 105.87 55.43 105.54 56.43 105.37 56.92 C 111.25 55.72 117.32 56.16 122.99 58.11 C 121.74 56.57 120.43 55.04 118.80 53.88 C 116.14 52.93 113.30 52.43 110.48 52.79 L 111.25 52.39 C 114.12 50.77 117.23 52.42 120.10 53.15 C 123.29 50.33 127.12 48.34 131.39 47.84 C 131.29 47.32 131.10 46.28 131.00 45.75 M 94.44 66.12 L 94.07 66.07 C 92.06 69.09 90.09 72.55 90.36 76.30 L 89.69 76.07 C 89.45 80.86 89.74 86.09 92.84 90.00 C 96.83 95.49 103.46 98.31 109.99 99.30 C 117.52 100.52 125.57 97.02 129.80 90.68 C 131.41 88.34 133.32 85.64 133.06 82.69 C 134.25 77.27 133.62 71.26 130.46 66.60 C 126.36 61.85 121.03 57.34 114.43 57.26 C 106.79 56.34 99.15 60.24 94.44 66.12 Z" />
<path fill="#091116" opacity="0.97" d=" M 188.04 48.04 C 190.78 50.64 191.75 54.52 192.57 58.08 C 193.25 65.20 192.89 73.10 188.77 79.21 C 189.21 77.85 189.69 76.50 190.16 75.15 C 193.42 66.32 192.36 56.32 188.04 48.04 Z" />
<path fill="#091116" opacity="0.97" d=" M 98.40 105.76 C 98.64 105.81 99.11 105.90 99.34 105.95 L 98.30 106.88 C 93.54 112.70 85.30 113.08 78.43 111.95 C 82.51 111.31 86.73 111.87 90.74 110.79 C 93.49 110.08 95.54 108.02 97.54 106.13 C 97.75 106.04 98.18 105.86 98.40 105.76 Z" />
<path fill="#091116" opacity="0.97" d=" M 116.52 106.08 C 117.43 106.97 118.41 107.78 119.33 108.65 C 123.63 113.53 130.37 115.01 136.55 115.75 C 134.29 117.03 131.68 116.09 129.36 115.54 C 124.84 114.14 120.04 112.16 117.41 107.99 L 116.52 106.08 Z" />
<path fill="#091116" opacity="0.97" d=" M 32.87 115.63 C 36.31 116.26 39.28 114.52 41.60 112.16 C 41.39 114.50 40.72 116.76 39.68 118.87 L 39.10 118.57 C 39.38 117.79 39.96 116.23 40.24 115.45 C 37.84 116.09 35.23 116.89 32.87 115.63 Z" />
<path fill="#091116" opacity="0.97" d=" M 70.30 131.16 C 69.70 124.95 69.51 118.15 72.14 112.37 C 71.19 117.47 70.60 122.66 70.79 127.85 C 70.99 132.53 72.32 137.12 74.80 141.11 C 73.38 141.36 73.24 142.87 72.66 143.89 C 71.04 147.79 67.63 151.55 63.06 151.42 C 59.91 151.88 55.73 150.53 55.37 146.89 C 54.96 144.93 56.57 143.50 58.19 142.79 C 56.83 144.77 55.26 147.50 57.51 149.51 C 61.85 152.65 67.75 149.91 70.47 145.87 C 71.48 143.99 72.75 142.05 72.81 139.85 C 72.47 137.37 71.41 135.07 70.63 132.71 C 69.26 133.93 67.88 135.15 66.45 136.32 C 67.64 134.52 68.95 132.82 70.30 131.16 Z" />
<path fill="#091116" opacity="0.97" d=" M 150.78 113.52 C 153.87 120.49 152.05 128.71 150.63 136.01 C 155.80 138.58 162.41 139.02 166.12 143.92 C 168.69 147.70 165.07 152.75 160.96 153.14 C 154.52 154.01 148.55 150.03 144.69 145.20 C 141.72 148.04 138.57 150.97 134.56 152.21 C 137.62 149.62 140.99 147.37 143.74 144.43 C 142.65 142.42 141.69 140.34 141.03 138.15 C 143.56 140.96 144.87 144.72 147.89 147.12 C 152.25 151.24 159.02 153.31 164.66 150.64 C 165.85 148.84 167.34 146.44 165.45 144.51 C 161.57 139.82 154.88 139.33 149.76 136.53 C 148.30 135.44 147.01 134.16 145.74 132.87 C 147.12 133.49 148.48 134.15 149.85 134.80 C 151.66 127.84 152.00 120.62 150.78 113.52 Z" />
<path fill="#091116" opacity="0.97" d=" M 92.17 117.53 C 100.28 115.97 108.76 115.86 116.86 117.60 C 121.28 119.03 128.91 120.61 127.71 126.82 C 127.47 129.65 124.11 130.16 121.86 129.78 C 121.84 129.59 121.80 129.20 121.78 129.00 C 123.93 128.66 126.33 128.12 127.31 125.90 C 126.90 123.77 125.31 122.19 123.72 120.86 C 119.45 118.76 114.69 118.11 110.02 117.65 C 103.45 117.19 96.74 117.22 90.33 118.92 C 87.73 119.91 85.81 121.98 84.07 124.07 C 85.53 125.26 86.79 127.38 88.93 127.23 C 96.84 126.11 105.01 125.57 112.88 127.22 C 112.98 127.58 113.19 128.28 113.29 128.64 C 112.04 128.31 110.80 127.96 109.54 127.68 C 102.69 126.59 95.77 127.43 88.94 128.18 C 86.62 127.96 82.65 125.98 84.16 123.15 C 85.34 119.77 88.86 118.11 92.17 117.53 Z" />
<path fill="#091116" opacity="0.97" d=" M 163.58 118.42 C 167.37 123.22 170.42 128.77 171.36 134.89 C 171.51 135.74 171.82 137.44 171.97 138.29 C 173.54 136.28 174.76 134.04 175.59 131.64 L 175.97 132.34 C 175.31 135.45 173.18 137.91 171.35 140.40 C 170.82 134.86 169.41 129.31 166.53 124.50 C 165.35 122.58 164.19 120.61 163.58 118.42 Z" />
<path fill="#091116" opacity="0.97" d=" M 93.10 120.43 C 102.05 120.29 111.18 119.57 119.81 122.60 C 120.51 122.85 121.21 123.11 121.91 123.37 L 121.40 123.84 C 119.57 123.43 117.77 122.94 115.94 122.56 C 113.37 122.06 110.78 121.65 108.18 121.35 C 108.37 121.92 108.45 122.56 108.82 123.06 L 109.29 123.81 C 102.42 122.21 95.43 123.76 88.52 123.14 C 89.97 122.13 91.48 121.18 93.10 120.43 M 90.07 122.83 C 95.89 122.18 101.75 122.35 107.58 122.81 C 107.45 122.24 107.18 121.09 107.05 120.51 C 101.53 122.19 95.19 119.76 90.07 122.83 Z" />
<path fill="#091116" opacity="0.97" d=" M 66.13 168.02 C 69.71 166.02 73.83 164.58 77.97 164.56 C 76.32 165.14 74.67 165.70 73.00 166.22 C 69.93 166.98 66.81 168.10 64.88 170.79 C 65.20 172.33 65.63 174.10 67.26 174.76 C 71.81 176.58 76.68 174.71 81.01 173.13 C 83.06 172.37 85.13 171.66 87.19 170.94 C 84.01 173.49 79.93 174.44 76.09 175.53 C 72.79 176.52 69.13 176.51 65.98 174.99 C 63.73 173.22 63.38 169.53 66.13 168.02 Z" />
</g>
<g id="#ab7061ff">
<path fill="#ab7061" opacity="1.00" d=" M 77.83 51.16 C 84.79 47.02 93.32 44.80 101.20 47.67 C 97.65 50.55 96.65 55.31 93.43 58.46 C 90.81 61.08 87.79 63.66 84.03 64.32 C 80.10 65.09 76.06 64.74 72.15 64.11 C 71.96 63.54 71.57 62.39 71.38 61.82 C 72.41 57.86 75.08 54.66 77.52 51.48 C 77.60 51.40 77.75 51.24 77.83 51.16 M 80.41 52.25 C 79.25 53.62 81.66 55.03 82.51 53.60 C 83.69 52.22 81.25 50.82 80.41 52.25 M 86.18 53.89 C 84.60 55.58 83.75 57.68 84.19 60.01 C 86.42 60.22 87.98 58.71 88.78 56.77 C 89.19 55.03 87.24 54.67 86.18 53.89 M 74.53 56.65 C 74.54 58.11 74.74 59.53 75.12 60.93 C 77.33 61.02 78.80 58.79 78.42 56.73 C 77.23 55.91 75.81 56.51 74.53 56.65 Z" />
</g>
<g id="#8e5448ff">
<path fill="#8e5448" opacity="1.00" d=" M 101.20 47.67 C 103.43 48.87 105.59 50.30 107.22 52.28 C 106.89 53.19 106.49 54.08 106.03 54.93 C 102.37 59.04 96.89 61.00 93.61 65.49 C 87.85 72.16 87.74 82.03 90.72 89.96 C 85.38 88.80 79.31 87.66 75.79 83.02 C 70.73 77.32 69.08 69.07 71.38 61.82 C 71.57 62.39 71.96 63.54 72.15 64.11 C 76.06 64.74 80.10 65.09 84.03 64.32 C 87.79 63.66 90.81 61.08 93.43 58.46 C 96.65 55.31 97.65 50.55 101.20 47.67 Z" />
</g>
<g id="#e6a78eff">
<path fill="#e6a78e" opacity="1.00" d=" M 186.17 46.71 L 188.04 48.04 L 188.04 48.04 C 192.36 56.32 193.42 66.32 190.16 75.15 C 187.71 74.29 185.41 73.06 183.51 71.28 C 183.57 70.54 183.68 69.06 183.74 68.33 C 181.67 69.40 179.51 70.29 177.32 71.08 C 178.35 69.85 179.34 68.58 180.32 67.30 C 180.42 67.18 180.62 66.92 180.72 66.79 L 180.99 66.47 C 185.30 61.06 188.24 53.61 186.17 46.71 Z" />
<path fill="#e6a78e" opacity="1.00" d=" M 108.24 53.98 C 108.80 53.69 109.92 53.09 110.48 52.79 C 113.30 52.43 116.14 52.93 118.80 53.88 C 115.64 56.33 111.58 55.65 108.24 53.98 Z" />
</g>
<g id="#a66d60ff">
<path fill="#a66d60" opacity="1.00" d=" M 120.97 53.86 C 125.71 49.03 132.95 47.84 139.40 48.94 C 139.90 49.09 140.89 49.41 141.39 49.57 C 138.74 53.28 135.45 56.37 132.42 59.73 C 132.72 57.19 129.19 57.83 129.52 60.04 C 129.18 59.71 128.49 59.04 128.15 58.70 C 127.51 59.06 126.23 59.79 125.59 60.15 C 123.84 58.21 122.44 56.01 120.97 53.86 M 132.72 52.73 C 132.66 53.17 132.54 54.06 132.48 54.51 C 133.00 54.48 134.03 54.43 134.55 54.40 C 134.56 53.87 134.58 52.82 134.59 52.30 C 134.12 52.40 133.19 52.62 132.72 52.73 Z" />
<path fill="#a66d60" opacity="1.00" d=" M 94.44 66.12 C 99.15 60.24 106.79 56.34 114.43 57.26 C 121.03 57.34 126.36 61.85 130.46 66.60 C 128.35 70.43 126.00 74.51 121.54 75.92 C 120.42 76.45 119.37 77.15 118.71 78.23 C 116.54 76.60 113.77 76.47 111.17 76.70 C 110.50 73.99 107.94 73.01 105.59 72.14 C 105.49 72.97 105.30 74.64 105.21 75.48 C 103.37 75.43 101.40 75.31 100.00 73.95 C 97.46 72.34 97.47 69.07 96.86 66.45 C 96.05 66.34 95.25 66.23 94.44 66.12 M 101.28 66.61 C 103.56 67.30 105.88 66.88 108.11 66.25 C 108.69 66.34 109.84 66.53 110.42 66.62 L 110.65 66.65 L 112.20 66.73 C 111.59 65.98 110.99 65.24 110.39 64.49 C 110.48 62.90 110.61 60.78 108.58 60.38 C 105.11 59.75 100.70 62.80 101.28 66.61 M 115.04 67.95 C 116.86 69.02 118.60 71.48 120.88 70.00 C 121.09 68.11 120.68 65.93 118.57 65.38 C 116.68 64.22 115.37 66.38 115.04 67.95 Z" />
</g>
<g id="#95594bff">
<path fill="#95594b" opacity="1.00" d=" M 141.39 49.57 L 142.12 48.94 L 142.85 50.20 C 143.37 51.38 144.61 52.14 145.89 52.15 C 146.12 52.18 146.57 52.23 146.80 52.26 C 148.41 54.40 150.10 56.48 151.84 58.51 C 149.82 58.07 148.08 56.96 146.45 55.74 C 145.84 55.76 144.63 55.78 144.03 55.80 C 142.91 55.26 141.76 54.74 140.65 54.20 C 140.00 55.40 139.36 56.60 138.74 57.81 C 140.95 58.12 143.18 58.27 145.41 58.17 C 147.64 61.42 145.90 65.55 144.88 68.93 C 143.11 73.52 136.74 72.63 134.73 77.12 C 135.27 70.09 130.55 64.46 125.59 60.15 C 126.23 59.79 127.51 59.06 128.15 58.70 C 128.49 59.04 129.18 59.71 129.52 60.04 C 130.58 61.16 131.55 61.05 132.42 59.73 C 135.45 56.37 138.74 53.28 141.39 49.57 M 136.40 62.17 C 134.83 65.55 139.06 68.98 141.79 66.10 C 140.27 64.43 138.40 63.17 136.40 62.17 Z" />
</g>
<g id="#150c0bc7">
<path fill="#150c0b" opacity="0.78" d=" M 142.85 50.20 C 144.26 49.72 145.32 50.17 146.04 51.58 L 145.89 52.15 C 144.61 52.14 143.37 51.38 142.85 50.20 Z" />
</g>
<g id="#cfb0a8ff">
<path fill="#cfb0a8" opacity="1.00" d=" M 80.41 52.25 C 81.25 50.82 83.69 52.22 82.51 53.60 C 81.66 55.03 79.25 53.62 80.41 52.25 Z" />
</g>
<g id="#feffffff">
<path fill="#feffff" opacity="1.00" d=" M 132.72 52.73 C 133.19 52.62 134.12 52.40 134.59 52.30 C 134.58 52.82 134.56 53.87 134.55 54.40 C 134.03 54.43 133.00 54.48 132.48 54.51 C 132.54 54.06 132.66 53.17 132.72 52.73 Z" />
<path fill="#feffff" opacity="1.00" d=" M 108.82 123.06 C 108.45 122.56 108.37 121.92 108.18 121.35 C 110.78 121.65 113.37 122.06 115.94 122.56 C 116.55 124.18 117.15 125.79 117.76 127.41 C 118.89 126.30 120.03 125.19 121.15 124.08 C 121.36 125.72 121.57 127.36 121.78 129.00 C 121.80 129.20 121.84 129.59 121.86 129.78 C 121.67 130.87 121.46 131.96 121.24 133.05 C 120.35 133.59 119.45 134.12 118.56 134.66 C 118.55 137.52 118.57 140.38 118.32 143.23 C 117.48 144.20 116.63 145.84 115.04 145.31 C 113.88 144.52 113.57 143.16 113.44 141.87 C 113.69 137.46 113.63 133.04 113.29 128.64 C 113.19 128.28 112.98 127.58 112.88 127.22 C 112.38 125.72 111.65 124.32 110.79 123.00 L 108.82 123.06 Z" />
</g>
<g id="#201210d4">
<path fill="#201210" opacity="0.83" d=" M 146.80 52.26 C 149.86 53.65 152.15 56.35 153.29 59.48 C 152.93 59.24 152.20 58.75 151.84 58.51 C 150.10 56.48 148.41 54.40 146.80 52.26 Z" />
</g>
<g id="#e4d3ceff">
<path fill="#e4d3ce" opacity="1.00" d=" M 86.18 53.89 C 87.24 54.67 89.19 55.03 88.78 56.77 C 87.98 58.71 86.42 60.22 84.19 60.01 C 83.75 57.68 84.60 55.58 86.18 53.89 Z" />
<path fill="#e4d3ce" opacity="1.00" d=" M 136.40 62.17 C 138.40 63.17 140.27 64.43 141.79 66.10 C 139.06 68.98 134.83 65.55 136.40 62.17 Z" />
<path fill="#e4d3ce" opacity="1.00" d=" M 115.04 67.95 C 115.37 66.38 116.68 64.22 118.57 65.38 C 120.68 65.93 121.09 68.11 120.88 70.00 C 118.60 71.48 116.86 69.02 115.04 67.95 Z" />
</g>
<g id="#d9714aff">
<path fill="#d9714a" opacity="1.00" d=" M 106.03 54.93 C 106.77 54.63 107.51 54.31 108.24 53.98 C 111.58 55.65 115.64 56.33 118.80 53.88 C 120.43 55.04 121.74 56.57 122.99 58.11 C 117.32 56.16 111.25 55.72 105.37 56.92 C 105.54 56.43 105.87 55.43 106.03 54.93 Z" />
<path fill="#d9714a" opacity="1.00" d=" M 23.29 111.72 C 21.65 101.09 25.48 90.21 31.87 81.77 C 33.20 85.33 29.73 88.06 28.75 91.24 C 30.07 90.92 31.39 90.61 32.71 90.28 C 32.29 91.48 31.90 92.69 31.54 93.91 C 31.80 94.47 32.33 95.61 32.59 96.18 C 31.84 98.31 29.45 100.10 28.14 102.13 L 27.61 102.81 C 24.57 106.18 23.56 111.62 26.43 115.42 C 28.01 119.05 32.10 119.89 35.43 121.16 C 29.34 123.10 24.11 117.31 23.29 111.72 Z" />
</g>
<g id="#e2d1cbff">
<path fill="#e2d1cb" opacity="1.00" d=" M 138.74 57.81 C 139.36 56.60 140.00 55.40 140.65 54.20 C 141.76 54.74 142.91 55.26 144.03 55.80 C 144.38 56.39 145.06 57.57 145.41 58.17 C 143.18 58.27 140.95 58.12 138.74 57.81 Z" />
</g>
<g id="#8b5146ff">
<path fill="#8b5146" opacity="1.00" d=" M 144.03 55.80 C 144.63 55.78 145.84 55.76 146.45 55.74 C 148.08 56.96 149.82 58.07 151.84 58.51 C 152.20 58.75 152.93 59.24 153.29 59.48 C 155.86 64.17 157.02 69.74 156.40 75.07 C 155.70 79.59 152.97 83.46 150.21 86.97 C 146.76 87.96 144.23 90.85 140.76 91.79 C 137.54 92.88 134.10 92.59 130.79 92.19 C 132.46 87.27 134.79 82.43 134.73 77.12 C 136.74 72.63 143.11 73.52 144.88 68.93 C 145.90 65.55 147.64 61.42 145.41 58.17 C 145.06 57.57 144.38 56.39 144.03 55.80 Z" />
</g>
<g id="#dfc9c4ff">
<path fill="#dfc9c4" opacity="1.00" d=" M 74.53 56.65 C 75.81 56.51 77.23 55.91 78.42 56.73 C 78.80 58.79 77.33 61.02 75.12 60.93 C 74.74 59.53 74.54 58.11 74.53 56.65 Z" />
</g>
<g id="#b18075ff">
<path fill="#b18075" opacity="1.00" d=" M 101.28 66.61 C 100.70 62.80 105.11 59.75 108.58 60.38 C 110.61 60.78 110.48 62.90 110.39 64.49 C 110.99 65.24 111.59 65.98 112.20 66.73 L 110.65 66.65 C 110.60 66.58 110.50 66.45 110.45 66.38 L 110.42 66.62 C 109.84 66.53 108.69 66.34 108.11 66.25 C 105.88 66.88 103.56 67.30 101.28 66.61 Z" />
</g>
<g id="#bb6546ff">
<path fill="#bb6546" opacity="1.00" d=" M 48.52 67.11 C 55.24 63.42 62.85 61.76 70.40 60.85 C 68.47 68.12 69.29 76.38 73.97 82.47 C 71.58 83.64 69.23 84.87 66.90 86.15 C 60.58 85.09 54.06 85.43 47.99 87.55 C 46.93 85.48 45.65 83.39 45.60 81.00 C 45.11 76.13 47.68 71.77 48.52 67.11 Z" />
<path fill="#bb6546" opacity="1.00" d=" M 150.99 87.07 L 151.72 86.97 C 154.77 88.62 158.36 89.23 161.20 91.37 C 157.18 95.56 152.11 98.43 147.44 101.79 C 143.55 98.52 138.93 96.37 134.65 93.69 C 140.68 93.31 146.38 90.96 150.99 87.07 Z" />
</g>
<g id="#90584aff">
<path fill="#90584a" opacity="1.00" d=" M 94.07 66.07 L 94.44 66.12 C 95.25 66.23 96.05 66.34 96.86 66.45 C 97.47 69.07 97.46 72.34 100.00 73.95 C 101.40 75.31 103.37 75.43 105.21 75.48 C 106.96 76.87 108.98 77.41 111.17 76.70 C 113.77 76.47 116.54 76.60 118.71 78.23 C 119.06 78.45 119.76 78.91 120.11 79.13 C 119.85 80.08 119.60 81.02 119.35 81.97 C 114.96 82.05 110.57 81.74 106.18 82.11 C 103.86 82.43 102.15 80.63 100.81 79.00 C 98.79 76.53 95.97 74.95 93.30 73.28 C 92.61 74.39 91.93 75.50 91.19 76.59 L 90.36 76.30 C 90.09 72.55 92.06 69.09 94.07 66.07 Z" />
</g>
<g id="#dfc9c3ff">
<path fill="#dfc9c3" opacity="1.00" d=" M 110.45 66.38 C 110.50 66.45 110.60 66.58 110.65 66.65 L 110.42 66.62 L 110.45 66.38 Z" />
</g>
<g id="#92584bff">
<path fill="#92584b" opacity="1.00" d=" M 130.46 66.60 C 133.62 71.26 134.25 77.27 133.06 82.69 C 132.38 80.67 131.86 78.61 131.52 76.51 C 129.34 78.53 126.90 80.23 124.33 81.72 C 123.43 81.17 122.53 80.62 121.63 80.07 C 121.60 78.69 121.57 77.30 121.54 75.92 C 126.00 74.51 128.35 70.43 130.46 66.60 Z" />
</g>
<g id="#d9805eff">
<path fill="#d9805e" opacity="1.00" d=" M 46.57 68.23 C 47.06 67.95 48.03 67.39 48.52 67.11 C 47.68 71.77 45.11 76.13 45.60 81.00 C 45.65 83.39 46.93 85.48 47.99 87.55 C 46.93 87.89 45.88 88.25 44.84 88.63 C 40.94 82.16 43.71 74.50 46.57 68.23 Z" />
</g>
<g id="#33211bd1">
<path fill="#33211b" opacity="0.82" d=" M 172.02 74.25 C 174.53 71.68 177.18 69.04 180.32 67.30 C 179.34 68.58 178.35 69.85 177.32 71.08 C 176.39 71.80 175.46 72.53 174.52 73.24 C 173.69 73.58 172.86 73.92 172.02 74.25 Z" />
</g>
<g id="#d87d5dff">
<path fill="#d87d5d" opacity="1.00" d=" M 177.32 71.08 C 179.51 70.29 181.67 69.40 183.74 68.33 C 183.68 69.06 183.57 70.54 183.51 71.28 C 185.41 73.06 187.71 74.29 190.16 75.15 C 189.69 76.50 189.21 77.85 188.77 79.21 L 188.07 78.92 C 183.48 77.20 178.81 75.65 174.52 73.24 C 175.46 72.53 176.39 71.80 177.32 71.08 Z" />
</g>
<g id="#e4a48dff">
<path fill="#e4a48d" opacity="1.00" d=" M 42.97 70.34 C 44.16 69.62 45.36 68.92 46.57 68.23 C 43.71 74.50 40.94 82.16 44.84 88.63 C 43.27 89.26 41.79 90.06 40.36 90.95 C 37.67 92.55 35.06 94.26 32.59 96.18 C 32.33 95.61 31.80 94.47 31.54 93.91 C 31.90 92.69 32.29 91.48 32.71 90.28 C 31.39 90.61 30.07 90.92 28.75 91.24 C 29.73 88.06 33.20 85.33 31.87 81.77 C 33.72 79.29 35.82 77.02 37.78 74.63 L 38.23 74.20 C 38.26 74.18 38.30 74.14 38.33 74.12 C 38.71 73.87 39.48 73.36 39.86 73.10 C 40.87 72.66 41.63 71.96 42.16 71.00 C 42.36 70.83 42.77 70.51 42.97 70.34 Z" />
</g>
<g id="#382822d3">
<path fill="#382822" opacity="0.83" d=" M 39.86 73.10 C 39.62 71.35 40.39 70.65 42.16 71.00 C 41.63 71.96 40.87 72.66 39.86 73.10 Z" />
</g>
<g id="#895046ff">
<path fill="#895046" opacity="1.00" d=" M 93.30 73.28 C 95.97 74.95 98.79 76.53 100.81 79.00 C 102.15 80.63 103.86 82.43 106.18 82.11 C 110.57 81.74 114.96 82.05 119.35 81.97 C 119.60 81.02 119.85 80.08 120.11 79.13 C 120.49 79.37 121.25 79.84 121.63 80.07 C 122.53 80.62 123.43 81.17 124.33 81.72 C 126.90 80.23 129.34 78.53 131.52 76.51 C 131.86 78.61 132.38 80.67 133.06 82.69 C 133.32 85.64 131.41 88.34 129.80 90.68 C 125.57 97.02 117.52 100.52 109.99 99.30 C 103.46 98.31 96.83 95.49 92.84 90.00 C 89.74 86.09 89.45 80.86 89.69 76.07 L 90.36 76.30 L 91.19 76.59 C 91.93 75.50 92.61 74.39 93.30 73.28 Z" />
</g>
<g id="#c06846ff">
<path fill="#c06846" opacity="1.00" d=" M 172.02 74.25 C 172.86 73.92 173.69 73.58 174.52 73.24 C 178.81 75.65 183.48 77.20 188.07 78.92 L 188.95 79.69 L 188.19 80.49 C 184.42 85.05 180.66 89.59 176.27 93.60 C 176.13 93.65 175.86 93.75 175.72 93.80 C 175.31 94.13 174.50 94.81 174.09 95.14 C 173.80 95.26 173.23 95.50 172.94 95.62 C 171.71 96.02 170.47 96.39 169.23 96.77 C 164.65 91.68 158.80 87.48 151.95 86.23 C 152.70 83.11 155.01 80.60 156.45 77.75 C 161.86 78.01 167.05 76.17 172.02 74.25 Z" />
<path fill="#c06846" opacity="1.00" d=" M 68.75 86.46 C 70.55 85.44 72.36 84.45 74.16 83.45 C 78.28 87.22 83.33 90.17 88.98 90.68 C 92.14 90.53 93.89 93.36 95.84 95.34 C 93.42 95.69 91.00 96.05 88.65 96.72 C 81.55 94.24 75.00 90.59 68.75 86.46 Z" />
</g>
<g id="#936a5bff">
<path fill="#936a5b" opacity="1.00" d=" M 38.23 74.20 C 38.26 74.18 38.30 74.14 38.33 74.12 C 38.30 74.14 38.26 74.18 38.23 74.20 Z" />
</g>
<g id="#28150fd6">
<path fill="#28150f" opacity="0.84" d=" M 176.27 93.60 C 180.66 89.59 184.42 85.05 188.19 80.49 C 186.19 86.14 181.54 90.89 176.27 93.60 Z" />
</g>
<g id="#3e2319e3">
<path fill="#3e2319" opacity="0.89" d=" M 151.95 86.23 C 158.80 87.48 164.65 91.68 169.23 96.77 C 170.47 96.39 171.71 96.02 172.94 95.62 C 172.24 96.72 169.74 97.36 170.55 98.91 C 173.36 103.13 175.93 107.70 176.48 112.84 C 175.10 109.98 173.78 107.10 172.49 104.20 C 170.62 100.07 167.59 96.59 164.23 93.59 C 163.25 92.81 162.23 92.07 161.20 91.37 C 158.36 89.23 154.77 88.62 151.72 86.97 L 151.95 86.23 Z" />
</g>
<g id="#d87148ff">
<path fill="#d87148" opacity="1.00" d=" M 58.61 94.37 C 61.59 91.25 64.93 88.47 68.75 86.46 C 75.00 90.59 81.55 94.24 88.65 96.72 C 83.64 98.60 78.60 100.63 74.13 103.61 C 68.39 101.59 62.33 100.23 57.32 96.57 C 57.59 96.09 58.14 95.13 58.41 94.65 C 58.46 94.58 58.56 94.44 58.61 94.37 Z" />
</g>
<g id="#d97e5eff">
<path fill="#d97e5e" opacity="1.00" d=" M 147.44 101.79 C 152.11 98.43 157.18 95.56 161.20 91.37 C 162.23 92.07 163.25 92.81 164.23 93.59 C 159.85 97.54 155.20 101.29 149.71 103.56 C 149.14 103.12 148.00 102.24 147.44 101.79 Z" />
</g>
<g id="#3a6488ff">
<path fill="#3a6488" opacity="1.00" d=" M 119.22 100.17 C 123.38 98.39 126.97 95.56 130.19 92.41 C 136.45 96.20 143.83 98.89 148.40 104.88 C 139.00 107.81 129.12 108.64 119.33 108.65 C 118.41 107.78 117.43 106.97 116.52 106.08 C 116.47 106.03 116.36 105.92 116.31 105.87 C 117.29 103.97 118.26 102.08 119.22 100.17 Z" />
</g>
<g id="#dea28dff">
<path fill="#dea28d" opacity="1.00" d=" M 149.71 103.56 C 155.20 101.29 159.85 97.54 164.23 93.59 C 167.59 96.59 170.62 100.07 172.49 104.20 C 171.74 104.38 171.00 104.55 170.26 104.73 C 169.90 107.21 169.87 109.72 170.22 112.21 C 168.92 111.37 167.63 110.54 166.33 109.72 C 166.41 111.80 166.50 113.87 166.58 115.95 C 164.97 114.81 163.35 113.67 161.75 112.53 C 161.27 112.65 160.33 112.90 159.86 113.02 L 159.09 112.79 C 156.70 109.05 153.08 106.35 149.71 103.56 Z" />
<path fill="#dea28d" opacity="1.00" d=" M 52.48 106.71 C 53.57 103.10 55.43 99.80 57.32 96.57 C 62.33 100.23 68.39 101.59 74.13 103.61 L 73.30 104.37 C 72.98 104.65 72.34 105.23 72.02 105.51 C 68.93 107.66 66.31 110.40 64.18 113.49 C 62.81 113.43 61.43 113.36 60.06 113.30 C 59.92 112.49 59.62 110.87 59.48 110.06 C 58.47 111.35 57.47 112.64 56.47 113.92 C 56.37 112.71 56.28 111.50 56.18 110.28 C 55.71 110.28 54.77 110.27 54.30 110.27 C 53.69 109.08 53.08 107.89 52.48 106.71 Z" />
</g>
<g id="#3d2218d4">
<path fill="#3d2218" opacity="0.83" d=" M 174.09 95.14 C 174.50 94.81 175.31 94.13 175.72 93.80 L 175.80 94.71 L 174.96 95.40 L 174.09 95.14 Z" />
</g>
<g id="#2a1913ca">
<path fill="#2a1913" opacity="0.79" d=" M 53.06 101.99 C 54.38 99.27 55.65 96.21 58.41 94.65 C 58.14 95.13 57.59 96.09 57.32 96.57 C 55.43 99.80 53.57 103.10 52.48 106.71 C 50.95 115.14 52.31 124.09 57.31 131.18 C 55.13 130.22 54.21 127.90 53.22 125.92 C 49.97 118.41 50.04 109.56 53.06 101.99 Z" />
</g>
<g id="#4c7393ff">
<path fill="#4c7393" opacity="1.00" d=" M 95.19 96.18 C 97.32 95.63 99.25 96.92 101.18 97.63 C 106.82 100.07 113.11 101.01 119.22 100.17 C 118.26 102.08 117.29 103.97 116.31 105.87 C 116.36 105.92 116.47 106.03 116.52 106.08 L 117.41 107.99 C 111.34 108.13 105.27 107.14 99.34 105.95 C 99.11 105.90 98.64 105.81 98.40 105.76 C 98.18 105.86 97.75 106.04 97.54 106.13 C 91.10 107.48 84.58 104.97 79.15 101.65 C 84.25 99.19 89.61 97.19 95.19 96.18 Z" />
</g>
<g id="#7d9db4ff">
<path fill="#7d9db4" opacity="1.00" d=" M 72.29 111.83 C 73.94 108.10 75.20 103.59 79.15 101.65 C 84.58 104.97 91.10 107.48 97.54 106.13 C 95.54 108.02 93.49 110.08 90.74 110.79 C 86.73 111.87 82.51 111.31 78.43 111.95 C 85.30 113.08 93.54 112.70 98.30 106.88 C 104.03 110.67 112.04 106.67 117.32 111.59 C 116.70 112.61 116.11 113.65 115.50 114.67 C 116.19 115.26 116.89 115.85 117.57 116.45 C 117.39 116.74 117.04 117.31 116.86 117.60 C 108.76 115.86 100.28 115.97 92.17 117.53 C 88.86 118.11 85.34 119.77 84.16 123.15 C 82.65 125.98 86.62 127.96 88.94 128.18 C 95.77 127.43 102.69 126.59 109.54 127.68 C 104.75 134.98 95.77 137.62 87.47 137.97 C 81.04 136.30 75.59 132.31 70.79 127.85 C 70.60 122.66 71.19 117.47 72.14 112.37 C 72.18 112.23 72.25 111.96 72.29 111.83 Z" />
</g>
<g id="#a55f45ff">
<path fill="#a55f45" opacity="1.00" d=" M 26.43 115.42 C 23.56 111.62 24.57 106.18 27.61 102.81 C 27.27 106.40 27.87 110.10 29.77 113.22 C 30.13 114.23 30.81 114.90 31.80 115.22 C 32.07 115.33 32.61 115.53 32.87 115.63 C 35.23 116.89 37.84 116.09 40.24 115.45 C 39.96 116.23 39.38 117.79 39.10 118.57 C 38.97 118.94 38.72 119.67 38.60 120.03 C 37.54 120.42 36.49 120.79 35.43 121.16 C 32.10 119.89 28.01 119.05 26.43 115.42 Z" />
</g>
<g id="#d66e47ff">
<path fill="#d66e47" opacity="1.00" d=" M 170.26 104.73 C 171.00 104.55 171.74 104.38 172.49 104.20 C 173.78 107.10 175.10 109.98 176.48 112.84 C 177.09 119.31 177.15 125.92 175.97 132.34 L 175.59 131.64 C 175.39 131.30 175.00 130.64 174.81 130.30 C 173.67 131.84 172.52 133.37 171.36 134.89 C 170.42 128.77 167.37 123.22 163.58 118.42 C 163.47 118.23 163.26 117.86 163.15 117.68 C 162.40 115.96 161.25 114.45 159.68 113.40 L 159.86 113.02 C 160.33 112.90 161.27 112.65 161.75 112.53 C 163.35 113.67 164.97 114.81 166.58 115.95 C 166.50 113.87 166.41 111.80 166.33 109.72 C 167.63 110.54 168.92 111.37 170.22 112.21 C 169.87 109.72 169.90 107.21 170.26 104.73 Z" />
</g>
<g id="#5e83a0ff">
<path fill="#5e83a0" opacity="1.00" d=" M 119.33 108.65 C 129.12 108.64 139.00 107.81 148.40 104.88 C 149.16 107.43 149.86 109.99 150.60 112.55 C 150.64 112.79 150.73 113.28 150.78 113.52 C 152.00 120.62 151.66 127.84 149.85 134.80 C 148.48 134.15 147.12 133.49 145.74 132.87 C 147.01 134.16 148.30 135.44 149.76 136.53 C 148.95 139.11 147.37 142.17 149.22 144.70 C 152.74 149.50 159.19 150.17 164.66 150.64 C 159.02 153.31 152.25 151.24 147.89 147.12 C 144.87 144.72 143.56 140.96 141.03 138.15 C 137.93 138.92 134.91 139.96 131.83 140.77 C 127.77 141.90 123.51 141.52 119.36 141.97 C 119.10 142.28 118.58 142.92 118.32 143.23 C 118.57 140.38 118.55 137.52 118.56 134.66 C 119.45 134.12 120.35 133.59 121.24 133.05 C 121.46 131.96 121.67 130.87 121.86 129.78 C 124.11 130.16 127.47 129.65 127.71 126.82 C 128.91 120.61 121.28 119.03 116.86 117.60 C 117.04 117.31 117.39 116.74 117.57 116.45 C 116.89 115.85 116.19 115.26 115.50 114.67 C 116.11 113.65 116.70 112.61 117.32 111.59 C 112.04 106.67 104.03 110.67 98.30 106.88 L 99.34 105.95 C 105.27 107.14 111.34 108.13 117.41 107.99 C 120.04 112.16 124.84 114.14 129.36 115.54 C 131.68 116.09 134.29 117.03 136.55 115.75 C 130.37 115.01 123.63 113.53 119.33 108.65 Z" />
<path fill="#5e83a0" opacity="1.00" d=" M 132.60 162.37 C 135.14 163.16 137.74 163.77 140.33 164.43 C 139.40 167.49 138.44 170.55 137.19 173.49 L 135.97 173.16 C 133.10 171.90 129.84 171.14 127.29 169.35 C 129.27 167.19 131.00 164.82 132.60 162.37 Z" />
</g>
<g id="#2f1c15cd">
<path fill="#2f1c15" opacity="0.80" d=" M 64.18 113.49 C 66.31 110.40 68.93 107.66 72.02 105.51 C 69.53 109.41 65.79 112.41 63.54 116.54 C 60.23 121.66 58.87 128.19 60.50 134.13 C 59.83 133.61 58.50 133.44 58.23 132.68 C 58.89 125.97 59.77 118.94 64.18 113.49 Z" />
</g>
<g id="#d77048ff">
<path fill="#d77048" opacity="1.00" d=" M 57.31 131.18 C 52.31 124.09 50.95 115.14 52.48 106.71 C 53.08 107.89 53.69 109.08 54.30 110.27 C 54.77 110.27 55.71 110.28 56.18 110.28 C 56.28 111.50 56.37 112.71 56.47 113.92 C 57.47 112.64 58.47 111.35 59.48 110.06 C 59.62 110.87 59.92 112.49 60.06 113.30 C 61.43 113.36 62.81 113.43 64.18 113.49 C 59.77 118.94 58.89 125.97 58.23 132.68 C 58.00 132.31 57.54 131.56 57.31 131.18 Z" />
</g>
<g id="#0102035d">
<path fill="#010203" opacity="0.36" d=" M 29.77 113.22 C 31.49 112.83 32.17 113.49 31.80 115.22 C 30.81 114.90 30.13 114.23 29.77 113.22 Z" />
</g>
<g id="#2b160fc2">
<path fill="#2b160f" opacity="0.76" d=" M 163.15 117.68 C 161.39 118.21 158.37 114.62 159.68 113.40 C 161.25 114.45 162.40 115.96 163.15 117.68 Z" />
</g>
<g id="#a8a2cbff">
<path fill="#a8a2cb" opacity="1.00" d=" M 90.33 118.92 C 96.74 117.22 103.45 117.19 110.02 117.65 C 114.69 118.11 119.45 118.76 123.72 120.86 C 122.42 121.46 121.12 122.04 119.81 122.60 C 111.18 119.57 102.05 120.29 93.10 120.43 C 92.41 120.05 91.02 119.30 90.33 118.92 Z" />
</g>
<g id="#7672acff">
<path fill="#7672ac" opacity="1.00" d=" M 84.07 124.07 C 85.81 121.98 87.73 119.91 90.33 118.92 C 91.02 119.30 92.41 120.05 93.10 120.43 C 91.48 121.18 89.97 122.13 88.52 123.14 C 95.43 123.76 102.42 122.21 109.29 123.81 L 108.82 123.06 L 110.79 123.00 C 111.65 124.32 112.38 125.72 112.88 127.22 C 105.01 125.57 96.84 126.11 88.93 127.23 C 86.79 127.38 85.53 125.26 84.07 124.07 Z" />
</g>
<g id="#7974acff">
<path fill="#7974ac" opacity="1.00" d=" M 123.72 120.86 C 125.31 122.19 126.90 123.77 127.31 125.90 C 126.33 128.12 123.93 128.66 121.78 129.00 C 121.57 127.36 121.36 125.72 121.15 124.08 L 121.40 123.84 L 121.91 123.37 C 121.21 123.11 120.51 122.85 119.81 122.60 C 121.12 122.04 122.42 121.46 123.72 120.86 Z" />
</g>
<g id="#dbd8dbff">
<path fill="#dbd8db" opacity="1.00" d=" M 115.94 122.56 C 117.77 122.94 119.57 123.43 121.40 123.84 L 121.15 124.08 C 120.03 125.19 118.89 126.30 117.76 127.41 C 117.15 125.79 116.55 124.18 115.94 122.56 Z" />
</g>
<g id="#4b7393ff">
<path fill="#4b7393" opacity="1.00" d=" M 70.79 127.85 C 75.59 132.31 81.04 136.30 87.47 137.97 L 86.48 138.59 C 84.36 140.34 82.51 142.37 80.65 144.39 C 81.20 145.34 81.75 146.29 82.26 147.27 C 82.25 147.75 82.23 148.70 82.22 149.18 L 81.84 148.80 C 79.52 146.39 77.13 144.03 75.00 141.44 L 74.80 141.11 C 72.32 137.12 70.99 132.53 70.79 127.85 Z" />
</g>
<g id="#6185a2ff">
<path fill="#6185a2" opacity="1.00" d=" M 109.54 127.68 C 110.80 127.96 112.04 128.31 113.29 128.64 C 113.63 133.04 113.69 137.46 113.44 141.87 C 104.38 141.76 95.16 141.44 86.48 138.59 L 87.47 137.97 C 95.77 137.62 104.75 134.98 109.54 127.68 Z" />
</g>
<g id="#ed8762ff">
<path fill="#ed8762" opacity="1.00" d=" M 174.81 130.30 C 175.00 130.64 175.39 131.30 175.59 131.64 C 174.76 134.04 173.54 136.28 171.97 138.29 C 171.82 137.44 171.51 135.74 171.36 134.89 C 172.52 133.37 173.67 131.84 174.81 130.30 Z" />
</g>
<g id="#476f90ff">
<path fill="#476f90" opacity="1.00" d=" M 66.45 136.32 C 67.88 135.15 69.26 133.93 70.63 132.71 C 71.41 135.07 72.47 137.37 72.81 139.85 C 72.75 142.05 71.48 143.99 70.47 145.87 C 69.37 144.19 68.59 142.22 67.05 140.88 C 65.55 140.30 63.95 140.03 62.40 139.66 C 63.73 138.53 65.09 137.43 66.45 136.32 Z" />
</g>
<g id="#82a1b5ff">
<path fill="#82a1b5" opacity="1.00" d=" M 149.22 144.70 C 147.37 142.17 148.95 139.11 149.76 136.53 C 154.88 139.33 161.57 139.82 165.45 144.51 C 167.34 146.44 165.85 148.84 164.66 150.64 C 159.19 150.17 152.74 149.50 149.22 144.70 Z" />
</g>
<g id="#3a6388ff">
<path fill="#3a6388" opacity="1.00" d=" M 131.83 140.77 C 134.91 139.96 137.93 138.92 141.03 138.15 C 141.69 140.34 142.65 142.42 143.74 144.43 C 140.99 147.37 137.62 149.62 134.56 152.21 C 134.28 152.39 133.73 152.75 133.45 152.93 C 121.04 158.17 106.64 159.02 93.92 154.38 C 92.33 153.86 90.73 153.38 89.14 152.86 C 86.65 152.06 84.44 150.64 82.21 149.32 L 82.22 149.18 C 82.23 148.70 82.25 147.75 82.26 147.27 C 81.75 146.29 81.20 145.34 80.65 144.39 C 82.51 142.37 84.36 140.34 86.48 138.59 C 95.16 141.44 104.38 141.76 113.44 141.87 C 113.57 143.16 113.88 144.52 115.04 145.31 C 116.63 145.84 117.48 144.20 118.32 143.23 C 118.58 142.92 119.10 142.28 119.36 141.97 C 123.51 141.52 127.77 141.90 131.83 140.77 Z" />
</g>
<g id="#7c9cb3ff">
<path fill="#7c9cb3" opacity="1.00" d=" M 58.19 142.79 C 59.56 141.70 61.01 140.73 62.40 139.66 C 63.95 140.03 65.55 140.30 67.05 140.88 C 68.59 142.22 69.37 144.19 70.47 145.87 C 67.75 149.91 61.85 152.65 57.51 149.51 C 55.26 147.50 56.83 144.77 58.19 142.79 Z" />
</g>
<g id="#0b1116b3">
<path fill="#0b1116" opacity="0.70" d=" M 75.00 141.44 C 77.13 144.03 79.52 146.39 81.84 148.80 C 78.74 147.60 75.64 144.79 75.00 141.44 Z" />
</g>
<g id="#376186ff">
<path fill="#376186" opacity="1.00" d=" M 90.98 154.25 C 91.74 154.37 93.26 154.61 94.02 154.73 C 93.85 155.34 93.52 156.57 93.35 157.18 C 93.23 157.61 92.98 158.47 92.86 158.89 C 93.41 159.25 94.50 159.98 95.04 160.34 C 95.33 162.22 95.43 164.14 94.93 166.00 C 93.43 167.60 91.53 168.73 89.61 169.75 C 88.50 166.41 86.56 163.21 82.75 162.65 C 84.69 161.51 86.77 160.59 88.66 159.35 C 90.12 158.03 90.44 156.04 90.98 154.25 Z" />
<path fill="#376186" opacity="1.00" d=" M 124.24 157.15 C 124.59 157.00 125.31 156.71 125.66 156.56 C 127.10 159.45 129.29 161.78 132.60 162.37 C 131.00 164.82 129.27 167.19 127.29 169.35 L 127.01 169.67 C 124.04 167.93 119.18 164.46 122.69 160.79 C 123.25 159.59 123.58 158.29 124.24 157.15 Z" />
</g>
<g id="#0b141bcd">
<path fill="#0b141b" opacity="0.80" d=" M 95.04 160.34 C 98.32 160.59 96.76 164.76 94.93 166.00 C 95.43 164.14 95.33 162.22 95.04 160.34 Z" />
</g>
<g id="#6186a2ff">
<path fill="#6186a2" opacity="1.00" d=" M 79.26 163.91 C 80.26 163.44 81.26 162.96 82.25 162.47 L 82.75 162.65 C 86.56 163.21 88.50 166.41 89.61 169.75 L 89.71 169.98 C 88.87 170.31 88.03 170.63 87.19 170.94 C 85.13 171.66 83.06 172.37 81.01 173.13 C 80.64 172.79 79.88 172.10 79.51 171.76 C 79.60 169.21 79.58 166.66 79.28 164.12 L 79.26 163.91 Z" />
</g>
<g id="#7e9db5ff">
<path fill="#7e9db5" opacity="1.00" d=" M 77.97 164.56 C 78.30 164.45 78.95 164.23 79.28 164.12 C 79.58 166.66 79.60 169.21 79.51 171.76 C 79.88 172.10 80.64 172.79 81.01 173.13 C 76.68 174.71 71.81 176.58 67.26 174.76 C 65.63 174.10 65.20 172.33 64.88 170.79 C 67.08 170.91 70.05 172.92 71.83 170.79 C 73.00 169.60 72.61 167.70 73.00 166.22 C 74.67 165.70 76.32 165.14 77.97 164.56 Z" />
</g>
<g id="#7d9cb4ff">
<path fill="#7d9cb4" opacity="1.00" d=" M 140.33 164.43 C 142.50 165.00 144.66 165.59 146.79 166.30 C 145.94 167.33 144.43 168.29 144.95 169.86 C 145.63 172.60 148.98 172.64 151.11 173.59 C 148.20 173.92 145.30 174.36 142.44 174.99 C 140.68 174.53 138.94 173.98 137.19 173.49 C 138.44 170.55 139.40 167.49 140.33 164.43 Z" />
</g>
<g id="#95aec1ff">
<path fill="#95aec1" opacity="1.00" d=" M 64.88 170.79 C 66.81 168.10 69.93 166.98 73.00 166.22 C 72.61 167.70 73.00 169.60 71.83 170.79 C 70.05 172.92 67.08 170.91 64.88 170.79 Z" />
</g>
<g id="#93adc0ff">
<path fill="#93adc0" opacity="1.00" d=" M 144.95 169.86 C 144.43 168.29 145.94 167.33 146.79 166.30 C 149.61 167.72 153.62 169.34 153.63 173.08 C 151.32 177.09 146.10 175.90 142.44 174.99 C 145.30 174.36 148.20 173.92 151.11 173.59 C 148.98 172.64 145.63 172.60 144.95 169.86 Z" />
</g>
</svg>
