<?xml version="1.0" encoding="UTF-8" ?>
<!DOCTYPE svg PUBLIC "-//W3C//DTD SVG 1.1//EN" "http://www.w3.org/Graphics/SVG/1.1/DTD/svg11.dtd">
<svg width="215pt" height="215pt" viewBox="0 0 215 215" version="1.1" xmlns="http://www.w3.org/2000/svg">
<g id="#000000a0">
<path fill="#000000" opacity="0.63" d=" M 105.79 44.96 C 114.82 35.57 128.51 33.94 140.24 29.84 C 143.42 29.22 146.74 28.53 149.94 29.46 C 156.50 31.44 163.59 31.19 169.94 34.00 C 172.23 35.12 175.14 35.85 176.29 38.38 C 171.41 35.35 165.96 33.31 160.28 32.50 C 156.87 31.97 153.43 31.59 149.99 31.40 C 149.30 31.38 147.91 31.35 147.22 31.34 C 146.24 31.34 144.29 31.36 143.31 31.37 C 136.69 31.62 130.41 33.91 124.13 35.80 C 117.22 37.87 110.65 41.52 105.83 46.96 L 105.62 46.73 C 103.05 43.45 98.30 45.26 94.77 45.45 C 91.84 45.94 88.95 46.62 86.06 47.26 C 86.52 46.89 87.43 46.16 87.89 45.79 C 93.69 44.30 99.89 43.49 105.79 44.96 Z" />
</g>
<g id="#e09aa6ff">
<path fill="#e09aa6" opacity="1.00" d=" M 124.13 35.80 C 130.41 33.91 136.69 31.62 143.31 31.37 C 143.41 33.46 144.79 34.68 146.67 35.27 C 146.81 34.29 147.08 32.32 147.22 31.34 C 147.91 31.35 149.30 31.38 149.99 31.40 C 149.42 32.15 148.86 32.90 148.29 33.65 C 151.13 33.78 153.95 34.17 156.70 34.89 C 156.54 35.52 156.20 36.79 156.04 37.42 C 154.23 37.27 152.41 37.25 150.60 37.26 C 151.68 40.20 155.02 39.37 157.46 39.40 C 160.69 39.33 164.29 39.46 166.49 42.20 C 155.25 44.04 143.67 45.94 133.92 52.26 C 133.42 49.92 132.53 47.68 131.39 45.58 C 126.43 48.05 121.02 49.60 115.45 48.54 C 118.25 48.21 121.09 47.64 123.37 45.85 C 120.84 44.34 118.02 45.16 115.40 45.86 C 115.39 45.38 115.38 44.40 115.37 43.91 C 112.76 45.55 110.25 47.42 107.39 48.61 C 107.00 48.20 106.22 47.37 105.83 46.96 C 110.65 41.52 117.22 37.87 124.13 35.80 M 129.25 36.30 C 127.52 36.92 123.53 39.16 127.00 40.44 C 130.18 40.59 133.28 39.39 136.00 37.83 C 135.80 34.98 131.25 35.77 129.25 36.30 M 142.39 42.66 C 140.12 43.19 137.11 44.07 136.93 46.86 C 141.03 46.76 145.22 46.14 148.74 43.89 C 147.37 41.68 144.52 42.42 142.39 42.66 Z" />
</g>
<g id="#f7d2d8ff">
<path fill="#f7d2d8" opacity="1.00" d=" M 143.31 31.37 C 144.29 31.36 146.24 31.34 147.22 31.34 C 147.08 32.32 146.81 34.29 146.67 35.27 C 144.79 34.68 143.41 33.46 143.31 31.37 Z" />
</g>
<g id="#d88391ff">
<path fill="#d88391" opacity="1.00" d=" M 149.99 31.40 C 153.43 31.59 156.87 31.97 160.28 32.50 C 159.70 34.42 159.08 36.34 158.22 38.15 C 157.67 37.97 156.58 37.60 156.04 37.42 C 156.20 36.79 156.54 35.52 156.70 34.89 C 153.95 34.17 151.13 33.78 148.29 33.65 C 148.86 32.90 149.42 32.15 149.99 31.40 Z" />
</g>
<g id="#d06b7dff">
<path fill="#d06b7d" opacity="1.00" d=" M 160.28 32.50 C 165.96 33.31 171.41 35.35 176.29 38.38 C 177.94 39.60 179.28 41.19 180.53 42.82 C 175.85 42.53 171.18 41.55 166.49 42.20 C 164.29 39.46 160.69 39.33 157.46 39.40 L 158.22 38.15 C 159.08 36.34 159.70 34.42 160.28 32.50 Z" />
</g>
<g id="#f9eff0ff">
<path fill="#f9eff0" opacity="1.00" d=" M 129.25 36.30 C 131.25 35.77 135.80 34.98 136.00 37.83 C 133.28 39.39 130.18 40.59 127.00 40.44 C 123.53 39.16 127.52 36.92 129.25 36.30 Z" />
</g>
<g id="#fbf3f3ff">
<path fill="#fbf3f3" opacity="1.00" d=" M 150.60 37.26 C 152.41 37.25 154.23 37.27 156.04 37.42 C 156.58 37.60 157.67 37.97 158.22 38.15 L 157.46 39.40 C 155.02 39.37 151.68 40.20 150.60 37.26 Z" />
</g>
<g id="#faf1f2ff">
<path fill="#faf1f2" opacity="1.00" d=" M 142.39 42.66 C 144.52 42.42 147.37 41.68 148.74 43.89 C 145.22 46.14 141.03 46.76 136.93 46.86 C 137.11 44.07 140.12 43.19 142.39 42.66 Z" />
</g>
<g id="#301c18ff">
<path fill="#301c18" opacity="1.00" d=" M 133.92 52.26 C 143.67 45.94 155.25 44.04 166.49 42.20 C 171.18 41.55 175.85 42.53 180.53 42.82 C 183.44 45.34 187.76 46.35 189.35 50.18 C 186.68 47.94 183.79 45.89 180.48 44.71 C 166.51 42.00 151.70 44.66 139.05 51.04 C 131.78 54.74 124.97 59.41 119.09 65.07 C 115.26 68.73 112.29 73.57 112.27 79.01 C 116.42 80.27 120.51 81.77 124.38 83.73 C 128.23 85.78 131.88 88.22 135.05 91.21 C 137.83 94.58 139.77 98.60 140.84 102.82 C 140.73 105.22 140.51 107.61 140.33 110.00 C 145.49 108.92 150.20 106.48 155.19 104.86 C 153.23 106.84 150.49 107.65 148.02 108.75 C 148.88 110.57 149.68 112.43 150.28 114.37 C 149.26 112.68 148.19 111.03 147.13 109.37 C 144.61 109.93 142.10 110.49 139.60 111.09 C 137.52 114.88 134.10 117.56 130.90 120.35 C 122.86 125.44 114.04 129.28 104.81 131.63 C 102.77 131.93 101.63 133.64 100.56 135.22 C 94.96 133.31 89.20 135.62 83.71 136.77 C 83.60 140.23 83.44 143.76 84.42 147.13 C 85.44 152.04 88.84 155.79 92.18 159.32 C 89.16 157.73 86.97 155.05 85.29 152.14 C 81.43 155.57 76.08 157.18 70.98 156.75 C 67.77 156.43 63.73 154.65 63.65 150.92 C 64.76 148.03 68.16 147.28 70.92 147.21 C 75.07 147.07 79.17 146.02 82.84 144.07 C 82.53 141.43 83.57 138.23 81.31 136.22 C 94.11 133.10 107.41 131.11 119.31 125.13 C 126.12 121.75 133.44 118.17 137.81 111.68 C 140.32 108.03 139.84 103.44 138.28 99.52 C 137.27 96.32 135.67 93.25 133.12 91.00 C 127.90 86.79 121.92 83.59 115.64 81.28 C 110.60 79.49 105.19 80.31 100.00 80.67 C 90.14 81.50 80.11 84.59 72.75 91.49 C 66.63 96.57 61.77 102.85 57.55 109.55 C 53.62 115.81 50.10 123.40 52.66 130.87 C 52.78 131.35 53.00 132.31 53.11 132.78 L 52.47 133.78 C 51.73 132.06 51.01 130.34 50.41 128.56 C 49.82 121.76 52.73 115.33 55.98 109.55 C 60.23 103.06 65.10 96.91 70.81 91.63 C 73.41 89.34 76.42 87.49 78.77 84.91 C 78.59 81.20 78.00 77.48 78.57 73.76 C 69.28 72.01 59.83 74.00 51.07 77.17 L 50.42 76.99 C 50.33 76.05 50.64 75.23 51.37 74.53 L 51.87 74.55 C 57.57 74.63 62.93 71.95 68.69 72.12 C 72.10 72.12 75.52 72.24 78.94 72.27 C 83.19 64.14 91.95 60.05 100.08 56.82 C 100.21 56.01 100.46 54.38 100.59 53.57 C 101.58 50.83 103.16 48.37 104.74 45.96 C 101.43 45.59 98.10 45.25 94.77 45.45 C 98.30 45.26 103.05 43.45 105.62 46.73 C 103.88 49.73 102.24 52.85 101.68 56.31 C 104.59 55.86 107.56 55.12 110.51 55.66 C 113.28 56.17 115.69 57.72 118.12 59.06 C 118.05 59.30 117.90 59.77 117.83 60.01 C 117.33 59.95 116.34 59.85 115.84 59.80 C 115.11 59.07 114.36 58.35 113.59 57.66 C 107.49 55.19 100.89 57.49 95.23 60.02 C 89.09 62.75 83.25 66.84 80.03 72.90 C 79.05 76.73 79.78 80.66 80.29 84.49 C 84.35 83.16 88.25 81.33 92.47 80.52 C 98.53 79.07 104.80 79.12 110.98 78.60 C 111.22 72.12 115.22 66.50 120.05 62.48 C 119.67 62.06 118.91 61.21 118.53 60.79 C 119.27 60.78 120.76 60.77 121.50 60.76 C 125.42 57.61 129.64 54.88 133.92 52.26 M 98.49 133.22 C 98.60 134.57 99.29 134.77 100.55 133.83 C 100.44 132.48 99.76 132.28 98.49 133.22 M 68.80 148.48 C 66.30 148.50 64.08 150.72 64.78 153.30 C 65.84 154.02 66.89 154.78 67.97 155.47 C 73.77 156.86 80.31 155.44 84.67 151.30 C 83.98 149.34 83.43 147.33 82.98 145.31 C 78.36 146.82 73.65 148.01 68.80 148.48 Z" />
</g>
<g id="#cf6b7cff">
<path fill="#cf6b7c" opacity="1.00" d=" M 107.39 48.61 C 110.25 47.42 112.76 45.55 115.37 43.91 C 115.38 44.40 115.39 45.38 115.40 45.86 C 115.41 46.53 115.44 47.87 115.45 48.54 C 121.02 49.60 126.43 48.05 131.39 45.58 C 132.53 47.68 133.42 49.92 133.92 52.26 C 129.64 54.88 125.42 57.61 121.50 60.76 C 120.76 60.77 119.27 60.78 118.53 60.79 C 118.36 60.59 118.01 60.20 117.83 60.01 C 117.90 59.77 118.05 59.30 118.12 59.06 C 115.69 57.72 113.28 56.17 110.51 55.66 C 107.56 55.12 104.59 55.86 101.68 56.31 C 102.24 52.85 103.88 49.73 105.62 46.73 L 105.83 46.96 C 106.22 47.37 107.00 48.20 107.39 48.61 Z" />
</g>
<g id="#e19ba6ff">
<path fill="#e19ba6" opacity="1.00" d=" M 139.05 51.04 C 151.70 44.66 166.51 42.00 180.48 44.71 C 177.93 46.12 175.44 47.62 173.02 49.24 C 175.79 50.15 178.56 51.10 181.29 52.13 C 179.27 55.14 176.49 57.48 173.38 59.32 C 174.77 60.16 176.16 61.02 177.54 61.87 C 175.45 65.09 173.36 69.03 169.03 69.32 C 169.75 67.32 170.17 65.22 170.51 63.12 C 169.76 63.20 168.26 63.37 167.51 63.45 C 166.28 65.28 165.08 67.13 163.91 69.00 C 165.12 69.22 166.34 69.45 167.56 69.67 C 169.50 70.79 170.98 72.48 172.31 74.26 C 168.13 75.74 163.60 75.14 159.40 76.48 C 156.17 77.52 152.77 77.73 149.42 78.03 C 151.11 80.41 154.18 80.27 156.77 80.66 C 151.37 80.15 144.19 83.05 144.48 89.43 C 144.16 88.43 143.83 87.44 143.49 86.45 C 140.74 88.14 137.93 89.74 135.05 91.21 C 131.88 88.22 128.23 85.78 124.38 83.73 C 125.80 82.27 127.24 80.83 128.68 79.38 C 127.11 77.65 125.49 75.47 126.75 73.05 C 130.07 70.47 133.81 68.38 137.56 66.49 C 136.23 64.07 134.68 61.76 132.78 59.74 C 133.52 59.24 134.26 58.74 135.00 58.24 C 138.98 60.19 141.53 55.75 143.44 53.00 C 141.86 53.23 140.29 53.45 138.73 53.78 C 138.81 53.09 138.97 51.73 139.05 51.04 M 161.21 48.27 C 159.68 48.83 159.36 50.86 159.74 52.26 C 162.06 52.15 164.53 51.58 166.28 49.98 C 166.54 47.43 162.87 47.25 161.21 48.27 M 142.91 65.14 C 145.74 64.91 147.33 62.64 148.03 60.12 C 144.60 57.87 142.82 62.34 142.91 65.14 M 129.82 74.04 C 132.61 75.88 136.23 73.02 135.94 69.93 C 133.55 70.72 131.48 72.15 129.82 74.04 M 145.72 75.14 C 149.39 76.01 151.63 72.74 153.05 69.93 C 149.36 68.79 146.59 71.89 145.72 75.14 Z" />
</g>
<g id="#f5dfe2ff">
<path fill="#f5dfe2" opacity="1.00" d=" M 115.40 45.86 C 118.02 45.16 120.84 44.34 123.37 45.85 C 121.09 47.64 118.25 48.21 115.45 48.54 C 115.44 47.87 115.41 46.53 115.40 45.86 Z" />
</g>
<g id="#d36c7dff">
<path fill="#d36c7d" opacity="1.00" d=" M 180.48 44.71 C 183.79 45.89 186.68 47.94 189.35 50.18 C 189.47 50.30 189.70 50.52 189.82 50.64 C 192.17 56.22 192.42 62.65 190.21 68.32 C 189.86 67.97 189.15 67.27 188.80 66.92 C 186.00 72.74 182.97 78.73 177.65 82.67 C 172.25 87.80 165.77 91.48 159.80 95.85 C 154.15 99.73 147.25 100.80 140.84 102.82 C 139.77 98.60 137.83 94.58 135.05 91.21 C 137.93 89.74 140.74 88.14 143.49 86.45 C 143.83 87.44 144.16 88.43 144.48 89.43 C 149.52 88.85 155.95 86.35 156.77 80.66 C 154.18 80.27 151.11 80.41 149.42 78.03 C 152.77 77.73 156.17 77.52 159.40 76.48 C 163.60 75.14 168.13 75.74 172.31 74.26 C 170.98 72.48 169.50 70.79 167.56 69.67 C 167.92 69.58 168.66 69.41 169.03 69.32 C 173.36 69.03 175.45 65.09 177.54 61.87 C 176.16 61.02 174.77 60.16 173.38 59.32 C 176.49 57.48 179.27 55.14 181.29 52.13 C 178.56 51.10 175.79 50.15 173.02 49.24 C 175.44 47.62 177.93 46.12 180.48 44.71 Z" />
</g>
<g id="#de99a5ff">
<path fill="#de99a5" opacity="1.00" d=" M 86.06 47.26 C 88.95 46.62 91.84 45.94 94.77 45.45 C 98.10 45.25 101.43 45.59 104.74 45.96 C 103.16 48.37 101.58 50.83 100.59 53.57 C 93.68 52.84 87.43 57.04 80.57 56.32 C 80.33 58.78 79.45 61.09 78.35 63.28 C 77.41 63.60 76.47 63.92 75.53 64.25 C 75.15 64.62 74.38 65.36 73.99 65.72 C 74.09 65.20 74.28 64.15 74.38 63.63 C 72.46 64.51 70.66 65.64 69.09 67.06 C 69.84 67.13 71.33 67.27 72.07 67.34 C 71.51 67.77 70.94 68.19 70.37 68.61 C 70.82 69.34 71.28 70.07 71.73 70.80 C 70.72 71.26 69.71 71.70 68.69 72.12 C 62.93 71.95 57.57 74.63 51.87 74.55 C 52.10 74.10 52.55 73.20 52.78 72.75 C 54.67 70.09 56.54 67.42 58.37 64.72 C 58.55 64.57 58.92 64.28 59.10 64.13 C 60.21 63.71 60.87 62.97 61.10 61.89 C 61.29 61.76 61.68 61.49 61.88 61.36 C 64.48 59.61 66.96 57.69 69.55 55.92 C 70.19 56.36 71.48 57.23 72.12 57.66 C 74.24 56.57 76.15 55.13 77.56 53.20 C 76.85 53.06 75.43 52.79 74.72 52.65 C 75.51 52.15 76.29 51.65 77.08 51.15 C 80.05 49.80 82.97 48.32 86.06 47.26 M 85.67 53.01 C 87.66 53.86 89.97 54.03 91.76 52.63 C 93.12 52.14 92.94 50.79 91.92 50.05 C 89.44 49.90 87.17 51.09 85.67 53.01 M 65.32 62.24 C 64.28 62.13 62.82 63.37 63.61 64.41 C 64.94 65.72 67.49 62.76 65.32 62.24 Z" />
<path fill="#de99a5" opacity="1.00" d=" M 113.94 85.42 C 114.47 84.03 115.01 82.63 115.64 81.28 C 121.92 83.59 127.90 86.79 133.12 91.00 C 132.68 91.34 131.79 92.02 131.35 92.36 C 129.91 94.97 128.50 97.60 127.11 100.24 C 126.53 100.46 125.36 100.90 124.78 101.12 C 124.97 102.98 125.42 104.85 125.25 106.74 C 124.54 108.38 123.28 109.69 122.22 111.11 C 120.59 110.04 118.95 108.98 117.32 107.91 C 115.99 110.04 115.09 112.65 112.94 114.11 C 110.93 114.01 108.96 113.55 106.98 113.18 C 106.86 115.43 106.72 117.68 106.59 119.94 C 106.13 119.80 105.19 119.54 104.73 119.40 C 102.72 116.70 100.28 114.38 97.60 112.35 C 96.83 113.88 96.07 115.42 95.22 116.91 C 95.23 116.14 95.24 114.59 95.24 113.82 C 93.79 113.73 92.33 113.65 90.87 113.60 C 91.10 113.48 91.56 113.23 91.79 113.10 C 90.11 111.80 88.44 110.50 86.77 109.20 C 84.15 113.54 81.56 117.93 80.01 122.79 C 76.32 122.09 73.68 119.27 73.43 115.49 C 72.61 116.05 71.80 116.61 70.98 117.17 C 69.82 116.93 68.66 116.70 67.50 116.47 C 66.04 117.69 64.88 119.63 62.99 120.12 C 61.30 119.55 59.68 118.50 58.71 116.98 C 58.09 114.40 59.16 111.84 59.70 109.35 C 59.16 109.40 58.09 109.50 57.55 109.55 C 61.77 102.85 66.63 96.57 72.75 91.49 C 72.58 93.57 72.41 95.65 72.25 97.73 C 73.27 97.21 74.30 96.70 75.30 96.13 C 77.88 98.11 80.54 96.69 82.71 94.91 C 82.89 95.07 83.24 95.38 83.41 95.54 C 84.25 94.11 85.05 92.65 86.06 91.32 C 89.82 93.99 94.60 93.06 98.58 95.17 C 100.95 96.58 101.77 93.18 101.57 91.42 C 102.59 90.82 103.58 90.17 104.59 89.54 C 104.65 88.84 104.78 87.44 104.85 86.74 C 105.98 85.98 107.07 85.15 108.28 84.53 C 110.20 84.41 112.07 85.07 113.94 85.42 M 105.95 102.87 C 111.00 105.78 118.20 104.43 121.60 99.65 C 122.49 98.46 121.86 96.87 120.37 96.71 C 115.02 95.36 107.96 97.23 105.95 102.87 M 86.97 100.99 C 89.23 102.08 91.66 100.48 92.14 98.18 C 90.05 97.90 86.55 97.96 86.97 100.99 M 69.39 109.35 C 67.42 110.15 68.07 112.89 69.99 113.29 C 73.37 113.36 76.41 111.57 79.11 109.72 C 76.99 106.25 72.30 107.79 69.39 109.35 Z" />
</g>
<g id="#faf0f1ff">
<path fill="#faf0f1" opacity="1.00" d=" M 161.21 48.27 C 162.87 47.25 166.54 47.43 166.28 49.98 C 164.53 51.58 162.06 52.15 159.74 52.26 C 159.36 50.86 159.68 48.83 161.21 48.27 Z" />
</g>
<g id="#f4dfe2ff">
<path fill="#f4dfe2" opacity="1.00" d=" M 85.67 53.01 C 87.17 51.09 89.44 49.90 91.92 50.05 C 92.94 50.79 93.12 52.14 91.76 52.63 C 89.97 54.03 87.66 53.86 85.67 53.01 Z" />
</g>
<g id="#ce6d7eff">
<path fill="#ce6d7e" opacity="1.00" d=" M 119.09 65.07 C 124.97 59.41 131.78 54.74 139.05 51.04 C 138.97 51.73 138.81 53.09 138.73 53.78 C 137.42 55.21 136.24 56.75 135.00 58.24 C 134.26 58.74 133.52 59.24 132.78 59.74 C 134.68 61.76 136.23 64.07 137.56 66.49 C 133.81 68.38 130.07 70.47 126.75 73.05 C 125.49 75.47 127.11 77.65 128.68 79.38 C 127.24 80.83 125.80 82.27 124.38 83.73 C 120.51 81.77 116.42 80.27 112.27 79.01 C 112.29 73.57 115.26 68.73 119.09 65.07 M 119.61 77.41 C 121.21 76.84 124.79 75.23 122.94 73.09 C 120.95 73.56 119.24 75.21 119.61 77.41 Z" />
</g>
<g id="#000001c3">
<path fill="#000001" opacity="0.76" d=" M 189.82 50.64 C 192.72 52.76 192.91 56.74 193.01 60.01 C 193.16 66.21 189.86 71.64 186.86 76.80 C 185.28 79.10 184.09 81.89 181.58 83.35 C 184.52 78.38 188.21 73.79 190.21 68.32 C 192.42 62.65 192.17 56.22 189.82 50.64 Z" />
<path fill="#000001" opacity="0.76" d=" M 36.74 87.75 C 36.49 85.98 37.24 85.32 39.00 85.78 C 38.47 86.70 37.72 87.36 36.74 87.75 Z" />
<path fill="#000001" opacity="0.76" d=" M 32.18 90.66 C 32.39 90.92 32.83 91.44 33.05 91.70 C 29.56 97.08 25.68 102.35 24.14 108.73 C 22.43 114.98 22.84 122.47 27.91 127.11 C 31.86 130.53 36.89 132.40 41.93 133.54 C 44.81 134.26 47.79 134.36 50.74 134.33 L 50.72 134.82 C 42.41 135.19 33.57 133.50 27.14 127.92 C 22.94 123.56 21.37 117.01 22.58 111.14 C 23.35 107.63 24.59 104.24 25.94 100.91 C 27.38 97.12 30.60 94.39 32.18 90.66 Z" />
<path fill="#000001" opacity="0.76" d=" M 150.83 115.64 C 153.95 120.34 155.15 126.02 156.96 131.30 C 161.78 131.89 166.82 129.87 171.45 131.68 C 165.64 132.04 159.82 132.51 154.00 132.19 C 153.17 132.03 151.50 131.71 150.67 131.55 C 152.53 131.54 154.40 131.56 156.27 131.58 C 155.51 129.25 154.74 126.93 153.91 124.64 C 153.74 124.17 153.41 123.24 153.24 122.77 C 152.33 120.43 151.56 118.04 150.83 115.64 Z" />
<path fill="#000001" opacity="0.76" d=" M 125.54 126.21 C 126.14 125.98 127.36 125.51 127.96 125.27 C 129.40 125.51 131.27 126.24 130.71 128.09 C 130.72 130.10 128.22 129.81 126.93 130.51 C 126.34 129.12 125.93 127.67 125.54 126.21 M 125.90 126.53 C 125.92 129.21 129.37 130.91 130.57 127.99 C 129.92 125.68 127.71 126.00 125.90 126.53 Z" />
<path fill="#000001" opacity="0.76" d=" M 173.27 132.71 C 176.60 135.19 173.85 139.44 171.14 141.11 C 166.70 144.13 161.08 142.42 156.23 142.77 C 154.64 146.66 154.35 151.56 150.75 154.26 C 152.73 150.38 154.30 146.29 155.23 142.02 C 154.30 141.57 153.37 141.13 152.45 140.68 C 151.00 139.97 149.56 139.25 148.12 138.53 C 148.28 138.48 148.60 138.40 148.76 138.35 C 153.25 140.33 157.95 142.23 162.97 141.87 C 167.02 142.17 171.29 140.70 173.59 137.21 C 173.94 135.72 173.40 134.19 173.27 132.71 Z" />
<path fill="#000001" opacity="0.76" d=" M 101.15 164.06 C 115.11 168.21 131.26 168.37 144.10 160.72 C 142.93 161.77 141.72 162.78 140.66 163.94 C 142.95 168.52 148.66 169.80 153.28 170.68 C 157.72 171.69 163.33 171.06 166.36 175.17 C 161.78 172.96 156.72 172.33 151.77 171.41 C 146.68 170.80 142.11 168.10 139.16 163.90 C 138.05 164.51 136.95 165.12 135.84 165.73 C 136.94 168.55 137.98 171.39 139.13 174.19 C 136.90 171.92 136.22 168.71 134.87 165.92 C 127.39 168.01 119.58 167.61 111.91 167.37 C 111.64 169.56 111.56 172.03 109.61 173.50 C 110.09 171.20 110.52 168.89 110.92 166.58 C 109.92 166.51 107.91 166.37 106.91 166.31 C 105.69 167.29 104.47 168.29 103.17 169.18 C 103.80 168.20 104.43 167.23 105.06 166.25 C 102.52 165.38 99.72 164.81 97.73 162.87 C 98.58 163.17 100.29 163.77 101.15 164.06 Z" />
<path fill="#000001" opacity="0.76" d=" M 85.86 172.88 C 90.91 171.31 96.14 170.12 101.45 169.85 C 99.84 170.40 98.21 170.91 96.57 171.36 C 94.15 171.96 91.71 172.42 89.30 173.01 C 86.41 173.93 82.81 174.40 81.06 177.20 C 79.67 179.44 81.49 182.55 84.03 182.75 C 87.20 183.21 90.42 182.68 93.50 181.92 C 96.06 181.14 98.56 180.19 101.11 179.40 L 102.36 178.98 C 98.10 182.50 92.36 183.35 87.04 183.92 C 83.91 184.33 79.63 182.73 79.81 178.98 C 79.50 175.44 83.05 173.80 85.86 172.88 Z" />
<path fill="#000001" opacity="0.76" d=" M 166.67 175.41 C 170.59 177.71 169.11 183.08 166.05 185.50 C 163.29 185.89 160.24 186.62 157.64 185.21 C 154.91 183.76 151.96 182.81 149.07 181.75 C 149.31 181.60 149.79 181.29 150.03 181.13 C 155.57 183.19 161.93 185.52 167.64 182.67 C 169.11 180.31 167.18 177.75 166.67 175.41 Z" />
</g>
<g id="#f2e2e5ff">
<path fill="#f2e2e5" opacity="1.00" d=" M 71.67 54.38 C 72.48 53.78 73.27 53.15 74.06 52.52 L 74.72 52.65 C 75.43 52.79 76.85 53.06 77.56 53.20 C 76.15 55.13 74.24 56.57 72.12 57.66 C 71.48 57.23 70.19 56.36 69.55 55.92 C 70.08 55.54 71.14 54.77 71.67 54.38 Z" />
</g>
<g id="#ce6b7cff">
<path fill="#ce6b7c" opacity="1.00" d=" M 80.57 56.32 C 87.43 57.04 93.68 52.84 100.59 53.57 C 100.46 54.38 100.21 56.01 100.08 56.82 C 91.95 60.05 83.19 64.14 78.94 72.27 C 75.52 72.24 72.10 72.12 68.69 72.12 C 69.71 71.70 70.72 71.26 71.73 70.80 C 71.28 70.07 70.82 69.34 70.37 68.61 C 70.94 68.19 71.51 67.77 72.07 67.34 C 72.55 66.94 73.51 66.13 73.99 65.72 C 74.38 65.36 75.15 64.62 75.53 64.25 C 76.47 63.92 77.41 63.60 78.35 63.28 C 79.45 61.09 80.33 58.78 80.57 56.32 Z" />
<path fill="#ce6b7c" opacity="1.00" d=" M 24.14 108.73 C 26.24 107.75 28.35 106.83 30.48 105.94 C 30.38 109.20 30.41 112.49 31.41 115.63 C 33.43 114.13 35.59 112.69 38.17 112.48 C 41.50 112.13 43.72 109.33 46.63 108.01 C 49.50 107.52 52.44 107.61 55.34 107.30 C 55.55 108.05 55.76 108.80 55.98 109.55 C 52.73 115.33 49.82 121.76 50.41 128.56 C 46.61 128.34 42.80 128.52 39.00 128.27 C 35.26 128.09 31.67 125.73 27.91 127.11 C 22.84 122.47 22.43 114.98 24.14 108.73 Z" />
</g>
<g id="#f6e7eaff">
<path fill="#f6e7ea" opacity="1.00" d=" M 138.73 53.78 C 140.29 53.45 141.86 53.23 143.44 53.00 C 141.53 55.75 138.98 60.19 135.00 58.24 C 136.24 56.75 137.42 55.21 138.73 53.78 Z" />
</g>
<g id="#342528c8">
<path fill="#342528" opacity="0.78" d=" M 61.88 61.36 C 64.07 57.98 67.69 55.19 71.67 54.38 C 71.14 54.77 70.08 55.54 69.55 55.92 C 66.96 57.69 64.48 59.61 61.88 61.36 Z" />
</g>
<g id="#e6ac82ff">
<path fill="#e6ac82" opacity="1.00" d=" M 95.23 60.02 C 100.89 57.49 107.49 55.19 113.59 57.66 C 113.23 61.01 112.62 64.64 109.88 66.94 C 103.12 73.10 94.08 76.50 85.05 77.32 C 82.12 77.79 80.57 75.42 80.03 72.90 C 83.25 66.84 89.09 62.75 95.23 60.02 M 104.63 58.76 C 99.61 59.75 94.63 61.37 90.38 64.28 C 87.42 66.24 84.21 68.51 82.97 71.98 C 82.55 73.60 84.60 74.59 85.94 74.51 C 91.99 74.28 97.90 72.17 103.07 69.08 C 106.11 66.94 109.70 64.38 110.33 60.45 C 110.44 57.57 106.46 58.66 104.63 58.76 Z" />
</g>
<g id="#232829ff">
<path fill="#232829" opacity="1.00" d=" M 104.63 58.76 C 106.46 58.66 110.44 57.57 110.33 60.45 C 109.70 64.38 106.11 66.94 103.07 69.08 C 97.90 72.17 91.99 74.28 85.94 74.51 C 84.60 74.59 82.55 73.60 82.97 71.98 C 84.21 68.51 87.42 66.24 90.38 64.28 C 94.63 61.37 99.61 59.75 104.63 58.76 M 90.72 65.71 C 89.42 66.46 88.63 67.75 87.96 69.04 C 91.45 68.31 93.82 65.36 97.13 64.22 C 99.26 63.39 101.54 62.73 103.24 61.10 C 98.59 60.77 94.46 63.28 90.72 65.71 M 96.57 66.11 C 95.66 66.51 94.79 66.98 93.91 67.43 C 91.68 68.94 89.52 70.75 88.63 73.39 C 89.80 73.12 90.97 72.85 92.14 72.57 C 97.08 71.31 101.70 68.99 105.52 65.59 L 106.04 65.69 C 106.41 64.83 106.77 63.97 107.13 63.11 C 103.47 63.35 99.52 63.68 96.57 66.11 Z" />
<path fill="#232829" opacity="1.00" d=" M 114.92 139.59 C 118.40 139.46 120.47 136.33 123.04 134.45 C 121.70 136.41 120.20 138.30 118.35 139.83 C 113.74 141.17 108.02 141.18 104.84 136.99 C 108.10 138.14 111.34 140.06 114.92 139.59 Z" />
</g>
<g id="#c58354ff">
<path fill="#c58354" opacity="1.00" d=" M 113.59 57.66 C 114.36 58.35 115.11 59.07 115.84 59.80 C 116.34 59.85 117.33 59.95 117.83 60.01 C 118.01 60.20 118.36 60.59 118.53 60.79 C 118.91 61.21 119.67 62.06 120.05 62.48 C 115.22 66.50 111.22 72.12 110.98 78.60 C 104.80 79.12 98.53 79.07 92.47 80.52 C 88.25 81.33 84.35 83.16 80.29 84.49 C 79.78 80.66 79.05 76.73 80.03 72.90 C 80.57 75.42 82.12 77.79 85.05 77.32 C 94.08 76.50 103.12 73.10 109.88 66.94 C 112.62 64.64 113.23 61.01 113.59 57.66 Z" />
</g>
<g id="#f5e0e3ff">
<path fill="#f5e0e3" opacity="1.00" d=" M 142.91 65.14 C 142.82 62.34 144.60 57.87 148.03 60.12 C 147.33 62.64 145.74 64.91 142.91 65.14 Z" />
</g>
<g id="#505254ff">
<path fill="#505254" opacity="1.00" d=" M 90.72 65.71 C 94.46 63.28 98.59 60.77 103.24 61.10 C 101.54 62.73 99.26 63.39 97.13 64.22 C 93.82 65.36 91.45 68.31 87.96 69.04 C 88.63 67.75 89.42 66.46 90.72 65.71 Z" />
</g>
<g id="#1b1214b8">
<path fill="#1b1214" opacity="0.72" d=" M 59.10 64.13 C 58.77 62.46 59.44 61.72 61.10 61.89 C 60.87 62.97 60.21 63.71 59.10 64.13 Z" />
</g>
<g id="#f3dde1ff">
<path fill="#f3dde1" opacity="1.00" d=" M 65.32 62.24 C 67.49 62.76 64.94 65.72 63.61 64.41 C 62.82 63.37 64.28 62.13 65.32 62.24 Z" />
</g>
<g id="#a86843ff">
<path fill="#a86843" opacity="1.00" d=" M 96.57 66.11 C 99.52 63.68 103.47 63.35 107.13 63.11 C 106.77 63.97 106.41 64.83 106.04 65.69 L 105.52 65.59 C 102.55 64.79 99.49 65.46 96.57 66.11 Z" />
</g>
<g id="#faeff0ff">
<path fill="#faeff0" opacity="1.00" d=" M 167.51 63.45 C 168.26 63.37 169.76 63.20 170.51 63.12 C 170.17 65.22 169.75 67.32 169.03 69.32 C 168.66 69.41 167.92 69.58 167.56 69.67 C 166.34 69.45 165.12 69.22 163.91 69.00 C 165.08 67.13 166.28 65.28 167.51 63.45 Z" />
</g>
<g id="#f6e6e8ff">
<path fill="#f6e6e8" opacity="1.00" d=" M 69.09 67.06 C 70.66 65.64 72.46 64.51 74.38 63.63 C 74.28 64.15 74.09 65.20 73.99 65.72 C 73.51 66.13 72.55 66.94 72.07 67.34 C 71.33 67.27 69.84 67.13 69.09 67.06 Z" />
</g>
<g id="#2b1d1fbf">
<path fill="#2b1d1f" opacity="0.75" d=" M 52.78 72.75 C 53.38 69.51 55.37 66.25 58.37 64.72 C 56.54 67.42 54.67 70.09 52.78 72.75 Z" />
</g>
<g id="#cea285ff">
<path fill="#cea285" opacity="1.00" d=" M 96.57 66.11 C 99.49 65.46 102.55 64.79 105.52 65.59 C 101.70 68.99 97.08 71.31 92.14 72.57 C 92.73 70.86 93.33 69.15 93.91 67.43 C 94.79 66.98 95.66 66.51 96.57 66.11 Z" />
</g>
<g id="#a85d66ff">
<path fill="#a85d66" opacity="1.00" d=" M 177.65 82.67 C 182.97 78.73 186.00 72.74 188.80 66.92 C 189.15 67.27 189.86 67.97 190.21 68.32 C 188.21 73.79 184.52 78.38 181.58 83.35 C 181.55 83.39 181.48 83.47 181.44 83.52 C 178.29 86.35 175.14 89.21 172.48 92.53 L 172.42 92.59 L 171.68 92.83 C 170.00 93.22 168.60 94.38 167.92 95.98 L 167.26 96.21 C 165.75 96.51 164.71 97.67 163.87 98.87 C 163.68 99.06 163.31 99.44 163.12 99.63 C 160.65 100.92 158.24 102.37 156.32 104.42 L 156.21 104.52 C 155.95 104.60 155.44 104.78 155.19 104.86 C 150.20 106.48 145.49 108.92 140.33 110.00 C 140.51 107.61 140.73 105.22 140.84 102.82 C 147.25 100.80 154.15 99.73 159.80 95.85 C 165.77 91.48 172.25 87.80 177.65 82.67 Z" />
<path fill="#a85d66" opacity="1.00" d=" M 138.28 99.52 C 139.84 103.44 140.32 108.03 137.81 111.68 C 133.44 118.17 126.12 121.75 119.31 125.13 C 107.41 131.11 94.11 133.10 81.31 136.22 C 73.71 138.10 65.79 137.38 58.14 136.28 C 56.27 136.01 54.84 134.67 53.33 133.67 L 53.11 132.78 C 53.00 132.31 52.78 131.35 52.66 130.87 C 58.98 132.08 65.38 133.48 71.85 132.64 C 91.70 130.88 111.62 125.92 129.00 115.94 C 134.89 112.47 136.31 105.51 138.28 99.52 Z" />
</g>
<g id="#b36e47ff">
<path fill="#b36e47" opacity="1.00" d=" M 88.63 73.39 C 89.52 70.75 91.68 68.94 93.91 67.43 C 93.33 69.15 92.73 70.86 92.14 72.57 C 90.97 72.85 89.80 73.12 88.63 73.39 Z" />
</g>
<g id="#f4dde1ff">
<path fill="#f4dde1" opacity="1.00" d=" M 129.82 74.04 C 131.48 72.15 133.55 70.72 135.94 69.93 C 136.23 73.02 132.61 75.88 129.82 74.04 Z" />
</g>
<g id="#faedf0ff">
<path fill="#faedf0" opacity="1.00" d=" M 145.72 75.14 C 146.59 71.89 149.36 68.79 153.05 69.93 C 151.63 72.74 149.39 76.01 145.72 75.14 Z" />
</g>
<g id="#d57180ff">
<path fill="#d57180" opacity="1.00" d=" M 51.07 77.17 C 59.83 74.00 69.28 72.01 78.57 73.76 C 78.00 77.48 78.59 81.20 78.77 84.91 C 76.42 87.49 73.41 89.34 70.81 91.63 C 68.99 91.91 67.34 92.74 65.73 93.59 C 67.34 91.25 69.13 89.03 70.49 86.53 C 71.03 82.93 68.61 79.27 65.58 77.49 C 63.14 77.53 60.96 78.96 58.83 80.02 C 56.37 78.13 53.50 79.14 50.84 79.89 C 50.46 79.54 49.70 78.84 49.31 78.49 L 48.85 78.10 C 49.41 77.86 50.51 77.40 51.07 77.17 Z" />
</g>
<g id="#f1d7dcff">
<path fill="#f1d7dc" opacity="1.00" d=" M 119.61 77.41 C 119.24 75.21 120.95 73.56 122.94 73.09 C 124.79 75.23 121.21 76.84 119.61 77.41 Z" />
</g>
<g id="#df99a5ff">
<path fill="#df99a5" opacity="1.00" d=" M 58.83 80.02 C 60.96 78.96 63.14 77.53 65.58 77.49 C 68.61 79.27 71.03 82.93 70.49 86.53 C 69.13 89.03 67.34 91.25 65.73 93.59 C 67.34 92.74 68.99 91.91 70.81 91.63 C 65.10 96.91 60.23 103.06 55.98 109.55 C 55.76 108.80 55.55 108.05 55.34 107.30 C 52.44 107.61 49.50 107.52 46.63 108.01 C 43.72 109.33 41.50 112.13 38.17 112.48 C 35.59 112.69 33.43 114.13 31.41 115.63 C 30.41 112.49 30.38 109.20 30.48 105.94 C 28.35 106.83 26.24 107.75 24.14 108.73 C 25.68 102.35 29.56 97.08 33.05 91.70 L 33.50 90.75 L 34.00 90.93 L 34.53 91.14 C 34.85 90.58 35.49 89.47 35.82 88.91 C 36.05 88.62 36.51 88.04 36.74 87.75 C 37.72 87.36 38.47 86.70 39.00 85.78 C 39.23 85.60 39.69 85.23 39.91 85.05 C 41.07 84.70 41.78 83.97 42.02 82.88 C 42.24 82.76 42.66 82.50 42.87 82.37 C 45.03 81.10 47.17 79.79 49.31 78.49 C 49.70 78.84 50.46 79.54 50.84 79.89 C 50.53 81.04 50.23 82.20 49.93 83.36 C 53.31 83.63 56.19 81.90 58.83 80.02 M 60.31 88.81 C 62.47 89.00 63.77 87.16 64.03 85.23 C 61.63 84.13 58.65 86.23 60.31 88.81 M 39.36 90.04 C 37.65 90.42 37.67 93.65 39.76 92.86 C 41.70 92.58 41.59 89.03 39.36 90.04 M 54.25 97.63 C 55.27 97.53 56.28 97.43 57.30 97.34 C 58.33 96.02 58.76 92.40 56.16 93.51 C 53.82 93.53 54.33 96.01 54.25 97.63 M 40.40 100.65 C 38.13 101.45 33.80 103.31 35.77 106.29 C 39.55 107.57 45.82 105.83 45.90 101.15 C 44.39 99.80 42.19 100.29 40.40 100.65 Z" />
</g>
<g id="#2e1d20c1">
<path fill="#2e1d20" opacity="0.76" d=" M 42.87 82.37 C 44.09 80.20 46.42 78.54 48.85 78.10 L 49.31 78.49 C 47.17 79.79 45.03 81.10 42.87 82.37 Z" />
</g>
<g id="#f8eeefff">
<path fill="#f8eeef" opacity="1.00" d=" M 50.84 79.89 C 53.50 79.14 56.37 78.13 58.83 80.02 C 56.19 81.90 53.31 83.63 49.93 83.36 C 50.23 82.20 50.53 81.04 50.84 79.89 Z" />
</g>
<g id="#cf6e7fff">
<path fill="#cf6e7f" opacity="1.00" d=" M 72.75 91.49 C 80.11 84.59 90.14 81.50 100.00 80.67 C 105.19 80.31 110.60 79.49 115.64 81.28 C 115.01 82.63 114.47 84.03 113.94 85.42 C 112.07 85.07 110.20 84.41 108.28 84.53 C 107.07 85.15 105.98 85.98 104.85 86.74 C 101.58 87.32 97.30 88.36 97.23 92.51 C 98.32 92.24 100.49 91.69 101.57 91.42 C 101.77 93.18 100.95 96.58 98.58 95.17 C 94.60 93.06 89.82 93.99 86.06 91.32 C 85.05 92.65 84.25 94.11 83.41 95.54 C 83.24 95.38 82.89 95.07 82.71 94.91 C 82.31 94.56 81.52 93.87 81.12 93.52 C 78.82 93.38 77.04 94.87 75.30 96.13 C 74.30 96.70 73.27 97.21 72.25 97.73 C 72.41 95.65 72.58 93.57 72.75 91.49 Z" />
</g>
<g id="#f6e4e7ff">
<path fill="#f6e4e7" opacity="1.00" d=" M 144.48 89.43 C 144.19 83.05 151.37 80.15 156.77 80.66 C 155.95 86.35 149.52 88.85 144.48 89.43 Z" />
</g>
<g id="#3a292cc9">
<path fill="#3a292c" opacity="0.79" d=" M 39.91 85.05 C 39.66 83.43 40.36 82.71 42.02 82.88 C 41.78 83.97 41.07 84.70 39.91 85.05 Z" />
</g>
<g id="#120a0cbc">
<path fill="#120a0c" opacity="0.74" d=" M 172.48 92.53 C 175.14 89.21 178.29 86.35 181.44 83.52 C 179.49 87.28 176.24 90.59 172.48 92.53 Z" />
</g>
<g id="#f6e2e4ff">
<path fill="#f6e2e4" opacity="1.00" d=" M 60.31 88.81 C 58.65 86.23 61.63 84.13 64.03 85.23 C 63.77 87.16 62.47 89.00 60.31 88.81 Z" />
</g>
<g id="#f6e6e9ff">
<path fill="#f6e6e9" opacity="1.00" d=" M 97.23 92.51 C 97.30 88.36 101.58 87.32 104.85 86.74 C 104.78 87.44 104.65 88.84 104.59 89.54 C 103.58 90.17 102.59 90.82 101.57 91.42 C 100.49 91.69 98.32 92.24 97.23 92.51 Z" />
</g>
<g id="#4a3337e6">
<path fill="#4a3337" opacity="0.90" d=" M 34.00 90.93 C 33.65 89.31 34.25 88.64 35.82 88.91 C 35.49 89.47 34.85 90.58 34.53 91.14 L 34.00 90.93 Z" />
</g>
<g id="#f3dce0ff">
<path fill="#f3dce0" opacity="1.00" d=" M 39.36 90.04 C 41.59 89.03 41.70 92.58 39.76 92.86 C 37.67 93.65 37.65 90.42 39.36 90.04 Z" />
</g>
<g id="#d46d7dff">
<path fill="#d46d7d" opacity="1.00" d=" M 133.12 91.00 C 135.67 93.25 137.27 96.32 138.28 99.52 C 136.31 105.51 134.89 112.47 129.00 115.94 C 111.62 125.92 91.70 130.88 71.85 132.64 C 65.38 133.48 58.98 132.08 52.66 130.87 C 50.10 123.40 53.62 115.81 57.55 109.55 C 58.09 109.50 59.16 109.40 59.70 109.35 C 59.16 111.84 58.09 114.40 58.71 116.98 C 59.68 118.50 61.30 119.55 62.99 120.12 C 64.88 119.63 66.04 117.69 67.50 116.47 C 68.66 116.70 69.82 116.93 70.98 117.17 C 71.80 116.61 72.61 116.05 73.43 115.49 C 73.68 119.27 76.32 122.09 80.01 122.79 C 81.56 117.93 84.15 113.54 86.77 109.20 C 88.44 110.50 90.11 111.80 91.79 113.10 C 91.56 113.23 91.10 113.48 90.87 113.60 C 88.96 115.08 85.11 115.86 85.28 118.75 C 88.53 120.68 92.29 118.50 95.22 116.91 C 96.07 115.42 96.83 113.88 97.60 112.35 C 100.28 114.38 102.72 116.70 104.73 119.40 C 105.19 119.54 106.13 119.80 106.59 119.94 C 106.72 117.68 106.86 115.43 106.98 113.18 C 108.96 113.55 110.93 114.01 112.94 114.11 C 115.09 112.65 115.99 110.04 117.32 107.91 C 118.95 108.98 120.59 110.04 122.22 111.11 C 123.28 109.69 124.54 108.38 125.25 106.74 C 125.42 104.85 124.97 102.98 124.78 101.12 C 125.36 100.90 126.53 100.46 127.11 100.24 C 128.50 97.60 129.91 94.97 131.35 92.36 C 131.79 92.02 132.68 91.34 133.12 91.00 Z" />
</g>
<g id="#fcf6f6ff">
<path fill="#fcf6f6" opacity="1.00" d=" M 54.25 97.63 C 54.33 96.01 53.82 93.53 56.16 93.51 C 58.76 92.40 58.33 96.02 57.30 97.34 C 56.28 97.43 55.27 97.53 54.25 97.63 Z" />
</g>
<g id="#fcf5f6ff">
<path fill="#fcf5f6" opacity="1.00" d=" M 75.30 96.13 C 77.04 94.87 78.82 93.38 81.12 93.52 C 81.52 93.87 82.31 94.56 82.71 94.91 C 80.54 96.69 77.88 98.11 75.30 96.13 Z" />
</g>
<g id="#1d1012c3">
<path fill="#1d1012" opacity="0.76" d=" M 167.92 95.98 C 168.60 94.38 170.00 93.22 171.68 92.83 C 172.13 94.56 169.53 96.57 167.92 95.98 Z" />
</g>
<g id="#f8eaebff">
<path fill="#f8eaeb" opacity="1.00" d=" M 105.95 102.87 C 107.96 97.23 115.02 95.36 120.37 96.71 C 121.86 96.87 122.49 98.46 121.60 99.65 C 118.20 104.43 111.00 105.78 105.95 102.87 Z" />
</g>
<g id="#2a171ad4">
<path fill="#2a171a" opacity="0.83" d=" M 163.87 98.87 C 164.71 97.67 165.75 96.51 167.26 96.21 C 167.92 97.80 165.27 99.77 163.87 98.87 Z" />
</g>
<g id="#f4dee2ff">
<path fill="#f4dee2" opacity="1.00" d=" M 86.97 100.99 C 86.55 97.96 90.05 97.90 92.14 98.18 C 91.66 100.48 89.23 102.08 86.97 100.99 Z" />
</g>
<g id="#f8ebedff">
<path fill="#f8ebed" opacity="1.00" d=" M 40.40 100.65 C 42.19 100.29 44.39 99.80 45.90 101.15 C 45.82 105.83 39.55 107.57 35.77 106.29 C 33.80 103.31 38.13 101.45 40.40 100.65 Z" />
</g>
<g id="#261518c5">
<path fill="#261518" opacity="0.77" d=" M 156.32 104.42 C 158.24 102.37 160.65 100.92 163.12 99.63 C 161.51 102.00 158.94 103.43 156.32 104.42 Z" />
</g>
<g id="#f9eceeff">
<path fill="#f9ecee" opacity="1.00" d=" M 69.39 109.35 C 72.30 107.79 76.99 106.25 79.11 109.72 C 76.41 111.57 73.37 113.36 69.99 113.29 C 68.07 112.89 67.42 110.15 69.39 109.35 Z" />
</g>
<g id="#40577dff">
<path fill="#40577d" opacity="1.00" d=" M 139.60 111.09 C 142.10 110.49 144.61 109.93 147.13 109.37 C 148.19 111.03 149.26 112.68 150.28 114.37 C 150.42 114.68 150.70 115.32 150.83 115.64 C 151.56 118.04 152.33 120.43 153.24 122.77 C 149.45 130.14 141.72 133.96 134.72 137.69 C 132.12 139.19 129.19 139.95 126.20 140.04 C 125.73 137.22 125.30 134.39 124.91 131.56 C 126.60 131.65 128.28 131.75 129.97 131.86 C 128.95 131.42 127.94 130.97 126.93 130.51 C 128.22 129.81 130.72 130.10 130.71 128.09 C 131.27 126.24 129.40 125.51 127.96 125.27 C 128.99 123.66 129.92 121.99 130.90 120.35 C 134.10 117.56 137.52 114.88 139.60 111.09 Z" />
</g>
<g id="#f6e3e7ff">
<path fill="#f6e3e7" opacity="1.00" d=" M 85.28 118.75 C 85.11 115.86 88.96 115.08 90.87 113.60 C 92.33 113.65 93.79 113.73 95.24 113.82 C 95.24 114.59 95.23 116.14 95.22 116.91 C 92.29 118.50 88.53 120.68 85.28 118.75 Z" />
</g>
<g id="#4c6083ff">
<path fill="#4c6083" opacity="1.00" d=" M 104.81 131.63 C 114.04 129.28 122.86 125.44 130.90 120.35 C 129.92 121.99 128.99 123.66 127.96 125.27 C 127.36 125.51 126.14 125.98 125.54 126.21 C 125.93 127.67 126.34 129.12 126.93 130.51 C 127.94 130.97 128.95 131.42 129.97 131.86 C 128.28 131.75 126.60 131.65 124.91 131.56 C 125.30 134.39 125.73 137.22 126.20 140.04 C 129.19 139.95 132.12 139.19 134.72 137.69 C 141.72 133.96 149.45 130.14 153.24 122.77 C 153.41 123.24 153.74 124.17 153.91 124.64 C 149.22 132.67 140.40 136.61 132.31 140.31 C 127.90 141.85 122.15 143.55 118.35 139.83 C 120.20 138.30 121.70 136.41 123.04 134.45 C 120.47 136.33 118.40 139.46 114.92 139.59 C 111.34 140.06 108.10 138.14 104.84 136.99 C 103.41 136.40 101.99 135.78 100.56 135.22 C 101.63 133.64 102.77 131.93 104.81 131.63 Z" />
</g>
<g id="#5a6c90ff">
<path fill="#5a6c90" opacity="1.00" d=" M 153.91 124.64 C 154.74 126.93 155.51 129.25 156.27 131.58 C 154.40 131.56 152.53 131.54 150.67 131.55 C 151.50 131.71 153.17 132.03 154.00 132.19 C 153.83 135.31 151.34 137.12 148.76 138.35 C 148.60 138.40 148.28 138.48 148.12 138.53 C 149.56 139.25 151.00 139.97 152.45 140.68 C 147.57 148.65 140.13 155.41 130.85 157.60 C 121.00 159.99 110.76 163.03 100.58 160.99 C 100.77 162.02 100.96 163.04 101.15 164.06 C 100.29 163.77 98.58 163.17 97.73 162.87 C 95.90 162.18 94.07 161.30 92.85 159.71 C 96.16 159.17 99.53 159.38 102.83 158.86 C 106.06 156.88 108.80 154.17 112.16 152.35 C 115.31 150.77 117.26 147.76 119.09 144.88 C 116.05 144.73 112.99 144.70 109.96 145.05 C 101.67 146.03 93.31 145.68 84.99 145.43 C 84.85 145.85 84.56 146.70 84.42 147.13 C 83.44 143.76 83.60 140.23 83.71 136.77 C 89.20 135.62 94.96 133.31 100.56 135.22 C 101.99 135.78 103.41 136.40 104.84 136.99 C 108.02 141.18 113.74 141.17 118.35 139.83 C 122.15 143.55 127.90 141.85 132.31 140.31 C 140.40 136.61 149.22 132.67 153.91 124.64 Z" />
</g>
<g id="#a45b66ff">
<path fill="#a45b66" opacity="1.00" d=" M 27.91 127.11 C 31.67 125.73 35.26 128.09 39.00 128.27 C 42.80 128.52 46.61 128.34 50.41 128.56 C 51.01 130.34 51.73 132.06 52.47 133.78 C 48.96 133.72 45.41 134.18 41.93 133.54 C 36.89 132.40 31.86 130.53 27.91 127.11 Z" />
</g>
<g id="#f0887aff">
<path fill="#f0887a" opacity="1.00" d=" M 125.90 126.53 C 127.71 126.00 129.92 125.68 130.57 127.99 C 129.37 130.91 125.92 129.21 125.90 126.53 Z" />
</g>
<g id="#647799ff">
<path fill="#647799" opacity="1.00" d=" M 154.00 132.19 C 159.82 132.51 165.64 132.04 171.45 131.68 C 171.91 131.93 172.82 132.45 173.27 132.71 C 173.40 134.19 173.94 135.72 173.59 137.21 C 171.29 140.70 167.02 142.17 162.97 141.87 C 157.95 142.23 153.25 140.33 148.76 138.35 C 151.34 137.12 153.83 135.31 154.00 132.19 Z" />
</g>
<g id="#d47465ff">
<path fill="#d47465" opacity="1.00" d=" M 98.49 133.22 C 99.76 132.28 100.44 132.48 100.55 133.83 C 99.29 134.77 98.60 134.57 98.49 133.22 Z" />
</g>
<g id="#42587eff">
<path fill="#42587e" opacity="1.00" d=" M 152.45 140.68 C 153.37 141.13 154.30 141.57 155.23 142.02 C 154.30 146.29 152.73 150.38 150.75 154.26 C 148.80 156.65 146.75 159.09 144.10 160.72 C 131.26 168.37 115.11 168.21 101.15 164.06 C 100.96 163.04 100.77 162.02 100.58 160.99 C 110.76 163.03 121.00 159.99 130.85 157.60 C 140.13 155.41 147.57 148.65 152.45 140.68 Z" />
</g>
<g id="#7082a2ff">
<path fill="#7082a2" opacity="1.00" d=" M 84.99 145.43 C 93.31 145.68 101.67 146.03 109.96 145.05 C 112.99 144.70 116.05 144.73 119.09 144.88 C 117.26 147.76 115.31 150.77 112.16 152.35 C 108.80 154.17 106.06 156.88 102.83 158.86 C 99.53 159.38 96.16 159.17 92.85 159.71 L 92.56 159.74 L 92.18 159.32 C 88.84 155.79 85.44 152.04 84.42 147.13 C 84.56 146.70 84.85 145.85 84.99 145.43 Z" />
</g>
<g id="#50688dff">
<path fill="#50688d" opacity="1.00" d=" M 68.80 148.48 C 73.65 148.01 78.36 146.82 82.98 145.31 C 83.43 147.33 83.98 149.34 84.67 151.30 C 80.31 155.44 73.77 156.86 67.97 155.47 C 70.21 155.16 73.52 154.89 73.72 151.97 C 74.22 150.36 72.60 149.63 71.58 148.80 C 70.88 148.72 69.49 148.56 68.80 148.48 Z" />
</g>
<g id="#8595b3ff">
<path fill="#8595b3" opacity="1.00" d=" M 64.78 153.30 C 64.08 150.72 66.30 148.50 68.80 148.48 C 69.49 148.56 70.88 148.72 71.58 148.80 C 69.38 150.41 67.12 151.92 64.78 153.30 Z" />
</g>
<g id="#7081a0ff">
<path fill="#7081a0" opacity="1.00" d=" M 71.58 148.80 C 72.60 149.63 74.22 150.36 73.72 151.97 C 73.52 154.89 70.21 155.16 67.97 155.47 C 66.89 154.78 65.84 154.02 64.78 153.30 C 67.12 151.92 69.38 150.41 71.58 148.80 Z" />
</g>
<g id="#465b80ff">
<path fill="#465b80" opacity="1.00" d=" M 139.16 163.90 C 142.11 168.10 146.68 170.80 151.77 171.41 C 149.08 173.24 147.14 175.87 145.06 178.32 C 144.51 178.14 143.41 177.77 142.86 177.59 C 141.32 176.86 140.17 175.50 139.13 174.19 C 137.98 171.39 136.94 168.55 135.84 165.73 C 136.95 165.12 138.05 164.51 139.16 163.90 Z" />
</g>
<g id="#465d81ff">
<path fill="#465d81" opacity="1.00" d=" M 103.17 169.18 C 104.47 168.29 105.69 167.29 106.91 166.31 C 107.91 166.37 109.92 166.51 110.92 166.58 C 110.52 168.89 110.09 171.20 109.61 173.50 C 109.57 173.71 109.48 174.14 109.44 174.35 C 109.00 174.47 108.14 174.72 107.70 174.85 C 106.00 175.11 104.90 176.48 103.94 177.78 C 103.54 178.08 102.76 178.68 102.36 178.98 L 101.11 179.40 C 99.30 176.90 97.72 174.22 96.57 171.36 C 98.21 170.91 99.84 170.40 101.45 169.85 C 101.88 169.68 102.74 169.34 103.17 169.18 Z" />
</g>
<g id="#6d7f9eff">
<path fill="#6d7f9e" opacity="1.00" d=" M 89.30 173.01 C 91.71 172.42 94.15 171.96 96.57 171.36 C 97.72 174.22 99.30 176.90 101.11 179.40 C 98.56 180.19 96.06 181.14 93.50 181.92 C 90.16 180.80 86.61 180.67 83.11 180.79 C 85.27 179.77 87.69 179.01 89.39 177.26 C 90.43 176.00 89.40 174.38 89.30 173.01 Z" />
</g>
<g id="#7183a2ff">
<path fill="#7183a2" opacity="1.00" d=" M 145.06 178.32 C 147.14 175.87 149.08 173.24 151.77 171.41 C 156.72 172.33 161.78 172.96 166.36 175.17 L 166.62 175.28 L 166.67 175.41 C 167.18 177.75 169.11 180.31 167.64 182.67 C 161.93 185.52 155.57 183.19 150.03 181.13 L 149.18 180.84 C 147.97 179.76 146.60 178.85 145.06 178.32 Z" />
</g>
<g id="#7e8da7ff">
<path fill="#7e8da7" opacity="1.00" d=" M 81.06 177.20 C 82.81 174.40 86.41 173.93 89.30 173.01 C 89.40 174.38 90.43 176.00 89.39 177.26 C 87.69 179.01 85.27 179.77 83.11 180.79 C 86.61 180.67 90.16 180.80 93.50 181.92 C 90.42 182.68 87.20 183.21 84.03 182.75 C 81.49 182.55 79.67 179.44 81.06 177.20 Z" />
</g>
<g id="#11151ecb">
<path fill="#11151e" opacity="0.80" d=" M 103.94 177.78 C 104.90 176.48 106.00 175.11 107.70 174.85 C 108.42 176.56 105.48 178.64 103.94 177.78 Z" />
</g>
<g id="#161c26d8">
<path fill="#161c26" opacity="0.85" d=" M 142.86 177.59 C 143.41 177.77 144.51 178.14 145.06 178.32 C 146.60 178.85 147.97 179.76 149.18 180.84 C 146.74 181.20 144.43 179.30 142.86 177.59 Z" />
</g>
</svg>
