<?xml version="1.0" encoding="UTF-8" ?>
<!DOCTYPE svg PUBLIC "-//W3C//DTD SVG 1.1//EN" "http://www.w3.org/Graphics/SVG/1.1/DTD/svg11.dtd">
<svg width="215pt" height="215pt" viewBox="0 0 215 215" version="1.1" xmlns="http://www.w3.org/2000/svg">
<g id="#272625fe">
<path fill="#272625" opacity="1.00" d=" M 78.79 37.86 C 84.54 37.17 91.12 36.44 96.10 40.08 C 91.22 38.13 85.96 37.90 80.78 37.72 C 80.62 37.98 80.29 38.52 80.12 38.79 C 79.34 38.89 77.78 39.08 77.00 39.18 L 76.78 39.22 C 73.14 40.27 69.96 42.35 66.74 44.26 C 69.29 40.23 74.43 38.93 78.79 37.86 Z" />
<path fill="#272625" opacity="1.00" d=" M 96.97 40.83 C 101.14 43.46 101.19 48.80 100.69 53.16 C 100.43 57.27 97.08 60.17 95.16 63.57 C 104.87 60.05 115.57 60.58 125.37 63.43 C 125.48 59.68 125.97 55.61 128.75 52.82 C 134.27 47.31 142.29 44.63 150.03 45.36 C 156.33 45.21 163.67 47.27 166.75 53.25 C 165.62 52.33 164.51 51.38 163.38 50.46 C 157.52 45.67 149.36 45.50 142.25 46.81 C 137.22 47.99 132.27 50.27 128.71 54.11 C 126.60 57.15 125.21 61.27 127.06 64.77 C 131.73 74.87 141.75 81.29 151.85 85.09 C 156.50 87.01 161.60 86.05 166.33 84.96 C 163.17 88.32 158.38 86.68 154.43 87.82 C 152.95 87.08 151.46 86.34 149.98 85.61 C 152.04 90.68 153.02 96.08 153.50 101.52 C 154.70 102.29 155.89 103.07 157.09 103.85 C 157.55 99.09 156.88 94.34 155.85 89.70 C 158.82 93.89 158.76 99.53 157.82 104.39 L 158.53 105.31 C 160.20 109.68 160.09 114.48 161.63 118.88 C 162.03 119.43 162.84 120.52 163.24 121.06 C 162.50 120.68 161.00 119.90 160.25 119.51 C 160.19 126.10 159.47 132.82 156.78 138.89 C 153.96 146.37 150.00 153.59 144.14 159.13 C 142.53 160.53 141.14 162.58 138.82 162.75 C 149.59 153.89 157.02 140.81 158.87 126.97 C 159.09 119.23 160.14 110.53 155.31 103.86 C 149.33 101.82 143.01 104.67 137.94 107.77 C 129.04 114.62 121.76 124.06 118.75 135.00 C 117.03 141.33 115.80 147.92 116.47 154.50 C 116.97 157.26 117.76 159.95 118.59 162.62 C 120.39 160.25 122.29 157.89 124.78 156.20 C 126.45 155.47 128.16 154.83 129.89 154.26 C 131.73 154.45 133.93 154.20 135.38 155.58 C 137.40 158.57 135.53 162.20 134.91 165.35 C 136.21 164.47 137.52 163.62 138.82 162.75 C 137.67 165.63 134.22 166.43 131.85 168.04 C 133.40 164.18 137.17 159.13 133.62 155.37 C 129.05 155.02 124.40 157.02 121.72 160.78 C 118.58 165.26 117.85 170.86 117.47 176.18 C 118.73 175.87 119.99 175.56 121.25 175.25 L 123.14 174.81 C 121.51 176.30 119.51 177.29 117.49 178.14 C 115.88 173.81 116.98 169.26 118.51 165.10 C 113.02 153.23 115.75 139.55 120.14 127.81 C 113.21 130.73 105.81 132.80 98.21 131.64 L 97.51 131.60 C 94.23 131.80 91.08 130.97 88.13 129.55 C 89.97 133.40 94.62 134.63 98.21 132.54 C 96.83 134.67 93.96 134.75 91.77 134.10 C 89.55 133.21 88.44 130.96 87.09 129.15 C 86.76 129.36 86.10 129.80 85.77 130.02 C 84.54 127.67 82.02 128.04 79.79 128.12 C 80.61 127.66 82.24 126.74 83.06 126.29 C 82.50 125.51 81.87 124.80 81.25 124.08 C 78.31 123.85 75.48 123.02 72.72 122.03 C 73.66 123.56 74.61 125.10 75.70 126.54 C 74.44 127.57 73.89 130.59 71.91 128.88 C 75.77 126.78 71.81 122.86 70.11 120.71 C 70.40 122.57 70.74 124.43 71.16 126.27 C 69.23 122.77 68.30 118.79 65.67 115.66 C 67.73 117.59 69.93 119.38 72.13 121.16 C 71.16 117.65 72.41 114.38 74.92 111.92 C 76.83 109.85 79.02 107.42 82.05 107.34 C 86.06 107.16 90.42 106.84 93.97 109.09 C 97.81 111.05 99.56 115.22 102.35 118.29 C 104.55 122.60 101.43 127.04 100.20 131.16 C 107.00 130.87 114.34 130.23 120.04 126.15 C 123.39 122.54 125.70 118.09 129.02 114.43 C 123.29 117.18 116.00 118.59 110.50 114.55 C 105.57 109.95 103.36 102.05 107.07 96.04 C 109.96 90.58 116.55 88.66 122.30 88.29 C 116.14 82.89 108.36 79.47 100.21 78.60 C 94.90 78.18 89.49 78.08 84.27 79.33 C 81.02 80.15 78.12 81.86 75.27 83.57 C 78.62 87.13 82.53 91.79 81.03 97.05 C 80.35 102.00 76.35 105.51 72.11 107.62 C 69.01 108.78 65.69 108.70 62.50 107.99 C 63.33 110.03 64.09 112.10 64.83 114.17 L 65.15 115.08 C 64.63 114.46 63.58 113.23 63.05 112.61 C 60.55 121.68 55.68 129.92 50.83 137.92 C 48.14 141.67 46.38 146.25 42.65 149.13 C 46.40 142.17 51.43 135.98 54.98 128.89 C 57.54 123.73 60.47 118.63 61.93 113.02 C 62.94 109.31 60.75 106.04 58.24 103.58 C 55.15 99.66 55.31 94.55 55.85 89.87 C 52.32 89.88 48.71 90.38 45.69 92.35 C 41.43 94.94 37.62 98.18 34.18 101.79 C 33.92 102.02 33.40 102.49 33.14 102.73 L 32.01 103.25 C 38.12 95.79 46.42 88.04 56.88 89.21 C 58.88 86.80 60.99 84.22 64.08 83.19 C 67.34 81.82 70.90 82.59 74.23 83.25 C 76.56 80.43 77.22 76.33 80.24 73.95 C 79.11 76.41 77.82 78.78 76.58 81.19 C 81.29 79.38 85.06 75.96 89.49 73.66 C 99.71 69.62 111.34 70.98 121.36 74.99 C 130.61 80.16 138.42 89.10 140.23 99.77 C 140.56 101.32 140.82 102.88 141.09 104.44 C 144.59 103.03 148.23 102.02 151.95 101.36 C 152.67 95.99 151.08 90.49 148.29 85.92 C 147.14 83.56 144.32 84.51 142.26 84.21 C 138.78 84.09 136.46 81.00 134.91 78.22 C 133.27 75.22 131.08 72.60 128.80 70.07 C 127.63 68.45 126.68 66.69 125.83 64.89 C 118.22 61.50 109.49 61.27 101.40 62.83 C 99.15 63.34 96.85 63.89 94.83 65.05 C 92.83 66.61 91.75 69.19 89.44 70.38 C 86.91 71.48 84.18 72.01 81.60 72.96 L 81.71 71.17 C 76.72 72.68 70.69 75.34 65.76 72.53 C 67.97 72.62 70.17 72.73 72.38 72.66 L 73.73 72.61 C 84.20 70.71 95.73 65.25 99.44 54.51 C 101.21 49.79 99.69 44.82 96.97 40.83 M 90.02 68.09 C 90.57 67.46 90.57 67.46 90.02 68.09 M 86.35 69.50 C 86.87 71.09 90.33 69.62 90.02 68.09 C 88.71 67.78 87.18 68.49 86.35 69.50 M 86.55 77.20 C 94.53 75.96 102.45 77.67 110.17 79.56 L 109.97 79.79 C 114.78 81.18 119.17 83.84 122.65 87.44 C 125.69 90.75 130.80 91.95 132.56 96.43 C 134.96 100.52 133.42 105.32 132.97 109.70 C 134.61 108.86 136.28 108.03 137.70 106.84 C 140.36 105.13 139.20 101.53 138.94 98.96 C 136.57 88.21 128.43 78.69 118.00 75.05 C 112.60 73.04 106.82 71.94 101.05 72.33 C 95.91 72.49 90.49 73.68 86.55 77.20 M 137.12 79.12 C 137.30 79.28 137.65 79.61 137.83 79.77 C 137.65 79.61 137.30 79.28 137.12 79.12 C 136.42 78.49 136.42 78.49 137.12 79.12 M 137.83 79.77 C 138.18 81.64 140.75 83.37 142.62 82.75 C 142.12 81.07 139.49 80.07 137.83 79.77 M 67.11 83.08 C 60.68 84.20 55.63 90.31 56.45 96.93 C 57.80 101.59 60.84 106.67 66.04 107.50 C 72.20 108.08 78.06 103.56 79.96 97.82 C 81.62 90.44 75.10 81.59 67.11 83.08 M 116.25 90.27 C 113.63 90.96 111.46 92.71 109.62 94.64 C 103.16 101.17 107.27 113.99 116.10 116.06 C 124.18 117.83 132.69 111.36 132.84 103.01 C 133.38 94.51 124.13 88.27 116.25 90.27 M 76.69 111.79 L 75.95 111.17 C 75.87 111.92 75.71 113.44 75.63 114.20 C 78.57 119.86 85.91 121.83 91.87 121.00 C 95.44 120.57 99.82 117.92 98.53 113.71 L 98.00 113.93 C 94.34 109.05 87.61 107.39 81.80 108.37 C 79.90 109.20 78.18 110.36 76.69 111.79 M 129.32 113.32 C 129.89 113.83 129.89 113.83 129.32 113.32 M 72.97 118.92 C 74.23 122.13 78.02 122.93 81.04 123.45 C 81.05 119.01 75.40 118.24 74.52 114.08 C 73.43 115.41 72.04 117.09 72.97 118.92 M 89.49 123.41 C 92.31 127.58 99.54 127.47 101.92 122.92 C 103.18 120.92 101.23 118.99 100.39 117.29 C 97.51 120.55 93.40 121.89 89.49 123.41 M 87.67 125.90 C 89.83 131.31 99.53 132.99 101.05 126.17 C 99.38 126.65 97.80 127.58 96.02 127.67 C 93.21 127.20 90.60 125.70 87.67 125.90 Z" />
<path fill="#272625" opacity="1.00" d=" M 58.61 62.02 C 58.77 55.62 61.28 49.13 66.16 44.87 C 65.14 46.69 64.04 48.48 63.01 50.29 C 60.41 54.42 59.34 59.33 59.74 64.17 C 60.61 67.16 62.53 69.65 64.40 72.07 C 60.30 70.58 58.64 66.05 58.61 62.02 Z" />
<path fill="#272625" opacity="1.00" d=" M 166.89 53.63 C 170.70 57.71 171.04 63.71 172.00 68.95 C 172.59 74.15 172.34 80.85 167.74 84.23 C 171.83 78.84 171.69 71.87 170.68 65.50 C 169.86 61.41 168.42 57.49 166.89 53.63 Z" />
<path fill="#272625" opacity="1.00" d=" M 92.25 84.97 C 93.44 84.17 94.62 83.34 95.90 82.67 C 96.72 83.65 97.46 84.69 98.20 85.74 C 97.42 86.34 96.63 86.92 95.81 87.47 C 95.48 87.49 94.80 87.52 94.47 87.54 C 93.71 86.69 92.97 85.84 92.25 84.97 M 95.24 84.14 C 93.89 84.81 93.88 85.46 95.23 86.11 C 96.59 85.44 96.59 84.78 95.24 84.14 Z" />
<path fill="#272625" opacity="1.00" d=" M 104.76 87.82 C 105.99 87.25 107.39 87.42 108.71 87.25 C 109.19 89.34 108.16 90.83 106.39 91.78 C 105.70 90.52 103.30 89.33 104.76 87.82 M 106.10 88.25 C 104.40 91.15 109.54 88.48 106.10 88.25 Z" />
<path fill="#272625" opacity="1.00" d=" M 68.76 88.18 C 73.44 88.17 77.52 92.85 76.40 97.49 C 76.17 99.79 74.31 101.30 72.91 102.93 C 70.30 103.76 67.15 105.34 64.65 103.38 C 61.17 100.94 60.50 96.08 61.99 92.32 C 65.15 92.94 67.94 91.33 68.76 88.18 M 66.28 101.59 C 68.38 103.87 73.36 101.78 72.73 98.44 C 70.31 98.40 65.83 97.88 66.28 101.59 Z" />
<path fill="#272625" opacity="1.00" d=" M 99.55 95.64 C 100.79 95.58 102.05 95.30 103.28 95.59 C 104.01 96.85 103.61 98.38 103.74 99.75 C 102.35 99.46 100.12 100.35 99.64 98.47 C 99.55 97.53 99.52 96.58 99.55 95.64 M 101.04 96.84 C 100.59 98.24 101.08 98.73 102.50 98.31 C 102.96 96.92 102.47 96.43 101.04 96.84 Z" />
<path fill="#272625" opacity="1.00" d=" M 119.47 95.56 C 125.86 94.87 129.87 103.85 125.37 108.30 C 122.54 112.02 116.47 112.07 113.60 108.37 C 111.42 105.91 110.99 102.12 112.83 99.35 C 115.83 100.14 118.54 98.46 119.47 95.56 M 117.49 105.41 C 117.05 106.50 116.60 107.59 116.16 108.68 C 117.81 109.09 119.55 110.05 121.27 109.41 C 122.74 108.58 123.79 107.20 124.95 106.01 C 122.48 105.60 119.99 105.46 117.49 105.41 Z" />
<path fill="#272625" opacity="1.00" d=" M 167.77 100.12 C 168.64 99.63 169.59 98.80 170.66 99.35 C 173.62 101.35 175.67 104.53 178.98 106.07 C 181.90 107.86 185.41 108.38 188.25 110.30 C 184.28 109.57 180.27 108.49 176.92 106.16 C 173.86 104.14 171.59 100.77 167.77 100.12 Z" />
<path fill="#272625" opacity="1.00" d=" M 160.05 103.91 C 160.98 102.62 162.64 101.80 163.99 103.07 C 165.16 104.36 166.20 103.20 167.19 102.38 C 166.40 104.73 166.39 107.21 166.79 109.64 C 167.72 109.51 168.65 109.39 169.59 109.27 C 173.66 113.17 179.36 113.71 184.31 115.86 C 180.15 115.75 175.90 114.91 172.34 112.67 C 170.80 111.76 169.36 110.52 167.50 110.37 C 170.25 117.08 177.66 119.77 181.44 125.64 L 180.46 125.43 C 176.05 121.62 171.31 118.09 167.73 113.44 C 167.08 112.30 166.50 111.13 165.96 109.95 C 164.62 107.35 164.18 102.16 160.05 103.91 Z" />
<path fill="#272625" opacity="1.00" d=" M 25.38 116.23 C 27.05 111.86 28.58 107.11 32.13 103.88 C 29.32 109.13 26.44 114.44 25.04 120.28 C 23.03 129.39 22.11 139.34 26.32 148.00 C 27.37 146.79 28.44 145.53 29.96 144.90 C 33.57 146.52 37.10 148.37 40.39 150.58 C 40.82 150.47 41.67 150.26 42.10 150.16 L 42.84 149.98 C 42.25 150.67 41.66 151.36 41.07 152.05 C 41.28 156.21 41.17 160.38 41.25 164.55 C 38.75 166.02 36.43 163.95 34.53 162.46 C 32.09 160.53 30.10 158.03 29.00 155.10 C 27.46 150.90 24.07 147.54 23.31 143.04 C 21.58 134.15 22.05 124.69 25.38 116.23 M 31.99 158.35 C 34.31 160.89 36.85 163.41 40.17 164.57 C 40.37 160.43 40.71 156.21 39.92 152.11 C 37.03 149.28 33.18 147.75 29.59 146.01 C 26.22 149.76 30.04 154.81 31.99 158.35 Z" />
<path fill="#272625" opacity="1.00" d=" M 188.76 111.82 L 188.92 110.67 C 191.39 117.25 192.43 124.29 192.95 131.27 C 190.29 131.23 189.54 128.56 188.69 126.55 C 187.47 123.22 185.84 120.03 185.02 116.56 C 188.51 120.45 189.14 125.94 191.90 130.29 C 191.75 123.99 189.43 118.04 188.76 111.82 Z" />
<path fill="#272625" opacity="1.00" d=" M 167.81 124.69 C 171.20 126.25 174.53 128.04 177.30 130.58 C 178.28 135.69 178.39 140.93 179.79 145.96 L 179.96 146.75 C 179.50 146.31 178.59 145.42 178.13 144.98 C 177.16 140.41 178.13 135.43 176.02 131.12 C 173.69 128.49 169.84 127.68 167.81 124.69 Z" />
<path fill="#272625" opacity="1.00" d=" M 77.08 127.38 L 78.34 127.00 C 77.72 129.90 80.41 131.08 82.83 130.65 L 83.64 130.63 C 83.63 130.92 83.63 131.50 83.63 131.79 C 80.95 131.79 76.83 130.82 77.08 127.38 Z" />
<path fill="#272625" opacity="1.00" d=" M 124.62 174.10 C 126.58 172.03 128.84 170.26 131.25 168.74 C 129.74 171.24 127.29 173.00 124.62 174.10 Z" />
</g>
<g id="#a46a5fff">
<path fill="#a46a5f" opacity="1.00" d=" M 80.12 38.79 C 80.29 38.52 80.62 37.98 80.78 37.72 C 85.96 37.90 91.22 38.13 96.10 40.08 L 96.65 40.26 L 96.97 40.83 C 99.69 44.82 101.21 49.79 99.44 54.51 C 95.73 65.25 84.20 70.71 73.73 72.61 C 73.26 71.27 72.76 69.93 72.23 68.61 C 76.22 68.06 80.25 67.02 83.64 64.76 C 87.09 62.57 89.57 59.18 93.05 57.03 C 94.70 55.85 97.36 55.25 97.68 52.91 C 98.43 50.94 95.97 50.37 94.90 49.30 C 91.17 47.09 92.48 41.40 88.78 39.04 C 86.52 38.13 84.02 38.75 81.68 38.81 C 81.29 38.80 80.51 38.79 80.12 38.79 Z" />
<path fill="#a46a5f" opacity="1.00" d=" M 127.06 64.77 C 125.21 61.27 126.60 57.15 128.71 54.11 C 129.45 58.00 129.88 62.13 132.27 65.44 C 133.40 67.20 134.58 68.93 135.83 70.61 C 140.31 76.14 147.89 78.33 154.77 78.52 C 155.03 78.70 155.56 79.06 155.83 79.24 C 158.16 80.54 161.09 82.70 163.73 80.87 C 165.63 80.08 166.11 78.01 166.50 76.21 C 166.35 75.78 166.06 74.90 165.92 74.47 C 168.13 71.85 170.24 69.01 170.68 65.50 C 171.69 71.87 171.83 78.84 167.74 84.23 L 167.47 84.71 C 167.19 84.77 166.61 84.90 166.33 84.96 C 161.60 86.05 156.50 87.01 151.85 85.09 C 141.75 81.29 131.73 74.87 127.06 64.77 Z" />
<path fill="#a46a5f" opacity="1.00" d=" M 90.02 68.09 C 90.57 67.46 90.57 67.46 90.02 68.09 Z" />
<path fill="#a46a5f" opacity="1.00" d=" M 86.35 69.50 C 87.18 68.49 88.71 67.78 90.02 68.09 C 90.33 69.62 86.87 71.09 86.35 69.50 Z" />
<path fill="#a46a5f" opacity="1.00" d=" M 126.92 75.68 C 127.34 73.75 127.86 71.83 128.80 70.07 C 131.08 72.60 133.27 75.22 134.91 78.22 C 136.46 81.00 138.78 84.09 142.26 84.21 C 144.32 84.51 147.14 83.56 148.29 85.92 C 151.08 90.49 152.67 95.99 151.95 101.36 C 148.23 102.02 144.59 103.03 141.09 104.44 C 140.82 102.88 140.56 101.32 140.23 99.77 C 138.42 89.10 130.61 80.16 121.36 74.99 C 123.23 74.99 125.09 75.29 126.92 75.68 Z" />
<path fill="#a46a5f" opacity="1.00" d=" M 118.00 75.05 C 128.43 78.69 136.57 88.21 138.94 98.96 C 139.20 101.53 140.36 105.13 137.70 106.84 C 136.28 108.03 134.61 108.86 132.97 109.70 C 133.42 105.32 134.96 100.52 132.56 96.43 C 130.80 91.95 125.69 90.75 122.65 87.44 C 119.17 83.84 114.78 81.18 109.97 79.79 L 110.17 79.56 C 110.52 79.12 111.24 78.24 111.60 77.80 C 113.81 77.05 115.96 76.16 118.00 75.05 Z" />
<path fill="#a46a5f" opacity="1.00" d=" M 82.35 82.55 C 84.38 83.63 85.90 85.30 86.79 87.43 C 84.74 87.67 82.70 87.90 80.64 88.07 C 81.01 86.17 81.48 84.29 82.35 82.55 M 82.35 85.12 C 81.93 86.51 82.42 87.00 83.82 86.61 C 84.25 85.21 83.76 84.72 82.35 85.12 Z" />
<path fill="#a46a5f" opacity="1.00" d=" M 149.98 85.61 C 151.46 86.34 152.95 87.08 154.43 87.82 L 155.57 88.40 C 155.64 88.73 155.78 89.38 155.85 89.70 C 156.88 94.34 157.55 99.09 157.09 103.85 C 155.89 103.07 154.70 102.29 153.50 101.52 C 153.02 96.08 152.04 90.68 149.98 85.61 Z" />
<path fill="#a46a5f" opacity="1.00" d=" M 83.35 93.51 C 84.00 93.28 85.30 92.82 85.95 92.59 C 86.93 94.22 88.34 96.85 85.88 97.99 C 83.15 98.97 81.54 95.40 83.35 93.51 M 84.16 95.08 C 84.36 98.39 87.12 93.50 84.16 95.08 Z" />
<path fill="#a46a5f" opacity="1.00" d=" M 66.28 101.59 C 65.83 97.88 70.31 98.40 72.73 98.44 C 73.36 101.78 68.38 103.87 66.28 101.59 Z" />
<path fill="#a46a5f" opacity="1.00" d=" M 167.77 100.12 C 171.59 100.77 173.86 104.14 176.92 106.16 C 180.27 108.49 184.28 109.57 188.25 110.30 L 188.64 110.38 L 188.76 111.82 C 189.43 118.04 191.75 123.99 191.90 130.29 C 189.14 125.94 188.51 120.45 185.02 116.56 C 184.84 116.38 184.49 116.03 184.31 115.86 C 179.36 113.71 173.66 113.17 169.59 109.27 C 168.65 109.39 167.72 109.51 166.79 109.64 C 166.39 107.21 166.40 104.73 167.19 102.38 C 167.34 101.82 167.63 100.69 167.77 100.12 Z" />
<path fill="#a46a5f" opacity="1.00" d=" M 160.05 103.91 C 164.18 102.16 164.62 107.35 165.96 109.95 C 165.16 110.91 164.35 111.87 163.55 112.84 C 163.81 113.87 164.07 114.90 164.34 115.93 C 163.43 116.91 162.53 117.90 161.63 118.88 C 160.09 114.48 160.20 109.68 158.53 105.31 C 158.91 104.96 159.67 104.26 160.05 103.91 Z" />
<path fill="#a46a5f" opacity="1.00" d=" M 117.49 105.41 C 119.99 105.46 122.48 105.60 124.95 106.01 C 123.79 107.20 122.74 108.58 121.27 109.41 C 119.55 110.05 117.81 109.09 116.16 108.68 C 116.60 107.59 117.05 106.50 117.49 105.41 Z" />
<path fill="#a46a5f" opacity="1.00" d=" M 70.11 120.71 C 71.81 122.86 75.77 126.78 71.91 128.88 C 71.72 128.23 71.34 126.92 71.16 126.27 C 70.74 124.43 70.40 122.57 70.11 120.71 Z" />
<path fill="#a46a5f" opacity="1.00" d=" M 177.30 130.58 C 179.17 130.57 181.05 130.55 182.93 130.54 C 182.73 135.77 183.08 141.52 179.79 145.96 C 178.39 140.93 178.28 135.69 177.30 130.58 Z" />
</g>
<g id="#d28ca8ff">
<path fill="#d28ca8" opacity="1.00" d=" M 77.00 39.18 C 77.78 39.08 79.34 38.89 80.12 38.79 C 80.51 38.79 81.29 38.80 81.68 38.81 C 84.02 38.75 86.52 38.13 88.78 39.04 C 92.48 41.40 91.17 47.09 94.90 49.30 C 93.80 49.96 92.52 50.41 91.59 51.33 C 91.36 52.70 91.30 54.09 91.19 55.47 C 91.66 55.86 92.58 56.64 93.05 57.03 C 89.57 59.18 87.09 62.57 83.64 64.76 C 80.25 67.02 76.22 68.06 72.23 68.61 C 69.66 68.86 67.10 69.17 64.55 69.55 C 66.59 71.73 69.49 72.49 72.38 72.66 C 70.17 72.73 67.97 72.62 65.76 72.53 C 65.50 72.52 64.97 72.50 64.71 72.48 L 64.40 72.07 C 62.53 69.65 60.61 67.16 59.74 64.17 C 60.27 64.30 61.35 64.56 61.88 64.69 C 64.29 62.67 67.09 60.39 67.27 56.99 C 67.09 54.16 64.83 52.20 63.01 50.29 C 64.04 48.48 65.14 46.69 66.16 44.87 L 66.39 44.46 L 66.74 44.26 C 69.96 42.35 73.14 40.27 76.78 39.22 C 75.11 41.28 73.73 43.55 72.70 45.99 C 77.53 47.31 83.42 46.40 86.13 41.74 C 83.30 40.22 80.16 39.56 77.00 39.18 M 71.25 58.14 C 72.63 59.52 74.10 60.79 75.65 61.97 C 76.73 60.66 78.52 59.70 78.91 57.96 C 78.72 55.93 77.33 53.36 74.95 53.57 C 72.88 54.20 72.34 56.54 71.25 58.14 Z" />
<path fill="#d28ca8" opacity="1.00" d=" M 128.71 54.11 C 132.27 50.27 137.22 47.99 142.25 46.81 C 149.36 45.50 157.52 45.67 163.38 50.46 C 161.62 53.41 160.05 57.03 161.67 60.40 C 163.22 63.91 167.24 64.94 170.68 65.50 C 170.24 69.01 168.13 71.85 165.92 74.47 C 164.15 71.94 162.21 67.40 158.43 68.37 C 154.15 69.61 153.95 74.91 154.77 78.52 C 147.89 78.33 140.31 76.14 135.83 70.61 C 139.52 68.60 142.05 65.14 143.20 61.14 C 138.95 60.58 135.01 62.17 132.27 65.44 C 129.88 62.13 129.45 58.00 128.71 54.11 M 142.28 47.40 C 139.87 48.29 137.40 49.79 136.38 52.27 C 136.03 54.88 139.25 54.94 141.07 54.82 C 144.53 54.63 148.88 52.74 149.47 48.96 C 148.18 46.30 144.63 46.72 142.28 47.40 M 148.95 64.08 C 149.31 65.32 149.59 66.61 150.21 67.76 C 152.50 67.98 153.93 66.40 154.05 64.20 C 152.35 64.14 150.65 64.10 148.95 64.08 Z" />
</g>
<g id="#f5d8b8ff">
<path fill="#f5d8b8" opacity="1.00" d=" M 77.00 39.18 C 80.16 39.56 83.30 40.22 86.13 41.74 C 83.42 46.40 77.53 47.31 72.70 45.99 C 73.73 43.55 75.11 41.28 76.78 39.22 Z" />
<path fill="#f5d8b8" opacity="1.00" d=" M 142.28 47.40 C 144.63 46.72 148.18 46.30 149.47 48.96 C 148.88 52.74 144.53 54.63 141.07 54.82 C 139.25 54.94 136.03 54.88 136.38 52.27 C 137.40 49.79 139.87 48.29 142.28 47.40 Z" />
<path fill="#f5d8b8" opacity="1.00" d=" M 63.01 50.29 C 64.83 52.20 67.09 54.16 67.27 56.99 C 67.09 60.39 64.29 62.67 61.88 64.69 C 61.35 64.56 60.27 64.30 59.74 64.17 C 59.34 59.33 60.41 54.42 63.01 50.29 Z" />
<path fill="#f5d8b8" opacity="1.00" d=" M 163.38 50.46 C 164.51 51.38 165.62 52.33 166.75 53.25 C 166.79 53.34 166.86 53.53 166.89 53.63 C 168.42 57.49 169.86 61.41 170.68 65.50 C 167.24 64.94 163.22 63.91 161.67 60.40 C 160.05 57.03 161.62 53.41 163.38 50.46 Z" />
<path fill="#f5d8b8" opacity="1.00" d=" M 71.25 58.14 C 72.34 56.54 72.88 54.20 74.95 53.57 C 77.33 53.36 78.72 55.93 78.91 57.96 C 78.52 59.70 76.73 60.66 75.65 61.97 C 74.10 60.79 72.63 59.52 71.25 58.14 Z" />
<path fill="#f5d8b8" opacity="1.00" d=" M 132.27 65.44 C 135.01 62.17 138.95 60.58 143.20 61.14 C 142.05 65.14 139.52 68.60 135.83 70.61 C 134.58 68.93 133.40 67.20 132.27 65.44 Z" />
<path fill="#f5d8b8" opacity="1.00" d=" M 148.95 64.08 C 150.65 64.10 152.35 64.14 154.05 64.20 C 153.93 66.40 152.50 67.98 150.21 67.76 C 149.59 66.61 149.31 65.32 148.95 64.08 Z" />
<path fill="#f5d8b8" opacity="1.00" d=" M 158.43 68.37 C 162.21 67.40 164.15 71.94 165.92 74.47 C 166.06 74.90 166.35 75.78 166.50 76.21 C 163.00 77.43 159.44 78.44 155.83 79.24 C 155.56 79.06 155.03 78.70 154.77 78.52 C 153.95 74.91 154.15 69.61 158.43 68.37 Z" />
<path fill="#f5d8b8" opacity="1.00" d=" M 84.27 79.33 C 89.49 78.08 94.90 78.18 100.21 78.60 C 100.92 81.27 100.38 83.92 98.20 85.74 C 97.46 84.69 96.72 83.65 95.90 82.67 C 94.62 83.34 93.44 84.17 92.25 84.97 C 92.97 85.84 93.71 86.69 94.47 87.54 C 91.91 87.65 89.34 87.71 86.79 87.43 C 85.90 85.30 84.38 83.63 82.35 82.55 C 82.97 81.46 83.63 80.40 84.27 79.33 Z" />
<path fill="#f5d8b8" opacity="1.00" d=" M 67.11 83.08 C 75.10 81.59 81.62 90.44 79.96 97.82 C 78.06 103.56 72.20 108.08 66.04 107.50 C 60.84 106.67 57.80 101.59 56.45 96.93 C 55.63 90.31 60.68 84.20 67.11 83.08 M 68.76 88.18 C 67.94 91.33 65.15 92.94 61.99 92.32 C 60.50 96.08 61.17 100.94 64.65 103.38 C 67.15 105.34 70.30 103.76 72.91 102.93 C 74.31 101.30 76.17 99.79 76.40 97.49 C 77.52 92.85 73.44 88.17 68.76 88.18 Z" />
<path fill="#f5d8b8" opacity="1.00" d=" M 106.10 88.25 C 109.54 88.48 104.40 91.15 106.10 88.25 Z" />
<path fill="#f5d8b8" opacity="1.00" d=" M 116.25 90.27 C 124.13 88.27 133.38 94.51 132.84 103.01 C 132.69 111.36 124.18 117.83 116.10 116.06 C 107.27 113.99 103.16 101.17 109.62 94.64 C 111.46 92.71 113.63 90.96 116.25 90.27 M 119.47 95.56 C 118.54 98.46 115.83 100.14 112.83 99.35 C 110.99 102.12 111.42 105.91 113.60 108.37 C 116.47 112.07 122.54 112.02 125.37 108.30 C 129.87 103.85 125.86 94.87 119.47 95.56 Z" />
<path fill="#f5d8b8" opacity="1.00" d=" M 34.18 101.79 C 37.62 98.18 41.43 94.94 45.69 92.35 C 46.37 92.80 47.72 93.70 48.40 94.15 C 45.14 97.10 41.69 99.85 37.91 102.09 C 36.78 102.99 35.39 101.82 34.18 101.79 Z" />
<path fill="#f5d8b8" opacity="1.00" d=" M 84.16 95.08 C 87.12 93.50 84.36 98.39 84.16 95.08 Z" />
<path fill="#f5d8b8" opacity="1.00" d=" M 148.67 107.87 C 149.21 107.62 150.30 107.12 150.84 106.86 C 150.79 110.66 151.58 115.30 148.57 118.22 C 148.43 114.79 147.94 111.27 148.67 107.87 Z" />
<path fill="#f5d8b8" opacity="1.00" d=" M 76.69 111.79 C 78.18 110.36 79.90 109.20 81.80 108.37 C 83.34 109.57 84.89 110.75 86.47 111.92 C 86.45 112.73 86.43 113.54 86.41 114.35 C 84.26 114.43 82.12 114.52 79.97 114.62 C 78.88 113.67 77.80 112.71 76.69 111.79 Z" />
<path fill="#f5d8b8" opacity="1.00" d=" M 72.97 118.92 C 72.04 117.09 73.43 115.41 74.52 114.08 C 75.40 118.24 81.05 119.01 81.04 123.45 C 78.02 122.93 74.23 122.13 72.97 118.92 Z" />
<path fill="#f5d8b8" opacity="1.00" d=" M 89.49 123.41 C 93.40 121.89 97.51 120.55 100.39 117.29 C 101.23 118.99 103.18 120.92 101.92 122.92 C 99.54 127.47 92.31 127.58 89.49 123.41 Z" />
<path fill="#f5d8b8" opacity="1.00" d=" M 72.72 122.03 C 75.48 123.02 78.31 123.85 81.25 124.08 C 81.87 124.80 82.50 125.51 83.06 126.29 C 82.24 126.74 80.61 127.66 79.79 128.12 C 82.02 128.04 84.54 127.67 85.77 130.02 C 85.04 130.18 83.57 130.49 82.83 130.65 C 80.41 131.08 77.72 129.90 78.34 127.00 L 77.08 127.38 C 76.73 127.17 76.04 126.75 75.70 126.54 C 74.61 125.10 73.66 123.56 72.72 122.03 Z" />
<path fill="#f5d8b8" opacity="1.00" d=" M 87.67 125.90 C 90.60 125.70 93.21 127.20 96.02 127.67 C 97.80 127.58 99.38 126.65 101.05 126.17 C 99.53 132.99 89.83 131.31 87.67 125.90 Z" />
<path fill="#f5d8b8" opacity="1.00" d=" M 88.13 129.55 C 91.08 130.97 94.23 131.80 97.51 131.60 L 98.21 131.64 L 99.50 131.75 L 98.21 132.54 C 94.62 134.63 89.97 133.40 88.13 129.55 Z" />
</g>
<g id="#eb9e63ff">
<path fill="#eb9e63" opacity="1.00" d=" M 91.59 51.33 C 92.52 50.41 93.80 49.96 94.90 49.30 C 95.97 50.37 98.43 50.94 97.68 52.91 C 97.36 55.25 94.70 55.85 93.05 57.03 C 92.58 56.64 91.66 55.86 91.19 55.47 C 91.30 54.09 91.36 52.70 91.59 51.33 Z" />
<path fill="#eb9e63" opacity="1.00" d=" M 101.40 62.83 C 109.49 61.27 118.22 61.50 125.83 64.89 C 121.99 71.11 114.02 68.75 108.28 67.29 C 108.39 66.32 108.51 65.36 108.63 64.40 C 106.21 63.94 103.79 63.45 101.40 62.83 Z" />
<path fill="#eb9e63" opacity="1.00" d=" M 64.55 69.55 C 67.10 69.17 69.66 68.86 72.23 68.61 C 72.76 69.93 73.26 71.27 73.73 72.61 L 72.38 72.66 C 69.49 72.49 66.59 71.73 64.55 69.55 Z" />
<path fill="#eb9e63" opacity="1.00" d=" M 155.83 79.24 C 159.44 78.44 163.00 77.43 166.50 76.21 C 166.11 78.01 165.63 80.08 163.73 80.87 C 161.09 82.70 158.16 80.54 155.83 79.24 Z" />
<path fill="#eb9e63" opacity="1.00" d=" M 137.12 79.12 C 136.42 78.49 136.42 78.49 137.12 79.12 Z" />
<path fill="#eb9e63" opacity="1.00" d=" M 100.21 78.60 C 108.36 79.47 116.14 82.89 122.30 88.29 C 116.55 88.66 109.96 90.58 107.07 96.04 C 103.36 102.05 105.57 109.95 110.50 114.55 C 107.74 115.61 104.09 115.54 102.35 118.29 C 99.56 115.22 97.81 111.05 93.97 109.09 C 90.42 106.84 86.06 107.16 82.05 107.34 C 79.02 107.42 76.83 109.85 74.92 111.92 C 73.99 110.48 73.05 109.05 72.11 107.62 C 76.35 105.51 80.35 102.00 81.03 97.05 C 82.53 91.79 78.62 87.13 75.27 83.57 C 78.12 81.86 81.02 80.15 84.27 79.33 C 83.63 80.40 82.97 81.46 82.35 82.55 C 81.48 84.29 81.01 86.17 80.64 88.07 C 82.70 87.90 84.74 87.67 86.79 87.43 C 89.34 87.71 91.91 87.65 94.47 87.54 C 94.80 87.52 95.48 87.49 95.81 87.47 C 96.63 86.92 97.42 86.34 98.20 85.74 C 100.38 83.92 100.92 81.27 100.21 78.60 M 104.76 87.82 C 103.30 89.33 105.70 90.52 106.39 91.78 C 108.16 90.83 109.19 89.34 108.71 87.25 C 107.39 87.42 105.99 87.25 104.76 87.82 M 83.35 93.51 C 81.54 95.40 83.15 98.97 85.88 97.99 C 88.34 96.85 86.93 94.22 85.95 92.59 C 85.30 92.82 84.00 93.28 83.35 93.51 M 99.55 95.64 C 99.52 96.58 99.55 97.53 99.64 98.47 C 100.12 100.35 102.35 99.46 103.74 99.75 C 103.61 98.38 104.01 96.85 103.28 95.59 C 102.05 95.30 100.79 95.58 99.55 95.64 Z" />
<path fill="#eb9e63" opacity="1.00" d=" M 137.12 79.12 C 137.30 79.28 137.65 79.61 137.83 79.77 C 137.65 79.61 137.30 79.28 137.12 79.12 Z" />
<path fill="#eb9e63" opacity="1.00" d=" M 95.24 84.14 C 96.59 84.78 96.59 85.44 95.23 86.11 C 93.88 85.46 93.89 84.81 95.24 84.14 Z" />
<path fill="#eb9e63" opacity="1.00" d=" M 82.35 85.12 C 83.76 84.72 84.25 85.21 83.82 86.61 C 82.42 87.00 81.93 86.51 82.35 85.12 Z" />
<path fill="#eb9e63" opacity="1.00" d=" M 45.69 92.35 C 48.71 90.38 52.32 89.88 55.85 89.87 C 55.31 94.55 55.15 99.66 58.24 103.58 C 53.93 110.67 52.83 119.20 48.11 126.07 C 43.18 133.32 37.34 140.05 29.96 144.90 C 28.44 145.53 27.37 146.79 26.32 148.00 C 22.11 139.34 23.03 129.39 25.04 120.28 C 26.44 114.44 29.32 109.13 32.13 103.88 C 32.39 103.59 32.89 103.01 33.14 102.73 C 33.40 102.49 33.92 102.02 34.18 101.79 C 35.39 101.82 36.78 102.99 37.91 102.09 C 41.69 99.85 45.14 97.10 48.40 94.15 C 47.72 93.70 46.37 92.80 45.69 92.35 Z" />
<path fill="#eb9e63" opacity="1.00" d=" M 101.04 96.84 C 102.47 96.43 102.96 96.92 102.50 98.31 C 101.08 98.73 100.59 98.24 101.04 96.84 Z" />
<path fill="#eb9e63" opacity="1.00" d=" M 137.94 107.77 C 143.01 104.67 149.33 101.82 155.31 103.86 C 152.25 106.36 153.64 110.59 153.12 113.98 C 152.01 124.62 148.48 135.27 141.76 143.72 C 138.54 148.00 133.89 150.79 129.89 154.26 C 128.16 154.83 126.45 155.47 124.78 156.20 C 122.18 155.17 119.32 152.71 116.47 154.50 C 115.80 147.92 117.03 141.33 118.75 135.00 C 121.76 124.06 129.04 114.62 137.94 107.77 M 148.67 107.87 C 147.94 111.27 148.43 114.79 148.57 118.22 C 151.58 115.30 150.79 110.66 150.84 106.86 C 150.30 107.12 149.21 107.62 148.67 107.87 Z" />
<path fill="#eb9e63" opacity="1.00" d=" M 81.80 108.37 C 87.61 107.39 94.34 109.05 98.00 113.93 C 92.53 116.28 84.93 119.83 79.97 114.62 C 82.12 114.52 84.26 114.43 86.41 114.35 C 86.43 113.54 86.45 112.73 86.47 111.92 C 84.89 110.75 83.34 109.57 81.80 108.37 Z" />
<path fill="#eb9e63" opacity="1.00" d=" M 129.32 113.32 C 129.89 113.83 129.89 113.83 129.32 113.32 Z" />
<path fill="#eb9e63" opacity="1.00" d=" M 166.97 116.96 C 165.82 115.88 167.49 114.57 167.73 113.44 C 171.31 118.09 176.05 121.62 180.46 125.43 C 180.07 125.36 179.28 125.24 178.88 125.18 C 174.41 123.36 170.11 120.67 166.97 116.96 Z" />
<path fill="#eb9e63" opacity="1.00" d=" M 31.99 158.35 C 30.04 154.81 26.22 149.76 29.59 146.01 C 30.22 150.26 31.75 154.27 33.47 158.18 L 31.99 158.35 Z" />
<path fill="#eb9e63" opacity="1.00" d=" M 121.72 160.78 C 124.40 157.02 129.05 155.02 133.62 155.37 C 131.85 158.87 130.03 162.37 127.67 165.53 C 125.43 168.69 122.45 171.46 121.25 175.25 C 119.99 175.56 118.73 175.87 117.47 176.18 C 117.85 170.86 118.58 165.26 121.72 160.78 Z" />
</g>
<g id="#c88858ff">
<path fill="#c88858" opacity="1.00" d=" M 94.83 65.05 C 96.85 63.89 99.15 63.34 101.40 62.83 C 103.79 63.45 106.21 63.94 108.63 64.40 C 108.51 65.36 108.39 66.32 108.28 67.29 C 114.02 68.75 121.99 71.11 125.83 64.89 C 126.68 66.69 127.63 68.45 128.80 70.07 C 127.86 71.83 127.34 73.75 126.92 75.68 C 125.09 75.29 123.23 74.99 121.36 74.99 C 111.34 70.98 99.71 69.62 89.49 73.66 C 85.06 75.96 81.29 79.38 76.58 81.19 C 77.82 78.78 79.11 76.41 80.24 73.95 L 80.55 73.32 L 81.60 72.96 C 84.18 72.01 86.91 71.48 89.44 70.38 C 91.75 69.19 92.83 66.61 94.83 65.05 Z" />
<path fill="#c88858" opacity="1.00" d=" M 86.55 77.20 C 90.49 73.68 95.91 72.49 101.05 72.33 C 106.82 71.94 112.60 73.04 118.00 75.05 C 115.96 76.16 113.81 77.05 111.60 77.80 C 111.24 78.24 110.52 79.12 110.17 79.56 C 102.45 77.67 94.53 75.96 86.55 77.20 Z" />
<path fill="#c88858" opacity="1.00" d=" M 137.83 79.77 C 139.49 80.07 142.12 81.07 142.62 82.75 C 140.75 83.37 138.18 81.64 137.83 79.77 Z" />
<path fill="#c88858" opacity="1.00" d=" M 58.24 103.58 C 60.75 106.04 62.94 109.31 61.93 113.02 C 60.47 118.63 57.54 123.73 54.98 128.89 C 51.43 135.98 46.40 142.17 42.65 149.13 C 42.51 149.39 42.24 149.90 42.10 150.16 C 41.67 150.26 40.82 150.47 40.39 150.58 C 37.10 148.37 33.57 146.52 29.96 144.90 C 37.34 140.05 43.18 133.32 48.11 126.07 C 52.83 119.20 53.93 110.67 58.24 103.58 Z" />
<path fill="#c88858" opacity="1.00" d=" M 153.12 113.98 C 153.64 110.59 152.25 106.36 155.31 103.86 C 160.14 110.53 159.09 119.23 158.87 126.97 C 157.02 140.81 149.59 153.89 138.82 162.75 C 137.52 163.62 136.21 164.47 134.91 165.35 C 135.53 162.20 137.40 158.57 135.38 155.58 C 133.93 154.20 131.73 154.45 129.89 154.26 C 133.89 150.79 138.54 148.00 141.76 143.72 C 148.48 135.27 152.01 124.62 153.12 113.98 Z" />
<path fill="#c88858" opacity="1.00" d=" M 62.50 107.99 C 65.69 108.70 69.01 108.78 72.11 107.62 C 73.05 109.05 73.99 110.48 74.92 111.92 C 72.41 114.38 71.16 117.65 72.13 121.16 C 69.93 119.38 67.73 117.59 65.67 115.66 C 65.46 115.28 65.04 114.54 64.83 114.17 C 64.09 112.10 63.33 110.03 62.50 107.99 Z" />
<path fill="#c88858" opacity="1.00" d=" M 163.55 112.84 C 164.35 111.87 165.16 110.91 165.96 109.95 C 166.50 111.13 167.08 112.30 167.73 113.44 C 167.49 114.57 165.82 115.88 166.97 116.96 C 170.11 120.67 174.41 123.36 178.88 125.18 C 179.28 125.24 180.07 125.36 180.46 125.43 L 181.44 125.64 C 183.31 126.30 182.49 128.98 182.93 130.54 C 181.05 130.55 179.17 130.57 177.30 130.58 C 174.53 128.04 171.20 126.25 167.81 124.69 C 166.07 123.80 164.47 122.59 163.24 121.06 C 162.84 120.52 162.03 119.43 161.63 118.88 C 162.53 117.90 163.43 116.91 164.34 115.93 C 164.07 114.90 163.81 113.87 163.55 112.84 Z" />
<path fill="#c88858" opacity="1.00" d=" M 75.95 111.17 L 76.69 111.79 C 77.80 112.71 78.88 113.67 79.97 114.62 C 84.93 119.83 92.53 116.28 98.00 113.93 L 98.53 113.71 C 99.82 117.92 95.44 120.57 91.87 121.00 C 85.91 121.83 78.57 119.86 75.63 114.20 C 75.71 113.44 75.87 111.92 75.95 111.17 Z" />
<path fill="#c88858" opacity="1.00" d=" M 110.50 114.55 C 116.00 118.59 123.29 117.18 129.02 114.43 C 125.70 118.09 123.39 122.54 120.04 126.15 C 114.34 130.23 107.00 130.87 100.20 131.16 C 101.43 127.04 104.55 122.60 102.35 118.29 C 104.09 115.54 107.74 115.61 110.50 114.55 Z" />
<path fill="#c88858" opacity="1.00" d=" M 29.59 146.01 C 33.18 147.75 37.03 149.28 39.92 152.11 C 40.71 156.21 40.37 160.43 40.17 164.57 C 36.85 163.41 34.31 160.89 31.99 158.35 L 33.47 158.18 C 31.75 154.27 30.22 150.26 29.59 146.01 Z" />
<path fill="#c88858" opacity="1.00" d=" M 116.47 154.50 C 119.32 152.71 122.18 155.17 124.78 156.20 C 122.29 157.89 120.39 160.25 118.59 162.62 C 117.76 159.95 116.97 157.26 116.47 154.50 Z" />
<path fill="#c88858" opacity="1.00" d=" M 133.62 155.37 C 137.17 159.13 133.40 164.18 131.85 168.04 L 131.62 168.50 L 131.25 168.74 C 128.84 170.26 126.58 172.03 124.62 174.10 L 124.17 174.56 C 123.91 174.62 123.40 174.74 123.14 174.81 L 121.25 175.25 C 122.45 171.46 125.43 168.69 127.67 165.53 C 130.03 162.37 131.85 158.87 133.62 155.37 Z" />
</g>
</svg>
