<?xml version="1.0" encoding="UTF-8" ?>
<!DOCTYPE svg PUBLIC "-//W3C//DTD SVG 1.1//EN" "http://www.w3.org/Graphics/SVG/1.1/DTD/svg11.dtd">
<svg width="215pt" height="215pt" viewBox="0 0 215 215" version="1.1" xmlns="http://www.w3.org/2000/svg">
<g id="#291e23a6">
<path fill="#291e23" opacity="0.65" d=" M 124.74 26.97 C 127.79 25.71 131.13 25.90 134.33 26.37 C 132.09 26.79 129.89 27.36 127.66 27.82 C 122.63 28.53 117.95 30.57 113.10 31.95 L 111.71 32.02 C 115.79 29.72 120.43 28.75 124.74 26.97 Z" />
</g>
<g id="#22161bb9">
<path fill="#22161b" opacity="0.73" d=" M 134.33 26.37 C 141.17 28.03 147.22 31.95 152.57 36.41 C 154.13 38.00 156.29 39.41 156.71 41.76 C 153.85 39.30 151.20 36.59 148.12 34.39 C 146.70 33.39 145.24 32.43 143.79 31.47 C 142.82 30.84 141.84 30.23 140.84 29.65 C 136.73 27.76 132.11 27.56 127.66 27.82 C 129.89 27.36 132.09 26.79 134.33 26.37 Z" />
</g>
<g id="#d79ab3ff">
<path fill="#d79ab3" opacity="1.00" d=" M 113.10 31.95 C 117.95 30.57 122.63 28.53 127.66 27.82 C 132.11 27.56 136.73 27.76 140.84 29.65 C 138.73 33.16 139.24 38.03 135.74 40.70 C 131.18 43.97 126.36 47.23 120.81 48.46 C 118.40 49.16 115.68 46.60 113.63 48.64 C 109.82 52.07 107.40 56.69 104.00 60.49 C 102.70 57.86 101.41 55.22 100.08 52.61 C 100.37 50.51 100.69 48.41 101.03 46.32 C 99.39 47.21 97.74 48.09 96.12 49.02 L 96.54 47.68 L 96.61 47.46 C 98.88 45.62 100.72 43.33 102.58 41.10 C 106.86 43.85 113.01 44.66 117.06 41.05 C 118.81 39.85 119.79 36.65 117.58 35.41 C 114.91 33.86 111.66 34.60 108.73 34.66 C 110.07 33.59 111.43 32.45 113.10 31.95 Z" />
</g>
<g id="#d292adff">
<path fill="#d292ad" opacity="1.00" d=" M 140.84 29.65 C 141.84 30.23 142.82 30.84 143.79 31.47 C 143.79 35.37 146.12 38.76 146.56 42.58 C 147.31 47.63 145.62 52.58 144.20 57.36 C 139.72 55.83 134.65 54.24 130.01 55.95 C 127.49 56.76 127.58 60.16 129.51 61.56 C 132.61 63.77 136.46 64.58 140.04 65.71 C 135.00 70.78 129.78 75.69 124.00 79.91 C 122.02 81.15 121.32 83.44 120.04 85.25 C 117.86 86.55 115.37 87.20 113.06 88.22 C 112.37 87.93 111.69 87.65 111.01 87.37 C 106.33 89.97 100.21 89.19 96.21 92.96 C 89.83 93.24 83.44 92.96 77.05 92.81 C 79.82 90.21 83.19 88.43 86.57 86.76 C 82.31 84.98 77.86 86.89 73.61 87.70 C 73.15 86.88 72.68 86.07 72.22 85.26 C 70.09 86.10 67.98 86.99 65.80 87.69 C 65.19 87.80 63.96 88.01 63.35 88.11 C 62.09 85.88 60.64 83.75 59.03 81.75 C 57.85 81.62 56.66 81.48 55.48 81.33 C 62.07 76.35 70.35 74.11 76.61 68.68 C 77.39 68.02 78.17 67.37 78.95 66.72 L 79.41 66.72 C 82.76 66.69 86.32 66.85 89.36 65.21 C 91.34 64.75 91.15 61.37 89.24 60.93 C 88.61 60.66 87.33 60.11 86.69 59.84 C 89.74 56.15 93.19 52.82 96.12 49.02 C 97.74 48.09 99.39 47.21 101.03 46.32 C 100.69 48.41 100.37 50.51 100.08 52.61 C 101.41 55.22 102.70 57.86 104.00 60.49 C 107.40 56.69 109.82 52.07 113.63 48.64 C 115.68 46.60 118.40 49.16 120.81 48.46 C 126.36 47.23 131.18 43.97 135.74 40.70 C 139.24 38.03 138.73 33.16 140.84 29.65 M 89.41 74.68 C 86.31 75.65 82.54 78.34 83.48 82.06 C 86.10 84.93 90.52 84.38 94.05 84.54 C 100.37 84.17 106.70 84.84 113.01 84.46 C 116.58 83.38 116.77 78.11 113.46 76.59 C 106.21 72.55 97.30 73.25 89.41 74.68 Z" />
</g>
<g id="#ce85a3ff">
<path fill="#ce85a3" opacity="1.00" d=" M 143.79 31.47 C 145.24 32.43 146.70 33.39 148.12 34.39 C 149.76 39.89 152.24 45.13 152.91 50.88 C 152.39 51.15 151.34 51.67 150.82 51.94 C 150.49 52.50 149.82 53.63 149.48 54.19 C 150.90 55.42 152.34 56.63 153.81 57.81 C 153.65 63.49 151.83 68.90 150.11 74.26 C 149.18 77.32 147.13 79.82 145.17 82.28 L 144.68 82.04 C 142.13 81.67 137.92 79.86 136.47 82.88 C 135.79 85.18 138.61 85.90 140.02 86.87 C 140.30 86.93 140.86 87.04 141.14 87.09 C 138.57 89.39 136.33 92.03 134.42 94.90 C 130.97 94.26 127.49 93.48 123.96 93.61 C 122.05 93.84 119.51 95.78 120.74 97.91 C 122.21 100.73 125.95 100.57 128.64 101.32 C 129.21 101.48 130.34 101.79 130.91 101.95 C 131.12 102.43 131.53 103.39 131.74 103.87 C 124.44 104.25 117.13 99.88 110.02 102.72 C 107.95 100.67 105.41 98.46 102.29 98.62 C 100.25 98.89 98.46 100.03 96.68 100.98 C 93.95 99.34 90.78 100.02 87.79 100.18 C 87.39 100.01 86.59 99.66 86.19 99.49 C 88.31 98.15 90.27 96.11 92.91 95.93 C 97.70 95.61 102.53 96.04 107.31 95.41 C 103.86 93.71 99.97 93.40 96.21 92.96 C 100.21 89.19 106.33 89.97 111.01 87.37 C 111.69 87.65 112.37 87.93 113.06 88.22 C 115.37 87.20 117.86 86.55 120.04 85.25 C 121.32 83.44 122.02 81.15 124.00 79.91 C 129.78 75.69 135.00 70.78 140.04 65.71 C 143.83 66.91 148.53 66.80 150.92 63.14 C 149.50 60.39 147.11 58.38 144.20 57.36 C 145.62 52.58 147.31 47.63 146.56 42.58 C 146.12 38.76 143.79 35.37 143.79 31.47 Z" />
</g>
<g id="#f3c340ff">
<path fill="#f3c340" opacity="1.00" d=" M 108.16 34.70 L 108.73 34.66 C 111.66 34.60 114.91 33.86 117.58 35.41 C 119.79 36.65 118.81 39.85 117.06 41.05 C 113.01 44.66 106.86 43.85 102.58 41.10 C 104.17 39.25 105.84 37.48 107.40 35.61 C 107.59 35.38 107.97 34.93 108.16 34.70 Z" />
</g>
<g id="#a35f7eff">
<path fill="#a35f7e" opacity="1.00" d=" M 148.12 34.39 C 151.20 36.59 153.85 39.30 156.71 41.76 C 156.82 41.97 157.05 42.39 157.16 42.60 C 159.12 47.06 161.71 51.23 163.35 55.83 C 165.14 60.76 165.71 66.01 166.48 71.17 C 164.36 72.36 163.30 74.38 163.63 76.80 C 163.66 78.14 163.75 79.48 163.81 80.82 C 159.44 84.15 157.67 89.69 158.24 95.03 C 158.27 96.32 158.32 97.60 158.38 98.89 C 158.50 100.15 158.54 101.56 159.53 102.51 C 164.66 108.19 172.16 112.42 180.02 111.65 C 180.34 113.28 180.65 114.90 180.96 116.53 C 178.59 115.81 175.70 114.80 173.49 116.49 C 171.93 117.33 171.94 119.58 173.40 120.49 C 176.30 122.35 179.53 123.62 182.46 125.42 C 182.30 125.87 181.99 126.77 181.83 127.22 C 181.75 127.42 181.60 127.83 181.53 128.04 C 180.40 128.43 179.28 128.82 178.16 129.22 C 176.69 127.88 175.33 126.33 173.53 125.43 C 171.26 126.10 169.30 127.50 167.07 128.25 C 161.75 125.33 156.97 121.48 151.48 118.83 C 150.20 114.14 147.45 109.09 142.36 107.87 C 137.38 107.06 132.88 110.11 128.91 112.70 C 123.19 111.18 117.42 109.84 111.58 108.85 C 111.11 106.79 110.63 104.74 110.02 102.72 C 117.13 99.88 124.44 104.25 131.74 103.87 C 131.53 103.39 131.12 102.43 130.91 101.95 C 134.43 102.85 139.43 105.44 141.84 101.25 C 140.89 97.73 137.57 96.03 134.42 94.90 C 136.33 92.03 138.57 89.39 141.14 87.09 C 143.21 87.34 145.98 88.19 147.34 85.98 C 148.28 84.34 146.05 83.33 145.17 82.28 C 147.13 79.82 149.18 77.32 150.11 74.26 C 151.83 68.90 153.65 63.49 153.81 57.81 C 155.31 57.82 156.81 57.83 158.32 57.85 C 159.28 54.09 155.90 51.99 152.91 50.88 C 152.24 45.13 149.76 39.89 148.12 34.39 Z" />
</g>
<g id="#261b18c0">
<path fill="#261b18" opacity="0.75" d=" M 101.16 41.07 C 102.97 38.97 104.73 36.65 107.40 35.61 C 105.84 37.48 104.17 39.25 102.58 41.10 C 100.72 43.33 98.88 45.62 96.61 47.46 C 97.55 44.96 99.51 43.10 101.16 41.07 Z" />
</g>
<g id="#141211ff">
<path fill="#141211" opacity="1.00" d=" M 157.16 42.60 L 157.33 41.44 C 161.33 48.30 165.07 55.59 166.17 63.55 C 167.24 70.72 167.81 77.98 169.83 84.98 C 170.65 89.26 173.00 93.00 174.05 97.20 C 172.84 96.50 171.59 95.89 170.37 95.24 C 171.10 94.92 171.83 94.59 172.56 94.24 C 169.54 89.39 168.75 83.65 167.42 78.20 C 167.05 75.86 166.81 73.51 166.48 71.17 C 165.71 66.01 165.14 60.76 163.35 55.83 C 161.71 51.23 159.12 47.06 157.16 42.60 Z" />
<path fill="#141211" opacity="1.00" d=" M 89.46 55.40 C 92.03 53.02 93.60 49.65 96.54 47.68 L 96.12 49.02 C 93.19 52.82 89.74 56.15 86.69 59.84 C 85.05 61.92 83.21 63.85 81.06 65.40 C 83.41 61.74 86.72 58.78 89.46 55.40 Z" />
<path fill="#141211" opacity="1.00" d=" M 45.64 102.03 C 43.86 96.21 45.03 88.58 50.20 84.91 C 46.82 89.66 45.04 95.41 46.18 101.24 C 48.87 100.20 51.55 99.14 54.30 98.28 C 56.35 98.29 58.55 97.78 60.52 98.57 C 62.33 99.83 63.18 102.02 64.23 103.87 C 65.35 106.32 66.44 108.78 67.70 111.16 C 69.76 110.30 71.83 109.47 73.92 108.66 C 74.31 105.85 74.88 103.01 76.45 100.59 C 79.44 99.03 82.98 97.58 86.19 99.49 C 86.59 99.66 87.39 100.01 87.79 100.18 C 89.00 102.18 89.97 104.30 90.89 106.45 C 91.93 106.63 92.97 106.81 94.01 107.00 C 94.78 104.94 95.59 102.89 96.68 100.98 C 98.46 100.03 100.25 98.89 102.29 98.62 C 105.41 98.46 107.95 100.67 110.02 102.72 C 110.63 104.74 111.11 106.79 111.58 108.85 C 117.42 109.84 123.19 111.18 128.91 112.70 C 132.88 110.11 137.38 107.06 142.36 107.87 C 147.45 109.09 150.20 114.14 151.48 118.83 C 156.97 121.48 161.75 125.33 167.07 128.25 C 169.30 127.50 171.26 126.10 173.53 125.43 C 175.33 126.33 176.69 127.88 178.16 129.22 C 179.28 128.82 180.40 128.43 181.53 128.04 C 180.58 128.81 179.63 129.57 178.66 130.32 C 181.68 134.97 184.75 140.04 190.36 141.84 C 191.72 148.35 192.50 155.02 192.75 161.68 L 191.90 161.63 C 192.06 155.36 190.64 149.20 189.93 142.99 C 187.51 141.47 184.75 140.30 182.92 138.02 C 181.02 135.67 179.35 133.13 177.41 130.81 C 176.14 129.16 174.65 127.72 173.13 126.31 C 172.53 126.62 171.35 127.25 170.76 127.57 C 169.12 128.42 167.48 129.27 165.87 130.15 C 167.12 130.73 168.40 131.24 169.71 131.70 C 173.10 135.71 177.16 139.10 180.41 143.24 L 180.63 144.32 C 177.08 141.38 174.13 137.81 170.83 134.60 C 170.26 134.59 169.11 134.56 168.54 134.55 C 168.63 135.25 168.81 136.65 168.91 137.35 C 168.01 135.81 167.08 134.29 166.25 132.72 C 165.53 130.38 164.60 128.09 163.17 126.09 L 161.63 126.90 C 158.87 128.65 155.67 129.38 152.47 129.80 C 152.02 128.15 151.56 126.51 151.19 124.85 C 150.46 119.91 149.56 114.68 145.98 110.90 C 142.48 107.62 137.34 108.24 133.53 110.61 C 126.45 115.10 121.39 122.03 117.01 129.04 C 114.23 133.49 112.99 138.63 111.36 143.55 C 109.11 150.26 109.80 157.47 110.46 164.38 C 110.96 170.27 114.88 175.99 112.55 181.94 C 112.05 183.52 111.49 185.07 110.96 186.65 L 112.51 186.29 L 114.22 186.14 C 113.17 187.28 111.74 187.75 110.24 187.89 C 110.96 183.70 113.36 179.49 111.97 175.19 C 108.47 164.18 107.43 151.87 111.39 140.82 C 105.06 140.76 99.10 138.55 93.19 136.55 C 90.40 135.65 88.08 133.80 85.80 132.02 C 84.83 133.04 83.86 134.08 82.87 135.10 C 83.35 133.81 83.83 132.52 84.30 131.23 C 82.83 129.57 81.38 127.89 79.91 126.24 C 77.90 129.94 75.72 133.55 73.44 137.08 L 71.81 138.31 C 73.27 134.70 76.73 131.86 77.31 128.00 C 76.71 127.93 75.52 127.79 74.93 127.72 C 76.30 126.78 77.78 126.04 79.24 125.26 C 78.19 124.30 77.13 123.34 75.95 122.54 C 73.65 123.43 71.64 124.94 69.39 125.95 C 69.62 125.57 70.10 124.82 70.34 124.44 C 71.37 123.64 72.41 122.86 73.45 122.07 C 71.92 121.79 70.38 121.53 68.83 121.28 C 68.35 121.75 67.40 122.67 66.92 123.13 C 66.19 124.61 65.60 126.14 64.95 127.65 C 66.33 127.15 67.71 126.64 69.08 126.11 C 66.38 127.72 63.65 129.31 61.05 131.07 C 59.75 132.16 58.46 133.36 57.85 134.98 C 55.95 139.48 54.57 144.18 53.38 148.91 C 52.50 148.37 51.63 147.84 50.75 147.31 C 50.68 149.19 49.64 151.34 50.83 153.05 C 52.90 156.21 55.62 158.89 58.62 161.17 C 58.09 159.73 57.51 158.30 56.89 156.89 C 58.41 158.12 59.11 159.97 59.82 161.72 C 56.47 161.65 54.51 158.71 52.43 156.53 C 51.24 155.07 49.70 153.74 49.14 151.89 C 49.40 149.96 49.93 148.08 50.37 146.19 C 49.76 144.37 49.27 142.52 48.90 140.64 C 48.41 140.87 47.43 141.32 46.95 141.54 C 48.11 138.90 50.00 136.70 52.19 134.85 C 51.36 136.27 50.48 137.66 49.58 139.04 C 49.96 142.12 50.76 145.21 52.79 147.65 C 53.53 143.18 55.13 138.92 56.82 134.74 C 58.16 130.70 63.52 129.91 64.69 125.75 C 68.32 117.07 65.94 106.95 60.26 99.74 C 56.35 98.62 52.29 100.04 48.68 101.52 C 48.24 101.74 47.36 102.17 46.93 102.39 C 44.58 103.65 42.29 105.00 39.95 106.27 C 40.98 103.94 43.60 103.17 45.64 102.03 M 76.42 102.40 C 74.74 104.49 75.13 107.34 75.56 109.79 L 75.42 110.14 C 77.07 112.61 79.74 115.25 83.00 114.27 C 86.35 113.92 88.14 110.75 89.58 108.09 C 89.20 106.36 89.00 104.56 88.36 102.90 C 87.41 101.28 85.58 100.51 84.10 99.48 C 81.23 99.02 78.13 99.94 76.42 102.40 M 96.01 103.32 L 96.84 103.99 L 95.92 103.39 C 95.42 105.59 95.22 107.84 95.37 110.10 C 95.96 111.02 96.54 111.96 97.11 112.90 C 99.24 114.08 101.41 115.82 104.01 115.30 C 108.90 114.74 111.61 109.12 110.12 104.67 L 109.33 105.56 L 109.92 104.27 C 108.18 102.38 106.19 100.72 103.97 99.43 C 103.22 99.45 101.73 99.50 100.98 99.52 C 99.27 100.72 97.58 101.95 96.01 103.32 M 88.89 110.38 L 90.11 110.71 L 89.28 110.62 C 88.00 112.12 86.63 113.53 85.24 114.93 L 85.02 114.79 C 81.03 116.35 76.73 114.78 74.82 110.93 C 74.06 111.89 73.30 112.86 72.54 113.83 C 72.91 115.07 73.28 116.31 73.62 117.56 C 75.43 119.80 77.83 121.43 80.00 123.28 C 84.43 124.24 88.54 126.37 93.08 126.85 C 97.93 127.71 102.94 127.23 107.64 125.80 C 110.70 124.83 112.77 121.89 116.03 121.39 C 118.13 117.22 113.97 112.32 109.97 111.47 L 110.44 112.55 C 109.01 113.67 107.67 114.97 106.00 115.74 C 103.69 117.01 101.08 115.90 98.67 115.62 C 97.26 114.30 95.88 112.92 94.88 111.26 L 94.72 111.24 C 94.49 110.53 94.02 109.11 93.78 108.39 C 91.89 106.45 89.96 108.94 88.89 110.38 M 66.74 111.62 C 67.18 114.68 67.27 117.77 67.46 120.86 C 69.88 120.19 72.36 120.39 74.70 121.26 C 73.29 117.14 70.20 114.09 66.74 111.62 M 116.70 122.70 C 114.61 126.72 110.19 128.84 105.99 129.89 C 98.60 131.06 90.36 131.65 83.80 127.38 C 84.80 127.57 85.79 127.79 86.79 128.02 C 91.94 130.08 97.66 130.25 103.08 129.40 C 107.57 128.24 112.92 127.37 115.14 122.69 C 112.20 124.34 109.31 126.21 105.99 127.02 C 99.65 128.59 93.09 127.23 86.77 126.63 C 85.61 124.89 82.27 124.92 80.43 123.91 C 83.79 131.63 91.96 135.99 99.95 137.27 C 103.51 139.09 107.37 140.36 111.43 140.10 C 111.38 139.39 111.27 137.97 111.22 137.26 L 111.86 137.24 C 113.59 131.95 117.24 127.65 119.60 122.67 C 120.84 121.47 121.83 120.10 122.56 118.53 C 120.44 119.61 117.76 120.33 116.70 122.70 M 168.05 132.35 C 167.63 133.75 168.13 134.25 169.53 133.85 C 169.94 132.46 169.45 131.96 168.05 132.35 Z" />
<path fill="#141211" opacity="1.00" d=" M 178.83 105.76 C 183.82 111.22 187.36 121.00 181.83 127.22 C 181.99 126.77 182.30 125.87 182.46 125.42 C 183.45 122.94 183.96 120.28 183.69 117.60 C 183.06 113.29 180.61 109.64 178.83 105.76 Z" />
<path fill="#141211" opacity="1.00" d=" M 157.49 131.48 C 157.94 131.46 158.86 131.43 159.32 131.41 C 161.97 137.08 164.80 142.72 168.49 147.79 C 169.37 149.13 170.52 150.38 170.94 151.97 C 170.34 155.67 168.74 159.09 167.44 162.58 C 166.22 165.48 165.08 168.87 161.99 170.29 C 165.96 164.88 168.55 158.39 170.00 151.88 C 166.64 146.84 163.56 141.61 160.31 136.49 C 157.48 137.22 154.59 137.61 151.69 137.75 C 149.76 142.54 149.47 148.23 145.93 152.22 C 148.27 146.33 150.34 140.25 150.85 133.90 C 151.37 134.91 151.89 135.92 152.41 136.93 C 154.97 136.75 157.52 136.40 160.06 135.95 C 159.36 134.66 158.65 133.37 157.90 132.11 L 157.49 131.48 Z" />
<path fill="#141211" opacity="1.00" d=" M 64.61 151.15 C 65.52 148.60 64.56 145.54 66.33 143.32 C 66.31 147.30 65.53 151.20 64.65 155.06 C 64.06 156.24 65.36 157.00 65.98 157.80 C 67.36 159.20 68.77 160.60 70.29 161.86 C 70.69 161.77 71.48 161.58 71.87 161.49 C 72.09 161.43 72.53 161.32 72.74 161.27 C 72.79 161.98 72.89 163.40 72.94 164.11 C 69.20 162.46 66.21 159.53 63.59 156.47 C 62.97 154.73 64.37 152.90 64.61 151.15 Z" />
<path fill="#141211" opacity="1.00" d=" M 34.18 176.48 C 35.72 166.86 37.43 156.68 43.19 148.57 C 41.96 152.69 39.63 156.39 38.48 160.56 C 36.34 166.51 36.15 172.92 34.43 178.99 C 31.07 178.15 28.56 174.92 27.92 171.60 C 29.79 174.05 31.60 176.57 33.93 178.61 C 33.99 178.08 34.12 177.01 34.18 176.48 Z" />
</g>
<g id="#df9b2aff">
<path fill="#df9b2a" opacity="1.00" d=" M 150.82 51.94 C 151.34 51.67 152.39 51.15 152.91 50.88 C 155.90 51.99 159.28 54.09 158.32 57.85 C 156.81 57.83 155.31 57.82 153.81 57.81 C 152.34 56.63 150.90 55.42 149.48 54.19 C 149.82 53.63 150.49 52.50 150.82 51.94 Z" />
</g>
<g id="#efbb3bff">
<path fill="#efbb3b" opacity="1.00" d=" M 130.01 55.95 C 134.65 54.24 139.72 55.83 144.20 57.36 C 147.11 58.38 149.50 60.39 150.92 63.14 C 148.53 66.80 143.83 66.91 140.04 65.71 C 136.46 64.58 132.61 63.77 129.51 61.56 C 127.58 60.16 127.49 56.76 130.01 55.95 Z" />
</g>
<g id="#eebc39ff">
<path fill="#eebc39" opacity="1.00" d=" M 81.06 65.40 C 83.21 63.85 85.05 61.92 86.69 59.84 C 87.33 60.11 88.61 60.66 89.24 60.93 C 91.15 61.37 91.34 64.75 89.36 65.21 C 86.32 66.85 82.76 66.69 79.41 66.72 C 79.82 66.39 80.65 65.73 81.06 65.40 Z" />
</g>
<g id="#2e2026c2">
<path fill="#2e2026" opacity="0.76" d=" M 68.01 73.10 C 70.93 71.72 73.43 69.48 76.61 68.68 C 70.35 74.11 62.07 76.35 55.48 81.33 C 53.96 82.36 52.42 83.35 50.89 84.36 C 51.82 82.21 54.03 81.19 55.82 79.89 C 59.66 77.24 63.84 75.17 68.01 73.10 Z" />
</g>
<g id="#db9930ff">
<path fill="#db9930" opacity="1.00" d=" M 163.63 76.80 C 163.30 74.38 164.36 72.36 166.48 71.17 C 166.81 73.51 167.05 75.86 167.42 78.20 C 166.15 77.74 164.89 77.27 163.63 76.80 Z" />
</g>
<g id="#f0bd3dff">
<path fill="#f0bd3d" opacity="1.00" d=" M 89.41 74.68 C 97.30 73.25 106.21 72.55 113.46 76.59 C 116.77 78.11 116.58 83.38 113.01 84.46 C 106.70 84.84 100.37 84.17 94.05 84.54 C 90.52 84.38 86.10 84.93 83.48 82.06 C 82.54 78.34 86.31 75.65 89.41 74.68 Z" />
</g>
<g id="#af6d8bff">
<path fill="#af6d8b" opacity="1.00" d=" M 163.81 80.82 C 163.75 79.48 163.66 78.14 163.63 76.80 C 164.89 77.27 166.15 77.74 167.42 78.20 C 168.75 83.65 169.54 89.39 172.56 94.24 C 171.83 94.59 171.10 94.92 170.37 95.24 C 167.95 94.23 165.65 92.68 162.99 92.44 C 161.04 92.32 159.73 94.07 158.24 95.03 C 157.67 89.69 159.44 84.15 163.81 80.82 Z" />
</g>
<g id="#cd85a2ff">
<path fill="#cd85a2" opacity="1.00" d=" M 50.89 84.36 C 52.42 83.35 53.96 82.36 55.48 81.33 C 56.66 81.48 57.85 81.62 59.03 81.75 C 60.64 83.75 62.09 85.88 63.35 88.11 C 59.75 88.80 55.55 89.18 53.01 92.15 C 51.60 93.89 52.72 96.11 53.39 97.90 L 54.30 98.28 C 51.55 99.14 48.87 100.20 46.18 101.24 C 45.04 95.41 46.82 89.66 50.20 84.91 C 50.37 84.77 50.72 84.49 50.89 84.36 Z" />
</g>
<g id="#edb434ff">
<path fill="#edb434" opacity="1.00" d=" M 136.47 82.88 C 137.92 79.86 142.13 81.67 144.68 82.04 C 143.36 83.86 141.78 85.47 140.02 86.87 C 138.61 85.90 135.79 85.18 136.47 82.88 Z" />
</g>
<g id="#d99824ff">
<path fill="#d99824" opacity="1.00" d=" M 144.68 82.04 L 145.17 82.28 C 146.05 83.33 148.28 84.34 147.34 85.98 C 145.98 88.19 143.21 87.34 141.14 87.09 C 140.86 87.04 140.30 86.93 140.02 86.87 C 141.78 85.47 143.36 83.86 144.68 82.04 Z" />
</g>
<g id="#d89cb4ff">
<path fill="#d89cb4" opacity="1.00" d=" M 72.22 85.26 C 72.68 86.07 73.15 86.88 73.61 87.70 C 77.86 86.89 82.31 84.98 86.57 86.76 C 83.19 88.43 79.82 90.21 77.05 92.81 C 83.44 92.96 89.83 93.24 96.21 92.96 C 99.97 93.40 103.86 93.71 107.31 95.41 C 102.53 96.04 97.70 95.61 92.91 95.93 C 90.27 96.11 88.31 98.15 86.19 99.49 C 82.98 97.58 79.44 99.03 76.45 100.59 C 74.95 100.97 73.41 101.24 71.88 101.52 C 70.99 100.98 70.10 100.44 69.21 99.91 C 69.20 100.49 69.19 101.65 69.18 102.23 C 68.71 101.86 67.78 101.12 67.31 100.75 C 66.29 101.80 65.26 102.84 64.23 103.87 C 63.18 102.02 62.33 99.83 60.52 98.57 C 58.55 97.78 56.35 98.29 54.30 98.28 L 53.39 97.90 C 58.65 97.35 64.19 97.17 69.09 95.05 C 72.27 92.46 69.15 88.07 65.80 87.69 C 67.98 86.99 70.09 86.10 72.22 85.26 Z" />
</g>
<g id="#f0c23fff">
<path fill="#f0c23f" opacity="1.00" d=" M 53.01 92.15 C 55.55 89.18 59.75 88.80 63.35 88.11 C 63.96 88.01 65.19 87.80 65.80 87.69 C 69.15 88.07 72.27 92.46 69.09 95.05 C 64.19 97.17 58.65 97.35 53.39 97.90 C 52.72 96.11 51.60 93.89 53.01 92.15 Z" />
</g>
<g id="#dda231ff">
<path fill="#dda231" opacity="1.00" d=" M 158.24 95.03 C 159.73 94.07 161.04 92.32 162.99 92.44 C 165.65 92.68 167.95 94.23 170.37 95.24 C 171.59 95.89 172.84 96.50 174.05 97.20 L 174.55 97.48 C 174.63 97.90 174.81 98.74 174.90 99.16 C 175.18 101.03 176.19 102.69 177.45 104.08 C 170.67 105.93 163.40 103.64 158.38 98.89 C 158.32 97.60 158.27 96.32 158.24 95.03 Z" />
</g>
<g id="#ecb238ff">
<path fill="#ecb238" opacity="1.00" d=" M 120.74 97.91 C 119.51 95.78 122.05 93.84 123.96 93.61 C 127.49 93.48 130.97 94.26 134.42 94.90 C 137.57 96.03 140.89 97.73 141.84 101.25 C 137.47 100.44 132.98 100.14 128.64 101.32 C 125.95 100.57 122.21 100.73 120.74 97.91 Z" />
</g>
<g id="#ae6a88ff">
<path fill="#ae6a88" opacity="1.00" d=" M 159.53 102.51 C 158.54 101.56 158.50 100.15 158.38 98.89 C 163.40 103.64 170.67 105.93 177.45 104.08 L 177.90 103.99 C 178.13 104.44 178.60 105.32 178.83 105.76 C 180.61 109.64 183.06 113.29 183.69 117.60 C 183.00 117.34 181.64 116.80 180.96 116.53 C 180.65 114.90 180.34 113.28 180.02 111.65 C 172.16 112.42 164.66 108.19 159.53 102.51 Z" />
</g>
<g id="#2b1e0ec9">
<path fill="#2b1e0e" opacity="0.79" d=" M 174.90 99.16 C 176.80 99.14 178.20 102.26 177.90 103.99 L 177.45 104.08 C 176.19 102.69 175.18 101.03 174.90 99.16 Z" />
</g>
<g id="#e89657ff">
<path fill="#e89657" opacity="1.00" d=" M 48.68 101.52 C 52.29 100.04 56.35 98.62 60.26 99.74 C 57.81 102.67 58.05 106.81 55.83 109.86 C 51.20 116.76 44.12 121.51 39.15 128.12 C 32.52 136.90 29.99 148.17 29.80 158.99 C 30.47 164.89 29.47 171.97 34.18 176.48 C 34.12 177.01 33.99 178.08 33.93 178.61 C 31.60 176.57 29.79 174.05 27.92 171.60 L 27.60 171.17 C 27.49 170.84 27.28 170.19 27.18 169.86 C 25.59 165.62 24.23 161.27 24.00 156.72 C 25.67 151.16 25.25 145.20 24.39 139.53 C 23.77 144.78 23.98 150.08 23.85 155.36 C 22.29 145.68 23.48 135.62 27.37 126.60 C 27.84 127.71 28.31 128.82 28.78 129.92 C 31.58 125.55 33.83 120.78 37.50 117.03 C 37.55 118.06 37.60 119.09 37.64 120.12 C 41.05 116.65 44.78 113.53 48.49 110.40 C 50.52 108.83 51.54 106.45 52.30 104.08 C 51.08 103.23 49.88 102.38 48.68 101.52 Z" />
</g>
<g id="#a45f7eff">
<path fill="#a45f7e" opacity="1.00" d=" M 69.21 99.91 C 70.10 100.44 70.99 100.98 71.88 101.52 C 73.41 101.24 74.95 100.97 76.45 100.59 C 74.88 103.01 74.31 105.85 73.92 108.66 C 71.83 109.47 69.76 110.30 67.70 111.16 C 66.44 108.78 65.35 106.32 64.23 103.87 C 65.26 102.84 66.29 101.80 67.31 100.75 C 67.78 101.12 68.71 101.86 69.18 102.23 C 69.19 101.65 69.20 100.49 69.21 99.91 Z" />
</g>
<g id="#f5f5f9ff">
<path fill="#f5f5f9" opacity="1.00" d=" M 76.42 102.40 C 78.13 99.94 81.23 99.02 84.10 99.48 C 83.53 101.42 83.06 103.41 82.23 105.26 C 80.65 106.28 78.98 104.96 77.42 104.56 C 76.87 106.33 76.28 108.08 75.56 109.79 C 75.13 107.34 74.74 104.49 76.42 102.40 Z" />
<path fill="#f5f5f9" opacity="1.00" d=" M 96.01 103.32 C 97.58 101.95 99.27 100.72 100.98 99.52 C 101.73 99.50 103.22 99.45 103.97 99.43 C 103.53 101.70 104.63 105.18 101.90 106.25 C 99.97 106.32 98.39 104.96 96.84 103.99 L 96.01 103.32 Z" />
</g>
<g id="#e0e2f2ff">
<path fill="#e0e2f2" opacity="1.00" d=" M 84.10 99.48 C 85.58 100.51 87.41 101.28 88.36 102.90 C 89.00 104.56 89.20 106.36 89.58 108.09 C 88.14 110.75 86.35 113.92 83.00 114.27 C 79.74 115.25 77.07 112.61 75.42 110.14 L 75.56 109.79 C 76.28 108.08 76.87 106.33 77.42 104.56 C 78.98 104.96 80.65 106.28 82.23 105.26 C 83.06 103.41 83.53 101.42 84.10 99.48 Z" />
</g>
<g id="#a25f7cff">
<path fill="#a25f7c" opacity="1.00" d=" M 87.79 100.18 C 90.78 100.02 93.95 99.34 96.68 100.98 C 95.59 102.89 94.78 104.94 94.01 107.00 C 92.97 106.81 91.93 106.63 90.89 106.45 C 89.97 104.30 89.00 102.18 87.79 100.18 Z" />
</g>
<g id="#e1e2f2ff">
<path fill="#e1e2f2" opacity="1.00" d=" M 103.97 99.43 C 106.19 100.72 108.18 102.38 109.92 104.27 L 109.33 105.56 C 107.71 107.48 106.45 110.10 103.92 110.95 C 101.05 111.35 98.19 110.53 95.37 110.10 C 95.22 107.84 95.42 105.59 95.92 103.39 L 96.84 103.99 C 98.39 104.96 99.97 106.32 101.90 106.25 C 104.63 105.18 103.53 101.70 103.97 99.43 Z" />
</g>
<g id="#db9b24ff">
<path fill="#db9b24" opacity="1.00" d=" M 128.64 101.32 C 132.98 100.14 137.47 100.44 141.84 101.25 C 139.43 105.44 134.43 102.85 130.91 101.95 C 130.34 101.79 129.21 101.48 128.64 101.32 Z" />
</g>
<g id="#bf8150ff">
<path fill="#bf8150" opacity="1.00" d=" M 55.83 109.86 C 58.05 106.81 57.81 102.67 60.26 99.74 C 65.94 106.95 68.32 117.07 64.69 125.75 C 63.52 129.91 58.16 130.70 56.82 134.74 C 55.13 138.92 53.53 143.18 52.79 147.65 C 50.76 145.21 49.96 142.12 49.58 139.04 C 50.48 137.66 51.36 136.27 52.19 134.85 C 50.00 136.70 48.11 138.90 46.95 141.54 L 46.69 142.02 C 44.98 143.06 44.40 145.03 43.94 146.86 C 43.75 147.29 43.38 148.14 43.19 148.57 C 37.43 156.68 35.72 166.86 34.18 176.48 C 29.47 171.97 30.47 164.89 29.80 158.99 C 29.99 148.17 32.52 136.90 39.15 128.12 C 44.12 121.51 51.20 116.76 55.83 109.86 Z" />
</g>
<g id="#ebab7bff">
<path fill="#ebab7b" opacity="1.00" d=" M 46.93 102.39 C 47.36 102.17 48.24 101.74 48.68 101.52 C 49.88 102.38 51.08 103.23 52.30 104.08 C 51.54 106.45 50.52 108.83 48.49 110.40 C 44.78 113.53 41.05 116.65 37.64 120.12 C 37.60 119.09 37.55 118.06 37.50 117.03 C 33.83 120.78 31.58 125.55 28.78 129.92 C 28.31 128.82 27.84 127.71 27.37 126.60 C 29.41 121.81 31.81 117.15 34.75 112.85 C 35.14 113.30 35.94 114.19 36.34 114.64 C 40.89 112.28 45.67 109.95 49.19 106.12 C 50.73 104.25 48.16 103.30 46.93 102.39 Z" />
</g>
<g id="#edbb96ff">
<path fill="#edbb96" opacity="1.00" d=" M 39.95 106.27 C 42.29 105.00 44.58 103.65 46.93 102.39 C 48.16 103.30 50.73 104.25 49.19 106.12 C 45.67 109.95 40.89 112.28 36.34 114.64 C 35.94 114.19 35.14 113.30 34.75 112.85 C 36.22 110.81 37.87 108.91 39.32 106.85 L 39.62 106.45 L 39.95 106.27 Z" />
</g>
<g id="#c7cce3ff">
<path fill="#c7cce3" opacity="1.00" d=" M 109.33 105.56 L 110.12 104.67 C 111.61 109.12 108.90 114.74 104.01 115.30 C 101.41 115.82 99.24 114.08 97.11 112.90 C 96.54 111.96 95.96 111.02 95.37 110.10 C 98.19 110.53 101.05 111.35 103.92 110.95 C 106.45 110.10 107.71 107.48 109.33 105.56 Z" />
</g>
<g id="#2c1d12b6">
<path fill="#2c1d12" opacity="0.71" d=" M 36.16 109.19 C 37.04 108.24 37.85 106.88 39.32 106.85 C 37.87 108.91 36.22 110.81 34.75 112.85 C 31.81 117.15 29.41 121.81 27.37 126.60 C 23.48 135.62 22.29 145.68 23.85 155.36 L 24.00 156.72 C 24.23 161.27 25.59 165.62 27.18 169.86 L 26.38 170.15 C 25.43 167.88 24.35 165.62 23.92 163.18 C 22.30 153.52 20.91 143.40 23.83 133.84 C 26.54 125.04 30.22 116.33 36.16 109.19 Z" />
</g>
<g id="#d08a54ff">
<path fill="#d08a54" opacity="1.00" d=" M 88.89 110.38 C 89.96 108.94 91.89 106.45 93.78 108.39 C 94.02 109.11 94.49 110.53 94.72 111.24 C 93.18 111.08 91.64 110.91 90.11 110.71 L 88.89 110.38 Z" />
</g>
<g id="#e79557ff">
<path fill="#e79557" opacity="1.00" d=" M 133.53 110.61 C 137.34 108.24 142.48 107.62 145.98 110.90 C 143.18 114.16 143.95 118.82 142.75 122.72 C 139.34 137.15 135.55 151.87 127.44 164.48 C 123.08 171.15 118.34 177.62 112.87 183.43 L 112.55 181.94 C 114.88 175.99 110.96 170.27 110.46 164.38 C 109.80 157.47 109.11 150.26 111.36 143.55 C 112.99 138.63 114.23 133.49 117.01 129.04 C 121.39 122.03 126.45 115.10 133.53 110.61 M 135.82 113.89 C 130.52 117.48 131.52 124.45 130.99 129.97 C 130.64 131.93 131.14 133.82 132.09 135.54 C 132.56 135.53 133.51 135.50 133.99 135.49 C 133.52 138.30 132.49 140.96 131.76 143.70 C 131.40 146.47 131.53 149.29 131.19 152.08 C 131.89 151.18 132.74 150.36 133.20 149.30 C 136.15 141.76 137.92 133.85 140.23 126.11 C 140.73 124.34 140.78 122.50 140.90 120.68 C 141.91 118.01 141.74 115.12 141.55 112.33 C 139.51 112.18 137.26 112.17 135.82 113.89 Z" />
<path fill="#e79557" opacity="1.00" d=" M 72.54 113.83 C 73.30 112.86 74.06 111.89 74.82 110.93 C 76.73 114.78 81.03 116.35 85.02 114.79 L 85.24 114.93 C 88.97 118.10 94.65 118.47 98.67 115.62 C 101.08 115.90 103.69 117.01 106.00 115.74 C 107.67 114.97 109.01 113.67 110.44 112.55 C 113.31 115.93 109.22 119.00 106.32 120.29 C 99.87 122.82 92.62 122.37 85.99 120.83 C 81.80 119.95 78.05 117.15 73.62 117.56 C 73.28 116.31 72.91 115.07 72.54 113.83 Z" />
</g>
<g id="#efbc96ff">
<path fill="#efbc96" opacity="1.00" d=" M 89.28 110.62 L 90.11 110.71 C 91.64 110.91 93.18 111.08 94.72 111.24 L 94.88 111.26 C 95.88 112.92 97.26 114.30 98.67 115.62 C 94.65 118.47 88.97 118.10 85.24 114.93 C 86.63 113.53 88.00 112.12 89.28 110.62 Z" />
<path fill="#efbc96" opacity="1.00" d=" M 135.82 113.89 C 137.26 112.17 139.51 112.18 141.55 112.33 C 141.74 115.12 141.91 118.01 140.90 120.68 C 140.08 122.95 139.00 125.11 137.84 127.22 C 136.69 122.88 134.53 118.47 135.82 113.89 Z" />
</g>
<g id="#986948ff">
<path fill="#986948" opacity="1.00" d=" M 66.74 111.62 C 70.20 114.09 73.29 117.14 74.70 121.26 C 72.36 120.39 69.88 120.19 67.46 120.86 C 67.27 117.77 67.18 114.68 66.74 111.62 Z" />
</g>
<g id="#be8051ff">
<path fill="#be8051" opacity="1.00" d=" M 109.97 111.47 C 113.97 112.32 118.13 117.22 116.03 121.39 C 112.77 121.89 110.70 124.83 107.64 125.80 C 102.94 127.23 97.93 127.71 93.08 126.85 C 88.54 126.37 84.43 124.24 80.00 123.28 C 77.83 121.43 75.43 119.80 73.62 117.56 C 78.05 117.15 81.80 119.95 85.99 120.83 C 92.62 122.37 99.87 122.82 106.32 120.29 C 109.22 119.00 113.31 115.93 110.44 112.55 L 109.97 111.47 Z" />
<path fill="#be8051" opacity="1.00" d=" M 168.49 147.79 C 172.01 147.41 175.27 148.97 178.48 150.17 C 177.35 156.31 174.01 161.65 171.79 167.39 C 171.69 167.69 171.49 168.28 171.39 168.58 L 170.80 168.90 C 170.55 169.37 170.05 170.29 169.79 170.76 C 167.36 174.77 161.19 173.94 157.05 174.48 C 157.60 173.02 158.60 172.00 160.05 171.42 L 160.17 171.35 L 160.29 171.29 C 160.71 171.04 161.57 170.54 161.99 170.29 C 165.08 168.87 166.22 165.48 167.44 162.58 C 168.74 159.09 170.34 155.67 170.94 151.97 C 170.52 150.38 169.37 149.13 168.49 147.79 Z" />
</g>
<g id="#be8050ff">
<path fill="#be8050" opacity="1.00" d=" M 142.75 122.72 C 143.95 118.82 143.18 114.16 145.98 110.90 C 149.56 114.68 150.46 119.91 151.19 124.85 C 151.18 127.87 151.04 130.89 150.85 133.90 C 150.34 140.25 148.27 146.33 145.93 152.22 C 145.77 152.52 145.44 153.12 145.28 153.41 C 142.29 157.52 139.19 161.57 136.71 166.01 L 136.35 166.65 L 135.68 166.81 C 134.52 166.99 133.89 167.67 133.80 168.84 L 133.68 169.62 L 132.92 169.83 C 131.90 170.11 131.22 170.78 130.88 171.85 C 130.67 172.06 130.25 172.47 130.04 172.68 C 124.67 176.74 119.36 180.94 114.47 185.56 C 113.98 185.75 113.00 186.11 112.51 186.29 L 110.96 186.65 C 111.49 185.07 112.05 183.52 112.55 181.94 L 112.87 183.43 C 118.34 177.62 123.08 171.15 127.44 164.48 C 135.55 151.87 139.34 137.15 142.75 122.72 Z" />
</g>
<g id="#e7a87aff">
<path fill="#e7a87a" opacity="1.00" d=" M 130.99 129.97 C 131.52 124.45 130.52 117.48 135.82 113.89 C 134.53 118.47 136.69 122.88 137.84 127.22 C 139.00 125.11 140.08 122.95 140.90 120.68 C 140.78 122.50 140.73 124.34 140.23 126.11 C 137.92 133.85 136.15 141.76 133.20 149.30 C 132.74 150.36 131.89 151.18 131.19 152.08 C 131.53 149.29 131.40 146.47 131.76 143.70 C 132.49 140.96 133.52 138.30 133.99 135.49 C 133.51 135.50 132.56 135.53 132.09 135.54 C 131.14 133.82 130.64 131.93 130.99 129.97 Z" />
</g>
<g id="#dd9929ff">
<path fill="#dd9929" opacity="1.00" d=" M 173.49 116.49 C 175.70 114.80 178.59 115.81 180.96 116.53 C 181.64 116.80 183.00 117.34 183.69 117.60 C 183.96 120.28 183.45 122.94 182.46 125.42 C 179.53 123.62 176.30 122.35 173.40 120.49 C 171.94 119.58 171.93 117.33 173.49 116.49 Z" />
</g>
<g id="#956848ff">
<path fill="#956848" opacity="1.00" d=" M 116.70 122.70 C 117.76 120.33 120.44 119.61 122.56 118.53 C 121.83 120.10 120.84 121.47 119.60 122.67 C 117.24 127.65 113.59 131.95 111.86 137.24 L 111.22 137.26 C 107.46 137.39 103.70 137.52 99.95 137.27 C 91.96 135.99 83.79 131.63 80.43 123.91 C 82.27 124.92 85.61 124.89 86.77 126.63 L 86.79 128.02 C 85.79 127.79 84.80 127.57 83.80 127.38 C 90.36 131.65 98.60 131.06 105.99 129.89 C 110.19 128.84 114.61 126.72 116.70 122.70 Z" />
</g>
<g id="#784f60ff">
<path fill="#784f60" opacity="1.00" d=" M 66.92 123.13 C 67.40 122.67 68.35 121.75 68.83 121.28 C 70.38 121.53 71.92 121.79 73.45 122.07 C 72.41 122.86 71.37 123.64 70.34 124.44 C 69.48 124.11 67.77 123.46 66.92 123.13 Z" />
</g>
<g id="#976848ff">
<path fill="#976848" opacity="1.00" d=" M 69.39 125.95 C 71.64 124.94 73.65 123.43 75.95 122.54 C 77.13 123.34 78.19 124.30 79.24 125.26 C 77.78 126.04 76.30 126.78 74.93 127.72 L 74.03 128.58 C 73.69 128.64 73.03 128.76 72.69 128.81 C 72.29 129.14 71.47 129.81 71.06 130.14 C 70.82 130.27 70.34 130.53 70.10 130.65 C 67.19 131.72 64.08 132.93 62.49 135.80 L 62.37 135.95 C 61.99 134.31 61.52 132.69 61.05 131.07 C 63.65 129.31 66.38 127.72 69.08 126.11 L 69.39 125.95 Z" />
</g>
<g id="#c48352ff">
<path fill="#c48352" opacity="1.00" d=" M 105.99 127.02 C 109.31 126.21 112.20 124.34 115.14 122.69 C 112.92 127.37 107.57 128.24 103.08 129.40 C 97.66 130.25 91.94 130.08 86.79 128.02 L 86.77 126.63 C 93.09 127.23 99.65 128.59 105.99 127.02 Z" />
<path fill="#c48352" opacity="1.00" d=" M 57.85 134.98 C 58.46 133.36 59.75 132.16 61.05 131.07 C 61.52 132.69 61.99 134.31 62.37 135.95 L 61.79 136.86 C 60.73 137.85 59.91 139.09 59.79 140.57 C 58.82 144.90 55.88 148.56 55.23 152.99 C 54.99 154.49 56.38 155.58 56.89 156.89 C 57.51 158.30 58.09 159.73 58.62 161.17 C 55.62 158.89 52.90 156.21 50.83 153.05 C 49.64 151.34 50.68 149.19 50.75 147.31 C 51.63 147.84 52.50 148.37 53.38 148.91 C 54.57 144.18 55.95 139.48 57.85 134.98 Z" />
</g>
<g id="#433027ff">
<path fill="#433027" opacity="1.00" d=" M 151.19 124.85 C 151.56 126.51 152.02 128.15 152.47 129.80 C 152.38 130.45 152.30 131.10 152.21 131.75 C 153.97 131.64 155.73 131.53 157.49 131.48 L 157.90 132.11 C 155.54 133.06 153.71 134.78 152.41 136.93 C 151.89 135.92 151.37 134.91 150.85 133.90 C 151.04 130.89 151.18 127.87 151.19 124.85 Z" />
</g>
<g id="#836047ff">
<path fill="#836047" opacity="1.00" d=" M 73.44 137.08 C 75.72 133.55 77.90 129.94 79.91 126.24 C 81.38 127.89 82.83 129.57 84.30 131.23 C 83.83 132.52 83.35 133.81 82.87 135.10 L 82.64 135.73 L 81.82 136.00 C 80.10 136.31 78.95 137.85 78.84 139.55 L 78.63 140.64 L 77.73 140.80 C 76.66 140.96 76.03 141.61 75.84 142.76 C 74.92 144.86 73.03 146.33 71.60 148.08 C 70.26 147.36 68.92 146.64 67.60 145.88 C 69.66 143.05 72.92 140.76 73.44 137.08 Z" />
</g>
<g id="#e79558ff">
<path fill="#e79558" opacity="1.00" d=" M 152.47 129.80 C 155.67 129.38 158.87 128.65 161.63 126.90 C 161.58 130.17 163.60 132.63 166.07 134.49 L 166.25 132.72 C 167.08 134.29 168.01 135.81 168.91 137.35 C 169.12 137.83 169.55 138.81 169.76 139.29 C 170.08 140.50 170.73 141.74 171.97 142.21 L 172.29 142.38 L 172.43 142.57 C 173.99 145.13 176.38 146.96 178.57 148.95 L 178.48 150.17 C 175.27 148.97 172.01 147.41 168.49 147.79 C 164.80 142.72 161.97 137.08 159.32 131.41 C 158.86 131.43 157.94 131.46 157.49 131.48 C 155.73 131.53 153.97 131.64 152.21 131.75 C 152.30 131.10 152.38 130.45 152.47 129.80 Z" />
</g>
<g id="#e7a878ff">
<path fill="#e7a878" opacity="1.00" d=" M 161.63 126.90 L 163.17 126.09 C 164.60 128.09 165.53 130.38 166.25 132.72 L 166.07 134.49 C 163.60 132.63 161.58 130.17 161.63 126.90 Z" />
</g>
<g id="#d89d74ff">
<path fill="#d89d74" opacity="1.00" d=" M 170.76 127.57 C 171.35 127.25 172.53 126.62 173.13 126.31 C 174.65 127.72 176.14 129.16 177.41 130.81 L 177.57 132.39 C 175.90 132.10 174.24 131.81 172.58 131.51 C 171.97 130.20 171.36 128.88 170.76 127.57 Z" />
</g>
<g id="#bc8054ff">
<path fill="#bc8054" opacity="1.00" d=" M 165.87 130.15 C 167.48 129.27 169.12 128.42 170.76 127.57 C 171.36 128.88 171.97 130.20 172.58 131.51 C 174.24 131.81 175.90 132.10 177.57 132.39 L 177.41 130.81 C 179.35 133.13 181.02 135.67 182.92 138.02 C 184.75 140.30 187.51 141.47 189.93 142.99 C 187.50 143.81 185.04 144.58 182.50 144.93 C 181.65 144.58 180.96 143.95 180.41 143.24 C 177.16 139.10 173.10 135.71 169.71 131.70 C 168.40 131.24 167.12 130.73 165.87 130.15 Z" />
</g>
<g id="#291e15d2">
<path fill="#291e15" opacity="0.82" d=" M 71.06 130.14 C 71.47 129.81 72.29 129.14 72.69 128.81 L 72.76 129.73 L 71.93 130.40 L 71.06 130.14 Z" />
</g>
<g id="#241a12c5">
<path fill="#241a12" opacity="0.77" d=" M 62.49 135.80 C 64.08 132.93 67.19 131.72 70.10 130.65 C 67.97 132.91 65.06 134.14 62.49 135.80 Z" />
</g>
<g id="#6a4557ff">
<path fill="#6a4557" opacity="1.00" d=" M 168.05 132.35 C 169.45 131.96 169.94 132.46 169.53 133.85 C 168.13 134.25 167.63 133.75 168.05 132.35 Z" />
</g>
<g id="#754d5dff">
<path fill="#754d5d" opacity="1.00" d=" M 152.41 136.93 C 153.71 134.78 155.54 133.06 157.90 132.11 C 158.65 133.37 159.36 134.66 160.06 135.95 C 157.52 136.40 154.97 136.75 152.41 136.93 Z" />
</g>
<g id="#2d2119d2">
<path fill="#2d2119" opacity="0.82" d=" M 78.84 139.55 C 78.95 137.85 80.10 136.31 81.82 136.00 C 82.35 137.48 80.42 139.96 78.84 139.55 Z" />
</g>
<g id="#322217e0">
<path fill="#322217" opacity="0.88" d=" M 59.79 140.57 C 59.91 139.09 60.73 137.85 61.79 136.86 C 62.89 138.09 61.49 141.24 59.79 140.57 Z" />
</g>
<g id="#5e4535ff">
<path fill="#5e4535" opacity="1.00" d=" M 99.95 137.27 C 103.70 137.52 107.46 137.39 111.22 137.26 C 111.27 137.97 111.38 139.39 111.43 140.10 C 107.37 140.36 103.51 139.09 99.95 137.27 Z" />
</g>
<g id="#c28557ff">
<path fill="#c28557" opacity="1.00" d=" M 71.81 138.31 L 73.44 137.08 C 72.92 140.76 69.66 143.05 67.60 145.88 C 67.31 145.70 66.73 145.34 66.44 145.16 C 66.88 144.08 67.36 143.01 67.86 141.95 C 68.15 141.73 68.74 141.30 69.03 141.08 C 70.02 140.70 70.73 140.02 71.16 139.06 C 71.32 138.87 71.65 138.50 71.81 138.31 Z" />
</g>
<g id="#17100ca2">
<path fill="#17100c" opacity="0.64" d=" M 69.03 141.08 C 68.71 139.34 69.42 138.66 71.16 139.06 C 70.73 140.02 70.02 140.70 69.03 141.08 Z" />
</g>
<g id="#20150dbf">
<path fill="#20150d" opacity="0.75" d=" M 169.76 139.29 C 171.19 138.70 172.88 140.97 171.97 142.21 C 170.73 141.74 170.08 140.50 169.76 139.29 Z" />
</g>
<g id="#fea561ff">
<path fill="#fea561" opacity="1.00" d=" M 24.39 139.53 C 25.25 145.20 25.67 151.16 24.00 156.72 L 23.85 155.36 C 23.98 150.08 23.77 144.78 24.39 139.53 Z" />
</g>
<g id="#3b2c22e2">
<path fill="#3b2c22" opacity="0.89" d=" M 75.84 142.76 C 76.03 141.61 76.66 140.96 77.73 140.80 C 78.08 142.43 77.45 143.09 75.84 142.76 Z" />
</g>
<g id="#302116d2">
<path fill="#302116" opacity="0.82" d=" M 43.94 146.86 C 44.40 145.03 44.98 143.06 46.69 142.02 C 47.47 143.78 45.97 146.25 44.33 147.04 L 43.94 146.86 Z" />
</g>
<g id="#9f6e4aff">
<path fill="#9f6e4a" opacity="1.00" d=" M 66.33 143.32 C 66.80 142.82 67.31 142.37 67.86 141.95 C 67.36 143.01 66.88 144.08 66.44 145.16 C 66.73 145.34 67.31 145.70 67.60 145.88 C 68.92 146.64 70.26 147.36 71.60 148.08 C 70.84 151.41 69.75 154.67 69.32 158.07 C 68.21 157.90 67.09 157.86 65.98 157.80 C 65.36 157.00 64.06 156.24 64.65 155.06 C 65.53 151.20 66.31 147.30 66.33 143.32 Z" />
</g>
<g id="#1f150eba">
<path fill="#1f150e" opacity="0.73" d=" M 172.43 142.57 C 175.13 143.62 177.17 145.83 179.12 147.91 C 180.27 150.81 178.32 153.85 177.54 156.63 C 175.85 160.29 174.86 164.62 171.79 167.39 C 174.01 161.65 177.35 156.31 178.48 150.17 L 178.57 148.95 C 176.38 146.96 173.99 145.13 172.43 142.57 Z" />
</g>
<g id="#996d4eff">
<path fill="#996d4e" opacity="1.00" d=" M 189.93 142.99 C 190.64 149.20 192.06 155.36 191.90 161.63 C 191.68 161.98 191.25 162.66 191.03 163.00 C 189.96 163.56 189.09 164.45 188.76 165.64 C 188.54 166.12 188.11 167.09 187.89 167.58 C 187.71 167.01 187.33 165.88 187.14 165.31 C 188.91 159.02 186.28 152.76 184.25 146.88 C 183.82 146.39 182.94 145.42 182.50 144.93 C 185.04 144.58 187.50 143.81 189.93 142.99 Z" />
</g>
<g id="#281b13c1">
<path fill="#281b13" opacity="0.76" d=" M 136.71 166.01 C 139.19 161.57 142.29 157.52 145.28 153.41 C 143.64 158.20 140.48 162.65 136.71 166.01 Z" />
</g>
<g id="#c38353ff">
<path fill="#c38353" opacity="1.00" d=" M 65.98 157.80 C 67.09 157.86 68.21 157.90 69.32 158.07 L 70.23 158.22 C 70.64 159.04 71.46 160.67 71.87 161.49 C 71.48 161.58 70.69 161.77 70.29 161.86 C 68.77 160.60 67.36 159.20 65.98 157.80 Z" />
</g>
<g id="#352519ca">
<path fill="#352519" opacity="0.79" d=" M 188.76 165.64 C 189.09 164.45 189.96 163.56 191.03 163.00 C 192.05 164.25 190.15 166.61 188.76 165.64 Z" />
</g>
<g id="#0b0807a7">
<path fill="#0b0807" opacity="0.65" d=" M 187.89 167.58 C 186.67 169.90 184.55 164.94 187.14 165.31 C 187.33 165.88 187.71 167.01 187.89 167.58 Z" />
</g>
<g id="#3b291be6">
<path fill="#3b291b" opacity="0.90" d=" M 133.80 168.84 C 133.89 167.67 134.52 166.99 135.68 166.81 C 136.00 168.41 135.37 169.09 133.80 168.84 Z" />
</g>
<g id="#18110bc2">
<path fill="#18110b" opacity="0.76" d=" M 169.79 170.76 C 170.05 170.29 170.55 169.37 170.80 168.90 L 171.21 169.72 L 170.69 170.67 L 169.79 170.76 Z" />
</g>
<g id="#0a07058b">
<path fill="#0a0705" opacity="0.55" d=" M 130.88 171.85 C 131.22 170.78 131.90 170.11 132.92 169.83 C 133.27 171.50 132.58 172.17 130.88 171.85 Z" />
</g>
<g id="#4f3625ff">
<path fill="#4f3625" opacity="1.00" d=" M 160.05 171.42 C 160.11 171.39 160.23 171.32 160.29 171.29 L 160.17 171.35 L 160.05 171.42 Z" />
</g>
<g id="#2c1e15c1">
<path fill="#2c1e15" opacity="0.76" d=" M 114.47 185.56 C 119.36 180.94 124.67 176.74 130.04 172.68 C 128.43 175.49 125.56 177.20 123.22 179.33 C 120.39 181.53 117.86 184.22 114.47 185.56 Z" />
</g>
</svg>
