<?xml version="1.0" encoding="UTF-8" ?>
<!DOCTYPE svg PUBLIC "-//W3C//DTD SVG 1.1//EN" "http://www.w3.org/Graphics/SVG/1.1/DTD/svg11.dtd">
<svg width="215pt" height="215pt" viewBox="0 0 215 215" version="1.1" xmlns="http://www.w3.org/2000/svg">
<g id="#343435b2">
<path fill="#343435" opacity="0.70" d=" M 87.04 23.12 C 89.92 21.07 94.49 21.98 97.03 24.14 C 93.72 23.04 90.03 22.22 86.78 24.01 C 86.82 27.62 89.67 29.98 92.33 31.93 C 88.73 31.49 84.23 26.61 87.04 23.12 Z" />
</g>
<g id="#f1f1f3ff">
<path fill="#f1f1f3" opacity="1.00" d=" M 86.78 24.01 C 90.03 22.22 93.72 23.04 97.03 24.14 C 97.46 24.35 98.32 24.78 98.75 25.00 C 101.50 27.08 103.88 29.61 105.81 32.48 L 105.81 32.48 C 107.17 34.16 109.04 35.31 110.94 36.28 C 111.25 36.44 111.87 36.76 112.18 36.93 C 112.51 37.31 113.17 38.07 113.51 38.46 C 114.44 38.86 115.18 39.49 115.72 40.36 C 116.14 41.27 116.80 41.95 117.69 42.41 C 118.63 42.92 119.20 43.89 119.74 44.79 C 120.25 45.70 120.94 46.48 121.79 47.11 C 122.06 47.42 122.62 48.05 122.90 48.36 C 123.38 49.96 124.40 51.30 125.88 52.11 C 126.08 52.34 126.48 52.81 126.68 53.04 C 127.95 55.24 129.39 57.34 130.85 59.42 C 131.07 59.81 131.50 60.60 131.71 60.99 C 132.57 62.87 133.42 64.75 133.97 66.75 C 134.40 66.88 135.25 67.15 135.68 67.28 C 135.62 67.56 135.48 68.10 135.42 68.37 L 135.38 69.22 C 135.65 69.67 136.20 70.57 136.48 71.02 C 136.49 72.38 136.53 73.75 136.65 75.11 C 136.13 73.22 135.55 71.35 134.64 69.61 C 134.39 69.11 133.89 68.11 133.64 67.62 C 132.27 64.98 130.80 62.40 129.24 59.87 C 129.06 59.60 128.72 59.05 128.54 58.78 C 126.99 56.18 125.19 53.73 123.11 51.53 C 122.62 50.96 122.14 50.38 121.67 49.80 C 120.27 47.91 118.70 46.12 116.91 44.58 C 116.26 43.98 115.71 43.30 115.29 42.52 C 114.75 41.22 113.70 40.28 112.38 39.82 C 112.10 39.65 111.55 39.32 111.27 39.16 C 108.81 36.96 106.06 34.13 102.44 34.66 C 99.59 34.99 96.90 33.94 94.33 32.86 C 93.83 32.63 92.83 32.16 92.33 31.93 C 89.67 29.98 86.82 27.62 86.78 24.01 Z" />
<path fill="#f1f1f3" opacity="1.00" d=" M 37.99 57.25 C 42.66 55.09 47.90 54.44 53.00 54.95 C 57.25 55.15 60.63 58.56 65.00 58.19 C 77.34 58.04 89.42 61.08 100.95 65.25 C 101.39 65.45 102.27 65.85 102.72 66.05 C 107.11 68.72 112.57 70.27 115.98 74.20 C 110.38 72.14 105.37 68.74 99.76 66.67 C 98.46 66.19 97.13 65.79 95.78 65.46 C 93.44 64.80 91.16 64.00 88.82 63.36 C 81.11 61.08 73.04 60.30 65.04 59.90 C 63.17 59.86 61.10 59.59 59.53 60.84 C 54.32 65.15 47.32 64.57 41.02 64.34 C 38.96 63.69 36.78 62.81 35.58 60.91 C 35.95 59.82 36.38 58.75 36.85 57.70 C 37.14 57.59 37.70 57.37 37.99 57.25 Z" />
<path fill="#f1f1f3" opacity="1.00" d=" M 115.98 74.20 C 117.32 73.70 118.80 74.69 118.98 76.08 C 117.68 76.45 116.03 75.67 115.98 74.20 Z" />
</g>
<g id="#434446ca">
<path fill="#434446" opacity="0.79" d=" M 98.75 25.00 C 101.98 26.01 105.69 28.90 105.81 32.48 C 103.88 29.61 101.50 27.08 98.75 25.00 Z" />
</g>
<g id="#363639bf">
<path fill="#363639" opacity="0.75" d=" M 105.81 32.48 C 107.94 31.80 109.83 34.65 110.94 36.28 C 109.04 35.31 107.17 34.16 105.81 32.48 Z" />
</g>
<g id="#414245ba">
<path fill="#414245" opacity="0.73" d=" M 94.33 32.86 C 96.90 33.94 99.59 34.99 102.44 34.66 C 106.06 34.13 108.81 36.96 111.27 39.16 C 108.68 38.23 106.56 36.39 104.07 35.26 C 100.63 36.49 97.23 35.00 94.05 33.77 L 94.33 32.86 Z" />
</g>
<g id="#2d2e30af">
<path fill="#2d2e30" opacity="0.69" d=" M 112.18 36.93 L 113.02 36.80 C 113.14 37.21 113.39 38.04 113.51 38.46 C 113.17 38.07 112.51 37.31 112.18 36.93 Z" />
</g>
<g id="#4f5054e6">
<path fill="#4f5054" opacity="0.90" d=" M 112.38 39.82 C 113.70 40.28 114.75 41.22 115.29 42.52 C 113.87 43.59 111.42 41.31 112.38 39.82 Z" />
</g>
<g id="#06060675">
<path fill="#060606" opacity="0.46" d=" M 115.72 40.36 C 117.53 39.95 118.18 40.63 117.69 42.41 C 116.80 41.95 116.14 41.27 115.72 40.36 Z" />
</g>
<g id="#262628b1">
<path fill="#262628" opacity="0.69" d=" M 119.74 44.79 C 120.54 42.78 123.20 45.95 121.79 47.11 C 120.94 46.48 120.25 45.70 119.74 44.79 Z" />
</g>
<g id="#3f3e4edf">
<path fill="#3f3e4e" opacity="0.87" d=" M 97.28 45.33 C 101.57 47.27 105.91 49.75 109.03 53.30 C 107.73 52.58 106.42 51.88 105.18 51.06 C 103.13 49.61 101.06 48.17 98.89 46.90 C 100.22 49.44 101.62 51.95 103.06 54.44 C 104.56 57.05 106.12 59.62 107.62 62.23 C 109.69 65.77 111.37 69.99 115.34 71.81 C 120.72 75.24 127.26 78.54 129.82 84.71 C 129.44 84.85 128.67 85.14 128.29 85.28 C 122.02 79.78 115.15 74.84 107.43 71.56 C 101.80 69.46 95.76 69.00 89.86 68.10 C 93.18 68.32 96.49 68.59 99.81 68.64 L 99.76 66.67 C 105.37 68.74 110.38 72.14 115.98 74.20 C 116.03 75.67 117.68 76.45 118.98 76.08 C 119.27 77.53 120.75 78.39 122.17 78.24 L 122.31 78.77 L 122.86 78.75 C 123.43 80.55 124.91 82.01 126.83 82.22 C 126.53 80.23 124.82 78.88 122.86 78.75 L 122.71 78.22 L 122.17 78.24 C 121.93 76.78 120.45 75.69 118.98 76.08 C 118.80 74.69 117.32 73.70 115.98 74.20 C 112.57 70.27 107.11 68.72 102.72 66.05 C 105.56 65.62 107.68 68.00 110.08 69.04 C 106.42 60.87 100.82 53.57 97.28 45.33 Z" />
</g>
<g id="#1b1b1da1">
<path fill="#1b1b1d" opacity="0.63" d=" M 116.91 44.58 C 118.70 46.12 120.27 47.91 121.67 49.80 C 119.43 48.97 117.36 46.99 116.91 44.58 Z" />
</g>
<g id="#bdb6dfff">
<path fill="#bdb6df" opacity="1.00" d=" M 98.89 46.90 C 101.06 48.17 103.13 49.61 105.18 51.06 C 104.47 52.19 103.76 53.31 103.06 54.44 C 101.62 51.95 100.22 49.44 98.89 46.90 Z" />
</g>
<g id="#424245c7">
<path fill="#424245" opacity="0.78" d=" M 122.90 48.36 C 124.69 47.72 126.70 50.49 125.88 52.11 C 124.40 51.30 123.38 49.96 122.90 48.36 Z" />
</g>
<g id="#aca6ccff">
<path fill="#aca6cc" opacity="1.00" d=" M 105.18 51.06 C 106.42 51.88 107.73 52.58 109.03 53.30 C 109.27 53.53 109.75 53.99 109.99 54.21 C 110.42 54.53 111.28 55.16 111.71 55.48 L 112.11 55.98 C 112.49 56.32 113.27 57.02 113.65 57.37 L 114.49 57.45 L 114.12 58.52 C 113.52 59.85 113.61 61.31 113.58 62.73 C 112.68 62.24 111.79 61.76 110.89 61.28 C 109.80 61.60 108.71 61.91 107.62 62.23 C 106.12 59.62 104.56 57.05 103.06 54.44 C 103.76 53.31 104.47 52.19 105.18 51.06 Z" />
</g>
<g id="#2626289b">
<path fill="#262628" opacity="0.61" d=" M 123.11 51.53 C 125.19 53.73 126.99 56.18 128.54 58.78 C 125.88 57.38 124.08 54.32 123.11 51.53 Z" />
</g>
<g id="#38393bb4">
<path fill="#38393b" opacity="0.71" d=" M 41.79 54.90 C 47.46 53.39 53.90 52.91 59.24 55.77 C 62.17 57.44 65.66 57.07 68.90 57.35 C 79.58 57.52 90.09 60.20 100.02 64.01 C 100.25 64.32 100.71 64.94 100.95 65.25 C 89.42 61.08 77.34 58.04 65.00 58.19 C 60.63 58.56 57.25 55.15 53.00 54.95 C 47.90 54.44 42.66 55.09 37.99 57.25 C 38.50 55.59 40.40 55.39 41.79 54.90 Z" />
</g>
<g id="#1a1a1c92">
<path fill="#1a1a1c" opacity="0.57" d=" M 126.68 53.04 C 129.15 53.83 130.74 56.93 130.85 59.42 C 129.39 57.34 127.95 55.24 126.68 53.04 Z" />
</g>
<g id="#0d0d10a4">
<path fill="#0d0d10" opacity="0.64" d=" M 109.99 54.21 L 110.84 53.88 L 111.72 54.54 L 111.71 55.48 C 111.28 55.16 110.42 54.53 109.99 54.21 Z" />
</g>
<g id="#1e1c25c1">
<path fill="#1e1c25" opacity="0.76" d=" M 112.11 55.98 L 112.96 55.75 L 113.75 56.45 L 113.65 57.37 C 113.27 57.02 112.49 56.32 112.11 55.98 Z" />
</g>
<g id="#1b1b1cb1">
<path fill="#1b1b1c" opacity="0.69" d=" M 33.94 61.93 C 33.73 59.87 35.25 58.61 36.85 57.70 C 36.38 58.75 35.95 59.82 35.58 60.91 C 36.78 62.81 38.96 63.69 41.02 64.34 C 43.65 65.11 46.44 64.79 49.15 64.94 C 44.20 67.45 38.10 65.10 33.94 61.93 Z" />
</g>
<g id="#8f8bbeff">
<path fill="#8f8bbe" opacity="1.00" d=" M 113.58 62.73 C 113.61 61.31 113.52 59.85 114.12 58.52 L 115.31 58.02 L 115.66 59.29 C 115.89 60.35 116.56 61.00 117.67 61.25 C 118.06 61.64 118.84 62.43 119.23 62.82 C 119.60 63.19 120.33 63.94 120.70 64.31 L 121.56 64.44 C 121.67 64.79 121.88 65.49 121.99 65.84 C 122.37 66.21 123.13 66.96 123.51 67.33 L 124.24 67.50 C 124.45 67.98 124.86 68.94 125.06 69.42 C 125.60 70.56 126.21 71.65 126.83 72.75 C 127.63 69.90 127.88 66.93 128.16 63.99 C 129.45 66.14 130.55 68.39 131.89 70.51 C 132.58 70.28 133.96 69.83 134.64 69.61 C 133.19 73.01 135.84 76.23 136.75 79.41 C 136.93 79.91 137.28 80.90 137.46 81.40 C 138.14 80.36 138.84 79.34 139.50 78.29 C 141.56 76.98 143.61 75.63 145.47 74.03 C 145.98 73.72 147.01 73.09 147.52 72.77 C 147.86 73.06 148.56 73.63 148.91 73.92 C 148.77 74.36 148.50 75.25 148.37 75.70 C 149.47 75.49 150.58 75.28 151.68 75.09 C 151.58 76.37 150.81 77.42 150.13 78.47 C 147.39 78.38 143.83 77.47 142.00 80.18 C 141.64 83.04 142.81 85.80 144.10 88.27 C 140.81 90.03 141.08 93.87 141.39 97.03 C 140.27 96.63 139.17 94.72 137.93 95.73 C 137.42 96.78 136.97 97.85 136.57 98.95 C 135.59 97.67 134.59 96.39 133.59 95.12 C 133.24 95.68 132.53 96.79 132.17 97.35 C 130.63 89.03 122.76 81.86 114.07 82.45 C 106.71 82.92 99.14 87.72 97.18 95.12 C 96.33 97.67 96.00 100.35 95.78 103.02 C 92.33 103.67 89.39 105.65 87.98 108.95 C 88.31 106.06 88.55 103.16 89.06 100.30 C 86.72 101.62 84.05 101.53 81.46 101.71 C 79.78 102.49 78.42 103.81 76.95 104.92 C 77.78 103.01 78.68 101.13 79.67 99.31 C 79.14 99.09 78.08 98.65 77.54 98.43 C 79.78 96.87 81.89 95.15 83.96 93.38 C 80.72 94.82 77.18 95.14 73.67 94.94 C 75.11 93.93 76.56 92.95 78.02 91.97 C 77.76 91.49 77.23 90.54 76.97 90.06 C 78.10 89.33 79.20 88.56 80.31 87.81 C 77.99 87.07 75.57 86.78 73.15 86.62 C 78.61 83.39 84.97 82.05 91.08 80.51 C 95.53 79.56 100.00 78.45 104.58 78.48 C 104.58 78.27 104.57 77.85 104.57 77.64 C 98.62 78.24 92.86 76.39 87.03 75.59 C 83.24 75.06 79.46 74.46 75.74 73.56 C 76.34 73.40 77.55 73.10 78.16 72.95 C 77.69 72.57 76.74 71.83 76.27 71.46 C 77.46 71.31 78.64 71.15 79.83 71.00 C 79.58 69.91 79.32 68.82 79.07 67.73 C 82.67 67.85 86.27 67.84 89.86 68.10 C 95.76 69.00 101.80 69.46 107.43 71.56 C 115.15 74.84 122.02 79.78 128.29 85.28 C 128.67 85.14 129.44 84.85 129.82 84.71 C 127.26 78.54 120.72 75.24 115.34 71.81 C 111.37 69.99 109.69 65.77 107.62 62.23 C 108.71 61.91 109.80 61.60 110.89 61.28 C 111.79 61.76 112.68 62.24 113.58 62.73 Z" />
<path fill="#8f8bbe" opacity="1.00" d=" M 139.10 64.51 C 141.96 66.14 138.17 70.43 141.03 72.44 C 140.65 73.50 140.26 74.56 139.85 75.61 C 138.96 73.93 138.28 71.95 136.48 71.02 C 136.43 70.61 136.34 69.78 136.30 69.37 L 135.38 69.22 L 135.42 68.37 C 135.48 68.10 135.62 67.56 135.68 67.28 L 136.37 66.91 C 137.45 66.33 138.36 65.53 139.10 64.51 Z" />
</g>
<g id="#1e1e28d3">
<path fill="#1e1e28" opacity="0.83" d=" M 115.66 59.29 C 117.33 58.95 118.00 59.60 117.67 61.25 C 116.56 61.00 115.89 60.35 115.66 59.29 Z" />
</g>
<g id="#434347cf">
<path fill="#434347" opacity="0.81" d=" M 59.53 60.84 C 61.10 59.59 63.17 59.86 65.04 59.90 C 73.04 60.30 81.11 61.08 88.82 63.36 C 85.11 63.81 81.49 62.61 77.84 62.16 C 71.79 61.09 65.64 61.07 59.53 60.84 Z" />
</g>
<g id="#0707083e">
<path fill="#070708" opacity="0.24" d=" M 129.24 59.87 C 130.80 62.40 132.27 64.98 133.64 67.62 C 133.27 68.15 132.53 69.21 132.16 69.74 C 130.78 67.29 130.13 64.07 127.41 62.70 C 128.79 62.54 128.68 60.81 129.24 59.87 Z" />
</g>
<g id="#1f1f20a3">
<path fill="#1f1f20" opacity="0.64" d=" M 131.71 60.99 C 134.14 62.04 133.87 65.69 136.64 66.42 L 136.37 66.91 L 135.68 67.28 C 135.25 67.15 134.40 66.88 133.97 66.75 C 133.42 64.75 132.57 62.87 131.71 60.99 Z" />
</g>
<g id="#2c2b3bd7">
<path fill="#2c2b3b" opacity="0.84" d=" M 119.23 62.82 L 120.07 62.64 C 120.23 63.06 120.54 63.90 120.70 64.31 C 120.33 63.94 119.60 63.19 119.23 62.82 Z" />
</g>
<g id="#282735c1">
<path fill="#282735" opacity="0.76" d=" M 127.41 62.70 C 130.13 64.07 130.78 67.29 132.16 69.74 C 132.53 69.21 133.27 68.15 133.64 67.62 C 133.89 68.11 134.39 69.11 134.64 69.61 C 133.96 69.83 132.58 70.28 131.89 70.51 C 130.55 68.39 129.45 66.14 128.16 63.99 C 127.88 66.93 127.63 69.90 126.83 72.75 C 126.21 71.65 125.60 70.56 125.06 69.42 C 127.89 68.52 126.59 64.89 127.41 62.70 Z" />
</g>
<g id="#1d1c28c2">
<path fill="#1d1c28" opacity="0.76" d=" M 139.10 64.51 C 139.89 64.03 140.71 63.60 141.54 63.18 C 141.30 65.53 141.01 67.88 140.69 70.22 C 141.32 69.98 142.58 69.50 143.21 69.26 C 142.98 71.65 141.66 73.70 140.63 75.80 C 142.45 75.83 143.66 74.09 145.47 74.03 C 143.61 75.63 141.56 76.98 139.50 78.29 C 138.84 79.34 138.14 80.36 137.46 81.40 C 137.28 80.90 136.93 79.91 136.75 79.41 C 137.78 78.14 138.88 76.92 139.85 75.61 C 140.26 74.56 140.65 73.50 141.03 72.44 C 138.17 70.43 141.96 66.14 139.10 64.51 Z" />
</g>
<g id="#23222cbc">
<path fill="#23222c" opacity="0.74" d=" M 95.79 67.99 C 95.78 67.36 95.78 66.09 95.78 65.46 C 97.13 65.79 98.46 66.19 99.76 66.67 L 99.81 68.64 C 96.49 68.59 93.18 68.32 89.86 68.10 C 86.27 67.84 82.67 67.85 79.07 67.73 C 72.42 67.28 65.85 68.45 59.32 69.45 C 59.73 69.16 60.56 68.58 60.97 68.30 C 72.38 66.00 84.33 66.03 95.79 67.99 Z" />
</g>
<g id="#24232fb9">
<path fill="#24232f" opacity="0.73" d=" M 121.99 65.84 L 122.85 65.65 C 123.02 66.07 123.35 66.91 123.51 67.33 C 123.13 66.96 122.37 66.21 121.99 65.84 Z" />
</g>
<g id="#aca6cdff">
<path fill="#aca6cd" opacity="1.00" d=" M 59.32 69.45 C 65.85 68.45 72.42 67.28 79.07 67.73 C 79.32 68.82 79.58 69.91 79.83 71.00 C 78.64 71.15 77.46 71.31 76.27 71.46 C 76.74 71.83 77.69 72.57 78.16 72.95 C 77.55 73.10 76.34 73.40 75.74 73.56 C 70.41 72.48 65.09 71.35 59.93 69.64 L 59.32 69.45 Z" />
</g>
<g id="#302e45ff">
<path fill="#302e45" opacity="1.00" d=" M 135.38 69.22 L 136.30 69.37 C 136.34 69.78 136.43 70.61 136.48 71.02 C 136.20 70.57 135.65 69.67 135.38 69.22 Z" />
</g>
<g id="#252432ca">
<path fill="#252432" opacity="0.79" d=" M 59.93 69.64 C 65.09 71.35 70.41 72.48 75.74 73.56 C 79.46 74.46 83.24 75.06 87.03 75.59 C 92.86 76.39 98.62 78.24 104.57 77.64 C 104.57 77.85 104.58 78.27 104.58 78.48 C 100.00 78.45 95.53 79.56 91.08 80.51 C 84.97 82.05 78.61 83.39 73.15 86.62 C 75.57 86.78 77.99 87.07 80.31 87.81 C 79.20 88.56 78.10 89.33 76.97 90.06 C 77.23 90.54 77.76 91.49 78.02 91.97 C 76.56 92.95 75.11 93.93 73.67 94.94 C 77.18 95.14 80.72 94.82 83.96 93.38 C 81.89 95.15 79.78 96.87 77.54 98.43 C 74.04 101.04 70.67 103.91 68.01 107.40 C 69.89 106.99 71.70 106.30 73.31 105.26 C 71.74 107.76 70.12 110.27 67.93 112.30 C 68.39 110.78 69.07 109.35 69.92 108.02 C 68.86 108.05 66.74 108.12 65.68 108.15 C 69.25 103.44 74.16 99.91 78.60 96.05 C 75.79 96.10 72.98 96.24 70.16 96.24 C 71.94 94.90 73.76 93.61 75.68 92.47 C 72.59 90.99 75.83 89.51 77.30 88.79 C 75.18 87.99 72.98 87.43 70.78 86.89 C 71.76 85.41 73.51 84.90 75.05 84.20 C 81.27 81.61 87.84 79.80 94.52 78.83 L 94.63 77.96 C 84.00 76.41 73.32 74.76 63.02 71.63 C 61.92 71.13 60.04 71.26 59.93 69.64 Z" />
</g>
<g id="#53526eff">
<path fill="#53526e" opacity="1.00" d=" M 134.64 69.61 C 135.55 71.35 136.13 73.22 136.65 75.11 C 136.53 73.75 136.49 72.38 136.48 71.02 C 138.28 71.95 138.96 73.93 139.85 75.61 C 138.88 76.92 137.78 78.14 136.75 79.41 C 135.84 76.23 133.19 73.01 134.64 69.61 Z" />
</g>
<g id="#0c0c10a3">
<path fill="#0c0c10" opacity="0.64" d=" M 147.52 72.77 C 146.71 71.64 149.01 70.31 149.89 71.24 C 150.57 72.41 150.49 73.51 149.65 74.54 C 149.47 74.38 149.09 74.07 148.91 73.92 C 148.56 73.63 147.86 73.06 147.52 72.77 Z" />
</g>
<g id="#473848f5">
<path fill="#473848" opacity="0.96" d=" M 151.81 74.10 C 154.06 75.21 151.21 77.48 151.14 79.09 C 155.24 81.12 160.14 82.36 163.01 86.20 C 162.67 86.04 161.99 85.71 161.65 85.55 C 158.31 83.49 155.01 81.21 151.15 80.23 C 149.18 79.78 147.08 79.30 145.11 79.98 C 142.43 80.55 143.86 83.21 143.96 85.02 C 144.50 84.58 145.57 83.70 146.11 83.26 C 145.72 83.69 144.96 84.55 144.58 84.98 C 144.96 85.95 145.35 86.91 145.75 87.86 C 148.61 93.09 151.85 99.05 157.89 101.00 C 161.33 103.38 165.71 104.90 167.54 108.97 L 168.28 109.20 C 168.70 109.38 169.54 109.74 169.96 109.92 C 168.83 112.30 168.26 115.06 166.17 116.85 C 164.24 114.75 162.20 112.75 160.30 110.61 C 159.17 111.43 158.06 112.25 156.92 113.05 C 154.82 113.71 152.59 114.49 150.50 113.39 C 154.04 112.33 157.90 111.13 160.21 108.02 C 160.30 106.52 160.42 104.95 159.70 103.57 C 157.16 101.37 153.69 100.78 150.56 102.04 C 148.36 102.79 146.29 103.96 144.66 105.64 C 144.11 106.27 143.56 106.90 143.03 107.55 C 146.37 107.86 148.55 110.32 149.89 113.19 C 149.09 116.42 148.85 119.75 148.84 123.07 C 146.66 123.08 144.64 122.23 142.95 120.90 C 139.93 117.52 139.24 112.80 141.45 108.81 C 142.39 103.73 147.29 101.48 151.76 100.28 C 151.81 100.07 151.91 99.65 151.97 99.44 C 149.17 95.84 146.40 92.22 144.10 88.27 C 142.81 85.80 141.64 83.04 142.00 80.18 C 143.83 77.47 147.39 78.38 150.13 78.47 C 150.81 77.42 151.58 76.37 151.68 75.09 L 151.81 74.10 M 160.95 109.62 C 163.23 111.01 164.28 114.33 167.05 114.70 C 167.55 110.89 166.04 106.71 162.32 105.12 C 162.03 106.66 161.57 108.17 160.95 109.62 M 144.17 108.75 C 142.36 110.51 141.59 112.85 141.42 115.32 C 142.08 118.38 144.43 121.00 147.64 121.39 C 147.68 118.64 147.69 115.88 148.04 113.15 L 147.71 113.31 C 147.69 111.05 146.14 109.51 144.17 108.75 Z" />
</g>
<g id="#c0c2c0ff">
<path fill="#c0c2c0" opacity="1.00" d=" M 118.98 76.08 C 120.45 75.69 121.93 76.78 122.17 78.24 C 120.75 78.39 119.27 77.53 118.98 76.08 Z" />
</g>
<g id="#eceeeaff">
<path fill="#eceeea" opacity="1.00" d=" M 122.17 78.24 L 122.71 78.22 L 122.86 78.75 L 122.31 78.77 L 122.17 78.24 Z" />
</g>
<g id="#f3f4f5ff">
<path fill="#f3f4f5" opacity="1.00" d=" M 122.86 78.75 C 124.82 78.88 126.53 80.23 126.83 82.22 C 124.91 82.01 123.43 80.55 122.86 78.75 Z" />
<path fill="#f3f4f5" opacity="1.00" d=" M 144.17 108.75 C 146.14 109.51 147.69 111.05 147.71 113.31 C 145.75 114.36 143.59 114.93 141.42 115.32 C 141.59 112.85 142.36 110.51 144.17 108.75 Z" />
</g>
<g id="#da81aaff">
<path fill="#da81aa" opacity="1.00" d=" M 143.96 85.02 C 143.86 83.21 142.43 80.55 145.11 79.98 C 147.08 79.30 149.18 79.78 151.15 80.23 C 149.82 80.64 148.08 82.03 149.48 83.42 C 150.60 84.99 152.54 85.61 154.41 85.41 C 154.47 85.80 154.59 86.56 154.66 86.94 C 157.19 88.15 159.63 87.32 161.65 85.55 C 161.99 85.71 162.67 86.04 163.01 86.20 L 163.47 86.42 L 163.78 86.86 C 166.10 90.05 168.35 93.36 169.49 97.18 C 161.21 97.19 153.24 93.61 147.72 87.44 C 147.23 87.55 146.24 87.76 145.75 87.86 C 145.35 86.91 144.96 85.95 144.58 84.98 C 144.96 84.55 145.72 83.69 146.11 83.26 C 145.57 83.70 144.50 84.58 143.96 85.02 Z" />
</g>
<g id="#e89abbff">
<path fill="#e89abb" opacity="1.00" d=" M 149.48 83.42 C 148.08 82.03 149.82 80.64 151.15 80.23 C 155.01 81.21 158.31 83.49 161.65 85.55 C 159.63 87.32 157.19 88.15 154.66 86.94 C 154.59 86.56 154.47 85.80 154.41 85.41 C 152.54 85.61 150.60 84.99 149.48 83.42 Z" />
</g>
<g id="#49354bff">
<path fill="#49354b" opacity="1.00" d=" M 97.18 95.12 C 99.14 87.72 106.71 82.92 114.07 82.45 C 122.76 81.86 130.63 89.03 132.17 97.35 C 132.77 102.97 132.70 109.41 128.86 113.95 C 125.99 117.80 122.08 120.85 117.59 122.57 C 108.60 125.57 98.10 118.00 97.16 108.87 C 99.36 111.98 100.65 115.87 103.89 118.14 C 106.85 120.15 110.25 122.38 114.02 121.77 C 123.47 120.33 131.14 111.56 131.14 101.94 C 131.05 97.36 129.65 92.81 126.89 89.13 C 125.03 87.42 123.03 85.82 120.76 84.69 C 113.33 81.79 105.01 85.45 100.39 91.53 C 97.12 96.58 97.56 102.75 97.16 108.48 C 95.83 106.96 95.83 104.91 95.78 103.02 C 96.00 100.35 96.33 97.67 97.18 95.12 Z" />
</g>
<g id="#da80aaff">
<path fill="#da80aa" opacity="1.00" d=" M 100.39 91.53 C 105.01 85.45 113.33 81.79 120.76 84.69 C 117.40 85.55 113.39 85.62 111.78 89.30 C 112.26 89.35 113.23 89.44 113.71 89.48 C 113.70 90.47 113.68 91.47 113.67 92.46 C 116.65 94.58 120.30 96.53 124.01 95.04 C 125.05 93.10 125.35 90.79 126.89 89.13 C 129.65 92.81 131.05 97.36 131.14 101.94 C 128.01 105.54 124.04 108.84 119.13 109.40 C 112.87 110.58 105.55 108.24 102.40 102.42 C 100.34 99.17 100.39 95.22 100.39 91.53 Z" />
</g>
<g id="#e899bcff">
<path fill="#e899bc" opacity="1.00" d=" M 111.78 89.30 C 113.39 85.62 117.40 85.55 120.76 84.69 C 123.03 85.82 125.03 87.42 126.89 89.13 C 125.35 90.79 125.05 93.10 124.01 95.04 C 120.30 96.53 116.65 94.58 113.67 92.46 C 113.68 91.47 113.70 90.47 113.71 89.48 C 113.23 89.44 112.26 89.35 111.78 89.30 Z" />
</g>
<g id="#c75a8dff">
<path fill="#c75a8d" opacity="1.00" d=" M 145.75 87.86 C 146.24 87.76 147.23 87.55 147.72 87.44 C 153.24 93.61 161.21 97.19 169.49 97.18 C 169.78 98.09 170.04 99.00 170.26 99.93 C 170.19 102.86 170.89 106.04 169.81 108.82 C 169.43 108.92 168.66 109.11 168.28 109.20 L 167.54 108.97 C 165.71 104.90 161.33 103.38 157.89 101.00 C 151.85 99.05 148.61 93.09 145.75 87.86 Z" />
<path fill="#c75a8d" opacity="1.00" d=" M 97.16 108.48 C 97.56 102.75 97.12 96.58 100.39 91.53 C 100.39 95.22 100.34 99.17 102.40 102.42 C 105.55 108.24 112.87 110.58 119.13 109.40 C 124.04 108.84 128.01 105.54 131.14 101.94 C 131.14 111.56 123.47 120.33 114.02 121.77 C 110.25 122.38 106.85 120.15 103.89 118.14 C 100.65 115.87 99.36 111.98 97.16 108.87 L 97.16 108.48 Z" />
</g>
<g id="#1f1117b6">
<path fill="#1f1117" opacity="0.71" d=" M 163.78 86.86 C 165.59 87.31 166.53 89.00 167.51 90.42 C 170.56 95.05 171.99 100.59 172.16 106.10 C 172.93 106.45 171.56 110.24 171.01 108.05 C 170.66 105.35 171.08 102.57 170.26 99.93 C 170.04 99.00 169.78 98.09 169.49 97.18 C 168.35 93.36 166.10 90.05 163.78 86.86 Z" />
</g>
<g id="#7773b0ff">
<path fill="#7773b0" opacity="1.00" d=" M 141.39 97.03 C 141.08 93.87 140.81 90.03 144.10 88.27 C 146.40 92.22 149.17 95.84 151.97 99.44 C 151.91 99.65 151.81 100.07 151.76 100.28 C 147.29 101.48 142.39 103.73 141.45 108.81 C 139.24 112.80 139.93 117.52 142.95 120.90 C 142.60 122.50 142.24 124.09 141.90 125.70 C 139.84 124.25 137.66 122.99 135.38 121.94 C 135.17 122.64 134.75 124.05 134.54 124.76 C 131.54 124.41 128.59 123.66 125.91 122.24 C 123.58 124.81 121.20 127.35 118.61 129.66 C 117.09 129.81 114.52 128.89 114.07 131.01 C 113.14 134.85 110.78 137.96 108.19 140.85 C 107.91 139.11 107.65 137.38 107.41 135.64 C 105.93 135.06 104.35 134.79 102.83 135.37 C 102.47 132.99 102.13 130.62 101.79 128.24 C 100.73 128.89 99.67 129.53 98.61 130.18 C 97.73 128.24 96.96 126.26 96.28 124.24 C 94.65 127.57 93.76 131.34 91.25 134.16 C 90.70 132.34 90.20 130.51 89.72 128.67 C 89.34 128.62 88.59 128.50 88.21 128.45 C 87.73 127.27 87.27 126.08 86.81 124.90 C 85.24 127.08 83.39 129.04 81.52 130.97 C 80.54 128.13 79.22 125.43 77.78 122.80 C 77.76 122.40 77.72 121.59 77.70 121.19 C 75.69 123.63 73.07 125.39 70.20 126.66 C 70.71 124.33 71.04 121.97 71.26 119.60 C 67.97 120.88 64.94 122.71 61.78 124.26 C 63.28 120.52 65.84 117.32 67.21 113.53 C 67.30 113.32 67.47 112.90 67.56 112.69 L 67.93 112.30 C 70.12 110.27 71.74 107.76 73.31 105.26 C 71.70 106.30 69.89 106.99 68.01 107.40 C 70.67 103.91 74.04 101.04 77.54 98.43 C 78.08 98.65 79.14 99.09 79.67 99.31 C 78.68 101.13 77.78 103.01 76.95 104.92 C 78.42 103.81 79.78 102.49 81.46 101.71 C 84.05 101.53 86.72 101.62 89.06 100.30 C 88.55 103.16 88.31 106.06 87.98 108.95 C 89.39 105.65 92.33 103.67 95.78 103.02 C 95.83 104.91 95.83 106.96 97.16 108.48 L 97.16 108.87 C 98.10 118.00 108.60 125.57 117.59 122.57 C 122.08 120.85 125.99 117.80 128.86 113.95 C 132.70 109.41 132.77 102.97 132.17 97.35 C 132.53 96.79 133.24 95.68 133.59 95.12 C 134.59 96.39 135.59 97.67 136.57 98.95 C 136.97 97.85 137.42 96.78 137.93 95.73 C 139.17 94.72 140.27 96.63 141.39 97.03 Z" />
</g>
<g id="#d392a3ff">
<path fill="#d392a3" opacity="1.00" d=" M 144.66 105.64 C 146.29 103.96 148.36 102.79 150.56 102.04 C 153.16 104.20 156.56 103.99 159.70 103.57 C 160.42 104.95 160.30 106.52 160.21 108.02 C 159.60 107.49 158.99 106.95 158.38 106.42 C 153.95 108.83 148.93 107.89 144.66 105.64 Z" />
</g>
<g id="#e7aebdff">
<path fill="#e7aebd" opacity="1.00" d=" M 150.56 102.04 C 153.69 100.78 157.16 101.37 159.70 103.57 C 156.56 103.99 153.16 104.20 150.56 102.04 Z" />
</g>
<g id="#d0d2ddff">
<path fill="#d0d2dd" opacity="1.00" d=" M 160.95 109.62 C 161.57 108.17 162.03 106.66 162.32 105.12 C 166.04 106.71 167.55 110.89 167.05 114.70 C 164.28 114.33 163.23 111.01 160.95 109.62 Z" />
</g>
<g id="#b17388ff">
<path fill="#b17388" opacity="1.00" d=" M 143.03 107.55 C 143.56 106.90 144.11 106.27 144.66 105.64 C 148.93 107.89 153.95 108.83 158.38 106.42 C 158.99 106.95 159.60 107.49 160.21 108.02 C 157.90 111.13 154.04 112.33 150.50 113.39 L 149.89 113.19 C 148.55 110.32 146.37 107.86 143.03 107.55 Z" />
</g>
<g id="#5d578cff">
<path fill="#5d578c" opacity="1.00" d=" M 169.96 109.92 C 170.68 109.81 172.13 109.60 172.85 109.49 C 174.16 110.27 175.36 111.22 176.26 112.46 C 175.59 112.54 174.26 112.71 173.60 112.79 C 173.27 115.69 177.81 116.59 178.16 119.64 C 177.27 119.50 175.49 119.21 174.60 119.07 C 174.66 119.58 174.78 120.60 174.84 121.11 C 174.34 121.19 173.36 121.36 172.86 121.45 C 175.07 123.74 177.15 126.16 179.27 128.54 C 176.18 128.12 173.06 128.21 169.96 128.34 C 170.07 130.09 170.24 131.84 170.58 133.57 C 170.22 133.66 169.49 133.83 169.13 133.91 C 168.58 132.33 166.60 132.54 165.99 133.95 C 165.69 134.14 165.07 134.51 164.77 134.70 L 163.86 135.28 C 165.48 137.93 167.72 140.73 166.01 143.98 C 167.89 144.19 169.78 144.39 171.67 144.57 C 172.30 145.90 172.91 147.22 173.52 148.56 C 171.90 147.91 170.28 147.23 168.95 146.08 C 169.57 148.09 170.05 150.13 170.56 152.17 C 169.34 152.30 168.12 152.44 166.90 152.58 C 166.04 151.66 165.24 150.68 164.39 149.75 C 165.15 152.85 165.71 155.98 166.33 159.11 C 165.24 158.27 164.16 157.43 163.08 156.59 C 162.63 159.48 162.20 162.38 161.96 165.30 C 160.93 163.92 159.73 162.82 158.34 164.51 C 157.89 163.93 157.44 163.36 156.99 162.79 L 156.44 161.74 C 156.31 161.38 156.05 160.67 155.92 160.31 C 155.43 160.43 154.46 160.67 153.97 160.79 C 153.48 159.30 152.90 157.83 152.05 156.51 C 152.37 159.80 152.78 163.08 152.95 166.39 L 152.54 165.76 C 151.92 164.77 151.19 163.87 150.47 162.96 C 150.45 163.72 150.41 165.25 150.39 166.01 C 149.96 166.42 149.11 167.24 148.68 167.65 C 148.53 170.03 148.31 172.41 148.03 174.78 C 146.31 172.60 144.90 170.21 143.73 167.71 C 142.90 168.58 142.06 169.44 141.24 170.32 C 140.49 169.34 139.75 168.36 139.01 167.38 C 138.31 169.89 137.49 172.39 136.11 174.62 C 135.35 173.03 134.62 171.42 133.90 169.81 C 132.51 170.22 131.13 170.69 129.89 171.44 C 129.72 172.03 129.39 173.22 129.22 173.81 C 128.28 175.03 127.27 176.19 126.21 177.30 C 125.93 176.94 125.37 176.20 125.09 175.84 L 124.51 174.59 C 124.41 174.14 124.21 173.26 124.11 172.81 C 123.05 173.74 121.98 174.67 121.03 175.72 C 120.73 174.83 120.14 173.05 119.85 172.15 C 119.33 171.55 118.81 170.96 118.28 170.37 C 117.73 172.43 116.99 174.43 116.07 176.36 L 115.01 174.52 C 114.74 174.04 114.19 173.08 113.92 172.61 C 113.27 173.63 112.63 174.66 112.01 175.71 C 111.78 175.01 111.31 173.61 111.07 172.92 C 110.46 171.53 109.72 170.18 108.73 169.03 C 107.02 169.10 107.44 171.35 106.73 172.38 C 104.49 169.46 103.17 165.99 101.84 162.60 C 101.36 164.08 99.87 164.76 98.73 165.64 L 98.24 165.02 C 98.63 162.96 98.74 160.86 98.73 158.78 C 96.34 160.22 96.81 163.54 96.00 165.90 C 95.30 165.92 93.89 165.97 93.18 166.00 L 92.80 165.03 C 91.83 165.88 90.80 166.67 89.81 167.49 C 89.62 166.87 89.23 165.64 89.04 165.02 C 88.39 163.24 87.53 161.55 86.64 159.88 C 86.34 160.75 85.73 162.48 85.43 163.34 C 83.86 160.04 82.72 156.55 81.97 152.98 C 81.05 150.72 83.72 149.59 84.87 148.14 C 89.56 148.77 93.64 151.38 98.18 152.57 C 100.79 153.28 103.39 154.09 105.97 154.92 C 108.92 156.09 112.03 154.81 115.06 154.88 C 117.01 155.34 118.49 156.78 120.08 157.90 C 120.91 157.51 121.75 157.13 122.59 156.75 C 122.48 155.57 122.43 154.40 122.32 153.23 C 126.12 152.41 129.80 151.10 133.18 149.17 C 135.34 147.47 137.91 150.77 140.02 149.07 C 140.92 147.50 140.96 145.52 142.05 144.06 C 144.02 142.10 146.83 139.33 149.67 141.44 C 149.80 138.59 150.88 135.97 152.79 133.86 C 153.44 134.47 154.08 135.08 154.73 135.69 C 155.25 132.76 156.57 129.62 155.24 126.72 C 154.27 123.78 152.14 120.75 153.43 117.57 C 154.06 115.36 156.40 114.45 158.05 113.12 L 156.92 113.05 C 158.06 112.25 159.17 111.43 160.30 110.61 C 162.20 112.75 164.24 114.75 166.17 116.85 C 168.26 115.06 168.83 112.30 169.96 109.92 Z" />
</g>
<g id="#ccced9ff">
<path fill="#ccced9" opacity="1.00" d=" M 147.71 113.31 L 148.04 113.15 C 147.69 115.88 147.68 118.64 147.64 121.39 C 144.43 121.00 142.08 118.38 141.42 115.32 C 143.59 114.93 145.75 114.36 147.71 113.31 Z" />
</g>
<g id="#645e9cff">
<path fill="#645e9c" opacity="1.00" d=" M 149.89 113.19 L 150.50 113.39 C 152.59 114.49 154.82 113.71 156.92 113.05 L 158.05 113.12 C 156.40 114.45 154.06 115.36 153.43 117.57 C 152.14 120.75 154.27 123.78 155.24 126.72 C 156.57 129.62 155.25 132.76 154.73 135.69 C 154.08 135.08 153.44 134.47 152.79 133.86 C 150.88 135.97 149.80 138.59 149.67 141.44 C 146.83 139.33 144.02 142.10 142.05 144.06 C 140.96 145.52 140.92 147.50 140.02 149.07 C 137.91 150.77 135.34 147.47 133.18 149.17 C 129.80 151.10 126.12 152.41 122.32 153.23 C 122.43 154.40 122.48 155.57 122.59 156.75 C 121.75 157.13 120.91 157.51 120.08 157.90 C 118.49 156.78 117.01 155.34 115.06 154.88 C 112.03 154.81 108.92 156.09 105.97 154.92 C 103.39 154.09 100.79 153.28 98.18 152.57 C 93.64 151.38 89.56 148.77 84.87 148.14 C 82.97 148.78 81.37 150.00 80.14 151.57 C 79.84 151.91 79.25 152.59 78.95 152.92 C 78.44 152.98 77.41 153.09 76.90 153.15 C 76.79 151.66 76.66 150.17 76.52 148.69 C 76.21 149.05 75.60 149.77 75.29 150.14 C 74.63 151.36 73.74 152.36 72.61 153.13 C 72.65 151.14 72.82 149.15 72.78 147.15 C 72.36 146.81 71.50 146.11 71.07 145.76 C 72.28 141.54 73.64 137.37 75.08 133.22 C 73.55 134.33 72.00 135.42 70.43 136.48 C 70.60 135.59 70.95 133.80 71.12 132.91 C 71.95 130.62 73.35 128.60 74.90 126.74 C 75.91 125.46 76.89 124.16 77.78 122.80 C 79.22 125.43 80.54 128.13 81.52 130.97 C 83.39 129.04 85.24 127.08 86.81 124.90 C 87.27 126.08 87.73 127.27 88.21 128.45 C 88.59 128.50 89.34 128.62 89.72 128.67 C 90.20 130.51 90.70 132.34 91.25 134.16 C 93.76 131.34 94.65 127.57 96.28 124.24 C 96.96 126.26 97.73 128.24 98.61 130.18 C 99.67 129.53 100.73 128.89 101.79 128.24 C 102.13 130.62 102.47 132.99 102.83 135.37 C 104.35 134.79 105.93 135.06 107.41 135.64 C 107.65 137.38 107.91 139.11 108.19 140.85 C 110.78 137.96 113.14 134.85 114.07 131.01 C 114.52 128.89 117.09 129.81 118.61 129.66 C 121.20 127.35 123.58 124.81 125.91 122.24 C 128.59 123.66 131.54 124.41 134.54 124.76 C 134.75 124.05 135.17 122.64 135.38 121.94 C 137.66 122.99 139.84 124.25 141.90 125.70 C 142.24 124.09 142.60 122.50 142.95 120.90 C 144.64 122.23 146.66 123.08 148.84 123.07 C 148.85 119.75 149.09 116.42 149.89 113.19 M 122.19 141.84 C 124.40 145.69 130.30 148.69 133.94 144.99 C 133.00 143.85 132.31 142.53 131.62 141.24 C 133.44 140.81 135.24 140.30 137.02 139.70 C 136.40 137.76 134.90 136.34 133.50 134.95 C 134.51 134.26 136.31 134.15 136.67 132.78 C 136.33 129.30 132.17 127.42 129.04 128.12 C 123.67 130.06 120.46 136.38 122.19 141.84 Z" />
</g>
<g id="#1f1d2ed5">
<path fill="#1f1d2e" opacity="0.84" d=" M 64.18 117.27 C 65.01 115.90 65.63 114.23 67.21 113.53 C 65.84 117.32 63.28 120.52 61.78 124.26 C 64.94 122.71 67.97 120.88 71.26 119.60 C 71.04 121.97 70.71 124.33 70.20 126.66 C 73.07 125.39 75.69 123.63 77.70 121.19 C 77.72 121.59 77.76 122.40 77.78 122.80 C 76.89 124.16 75.91 125.46 74.90 126.74 C 72.93 125.06 70.83 128.28 68.89 128.97 C 68.97 126.30 69.77 123.75 70.43 121.19 C 67.40 122.15 64.84 124.14 61.85 125.21 C 61.57 124.95 60.99 124.41 60.71 124.15 C 61.25 121.58 62.98 119.53 64.18 117.27 Z" />
</g>
<g id="#03030477">
<path fill="#030304" opacity="0.47" d=" M 60.05 124.11 L 60.71 124.15 C 60.99 124.41 61.57 124.95 61.85 125.21 L 61.94 125.91 C 60.72 128.62 57.48 125.50 60.05 124.11 Z" />
</g>
<g id="#453f4eff">
<path fill="#453f4e" opacity="1.00" d=" M 122.19 141.84 C 120.46 136.38 123.67 130.06 129.04 128.12 C 132.17 127.42 136.33 129.30 136.67 132.78 C 136.31 134.15 134.51 134.26 133.50 134.95 C 134.90 136.34 136.40 137.76 137.02 139.70 C 135.24 140.30 133.44 140.81 131.62 141.24 C 132.31 142.53 133.00 143.85 133.94 144.99 C 130.30 148.69 124.40 145.69 122.19 141.84 M 125.41 143.51 C 127.50 144.75 129.85 145.39 132.29 145.28 C 131.31 143.72 130.07 142.37 128.72 141.13 C 130.07 140.34 131.58 139.92 133.05 139.43 C 133.62 139.37 134.74 139.27 135.31 139.21 C 133.94 137.32 131.97 136.03 130.11 134.68 C 131.02 134.12 131.99 133.69 133.03 133.40 C 133.60 133.34 134.73 133.22 135.30 133.16 C 134.61 129.95 131.02 129.12 128.23 129.86 C 123.13 131.84 121.30 139.71 125.41 143.51 Z" />
</g>
<g id="#2f2a2dd8">
<path fill="#2f2a2d" opacity="0.85" d=" M 169.96 128.34 C 173.06 128.21 176.18 128.12 179.27 128.54 C 180.31 128.73 180.94 129.37 181.15 130.45 C 179.24 130.14 177.40 129.23 175.44 129.42 C 177.25 132.95 179.17 137.77 175.89 141.09 C 176.82 137.52 177.12 133.52 174.29 130.71 C 173.68 129.65 172.79 129.11 171.60 129.07 C 171.73 129.79 171.98 131.22 172.11 131.93 C 171.73 132.34 170.96 133.16 170.58 133.57 C 170.24 131.84 170.07 130.09 169.96 128.34 Z" />
</g>
<g id="#ddcbb1ff">
<path fill="#ddcbb1" opacity="1.00" d=" M 171.60 129.07 C 172.79 129.11 173.68 129.65 174.29 130.71 C 173.74 131.02 172.65 131.63 172.11 131.93 C 171.98 131.22 171.73 129.79 171.60 129.07 Z" />
</g>
<g id="#b3a08aff">
<path fill="#b3a08a" opacity="1.00" d=" M 125.41 143.51 C 121.30 139.71 123.13 131.84 128.23 129.86 C 129.38 131.56 130.88 133.11 133.03 133.40 C 131.99 133.69 131.02 134.12 130.11 134.68 C 129.17 135.43 128.28 136.23 127.39 137.02 C 129.22 137.94 131.08 138.85 133.05 139.43 C 131.58 139.92 130.07 140.34 128.72 141.13 C 127.59 141.88 126.51 142.71 125.41 143.51 Z" />
<path fill="#b3a08a" opacity="1.00" d=" M 174.29 130.71 C 177.12 133.52 176.82 137.52 175.89 141.09 C 175.72 141.33 175.38 141.82 175.21 142.06 C 172.61 143.61 169.60 144.09 166.70 143.12 C 167.32 142.04 167.85 140.91 168.50 139.84 C 167.22 138.15 165.98 136.43 164.77 134.70 C 165.07 134.51 165.69 134.14 165.99 133.95 C 166.78 133.94 168.35 133.92 169.13 133.91 C 169.49 133.83 170.22 133.66 170.58 133.57 C 170.96 133.16 171.73 132.34 172.11 131.93 C 172.65 131.63 173.74 131.02 174.29 130.71 Z" />
</g>
<g id="#e2d0b8ff">
<path fill="#e2d0b8" opacity="1.00" d=" M 128.23 129.86 C 131.02 129.12 134.61 129.95 135.30 133.16 C 134.73 133.22 133.60 133.34 133.03 133.40 C 130.88 133.11 129.38 131.56 128.23 129.86 Z" />
</g>
<g id="#171623b0">
<path fill="#171623" opacity="0.69" d=" M 68.20 137.77 C 69.03 136.08 69.36 133.91 71.12 132.91 C 70.95 133.80 70.60 135.59 70.43 136.48 C 72.00 135.42 73.55 134.33 75.08 133.22 C 73.64 137.37 72.28 141.54 71.07 145.76 C 71.50 146.11 72.36 146.81 72.78 147.15 C 71.68 147.76 70.52 148.23 69.36 148.71 C 70.19 144.38 71.66 140.20 73.35 136.14 C 71.64 136.69 69.93 137.26 68.20 137.77 Z" />
</g>
<g id="#3c374cff">
<path fill="#3c374c" opacity="1.00" d=" M 165.99 133.95 C 166.60 132.54 168.58 132.33 169.13 133.91 C 168.35 133.92 166.78 133.94 165.99 133.95 Z" />
</g>
<g id="#d4c3acff">
<path fill="#d4c3ac" opacity="1.00" d=" M 127.39 137.02 C 128.28 136.23 129.17 135.43 130.11 134.68 C 131.97 136.03 133.94 137.32 135.31 139.21 C 134.74 139.27 133.62 139.37 133.05 139.43 C 131.08 138.85 129.22 137.94 127.39 137.02 Z" />
</g>
<g id="#23202ace">
<path fill="#23202a" opacity="0.81" d=" M 163.86 135.28 L 164.77 134.70 C 165.98 136.43 167.22 138.15 168.50 139.84 C 167.85 140.91 167.32 142.04 166.70 143.12 C 169.60 144.09 172.61 143.61 175.21 142.06 C 174.46 142.83 173.67 143.54 172.83 144.20 C 173.45 145.89 174.04 147.58 174.56 149.31 C 173.57 149.10 171.57 148.68 170.57 148.47 C 171.35 150.63 171.71 152.89 171.96 155.17 C 170.62 153.42 168.37 153.35 166.50 154.04 C 166.91 156.63 167.32 159.22 167.62 161.82 C 166.57 160.81 165.54 159.77 164.54 158.72 C 162.39 160.96 163.88 164.83 162.04 166.97 C 161.70 166.57 161.01 165.77 160.66 165.36 C 160.01 165.51 158.69 165.82 158.03 165.97 C 157.68 164.91 157.33 163.85 156.99 162.79 C 157.44 163.36 157.89 163.93 158.34 164.51 C 159.73 162.82 160.93 163.92 161.96 165.30 C 162.20 162.38 162.63 159.48 163.08 156.59 C 164.16 157.43 165.24 158.27 166.33 159.11 C 165.71 155.98 165.15 152.85 164.39 149.75 C 165.24 150.68 166.04 151.66 166.90 152.58 C 168.12 152.44 169.34 152.30 170.56 152.17 C 170.05 150.13 169.57 148.09 168.95 146.08 C 170.28 147.23 171.90 147.91 173.52 148.56 C 172.91 147.22 172.30 145.90 171.67 144.57 C 169.78 144.39 167.89 144.19 166.01 143.98 C 167.72 140.73 165.48 137.93 163.86 135.28 Z" />
</g>
<g id="#d7c5adff">
<path fill="#d7c5ad" opacity="1.00" d=" M 125.41 143.51 C 126.51 142.71 127.59 141.88 128.72 141.13 C 130.07 142.37 131.31 143.72 132.29 145.28 C 129.85 145.39 127.50 144.75 125.41 143.51 Z" />
</g>
<g id="#181723c8">
<path fill="#181723" opacity="0.78" d=" M 80.14 151.57 C 81.37 150.00 82.97 148.78 84.87 148.14 C 83.72 149.59 81.05 150.72 81.97 152.98 C 82.72 156.55 83.86 160.04 85.43 163.34 C 85.73 162.48 86.34 160.75 86.64 159.88 C 87.53 161.55 88.39 163.24 89.04 165.02 C 88.49 164.55 87.40 163.61 86.85 163.14 C 86.44 163.72 85.62 164.87 85.21 165.45 C 82.91 161.05 81.96 156.15 80.14 151.57 Z" />
</g>
<g id="#232134e9">
<path fill="#232134" opacity="0.91" d=" M 75.29 150.14 C 75.60 149.77 76.21 149.05 76.52 148.69 C 76.66 150.17 76.79 151.66 76.90 153.15 C 77.41 153.09 78.44 152.98 78.95 152.92 C 78.22 154.09 77.03 154.80 75.91 155.54 C 75.73 153.73 75.29 151.95 75.29 150.14 Z" />
</g>
<g id="#332e32db">
<path fill="#332e32" opacity="0.86" d=" M 152.05 156.51 C 152.90 157.83 153.48 159.30 153.97 160.79 C 154.46 160.67 155.43 160.43 155.92 160.31 C 156.05 160.67 156.31 161.38 156.44 161.74 C 155.58 162.45 154.71 163.17 153.85 163.89 C 154.12 164.95 154.38 166.01 154.63 167.07 C 159.26 169.65 164.99 168.74 169.53 171.40 C 173.42 173.59 173.67 179.74 170.18 182.39 C 166.88 185.61 161.81 185.26 157.54 185.25 C 150.41 184.49 143.10 181.89 137.89 176.80 C 137.37 176.60 136.34 176.21 135.82 176.01 C 135.17 174.58 134.63 173.11 134.11 171.63 C 133.60 172.13 132.58 173.12 132.07 173.62 C 131.07 173.26 130.63 172.11 129.89 171.44 C 131.13 170.69 132.51 170.22 133.90 169.81 C 134.62 171.42 135.35 173.03 136.11 174.62 C 137.49 172.39 138.31 169.89 139.01 167.38 C 139.75 168.36 140.49 169.34 141.24 170.32 C 142.06 169.44 142.90 168.58 143.73 167.71 C 144.90 170.21 146.31 172.60 148.03 174.78 C 148.31 172.41 148.53 170.03 148.68 167.65 C 149.11 167.24 149.96 166.42 150.39 166.01 C 150.41 165.25 150.45 163.72 150.47 162.96 C 151.19 163.87 151.92 164.77 152.54 165.76 C 152.41 167.34 151.55 168.63 150.21 169.44 C 149.98 172.23 149.70 175.04 148.96 177.75 C 146.80 176.13 146.21 173.39 144.76 171.25 C 143.31 169.85 142.61 172.93 142.00 173.73 C 141.26 172.53 140.51 171.34 139.74 170.16 C 139.09 172.03 136.82 174.42 138.74 176.26 C 142.36 180.33 147.81 181.88 152.86 183.34 C 158.05 184.48 163.96 185.35 168.65 182.22 C 168.29 180.79 167.97 179.35 167.50 177.96 C 167.11 176.63 165.73 175.89 164.51 175.51 C 163.75 175.28 162.23 174.82 161.47 174.59 C 162.16 174.42 163.54 174.06 164.22 173.89 C 167.65 174.91 170.17 177.98 170.07 181.64 C 170.88 179.92 172.20 178.04 171.51 176.04 C 170.69 172.77 167.30 171.32 164.36 170.52 C 160.47 169.75 155.47 170.02 152.95 166.39 C 152.78 163.08 152.37 159.80 152.05 156.51 Z" />
</g>
<g id="#3b3643fe">
<path fill="#3b3643" opacity="1.00" d=" M 96.00 165.90 C 96.81 163.54 96.34 160.22 98.73 158.78 C 98.74 160.86 98.63 162.96 98.24 165.02 C 97.78 166.99 97.02 168.88 96.14 170.70 C 95.80 170.01 95.13 168.61 94.80 167.92 C 94.60 167.99 94.19 168.13 93.99 168.20 C 93.79 167.65 93.38 166.55 93.18 166.00 C 93.89 165.97 95.30 165.92 96.00 165.90 Z" />
</g>
<g id="#302c34fd">
<path fill="#302c34" opacity="1.00" d=" M 98.73 165.64 C 99.87 164.76 101.36 164.08 101.84 162.60 C 103.17 165.99 104.49 169.46 106.73 172.38 C 107.44 171.35 107.02 169.10 108.73 169.03 C 109.72 170.18 110.46 171.53 111.07 172.92 C 110.60 173.18 109.65 173.72 109.18 173.98 C 109.05 173.13 108.79 171.41 108.67 170.55 C 107.94 171.91 107.27 173.29 106.59 174.68 C 104.29 172.08 102.98 168.85 101.53 165.75 C 101.30 166.52 100.86 168.05 100.63 168.82 C 100.05 167.73 99.34 166.72 98.73 165.64 Z" />
</g>
<g id="#211e1db8">
<path fill="#211e1d" opacity="0.72" d=" M 89.81 167.49 C 90.80 166.67 91.83 165.88 92.80 165.03 L 93.18 166.00 C 93.38 166.55 93.79 167.65 93.99 168.20 C 91.82 170.09 89.83 172.21 87.45 173.85 C 85.06 175.50 82.53 176.92 80.02 178.38 C 79.57 176.68 81.61 176.32 82.59 175.55 C 85.69 173.91 88.49 171.80 91.37 169.82 C 90.84 169.04 90.33 168.27 89.81 167.49 Z" />
</g>
<g id="#b2a08aff">
<path fill="#b2a08a" opacity="1.00" d=" M 98.24 165.02 L 98.73 165.64 C 99.34 166.72 100.05 167.73 100.63 168.82 C 100.86 168.05 101.30 166.52 101.53 165.75 C 102.98 168.85 104.29 172.08 106.59 174.68 C 107.27 173.29 107.94 171.91 108.67 170.55 C 108.79 171.41 109.05 173.13 109.18 173.98 L 109.27 174.60 C 107.97 177.01 106.89 179.55 105.48 181.91 C 104.75 181.76 104.02 181.60 103.29 181.45 C 99.27 176.69 92.56 176.79 87.45 173.85 C 89.83 172.21 91.82 170.09 93.99 168.20 C 94.19 168.13 94.60 167.99 94.80 167.92 C 95.13 168.61 95.80 170.01 96.14 170.70 C 97.02 168.88 97.78 166.99 98.24 165.02 Z" />
</g>
<g id="#af9d89ff">
<path fill="#af9d89" opacity="1.00" d=" M 152.54 165.76 L 152.95 166.39 C 155.47 170.02 160.47 169.75 164.36 170.52 C 163.31 171.23 162.26 171.94 161.22 172.65 C 162.22 173.05 163.23 173.46 164.22 173.89 C 163.54 174.06 162.16 174.42 161.47 174.59 C 156.12 172.85 152.41 178.53 152.86 183.34 C 147.81 181.88 142.36 180.33 138.74 176.26 C 136.82 174.42 139.09 172.03 139.74 170.16 C 140.51 171.34 141.26 172.53 142.00 173.73 C 142.61 172.93 143.31 169.85 144.76 171.25 C 146.21 173.39 146.80 176.13 148.96 177.75 C 149.70 175.04 149.98 172.23 150.21 169.44 C 151.55 168.63 152.41 167.34 152.54 165.76 Z" />
</g>
<g id="#2b283ff2">
<path fill="#2b283f" opacity="0.95" d=" M 118.28 170.37 C 118.81 170.96 119.33 171.55 119.85 172.15 C 118.18 172.66 118.05 174.36 117.59 175.78 C 117.37 175.93 116.95 176.23 116.74 176.39 L 116.07 176.36 C 116.99 174.43 117.73 172.43 118.28 170.37 Z" />
</g>
<g id="#d7c6b1ff">
<path fill="#d7c6b1" opacity="1.00" d=" M 164.36 170.52 C 167.30 171.32 170.69 172.77 171.51 176.04 C 172.20 178.04 170.88 179.92 170.07 181.64 C 170.17 177.98 167.65 174.91 164.22 173.89 C 163.23 173.46 162.22 173.05 161.22 172.65 C 162.26 171.94 163.31 171.23 164.36 170.52 Z" />
</g>
<g id="#09090d89">
<path fill="#09090d" opacity="0.54" d=" M 112.01 175.71 C 112.63 174.66 113.27 173.63 113.92 172.61 C 114.19 173.08 114.74 174.04 115.01 174.52 C 114.28 175.22 112.50 178.06 112.01 175.71 Z" />
</g>
<g id="#01010186">
<path fill="#010101" opacity="0.53" d=" M 117.59 175.78 C 118.05 174.36 118.18 172.66 119.85 172.15 C 119.34 174.21 118.58 176.19 118.04 178.24 C 117.54 177.90 116.54 177.22 116.04 176.88 L 116.74 176.39 C 116.95 176.23 117.37 175.93 117.59 175.78 Z" />
</g>
<g id="#14121dbb">
<path fill="#14121d" opacity="0.73" d=" M 121.03 175.72 C 121.98 174.67 123.05 173.74 124.11 172.81 C 124.21 173.26 124.41 174.14 124.51 174.59 C 123.26 174.93 121.53 178.40 121.03 175.72 Z" />
</g>
<g id="#d7c7b0ff">
<path fill="#d7c7b0" opacity="1.00" d=" M 80.02 178.38 C 82.53 176.92 85.06 175.50 87.45 173.85 C 92.56 176.79 99.27 176.69 103.29 181.45 C 104.02 181.60 104.75 181.76 105.48 181.91 C 101.96 186.57 96.78 189.66 91.23 191.26 C 88.85 191.69 86.42 191.57 84.06 191.11 C 82.36 187.86 84.50 184.04 87.51 182.49 C 88.87 181.68 90.24 180.87 91.51 179.91 C 85.74 180.00 81.21 185.06 81.19 190.72 C 79.26 189.39 77.00 188.12 75.99 185.90 C 75.35 183.00 77.82 180.88 79.42 178.84 C 79.57 178.72 79.87 178.49 80.02 178.38 Z" />
</g>
<g id="#1a1927d1">
<path fill="#1a1927" opacity="0.82" d=" M 126.21 177.30 C 127.27 176.19 128.28 175.03 129.22 173.81 C 128.64 175.63 128.29 178.63 125.99 178.93 C 125.64 177.91 125.34 176.88 125.09 175.84 C 125.37 176.20 125.93 176.94 126.21 177.30 Z" />
</g>
<g id="#d6c6b0ff">
<path fill="#d6c6b0" opacity="1.00" d=" M 152.86 183.34 C 152.41 178.53 156.12 172.85 161.47 174.59 C 162.23 174.82 163.75 175.28 164.51 175.51 C 164.31 177.15 165.80 179.55 167.50 177.96 C 167.97 179.35 168.29 180.79 168.65 182.22 C 163.96 185.35 158.05 184.48 152.86 183.34 Z" />
</g>
<g id="#27231ebb">
<path fill="#27231e" opacity="0.73" d=" M 105.48 181.91 C 106.89 179.55 107.97 177.01 109.27 174.60 C 108.75 181.38 103.35 186.70 97.65 189.79 C 93.28 192.43 87.72 194.24 82.77 192.23 C 85.61 192.13 88.46 191.92 91.23 191.26 C 96.78 189.66 101.96 186.57 105.48 181.91 Z" />
</g>
<g id="#f0dec5ff">
<path fill="#f0dec5" opacity="1.00" d=" M 164.51 175.51 C 165.73 175.89 167.11 176.63 167.50 177.96 C 165.80 179.55 164.31 177.15 164.51 175.51 Z" />
</g>
<g id="#332e28c8">
<path fill="#332e28" opacity="0.78" d=" M 74.94 185.05 C 74.93 181.96 77.21 179.64 79.36 177.74 L 79.42 178.84 C 77.82 180.88 75.35 183.00 75.99 185.90 C 77.00 188.12 79.26 189.39 81.19 190.72 L 81.55 190.78 C 82.18 190.86 83.43 191.03 84.06 191.11 C 86.42 191.57 88.85 191.69 91.23 191.26 C 88.46 191.92 85.61 192.13 82.77 192.23 C 79.03 191.79 75.65 188.75 74.94 185.05 Z" />
</g>
<g id="#6d6358ff">
<path fill="#6d6358" opacity="1.00" d=" M 81.19 190.72 C 81.21 185.06 85.74 180.00 91.51 179.91 C 90.24 180.87 88.87 181.68 87.51 182.49 C 84.50 184.04 82.36 187.86 84.06 191.11 C 83.43 191.03 82.18 190.86 81.55 190.78 L 81.19 190.72 Z" />
</g>
</svg>
