<?xml version="1.0" encoding="UTF-8" ?>
<!DOCTYPE svg PUBLIC "-//W3C//DTD SVG 1.1//EN" "http://www.w3.org/Graphics/SVG/1.1/DTD/svg11.dtd">
<svg width="215pt" height="215pt" viewBox="0 0 215 215" version="1.1" xmlns="http://www.w3.org/2000/svg">
<g id="#020204ff">
<path fill="#020204" opacity="1.00" d=" M 82.14 34.26 C 92.76 28.57 105.42 27.29 117.15 29.64 C 124.84 30.67 132.22 33.33 138.98 37.10 C 139.97 37.58 140.72 38.31 141.24 39.29 C 135.10 35.94 128.65 33.02 121.77 31.60 C 109.03 28.76 94.99 28.95 83.25 35.21 C 74.78 39.10 68.19 46.06 62.80 53.51 C 62.79 51.23 64.80 49.76 66.05 48.09 C 70.50 42.57 75.69 37.41 82.14 34.26 Z" />
<path fill="#020204" opacity="1.00" d=" M 144.55 41.99 C 149.41 43.92 151.93 49.04 154.80 53.11 C 159.91 60.37 162.16 69.24 162.76 78.00 C 163.31 97.06 163.66 116.15 163.82 135.23 C 166.88 136.42 170.48 137.23 172.12 140.42 C 177.37 139.61 182.38 142.50 185.63 146.42 C 187.44 148.58 186.79 151.59 187.01 154.18 C 185.75 152.85 184.55 151.46 183.35 150.07 C 184.22 150.29 185.96 150.72 186.82 150.94 C 184.72 145.19 178.71 141.92 172.95 140.99 C 174.00 142.69 175.09 144.36 176.13 146.06 C 174.00 144.37 172.18 142.36 170.56 140.20 C 168.97 138.22 166.49 137.55 164.21 136.74 C 164.47 140.94 164.08 145.19 164.63 149.37 C 164.88 149.58 165.37 150.00 165.61 150.22 C 167.68 151.17 169.94 151.80 171.79 153.17 C 173.28 154.29 173.45 156.30 174.07 157.93 C 169.66 158.85 165.29 157.24 161.13 155.96 C 158.95 155.22 156.96 153.94 156.73 151.41 C 153.85 153.06 152.71 156.11 151.52 159.00 C 151.13 159.26 150.34 159.78 149.94 160.04 C 151.22 162.00 153.19 164.06 152.45 166.63 C 152.22 168.31 149.99 168.20 148.81 168.85 C 149.07 169.48 149.60 170.75 149.87 171.39 C 146.06 172.10 142.12 171.96 138.47 170.63 C 131.57 168.45 123.53 167.45 118.51 161.71 C 118.52 160.85 118.54 159.11 118.56 158.25 C 116.02 159.83 114.33 162.32 112.43 164.55 C 110.55 163.01 108.64 161.51 106.68 160.09 C 107.05 161.26 107.44 162.43 107.86 163.60 C 107.46 168.22 107.12 173.50 103.91 177.12 C 101.66 177.67 99.29 176.86 97.02 176.69 C 93.65 176.51 91.29 173.85 89.15 171.56 C 88.76 171.08 88.38 170.60 88.01 170.11 C 85.81 166.98 84.76 163.30 84.34 159.53 C 82.99 161.98 82.73 165.49 79.81 166.65 C 77.30 168.24 74.15 167.58 71.68 166.30 C 69.53 164.61 69.31 161.75 70.07 159.32 C 68.05 157.33 67.40 154.52 66.42 151.96 C 65.00 156.38 63.04 161.07 58.78 163.46 C 54.20 166.06 50.18 169.83 44.99 171.23 C 43.75 169.31 41.78 167.20 42.89 164.74 C 44.85 159.01 48.58 153.67 53.73 150.38 C 54.54 146.36 53.86 142.29 53.52 138.26 C 50.06 138.37 46.64 138.89 43.22 139.38 C 45.25 138.12 47.60 137.58 49.93 137.17 C 51.12 137.22 52.30 137.30 53.49 137.40 C 53.11 126.17 53.24 114.92 53.47 103.69 C 54.24 111.41 53.72 119.20 53.85 126.95 C 53.99 130.68 52.95 134.67 54.64 138.18 C 55.01 141.62 55.29 145.08 55.69 148.53 C 57.82 147.07 60.37 145.43 62.93 147.00 C 67.46 148.15 69.25 152.96 69.38 157.19 C 72.36 158.45 74.95 154.96 77.91 156.27 C 79.96 156.96 81.41 158.67 82.96 160.09 C 84.88 158.02 86.53 155.50 89.12 154.22 C 91.50 153.06 94.12 154.08 96.53 154.55 C 99.54 155.15 102.40 156.25 105.16 157.56 C 107.57 159.26 109.93 161.05 112.23 162.91 C 114.93 158.64 119.24 155.71 124.19 154.73 C 132.14 153.23 141.43 152.99 147.98 158.50 C 148.73 158.40 150.23 158.20 150.98 158.11 C 151.85 155.78 152.31 153.03 154.45 151.46 C 156.63 149.38 159.76 149.20 162.59 148.84 C 162.74 138.58 162.63 128.32 162.40 118.07 C 162.17 109.07 162.33 100.07 161.78 91.09 C 161.93 78.23 161.04 64.62 153.76 53.56 C 151.58 49.02 147.39 46.04 144.55 41.99 M 51.31 153.24 C 48.35 156.17 46.15 159.76 44.15 163.38 C 45.32 164.54 46.52 165.66 47.74 166.77 C 52.67 167.45 56.70 164.19 60.38 161.40 C 63.52 158.73 64.54 154.58 65.76 150.83 C 63.96 148.89 61.56 147.87 58.96 147.57 C 56.52 149.62 53.69 151.13 51.31 153.24 M 157.46 152.91 C 162.17 155.86 167.81 157.51 173.38 157.40 C 171.71 152.68 166.03 152.07 161.89 150.72 C 159.93 149.71 158.48 151.51 157.46 152.91 M 86.31 159.13 L 85.59 159.07 C 85.51 162.40 86.48 165.70 88.30 168.49 C 90.89 172.10 94.13 176.18 99.07 175.88 C 97.43 173.54 95.26 171.16 95.64 168.06 C 95.69 165.98 97.62 162.75 100.08 163.88 C 103.45 165.13 103.98 169.07 104.91 172.07 L 106.14 171.38 C 106.88 168.19 107.26 164.81 106.20 161.65 L 105.83 161.61 C 103.63 155.90 96.89 156.44 91.93 155.58 C 89.63 155.25 86.25 156.34 86.31 159.13 M 125.84 155.96 C 123.40 156.21 120.67 156.81 119.13 158.89 C 118.97 161.32 120.87 163.11 122.99 163.89 L 123.05 164.03 C 127.29 165.71 131.36 168.05 135.85 168.95 C 137.98 166.85 140.96 164.47 144.12 165.83 C 146.51 166.13 149.65 168.54 151.68 166.62 C 152.39 163.05 148.34 160.95 146.18 158.78 L 145.97 158.78 C 144.19 157.47 142.12 155.95 139.78 156.35 L 140.29 156.12 C 138.80 156.05 137.29 155.73 135.81 156.00 C 132.54 155.13 129.15 155.64 125.84 155.96 M 74.77 157.82 C 73.77 159.69 75.64 161.15 76.65 162.46 C 78.21 162.60 79.76 162.77 81.32 162.95 C 82.35 159.63 77.62 156.55 74.77 157.82 M 70.49 161.29 C 71.30 163.08 71.90 165.36 74.04 165.99 C 76.86 167.44 80.00 166.03 81.99 163.89 C 80.03 163.54 77.90 163.83 76.04 163.03 C 74.16 162.08 73.93 159.79 73.23 158.04 C 72.33 159.13 71.41 160.21 70.49 161.29 M 96.42 171.09 C 98.11 172.95 99.64 175.13 101.99 176.21 C 103.59 176.86 105.22 174.76 104.59 173.28 C 103.39 169.98 102.14 166.38 98.98 164.46 C 96.27 165.69 96.30 168.53 96.42 171.09 M 44.02 165.28 C 42.78 169.89 48.03 171.06 50.23 167.89 C 47.72 168.22 45.80 166.81 44.02 165.28 M 137.26 168.98 C 140.92 170.26 145.43 171.90 149.06 169.90 C 146.72 167.93 143.71 167.30 140.84 166.53 C 139.58 167.26 138.39 168.08 137.26 168.98 Z" />
<path fill="#020204" opacity="1.00" d=" M 56.88 64.94 C 58.15 61.36 59.17 57.25 62.16 54.70 C 61.92 55.26 61.43 56.37 61.19 56.92 C 57.51 64.76 55.52 73.37 55.37 82.03 C 54.87 89.42 55.91 96.91 54.56 104.24 C 53.30 102.78 53.75 100.79 53.68 99.05 C 54.10 87.66 53.08 75.90 56.88 64.94 Z" />
<path fill="#020204" opacity="1.00" d=" M 30.50 151.05 C 35.23 149.21 38.65 145.55 41.41 141.43 C 40.39 143.84 39.24 146.23 37.41 148.14 C 35.28 149.78 32.68 150.72 30.62 152.44 C 28.69 154.72 26.92 157.14 25.18 159.56 C 24.73 162.68 23.57 165.70 23.41 168.84 C 24.02 169.29 25.24 170.19 25.86 170.64 C 27.50 169.91 29.15 169.22 30.80 168.52 C 31.99 165.70 33.36 162.65 36.22 161.17 C 40.63 161.21 39.75 167.30 37.21 169.40 C 39.75 170.98 42.73 172.78 42.49 176.23 C 45.66 177.64 48.88 178.96 52.13 180.17 C 55.09 181.09 57.79 179.81 59.85 177.72 C 58.59 180.33 55.83 182.20 52.86 181.29 C 48.95 180.17 45.08 178.79 41.42 177.01 C 41.98 172.57 37.36 170.95 34.06 169.64 C 29.97 168.51 26.41 173.06 22.51 170.32 C 22.16 166.73 23.46 163.29 23.69 159.73 C 25.44 157.23 28.29 155.16 28.49 151.87 C 28.95 148.83 28.24 144.36 31.74 142.94 C 30.39 145.44 30.21 148.28 30.50 151.05 M 32.34 168.40 C 34.17 169.62 36.91 168.85 37.82 166.84 C 39.04 165.25 37.33 163.38 36.92 161.81 C 34.62 163.19 32.15 165.49 32.34 168.40 Z" />
<path fill="#020204" opacity="1.00" d=" M 161.28 158.31 C 165.91 159.30 171.59 160.72 173.59 165.54 C 176.80 167.00 179.71 169.00 182.89 170.49 L 183.90 170.95 L 183.57 172.27 C 179.08 169.12 173.91 165.64 168.17 166.22 C 167.86 166.92 167.25 168.30 166.95 169.00 C 171.35 172.71 177.02 173.87 182.27 175.85 C 183.01 174.87 183.76 173.90 184.52 172.93 C 185.25 175.88 182.38 177.91 179.89 178.57 C 175.21 178.68 170.49 177.18 165.88 178.65 C 165.17 180.74 165.23 183.78 162.71 184.63 C 158.41 187.03 153.31 185.74 148.85 184.56 C 146.18 184.27 143.55 183.75 141.04 182.79 C 138.32 183.11 135.58 183.36 132.89 183.90 C 133.66 182.98 134.77 182.55 135.91 182.33 C 139.65 181.98 143.40 182.22 147.03 183.21 L 147.54 182.43 C 148.20 181.41 148.81 180.37 149.55 179.41 C 153.14 178.22 154.41 183.17 156.20 185.33 C 158.59 184.52 161.19 183.88 163.10 182.13 C 164.46 180.59 164.52 177.47 167.03 177.35 C 171.49 176.83 176.02 177.54 180.46 176.71 C 175.78 174.90 170.69 173.50 166.98 169.92 C 165.37 168.63 166.95 166.55 167.05 164.93 C 164.39 163.40 160.27 162.22 161.28 158.31 M 161.77 159.66 C 162.48 162.59 165.58 163.08 168.00 163.99 C 169.26 164.20 170.90 165.54 171.92 164.04 C 169.59 160.90 165.22 160.82 161.77 159.66 M 148.82 183.02 C 150.80 183.76 152.81 184.39 154.91 184.72 C 153.66 183.06 152.49 181.24 150.68 180.13 C 148.90 179.83 149.28 181.93 148.82 183.02 Z" />
<path fill="#020204" opacity="1.00" d=" M 188.60 158.56 C 191.70 160.17 194.58 164.33 191.08 167.12 C 191.39 165.93 191.50 164.74 191.42 163.53 C 190.68 162.22 189.86 160.97 189.14 159.66 L 188.60 158.56 Z" />
<path fill="#020204" opacity="1.00" d=" M 60.65 177.03 C 61.50 176.29 62.39 175.61 63.33 174.99 C 67.08 176.29 71.09 175.91 74.94 176.67 C 77.83 178.68 79.98 182.28 83.79 182.56 C 87.63 182.91 91.20 184.50 94.99 185.06 C 98.47 185.20 100.86 182.21 104.00 181.34 C 106.55 181.50 108.94 182.50 111.34 183.29 C 111.49 182.25 111.70 181.21 111.96 180.20 C 114.70 178.29 118.13 176.60 121.53 177.70 C 123.97 178.37 127.33 178.97 128.00 181.88 C 127.33 183.54 125.26 183.66 123.96 184.56 C 126.53 185.91 129.46 185.41 132.24 185.31 C 128.83 187.43 124.29 186.72 120.95 184.77 C 118.99 185.28 116.96 185.48 115.00 184.86 C 110.94 184.33 106.92 183.56 102.99 182.40 C 99.00 185.93 93.18 187.09 88.30 184.74 C 85.39 183.13 81.52 184.36 79.02 181.95 C 76.47 179.77 73.69 176.82 70.06 177.11 C 66.91 177.43 63.76 176.07 60.65 177.03 M 113.28 183.04 C 116.31 185.40 120.23 184.06 123.72 184.33 C 123.76 184.06 123.84 183.51 123.88 183.23 C 127.27 184.00 126.34 178.87 123.57 179.78 C 122.66 177.83 119.79 178.68 118.05 178.70 C 115.99 179.24 112.02 180.07 113.28 183.04 Z" />
</g>
<g id="#c9b1a0ff">
<path fill="#c9b1a0" opacity="1.00" d=" M 83.25 35.21 C 94.99 28.95 109.03 28.76 121.77 31.60 C 121.87 34.38 122.97 37.54 121.08 39.96 C 117.12 46.40 109.89 49.39 103.40 52.55 C 97.60 55.43 91.24 56.78 85.14 58.82 C 84.78 57.48 84.42 56.14 84.03 54.81 C 84.02 53.05 81.50 51.27 80.37 53.18 C 78.31 55.80 77.56 59.16 76.90 62.36 C 71.47 61.26 65.30 61.20 61.19 56.92 C 61.43 56.37 61.92 55.26 62.16 54.70 C 62.25 54.49 62.44 54.05 62.53 53.84 L 62.80 53.51 C 68.19 46.06 74.78 39.10 83.25 35.21 Z" />
</g>
<g id="#b59580ff">
<path fill="#b59580" opacity="1.00" d=" M 121.77 31.60 C 128.65 33.02 135.10 35.94 141.24 39.29 C 142.43 40.06 143.59 40.92 144.55 41.99 C 147.39 46.04 151.58 49.02 153.76 53.56 C 151.53 53.70 150.49 51.51 149.15 50.16 C 148.31 54.80 147.13 59.38 145.21 63.70 C 143.84 66.42 146.49 68.92 146.69 71.62 C 144.90 74.17 142.35 76.17 139.56 77.53 C 137.16 78.78 134.99 76.58 133.01 75.51 C 126.60 77.76 120.20 80.16 113.47 81.28 C 114.61 83.20 115.82 85.19 115.88 87.49 C 115.58 87.92 114.98 88.77 114.68 89.20 C 114.05 86.71 113.75 83.96 111.94 81.98 C 107.50 77.36 101.10 74.96 94.73 74.92 C 86.71 74.64 77.40 75.49 71.87 82.07 C 68.77 77.66 63.76 74.87 58.47 74.08 C 56.11 85.53 57.75 97.33 56.69 108.90 C 56.52 110.34 55.18 111.25 54.44 112.40 C 54.42 109.68 54.28 106.95 54.56 104.24 C 55.91 96.91 54.87 89.42 55.37 82.03 C 55.52 73.37 57.51 64.76 61.19 56.92 C 65.30 61.20 71.47 61.26 76.90 62.36 C 76.98 65.56 76.34 69.66 79.21 71.89 C 80.61 71.68 82.25 71.19 82.60 69.61 C 84.14 64.86 84.03 59.75 84.03 54.81 C 84.42 56.14 84.78 57.48 85.14 58.82 C 91.24 56.78 97.60 55.43 103.40 52.55 C 109.89 49.39 117.12 46.40 121.08 39.96 C 122.97 37.54 121.87 34.38 121.77 31.60 M 111.26 53.18 C 107.56 57.05 107.95 63.08 107.95 68.07 C 107.99 70.57 110.55 74.44 113.30 72.37 C 116.29 68.28 115.80 62.74 115.77 57.93 C 115.93 55.55 114.10 51.96 111.26 53.18 Z" />
<path fill="#b59580" opacity="1.00" d=" M 158.90 120.97 C 160.27 120.28 161.27 119.07 162.40 118.07 C 162.63 128.32 162.74 138.58 162.59 148.84 C 159.76 149.20 156.63 149.38 154.45 151.46 C 152.31 153.03 151.85 155.78 150.98 158.11 C 150.23 158.20 148.73 158.40 147.98 158.50 C 141.43 152.99 132.14 153.23 124.19 154.73 C 119.24 155.71 114.93 158.64 112.23 162.91 C 109.93 161.05 107.57 159.26 105.16 157.56 C 106.77 157.61 108.35 157.93 109.87 158.46 C 107.88 153.87 108.10 147.50 112.08 144.05 C 115.49 140.44 117.82 135.85 121.70 132.67 C 124.04 131.83 126.58 131.76 128.92 130.89 C 130.88 129.25 132.23 126.81 134.75 125.90 C 138.14 124.55 141.55 123.08 145.14 122.34 C 150.26 122.29 155.05 124.59 160.12 125.05 C 157.69 123.52 155.28 121.99 152.90 120.39 C 154.89 120.64 156.88 120.96 158.90 120.97 Z" />
</g>
<g id="#a98a77ff">
<path fill="#a98a77" opacity="1.00" d=" M 149.15 50.16 C 150.49 51.51 151.53 53.70 153.76 53.56 C 161.04 64.62 161.93 78.23 161.78 91.09 C 162.33 100.07 162.17 109.07 162.40 118.07 C 161.27 119.07 160.27 120.28 158.90 120.97 C 156.88 120.96 154.89 120.64 152.90 120.39 C 155.28 121.99 157.69 123.52 160.12 125.05 C 155.05 124.59 150.26 122.29 145.14 122.34 C 141.55 123.08 138.14 124.55 134.75 125.90 C 132.23 126.81 130.88 129.25 128.92 130.89 C 126.58 131.76 124.04 131.83 121.70 132.67 C 117.82 135.85 115.49 140.44 112.08 144.05 C 108.10 147.50 107.88 153.87 109.87 158.46 C 108.35 157.93 106.77 157.61 105.16 157.56 C 102.40 156.25 99.54 155.15 96.53 154.55 C 94.12 154.08 91.50 153.06 89.12 154.22 C 86.53 155.50 84.88 158.02 82.96 160.09 C 81.41 158.67 79.96 156.96 77.91 156.27 C 74.95 154.96 72.36 158.45 69.38 157.19 C 69.25 152.96 67.46 148.15 62.93 147.00 C 60.37 145.43 57.82 147.07 55.69 148.53 C 55.29 145.08 55.01 141.62 54.64 138.18 C 54.06 129.60 54.24 120.98 54.44 112.40 C 55.18 111.25 56.52 110.34 56.69 108.90 C 57.75 97.33 56.11 85.53 58.47 74.08 C 63.76 74.87 68.77 77.66 71.87 82.07 C 70.64 85.26 70.24 89.02 71.84 92.16 C 74.13 95.98 78.49 97.64 82.53 98.89 C 83.85 100.43 85.30 102.07 87.40 102.47 C 92.84 103.78 98.60 104.35 104.14 103.33 C 109.48 102.33 113.43 97.97 115.48 93.15 C 115.03 92.53 114.13 91.29 113.68 90.67 C 113.93 90.30 114.43 89.56 114.68 89.20 C 114.98 88.77 115.58 87.92 115.88 87.49 C 115.82 85.19 114.61 83.20 113.47 81.28 C 120.20 80.16 126.60 77.76 133.01 75.51 C 134.99 76.58 137.16 78.78 139.56 77.53 C 142.35 76.17 144.90 74.17 146.69 71.62 C 146.49 68.92 143.84 66.42 145.21 63.70 C 147.13 59.38 148.31 54.80 149.15 50.16 Z" />
</g>
<g id="#222222ff">
<path fill="#222222" opacity="1.00" d=" M 80.37 53.18 C 81.50 51.27 84.02 53.05 84.03 54.81 C 84.03 59.75 84.14 64.86 82.60 69.61 C 82.25 71.19 80.61 71.68 79.21 71.89 C 76.34 69.66 76.98 65.56 76.90 62.36 C 77.56 59.16 78.31 55.80 80.37 53.18 M 79.57 55.93 C 79.93 56.64 80.65 58.05 81.01 58.76 C 82.54 57.47 83.16 55.67 81.97 53.92 C 81.17 54.59 80.37 55.26 79.57 55.93 M 79.22 69.76 C 81.87 71.22 81.64 67.17 82.13 65.64 C 79.52 65.09 78.29 67.59 79.22 69.76 Z" />
</g>
<g id="#232323ff">
<path fill="#232323" opacity="1.00" d=" M 111.26 53.18 C 114.10 51.96 115.93 55.55 115.77 57.93 C 115.80 62.74 116.29 68.28 113.30 72.37 C 110.55 74.44 107.99 70.57 107.95 68.07 C 107.95 63.08 107.56 57.05 111.26 53.18 M 111.24 55.30 C 110.01 56.37 110.74 59.45 112.59 58.49 C 114.79 57.82 113.36 53.18 111.24 55.30 M 110.28 67.42 C 109.97 68.92 109.88 71.15 112.00 71.24 C 114.05 71.23 113.75 68.56 113.98 67.17 C 112.74 67.25 111.51 67.33 110.28 67.42 Z" />
</g>
<g id="#f5e7f1ff">
<path fill="#f5e7f1" opacity="1.00" d=" M 79.57 55.93 C 80.37 55.26 81.17 54.59 81.97 53.92 C 83.16 55.67 82.54 57.47 81.01 58.76 C 80.65 58.05 79.93 56.64 79.57 55.93 Z" />
<path fill="#f5e7f1" opacity="1.00" d=" M 111.24 55.30 C 113.36 53.18 114.79 57.82 112.59 58.49 C 110.74 59.45 110.01 56.37 111.24 55.30 Z" />
<path fill="#f5e7f1" opacity="1.00" d=" M 78.74 81.98 C 80.38 79.21 84.15 79.65 86.84 80.17 C 86.84 80.84 86.84 82.19 86.84 82.86 C 84.29 83.41 80.22 85.03 78.74 81.98 Z" />
<path fill="#f5e7f1" opacity="1.00" d=" M 161.77 159.66 C 165.22 160.82 169.59 160.90 171.92 164.04 C 170.90 165.54 169.26 164.20 168.00 163.99 C 165.58 163.08 162.48 162.59 161.77 159.66 Z" />
<path fill="#f5e7f1" opacity="1.00" d=" M 123.57 179.78 C 126.34 178.87 127.27 184.00 123.88 183.23 C 123.80 182.08 123.68 180.93 123.57 179.78 Z" />
</g>
<g id="#555757ff">
<path fill="#555757" opacity="1.00" d=" M 79.22 69.76 C 78.29 67.59 79.52 65.09 82.13 65.64 C 81.64 67.17 81.87 71.22 79.22 69.76 Z" />
</g>
<g id="#515252ff">
<path fill="#515252" opacity="1.00" d=" M 110.28 67.42 C 111.51 67.33 112.74 67.25 113.98 67.17 C 113.75 68.56 114.05 71.23 112.00 71.24 C 109.88 71.15 109.97 68.92 110.28 67.42 Z" />
</g>
<g id="#0d0b09ff">
<path fill="#0d0b09" opacity="1.00" d=" M 71.87 82.07 C 77.40 75.49 86.71 74.64 94.73 74.92 C 101.10 74.96 107.50 77.36 111.94 81.98 C 113.75 83.96 114.05 86.71 114.68 89.20 C 114.43 89.56 113.93 90.30 113.68 90.67 C 111.96 94.09 109.35 97.16 105.57 98.31 C 98.16 100.68 90.11 100.13 82.53 98.89 C 78.49 97.64 74.13 95.98 71.84 92.16 C 70.24 89.02 70.64 85.26 71.87 82.07 M 73.17 82.95 L 73.06 82.76 C 72.64 84.57 72.16 86.37 71.65 88.16 C 72.56 91.21 74.14 94.42 77.29 95.66 C 86.24 99.21 96.56 100.00 105.68 96.60 C 110.10 94.92 113.56 89.80 112.08 85.04 C 111.13 82.25 108.61 79.87 105.74 79.24 L 106.16 79.03 C 99.52 76.26 92.08 75.71 85.02 76.88 C 80.61 77.66 75.78 78.99 73.17 82.95 Z" />
</g>
<g id="#e6b6d4ff">
<path fill="#e6b6d4" opacity="1.00" d=" M 73.17 82.95 C 75.78 78.99 80.61 77.66 85.02 76.88 C 92.08 75.71 99.52 76.26 106.16 79.03 L 105.74 79.24 C 105.41 79.41 104.73 79.75 104.40 79.91 C 104.39 81.96 104.83 84.12 104.15 86.08 C 101.22 89.54 96.37 90.55 92.05 90.75 C 87.17 90.88 81.91 91.08 77.59 88.41 C 75.40 87.29 74.39 84.93 73.17 82.95 M 78.74 81.98 C 80.22 85.03 84.29 83.41 86.84 82.86 C 86.84 82.19 86.84 80.84 86.84 80.17 C 84.15 79.65 80.38 79.21 78.74 81.98 Z" />
</g>
<g id="#b982a2ff">
<path fill="#b982a2" opacity="1.00" d=" M 104.40 79.91 C 104.73 79.75 105.41 79.41 105.74 79.24 C 108.61 79.87 111.13 82.25 112.08 85.04 C 113.56 89.80 110.10 94.92 105.68 96.60 C 96.56 100.00 86.24 99.21 77.29 95.66 C 74.14 94.42 72.56 91.21 71.65 88.16 C 72.16 86.37 72.64 84.57 73.06 82.76 L 73.17 82.95 C 74.39 84.93 75.40 87.29 77.59 88.41 C 81.91 91.08 87.17 90.88 92.05 90.75 C 96.37 90.55 101.22 89.54 104.15 86.08 C 104.83 84.12 104.39 81.96 104.40 79.91 Z" />
</g>
<g id="#937869ff">
<path fill="#937869" opacity="1.00" d=" M 105.57 98.31 C 109.35 97.16 111.96 94.09 113.68 90.67 C 114.13 91.29 115.03 92.53 115.48 93.15 C 113.43 97.97 109.48 102.33 104.14 103.33 C 98.60 104.35 92.84 103.78 87.40 102.47 C 85.30 102.07 83.85 100.43 82.53 98.89 C 90.11 100.13 98.16 100.68 105.57 98.31 Z" />
</g>
<g id="#252628c1">
<path fill="#252628" opacity="0.76" d=" M 39.10 135.16 C 42.01 133.48 46.68 133.37 48.62 136.46 C 46.33 135.85 43.96 134.84 41.54 135.25 C 38.77 135.82 36.71 137.90 34.62 139.64 C 34.66 137.19 37.35 136.26 39.10 135.16 Z" />
</g>
<g id="#b6b9bfff">
<path fill="#b6b9bf" opacity="1.00" d=" M 41.54 135.25 C 43.96 134.84 46.33 135.85 48.62 136.46 C 48.95 136.64 49.60 136.99 49.93 137.17 C 47.60 137.58 45.25 138.12 43.22 139.38 C 42.58 140.04 41.97 140.71 41.41 141.43 C 38.65 145.55 35.23 149.21 30.50 151.05 C 30.21 148.28 30.39 145.44 31.74 142.94 C 32.20 142.32 32.66 141.71 33.14 141.10 C 33.62 140.60 34.11 140.11 34.62 139.64 C 36.71 137.90 38.77 135.82 41.54 135.25 Z" />
<path fill="#b6b9bf" opacity="1.00" d=" M 51.31 153.24 C 53.69 151.13 56.52 149.62 58.96 147.57 C 61.56 147.87 63.96 148.89 65.76 150.83 C 64.54 154.58 63.52 158.73 60.38 161.40 C 56.70 164.19 52.67 167.45 47.74 166.77 C 46.52 165.66 45.32 164.54 44.15 163.38 C 46.15 159.76 48.35 156.17 51.31 153.24 Z" />
<path fill="#b6b9bf" opacity="1.00" d=" M 157.46 152.91 C 158.48 151.51 159.93 149.71 161.89 150.72 C 166.03 152.07 171.71 152.68 173.38 157.40 C 167.81 157.51 162.17 155.86 157.46 152.91 Z" />
</g>
<g id="#b7bac1ff">
<path fill="#b7bac1" opacity="1.00" d=" M 164.21 136.74 C 166.49 137.55 168.97 138.22 170.56 140.20 C 168.84 140.34 167.13 140.53 165.41 140.66 C 165.29 143.51 165.31 146.37 165.47 149.22 C 166.10 149.37 167.37 149.68 168.01 149.84 C 167.41 149.93 166.21 150.12 165.61 150.22 C 165.37 150.00 164.88 149.58 164.63 149.37 C 164.08 145.19 164.47 140.94 164.21 136.74 Z" />
<path fill="#b7bac1" opacity="1.00" d=" M 87.34 159.20 C 90.51 155.55 95.29 157.88 99.15 158.86 C 101.52 159.43 103.33 161.53 105.83 161.61 L 106.20 161.65 C 107.26 164.81 106.88 168.19 106.14 171.38 L 104.91 172.07 C 103.98 169.07 103.45 165.13 100.08 163.88 C 97.62 162.75 95.69 165.98 95.64 168.06 C 95.26 171.16 97.43 173.54 99.07 175.88 C 94.13 176.18 90.89 172.10 88.30 168.49 C 86.48 165.70 85.51 162.40 85.59 159.07 L 86.31 159.13 C 86.57 159.14 87.08 159.18 87.34 159.20 Z" />
</g>
<g id="#85868bff">
<path fill="#85868b" opacity="1.00" d=" M 41.41 141.43 C 41.97 140.71 42.58 140.04 43.22 139.38 C 46.64 138.89 50.06 138.37 53.52 138.26 C 53.86 142.29 54.54 146.36 53.73 150.38 C 48.58 153.67 44.85 159.01 42.89 164.74 C 41.78 167.20 43.75 169.31 44.99 171.23 C 50.18 169.83 54.20 166.06 58.78 163.46 C 63.04 161.07 65.00 156.38 66.42 151.96 C 67.40 154.52 68.05 157.33 70.07 159.32 C 69.31 161.75 69.53 164.61 71.68 166.30 C 74.15 167.58 77.30 168.24 79.81 166.65 C 82.73 165.49 82.99 161.98 84.34 159.53 C 84.76 163.30 85.81 166.98 88.01 170.11 C 83.68 172.33 79.26 174.40 74.94 176.67 C 71.09 175.91 67.08 176.29 63.33 174.99 C 62.79 173.18 62.18 171.40 61.49 169.65 C 57.74 172.56 55.08 176.52 52.13 180.17 C 48.88 178.96 45.66 177.64 42.49 176.23 C 42.73 172.78 39.75 170.98 37.21 169.40 C 39.75 167.30 40.63 161.21 36.22 161.17 C 33.36 162.65 31.99 165.70 30.80 168.52 C 29.15 169.22 27.50 169.91 25.86 170.64 C 25.24 170.19 24.02 169.29 23.41 168.84 C 23.57 165.70 24.73 162.68 25.18 159.56 C 26.86 159.29 28.34 158.42 29.75 157.52 C 29.88 158.10 30.14 159.25 30.27 159.82 C 34.47 157.77 40.39 153.46 37.41 148.14 C 39.24 146.23 40.39 143.84 41.41 141.43 Z" />
</g>
<g id="#818286ff">
<path fill="#818286" opacity="1.00" d=" M 170.56 140.20 C 172.18 142.36 174.00 144.37 176.13 146.06 C 175.09 144.36 174.00 142.69 172.95 140.99 C 178.71 141.92 184.72 145.19 186.82 150.94 C 185.96 150.72 184.22 150.29 183.35 150.07 C 184.55 151.46 185.75 152.85 187.01 154.18 L 187.79 155.01 L 187.21 155.43 C 182.07 157.97 183.01 164.83 183.87 169.50 L 184.12 170.63 L 182.89 170.49 C 179.71 169.00 176.80 167.00 173.59 165.54 C 171.59 160.72 165.91 159.30 161.28 158.31 C 160.27 162.22 164.39 163.40 167.05 164.93 C 166.95 166.55 165.37 168.63 166.98 169.92 C 170.69 173.50 175.78 174.90 180.46 176.71 C 176.02 177.54 171.49 176.83 167.03 177.35 C 164.52 177.47 164.46 180.59 163.10 182.13 C 161.19 183.88 158.59 184.52 156.20 185.33 C 154.41 183.17 153.14 178.22 149.55 179.41 C 148.81 180.37 148.20 181.41 147.54 182.43 C 144.32 180.63 141.36 178.42 138.70 175.88 C 137.76 178.02 136.84 180.17 135.91 182.33 C 134.77 182.55 133.66 182.98 132.89 183.90 C 132.73 184.25 132.40 184.95 132.24 185.31 C 129.46 185.41 126.53 185.91 123.96 184.56 C 125.26 183.66 127.33 183.54 128.00 181.88 C 127.33 178.97 123.97 178.37 121.53 177.70 C 118.13 176.60 114.70 178.29 111.96 180.20 C 111.70 181.21 111.49 182.25 111.34 183.29 C 108.94 182.50 106.55 181.50 104.00 181.34 C 100.86 182.21 98.47 185.20 94.99 185.06 C 91.20 184.50 87.63 182.91 83.79 182.56 C 84.51 182.45 85.96 182.23 86.68 182.12 C 86.37 178.40 87.15 174.72 89.15 171.56 C 91.29 173.85 93.65 176.51 97.02 176.69 C 99.29 176.86 101.66 177.67 103.91 177.12 C 107.12 173.50 107.46 168.22 107.86 163.60 C 108.67 166.12 110.26 168.26 112.21 170.02 C 113.14 168.29 114.01 166.20 112.43 164.55 C 114.33 162.32 116.02 159.83 118.56 158.25 C 118.54 159.11 118.52 160.85 118.51 161.71 C 123.53 167.45 131.57 168.45 138.47 170.63 C 142.12 171.96 146.06 172.10 149.87 171.39 C 149.60 170.75 149.07 169.48 148.81 168.85 C 149.99 168.20 152.22 168.31 152.45 166.63 C 153.19 164.06 151.22 162.00 149.94 160.04 C 150.34 159.78 151.13 159.26 151.52 159.00 C 152.94 159.67 154.23 160.95 155.86 160.97 C 157.81 159.52 159.42 157.68 161.13 155.96 C 165.29 157.24 169.66 158.85 174.07 157.93 C 173.45 156.30 173.28 154.29 171.79 153.17 C 169.94 151.80 167.68 151.17 165.61 150.22 C 166.21 150.12 167.41 149.93 168.01 149.84 C 167.37 149.68 166.10 149.37 165.47 149.22 C 165.31 146.37 165.29 143.51 165.41 140.66 C 167.13 140.53 168.84 140.34 170.56 140.20 Z" />
</g>
<g id="#92929aff">
<path fill="#92929a" opacity="1.00" d=" M 30.62 152.44 C 32.68 150.72 35.28 149.78 37.41 148.14 C 40.39 153.46 34.47 157.77 30.27 159.82 C 30.14 159.25 29.88 158.10 29.75 157.52 C 28.34 158.42 26.86 159.29 25.18 159.56 C 26.92 157.14 28.69 154.72 30.62 152.44 Z" />
</g>
<g id="#8e9098ff">
<path fill="#8e9098" opacity="1.00" d=" M 151.52 159.00 C 152.71 156.11 153.85 153.06 156.73 151.41 C 156.96 153.94 158.95 155.22 161.13 155.96 C 159.42 157.68 157.81 159.52 155.86 160.97 C 154.23 160.95 152.94 159.67 151.52 159.00 Z" />
</g>
<g id="#c8cbd0ff">
<path fill="#c8cbd0" opacity="1.00" d=" M 86.31 159.13 C 86.25 156.34 89.63 155.25 91.93 155.58 C 96.89 156.44 103.63 155.90 105.83 161.61 C 103.33 161.53 101.52 159.43 99.15 158.86 C 95.29 157.88 90.51 155.55 87.34 159.20 C 87.08 159.18 86.57 159.14 86.31 159.13 Z" />
</g>
<g id="#c9ccd2ff">
<path fill="#c9ccd2" opacity="1.00" d=" M 125.84 155.96 C 129.15 155.64 132.54 155.13 135.81 156.00 C 131.02 157.63 125.80 157.13 121.06 159.02 C 121.72 160.63 122.35 162.26 122.99 163.89 C 120.87 163.11 118.97 161.32 119.13 158.89 C 120.67 156.81 123.40 156.21 125.84 155.96 Z" />
</g>
<g id="#b6b9c0ff">
<path fill="#b6b9c0" opacity="1.00" d=" M 135.81 156.00 C 137.29 155.73 138.80 156.05 140.29 156.12 L 139.78 156.35 C 138.79 156.80 137.80 157.26 136.82 157.74 C 139.81 158.45 142.88 158.87 145.97 158.78 L 146.18 158.78 C 148.34 160.95 152.39 163.05 151.68 166.62 C 149.65 168.54 146.51 166.13 144.12 165.83 C 140.96 164.47 137.98 166.85 135.85 168.95 C 131.36 168.05 127.29 165.71 123.05 164.03 L 122.99 163.89 C 122.35 162.26 121.72 160.63 121.06 159.02 C 125.80 157.13 131.02 157.63 135.81 156.00 Z" />
<path fill="#b6b9c0" opacity="1.00" d=" M 113.28 183.04 C 112.02 180.07 115.99 179.24 118.05 178.70 C 119.79 178.68 122.66 177.83 123.57 179.78 C 123.68 180.93 123.80 182.08 123.88 183.23 C 123.84 183.51 123.76 184.06 123.72 184.33 C 120.23 184.06 116.31 185.40 113.28 183.04 Z" />
</g>
<g id="#a5a7adff">
<path fill="#a5a7ad" opacity="1.00" d=" M 183.87 169.50 C 183.01 164.83 182.07 157.97 187.21 155.43 C 187.81 156.86 188.38 158.31 189.14 159.66 C 189.86 160.97 190.68 162.22 191.42 163.53 C 190.21 164.60 189.01 165.67 187.81 166.75 C 188.45 166.93 189.72 167.29 190.35 167.47 C 188.20 168.19 186.01 168.76 183.87 169.50 Z" />
</g>
<g id="#ccd0d2ff">
<path fill="#ccd0d2" opacity="1.00" d=" M 74.77 157.82 C 77.62 156.55 82.35 159.63 81.32 162.95 C 79.76 162.77 78.21 162.60 76.65 162.46 C 75.64 161.15 73.77 159.69 74.77 157.82 Z" />
<path fill="#ccd0d2" opacity="1.00" d=" M 44.02 165.28 C 45.80 166.81 47.72 168.22 50.23 167.89 C 48.03 171.06 42.78 169.89 44.02 165.28 Z" />
</g>
<g id="#cacdd1ff">
<path fill="#cacdd1" opacity="1.00" d=" M 136.82 157.74 C 137.80 157.26 138.79 156.80 139.78 156.35 C 142.12 155.95 144.19 157.47 145.97 158.78 C 142.88 158.87 139.81 158.45 136.82 157.74 Z" />
</g>
<g id="#abaeb3ff">
<path fill="#abaeb3" opacity="1.00" d=" M 70.49 161.29 C 71.41 160.21 72.33 159.13 73.23 158.04 C 73.93 159.79 74.16 162.08 76.04 163.03 C 77.90 163.83 80.03 163.54 81.99 163.89 C 80.00 166.03 76.86 167.44 74.04 165.99 C 71.90 165.36 71.30 163.08 70.49 161.29 Z" />
</g>
<g id="#a0a3acff">
<path fill="#a0a3ac" opacity="1.00" d=" M 106.68 160.09 C 108.64 161.51 110.55 163.01 112.43 164.55 C 114.01 166.20 113.14 168.29 112.21 170.02 C 110.26 168.26 108.67 166.12 107.86 163.60 C 107.44 162.43 107.05 161.26 106.68 160.09 Z" />
<path fill="#a0a3ac" opacity="1.00" d=" M 88.01 170.11 C 88.38 170.60 88.76 171.08 89.15 171.56 C 87.15 174.72 86.37 178.40 86.68 182.12 C 85.96 182.23 84.51 182.45 83.79 182.56 C 79.98 182.28 77.83 178.68 74.94 176.67 C 79.26 174.40 83.68 172.33 88.01 170.11 Z" />
</g>
<g id="#a5a9b2ff">
<path fill="#a5a9b2" opacity="1.00" d=" M 32.34 168.40 C 32.15 165.49 34.62 163.19 36.92 161.81 C 37.33 163.38 39.04 165.25 37.82 166.84 C 36.91 168.85 34.17 169.62 32.34 168.40 Z" />
</g>
<g id="#bcbfc4ff">
<path fill="#bcbfc4" opacity="1.00" d=" M 187.81 166.75 C 189.01 165.67 190.21 164.60 191.42 163.53 C 191.50 164.74 191.39 165.93 191.08 167.12 L 190.35 167.47 C 189.72 167.29 188.45 166.93 187.81 166.75 Z" />
</g>
<g id="#acb0b8ff">
<path fill="#acb0b8" opacity="1.00" d=" M 96.42 171.09 C 96.30 168.53 96.27 165.69 98.98 164.46 C 102.14 166.38 103.39 169.98 104.59 173.28 C 105.22 174.76 103.59 176.86 101.99 176.21 C 99.64 175.13 98.11 172.95 96.42 171.09 Z" />
</g>
<g id="#bdc0c6ff">
<path fill="#bdc0c6" opacity="1.00" d=" M 168.17 166.22 C 173.91 165.64 179.08 169.12 183.57 172.27 C 183.81 172.44 184.28 172.77 184.52 172.93 C 183.76 173.90 183.01 174.87 182.27 175.85 C 177.02 173.87 171.35 172.71 166.95 169.00 C 167.25 168.30 167.86 166.92 168.17 166.22 Z" />
<path fill="#bdc0c6" opacity="1.00" d=" M 148.82 183.02 C 149.28 181.93 148.90 179.83 150.68 180.13 C 152.49 181.24 153.66 183.06 154.91 184.72 C 152.81 184.39 150.80 183.76 148.82 183.02 Z" />
</g>
<g id="#b2b5bfff">
<path fill="#b2b5bf" opacity="1.00" d=" M 137.26 168.98 C 138.39 168.08 139.58 167.26 140.84 166.53 C 143.71 167.30 146.72 167.93 149.06 169.90 C 145.43 171.90 140.92 170.26 137.26 168.98 Z" />
</g>
<g id="#a3a6aeff">
<path fill="#a3a6ae" opacity="1.00" d=" M 52.13 180.17 C 55.08 176.52 57.74 172.56 61.49 169.65 C 62.18 171.40 62.79 173.18 63.33 174.99 C 62.39 175.61 61.50 176.29 60.65 177.03 C 60.45 177.20 60.05 177.54 59.85 177.72 C 57.79 179.81 55.09 181.09 52.13 180.17 Z" />
</g>
<g id="#929399ff">
<path fill="#929399" opacity="1.00" d=" M 135.91 182.33 C 136.84 180.17 137.76 178.02 138.70 175.88 C 141.36 178.42 144.32 180.63 147.54 182.43 L 147.03 183.21 C 143.40 182.22 139.65 181.98 135.91 182.33 Z" />
</g>
</svg>
