<?xml version="1.0" encoding="UTF-8" ?>
<!DOCTYPE svg PUBLIC "-//W3C//DTD SVG 1.1//EN" "http://www.w3.org/Graphics/SVG/1.1/DTD/svg11.dtd">
<svg width="215pt" height="215pt" viewBox="0 0 215 215" version="1.1" xmlns="http://www.w3.org/2000/svg">
<g id="#000000ff">
<path fill="#000000" opacity="1.00" d=" M 115.02 27.20 C 122.37 25.09 130.68 24.03 137.83 27.38 L 137.27 27.36 C 128.84 26.28 119.94 25.58 112.03 29.38 C 112.00 27.73 113.91 27.66 115.02 27.20 Z" />
<path fill="#000000" opacity="1.00" d=" M 114.99 35.59 C 115.81 35.65 116.62 35.73 117.43 35.82 C 117.53 39.02 117.41 42.22 117.40 45.41 L 116.87 44.72 C 115.38 44.19 114.39 45.82 113.19 46.31 C 113.37 42.67 114.13 39.11 114.99 35.59 M 115.21 37.02 C 114.55 38.81 114.98 39.48 116.50 39.02 C 117.12 37.25 116.69 36.58 115.21 37.02 Z" />
<path fill="#000000" opacity="1.00" d=" M 98.24 40.20 C 99.29 38.55 100.55 37.01 102.19 35.91 C 100.32 38.37 98.48 40.89 97.24 43.73 C 93.97 50.95 93.53 59.10 94.69 66.85 L 95.80 67.66 C 100.67 70.85 105.22 74.88 107.87 80.16 C 110.43 85.42 111.61 91.21 111.74 97.04 C 112.66 103.75 112.44 110.53 112.80 117.28 C 116.89 110.71 118.44 102.58 123.41 96.42 C 125.97 93.39 128.60 90.19 132.21 88.36 C 139.85 84.76 148.76 84.52 156.69 87.33 C 156.85 84.04 157.09 80.76 157.14 77.47 C 157.85 68.92 159.47 60.22 157.85 51.69 C 156.94 47.17 154.90 43.00 152.78 38.95 C 156.95 43.08 158.69 49.25 159.47 54.95 C 159.60 65.76 158.52 76.56 157.40 87.29 C 160.64 88.87 163.89 90.49 166.77 92.68 C 166.60 92.84 166.26 93.18 166.09 93.34 C 158.41 87.61 148.41 85.36 138.98 86.89 C 131.88 88.38 126.35 93.67 122.45 99.54 C 119.92 103.90 118.21 108.67 116.25 113.30 C 115.44 115.33 114.62 117.37 113.98 119.47 C 112.40 126.35 113.97 133.48 113.77 140.47 C 113.63 143.19 113.70 145.91 113.82 148.64 C 117.24 148.64 120.06 150.56 122.24 153.04 C 123.17 152.57 124.10 152.10 125.03 151.62 C 125.95 151.96 126.86 152.29 127.78 152.63 C 131.29 149.90 135.90 147.97 140.29 149.79 C 142.17 150.60 144.09 151.30 145.98 152.10 C 148.66 153.15 149.50 156.44 152.00 157.69 C 155.48 158.09 157.97 155.52 160.54 153.68 C 162.76 153.29 164.88 154.44 166.97 155.02 C 168.37 149.95 170.38 145.07 171.91 140.04 C 173.63 134.64 175.17 129.15 176.04 123.55 C 178.14 113.13 174.62 102.15 167.69 94.24 C 170.25 95.14 171.42 97.89 172.81 100.02 C 177.95 108.36 178.84 118.87 176.16 128.18 C 174.65 135.00 172.41 141.63 170.11 148.22 C 173.40 149.54 177.99 151.65 177.64 155.86 C 176.15 152.69 173.37 149.95 169.79 149.41 C 171.48 153.27 174.82 155.94 177.73 158.84 C 177.71 158.10 177.66 156.61 177.64 155.87 C 179.13 158.54 178.65 161.95 180.52 164.47 C 181.80 166.42 184.09 167.15 186.02 168.28 C 185.20 168.10 183.55 167.76 182.73 167.59 C 182.64 168.19 182.45 169.38 182.36 169.98 C 181.74 168.77 181.12 167.56 180.47 166.36 C 179.48 164.72 178.75 162.95 178.34 161.08 C 174.85 158.28 172.12 154.73 169.74 150.97 C 168.84 152.41 168.20 153.99 167.77 155.63 C 171.14 158.11 173.19 162.22 172.59 166.44 C 167.77 166.88 163.55 164.06 159.73 161.49 C 159.71 161.03 159.68 160.10 159.66 159.63 C 160.84 162.46 164.06 163.32 166.53 164.67 C 168.31 165.76 170.37 165.61 172.35 165.36 C 171.92 162.09 170.06 159.32 168.06 156.81 C 165.18 156.79 162.09 153.03 159.66 155.47 C 157.18 157.06 154.49 159.75 151.30 158.67 C 149.65 158.08 148.69 156.50 147.61 155.22 C 147.19 154.63 146.34 153.45 145.91 152.86 C 141.20 151.87 136.41 148.96 131.55 150.89 C 130.30 151.93 129.11 153.03 127.90 154.11 C 126.50 153.04 122.62 151.48 123.13 154.60 C 123.66 154.99 124.73 155.78 125.27 156.17 C 120.85 156.02 119.33 150.33 114.97 149.41 C 112.80 151.13 114.40 154.25 114.39 156.56 C 113.66 157.50 112.83 158.35 111.91 159.09 C 107.79 159.94 104.79 155.72 100.58 156.60 C 100.06 156.56 99.02 156.47 98.50 156.42 C 98.36 158.42 99.30 160.95 97.58 162.51 C 94.75 165.57 91.43 168.72 87.02 168.98 C 84.55 167.32 83.03 164.68 83.62 161.61 C 81.24 163.15 78.51 167.36 75.60 164.35 C 75.71 162.96 75.82 161.57 75.93 160.18 C 71.93 161.72 68.89 158.52 66.04 156.29 C 64.39 160.55 62.58 166.07 57.38 166.94 C 58.17 167.58 58.97 168.22 59.77 168.85 C 59.48 169.05 58.91 169.46 58.62 169.66 C 58.13 170.79 57.66 171.93 57.20 173.08 C 58.30 174.53 59.56 175.87 61.06 176.93 C 63.15 174.58 66.35 169.27 61.98 167.59 C 62.77 167.43 64.45 167.27 64.35 168.53 C 65.20 171.93 63.76 175.56 60.77 177.41 C 57.35 176.93 54.70 173.06 57.53 170.15 C 56.93 169.52 56.34 168.89 55.73 168.27 C 54.29 168.44 52.86 168.64 51.42 168.83 C 50.25 168.68 49.08 168.54 47.91 168.38 C 45.44 168.16 42.74 166.66 42.39 163.99 C 43.49 161.39 45.26 159.08 47.44 157.29 C 47.64 155.07 47.50 152.84 47.35 150.62 C 47.41 144.47 45.94 138.34 46.72 132.19 C 47.54 134.72 47.68 137.39 47.69 140.03 C 47.72 145.27 48.36 150.49 48.72 155.72 C 52.31 153.83 56.16 152.55 60.09 151.58 C 64.81 152.95 67.60 157.44 72.19 159.03 C 75.17 160.70 77.09 156.45 79.98 156.41 C 81.92 156.08 83.63 157.08 85.25 157.97 C 86.70 156.49 88.08 154.94 89.39 153.33 C 90.01 153.33 91.24 153.33 91.85 153.33 C 94.95 152.80 97.54 154.51 100.30 155.47 C 103.87 155.52 107.40 156.30 110.14 158.74 C 111.10 157.96 113.06 157.61 112.77 155.98 C 112.46 146.98 112.75 137.96 111.98 128.99 C 111.47 121.15 112.11 113.26 111.28 105.44 C 111.17 104.46 111.03 103.48 110.87 102.51 C 110.76 94.94 109.89 87.21 106.70 80.26 C 103.07 73.88 97.35 68.29 90.06 66.45 C 78.96 62.29 66.16 65.03 56.98 72.29 C 57.59 70.54 59.36 69.77 60.77 68.80 C 66.18 65.31 72.61 63.85 78.96 63.47 C 83.92 63.33 88.56 65.29 93.28 66.49 C 92.75 57.51 93.51 48.09 98.24 40.20 M 43.18 163.01 C 44.31 165.01 45.70 167.61 48.33 167.67 C 51.86 167.93 55.71 167.88 58.82 165.96 C 62.23 164.22 63.78 160.29 64.77 156.82 C 65.57 154.53 62.73 153.59 61.22 152.61 C 54.02 153.11 47.38 157.20 43.18 163.01 M 84.24 163.91 C 84.94 165.68 86.24 167.34 87.91 168.29 C 91.83 167.33 95.28 164.70 97.42 161.32 C 98.18 159.58 97.63 157.55 97.33 155.75 C 95.53 153.52 92.17 154.62 89.68 154.13 C 87.37 157.00 83.52 159.77 84.24 163.91 M 76.53 160.03 C 76.44 161.48 75.40 165.17 78.14 164.57 C 80.80 163.57 82.50 161.01 84.34 158.96 C 82.08 156.92 77.50 156.47 76.53 160.03 Z" />
<path fill="#000000" opacity="1.00" d=" M 133.38 42.01 C 133.38 39.57 134.01 36.71 136.75 36.05 C 138.12 38.89 137.36 42.06 137.15 45.07 C 135.78 45.38 134.42 45.69 133.05 46.01 C 133.15 44.68 133.26 43.34 133.38 42.01 M 135.20 37.96 C 134.09 38.74 134.92 41.54 136.36 40.45 C 137.41 39.64 136.77 36.63 135.20 37.96 Z" />
<path fill="#000000" opacity="1.00" d=" M 113.45 58.08 C 112.03 53.14 117.11 50.29 121.18 49.54 C 126.96 48.86 133.91 49.26 137.64 54.42 C 139.22 57.82 137.52 61.83 133.88 62.91 C 126.92 64.75 118.40 63.86 113.45 58.08 M 115.48 53.30 L 114.65 53.00 C 114.51 54.56 114.57 56.14 115.10 57.63 L 115.63 57.66 C 115.87 58.09 116.35 58.95 116.59 59.38 C 121.29 62.97 127.65 62.82 133.29 62.48 C 134.77 61.35 136.23 60.19 137.67 59.01 C 137.77 56.52 136.28 54.52 134.63 52.83 C 134.09 52.63 133.02 52.22 132.49 52.01 C 132.08 51.75 131.28 51.21 130.88 50.95 C 125.79 50.60 119.46 49.16 115.48 53.30 Z" />
<path fill="#000000" opacity="1.00" d=" M 49.11 81.18 C 50.23 79.28 51.26 77.15 53.24 75.97 C 51.36 78.80 49.55 81.69 48.20 84.81 C 44.31 93.52 45.60 103.23 45.79 112.46 C 45.78 114.24 45.87 116.01 46.01 117.78 C 46.06 121.26 46.33 124.72 46.65 128.19 C 46.64 129.06 46.63 130.80 46.63 131.67 C 45.51 129.25 45.65 126.52 45.42 123.93 C 44.94 114.35 44.37 104.74 44.79 95.16 C 44.88 90.17 46.93 85.57 49.11 81.18 Z" />
<path fill="#000000" opacity="1.00" d=" M 73.95 78.76 C 74.16 78.31 74.58 77.40 74.78 76.95 C 78.96 79.86 77.97 85.53 78.74 89.94 C 78.04 90.60 77.34 91.25 76.63 91.90 C 74.45 90.75 73.94 88.35 73.66 86.10 C 73.46 84.01 73.34 81.91 73.25 79.81 L 73.35 79.64 C 74.22 80.54 74.81 82.00 76.18 82.21 C 77.06 80.62 75.64 78.77 73.95 78.76 M 76.07 87.52 C 75.23 88.74 75.48 89.49 76.82 89.76 C 77.64 88.53 77.39 87.79 76.07 87.52 Z" />
<path fill="#000000" opacity="1.00" d=" M 91.77 78.25 C 92.23 78.22 93.15 78.16 93.61 78.14 C 95.60 80.85 94.94 84.56 95.46 87.71 C 94.75 87.64 93.34 87.51 92.64 87.44 C 93.67 88.69 94.71 89.95 95.73 91.22 C 95.12 91.10 93.89 90.85 93.28 90.72 C 90.80 87.71 91.63 83.45 91.11 79.86 C 91.49 80.39 92.26 81.45 92.65 81.98 C 94.97 82.09 92.87 78.90 91.77 78.25 Z" />
<path fill="#000000" opacity="1.00" d=" M 77.98 94.97 C 83.20 91.71 89.98 92.17 95.43 94.66 C 97.87 96.46 100.21 99.26 99.26 102.51 C 98.27 106.53 93.51 107.22 90.08 107.93 C 84.42 109.22 77.84 107.86 74.26 103.00 C 74.42 99.95 75.26 96.74 77.98 94.97 M 85.83 93.68 L 85.68 94.20 C 82.62 94.08 79.49 94.82 77.34 97.13 C 75.47 99.01 74.93 101.96 76.51 104.21 C 79.17 107.04 83.41 106.95 86.99 107.26 C 90.61 106.73 94.78 106.36 97.37 103.46 C 99.79 100.80 97.50 96.96 95.08 95.17 L 94.61 96.17 L 94.33 94.91 C 91.53 94.28 88.74 93.43 85.83 93.68 Z" />
<path fill="#000000" opacity="1.00" d=" M 133.36 107.88 C 134.16 103.72 135.80 99.45 138.96 96.52 C 140.46 96.16 140.46 97.76 140.54 98.81 C 139.62 101.99 138.08 104.95 136.52 107.85 C 136.12 108.16 135.32 108.78 134.92 109.09 C 134.53 108.79 133.75 108.18 133.36 107.88 M 138.19 98.46 C 137.61 100.13 137.99 100.54 139.33 99.69 C 139.91 98.07 139.53 97.66 138.19 98.46 M 135.31 105.25 C 133.69 108.29 138.61 105.33 135.31 105.25 Z" />
<path fill="#000000" opacity="1.00" d=" M 155.24 103.43 C 155.66 103.33 156.49 103.14 156.91 103.05 C 157.16 103.56 157.67 104.57 157.92 105.08 C 156.80 107.33 155.89 109.68 155.28 112.13 C 154.28 111.84 153.29 111.55 152.30 111.25 C 152.21 112.04 152.04 113.62 151.95 114.41 L 152.92 112.48 C 153.48 113.08 154.04 113.69 154.59 114.30 C 153.43 115.30 152.07 115.82 150.56 115.58 C 150.36 112.47 151.71 109.62 152.94 106.85 C 153.59 105.63 154.36 104.49 155.24 103.43 M 155.11 104.87 C 154.46 106.52 154.80 106.98 156.15 106.24 C 156.81 104.62 156.47 104.16 155.11 104.87 Z" />
<path fill="#000000" opacity="1.00" d=" M 128.81 116.15 C 129.85 113.76 132.23 112.01 134.92 112.34 C 141.09 111.71 147.54 114.11 151.24 119.20 C 151.48 121.32 152.81 124.13 150.67 125.71 C 147.22 127.83 142.82 127.44 139.00 126.69 C 133.85 125.82 128.91 121.68 128.81 116.15 M 130.15 116.46 L 129.65 115.97 C 129.93 117.85 129.97 120.01 131.61 121.31 C 135.50 125.66 141.61 126.74 147.19 126.35 C 148.66 125.39 150.37 124.56 151.23 122.94 C 151.42 119.79 149.06 117.68 146.71 116.07 C 145.01 115.14 143.27 114.28 141.45 113.59 C 138.43 113.21 135.37 113.15 132.35 113.58 C 131.49 114.45 130.76 115.41 130.15 116.46 Z" />
<path fill="#000000" opacity="1.00" d=" M 31.14 158.66 C 32.15 157.25 34.15 157.70 35.60 157.26 C 35.92 157.74 36.57 158.70 36.90 159.18 C 36.05 159.99 35.15 160.74 34.23 161.48 L 35.61 160.17 C 34.47 158.72 32.96 158.09 31.14 158.66 Z" />
<path fill="#000000" opacity="1.00" d=" M 132.40 162.62 C 135.72 161.67 138.00 164.48 138.73 167.43 C 137.57 166.06 136.49 164.58 135.04 163.50 C 132.62 162.46 133.17 165.19 133.27 166.55 C 134.94 167.65 136.22 170.08 138.46 169.79 C 138.60 169.31 138.86 168.34 139.00 167.86 C 139.24 168.21 139.72 168.91 139.96 169.26 C 139.53 170.22 139.02 171.74 137.67 171.38 C 135.73 170.07 134.18 168.28 132.56 166.62 C 132.51 165.28 132.46 163.95 132.40 162.62 Z" />
<path fill="#000000" opacity="1.00" d=" M 23.05 175.96 C 20.85 174.05 23.72 171.30 25.17 169.85 C 24.55 171.29 23.86 172.69 23.16 174.09 C 24.46 176.12 26.39 177.45 28.88 177.23 C 30.51 174.90 32.43 172.77 34.63 170.97 C 35.56 170.77 36.50 170.63 37.44 170.49 C 37.30 172.55 36.92 174.59 36.42 176.60 C 37.79 177.88 39.45 178.78 41.30 179.18 L 42.68 179.43 C 48.55 179.94 54.48 179.82 60.34 180.58 C 63.00 181.23 65.16 183.41 68.00 183.40 C 71.32 183.50 74.60 182.62 77.92 182.92 C 79.06 184.52 81.32 184.34 83.00 183.94 C 85.17 183.96 87.39 183.98 89.42 183.08 C 94.06 181.05 99.23 182.85 103.76 184.37 C 100.41 184.77 97.36 182.79 94.03 183.14 C 91.58 183.07 89.42 184.40 87.04 184.71 C 83.32 184.85 79.59 184.80 76.03 183.66 C 70.94 184.59 65.45 184.69 60.88 181.88 C 55.42 180.48 49.63 180.30 44.01 180.62 C 39.61 179.91 35.54 177.23 30.95 177.80 C 28.25 177.92 25.00 178.27 23.05 175.96 M 29.39 177.23 C 31.36 177.17 33.33 177.15 35.30 177.25 C 36.73 175.58 36.53 173.38 36.53 171.33 C 33.13 171.23 31.44 175.05 29.39 177.23 Z" />
<path fill="#000000" opacity="1.00" d=" M 142.52 172.11 C 142.68 170.66 144.53 170.51 145.45 169.73 C 146.74 170.29 148.05 170.90 149.02 171.95 C 152.29 175.31 156.23 178.45 157.13 183.34 C 160.42 184.13 163.11 182.58 164.81 179.82 C 168.21 179.86 170.96 178.26 172.60 175.30 C 173.01 174.98 173.83 174.34 174.23 174.03 C 174.65 174.13 175.48 174.34 175.90 174.45 C 174.15 175.91 171.85 177.01 170.93 179.23 C 176.26 179.52 181.58 180.14 186.92 180.22 L 185.99 180.64 C 179.09 181.81 172.06 179.04 165.21 180.54 C 164.31 182.08 163.04 183.33 161.53 184.28 C 158.76 183.53 156.62 185.03 155.31 187.37 C 150.88 187.55 146.32 188.18 141.98 187.04 C 141.66 186.76 141.03 186.20 140.72 185.92 C 141.77 186.12 143.88 186.51 144.94 186.71 C 144.53 181.77 142.17 177.12 142.52 172.11 M 143.65 171.76 C 142.32 176.78 145.24 181.85 145.67 186.90 C 148.80 187.50 151.93 186.73 155.03 186.29 C 155.43 185.74 156.25 184.62 156.66 184.06 C 155.76 180.49 153.56 177.54 150.93 175.04 C 149.09 173.10 146.63 169.93 143.65 171.76 Z" />
<path fill="#000000" opacity="1.00" d=" M 107.22 174.53 C 109.22 174.44 111.22 174.29 113.22 174.16 C 114.77 175.09 116.24 176.18 117.37 177.61 C 117.39 178.00 117.44 178.79 117.46 179.18 C 118.26 182.94 116.16 186.00 113.75 188.63 C 116.15 188.57 118.59 188.70 120.97 188.30 C 123.37 187.34 125.40 185.67 127.71 184.52 C 131.48 183.76 135.81 182.69 139.23 185.11 C 133.03 183.85 126.18 185.03 121.49 189.46 C 115.88 190.21 109.12 190.08 104.69 185.97 C 106.80 186.86 108.94 187.71 111.10 188.46 C 114.03 186.71 117.38 183.92 116.73 180.11 C 117.18 175.17 110.57 173.25 107.35 176.22 C 105.93 179.28 105.59 182.70 104.45 185.87 C 104.41 185.54 104.31 184.89 104.26 184.57 C 104.91 181.13 105.81 177.74 107.22 174.53 Z" />
</g>
<g id="#e4b5d0ff">
<path fill="#e4b5d0" opacity="1.00" d=" M 112.03 29.38 C 119.94 25.58 128.84 26.28 137.27 27.36 L 137.91 27.49 L 138.03 27.98 C 133.01 28.84 128.06 26.68 123.01 27.55 C 118.59 27.46 114.80 31.44 110.34 30.00 C 110.77 29.84 111.61 29.53 112.03 29.38 Z" />
<path fill="#e4b5d0" opacity="1.00" d=" M 85.83 93.68 C 88.74 93.43 91.53 94.28 94.33 94.91 L 94.61 96.17 C 93.49 100.39 89.18 102.72 85.01 102.56 C 82.17 102.97 78.52 101.53 76.51 104.21 C 74.93 101.96 75.47 99.01 77.34 97.13 C 80.01 100.45 85.73 98.57 85.68 94.20 L 85.83 93.68 Z" />
</g>
<g id="#bca696ff">
<path fill="#bca696" opacity="1.00" d=" M 110.34 30.00 C 114.80 31.44 118.59 27.46 123.01 27.55 C 128.06 26.68 133.01 28.84 138.03 27.98 L 138.15 28.45 C 138.96 31.02 137.22 33.55 136.75 36.05 C 134.01 36.71 133.38 39.57 133.38 42.01 C 132.68 41.52 131.98 41.03 131.28 40.54 C 127.59 43.10 123.51 45.03 119.26 46.45 C 119.28 43.07 119.16 39.69 118.63 36.35 L 117.43 35.82 C 116.62 35.73 115.81 35.65 114.99 35.59 C 114.13 39.11 113.37 42.67 113.19 46.31 C 114.39 45.82 115.38 44.19 116.87 44.72 C 116.66 45.67 116.45 46.62 116.24 47.57 C 115.76 46.43 114.91 46.05 113.68 46.40 C 113.88 46.80 114.27 47.59 114.47 47.99 C 108.53 50.11 100.89 49.52 97.24 43.73 C 98.48 40.89 100.32 38.37 102.19 35.91 C 102.79 35.14 103.52 34.51 104.39 34.04 C 106.17 33.29 108.02 32.49 109.18 30.84 C 109.47 30.63 110.05 30.21 110.34 30.00 Z" />
</g>
<g id="#aa8b77ff">
<path fill="#aa8b77" opacity="1.00" d=" M 138.03 27.98 L 138.82 27.85 L 139.71 28.13 C 144.11 31.17 148.63 34.07 152.21 38.12 C 152.35 38.33 152.64 38.74 152.78 38.95 C 154.90 43.00 156.94 47.17 157.85 51.69 C 157.51 51.95 156.84 52.48 156.50 52.75 C 155.56 49.14 154.04 45.73 152.52 42.33 C 150.61 43.93 148.48 45.27 146.12 46.11 C 142.93 47.22 140.32 49.44 137.28 50.85 C 137.40 52.04 137.48 53.24 137.64 54.42 C 133.91 49.26 126.96 48.86 121.18 49.54 C 117.11 50.29 112.03 53.14 113.45 58.08 C 111.81 57.11 111.80 55.22 111.50 53.57 C 107.09 54.64 103.22 51.73 98.99 51.15 C 97.80 50.76 96.31 51.73 96.26 53.00 C 95.62 57.86 96.38 62.78 95.80 67.66 L 94.69 66.85 C 93.53 59.10 93.97 50.95 97.24 43.73 C 100.89 49.52 108.53 50.11 114.47 47.99 C 114.91 47.88 115.79 47.67 116.24 47.57 C 116.45 46.62 116.66 45.67 116.87 44.72 L 117.40 45.41 C 117.62 45.77 118.04 46.49 118.26 46.84 C 118.51 46.74 119.01 46.54 119.26 46.45 C 123.51 45.03 127.59 43.10 131.28 40.54 C 131.98 41.03 132.68 41.52 133.38 42.01 C 133.26 43.34 133.15 44.68 133.05 46.01 C 132.90 47.41 133.22 48.82 134.22 49.85 C 137.15 51.08 136.74 46.84 137.15 45.07 C 137.36 42.06 138.12 38.89 136.75 36.05 C 137.22 33.55 138.96 31.02 138.15 28.45 L 138.03 27.98 Z" />
<path fill="#aa8b77" opacity="1.00" d=" M 90.06 66.45 C 97.35 68.29 103.07 73.88 106.70 80.26 C 109.89 87.21 110.76 94.94 110.87 102.51 C 110.49 102.09 109.72 101.27 109.34 100.85 C 108.80 94.33 108.75 87.27 105.00 81.62 C 102.65 85.42 100.99 90.81 95.73 91.22 C 94.71 89.95 93.67 88.69 92.64 87.44 C 93.34 87.51 94.75 87.64 95.46 87.71 C 94.94 84.56 95.60 80.85 93.61 78.14 C 93.15 78.16 92.23 78.22 91.77 78.25 C 91.56 78.41 91.13 78.73 90.92 78.89 L 91.11 79.86 C 91.63 83.45 90.80 87.71 93.28 90.72 C 94.21 91.91 95.71 92.94 95.43 94.66 C 89.98 92.17 83.20 91.71 77.98 94.97 C 75.26 96.74 74.42 99.95 74.26 103.00 C 73.99 103.16 73.45 103.50 73.18 103.66 C 72.95 101.58 72.71 99.50 72.49 97.42 C 65.70 96.58 58.78 97.86 52.19 99.50 C 50.54 98.76 48.90 98.01 47.26 97.25 C 46.71 102.31 47.83 107.66 45.79 112.46 C 45.60 103.23 44.31 93.52 48.20 84.81 C 50.25 87.28 52.30 90.66 55.99 90.43 C 62.35 91.17 67.63 87.06 73.66 86.10 C 73.94 88.35 74.45 90.75 76.63 91.90 C 77.34 91.25 78.04 90.60 78.74 89.94 L 79.37 89.29 C 79.78 86.99 79.73 84.57 80.51 82.35 C 82.59 79.79 85.87 78.44 87.66 75.60 C 89.58 72.96 89.49 69.53 90.06 66.45 Z" />
<path fill="#aa8b77" opacity="1.00" d=" M 110.07 116.98 C 110.23 113.12 109.48 109.04 111.28 105.44 C 112.11 113.26 111.47 121.15 111.98 128.99 C 112.75 137.96 112.46 146.98 112.77 155.98 C 113.06 157.61 111.10 157.96 110.14 158.74 C 107.40 156.30 103.87 155.52 100.30 155.47 C 97.54 154.51 94.95 152.80 91.85 153.33 C 97.16 149.67 97.21 142.14 102.23 138.22 C 104.35 136.33 107.21 135.83 109.90 135.34 C 110.07 129.22 109.86 123.10 110.07 116.98 Z" />
</g>
<g id="#261f1abd">
<path fill="#261f1a" opacity="0.74" d=" M 139.71 28.13 C 144.98 29.29 149.53 33.53 152.21 38.12 C 148.63 34.07 144.11 31.17 139.71 28.13 Z" />
</g>
<g id="#2b2521ba">
<path fill="#2b2521" opacity="0.73" d=" M 104.39 34.04 C 104.14 32.09 107.42 30.01 109.18 30.84 C 108.02 32.49 106.17 33.29 104.39 34.04 Z" />
</g>
<g id="#d1b8a6ff">
<path fill="#d1b8a6" opacity="1.00" d=" M 117.43 35.82 L 118.63 36.35 C 119.16 39.69 119.28 43.07 119.26 46.45 C 119.01 46.54 118.51 46.74 118.26 46.84 C 118.04 46.49 117.62 45.77 117.40 45.41 C 117.41 42.22 117.53 39.02 117.43 35.82 Z" />
</g>
<g id="#f6e9f4ff">
<path fill="#f6e9f4" opacity="1.00" d=" M 115.21 37.02 C 116.69 36.58 117.12 37.25 116.50 39.02 C 114.98 39.48 114.55 38.81 115.21 37.02 Z" />
<path fill="#f6e9f4" opacity="1.00" d=" M 135.20 37.96 C 136.77 36.63 137.41 39.64 136.36 40.45 C 134.92 41.54 134.09 38.74 135.20 37.96 Z" />
<path fill="#f6e9f4" opacity="1.00" d=" M 90.92 78.89 C 91.13 78.73 91.56 78.41 91.77 78.25 C 92.87 78.90 94.97 82.09 92.65 81.98 C 92.26 81.45 91.49 80.39 91.11 79.86 L 90.92 78.89 Z" />
<path fill="#f6e9f4" opacity="1.00" d=" M 73.35 79.64 C 73.50 79.42 73.80 78.98 73.95 78.76 C 75.64 78.77 77.06 80.62 76.18 82.21 C 74.81 82.00 74.22 80.54 73.35 79.64 Z" />
<path fill="#f6e9f4" opacity="1.00" d=" M 77.34 97.13 C 79.49 94.82 82.62 94.08 85.68 94.20 C 85.73 98.57 80.01 100.45 77.34 97.13 Z" />
<path fill="#f6e9f4" opacity="1.00" d=" M 155.11 104.87 C 156.47 104.16 156.81 104.62 156.15 106.24 C 154.80 106.98 154.46 106.52 155.11 104.87 Z" />
<path fill="#f6e9f4" opacity="1.00" d=" M 169.79 149.41 C 173.37 149.95 176.15 152.69 177.64 155.86 L 177.64 155.87 C 177.66 156.61 177.71 158.10 177.73 158.84 C 174.82 155.94 171.48 153.27 169.79 149.41 Z" />
<path fill="#f6e9f4" opacity="1.00" d=" M 133.27 166.55 C 133.17 165.19 132.62 162.46 135.04 163.50 C 136.49 164.58 137.57 166.06 138.73 167.43 L 139.00 167.86 C 138.86 168.34 138.60 169.31 138.46 169.79 C 136.22 170.08 134.94 167.65 133.27 166.55 Z" />
</g>
<g id="#9b7f6fff">
<path fill="#9b7f6f" opacity="1.00" d=" M 146.12 46.11 C 148.48 45.27 150.61 43.93 152.52 42.33 C 154.04 45.73 155.56 49.14 156.50 52.75 C 156.84 52.48 157.51 51.95 157.85 51.69 C 159.47 60.22 157.85 68.92 157.14 77.47 C 156.53 75.40 156.05 73.29 155.77 71.16 C 150.47 74.20 145.49 78.74 139.03 78.77 C 129.38 78.92 119.66 79.22 110.10 77.61 C 109.36 78.46 108.61 79.31 107.87 80.16 C 105.22 74.88 100.67 70.85 95.80 67.66 C 96.38 62.78 95.62 57.86 96.26 53.00 C 96.31 51.73 97.80 50.76 98.99 51.15 C 103.22 51.73 107.09 54.64 111.50 53.57 C 111.80 55.22 111.81 57.11 113.45 58.08 C 118.40 63.86 126.92 64.75 133.88 62.91 C 137.52 61.83 139.22 57.82 137.64 54.42 C 137.48 53.24 137.40 52.04 137.28 50.85 C 140.32 49.44 142.93 47.22 146.12 46.11 Z" />
</g>
<g id="#3c3835ff">
<path fill="#3c3835" opacity="1.00" d=" M 133.05 46.01 C 134.42 45.69 135.78 45.38 137.15 45.07 C 136.74 46.84 137.15 51.08 134.22 49.85 C 133.22 48.82 132.90 47.41 133.05 46.01 Z" />
</g>
<g id="#090c0eff">
<path fill="#090c0e" opacity="1.00" d=" M 113.68 46.40 C 114.91 46.05 115.76 46.43 116.24 47.57 C 115.79 47.67 114.91 47.88 114.47 47.99 C 114.27 47.59 113.88 46.80 113.68 46.40 Z" />
</g>
<g id="#f6d3eaff">
<path fill="#f6d3ea" opacity="1.00" d=" M 115.48 53.30 C 119.46 49.16 125.79 50.60 130.88 50.95 C 131.28 51.21 132.08 51.75 132.49 52.01 C 130.09 52.99 127.55 51.54 125.14 52.09 C 123.60 52.87 122.22 53.92 120.66 54.66 C 118.85 54.67 117.18 53.83 115.48 53.30 Z" />
</g>
<g id="#e4b4d0ff">
<path fill="#e4b4d0" opacity="1.00" d=" M 120.66 54.66 C 122.22 53.92 123.60 52.87 125.14 52.09 C 127.55 51.54 130.09 52.99 132.49 52.01 C 133.02 52.22 134.09 52.63 134.63 52.83 C 131.17 60.03 122.09 58.30 115.63 57.66 L 115.10 57.63 C 114.57 56.14 114.51 54.56 114.65 53.00 L 115.48 53.30 C 117.18 53.83 118.85 54.67 120.66 54.66 Z" />
</g>
<g id="#b881a1ff">
<path fill="#b881a1" opacity="1.00" d=" M 134.63 52.83 C 136.28 54.52 137.77 56.52 137.67 59.01 C 136.23 60.19 134.77 61.35 133.29 62.48 C 127.65 62.82 121.29 62.97 116.59 59.38 C 116.35 58.95 115.87 58.09 115.63 57.66 C 122.09 58.30 131.17 60.03 134.63 52.83 Z" />
</g>
<g id="#baa596ff">
<path fill="#baa596" opacity="1.00" d=" M 56.98 72.29 C 66.16 65.03 78.96 62.29 90.06 66.45 C 89.49 69.53 89.58 72.96 87.66 75.60 C 85.87 78.44 82.59 79.79 80.51 82.35 C 79.73 84.57 79.78 86.99 79.37 89.29 L 78.74 89.94 C 77.97 85.53 78.96 79.86 74.78 76.95 C 74.58 77.40 74.16 78.31 73.95 78.76 C 73.80 78.98 73.50 79.42 73.35 79.64 L 73.25 79.81 C 73.34 81.91 73.46 84.01 73.66 86.10 C 67.63 87.06 62.35 91.17 55.99 90.43 C 52.30 90.66 50.25 87.28 48.20 84.81 C 49.55 81.69 51.36 78.80 53.24 75.97 C 54.32 74.59 55.62 73.38 56.98 72.29 Z" />
</g>
<g id="#816b5dff">
<path fill="#816b5d" opacity="1.00" d=" M 139.03 78.77 C 145.49 78.74 150.47 74.20 155.77 71.16 C 156.05 73.29 156.53 75.40 157.14 77.47 C 157.09 80.76 156.85 84.04 156.69 87.33 C 148.76 84.52 139.85 84.76 132.21 88.36 C 128.60 90.19 125.97 93.39 123.41 96.42 C 118.44 102.58 116.89 110.71 112.80 117.28 C 112.44 110.53 112.66 103.75 111.74 97.04 C 111.61 91.21 110.43 85.42 107.87 80.16 C 108.61 79.31 109.36 78.46 110.10 77.61 C 119.66 79.22 129.38 78.92 139.03 78.77 Z" />
</g>
<g id="#9d816fff">
<path fill="#9d816f" opacity="1.00" d=" M 95.73 91.22 C 100.99 90.81 102.65 85.42 105.00 81.62 C 108.75 87.27 108.80 94.33 109.34 100.85 C 109.72 101.27 110.49 102.09 110.87 102.51 C 111.03 103.48 111.17 104.46 111.28 105.44 C 109.48 109.04 110.23 113.12 110.07 116.98 C 109.86 123.10 110.07 129.22 109.90 135.34 C 107.21 135.83 104.35 136.33 102.23 138.22 C 97.21 142.14 97.16 149.67 91.85 153.33 C 91.24 153.33 90.01 153.33 89.39 153.33 C 88.08 154.94 86.70 156.49 85.25 157.97 C 83.63 157.08 81.92 156.08 79.98 156.41 C 77.09 156.45 75.17 160.70 72.19 159.03 C 67.60 157.44 64.81 152.95 60.09 151.58 C 56.16 152.55 52.31 153.83 48.72 155.72 C 48.36 150.49 47.72 145.27 47.69 140.03 C 47.68 137.39 47.54 134.72 46.72 132.19 C 46.70 132.06 46.65 131.80 46.63 131.67 C 46.63 130.80 46.64 129.06 46.65 128.19 C 46.80 124.70 46.65 121.21 46.01 117.78 C 45.87 116.01 45.78 114.24 45.79 112.46 C 47.83 107.66 46.71 102.31 47.26 97.25 C 48.90 98.01 50.54 98.76 52.19 99.50 C 58.78 97.86 65.70 96.58 72.49 97.42 C 72.71 99.50 72.95 101.58 73.18 103.66 C 73.45 103.50 73.99 103.16 74.26 103.00 C 77.84 107.86 84.42 109.22 90.08 107.93 C 93.51 107.22 98.27 106.53 99.26 102.51 C 100.21 99.26 97.87 96.46 95.43 94.66 C 95.71 92.94 94.21 91.91 93.28 90.72 C 93.89 90.85 95.12 91.10 95.73 91.22 Z" />
</g>
<g id="#656768ff">
<path fill="#656768" opacity="1.00" d=" M 76.07 87.52 C 77.39 87.79 77.64 88.53 76.82 89.76 C 75.48 89.49 75.23 88.74 76.07 87.52 Z" />
</g>
<g id="#baa495ff">
<path fill="#baa495" opacity="1.00" d=" M 122.45 99.54 C 126.35 93.67 131.88 88.38 138.98 86.89 C 148.41 85.36 158.41 87.61 166.09 93.34 L 166.31 94.06 C 164.65 98.28 161.54 102.06 156.91 103.05 C 156.49 103.14 155.66 103.33 155.24 103.43 C 154.36 104.49 153.59 105.63 152.94 106.85 C 152.37 106.41 151.81 105.98 151.25 105.54 C 146.39 106.63 141.42 107.01 136.52 107.85 C 138.08 104.95 139.62 101.99 140.54 98.81 C 140.46 97.76 140.46 96.16 138.96 96.52 C 135.80 99.45 134.16 103.72 133.36 107.88 C 129.54 105.29 125.04 103.64 122.45 99.54 Z" />
</g>
<g id="#a88977ff">
<path fill="#a88977" opacity="1.00" d=" M 166.31 94.06 L 166.84 93.79 C 167.05 93.91 167.47 94.13 167.69 94.24 C 174.62 102.15 178.14 113.13 176.04 123.55 C 173.88 116.84 175.05 109.32 171.55 102.93 C 170.73 104.98 170.05 107.10 169.08 109.10 C 166.29 110.20 163.14 110.14 160.45 111.52 C 156.83 113.33 153.94 116.24 151.24 119.20 C 147.54 114.11 141.09 111.71 134.92 112.34 C 132.23 112.01 129.85 113.76 128.81 116.15 C 128.28 117.13 127.77 118.12 127.26 119.11 C 126.02 115.83 128.73 113.46 130.81 111.38 C 127.84 109.16 124.44 107.67 121.08 106.18 C 120.05 108.58 119.24 111.10 117.78 113.27 C 117.39 113.28 116.63 113.29 116.25 113.30 C 118.21 108.67 119.92 103.90 122.45 99.54 C 125.04 103.64 129.54 105.29 133.36 107.88 C 133.75 108.18 134.53 108.79 134.92 109.09 C 135.32 108.78 136.12 108.16 136.52 107.85 C 141.42 107.01 146.39 106.63 151.25 105.54 C 151.81 105.98 152.37 106.41 152.94 106.85 C 151.71 109.62 150.36 112.47 150.56 115.58 C 152.07 115.82 153.43 115.30 154.59 114.30 C 154.04 113.69 153.48 113.08 152.92 112.48 L 151.95 114.41 C 152.04 113.62 152.21 112.04 152.30 111.25 C 153.29 111.55 154.28 111.84 155.28 112.13 C 155.89 109.68 156.80 107.33 157.92 105.08 C 157.67 104.57 157.16 103.56 156.91 103.05 C 161.54 102.06 164.65 98.28 166.31 94.06 Z" />
</g>
<g id="#b781a0ff">
<path fill="#b781a0" opacity="1.00" d=" M 94.61 96.17 L 95.08 95.17 C 97.50 96.96 99.79 100.80 97.37 103.46 C 94.78 106.36 90.61 106.73 86.99 107.26 C 83.41 106.95 79.17 107.04 76.51 104.21 C 78.52 101.53 82.17 102.97 85.01 102.56 C 89.18 102.72 93.49 100.39 94.61 96.17 Z" />
</g>
<g id="#d7d9dbff">
<path fill="#d7d9db" opacity="1.00" d=" M 138.19 98.46 C 139.53 97.66 139.91 98.07 139.33 99.69 C 137.99 100.54 137.61 100.13 138.19 98.46 Z" />
</g>
<g id="#9c806fff">
<path fill="#9c806f" opacity="1.00" d=" M 169.08 109.10 C 170.05 107.10 170.73 104.98 171.55 102.93 C 175.05 109.32 173.88 116.84 176.04 123.55 C 175.17 129.15 173.63 134.64 171.91 140.04 C 170.39 140.72 169.42 142.04 168.53 143.38 C 166.51 142.60 164.33 141.17 162.11 142.14 C 158.58 143.55 155.22 145.36 151.67 146.73 C 149.84 147.35 148.77 149.02 147.58 150.42 C 145.21 149.72 142.70 148.54 140.29 149.79 C 135.90 147.97 131.29 149.90 127.78 152.63 C 126.86 152.29 125.95 151.96 125.03 151.62 C 124.10 152.10 123.17 152.57 122.24 153.04 C 120.06 150.56 117.24 148.64 113.82 148.64 C 113.70 145.91 113.63 143.19 113.77 140.47 C 115.73 136.97 115.23 132.89 115.18 129.05 C 115.05 125.83 115.28 122.49 113.98 119.47 C 114.62 117.37 115.44 115.33 116.25 113.30 C 116.63 113.29 117.39 113.28 117.78 113.27 C 119.24 111.10 120.05 108.58 121.08 106.18 C 124.44 107.67 127.84 109.16 130.81 111.38 C 128.73 113.46 126.02 115.83 127.26 119.11 C 127.77 118.12 128.28 117.13 128.81 116.15 C 128.91 121.68 133.85 125.82 139.00 126.69 C 142.82 127.44 147.22 127.83 150.67 125.71 C 152.81 124.13 151.48 121.32 151.24 119.20 C 153.94 116.24 156.83 113.33 160.45 111.52 C 163.14 110.14 166.29 110.20 169.08 109.10 Z" />
</g>
<g id="#5e6062ff">
<path fill="#5e6062" opacity="1.00" d=" M 135.31 105.25 C 138.61 105.33 133.69 108.29 135.31 105.25 Z" />
</g>
<g id="#e4b5d1ff">
<path fill="#e4b5d1" opacity="1.00" d=" M 130.15 116.46 C 130.76 115.41 131.49 114.45 132.35 113.58 C 134.32 117.48 138.95 116.07 141.45 113.59 C 143.27 114.28 145.01 115.14 146.71 116.07 C 144.01 122.68 133.91 121.50 130.15 116.46 Z" />
</g>
<g id="#f9e2f3ff">
<path fill="#f9e2f3" opacity="1.00" d=" M 132.35 113.58 C 135.37 113.15 138.43 113.21 141.45 113.59 C 138.95 116.07 134.32 117.48 132.35 113.58 Z" />
</g>
<g id="#b781a1ff">
<path fill="#b781a1" opacity="1.00" d=" M 129.65 115.97 L 130.15 116.46 C 133.91 121.50 144.01 122.68 146.71 116.07 C 149.06 117.68 151.42 119.79 151.23 122.94 C 150.37 124.56 148.66 125.39 147.19 126.35 C 141.61 126.74 135.50 125.66 131.61 121.31 C 129.97 120.01 129.93 117.85 129.65 115.97 Z" />
</g>
<g id="#68554aff">
<path fill="#68554a" opacity="1.00" d=" M 46.01 117.78 C 46.65 121.21 46.80 124.70 46.65 128.19 C 46.33 124.72 46.06 121.26 46.01 117.78 Z" />
</g>
<g id="#b1917cff">
<path fill="#b1917c" opacity="1.00" d=" M 113.98 119.47 C 115.28 122.49 115.05 125.83 115.18 129.05 C 115.23 132.89 115.73 136.97 113.77 140.47 C 113.97 133.48 112.40 126.35 113.98 119.47 Z" />
</g>
<g id="#a98a77ff">
<path fill="#a98a77" opacity="1.00" d=" M 168.53 143.38 C 169.42 142.04 170.39 140.72 171.91 140.04 C 170.38 145.07 168.37 149.95 166.97 155.02 C 164.88 154.44 162.76 153.29 160.54 153.68 C 157.97 155.52 155.48 158.09 152.00 157.69 C 149.50 156.44 148.66 153.15 145.98 152.10 C 144.09 151.30 142.17 150.60 140.29 149.79 C 142.70 148.54 145.21 149.72 147.58 150.42 C 148.77 149.02 149.84 147.35 151.67 146.73 C 155.22 145.36 158.58 143.55 162.11 142.14 C 164.33 141.17 166.51 142.60 168.53 143.38 Z" />
</g>
<g id="#6b6a6cff">
<path fill="#6b6a6c" opacity="1.00" d=" M 114.39 156.56 C 114.40 154.25 112.80 151.13 114.97 149.41 C 119.33 150.33 120.85 156.02 125.27 156.17 C 124.73 155.78 123.66 154.99 123.13 154.60 C 122.62 151.48 126.50 153.04 127.90 154.11 C 129.11 153.03 130.30 151.93 131.55 150.89 C 134.93 156.01 142.20 155.33 147.61 155.22 C 148.69 156.50 149.65 158.08 151.30 158.67 C 154.49 159.75 157.18 157.06 159.66 155.47 C 159.65 156.86 159.65 158.24 159.66 159.63 C 159.68 160.10 159.71 161.03 159.73 161.49 C 163.55 164.06 167.77 166.88 172.59 166.44 C 175.21 167.17 178.29 169.00 180.47 166.36 C 181.12 167.56 181.74 168.77 182.36 169.98 C 182.45 169.38 182.64 168.19 182.73 167.59 C 183.55 167.76 185.20 168.10 186.02 168.28 C 187.30 168.84 188.61 169.66 189.08 171.06 C 188.44 171.02 187.16 170.93 186.51 170.89 C 187.88 174.09 189.39 177.24 191.36 180.12 L 191.85 180.86 C 189.89 180.83 187.93 180.85 185.99 180.64 L 186.92 180.22 C 187.27 180.08 187.97 179.79 188.32 179.64 C 184.19 177.88 180.09 176.05 175.90 174.45 C 175.48 174.34 174.65 174.13 174.23 174.03 C 175.24 172.94 177.75 172.23 176.67 170.40 C 173.60 169.19 170.29 168.80 167.07 168.21 C 169.11 170.42 171.03 172.73 172.60 175.30 C 170.96 178.26 168.21 179.86 164.81 179.82 C 163.11 182.58 160.42 184.13 157.13 183.34 C 156.23 178.45 152.29 175.31 149.02 171.95 C 148.05 170.90 146.74 170.29 145.45 169.73 C 144.21 169.25 142.97 168.79 141.72 168.32 C 141.28 168.56 140.40 169.03 139.96 169.26 C 139.72 168.91 139.24 168.21 139.00 167.86 L 138.73 167.43 C 138.00 164.48 135.72 161.67 132.40 162.62 C 129.67 162.39 127.09 161.43 124.62 160.30 C 121.33 158.71 117.57 158.41 114.39 156.56 Z" />
</g>
<g id="#313133c7">
<path fill="#313133" opacity="0.78" d=" M 39.81 153.06 C 39.96 151.01 43.43 150.47 44.99 151.22 C 43.60 152.30 41.97 153.03 40.27 153.48 L 39.81 153.06 Z" />
</g>
<g id="#afb2baff">
<path fill="#afb2ba" opacity="1.00" d=" M 44.99 151.22 C 45.58 151.07 46.76 150.77 47.35 150.62 C 47.50 152.84 47.64 155.07 47.44 157.29 C 46.14 156.42 46.04 154.78 45.55 153.44 C 44.19 153.83 42.84 154.23 41.47 154.56 C 41.17 154.29 40.57 153.75 40.27 153.48 C 41.97 153.03 43.60 152.30 44.99 151.22 Z" />
</g>
<g id="#828388ff">
<path fill="#828388" opacity="1.00" d=" M 131.55 150.89 C 136.41 148.96 141.20 151.87 145.91 152.86 C 146.34 153.45 147.19 154.63 147.61 155.22 C 142.20 155.33 134.93 156.01 131.55 150.89 Z" />
</g>
<g id="#828288ff">
<path fill="#828288" opacity="1.00" d=" M 167.77 155.63 C 168.20 153.99 168.84 152.41 169.74 150.97 C 172.12 154.73 174.85 158.28 178.34 161.08 C 178.75 162.95 179.48 164.72 180.47 166.36 C 178.29 169.00 175.21 167.17 172.59 166.44 C 173.19 162.22 171.14 158.11 167.77 155.63 Z" />
</g>
<g id="#95989fff">
<path fill="#95989f" opacity="1.00" d=" M 39.81 153.06 L 40.27 153.48 C 40.57 153.75 41.17 154.29 41.47 154.56 C 42.84 154.23 44.19 153.83 45.55 153.44 C 46.04 154.78 46.14 156.42 47.44 157.29 C 45.26 159.08 43.49 161.39 42.39 163.99 C 42.74 166.66 45.44 168.16 47.91 168.38 C 47.85 168.95 47.72 170.07 47.65 170.64 C 45.49 171.78 43.06 172.17 40.72 172.80 C 39.07 173.79 37.79 175.28 36.42 176.60 C 36.92 174.59 37.30 172.55 37.44 170.49 C 36.50 170.63 35.56 170.77 34.63 170.97 C 33.88 169.60 33.13 168.23 32.38 166.85 C 34.17 163.51 39.08 161.60 38.58 157.39 C 38.42 155.83 39.22 154.44 39.81 153.06 Z" />
</g>
<g id="#bcbec2ff">
<path fill="#bcbec2" opacity="1.00" d=" M 43.18 163.01 C 47.38 157.20 54.02 153.11 61.22 152.61 C 62.73 153.59 65.57 154.53 64.77 156.82 C 63.78 160.29 62.23 164.22 58.82 165.96 C 55.71 167.88 51.86 167.93 48.33 167.67 C 45.70 167.61 44.31 165.01 43.18 163.01 Z" />
</g>
<g id="#b7b9bfff">
<path fill="#b7b9bf" opacity="1.00" d=" M 84.24 163.91 C 83.52 159.77 87.37 157.00 89.68 154.13 C 92.17 154.62 95.53 153.52 97.33 155.75 C 97.63 157.55 98.18 159.58 97.42 161.32 C 95.28 164.70 91.83 167.33 87.91 168.29 C 86.24 167.34 84.94 165.68 84.24 163.91 Z" />
</g>
<g id="#b2b4baff">
<path fill="#b2b4ba" opacity="1.00" d=" M 159.66 155.47 C 162.09 153.03 165.18 156.79 168.06 156.81 C 170.06 159.32 171.92 162.09 172.35 165.36 C 170.37 165.61 168.31 165.76 166.53 164.67 C 164.06 163.32 160.84 162.46 159.66 159.63 C 159.65 158.24 159.65 156.86 159.66 155.47 Z" />
</g>
<g id="#94979fff">
<path fill="#94979f" opacity="1.00" d=" M 114.39 156.56 C 117.57 158.41 121.33 158.71 124.62 160.30 C 127.09 161.43 129.67 162.39 132.40 162.62 C 132.46 163.95 132.51 165.28 132.56 166.62 C 134.18 168.28 135.73 170.07 137.67 171.38 C 139.02 171.74 139.53 170.22 139.96 169.26 C 140.40 169.03 141.28 168.56 141.72 168.32 C 142.97 168.79 144.21 169.25 145.45 169.73 C 144.53 170.51 142.68 170.66 142.52 172.11 C 142.17 177.12 144.53 181.77 144.94 186.71 C 143.88 186.51 141.77 186.12 140.72 185.92 C 140.35 185.72 139.60 185.31 139.23 185.11 C 135.81 182.69 131.48 183.76 127.71 184.52 C 127.40 181.97 128.52 179.94 130.87 178.96 C 127.21 178.49 123.56 178.01 119.92 177.44 C 119.10 178.02 118.28 178.60 117.46 179.18 C 117.44 178.79 117.39 178.00 117.37 177.61 C 116.24 176.18 114.77 175.09 113.22 174.16 C 112.77 173.85 111.88 173.23 111.43 172.92 C 112.11 171.44 112.79 169.97 113.47 168.49 C 114.70 168.15 115.92 167.81 117.14 167.47 C 114.81 164.77 112.00 162.56 109.26 160.30 C 110.15 159.91 111.03 159.50 111.91 159.09 C 112.83 158.35 113.66 157.50 114.39 156.56 Z" />
</g>
<g id="#808186ff">
<path fill="#808186" opacity="1.00" d=" M 66.04 156.29 C 68.89 158.52 71.93 161.72 75.93 160.18 C 75.82 161.57 75.71 162.96 75.60 164.35 C 78.51 167.36 81.24 163.15 83.62 161.61 C 83.03 164.68 84.55 167.32 87.02 168.98 C 87.91 169.49 88.80 170.00 89.70 170.49 C 87.70 172.94 84.61 175.37 85.09 178.90 C 85.22 181.23 87.87 181.86 89.42 183.08 C 87.39 183.98 85.17 183.96 83.00 183.94 C 81.68 182.54 79.67 182.59 77.92 182.92 C 74.60 182.62 71.32 183.50 68.00 183.40 C 65.16 183.41 63.00 181.23 60.34 180.58 C 54.48 179.82 48.55 179.94 42.68 179.43 C 46.29 179.56 49.90 179.31 53.50 179.02 L 52.94 178.02 C 51.60 175.27 49.54 173.00 47.65 170.64 C 47.72 170.07 47.85 168.95 47.91 168.38 C 49.08 168.54 50.25 168.68 51.42 168.83 C 52.86 168.64 54.29 168.44 55.73 168.27 C 56.34 168.89 56.93 169.52 57.53 170.15 C 54.70 173.06 57.35 176.93 60.77 177.41 C 63.76 175.56 65.20 171.93 64.35 168.53 C 64.45 167.27 62.77 167.43 61.98 167.59 C 61.42 167.90 60.32 168.53 59.77 168.85 C 58.97 168.22 58.17 167.58 57.38 166.94 C 62.58 166.07 64.39 160.55 66.04 156.29 Z" />
</g>
<g id="#767579ff">
<path fill="#767579" opacity="1.00" d=" M 98.50 156.42 C 99.02 156.47 100.06 156.56 100.58 156.60 C 102.53 158.23 105.11 159.29 106.61 161.37 C 107.29 165.70 107.34 170.15 107.22 174.53 C 105.81 177.74 104.91 181.13 104.26 184.57 L 103.76 184.37 C 99.23 182.85 94.06 181.05 89.42 183.08 C 87.87 181.86 85.22 181.23 85.09 178.90 C 84.61 175.37 87.70 172.94 89.70 170.49 C 88.80 170.00 87.91 169.49 87.02 168.98 C 91.43 168.72 94.75 165.57 97.58 162.51 C 99.30 160.95 98.36 158.42 98.50 156.42 Z" />
<path fill="#767579" opacity="1.00" d=" M 186.51 170.89 C 187.16 170.93 188.44 171.02 189.08 171.06 C 190.74 173.41 194.22 177.65 191.36 180.12 C 189.39 177.24 187.88 174.09 186.51 170.89 Z" />
</g>
<g id="#818287ff">
<path fill="#818287" opacity="1.00" d=" M 100.58 156.60 C 104.79 155.72 107.79 159.94 111.91 159.09 C 111.03 159.50 110.15 159.91 109.26 160.30 C 112.00 162.56 114.81 164.77 117.14 167.47 C 115.92 167.81 114.70 168.15 113.47 168.49 C 112.79 169.97 112.11 171.44 111.43 172.92 C 111.88 173.23 112.77 173.85 113.22 174.16 C 111.22 174.29 109.22 174.44 107.22 174.53 C 107.34 170.15 107.29 165.70 106.61 161.37 C 105.11 159.29 102.53 158.23 100.58 156.60 Z" />
</g>
<g id="#a3a5adff">
<path fill="#a3a5ad" opacity="1.00" d=" M 36.90 159.18 C 37.32 158.74 38.16 157.84 38.58 157.39 C 39.08 161.60 34.17 163.51 32.38 166.85 C 33.13 168.23 33.88 169.60 34.63 170.97 C 32.43 172.77 30.51 174.90 28.88 177.23 C 26.39 177.45 24.46 176.12 23.16 174.09 C 23.86 172.69 24.55 171.29 25.17 169.85 C 25.93 168.39 25.36 166.72 25.32 165.17 L 25.70 165.61 C 25.93 165.86 26.39 166.38 26.61 166.63 C 28.44 164.40 31.74 162.44 31.15 159.12 L 31.14 158.66 C 32.96 158.09 34.47 158.72 35.61 160.17 L 34.23 161.48 C 35.15 160.74 36.05 159.99 36.90 159.18 Z" />
<path fill="#a3a5ad" opacity="1.00" d=" M 40.72 172.80 C 43.06 172.17 45.49 171.78 47.65 170.64 C 49.54 173.00 51.60 175.27 52.94 178.02 C 49.07 177.87 44.72 176.82 41.30 179.18 C 39.45 178.78 37.79 177.88 36.42 176.60 C 37.79 175.28 39.07 173.79 40.72 172.80 Z" />
</g>
<g id="#b1b2baff">
<path fill="#b1b2ba" opacity="1.00" d=" M 76.53 160.03 C 77.50 156.47 82.08 156.92 84.34 158.96 C 82.50 161.01 80.80 163.57 78.14 164.57 C 75.40 165.17 76.44 161.48 76.53 160.03 Z" />
</g>
<g id="#1d1d1ea1">
<path fill="#1d1d1e" opacity="0.63" d=" M 27.99 162.98 C 26.87 161.75 28.65 159.12 30.17 160.07 C 29.67 161.19 28.98 162.23 27.99 162.98 Z" />
</g>
<g id="#b3b4bbff">
<path fill="#b3b4bb" opacity="1.00" d=" M 30.17 160.07 L 31.15 159.12 C 31.74 162.44 28.44 164.40 26.61 166.63 C 26.39 166.38 25.93 165.86 25.70 165.61 C 26.41 164.68 27.17 163.80 27.99 162.98 C 28.98 162.23 29.67 161.19 30.17 160.07 Z" />
<path fill="#b3b4bb" opacity="1.00" d=" M 143.65 171.76 C 146.63 169.93 149.09 173.10 150.93 175.04 C 153.56 177.54 155.76 180.49 156.66 184.06 C 156.25 184.62 155.43 185.74 155.03 186.29 C 151.93 186.73 148.80 187.50 145.67 186.90 C 145.24 181.85 142.32 176.78 143.65 171.76 Z" />
</g>
<g id="#afb0b8ff">
<path fill="#afb0b8" opacity="1.00" d=" M 59.77 168.85 C 60.32 168.53 61.42 167.90 61.98 167.59 C 66.35 169.27 63.15 174.58 61.06 176.93 C 59.56 175.87 58.30 174.53 57.20 173.08 C 57.66 171.93 58.13 170.79 58.62 169.66 C 58.91 169.46 59.48 169.05 59.77 168.85 Z" />
</g>
<g id="#79787bff">
<path fill="#79787b" opacity="1.00" d=" M 167.07 168.21 C 170.29 168.80 173.60 169.19 176.67 170.40 C 177.75 172.23 175.24 172.94 174.23 174.03 C 173.83 174.34 173.01 174.98 172.60 175.30 C 171.03 172.73 169.11 170.42 167.07 168.21 Z" />
</g>
<g id="#babbc2ff">
<path fill="#babbc2" opacity="1.00" d=" M 29.39 177.23 C 31.44 175.05 33.13 171.23 36.53 171.33 C 36.53 173.38 36.73 175.58 35.30 177.25 C 33.33 177.15 31.36 177.17 29.39 177.23 Z" />
</g>
<g id="#b5b7beff">
<path fill="#b5b7be" opacity="1.00" d=" M 107.35 176.22 C 110.57 173.25 117.18 175.17 116.73 180.11 C 117.38 183.92 114.03 186.71 111.10 188.46 C 108.94 187.71 106.80 186.86 104.69 185.97 L 104.45 185.87 C 105.59 182.70 105.93 179.28 107.35 176.22 Z" />
</g>
<g id="#b7b9c0ff">
<path fill="#b7b9c0" opacity="1.00" d=" M 175.90 174.45 C 180.09 176.05 184.19 177.88 188.32 179.64 C 187.97 179.79 187.27 180.08 186.92 180.22 C 181.58 180.14 176.26 179.52 170.93 179.23 C 171.85 177.01 174.15 175.91 175.90 174.45 Z" />
</g>
<g id="#828287ff">
<path fill="#828287" opacity="1.00" d=" M 117.46 179.18 C 118.28 178.60 119.10 178.02 119.92 177.44 C 123.56 178.01 127.21 178.49 130.87 178.96 C 128.52 179.94 127.40 181.97 127.71 184.52 C 125.40 185.67 123.37 187.34 120.97 188.30 C 118.59 188.70 116.15 188.57 113.75 188.63 C 116.16 186.00 118.26 182.94 117.46 179.18 Z" />
</g>
<g id="#bcbfc5ff">
<path fill="#bcbfc5" opacity="1.00" d=" M 41.30 179.18 C 44.72 176.82 49.07 177.87 52.94 178.02 L 53.50 179.02 C 49.90 179.31 46.29 179.56 42.68 179.43 L 41.30 179.18 Z" />
</g>
<g id="#363639ff">
<path fill="#363639" opacity="1.00" d=" M 77.92 182.92 C 79.67 182.59 81.68 182.54 83.00 183.94 C 81.32 184.34 79.06 184.52 77.92 182.92 Z" />
</g>
</svg>
