<?xml version="1.0" encoding="UTF-8" ?>
<!DOCTYPE svg PUBLIC "-//W3C//DTD SVG 1.1//EN" "http://www.w3.org/Graphics/SVG/1.1/DTD/svg11.dtd">
<svg width="120pt" height="120pt" viewBox="0 0 120 120" version="1.1" xmlns="http://www.w3.org/2000/svg">
<g id="#181818ff">
<path fill="#181818" opacity="1.00" d=" M 57.00 37.04 C 60.91 37.67 63.76 34.67 66.86 32.89 L 66.28 34.55 C 62.89 37.21 58.88 38.71 54.53 38.12 C 53.50 38.61 52.45 39.07 51.42 39.57 C 49.61 38.04 47.31 37.42 45.10 36.75 C 45.37 37.35 45.90 38.55 46.17 39.15 C 46.08 40.83 46.41 42.88 48.24 43.51 C 48.08 43.98 47.76 44.92 47.59 45.40 C 47.20 47.20 47.04 49.04 46.90 50.88 C 48.51 52.34 50.20 53.73 52.09 54.82 C 51.39 53.37 50.64 51.94 49.85 50.54 C 50.72 51.37 51.58 52.20 52.45 53.04 C 52.43 54.04 52.42 55.04 52.47 56.04 C 53.54 58.09 55.59 58.66 57.76 58.39 C 58.24 57.80 59.20 56.61 59.68 56.02 C 61.10 54.53 62.79 53.35 64.48 52.19 C 64.41 53.82 64.21 55.46 64.46 57.08 C 68.14 58.72 71.68 55.24 74.51 53.26 C 72.81 52.11 71.06 51.02 69.34 49.88 L 69.10 48.73 C 71.22 49.54 73.51 50.38 74.84 52.35 C 75.08 53.76 74.99 55.20 75.03 56.63 C 74.39 56.95 73.12 57.60 72.48 57.92 C 72.10 57.95 71.32 58.00 70.94 58.03 L 69.73 58.08 C 69.11 58.08 67.86 58.06 67.23 58.05 C 67.38 58.57 67.68 59.60 67.83 60.12 C 67.98 60.44 68.27 61.08 68.41 61.40 C 66.55 62.32 64.74 63.33 62.90 64.29 C 63.27 63.73 64.02 62.62 64.40 62.06 C 65.44 61.63 66.45 61.12 67.46 60.63 C 64.43 59.47 61.16 57.32 57.93 59.15 C 56.46 59.21 54.98 59.23 53.52 59.42 C 53.30 60.52 53.14 61.63 53.06 62.74 C 53.05 63.70 53.01 65.61 53.00 66.56 L 52.33 65.77 C 52.12 65.11 51.70 63.81 51.49 63.15 C 52.36 61.64 52.10 60.51 50.73 59.76 C 50.92 59.26 51.31 58.26 51.50 57.76 C 50.43 58.25 49.35 58.74 48.28 59.22 C 47.83 60.19 47.37 61.16 46.89 62.11 L 46.57 62.57 C 44.48 64.25 45.53 66.63 46.18 68.73 C 44.91 68.40 43.63 68.08 42.36 67.77 C 40.86 69.56 39.66 71.56 38.74 73.71 C 37.28 71.86 35.89 69.93 34.16 68.31 L 33.83 67.98 C 32.51 67.78 31.26 67.95 30.09 68.48 C 29.07 70.36 32.46 70.32 33.43 69.67 C 33.40 70.14 33.35 71.09 33.33 71.56 C 33.18 71.58 32.89 71.62 32.74 71.64 C 30.30 70.52 27.67 69.81 24.97 69.93 L 25.05 69.02 C 26.30 69.00 27.55 68.98 28.80 68.97 C 29.14 68.49 29.82 67.54 30.16 67.06 C 31.65 67.04 33.15 67.02 34.66 67.00 C 36.03 68.58 37.93 69.95 38.29 72.18 C 39.52 69.84 41.21 67.62 43.77 66.65 C 43.95 65.11 44.54 63.73 45.67 62.65 C 46.00 62.04 46.65 60.81 46.97 60.19 C 45.22 59.15 43.51 58.02 41.89 56.79 C 42.91 54.87 44.20 53.10 45.87 51.69 C 45.87 49.40 46.09 47.12 46.85 44.95 C 46.01 42.39 44.32 40.06 44.05 37.34 C 44.99 35.62 47.13 35.64 48.53 36.77 C 49.02 36.89 50.01 37.13 50.51 37.25 C 52.50 38.98 54.76 36.70 57.00 37.04 M 43.84 56.68 C 45.17 57.32 46.49 57.98 47.81 58.66 C 49.23 57.86 50.65 57.06 52.08 56.26 C 50.15 54.93 48.27 53.52 46.51 51.98 C 45.12 53.25 43.87 54.69 43.84 56.68 Z" />
</g>
<g id="#69612aff">
<path fill="#69612a" opacity="1.00" d=" M 66.86 32.89 C 66.94 34.31 67.09 35.71 67.34 37.11 C 67.42 37.27 67.57 37.58 67.65 37.74 C 67.90 41.45 69.17 44.99 69.10 48.73 L 69.34 49.88 C 67.91 51.01 66.30 51.90 64.48 52.19 C 65.98 51.11 67.52 49.94 68.13 48.11 C 68.10 46.84 68.06 45.58 68.01 44.32 C 67.46 43.77 66.90 43.23 66.34 42.70 C 66.71 40.79 66.64 38.84 65.31 37.31 C 65.65 36.40 65.97 35.48 66.28 34.55 L 66.86 32.89 Z" />
</g>
<g id="#ffff55ff">
<path fill="#ffff55" opacity="1.00" d=" M 54.53 38.12 C 58.88 38.71 62.89 37.21 66.28 34.55 C 65.97 35.48 65.65 36.40 65.31 37.31 C 64.85 38.06 63.94 39.56 63.48 40.31 C 63.46 40.34 63.41 40.42 63.39 40.46 L 63.46 40.51 C 64.18 41.06 65.62 42.15 66.34 42.70 C 66.90 43.23 67.46 43.77 68.01 44.32 C 68.06 45.58 68.10 46.84 68.13 48.11 C 66.83 48.76 65.53 49.43 64.23 50.09 C 63.81 49.64 62.97 48.72 62.55 48.26 C 62.35 48.41 61.95 48.70 61.75 48.85 C 60.82 49.51 59.90 50.18 58.99 50.87 C 58.42 51.74 57.81 52.57 57.14 53.36 C 56.86 53.29 56.30 53.14 56.02 53.07 C 53.65 48.89 47.47 44.80 51.42 39.57 C 52.45 39.07 53.50 38.61 54.53 38.12 Z" />
</g>
<g id="#ffec4bff">
<path fill="#ffec4b" opacity="1.00" d=" M 45.10 36.75 C 47.31 37.42 49.61 38.04 51.42 39.57 C 47.47 44.80 53.65 48.89 56.02 53.07 C 56.30 53.14 56.86 53.29 57.14 53.36 C 59.62 53.95 59.40 49.54 61.75 48.85 C 61.95 48.70 62.35 48.41 62.55 48.26 C 62.97 48.72 63.81 49.64 64.23 50.09 C 65.53 49.43 66.83 48.76 68.13 48.11 C 67.52 49.94 65.98 51.11 64.48 52.19 C 62.79 53.35 61.10 54.53 59.68 56.02 C 57.27 55.99 54.87 56.00 52.47 56.04 C 52.42 55.04 52.43 54.04 52.45 53.04 C 51.58 52.20 50.72 51.37 49.85 50.54 C 50.64 51.94 51.39 53.37 52.09 54.82 C 50.20 53.73 48.51 52.34 46.90 50.88 C 47.04 49.04 47.20 47.20 47.59 45.40 C 47.76 44.92 48.08 43.98 48.24 43.51 C 49.46 41.62 47.61 40.10 46.17 39.15 C 45.90 38.55 45.37 37.35 45.10 36.75 Z" />
<path fill="#ffec4b" opacity="1.00" d=" M 56.05 82.14 C 56.50 81.83 57.38 81.20 57.83 80.88 C 58.05 81.42 58.50 82.49 58.73 83.03 L 58.50 83.62 C 57.96 83.61 56.89 83.58 56.36 83.57 C 56.28 83.21 56.13 82.50 56.05 82.14 Z" />
</g>
<g id="#051923ff">
<path fill="#051923" opacity="1.00" d=" M 67.34 37.11 C 67.42 37.27 67.57 37.58 67.65 37.74 C 67.57 37.58 67.42 37.27 67.34 37.11 Z" />
</g>
<g id="#c6bb8fff">
<path fill="#c6bb8f" opacity="1.00" d=" M 63.48 40.31 C 63.94 39.56 64.85 38.06 65.31 37.31 C 66.64 38.84 66.71 40.79 66.34 42.70 C 65.62 42.15 64.18 41.06 63.46 40.51 L 63.48 40.31 Z" />
</g>
<g id="#ccbc80ff">
<path fill="#ccbc80" opacity="1.00" d=" M 46.17 39.15 C 47.61 40.10 49.46 41.62 48.24 43.51 C 46.41 42.88 46.08 40.83 46.17 39.15 Z" />
</g>
<g id="#726636ff">
<path fill="#726636" opacity="1.00" d=" M 63.39 40.46 C 63.41 40.42 63.46 40.34 63.48 40.31 L 63.46 40.51 L 63.39 40.46 Z" />
</g>
<g id="#9e8073ff">
<path fill="#9e8073" opacity="1.00" d=" M 69.34 49.88 C 71.06 51.02 72.81 52.11 74.51 53.26 C 71.68 55.24 68.14 58.72 64.46 57.08 C 64.21 55.46 64.41 53.82 64.48 52.19 C 66.30 51.90 67.91 51.01 69.34 49.88 Z" />
<path fill="#9e8073" opacity="1.00" d=" M 56.36 83.57 C 54.64 83.43 54.54 82.95 56.05 82.14 C 56.13 82.50 56.28 83.21 56.36 83.57 Z" />
</g>
<g id="#9a7d70ff">
<path fill="#9a7d70" opacity="1.00" d=" M 43.84 56.68 C 43.87 54.69 45.12 53.25 46.51 51.98 C 48.27 53.52 50.15 54.93 52.08 56.26 C 50.65 57.06 49.23 57.86 47.81 58.66 C 46.49 57.98 45.17 57.32 43.84 56.68 Z" />
</g>
<g id="#e9e1b5ff">
<path fill="#e9e1b5" opacity="1.00" d=" M 52.47 56.04 C 54.87 56.00 57.27 55.99 59.68 56.02 C 59.20 56.61 58.24 57.80 57.76 58.39 C 55.59 58.66 53.54 58.09 52.47 56.04 Z" />
</g>
<g id="#ebe64bff">
<path fill="#ebe64b" opacity="1.00" d=" M 48.28 59.22 C 49.35 58.74 50.43 58.25 51.50 57.76 C 51.31 58.26 50.92 59.26 50.73 59.76 C 50.51 60.30 50.08 61.38 49.86 61.92 C 49.12 61.96 47.63 62.06 46.89 62.11 C 47.37 61.16 47.83 60.19 48.28 59.22 Z" />
</g>
<g id="#967a6dff">
<path fill="#967a6d" opacity="1.00" d=" M 57.93 59.15 C 61.16 57.32 64.43 59.47 67.46 60.63 C 66.45 61.12 65.44 61.63 64.40 62.06 C 60.61 62.05 56.76 61.71 53.06 62.74 C 53.14 61.63 53.30 60.52 53.52 59.42 C 54.98 59.23 56.46 59.21 57.93 59.15 Z" />
</g>
<g id="#fbf751ff">
<path fill="#fbf751" opacity="1.00" d=" M 67.23 58.05 C 67.86 58.06 69.11 58.08 69.73 58.08 C 69.80 58.75 69.94 60.08 70.01 60.74 C 69.47 60.59 68.38 60.28 67.83 60.12 C 67.68 59.60 67.38 58.57 67.23 58.05 Z" />
</g>
<g id="#5e591fff">
<path fill="#5e591f" opacity="1.00" d=" M 69.73 58.08 L 70.94 58.03 C 70.99 58.65 71.11 59.89 71.16 60.51 C 72.27 62.20 71.95 64.26 72.05 66.16 C 73.38 66.15 74.71 66.14 76.04 66.12 C 75.85 67.61 76.36 69.42 75.05 70.54 C 75.04 71.19 75.02 72.47 75.01 73.11 L 75.00 74.24 L 75.00 74.76 C 73.60 75.15 72.20 75.56 70.81 75.98 C 72.02 77.65 73.19 79.34 74.33 81.05 C 74.02 81.56 73.38 82.60 73.07 83.11 C 76.00 82.27 78.96 81.51 81.92 80.76 L 82.05 81.65 C 81.42 81.92 80.16 82.46 79.53 82.73 C 74.62 84.03 69.22 84.95 64.48 82.56 C 62.61 81.40 60.61 82.63 58.73 83.03 C 61.34 79.50 66.35 81.80 69.97 80.21 C 70.04 81.02 70.19 82.62 70.26 83.42 C 73.83 82.70 71.99 78.41 69.74 77.22 L 69.41 77.18 C 67.40 77.04 65.38 77.02 63.37 76.98 C 63.49 76.41 63.73 75.27 63.85 74.70 C 62.30 76.20 60.79 77.75 59.10 79.09 C 57.48 77.79 55.80 76.11 53.56 77.23 C 54.45 75.93 54.32 74.88 53.18 74.06 L 52.84 74.84 C 52.34 76.80 51.96 79.16 49.34 79.05 C 49.21 78.39 48.95 77.08 48.82 76.42 C 48.54 77.07 47.96 78.36 47.67 79.01 C 47.15 79.00 46.11 78.98 45.59 78.97 C 47.01 77.06 46.91 74.66 47.02 72.42 C 45.02 73.18 45.61 75.26 45.56 76.90 C 44.37 76.94 43.18 76.98 41.99 77.03 C 41.96 79.88 42.19 82.76 41.85 85.61 C 41.43 87.28 39.39 86.81 38.13 87.06 C 38.14 85.82 38.14 84.59 38.14 83.36 C 34.90 80.34 31.76 77.21 28.72 73.99 C 26.85 73.94 24.98 73.93 23.11 73.93 C 23.13 73.11 23.19 71.47 23.22 70.65 L 23.81 71.56 C 23.93 71.94 24.17 72.69 24.29 73.07 C 25.07 72.68 25.85 72.31 26.64 71.95 C 31.28 73.78 34.31 77.89 37.79 81.25 C 39.34 82.40 39.14 84.36 39.19 86.07 C 39.62 86.05 40.48 86.01 40.91 85.99 C 40.85 83.95 40.83 81.90 40.95 79.86 C 40.94 79.12 40.91 77.64 40.90 76.89 L 41.58 76.46 C 42.35 75.96 43.11 75.47 43.88 74.97 C 43.93 73.12 43.97 71.28 44.01 69.43 C 44.46 70.10 44.91 70.77 45.36 71.45 C 46.46 71.62 47.55 71.80 48.65 71.99 C 49.19 73.95 49.88 75.87 50.84 77.67 C 50.96 75.17 50.29 72.78 49.14 70.58 C 50.75 71.54 52.36 72.51 53.98 73.47 C 53.99 72.88 54.01 71.69 54.02 71.10 L 51.98 71.63 C 52.50 71.07 53.53 69.94 54.04 69.38 C 53.13 68.50 52.23 67.62 51.34 66.72 C 51.20 63.99 49.24 62.54 46.57 62.57 L 46.89 62.11 C 47.63 62.06 49.12 61.96 49.86 61.92 C 50.08 61.38 50.51 60.30 50.73 59.76 C 50.45 60.99 50.70 62.11 51.49 63.15 C 51.70 63.81 52.12 65.11 52.33 65.77 L 53.00 66.56 C 53.79 67.41 54.61 68.22 55.42 69.04 C 57.37 66.72 59.81 64.90 62.53 63.58 L 62.93 64.65 C 60.75 65.48 58.73 66.65 56.99 68.20 C 56.98 69.46 56.96 70.72 56.95 71.98 C 57.33 71.80 58.10 71.42 58.48 71.24 C 60.06 72.76 62.15 72.11 64.07 71.89 C 65.97 69.09 68.57 66.92 71.43 65.17 C 70.40 63.94 69.34 62.71 68.41 61.40 C 68.27 61.08 67.98 60.44 67.83 60.12 C 68.38 60.28 69.47 60.59 70.01 60.74 C 69.94 60.08 69.80 58.75 69.73 58.08 M 70.42 67.07 C 68.39 68.17 66.67 69.72 65.78 71.90 C 66.57 71.95 68.15 72.04 68.94 72.09 C 68.97 72.87 69.04 74.44 69.07 75.22 C 70.98 75.07 72.51 74.02 73.85 72.74 C 74.24 70.82 74.65 68.92 75.04 67.00 C 73.50 67.03 71.96 67.05 70.42 67.07 M 55.25 74.79 C 56.60 74.60 56.37 72.09 55.74 71.19 C 54.31 71.33 54.63 73.88 55.25 74.79 M 58.00 73.29 C 56.59 76.41 61.28 73.28 58.00 73.29 M 61.08 74.59 C 62.46 74.94 63.01 74.44 62.72 73.07 C 61.30 72.70 60.76 73.20 61.08 74.59 M 65.04 72.94 C 65.03 73.71 65.00 75.24 64.99 76.00 C 65.75 76.00 67.27 75.99 68.03 75.99 C 67.99 75.29 67.90 73.87 67.86 73.17 C 67.15 73.11 65.75 73.00 65.04 72.94 M 58.21 76.30 C 58.74 76.82 58.74 76.82 58.21 76.30 M 68.28 82.32 C 68.83 82.83 68.83 82.83 68.28 82.32 Z" />
</g>
<g id="#09111594">
<path fill="#091115" opacity="0.58" d=" M 91.63 64.66 C 93.32 63.25 94.67 60.27 97.31 61.15 C 96.74 61.48 95.61 62.15 95.05 62.48 C 91.88 65.12 89.54 68.77 85.69 70.53 C 87.24 68.20 89.89 66.87 91.63 64.66 Z" />
</g>
<g id="#ffff56ff">
<path fill="#ffff56" opacity="1.00" d=" M 53.06 62.74 C 56.76 61.71 60.61 62.05 64.40 62.06 C 64.02 62.62 63.27 63.73 62.90 64.29 C 64.74 63.33 66.55 62.32 68.41 61.40 C 69.34 62.71 70.40 63.94 71.43 65.17 C 68.57 66.92 65.97 69.09 64.07 71.89 C 62.15 72.11 60.06 72.76 58.48 71.24 C 58.10 71.42 57.33 71.80 56.95 71.98 C 56.96 70.72 56.98 69.46 56.99 68.20 C 58.73 66.65 60.75 65.48 62.93 64.65 L 62.53 63.58 C 59.81 64.90 57.37 66.72 55.42 69.04 C 54.61 68.22 53.79 67.41 53.00 66.56 C 53.01 65.61 53.05 63.70 53.06 62.74 Z" />
</g>
<g id="#c8b033ff">
<path fill="#c8b033" opacity="1.00" d=" M 95.05 62.48 C 95.61 62.15 96.74 61.48 97.31 61.15 C 96.09 62.71 95.63 64.56 95.57 66.49 C 94.63 68.46 94.35 70.79 92.70 72.35 C 93.74 69.13 94.60 65.84 95.05 62.48 Z" />
<path fill="#c8b033" opacity="1.00" d=" M 33.43 69.67 C 33.61 69.33 33.98 68.65 34.16 68.31 C 35.89 69.93 37.28 71.86 38.74 73.71 C 39.67 74.64 40.62 75.56 41.58 76.46 L 40.90 76.89 C 38.47 76.67 38.95 79.65 40.95 79.86 C 40.83 81.90 40.85 83.95 40.91 85.99 C 40.48 86.01 39.62 86.05 39.19 86.07 C 39.14 84.36 39.34 82.40 37.79 81.25 C 34.31 77.89 31.28 73.78 26.64 71.95 C 28.67 71.86 30.71 71.87 32.74 71.64 C 32.89 71.62 33.18 71.58 33.33 71.56 C 33.35 71.09 33.40 70.14 33.43 69.67 Z" />
<path fill="#c8b033" opacity="1.00" d=" M 59.10 79.09 C 60.79 77.75 62.30 76.20 63.85 74.70 C 63.73 75.27 63.49 76.41 63.37 76.98 C 65.38 77.02 67.40 77.04 69.41 77.18 L 69.74 77.22 C 69.81 78.22 69.89 79.22 69.97 80.21 C 66.35 81.80 61.34 79.50 58.73 83.03 C 58.50 82.49 58.05 81.42 57.83 80.88 L 57.51 80.25 C 57.91 79.96 58.70 79.38 59.10 79.09 Z" />
</g>
<g id="#ffff57ff">
<path fill="#ffff57" opacity="1.00" d=" M 46.18 68.73 C 45.53 66.63 44.48 64.25 46.57 62.57 C 49.24 62.54 51.20 63.99 51.34 66.72 C 52.23 67.62 53.13 68.50 54.04 69.38 C 53.53 69.94 52.50 71.07 51.98 71.63 L 54.02 71.10 C 54.01 71.69 53.99 72.88 53.98 73.47 C 52.36 72.51 50.75 71.54 49.14 70.58 C 50.29 72.78 50.96 75.17 50.84 77.67 C 49.88 75.87 49.19 73.95 48.65 71.99 C 47.55 71.80 46.46 71.62 45.36 71.45 C 44.91 70.77 44.46 70.10 44.01 69.43 C 43.97 71.28 43.93 73.12 43.88 74.97 C 43.11 75.47 42.35 75.96 41.58 76.46 C 40.62 75.56 39.67 74.64 38.74 73.71 C 39.66 71.56 40.86 69.56 42.36 67.77 C 43.63 68.08 44.91 68.40 46.18 68.73 Z" />
</g>
<g id="#fff64eff">
<path fill="#fff64e" opacity="1.00" d=" M 85.69 70.53 C 89.54 68.77 91.88 65.12 95.05 62.48 C 94.60 65.84 93.74 69.13 92.70 72.35 C 92.22 73.12 91.54 73.63 90.67 73.90 C 90.13 74.21 89.05 74.83 88.51 75.14 C 88.31 74.73 87.92 73.91 87.73 73.50 L 87.70 73.44 L 87.65 73.39 C 86.86 72.59 86.10 71.79 85.34 70.97 C 85.43 70.86 85.60 70.64 85.69 70.53 Z" />
<path fill="#fff64e" opacity="1.00" d=" M 70.42 67.07 C 71.96 67.05 73.50 67.03 75.04 67.00 C 74.65 68.92 74.24 70.82 73.85 72.74 C 72.51 74.02 70.98 75.07 69.07 75.22 C 69.04 74.44 68.97 72.87 68.94 72.09 C 68.15 72.04 66.57 71.95 65.78 71.90 C 66.67 69.72 68.39 68.17 70.42 67.07 Z" />
</g>
<g id="#f8e74aff">
<path fill="#f8e74a" opacity="1.00" d=" M 30.09 68.48 C 31.26 67.95 32.51 67.78 33.83 67.98 L 34.16 68.31 C 33.98 68.65 33.61 69.33 33.43 69.67 C 32.46 70.32 29.07 70.36 30.09 68.48 Z" />
</g>
<g id="#f1dc46ff">
<path fill="#f1dc46" opacity="1.00" d=" M 24.97 69.93 C 27.67 69.81 30.30 70.52 32.74 71.64 C 30.71 71.87 28.67 71.86 26.64 71.95 C 25.85 72.31 25.07 72.68 24.29 73.07 C 24.17 72.69 23.93 71.94 23.81 71.56 C 24.10 71.15 24.68 70.34 24.97 69.93 Z" />
</g>
<g id="#e6d43fff">
<path fill="#e6d43f" opacity="1.00" d=" M 55.25 74.79 C 54.63 73.88 54.31 71.33 55.74 71.19 C 56.37 72.09 56.60 74.60 55.25 74.79 Z" />
</g>
<g id="#172126e8">
<path fill="#172126" opacity="0.91" d=" M 75.01 73.11 C 78.44 73.11 81.63 71.72 84.64 70.20 C 84.27 70.93 83.55 72.40 83.18 73.14 C 81.99 73.16 80.80 73.19 79.61 73.24 C 78.13 73.79 76.55 74.00 75.00 74.24 L 75.01 73.11 Z" />
</g>
<g id="#7f665bff">
<path fill="#7f665b" opacity="1.00" d=" M 84.64 70.20 L 85.34 70.97 C 86.10 71.79 86.86 72.59 87.65 73.39 C 87.67 73.42 87.71 73.47 87.73 73.50 C 87.92 73.91 88.31 74.73 88.51 75.14 L 88.77 75.77 L 89.09 76.54 C 88.01 77.37 86.95 78.22 85.88 79.07 C 85.29 77.18 84.61 75.29 83.49 73.63 C 83.42 73.51 83.26 73.26 83.18 73.14 C 83.55 72.40 84.27 70.93 84.64 70.20 Z" />
</g>
<g id="#fff24dff">
<path fill="#fff24d" opacity="1.00" d=" M 45.56 76.90 C 45.61 75.26 45.02 73.18 47.02 72.42 C 46.91 74.66 47.01 77.06 45.59 78.97 L 45.56 76.90 Z" />
<path fill="#fff24d" opacity="1.00" d=" M 79.61 73.24 C 80.80 73.19 81.99 73.16 83.18 73.14 C 83.26 73.26 83.42 73.51 83.49 73.63 C 84.61 75.29 85.29 77.18 85.88 79.07 L 85.91 79.15 C 85.27 79.47 83.98 80.10 83.34 80.42 C 82.99 80.50 82.27 80.68 81.92 80.76 C 78.96 81.51 76.00 82.27 73.07 83.11 C 73.38 82.60 74.02 81.56 74.33 81.05 C 73.19 79.34 72.02 77.65 70.81 75.98 C 72.20 75.56 73.60 75.15 75.00 74.76 L 75.00 74.24 C 76.55 74.00 78.13 73.79 79.61 73.24 Z" />
</g>
<g id="#fffe53ff">
<path fill="#fffe53" opacity="1.00" d=" M 58.00 73.29 C 61.28 73.28 56.59 76.41 58.00 73.29 Z" />
</g>
<g id="#f7f350ff">
<path fill="#f7f350" opacity="1.00" d=" M 61.08 74.59 C 60.76 73.20 61.30 72.70 62.72 73.07 C 63.01 74.44 62.46 74.94 61.08 74.59 Z" />
</g>
<g id="#f7e84aff">
<path fill="#f7e84a" opacity="1.00" d=" M 65.04 72.94 C 65.75 73.00 67.15 73.11 67.86 73.17 C 67.90 73.87 67.99 75.29 68.03 75.99 C 67.27 75.99 65.75 76.00 64.99 76.00 C 65.00 75.24 65.03 73.71 65.04 72.94 Z" />
</g>
<g id="#543822ff">
<path fill="#543822" opacity="1.00" d=" M 83.18 73.14 C 83.26 73.26 83.42 73.51 83.49 73.63 C 83.42 73.51 83.26 73.26 83.18 73.14 Z" />
</g>
<g id="#503526ff">
<path fill="#503526" opacity="1.00" d=" M 87.65 73.39 L 87.70 73.44 L 87.73 73.50 C 87.71 73.47 87.67 73.42 87.65 73.39 Z" />
</g>
<g id="#f4e148ff">
<path fill="#f4e148" opacity="1.00" d=" M 53.18 74.06 C 54.32 74.88 54.45 75.93 53.56 77.23 L 53.07 76.79 C 53.01 76.30 52.89 75.33 52.84 74.84 L 53.18 74.06 Z" />
</g>
<g id="#91852bff">
<path fill="#91852b" opacity="1.00" d=" M 88.51 75.14 C 89.05 74.83 90.13 74.21 90.67 73.90 C 90.99 75.38 90.36 76.00 88.77 75.77 L 88.51 75.14 Z" />
</g>
<g id="#bdae37ff">
<path fill="#bdae37" opacity="1.00" d=" M 58.21 76.30 C 58.74 76.82 58.74 76.82 58.21 76.30 Z" />
</g>
<g id="#e7d143ff">
<path fill="#e7d143" opacity="1.00" d=" M 40.95 79.86 C 38.95 79.65 38.47 76.67 40.90 76.89 C 40.91 77.64 40.94 79.12 40.95 79.86 Z" />
</g>
<g id="#f6e248ff">
<path fill="#f6e248" opacity="1.00" d=" M 69.97 80.21 C 69.89 79.22 69.81 78.22 69.74 77.22 C 71.99 78.41 73.83 82.70 70.26 83.42 C 70.19 82.62 70.04 81.02 69.97 80.21 Z" />
</g>
<g id="#d0ba3fff">
<path fill="#d0ba3f" opacity="1.00" d=" M 68.28 82.32 C 68.83 82.83 68.83 82.83 68.28 82.32 Z" />
</g>
</svg>
