<?xml version="1.0" encoding="UTF-8" ?>
<!DOCTYPE svg PUBLIC "-//W3C//DTD SVG 1.1//EN" "http://www.w3.org/Graphics/SVG/1.1/DTD/svg11.dtd">
<svg width="171pt" height="120pt" viewBox="0 0 171 120" version="1.1" xmlns="http://www.w3.org/2000/svg">
<g id="#4a484cff">
<path fill="#4a484c" opacity="1.00" d=" M 109.25 25.42 C 119.99 22.55 131.29 25.77 142.07 23.28 C 145.61 22.91 146.87 27.01 149.49 28.55 C 153.69 31.19 157.33 34.67 160.44 38.52 C 164.19 45.45 168.46 52.12 171.00 59.64 L 171.00 63.66 C 168.38 61.15 167.70 57.35 165.28 54.68 C 160.23 49.00 154.66 43.51 147.69 40.25 C 141.41 37.89 134.55 35.43 127.90 37.94 C 133.54 34.23 140.53 36.95 146.37 38.73 C 154.89 41.49 160.49 48.79 167.27 54.14 C 166.39 50.73 164.68 47.61 162.37 44.95 C 159.81 37.16 152.97 31.57 145.85 28.00 C 146.38 26.90 145.74 24.49 144.16 25.20 C 143.22 26.45 144.98 27.42 145.85 28.00 C 146.55 29.06 147.22 30.13 147.91 31.20 C 146.37 30.49 144.88 29.67 143.75 28.39 C 142.55 28.52 141.35 28.65 140.16 28.78 C 140.02 27.59 139.88 26.40 139.76 25.20 L 139.09 25.28 C 132.06 24.77 124.99 25.06 117.94 25.03 C 111.61 25.14 105.71 27.49 100.06 30.12 C 102.52 27.56 105.89 26.27 109.25 25.42 M 141.30 25.09 C 140.24 25.89 141.00 28.68 142.47 27.48 C 143.76 26.70 142.79 23.85 141.30 25.09 Z" />
<path fill="#4a484c" opacity="1.00" d=" M 75.27 37.81 C 76.38 38.81 75.80 40.41 75.86 41.69 C 72.99 41.94 70.12 41.95 67.25 41.86 L 67.25 41.29 C 69.66 41.32 71.87 40.35 73.80 38.97 C 73.85 39.49 73.95 40.55 73.99 41.08 L 74.90 41.10 C 74.99 40.27 75.18 38.63 75.27 37.81 Z" />
<path fill="#4a484c" opacity="1.00" d=" M 62.26 45.16 C 63.47 45.82 63.40 46.49 62.03 47.18 C 60.78 46.51 60.86 45.84 62.26 45.16 Z" />
</g>
<g id="#dad7e7ff">
<path fill="#dad7e7" opacity="1.00" d=" M 100.06 30.12 C 105.71 27.49 111.61 25.14 117.94 25.03 C 124.99 25.06 132.06 24.77 139.09 25.28 C 138.34 25.83 137.57 26.38 136.81 26.93 C 136.38 27.01 135.51 27.18 135.08 27.26 C 128.34 27.64 121.50 26.67 114.84 27.85 C 113.38 28.32 111.99 28.98 110.53 29.42 C 108.50 29.82 106.23 29.09 104.47 30.49 C 97.30 35.40 91.14 41.76 86.40 49.05 C 84.29 48.67 83.35 46.70 84.81 44.97 C 85.62 43.70 86.45 42.44 87.23 41.15 C 88.72 39.39 90.35 37.76 92.04 36.20 C 93.44 36.27 94.77 35.48 95.18 34.11 C 95.34 33.80 95.65 33.18 95.80 32.87 C 97.17 33.21 98.40 32.18 99.06 31.07 C 99.31 30.83 99.81 30.36 100.06 30.12 Z" />
<path fill="#dad7e7" opacity="1.00" d=" M 144.16 25.20 C 145.74 24.49 146.38 26.90 145.85 28.00 C 144.98 27.42 143.22 26.45 144.16 25.20 Z" />
<path fill="#dad7e7" opacity="1.00" d=" M 5.48 33.79 C 6.30 32.91 7.14 32.04 8.04 31.23 C 7.01 35.48 4.61 39.21 3.29 43.35 C 2.06 48.52 2.74 53.88 2.98 59.11 C 2.93 59.61 2.83 60.61 2.77 61.11 C 1.21 56.93 1.59 52.39 1.31 48.02 C 0.82 42.96 2.77 37.97 5.48 33.79 Z" />
<path fill="#dad7e7" opacity="1.00" d=" M 84.13 52.80 C 85.29 54.96 86.90 56.81 88.99 58.11 C 94.69 62.72 94.01 70.37 95.28 76.84 C 94.88 77.48 94.09 78.76 93.69 79.39 C 93.29 79.38 92.49 79.37 92.08 79.36 C 89.81 78.00 88.63 75.57 87.56 73.26 C 87.73 70.40 87.97 67.56 88.00 64.70 C 86.06 66.43 84.62 68.60 82.78 70.42 C 78.14 71.17 73.85 68.68 71.53 64.73 C 72.24 63.04 73.04 61.39 73.76 59.71 C 75.67 59.70 77.62 59.85 79.51 59.44 C 81.95 58.02 82.84 55.14 84.13 52.80 Z" />
</g>
<g id="#91799cff">
<path fill="#91799c" opacity="1.00" d=" M 139.09 25.28 L 139.76 25.20 C 139.88 26.40 140.02 27.59 140.16 28.78 C 141.35 28.65 142.55 28.52 143.75 28.39 C 144.88 29.67 146.37 30.49 147.91 31.20 C 153.80 34.56 157.46 40.47 162.37 44.95 C 164.68 47.61 166.39 50.73 167.27 54.14 C 160.49 48.79 154.89 41.49 146.37 38.73 C 140.53 36.95 133.54 34.23 127.90 37.94 C 127.43 38.19 126.49 38.70 126.01 38.95 C 125.50 39.22 124.47 39.77 123.95 40.05 C 123.06 41.14 122.16 42.22 121.28 43.31 C 115.40 45.17 108.47 42.47 102.93 45.96 C 102.45 46.20 101.49 46.68 101.01 46.92 C 100.53 47.25 99.57 47.89 99.08 48.21 C 97.72 49.26 96.33 50.27 94.91 51.24 C 94.68 50.68 94.23 49.57 94.01 49.01 C 96.12 43.84 100.80 40.24 105.46 37.45 C 108.31 35.66 111.73 36.73 114.83 37.02 C 114.80 35.28 114.07 33.38 114.76 31.72 C 116.32 30.33 118.18 29.35 119.95 28.27 C 118.25 28.11 116.55 27.94 114.84 27.85 C 121.50 26.67 128.34 27.64 135.08 27.26 C 134.21 30.59 140.14 28.90 136.81 26.93 C 137.57 26.38 138.34 25.83 139.09 25.28 Z" />
</g>
<g id="#d6d3e4ff">
<path fill="#d6d3e4" opacity="1.00" d=" M 141.30 25.09 C 142.79 23.85 143.76 26.70 142.47 27.48 C 141.00 28.68 140.24 25.89 141.30 25.09 Z" />
</g>
<g id="#dedbecff">
<path fill="#dedbec" opacity="1.00" d=" M 63.97 26.08 C 65.27 28.05 66.20 30.22 66.94 32.45 C 69.98 32.44 73.54 33.54 76.10 31.36 C 77.95 30.69 79.37 27.94 81.47 28.76 C 81.10 29.35 80.37 30.52 80.00 31.11 C 75.77 36.54 79.84 43.00 81.28 48.63 C 79.01 48.28 76.91 49.28 74.75 49.79 C 71.71 50.14 68.52 49.44 65.61 50.69 C 64.25 51.10 63.15 52.03 62.05 52.89 C 61.57 53.14 60.61 53.64 60.12 53.89 C 58.06 51.91 54.90 49.36 57.21 46.32 C 57.95 44.88 58.73 43.46 59.48 42.03 C 61.68 41.91 64.82 43.99 66.10 41.33 C 64.38 40.80 61.89 40.89 61.23 38.79 C 61.43 37.60 61.86 36.46 62.26 35.32 C 63.74 32.44 63.58 29.20 63.97 26.08 M 75.27 37.81 C 75.18 38.63 74.99 40.27 74.90 41.10 L 73.99 41.08 C 73.95 40.55 73.85 39.49 73.80 38.97 C 71.87 40.35 69.66 41.32 67.25 41.29 L 67.25 41.86 C 70.12 41.95 72.99 41.94 75.86 41.69 C 75.80 40.41 76.38 38.81 75.27 37.81 M 62.26 45.16 C 60.86 45.84 60.78 46.51 62.03 47.18 C 63.40 46.49 63.47 45.82 62.26 45.16 Z" />
</g>
<g id="#121d24b9">
<path fill="#121d24" opacity="0.73" d=" M 76.10 31.36 C 77.75 29.20 79.64 27.17 82.12 25.96 C 81.95 26.90 81.73 27.83 81.47 28.76 C 79.37 27.94 77.95 30.69 76.10 31.36 Z" />
</g>
<g id="#031823ff">
<path fill="#031823" opacity="1.00" d=" M 6.92 27.71 C 8.01 26.53 10.50 26.43 11.01 28.23 C 9.60 28.42 8.24 28.25 6.92 27.71 Z" />
</g>
<g id="#8d7797ff">
<path fill="#8d7797" opacity="1.00" d=" M 13.87 27.94 C 18.82 26.72 23.96 27.66 29.00 27.38 C 35.72 27.70 42.78 26.32 49.18 28.98 C 53.30 30.59 56.61 33.62 59.90 36.48 C 60.49 36.19 61.67 35.61 62.26 35.32 C 61.86 36.46 61.43 37.60 61.23 38.79 C 61.89 40.89 64.38 40.80 66.10 41.33 C 64.82 43.99 61.68 41.91 59.48 42.03 C 58.73 43.46 57.95 44.88 57.21 46.32 C 55.22 46.33 53.24 46.39 51.26 46.45 C 50.51 45.62 49.75 44.82 48.98 44.02 C 47.92 40.89 47.39 37.38 45.11 34.85 C 43.01 33.27 40.44 32.52 38.11 31.38 C 39.36 31.10 40.61 30.81 41.88 30.61 C 44.85 31.67 48.30 31.20 50.93 33.12 C 54.18 35.25 56.39 38.82 60.22 40.05 C 60.12 37.00 57.28 35.52 55.20 33.79 C 50.66 30.13 44.90 27.89 39.03 28.00 C 31.47 28.09 23.88 27.70 16.35 28.53 C 15.73 28.38 14.49 28.08 13.87 27.94 Z" />
</g>
<g id="#5d5962ff">
<path fill="#5d5962" opacity="1.00" d=" M 135.08 27.26 C 135.51 27.18 136.38 27.01 136.81 26.93 C 140.14 28.90 134.21 30.59 135.08 27.26 Z" />
</g>
<g id="#7f7d86ff">
<path fill="#7f7d86" opacity="1.00" d=" M 0.00 33.51 C 2.18 31.43 4.44 29.43 6.92 27.71 C 8.24 28.25 9.60 28.42 11.01 28.23 C 11.73 28.15 13.16 28.01 13.87 27.94 C 14.49 28.08 15.73 28.38 16.35 28.53 C 14.77 28.79 13.21 29.09 11.64 29.36 C 11.29 29.25 10.60 29.04 10.26 28.94 C 10.45 29.47 10.83 30.53 11.02 31.06 C 10.06 31.04 8.80 30.28 8.04 31.23 C 7.14 32.04 6.30 32.91 5.48 33.79 C 5.14 33.58 4.47 33.15 4.13 32.93 C 3.82 33.39 3.20 34.30 2.90 34.76 C 2.17 34.81 0.72 34.91 0.00 34.97 L 0.00 33.51 Z" />
</g>
<g id="#dedaebff">
<path fill="#dedaeb" opacity="1.00" d=" M 16.35 28.53 C 23.88 27.70 31.47 28.09 39.03 28.00 C 44.90 27.89 50.66 30.13 55.20 33.79 C 57.28 35.52 60.12 37.00 60.22 40.05 C 56.39 38.82 54.18 35.25 50.93 33.12 C 48.30 31.20 44.85 31.67 41.88 30.61 C 32.98 29.95 24.01 30.31 15.10 30.76 C 13.72 31.01 12.67 30.09 11.64 29.36 C 13.21 29.09 14.77 28.79 16.35 28.53 Z" />
</g>
<g id="#846e8cff">
<path fill="#846e8c" opacity="1.00" d=" M 110.53 29.42 C 111.99 28.98 113.38 28.32 114.84 27.85 C 116.55 27.94 118.25 28.11 119.95 28.27 C 118.18 29.35 116.32 30.33 114.76 31.72 C 114.07 33.38 114.80 35.28 114.83 37.02 C 111.73 36.73 108.31 35.66 105.46 37.45 C 100.80 40.24 96.12 43.84 94.01 49.01 C 94.23 49.57 94.68 50.68 94.91 51.24 C 94.45 51.46 93.54 51.90 93.09 52.12 C 91.76 52.23 90.44 52.29 89.11 52.29 C 88.45 52.10 87.12 51.73 86.46 51.54 C 86.44 50.71 86.42 49.88 86.40 49.05 C 91.14 41.76 97.30 35.40 104.47 30.49 C 106.23 29.09 108.50 29.82 110.53 29.42 Z" />
</g>
<g id="#dbd8e8ff">
<path fill="#dbd8e8" opacity="1.00" d=" M 145.85 28.00 C 152.97 31.57 159.81 37.16 162.37 44.95 C 157.46 40.47 153.80 34.56 147.91 31.20 C 147.22 30.13 146.55 29.06 145.85 28.00 Z" />
<path fill="#dbd8e8" opacity="1.00" d=" M 64.84 65.88 C 69.78 64.92 70.54 58.79 73.73 55.58 C 73.73 56.08 73.75 57.08 73.75 57.58 C 72.18 60.77 71.10 64.24 69.17 67.24 C 66.60 69.95 62.14 69.12 59.53 66.89 C 61.28 66.46 63.06 66.18 64.84 65.88 Z" />
</g>
<g id="#937b9eff">
<path fill="#937b9e" opacity="1.00" d=" M 10.26 28.94 C 10.60 29.04 11.29 29.25 11.64 29.36 C 12.67 30.09 13.72 31.01 15.10 30.76 C 24.01 30.31 32.98 29.95 41.88 30.61 C 40.61 30.81 39.36 31.10 38.11 31.38 C 40.44 32.52 43.01 33.27 45.11 34.85 C 47.39 37.38 47.92 40.89 48.98 44.02 C 41.29 38.50 30.25 37.36 21.91 42.04 C 21.41 42.27 20.40 42.74 19.90 42.98 C 18.23 42.44 16.50 43.18 16.03 44.92 C 15.42 45.67 14.81 46.41 14.17 47.13 C 13.63 47.35 12.54 47.78 12.00 48.00 C 11.75 48.25 11.26 48.76 11.01 49.01 C 10.79 49.55 10.33 50.62 10.10 51.16 C 9.42 51.77 8.73 52.38 8.04 52.99 C 7.79 53.51 7.29 54.57 7.04 55.10 C 6.06 56.52 5.10 57.96 3.97 59.26 L 2.98 59.11 C 2.74 53.88 2.06 48.52 3.29 43.35 C 4.61 39.21 7.01 35.48 8.04 31.23 C 8.80 30.28 10.06 31.04 11.02 31.06 C 10.83 30.53 10.45 29.47 10.26 28.94 Z" />
</g>
<g id="#5c404eff">
<path fill="#5c404e" opacity="1.00" d=" M 81.28 48.63 C 79.84 43.00 75.77 36.54 80.00 31.11 C 79.36 33.64 78.56 36.21 78.83 38.85 C 80.39 40.84 82.35 42.46 83.97 44.40 C 85.05 43.31 86.15 42.24 87.23 41.15 C 86.45 42.44 85.62 43.70 84.81 44.97 C 84.13 44.99 82.79 45.01 82.11 45.02 C 81.89 48.28 81.35 51.89 78.08 53.48 C 78.76 52.19 79.47 50.91 80.15 49.63 C 76.67 49.64 75.18 52.98 73.73 55.58 C 70.54 58.79 69.78 64.92 64.84 65.88 C 64.91 65.23 65.06 63.95 65.13 63.31 C 63.48 63.58 61.82 63.85 60.16 64.08 C 60.08 63.59 59.92 62.61 59.84 62.12 C 61.70 62.43 63.90 63.03 65.44 61.53 C 67.50 59.44 68.51 56.62 69.97 54.12 C 70.59 53.08 71.28 52.09 71.98 51.10 C 69.85 50.99 67.73 50.83 65.61 50.69 C 68.52 49.44 71.71 50.14 74.75 49.79 C 76.91 49.28 79.01 48.28 81.28 48.63 M 66.22 63.20 C 66.82 63.79 66.82 63.79 66.22 63.20 Z" />
</g>
<g id="#02121abf">
<path fill="#02121a" opacity="0.75" d=" M 95.80 32.87 C 96.07 31.42 97.62 30.18 99.06 31.07 C 98.40 32.18 97.17 33.21 95.80 32.87 Z" />
</g>
<g id="#101e26e3">
<path fill="#101e26" opacity="0.89" d=" M 4.13 32.93 C 4.47 33.15 5.14 33.58 5.48 33.79 C 2.77 37.97 0.82 42.96 1.31 48.02 C 1.59 52.39 1.21 56.93 2.77 61.11 C 2.83 60.61 2.93 59.61 2.98 59.11 L 3.97 59.26 C 4.06 61.56 4.01 63.87 3.97 66.17 C 3.53 66.08 2.65 65.89 2.21 65.79 C 1.60 62.62 1.46 59.31 0.00 56.36 L 0.00 42.73 C 1.53 40.30 2.28 37.54 2.90 34.76 C 3.20 34.30 3.82 33.39 4.13 32.93 Z" />
</g>
<g id="#1a2a34ff">
<path fill="#1a2a34" opacity="1.00" d=" M 92.04 36.20 C 92.21 34.63 93.64 33.60 95.18 34.11 C 94.77 35.48 93.44 36.27 92.04 36.20 Z" />
</g>
<g id="#32353dfe">
<path fill="#32353d" opacity="1.00" d=" M 21.91 42.04 C 30.25 37.36 41.29 38.50 48.98 44.02 C 49.75 44.82 50.51 45.62 51.26 46.45 C 53.24 46.39 55.22 46.33 57.21 46.32 C 54.90 49.36 58.06 51.91 60.12 53.89 C 60.61 53.64 61.57 53.14 62.05 52.89 L 61.92 53.98 C 61.28 56.05 60.15 57.91 59.27 59.88 C 58.60 62.06 57.03 65.31 59.53 66.89 C 62.14 69.12 66.60 69.95 69.17 67.24 C 71.10 64.24 72.18 60.77 73.75 57.58 C 73.76 58.11 73.76 59.17 73.76 59.71 C 73.04 61.39 72.24 63.04 71.53 64.73 C 71.31 65.85 71.57 66.96 71.84 68.04 L 71.94 68.73 C 69.82 68.10 67.93 69.42 66.09 70.24 C 66.32 72.79 64.98 76.13 67.28 78.01 C 68.51 78.13 69.75 78.19 71.00 78.18 C 72.64 78.19 74.29 78.20 75.93 78.22 C 76.07 81.05 76.14 83.90 76.03 86.74 C 76.88 86.69 77.73 86.64 78.58 86.60 C 78.99 86.96 79.81 87.68 80.22 88.04 C 80.19 82.99 81.00 77.45 78.47 72.84 C 78.23 73.61 77.73 75.13 77.48 75.90 C 74.14 76.44 74.36 72.25 73.99 70.02 C 78.29 72.21 82.86 73.81 87.16 76.00 C 86.01 73.84 84.84 71.61 84.77 69.11 C 86.19 70.11 86.77 71.79 87.56 73.26 C 88.63 75.57 89.81 78.00 92.08 79.36 C 92.48 84.66 91.93 90.02 93.24 95.25 C 94.71 93.97 94.43 91.73 94.96 89.99 C 95.46 90.34 96.45 91.05 96.95 91.41 C 97.53 92.72 98.13 94.01 98.71 95.32 C 98.52 95.53 98.12 95.96 97.92 96.17 C 97.11 94.62 96.21 93.13 95.19 91.72 C 95.00 93.10 94.81 94.49 94.64 95.88 C 94.07 95.86 92.93 95.81 92.36 95.78 C 91.21 90.73 91.42 85.52 90.83 80.45 C 87.88 77.99 84.68 75.59 80.85 74.77 C 80.75 74.68 80.54 74.50 80.43 74.41 C 80.54 74.50 80.75 74.68 80.85 74.77 C 80.86 79.48 80.84 84.19 80.81 88.89 C 79.27 88.86 77.73 88.87 76.18 88.96 C 74.39 85.95 75.44 82.25 75.12 78.94 C 72.22 78.87 69.30 79.00 66.42 78.61 C 63.86 76.71 65.09 72.99 65.06 70.28 C 62.25 69.70 59.24 68.82 57.34 66.51 C 56.26 62.32 59.22 58.34 58.84 54.29 C 56.93 52.19 54.70 50.14 55.08 47.01 C 53.21 47.25 50.77 48.61 49.39 46.63 C 46.59 43.35 42.77 41.13 38.51 40.37 C 32.93 38.69 27.33 40.81 21.91 42.04 M 75.97 73.06 C 74.64 76.19 79.22 73.41 75.97 73.06 C 75.39 72.36 75.39 72.36 75.97 73.06 Z" />
</g>
<g id="#3b313fff">
<path fill="#3b313f" opacity="1.00" d=" M 123.95 40.05 C 124.47 39.77 125.50 39.22 126.01 38.95 C 125.50 39.22 124.47 39.77 123.95 40.05 Z" />
</g>
<g id="#4e4154ff">
<path fill="#4e4154" opacity="1.00" d=" M 16.03 44.92 C 16.50 43.18 18.23 42.44 19.90 42.98 C 19.16 44.35 17.63 45.40 16.03 44.92 Z" />
</g>
<g id="#3c3443ff">
<path fill="#3c3443" opacity="1.00" d=" M 102.93 45.96 C 108.47 42.47 115.40 45.17 121.28 43.31 C 120.77 44.13 120.27 44.96 119.79 45.80 C 114.29 44.22 108.41 44.49 102.93 45.96 Z" />
</g>
<g id="#afa8aeff">
<path fill="#afa8ae" opacity="1.00" d=" M 82.11 45.02 C 82.79 45.01 84.13 44.99 84.81 44.97 C 83.35 46.70 84.29 48.67 86.40 49.05 C 86.42 49.88 86.44 50.71 86.46 51.54 C 87.12 51.73 88.45 52.10 89.11 52.29 C 89.10 54.23 89.07 56.17 88.99 58.11 C 86.90 56.81 85.29 54.96 84.13 52.80 C 82.84 55.14 81.95 58.02 79.51 59.44 C 77.62 59.85 75.67 59.70 73.76 59.71 C 73.76 59.17 73.76 58.11 73.75 57.58 C 73.75 57.08 73.73 56.08 73.73 55.58 C 75.18 52.98 76.67 49.64 80.15 49.63 C 79.47 50.91 78.76 52.19 78.08 53.48 C 81.35 51.89 81.89 48.28 82.11 45.02 M 75.13 55.27 C 73.50 58.24 78.43 55.52 75.13 55.27 Z" />
</g>
<g id="#3c3341ff">
<path fill="#3c3341" opacity="1.00" d=" M 12.00 48.00 C 12.54 47.78 13.63 47.35 14.17 47.13 C 13.63 47.35 12.54 47.78 12.00 48.00 Z" />
</g>
<g id="#3d3341ff">
<path fill="#3d3341" opacity="1.00" d=" M 99.08 48.21 C 99.57 47.89 100.53 47.25 101.01 46.92 C 100.53 47.25 99.57 47.89 99.08 48.21 Z" />
</g>
<g id="#3d3342ff">
<path fill="#3d3342" opacity="1.00" d=" M 10.10 51.16 C 10.33 50.62 10.79 49.55 11.01 49.01 C 10.79 49.55 10.33 50.62 10.10 51.16 Z" />
</g>
<g id="#be7e86ff">
<path fill="#be7e86" opacity="1.00" d=" M 62.05 52.89 C 63.15 52.03 64.25 51.10 65.61 50.69 C 67.73 50.83 69.85 50.99 71.98 51.10 C 71.28 52.09 70.59 53.08 69.97 54.12 C 67.29 54.31 64.59 54.29 61.92 53.98 L 62.05 52.89 Z" />
</g>
<g id="#3f4147ff">
<path fill="#3f4147" opacity="1.00" d=" M 89.11 52.29 C 90.44 52.29 91.76 52.23 93.09 52.12 C 92.06 52.54 91.02 52.94 89.98 53.31 C 89.92 54.98 89.34 56.93 90.71 58.26 C 92.80 60.78 94.57 63.71 94.72 67.08 C 95.05 73.95 96.64 80.71 98.92 87.18 C 99.94 88.40 101.74 88.27 103.14 88.69 C 102.95 88.96 102.57 89.51 102.37 89.78 C 101.82 89.57 100.70 89.13 100.15 88.91 C 99.29 89.57 98.44 90.22 97.59 90.89 C 97.62 86.61 94.66 83.35 93.69 79.39 C 94.09 78.76 94.88 77.48 95.28 76.84 C 94.01 70.37 94.69 62.72 88.99 58.11 C 89.07 56.17 89.10 54.23 89.11 52.29 Z" />
</g>
<g id="#3d3442ff">
<path fill="#3d3442" opacity="1.00" d=" M 7.04 55.10 C 7.29 54.57 7.79 53.51 8.04 52.99 C 7.79 53.51 7.29 54.57 7.04 55.10 Z" />
</g>
<g id="#e79ea9ff">
<path fill="#e79ea9" opacity="1.00" d=" M 61.92 53.98 C 64.59 54.29 67.29 54.31 69.97 54.12 C 68.51 56.62 67.50 59.44 65.44 61.53 C 63.90 63.03 61.70 62.43 59.84 62.12 C 59.70 61.56 59.42 60.44 59.27 59.88 C 60.15 57.91 61.28 56.05 61.92 53.98 Z" />
</g>
<g id="#4c4a4eff">
<path fill="#4c4a4e" opacity="1.00" d=" M 75.13 55.27 C 78.43 55.52 73.50 58.24 75.13 55.27 Z" />
</g>
<g id="#745a62ff">
<path fill="#745a62" opacity="1.00" d=" M 59.27 59.88 C 59.42 60.44 59.70 61.56 59.84 62.12 C 59.92 62.61 60.08 63.59 60.16 64.08 C 61.82 63.85 63.48 63.58 65.13 63.31 C 65.06 63.95 64.91 65.23 64.84 65.88 C 63.06 66.18 61.28 66.46 59.53 66.89 C 57.03 65.31 58.60 62.06 59.27 59.88 Z" />
</g>
<g id="#f6f5f7ff">
<path fill="#f6f5f7" opacity="1.00" d=" M 66.22 63.20 C 66.82 63.79 66.82 63.79 66.22 63.20 Z" />
</g>
<g id="#b2acb5ff">
<path fill="#b2acb5" opacity="1.00" d=" M 71.53 64.73 C 73.85 68.68 78.14 71.17 82.78 70.42 C 84.62 68.60 86.06 66.43 88.00 64.70 C 87.97 67.56 87.73 70.40 87.56 73.26 C 86.77 71.79 86.19 70.11 84.77 69.11 C 84.84 71.61 86.01 73.84 87.16 76.00 C 82.86 73.81 78.29 72.21 73.99 70.02 C 73.26 69.38 72.54 68.72 71.84 68.04 C 71.57 66.96 71.31 65.85 71.53 64.73 Z" />
</g>
<g id="#dddaebff">
<path fill="#dddaeb" opacity="1.00" d=" M 66.09 70.24 C 67.93 69.42 69.82 68.10 71.94 68.73 C 71.81 71.89 71.44 75.04 71.00 78.18 C 69.75 78.19 68.51 78.13 67.28 78.01 C 64.98 76.13 66.32 72.79 66.09 70.24 Z" />
</g>
<g id="#9b959cff">
<path fill="#9b959c" opacity="1.00" d=" M 71.84 68.04 C 72.54 68.72 73.26 69.38 73.99 70.02 C 74.36 72.25 74.14 76.44 77.48 75.90 C 77.73 75.13 78.23 73.61 78.47 72.84 C 81.00 77.45 80.19 82.99 80.22 88.04 C 79.81 87.68 78.99 86.96 78.58 86.60 C 77.73 86.64 76.88 86.69 76.03 86.74 C 76.14 83.90 76.07 81.05 75.93 78.22 C 74.29 78.20 72.64 78.19 71.00 78.18 C 71.44 75.04 71.81 71.89 71.94 68.73 L 71.84 68.04 Z" />
</g>
<g id="#9c969dff">
<path fill="#9c969d" opacity="1.00" d=" M 92.08 79.36 C 92.49 79.37 93.29 79.38 93.69 79.39 C 94.66 83.35 97.62 86.61 97.59 90.89 L 96.95 91.41 C 96.45 91.05 95.46 90.34 94.96 89.99 C 94.43 91.73 94.71 93.97 93.24 95.25 C 91.93 90.02 92.48 84.66 92.08 79.36 Z" />
</g>
<g id="#c3bfccff">
<path fill="#c3bfcc" opacity="1.00" d=" M 97.59 90.89 C 98.44 90.22 99.29 89.57 100.15 88.91 C 100.70 89.13 101.82 89.57 102.37 89.78 C 102.04 90.33 101.38 91.43 101.05 91.98 C 100.79 92.52 100.26 93.58 99.99 94.11 C 99.67 94.41 99.03 95.02 98.71 95.32 C 98.13 94.01 97.53 92.72 96.95 91.41 L 97.59 90.89 Z" />
</g>
<g id="#504f54ff">
<path fill="#504f54" opacity="1.00" d=" M 99.99 94.11 C 100.26 93.58 100.79 92.52 101.05 91.98 C 100.79 92.52 100.26 93.58 99.99 94.11 Z" />
</g>
</svg>
