<?xml version="1.0" encoding="UTF-8" ?>
<!DOCTYPE svg PUBLIC "-//W3C//DTD SVG 1.1//EN" "http://www.w3.org/Graphics/SVG/1.1/DTD/svg11.dtd">
<svg width="120pt" height="120pt" viewBox="0 0 120 120" version="1.1" xmlns="http://www.w3.org/2000/svg">
<g id="#1e2824e8">
<path fill="#1e2824" opacity="0.91" d=" M 68.44 25.92 C 74.52 22.66 80.64 19.43 86.98 16.72 C 86.99 17.55 87.00 19.20 87.01 20.03 L 85.86 19.91 C 86.03 19.38 86.37 18.32 86.54 17.79 C 80.52 20.85 74.38 23.68 68.48 26.98 C 64.31 27.03 60.14 27.00 55.97 27.01 C 52.62 24.41 49.46 21.29 45.59 19.56 C 47.20 25.33 52.25 30.18 51.16 36.64 C 49.83 38.48 48.38 40.26 46.45 41.52 C 47.37 40.33 48.29 39.14 49.18 37.93 C 46.81 38.19 44.07 37.54 42.01 39.06 C 40.10 40.36 38.43 41.96 36.63 43.40 C 38.28 40.72 40.68 38.65 43.34 37.01 C 45.57 37.00 47.79 36.99 50.02 36.97 C 49.99 35.15 49.96 33.33 49.91 31.51 C 47.62 27.92 46.29 23.81 43.80 20.33 C 44.37 19.42 45.13 17.34 46.51 18.17 C 49.88 20.70 53.49 22.95 56.47 25.95 C 60.46 26.02 64.45 26.03 68.44 25.92 Z" />
</g>
<g id="#fffc4eff">
<path fill="#fffc4e" opacity="1.00" d=" M 68.48 26.98 C 74.38 23.68 80.52 20.85 86.54 17.79 C 86.37 18.32 86.03 19.38 85.86 19.91 C 84.31 22.57 80.91 23.93 80.19 27.10 L 80.09 26.63 C 80.01 26.25 79.85 25.51 79.77 25.13 C 76.83 27.03 73.77 28.82 71.20 31.24 C 69.13 33.22 68.09 35.95 66.79 38.45 C 65.75 39.21 64.69 39.95 63.62 40.67 C 62.11 41.31 60.66 42.08 59.28 42.97 C 59.72 43.12 60.59 43.41 61.03 43.55 C 61.80 43.57 63.34 43.59 64.11 43.61 C 62.97 45.88 61.83 48.26 59.76 49.86 C 60.03 48.53 60.98 45.79 59.31 45.24 C 58.38 46.57 58.84 48.36 59.32 49.77 C 58.61 49.56 57.20 49.13 56.49 48.91 C 56.65 46.72 56.78 44.53 56.91 42.34 C 55.30 41.26 53.70 40.17 52.13 39.05 C 51.57 39.95 51.02 40.85 50.47 41.75 C 51.34 41.73 52.21 41.72 53.09 41.72 C 53.23 43.14 54.66 44.16 56.05 43.97 C 55.60 45.98 55.06 47.96 54.42 49.92 C 54.20 48.26 54.00 46.60 53.82 44.93 C 51.37 43.80 48.48 43.42 46.45 41.52 C 48.38 40.26 49.83 38.48 51.16 36.64 C 52.25 30.18 47.20 25.33 45.59 19.56 C 49.46 21.29 52.62 24.41 55.97 27.01 C 60.14 27.00 64.31 27.03 68.48 26.98 Z" />
</g>
<g id="#fee747ff">
<path fill="#fee747" opacity="1.00" d=" M 71.20 31.24 C 73.77 28.82 76.83 27.03 79.77 25.13 C 79.85 25.51 80.01 26.25 80.09 26.63 C 78.94 28.38 77.31 29.73 75.89 31.25 C 75.57 32.40 74.81 33.29 73.91 34.06 L 73.29 34.69 C 73.10 35.68 72.94 36.68 72.80 37.68 C 74.53 39.04 76.27 40.38 78.07 41.64 C 77.74 41.91 77.07 42.45 76.74 42.72 C 73.06 43.43 69.34 44.25 65.96 45.91 C 63.21 47.67 62.58 51.38 60.02 53.32 C 58.23 53.87 56.34 53.16 54.51 53.10 C 54.23 53.43 53.65 54.10 53.37 54.43 C 51.79 56.32 50.44 58.40 48.84 60.27 C 46.09 65.92 47.95 72.37 46.08 78.25 C 45.44 77.15 44.77 76.08 44.09 75.00 C 42.72 75.22 41.35 75.44 39.98 75.72 L 39.36 75.83 C 45.90 72.00 45.94 63.88 48.43 57.57 C 48.54 57.47 48.77 57.27 48.88 57.18 C 52.05 55.06 54.46 52.09 56.49 48.91 C 57.20 49.13 58.61 49.56 59.32 49.77 L 59.76 49.86 C 61.83 48.26 62.97 45.88 64.11 43.61 C 64.30 43.45 64.67 43.13 64.86 42.97 L 65.18 42.41 C 65.97 41.21 66.52 39.87 66.79 38.45 C 68.09 35.95 69.13 33.22 71.20 31.24 Z" />
<path fill="#fee747" opacity="1.00" d=" M 87.19 53.28 C 88.47 52.69 90.40 54.53 89.95 55.85 C 88.63 56.30 86.95 54.59 87.19 53.28 Z" />
</g>
<g id="#655054ff">
<path fill="#655054" opacity="1.00" d=" M 73.29 34.69 L 73.91 34.06 C 73.92 34.84 73.93 36.42 73.94 37.21 C 78.14 37.21 82.34 37.21 86.55 37.20 C 89.38 39.89 94.29 40.37 95.67 44.39 C 96.21 46.53 95.89 48.78 95.96 50.96 L 94.80 51.00 L 94.84 50.40 C 94.89 49.53 94.98 47.80 95.02 46.93 C 94.72 44.16 92.96 42.08 90.52 40.88 C 89.95 41.27 88.82 42.06 88.26 42.46 L 88.12 42.78 C 87.66 43.83 87.26 44.91 86.94 46.01 C 86.61 49.36 88.73 52.03 90.84 54.34 C 91.00 55.46 91.15 56.59 91.30 57.71 C 91.99 56.12 92.58 54.42 93.76 53.09 C 93.80 53.55 93.89 54.46 93.93 54.92 C 98.43 55.60 101.76 59.86 100.84 64.43 C 100.25 65.67 99.81 66.98 99.33 68.27 C 98.67 65.95 98.10 63.61 97.70 61.23 C 97.90 60.58 98.10 59.92 98.31 59.27 C 98.04 58.93 97.50 58.25 97.23 57.91 C 93.41 57.95 89.37 58.74 86.74 61.74 C 87.27 61.95 88.33 62.37 88.86 62.57 C 91.00 61.65 93.25 61.06 95.57 60.80 C 94.90 61.17 93.57 61.92 92.91 62.29 C 93.41 63.13 93.92 63.97 94.44 64.80 C 94.78 64.85 95.46 64.95 95.80 64.99 L 97.67 65.21 C 94.43 66.33 91.08 67.43 88.47 69.76 C 91.65 70.95 94.81 69.13 97.92 68.60 L 98.02 69.73 C 96.55 69.89 94.90 69.86 94.05 71.32 C 94.37 73.09 94.84 74.83 95.15 76.60 C 94.60 77.01 93.51 77.83 92.96 78.24 C 92.50 77.83 91.57 77.01 91.11 76.60 C 91.15 75.85 91.25 74.35 91.30 73.60 L 92.15 74.37 C 92.47 74.97 93.12 76.16 93.44 76.76 C 95.28 76.02 93.82 72.90 92.15 74.37 C 92.16 73.80 92.17 72.65 92.18 72.07 C 90.32 72.13 88.71 71.50 87.65 69.94 C 88.61 69.06 89.58 68.17 90.55 67.30 C 90.28 64.56 87.36 63.69 85.63 61.99 C 86.66 61.01 87.69 60.02 88.72 59.04 C 86.64 56.81 84.00 55.26 81.72 53.26 C 80.63 52.88 79.55 52.47 78.48 52.04 C 77.29 52.72 76.10 53.40 74.93 54.11 C 72.99 52.23 71.23 50.12 70.43 47.48 C 68.41 49.08 66.21 50.47 64.27 52.17 C 65.38 53.74 66.67 55.18 67.83 56.72 C 68.53 57.96 69.18 59.23 69.84 60.50 C 71.05 59.26 72.27 58.02 73.41 56.72 C 72.99 58.06 72.55 59.40 71.99 60.70 C 73.73 61.68 75.09 64.83 73.02 66.06 C 73.73 64.07 72.46 62.10 70.41 61.78 C 69.99 61.61 69.14 61.27 68.71 61.11 L 68.00 60.85 C 69.34 66.76 68.12 73.13 70.85 78.71 C 71.77 83.11 74.65 86.69 77.23 90.24 C 73.77 91.88 74.09 96.06 73.88 99.27 C 74.98 98.45 76.08 97.64 77.19 96.84 C 76.47 97.88 75.74 98.91 75.00 99.94 C 76.04 100.60 77.08 101.25 78.14 101.88 C 79.14 103.10 82.15 101.84 80.85 100.27 C 80.41 100.18 79.53 99.98 79.09 99.88 C 79.59 99.69 80.58 99.30 81.08 99.11 C 80.11 98.25 79.15 97.39 78.19 96.53 C 78.24 96.14 78.35 95.38 78.40 94.99 C 79.76 96.97 81.12 98.95 82.45 100.95 C 84.97 100.92 87.50 100.87 90.02 101.01 C 90.51 101.21 91.50 101.62 92.00 101.82 C 92.00 101.21 92.00 99.98 92.00 99.37 L 91.43 98.99 C 87.16 96.75 85.96 91.73 82.93 88.31 C 83.35 88.07 83.78 87.83 84.21 87.60 C 83.87 85.83 84.92 84.42 85.87 83.07 C 85.47 81.74 85.09 80.41 84.72 79.07 C 84.16 79.04 83.03 78.98 82.47 78.95 C 81.17 78.30 79.85 77.70 78.54 77.07 C 77.06 75.01 75.60 72.94 74.20 70.83 C 75.48 72.14 76.71 73.51 78.07 74.75 C 79.61 76.32 82.11 76.28 83.50 78.11 C 84.05 78.12 85.16 78.15 85.71 78.16 C 86.23 80.19 86.37 83.13 88.97 83.53 C 88.98 83.88 89.01 84.59 89.03 84.95 C 87.59 84.95 86.15 84.96 84.71 84.96 C 85.34 86.13 87.02 87.03 86.78 88.50 C 84.87 90.27 87.27 92.26 88.08 93.91 C 89.07 95.92 90.91 97.12 92.71 98.33 C 93.06 99.93 92.98 101.59 93.08 103.23 C 89.41 102.28 84.89 100.57 81.46 102.93 C 79.82 102.92 78.18 102.86 76.55 102.79 C 75.55 102.01 74.52 101.25 73.47 100.53 C 73.17 100.08 72.57 99.18 72.27 98.73 C 73.49 96.38 73.31 93.62 74.19 91.14 C 73.98 90.72 73.54 89.87 73.33 89.45 C 73.25 88.40 73.19 87.36 73.13 86.31 C 72.15 85.42 71.19 84.53 70.22 83.64 C 70.16 81.87 70.46 79.95 69.33 78.42 C 69.31 77.85 69.26 76.70 69.24 76.13 C 68.07 75.30 66.83 74.52 65.51 75.61 C 64.03 76.15 62.75 74.47 61.48 73.94 C 60.85 73.92 59.59 73.88 58.95 73.86 C 59.27 73.44 59.89 72.61 60.21 72.19 C 59.38 70.72 58.57 69.25 57.76 67.77 C 57.04 68.72 56.30 69.66 55.55 70.58 L 54.64 71.43 C 55.49 69.87 56.41 68.34 57.41 66.87 C 56.57 65.93 55.72 65.00 54.88 64.07 C 55.69 63.08 56.55 62.12 57.25 61.04 C 57.10 58.34 54.93 56.41 53.37 54.43 C 53.65 54.10 54.23 53.43 54.51 53.10 C 56.34 53.16 58.23 53.87 60.02 53.32 C 62.58 51.38 63.21 47.67 65.96 45.91 C 69.34 44.25 73.06 43.43 76.74 42.72 C 77.07 42.45 77.74 41.91 78.07 41.64 C 76.27 40.38 74.53 39.04 72.80 37.68 C 72.94 36.68 73.10 35.68 73.29 34.69 M 75.77 38.19 C 76.82 38.94 77.89 39.67 78.95 40.40 C 78.96 41.05 78.99 42.34 79.00 42.99 C 76.47 43.79 73.93 44.55 71.38 45.26 C 72.19 47.88 73.65 50.18 75.89 51.80 C 79.01 50.64 82.30 49.78 85.15 48.00 C 86.04 45.27 86.43 42.20 88.87 40.32 C 85.27 37.06 80.18 38.07 75.77 38.19 M 80.95 51.37 C 82.83 52.48 84.54 53.83 86.23 55.20 C 86.00 54.51 85.54 53.14 85.31 52.45 C 85.21 51.80 85.03 50.49 84.93 49.83 C 83.60 50.34 82.28 50.87 80.95 51.37 M 86.26 51.24 C 86.77 51.75 86.77 51.75 86.26 51.24 M 62.96 53.96 C 63.41 54.41 63.41 54.41 62.96 53.96 C 62.53 53.53 62.53 53.53 62.96 53.96 M 87.19 53.28 C 86.95 54.59 88.63 56.30 89.95 55.85 C 90.40 54.53 88.47 52.69 87.19 53.28 M 55.72 55.63 C 56.05 55.72 56.71 55.91 57.05 56.01 C 57.64 57.84 57.68 60.06 59.08 61.49 C 61.76 61.84 64.80 62.04 66.97 60.12 C 65.79 59.05 64.66 57.91 63.26 57.13 L 64.17 57.19 C 63.05 56.28 61.90 55.41 60.74 54.55 C 59.06 54.90 57.39 55.25 55.72 55.63 M 65.90 56.90 C 66.31 57.31 66.31 57.31 65.90 56.90 C 65.52 56.52 65.52 56.52 65.90 56.90 M 94.33 56.28 C 94.80 56.81 94.80 56.81 94.33 56.28 M 67.26 59.22 C 67.80 59.78 67.80 59.78 67.26 59.22 M 56.12 63.61 C 59.59 66.95 60.47 72.49 65.20 74.52 C 65.95 74.27 67.45 73.79 68.20 73.55 C 67.56 73.52 66.27 73.45 65.62 73.41 C 67.25 70.48 68.67 67.24 66.62 64.10 C 66.78 63.59 67.10 62.55 67.26 62.03 C 63.63 62.54 58.94 60.63 56.12 63.61 M 92.10 64.24 C 90.65 67.33 95.35 64.35 92.10 64.24 Z" />
</g>
<g id="#8d7266ff">
<path fill="#8d7266" opacity="1.00" d=" M 42.01 39.06 C 44.07 37.54 46.81 38.19 49.18 37.93 C 48.29 39.14 47.37 40.33 46.45 41.52 C 45.89 41.96 45.33 42.39 44.77 42.82 C 47.80 43.85 50.69 45.29 53.28 47.18 C 52.91 48.73 52.53 50.29 52.13 51.84 C 46.22 50.64 40.79 47.80 36.63 43.40 C 38.43 41.96 40.10 40.36 42.01 39.06 Z" />
</g>
<g id="#907569ff">
<path fill="#907569" opacity="1.00" d=" M 75.77 38.19 C 80.18 38.07 85.27 37.06 88.87 40.32 C 86.43 42.20 86.04 45.27 85.15 48.00 C 82.30 49.78 79.01 50.64 75.89 51.80 C 73.65 50.18 72.19 47.88 71.38 45.26 C 73.93 44.55 76.47 43.79 79.00 42.99 C 78.99 42.34 78.96 41.05 78.95 40.40 C 77.89 39.67 76.82 38.94 75.77 38.19 Z" />
</g>
<g id="#3c3724f0">
<path fill="#3c3724" opacity="0.94" d=" M 52.13 39.05 C 53.70 40.17 55.30 41.26 56.91 42.34 C 56.78 44.53 56.65 46.72 56.49 48.91 C 54.46 52.09 52.05 55.06 48.88 57.18 C 49.84 55.74 51.02 54.48 52.19 53.22 C 51.50 52.96 50.11 52.43 49.42 52.17 C 48.60 53.11 47.72 53.24 46.77 52.57 C 45.46 51.55 44.10 50.58 42.69 49.70 C 41.15 51.41 39.54 53.05 37.91 54.67 C 38.88 55.93 39.86 57.17 40.80 58.45 C 40.47 59.53 40.10 60.59 39.76 61.66 C 39.19 61.98 38.04 62.61 37.46 62.92 C 36.80 62.94 35.49 62.97 34.83 62.98 L 35.36 61.83 C 36.54 60.97 37.90 60.41 39.20 59.75 C 38.36 58.18 38.23 55.58 35.93 55.58 C 33.92 55.91 32.01 56.61 30.07 57.22 C 29.94 57.89 29.66 59.22 29.52 59.89 C 30.06 60.28 31.12 61.05 31.65 61.44 L 31.91 62.17 L 31.91 62.17 C 29.86 62.08 27.81 61.97 25.76 61.93 L 25.78 61.90 C 27.44 60.30 28.45 58.25 29.30 56.15 L 30.99 55.68 C 31.39 55.57 32.18 55.37 32.57 55.26 C 33.03 55.14 33.95 54.89 34.41 54.76 C 35.53 54.38 36.66 54.03 37.81 53.73 C 39.29 52.27 40.74 50.80 42.22 49.34 C 39.30 48.31 36.34 45.89 35.79 42.69 L 36.63 43.40 C 40.79 47.80 46.22 50.64 52.13 51.84 C 52.53 50.29 52.91 48.73 53.28 47.18 C 50.69 45.29 47.80 43.85 44.77 42.82 C 45.33 42.39 45.89 41.96 46.45 41.52 C 48.48 43.42 51.37 43.80 53.82 44.93 C 54.00 46.60 54.20 48.26 54.42 49.92 C 55.06 47.96 55.60 45.98 56.05 43.97 L 56.19 43.37 C 55.42 42.26 54.39 41.71 53.09 41.72 C 52.21 41.72 51.34 41.73 50.47 41.75 C 51.02 40.85 51.57 39.95 52.13 39.05 Z" />
</g>
<g id="#4b411aff">
<path fill="#4b411a" opacity="1.00" d=" M 63.62 40.67 C 64.69 39.95 65.75 39.21 66.79 38.45 C 66.52 39.87 65.97 41.21 65.18 42.41 C 63.87 41.05 62.02 42.54 61.03 43.55 C 60.59 43.41 59.72 43.12 59.28 42.97 C 60.66 42.08 62.11 41.31 63.62 40.67 Z" />
<path fill="#4b411a" opacity="1.00" d=" M 31.91 62.17 L 31.91 62.17 C 32.05 62.65 32.31 63.60 32.44 64.08 C 33.40 63.31 34.37 62.55 35.36 61.83 L 34.83 62.98 C 34.35 64.18 33.57 65.27 32.44 65.92 C 29.87 66.52 26.54 66.22 25.09 68.94 C 23.95 68.92 22.80 68.90 21.66 68.89 C 22.56 67.86 23.46 66.84 24.35 65.81 C 22.92 65.11 21.48 64.42 20.03 63.75 C 20.08 63.62 20.18 63.36 20.23 63.23 C 24.07 63.48 29.14 66.10 31.91 62.17 Z" />
<path fill="#4b411a" opacity="1.00" d=" M 41.33 92.86 C 41.21 92.15 41.66 91.74 42.70 91.63 C 42.04 93.54 42.55 95.30 43.95 96.66 C 45.10 96.14 46.26 95.64 47.44 95.17 C 46.05 96.17 44.63 97.12 43.20 98.05 C 43.36 98.83 43.67 100.38 43.83 101.16 C 48.22 100.55 52.61 99.89 57.05 99.92 C 57.04 98.70 57.03 97.48 57.00 96.27 L 57.96 96.24 C 58.54 96.51 59.69 97.05 60.27 97.31 C 59.86 97.55 59.05 98.01 58.64 98.24 L 58.33 98.44 C 58.43 98.51 58.62 98.65 58.72 98.72 L 59.39 99.21 L 60.26 99.82 C 59.60 99.92 58.27 100.10 57.61 100.19 C 55.17 101.58 52.26 100.81 49.60 101.11 C 45.44 102.78 40.26 102.40 36.05 100.87 L 35.49 100.33 C 38.03 100.16 40.44 99.38 42.55 97.93 C 42.12 96.25 41.71 94.56 41.33 92.86 M 40.37 100.93 C 41.32 101.84 44.01 100.93 42.99 99.44 C 42.08 98.38 39.57 99.58 40.37 100.93 Z" />
</g>
<g id="#e4e4d9ff">
<path fill="#e4e4d9" opacity="1.00" d=" M 90.52 40.88 C 92.96 42.08 94.72 44.16 95.02 46.93 C 93.49 47.31 91.95 47.68 90.41 48.06 C 89.63 46.31 88.82 44.56 88.12 42.78 L 88.26 42.46 C 88.82 42.06 89.95 41.27 90.52 40.88 Z" />
<path fill="#e4e4d9" opacity="1.00" d=" M 53.09 41.72 C 54.39 41.71 55.42 42.26 56.19 43.37 L 56.05 43.97 C 54.66 44.16 53.23 43.14 53.09 41.72 Z" />
<path fill="#e4e4d9" opacity="1.00" d=" M 61.03 43.55 C 62.02 42.54 63.87 41.05 65.18 42.41 L 64.86 42.97 C 64.67 43.13 64.30 43.45 64.11 43.61 C 63.34 43.59 61.80 43.57 61.03 43.55 Z" />
<path fill="#e4e4d9" opacity="1.00" d=" M 21.78 45.38 C 22.06 43.27 24.14 42.84 25.90 42.86 C 26.66 43.85 27.42 44.85 28.15 45.87 C 26.75 46.65 25.34 47.42 23.94 48.18 C 23.22 47.25 22.49 46.32 21.78 45.38 Z" />
<path fill="#e4e4d9" opacity="1.00" d=" M 24.63 74.05 C 25.06 73.73 25.93 73.08 26.37 72.76 C 26.12 74.57 25.15 75.79 23.47 76.41 C 23.59 76.48 23.83 76.61 23.95 76.67 C 21.99 76.27 23.95 74.88 24.63 74.05 Z" />
<path fill="#e4e4d9" opacity="1.00" d=" M 92.15 74.37 C 93.82 72.90 95.28 76.02 93.44 76.76 C 93.12 76.16 92.47 74.97 92.15 74.37 Z" />
<path fill="#e4e4d9" opacity="1.00" d=" M 60.27 97.31 C 61.28 98.29 60.98 98.92 59.39 99.21 L 58.72 98.72 L 58.64 98.24 C 59.05 98.01 59.86 97.55 60.27 97.31 Z" />
<path fill="#e4e4d9" opacity="1.00" d=" M 40.37 100.93 C 39.57 99.58 42.08 98.38 42.99 99.44 C 44.01 100.93 41.32 101.84 40.37 100.93 Z" />
</g>
<g id="#2c322af6">
<path fill="#2c322a" opacity="0.96" d=" M 19.93 48.01 C 19.50 44.49 23.22 41.35 26.63 41.92 C 27.33 42.74 28.04 43.55 28.76 44.37 C 29.07 45.44 29.40 46.51 29.74 47.57 C 29.88 48.04 30.14 48.97 30.28 49.44 C 31.32 51.36 30.97 53.59 30.99 55.68 L 29.30 56.15 C 29.70 54.45 30.03 52.75 30.38 51.05 L 29.38 50.86 C 28.67 54.73 25.84 57.87 25.78 61.90 L 25.76 61.93 L 24.85 61.91 C 25.90 59.89 23.20 57.58 21.84 59.78 L 21.40 60.38 C 21.11 61.09 20.52 62.52 20.23 63.23 C 20.18 63.36 20.08 63.62 20.03 63.75 C 20.01 65.74 19.84 67.79 20.33 69.74 C 22.31 72.48 26.08 71.98 29.04 72.29 C 29.11 71.48 29.26 69.87 29.33 69.06 C 28.27 69.03 26.15 68.97 25.09 68.94 C 26.54 66.22 29.87 66.52 32.44 65.92 C 31.85 66.29 30.68 67.03 30.09 67.40 C 30.25 69.93 30.22 73.03 27.01 73.37 C 27.01 74.64 27.00 75.91 26.99 77.19 C 26.23 77.06 24.71 76.80 23.95 76.67 C 23.83 76.61 23.59 76.48 23.47 76.41 C 25.15 75.79 26.12 74.57 26.37 72.76 C 25.93 73.08 25.06 73.73 24.63 74.05 C 22.78 72.90 20.86 71.87 18.97 70.79 C 18.83 66.11 18.15 59.07 24.10 57.71 C 22.27 54.70 19.33 51.86 19.93 48.01 M 21.78 45.38 L 21.13 44.54 C 21.07 45.45 20.96 47.27 20.90 48.18 C 20.95 51.51 23.36 53.97 25.06 56.60 C 27.33 54.77 28.54 52.15 29.21 49.38 C 28.80 48.23 28.44 47.06 28.15 45.87 C 27.42 44.85 26.66 43.85 25.90 42.86 C 24.14 42.84 22.06 43.27 21.78 45.38 Z" />
</g>
<g id="#c6b023ff">
<path fill="#c6b023" opacity="1.00" d=" M 64.11 43.61 C 64.30 43.45 64.67 43.13 64.86 42.97 C 64.67 43.13 64.30 43.45 64.11 43.61 Z" />
</g>
<g id="#bfbfb0ff">
<path fill="#bfbfb0" opacity="1.00" d=" M 88.12 42.78 C 88.82 44.56 89.63 46.31 90.41 48.06 C 91.95 47.68 93.49 47.31 95.02 46.93 C 94.98 47.80 94.89 49.53 94.84 50.40 C 91.60 50.20 88.52 49.02 86.94 46.01 C 87.26 44.91 87.66 43.83 88.12 42.78 Z" />
</g>
<g id="#bcbcaeff">
<path fill="#bcbcae" opacity="1.00" d=" M 21.13 44.54 L 21.78 45.38 C 22.49 46.32 23.22 47.25 23.94 48.18 C 25.34 47.42 26.75 46.65 28.15 45.87 C 28.44 47.06 28.80 48.23 29.21 49.38 C 26.41 49.43 23.06 50.61 20.90 48.18 C 20.96 47.27 21.07 45.45 21.13 44.54 Z" />
</g>
<g id="#7e7016ff">
<path fill="#7e7016" opacity="1.00" d=" M 59.31 45.24 C 60.98 45.79 60.03 48.53 59.76 49.86 L 59.32 49.77 C 58.84 48.36 58.38 46.57 59.31 45.24 Z" />
</g>
<g id="#9c9c91ff">
<path fill="#9c9c91" opacity="1.00" d=" M 86.94 46.01 C 88.52 49.02 91.60 50.20 94.84 50.40 L 94.80 51.00 C 94.77 51.32 94.72 51.98 94.69 52.31 L 93.76 53.09 C 92.58 54.42 91.99 56.12 91.30 57.71 C 91.15 56.59 91.00 55.46 90.84 54.34 C 88.73 52.03 86.61 49.36 86.94 46.01 Z" />
</g>
<g id="#8a7064ff">
<path fill="#8a7064" opacity="1.00" d=" M 64.27 52.17 C 66.21 50.47 68.41 49.08 70.43 47.48 C 71.23 50.12 72.99 52.23 74.93 54.11 C 74.74 54.44 74.37 55.10 74.18 55.43 L 73.66 55.51 C 71.69 55.81 69.75 56.21 67.83 56.72 C 66.67 55.18 65.38 53.74 64.27 52.17 Z" />
</g>
<g id="#9e9e91ff">
<path fill="#9e9e91" opacity="1.00" d=" M 20.90 48.18 C 23.06 50.61 26.41 49.43 29.21 49.38 C 28.54 52.15 27.33 54.77 25.06 56.60 C 23.36 53.97 20.95 51.51 20.90 48.18 Z" />
</g>
<g id="#fff34bff">
<path fill="#fff34b" opacity="1.00" d=" M 42.69 49.70 C 44.10 50.58 45.46 51.55 46.77 52.57 C 45.84 53.43 44.84 54.16 43.75 54.77 C 42.71 55.06 42.01 55.72 41.67 56.73 C 41.45 57.16 41.01 58.02 40.80 58.45 C 39.86 57.17 38.88 55.93 37.91 54.67 C 39.54 53.05 41.15 51.41 42.69 49.70 Z" />
<path fill="#fff34b" opacity="1.00" d=" M 67.26 59.22 C 67.80 59.78 67.80 59.78 67.26 59.22 Z" />
</g>
<g id="#eed648ff">
<path fill="#eed648" opacity="1.00" d=" M 80.95 51.37 C 82.28 50.87 83.60 50.34 84.93 49.83 C 85.03 50.49 85.21 51.80 85.31 52.45 C 85.54 53.14 86.00 54.51 86.23 55.20 C 84.54 53.83 82.83 52.48 80.95 51.37 Z" />
</g>
<g id="#ffe747ff">
<path fill="#ffe747" opacity="1.00" d=" M 29.38 50.86 L 30.38 51.05 C 30.03 52.75 29.70 54.45 29.30 56.15 C 28.45 58.25 27.44 60.30 25.78 61.90 C 25.84 57.87 28.67 54.73 29.38 50.86 Z" />
<path fill="#ffe747" opacity="1.00" d=" M 82.93 88.31 C 85.96 91.73 87.16 96.75 91.43 98.99 C 91.08 99.50 90.37 100.50 90.02 101.01 C 87.50 100.87 84.97 100.92 82.45 100.95 C 81.12 98.95 79.76 96.97 78.40 94.99 C 78.35 95.38 78.24 96.14 78.19 96.53 C 79.15 97.39 80.11 98.25 81.08 99.11 C 80.58 99.30 79.59 99.69 79.09 99.88 C 78.85 100.38 78.38 101.38 78.14 101.88 C 77.08 101.25 76.04 100.60 75.00 99.94 C 75.74 98.91 76.47 97.88 77.19 96.84 C 76.08 97.64 74.98 98.45 73.88 99.27 C 74.09 96.06 73.77 91.88 77.23 90.24 C 79.48 91.39 81.15 89.36 82.93 88.31 Z" />
</g>
<g id="#bba341ff">
<path fill="#bba341" opacity="1.00" d=" M 86.26 51.24 C 86.77 51.75 86.77 51.75 86.26 51.24 Z" />
</g>
<g id="#8c7368ff">
<path fill="#8c7368" opacity="1.00" d=" M 55.72 55.63 C 57.39 55.25 59.06 54.90 60.74 54.55 C 61.90 55.41 63.05 56.28 64.17 57.19 L 63.26 57.13 C 61.16 56.90 59.08 56.58 57.05 56.01 C 56.71 55.91 56.05 55.72 55.72 55.63 Z" />
<path fill="#8c7368" opacity="1.00" d=" M 30.07 57.22 C 32.01 56.61 33.92 55.91 35.93 55.58 C 38.23 55.58 38.36 58.18 39.20 59.75 C 37.90 60.41 36.54 60.97 35.36 61.83 C 34.37 62.55 33.40 63.31 32.44 64.08 C 32.31 63.60 32.05 62.65 31.91 62.17 L 31.65 61.44 C 31.12 61.05 30.06 60.28 29.52 59.89 C 29.66 59.22 29.94 57.89 30.07 57.22 Z" />
</g>
<g id="#fffb4eff">
<path fill="#fffb4e" opacity="1.00" d=" M 62.96 53.96 C 63.41 54.41 63.41 54.41 62.96 53.96 Z" />
</g>
<g id="#837528ff">
<path fill="#837528" opacity="1.00" d=" M 41.67 56.73 C 42.01 55.72 42.71 55.06 43.75 54.77 C 44.03 56.48 43.34 57.13 41.67 56.73 Z" />
</g>
<g id="#584649ff">
<path fill="#584649" opacity="1.00" d=" M 57.05 56.01 C 59.08 56.58 61.16 56.90 63.26 57.13 C 64.66 57.91 65.79 59.05 66.97 60.12 C 64.80 62.04 61.76 61.84 59.08 61.49 C 57.68 60.06 57.64 57.84 57.05 56.01 Z" />
</g>
<g id="#5b494bff">
<path fill="#5b494b" opacity="1.00" d=" M 67.83 56.72 C 69.75 56.21 71.69 55.81 73.66 55.51 L 73.41 56.72 C 72.27 58.02 71.05 59.26 69.84 60.50 C 69.18 59.23 68.53 57.96 67.83 56.72 Z" />
</g>
<g id="#93796dff">
<path fill="#93796d" opacity="1.00" d=" M 94.33 56.28 C 94.80 56.81 94.80 56.81 94.33 56.28 Z" />
</g>
<g id="#fffa4dff">
<path fill="#fffa4d" opacity="1.00" d=" M 65.90 56.90 C 66.31 57.31 66.31 57.31 65.90 56.90 Z" />
<path fill="#fffa4d" opacity="1.00" d=" M 20.03 63.75 C 21.48 64.42 22.92 65.11 24.35 65.81 C 23.46 66.84 22.56 67.86 21.66 68.89 C 22.80 68.90 23.95 68.92 25.09 68.94 C 26.15 68.97 28.27 69.03 29.33 69.06 C 29.26 69.87 29.11 71.48 29.04 72.29 C 26.08 71.98 22.31 72.48 20.33 69.74 C 19.84 67.79 20.01 65.74 20.03 63.75 Z" />
</g>
<g id="#141e1cca">
<path fill="#141e1c" opacity="0.79" d=" M 45.24 63.44 C 46.04 61.39 46.30 58.75 48.43 57.57 C 45.94 63.88 45.90 72.00 39.36 75.83 C 40.76 73.66 42.48 71.73 43.88 69.56 C 43.96 69.05 44.12 68.02 44.20 67.50 C 44.77 66.21 44.99 64.82 45.24 63.44 Z" />
</g>
<g id="#fff54cff">
<path fill="#fff54c" opacity="1.00" d=" M 86.74 61.74 C 89.37 58.74 93.41 57.95 97.23 57.91 C 97.02 58.52 96.59 59.74 96.38 60.35 C 96.18 60.46 95.77 60.69 95.57 60.80 C 93.25 61.06 91.00 61.65 88.86 62.57 C 88.33 62.37 87.27 61.95 86.74 61.74 Z" />
</g>
<g id="#a8943bff">
<path fill="#a8943b" opacity="1.00" d=" M 97.23 57.91 C 97.50 58.25 98.04 58.93 98.31 59.27 C 98.10 59.92 97.90 60.58 97.70 61.23 C 97.10 62.50 96.45 63.75 95.80 64.99 C 95.46 64.95 94.78 64.85 94.44 64.80 C 93.92 63.97 93.41 63.13 92.91 62.29 C 93.57 61.92 94.90 61.17 95.57 60.80 C 95.77 60.69 96.18 60.46 96.38 60.35 C 96.59 59.74 97.02 58.52 97.23 57.91 Z" />
</g>
<g id="#837f27ff">
<path fill="#837f27" opacity="1.00" d=" M 21.84 59.78 C 23.20 57.58 25.90 59.89 24.85 61.91 L 24.29 61.91 C 23.36 61.33 22.54 60.62 21.84 59.78 Z" />
</g>
<g id="#fef14bff">
<path fill="#fef14b" opacity="1.00" d=" M 21.40 60.38 L 21.84 59.78 C 22.54 60.62 23.36 61.33 24.29 61.91 L 24.85 61.91 L 25.76 61.93 C 27.81 61.97 29.86 62.08 31.91 62.17 C 29.14 66.10 24.07 63.48 20.23 63.23 C 20.52 62.52 21.11 61.09 21.40 60.38 Z" />
</g>
<g id="#4e4628f9">
<path fill="#4e4628" opacity="0.98" d=" M 46.08 78.25 C 47.95 72.37 46.09 65.92 48.84 60.27 C 48.76 65.20 47.49 70.05 47.99 75.01 C 48.83 74.72 50.51 74.14 51.35 73.85 L 50.55 74.51 C 49.41 75.46 48.41 76.57 47.49 77.74 C 50.79 77.92 54.59 78.53 57.11 75.84 C 55.41 78.04 56.27 80.95 55.59 83.46 C 55.01 85.43 54.92 87.47 55.07 89.50 C 56.37 91.59 57.28 93.88 57.96 96.24 L 57.00 96.27 C 55.12 93.18 54.00 89.69 53.80 86.08 C 50.60 86.16 47.29 86.32 44.49 88.07 C 44.12 87.41 43.38 86.09 43.01 85.43 C 43.49 84.13 44.07 82.86 44.67 81.61 C 44.68 82.58 44.71 84.52 44.72 85.49 C 47.86 85.24 51.35 85.71 54.17 84.04 C 54.94 82.79 54.85 81.22 55.18 79.83 C 52.08 79.51 48.98 79.24 45.87 79.41 C 45.92 79.12 46.03 78.54 46.08 78.25 Z" />
</g>
<g id="#fff14aff">
<path fill="#fff14a" opacity="1.00" d=" M 68.00 60.85 L 68.71 61.11 C 69.75 66.63 71.57 72.33 76.23 75.87 C 74.70 75.60 73.16 75.42 71.62 75.24 C 71.42 76.11 71.04 77.84 70.85 78.71 C 68.12 73.13 69.34 66.76 68.00 60.85 Z" />
</g>
<g id="#635c1eff">
<path fill="#635c1e" opacity="1.00" d=" M 68.71 61.11 C 69.14 61.27 69.99 61.61 70.41 61.78 C 70.57 62.86 70.80 63.94 71.09 65.00 C 71.57 65.27 72.53 65.80 73.02 66.06 C 73.08 66.86 73.22 68.46 73.29 69.25 L 73.31 69.52 L 73.46 69.74 L 74.20 70.83 C 75.60 72.94 77.06 75.01 78.54 77.07 C 77.96 76.77 76.81 76.17 76.23 75.87 C 71.57 72.33 69.75 66.63 68.71 61.11 Z" />
</g>
<g id="#d6b94dff">
<path fill="#d6b94d" opacity="1.00" d=" M 56.12 63.61 C 58.94 60.63 63.63 62.54 67.26 62.03 C 67.10 62.55 66.78 63.59 66.62 64.10 C 63.12 64.67 59.56 64.39 56.12 63.61 Z" />
</g>
<g id="#d3b947ff">
<path fill="#d3b947" opacity="1.00" d=" M 70.41 61.78 C 72.46 62.10 73.73 64.07 73.02 66.06 C 72.53 65.80 71.57 65.27 71.09 65.00 C 70.80 63.94 70.57 62.86 70.41 61.78 Z" />
</g>
<g id="#fff44bff">
<path fill="#fff44b" opacity="1.00" d=" M 95.80 64.99 C 96.45 63.75 97.10 62.50 97.70 61.23 C 98.10 63.61 98.67 65.95 99.33 68.27 C 98.98 68.35 98.27 68.52 97.92 68.60 C 94.81 69.13 91.65 70.95 88.47 69.76 C 91.08 67.43 94.43 66.33 97.67 65.21 L 95.80 64.99 Z" />
</g>
<g id="#ffe849ff">
<path fill="#ffe849" opacity="1.00" d=" M 56.12 63.61 C 59.56 64.39 63.12 64.67 66.62 64.10 C 68.67 67.24 67.25 70.48 65.62 73.41 C 66.27 73.45 67.56 73.52 68.20 73.55 C 67.45 73.79 65.95 74.27 65.20 74.52 C 60.47 72.49 59.59 66.95 56.12 63.61 Z" />
</g>
<g id="#c8c8baff">
<path fill="#c8c8ba" opacity="1.00" d=" M 92.10 64.24 C 95.35 64.35 90.65 67.33 92.10 64.24 Z" />
</g>
<g id="#fff24bff">
<path fill="#fff24b" opacity="1.00" d=" M 55.55 70.58 C 56.30 69.66 57.04 68.72 57.76 67.77 C 58.57 69.25 59.38 70.72 60.21 72.19 C 59.89 72.61 59.27 73.44 58.95 73.86 C 58.43 74.60 57.81 75.26 57.11 75.84 C 54.59 78.53 50.79 77.92 47.49 77.74 C 48.41 76.57 49.41 75.46 50.55 74.51 L 51.35 73.85 C 52.44 73.03 53.61 72.33 54.64 71.43 L 55.55 70.58 Z" />
</g>
<g id="#071822ff">
<path fill="#071822" opacity="1.00" d=" M 73.29 69.25 C 73.33 69.38 73.42 69.62 73.46 69.74 L 73.31 69.52 L 73.29 69.25 Z" />
</g>
<g id="#ffffb9ff">
<path fill="#ffffb9" opacity="1.00" d=" M 39.98 75.72 C 41.35 75.44 42.72 75.22 44.09 75.00 C 44.77 76.08 45.44 77.15 46.08 78.25 C 46.03 78.54 45.92 79.12 45.87 79.41 C 45.57 79.96 44.97 81.06 44.67 81.61 C 44.07 82.86 43.49 84.13 43.01 85.43 C 42.86 86.06 42.57 87.31 42.42 87.94 L 41.92 88.05 C 40.23 88.41 38.16 89.01 36.69 87.76 C 35.19 86.38 33.80 84.88 32.30 83.50 C 32.23 82.99 32.09 81.96 32.03 81.45 C 33.07 79.67 34.35 77.86 36.62 77.74 C 37.12 77.44 38.14 76.83 38.64 76.52 L 39.85 75.78 L 39.98 75.72 Z" />
</g>
<g id="#ffffbdff">
<path fill="#ffffbd" opacity="1.00" d=" M 71.62 75.24 C 73.16 75.42 74.70 75.60 76.23 75.87 C 76.81 76.17 77.96 76.77 78.54 77.07 C 79.85 77.70 81.17 78.30 82.47 78.95 C 83.03 78.98 84.16 79.04 84.72 79.07 C 85.09 80.41 85.47 81.74 85.87 83.07 C 84.92 84.42 83.87 85.83 84.21 87.60 C 83.78 87.83 83.35 88.07 82.93 88.31 C 81.15 89.36 79.48 91.39 77.23 90.24 C 74.65 86.69 71.77 83.11 70.85 78.71 C 71.04 77.84 71.42 76.11 71.62 75.24 Z" />
</g>
<g id="#282f2ae7">
<path fill="#282f2a" opacity="0.91" d=" M 36.44 76.61 C 37.30 76.40 39.00 75.98 39.85 75.78 L 38.64 76.52 C 38.14 76.83 37.12 77.44 36.62 77.74 C 34.35 77.86 33.07 79.67 32.03 81.45 C 32.09 81.96 32.23 82.99 32.30 83.50 C 33.80 84.88 35.19 86.38 36.69 87.76 C 38.16 89.01 40.23 88.41 41.92 88.05 C 42.01 88.93 42.19 90.70 42.27 91.58 C 40.64 90.82 39.03 90.02 37.47 89.12 C 36.25 89.06 35.02 89.02 33.80 88.98 C 34.16 88.44 34.87 87.35 35.23 86.80 C 33.71 87.27 32.21 87.82 30.67 88.22 C 31.33 87.43 32.63 85.84 33.29 85.04 C 32.39 85.34 30.60 85.94 29.71 86.24 C 30.04 85.77 30.70 84.82 31.03 84.34 C 28.64 83.67 31.75 81.68 31.94 80.47 C 31.64 80.16 31.05 79.53 30.76 79.21 C 32.55 78.13 34.45 77.25 36.44 76.61 Z" />
</g>
<g id="#876f64ff">
<path fill="#876f64" opacity="1.00" d=" M 45.87 79.41 C 48.98 79.24 52.08 79.51 55.18 79.83 C 54.85 81.22 54.94 82.79 54.17 84.04 C 51.35 85.71 47.86 85.24 44.72 85.49 C 44.71 84.52 44.68 82.58 44.67 81.61 C 44.97 81.06 45.57 79.96 45.87 79.41 Z" />
</g>
<g id="#ffe848ff">
<path fill="#ffe848" opacity="1.00" d=" M 44.49 88.07 C 47.29 86.32 50.60 86.16 53.80 86.08 C 54.00 89.69 55.12 93.18 57.00 96.27 C 57.03 97.48 57.04 98.70 57.05 99.92 C 52.61 99.89 48.22 100.55 43.83 101.16 C 43.67 100.38 43.36 98.83 43.20 98.05 C 44.63 97.12 46.05 96.17 47.44 95.17 C 46.26 95.64 45.10 96.14 43.95 96.66 C 42.55 95.30 42.04 93.54 42.70 91.63 C 43.22 90.65 43.53 89.61 43.63 88.50 L 44.49 88.07 Z" />
<path fill="#ffe848" opacity="1.00" d=" M 58.33 98.44 L 58.64 98.24 L 58.72 98.72 C 58.62 98.65 58.43 98.51 58.33 98.44 Z" />
</g>
<g id="#ffeb49ff">
<path fill="#ffeb49" opacity="1.00" d=" M 39.30 94.87 C 39.81 94.37 40.82 93.36 41.33 92.86 C 41.71 94.56 42.12 96.25 42.55 97.93 C 40.44 99.38 38.03 100.16 35.49 100.33 C 35.45 99.53 35.37 97.95 35.33 97.16 C 36.41 96.58 37.50 96.03 38.59 95.50 L 39.30 94.87 Z" />
</g>
<g id="#3a4035e1">
<path fill="#3a4035" opacity="0.88" d=" M 32.57 97.73 C 34.71 96.54 36.68 94.72 39.30 94.87 L 38.59 95.50 C 37.50 96.03 36.41 96.58 35.33 97.16 C 35.37 97.95 35.45 99.53 35.49 100.33 L 36.05 100.87 C 34.35 100.96 32.66 101.01 30.96 101.06 C 30.99 100.45 31.05 99.23 31.08 98.63 L 32.02 99.41 C 33.77 101.90 37.00 98.21 33.34 97.95 L 32.57 97.73 Z" />
</g>
<g id="#fcfbebff">
<path fill="#fcfbeb" opacity="1.00" d=" M 33.34 97.95 C 37.00 98.21 33.77 101.90 32.02 99.41 C 32.35 99.05 33.01 98.31 33.34 97.95 Z" />
</g>
<g id="#fdfcecff">
<path fill="#fdfcec" opacity="1.00" d=" M 91.43 98.99 L 92.00 99.37 C 92.00 99.98 92.00 101.21 92.00 101.82 C 91.50 101.62 90.51 101.21 90.02 101.01 C 90.37 100.50 91.08 99.50 91.43 98.99 Z" />
</g>
<g id="#e1e0d2ff">
<path fill="#e1e0d2" opacity="1.00" d=" M 78.14 101.88 C 78.38 101.38 78.85 100.38 79.09 99.88 C 79.53 99.98 80.41 100.18 80.85 100.27 C 82.15 101.84 79.14 103.10 78.14 101.88 Z" />
</g>
</svg>
