<?xml version="1.0" encoding="UTF-8" ?>
<!DOCTYPE svg PUBLIC "-//W3C//DTD SVG 1.1//EN" "http://www.w3.org/Graphics/SVG/1.1/DTD/svg11.dtd">
<svg width="120pt" height="120pt" viewBox="0 0 120 120" version="1.1" xmlns="http://www.w3.org/2000/svg">
<g id="#1f2934f2">
<path fill="#1f2934" opacity="0.95" d=" M 33.31 17.14 C 35.49 16.38 37.69 15.65 39.96 15.26 C 41.50 15.62 43.04 15.99 44.61 16.19 C 45.57 16.75 46.51 17.32 47.46 17.90 C 47.98 17.95 49.02 18.06 49.54 18.12 C 51.94 19.41 54.29 20.82 56.58 22.32 C 57.52 22.78 58.47 23.24 59.41 23.71 C 59.91 23.96 60.92 24.44 61.43 24.69 C 66.46 26.42 69.26 31.13 71.90 35.41 C 71.97 35.92 72.11 36.93 72.18 37.44 C 73.95 40.99 72.59 45.24 73.00 49.08 L 71.94 48.95 C 73.20 42.51 71.50 35.72 67.28 30.70 C 64.21 26.37 58.71 25.29 54.49 22.48 C 50.01 19.53 44.90 17.67 39.72 16.35 C 38.32 16.68 36.91 16.97 35.50 17.26 C 34.55 17.76 33.61 18.26 32.66 18.75 C 31.60 19.29 30.55 19.86 29.52 20.46 C 30.32 18.87 31.84 18.00 33.31 17.14 Z" />
</g>
<g id="#b3a8c7ff">
<path fill="#b3a8c7" opacity="1.00" d=" M 35.50 17.26 C 36.91 16.97 38.32 16.68 39.72 16.35 C 44.90 17.67 50.01 19.53 54.49 22.48 C 58.71 25.29 64.21 26.37 67.28 30.70 C 71.50 35.72 73.20 42.51 71.94 48.95 C 71.65 49.88 71.33 50.80 70.98 51.72 C 70.61 52.83 69.88 53.51 68.79 53.78 C 67.66 54.00 67.00 54.66 66.78 55.78 C 66.58 56.89 65.92 57.57 64.82 57.84 C 63.84 58.14 62.93 58.58 62.08 59.16 L 61.93 59.74 C 61.70 60.04 61.22 60.63 60.98 60.93 C 60.51 61.14 59.57 61.58 59.10 61.80 C 58.58 62.79 57.80 63.48 56.77 63.86 C 55.82 64.18 54.91 64.61 54.06 65.15 L 53.84 65.68 C 53.39 66.57 52.91 67.45 52.40 68.31 C 50.84 67.78 49.30 67.22 47.73 66.71 C 48.62 64.20 49.42 61.65 50.10 59.07 C 55.50 58.46 61.61 56.26 63.43 50.57 C 60.01 51.87 56.78 54.32 52.94 54.03 C 49.96 53.96 47.68 51.69 44.94 50.79 C 41.94 51.53 39.16 53.41 35.95 53.06 C 33.35 53.40 31.74 51.09 29.96 49.65 C 29.93 51.41 29.90 53.18 29.86 54.94 C 31.66 57.01 33.97 58.46 36.74 58.73 L 37.94 59.00 C 37.68 61.09 37.44 63.18 37.19 65.27 C 35.87 65.26 34.56 65.25 33.24 65.23 C 30.82 60.61 26.80 56.94 25.15 51.91 C 23.50 47.99 24.02 43.63 24.20 39.49 C 24.46 40.17 24.97 41.51 25.23 42.19 C 25.03 44.43 24.80 46.68 24.69 48.94 C 26.68 47.35 28.79 45.92 30.97 44.61 L 31.04 44.56 C 31.75 47.14 33.40 49.25 35.08 51.27 C 38.23 51.48 41.23 50.61 43.02 47.86 C 43.02 46.98 43.04 46.10 43.08 45.22 C 43.25 44.55 43.58 43.19 43.74 42.51 C 44.44 43.52 45.13 44.52 45.82 45.53 C 46.56 44.56 47.32 43.61 48.10 42.67 C 48.31 43.07 48.74 43.88 48.95 44.28 C 47.42 47.31 48.81 51.04 52.18 51.95 C 56.85 52.46 61.48 49.26 63.45 45.10 C 65.91 46.54 67.85 48.63 68.45 51.51 C 68.89 50.65 69.33 49.79 69.77 48.93 C 69.84 48.23 69.97 46.82 70.03 46.11 C 70.08 44.64 70.15 43.16 70.23 41.69 C 70.15 41.27 69.99 40.43 69.90 40.00 C 69.60 39.41 69.00 38.23 68.70 37.64 L 68.49 37.20 C 68.30 36.83 67.93 36.09 67.74 35.72 C 67.68 35.60 67.55 35.36 67.49 35.25 C 64.18 28.09 55.51 26.74 48.72 24.73 C 48.18 24.73 47.08 24.74 46.53 24.74 C 46.34 24.33 45.95 23.53 45.76 23.12 C 45.75 23.84 45.71 25.26 45.69 25.97 C 42.73 27.24 39.49 27.26 36.33 27.12 C 36.60 26.84 37.13 26.28 37.40 26.00 C 38.61 25.66 39.81 25.31 41.01 24.95 L 41.84 24.75 L 42.30 23.91 C 42.54 23.46 43.01 22.57 43.24 22.13 C 42.84 22.22 42.04 22.41 41.63 22.50 C 41.17 21.25 40.64 20.04 40.03 18.85 C 37.81 17.48 35.05 18.48 32.66 18.75 C 33.61 18.26 34.55 17.76 35.50 17.26 Z" />
</g>
<g id="#d5c5daff">
<path fill="#d5c5da" opacity="1.00" d=" M 32.66 18.75 C 35.05 18.48 37.81 17.48 40.03 18.85 C 40.64 20.04 41.17 21.25 41.63 22.50 C 41.12 22.62 40.10 22.86 39.59 22.98 C 39.75 23.40 40.06 24.22 40.21 24.64 C 39.51 24.98 38.11 25.66 37.40 26.00 C 37.13 26.28 36.60 26.84 36.33 27.12 L 36.22 28.45 C 33.54 27.69 30.74 27.28 27.99 27.87 C 28.17 25.43 28.58 23.01 29.26 20.65 C 29.32 20.60 29.45 20.51 29.52 20.46 C 30.55 19.86 31.60 19.29 32.66 18.75 Z" />
</g>
<g id="#333230ff">
<path fill="#333230" opacity="1.00" d=" M 27.05 23.38 C 27.70 22.40 28.44 21.49 29.26 20.65 C 28.58 23.01 28.17 25.43 27.99 27.87 C 30.74 27.28 33.54 27.69 36.22 28.45 C 33.76 28.84 31.27 28.92 28.80 29.14 L 28.22 29.74 C 27.34 30.73 26.85 31.91 26.75 33.27 L 26.49 34.04 C 26.43 34.21 26.32 34.55 26.26 34.71 L 25.98 35.52 C 25.76 36.14 25.33 37.39 25.12 38.02 C 25.35 39.39 25.38 40.80 25.23 42.19 C 24.97 41.51 24.46 40.17 24.20 39.49 C 24.02 43.63 23.50 47.99 25.15 51.91 C 26.80 56.94 30.82 60.61 33.24 65.23 C 34.56 65.25 35.87 65.26 37.19 65.27 C 40.76 65.14 44.33 65.60 47.73 66.71 C 49.30 67.22 50.84 67.78 52.40 68.31 L 53.09 68.55 C 49.96 69.88 51.79 73.33 50.18 75.54 C 50.09 76.02 49.90 76.99 49.81 77.48 C 48.93 78.65 49.03 80.15 48.78 81.51 C 46.45 84.00 49.31 85.96 51.45 87.00 C 53.10 87.02 54.76 87.06 56.41 87.16 C 57.43 87.71 58.51 88.06 59.67 88.21 C 60.59 89.13 61.49 90.07 62.39 91.01 C 64.06 91.03 65.74 91.05 67.41 91.13 C 71.17 93.05 75.80 91.74 79.91 91.99 C 80.32 91.79 81.14 91.40 81.55 91.21 C 82.86 91.08 84.17 90.99 85.49 90.88 C 86.80 90.30 88.15 89.82 89.50 89.32 C 90.49 89.02 91.49 88.72 92.48 88.41 C 93.71 88.00 94.90 87.51 96.06 86.93 C 96.06 87.63 96.04 89.03 96.03 89.74 L 95.77 89.69 C 92.23 88.65 88.92 90.85 85.60 91.75 C 77.95 93.84 70.01 93.01 62.28 92.01 C 62.02 91.98 61.49 91.93 61.23 91.90 C 60.47 90.95 59.67 90.03 58.88 89.11 C 54.90 88.41 50.83 87.92 47.08 86.30 C 41.37 87.50 35.50 87.52 29.72 86.89 C 31.76 94.25 37.82 100.36 45.17 102.42 C 49.01 102.76 52.87 102.36 56.72 102.63 C 55.76 104.69 53.29 103.76 51.55 104.16 C 50.36 105.35 48.65 105.17 47.44 104.15 C 46.13 104.03 44.81 103.95 43.50 103.85 C 41.51 102.70 39.40 101.77 37.40 100.62 C 34.44 98.51 32.28 95.53 30.29 92.53 C 30.00 91.50 29.70 90.47 29.40 89.44 C 29.03 88.41 28.62 87.40 28.16 86.42 C 27.52 80.66 28.65 74.94 30.29 69.44 C 30.85 68.08 31.37 66.71 31.93 65.36 C 29.63 61.24 26.04 57.96 24.30 53.53 C 24.06 52.45 23.68 51.42 23.16 50.44 C 23.27 46.81 22.32 42.90 23.75 39.46 C 24.15 37.43 24.66 35.43 25.28 33.46 C 27.55 30.55 27.13 26.84 27.05 23.38 M 32.42 66.27 C 32.14 67.42 31.74 68.54 31.22 69.61 C 31.13 70.10 30.95 71.09 30.86 71.58 C 30.58 72.21 30.03 73.45 29.76 74.07 C 31.50 74.10 33.25 74.12 34.99 74.14 C 37.30 74.53 39.64 74.80 41.97 75.05 C 44.31 75.71 46.65 76.36 48.96 77.11 C 50.19 74.37 49.82 71.18 51.40 68.57 C 49.62 67.95 47.84 67.33 46.05 66.76 C 42.80 65.86 39.42 65.70 36.08 65.56 C 34.86 65.80 33.64 66.03 32.42 66.27 M 30.41 74.94 C 30.10 75.60 29.47 76.91 29.16 77.56 C 29.03 80.20 29.04 82.83 29.02 85.47 C 34.70 87.09 40.90 87.33 46.59 85.66 C 47.49 83.00 48.41 80.25 48.07 77.40 C 42.34 75.72 36.41 74.51 30.41 74.94 Z" />
<path fill="#333230" opacity="1.00" d=" M 39.59 22.98 C 40.10 22.86 41.12 22.62 41.63 22.50 C 42.04 22.41 42.84 22.22 43.24 22.13 C 43.01 22.57 42.54 23.46 42.30 23.91 C 41.20 22.87 40.77 23.22 41.01 24.95 C 39.81 25.31 38.61 25.66 37.40 26.00 C 38.11 25.66 39.51 24.98 40.21 24.64 C 40.06 24.22 39.75 23.40 39.59 22.98 Z" />
<path fill="#333230" opacity="1.00" d=" M 45.76 23.12 C 45.95 23.53 46.34 24.33 46.53 24.74 C 47.08 24.74 48.18 24.73 48.72 24.73 C 47.55 26.21 45.39 27.69 45.92 29.83 C 46.82 32.88 47.15 36.04 47.00 39.22 C 50.71 36.79 53.89 33.03 58.60 32.66 C 55.25 36.16 51.24 38.97 48.10 42.67 C 47.32 43.61 46.56 44.56 45.82 45.53 C 45.13 44.52 44.44 43.52 43.74 42.51 C 41.37 38.87 38.10 35.96 35.30 32.66 C 39.12 34.05 42.15 36.79 45.25 39.32 C 44.69 36.19 44.16 33.05 43.75 29.90 C 39.91 29.45 36.19 31.35 32.39 30.50 C 34.34 30.10 36.40 29.94 38.08 28.78 C 39.75 29.13 41.54 29.33 43.16 28.67 C 41.86 27.33 39.87 27.71 38.27 28.16 C 37.76 28.24 36.73 28.38 36.22 28.45 L 36.33 27.12 C 39.49 27.26 42.73 27.24 45.69 25.97 C 45.71 25.26 45.75 23.84 45.76 23.12 M 44.86 27.25 C 45.40 27.81 45.40 27.81 44.86 27.25 Z" />
<path fill="#333230" opacity="1.00" d=" M 33.33 47.39 C 32.24 43.71 31.25 39.95 31.28 36.07 C 34.25 38.84 38.15 40.33 40.92 43.33 C 40.60 43.58 39.96 44.08 39.64 44.33 C 37.34 42.59 34.90 41.05 32.44 39.55 C 33.46 41.74 34.23 44.03 34.74 46.39 C 35.15 46.79 35.96 47.59 36.36 47.99 C 35.61 47.84 34.09 47.54 33.33 47.39 Z" />
</g>
<g id="#deccdfff">
<path fill="#deccdf" opacity="1.00" d=" M 41.01 24.95 C 40.77 23.22 41.20 22.87 42.30 23.91 L 41.84 24.75 L 41.01 24.95 Z" />
<path fill="#deccdf" opacity="1.00" d=" M 37.94 59.00 C 38.99 59.35 39.83 60.00 40.45 60.95 C 42.89 59.37 45.71 58.75 48.60 59.08 C 48.97 59.07 49.72 59.07 50.10 59.07 C 49.42 61.65 48.62 64.20 47.73 66.71 C 44.33 65.60 40.76 65.14 37.19 65.27 C 37.44 63.18 37.68 61.09 37.94 59.00 Z" />
</g>
<g id="#7d7583ff">
<path fill="#7d7583" opacity="1.00" d=" M 45.92 29.83 C 45.39 27.69 47.55 26.21 48.72 24.73 C 55.51 26.74 64.18 28.09 67.49 35.25 C 67.55 35.36 67.68 35.60 67.74 35.72 C 67.93 36.09 68.30 36.83 68.49 37.20 C 68.54 37.31 68.65 37.53 68.70 37.64 C 69.00 38.23 69.60 39.41 69.90 40.00 C 68.53 40.83 68.64 41.39 70.23 41.69 C 70.15 43.16 70.08 44.64 70.03 46.11 C 68.76 46.49 67.98 48.72 69.77 48.93 C 69.33 49.79 68.89 50.65 68.45 51.51 C 67.85 48.63 65.91 46.54 63.45 45.10 C 64.80 41.61 66.18 37.27 64.18 33.79 C 59.22 37.47 53.19 39.65 48.95 44.28 C 48.74 43.88 48.31 43.07 48.10 42.67 C 51.24 38.97 55.25 36.16 58.60 32.66 C 53.89 33.03 50.71 36.79 47.00 39.22 C 47.15 36.04 46.82 32.88 45.92 29.83 Z" />
<path fill="#7d7583" opacity="1.00" d=" M 36.22 28.45 C 36.73 28.38 37.76 28.24 38.27 28.16 L 38.08 28.78 C 36.40 29.94 34.34 30.10 32.39 30.50 C 36.19 31.35 39.91 29.45 43.75 29.90 C 44.16 33.05 44.69 36.19 45.25 39.32 C 42.15 36.79 39.12 34.05 35.30 32.66 C 38.10 35.96 41.37 38.87 43.74 42.51 C 43.58 43.19 43.25 44.55 43.08 45.22 C 39.65 40.45 34.27 37.95 29.65 34.57 C 30.41 36.68 31.09 38.92 30.47 41.18 C 30.67 42.30 30.87 43.43 31.04 44.56 L 30.97 44.61 C 28.79 45.92 26.68 47.35 24.69 48.94 C 24.80 46.68 25.03 44.43 25.23 42.19 C 25.38 40.80 25.35 39.39 25.12 38.02 C 25.33 37.39 25.76 36.14 25.98 35.52 L 26.26 34.71 C 26.32 34.55 26.43 34.21 26.49 34.04 L 26.75 33.27 C 28.08 32.73 30.08 30.96 28.22 29.74 L 28.80 29.14 C 31.27 28.92 33.76 28.84 36.22 28.45 Z" />
</g>
<g id="#9088a2ff">
<path fill="#9088a2" opacity="1.00" d=" M 44.86 27.25 C 45.40 27.81 45.40 27.81 44.86 27.25 Z" />
</g>
<g id="#a59bb8ff">
<path fill="#a59bb8" opacity="1.00" d=" M 38.27 28.16 C 39.87 27.71 41.86 27.33 43.16 28.67 C 41.54 29.33 39.75 29.13 38.08 28.78 L 38.27 28.16 Z" />
</g>
<g id="#a399b4ff">
<path fill="#a399b4" opacity="1.00" d=" M 28.22 29.74 C 30.08 30.96 28.08 32.73 26.75 33.27 C 26.85 31.91 27.34 30.73 28.22 29.74 Z" />
</g>
<g id="#b2a7c7ff">
<path fill="#b2a7c7" opacity="1.00" d=" M 26.26 34.71 C 26.32 34.55 26.43 34.21 26.49 34.04 C 26.43 34.21 26.32 34.55 26.26 34.71 Z" />
<path fill="#b2a7c7" opacity="1.00" d=" M 25.12 38.02 C 25.33 37.39 25.76 36.14 25.98 35.52 C 25.76 36.14 25.33 37.39 25.12 38.02 Z" />
</g>
<g id="#cf706aff">
<path fill="#cf706a" opacity="1.00" d=" M 29.65 34.57 C 34.27 37.95 39.65 40.45 43.08 45.22 C 43.04 46.10 43.02 46.98 43.02 47.86 C 41.23 50.61 38.23 51.48 35.08 51.27 C 33.40 49.25 31.75 47.14 31.04 44.56 C 30.87 43.43 30.67 42.30 30.47 41.18 C 31.09 38.92 30.41 36.68 29.65 34.57 M 33.33 47.39 C 34.09 47.54 35.61 47.84 36.36 47.99 C 37.46 46.78 38.55 45.55 39.64 44.33 C 39.96 44.08 40.60 43.58 40.92 43.33 C 38.15 40.33 34.25 38.84 31.28 36.07 C 31.25 39.95 32.24 43.71 33.33 47.39 Z" />
<path fill="#cf706a" opacity="1.00" d=" M 51.79 50.09 C 49.76 47.83 50.23 44.39 53.13 43.07 L 53.63 44.20 C 54.22 45.53 54.80 46.86 55.39 48.20 C 56.66 47.77 57.94 47.34 59.20 46.86 C 57.85 49.79 54.70 50.33 51.79 50.09 Z" />
</g>
<g id="#6b3632ff">
<path fill="#6b3632" opacity="1.00" d=" M 48.95 44.28 C 53.19 39.65 59.22 37.47 64.18 33.79 C 66.18 37.27 64.80 41.61 63.45 45.10 C 61.48 49.26 56.85 52.46 52.18 51.95 C 48.81 51.04 47.42 47.31 48.95 44.28 M 53.63 44.20 L 53.13 43.07 C 50.23 44.39 49.76 47.83 51.79 50.09 C 54.70 50.33 57.85 49.79 59.20 46.86 C 59.57 46.57 60.32 45.98 60.69 45.69 C 60.47 44.86 60.25 44.02 60.02 43.19 C 60.41 42.18 60.80 41.17 61.18 40.17 C 58.87 41.87 56.25 43.05 53.63 44.20 Z" />
</g>
<g id="#4c4352ff">
<path fill="#4c4352" opacity="1.00" d=" M 67.49 35.25 C 67.55 35.36 67.68 35.60 67.74 35.72 C 67.68 35.60 67.55 35.36 67.49 35.25 Z" />
</g>
<g id="#4b4251ff">
<path fill="#4b4251" opacity="1.00" d=" M 68.70 37.64 C 68.65 37.53 68.54 37.31 68.49 37.20 L 68.70 37.64 Z" />
</g>
<g id="#e7d18aff">
<path fill="#e7d18a" opacity="1.00" d=" M 32.44 39.55 C 34.90 41.05 37.34 42.59 39.64 44.33 C 38.55 45.55 37.46 46.78 36.36 47.99 C 35.96 47.59 35.15 46.79 34.74 46.39 C 34.23 44.03 33.46 41.74 32.44 39.55 Z" />
</g>
<g id="#ddc983ff">
<path fill="#ddc983" opacity="1.00" d=" M 53.63 44.20 C 56.25 43.05 58.87 41.87 61.18 40.17 C 60.80 41.17 60.41 42.18 60.02 43.19 C 60.25 44.02 60.47 44.86 60.69 45.69 C 60.32 45.98 59.57 46.57 59.20 46.86 C 57.94 47.34 56.66 47.77 55.39 48.20 C 54.80 46.86 54.22 45.53 53.63 44.20 Z" />
</g>
<g id="#524958ff">
<path fill="#524958" opacity="1.00" d=" M 70.23 41.69 C 68.64 41.39 68.53 40.83 69.90 40.00 C 69.99 40.43 70.15 41.27 70.23 41.69 Z" />
</g>
<g id="#574e5dff">
<path fill="#574e5d" opacity="1.00" d=" M 69.77 48.93 C 67.98 48.72 68.76 46.49 70.03 46.11 C 69.97 46.82 69.84 48.23 69.77 48.93 Z" />
</g>
<g id="#534d4dff">
<path fill="#534d4d" opacity="1.00" d=" M 29.96 49.65 C 31.74 51.09 33.35 53.40 35.95 53.06 C 39.16 53.41 41.94 51.53 44.94 50.79 C 47.68 51.69 49.96 53.96 52.94 54.03 C 56.78 54.32 60.01 51.87 63.43 50.57 C 61.61 56.26 55.50 58.46 50.10 59.07 C 49.72 59.07 48.97 59.07 48.60 59.08 C 48.51 55.84 45.32 52.90 42.03 53.85 C 39.31 54.09 38.05 56.72 36.74 58.73 C 33.97 58.46 31.66 57.01 29.86 54.94 C 29.90 53.18 29.93 51.41 29.96 49.65 Z" />
<path fill="#534d4d" opacity="1.00" d=" M 40.46 98.15 C 44.83 97.30 47.79 93.85 50.17 90.37 C 49.59 93.32 47.45 95.48 44.98 97.00 C 43.47 97.85 42.00 99.61 40.10 98.87 C 40.19 98.69 40.37 98.33 40.46 98.15 Z" />
</g>
<g id="#6f655cff">
<path fill="#6f655c" opacity="1.00" d=" M 36.74 58.73 C 38.05 56.72 39.31 54.09 42.03 53.85 C 45.32 52.90 48.51 55.84 48.60 59.08 C 45.71 58.75 42.89 59.37 40.45 60.95 C 39.83 60.00 38.99 59.35 37.94 59.00 L 36.74 58.73 Z" />
</g>
<g id="#645e6eff">
<path fill="#645e6e" opacity="1.00" d=" M 66.78 55.78 C 67.00 54.66 67.66 54.00 68.79 53.78 C 69.08 55.39 68.41 56.06 66.78 55.78 Z" />
</g>
<g id="#585362ff">
<path fill="#585362" opacity="1.00" d=" M 62.08 59.16 C 62.93 58.58 63.84 58.14 64.82 57.84 C 65.53 59.29 63.03 60.93 61.93 59.74 L 62.08 59.16 Z" />
</g>
<g id="#423e49ff">
<path fill="#423e49" opacity="1.00" d=" M 59.10 61.80 C 59.57 61.58 60.51 61.14 60.98 60.93 L 60.85 61.82 L 59.89 62.25 L 59.10 61.80 Z" />
</g>
<g id="#49434dff">
<path fill="#49434d" opacity="1.00" d=" M 54.06 65.15 C 54.91 64.61 55.82 64.18 56.77 63.86 C 57.57 65.36 54.91 66.97 53.84 65.68 L 54.06 65.15 Z" />
</g>
<g id="#bcb0cdff">
<path fill="#bcb0cd" opacity="1.00" d=" M 32.42 66.27 C 33.64 66.03 34.86 65.80 36.08 65.56 C 35.70 68.42 35.33 71.28 34.99 74.14 C 33.25 74.12 31.50 74.10 29.76 74.07 C 30.03 73.45 30.58 72.21 30.86 71.58 C 30.95 71.09 31.13 70.10 31.22 69.61 C 31.74 68.54 32.14 67.42 32.42 66.27 Z" />
</g>
<g id="#d5c6dbff">
<path fill="#d5c6db" opacity="1.00" d=" M 36.08 65.56 C 39.42 65.70 42.80 65.86 46.05 66.76 C 44.70 69.53 43.34 72.29 41.97 75.05 C 39.64 74.80 37.30 74.53 34.99 74.14 C 35.33 71.28 35.70 68.42 36.08 65.56 Z" />
</g>
<g id="#b7accbff">
<path fill="#b7accb" opacity="1.00" d=" M 46.05 66.76 C 47.84 67.33 49.62 67.95 51.40 68.57 C 49.82 71.18 50.19 74.37 48.96 77.11 C 46.65 76.36 44.31 75.71 41.97 75.05 C 43.34 72.29 44.70 69.53 46.05 66.76 Z" />
</g>
<g id="#bdb2ceff">
<path fill="#bdb2ce" opacity="1.00" d=" M 30.41 74.94 C 36.41 74.51 42.34 75.72 48.07 77.40 C 48.41 80.25 47.49 83.00 46.59 85.66 C 40.90 87.33 34.70 87.09 29.02 85.47 C 29.04 82.83 29.03 80.20 29.16 77.56 C 29.47 76.91 30.10 75.60 30.41 74.94 Z" />
</g>
<g id="#b2a8c8ff">
<path fill="#b2a8c8" opacity="1.00" d=" M 29.72 86.89 C 35.50 87.52 41.37 87.50 47.08 86.30 C 50.83 87.92 54.90 88.41 58.88 89.11 C 59.67 90.03 60.47 90.95 61.23 91.90 C 63.39 95.85 61.06 99.52 57.79 101.81 L 57.50 102.66 C 57.30 102.65 56.91 102.64 56.72 102.63 C 52.87 102.36 49.01 102.76 45.17 102.42 C 37.82 100.36 31.76 94.25 29.72 86.89 M 54.26 90.33 C 54.83 90.85 54.83 90.85 54.26 90.33 M 40.46 98.15 C 40.37 98.33 40.19 98.69 40.10 98.87 C 42.00 99.61 43.47 97.85 44.98 97.00 C 47.45 95.48 49.59 93.32 50.17 90.37 C 47.79 93.85 44.83 97.30 40.46 98.15 M 60.13 95.28 C 58.46 98.19 63.44 95.59 60.13 95.28 M 54.23 97.30 C 54.83 97.80 54.83 97.80 54.23 97.30 M 53.26 99.23 C 53.82 99.77 53.82 99.77 53.26 99.23 Z" />
<path fill="#b2a8c8" opacity="1.00" d=" M 63.81 93.02 C 65.22 93.56 66.68 93.95 68.15 94.28 C 67.44 95.50 67.66 96.45 68.81 97.12 C 68.82 96.44 68.83 95.08 68.84 94.40 C 70.66 94.70 72.48 94.96 74.30 95.24 C 74.23 95.93 74.10 97.29 74.04 97.97 C 70.49 97.94 66.94 97.94 63.39 98.01 C 63.23 96.33 63.16 94.62 63.81 93.02 Z" />
</g>
<g id="#c9bbd4ff">
<path fill="#c9bbd4" opacity="1.00" d=" M 85.60 91.75 C 88.92 90.85 92.23 88.65 95.77 89.69 C 94.02 90.59 92.24 91.44 90.52 92.41 C 89.33 92.91 88.14 93.41 86.91 93.79 C 85.58 94.20 84.26 94.62 82.93 95.04 C 82.59 94.79 81.89 94.29 81.55 94.03 C 80.36 96.69 77.41 96.88 74.89 97.09 C 74.79 96.14 74.60 94.25 74.50 93.30 C 74.45 93.79 74.35 94.76 74.30 95.24 C 72.48 94.96 70.66 94.70 68.84 94.40 L 68.15 94.28 C 66.68 93.95 65.22 93.56 63.81 93.02 C 63.42 92.77 62.66 92.27 62.28 92.01 C 70.01 93.01 77.95 93.84 85.60 91.75 Z" />
</g>
<g id="#5a535aff">
<path fill="#5a535a" opacity="1.00" d=" M 54.26 90.33 C 54.83 90.85 54.83 90.85 54.26 90.33 Z" />
</g>
<g id="#4e4954ff">
<path fill="#4e4954" opacity="1.00" d=" M 61.23 91.90 C 61.49 91.93 62.02 91.98 62.28 92.01 C 62.66 92.27 63.42 92.77 63.81 93.02 C 63.16 94.62 63.23 96.33 63.39 98.01 C 66.94 97.94 70.49 97.94 74.04 97.97 C 74.10 97.29 74.23 95.93 74.30 95.24 C 74.35 94.76 74.45 93.79 74.50 93.30 C 74.60 94.25 74.79 96.14 74.89 97.09 C 77.41 96.88 80.36 96.69 81.55 94.03 C 81.89 94.29 82.59 94.79 82.93 95.04 C 84.26 94.62 85.58 94.20 86.91 93.79 L 87.05 94.67 C 86.40 94.95 85.12 95.49 84.48 95.77 C 83.98 95.88 82.98 96.10 82.48 96.21 C 81.48 96.58 80.49 96.95 79.49 97.32 C 77.81 97.82 76.02 98.02 74.43 98.81 C 70.43 99.02 66.42 98.83 62.42 98.95 C 61.04 100.15 59.97 102.49 57.79 101.81 C 61.06 99.52 63.39 95.85 61.23 91.90 Z" />
</g>
<g id="#4e4853ff">
<path fill="#4e4853" opacity="1.00" d=" M 68.15 94.28 L 68.84 94.40 C 68.83 95.08 68.82 96.44 68.81 97.12 C 67.66 96.45 67.44 95.50 68.15 94.28 Z" />
</g>
<g id="#8c839dff">
<path fill="#8c839d" opacity="1.00" d=" M 60.13 95.28 C 63.44 95.59 58.46 98.19 60.13 95.28 Z" />
</g>
<g id="#484350ff">
<path fill="#484350" opacity="1.00" d=" M 54.23 97.30 C 54.83 97.80 54.83 97.80 54.23 97.30 Z" />
<path fill="#484350" opacity="1.00" d=" M 53.26 99.23 C 53.82 99.77 53.82 99.77 53.26 99.23 Z" />
</g>
</svg>
