<?xml version="1.0" encoding="UTF-8" ?>
<!DOCTYPE svg PUBLIC "-//W3C//DTD SVG 1.1//EN" "http://www.w3.org/Graphics/SVG/1.1/DTD/svg11.dtd">
<svg width="149pt" height="120pt" viewBox="0 0 149 120" version="1.1" xmlns="http://www.w3.org/2000/svg">
<g id="#22323dff">
<path fill="#22323d" opacity="1.00" d=" M 0.00 7.53 C 0.44 7.06 1.32 6.12 1.76 5.66 C 2.21 8.76 3.13 11.82 3.00 14.98 C 2.85 26.11 6.34 37.66 14.24 45.76 C 17.03 48.16 20.40 49.72 23.66 51.35 C 27.44 53.21 30.51 56.33 34.53 57.73 C 41.10 58.51 47.64 59.42 54.21 60.22 C 54.05 57.22 53.44 54.29 52.85 51.36 C 52.42 50.92 51.58 50.04 51.16 49.60 C 51.10 47.57 50.95 45.52 49.90 43.73 C 50.54 43.09 51.17 42.45 51.81 41.81 C 53.56 42.87 55.43 43.76 57.42 44.26 C 58.06 42.87 58.96 41.61 60.18 40.66 C 59.26 42.48 58.45 44.35 57.66 46.22 C 55.48 45.16 53.33 44.05 51.21 42.88 C 51.66 44.86 52.04 46.86 52.35 48.88 C 53.84 50.04 55.37 51.15 56.92 52.23 C 57.11 51.01 57.30 49.79 57.49 48.57 C 57.68 49.31 58.05 50.80 58.24 51.55 C 59.44 50.27 60.64 49.00 61.84 47.73 C 61.09 49.25 60.34 50.77 59.60 52.30 C 62.82 51.31 66.05 50.35 69.18 49.09 C 68.90 49.43 68.35 50.13 68.07 50.47 C 68.42 53.89 66.61 58.41 69.41 61.00 C 78.53 59.69 87.89 59.61 96.94 57.58 C 95.43 58.98 93.34 59.23 91.48 59.91 C 88.48 60.17 85.26 59.49 82.46 60.87 C 78.33 61.07 74.03 60.61 70.21 62.58 C 69.19 61.99 68.17 61.41 67.16 60.82 C 67.21 57.54 67.22 54.27 67.21 50.99 C 66.58 51.17 65.34 51.53 64.72 51.70 C 64.35 51.81 63.62 52.03 63.25 52.14 C 63.52 52.67 64.04 53.73 64.30 54.26 L 63.71 55.10 C 62.21 54.11 60.67 52.99 58.76 53.05 L 58.18 52.97 C 57.65 52.98 56.58 52.99 56.05 52.99 C 54.63 56.24 55.05 59.83 55.22 63.26 L 55.07 63.25 C 54.72 62.77 54.01 61.81 53.65 61.32 C 46.95 60.13 40.13 59.70 33.42 58.57 C 27.84 55.92 23.08 51.78 17.26 49.53 C 15.14 47.95 13.06 46.31 10.83 44.87 C 11.72 43.34 10.04 42.13 8.76 41.73 C 8.63 41.59 8.39 41.31 8.27 41.18 C 7.97 40.63 7.36 39.53 7.06 38.99 C 6.79 38.47 6.26 37.45 5.99 36.93 C 5.97 36.49 5.94 35.61 5.92 35.17 L 5.17 35.06 L 4.83 35.79 C 5.12 36.07 5.70 36.65 5.99 36.93 C 6.26 37.45 6.79 38.47 7.06 38.99 C 7.36 39.53 7.97 40.63 8.27 41.18 L 8.50 41.48 L 8.76 41.73 C 8.90 42.98 9.28 44.75 10.83 44.87 C 11.68 47.31 14.42 51.12 17.26 49.53 C 16.83 51.47 19.19 51.85 20.30 52.80 C 24.71 55.20 28.21 58.93 32.62 61.29 C 38.62 63.83 45.53 63.56 51.16 67.14 C 52.24 66.30 53.33 65.46 54.39 64.59 C 54.12 65.09 53.59 66.08 53.33 66.57 C 53.15 67.03 52.81 67.94 52.64 68.40 C 52.28 69.45 51.96 70.51 51.67 71.58 C 50.75 74.97 50.86 78.55 51.16 82.02 C 51.88 85.64 54.44 88.48 56.18 91.63 C 56.16 92.17 56.13 93.25 56.12 93.79 C 55.85 93.87 55.33 94.02 55.07 94.10 L 54.92 91.74 C 53.75 92.04 52.58 92.34 51.42 92.66 C 50.96 92.84 50.05 93.21 49.59 93.39 C 48.01 93.76 46.40 93.97 44.80 94.16 C 47.63 86.93 48.43 79.06 48.02 71.35 C 47.21 70.98 46.39 70.60 45.58 70.23 C 44.34 71.40 43.09 70.60 41.91 69.87 C 41.93 70.47 41.98 71.69 42.01 72.29 C 40.18 71.72 38.34 70.99 37.50 69.13 L 37.01 68.98 C 37.00 69.55 36.97 70.69 36.95 71.26 C 35.98 70.86 35.02 70.45 34.06 70.04 C 32.86 70.46 31.65 70.87 30.44 71.26 C 30.04 70.72 29.25 69.64 28.85 69.09 C 27.73 69.49 26.61 69.87 25.49 70.25 C 25.10 69.81 24.32 68.92 23.93 68.47 C 24.31 68.11 25.07 67.37 25.45 67.00 C 23.77 67.00 22.10 66.99 20.42 66.98 C 20.03 66.58 19.24 65.78 18.84 65.38 C 19.42 64.99 20.58 64.20 21.16 63.81 C 21.07 64.46 20.91 65.75 20.83 66.40 C 23.52 66.28 26.00 65.26 28.24 63.80 C 27.76 64.43 26.80 65.68 26.32 66.30 L 26.25 66.40 L 26.24 66.51 C 26.17 67.30 26.05 68.87 25.98 69.66 C 27.93 68.57 29.67 67.15 31.31 65.65 C 30.89 66.83 30.47 68.01 30.05 69.19 C 30.58 69.46 31.64 70.02 32.16 70.30 C 33.14 69.04 34.01 67.70 34.91 66.39 C 34.69 67.13 34.24 68.62 34.02 69.37 C 34.66 69.25 35.93 69.01 36.57 68.90 C 37.27 67.78 37.98 66.67 38.69 65.55 C 38.96 67.32 39.28 69.09 39.70 70.83 C 40.57 69.93 41.43 69.03 42.29 68.12 C 42.71 68.37 43.56 68.86 43.98 69.11 C 44.38 68.90 45.18 68.48 45.58 68.28 C 46.64 69.05 47.70 69.82 48.77 70.59 C 48.79 69.40 48.82 68.22 48.84 67.04 C 43.53 64.87 37.76 64.40 32.37 62.60 C 26.28 59.56 21.58 54.33 15.45 51.30 L 14.91 51.21 C 12.91 50.85 10.78 50.63 8.84 51.33 C 9.06 51.57 9.50 52.05 9.73 52.30 C 12.56 54.24 15.88 55.24 19.13 56.24 C 18.36 57.03 17.60 57.82 16.83 58.61 L 16.31 57.65 C 16.21 57.32 16.01 56.66 15.90 56.33 C 12.51 55.59 9.44 53.90 6.81 51.67 C 7.20 51.30 7.98 50.54 8.36 50.16 C 9.38 50.01 10.40 49.87 11.42 49.72 C 7.15 47.55 3.86 44.11 0.96 40.38 C 1.63 39.83 2.29 39.29 2.96 38.74 C 3.52 39.14 4.64 39.93 5.21 40.33 C 4.55 38.25 3.91 36.15 3.55 33.99 C 5.24 33.36 5.29 32.81 3.73 32.33 L 2.64 31.89 L 2.52 31.15 C 2.86 30.88 3.55 30.33 3.90 30.06 L 3.51 29.39 L 2.51 29.60 C 0.89 28.23 0.74 25.96 0.00 24.10 L 0.00 7.53 M 1.44 10.45 C 1.02 14.46 0.91 18.51 1.10 22.55 L 1.90 21.76 C 2.11 18.05 2.81 13.99 1.44 10.45 M 2.26 23.28 C 1.63 24.50 1.66 25.71 2.35 26.92 C 3.68 26.85 3.65 23.30 2.26 23.28 M 5.30 42.25 C 4.27 43.78 6.62 45.68 8.10 45.17 C 8.57 43.71 6.92 41.25 5.30 42.25 M 8.10 45.17 C 8.29 45.35 8.68 45.72 8.88 45.90 C 8.68 45.72 8.29 45.35 8.10 45.17 M 8.88 45.90 C 9.61 46.61 9.61 46.61 8.88 45.90 M 54.16 52.37 C 52.59 55.41 57.35 52.78 54.16 52.37 M 50.31 68.16 C 48.52 71.09 53.66 68.31 50.31 68.16 M 49.33 70.57 C 48.91 78.13 49.37 86.03 46.29 93.14 C 48.77 92.31 51.26 91.53 53.76 90.74 C 52.22 87.97 49.82 85.44 49.84 82.09 C 49.45 78.26 50.55 74.28 49.33 70.57 Z" />
<path fill="#22323d" opacity="1.00" d=" M 132.05 6.07 L 133.19 6.03 C 133.21 11.42 132.30 16.76 130.89 21.96 C 130.56 22.43 129.89 23.36 129.56 23.83 C 130.54 17.93 132.61 12.13 132.05 6.07 Z" />
<path fill="#22323d" opacity="1.00" d=" M 136.23 6.02 L 136.97 6.06 C 136.75 11.24 137.74 16.59 136.33 21.65 C 136.03 23.17 135.94 24.77 135.23 26.17 C 135.25 24.76 135.25 23.34 135.24 21.93 C 135.46 21.46 135.89 20.53 136.10 20.06 L 136.20 19.42 C 136.29 14.95 136.18 10.49 136.23 6.02 Z" />
<path fill="#22323d" opacity="1.00" d=" M 142.78 19.85 C 143.37 18.73 143.99 17.62 144.63 16.52 C 145.96 19.69 145.89 23.16 144.13 26.15 C 144.31 24.41 144.49 22.66 145.04 20.99 C 144.47 20.71 143.34 20.14 142.78 19.85 Z" />
<path fill="#22323d" opacity="1.00" d=" M 141.13 23.12 C 141.34 22.59 141.78 21.52 142.00 20.99 C 141.98 21.44 141.93 22.35 141.91 22.80 L 141.13 23.12 Z" />
<path fill="#22323d" opacity="1.00" d=" M 139.06 26.08 C 139.31 25.52 139.82 24.41 140.07 23.86 C 139.82 24.41 139.31 25.52 139.06 26.08 Z" />
<path fill="#22323d" opacity="1.00" d=" M 126.66 29.32 C 126.83 27.53 127.65 25.76 129.29 24.88 C 129.09 26.61 128.66 28.87 126.66 29.32 Z" />
<path fill="#22323d" opacity="1.00" d=" M 132.22 33.70 C 132.13 31.40 132.59 29.13 134.42 27.55 C 133.88 28.78 133.36 30.02 132.84 31.26 C 133.44 31.17 134.64 31.00 135.24 30.92 C 134.23 31.84 133.23 32.77 132.22 33.70 Z" />
<path fill="#22323d" opacity="1.00" d=" M 136.22 30.13 C 136.43 29.56 136.86 28.43 137.07 27.87 C 136.86 28.43 136.43 29.56 136.22 30.13 Z" />
<path fill="#22323d" opacity="1.00" d=" M 123.73 36.07 C 123.94 34.16 124.14 31.62 126.33 30.94 C 125.91 32.78 125.73 35.24 123.73 36.07 Z" />
<path fill="#22323d" opacity="1.00" d=" M 127.19 33.36 C 127.79 33.86 127.79 33.86 127.19 33.36 Z" />
<path fill="#22323d" opacity="1.00" d=" M 63.36 36.37 C 63.90 35.77 64.45 35.18 65.00 34.59 C 65.02 36.85 64.99 39.11 64.86 41.36 C 64.42 42.62 64.00 43.89 63.61 45.16 C 66.24 44.13 68.89 43.19 71.57 42.33 C 73.54 41.89 75.49 41.38 77.45 40.92 C 76.88 42.13 76.13 43.26 75.15 44.17 L 76.22 42.26 C 71.64 43.12 67.30 44.82 62.89 46.29 C 63.22 43.00 64.96 39.57 63.36 36.37 Z" />
<path fill="#22323d" opacity="1.00" d=" M 125.17 39.08 C 124.93 37.82 125.00 35.03 126.61 34.93 C 127.22 36.21 126.57 38.72 125.17 39.08 Z" />
<path fill="#22323d" opacity="1.00" d=" M 138.24 35.31 L 139.01 35.04 C 138.99 35.48 138.96 36.36 138.94 36.80 L 138.20 37.10 C 138.21 36.65 138.23 35.75 138.24 35.31 Z" />
<path fill="#22323d" opacity="1.00" d=" M 147.58 37.51 C 147.93 37.23 148.64 36.68 149.00 36.40 L 149.00 40.48 C 148.64 40.99 147.91 42.02 147.55 42.53 L 146.92 43.30 C 147.73 41.47 148.58 39.46 147.58 37.51 Z" />
<path fill="#22323d" opacity="1.00" d=" M 60.96 39.94 C 61.21 39.42 61.71 38.39 61.96 37.88 C 61.92 38.34 61.86 39.25 61.82 39.71 L 60.96 39.94 Z" />
<path fill="#22323d" opacity="1.00" d=" M 122.46 38.28 L 123.32 38.13 C 123.23 38.55 123.05 39.38 122.96 39.79 L 122.24 40.06 C 122.29 39.62 122.41 38.73 122.46 38.28 Z" />
<path fill="#22323d" opacity="1.00" d=" M 130.56 43.36 C 132.04 41.36 133.82 39.55 136.25 38.77 L 135.43 39.50 C 134.66 40.17 133.10 41.51 132.32 42.19 C 134.39 41.54 136.50 40.95 138.59 40.32 C 140.98 39.77 143.37 39.23 145.77 38.70 C 144.75 39.32 143.70 39.90 142.63 40.44 C 138.63 41.49 134.66 42.71 130.56 43.36 Z" />
<path fill="#22323d" opacity="1.00" d=" M 124.29 40.28 C 124.75 40.91 124.75 40.91 124.29 40.28 Z" />
<path fill="#22323d" opacity="1.00" d=" M 120.11 41.33 L 120.79 40.92 C 120.67 41.45 120.42 42.52 120.30 43.05 C 120.25 42.62 120.16 41.76 120.11 41.33 Z" />
<path fill="#22323d" opacity="1.00" d=" M 123.26 42.33 C 123.79 42.90 123.79 42.90 123.26 42.33 Z" />
<path fill="#22323d" opacity="1.00" d=" M 115.89 47.15 C 116.70 45.81 117.79 44.64 119.16 43.86 C 119.60 45.90 117.92 47.55 115.89 47.15 Z" />
<path fill="#22323d" opacity="1.00" d=" M 121.18 45.85 C 121.03 44.44 121.64 43.81 122.99 43.96 C 123.14 45.36 122.53 45.99 121.18 45.85 Z" />
<path fill="#22323d" opacity="1.00" d=" M 142.01 46.09 C 142.80 44.52 144.56 43.97 146.22 44.16 C 145.85 44.62 145.13 45.56 144.76 46.03 C 144.08 46.04 142.70 46.07 142.01 46.09 Z" />
<path fill="#22323d" opacity="1.00" d=" M 71.00 47.02 C 71.55 46.79 72.65 46.33 73.20 46.09 C 72.65 46.33 71.55 46.79 71.00 47.02 Z" />
<path fill="#22323d" opacity="1.00" d=" M 117.65 49.26 C 118.88 48.42 119.96 47.37 121.08 46.38 L 121.38 47.19 C 117.08 51.55 111.14 53.54 106.28 57.12 C 103.24 59.03 100.68 61.69 97.44 63.27 C 94.40 64.29 91.16 64.50 88.02 65.05 C 84.13 65.62 80.48 67.14 76.66 67.94 C 82.75 64.30 90.06 64.34 96.78 62.69 C 100.66 60.61 104.02 57.65 107.57 55.06 C 110.85 52.98 114.39 51.37 117.65 49.26 Z" />
<path fill="#22323d" opacity="1.00" d=" M 128.87 50.20 C 132.61 48.82 136.47 47.79 140.37 47.00 C 139.41 47.64 138.45 48.28 137.51 48.94 C 136.55 49.02 135.60 49.11 134.65 49.20 C 133.46 49.59 132.26 49.96 131.06 50.31 L 130.95 51.05 C 135.40 51.06 139.84 51.03 144.29 51.08 C 144.16 51.44 143.89 52.16 143.76 52.52 C 141.18 52.05 138.56 51.95 135.95 52.00 C 133.29 52.01 130.63 52.00 127.97 52.00 C 128.19 51.55 128.65 50.65 128.87 50.20 Z" />
<path fill="#22323d" opacity="1.00" d=" M 110.77 50.28 C 111.57 48.70 113.35 47.57 115.14 48.15 C 114.31 49.77 112.44 50.21 110.77 50.28 Z" />
<path fill="#22323d" opacity="1.00" d=" M 103.43 53.48 C 105.31 52.10 107.52 51.30 109.73 50.62 C 107.79 52.61 105.12 53.50 102.63 54.55 L 103.43 53.48 Z" />
<path fill="#22323d" opacity="1.00" d=" M 133.67 56.06 C 136.64 55.59 139.54 54.81 142.39 53.85 L 141.56 54.56 C 141.07 54.88 140.07 55.52 139.57 55.84 C 138.14 56.04 136.68 56.23 135.35 56.84 C 132.43 57.03 129.52 57.00 126.60 57.06 C 127.55 57.67 128.51 58.27 129.47 58.87 C 131.15 59.31 132.83 59.77 134.52 60.18 C 135.13 60.52 136.36 61.20 136.97 61.54 C 137.52 63.51 134.83 63.74 133.64 64.52 C 130.24 65.30 126.89 63.31 123.41 64.02 C 124.90 65.10 127.08 65.54 128.12 67.05 C 127.78 67.54 127.12 68.52 126.79 69.01 C 125.02 69.01 123.26 69.01 121.49 69.03 C 120.67 71.54 117.82 72.56 115.51 71.47 C 112.30 72.34 108.95 71.91 105.68 72.14 C 104.28 73.01 102.61 73.29 101.05 72.73 C 97.25 71.64 93.28 72.14 89.40 71.75 C 89.19 72.17 88.76 73.03 88.55 73.46 C 87.57 73.07 86.59 72.69 85.61 72.32 C 82.25 73.61 78.61 73.05 75.19 72.37 C 75.44 74.69 76.45 76.84 77.14 79.04 C 78.60 78.42 80.07 77.84 81.55 77.28 C 89.33 75.17 97.31 72.98 105.46 74.25 C 107.11 74.72 109.16 75.77 108.99 77.78 C 104.89 74.19 99.21 74.77 94.19 75.27 C 88.80 76.17 83.61 77.95 78.36 79.42 C 78.15 79.88 77.72 80.80 77.50 81.26 C 82.37 79.87 87.17 77.94 92.32 77.94 C 92.18 78.35 91.92 79.19 91.78 79.60 C 88.56 78.34 85.32 79.92 82.20 80.71 C 80.67 81.01 79.51 82.03 78.37 83.02 C 82.37 83.44 85.91 81.23 89.76 80.61 L 88.65 81.56 C 85.90 82.98 82.86 83.68 79.87 84.39 C 79.93 85.05 80.06 86.36 80.12 87.02 C 86.73 86.29 93.06 84.34 99.53 82.96 L 98.44 83.65 C 97.97 83.81 97.03 84.11 96.56 84.26 C 95.17 84.77 93.78 85.28 92.41 85.81 C 91.49 85.95 90.57 86.10 89.66 86.26 C 87.28 87.04 84.74 86.98 82.35 87.71 C 81.84 87.81 80.82 88.00 80.31 88.10 C 79.95 89.27 79.59 90.45 79.21 91.62 C 79.14 92.27 78.98 93.55 78.91 94.19 L 77.95 93.98 C 78.41 92.02 79.02 90.08 79.23 88.08 C 79.42 85.62 77.79 83.57 76.89 81.42 C 76.17 79.68 75.67 77.87 75.07 76.09 C 74.71 75.50 73.98 74.32 73.62 73.73 C 73.98 72.26 74.83 71.05 76.10 70.25 C 77.06 71.05 78.02 71.85 78.98 72.64 C 78.79 71.85 78.42 70.29 78.23 69.51 C 79.32 70.31 80.41 71.12 81.49 71.94 C 82.24 72.04 83.73 72.24 84.48 72.34 C 84.01 71.57 83.08 70.02 82.61 69.25 C 84.53 69.76 86.42 70.47 87.19 72.53 C 88.37 71.31 88.27 69.98 87.17 68.70 C 89.17 69.71 91.23 70.62 93.30 71.48 C 92.95 70.76 92.25 69.32 91.90 68.60 C 96.52 67.81 99.63 71.58 103.84 72.39 C 102.44 70.97 100.95 69.65 99.45 68.36 C 100.72 68.75 101.99 69.13 103.27 69.50 C 106.64 68.24 109.68 70.50 112.80 71.44 C 111.12 70.09 109.38 68.82 107.65 67.55 C 111.66 68.56 115.46 70.22 119.41 71.42 C 118.34 69.50 116.46 68.35 114.73 67.12 C 113.91 66.90 112.29 66.46 111.48 66.23 C 116.44 65.23 120.96 69.50 125.88 67.81 C 125.91 67.58 125.99 67.13 126.02 66.90 C 123.00 65.24 119.84 63.87 116.86 62.14 C 120.29 61.90 123.64 62.80 127.03 63.11 C 128.71 63.24 130.39 63.42 132.04 63.81 C 133.52 63.39 134.99 62.95 136.47 62.50 C 134.37 61.71 132.27 60.96 130.16 60.21 C 127.70 59.35 125.26 58.44 122.83 57.51 C 126.37 56.54 130.00 56.05 133.67 56.06 M 96.35 70.34 C 96.91 70.84 96.91 70.84 96.35 70.34 M 105.29 70.12 C 105.32 73.40 108.40 68.73 105.29 70.12 Z" />
<path fill="#22323d" opacity="1.00" d=" M 56.12 57.84 C 56.09 57.26 56.01 56.11 55.98 55.53 C 57.83 56.01 59.71 56.23 61.62 56.21 L 61.64 56.30 C 61.05 57.50 60.40 58.66 59.77 59.83 C 58.55 59.18 57.33 58.51 56.12 57.84 Z" />
<path fill="#22323d" opacity="1.00" d=" M 12.58 61.58 C 12.85 61.27 13.37 60.64 13.64 60.33 C 15.36 61.17 17.10 62.44 19.13 61.89 C 20.87 61.51 22.61 61.15 24.36 60.86 C 23.81 61.42 23.25 61.98 22.67 62.52 C 20.74 61.82 18.92 63.13 16.98 63.02 C 15.43 62.84 14.03 62.10 12.58 61.58 Z" />
<path fill="#22323d" opacity="1.00" d=" M 68.56 68.12 C 70.76 68.59 70.98 71.01 71.57 72.78 C 72.07 74.68 72.58 76.56 73.02 78.47 C 72.35 81.69 71.59 84.89 71.22 88.17 C 68.85 90.93 70.27 94.71 70.10 97.98 C 71.71 98.20 73.32 98.43 74.92 98.68 C 75.78 97.58 76.63 96.47 77.46 95.34 C 76.77 98.28 73.56 101.32 76.13 104.22 C 74.27 106.12 72.34 108.02 71.21 110.46 C 71.16 112.79 69.55 114.47 67.16 114.24 C 67.14 111.49 66.94 108.72 66.10 106.08 C 65.49 106.93 64.88 107.78 64.28 108.64 C 63.02 107.15 62.20 105.38 61.45 103.60 C 58.64 104.67 58.81 107.45 58.91 110.00 C 57.66 110.00 56.41 110.00 55.16 110.00 C 54.90 107.92 55.69 105.27 53.57 103.94 C 51.56 104.19 49.53 105.45 47.72 103.84 C 47.10 98.28 54.20 95.07 58.46 98.19 C 57.92 96.95 57.38 95.73 56.83 94.50 C 57.36 94.51 58.40 94.53 58.92 94.54 C 58.60 93.56 58.29 92.59 57.98 91.61 C 59.80 92.63 61.60 93.69 63.40 94.75 C 63.53 94.06 63.80 92.67 63.93 91.97 C 64.23 92.48 64.83 93.49 65.13 93.99 C 65.98 92.40 66.73 90.76 67.39 89.08 C 67.77 89.43 68.52 90.13 68.90 90.48 C 69.87 88.43 70.62 86.29 71.16 84.09 C 73.20 78.73 71.00 72.96 68.56 68.12 M 64.00 96.43 C 64.00 97.66 64.00 98.89 64.00 100.12 C 65.74 99.97 67.92 100.55 68.93 98.67 C 69.17 96.70 69.06 94.72 69.03 92.74 C 66.83 93.10 65.54 95.05 64.00 96.43 M 59.25 95.34 C 58.39 96.62 60.63 97.67 61.56 96.85 C 62.23 95.68 60.14 94.51 59.25 95.34 M 52.00 99.00 C 50.21 100.15 53.31 101.97 52.24 103.67 C 53.75 102.20 53.94 98.30 56.68 99.12 C 56.41 99.68 55.85 100.79 55.57 101.35 C 55.98 102.47 56.38 103.59 56.79 104.71 C 56.68 106.04 56.58 107.39 56.48 108.73 C 56.74 108.76 57.25 108.83 57.50 108.87 C 57.02 105.54 57.03 102.19 58.98 99.32 C 56.71 99.24 53.93 97.13 52.00 99.00 M 61.25 98.10 C 60.74 99.76 61.29 100.32 62.88 99.79 C 63.39 98.13 62.84 97.56 61.25 98.10 M 72.42 98.85 C 72.49 99.61 72.61 101.13 72.68 101.89 C 71.64 102.54 70.80 103.40 70.14 104.46 C 70.53 104.79 71.31 105.46 71.70 105.79 L 70.02 106.10 L 70.59 107.59 C 70.17 107.94 69.33 108.64 68.90 108.99 C 68.56 107.58 68.29 106.15 68.10 104.71 C 68.92 103.16 69.86 101.54 68.88 99.83 C 68.27 100.39 67.04 101.51 66.43 102.07 C 67.58 105.20 68.74 108.41 68.63 111.80 C 68.83 111.79 69.22 111.78 69.41 111.77 C 69.21 107.29 76.28 103.45 72.42 98.85 M 50.33 103.89 C 51.61 103.25 50.34 100.98 49.66 100.13 C 48.37 100.71 49.44 103.18 50.33 103.89 M 60.41 101.13 C 59.78 102.71 60.30 103.25 61.97 102.75 C 62.62 101.15 62.10 100.61 60.41 101.13 M 63.98 106.67 C 64.72 105.61 65.88 104.36 64.80 102.97 C 65.11 102.43 65.74 101.33 66.05 100.79 C 62.76 100.83 63.26 104.54 63.98 106.67 Z" />
<path fill="#22323d" opacity="1.00" d=" M 75.24 68.26 C 75.81 68.75 75.81 68.75 75.24 68.26 Z" />
<path fill="#22323d" opacity="1.00" d=" M 101.04 81.89 C 101.82 80.89 102.82 80.60 104.02 81.02 L 103.81 81.77 C 103.12 81.80 101.73 81.86 101.04 81.89 Z" />
</g>
<g id="#7fb5dfff">
<path fill="#7fb5df" opacity="1.00" d=" M 133.19 6.03 L 133.85 6.00 C 133.52 9.94 133.57 13.90 134.07 17.82 C 134.60 18.22 135.67 19.02 136.20 19.42 L 136.10 20.06 C 135.89 20.53 135.46 21.46 135.24 21.93 C 135.25 23.34 135.25 24.76 135.23 26.17 L 135.05 26.59 C 134.89 26.83 134.58 27.31 134.42 27.55 C 132.59 29.13 132.13 31.40 132.22 33.70 C 133.23 32.77 134.23 31.84 135.24 30.92 C 135.48 30.72 135.97 30.33 136.22 30.13 C 136.43 29.56 136.86 28.43 137.07 27.87 C 137.49 27.49 138.33 26.74 138.76 26.37 C 139.35 28.11 140.00 29.82 140.66 31.54 C 140.80 31.89 141.07 32.59 141.21 32.94 C 140.49 33.65 139.75 34.35 139.01 35.04 L 138.24 35.31 C 138.23 35.75 138.21 36.65 138.20 37.10 C 137.55 37.66 136.90 38.22 136.25 38.77 C 133.82 39.55 132.04 41.36 130.56 43.36 C 134.66 42.71 138.63 41.49 142.63 40.44 C 143.70 39.90 144.75 39.32 145.77 38.70 C 146.22 38.41 147.13 37.81 147.58 37.51 C 148.58 39.46 147.73 41.47 146.92 43.30 C 146.74 43.51 146.39 43.94 146.22 44.16 C 144.56 43.97 142.80 44.52 142.01 46.09 L 141.49 46.39 C 141.21 46.54 140.65 46.85 140.37 47.00 C 136.47 47.79 132.61 48.82 128.87 50.20 C 126.41 49.11 123.88 48.18 121.38 47.19 L 121.08 46.38 C 119.96 47.37 118.88 48.42 117.65 49.26 C 117.09 48.89 115.97 48.16 115.41 47.79 L 115.89 47.15 C 117.92 47.55 119.60 45.90 119.16 43.86 C 119.45 43.66 120.02 43.25 120.30 43.05 C 120.42 42.52 120.67 41.45 120.79 40.92 C 121.15 40.70 121.88 40.27 122.24 40.06 L 122.96 39.79 C 123.05 39.38 123.23 38.55 123.32 38.13 C 123.42 37.62 123.62 36.59 123.73 36.07 C 125.73 35.24 125.91 32.78 126.33 30.94 C 126.41 30.54 126.57 29.72 126.66 29.32 C 128.66 28.87 129.09 26.61 129.29 24.88 C 129.35 24.61 129.49 24.09 129.56 23.83 C 129.89 23.36 130.56 22.43 130.89 21.96 C 132.30 16.76 133.21 11.42 133.19 6.03 M 131.94 20.29 C 130.29 23.27 135.25 20.49 131.94 20.29 M 131.18 24.26 C 131.70 24.78 131.70 24.78 131.18 24.26 M 129.98 26.16 C 128.44 29.15 133.27 26.40 129.98 26.16 M 128.22 31.29 C 128.74 31.80 128.74 31.80 128.22 31.29 M 127.19 33.36 C 127.79 33.86 127.79 33.86 127.19 33.36 M 125.17 39.08 C 126.57 38.72 127.22 36.21 126.61 34.93 C 125.00 35.03 124.93 37.82 125.17 39.08 M 124.29 40.28 C 124.75 40.91 124.75 40.91 124.29 40.28 M 123.26 42.33 C 123.79 42.90 123.79 42.90 123.26 42.33 M 121.18 45.85 C 122.53 45.99 123.14 45.36 122.99 43.96 C 121.64 43.81 121.03 44.44 121.18 45.85 Z" />
<path fill="#7fb5df" opacity="1.00" d=" M 1.44 10.45 C 2.81 13.99 2.11 18.05 1.90 21.76 L 1.10 22.55 C 0.91 18.51 1.02 14.46 1.44 10.45 Z" />
<path fill="#7fb5df" opacity="1.00" d=" M 2.26 23.28 C 3.65 23.30 3.68 26.85 2.35 26.92 C 1.66 25.71 1.63 24.50 2.26 23.28 Z" />
<path fill="#7fb5df" opacity="1.00" d=" M 2.51 29.60 L 3.51 29.39 L 3.90 30.06 C 3.55 30.33 2.86 30.88 2.52 31.15 C 2.52 30.76 2.51 29.99 2.51 29.60 Z" />
<path fill="#7fb5df" opacity="1.00" d=" M 3.73 32.33 C 5.29 32.81 5.24 33.36 3.55 33.99 C 3.59 33.57 3.68 32.74 3.73 32.33 Z" />
<path fill="#7fb5df" opacity="1.00" d=" M 5.17 35.06 L 5.92 35.17 C 5.94 35.61 5.97 36.49 5.99 36.93 C 5.70 36.65 5.12 36.07 4.83 35.79 L 5.17 35.06 Z" />
<path fill="#7fb5df" opacity="1.00" d=" M 5.99 36.93 C 6.26 37.45 6.79 38.47 7.06 38.99 C 6.79 38.47 6.26 37.45 5.99 36.93 Z" />
<path fill="#7fb5df" opacity="1.00" d=" M 7.06 38.99 C 7.36 39.53 7.97 40.63 8.27 41.18 C 7.97 40.63 7.36 39.53 7.06 38.99 Z" />
<path fill="#7fb5df" opacity="1.00" d=" M 8.27 41.18 C 8.39 41.31 8.63 41.59 8.76 41.73 L 8.50 41.48 L 8.27 41.18 Z" />
<path fill="#7fb5df" opacity="1.00" d=" M 8.76 41.73 C 10.04 42.13 11.72 43.34 10.83 44.87 C 9.28 44.75 8.90 42.98 8.76 41.73 Z" />
<path fill="#7fb5df" opacity="1.00" d=" M 10.83 44.87 C 13.06 46.31 15.14 47.95 17.26 49.53 C 14.42 51.12 11.68 47.31 10.83 44.87 Z" />
<path fill="#7fb5df" opacity="1.00" d=" M 17.26 49.53 C 23.08 51.78 27.84 55.92 33.42 58.57 C 40.13 59.70 46.95 60.13 53.65 61.32 C 54.01 61.81 54.72 62.77 55.07 63.25 C 47.51 63.79 40.13 61.80 32.62 61.29 C 28.21 58.93 24.71 55.20 20.30 52.80 C 19.19 51.85 16.83 51.47 17.26 49.53 Z" />
<path fill="#7fb5df" opacity="1.00" d=" M 54.16 52.37 C 57.35 52.78 52.59 55.41 54.16 52.37 Z" />
<path fill="#7fb5df" opacity="1.00" d=" M 135.95 52.00 C 138.56 51.95 141.18 52.05 143.76 52.52 C 143.42 52.86 142.73 53.52 142.39 53.85 C 139.54 54.81 136.64 55.59 133.67 56.06 C 134.44 54.71 135.20 53.35 135.95 52.00 Z" />
<path fill="#7fb5df" opacity="1.00" d=" M 16.31 57.65 L 16.83 58.61 C 17.56 59.73 18.35 60.80 19.13 61.89 C 17.10 62.44 15.36 61.17 13.64 60.33 C 14.53 59.43 15.42 58.54 16.31 57.65 Z" />
<path fill="#7fb5df" opacity="1.00" d=" M 130.16 60.21 C 132.27 60.96 134.37 61.71 136.47 62.50 C 134.99 62.95 133.52 63.39 132.04 63.81 C 130.39 63.42 128.71 63.24 127.03 63.11 C 128.08 62.15 129.12 61.18 130.16 60.21 Z" />
<path fill="#7fb5df" opacity="1.00" d=" M 71.57 72.78 C 72.08 73.02 73.11 73.49 73.62 73.73 C 73.98 74.32 74.71 75.50 75.07 76.09 C 74.39 76.88 73.71 77.68 73.02 78.47 C 72.58 76.56 72.07 74.68 71.57 72.78 Z" />
<path fill="#7fb5df" opacity="1.00" d=" M 74.55 82.38 C 75.13 82.14 76.31 81.66 76.89 81.42 C 77.79 83.57 79.42 85.62 79.23 88.08 C 79.02 90.08 78.41 92.02 77.95 93.98 L 77.86 93.96 C 74.64 93.32 71.73 91.70 71.22 88.17 C 72.49 86.34 73.55 84.37 74.55 82.38 Z" />
</g>
<g id="#8dc8f6ff">
<path fill="#8dc8f6" opacity="1.00" d=" M 133.85 6.00 C 134.44 6.01 135.63 6.01 136.23 6.02 C 136.18 10.49 136.29 14.95 136.20 19.42 C 135.67 19.02 134.60 18.22 134.07 17.82 C 133.57 13.90 133.52 9.94 133.85 6.00 Z" />
<path fill="#8dc8f6" opacity="1.00" d=" M 142.78 19.85 C 143.34 20.14 144.47 20.71 145.04 20.99 C 144.49 22.66 144.31 24.41 144.13 26.15 C 143.99 26.49 143.70 27.17 143.55 27.52 L 142.80 28.08 C 141.56 28.80 140.75 30.11 140.66 31.54 C 140.00 29.82 139.35 28.11 138.76 26.37 L 139.06 26.08 C 139.31 25.52 139.82 24.41 140.07 23.86 C 140.34 23.67 140.86 23.31 141.13 23.12 L 141.91 22.80 C 141.93 22.35 141.98 21.44 142.00 20.99 C 142.19 20.70 142.58 20.13 142.78 19.85 Z" />
<path fill="#8dc8f6" opacity="1.00" d=" M 115.14 48.15 L 115.41 47.79 C 115.97 48.16 117.09 48.89 117.65 49.26 C 114.39 51.37 110.85 52.98 107.57 55.06 C 101.75 55.92 97.99 61.49 92.09 62.07 C 85.35 62.96 78.55 63.20 71.77 63.65 C 69.75 63.49 68.85 65.53 67.60 66.73 C 66.02 63.59 62.68 62.46 59.60 61.34 C 58.14 61.98 56.68 62.62 55.22 63.26 C 55.05 59.83 54.63 56.24 56.05 52.99 C 56.58 52.99 57.65 52.98 58.18 52.97 C 57.44 53.82 56.71 54.67 55.98 55.53 C 56.01 56.11 56.09 57.26 56.12 57.84 C 57.33 58.51 58.55 59.18 59.77 59.83 C 60.40 58.66 61.05 57.50 61.64 56.30 L 61.62 56.21 C 61.46 55.70 61.13 54.67 60.97 54.16 C 60.42 53.88 59.32 53.33 58.76 53.05 C 60.67 52.99 62.21 54.11 63.71 55.10 L 64.30 54.26 C 64.40 53.62 64.61 52.34 64.72 51.70 C 65.34 51.53 66.58 51.17 67.21 50.99 C 67.22 54.27 67.21 57.54 67.16 60.82 C 68.17 61.41 69.19 61.99 70.21 62.58 C 74.03 60.61 78.33 61.07 82.46 60.87 C 85.26 59.49 88.48 60.17 91.48 59.91 C 93.34 59.23 95.43 58.98 96.94 57.58 C 97.10 57.52 97.42 57.40 97.58 57.33 C 99.32 56.52 101.04 55.65 102.63 54.55 C 105.12 53.50 107.79 52.61 109.73 50.62 C 109.99 50.53 110.51 50.36 110.77 50.28 C 112.44 50.21 114.31 49.77 115.14 48.15 Z" />
<path fill="#8dc8f6" opacity="1.00" d=" M 8.84 51.33 C 10.78 50.63 12.91 50.85 14.91 51.21 C 13.27 51.85 11.54 52.69 9.73 52.30 C 9.50 52.05 9.06 51.57 8.84 51.33 Z" />
<path fill="#8dc8f6" opacity="1.00" d=" M 26.25 66.40 L 26.32 66.30 C 26.30 66.35 26.26 66.46 26.24 66.51 L 26.25 66.40 Z" />
</g>
<g id="#6a97b5ff">
<path fill="#6a97b5" opacity="1.00" d=" M 131.94 20.29 C 135.25 20.49 130.29 23.27 131.94 20.29 Z" />
<path fill="#6a97b5" opacity="1.00" d=" M 129.98 26.16 C 133.27 26.40 128.44 29.15 129.98 26.16 Z" />
<path fill="#6a97b5" opacity="1.00" d=" M 140.66 31.54 C 140.75 30.11 141.56 28.80 142.80 28.08 C 142.80 28.69 142.79 29.91 142.79 30.52 C 142.41 31.43 141.89 32.24 141.21 32.94 C 141.07 32.59 140.80 31.89 140.66 31.54 Z" />
<path fill="#6a97b5" opacity="1.00" d=" M 128.22 31.29 C 128.74 31.80 128.74 31.80 128.22 31.29 Z" />
<path fill="#6a97b5" opacity="1.00" d=" M 5.30 42.25 C 6.92 41.25 8.57 43.71 8.10 45.17 C 6.62 45.68 4.27 43.78 5.30 42.25 Z" />
<path fill="#6a97b5" opacity="1.00" d=" M 8.10 45.17 C 8.29 45.35 8.68 45.72 8.88 45.90 C 8.68 45.72 8.29 45.35 8.10 45.17 Z" />
<path fill="#6a97b5" opacity="1.00" d=" M 8.88 45.90 C 9.61 46.61 9.61 46.61 8.88 45.90 Z" />
<path fill="#6a97b5" opacity="1.00" d=" M 121.38 47.19 C 123.88 48.18 126.41 49.11 128.87 50.20 C 128.65 50.65 128.19 51.55 127.97 52.00 C 130.63 52.00 133.29 52.01 135.95 52.00 C 135.20 53.35 134.44 54.71 133.67 56.06 C 130.00 56.05 126.37 56.54 122.83 57.51 C 125.26 58.44 127.70 59.35 130.16 60.21 C 129.12 61.18 128.08 62.15 127.03 63.11 C 123.64 62.80 120.29 61.90 116.86 62.14 C 119.84 63.87 123.00 65.24 126.02 66.90 C 125.99 67.13 125.91 67.58 125.88 67.81 C 120.96 69.50 116.44 65.23 111.48 66.23 C 112.29 66.46 113.91 66.90 114.73 67.12 C 116.46 68.35 118.34 69.50 119.41 71.42 C 115.46 70.22 111.66 68.56 107.65 67.55 C 109.38 68.82 111.12 70.09 112.80 71.44 C 109.68 70.50 106.64 68.24 103.27 69.50 C 101.99 69.13 100.72 68.75 99.45 68.36 C 100.95 69.65 102.44 70.97 103.84 72.39 C 99.63 71.58 96.52 67.81 91.90 68.60 C 92.25 69.32 92.95 70.76 93.30 71.48 C 91.23 70.62 89.17 69.71 87.17 68.70 C 88.27 69.98 88.37 71.31 87.19 72.53 C 86.42 70.47 84.53 69.76 82.61 69.25 C 83.08 70.02 84.01 71.57 84.48 72.34 C 83.73 72.24 82.24 72.04 81.49 71.94 C 80.41 71.12 79.32 70.31 78.23 69.51 C 78.42 70.29 78.79 71.85 78.98 72.64 C 78.02 71.85 77.06 71.05 76.10 70.25 C 74.83 71.05 73.98 72.26 73.62 73.73 C 73.11 73.49 72.08 73.02 71.57 72.78 C 70.98 71.01 70.76 68.59 68.56 68.12 C 68.32 67.78 67.84 67.08 67.60 66.73 C 68.85 65.53 69.75 63.49 71.77 63.65 C 78.55 63.20 85.35 62.96 92.09 62.07 C 97.99 61.49 101.75 55.92 107.57 55.06 C 104.02 57.65 100.66 60.61 96.78 62.69 C 90.06 64.34 82.75 64.30 76.66 67.94 C 80.48 67.14 84.13 65.62 88.02 65.05 C 91.16 64.50 94.40 64.29 97.44 63.27 C 100.68 61.69 103.24 59.03 106.28 57.12 C 111.14 53.54 117.08 51.55 121.38 47.19 M 75.24 68.26 C 75.81 68.75 75.81 68.75 75.24 68.26 Z" />
<path fill="#6a97b5" opacity="1.00" d=" M 14.91 51.21 L 15.45 51.30 C 21.58 54.33 26.28 59.56 32.37 62.60 C 37.76 64.40 43.53 64.87 48.84 67.04 C 48.82 68.22 48.79 69.40 48.77 70.59 C 47.70 69.82 46.64 69.05 45.58 68.28 C 45.18 68.48 44.38 68.90 43.98 69.11 C 43.56 68.86 42.71 68.37 42.29 68.12 C 41.43 69.03 40.57 69.93 39.70 70.83 C 39.28 69.09 38.96 67.32 38.69 65.55 C 37.98 66.67 37.27 67.78 36.57 68.90 C 35.93 69.01 34.66 69.25 34.02 69.37 C 34.24 68.62 34.69 67.13 34.91 66.39 C 34.01 67.70 33.14 69.04 32.16 70.30 C 31.64 70.02 30.58 69.46 30.05 69.19 C 30.47 68.01 30.89 66.83 31.31 65.65 C 29.67 67.15 27.93 68.57 25.98 69.66 C 26.05 68.87 26.17 67.30 26.24 66.51 C 26.26 66.46 26.30 66.35 26.32 66.30 C 26.80 65.68 27.76 64.43 28.24 63.80 C 26.00 65.26 23.52 66.28 20.83 66.40 C 20.91 65.75 21.07 64.46 21.16 63.81 C 21.54 63.49 22.29 62.84 22.67 62.52 C 23.25 61.98 23.81 61.42 24.36 60.86 C 22.61 61.15 20.87 61.51 19.13 61.89 C 18.35 60.80 17.56 59.73 16.83 58.61 C 17.60 57.82 18.36 57.03 19.13 56.24 C 15.88 55.24 12.56 54.24 9.73 52.30 C 11.54 52.69 13.27 51.85 14.91 51.21 Z" />
<path fill="#6a97b5" opacity="1.00" d=" M 58.18 52.97 L 58.76 53.05 C 59.32 53.33 60.42 53.88 60.97 54.16 C 61.13 54.67 61.46 55.70 61.62 56.21 C 59.71 56.23 57.83 56.01 55.98 55.53 C 56.71 54.67 57.44 53.82 58.18 52.97 Z" />
<path fill="#6a97b5" opacity="1.00" d=" M 32.62 61.29 C 40.13 61.80 47.51 63.79 55.07 63.25 L 55.22 63.26 C 55.01 63.59 54.60 64.26 54.39 64.59 C 53.33 65.46 52.24 66.30 51.16 67.14 C 45.53 63.56 38.62 63.83 32.62 61.29 Z" />
<path fill="#6a97b5" opacity="1.00" d=" M 50.31 68.16 C 53.66 68.31 48.52 71.09 50.31 68.16 Z" />
<path fill="#6a97b5" opacity="1.00" d=" M 96.35 70.34 C 96.91 70.84 96.91 70.84 96.35 70.34 Z" />
<path fill="#6a97b5" opacity="1.00" d=" M 105.29 70.12 C 108.40 68.73 105.32 73.40 105.29 70.12 Z" />
<path fill="#6a97b5" opacity="1.00" d=" M 73.02 78.47 C 73.71 77.68 74.39 76.88 75.07 76.09 C 75.67 77.87 76.17 79.68 76.89 81.42 C 76.31 81.66 75.13 82.14 74.55 82.38 C 73.55 84.37 72.49 86.34 71.22 88.17 C 71.59 84.89 72.35 81.69 73.02 78.47 Z" />
<path fill="#6a97b5" opacity="1.00" d=" M 70.10 97.98 C 70.27 94.71 68.85 90.93 71.22 88.17 C 71.73 91.70 74.64 93.32 77.86 93.96 C 77.76 94.30 77.56 95.00 77.46 95.34 C 76.63 96.47 75.78 97.58 74.92 98.68 C 73.32 98.43 71.71 98.20 70.10 97.98 Z" />
<path fill="#6a97b5" opacity="1.00" d=" M 59.25 95.34 C 60.14 94.51 62.23 95.68 61.56 96.85 C 60.63 97.67 58.39 96.62 59.25 95.34 Z" />
<path fill="#6a97b5" opacity="1.00" d=" M 61.25 98.10 C 62.84 97.56 63.39 98.13 62.88 99.79 C 61.29 100.32 60.74 99.76 61.25 98.10 Z" />
<path fill="#6a97b5" opacity="1.00" d=" M 60.41 101.13 C 62.10 100.61 62.62 101.15 61.97 102.75 C 60.30 103.25 59.78 102.71 60.41 101.13 Z" />
</g>
<g id="#2d97c5ff">
<path fill="#2d97c5" opacity="1.00" d=" M 131.18 24.26 C 131.70 24.78 131.70 24.78 131.18 24.26 Z" />
<path fill="#2d97c5" opacity="1.00" d=" M 63.36 36.37 C 64.96 39.57 63.22 43.00 62.89 46.29 C 67.30 44.82 71.64 43.12 76.22 42.26 L 75.15 44.17 C 74.51 44.82 73.86 45.46 73.20 46.09 C 72.65 46.33 71.55 46.79 71.00 47.02 C 70.40 47.72 69.79 48.40 69.18 49.09 C 66.05 50.35 62.82 51.31 59.60 52.30 C 60.34 50.77 61.09 49.25 61.84 47.73 C 60.64 49.00 59.44 50.27 58.24 51.55 C 58.05 50.80 57.68 49.31 57.49 48.57 C 57.30 49.79 57.11 51.01 56.92 52.23 C 55.37 51.15 53.84 50.04 52.35 48.88 C 52.04 46.86 51.66 44.86 51.21 42.88 C 53.33 44.05 55.48 45.16 57.66 46.22 C 58.45 44.35 59.26 42.48 60.18 40.66 C 60.37 40.48 60.76 40.12 60.96 39.94 L 61.82 39.71 C 61.86 39.25 61.92 38.34 61.96 37.88 C 62.31 37.50 63.01 36.74 63.36 36.37 Z" />
<path fill="#2d97c5" opacity="1.00" d=" M 49.33 70.57 C 50.55 74.28 49.45 78.26 49.84 82.09 C 49.82 85.44 52.22 87.97 53.76 90.74 C 51.26 91.53 48.77 92.31 46.29 93.14 C 49.37 86.03 48.91 78.13 49.33 70.57 Z" />
<path fill="#2d97c5" opacity="1.00" d=" M 94.19 75.27 C 99.21 74.77 104.89 74.19 108.99 77.78 C 107.36 78.90 105.68 79.95 104.02 81.02 C 102.82 80.60 101.82 80.89 101.04 81.89 C 100.66 82.16 99.91 82.69 99.53 82.96 C 93.06 84.34 86.73 86.29 80.12 87.02 C 80.06 86.36 79.93 85.05 79.87 84.39 C 82.86 83.68 85.90 82.98 88.65 81.56 L 89.76 80.61 C 90.27 80.36 91.28 79.85 91.78 79.60 C 91.92 79.19 92.18 78.35 92.32 77.94 C 87.17 77.94 82.37 79.87 77.50 81.26 C 77.72 80.80 78.15 79.88 78.36 79.42 C 83.61 77.95 88.80 76.17 94.19 75.27 Z" />
</g>
<g id="#cededeff">
<path fill="#cedede" opacity="1.00" d=" M 63.25 52.14 C 63.62 52.03 64.35 51.81 64.72 51.70 C 64.61 52.34 64.40 53.62 64.30 54.26 C 64.04 53.73 63.52 52.67 63.25 52.14 Z" />
<path fill="#cedede" opacity="1.00" d=" M 51.16 82.02 C 50.86 78.55 50.75 74.97 51.67 71.58 C 52.04 74.87 51.46 78.73 53.50 81.54 C 56.09 83.47 59.16 84.68 62.15 85.86 C 65.27 87.21 68.41 85.47 71.16 84.09 C 70.62 86.29 69.87 88.43 68.90 90.48 C 68.52 90.13 67.77 89.43 67.39 89.08 C 66.73 90.76 65.98 92.40 65.13 93.99 C 64.83 93.49 64.23 92.48 63.93 91.97 C 63.80 92.67 63.53 94.06 63.40 94.75 C 61.60 93.69 59.80 92.63 57.98 91.61 C 58.29 92.59 58.60 93.56 58.92 94.54 C 58.40 94.53 57.36 94.51 56.83 94.50 C 56.65 94.32 56.30 93.97 56.12 93.79 C 56.13 93.25 56.16 92.17 56.18 91.63 C 54.44 88.48 51.88 85.64 51.16 82.02 Z" />
<path fill="#cedede" opacity="1.00" d=" M 52.00 99.00 C 53.93 97.13 56.71 99.24 58.98 99.32 C 57.03 102.19 57.02 105.54 57.50 108.87 C 57.25 108.83 56.74 108.76 56.48 108.73 C 56.58 107.39 56.68 106.04 56.79 104.71 C 56.38 103.59 55.98 102.47 55.57 101.35 C 55.85 100.79 56.41 99.68 56.68 99.12 C 53.94 98.30 53.75 102.20 52.24 103.67 C 53.31 101.97 50.21 100.15 52.00 99.00 Z" />
<path fill="#cedede" opacity="1.00" d=" M 72.42 98.85 C 76.28 103.45 69.21 107.29 69.41 111.77 C 69.22 111.78 68.83 111.79 68.63 111.80 C 68.74 108.41 67.58 105.20 66.43 102.07 C 67.04 101.51 68.27 100.39 68.88 99.83 C 69.86 101.54 68.92 103.16 68.10 104.71 C 68.29 106.15 68.56 107.58 68.90 108.99 C 69.33 108.64 70.17 107.94 70.59 107.59 L 70.02 106.10 L 71.70 105.79 C 71.31 105.46 70.53 104.79 70.14 104.46 C 70.80 103.40 71.64 102.54 72.68 101.89 C 72.61 101.13 72.49 99.61 72.42 98.85 Z" />
<path fill="#cedede" opacity="1.00" d=" M 50.33 103.89 C 49.44 103.18 48.37 100.71 49.66 100.13 C 50.34 100.98 51.61 103.25 50.33 103.89 Z" />
<path fill="#cedede" opacity="1.00" d=" M 63.98 106.67 C 63.26 104.54 62.76 100.83 66.05 100.79 C 65.74 101.33 65.11 102.43 64.80 102.97 C 65.88 104.36 64.72 105.61 63.98 106.67 Z" />
</g>
<g id="#e6f8faff">
<path fill="#e6f8fa" opacity="1.00" d=" M 55.22 63.26 C 56.68 62.62 58.14 61.98 59.60 61.34 C 62.68 62.46 66.02 63.59 67.60 66.73 C 67.84 67.08 68.32 67.78 68.56 68.12 C 71.00 72.96 73.20 78.73 71.16 84.09 C 68.41 85.47 65.27 87.21 62.15 85.86 C 59.16 84.68 56.09 83.47 53.50 81.54 C 51.46 78.73 52.04 74.87 51.67 71.58 C 51.96 70.51 52.28 69.45 52.64 68.40 C 52.81 67.94 53.15 67.03 53.33 66.57 C 53.59 66.08 54.12 65.09 54.39 64.59 C 54.60 64.26 55.01 63.59 55.22 63.26 Z" />
</g>
</svg>
