<?xml version="1.0" encoding="UTF-8" ?>
<!DOCTYPE svg PUBLIC "-//W3C//DTD SVG 1.1//EN" "http://www.w3.org/Graphics/SVG/1.1/DTD/svg11.dtd">
<svg width="120pt" height="120pt" viewBox="0 0 120 120" version="1.1" xmlns="http://www.w3.org/2000/svg">
<g id="#5a5a5aff">
<path fill="#5a5a5a" opacity="1.00" d=" M 81.46 20.79 C 84.66 19.31 88.16 19.07 91.63 19.11 C 94.31 21.52 96.29 24.64 96.25 28.36 C 97.16 31.25 96.94 34.31 96.76 37.29 C 95.97 38.87 95.87 40.64 95.63 42.35 C 95.26 43.57 94.92 44.79 94.59 46.02 L 93.72 45.97 C 94.92 40.37 96.93 34.61 95.30 28.86 C 95.01 25.30 92.97 22.34 90.59 19.83 C 87.96 20.13 85.35 20.57 82.76 21.05 L 81.46 20.79 Z" />
<path fill="#5a5a5a" opacity="1.00" d=" M 23.39 26.33 C 23.96 24.95 24.35 23.47 25.20 22.23 C 26.74 22.03 28.35 22.21 29.73 22.96 C 30.18 23.03 31.09 23.17 31.54 23.25 C 39.91 28.29 47.39 34.92 53.05 42.91 C 54.30 41.20 55.47 39.44 56.68 37.71 C 57.77 39.51 58.05 41.59 58.26 43.64 C 59.31 42.25 60.34 40.85 61.46 39.52 C 60.85 41.31 60.29 43.11 59.75 44.93 C 60.23 44.71 61.18 44.26 61.66 44.04 C 61.39 46.35 61.16 48.66 60.94 50.97 C 63.11 49.76 65.29 48.56 67.43 47.29 C 73.06 44.64 79.16 43.22 85.37 42.91 C 86.51 43.37 87.65 43.82 88.80 44.25 C 90.06 45.42 91.33 46.58 92.54 47.81 C 93.36 49.58 93.83 51.48 94.30 53.37 C 95.28 55.78 94.01 58.25 93.76 60.67 C 93.06 61.67 92.33 62.65 91.58 63.61 C 92.45 60.96 93.15 58.26 94.00 55.60 C 93.35 54.99 92.70 54.39 92.06 53.78 C 90.54 53.68 89.02 53.57 87.50 53.43 C 89.44 53.31 91.37 53.22 93.31 53.11 C 92.90 52.09 92.48 51.08 92.03 50.08 C 90.71 48.31 89.17 46.72 87.68 45.09 C 81.66 43.19 75.52 45.60 69.75 47.29 C 70.27 47.70 71.29 48.50 71.81 48.91 C 70.49 48.60 69.18 48.29 67.86 47.98 C 66.64 48.86 65.40 49.73 64.16 50.59 C 64.38 50.95 64.83 51.68 65.06 52.05 C 65.10 52.82 65.20 54.37 65.24 55.15 C 65.30 55.33 65.40 55.69 65.45 55.88 C 67.23 57.53 68.42 59.65 68.53 62.10 C 71.72 63.88 75.14 65.18 78.53 66.52 C 82.10 67.55 85.53 66.08 88.73 64.61 C 88.28 64.24 87.38 63.49 86.93 63.11 C 88.18 63.47 89.42 63.84 90.68 64.17 L 91.37 64.35 C 89.74 65.10 88.11 65.84 86.47 66.59 C 85.41 66.99 84.36 67.41 83.32 67.87 C 81.35 67.89 79.37 67.82 77.44 67.37 C 76.45 66.95 75.46 66.52 74.46 66.09 C 73.98 65.99 73.00 65.79 72.51 65.69 C 71.06 64.94 69.59 64.20 68.12 63.48 C 68.08 64.21 67.99 65.66 67.94 66.39 C 68.57 67.78 69.13 69.19 69.76 70.59 C 69.86 72.56 69.93 74.54 70.00 76.52 C 71.26 78.10 72.41 79.78 73.59 81.43 C 74.97 85.92 77.07 90.32 80.69 93.43 C 81.15 95.10 81.65 96.76 82.08 98.44 C 77.97 96.51 75.75 92.24 73.45 88.56 C 72.28 86.44 70.52 84.74 68.71 83.17 C 68.11 82.09 67.28 81.01 65.90 81.54 L 65.32 81.35 C 65.42 82.22 65.62 83.97 65.72 84.85 L 64.05 84.64 C 64.92 78.61 65.41 72.53 66.67 66.56 C 66.90 64.15 67.19 61.72 66.92 59.30 C 65.17 57.36 62.27 58.31 59.98 57.93 C 60.05 58.52 60.19 59.71 60.26 60.30 L 58.76 59.55 C 59.06 59.04 59.67 58.01 59.97 57.50 C 59.56 56.78 58.75 55.35 58.34 54.63 L 58.03 55.80 C 56.43 55.19 54.82 54.59 53.21 53.99 C 55.11 53.79 57.01 53.57 58.91 53.43 C 59.15 52.72 59.38 52.01 59.60 51.30 C 59.82 49.90 59.94 48.49 59.95 47.07 C 60.06 45.79 59.49 45.03 58.23 44.78 C 58.20 45.18 58.15 45.97 58.12 46.37 C 58.10 48.01 58.07 49.65 58.02 51.28 C 56.79 51.12 55.57 50.93 54.35 50.73 C 54.45 50.14 54.66 48.96 54.76 48.37 C 54.87 47.57 55.07 45.98 55.17 45.19 C 54.54 45.04 53.26 44.76 52.63 44.62 C 52.80 44.22 53.14 43.41 53.31 43.01 C 52.49 43.01 50.84 43.00 50.02 43.00 C 50.02 43.50 50.00 44.50 49.99 45.00 C 49.27 45.00 47.81 45.00 47.08 45.00 L 46.93 45.53 C 46.76 45.99 46.42 46.89 46.25 47.35 L 45.35 47.17 C 45.15 47.54 44.75 48.29 44.54 48.66 C 44.59 49.83 44.81 50.99 45.13 52.12 C 45.32 53.32 46.02 53.95 47.21 54.01 C 47.22 53.63 47.24 52.85 47.25 52.46 L 47.26 50.32 C 47.71 52.72 48.12 55.11 48.50 57.52 C 47.10 57.31 45.70 57.11 44.29 56.91 C 42.97 55.85 41.63 54.80 40.29 53.77 C 39.55 58.61 42.88 62.62 46.40 65.45 C 47.57 65.89 48.73 66.36 49.87 66.87 C 49.35 67.12 48.31 67.61 47.79 67.86 C 45.02 66.76 43.10 64.42 41.02 62.41 C 41.00 63.06 40.95 64.37 40.92 65.02 L 39.75 64.98 C 39.88 63.43 40.02 61.87 39.93 60.31 C 38.09 58.57 35.32 59.24 33.03 58.77 L 32.36 58.69 C 33.28 58.53 35.14 58.20 36.07 58.03 C 36.18 56.01 36.04 53.88 37.17 52.08 C 33.62 51.31 32.45 47.17 30.33 44.63 C 28.44 41.36 27.10 37.82 25.41 34.46 C 25.15 33.10 24.87 31.74 24.56 30.39 C 24.19 29.03 23.82 27.67 23.39 26.33 M 25.01 22.97 C 25.06 25.08 25.12 27.19 25.21 29.30 C 25.82 30.99 26.31 32.72 26.88 34.43 C 27.54 35.75 28.23 37.07 28.91 38.38 C 28.99 38.88 29.14 39.89 29.21 40.39 C 30.19 41.67 31.12 42.99 32.01 44.34 C 33.37 46.71 35.07 48.86 36.60 51.12 C 36.68 48.55 37.94 46.29 39.64 44.43 C 39.90 43.39 40.17 42.35 40.44 41.31 C 41.00 41.16 42.11 40.87 42.67 40.73 C 42.49 40.29 42.14 39.43 41.97 39.00 C 45.40 38.34 47.18 41.89 49.77 43.43 C 49.82 42.71 49.93 41.28 49.99 40.57 C 46.47 37.35 43.32 33.74 39.71 30.62 C 36.56 28.66 33.90 25.98 30.53 24.34 C 29.44 24.00 28.37 23.64 27.30 23.25 C 26.73 23.18 25.58 23.04 25.01 22.97 M 56.56 48.95 C 56.71 45.81 56.89 42.67 56.69 39.54 C 55.21 42.49 56.47 45.83 56.56 48.95 M 43.23 41.55 C 43.17 42.42 43.05 44.14 42.99 45.01 C 44.44 44.92 45.89 44.83 47.35 44.73 C 45.99 43.65 44.62 42.59 43.23 41.55 M 41.09 43.30 C 39.62 46.35 44.37 43.39 41.09 43.30 M 40.46 45.96 C 39.56 46.88 38.79 48.43 39.26 49.72 C 40.84 50.05 41.93 46.47 40.46 45.96 M 42.09 46.00 C 42.07 46.68 42.02 48.03 41.99 48.71 C 41.68 49.20 41.06 50.19 40.75 50.68 C 41.39 50.82 42.69 51.11 43.34 51.25 C 42.93 49.25 43.38 47.44 44.98 46.06 C 44.25 46.05 42.81 46.02 42.09 46.00 M 62.53 52.13 C 61.41 53.06 62.74 55.41 64.09 54.58 C 65.22 53.64 63.92 51.23 62.53 52.13 M 44.99 54.99 C 45.51 55.50 45.51 55.50 44.99 54.99 C 44.44 54.44 44.44 54.44 44.99 54.99 M 67.48 72.12 C 67.06 73.49 67.54 74.02 68.95 73.72 C 69.38 72.34 68.90 71.81 67.48 72.12 M 67.82 76.78 C 68.69 79.81 70.35 82.68 73.12 84.33 C 71.80 81.53 70.03 78.95 67.82 76.78 Z" />
<path fill="#5a5a5a" opacity="1.00" d=" M 78.26 22.35 C 78.68 22.31 79.53 22.22 79.96 22.17 C 79.53 22.43 78.68 22.95 78.25 23.21 L 78.26 22.35 Z" />
<path fill="#5a5a5a" opacity="1.00" d=" M 75.25 24.27 L 76.21 23.83 L 76.99 24.29 C 76.52 24.51 75.59 24.94 75.12 25.16 L 75.25 24.27 Z" />
<path fill="#5a5a5a" opacity="1.00" d=" M 91.35 25.28 C 91.81 25.83 91.81 25.83 91.35 25.28 Z" />
<path fill="#5a5a5a" opacity="1.00" d=" M 31.28 30.24 C 31.74 30.82 31.74 30.82 31.28 30.24 Z" />
<path fill="#5a5a5a" opacity="1.00" d=" M 77.36 30.03 C 80.36 28.60 77.38 33.38 77.36 30.03 Z" />
<path fill="#5a5a5a" opacity="1.00" d=" M 65.36 35.12 C 63.88 33.60 66.43 30.64 68.20 31.26 C 67.49 32.53 66.71 33.76 65.80 34.89 L 65.36 35.12 Z" />
<path fill="#5a5a5a" opacity="1.00" d=" M 35.26 32.16 C 38.13 30.45 35.57 35.49 35.26 32.16 Z" />
<path fill="#5a5a5a" opacity="1.00" d=" M 93.26 32.23 C 93.75 32.77 93.75 32.77 93.26 32.23 Z" />
<path fill="#5a5a5a" opacity="1.00" d=" M 91.24 33.25 C 91.72 33.79 91.72 33.79 91.24 33.25 Z" />
<path fill="#5a5a5a" opacity="1.00" d=" M 29.27 35.29 C 29.80 35.80 29.80 35.80 29.27 35.29 Z" />
<path fill="#5a5a5a" opacity="1.00" d=" M 31.20 36.27 C 31.70 36.82 31.70 36.82 31.20 36.27 Z" />
<path fill="#5a5a5a" opacity="1.00" d=" M 37.11 36.38 C 40.46 36.50 35.59 39.35 37.11 36.38 Z" />
<path fill="#5a5a5a" opacity="1.00" d=" M 84.21 36.28 C 84.82 36.69 84.82 36.69 84.21 36.28 Z" />
<path fill="#5a5a5a" opacity="1.00" d=" M 33.36 37.21 C 33.80 37.79 33.80 37.79 33.36 37.21 Z" />
<path fill="#5a5a5a" opacity="1.00" d=" M 62.27 37.25 L 63.16 37.13 C 62.94 37.59 62.49 38.52 62.27 38.99 L 61.82 38.19 L 62.27 37.25 Z" />
<path fill="#5a5a5a" opacity="1.00" d=" M 82.33 37.23 C 82.75 37.82 82.75 37.82 82.33 37.23 Z" />
<path fill="#5a5a5a" opacity="1.00" d=" M 35.30 38.28 C 35.86 38.76 35.86 38.76 35.30 38.28 Z" />
<path fill="#5a5a5a" opacity="1.00" d=" M 37.25 39.25 C 37.83 39.70 37.83 39.70 37.25 39.25 Z" />
<path fill="#5a5a5a" opacity="1.00" d=" M 71.32 39.28 C 71.73 39.89 71.73 39.89 71.32 39.28 Z" />
<path fill="#5a5a5a" opacity="1.00" d=" M 69.27 40.24 C 69.74 40.79 69.74 40.79 69.27 40.24 Z" />
<path fill="#5a5a5a" opacity="1.00" d=" M 38.23 41.28 C 38.79 41.77 38.79 41.77 38.23 41.28 Z" />
<path fill="#5a5a5a" opacity="1.00" d=" M 67.25 41.29 C 67.82 41.74 67.82 41.74 67.25 41.29 Z" />
<path fill="#5a5a5a" opacity="1.00" d=" M 65.27 42.23 C 65.72 42.81 65.72 42.81 65.27 42.23 Z" />
<path fill="#5a5a5a" opacity="1.00" d=" M 55.21 55.87 C 55.58 56.22 55.95 56.58 56.31 56.93 C 54.70 57.84 53.11 58.77 51.53 59.73 C 53.14 60.90 54.76 62.05 56.36 63.22 C 57.18 62.02 58.00 60.80 58.76 59.55 C 60.54 67.34 61.29 75.32 62.76 83.16 C 58.72 83.00 54.67 83.05 50.63 83.38 C 54.29 85.98 58.76 87.79 63.18 85.95 C 63.74 85.82 64.86 85.57 65.41 85.44 C 64.69 86.48 63.95 87.52 63.20 88.55 C 62.91 89.95 62.62 91.36 62.14 92.71 C 62.04 93.81 61.94 94.92 61.86 96.02 L 60.86 95.90 C 61.13 93.35 61.61 90.83 62.06 88.31 C 60.12 88.24 58.18 88.16 56.24 88.07 C 57.98 91.85 59.35 95.79 60.47 99.79 L 60.44 100.39 C 59.91 99.69 58.87 98.29 58.35 97.59 C 57.72 94.73 56.75 91.95 55.31 89.40 C 55.27 88.89 55.19 87.88 55.15 87.37 C 53.07 86.46 50.66 85.69 49.74 83.39 C 49.43 82.95 48.79 82.08 48.47 81.64 C 48.10 80.53 47.70 79.42 47.29 78.33 C 47.22 75.97 47.20 73.62 47.16 71.26 C 45.92 72.01 44.60 72.70 43.66 73.84 C 44.31 75.12 45.07 76.34 45.81 77.57 C 45.79 78.48 45.76 79.38 45.72 80.29 C 44.43 82.59 44.57 85.37 45.65 87.71 C 45.78 88.97 45.89 90.24 45.99 91.51 C 43.16 92.70 40.73 94.61 38.01 96.01 C 37.73 95.74 37.15 95.22 36.87 94.96 C 38.68 92.49 41.34 90.91 43.75 89.12 C 42.97 88.31 42.19 87.50 41.41 86.70 C 41.12 86.13 40.53 84.98 40.24 84.41 C 40.23 81.74 40.44 79.01 39.55 76.44 C 39.83 75.35 40.11 74.26 40.37 73.17 C 42.67 71.32 45.00 69.49 47.56 68.02 L 46.62 69.87 C 47.45 69.41 48.29 68.96 49.11 68.47 C 52.55 68.88 56.00 69.03 59.46 69.01 C 58.92 67.34 58.36 65.68 57.80 64.02 C 56.51 64.12 55.22 64.22 53.94 64.33 C 52.57 65.97 51.04 67.50 49.11 68.47 C 49.77 67.58 51.08 65.82 51.74 64.93 C 51.09 65.02 49.80 65.19 49.16 65.28 C 49.81 64.62 51.12 63.31 51.78 62.65 C 50.81 60.95 49.84 59.26 48.86 57.57 C 51.21 58.18 53.49 57.65 55.21 55.87 M 47.94 72.84 C 48.19 74.57 48.51 76.29 48.94 77.99 C 52.88 77.91 56.84 78.20 60.76 77.79 C 60.67 76.51 60.34 75.26 60.15 74.00 C 56.87 74.00 53.60 74.00 50.33 74.00 C 49.73 73.71 48.53 73.13 47.94 72.84 M 41.29 75.02 C 41.56 77.53 41.71 80.04 41.79 82.56 C 42.42 83.97 43.02 85.39 43.58 86.83 C 43.21 84.19 43.52 81.53 44.14 78.95 C 43.19 77.64 42.23 76.34 41.29 75.02 Z" />
<path fill="#5a5a5a" opacity="1.00" d=" M 86.12 58.22 C 89.44 58.55 84.41 61.09 86.12 58.22 Z" />
<path fill="#5a5a5a" opacity="1.00" d=" M 31.20 60.27 C 31.66 59.90 32.57 59.14 33.03 58.77 C 31.79 62.17 32.07 65.81 31.93 69.36 C 30.81 72.56 31.09 75.98 30.91 79.31 C 30.01 81.59 30.02 84.06 29.95 86.47 C 31.03 84.29 32.13 82.11 33.44 80.06 C 32.89 81.87 32.27 83.66 31.72 85.47 C 31.46 86.10 30.96 87.37 30.71 88.00 C 30.33 88.00 29.57 88.00 29.19 87.99 C 29.32 85.02 28.67 81.82 30.09 79.07 C 30.45 75.76 29.54 72.18 31.09 69.09 C 31.24 66.15 31.22 63.21 31.20 60.27 Z" />
<path fill="#5a5a5a" opacity="1.00" d=" M 80.32 62.01 C 83.43 60.80 80.10 65.34 80.32 62.01 Z" />
<path fill="#5a5a5a" opacity="1.00" d=" M 47.26 63.31 C 47.84 63.76 47.84 63.76 47.26 63.31 Z" />
<path fill="#5a5a5a" opacity="1.00" d=" M 37.75 69.73 C 37.53 68.57 37.87 67.72 38.77 67.17 C 38.87 67.63 39.07 68.56 39.17 69.02 L 38.49 69.78 L 37.75 69.73 Z" />
</g>
<g id="#92c9e6ff">
<path fill="#92c9e6" opacity="1.00" d=" M 82.76 21.05 C 85.35 20.57 87.96 20.13 90.59 19.83 C 92.97 22.34 95.01 25.30 95.30 28.86 C 96.93 34.61 94.92 40.37 93.72 45.97 C 93.59 46.60 93.32 47.84 93.18 48.46 L 92.54 47.81 C 91.33 46.58 90.06 45.42 88.80 44.25 C 87.65 43.82 86.51 43.37 85.37 42.91 C 79.16 43.22 73.06 44.64 67.43 47.29 C 65.29 48.56 63.11 49.76 60.94 50.97 C 61.16 48.66 61.39 46.35 61.66 44.04 C 61.18 44.26 60.23 44.71 59.75 44.93 C 60.29 43.11 60.85 41.31 61.46 39.52 C 61.66 39.38 62.07 39.12 62.27 38.99 C 62.49 38.52 62.94 37.59 63.16 37.13 C 63.64 36.19 64.37 35.52 65.36 35.12 L 65.80 34.89 C 66.71 33.76 67.49 32.53 68.20 31.26 C 68.91 29.72 70.33 28.73 71.87 28.14 C 72.93 27.12 73.94 26.04 75.12 25.16 C 75.59 24.94 76.52 24.51 76.99 24.29 C 77.31 24.02 77.94 23.48 78.25 23.21 C 78.68 22.95 79.53 22.43 79.96 22.17 L 80.10 21.64 C 80.76 21.49 82.09 21.20 82.76 21.05 M 91.35 25.28 C 91.81 25.83 91.81 25.83 91.35 25.28 M 89.24 26.28 C 89.72 26.79 89.72 26.79 89.24 26.28 M 82.30 29.06 C 82.40 32.41 85.30 27.56 82.30 29.06 M 77.36 30.03 C 77.38 33.38 80.36 28.60 77.36 30.03 M 80.36 30.26 C 80.83 30.77 80.83 30.77 80.36 30.26 M 93.26 32.23 C 93.75 32.77 93.75 32.77 93.26 32.23 M 91.24 33.25 C 91.72 33.79 91.72 33.79 91.24 33.25 M 80.14 35.49 C 79.18 36.62 79.41 37.28 80.84 37.47 C 81.79 36.34 81.56 35.68 80.14 35.49 M 86.22 35.10 C 86.49 38.43 89.13 33.44 86.22 35.10 M 84.21 36.28 C 84.82 36.69 84.82 36.69 84.21 36.28 M 74.30 37.05 C 74.45 40.39 77.26 35.49 74.30 37.05 M 82.33 37.23 C 82.75 37.82 82.75 37.82 82.33 37.23 M 71.32 39.28 C 71.73 39.89 71.73 39.89 71.32 39.28 M 81.15 39.56 C 80.22 40.72 80.48 41.36 81.91 41.50 C 82.83 40.34 82.58 39.69 81.15 39.56 M 69.27 40.24 C 69.74 40.79 69.74 40.79 69.27 40.24 M 67.25 41.29 C 67.82 41.74 67.82 41.74 67.25 41.29 M 65.27 42.23 C 65.72 42.81 65.72 42.81 65.27 42.23 Z" />
<path fill="#92c9e6" opacity="1.00" d=" M 25.01 22.97 C 25.58 23.04 26.73 23.18 27.30 23.25 C 28.37 23.64 29.44 24.00 30.53 24.34 C 33.90 25.98 36.56 28.66 39.71 30.62 C 43.32 33.74 46.47 37.35 49.99 40.57 C 49.93 41.28 49.82 42.71 49.77 43.43 C 47.18 41.89 45.40 38.34 41.97 39.00 C 42.14 39.43 42.49 40.29 42.67 40.73 C 42.11 40.87 41.00 41.16 40.44 41.31 C 40.17 42.35 39.90 43.39 39.64 44.43 C 37.94 46.29 36.68 48.55 36.60 51.12 C 35.07 48.86 33.37 46.71 32.01 44.34 C 31.12 42.99 30.19 41.67 29.21 40.39 C 29.14 39.89 28.99 38.88 28.91 38.38 C 28.23 37.07 27.54 35.75 26.88 34.43 C 26.31 32.72 25.82 30.99 25.21 29.30 C 25.12 27.19 25.06 25.08 25.01 22.97 M 31.28 30.24 C 31.74 30.82 31.74 30.82 31.28 30.24 M 35.26 32.16 C 35.57 35.49 38.13 30.45 35.26 32.16 M 29.27 35.29 C 29.80 35.80 29.80 35.80 29.27 35.29 M 31.20 36.27 C 31.70 36.82 31.70 36.82 31.20 36.27 M 37.11 36.38 C 35.59 39.35 40.46 36.50 37.11 36.38 M 33.36 37.21 C 33.80 37.79 33.80 37.79 33.36 37.21 M 35.30 38.28 C 35.86 38.76 35.86 38.76 35.30 38.28 M 37.25 39.25 C 37.83 39.70 37.83 39.70 37.25 39.25 M 38.23 41.28 C 38.79 41.77 38.79 41.77 38.23 41.28 Z" />
<path fill="#92c9e6" opacity="1.00" d=" M 43.23 41.55 C 44.62 42.59 45.99 43.65 47.35 44.73 C 45.89 44.83 44.44 44.92 42.99 45.01 C 43.05 44.14 43.17 42.42 43.23 41.55 Z" />
<path fill="#92c9e6" opacity="1.00" d=" M 65.24 55.15 C 74.39 56.70 84.08 54.85 92.03 50.08 C 92.48 51.08 92.90 52.09 93.31 53.11 C 91.37 53.22 89.44 53.31 87.50 53.43 C 89.02 53.57 90.54 53.68 92.06 53.78 C 92.70 54.39 93.35 54.99 94.00 55.60 C 93.15 58.26 92.45 60.96 91.58 63.61 C 91.36 63.75 90.91 64.03 90.68 64.17 C 89.42 63.84 88.18 63.47 86.93 63.11 C 87.38 63.49 88.28 64.24 88.73 64.61 C 85.53 66.08 82.10 67.55 78.53 66.52 C 75.14 65.18 71.72 63.88 68.53 62.10 C 68.42 59.65 67.23 57.53 65.45 55.88 C 65.40 55.69 65.30 55.33 65.24 55.15 M 87.11 55.26 C 85.49 58.19 90.44 55.49 87.11 55.26 M 86.12 58.22 C 84.41 61.09 89.44 58.55 86.12 58.22 M 71.66 61.21 C 71.65 62.74 75.33 62.87 75.36 61.31 C 74.43 60.39 72.64 60.35 71.66 61.21 M 85.09 61.52 C 84.14 62.66 84.38 63.31 85.81 63.48 C 86.76 62.34 86.52 61.69 85.09 61.52 M 80.32 62.01 C 80.10 65.34 83.43 60.80 80.32 62.01 Z" />
<path fill="#92c9e6" opacity="1.00" d=" M 46.40 65.45 C 42.88 62.62 39.55 58.61 40.29 53.77 C 41.63 54.80 42.97 55.85 44.29 56.91 C 45.70 57.11 47.10 57.31 48.50 57.52 L 48.86 57.57 C 49.84 59.26 50.81 60.95 51.78 62.65 C 51.12 63.31 49.81 64.62 49.16 65.28 C 49.80 65.19 51.09 65.02 51.74 64.93 C 51.08 65.82 49.77 67.58 49.11 68.47 C 48.29 68.96 47.45 69.41 46.62 69.87 L 47.56 68.02 L 47.79 67.86 C 48.31 67.61 49.35 67.12 49.87 66.87 C 48.73 66.36 47.57 65.89 46.40 65.45 M 47.26 63.31 C 47.84 63.76 47.84 63.76 47.26 63.31 Z" />
</g>
<g id="#a2c0cfff">
<path fill="#a2c0cf" opacity="1.00" d=" M 89.24 26.28 C 89.72 26.79 89.72 26.79 89.24 26.28 Z" />
<path fill="#a2c0cf" opacity="1.00" d=" M 82.30 29.06 C 85.30 27.56 82.40 32.41 82.30 29.06 Z" />
<path fill="#a2c0cf" opacity="1.00" d=" M 80.36 30.26 C 80.83 30.77 80.83 30.77 80.36 30.26 Z" />
<path fill="#a2c0cf" opacity="1.00" d=" M 80.14 35.49 C 81.56 35.68 81.79 36.34 80.84 37.47 C 79.41 37.28 79.18 36.62 80.14 35.49 Z" />
<path fill="#a2c0cf" opacity="1.00" d=" M 86.22 35.10 C 89.13 33.44 86.49 38.43 86.22 35.10 Z" />
<path fill="#a2c0cf" opacity="1.00" d=" M 74.30 37.05 C 77.26 35.49 74.45 40.39 74.30 37.05 Z" />
<path fill="#a2c0cf" opacity="1.00" d=" M 81.15 39.56 C 82.58 39.69 82.83 40.34 81.91 41.50 C 80.48 41.36 80.22 40.72 81.15 39.56 Z" />
<path fill="#a2c0cf" opacity="1.00" d=" M 56.56 48.95 C 56.47 45.83 55.21 42.49 56.69 39.54 C 56.89 42.67 56.71 45.81 56.56 48.95 Z" />
<path fill="#a2c0cf" opacity="1.00" d=" M 41.09 43.30 C 44.37 43.39 39.62 46.35 41.09 43.30 Z" />
<path fill="#a2c0cf" opacity="1.00" d=" M 69.75 47.29 C 75.52 45.60 81.66 43.19 87.68 45.09 C 89.17 46.72 90.71 48.31 92.03 50.08 C 84.08 54.85 74.39 56.70 65.24 55.15 C 65.20 54.37 65.10 52.82 65.06 52.05 C 64.83 51.68 64.38 50.95 64.16 50.59 C 65.40 49.73 66.64 48.86 67.86 47.98 C 69.18 48.29 70.49 48.60 71.81 48.91 C 71.29 48.50 70.27 47.70 69.75 47.29 Z" />
<path fill="#a2c0cf" opacity="1.00" d=" M 40.46 45.96 C 41.93 46.47 40.84 50.05 39.26 49.72 C 38.79 48.43 39.56 46.88 40.46 45.96 Z" />
<path fill="#a2c0cf" opacity="1.00" d=" M 42.09 46.00 C 42.81 46.02 44.25 46.05 44.98 46.06 C 43.38 47.44 42.93 49.25 43.34 51.25 C 42.69 51.11 41.39 50.82 40.75 50.68 C 41.06 50.19 41.68 49.20 41.99 48.71 C 42.02 48.03 42.07 46.68 42.09 46.00 Z" />
<path fill="#a2c0cf" opacity="1.00" d=" M 62.53 52.13 C 63.92 51.23 65.22 53.64 64.09 54.58 C 62.74 55.41 61.41 53.06 62.53 52.13 Z" />
<path fill="#a2c0cf" opacity="1.00" d=" M 44.99 54.99 C 44.44 54.44 44.44 54.44 44.99 54.99 Z" />
<path fill="#a2c0cf" opacity="1.00" d=" M 44.99 54.99 C 45.51 55.50 45.51 55.50 44.99 54.99 Z" />
<path fill="#a2c0cf" opacity="1.00" d=" M 87.11 55.26 C 90.44 55.49 85.49 58.19 87.11 55.26 Z" />
<path fill="#a2c0cf" opacity="1.00" d=" M 71.66 61.21 C 72.64 60.35 74.43 60.39 75.36 61.31 C 75.33 62.87 71.65 62.74 71.66 61.21 Z" />
<path fill="#a2c0cf" opacity="1.00" d=" M 85.09 61.52 C 86.52 61.69 86.76 62.34 85.81 63.48 C 84.38 63.31 84.14 62.66 85.09 61.52 Z" />
<path fill="#a2c0cf" opacity="1.00" d=" M 41.29 75.02 C 42.23 76.34 43.19 77.64 44.14 78.95 C 43.52 81.53 43.21 84.19 43.58 86.83 C 43.02 85.39 42.42 83.97 41.79 82.56 C 41.71 80.04 41.56 77.53 41.29 75.02 Z" />
<path fill="#a2c0cf" opacity="1.00" d=" M 67.82 76.78 C 70.03 78.95 71.80 81.53 73.12 84.33 C 70.35 82.68 68.69 79.81 67.82 76.78 Z" />
</g>
<g id="#f7dc58ff">
<path fill="#f7dc58" opacity="1.00" d=" M 50.02 43.00 C 50.84 43.00 52.49 43.01 53.31 43.01 C 53.14 43.41 52.80 44.22 52.63 44.62 L 52.24 45.54 C 51.98 46.19 51.48 47.48 51.23 48.13 C 52.11 48.19 53.88 48.31 54.76 48.37 C 54.66 48.96 54.45 50.14 54.35 50.73 C 55.57 50.93 56.79 51.12 58.02 51.28 C 58.42 51.29 59.21 51.29 59.60 51.30 C 59.38 52.01 59.15 52.72 58.91 53.43 C 57.01 53.57 55.11 53.79 53.21 53.99 C 54.82 54.59 56.43 55.19 58.03 55.80 L 58.34 54.63 C 58.75 55.35 59.56 56.78 59.97 57.50 C 59.67 58.01 59.06 59.04 58.76 59.55 C 58.00 60.80 57.18 62.02 56.36 63.22 C 54.76 62.05 53.14 60.90 51.53 59.73 C 53.11 58.77 54.70 57.84 56.31 56.93 C 55.95 56.58 55.58 56.22 55.21 55.87 C 53.49 57.65 51.21 58.18 48.86 57.57 L 48.50 57.52 C 48.12 55.11 47.71 52.72 47.26 50.32 C 47.14 48.73 47.01 47.13 46.93 45.53 L 47.08 45.00 C 47.81 45.00 49.27 45.00 49.99 45.00 C 50.00 44.50 50.02 43.50 50.02 43.00 Z" />
<path fill="#f7dc58" opacity="1.00" d=" M 67.48 72.12 C 68.90 71.81 69.38 72.34 68.95 73.72 C 67.54 74.02 67.06 73.49 67.48 72.12 Z" />
<path fill="#f7dc58" opacity="1.00" d=" M 47.94 72.84 C 48.53 73.13 49.73 73.71 50.33 74.00 C 53.60 74.00 56.87 74.00 60.15 74.00 C 60.34 75.26 60.67 76.51 60.76 77.79 C 56.84 78.20 52.88 77.91 48.94 77.99 C 48.51 76.29 48.19 74.57 47.94 72.84 Z" />
<path fill="#f7dc58" opacity="1.00" d=" M 50.63 83.38 C 54.67 83.05 58.72 83.00 62.76 83.16 C 62.87 83.86 63.08 85.25 63.18 85.95 C 58.76 87.79 54.29 85.98 50.63 83.38 Z" />
<path fill="#f7dc58" opacity="1.00" d=" M 56.24 88.07 C 58.18 88.16 60.12 88.24 62.06 88.31 C 61.61 90.83 61.13 93.35 60.86 95.90 C 60.72 97.19 60.79 98.52 60.47 99.79 C 59.35 95.79 57.98 91.85 56.24 88.07 Z" />
</g>
<g id="#fff062ff">
<path fill="#fff062" opacity="1.00" d=" M 52.24 45.54 L 52.63 44.62 C 53.26 44.76 54.54 45.04 55.17 45.19 C 55.07 45.98 54.87 47.57 54.76 48.37 C 53.88 48.31 52.11 48.19 51.23 48.13 C 51.48 47.48 51.98 46.19 52.24 45.54 Z" />
<path fill="#fff062" opacity="1.00" d=" M 58.23 44.78 C 59.49 45.03 60.06 45.79 59.95 47.07 C 59.49 46.90 58.58 46.55 58.12 46.37 C 58.15 45.97 58.20 45.18 58.23 44.78 Z" />
<path fill="#fff062" opacity="1.00" d=" M 53.94 64.33 C 55.22 64.22 56.51 64.12 57.80 64.02 C 58.36 65.68 58.92 67.34 59.46 69.01 C 56.00 69.03 52.55 68.88 49.11 68.47 C 51.04 67.50 52.57 65.97 53.94 64.33 Z" />
</g>
<g id="#cc6152ff">
<path fill="#cc6152" opacity="1.00" d=" M 46.25 47.35 C 46.42 46.89 46.76 45.99 46.93 45.53 C 47.01 47.13 47.14 48.73 47.26 50.32 L 47.25 52.46 C 46.72 52.38 45.66 52.21 45.13 52.12 C 44.81 50.99 44.59 49.83 44.54 48.66 C 44.97 48.33 45.82 47.67 46.25 47.35 Z" />
<path fill="#cc6152" opacity="1.00" d=" M 58.12 46.37 C 58.58 46.55 59.49 46.90 59.95 47.07 C 59.94 48.49 59.82 49.90 59.60 51.30 C 59.21 51.29 58.42 51.29 58.02 51.28 C 58.07 49.65 58.10 48.01 58.12 46.37 Z" />
</g>
<g id="#e9efefff">
<path fill="#e9efef" opacity="1.00" d=" M 45.35 47.17 L 46.25 47.35 C 45.82 47.67 44.97 48.33 44.54 48.66 C 44.75 48.29 45.15 47.54 45.35 47.17 Z" />
<path fill="#e9efef" opacity="1.00" d=" M 59.98 57.93 C 62.27 58.31 65.17 57.36 66.92 59.30 C 67.19 61.72 66.90 64.15 66.67 66.56 C 65.41 72.53 64.92 78.61 64.05 84.64 L 65.72 84.85 C 65.62 83.97 65.42 82.22 65.32 81.35 L 65.90 81.54 C 66.41 81.91 67.44 82.65 67.96 83.02 C 67.36 83.62 66.16 84.81 65.56 85.41 L 65.41 85.44 C 64.86 85.57 63.74 85.82 63.18 85.95 C 63.08 85.25 62.87 83.86 62.76 83.16 C 61.29 75.32 60.54 67.34 58.76 59.55 L 60.26 60.30 C 60.19 59.71 60.05 58.52 59.98 57.93 Z" />
<path fill="#e9efef" opacity="1.00" d=" M 33.03 58.77 C 35.32 59.24 38.09 58.57 39.93 60.31 C 40.02 61.87 39.88 63.43 39.75 64.98 C 39.70 65.42 39.61 66.30 39.57 66.74 L 38.77 67.17 C 37.87 67.72 37.53 68.57 37.75 69.73 C 37.65 71.13 36.87 72.33 36.30 73.56 C 35.31 75.38 34.61 77.33 33.93 79.27 C 33.81 79.47 33.56 79.86 33.44 80.06 C 32.13 82.11 31.03 84.29 29.95 86.47 C 30.02 84.06 30.01 81.59 30.91 79.31 C 31.09 75.98 30.81 72.56 31.93 69.36 C 32.07 65.81 31.79 62.17 33.03 58.77 Z" />
</g>
<g id="#e98788ff">
<path fill="#e98788" opacity="1.00" d=" M 45.13 52.12 C 45.66 52.21 46.72 52.38 47.25 52.46 C 47.24 52.85 47.22 53.63 47.21 54.01 C 46.02 53.95 45.32 53.32 45.13 52.12 Z" />
</g>
</svg>
