<?xml version="1.0" encoding="UTF-8" ?>
<!DOCTYPE svg PUBLIC "-//W3C//DTD SVG 1.1//EN" "http://www.w3.org/Graphics/SVG/1.1/DTD/svg11.dtd">
<svg width="120pt" height="120pt" viewBox="0 0 120 120" version="1.1" xmlns="http://www.w3.org/2000/svg">
<g id="#4c532ded">
<path fill="#4c532d" opacity="0.93" d=" M 52.83 37.26 C 54.40 33.99 58.04 32.58 61.50 33.04 C 66.33 35.01 69.12 40.72 66.82 45.57 C 65.85 47.20 65.12 49.40 63.04 49.89 C 62.58 50.06 61.66 50.40 61.20 50.56 C 63.95 48.71 65.79 45.85 66.67 42.69 C 66.40 41.22 66.18 39.75 65.97 38.27 C 63.78 35.90 61.08 33.73 57.66 33.89 C 56.06 35.03 54.42 36.11 52.83 37.26 Z" />
</g>
<g id="#ffff78ff">
<path fill="#ffff78" opacity="1.00" d=" M 57.66 33.89 C 61.08 33.73 63.78 35.90 65.97 38.27 C 66.18 39.75 66.40 41.22 66.67 42.69 C 65.79 45.85 63.95 48.71 61.20 50.56 L 60.50 51.09 L 60.48 51.73 C 57.70 49.85 54.59 48.03 51.09 48.55 C 51.10 45.93 51.07 43.30 51.08 40.68 C 51.43 39.92 52.14 38.40 52.50 37.64 C 52.58 37.55 52.74 37.36 52.83 37.26 C 54.42 36.11 56.06 35.03 57.66 33.89 M 52.30 43.02 C 52.41 43.02 52.63 43.02 52.74 43.02 C 52.63 43.02 52.41 43.02 52.30 43.02 M 59.15 42.38 C 59.16 42.95 59.16 44.08 59.16 44.64 C 61.25 45.78 61.23 41.20 59.15 42.38 Z" />
</g>
<g id="#313c32fc">
<path fill="#313c32" opacity="1.00" d=" M 49.68 49.47 C 51.08 45.67 48.21 40.10 52.50 37.64 C 52.14 38.40 51.43 39.92 51.08 40.68 C 51.07 43.30 51.10 45.93 51.09 48.55 C 54.59 48.03 57.70 49.85 60.48 51.73 L 60.49 52.22 C 60.26 53.69 60.04 55.15 59.79 56.61 C 57.00 55.22 53.10 55.16 51.45 52.13 C 52.82 52.08 54.20 52.03 55.58 52.01 C 56.75 53.42 57.95 54.80 59.17 56.16 C 59.04 54.37 58.75 52.59 58.39 50.83 C 55.68 49.64 52.74 48.51 49.90 50.03 C 49.95 50.66 50.05 51.93 50.09 52.56 C 51.30 53.88 52.34 55.36 53.26 56.90 C 47.96 56.74 43.34 53.27 37.91 54.00 C 38.08 54.32 38.41 54.96 38.58 55.28 C 37.21 55.38 35.86 55.58 34.55 55.97 C 39.76 60.34 46.02 64.01 53.00 64.12 C 55.13 64.14 57.00 62.97 58.89 62.14 C 57.65 60.25 55.89 58.85 54.07 57.56 L 53.92 57.43 C 54.22 57.27 54.83 56.94 55.13 56.78 C 56.32 57.58 57.50 58.38 58.68 59.19 C 59.00 58.79 59.62 57.99 59.94 57.59 C 60.22 58.05 60.79 58.95 61.08 59.40 C 56.79 65.04 59.34 72.64 56.20 78.65 C 56.13 77.30 56.10 75.95 56.12 74.60 C 58.00 71.40 56.38 67.36 58.06 63.97 C 57.41 64.21 56.10 64.67 55.45 64.90 C 52.78 64.97 49.92 65.49 47.42 64.27 C 44.09 63.99 41.23 62.15 38.37 60.58 C 36.39 58.85 34.33 57.13 31.64 56.67 C 32.85 55.73 34.13 54.89 35.51 54.23 C 36.60 54.03 37.63 53.68 38.61 53.16 C 40.93 53.11 43.49 52.52 45.58 53.83 C 46.05 53.93 46.99 54.13 47.45 54.24 C 48.16 54.54 49.57 55.14 50.27 55.44 C 48.83 53.68 48.76 51.47 49.68 49.47 Z" />
</g>
<g id="#ffffffff">
<path fill="#ffffff" opacity="1.00" d=" M 52.30 43.02 C 52.41 43.02 52.63 43.02 52.74 43.02 L 52.30 43.02 Z" />
</g>
<g id="#0e0e0dff">
<path fill="#0e0e0d" opacity="1.00" d=" M 59.15 42.38 C 61.23 41.20 61.25 45.78 59.16 44.64 C 59.16 44.08 59.16 42.95 59.15 42.38 Z" />
</g>
<g id="#666560ff">
<path fill="#666560" opacity="1.00" d=" M 52.30 43.02 L 52.74 43.02 C 52.63 43.02 52.41 43.02 52.30 43.02 Z" />
</g>
<g id="#b18d8bff">
<path fill="#b18d8b" opacity="1.00" d=" M 49.90 50.03 C 52.74 48.51 55.68 49.64 58.39 50.83 C 58.75 52.59 59.04 54.37 59.17 56.16 C 57.95 54.80 56.75 53.42 55.58 52.01 C 54.20 52.03 52.82 52.08 51.45 52.13 C 53.10 55.16 57.00 55.22 59.79 56.61 C 58.24 56.64 56.68 56.69 55.13 56.78 C 54.83 56.94 54.22 57.27 53.92 57.43 C 53.75 57.30 53.43 57.03 53.26 56.90 C 52.34 55.36 51.30 53.88 50.09 52.56 C 50.05 51.93 49.95 50.66 49.90 50.03 Z" />
</g>
<g id="#303830fc">
<path fill="#303830" opacity="1.00" d=" M 61.20 50.56 C 61.66 50.40 62.58 50.06 63.04 49.89 C 62.91 51.80 63.46 53.96 62.11 55.57 C 62.01 57.49 62.00 59.42 62.01 61.35 C 62.93 60.95 63.85 60.53 64.76 60.11 C 67.35 60.20 70.27 59.34 72.59 60.88 C 73.56 60.97 74.53 61.05 75.50 61.14 C 77.09 62.11 78.76 62.95 80.47 63.70 C 83.02 65.20 85.28 67.16 87.97 68.41 C 87.98 68.76 88.00 69.46 88.01 69.81 C 86.75 69.90 85.56 70.23 84.45 70.80 C 83.98 70.90 83.04 71.10 82.57 71.20 C 79.83 72.57 76.19 72.46 73.43 71.19 C 71.74 70.99 69.92 71.16 68.43 70.18 C 67.96 70.11 67.01 69.97 66.54 69.90 C 64.83 68.67 62.68 67.08 60.91 69.21 C 61.22 71.99 61.05 74.76 60.15 77.40 C 61.37 79.74 62.23 82.80 64.80 83.96 C 67.43 83.11 70.19 82.80 72.85 82.01 C 74.91 82.33 75.88 84.50 76.30 86.32 C 75.28 85.94 74.28 85.51 73.30 85.03 C 71.97 86.53 68.39 88.45 68.78 84.85 C 67.11 85.62 65.34 86.09 63.49 86.07 C 60.51 84.53 58.78 81.54 57.45 78.58 C 61.40 74.94 60.14 68.97 60.41 64.17 C 60.71 62.59 61.00 61.01 61.08 59.40 C 60.79 58.95 60.22 58.05 59.94 57.59 C 60.81 55.93 60.85 54.03 60.49 52.22 L 60.48 51.73 L 60.50 51.09 L 61.20 50.56 M 64.57 61.30 C 62.95 61.70 59.64 63.35 61.66 65.27 C 66.06 69.36 72.30 70.14 77.97 71.18 C 80.27 70.89 84.24 71.03 84.97 68.32 C 79.15 64.04 72.05 60.08 64.57 61.30 M 71.25 83.14 C 69.69 83.43 69.92 86.05 71.65 85.01 C 73.18 84.71 72.96 82.12 71.25 83.14 Z" />
</g>
<g id="#99d18fff">
<path fill="#99d18f" opacity="1.00" d=" M 37.91 54.00 C 43.34 53.27 47.96 56.74 53.26 56.90 C 53.43 57.03 53.75 57.30 53.92 57.43 L 54.07 57.56 C 55.89 58.85 57.65 60.25 58.89 62.14 C 57.00 62.97 55.13 64.14 53.00 64.12 C 46.02 64.01 39.76 60.34 34.55 55.97 C 35.86 55.58 37.21 55.38 38.58 55.28 C 38.41 54.96 38.08 54.32 37.91 54.00 M 42.32 56.30 C 42.70 56.72 42.70 56.72 42.32 56.30 M 49.39 58.28 C 49.79 58.63 49.79 58.63 49.39 58.28 M 52.23 59.13 C 52.52 62.46 55.12 57.45 52.23 59.13 Z" />
</g>
<g id="#588450ff">
<path fill="#588450" opacity="1.00" d=" M 42.32 56.30 C 42.70 56.72 42.70 56.72 42.32 56.30 Z" />
</g>
<g id="#517948ff">
<path fill="#517948" opacity="1.00" d=" M 49.39 58.28 C 49.79 58.63 49.79 58.63 49.39 58.28 Z" />
</g>
<g id="#6f9968ff">
<path fill="#6f9968" opacity="1.00" d=" M 52.23 59.13 C 55.12 57.45 52.52 62.46 52.23 59.13 Z" />
</g>
<g id="#b9a88dff">
<path fill="#b9a88d" opacity="1.00" d=" M 56.20 78.65 C 59.34 72.64 56.79 65.04 61.08 59.40 C 61.00 61.01 60.71 62.59 60.41 64.17 C 60.14 68.97 61.40 74.94 57.45 78.58 L 56.79 79.28 C 56.64 79.12 56.35 78.81 56.20 78.65 Z" />
</g>
<g id="#98d08eff">
<path fill="#98d08e" opacity="1.00" d=" M 64.57 61.30 C 72.05 60.08 79.15 64.04 84.97 68.32 C 84.24 71.03 80.27 70.89 77.97 71.18 C 72.30 70.14 66.06 69.36 61.66 65.27 C 59.64 63.35 62.95 61.70 64.57 61.30 M 65.36 62.30 C 65.71 62.68 65.71 62.68 65.36 62.30 M 72.34 64.26 C 72.74 64.63 72.74 64.63 72.34 64.26 M 77.33 66.31 C 77.74 66.67 77.74 66.67 77.33 66.31 M 79.34 67.28 C 79.74 67.67 79.74 67.67 79.34 67.28 Z" />
</g>
<g id="#4e7148ff">
<path fill="#4e7148" opacity="1.00" d=" M 65.36 62.30 C 65.71 62.68 65.71 62.68 65.36 62.30 Z" />
</g>
<g id="#537c4aff">
<path fill="#537c4a" opacity="1.00" d=" M 72.34 64.26 C 72.74 64.63 72.74 64.63 72.34 64.26 Z" />
</g>
<g id="#537c49ff">
<path fill="#537c49" opacity="1.00" d=" M 77.33 66.31 C 77.74 66.67 77.74 66.67 77.33 66.31 Z" />
</g>
<g id="#567f4eff">
<path fill="#567f4e" opacity="1.00" d=" M 79.34 67.28 C 79.74 67.67 79.74 67.67 79.34 67.28 Z" />
</g>
<g id="#2b2e2cff">
<path fill="#2b2e2c" opacity="1.00" d=" M 55.41 77.80 L 56.20 78.65 C 56.35 78.81 56.64 79.12 56.79 79.28 L 57.05 79.55 C 55.78 81.54 54.30 83.37 52.61 85.01 C 49.53 84.76 46.12 85.77 43.32 84.13 C 42.26 84.97 41.01 85.28 39.57 85.07 C 41.19 83.39 43.73 80.72 45.95 83.13 L 46.05 81.90 C 47.61 83.24 49.70 83.30 51.63 82.94 C 52.96 81.27 54.06 79.44 55.41 77.80 Z" />
</g>
<g id="#5a5244ff">
<path fill="#5a5244" opacity="1.00" d=" M 71.25 83.14 C 72.96 82.12 73.18 84.71 71.65 85.01 C 69.92 86.05 69.69 83.43 71.25 83.14 Z" />
</g>
</svg>
