<?xml version="1.0" encoding="UTF-8" ?>
<!DOCTYPE svg PUBLIC "-//W3C//DTD SVG 1.1//EN" "http://www.w3.org/Graphics/SVG/1.1/DTD/svg11.dtd">
<svg width="120pt" height="120pt" viewBox="0 0 120 120" version="1.1" xmlns="http://www.w3.org/2000/svg">
<g id="#303030ff">
<path fill="#303030" opacity="1.00" d=" M 44.43 16.12 C 50.46 15.91 56.51 16.51 62.41 14.98 C 64.82 17.55 68.11 14.53 70.99 14.91 C 71.00 17.15 71.00 19.38 71.03 21.62 C 73.97 23.07 76.48 25.24 79.39 26.76 C 80.26 27.23 81.11 27.71 81.97 28.21 C 84.54 26.70 86.64 23.71 89.93 24.07 C 87.06 26.23 84.07 28.20 81.16 30.29 C 84.08 32.37 86.48 28.25 88.94 27.08 C 89.08 28.61 89.21 30.13 89.35 31.66 C 90.43 32.80 91.50 33.94 92.56 35.09 C 94.91 34.75 96.89 33.56 97.94 31.38 C 98.66 35.78 101.45 39.37 103.43 43.26 C 100.42 47.35 94.61 48.44 92.48 53.22 C 94.62 52.18 96.70 51.00 98.75 49.79 C 98.87 51.13 99.22 52.41 99.82 53.62 C 99.94 54.56 100.06 55.51 100.18 56.46 C 101.77 58.57 100.18 61.54 101.89 63.59 C 102.11 67.54 101.85 71.51 102.11 75.46 C 103.90 78.15 103.37 82.37 100.80 84.44 C 102.43 81.44 102.36 78.05 101.24 74.90 C 100.76 73.57 100.19 72.28 99.60 71.00 C 96.95 65.53 94.96 59.76 92.31 54.29 C 92.28 53.66 92.21 52.42 92.18 51.80 C 91.24 50.05 90.34 48.28 89.51 46.47 C 88.36 42.45 85.70 39.13 83.62 35.57 C 80.57 30.21 76.19 25.70 70.80 22.70 C 71.81 26.81 72.44 31.06 71.81 35.29 C 71.05 36.99 71.02 38.85 70.89 40.67 C 69.77 42.32 68.62 43.95 67.47 45.58 C 70.59 44.04 73.42 41.97 76.53 40.41 C 78.50 40.04 80.53 40.20 82.53 40.14 C 87.38 42.19 88.58 47.68 88.65 52.40 C 88.12 53.90 87.39 55.31 86.72 56.74 C 86.18 56.98 85.11 57.46 84.57 57.70 C 83.20 58.39 81.82 59.09 80.45 59.79 C 79.00 59.91 77.54 60.00 76.10 60.27 C 74.86 60.48 73.62 60.72 72.38 60.95 C 71.33 60.45 70.27 59.96 69.21 59.46 C 60.25 63.52 48.82 64.37 40.19 59.03 C 39.90 59.55 39.30 60.60 39.01 61.13 C 37.66 61.22 36.27 62.39 37.08 63.84 C 38.58 68.02 39.37 73.25 43.58 75.64 C 47.28 77.25 51.33 78.19 55.38 78.12 C 55.11 78.46 54.56 79.15 54.29 79.49 C 50.44 78.67 46.65 77.66 42.90 76.48 C 46.73 80.90 51.41 84.48 56.29 87.66 C 61.58 90.83 67.83 91.61 73.71 93.12 C 73.36 91.10 71.58 90.74 69.86 90.45 C 70.94 90.36 72.02 90.27 73.10 90.17 C 72.71 88.28 72.33 86.39 71.99 84.50 C 72.71 83.44 73.42 82.38 74.13 81.32 C 75.35 79.23 76.98 77.39 79.26 76.43 C 78.82 76.00 78.38 75.57 77.94 75.14 C 80.96 74.31 84.05 73.55 86.84 72.07 C 86.49 68.41 83.85 65.40 82.59 61.99 C 79.66 62.64 76.65 62.58 73.73 61.88 C 74.10 61.63 74.83 61.12 75.19 60.87 C 77.17 61.03 79.15 61.22 81.13 61.43 C 81.54 61.06 82.38 60.32 82.79 59.96 C 85.27 64.34 87.12 69.06 89.75 73.36 C 91.03 74.20 92.61 74.43 94.02 74.99 C 95.17 75.89 96.22 76.89 97.23 77.95 C 97.79 80.37 97.96 82.86 98.19 85.33 C 98.73 85.31 99.80 85.25 100.34 85.23 C 99.76 85.50 98.59 86.03 98.01 86.30 C 97.43 90.03 99.29 94.57 96.86 97.75 C 99.04 99.02 101.78 100.21 102.33 102.98 C 98.77 103.44 94.74 102.01 91.51 103.86 C 90.53 103.95 89.55 104.05 88.57 104.14 C 87.17 105.44 84.97 105.28 83.49 104.24 C 82.12 103.97 80.61 104.02 79.45 103.11 C 76.19 102.93 72.92 103.03 69.65 102.98 C 71.07 101.48 72.52 100.01 74.01 98.59 C 74.03 97.13 74.04 95.67 74.05 94.22 C 72.79 94.10 71.58 93.76 70.45 93.20 C 68.77 92.99 66.98 93.13 65.45 92.26 C 64.09 92.01 62.65 91.96 61.46 91.17 C 60.81 91.09 59.51 90.93 58.87 90.85 C 59.54 92.05 60.00 93.34 60.22 94.70 C 60.80 95.01 61.95 95.63 62.53 95.94 C 63.09 95.95 64.21 95.95 64.77 95.95 C 65.31 96.93 65.83 97.93 66.34 98.93 C 65.08 98.98 63.81 99.04 62.55 99.12 C 59.64 101.38 55.38 98.60 52.47 100.90 C 49.50 100.77 46.09 101.85 43.45 100.09 C 41.49 100.19 39.05 99.27 37.53 100.96 C 35.88 101.01 34.24 100.98 32.59 100.89 C 31.41 100.18 30.12 99.82 28.71 99.80 C 29.30 99.26 29.88 98.71 30.46 98.17 C 33.99 101.55 38.68 99.20 42.87 99.05 L 42.02 98.24 C 43.05 98.68 44.08 99.10 45.12 99.50 C 46.31 98.32 47.49 97.14 48.68 95.97 C 48.62 96.25 48.49 96.80 48.43 97.07 C 47.57 98.12 46.72 99.17 45.87 100.22 C 48.24 100.22 50.61 100.21 52.99 100.17 C 52.38 99.71 51.16 98.81 50.55 98.36 C 53.61 99.18 57.05 99.81 59.97 98.16 C 60.76 100.09 62.69 98.35 63.84 97.79 C 62.61 97.18 61.30 96.78 59.97 96.46 C 59.05 94.17 58.24 91.84 57.25 89.58 C 53.89 87.58 50.71 85.28 47.63 82.87 C 46.98 84.80 46.29 86.72 45.46 88.59 C 45.91 86.43 46.40 84.29 46.84 82.14 C 44.15 79.71 41.64 77.06 39.75 73.95 C 38.90 74.64 38.06 75.34 37.19 76.01 C 36.99 74.59 38.44 73.92 39.30 73.10 C 37.63 71.09 36.31 68.83 35.17 66.49 C 35.09 66.00 34.93 65.03 34.85 64.54 C 33.80 63.23 34.10 61.53 33.95 60.00 C 30.49 59.63 26.59 60.93 23.44 59.13 C 22.12 59.04 20.79 58.99 19.46 58.95 C 17.07 57.98 15.67 55.96 15.25 53.46 C 15.75 51.51 16.42 49.51 18.39 48.58 C 17.94 49.40 17.05 51.04 16.60 51.87 C 17.93 51.76 19.27 51.67 20.61 51.60 C 21.50 51.44 23.29 51.13 24.18 50.97 C 24.20 53.14 22.95 54.60 21.05 55.49 C 20.92 56.01 20.65 57.05 20.52 57.58 C 25.80 58.66 32.26 61.05 36.67 56.62 C 36.53 54.95 36.39 53.29 36.26 51.63 C 36.62 52.64 37.33 54.67 37.69 55.68 C 38.98 50.83 39.50 45.82 39.22 40.81 C 37.26 40.92 35.28 41.03 33.41 41.68 C 32.95 41.80 32.03 42.03 31.57 42.15 C 30.82 42.53 29.34 43.28 28.59 43.65 C 29.30 42.61 30.22 41.77 31.35 41.15 C 32.14 41.02 33.72 40.76 34.50 40.64 C 33.29 38.86 31.20 39.09 29.39 38.85 C 27.99 38.05 26.69 37.09 25.49 36.02 C 24.30 37.66 21.94 37.14 20.46 36.26 C 19.10 36.02 17.69 35.91 16.46 35.23 C 14.85 35.02 13.02 35.16 12.02 33.59 C 11.96 31.76 12.83 30.07 13.26 28.32 C 13.97 27.56 14.68 26.79 15.39 26.01 C 16.74 26.05 18.10 26.08 19.46 26.15 C 20.59 27.07 22.08 27.01 23.43 27.28 C 24.48 27.75 25.58 28.07 26.73 28.22 C 26.80 32.18 30.67 27.39 32.53 29.76 C 34.27 30.05 35.94 30.65 37.67 30.98 C 38.31 29.71 38.81 28.37 39.25 27.03 L 39.45 27.18 C 41.50 29.88 44.63 29.00 47.46 28.38 C 44.92 30.14 41.85 29.54 39.02 29.02 C 39.03 29.71 39.03 31.09 39.03 31.79 C 39.44 32.07 40.25 32.63 40.66 32.92 C 47.07 30.86 53.66 33.05 60.09 33.66 C 62.20 33.95 63.06 31.70 64.20 30.40 C 64.41 30.70 64.84 31.30 65.05 31.60 C 63.68 32.76 62.38 34.02 60.85 34.95 C 55.19 34.48 49.65 32.50 43.92 33.04 C 41.98 32.99 40.94 34.88 39.59 35.96 C 42.56 39.51 46.74 42.01 51.45 42.23 L 51.38 40.05 C 51.44 40.50 51.57 41.39 51.63 41.84 C 57.03 41.61 62.86 42.90 67.70 39.78 C 67.87 36.94 67.80 34.09 67.24 31.29 C 68.47 34.00 68.29 37.00 68.21 39.90 C 69.22 37.99 70.95 36.29 71.14 34.03 C 71.84 29.02 69.34 24.27 69.63 19.25 C 69.41 20.45 69.20 21.65 68.99 22.85 C 67.51 22.03 66.03 21.20 64.56 20.37 C 66.00 18.36 68.20 17.23 70.33 16.11 C 68.54 16.63 66.77 17.35 64.89 17.48 C 62.74 17.06 60.45 15.16 58.38 16.87 C 54.37 17.11 50.34 16.99 46.32 17.01 C 45.50 17.80 44.69 18.58 43.87 19.37 C 44.15 20.90 44.45 22.43 44.75 23.95 C 46.90 23.95 49.05 24.04 51.19 23.78 C 53.94 22.41 56.55 20.69 59.59 19.99 C 59.99 21.28 60.40 22.56 60.81 23.85 L 60.30 23.90 C 59.99 22.79 59.49 21.77 58.81 20.85 C 57.33 21.25 55.92 21.86 54.49 22.41 C 55.51 23.37 56.67 24.13 58.12 24.10 C 52.27 24.93 45.74 22.63 40.57 26.45 C 41.35 25.46 42.15 24.48 42.97 23.52 C 43.40 21.07 41.97 17.74 44.43 16.12 M 15.19 26.91 C 15.35 27.46 15.66 28.57 15.81 29.13 C 15.40 28.79 14.57 28.10 14.15 27.76 C 14.13 29.49 13.73 31.12 12.95 32.66 C 16.90 33.86 20.85 35.10 24.94 35.70 C 25.57 33.59 26.06 31.44 26.28 29.25 C 22.55 28.60 19.01 27.03 15.19 26.91 M 27.25 31.20 C 26.79 32.20 26.33 33.20 25.87 34.20 C 26.24 34.58 26.99 35.33 27.37 35.71 L 28.68 35.78 L 27.66 36.24 C 31.66 38.01 36.29 37.89 39.97 40.47 C 39.77 44.14 40.61 48.00 39.30 51.52 C 39.02 54.22 37.77 56.64 36.90 59.18 C 36.42 59.17 35.45 59.15 34.96 59.14 C 35.14 60.62 35.30 62.10 35.45 63.58 C 35.87 61.76 36.94 60.28 38.61 59.46 C 39.99 57.37 41.22 55.14 41.47 52.60 C 43.12 48.97 40.98 44.64 43.10 41.16 C 41.54 39.77 39.91 38.41 38.60 36.77 C 39.08 34.90 38.88 32.98 37.45 31.57 L 37.27 32.55 C 35.64 31.74 33.93 31.09 32.09 31.01 C 31.93 32.47 31.79 33.95 31.41 35.38 C 31.25 33.57 31.24 31.74 31.19 29.92 C 29.87 30.34 28.56 30.79 27.25 31.20 M 88.88 34.99 C 89.48 36.62 90.48 38.04 91.58 39.37 C 92.82 39.38 94.07 39.39 95.31 39.40 C 95.85 37.82 96.41 36.25 97.04 34.70 C 94.47 36.41 91.57 36.42 88.88 34.99 M 70.42 44.74 C 75.72 46.38 78.83 53.32 74.74 57.76 C 78.19 57.52 82.34 58.89 85.11 56.11 C 87.87 54.56 86.20 50.97 86.85 48.51 C 86.17 48.73 84.80 49.15 84.11 49.37 L 86.39 48.38 C 85.48 47.39 84.65 46.33 83.90 45.20 C 85.09 46.36 86.20 47.60 87.44 48.72 C 86.99 46.05 85.63 43.74 83.81 41.79 C 82.22 41.37 80.64 40.76 78.97 40.83 C 75.61 40.56 73.26 43.45 70.42 44.74 M 43.10 41.16 C 42.73 46.97 43.26 52.93 40.96 58.45 C 49.06 63.68 59.43 61.96 68.14 59.36 C 66.56 58.49 64.88 57.92 63.11 57.64 C 63.16 57.20 63.25 56.31 63.29 55.87 C 62.46 55.84 60.78 55.77 59.95 55.74 C 60.01 55.31 60.13 54.46 60.19 54.03 C 60.79 54.36 62.01 55.02 62.61 55.35 C 59.73 53.14 62.56 50.16 63.90 47.99 C 66.24 46.55 67.85 44.37 69.08 41.95 L 67.32 42.00 C 65.77 41.64 64.52 41.99 63.58 43.04 C 62.41 42.77 60.05 42.23 58.87 41.95 L 61.16 43.86 C 56.90 44.33 52.52 46.01 48.49 43.57 C 46.94 42.81 45.34 42.05 43.59 41.92 L 43.10 41.16 M 62.49 51.48 C 63.53 51.09 65.59 50.32 66.62 49.94 C 66.60 52.65 67.91 55.14 67.88 57.85 C 70.00 57.81 72.12 57.73 74.24 57.62 C 75.01 56.11 75.97 54.68 76.45 53.05 C 76.30 50.82 74.82 48.97 73.94 46.98 C 72.63 46.33 71.46 45.29 69.96 45.15 C 66.76 46.16 63.78 48.28 62.49 51.48 M 62.97 53.52 C 63.79 55.53 67.09 52.92 65.93 51.27 C 64.64 50.95 63.53 52.53 62.97 53.52 M 87.24 51.73 C 87.82 52.31 87.82 52.31 87.24 51.73 M 18.09 52.28 C 17.78 53.68 18.33 54.26 19.71 54.01 C 20.01 52.62 19.47 52.05 18.09 52.28 M 21.12 52.20 C 20.54 53.80 21.10 54.33 22.77 53.80 C 23.34 52.20 22.79 51.67 21.12 52.20 M 94.08 54.10 C 96.10 59.52 98.74 64.68 100.65 70.14 C 100.62 63.93 99.52 57.66 97.68 51.72 C 96.48 52.51 95.28 53.31 94.08 54.10 M 18.03 55.35 C 17.71 56.79 18.23 57.33 19.59 56.97 C 19.89 55.55 19.37 55.00 18.03 55.35 M 64.58 55.64 C 63.17 57.14 66.12 57.92 66.83 56.66 C 68.07 55.07 65.31 54.23 64.58 55.64 M 84.58 74.55 C 80.97 76.47 76.48 77.69 74.68 81.76 C 73.65 83.28 71.47 86.92 74.51 87.37 C 74.27 88.62 74.11 89.88 74.02 91.15 C 75.40 93.69 74.63 96.76 75.89 99.32 L 75.61 98.97 C 74.20 100.02 72.79 101.09 71.44 102.23 C 73.67 102.22 75.90 102.20 78.13 102.16 L 77.28 101.12 C 77.98 101.38 79.38 101.91 80.08 102.17 C 81.23 101.33 82.38 100.49 83.49 99.61 C 82.83 100.37 81.52 101.90 80.86 102.66 C 82.44 102.80 84.00 103.18 85.49 103.71 C 87.24 103.58 88.98 103.37 90.72 103.18 C 90.54 101.62 89.89 100.06 88.52 99.17 C 90.07 100.20 91.52 101.37 92.98 102.53 C 93.54 102.10 94.66 101.24 95.22 100.81 L 94.58 102.23 C 96.73 102.24 98.87 102.24 101.01 102.20 C 99.67 100.63 97.90 99.68 95.87 99.34 C 97.36 96.04 97.36 92.33 97.12 88.80 C 96.74 88.53 95.98 88.01 95.60 87.74 C 96.05 87.39 96.94 86.68 97.39 86.32 C 97.06 82.60 97.04 77.77 93.12 75.87 C 90.46 74.83 87.36 72.77 84.58 74.55 Z" />
<path fill="#303030" opacity="1.00" d=" M 89.20 23.37 C 90.04 21.62 92.02 22.23 93.52 21.96 C 95.20 23.29 97.81 24.19 98.00 26.68 C 96.95 25.83 95.91 24.97 94.88 24.10 C 92.99 23.88 91.09 23.64 89.20 23.37 Z" />
<path fill="#303030" opacity="1.00" d=" M 89.74 28.17 C 90.72 27.09 91.70 26.01 92.68 24.93 C 94.78 24.77 97.57 25.54 97.42 28.17 C 98.39 30.24 95.88 31.08 94.73 32.15 C 93.35 31.96 91.99 31.71 90.64 31.41 C 90.35 30.33 90.05 29.25 89.74 28.17 Z" />
<path fill="#303030" opacity="1.00" d=" M 98.01 26.75 C 100.80 30.54 103.32 34.52 105.88 38.47 C 105.96 38.97 106.10 39.97 106.18 40.46 C 107.17 41.79 106.95 43.47 107.09 45.01 L 106.13 44.99 C 105.20 39.08 101.68 34.11 98.13 29.47 C 98.10 28.79 98.04 27.43 98.01 26.75 Z" />
<path fill="#303030" opacity="1.00" d=" M 22.38 45.20 C 24.29 44.69 26.21 44.17 28.18 43.93 L 27.45 44.44 C 26.44 45.09 25.36 45.61 24.26 46.11 C 23.68 46.11 23.11 46.12 22.53 46.13 C 21.79 46.47 20.29 47.16 19.55 47.51 C 20.32 46.54 21.26 45.77 22.38 45.20 Z" />
<path fill="#303030" opacity="1.00" d=" M 103.07 46.79 C 103.54 46.56 104.47 46.11 104.94 45.88 L 104.82 46.77 L 103.87 47.23 L 103.07 46.79 Z" />
<path fill="#303030" opacity="1.00" d=" M 100.09 48.75 C 100.55 48.50 101.47 48.00 101.94 47.75 L 101.87 48.66 L 100.92 49.17 L 100.09 48.75 Z" />
<path fill="#303030" opacity="1.00" d=" M 28.47 55.48 L 28.51 55.48 C 28.49 55.49 28.45 55.49 28.43 55.49 L 28.47 55.48 Z" />
<path fill="#303030" opacity="1.00" d=" M 35.50 77.18 L 35.92 77.14 C 35.88 77.72 35.81 78.88 35.77 79.47 C 34.38 83.19 34.50 87.63 37.16 90.77 C 38.58 92.96 39.84 95.25 41.21 97.47 C 40.20 96.65 39.29 95.66 38.09 95.12 C 36.24 95.77 34.45 96.60 32.64 97.36 C 33.52 95.52 35.07 94.65 37.09 94.95 C 37.05 94.33 36.98 93.09 36.94 92.47 C 35.86 91.29 34.93 89.99 34.21 88.57 C 34.02 87.46 33.72 86.38 33.15 85.41 C 34.75 82.98 33.86 79.68 35.50 77.18 Z" />
<path fill="#303030" opacity="1.00" d=" M 44.10 88.91 L 44.85 88.85 C 44.97 89.27 45.19 90.10 45.30 90.51 L 44.55 90.52 C 44.44 90.11 44.21 89.31 44.10 88.91 Z" />
<path fill="#303030" opacity="1.00" d=" M 40.33 92.16 C 43.16 90.39 40.72 95.49 40.33 92.16 Z" />
<path fill="#303030" opacity="1.00" d=" M 80.72 94.53 C 83.60 94.13 86.56 93.92 89.40 94.64 C 86.51 94.85 83.61 94.80 80.72 94.53 Z" />
<path fill="#303030" opacity="1.00" d=" M 84.09 98.96 C 84.70 98.77 85.92 98.40 86.53 98.22 C 85.92 98.40 84.70 98.77 84.09 98.96 Z" />
<path fill="#303030" opacity="1.00" d=" M 87.25 98.43 L 87.61 98.53 L 87.89 98.73 C 87.73 98.66 87.41 98.51 87.25 98.43 Z" />
</g>
<g id="#97b9e7ff">
<path fill="#97b9e7" opacity="1.00" d=" M 58.38 16.87 C 60.45 15.16 62.74 17.06 64.89 17.48 C 66.77 17.35 68.54 16.63 70.33 16.11 C 68.20 17.23 66.00 18.36 64.56 20.37 C 66.03 21.20 67.51 22.03 68.99 22.85 C 69.20 21.65 69.41 20.45 69.63 19.25 C 69.34 24.27 71.84 29.02 71.14 34.03 C 70.95 36.29 69.22 37.99 68.21 39.90 C 68.29 37.00 68.47 34.00 67.24 31.29 L 67.11 30.88 C 66.66 29.02 64.77 27.95 62.94 28.06 C 63.17 28.52 63.63 29.45 63.86 29.91 L 64.20 30.40 C 63.06 31.70 62.20 33.95 60.09 33.66 C 53.66 33.05 47.07 30.86 40.66 32.92 C 40.25 32.63 39.44 32.07 39.03 31.79 C 39.03 31.09 39.03 29.71 39.02 29.02 C 41.85 29.54 44.92 30.14 47.46 28.38 C 44.63 29.00 41.50 29.88 39.45 27.18 C 39.73 27.00 40.29 26.63 40.57 26.45 C 45.74 22.63 52.27 24.93 58.12 24.10 C 58.67 24.05 59.76 23.95 60.30 23.90 L 60.81 23.85 C 60.40 22.56 59.99 21.28 59.59 19.99 C 56.55 20.69 53.94 22.41 51.19 23.78 C 49.05 24.04 46.90 23.95 44.75 23.95 C 44.45 22.43 44.15 20.90 43.87 19.37 C 44.69 18.58 45.50 17.80 46.32 17.01 C 50.34 16.99 54.37 17.11 58.38 16.87 Z" />
<path fill="#97b9e7" opacity="1.00" d=" M 33.41 41.68 C 35.28 41.03 37.26 40.92 39.22 40.81 C 39.50 45.82 38.98 50.83 37.69 55.68 C 37.33 54.67 36.62 52.64 36.26 51.63 C 36.39 53.29 36.53 54.95 36.67 56.62 C 33.95 56.23 31.24 55.79 28.51 55.48 L 28.47 55.48 L 28.43 55.49 C 25.79 56.20 23.18 56.98 20.52 57.58 C 20.65 57.05 20.92 56.01 21.05 55.49 C 22.95 54.60 24.20 53.14 24.18 50.97 C 23.29 51.13 21.50 51.44 20.61 51.60 C 19.27 51.67 17.93 51.76 16.60 51.87 C 17.05 51.04 17.94 49.40 18.39 48.58 C 18.72 48.16 19.11 47.81 19.55 47.51 C 20.29 47.16 21.79 46.47 22.53 46.13 C 23.11 46.12 23.68 46.11 24.26 46.11 C 25.36 45.61 26.44 45.09 27.45 44.44 L 28.18 43.93 C 28.28 43.86 28.49 43.72 28.59 43.65 C 29.34 43.28 30.82 42.53 31.57 42.15 C 32.03 42.03 32.95 41.80 33.41 41.68 M 26.32 47.28 C 26.83 47.81 26.83 47.81 26.32 47.28 M 28.08 49.41 C 26.54 52.42 31.38 49.59 28.08 49.41 Z" />
<path fill="#97b9e7" opacity="1.00" d=" M 70.42 44.74 C 73.26 43.45 75.61 40.56 78.97 40.83 C 80.64 40.76 82.22 41.37 83.81 41.79 C 85.63 43.74 86.99 46.05 87.44 48.72 C 86.20 47.60 85.09 46.36 83.90 45.20 C 84.65 46.33 85.48 47.39 86.39 48.38 L 84.11 49.37 C 84.80 49.15 86.17 48.73 86.85 48.51 C 86.20 50.97 87.87 54.56 85.11 56.11 C 82.34 58.89 78.19 57.52 74.74 57.76 C 78.83 53.32 75.72 46.38 70.42 44.74 Z" />
<path fill="#97b9e7" opacity="1.00" d=" M 62.49 51.48 C 63.78 48.28 66.76 46.16 69.96 45.15 C 71.46 45.29 72.63 46.33 73.94 46.98 C 74.82 48.97 76.30 50.82 76.45 53.05 C 75.97 54.68 75.01 56.11 74.24 57.62 C 72.12 57.73 70.00 57.81 67.88 57.85 C 67.91 55.14 66.60 52.65 66.62 49.94 C 65.59 50.32 63.53 51.09 62.49 51.48 Z" />
<path fill="#97b9e7" opacity="1.00" d=" M 87.24 51.73 C 87.82 52.31 87.82 52.31 87.24 51.73 Z" />
<path fill="#97b9e7" opacity="1.00" d=" M 37.19 76.01 C 38.06 75.34 38.90 74.64 39.75 73.95 C 41.64 77.06 44.15 79.71 46.84 82.14 C 46.40 84.29 45.91 86.43 45.46 88.59 C 46.29 86.72 46.98 84.80 47.63 82.87 C 50.71 85.28 53.89 87.58 57.25 89.58 C 53.25 89.59 49.31 90.51 45.30 90.51 C 45.19 90.10 44.97 89.27 44.85 88.85 L 44.10 88.91 C 41.68 89.06 39.40 89.90 37.16 90.77 C 34.50 87.63 34.38 83.19 35.77 79.47 C 35.81 78.88 35.88 77.72 35.92 77.14 C 36.24 76.86 36.87 76.29 37.19 76.01 Z" />
<path fill="#97b9e7" opacity="1.00" d=" M 84.58 74.55 C 87.36 72.77 90.46 74.83 93.12 75.87 C 97.04 77.77 97.06 82.60 97.39 86.32 C 96.94 86.68 96.05 87.39 95.60 87.74 C 89.74 92.22 81.29 93.23 75.12 88.78 C 74.85 89.37 74.29 90.56 74.02 91.15 C 74.11 89.88 74.27 88.62 74.51 87.37 C 71.47 86.92 73.65 83.28 74.68 81.76 C 76.48 77.69 80.97 76.47 84.58 74.55 Z" />
<path fill="#97b9e7" opacity="1.00" d=" M 97.23 77.95 C 98.57 76.94 99.90 75.92 101.24 74.90 C 102.36 78.05 102.43 81.44 100.80 84.44 C 100.69 84.64 100.46 85.03 100.34 85.23 C 99.80 85.25 98.73 85.31 98.19 85.33 C 97.96 82.86 97.79 80.37 97.23 77.95 Z" />
</g>
<g id="#f8fafeff">
<path fill="#f8fafe" opacity="1.00" d=" M 54.49 22.41 C 55.92 21.86 57.33 21.25 58.81 20.85 C 59.49 21.77 59.99 22.79 60.30 23.90 C 59.76 23.95 58.67 24.05 58.12 24.10 C 56.67 24.13 55.51 23.37 54.49 22.41 Z" />
<path fill="#f8fafe" opacity="1.00" d=" M 70.80 22.70 C 76.19 25.70 80.57 30.21 83.62 35.57 C 85.70 39.13 88.36 42.45 89.51 46.47 C 90.34 48.28 91.24 50.05 92.18 51.80 C 92.21 52.42 92.28 53.66 92.31 54.29 C 94.96 59.76 96.95 65.53 99.60 71.00 C 97.73 72.31 95.86 73.63 94.02 74.99 C 92.61 74.43 91.03 74.20 89.75 73.36 C 87.12 69.06 85.27 64.34 82.79 59.96 C 82.38 60.32 81.54 61.06 81.13 61.43 C 79.15 61.22 77.17 61.03 75.19 60.87 L 76.10 60.27 C 77.54 60.00 79.00 59.91 80.45 59.79 C 81.82 59.09 83.20 58.39 84.57 57.70 C 85.11 57.46 86.18 56.98 86.72 56.74 C 87.39 55.31 88.12 53.90 88.65 52.40 C 88.58 47.68 87.38 42.19 82.53 40.14 C 80.53 40.20 78.50 40.04 76.53 40.41 C 73.42 41.97 70.59 44.04 67.47 45.58 C 68.62 43.95 69.77 42.32 70.89 40.67 C 71.02 38.85 71.05 36.99 71.81 35.29 C 72.44 31.06 71.81 26.81 70.80 22.70 M 85.70 60.40 C 87.82 59.37 89.41 57.61 90.89 55.82 C 89.00 57.14 86.88 58.34 85.70 60.40 Z" />
<path fill="#f8fafe" opacity="1.00" d=" M 27.25 31.20 C 28.56 30.79 29.87 30.34 31.19 29.92 C 31.24 31.74 31.25 33.57 31.41 35.38 C 31.79 33.95 31.93 32.47 32.09 31.01 C 33.93 31.09 35.64 31.74 37.27 32.55 C 37.28 33.66 37.38 34.77 37.47 35.88 C 34.54 36.28 31.60 35.93 28.68 35.78 L 27.37 35.71 C 26.99 35.33 26.24 34.58 25.87 34.20 C 26.33 33.20 26.79 32.20 27.25 31.20 Z" />
<path fill="#f8fafe" opacity="1.00" d=" M 62.97 53.52 C 63.53 52.53 64.64 50.95 65.93 51.27 C 67.09 52.92 63.79 55.53 62.97 53.52 Z" />
<path fill="#f8fafe" opacity="1.00" d=" M 18.09 52.28 C 19.47 52.05 20.01 52.62 19.71 54.01 C 18.33 54.26 17.78 53.68 18.09 52.28 Z" />
<path fill="#f8fafe" opacity="1.00" d=" M 21.12 52.20 C 22.79 51.67 23.34 52.20 22.77 53.80 C 21.10 54.33 20.54 53.80 21.12 52.20 Z" />
<path fill="#f8fafe" opacity="1.00" d=" M 18.03 55.35 C 19.37 55.00 19.89 55.55 19.59 56.97 C 18.23 57.33 17.71 56.79 18.03 55.35 Z" />
<path fill="#f8fafe" opacity="1.00" d=" M 64.58 55.64 C 65.31 54.23 68.07 55.07 66.83 56.66 C 66.12 57.92 63.17 57.14 64.58 55.64 Z" />
<path fill="#f8fafe" opacity="1.00" d=" M 32.64 97.36 C 34.45 96.60 36.24 95.77 38.09 95.12 C 39.29 95.66 40.20 96.65 41.21 97.47 C 41.41 97.66 41.82 98.05 42.02 98.24 L 42.87 99.05 C 38.68 99.20 33.99 101.55 30.46 98.17 C 31.01 97.97 32.10 97.56 32.64 97.36 Z" />
<path fill="#f8fafe" opacity="1.00" d=" M 59.97 96.46 C 61.30 96.78 62.61 97.18 63.84 97.79 C 62.69 98.35 60.76 100.09 59.97 98.16 C 59.97 97.73 59.97 96.88 59.97 96.46 Z" />
<path fill="#f8fafe" opacity="1.00" d=" M 75.61 98.97 L 75.89 99.32 C 76.34 99.93 76.81 100.53 77.28 101.12 L 78.13 102.16 C 75.90 102.20 73.67 102.22 71.44 102.23 C 72.79 101.09 74.20 100.02 75.61 98.97 Z" />
</g>
<g id="#c0aa8aff">
<path fill="#c0aa8a" opacity="1.00" d=" M 89.20 23.37 C 91.09 23.64 92.99 23.88 94.88 24.10 C 95.91 24.97 96.95 25.83 98.00 26.68 L 98.01 26.75 C 98.04 27.43 98.10 28.79 98.13 29.47 C 101.68 34.11 105.20 39.08 106.13 44.99 C 105.83 45.21 105.23 45.66 104.94 45.88 C 104.47 46.11 103.54 46.56 103.07 46.79 C 102.79 47.03 102.22 47.51 101.94 47.75 C 101.47 48.00 100.55 48.50 100.09 48.75 C 99.75 49.01 99.08 49.53 98.75 49.79 C 96.70 51.00 94.62 52.18 92.48 53.22 C 94.61 48.44 100.42 47.35 103.43 43.26 C 101.45 39.37 98.66 35.78 97.94 31.38 C 96.89 33.56 94.91 34.75 92.56 35.09 C 91.50 33.94 90.43 32.80 89.35 31.66 C 89.21 30.13 89.08 28.61 88.94 27.08 C 86.48 28.25 84.08 32.37 81.16 30.29 C 84.07 28.20 87.06 26.23 89.93 24.07 L 88.98 23.34 L 89.20 23.37 M 89.74 28.17 C 90.05 29.25 90.35 30.33 90.64 31.41 C 91.99 31.71 93.35 31.96 94.73 32.15 C 95.88 31.08 98.39 30.24 97.42 28.17 C 97.57 25.54 94.78 24.77 92.68 24.93 C 91.70 26.01 90.72 27.09 89.74 28.17 Z" />
<path fill="#c0aa8a" opacity="1.00" d=" M 88.88 34.99 C 91.57 36.42 94.47 36.41 97.04 34.70 C 96.41 36.25 95.85 37.82 95.31 39.40 C 94.07 39.39 92.82 39.38 91.58 39.37 C 90.48 38.04 89.48 36.62 88.88 34.99 Z" />
<path fill="#c0aa8a" opacity="1.00" d=" M 94.08 54.10 C 95.28 53.31 96.48 52.51 97.68 51.72 C 99.52 57.66 100.62 63.93 100.65 70.14 C 98.74 64.68 96.10 59.52 94.08 54.10 Z" />
<path fill="#c0aa8a" opacity="1.00" d=" M 85.70 60.40 C 86.88 58.34 89.00 57.14 90.89 55.82 C 89.41 57.61 87.82 59.37 85.70 60.40 Z" />
<path fill="#c0aa8a" opacity="1.00" d=" M 57.22 78.04 C 64.22 77.91 71.08 76.48 77.99 75.52 C 75.05 78.63 70.47 78.52 66.59 79.40 C 63.32 79.92 60.02 80.20 56.74 80.53 C 61.54 82.83 66.87 83.31 71.99 84.50 C 72.33 86.39 72.71 88.28 73.10 90.17 C 72.02 90.27 70.94 90.36 69.86 90.45 C 71.58 90.74 73.36 91.10 73.71 93.12 C 67.83 91.61 61.58 90.83 56.29 87.66 C 51.41 84.48 46.73 80.90 42.90 76.48 C 46.65 77.66 50.44 78.67 54.29 79.49 C 54.56 79.15 55.11 78.46 55.38 78.12 C 55.84 78.10 56.76 78.06 57.22 78.04 Z" />
</g>
<g id="#ede2caff">
<path fill="#ede2ca" opacity="1.00" d=" M 15.19 26.91 C 19.01 27.03 22.55 28.60 26.28 29.25 C 26.06 31.44 25.57 33.59 24.94 35.70 C 20.85 35.10 16.90 33.86 12.95 32.66 C 13.73 31.12 14.13 29.49 14.15 27.76 C 14.57 28.10 15.40 28.79 15.81 29.13 C 15.66 28.57 15.35 27.46 15.19 26.91 Z" />
<path fill="#ede2ca" opacity="1.00" d=" M 63.86 29.91 C 64.89 30.40 65.97 30.72 67.11 30.88 L 67.24 31.29 C 67.80 34.09 67.87 36.94 67.70 39.78 C 62.86 42.90 57.03 41.61 51.63 41.84 C 51.57 41.39 51.44 40.50 51.38 40.05 L 51.45 42.23 C 46.74 42.01 42.56 39.51 39.59 35.96 C 40.94 34.88 41.98 32.99 43.92 33.04 C 49.65 32.50 55.19 34.48 60.85 34.95 C 62.38 34.02 63.68 32.76 65.05 31.60 C 64.84 31.30 64.41 30.70 64.20 30.40 L 63.86 29.91 Z" />
<path fill="#ede2ca" opacity="1.00" d=" M 37.27 32.55 L 37.45 31.57 C 38.88 32.98 39.08 34.90 38.60 36.77 C 39.91 38.41 41.54 39.77 43.10 41.16 C 40.98 44.64 43.12 48.97 41.47 52.60 C 41.22 55.14 39.99 57.37 38.61 59.46 C 36.94 60.28 35.87 61.76 35.45 63.58 C 35.30 62.10 35.14 60.62 34.96 59.14 C 35.45 59.15 36.42 59.17 36.90 59.18 C 37.77 56.64 39.02 54.22 39.30 51.52 C 40.61 48.00 39.77 44.14 39.97 40.47 C 36.29 37.89 31.66 38.01 27.66 36.24 L 28.68 35.78 C 31.60 35.93 34.54 36.28 37.47 35.88 C 37.38 34.77 37.28 33.66 37.27 32.55 Z" />
<path fill="#ede2ca" opacity="1.00" d=" M 43.10 41.16 L 43.59 41.92 C 45.18 44.07 46.16 47.31 49.09 47.94 C 52.24 48.45 55.51 48.17 58.59 47.37 C 61.86 46.24 64.39 43.75 67.32 42.00 L 69.08 41.95 C 67.85 44.37 66.24 46.55 63.90 47.99 C 62.56 50.16 59.73 53.14 62.61 55.35 C 62.01 55.02 60.79 54.36 60.19 54.03 C 60.13 54.46 60.01 55.31 59.95 55.74 C 60.78 55.77 62.46 55.84 63.29 55.87 C 63.25 56.31 63.16 57.20 63.11 57.64 C 64.88 57.92 66.56 58.49 68.14 59.36 C 59.43 61.96 49.06 63.68 40.96 58.45 C 43.26 52.93 42.73 46.97 43.10 41.16 Z" />
<path fill="#ede2ca" opacity="1.00" d=" M 40.19 59.03 C 48.82 64.37 60.25 63.52 69.21 59.46 C 70.27 59.96 71.33 60.45 72.38 60.95 C 73.62 60.72 74.86 60.48 76.10 60.27 L 75.19 60.87 C 74.83 61.12 74.10 61.63 73.73 61.88 C 76.65 62.58 79.66 62.64 82.59 61.99 C 83.85 65.40 86.49 68.41 86.84 72.07 C 84.05 73.55 80.96 74.31 77.94 75.14 C 78.38 75.57 78.82 76.00 79.26 76.43 C 76.98 77.39 75.35 79.23 74.13 81.32 C 71.59 80.79 69.07 80.18 66.59 79.40 C 70.47 78.52 75.05 78.63 77.99 75.52 C 71.08 76.48 64.22 77.91 57.22 78.04 C 54.48 75.86 51.39 74.20 48.45 72.32 C 44.42 69.44 41.85 65.08 39.01 61.13 C 39.30 60.60 39.90 59.55 40.19 59.03 Z" />
<path fill="#ede2ca" opacity="1.00" d=" M 99.60 71.00 C 100.19 72.28 100.76 73.57 101.24 74.90 C 99.90 75.92 98.57 76.94 97.23 77.95 C 96.22 76.89 95.17 75.89 94.02 74.99 C 95.86 73.63 97.73 72.31 99.60 71.00 Z" />
<path fill="#ede2ca" opacity="1.00" d=" M 45.87 100.22 C 46.72 99.17 47.57 98.12 48.43 97.07 C 48.96 97.40 50.02 98.04 50.55 98.36 C 51.16 98.81 52.38 99.71 52.99 100.17 C 50.61 100.21 48.24 100.22 45.87 100.22 Z" />
<path fill="#ede2ca" opacity="1.00" d=" M 86.53 98.22 L 87.25 98.43 C 87.41 98.51 87.73 98.66 87.89 98.73 L 88.52 99.17 C 89.89 100.06 90.54 101.62 90.72 103.18 C 88.98 103.37 87.24 103.58 85.49 103.71 C 84.00 103.18 82.44 102.80 80.86 102.66 C 81.52 101.90 82.83 100.37 83.49 99.61 C 83.64 99.45 83.94 99.12 84.09 98.96 C 84.70 98.77 85.92 98.40 86.53 98.22 Z" />
<path fill="#ede2ca" opacity="1.00" d=" M 95.22 100.81 C 95.38 100.44 95.71 99.71 95.87 99.34 C 97.90 99.68 99.67 100.63 101.01 102.20 C 98.87 102.24 96.73 102.24 94.58 102.23 L 95.22 100.81 Z" />
</g>
<g id="#678fc2ff">
<path fill="#678fc2" opacity="1.00" d=" M 62.94 28.06 C 64.77 27.95 66.66 29.02 67.11 30.88 C 65.97 30.72 64.89 30.40 63.86 29.91 C 63.63 29.45 63.17 28.52 62.94 28.06 Z" />
<path fill="#678fc2" opacity="1.00" d=" M 26.32 47.28 C 26.83 47.81 26.83 47.81 26.32 47.28 Z" />
<path fill="#678fc2" opacity="1.00" d=" M 28.08 49.41 C 31.38 49.59 26.54 52.42 28.08 49.41 Z" />
<path fill="#678fc2" opacity="1.00" d=" M 28.51 55.48 C 31.24 55.79 33.95 56.23 36.67 56.62 C 32.26 61.05 25.80 58.66 20.52 57.58 C 23.18 56.98 25.79 56.20 28.43 55.49 C 28.45 55.49 28.49 55.49 28.51 55.48 Z" />
<path fill="#678fc2" opacity="1.00" d=" M 75.12 88.78 C 81.29 93.23 89.74 92.22 95.60 87.74 C 95.98 88.01 96.74 88.53 97.12 88.80 C 97.36 92.33 97.36 96.04 95.87 99.34 C 95.71 99.71 95.38 100.44 95.22 100.81 C 94.66 101.24 93.54 102.10 92.98 102.53 C 91.52 101.37 90.07 100.20 88.52 99.17 L 87.89 98.73 L 87.61 98.53 L 87.25 98.43 L 86.53 98.22 C 85.92 98.40 84.70 98.77 84.09 98.96 C 83.94 99.12 83.64 99.45 83.49 99.61 C 82.38 100.49 81.23 101.33 80.08 102.17 C 79.38 101.91 77.98 101.38 77.28 101.12 C 76.81 100.53 76.34 99.93 75.89 99.32 C 74.63 96.76 75.40 93.69 74.02 91.15 C 74.29 90.56 74.85 89.37 75.12 88.78 M 80.72 94.53 C 83.61 94.80 86.51 94.85 89.40 94.64 C 86.56 93.92 83.60 94.13 80.72 94.53 Z" />
<path fill="#678fc2" opacity="1.00" d=" M 37.16 90.77 C 39.40 89.90 41.68 89.06 44.10 88.91 C 44.21 89.31 44.44 90.11 44.55 90.52 L 45.30 90.51 C 49.31 90.51 53.25 89.59 57.25 89.58 C 58.24 91.84 59.05 94.17 59.97 96.46 C 59.97 96.88 59.97 97.73 59.97 98.16 C 57.05 99.81 53.61 99.18 50.55 98.36 C 50.02 98.04 48.96 97.40 48.43 97.07 C 48.49 96.80 48.62 96.25 48.68 95.97 C 47.49 97.14 46.31 98.32 45.12 99.50 C 44.08 99.10 43.05 98.68 42.02 98.24 C 41.82 98.05 41.41 97.66 41.21 97.47 C 39.84 95.25 38.58 92.96 37.16 90.77 M 40.33 92.16 C 40.72 95.49 43.16 90.39 40.33 92.16 Z" />
</g>
<g id="#d9c9acff">
<path fill="#d9c9ac" opacity="1.00" d=" M 43.59 41.92 C 45.34 42.05 46.94 42.81 48.49 43.57 C 52.52 46.01 56.90 44.33 61.16 43.86 L 58.87 41.95 C 60.05 42.23 62.41 42.77 63.58 43.04 C 64.52 41.99 65.77 41.64 67.32 42.00 C 64.39 43.75 61.86 46.24 58.59 47.37 C 55.51 48.17 52.24 48.45 49.09 47.94 C 46.16 47.31 45.18 44.07 43.59 41.92 Z" />
<path fill="#d9c9ac" opacity="1.00" d=" M 37.08 63.84 C 36.27 62.39 37.66 61.22 39.01 61.13 C 41.85 65.08 44.42 69.44 48.45 72.32 C 51.39 74.20 54.48 75.86 57.22 78.04 C 56.76 78.06 55.84 78.10 55.38 78.12 C 51.33 78.19 47.28 77.25 43.58 75.64 C 39.37 73.25 38.58 68.02 37.08 63.84 Z" />
<path fill="#d9c9ac" opacity="1.00" d=" M 56.74 80.53 C 60.02 80.20 63.32 79.92 66.59 79.40 C 69.07 80.18 71.59 80.79 74.13 81.32 C 73.42 82.38 72.71 83.44 71.99 84.50 C 66.87 83.31 61.54 82.83 56.74 80.53 Z" />
</g>
</svg>
