<?xml version="1.0" encoding="UTF-8" ?>
<!DOCTYPE svg PUBLIC "-//W3C//DTD SVG 1.1//EN" "http://www.w3.org/Graphics/SVG/1.1/DTD/svg11.dtd">
<svg width="120pt" height="120pt" viewBox="0 0 120 120" version="1.1" xmlns="http://www.w3.org/2000/svg">
<g id="#263e34f5">
<path fill="#263e34" opacity="0.96" d=" M 61.65 36.73 C 62.36 35.13 63.54 33.84 64.83 32.68 L 65.03 34.15 C 66.55 32.36 68.31 33.55 70.02 34.26 C 70.01 34.85 69.99 36.03 69.98 36.62 C 71.36 37.99 72.77 39.38 74.52 40.30 C 78.72 42.18 82.36 45.10 83.91 49.57 C 83.92 53.23 84.93 57.50 82.04 60.40 C 82.59 58.01 83.01 55.59 83.33 53.16 C 82.75 50.12 81.72 46.94 79.33 44.83 C 77.13 43.02 74.52 41.85 72.08 40.41 C 70.07 39.11 67.94 38.02 65.74 37.07 C 65.55 36.46 65.17 35.24 64.98 34.63 C 63.49 36.42 61.60 37.79 59.68 39.08 C 59.17 39.11 58.15 39.17 57.63 39.20 C 55.43 40.45 53.13 41.50 50.78 42.43 C 52.83 39.75 56.45 38.81 59.52 37.76 C 60.05 37.50 61.12 36.98 61.65 36.73 M 66.84 35.18 C 66.42 36.56 66.93 36.97 68.38 36.39 C 68.81 35.03 68.30 34.62 66.84 35.18 Z" />
</g>
<g id="#a1dfa2ff">
<path fill="#a1dfa2" opacity="1.00" d=" M 59.68 39.08 C 61.60 37.79 63.49 36.42 64.98 34.63 C 65.17 35.24 65.55 36.46 65.74 37.07 C 67.94 38.02 70.07 39.11 72.08 40.41 C 73.32 42.04 74.48 43.73 75.51 45.49 C 75.51 45.50 75.52 45.52 75.52 45.53 C 75.50 47.10 75.39 48.67 75.28 50.24 C 73.81 50.53 72.34 50.87 70.87 51.17 C 70.88 50.30 70.91 48.58 70.93 47.72 C 67.81 48.47 64.77 49.50 61.93 51.02 C 60.99 50.55 60.04 50.09 59.10 49.63 C 58.89 49.18 58.46 48.28 58.25 47.84 C 58.31 48.37 58.43 49.45 58.49 49.99 C 54.70 49.82 50.78 49.52 47.21 51.07 C 46.36 48.51 48.49 46.31 49.35 44.06 C 49.59 43.29 50.07 42.75 50.78 42.43 C 53.13 41.50 55.43 40.45 57.63 39.20 C 58.15 39.17 59.17 39.11 59.68 39.08 M 64.36 38.04 C 64.67 38.35 64.67 38.35 64.36 38.04 M 62.26 40.29 C 62.74 40.77 62.74 40.77 62.26 40.29 M 60.29 42.27 C 60.77 42.75 60.77 42.75 60.29 42.27 M 59.07 44.28 C 57.59 47.31 62.38 44.38 59.07 44.28 Z" />
</g>
<g id="#7fb280ff">
<path fill="#7fb280" opacity="1.00" d=" M 66.84 35.18 C 68.30 34.62 68.81 35.03 68.38 36.39 C 66.93 36.97 66.42 36.56 66.84 35.18 Z" />
</g>
<g id="#3d583eff">
<path fill="#3d583e" opacity="1.00" d=" M 64.36 38.04 C 64.67 38.35 64.67 38.35 64.36 38.04 Z" />
</g>
<g id="#5a7e5eff">
<path fill="#5a7e5e" opacity="1.00" d=" M 62.26 40.29 C 62.74 40.77 62.74 40.77 62.26 40.29 Z" />
</g>
<g id="#94cd95ff">
<path fill="#94cd95" opacity="1.00" d=" M 72.08 40.41 C 74.52 41.85 77.13 43.02 79.33 44.83 C 81.72 46.94 82.75 50.12 83.33 53.16 C 81.09 54.91 76.97 57.28 75.58 53.33 C 74.36 54.61 73.15 55.89 71.90 57.14 C 71.18 55.23 70.88 53.20 70.87 51.17 C 72.34 50.87 73.81 50.53 75.28 50.24 C 75.39 48.67 75.50 47.10 75.52 45.53 L 75.52 45.51 L 75.51 45.49 C 74.48 43.73 73.32 42.04 72.08 40.41 M 76.27 50.25 C 76.76 50.73 76.76 50.73 76.27 50.25 Z" />
</g>
<g id="#608962ff">
<path fill="#608962" opacity="1.00" d=" M 60.29 42.27 C 60.77 42.75 60.77 42.75 60.29 42.27 Z" />
</g>
<g id="#354d43fd">
<path fill="#354d43" opacity="1.00" d=" M 48.52 44.04 L 49.35 44.06 C 48.49 46.31 46.36 48.51 47.21 51.07 C 50.78 49.52 54.70 49.82 58.49 49.99 C 58.43 49.45 58.31 48.37 58.25 47.84 C 58.46 48.28 58.89 49.18 59.10 49.63 C 60.04 50.09 60.99 50.55 61.93 51.02 C 64.77 49.50 67.81 48.47 70.93 47.72 C 70.91 48.58 70.88 50.30 70.87 51.17 C 70.88 53.20 71.18 55.23 71.90 57.14 C 73.26 59.73 75.61 61.50 77.96 63.14 C 78.49 62.84 79.55 62.25 80.09 61.96 C 79.75 62.47 79.08 63.48 78.75 63.99 C 80.51 66.88 82.44 69.89 82.19 73.44 C 83.00 74.64 82.98 76.07 83.00 77.45 C 81.05 79.52 83.10 83.50 79.55 84.45 C 77.38 85.41 74.78 85.31 72.88 83.80 C 73.04 83.28 73.35 82.26 73.51 81.74 C 76.25 79.35 76.08 75.57 76.65 72.28 C 76.92 73.98 77.19 75.68 77.46 77.37 C 77.81 76.65 78.49 75.21 78.84 74.49 C 79.36 74.99 79.88 75.49 80.41 76.00 C 77.44 77.53 75.73 80.40 74.74 83.48 C 76.98 83.38 79.21 83.09 81.43 82.74 C 80.76 82.05 79.42 80.66 78.75 79.97 C 79.78 78.85 80.80 77.72 81.82 76.60 C 80.98 74.11 80.86 71.46 80.08 68.97 C 78.80 65.80 76.06 63.59 73.51 61.45 C 73.57 63.12 73.64 64.78 73.72 66.45 C 73.00 63.00 71.97 59.59 70.23 56.51 C 70.13 53.95 69.94 51.40 69.78 48.85 C 67.17 49.80 64.62 50.94 61.94 51.72 C 57.03 50.74 52.05 50.71 47.14 51.78 C 44.78 51.22 42.45 50.56 40.16 49.76 C 40.35 54.45 40.25 59.21 38.16 63.53 L 40.00 61.54 C 39.75 62.17 39.24 63.44 38.99 64.07 L 38.35 64.19 C 38.29 64.89 38.15 66.29 38.08 66.99 L 38.68 67.14 C 40.07 67.51 41.46 67.90 42.86 68.25 L 43.31 66.80 C 43.38 67.15 43.52 67.86 43.58 68.21 C 41.53 69.18 39.32 68.32 37.23 67.97 C 37.50 68.67 38.02 70.06 38.29 70.76 C 47.05 75.06 56.99 72.39 65.97 70.32 C 68.72 69.88 71.08 68.43 73.12 66.62 C 73.11 67.42 73.09 69.04 73.08 69.84 C 70.52 71.83 67.60 73.26 64.81 74.88 C 58.89 76.28 52.79 76.14 46.75 75.98 C 44.41 75.05 42.13 73.98 39.83 72.93 C 40.44 75.34 41.31 77.66 42.32 79.93 C 42.48 81.14 42.64 82.36 42.84 83.58 L 43.07 85.23 C 42.59 84.84 41.64 84.06 41.16 83.67 C 41.10 82.21 41.12 80.71 40.35 79.42 C 40.10 78.04 40.05 76.58 39.21 75.38 C 39.15 74.27 39.10 73.16 39.06 72.05 C 38.61 72.03 37.73 72.00 37.28 71.98 C 37.04 70.78 35.85 69.58 36.43 68.33 C 37.44 66.12 36.76 63.58 37.75 61.38 C 38.16 60.28 38.59 59.19 39.04 58.11 C 39.46 54.98 38.08 51.28 40.49 48.74 C 41.98 48.95 43.51 49.18 44.74 50.13 C 46.10 48.16 47.30 46.09 48.52 44.04 M 56.64 73.40 C 53.46 74.73 49.93 73.86 46.61 74.36 C 53.88 75.66 61.74 74.44 68.34 71.14 C 64.39 71.66 60.62 73.08 56.64 73.40 Z" />
</g>
<g id="#5d8260ff">
<path fill="#5d8260" opacity="1.00" d=" M 59.07 44.28 C 62.38 44.38 57.59 47.31 59.07 44.28 Z" />
</g>
<g id="#618c63ff">
<path fill="#618c63" opacity="1.00" d=" M 75.52 45.53 C 75.52 45.52 75.51 45.50 75.51 45.49 L 75.52 45.51 L 75.52 45.53 Z" />
</g>
<g id="#a7eac8ff">
<path fill="#a7eac8" opacity="1.00" d=" M 40.16 49.76 C 42.45 50.56 44.78 51.22 47.14 51.78 C 52.05 50.71 57.03 50.74 61.94 51.72 C 64.62 50.94 67.17 49.80 69.78 48.85 C 69.94 51.40 70.13 53.95 70.23 56.51 C 70.00 59.28 68.76 61.78 66.52 63.45 L 66.39 63.57 L 65.41 61.13 L 65.90 60.97 L 64.33 60.93 C 64.42 60.43 64.58 59.44 64.66 58.94 C 63.52 59.47 62.39 60.01 61.27 60.57 L 60.66 60.51 C 60.11 60.45 59.00 60.34 58.45 60.29 C 56.88 60.72 56.06 62.22 55.96 63.75 C 57.18 63.14 58.34 62.42 59.48 61.66 C 57.78 63.48 56.96 65.84 56.05 68.10 C 51.58 67.71 46.92 66.98 43.34 64.06 C 43.41 63.63 43.57 62.77 43.64 62.33 C 43.31 62.49 42.63 62.81 42.29 62.97 C 42.21 62.71 42.04 62.20 41.95 61.94 C 42.23 60.02 39.20 58.99 40.00 61.54 L 38.16 63.53 C 40.25 59.21 40.35 54.45 40.16 49.76 M 51.47 55.98 C 50.06 57.48 46.76 58.20 47.05 60.64 C 47.90 61.62 48.97 63.54 50.55 62.86 C 53.27 61.49 55.44 59.33 57.42 57.07 C 55.60 55.99 53.54 55.83 51.47 55.98 M 46.06 62.32 C 44.62 65.36 49.38 62.36 46.06 62.32 M 50.53 63.85 C 50.10 65.28 50.56 65.80 51.91 65.41 C 52.34 63.93 51.88 63.41 50.53 63.85 Z" />
<path fill="#a7eac8" opacity="1.00" d=" M 56.64 73.40 C 60.62 73.08 64.39 71.66 68.34 71.14 C 61.74 74.44 53.88 75.66 46.61 74.36 C 49.93 73.86 53.46 74.73 56.64 73.40 Z" />
</g>
<g id="#618c62ff">
<path fill="#618c62" opacity="1.00" d=" M 76.27 50.25 C 76.76 50.73 76.76 50.73 76.27 50.25 Z" />
</g>
<g id="#5f9d68ff">
<path fill="#5f9d68" opacity="1.00" d=" M 71.90 57.14 C 73.15 55.89 74.36 54.61 75.58 53.33 C 76.97 57.28 81.09 54.91 83.33 53.16 C 83.01 55.59 82.59 58.01 82.04 60.40 C 81.46 61.01 80.81 61.53 80.09 61.96 C 79.55 62.25 78.49 62.84 77.96 63.14 C 75.61 61.50 73.26 59.73 71.90 57.14 M 74.34 56.18 C 74.81 56.69 74.81 56.69 74.34 56.18 Z" />
<path fill="#5f9d68" opacity="1.00" d=" M 58.45 60.29 C 59.00 60.34 60.11 60.45 60.66 60.51 C 60.37 60.80 59.78 61.37 59.48 61.66 C 58.34 62.42 57.18 63.14 55.96 63.75 C 56.06 62.22 56.88 60.72 58.45 60.29 Z" />
</g>
<g id="#57a381ff">
<path fill="#57a381" opacity="1.00" d=" M 51.47 55.98 C 53.54 55.83 55.60 55.99 57.42 57.07 C 55.44 59.33 53.27 61.49 50.55 62.86 C 48.97 63.54 47.90 61.62 47.05 60.64 C 46.76 58.20 50.06 57.48 51.47 55.98 Z" />
</g>
<g id="#365b3dff">
<path fill="#365b3d" opacity="1.00" d=" M 74.34 56.18 C 74.81 56.69 74.81 56.69 74.34 56.18 Z" />
</g>
<g id="#99d7b8ff">
<path fill="#99d7b8" opacity="1.00" d=" M 70.23 56.51 C 71.97 59.59 73.00 63.00 73.72 66.45 C 73.64 64.78 73.57 63.12 73.51 61.45 C 76.06 63.59 78.80 65.80 80.08 68.97 C 80.86 71.46 80.98 74.11 81.82 76.60 C 80.80 77.72 79.78 78.85 78.75 79.97 C 79.42 80.66 80.76 82.05 81.43 82.74 C 79.21 83.09 76.98 83.38 74.74 83.48 C 75.73 80.40 77.44 77.53 80.41 76.00 C 79.88 75.49 79.36 74.99 78.84 74.49 C 78.49 75.21 77.81 76.65 77.46 77.37 C 77.19 75.68 76.92 73.98 76.65 72.28 C 76.08 75.57 76.25 79.35 73.51 81.74 C 73.35 82.26 73.04 83.28 72.88 83.80 C 72.77 84.18 72.55 84.94 72.44 85.32 C 71.08 84.97 69.70 84.67 68.31 84.50 C 66.94 84.03 65.57 83.58 64.19 83.17 C 64.67 81.74 65.14 80.25 64.63 78.74 C 64.21 77.99 63.77 77.24 63.32 76.50 C 63.81 75.95 64.31 75.41 64.81 74.88 C 67.60 73.26 70.52 71.83 73.08 69.84 C 73.09 69.04 73.11 67.42 73.12 66.62 C 71.08 68.43 68.72 69.88 65.97 70.32 C 56.99 72.39 47.05 75.06 38.29 70.76 C 38.02 70.06 37.50 68.67 37.23 67.97 C 39.32 68.32 41.53 69.18 43.58 68.21 C 43.52 67.86 43.38 67.15 43.31 66.80 C 43.12 66.05 42.74 64.54 42.55 63.79 L 43.34 64.06 C 46.92 66.98 51.58 67.71 56.05 68.10 C 57.99 68.06 59.93 67.94 61.88 67.84 C 62.53 67.87 63.84 67.92 64.50 67.94 L 64.81 67.21 C 65.36 66.03 65.89 64.84 66.41 63.64 C 66.44 63.59 66.49 63.50 66.52 63.45 C 68.76 61.78 70.00 59.28 70.23 56.51 M 66.25 66.25 C 66.73 66.74 66.73 66.74 66.25 66.25 M 67.96 77.12 C 67.32 79.59 70.15 80.27 72.01 80.16 C 72.00 78.68 72.00 77.19 71.99 75.71 C 70.63 76.12 69.21 76.41 67.96 77.12 Z" />
<path fill="#99d7b8" opacity="1.00" d=" M 39.83 72.93 C 42.13 73.98 44.41 75.05 46.75 75.98 C 47.38 76.76 48.00 77.56 48.60 78.37 C 49.47 79.56 50.34 80.74 51.21 81.93 C 50.67 82.68 50.15 83.43 49.62 84.17 C 49.29 83.84 48.65 83.18 48.32 82.84 L 47.87 83.94 C 46.90 83.53 45.93 83.13 44.96 82.74 L 46.68 85.66 C 45.72 85.14 43.80 84.10 42.84 83.58 C 42.64 82.36 42.48 81.14 42.32 79.93 C 41.31 77.66 40.44 75.34 39.83 72.93 Z" />
</g>
<g id="#68353aff">
<path fill="#68353a" opacity="1.00" d=" M 40.00 61.54 C 39.20 58.99 42.23 60.02 41.95 61.94 C 41.46 61.84 40.49 61.64 40.00 61.54 Z" />
</g>
<g id="#c95a66ff">
<path fill="#c95a66" opacity="1.00" d=" M 60.66 60.51 L 61.27 60.57 C 62.66 61.07 63.18 62.48 63.61 63.76 L 63.64 64.45 C 63.64 64.55 63.65 64.75 63.65 64.84 L 63.72 64.71 L 64.27 66.50 C 63.67 66.84 62.48 67.51 61.88 67.84 C 59.93 67.94 57.99 68.06 56.05 68.10 C 56.96 65.84 57.78 63.48 59.48 61.66 C 59.78 61.37 60.37 60.80 60.66 60.51 M 59.24 64.03 C 58.80 65.66 59.36 66.26 60.94 65.82 C 61.41 64.16 60.84 63.56 59.24 64.03 Z" />
</g>
<g id="#fbfbfbff">
<path fill="#fbfbfb" opacity="1.00" d=" M 63.61 63.76 C 63.74 62.62 64.00 61.18 65.41 61.13 L 66.39 63.57 L 66.41 63.64 C 65.89 64.84 65.36 66.03 64.81 67.21 L 64.27 66.50 L 63.72 64.71 L 63.64 64.45 L 63.61 63.76 Z" />
</g>
<g id="#b54e5aff">
<path fill="#b54e5a" opacity="1.00" d=" M 40.00 61.54 C 40.49 61.64 41.46 61.84 41.95 61.94 C 42.04 62.20 42.21 62.71 42.29 62.97 L 42.55 63.79 C 42.74 64.54 43.12 66.05 43.31 66.80 L 42.86 68.25 C 41.46 67.90 40.07 67.51 38.68 67.14 C 38.76 66.37 38.91 64.84 38.99 64.07 C 39.24 63.44 39.75 62.17 40.00 61.54 M 41.08 64.13 C 39.51 67.13 44.38 64.29 41.08 64.13 Z" />
</g>
<g id="#6eac8eff">
<path fill="#6eac8e" opacity="1.00" d=" M 46.06 62.32 C 49.38 62.36 44.62 65.36 46.06 62.32 Z" />
</g>
<g id="#41544bff">
<path fill="#41544b" opacity="1.00" d=" M 66.39 63.57 L 66.52 63.45 C 66.49 63.50 66.44 63.59 66.41 63.64 L 66.39 63.57 Z" />
</g>
<g id="#ebebebff">
<path fill="#ebebeb" opacity="1.00" d=" M 38.35 64.19 L 38.99 64.07 C 38.91 64.84 38.76 66.37 38.68 67.14 L 38.08 66.99 C 38.15 66.29 38.29 64.89 38.35 64.19 Z" />
</g>
<g id="#eac4c8ff">
<path fill="#eac4c8" opacity="1.00" d=" M 41.08 64.13 C 44.38 64.29 39.51 67.13 41.08 64.13 Z" />
</g>
<g id="#529173ff">
<path fill="#529173" opacity="1.00" d=" M 50.53 63.85 C 51.88 63.41 52.34 63.93 51.91 65.41 C 50.56 65.80 50.10 65.28 50.53 63.85 Z" />
</g>
<g id="#fbe8ebff">
<path fill="#fbe8eb" opacity="1.00" d=" M 59.24 64.03 C 60.84 63.56 61.41 64.16 60.94 65.82 C 59.36 66.26 58.80 65.66 59.24 64.03 Z" />
</g>
<g id="#812630ff">
<path fill="#812630" opacity="1.00" d=" M 63.65 64.84 C 63.65 64.75 63.64 64.55 63.64 64.45 L 63.72 64.71 L 63.65 64.84 Z" />
</g>
<g id="#365144ff">
<path fill="#365144" opacity="1.00" d=" M 66.25 66.25 C 66.73 66.74 66.73 66.74 66.25 66.25 Z" />
</g>
<g id="#486454ff">
<path fill="#486454" opacity="1.00" d=" M 61.88 67.84 C 62.48 67.51 63.67 66.84 64.27 66.50 L 64.81 67.21 L 64.50 67.94 C 63.84 67.92 62.53 67.87 61.88 67.84 Z" />
</g>
<g id="#6faa98ff">
<path fill="#6faa98" opacity="1.00" d=" M 46.75 75.98 C 52.79 76.14 58.89 76.28 64.81 74.88 C 64.31 75.41 63.81 75.95 63.32 76.50 C 63.77 77.24 64.21 77.99 64.63 78.74 C 64.30 79.86 63.98 80.98 63.67 82.10 C 58.42 82.04 53.26 80.80 48.60 78.37 C 48.00 77.56 47.38 76.76 46.75 75.98 Z" />
</g>
<g id="#498569ff">
<path fill="#498569" opacity="1.00" d=" M 67.96 77.12 C 69.21 76.41 70.63 76.12 71.99 75.71 C 72.00 77.19 72.00 78.68 72.01 80.16 C 70.15 80.27 67.32 79.59 67.96 77.12 Z" />
</g>
<g id="#3e534cff">
<path fill="#3e534c" opacity="1.00" d=" M 48.60 78.37 C 53.26 80.80 58.42 82.04 63.67 82.10 C 63.98 80.98 64.30 79.86 64.63 78.74 C 65.14 80.25 64.67 81.74 64.19 83.17 C 65.57 83.58 66.94 84.03 68.31 84.50 C 69.70 84.67 71.08 84.97 72.44 85.32 C 69.97 86.53 67.13 85.89 64.50 85.98 C 64.16 83.46 61.37 81.69 59.38 83.93 C 58.75 83.89 57.49 83.79 56.86 83.75 C 56.40 81.60 53.09 81.41 53.06 83.85 C 52.53 83.59 51.47 83.06 50.94 82.80 C 50.95 83.30 50.97 84.31 50.98 84.81 C 48.56 86.03 45.84 86.34 43.17 85.84 L 43.07 85.23 L 42.84 83.58 C 43.80 84.10 45.72 85.14 46.68 85.66 L 44.96 82.74 C 45.93 83.13 46.90 83.53 47.87 83.94 L 48.32 82.84 C 48.65 83.18 49.29 83.84 49.62 84.17 C 50.15 83.43 50.67 82.68 51.21 81.93 C 50.34 80.74 49.47 79.56 48.60 78.37 Z" />
</g>
<g id="#576b64ff">
<path fill="#576b64" opacity="1.00" d=" M 53.06 83.85 C 53.09 81.41 56.40 81.60 56.86 83.75 C 55.61 84.34 54.35 84.37 53.06 83.85 Z" />
</g>
</svg>
