<?xml version="1.0" encoding="UTF-8" ?>
<!DOCTYPE svg PUBLIC "-//W3C//DTD SVG 1.1//EN" "http://www.w3.org/Graphics/SVG/1.1/DTD/svg11.dtd">
<svg width="120pt" height="120pt" viewBox="0 0 120 120" version="1.1" xmlns="http://www.w3.org/2000/svg">
<g id="#383838ff">
<path fill="#383838" opacity="1.00" d=" M 81.42 21.05 C 83.41 21.06 85.40 21.09 87.39 21.19 C 88.45 21.64 89.52 22.01 90.63 22.30 C 93.70 25.00 96.55 27.98 98.71 31.47 C 98.98 32.51 99.27 33.55 99.59 34.57 C 99.96 35.58 100.36 36.59 100.79 37.58 C 100.96 39.62 100.62 41.83 101.82 43.63 C 102.53 48.59 100.79 53.97 102.82 58.65 C 102.99 62.22 103.00 65.81 102.81 69.39 C 102.37 70.43 102.01 71.49 101.73 72.59 C 100.69 74.93 98.85 76.73 96.97 78.41 C 96.91 82.13 96.90 85.86 96.94 89.59 C 95.71 91.54 94.23 93.32 92.63 94.97 C 90.24 94.93 87.85 94.92 85.46 94.91 C 78.74 91.09 73.40 85.31 68.81 79.18 C 70.23 82.40 70.58 86.24 69.38 89.58 C 68.97 90.58 68.57 91.58 68.16 92.58 C 68.10 93.09 67.99 94.09 67.93 94.60 C 67.20 95.75 66.49 96.92 65.62 97.98 C 63.95 98.31 62.32 97.86 60.98 96.84 C 61.05 94.86 61.08 92.89 61.11 90.91 L 59.99 91.09 C 59.97 91.68 59.95 92.86 59.93 93.45 C 58.19 95.74 56.82 99.00 53.33 98.09 C 53.19 96.77 52.80 95.55 52.13 94.41 C 52.48 93.96 53.17 93.05 53.52 92.59 C 52.74 92.90 51.17 93.53 50.39 93.84 C 49.10 93.87 47.82 93.88 46.53 93.89 C 43.91 92.49 41.13 91.14 39.26 88.73 C 36.78 85.96 36.29 81.94 33.75 79.24 C 29.84 76.73 27.21 72.68 25.31 68.51 C 25.00 67.47 24.68 66.43 24.34 65.40 C 24.08 64.04 23.84 62.67 23.30 61.39 C 23.09 59.70 23.03 57.98 22.38 56.39 C 22.07 55.04 21.81 53.68 21.29 52.39 C 21.19 51.91 21.00 50.97 20.91 50.49 C 20.37 49.51 19.82 48.54 19.27 47.56 C 19.00 46.52 18.72 45.48 18.41 44.44 C 18.04 43.42 17.65 42.41 17.25 41.41 C 17.07 39.71 17.20 37.89 16.16 36.42 C 16.12 34.72 15.81 32.88 16.86 31.38 C 16.92 30.89 17.04 29.90 17.10 29.41 C 18.08 27.58 19.51 26.07 21.38 25.14 C 21.88 25.06 22.88 24.91 23.37 24.84 C 25.91 23.65 29.08 23.62 31.61 24.83 C 32.08 24.92 33.01 25.11 33.47 25.21 C 39.59 27.80 44.68 32.04 49.75 36.23 C 53.02 39.29 55.00 43.42 58.16 46.58 C 57.90 45.78 57.39 44.19 57.13 43.39 C 56.94 40.60 56.99 37.79 57.01 34.99 C 57.55 34.99 58.65 34.99 59.19 34.99 C 58.08 37.65 57.08 40.99 58.88 43.60 C 58.98 45.43 59.01 47.25 59.03 49.08 C 60.53 49.07 62.04 49.07 63.54 49.06 C 64.36 49.87 65.19 50.69 66.02 51.51 C 66.07 50.22 66.13 48.94 66.20 47.65 C 66.89 46.40 67.09 44.99 67.33 43.61 C 67.69 42.58 68.04 41.56 68.39 40.54 C 69.08 38.55 69.72 36.54 70.27 34.51 C 72.72 29.15 76.26 24.09 81.42 21.05 M 72.34 35.54 C 71.13 38.24 69.98 40.97 69.13 43.81 C 68.75 45.66 67.34 47.59 68.73 49.44 L 69.07 46.20 C 69.46 46.88 69.86 47.56 70.26 48.23 C 69.87 49.03 69.09 50.62 68.70 51.42 L 68.03 51.47 L 67.99 49.98 L 67.02 49.92 C 67.49 51.44 67.93 52.96 68.36 54.49 C 69.08 56.11 69.24 57.87 69.21 59.63 C 78.32 57.58 87.46 61.04 96.62 59.67 C 98.85 57.74 98.55 54.28 98.90 51.57 C 98.11 50.34 97.35 49.09 96.58 47.85 C 91.13 48.51 85.79 49.66 80.56 51.28 C 77.37 53.32 72.42 53.61 70.89 57.49 C 70.46 56.91 70.03 56.34 69.59 55.77 C 74.05 51.72 79.63 48.74 83.02 43.65 C 82.96 43.13 82.83 42.09 82.77 41.57 C 82.50 40.98 81.97 39.78 81.71 39.19 C 79.98 38.48 78.10 37.18 76.19 38.12 C 73.55 39.44 72.58 42.53 70.96 44.81 L 71.48 45.73 C 70.95 45.90 69.89 46.23 69.36 46.39 C 70.22 44.00 71.49 41.80 72.62 39.54 C 73.70 37.72 75.38 36.41 76.94 35.03 C 77.62 35.00 78.97 34.94 79.64 34.91 C 81.92 31.82 86.69 30.53 87.23 26.38 C 85.24 25.66 83.18 24.53 80.99 25.09 C 76.70 27.17 74.27 31.40 72.34 35.54 M 27.47 28.01 C 26.87 28.54 25.69 29.60 25.10 30.13 C 25.54 30.46 26.42 31.12 26.86 31.45 L 25.20 33.02 C 27.42 31.47 30.47 32.25 31.68 34.65 L 32.38 34.03 C 35.00 36.34 38.30 35.35 41.41 35.21 C 43.92 36.41 46.54 37.40 49.02 38.69 C 43.25 33.12 36.14 26.74 27.47 28.01 M 87.57 29.26 C 88.22 29.85 88.88 30.43 89.54 30.99 C 86.48 31.39 84.75 34.15 82.16 35.49 C 83.40 36.78 84.89 38.02 85.22 39.89 C 88.53 37.99 92.37 37.61 96.02 36.71 C 95.95 35.59 95.90 34.47 95.84 33.35 C 93.91 30.60 90.84 29.42 87.57 29.26 M 21.31 32.93 C 20.97 34.15 20.61 35.36 20.23 36.57 C 20.95 37.87 21.66 39.43 23.35 39.62 C 26.47 40.07 29.64 40.26 32.69 41.16 C 33.09 39.89 33.95 38.71 33.91 37.33 C 32.81 36.59 31.66 35.94 30.52 35.27 C 30.02 35.05 29.03 34.60 28.54 34.38 C 26.17 33.72 23.78 33.08 21.31 32.93 M 85.72 41.28 C 84.83 45.91 80.54 48.09 77.57 51.20 C 83.69 49.19 89.88 46.96 96.37 46.71 C 96.78 46.16 97.60 45.05 98.00 44.50 C 97.94 42.32 98.45 38.90 95.88 38.03 C 92.32 38.39 89.02 39.97 85.72 41.28 M 36.99 40.21 C 37.00 41.70 37.00 43.19 36.99 44.68 C 39.67 47.56 43.45 48.84 46.58 51.09 C 44.85 50.68 43.20 50.02 41.55 49.37 C 38.06 48.10 35.77 45.19 33.12 42.79 C 29.27 41.35 25.05 40.71 20.93 40.88 C 21.68 43.38 22.29 46.04 24.25 47.91 C 30.64 48.46 36.88 50.05 43.21 50.96 C 43.18 51.29 43.13 51.94 43.10 52.27 C 37.56 50.71 31.86 49.82 26.17 49.04 C 23.01 52.39 26.52 57.37 29.19 60.01 C 35.47 60.27 41.70 59.34 47.97 59.46 C 48.36 58.03 48.78 56.60 49.17 55.17 L 50.14 55.27 L 49.94 54.15 C 47.80 53.43 45.60 52.92 43.33 52.86 C 44.75 52.09 46.25 51.40 47.85 51.12 C 49.18 51.65 50.42 52.38 51.69 53.03 L 52.58 52.25 C 53.10 55.38 53.11 58.56 53.00 61.72 C 53.72 61.48 55.16 61.00 55.89 60.77 C 56.11 58.42 55.36 55.41 57.63 53.85 C 58.66 52.80 60.21 53.16 61.52 53.02 C 62.65 54.18 63.80 55.32 64.98 56.44 C 65.02 58.24 65.21 60.06 64.93 61.85 C 63.42 64.07 60.31 62.85 58.05 63.20 C 58.08 63.90 58.13 65.32 58.15 66.03 C 61.63 65.69 66.75 65.82 67.63 61.46 C 69.39 56.79 65.79 52.95 62.74 49.94 C 61.25 50.06 59.63 49.90 58.39 50.96 C 57.47 50.60 56.56 50.22 55.65 49.83 C 56.07 49.50 56.92 48.85 57.34 48.53 C 55.73 46.22 54.18 43.86 52.46 41.64 C 51.68 42.68 52.88 43.64 53.17 44.61 C 54.33 45.84 55.22 47.29 56.18 48.67 L 54.70 49.80 L 55.61 49.86 C 54.76 50.49 53.92 51.14 53.09 51.80 C 53.97 46.68 49.50 42.69 45.60 40.16 C 42.90 38.53 39.71 38.78 36.99 40.21 M 50.14 55.27 C 48.51 57.67 48.44 61.53 51.76 62.41 C 52.10 59.48 52.28 56.54 52.24 53.59 C 51.71 54.01 50.67 54.85 50.14 55.27 M 58.28 54.14 C 55.56 56.04 57.09 60.05 59.22 61.88 C 60.82 61.87 62.42 61.88 64.02 61.90 C 64.04 60.35 64.06 58.79 64.08 57.24 C 62.97 56.12 61.86 54.99 60.77 53.85 C 60.15 53.93 58.90 54.07 58.28 54.14 M 67.68 62.90 C 68.10 63.33 68.96 64.18 69.39 64.61 C 72.20 65.23 74.87 66.34 77.57 67.31 C 83.35 69.10 88.70 72.47 94.78 73.12 C 97.62 70.66 98.75 67.14 97.96 63.46 C 97.16 62.65 96.36 61.84 95.56 61.03 C 92.35 61.09 89.14 60.96 85.96 60.52 C 81.53 59.90 77.02 60.58 72.61 59.66 C 70.85 60.56 69.10 61.50 67.68 62.90 M 31.27 61.19 C 27.61 62.08 29.29 66.09 30.19 68.50 C 30.99 69.55 31.77 70.61 32.53 71.68 C 33.54 71.95 34.55 72.20 35.56 72.47 C 39.75 70.37 44.38 69.34 48.53 67.13 C 49.25 67.08 50.70 66.97 51.42 66.92 L 51.36 67.76 C 48.38 68.52 45.44 69.46 42.62 70.68 C 40.27 71.56 37.92 72.56 35.96 74.15 C 35.66 77.39 39.12 79.08 41.90 79.12 C 42.20 79.68 42.47 80.25 42.72 80.83 C 41.00 80.65 39.34 80.02 37.60 79.91 C 38.47 80.82 39.38 81.71 40.32 82.55 L 39.19 83.47 C 40.28 84.72 41.39 85.95 42.50 87.19 C 43.77 85.81 44.86 84.28 45.75 82.63 C 46.45 84.85 48.71 84.95 50.58 85.14 C 52.27 83.90 53.99 82.65 55.29 80.99 C 54.81 80.30 53.85 78.92 53.37 78.23 C 56.06 78.45 57.63 81.34 60.35 81.64 C 63.91 81.93 67.98 80.53 69.75 77.22 C 69.87 76.66 70.13 75.53 70.26 74.96 C 69.82 72.74 69.35 70.53 68.76 68.34 C 67.94 67.37 67.13 66.39 66.33 65.41 C 62.63 67.36 58.43 66.93 54.46 67.55 C 52.62 67.10 50.89 66.05 50.56 64.04 C 50.81 63.88 51.31 63.56 51.56 63.40 C 49.64 63.18 48.29 61.91 47.68 60.08 C 42.26 61.23 36.75 60.86 31.27 61.19 M 54.19 61.75 C 53.69 62.83 53.20 63.90 52.70 64.98 C 54.28 64.97 55.86 64.97 57.44 64.96 C 57.31 63.12 55.53 62.57 54.19 61.75 M 67.90 65.06 C 69.98 66.72 70.02 69.52 71.44 71.53 C 74.65 73.75 77.75 76.20 81.39 77.67 C 81.93 77.99 83.01 78.62 83.55 78.93 C 85.89 78.97 88.24 79.17 90.58 78.91 C 92.31 78.01 91.95 76.02 92.09 74.41 C 84.03 71.29 76.32 67.18 67.90 65.06 M 70.65 72.66 C 74.20 78.07 78.74 82.99 84.50 86.07 C 87.35 86.51 88.49 83.81 88.08 81.40 C 87.45 81.11 86.20 80.52 85.57 80.22 C 79.88 79.59 75.32 75.59 70.65 72.66 M 69.75 77.22 C 72.49 82.53 76.80 86.89 81.57 90.41 C 83.18 91.06 84.80 91.68 86.44 92.28 C 86.04 90.54 85.57 88.83 84.97 87.16 C 79.24 85.30 75.81 80.12 71.63 76.15 C 71.16 76.42 70.22 76.95 69.75 77.22 M 92.28 81.28 C 92.19 82.35 94.05 82.99 94.88 82.52 C 94.89 82.03 94.89 81.04 94.90 80.55 C 93.93 80.30 93.06 80.55 92.28 81.28 M 64.22 82.28 C 63.43 84.03 62.98 85.89 63.05 87.83 C 61.44 90.85 61.11 95.48 64.11 97.76 C 66.72 95.09 67.93 91.51 68.65 87.93 L 69.21 87.95 C 69.14 85.62 69.15 83.22 68.18 81.05 C 66.87 81.48 65.55 81.91 64.22 82.28 M 57.05 81.96 C 56.29 82.86 55.53 83.75 54.80 84.66 C 54.83 85.35 54.89 86.72 54.92 87.41 C 53.58 90.55 54.08 94.00 54.04 97.31 C 58.19 96.63 58.96 91.69 60.57 88.54 L 60.96 88.61 C 61.13 86.80 61.49 85.02 62.06 83.28 C 60.39 82.85 58.72 82.40 57.05 81.96 M 89.05 81.57 C 89.03 82.89 89.02 84.20 89.02 85.53 C 90.30 86.67 91.58 87.82 92.85 88.99 C 93.70 87.44 94.52 85.88 95.31 84.30 C 93.28 83.27 91.18 82.36 89.05 81.57 M 50.00 86.42 C 50.01 88.07 50.04 89.71 50.09 91.36 C 53.45 90.81 54.32 87.54 54.80 84.66 L 55.27 82.93 C 53.68 84.32 51.93 85.54 50.00 86.42 M 43.94 87.91 C 44.75 88.60 45.58 89.27 46.42 89.92 C 47.07 89.96 48.36 90.03 49.00 90.07 C 49.00 88.84 48.99 87.61 48.99 86.38 C 48.29 86.00 46.90 85.24 46.21 84.85 C 45.35 85.79 44.47 86.74 43.94 87.91 M 87.43 92.11 C 89.07 91.37 90.70 90.62 92.27 89.73 C 90.96 88.46 89.66 87.20 88.35 85.93 C 84.73 86.66 87.06 89.85 87.43 92.11 Z" />
<path fill="#383838" opacity="1.00" d=" M 61.32 68.21 C 62.15 68.58 62.98 68.95 63.81 69.33 C 64.52 70.97 66.23 74.23 63.22 74.65 C 63.34 73.07 63.36 71.48 63.33 69.90 C 62.49 69.92 60.80 69.96 59.96 69.98 C 60.22 70.46 60.74 71.42 61.00 71.90 C 60.41 72.00 59.22 72.21 58.63 72.31 C 60.08 73.51 61.56 74.67 63.07 75.81 L 63.46 76.11 C 62.05 76.09 60.63 76.07 59.22 76.05 C 58.84 75.02 58.46 73.99 58.07 72.96 C 58.14 72.23 58.28 70.77 58.34 70.04 C 59.33 69.43 60.33 68.82 61.32 68.21 Z" />
</g>
<g id="#f4f7faff">
<path fill="#f4f7fa" opacity="1.00" d=" M 72.34 35.54 C 74.27 31.40 76.70 27.17 80.99 25.09 C 83.18 24.53 85.24 25.66 87.23 26.38 C 86.69 30.53 81.92 31.82 79.64 34.91 C 78.97 34.94 77.62 35.00 76.94 35.03 C 75.38 36.41 73.70 37.72 72.62 39.54 C 71.49 41.80 70.22 44.00 69.36 46.39 C 69.89 46.23 70.95 45.90 71.48 45.73 L 70.96 44.81 C 72.58 42.53 73.55 39.44 76.19 38.12 C 78.10 37.18 79.98 38.48 81.71 39.19 C 81.97 39.78 82.50 40.98 82.77 41.57 C 82.83 42.09 82.96 43.13 83.02 43.65 C 79.63 48.74 74.05 51.72 69.59 55.77 C 70.03 56.34 70.46 56.91 70.89 57.49 C 72.42 53.61 77.37 53.32 80.56 51.28 C 85.79 49.66 91.13 48.51 96.58 47.85 C 97.35 49.09 98.11 50.34 98.90 51.57 C 98.55 54.28 98.85 57.74 96.62 59.67 C 87.46 61.04 78.32 57.58 69.21 59.63 C 69.24 57.87 69.08 56.11 68.36 54.49 C 67.93 52.96 67.49 51.44 67.02 49.92 L 67.99 49.98 L 68.03 51.47 L 68.70 51.42 C 69.09 50.62 69.87 49.03 70.26 48.23 C 69.86 47.56 69.46 46.88 69.07 46.20 L 68.73 49.44 C 67.34 47.59 68.75 45.66 69.13 43.81 C 69.98 40.97 71.13 38.24 72.34 35.54 Z" />
<path fill="#f4f7fa" opacity="1.00" d=" M 27.47 28.01 C 36.14 26.74 43.25 33.12 49.02 38.69 C 46.54 37.40 43.92 36.41 41.41 35.21 C 38.30 35.35 35.00 36.34 32.38 34.03 L 31.68 34.65 C 30.47 32.25 27.42 31.47 25.20 33.02 L 26.86 31.45 C 26.42 31.12 25.54 30.46 25.10 30.13 C 25.69 29.60 26.87 28.54 27.47 28.01 Z" />
<path fill="#f4f7fa" opacity="1.00" d=" M 87.57 29.26 C 90.84 29.42 93.91 30.60 95.84 33.35 C 95.90 34.47 95.95 35.59 96.02 36.71 C 92.37 37.61 88.53 37.99 85.22 39.89 C 84.89 38.02 83.40 36.78 82.16 35.49 C 84.75 34.15 86.48 31.39 89.54 30.99 C 88.88 30.43 88.22 29.85 87.57 29.26 Z" />
<path fill="#f4f7fa" opacity="1.00" d=" M 21.31 32.93 C 23.78 33.08 26.17 33.72 28.54 34.38 C 29.03 34.60 30.02 35.05 30.52 35.27 C 31.66 35.94 32.81 36.59 33.91 37.33 C 33.95 38.71 33.09 39.89 32.69 41.16 C 29.64 40.26 26.47 40.07 23.35 39.62 C 21.66 39.43 20.95 37.87 20.23 36.57 C 20.61 35.36 20.97 34.15 21.31 32.93 Z" />
<path fill="#f4f7fa" opacity="1.00" d=" M 85.72 41.28 C 89.02 39.97 92.32 38.39 95.88 38.03 C 98.45 38.90 97.94 42.32 98.00 44.50 C 97.60 45.05 96.78 46.16 96.37 46.71 C 89.88 46.96 83.69 49.19 77.57 51.20 C 80.54 48.09 84.83 45.91 85.72 41.28 Z" />
<path fill="#f4f7fa" opacity="1.00" d=" M 36.99 40.21 C 39.71 38.78 42.90 38.53 45.60 40.16 C 49.50 42.69 53.97 46.68 53.09 51.80 C 52.97 51.91 52.71 52.14 52.58 52.25 L 51.69 53.03 C 50.42 52.38 49.18 51.65 47.85 51.12 C 46.25 51.40 44.75 52.09 43.33 52.86 C 45.60 52.92 47.80 53.43 49.94 54.15 L 50.14 55.27 L 49.17 55.17 C 48.78 56.60 48.36 58.03 47.97 59.46 C 41.70 59.34 35.47 60.27 29.19 60.01 C 26.52 57.37 23.01 52.39 26.17 49.04 C 31.86 49.82 37.56 50.71 43.10 52.27 C 43.13 51.94 43.18 51.29 43.21 50.96 C 36.88 50.05 30.64 48.46 24.25 47.91 C 22.29 46.04 21.68 43.38 20.93 40.88 C 25.05 40.71 29.27 41.35 33.12 42.79 C 35.77 45.19 38.06 48.10 41.55 49.37 C 43.20 50.02 44.85 50.68 46.58 51.09 C 43.45 48.84 39.67 47.56 36.99 44.68 C 37.00 43.19 37.00 41.70 36.99 40.21 Z" />
<path fill="#f4f7fa" opacity="1.00" d=" M 53.17 44.61 C 52.88 43.64 51.68 42.68 52.46 41.64 C 54.18 43.86 55.73 46.22 57.34 48.53 C 56.92 48.85 56.07 49.50 55.65 49.83 L 55.61 49.86 L 54.70 49.80 L 56.18 48.67 C 55.22 47.29 54.33 45.84 53.17 44.61 Z" />
<path fill="#f4f7fa" opacity="1.00" d=" M 67.68 62.90 C 69.10 61.50 70.85 60.56 72.61 59.66 C 77.02 60.58 81.53 59.90 85.96 60.52 C 89.14 60.96 92.35 61.09 95.56 61.03 C 96.36 61.84 97.16 62.65 97.96 63.46 C 98.75 67.14 97.62 70.66 94.78 73.12 C 88.70 72.47 83.35 69.10 77.57 67.31 C 74.87 66.34 72.20 65.23 69.39 64.61 C 68.96 64.18 68.10 63.33 67.68 62.90 Z" />
<path fill="#f4f7fa" opacity="1.00" d=" M 31.27 61.19 C 36.75 60.86 42.26 61.23 47.68 60.08 C 48.29 61.91 49.64 63.18 51.56 63.40 C 51.31 63.56 50.81 63.88 50.56 64.04 C 50.89 66.05 52.62 67.10 54.46 67.55 L 54.25 67.66 C 53.71 68.04 52.62 68.80 52.08 69.18 C 51.70 71.03 51.27 72.91 51.58 74.80 C 48.50 76.25 45.46 78.07 41.94 78.13 C 43.07 79.65 44.11 81.24 45.18 82.80 C 45.48 81.28 45.80 79.76 46.15 78.25 C 46.76 78.06 48.00 77.68 48.62 77.48 C 49.18 77.06 50.30 76.21 50.85 75.78 C 51.73 76.55 52.58 77.36 53.37 78.23 C 53.85 78.92 54.81 80.30 55.29 80.99 C 53.99 82.65 52.27 83.90 50.58 85.14 C 48.71 84.95 46.45 84.85 45.75 82.63 C 44.86 84.28 43.77 85.81 42.50 87.19 C 41.39 85.95 40.28 84.72 39.19 83.47 L 40.32 82.55 C 39.38 81.71 38.47 80.82 37.60 79.91 C 39.34 80.02 41.00 80.65 42.72 80.83 C 42.47 80.25 42.20 79.68 41.90 79.12 C 39.12 79.08 35.66 77.39 35.96 74.15 C 37.92 72.56 40.27 71.56 42.62 70.68 C 45.44 69.46 48.38 68.52 51.36 67.76 L 51.42 66.92 C 50.70 66.97 49.25 67.08 48.53 67.13 C 44.38 69.34 39.75 70.37 35.56 72.47 C 34.55 72.20 33.54 71.95 32.53 71.68 C 31.77 70.61 30.99 69.55 30.19 68.50 C 29.29 66.09 27.61 62.08 31.27 61.19 Z" />
<path fill="#f4f7fa" opacity="1.00" d=" M 67.90 65.06 C 76.32 67.18 84.03 71.29 92.09 74.41 C 91.95 76.02 92.31 78.01 90.58 78.91 C 88.24 79.17 85.89 78.97 83.55 78.93 C 83.01 78.62 81.93 77.99 81.39 77.67 C 77.75 76.20 74.65 73.75 71.44 71.53 C 70.02 69.52 69.98 66.72 67.90 65.06 Z" />
<path fill="#f4f7fa" opacity="1.00" d=" M 70.65 72.66 C 75.32 75.59 79.88 79.59 85.57 80.22 C 86.20 80.52 87.45 81.11 88.08 81.40 C 88.49 83.81 87.35 86.51 84.50 86.07 C 78.74 82.99 74.20 78.07 70.65 72.66 Z" />
<path fill="#f4f7fa" opacity="1.00" d=" M 69.75 77.22 C 70.22 76.95 71.16 76.42 71.63 76.15 C 75.81 80.12 79.24 85.30 84.97 87.16 C 85.57 88.83 86.04 90.54 86.44 92.28 C 84.80 91.68 83.18 91.06 81.57 90.41 C 76.80 86.89 72.49 82.53 69.75 77.22 Z" />
<path fill="#f4f7fa" opacity="1.00" d=" M 92.28 81.28 C 93.06 80.55 93.93 80.30 94.90 80.55 C 94.89 81.04 94.89 82.03 94.88 82.52 C 94.05 82.99 92.19 82.35 92.28 81.28 Z" />
<path fill="#f4f7fa" opacity="1.00" d=" M 89.05 81.57 C 91.18 82.36 93.28 83.27 95.31 84.30 C 94.52 85.88 93.70 87.44 92.85 88.99 C 91.58 87.82 90.30 86.67 89.02 85.53 C 89.02 84.20 89.03 82.89 89.05 81.57 Z" />
<path fill="#f4f7fa" opacity="1.00" d=" M 50.00 86.42 C 51.93 85.54 53.68 84.32 55.27 82.93 L 54.80 84.66 C 54.32 87.54 53.45 90.81 50.09 91.36 C 50.04 89.71 50.01 88.07 50.00 86.42 Z" />
<path fill="#f4f7fa" opacity="1.00" d=" M 43.94 87.91 C 44.47 86.74 45.35 85.79 46.21 84.85 C 46.90 85.24 48.29 86.00 48.99 86.38 C 48.99 87.61 49.00 88.84 49.00 90.07 C 48.36 90.03 47.07 89.96 46.42 89.92 C 45.58 89.27 44.75 88.60 43.94 87.91 Z" />
<path fill="#f4f7fa" opacity="1.00" d=" M 87.43 92.11 C 87.06 89.85 84.73 86.66 88.35 85.93 C 89.66 87.20 90.96 88.46 92.27 89.73 C 90.70 90.62 89.07 91.37 87.43 92.11 Z" />
</g>
<g id="#7d7395ff">
<path fill="#7d7395" opacity="1.00" d=" M 55.61 49.86 L 55.65 49.83 C 56.56 50.22 57.47 50.60 58.39 50.96 C 59.63 49.90 61.25 50.06 62.74 49.94 C 65.79 52.95 69.39 56.79 67.63 61.46 C 66.75 65.82 61.63 65.69 58.15 66.03 C 58.13 65.32 58.08 63.90 58.05 63.20 C 60.31 62.85 63.42 64.07 64.93 61.85 C 65.21 60.06 65.02 58.24 64.98 56.44 C 63.80 55.32 62.65 54.18 61.52 53.02 C 60.21 53.16 58.66 52.80 57.63 53.85 C 55.36 55.41 56.11 58.42 55.89 60.77 C 55.16 61.00 53.72 61.48 53.00 61.72 C 53.11 58.56 53.10 55.38 52.58 52.25 C 52.71 52.14 52.97 51.91 53.09 51.80 C 53.92 51.14 54.76 50.49 55.61 49.86 Z" />
<path fill="#7d7395" opacity="1.00" d=" M 54.46 67.55 C 58.43 66.93 62.63 67.36 66.33 65.41 C 67.13 66.39 67.94 67.37 68.76 68.34 C 69.35 70.53 69.82 72.74 70.26 74.96 C 67.39 77.98 63.18 79.94 59.13 77.94 C 55.00 77.06 56.43 72.18 56.02 69.11 C 55.58 68.75 54.69 68.02 54.25 67.66 L 54.46 67.55 M 61.32 68.21 C 60.33 68.82 59.33 69.43 58.34 70.04 C 58.28 70.77 58.14 72.23 58.07 72.96 C 58.46 73.99 58.84 75.02 59.22 76.05 C 60.63 76.07 62.05 76.09 63.46 76.11 L 63.07 75.81 C 63.10 75.52 63.18 74.94 63.22 74.65 C 66.23 74.23 64.52 70.97 63.81 69.33 C 62.98 68.95 62.15 68.58 61.32 68.21 Z" />
</g>
<g id="#da6d5cff">
<path fill="#da6d5c" opacity="1.00" d=" M 50.14 55.27 C 50.67 54.85 51.71 54.01 52.24 53.59 C 52.28 56.54 52.10 59.48 51.76 62.41 C 48.44 61.53 48.51 57.67 50.14 55.27 Z" />
<path fill="#da6d5c" opacity="1.00" d=" M 58.28 54.14 C 58.90 54.07 60.15 53.93 60.77 53.85 C 61.86 54.99 62.97 56.12 64.08 57.24 C 64.06 58.79 64.04 60.35 64.02 61.90 C 62.42 61.88 60.82 61.87 59.22 61.88 C 57.09 60.05 55.56 56.04 58.28 54.14 Z" />
</g>
<g id="#7eb0c5ff">
<path fill="#7eb0c5" opacity="1.00" d=" M 54.19 61.75 C 55.53 62.57 57.31 63.12 57.44 64.96 C 55.86 64.97 54.28 64.97 52.70 64.98 C 53.20 63.90 53.69 62.83 54.19 61.75 Z" />
<path fill="#7eb0c5" opacity="1.00" d=" M 53.35 70.15 C 56.36 68.62 53.47 73.46 53.35 70.15 Z" />
<path fill="#7eb0c5" opacity="1.00" d=" M 59.96 69.98 C 60.80 69.96 62.49 69.92 63.33 69.90 C 63.36 71.48 63.34 73.07 63.22 74.65 C 63.18 74.94 63.10 75.52 63.07 75.81 C 61.56 74.67 60.08 73.51 58.63 72.31 C 59.22 72.21 60.41 72.00 61.00 71.90 C 60.74 71.42 60.22 70.46 59.96 69.98 Z" />
<path fill="#7eb0c5" opacity="1.00" d=" M 52.84 72.01 C 54.47 71.52 55.09 72.08 54.72 73.69 C 53.11 74.18 52.48 73.62 52.84 72.01 Z" />
<path fill="#7eb0c5" opacity="1.00" d=" M 54.92 87.41 C 56.81 87.76 58.69 88.16 60.57 88.54 C 58.96 91.69 58.19 96.63 54.04 97.31 C 54.08 94.00 53.58 90.55 54.92 87.41 Z" />
<path fill="#7eb0c5" opacity="1.00" d=" M 63.05 87.83 C 64.92 87.80 66.78 87.87 68.65 87.93 C 67.93 91.51 66.72 95.09 64.11 97.76 C 61.11 95.48 61.44 90.85 63.05 87.83 Z" />
</g>
<g id="#5e5573ff">
<path fill="#5e5573" opacity="1.00" d=" M 52.08 69.18 C 52.62 68.80 53.71 68.04 54.25 67.66 C 54.69 68.02 55.58 68.75 56.02 69.11 C 56.43 72.18 55.00 77.06 59.13 77.94 C 63.18 79.94 67.39 77.98 70.26 74.96 C 70.13 75.53 69.87 76.66 69.75 77.22 C 67.98 80.53 63.91 81.93 60.35 81.64 C 57.63 81.34 56.06 78.45 53.37 78.23 C 52.58 77.36 51.73 76.55 50.85 75.78 C 50.30 76.21 49.18 77.06 48.62 77.48 C 48.00 77.68 46.76 78.06 46.15 78.25 C 45.80 79.76 45.48 81.28 45.18 82.80 C 44.11 81.24 43.07 79.65 41.94 78.13 C 45.46 78.07 48.50 76.25 51.58 74.80 C 51.27 72.91 51.70 71.03 52.08 69.18 M 53.35 70.15 C 53.47 73.46 56.36 68.62 53.35 70.15 M 52.84 72.01 C 52.48 73.62 53.11 74.18 54.72 73.69 C 55.09 72.08 54.47 71.52 52.84 72.01 Z" />
</g>
<g id="#5c8fa9ff">
<path fill="#5c8fa9" opacity="1.00" d=" M 64.22 82.28 C 65.55 81.91 66.87 81.48 68.18 81.05 C 69.15 83.22 69.14 85.62 69.21 87.95 L 68.65 87.93 C 66.78 87.87 64.92 87.80 63.05 87.83 C 62.98 85.89 63.43 84.03 64.22 82.28 Z" />
<path fill="#5c8fa9" opacity="1.00" d=" M 57.05 81.96 C 58.72 82.40 60.39 82.85 62.06 83.28 C 61.49 85.02 61.13 86.80 60.96 88.61 L 60.57 88.54 C 58.69 88.16 56.81 87.76 54.92 87.41 C 54.89 86.72 54.83 85.35 54.80 84.66 C 55.53 83.75 56.29 82.86 57.05 81.96 Z" />
</g>
</svg>
