<?xml version="1.0" encoding="UTF-8" ?>
<!DOCTYPE svg PUBLIC "-//W3C//DTD SVG 1.1//EN" "http://www.w3.org/Graphics/SVG/1.1/DTD/svg11.dtd">
<svg width="120pt" height="120pt" viewBox="0 0 120 120" version="1.1" xmlns="http://www.w3.org/2000/svg">
<g id="#2d3a2aff">
<path fill="#2d3a2a" opacity="1.00" d=" M 37.65 36.90 C 39.88 37.33 41.48 39.01 43.18 40.38 C 45.91 38.80 48.61 36.59 51.98 37.00 C 56.33 36.65 61.86 37.82 63.70 42.29 C 65.54 45.15 65.07 48.65 64.50 51.82 C 67.78 54.97 68.28 59.67 68.05 63.98 L 66.89 63.73 C 67.71 60.35 66.63 57.03 64.82 54.18 C 63.17 51.91 63.92 49.06 63.82 46.47 C 63.74 46.18 63.58 45.59 63.50 45.29 L 63.20 44.64 C 61.99 39.96 57.17 37.72 52.63 37.89 C 52.28 38.40 51.58 39.41 51.23 39.91 C 50.84 39.44 50.04 38.50 49.64 38.03 C 47.47 39.13 45.39 40.49 43.04 41.16 C 41.10 40.56 39.68 39.04 38.31 37.63 L 37.65 36.90 Z" />
</g>
<g id="#e2804aff">
<path fill="#e2804a" opacity="1.00" d=" M 38.31 37.63 C 39.68 39.04 41.10 40.56 43.04 41.16 C 45.39 40.49 47.47 39.13 49.64 38.03 C 50.04 38.50 50.84 39.44 51.23 39.91 C 48.54 40.88 45.94 42.08 43.49 43.54 C 41.16 42.18 38.81 40.84 36.43 39.56 C 36.90 39.08 37.84 38.11 38.31 37.63 Z" />
</g>
<g id="#cfff9aff">
<path fill="#cfff9a" opacity="1.00" d=" M 52.63 37.89 C 57.17 37.72 61.99 39.96 63.20 44.64 C 61.40 43.73 59.59 42.85 57.79 41.93 C 57.41 43.50 57.08 45.09 56.79 46.69 C 58.13 47.51 59.47 48.32 60.83 49.12 C 60.59 49.42 60.12 50.02 59.89 50.32 C 58.60 49.51 57.31 48.69 56.21 47.64 C 55.91 45.58 56.08 43.49 56.16 41.42 C 54.35 41.16 52.53 40.87 50.72 40.56 L 51.23 39.91 C 51.58 39.41 52.28 38.40 52.63 37.89 Z" />
</g>
<g id="#4f3724ff">
<path fill="#4f3724" opacity="1.00" d=" M 35.58 39.11 L 36.43 39.56 C 38.81 40.84 41.16 42.18 43.49 43.54 C 45.94 42.08 48.54 40.88 51.23 39.91 L 50.72 40.56 C 48.09 42.11 45.83 44.16 44.56 46.99 C 43.62 46.57 42.68 46.15 41.74 45.72 C 41.68 45.21 41.55 44.17 41.48 43.65 C 39.21 42.58 36.57 41.67 35.58 39.11 Z" />
</g>
<g id="#95cf6fff">
<path fill="#95cf6f" opacity="1.00" d=" M 44.56 46.99 C 45.83 44.16 48.09 42.11 50.72 40.56 C 52.53 40.87 54.35 41.16 56.16 41.42 C 56.08 43.49 55.91 45.58 56.21 47.64 C 57.31 48.69 58.60 49.51 59.89 50.32 C 60.12 50.02 60.59 49.42 60.83 49.12 C 61.75 47.87 62.63 46.58 63.50 45.29 C 63.58 45.59 63.74 46.18 63.82 46.47 C 63.92 49.06 63.17 51.91 64.82 54.18 C 66.63 57.03 67.71 60.35 66.89 63.73 C 66.72 64.43 66.39 65.84 66.22 66.54 C 64.04 66.66 61.81 66.99 59.65 66.51 C 56.99 64.18 57.14 60.38 56.71 57.17 C 58.18 56.49 59.65 55.83 61.13 55.17 C 58.80 55.02 55.99 55.74 54.19 53.81 C 51.29 51.03 48.24 48.03 43.96 47.82 C 47.08 49.41 50.75 50.72 52.48 54.03 C 52.56 56.82 49.04 56.64 47.07 57.16 C 41.50 56.34 42.60 49.81 41.74 45.72 C 42.68 46.15 43.62 46.57 44.56 46.99 Z" />
</g>
<g id="#0d090aff">
<path fill="#0d090a" opacity="1.00" d=" M 57.79 41.93 C 59.59 42.85 61.40 43.73 63.20 44.64 L 63.50 45.29 C 62.63 46.58 61.75 47.87 60.83 49.12 C 59.47 48.32 58.13 47.51 56.79 46.69 C 57.08 45.09 57.41 43.50 57.79 41.93 Z" />
<path fill="#0d090a" opacity="1.00" d=" M 42.29 55.70 C 40.84 52.65 40.74 48.93 41.74 45.72 C 42.60 49.81 41.50 56.34 47.07 57.16 C 49.04 56.64 52.56 56.82 52.48 54.03 C 50.75 50.72 47.08 49.41 43.96 47.82 C 48.24 48.03 51.29 51.03 54.19 53.81 C 55.99 55.74 58.80 55.02 61.13 55.17 C 59.65 55.83 58.18 56.49 56.71 57.17 C 57.14 60.38 56.99 64.18 59.65 66.51 C 61.81 66.99 64.04 66.66 66.22 66.54 C 66.74 69.01 67.02 71.52 67.18 74.04 C 70.00 74.52 72.84 74.23 75.66 73.87 C 77.27 70.61 78.41 65.62 82.98 65.76 C 82.98 67.66 82.90 69.57 82.53 71.44 C 82.37 69.73 82.20 68.01 82.03 66.30 C 78.63 68.16 77.23 72.03 76.36 75.59 C 76.40 78.81 73.85 80.43 71.16 81.50 C 71.49 80.21 71.82 78.93 72.15 77.64 C 72.91 78.19 73.67 78.74 74.43 79.29 C 74.82 78.10 75.21 76.90 75.59 75.71 C 72.42 75.28 69.22 75.05 66.10 74.31 C 66.24 72.43 66.36 70.56 66.48 68.69 C 64.23 68.13 61.92 67.78 59.60 67.63 C 59.79 69.49 60.02 71.34 60.42 73.16 C 61.66 74.43 63.05 75.55 64.45 76.64 C 63.88 77.08 63.31 77.53 62.74 77.99 C 62.42 77.53 61.77 76.61 61.45 76.15 C 59.43 77.02 57.42 77.90 55.42 78.80 C 59.11 82.25 64.24 82.64 69.03 82.37 C 65.26 83.16 60.77 83.87 57.37 81.62 C 55.08 79.58 53.15 77.14 50.58 75.41 C 47.94 73.50 51.08 70.54 51.66 68.30 C 49.68 67.32 47.55 66.42 46.14 64.65 C 45.73 62.51 46.40 60.40 46.88 58.34 C 45.31 57.54 43.55 56.97 42.29 55.70 M 50.24 57.02 C 49.31 58.04 48.38 59.05 47.47 60.07 C 48.25 61.69 49.09 63.28 49.97 64.85 L 49.10 65.40 C 50.60 66.53 52.32 67.26 54.17 67.59 C 53.63 66.14 53.06 64.70 52.47 63.26 C 53.24 62.73 54.06 62.30 54.94 61.95 C 56.74 61.54 56.18 59.23 56.67 57.92 C 54.71 56.78 52.40 57.09 50.24 57.02 M 47.28 63.28 C 47.88 63.88 47.88 63.88 47.28 63.28 M 53.16 64.43 C 54.54 65.24 55.96 66.01 57.40 66.73 C 57.27 65.61 57.03 63.38 56.90 62.27 C 55.50 62.69 54.06 63.20 53.16 64.43 M 53.03 73.99 C 51.48 77.24 56.84 77.11 58.84 77.05 C 57.63 75.94 56.66 73.92 54.78 73.97 C 56.30 72.79 57.59 71.33 58.93 69.95 C 57.73 69.12 56.74 67.34 55.04 67.68 C 52.00 67.56 50.17 72.41 53.03 73.99 M 57.28 72.17 C 56.05 73.42 58.19 75.47 59.43 74.30 C 60.62 73.07 58.51 70.91 57.28 72.17 M 51.19 74.20 C 51.82 74.83 51.82 74.83 51.19 74.20 Z" />
</g>
<g id="#d6c482ff">
<path fill="#d6c482" opacity="1.00" d=" M 50.24 57.02 C 52.40 57.09 54.71 56.78 56.67 57.92 C 53.64 58.81 50.56 59.48 47.47 60.07 C 48.38 59.05 49.31 58.04 50.24 57.02 Z" />
<path fill="#d6c482" opacity="1.00" d=" M 53.03 73.99 C 50.17 72.41 52.00 67.56 55.04 67.68 C 56.74 67.34 57.73 69.12 58.93 69.95 C 57.59 71.33 56.30 72.79 54.78 73.97 C 54.34 73.98 53.47 73.98 53.03 73.99 Z" />
</g>
<g id="#fff19bff">
<path fill="#fff19b" opacity="1.00" d=" M 47.47 60.07 C 50.56 59.48 53.64 58.81 56.67 57.92 C 56.18 59.23 56.74 61.54 54.94 61.95 C 54.06 62.30 53.24 62.73 52.47 63.26 C 51.84 63.66 50.59 64.45 49.97 64.85 C 49.09 63.28 48.25 61.69 47.47 60.07 Z" />
<path fill="#fff19b" opacity="1.00" d=" M 76.36 75.59 C 77.23 72.03 78.63 68.16 82.03 66.30 C 82.20 68.01 82.37 69.73 82.53 71.44 C 82.10 71.48 81.23 71.56 80.79 71.60 C 80.35 71.88 79.48 72.46 79.04 72.75 C 78.24 73.78 77.35 74.73 76.36 75.59 Z" />
</g>
<g id="#cbc989ff">
<path fill="#cbc989" opacity="1.00" d=" M 47.28 63.28 C 47.88 63.88 47.88 63.88 47.28 63.28 Z" />
</g>
<g id="#faf5a3ff">
<path fill="#faf5a3" opacity="1.00" d=" M 53.16 64.43 C 54.06 63.20 55.50 62.69 56.90 62.27 C 57.03 63.38 57.27 65.61 57.40 66.73 C 55.96 66.01 54.54 65.24 53.16 64.43 Z" />
</g>
<g id="#baab70ff">
<path fill="#baab70" opacity="1.00" d=" M 49.97 64.85 C 50.59 64.45 51.84 63.66 52.47 63.26 C 53.06 64.70 53.63 66.14 54.17 67.59 C 52.32 67.26 50.60 66.53 49.10 65.40 L 49.97 64.85 Z" />
</g>
<g id="#9ad773ff">
<path fill="#9ad773" opacity="1.00" d=" M 59.60 67.63 C 61.92 67.78 64.23 68.13 66.48 68.69 C 66.36 70.56 66.24 72.43 66.10 74.31 C 64.21 73.89 62.32 73.51 60.42 73.16 C 60.02 71.34 59.79 69.49 59.60 67.63 Z" />
</g>
<g id="#e9e395ff">
<path fill="#e9e395" opacity="1.00" d=" M 57.28 72.17 C 58.51 70.91 60.62 73.07 59.43 74.30 C 58.19 75.47 56.05 73.42 57.28 72.17 Z" />
</g>
<g id="#47412bff">
<path fill="#47412b" opacity="1.00" d=" M 79.04 72.75 C 79.48 72.46 80.35 71.88 80.79 71.60 L 80.79 72.52 L 79.88 73.10 L 79.04 72.75 Z" />
</g>
<g id="#78a95dff">
<path fill="#78a95d" opacity="1.00" d=" M 60.42 73.16 C 62.32 73.51 64.21 73.89 66.10 74.31 C 69.22 75.05 72.42 75.28 75.59 75.71 C 75.21 76.90 74.82 78.10 74.43 79.29 C 73.67 78.74 72.91 78.19 72.15 77.64 C 71.82 78.93 71.49 80.21 71.16 81.50 C 68.01 81.30 64.36 81.20 62.74 77.99 C 63.31 77.53 63.88 77.08 64.45 76.64 C 63.05 75.55 61.66 74.43 60.42 73.16 Z" />
</g>
<g id="#f8f19bff">
<path fill="#f8f19b" opacity="1.00" d=" M 51.19 74.20 C 51.82 74.83 51.82 74.83 51.19 74.20 Z" />
</g>
<g id="#afa06aff">
<path fill="#afa06a" opacity="1.00" d=" M 53.03 73.99 C 53.47 73.98 54.34 73.98 54.78 73.97 C 56.66 73.92 57.63 75.94 58.84 77.05 C 56.84 77.11 51.48 77.24 53.03 73.99 Z" />
</g>
<g id="#b0a16aff">
<path fill="#b0a16a" opacity="1.00" d=" M 55.42 78.80 C 57.42 77.90 59.43 77.02 61.45 76.15 C 61.77 76.61 62.42 77.53 62.74 77.99 C 64.36 81.20 68.01 81.30 71.16 81.50 C 70.63 81.72 69.56 82.16 69.03 82.37 C 64.24 82.64 59.11 82.25 55.42 78.80 Z" />
</g>
</svg>
