<?xml version="1.0" encoding="UTF-8" ?>
<!DOCTYPE svg PUBLIC "-//W3C//DTD SVG 1.1//EN" "http://www.w3.org/Graphics/SVG/1.1/DTD/svg11.dtd">
<svg width="120pt" height="120pt" viewBox="0 0 120 120" version="1.1" xmlns="http://www.w3.org/2000/svg">
<g id="#fad0e2ff">
<path fill="#fad0e2" opacity="1.00" d=" M 51.31 31.83 C 53.14 31.19 55.01 30.61 56.73 29.70 C 60.09 29.61 63.46 29.68 66.82 29.56 L 66.25 30.81 C 67.14 30.72 68.94 30.55 69.84 30.47 L 69.29 31.96 C 69.88 31.79 71.07 31.47 71.67 31.30 L 71.35 32.89 C 71.90 32.74 73.02 32.44 73.57 32.29 L 73.32 33.75 L 74.64 33.33 L 74.27 34.70 L 75.63 34.37 L 75.30 35.65 L 76.59 35.46 L 76.37 36.84 L 77.69 36.29 L 77.46 37.48 C 80.04 37.63 82.62 37.68 85.20 37.62 C 85.20 38.50 85.20 40.25 85.20 41.12 C 82.04 39.87 78.77 38.72 75.32 38.94 C 77.91 40.47 80.66 41.71 83.45 42.85 C 83.57 43.43 83.80 44.59 83.92 45.17 C 81.27 43.28 78.50 41.46 75.32 40.61 C 76.96 42.83 79.09 44.61 81.32 46.21 C 80.36 46.40 79.39 46.58 78.42 46.76 C 76.96 45.20 75.31 43.82 73.41 42.81 C 74.94 46.92 78.01 50.10 81.12 53.06 C 83.25 53.14 85.39 53.23 87.53 53.32 C 88.47 57.38 90.20 61.46 89.65 65.70 C 88.62 70.23 85.60 74.16 81.92 76.90 C 76.04 80.74 68.86 82.02 61.93 81.87 C 62.86 78.97 64.37 76.09 64.22 72.97 C 63.53 69.61 62.12 66.44 61.09 63.17 C 64.13 62.03 67.33 61.40 70.41 60.39 C 72.44 59.80 72.55 57.31 73.46 55.74 C 69.50 60.72 62.80 59.94 57.37 61.99 C 60.92 58.96 63.84 55.27 66.61 51.53 C 63.02 53.61 60.32 56.79 57.44 59.69 C 54.03 57.03 49.84 58.13 46.26 59.75 C 45.22 57.47 44.09 55.22 42.80 53.06 C 42.64 56.13 43.47 59.09 44.92 61.78 C 41.41 61.56 38.51 59.62 36.06 57.22 C 36.43 58.70 36.89 60.14 37.45 61.55 C 39.38 62.59 41.55 63.00 43.65 63.55 C 42.36 66.69 41.45 69.97 40.64 73.26 C 36.22 68.82 34.20 62.28 35.43 56.12 C 35.97 51.26 39.42 47.58 41.54 43.38 C 38.53 45.41 36.28 48.64 32.63 49.64 C 33.89 45.93 37.52 44.27 40.67 42.47 C 38.47 40.14 35.42 41.28 32.73 41.84 C 33.19 41.35 34.10 40.37 34.56 39.88 C 35.30 39.46 36.05 39.04 36.79 38.63 C 39.42 38.32 42.64 39.57 44.80 37.58 L 45.57 38.15 C 45.37 34.73 49.88 34.46 51.31 31.83 M 59.95 35.98 C 60.19 36.38 60.69 37.18 60.93 37.57 C 59.61 37.99 58.86 38.88 58.69 40.27 C 61.27 40.40 62.39 38.30 62.21 36.01 C 61.65 36.00 60.51 35.99 59.95 35.98 M 50.15 38.18 C 49.62 39.82 50.16 40.37 51.79 39.84 C 52.33 38.21 51.79 37.65 50.15 38.18 M 40.37 40.39 C 40.62 40.63 40.62 40.63 40.37 40.39 M 51.12 42.25 C 51.35 43.89 55.01 45.64 56.02 43.91 C 54.95 42.61 52.74 42.16 51.12 42.25 M 57.30 42.32 C 57.75 42.76 57.75 42.76 57.30 42.32 M 39.15 53.11 C 37.74 53.79 37.67 54.46 38.93 55.11 C 40.32 54.43 40.39 53.76 39.15 53.11 M 37.35 56.34 C 37.69 56.66 37.69 56.66 37.35 56.34 Z" />
</g>
<g id="#dda9b6ff">
<path fill="#dda9b6" opacity="1.00" d=" M 59.95 35.98 C 60.51 35.99 61.65 36.00 62.21 36.01 C 62.39 38.30 61.27 40.40 58.69 40.27 C 58.86 38.88 59.61 37.99 60.93 37.57 C 60.69 37.18 60.19 36.38 59.95 35.98 Z" />
<path fill="#dda9b6" opacity="1.00" d=" M 50.15 38.18 C 51.79 37.65 52.33 38.21 51.79 39.84 C 50.16 40.37 49.62 39.82 50.15 38.18 Z" />
<path fill="#dda9b6" opacity="1.00" d=" M 85.20 37.62 C 88.48 37.68 91.88 37.18 95.09 37.86 C 95.31 38.48 95.75 39.71 95.97 40.33 C 95.19 41.04 94.41 41.77 93.63 42.49 C 91.74 42.16 90.57 42.86 90.11 44.58 C 90.99 44.54 92.76 44.47 93.64 44.44 C 93.68 45.52 93.73 46.60 93.79 47.68 C 91.74 48.46 89.56 48.71 87.38 48.54 C 87.43 49.58 87.54 51.66 87.59 52.70 L 88.80 52.31 C 88.72 53.17 88.55 54.90 88.46 55.76 L 89.77 55.25 C 89.68 56.76 89.58 58.27 89.48 59.77 L 90.69 59.22 C 90.54 65.10 91.21 71.12 88.94 76.71 C 88.31 77.59 87.67 78.47 87.02 79.35 C 86.16 82.04 82.45 83.14 82.50 86.06 C 84.71 86.65 84.67 88.88 84.93 90.70 C 82.37 90.14 77.89 92.03 77.22 88.37 L 76.24 88.71 L 76.63 87.15 C 73.14 88.21 69.55 88.90 65.97 89.57 C 62.06 89.72 58.14 89.49 54.23 89.70 L 54.86 88.55 C 54.00 88.53 52.29 88.51 51.44 88.49 L 51.74 89.68 C 47.43 89.46 43.11 89.75 38.80 89.45 C 40.44 87.72 42.57 86.57 44.31 84.94 C 42.79 84.62 40.79 84.63 40.19 82.86 C 39.95 82.50 39.48 81.77 39.24 81.40 L 38.30 81.67 L 38.58 80.76 C 36.71 80.46 36.12 79.02 36.52 77.27 L 35.02 77.74 C 35.27 77.15 35.79 75.98 36.04 75.40 L 34.40 75.87 C 34.51 74.33 34.60 72.80 34.70 71.27 L 33.43 71.87 C 33.85 66.11 32.85 60.22 34.78 54.65 C 35.04 53.57 35.55 51.43 35.80 50.36 C 34.23 51.64 33.05 53.88 30.71 53.77 L 30.74 54.67 C 28.62 54.59 26.50 54.58 24.38 54.63 C 24.43 54.08 24.53 52.97 24.58 52.42 C 25.45 51.57 26.32 50.71 27.18 49.85 C 25.62 49.55 24.08 49.18 22.55 48.74 C 23.01 48.70 23.92 48.62 24.38 48.58 C 24.35 46.65 26.44 46.38 27.67 45.48 L 28.97 46.01 L 28.20 44.39 C 31.36 43.74 34.65 44.96 37.56 43.24 L 37.70 42.19 C 35.91 43.05 34.02 43.54 32.02 43.49 C 31.58 43.62 30.70 43.87 30.26 44.00 C 28.91 43.80 27.55 43.62 26.19 43.46 C 26.36 42.84 26.69 41.61 26.86 40.99 C 29.36 40.25 31.90 38.98 34.56 39.88 C 34.10 40.37 33.19 41.35 32.73 41.84 C 35.42 41.28 38.47 40.14 40.67 42.47 C 37.52 44.27 33.89 45.93 32.63 49.64 C 36.28 48.64 38.53 45.41 41.54 43.38 C 39.42 47.58 35.97 51.26 35.43 56.12 C 34.20 62.28 36.22 68.82 40.64 73.26 C 41.45 69.97 42.36 66.69 43.65 63.55 C 41.55 63.00 39.38 62.59 37.45 61.55 C 36.89 60.14 36.43 58.70 36.06 57.22 C 38.51 59.62 41.41 61.56 44.92 61.78 C 43.47 59.09 42.64 56.13 42.80 53.06 C 44.09 55.22 45.22 57.47 46.26 59.75 C 49.84 58.13 54.03 57.03 57.44 59.69 C 60.32 56.79 63.02 53.61 66.61 51.53 C 63.84 55.27 60.92 58.96 57.37 61.99 C 62.80 59.94 69.50 60.72 73.46 55.74 C 72.55 57.31 72.44 59.80 70.41 60.39 C 67.33 61.40 64.13 62.03 61.09 63.17 C 62.12 66.44 63.53 69.61 64.22 72.97 C 64.37 76.09 62.86 78.97 61.93 81.87 C 68.86 82.02 76.04 80.74 81.92 76.90 C 85.60 74.16 88.62 70.23 89.65 65.70 C 90.20 61.46 88.47 57.38 87.53 53.32 C 85.39 53.23 83.25 53.14 81.12 53.06 C 78.01 50.10 74.94 46.92 73.41 42.81 C 75.31 43.82 76.96 45.20 78.42 46.76 C 79.39 46.58 80.36 46.40 81.32 46.21 C 79.09 44.61 76.96 42.83 75.32 40.61 C 78.50 41.46 81.27 43.28 83.92 45.17 C 83.80 44.59 83.57 43.43 83.45 42.85 C 80.66 41.71 77.91 40.47 75.32 38.94 C 78.77 38.72 82.04 39.87 85.20 41.12 C 85.20 40.25 85.20 38.50 85.20 37.62 M 48.38 60.34 C 45.73 62.94 43.53 66.24 43.08 69.99 C 42.68 71.71 44.42 72.81 45.92 72.86 C 51.04 73.52 56.07 72.11 60.90 70.58 C 61.21 67.32 60.02 62.78 56.01 62.80 C 55.99 62.17 55.95 60.91 55.93 60.28 C 53.43 59.48 50.85 59.33 48.38 60.34 Z" />
<path fill="#dda9b6" opacity="1.00" d=" M 40.37 40.39 C 40.62 40.63 40.62 40.63 40.37 40.39 Z" />
<path fill="#dda9b6" opacity="1.00" d=" M 51.12 42.25 C 52.74 42.16 54.95 42.61 56.02 43.91 C 55.01 45.64 51.35 43.89 51.12 42.25 Z" />
<path fill="#dda9b6" opacity="1.00" d=" M 57.30 42.32 C 57.75 42.76 57.75 42.76 57.30 42.32 Z" />
<path fill="#dda9b6" opacity="1.00" d=" M 39.15 53.11 C 40.39 53.76 40.32 54.43 38.93 55.11 C 37.67 54.46 37.74 53.79 39.15 53.11 Z" />
<path fill="#dda9b6" opacity="1.00" d=" M 37.35 56.34 C 37.69 56.66 37.69 56.66 37.35 56.34 Z" />
</g>
<g id="#f9f4eaff">
<path fill="#f9f4ea" opacity="1.00" d=" M 48.38 60.34 C 50.85 59.33 53.43 59.48 55.93 60.28 C 55.95 60.91 55.99 62.17 56.01 62.80 C 60.02 62.78 61.21 67.32 60.90 70.58 C 56.07 72.11 51.04 73.52 45.92 72.86 C 44.42 72.81 42.68 71.71 43.08 69.99 C 43.53 66.24 45.73 62.94 48.38 60.34 Z" />
</g>
</svg>
