<?xml version="1.0" encoding="UTF-8" ?>
<!DOCTYPE svg PUBLIC "-//W3C//DTD SVG 1.1//EN" "http://www.w3.org/Graphics/SVG/1.1/DTD/svg11.dtd">
<svg width="120pt" height="120pt" viewBox="0 0 120 120" version="1.1" xmlns="http://www.w3.org/2000/svg">
<g id="#382928e0">
<path fill="#382928" opacity="0.88" d=" M 51.33 31.84 C 54.37 29.24 56.72 26.07 59.24 22.99 C 59.97 22.99 61.42 22.99 62.15 22.99 C 62.03 24.57 62.12 26.24 61.19 27.62 C 61.14 28.10 61.03 29.05 60.98 29.53 C 63.63 31.60 65.46 34.41 66.86 37.43 C 66.96 37.92 67.16 38.90 67.26 39.40 C 68.80 41.81 67.82 44.65 66.86 47.06 L 65.81 46.95 C 68.56 42.52 65.63 37.59 63.32 33.69 C 62.26 32.56 61.13 31.51 60.00 30.45 C 60.35 28.15 60.74 25.86 61.09 23.56 C 56.91 25.25 55.92 30.67 51.33 31.84 Z" />
</g>
<g id="#ffa790ff">
<path fill="#ffa790" opacity="1.00" d=" M 51.33 31.84 C 55.92 30.67 56.91 25.25 61.09 23.56 C 60.74 25.86 60.35 28.15 60.00 30.45 C 61.13 31.51 62.26 32.56 63.32 33.69 C 62.91 35.31 62.48 36.93 62.17 38.57 C 62.25 38.96 62.40 39.73 62.48 40.11 L 61.87 40.39 C 61.76 40.44 61.55 40.55 61.45 40.60 C 59.89 41.44 58.87 42.89 57.82 44.26 C 55.96 44.40 53.86 44.97 52.13 44.01 C 51.60 43.08 51.11 42.13 50.67 41.16 L 51.00 40.26 L 50.65 39.34 C 49.78 37.40 49.65 35.28 49.59 33.20 C 49.22 33.38 48.48 33.75 48.11 33.93 C 49.09 33.09 50.20 32.44 51.33 31.84 M 55.28 38.26 C 55.77 38.82 55.77 38.82 55.28 38.26 Z" />
</g>
<g id="#80240eff">
<path fill="#80240e" opacity="1.00" d=" M 73.66 27.75 C 75.06 28.71 76.49 29.63 77.98 30.45 L 77.93 31.17 C 77.42 31.14 76.39 31.09 75.88 31.06 C 76.33 33.11 76.79 35.16 77.13 37.23 C 77.18 37.88 77.28 39.17 77.34 39.81 C 75.26 38.26 76.54 35.38 75.22 33.39 C 75.08 32.46 74.94 31.52 74.82 30.58 C 74.53 29.87 73.95 28.46 73.66 27.75 Z" />
</g>
<g id="#fd3c1bff">
<path fill="#fd3c1b" opacity="1.00" d=" M 75.88 31.06 C 76.39 31.09 77.42 31.14 77.93 31.17 C 78.43 31.20 79.44 31.25 79.94 31.27 L 80.15 32.19 C 80.45 32.66 81.04 33.60 81.34 34.07 C 79.90 35.08 78.49 36.12 77.13 37.23 C 76.79 35.16 76.33 33.11 75.88 31.06 Z" />
</g>
<g id="#77220eff">
<path fill="#77220e" opacity="1.00" d=" M 80.15 32.19 C 81.59 31.59 82.19 32.09 81.93 33.67 L 81.34 34.07 C 81.04 33.60 80.45 32.66 80.15 32.19 Z" />
</g>
<g id="#ff947fff">
<path fill="#ff947f" opacity="1.00" d=" M 48.11 33.93 C 48.48 33.75 49.22 33.38 49.59 33.20 C 49.65 35.28 49.78 37.40 50.65 39.34 C 49.28 39.74 49.29 40.34 50.67 41.16 C 51.11 42.13 51.60 43.08 52.13 44.01 C 53.86 44.97 55.96 44.40 57.82 44.26 C 59.66 43.95 61.48 43.51 63.26 42.91 C 65.14 42.61 63.91 40.09 62.48 40.11 C 62.40 39.73 62.25 38.96 62.17 38.57 C 62.48 36.93 62.91 35.31 63.32 33.69 C 65.63 37.59 68.56 42.52 65.81 46.95 C 65.62 47.36 65.24 48.17 65.06 48.57 C 64.59 47.68 64.13 46.79 63.67 45.90 C 62.17 49.32 57.75 47.36 55.02 49.04 C 52.82 50.30 50.45 49.90 48.22 48.95 C 47.43 47.35 46.59 45.78 45.91 44.13 C 47.21 43.92 48.51 43.77 49.81 43.61 C 47.97 42.16 47.13 39.95 46.25 37.86 C 46.70 36.67 47.16 35.48 47.62 34.30 C 47.74 34.21 47.99 34.02 48.11 33.93 M 52.10 47.12 C 50.51 50.10 55.41 47.34 52.10 47.12 Z" />
</g>
<g id="#f7800fff">
<path fill="#f7800f" opacity="1.00" d=" M 77.13 37.23 C 78.49 36.12 79.90 35.08 81.34 34.07 L 81.93 33.67 C 82.30 34.06 83.04 34.85 83.41 35.24 C 81.29 36.64 79.22 38.11 77.34 39.81 C 77.28 39.17 77.18 37.88 77.13 37.23 Z" />
</g>
<g id="#563a33fb">
<path fill="#563a33" opacity="1.00" d=" M 45.73 39.55 C 44.37 37.54 46.26 35.62 47.62 34.30 C 47.16 35.48 46.70 36.67 46.25 37.86 C 47.13 39.95 47.97 42.16 49.81 43.61 C 48.51 43.77 47.21 43.92 45.91 44.13 C 46.59 45.78 47.43 47.35 48.22 48.95 C 50.45 49.90 52.82 50.30 55.02 49.04 C 57.75 47.36 62.17 49.32 63.67 45.90 C 64.13 46.79 64.59 47.68 65.06 48.57 L 65.11 48.68 C 64.50 49.12 63.27 50.01 62.66 50.45 C 63.05 51.74 63.53 53.00 64.08 54.23 C 65.26 54.16 66.44 54.08 67.63 54.02 C 70.63 57.04 72.53 61.09 76.20 63.44 C 78.08 60.41 79.84 57.20 80.42 53.64 C 81.21 51.42 80.82 48.86 82.31 46.90 C 79.78 48.45 79.43 44.99 78.67 43.55 C 78.47 42.94 78.07 41.72 77.88 41.10 C 79.12 42.83 80.19 44.67 81.44 46.38 C 82.05 46.29 83.27 46.10 83.88 46.01 C 84.04 48.23 83.69 50.63 84.81 52.66 C 84.85 53.88 84.87 55.10 84.86 56.32 C 83.43 58.53 84.61 61.39 83.16 63.59 C 83.07 64.74 82.98 65.90 82.90 67.06 L 81.74 66.80 C 83.05 60.50 84.50 54.02 82.71 47.65 C 82.06 50.63 81.54 53.63 80.91 56.61 C 79.68 59.02 78.45 61.43 77.14 63.79 C 77.99 64.62 78.85 65.45 79.71 66.28 C 80.07 67.49 80.44 68.70 80.82 69.91 C 81.30 71.45 81.81 72.99 82.29 74.54 C 84.46 78.58 82.87 82.85 82.98 87.12 C 81.75 86.76 80.53 86.42 79.30 86.10 C 79.99 84.66 79.80 83.42 78.72 82.36 C 77.15 83.22 77.46 85.42 78.59 86.51 C 79.33 87.90 79.17 89.28 78.09 90.62 C 78.43 91.09 79.09 92.04 79.42 92.52 C 79.70 93.67 79.96 94.83 80.20 95.99 C 75.73 96.01 71.26 95.98 66.80 96.03 C 67.64 94.70 68.46 93.36 69.29 92.04 C 68.29 90.77 67.35 89.44 66.65 87.97 C 62.71 87.96 58.68 88.41 54.86 87.20 C 54.36 87.40 53.37 87.81 52.88 88.02 C 54.39 90.04 53.95 92.63 54.05 94.99 C 48.62 95.01 43.19 95.00 37.77 95.01 C 38.13 94.53 38.85 93.57 39.21 93.10 L 40.04 93.66 C 40.43 93.73 41.23 93.87 41.63 93.94 L 41.93 93.26 C 41.50 93.17 40.63 92.98 40.20 92.89 C 41.04 92.21 41.88 91.55 42.73 90.89 L 43.47 91.31 C 44.59 92.19 45.86 92.61 47.27 92.57 C 48.75 94.38 51.16 93.89 53.21 94.04 C 52.83 92.18 52.42 90.32 51.98 88.48 C 52.45 88.01 53.38 87.07 53.85 86.60 C 51.34 84.09 49.54 80.85 49.72 77.21 L 50.22 77.98 C 51.28 80.68 52.26 83.64 54.81 85.32 C 57.88 87.87 62.11 86.92 65.77 87.08 C 65.87 86.35 66.09 84.90 66.19 84.18 C 66.28 83.76 66.45 82.93 66.54 82.52 C 67.19 79.78 67.24 76.96 67.11 74.16 C 67.67 76.25 68.22 78.34 68.65 80.46 C 68.06 81.66 67.43 82.83 67.03 84.10 C 66.69 86.76 68.86 88.73 70.19 90.76 C 72.36 90.74 74.52 90.74 76.69 90.73 C 76.95 90.36 77.46 89.62 77.72 89.24 C 77.39 87.46 77.11 85.66 76.85 83.87 C 75.57 84.77 74.28 85.65 72.96 86.48 C 73.10 85.14 73.25 83.81 73.41 82.47 C 72.63 78.44 73.62 74.41 73.57 70.38 L 72.33 68.39 C 72.43 69.54 72.63 71.85 72.73 73.00 C 70.79 69.69 69.46 65.91 66.55 63.27 C 66.44 62.76 66.23 61.75 66.12 61.25 C 69.09 63.66 72.05 66.10 74.86 68.71 C 75.30 72.70 74.17 76.69 74.08 80.69 C 76.78 81.43 79.54 81.93 82.33 82.19 C 82.30 76.93 80.08 72.12 78.80 67.12 C 74.13 63.75 70.15 59.63 66.77 54.99 C 66.01 55.01 64.50 55.06 63.74 55.09 C 62.47 53.80 61.20 52.50 59.91 51.23 C 60.75 50.41 61.59 49.59 62.42 48.77 C 61.30 49.24 60.18 49.72 59.07 50.21 C 58.42 49.82 57.12 49.04 56.47 48.65 C 56.99 49.19 58.02 50.27 58.54 50.81 C 55.99 51.54 53.39 52.02 50.75 52.28 C 51.19 52.75 52.06 53.70 52.50 54.18 C 54.85 53.45 57.12 52.51 59.48 51.82 C 57.11 53.47 54.54 54.83 51.97 56.14 L 52.27 54.96 C 50.97 55.52 49.67 56.08 48.38 56.66 L 49.41 55.49 L 51.31 54.84 C 48.60 52.33 46.89 49.02 45.11 45.85 C 45.46 43.78 46.75 41.64 45.73 39.55 M 74.31 84.38 C 75.64 84.50 76.18 83.84 75.94 82.40 C 74.63 82.26 74.08 82.92 74.31 84.38 M 81.17 83.31 C 79.79 86.44 84.45 83.33 81.17 83.31 M 69.79 91.90 C 70.57 93.83 72.12 94.50 73.96 93.40 C 75.56 93.82 77.06 93.49 78.46 92.40 C 75.67 91.41 72.69 91.82 69.79 91.90 M 43.26 93.29 C 43.89 93.91 43.89 93.91 43.26 93.29 M 46.33 93.30 C 46.92 93.90 46.92 93.90 46.33 93.30 M 69.34 94.35 C 69.96 94.91 69.96 94.91 69.34 94.35 M 73.31 94.26 C 73.91 94.90 73.91 94.90 73.31 94.26 M 76.35 94.14 C 76.46 97.42 79.45 92.67 76.35 94.14 Z" />
</g>
<g id="#f0ce00ff">
<path fill="#f0ce00" opacity="1.00" d=" M 77.34 39.81 C 79.22 38.11 81.29 36.64 83.41 35.24 C 83.80 35.57 84.59 36.23 84.99 36.56 C 85.00 37.44 85.02 39.18 85.03 40.05 C 83.92 39.69 82.81 39.33 81.70 38.97 C 81.96 40.74 82.25 42.50 82.58 44.26 C 83.37 43.84 84.95 43.00 85.74 42.58 C 85.82 42.82 85.97 43.30 86.05 43.54 C 85.71 44.13 85.04 45.30 84.70 45.88 L 83.88 46.01 C 83.27 46.10 82.05 46.29 81.44 46.38 C 80.19 44.67 79.12 42.83 77.88 41.10 L 77.09 40.02 C 77.15 39.97 77.27 39.87 77.34 39.81 Z" />
</g>
<g id="#826503ff">
<path fill="#826503" opacity="1.00" d=" M 84.99 36.56 C 86.37 37.79 85.84 39.78 86.16 41.39 C 86.42 42.16 86.93 43.70 87.19 44.47 L 86.05 43.54 C 85.97 43.30 85.82 42.82 85.74 42.58 C 85.56 41.95 85.20 40.68 85.03 40.05 C 85.02 39.18 85.00 37.44 84.99 36.56 Z" />
</g>
<g id="#a84f3cff">
<path fill="#a84f3c" opacity="1.00" d=" M 55.28 38.26 C 55.77 38.82 55.77 38.82 55.28 38.26 Z" />
</g>
<g id="#ce6853ff">
<path fill="#ce6853" opacity="1.00" d=" M 50.67 41.16 C 49.29 40.34 49.28 39.74 50.65 39.34 L 51.00 40.26 L 50.67 41.16 Z" />
</g>
<g id="#f4a708ff">
<path fill="#f4a708" opacity="1.00" d=" M 81.70 38.97 C 82.81 39.33 83.92 39.69 85.03 40.05 C 85.20 40.68 85.56 41.95 85.74 42.58 C 84.95 43.00 83.37 43.84 82.58 44.26 C 82.25 42.50 81.96 40.74 81.70 38.97 Z" />
</g>
<g id="#d8d2d0ff">
<path fill="#d8d2d0" opacity="1.00" d=" M 61.45 40.60 C 61.55 40.55 61.76 40.44 61.87 40.39 C 61.76 40.44 61.55 40.55 61.45 40.60 Z" />
</g>
<g id="#423435ff">
<path fill="#423435" opacity="1.00" d=" M 61.87 40.39 L 62.48 40.11 C 62.67 40.81 63.06 42.21 63.26 42.91 C 61.48 43.51 59.66 43.95 57.82 44.26 C 58.87 42.89 59.89 41.44 61.45 40.60 C 61.55 40.55 61.76 40.44 61.87 40.39 Z" />
</g>
<g id="#fafafaff">
<path fill="#fafafa" opacity="1.00" d=" M 62.48 40.11 C 63.91 40.09 65.14 42.61 63.26 42.91 C 63.06 42.21 62.67 40.81 62.48 40.11 Z" />
</g>
<g id="#874638ff">
<path fill="#874638" opacity="1.00" d=" M 52.10 47.12 C 55.41 47.34 50.51 50.10 52.10 47.12 Z" />
</g>
<g id="#ff9480ff">
<path fill="#ff9480" opacity="1.00" d=" M 56.47 48.65 C 57.12 49.04 58.42 49.82 59.07 50.21 C 60.18 49.72 61.30 49.24 62.42 48.77 C 61.59 49.59 60.75 50.41 59.91 51.23 L 59.92 51.68 L 59.48 51.82 C 57.12 52.51 54.85 53.45 52.50 54.18 C 52.06 53.70 51.19 52.75 50.75 52.28 C 53.39 52.02 55.99 51.54 58.54 50.81 C 58.02 50.27 56.99 49.19 56.47 48.65 Z" />
<path fill="#ff9480" opacity="1.00" d=" M 80.91 56.61 C 81.54 53.63 82.06 50.63 82.71 47.65 C 84.50 54.02 83.05 60.50 81.74 66.80 C 81.51 67.58 81.05 69.13 80.82 69.91 C 80.44 68.70 80.07 67.49 79.71 66.28 C 78.85 65.45 77.99 64.62 77.14 63.79 C 78.45 61.43 79.68 59.02 80.91 56.61 Z" />
</g>
<g id="#d6644dff">
<path fill="#d6644d" opacity="1.00" d=" M 59.92 51.68 L 59.91 51.23 C 61.20 52.50 62.47 53.80 63.74 55.09 C 63.57 55.54 63.23 56.43 63.06 56.88 C 62.29 58.70 61.45 60.48 60.64 62.28 C 60.24 61.85 59.44 61.00 59.03 60.57 L 58.75 60.19 C 57.25 59.70 55.63 59.69 54.09 60.00 L 53.84 60.46 C 52.59 62.44 51.65 64.57 50.72 66.70 L 50.12 67.71 C 50.37 66.40 50.66 65.10 51.00 63.80 C 50.83 63.23 50.49 62.08 50.32 61.51 C 50.97 59.75 51.48 57.95 51.97 56.14 C 54.54 54.83 57.11 53.47 59.48 51.82 L 59.92 51.68 Z" />
</g>
<g id="#ff9d88ff">
<path fill="#ff9d88" opacity="1.00" d=" M 48.38 56.66 C 49.67 56.08 50.97 55.52 52.27 54.96 L 51.97 56.14 C 51.48 57.95 50.97 59.75 50.32 61.51 C 50.12 61.85 49.72 62.53 49.52 62.87 C 46.96 64.97 43.92 66.91 42.74 70.18 C 42.64 70.42 42.43 70.91 42.32 71.16 L 41.94 71.80 C 40.63 73.60 40.12 75.78 39.75 77.94 C 37.80 79.02 35.73 79.91 33.51 80.26 C 33.48 79.68 33.42 78.53 33.39 77.96 C 33.95 75.99 34.82 74.12 35.55 72.21 C 35.72 72.14 36.05 72.01 36.22 71.94 C 36.43 71.48 36.83 70.56 37.04 70.10 C 37.34 69.83 37.95 69.29 38.25 69.02 C 38.45 68.54 38.86 67.57 39.07 67.09 C 39.22 66.92 39.53 66.57 39.69 66.39 C 42.14 64.23 45.25 62.57 46.70 59.50 C 47.27 58.56 47.77 57.57 48.38 56.66 Z" />
</g>
<g id="#ffa891ff">
<path fill="#ffa891" opacity="1.00" d=" M 63.74 55.09 C 64.50 55.06 66.01 55.01 66.77 54.99 C 70.15 59.63 74.13 63.75 78.80 67.12 C 80.08 72.12 82.30 76.93 82.33 82.19 C 79.54 81.93 76.78 81.43 74.08 80.69 C 74.17 76.69 75.30 72.70 74.86 68.71 C 72.63 63.30 67.07 60.72 63.06 56.88 C 63.23 56.43 63.57 55.54 63.74 55.09 Z" />
</g>
<g id="#fa917dff">
<path fill="#fa917d" opacity="1.00" d=" M 60.64 62.28 C 61.45 60.48 62.29 58.70 63.06 56.88 C 67.07 60.72 72.63 63.30 74.86 68.71 C 72.05 66.10 69.09 63.66 66.12 61.25 C 66.23 61.75 66.44 62.76 66.55 63.27 C 69.46 65.91 70.79 69.69 72.73 73.00 C 72.63 71.85 72.43 69.54 72.33 68.39 L 73.57 70.38 C 73.62 74.41 72.63 78.44 73.41 82.47 C 73.25 83.81 73.10 85.14 72.96 86.48 C 74.28 85.65 75.57 84.77 76.85 83.87 C 77.11 85.66 77.39 87.46 77.72 89.24 C 77.46 89.62 76.95 90.36 76.69 90.73 C 74.52 90.74 72.36 90.74 70.19 90.76 C 68.86 88.73 66.69 86.76 67.03 84.10 C 67.43 82.83 68.06 81.66 68.65 80.46 C 68.22 78.34 67.67 76.25 67.11 74.16 C 67.05 73.91 66.94 73.41 66.88 73.16 C 67.34 71.67 67.02 70.38 65.91 69.31 L 65.57 68.66 C 65.47 68.49 65.28 68.13 65.19 67.96 L 64.75 67.17 C 64.65 67.01 64.45 66.70 64.34 66.54 C 63.19 65.05 61.95 63.63 60.64 62.28 Z" />
</g>
<g id="#2b2629d1">
<path fill="#2b2629" opacity="0.82" d=" M 39.69 66.39 C 41.49 63.62 43.82 61.16 46.70 59.50 C 45.25 62.57 42.14 64.23 39.69 66.39 Z" />
</g>
<g id="#fce7d2ff">
<path fill="#fce7d2" opacity="1.00" d=" M 50.72 66.70 C 51.65 64.57 52.59 62.44 53.84 60.46 C 55.46 61.22 57.38 61.31 59.03 60.57 C 59.44 61.00 60.24 61.85 60.64 62.28 C 61.95 63.63 63.19 65.05 64.34 66.54 L 64.52 66.83 L 64.75 67.17 L 65.19 67.96 C 65.28 68.13 65.47 68.49 65.57 68.66 L 65.91 69.31 C 65.53 70.77 65.85 72.05 66.88 73.16 C 66.94 73.41 67.05 73.91 67.11 74.16 C 67.24 76.96 67.19 79.78 66.54 82.52 C 62.39 81.93 57.14 82.59 54.32 78.76 C 51.32 75.50 50.55 70.99 50.72 66.70 Z" />
<path fill="#fce7d2" opacity="1.00" d=" M 74.31 84.38 C 74.08 82.92 74.63 82.26 75.94 82.40 C 76.18 83.84 75.64 84.50 74.31 84.38 Z" />
<path fill="#fce7d2" opacity="1.00" d=" M 78.59 86.51 C 77.46 85.42 77.15 83.22 78.72 82.36 C 79.80 83.42 79.99 84.66 79.30 86.10 L 78.59 86.51 Z" />
<path fill="#fce7d2" opacity="1.00" d=" M 69.34 94.35 C 69.96 94.91 69.96 94.91 69.34 94.35 Z" />
</g>
<g id="#18191ed3">
<path fill="#18191e" opacity="0.83" d=" M 50.32 61.51 C 50.49 62.08 50.83 63.23 51.00 63.80 C 50.66 65.10 50.37 66.40 50.12 67.71 C 49.96 69.79 49.99 71.89 49.89 73.98 C 48.03 75.60 46.17 77.23 44.19 78.71 C 45.59 76.82 47.21 75.11 48.95 73.55 C 49.03 70.50 49.08 67.42 48.59 64.40 C 48.83 64.02 49.29 63.25 49.52 62.87 C 49.72 62.53 50.12 61.85 50.32 61.51 Z" />
</g>
<g id="#a34e3eff">
<path fill="#a34e3e" opacity="1.00" d=" M 42.74 70.18 C 43.92 66.91 46.96 64.97 49.52 62.87 C 49.29 63.25 48.83 64.02 48.59 64.40 C 47.04 66.70 44.94 68.53 42.74 70.18 Z" />
</g>
<g id="#8d5246ff">
<path fill="#8d5246" opacity="1.00" d=" M 64.34 66.54 C 64.45 66.70 64.65 67.01 64.75 67.17 L 64.52 66.83 L 64.34 66.54 Z" />
</g>
<g id="#071822ff">
<path fill="#071822" opacity="1.00" d=" M 38.19 67.25 L 39.07 67.09 C 38.86 67.57 38.45 68.54 38.25 69.02 L 37.77 68.23 L 38.19 67.25 Z" />
</g>
<g id="#e0c6b3ff">
<path fill="#e0c6b3" opacity="1.00" d=" M 50.12 67.71 L 50.72 66.70 C 50.55 70.99 51.32 75.50 54.32 78.76 C 57.14 82.59 62.39 81.93 66.54 82.52 C 66.45 82.93 66.28 83.76 66.19 84.18 C 63.27 84.59 60.11 85.09 57.33 83.78 C 54.55 82.43 52.41 80.11 50.22 77.98 L 49.72 77.21 C 49.76 76.40 49.85 74.78 49.89 73.98 C 49.99 71.89 49.96 69.79 50.12 67.71 Z" />
</g>
<g id="#a46053ff">
<path fill="#a46053" opacity="1.00" d=" M 65.19 67.96 C 65.28 68.13 65.47 68.49 65.57 68.66 C 65.47 68.49 65.28 68.13 65.19 67.96 Z" />
</g>
<g id="#081822ff">
<path fill="#081822" opacity="1.00" d=" M 36.19 70.24 L 37.04 70.10 C 36.83 70.56 36.43 71.48 36.22 71.94 C 36.21 71.52 36.20 70.67 36.19 70.24 Z" />
</g>
<g id="#9a6558ff">
<path fill="#9a6558" opacity="1.00" d=" M 65.91 69.31 C 67.02 70.38 67.34 71.67 66.88 73.16 C 65.85 72.05 65.53 70.77 65.91 69.31 Z" />
</g>
<g id="#85493dff">
<path fill="#85493d" opacity="1.00" d=" M 39.75 77.94 C 40.12 75.78 40.63 73.60 41.94 71.80 C 42.01 73.16 41.74 74.43 41.12 75.62 C 41.02 76.05 40.83 76.90 40.73 77.33 C 40.24 78.54 39.90 79.80 39.72 81.10 L 38.89 80.70 C 38.68 80.60 38.28 80.41 38.08 80.32 L 37.16 80.29 L 36.59 81.12 L 35.87 81.18 L 35.10 81.23 L 33.76 81.29 L 32.96 81.33 C 33.09 80.20 33.23 79.08 33.39 77.96 C 33.42 78.53 33.48 79.68 33.51 80.26 C 35.73 79.91 37.80 79.02 39.75 77.94 Z" />
</g>
<g id="#191e24ed">
<path fill="#191e24" opacity="0.93" d=" M 32.50 76.41 C 33.43 74.95 34.31 73.44 35.55 72.21 C 34.82 74.12 33.95 75.99 33.39 77.96 C 33.23 79.08 33.09 80.20 32.96 81.33 C 33.02 82.04 33.13 83.45 33.18 84.16 L 33.19 85.09 L 32.00 84.99 C 31.98 82.12 31.74 79.21 32.50 76.41 Z" />
</g>
<g id="#fb927eff">
<path fill="#fb927e" opacity="1.00" d=" M 44.19 78.71 C 46.17 77.23 48.03 75.60 49.89 73.98 C 49.85 74.78 49.76 76.40 49.72 77.21 C 49.54 80.85 51.34 84.09 53.85 86.60 C 53.38 87.07 52.45 88.01 51.98 88.48 C 49.87 88.51 47.68 88.88 45.62 88.25 C 44.51 87.37 43.76 86.14 43.00 84.97 C 42.99 83.17 43.50 81.43 43.92 79.69 C 43.99 79.44 44.13 78.95 44.19 78.71 Z" />
</g>
<g id="#cfb19fff">
<path fill="#cfb19f" opacity="1.00" d=" M 50.22 77.98 C 52.41 80.11 54.55 82.43 57.33 83.78 C 60.11 85.09 63.27 84.59 66.19 84.18 C 66.09 84.90 65.87 86.35 65.77 87.08 C 62.11 86.92 57.88 87.87 54.81 85.32 C 52.26 83.64 51.28 80.68 50.22 77.98 Z" />
</g>
<g id="#362627ff">
<path fill="#362627" opacity="1.00" d=" M 43.67 78.50 L 43.92 79.69 C 43.50 81.43 42.99 83.17 43.00 84.97 C 43.00 85.66 43.00 87.04 43.00 87.73 C 43.77 88.44 44.54 89.16 45.31 89.89 C 46.66 90.06 48.01 90.25 49.36 90.43 C 47.75 90.66 46.15 90.88 44.55 91.13 C 43.76 90.29 42.97 89.44 42.19 88.60 C 42.06 87.17 41.85 85.75 41.30 84.42 C 41.60 83.45 41.94 82.50 42.32 81.56 C 42.66 80.79 43.33 79.26 43.67 78.50 Z" />
</g>
<g id="#ccccccff">
<path fill="#cccccc" opacity="1.00" d=" M 37.16 80.29 L 38.08 80.32 C 38.40 81.74 37.91 82.00 36.59 81.12 L 37.16 80.29 Z" />
</g>
<g id="#666768ff">
<path fill="#666768" opacity="1.00" d=" M 38.08 80.32 C 38.28 80.41 38.68 80.60 38.89 80.70 C 38.99 82.13 39.05 83.56 39.06 85.00 L 37.89 84.83 C 38.27 83.19 37.88 82.87 36.71 83.87 C 36.41 84.40 35.80 85.45 35.50 85.98 C 34.92 85.95 33.77 85.88 33.19 85.85 L 33.19 85.09 L 33.18 84.16 C 34.34 83.33 34.53 82.37 33.76 81.29 L 35.10 81.23 C 35.11 81.71 35.14 82.68 35.15 83.16 C 35.33 82.67 35.69 81.67 35.87 81.18 L 36.59 81.12 C 37.91 82.00 38.40 81.74 38.08 80.32 Z" />
</g>
<g id="#e0e1e3ff">
<path fill="#e0e1e3" opacity="1.00" d=" M 32.96 81.33 L 33.76 81.29 C 34.53 82.37 34.34 83.33 33.18 84.16 C 33.13 83.45 33.02 82.04 32.96 81.33 Z" />
</g>
<g id="#ffffffff">
<path fill="#ffffff" opacity="1.00" d=" M 35.10 81.23 L 35.87 81.18 C 35.69 81.67 35.33 82.67 35.15 83.16 C 35.14 82.68 35.11 81.71 35.10 81.23 Z" />
<path fill="#ffffff" opacity="1.00" d=" M 43.26 93.29 C 43.89 93.91 43.89 93.91 43.26 93.29 Z" />
</g>
<g id="#0d1b22ff">
<path fill="#0d1b22" opacity="1.00" d=" M 36.71 83.87 C 37.88 82.87 38.27 83.19 37.89 84.83 C 37.60 84.59 37.01 84.11 36.71 83.87 Z" />
</g>
<g id="#eeeeeeff">
<path fill="#eeeeee" opacity="1.00" d=" M 81.17 83.31 C 84.45 83.33 79.79 86.44 81.17 83.31 Z" />
</g>
<g id="#df6850ff">
<path fill="#df6850" opacity="1.00" d=" M 43.00 84.97 C 43.76 86.14 44.51 87.37 45.62 88.25 C 47.68 88.88 49.87 88.51 51.98 88.48 C 52.42 90.32 52.83 92.18 53.21 94.04 C 51.16 93.89 48.75 94.38 47.27 92.57 C 45.86 92.61 44.59 92.19 43.47 91.31 L 44.55 91.13 C 46.15 90.88 47.75 90.66 49.36 90.43 C 48.01 90.25 46.66 90.06 45.31 89.89 C 44.54 89.16 43.77 88.44 43.00 87.73 C 43.00 87.04 43.00 85.66 43.00 84.97 Z" />
</g>
<g id="#e46f58ff">
<path fill="#e46f58" opacity="1.00" d=" M 69.79 91.90 C 72.69 91.82 75.67 91.41 78.46 92.40 C 77.06 93.49 75.56 93.82 73.96 93.40 C 72.12 94.50 70.57 93.83 69.79 91.90 Z" />
</g>
<g id="#fefeffff">
<path fill="#fefeff" opacity="1.00" d=" M 40.20 92.89 C 40.63 92.98 41.50 93.17 41.93 93.26 L 41.63 93.94 C 41.23 93.87 40.43 93.73 40.04 93.66 L 40.20 92.89 Z" />
</g>
<g id="#dfdfdfff">
<path fill="#dfdfdf" opacity="1.00" d=" M 46.33 93.30 C 46.92 93.90 46.92 93.90 46.33 93.30 Z" />
</g>
<g id="#fcfcfcff">
<path fill="#fcfcfc" opacity="1.00" d=" M 73.31 94.26 C 73.91 94.90 73.91 94.90 73.31 94.26 Z" />
</g>
<g id="#f4f4f5ff">
<path fill="#f4f4f5" opacity="1.00" d=" M 76.35 94.14 C 79.45 92.67 76.46 97.42 76.35 94.14 Z" />
</g>
</svg>
