<?xml version="1.0" encoding="UTF-8" ?>
<!DOCTYPE svg PUBLIC "-//W3C//DTD SVG 1.1//EN" "http://www.w3.org/Graphics/SVG/1.1/DTD/svg11.dtd">
<svg width="120pt" height="120pt" viewBox="0 0 120 120" version="1.1" xmlns="http://www.w3.org/2000/svg">
<g id="#443a2cf0">
<path fill="#443a2c" opacity="0.94" d=" M 52.24 30.19 C 54.66 29.69 57.27 28.30 59.63 29.76 C 60.13 29.84 61.12 30.01 61.61 30.10 C 63.89 31.28 65.71 33.09 66.89 35.37 C 67.00 35.88 67.22 36.89 67.33 37.40 C 68.43 40.12 67.44 43.28 69.00 45.84 C 68.83 46.75 68.65 47.66 68.44 48.57 C 67.98 49.68 67.51 50.78 67.02 51.88 C 69.69 53.68 72.48 55.48 74.02 58.42 C 74.01 56.94 74.00 55.46 73.99 53.98 L 75.03 54.10 C 74.90 54.85 74.63 56.36 74.50 57.12 C 74.78 58.08 75.12 59.04 75.50 59.97 C 75.90 60.50 76.70 61.57 77.10 62.10 C 78.30 62.24 79.50 62.39 80.70 62.53 L 81.49 62.63 C 80.85 62.73 79.57 62.94 78.93 63.04 C 78.18 63.16 76.67 63.38 75.91 63.49 C 73.81 59.87 71.31 56.35 67.78 54.01 C 67.39 53.69 66.61 53.05 66.22 52.73 C 65.79 53.34 65.37 53.95 64.95 54.57 C 63.14 54.89 61.34 55.24 59.54 55.59 L 60.31 55.30 C 64.13 54.07 67.20 51.31 67.90 47.23 C 67.06 42.64 66.86 37.80 64.52 33.64 C 61.63 31.64 58.06 29.44 54.43 30.63 C 53.92 30.75 52.90 31.00 52.39 31.12 C 51.47 31.77 50.56 32.43 49.66 33.11 C 49.30 33.39 48.57 33.95 48.21 34.23 C 47.97 35.34 47.72 36.44 47.46 37.55 C 47.57 37.91 47.80 38.63 47.91 38.99 C 46.82 39.67 46.59 40.67 47.21 41.99 C 46.74 43.26 46.70 44.54 47.09 45.82 L 46.19 46.65 C 46.20 47.24 46.21 48.42 46.22 49.02 C 46.23 49.34 46.25 49.98 46.26 50.30 L 45.03 51.55 C 45.60 45.77 45.82 39.88 47.17 34.20 C 48.75 32.73 50.42 31.36 52.24 30.19 Z" />
</g>
<g id="#ffcb92ff">
<path fill="#ffcb92" opacity="1.00" d=" M 54.43 30.63 C 58.06 29.44 61.63 31.64 64.52 33.64 C 64.01 35.41 63.51 37.19 63.11 39.00 C 62.29 38.45 61.48 37.90 60.67 37.34 L 60.45 38.71 C 58.27 40.91 55.97 44.52 52.37 43.67 C 49.50 41.04 49.32 36.74 49.66 33.11 C 50.56 32.43 51.47 31.77 52.39 31.12 C 52.90 31.00 53.92 30.75 54.43 30.63 Z" />
</g>
<g id="#f4b784ff">
<path fill="#f4b784" opacity="1.00" d=" M 48.21 34.23 C 48.57 33.95 49.30 33.39 49.66 33.11 C 49.32 36.74 49.50 41.04 52.37 43.67 C 55.97 44.52 58.27 40.91 60.45 38.71 C 60.42 39.09 60.34 39.84 60.30 40.22 C 60.28 40.73 60.24 41.76 60.22 42.27 C 60.23 42.74 60.25 43.68 60.26 44.15 C 60.28 44.56 60.31 45.37 60.33 45.78 C 60.39 46.09 60.49 46.72 60.55 47.03 C 61.39 47.02 63.07 46.98 63.91 46.97 L 64.01 46.45 C 64.09 46.01 64.25 45.14 64.33 44.71 C 65.09 42.67 63.68 40.86 63.11 39.00 C 63.51 37.19 64.01 35.41 64.52 33.64 C 66.86 37.80 67.06 42.64 67.90 47.23 C 67.20 51.31 64.13 54.07 60.31 55.30 C 59.84 54.93 58.90 54.18 58.43 53.80 C 61.18 52.53 63.78 50.95 65.99 48.85 C 59.49 49.43 52.32 52.87 46.22 49.02 C 46.21 48.42 46.20 47.24 46.19 46.65 L 47.09 45.82 C 48.44 44.99 48.40 43.26 47.90 41.95 C 47.91 41.21 47.91 39.73 47.91 38.99 C 47.80 38.63 47.57 37.91 47.46 37.55 C 47.72 36.44 47.97 35.34 48.21 34.23 Z" />
</g>
<g id="#ffffffff">
<path fill="#ffffff" opacity="1.00" d=" M 47.21 41.99 C 46.59 40.67 46.82 39.67 47.91 38.99 C 47.91 39.73 47.91 41.21 47.90 41.95 L 47.21 41.99 Z" />
</g>
<g id="#e4e7f1ff">
<path fill="#e4e7f1" opacity="1.00" d=" M 60.30 40.22 C 60.62 39.75 61.27 38.83 61.59 38.37 C 62.17 39.35 63.32 41.30 63.89 42.27 C 62.67 42.39 61.40 42.80 60.22 42.27 C 60.24 41.76 60.28 40.73 60.30 40.22 Z" />
</g>
<g id="#1d7491ff">
<path fill="#1d7491" opacity="1.00" d=" M 47.21 41.99 L 47.90 41.95 C 48.40 43.26 48.44 44.99 47.09 45.82 C 46.70 44.54 46.74 43.26 47.21 41.99 Z" />
</g>
<g id="#80230df0">
<path fill="#80230d" opacity="0.94" d=" M 74.94 42.00 L 75.99 42.00 C 76.00 42.62 76.03 43.86 76.05 44.48 C 77.38 45.79 78.75 47.15 79.33 48.98 C 78.35 48.02 77.39 47.05 76.43 46.06 C 76.36 47.96 77.49 50.24 76.11 51.89 C 76.01 50.82 75.91 49.75 75.81 48.68 C 74.69 46.63 75.03 44.24 74.94 42.00 Z" />
</g>
<g id="#287d99ff">
<path fill="#287d99" opacity="1.00" d=" M 60.26 44.15 C 61.48 44.61 62.92 44.33 63.99 43.67 C 64.07 43.93 64.24 44.45 64.33 44.71 C 64.25 45.14 64.09 46.01 64.01 46.45 C 63.25 46.30 61.72 45.99 60.96 45.84 L 60.33 45.78 C 60.31 45.37 60.28 44.56 60.26 44.15 Z" />
</g>
<g id="#3d3b34ff">
<path fill="#3d3b34" opacity="1.00" d=" M 60.33 45.78 L 60.96 45.84 C 61.72 45.99 63.25 46.30 64.01 46.45 L 63.91 46.97 C 63.07 46.98 61.39 47.02 60.55 47.03 C 60.49 46.72 60.39 46.09 60.33 45.78 Z" />
</g>
<g id="#fb5615ff">
<path fill="#fb5615" opacity="1.00" d=" M 76.43 46.06 C 77.39 47.05 78.35 48.02 79.33 48.98 L 79.83 49.48 L 79.86 49.59 C 80.42 51.74 81.02 53.89 81.63 56.03 C 79.25 56.39 76.87 56.74 74.50 57.12 C 74.63 56.36 74.90 54.85 75.03 54.10 C 75.10 53.78 75.23 53.14 75.29 52.82 L 76.11 51.89 C 77.49 50.24 76.36 47.96 76.43 46.06 Z" />
</g>
<g id="#ba8c65ff">
<path fill="#ba8c65" opacity="1.00" d=" M 46.22 49.02 C 52.32 52.87 59.49 49.43 65.99 48.85 C 63.78 50.95 61.18 52.53 58.43 53.80 C 58.90 54.18 59.84 54.93 60.31 55.30 L 59.54 55.59 C 56.30 56.25 52.99 56.42 49.70 56.59 C 49.51 56.10 49.14 55.14 48.95 54.65 C 48.65 53.39 48.38 52.12 48.13 50.84 L 46.88 51.75 L 46.35 52.12 L 46.26 50.30 C 46.25 49.98 46.23 49.34 46.22 49.02 M 50.40 53.59 C 52.30 52.90 55.08 52.42 56.74 51.60 C 54.72 50.68 50.98 51.15 50.40 53.59 Z" />
</g>
<g id="#cf790bff">
<path fill="#cf790b" opacity="1.00" d=" M 79.86 49.59 C 80.45 50.50 81.04 51.42 81.62 52.35 C 81.87 52.90 82.36 54.00 82.60 54.55 C 82.86 55.74 83.14 56.91 83.46 58.09 C 80.61 57.63 77.98 58.73 75.50 59.97 C 75.12 59.04 74.78 58.08 74.50 57.12 C 76.87 56.74 79.25 56.39 81.63 56.03 C 81.02 53.89 80.42 51.74 79.86 49.59 Z" />
</g>
<g id="#0b1318aa">
<path fill="#0b1318" opacity="0.67" d=" M 46.88 51.75 L 48.13 50.84 C 48.38 52.12 48.65 53.39 48.95 54.65 C 47.20 56.23 45.46 57.81 43.73 59.41 C 44.76 57.72 46.06 56.22 47.39 54.77 C 47.27 54.01 47.01 52.50 46.88 51.75 Z" />
</g>
<g id="#f3b683ff">
<path fill="#f3b683" opacity="1.00" d=" M 66.22 52.73 C 66.61 53.05 67.39 53.69 67.78 54.01 C 65.96 59.53 71.36 63.22 74.43 66.93 C 74.05 67.69 73.27 69.22 72.88 69.98 C 70.51 66.92 68.12 63.86 65.59 60.93 C 66.21 64.86 69.27 67.48 71.22 70.71 C 72.86 74.07 74.92 77.92 73.25 81.68 C 70.51 82.46 67.79 81.87 65.45 80.30 C 66.65 76.60 67.18 72.61 65.89 68.86 C 65.76 68.37 65.48 67.40 65.34 66.91 C 66.74 66.42 66.69 65.81 65.18 65.07 L 64.95 64.61 C 64.04 62.49 63.19 60.34 62.44 58.15 C 63.30 56.97 64.12 55.77 64.95 54.57 C 65.37 53.95 65.79 53.34 66.22 52.73 Z" />
</g>
<g id="#fbbc87ff">
<path fill="#fbbc87" opacity="1.00" d=" M 43.73 59.41 C 45.46 57.81 47.20 56.23 48.95 54.65 C 49.14 55.14 49.51 56.10 49.70 56.59 C 50.17 57.69 50.69 58.77 51.19 59.86 C 50.78 61.36 50.29 62.84 49.76 64.30 C 49.23 62.94 48.71 61.59 48.17 60.24 C 48.01 62.38 47.87 64.53 47.75 66.68 C 44.96 67.76 42.10 68.64 39.14 69.12 C 39.39 66.23 40.86 63.77 42.47 61.45 C 42.72 61.02 43.23 60.17 43.48 59.74 C 43.54 59.66 43.67 59.50 43.73 59.41 Z" />
</g>
<g id="#ffca92ff">
<path fill="#ffca92" opacity="1.00" d=" M 67.78 54.01 C 71.31 56.35 73.81 59.87 75.91 63.49 C 76.87 65.28 77.67 67.15 78.42 69.04 C 77.08 68.36 75.73 67.69 74.43 66.93 C 71.36 63.22 65.96 59.53 67.78 54.01 Z" />
</g>
<g id="#bf9069ff">
<path fill="#bf9069" opacity="1.00" d=" M 49.70 56.59 C 52.99 56.42 56.30 56.25 59.54 55.59 C 61.34 55.24 63.14 54.89 64.95 54.57 C 64.12 55.77 63.30 56.97 62.44 58.15 C 60.43 57.61 58.34 57.09 56.26 57.60 C 54.49 58.14 52.87 59.08 51.23 59.94 L 51.19 59.86 C 50.69 58.77 50.17 57.69 49.70 56.59 Z" />
</g>
<g id="#b18962ff">
<path fill="#b18962" opacity="1.00" d=" M 56.26 57.60 C 58.34 57.09 60.43 57.61 62.44 58.15 C 63.19 60.34 64.04 62.49 64.95 64.61 C 63.84 63.03 62.65 61.50 61.41 60.02 C 61.01 59.55 60.21 58.62 59.81 58.15 C 58.92 58.01 57.15 57.74 56.26 57.60 Z" />
</g>
<g id="#d3c68dff">
<path fill="#d3c68d" opacity="1.00" d=" M 51.23 59.94 C 52.87 59.08 54.49 58.14 56.26 57.60 C 57.15 57.74 58.92 58.01 59.81 58.15 C 60.21 58.62 61.01 59.55 61.41 60.02 C 58.13 61.49 54.36 62.23 51.23 59.94 Z" />
<path fill="#d3c68d" opacity="1.00" d=" M 48.86 70.87 C 52.59 76.26 59.36 77.17 65.38 77.58 C 64.87 79.30 64.29 80.99 63.75 82.69 C 64.60 83.48 65.45 84.26 66.29 85.05 C 62.14 85.07 57.73 85.17 54.00 83.02 C 50.83 81.44 49.35 77.96 48.48 74.72 L 48.47 74.54 L 48.46 74.30 C 48.49 73.58 48.55 72.13 48.57 71.40 L 48.86 70.87 Z" />
</g>
<g id="#f0ce00ff">
<path fill="#f0ce00" opacity="1.00" d=" M 75.50 59.97 C 77.98 58.73 80.61 57.63 83.46 58.09 L 82.58 58.98 C 82.45 59.49 82.19 60.52 82.06 61.03 C 81.72 61.40 81.04 62.15 80.70 62.53 C 79.50 62.39 78.30 62.24 77.10 62.10 C 76.70 61.57 75.90 60.50 75.50 59.97 Z" />
</g>
<g id="#725b02ff">
<path fill="#725b02" opacity="1.00" d=" M 82.06 61.03 C 82.19 60.52 82.45 59.49 82.58 58.98 C 82.66 59.42 82.82 60.29 82.90 60.73 L 82.06 61.03 Z" />
</g>
<g id="#2d2c29d7">
<path fill="#2d2c29" opacity="0.84" d=" M 35.93 68.56 C 38.70 65.84 40.50 62.27 43.48 59.74 C 43.23 60.17 42.72 61.02 42.47 61.45 C 40.86 63.77 39.39 66.23 39.14 69.12 C 38.90 68.57 38.42 67.46 38.18 66.91 C 37.56 68.37 36.94 69.82 36.32 71.28 C 36.19 70.37 36.05 69.47 35.93 68.56 Z" />
</g>
<g id="#f8ebb0ff">
<path fill="#f8ebb0" opacity="1.00" d=" M 51.19 59.86 L 51.23 59.94 C 54.36 62.23 58.13 61.49 61.41 60.02 C 62.65 61.50 63.84 63.03 64.95 64.61 L 65.18 65.07 C 65.22 65.53 65.30 66.45 65.34 66.91 C 65.48 67.40 65.76 68.37 65.89 68.86 C 66.32 71.77 66.26 74.76 65.38 77.58 C 59.36 77.17 52.59 76.26 48.86 70.87 C 48.92 69.31 48.98 67.76 49.04 66.20 C 49.28 65.56 49.52 64.93 49.76 64.30 C 50.29 62.84 50.78 61.36 51.19 59.86 Z" />
</g>
<g id="#6f543dff">
<path fill="#6f543d" opacity="1.00" d=" M 48.17 60.24 C 48.71 61.59 49.23 62.94 49.76 64.30 C 49.52 64.93 49.28 65.56 49.04 66.20 C 48.90 66.53 48.62 67.20 48.49 67.53 C 47.75 67.82 46.27 68.42 45.53 68.71 C 44.30 69.41 43.09 70.13 41.83 70.76 C 41.68 70.69 41.38 70.54 41.23 70.47 C 39.50 69.43 37.86 70.44 36.32 71.28 C 36.94 69.82 37.56 68.37 38.18 66.91 C 38.42 67.46 38.90 68.57 39.14 69.12 C 42.10 68.64 44.96 67.76 47.75 66.68 C 47.87 64.53 48.01 62.38 48.17 60.24 Z" />
</g>
<g id="#624d38ff">
<path fill="#624d38" opacity="1.00" d=" M 65.59 60.93 C 68.12 63.86 70.51 66.92 72.88 69.98 C 73.27 69.22 74.05 67.69 74.43 66.93 C 75.73 67.69 77.08 68.36 78.42 69.04 C 77.67 67.15 76.87 65.28 75.91 63.49 C 76.67 63.38 78.18 63.16 78.93 63.04 C 78.99 64.49 79.06 65.93 79.16 67.37 C 79.84 68.75 80.29 70.31 79.20 71.65 C 79.12 72.25 78.96 73.45 78.87 74.06 L 77.70 73.90 C 77.86 72.57 78.02 71.24 78.18 69.91 C 77.33 69.90 75.62 69.86 74.76 69.84 C 73.20 69.76 72.64 70.43 73.09 71.84 C 74.08 74.16 74.84 76.56 75.32 79.04 C 75.86 78.09 76.40 77.14 76.96 76.20 C 76.95 76.75 76.93 77.85 76.92 78.40 C 75.89 79.72 74.91 81.08 73.93 82.44 C 74.01 83.42 74.10 84.40 74.21 85.38 C 74.61 86.68 74.89 88.01 75.04 89.36 C 74.68 88.95 73.97 88.12 73.61 87.70 C 73.28 87.34 72.63 86.61 72.30 86.25 C 70.84 86.12 69.37 86.07 67.90 86.03 L 67.36 86.02 C 63.21 85.93 58.91 86.44 54.95 84.87 C 54.96 86.23 54.97 87.60 54.97 88.97 C 52.19 88.95 49.39 89.14 46.62 88.82 C 45.45 88.21 44.34 87.50 43.18 86.88 C 46.77 87.30 50.35 87.78 53.96 88.03 C 53.93 87.36 53.86 86.02 53.83 85.35 C 52.24 83.80 50.69 82.23 49.13 80.65 C 48.83 78.68 48.62 76.70 48.48 74.72 C 49.35 77.96 50.83 81.44 54.00 83.02 C 57.73 85.17 62.14 85.07 66.29 85.05 C 65.45 84.26 64.60 83.48 63.75 82.69 C 64.29 80.99 64.87 79.30 65.38 77.58 C 66.26 74.76 66.32 71.77 65.89 68.86 C 67.18 72.61 66.65 76.60 65.45 80.30 L 65.35 80.65 C 65.23 81.12 64.97 82.06 64.84 82.53 C 67.27 84.01 69.94 85.00 72.78 85.32 C 72.93 84.11 73.09 82.89 73.25 81.68 C 74.92 77.92 72.86 74.07 71.22 70.71 C 69.27 67.48 66.21 64.86 65.59 60.93 Z" />
</g>
<g id="#8f6b4dff">
<path fill="#8f6b4d" opacity="1.00" d=" M 65.18 65.07 C 66.69 65.81 66.74 66.42 65.34 66.91 C 65.30 66.45 65.22 65.53 65.18 65.07 Z" />
</g>
<g id="#212525e8">
<path fill="#212525" opacity="0.91" d=" M 48.49 67.53 C 48.62 67.20 48.90 66.53 49.04 66.20 C 48.98 67.76 48.92 69.31 48.86 70.87 L 48.57 71.40 C 47.51 73.22 46.33 74.97 45.12 76.69 C 45.08 78.37 45.05 80.05 45.03 81.74 C 46.07 82.74 47.12 83.74 48.16 84.74 C 49.40 85.01 50.64 85.28 51.88 85.56 C 48.95 85.76 45.99 85.95 43.18 86.88 L 42.44 87.07 C 43.52 86.02 44.71 85.09 46.12 84.51 C 45.40 83.89 44.69 83.27 43.97 82.64 C 43.99 80.61 44.00 78.57 44.04 76.54 C 45.04 75.29 45.98 73.99 46.90 72.68 C 47.39 70.95 47.87 69.22 48.49 67.53 Z" />
</g>
<g id="#061621ff">
<path fill="#061621" opacity="1.00" d=" M 41.23 70.47 C 41.38 70.54 41.68 70.69 41.83 70.76 C 41.68 70.69 41.38 70.54 41.23 70.47 Z" />
</g>
<g id="#081117aa">
<path fill="#081117" opacity="0.67" d=" M 73.09 71.84 C 72.64 70.43 73.20 69.76 74.76 69.84 C 74.93 71.10 74.38 71.77 73.09 71.84 Z" />
</g>
<g id="#f7b985ff">
<path fill="#f7b985" opacity="1.00" d=" M 74.76 69.84 C 75.62 69.86 77.33 69.90 78.18 69.91 C 78.02 71.24 77.86 72.57 77.70 73.90 C 77.66 74.22 77.58 74.88 77.55 75.20 L 76.96 76.20 C 76.40 77.14 75.86 78.09 75.32 79.04 C 74.84 76.56 74.08 74.16 73.09 71.84 C 74.38 71.77 74.93 71.10 74.76 69.84 Z" />
</g>
<g id="#e1a879ff">
<path fill="#e1a879" opacity="1.00" d=" M 45.12 76.69 C 46.33 74.97 47.51 73.22 48.57 71.40 C 48.55 72.13 48.49 73.58 48.46 74.30 C 48.47 74.36 48.47 74.48 48.47 74.54 L 48.48 74.72 C 48.62 76.70 48.83 78.68 49.13 80.65 C 50.69 82.23 52.24 83.80 53.83 85.35 C 53.86 86.02 53.93 87.36 53.96 88.03 C 50.35 87.78 46.77 87.30 43.18 86.88 C 45.99 85.95 48.95 85.76 51.88 85.56 C 50.64 85.28 49.40 85.01 48.16 84.74 C 47.12 83.74 46.07 82.74 45.03 81.74 C 45.05 80.05 45.08 78.37 45.12 76.69 Z" />
</g>
<g id="#766645ff">
<path fill="#766645" opacity="1.00" d=" M 48.47 74.54 C 48.47 74.48 48.47 74.36 48.46 74.30 L 48.47 74.54 Z" />
</g>
<g id="#cf9b71ff">
<path fill="#cf9b71" opacity="1.00" d=" M 65.35 80.65 L 65.45 80.30 C 67.79 81.87 70.51 82.46 73.25 81.68 C 73.09 82.89 72.93 84.11 72.78 85.32 C 69.94 85.00 67.27 84.01 64.84 82.53 C 64.97 82.06 65.23 81.12 65.35 80.65 Z" />
</g>
<g id="#333431ff">
<path fill="#333431" opacity="1.00" d=" M 67.36 86.02 L 67.90 86.03 L 68.14 86.54 C 67.75 87.68 67.28 88.78 66.74 89.85 C 65.06 89.45 66.09 86.54 67.36 86.02 Z" />
</g>
<g id="#e2a97bff">
<path fill="#e2a97b" opacity="1.00" d=" M 67.90 86.03 C 69.37 86.07 70.84 86.12 72.30 86.25 C 72.63 86.61 73.28 87.34 73.61 87.70 C 72.10 87.96 70.59 88.26 69.09 88.56 C 68.85 88.06 68.37 87.05 68.14 86.54 L 67.90 86.03 Z" />
</g>
<g id="#636364ff">
<path fill="#636364" opacity="1.00" d=" M 42.44 87.07 L 43.18 86.88 C 44.34 87.50 45.45 88.21 46.62 88.82 C 45.10 89.05 43.40 89.24 41.96 88.57 L 41.72 88.09 C 41.90 87.83 42.26 87.32 42.44 87.07 Z" />
</g>
<g id="#594e46ff">
<path fill="#594e46" opacity="1.00" d=" M 68.14 86.54 C 68.37 87.05 68.85 88.06 69.09 88.56 C 70.59 88.26 72.10 87.96 73.61 87.70 C 73.97 88.12 74.68 88.95 75.04 89.36 L 75.51 89.93 C 72.58 90.05 69.66 90.04 66.74 89.85 C 67.28 88.78 67.75 87.68 68.14 86.54 Z" />
</g>
<g id="#071620ff">
<path fill="#071620" opacity="1.00" d=" M 41.96 88.57 C 41.90 88.45 41.78 88.21 41.72 88.09 L 41.96 88.57 Z" />
</g>
</svg>
