<?xml version="1.0" encoding="UTF-8" ?>
<!DOCTYPE svg PUBLIC "-//W3C//DTD SVG 1.1//EN" "http://www.w3.org/Graphics/SVG/1.1/DTD/svg11.dtd">
<svg width="137pt" height="120pt" viewBox="0 0 137 120" version="1.1" xmlns="http://www.w3.org/2000/svg">
<g id="#017b91ff">
<path fill="#017b91" opacity="1.00" d=" M 68.88 12.80 C 69.25 11.60 69.24 10.16 70.28 9.28 C 72.91 9.00 75.35 10.45 77.99 10.26 C 84.96 9.80 91.33 13.11 97.85 15.01 C 104.66 16.99 111.12 20.12 116.61 24.64 C 123.39 28.80 130.23 34.13 132.96 41.90 C 130.63 38.64 128.53 35.17 125.56 32.43 C 122.72 29.40 119.04 27.40 115.73 24.96 C 115.50 25.04 115.02 25.22 114.78 25.31 C 114.24 24.48 113.64 23.70 112.97 22.98 C 105.55 17.79 96.64 15.65 88.21 12.71 C 84.74 11.51 81.09 10.58 77.40 11.22 C 74.91 10.88 72.45 10.31 69.99 9.81 C 70.02 10.45 70.08 11.75 70.11 12.40 C 71.60 12.35 73.09 12.30 74.58 12.17 C 75.09 12.52 76.10 13.22 76.60 13.57 C 76.23 15.63 75.96 17.80 74.61 19.50 L 74.06 20.15 C 75.02 17.71 76.18 14.73 73.83 12.66 C 72.18 12.72 70.53 12.76 68.88 12.80 Z" />
<path fill="#017b91" opacity="1.00" d=" M 9.74 18.34 C 11.91 15.64 14.48 13.28 16.92 10.82 C 17.76 11.62 18.60 12.42 19.44 13.23 C 19.94 13.25 20.96 13.30 21.47 13.32 C 23.95 14.61 26.35 16.07 28.93 17.14 C 30.84 17.93 31.91 15.53 33.27 14.67 C 33.80 16.04 34.57 17.36 34.65 18.86 C 33.85 17.83 33.06 16.80 32.28 15.76 C 32.25 20.11 31.16 24.33 30.89 28.65 C 30.41 29.09 29.44 29.98 28.96 30.43 C 29.31 34.93 29.70 39.65 28.17 43.98 C 28.32 44.87 28.49 45.76 28.66 46.64 L 28.91 47.86 C 28.43 47.59 27.48 47.03 27.00 46.75 C 27.21 45.17 27.45 43.57 28.16 42.11 C 28.90 37.66 26.94 32.55 29.65 28.62 C 19.00 27.43 8.50 35.56 6.78 46.07 C 6.96 48.13 7.55 50.13 7.97 52.15 C 6.77 51.66 5.57 51.16 4.38 50.67 C 3.12 47.68 1.63 44.79 0.00 41.99 L 0.00 37.83 C 1.60 35.55 2.25 32.78 2.90 30.12 C 3.43 27.82 3.27 25.03 5.47 23.54 C 3.92 26.51 4.15 29.98 2.92 33.06 C 2.06 35.76 0.76 38.58 1.31 41.47 C 2.65 45.01 4.34 48.46 6.59 51.51 C 5.32 46.41 1.24 41.17 3.72 35.79 C 6.07 31.33 6.11 25.64 10.21 22.21 C 12.56 20.25 14.96 16.26 18.48 17.50 C 23.25 16.08 27.13 20.49 31.67 21.27 C 31.55 20.71 31.33 19.58 31.22 19.02 C 26.30 16.54 20.89 14.99 16.33 11.84 C 15.43 15.06 11.77 15.99 9.74 18.34 Z" />
<path fill="#017b91" opacity="1.00" d=" M 79.34 15.07 C 82.38 15.16 85.82 13.80 88.57 15.53 C 92.67 16.75 96.61 18.45 100.67 19.78 C 101.06 19.70 101.84 19.56 102.22 19.48 L 102.45 19.43 C 102.86 19.79 103.68 20.52 104.09 20.88 C 104.55 20.84 105.47 20.78 105.93 20.74 C 106.74 22.05 107.78 23.20 109.09 24.01 C 112.93 26.56 116.60 29.38 119.78 32.72 C 115.58 31.25 113.15 26.81 108.84 25.51 C 108.82 26.44 108.77 28.28 108.74 29.21 C 105.85 27.79 102.97 26.36 100.16 24.80 C 96.24 25.07 91.77 23.79 88.32 26.18 C 84.79 29.03 82.15 32.87 78.29 35.34 C 74.78 37.66 72.86 41.53 70.61 44.95 C 69.59 42.36 68.03 40.06 66.20 37.98 C 66.30 37.43 66.49 36.32 66.59 35.77 C 66.94 29.90 72.14 26.63 75.74 22.73 C 77.82 20.68 78.66 17.82 79.34 15.07 Z" />
<path fill="#017b91" opacity="1.00" d=" M 43.16 27.38 C 43.24 26.14 43.31 24.89 43.49 23.65 C 50.53 26.25 55.98 31.68 62.15 35.78 C 62.94 33.40 63.65 30.99 64.60 28.66 L 65.20 27.80 C 64.57 30.91 63.59 33.93 62.20 36.79 C 56.03 33.03 50.73 27.91 44.15 24.85 C 43.90 25.49 43.41 26.75 43.16 27.38 Z" />
<path fill="#017b91" opacity="1.00" d=" M 36.85 24.17 C 37.43 24.68 37.43 24.68 36.85 24.17 Z" />
<path fill="#017b91" opacity="1.00" d=" M 65.83 26.92 C 66.37 26.73 67.46 26.37 68.00 26.19 L 67.68 26.98 C 67.22 26.96 66.29 26.93 65.83 26.92 Z" />
<path fill="#017b91" opacity="1.00" d=" M 119.87 32.77 C 126.18 36.45 129.98 43.42 136.13 47.36 L 137.00 47.74 L 137.00 49.24 C 133.89 47.79 131.83 44.95 129.40 42.64 C 126.23 39.35 122.75 36.34 119.87 32.77 Z" />
<path fill="#017b91" opacity="1.00" d=" M 39.02 35.19 L 39.52 34.63 C 39.83 34.87 40.47 35.36 40.78 35.60 L 41.08 34.66 L 42.10 35.63 C 41.39 35.93 40.69 36.24 39.99 36.55 C 39.61 38.15 37.81 38.22 36.58 38.71 C 37.37 37.52 38.14 36.31 39.02 35.19 Z" />
<path fill="#017b91" opacity="1.00" d=" M 133.16 42.34 L 133.27 42.57 L 133.42 42.79 L 133.27 42.57 L 133.16 42.34 Z" />
<path fill="#017b91" opacity="1.00" d=" M 42.09 46.88 C 43.04 45.78 43.98 44.68 44.93 43.59 C 44.65 44.19 44.07 45.41 43.78 46.01 C 43.80 46.60 43.83 47.78 43.85 48.37 C 43.56 49.22 42.99 50.93 42.71 51.78 C 43.38 51.67 44.72 51.46 45.39 51.35 C 44.81 51.56 43.65 51.99 43.07 52.20 C 43.01 53.62 42.93 55.04 42.80 56.45 L 42.27 57.62 C 41.99 59.43 41.93 61.27 41.77 63.10 C 41.62 63.68 41.32 64.82 41.17 65.39 L 40.25 64.57 C 41.31 61.84 40.96 58.81 42.12 56.14 C 42.22 52.83 42.22 49.46 43.45 46.33 L 42.09 46.88 Z" />
<path fill="#017b91" opacity="1.00" d=" M 31.39 47.68 L 32.27 47.55 C 32.40 48.68 32.52 49.81 32.65 50.94 C 32.38 50.98 31.82 51.07 31.54 51.12 C 30.28 51.81 29.05 52.55 27.82 53.29 C 27.96 53.82 28.26 54.88 28.40 55.41 C 27.86 55.89 27.32 56.36 26.78 56.84 C 27.25 57.98 27.75 59.11 28.25 60.24 L 28.66 61.10 C 24.18 58.92 26.88 51.63 31.13 50.82 C 31.19 50.04 31.32 48.47 31.39 47.68 Z" />
<path fill="#017b91" opacity="1.00" d=" M 34.51 55.47 C 35.19 55.48 36.55 55.50 37.23 55.51 C 37.48 57.68 34.72 57.17 34.51 55.47 Z" />
<path fill="#017b91" opacity="1.00" d=" M 32.10 57.43 C 32.21 57.29 32.42 57.00 32.52 56.86 L 32.61 57.33 L 32.10 57.43 Z" />
<path fill="#017b91" opacity="1.00" d=" M 31.74 60.65 C 29.40 61.29 30.44 58.04 32.03 59.77 L 31.74 60.65 Z" />
<path fill="#017b91" opacity="1.00" d=" M 29.32 61.54 C 29.37 61.56 29.46 61.59 29.51 61.61 L 29.40 61.59 L 29.32 61.54 Z" />
<path fill="#017b91" opacity="1.00" d=" M 39.36 94.63 C 37.71 94.70 37.59 94.19 39.00 93.11 C 39.09 93.49 39.27 94.25 39.36 94.63 Z" />
<path fill="#017b91" opacity="1.00" d=" M 44.74 95.34 C 45.06 95.15 45.70 94.77 46.02 94.58 C 46.33 94.81 46.95 95.27 47.26 95.50 C 46.43 97.30 45.58 97.25 44.74 95.34 Z" />
<path fill="#017b91" opacity="1.00" d=" M 41.16 97.92 C 39.63 97.41 39.72 96.87 41.41 96.29 C 41.34 96.70 41.22 97.51 41.16 97.92 Z" />
<path fill="#017b91" opacity="1.00" d=" M 79.42 98.01 C 79.57 98.15 79.89 98.42 80.05 98.56 C 79.89 98.42 79.57 98.15 79.42 98.01 Z" />
</g>
<g id="#fcb96aff">
<path fill="#fcb96a" opacity="1.00" d=" M 69.99 9.81 C 72.45 10.31 74.91 10.88 77.40 11.22 C 76.70 11.46 75.29 11.93 74.58 12.17 C 73.09 12.30 71.60 12.35 70.11 12.40 C 70.08 11.75 70.02 10.45 69.99 9.81 Z" />
<path fill="#fcb96a" opacity="1.00" d=" M 32.28 15.76 C 33.06 16.80 33.85 17.83 34.65 18.86 C 34.60 19.17 34.51 19.80 34.46 20.12 C 34.34 21.07 34.08 22.96 33.96 23.91 L 35.80 24.67 C 36.28 24.11 37.25 22.97 37.73 22.41 C 38.69 22.95 39.66 23.49 40.63 24.03 C 41.96 21.11 43.50 18.30 45.28 15.63 C 45.15 16.88 44.88 19.40 44.74 20.65 C 44.65 21.10 44.47 21.99 44.37 22.44 L 43.49 23.65 C 43.31 24.89 43.24 26.14 43.16 27.38 C 43.41 26.75 43.90 25.49 44.15 24.85 C 50.73 27.91 56.03 33.03 62.20 36.79 C 62.74 37.27 63.27 37.75 63.81 38.23 C 65.66 39.66 68.19 40.71 68.83 43.19 C 69.77 46.00 71.17 48.60 72.41 51.28 C 73.33 53.58 71.38 55.68 70.49 57.66 C 68.74 60.47 68.87 63.91 67.73 66.95 C 67.05 66.97 65.70 67.00 65.02 67.02 C 65.45 65.22 65.88 63.42 66.30 61.63 C 64.15 62.92 61.99 64.21 59.74 65.31 C 60.17 62.93 61.43 60.88 62.75 58.91 C 61.34 59.33 59.92 59.74 58.49 60.12 C 59.51 56.40 63.65 55.71 66.96 55.96 C 70.39 53.31 68.75 48.13 64.67 47.28 C 65.62 48.99 66.64 50.66 67.68 52.32 C 67.33 53.24 66.97 54.15 66.62 55.07 C 64.23 55.00 61.82 54.94 59.49 54.32 C 59.34 54.24 59.04 54.08 58.89 54.00 C 58.78 53.69 58.56 53.06 58.45 52.75 C 57.26 51.92 55.72 51.95 54.47 52.61 C 54.16 52.43 53.54 52.07 53.23 51.89 C 52.77 50.33 50.85 50.52 49.91 51.50 C 48.41 51.31 46.89 51.04 45.39 51.35 C 44.72 51.46 43.38 51.67 42.71 51.78 C 42.99 50.93 43.56 49.22 43.85 48.37 C 43.83 47.78 43.80 46.60 43.78 46.01 C 44.07 45.41 44.65 44.19 44.93 43.59 C 43.98 44.68 43.04 45.78 42.09 46.88 C 41.67 47.35 40.82 48.30 40.40 48.78 C 40.21 47.20 40.77 45.81 41.71 44.57 C 42.03 43.78 42.34 42.99 42.65 42.20 C 42.01 41.58 41.37 40.97 40.72 40.37 C 39.16 42.24 37.61 44.12 36.07 46.01 C 35.47 45.66 34.25 44.95 33.65 44.59 C 33.94 45.21 34.54 46.44 34.83 47.06 C 32.78 46.92 30.72 46.79 28.66 46.64 C 28.49 45.76 28.32 44.87 28.17 43.98 C 29.70 39.65 29.31 34.93 28.96 30.43 C 29.44 29.98 30.41 29.09 30.89 28.65 C 31.16 24.33 32.25 20.11 32.28 15.76 M 36.85 24.17 C 37.43 24.68 37.43 24.68 36.85 24.17 M 34.93 33.05 C 36.37 33.31 38.03 31.42 37.80 30.03 C 36.43 29.93 34.69 31.64 34.93 33.05 M 32.32 31.91 C 32.62 34.29 32.77 36.71 32.37 39.10 L 31.14 36.43 C 30.53 37.12 29.94 37.82 29.37 38.53 C 30.70 39.23 32.22 39.29 33.67 39.47 C 33.52 37.30 33.86 35.16 35.17 33.35 C 34.65 33.76 33.61 34.58 33.09 34.99 C 32.89 34.22 32.51 32.68 32.32 31.91 M 36.58 38.71 C 37.81 38.22 39.61 38.15 39.99 36.55 C 40.69 36.24 41.39 35.93 42.10 35.63 L 41.08 34.66 L 40.54 33.73 C 40.77 33.36 41.23 32.64 41.47 32.28 C 39.02 33.71 37.49 36.07 36.58 38.71 M 46.49 31.79 C 46.25 33.04 46.02 34.29 45.81 35.54 C 44.64 36.97 43.52 38.52 41.82 39.38 C 42.72 40.46 43.52 41.61 44.36 42.74 L 44.22 43.05 C 45.88 44.07 47.70 46.16 49.74 44.71 C 52.92 43.65 56.38 39.53 53.69 36.35 C 52.47 33.96 49.70 33.42 47.25 33.81 C 47.06 33.31 46.68 32.30 46.49 31.79 Z" />
<path fill="#fcb96a" opacity="1.00" d=" M 36.31 51.81 C 37.33 50.58 38.37 49.36 39.41 48.15 C 39.22 48.95 38.84 50.54 38.65 51.33 C 38.48 51.46 38.15 51.72 37.98 51.85 C 36.30 53.34 34.40 54.56 32.51 52.61 C 31.05 55.06 31.19 59.18 28.25 60.24 C 27.75 59.11 27.25 57.98 26.78 56.84 C 27.32 56.36 27.86 55.89 28.40 55.41 C 28.26 54.88 27.96 53.82 27.82 53.29 C 29.05 52.55 30.28 51.81 31.54 51.12 C 31.82 51.07 32.38 50.98 32.65 50.94 C 33.57 51.15 35.39 51.59 36.31 51.81 Z" />
<path fill="#fcb96a" opacity="1.00" d=" M 73.69 53.77 C 75.28 57.22 76.92 60.68 78.08 64.30 C 79.04 68.74 79.01 73.32 78.90 77.84 C 77.91 79.77 76.90 81.77 75.26 83.24 C 73.88 83.79 72.34 83.15 70.91 83.11 C 70.36 81.75 69.78 80.40 69.18 79.07 C 68.39 79.30 67.61 79.52 66.83 79.74 C 67.34 76.30 69.31 73.09 68.79 69.54 C 68.90 69.22 69.14 68.58 69.25 68.27 L 69.88 69.18 C 70.04 68.45 70.36 66.98 70.52 66.24 C 70.04 66.18 69.08 66.05 68.60 65.99 C 70.16 64.57 69.94 62.38 70.54 60.54 C 71.33 58.17 72.63 56.02 73.69 53.77 M 74.34 76.44 C 73.51 77.60 73.55 79.42 74.32 80.61 C 75.71 80.34 75.78 76.71 74.34 76.44 Z" />
<path fill="#fcb96a" opacity="1.00" d=" M 40.25 64.57 L 41.17 65.39 C 41.75 71.46 46.34 75.84 51.34 78.76 C 49.60 79.16 47.85 79.53 46.11 79.90 C 44.34 78.69 42.42 77.63 40.91 76.07 C 39.27 72.67 39.78 68.72 39.87 65.07 L 40.25 64.57 Z" />
<path fill="#fcb96a" opacity="1.00" d=" M 90.71 80.58 C 94.47 85.40 97.99 90.40 101.91 95.09 C 104.27 99.08 108.54 101.14 111.74 104.31 C 113.88 106.41 117.50 106.02 119.40 108.40 L 118.29 108.29 C 112.59 107.51 108.28 103.43 103.95 100.02 C 99.40 96.54 96.26 91.66 92.54 87.39 C 90.81 85.54 90.44 83.00 90.71 80.58 Z" />
<path fill="#fcb96a" opacity="1.00" d=" M 68.91 92.69 C 72.09 91.33 75.56 91.22 78.93 91.78 C 78.36 93.27 77.88 94.79 77.44 96.32 C 76.54 95.48 75.88 93.81 74.42 94.13 C 73.53 94.77 72.65 95.41 71.77 96.07 C 70.95 95.10 70.12 94.14 69.30 93.18 L 68.91 92.69 Z" />
</g>
<g id="#da954fff">
<path fill="#da954f" opacity="1.00" d=" M 77.40 11.22 C 81.09 10.58 84.74 11.51 88.21 12.71 C 96.64 15.65 105.55 17.79 112.97 22.98 C 113.64 23.70 114.24 24.48 114.78 25.31 C 115.02 25.22 115.50 25.04 115.73 24.96 C 119.04 27.40 122.72 29.40 125.56 32.43 C 128.53 35.17 130.63 38.64 132.96 41.90 L 133.16 42.34 L 133.27 42.57 L 133.42 42.79 C 134.42 44.25 135.37 45.75 136.13 47.36 C 129.98 43.42 126.18 36.45 119.87 32.77 L 119.78 32.72 C 116.60 29.38 112.93 26.56 109.09 24.01 C 107.78 23.20 106.74 22.05 105.93 20.74 C 105.23 19.41 104.62 19.45 104.09 20.88 C 103.68 20.52 102.86 19.79 102.45 19.43 L 102.45 19.43 C 102.39 19.44 102.28 19.47 102.22 19.48 C 101.84 19.56 101.06 19.70 100.67 19.78 C 96.61 18.45 92.67 16.75 88.57 15.53 C 85.82 13.80 82.38 15.16 79.34 15.07 C 78.66 17.82 77.82 20.68 75.74 22.73 C 72.14 26.63 66.94 29.90 66.59 35.77 C 65.96 36.89 64.87 37.56 63.81 38.23 C 63.27 37.75 62.74 37.27 62.20 36.79 C 63.59 33.93 64.57 30.91 65.20 27.80 C 65.36 27.58 65.68 27.14 65.83 26.92 C 66.29 26.93 67.22 26.96 67.68 26.98 L 68.00 26.19 C 68.27 25.87 68.79 25.24 69.06 24.93 C 71.38 25.38 74.26 23.83 73.19 21.13 C 73.41 20.88 73.84 20.39 74.06 20.15 L 74.61 19.50 C 75.96 17.80 76.23 15.63 76.60 13.57 C 76.10 13.22 75.09 12.52 74.58 12.17 C 75.29 11.93 76.70 11.46 77.40 11.22 Z" />
<path fill="#da954f" opacity="1.00" d=" M 16.33 11.84 C 20.89 14.99 26.30 16.54 31.22 19.02 C 31.33 19.58 31.55 20.71 31.67 21.27 C 27.13 20.49 23.25 16.08 18.48 17.50 C 14.96 16.26 12.56 20.25 10.21 22.21 C 6.11 25.64 6.07 31.33 3.72 35.79 C 1.24 41.17 5.32 46.41 6.59 51.51 C 4.34 48.46 2.65 45.01 1.31 41.47 C 0.76 38.58 2.06 35.76 2.92 33.06 C 4.15 29.98 3.92 26.51 5.47 23.54 C 5.65 23.37 6.02 23.01 6.20 22.84 C 8.56 23.47 10.73 21.32 9.13 19.09 C 9.29 18.90 9.59 18.53 9.74 18.34 C 11.77 15.99 15.43 15.06 16.33 11.84 Z" />
<path fill="#da954f" opacity="1.00" d=" M 47.25 33.81 C 49.70 33.42 52.47 33.96 53.69 36.35 C 56.38 39.53 52.92 43.65 49.74 44.71 C 47.70 46.16 45.88 44.07 44.22 43.05 L 44.36 42.74 C 45.59 39.86 46.85 36.94 47.25 33.81 Z" />
<path fill="#da954f" opacity="1.00" d=" M 34.29 49.07 C 37.36 47.57 34.49 52.30 34.29 49.07 Z" />
<path fill="#da954f" opacity="1.00" d=" M 39.48 65.62 L 39.87 65.07 C 39.78 68.72 39.27 72.67 40.91 76.07 C 42.42 77.63 44.34 78.69 46.11 79.90 C 47.85 79.53 49.60 79.16 51.34 78.76 C 53.69 79.72 56.25 80.53 57.75 82.74 C 57.25 83.32 56.26 84.48 55.76 85.06 C 55.57 85.60 55.19 86.67 55.01 87.21 C 54.80 87.35 54.40 87.61 54.19 87.74 C 52.66 87.80 51.86 88.60 51.78 90.14 C 51.27 90.82 50.77 91.50 50.27 92.20 C 48.50 90.33 46.80 91.38 45.34 92.91 C 44.93 92.48 44.11 91.60 43.70 91.17 C 43.18 91.32 42.13 91.61 41.61 91.76 C 42.10 89.99 42.60 88.21 43.11 86.44 C 44.24 86.75 45.37 87.05 46.51 87.34 C 43.90 84.67 40.36 82.64 39.07 78.94 C 37.01 74.70 38.33 69.91 39.48 65.62 M 42.34 79.23 C 42.86 79.77 42.86 79.77 42.34 79.23 Z" />
<path fill="#da954f" opacity="1.00" d=" M 80.13 66.70 C 83.50 71.38 87.46 75.60 90.71 80.39 L 90.71 80.58 C 90.44 83.00 90.81 85.54 92.54 87.39 C 96.26 91.66 99.40 96.54 103.95 100.02 C 108.28 103.43 112.59 107.51 118.29 108.29 C 115.42 109.98 111.88 108.76 109.28 107.10 L 108.83 108.17 C 107.23 107.22 105.45 106.50 104.04 105.26 C 102.89 103.95 101.74 102.63 100.54 101.37 C 98.53 98.78 96.36 96.27 93.52 94.55 C 93.31 94.27 92.88 93.71 92.66 93.43 C 92.68 91.32 91.37 89.29 89.44 88.47 L 88.97 88.26 C 88.82 86.84 88.03 86.06 86.61 85.92 C 86.35 85.63 85.83 85.04 85.57 84.75 C 85.48 84.66 85.30 84.47 85.20 84.37 C 84.83 84.03 84.09 83.34 83.72 82.99 L 83.38 82.62 L 82.98 82.42 C 82.55 82.19 81.68 81.73 81.25 81.50 C 79.41 76.77 80.15 71.64 80.13 66.70 Z" />
<path fill="#da954f" opacity="1.00" d=" M 74.34 76.44 C 75.78 76.71 75.71 80.34 74.32 80.61 C 73.55 79.42 73.51 77.60 74.34 76.44 Z" />
<path fill="#da954f" opacity="1.00" d=" M 75.26 83.24 C 76.90 81.77 77.91 79.77 78.90 77.84 C 78.91 80.54 78.67 83.41 80.06 85.85 C 81.44 88.41 80.90 91.40 81.06 94.19 C 80.37 93.37 79.66 92.56 78.93 91.78 C 75.56 91.22 72.09 91.33 68.91 92.69 C 68.72 90.50 69.91 88.68 71.13 86.98 C 70.24 84.44 66.93 81.73 69.18 79.07 C 69.78 80.40 70.36 81.75 70.91 83.11 C 72.34 83.15 73.88 83.79 75.26 83.24 M 78.27 87.25 C 78.76 87.81 78.76 87.81 78.27 87.25 M 71.30 88.22 C 72.38 90.78 75.52 89.41 77.63 89.47 C 76.78 86.78 73.30 88.65 71.30 88.22 Z" />
</g>
<g id="#bc4224ff">
<path fill="#bc4224" opacity="1.00" d=" M 40.94 22.39 C 42.15 19.12 43.38 15.58 46.51 13.65 C 46.60 14.32 46.79 15.67 46.88 16.35 C 46.18 17.79 45.50 19.24 44.74 20.65 C 44.88 19.40 45.15 16.88 45.28 15.63 C 43.50 18.30 41.96 21.11 40.63 24.03 C 39.66 23.49 38.69 22.95 37.73 22.41 C 37.25 22.97 36.28 24.11 35.80 24.67 L 33.96 23.91 C 34.08 22.96 34.34 21.07 34.46 20.12 C 35.60 20.42 36.74 20.73 37.87 21.04 C 38.64 21.38 40.18 22.05 40.94 22.39 Z" />
<path fill="#bc4224" opacity="1.00" d=" M 102.22 19.48 C 102.28 19.47 102.39 19.44 102.45 19.43 L 102.45 19.43 L 102.22 19.48 Z" />
<path fill="#bc4224" opacity="1.00" d=" M 104.09 20.88 C 104.62 19.45 105.23 19.41 105.93 20.74 C 105.47 20.78 104.55 20.84 104.09 20.88 Z" />
<path fill="#bc4224" opacity="1.00" d=" M 69.06 24.93 C 70.29 23.51 71.82 22.40 73.19 21.13 C 74.26 23.83 71.38 25.38 69.06 24.93 Z" />
<path fill="#bc4224" opacity="1.00" d=" M 34.93 33.05 C 34.69 31.64 36.43 29.93 37.80 30.03 C 38.03 31.42 36.37 33.31 34.93 33.05 Z" />
<path fill="#bc4224" opacity="1.00" d=" M 32.32 31.91 C 32.51 32.68 32.89 34.22 33.09 34.99 C 33.61 34.58 34.65 33.76 35.17 33.35 C 33.86 35.16 33.52 37.30 33.67 39.47 C 32.22 39.29 30.70 39.23 29.37 38.53 C 29.94 37.82 30.53 37.12 31.14 36.43 L 32.37 39.10 C 32.77 36.71 32.62 34.29 32.32 31.91 Z" />
<path fill="#bc4224" opacity="1.00" d=" M 46.49 31.79 C 46.68 32.30 47.06 33.31 47.25 33.81 C 46.85 36.94 45.59 39.86 44.36 42.74 C 43.52 41.61 42.72 40.46 41.82 39.38 C 43.52 38.52 44.64 36.97 45.81 35.54 C 46.02 34.29 46.25 33.04 46.49 31.79 Z" />
<path fill="#bc4224" opacity="1.00" d=" M 63.81 38.23 C 64.87 37.56 65.96 36.89 66.59 35.77 C 66.49 36.32 66.30 37.43 66.20 37.98 C 68.03 40.06 69.59 42.36 70.61 44.95 C 75.96 51.47 76.46 60.59 81.95 67.04 C 90.15 76.94 97.25 87.70 105.58 97.49 C 108.78 100.30 112.20 102.87 115.56 105.51 C 115.78 105.19 116.23 104.56 116.46 104.25 C 118.03 105.26 119.57 106.34 121.28 107.10 C 122.80 107.07 123.96 105.80 125.28 105.17 C 125.10 105.57 124.76 106.38 124.58 106.78 C 123.20 107.33 121.78 107.74 120.34 108.12 C 119.90 108.54 119.00 109.40 118.55 109.82 C 114.31 109.97 109.90 110.01 106.09 107.87 C 97.13 103.36 89.28 96.88 81.85 90.22 C 81.82 92.48 81.94 94.79 81.36 97.00 C 81.01 95.72 80.28 95.05 79.17 94.97 C 79.13 95.46 79.04 96.45 79.00 96.95 C 78.28 96.90 76.85 96.79 76.14 96.74 C 75.63 98.50 75.12 100.44 73.42 101.42 C 73.41 100.73 73.39 99.35 73.39 98.66 C 73.75 98.67 74.49 98.68 74.86 98.69 C 75.75 97.22 74.72 95.59 74.42 94.13 C 75.88 93.81 76.54 95.48 77.44 96.32 C 77.88 94.79 78.36 93.27 78.93 91.78 C 79.66 92.56 80.37 93.37 81.06 94.19 C 80.90 91.40 81.44 88.41 80.06 85.85 C 78.67 83.41 78.91 80.54 78.90 77.84 C 79.01 73.32 79.04 68.74 78.08 64.30 C 76.92 60.68 75.28 57.22 73.69 53.77 C 72.63 56.02 71.33 58.17 70.54 60.54 C 69.94 62.38 70.16 64.57 68.60 65.99 C 69.08 66.05 70.04 66.18 70.52 66.24 C 70.36 66.98 70.04 68.45 69.88 69.18 L 69.25 68.27 C 68.81 67.62 68.36 66.98 67.91 66.35 L 67.94 68.12 C 66.90 68.06 64.83 67.95 63.80 67.89 C 64.18 66.46 64.56 65.03 64.95 63.60 C 62.73 65.04 60.47 66.47 57.90 67.22 C 58.46 65.24 60.25 62.54 56.78 62.46 C 57.34 59.55 59.03 57.15 61.39 55.39 C 60.92 55.12 59.97 54.59 59.49 54.32 C 61.82 54.94 64.23 55.00 66.62 55.07 C 66.97 54.15 67.33 53.24 67.68 52.32 C 66.64 50.66 65.62 48.99 64.67 47.28 C 68.75 48.13 70.39 53.31 66.96 55.96 C 63.65 55.71 59.51 56.40 58.49 60.12 C 59.92 59.74 61.34 59.33 62.75 58.91 C 61.43 60.88 60.17 62.93 59.74 65.31 C 61.99 64.21 64.15 62.92 66.30 61.63 C 65.88 63.42 65.45 65.22 65.02 67.02 C 65.70 67.00 67.05 66.97 67.73 66.95 C 68.87 63.91 68.74 60.47 70.49 57.66 C 71.38 55.68 73.33 53.58 72.41 51.28 C 71.17 48.60 69.77 46.00 68.83 43.19 C 68.19 40.71 65.66 39.66 63.81 38.23 M 58.23 61.23 C 58.82 61.82 58.82 61.82 58.23 61.23 M 80.13 66.70 C 80.15 71.64 79.41 76.77 81.25 81.50 L 79.81 80.75 C 80.66 83.72 82.59 86.37 82.10 89.61 C 89.59 94.48 95.84 101.44 104.04 105.26 C 105.45 106.50 107.23 107.22 108.83 108.17 L 109.28 107.10 C 111.88 108.76 115.42 109.98 118.29 108.29 L 119.40 108.40 C 117.50 106.02 113.88 106.41 111.74 104.31 C 108.54 101.14 104.27 99.08 101.91 95.09 C 97.99 90.40 94.47 85.40 90.71 80.58 L 90.71 80.39 C 87.46 75.60 83.50 71.38 80.13 66.70 Z" />
<path fill="#bc4224" opacity="1.00" d=" M 40.72 40.37 C 41.37 40.97 42.01 41.58 42.65 42.20 C 42.34 42.99 42.03 43.78 41.71 44.57 C 40.77 45.81 40.21 47.20 40.40 48.78 C 40.17 49.25 39.72 50.18 39.49 50.65 L 38.65 51.33 C 38.84 50.54 39.22 48.95 39.41 48.15 C 38.37 49.36 37.33 50.58 36.31 51.81 C 35.39 51.59 33.57 51.15 32.65 50.94 C 32.52 49.81 32.40 48.68 32.27 47.55 L 31.39 47.68 C 30.77 47.73 29.53 47.82 28.91 47.86 L 28.66 46.64 C 30.72 46.79 32.78 46.92 34.83 47.06 C 34.54 46.44 33.94 45.21 33.65 44.59 C 34.25 44.95 35.47 45.66 36.07 46.01 C 37.61 44.12 39.16 42.24 40.72 40.37 M 34.29 49.07 C 34.49 52.30 37.36 47.57 34.29 49.07 Z" />
<path fill="#bc4224" opacity="1.00" d=" M 49.91 51.50 C 50.85 50.52 52.77 50.33 53.23 51.89 C 52.40 51.79 50.74 51.59 49.91 51.50 Z" />
<path fill="#bc4224" opacity="1.00" d=" M 28.25 60.24 C 31.19 59.18 31.05 55.06 32.51 52.61 C 34.40 54.56 36.30 53.34 37.98 51.85 C 37.72 53.07 37.46 54.29 37.23 55.51 C 36.55 55.50 35.19 55.48 34.51 55.47 C 34.01 55.82 33.02 56.51 32.52 56.86 C 32.42 57.00 32.21 57.29 32.10 57.43 L 32.61 57.33 C 32.73 57.96 32.98 59.24 33.10 59.88 L 32.03 59.77 C 30.44 58.04 29.40 61.29 31.74 60.65 L 31.97 62.10 C 31.36 61.98 30.12 61.74 29.51 61.61 C 29.46 61.59 29.37 61.56 29.32 61.54 L 28.66 61.10 L 28.25 60.24 Z" />
<path fill="#bc4224" opacity="1.00" d=" M 41.17 65.39 C 41.32 64.82 41.62 63.68 41.77 63.10 C 42.25 70.12 47.68 75.52 53.83 78.21 C 57.60 79.56 61.70 79.02 65.62 79.04 C 65.99 77.79 66.36 76.55 66.73 75.30 C 67.29 73.34 68.00 71.42 68.79 69.54 C 69.31 73.09 67.34 76.30 66.83 79.74 C 67.61 79.52 68.39 79.30 69.18 79.07 C 66.93 81.73 70.24 84.44 71.13 86.98 C 69.91 88.68 68.72 90.50 68.91 92.69 L 69.30 93.18 C 70.12 94.14 70.95 95.10 71.77 96.07 C 72.65 95.41 73.53 94.77 74.42 94.13 C 73.95 95.01 73.48 95.87 73.00 96.74 C 72.37 96.78 71.13 96.85 70.51 96.89 C 70.16 96.41 69.47 95.45 69.13 94.97 C 69.17 95.63 69.26 96.95 69.30 97.61 L 68.34 98.16 C 68.33 95.34 68.29 92.52 68.43 89.70 C 70.67 86.40 67.92 82.36 65.66 79.88 C 62.94 79.56 60.40 81.33 57.63 80.59 C 57.66 81.13 57.72 82.21 57.75 82.74 C 56.25 80.53 53.69 79.72 51.34 78.76 C 46.34 75.84 41.75 71.46 41.17 65.39 Z" />
<path fill="#bc4224" opacity="1.00" d=" M 37.30 76.11 C 37.23 72.53 36.98 68.52 39.48 65.62 C 38.33 69.91 37.01 74.70 39.07 78.94 C 40.36 82.64 43.90 84.67 46.51 87.34 C 45.37 87.05 44.24 86.75 43.11 86.44 C 42.60 88.21 42.10 89.99 41.61 91.76 C 42.13 91.61 43.18 91.32 43.70 91.17 C 44.11 91.60 44.93 92.48 45.34 92.91 C 46.80 91.38 48.50 90.33 50.27 92.20 C 50.04 92.59 49.58 93.37 49.35 93.76 C 48.94 93.35 48.12 92.54 47.71 92.13 C 47.47 92.41 46.99 92.99 46.76 93.28 C 46.53 93.52 46.09 94.02 45.87 94.26 C 45.66 94.19 45.25 94.04 45.04 93.96 C 44.34 93.66 42.93 93.06 42.22 92.76 C 41.95 93.94 41.68 95.11 41.41 96.29 C 41.36 95.50 41.28 93.92 41.24 93.13 C 41.37 92.16 41.05 91.41 40.28 90.87 C 41.00 89.20 43.02 87.45 42.12 85.54 C 39.87 82.84 37.21 79.86 37.30 76.11 Z" />
<path fill="#bc4224" opacity="1.00" d=" M 42.34 79.23 C 42.86 79.77 42.86 79.77 42.34 79.23 Z" />
<path fill="#bc4224" opacity="1.00" d=" M 82.98 82.42 L 83.38 82.62 L 83.72 82.99 L 83.29 82.71 L 82.98 82.42 Z" />
<path fill="#bc4224" opacity="1.00" d=" M 118.95 82.46 C 121.19 84.62 122.98 87.20 124.29 90.02 C 124.65 90.06 125.38 90.14 125.74 90.17 C 126.35 94.37 127.76 98.74 126.39 102.93 C 125.99 101.48 125.53 100.05 125.08 98.62 C 124.70 99.19 123.95 100.32 123.57 100.88 C 123.69 98.89 122.94 95.57 120.14 96.95 C 122.00 92.14 121.22 86.96 118.95 82.46 Z" />
<path fill="#bc4224" opacity="1.00" d=" M 85.20 84.37 C 85.30 84.47 85.48 84.66 85.57 84.75 C 85.48 84.66 85.30 84.47 85.20 84.37 Z" />
<path fill="#bc4224" opacity="1.00" d=" M 55.01 87.21 C 55.19 86.67 55.57 85.60 55.76 85.06 L 56.10 85.81 C 55.83 86.16 55.28 86.86 55.01 87.21 Z" />
<path fill="#bc4224" opacity="1.00" d=" M 86.61 85.92 C 88.03 86.06 88.82 86.84 88.97 88.26 C 87.55 88.10 86.77 87.32 86.61 85.92 Z" />
<path fill="#bc4224" opacity="1.00" d=" M 78.27 87.25 C 78.76 87.81 78.76 87.81 78.27 87.25 Z" />
<path fill="#bc4224" opacity="1.00" d=" M 51.78 90.14 C 51.86 88.60 52.66 87.80 54.19 87.74 C 53.89 89.04 53.09 89.84 51.78 90.14 Z" />
<path fill="#bc4224" opacity="1.00" d=" M 71.30 88.22 C 73.30 88.65 76.78 86.78 77.63 89.47 C 75.52 89.41 72.38 90.78 71.30 88.22 Z" />
<path fill="#bc4224" opacity="1.00" d=" M 93.52 94.55 C 96.36 96.27 98.53 98.78 100.54 101.37 C 97.82 99.52 95.44 97.22 93.52 94.55 Z" />
<path fill="#bc4224" opacity="1.00" d=" M 119.89 98.96 C 118.45 98.24 118.41 97.59 119.76 97.02 C 119.79 97.51 119.86 98.48 119.89 98.96 Z" />
<path fill="#bc4224" opacity="1.00" d=" M 117.90 102.26 C 118.12 101.91 118.56 101.20 118.77 100.85 L 119.22 101.55 C 119.00 101.89 118.55 102.59 118.32 102.93 L 117.90 102.26 Z" />
</g>
<g id="#d4c293ff">
<path fill="#d4c293" opacity="1.00" d=" M 6.20 22.84 C 7.27 21.66 8.16 20.34 9.13 19.09 C 10.73 21.32 8.56 23.47 6.20 22.84 Z" />
<path fill="#d4c293" opacity="1.00" d=" M 42.27 57.62 L 42.80 56.45 C 42.22 63.51 46.70 69.89 52.32 73.68 C 56.69 76.18 61.92 75.84 66.73 75.30 C 66.36 76.55 65.99 77.79 65.62 79.04 C 61.70 79.02 57.60 79.56 53.83 78.21 C 47.68 75.52 42.25 70.12 41.77 63.10 C 41.93 61.27 41.99 59.43 42.27 57.62 Z" />
<path fill="#d4c293" opacity="1.00" d=" M 79.81 80.75 L 81.25 81.50 C 81.68 81.73 82.55 82.19 82.98 82.42 L 83.29 82.71 L 83.72 82.99 C 84.09 83.34 84.83 84.03 85.20 84.37 C 85.30 84.47 85.48 84.66 85.57 84.75 C 85.83 85.04 86.35 85.63 86.61 85.92 C 86.77 87.32 87.55 88.10 88.97 88.26 L 89.44 88.47 C 88.83 90.79 91.20 92.13 92.66 93.43 C 92.88 93.71 93.31 94.27 93.52 94.55 C 95.44 97.22 97.82 99.52 100.54 101.37 C 101.74 102.63 102.89 103.95 104.04 105.26 C 95.84 101.44 89.59 94.48 82.10 89.61 C 82.59 86.37 80.66 83.72 79.81 80.75 Z" />
</g>
<g id="#f6eac0ff">
<path fill="#f6eac0" opacity="1.00" d=" M 39.52 34.63 C 39.77 34.40 40.28 33.95 40.54 33.73 L 41.08 34.66 L 40.78 35.60 C 40.47 35.36 39.83 34.87 39.52 34.63 Z" />
<path fill="#f6eac0" opacity="1.00" d=" M 45.39 51.35 C 46.89 51.04 48.41 51.31 49.91 51.50 C 50.74 51.59 52.40 51.79 53.23 51.89 C 53.54 52.07 54.16 52.43 54.47 52.61 C 55.74 53.59 57.35 53.78 58.89 54.00 C 59.04 54.08 59.34 54.24 59.49 54.32 C 59.97 54.59 60.92 55.12 61.39 55.39 C 59.03 57.15 57.34 59.55 56.78 62.46 C 60.25 62.54 58.46 65.24 57.90 67.22 C 60.47 66.47 62.73 65.04 64.95 63.60 C 64.56 65.03 64.18 66.46 63.80 67.89 C 64.83 67.95 66.90 68.06 67.94 68.12 L 67.91 66.35 C 68.36 66.98 68.81 67.62 69.25 68.27 C 69.14 68.58 68.90 69.22 68.79 69.54 C 68.00 71.42 67.29 73.34 66.73 75.30 C 61.92 75.84 56.69 76.18 52.32 73.68 C 46.70 69.89 42.22 63.51 42.80 56.45 C 42.93 55.04 43.01 53.62 43.07 52.20 C 43.65 51.99 44.81 51.56 45.39 51.35 Z" />
<path fill="#f6eac0" opacity="1.00" d=" M 58.23 61.23 C 58.82 61.82 58.82 61.82 58.23 61.23 Z" />
<path fill="#f6eac0" opacity="1.00" d=" M 40.28 90.87 C 41.05 91.41 41.37 92.16 41.24 93.13 C 40.77 93.51 39.83 94.26 39.36 94.63 C 39.27 94.25 39.09 93.49 39.00 93.11 C 39.32 92.55 39.96 91.43 40.28 90.87 Z" />
<path fill="#f6eac0" opacity="1.00" d=" M 46.76 93.28 C 46.99 92.99 47.47 92.41 47.71 92.13 C 48.12 92.54 48.94 93.35 49.35 93.76 C 48.96 94.23 48.19 95.16 47.81 95.63 L 47.26 95.50 C 46.95 95.27 46.33 94.81 46.02 94.58 L 45.87 94.26 C 46.09 94.02 46.53 93.52 46.76 93.28 Z" />
<path fill="#f6eac0" opacity="1.00" d=" M 42.22 92.76 C 42.93 93.06 44.34 93.66 45.04 93.96 C 43.76 95.30 42.51 96.66 41.16 97.92 C 41.22 97.51 41.34 96.70 41.41 96.29 C 41.68 95.11 41.95 93.94 42.22 92.76 Z" />
<path fill="#f6eac0" opacity="1.00" d=" M 69.13 94.97 C 69.47 95.45 70.16 96.41 70.51 96.89 C 70.21 97.07 69.60 97.43 69.30 97.61 C 69.26 96.95 69.17 95.63 69.13 94.97 Z" />
<path fill="#f6eac0" opacity="1.00" d=" M 74.42 94.13 C 74.72 95.59 75.75 97.22 74.86 98.69 C 74.49 98.68 73.75 98.67 73.39 98.66 L 72.08 98.41 C 72.31 97.99 72.77 97.16 73.00 96.74 C 73.48 95.87 73.95 95.01 74.42 94.13 Z" />
<path fill="#f6eac0" opacity="1.00" d=" M 79.17 94.97 C 80.28 95.05 81.01 95.72 81.36 97.00 C 81.03 97.39 80.38 98.17 80.05 98.56 C 79.89 98.42 79.57 98.15 79.42 98.01 L 79.00 96.95 C 79.04 96.45 79.13 95.46 79.17 94.97 Z" />
</g>
<g id="#f0ce00ff">
<path fill="#f0ce00" opacity="1.00" d=" M 119.76 97.02 L 120.14 96.95 C 122.94 95.57 123.69 98.89 123.57 100.88 C 123.95 100.32 124.70 99.19 125.08 98.62 C 125.53 100.05 125.99 101.48 126.39 102.93 C 126.19 103.34 125.79 104.14 125.60 104.55 L 125.28 105.17 C 123.96 105.80 122.80 107.07 121.28 107.10 C 119.57 106.34 118.03 105.26 116.46 104.25 C 116.92 103.92 117.86 103.26 118.32 102.93 C 118.55 102.59 119.00 101.89 119.22 101.55 L 118.77 100.85 C 119.43 100.36 120.09 99.86 120.74 99.36 L 119.89 98.96 C 119.86 98.48 119.79 97.51 119.76 97.02 Z" />
</g>
</svg>
