<?xml version="1.0" encoding="UTF-8" ?>
<!DOCTYPE svg PUBLIC "-//W3C//DTD SVG 1.1//EN" "http://www.w3.org/Graphics/SVG/1.1/DTD/svg11.dtd">
<svg width="120pt" height="120pt" viewBox="0 0 120 120" version="1.1" xmlns="http://www.w3.org/2000/svg">
<g id="#64594fff">
<path fill="#64594f" opacity="1.00" d=" M 24.91 26.10 C 26.10 26.58 27.29 27.04 28.49 27.48 C 30.75 28.62 33.04 29.71 35.48 30.42 C 37.22 31.25 38.94 32.14 40.62 33.11 C 41.10 33.14 42.04 33.18 42.52 33.21 C 43.59 33.90 44.67 34.60 45.74 35.30 C 46.51 33.89 47.87 33.16 49.39 32.81 C 48.86 33.24 47.80 34.11 47.27 34.54 C 46.43 36.35 45.36 38.11 45.00 40.10 C 45.13 41.97 46.40 43.54 47.12 45.22 C 50.25 45.15 53.34 44.55 56.07 42.96 C 56.04 41.42 56.02 39.88 55.99 38.34 C 54.90 37.33 53.80 36.32 52.70 35.31 C 50.57 36.85 48.82 38.80 49.15 41.66 C 48.66 40.66 48.18 39.66 47.71 38.66 C 48.85 37.47 49.98 36.28 51.12 35.09 C 52.26 35.12 53.40 35.15 54.55 35.18 C 55.36 35.92 56.17 36.66 56.99 37.40 C 57.01 39.24 57.04 41.08 57.07 42.93 C 54.23 45.62 50.29 47.34 46.41 45.91 C 43.23 43.64 44.26 39.56 44.64 36.30 C 40.19 32.77 34.14 31.44 28.51 32.07 C 31.22 37.18 35.10 41.56 39.24 45.55 C 38.99 46.89 38.72 48.23 38.44 49.57 C 37.93 50.88 37.40 52.17 36.93 53.49 C 36.56 53.60 35.81 53.82 35.44 53.93 C 35.03 54.05 34.19 54.30 33.78 54.42 C 30.17 55.55 26.78 57.22 23.35 58.77 C 24.64 57.12 26.63 56.34 28.45 55.45 C 29.53 54.80 30.58 54.11 31.64 53.42 C 29.92 52.75 28.21 52.05 26.50 51.35 C 27.66 50.10 29.01 49.07 30.44 48.15 C 31.32 48.15 33.09 48.14 33.97 48.14 C 29.72 45.88 25.97 42.83 21.99 40.14 C 22.29 39.62 22.88 38.58 23.17 38.06 C 24.25 38.15 25.32 38.24 26.39 38.32 C 27.39 38.74 28.41 39.13 29.42 39.51 C 30.27 39.77 31.98 40.27 32.83 40.53 C 30.28 37.59 27.86 34.53 25.77 31.25 C 25.32 30.81 24.43 29.93 23.99 29.49 C 24.28 28.36 24.59 27.23 24.91 26.10 M 23.20 38.91 C 26.93 42.84 32.41 44.62 35.84 48.79 C 33.22 48.93 30.60 49.33 28.22 50.48 C 30.56 51.67 32.93 53.54 35.73 52.94 C 36.73 51.56 37.24 49.92 37.91 48.38 C 37.94 47.89 38.00 46.93 38.03 46.45 C 36.06 44.45 33.95 42.59 31.60 41.05 C 31.08 41.01 30.04 40.95 29.53 40.91 C 28.52 40.48 27.52 40.05 26.51 39.63 C 25.68 39.45 24.03 39.09 23.20 38.91 Z" />
<path fill="#64594f" opacity="1.00" d=" M 86.54 28.42 C 88.31 27.90 90.07 27.35 91.85 26.86 C 91.85 27.54 91.86 28.89 91.86 29.57 C 88.74 32.46 85.99 35.75 82.59 38.32 C 83.39 36.28 83.92 34.15 84.42 32.02 C 81.14 32.35 77.89 32.85 74.61 33.21 C 73.63 33.77 72.65 34.32 71.67 34.88 C 70.63 35.15 69.58 35.43 68.55 35.72 C 67.51 36.13 66.48 36.56 65.45 36.99 C 64.95 37.00 63.95 37.03 63.46 37.04 C 61.88 35.41 60.29 33.78 58.73 32.14 C 56.64 31.69 54.48 30.97 52.36 31.72 C 51.80 31.85 50.68 32.09 50.13 32.22 L 49.96 31.36 C 52.03 30.87 54.11 30.37 56.24 30.17 C 57.37 30.63 58.52 31.06 59.69 31.46 C 61.39 33.08 63.07 34.72 64.75 36.37 C 67.93 34.90 71.33 34.01 74.49 32.49 C 75.50 32.15 76.52 31.81 77.53 31.46 C 80.56 30.53 83.56 29.50 86.54 28.42 Z" />
<path fill="#64594f" opacity="1.00" d=" M 99.94 38.15 C 100.43 39.37 100.90 40.61 101.36 41.85 C 100.77 41.87 99.60 41.91 99.02 41.93 C 99.30 41.37 99.87 40.25 100.16 39.69 C 93.92 40.86 88.22 43.80 82.05 45.21 C 81.64 45.12 80.82 44.94 80.41 44.85 C 86.90 42.57 93.55 40.74 99.94 38.15 Z" />
<path fill="#64594f" opacity="1.00" d=" M 91.34 47.54 C 93.26 45.30 95.76 43.68 98.50 42.62 C 96.65 44.92 94.05 46.47 91.34 47.54 Z" />
<path fill="#64594f" opacity="1.00" d=" M 72.03 48.18 C 73.82 46.59 75.62 45.01 77.46 43.47 C 76.62 44.50 74.95 46.55 74.11 47.58 C 75.37 47.20 77.91 46.44 79.17 46.06 C 77.39 47.04 75.55 47.89 73.71 48.74 C 74.69 50.48 75.21 52.76 77.14 53.73 C 81.41 56.05 85.26 59.04 89.42 61.52 C 88.04 59.89 86.61 58.31 85.18 56.73 C 87.97 55.46 90.84 54.33 93.86 53.69 L 94.04 54.89 C 93.42 54.94 92.17 55.03 91.55 55.08 C 90.87 55.40 89.52 56.05 88.84 56.37 C 88.89 56.98 88.99 58.19 89.04 58.79 C 89.51 59.20 90.45 60.01 90.92 60.42 C 90.85 63.83 91.63 67.44 90.23 70.68 C 90.12 71.12 89.91 71.99 89.80 72.43 C 89.50 73.08 88.91 74.37 88.61 75.01 L 87.78 74.98 C 89.74 70.93 90.25 66.44 90.09 62.00 L 89.04 61.97 C 89.01 63.48 88.98 64.99 88.94 66.50 C 87.73 65.63 86.53 64.76 85.33 63.88 C 86.23 63.85 88.02 63.78 88.92 63.75 C 87.61 62.77 86.29 61.79 84.98 60.82 C 84.42 61.11 83.30 61.67 82.75 61.96 C 82.99 61.31 83.47 60.02 83.72 59.37 C 80.81 57.54 77.63 56.14 74.82 54.16 C 73.31 52.52 72.92 50.17 72.03 48.18 Z" />
<path fill="#64594f" opacity="1.00" d=" M 44.86 48.96 C 45.69 49.36 46.51 49.78 47.33 50.20 L 48.28 48.61 C 48.16 50.94 47.14 53.05 44.65 53.47 C 44.97 53.04 45.61 52.16 45.93 51.73 C 45.51 50.83 45.16 49.90 44.86 48.96 Z" />
<path fill="#64594f" opacity="1.00" d=" M 54.25 49.18 C 54.81 49.75 54.81 49.75 54.25 49.18 Z" />
<path fill="#64594f" opacity="1.00" d=" M 54.10 51.24 C 57.36 51.45 52.57 54.31 54.10 51.24 Z" />
<path fill="#64594f" opacity="1.00" d=" M 56.22 52.22 C 56.83 52.83 56.83 52.83 56.22 52.22 Z" />
<path fill="#64594f" opacity="1.00" d=" M 21.27 59.52 C 21.69 59.52 22.52 59.53 22.94 59.53 C 22.49 59.75 21.59 60.17 21.14 60.39 L 21.27 59.52 Z" />
<path fill="#64594f" opacity="1.00" d=" M 19.93 61.88 C 19.98 61.76 20.08 61.52 20.13 61.40 L 19.93 61.88 Z" />
<path fill="#64594f" opacity="1.00" d=" M 21.19 61.25 C 25.35 64.64 31.06 64.79 35.74 62.38 C 36.20 66.52 35.64 70.84 37.14 74.82 C 38.37 78.36 39.70 81.88 40.31 85.59 C 41.47 87.05 42.29 88.94 43.92 89.93 C 46.71 90.72 49.64 90.77 52.51 91.09 C 53.07 89.03 53.64 86.98 54.21 84.93 C 52.33 84.78 50.44 84.63 48.55 84.47 C 51.58 84.43 54.61 84.42 57.63 84.23 C 58.36 86.07 59.11 87.90 59.89 89.71 C 62.15 90.13 64.40 90.64 66.58 91.36 C 67.92 91.19 69.26 91.01 70.59 90.84 C 69.64 91.40 68.67 91.94 67.69 92.46 C 65.39 93.02 63.01 93.05 60.66 93.03 C 59.57 91.15 58.38 89.34 57.22 87.50 C 57.21 86.74 57.17 85.22 57.15 84.46 C 56.11 85.42 55.08 86.39 54.04 87.37 C 53.75 88.84 54.45 91.28 52.51 91.82 C 49.56 92.16 46.58 91.98 43.62 92.07 C 42.06 90.35 40.73 88.44 39.40 86.55 C 39.14 85.16 38.88 83.79 38.57 82.42 C 38.21 81.42 37.84 80.43 37.47 79.44 C 37.13 78.42 36.77 77.41 36.41 76.40 C 36.28 75.98 36.01 75.12 35.87 74.70 C 34.65 71.11 35.36 67.27 35.23 63.57 C 34.52 63.90 33.09 64.57 32.38 64.90 C 28.57 65.23 24.76 64.91 21.12 63.73 C 21.14 63.11 21.17 61.87 21.19 61.25 Z" />
<path fill="#64594f" opacity="1.00" d=" M 72.69 63.67 C 76.96 65.01 81.30 66.25 85.82 66.07 C 85.23 66.40 84.03 67.07 83.43 67.40 C 82.98 68.83 82.51 70.26 82.04 71.69 C 80.00 72.77 77.98 73.91 76.00 75.12 C 76.01 77.17 76.03 79.21 76.05 81.26 C 78.56 80.80 81.06 80.28 83.55 79.69 C 82.62 80.36 81.65 80.96 80.64 81.49 C 78.92 81.81 77.18 81.97 75.45 82.13 C 75.03 82.73 74.18 83.92 73.76 84.52 C 74.87 78.53 76.48 72.54 75.95 66.39 L 75.37 65.88 C 74.70 65.32 73.36 64.22 72.69 63.67 M 77.05 65.51 C 77.02 68.03 77.03 70.56 77.06 73.08 C 79.56 71.82 81.99 70.14 82.50 67.18 C 81.76 67.11 80.29 66.96 79.55 66.89 C 78.93 66.55 77.68 65.85 77.05 65.51 Z" />
<path fill="#64594f" opacity="1.00" d=" M 84.95 77.86 C 85.32 76.92 85.98 76.29 86.93 75.97 C 87.36 77.73 86.69 78.36 84.95 77.86 Z" />
<path fill="#64594f" opacity="1.00" d=" M 70.81 89.82 C 70.78 88.36 71.34 86.71 72.77 86.09 C 73.52 87.30 72.39 90.22 70.81 89.82 Z" />
</g>
<g id="#fde0d6ff">
<path fill="#fde0d6" opacity="1.00" d=" M 52.36 31.72 C 54.48 30.97 56.64 31.69 58.73 32.14 C 60.29 33.78 61.88 35.41 63.46 37.04 C 63.95 37.03 64.95 37.00 65.45 36.99 C 66.48 36.56 67.51 36.13 68.55 35.72 C 69.58 35.43 70.63 35.15 71.67 34.88 C 72.65 34.32 73.63 33.77 74.61 33.21 C 77.89 32.85 81.14 32.35 84.42 32.02 C 83.92 34.15 83.39 36.28 82.59 38.32 C 80.99 40.14 79.25 41.84 77.46 43.47 C 75.62 45.01 73.82 46.59 72.03 48.18 C 72.92 50.17 73.31 52.52 74.82 54.16 C 77.63 56.14 80.81 57.54 83.72 59.37 C 83.47 60.02 82.99 61.31 82.75 61.96 C 83.30 61.67 84.42 61.11 84.98 60.82 C 86.29 61.79 87.61 62.77 88.92 63.75 C 88.02 63.78 86.23 63.85 85.33 63.88 C 86.53 64.76 87.73 65.63 88.94 66.50 C 88.98 64.99 89.01 63.48 89.04 61.97 L 90.09 62.00 C 90.25 66.44 89.74 70.93 87.78 74.98 C 87.57 75.23 87.14 75.72 86.93 75.97 C 85.98 76.29 85.32 76.92 84.95 77.86 C 84.55 78.53 84.08 79.14 83.55 79.69 C 81.06 80.28 78.56 80.80 76.05 81.26 C 76.03 79.21 76.01 77.17 76.00 75.12 C 77.98 73.91 80.00 72.77 82.04 71.69 C 82.51 70.26 82.98 68.83 83.43 67.40 C 84.03 67.07 85.23 66.40 85.82 66.07 C 81.30 66.25 76.96 65.01 72.69 63.67 C 73.36 64.22 74.70 65.32 75.37 65.88 C 73.58 73.86 66.05 79.75 58.00 80.21 C 51.72 80.11 44.77 78.43 40.70 73.27 C 36.33 67.74 36.10 60.19 36.93 53.49 C 37.40 52.17 37.93 50.88 38.44 49.57 C 38.72 48.23 38.99 46.89 39.24 45.55 C 35.10 41.56 31.22 37.18 28.51 32.07 C 34.14 31.44 40.19 32.77 44.64 36.30 C 44.26 39.56 43.23 43.64 46.41 45.91 C 50.29 47.34 54.23 45.62 57.07 42.93 C 57.04 41.08 57.01 39.24 56.99 37.40 C 56.17 36.66 55.36 35.92 54.55 35.18 C 53.40 35.15 52.26 35.12 51.12 35.09 C 49.98 36.28 48.85 37.47 47.71 38.66 C 48.18 39.66 48.66 40.66 49.15 41.66 C 48.82 38.80 50.57 36.85 52.70 35.31 C 53.80 36.32 54.90 37.33 55.99 38.34 C 56.02 39.88 56.04 41.42 56.07 42.96 C 53.34 44.55 50.25 45.15 47.12 45.22 C 46.40 43.54 45.13 41.97 45.00 40.10 C 45.36 38.11 46.43 36.35 47.27 34.54 C 47.80 34.11 48.86 33.24 49.39 32.81 C 49.58 32.67 49.94 32.37 50.13 32.22 C 50.68 32.09 51.80 31.85 52.36 31.72 M 44.86 48.96 C 45.16 49.90 45.51 50.83 45.93 51.73 C 45.61 52.16 44.97 53.04 44.65 53.47 C 47.14 53.05 48.16 50.94 48.28 48.61 L 47.33 50.20 C 46.51 49.78 45.69 49.36 44.86 48.96 M 54.25 49.18 C 54.81 49.75 54.81 49.75 54.25 49.18 M 56.30 49.29 C 56.78 49.81 56.78 49.81 56.30 49.29 M 54.10 51.24 C 52.57 54.31 57.36 51.45 54.10 51.24 M 56.22 52.22 C 56.83 52.83 56.83 52.83 56.22 52.22 M 47.43 54.51 C 45.80 56.54 51.07 56.00 50.52 54.18 C 49.46 53.63 48.43 53.74 47.43 54.51 M 52.33 55.06 C 52.44 58.39 55.33 53.55 52.33 55.06 Z" />
<path fill="#fde0d6" opacity="1.00" d=" M 33.78 54.42 C 34.19 54.30 35.03 54.05 35.44 53.93 C 35.30 56.74 35.49 59.57 35.74 62.38 C 31.06 64.79 25.35 64.64 21.19 61.25 L 19.93 61.88 L 20.13 61.40 L 20.60 60.24 L 21.14 60.39 C 21.59 60.17 22.49 59.75 22.94 59.53 C 23.04 59.34 23.25 58.96 23.35 58.77 C 26.78 57.22 30.17 55.55 33.78 54.42 Z" />
<path fill="#fde0d6" opacity="1.00" d=" M 77.05 65.51 C 77.68 65.85 78.93 66.55 79.55 66.89 C 80.29 66.96 81.76 67.11 82.50 67.18 C 81.99 70.14 79.56 71.82 77.06 73.08 C 77.03 70.56 77.02 68.03 77.05 65.51 Z" />
</g>
<g id="#dcb7b5ff">
<path fill="#dcb7b5" opacity="1.00" d=" M 23.20 38.91 C 24.03 39.09 25.68 39.45 26.51 39.63 C 27.52 40.05 28.52 40.48 29.53 40.91 C 30.04 40.95 31.08 41.01 31.60 41.05 C 33.95 42.59 36.06 44.45 38.03 46.45 C 38.00 46.93 37.94 47.89 37.91 48.38 C 37.24 49.92 36.73 51.56 35.73 52.94 C 32.93 53.54 30.56 51.67 28.22 50.48 C 30.60 49.33 33.22 48.93 35.84 48.79 C 32.41 44.62 26.93 42.84 23.20 38.91 Z" />
<path fill="#dcb7b5" opacity="1.00" d=" M 82.05 45.21 C 88.22 43.80 93.92 40.86 100.16 39.69 C 99.87 40.25 99.30 41.37 99.02 41.93 L 98.72 42.52 L 98.50 42.62 C 95.76 43.68 93.26 45.30 91.34 47.54 L 91.07 47.81 L 90.68 47.45 C 90.01 48.03 88.68 49.19 88.01 49.77 C 89.24 49.68 91.68 49.49 92.90 49.40 L 92.26 50.62 C 93.74 50.57 95.22 50.53 96.70 50.49 C 97.17 51.13 97.64 51.77 98.11 52.42 C 96.70 52.88 95.31 53.38 93.86 53.69 C 90.84 54.33 87.97 55.46 85.18 56.73 C 86.61 58.31 88.04 59.89 89.42 61.52 C 85.26 59.04 81.41 56.05 77.14 53.73 C 75.21 52.76 74.69 50.48 73.71 48.74 C 75.55 47.89 77.39 47.04 79.17 46.06 L 79.79 45.72 C 80.35 45.59 81.49 45.34 82.05 45.21 Z" />
<path fill="#dcb7b5" opacity="1.00" d=" M 56.30 49.29 C 56.78 49.81 56.78 49.81 56.30 49.29 Z" />
<path fill="#dcb7b5" opacity="1.00" d=" M 35.44 53.93 C 35.81 53.82 36.56 53.60 36.93 53.49 C 36.10 60.19 36.33 67.74 40.70 73.27 C 44.77 78.43 51.72 80.11 58.00 80.21 C 66.05 79.75 73.58 73.86 75.37 65.88 L 75.95 66.39 C 76.48 72.54 74.87 78.53 73.76 84.52 C 73.71 84.80 73.61 85.36 73.55 85.63 L 72.77 86.09 C 71.34 86.71 70.78 88.36 70.81 89.82 L 70.74 90.82 L 70.59 90.84 C 69.26 91.01 67.92 91.19 66.58 91.36 C 64.40 90.64 62.15 90.13 59.89 89.71 C 59.11 87.90 58.36 86.07 57.63 84.23 C 54.61 84.42 51.58 84.43 48.55 84.47 C 50.44 84.63 52.33 84.78 54.21 84.93 C 53.64 86.98 53.07 89.03 52.51 91.09 C 49.64 90.77 46.71 90.72 43.92 89.93 C 42.29 88.94 41.47 87.05 40.31 85.59 C 39.70 81.88 38.37 78.36 37.14 74.82 C 35.64 70.84 36.20 66.52 35.74 62.38 C 35.49 59.57 35.30 56.74 35.44 53.93 Z" />
<path fill="#dcb7b5" opacity="1.00" d=" M 47.43 54.51 C 48.43 53.74 49.46 53.63 50.52 54.18 C 51.07 56.00 45.80 56.54 47.43 54.51 Z" />
<path fill="#dcb7b5" opacity="1.00" d=" M 52.33 55.06 C 55.33 53.55 52.44 58.39 52.33 55.06 Z" />
</g>
</svg>
