<?xml version="1.0" encoding="UTF-8" ?>
<!DOCTYPE svg PUBLIC "-//W3C//DTD SVG 1.1//EN" "http://www.w3.org/Graphics/SVG/1.1/DTD/svg11.dtd">
<svg width="120pt" height="120pt" viewBox="0 0 120 120" version="1.1" xmlns="http://www.w3.org/2000/svg">
<g id="#3a3a38ff">
<path fill="#3a3a38" opacity="1.00" d=" M 54.96 35.03 C 58.49 35.09 62.02 35.11 65.56 35.06 C 67.44 36.17 69.14 37.56 70.56 39.22 C 75.65 37.90 80.62 35.59 86.00 36.02 C 85.96 37.19 85.93 38.36 85.89 39.53 C 85.27 40.51 84.65 41.48 84.03 42.46 C 83.98 42.97 83.87 43.99 83.81 44.50 C 82.56 46.78 81.42 49.12 80.14 51.39 C 80.60 52.41 81.00 53.44 81.40 54.49 C 81.85 55.84 82.00 57.27 82.14 58.68 C 82.58 59.12 83.47 59.99 83.92 60.42 C 83.99 60.92 84.14 61.92 84.21 62.42 C 85.65 66.36 85.44 71.06 83.83 74.95 L 82.96 75.14 C 84.59 71.30 84.37 67.05 83.76 63.02 L 82.92 65.72 C 82.37 64.69 81.85 63.64 81.34 62.60 C 80.77 63.86 80.20 65.13 79.57 66.37 C 77.79 65.89 75.91 65.63 74.28 64.71 C 72.28 63.51 71.79 61.08 70.90 59.11 C 72.37 61.05 74.01 62.84 75.76 64.53 C 76.12 63.58 76.83 61.68 77.19 60.73 C 77.97 62.10 78.77 63.47 79.58 64.83 C 80.48 63.16 80.40 61.32 80.17 59.51 C 78.75 57.95 77.42 56.32 76.14 54.64 C 77.96 55.94 79.73 57.30 81.52 58.65 C 80.62 56.15 79.71 53.66 78.79 51.16 C 77.35 51.14 75.91 51.10 74.47 51.07 C 76.30 48.43 81.28 46.54 79.27 42.71 C 79.62 43.05 80.33 43.71 80.68 44.05 C 82.17 41.68 83.69 39.33 85.13 36.93 C 82.37 37.01 79.69 37.68 77.17 38.79 C 77.06 38.62 76.84 38.28 76.73 38.11 C 75.70 38.59 74.67 39.07 73.64 39.55 C 69.85 41.52 67.67 37.33 64.51 36.20 C 61.49 35.81 58.43 36.09 55.40 35.99 L 54.96 35.03 M 82.17 61.17 C 82.76 61.75 82.76 61.75 82.17 61.17 Z" />
<path fill="#3a3a38" opacity="1.00" d=" M 53.07 41.20 C 55.01 38.89 57.97 38.92 60.74 38.96 C 63.10 41.16 64.44 45.24 61.86 47.79 C 59.91 50.43 56.55 50.85 53.53 51.17 C 49.51 49.20 47.55 43.91 50.19 40.07 L 51.29 39.80 C 48.69 42.78 49.79 48.34 53.80 49.38 C 57.93 51.16 62.84 47.50 62.44 43.01 C 61.47 41.92 60.52 40.82 59.58 39.71 C 58.16 39.85 56.73 39.93 55.34 40.25 C 53.67 41.38 53.86 43.63 53.27 45.33 C 53.21 43.95 53.14 42.57 53.07 41.20 Z" />
<path fill="#3a3a38" opacity="1.00" d=" M 61.13 52.65 C 62.43 52.90 62.65 53.63 61.81 54.85 C 60.47 54.61 60.25 53.87 61.13 52.65 Z" />
<path fill="#3a3a38" opacity="1.00" d=" M 54.16 56.42 C 55.86 55.62 57.92 55.27 59.68 56.07 C 58.40 57.22 56.39 57.09 54.77 57.27 C 54.62 57.05 54.31 56.63 54.16 56.42 Z" />
</g>
<g id="#fddaddff">
<path fill="#fddadd" opacity="1.00" d=" M 55.40 35.99 C 58.43 36.09 61.49 35.81 64.51 36.20 C 67.67 37.33 69.85 41.52 73.64 39.55 C 74.67 39.07 75.70 38.59 76.73 38.11 C 76.84 38.28 77.06 38.62 77.17 38.79 C 77.38 39.11 77.80 39.75 78.01 40.07 C 78.01 40.53 78.01 41.44 78.01 41.90 L 78.82 42.26 L 79.27 42.71 C 81.28 46.54 76.30 48.43 74.47 51.07 C 75.91 51.10 77.35 51.14 78.79 51.16 C 79.71 53.66 80.62 56.15 81.52 58.65 C 79.73 57.30 77.96 55.94 76.14 54.64 C 77.42 56.32 78.75 57.95 80.17 59.51 C 80.40 61.32 80.48 63.16 79.58 64.83 C 78.77 63.47 77.97 62.10 77.19 60.73 C 76.83 61.68 76.12 63.58 75.76 64.53 C 74.01 62.84 72.37 61.05 70.90 59.11 C 68.33 60.25 65.76 61.86 62.84 61.75 C 59.64 61.57 56.75 59.71 54.77 57.27 C 56.39 57.09 58.40 57.22 59.68 56.07 C 57.92 55.27 55.86 55.62 54.16 56.42 C 53.98 56.05 53.62 55.33 53.44 54.96 C 54.28 54.21 54.86 52.01 53.15 51.98 L 53.53 51.17 C 56.55 50.85 59.91 50.43 61.86 47.79 C 64.44 45.24 63.10 41.16 60.74 38.96 C 57.97 38.92 55.01 38.89 53.07 41.20 C 53.14 42.57 53.21 43.95 53.27 45.33 C 53.86 43.63 53.67 41.38 55.34 40.25 C 56.73 39.93 58.16 39.85 59.58 39.71 C 60.52 40.82 61.47 41.92 62.44 43.01 C 62.84 47.50 57.93 51.16 53.80 49.38 C 49.79 48.34 48.69 42.78 51.29 39.80 C 51.56 39.47 52.11 38.80 52.38 38.46 C 52.93 38.01 54.03 37.12 54.58 36.67 C 54.78 36.50 55.19 36.16 55.40 35.99 M 61.13 52.65 C 60.25 53.87 60.47 54.61 61.81 54.85 C 62.65 53.63 62.43 52.90 61.13 52.65 M 63.19 52.26 C 62.36 53.52 62.58 54.28 63.86 54.54 C 64.71 53.28 64.49 52.52 63.19 52.26 M 62.29 56.33 C 62.80 56.84 62.80 56.84 62.29 56.33 M 64.12 56.41 C 62.87 57.92 65.68 58.81 66.44 57.53 C 67.67 56.03 64.88 55.19 64.12 56.41 M 75.40 60.96 C 76.80 61.31 77.32 60.79 76.94 59.40 C 75.55 59.07 75.03 59.59 75.40 60.96 Z" />
</g>
<g id="#101c23e9">
<path fill="#101c23" opacity="0.91" d=" M 50.45 38.94 C 51.58 37.77 52.87 36.78 54.58 36.67 C 54.03 37.12 52.93 38.01 52.38 38.46 C 52.11 38.80 51.56 39.47 51.29 39.80 L 50.19 40.07 C 48.91 40.08 47.63 40.08 46.36 40.07 C 44.10 40.04 41.84 40.02 39.59 40.03 C 40.37 42.01 41.38 43.90 42.67 45.60 C 43.13 47.27 44.02 48.76 45.01 50.17 C 45.02 51.65 45.09 53.14 44.92 54.61 C 43.91 55.46 42.77 56.14 41.65 56.85 C 40.23 57.38 38.82 57.92 37.41 58.47 C 39.06 56.41 41.68 55.66 44.01 54.67 C 43.99 53.30 43.97 51.94 43.93 50.58 C 42.90 49.36 42.00 48.04 41.16 46.68 C 40.96 46.15 40.56 45.08 40.36 44.55 C 39.99 44.04 39.27 43.03 38.90 42.52 C 38.93 41.19 39.06 39.80 40.36 39.08 C 43.72 38.83 47.09 39.08 50.45 38.94 Z" />
</g>
<g id="#9e805cff">
<path fill="#9e805c" opacity="1.00" d=" M 77.17 38.79 C 79.69 37.68 82.37 37.01 85.13 36.93 C 83.69 39.33 82.17 41.68 80.68 44.05 C 80.33 43.71 79.62 43.05 79.27 42.71 L 78.82 42.26 C 78.62 41.71 78.21 40.61 78.01 40.07 C 77.80 39.75 77.38 39.11 77.17 38.79 Z" />
</g>
<g id="#957856ff">
<path fill="#957856" opacity="1.00" d=" M 39.59 40.03 C 41.84 40.02 44.10 40.04 46.36 40.07 C 45.95 40.68 45.14 41.89 44.73 42.50 L 44.47 42.79 L 44.25 43.22 L 43.75 44.03 C 43.63 44.22 43.39 44.59 43.26 44.77 L 42.67 45.60 C 41.38 43.90 40.37 42.01 39.59 40.03 Z" />
</g>
<g id="#f4d2d5ff">
<path fill="#f4d2d5" opacity="1.00" d=" M 46.36 40.07 C 47.63 40.08 48.91 40.08 50.19 40.07 C 47.55 43.91 49.51 49.20 53.53 51.17 L 53.15 51.98 C 53.22 52.73 53.37 54.22 53.44 54.96 C 53.62 55.33 53.98 56.05 54.16 56.42 C 54.31 56.63 54.62 57.05 54.77 57.27 C 56.75 59.71 59.64 61.57 62.84 61.75 C 65.76 61.86 68.33 60.25 70.90 59.11 C 71.79 61.08 72.28 63.51 74.28 64.71 C 75.91 65.63 77.79 65.89 79.57 66.37 C 74.98 71.96 66.91 73.16 60.07 72.45 C 53.89 72.22 48.37 68.29 45.64 62.83 C 43.65 63.53 41.67 64.28 39.67 64.96 C 38.95 65.06 37.50 65.26 36.78 65.36 C 36.06 65.28 34.63 65.14 33.91 65.06 C 35.85 63.51 36.67 61.20 37.24 58.87 C 37.29 58.77 37.37 58.57 37.41 58.47 C 38.82 57.92 40.23 57.38 41.65 56.85 C 42.77 56.14 43.91 55.46 44.92 54.61 C 45.09 53.14 45.02 51.65 45.01 50.17 C 44.02 48.76 43.13 47.27 42.67 45.60 L 43.26 44.77 C 43.39 44.59 43.63 44.22 43.75 44.03 L 44.25 43.22 L 44.54 42.86 L 44.73 42.50 C 45.14 41.89 45.95 40.68 46.36 40.07 M 51.24 54.14 C 51.81 54.68 51.81 54.68 51.24 54.14 M 49.44 56.48 C 47.79 58.15 51.32 58.70 51.98 57.34 C 52.58 55.86 50.16 55.54 49.44 56.48 Z" />
</g>
<g id="#614f47ff">
<path fill="#614f47" opacity="1.00" d=" M 78.01 40.07 C 78.21 40.61 78.62 41.71 78.82 42.26 L 78.01 41.90 C 78.01 41.44 78.01 40.53 78.01 40.07 Z" />
</g>
<g id="#4c4043ff">
<path fill="#4c4043" opacity="1.00" d=" M 44.47 42.79 L 44.73 42.50 L 44.54 42.86 L 44.25 43.22 L 44.47 42.79 Z" />
</g>
<g id="#4d4244ff">
<path fill="#4d4244" opacity="1.00" d=" M 43.26 44.77 C 43.39 44.59 43.63 44.22 43.75 44.03 C 43.63 44.22 43.39 44.59 43.26 44.77 Z" />
</g>
<g id="#353f4bff">
<path fill="#353f4b" opacity="1.00" d=" M 53.15 51.98 C 54.86 52.01 54.28 54.21 53.44 54.96 C 53.37 54.22 53.22 52.73 53.15 51.98 Z" />
</g>
<g id="#887275ff">
<path fill="#887275" opacity="1.00" d=" M 63.19 52.26 C 64.49 52.52 64.71 53.28 63.86 54.54 C 62.58 54.28 62.36 53.52 63.19 52.26 Z" />
</g>
<g id="#5f5253ff">
<path fill="#5f5253" opacity="1.00" d=" M 51.24 54.14 C 51.81 54.68 51.81 54.68 51.24 54.14 Z" />
</g>
<g id="#b49197ff">
<path fill="#b49197" opacity="1.00" d=" M 49.44 56.48 C 50.16 55.54 52.58 55.86 51.98 57.34 C 51.32 58.70 47.79 58.15 49.44 56.48 Z" />
</g>
<g id="#bb979cff">
<path fill="#bb979c" opacity="1.00" d=" M 62.29 56.33 C 62.80 56.84 62.80 56.84 62.29 56.33 Z" />
</g>
<g id="#b78f9bff">
<path fill="#b78f9b" opacity="1.00" d=" M 64.12 56.41 C 64.88 55.19 67.67 56.03 66.44 57.53 C 65.68 58.81 62.87 57.92 64.12 56.41 Z" />
</g>
<g id="#3f3f45ff">
<path fill="#3f3f45" opacity="1.00" d=" M 33.04 62.37 C 34.39 61.14 35.74 59.92 37.24 58.87 C 36.67 61.20 35.85 63.51 33.91 65.06 C 34.63 65.14 36.06 65.28 36.78 65.36 C 36.96 65.81 37.32 66.70 37.50 67.15 C 36.10 66.49 34.63 66.00 33.10 65.72 C 33.09 64.60 33.07 63.49 33.04 62.37 Z" />
</g>
<g id="#7c6b6cff">
<path fill="#7c6b6c" opacity="1.00" d=" M 75.40 60.96 C 75.03 59.59 75.55 59.07 76.94 59.40 C 77.32 60.79 76.80 61.31 75.40 60.96 Z" />
</g>
<g id="#f1d0d3ff">
<path fill="#f1d0d3" opacity="1.00" d=" M 82.17 61.17 C 82.76 61.75 82.76 61.75 82.17 61.17 Z" />
</g>
<g id="#d9b4bfff">
<path fill="#d9b4bf" opacity="1.00" d=" M 39.67 64.96 C 41.67 64.28 43.65 63.53 45.64 62.83 C 48.37 68.29 53.89 72.22 60.07 72.45 C 66.91 73.16 74.98 71.96 79.57 66.37 C 80.20 65.13 80.77 63.86 81.34 62.60 C 81.85 63.64 82.37 64.69 82.92 65.72 L 83.76 63.02 C 84.37 67.05 84.59 71.30 82.96 75.14 C 82.61 75.47 81.91 76.12 81.56 76.44 C 81.23 76.32 80.57 76.06 80.24 75.93 C 81.50 72.73 82.21 69.36 82.49 65.94 C 82.06 65.93 81.19 65.91 80.76 65.90 C 81.59 69.78 79.96 73.40 78.86 77.01 C 78.75 77.48 78.54 78.41 78.44 78.88 L 77.86 79.11 C 77.62 79.56 77.14 80.45 76.90 80.90 C 76.56 81.73 75.99 82.36 75.18 82.80 C 74.71 83.08 73.77 83.64 73.30 83.93 C 71.34 83.26 69.28 82.87 67.20 83.07 C 66.35 81.83 65.51 80.58 64.71 79.31 C 63.19 79.70 61.65 80.03 60.10 80.33 C 59.39 81.20 58.69 82.07 57.99 82.94 C 57.69 83.32 57.08 84.07 56.78 84.44 C 55.47 82.86 53.71 82.00 51.67 81.84 C 52.50 82.53 54.16 83.92 55.00 84.61 C 53.42 84.10 51.86 83.54 50.31 82.97 C 46.50 77.90 45.83 71.53 44.03 65.65 L 43.60 65.01 C 42.29 64.95 40.98 64.93 39.67 64.96 Z" />
</g>
<g id="#6e5b60ff">
<path fill="#6e5b60" opacity="1.00" d=" M 36.78 65.36 C 37.50 65.26 38.95 65.06 39.67 64.96 C 40.98 64.93 42.29 64.95 43.60 65.01 L 44.03 65.65 L 43.04 65.78 C 41.87 65.90 40.69 66.01 39.52 66.10 C 39.01 66.36 38.01 66.89 37.50 67.15 C 37.32 66.70 36.96 65.81 36.78 65.36 Z" />
</g>
<g id="#2e3238ff">
<path fill="#2e3238" opacity="1.00" d=" M 43.04 65.78 L 44.03 65.65 C 45.83 71.53 46.50 77.90 50.31 82.97 C 51.86 83.54 53.42 84.10 55.00 84.61 C 54.16 83.92 52.50 82.53 51.67 81.84 C 53.71 82.00 55.47 82.86 56.78 84.44 L 57.30 84.93 C 54.99 85.01 52.67 85.16 50.37 84.88 C 48.77 82.94 47.49 80.75 46.27 78.56 C 45.95 77.51 45.64 76.46 45.35 75.40 C 45.07 74.07 44.77 72.74 44.37 71.43 C 43.85 69.56 43.40 67.68 43.04 65.78 Z" />
</g>
<g id="#68565bff">
<path fill="#68565b" opacity="1.00" d=" M 80.76 65.90 C 81.19 65.91 82.06 65.93 82.49 65.94 C 82.21 69.36 81.50 72.73 80.24 75.93 C 80.57 76.06 81.23 76.32 81.56 76.44 L 82.42 76.79 C 81.53 76.85 79.75 76.96 78.86 77.01 C 79.96 73.40 81.59 69.78 80.76 65.90 Z" />
</g>
<g id="#474045ff">
<path fill="#474045" opacity="1.00" d=" M 60.10 80.33 C 61.65 80.03 63.19 79.70 64.71 79.31 C 65.51 80.58 66.35 81.83 67.20 83.07 C 67.10 83.51 66.90 84.40 66.80 84.85 L 66.71 85.34 C 66.01 83.70 64.93 82.29 63.77 80.96 C 62.52 80.97 61.27 80.98 60.02 80.98 C 60.01 81.49 60.00 82.51 59.99 83.02 C 59.49 83.00 58.49 82.96 57.99 82.94 C 58.69 82.07 59.39 81.20 60.10 80.33 Z" />
</g>
<g id="#57484cff">
<path fill="#57484c" opacity="1.00" d=" M 76.90 80.90 C 77.14 80.45 77.62 79.56 77.86 79.11 C 77.83 79.54 77.79 80.41 77.77 80.84 L 76.90 80.90 Z" />
</g>
<g id="#665a5eff">
<path fill="#665a5e" opacity="1.00" d=" M 67.20 83.07 C 69.28 82.87 71.34 83.26 73.30 83.93 C 73.77 83.64 74.71 83.08 75.18 82.80 C 74.82 83.35 74.09 84.46 73.73 85.02 C 71.42 85.00 69.11 84.97 66.80 84.85 C 66.90 84.40 67.10 83.51 67.20 83.07 Z" />
</g>
</svg>
