<?xml version="1.0" encoding="UTF-8" ?>
<!DOCTYPE svg PUBLIC "-//W3C//DTD SVG 1.1//EN" "http://www.w3.org/Graphics/SVG/1.1/DTD/svg11.dtd">
<svg width="120pt" height="120pt" viewBox="0 0 120 120" version="1.1" xmlns="http://www.w3.org/2000/svg">
<g id="#e4e3dfff">
<path fill="#e4e3df" opacity="1.00" d=" M 74.71 32.74 C 75.37 34.59 76.29 36.84 74.74 38.52 C 73.94 39.99 73.46 41.57 73.24 43.23 C 74.66 43.55 75.54 44.43 75.86 45.87 C 76.30 45.72 77.18 45.40 77.62 45.24 L 77.33 46.52 C 80.08 45.55 81.91 49.04 79.55 50.63 C 79.57 50.74 79.61 50.96 79.64 51.07 C 77.93 52.39 76.96 54.20 76.71 56.32 C 74.89 57.01 73.24 58.00 72.39 59.83 C 71.03 59.95 69.66 60.00 68.32 60.22 C 66.85 61.33 67.15 63.43 66.60 64.99 C 64.09 63.81 62.12 61.88 60.48 59.69 C 59.64 60.65 58.81 61.61 57.97 62.56 C 58.05 63.24 58.23 64.60 58.31 65.28 C 56.13 65.08 53.97 64.73 51.82 64.32 C 50.52 61.40 51.74 58.54 52.64 55.72 C 52.72 50.79 50.55 45.93 51.57 40.98 C 54.89 40.17 58.15 39.14 61.47 38.36 C 63.83 37.75 66.15 38.87 68.48 39.06 L 69.41 37.99 C 70.86 36.46 72.10 34.14 74.58 34.47 L 74.71 32.74 M 66.38 46.04 C 65.62 46.84 64.86 47.63 64.09 48.42 C 64.05 48.96 63.97 50.02 63.92 50.56 C 63.31 51.53 62.70 52.51 62.09 53.50 C 62.42 54.11 63.07 55.34 63.39 55.95 C 66.48 56.78 69.69 56.85 72.87 56.70 C 72.50 56.26 71.76 55.39 71.39 54.96 C 74.23 52.26 71.24 47.99 69.20 45.67 C 68.50 45.76 67.09 45.95 66.38 46.04 M 74.52 51.22 C 74.76 52.56 75.48 52.77 76.67 51.85 C 76.42 50.51 75.71 50.30 74.52 51.22 Z" />
<path fill="#e4e3df" opacity="1.00" d=" M 42.42 52.68 C 43.54 53.11 45.33 52.96 45.58 54.51 C 46.81 58.23 45.59 62.36 47.15 66.05 C 46.76 65.77 46.00 65.19 45.62 64.90 C 44.64 62.15 42.62 60.22 39.76 59.51 C 40.55 57.19 41.50 54.94 42.42 52.68 Z" />
</g>
<g id="#273238f2">
<path fill="#273238" opacity="0.95" d=" M 46.89 39.37 C 46.69 37.22 48.29 35.68 50.42 35.87 C 50.95 36.25 52.02 37.01 52.55 37.39 C 54.25 38.06 56.00 39.67 57.78 38.28 C 60.25 37.62 62.76 36.94 65.35 37.03 C 66.58 37.81 67.94 38.13 69.41 37.99 L 68.48 39.06 C 66.15 38.87 63.83 37.75 61.47 38.36 C 58.15 39.14 54.89 40.17 51.57 40.98 C 50.55 45.93 52.72 50.79 52.64 55.72 C 51.74 58.54 50.52 61.40 51.82 64.32 L 51.97 64.95 L 53.30 64.93 L 52.07 65.42 C 51.56 65.63 50.53 66.04 50.01 66.25 L 49.43 66.49 C 49.79 66.01 50.53 65.05 50.89 64.57 C 49.51 62.78 49.66 60.19 50.90 58.37 C 50.98 56.46 50.99 54.54 50.91 52.63 C 49.50 51.29 50.44 49.56 50.64 47.99 C 50.45 46.43 50.09 44.89 49.85 43.34 C 48.99 41.92 48.01 40.59 46.89 39.37 M 47.69 36.79 C 48.42 38.82 49.59 40.66 50.68 42.52 C 50.87 42.00 51.25 40.97 51.44 40.46 C 52.11 40.25 53.45 39.84 54.11 39.64 C 52.13 38.37 50.02 37.23 47.69 36.79 Z" />
</g>
<g id="#e2e1deff">
<path fill="#e2e1de" opacity="1.00" d=" M 47.69 36.79 C 50.02 37.23 52.13 38.37 54.11 39.64 C 53.45 39.84 52.11 40.25 51.44 40.46 C 51.25 40.97 50.87 42.00 50.68 42.52 C 49.59 40.66 48.42 38.82 47.69 36.79 Z" />
</g>
<g id="#574e44ff">
<path fill="#574e44" opacity="1.00" d=" M 66.38 46.04 C 67.09 45.95 68.50 45.76 69.20 45.67 C 71.24 47.99 74.23 52.26 71.39 54.96 C 71.76 55.39 72.50 56.26 72.87 56.70 C 69.69 56.85 66.48 56.78 63.39 55.95 C 63.07 55.34 62.42 54.11 62.09 53.50 C 62.70 52.51 63.31 51.53 63.92 50.56 C 63.97 50.02 64.05 48.96 64.09 48.42 C 64.86 47.63 65.62 46.84 66.38 46.04 M 66.81 47.02 C 64.13 48.74 64.51 52.68 63.96 55.48 C 65.93 53.16 66.57 50.04 68.78 47.89 C 68.28 47.68 67.30 47.24 66.81 47.02 M 68.76 50.08 C 67.86 50.57 67.66 51.44 68.13 52.69 C 68.48 53.16 69.17 54.11 69.52 54.59 C 69.67 54.20 69.98 53.41 70.14 53.02 C 71.79 52.73 70.84 49.60 69.47 49.29 C 69.29 49.48 68.93 49.88 68.76 50.08 Z" />
</g>
<g id="#c19b5fff">
<path fill="#c19b5f" opacity="1.00" d=" M 66.81 47.02 C 67.30 47.24 68.28 47.68 68.78 47.89 C 66.57 50.04 65.93 53.16 63.96 55.48 C 64.51 52.68 64.13 48.74 66.81 47.02 Z" />
</g>
<g id="#c4a571ff">
<path fill="#c4a571" opacity="1.00" d=" M 68.76 50.08 C 68.93 49.88 69.29 49.48 69.47 49.29 C 70.84 49.60 71.79 52.73 70.14 53.02 C 69.61 52.07 69.15 51.09 68.76 50.08 Z" />
</g>
<g id="#e8e2d7ff">
<path fill="#e8e2d7" opacity="1.00" d=" M 68.13 52.69 C 67.66 51.44 67.86 50.57 68.76 50.08 C 69.15 51.09 69.61 52.07 70.14 53.02 C 69.98 53.41 69.67 54.20 69.52 54.59 C 69.17 54.11 68.48 53.16 68.13 52.69 Z" />
</g>
<g id="#b1b1b0ff">
<path fill="#b1b1b0" opacity="1.00" d=" M 74.52 51.22 C 75.71 50.30 76.42 50.51 76.67 51.85 C 75.48 52.77 74.76 52.56 74.52 51.22 Z" />
</g>
<g id="#262e33ef">
<path fill="#262e33" opacity="0.94" d=" M 40.09 55.30 C 41.18 52.97 42.86 51.31 45.64 51.91 C 45.97 52.57 46.62 53.89 46.94 54.55 C 47.03 57.00 46.88 59.46 47.16 61.90 C 47.40 63.35 48.74 64.65 48.48 66.12 L 47.90 66.12 L 47.15 66.05 C 45.59 62.36 46.81 58.23 45.58 54.51 C 45.33 52.96 43.54 53.11 42.42 52.68 C 41.50 54.94 40.55 57.19 39.76 59.51 C 42.62 60.22 44.64 62.15 45.62 64.90 C 46.00 65.19 46.76 65.77 47.15 66.05 C 47.12 66.44 47.07 67.21 47.04 67.60 C 46.80 68.07 46.31 69.03 46.07 69.51 L 44.80 70.49 C 45.11 69.46 45.44 68.44 45.79 67.42 C 44.40 65.90 43.45 64.09 42.68 62.20 C 41.40 61.70 40.12 61.20 38.84 60.72 C 39.02 58.86 39.40 57.04 40.09 55.30 Z" />
</g>
<g id="#4d473cfc">
<path fill="#4d473c" opacity="1.00" d=" M 76.71 56.32 C 76.96 54.20 77.93 52.39 79.64 51.07 C 78.45 52.72 78.03 54.65 77.71 56.60 C 77.31 58.35 75.12 57.87 73.85 58.22 C 73.61 60.55 74.24 62.65 76.62 63.47 C 78.76 65.70 79.37 68.57 79.06 71.58 C 78.55 72.02 77.52 72.90 77.00 73.35 C 76.99 76.54 76.97 79.73 76.99 82.93 C 76.47 82.96 75.43 83.01 74.91 83.04 C 74.93 83.78 74.98 85.24 75.00 85.98 C 72.46 85.86 69.66 86.57 67.38 85.10 C 62.49 84.90 57.60 85.00 52.72 85.01 C 53.15 84.51 54.02 83.51 54.46 83.01 C 53.88 83.00 52.71 82.96 52.13 82.94 L 52.03 82.43 L 51.79 81.09 C 53.00 81.37 54.20 81.67 55.40 81.99 C 59.04 83.18 62.84 84.54 66.70 83.49 L 67.46 83.43 C 69.43 84.10 71.41 84.78 73.44 85.26 C 73.98 84.13 74.53 83.00 75.08 81.88 L 75.45 81.48 C 75.59 80.18 75.71 78.88 75.81 77.58 C 75.93 76.29 75.97 74.99 76.01 73.70 C 74.82 72.01 73.67 70.29 72.52 68.57 C 71.30 67.76 70.06 66.96 68.87 66.09 C 70.17 66.23 71.47 66.37 72.78 66.50 C 73.00 66.22 73.45 65.66 73.68 65.38 C 74.57 67.02 75.72 68.63 75.70 70.58 C 76.56 70.80 77.43 71.01 78.29 71.23 C 78.45 67.17 75.59 64.29 72.76 61.83 C 71.34 61.46 69.91 61.09 68.48 60.76 C 67.94 62.35 68.14 64.41 66.76 65.60 C 65.32 65.76 63.86 65.72 62.41 65.75 L 62.01 65.75 C 60.82 66.79 59.69 67.90 58.56 69.01 C 56.72 68.99 54.87 68.95 53.03 68.91 C 52.94 69.35 52.75 70.22 52.66 70.66 C 52.28 72.27 51.93 73.88 51.63 75.50 L 50.95 74.53 C 49.85 73.03 48.45 71.78 46.81 70.90 L 45.71 70.23 L 46.07 69.51 C 46.31 69.03 46.80 68.07 47.04 67.60 L 47.71 67.55 C 47.75 67.19 47.85 66.48 47.90 66.12 L 48.48 66.12 L 49.06 66.64 C 49.32 67.05 49.84 67.88 50.09 68.29 L 48.80 68.95 C 49.48 69.71 50.16 70.47 50.84 71.23 C 51.49 69.59 52.13 67.94 52.71 66.27 C 53.12 66.73 53.96 67.65 54.37 68.11 C 57.88 68.76 60.44 66.26 63.00 64.33 C 62.76 63.98 62.27 63.28 62.03 62.93 C 61.19 63.75 60.36 64.57 59.52 65.38 C 59.22 65.36 58.61 65.30 58.31 65.28 C 58.23 64.60 58.05 63.24 57.97 62.56 C 58.81 61.61 59.64 60.65 60.48 59.69 C 62.12 61.88 64.09 63.81 66.60 64.99 C 67.15 63.43 66.85 61.33 68.32 60.22 C 69.66 60.00 71.03 59.95 72.39 59.83 C 73.24 58.00 74.89 57.01 76.71 56.32 Z" />
</g>
<g id="#dab372ff">
<path fill="#dab372" opacity="1.00" d=" M 68.48 60.76 C 69.91 61.09 71.34 61.46 72.76 61.83 C 75.59 64.29 78.45 67.17 78.29 71.23 C 77.43 71.01 76.56 70.80 75.70 70.58 C 75.72 68.63 74.57 67.02 73.68 65.38 C 73.45 65.66 73.00 66.22 72.78 66.50 C 71.47 66.37 70.17 66.23 68.87 66.09 C 70.06 66.96 71.30 67.76 72.52 68.57 C 73.67 70.29 74.82 72.01 76.01 73.70 C 75.97 74.99 75.93 76.29 75.81 77.58 C 75.74 77.90 75.60 78.55 75.53 78.87 C 75.09 79.25 74.22 80.00 73.78 80.38 C 72.27 80.93 70.75 81.47 69.17 81.77 C 68.48 80.42 67.99 78.98 67.50 77.55 L 67.72 76.54 C 69.31 76.47 69.55 75.87 68.43 74.75 C 68.35 70.75 65.89 67.52 62.41 65.75 C 63.86 65.72 65.32 65.76 66.76 65.60 C 68.14 64.41 67.94 62.35 68.48 60.76 Z" />
</g>
<g id="#b2b3b6ff">
<path fill="#b2b3b6" opacity="1.00" d=" M 59.52 65.38 C 60.36 64.57 61.19 63.75 62.03 62.93 C 62.27 63.28 62.76 63.98 63.00 64.33 C 60.44 66.26 57.88 68.76 54.37 68.11 C 53.96 67.65 53.12 66.73 52.71 66.27 L 52.07 65.42 L 53.30 64.93 L 51.97 64.95 L 51.82 64.32 C 53.97 64.73 56.13 65.08 58.31 65.28 C 58.61 65.30 59.22 65.36 59.52 65.38 Z" />
</g>
<g id="#bfc1c3ff">
<path fill="#bfc1c3" opacity="1.00" d=" M 47.15 66.05 L 47.90 66.12 C 47.85 66.48 47.75 67.19 47.71 67.55 L 47.04 67.60 C 47.07 67.21 47.12 66.44 47.15 66.05 Z" />
</g>
<g id="#cca76aff">
<path fill="#cca76a" opacity="1.00" d=" M 50.01 66.25 C 50.53 66.04 51.56 65.63 52.07 65.42 L 52.71 66.27 C 52.13 67.94 51.49 69.59 50.84 71.23 C 50.16 70.47 49.48 69.71 48.80 68.95 L 50.09 68.29 C 49.84 67.88 49.32 67.05 49.06 66.64 C 49.30 66.54 49.77 66.35 50.01 66.25 Z" />
</g>
<g id="#f5e9d3ff">
<path fill="#f5e9d3" opacity="1.00" d=" M 62.01 65.75 L 62.41 65.75 C 65.89 67.52 68.35 70.75 68.43 74.75 C 68.25 75.19 67.90 76.09 67.72 76.54 L 67.50 77.55 L 67.29 78.55 C 65.01 78.36 62.73 78.19 60.45 78.03 C 57.08 76.81 51.58 75.42 52.66 70.66 C 52.75 70.22 52.94 69.35 53.03 68.91 C 54.87 68.95 56.72 68.99 58.56 69.01 C 59.69 67.90 60.82 66.79 62.01 65.75 Z" />
</g>
<g id="#172227ff">
<path fill="#172227" opacity="1.00" d=" M 46.81 70.90 C 48.45 71.78 49.85 73.03 50.95 74.53 C 51.13 76.73 51.38 78.92 51.79 81.09 L 52.03 82.43 C 51.37 81.48 50.71 80.53 50.04 79.58 C 50.01 78.19 50.00 76.79 49.97 75.39 C 48.94 73.88 47.88 72.38 46.81 70.90 Z" />
</g>
<g id="#bfb9a8ff">
<path fill="#bfb9a8" opacity="1.00" d=" M 51.63 75.50 C 51.93 73.88 52.28 72.27 52.66 70.66 C 51.58 75.42 57.08 76.81 60.45 78.03 C 62.73 78.19 65.01 78.36 67.29 78.55 C 66.96 80.18 66.80 81.84 66.70 83.49 C 62.84 84.54 59.04 83.18 55.40 81.99 C 54.99 81.49 54.15 80.49 53.74 79.99 L 53.22 80.08 C 52.68 78.55 52.16 77.03 51.63 75.50 Z" />
</g>
<g id="#886c41ff">
<path fill="#886c41" opacity="1.00" d=" M 50.95 74.53 L 51.63 75.50 C 52.16 77.03 52.68 78.55 53.22 80.08 L 53.74 79.99 C 54.15 80.49 54.99 81.49 55.40 81.99 C 54.20 81.67 53.00 81.37 51.79 81.09 C 51.38 78.92 51.13 76.73 50.95 74.53 Z" />
</g>
<g id="#977846ff">
<path fill="#977846" opacity="1.00" d=" M 68.43 74.75 C 69.55 75.87 69.31 76.47 67.72 76.54 C 67.90 76.09 68.25 75.19 68.43 74.75 Z" />
</g>
<g id="#b5945eff">
<path fill="#b5945e" opacity="1.00" d=" M 67.29 78.55 L 67.50 77.55 C 67.99 78.98 68.48 80.42 69.17 81.77 C 70.75 81.47 72.27 80.93 73.78 80.38 C 74.22 80.00 75.09 79.25 75.53 78.87 C 75.60 78.55 75.74 77.90 75.81 77.58 C 75.71 78.88 75.59 80.18 75.45 81.48 L 75.08 81.88 C 74.53 83.00 73.98 84.13 73.44 85.26 C 71.41 84.78 69.43 84.10 67.46 83.43 L 66.70 83.49 C 66.80 81.84 66.96 80.18 67.29 78.55 Z" />
</g>
</svg>
