<?xml version="1.0" encoding="UTF-8" ?>
<!DOCTYPE svg PUBLIC "-//W3C//DTD SVG 1.1//EN" "http://www.w3.org/Graphics/SVG/1.1/DTD/svg11.dtd">
<svg width="120pt" height="120pt" viewBox="0 0 120 120" version="1.1" xmlns="http://www.w3.org/2000/svg">
<g id="#12242cf1">
<path fill="#12242c" opacity="0.95" d=" M 84.48 26.48 C 86.47 25.94 88.53 25.96 90.57 25.99 C 91.53 26.66 92.50 27.32 93.47 27.99 C 94.79 27.97 96.11 27.95 97.43 27.91 C 98.05 27.60 99.29 26.98 99.91 26.67 C 99.96 27.31 100.04 28.58 100.08 29.22 L 99.29 28.50 L 99.00 28.24 C 95.74 29.83 92.16 28.94 89.35 26.94 C 87.78 27.06 86.22 27.22 84.69 27.58 C 80.18 30.28 74.59 28.65 69.60 28.89 L 68.46 28.15 C 73.14 27.84 77.84 28.07 82.52 27.97 C 83.01 27.60 83.99 26.85 84.48 26.48 Z" />
</g>
<g id="#ffffffff">
<path fill="#ffffff" opacity="1.00" d=" M 84.69 27.58 C 86.22 27.22 87.78 27.06 89.35 26.94 C 92.16 28.94 95.74 29.83 99.00 28.24 L 99.29 28.50 C 98.75 29.84 98.41 31.24 98.00 32.62 L 97.48 32.41 C 93.08 30.06 87.99 30.19 83.25 31.25 C 77.73 32.50 71.15 30.55 66.54 34.59 C 65.73 36.36 66.57 38.46 66.58 40.34 C 64.35 38.56 62.07 36.84 60.00 34.87 C 60.00 34.19 60.00 32.84 60.00 32.17 C 61.43 32.57 62.88 32.94 64.37 33.08 L 65.21 32.28 C 66.50 30.93 68.15 30.03 69.60 28.89 C 74.59 28.65 80.18 30.28 84.69 27.58 Z" />
</g>
<g id="#e9edf2ff">
<path fill="#e9edf2" opacity="1.00" d=" M 83.25 31.25 C 87.99 30.19 93.08 30.06 97.48 32.41 C 96.78 33.53 95.86 34.34 94.72 34.85 C 93.52 35.04 92.85 35.69 92.72 36.81 L 92.55 38.05 L 92.03 37.89 C 91.57 38.09 90.64 38.48 90.18 38.67 C 89.83 38.95 89.14 39.50 88.79 39.77 C 87.59 39.97 86.95 40.65 86.88 41.79 L 86.80 42.66 L 85.84 42.76 C 84.72 42.88 84.05 43.54 83.81 44.72 C 82.69 46.79 80.76 48.31 79.53 50.32 C 79.60 50.68 79.74 51.39 79.80 51.74 L 78.36 51.77 C 78.51 52.29 78.79 53.31 78.94 53.82 L 77.17 53.38 C 77.38 53.98 77.80 55.16 78.01 55.76 L 76.87 55.53 C 76.64 56.12 76.19 57.31 75.96 57.91 C 75.29 59.29 74.67 60.70 74.10 62.12 C 73.14 60.36 72.28 58.52 71.91 56.54 C 72.86 50.60 71.15 44.39 66.58 40.34 C 66.57 38.46 65.73 36.36 66.54 34.59 C 71.15 30.55 77.73 32.50 83.25 31.25 M 83.49 40.29 C 86.98 38.34 90.18 35.74 92.15 32.20 C 88.88 34.42 85.37 36.66 83.49 40.29 M 79.07 33.28 C 77.47 36.23 82.40 33.50 79.07 33.28 M 66.95 35.06 C 67.83 37.98 69.96 40.24 72.20 42.21 C 72.30 38.79 69.56 36.68 66.95 35.06 M 78.14 36.44 C 77.25 37.66 77.48 38.36 78.84 38.53 C 79.73 37.30 79.50 36.61 78.14 36.44 M 77.06 40.31 C 75.69 43.38 80.39 40.26 77.06 40.31 Z" />
<path fill="#e9edf2" opacity="1.00" d=" M 36.36 41.29 C 38.20 40.24 39.93 38.90 42.03 38.41 C 43.87 38.50 45.68 38.89 47.51 39.16 C 48.55 39.60 49.60 40.01 50.66 40.38 L 51.57 40.64 L 51.04 42.33 L 51.97 40.80 C 52.42 43.46 53.44 45.96 54.40 48.46 C 54.72 49.50 55.05 50.54 55.39 51.59 C 55.50 51.78 55.73 52.17 55.84 52.36 C 57.62 56.18 61.75 58.07 63.63 61.81 C 67.17 67.66 72.01 72.56 76.90 77.29 C 78.32 80.96 78.65 85.67 82.19 88.03 C 82.42 88.26 82.88 88.72 83.10 88.95 L 83.44 89.52 C 82.30 90.50 81.15 91.46 80.00 92.43 C 74.43 89.44 71.35 83.77 68.21 78.55 C 66.96 73.08 64.35 68.03 60.79 63.70 C 60.72 63.25 60.57 62.36 60.50 61.91 C 57.27 61.48 53.78 60.92 51.61 58.20 C 51.67 57.78 51.77 56.93 51.82 56.51 C 50.15 56.97 48.49 57.43 46.79 57.73 C 48.46 56.50 50.06 55.18 51.61 53.81 C 49.16 54.72 46.76 56.63 44.00 55.83 C 40.89 55.16 37.63 54.55 34.58 55.87 C 33.66 55.12 32.74 54.36 31.80 53.63 C 32.10 53.20 32.70 52.35 33.01 51.92 L 32.29 51.73 C 33.22 51.40 35.07 50.74 36.00 50.41 C 36.01 49.34 36.02 48.27 36.03 47.20 C 35.44 46.76 34.28 45.90 33.70 45.47 C 34.59 44.08 35.51 42.71 36.36 41.29 M 45.06 45.79 C 44.15 47.40 43.89 49.20 43.83 51.02 C 45.25 50.96 46.67 50.91 48.09 50.88 C 48.06 49.57 48.02 48.25 47.99 46.94 C 47.01 46.56 46.04 46.18 45.06 45.79 M 37.61 51.73 C 38.36 52.50 40.91 52.70 40.85 51.24 C 40.08 50.48 37.63 50.34 37.61 51.73 Z" />
</g>
<g id="#29353bf4">
<path fill="#29353b" opacity="0.96" d=" M 58.87 35.53 C 59.05 33.91 58.71 31.84 60.56 31.08 C 62.12 31.44 63.65 31.90 65.21 32.28 L 64.37 33.08 C 62.88 32.94 61.43 32.57 60.00 32.17 C 60.00 32.84 60.00 34.19 60.00 34.87 C 62.07 36.84 64.35 38.56 66.58 40.34 C 71.15 44.39 72.86 50.60 71.91 56.54 C 70.79 58.26 69.94 60.15 70.15 62.25 C 67.21 59.33 64.08 56.61 61.18 53.65 C 64.85 53.88 66.44 57.81 69.49 59.39 C 69.85 58.66 70.57 57.19 70.93 56.46 C 70.94 53.77 71.54 50.88 70.25 48.38 C 70.16 47.91 69.97 46.99 69.87 46.52 C 67.38 41.73 62.52 39.26 58.87 35.53 Z" />
</g>
<g id="#c1c3d0ff">
<path fill="#c1c3d0" opacity="1.00" d=" M 83.49 40.29 C 85.37 36.66 88.88 34.42 92.15 32.20 C 90.18 35.74 86.98 38.34 83.49 40.29 Z" />
<path fill="#c1c3d0" opacity="1.00" d=" M 36.59 63.02 C 43.71 66.68 51.34 69.44 57.94 74.05 C 60.39 75.78 63.53 75.68 66.34 76.32 C 66.50 76.59 66.81 77.15 66.97 77.42 C 66.82 77.70 66.50 78.24 66.35 78.51 L 65.71 79.63 C 65.14 79.70 64.01 79.85 63.45 79.92 C 60.15 80.19 56.81 81.57 53.51 80.53 C 50.72 79.82 47.86 79.13 45.35 77.65 C 42.35 75.55 40.31 72.44 38.09 69.59 C 37.60 67.40 37.12 65.20 36.59 63.02 Z" />
</g>
<g id="#afbbcaff">
<path fill="#afbbca" opacity="1.00" d=" M 79.07 33.28 C 82.40 33.50 77.47 36.23 79.07 33.28 Z" />
</g>
<g id="#202a2fe0">
<path fill="#202a2f" opacity="0.88" d=" M 40.73 37.60 C 40.68 35.62 41.84 34.19 43.66 33.58 C 44.18 35.04 44.72 36.49 45.24 37.95 C 46.33 38.00 47.41 38.05 48.50 38.10 C 49.15 38.40 50.44 39.01 51.09 39.32 L 50.66 40.38 C 49.60 40.01 48.55 39.60 47.51 39.16 C 45.68 38.89 43.87 38.50 42.03 38.41 C 39.93 38.90 38.20 40.24 36.36 41.29 C 35.51 42.71 34.59 44.08 33.70 45.47 C 34.28 45.90 35.44 46.76 36.03 47.20 C 36.02 48.27 36.01 49.34 36.00 50.41 C 35.07 50.74 33.22 51.40 32.29 51.73 C 33.06 49.36 33.03 46.86 33.11 44.40 C 34.44 42.65 35.64 40.75 37.50 39.51 C 38.58 38.88 39.65 38.23 40.73 37.60 M 42.21 35.32 C 41.42 36.25 42.23 38.65 43.64 37.99 C 44.20 37.10 43.46 34.90 42.21 35.32 Z" />
</g>
<g id="#e8ecf2ff">
<path fill="#e8ecf2" opacity="1.00" d=" M 42.21 35.32 C 43.46 34.90 44.20 37.10 43.64 37.99 C 42.23 38.65 41.42 36.25 42.21 35.32 Z" />
</g>
<g id="#c7cdd7ff">
<path fill="#c7cdd7" opacity="1.00" d=" M 66.95 35.06 C 69.56 36.68 72.30 38.79 72.20 42.21 C 69.96 40.24 67.83 37.98 66.95 35.06 Z" />
</g>
<g id="#808083ff">
<path fill="#808083" opacity="1.00" d=" M 92.72 36.81 C 92.85 35.69 93.52 35.04 94.72 34.85 C 94.99 36.42 94.33 37.07 92.72 36.81 Z" />
</g>
<g id="#acb7c6ff">
<path fill="#acb7c6" opacity="1.00" d=" M 78.14 36.44 C 79.50 36.61 79.73 37.30 78.84 38.53 C 77.48 38.36 77.25 37.66 78.14 36.44 Z" />
</g>
<g id="#626366ff">
<path fill="#626366" opacity="1.00" d=" M 90.18 38.67 C 90.64 38.48 91.57 38.09 92.03 37.89 L 91.87 38.75 C 91.44 38.73 90.60 38.69 90.18 38.67 Z" />
</g>
<g id="#abb6c4ff">
<path fill="#abb6c4" opacity="1.00" d=" M 77.06 40.31 C 80.39 40.26 75.69 43.38 77.06 40.31 Z" />
</g>
<g id="#8a8c8eff">
<path fill="#8a8c8e" opacity="1.00" d=" M 86.88 41.79 C 86.95 40.65 87.59 39.97 88.79 39.77 C 89.09 41.33 88.46 42.01 86.88 41.79 Z" />
</g>
<g id="#454c51ff">
<path fill="#454c51" opacity="1.00" d=" M 51.97 40.80 C 53.50 42.80 54.58 45.09 55.39 47.46 C 55.69 48.69 55.98 49.92 56.25 51.15 C 56.83 51.14 57.99 51.11 58.56 51.10 C 59.14 51.51 60.29 52.33 60.87 52.74 L 60.69 53.19 C 59.07 52.91 57.45 52.67 55.84 52.36 C 55.73 52.17 55.50 51.78 55.39 51.59 C 55.05 50.54 54.72 49.50 54.40 48.46 C 53.44 45.96 52.42 43.46 51.97 40.80 Z" />
</g>
<g id="#86898bff">
<path fill="#86898b" opacity="1.00" d=" M 83.81 44.72 C 84.05 43.54 84.72 42.88 85.84 42.76 C 86.07 44.37 85.39 45.02 83.81 44.72 Z" />
</g>
<g id="#4d4946ff">
<path fill="#4d4946" opacity="1.00" d=" M 45.06 45.79 C 46.04 46.18 47.01 46.56 47.99 46.94 C 48.02 48.25 48.06 49.57 48.09 50.88 C 46.67 50.91 45.25 50.96 43.83 51.02 C 43.89 49.20 44.15 47.40 45.06 45.79 M 45.97 47.23 C 46.58 47.83 46.58 47.83 45.97 47.23 Z" />
</g>
<g id="#f8f8f7ff">
<path fill="#f8f8f7" opacity="1.00" d=" M 45.97 47.23 C 46.58 47.83 46.58 47.83 45.97 47.23 Z" />
</g>
<g id="#565151ff">
<path fill="#565151" opacity="1.00" d=" M 37.61 51.73 C 37.63 50.34 40.08 50.48 40.85 51.24 C 40.91 52.70 38.36 52.50 37.61 51.73 Z" />
</g>
<g id="#575b5eff">
<path fill="#575b5e" opacity="1.00" d=" M 30.71 52.79 L 31.80 53.63 C 32.74 54.36 33.66 55.12 34.58 55.87 C 37.63 54.55 40.89 55.16 44.00 55.83 C 46.76 56.63 49.16 54.72 51.61 53.81 C 50.06 55.18 48.46 56.50 46.79 57.73 C 46.21 57.58 45.04 57.27 44.46 57.12 C 44.90 57.62 45.76 58.62 46.19 59.12 L 44.16 59.14 C 44.11 58.64 43.99 57.66 43.94 57.17 C 41.75 56.68 39.57 56.17 37.38 55.72 C 37.05 56.21 36.39 57.18 36.06 57.67 L 35.46 58.64 C 33.66 56.89 31.35 55.36 30.71 52.79 Z" />
</g>
<g id="#f9fdffff">
<path fill="#f9fdff" opacity="1.00" d=" M 55.84 52.36 C 57.45 52.67 59.07 52.91 60.69 53.19 L 61.18 53.65 C 64.08 56.61 67.21 59.33 70.15 62.25 C 69.94 60.15 70.79 58.26 71.91 56.54 C 72.28 58.52 73.14 60.36 74.10 62.12 C 74.00 64.60 74.04 67.07 74.02 69.55 C 73.62 69.97 72.81 70.81 72.41 71.24 C 69.99 67.66 67.34 64.14 63.63 61.81 C 61.75 58.07 57.62 56.18 55.84 52.36 Z" />
</g>
<g id="#e3e7edff">
<path fill="#e3e7ed" opacity="1.00" d=" M 37.38 55.72 C 39.57 56.17 41.75 56.68 43.94 57.17 C 43.99 57.66 44.11 58.64 44.16 59.14 C 41.59 59.14 39.02 58.88 36.46 58.58 C 37.86 61.12 39.34 64.79 42.90 64.36 C 46.98 64.68 50.09 61.69 51.61 58.20 C 53.78 60.92 57.27 61.48 60.50 61.91 C 60.57 62.36 60.72 63.25 60.79 63.70 C 61.49 68.31 65.13 71.82 66.34 76.32 C 63.53 75.68 60.39 75.78 57.94 74.05 C 51.34 69.44 43.71 66.68 36.59 63.02 L 35.99 62.69 C 36.01 61.01 36.03 59.34 36.06 57.67 C 36.39 57.18 37.05 56.21 37.38 55.72 Z" />
</g>
<g id="#c3c5d2ff">
<path fill="#c3c5d2" opacity="1.00" d=" M 46.79 57.73 C 48.49 57.43 50.15 56.97 51.82 56.51 C 51.77 56.93 51.67 57.78 51.61 58.20 C 50.09 61.69 46.98 64.68 42.90 64.36 C 39.34 64.79 37.86 61.12 36.46 58.58 C 39.02 58.88 41.59 59.14 44.16 59.14 L 46.19 59.12 C 45.76 58.62 44.90 57.62 44.46 57.12 C 45.04 57.27 46.21 57.58 46.79 57.73 Z" />
</g>
<g id="#4e5258ff">
<path fill="#4e5258" opacity="1.00" d=" M 35.46 58.64 L 36.06 57.67 C 36.03 59.34 36.01 61.01 35.99 62.69 L 36.59 63.02 C 37.12 65.20 37.60 67.40 38.09 69.59 C 40.31 72.44 42.35 75.55 45.35 77.65 C 47.86 79.13 50.72 79.82 53.51 80.53 C 56.81 81.57 60.15 80.19 63.45 79.92 L 64.51 80.85 C 62.88 80.96 61.25 81.02 59.62 81.12 C 57.52 82.72 54.75 81.96 52.42 81.38 C 49.70 80.62 46.82 80.11 44.40 78.58 C 42.40 76.90 40.71 74.85 38.48 73.46 C 37.71 71.44 36.94 69.43 36.30 67.37 C 36.35 66.79 36.46 65.63 36.51 65.05 C 35.98 64.95 34.92 64.75 34.39 64.65 L 34.21 67.67 C 33.61 66.98 33.02 66.29 32.43 65.59 C 32.10 65.97 31.44 66.74 31.11 67.12 L 30.56 67.74 C 31.22 66.56 32.53 64.18 33.19 62.99 C 33.51 63.14 34.15 63.44 34.46 63.59 L 34.59 63.65 L 34.61 63.48 C 34.88 61.87 34.88 60.18 35.46 58.64 Z" />
</g>
<g id="#5e6163ff">
<path fill="#5e6163" opacity="1.00" d=" M 74.10 62.12 C 74.67 60.70 75.29 59.29 75.96 57.91 C 75.90 59.51 76.20 61.25 75.11 62.62 C 74.75 65.27 75.70 68.26 74.10 70.62 C 74.07 71.27 74.00 72.58 73.97 73.23 C 74.62 73.22 75.91 73.20 76.55 73.19 C 81.76 75.96 83.56 82.25 84.13 87.72 C 83.83 87.77 83.22 87.86 82.91 87.91 C 82.75 86.68 82.55 85.46 82.33 84.25 C 82.19 83.32 82.06 82.39 81.94 81.46 C 80.38 78.99 78.74 76.57 76.79 74.39 C 76.82 75.11 76.87 76.56 76.90 77.29 C 72.01 72.56 67.17 67.66 63.63 61.81 C 67.34 64.14 69.99 67.66 72.41 71.24 C 72.81 70.81 73.62 69.97 74.02 69.55 C 74.04 67.07 74.00 64.60 74.10 62.12 Z" />
</g>
<g id="#e1e4e8ff">
<path fill="#e1e4e8" opacity="1.00" d=" M 34.46 63.59 C 34.50 63.56 34.57 63.51 34.61 63.48 L 34.59 63.65 L 34.46 63.59 Z" />
</g>
<g id="#53585dff">
<path fill="#53585d" opacity="1.00" d=" M 66.34 76.32 C 65.13 71.82 61.49 68.31 60.79 63.70 C 64.35 68.03 66.96 73.08 68.21 78.55 C 71.35 83.77 74.43 89.44 80.00 92.43 C 81.15 91.46 82.30 90.50 83.44 89.52 C 83.30 90.10 83.03 91.26 82.89 91.85 C 78.32 94.93 74.10 90.05 71.76 86.51 C 71.12 85.50 70.47 84.49 69.85 83.48 C 68.69 81.82 67.56 80.14 66.35 78.51 C 66.50 78.24 66.82 77.70 66.97 77.42 C 66.81 77.15 66.50 76.59 66.34 76.32 Z" />
</g>
<g id="#caccd8ff">
<path fill="#caccd8" opacity="1.00" d=" M 34.39 64.65 C 34.92 64.75 35.98 64.95 36.51 65.05 C 36.46 65.63 36.35 66.79 36.30 67.37 C 35.54 70.22 34.38 72.94 33.16 75.63 C 33.87 75.79 35.30 76.12 36.01 76.28 C 35.61 76.42 34.82 76.70 34.42 76.84 C 33.20 77.58 31.97 78.32 30.74 79.05 C 30.54 79.52 30.14 80.47 29.93 80.94 C 29.60 81.38 28.94 82.28 28.61 82.73 C 28.60 82.34 28.58 81.55 28.57 81.16 C 29.63 76.46 31.19 71.86 33.47 67.60 C 32.98 67.78 31.99 68.14 31.50 68.32 C 31.05 69.28 30.60 70.24 30.15 71.19 L 28.57 72.18 C 29.13 70.86 29.68 69.53 30.25 68.21 C 30.46 67.94 30.89 67.39 31.11 67.12 C 31.44 66.74 32.10 65.97 32.43 65.59 C 33.02 66.29 33.61 66.98 34.21 67.67 L 34.39 64.65 Z" />
</g>
<g id="#06121ac6">
<path fill="#06121a" opacity="0.78" d=" M 30.58 67.39 L 30.25 68.21 C 29.68 69.53 29.13 70.86 28.57 72.18 L 28.39 72.56 C 27.80 73.84 27.16 75.08 26.47 76.30 C 26.76 74.65 27.10 73.02 27.51 71.40 C 28.44 69.99 29.11 68.35 30.58 67.39 Z" />
</g>
<g id="#7b7c80ff">
<path fill="#7b7c80" opacity="1.00" d=" M 31.50 68.32 C 31.99 68.14 32.98 67.78 33.47 67.60 C 31.19 71.86 29.63 76.46 28.57 81.16 C 28.58 81.55 28.60 82.34 28.61 82.73 L 28.61 82.79 C 26.76 84.55 25.17 86.54 23.55 88.51 C 26.42 83.01 28.47 77.16 30.15 71.19 C 30.60 70.24 31.05 69.28 31.50 68.32 Z" />
</g>
<g id="#e9e9f4ff">
<path fill="#e9e9f4" opacity="1.00" d=" M 36.30 67.37 C 36.94 69.43 37.71 71.44 38.48 73.46 C 37.65 74.39 36.82 75.33 36.01 76.28 C 35.30 76.12 33.87 75.79 33.16 75.63 C 34.38 72.94 35.54 70.22 36.30 67.37 Z" />
</g>
<g id="#fafbfdff">
<path fill="#fafbfd" opacity="1.00" d=" M 28.39 72.56 L 28.57 72.18 L 30.15 71.19 C 28.47 77.16 26.42 83.01 23.55 88.51 C 23.37 88.91 23.02 89.69 22.85 90.08 C 22.27 89.28 21.69 88.48 21.11 87.69 C 21.81 86.34 22.54 85.00 23.08 83.59 C 23.28 83.03 23.70 81.91 23.90 81.35 L 24.25 81.00 C 25.31 80.01 25.79 78.59 26.32 77.28 L 26.76 76.23 C 26.69 76.25 26.54 76.28 26.47 76.30 C 27.16 75.08 27.80 73.84 28.39 72.56 Z" />
</g>
<g id="#f4f6f8ff">
<path fill="#f4f6f8" opacity="1.00" d=" M 76.79 74.39 C 78.74 76.57 80.38 78.99 81.94 81.46 C 82.06 82.39 82.19 83.32 82.33 84.25 C 82.55 85.46 82.75 86.68 82.91 87.91 L 82.19 88.03 C 78.65 85.67 78.32 80.96 76.90 77.29 C 76.87 76.56 76.82 75.11 76.79 74.39 Z" />
</g>
<g id="#0a151ccc">
<path fill="#0a151c" opacity="0.80" d=" M 25.78 77.03 L 26.32 77.28 C 25.79 78.59 25.31 80.01 24.25 81.00 C 23.28 79.71 24.17 77.32 25.78 77.03 Z" />
</g>
<g id="#5b5c61ff">
<path fill="#5b5c61" opacity="1.00" d=" M 29.93 80.94 C 30.14 80.47 30.54 79.52 30.74 79.05 C 30.76 79.49 30.79 80.36 30.81 80.79 L 29.93 80.94 Z" />
</g>
<g id="#172127d1">
<path fill="#172127" opacity="0.82" d=" M 22.59 82.53 L 23.08 83.59 C 22.54 85.00 21.81 86.34 21.11 87.69 C 21.69 88.48 22.27 89.28 22.85 90.08 C 21.73 89.95 20.68 89.56 19.92 88.69 C 20.38 86.48 21.65 84.55 22.59 82.53 Z" />
</g>
</svg>
