<?xml version="1.0" encoding="UTF-8" ?>
<!DOCTYPE svg PUBLIC "-//W3C//DTD SVG 1.1//EN" "http://www.w3.org/Graphics/SVG/1.1/DTD/svg11.dtd">
<svg width="120pt" height="120pt" viewBox="0 0 120 120" version="1.1" xmlns="http://www.w3.org/2000/svg">
<g id="#222934f4">
<path fill="#222934" opacity="0.96" d=" M 51.05 42.91 C 52.12 42.04 53.21 40.73 54.76 41.12 C 56.57 41.70 58.02 43.04 59.80 43.67 C 61.38 43.60 62.98 42.85 64.55 43.30 C 66.60 45.01 68.24 47.16 70.29 48.86 C 73.35 49.30 76.47 48.98 79.54 49.42 C 79.91 51.87 79.98 54.35 80.03 56.82 L 79.03 56.79 C 79.25 54.97 79.34 53.14 79.36 51.31 L 78.69 50.67 C 75.94 49.73 73.01 50.19 70.18 49.86 C 68.05 48.77 66.66 46.68 64.86 45.17 C 63.44 43.25 61.04 44.91 59.13 44.70 C 57.74 44.13 56.54 43.22 55.25 42.48 C 53.83 42.28 52.43 42.62 51.05 42.91 Z" />
</g>
<g id="#1e2631eb">
<path fill="#1e2631" opacity="0.92" d=" M 40.96 42.06 C 42.14 42.10 43.31 42.14 44.48 42.19 C 45.06 43.17 45.64 44.15 46.23 45.12 C 46.92 45.17 48.29 45.26 48.98 45.31 C 48.35 46.01 47.72 46.71 47.08 47.39 C 45.47 45.55 43.89 43.58 41.65 42.47 L 40.96 42.06 Z" />
</g>
<g id="#d5c1e1ff">
<path fill="#d5c1e1" opacity="1.00" d=" M 51.05 42.91 C 52.43 42.62 53.83 42.28 55.25 42.48 C 52.98 44.52 50.80 46.93 51.29 50.23 L 51.23 50.68 C 51.15 51.13 50.99 52.03 50.90 52.47 C 50.76 53.29 51.00 54.02 51.63 54.67 C 52.52 57.14 52.83 60.21 55.36 61.65 C 58.89 63.82 63.30 64.92 67.42 64.33 C 70.77 63.56 70.80 59.86 71.18 57.12 C 71.23 53.15 76.12 52.64 78.69 50.67 L 79.36 51.31 C 79.34 53.14 79.25 54.97 79.03 56.79 C 78.57 58.38 77.55 59.70 76.68 61.08 C 75.79 64.90 79.30 67.99 80.95 71.14 C 76.45 74.00 71.22 75.52 65.94 76.05 C 60.91 76.47 56.01 74.71 50.98 75.09 C 48.28 75.03 45.32 75.67 42.86 74.23 C 40.47 72.90 39.10 70.41 37.95 68.03 C 38.03 67.62 38.18 66.82 38.26 66.41 C 38.44 66.08 38.81 65.41 38.99 65.08 C 40.31 62.35 42.66 59.49 41.73 56.28 C 40.63 52.23 39.68 48.12 39.83 43.90 C 40.29 43.54 41.19 42.83 41.65 42.47 C 43.89 43.58 45.47 45.55 47.08 47.39 C 47.72 46.71 48.35 46.01 48.98 45.31 C 49.67 44.50 50.36 43.70 51.05 42.91 Z" />
</g>
<g id="#e3cdefff">
<path fill="#e3cdef" opacity="1.00" d=" M 55.25 42.48 C 56.54 43.22 57.74 44.13 59.13 44.70 C 61.04 44.91 63.44 43.25 64.86 45.17 C 66.66 46.68 68.05 48.77 70.18 49.86 C 73.01 50.19 75.94 49.73 78.69 50.67 C 76.12 52.64 71.23 53.15 71.18 57.12 C 70.80 59.86 70.77 63.56 67.42 64.33 C 63.30 64.92 58.89 63.82 55.36 61.65 C 52.83 60.21 52.52 57.14 51.63 54.67 C 52.76 54.50 53.74 54.03 54.57 53.27 C 53.39 52.84 52.16 52.58 50.90 52.47 C 50.99 52.03 51.15 51.13 51.23 50.68 C 51.24 50.61 51.27 50.45 51.28 50.38 L 51.29 50.23 C 50.80 46.93 52.98 44.52 55.25 42.48 M 60.22 51.22 C 60.83 51.83 60.83 51.83 60.22 51.22 M 60.48 54.25 C 60.43 55.67 62.93 55.53 63.68 54.76 C 63.76 53.31 61.22 53.47 60.48 54.25 Z" />
</g>
<g id="#0d1a23eb">
<path fill="#0d1a23" opacity="0.92" d=" M 41.01 57.99 C 40.47 53.40 37.44 48.36 39.83 43.90 C 39.68 48.12 40.63 52.23 41.73 56.28 C 42.66 59.49 40.31 62.35 38.99 65.08 C 39.07 62.56 40.37 60.37 41.01 57.99 Z" />
</g>
<g id="#282828ff">
<path fill="#282828" opacity="1.00" d=" M 51.29 50.23 L 51.28 50.38 C 51.27 50.45 51.24 50.61 51.23 50.68 L 51.29 50.23 Z" />
</g>
<g id="#292929ff">
<path fill="#292929" opacity="1.00" d=" M 60.22 51.22 C 60.83 51.83 60.83 51.83 60.22 51.22 Z" />
</g>
<g id="#6d6172ff">
<path fill="#6d6172" opacity="1.00" d=" M 51.63 54.67 C 51.00 54.02 50.76 53.29 50.90 52.47 C 52.16 52.58 53.39 52.84 54.57 53.27 C 53.74 54.03 52.76 54.50 51.63 54.67 Z" />
</g>
<g id="#6c6071ff">
<path fill="#6c6071" opacity="1.00" d=" M 60.48 54.25 C 61.22 53.47 63.76 53.31 63.68 54.76 C 62.93 55.53 60.43 55.67 60.48 54.25 Z" />
</g>
<g id="#a290b1ff">
<path fill="#a290b1" opacity="1.00" d=" M 80.95 71.14 C 79.30 67.99 75.79 64.90 76.68 61.08 C 77.89 64.91 80.51 67.99 82.43 71.45 C 83.30 73.13 81.70 74.67 81.21 76.21 C 74.94 77.39 68.52 77.50 62.18 77.92 C 54.76 76.26 46.67 79.10 39.69 75.37 C 37.19 73.74 37.29 70.57 37.95 68.03 C 39.10 70.41 40.47 72.90 42.86 74.23 C 45.32 75.67 48.28 75.03 50.98 75.09 C 56.01 74.71 60.91 76.47 65.94 76.05 C 71.22 75.52 76.45 74.00 80.95 71.14 Z" />
</g>
<g id="#383643ff">
<path fill="#383643" opacity="1.00" d=" M 37.36 66.12 L 38.26 66.41 C 38.18 66.82 38.03 67.62 37.95 68.03 C 37.29 70.57 37.19 73.74 39.69 75.37 C 46.67 79.10 54.76 76.26 62.18 77.92 C 68.52 77.50 74.94 77.39 81.21 76.21 C 78.59 78.40 75.14 77.88 71.98 77.87 C 67.77 77.69 63.63 79.90 59.44 78.48 C 56.06 77.24 52.56 78.19 49.15 78.57 C 45.03 77.65 39.31 78.33 37.04 73.95 C 35.33 71.54 37.16 68.71 37.36 66.12 Z" />
</g>
</svg>
