<?xml version="1.0" encoding="UTF-8" ?>
<!DOCTYPE svg PUBLIC "-//W3C//DTD SVG 1.1//EN" "http://www.w3.org/Graphics/SVG/1.1/DTD/svg11.dtd">
<svg width="120pt" height="120pt" viewBox="0 0 120 120" version="1.1" xmlns="http://www.w3.org/2000/svg">
<g id="#2a2a29ff">
<path fill="#2a2a29" opacity="1.00" d=" M 46.59 23.52 C 48.72 21.44 51.77 22.01 54.46 22.10 C 55.02 22.40 56.12 23.01 56.67 23.31 C 56.98 23.86 57.59 24.95 57.90 25.50 C 57.96 26.77 58.02 28.04 58.09 29.32 C 59.08 28.92 60.04 28.44 60.96 27.89 C 60.13 24.37 63.97 23.48 66.48 22.62 C 68.16 21.65 69.86 22.94 71.55 23.22 C 73.43 24.00 75.40 25.20 75.27 27.52 C 76.62 29.75 75.82 32.50 76.00 34.97 L 75.35 35.03 C 75.30 33.65 75.22 32.27 75.13 30.89 C 74.82 29.24 74.41 27.60 74.04 25.97 C 71.97 24.88 69.82 23.97 67.61 23.21 C 66.60 23.60 65.59 23.97 64.58 24.34 C 63.93 24.58 62.64 25.07 62.00 25.32 C 62.01 25.93 62.03 27.15 62.04 27.76 C 61.46 28.19 60.29 29.03 59.71 29.45 C 60.63 31.61 61.61 33.97 63.94 34.93 C 63.35 37.28 61.89 39.30 59.71 40.44 C 60.45 39.44 61.20 38.45 61.95 37.46 C 60.66 35.84 59.38 34.22 58.11 32.59 C 57.58 31.11 57.46 29.53 57.20 28.00 C 56.87 26.68 56.47 25.39 56.07 24.10 C 53.71 23.13 51.18 22.87 48.65 23.03 C 47.54 23.89 46.41 24.71 45.22 25.45 C 44.60 26.88 43.48 28.45 45.11 29.72 L 45.23 29.90 L 45.47 29.88 C 46.66 29.79 47.84 29.69 49.03 29.56 C 49.13 29.82 49.34 30.35 49.44 30.61 L 49.78 32.22 L 49.29 31.49 C 49.11 31.29 48.73 30.91 48.54 30.71 C 46.34 30.75 44.14 30.92 41.95 31.18 C 43.26 28.49 43.47 24.87 46.59 23.52 Z" />
<path fill="#2a2a29" opacity="1.00" d=" M 68.12 38.62 C 69.81 38.18 71.46 37.59 73.06 36.87 L 72.95 37.83 C 72.45 38.00 71.45 38.36 70.95 38.53 C 70.06 42.76 69.33 47.01 68.34 51.21 L 68.74 51.59 C 70.14 52.83 71.56 54.04 72.94 55.30 C 72.99 56.39 73.05 57.48 73.12 58.57 C 73.92 60.18 76.20 62.19 73.92 63.68 C 75.27 64.46 75.33 65.41 74.09 66.53 C 74.06 67.14 74.00 68.36 73.97 68.97 L 72.88 69.06 C 72.95 68.40 73.09 67.09 73.17 66.43 L 73.62 65.80 C 73.13 61.34 72.93 56.01 68.86 53.19 C 66.60 53.06 64.47 52.31 62.58 51.08 L 64.72 50.89 C 67.46 47.54 67.14 42.98 66.99 38.93 L 68.12 38.62 Z" />
<path fill="#2a2a29" opacity="1.00" d=" M 66.99 74.38 C 69.03 73.81 70.80 72.66 72.25 71.13 C 72.04 72.88 70.75 74.11 69.00 74.29 C 69.00 75.70 69.03 77.10 69.08 78.50 C 70.52 79.82 69.88 81.83 69.97 83.52 C 68.37 84.74 69.20 86.88 68.99 88.56 C 69.96 90.49 71.49 92.06 73.46 92.99 C 74.95 92.99 76.44 93.01 77.93 93.03 L 78.06 94.03 C 76.76 93.98 75.46 93.98 74.16 94.01 C 73.98 94.37 73.61 95.09 73.42 95.46 C 71.88 94.02 70.31 92.57 69.26 90.71 C 68.35 90.88 67.44 91.06 66.53 91.25 C 66.32 91.86 65.91 93.08 65.71 93.69 C 63.94 94.28 62.17 94.88 60.41 95.51 C 60.35 94.54 60.67 93.71 61.37 93.01 C 63.03 92.96 64.67 92.73 66.16 91.94 C 65.89 86.71 66.53 81.37 64.95 76.29 C 65.31 76.11 66.03 75.76 66.38 75.58 C 67.13 80.63 67.02 85.74 67.00 90.83 C 67.47 90.09 67.93 89.34 68.38 88.58 C 68.29 86.04 68.49 83.49 68.87 80.98 C 68.58 79.34 68.37 77.70 68.22 76.05 C 67.89 75.79 67.22 75.29 66.88 75.03 C 66.91 74.87 66.96 74.55 66.99 74.38 Z" />
</g>
<g id="#f1b47fff">
<path fill="#f1b47f" opacity="1.00" d=" M 48.65 23.03 C 51.18 22.87 53.71 23.13 56.07 24.10 C 56.47 25.39 56.87 26.68 57.20 28.00 C 56.34 28.60 55.47 29.20 54.63 29.83 C 53.48 29.02 52.30 28.25 51.08 27.55 C 51.04 28.47 50.95 30.31 50.91 31.23 L 49.44 30.61 C 49.34 30.35 49.13 29.82 49.03 29.56 C 47.84 29.69 46.66 29.79 45.47 29.88 C 45.38 29.84 45.20 29.76 45.11 29.72 C 43.48 28.45 44.60 26.88 45.22 25.45 C 46.41 24.71 47.54 23.89 48.65 23.03 Z" />
</g>
<g id="#f1b580ff">
<path fill="#f1b580" opacity="1.00" d=" M 67.61 23.21 C 69.82 23.97 71.97 24.88 74.04 25.97 C 74.41 27.60 74.82 29.24 75.13 30.89 C 70.56 31.00 66.08 29.90 62.04 27.76 C 62.03 27.15 62.01 25.93 62.00 25.32 C 62.64 25.07 63.93 24.58 64.58 24.34 C 65.59 23.97 66.60 23.60 67.61 23.21 Z" />
<path fill="#f1b580" opacity="1.00" d=" M 56.11 91.19 C 56.71 89.87 57.23 88.51 58.00 87.28 C 57.80 88.60 57.60 89.92 57.41 91.24 C 57.77 91.36 58.49 91.58 58.85 91.70 C 58.52 91.96 57.88 92.49 57.56 92.75 C 52.96 93.23 48.21 93.18 43.81 94.78 L 43.30 94.94 C 45.58 92.22 49.59 92.66 52.77 91.93 C 53.90 90.76 55.01 89.56 56.12 88.37 C 56.11 89.31 56.11 90.25 56.11 91.19 Z" />
<path fill="#f1b580" opacity="1.00" d=" M 66.53 91.25 C 67.44 91.06 68.35 90.88 69.26 90.71 C 70.31 92.57 71.88 94.02 73.42 95.46 L 73.27 96.18 C 70.40 93.59 65.14 92.98 62.72 96.43 C 62.37 96.50 61.67 96.63 61.32 96.69 C 61.09 96.40 60.64 95.80 60.41 95.51 C 62.17 94.88 63.94 94.28 65.71 93.69 C 65.91 93.08 66.32 91.86 66.53 91.25 Z" />
</g>
<g id="#32302fff">
<path fill="#32302f" opacity="1.00" d=" M 51.08 27.55 C 52.30 28.25 53.48 29.02 54.63 29.83 C 54.12 30.36 53.11 31.41 52.60 31.93 C 52.18 31.76 51.33 31.41 50.91 31.23 C 50.95 30.31 51.04 28.47 51.08 27.55 Z" />
</g>
<g id="#dea676ff">
<path fill="#dea676" opacity="1.00" d=" M 54.63 29.83 C 55.47 29.20 56.34 28.60 57.20 28.00 C 57.46 29.53 57.58 31.11 58.11 32.59 C 57.96 33.13 57.65 34.20 57.49 34.74 C 53.57 37.80 47.86 37.96 44.37 34.15 C 46.29 34.04 48.21 33.95 50.13 33.86 C 50.04 33.45 49.87 32.63 49.78 32.22 L 49.44 30.61 L 50.91 31.23 C 51.33 31.41 52.18 31.76 52.60 31.93 C 53.11 31.41 54.12 30.36 54.63 29.83 Z" />
<path fill="#dea676" opacity="1.00" d=" M 59.71 29.45 C 60.29 29.03 61.46 28.19 62.04 27.76 C 66.08 29.90 70.56 31.00 75.13 30.89 C 75.22 32.27 75.30 33.65 75.35 35.03 C 74.61 35.67 73.85 36.28 73.06 36.87 C 71.46 37.59 69.81 38.18 68.12 38.62 C 67.28 37.03 66.44 35.44 65.45 33.94 C 65.07 34.19 64.32 34.68 63.94 34.93 C 61.61 33.97 60.63 31.61 59.71 29.45 M 68.15 33.93 C 68.11 34.32 68.01 35.10 67.97 35.49 C 70.40 37.94 72.66 31.49 68.91 33.27 C 68.72 33.44 68.34 33.77 68.15 33.93 Z" />
</g>
<g id="#f9f6f5ff">
<path fill="#f9f6f5" opacity="1.00" d=" M 45.11 29.72 C 45.20 29.76 45.38 29.84 45.47 29.88 L 45.23 29.90 L 45.11 29.72 Z" />
</g>
<g id="#47413aff">
<path fill="#47413a" opacity="1.00" d=" M 39.69 32.80 C 40.43 32.25 41.19 31.71 41.95 31.18 C 44.12 32.65 46.93 32.13 49.29 31.49 L 49.78 32.22 C 49.87 32.63 50.04 33.45 50.13 33.86 C 48.21 33.95 46.29 34.04 44.37 34.15 C 47.86 37.96 53.57 37.80 57.49 34.74 C 57.30 35.25 56.92 36.25 56.73 36.75 C 56.15 36.87 54.99 37.10 54.42 37.21 C 54.06 37.46 53.35 37.95 53.00 38.20 C 52.70 38.43 52.09 38.89 51.79 39.13 C 51.92 43.43 53.87 47.31 55.09 51.36 C 51.45 47.99 51.25 42.83 50.04 38.34 L 48.92 38.03 C 47.20 37.46 44.24 37.02 44.12 34.82 C 43.85 34.42 43.30 33.61 43.03 33.21 C 42.19 33.11 40.53 32.90 39.69 32.80 Z" />
</g>
<g id="#e8d0b2ff">
<path fill="#e8d0b2" opacity="1.00" d=" M 41.95 31.18 C 44.14 30.92 46.34 30.75 48.54 30.71 C 48.73 30.91 49.11 31.29 49.29 31.49 C 46.93 32.13 44.12 32.65 41.95 31.18 Z" />
</g>
<g id="#031823ff">
<path fill="#031823" opacity="1.00" d=" M 43.03 33.21 C 43.30 33.61 43.85 34.42 44.12 34.82 L 43.27 34.87 C 43.21 34.45 43.09 33.62 43.03 33.21 Z" />
</g>
<g id="#f8f7f7ff">
<path fill="#f8f7f7" opacity="1.00" d=" M 68.15 33.93 C 68.34 33.77 68.72 33.44 68.91 33.27 C 68.72 33.44 68.34 33.77 68.15 33.93 Z" />
</g>
<g id="#302d2aff">
<path fill="#302d2a" opacity="1.00" d=" M 68.91 33.27 C 72.66 31.49 70.40 37.94 67.97 35.49 C 68.01 35.10 68.11 34.32 68.15 33.93 C 68.34 33.77 68.72 33.44 68.91 33.27 Z" />
</g>
<g id="#635246ff">
<path fill="#635246" opacity="1.00" d=" M 63.94 34.93 C 64.32 34.68 65.07 34.19 65.45 33.94 C 66.44 35.44 67.28 37.03 68.12 38.62 L 66.99 38.93 C 64.80 41.19 64.37 44.69 61.77 46.65 C 61.96 45.93 62.35 44.48 62.54 43.75 L 62.62 43.45 L 62.60 43.17 C 62.54 42.62 62.42 41.53 62.37 40.98 C 63.96 39.51 65.44 37.93 66.82 36.26 C 66.10 35.93 64.66 35.26 63.94 34.93 Z" />
</g>
<g id="#eed9baff">
<path fill="#eed9ba" opacity="1.00" d=" M 63.94 34.93 C 64.66 35.26 66.10 35.93 66.82 36.26 C 65.44 37.93 63.96 39.51 62.37 40.98 C 60.95 42.28 59.51 43.55 57.97 44.70 C 58.34 43.38 58.77 42.07 59.24 40.78 C 59.36 40.69 59.59 40.53 59.71 40.44 C 61.89 39.30 63.35 37.28 63.94 34.93 Z" />
</g>
<g id="#282c2df5">
<path fill="#282c2d" opacity="0.96" d=" M 48.92 38.03 L 50.04 38.34 C 51.25 42.83 51.45 47.99 55.09 51.36 C 53.87 47.31 51.92 43.43 51.79 39.13 C 52.09 38.89 52.70 38.43 53.00 38.20 C 53.00 39.59 53.04 40.99 53.09 42.38 C 53.52 43.42 53.94 44.47 54.34 45.52 C 55.01 47.01 55.69 48.50 56.36 50.00 C 59.15 50.08 62.17 49.45 64.72 50.89 L 62.58 51.08 C 60.91 51.09 59.25 51.05 57.58 51.03 C 55.37 52.76 52.68 54.19 51.56 56.93 C 51.19 56.97 50.43 57.06 50.06 57.11 C 50.08 59.64 49.97 62.18 49.60 64.69 C 49.76 66.04 49.93 67.40 50.12 68.75 C 51.74 70.35 53.23 72.09 54.52 73.98 C 57.41 74.73 60.34 75.32 63.19 76.23 C 62.66 76.50 61.60 77.05 61.06 77.32 C 61.00 78.35 60.92 79.39 60.85 80.42 C 60.46 81.45 60.10 82.49 59.75 83.54 C 59.20 84.80 58.67 86.08 58.00 87.28 C 57.23 88.51 56.71 89.87 56.11 91.19 C 56.11 90.25 56.11 89.31 56.12 88.37 C 55.01 89.56 53.90 90.76 52.77 91.93 C 49.59 92.66 45.58 92.22 43.30 94.94 C 42.63 95.76 41.75 96.16 40.65 96.15 C 42.37 93.95 44.27 91.32 47.46 91.82 C 48.92 90.63 50.89 91.19 52.60 90.88 C 53.61 89.99 54.22 88.77 54.80 87.58 C 54.92 86.46 55.26 85.43 55.83 84.47 C 56.10 83.11 55.76 81.48 56.95 80.47 C 57.59 77.76 56.81 74.31 53.33 74.85 C 52.41 71.94 49.21 70.55 48.22 67.65 C 49.43 66.10 46.95 64.36 49.24 62.97 C 48.62 62.98 47.37 63.00 46.75 63.02 C 47.14 62.55 47.93 61.63 48.32 61.17 C 49.66 60.47 47.34 59.39 48.62 58.55 C 49.84 56.09 52.16 54.46 54.07 52.57 C 52.95 51.33 51.84 50.05 51.09 48.55 C 51.03 48.04 50.92 47.02 50.86 46.51 C 49.85 45.41 50.05 43.87 49.80 42.52 C 48.72 41.25 49.08 39.54 48.92 38.03 M 58.49 76.02 C 58.24 79.20 57.42 82.29 56.50 85.33 C 56.97 85.26 57.90 85.11 58.37 85.03 C 58.99 82.04 60.50 79.24 60.28 76.11 C 59.83 76.09 58.94 76.05 58.49 76.02 Z" />
</g>
<g id="#1a1919ff">
<path fill="#1a1919" opacity="1.00" d=" M 68.34 51.21 C 69.33 47.01 70.06 42.76 70.95 38.53 C 70.98 40.85 71.03 43.16 70.93 45.47 C 69.79 46.52 70.06 48.13 69.83 49.49 C 69.56 50.02 69.02 51.07 68.74 51.59 L 68.34 51.21 Z" />
</g>
<g id="#2a2f30df">
<path fill="#2a2f30" opacity="0.87" d=" M 58.33 41.42 L 59.24 40.78 C 58.77 42.07 58.34 43.38 57.97 44.70 C 59.51 43.55 60.95 42.28 62.37 40.98 C 62.42 41.53 62.54 42.62 62.60 43.17 L 62.61 43.47 L 62.54 43.75 C 62.35 44.48 61.96 45.93 61.77 46.65 C 61.55 46.04 61.11 44.81 60.89 44.19 C 59.48 44.57 58.07 44.92 56.65 45.25 C 57.13 43.94 57.65 42.64 58.33 41.42 Z" />
</g>
<g id="#af9c85ff">
<path fill="#af9c85" opacity="1.00" d=" M 62.61 43.47 L 62.60 43.17 L 62.62 43.45 L 62.54 43.75 L 62.61 43.47 Z" />
</g>
<g id="#eaaf7cff">
<path fill="#eaaf7c" opacity="1.00" d=" M 57.58 51.03 C 59.25 51.05 60.91 51.09 62.58 51.08 C 64.47 52.31 66.60 53.06 68.86 53.19 C 72.93 56.01 73.13 61.34 73.62 65.80 L 73.17 66.43 C 70.86 68.07 68.67 69.97 66.13 71.23 C 63.16 71.77 60.06 71.54 57.12 70.96 C 54.24 69.37 52.11 66.76 49.60 64.69 C 49.97 62.18 50.08 59.64 50.06 57.11 C 50.43 57.06 51.19 56.97 51.56 56.93 C 52.68 54.19 55.37 52.76 57.58 51.03 Z" />
</g>
<g id="#ae835eff">
<path fill="#ae835e" opacity="1.00" d=" M 49.60 64.69 C 52.11 66.76 54.24 69.37 57.12 70.96 C 60.06 71.54 63.16 71.77 66.13 71.23 C 68.67 69.97 70.86 68.07 73.17 66.43 C 73.09 67.09 72.95 68.40 72.88 69.06 C 72.85 69.45 72.80 70.24 72.77 70.64 L 72.25 71.13 C 70.80 72.66 69.03 73.81 66.99 74.38 C 66.96 74.55 66.91 74.87 66.88 75.03 C 65.80 75.32 64.73 75.65 63.67 76.02 L 63.19 76.23 C 60.34 75.32 57.41 74.73 54.52 73.98 C 53.23 72.09 51.74 70.35 50.12 68.75 C 49.93 67.40 49.76 66.04 49.60 64.69 Z" />
</g>
<g id="#d1ba9fff">
<path fill="#d1ba9f" opacity="1.00" d=" M 66.88 75.03 C 67.22 75.29 67.89 75.79 68.22 76.05 C 68.37 77.70 68.58 79.34 68.87 80.98 C 68.49 83.49 68.29 86.04 68.38 88.58 C 67.93 89.34 67.47 90.09 67.00 90.83 C 67.02 85.74 67.13 80.63 66.38 75.58 C 66.51 75.44 66.76 75.17 66.88 75.03 Z" />
</g>
<g id="#cab49aff">
<path fill="#cab49a" opacity="1.00" d=" M 58.49 76.02 C 58.94 76.05 59.83 76.09 60.28 76.11 C 60.50 79.24 58.99 82.04 58.37 85.03 C 57.90 85.11 56.97 85.26 56.50 85.33 C 57.42 82.29 58.24 79.20 58.49 76.02 Z" />
</g>
<g id="#504a44ff">
<path fill="#504a44" opacity="1.00" d=" M 57.56 92.75 C 57.88 92.49 58.52 91.96 58.85 91.70 C 59.48 92.03 60.74 92.68 61.37 93.01 C 60.67 93.71 60.35 94.54 60.41 95.51 C 60.64 95.80 61.09 96.40 61.32 96.69 L 61.76 97.26 C 59.27 97.43 58.00 95.25 56.44 93.80 C 56.00 94.39 55.13 95.57 54.69 96.16 L 54.28 95.04 C 54.02 94.76 53.49 94.21 53.22 93.93 C 53.20 94.36 53.15 95.24 53.12 95.67 C 50.11 94.70 46.91 95.02 43.81 94.78 C 48.21 93.18 52.96 93.23 57.56 92.75 Z" />
</g>
<g id="#adadafff">
<path fill="#adadaf" opacity="1.00" d=" M 53.22 93.93 C 53.49 94.21 54.02 94.76 54.28 95.04 L 53.89 95.79 L 53.12 95.67 C 53.15 95.24 53.20 94.36 53.22 93.93 Z" />
</g>
<g id="#504b44f4">
<path fill="#504b44" opacity="0.96" d=" M 62.72 96.43 C 65.14 92.98 70.40 93.59 73.27 96.18 L 73.42 95.46 C 73.61 95.09 73.98 94.37 74.16 94.01 C 75.46 93.98 76.76 93.98 78.06 94.03 L 78.76 94.08 C 78.87 94.55 79.08 95.51 79.19 95.98 C 77.35 96.31 74.80 95.20 73.54 97.09 C 71.56 96.92 69.89 95.77 68.06 95.11 C 66.31 95.65 64.55 96.21 62.72 96.43 Z" />
</g>
</svg>
