<?xml version="1.0" encoding="UTF-8" ?>
<!DOCTYPE svg PUBLIC "-//W3C//DTD SVG 1.1//EN" "http://www.w3.org/Graphics/SVG/1.1/DTD/svg11.dtd">
<svg width="120pt" height="120pt" viewBox="0 0 120 120" version="1.1" xmlns="http://www.w3.org/2000/svg">
<g id="#604f35ff">
<path fill="#604f35" opacity="1.00" d=" M 48.10 14.15 C 48.08 12.87 48.74 11.83 49.49 10.86 C 50.46 11.97 51.44 13.08 52.42 14.18 C 52.71 14.17 53.29 14.14 53.57 14.13 C 58.61 13.59 65.18 15.39 68.61 10.53 L 69.24 9.85 C 69.70 12.57 67.63 13.99 65.51 14.94 C 61.93 15.05 58.35 15.00 54.77 15.01 C 54.72 17.19 57.07 18.13 57.82 19.96 C 60.02 24.86 58.49 30.33 59.12 35.50 C 59.70 36.67 60.07 37.91 60.23 39.21 C 60.65 39.14 61.48 39.01 61.90 38.94 C 61.76 39.46 61.49 40.51 61.35 41.03 C 61.71 41.02 62.44 41.00 62.80 41.00 C 62.56 41.50 62.10 42.51 61.86 43.01 C 63.33 43.52 64.79 44.05 66.27 44.53 C 66.85 44.74 68.03 45.15 68.61 45.36 C 73.52 48.06 76.40 52.84 79.96 56.93 C 80.53 58.08 80.91 59.31 81.33 60.52 C 82.85 63.05 80.88 65.54 80.97 68.17 C 80.24 68.72 79.49 69.25 78.78 69.82 C 81.36 72.25 81.98 75.81 82.79 79.09 C 83.18 80.59 83.34 82.36 82.07 83.52 C 82.00 85.01 81.97 86.50 81.95 88.00 L 80.75 87.92 C 81.41 83.79 82.55 79.52 80.63 75.52 C 79.33 70.25 74.67 67.26 70.27 64.78 C 67.82 61.16 65.77 57.27 63.02 53.85 C 68.06 55.14 68.53 61.04 71.77 64.28 C 74.51 66.44 78.04 64.75 80.99 64.03 C 80.29 61.56 79.83 58.89 78.13 56.88 C 75.49 53.82 73.41 50.17 69.97 47.90 C 67.37 45.95 64.29 44.86 61.26 43.80 C 60.10 41.20 58.73 38.66 58.14 35.86 C 57.47 31.45 58.55 26.91 57.48 22.54 C 56.94 20.04 54.88 18.38 53.21 16.62 C 51.80 17.63 50.35 18.60 48.83 19.43 C 49.61 17.87 50.44 16.33 51.29 14.81 C 50.72 14.19 50.14 13.58 49.55 12.97 C 49.19 13.27 48.46 13.86 48.10 14.15 M 76.38 66.47 C 76.64 66.73 76.64 66.73 76.38 66.47 Z" />
<path fill="#604f35" opacity="1.00" d=" M 32.76 14.03 C 33.38 13.31 34.00 12.58 34.62 11.85 C 34.98 12.44 35.71 13.62 36.08 14.22 L 36.48 14.81 C 37.84 14.65 39.20 13.89 40.56 14.21 C 41.89 15.08 42.94 16.29 43.99 17.46 C 43.96 17.82 43.90 18.55 43.87 18.91 C 43.58 18.89 42.99 18.86 42.70 18.85 C 41.60 17.51 40.55 16.13 39.50 14.75 L 39.04 15.55 C 37.66 16.42 35.93 15.83 34.40 15.96 C 33.99 15.48 33.17 14.51 32.76 14.03 Z" />
<path fill="#604f35" opacity="1.00" d=" M 21.32 32.31 C 23.16 30.48 25.12 28.02 28.00 28.22 C 25.95 31.78 22.37 34.65 22.96 39.23 C 22.96 39.63 22.95 40.42 22.94 40.81 C 22.94 41.68 22.94 43.43 22.94 44.30 C 21.43 44.09 20.90 42.64 20.14 41.54 C 20.16 39.56 20.16 37.57 20.25 35.59 C 20.84 34.57 21.20 33.48 21.32 32.31 Z" />
<path fill="#604f35" opacity="1.00" d=" M 49.73 37.33 C 52.34 35.96 54.07 33.47 56.12 31.44 C 54.23 34.81 54.13 38.69 55.84 42.16 C 55.62 41.71 55.18 40.83 54.96 40.38 C 54.71 40.13 54.19 39.61 53.93 39.36 C 50.61 39.07 47.26 39.40 43.93 39.28 L 43.42 39.27 L 42.37 39.26 C 41.48 38.69 40.61 38.10 39.75 37.48 C 43.06 37.62 46.52 38.44 49.73 37.33 Z" />
<path fill="#604f35" opacity="1.00" d=" M 40.21 34.31 C 40.74 34.78 40.74 34.78 40.21 34.31 Z" />
<path fill="#604f35" opacity="1.00" d=" M 44.23 34.36 C 44.78 34.79 44.78 34.79 44.23 34.36 Z" />
<path fill="#604f35" opacity="1.00" d=" M 25.46 55.99 L 26.29 56.18 C 25.73 58.03 24.82 59.75 23.77 61.38 C 26.08 65.30 31.32 63.98 34.35 61.73 C 33.46 63.16 32.05 64.06 30.60 64.84 C 28.83 64.89 27.12 65.32 25.45 65.90 C 25.13 65.39 24.48 64.36 24.16 63.85 C 24.21 64.54 24.31 65.91 24.35 66.60 L 23.16 67.10 C 23.16 64.99 23.15 62.89 23.16 60.78 C 24.03 59.24 24.80 57.64 25.46 55.99 Z" />
<path fill="#604f35" opacity="1.00" d=" M 37.32 70.14 C 37.33 70.28 37.34 70.54 37.34 70.67 L 37.32 70.14 Z" />
<path fill="#604f35" opacity="1.00" d=" M 65.01 69.41 C 66.00 70.44 66.89 71.70 66.83 73.20 C 65.91 72.76 65.03 72.26 64.20 71.70 C 64.40 71.13 64.81 69.99 65.01 69.41 Z" />
<path fill="#604f35" opacity="1.00" d=" M 32.27 72.56 L 32.12 73.22 C 31.97 73.87 31.66 75.18 31.51 75.83 C 31.07 78.28 29.54 80.84 30.69 83.30 C 31.82 86.93 35.27 88.87 38.27 90.78 C 40.26 92.38 42.86 91.58 45.16 91.46 C 41.58 92.36 38.20 93.94 35.94 96.96 C 36.20 95.23 37.48 94.02 38.66 92.85 C 36.52 91.10 34.09 89.75 31.85 88.14 C 30.73 86.72 30.12 84.98 29.17 83.46 C 28.80 80.71 30.09 78.18 30.27 75.48 C 30.77 74.75 31.77 73.29 32.27 72.56 Z" />
<path fill="#604f35" opacity="1.00" d=" M 67.57 74.04 C 68.11 75.13 68.58 76.25 69.09 77.37 C 68.75 76.79 68.07 75.64 67.73 75.06 C 65.49 76.71 63.12 78.20 60.50 79.15 C 62.95 77.57 65.52 76.15 67.57 74.04 Z" />
<path fill="#604f35" opacity="1.00" d=" M 36.81 75.93 C 40.80 77.86 44.69 80.55 49.34 80.33 C 53.19 80.57 56.96 79.55 60.77 79.13 C 57.80 80.26 54.67 80.79 51.53 81.18 C 49.21 80.84 46.84 80.72 44.55 80.20 C 42.14 79.37 39.94 77.94 37.38 77.55 C 37.92 79.31 38.47 81.06 39.12 82.78 C 38.69 82.50 37.83 81.92 37.40 81.63 C 37.04 79.75 36.84 77.84 36.81 75.93 Z" />
<path fill="#604f35" opacity="1.00" d=" M 69.22 77.62 C 70.99 78.36 72.11 80.88 70.18 82.12 L 69.91 81.54 C 69.60 80.25 69.37 78.94 69.22 77.62 Z" />
<path fill="#604f35" opacity="1.00" d=" M 44.55 84.24 C 45.22 83.34 47.69 83.35 47.54 84.78 C 46.88 85.67 44.41 85.66 44.55 84.24 Z" />
<path fill="#604f35" opacity="1.00" d=" M 40.30 84.74 C 43.22 86.21 46.11 87.77 49.15 88.97 C 53.71 88.11 58.32 89.32 62.90 88.82 L 63.06 89.98 C 58.90 90.36 54.36 89.03 50.47 90.76 L 50.06 90.63 C 48.23 90.05 46.40 89.42 44.49 89.10 C 42.99 87.76 41.29 86.54 40.30 84.74 Z" />
<path fill="#604f35" opacity="1.00" d=" M 63.28 86.28 C 63.77 86.79 63.77 86.79 63.28 86.28 Z" />
<path fill="#604f35" opacity="1.00" d=" M 59.37 87.16 C 62.23 85.42 59.73 90.47 59.37 87.16 Z" />
<path fill="#604f35" opacity="1.00" d=" M 46.86 98.75 C 47.28 96.73 47.36 94.46 49.03 93.01 C 49.11 94.30 48.80 95.47 48.09 96.52 C 48.01 97.50 47.92 98.49 47.84 99.48 C 47.22 100.41 46.88 101.45 46.83 102.59 C 46.13 103.77 45.36 104.91 44.47 105.97 C 44.07 105.63 43.28 104.97 42.89 104.63 C 43.37 104.51 44.33 104.26 44.81 104.14 C 45.63 102.40 46.32 100.59 46.86 98.75 Z" />
<path fill="#604f35" opacity="1.00" d=" M 33.17 100.40 C 33.85 99.40 34.61 98.45 35.42 97.55 C 34.80 99.37 34.44 101.26 34.27 103.17 C 33.99 104.44 33.90 105.71 34.02 107.00 C 35.11 106.90 35.93 106.36 36.48 105.39 L 36.74 105.02 C 36.55 105.81 36.16 107.38 35.97 108.17 C 37.41 107.83 38.66 107.13 39.72 106.04 C 39.95 107.23 40.61 107.95 41.70 108.20 L 41.90 109.23 C 40.68 109.14 39.59 108.73 38.65 108.00 C 37.17 109.92 35.07 108.45 33.37 107.78 C 32.97 106.98 32.58 106.19 32.18 105.40 C 33.76 104.21 33.00 102.07 33.17 100.40 Z" />
</g>
<g id="#0a2027ff">
<path fill="#0a2027" opacity="1.00" d=" M 64.54 12.36 C 66.00 11.99 67.32 11.30 68.61 10.53 C 65.18 15.39 58.61 13.59 53.57 14.13 C 56.34 11.37 61.18 14.32 64.54 12.36 Z" />
<path fill="#0a2027" opacity="1.00" d=" M 36.08 14.22 C 37.45 13.74 38.75 12.99 40.24 12.96 C 41.54 13.89 42.60 15.08 43.74 16.18 C 44.62 15.84 46.39 15.17 47.27 14.84 C 46.19 15.73 45.07 16.57 43.99 17.46 C 42.94 16.29 41.89 15.08 40.56 14.21 C 39.20 13.89 37.84 14.65 36.48 14.81 L 36.08 14.22 Z" />
<path fill="#0a2027" opacity="1.00" d=" M 39.50 14.75 C 40.55 16.13 41.60 17.51 42.70 18.85 L 41.17 18.98 C 40.74 23.18 40.64 27.77 37.79 31.18 C 38.34 33.31 39.04 35.40 39.75 37.48 C 37.18 35.84 37.06 32.73 36.85 29.99 C 35.61 29.33 34.38 28.68 33.13 28.05 C 31.43 28.29 29.71 28.49 28.00 28.22 L 26.55 27.52 C 27.29 27.20 28.77 26.56 29.51 26.24 C 31.09 26.05 32.62 25.63 34.11 25.07 C 35.67 25.69 36.66 27.30 37.92 28.37 C 37.77 26.66 38.02 25.04 38.66 23.49 C 39.22 21.47 40.10 19.57 41.24 17.81 C 40.69 17.24 39.59 16.11 39.04 15.55 L 39.50 14.75 Z" />
<path fill="#0a2027" opacity="1.00" d=" M 51.92 22.19 C 52.39 21.98 53.34 21.55 53.81 21.34 C 54.10 21.71 54.68 22.46 54.97 22.83 C 53.20 22.62 52.59 23.21 53.14 24.58 C 53.62 24.54 54.57 24.46 55.04 24.42 C 54.95 25.46 54.75 27.53 54.66 28.56 C 53.52 27.47 52.39 26.38 51.32 25.23 C 51.43 24.65 51.66 23.49 51.77 22.91 L 51.92 22.19 Z" />
<path fill="#0a2027" opacity="1.00" d=" M 72.33 26.10 C 75.05 26.02 78.06 25.39 80.55 26.76 C 82.75 26.83 84.75 27.67 86.56 28.89 C 87.05 28.95 88.03 29.07 88.52 29.13 C 90.74 31.21 94.34 32.30 95.00 35.63 C 88.59 30.54 80.79 26.99 72.47 27.19 C 72.16 28.01 71.54 29.66 71.23 30.49 C 73.13 29.36 75.08 27.56 77.48 28.30 C 75.51 29.18 73.48 30.03 71.76 31.35 C 71.69 31.43 71.54 31.57 71.47 31.65 C 70.98 32.53 70.51 33.41 70.06 34.31 C 68.93 34.46 67.83 34.71 66.76 35.06 C 68.85 32.22 70.24 28.91 72.33 26.10 Z" />
<path fill="#0a2027" opacity="1.00" d=" M 65.34 36.30 L 65.89 36.68 C 65.97 37.02 66.13 37.71 66.20 38.05 C 65.47 38.67 64.72 39.28 63.98 39.88 C 63.75 39.44 63.30 38.56 63.07 38.12 L 63.19 37.41 C 63.73 37.13 64.80 36.58 65.34 36.30 Z" />
<path fill="#0a2027" opacity="1.00" d=" M 96.24 36.52 C 96.32 36.57 96.48 36.69 96.56 36.74 C 96.48 36.69 96.32 36.57 96.24 36.52 Z" />
<path fill="#0a2027" opacity="1.00" d=" M 26.11 37.91 C 28.32 36.54 31.17 37.03 33.60 37.43 C 36.06 38.68 38.14 40.60 40.77 41.54 C 41.17 40.97 41.97 39.83 42.37 39.26 L 43.42 39.27 C 42.89 40.76 42.34 42.25 41.81 43.74 C 41.33 43.98 40.37 44.45 39.89 44.69 C 39.26 44.81 38.00 45.06 37.37 45.18 C 33.83 48.57 30.58 52.26 26.84 55.44 C 28.30 52.49 31.14 50.64 33.28 48.24 C 35.22 46.48 36.74 43.70 39.72 43.83 C 40.11 43.40 40.90 42.52 41.29 42.09 C 39.21 42.12 36.98 42.15 35.68 40.24 C 33.28 37.39 29.40 38.02 26.11 37.91 Z" />
<path fill="#0a2027" opacity="1.00" d=" M 87.14 39.14 C 88.18 38.33 89.39 37.77 90.60 37.26 C 92.27 37.54 93.95 37.74 95.64 37.71 C 95.84 37.50 96.22 37.10 96.42 36.89 C 97.80 38.24 98.97 39.78 99.98 41.42 C 99.99 42.62 100.00 43.82 100.02 45.02 C 99.61 45.00 98.79 44.98 98.38 44.97 C 97.56 42.50 95.42 40.91 93.63 39.17 C 92.47 39.16 91.47 38.78 90.64 38.04 C 89.66 38.90 88.38 39.01 87.14 39.14 Z" />
<path fill="#0a2027" opacity="1.00" d=" M 22.96 39.23 L 23.73 39.09 L 24.20 39.91 L 23.77 40.78 L 22.94 40.81 C 22.95 40.42 22.96 39.63 22.96 39.23 Z" />
<path fill="#0a2027" opacity="1.00" d=" M 81.77 41.50 C 83.25 40.98 84.72 40.43 86.17 39.83 C 84.95 40.95 83.68 42.01 82.45 43.13 C 81.37 43.04 80.38 42.70 79.48 42.12 C 77.15 42.14 74.45 41.30 72.45 42.88 C 71.35 42.95 70.26 43.00 69.17 43.04 C 72.88 40.56 77.56 41.13 81.77 41.50 Z" />
<path fill="#0a2027" opacity="1.00" d=" M 37.84 54.75 C 38.24 54.49 39.05 53.99 39.46 53.74 C 36.85 58.48 36.97 63.90 37.30 69.13 C 35.67 69.71 34.47 70.99 33.16 72.07 C 33.52 70.80 34.89 69.60 35.97 68.60 C 36.10 65.88 36.05 63.16 35.70 60.46 C 36.81 58.72 37.29 56.71 37.84 54.75 Z" />
</g>
<g id="#fcc769ff">
<path fill="#fcc769" opacity="1.00" d=" M 49.55 12.97 C 50.14 13.58 50.72 14.19 51.29 14.81 C 50.44 16.33 49.61 17.87 48.83 19.43 C 50.35 18.60 51.80 17.63 53.21 16.62 C 54.88 18.38 56.94 20.04 57.48 22.54 C 58.55 26.91 57.47 31.45 58.14 35.86 C 58.73 38.66 60.10 41.20 61.26 43.80 C 64.29 44.86 67.37 45.95 69.97 47.90 C 73.41 50.17 75.49 53.82 78.13 56.88 C 79.83 58.89 80.29 61.56 80.99 64.03 C 78.04 64.75 74.51 66.44 71.77 64.28 C 68.53 61.04 68.06 55.14 63.02 53.85 C 65.77 57.27 67.82 61.16 70.27 64.78 C 74.67 67.26 79.33 70.25 80.63 75.52 C 82.55 79.52 81.41 83.79 80.75 87.92 L 80.63 88.82 L 79.71 88.93 C 77.82 89.13 75.91 89.40 74.00 89.22 C 71.51 88.21 71.26 85.15 70.43 82.94 L 70.18 82.12 C 72.11 80.88 70.99 78.36 69.22 77.62 L 69.09 77.37 C 68.58 76.25 68.11 75.13 67.57 74.04 L 66.83 73.20 C 66.89 71.70 66.00 70.44 65.01 69.41 L 64.66 68.79 L 64.52 68.49 L 64.44 68.24 L 64.29 67.64 C 64.02 65.31 63.22 63.11 61.83 61.22 L 61.62 60.64 C 61.03 58.98 60.46 57.31 59.96 55.63 L 59.81 54.93 C 59.59 53.89 59.34 52.85 59.07 51.81 L 58.96 51.48 C 58.57 50.29 58.15 49.11 57.64 47.97 L 56.89 46.97 C 57.52 45.40 56.92 43.75 55.98 42.45 L 55.84 42.16 C 54.13 38.69 54.23 34.81 56.12 31.44 C 54.07 33.47 52.34 35.96 49.73 37.33 C 46.52 38.44 43.06 37.62 39.75 37.48 C 39.04 35.40 38.34 33.31 37.79 31.18 C 40.64 27.77 40.74 23.18 41.17 18.98 L 42.70 18.85 C 42.99 18.86 43.58 18.89 43.87 18.91 C 43.90 18.55 43.96 17.82 43.99 17.46 C 45.07 16.57 46.19 15.73 47.27 14.84 C 47.48 14.67 47.89 14.33 48.10 14.15 C 48.46 13.86 49.19 13.27 49.55 12.97 M 51.92 22.19 L 51.77 22.91 C 51.09 24.55 50.96 26.31 50.93 28.07 C 52.28 28.34 53.63 28.61 54.98 28.87 L 54.66 28.56 C 54.75 27.53 54.95 25.46 55.04 24.42 C 55.02 24.02 54.99 23.23 54.97 22.83 C 54.68 22.46 54.10 21.71 53.81 21.34 C 53.34 21.55 52.39 21.98 51.92 22.19 M 40.21 34.31 C 40.74 34.78 40.74 34.78 40.21 34.31 M 44.23 34.36 C 44.78 34.79 44.78 34.79 44.23 34.36 Z" />
<path fill="#fcc769" opacity="1.00" d=" M 72.47 27.19 C 80.79 26.99 88.59 30.54 95.00 35.63 C 95.31 35.85 95.93 36.30 96.24 36.52 C 96.32 36.57 96.48 36.69 96.56 36.74 L 96.42 36.89 C 96.22 37.10 95.84 37.50 95.64 37.71 C 91.33 32.10 84.22 29.50 77.48 28.30 C 75.08 27.56 73.13 29.36 71.23 30.49 C 71.54 29.66 72.16 28.01 72.47 27.19 Z" />
<path fill="#fcc769" opacity="1.00" d=" M 37.37 45.18 C 38.00 45.06 39.26 44.81 39.89 44.69 C 39.68 46.67 39.54 48.65 39.26 50.61 C 38.76 51.98 38.24 53.35 37.84 54.75 C 37.29 56.71 36.81 58.72 35.70 60.46 C 35.36 60.77 34.69 61.41 34.35 61.73 C 31.32 63.98 26.08 65.30 23.77 61.38 C 24.82 59.75 25.73 58.03 26.29 56.18 L 26.40 55.84 L 26.84 55.44 C 30.58 52.26 33.83 48.57 37.37 45.18 Z" />
<path fill="#fcc769" opacity="1.00" d=" M 33.16 72.07 C 34.47 70.99 35.67 69.71 37.30 69.13 L 37.32 70.14 L 37.34 70.67 C 37.18 72.42 36.92 74.17 36.81 75.93 C 36.84 77.84 37.04 79.75 37.40 81.63 C 37.83 81.92 38.69 82.50 39.12 82.78 C 39.51 83.43 39.90 84.09 40.30 84.74 C 41.29 86.54 42.99 87.76 44.49 89.10 C 39.97 89.91 35.56 87.71 32.86 84.14 C 31.22 81.71 31.59 78.61 31.51 75.83 C 31.66 75.18 31.97 73.87 32.12 73.22 C 32.38 72.93 32.90 72.35 33.16 72.07 Z" />
<path fill="#fcc769" opacity="1.00" d=" M 69.06 97.13 C 72.02 94.64 76.13 95.47 79.53 96.40 C 80.29 98.84 81.11 101.43 80.16 103.96 C 79.32 103.99 77.66 104.05 76.82 104.08 C 76.35 104.08 75.40 104.09 74.93 104.09 C 74.41 104.06 73.39 104.00 72.87 103.98 C 72.41 104.05 71.49 104.19 71.02 104.26 L 69.95 104.13 C 68.03 102.30 67.41 99.36 69.06 97.13 Z" />
<path fill="#fcc769" opacity="1.00" d=" M 36.34 100.80 C 36.22 98.72 37.53 96.13 39.97 96.48 C 42.54 96.02 44.78 97.48 46.86 98.75 C 46.32 100.59 45.63 102.40 44.81 104.14 C 44.33 104.26 43.37 104.51 42.89 104.63 C 42.60 104.54 42.01 104.34 41.72 104.25 C 39.89 103.33 36.95 103.12 36.34 100.80 Z" />
</g>
<g id="#be925bff">
<path fill="#be925b" opacity="1.00" d=" M 50.93 28.07 C 50.96 26.31 51.09 24.55 51.77 22.91 C 51.66 23.49 51.43 24.65 51.32 25.23 C 52.39 26.38 53.52 27.47 54.66 28.56 L 54.98 28.87 C 53.63 28.61 52.28 28.34 50.93 28.07 Z" />
<path fill="#be925b" opacity="1.00" d=" M 71.47 31.65 C 71.54 31.57 71.69 31.43 71.76 31.35 L 71.47 31.65 Z" />
<path fill="#be925b" opacity="1.00" d=" M 66.76 35.06 C 67.83 34.71 68.93 34.46 70.06 34.31 C 69.23 35.95 67.60 36.94 66.20 38.05 C 66.13 37.71 65.97 37.02 65.89 36.68 L 66.11 35.78 L 66.76 35.06 Z" />
<path fill="#be925b" opacity="1.00" d=" M 63.07 38.12 C 63.30 38.56 63.75 39.44 63.98 39.88 C 63.68 40.16 63.09 40.72 62.80 41.00 C 62.44 41.00 61.71 41.02 61.35 41.03 C 61.49 40.51 61.76 39.46 61.90 38.94 C 62.19 38.74 62.78 38.33 63.07 38.12 Z" />
<path fill="#be925b" opacity="1.00" d=" M 43.42 39.27 L 43.93 39.28 C 43.92 39.74 43.89 40.67 43.87 41.13 C 43.86 41.61 43.84 42.56 43.82 43.03 C 45.27 43.76 46.75 44.41 48.22 45.08 C 46.46 44.80 44.70 44.52 42.94 44.23 C 42.68 45.48 42.41 46.73 42.13 47.98 C 42.40 48.45 42.94 49.37 43.21 49.84 C 42.72 49.93 41.72 50.13 41.22 50.23 C 40.73 50.32 39.75 50.52 39.26 50.61 C 39.54 48.65 39.68 46.67 39.89 44.69 C 40.37 44.45 41.33 43.98 41.81 43.74 C 42.34 42.25 42.89 40.76 43.42 39.27 Z" />
<path fill="#be925b" opacity="1.00" d=" M 56.89 46.97 C 55.71 45.85 54.42 43.83 55.98 42.45 C 56.92 43.75 57.52 45.40 56.89 46.97 Z" />
<path fill="#be925b" opacity="1.00" d=" M 57.64 47.97 C 58.15 49.11 58.57 50.29 58.96 51.48 C 58.56 50.97 57.76 49.95 57.35 49.44 C 52.94 51.18 48.10 51.10 43.48 50.40 C 48.25 50.23 53.53 50.95 57.64 47.97 Z" />
<path fill="#be925b" opacity="1.00" d=" M 61.83 61.22 C 63.22 63.11 64.02 65.31 64.29 67.64 C 63.34 67.46 61.46 67.08 60.52 66.89 C 61.31 66.38 62.10 65.87 62.89 65.36 C 62.53 63.98 62.17 62.60 61.83 61.22 Z" />
<path fill="#be925b" opacity="1.00" d=" M 64.44 68.24 L 64.52 68.49 L 64.66 68.79 C 64.60 68.65 64.49 68.37 64.44 68.24 Z" />
<path fill="#be925b" opacity="1.00" d=" M 30.69 83.30 C 29.54 80.84 31.07 78.28 31.51 75.83 C 31.59 78.61 31.22 81.71 32.86 84.14 C 35.56 87.71 39.97 89.91 44.49 89.10 C 46.40 89.42 48.23 90.05 50.06 90.63 C 49.95 91.06 49.71 91.92 49.60 92.35 L 49.03 93.01 C 47.36 94.46 47.28 96.73 46.86 98.75 C 44.78 97.48 42.54 96.02 39.97 96.48 C 37.53 96.13 36.22 98.72 36.34 100.80 C 36.95 103.12 39.89 103.33 41.72 104.25 C 40.37 105.78 38.90 104.30 37.52 103.87 C 37.32 104.16 36.93 104.73 36.74 105.02 L 36.48 105.39 C 35.92 104.48 35.19 103.74 34.27 103.17 C 34.44 101.26 34.80 99.37 35.42 97.55 C 35.55 97.40 35.81 97.11 35.94 96.96 C 38.20 93.94 41.58 92.36 45.16 91.46 C 42.86 91.58 40.26 92.38 38.27 90.78 C 35.27 88.87 31.82 86.93 30.69 83.30 Z" />
<path fill="#be925b" opacity="1.00" d=" M 67.24 79.34 C 67.70 79.81 67.70 79.81 67.24 79.34 Z" />
<path fill="#be925b" opacity="1.00" d=" M 65.43 81.26 C 65.86 81.68 65.86 81.68 65.43 81.26 Z" />
<path fill="#be925b" opacity="1.00" d=" M 63.32 82.34 L 63.62 82.39 L 63.85 82.39 C 63.71 82.38 63.45 82.35 63.32 82.34 Z" />
<path fill="#be925b" opacity="1.00" d=" M 59.92 82.72 C 60.37 82.66 61.29 82.54 61.75 82.49 C 61.31 84.08 60.70 84.16 59.92 82.72 Z" />
<path fill="#be925b" opacity="1.00" d=" M 70.43 82.94 C 71.26 85.15 71.51 88.21 74.00 89.22 C 75.91 89.40 77.82 89.13 79.71 88.93 C 79.69 90.76 79.67 92.60 79.61 94.44 L 80.82 94.28 C 80.75 95.64 80.68 96.99 80.62 98.35 L 81.82 98.33 C 81.89 100.83 81.85 103.37 80.63 105.63 C 80.03 106.54 79.42 107.44 78.80 108.34 C 79.27 106.88 79.74 105.43 80.16 103.96 C 81.11 101.43 80.29 98.84 79.53 96.40 C 76.13 95.47 72.02 94.64 69.06 97.13 C 67.41 99.36 68.03 102.30 69.95 104.13 C 69.45 104.07 68.44 103.96 67.94 103.91 C 68.36 105.29 68.79 106.68 69.21 108.06 C 70.31 107.21 71.42 106.37 72.53 105.52 C 72.76 106.16 73.23 107.45 73.46 108.10 C 74.87 107.95 75.25 106.30 76.16 105.46 C 75.85 105.12 75.23 104.43 74.93 104.09 C 75.40 104.09 76.35 104.08 76.82 104.08 C 77.36 105.72 77.95 107.35 78.59 108.96 L 77.58 109.16 C 77.51 108.68 77.35 107.70 77.27 107.21 C 75.51 107.49 74.56 108.51 74.43 110.29 C 72.93 109.36 71.92 108.05 72.18 106.15 C 71.78 106.85 70.98 108.24 70.58 108.94 C 69.98 108.88 68.78 108.75 68.18 108.69 C 68.30 108.16 68.54 107.10 68.66 106.56 L 67.11 106.75 C 67.26 106.20 67.56 105.09 67.71 104.54 L 66.24 104.77 C 66.44 103.00 66.12 101.04 67.16 99.47 C 67.48 98.09 68.01 96.77 68.64 95.51 C 70.95 92.78 68.00 90.05 67.44 87.30 C 66.91 87.44 65.85 87.72 65.32 87.86 C 67.01 86.21 68.79 84.65 70.43 82.94 Z" />
<path fill="#be925b" opacity="1.00" d=" M 56.48 84.17 C 57.69 83.27 58.43 83.48 58.69 84.80 C 57.47 85.70 56.74 85.49 56.48 84.17 Z" />
<path fill="#be925b" opacity="1.00" d=" M 50.50 85.20 C 51.17 84.30 53.63 84.33 53.49 85.75 C 52.82 86.65 50.36 86.62 50.50 85.20 Z" />
<path fill="#be925b" opacity="1.00" d=" M 71.02 104.26 C 71.49 104.19 72.41 104.05 72.87 103.98 C 72.68 105.47 72.07 105.56 71.02 104.26 Z" />
</g>
<g id="#fdf7d2ff">
<path fill="#fdf7d2" opacity="1.00" d=" M 53.14 24.58 C 52.59 23.21 53.20 22.62 54.97 22.83 C 54.99 23.23 55.02 24.02 55.04 24.42 C 54.57 24.46 53.62 24.54 53.14 24.58 Z" />
<path fill="#fdf7d2" opacity="1.00" d=" M 43.87 41.13 C 47.19 44.14 51.60 42.21 54.96 40.38 C 55.18 40.83 55.62 41.71 55.84 42.16 L 55.98 42.45 C 54.42 43.83 55.71 45.85 56.89 46.97 L 57.64 47.97 C 53.53 50.95 48.25 50.23 43.48 50.40 C 48.10 51.10 52.94 51.18 57.35 49.44 C 57.76 49.95 58.56 50.97 58.96 51.48 L 59.07 51.81 C 59.04 52.34 58.98 53.40 58.95 53.92 C 53.25 56.92 46.32 57.04 40.59 54.05 C 40.79 52.78 40.99 51.50 41.22 50.23 C 41.72 50.13 42.72 49.93 43.21 49.84 C 42.94 49.37 42.40 48.45 42.13 47.98 C 42.41 46.73 42.68 45.48 42.94 44.23 C 44.70 44.52 46.46 44.80 48.22 45.08 C 46.75 44.41 45.27 43.76 43.82 43.03 C 43.84 42.56 43.86 41.61 43.87 41.13 M 50.39 44.17 C 50.69 45.43 51.48 45.63 52.76 44.79 C 52.46 43.53 51.67 43.33 50.39 44.17 Z" />
<path fill="#fdf7d2" opacity="1.00" d=" M 40.32 55.29 C 46.42 58.23 53.67 57.27 59.81 54.93 L 59.96 55.63 C 60.09 57.11 60.21 58.58 60.33 60.06 C 53.56 62.33 45.00 64.42 39.07 59.15 C 39.49 57.86 39.91 56.58 40.32 55.29 Z" />
<path fill="#fdf7d2" opacity="1.00" d=" M 40.23 66.76 C 38.17 65.62 38.84 63.08 39.03 61.19 C 46.02 65.61 54.43 63.08 61.62 60.64 L 61.83 61.22 C 62.17 62.60 62.53 63.98 62.89 65.36 C 62.10 65.87 61.31 66.38 60.52 66.89 C 61.46 67.08 63.34 67.46 64.29 67.64 L 64.44 68.24 C 64.49 68.37 64.60 68.65 64.66 68.79 L 65.01 69.41 C 64.81 69.99 64.40 71.13 64.20 71.70 C 65.03 72.26 65.91 72.76 66.83 73.20 L 67.57 74.04 C 65.52 76.15 62.95 77.57 60.50 79.15 C 63.12 78.20 65.49 76.71 67.73 75.06 C 68.07 75.64 68.75 76.79 69.09 77.37 L 69.22 77.62 C 69.37 78.94 69.60 80.25 69.91 81.54 C 67.92 82.07 65.88 82.25 63.85 82.39 L 63.62 82.39 L 63.32 82.34 C 62.92 82.38 62.14 82.45 61.75 82.49 C 61.29 82.54 60.37 82.66 59.92 82.72 C 57.06 82.64 54.19 82.29 51.53 81.18 C 54.67 80.79 57.80 80.26 60.77 79.13 C 56.96 79.55 53.19 80.57 49.34 80.33 C 47.13 79.19 45.21 77.60 43.52 75.80 C 50.39 76.38 58.58 76.86 63.95 71.72 C 57.57 73.86 50.70 76.03 43.99 74.03 C 40.86 73.66 40.01 70.32 38.79 67.96 C 43.32 69.37 48.37 71.54 53.01 69.34 C 48.75 68.62 44.12 68.92 40.23 66.76 M 58.32 67.23 C 58.58 70.52 61.28 65.57 58.32 67.23 M 54.41 68.36 C 54.70 69.62 55.47 69.79 56.72 68.87 C 56.43 67.61 55.66 67.44 54.41 68.36 M 67.24 79.34 C 67.70 79.81 67.70 79.81 67.24 79.34 M 65.43 81.26 C 65.86 81.68 65.86 81.68 65.43 81.26 Z" />
<path fill="#fdf7d2" opacity="1.00" d=" M 24.16 63.85 C 24.48 64.36 25.13 65.39 25.45 65.90 C 25.18 66.07 24.63 66.43 24.35 66.60 C 24.31 65.91 24.21 64.54 24.16 63.85 Z" />
<path fill="#fdf7d2" opacity="1.00" d=" M 76.38 66.47 C 76.64 66.73 76.64 66.73 76.38 66.47 Z" />
<path fill="#fdf7d2" opacity="1.00" d=" M 34.27 103.17 C 35.19 103.74 35.92 104.48 36.48 105.39 C 35.93 106.36 35.11 106.90 34.02 107.00 C 33.90 105.71 33.99 104.44 34.27 103.17 Z" />
<path fill="#fdf7d2" opacity="1.00" d=" M 36.74 105.02 C 36.93 104.73 37.32 104.16 37.52 103.87 C 38.90 104.30 40.37 105.78 41.72 104.25 C 42.01 104.34 42.60 104.54 42.89 104.63 C 43.28 104.97 44.07 105.63 44.47 105.97 C 43.54 106.71 42.62 107.45 41.70 108.20 C 40.61 107.95 39.95 107.23 39.72 106.04 C 38.66 107.13 37.41 107.83 35.97 108.17 C 36.16 107.38 36.55 105.81 36.74 105.02 Z" />
<path fill="#fdf7d2" opacity="1.00" d=" M 67.94 103.91 C 68.44 103.96 69.45 104.07 69.95 104.13 L 71.02 104.26 C 72.07 105.56 72.68 105.47 72.87 103.98 C 73.39 104.00 74.41 104.06 74.93 104.09 C 75.23 104.43 75.85 105.12 76.16 105.46 C 75.25 106.30 74.87 107.95 73.46 108.10 C 73.23 107.45 72.76 106.16 72.53 105.52 C 71.42 106.37 70.31 107.21 69.21 108.06 C 68.79 106.68 68.36 105.29 67.94 103.91 Z" />
<path fill="#fdf7d2" opacity="1.00" d=" M 76.82 104.08 C 77.66 104.05 79.32 103.99 80.16 103.96 C 79.74 105.43 79.27 106.88 78.80 108.34 L 78.59 108.96 C 77.95 107.35 77.36 105.72 76.82 104.08 Z" />
</g>
<g id="#1c7b7dff">
<path fill="#1c7b7d" opacity="1.00" d=" M 28.00 28.22 C 29.71 28.49 31.43 28.29 33.13 28.05 C 34.38 28.68 35.61 29.33 36.85 29.99 C 37.06 32.73 37.18 35.84 39.75 37.48 C 40.61 38.10 41.48 38.69 42.37 39.26 C 41.97 39.83 41.17 40.97 40.77 41.54 C 38.14 40.60 36.06 38.68 33.60 37.43 C 31.17 37.03 28.32 36.54 26.11 37.91 L 25.38 38.75 C 24.96 38.84 24.14 39.00 23.73 39.09 L 22.96 39.23 C 22.37 34.65 25.95 31.78 28.00 28.22 Z" />
<path fill="#1c7b7d" opacity="1.00" d=" M 71.76 31.35 C 73.48 30.03 75.51 29.18 77.48 28.30 C 84.22 29.50 91.33 32.10 95.64 37.71 C 93.95 37.74 92.27 37.54 90.60 37.26 C 89.39 37.77 88.18 38.33 87.14 39.14 C 86.90 39.31 86.42 39.65 86.17 39.83 C 84.72 40.43 83.25 40.98 81.77 41.50 C 77.56 41.13 72.88 40.56 69.17 43.04 C 68.44 43.41 66.99 44.16 66.27 44.53 C 64.79 44.05 63.33 43.52 61.86 43.01 C 62.10 42.51 62.56 41.50 62.80 41.00 C 63.09 40.72 63.68 40.16 63.98 39.88 C 64.72 39.28 65.47 38.67 66.20 38.05 C 67.60 36.94 69.23 35.95 70.06 34.31 C 70.51 33.41 70.98 32.53 71.47 31.65 L 71.76 31.35 Z" />
</g>
<g id="#b9aa95ff">
<path fill="#b9aa95" opacity="1.00" d=" M 43.93 39.28 C 47.26 39.40 50.61 39.07 53.93 39.36 C 54.19 39.61 54.71 40.13 54.96 40.38 C 51.60 42.21 47.19 44.14 43.87 41.13 C 43.89 40.67 43.92 39.74 43.93 39.28 Z" />
<path fill="#b9aa95" opacity="1.00" d=" M 50.39 44.17 C 51.67 43.33 52.46 43.53 52.76 44.79 C 51.48 45.63 50.69 45.43 50.39 44.17 Z" />
<path fill="#b9aa95" opacity="1.00" d=" M 39.26 50.61 C 39.75 50.52 40.73 50.32 41.22 50.23 C 40.99 51.50 40.79 52.78 40.59 54.05 C 46.32 57.04 53.25 56.92 58.95 53.92 C 58.98 53.40 59.04 52.34 59.07 51.81 C 59.34 52.85 59.59 53.89 59.81 54.93 C 53.67 57.27 46.42 58.23 40.32 55.29 C 39.91 56.58 39.49 57.86 39.07 59.15 C 45.00 64.42 53.56 62.33 60.33 60.06 C 60.21 58.58 60.09 57.11 59.96 55.63 C 60.46 57.31 61.03 58.98 61.62 60.64 C 54.43 63.08 46.02 65.61 39.03 61.19 C 38.84 63.08 38.17 65.62 40.23 66.76 C 44.12 68.92 48.75 68.62 53.01 69.34 C 48.37 71.54 43.32 69.37 38.79 67.96 C 40.01 70.32 40.86 73.66 43.99 74.03 C 50.70 76.03 57.57 73.86 63.95 71.72 C 58.58 76.86 50.39 76.38 43.52 75.80 C 45.21 77.60 47.13 79.19 49.34 80.33 C 44.69 80.55 40.80 77.86 36.81 75.93 C 36.92 74.17 37.18 72.42 37.34 70.67 C 37.34 70.54 37.33 70.28 37.32 70.14 L 37.30 69.13 C 36.97 63.90 36.85 58.48 39.46 53.74 C 39.05 53.99 38.24 54.49 37.84 54.75 C 38.24 53.35 38.76 51.98 39.26 50.61 Z" />
<path fill="#b9aa95" opacity="1.00" d=" M 58.32 67.23 C 61.28 65.57 58.58 70.52 58.32 67.23 Z" />
<path fill="#b9aa95" opacity="1.00" d=" M 54.41 68.36 C 55.66 67.44 56.43 67.61 56.72 68.87 C 55.47 69.79 54.70 69.62 54.41 68.36 Z" />
<path fill="#b9aa95" opacity="1.00" d=" M 37.38 77.55 C 39.94 77.94 42.14 79.37 44.55 80.20 C 46.84 80.72 49.21 80.84 51.53 81.18 C 54.19 82.29 57.06 82.64 59.92 82.72 C 60.70 84.16 61.31 84.08 61.75 82.49 C 62.14 82.45 62.92 82.38 63.32 82.34 C 63.45 82.35 63.71 82.38 63.85 82.39 C 65.88 82.25 67.92 82.07 69.91 81.54 L 70.18 82.12 L 70.43 82.94 C 68.79 84.65 67.01 86.21 65.32 87.86 L 64.50 88.67 C 64.10 88.71 63.30 88.78 62.90 88.82 C 58.32 89.32 53.71 88.11 49.15 88.97 C 46.11 87.77 43.22 86.21 40.30 84.74 C 39.90 84.09 39.51 83.43 39.12 82.78 C 38.47 81.06 37.92 79.31 37.38 77.55 M 44.55 84.24 C 44.41 85.66 46.88 85.67 47.54 84.78 C 47.69 83.35 45.22 83.34 44.55 84.24 M 56.48 84.17 C 56.74 85.49 57.47 85.70 58.69 84.80 C 58.43 83.48 57.69 83.27 56.48 84.17 M 50.50 85.20 C 50.36 86.62 52.82 86.65 53.49 85.75 C 53.63 84.33 51.17 84.30 50.50 85.20 M 63.28 86.28 C 63.77 86.79 63.77 86.79 63.28 86.28 M 59.37 87.16 C 59.73 90.47 62.23 85.42 59.37 87.16 Z" />
</g>
</svg>
