<?xml version="1.0" encoding="UTF-8" ?>
<!DOCTYPE svg PUBLIC "-//W3C//DTD SVG 1.1//EN" "http://www.w3.org/Graphics/SVG/1.1/DTD/svg11.dtd">
<svg width="120pt" height="120pt" viewBox="0 0 120 120" version="1.1" xmlns="http://www.w3.org/2000/svg">
<g id="#4b5154ef">
<path fill="#4b5154" opacity="0.94" d=" M 67.08 18.02 C 67.28 14.85 68.75 11.95 70.85 9.62 C 71.38 16.56 71.46 24.29 66.98 30.05 C 68.88 24.39 70.66 18.59 70.08 12.54 C 69.05 14.35 68.15 16.23 67.08 18.02 Z" />
</g>
<g id="#2a353ef9">
<path fill="#2a353e" opacity="0.98" d=" M 48.20 10.54 C 50.31 14.17 51.10 18.34 52.11 22.36 C 56.18 21.39 60.23 23.32 64.26 22.39 C 63.16 24.36 61.43 26.34 61.96 28.77 C 62.48 30.32 63.31 31.73 64.04 33.18 C 64.54 32.65 65.55 31.60 66.05 31.07 C 65.57 32.45 65.04 33.81 64.47 35.16 C 63.38 33.74 62.31 32.32 61.25 30.88 C 60.11 32.56 58.97 34.24 57.75 35.87 L 57.00 36.00 C 56.96 34.51 56.92 33.01 56.88 31.52 C 57.64 31.90 58.41 32.27 59.17 32.64 C 58.94 31.43 58.70 30.23 58.44 29.04 C 59.32 28.73 60.20 28.42 61.08 28.12 C 61.09 26.79 61.11 25.46 61.13 24.13 C 57.92 22.70 54.43 22.98 51.08 23.61 C 50.40 20.10 49.70 16.57 48.33 13.25 C 47.87 18.07 48.47 22.97 47.43 27.73 C 47.24 22.05 45.96 15.95 48.20 10.54 Z" />
</g>
<g id="#f9fbfcff">
<path fill="#f9fbfc" opacity="1.00" d=" M 67.08 18.02 C 68.15 16.23 69.05 14.35 70.08 12.54 C 70.66 18.59 68.88 24.39 66.98 30.05 C 66.75 30.30 66.28 30.82 66.05 31.07 C 65.55 31.60 64.54 32.65 64.04 33.18 C 63.31 31.73 62.48 30.32 61.96 28.77 C 61.43 26.34 63.16 24.36 64.26 22.39 C 65.17 20.92 66.14 19.48 67.08 18.02 Z" />
<path fill="#f9fbfc" opacity="1.00" d=" M 48.33 13.25 C 49.70 16.57 50.40 20.10 51.08 23.61 C 50.87 24.01 50.46 24.82 50.25 25.22 C 49.39 26.55 48.92 28.50 47.22 29.00 L 47.43 27.73 C 48.47 22.97 47.87 18.07 48.33 13.25 Z" />
</g>
<g id="#89baecff">
<path fill="#89baec" opacity="1.00" d=" M 51.08 23.61 C 54.43 22.98 57.92 22.70 61.13 24.13 C 61.11 25.46 61.09 26.79 61.08 28.12 C 60.20 28.42 59.32 28.73 58.44 29.04 C 58.70 30.23 58.94 31.43 59.17 32.64 C 58.41 32.27 57.64 31.90 56.88 31.52 C 56.92 33.01 56.96 34.51 57.00 36.00 L 57.75 35.87 C 58.42 35.79 59.75 35.62 60.42 35.54 C 60.70 33.99 60.97 32.43 61.25 30.88 C 62.31 32.32 63.38 33.74 64.47 35.16 C 64.09 35.59 63.34 36.44 62.96 36.87 C 62.08 37.75 61.18 38.60 60.21 39.39 C 57.13 40.71 53.00 42.91 50.07 40.07 C 48.92 36.60 49.01 32.89 48.87 29.28 C 50.38 29.28 51.89 29.29 53.40 29.26 C 53.35 28.51 53.30 27.75 53.25 27.00 C 52.08 26.75 50.92 26.49 49.76 26.23 L 50.25 25.22 C 50.46 24.82 50.87 24.01 51.08 23.61 Z" />
</g>
<g id="#edf0f1ff">
<path fill="#edf0f1" opacity="1.00" d=" M 50.34 27.23 C 51.25 26.45 53.47 27.48 52.72 28.75 C 51.81 29.53 49.60 28.50 50.34 27.23 Z" />
</g>
<g id="#6997bfff">
<path fill="#6997bf" opacity="1.00" d=" M 47.17 29.36 C 47.60 29.34 48.45 29.30 48.87 29.28 C 49.01 32.89 48.92 36.60 50.07 40.07 C 53.00 42.91 57.13 40.71 60.21 39.39 C 60.57 40.86 60.90 42.35 61.17 43.85 C 59.54 43.66 57.92 43.48 56.31 43.28 C 57.23 45.79 58.18 48.45 57.49 51.16 C 56.15 51.27 54.82 51.39 53.48 51.52 C 51.52 55.47 49.57 59.44 47.22 63.19 C 49.04 57.70 52.87 52.79 52.68 46.76 C 53.09 47.65 53.50 48.54 53.91 49.43 C 54.83 49.28 55.76 49.14 56.65 48.87 C 56.51 48.51 56.24 47.79 56.10 47.43 L 55.82 46.69 C 55.33 46.63 54.34 46.51 53.85 46.45 C 54.50 45.29 55.12 44.11 55.71 42.92 C 53.31 42.59 50.16 42.75 48.59 40.59 C 48.53 36.80 47.67 33.11 47.17 29.36 Z" />
</g>
<g id="#864162ff">
<path fill="#864162" opacity="1.00" d=" M 57.75 35.87 C 58.97 34.24 60.11 32.56 61.25 30.88 C 60.97 32.43 60.70 33.99 60.42 35.54 C 59.75 35.62 58.42 35.79 57.75 35.87 Z" />
</g>
<g id="#2a3d4efd">
<path fill="#2a3d4e" opacity="1.00" d=" M 60.21 39.39 C 61.18 38.60 62.08 37.75 62.96 36.87 C 62.44 49.88 55.56 61.87 55.92 75.03 C 55.78 80.98 59.32 86.83 64.90 89.10 C 68.33 91.29 72.26 89.02 75.94 89.10 C 80.83 89.11 85.74 88.83 90.62 89.28 C 94.18 91.50 95.01 95.86 95.21 99.75 L 94.43 99.82 C 93.58 96.40 93.24 92.07 89.67 90.30 C 83.37 89.74 76.94 89.78 70.68 90.83 C 63.41 92.22 56.20 85.89 55.34 78.78 C 53.86 66.78 58.58 55.34 61.17 43.85 C 60.90 42.35 60.57 40.86 60.21 39.39 Z" />
</g>
<g id="#86b5e6ff">
<path fill="#86b5e6" opacity="1.00" d=" M 56.31 43.28 C 57.92 43.48 59.54 43.66 61.17 43.85 C 58.58 55.34 53.86 66.78 55.34 78.78 C 56.20 85.89 63.41 92.22 70.68 90.83 C 76.94 89.78 83.37 89.74 89.67 90.30 C 93.24 92.07 93.58 96.40 94.43 99.82 C 91.27 99.95 88.12 100.19 84.96 100.41 C 77.94 100.92 70.41 100.81 64.33 96.77 C 60.03 92.65 54.95 88.54 53.65 82.40 C 51.22 71.83 55.70 61.46 57.49 51.16 C 58.18 48.45 57.23 45.79 56.31 43.28 Z" />
</g>
<g id="#a5e3feff">
<path fill="#a5e3fe" opacity="1.00" d=" M 53.85 46.45 C 54.34 46.51 55.33 46.63 55.82 46.69 L 56.10 47.43 C 55.88 49.44 52.74 48.06 53.85 46.45 Z" />
</g>
<g id="#ffffffff">
<path fill="#ffffff" opacity="1.00" d=" M 53.48 51.52 C 54.82 51.39 56.15 51.27 57.49 51.16 C 55.70 61.46 51.22 71.83 53.65 82.40 C 54.95 88.54 60.03 92.65 64.33 96.77 C 62.79 97.03 61.17 97.08 59.75 96.32 C 55.39 94.39 50.83 92.01 48.26 87.80 C 46.28 84.58 44.63 81.17 43.01 77.76 C 43.18 73.32 45.02 69.17 46.30 64.97 C 46.53 64.53 46.99 63.63 47.22 63.19 C 49.57 59.44 51.52 55.47 53.48 51.52 Z" />
</g>
<g id="#253440fc">
<path fill="#253440" opacity="1.00" d=" M 42.65 72.55 C 43.49 69.88 44.02 66.86 46.30 64.97 C 45.02 69.17 43.18 73.32 43.01 77.76 C 42.74 82.78 44.13 87.82 46.62 92.15 C 50.96 99.41 58.49 104.79 66.83 106.32 C 71.92 107.48 77.19 107.42 82.36 106.92 C 80.57 108.55 78.04 108.02 75.85 108.03 C 75.42 108.03 74.58 108.03 74.15 108.03 C 70.23 108.29 66.38 107.30 62.61 106.36 C 58.63 105.42 55.56 102.39 51.60 101.41 C 45.49 99.96 39.47 97.49 34.71 93.32 C 32.91 91.79 30.41 91.64 28.28 90.80 C 28.04 88.05 26.66 85.83 24.15 84.59 C 24.87 81.54 24.54 78.45 24.00 75.40 C 24.44 74.99 25.33 74.16 25.77 73.75 C 25.92 75.12 26.06 76.49 26.19 77.86 C 29.77 79.37 32.53 82.14 35.65 84.35 C 37.91 85.78 35.98 89.38 38.35 90.72 C 40.41 92.10 42.80 92.87 45.23 93.32 C 42.46 86.81 40.88 79.54 42.65 72.55 M 26.61 80.94 C 26.08 81.79 25.54 82.64 25.02 83.50 C 27.83 85.06 28.87 88.13 30.72 90.50 C 33.63 92.63 36.63 89.65 36.77 86.65 L 35.85 86.63 C 34.71 84.83 33.34 83.24 31.03 84.35 L 31.27 85.88 C 30.89 85.76 30.13 85.51 29.74 85.38 C 30.22 84.28 30.69 83.18 31.14 82.07 L 30.41 82.38 C 30.72 80.56 27.39 79.01 26.61 80.94 M 34.85 90.93 C 38.64 96.27 45.33 98.50 51.35 100.29 C 49.70 98.13 48.07 95.59 45.34 94.70 C 41.79 93.60 38.38 92.10 34.85 90.93 Z" />
</g>
<g id="#f0f3f4ff">
<path fill="#f0f3f4" opacity="1.00" d=" M 43.01 77.76 C 44.63 81.17 46.28 84.58 48.26 87.80 C 50.83 92.01 55.39 94.39 59.75 96.32 C 61.17 97.08 62.79 97.03 64.33 96.77 C 70.41 100.81 77.94 100.92 84.96 100.41 C 86.07 100.71 87.17 101.02 88.26 101.36 C 82.15 103.78 75.41 103.59 68.96 103.32 C 60.23 102.87 53.62 96.61 46.62 92.15 C 44.13 87.82 42.74 82.78 43.01 77.76 Z" />
</g>
<g id="#9ddefeff">
<path fill="#9ddefe" opacity="1.00" d=" M 26.61 80.94 C 27.39 79.01 30.72 80.56 30.41 82.38 C 28.99 83.34 27.25 82.35 26.61 80.94 Z" />
</g>
<g id="#3f82c9ff">
<path fill="#3f82c9" opacity="1.00" d=" M 25.02 83.50 C 25.54 82.64 26.08 81.79 26.61 80.94 C 27.25 82.35 28.99 83.34 30.41 82.38 L 31.14 82.07 C 30.69 83.18 30.22 84.28 29.74 85.38 C 30.13 85.51 30.89 85.76 31.27 85.88 C 32.73 86.48 34.29 86.63 35.85 86.63 L 36.77 86.65 C 36.63 89.65 33.63 92.63 30.72 90.50 C 28.87 88.13 27.83 85.06 25.02 83.50 Z" />
</g>
<g id="#c2fbffff">
<path fill="#c2fbff" opacity="1.00" d=" M 31.03 84.35 C 33.34 83.24 34.71 84.83 35.85 86.63 C 34.29 86.63 32.73 86.48 31.27 85.88 L 31.03 84.35 Z" />
</g>
<g id="#83b1e1ff">
<path fill="#83b1e1" opacity="1.00" d=" M 34.85 90.93 C 38.38 92.10 41.79 93.60 45.34 94.70 C 48.07 95.59 49.70 98.13 51.35 100.29 C 45.33 98.50 38.64 96.27 34.85 90.93 Z" />
</g>
<g id="#cbcac7ff">
<path fill="#cbcac7" opacity="1.00" d=" M 46.62 92.15 C 53.62 96.61 60.23 102.87 68.96 103.32 C 75.41 103.59 82.15 103.78 88.26 101.36 C 87.17 101.02 86.07 100.71 84.96 100.41 C 88.12 100.19 91.27 99.95 94.43 99.82 C 94.05 100.37 93.28 101.46 92.90 102.01 C 91.94 102.33 91.29 102.97 90.96 103.92 C 89.28 106.72 85.23 106.38 82.36 106.92 C 77.19 107.42 71.92 107.48 66.83 106.32 C 58.49 104.79 50.96 99.41 46.62 92.15 Z" />
</g>
<g id="#515150ff">
<path fill="#515150" opacity="1.00" d=" M 90.96 103.92 C 91.29 102.97 91.94 102.33 92.90 102.01 C 93.35 103.75 92.70 104.39 90.96 103.92 Z" />
</g>
<g id="#95cff0ff">
<path fill="#95cff0" opacity="1.00" d=" M 74.15 108.03 C 74.58 108.03 75.42 108.03 75.85 108.03 L 75.85 108.81 C 75.42 108.81 74.57 108.81 74.15 108.81 L 74.15 108.03 Z" />
</g>
</svg>
