<?xml version="1.0" encoding="UTF-8" ?>
<!DOCTYPE svg PUBLIC "-//W3C//DTD SVG 1.1//EN" "http://www.w3.org/Graphics/SVG/1.1/DTD/svg11.dtd">
<svg width="120pt" height="120pt" viewBox="0 0 120 120" version="1.1" xmlns="http://www.w3.org/2000/svg">
<g id="#474f55fa">
<path fill="#474f55" opacity="0.98" d=" M 66.59 32.93 C 68.82 29.71 71.37 26.35 75.05 24.73 C 74.52 27.80 72.62 30.68 73.06 33.87 C 73.79 38.34 72.65 42.83 72.89 47.34 C 71.05 46.32 69.43 44.96 67.86 43.57 C 67.30 44.75 66.76 45.95 65.94 46.98 C 66.05 46.30 66.29 44.95 66.40 44.27 C 66.84 40.97 66.35 37.61 65.55 34.41 C 63.82 30.50 59.00 30.24 55.32 29.80 C 55.90 31.35 56.44 32.92 56.87 34.52 C 55.61 34.72 54.35 34.92 53.09 35.11 C 53.18 33.64 53.28 32.18 53.35 30.71 L 53.38 30.10 C 57.87 27.99 63.23 29.46 66.59 32.93 M 67.00 36.89 C 66.70 40.34 70.08 42.06 72.08 44.23 C 72.12 41.76 72.18 39.28 72.44 36.82 C 71.56 36.80 69.78 36.77 68.89 36.76 C 69.85 36.37 70.81 35.99 71.78 35.62 C 72.13 32.92 72.57 30.23 73.02 27.54 C 70.06 29.84 66.98 32.84 67.00 36.89 M 54.37 33.17 C 54.97 33.77 54.97 33.77 54.37 33.17 Z" />
</g>
<g id="#505457ff">
<path fill="#505457" opacity="1.00" d=" M 47.90 30.74 C 48.19 29.65 48.88 28.73 49.46 27.77 C 49.94 29.44 50.37 31.13 51.11 32.72 C 50.36 34.17 49.62 35.62 48.84 37.06 C 48.62 37.27 48.19 37.69 47.98 37.90 C 47.99 35.51 47.94 33.13 47.90 30.74 Z" />
</g>
<g id="#faf9f7ff">
<path fill="#faf9f7" opacity="1.00" d=" M 67.00 36.89 C 66.98 32.84 70.06 29.84 73.02 27.54 C 72.57 30.23 72.13 32.92 71.78 35.62 C 70.81 35.99 69.85 36.37 68.89 36.76 C 69.78 36.77 71.56 36.80 72.44 36.82 C 72.18 39.28 72.12 41.76 72.08 44.23 C 70.08 42.06 66.70 40.34 67.00 36.89 Z" />
</g>
<g id="#c3d9fdff">
<path fill="#c3d9fd" opacity="1.00" d=" M 55.32 29.80 C 59.00 30.24 63.82 30.50 65.55 34.41 C 66.35 37.61 66.84 40.97 66.40 44.27 C 65.27 44.47 64.14 44.67 63.01 44.86 C 63.54 43.69 63.29 42.74 62.28 42.02 C 62.05 41.84 61.59 41.48 61.36 41.30 C 62.54 40.81 63.92 40.60 64.85 39.66 C 65.34 36.97 63.95 34.60 62.54 32.45 C 62.60 33.80 62.66 35.16 62.71 36.52 C 61.77 35.78 60.84 35.01 59.92 34.24 C 60.22 35.77 60.51 37.31 60.82 38.85 C 59.48 38.74 58.13 38.64 56.79 38.60 C 56.14 38.58 54.85 38.54 54.21 38.52 C 52.39 38.13 50.61 37.58 48.84 37.06 C 49.62 35.62 50.36 34.17 51.11 32.72 C 51.67 32.21 52.79 31.21 53.35 30.71 C 53.28 32.18 53.18 33.64 53.09 35.11 C 54.35 34.92 55.61 34.72 56.87 34.52 C 56.44 32.92 55.90 31.35 55.32 29.80 Z" />
</g>
<g id="#2c343cfc">
<path fill="#2c343c" opacity="1.00" d=" M 48.41 47.47 C 46.48 42.14 46.16 36.12 47.90 30.74 C 47.94 33.13 47.99 35.51 47.98 37.90 C 48.19 37.69 48.62 37.27 48.84 37.06 C 50.61 37.58 52.39 38.13 54.21 38.52 C 51.20 38.76 48.21 40.98 48.94 44.31 C 48.95 44.84 48.97 45.91 48.98 46.44 C 52.96 46.87 57.20 47.82 60.93 45.80 C 59.33 48.50 55.89 47.84 53.25 48.30 C 53.06 49.84 52.88 51.38 52.64 52.92 C 51.19 60.53 50.08 68.47 51.77 76.14 C 53.82 87.19 65.62 93.71 76.26 92.89 C 75.87 93.17 75.08 93.72 74.69 94.00 C 70.31 93.67 65.99 92.66 61.83 91.27 C 52.40 90.70 43.20 86.13 37.43 78.59 C 36.17 76.55 35.75 74.14 35.25 71.84 C 34.69 70.05 36.66 69.09 37.55 67.86 C 38.58 71.29 39.69 75.07 42.72 77.30 C 45.47 79.28 48.78 80.19 51.94 81.30 C 48.45 70.88 50.19 59.71 52.21 49.19 C 50.96 48.59 49.69 48.01 48.41 47.47 M 36.38 71.21 C 36.93 71.75 36.93 71.75 36.38 71.21 M 36.96 72.66 C 36.99 74.44 37.18 76.27 38.31 77.74 C 43.26 84.55 51.19 88.54 59.31 90.17 C 57.19 87.48 54.83 84.97 52.44 82.52 C 49.51 81.46 46.40 80.84 43.66 79.29 C 40.78 77.83 39.21 74.85 36.96 72.66 Z" />
</g>
<g id="#fffffdff">
<path fill="#fffffd" opacity="1.00" d=" M 54.37 33.17 C 54.97 33.77 54.97 33.77 54.37 33.17 Z" />
</g>
<g id="#32132fff">
<path fill="#32132f" opacity="1.00" d=" M 62.54 32.45 C 63.95 34.60 65.34 36.97 64.85 39.66 C 63.92 40.60 62.54 40.81 61.36 41.30 C 59.99 40.16 58.47 39.20 56.79 38.60 C 58.13 38.64 59.48 38.74 60.82 38.85 C 60.51 37.31 60.22 35.77 59.92 34.24 C 60.84 35.01 61.77 35.78 62.71 36.52 C 62.66 35.16 62.60 33.80 62.54 32.45 Z" />
</g>
<g id="#fefdfcff">
<path fill="#fefdfc" opacity="1.00" d=" M 48.94 44.31 C 48.21 40.98 51.20 38.76 54.21 38.52 C 54.85 38.54 56.14 38.58 56.79 38.60 C 58.47 39.20 59.99 40.16 61.36 41.30 C 61.59 41.48 62.05 41.84 62.28 42.02 C 62.29 42.75 62.32 44.23 62.33 44.97 L 61.57 45.08 C 57.35 45.63 53.01 45.69 48.94 44.31 Z" />
</g>
<g id="#373f47ff">
<path fill="#373f47" opacity="1.00" d=" M 62.28 42.02 C 63.29 42.74 63.54 43.69 63.01 44.86 L 62.33 44.97 C 62.32 44.23 62.29 42.75 62.28 42.02 Z" />
</g>
<g id="#cbcac6ff">
<path fill="#cbcac6" opacity="1.00" d=" M 48.94 44.31 C 53.01 45.69 57.35 45.63 61.57 45.08 L 60.93 45.80 C 57.20 47.82 52.96 46.87 48.98 46.44 C 48.97 45.91 48.95 44.84 48.94 44.31 Z" />
</g>
<g id="#8a9ec2ff">
<path fill="#8a9ec2" opacity="1.00" d=" M 63.01 44.86 C 64.14 44.67 65.27 44.47 66.40 44.27 C 66.29 44.95 66.05 46.30 65.94 46.98 C 62.64 53.89 63.80 61.62 63.77 69.01 C 64.52 72.41 65.28 77.02 69.18 78.13 C 73.67 79.44 79.00 76.96 83.06 79.93 C 84.76 82.09 85.71 85.93 83.83 88.12 C 83.82 85.31 84.06 81.44 81.07 79.99 C 77.02 78.35 72.52 79.59 68.33 78.75 C 64.84 77.90 63.65 73.93 63.15 70.81 C 62.66 65.08 63.38 59.32 62.77 53.59 C 62.21 53.34 61.07 52.85 60.51 52.60 C 58.95 51.54 57.36 50.52 55.62 49.79 C 54.95 50.82 54.27 51.85 53.57 52.87 L 52.64 52.92 C 52.88 51.38 53.06 49.84 53.25 48.30 C 55.89 47.84 59.33 48.50 60.93 45.80 L 61.57 45.08 L 62.33 44.97 L 63.01 44.86 Z" />
</g>
<g id="#d0cfcbff">
<path fill="#d0cfcb" opacity="1.00" d=" M 55.62 49.79 C 57.36 50.52 58.95 51.54 60.51 52.60 C 58.20 52.76 55.88 52.81 53.57 52.87 C 54.27 51.85 54.95 50.82 55.62 49.79 Z" />
</g>
<g id="#fdfcfaff">
<path fill="#fdfcfa" opacity="1.00" d=" M 51.77 76.14 C 50.08 68.47 51.19 60.53 52.64 52.92 L 53.57 52.87 C 55.88 52.81 58.20 52.76 60.51 52.60 C 61.26 61.86 60.49 71.66 64.81 80.21 C 66.70 83.96 70.48 86.14 74.14 87.87 C 65.15 89.70 55.99 83.92 51.77 76.14 Z" />
</g>
<g id="#b4c8eaff">
<path fill="#b4c8ea" opacity="1.00" d=" M 60.51 52.60 C 61.07 52.85 62.21 53.34 62.77 53.59 C 63.38 59.32 62.66 65.08 63.15 70.81 C 63.65 73.93 64.84 77.90 68.33 78.75 C 72.52 79.59 77.02 78.35 81.07 79.99 C 84.06 81.44 83.82 85.31 83.83 88.12 C 83.81 88.47 83.77 89.17 83.74 89.52 C 80.83 87.81 77.42 87.69 74.14 87.87 C 70.48 86.14 66.70 83.96 64.81 80.21 C 60.49 71.66 61.26 61.86 60.51 52.60 Z" />
</g>
<g id="#97a8c5ff">
<path fill="#97a8c5" opacity="1.00" d=" M 36.38 71.21 C 36.93 71.75 36.93 71.75 36.38 71.21 Z" />
</g>
<g id="#b3c7e8ff">
<path fill="#b3c7e8" opacity="1.00" d=" M 36.96 72.66 C 39.21 74.85 40.78 77.83 43.66 79.29 C 46.40 80.84 49.51 81.46 52.44 82.52 C 54.83 84.97 57.19 87.48 59.31 90.17 C 51.19 88.54 43.26 84.55 38.31 77.74 C 37.18 76.27 36.99 74.44 36.96 72.66 Z" />
</g>
<g id="#c5c4c0ff">
<path fill="#c5c4c0" opacity="1.00" d=" M 51.77 76.14 C 55.99 83.92 65.15 89.70 74.14 87.87 C 77.42 87.69 80.83 87.81 83.74 89.52 C 81.93 92.02 79.32 93.15 76.26 92.89 C 65.62 93.71 53.82 87.19 51.77 76.14 Z" />
</g>
</svg>
