<?xml version="1.0" encoding="UTF-8" ?>
<!DOCTYPE svg PUBLIC "-//W3C//DTD SVG 1.1//EN" "http://www.w3.org/Graphics/SVG/1.1/DTD/svg11.dtd">
<svg width="120pt" height="120pt" viewBox="0 0 120 120" version="1.1" xmlns="http://www.w3.org/2000/svg">
<g id="#625952ff">
<path fill="#625952" opacity="1.00" d=" M 48.39 31.18 C 50.11 31.19 51.84 31.19 53.56 31.18 C 54.32 31.96 55.09 32.74 55.85 33.51 C 58.37 32.16 61.98 30.31 64.63 32.07 C 66.51 32.22 68.58 31.93 70.04 33.41 C 71.26 32.67 72.44 31.87 73.69 31.17 C 75.49 31.18 77.28 31.21 79.08 31.22 C 78.98 31.75 78.79 32.80 78.69 33.33 C 77.38 31.85 75.30 32.28 73.58 31.93 C 72.59 32.69 71.60 33.46 70.60 34.21 C 69.42 33.90 68.25 33.55 67.08 33.21 C 63.94 32.52 60.75 32.53 57.60 33.14 C 54.50 34.91 51.72 37.25 50.14 40.51 C 49.44 43.62 49.34 46.80 50.27 49.88 C 57.33 49.12 65.06 51.87 71.48 47.87 C 66.77 53.11 59.07 51.88 52.77 52.04 C 52.29 51.72 51.34 51.08 50.87 50.76 C 50.00 51.22 49.14 51.68 48.27 52.14 C 47.64 55.00 47.11 57.89 46.94 60.82 C 46.50 60.06 46.07 59.31 45.64 58.55 C 46.53 55.68 47.40 52.80 48.40 49.96 C 47.17 50.45 45.92 50.91 44.67 51.35 C 44.05 51.58 42.81 52.05 42.18 52.28 C 41.88 53.38 41.59 54.48 41.30 55.59 C 40.55 53.84 39.83 52.08 39.08 50.34 C 38.99 51.79 38.91 53.24 38.83 54.70 C 37.51 54.95 36.19 55.20 34.86 55.45 C 34.90 54.59 34.98 52.87 35.02 52.01 C 34.54 52.01 33.59 52.00 33.11 52.00 C 33.82 54.60 33.98 57.42 35.37 59.78 C 37.70 62.63 41.75 61.87 44.98 62.08 L 44.72 60.34 C 45.35 60.99 45.98 61.65 46.60 62.31 C 46.05 63.61 45.49 64.91 44.93 66.21 C 47.71 67.05 50.00 68.86 52.48 70.28 C 56.24 74.78 62.46 75.78 68.01 75.61 C 72.70 75.29 77.65 73.56 80.49 69.62 C 78.15 68.70 75.82 67.77 73.44 66.95 C 75.47 67.08 77.47 67.43 79.42 68.01 C 80.50 66.50 81.43 64.89 82.27 63.24 C 79.71 62.99 76.82 63.17 74.80 61.28 C 71.74 58.99 71.91 54.82 71.52 51.43 C 72.31 51.94 73.12 52.41 73.94 52.86 C 74.21 52.66 74.76 52.27 75.03 52.08 C 75.04 52.82 75.05 54.31 75.06 55.06 C 74.46 54.70 73.24 53.99 72.64 53.63 C 72.77 58.81 77.32 62.82 82.49 62.10 C 83.40 61.21 84.30 60.32 85.21 59.44 C 84.81 57.33 84.34 55.24 83.91 53.14 C 82.39 51.98 80.88 50.70 79.01 50.13 C 77.80 52.02 77.85 54.30 77.65 56.45 C 77.10 54.97 76.47 53.49 75.33 52.36 L 75.03 52.08 C 74.80 51.40 74.35 50.03 74.13 49.35 L 74.09 51.69 C 73.56 51.02 73.04 50.34 72.52 49.66 C 73.07 49.22 74.17 48.34 74.72 47.91 C 75.23 48.87 75.78 49.83 76.34 50.77 C 76.72 50.55 77.47 50.10 77.85 49.87 C 77.94 45.56 75.47 41.50 73.91 37.53 C 75.15 36.13 76.96 34.68 76.24 32.50 L 77.92 33.32 C 78.59 35.31 77.04 36.47 75.74 37.62 C 76.19 39.27 76.70 40.89 77.21 42.52 C 77.94 44.47 78.41 46.55 79.60 48.29 C 81.16 49.85 83.19 50.84 84.80 52.35 C 85.37 54.66 86.12 56.97 85.93 59.39 C 84.40 60.98 85.00 63.26 84.81 65.22 C 88.44 70.16 87.00 76.92 85.49 82.41 L 84.86 81.39 C 85.47 76.61 87.12 71.47 84.53 66.94 C 82.62 67.01 82.23 69.22 81.43 70.56 C 79.64 75.13 76.95 79.24 74.22 83.29 C 77.29 84.70 80.53 83.86 83.60 82.93 C 85.18 84.54 84.83 86.85 84.99 88.89 C 81.16 88.87 77.32 89.14 73.50 88.80 C 71.11 87.84 72.22 84.54 73.78 83.32 C 71.89 84.77 69.41 84.58 67.42 85.75 C 64.62 86.01 61.74 85.94 59.13 84.77 C 58.84 85.89 58.54 87.90 56.97 87.82 C 51.86 87.95 46.73 88.07 41.62 87.73 C 42.33 86.55 43.23 85.51 44.17 84.51 C 43.16 82.85 42.19 81.18 41.24 79.50 C 41.21 77.49 41.21 75.47 41.17 73.45 C 41.82 72.47 42.52 71.52 43.27 70.62 C 41.98 74.94 42.82 79.48 45.47 83.11 C 48.24 83.29 51.01 83.53 53.78 83.84 C 48.06 81.36 44.04 75.83 44.21 69.50 C 44.25 67.16 43.53 64.36 45.75 62.74 C 41.31 63.21 35.03 63.82 33.22 58.53 C 33.20 57.57 33.16 56.62 33.12 55.66 C 31.72 54.35 32.07 52.41 33.15 51.09 C 34.26 51.15 35.38 51.21 36.50 51.26 C 37.37 50.37 38.26 49.47 39.14 48.59 C 40.16 49.66 40.83 50.91 41.13 52.34 C 43.25 50.64 46.06 50.34 48.25 48.78 C 47.90 45.98 48.85 43.31 49.42 40.61 C 51.74 37.77 47.89 35.36 46.82 32.89 C 47.21 32.46 48.00 31.61 48.39 31.18 M 48.89 32.19 C 50.08 33.42 51.27 34.63 52.47 35.84 C 52.90 35.31 53.75 34.24 54.18 33.70 C 53.79 33.27 53.02 32.41 52.63 31.98 C 51.38 32.05 50.14 32.12 48.89 32.19 M 36.10 52.27 C 35.61 53.71 36.07 54.16 37.47 53.60 C 37.96 52.17 37.50 51.73 36.10 52.27 M 44.50 85.16 C 44.10 85.62 43.29 86.53 42.88 86.98 C 46.30 87.05 49.71 87.09 53.12 87.01 C 52.78 86.56 52.09 85.66 51.74 85.21 C 49.33 85.22 46.92 85.24 44.50 85.16 M 73.76 86.27 C 73.93 86.65 74.26 87.41 74.43 87.79 C 77.51 88.06 80.65 88.11 83.72 87.69 C 84.80 86.60 82.58 85.86 82.03 85.11 C 79.56 86.70 76.52 86.02 73.76 86.27 Z" />
<path fill="#625952" opacity="1.00" d=" M 72.48 35.03 C 74.60 35.12 72.14 38.54 71.96 35.91 L 72.48 35.03 Z" />
<path fill="#625952" opacity="1.00" d=" M 65.16 42.95 C 66.54 43.12 67.91 43.11 69.28 42.93 C 70.01 43.67 70.74 44.42 71.46 45.18 C 70.70 44.82 69.17 44.12 68.41 43.77 C 67.07 44.33 65.99 45.35 64.79 46.14 C 65.12 45.46 65.78 44.08 66.10 43.39 L 65.16 42.95 Z" />
<path fill="#625952" opacity="1.00" d=" M 67.80 45.24 C 68.38 45.81 68.38 45.81 67.80 45.24 Z" />
<path fill="#625952" opacity="1.00" d=" M 53.09 47.21 C 56.35 47.47 51.53 50.26 53.09 47.21 Z" />
<path fill="#625952" opacity="1.00" d=" M 51.24 48.09 C 51.81 48.66 51.81 48.66 51.24 48.09 Z" />
<path fill="#625952" opacity="1.00" d=" M 80.18 52.10 C 81.46 52.67 81.45 54.63 80.96 55.75 C 79.56 55.89 78.60 52.59 80.18 52.10 Z" />
<path fill="#625952" opacity="1.00" d=" M 49.26 53.24 C 54.44 53.88 59.63 54.14 64.83 54.18 L 65.77 55.12 C 60.26 55.05 54.24 56.27 49.26 53.24 Z" />
<path fill="#625952" opacity="1.00" d=" M 68.25 53.40 C 68.84 53.90 68.84 53.90 68.25 53.40 Z" />
<path fill="#625952" opacity="1.00" d=" M 71.19 66.94 C 71.65 66.93 72.58 66.90 73.04 66.89 C 72.48 67.09 71.35 67.49 70.78 67.68 L 71.19 66.94 Z" />
<path fill="#625952" opacity="1.00" d=" M 56.18 68.16 C 56.64 68.12 57.57 68.05 58.03 68.01 C 57.50 68.26 56.42 68.74 55.89 68.99 L 56.18 68.16 Z" />
<path fill="#625952" opacity="1.00" d=" M 58.72 68.08 C 59.30 68.29 60.46 68.70 61.04 68.90 C 60.46 68.70 59.30 68.29 58.72 68.08 Z" />
<path fill="#625952" opacity="1.00" d=" M 63.94 70.13 C 64.70 70.15 66.24 70.17 67.00 70.19 C 66.38 71.59 64.53 71.53 63.94 70.13 Z" />
</g>
<g id="#ffef48ff">
<path fill="#ffef48" opacity="1.00" d=" M 48.89 32.19 C 50.14 32.12 51.38 32.05 52.63 31.98 C 53.02 32.41 53.79 33.27 54.18 33.70 C 53.75 34.24 52.90 35.31 52.47 35.84 C 51.27 34.63 50.08 33.42 48.89 32.19 Z" />
<path fill="#ffef48" opacity="1.00" d=" M 57.60 33.14 C 60.75 32.53 63.94 32.52 67.08 33.21 C 68.25 33.55 69.42 33.90 70.60 34.21 C 71.60 33.46 72.59 32.69 73.58 31.93 C 75.30 32.28 77.38 31.85 78.69 33.33 L 79.43 33.94 L 77.92 33.32 L 76.24 32.50 C 76.96 34.68 75.15 36.13 73.91 37.53 C 75.47 41.50 77.94 45.56 77.85 49.87 C 77.47 50.10 76.72 50.55 76.34 50.77 C 75.78 49.83 75.23 48.87 74.72 47.91 C 74.17 48.34 73.07 49.22 72.52 49.66 C 73.04 50.34 73.56 51.02 74.09 51.69 L 74.13 49.35 C 74.35 50.03 74.80 51.40 75.03 52.08 C 74.76 52.27 74.21 52.66 73.94 52.86 C 73.12 52.41 72.31 51.94 71.52 51.43 C 71.91 54.82 71.74 58.99 74.80 61.28 C 76.82 63.17 79.71 62.99 82.27 63.24 C 81.43 64.89 80.50 66.50 79.42 68.01 C 77.47 67.43 75.47 67.08 73.44 66.95 L 73.04 66.89 C 72.58 66.90 71.65 66.93 71.19 66.94 L 70.78 67.68 C 69.49 68.47 68.22 69.28 67.00 70.19 C 66.24 70.17 64.70 70.15 63.94 70.13 C 62.97 69.72 62.01 69.31 61.04 68.90 C 60.46 68.70 59.30 68.29 58.72 68.08 L 58.03 68.01 C 57.57 68.05 56.64 68.12 56.18 68.16 L 55.89 68.99 C 54.76 69.43 53.62 69.86 52.48 70.28 C 50.00 68.86 47.71 67.05 44.93 66.21 C 45.49 64.91 46.05 63.61 46.60 62.31 C 45.98 61.65 45.35 60.99 44.72 60.34 L 44.98 62.08 C 41.75 61.87 37.70 62.63 35.37 59.78 C 33.98 57.42 33.82 54.60 33.11 52.00 C 33.59 52.00 34.54 52.01 35.02 52.01 C 34.98 52.87 34.90 54.59 34.86 55.45 C 36.19 55.20 37.51 54.95 38.83 54.70 C 38.91 53.24 38.99 51.79 39.08 50.34 C 39.83 52.08 40.55 53.84 41.30 55.59 C 41.59 54.48 41.88 53.38 42.18 52.28 C 42.81 52.05 44.05 51.58 44.67 51.35 C 45.92 50.91 47.17 50.45 48.40 49.96 C 47.40 52.80 46.53 55.68 45.64 58.55 C 46.07 59.31 46.50 60.06 46.94 60.82 C 47.11 57.89 47.64 55.00 48.27 52.14 C 49.14 51.68 50.00 51.22 50.87 50.76 C 51.34 51.08 52.29 51.72 52.77 52.04 C 59.07 51.88 66.77 53.11 71.48 47.87 C 65.06 51.87 57.33 49.12 50.27 49.88 C 49.34 46.80 49.44 43.62 50.14 40.51 C 51.72 37.25 54.50 34.91 57.60 33.14 M 72.48 35.03 L 71.96 35.91 C 72.14 38.54 74.60 35.12 72.48 35.03 M 65.16 42.95 L 66.10 43.39 C 65.78 44.08 65.12 45.46 64.79 46.14 C 65.99 45.35 67.07 44.33 68.41 43.77 C 69.17 44.12 70.70 44.82 71.46 45.18 C 70.74 44.42 70.01 43.67 69.28 42.93 C 67.91 43.11 66.54 43.12 65.16 42.95 M 50.68 44.77 C 50.20 46.06 50.73 46.48 52.28 46.05 C 52.74 44.76 52.21 44.33 50.68 44.77 M 55.22 45.31 C 55.82 45.75 55.82 45.75 55.22 45.31 M 67.80 45.24 C 68.38 45.81 68.38 45.81 67.80 45.24 M 53.09 47.21 C 51.53 50.26 56.35 47.47 53.09 47.21 M 51.24 48.09 C 51.81 48.66 51.81 48.66 51.24 48.09 M 49.26 53.24 C 54.24 56.27 60.26 55.05 65.77 55.12 L 64.83 54.18 C 59.63 54.14 54.44 53.88 49.26 53.24 M 68.25 53.40 C 68.84 53.90 68.84 53.90 68.25 53.40 Z" />
<path fill="#ffef48" opacity="1.00" d=" M 79.01 50.13 C 80.88 50.70 82.39 51.98 83.91 53.14 C 84.34 55.24 84.81 57.33 85.21 59.44 C 84.30 60.32 83.40 61.21 82.49 62.10 C 77.32 62.82 72.77 58.81 72.64 53.63 C 73.24 53.99 74.46 54.70 75.06 55.06 C 75.05 54.31 75.04 52.82 75.03 52.08 L 75.33 52.36 C 76.47 53.49 77.10 54.97 77.65 56.45 C 77.85 54.30 77.80 52.02 79.01 50.13 M 80.18 52.10 C 78.60 52.59 79.56 55.89 80.96 55.75 C 81.45 54.63 81.46 52.67 80.18 52.10 Z" />
<path fill="#ffef48" opacity="1.00" d=" M 36.10 52.27 C 37.50 51.73 37.96 52.17 37.47 53.60 C 36.07 54.16 35.61 53.71 36.10 52.27 Z" />
<path fill="#ffef48" opacity="1.00" d=" M 44.50 85.16 C 46.92 85.24 49.33 85.22 51.74 85.21 C 52.09 85.66 52.78 86.56 53.12 87.01 C 49.71 87.09 46.30 87.05 42.88 86.98 C 43.29 86.53 44.10 85.62 44.50 85.16 Z" />
<path fill="#ffef48" opacity="1.00" d=" M 73.76 86.27 C 76.52 86.02 79.56 86.70 82.03 85.11 C 82.58 85.86 84.80 86.60 83.72 87.69 C 80.65 88.11 77.51 88.06 74.43 87.79 C 74.26 87.41 73.93 86.65 73.76 86.27 Z" />
</g>
<g id="#817871ff">
<path fill="#817871" opacity="1.00" d=" M 50.68 44.77 C 52.21 44.33 52.74 44.76 52.28 46.05 C 50.73 46.48 50.20 46.06 50.68 44.77 Z" />
<path fill="#817871" opacity="1.00" d=" M 55.22 45.31 C 55.82 45.75 55.82 45.75 55.22 45.31 Z" />
<path fill="#817871" opacity="1.00" d=" M 73.04 66.89 L 73.44 66.95 C 75.82 67.77 78.15 68.70 80.49 69.62 C 77.65 73.56 72.70 75.29 68.01 75.61 C 62.46 75.78 56.24 74.78 52.48 70.28 C 53.62 69.86 54.76 69.43 55.89 68.99 C 56.42 68.74 57.50 68.26 58.03 68.01 L 58.72 68.08 C 59.30 68.29 60.46 68.70 61.04 68.90 C 62.01 69.31 62.97 69.72 63.94 70.13 C 64.53 71.53 66.38 71.59 67.00 70.19 C 68.22 69.28 69.49 68.47 70.78 67.68 C 71.35 67.49 72.48 67.09 73.04 66.89 Z" />
<path fill="#817871" opacity="1.00" d=" M 81.43 70.56 C 82.23 69.22 82.62 67.01 84.53 66.94 C 87.12 71.47 85.47 76.61 84.86 81.39 L 84.72 82.64 L 83.60 82.93 C 80.53 83.86 77.29 84.70 74.22 83.29 C 76.95 79.24 79.64 75.13 81.43 70.56 Z" />
<path fill="#817871" opacity="1.00" d=" M 44.21 69.50 C 44.04 75.83 48.06 81.36 53.78 83.84 C 51.01 83.53 48.24 83.29 45.47 83.11 C 42.82 79.48 41.98 74.94 43.27 70.62 C 43.51 70.34 43.97 69.78 44.21 69.50 Z" />
</g>
</svg>
