<?xml version="1.0" encoding="UTF-8" ?>
<!DOCTYPE svg PUBLIC "-//W3C//DTD SVG 1.1//EN" "http://www.w3.org/Graphics/SVG/1.1/DTD/svg11.dtd">
<svg width="120pt" height="120pt" viewBox="0 0 120 120" version="1.1" xmlns="http://www.w3.org/2000/svg">
<g id="#323332f6">
<path fill="#323332" opacity="0.96" d=" M 54.97 45.03 C 56.74 39.68 61.23 34.91 66.97 34.07 C 71.97 33.33 77.33 35.68 79.96 40.02 C 83.92 45.86 80.71 53.23 82.32 59.66 C 83.34 62.24 84.97 64.54 85.82 67.18 C 86.12 70.49 85.88 73.81 85.90 77.13 C 86.47 76.80 87.62 76.14 88.19 75.81 C 91.04 78.36 93.47 81.33 95.29 84.69 C 92.90 85.26 90.52 86.00 88.04 85.95 C 73.37 85.93 58.69 85.90 44.01 85.95 C 37.29 86.32 30.73 84.35 24.00 84.89 C 24.04 84.25 24.14 82.96 24.19 82.32 C 26.00 81.18 27.73 79.86 28.75 77.93 C 29.33 78.24 30.49 78.87 31.07 79.19 C 28.69 80.46 26.51 82.06 24.63 84.00 C 28.14 84.74 31.43 83.70 33.93 81.17 C 34.70 82.48 35.47 83.78 36.24 85.09 C 52.16 85.35 68.09 85.11 84.01 85.23 C 87.15 85.29 90.28 84.88 93.32 84.14 C 91.88 81.87 90.73 78.94 88.02 77.91 C 85.09 78.11 82.26 79.05 79.62 80.30 C 78.47 79.79 77.33 79.30 76.15 78.90 C 75.92 80.95 77.91 81.97 79.10 83.28 C 78.48 83.12 77.23 82.81 76.61 82.65 C 74.38 80.62 71.73 79.17 68.99 77.96 L 69.41 77.62 C 74.54 79.17 79.80 77.66 85.01 77.77 C 85.30 73.38 85.89 68.69 83.63 64.68 C 82.30 62.06 80.65 59.34 77.77 58.22 C 73.89 56.02 69.35 57.11 65.31 58.16 C 65.40 57.86 65.59 57.27 65.69 56.97 C 70.77 55.57 76.12 55.96 81.01 57.90 C 81.10 52.50 82.22 46.74 79.73 41.69 C 77.12 37.44 72.25 34.33 67.14 35.05 C 61.37 35.82 57.30 40.74 55.76 46.07 L 55.00 45.81 C 48.78 42.59 39.81 44.10 36.64 50.82 C 34.52 55.51 33.91 60.74 34.06 65.84 C 34.14 69.66 33.96 73.48 33.41 77.25 C 35.38 77.24 37.36 77.12 39.32 76.83 C 39.11 77.28 38.70 78.19 38.49 78.64 C 35.62 78.98 32.87 77.59 30.06 77.19 C 31.22 75.91 33.38 75.07 33.07 73.01 C 33.21 65.70 32.35 58.05 35.36 51.15 C 38.41 43.95 48.38 40.62 54.97 45.03 M 33.09 83.31 C 33.63 83.84 33.63 83.84 33.09 83.31 Z" />
</g>
<g id="#d7b191ff">
<path fill="#d7b191" opacity="1.00" d=" M 55.76 46.07 C 57.30 40.74 61.37 35.82 67.14 35.05 C 72.25 34.33 77.12 37.44 79.73 41.69 C 78.82 45.05 78.37 49.07 75.24 51.21 C 72.89 53.25 69.64 52.78 66.80 52.48 C 67.79 51.59 68.79 50.70 69.79 49.81 C 69.67 47.03 69.60 44.24 69.23 41.48 C 68.64 43.12 68.10 44.76 67.59 46.42 C 65.85 46.26 64.10 46.13 62.36 46.02 C 62.14 45.19 61.70 43.52 61.47 42.68 C 60.88 44.69 60.38 46.72 59.88 48.75 C 58.57 47.76 57.29 46.71 55.76 46.07 Z" />
</g>
<g id="#584842ff">
<path fill="#584842" opacity="1.00" d=" M 69.23 41.48 C 69.60 44.24 69.67 47.03 69.79 49.81 C 68.79 50.70 67.79 51.59 66.80 52.48 C 64.83 52.26 62.87 52.06 60.91 51.87 C 61.50 54.55 62.27 57.20 63.55 59.64 C 62.73 60.48 61.92 61.33 61.11 62.18 C 61.03 58.68 60.86 55.10 59.40 51.86 C 58.25 49.63 56.65 47.68 55.00 45.81 L 55.76 46.07 C 57.29 46.71 58.57 47.76 59.88 48.75 C 60.38 46.72 60.88 44.69 61.47 42.68 C 61.70 43.52 62.14 45.19 62.36 46.02 C 64.10 46.13 65.85 46.26 67.59 46.42 C 68.10 44.76 68.64 43.12 69.23 41.48 M 63.36 47.32 C 62.18 47.78 60.53 48.10 61.11 49.76 C 62.92 51.77 67.36 51.55 68.71 49.10 C 67.13 48.16 65.33 46.30 63.36 47.32 Z" />
</g>
<g id="#c3a183ff">
<path fill="#c3a183" opacity="1.00" d=" M 79.73 41.69 C 82.22 46.74 81.10 52.50 81.01 57.90 C 76.12 55.96 70.77 55.57 65.69 56.97 C 65.59 57.27 65.40 57.86 65.31 58.16 C 64.70 60.09 63.86 61.95 63.37 63.92 C 63.76 66.55 65.32 68.83 66.64 71.09 C 67.62 72.46 68.43 74.40 70.33 74.64 C 72.67 74.70 74.96 74.09 77.25 73.67 C 76.85 73.49 76.06 73.12 75.67 72.94 C 76.25 72.66 77.40 72.10 77.98 71.82 C 78.37 71.46 79.13 70.74 79.51 70.37 C 81.00 68.56 82.30 66.61 83.63 64.68 C 85.89 68.69 85.30 73.38 85.01 77.77 C 79.80 77.66 74.54 79.17 69.41 77.62 L 68.99 77.96 C 68.75 78.18 68.26 78.61 68.02 78.83 C 65.09 78.15 62.16 77.51 59.24 76.78 C 59.03 72.04 59.20 67.30 59.66 62.57 C 58.34 65.20 57.81 68.10 57.93 71.03 C 54.41 74.38 49.70 77.11 44.68 75.61 C 39.29 75.18 35.45 70.80 34.06 65.84 C 33.91 60.74 34.52 55.51 36.64 50.82 C 36.93 55.98 36.64 62.28 41.19 65.80 C 45.23 69.49 51.79 68.04 55.17 64.17 C 58.40 60.95 59.26 56.25 59.40 51.86 C 60.86 55.10 61.03 58.68 61.11 62.18 C 61.92 61.33 62.73 60.48 63.55 59.64 C 62.27 57.20 61.50 54.55 60.91 51.87 C 62.87 52.06 64.83 52.26 66.80 52.48 C 69.64 52.78 72.89 53.25 75.24 51.21 C 78.37 49.07 78.82 45.05 79.73 41.69 Z" />
</g>
<g id="#d5af8fff">
<path fill="#d5af8f" opacity="1.00" d=" M 36.64 50.82 C 39.81 44.10 48.78 42.59 55.00 45.81 C 56.65 47.68 58.25 49.63 59.40 51.86 C 59.26 56.25 58.40 60.95 55.17 64.17 C 51.79 68.04 45.23 69.49 41.19 65.80 C 36.64 62.28 36.93 55.98 36.64 50.82 M 42.16 52.22 C 41.93 55.07 41.33 57.86 41.05 60.70 C 42.37 62.68 45.01 61.89 47.01 62.10 C 48.69 61.93 50.89 62.50 51.88 60.71 C 51.59 57.33 52.56 53.33 50.10 50.57 C 49.92 52.61 49.92 54.66 50.00 56.71 C 48.03 56.32 46.03 56.04 44.03 55.82 C 44.01 54.21 43.99 52.60 43.96 50.99 C 43.51 51.30 42.61 51.91 42.16 52.22 Z" />
</g>
<g id="#fbd0ecff">
<path fill="#fbd0ec" opacity="1.00" d=" M 63.36 47.32 C 65.33 46.30 67.13 48.16 68.71 49.10 C 67.36 51.55 62.92 51.77 61.11 49.76 C 60.53 48.10 62.18 47.78 63.36 47.32 Z" />
</g>
<g id="#584945ff">
<path fill="#584945" opacity="1.00" d=" M 42.16 52.22 C 42.61 51.91 43.51 51.30 43.96 50.99 C 43.99 52.60 44.01 54.21 44.03 55.82 C 46.03 56.04 48.03 56.32 50.00 56.71 C 49.92 54.66 49.92 52.61 50.10 50.57 C 52.56 53.33 51.59 57.33 51.88 60.71 C 50.89 62.50 48.69 61.93 47.01 62.10 C 45.01 61.89 42.37 62.68 41.05 60.70 C 41.33 57.86 41.93 55.07 42.16 52.22 M 41.83 59.00 C 43.42 62.41 47.77 60.54 50.72 60.80 C 50.79 60.16 50.93 58.87 51.00 58.23 C 47.98 57.29 44.18 55.99 41.83 59.00 Z" />
</g>
<g id="#fcd1eeff">
<path fill="#fcd1ee" opacity="1.00" d=" M 41.83 59.00 C 44.18 55.99 47.98 57.29 51.00 58.23 C 50.93 58.87 50.79 60.16 50.72 60.80 C 47.77 60.54 43.42 62.41 41.83 59.00 Z" />
</g>
<g id="#d8b291ff">
<path fill="#d8b291" opacity="1.00" d=" M 65.31 58.16 C 69.35 57.11 73.89 56.02 77.77 58.22 C 80.65 59.34 82.30 62.06 83.63 64.68 C 82.30 66.61 81.00 68.56 79.51 70.37 C 78.48 67.22 77.47 63.94 75.06 61.53 C 75.18 63.39 75.40 65.24 75.65 67.09 C 74.17 67.31 72.69 67.63 71.19 67.67 C 69.61 66.49 68.25 65.05 66.76 63.76 C 67.46 65.98 68.17 68.21 69.16 70.33 C 69.64 71.23 70.15 72.12 70.69 72.99 C 69.31 72.42 67.96 71.76 66.64 71.09 C 65.32 68.83 63.76 66.55 63.37 63.92 C 63.86 61.95 64.70 60.09 65.31 58.16 Z" />
</g>
<g id="#483f3aff">
<path fill="#483f3a" opacity="1.00" d=" M 75.06 61.53 C 77.47 63.94 78.48 67.22 79.51 70.37 C 79.13 70.74 78.37 71.46 77.98 71.82 C 77.97 71.12 77.95 69.71 77.94 69.01 C 74.90 67.53 71.84 68.62 69.16 70.33 C 68.17 68.21 67.46 65.98 66.76 63.76 C 68.25 65.05 69.61 66.49 71.19 67.67 C 72.69 67.63 74.17 67.31 75.65 67.09 C 75.40 65.24 75.18 63.39 75.06 61.53 Z" />
</g>
<g id="#4c4036ff">
<path fill="#4c4036" opacity="1.00" d=" M 57.93 71.03 C 57.81 68.10 58.34 65.20 59.66 62.57 C 59.20 67.30 59.03 72.04 59.24 76.78 C 62.16 77.51 65.09 78.15 68.02 78.83 C 67.77 79.05 67.27 79.49 67.02 79.71 C 60.42 78.52 53.47 77.41 47.06 80.11 C 44.50 78.97 41.92 77.86 39.32 76.83 C 42.60 76.14 45.70 78.01 48.97 77.94 C 51.96 77.88 54.92 77.29 57.89 76.93 C 57.91 74.96 57.91 73.00 57.93 71.03 Z" />
</g>
<g id="#a78a70ff">
<path fill="#a78a70" opacity="1.00" d=" M 34.06 65.84 C 35.45 70.80 39.29 75.18 44.68 75.61 C 49.70 77.11 54.41 74.38 57.93 71.03 C 57.91 73.00 57.91 74.96 57.89 76.93 C 54.92 77.29 51.96 77.88 48.97 77.94 C 45.70 78.01 42.60 76.14 39.32 76.83 C 37.36 77.12 35.38 77.24 33.41 77.25 C 33.96 73.48 34.14 69.66 34.06 65.84 Z" />
</g>
<g id="#fdd5f2ff">
<path fill="#fdd5f2" opacity="1.00" d=" M 69.16 70.33 C 71.84 68.62 74.90 67.53 77.94 69.01 C 77.95 69.71 77.97 71.12 77.98 71.82 C 77.40 72.10 76.25 72.66 75.67 72.94 C 74.01 72.98 72.33 73.29 70.69 72.99 C 70.15 72.12 69.64 71.23 69.16 70.33 Z" />
</g>
<g id="#564244ff">
<path fill="#564244" opacity="1.00" d=" M 66.64 71.09 C 67.96 71.76 69.31 72.42 70.69 72.99 C 72.33 73.29 74.01 72.98 75.67 72.94 C 76.06 73.12 76.85 73.49 77.25 73.67 C 74.96 74.09 72.67 74.70 70.33 74.64 C 68.43 74.40 67.62 72.46 66.64 71.09 Z" />
</g>
<g id="#9c9c9cff">
<path fill="#9c9c9c" opacity="1.00" d=" M 30.06 77.19 C 32.87 77.59 35.62 78.98 38.49 78.64 C 38.70 78.19 39.11 77.28 39.32 76.83 C 41.92 77.86 44.50 78.97 47.06 80.11 C 53.47 77.41 60.42 78.52 67.02 79.71 C 67.27 79.49 67.77 79.05 68.02 78.83 C 68.26 78.61 68.75 78.18 68.99 77.96 C 71.73 79.17 74.38 80.62 76.61 82.65 C 77.23 82.81 78.48 83.12 79.10 83.28 C 77.91 81.97 75.92 80.95 76.15 78.90 C 77.33 79.30 78.47 79.79 79.62 80.30 C 82.26 79.05 85.09 78.11 88.02 77.91 C 90.73 78.94 91.88 81.87 93.32 84.14 C 90.28 84.88 87.15 85.29 84.01 85.23 C 68.09 85.11 52.16 85.35 36.24 85.09 C 35.47 83.78 34.70 82.48 33.93 81.17 C 31.43 83.70 28.14 84.74 24.63 84.00 C 26.51 82.06 28.69 80.46 31.07 79.19 C 30.49 78.87 29.33 78.24 28.75 77.93 C 29.07 77.74 29.73 77.37 30.06 77.19 Z" />
<path fill="#9c9c9c" opacity="1.00" d=" M 33.09 83.31 C 33.63 83.84 33.63 83.84 33.09 83.31 Z" />
</g>
</svg>
