<?xml version="1.0" encoding="UTF-8" ?>
<!DOCTYPE svg PUBLIC "-//W3C//DTD SVG 1.1//EN" "http://www.w3.org/Graphics/SVG/1.1/DTD/svg11.dtd">
<svg width="120pt" height="120pt" viewBox="0 0 120 120" version="1.1" xmlns="http://www.w3.org/2000/svg">
<g id="#5d3508ff">
<path fill="#5d3508" opacity="1.00" d=" M 82.50 35.34 C 86.33 34.23 90.05 32.78 93.91 31.80 C 93.94 32.60 93.99 34.19 94.01 34.98 L 92.61 34.91 C 92.78 34.37 93.12 33.29 93.29 32.75 C 92.60 33.00 91.21 33.51 90.52 33.76 C 89.51 34.07 88.50 34.39 87.50 34.70 C 86.49 35.08 85.48 35.46 84.49 35.85 C 84.03 35.95 83.11 36.16 82.65 36.26 C 80.31 37.43 77.92 38.50 75.48 39.44 C 77.52 37.61 80.04 36.49 82.50 35.34 Z" />
<path fill="#5d3508" opacity="1.00" d=" M 25.97 34.28 C 26.44 33.96 27.37 33.31 27.84 32.98 C 29.04 33.50 30.25 33.98 31.51 34.36 C 34.22 35.64 36.93 36.96 39.47 38.57 C 42.60 40.85 45.16 43.79 47.90 46.51 C 45.88 51.93 45.03 58.21 47.61 63.59 C 49.21 66.59 52.97 67.07 56.03 66.99 C 60.28 66.97 65.21 66.38 68.12 62.92 C 70.90 58.10 69.57 52.31 68.09 47.29 C 70.57 45.34 72.88 43.18 75.34 41.21 C 80.00 37.63 85.88 36.40 91.31 34.47 C 91.48 34.98 91.83 36.02 92.01 36.54 L 92.06 36.70 C 88.28 41.12 85.25 46.35 80.11 49.39 C 80.91 52.73 81.70 56.33 80.30 59.64 C 80.12 60.37 79.76 61.84 79.58 62.58 L 78.97 61.36 C 79.93 57.57 80.54 53.63 79.21 49.85 C 76.46 50.65 73.70 51.43 70.95 52.25 C 71.03 54.54 71.11 56.83 71.20 59.13 C 73.14 60.69 75.01 62.33 76.81 64.04 C 75.80 66.04 76.79 68.15 76.98 70.21 C 76.60 71.19 76.25 72.18 75.92 73.17 C 77.06 74.66 76.92 76.51 76.93 78.25 C 75.53 80.45 76.07 83.13 75.95 85.58 C 75.30 85.96 73.99 86.71 73.33 87.08 C 71.95 86.88 70.56 86.64 69.24 86.14 C 68.67 86.80 68.11 87.47 67.55 88.13 C 65.09 88.17 62.74 87.55 60.63 86.31 C 58.34 87.17 55.87 86.98 53.48 86.98 C 53.14 86.64 52.45 85.96 52.11 85.61 C 52.49 84.86 53.26 83.36 53.64 82.61 L 54.09 83.87 C 54.26 84.36 54.61 85.35 54.78 85.84 C 56.39 85.32 60.36 85.86 59.73 83.32 C 58.26 82.52 56.77 81.78 55.30 80.98 C 55.00 81.70 54.39 83.15 54.09 83.87 C 54.09 83.05 54.09 81.40 54.09 80.58 C 51.59 78.32 50.19 75.24 48.38 72.47 C 48.08 71.43 47.73 70.40 47.33 69.40 C 47.10 67.71 46.86 66.02 46.53 64.36 C 46.08 63.36 45.63 62.37 45.18 61.38 C 45.11 58.37 45.12 55.36 45.11 52.34 C 44.45 52.04 43.13 51.43 42.47 51.12 C 41.99 51.05 41.04 50.91 40.57 50.84 C 32.98 48.21 30.13 40.36 25.97 34.28 M 28.20 35.17 C 28.65 36.53 32.23 37.43 33.07 36.40 C 31.91 35.20 29.76 34.34 28.20 35.17 M 34.32 37.21 C 34.80 37.77 34.80 37.77 34.32 37.21 M 34.14 44.26 C 34.72 44.71 34.72 44.71 34.14 44.26 M 72.20 62.20 C 72.34 62.35 72.64 62.64 72.79 62.79 C 72.64 62.64 72.34 62.35 72.20 62.20 C 71.59 61.59 71.59 61.59 72.20 62.20 M 64.53 67.11 C 64.07 67.17 63.15 67.30 62.69 67.36 C 59.07 68.76 55.11 68.00 51.33 68.14 C 50.28 67.40 49.16 66.99 48.03 67.81 C 48.47 69.06 48.89 70.31 49.28 71.57 C 50.67 73.59 51.84 75.77 53.33 77.72 C 55.02 79.86 57.68 80.78 59.96 82.10 C 62.44 79.98 66.55 79.59 67.29 75.89 C 68.52 75.54 69.78 75.36 71.04 75.68 C 72.83 73.44 75.50 70.49 73.04 67.70 C 73.39 67.40 74.08 66.81 74.43 66.51 C 73.02 65.21 71.62 63.90 70.22 62.59 C 68.45 64.26 66.58 65.81 64.53 67.11 M 72.79 62.79 C 73.39 63.39 73.39 63.39 72.79 62.79 M 74.99 68.66 C 73.56 71.76 78.29 68.70 74.99 68.66 M 74.51 71.62 C 73.80 73.48 73.78 76.11 71.48 76.81 C 71.36 79.72 70.81 82.63 68.96 84.98 C 70.87 84.87 72.79 84.80 74.71 84.76 C 75.12 80.38 76.15 75.90 74.51 71.62 M 64.19 83.63 C 63.53 82.98 62.86 82.34 62.18 81.72 C 61.94 82.09 61.45 82.82 61.21 83.19 C 61.54 83.44 62.20 83.93 62.52 84.18 L 61.90 85.71 C 63.72 85.65 65.58 85.65 67.29 86.38 C 68.18 84.59 69.07 82.81 69.99 81.04 C 69.85 79.59 69.70 78.14 69.55 76.69 C 67.39 78.61 63.57 80.12 64.19 83.63 Z" />
<path fill="#5d3508" opacity="1.00" d=" M 67.34 44.47 C 69.32 42.13 70.86 39.39 73.37 37.54 C 73.17 37.83 72.78 38.41 72.58 38.70 C 71.84 39.69 71.08 40.67 70.30 41.63 C 70.43 42.62 70.65 43.58 70.96 44.52 C 70.48 44.07 69.52 43.17 69.04 42.72 C 68.92 43.61 68.67 45.40 68.55 46.30 C 65.97 44.98 63.38 43.69 60.75 42.50 C 58.82 42.05 56.92 41.53 55.00 41.06 C 53.38 40.81 52.67 41.58 52.88 43.39 C 52.69 43.53 52.31 43.81 52.13 43.95 C 52.10 43.46 52.05 42.49 52.02 42.00 C 51.47 42.00 50.38 42.00 49.83 42.00 C 50.07 42.58 50.56 43.73 50.80 44.31 C 50.38 44.21 49.54 44.00 49.12 43.90 C 49.23 42.95 49.51 42.05 49.97 41.20 C 51.18 41.03 52.38 40.79 53.58 40.50 C 54.58 40.09 55.57 39.67 56.57 39.24 C 57.77 40.34 59.01 42.05 60.56 40.30 C 62.67 41.92 65.02 43.18 67.34 44.47 Z" />
<path fill="#5d3508" opacity="1.00" d=" M 59.23 52.66 C 62.65 52.35 64.26 55.45 65.47 58.14 C 64.25 60.11 63.20 62.94 60.15 62.36 C 61.25 61.36 62.52 60.58 63.64 59.60 C 63.13 58.35 62.05 58.25 61.61 59.57 C 61.19 59.20 60.78 58.81 60.39 58.42 C 60.03 59.64 59.61 60.86 58.92 61.94 C 58.92 59.40 58.88 56.83 59.48 54.35 C 59.42 53.93 59.29 53.08 59.23 52.66 M 61.10 54.27 C 59.58 57.38 64.31 54.50 61.10 54.27 Z" />
<path fill="#5d3508" opacity="1.00" d=" M 46.80 60.14 C 46.74 57.37 46.92 54.53 48.66 52.24 C 50.25 54.60 50.37 57.45 50.34 60.21 C 49.46 60.19 47.68 60.15 46.80 60.14 Z" />
<path fill="#5d3508" opacity="1.00" d=" M 48.30 61.03 C 48.64 61.04 49.33 61.05 49.67 61.05 L 49.86 61.74 L 48.95 62.19 L 48.06 61.71 L 48.30 61.03 Z" />
<path fill="#5d3508" opacity="1.00" d=" M 51.21 64.32 C 52.47 63.71 55.21 63.31 55.91 64.66 C 54.65 65.27 51.85 65.74 51.21 64.32 Z" />
<path fill="#5d3508" opacity="1.00" d=" M 57.26 64.25 C 57.78 64.79 57.78 64.79 57.26 64.25 Z" />
</g>
<g id="#dca159ff">
<path fill="#dca159" opacity="1.00" d=" M 90.52 33.76 C 91.21 33.51 92.60 33.00 93.29 32.75 C 93.12 33.29 92.78 34.37 92.61 34.91 C 92.46 35.31 92.16 36.13 92.01 36.54 C 91.83 36.02 91.48 34.98 91.31 34.47 C 85.88 36.40 80.00 37.63 75.34 41.21 C 72.88 43.18 70.57 45.34 68.09 47.29 C 69.57 52.31 70.90 58.10 68.12 62.92 C 65.21 66.38 60.28 66.97 56.03 66.99 C 52.97 67.07 49.21 66.59 47.61 63.59 C 45.03 58.21 45.88 51.93 47.90 46.51 C 48.12 45.84 48.58 44.49 48.80 43.82 L 49.12 43.90 C 49.54 44.00 50.38 44.21 50.80 44.31 C 50.56 43.73 50.07 42.58 49.83 42.00 C 50.38 42.00 51.47 42.00 52.02 42.00 C 52.05 42.49 52.10 43.46 52.13 43.95 C 52.31 43.81 52.69 43.53 52.88 43.39 C 54.46 43.29 55.17 42.52 55.00 41.06 C 56.92 41.53 58.82 42.05 60.75 42.50 C 63.38 43.69 65.97 44.98 68.55 46.30 C 68.67 45.40 68.92 43.61 69.04 42.72 C 69.52 43.17 70.48 44.07 70.96 44.52 C 70.65 43.58 70.43 42.62 70.30 41.63 C 71.08 40.67 71.84 39.69 72.58 38.70 L 73.05 40.62 C 73.66 40.33 74.87 39.74 75.48 39.44 C 77.92 38.50 80.31 37.43 82.65 36.26 C 83.11 36.16 84.03 35.95 84.49 35.85 C 85.48 35.46 86.49 35.08 87.50 34.70 C 88.50 34.39 89.51 34.07 90.52 33.76 M 59.23 52.66 C 59.29 53.08 59.42 53.93 59.48 54.35 C 58.88 56.83 58.92 59.40 58.92 61.94 C 59.61 60.86 60.03 59.64 60.39 58.42 C 60.78 58.81 61.19 59.20 61.61 59.57 C 62.05 58.25 63.13 58.35 63.64 59.60 C 62.52 60.58 61.25 61.36 60.15 62.36 C 63.20 62.94 64.25 60.11 65.47 58.14 C 64.26 55.45 62.65 52.35 59.23 52.66 M 46.80 60.14 C 47.68 60.15 49.46 60.19 50.34 60.21 C 50.37 57.45 50.25 54.60 48.66 52.24 C 46.92 54.53 46.74 57.37 46.80 60.14 M 48.30 61.03 L 48.06 61.71 L 48.95 62.19 L 49.86 61.74 L 49.67 61.05 C 49.33 61.05 48.64 61.04 48.30 61.03 M 51.21 64.32 C 51.85 65.74 54.65 65.27 55.91 64.66 C 55.21 63.31 52.47 63.71 51.21 64.32 M 57.26 64.25 C 57.78 64.79 57.78 64.79 57.26 64.25 Z" />
<path fill="#dca159" opacity="1.00" d=" M 28.20 35.17 C 29.76 34.34 31.91 35.20 33.07 36.40 C 32.23 37.43 28.65 36.53 28.20 35.17 Z" />
<path fill="#dca159" opacity="1.00" d=" M 34.32 37.21 C 34.80 37.77 34.80 37.77 34.32 37.21 Z" />
<path fill="#dca159" opacity="1.00" d=" M 34.14 44.26 C 34.72 44.71 34.72 44.71 34.14 44.26 Z" />
<path fill="#dca159" opacity="1.00" d=" M 70.95 52.25 C 73.70 51.43 76.46 50.65 79.21 49.85 C 80.54 53.63 79.93 57.57 78.97 61.36 L 78.71 62.64 C 78.23 62.99 77.29 63.69 76.81 64.04 C 75.01 62.33 73.14 60.69 71.20 59.13 C 71.11 56.83 71.03 54.54 70.95 52.25 Z" />
<path fill="#dca159" opacity="1.00" d=" M 72.20 62.20 C 71.59 61.59 71.59 61.59 72.20 62.20 Z" />
<path fill="#dca159" opacity="1.00" d=" M 72.20 62.20 C 72.34 62.35 72.64 62.64 72.79 62.79 C 72.64 62.64 72.34 62.35 72.20 62.20 Z" />
<path fill="#dca159" opacity="1.00" d=" M 72.79 62.79 C 73.39 63.39 73.39 63.39 72.79 62.79 Z" />
<path fill="#dca159" opacity="1.00" d=" M 74.99 68.66 C 78.29 68.70 73.56 71.76 74.99 68.66 Z" />
<path fill="#dca159" opacity="1.00" d=" M 67.27 71.30 C 67.77 71.80 67.77 71.80 67.27 71.30 Z" />
<path fill="#dca159" opacity="1.00" d=" M 74.51 71.62 C 76.15 75.90 75.12 80.38 74.71 84.76 C 72.79 84.80 70.87 84.87 68.96 84.98 C 70.81 82.63 71.36 79.72 71.48 76.81 C 73.78 76.11 73.80 73.48 74.51 71.62 Z" />
<path fill="#dca159" opacity="1.00" d=" M 64.19 83.63 C 63.57 80.12 67.39 78.61 69.55 76.69 C 69.70 78.14 69.85 79.59 69.99 81.04 C 69.07 82.81 68.18 84.59 67.29 86.38 C 65.58 85.65 63.72 85.65 61.90 85.71 L 62.52 84.18 C 62.20 83.93 61.54 83.44 61.21 83.19 C 61.45 82.82 61.94 82.09 62.18 81.72 C 62.86 82.34 63.53 82.98 64.19 83.63 Z" />
<path fill="#dca159" opacity="1.00" d=" M 55.30 80.98 C 56.77 81.78 58.26 82.52 59.73 83.32 C 60.36 85.86 56.39 85.32 54.78 85.84 C 54.61 85.35 54.26 84.36 54.09 83.87 C 54.39 83.15 55.00 81.70 55.30 80.98 Z" />
</g>
<g id="#efdfbaff">
<path fill="#efdfba" opacity="1.00" d=" M 52.88 43.39 C 52.67 41.58 53.38 40.81 55.00 41.06 C 55.17 42.52 54.46 43.29 52.88 43.39 Z" />
<path fill="#efdfba" opacity="1.00" d=" M 61.10 54.27 C 64.31 54.50 59.58 57.38 61.10 54.27 Z" />
<path fill="#efdfba" opacity="1.00" d=" M 64.53 67.11 C 66.58 65.81 68.45 64.26 70.22 62.59 C 71.62 63.90 73.02 65.21 74.43 66.51 C 74.08 66.81 73.39 67.40 73.04 67.70 C 75.50 70.49 72.83 73.44 71.04 75.68 C 69.78 75.36 68.52 75.54 67.29 75.89 C 66.55 79.59 62.44 79.98 59.96 82.10 C 57.68 80.78 55.02 79.86 53.33 77.72 C 51.84 75.77 50.67 73.59 49.28 71.57 C 48.89 70.31 48.47 69.06 48.03 67.81 C 49.16 66.99 50.28 67.40 51.33 68.14 C 55.11 68.00 59.07 68.76 62.69 67.36 C 63.15 67.30 64.07 67.17 64.53 67.11 M 67.27 71.30 C 67.77 71.80 67.77 71.80 67.27 71.30 Z" />
</g>
</svg>
