<?xml version="1.0" encoding="UTF-8" ?>
<!DOCTYPE svg PUBLIC "-//W3C//DTD SVG 1.1//EN" "http://www.w3.org/Graphics/SVG/1.1/DTD/svg11.dtd">
<svg width="120pt" height="120pt" viewBox="0 0 120 120" version="1.1" xmlns="http://www.w3.org/2000/svg">
<g id="#8e618cff">
<path fill="#8e618c" opacity="1.00" d=" M 54.58 40.22 C 57.71 37.63 62.87 35.69 66.27 38.79 C 69.95 41.44 70.45 46.35 73.41 49.59 C 74.32 53.93 73.50 58.58 73.84 63.03 C 76.63 63.63 79.60 64.17 81.70 66.25 C 81.77 68.42 81.77 70.60 81.91 72.77 C 84.24 74.38 85.74 77.25 84.44 80.02 L 84.23 79.01 C 83.76 77.38 83.72 74.86 81.55 74.59 C 78.41 73.87 75.17 73.61 71.96 73.30 C 63.92 73.29 55.82 72.67 47.83 73.86 C 44.77 72.59 41.49 72.00 38.19 71.87 C 40.15 70.84 40.30 68.46 41.74 66.95 C 41.58 68.19 41.39 69.43 41.19 70.67 C 54.07 73.48 67.41 70.29 80.33 72.87 C 80.37 70.81 80.76 68.67 80.09 66.68 C 78.08 64.40 74.76 64.24 71.94 63.92 C 72.42 62.16 72.89 60.40 73.29 58.62 C 70.48 59.10 69.85 61.84 69.00 64.12 C 67.60 64.32 66.22 64.60 64.82 64.82 C 59.90 65.13 54.96 65.27 50.03 65.16 C 49.72 64.89 49.09 64.36 48.77 64.10 C 51.29 64.06 53.81 63.94 56.33 63.90 C 58.23 63.86 60.14 63.82 62.04 63.78 C 62.04 62.67 62.04 61.55 62.05 60.43 C 64.27 60.59 66.49 60.63 68.71 60.75 C 69.67 58.53 70.57 56.28 71.15 53.93 C 71.04 51.42 70.62 48.92 69.83 46.53 C 68.71 43.97 67.20 41.56 65.19 39.60 C 62.01 36.69 58.03 39.53 54.58 40.22 M 72.56 52.56 C 71.98 54.20 71.34 56.19 71.71 57.90 C 73.87 57.89 74.01 53.39 72.56 52.56 Z" />
</g>
<g id="#fac8f0ff">
<path fill="#fac8f0" opacity="1.00" d=" M 54.58 40.22 C 58.03 39.53 62.01 36.69 65.19 39.60 C 64.80 39.98 64.03 40.74 63.64 41.11 C 63.53 41.23 63.31 41.47 63.19 41.58 C 61.47 43.04 60.30 46.58 57.52 45.45 C 55.29 45.09 55.18 42.68 54.77 40.92 L 54.58 40.22 M 59.24 44.26 C 59.79 44.82 59.79 44.82 59.24 44.26 Z" />
</g>
<g id="#c694c4ff">
<path fill="#c694c4" opacity="1.00" d=" M 63.64 41.11 C 64.03 40.74 64.80 39.98 65.19 39.60 C 67.20 41.56 68.71 43.97 69.83 46.53 C 67.24 47.96 64.95 49.83 62.88 51.92 C 60.27 53.11 57.48 52.85 54.95 51.61 C 58.89 50.48 62.81 49.15 66.27 46.91 C 61.50 47.71 56.82 49.05 51.95 49.13 C 52.16 46.74 52.45 44.36 52.95 42.02 C 53.40 41.74 54.31 41.20 54.77 40.92 C 55.18 42.68 55.29 45.09 57.52 45.45 C 60.30 46.58 61.47 43.04 63.19 41.58 C 63.01 42.81 63.47 44.49 64.96 44.56 C 67.38 45.51 67.34 42.03 65.15 41.88 C 64.78 41.69 64.02 41.30 63.64 41.11 Z" />
</g>
<g id="#d5c17dff">
<path fill="#d5c17d" opacity="1.00" d=" M 63.64 41.11 C 64.02 41.30 64.78 41.69 65.15 41.88 C 65.10 42.55 65.01 43.89 64.96 44.56 C 63.47 44.49 63.01 42.81 63.19 41.58 C 63.31 41.47 63.53 41.23 63.64 41.11 Z" />
<path fill="#d5c17d" opacity="1.00" d=" M 59.39 54.63 C 59.69 54.54 60.28 54.35 60.57 54.25 C 64.07 55.17 67.68 54.79 71.15 53.93 C 70.57 56.28 69.67 58.53 68.71 60.75 C 66.49 60.63 64.27 60.59 62.05 60.43 C 60.92 59.13 59.78 57.85 58.67 56.55 C 58.85 56.07 59.21 55.11 59.39 54.63 Z" />
</g>
<g id="#2b2531e9">
<path fill="#2b2531" opacity="0.91" d=" M 51.08 43.27 C 51.55 42.95 52.48 42.33 52.95 42.02 C 52.45 44.36 52.16 46.74 51.95 49.13 C 56.82 49.05 61.50 47.71 66.27 46.91 C 62.81 49.15 58.89 50.48 54.95 51.61 C 57.48 52.85 60.27 53.11 62.88 51.92 C 63.43 51.93 64.54 51.96 65.10 51.97 C 63.59 52.72 62.15 53.63 60.57 54.25 C 60.28 54.35 59.69 54.54 59.39 54.63 C 59.21 55.11 58.85 56.07 58.67 56.55 C 56.85 57.90 55.09 59.35 53.14 60.51 C 51.34 61.48 49.47 62.29 47.59 63.09 L 46.94 63.37 C 50.15 59.76 55.67 59.14 58.49 54.94 C 56.81 52.92 53.87 52.78 52.19 50.78 C 50.21 48.83 51.30 45.74 51.08 43.27 Z" />
</g>
<g id="#504341ff">
<path fill="#504341" opacity="1.00" d=" M 65.15 41.88 C 67.34 42.03 67.38 45.51 64.96 44.56 C 65.01 43.89 65.10 42.55 65.15 41.88 Z" />
</g>
<g id="#7c5d5fff">
<path fill="#7c5d5f" opacity="1.00" d=" M 59.24 44.26 C 59.79 44.82 59.79 44.82 59.24 44.26 Z" />
</g>
<g id="#8e628dff">
<path fill="#8e628d" opacity="1.00" d=" M 62.88 51.92 C 64.95 49.83 67.24 47.96 69.83 46.53 C 70.62 48.92 71.04 51.42 71.15 53.93 C 67.68 54.79 64.07 55.17 60.57 54.25 C 62.15 53.63 63.59 52.72 65.10 51.97 C 64.54 51.96 63.43 51.93 62.88 51.92 Z" />
</g>
<g id="#e4cf89ff">
<path fill="#e4cf89" opacity="1.00" d=" M 72.56 52.56 C 74.01 53.39 73.87 57.89 71.71 57.90 C 71.34 56.19 71.98 54.20 72.56 52.56 Z" />
</g>
<g id="#c08ebeff">
<path fill="#c08ebe" opacity="1.00" d=" M 53.14 60.51 C 55.09 59.35 56.85 57.90 58.67 56.55 C 59.78 57.85 60.92 59.13 62.05 60.43 C 62.04 61.55 62.04 62.67 62.04 63.78 C 60.14 63.82 58.23 63.86 56.33 63.90 C 55.28 62.76 54.22 61.63 53.14 60.51 Z" />
</g>
<g id="#dac683ff">
<path fill="#dac683" opacity="1.00" d=" M 69.00 64.12 C 69.85 61.84 70.48 59.10 73.29 58.62 C 72.89 60.40 72.42 62.16 71.94 63.92 C 71.21 63.97 69.74 64.07 69.00 64.12 Z" />
</g>
<g id="#eab9e3ff">
<path fill="#eab9e3" opacity="1.00" d=" M 47.59 63.09 C 49.47 62.29 51.34 61.48 53.14 60.51 C 54.22 61.63 55.28 62.76 56.33 63.90 C 53.81 63.94 51.29 64.06 48.77 64.10 C 48.48 63.85 47.88 63.34 47.59 63.09 Z" />
</g>
<g id="#c291c1ff">
<path fill="#c291c1" opacity="1.00" d=" M 46.94 63.37 L 47.59 63.09 C 47.88 63.34 48.48 63.85 48.77 64.10 C 49.09 64.36 49.72 64.89 50.03 65.16 C 52.58 67.91 56.54 67.66 59.97 67.77 C 64.14 67.71 68.77 68.10 72.24 65.33 C 69.78 65.01 67.30 64.77 64.82 64.82 C 66.22 64.60 67.60 64.32 69.00 64.12 C 69.74 64.07 71.21 63.97 71.94 63.92 C 74.76 64.24 78.08 64.40 80.09 66.68 C 80.76 68.67 80.37 70.81 80.33 72.87 C 67.41 70.29 54.07 73.48 41.19 70.67 C 41.39 69.43 41.58 68.19 41.74 66.95 C 43.40 65.67 45.04 64.31 46.94 63.37 Z" />
</g>
<g id="#f6c5eeff">
<path fill="#f6c5ee" opacity="1.00" d=" M 50.03 65.16 C 54.96 65.27 59.90 65.13 64.82 64.82 C 67.30 64.77 69.78 65.01 72.24 65.33 C 68.77 68.10 64.14 67.71 59.97 67.77 C 56.54 67.66 52.58 67.91 50.03 65.16 Z" />
</g>
<g id="#bf8ebeff">
<path fill="#bf8ebe" opacity="1.00" d=" M 38.19 71.87 C 41.49 72.00 44.77 72.59 47.83 73.86 C 49.71 74.91 51.69 75.95 53.92 75.81 C 60.63 75.82 67.40 76.16 74.07 75.15 C 73.37 74.53 72.67 73.91 71.96 73.30 C 75.17 73.61 78.41 73.87 81.55 74.59 C 83.72 74.86 83.76 77.38 84.23 79.01 C 81.73 79.79 79.26 80.67 76.76 81.46 C 71.51 81.81 66.25 81.65 61.00 81.66 C 56.39 81.65 51.69 82.07 47.19 80.84 C 43.48 79.96 39.74 79.18 36.09 78.03 C 36.01 76.83 35.88 75.63 35.70 74.44 C 36.53 73.58 37.36 72.72 38.19 71.87 Z" />
</g>
<g id="#f7c6efff">
<path fill="#f7c6ef" opacity="1.00" d=" M 47.83 73.86 C 55.82 72.67 63.92 73.29 71.96 73.30 C 72.67 73.91 73.37 74.53 74.07 75.15 C 67.40 76.16 60.63 75.82 53.92 75.81 C 51.69 75.95 49.71 74.91 47.83 73.86 Z" />
</g>
<g id="#2f2924ff">
<path fill="#2f2924" opacity="1.00" d=" M 35.04 73.87 L 35.70 74.44 C 35.88 75.63 36.01 76.83 36.09 78.03 C 37.35 81.26 41.12 81.79 44.14 82.15 C 45.36 82.39 46.56 81.93 47.19 80.84 C 51.69 82.07 56.39 81.65 61.00 81.66 C 66.25 81.65 71.51 81.81 76.76 81.46 C 78.08 81.69 79.38 81.97 80.69 82.27 L 81.33 82.90 C 69.23 83.10 57.13 82.72 45.03 82.99 C 41.58 83.11 37.49 82.59 35.29 79.62 C 34.98 77.72 35.03 75.78 35.04 73.87 Z" />
</g>
<g id="#90638eff">
<path fill="#90638e" opacity="1.00" d=" M 36.09 78.03 C 39.74 79.18 43.48 79.96 47.19 80.84 C 46.56 81.93 45.36 82.39 44.14 82.15 C 41.12 81.79 37.35 81.26 36.09 78.03 Z" />
</g>
<g id="#7a5479ff">
<path fill="#7a5479" opacity="1.00" d=" M 76.76 81.46 C 79.26 80.67 81.73 79.79 84.23 79.01 L 84.44 80.02 C 83.42 81.12 82.26 82.14 80.69 82.27 C 79.38 81.97 78.08 81.69 76.76 81.46 Z" />
</g>
</svg>
