<?xml version="1.0" encoding="UTF-8" ?>
<!DOCTYPE svg PUBLIC "-//W3C//DTD SVG 1.1//EN" "http://www.w3.org/Graphics/SVG/1.1/DTD/svg11.dtd">
<svg width="120pt" height="120pt" viewBox="0 0 120 120" version="1.1" xmlns="http://www.w3.org/2000/svg">
<g id="#041620e6">
<path fill="#041620" opacity="0.90" d=" M 58.36 24.17 C 60.03 21.50 57.59 17.58 60.20 15.44 C 59.98 18.06 59.93 20.69 59.83 23.32 C 59.61 23.99 59.18 25.33 58.97 25.99 C 58.82 25.54 58.51 24.63 58.36 24.17 Z" />
</g>
<g id="#625931ff">
<path fill="#625931" opacity="1.00" d=" M 60.20 15.44 L 60.86 14.64 C 61.13 19.69 60.97 24.75 60.97 29.81 L 60.96 30.94 L 60.03 30.72 C 59.98 28.26 59.92 25.79 59.83 23.32 C 59.93 20.69 59.98 18.06 60.20 15.44 Z" />
</g>
<g id="#595531ff">
<path fill="#595531" opacity="1.00" d=" M 57.00 21.64 C 57.13 21.37 57.40 20.82 57.54 20.55 C 57.74 21.45 58.15 23.26 58.36 24.17 C 58.51 24.63 58.82 25.54 58.97 25.99 C 59.17 28.47 59.04 30.95 58.65 33.40 C 58.14 30.67 57.80 27.91 57.15 25.21 C 57.08 24.02 57.03 22.83 57.00 21.64 Z" />
</g>
<g id="#182828ff">
<path fill="#182828" opacity="1.00" d=" M 55.38 31.71 C 57.02 28.55 54.71 24.37 57.00 21.64 C 57.03 22.83 57.08 24.02 57.15 25.21 C 57.04 28.24 56.96 31.27 56.71 34.29 C 56.38 33.64 55.72 32.36 55.38 31.71 Z" />
</g>
<g id="#fff586ff">
<path fill="#fff586" opacity="1.00" d=" M 58.97 25.99 C 59.18 25.33 59.61 23.99 59.83 23.32 C 59.92 25.79 59.98 28.26 60.03 30.72 L 60.96 30.94 C 63.67 31.48 66.26 32.49 68.68 33.83 C 70.32 32.22 72.01 30.65 73.83 29.24 C 73.60 29.94 73.14 31.34 72.91 32.04 C 72.80 32.37 72.58 33.04 72.47 33.37 L 71.94 33.97 C 71.23 34.79 70.52 35.61 69.81 36.44 C 71.77 39.24 74.02 41.88 76.84 43.85 C 73.54 47.44 68.40 47.36 63.92 47.83 L 64.32 47.29 C 64.76 45.75 64.88 44.13 65.09 42.55 L 65.20 41.84 C 62.73 43.25 60.02 44.65 58.83 47.42 C 58.46 46.91 58.09 46.40 57.72 45.89 C 60.45 42.52 62.42 38.57 65.70 35.63 C 61.44 35.69 59.17 39.60 56.24 42.05 C 55.45 39.57 54.36 37.16 52.37 35.42 L 52.37 35.07 C 52.91 34.46 53.45 33.86 53.99 33.26 C 54.34 32.87 55.04 32.10 55.38 31.71 C 55.72 32.36 56.38 33.64 56.71 34.29 C 56.96 31.27 57.04 28.24 57.15 25.21 C 57.80 27.91 58.14 30.67 58.65 33.40 C 59.04 30.95 59.17 28.47 58.97 25.99 Z" />
</g>
<g id="#393c29ff">
<path fill="#393c29" opacity="1.00" d=" M 43.58 24.88 C 47.25 24.31 46.56 28.73 48.72 30.30 L 48.25 30.50 C 47.83 30.68 46.99 31.02 46.58 31.20 C 45.11 30.54 43.61 29.96 42.01 29.75 C 42.05 28.96 42.12 27.37 42.16 26.57 L 42.85 27.40 C 42.96 28.81 44.61 29.78 45.72 28.66 C 46.79 27.56 45.14 26.52 44.39 25.90 L 43.58 24.88 Z" />
</g>
<g id="#2c3226e8">
<path fill="#2c3226" opacity="0.91" d=" M 73.97 25.00 C 74.73 25.00 76.25 25.00 77.01 25.00 C 77.00 26.56 77.00 28.12 76.99 29.68 C 75.56 30.35 74.22 31.18 72.91 32.04 C 73.14 31.34 73.60 29.94 73.83 29.24 C 72.01 30.65 70.32 32.22 68.68 33.83 C 66.26 32.49 63.67 31.48 60.96 30.94 L 60.97 29.81 C 62.23 29.91 63.43 30.23 64.56 30.78 C 65.03 30.89 65.98 31.10 66.45 31.20 C 68.45 33.10 70.54 31.27 71.97 29.73 C 72.01 28.94 72.09 27.37 72.14 26.58 L 72.76 27.43 C 72.89 27.87 73.15 28.75 73.29 29.19 C 74.03 29.21 75.52 29.23 76.27 29.25 C 76.26 28.40 76.24 26.69 76.22 25.84 C 75.68 25.93 74.60 26.10 74.06 26.18 L 73.97 25.00 Z" />
</g>
<g id="#f7e67dff">
<path fill="#f7e67d" opacity="1.00" d=" M 44.39 25.90 C 45.14 26.52 46.79 27.56 45.72 28.66 C 44.61 29.78 42.96 28.81 42.85 27.40 C 43.24 27.02 44.00 26.27 44.39 25.90 Z" />
</g>
<g id="#f8e77eff">
<path fill="#f8e77e" opacity="1.00" d=" M 74.06 26.18 C 74.60 26.10 75.68 25.93 76.22 25.84 C 76.24 26.69 76.26 28.40 76.27 29.25 C 75.52 29.23 74.03 29.21 73.29 29.19 C 73.15 28.75 72.89 27.87 72.76 27.43 C 73.09 27.12 73.73 26.50 74.06 26.18 Z" />
</g>
<g id="#1e2823e1">
<path fill="#1e2823" opacity="0.88" d=" M 48.25 30.50 C 49.08 30.50 49.88 30.72 50.64 31.17 C 51.62 32.09 52.67 32.93 53.99 33.26 C 53.45 33.86 52.91 34.46 52.37 35.07 C 51.44 33.81 50.39 32.64 49.34 31.48 C 48.75 31.93 48.16 32.39 47.58 32.86 C 49.00 34.17 50.74 35.63 50.29 37.81 C 50.07 41.76 46.13 43.52 43.62 45.93 C 44.79 46.77 45.97 47.61 47.09 48.52 L 47.21 49.99 C 45.23 49.26 43.66 47.65 41.76 46.69 C 43.59 44.85 45.26 42.77 47.64 41.60 C 47.97 41.07 48.64 40.02 48.98 39.49 C 49.45 36.37 47.43 33.87 45.53 31.68 L 46.58 31.20 C 46.99 31.02 47.83 30.68 48.25 30.50 Z" />
</g>
<g id="#f8e37cff">
<path fill="#f8e37c" opacity="1.00" d=" M 47.58 32.86 C 48.16 32.39 48.75 31.93 49.34 31.48 C 50.39 32.64 51.44 33.81 52.37 35.07 L 52.37 35.42 C 52.23 37.49 52.74 39.51 53.30 41.48 C 54.22 43.13 54.88 44.90 55.46 46.70 L 53.62 46.99 L 53.75 46.48 C 54.10 45.09 53.58 44.08 52.19 43.45 L 51.71 42.88 L 51.50 42.60 L 51.23 42.63 L 51.19 42.97 C 50.82 44.31 50.81 45.63 51.15 46.95 L 51.95 47.27 C 53.09 47.79 54.34 47.77 55.55 47.50 C 58.32 47.91 61.13 48.11 63.92 47.83 C 68.40 47.36 73.54 47.44 76.84 43.85 C 77.95 44.64 79.05 45.41 80.15 46.21 C 78.02 47.35 75.80 48.31 73.50 49.05 C 72.84 49.27 71.50 49.70 70.83 49.92 C 70.41 49.70 69.56 49.25 69.14 49.03 C 65.76 50.12 62.33 51.09 58.85 51.80 C 54.57 52.69 50.99 49.65 47.09 48.52 C 45.97 47.61 44.79 46.77 43.62 45.93 C 46.13 43.52 50.07 41.76 50.29 37.81 C 50.74 35.63 49.00 34.17 47.58 32.86 M 57.18 50.13 C 57.45 53.46 60.10 48.49 57.18 50.13 Z" />
</g>
<g id="#403b30ff">
<path fill="#403b30" opacity="1.00" d=" M 69.81 36.44 C 70.52 35.61 71.23 34.79 71.94 33.97 C 71.96 35.19 71.98 36.42 72.01 37.64 C 74.46 40.34 77.28 42.61 80.25 44.70 C 82.51 46.39 79.39 48.26 77.67 48.32 C 82.24 51.04 85.23 55.62 89.81 58.31 C 90.77 59.04 90.99 61.69 92.57 60.96 C 93.12 60.41 94.23 59.31 94.78 58.76 C 95.30 61.67 94.33 64.87 95.76 67.58 C 95.83 68.11 95.98 69.18 96.05 69.71 C 96.54 70.13 97.51 70.96 98.00 71.38 C 97.95 74.40 97.88 77.43 98.13 80.45 C 99.47 83.41 99.61 87.41 98.23 90.35 C 98.15 89.02 98.08 87.69 98.01 86.36 C 97.80 83.38 97.55 80.36 96.69 77.48 C 95.73 75.71 93.75 74.93 92.15 73.86 C 89.36 75.10 85.14 75.49 85.89 79.65 C 85.39 78.74 84.90 77.83 84.41 76.92 C 84.16 77.18 83.64 77.71 83.39 77.97 C 83.78 79.52 84.77 81.28 82.90 82.61 C 84.56 83.20 86.17 82.44 87.67 81.76 C 87.37 82.81 87.07 83.85 86.78 84.90 C 86.03 84.82 84.54 84.67 83.80 84.60 C 84.15 85.20 84.86 86.42 85.21 87.03 C 85.58 86.93 86.32 86.73 86.69 86.63 C 87.35 86.85 88.66 87.29 89.31 87.51 C 88.18 87.63 87.11 87.94 86.09 88.43 C 87.01 89.00 88.01 89.38 89.08 89.56 L 89.84 89.34 C 90.35 89.20 91.39 88.91 91.91 88.77 L 92.01 89.84 C 91.34 89.93 90.00 90.12 89.33 90.21 C 90.65 90.74 91.99 91.26 93.32 91.78 L 93.44 91.83 L 93.45 91.83 C 94.15 91.87 95.54 91.94 96.23 91.98 C 92.95 95.08 88.69 90.86 85.38 89.68 C 84.75 88.59 84.06 87.55 83.33 86.53 C 83.06 85.17 82.80 83.20 81.07 83.01 L 80.02 82.85 C 80.65 81.55 79.68 79.56 78.07 79.99 C 78.49 78.96 78.91 77.92 79.33 76.88 C 80.66 73.96 81.30 70.79 81.13 67.58 C 81.09 66.42 81.04 65.26 80.99 64.10 C 80.56 63.76 79.72 63.09 79.30 62.76 C 79.58 62.03 79.85 61.30 80.11 60.57 C 78.15 58.49 76.38 56.23 74.80 53.84 C 74.21 52.64 73.70 51.40 73.27 50.13 L 73.50 49.05 C 75.80 48.31 78.02 47.35 80.15 46.21 C 79.05 45.41 77.95 44.64 76.84 43.85 C 74.02 41.88 71.77 39.24 69.81 36.44 M 75.90 53.47 C 76.74 54.20 77.59 54.95 78.42 55.69 C 79.01 54.09 79.68 52.52 80.36 50.96 C 78.14 50.20 76.62 51.49 75.90 53.47 M 78.99 57.50 C 79.78 58.01 80.58 58.52 81.38 59.02 C 82.50 57.96 83.62 56.91 84.74 55.84 C 82.79 53.76 80.66 56.50 78.99 57.50 M 86.40 58.80 C 85.58 59.90 84.76 61.00 83.94 62.11 C 85.05 63.21 86.17 64.33 87.26 65.45 C 86.54 66.63 86.19 67.95 86.99 69.19 L 85.63 70.10 C 87.89 69.56 90.12 68.90 92.36 68.28 C 91.78 72.09 86.34 70.52 85.71 74.16 C 87.76 73.36 89.70 71.92 91.99 71.98 C 93.94 72.23 95.55 73.51 97.29 74.32 C 95.84 71.66 95.07 68.33 91.99 67.05 C 90.31 67.02 88.59 66.97 87.06 66.20 C 89.41 65.45 91.92 64.66 94.20 66.05 C 94.21 64.59 94.22 63.13 94.25 61.67 C 92.99 61.80 91.73 61.91 90.46 62.00 C 89.90 60.03 88.52 58.71 86.40 58.80 M 81.99 62.54 C 81.69 66.52 82.73 70.71 81.37 74.54 C 80.97 75.47 80.18 77.33 79.79 78.27 C 81.45 77.38 83.58 77.21 84.91 75.76 C 85.51 72.61 84.33 69.18 85.91 66.23 C 84.61 65.00 83.31 63.77 81.99 62.54 Z" />
</g>
<g id="#454545ff">
<path fill="#454545" opacity="1.00" d=" M 52.37 35.42 C 54.36 37.16 55.45 39.57 56.24 42.05 C 59.17 39.60 61.44 35.69 65.70 35.63 C 62.42 38.57 60.45 42.52 57.72 45.89 C 58.09 46.40 58.46 46.91 58.83 47.42 C 60.02 44.65 62.73 43.25 65.20 41.84 L 65.09 42.55 C 63.71 43.78 61.98 44.84 61.72 46.86 C 62.37 46.96 63.67 47.18 64.32 47.29 L 63.92 47.83 C 61.13 48.11 58.32 47.91 55.55 47.50 C 54.34 47.77 53.09 47.79 51.95 47.27 C 52.36 47.20 53.20 47.06 53.62 46.99 L 55.46 46.70 C 54.88 44.90 54.22 43.13 53.30 41.48 C 52.74 39.51 52.23 37.49 52.37 35.42 Z" />
</g>
<g id="#40381dff">
<path fill="#40381d" opacity="1.00" d=" M 51.23 42.63 L 51.50 42.60 L 51.71 42.88 L 51.19 42.97 L 51.23 42.63 Z" />
</g>
<g id="#e3e4e5ff">
<path fill="#e3e4e5" opacity="1.00" d=" M 51.19 42.97 L 51.71 42.88 L 52.19 43.45 C 52.06 44.81 52.58 45.82 53.75 46.48 L 53.62 46.99 C 53.20 47.06 52.36 47.20 51.95 47.27 L 51.15 46.95 C 50.81 45.63 50.82 44.31 51.19 42.97 Z" />
</g>
<g id="#f2f2f2ff">
<path fill="#f2f2f2" opacity="1.00" d=" M 61.72 46.86 C 61.98 44.84 63.71 43.78 65.09 42.55 C 64.88 44.13 64.76 45.75 64.32 47.29 C 63.67 47.18 62.37 46.96 61.72 46.86 Z" />
</g>
<g id="#5b502fff">
<path fill="#5b502f" opacity="1.00" d=" M 47.09 48.52 C 50.99 49.65 54.57 52.69 58.85 51.80 C 62.33 51.09 65.76 50.12 69.14 49.03 C 69.56 49.25 70.41 49.70 70.83 49.92 C 71.50 49.70 72.84 49.27 73.50 49.05 L 73.27 50.13 C 71.89 50.88 70.46 51.52 69.03 52.15 C 68.09 51.70 67.15 51.26 66.21 50.81 L 66.00 51.80 C 66.59 51.88 67.76 52.06 68.35 52.14 L 68.22 52.45 C 64.65 53.64 61.00 54.65 57.25 55.01 C 55.93 55.09 54.62 55.15 53.30 55.20 C 52.74 54.44 52.15 53.69 51.56 52.95 C 50.59 52.35 49.60 51.78 48.59 51.25 L 47.80 50.83 C 47.66 50.62 47.36 50.20 47.21 49.99 L 47.09 48.52 M 61.44 52.14 C 60.58 52.68 58.48 52.49 58.37 53.70 C 59.94 54.57 61.95 53.84 63.34 52.91 C 64.57 51.72 62.01 51.74 61.44 52.14 M 54.29 52.99 C 54.28 56.31 57.36 51.60 54.29 52.99 Z" />
</g>
<g id="#c0ad60ff">
<path fill="#c0ad60" opacity="1.00" d=" M 57.18 50.13 C 60.10 48.49 57.45 53.46 57.18 50.13 Z" />
</g>
<g id="#d2b562ff">
<path fill="#d2b562" opacity="1.00" d=" M 73.27 50.13 C 73.70 51.40 74.21 52.64 74.80 53.84 C 72.18 55.09 69.46 56.10 66.61 56.64 C 67.16 55.25 67.69 53.85 68.22 52.45 L 68.35 52.14 C 67.76 52.06 66.59 51.88 66.00 51.80 L 66.21 50.81 C 67.15 51.26 68.09 51.70 69.03 52.15 C 70.46 51.52 71.89 50.88 73.27 50.13 Z" />
</g>
<g id="#262626ff">
<path fill="#262626" opacity="1.00" d=" M 46.42 51.02 L 47.16 51.09 C 47.07 52.43 47.48 53.59 48.40 54.58 C 49.34 53.59 49.40 52.48 48.59 51.25 C 49.60 51.78 50.59 52.35 51.56 52.95 C 50.46 54.01 49.35 55.04 48.25 56.10 C 49.22 56.77 50.19 57.43 51.16 58.10 C 49.73 59.09 48.31 60.10 46.90 61.12 C 46.85 61.69 46.76 62.82 46.72 63.38 C 45.75 65.75 45.96 68.30 46.71 70.68 C 46.50 70.98 46.06 71.56 45.84 71.85 C 46.82 75.24 48.77 78.15 50.69 81.05 C 50.64 81.52 50.55 82.48 50.50 82.95 C 52.63 83.49 54.75 84.05 56.85 84.65 C 61.05 83.96 65.30 84.21 69.53 84.38 C 71.14 84.57 72.49 83.62 73.67 82.65 C 74.48 82.82 75.29 82.99 76.11 83.17 C 75.92 82.64 75.54 81.60 75.35 81.08 C 76.26 80.72 77.16 80.36 78.07 79.99 C 77.29 81.36 78.51 83.01 80.02 82.85 L 81.07 83.01 C 79.19 84.56 80.83 86.68 81.27 88.49 C 81.54 91.95 84.34 93.78 87.46 94.53 L 86.55 95.03 C 86.15 95.03 85.36 95.04 84.97 95.04 C 83.76 94.39 82.55 93.78 81.32 93.17 C 78.54 93.89 75.68 94.19 72.83 94.44 C 73.15 96.89 74.81 98.59 77.22 99.12 C 78.70 100.38 80.38 97.61 78.69 96.76 C 78.26 96.29 77.39 95.36 76.95 94.89 C 77.54 95.03 78.71 95.32 79.29 95.47 C 79.48 96.14 79.85 97.49 80.03 98.17 C 80.55 98.24 81.59 98.39 82.11 98.47 C 81.31 98.97 80.51 99.48 79.70 99.99 C 77.94 99.99 76.17 99.99 74.40 99.98 C 73.62 99.18 72.83 98.38 72.03 97.58 C 72.01 96.50 71.99 95.41 71.98 94.32 C 72.50 93.94 73.54 93.16 74.06 92.78 C 72.57 89.96 71.11 87.07 68.61 84.99 C 65.20 85.00 61.79 84.99 58.39 85.01 C 57.59 85.81 56.80 86.61 56.00 87.41 C 56.00 87.95 55.99 89.05 55.98 89.60 C 57.49 90.24 58.85 91.16 59.99 92.33 C 60.02 92.87 60.08 93.94 60.11 94.48 C 60.40 95.05 60.99 96.19 61.28 96.76 C 58.25 98.67 54.40 97.09 51.47 98.90 C 47.17 98.64 42.41 100.03 38.43 98.09 C 37.48 98.08 36.52 98.07 35.57 98.09 C 34.84 98.37 33.39 98.94 32.67 99.23 C 34.20 97.40 35.79 94.30 38.71 95.21 C 38.03 95.54 36.67 96.19 35.99 96.51 C 37.14 97.66 38.82 97.07 40.14 96.63 L 40.75 96.45 C 41.46 95.86 42.17 95.26 42.86 94.65 C 43.51 94.53 44.80 94.30 45.45 94.18 C 44.98 94.50 44.04 95.12 43.57 95.44 C 42.44 95.94 41.03 96.65 40.97 98.06 C 42.19 98.29 43.42 98.32 44.65 98.13 C 48.01 98.09 51.34 97.66 54.66 97.15 C 56.19 97.11 57.72 97.14 59.26 97.16 C 59.27 95.14 59.13 93.05 57.53 91.62 C 55.47 92.62 53.26 93.32 50.95 93.16 C 48.30 93.04 45.66 93.01 43.02 92.99 L 42.86 94.65 C 42.20 94.53 40.87 94.30 40.20 94.18 L 39.97 93.25 C 42.68 92.66 45.36 91.63 48.19 92.08 C 46.78 90.54 46.92 88.48 47.12 86.56 C 47.69 85.53 48.05 84.44 48.21 83.27 C 48.70 82.87 49.70 82.06 50.19 81.66 C 48.54 80.21 47.14 78.50 46.10 76.56 C 46.04 76.06 45.90 75.06 45.83 74.56 C 43.86 71.78 46.30 67.91 44.00 65.28 C 44.60 64.14 45.18 63.00 45.77 61.87 C 44.41 60.69 43.35 59.23 42.49 57.65 C 41.76 59.05 41.05 60.46 40.37 61.89 C 39.74 61.08 39.13 60.28 38.52 59.46 C 41.28 59.30 42.31 56.67 43.41 54.60 L 44.00 55.48 C 44.85 56.76 45.80 57.97 46.78 59.16 C 47.05 58.67 47.60 57.69 47.87 57.20 C 46.89 56.09 45.92 54.98 44.96 53.85 L 44.88 53.76 C 45.27 53.07 46.03 51.70 46.42 51.02 M 73.22 88.34 C 73.60 89.17 73.98 90.01 74.36 90.85 C 76.40 90.71 79.28 91.41 80.28 89.02 C 80.34 87.57 79.45 86.33 78.99 85.01 C 77.16 86.28 75.22 87.37 73.22 88.34 M 48.18 85.94 C 48.24 87.22 48.29 88.50 48.33 89.78 C 49.44 90.41 50.55 91.04 51.65 91.69 C 52.78 91.05 53.94 90.44 54.89 89.55 C 53.27 87.51 50.29 87.35 48.18 85.94 Z" />
<path fill="#262626" opacity="1.00" d=" M 36.88 57.82 C 37.12 57.85 37.61 57.92 37.85 57.96 C 38.13 59.80 37.97 61.76 38.72 63.51 C 39.66 64.21 40.70 64.75 41.71 65.34 C 41.98 65.85 42.51 66.89 42.78 67.40 C 43.08 66.87 43.69 65.81 44.00 65.28 C 43.92 65.89 43.77 67.13 43.69 67.74 L 42.19 68.67 C 40.21 65.98 36.69 63.42 33.37 65.57 C 35.09 66.23 36.82 66.85 38.57 67.42 C 39.14 68.50 39.69 69.59 40.25 70.68 C 40.73 70.57 41.69 70.34 42.16 70.23 C 41.83 72.16 40.37 73.41 38.67 74.20 C 38.48 70.57 35.02 68.78 32.35 67.02 C 31.96 67.46 31.19 68.36 30.80 68.81 C 34.08 69.97 36.83 72.30 37.98 75.66 C 38.45 77.13 36.53 77.49 35.75 78.32 C 35.21 74.97 32.98 72.34 30.11 70.68 C 29.43 70.76 28.06 70.90 27.37 70.98 C 25.39 73.45 23.59 76.05 21.83 78.67 C 20.61 81.09 20.87 83.87 21.85 86.31 L 22.41 87.18 C 18.71 86.17 19.80 81.26 20.61 78.52 C 23.54 74.78 26.01 70.45 30.18 67.92 C 32.70 66.42 34.13 63.52 37.04 62.59 C 36.99 61.00 36.93 59.41 36.88 57.82 Z" />
<path fill="#262626" opacity="1.00" d=" M 76.23 88.30 C 76.71 88.82 76.71 88.82 76.23 88.30 Z" />
</g>
<g id="#e7d172ff">
<path fill="#e7d172" opacity="1.00" d=" M 47.16 51.09 L 47.80 50.83 L 48.59 51.25 C 49.40 52.48 49.34 53.59 48.40 54.58 C 47.48 53.59 47.07 52.43 47.16 51.09 Z" />
</g>
<g id="#fae47dff">
<path fill="#fae47d" opacity="1.00" d=" M 75.90 53.47 C 76.62 51.49 78.14 50.20 80.36 50.96 C 79.68 52.52 79.01 54.09 78.42 55.69 C 77.59 54.95 76.74 54.20 75.90 53.47 Z" />
<path fill="#fae47d" opacity="1.00" d=" M 78.99 57.50 C 80.66 56.50 82.79 53.76 84.74 55.84 C 83.62 56.91 82.50 57.96 81.38 59.02 C 80.58 58.52 79.78 58.01 78.99 57.50 Z" />
<path fill="#fae47d" opacity="1.00" d=" M 86.40 58.80 C 88.52 58.71 89.90 60.03 90.46 62.00 C 91.73 61.91 92.99 61.80 94.25 61.67 C 94.22 63.13 94.21 64.59 94.20 66.05 C 91.92 64.66 89.41 65.45 87.06 66.20 C 88.59 66.97 90.31 67.02 91.99 67.05 C 95.07 68.33 95.84 71.66 97.29 74.32 C 95.55 73.51 93.94 72.23 91.99 71.98 C 89.70 71.92 87.76 73.36 85.71 74.16 C 86.34 70.52 91.78 72.09 92.36 68.28 C 90.12 68.90 87.89 69.56 85.63 70.10 L 86.99 69.19 C 86.19 67.95 86.54 66.63 87.26 65.45 C 86.17 64.33 85.05 63.21 83.94 62.11 C 84.76 61.00 85.58 59.90 86.40 58.80 Z" />
</g>
<g id="#bea459ff">
<path fill="#bea459" opacity="1.00" d=" M 61.44 52.14 C 62.01 51.74 64.57 51.72 63.34 52.91 C 61.95 53.84 59.94 54.57 58.37 53.70 C 58.48 52.49 60.58 52.68 61.44 52.14 Z" />
</g>
<g id="#dfc76cff">
<path fill="#dfc76c" opacity="1.00" d=" M 51.56 52.95 C 52.15 53.69 52.74 54.44 53.30 55.20 C 54.62 55.15 55.93 55.09 57.25 55.01 C 56.33 55.97 55.42 56.93 54.50 57.90 C 51.31 61.69 46.94 65.35 46.71 70.68 C 45.96 68.30 45.75 65.75 46.72 63.38 C 46.76 62.82 46.85 61.69 46.90 61.12 C 48.31 60.10 49.73 59.09 51.16 58.10 C 50.19 57.43 49.22 56.77 48.25 56.10 C 49.35 55.04 50.46 54.01 51.56 52.95 Z" />
</g>
<g id="#b99e55ff">
<path fill="#b99e55" opacity="1.00" d=" M 54.29 52.99 C 57.36 51.60 54.28 56.31 54.29 52.99 Z" />
<path fill="#b99e55" opacity="1.00" d=" M 46.71 70.68 C 47.32 70.55 48.52 70.29 49.12 70.15 C 48.64 70.57 47.66 71.41 47.17 71.83 C 48.35 73.79 49.53 75.74 50.75 77.68 C 51.29 78.56 51.84 79.44 52.39 80.32 C 52.69 80.02 53.28 79.42 53.58 79.13 C 57.21 80.51 61.01 82.01 64.98 81.49 C 70.09 81.18 74.80 79.08 79.33 76.88 C 78.91 77.92 78.49 78.96 78.07 79.99 C 77.16 80.36 76.26 80.72 75.35 81.08 C 75.54 81.60 75.92 82.64 76.11 83.17 C 75.29 82.99 74.48 82.82 73.67 82.65 C 72.49 83.62 71.14 84.57 69.53 84.38 C 65.30 84.21 61.05 83.96 56.85 84.65 C 54.75 84.05 52.63 83.49 50.50 82.95 C 50.55 82.48 50.64 81.52 50.69 81.05 C 48.77 78.15 46.82 75.24 45.84 71.85 C 46.06 71.56 46.50 70.98 46.71 70.68 Z" />
<path fill="#b99e55" opacity="1.00" d=" M 21.83 78.67 C 23.00 80.09 24.17 81.51 25.34 82.93 C 25.27 83.40 25.14 84.34 25.07 84.81 C 24.01 85.33 22.93 85.83 21.85 86.31 C 20.87 83.87 20.61 81.09 21.83 78.67 Z" />
<path fill="#b99e55" opacity="1.00" d=" M 86.69 86.63 C 90.33 85.03 94.27 85.29 98.01 86.36 C 98.08 87.69 98.15 89.02 98.23 90.35 C 97.57 90.90 96.90 91.44 96.23 91.98 C 95.54 91.94 94.15 91.87 93.45 91.83 C 93.42 91.82 93.35 91.79 93.32 91.78 C 91.99 91.26 90.65 90.74 89.33 90.21 C 90.00 90.12 91.34 89.93 92.01 89.84 L 91.91 88.77 C 91.39 88.91 90.35 89.20 89.84 89.34 C 89.71 88.88 89.44 87.97 89.31 87.51 C 88.66 87.29 87.35 86.85 86.69 86.63 Z" />
</g>
<g id="#2a2a2aff">
<path fill="#2a2a2a" opacity="1.00" d=" M 57.25 55.01 C 61.00 54.65 64.65 53.64 68.22 52.45 C 67.69 53.85 67.16 55.25 66.61 56.64 C 66.27 57.27 65.92 57.89 65.56 58.50 C 61.86 58.47 58.18 58.28 54.50 57.90 C 55.42 56.93 56.33 55.97 57.25 55.01 Z" />
</g>
<g id="#f3dd79ff">
<path fill="#f3dd79" opacity="1.00" d=" M 44.00 55.48 C 44.24 55.08 44.72 54.26 44.96 53.85 C 45.92 54.98 46.89 56.09 47.87 57.20 C 47.60 57.69 47.05 58.67 46.78 59.16 C 45.80 57.97 44.85 56.76 44.00 55.48 Z" />
<path fill="#f3dd79" opacity="1.00" d=" M 37.85 57.96 C 38.11 57.67 38.64 57.09 38.91 56.79 L 38.52 59.46 C 39.13 60.28 39.74 61.08 40.37 61.89 C 41.05 60.46 41.76 59.05 42.49 57.65 C 43.35 59.23 44.41 60.69 45.77 61.87 C 45.18 63.00 44.60 64.14 44.00 65.28 C 43.69 65.81 43.08 66.87 42.78 67.40 C 42.51 66.89 41.98 65.85 41.71 65.34 C 40.70 64.75 39.66 64.21 38.72 63.51 C 37.97 61.76 38.13 59.80 37.85 57.96 Z" />
<path fill="#f3dd79" opacity="1.00" d=" M 61.34 78.58 C 69.04 77.77 76.08 73.31 81.13 67.58 C 81.30 70.79 80.66 73.96 79.33 76.88 C 74.80 79.08 70.09 81.18 64.98 81.49 C 61.01 82.01 57.21 80.51 53.58 79.13 C 54.60 78.08 55.60 77.01 56.64 75.97 C 58.03 76.80 59.42 77.62 60.84 78.38 L 61.34 78.58 Z" />
<path fill="#f3dd79" opacity="1.00" d=" M 73.22 88.34 C 75.22 87.37 77.16 86.28 78.99 85.01 C 79.45 86.33 80.34 87.57 80.28 89.02 C 79.28 91.41 76.40 90.71 74.36 90.85 C 73.98 90.01 73.60 89.17 73.22 88.34 M 76.23 88.30 C 76.71 88.82 76.71 88.82 76.23 88.30 Z" />
<path fill="#f3dd79" opacity="1.00" d=" M 48.18 85.94 C 50.29 87.35 53.27 87.51 54.89 89.55 C 53.94 90.44 52.78 91.05 51.65 91.69 C 50.55 91.04 49.44 90.41 48.33 89.78 C 48.29 88.50 48.24 87.22 48.18 85.94 Z" />
</g>
<g id="#ffef82ff">
<path fill="#ffef82" opacity="1.00" d=" M 66.61 56.64 C 69.46 56.10 72.18 55.09 74.80 53.84 C 76.38 56.23 78.15 58.49 80.11 60.57 C 79.85 61.30 79.58 62.03 79.30 62.76 C 76.45 67.71 70.77 69.77 66.82 73.62 C 64.98 75.39 62.96 76.96 60.84 78.38 C 59.42 77.62 58.03 76.80 56.64 75.97 C 62.05 72.27 67.50 68.59 73.03 65.06 C 68.95 64.74 64.81 64.84 60.90 66.17 C 62.34 63.55 63.94 61.02 65.56 58.50 C 65.92 57.89 66.27 57.27 66.61 56.64 Z" />
</g>
<g id="#424242ff">
<path fill="#424242" opacity="1.00" d=" M 46.71 70.68 C 46.94 65.35 51.31 61.69 54.50 57.90 C 58.18 58.28 61.86 58.47 65.56 58.50 C 63.94 61.02 62.34 63.55 60.90 66.17 C 64.81 64.84 68.95 64.74 73.03 65.06 C 67.50 68.59 62.05 72.27 56.64 75.97 C 55.60 77.01 54.60 78.08 53.58 79.13 C 53.28 79.42 52.69 80.02 52.39 80.32 C 51.84 79.44 51.29 78.56 50.75 77.68 C 51.92 74.82 52.92 71.89 53.97 68.98 C 52.36 69.40 50.74 69.78 49.12 70.15 C 48.52 70.29 47.32 70.55 46.71 70.68 Z" />
</g>
<g id="#414141ff">
<path fill="#414141" opacity="1.00" d=" M 79.30 62.76 C 79.72 63.09 80.56 63.76 80.99 64.10 C 81.04 65.26 81.09 66.42 81.13 67.58 C 76.08 73.31 69.04 77.77 61.34 78.58 L 60.84 78.38 C 62.96 76.96 64.98 75.39 66.82 73.62 C 70.77 69.77 76.45 67.71 79.30 62.76 Z" />
</g>
<g id="#fff385ff">
<path fill="#fff385" opacity="1.00" d=" M 33.37 65.57 C 36.69 63.42 40.21 65.98 42.19 68.67 C 42.32 69.03 42.58 69.75 42.71 70.11 L 42.16 70.23 C 41.69 70.34 40.73 70.57 40.25 70.68 C 39.69 69.59 39.14 68.50 38.57 67.42 C 36.82 66.85 35.09 66.23 33.37 65.57 Z" />
<path fill="#fff385" opacity="1.00" d=" M 32.35 67.02 C 35.02 68.78 38.48 70.57 38.67 74.20 C 38.50 74.57 38.16 75.29 37.98 75.66 C 36.83 72.30 34.08 69.97 30.80 68.81 C 31.19 68.36 31.96 67.46 32.35 67.02 Z" />
<path fill="#fff385" opacity="1.00" d=" M 85.89 79.65 C 85.14 75.49 89.36 75.10 92.15 73.86 C 93.75 74.93 95.73 75.71 96.69 77.48 C 97.55 80.36 97.80 83.38 98.01 86.36 C 94.27 85.29 90.33 85.03 86.69 86.63 C 86.32 86.73 85.58 86.93 85.21 87.03 C 84.86 86.42 84.15 85.20 83.80 84.60 C 84.54 84.67 86.03 84.82 86.78 84.90 C 87.07 83.85 87.37 82.81 87.67 81.76 C 86.17 82.44 84.56 83.20 82.90 82.61 C 84.77 81.28 83.78 79.52 83.39 77.97 C 83.64 77.71 84.16 77.18 84.41 76.92 C 84.90 77.83 85.39 78.74 85.89 79.65 Z" />
</g>
<g id="#f6e07aff">
<path fill="#f6e07a" opacity="1.00" d=" M 49.12 70.15 C 50.74 69.78 52.36 69.40 53.97 68.98 C 52.92 71.89 51.92 74.82 50.75 77.68 C 49.53 75.74 48.35 73.79 47.17 71.83 C 47.66 71.41 48.64 70.57 49.12 70.15 Z" />
</g>
<g id="#fff787ff">
<path fill="#fff787" opacity="1.00" d=" M 27.37 70.98 C 28.06 70.90 29.43 70.76 30.11 70.68 C 32.98 72.34 35.21 74.97 35.75 78.32 C 35.56 78.53 35.16 78.97 34.96 79.19 C 34.67 78.67 34.09 77.63 33.80 77.11 C 32.69 77.73 33.24 79.44 32.94 80.51 C 32.67 81.00 32.14 81.99 31.87 82.49 C 31.18 81.17 30.46 79.85 29.75 78.54 C 28.26 79.03 26.78 79.54 25.31 80.08 C 26.88 81.29 28.63 82.29 30.56 82.80 C 30.06 83.14 29.07 83.82 28.57 84.16 C 27.49 83.76 26.40 83.38 25.34 82.93 C 24.17 81.51 23.00 80.09 21.83 78.67 C 23.59 76.05 25.39 73.45 27.37 70.98 Z" />
<path fill="#fff787" opacity="1.00" d=" M 40.20 94.18 C 40.87 94.30 42.20 94.53 42.86 94.65 C 42.17 95.26 41.46 95.86 40.75 96.45 L 40.14 96.63 C 39.97 96.34 39.63 95.77 39.46 95.49 C 39.65 95.16 40.02 94.51 40.20 94.18 Z" />
</g>
<g id="#504525ff">
<path fill="#504525" opacity="1.00" d=" M 32.94 80.51 C 33.24 79.44 32.69 77.73 33.80 77.11 C 34.09 77.63 34.67 78.67 34.96 79.19 C 34.58 79.58 33.83 80.36 33.45 80.75 L 32.94 80.51 Z" />
</g>
<g id="#5b532dff">
<path fill="#5b532d" opacity="1.00" d=" M 25.31 80.08 C 26.78 79.54 28.26 79.03 29.75 78.54 C 30.46 79.85 31.18 81.17 31.87 82.49 L 32.22 83.17 C 31.80 83.08 30.97 82.89 30.56 82.80 C 28.63 82.29 26.88 81.29 25.31 80.08 M 28.34 80.33 C 28.74 80.72 28.74 80.72 28.34 80.33 Z" />
</g>
<g id="#fff686ff">
<path fill="#fff686" opacity="1.00" d=" M 28.34 80.33 C 28.74 80.72 28.74 80.72 28.34 80.33 Z" />
</g>
<g id="#f3de7aff">
<path fill="#f3de7a" opacity="1.00" d=" M 78.07 79.99 C 79.68 79.56 80.65 81.55 80.02 82.85 C 78.51 83.01 77.29 81.36 78.07 79.99 Z" />
</g>
<g id="#4c4225ff">
<path fill="#4c4225" opacity="1.00" d=" M 25.34 82.93 C 26.40 83.38 27.49 83.76 28.57 84.16 C 29.19 84.99 28.94 85.90 27.83 86.89 C 25.97 86.86 24.05 88.77 22.41 87.18 L 21.85 86.31 C 22.93 85.83 24.01 85.33 25.07 84.81 C 25.14 84.34 25.27 83.40 25.34 82.93 Z" />
</g>
<g id="#f6e07bff">
<path fill="#f6e07b" opacity="1.00" d=" M 89.31 87.51 C 89.44 87.97 89.71 88.88 89.84 89.34 L 89.08 89.56 C 88.01 89.38 87.01 89.00 86.09 88.43 C 87.11 87.94 88.18 87.63 89.31 87.51 Z" />
</g>
<g id="#f5df7aff">
<path fill="#f5df7a" opacity="1.00" d=" M 93.32 91.78 C 93.35 91.79 93.42 91.82 93.45 91.83 L 93.44 91.83 L 93.32 91.78 Z" />
</g>
<g id="#bea359ff">
<path fill="#bea359" opacity="1.00" d=" M 50.95 93.16 C 53.26 93.32 55.47 92.62 57.53 91.62 C 59.13 93.05 59.27 95.14 59.26 97.16 C 57.72 97.14 56.19 97.11 54.66 97.15 C 54.18 95.17 52.99 93.62 50.95 93.16 Z" />
</g>
<g id="#f7e27bff">
<path fill="#f7e27b" opacity="1.00" d=" M 43.02 92.99 C 45.66 93.01 48.30 93.04 50.95 93.16 C 52.99 93.62 54.18 95.17 54.66 97.15 C 51.34 97.66 48.01 98.09 44.65 98.13 C 44.38 97.46 43.84 96.11 43.57 95.44 C 44.04 95.12 44.98 94.50 45.45 94.18 C 44.80 94.30 43.51 94.53 42.86 94.65 L 43.02 92.99 Z" />
</g>
<g id="#f6e17bff">
<path fill="#f6e17b" opacity="1.00" d=" M 72.83 94.44 C 75.68 94.19 78.54 93.89 81.32 93.17 C 82.55 93.78 83.76 94.39 84.97 95.04 C 85.35 95.43 86.11 96.20 86.49 96.58 C 86.15 97.16 85.47 98.32 85.13 98.91 C 84.12 98.74 83.12 98.60 82.11 98.47 C 81.59 98.39 80.55 98.24 80.03 98.17 C 79.85 97.49 79.48 96.14 79.29 95.47 C 78.71 95.32 77.54 95.03 76.95 94.89 C 77.39 95.36 78.26 96.29 78.69 96.76 C 78.33 97.35 77.59 98.53 77.22 99.12 C 74.81 98.59 73.15 96.89 72.83 94.44 Z" />
</g>
<g id="#b3b6bdff">
<path fill="#b3b6bd" opacity="1.00" d=" M 38.71 95.21 L 39.46 95.49 C 39.63 95.77 39.97 96.34 40.14 96.63 C 38.82 97.07 37.14 97.66 35.99 96.51 C 36.67 96.19 38.03 95.54 38.71 95.21 Z" />
</g>
<g id="#635b3bff">
<path fill="#635b3b" opacity="1.00" d=" M 84.97 95.04 C 85.36 95.04 86.15 95.03 86.55 95.03 L 87.90 95.03 C 87.95 96.67 87.99 98.31 88.03 99.96 C 85.25 99.91 82.48 99.90 79.70 99.99 C 80.51 99.48 81.31 98.97 82.11 98.47 C 83.12 98.60 84.12 98.74 85.13 98.91 C 86.76 99.90 88.26 97.48 86.49 96.58 C 86.11 96.20 85.35 95.43 84.97 95.04 Z" />
</g>
<g id="#d2d6ddff">
<path fill="#d2d6dd" opacity="1.00" d=" M 40.97 98.06 C 41.03 96.65 42.44 95.94 43.57 95.44 C 43.84 96.11 44.38 97.46 44.65 98.13 C 43.42 98.32 42.19 98.29 40.97 98.06 Z" />
</g>
<g id="#c0c3caff">
<path fill="#c0c3ca" opacity="1.00" d=" M 77.22 99.12 C 77.59 98.53 78.33 97.35 78.69 96.76 C 80.38 97.61 78.70 100.38 77.22 99.12 Z" />
</g>
<g id="#b1b3b9ff">
<path fill="#b1b3b9" opacity="1.00" d=" M 85.13 98.91 C 85.47 98.32 86.15 97.16 86.49 96.58 C 88.26 97.48 86.76 99.90 85.13 98.91 Z" />
</g>
</svg>
