<?xml version="1.0" encoding="UTF-8" ?>
<!DOCTYPE svg PUBLIC "-//W3C//DTD SVG 1.1//EN" "http://www.w3.org/Graphics/SVG/1.1/DTD/svg11.dtd">
<svg width="120pt" height="120pt" viewBox="0 0 120 120" version="1.1" xmlns="http://www.w3.org/2000/svg">
<g id="#a56a6bff">
<path fill="#a56a6b" opacity="1.00" d=" M 57.32 29.33 C 58.53 28.15 60.39 27.84 61.58 29.34 C 63.92 29.57 66.60 28.68 68.61 30.28 C 69.06 30.33 69.96 30.43 70.41 30.47 C 71.31 31.11 72.31 31.45 73.42 31.49 C 74.78 32.16 76.13 32.89 77.19 34.00 C 83.17 37.47 87.44 43.56 89.79 49.99 L 88.60 49.66 C 88.16 49.03 87.80 48.35 87.51 47.62 C 83.84 40.17 77.45 33.70 69.39 31.23 C 68.93 31.09 68.02 30.80 67.56 30.66 C 62.27 29.41 56.80 29.24 51.51 30.61 C 50.50 31.06 49.49 31.51 48.48 31.98 C 47.85 31.99 46.58 32.00 45.95 32.01 L 46.11 31.50 C 49.93 31.02 53.32 28.63 57.32 29.33 Z" />
<path fill="#a56a6b" opacity="1.00" d=" M 43.30 33.38 L 44.26 32.96 L 45.03 33.43 C 44.56 33.64 43.61 34.05 43.14 34.25 L 43.30 33.38 Z" />
<path fill="#a56a6b" opacity="1.00" d=" M 40.27 35.39 L 41.21 34.93 L 42.00 35.40 C 41.53 35.62 40.61 36.07 40.14 36.30 L 40.27 35.39 Z" />
<path fill="#a56a6b" opacity="1.00" d=" M 34.39 41.28 L 35.30 41.15 C 35.08 41.61 34.64 42.54 34.42 43.01 L 33.94 42.23 L 34.39 41.28 Z" />
<path fill="#a56a6b" opacity="1.00" d=" M 32.60 44.03 L 33.74 43.66 C 32.14 46.82 30.45 49.99 29.64 53.46 C 28.90 56.43 29.01 59.51 29.01 62.54 C 35.06 68.60 44.18 68.96 52.10 70.58 C 44.10 71.87 36.15 68.70 29.15 65.12 C 30.60 67.72 32.03 70.34 33.49 72.94 C 33.49 72.27 33.51 70.94 33.52 70.27 C 44.20 76.02 57.01 77.11 68.80 74.80 C 67.06 76.11 65.40 77.54 64.09 79.30 C 72.34 78.45 80.64 75.71 86.70 69.81 C 81.84 70.75 77.02 72.21 72.01 72.05 C 64.90 71.95 57.78 72.11 50.67 71.91 L 52.10 70.58 C 64.70 71.11 78.01 72.25 89.79 66.76 C 89.98 65.12 89.51 63.18 90.77 61.86 C 91.62 70.96 86.25 79.63 79.68 85.49 C 76.69 87.43 73.51 88.98 70.41 90.72 C 69.74 90.74 68.41 90.79 67.75 90.82 C 65.47 92.44 62.58 91.55 59.99 91.75 C 57.08 91.53 53.89 92.42 51.24 90.83 C 50.58 90.79 49.26 90.71 48.60 90.67 C 46.56 89.40 44.42 88.25 42.14 87.50 C 41.88 87.10 41.36 86.32 41.10 85.92 C 38.01 84.92 35.13 82.12 34.14 79.02 C 31.95 77.96 32.00 75.26 30.51 73.62 C 29.39 71.68 29.73 69.25 28.43 67.41 C 28.81 62.77 27.32 57.67 29.20 53.33 C 29.34 51.99 29.35 50.59 30.14 49.43 C 30.65 48.43 31.17 47.43 31.69 46.44 C 31.92 45.84 32.37 44.63 32.60 44.03 M 36.70 74.03 C 39.38 78.11 44.23 79.67 48.50 81.48 C 48.73 81.29 49.19 80.90 49.42 80.71 C 51.03 81.77 52.92 82.20 54.78 82.57 C 54.79 81.68 54.80 79.89 54.81 79.00 L 56.13 79.00 C 56.18 79.75 56.28 81.24 56.33 81.99 C 59.87 82.24 62.00 79.29 64.12 76.98 C 58.09 76.80 51.94 77.67 46.01 76.26 C 42.77 76.09 39.91 74.32 36.70 74.03 Z" />
<path fill="#a56a6b" opacity="1.00" d=" M 34.28 49.12 C 35.59 48.86 36.87 48.53 38.15 48.15 L 37.99 49.67 C 40.71 49.92 41.93 52.58 43.87 54.10 C 45.06 55.03 46.15 56.08 46.89 57.41 C 46.63 55.41 47.31 53.65 48.97 52.49 C 48.97 53.28 48.99 54.87 49.00 55.67 C 47.67 56.33 48.45 59.17 46.63 58.89 C 44.97 59.05 44.72 57.14 43.94 56.13 C 42.96 54.14 41.20 52.75 39.35 51.63 C 37.58 50.72 35.54 51.04 33.62 51.09 C 32.85 51.37 31.30 51.94 30.53 52.22 C 31.47 50.84 32.80 49.85 34.28 49.12 Z" />
<path fill="#a56a6b" opacity="1.00" d=" M 57.56 51.67 C 59.10 49.87 61.45 49.79 63.62 50.01 C 64.54 50.76 65.60 51.12 66.83 51.09 C 68.20 52.31 69.45 53.68 70.43 55.25 C 69.03 54.54 67.60 53.88 66.00 53.89 C 65.99 53.42 65.97 52.48 65.97 52.00 C 63.48 52.01 60.99 52.01 58.50 52.01 C 56.92 53.99 55.01 55.67 53.23 57.46 C 52.97 58.69 52.63 59.93 51.22 60.25 C 51.09 58.78 49.61 58.01 49.25 56.71 C 49.65 55.03 50.78 53.69 51.98 52.51 C 51.99 53.72 52.01 56.15 52.02 57.36 C 52.84 56.46 53.66 55.55 54.47 54.64 C 54.22 52.61 55.76 51.65 57.56 51.67 Z" />
<path fill="#a56a6b" opacity="1.00" d=" M 89.72 53.23 C 89.95 52.83 90.40 52.02 90.63 51.61 C 91.05 54.94 90.39 58.43 91.81 61.60 C 88.60 60.23 90.29 55.97 89.72 53.23 Z" />
<path fill="#a56a6b" opacity="1.00" d=" M 40.60 62.82 C 39.07 62.35 40.14 58.73 41.78 59.22 C 42.33 60.44 41.47 61.95 40.60 62.82 Z" />
<path fill="#a56a6b" opacity="1.00" d=" M 57.73 64.62 C 55.47 65.59 55.52 60.51 57.75 61.28 C 58.37 62.39 58.36 63.50 57.73 64.62 Z" />
</g>
<g id="#e9edf5ff">
<path fill="#e9edf5" opacity="1.00" d=" M 51.51 30.61 C 56.80 29.24 62.27 29.41 67.56 30.66 C 68.02 30.80 68.93 31.09 69.39 31.23 C 77.45 33.70 83.84 40.17 87.51 47.62 C 87.80 48.35 88.16 49.03 88.60 49.66 L 89.57 50.54 C 89.61 51.21 89.69 52.56 89.72 53.23 C 90.29 55.97 88.60 60.23 91.81 61.60 L 90.77 61.86 C 89.51 63.18 89.98 65.12 89.79 66.76 C 78.01 72.25 64.70 71.11 52.10 70.58 C 44.18 68.96 35.06 68.60 29.01 62.54 C 29.01 59.51 28.90 56.43 29.64 53.46 C 30.45 49.99 32.14 46.82 33.74 43.66 C 33.91 43.50 34.25 43.17 34.42 43.01 C 34.64 42.54 35.08 41.61 35.30 41.15 C 36.64 39.30 38.29 37.64 40.14 36.30 C 40.61 36.07 41.53 35.62 42.00 35.40 C 42.28 35.11 42.85 34.54 43.14 34.25 C 43.61 34.05 44.56 33.64 45.03 33.43 C 45.26 33.08 45.72 32.36 45.95 32.01 C 46.58 32.00 47.85 31.99 48.48 31.98 C 49.49 31.51 50.50 31.06 51.51 30.61 M 34.28 49.12 C 32.80 49.85 31.47 50.84 30.53 52.22 C 31.30 51.94 32.85 51.37 33.62 51.09 C 35.54 51.04 37.58 50.72 39.35 51.63 C 41.20 52.75 42.96 54.14 43.94 56.13 C 44.72 57.14 44.97 59.05 46.63 58.89 C 48.45 59.17 47.67 56.33 49.00 55.67 C 48.99 54.87 48.97 53.28 48.97 52.49 C 47.31 53.65 46.63 55.41 46.89 57.41 C 46.15 56.08 45.06 55.03 43.87 54.10 C 41.93 52.58 40.71 49.92 37.99 49.67 L 38.15 48.15 C 36.87 48.53 35.59 48.86 34.28 49.12 M 57.56 51.67 C 55.76 51.65 54.22 52.61 54.47 54.64 C 53.66 55.55 52.84 56.46 52.02 57.36 C 52.01 56.15 51.99 53.72 51.98 52.51 C 50.78 53.69 49.65 55.03 49.25 56.71 C 49.61 58.01 51.09 58.78 51.22 60.25 C 52.63 59.93 52.97 58.69 53.23 57.46 C 55.01 55.67 56.92 53.99 58.50 52.01 C 60.99 52.01 63.48 52.01 65.97 52.00 C 65.97 52.48 65.99 53.42 66.00 53.89 C 67.60 53.88 69.03 54.54 70.43 55.25 C 69.45 53.68 68.20 52.31 66.83 51.09 C 65.60 51.12 64.54 50.76 63.62 50.01 C 61.45 49.79 59.10 49.87 57.56 51.67 M 40.60 62.82 C 41.47 61.95 42.33 60.44 41.78 59.22 C 40.14 58.73 39.07 62.35 40.60 62.82 M 57.73 64.62 C 58.36 63.50 58.37 62.39 57.75 61.28 C 55.52 60.51 55.47 65.59 57.73 64.62 Z" />
<path fill="#e9edf5" opacity="1.00" d=" M 36.70 74.03 C 39.91 74.32 42.77 76.09 46.01 76.26 C 51.94 77.67 58.09 76.80 64.12 76.98 C 62.00 79.29 59.87 82.24 56.33 81.99 C 56.28 81.24 56.18 79.75 56.13 79.00 L 54.81 79.00 C 54.80 79.89 54.79 81.68 54.78 82.57 C 52.92 82.20 51.03 81.77 49.42 80.71 C 49.19 80.90 48.73 81.29 48.50 81.48 C 44.23 79.67 39.38 78.11 36.70 74.03 Z" />
</g>
<g id="#e29187ff">
<path fill="#e29187" opacity="1.00" d=" M 29.15 65.12 C 36.15 68.70 44.10 71.87 52.10 70.58 L 50.67 71.91 C 57.78 72.11 64.90 71.95 72.01 72.05 C 77.02 72.21 81.84 70.75 86.70 69.81 C 80.64 75.71 72.34 78.45 64.09 79.30 C 65.40 77.54 67.06 76.11 68.80 74.80 C 57.01 77.11 44.20 76.02 33.52 70.27 C 33.51 70.94 33.49 72.27 33.49 72.94 C 32.03 70.34 30.60 67.72 29.15 65.12 Z" />
</g>
</svg>
