<?xml version="1.0" encoding="UTF-8" ?>
<!DOCTYPE svg PUBLIC "-//W3C//DTD SVG 1.1//EN" "http://www.w3.org/Graphics/SVG/1.1/DTD/svg11.dtd">
<svg width="136pt" height="120pt" viewBox="0 0 136 120" version="1.1" xmlns="http://www.w3.org/2000/svg">
<g id="#568b5dff">
<path fill="#568b5d" opacity="1.00" d=" M 58.11 8.55 C 59.28 10.78 60.19 13.17 61.64 15.25 C 63.30 16.96 65.72 17.99 66.64 20.34 C 68.48 23.52 67.68 27.34 67.85 30.83 C 68.72 29.73 69.59 28.65 70.47 27.58 C 69.80 30.05 69.03 32.49 68.21 34.92 C 69.62 34.32 71.03 33.74 72.44 33.15 C 72.67 34.52 72.91 35.89 73.14 37.26 C 74.81 35.86 76.45 34.42 78.02 32.91 C 78.37 30.67 79.24 28.53 81.06 27.09 C 80.55 28.36 80.04 29.62 79.54 30.89 C 81.16 30.03 82.74 29.07 84.07 27.80 C 84.34 28.28 84.87 29.25 85.14 29.74 C 80.41 31.66 77.02 35.65 75.00 40.25 C 78.86 38.52 82.20 35.90 85.30 33.07 C 86.18 33.41 87.06 33.76 87.94 34.10 C 85.00 35.95 81.81 37.42 79.21 39.77 C 82.82 41.19 85.70 43.90 87.64 47.22 C 87.98 48.58 88.35 49.92 88.81 51.24 C 88.86 53.44 89.36 55.88 87.85 57.75 C 87.85 54.91 88.68 50.93 85.98 49.06 C 83.13 48.73 80.20 49.13 77.39 48.34 C 79.88 47.92 82.40 47.93 84.89 48.34 C 85.43 47.86 85.96 47.36 86.49 46.87 C 84.31 44.97 82.41 42.61 79.76 41.35 C 77.72 40.83 75.58 41.07 73.50 40.99 C 71.41 42.32 69.56 44.01 68.37 46.22 C 69.43 49.72 69.17 53.42 68.59 56.99 C 70.08 59.23 71.78 61.66 74.51 62.46 C 78.24 63.41 82.08 62.18 85.50 60.69 C 84.44 61.74 83.28 62.68 82.08 63.57 C 82.85 67.17 82.88 70.88 83.47 74.50 C 84.33 79.34 80.68 83.97 82.26 88.77 C 83.27 92.14 84.00 95.58 83.98 99.11 C 85.51 101.62 86.09 104.46 85.89 107.37 C 85.57 108.01 84.93 109.29 84.62 109.93 C 79.46 109.52 74.13 110.59 69.13 108.87 C 68.78 107.31 68.08 105.70 68.68 104.10 C 69.39 105.37 70.14 106.62 70.96 107.82 C 72.48 108.95 74.38 109.26 76.01 108.15 C 77.86 108.36 79.72 108.30 81.58 108.22 C 82.77 109.16 83.64 109.06 84.18 107.92 C 84.80 105.89 81.99 105.21 81.49 107.22 C 81.47 106.93 81.42 106.35 81.40 106.07 C 82.55 105.11 83.76 104.23 84.96 103.34 C 84.69 103.22 84.14 102.97 83.87 102.85 C 83.04 99.83 82.97 96.68 82.30 93.64 C 81.92 91.70 81.32 89.81 80.68 87.94 C 80.44 87.28 79.97 85.95 79.73 85.28 C 76.63 88.06 73.39 90.67 70.14 93.27 C 70.48 95.86 70.86 98.45 71.27 101.03 C 75.26 100.94 79.31 100.68 83.23 101.67 C 78.96 102.19 74.67 101.94 70.39 102.04 C 69.99 99.94 69.49 97.87 69.09 95.77 C 64.83 95.67 60.30 96.59 56.31 94.64 C 57.15 98.10 59.35 101.50 58.55 105.17 C 57.24 101.92 56.25 98.56 54.89 95.34 C 54.44 95.41 53.55 95.56 53.11 95.64 L 52.26 94.96 C 52.22 94.52 52.13 93.65 52.09 93.22 C 49.23 91.44 46.98 88.93 45.27 86.05 C 44.23 88.21 43.20 90.44 43.14 92.89 C 43.05 95.29 43.04 97.70 42.99 100.10 C 41.85 100.50 40.74 100.96 39.64 101.46 C 40.50 100.47 41.36 99.50 42.23 98.53 C 42.28 95.54 42.29 92.56 42.28 89.58 C 43.28 87.79 44.25 85.99 45.21 84.18 C 43.16 77.36 44.41 69.99 45.49 63.07 C 40.64 63.49 36.37 60.94 33.08 57.62 C 33.24 54.96 33.76 52.35 34.06 49.71 C 33.44 48.29 32.66 46.96 31.90 45.63 C 32.73 44.99 33.55 44.34 34.42 43.76 L 34.32 45.29 C 35.62 45.60 36.91 45.90 38.21 46.19 C 35.94 46.82 35.82 48.88 35.87 50.85 C 35.49 51.22 34.75 51.95 34.38 52.31 C 34.46 52.56 34.63 53.07 34.71 53.32 C 32.65 56.78 36.72 59.06 39.19 60.64 C 41.72 61.91 44.58 61.99 47.36 61.96 C 46.81 63.28 46.28 64.62 45.77 65.97 C 48.55 66.59 51.37 66.96 54.20 67.21 C 51.49 68.26 48.68 67.67 45.98 66.95 C 45.87 67.47 45.63 68.49 45.52 69.01 C 44.87 72.12 45.00 75.31 45.11 78.46 C 45.73 78.77 46.96 79.37 47.58 79.68 C 46.92 79.89 45.61 80.31 44.95 80.52 C 46.58 84.95 48.96 89.39 53.25 91.74 C 57.61 94.90 63.10 95.38 68.30 94.87 C 69.06 93.66 69.81 92.45 70.64 91.29 C 74.32 88.18 78.50 85.58 81.71 81.96 C 82.36 79.22 82.34 76.38 82.08 73.59 C 82.01 70.38 81.61 67.18 80.85 64.06 C 78.35 64.11 75.80 64.43 73.33 63.92 C 70.90 63.15 69.26 61.10 67.48 59.40 C 65.64 61.33 63.69 63.48 60.88 63.83 C 56.24 65.10 51.77 63.09 47.36 61.96 C 47.14 60.30 46.77 58.67 46.30 57.07 C 45.92 55.83 45.52 54.60 45.10 53.37 C 45.12 52.48 45.15 51.59 45.18 50.70 C 45.53 49.50 45.85 48.29 46.17 47.07 C 51.21 51.07 57.99 47.43 63.63 49.46 C 63.08 49.64 61.98 49.99 61.43 50.16 C 60.49 52.48 59.56 55.21 56.98 56.16 C 54.88 57.28 52.57 56.37 50.42 55.94 C 49.76 54.55 49.09 53.15 48.43 51.76 C 48.58 51.22 48.88 50.15 49.03 49.61 C 48.34 49.79 46.97 50.13 46.29 50.31 C 46.57 54.13 47.33 58.75 51.01 60.80 C 54.84 63.43 60.11 63.32 64.07 61.06 C 68.63 57.18 68.68 50.64 66.84 45.38 C 63.81 42.26 60.60 38.26 55.70 38.96 C 53.37 40.40 51.01 41.81 48.75 43.36 C 49.17 44.66 49.60 45.95 50.03 47.25 C 48.97 47.03 47.92 46.79 46.86 46.53 C 47.51 44.96 48.26 43.44 49.00 41.93 C 48.53 40.95 48.05 39.98 47.59 39.00 C 45.60 39.01 43.62 39.03 41.65 39.07 C 40.48 39.82 39.31 40.55 38.15 41.29 C 38.49 42.02 39.16 43.48 39.50 44.20 C 38.24 43.84 36.99 43.49 35.73 43.15 C 37.46 41.21 39.38 39.45 41.64 38.14 C 43.45 38.22 45.25 38.29 47.06 38.35 C 41.64 31.98 34.59 27.29 27.03 23.84 C 18.74 19.11 9.30 17.21 0.00 15.68 L 0.00 15.00 C 3.60 13.73 7.48 14.50 11.20 14.06 C 9.58 13.03 7.67 12.86 5.82 12.65 C 6.22 12.27 7.01 11.53 7.41 11.15 C 10.44 11.19 13.43 11.70 16.33 12.53 C 17.68 12.88 19.04 13.19 20.40 13.49 C 22.05 14.24 23.72 14.97 25.40 15.66 C 28.09 16.17 30.79 16.67 33.42 17.45 C 34.33 17.73 36.17 18.27 37.09 18.55 C 34.99 15.96 32.53 13.67 29.68 11.93 C 31.23 11.67 32.82 10.99 34.39 11.48 C 40.52 13.32 46.31 16.62 50.66 21.35 C 52.82 23.52 54.38 26.28 57.01 27.95 C 57.23 25.95 57.37 23.90 58.20 22.03 C 58.70 17.50 56.06 12.95 58.11 8.55 M 33.72 12.78 C 36.29 15.23 38.30 18.77 41.66 20.08 C 45.89 22.14 50.09 24.34 53.64 27.47 C 51.72 24.04 48.74 21.44 45.85 18.85 L 46.24 18.73 C 42.16 16.58 38.37 13.60 33.72 12.78 C 33.25 12.28 33.25 12.28 33.72 12.78 M 58.39 12.05 C 59.06 15.97 59.59 20.04 58.68 23.96 C 58.41 25.34 58.17 26.73 57.94 28.11 C 56.50 28.07 55.06 28.02 53.62 27.97 C 54.29 29.07 54.96 30.18 55.62 31.28 C 57.37 31.91 59.06 32.77 60.91 33.07 C 62.91 33.02 64.89 32.53 66.91 32.56 C 66.98 29.74 66.97 26.91 66.89 24.09 C 65.37 21.85 64.93 17.55 61.36 18.10 C 58.91 17.46 59.34 13.99 58.39 12.05 M 4.00 15.02 L 4.02 15.97 C 9.90 14.97 15.05 18.19 20.64 19.27 C 24.54 20.34 27.85 22.81 31.60 24.26 C 23.52 18.71 14.00 14.45 4.00 15.02 M 29.67 17.97 C 33.52 19.95 37.33 22.49 41.43 23.70 C 45.96 26.79 49.36 31.23 54.01 34.12 C 53.48 28.48 48.31 25.17 43.56 23.22 C 39.37 20.52 34.54 18.89 29.67 17.97 C 29.81 14.68 26.55 19.34 29.67 17.97 M 27.06 18.92 L 27.35 19.61 C 27.72 19.55 28.45 19.44 28.81 19.38 L 28.55 18.59 C 28.17 18.67 27.43 18.84 27.06 18.92 C 24.83 16.65 25.52 21.88 27.06 18.92 M 28.81 19.38 C 28.95 19.75 29.22 20.48 29.36 20.85 L 30.15 20.75 L 30.31 20.01 C 29.93 19.85 29.19 19.54 28.81 19.38 M 31.17 20.96 C 33.66 24.52 38.20 25.71 40.92 29.08 C 43.31 31.26 46.12 35.42 49.86 33.82 C 47.58 31.51 44.97 29.58 42.58 27.40 C 39.34 24.38 35.06 22.92 31.17 20.96 M 31.60 24.26 C 31.39 24.49 31.39 24.49 31.60 24.26 M 33.48 25.49 C 33.51 25.53 33.51 25.53 33.48 25.49 M 36.50 27.47 C 36.53 27.51 36.53 27.51 36.50 27.47 M 53.64 27.47 C 53.64 27.60 53.63 27.85 53.62 27.97 C 53.63 27.85 53.64 27.60 53.64 27.47 M 51.65 54.92 C 53.82 54.99 55.99 55.00 58.17 54.99 C 57.97 54.39 57.58 53.20 57.38 52.61 C 55.41 52.72 52.34 52.56 51.65 54.92 Z" />
<path fill="#568b5d" opacity="1.00" d=" M 84.25 14.65 C 87.87 13.14 91.61 11.91 95.44 11.06 C 94.73 12.24 93.95 13.44 92.68 14.08 C 92.09 13.87 90.92 13.45 90.33 13.24 C 88.13 14.22 85.87 15.06 83.52 15.62 L 84.25 14.65 Z" />
<path fill="#568b5d" opacity="1.00" d=" M 94.66 20.09 C 102.85 14.94 112.40 12.51 121.93 11.41 C 122.35 11.64 123.19 12.09 123.61 12.32 C 122.21 12.73 120.80 13.14 119.40 13.53 C 117.98 13.94 116.56 14.36 115.15 14.83 C 114.87 14.79 114.29 14.71 114.00 14.67 C 107.79 13.44 102.27 17.78 96.78 20.02 C 96.25 20.04 95.19 20.07 94.66 20.09 Z" />
<path fill="#568b5d" opacity="1.00" d=" M 127.37 16.35 C 127.58 16.13 128.00 15.69 128.21 15.47 C 130.72 16.34 133.38 16.36 136.00 16.36 L 136.00 17.86 C 128.69 17.40 121.43 18.72 114.37 20.51 C 112.98 20.92 111.59 21.32 110.22 21.77 C 109.54 21.74 108.20 21.70 107.53 21.68 C 113.05 19.47 118.89 17.90 124.87 17.82 L 124.75 17.00 C 118.33 16.64 112.04 18.09 105.89 19.77 C 101.15 21.03 96.83 23.50 92.08 24.68 C 93.03 22.29 96.31 21.85 98.43 20.73 C 102.44 19.45 105.92 16.86 110.07 15.98 C 111.26 16.69 112.54 17.17 113.90 17.43 C 118.01 15.19 122.92 16.65 127.37 16.35 Z" />
<path fill="#568b5d" opacity="1.00" d=" M 81.28 16.24 C 81.70 16.29 82.54 16.38 82.96 16.42 C 82.62 16.65 81.95 17.11 81.61 17.33 L 80.89 16.95 L 81.28 16.24 Z" />
<path fill="#568b5d" opacity="1.00" d=" M 87.84 18.34 C 87.88 16.82 88.66 15.93 90.17 15.68 C 89.93 17.04 89.15 17.92 87.84 18.34 Z" />
<path fill="#568b5d" opacity="1.00" d=" M 75.92 21.15 C 76.75 19.55 78.10 17.65 80.19 18.29 C 79.65 20.23 77.74 20.95 75.92 21.15 Z" />
<path fill="#568b5d" opacity="1.00" d=" M 86.03 21.15 C 86.21 20.61 86.56 19.53 86.73 18.99 C 86.56 19.53 86.21 20.61 86.03 21.15 Z" />
<path fill="#568b5d" opacity="1.00" d=" M 92.21 21.27 C 92.62 21.31 93.44 21.37 93.84 21.41 C 93.51 21.65 92.85 22.13 92.52 22.37 L 91.80 21.97 L 92.21 21.27 Z" />
<path fill="#568b5d" opacity="1.00" d=" M 71.00 26.95 C 71.33 25.23 72.42 23.86 73.87 22.92 C 74.61 25.00 73.11 26.87 71.00 26.95 Z" />
<path fill="#568b5d" opacity="1.00" d=" M 88.79 24.07 C 89.33 23.91 90.42 23.58 90.96 23.41 C 90.42 23.58 89.33 23.91 88.79 24.07 Z" />
<path fill="#568b5d" opacity="1.00" d=" M 100.26 24.71 C 101.49 22.64 103.94 22.38 106.09 22.99 C 104.42 24.23 102.39 25.24 100.26 24.71 Z" />
<path fill="#568b5d" opacity="1.00" d=" M 89.34 24.95 L 90.17 24.56 C 90.30 24.86 90.57 25.48 90.71 25.79 L 90.17 26.28 L 89.34 25.85 L 89.34 24.95 Z" />
<path fill="#568b5d" opacity="1.00" d=" M 85.39 26.63 C 85.45 26.58 85.59 26.46 85.66 26.41 C 85.59 26.46 85.45 26.58 85.39 26.63 Z" />
<path fill="#568b5d" opacity="1.00" d=" M 89.34 30.90 C 91.66 28.07 94.87 26.29 98.53 25.91 L 97.48 26.43 C 96.99 26.68 96.01 27.16 95.53 27.40 C 96.05 27.88 97.08 28.85 97.60 29.33 C 101.75 29.13 105.97 29.12 109.97 30.40 C 109.98 30.77 109.99 31.51 109.99 31.87 C 102.75 31.71 95.43 31.58 88.44 33.77 C 90.16 32.44 92.16 31.55 94.25 30.99 C 98.35 30.98 102.51 31.27 106.55 30.39 C 101.48 29.90 96.31 29.62 91.31 30.72 C 90.82 30.77 89.83 30.86 89.34 30.90 Z" />
<path fill="#568b5d" opacity="1.00" d=" M 87.17 27.28 C 87.68 27.78 87.68 27.78 87.17 27.28 Z" />
<path fill="#568b5d" opacity="1.00" d=" M 87.37 31.36 C 88.81 30.77 89.23 31.20 88.62 32.64 C 87.18 33.22 86.76 32.80 87.37 31.36 Z" />
<path fill="#568b5d" opacity="1.00" d=" M 52.23 43.24 C 52.82 43.82 52.82 43.82 52.23 43.24 Z" />
<path fill="#568b5d" opacity="1.00" d=" M 58.22 43.22 C 58.80 43.81 58.80 43.81 58.22 43.22 Z" />
<path fill="#568b5d" opacity="1.00" d=" M 50.23 44.23 C 50.85 44.84 50.85 44.84 50.23 44.23 Z" />
<path fill="#568b5d" opacity="1.00" d=" M 60.24 44.09 C 63.31 42.55 60.46 47.32 60.24 44.09 Z" />
<path fill="#568b5d" opacity="1.00" d=" M 58.24 45.24 C 58.81 45.81 58.81 45.81 58.24 45.24 Z" />
<path fill="#568b5d" opacity="1.00" d=" M 74.04 45.38 C 74.97 44.37 77.38 45.57 76.67 46.92 C 75.69 47.90 73.15 46.86 74.04 45.38 Z" />
<path fill="#568b5d" opacity="1.00" d=" M 60.20 46.37 C 61.38 45.63 62.59 45.47 63.81 45.89 L 63.79 46.50 C 62.66 47.16 61.47 47.29 60.23 46.87 L 60.20 46.37 Z" />
<path fill="#568b5d" opacity="1.00" d=" M 44.60 99.46 C 45.56 98.67 46.51 98.68 47.45 99.49 C 47.81 101.15 44.27 101.09 44.60 99.46 Z" />
<path fill="#568b5d" opacity="1.00" d=" M 50.21 100.36 C 51.74 99.57 53.63 99.77 55.28 100.03 C 57.17 100.88 53.58 101.32 53.05 101.16 C 51.75 101.37 50.80 101.11 50.21 100.36 Z" />
<path fill="#568b5d" opacity="1.00" d=" M 36.94 103.00 C 37.47 102.78 38.53 102.34 39.06 102.12 L 38.80 102.96 C 38.34 102.97 37.41 102.99 36.94 103.00 Z" />
<path fill="#568b5d" opacity="1.00" d=" M 42.68 103.81 C 43.77 102.63 45.29 102.79 46.49 103.72 C 43.98 103.38 42.45 104.88 41.51 107.02 C 43.29 106.99 45.07 106.96 46.84 106.85 C 46.91 106.29 47.04 105.17 47.11 104.60 L 47.78 105.61 C 48.00 105.94 48.45 106.59 48.68 106.91 C 51.32 106.65 53.95 106.28 56.58 105.98 L 55.43 106.45 C 48.51 109.41 40.84 107.31 33.68 106.58 C 34.02 106.20 34.70 105.46 35.04 105.08 L 34.92 106.17 C 37.69 106.11 40.52 105.69 42.68 103.81 Z" />
<path fill="#568b5d" opacity="1.00" d=" M 75.20 106.43 C 75.31 106.59 75.52 106.91 75.63 107.07 L 75.40 106.72 L 75.20 106.43 Z" />
</g>
<g id="#9dd180ff">
<path fill="#9dd180" opacity="1.00" d=" M 33.72 12.78 C 33.25 12.28 33.25 12.28 33.72 12.78 Z" />
<path fill="#9dd180" opacity="1.00" d=" M 58.39 12.05 C 59.34 13.99 58.91 17.46 61.36 18.10 C 64.93 17.55 65.37 21.85 66.89 24.09 C 66.20 24.57 65.52 25.04 64.83 25.52 C 62.79 25.00 60.73 24.48 58.68 23.96 C 59.59 20.04 59.06 15.97 58.39 12.05 Z" />
<path fill="#9dd180" opacity="1.00" d=" M 33.72 12.78 C 38.37 13.60 42.16 16.58 46.24 18.73 L 45.85 18.85 C 44.46 19.28 43.07 19.71 41.66 20.08 C 38.30 18.77 36.29 15.23 33.72 12.78 Z" />
<path fill="#9dd180" opacity="1.00" d=" M 90.33 13.24 C 90.92 13.45 92.09 13.87 92.68 14.08 C 91.84 14.61 91.00 15.15 90.17 15.68 C 88.66 15.93 87.88 16.82 87.84 18.34 C 87.56 18.50 87.01 18.83 86.73 18.99 C 86.56 19.53 86.21 20.61 86.03 21.15 C 85.44 21.79 84.86 22.43 84.28 23.08 C 81.39 22.30 78.43 21.79 75.44 21.57 L 75.92 21.15 C 77.74 20.95 79.65 20.23 80.19 18.29 C 80.37 17.95 80.72 17.28 80.89 16.95 L 81.61 17.33 C 81.95 17.11 82.62 16.65 82.96 16.42 C 83.10 16.22 83.38 15.82 83.52 15.62 C 85.87 15.06 88.13 14.22 90.33 13.24 Z" />
<path fill="#9dd180" opacity="1.00" d=" M 96.78 20.02 C 102.27 17.78 107.79 13.44 114.00 14.67 C 113.02 15.00 111.06 15.66 110.07 15.98 C 105.92 16.86 102.44 19.45 98.43 20.73 L 96.78 20.02 Z" />
<path fill="#9dd180" opacity="1.00" d=" M 4.00 15.02 C 14.00 14.45 23.52 18.71 31.60 24.26 C 27.85 22.81 24.54 20.34 20.64 19.27 C 15.05 18.19 9.90 14.97 4.02 15.97 L 4.00 15.02 Z" />
<path fill="#9dd180" opacity="1.00" d=" M 29.67 17.97 C 26.55 19.34 29.81 14.68 29.67 17.97 Z" />
<path fill="#9dd180" opacity="1.00" d=" M 105.89 19.77 C 112.04 18.09 118.33 16.64 124.75 17.00 L 124.87 17.82 C 118.89 17.90 113.05 19.47 107.53 21.68 C 106.98 21.04 106.43 20.40 105.89 19.77 Z" />
<path fill="#9dd180" opacity="1.00" d=" M 29.67 17.97 C 34.54 18.89 39.37 20.52 43.56 23.22 C 43.02 23.34 41.96 23.58 41.43 23.70 C 37.33 22.49 33.52 19.95 29.67 17.97 Z" />
<path fill="#9dd180" opacity="1.00" d=" M 28.81 19.38 C 29.19 19.54 29.93 19.85 30.31 20.01 L 30.15 20.75 L 29.36 20.85 C 29.22 20.48 28.95 19.75 28.81 19.38 Z" />
<path fill="#9dd180" opacity="1.00" d=" M 91.31 30.72 C 96.31 29.62 101.48 29.90 106.55 30.39 C 102.51 31.27 98.35 30.98 94.25 30.99 C 93.52 30.92 92.04 30.79 91.31 30.72 Z" />
</g>
<g id="#6ab274ff">
<path fill="#6ab274" opacity="1.00" d=" M 41.66 20.08 C 43.07 19.71 44.46 19.28 45.85 18.85 C 48.74 21.44 51.72 24.04 53.64 27.47 C 50.09 24.34 45.89 22.14 41.66 20.08 Z" />
<path fill="#6ab274" opacity="1.00" d=" M 94.66 20.09 C 95.19 20.07 96.25 20.04 96.78 20.02 L 98.43 20.73 C 96.31 21.85 93.03 22.29 92.08 24.68 C 96.83 23.50 101.15 21.03 105.89 19.77 C 106.43 20.40 106.98 21.04 107.53 21.68 L 108.28 22.57 C 107.73 22.67 106.64 22.88 106.09 22.99 C 103.94 22.38 101.49 22.64 100.26 24.71 L 99.60 25.37 C 99.33 25.51 98.80 25.77 98.53 25.91 C 94.87 26.29 91.66 28.07 89.34 30.90 C 89.83 30.86 90.82 30.77 91.31 30.72 C 92.04 30.79 93.52 30.92 94.25 30.99 C 92.16 31.55 90.16 32.44 88.44 33.77 L 87.94 34.10 C 87.06 33.76 86.18 33.41 85.30 33.07 C 82.20 35.90 78.86 38.52 75.00 40.25 C 77.02 35.65 80.41 31.66 85.14 29.74 C 84.87 29.25 84.34 28.28 84.07 27.80 C 84.40 27.51 85.06 26.92 85.39 26.63 C 85.45 26.58 85.59 26.46 85.66 26.41 C 86.15 26.07 87.11 25.40 87.60 25.06 C 87.89 24.81 88.49 24.32 88.79 24.07 C 89.33 23.91 90.42 23.58 90.96 23.41 C 91.17 23.05 91.59 22.33 91.80 21.97 L 92.52 22.37 C 92.85 22.13 93.51 21.65 93.84 21.41 C 94.05 21.08 94.46 20.42 94.66 20.09 M 89.34 24.95 L 89.34 25.85 L 90.17 26.28 L 90.71 25.79 C 90.57 25.48 90.30 24.86 90.17 24.56 L 89.34 24.95 M 87.17 27.28 C 87.68 27.78 87.68 27.78 87.17 27.28 M 87.37 31.36 C 86.76 32.80 87.18 33.22 88.62 32.64 C 89.23 31.20 88.81 30.77 87.37 31.36 Z" />
<path fill="#6ab274" opacity="1.00" d=" M 31.17 20.96 C 35.06 22.92 39.34 24.38 42.58 27.40 C 44.97 29.58 47.58 31.51 49.86 33.82 C 46.12 35.42 43.31 31.26 40.92 29.08 C 38.20 25.71 33.66 24.52 31.17 20.96 Z" />
<path fill="#6ab274" opacity="1.00" d=" M 75.44 21.57 C 78.43 21.79 81.39 22.30 84.28 23.08 C 83.41 24.57 82.31 25.91 81.06 27.09 C 79.24 28.53 78.37 30.67 78.02 32.91 C 76.45 34.42 74.81 35.86 73.14 37.26 C 72.91 35.89 72.67 34.52 72.44 33.15 C 71.03 33.74 69.62 34.32 68.21 34.92 C 69.03 32.49 69.80 30.05 70.47 27.58 C 70.60 27.42 70.86 27.11 71.00 26.95 C 73.11 26.87 74.61 25.00 73.87 22.92 C 74.27 22.58 75.05 21.91 75.44 21.57 Z" />
<path fill="#6ab274" opacity="1.00" d=" M 41.43 23.70 C 41.96 23.58 43.02 23.34 43.56 23.22 C 48.31 25.17 53.48 28.48 54.01 34.12 C 49.36 31.23 45.96 26.79 41.43 23.70 Z" />
<path fill="#6ab274" opacity="1.00" d=" M 57.94 28.11 C 58.17 26.73 58.41 25.34 58.68 23.96 C 60.73 24.48 62.79 25.00 64.83 25.52 C 65.52 25.04 66.20 24.57 66.89 24.09 C 66.97 26.91 66.98 29.74 66.91 32.56 C 64.89 32.53 62.91 33.02 60.91 33.07 C 59.06 32.77 57.37 31.91 55.62 31.28 C 54.96 30.18 54.29 29.07 53.62 27.97 C 55.06 28.02 56.50 28.07 57.94 28.11 Z" />
</g>
<g id="#f9f6c4ff">
<path fill="#f9f6c4" opacity="1.00" d=" M 41.65 39.07 C 43.62 39.03 45.60 39.01 47.59 39.00 C 48.05 39.98 48.53 40.95 49.00 41.93 C 48.26 43.44 47.51 44.96 46.86 46.53 C 47.92 46.79 48.97 47.03 50.03 47.25 C 49.60 45.95 49.17 44.66 48.75 43.36 C 51.01 41.81 53.37 40.40 55.70 38.96 C 60.60 38.26 63.81 42.26 66.84 45.38 C 68.68 50.64 68.63 57.18 64.07 61.06 C 60.11 63.32 54.84 63.43 51.01 60.80 C 47.33 58.75 46.57 54.13 46.29 50.31 C 46.97 50.13 48.34 49.79 49.03 49.61 C 48.88 50.15 48.58 51.22 48.43 51.76 C 49.09 53.15 49.76 54.55 50.42 55.94 C 52.57 56.37 54.88 57.28 56.98 56.16 C 59.56 55.21 60.49 52.48 61.43 50.16 C 61.98 49.99 63.08 49.64 63.63 49.46 C 57.99 47.43 51.21 51.07 46.17 47.07 C 45.85 48.29 45.53 49.50 45.18 50.70 C 45.15 51.59 45.12 52.48 45.10 53.37 C 45.52 54.60 45.92 55.83 46.30 57.07 C 44.09 58.56 41.76 59.90 39.19 60.64 C 36.72 59.06 32.65 56.78 34.71 53.32 C 34.63 53.07 34.46 52.56 34.38 52.31 C 34.75 51.95 35.49 51.22 35.87 50.85 C 35.82 48.88 35.94 46.82 38.21 46.19 C 36.91 45.90 35.62 45.60 34.32 45.29 L 34.42 43.76 L 35.41 43.45 L 35.73 43.15 C 36.99 43.49 38.24 43.84 39.50 44.20 C 39.16 43.48 38.49 42.02 38.15 41.29 C 39.31 40.55 40.48 39.82 41.65 39.07 M 40.45 42.08 C 40.63 45.39 43.44 40.54 40.45 42.08 M 52.23 43.24 C 52.82 43.82 52.82 43.82 52.23 43.24 M 58.22 43.22 C 58.80 43.81 58.80 43.81 58.22 43.22 M 50.23 44.23 C 50.85 44.84 50.85 44.84 50.23 44.23 M 60.24 44.09 C 60.46 47.32 63.31 42.55 60.24 44.09 M 58.24 45.24 C 58.81 45.81 58.81 45.81 58.24 45.24 M 60.20 46.37 L 60.23 46.87 C 61.47 47.29 62.66 47.16 63.79 46.50 L 63.81 45.89 C 62.59 45.47 61.38 45.63 60.20 46.37 Z" />
<path fill="#f9f6c4" opacity="1.00" d=" M 73.50 40.99 C 75.58 41.07 77.72 40.83 79.76 41.35 C 82.41 42.61 84.31 44.97 86.49 46.87 C 85.96 47.36 85.43 47.86 84.89 48.34 C 82.40 47.93 79.88 47.92 77.39 48.34 C 80.20 49.13 83.13 48.73 85.98 49.06 C 88.68 50.93 87.85 54.91 87.85 57.75 C 87.74 57.97 87.52 58.39 87.41 58.60 C 86.80 59.32 86.18 60.04 85.50 60.69 C 82.08 62.18 78.24 63.41 74.51 62.46 C 71.78 61.66 70.08 59.23 68.59 56.99 C 69.17 53.42 69.43 49.72 68.37 46.22 C 69.56 44.01 71.41 42.32 73.50 40.99 M 77.12 44.66 C 77.79 45.74 78.72 46.12 79.88 45.80 C 80.54 44.41 77.23 42.90 77.12 44.66 M 74.04 45.38 C 73.15 46.86 75.69 47.90 76.67 46.92 C 77.38 45.57 74.97 44.37 74.04 45.38 Z" />
<path fill="#f9f6c4" opacity="1.00" d=" M 50.92 64.74 C 55.47 65.82 60.17 65.89 64.74 64.90 C 68.94 63.99 73.19 64.86 77.18 66.21 C 69.55 67.21 61.76 65.72 54.20 67.21 C 53.11 66.38 52.02 65.56 50.92 64.74 Z" />
<path fill="#f9f6c4" opacity="1.00" d=" M 41.51 107.02 C 42.45 104.88 43.98 103.38 46.49 103.72 C 46.65 103.94 46.95 104.38 47.11 104.60 C 47.04 105.17 46.91 106.29 46.84 106.85 C 45.07 106.96 43.29 106.99 41.51 107.02 Z" />
<path fill="#f9f6c4" opacity="1.00" d=" M 73.38 105.26 C 73.83 105.55 74.74 106.14 75.20 106.43 L 75.40 106.72 L 75.63 107.07 L 76.01 108.15 C 74.38 109.26 72.48 108.95 70.96 107.82 C 71.77 106.97 72.57 106.11 73.38 105.26 Z" />
<path fill="#f9f6c4" opacity="1.00" d=" M 81.49 107.22 C 81.99 105.21 84.80 105.89 84.18 107.92 C 83.64 109.06 82.77 109.16 81.58 108.22 L 81.49 107.22 Z" />
</g>
<g id="#b1a897ff">
<path fill="#b1a897" opacity="1.00" d=" M 40.45 42.08 C 43.44 40.54 40.63 45.39 40.45 42.08 Z" />
<path fill="#b1a897" opacity="1.00" d=" M 79.13 80.48 C 80.10 78.18 81.12 75.90 82.08 73.59 C 82.34 76.38 82.36 79.22 81.71 81.96 C 78.50 85.58 74.32 88.18 70.64 91.29 C 66.29 91.30 61.65 92.49 57.55 90.50 C 53.22 88.76 49.81 85.42 47.17 81.65 C 47.73 81.24 48.85 80.42 49.40 80.01 L 49.73 80.39 L 50.04 80.75 C 52.58 86.09 58.75 88.11 64.28 88.28 C 69.83 88.13 74.87 85.14 78.31 80.89 L 79.55 80.95 C 80.30 80.73 81.05 80.50 81.79 80.24 L 79.13 80.48 Z" />
</g>
<g id="#968e80ff">
<path fill="#968e80" opacity="1.00" d=" M 77.12 44.66 C 77.23 42.90 80.54 44.41 79.88 45.80 C 78.72 46.12 77.79 45.74 77.12 44.66 Z" />
<path fill="#968e80" opacity="1.00" d=" M 45.11 78.46 C 45.00 75.31 44.87 72.12 45.52 69.01 C 45.01 73.10 46.59 77.07 49.40 80.01 C 48.85 80.42 47.73 81.24 47.17 81.65 C 49.81 85.42 53.22 88.76 57.55 90.50 C 61.65 92.49 66.29 91.30 70.64 91.29 C 69.81 92.45 69.06 93.66 68.30 94.87 C 63.10 95.38 57.61 94.90 53.25 91.74 C 48.96 89.39 46.58 84.95 44.95 80.52 C 45.61 80.31 46.92 79.89 47.58 79.68 C 46.96 79.37 45.73 78.77 45.11 78.46 Z" />
<path fill="#968e80" opacity="1.00" d=" M 70.14 93.27 C 73.39 90.67 76.63 88.06 79.73 85.28 C 79.97 85.95 80.44 87.28 80.68 87.94 C 76.99 89.94 72.38 91.54 71.12 96.04 C 74.72 95.81 78.32 95.38 81.85 94.61 L 82.30 93.64 C 82.97 96.68 83.04 99.83 83.87 102.85 C 79.32 102.09 74.57 102.17 70.29 104.03 C 71.06 104.34 72.61 104.95 73.38 105.26 C 72.57 106.11 71.77 106.97 70.96 107.82 C 70.14 106.62 69.39 105.37 68.68 104.10 C 68.83 103.60 69.14 102.60 69.30 102.10 L 70.39 102.04 C 74.67 101.94 78.96 102.19 83.23 101.67 C 79.31 100.68 75.26 100.94 71.27 101.03 C 70.86 98.45 70.48 95.86 70.14 93.27 M 72.37 97.60 C 75.34 99.15 78.76 97.73 81.83 97.20 C 81.83 96.96 81.82 96.48 81.82 96.24 C 78.63 95.94 75.53 97.25 72.37 97.60 Z" />
<path fill="#968e80" opacity="1.00" d=" M 43.14 92.89 C 46.02 93.65 48.99 93.98 51.95 94.32 C 49.23 95.17 46.36 95.21 43.54 95.27 C 46.62 96.59 49.96 96.86 53.11 95.64 C 53.55 95.56 54.44 95.41 54.89 95.34 C 56.25 98.56 57.24 101.92 58.55 105.17 C 58.05 105.37 57.07 105.77 56.58 105.98 C 53.95 106.28 51.32 106.65 48.68 106.91 C 48.45 106.59 48.00 105.94 47.78 105.61 C 49.29 105.18 50.79 104.74 52.30 104.30 C 49.78 101.83 46.35 100.81 42.99 100.10 C 43.04 97.70 43.05 95.29 43.14 92.89 M 44.60 99.46 C 44.27 101.09 47.81 101.15 47.45 99.49 C 46.51 98.68 45.56 98.67 44.60 99.46 M 50.21 100.36 C 50.80 101.11 51.75 101.37 53.05 101.16 C 53.58 101.32 57.17 100.88 55.28 100.03 C 53.63 99.77 51.74 99.57 50.21 100.36 Z" />
</g>
<g id="#d4c9b4ff">
<path fill="#d4c9b4" opacity="1.00" d=" M 51.65 54.92 C 52.34 52.56 55.41 52.72 57.38 52.61 C 57.58 53.20 57.97 54.39 58.17 54.99 C 55.99 55.00 53.82 54.99 51.65 54.92 Z" />
<path fill="#d4c9b4" opacity="1.00" d=" M 39.19 60.64 C 41.76 59.90 44.09 58.56 46.30 57.07 C 46.77 58.67 47.14 60.30 47.36 61.96 C 44.58 61.99 41.72 61.91 39.19 60.64 Z" />
<path fill="#d4c9b4" opacity="1.00" d=" M 60.88 63.83 C 63.69 63.48 65.64 61.33 67.48 59.40 C 69.26 61.10 70.90 63.15 73.33 63.92 C 75.80 64.43 78.35 64.11 80.85 64.06 C 81.61 67.18 82.01 70.38 82.08 73.59 C 81.12 75.90 80.10 78.18 79.13 80.48 C 69.33 80.38 59.53 80.45 49.73 80.39 L 49.40 80.01 C 46.59 77.07 45.01 73.10 45.52 69.01 C 45.63 68.49 45.87 67.47 45.98 66.95 C 48.68 67.67 51.49 68.26 54.20 67.21 C 61.76 65.72 69.55 67.21 77.18 66.21 C 73.19 64.86 68.94 63.99 64.74 64.90 C 60.17 65.89 55.47 65.82 50.92 64.74 C 52.02 65.56 53.11 66.38 54.20 67.21 C 51.37 66.96 48.55 66.59 45.77 65.97 C 46.28 64.62 46.81 63.28 47.36 61.96 C 51.77 63.09 56.24 65.10 60.88 63.83 Z" />
<path fill="#d4c9b4" opacity="1.00" d=" M 50.04 80.75 C 59.46 80.63 68.90 80.31 78.31 80.89 C 74.87 85.14 69.83 88.13 64.28 88.28 C 58.75 88.11 52.58 86.09 50.04 80.75 Z" />
<path fill="#d4c9b4" opacity="1.00" d=" M 43.14 92.89 C 43.20 90.44 44.23 88.21 45.27 86.05 C 46.98 88.93 49.23 91.44 52.09 93.22 C 52.13 93.65 52.22 94.52 52.26 94.96 L 53.11 95.64 C 49.96 96.86 46.62 96.59 43.54 95.27 C 46.36 95.21 49.23 95.17 51.95 94.32 C 48.99 93.98 46.02 93.65 43.14 92.89 Z" />
<path fill="#d4c9b4" opacity="1.00" d=" M 71.12 96.04 C 72.38 91.54 76.99 89.94 80.68 87.94 C 81.32 89.81 81.92 91.70 82.30 93.64 L 81.85 94.61 C 78.32 95.38 74.72 95.81 71.12 96.04 Z" />
<path fill="#d4c9b4" opacity="1.00" d=" M 72.37 97.60 C 75.53 97.25 78.63 95.94 81.82 96.24 C 81.82 96.48 81.83 96.96 81.83 97.20 C 78.76 97.73 75.34 99.15 72.37 97.60 Z" />
<path fill="#d4c9b4" opacity="1.00" d=" M 39.64 101.46 C 40.74 100.96 41.85 100.50 42.99 100.10 C 46.35 100.81 49.78 101.83 52.30 104.30 C 50.79 104.74 49.29 105.18 47.78 105.61 L 47.11 104.60 C 46.95 104.38 46.65 103.94 46.49 103.72 C 45.29 102.79 43.77 102.63 42.68 103.81 C 40.52 105.69 37.69 106.11 34.92 106.17 L 35.04 105.08 C 35.67 104.38 36.31 103.69 36.94 103.00 C 37.41 102.99 38.34 102.97 38.80 102.96 L 39.06 102.12 C 39.20 101.95 39.50 101.62 39.64 101.46 Z" />
<path fill="#d4c9b4" opacity="1.00" d=" M 70.29 104.03 C 74.57 102.17 79.32 102.09 83.87 102.85 C 84.14 102.97 84.69 103.22 84.96 103.34 C 83.76 104.23 82.55 105.11 81.40 106.07 C 81.42 106.35 81.47 106.93 81.49 107.22 L 81.58 108.22 C 79.72 108.30 77.86 108.36 76.01 108.15 L 75.63 107.07 C 75.52 106.91 75.31 106.59 75.20 106.43 C 74.74 106.14 73.83 105.55 73.38 105.26 C 72.61 104.95 71.06 104.34 70.29 104.03 Z" />
</g>
</svg>
