<?xml version="1.0" encoding="UTF-8" ?>
<!DOCTYPE svg PUBLIC "-//W3C//DTD SVG 1.1//EN" "http://www.w3.org/Graphics/SVG/1.1/DTD/svg11.dtd">
<svg width="120pt" height="120pt" viewBox="0 0 120 120" version="1.1" xmlns="http://www.w3.org/2000/svg">
<g id="#585255fa">
<path fill="#585255" opacity="0.98" d=" M 53.79 46.46 C 55.71 43.76 59.36 42.86 62.52 43.19 C 65.73 44.66 68.51 46.82 70.90 49.42 C 72.38 48.50 74.00 47.88 75.62 47.27 C 77.22 48.54 79.48 48.01 81.21 49.06 C 84.08 51.03 85.75 54.13 87.35 57.11 C 87.81 56.22 88.21 55.29 88.56 54.35 L 88.78 54.11 C 88.70 56.59 88.64 59.11 89.46 61.49 C 90.09 61.05 91.36 60.17 91.99 59.73 C 92.00 60.24 92.02 61.27 92.03 61.79 C 91.30 61.79 89.85 61.80 89.13 61.80 C 89.22 63.47 87.98 65.67 89.25 67.05 L 89.79 67.40 C 90.20 68.25 90.60 69.12 90.97 69.99 C 90.15 69.15 89.33 68.31 88.52 67.46 C 87.93 68.60 87.33 69.75 86.74 70.89 C 88.96 70.95 91.19 71.04 93.40 71.20 C 90.95 72.81 87.77 71.70 85.01 71.94 C 85.71 70.66 86.31 69.32 86.87 67.97 C 88.72 63.36 87.25 58.18 84.29 54.39 C 81.71 48.76 73.84 47.05 69.22 51.20 C 65.70 55.12 62.89 60.88 64.64 66.18 C 65.36 69.86 67.59 73.40 71.59 73.89 C 71.82 74.10 72.26 74.50 72.48 74.71 C 76.12 74.99 79.86 75.26 83.35 73.94 C 80.97 76.67 77.18 76.00 73.97 76.01 C 70.99 76.24 68.79 73.89 66.10 73.07 C 60.59 75.34 54.58 73.72 49.52 71.09 C 48.32 71.04 47.12 70.99 45.93 70.95 C 46.41 69.25 46.77 67.52 47.11 65.80 C 47.23 65.28 47.45 64.24 47.57 63.73 C 47.07 60.74 46.82 57.55 45.03 54.99 C 43.43 52.70 41.33 50.84 39.58 48.68 C 37.04 48.24 34.16 46.90 31.83 48.66 C 28.06 51.02 24.02 55.05 24.33 59.80 C 23.38 61.35 23.00 63.10 22.84 64.89 C 24.74 64.34 26.63 63.79 28.56 63.38 C 27.10 64.56 25.20 64.77 23.41 65.07 L 23.51 65.95 C 23.20 68.84 25.93 70.48 27.71 72.27 C 32.00 76.68 38.99 75.29 44.04 73.07 C 43.72 73.54 43.09 74.47 42.77 74.94 C 42.21 74.99 41.10 75.09 40.54 75.14 C 38.34 76.68 35.50 75.83 33.00 76.01 C 28.84 76.44 26.64 72.31 23.42 70.52 C 21.18 69.24 20.51 66.57 19.22 64.50 C 19.05 60.22 18.85 54.79 22.38 51.78 C 21.83 53.37 21.27 54.96 20.69 56.54 C 18.93 60.66 20.76 65.02 23.05 68.49 C 20.68 60.20 25.22 50.67 33.11 47.17 C 34.82 47.36 36.52 47.53 38.23 47.66 C 35.86 44.83 32.26 44.82 28.90 44.99 L 29.14 44.13 C 31.28 44.16 33.42 44.18 35.56 44.20 C 38.36 45.79 41.04 47.64 42.74 50.45 C 43.08 49.89 43.76 48.76 44.10 48.20 C 46.95 47.32 49.71 50.07 52.20 48.12 C 51.92 48.60 51.36 49.57 51.08 50.05 C 48.81 50.67 46.62 51.53 44.53 52.60 C 46.05 53.25 47.64 53.89 49.32 53.41 C 47.69 55.92 48.05 58.97 47.99 61.81 L 49.01 61.84 C 48.95 62.38 48.82 63.46 48.76 64.00 C 49.01 68.20 52.86 71.15 56.45 72.68 C 59.33 73.32 62.32 72.93 65.24 72.95 C 64.83 71.38 64.36 69.83 63.89 68.28 C 63.16 66.26 62.92 64.13 62.76 62.00 C 61.32 61.69 59.90 61.29 58.53 60.74 C 59.78 59.86 61.11 59.11 62.47 58.41 C 62.09 59.02 61.34 60.23 60.96 60.84 C 62.11 60.78 63.22 60.53 64.29 60.08 C 63.98 59.70 63.34 58.93 63.02 58.54 C 65.29 55.76 66.79 52.42 69.33 49.84 C 66.63 46.76 62.99 43.78 58.62 44.15 C 57.63 44.72 56.62 45.24 55.59 45.73 C 55.14 45.91 54.24 46.28 53.79 46.46 M 44.11 49.11 C 42.87 51.29 47.86 51.32 47.52 49.33 C 46.44 48.52 45.30 48.44 44.11 49.11 M 47.93 68.49 C 47.47 69.82 47.99 70.31 49.47 69.95 C 49.90 68.63 49.38 68.14 47.93 68.49 Z" />
</g>
<g id="#fddfe1ff">
<path fill="#fddfe1" opacity="1.00" d=" M 58.62 44.15 C 62.99 43.78 66.63 46.76 69.33 49.84 C 66.79 52.42 65.29 55.76 63.02 58.54 C 63.34 58.93 63.98 59.70 64.29 60.08 C 63.22 60.53 62.11 60.78 60.96 60.84 C 61.34 60.23 62.09 59.02 62.47 58.41 C 61.11 59.11 59.78 59.86 58.53 60.74 C 59.90 61.29 61.32 61.69 62.76 62.00 C 62.92 64.13 63.16 66.26 63.89 68.28 C 58.46 68.77 52.95 67.65 48.76 64.00 C 48.82 63.46 48.95 62.38 49.01 61.84 L 47.99 61.81 C 48.05 58.97 47.69 55.92 49.32 53.41 C 49.92 52.30 50.48 51.16 51.08 50.05 C 51.36 49.57 51.92 48.60 52.20 48.12 C 52.59 47.42 53.12 46.87 53.79 46.46 C 54.24 46.28 55.14 45.91 55.59 45.73 C 56.62 45.24 57.63 44.72 58.62 44.15 M 54.21 48.86 C 55.59 49.11 56.14 48.55 55.86 47.17 C 54.47 46.91 53.92 47.47 54.21 48.86 M 49.78 56.59 C 50.50 58.43 52.35 59.46 53.61 60.91 C 52.40 60.94 49.99 61.01 48.78 61.04 C 49.46 63.23 52.07 61.54 53.65 61.77 C 53.75 61.13 53.95 59.86 54.04 59.22 C 52.65 58.30 51.25 57.39 49.78 56.59 M 51.66 64.01 C 54.09 66.39 58.44 65.10 61.06 63.38 C 57.95 63.86 54.81 63.96 51.66 64.01 Z" />
</g>
<g id="#fddee1ff">
<path fill="#fddee1" opacity="1.00" d=" M 28.90 44.99 C 32.26 44.82 35.86 44.83 38.23 47.66 C 36.52 47.53 34.82 47.36 33.11 47.17 C 25.22 50.67 20.68 60.20 23.05 68.49 C 20.76 65.02 18.93 60.66 20.69 56.54 C 21.27 54.96 21.83 53.37 22.38 51.78 C 22.93 51.12 23.56 50.54 24.26 50.04 C 24.47 49.56 24.88 48.60 25.08 48.12 C 25.34 47.84 25.87 47.28 26.13 47.00 C 26.53 46.99 27.33 46.99 27.73 46.99 L 28.05 46.34 C 28.26 46.00 28.69 45.32 28.90 44.99 M 21.22 58.30 C 21.84 58.87 21.84 58.87 21.22 58.30 Z" />
</g>
<g id="#4d494cf4">
<path fill="#4d494c" opacity="0.96" d=" M 82.65 46.48 C 85.39 44.95 88.53 44.93 91.58 45.16 C 96.75 48.85 100.35 55.05 99.96 61.52 C 98.50 63.61 99.14 66.61 96.97 68.35 C 97.33 66.95 97.71 65.56 98.07 64.16 C 99.38 60.98 98.71 57.63 97.79 54.45 C 96.29 52.90 95.67 49.58 93.04 49.90 C 92.13 50.37 91.23 50.86 90.36 51.39 L 89.57 51.71 C 90.83 50.60 92.20 49.63 93.61 48.71 C 92.62 47.80 91.66 46.87 90.64 46.01 C 89.98 46.01 88.65 46.00 87.98 46.00 C 86.44 46.12 84.95 46.55 83.47 46.96 L 82.65 46.48 Z" />
</g>
<g id="#081922ff">
<path fill="#081922" opacity="1.00" d=" M 26.27 46.18 C 26.71 46.22 27.61 46.30 28.05 46.34 L 27.73 46.99 C 27.33 46.99 26.53 46.99 26.13 47.00 L 26.27 46.18 Z" />
</g>
<g id="#f5d8daff">
<path fill="#f5d8da" opacity="1.00" d=" M 83.47 46.96 C 84.95 46.55 86.44 46.12 87.98 46.00 C 86.90 46.81 85.46 47.50 85.13 48.95 C 85.36 50.28 86.24 51.37 86.82 52.56 C 87.51 52.35 88.88 51.92 89.57 51.71 L 90.36 51.39 C 91.23 50.86 92.13 50.37 93.04 49.90 C 95.67 49.58 96.29 52.90 97.79 54.45 C 98.71 57.63 99.38 60.98 98.07 64.16 C 95.56 65.79 92.81 67.12 89.79 67.40 L 89.25 67.05 C 87.98 65.67 89.22 63.47 89.13 61.80 C 89.85 61.80 91.30 61.79 92.03 61.79 C 92.02 61.27 92.00 60.24 91.99 59.73 C 91.36 60.17 90.09 61.05 89.46 61.49 C 88.64 59.11 88.70 56.59 88.78 54.11 L 88.56 54.35 C 88.21 55.29 87.81 56.22 87.35 57.11 C 85.75 54.13 84.08 51.03 81.21 49.06 C 81.77 48.54 82.90 47.49 83.47 46.96 Z" />
</g>
<g id="#fff3f7ff">
<path fill="#fff3f7" opacity="1.00" d=" M 87.98 46.00 C 88.65 46.00 89.98 46.01 90.64 46.01 C 91.66 46.87 92.62 47.80 93.61 48.71 C 92.20 49.63 90.83 50.60 89.57 51.71 C 88.88 51.92 87.51 52.35 86.82 52.56 C 86.24 51.37 85.36 50.28 85.13 48.95 C 85.46 47.50 86.90 46.81 87.98 46.00 Z" />
<path fill="#fff3f7" opacity="1.00" d=" M 81.37 64.24 C 81.61 62.19 82.97 60.84 84.47 59.66 C 84.65 60.27 85.00 61.50 85.18 62.12 C 85.03 62.63 84.73 63.65 84.58 64.16 L 83.90 64.32 C 83.27 64.30 82.00 64.26 81.37 64.24 Z" />
</g>
<g id="#c1a3a7ff">
<path fill="#c1a3a7" opacity="1.00" d=" M 54.21 48.86 C 53.92 47.47 54.47 46.91 55.86 47.17 C 56.14 48.55 55.59 49.11 54.21 48.86 Z" />
</g>
<g id="#061722ff">
<path fill="#061722" opacity="1.00" d=" M 24.21 48.24 L 25.08 48.12 C 24.88 48.60 24.47 49.56 24.26 50.04 L 23.79 49.22 L 24.21 48.24 Z" />
</g>
<g id="#f5d9dbff">
<path fill="#f5d9db" opacity="1.00" d=" M 31.83 48.66 C 34.16 46.90 37.04 48.24 39.58 48.68 C 41.33 50.84 43.43 52.70 45.03 54.99 C 46.82 57.55 47.07 60.74 47.57 63.73 C 47.45 64.24 47.23 65.28 47.11 65.80 C 43.55 70.11 37.80 71.79 32.36 71.32 C 32.44 70.46 32.49 69.59 32.52 68.72 L 31.81 68.25 L 31.56 68.08 C 31.17 67.84 30.41 67.34 30.03 67.09 C 29.65 67.39 28.88 67.99 28.49 68.29 C 28.39 68.36 28.20 68.51 28.10 68.58 C 26.34 68.15 24.85 67.12 23.51 65.95 L 23.41 65.07 C 25.20 64.77 27.10 64.56 28.56 63.38 C 26.63 63.79 24.74 64.34 22.84 64.89 C 23.00 63.10 23.38 61.35 24.33 59.80 C 24.02 55.05 28.06 51.02 31.83 48.66 M 35.00 49.61 C 35.57 51.04 36.16 52.47 36.38 54.00 L 34.95 54.00 C 35.01 54.65 35.12 55.96 35.17 56.61 C 36.93 54.77 38.24 50.66 35.00 49.61 M 39.26 51.12 C 37.80 51.85 37.71 52.50 38.98 53.07 C 40.44 52.34 40.53 51.69 39.26 51.12 M 35.36 59.08 C 35.29 59.71 35.15 60.97 35.07 61.60 C 33.49 62.64 31.88 63.68 30.63 65.12 C 32.02 64.74 33.39 64.30 34.74 63.84 C 35.53 62.12 37.25 61.34 38.90 60.68 L 38.92 59.84 C 38.20 60.01 36.75 60.35 36.02 60.52 C 35.86 60.16 35.53 59.44 35.36 59.08 M 25.23 61.29 C 25.85 61.85 25.85 61.85 25.23 61.29 M 36.24 64.32 C 35.67 65.77 36.10 66.19 37.53 65.57 C 38.09 64.13 37.66 63.71 36.24 64.32 Z" />
</g>
<g id="#f1d5d7ff">
<path fill="#f1d5d7" opacity="1.00" d=" M 44.11 49.11 C 45.30 48.44 46.44 48.52 47.52 49.33 C 47.86 51.32 42.87 51.29 44.11 49.11 Z" />
<path fill="#f1d5d7" opacity="1.00" d=" M 64.64 66.18 C 62.89 60.88 65.70 55.12 69.22 51.20 C 69.24 53.79 68.81 56.61 69.95 59.02 C 72.53 61.88 76.68 61.78 80.19 62.32 C 80.50 62.75 81.11 63.63 81.42 64.06 C 80.48 64.16 78.61 64.37 77.67 64.47 C 79.74 64.62 81.88 64.99 83.90 64.32 L 84.58 64.16 C 86.14 63.76 86.34 63.08 85.18 62.12 C 85.00 61.50 84.65 60.27 84.47 59.66 C 84.47 59.52 84.47 59.25 84.47 59.12 C 84.41 57.54 84.35 55.96 84.29 54.39 C 87.25 58.18 88.72 63.36 86.87 67.97 C 82.85 70.61 77.92 72.33 73.11 71.11 C 69.96 70.12 67.27 68.11 64.64 66.18 M 68.12 60.65 C 68.10 62.04 68.08 63.43 68.06 64.82 C 70.32 64.97 72.61 64.98 74.82 64.38 C 75.04 64.49 75.47 64.72 75.68 64.83 C 73.84 63.37 71.88 62.03 69.67 61.21 L 70.31 61.79 C 69.88 61.57 69.03 61.12 68.60 60.89 C 68.48 60.83 68.24 60.71 68.12 60.65 M 74.43 67.56 C 74.37 67.75 74.25 68.14 74.19 68.33 C 75.98 68.40 78.05 68.40 79.76 67.73 C 79.06 66.13 75.72 66.52 74.43 67.56 Z" />
</g>
<g id="#ffe4e8ff">
<path fill="#ffe4e8" opacity="1.00" d=" M 69.22 51.20 C 73.84 47.05 81.71 48.76 84.29 54.39 C 84.35 55.96 84.41 57.54 84.47 59.12 C 83.15 60.32 81.76 61.45 80.19 62.32 C 76.68 61.78 72.53 61.88 69.95 59.02 C 68.81 56.61 69.24 53.79 69.22 51.20 Z" />
</g>
<g id="#ccafb3ff">
<path fill="#ccafb3" opacity="1.00" d=" M 35.00 49.61 C 38.24 50.66 36.93 54.77 35.17 56.61 C 35.12 55.96 35.01 54.65 34.95 54.00 L 36.38 54.00 C 36.16 52.47 35.57 51.04 35.00 49.61 Z" />
</g>
<g id="#d0bd46ff">
<path fill="#d0bd46" opacity="1.00" d=" M 44.53 52.60 C 46.62 51.53 48.81 50.67 51.08 50.05 C 50.48 51.16 49.92 52.30 49.32 53.41 C 47.64 53.89 46.05 53.25 44.53 52.60 Z" />
</g>
<g id="#c5a6a9ff">
<path fill="#c5a6a9" opacity="1.00" d=" M 39.26 51.12 C 40.53 51.69 40.44 52.34 38.98 53.07 C 37.71 52.50 37.80 51.85 39.26 51.12 Z" />
</g>
<g id="#a2989cff">
<path fill="#a2989c" opacity="1.00" d=" M 49.78 56.59 C 51.25 57.39 52.65 58.30 54.04 59.22 C 53.95 59.86 53.75 61.13 53.65 61.77 C 52.07 61.54 49.46 63.23 48.78 61.04 C 49.99 61.01 52.40 60.94 53.61 60.91 C 52.35 59.46 50.50 58.43 49.78 56.59 Z" />
</g>
<g id="#4f4646ff">
<path fill="#4f4646" opacity="1.00" d=" M 21.22 58.30 C 21.84 58.87 21.84 58.87 21.22 58.30 Z" />
</g>
<g id="#8e8084ff">
<path fill="#8e8084" opacity="1.00" d=" M 35.36 59.08 C 35.53 59.44 35.86 60.16 36.02 60.52 C 36.75 60.35 38.20 60.01 38.92 59.84 L 38.90 60.68 C 37.25 61.34 35.53 62.12 34.74 63.84 C 33.39 64.30 32.02 64.74 30.63 65.12 C 31.88 63.68 33.49 62.64 35.07 61.60 C 35.15 60.97 35.29 59.71 35.36 59.08 Z" />
</g>
<g id="#504546ff">
<path fill="#504546" opacity="1.00" d=" M 68.12 60.65 C 68.24 60.71 68.48 60.83 68.60 60.89 L 68.12 60.65 Z" />
</g>
<g id="#544a4aff">
<path fill="#544a4a" opacity="1.00" d=" M 25.23 61.29 C 25.85 61.85 25.85 61.85 25.23 61.29 Z" />
</g>
<g id="#ebebf6ff">
<path fill="#ebebf6" opacity="1.00" d=" M 68.12 60.65 L 68.60 60.89 C 69.03 61.12 69.88 61.57 70.31 61.79 C 71.79 62.70 73.28 63.59 74.82 64.38 C 72.61 64.98 70.32 64.97 68.06 64.82 C 68.08 63.43 68.10 62.04 68.12 60.65 Z" />
</g>
<g id="#625757ff">
<path fill="#625757" opacity="1.00" d=" M 85.18 62.12 C 86.34 63.08 86.14 63.76 84.58 64.16 C 84.73 63.65 85.03 62.63 85.18 62.12 Z" />
</g>
<g id="#978586ff">
<path fill="#978586" opacity="1.00" d=" M 51.66 64.01 C 54.81 63.96 57.95 63.86 61.06 63.38 C 58.44 65.10 54.09 66.39 51.66 64.01 Z" />
</g>
<g id="#a599a0ff">
<path fill="#a599a0" opacity="1.00" d=" M 36.24 64.32 C 37.66 63.71 38.09 64.13 37.53 65.57 C 36.10 66.19 35.67 65.77 36.24 64.32 Z" />
</g>
<g id="#cbb2b7ff">
<path fill="#cbb2b7" opacity="1.00" d=" M 48.76 64.00 C 52.95 67.65 58.46 68.77 63.89 68.28 C 64.36 69.83 64.83 71.38 65.24 72.95 C 62.32 72.93 59.33 73.32 56.45 72.68 C 52.86 71.15 49.01 68.20 48.76 64.00 Z" />
<path fill="#cbb2b7" opacity="1.00" d=" M 23.51 65.95 C 24.85 67.12 26.34 68.15 28.10 68.58 L 28.26 68.63 L 28.49 68.29 C 28.88 67.99 29.65 67.39 30.03 67.09 C 30.41 67.34 31.17 67.84 31.56 68.08 C 31.63 68.17 31.77 68.33 31.84 68.42 L 31.81 68.25 L 32.52 68.72 C 32.49 69.59 32.44 70.46 32.36 71.32 C 37.80 71.79 43.55 70.11 47.11 65.80 C 46.77 67.52 46.41 69.25 45.93 70.95 C 45.46 71.80 44.83 72.50 44.04 73.07 C 38.99 75.29 32.00 76.68 27.71 72.27 C 25.93 70.48 23.20 68.84 23.51 65.95 Z" />
<path fill="#cbb2b7" opacity="1.00" d=" M 47.93 68.49 C 49.38 68.14 49.90 68.63 49.47 69.95 C 47.99 70.31 47.47 69.82 47.93 68.49 Z" />
</g>
<g id="#d0b6bbff">
<path fill="#d0b6bb" opacity="1.00" d=" M 89.79 67.40 C 92.81 67.12 95.56 65.79 98.07 64.16 C 97.71 65.56 97.33 66.95 96.97 68.35 C 96.70 68.49 96.17 68.77 95.91 68.92 C 95.44 69.14 94.52 69.58 94.05 69.80 C 93.89 70.15 93.57 70.85 93.40 71.20 C 91.19 71.04 88.96 70.95 86.74 70.89 C 87.33 69.75 87.93 68.60 88.52 67.46 C 89.33 68.31 90.15 69.15 90.97 69.99 C 90.60 69.12 90.20 68.25 89.79 67.40 Z" />
</g>
<g id="#cbb1b7ff">
<path fill="#cbb1b7" opacity="1.00" d=" M 64.64 66.18 C 67.27 68.11 69.96 70.12 73.11 71.11 C 77.92 72.33 82.85 70.61 86.87 67.97 C 86.31 69.32 85.71 70.66 85.01 71.94 C 84.52 72.65 83.96 73.32 83.35 73.94 C 79.86 75.26 76.12 74.99 72.48 74.71 C 72.26 74.50 71.82 74.10 71.59 73.89 C 67.59 73.40 65.36 69.86 64.64 66.18 Z" />
</g>
<g id="#8c7b7cff">
<path fill="#8c7b7c" opacity="1.00" d=" M 74.43 67.56 C 75.72 66.52 79.06 66.13 79.76 67.73 C 78.05 68.40 75.98 68.40 74.19 68.33 C 74.25 68.14 74.37 67.75 74.43 67.56 Z" />
</g>
<g id="#675b5bff">
<path fill="#675b5b" opacity="1.00" d=" M 28.10 68.58 C 28.20 68.51 28.39 68.36 28.49 68.29 L 28.26 68.63 L 28.10 68.58 Z" />
</g>
<g id="#776a6aff">
<path fill="#776a6a" opacity="1.00" d=" M 31.56 68.08 L 31.81 68.25 L 31.84 68.42 C 31.77 68.33 31.63 68.17 31.56 68.08 Z" />
</g>
<g id="#514749ff">
<path fill="#514749" opacity="1.00" d=" M 94.05 69.80 C 94.52 69.58 95.44 69.14 95.91 68.92 L 95.81 69.78 C 95.37 69.78 94.49 69.80 94.05 69.80 Z" />
</g>
</svg>
