<?xml version="1.0" encoding="UTF-8" ?>
<!DOCTYPE svg PUBLIC "-//W3C//DTD SVG 1.1//EN" "http://www.w3.org/Graphics/SVG/1.1/DTD/svg11.dtd">
<svg width="120pt" height="120pt" viewBox="0 0 120 120" version="1.1" xmlns="http://www.w3.org/2000/svg">
<g id="#3e4237f4">
<path fill="#3e4237" opacity="0.96" d=" M 48.36 33.22 C 49.52 33.05 50.69 32.92 51.87 32.83 C 52.18 33.59 52.80 35.10 53.11 35.85 C 54.36 35.38 55.65 35.01 56.96 34.76 C 57.01 37.01 57.01 39.27 57.02 41.54 C 62.10 43.51 64.56 49.60 62.38 54.58 C 61.94 56.29 61.41 57.97 60.79 59.62 C 63.83 57.84 66.33 55.38 68.71 52.82 C 71.51 49.80 75.26 47.95 78.80 45.95 C 80.37 48.01 81.67 50.24 82.91 52.51 C 82.94 53.07 83.01 54.18 83.04 54.74 C 81.49 54.95 79.93 55.16 78.41 55.54 C 77.42 55.94 76.43 56.35 75.45 56.76 C 74.99 56.89 74.06 57.14 73.60 57.27 C 72.43 57.64 71.24 57.89 70.02 58.02 C 71.69 56.95 73.47 56.04 75.33 55.35 C 77.36 54.66 79.43 54.07 81.50 53.45 C 81.03 52.42 80.97 51.05 79.93 50.39 C 78.15 50.44 76.42 50.87 74.69 51.19 L 75.44 50.60 C 76.74 49.65 78.07 48.74 79.37 47.79 C 75.82 48.72 72.47 50.38 69.76 52.89 C 67.72 54.83 65.74 56.85 63.62 58.70 C 62.27 59.83 60.89 60.92 59.53 62.04 C 60.75 62.02 63.18 61.97 64.39 61.95 C 64.05 62.24 63.38 62.81 63.04 63.10 C 59.31 62.84 55.31 62.29 51.95 64.36 C 49.82 65.38 47.74 66.47 45.63 67.51 C 46.43 68.64 47.25 69.78 48.06 70.91 C 50.81 69.61 53.66 68.53 56.64 67.89 C 53.54 69.60 50.24 70.90 47.00 72.31 C 46.98 72.86 46.92 73.96 46.89 74.50 C 48.75 75.74 50.47 77.17 51.80 78.97 C 54.71 78.31 57.69 77.94 60.68 77.99 C 59.35 78.46 58.01 78.91 56.66 79.34 C 57.12 79.77 58.02 80.62 58.48 81.05 C 60.02 80.96 61.55 80.86 63.09 80.76 L 62.97 82.00 C 61.23 82.00 59.48 82.00 57.74 82.00 C 58.62 83.09 59.51 84.18 60.38 85.29 L 59.61 85.29 C 58.79 85.04 57.15 84.54 56.32 84.29 C 56.48 83.58 56.80 82.18 56.96 81.48 C 56.53 81.23 55.66 80.73 55.23 80.48 C 55.45 80.08 55.90 79.27 56.12 78.87 C 54.40 79.43 52.68 79.98 50.95 80.51 C 49.92 78.79 48.85 76.92 46.71 76.48 L 46.15 76.49 C 45.45 76.59 45.18 76.27 45.32 75.54 L 45.48 75.05 C 45.44 74.55 45.37 73.57 45.33 73.08 C 45.86 72.71 46.90 71.97 47.43 71.60 C 46.66 70.93 45.90 70.25 45.15 69.58 C 45.13 68.98 45.09 67.80 45.07 67.20 C 48.36 65.51 51.51 63.42 55.10 62.38 C 56.55 61.81 58.40 62.02 59.48 60.70 C 60.12 59.68 60.44 58.51 60.84 57.39 C 62.07 53.29 63.16 48.20 59.56 44.93 C 59.11 44.46 58.19 43.51 57.73 43.04 C 57.01 42.96 55.55 42.80 54.83 42.72 C 55.08 40.73 57.75 36.46 54.41 36.18 C 53.85 38.04 53.58 39.96 53.12 41.84 C 52.64 39.51 52.28 37.17 51.95 34.82 C 50.58 34.75 49.22 34.68 47.85 34.62 C 48.76 36.49 49.67 38.36 50.59 40.23 C 49.15 39.83 47.71 39.46 46.27 39.11 C 47.83 39.87 49.44 40.55 51.05 41.21 C 45.72 42.91 41.84 48.34 43.30 54.01 C 43.63 52.87 44.29 50.58 44.62 49.44 C 45.28 50.00 45.93 50.56 46.58 51.14 C 46.03 51.71 44.93 52.86 44.38 53.43 C 45.08 53.24 46.47 52.85 47.16 52.65 C 45.46 54.23 43.86 55.91 42.52 57.80 C 42.18 58.15 41.51 58.84 41.17 59.19 L 40.93 58.82 C 41.78 57.13 43.60 55.41 42.40 53.40 C 41.20 49.34 43.17 43.82 47.40 42.40 C 46.62 41.38 45.82 40.38 45.02 39.38 C 45.66 38.81 46.30 38.24 46.94 37.66 C 47.13 36.10 46.66 34.10 48.36 33.22 Z" />
</g>
<g id="#d6beb5ff">
<path fill="#d6beb5" opacity="1.00" d=" M 47.85 34.62 C 49.22 34.68 50.58 34.75 51.95 34.82 C 52.28 37.17 52.64 39.51 53.12 41.84 C 53.58 39.96 53.85 38.04 54.41 36.18 C 57.75 36.46 55.08 40.73 54.83 42.72 C 55.55 42.80 57.01 42.96 57.73 43.04 C 58.19 43.51 59.11 44.46 59.56 44.93 C 58.88 46.71 58.21 48.49 57.45 50.24 C 57.11 49.20 56.46 48.41 55.51 47.85 L 55.21 48.31 C 54.98 48.66 54.52 49.36 54.29 49.71 C 52.82 48.65 52.01 50.75 51.56 51.81 C 51.05 52.17 50.04 52.89 49.53 53.25 C 51.20 49.95 53.82 47.31 56.27 44.59 C 53.80 45.67 51.38 46.84 48.93 47.97 C 48.06 47.31 47.14 46.73 46.18 46.22 C 45.41 47.63 46.53 48.88 47.11 50.10 C 47.13 50.74 47.15 52.02 47.16 52.65 C 46.47 52.85 45.08 53.24 44.38 53.43 C 44.93 52.86 46.03 51.71 46.58 51.14 C 45.93 50.56 45.28 50.00 44.62 49.44 C 44.29 50.58 43.63 52.87 43.30 54.01 C 41.84 48.34 45.72 42.91 51.05 41.21 C 49.44 40.55 47.83 39.87 46.27 39.11 C 47.71 39.46 49.15 39.83 50.59 40.23 C 49.67 38.36 48.76 36.49 47.85 34.62 Z" />
</g>
<g id="#61524eff">
<path fill="#61524e" opacity="1.00" d=" M 48.93 47.97 C 51.38 46.84 53.80 45.67 56.27 44.59 C 53.82 47.31 51.20 49.95 49.53 53.25 C 50.04 52.89 51.05 52.17 51.56 51.81 C 52.21 52.62 52.89 53.39 53.62 54.13 L 54.51 55.40 L 54.25 56.20 C 51.71 55.39 49.42 54.03 47.16 52.65 C 47.15 52.02 47.13 50.74 47.11 50.10 C 46.53 48.88 45.41 47.63 46.18 46.22 C 47.14 46.73 48.06 47.31 48.93 47.97 Z" />
<path fill="#61524e" opacity="1.00" d=" M 55.51 47.85 C 56.46 48.41 57.11 49.20 57.45 50.24 C 57.17 50.74 56.60 51.73 56.32 52.23 C 55.87 50.94 55.50 49.63 55.21 48.31 L 55.51 47.85 Z" />
<path fill="#61524e" opacity="1.00" d=" M 49.44 75.99 C 52.14 74.57 55.08 73.71 58.01 72.93 C 57.22 73.59 56.43 74.26 55.64 74.92 C 55.12 75.00 54.08 75.17 53.55 75.25 C 52.53 75.44 50.47 75.81 49.44 75.99 Z" />
</g>
<g id="#c1aca3ff">
<path fill="#c1aca3" opacity="1.00" d=" M 59.56 44.93 C 63.16 48.20 62.07 53.29 60.84 57.39 C 59.47 58.08 58.05 58.69 56.64 59.33 C 56.45 58.81 56.08 57.78 55.89 57.26 C 56.36 56.19 56.63 55.07 56.68 53.91 L 56.50 53.48 C 56.46 53.17 56.36 52.54 56.32 52.23 C 56.60 51.73 57.17 50.74 57.45 50.24 C 58.21 48.49 58.88 46.71 59.56 44.93 Z" />
</g>
<g id="#729933ff">
<path fill="#729933" opacity="1.00" d=" M 69.76 52.89 C 72.47 50.38 75.82 48.72 79.37 47.79 C 78.07 48.74 76.74 49.65 75.44 50.60 L 74.69 51.19 C 74.03 52.05 73.42 52.95 72.81 53.84 C 73.44 54.22 74.70 54.97 75.33 55.35 C 73.47 56.04 71.69 56.95 70.02 58.02 L 69.36 58.43 C 69.49 56.58 69.62 54.74 69.76 52.89 Z" />
</g>
<g id="#372f2bff">
<path fill="#372f2b" opacity="1.00" d=" M 51.56 51.81 C 52.01 50.75 52.82 48.65 54.29 49.71 C 53.77 51.13 53.73 52.64 53.62 54.13 C 52.89 53.39 52.21 52.62 51.56 51.81 Z" />
</g>
<g id="#fafafaff">
<path fill="#fafafa" opacity="1.00" d=" M 55.21 48.31 C 55.50 49.63 55.87 50.94 56.32 52.23 C 56.36 52.54 56.46 53.17 56.50 53.48 C 56.19 53.78 55.55 54.38 55.24 54.68 L 54.51 55.40 L 53.62 54.13 C 53.73 52.64 53.77 51.13 54.29 49.71 C 54.52 49.36 54.98 48.66 55.21 48.31 Z" />
</g>
<g id="#598844ff">
<path fill="#598844" opacity="1.00" d=" M 74.69 51.19 C 76.42 50.87 78.15 50.44 79.93 50.39 C 80.97 51.05 81.03 52.42 81.50 53.45 C 79.43 54.07 77.36 54.66 75.33 55.35 C 74.70 54.97 73.44 54.22 72.81 53.84 C 73.42 52.95 74.03 52.05 74.69 51.19 Z" />
</g>
<g id="#ffda35ff">
<path fill="#ffda35" opacity="1.00" d=" M 47.16 52.65 C 49.42 54.03 51.71 55.39 54.25 56.20 C 50.96 60.84 45.07 62.15 39.89 63.47 C 40.02 62.54 40.29 60.69 40.42 59.77 L 40.67 60.18 C 40.81 60.57 41.09 61.36 41.23 61.75 C 43.62 61.10 45.21 59.21 46.35 57.11 C 45.07 57.30 43.79 57.53 42.52 57.80 C 43.86 55.91 45.46 54.23 47.16 52.65 Z" />
<path fill="#ffda35" opacity="1.00" d=" M 55.23 80.48 C 55.66 80.73 56.53 81.23 56.96 81.48 C 56.80 82.18 56.48 83.58 56.32 84.29 C 57.15 84.54 58.79 85.04 59.61 85.29 C 59.23 85.35 58.47 85.48 58.09 85.55 C 56.31 85.83 54.52 86.04 52.73 86.25 C 54.95 84.97 56.11 83.08 55.23 80.48 Z" />
<path fill="#ffda35" opacity="1.00" d=" M 47.10 81.56 C 47.84 82.82 48.57 84.09 49.32 85.34 C 47.07 85.66 44.82 86.04 42.57 86.42 L 42.61 84.98 C 43.54 85.05 45.40 85.17 46.33 85.24 C 46.58 84.01 46.83 82.79 47.10 81.56 Z" />
</g>
<g id="#a6c928ff">
<path fill="#a6c928" opacity="1.00" d=" M 63.62 58.70 C 65.74 56.85 67.72 54.83 69.76 52.89 C 69.62 54.74 69.49 56.58 69.36 58.43 C 68.96 58.57 68.16 58.84 67.76 58.98 C 66.76 59.35 65.76 59.72 64.76 60.09 C 64.48 59.75 63.91 59.05 63.62 58.70 Z" />
</g>
<g id="#746032ff">
<path fill="#746032" opacity="1.00" d=" M 54.25 56.20 C 54.66 56.47 55.48 57.00 55.89 57.26 C 56.08 57.78 56.45 58.81 56.64 59.33 C 58.05 58.69 59.47 58.08 60.84 57.39 C 60.44 58.51 60.12 59.68 59.48 60.70 C 55.40 58.13 51.06 61.77 47.40 63.54 C 44.56 64.09 41.65 64.09 38.77 64.15 C 39.05 63.98 39.61 63.64 39.89 63.47 C 45.07 62.15 50.96 60.84 54.25 56.20 Z" />
</g>
<g id="#ffee61ff">
<path fill="#ffee61" opacity="1.00" d=" M 42.52 57.80 C 43.79 57.53 45.07 57.30 46.35 57.11 C 45.21 59.21 43.62 61.10 41.23 61.75 C 41.09 61.36 40.81 60.57 40.67 60.18 L 41.17 59.19 C 41.51 58.84 42.18 58.15 42.52 57.80 Z" />
</g>
<g id="#a8b650ff">
<path fill="#a8b650" opacity="1.00" d=" M 59.53 62.04 C 60.89 60.92 62.27 59.83 63.62 58.70 C 63.91 59.05 64.48 59.75 64.76 60.09 L 65.61 60.97 C 65.31 61.21 64.70 61.70 64.39 61.95 C 63.18 61.97 60.75 62.02 59.53 62.04 Z" />
</g>
<g id="#454237ff">
<path fill="#454237" opacity="1.00" d=" M 64.76 60.09 C 65.76 59.72 66.76 59.35 67.76 58.98 C 70.55 62.18 70.21 66.44 69.85 70.38 C 69.35 71.55 68.96 72.76 68.67 74.00 L 67.80 73.99 C 68.87 69.80 69.69 65.37 68.08 61.20 C 67.46 61.14 66.23 61.02 65.61 60.97 L 64.76 60.09 Z" />
</g>
<g id="#323228f6">
<path fill="#323228" opacity="0.96" d=" M 40.45 59.50 L 40.42 59.77 C 40.29 60.69 40.02 62.54 39.89 63.47 C 39.61 63.64 39.05 63.98 38.77 64.15 L 38.07 64.22 C 36.88 68.07 36.77 72.46 40.00 75.35 C 39.54 74.30 39.06 73.27 38.56 72.24 C 38.63 69.59 38.71 66.94 38.86 64.30 C 39.32 64.93 39.76 65.57 40.20 66.22 C 39.30 70.31 40.99 74.15 42.71 77.75 C 43.05 77.81 43.73 77.94 44.08 78.01 C 42.23 80.10 43.67 81.39 45.55 82.38 C 46.18 81.58 46.81 80.77 47.44 79.97 C 48.73 80.56 50.04 81.11 51.30 81.78 L 52.60 82.90 C 51.80 82.84 50.20 82.70 49.40 82.63 L 49.42 82.47 L 49.25 82.47 C 49.29 82.51 49.36 82.59 49.40 82.63 C 49.95 83.23 51.05 84.41 51.60 85.00 C 48.06 88.29 43.01 86.66 38.69 86.99 C 39.56 86.01 40.43 85.03 41.30 84.05 C 42.66 84.03 44.01 84.02 45.37 84.00 C 43.09 82.86 41.57 81.05 41.74 78.39 C 39.59 76.69 37.25 75.13 35.99 72.58 C 35.32 67.74 37.17 63.02 40.45 59.50 M 47.10 81.56 C 46.83 82.79 46.58 84.01 46.33 85.24 C 45.40 85.17 43.54 85.05 42.61 84.98 L 42.57 86.42 C 44.82 86.04 47.07 85.66 49.32 85.34 C 48.57 84.09 47.84 82.82 47.10 81.56 M 41.24 85.31 C 41.83 85.87 41.83 85.87 41.24 85.31 Z" />
</g>
<g id="#f8efdaff">
<path fill="#f8efda" opacity="1.00" d=" M 47.40 63.54 C 51.06 61.77 55.40 58.13 59.48 60.70 C 58.40 62.02 56.55 61.81 55.10 62.38 C 51.51 63.42 48.36 65.51 45.07 67.20 C 45.09 67.80 45.13 68.98 45.15 69.58 C 45.90 70.25 46.66 70.93 47.43 71.60 C 46.90 71.97 45.86 72.71 45.33 73.08 C 45.37 73.57 45.44 74.55 45.48 75.05 L 45.32 75.54 C 45.18 76.27 45.45 76.59 46.15 76.49 L 46.71 76.48 C 48.85 76.92 49.92 78.79 50.95 80.51 C 52.68 79.98 54.40 79.43 56.12 78.87 C 55.90 79.27 55.45 80.08 55.23 80.48 C 53.92 80.90 52.61 81.34 51.30 81.78 C 50.04 81.11 48.73 80.56 47.44 79.97 C 46.81 80.77 46.18 81.58 45.55 82.38 C 43.67 81.39 42.23 80.10 44.08 78.01 C 43.73 77.94 43.05 77.81 42.71 77.75 C 40.99 74.15 39.30 70.31 40.20 66.22 C 39.76 65.57 39.32 64.93 38.86 64.30 C 38.71 66.94 38.63 69.59 38.56 72.24 C 39.06 73.27 39.54 74.30 40.00 75.35 C 36.77 72.46 36.88 68.07 38.07 64.22 L 38.77 64.15 C 41.65 64.09 44.56 64.09 47.40 63.54 Z" />
</g>
<g id="#c1aca4ff">
<path fill="#c1aca4" opacity="1.00" d=" M 65.61 60.97 C 66.23 61.02 67.46 61.14 68.08 61.20 C 69.69 65.37 68.87 69.80 67.80 73.99 C 67.72 74.39 67.55 75.21 67.47 75.62 L 66.71 76.00 C 65.21 76.60 64.84 78.39 64.86 79.84 L 64.82 80.66 C 64.39 80.68 63.53 80.74 63.09 80.76 C 61.55 80.86 60.02 80.96 58.48 81.05 C 58.02 80.62 57.12 79.77 56.66 79.34 C 58.01 78.91 59.35 78.46 60.68 77.99 C 57.69 77.94 54.71 78.31 51.80 78.97 C 50.47 77.17 48.75 75.74 46.89 74.50 C 46.92 73.96 46.98 72.86 47.00 72.31 C 50.24 70.90 53.54 69.60 56.64 67.89 C 53.66 68.53 50.81 69.61 48.06 70.91 C 47.25 69.78 46.43 68.64 45.63 67.51 C 47.74 66.47 49.82 65.38 51.95 64.36 C 54.17 65.37 56.33 67.34 58.92 67.00 C 61.03 66.76 61.76 64.44 63.04 63.10 C 63.38 62.81 64.05 62.24 64.39 61.95 C 64.70 61.70 65.31 61.21 65.61 60.97 M 49.44 75.99 C 50.47 75.81 52.53 75.44 53.55 75.25 C 54.08 75.17 55.12 75.00 55.64 74.92 C 56.43 74.26 57.22 73.59 58.01 72.93 C 55.08 73.71 52.14 74.57 49.44 75.99 Z" />
</g>
<g id="#d7c0b6ff">
<path fill="#d7c0b6" opacity="1.00" d=" M 51.95 64.36 C 55.31 62.29 59.31 62.84 63.04 63.10 C 61.76 64.44 61.03 66.76 58.92 67.00 C 56.33 67.34 54.17 65.37 51.95 64.36 Z" />
</g>
<g id="#5a4f4aff">
<path fill="#5a4f4a" opacity="1.00" d=" M 64.86 79.84 C 64.84 78.39 65.21 76.60 66.71 76.00 C 67.50 77.23 66.42 80.03 64.86 79.84 Z" />
</g>
<g id="#48401ef2">
<path fill="#48401e" opacity="0.95" d=" M 51.30 81.78 C 52.61 81.34 53.92 80.90 55.23 80.48 C 56.11 83.08 54.95 84.97 52.73 86.25 C 54.52 86.04 56.31 85.83 58.09 85.55 C 58.47 85.48 59.23 85.35 59.61 85.29 L 60.38 85.29 C 60.63 85.71 61.12 86.55 61.37 86.97 C 58.14 87.02 54.90 86.96 51.68 87.26 C 51.79 86.83 52.01 85.97 52.12 85.54 C 52.96 84.46 53.76 83.36 54.52 82.22 C 53.72 82.11 52.11 81.89 51.30 81.78 Z" />
</g>
<g id="#ffcc31ff">
<path fill="#ffcc31" opacity="1.00" d=" M 41.24 85.31 C 41.83 85.87 41.83 85.87 41.24 85.31 Z" />
</g>
</svg>
