<?xml version="1.0" encoding="UTF-8" ?>
<!DOCTYPE svg PUBLIC "-//W3C//DTD SVG 1.1//EN" "http://www.w3.org/Graphics/SVG/1.1/DTD/svg11.dtd">
<svg width="142pt" height="120pt" viewBox="0 0 142 120" version="1.1" xmlns="http://www.w3.org/2000/svg">
<g id="#433121ff">
<path fill="#433121" opacity="1.00" d=" M 47.05 30.42 C 48.37 29.17 49.68 27.91 51.00 26.65 C 51.00 27.83 51.00 30.18 51.00 31.36 C 51.54 30.95 52.63 30.13 53.18 29.72 C 52.00 33.62 52.76 37.46 53.15 41.39 C 54.06 40.88 54.99 40.41 55.94 39.96 C 56.73 41.60 57.52 43.24 58.31 44.87 C 60.99 45.95 63.81 46.50 66.58 47.25 C 67.06 46.65 68.01 45.43 68.48 44.82 L 69.34 46.13 C 72.54 43.55 76.49 42.18 79.77 39.76 C 82.30 37.01 85.14 34.56 88.60 33.05 C 90.59 33.09 92.65 32.93 94.55 33.67 C 102.21 36.37 109.99 38.71 117.52 41.75 C 124.21 44.40 131.94 46.43 136.32 52.60 C 138.11 53.75 140.11 54.53 142.00 55.51 L 142.00 56.31 C 141.68 56.95 141.04 58.24 140.73 58.88 C 140.24 58.98 139.28 59.18 138.80 59.28 C 139.63 58.30 140.47 57.33 141.31 56.35 C 139.19 55.29 136.68 54.75 134.96 53.05 C 131.37 47.94 125.09 45.97 119.52 43.82 C 110.19 40.07 100.60 37.06 91.08 33.83 C 94.65 38.91 96.83 44.82 99.14 50.54 C 98.54 50.61 97.32 50.75 96.71 50.83 C 96.97 49.32 97.15 47.80 97.23 46.27 C 95.52 46.86 93.84 47.51 92.16 48.17 C 91.62 47.88 90.54 47.28 90.01 46.98 C 89.99 48.55 89.98 50.11 89.96 51.67 C 89.00 52.50 88.05 53.34 87.09 54.17 C 86.58 53.87 85.55 53.26 85.03 52.95 C 85.00 53.63 84.93 55.00 84.90 55.69 C 82.54 57.50 80.44 59.63 78.62 61.98 C 78.02 61.98 76.82 61.99 76.22 61.99 C 75.42 60.72 74.61 59.45 73.80 58.18 C 75.26 59.25 76.71 60.32 78.17 61.39 C 78.83 60.64 79.46 59.88 80.07 59.09 C 79.52 58.15 78.89 57.27 78.17 56.45 C 78.44 56.08 78.97 55.33 79.23 54.96 C 80.20 55.74 81.17 56.52 82.15 57.30 C 82.82 56.62 83.49 55.94 84.16 55.26 C 83.48 53.55 81.82 51.81 82.93 49.91 C 84.83 50.74 86.91 54.26 88.85 51.84 C 88.96 50.75 89.04 49.67 89.09 48.58 C 87.69 47.63 86.29 46.69 84.89 45.75 C 85.21 45.35 85.86 44.55 86.19 44.14 C 88.71 45.11 91.15 46.30 93.76 47.00 C 94.80 46.01 94.97 44.58 95.27 43.26 C 94.29 42.77 93.30 42.28 92.32 41.79 C 93.91 39.32 92.05 35.73 89.06 36.02 C 81.35 39.36 79.26 48.78 71.94 52.65 C 71.52 52.59 70.67 52.47 70.25 52.41 C 77.00 48.05 81.04 40.97 86.70 35.47 C 82.50 37.10 79.99 41.03 76.63 43.80 C 76.18 43.55 75.28 43.07 74.84 42.82 C 75.09 43.37 75.61 44.47 75.87 45.02 C 75.14 45.35 73.68 46.00 72.95 46.32 C 72.38 46.28 71.23 46.19 70.65 46.15 C 69.69 46.69 68.71 47.17 67.69 47.59 C 65.29 48.80 62.72 47.32 60.35 46.82 C 60.84 47.37 61.83 48.47 62.33 49.02 C 63.43 49.24 64.53 49.46 65.64 49.68 C 67.48 48.89 69.34 48.13 71.25 47.51 C 71.48 47.44 71.93 47.31 72.16 47.25 C 70.21 49.18 67.62 50.10 65.11 51.05 C 63.86 50.60 62.61 50.14 61.40 49.59 C 59.14 47.95 57.25 45.89 55.47 43.75 C 55.13 45.60 54.82 47.55 53.64 49.09 C 53.56 48.84 53.42 48.33 53.35 48.08 C 52.31 45.28 53.79 43.16 56.47 42.26 C 55.03 42.32 53.59 42.39 52.16 42.54 C 52.10 41.79 51.98 40.29 51.92 39.53 C 49.03 38.13 50.40 34.53 50.07 32.00 L 48.88 32.00 C 49.02 35.18 48.98 38.44 47.58 41.38 C 47.13 40.07 46.72 38.75 46.36 37.42 C 46.05 39.71 45.75 41.99 45.51 44.29 C 47.15 44.10 48.79 43.80 50.31 43.15 C 49.56 44.00 49.16 44.99 49.12 46.10 C 49.03 47.47 48.91 48.84 48.76 50.20 C 50.26 49.43 51.78 48.69 53.35 48.08 C 53.42 48.33 53.56 48.84 53.64 49.09 L 54.54 50.20 C 53.99 50.42 52.88 50.88 52.32 51.11 C 51.72 52.89 51.12 54.67 50.47 56.44 C 50.41 57.55 50.37 58.65 50.37 59.76 C 51.57 61.44 52.74 63.15 54.01 64.79 C 55.93 64.33 58.07 64.17 59.55 65.77 C 58.52 65.82 56.47 65.93 55.45 65.98 C 54.65 65.85 53.06 65.60 52.27 65.47 C 53.84 69.84 54.59 74.46 56.27 78.80 C 57.54 78.42 58.82 78.03 60.10 77.65 C 59.90 76.79 59.70 75.94 59.50 75.08 C 61.25 75.04 62.99 75.00 64.74 74.95 C 65.31 75.88 65.87 76.80 66.43 77.73 C 67.23 78.13 68.02 78.53 68.81 78.94 C 69.38 78.64 70.52 78.05 71.09 77.75 C 70.98 75.80 70.75 73.86 70.34 71.95 C 70.72 69.96 71.11 67.96 71.32 65.94 C 71.26 65.51 71.14 64.65 71.09 64.22 C 71.17 63.76 71.33 62.84 71.42 62.37 C 71.92 62.25 72.92 61.99 73.42 61.87 C 74.19 63.44 74.99 65.00 75.83 66.54 C 75.54 67.82 77.71 69.31 78.00 67.49 C 77.67 67.20 77.01 66.61 76.68 66.31 C 76.52 65.10 76.69 63.89 77.03 62.72 C 77.86 63.56 78.69 64.42 79.50 65.29 C 80.47 67.16 81.67 68.84 84.12 68.46 C 83.70 67.14 83.12 65.92 82.37 64.79 C 81.62 63.97 80.83 63.19 80.04 62.41 C 80.38 62.05 81.07 61.34 81.42 60.99 C 82.68 62.30 83.91 63.63 85.19 64.93 C 86.27 66.05 87.52 67.00 88.95 67.65 C 87.68 68.26 86.38 67.72 85.25 67.09 C 84.83 67.62 83.99 68.67 83.57 69.20 C 82.20 68.96 80.83 68.68 79.48 68.34 C 78.23 68.87 76.88 68.98 75.55 69.10 C 74.95 67.43 73.91 66.06 72.11 65.63 C 72.00 67.59 72.13 69.63 71.36 71.48 C 72.67 74.45 71.79 77.66 70.79 80.58 C 71.87 81.51 72.95 82.45 74.05 83.37 C 74.43 85.66 73.69 87.62 71.38 88.37 C 71.06 88.92 70.42 90.01 70.09 90.56 C 70.06 91.17 69.99 92.39 69.96 93.01 C 69.56 93.00 68.76 93.00 68.36 92.99 C 68.01 91.76 67.65 90.53 67.29 89.30 C 67.16 88.33 67.02 87.35 66.86 86.38 L 65.49 85.47 C 65.67 84.91 66.03 83.77 66.21 83.20 C 68.09 85.19 68.50 87.97 69.54 90.40 C 69.58 88.88 69.59 87.36 69.59 85.85 C 70.20 85.52 71.43 84.86 72.05 84.53 C 72.08 85.34 72.16 86.95 72.19 87.76 C 72.82 86.59 73.23 85.35 73.42 84.03 C 71.97 83.56 70.51 83.10 69.06 82.63 C 68.98 81.87 68.83 80.35 68.75 79.59 C 68.55 80.10 68.15 81.12 67.95 81.63 C 66.40 82.38 65.01 83.39 63.69 84.48 C 64.40 86.07 65.11 87.66 65.83 89.25 C 63.37 88.72 62.66 86.73 62.98 84.47 C 64.67 83.05 66.22 81.46 67.38 79.58 C 65.68 78.89 64.40 77.63 63.74 75.93 C 63.17 75.96 62.04 76.02 61.47 76.06 C 60.68 77.70 59.50 79.09 58.21 80.36 C 59.02 81.92 59.02 83.69 58.99 85.41 C 58.49 86.39 58.01 87.39 57.55 88.39 C 57.27 89.72 56.99 91.05 56.71 92.38 C 53.75 91.63 53.85 88.77 54.02 86.28 C 52.83 85.12 49.59 84.74 50.93 82.37 C 51.46 82.97 51.98 83.57 52.49 84.19 C 53.21 84.34 54.63 84.64 55.35 84.79 C 55.06 84.28 54.48 83.27 54.19 82.76 C 54.33 82.27 54.61 81.27 54.76 80.78 C 54.32 81.15 53.44 81.91 53.00 82.28 C 52.21 82.19 50.64 82.00 49.86 81.90 C 48.68 83.02 48.18 84.33 48.37 85.85 C 48.07 85.98 47.46 86.24 47.15 86.37 C 47.12 85.63 47.06 84.13 47.03 83.39 C 47.82 82.68 48.60 81.97 49.37 81.25 C 51.33 80.62 53.35 80.26 55.33 79.74 C 54.50 76.61 52.60 73.77 52.97 70.40 C 52.20 69.66 51.43 68.91 50.67 68.17 C 48.50 67.44 45.57 67.77 44.58 65.19 C 42.87 65.02 41.17 64.71 39.69 63.80 C 40.01 63.51 40.66 62.95 40.98 62.66 C 39.53 61.43 40.27 60.14 41.25 58.93 C 39.86 58.97 38.48 59.00 37.10 59.02 C 37.08 58.27 37.06 56.78 37.05 56.03 C 36.51 56.03 35.43 56.03 34.89 56.02 C 35.75 54.50 36.62 52.98 37.50 51.47 C 35.86 52.72 34.25 54.59 31.93 54.06 C 29.39 54.36 29.18 50.76 26.70 50.55 C 27.42 50.04 28.13 49.53 28.84 49.01 C 29.97 51.37 31.39 53.78 34.41 53.20 C 34.89 52.76 35.85 51.88 36.33 51.44 C 37.55 50.46 38.85 49.59 40.16 48.75 C 38.08 46.80 35.99 44.70 35.35 41.80 C 34.22 43.66 33.08 45.51 31.64 47.15 C 31.18 47.44 30.25 48.02 29.78 48.32 L 32.61 44.67 C 31.37 45.37 28.89 46.77 27.64 47.47 L 28.18 46.33 C 29.81 45.34 31.50 44.48 33.20 43.61 C 31.77 42.70 30.34 41.80 28.89 40.93 C 26.60 41.74 24.23 42.37 21.78 42.36 C 22.19 42.87 23.02 43.89 23.43 44.40 C 22.85 44.35 21.69 44.25 21.11 44.20 C 21.76 45.72 22.36 47.27 22.96 48.81 C 23.85 48.58 25.63 48.12 26.52 47.89 C 25.35 48.69 24.16 49.48 23.01 50.31 C 22.52 49.89 21.54 49.05 21.05 48.63 C 20.99 49.86 20.92 51.09 20.84 52.33 C 20.30 53.62 19.99 54.99 19.65 56.35 C 17.68 62.05 19.70 67.89 21.36 73.36 C 23.03 76.98 20.52 80.66 20.81 84.40 C 17.75 82.56 16.88 78.69 14.10 76.46 C 13.63 69.49 14.57 62.53 16.35 55.79 C 15.05 56.30 13.77 56.86 12.52 57.49 C 13.89 55.86 15.28 54.24 16.69 52.65 C 17.33 49.69 18.08 46.74 18.96 43.84 C 16.33 45.41 13.87 47.25 11.31 48.94 L 9.91 49.02 L 10.54 48.49 C 13.62 45.79 17.81 44.42 20.29 41.05 C 22.98 36.84 27.79 33.38 32.99 33.98 C 37.31 33.65 41.03 36.35 43.85 39.33 C 44.43 38.03 44.95 36.70 45.35 35.33 C 45.77 34.89 46.62 34.01 47.04 33.57 C 47.04 32.52 47.05 31.47 47.05 30.42 M 47.05 35.27 C 45.56 38.36 50.29 35.45 47.05 35.27 M 24.38 41.21 C 26.80 41.21 28.34 39.28 29.86 37.70 C 29.88 40.17 32.86 43.61 35.18 41.22 C 36.24 39.82 38.49 39.33 38.21 41.79 L 36.41 41.75 C 37.62 44.83 40.65 46.63 42.08 49.60 L 41.70 48.07 C 42.87 41.69 36.31 37.35 31.01 35.77 C 28.11 36.15 25.18 38.30 24.38 41.21 M 37.49 36.51 C 40.16 39.26 42.59 42.23 44.64 45.48 C 44.68 44.66 44.75 43.03 44.79 42.21 C 42.56 40.07 40.46 37.63 37.49 36.51 M 45.21 44.86 C 45.12 46.94 43.19 48.05 42.08 49.60 L 42.23 51.26 C 40.44 49.68 39.40 50.76 40.01 53.37 L 38.40 51.83 L 39.24 55.70 L 36.88 52.80 C 37.43 54.53 37.91 56.32 38.99 57.83 L 38.83 58.42 C 41.19 58.21 42.46 56.05 44.07 54.61 C 44.01 55.12 43.89 56.14 43.83 56.64 L 42.73 57.67 L 43.30 58.20 L 42.19 57.76 C 42.04 58.49 41.73 59.96 41.58 60.69 C 41.75 61.65 42.07 63.56 42.23 64.51 C 43.51 63.14 44.45 61.52 45.18 59.80 L 45.96 60.47 C 45.73 62.53 45.47 64.73 46.59 66.61 C 46.97 64.77 48.05 63.25 49.46 62.04 C 49.30 62.72 48.99 64.06 48.84 64.74 L 47.62 65.38 C 48.43 66.14 49.21 66.92 49.95 67.75 C 49.90 66.26 50.18 64.84 50.77 63.50 C 50.44 62.66 50.08 61.84 49.69 61.03 C 49.02 61.01 47.68 60.96 47.01 60.94 C 47.00 59.72 47.00 58.50 46.98 57.28 C 44.84 57.40 44.98 55.48 44.73 53.92 C 42.91 53.03 41.09 55.22 39.62 56.15 C 42.47 52.91 45.81 50.14 48.70 46.93 C 47.71 45.94 46.75 44.78 45.21 44.86 M 20.10 46.24 C 18.49 49.23 23.35 46.55 20.10 46.24 M 88.27 46.25 C 88.80 46.76 88.80 46.76 88.27 46.25 M 19.34 50.31 C 19.88 50.81 19.88 50.81 19.34 50.31 M 48.24 51.12 C 48.82 52.32 49.24 53.57 49.51 54.87 C 48.29 53.98 47.18 52.95 46.17 51.83 C 46.20 53.17 46.22 54.52 46.22 55.86 C 46.76 55.79 47.84 55.63 48.39 55.56 C 48.27 57.13 48.20 58.71 48.19 60.29 C 49.11 56.68 50.60 53.29 52.25 49.92 C 51.24 50.22 49.24 50.82 48.24 51.12 M 16.35 59.62 C 15.79 61.43 15.71 63.57 16.28 65.38 L 15.06 64.84 C 15.07 68.49 15.18 72.14 15.07 75.80 C 16.17 76.74 17.35 77.60 18.60 78.35 C 18.55 78.76 18.46 79.58 18.41 79.99 C 19.42 79.61 20.43 79.24 21.44 78.88 C 21.04 76.28 20.00 73.80 19.99 71.15 L 18.71 71.13 C 19.05 73.38 19.23 75.66 19.66 77.90 L 18.02 77.89 C 18.08 75.54 17.84 73.22 17.31 70.94 C 17.65 69.09 17.43 67.22 16.57 65.52 C 17.48 63.97 17.68 60.66 16.35 59.62 M 72.25 63.34 C 72.78 63.88 72.78 63.88 72.25 63.34 M 56.03 86.19 C 57.39 86.62 58.15 84.33 57.66 83.31 C 56.39 83.01 55.50 85.17 56.03 86.19 M 55.48 87.10 C 54.59 88.27 54.74 89.14 55.94 89.71 C 56.82 88.55 56.67 87.68 55.48 87.10 Z" />
<path fill="#433121" opacity="1.00" d=" M 51.40 45.05 C 51.45 44.82 51.55 44.36 51.60 44.13 C 51.55 44.36 51.45 44.82 51.40 45.05 Z" />
<path fill="#433121" opacity="1.00" d=" M 0.00 55.09 C 2.02 53.64 4.14 52.33 6.49 51.49 L 5.54 52.71 C 4.33 53.35 3.05 53.83 1.77 54.31 C 2.12 56.07 2.62 57.79 3.18 59.49 C 3.69 59.09 4.71 58.27 5.22 57.86 C 4.50 59.19 4.57 60.79 3.75 62.07 C 4.60 62.11 6.29 62.19 7.13 62.23 L 6.57 62.92 C 5.51 62.98 4.45 63.02 3.38 63.05 C 2.81 60.39 1.87 57.79 0.00 55.75 L 0.00 55.09 Z" />
<path fill="#433121" opacity="1.00" d=" M 64.03 52.04 C 64.92 53.13 65.80 54.24 66.66 55.36 C 66.74 55.97 66.91 57.19 66.99 57.80 C 66.26 59.47 65.45 61.09 64.67 62.73 C 62.87 63.41 61.20 64.86 59.21 64.82 C 58.66 62.22 62.11 61.80 63.72 60.69 C 64.48 59.24 65.22 57.78 65.96 56.32 C 65.13 55.47 64.31 54.63 63.50 53.78 C 63.63 53.34 63.90 52.47 64.03 52.04 Z" />
<path fill="#433121" opacity="1.00" d=" M 99.29 52.72 C 99.39 52.63 99.60 52.44 99.71 52.34 L 99.78 52.62 L 99.29 52.72 Z" />
<path fill="#433121" opacity="1.00" d=" M 111.48 52.97 C 114.75 54.90 117.99 56.88 121.25 58.82 C 125.44 61.29 129.95 63.12 134.35 65.17 L 133.74 66.16 C 126.28 63.64 119.72 59.37 112.79 55.77 C 112.88 56.43 113.06 57.75 113.15 58.41 C 115.99 65.15 119.94 72.06 118.95 79.65 L 118.15 80.09 C 118.90 74.44 116.61 69.12 114.33 64.11 C 113.04 61.20 112.17 58.12 110.78 55.25 L 109.66 54.95 C 110.12 54.46 111.02 53.47 111.48 52.97 Z" />
<path fill="#433121" opacity="1.00" d=" M 90.38 54.29 C 91.73 54.90 91.71 55.54 90.31 56.19 C 88.97 55.56 88.99 54.93 90.38 54.29 Z" />
<path fill="#433121" opacity="1.00" d=" M 91.95 55.18 C 93.19 55.58 94.44 55.97 95.68 56.42 C 97.04 57.02 98.35 57.73 99.69 58.41 C 99.85 57.71 100.17 56.30 100.33 55.59 C 101.94 62.61 102.79 69.77 103.18 76.96 C 103.27 80.12 104.67 82.99 105.77 85.90 L 104.46 85.99 C 104.17 85.36 103.57 84.12 103.28 83.49 C 102.88 82.48 102.57 81.45 102.33 80.39 C 101.75 73.23 101.15 66.09 99.87 59.02 C 99.11 59.01 97.60 59.00 96.84 58.99 C 96.32 58.72 95.27 58.16 94.75 57.88 L 94.67 57.37 L 94.25 57.29 C 94.37 57.44 94.62 57.74 94.75 57.88 C 95.27 58.16 96.32 58.72 96.84 58.99 C 97.64 60.00 98.45 61.01 99.25 62.01 C 98.42 63.39 97.65 64.84 96.54 66.02 C 94.47 66.25 92.82 64.77 91.10 63.90 C 90.98 64.39 90.76 65.38 90.65 65.88 C 89.36 64.61 88.06 63.34 86.77 62.08 C 86.16 61.49 85.55 60.90 84.95 60.31 C 85.33 60.04 86.10 59.49 86.48 59.21 C 88.08 60.43 89.65 61.68 91.31 62.82 C 93.07 63.77 94.87 64.67 96.66 65.57 C 96.79 64.15 97.39 62.66 96.94 61.25 C 95.23 59.80 93.30 58.64 91.49 57.34 C 91.61 56.80 91.83 55.72 91.95 55.18 Z" />
<path fill="#433121" opacity="1.00" d=" M 7.97 61.15 C 8.29 59.70 9.72 58.42 11.23 59.19 C 10.69 60.53 9.39 61.24 7.97 61.15 Z" />
<path fill="#433121" opacity="1.00" d=" M 106.72 63.80 C 108.85 66.47 107.62 70.19 108.13 73.31 C 108.42 75.90 109.10 78.49 108.72 81.11 C 108.54 83.36 107.65 85.72 108.74 87.89 C 108.18 89.10 107.24 90.04 105.94 90.43 C 106.95 88.62 107.49 86.56 106.61 84.56 C 106.12 83.08 105.37 81.64 105.33 80.05 C 105.18 74.61 105.06 69.05 106.72 63.80 M 106.07 69.29 C 105.40 73.07 105.44 77.01 105.99 80.80 L 107.04 81.36 C 107.08 77.14 107.09 72.92 107.02 68.70 L 106.07 69.29 Z" />
<path fill="#433121" opacity="1.00" d=" M 111.04 82.04 C 112.02 82.38 112.95 82.83 113.82 83.41 L 113.57 83.68 C 112.42 84.30 111.16 84.64 109.88 84.89 C 110.09 83.86 110.48 82.91 111.04 82.04 Z" />
</g>
<g id="#e57b66ff">
<path fill="#e57b66" opacity="1.00" d=" M 48.88 32.00 L 50.07 32.00 C 50.40 34.53 49.03 38.13 51.92 39.53 C 51.98 40.29 52.10 41.79 52.16 42.54 C 51.86 42.64 51.25 42.83 50.95 42.93 L 50.31 43.15 C 48.79 43.80 47.15 44.10 45.51 44.29 C 45.75 41.99 46.05 39.71 46.36 37.42 C 46.72 38.75 47.13 40.07 47.58 41.38 C 48.98 38.44 49.02 35.18 48.88 32.00 Z" />
<path fill="#e57b66" opacity="1.00" d=" M 47.05 35.27 C 50.29 35.45 45.56 38.36 47.05 35.27 Z" />
</g>
<g id="#d99951ff">
<path fill="#d99951" opacity="1.00" d=" M 91.08 33.83 C 100.60 37.06 110.19 40.07 119.52 43.82 C 121.54 45.97 123.66 48.04 126.03 49.80 C 124.67 50.43 123.30 51.06 121.94 51.70 C 122.41 53.22 122.88 54.74 123.34 56.27 C 122.64 57.12 121.94 57.97 121.25 58.82 C 117.99 56.88 114.75 54.90 111.48 52.97 C 111.02 53.47 110.12 54.46 109.66 54.95 C 106.69 54.46 104.19 52.72 101.72 51.10 C 101.25 52.44 100.76 53.79 100.34 55.15 C 100.20 54.52 99.92 53.25 99.78 52.62 L 99.71 52.34 C 99.57 51.89 99.29 50.99 99.14 50.54 C 96.83 44.82 94.65 38.91 91.08 33.83 Z" />
<path fill="#d99951" opacity="1.00" d=" M 76.63 43.80 C 79.99 41.03 82.50 37.10 86.70 35.47 C 81.04 40.97 77.00 48.05 70.25 52.41 C 68.91 53.21 67.76 54.26 66.66 55.36 C 65.80 54.24 64.92 53.13 64.03 52.04 C 63.90 52.47 63.63 53.34 63.50 53.78 C 64.31 54.63 65.13 55.47 65.96 56.32 C 65.22 57.78 64.48 59.24 63.72 60.69 C 62.11 61.80 58.66 62.22 59.21 64.82 C 61.20 64.86 62.87 63.41 64.67 62.73 C 65.45 61.09 66.26 59.47 66.99 57.80 C 68.06 60.12 69.60 62.17 71.09 64.22 C 71.14 64.65 71.26 65.51 71.32 65.94 C 68.14 67.63 64.80 69.76 61.02 69.30 C 58.71 69.17 57.04 67.46 55.45 65.98 C 56.47 65.93 58.52 65.82 59.55 65.77 C 58.07 64.17 55.93 64.33 54.01 64.79 C 52.74 63.15 51.57 61.44 50.37 59.76 C 50.37 58.65 50.41 57.55 50.47 56.44 C 51.12 54.67 51.72 52.89 52.32 51.11 C 52.88 50.88 53.99 50.42 54.54 50.20 C 55.26 51.08 55.96 51.99 56.65 52.89 C 58.24 51.79 59.82 50.69 61.40 49.59 C 62.61 50.14 63.86 50.60 65.11 51.05 C 67.62 50.10 70.21 49.18 72.16 47.25 C 72.51 47.04 73.21 46.62 73.57 46.41 L 72.95 46.32 C 73.68 46.00 75.14 45.35 75.87 45.02 C 75.61 44.47 75.09 43.37 74.84 42.82 C 75.28 43.07 76.18 43.55 76.63 43.80 Z" />
<path fill="#d99951" opacity="1.00" d=" M 37.49 36.51 C 40.46 37.63 42.56 40.07 44.79 42.21 C 44.75 43.03 44.68 44.66 44.64 45.48 C 42.59 42.23 40.16 39.26 37.49 36.51 Z" />
<path fill="#d99951" opacity="1.00" d=" M 50.95 42.93 C 51.25 42.83 51.86 42.64 52.16 42.54 C 53.59 42.39 55.03 42.32 56.47 42.26 C 53.79 43.16 52.31 45.28 53.35 48.08 C 51.78 48.69 50.26 49.43 48.76 50.20 C 48.91 48.84 49.03 47.47 49.12 46.10 C 49.69 45.84 50.83 45.32 51.40 45.05 C 51.45 44.82 51.55 44.36 51.60 44.13 C 51.44 43.83 51.12 43.23 50.95 42.93 Z" />
<path fill="#d99951" opacity="1.00" d=" M 48.24 51.12 C 49.24 50.82 51.24 50.22 52.25 49.92 C 50.60 53.29 49.11 56.68 48.19 60.29 C 48.20 58.71 48.27 57.13 48.39 55.56 C 47.84 55.63 46.76 55.79 46.22 55.86 C 46.22 54.52 46.20 53.17 46.17 51.83 C 47.18 52.95 48.29 53.98 49.51 54.87 C 49.24 53.57 48.82 52.32 48.24 51.12 Z" />
<path fill="#d99951" opacity="1.00" d=" M 72.25 63.34 C 72.78 63.88 72.78 63.88 72.25 63.34 Z" />
</g>
<g id="#ab794aff">
<path fill="#ab794a" opacity="1.00" d=" M 24.38 41.21 C 25.18 38.30 28.11 36.15 31.01 35.77 C 36.31 37.35 42.87 41.69 41.70 48.07 L 42.08 49.60 C 40.65 46.63 37.62 44.83 36.41 41.75 L 38.21 41.79 C 38.49 39.33 36.24 39.82 35.18 41.22 C 32.86 43.61 29.88 40.17 29.86 37.70 C 28.34 39.28 26.80 41.21 24.38 41.21 Z" />
<path fill="#ab794a" opacity="1.00" d=" M 71.94 52.65 C 79.26 48.78 81.35 39.36 89.06 36.02 C 92.05 35.73 93.91 39.32 92.32 41.79 C 93.30 42.28 94.29 42.77 95.27 43.26 C 94.97 44.58 94.80 46.01 93.76 47.00 C 91.15 46.30 88.71 45.11 86.19 44.14 C 85.86 44.55 85.21 45.35 84.89 45.75 C 86.29 46.69 87.69 47.63 89.09 48.58 C 89.04 49.67 88.96 50.75 88.85 51.84 C 86.91 54.26 84.83 50.74 82.93 49.91 C 81.82 51.81 83.48 53.55 84.16 55.26 C 83.49 55.94 82.82 56.62 82.15 57.30 C 81.17 56.52 80.20 55.74 79.23 54.96 C 78.97 55.33 78.44 56.08 78.17 56.45 C 78.89 57.27 79.52 58.15 80.07 59.09 C 79.46 59.88 78.83 60.64 78.17 61.39 C 76.71 60.32 75.26 59.25 73.80 58.18 C 74.61 59.45 75.42 60.72 76.22 61.99 C 76.82 61.99 78.02 61.98 78.62 61.98 C 80.44 59.63 82.54 57.50 84.90 55.69 C 84.93 55.00 85.00 53.63 85.03 52.95 C 85.55 53.26 86.58 53.87 87.09 54.17 C 88.05 53.34 89.00 52.50 89.96 51.67 C 89.98 50.11 89.99 48.55 90.01 46.98 C 90.54 47.28 91.62 47.88 92.16 48.17 C 93.84 47.51 95.52 46.86 97.23 46.27 C 97.15 47.80 96.97 49.32 96.71 50.83 C 97.32 50.75 98.54 50.61 99.14 50.54 C 99.29 50.99 99.57 51.89 99.71 52.34 C 99.60 52.44 99.39 52.63 99.29 52.72 C 98.58 52.89 97.17 53.24 96.47 53.41 C 96.27 54.16 95.87 55.66 95.68 56.42 C 94.44 55.97 93.19 55.58 91.95 55.18 C 91.83 55.72 91.61 56.80 91.49 57.34 C 91.25 59.15 91.23 60.99 91.31 62.82 C 89.65 61.68 88.08 60.43 86.48 59.21 C 86.10 59.49 85.33 60.04 84.95 60.31 C 85.55 60.90 86.16 61.49 86.77 62.08 C 86.37 62.79 85.58 64.22 85.19 64.93 C 83.91 63.63 82.68 62.30 81.42 60.99 C 81.07 61.34 80.38 62.05 80.04 62.41 C 80.83 63.19 81.62 63.97 82.37 64.79 C 81.66 64.91 80.22 65.16 79.50 65.29 C 78.69 64.42 77.86 63.56 77.03 62.72 C 76.69 63.89 76.52 65.10 76.68 66.31 L 75.83 66.54 C 74.99 65.00 74.19 63.44 73.42 61.87 C 72.92 61.99 71.92 62.25 71.42 62.37 C 71.33 62.84 71.17 63.76 71.09 64.22 C 69.60 62.17 68.06 60.12 66.99 57.80 C 66.91 57.19 66.74 55.97 66.66 55.36 C 67.76 54.26 68.91 53.21 70.25 52.41 C 70.67 52.47 71.52 52.59 71.94 52.65 M 90.38 54.29 C 88.99 54.93 88.97 55.56 90.31 56.19 C 91.71 55.54 91.73 54.90 90.38 54.29 Z" />
<path fill="#ab794a" opacity="1.00" d=" M 21.78 42.36 C 24.23 42.37 26.60 41.74 28.89 40.93 C 30.34 41.80 31.77 42.70 33.20 43.61 C 31.50 44.48 29.81 45.34 28.18 46.33 C 27.21 44.46 25.30 44.31 23.43 44.40 C 23.02 43.89 22.19 42.87 21.78 42.36 Z" />
<path fill="#ab794a" opacity="1.00" d=" M 31.64 47.15 C 33.08 45.51 34.22 43.66 35.35 41.80 C 35.99 44.70 38.08 46.80 40.16 48.75 C 38.85 49.59 37.55 50.46 36.33 51.44 C 36.37 51.02 36.44 50.19 36.48 49.77 C 34.89 48.85 33.25 48.02 31.64 47.15 Z" />
<path fill="#ab794a" opacity="1.00" d=" M 55.47 43.75 C 57.25 45.89 59.14 47.95 61.40 49.59 C 59.82 50.69 58.24 51.79 56.65 52.89 C 55.96 51.99 55.26 51.08 54.54 50.20 L 53.64 49.09 C 54.82 47.55 55.13 45.60 55.47 43.75 Z" />
<path fill="#ab794a" opacity="1.00" d=" M 20.10 46.24 C 23.35 46.55 18.49 49.23 20.10 46.24 Z" />
<path fill="#ab794a" opacity="1.00" d=" M 88.27 46.25 C 88.80 46.76 88.80 46.76 88.27 46.25 Z" />
<path fill="#ab794a" opacity="1.00" d=" M 19.34 50.31 C 19.88 50.81 19.88 50.81 19.34 50.31 Z" />
<path fill="#ab794a" opacity="1.00" d=" M 39.62 56.15 C 41.09 55.22 42.91 53.03 44.73 53.92 C 44.98 55.48 44.84 57.40 46.98 57.28 C 47.00 58.50 47.00 59.72 47.01 60.94 C 47.68 60.96 49.02 61.01 49.69 61.03 C 50.08 61.84 50.44 62.66 50.77 63.50 C 50.18 64.84 49.90 66.26 49.95 67.75 C 49.21 66.92 48.43 66.14 47.62 65.38 L 48.84 64.74 C 48.99 64.06 49.30 62.72 49.46 62.04 C 48.05 63.25 46.97 64.77 46.59 66.61 C 45.47 64.73 45.73 62.53 45.96 60.47 L 45.18 59.80 C 44.55 59.27 43.92 58.73 43.30 58.20 L 42.73 57.67 L 43.83 56.64 C 43.89 56.14 44.01 55.12 44.07 54.61 C 42.46 56.05 41.19 58.21 38.83 58.42 L 38.99 57.83 C 39.15 57.41 39.46 56.57 39.62 56.15 Z" />
<path fill="#ab794a" opacity="1.00" d=" M 16.35 59.62 C 17.68 60.66 17.48 63.97 16.57 65.52 L 16.28 65.38 C 15.71 63.57 15.79 61.43 16.35 59.62 Z" />
<path fill="#ab794a" opacity="1.00" d=" M 52.27 65.47 C 53.06 65.60 54.65 65.85 55.45 65.98 C 57.04 67.46 58.71 69.17 61.02 69.30 C 64.80 69.76 68.14 67.63 71.32 65.94 C 71.11 67.96 70.72 69.96 70.34 71.95 C 70.75 73.86 70.98 75.80 71.09 77.75 C 70.52 78.05 69.38 78.64 68.81 78.94 C 68.02 78.53 67.23 78.13 66.43 77.73 C 65.87 76.80 65.31 75.88 64.74 74.95 C 62.99 75.00 61.25 75.04 59.50 75.08 C 59.70 75.94 59.90 76.79 60.10 77.65 C 58.82 78.03 57.54 78.42 56.27 78.80 C 54.59 74.46 53.84 69.84 52.27 65.47 Z" />
</g>
<g id="#f4e5c6ff">
<path fill="#f4e5c6" opacity="1.00" d=" M 50.31 43.15 L 50.95 42.93 C 51.12 43.23 51.44 43.83 51.60 44.13 C 51.55 44.36 51.45 44.82 51.40 45.05 C 50.83 45.32 49.69 45.84 49.12 46.10 C 49.16 44.99 49.56 44.00 50.31 43.15 Z" />
<path fill="#f4e5c6" opacity="1.00" d=" M 119.52 43.82 C 125.09 45.97 131.37 47.94 134.96 53.05 C 136.68 54.75 139.19 55.29 141.31 56.35 C 140.47 57.33 139.63 58.30 138.80 59.28 C 137.62 60.60 136.39 62.05 134.41 61.36 C 134.83 62.65 134.81 63.92 134.35 65.17 C 129.95 63.12 125.44 61.29 121.25 58.82 C 121.94 57.97 122.64 57.12 123.34 56.27 C 122.88 54.74 122.41 53.22 121.94 51.70 C 123.30 51.06 124.67 50.43 126.03 49.80 C 123.66 48.04 121.54 45.97 119.52 43.82 Z" />
<path fill="#f4e5c6" opacity="1.00" d=" M 45.21 44.86 C 46.75 44.78 47.71 45.94 48.70 46.93 C 45.81 50.14 42.47 52.91 39.62 56.15 C 39.46 56.57 39.15 57.41 38.99 57.83 C 37.91 56.32 37.43 54.53 36.88 52.80 L 39.24 55.70 L 38.40 51.83 L 40.01 53.37 C 39.40 50.76 40.44 49.68 42.23 51.26 L 42.08 49.60 C 43.19 48.05 45.12 46.94 45.21 44.86 Z" />
<path fill="#f4e5c6" opacity="1.00" d=" M 70.65 46.15 C 71.23 46.19 72.38 46.28 72.95 46.32 L 73.57 46.41 C 73.21 46.62 72.51 47.04 72.16 47.25 C 71.93 47.31 71.48 47.44 71.25 47.51 C 69.34 48.13 67.48 48.89 65.64 49.68 C 64.53 49.46 63.43 49.24 62.33 49.02 C 61.83 48.47 60.84 47.37 60.35 46.82 C 62.72 47.32 65.29 48.80 67.69 47.59 C 68.71 47.17 69.69 46.69 70.65 46.15 Z" />
<path fill="#f4e5c6" opacity="1.00" d=" M 53.35 48.08 C 53.42 48.33 53.56 48.84 53.64 49.09 C 53.56 48.84 53.42 48.33 53.35 48.08 Z" />
<path fill="#f4e5c6" opacity="1.00" d=" M 67.95 81.63 C 68.15 81.12 68.55 80.10 68.75 79.59 C 68.83 80.35 68.98 81.87 69.06 82.63 C 70.51 83.10 71.97 83.56 73.42 84.03 C 73.23 85.35 72.82 86.59 72.19 87.76 C 72.16 86.95 72.08 85.34 72.05 84.53 C 71.43 84.86 70.20 85.52 69.59 85.85 C 69.59 87.36 69.58 88.88 69.54 90.40 C 68.50 87.97 68.09 85.19 66.21 83.20 C 66.03 83.77 65.67 84.91 65.49 85.47 C 65.60 86.43 65.81 88.35 65.91 89.30 L 65.83 89.25 C 65.11 87.66 64.40 86.07 63.69 84.48 C 65.01 83.39 66.40 82.38 67.95 81.63 Z" />
<path fill="#f4e5c6" opacity="1.00" d=" M 53.00 82.28 C 53.44 81.91 54.32 81.15 54.76 80.78 C 54.61 81.27 54.33 82.27 54.19 82.76 C 54.48 83.27 55.06 84.28 55.35 84.79 C 54.63 84.64 53.21 84.34 52.49 84.19 C 51.98 83.57 51.46 82.97 50.93 82.37 C 50.29 83.24 49.01 84.98 48.37 85.85 C 48.18 84.33 48.68 83.02 49.86 81.90 C 50.64 82.00 52.21 82.19 53.00 82.28 Z" />
<path fill="#f4e5c6" opacity="1.00" d=" M 56.03 86.19 C 55.50 85.17 56.39 83.01 57.66 83.31 C 58.15 84.33 57.39 86.62 56.03 86.19 Z" />
</g>
<g id="#bda98bff">
<path fill="#bda98b" opacity="1.00" d=" M 21.11 44.20 C 21.69 44.25 22.85 44.35 23.43 44.40 C 25.30 44.31 27.21 44.46 28.18 46.33 L 27.64 47.47 C 27.36 47.58 26.80 47.78 26.52 47.89 C 25.63 48.12 23.85 48.58 22.96 48.81 C 22.36 47.27 21.76 45.72 21.11 44.20 Z" />
<path fill="#bda98b" opacity="1.00" d=" M 29.78 48.32 C 30.25 48.02 31.18 47.44 31.64 47.15 C 33.25 48.02 34.89 48.85 36.48 49.77 C 36.44 50.19 36.37 51.02 36.33 51.44 C 35.85 51.88 34.89 52.76 34.41 53.20 C 31.39 53.78 29.97 51.37 28.84 49.01 C 29.07 48.84 29.55 48.49 29.78 48.32 Z" />
<path fill="#bda98b" opacity="1.00" d=" M 9.91 49.02 L 11.31 48.94 C 11.79 49.52 12.25 50.10 12.70 50.70 C 11.82 53.08 11.18 55.60 12.00 58.11 C 11.81 58.38 11.43 58.92 11.23 59.19 C 9.72 58.42 8.29 59.70 7.97 61.15 C 7.76 61.42 7.34 61.96 7.13 62.23 C 6.29 62.19 4.60 62.11 3.75 62.07 C 4.57 60.79 4.50 59.19 5.22 57.86 C 4.71 58.27 3.69 59.09 3.18 59.49 C 2.62 57.79 2.12 56.07 1.77 54.31 C 3.05 53.83 4.33 53.35 5.54 52.71 L 6.49 51.49 C 7.71 50.79 8.86 49.97 9.91 49.02 Z" />
<path fill="#bda98b" opacity="1.00" d=" M 96.47 53.41 C 97.17 53.24 98.58 52.89 99.29 52.72 L 99.78 52.62 C 99.92 53.25 100.20 54.52 100.34 55.15 L 100.33 55.59 C 100.17 56.30 99.85 57.71 99.69 58.41 C 98.35 57.73 97.04 57.02 95.68 56.42 C 95.87 55.66 96.27 54.16 96.47 53.41 Z" />
<path fill="#bda98b" opacity="1.00" d=" M 42.19 57.76 L 43.30 58.20 C 43.92 58.73 44.55 59.27 45.18 59.80 C 44.45 61.52 43.51 63.14 42.23 64.51 C 42.07 63.56 41.75 61.65 41.58 60.69 C 41.73 59.96 42.04 58.49 42.19 57.76 Z" />
<path fill="#bda98b" opacity="1.00" d=" M 91.49 57.34 C 93.30 58.64 95.23 59.80 96.94 61.25 C 97.39 62.66 96.79 64.15 96.66 65.57 C 94.87 64.67 93.07 63.77 91.31 62.82 C 91.23 60.99 91.25 59.15 91.49 57.34 Z" />
<path fill="#bda98b" opacity="1.00" d=" M 85.19 64.93 C 85.58 64.22 86.37 62.79 86.77 62.08 C 88.06 63.34 89.36 64.61 90.65 65.88 C 90.22 66.32 89.37 67.21 88.95 67.65 C 87.52 67.00 86.27 66.05 85.19 64.93 Z" />
<path fill="#bda98b" opacity="1.00" d=" M 79.50 65.29 C 80.22 65.16 81.66 64.91 82.37 64.79 C 83.12 65.92 83.70 67.14 84.12 68.46 C 81.67 68.84 80.47 67.16 79.50 65.29 Z" />
<path fill="#bda98b" opacity="1.00" d=" M 108.13 73.31 C 112.04 71.74 111.62 66.85 114.33 64.11 C 116.61 69.12 118.90 74.44 118.15 80.09 C 116.46 80.84 115.02 82.01 113.82 83.41 C 112.95 82.83 112.02 82.38 111.04 82.04 C 110.48 82.91 110.09 83.86 109.88 84.89 C 109.60 85.64 109.03 87.14 108.74 87.89 C 107.65 85.72 108.54 83.36 108.72 81.11 C 109.10 78.49 108.42 75.90 108.13 73.31 Z" />
<path fill="#bda98b" opacity="1.00" d=" M 15.06 64.84 L 16.28 65.38 L 16.57 65.52 C 17.43 67.22 17.65 69.09 17.31 70.94 C 17.84 73.22 18.08 75.54 18.02 77.89 L 19.66 77.90 C 19.23 75.66 19.05 73.38 18.71 71.13 L 19.99 71.15 C 20.00 73.80 21.04 76.28 21.44 78.88 C 20.43 79.24 19.42 79.61 18.41 79.99 C 18.46 79.58 18.55 78.76 18.60 78.35 C 17.35 77.60 16.17 76.74 15.07 75.80 C 15.18 72.14 15.07 68.49 15.06 64.84 Z" />
<path fill="#bda98b" opacity="1.00" d=" M 75.83 66.54 L 76.68 66.31 C 77.01 66.61 77.67 67.20 78.00 67.49 C 77.71 69.31 75.54 67.82 75.83 66.54 Z" />
<path fill="#bda98b" opacity="1.00" d=" M 55.48 87.10 C 56.67 87.68 56.82 88.55 55.94 89.71 C 54.74 89.14 54.59 88.27 55.48 87.10 Z" />
</g>
<g id="#bf874cff">
<path fill="#bf874c" opacity="1.00" d=" M 11.31 48.94 C 13.87 47.25 16.33 45.41 18.96 43.84 C 18.08 46.74 17.33 49.69 16.69 52.65 C 15.28 54.24 13.89 55.86 12.52 57.49 L 12.00 58.11 C 11.18 55.60 11.82 53.08 12.70 50.70 C 12.25 50.10 11.79 49.52 11.31 48.94 Z" />
<path fill="#bf874c" opacity="1.00" d=" M 101.72 51.10 C 104.19 52.72 106.69 54.46 109.66 54.95 L 110.78 55.25 C 112.17 58.12 113.04 61.20 114.33 64.11 C 111.62 66.85 112.04 71.74 108.13 73.31 C 107.62 70.19 108.85 66.47 106.72 63.80 C 105.06 69.05 105.18 74.61 105.33 80.05 C 105.37 81.64 106.12 83.08 106.61 84.56 C 106.40 84.90 105.98 85.56 105.77 85.90 C 104.67 82.99 103.27 80.12 103.18 76.96 C 102.79 69.77 101.94 62.61 100.33 55.59 L 100.34 55.15 C 100.76 53.79 101.25 52.44 101.72 51.10 Z" />
</g>
</svg>
