<?xml version="1.0" encoding="UTF-8" ?>
<!DOCTYPE svg PUBLIC "-//W3C//DTD SVG 1.1//EN" "http://www.w3.org/Graphics/SVG/1.1/DTD/svg11.dtd">
<svg width="120pt" height="120pt" viewBox="0 0 120 120" version="1.1" xmlns="http://www.w3.org/2000/svg">
<g id="#041a24ff">
<path fill="#041a24" opacity="1.00" d=" M 64.95 14.68 C 65.05 12.58 64.45 10.04 66.68 8.84 C 67.43 9.97 68.10 11.17 68.74 12.38 C 69.12 13.70 69.57 15.01 70.10 16.28 C 70.54 15.90 71.42 15.13 71.86 14.74 C 71.94 16.39 72.19 18.01 72.63 19.60 C 72.97 20.95 73.28 22.30 73.80 23.60 C 73.87 24.19 74.00 25.36 74.07 25.94 C 74.55 25.97 75.52 26.03 76.00 26.06 C 76.00 26.61 76.00 27.70 76.00 28.25 C 76.47 27.88 77.41 27.13 77.89 26.75 C 77.96 28.97 78.39 31.14 79.17 33.22 C 79.59 32.85 80.44 32.12 80.86 31.75 C 80.85 33.46 81.16 35.09 81.82 36.65 C 81.95 38.22 82.04 39.79 82.18 41.36 C 83.67 43.84 82.15 47.22 84.49 49.30 C 84.93 48.59 85.82 47.17 86.26 46.46 C 86.16 46.86 85.96 47.66 85.87 48.07 C 85.41 49.96 85.00 51.87 84.55 53.76 C 83.83 52.58 83.30 51.31 82.84 50.02 C 82.60 48.00 82.32 45.99 82.02 43.98 C 81.36 41.73 81.31 39.37 81.25 37.04 C 80.11 36.45 78.97 35.87 77.82 35.30 C 77.83 34.10 77.84 32.89 77.85 31.69 C 77.25 31.79 76.05 31.98 75.45 32.07 C 75.19 30.02 76.08 27.16 73.41 26.43 C 72.85 24.31 72.40 22.17 72.11 20.01 C 71.26 19.56 70.40 19.11 69.55 18.67 C 68.86 15.61 67.83 12.61 66.18 9.93 C 66.02 12.28 65.99 14.64 65.98 17.00 L 64.22 16.74 C 64.17 20.06 64.14 23.40 63.41 26.65 C 63.22 27.81 63.03 28.97 62.85 30.13 L 61.44 30.16 C 61.34 28.36 61.23 26.55 61.10 24.74 L 62.91 26.25 C 62.99 22.95 63.05 19.64 63.00 16.33 C 63.49 15.92 64.46 15.09 64.95 14.68 Z" />
<path fill="#041a24" opacity="1.00" d=" M 60.40 25.43 L 60.97 26.55 C 60.81 29.51 60.19 32.43 59.59 35.33 C 59.00 34.94 57.83 34.16 57.25 33.76 C 56.98 35.40 56.69 37.04 56.36 38.67 C 56.11 39.56 55.85 40.45 55.60 41.34 C 55.32 42.98 55.14 44.62 54.95 46.27 L 54.80 47.17 C 54.45 47.02 53.75 46.71 53.40 46.56 C 53.08 47.32 52.46 48.84 52.15 49.60 C 52.12 50.12 52.07 51.16 52.04 51.69 C 51.09 52.74 50.12 53.78 49.11 54.77 C 49.13 55.20 49.18 56.06 49.21 56.49 C 52.21 57.81 51.92 61.18 52.34 63.91 C 53.79 60.45 55.09 56.91 56.88 53.59 C 54.94 59.76 52.69 66.28 47.78 70.75 C 44.93 73.52 42.07 77.00 37.70 76.89 C 36.68 76.01 35.64 75.15 34.59 74.32 C 35.28 75.45 36.00 76.57 36.73 77.68 L 36.11 78.25 C 36.25 78.69 36.53 79.56 36.66 80.00 C 36.75 80.43 36.92 81.29 37.00 81.72 C 36.22 81.95 34.66 82.42 33.87 82.66 C 35.59 86.86 39.95 88.18 43.96 89.16 L 43.25 90.05 C 40.82 89.25 38.38 88.46 35.99 87.53 C 34.96 86.14 34.07 84.66 33.16 83.19 C 32.97 85.47 33.15 87.90 31.99 89.98 C 32.48 92.68 33.67 95.21 35.43 97.32 C 37.31 99.26 39.17 101.69 42.05 102.05 C 45.83 102.53 49.66 102.26 53.44 102.75 C 54.56 102.51 55.67 102.27 56.77 101.98 L 56.99 102.60 C 54.20 103.09 53.58 105.52 53.86 108.00 C 51.00 107.99 48.14 107.99 45.28 108.01 C 45.06 107.39 44.64 106.15 44.43 105.53 C 45.09 104.70 45.80 103.90 46.49 103.10 C 43.76 102.83 41.04 102.48 38.34 102.00 C 38.04 102.62 37.46 103.86 37.17 104.48 C 37.10 105.04 36.98 106.14 36.92 106.70 C 36.32 107.21 35.12 108.24 34.53 108.75 C 35.80 109.63 37.14 110.50 38.72 109.77 C 39.07 109.99 39.76 110.44 40.11 110.66 C 41.05 109.77 42.00 108.90 42.94 108.00 C 42.96 108.75 43.00 110.25 43.02 110.99 C 39.93 110.99 36.83 111.00 33.74 110.97 C 34.47 107.50 36.64 104.57 37.87 101.28 C 34.78 98.57 31.50 95.24 31.03 90.97 C 31.73 88.47 32.14 85.90 32.12 83.29 C 32.76 82.66 33.41 82.04 34.06 81.41 C 34.22 78.72 33.22 75.62 35.03 73.28 C 34.87 72.33 34.66 71.38 34.38 70.45 C 33.99 69.45 33.63 68.44 33.27 67.43 C 32.43 64.22 31.86 60.95 31.82 57.63 C 30.63 54.67 30.08 50.43 32.33 47.88 C 34.57 49.49 35.58 52.15 36.84 54.50 C 36.94 54.98 37.14 55.92 37.24 56.40 C 38.48 58.74 37.90 61.46 37.97 63.98 C 40.09 63.15 42.24 62.39 44.45 61.80 C 43.51 62.54 42.56 63.27 41.60 63.98 C 41.06 63.99 40.00 64.01 39.46 64.02 C 38.33 65.16 37.19 66.28 36.02 67.38 C 35.94 68.70 35.89 70.01 35.87 71.32 C 35.86 72.01 35.85 73.39 35.85 74.08 C 36.89 74.83 37.91 75.61 39.03 76.23 C 40.95 76.02 42.57 74.85 44.04 73.68 C 47.16 70.37 51.99 67.18 51.38 62.00 C 51.87 58.51 48.11 57.29 46.01 55.36 C 46.00 57.08 46.01 58.81 45.92 60.54 L 44.92 61.40 C 45.27 58.96 44.15 55.91 46.22 54.02 C 46.61 54.27 47.39 54.75 47.78 54.99 C 47.93 53.24 49.25 52.19 50.78 51.59 C 51.49 49.62 51.84 47.55 52.23 45.50 C 55.05 42.65 55.37 38.57 56.14 34.86 C 56.32 33.53 57.83 33.21 58.77 32.58 C 59.68 30.29 59.89 27.82 60.40 25.43 M 32.17 49.10 C 32.13 51.54 32.14 53.98 32.07 56.42 C 32.58 55.91 33.59 54.90 34.10 54.39 C 33.99 57.42 31.57 61.58 34.47 63.89 C 34.40 65.21 34.35 66.53 34.33 67.85 C 34.57 67.24 35.06 66.02 35.31 65.42 C 35.67 65.24 36.41 64.88 36.78 64.70 C 37.92 63.00 37.23 60.85 37.37 58.95 C 35.77 55.60 34.84 51.82 32.17 49.10 M 48.22 103.04 C 47.28 104.21 46.38 105.41 45.55 106.67 C 46.88 106.46 48.13 106.77 49.21 107.57 C 49.46 107.28 49.97 106.71 50.22 106.42 C 51.29 106.84 52.35 107.27 53.40 107.72 C 53.39 106.85 53.37 105.13 53.36 104.26 C 52.85 104.35 51.83 104.52 51.32 104.60 C 51.65 104.22 52.32 103.46 52.65 103.07 C 51.17 103.07 49.70 103.06 48.22 103.04 Z" />
<path fill="#041a24" opacity="1.00" d=" M 59.20 53.04 C 64.50 51.52 69.19 48.54 74.09 46.10 C 74.00 46.70 73.82 47.91 73.73 48.52 C 73.26 49.37 72.78 50.23 72.30 51.08 C 72.25 50.33 72.14 48.81 72.09 48.05 C 69.99 48.75 70.99 51.69 70.89 53.39 C 70.44 54.75 69.97 56.11 69.51 57.47 C 68.89 59.10 68.33 60.77 67.89 62.47 C 67.45 61.92 67.02 61.37 66.58 60.83 C 67.38 58.19 68.43 55.63 69.06 52.93 C 65.95 55.51 62.91 58.21 60.28 61.28 C 58.13 63.76 56.55 66.72 54.09 68.93 C 53.50 69.30 52.32 70.04 51.73 70.41 C 54.62 65.37 56.26 59.41 60.87 55.56 C 61.00 55.01 61.25 53.92 61.38 53.38 C 60.25 53.43 58.01 53.54 56.88 53.59 C 57.35 52.67 57.83 51.75 58.30 50.83 C 58.52 51.39 58.97 52.49 59.20 53.04 M 67.59 50.09 C 66.76 50.70 64.50 51.22 64.91 52.58 C 66.56 52.82 67.98 51.43 69.35 50.70 C 70.99 49.37 68.23 49.32 67.59 50.09 M 62.11 53.25 L 61.78 53.93 C 62.33 56.54 64.27 52.86 62.11 53.25 Z" />
<path fill="#041a24" opacity="1.00" d=" M 34.76 62.79 C 33.28 63.25 33.28 59.86 34.76 60.33 C 34.76 60.95 34.76 62.17 34.76 62.79 Z" />
<path fill="#041a24" opacity="1.00" d=" M 66.51 63.25 C 66.77 63.53 66.77 63.53 66.51 63.25 Z" />
<path fill="#041a24" opacity="1.00" d=" M 42.75 81.99 C 43.62 79.48 44.81 76.41 47.92 76.23 C 50.97 75.40 50.10 79.72 48.95 81.20 L 49.00 79.93 C 48.99 79.22 48.97 77.80 48.96 77.09 C 47.16 76.83 46.75 79.36 48.36 79.97 C 47.49 79.98 45.76 80.00 44.90 80.01 C 44.85 80.52 44.76 81.55 44.72 82.06 C 45.33 82.08 46.54 82.10 47.15 82.12 C 45.69 82.49 44.20 82.27 42.75 81.99 Z" />
<path fill="#041a24" opacity="1.00" d=" M 65.97 95.05 C 66.13 94.81 66.45 94.34 66.61 94.11 C 67.02 96.52 67.83 98.87 69.45 100.74 C 69.43 101.93 69.40 103.11 69.37 104.29 C 68.36 105.26 67.36 106.24 66.37 107.23 C 69.00 107.54 71.64 107.70 74.29 107.83 C 74.57 105.06 75.14 102.34 75.81 99.65 C 75.99 102.33 76.19 105.02 75.90 107.70 C 73.82 109.96 69.68 109.41 67.22 107.97 C 66.66 108.96 66.11 109.96 65.59 110.98 C 62.57 110.97 59.46 111.35 56.53 110.38 C 59.46 110.26 62.40 110.28 65.33 110.36 C 66.11 105.31 68.10 100.05 65.97 95.05 Z" />
</g>
<g id="#fbf2a8ff">
<path fill="#fbf2a8" opacity="1.00" d=" M 66.18 9.93 C 67.83 12.61 68.86 15.61 69.55 18.67 C 70.40 19.11 71.26 19.56 72.11 20.01 C 72.40 22.17 72.85 24.31 73.41 26.43 C 76.08 27.16 75.19 30.02 75.45 32.07 C 76.05 31.98 77.25 31.79 77.85 31.69 C 77.84 32.89 77.83 34.10 77.82 35.30 C 78.97 35.87 80.11 36.45 81.25 37.04 C 81.31 39.37 81.36 41.73 82.02 43.98 C 82.32 45.99 82.60 48.00 82.84 50.02 C 83.30 51.31 83.83 52.58 84.55 53.76 C 85.00 51.87 85.41 49.96 85.87 48.07 C 86.11 50.88 86.32 53.69 86.36 56.51 C 86.24 58.97 86.46 61.73 84.83 63.78 C 81.52 68.89 74.88 70.41 69.16 69.88 C 66.76 69.56 64.07 69.55 62.15 67.86 C 61.83 67.60 61.18 67.06 60.86 66.79 C 62.23 66.61 63.54 66.23 64.79 65.66 C 65.94 64.31 66.07 62.45 66.58 60.83 C 67.02 61.37 67.45 61.92 67.89 62.47 C 68.33 60.77 68.89 59.10 69.51 57.47 C 69.97 56.11 70.44 54.75 70.89 53.39 C 71.24 52.81 71.95 51.66 72.30 51.08 C 72.78 50.23 73.26 49.37 73.73 48.52 C 73.82 47.91 74.00 46.70 74.09 46.10 C 69.19 48.54 64.50 51.52 59.20 53.04 C 58.97 52.49 58.52 51.39 58.30 50.83 C 57.83 51.75 57.35 52.67 56.88 53.59 C 55.09 56.91 53.79 60.45 52.34 63.91 C 51.92 61.18 52.21 57.81 49.21 56.49 C 49.18 56.06 49.13 55.20 49.11 54.77 C 50.12 53.78 51.09 52.74 52.04 51.69 C 52.07 51.16 52.12 50.12 52.15 49.60 C 52.46 48.84 53.08 47.32 53.40 46.56 C 53.75 46.71 54.45 47.02 54.80 47.17 L 54.95 46.27 C 56.71 42.72 58.61 39.20 59.59 35.33 C 60.19 32.43 60.81 29.51 60.97 26.55 L 61.10 24.74 C 61.23 26.55 61.34 28.36 61.44 30.16 L 62.85 30.13 C 63.03 28.97 63.22 27.81 63.41 26.65 C 64.14 23.40 64.17 20.06 64.22 16.74 L 65.98 17.00 C 65.99 14.64 66.02 12.28 66.18 9.93 M 66.51 63.25 C 66.77 63.53 66.77 63.53 66.51 63.25 Z" />
<path fill="#fbf2a8" opacity="1.00" d=" M 46.01 55.36 C 48.11 57.29 51.87 58.51 51.38 62.00 C 51.99 67.18 47.16 70.37 44.04 73.68 C 41.26 73.09 38.52 72.34 35.87 71.32 C 35.89 70.01 35.94 68.70 36.02 67.38 C 37.19 66.28 38.33 65.16 39.46 64.02 C 40.00 64.01 41.06 63.99 41.60 63.98 C 42.56 63.27 43.51 62.54 44.45 61.80 C 44.56 61.70 44.80 61.50 44.92 61.40 L 45.92 60.54 C 46.01 58.81 46.00 57.08 46.01 55.36 Z" />
<path fill="#fbf2a8" opacity="1.00" d=" M 58.18 70.47 C 59.52 71.01 60.85 71.56 62.20 72.10 C 62.68 74.12 63.16 76.15 63.61 78.19 C 64.38 77.73 65.15 77.26 65.92 76.80 C 66.31 78.21 66.72 79.61 67.21 80.99 C 67.18 85.81 67.76 91.16 64.38 95.11 C 60.16 97.17 55.74 99.20 50.96 99.33 C 45.68 99.91 40.57 98.23 35.43 97.32 C 33.67 95.21 32.48 92.68 31.99 89.98 C 33.15 87.90 32.97 85.47 33.16 83.19 C 34.07 84.66 34.96 86.14 35.99 87.53 C 36.91 88.72 37.72 90.07 38.99 90.93 C 47.00 94.40 58.27 89.73 59.44 80.55 C 60.23 77.64 58.43 75.07 57.01 72.71 C 57.31 72.15 57.89 71.03 58.18 70.47 Z" />
<path fill="#fbf2a8" opacity="1.00" d=" M 48.36 79.97 C 46.75 79.36 47.16 76.83 48.96 77.09 C 48.97 77.80 48.99 79.22 49.00 79.93 L 48.36 79.97 Z" />
<path fill="#fbf2a8" opacity="1.00" d=" M 36.73 77.68 C 36.72 78.26 36.68 79.42 36.66 80.00 C 36.53 79.56 36.25 78.69 36.11 78.25 L 36.73 77.68 Z" />
<path fill="#fbf2a8" opacity="1.00" d=" M 75.12 82.41 C 75.21 80.62 76.95 79.86 78.52 79.77 C 78.87 81.25 76.54 83.39 75.12 82.41 Z" />
</g>
<g id="#d8ca88ff">
<path fill="#d8ca88" opacity="1.00" d=" M 57.25 33.76 C 57.83 34.16 59.00 34.94 59.59 35.33 C 58.61 39.20 56.71 42.72 54.95 46.27 C 55.14 44.62 55.32 42.98 55.60 41.34 C 55.85 40.45 56.11 39.56 56.36 38.67 C 56.69 37.04 56.98 35.40 57.25 33.76 Z" />
<path fill="#d8ca88" opacity="1.00" d=" M 86.36 56.51 C 86.83 56.76 87.76 57.24 88.23 57.49 C 88.00 60.00 87.37 62.44 86.94 64.92 C 86.54 66.27 86.07 67.73 87.48 68.68 C 87.08 69.28 86.28 70.46 85.88 71.05 C 85.66 71.53 85.21 72.47 84.99 72.95 C 84.65 73.40 83.96 74.31 83.61 74.76 L 82.47 74.91 C 81.01 74.84 80.60 76.50 80.65 77.64 C 80.63 78.98 79.92 79.69 78.52 79.77 C 76.95 79.86 75.21 80.62 75.12 82.41 L 74.86 83.44 C 74.26 83.72 73.04 84.28 72.43 84.56 C 69.62 81.93 67.38 78.60 66.44 74.83 C 65.94 75.46 64.95 76.73 64.45 77.36 C 63.87 75.39 63.31 73.41 62.74 71.44 C 61.31 70.78 59.88 70.12 58.45 69.45 C 59.68 68.92 60.92 68.39 62.15 67.86 C 64.07 69.55 66.76 69.56 69.16 69.88 C 74.88 70.41 81.52 68.89 84.83 63.78 C 86.46 61.73 86.24 58.97 86.36 56.51 Z" />
<path fill="#d8ca88" opacity="1.00" d=" M 35.87 71.32 C 38.52 72.34 41.26 73.09 44.04 73.68 C 42.57 74.85 40.95 76.02 39.03 76.23 C 37.91 75.61 36.89 74.83 35.85 74.08 C 35.85 73.39 35.86 72.01 35.87 71.32 Z" />
<path fill="#d8ca88" opacity="1.00" d=" M 57.01 72.71 C 58.43 75.07 60.23 77.64 59.44 80.55 C 58.27 89.73 47.00 94.40 38.99 90.93 C 37.72 90.07 36.91 88.72 35.99 87.53 C 38.38 88.46 40.82 89.25 43.25 90.05 L 43.96 89.16 C 48.31 89.10 53.28 87.55 55.33 83.37 C 57.47 80.20 56.91 76.31 57.01 72.71 Z" />
<path fill="#d8ca88" opacity="1.00" d=" M 50.96 99.33 C 55.74 99.20 60.16 97.17 64.38 95.11 C 64.21 95.40 63.87 95.97 63.70 96.26 C 63.74 96.64 63.83 97.41 63.87 97.79 C 61.53 99.23 59.22 100.73 56.77 101.98 C 55.67 102.27 54.56 102.51 53.44 102.75 C 49.66 102.26 45.83 102.53 42.05 102.05 C 39.17 101.69 37.31 99.26 35.43 97.32 C 40.57 98.23 45.68 99.91 50.96 99.33 Z" />
</g>
<g id="#043243ff">
<path fill="#043243" opacity="1.00" d=" M 86.26 46.46 L 86.80 45.45 C 87.11 49.05 86.95 52.67 86.94 56.28 C 87.48 55.91 88.56 55.17 89.10 54.80 C 88.94 58.77 88.11 62.70 87.32 66.58 C 87.52 67.29 87.91 68.72 88.10 69.44 L 87.48 68.68 C 86.07 67.73 86.54 66.27 86.94 64.92 C 87.37 62.44 88.00 60.00 88.23 57.49 C 87.76 57.24 86.83 56.76 86.36 56.51 C 86.32 53.69 86.11 50.88 85.87 48.07 C 85.96 47.66 86.16 46.86 86.26 46.46 Z" />
<path fill="#043243" opacity="1.00" d=" M 60.28 61.28 C 62.91 58.21 65.95 55.51 69.06 52.93 C 68.43 55.63 67.38 58.19 66.58 60.83 C 66.07 62.45 65.94 64.31 64.79 65.66 C 63.54 66.23 62.23 66.61 60.86 66.79 C 61.18 67.06 61.83 67.60 62.15 67.86 C 60.92 68.39 59.68 68.92 58.45 69.45 C 59.88 70.12 61.31 70.78 62.74 71.44 C 63.31 73.41 63.87 75.39 64.45 77.36 C 64.95 76.73 65.94 75.46 66.44 74.83 C 67.38 78.60 69.62 81.93 72.43 84.56 C 72.35 84.80 72.17 85.27 72.08 85.51 C 73.00 87.15 73.89 88.81 74.84 90.45 C 74.90 90.98 75.03 92.04 75.09 92.58 C 75.69 93.54 76.30 94.50 76.91 95.46 C 76.94 97.01 76.97 98.55 77.01 100.09 L 75.81 99.65 C 76.24 98.05 75.84 96.42 75.25 94.92 C 73.34 90.04 71.35 85.09 68.04 80.96 C 67.84 85.37 67.67 89.80 66.61 94.11 C 66.45 94.34 66.13 94.81 65.97 95.05 C 64.60 97.57 62.49 99.51 60.07 100.99 C 60.01 103.14 60.02 105.29 59.88 107.44 L 59.07 108.18 C 59.06 106.12 59.05 104.06 59.04 102.00 C 58.47 102.00 57.34 101.98 56.77 101.98 C 59.22 100.73 61.53 99.23 63.87 97.79 C 63.83 97.41 63.74 96.64 63.70 96.26 C 63.87 95.97 64.21 95.40 64.38 95.11 C 67.76 91.16 67.18 85.81 67.21 80.99 C 66.72 79.61 66.31 78.21 65.92 76.80 C 65.15 77.26 64.38 77.73 63.61 78.19 C 63.16 76.15 62.68 74.12 62.20 72.10 C 60.85 71.56 59.52 71.01 58.18 70.47 C 57.89 71.03 57.31 72.15 57.01 72.71 C 56.91 76.31 57.47 80.20 55.33 83.37 C 53.28 87.55 48.31 89.10 43.96 89.16 C 47.90 87.68 53.14 87.17 54.92 82.68 C 57.60 78.35 56.09 73.19 54.09 68.93 C 56.55 66.72 58.13 63.76 60.28 61.28 M 57.38 69.26 C 57.92 69.83 57.92 69.83 57.38 69.26 Z" />
<path fill="#043243" opacity="1.00" d=" M 84.99 72.95 C 85.21 72.47 85.66 71.53 85.88 71.05 L 86.36 71.83 L 85.91 72.81 L 84.99 72.95 Z" />
<path fill="#043243" opacity="1.00" d=" M 44.90 80.01 C 45.76 80.00 47.49 79.98 48.36 79.97 L 49.00 79.93 L 48.95 81.20 L 48.91 82.12 C 48.47 82.12 47.59 82.12 47.15 82.12 C 46.54 82.10 45.33 82.08 44.72 82.06 C 44.76 81.55 44.85 80.52 44.90 80.01 Z" />
<path fill="#043243" opacity="1.00" d=" M 38.25 83.16 C 41.24 81.59 38.41 86.48 38.25 83.16 Z" />
</g>
<g id="#f48944ff">
<path fill="#f48944" opacity="1.00" d=" M 70.89 53.39 C 70.99 51.69 69.99 48.75 72.09 48.05 C 72.14 48.81 72.25 50.33 72.30 51.08 C 71.95 51.66 71.24 52.81 70.89 53.39 Z" />
<path fill="#f48944" opacity="1.00" d=" M 32.17 49.10 C 34.84 51.82 35.77 55.60 37.37 58.95 C 37.23 60.85 37.92 63.00 36.78 64.70 C 36.41 64.88 35.67 65.24 35.31 65.42 C 35.06 66.02 34.57 67.24 34.33 67.85 C 34.35 66.53 34.40 65.21 34.47 63.89 C 31.57 61.58 33.99 57.42 34.10 54.39 C 33.59 54.90 32.58 55.91 32.07 56.42 C 32.14 53.98 32.13 51.54 32.17 49.10 M 34.76 62.79 C 34.76 62.17 34.76 60.95 34.76 60.33 C 33.28 59.86 33.28 63.25 34.76 62.79 Z" />
<path fill="#f48944" opacity="1.00" d=" M 67.59 50.09 C 68.23 49.32 70.99 49.37 69.35 50.70 C 67.98 51.43 66.56 52.82 64.91 52.58 C 64.50 51.22 66.76 50.70 67.59 50.09 Z" />
<path fill="#f48944" opacity="1.00" d=" M 62.11 53.25 C 64.27 52.86 62.33 56.54 61.78 53.93 L 62.11 53.25 Z" />
<path fill="#f48944" opacity="1.00" d=" M 56.88 53.59 C 58.01 53.54 60.25 53.43 61.38 53.38 C 61.25 53.92 61.00 55.01 60.87 55.56 C 56.26 59.41 54.62 65.37 51.73 70.41 C 52.32 70.04 53.50 69.30 54.09 68.93 C 56.09 73.19 57.60 78.35 54.92 82.68 C 53.14 87.17 47.90 87.68 43.96 89.16 C 39.95 88.18 35.59 86.86 33.87 82.66 C 34.66 82.42 36.22 81.95 37.00 81.72 C 36.92 81.29 36.75 80.43 36.66 80.00 C 36.68 79.42 36.72 78.26 36.73 77.68 C 36.00 76.57 35.28 75.45 34.59 74.32 C 35.64 75.15 36.68 76.01 37.70 76.89 C 42.07 77.00 44.93 73.52 47.78 70.75 C 52.69 66.28 54.94 59.76 56.88 53.59 M 42.75 81.99 C 44.20 82.27 45.69 82.49 47.15 82.12 C 47.59 82.12 48.47 82.12 48.91 82.12 L 48.95 81.20 C 50.10 79.72 50.97 75.40 47.92 76.23 C 44.81 76.41 43.62 79.48 42.75 81.99 M 38.25 83.16 C 38.41 86.48 41.24 81.59 38.25 83.16 Z" />
<path fill="#f48944" opacity="1.00" d=" M 57.38 69.26 C 57.92 69.83 57.92 69.83 57.38 69.26 Z" />
<path fill="#f48944" opacity="1.00" d=" M 80.65 77.64 C 80.60 76.50 81.01 74.84 82.47 74.91 C 82.90 76.20 82.47 77.18 81.20 77.84 L 80.65 77.64 Z" />
<path fill="#f48944" opacity="1.00" d=" M 68.04 80.96 C 71.35 85.09 73.34 90.04 75.25 94.92 C 75.84 96.42 76.24 98.05 75.81 99.65 C 75.14 102.34 74.57 105.06 74.29 107.83 C 71.64 107.70 69.00 107.54 66.37 107.23 C 67.36 106.24 68.36 105.26 69.37 104.29 C 69.40 103.11 69.43 101.93 69.45 100.74 C 67.83 98.87 67.02 96.52 66.61 94.11 C 67.67 89.80 67.84 85.37 68.04 80.96 Z" />
<path fill="#f48944" opacity="1.00" d=" M 60.07 100.99 C 62.49 99.51 64.60 97.57 65.97 95.05 C 68.10 100.05 66.11 105.31 65.33 110.36 C 62.40 110.28 59.46 110.26 56.53 110.38 C 57.17 109.83 58.44 108.73 59.07 108.18 L 59.88 107.44 C 60.02 105.29 60.01 103.14 60.07 100.99 Z" />
<path fill="#f48944" opacity="1.00" d=" M 38.34 102.00 C 41.04 102.48 43.76 102.83 46.49 103.10 C 45.80 103.90 45.09 104.70 44.43 105.53 C 44.17 106.04 43.65 107.06 43.39 107.57 L 42.94 108.00 C 42.00 108.90 41.05 109.77 40.11 110.66 C 39.76 110.44 39.07 109.99 38.72 109.77 C 37.14 110.50 35.80 109.63 34.53 108.75 C 35.12 108.24 36.32 107.21 36.92 106.70 C 36.98 106.14 37.10 105.04 37.17 104.48 C 37.46 103.86 38.04 102.62 38.34 102.00 Z" />
<path fill="#f48944" opacity="1.00" d=" M 48.22 103.04 C 49.70 103.06 51.17 103.07 52.65 103.07 C 52.32 103.46 51.65 104.22 51.32 104.60 C 51.83 104.52 52.85 104.35 53.36 104.26 C 53.37 105.13 53.39 106.85 53.40 107.72 C 52.35 107.27 51.29 106.84 50.22 106.42 C 49.97 106.71 49.46 107.28 49.21 107.57 C 48.13 106.77 46.88 106.46 45.55 106.67 C 46.38 105.41 47.28 104.21 48.22 103.04 Z" />
</g>
</svg>
