<?xml version="1.0" encoding="UTF-8" ?>
<!DOCTYPE svg PUBLIC "-//W3C//DTD SVG 1.1//EN" "http://www.w3.org/Graphics/SVG/1.1/DTD/svg11.dtd">
<svg width="120pt" height="120pt" viewBox="0 0 120 120" version="1.1" xmlns="http://www.w3.org/2000/svg">
<g id="#725d7cff">
<path fill="#725d7c" opacity="1.00" d=" M 48.96 35.10 C 50.78 32.99 54.12 34.70 54.49 37.16 C 54.36 39.98 54.02 42.77 53.85 45.59 C 52.45 46.41 51.03 47.22 49.61 48.02 C 56.28 45.70 64.48 47.64 67.97 54.16 C 62.13 51.13 55.18 49.65 48.83 51.95 C 45.49 53.42 44.25 57.04 43.41 60.31 C 42.80 58.62 42.32 56.88 41.85 55.15 C 41.22 55.75 40.60 56.36 39.97 56.96 C 38.80 54.62 37.63 52.28 36.36 49.98 C 35.70 51.40 35.26 52.91 35.03 54.46 C 32.10 51.82 36.00 48.83 36.37 45.97 C 38.91 45.61 41.30 46.99 43.76 46.86 C 46.31 45.16 46.94 42.10 46.00 39.32 C 47.24 38.83 48.47 38.33 49.71 37.85 C 49.45 36.94 49.20 36.02 48.96 35.10 Z" />
</g>
<g id="#7d6985ff">
<path fill="#7d6985" opacity="1.00" d=" M 54.49 37.16 C 59.23 35.39 64.99 33.54 69.71 36.28 C 70.88 36.90 72.03 37.57 73.17 38.24 C 72.97 39.45 72.65 40.63 72.17 41.75 C 74.41 41.36 76.33 42.99 77.45 44.77 C 78.66 44.14 79.89 43.53 81.10 42.90 C 81.54 43.18 82.41 43.75 82.84 44.04 C 82.30 47.85 79.44 50.91 79.85 54.88 C 78.57 54.96 77.28 55.04 76.00 55.11 C 75.99 56.42 75.98 57.72 75.98 59.03 C 77.55 58.62 79.12 58.21 80.72 57.91 C 81.08 58.89 81.45 59.86 81.83 60.83 C 81.23 61.62 80.62 62.39 80.00 63.15 C 77.38 66.63 74.23 69.78 69.90 70.93 C 73.80 64.88 70.61 57.76 71.87 51.18 C 70.98 51.66 70.10 52.14 69.22 52.63 C 67.38 50.83 65.64 48.85 63.37 47.57 C 60.45 46.05 57.07 45.92 53.85 45.59 C 54.02 42.77 54.36 39.98 54.49 37.16 M 59.21 40.22 C 59.83 40.84 59.83 40.84 59.21 40.22 Z" />
</g>
<g id="#836f8cff">
<path fill="#836f8c" opacity="1.00" d=" M 77.25 38.10 C 80.31 36.56 77.46 41.36 77.25 38.10 Z" />
</g>
<g id="#745e7cff">
<path fill="#745e7c" opacity="1.00" d=" M 44.22 39.22 C 44.83 39.83 44.83 39.83 44.22 39.22 Z" />
</g>
<g id="#75607dff">
<path fill="#75607d" opacity="1.00" d=" M 42.32 43.05 C 44.22 42.23 44.99 45.68 43.12 46.03 C 41.30 46.38 40.37 43.58 42.32 43.05 Z" />
</g>
<g id="#443e49ff">
<path fill="#443e49" opacity="1.00" d=" M 49.61 48.02 C 51.03 47.22 52.45 46.41 53.85 45.59 C 57.07 45.92 60.45 46.05 63.37 47.57 C 65.64 48.85 67.38 50.83 69.22 52.63 C 70.10 52.14 70.98 51.66 71.87 51.18 C 70.61 57.76 73.80 64.88 69.90 70.93 C 66.54 74.45 62.43 77.44 57.34 77.51 C 53.10 76.18 48.99 74.44 44.70 73.22 L 44.13 72.78 C 44.54 72.48 45.36 71.89 45.77 71.60 C 45.11 71.02 44.45 70.45 43.78 69.89 C 44.98 69.28 46.19 68.70 47.41 68.13 C 48.07 69.72 48.11 72.45 50.36 72.47 C 53.66 72.77 56.99 72.79 60.30 72.98 C 61.46 73.16 62.39 72.46 63.19 71.72 C 61.75 71.24 60.30 70.83 58.84 70.41 C 63.02 70.08 67.61 68.79 70.11 65.15 C 71.85 61.65 71.04 57.54 70.03 53.94 C 67.92 55.59 65.74 57.15 63.56 58.71 C 60.13 58.88 57.02 60.46 53.81 61.53 C 53.32 62.73 52.82 63.92 52.31 65.11 C 52.00 63.78 51.70 62.44 51.39 61.11 C 48.72 61.15 45.90 61.55 43.41 60.31 C 44.25 57.04 45.49 53.42 48.83 51.95 C 55.18 49.65 62.13 51.13 67.97 54.16 C 64.48 47.64 56.28 45.70 49.61 48.02 Z" />
</g>
<g id="#30282dff">
<path fill="#30282d" opacity="1.00" d=" M 35.03 54.46 C 35.26 52.91 35.70 51.40 36.36 49.98 C 37.63 52.28 38.80 54.62 39.97 56.96 C 40.60 56.36 41.22 55.75 41.85 55.15 C 42.32 56.88 42.80 58.62 43.41 60.31 C 45.90 61.55 48.72 61.15 51.39 61.11 C 51.70 62.44 52.00 63.78 52.31 65.11 C 52.82 63.92 53.32 62.73 53.81 61.53 C 57.02 60.46 60.13 58.88 63.56 58.71 C 60.03 61.32 56.45 63.88 52.86 66.41 C 54.43 68.31 56.30 70.04 58.84 70.41 C 60.30 70.83 61.75 71.24 63.19 71.72 C 62.39 72.46 61.46 73.16 60.30 72.98 C 56.99 72.79 53.66 72.77 50.36 72.47 C 48.11 72.45 48.07 69.72 47.41 68.13 C 47.45 67.61 47.51 66.58 47.54 66.06 C 42.83 62.82 39.14 58.44 36.01 53.70 C 36.06 57.29 35.51 61.19 37.54 64.39 C 38.71 67.09 41.36 68.50 43.78 69.89 C 44.45 70.45 45.11 71.02 45.77 71.60 C 45.36 71.89 44.54 72.48 44.13 72.78 C 41.89 70.83 39.63 68.90 37.53 66.79 C 34.76 63.27 34.95 58.69 35.03 54.46 Z" />
</g>
<g id="#d4d0e8ff">
<path fill="#d4d0e8" opacity="1.00" d=" M 36.01 53.70 C 39.14 58.44 42.83 62.82 47.54 66.06 C 47.51 66.58 47.45 67.61 47.41 68.13 C 46.19 68.70 44.98 69.28 43.78 69.89 C 41.36 68.50 38.71 67.09 37.54 64.39 C 35.51 61.19 36.06 57.29 36.01 53.70 M 42.12 63.23 C 40.56 66.28 45.37 63.47 42.12 63.23 Z" />
<path fill="#d4d0e8" opacity="1.00" d=" M 63.56 58.71 C 65.74 57.15 67.92 55.59 70.03 53.94 C 71.04 57.54 71.85 61.65 70.11 65.15 C 67.61 68.79 63.02 70.08 58.84 70.41 C 56.30 70.04 54.43 68.31 52.86 66.41 C 56.45 63.88 60.03 61.32 63.56 58.71 M 59.17 63.35 C 58.33 64.62 58.54 65.39 59.83 65.65 C 60.67 64.38 60.46 63.62 59.17 63.35 Z" />
</g>
<g id="#191415ff">
<path fill="#191415" opacity="1.00" d=" M 42.12 63.23 C 45.37 63.47 40.56 66.28 42.12 63.23 Z" />
</g>
<g id="#1a1313ff">
<path fill="#1a1313" opacity="1.00" d=" M 59.17 63.35 C 60.46 63.62 60.67 64.38 59.83 65.65 C 58.54 65.39 58.33 64.62 59.17 63.35 Z" />
</g>
<g id="#776080ff">
<path fill="#776080" opacity="1.00" d=" M 69.90 70.93 C 74.23 69.78 77.38 66.63 80.00 63.15 C 80.00 63.86 80.00 65.27 80.00 65.98 C 81.33 65.32 82.67 64.66 84.00 63.98 C 84.69 65.08 85.05 66.33 85.08 67.62 C 82.32 69.06 80.80 71.79 79.10 74.26 C 78.31 73.62 77.52 72.98 76.74 72.33 C 73.76 72.54 71.38 74.13 69.28 76.15 C 69.52 77.01 69.75 77.87 69.98 78.74 C 68.84 79.67 66.62 80.00 66.92 81.90 C 67.51 82.96 68.29 83.90 69.01 84.88 C 67.01 85.10 65.05 85.50 63.09 85.96 C 60.89 84.73 58.35 84.17 56.53 82.31 C 55.28 81.24 53.86 82.45 53.55 83.76 C 51.05 83.96 48.56 84.28 46.13 84.93 C 45.50 83.40 45.11 81.76 45.61 80.12 C 44.32 79.21 43.37 77.68 41.85 77.20 C 39.52 77.38 37.20 77.18 34.89 76.86 C 34.82 75.17 35.21 73.72 37.15 73.48 C 36.50 71.82 34.25 70.31 35.23 68.39 C 35.81 67.99 36.96 67.19 37.53 66.79 C 39.63 68.90 41.89 70.83 44.13 72.78 L 44.70 73.22 C 48.12 76.25 52.73 78.18 57.34 77.51 C 62.43 77.44 66.54 74.45 69.90 70.93 Z" />
</g>
<g id="#24212eff">
<path fill="#24212e" opacity="1.00" d=" M 44.70 73.22 C 48.99 74.44 53.10 76.18 57.34 77.51 C 52.73 78.18 48.12 76.25 44.70 73.22 Z" />
</g>
</svg>
