<?xml version="1.0" encoding="UTF-8" ?>
<!DOCTYPE svg PUBLIC "-//W3C//DTD SVG 1.1//EN" "http://www.w3.org/Graphics/SVG/1.1/DTD/svg11.dtd">
<svg width="120pt" height="120pt" viewBox="0 0 120 120" version="1.1" xmlns="http://www.w3.org/2000/svg">
<g id="#2b3246fc">
<path fill="#2b3246" opacity="1.00" d=" M 82.90 22.97 C 86.44 21.56 89.67 19.49 93.21 18.05 C 92.05 22.31 90.20 26.87 87.00 29.98 C 87.80 28.06 88.55 26.12 89.39 24.21 C 89.99 22.99 90.56 21.76 91.08 20.50 C 83.23 23.51 75.89 27.75 68.08 30.82 C 67.63 30.12 67.14 29.44 66.63 28.78 C 65.26 28.65 63.88 28.73 62.51 28.63 C 62.23 27.51 61.95 26.38 61.69 25.26 C 60.83 25.44 59.99 25.65 59.15 25.90 C 60.16 24.35 61.41 22.95 62.91 21.86 C 63.00 23.97 62.92 26.09 62.99 28.21 C 65.08 27.68 67.09 26.87 69.12 26.14 C 68.77 27.19 68.42 28.25 68.07 29.30 C 73.32 27.95 77.86 24.86 82.90 22.97 Z" />
</g>
<g id="#14212fff">
<path fill="#14212f" opacity="1.00" d=" M 31.05 19.04 C 36.90 22.37 42.22 26.54 47.93 30.08 C 49.34 29.03 50.87 28.43 52.65 28.73 C 53.13 27.85 53.61 26.97 54.10 26.09 C 55.15 26.67 55.78 27.76 56.82 28.38 C 53.77 29.56 50.53 31.01 47.23 30.83 C 41.68 27.82 36.96 23.44 31.22 20.73 C 32.52 26.73 34.17 32.64 36.10 38.46 C 36.55 39.42 35.69 40.20 35.25 40.96 C 33.39 34.91 32.18 28.68 30.45 22.58 C 29.86 21.35 30.38 20.11 31.05 19.04 Z" />
</g>
<g id="#8f87b8ff">
<path fill="#8f87b8" opacity="1.00" d=" M 31.22 20.73 C 36.96 23.44 41.68 27.82 47.23 30.83 C 50.53 31.01 53.77 29.56 56.82 28.38 C 57.58 27.54 58.36 26.71 59.15 25.90 C 59.99 25.65 60.83 25.44 61.69 25.26 C 61.95 26.38 62.23 27.51 62.51 28.63 C 63.88 28.73 65.26 28.65 66.63 28.78 C 67.14 29.44 67.63 30.12 68.08 30.82 C 62.07 32.20 55.83 30.40 49.83 31.84 C 44.37 33.11 39.68 37.59 38.41 43.07 C 38.82 45.26 40.21 47.09 41.31 48.99 C 40.21 48.38 39.10 47.77 37.96 47.25 C 36.06 50.88 37.70 54.54 40.22 57.33 C 39.79 57.68 38.94 58.36 38.52 58.70 C 36.72 58.07 35.07 57.11 33.45 56.12 C 33.01 52.28 33.08 48.41 33.39 44.56 C 33.64 43.98 34.15 42.82 34.40 42.23 C 34.61 41.92 35.04 41.28 35.25 40.96 C 35.69 40.20 36.55 39.42 36.10 38.46 C 34.17 32.64 32.52 26.73 31.22 20.73 Z" />
</g>
<g id="#a69dd6ff">
<path fill="#a69dd6" opacity="1.00" d=" M 68.08 30.82 C 75.89 27.75 83.23 23.51 91.08 20.50 C 90.56 21.76 89.99 22.99 89.39 24.21 C 84.23 27.40 80.30 32.14 75.94 36.26 C 75.37 41.93 78.89 47.52 77.08 53.15 C 75.61 57.22 72.96 60.86 69.72 63.71 C 68.95 64.45 67.80 64.20 66.84 64.29 C 67.16 63.76 67.82 62.70 68.14 62.17 C 68.33 61.81 68.70 61.09 68.88 60.73 C 69.76 59.20 70.81 57.77 71.98 56.45 C 61.37 60.20 49.43 62.65 38.52 58.70 C 38.94 58.36 39.79 57.68 40.22 57.33 L 40.93 56.80 C 42.36 56.89 44.64 57.43 45.30 55.68 L 45.00 55.11 C 44.51 54.30 44.02 53.50 43.51 52.71 C 42.91 51.39 42.18 50.14 41.31 48.99 C 40.21 47.09 38.82 45.26 38.41 43.07 C 39.68 37.59 44.37 33.11 49.83 31.84 C 55.83 30.40 62.07 32.20 68.08 30.82 M 62.46 48.16 C 61.76 48.78 61.12 49.47 60.54 50.20 C 58.15 49.30 56.06 51.20 55.06 53.20 C 53.24 54.29 55.28 55.95 56.31 56.75 C 58.65 57.22 61.11 56.65 63.15 55.45 C 63.25 55.37 63.46 55.20 63.57 55.12 C 63.84 54.74 64.37 53.98 64.64 53.60 C 66.53 53.97 66.93 50.77 65.68 49.83 L 66.02 48.80 C 67.63 45.79 61.89 44.89 62.46 48.16 Z" />
</g>
<g id="#9189baff">
<path fill="#9189ba" opacity="1.00" d=" M 75.94 36.26 C 80.30 32.14 84.23 27.40 89.39 24.21 C 88.55 26.12 87.80 28.06 87.00 29.98 C 86.74 30.44 86.22 31.36 85.96 31.82 C 83.95 34.60 81.90 37.54 81.20 40.96 C 81.73 47.04 87.69 49.78 91.26 53.89 C 91.71 56.72 92.10 59.65 91.49 62.50 C 87.77 63.87 84.29 61.29 80.99 59.92 C 80.45 58.21 79.84 56.52 78.98 54.95 C 79.07 57.28 79.43 59.58 79.93 61.85 C 77.16 68.57 71.46 75.11 63.79 75.74 C 57.07 76.56 50.01 75.95 43.77 73.22 C 41.81 72.51 40.86 70.58 39.85 68.92 C 45.68 69.31 51.66 70.36 57.46 69.20 C 60.66 67.72 63.69 65.89 66.84 64.29 C 67.80 64.20 68.95 64.45 69.72 63.71 C 72.96 60.86 75.61 57.22 77.08 53.15 C 78.89 47.52 75.37 41.93 75.94 36.26 Z" />
</g>
<g id="#282939ff">
<path fill="#282939" opacity="1.00" d=" M 81.20 40.96 C 81.90 37.54 83.95 34.60 85.96 31.82 C 85.28 35.12 83.22 37.88 82.01 40.98 C 82.89 42.76 83.73 44.57 84.72 46.29 C 86.63 48.74 89.71 49.90 91.67 52.32 C 95.73 57.63 97.06 64.31 99.60 70.36 C 100.56 72.18 99.57 74.12 98.80 75.80 C 96.90 75.34 94.99 75.35 93.08 75.73 C 90.58 74.97 88.82 72.06 86.21 71.99 C 85.55 73.54 84.53 75.17 84.93 76.93 C 87.17 84.74 84.57 93.02 86.96 100.82 C 82.44 100.90 77.88 101.15 73.37 100.68 C 71.19 99.15 70.08 96.69 68.81 94.45 C 61.59 95.49 54.33 94.76 47.17 93.67 C 46.10 93.12 45.03 92.57 43.98 92.01 C 50.63 92.86 57.25 95.04 64.01 94.03 C 65.80 93.90 67.62 93.35 69.42 93.65 C 70.34 94.65 71.10 95.78 71.92 96.86 C 74.60 101.66 80.85 100.31 85.36 99.86 C 85.01 93.83 85.58 87.76 84.80 81.75 C 83.76 77.93 85.31 73.80 83.97 70.12 C 82.58 67.38 81.09 64.69 79.93 61.85 C 79.43 59.58 79.07 57.28 78.98 54.95 C 79.84 56.52 80.45 58.21 80.99 59.92 C 82.05 63.19 82.99 66.86 85.82 69.09 C 88.22 70.95 90.65 72.83 93.32 74.31 C 95.54 74.18 98.63 72.92 97.94 70.13 C 96.81 64.37 94.60 58.74 91.26 53.89 C 87.69 49.78 81.73 47.04 81.20 40.96 Z" />
</g>
<g id="#212736fc">
<path fill="#212736" opacity="1.00" d=" M 31.40 46.26 C 32.35 44.93 32.58 42.59 34.40 42.23 C 34.15 42.82 33.64 43.98 33.39 44.56 C 30.55 49.82 29.99 55.92 30.06 61.79 C 29.96 67.03 31.54 72.07 33.24 76.96 C 32.76 78.85 32.18 80.72 31.60 82.58 C 29.57 87.81 30.13 93.52 30.14 99.00 C 34.12 99.48 38.14 99.26 42.13 99.03 L 42.97 98.97 L 42.76 99.80 C 37.57 99.78 32.16 100.61 27.15 98.95 C 30.86 94.96 27.98 89.29 29.71 84.63 C 30.50 81.40 33.01 78.15 31.29 74.80 C 30.35 72.77 30.65 69.80 28.38 68.70 C 28.52 67.17 28.66 65.64 28.78 64.10 C 29.05 59.36 29.74 54.66 30.16 49.94 C 29.04 50.53 27.95 51.19 26.88 51.88 C 27.48 49.30 30.64 48.75 31.40 46.26 Z" />
</g>
<g id="#817aa6ff">
<path fill="#817aa6" opacity="1.00" d=" M 30.06 61.79 C 29.99 55.92 30.55 49.82 33.39 44.56 C 33.08 48.41 33.01 52.28 33.45 56.12 C 33.40 61.23 36.25 65.55 39.85 68.92 C 40.86 70.58 41.81 72.51 43.77 73.22 C 50.01 75.95 57.07 76.56 63.79 75.74 C 71.46 75.11 77.16 68.57 79.93 61.85 C 81.09 64.69 82.58 67.38 83.97 70.12 C 81.88 75.98 78.97 82.40 72.58 84.54 C 63.90 87.25 54.34 86.19 45.85 83.26 C 40.95 81.73 36.53 78.45 33.96 73.98 C 32.12 70.11 31.25 65.88 30.06 61.79 Z" />
<path fill="#817aa6" opacity="1.00" d=" M 30.14 99.00 C 30.13 93.52 29.57 87.81 31.60 82.58 C 34.79 88.05 39.80 92.12 43.16 97.46 C 42.84 98.00 42.50 98.52 42.13 99.03 C 38.14 99.26 34.12 99.48 30.14 99.00 Z" />
</g>
<g id="#ffbcabff">
<path fill="#ffbcab" opacity="1.00" d=" M 37.96 47.25 C 39.10 47.77 40.21 48.38 41.31 48.99 C 40.38 50.97 40.52 55.24 43.51 52.71 C 44.02 53.50 44.51 54.30 45.00 55.11 C 43.49 55.23 41.97 55.64 40.93 56.80 L 40.22 57.33 C 37.70 54.54 36.06 50.88 37.96 47.25 Z" />
</g>
<g id="#ffccbaff">
<path fill="#ffccba" opacity="1.00" d=" M 62.46 48.16 C 63.71 47.69 64.93 48.16 66.02 48.80 L 65.68 49.83 C 65.19 51.04 64.79 52.29 64.64 53.60 C 64.37 53.98 63.84 54.74 63.57 55.12 C 63.46 55.20 63.25 55.37 63.15 55.45 C 61.11 56.65 58.65 57.22 56.31 56.75 C 55.28 55.95 53.24 54.29 55.06 53.20 C 56.26 53.43 57.46 53.69 58.66 53.90 C 58.51 53.19 58.36 52.48 58.23 51.76 C 59.07 51.35 59.97 50.99 60.54 50.20 C 61.12 49.47 61.76 48.78 62.46 48.16 Z" />
</g>
<g id="#241f2bff">
<path fill="#241f2b" opacity="1.00" d=" M 41.31 48.99 C 42.18 50.14 42.91 51.39 43.51 52.71 C 40.52 55.24 40.38 50.97 41.31 48.99 Z" />
</g>
<g id="#8079a5ff">
<path fill="#8079a5" opacity="1.00" d=" M 26.88 51.88 C 27.95 51.19 29.04 50.53 30.16 49.94 C 29.74 54.66 29.05 59.36 28.78 64.10 C 27.26 64.23 25.74 64.45 24.22 64.32 C 23.17 63.61 22.27 62.71 21.34 61.85 C 21.54 61.16 21.95 59.77 22.15 59.07 C 22.45 58.58 23.04 57.58 23.33 57.09 C 24.35 56.49 24.92 55.45 25.20 54.34 C 25.56 53.39 26.12 52.57 26.88 51.88 Z" />
</g>
<g id="#54415aff">
<path fill="#54415a" opacity="1.00" d=" M 55.06 53.20 C 56.06 51.20 58.15 49.30 60.54 50.20 C 59.97 50.99 59.07 51.35 58.23 51.76 C 58.36 52.48 58.51 53.19 58.66 53.90 C 57.46 53.69 56.26 53.43 55.06 53.20 Z" />
</g>
<g id="#263144ff">
<path fill="#263144" opacity="1.00" d=" M 23.33 57.09 C 22.00 56.03 23.74 53.35 25.20 54.34 C 24.92 55.45 24.35 56.49 23.33 57.09 Z" />
</g>
<g id="#837ba8ff">
<path fill="#837ba8" opacity="1.00" d=" M 91.26 53.89 C 94.60 58.74 96.81 64.37 97.94 70.13 C 98.63 72.92 95.54 74.18 93.32 74.31 C 90.65 72.83 88.22 70.95 85.82 69.09 C 82.99 66.86 82.05 63.19 80.99 59.92 C 84.29 61.29 87.77 63.87 91.49 62.50 C 92.10 59.65 91.71 56.72 91.26 53.89 Z" />
</g>
<g id="#3a2c6aff">
<path fill="#3a2c6a" opacity="1.00" d=" M 63.15 55.45 C 63.25 55.37 63.46 55.20 63.57 55.12 C 63.46 55.20 63.25 55.37 63.15 55.45 Z" />
</g>
<g id="#ffffffff">
<path fill="#ffffff" opacity="1.00" d=" M 33.90 57.46 C 38.69 59.89 43.99 61.05 49.35 61.10 C 49.46 63.83 49.43 66.56 49.31 69.28 C 46.23 69.39 43.18 68.80 40.16 68.26 C 36.83 65.53 34.37 61.82 33.90 57.46 Z" />
<path fill="#ffffff" opacity="1.00" d=" M 64.88 59.02 C 66.43 58.56 68.00 58.19 69.59 57.91 C 69.42 58.62 69.06 60.03 68.88 60.73 C 68.70 61.09 68.33 61.81 68.14 62.17 C 67.82 62.70 67.16 63.76 66.84 64.29 C 63.69 65.89 60.66 67.72 57.46 69.20 C 56.13 66.61 56.62 63.56 56.70 60.77 C 58.74 60.25 60.86 60.02 62.96 60.14 C 63.21 61.06 63.43 61.99 63.63 62.93 C 63.67 61.61 62.75 59.15 64.88 59.02 Z" />
<path fill="#ffffff" opacity="1.00" d=" M 49.69 61.13 C 51.89 61.05 54.10 61.01 56.31 61.05 C 56.37 63.77 56.54 66.49 56.59 69.21 C 54.29 69.39 51.98 69.46 49.67 69.25 C 49.56 66.55 49.55 63.84 49.69 61.13 Z" />
</g>
<g id="#162230ff">
<path fill="#162230" opacity="1.00" d=" M 19.21 72.92 C 18.94 68.32 18.56 62.45 22.15 59.07 C 21.95 59.77 21.54 61.16 21.34 61.85 C 20.46 65.24 18.45 70.27 22.03 72.66 C 21.09 72.79 20.16 72.88 19.21 72.92 Z" />
</g>
<g id="#6b658fff">
<path fill="#6b658f" opacity="1.00" d=" M 22.03 72.66 C 18.45 70.27 20.46 65.24 21.34 61.85 C 22.27 62.71 23.17 63.61 24.22 64.32 C 25.74 64.45 27.26 64.23 28.78 64.10 C 28.66 65.64 28.52 67.17 28.38 68.70 L 27.76 69.60 L 26.76 69.70 C 25.68 69.54 24.83 69.91 24.19 70.78 C 23.65 71.25 22.57 72.19 22.03 72.66 Z" />
<path fill="#6b658f" opacity="1.00" d=" M 30.06 61.79 C 31.25 65.88 32.12 70.11 33.96 73.98 C 36.53 78.45 40.95 81.73 45.85 83.26 C 54.34 86.19 63.90 87.25 72.58 84.54 C 78.97 82.40 81.88 75.98 83.97 70.12 C 85.31 73.80 83.76 77.93 84.80 81.75 C 81.30 84.01 78.38 87.01 75.28 89.76 C 75.10 89.49 74.75 88.96 74.58 88.69 C 70.03 88.91 65.57 90.29 60.98 89.98 C 54.03 89.61 46.69 89.09 40.57 85.44 C 37.24 83.53 35.02 80.27 33.24 76.96 C 31.54 72.07 29.96 67.03 30.06 61.79 Z" />
</g>
<g id="#222030ff">
<path fill="#222030" opacity="1.00" d=" M 24.19 70.78 C 24.83 69.91 25.68 69.54 26.76 69.70 C 26.53 71.36 25.68 71.72 24.19 70.78 Z" />
</g>
<g id="#565078ff">
<path fill="#565078" opacity="1.00" d=" M 33.24 76.96 C 35.02 80.27 37.24 83.53 40.57 85.44 C 46.69 89.09 54.03 89.61 60.98 89.98 C 65.57 90.29 70.03 88.91 74.58 88.69 C 74.75 88.96 75.10 89.49 75.28 89.76 C 73.18 91.57 72.02 94.10 71.92 96.86 C 71.10 95.78 70.34 94.65 69.42 93.65 C 67.62 93.35 65.80 93.90 64.01 94.03 C 57.25 95.04 50.63 92.86 43.98 92.01 C 45.03 92.57 46.10 93.12 47.17 93.67 C 46.34 95.37 45.48 97.08 44.45 98.68 C 44.08 98.75 43.34 98.89 42.97 98.97 L 42.13 99.03 C 42.50 98.52 42.84 98.00 43.16 97.46 C 39.80 92.12 34.79 88.05 31.60 82.58 C 32.18 80.72 32.76 78.85 33.24 76.96 Z" />
</g>
<g id="#827aa7ff">
<path fill="#827aa7" opacity="1.00" d=" M 75.28 89.76 C 78.38 87.01 81.30 84.01 84.80 81.75 C 85.58 87.76 85.01 93.83 85.36 99.86 C 80.85 100.31 74.60 101.66 71.92 96.86 C 72.02 94.10 73.18 91.57 75.28 89.76 Z" />
</g>
</svg>
