<?xml version="1.0" encoding="UTF-8" ?>
<!DOCTYPE svg PUBLIC "-//W3C//DTD SVG 1.1//EN" "http://www.w3.org/Graphics/SVG/1.1/DTD/svg11.dtd">
<svg width="120pt" height="120pt" viewBox="0 0 120 120" version="1.1" xmlns="http://www.w3.org/2000/svg">
<g id="#383c3bf9">
<path fill="#383c3b" opacity="0.98" d=" M 28.85 49.17 C 30.75 46.33 33.92 43.79 37.51 44.00 C 39.45 46.82 44.12 47.57 44.19 51.52 C 42.68 52.87 41.22 54.27 39.75 55.66 C 42.97 56.35 45.37 58.42 46.28 61.63 C 48.04 61.34 49.81 61.08 51.59 60.95 C 52.39 60.19 53.18 59.44 53.98 58.68 C 53.99 57.95 54.01 56.50 54.01 55.78 L 54.75 56.48 C 57.01 58.59 59.31 60.68 61.09 63.23 C 59.32 61.72 57.67 60.07 55.81 58.66 C 54.16 58.71 54.14 60.43 53.70 61.62 C 54.25 61.95 55.35 62.61 55.89 62.94 C 55.49 65.52 54.23 68.27 55.04 70.84 C 55.99 70.77 57.91 70.61 58.86 70.54 C 58.93 71.10 59.07 72.23 59.14 72.80 C 62.03 73.93 65.06 74.74 68.19 74.79 L 69.48 75.92 C 64.91 76.90 60.90 74.30 56.50 73.77 C 55.67 72.31 54.02 71.59 53.08 70.24 C 53.47 68.83 53.90 67.43 54.35 66.03 C 52.78 66.53 51.19 66.94 49.60 67.34 C 42.59 70.27 36.94 63.67 32.70 59.06 C 32.13 59.03 30.98 58.97 30.41 58.93 C 28.92 57.92 27.45 56.87 26.01 55.77 C 26.05 54.68 26.11 52.50 26.14 51.42 C 26.36 51.59 26.80 51.95 27.02 52.13 C 26.71 55.44 30.17 56.29 32.42 57.67 C 35.66 59.17 37.69 62.20 40.18 64.63 C 44.03 67.24 48.64 67.06 52.94 65.83 C 53.02 65.08 53.18 63.60 53.25 62.86 L 53.43 61.57 C 51.40 61.82 49.36 61.92 47.36 62.32 C 46.70 63.30 46.12 64.34 45.62 65.41 C 45.48 65.67 45.20 66.20 45.06 66.46 C 44.95 64.95 44.81 63.45 44.66 61.95 C 44.43 59.46 42.12 58.16 40.31 56.83 C 39.65 57.97 38.97 59.10 38.29 60.23 C 38.62 57.54 39.45 54.96 40.50 52.47 C 37.87 53.85 35.50 55.68 32.78 56.88 C 31.52 55.25 30.12 53.69 28.26 52.73 C 28.13 52.52 27.85 52.10 27.71 51.89 L 28.13 51.16 C 30.57 51.94 32.24 54.29 34.73 54.83 C 34.29 52.44 32.35 50.69 30.80 48.94 C 30.31 49.00 29.34 49.12 28.85 49.17 M 33.72 45.06 C 35.30 46.86 36.81 49.15 39.45 49.34 C 38.84 47.77 37.95 46.33 36.95 44.98 C 36.14 45.00 34.52 45.04 33.72 45.06 M 30.75 47.08 C 32.57 48.99 34.41 50.93 35.67 53.28 C 39.13 51.57 35.21 48.67 33.81 46.93 C 33.04 46.97 31.51 47.04 30.75 47.08 M 40.43 47.79 C 40.12 49.31 39.19 50.18 37.64 50.39 C 37.87 52.40 40.54 52.78 42.06 52.08 C 44.31 50.64 41.36 49.04 40.43 47.79 M 57.28 72.23 C 57.80 72.75 57.80 72.75 57.28 72.23 Z" />
</g>
<g id="#c6c3b6ff">
<path fill="#c6c3b6" opacity="1.00" d=" M 33.72 45.06 C 34.52 45.04 36.14 45.00 36.95 44.98 C 37.95 46.33 38.84 47.77 39.45 49.34 C 36.81 49.15 35.30 46.86 33.72 45.06 Z" />
<path fill="#c6c3b6" opacity="1.00" d=" M 40.43 47.79 C 41.36 49.04 44.31 50.64 42.06 52.08 C 40.54 52.78 37.87 52.40 37.64 50.39 C 39.19 50.18 40.12 49.31 40.43 47.79 Z" />
</g>
<g id="#484844ff">
<path fill="#484844" opacity="1.00" d=" M 83.55 45.16 C 85.26 45.11 87.00 45.00 88.71 45.27 C 89.81 46.61 90.72 48.10 91.74 49.50 C 91.88 49.99 92.15 50.97 92.28 51.46 C 93.40 55.66 93.52 60.49 92.17 64.63 C 92.11 65.12 91.98 66.10 91.92 66.58 C 89.92 68.01 88.44 71.74 85.52 70.70 C 83.01 70.11 80.51 69.38 78.29 68.02 C 77.56 69.62 76.61 71.11 75.63 72.56 C 74.52 73.32 73.43 74.13 72.39 74.97 C 70.98 74.91 69.58 74.85 68.19 74.79 C 69.54 74.38 70.90 73.97 72.26 73.55 C 67.69 73.29 63.09 72.35 59.14 69.96 C 64.45 69.42 69.80 74.04 74.86 71.05 C 77.92 69.55 76.53 65.72 77.42 63.03 C 77.44 64.19 77.48 66.52 77.50 67.68 C 78.43 67.04 79.10 66.21 79.49 65.17 C 80.39 66.43 81.33 67.67 82.55 68.65 C 82.71 68.69 83.04 68.78 83.20 68.82 C 83.75 68.74 84.85 68.57 85.41 68.49 C 85.88 68.68 86.81 69.05 87.28 69.23 C 88.41 68.06 89.51 66.87 90.65 65.70 C 90.73 65.07 90.88 63.81 90.96 63.18 C 90.58 63.00 89.82 62.62 89.44 62.43 C 88.42 61.93 87.40 61.42 86.39 60.91 C 84.62 59.18 83.39 57.00 82.01 54.97 L 82.64 54.79 C 83.16 55.03 84.20 55.51 84.72 55.75 C 85.16 54.86 85.60 53.96 86.05 53.07 C 87.95 52.94 89.84 52.80 91.73 52.60 C 90.27 51.51 88.76 50.48 87.28 49.43 C 87.76 49.34 88.72 49.15 89.20 49.06 C 88.59 48.18 87.98 47.30 87.37 46.42 C 86.49 46.29 85.61 46.16 84.74 46.02 L 83.55 45.16 M 86.22 54.06 C 86.03 55.42 85.84 56.78 85.65 58.14 C 87.06 57.42 88.35 55.71 90.13 56.30 C 88.24 57.01 88.20 62.34 90.99 61.08 C 92.36 60.18 91.82 58.02 92.42 56.66 C 92.22 53.15 88.68 53.89 86.22 54.06 Z" />
</g>
<g id="#d1cfc1ff">
<path fill="#d1cfc1" opacity="1.00" d=" M 84.74 46.02 C 85.61 46.16 86.49 46.29 87.37 46.42 C 87.98 47.30 88.59 48.18 89.20 49.06 C 88.72 49.15 87.76 49.34 87.28 49.43 C 88.76 50.48 90.27 51.51 91.73 52.60 C 89.84 52.80 87.95 52.94 86.05 53.07 C 85.60 53.96 85.16 54.86 84.72 55.75 C 84.20 55.51 83.16 55.03 82.64 54.79 C 83.24 53.76 83.79 52.70 84.38 51.66 C 84.72 51.28 85.42 50.51 85.77 50.13 C 83.73 50.43 82.46 52.32 80.88 53.47 C 81.30 52.22 81.73 50.97 82.17 49.73 C 81.81 49.34 81.09 48.57 80.73 48.19 C 81.86 47.12 83.17 46.28 84.74 46.02 M 82.81 48.23 C 83.39 48.79 83.39 48.79 82.81 48.23 Z" />
<path fill="#d1cfc1" opacity="1.00" d=" M 65.56 66.73 C 65.64 66.80 65.81 66.92 65.90 66.98 L 65.56 66.73 Z" />
</g>
<g id="#c4c0b3ff">
<path fill="#c4c0b3" opacity="1.00" d=" M 30.75 47.08 C 31.51 47.04 33.04 46.97 33.81 46.93 C 35.21 48.67 39.13 51.57 35.67 53.28 C 34.41 50.93 32.57 48.99 30.75 47.08 Z" />
</g>
<g id="#454846ff">
<path fill="#454846" opacity="1.00" d=" M 77.57 49.66 C 78.61 49.14 79.66 48.65 80.73 48.19 C 81.09 48.57 81.81 49.34 82.17 49.73 C 81.73 50.97 81.30 52.22 80.88 53.47 C 82.46 52.32 83.73 50.43 85.77 50.13 C 85.42 50.51 84.72 51.28 84.38 51.66 C 83.79 52.70 83.24 53.76 82.64 54.79 L 82.01 54.97 C 80.19 53.83 78.02 53.93 75.97 53.79 C 76.07 52.96 76.28 51.29 76.39 50.46 L 76.96 51.23 C 77.53 52.14 78.64 53.61 79.84 52.70 C 81.02 51.54 79.60 49.88 78.26 49.87 L 77.57 49.66 Z" />
</g>
<g id="#4d4b46ff">
<path fill="#4d4b46" opacity="1.00" d=" M 82.81 48.23 C 83.39 48.79 83.39 48.79 82.81 48.23 Z" />
</g>
<g id="#bfbcb0ff">
<path fill="#bfbcb0" opacity="1.00" d=" M 28.85 49.17 C 29.34 49.12 30.31 49.00 30.80 48.94 C 32.35 50.69 34.29 52.44 34.73 54.83 C 32.24 54.29 30.57 51.94 28.13 51.16 L 28.03 50.48 C 28.23 50.15 28.65 49.50 28.85 49.17 Z" />
</g>
<g id="#32393bf7">
<path fill="#32393b" opacity="0.97" d=" M 55.65 55.19 C 57.37 53.27 59.64 51.96 61.49 50.18 C 62.59 51.54 63.78 50.76 64.87 50.03 C 66.78 50.05 68.78 49.87 70.55 50.73 C 71.05 50.85 72.04 51.11 72.54 51.23 C 73.06 51.50 74.10 52.03 74.62 52.30 C 75.87 54.47 77.26 56.58 78.89 58.49 C 78.95 59.59 79.01 60.69 79.06 61.79 C 81.07 62.22 83.24 63.63 85.08 61.95 C 85.06 62.82 85.03 64.56 85.01 65.43 C 85.11 66.19 85.31 67.73 85.41 68.49 C 84.85 68.57 83.75 68.74 83.20 68.82 C 83.04 68.78 82.71 68.69 82.55 68.65 C 82.83 68.40 83.39 67.92 83.67 67.68 C 84.03 66.60 84.29 65.49 84.44 64.35 C 82.44 63.86 80.45 63.32 78.45 62.80 C 77.97 59.11 75.54 56.24 73.63 53.20 C 71.44 52.40 69.29 51.32 66.95 51.08 C 64.25 51.06 61.73 52.21 59.22 53.07 C 60.57 55.28 61.34 57.76 61.75 60.30 C 60.73 58.49 59.81 56.62 58.93 54.74 C 58.11 54.85 56.47 55.08 55.65 55.19 Z" />
</g>
<g id="#bab7abff">
<path fill="#bab7ab" opacity="1.00" d=" M 78.26 49.87 C 79.60 49.88 81.02 51.54 79.84 52.70 C 78.64 53.61 77.53 52.14 76.96 51.23 C 77.28 50.89 77.93 50.21 78.26 49.87 Z" />
</g>
<g id="#cac7baff">
<path fill="#cac7ba" opacity="1.00" d=" M 59.22 53.07 C 61.73 52.21 64.25 51.06 66.95 51.08 C 69.29 51.32 71.44 52.40 73.63 53.20 C 75.54 56.24 77.97 59.11 78.45 62.80 C 80.45 63.32 82.44 63.86 84.44 64.35 C 84.29 65.49 84.03 66.60 83.67 67.68 C 83.39 67.92 82.83 68.40 82.55 68.65 C 81.33 67.67 80.39 66.43 79.49 65.17 C 79.10 66.21 78.43 67.04 77.50 67.68 C 77.48 66.52 77.44 64.19 77.42 63.03 C 76.53 65.72 77.92 69.55 74.86 71.05 C 69.80 74.04 64.45 69.42 59.14 69.96 C 63.09 72.35 67.69 73.29 72.26 73.55 C 70.90 73.97 69.54 74.38 68.19 74.79 C 65.06 74.74 62.03 73.93 59.14 72.80 C 59.07 72.23 58.93 71.10 58.86 70.54 C 57.91 70.61 55.99 70.77 55.04 70.84 C 54.23 68.27 55.49 65.52 55.89 62.94 C 55.35 62.61 54.25 61.95 53.70 61.62 C 54.14 60.43 54.16 58.71 55.81 58.66 C 57.67 60.07 59.32 61.72 61.09 63.23 C 59.31 60.68 57.01 58.59 54.75 56.48 C 54.98 56.16 55.42 55.51 55.65 55.19 C 56.47 55.08 58.11 54.85 58.93 54.74 C 59.81 56.62 60.73 58.49 61.75 60.30 C 61.34 57.76 60.57 55.28 59.22 53.07 M 68.34 53.77 C 66.58 55.66 65.00 57.71 63.70 59.95 L 64.84 60.03 C 65.61 58.71 66.28 57.32 67.30 56.17 C 68.61 55.55 70.11 56.13 71.50 56.10 C 72.70 57.23 73.95 58.30 75.26 59.30 C 74.83 55.69 71.40 54.45 68.34 53.77 M 68.29 59.15 C 66.09 60.46 63.92 61.96 62.64 64.25 C 65.32 62.64 67.96 60.97 70.72 59.49 C 71.30 59.94 72.46 60.84 73.04 61.29 C 73.04 60.72 73.04 59.59 73.04 59.02 C 71.45 59.07 69.87 59.12 68.29 59.15 M 73.30 62.11 C 71.71 62.39 72.15 64.90 73.79 63.98 C 75.39 63.70 74.94 61.16 73.30 62.11 M 56.97 64.39 L 55.86 65.04 C 55.99 65.61 56.25 66.75 56.38 67.32 C 56.45 67.40 56.58 67.57 56.65 67.65 C 57.50 67.75 59.20 67.95 60.05 68.05 C 60.10 67.50 60.22 66.40 60.28 65.84 C 62.10 65.47 63.76 66.61 65.56 66.73 L 65.90 66.98 L 65.58 68.38 C 66.26 68.31 66.93 68.26 67.61 68.24 L 69.26 68.20 C 69.38 68.20 69.63 68.19 69.75 68.19 L 70.98 68.15 C 71.01 67.24 71.07 65.44 71.10 64.53 C 66.52 65.27 61.20 66.66 56.97 64.39 Z" />
</g>
<g id="#bcbaaeff">
<path fill="#bcbaae" opacity="1.00" d=" M 27.02 52.13 L 27.71 51.89 C 27.85 52.10 28.13 52.52 28.26 52.73 C 30.12 53.69 31.52 55.25 32.78 56.88 C 35.50 55.68 37.87 53.85 40.50 52.47 C 39.45 54.96 38.62 57.54 38.29 60.23 C 38.97 59.10 39.65 57.97 40.31 56.83 C 42.12 58.16 44.43 59.46 44.66 61.95 C 43.86 63.82 42.09 64.51 40.18 64.63 C 37.69 62.20 35.66 59.17 32.42 57.67 C 30.17 56.29 26.71 55.44 27.02 52.13 Z" />
</g>
<g id="#6e6c65ff">
<path fill="#6e6c65" opacity="1.00" d=" M 68.34 53.77 C 71.40 54.45 74.83 55.69 75.26 59.30 C 73.95 58.30 72.70 57.23 71.50 56.10 C 70.11 56.13 68.61 55.55 67.30 56.17 C 66.28 57.32 65.61 58.71 64.84 60.03 L 63.70 59.95 C 65.00 57.71 66.58 55.66 68.34 53.77 Z" />
</g>
<g id="#c2bfb2ff">
<path fill="#c2bfb2" opacity="1.00" d=" M 86.22 54.06 C 88.68 53.89 92.22 53.15 92.42 56.66 C 91.85 56.57 90.70 56.39 90.13 56.30 C 88.35 55.71 87.06 57.42 85.65 58.14 C 85.84 56.78 86.03 55.42 86.22 54.06 Z" />
</g>
<g id="#8a837bff">
<path fill="#8a837b" opacity="1.00" d=" M 90.13 56.30 C 90.70 56.39 91.85 56.57 92.42 56.66 C 91.82 58.02 92.36 60.18 90.99 61.08 C 88.20 62.34 88.24 57.01 90.13 56.30 Z" />
</g>
<g id="#7f7b73ff">
<path fill="#7f7b73" opacity="1.00" d=" M 68.29 59.15 C 69.87 59.12 71.45 59.07 73.04 59.02 C 73.04 59.59 73.04 60.72 73.04 61.29 C 72.46 60.84 71.30 59.94 70.72 59.49 C 67.96 60.97 65.32 62.64 62.64 64.25 C 63.92 61.96 66.09 60.46 68.29 59.15 Z" />
</g>
<g id="#b8b5a9ff">
<path fill="#b8b5a9" opacity="1.00" d=" M 86.39 60.91 C 87.40 61.42 88.42 61.93 89.44 62.43 C 89.13 63.47 88.79 64.49 88.42 65.51 C 87.28 65.56 86.15 65.50 85.01 65.43 C 85.03 64.56 85.06 62.82 85.08 61.95 C 85.41 61.69 86.06 61.17 86.39 60.91 Z" />
</g>
<g id="#878278ff">
<path fill="#878278" opacity="1.00" d=" M 40.18 64.63 C 42.09 64.51 43.86 63.82 44.66 61.95 C 44.81 63.45 44.95 64.95 45.06 66.46 C 45.20 66.20 45.48 65.67 45.62 65.41 C 48.32 65.08 51.42 65.28 53.25 62.86 C 53.18 63.60 53.02 65.08 52.94 65.83 C 48.64 67.06 44.03 67.24 40.18 64.63 Z" />
</g>
<g id="#cdcbbeff">
<path fill="#cdcbbe" opacity="1.00" d=" M 47.36 62.32 C 49.36 61.92 51.40 61.82 53.43 61.57 L 53.25 62.86 C 51.42 65.28 48.32 65.08 45.62 65.41 C 46.12 64.34 46.70 63.30 47.36 62.32 Z" />
</g>
<g id="#9d968cff">
<path fill="#9d968c" opacity="1.00" d=" M 73.30 62.11 C 74.94 61.16 75.39 63.70 73.79 63.98 C 72.15 64.90 71.71 62.39 73.30 62.11 Z" />
</g>
<g id="#908a81ff">
<path fill="#908a81" opacity="1.00" d=" M 89.44 62.43 C 89.82 62.62 90.58 63.00 90.96 63.18 C 90.88 63.81 90.73 65.07 90.65 65.70 C 89.51 66.87 88.41 68.06 87.28 69.23 C 86.81 69.05 85.88 68.68 85.41 68.49 C 85.31 67.73 85.11 66.19 85.01 65.43 C 86.15 65.50 87.28 65.56 88.42 65.51 C 88.79 64.49 89.13 63.47 89.44 62.43 Z" />
</g>
<g id="#e6e6e7ff">
<path fill="#e6e6e7" opacity="1.00" d=" M 55.86 65.04 L 56.97 64.39 C 57.31 64.94 58.01 66.05 58.36 66.60 C 58.84 66.41 59.80 66.03 60.28 65.84 C 60.22 66.40 60.10 67.50 60.05 68.05 C 59.20 67.95 57.50 67.75 56.65 67.65 C 56.58 67.57 56.45 67.40 56.38 67.32 C 56.25 66.75 55.99 65.61 55.86 65.04 Z" />
</g>
<g id="#f9f9faff">
<path fill="#f9f9fa" opacity="1.00" d=" M 66.76 66.84 C 67.50 65.24 69.65 65.15 71.10 64.53 C 71.07 65.44 71.01 67.24 70.98 68.15 L 69.75 68.19 L 69.26 68.20 L 67.61 68.24 C 67.40 67.89 66.97 67.19 66.76 66.84 Z" />
</g>
<g id="#4f4d49ff">
<path fill="#4f4d49" opacity="1.00" d=" M 56.38 67.32 C 56.45 67.40 56.58 67.57 56.65 67.65 C 56.58 67.57 56.45 67.40 56.38 67.32 Z" />
</g>
<g id="#777774ff">
<path fill="#777774" opacity="1.00" d=" M 69.26 68.20 L 69.75 68.19 C 69.63 68.19 69.38 68.20 69.26 68.20 Z" />
</g>
<g id="#8c8880ff">
<path fill="#8c8880" opacity="1.00" d=" M 57.28 72.23 C 57.80 72.75 57.80 72.75 57.28 72.23 Z" />
</g>
</svg>
