<?xml version="1.0" encoding="UTF-8" ?>
<!DOCTYPE svg PUBLIC "-//W3C//DTD SVG 1.1//EN" "http://www.w3.org/Graphics/SVG/1.1/DTD/svg11.dtd">
<svg width="120pt" height="120pt" viewBox="0 0 120 120" version="1.1" xmlns="http://www.w3.org/2000/svg">
<g id="#362b2afc">
<path fill="#362b2a" opacity="1.00" d=" M 43.90 33.01 C 51.26 32.15 58.67 33.00 66.03 32.25 C 69.69 32.11 72.69 34.60 74.75 37.39 C 75.35 41.06 75.51 45.13 73.22 48.28 C 73.62 45.04 74.61 41.67 73.77 38.43 C 72.57 36.64 70.82 35.34 69.11 34.07 C 68.72 33.95 67.94 33.70 67.54 33.58 C 64.96 33.59 62.42 34.08 59.90 34.61 C 60.86 38.08 62.01 41.63 61.63 45.29 C 61.01 42.84 60.47 40.37 59.80 37.93 C 58.12 35.28 55.24 33.54 52.09 33.42 C 49.73 33.81 47.64 35.07 45.61 36.27 C 45.00 36.66 44.38 37.04 43.77 37.41 L 44.11 36.87 C 45.09 35.72 46.12 34.61 47.13 33.49 C 42.39 33.63 39.08 36.98 36.39 40.49 C 37.46 36.92 40.12 33.75 43.90 33.01 M 59.12 33.28 C 59.64 33.82 59.64 33.82 59.12 33.28 Z" />
</g>
<g id="#c9816aff">
<path fill="#c9816a" opacity="1.00" d=" M 52.09 33.42 C 55.24 33.54 58.12 35.28 59.80 37.93 C 58.39 39.51 57.11 41.31 55.26 42.43 C 53.08 43.45 50.75 42.15 48.67 41.48 C 50.81 39.90 48.53 36.97 46.68 39.12 C 46.41 38.41 45.88 36.98 45.61 36.27 C 47.64 35.07 49.73 33.81 52.09 33.42 M 52.46 35.07 C 51.53 36.27 53.64 37.57 54.43 36.37 C 55.37 35.16 53.25 33.89 52.46 35.07 M 52.13 40.25 C 50.62 43.26 55.45 40.35 52.13 40.25 Z" />
</g>
<g id="#bc7963ff">
<path fill="#bc7963" opacity="1.00" d=" M 59.12 33.28 C 59.64 33.82 59.64 33.82 59.12 33.28 Z" />
</g>
<g id="#bf7b65ff">
<path fill="#bf7b65" opacity="1.00" d=" M 59.90 34.61 C 62.42 34.08 64.96 33.59 67.54 33.58 C 67.60 35.20 68.12 35.37 69.11 34.07 C 70.82 35.34 72.57 36.64 73.77 38.43 C 74.61 41.67 73.62 45.04 73.22 48.28 L 73.08 49.19 L 72.11 49.20 C 68.53 49.32 64.96 48.95 61.41 48.48 C 61.48 47.42 61.56 46.35 61.63 45.29 C 62.01 41.63 60.86 38.08 59.90 34.61 Z" />
</g>
<g id="#432d22ff">
<path fill="#432d22" opacity="1.00" d=" M 87.37 33.85 C 88.11 33.50 88.85 33.15 89.59 32.81 C 92.39 38.41 94.91 47.45 88.38 51.41 C 89.37 49.28 90.64 47.22 91.07 44.88 C 91.37 42.10 90.53 39.37 89.91 36.68 C 89.12 40.56 88.66 44.85 85.87 47.92 C 83.52 50.68 79.85 51.62 76.47 52.43 C 79.13 50.68 82.30 49.79 84.79 47.79 C 88.31 44.05 88.79 38.61 87.37 33.85 Z" />
</g>
<g id="#b57460ff">
<path fill="#b57460" opacity="1.00" d=" M 36.39 40.49 C 39.08 36.98 42.39 33.63 47.13 33.49 C 46.12 34.61 45.09 35.72 44.11 36.87 C 43.09 35.93 42.14 35.94 41.25 36.89 C 40.81 38.56 43.08 38.23 43.77 37.41 C 44.38 37.04 45.00 36.66 45.61 36.27 C 45.88 36.98 46.41 38.41 46.68 39.12 C 46.94 40.29 47.60 41.08 48.67 41.48 C 50.75 42.15 53.08 43.45 55.26 42.43 C 57.11 41.31 58.39 39.51 59.80 37.93 C 60.47 40.37 61.01 42.84 61.63 45.29 C 58.51 48.84 53.71 52.21 48.82 50.11 C 44.04 48.39 43.18 42.93 41.95 38.68 C 41.63 43.31 42.92 47.80 45.34 51.73 C 42.89 49.95 39.91 48.50 38.54 45.64 C 37.71 43.97 37.08 42.22 36.39 40.49 Z" />
</g>
<g id="#feeae0ff">
<path fill="#feeae0" opacity="1.00" d=" M 67.54 33.58 C 67.94 33.70 68.72 33.95 69.11 34.07 C 68.12 35.37 67.60 35.20 67.54 33.58 Z" />
</g>
<g id="#f1ccbeff">
<path fill="#f1ccbe" opacity="1.00" d=" M 52.46 35.07 C 53.25 33.89 55.37 35.16 54.43 36.37 C 53.64 37.57 51.53 36.27 52.46 35.07 Z" />
</g>
<g id="#f4d8ccff">
<path fill="#f4d8cc" opacity="1.00" d=" M 41.25 36.89 C 42.14 35.94 43.09 35.93 44.11 36.87 L 43.77 37.41 C 43.08 38.23 40.81 38.56 41.25 36.89 Z" />
</g>
<g id="#f27c43ff">
<path fill="#f27c43" opacity="1.00" d=" M 89.91 36.68 C 90.53 39.37 91.37 42.10 91.07 44.88 C 90.64 47.22 89.37 49.28 88.38 51.41 C 84.47 52.22 80.46 53.50 76.47 52.43 C 79.85 51.62 83.52 50.68 85.87 47.92 C 88.66 44.85 89.12 40.56 89.91 36.68 Z" />
<path fill="#f27c43" opacity="1.00" d=" M 61.94 49.93 C 66.65 50.86 71.45 51.96 75.72 54.24 C 79.29 56.75 79.78 61.93 78.30 65.77 C 76.15 62.60 74.74 58.81 71.65 56.36 C 68.62 53.93 65.14 52.13 61.94 49.93 Z" />
</g>
<g id="#f6dbcfff">
<path fill="#f6dbcf" opacity="1.00" d=" M 46.68 39.12 C 48.53 36.97 50.81 39.90 48.67 41.48 C 47.60 41.08 46.94 40.29 46.68 39.12 Z" />
</g>
<g id="#3e2a23ff">
<path fill="#3e2a23" opacity="1.00" d=" M 45.34 51.73 C 42.92 47.80 41.63 43.31 41.95 38.68 C 43.18 42.93 44.04 48.39 48.82 50.11 C 53.71 52.21 58.51 48.84 61.63 45.29 C 61.56 46.35 61.48 47.42 61.41 48.48 C 64.96 48.95 68.53 49.32 72.11 49.20 C 71.35 49.74 70.56 50.26 69.75 50.75 C 71.99 51.33 74.21 51.96 76.47 52.43 C 80.46 53.50 84.47 52.22 88.38 51.41 C 85.63 53.63 82.13 54.27 78.83 55.23 C 80.40 59.65 80.44 64.48 78.20 68.69 C 76.71 66.34 75.45 63.86 74.03 61.47 C 73.98 63.28 73.97 65.09 73.97 66.90 C 77.18 68.70 81.83 70.27 82.10 74.59 C 79.53 71.60 76.32 69.29 72.79 67.56 C 72.98 64.86 73.41 62.10 72.82 59.43 C 69.56 55.41 64.69 52.67 59.75 51.29 C 54.18 51.24 48.64 52.42 43.04 52.22 C 40.92 56.04 39.09 60.04 37.98 64.29 C 38.18 60.47 39.28 56.79 40.72 53.26 C 39.45 52.69 38.19 52.13 36.92 51.57 C 37.93 51.31 38.95 51.08 39.98 50.86 C 37.56 47.63 35.38 43.91 36.08 39.70 L 36.39 40.49 C 37.08 42.22 37.71 43.97 38.54 45.64 C 39.91 48.50 42.89 49.95 45.34 51.73 M 59.27 49.10 C 59.40 52.42 62.27 47.57 59.27 49.10 M 61.94 49.93 C 65.14 52.13 68.62 53.93 71.65 56.36 C 74.74 58.81 76.15 62.60 78.30 65.77 C 79.78 61.93 79.29 56.75 75.72 54.24 C 71.45 51.96 66.65 50.86 61.94 49.93 M 41.12 51.28 C 41.64 51.80 41.64 51.80 41.12 51.28 Z" />
</g>
<g id="#fff2eaff">
<path fill="#fff2ea" opacity="1.00" d=" M 52.13 40.25 C 55.45 40.35 50.62 43.26 52.13 40.25 Z" />
</g>
<g id="#ba663fff">
<path fill="#ba663f" opacity="1.00" d=" M 59.27 49.10 C 62.27 47.57 59.40 52.42 59.27 49.10 Z" />
</g>
<g id="#b8643cff">
<path fill="#b8643c" opacity="1.00" d=" M 41.12 51.28 C 41.64 51.80 41.64 51.80 41.12 51.28 Z" />
</g>
<g id="#648baaff">
<path fill="#648baa" opacity="1.00" d=" M 43.04 52.22 C 48.64 52.42 54.18 51.24 59.75 51.29 C 64.69 52.67 69.56 55.41 72.82 59.43 C 73.41 62.10 72.98 64.86 72.79 67.56 C 76.32 69.29 79.53 71.60 82.10 74.59 C 81.54 75.10 80.42 76.11 79.86 76.62 C 76.24 74.91 72.95 72.57 69.88 70.01 C 70.23 71.12 70.58 72.22 70.95 73.32 C 65.70 75.50 60.34 78.42 54.43 77.49 C 48.12 77.25 43.18 73.01 38.53 69.23 C 38.24 67.60 38.08 65.94 37.98 64.29 C 39.09 60.04 40.92 56.04 43.04 52.22 M 53.67 56.01 C 51.76 56.22 49.77 56.24 47.96 56.96 C 47.13 54.68 42.52 58.61 45.32 59.41 L 44.83 59.88 C 43.47 60.44 42.22 61.22 40.96 61.95 C 40.97 63.37 40.97 64.79 40.96 66.22 C 44.20 65.96 47.40 65.38 50.65 65.32 C 51.99 67.00 52.39 69.17 53.19 71.12 C 53.72 71.01 54.77 70.80 55.30 70.70 C 55.91 68.08 57.75 66.27 60.35 65.63 L 60.65 66.80 C 62.81 66.09 65.25 65.61 66.80 63.80 C 68.47 61.96 68.64 59.35 69.29 57.06 C 64.90 56.26 60.44 55.91 55.98 55.85 C 55.02 54.98 54.25 55.04 53.67 56.01 M 41.29 59.09 C 41.43 62.40 44.31 57.57 41.29 59.09 Z" />
</g>
<g id="#1f2931fb">
<path fill="#1f2931" opacity="1.00" d=" M 30.95 54.92 C 32.09 52.69 34.81 52.40 36.92 51.57 C 33.51 53.42 30.57 56.12 29.47 59.96 C 30.56 59.03 31.63 58.07 32.69 57.10 C 31.60 60.91 32.15 64.85 34.66 67.99 C 35.76 66.75 36.87 65.52 37.98 64.29 C 38.08 65.94 38.24 67.60 38.53 69.23 C 39.49 71.99 40.63 75.04 43.34 76.52 C 46.27 78.16 49.20 79.82 51.55 82.26 C 46.13 83.76 40.02 81.66 35.05 84.79 C 40.57 86.11 46.23 85.18 51.80 84.89 C 51.68 83.30 51.54 81.72 51.39 80.13 C 55.12 80.13 58.86 80.21 62.59 80.51 C 64.42 79.66 66.27 78.85 68.10 78.01 C 66.57 79.08 64.96 80.05 63.42 81.11 C 65.74 82.25 68.79 82.64 70.28 84.97 C 69.32 86.10 68.50 87.69 66.94 88.05 C 64.48 87.53 62.17 86.52 59.81 85.68 C 60.22 84.10 60.68 82.54 61.13 80.97 C 58.42 80.97 55.72 80.99 53.01 80.99 C 53.00 82.64 53.01 84.28 53.01 85.93 C 47.41 85.51 41.94 87.83 36.36 86.80 C 35.51 86.06 34.38 85.36 34.12 84.19 C 34.82 83.47 35.58 82.82 36.40 82.24 C 40.82 81.69 45.32 82.30 49.75 81.74 C 47.93 79.73 45.07 79.45 42.81 78.15 C 40.55 76.49 38.73 74.19 37.74 71.55 C 37.33 70.30 37.01 69.03 36.67 67.76 C 34.07 68.54 31.44 69.26 28.87 70.15 C 30.16 69.25 31.44 68.34 32.82 67.59 C 32.13 66.15 31.46 64.70 30.83 63.24 C 29.83 63.58 28.81 63.87 27.78 64.12 C 28.53 60.97 28.89 57.56 30.95 54.92 M 60.39 84.00 C 62.88 85.73 65.84 86.43 68.87 86.25 C 67.42 82.70 63.42 82.56 60.39 84.00 Z" />
</g>
<g id="#bd653bff">
<path fill="#bd653b" opacity="1.00" d=" M 36.92 51.57 C 38.19 52.13 39.45 52.69 40.72 53.26 C 39.28 56.79 38.18 60.47 37.98 64.29 C 36.87 65.52 35.76 66.75 34.66 67.99 C 32.15 64.85 31.60 60.91 32.69 57.10 C 31.63 58.07 30.56 59.03 29.47 59.96 C 30.57 56.12 33.51 53.42 36.92 51.57 M 35.20 54.07 C 34.99 54.36 34.57 54.95 34.35 55.24 C 35.17 58.35 38.53 53.42 35.20 54.07 Z" />
</g>
<g id="#5b3421ff">
<path fill="#5b3421" opacity="1.00" d=" M 35.20 54.07 C 38.53 53.42 35.17 58.35 34.35 55.24 C 34.57 54.95 34.99 54.36 35.20 54.07 Z" />
</g>
<g id="#213757ff">
<path fill="#213757" opacity="1.00" d=" M 53.67 56.01 C 54.25 55.04 55.02 54.98 55.98 55.85 C 56.60 56.91 57.16 58.01 57.61 59.15 C 55.94 58.67 54.42 57.62 53.67 56.01 Z" />
</g>
<g id="#6c96b8ff">
<path fill="#6c96b8" opacity="1.00" d=" M 47.96 56.96 C 49.77 56.24 51.76 56.22 53.67 56.01 C 54.42 57.62 55.94 58.67 57.61 59.15 C 57.16 58.01 56.60 56.91 55.98 55.85 C 60.44 55.91 64.90 56.26 69.29 57.06 C 68.64 59.35 68.47 61.96 66.80 63.80 C 65.25 65.61 62.81 66.09 60.65 66.80 L 60.35 65.63 C 59.62 63.84 59.78 61.02 57.53 60.41 C 53.38 59.45 49.05 59.69 44.83 59.88 L 45.32 59.41 C 46.20 58.60 47.07 57.77 47.96 56.96 M 59.63 59.27 C 59.67 60.79 63.42 60.80 63.45 59.27 C 62.43 58.42 60.65 58.42 59.63 59.27 Z" />
</g>
<g id="#081432ff">
<path fill="#081432" opacity="1.00" d=" M 41.29 59.09 C 44.31 57.57 41.43 62.40 41.29 59.09 Z" />
</g>
<g id="#51364eff">
<path fill="#51364e" opacity="1.00" d=" M 44.83 59.88 C 49.05 59.69 53.38 59.45 57.53 60.41 C 59.78 61.02 59.62 63.84 60.35 65.63 C 57.75 66.27 55.91 68.08 55.30 70.70 C 54.77 70.80 53.72 71.01 53.19 71.12 C 52.39 69.17 51.99 67.00 50.65 65.32 C 47.40 65.38 44.20 65.96 40.96 66.22 C 40.97 64.79 40.97 63.37 40.96 61.95 C 42.22 61.22 43.47 60.44 44.83 59.88 M 47.66 62.28 C 47.64 63.85 51.36 63.85 51.33 62.28 C 50.39 61.40 48.61 61.40 47.66 62.28 M 54.19 62.54 C 53.97 65.17 53.50 67.83 54.07 70.45 C 55.20 68.42 56.31 66.37 57.20 64.22 C 56.23 63.59 55.23 63.03 54.19 62.54 M 58.03 63.28 C 56.53 66.30 61.35 63.39 58.03 63.28 Z" />
</g>
<g id="#0a1838ff">
<path fill="#0a1838" opacity="1.00" d=" M 59.63 59.27 C 60.65 58.42 62.43 58.42 63.45 59.27 C 63.42 60.80 59.67 60.79 59.63 59.27 Z" />
</g>
<g id="#ca888fff">
<path fill="#ca888f" opacity="1.00" d=" M 47.66 62.28 C 48.61 61.40 50.39 61.40 51.33 62.28 C 51.36 63.85 47.64 63.85 47.66 62.28 Z" />
</g>
<g id="#ece8eaff">
<path fill="#ece8ea" opacity="1.00" d=" M 54.19 62.54 C 55.23 63.03 56.23 63.59 57.20 64.22 C 56.31 66.37 55.20 68.42 54.07 70.45 C 53.50 67.83 53.97 65.17 54.19 62.54 Z" />
</g>
<g id="#877cc0ff">
<path fill="#877cc0" opacity="1.00" d=" M 58.03 63.28 C 61.35 63.39 56.53 66.30 58.03 63.28 Z" />
</g>
<g id="#6b94b4ff">
<path fill="#6b94b4" opacity="1.00" d=" M 28.87 70.15 C 31.44 69.26 34.07 68.54 36.67 67.76 C 37.01 69.03 37.33 70.30 37.74 71.55 C 36.77 72.51 35.82 73.49 34.90 74.50 C 31.90 74.70 28.74 74.54 27.19 71.52 C 27.61 71.18 28.45 70.50 28.87 70.15 Z" />
</g>
<g id="#5883a3ff">
<path fill="#5883a3" opacity="1.00" d=" M 38.53 69.23 C 43.18 73.01 48.12 77.25 54.43 77.49 C 60.34 78.42 65.70 75.50 70.95 73.32 C 71.29 73.48 71.96 73.82 72.29 73.99 C 71.98 74.47 71.37 75.45 71.06 75.94 C 70.59 76.16 69.65 76.60 69.18 76.82 C 68.91 77.12 68.37 77.71 68.10 78.01 C 66.27 78.85 64.42 79.66 62.59 80.51 C 58.86 80.21 55.12 80.13 51.39 80.13 C 51.54 81.72 51.68 83.30 51.80 84.89 C 46.23 85.18 40.57 86.11 35.05 84.79 C 40.02 81.66 46.13 83.76 51.55 82.26 C 49.20 79.82 46.27 78.16 43.34 76.52 C 40.63 75.04 39.49 71.99 38.53 69.23 Z" />
</g>
<g id="#1e2f3aff">
<path fill="#1e2f3a" opacity="1.00" d=" M 69.88 70.01 C 72.95 72.57 76.24 74.91 79.86 76.62 C 77.02 77.26 74.68 75.12 72.29 73.99 C 71.96 73.82 71.29 73.48 70.95 73.32 C 70.58 72.22 70.23 71.12 69.88 70.01 Z" />
</g>
<g id="#1a2c38ff">
<path fill="#1a2c38" opacity="1.00" d=" M 26.72 71.01 L 27.19 71.52 C 28.74 74.54 31.90 74.70 34.90 74.50 C 32.41 75.70 29.74 76.16 27.13 75.01 C 27.03 73.67 26.89 72.33 26.72 71.01 Z" />
</g>
<g id="#1c2e3bff">
<path fill="#1c2e3b" opacity="1.00" d=" M 69.18 76.82 C 69.65 76.60 70.59 76.16 71.06 75.94 L 70.91 76.83 C 70.48 76.83 69.61 76.83 69.18 76.82 Z" />
</g>
<g id="#517897ff">
<path fill="#517897" opacity="1.00" d=" M 60.39 84.00 C 63.42 82.56 67.42 82.70 68.87 86.25 C 65.84 86.43 62.88 85.73 60.39 84.00 Z" />
</g>
</svg>
