<?xml version="1.0" encoding="UTF-8" ?>
<!DOCTYPE svg PUBLIC "-//W3C//DTD SVG 1.1//EN" "http://www.w3.org/Graphics/SVG/1.1/DTD/svg11.dtd">
<svg width="132pt" height="120pt" viewBox="0 0 132 120" version="1.1" xmlns="http://www.w3.org/2000/svg">
<g id="#1e2434ff">
<path fill="#1e2434" opacity="1.00" d=" M 76.67 31.49 C 82.49 30.73 88.42 30.80 94.21 31.82 C 106.65 33.44 118.98 37.02 129.72 43.61 C 129.66 43.84 129.53 44.30 129.47 44.53 C 126.61 45.01 123.84 43.44 121.05 42.96 C 114.52 41.10 107.62 41.27 101.06 42.87 C 107.87 38.84 115.98 41.43 123.32 42.01 C 118.26 38.99 112.51 37.51 106.87 36.01 C 97.24 32.31 86.77 32.63 76.67 31.49 M 124.26 42.34 C 124.79 42.88 124.79 42.88 124.26 42.34 Z" />
</g>
<g id="#252525ff">
<path fill="#252525" opacity="1.00" d=" M 0.00 45.58 C 7.51 36.85 18.89 30.68 30.66 32.02 C 32.20 38.06 34.59 43.83 37.63 49.26 C 38.36 47.87 39.04 46.45 39.70 45.03 C 40.00 45.51 40.58 46.46 40.87 46.94 C 41.02 48.30 41.71 49.16 42.96 49.52 C 45.62 50.74 48.54 50.53 51.22 49.52 L 51.96 49.32 C 53.38 49.36 54.80 49.46 56.22 49.57 C 57.47 51.97 58.80 54.34 59.94 56.81 C 60.33 61.54 59.94 66.55 56.80 70.36 C 56.46 69.99 55.78 69.27 55.44 68.91 C 55.10 68.73 54.41 68.37 54.07 68.19 C 54.07 68.62 54.06 69.47 54.06 69.89 C 54.17 70.45 54.37 71.57 54.48 72.12 C 51.20 72.77 47.72 73.06 44.70 71.33 C 45.91 70.57 46.13 69.63 45.38 68.52 C 43.85 67.30 43.11 70.14 44.03 71.05 C 44.75 72.55 45.30 74.38 46.88 75.21 C 50.01 77.02 53.71 75.78 57.00 75.15 C 53.77 76.98 50.02 76.75 46.51 77.48 C 43.85 78.56 41.46 80.20 38.84 81.38 C 41.77 76.59 42.12 70.33 39.87 65.21 C 36.15 58.82 32.20 52.30 25.97 48.02 C 22.18 44.08 16.82 41.31 11.24 42.13 C 7.32 43.14 3.73 45.09 0.00 46.61 L 0.00 45.58 M 16.95 35.68 C 12.46 37.59 7.30 39.05 4.38 43.27 C 8.59 42.06 12.99 40.44 17.40 41.74 C 22.73 42.36 26.09 46.89 30.13 49.90 C 34.04 52.91 36.34 57.34 39.06 61.34 C 39.42 56.83 37.18 52.88 34.69 49.32 C 31.46 44.81 30.13 39.37 27.87 34.38 C 24.22 34.62 20.38 34.08 16.95 35.68 M 40.41 50.06 C 39.60 50.94 40.75 53.02 41.93 52.35 C 42.87 51.43 41.67 49.32 40.41 50.06 M 53.16 50.25 C 51.63 53.34 56.44 50.34 53.16 50.25 M 40.18 55.54 C 39.22 56.18 39.35 58.62 40.78 58.40 C 41.74 57.76 41.61 55.30 40.18 55.54 M 41.07 62.53 C 40.15 63.68 40.40 64.34 41.82 64.50 C 42.74 63.34 42.49 62.68 41.07 62.53 Z" />
</g>
<g id="#468fb5ff">
<path fill="#468fb5" opacity="1.00" d=" M 76.10 32.98 C 76.25 32.61 76.53 31.86 76.67 31.49 C 86.77 32.63 97.24 32.31 106.87 36.01 C 98.91 34.87 90.92 33.82 82.87 33.56 C 81.27 33.72 79.15 33.67 78.59 35.56 C 76.35 40.21 74.57 45.17 71.11 49.12 C 70.86 49.30 70.35 49.66 70.10 49.84 L 69.37 50.09 C 68.89 49.76 67.94 49.09 67.46 48.75 L 68.11 48.04 C 69.37 46.69 70.65 45.36 71.91 44.02 C 75.28 41.35 75.75 36.96 76.10 32.98 Z" />
</g>
<g id="#0e2937ff">
<path fill="#0e2937" opacity="1.00" d=" M 71.91 44.02 C 73.38 40.37 74.59 36.62 76.10 32.98 C 75.75 36.96 75.28 41.35 71.91 44.02 Z" />
</g>
<g id="#9b6293ff">
<path fill="#9b6293" opacity="1.00" d=" M 16.95 35.68 C 20.38 34.08 24.22 34.62 27.87 34.38 C 30.13 39.37 31.46 44.81 34.69 49.32 C 37.18 52.88 39.42 56.83 39.06 61.34 C 36.34 57.34 34.04 52.91 30.13 49.90 C 26.09 46.89 22.73 42.36 17.40 41.74 C 12.99 40.44 8.59 42.06 4.38 43.27 C 7.30 39.05 12.46 37.59 16.95 35.68 Z" />
</g>
<g id="#7f5271ff">
<path fill="#7f5271" opacity="1.00" d=" M 78.59 35.56 C 79.15 33.67 81.27 33.72 82.87 33.56 C 83.99 35.07 85.12 36.57 86.25 38.07 C 84.16 37.77 82.07 37.47 79.99 37.16 C 78.51 42.89 80.07 48.87 78.50 54.58 C 77.91 51.46 77.51 48.32 77.19 45.17 C 75.17 46.49 73.12 47.78 71.11 49.12 C 74.57 45.17 76.35 40.21 78.59 35.56 Z" />
</g>
<g id="#a3679cff">
<path fill="#a3679c" opacity="1.00" d=" M 82.87 33.56 C 90.92 33.82 98.91 34.87 106.87 36.01 C 112.51 37.51 118.26 38.99 123.32 42.01 C 115.98 41.43 107.87 38.84 101.06 42.87 C 100.45 43.64 99.85 44.41 99.26 45.19 C 96.76 47.17 93.97 48.73 91.18 50.24 C 90.90 50.38 90.34 50.67 90.06 50.81 C 88.36 50.63 86.56 51.26 85.86 52.93 C 85.34 53.69 84.80 54.45 84.25 55.19 C 83.69 55.38 82.56 55.76 82.00 55.94 C 81.11 57.06 80.20 58.17 79.31 59.29 C 77.11 60.37 74.68 60.21 72.35 59.76 C 69.34 59.08 66.40 60.27 63.53 61.02 C 63.74 56.37 67.02 52.96 70.10 49.84 C 70.35 49.66 70.86 49.30 71.11 49.12 C 73.12 47.78 75.17 46.49 77.19 45.17 C 77.51 48.32 77.91 51.46 78.50 54.58 C 80.07 48.87 78.51 42.89 79.99 37.16 C 82.07 37.47 84.16 37.77 86.25 38.07 C 85.12 36.57 83.99 35.07 82.87 33.56 Z" />
</g>
<g id="#143041fa">
<path fill="#143041" opacity="0.98" d=" M 42.11 40.03 C 46.08 40.99 50.45 41.75 54.10 39.38 C 56.73 42.96 58.96 46.80 61.23 50.62 C 63.50 49.71 65.80 48.85 68.11 48.04 L 67.46 48.75 C 65.33 50.05 63.08 51.15 60.84 52.26 C 58.79 49.27 57.41 45.71 54.69 43.24 C 51.73 41.98 48.42 41.94 45.25 41.85 C 42.87 41.55 41.40 43.77 39.70 45.03 C 40.49 43.35 41.29 41.69 42.11 40.03 M 53.22 41.25 C 53.76 41.79 53.76 41.79 53.22 41.25 Z" />
</g>
<g id="#50a1ccff">
<path fill="#50a1cc" opacity="1.00" d=" M 39.70 45.03 C 41.40 43.77 42.87 41.55 45.25 41.85 C 48.42 41.94 51.73 41.98 54.69 43.24 C 57.41 45.71 58.79 49.27 60.84 52.26 C 63.08 51.15 65.33 50.05 67.46 48.75 C 67.94 49.09 68.89 49.76 69.37 50.09 C 66.46 51.13 63.61 52.32 60.77 53.53 C 60.49 54.62 60.21 55.71 59.94 56.81 C 58.80 54.34 57.47 51.97 56.22 49.57 C 54.80 49.46 53.38 49.36 51.96 49.32 C 52.39 48.38 52.70 47.40 52.91 46.38 C 51.09 46.47 47.95 48.69 51.22 49.52 C 48.54 50.53 45.62 50.74 42.96 49.52 C 43.08 48.01 42.38 47.15 40.87 46.94 C 40.58 46.46 40.00 45.51 39.70 45.03 Z" />
</g>
<g id="#50a1cdff">
<path fill="#50a1cd" opacity="1.00" d=" M 53.22 41.25 C 53.76 41.79 53.76 41.79 53.22 41.25 Z" />
</g>
<g id="#a769a0ff">
<path fill="#a769a0" opacity="1.00" d=" M 124.26 42.34 C 124.79 42.88 124.79 42.88 124.26 42.34 Z" />
</g>
<g id="#232026ff">
<path fill="#232026" opacity="1.00" d=" M 132.00 46.11 C 129.50 47.28 130.06 43.56 132.00 44.31 L 132.00 46.11 Z" />
</g>
<g id="#51334eff">
<path fill="#51334e" opacity="1.00" d=" M 91.18 50.24 C 93.97 48.73 96.76 47.17 99.26 45.19 C 98.67 46.32 98.11 47.46 97.55 48.60 C 95.41 49.07 93.27 49.59 91.18 50.24 Z" />
</g>
<g id="#f6f6f7ff">
<path fill="#f6f6f7" opacity="1.00" d=" M 51.22 49.52 C 47.95 48.69 51.09 46.47 52.91 46.38 C 52.70 47.40 52.39 48.38 51.96 49.32 L 51.22 49.52 Z" />
</g>
<g id="#e3e5e7ff">
<path fill="#e3e5e7" opacity="1.00" d=" M 40.87 46.94 C 42.38 47.15 43.08 48.01 42.96 49.52 C 41.71 49.16 41.02 48.30 40.87 46.94 Z" />
</g>
<g id="#9b9b9dff">
<path fill="#9b9b9d" opacity="1.00" d=" M 40.41 50.06 C 41.67 49.32 42.87 51.43 41.93 52.35 C 40.75 53.02 39.60 50.94 40.41 50.06 Z" />
</g>
<g id="#dededeff">
<path fill="#dedede" opacity="1.00" d=" M 53.16 50.25 C 56.44 50.34 51.63 53.34 53.16 50.25 Z" />
</g>
<g id="#855676ff">
<path fill="#855676" opacity="1.00" d=" M 60.77 53.53 C 63.61 52.32 66.46 51.13 69.37 50.09 L 70.10 49.84 C 67.02 52.96 63.74 56.37 63.53 61.02 C 66.40 60.27 69.34 59.08 72.35 59.76 C 74.68 60.21 77.11 60.37 79.31 59.29 C 78.44 60.48 77.60 61.69 76.74 62.89 C 74.51 61.79 72.25 60.76 69.97 59.75 C 67.43 61.13 64.92 62.57 62.55 64.24 C 62.31 60.62 61.64 57.05 60.77 53.53 Z" />
</g>
<g id="#543551ff">
<path fill="#543551" opacity="1.00" d=" M 85.86 52.93 C 86.56 51.26 88.36 50.63 90.06 50.81 C 89.20 52.22 87.61 53.51 85.86 52.93 Z" />
</g>
<g id="#1f3d4dff">
<path fill="#1f3d4d" opacity="1.00" d=" M 59.94 56.81 C 60.21 55.71 60.49 54.62 60.77 53.53 C 61.64 57.05 62.31 60.62 62.55 64.24 C 62.09 66.14 61.46 68.01 60.85 69.87 C 64.24 73.45 67.88 76.90 70.45 81.15 C 65.51 81.36 62.21 77.27 58.85 74.29 C 60.39 68.64 62.39 62.52 59.94 56.81 Z" />
</g>
<g id="#4283a7ff">
<path fill="#4283a7" opacity="1.00" d=" M 40.18 55.54 C 41.61 55.30 41.74 57.76 40.78 58.40 C 39.35 58.62 39.22 56.18 40.18 55.54 Z" />
</g>
<g id="#40283dff">
<path fill="#40283d" opacity="1.00" d=" M 82.00 55.94 C 82.56 55.76 83.69 55.38 84.25 55.19 C 83.69 55.38 82.56 55.76 82.00 55.94 Z" />
</g>
<g id="#458bb0ff">
<path fill="#458bb0" opacity="1.00" d=" M 59.94 56.81 C 62.39 62.52 60.39 68.64 58.85 74.29 C 58.38 74.51 57.46 74.94 57.00 75.15 C 53.71 75.78 50.01 77.02 46.88 75.21 C 45.30 74.38 44.75 72.55 44.03 71.05 L 44.70 71.33 C 47.72 73.06 51.20 72.77 54.48 72.12 C 54.37 71.57 54.17 70.45 54.06 69.89 C 54.41 69.65 55.09 69.15 55.44 68.91 C 55.78 69.27 56.46 69.99 56.80 70.36 C 59.94 66.55 60.33 61.54 59.94 56.81 Z" />
</g>
<g id="#377698ff">
<path fill="#377698" opacity="1.00" d=" M 41.07 62.53 C 42.49 62.68 42.74 63.34 41.82 64.50 C 40.40 64.34 40.15 63.68 41.07 62.53 Z" />
</g>
<g id="#d9d9d9ff">
<path fill="#d9d9d9" opacity="1.00" d=" M 44.03 71.05 C 43.11 70.14 43.85 67.30 45.38 68.52 C 46.13 69.63 45.91 70.57 44.70 71.33 L 44.03 71.05 Z" />
</g>
<g id="#ffffffff">
<path fill="#ffffff" opacity="1.00" d=" M 54.07 68.19 C 54.41 68.37 55.10 68.73 55.44 68.91 C 55.09 69.15 54.41 69.65 54.06 69.89 C 54.06 69.47 54.07 68.62 54.07 68.19 Z" />
</g>
<g id="#84cdecff">
<path fill="#84cdec" opacity="1.00" d=" M 80.19 87.19 C 80.86 87.86 80.86 87.86 80.19 87.19 Z" />
</g>
</svg>
