<?xml version="1.0" encoding="UTF-8" ?>
<!DOCTYPE svg PUBLIC "-//W3C//DTD SVG 1.1//EN" "http://www.w3.org/Graphics/SVG/1.1/DTD/svg11.dtd">
<svg width="120pt" height="120pt" viewBox="0 0 120 120" version="1.1" xmlns="http://www.w3.org/2000/svg">
<g id="#d47959ff">
<path fill="#d47959" opacity="1.00" d=" M 55.88 40.17 C 58.77 39.53 61.62 38.09 64.64 38.55 C 68.21 39.26 72.02 39.75 74.98 42.06 C 78.69 45.38 82.45 48.94 84.32 53.67 C 82.29 53.77 80.25 53.83 78.22 53.94 C 82.26 59.13 88.63 62.63 90.72 69.18 C 91.81 71.69 91.89 74.44 91.99 77.12 C 88.56 74.86 85.22 72.46 81.81 70.18 C 79.93 70.30 78.10 70.92 76.21 70.80 C 73.70 69.40 72.16 66.75 69.85 65.04 C 68.04 64.50 66.11 64.90 64.26 64.90 C 66.45 66.92 69.45 68.48 70.74 71.24 C 70.81 75.23 70.63 80.60 66.30 82.35 C 68.56 77.85 66.65 72.64 63.30 69.25 C 62.96 70.52 62.61 71.79 62.27 73.06 C 62.33 72.57 62.44 71.60 62.50 71.11 C 61.57 69.11 59.92 67.62 58.26 66.22 C 59.66 65.48 61.05 64.73 62.44 63.96 C 60.37 61.69 58.22 59.45 55.63 57.76 C 53.28 56.14 50.43 55.72 47.64 56.02 C 47.38 57.38 47.12 58.74 46.87 60.10 C 45.30 59.95 43.73 59.79 42.16 59.68 C 40.95 59.66 39.75 59.74 38.54 59.82 C 40.66 57.71 41.02 54.71 41.14 51.86 C 39.08 52.17 37.02 52.53 35.00 53.04 C 37.85 50.74 41.65 51.66 44.99 50.93 C 48.85 50.60 52.53 49.25 56.44 49.32 C 56.11 47.66 56.04 45.97 56.42 44.31 C 57.40 47.65 60.21 49.79 62.36 52.34 C 62.62 52.67 63.16 53.32 63.43 53.65 C 64.60 49.47 67.28 45.99 71.06 43.86 C 71.75 47.37 72.19 50.93 72.30 54.51 C 73.08 54.23 73.87 53.97 74.67 53.71 C 77.49 53.07 80.39 53.06 83.26 52.96 C 81.42 50.48 79.61 47.95 77.44 45.74 C 75.34 43.65 72.86 42.00 70.19 40.74 C 66.72 39.80 62.93 38.22 59.55 40.30 C 60.17 40.68 61.40 41.44 62.02 41.82 C 61.27 42.18 60.51 42.54 59.75 42.89 C 59.28 41.05 57.39 40.79 55.88 40.17 M 52.13 50.16 C 53.15 52.96 56.78 52.59 59.17 53.12 C 57.20 51.44 54.99 49.22 52.13 50.16 M 46.45 51.21 C 45.28 51.48 44.43 54.09 46.32 53.56 C 48.58 53.41 49.39 49.71 46.45 51.21 M 46.64 55.11 C 50.73 52.81 54.59 55.56 58.29 57.23 C 57.88 53.04 52.30 54.51 50.53 51.08 C 49.23 52.42 47.93 53.75 46.64 55.11 M 42.05 52.52 C 42.02 54.25 41.92 56.00 42.14 57.73 C 43.04 59.12 44.78 58.90 46.20 59.16 C 45.33 56.68 44.66 53.76 42.05 52.52 M 71.66 56.59 C 74.46 57.35 77.34 57.71 80.24 57.90 C 79.42 56.96 78.61 56.01 77.70 55.16 C 75.54 54.47 73.55 55.77 71.66 56.59 M 69.69 62.61 C 71.81 65.36 73.96 68.41 77.08 70.07 C 78.68 69.89 80.23 69.42 81.82 69.21 C 84.61 70.18 86.57 72.65 89.14 74.05 C 90.58 74.41 91.53 72.71 90.56 71.59 C 89.46 68.64 88.20 65.40 85.52 63.54 C 83.00 61.84 80.07 63.76 77.34 63.29 C 74.81 62.89 72.27 62.42 69.69 62.61 M 65.24 67.96 C 66.69 71.76 68.04 75.62 68.47 79.69 C 69.21 77.22 70.28 74.74 70.14 72.11 C 69.15 70.15 66.94 69.21 65.24 67.96 Z" />
<path fill="#d47959" opacity="1.00" d=" M 31.30 55.23 C 31.67 53.63 32.54 53.36 33.89 54.42 C 33.26 55.28 32.40 55.55 31.30 55.23 Z" />
<path fill="#d47959" opacity="1.00" d=" M 27.38 60.79 C 28.28 59.20 29.15 57.60 29.97 55.97 C 29.54 57.59 29.05 59.21 28.98 60.89 C 29.61 62.22 30.67 63.26 31.57 64.40 C 33.81 63.04 36.06 61.70 38.36 60.46 C 37.96 62.95 37.47 65.42 36.98 67.90 C 36.48 67.75 35.49 67.46 34.99 67.32 C 35.05 68.92 35.08 70.52 35.12 72.11 C 36.75 71.37 38.31 70.36 40.10 69.99 C 42.52 69.40 43.31 72.43 44.63 73.84 C 41.97 74.00 39.30 74.08 36.64 74.22 C 36.93 74.49 37.50 75.02 37.79 75.29 C 40.58 78.16 44.08 80.55 48.10 81.19 C 51.51 81.27 54.77 80.03 58.03 79.16 C 51.87 83.57 43.20 82.21 38.00 77.02 C 36.44 75.11 35.11 73.00 33.17 71.44 C 33.00 69.53 32.83 67.63 32.63 65.72 C 29.77 68.91 28.37 73.00 28.87 77.29 C 30.31 75.34 31.72 73.38 33.17 71.44 C 32.70 73.21 33.35 75.82 30.97 76.29 C 30.90 76.98 30.77 78.35 30.70 79.04 C 29.63 78.79 28.55 78.54 27.48 78.29 C 26.79 73.57 29.22 69.34 31.23 65.28 C 29.84 63.87 28.57 62.36 27.38 60.79 M 38.33 72.25 C 37.95 74.94 41.20 72.14 38.88 71.65 L 38.33 72.25 Z" />
<path fill="#d47959" opacity="1.00" d=" M 47.97 63.98 C 49.19 62.58 51.16 63.03 52.79 62.78 C 53.52 64.06 56.01 65.42 54.35 66.98 C 52.99 68.51 52.09 70.33 51.24 72.18 C 50.34 71.58 49.44 70.98 48.53 70.39 C 48.33 70.26 47.92 70.00 47.72 69.88 L 47.07 69.48 C 47.19 67.65 46.24 65.29 47.97 63.98 Z" />
</g>
<g id="#f3f3f3ff">
<path fill="#f3f3f3" opacity="1.00" d=" M 59.55 40.30 C 62.93 38.22 66.72 39.80 70.19 40.74 C 68.20 42.08 65.96 43.16 64.31 44.94 C 63.30 47.29 63.00 49.88 62.36 52.34 C 60.21 49.79 57.40 47.65 56.42 44.31 C 57.26 43.95 58.92 43.24 59.75 42.89 C 60.51 42.54 61.27 42.18 62.02 41.82 C 61.40 41.44 60.17 40.68 59.55 40.30 Z" />
<path fill="#f3f3f3" opacity="1.00" d=" M 77.44 45.74 C 79.61 47.95 81.42 50.48 83.26 52.96 C 80.39 53.06 77.49 53.07 74.67 53.71 C 75.57 51.05 76.51 48.39 77.44 45.74 Z" />
<path fill="#f3f3f3" opacity="1.00" d=" M 52.13 50.16 C 54.99 49.22 57.20 51.44 59.17 53.12 C 56.78 52.59 53.15 52.96 52.13 50.16 Z" />
<path fill="#f3f3f3" opacity="1.00" d=" M 46.45 51.21 C 49.39 49.71 48.58 53.41 46.32 53.56 C 44.43 54.09 45.28 51.48 46.45 51.21 Z" />
<path fill="#f3f3f3" opacity="1.00" d=" M 46.64 55.11 C 47.93 53.75 49.23 52.42 50.53 51.08 C 52.30 54.51 57.88 53.04 58.29 57.23 C 54.59 55.56 50.73 52.81 46.64 55.11 Z" />
<path fill="#f3f3f3" opacity="1.00" d=" M 35.00 53.04 C 37.02 52.53 39.08 52.17 41.14 51.86 C 41.02 54.71 40.66 57.71 38.54 59.82 C 39.75 59.74 40.95 59.66 42.16 59.68 C 41.73 61.26 41.31 62.84 40.92 64.43 C 44.54 64.15 46.96 61.61 48.59 58.58 C 50.94 58.34 53.29 58.09 55.63 57.76 C 58.22 59.45 60.37 61.69 62.44 63.96 C 61.05 64.73 59.66 65.48 58.26 66.22 C 59.92 67.62 61.57 69.11 62.50 71.11 C 55.01 75.28 46.25 77.01 37.79 75.29 C 37.50 75.02 36.93 74.49 36.64 74.22 C 39.30 74.08 41.97 74.00 44.63 73.84 C 43.31 72.43 42.52 69.40 40.10 69.99 C 38.31 70.36 36.75 71.37 35.12 72.11 C 35.08 70.52 35.05 68.92 34.99 67.32 C 35.49 67.46 36.48 67.75 36.98 67.90 C 37.47 65.42 37.96 62.95 38.36 60.46 C 36.06 61.70 33.81 63.04 31.57 64.40 C 30.67 63.26 29.61 62.22 28.98 60.89 C 29.05 59.21 29.54 57.59 29.97 55.97 C 30.30 55.79 30.97 55.42 31.30 55.23 C 32.40 55.55 33.26 55.28 33.89 54.42 C 34.17 54.08 34.73 53.39 35.00 53.04 M 47.97 63.98 C 46.24 65.29 47.19 67.65 47.07 69.48 L 47.72 69.88 C 48.83 70.74 49.90 71.66 51.06 72.48 C 52.19 71.83 53.31 71.15 54.47 70.54 C 54.43 69.35 54.38 68.17 54.35 66.98 C 56.01 65.42 53.52 64.06 52.79 62.78 C 51.16 63.03 49.19 62.58 47.97 63.98 Z" />
<path fill="#f3f3f3" opacity="1.00" d=" M 71.66 56.59 C 73.55 55.77 75.54 54.47 77.70 55.16 C 78.61 56.01 79.42 56.96 80.24 57.90 C 77.34 57.71 74.46 57.35 71.66 56.59 Z" />
<path fill="#f3f3f3" opacity="1.00" d=" M 69.69 62.61 C 72.27 62.42 74.81 62.89 77.34 63.29 C 80.07 63.76 83.00 61.84 85.52 63.54 C 88.20 65.40 89.46 68.64 90.56 71.59 C 91.53 72.71 90.58 74.41 89.14 74.05 C 86.57 72.65 84.61 70.18 81.82 69.21 C 80.23 69.42 78.68 69.89 77.08 70.07 C 73.96 68.41 71.81 65.36 69.69 62.61 Z" />
<path fill="#f3f3f3" opacity="1.00" d=" M 65.24 67.96 C 66.94 69.21 69.15 70.15 70.14 72.11 C 70.28 74.74 69.21 77.22 68.47 79.69 C 68.04 75.62 66.69 71.76 65.24 67.96 Z" />
<path fill="#f3f3f3" opacity="1.00" d=" M 53.25 69.26 C 53.61 69.62 53.61 69.62 53.25 69.26 Z" />
</g>
<g id="#d3c6bfff">
<path fill="#d3c6bf" opacity="1.00" d=" M 64.31 44.94 C 65.96 43.16 68.20 42.08 70.19 40.74 C 72.86 42.00 75.34 43.65 77.44 45.74 C 76.51 48.39 75.57 51.05 74.67 53.71 C 73.87 53.97 73.08 54.23 72.30 54.51 C 72.19 50.93 71.75 47.37 71.06 43.86 C 67.28 45.99 64.60 49.47 63.43 53.65 C 63.16 53.32 62.62 52.67 62.36 52.34 C 63.00 49.88 63.30 47.29 64.31 44.94 Z" />
<path fill="#d3c6bf" opacity="1.00" d=" M 42.05 52.52 C 44.66 53.76 45.33 56.68 46.20 59.16 C 44.78 58.90 43.04 59.12 42.14 57.73 C 41.92 56.00 42.02 54.25 42.05 52.52 Z" />
<path fill="#d3c6bf" opacity="1.00" d=" M 47.64 56.02 C 50.43 55.72 53.28 56.14 55.63 57.76 C 53.29 58.09 50.94 58.34 48.59 58.58 C 46.96 61.61 44.54 64.15 40.92 64.43 C 41.31 62.84 41.73 61.26 42.16 59.68 C 43.73 59.79 45.30 59.95 46.87 60.10 C 47.12 58.74 47.38 57.38 47.64 56.02 Z" />
<path fill="#d3c6bf" opacity="1.00" d=" M 28.87 77.29 C 28.37 73.00 29.77 68.91 32.63 65.72 C 32.83 67.63 33.00 69.53 33.17 71.44 C 31.72 73.38 30.31 75.34 28.87 77.29 Z" />
<path fill="#d3c6bf" opacity="1.00" d=" M 37.79 75.29 C 46.25 77.01 55.01 75.28 62.50 71.11 C 62.44 71.60 62.33 72.57 62.27 73.06 C 61.30 75.36 60.01 77.59 58.03 79.16 C 54.77 80.03 51.51 81.27 48.10 81.19 C 44.08 80.55 40.58 78.16 37.79 75.29 Z" />
</g>
</svg>
