<?xml version="1.0" encoding="UTF-8" ?>
<!DOCTYPE svg PUBLIC "-//W3C//DTD SVG 1.1//EN" "http://www.w3.org/Graphics/SVG/1.1/DTD/svg11.dtd">
<svg width="120pt" height="120pt" viewBox="0 0 120 120" version="1.1" xmlns="http://www.w3.org/2000/svg">
<g id="#273033fb">
<path fill="#273033" opacity="1.00" d=" M 57.58 19.60 C 63.15 19.02 68.82 17.09 74.41 18.60 C 77.65 19.49 81.26 19.80 83.85 22.15 C 90.30 26.55 96.69 31.24 101.52 37.44 C 102.23 39.01 102.72 40.67 103.23 42.32 C 103.85 42.29 105.07 42.22 105.69 42.19 C 106.01 46.44 108.13 50.27 108.44 54.53 C 109.20 56.95 107.10 58.87 106.22 60.94 C 106.14 59.75 106.04 58.56 105.93 57.37 C 105.43 57.08 104.44 56.50 103.94 56.20 C 105.12 55.99 106.31 55.84 107.49 55.67 C 107.26 52.23 106.84 48.29 103.73 46.18 C 102.58 46.37 101.47 46.74 100.38 47.12 C 102.00 43.76 102.16 39.54 99.16 36.87 C 91.25 28.16 81.41 19.50 69.04 19.00 C 61.50 19.67 54.00 21.27 46.92 23.98 C 50.03 21.62 53.67 19.98 57.58 19.60 M 104.36 43.30 C 102.93 43.36 102.77 45.71 104.29 45.76 C 105.67 45.79 105.80 43.29 104.36 43.30 Z" />
</g>
<g id="#7a7772ff">
<path fill="#7a7772" opacity="1.00" d=" M 46.92 23.98 C 54.00 21.27 61.50 19.67 69.04 19.00 C 81.41 19.50 91.25 28.16 99.16 36.87 C 96.83 35.30 94.33 34.00 91.82 32.75 C 91.12 37.98 93.25 42.83 95.25 47.51 C 93.70 47.66 92.15 47.83 90.60 48.01 C 90.11 46.91 89.65 45.79 89.18 44.68 C 86.78 44.76 84.37 44.87 81.98 45.14 C 78.64 45.80 74.25 46.25 73.02 50.06 C 69.95 55.50 71.56 61.72 72.91 67.38 C 67.16 64.28 67.80 55.83 61.34 53.43 C 62.50 50.27 63.63 47.09 64.77 43.93 C 62.30 40.61 59.36 37.70 56.07 35.20 C 52.18 37.98 45.92 40.19 46.70 46.09 C 46.28 44.23 45.86 42.38 45.40 40.54 C 42.10 45.33 49.41 50.68 45.36 55.34 C 45.04 55.57 44.41 56.04 44.09 56.27 C 43.22 53.39 42.41 50.48 41.64 47.57 C 40.69 47.84 39.74 48.11 38.78 48.35 C 37.79 48.58 36.79 48.78 35.79 48.97 C 34.62 51.14 33.42 53.29 32.11 55.38 C 32.56 48.28 35.58 41.74 36.95 34.83 C 37.24 34.60 37.82 34.13 38.11 33.89 C 38.37 33.45 38.91 32.57 39.17 32.12 C 39.65 30.95 40.67 30.12 41.44 29.14 L 42.22 29.29 C 43.08 29.49 43.96 29.57 44.84 29.54 C 45.05 28.55 45.21 27.55 45.31 26.55 C 45.29 25.34 45.83 24.48 46.92 23.98 M 66.22 20.97 C 64.82 23.55 63.11 26.04 62.34 28.92 C 64.82 33.50 69.06 37.62 74.35 38.59 L 74.82 37.87 C 78.84 38.09 82.81 37.31 86.54 35.83 C 86.25 32.79 86.65 29.12 84.09 26.91 C 80.33 23.76 75.66 21.37 70.69 21.15 C 69.20 21.00 67.71 21.00 66.22 20.97 M 46.41 27.51 C 45.10 30.08 45.11 33.06 44.78 35.86 C 47.90 33.98 51.10 32.18 53.86 29.79 C 56.33 27.69 57.53 24.59 58.79 21.70 C 54.24 22.35 49.53 23.99 46.41 27.51 M 65.51 40.16 C 66.44 41.36 67.31 42.62 68.40 43.68 C 71.01 44.72 73.94 44.13 76.54 43.35 C 72.70 42.91 68.91 42.07 65.51 40.16 Z" />
</g>
<g id="#a7aba1ff">
<path fill="#a7aba1" opacity="1.00" d=" M 66.22 20.97 C 67.71 21.00 69.20 21.00 70.69 21.15 C 74.21 23.89 79.29 26.06 80.52 30.68 C 78.63 33.08 76.40 35.23 74.82 37.87 L 74.35 38.59 C 69.06 37.62 64.82 33.50 62.34 28.92 C 63.11 26.04 64.82 23.55 66.22 20.97 Z" />
</g>
<g id="#959890ff">
<path fill="#959890" opacity="1.00" d=" M 70.69 21.15 C 75.66 21.37 80.33 23.76 84.09 26.91 C 86.65 29.12 86.25 32.79 86.54 35.83 C 82.81 37.31 78.84 38.09 74.82 37.87 C 76.40 35.23 78.63 33.08 80.52 30.68 C 79.29 26.06 74.21 23.89 70.69 21.15 Z" />
</g>
<g id="#9b9f96ff">
<path fill="#9b9f96" opacity="1.00" d=" M 46.41 27.51 C 49.53 23.99 54.24 22.35 58.79 21.70 C 57.53 24.59 56.33 27.69 53.86 29.79 C 51.10 32.18 47.90 33.98 44.78 35.86 C 45.11 33.06 45.10 30.08 46.41 27.51 Z" />
</g>
<g id="#0b1d24ff">
<path fill="#0b1d24" opacity="1.00" d=" M 42.22 29.29 C 41.99 27.97 44.02 25.88 45.31 26.55 C 45.21 27.55 45.05 28.55 44.84 29.54 C 43.96 29.57 43.08 29.49 42.22 29.29 Z" />
</g>
<g id="#051a23ff">
<path fill="#051a23" opacity="1.00" d=" M 38.27 32.14 L 39.17 32.12 C 38.91 32.57 38.37 33.45 38.11 33.89 L 37.72 33.05 L 38.27 32.14 Z" />
</g>
<g id="#979a92ff">
<path fill="#979a92" opacity="1.00" d=" M 91.82 32.75 C 94.33 34.00 96.83 35.30 99.16 36.87 C 102.16 39.54 102.00 43.76 100.38 47.12 C 98.66 47.21 96.96 47.35 95.25 47.51 C 93.25 42.83 91.12 37.98 91.82 32.75 Z" />
</g>
<g id="#303435fe">
<path fill="#303435" opacity="1.00" d=" M 30.81 54.01 C 32.65 47.57 33.37 40.61 36.95 34.83 C 35.58 41.74 32.56 48.28 32.11 55.38 C 33.42 53.29 34.62 51.14 35.79 48.97 C 36.79 48.78 37.79 48.58 38.78 48.35 C 37.09 51.83 35.03 55.14 33.78 58.82 C 32.71 61.75 34.12 64.76 35.30 67.42 C 35.00 68.06 34.40 69.35 34.10 69.99 C 38.00 74.72 42.60 78.89 47.80 82.14 C 52.51 85.02 58.10 85.92 63.51 86.45 C 65.67 86.84 67.60 85.69 69.44 84.75 C 70.51 84.99 71.58 85.17 72.67 85.32 C 76.19 86.02 79.66 84.95 82.85 83.52 C 82.94 83.85 83.10 84.52 83.18 84.85 C 83.72 87.02 84.39 89.16 84.96 91.33 C 84.77 93.19 84.41 95.02 83.97 96.84 C 83.61 98.01 83.26 99.19 82.90 100.37 C 83.58 100.23 84.95 99.94 85.63 99.80 L 85.94 101.06 C 84.57 100.99 83.20 100.92 81.83 100.85 C 82.49 97.92 83.51 95.07 83.89 92.09 C 83.37 89.97 82.53 87.94 81.80 85.88 C 77.69 87.07 73.40 86.79 69.19 87.28 C 62.66 88.93 56.22 85.76 49.65 85.95 C 51.33 89.35 53.37 92.55 55.32 95.80 C 48.48 97.32 41.59 99.59 34.50 98.88 C 29.91 99.08 25.43 97.83 20.84 97.90 C 21.18 97.46 21.85 96.57 22.18 96.13 C 22.51 96.21 23.17 96.35 23.50 96.43 C 24.94 96.73 26.38 97.07 27.85 97.20 C 29.47 96.58 30.63 95.20 31.93 94.12 C 29.51 94.45 27.09 94.84 24.70 95.38 C 26.97 92.58 30.94 93.06 34.07 91.99 C 32.31 89.61 30.84 86.97 30.29 84.03 C 30.57 82.25 31.17 80.53 31.83 78.87 C 31.89 80.97 31.87 83.07 31.96 85.17 C 32.79 87.35 33.84 89.44 34.83 91.55 C 34.37 92.62 33.90 93.69 33.50 94.78 C 31.73 95.45 30.16 96.53 28.70 97.72 C 33.32 97.65 37.98 98.35 42.57 97.58 C 45.86 97.05 49.12 96.33 52.39 95.67 C 51.59 92.35 50.45 89.11 48.93 86.05 C 45.15 81.82 39.90 79.20 36.29 74.78 C 34.27 72.75 33.16 69.59 30.14 68.81 C 25.94 67.40 22.98 64.03 19.55 61.45 C 16.05 60.47 12.70 59.03 9.58 57.14 C 11.21 56.57 12.87 56.09 14.55 55.67 C 13.22 56.27 12.87 58.69 14.74 58.71 C 17.73 59.47 20.82 59.69 23.89 59.92 C 23.51 60.40 22.76 61.34 22.38 61.81 C 25.47 64.77 29.10 67.11 33.15 68.52 C 32.12 64.62 32.38 60.51 31.41 56.61 C 29.93 54.16 27.15 54.84 25.97 57.12 C 25.93 54.94 25.79 52.77 25.64 50.60 C 21.33 51.70 18.17 47.92 14.97 45.74 C 16.15 48.77 16.48 52.03 15.39 55.14 C 15.44 51.27 13.53 47.66 13.80 43.81 C 17.91 45.84 21.28 49.97 26.26 49.56 C 26.86 51.10 27.45 52.63 28.09 54.15 C 28.77 54.11 30.13 54.04 30.81 54.01 Z" />
</g>
<g id="#9ca097ff">
<path fill="#9ca097" opacity="1.00" d=" M 46.70 46.09 C 45.92 40.19 52.18 37.98 56.07 35.20 C 59.36 37.70 62.30 40.61 64.77 43.93 C 63.63 47.09 62.50 50.27 61.34 53.43 C 57.21 52.83 53.03 52.95 48.88 52.94 C 48.04 50.69 47.21 48.43 46.70 46.09 Z" />
</g>
<g id="#54524dff">
<path fill="#54524d" opacity="1.00" d=" M 65.51 40.16 C 68.91 42.07 72.70 42.91 76.54 43.35 C 73.94 44.13 71.01 44.72 68.40 43.68 C 67.31 42.62 66.44 41.36 65.51 40.16 Z" />
</g>
<g id="#504d47ff">
<path fill="#504d47" opacity="1.00" d=" M 45.36 55.34 C 49.41 50.68 42.10 45.33 45.40 40.54 C 45.86 42.38 46.28 44.23 46.70 46.09 C 47.21 48.43 48.04 50.69 48.88 52.94 C 53.03 52.95 57.21 52.83 61.34 53.43 C 67.80 55.83 67.16 64.28 72.91 67.38 C 76.74 69.77 81.38 68.58 85.40 67.39 C 87.55 66.41 89.98 65.54 91.44 63.57 C 93.22 60.87 93.88 57.65 94.64 54.55 C 93.13 52.48 91.68 50.35 90.60 48.01 C 92.15 47.83 93.70 47.66 95.25 47.51 C 96.96 47.35 98.66 47.21 100.38 47.12 C 98.82 47.79 97.28 48.49 95.74 49.18 C 94.63 48.75 93.54 48.73 92.46 49.13 C 91.50 50.54 94.03 51.28 95.06 51.04 C 96.62 53.64 96.63 56.60 95.14 59.22 C 93.35 62.63 92.09 66.30 91.82 70.17 C 95.63 69.09 99.37 67.75 102.91 65.97 C 100.57 68.19 99.34 71.21 97.85 74.00 C 102.60 79.13 101.46 86.98 99.11 92.97 C 100.61 95.88 104.72 97.27 104.14 101.02 C 98.02 99.47 91.49 102.65 85.63 99.80 C 86.23 99.52 87.43 98.95 88.03 98.66 L 88.29 99.17 C 90.02 100.22 91.82 99.80 93.43 98.76 L 93.76 99.07 C 94.78 99.59 95.82 100.09 96.88 100.55 C 96.91 99.60 96.98 97.69 97.01 96.73 C 97.37 96.77 98.08 96.84 98.44 96.88 C 99.61 98.78 101.55 99.81 103.65 100.38 C 102.84 98.58 101.44 97.31 99.46 96.99 C 98.74 94.46 98.43 91.80 99.19 89.24 C 99.80 86.27 100.49 83.22 99.99 80.19 C 99.38 77.90 97.62 76.18 96.24 74.34 C 94.39 74.53 92.54 74.72 90.70 74.89 C 91.18 74.15 91.67 73.40 92.16 72.66 C 94.91 72.58 97.58 71.79 99.54 69.78 C 97.37 70.23 95.21 70.75 93.06 71.28 C 91.73 70.72 90.41 70.14 89.06 69.64 C 82.77 70.17 76.55 71.54 70.19 71.30 C 69.97 73.79 69.74 76.28 69.50 78.77 C 70.39 79.41 71.29 80.06 72.19 80.70 C 72.33 82.24 72.50 83.78 72.67 85.32 C 71.58 85.17 70.51 84.99 69.44 84.75 C 66.71 83.56 64.09 82.13 61.32 81.03 C 64.21 80.43 66.42 78.40 67.97 75.98 C 68.51 73.58 68.55 71.11 68.25 68.68 C 67.48 63.78 65.75 58.43 61.53 55.45 C 56.38 53.34 50.64 54.32 45.36 55.34 Z" />
</g>
<g id="#cacad2ff">
<path fill="#cacad2" opacity="1.00" d=" M 104.36 43.30 C 105.80 43.29 105.67 45.79 104.29 45.76 C 102.77 45.71 102.93 43.36 104.36 43.30 Z" />
</g>
<g id="#8b8e86ff">
<path fill="#8b8e86" opacity="1.00" d=" M 81.98 45.14 C 84.37 44.87 86.78 44.76 89.18 44.68 C 89.65 45.79 90.11 46.91 90.60 48.01 C 91.68 50.35 93.13 52.48 94.64 54.55 C 93.88 57.65 93.22 60.87 91.44 63.57 C 89.98 65.54 87.55 66.41 85.40 67.39 C 87.28 59.96 87.44 51.16 81.98 45.14 Z" />
</g>
<g id="#9a9d94ff">
<path fill="#9a9d94" opacity="1.00" d=" M 73.02 50.06 C 74.25 46.25 78.64 45.80 81.98 45.14 C 87.44 51.16 87.28 59.96 85.40 67.39 C 81.38 68.58 76.74 69.77 72.91 67.38 C 71.56 61.72 69.95 55.50 73.02 50.06 Z" />
</g>
<g id="#baa59eff">
<path fill="#baa59e" opacity="1.00" d=" M 14.97 45.74 C 18.17 47.92 21.33 51.70 25.64 50.60 C 25.79 52.77 25.93 54.94 25.97 57.12 C 25.28 58.06 24.60 59.00 23.89 59.92 C 20.82 59.69 17.73 59.47 14.74 58.71 C 15.09 57.78 15.26 56.81 15.26 55.81 L 15.39 55.14 C 16.48 52.03 16.15 48.77 14.97 45.74 Z" />
</g>
<g id="#b8a49dff">
<path fill="#b8a49d" opacity="1.00" d=" M 100.38 47.12 C 101.47 46.74 102.58 46.37 103.73 46.18 C 106.84 48.29 107.26 52.23 107.49 55.67 C 106.31 55.84 105.12 55.99 103.94 56.20 C 102.36 56.52 100.81 56.89 99.25 57.26 C 99.49 60.71 100.97 65.00 97.42 67.26 C 96.83 64.54 96.20 61.81 95.14 59.22 C 96.63 56.60 96.62 53.64 95.06 51.04 C 95.23 50.58 95.57 49.65 95.74 49.18 C 97.28 48.49 98.82 47.79 100.38 47.12 Z" />
</g>
<g id="#92948cff">
<path fill="#92948c" opacity="1.00" d=" M 38.78 48.35 C 39.74 48.11 40.69 47.84 41.64 47.57 C 42.41 50.48 43.22 53.39 44.09 56.27 C 43.82 56.48 43.28 56.91 43.01 57.12 C 42.78 57.39 42.31 57.94 42.08 58.21 C 42.23 61.41 42.62 64.59 42.91 67.78 C 42.52 67.77 41.75 67.75 41.36 67.75 C 41.51 65.65 41.66 63.56 41.75 61.46 C 39.82 64.84 38.25 69.00 40.56 72.63 C 40.46 73.01 40.26 73.77 40.16 74.15 C 38.21 72.16 36.63 69.85 35.30 67.42 C 34.12 64.76 32.71 61.75 33.78 58.82 C 35.03 55.14 37.09 51.83 38.78 48.35 Z" />
</g>
<g id="#e8e6e7ff">
<path fill="#e8e6e7" opacity="1.00" d=" M 92.46 49.13 C 93.54 48.73 94.63 48.75 95.74 49.18 C 95.57 49.65 95.23 50.58 95.06 51.04 C 94.03 51.28 91.50 50.54 92.46 49.13 Z" />
</g>
<g id="#c1aca4ff">
<path fill="#c1aca4" opacity="1.00" d=" M 45.36 55.34 C 50.64 54.32 56.38 53.34 61.53 55.45 C 65.75 58.43 67.48 63.78 68.25 68.68 C 66.22 69.15 64.19 69.64 62.17 70.20 C 62.41 69.59 62.87 68.36 63.11 67.75 C 59.03 68.92 54.93 70.06 50.78 70.91 C 53.17 67.99 56.51 65.60 57.46 61.75 C 53.52 64.80 50.98 70.42 45.35 70.44 C 44.49 66.01 43.83 61.55 43.01 57.12 C 43.28 56.91 43.82 56.48 44.09 56.27 C 44.41 56.04 45.04 55.57 45.36 55.34 M 60.22 60.34 L 59.26 60.62 C 59.13 60.67 58.85 60.75 58.72 60.80 L 58.11 61.00 C 58.07 62.02 57.99 64.06 57.95 65.09 C 59.25 65.01 60.55 64.94 61.85 64.87 C 61.88 64.07 61.95 62.46 61.98 61.65 L 61.39 62.37 C 61.50 61.72 61.71 60.42 61.82 59.77 C 60.93 58.45 60.40 58.64 60.22 60.34 Z" />
</g>
<g id="#b29e97ff">
<path fill="#b29e97" opacity="1.00" d=" M 25.97 57.12 C 27.15 54.84 29.93 54.16 31.41 56.61 C 32.38 60.51 32.12 64.62 33.15 68.52 C 29.10 67.11 25.47 64.77 22.38 61.81 C 22.76 61.34 23.51 60.40 23.89 59.92 C 24.60 59.00 25.28 58.06 25.97 57.12 Z" />
</g>
<g id="#faf9f9ff">
<path fill="#faf9f9" opacity="1.00" d=" M 14.55 55.67 L 15.26 55.81 C 15.26 56.81 15.09 57.78 14.74 58.71 C 12.87 58.69 13.22 56.27 14.55 55.67 Z" />
</g>
<g id="#887774ff">
<path fill="#887774" opacity="1.00" d=" M 99.25 57.26 C 100.81 56.89 102.36 56.52 103.94 56.20 C 104.44 56.50 105.43 57.08 105.93 57.37 C 106.04 58.56 106.14 59.75 106.22 60.94 C 105.50 62.78 104.91 65.12 102.91 65.97 C 99.37 67.75 95.63 69.09 91.82 70.17 C 92.09 66.30 93.35 62.63 95.14 59.22 C 96.20 61.81 96.83 64.54 97.42 67.26 C 100.97 65.00 99.49 60.71 99.25 57.26 Z" />
</g>
<g id="#635b5cff">
<path fill="#635b5c" opacity="1.00" d=" M 42.08 58.21 C 42.31 57.94 42.78 57.39 43.01 57.12 C 43.83 61.55 44.49 66.01 45.35 70.44 C 50.98 70.42 53.52 64.80 57.46 61.75 C 56.51 65.60 53.17 67.99 50.78 70.91 C 54.93 70.06 59.03 68.92 63.11 67.75 C 62.87 68.36 62.41 69.59 62.17 70.20 C 60.81 70.59 59.46 71.01 58.10 71.42 C 53.86 71.69 49.60 71.94 45.38 72.48 C 47.94 74.29 51.15 74.37 53.99 73.18 C 54.18 73.73 54.56 74.85 54.75 75.40 C 55.38 75.63 56.63 76.10 57.25 76.33 C 53.74 77.04 50.16 77.35 46.63 77.99 C 44.49 76.34 42.52 74.48 40.56 72.63 C 38.25 69.00 39.82 64.84 41.75 61.46 C 41.66 63.56 41.51 65.65 41.36 67.75 C 41.75 67.75 42.52 67.77 42.91 67.78 C 42.62 64.59 42.23 61.41 42.08 58.21 Z" />
</g>
<g id="#544c49ff">
<path fill="#544c49" opacity="1.00" d=" M 60.22 60.34 C 60.40 58.64 60.93 58.45 61.82 59.77 C 61.42 59.91 60.62 60.20 60.22 60.34 Z" />
</g>
<g id="#453e3bff">
<path fill="#453e3b" opacity="1.00" d=" M 58.72 60.80 C 58.85 60.75 59.13 60.67 59.26 60.62 C 59.13 60.67 58.85 60.75 58.72 60.80 Z" />
</g>
<g id="#f3f3f5ff">
<path fill="#f3f3f5" opacity="1.00" d=" M 59.26 60.62 L 60.22 60.34 C 60.62 60.20 61.42 59.91 61.82 59.77 C 61.71 60.42 61.50 61.72 61.39 62.37 C 60.80 63.09 60.21 63.80 59.61 64.51 C 59.24 63.63 58.48 61.87 58.11 61.00 L 58.72 60.80 C 58.85 60.75 59.13 60.67 59.26 60.62 Z" />
</g>
<g id="#7a5f59ff">
<path fill="#7a5f59" opacity="1.00" d=" M 58.11 61.00 C 58.48 61.87 59.24 63.63 59.61 64.51 C 60.21 63.80 60.80 63.09 61.39 62.37 L 61.98 61.65 C 61.95 62.46 61.88 64.07 61.85 64.87 C 60.55 64.94 59.25 65.01 57.95 65.09 C 57.99 64.06 58.07 62.02 58.11 61.00 Z" />
</g>
<g id="#716e69ff">
<path fill="#716e69" opacity="1.00" d=" M 35.30 67.42 C 36.63 69.85 38.21 72.16 40.16 74.15 C 40.26 73.77 40.46 73.01 40.56 72.63 C 42.52 74.48 44.49 76.34 46.63 77.99 C 51.11 80.56 56.35 80.47 61.32 81.03 C 64.09 82.13 66.71 83.56 69.44 84.75 C 67.60 85.69 65.67 86.84 63.51 86.45 C 58.10 85.92 52.51 85.02 47.80 82.14 C 42.60 78.89 38.00 74.72 34.10 69.99 C 34.40 69.35 35.00 68.06 35.30 67.42 Z" />
</g>
<g id="#887874ff">
<path fill="#887874" opacity="1.00" d=" M 62.17 70.20 C 64.19 69.64 66.22 69.15 68.25 68.68 C 68.55 71.11 68.51 73.58 67.97 75.98 C 64.70 73.20 60.78 75.52 57.25 76.33 C 56.63 76.10 55.38 75.63 54.75 75.40 C 54.56 74.85 54.18 73.73 53.99 73.18 C 55.37 72.61 56.73 71.99 58.10 71.42 C 59.46 71.01 60.81 70.59 62.17 70.20 Z" />
</g>
<g id="#706e69ff">
<path fill="#706e69" opacity="1.00" d=" M 70.19 71.30 C 76.55 71.54 82.77 70.17 89.06 69.64 C 84.80 73.16 79.10 74.04 73.86 72.47 C 73.48 75.25 72.92 78.00 72.19 80.70 C 71.29 80.06 70.39 79.41 69.50 78.77 C 69.74 76.28 69.97 73.79 70.19 71.30 Z" />
</g>
<g id="#868981ff">
<path fill="#868981" opacity="1.00" d=" M 89.06 69.64 C 90.41 70.14 91.73 70.72 93.06 71.28 C 95.21 70.75 97.37 70.23 99.54 69.78 C 97.58 71.79 94.91 72.58 92.16 72.66 C 91.67 73.40 91.18 74.15 90.70 74.89 C 92.54 74.72 94.39 74.53 96.24 74.34 C 91.17 76.85 86.77 80.49 83.18 84.85 C 83.10 84.52 82.94 83.85 82.85 83.52 C 79.66 84.95 76.19 86.02 72.67 85.32 C 72.50 83.78 72.33 82.24 72.19 80.70 C 72.92 78.00 73.48 75.25 73.86 72.47 C 79.10 74.04 84.80 73.16 89.06 69.64 M 86.27 78.08 C 86.53 81.40 89.21 76.44 86.27 78.08 Z" />
</g>
<g id="#eda1abff">
<path fill="#eda1ab" opacity="1.00" d=" M 45.38 72.48 C 49.60 71.94 53.86 71.69 58.10 71.42 C 56.73 71.99 55.37 72.61 53.99 73.18 C 51.15 74.37 47.94 74.29 45.38 72.48 Z" />
</g>
<g id="#848780ff">
<path fill="#848780" opacity="1.00" d=" M 57.25 76.33 C 60.78 75.52 64.70 73.20 67.97 75.98 C 66.42 78.40 64.21 80.43 61.32 81.03 C 56.35 80.47 51.11 80.56 46.63 77.99 C 50.16 77.35 53.74 77.04 57.25 76.33 Z" />
</g>
<g id="#b19d96ff">
<path fill="#b19d96" opacity="1.00" d=" M 36.29 74.78 C 39.90 79.20 45.15 81.82 48.93 86.05 C 48.35 87.50 47.79 88.95 47.24 90.40 C 44.62 90.87 41.78 91.99 39.19 90.81 C 37.48 90.21 37.07 88.26 36.30 86.82 C 34.86 86.27 33.41 85.72 31.96 85.17 C 31.87 83.07 31.89 80.97 31.83 78.87 C 33.39 77.58 34.83 76.17 36.29 74.78 Z" />
</g>
<g id="#b4a098ff">
<path fill="#b4a098" opacity="1.00" d=" M 83.18 84.85 C 86.77 80.49 91.17 76.85 96.24 74.34 C 97.62 76.18 99.38 77.90 99.99 80.19 C 100.49 83.22 99.80 86.27 99.19 89.24 C 98.59 88.51 98.00 87.78 97.41 87.06 C 95.95 89.19 94.39 91.26 92.66 93.18 C 92.51 91.85 92.36 90.53 92.22 89.20 C 91.59 88.73 90.96 88.27 90.34 87.81 C 90.27 89.47 90.21 91.13 90.14 92.79 C 88.42 92.30 86.69 91.81 84.96 91.33 C 84.39 89.16 83.72 87.02 83.18 84.85 Z" />
</g>
<g id="#2c2b29ff">
<path fill="#2c2b29" opacity="1.00" d=" M 86.27 78.08 C 89.21 76.44 86.53 81.40 86.27 78.08 Z" />
</g>
<g id="#8e7c79ff">
<path fill="#8e7c79" opacity="1.00" d=" M 31.96 85.17 C 33.41 85.72 34.86 86.27 36.30 86.82 C 37.07 88.26 37.48 90.21 39.19 90.81 C 41.78 91.99 44.62 90.87 47.24 90.40 C 47.79 88.95 48.35 87.50 48.93 86.05 C 50.45 89.11 51.59 92.35 52.39 95.67 C 49.12 96.33 45.86 97.05 42.57 97.58 C 40.06 95.28 36.71 94.99 33.50 94.78 C 33.90 93.69 34.37 92.62 34.83 91.55 C 33.84 89.44 32.79 87.35 31.96 85.17 Z" />
<path fill="#8e7c79" opacity="1.00" d=" M 97.41 87.06 C 98.00 87.78 98.59 88.51 99.19 89.24 C 98.43 91.80 98.74 94.46 99.46 96.99 L 98.44 96.88 C 98.08 96.84 97.37 96.77 97.01 96.73 C 95.63 97.08 94.25 97.59 93.76 99.07 L 93.43 98.76 C 92.14 96.22 89.32 96.65 88.29 99.17 L 88.03 98.66 C 87.65 97.85 87.27 97.03 86.89 96.22 C 85.92 96.43 84.94 96.63 83.97 96.84 C 84.41 95.02 84.77 93.19 84.96 91.33 C 86.69 91.81 88.42 92.30 90.14 92.79 C 90.21 91.13 90.27 89.47 90.34 87.81 C 90.96 88.27 91.59 88.73 92.22 89.20 C 92.36 90.53 92.51 91.85 92.66 93.18 C 94.39 91.26 95.95 89.19 97.41 87.06 Z" />
</g>
<g id="#d9d8d8ff">
<path fill="#d9d8d8" opacity="1.00" d=" M 24.70 95.38 C 27.09 94.84 29.51 94.45 31.93 94.12 C 30.63 95.20 29.47 96.58 27.85 97.20 C 26.38 97.07 24.94 96.73 23.50 96.43 C 23.80 96.17 24.40 95.64 24.70 95.38 Z" />
</g>
<g id="#ecebebff">
<path fill="#ecebeb" opacity="1.00" d=" M 28.70 97.72 C 30.16 96.53 31.73 95.45 33.50 94.78 C 36.71 94.99 40.06 95.28 42.57 97.58 C 37.98 98.35 33.32 97.65 28.70 97.72 Z" />
</g>
<g id="#e8e7e7ff">
<path fill="#e8e7e7" opacity="1.00" d=" M 83.97 96.84 C 84.94 96.63 85.92 96.43 86.89 96.22 C 87.27 97.03 87.65 97.85 88.03 98.66 C 87.43 98.95 86.23 99.52 85.63 99.80 C 84.95 99.94 83.58 100.23 82.90 100.37 C 83.26 99.19 83.61 98.01 83.97 96.84 Z" />
</g>
<g id="#f0eff0ff">
<path fill="#f0eff0" opacity="1.00" d=" M 88.29 99.17 C 89.32 96.65 92.14 96.22 93.43 98.76 C 91.82 99.80 90.02 100.22 88.29 99.17 Z" />
</g>
<g id="#f1f0f0ff">
<path fill="#f1f0f0" opacity="1.00" d=" M 93.76 99.07 C 94.25 97.59 95.63 97.08 97.01 96.73 C 96.98 97.69 96.91 99.60 96.88 100.55 C 95.82 100.09 94.78 99.59 93.76 99.07 Z" />
</g>
<g id="#f2f1f2ff">
<path fill="#f2f1f2" opacity="1.00" d=" M 98.44 96.88 L 99.46 96.99 C 101.44 97.31 102.84 98.58 103.65 100.38 C 101.55 99.81 99.61 98.78 98.44 96.88 Z" />
</g>
</svg>
