<?xml version="1.0" encoding="UTF-8" ?>
<!DOCTYPE svg PUBLIC "-//W3C//DTD SVG 1.1//EN" "http://www.w3.org/Graphics/SVG/1.1/DTD/svg11.dtd">
<svg width="120pt" height="120pt" viewBox="0 0 120 120" version="1.1" xmlns="http://www.w3.org/2000/svg">
<g id="#2e2a2cff">
<path fill="#2e2a2c" opacity="1.00" d=" M 47.90 37.89 C 51.41 31.35 61.42 29.96 66.23 35.75 C 69.13 39.23 69.29 44.26 72.35 47.68 C 74.49 48.15 76.66 48.51 78.75 49.17 C 79.53 51.50 80.29 53.84 80.77 56.24 C 81.35 59.32 78.76 62.50 80.53 65.43 C 82.04 68.81 86.03 70.35 87.14 73.97 C 87.79 75.84 89.85 76.51 91.16 77.84 C 93.02 79.28 93.89 81.58 94.17 83.85 C 88.54 87.38 81.81 84.95 75.77 86.78 C 73.03 87.35 70.18 87.14 67.53 86.30 C 65.33 85.42 63.09 86.53 60.89 86.75 C 56.24 87.20 51.51 87.03 46.94 86.03 C 41.33 85.74 35.64 86.27 30.15 84.68 C 30.10 84.01 29.99 82.68 29.94 82.01 L 30.51 82.31 C 33.90 84.57 38.03 84.73 41.96 84.62 C 48.75 84.36 55.54 86.80 62.26 84.94 C 68.76 84.52 75.28 84.83 81.71 83.54 C 85.17 84.59 88.78 84.46 92.32 83.94 C 92.92 80.14 89.93 77.16 86.24 77.21 C 86.44 75.98 86.13 74.41 84.69 74.11 C 80.53 72.78 76.11 72.93 71.82 72.43 C 76.01 71.93 80.19 72.67 84.36 73.05 C 83.34 71.20 81.99 69.57 80.61 67.98 C 80.32 67.46 79.72 66.42 79.43 65.90 C 79.13 64.68 78.86 63.45 78.61 62.23 C 76.39 63.59 74.26 65.11 72.52 67.07 C 72.29 66.38 71.83 64.99 71.60 64.30 C 69.97 63.42 68.35 62.51 66.76 61.56 C 68.34 61.78 69.92 62.03 71.50 62.22 C 70.02 60.30 68.12 58.80 66.00 57.65 C 67.07 53.82 68.63 50.12 71.03 46.92 C 68.75 45.35 66.17 44.18 63.37 45.06 C 63.40 45.76 63.45 47.17 63.47 47.87 C 63.35 48.32 63.12 49.22 63.00 49.67 C 59.39 49.28 53.40 46.66 51.91 51.59 C 51.50 52.82 51.10 54.04 50.71 55.27 L 49.80 54.98 C 49.76 51.23 52.68 46.54 49.38 43.54 C 49.16 45.17 48.95 46.81 48.76 48.44 C 47.26 47.91 45.77 47.35 44.27 46.81 C 41.96 45.48 38.80 46.32 37.85 48.93 C 37.17 50.10 36.51 51.29 35.86 52.48 C 36.16 50.59 36.37 48.69 36.44 46.78 C 33.53 48.50 30.21 49.11 26.86 49.05 C 27.91 47.90 29.52 48.10 30.91 47.94 C 30.25 46.18 28.40 43.93 30.67 42.57 C 33.38 40.55 34.42 44.99 36.83 45.29 C 39.06 46.44 41.43 44.81 43.74 45.22 C 45.32 45.67 46.78 46.43 48.28 47.08 C 48.29 44.05 46.01 40.65 47.90 37.89 C 48.14 39.20 48.33 40.52 48.50 41.85 C 54.88 42.99 61.42 43.20 67.89 43.22 C 67.80 42.50 67.63 41.07 67.54 40.35 C 66.46 40.13 65.39 39.92 64.31 39.72 C 64.93 38.85 65.54 37.99 66.15 37.12 C 65.14 36.54 64.14 35.93 63.16 35.31 C 61.49 33.33 58.67 32.72 56.20 33.11 C 52.98 33.81 50.59 36.19 47.90 37.89 M 31.25 43.27 C 30.01 44.15 31.25 46.64 32.64 45.52 C 33.93 44.65 32.64 42.15 31.25 43.27 M 75.84 49.58 C 75.12 49.26 75.12 49.26 75.84 49.58 M 72.19 50.10 C 72.50 51.79 72.86 53.48 73.24 55.16 C 71.16 55.13 69.09 55.06 67.02 55.03 C 67.19 55.61 67.54 56.78 67.71 57.37 C 69.49 57.53 71.27 57.70 73.04 57.93 C 72.67 58.30 71.93 59.04 71.56 59.41 C 72.23 60.61 72.85 61.84 73.46 63.08 C 74.12 62.30 74.83 61.55 75.38 60.68 C 75.69 59.20 74.44 57.77 74.97 56.31 C 76.27 54.97 77.93 54.08 79.51 53.12 C 78.56 51.63 77.88 49.70 75.84 49.58 C 75.85 51.28 75.81 52.97 75.72 54.67 C 74.31 53.20 75.08 49.06 72.19 50.10 M 70.10 51.28 C 68.59 54.29 73.43 51.38 70.10 51.28 M 75.69 57.99 C 76.95 59.04 78.60 59.06 80.15 59.25 C 80.16 58.36 80.18 56.58 80.18 55.69 C 78.37 55.65 75.90 55.59 75.69 57.99 Z" />
<path fill="#2e2a2c" opacity="1.00" d=" M 57.53 38.72 C 58.89 37.58 59.66 35.92 60.74 34.54 C 60.36 35.91 59.98 37.27 59.64 38.65 C 57.17 39.60 54.69 40.59 52.05 40.98 C 53.83 40.11 55.81 39.71 57.53 38.72 Z" />
<path fill="#2e2a2c" opacity="1.00" d=" M 61.24 37.24 C 61.81 37.81 61.81 37.81 61.24 37.24 Z" />
<path fill="#2e2a2c" opacity="1.00" d=" M 50.23 38.28 C 50.78 38.83 50.78 38.83 50.23 38.28 Z" />
<path fill="#2e2a2c" opacity="1.00" d=" M 24.86 49.97 L 25.46 50.38 C 26.36 51.01 27.26 51.64 28.16 52.26 C 28.98 51.73 29.81 51.19 30.63 50.65 C 32.74 56.04 39.10 56.34 43.97 57.31 C 43.90 61.22 44.43 65.59 42.10 68.99 C 42.05 65.64 43.10 62.42 43.26 59.09 C 41.29 58.07 39.18 57.39 37.02 56.91 C 32.89 56.14 29.86 52.69 25.60 52.33 C 25.42 51.74 25.05 50.56 24.86 49.97 Z" />
<path fill="#2e2a2c" opacity="1.00" d=" M 53.61 58.43 C 55.75 58.45 57.85 57.96 59.82 57.11 C 56.82 58.10 56.32 61.22 56.50 63.99 C 55.69 62.06 54.67 60.23 53.61 58.43 Z" />
<path fill="#2e2a2c" opacity="1.00" d=" M 36.26 76.89 C 35.29 75.41 35.64 74.55 37.30 74.30 C 37.45 75.37 37.11 76.24 36.26 76.89 Z" />
<path fill="#2e2a2c" opacity="1.00" d=" M 32.49 81.36 C 31.76 80.05 34.01 77.80 35.32 78.46 C 35.15 80.01 33.99 81.09 32.49 81.36 Z" />
</g>
<g id="#c5a8cfff">
<path fill="#c5a8cf" opacity="1.00" d=" M 47.90 37.89 C 50.59 36.19 52.98 33.81 56.20 33.11 C 58.67 32.72 61.49 33.33 63.16 35.31 C 64.14 35.93 65.14 36.54 66.15 37.12 C 65.54 37.99 64.93 38.85 64.31 39.72 C 65.39 39.92 66.46 40.13 67.54 40.35 C 67.63 41.07 67.80 42.50 67.89 43.22 C 61.42 43.20 54.88 42.99 48.50 41.85 C 48.33 40.52 48.14 39.20 47.90 37.89 M 57.53 38.72 C 55.81 39.71 53.83 40.11 52.05 40.98 C 54.69 40.59 57.17 39.60 59.64 38.65 C 59.98 37.27 60.36 35.91 60.74 34.54 C 59.66 35.92 58.89 37.58 57.53 38.72 M 61.24 37.24 C 61.81 37.81 61.81 37.81 61.24 37.24 M 50.23 38.28 C 50.78 38.83 50.78 38.83 50.23 38.28 Z" />
<path fill="#c5a8cf" opacity="1.00" d=" M 37.85 48.93 C 38.80 46.32 41.96 45.48 44.27 46.81 C 44.59 48.38 44.90 49.95 45.22 51.52 C 42.82 50.49 40.34 49.67 37.85 48.93 Z" />
<path fill="#c5a8cf" opacity="1.00" d=" M 63.47 47.87 C 63.81 49.14 64.25 50.38 64.44 51.68 C 63.92 53.47 62.34 54.68 61.19 56.06 C 61.76 53.92 62.39 51.80 63.00 49.67 C 63.12 49.22 63.35 48.32 63.47 47.87 Z" />
<path fill="#c5a8cf" opacity="1.00" d=" M 75.84 49.58 C 75.12 49.26 75.12 49.26 75.84 49.58 Z" />
<path fill="#c5a8cf" opacity="1.00" d=" M 72.19 50.10 C 75.08 49.06 74.31 53.20 75.72 54.67 C 75.81 52.97 75.85 51.28 75.84 49.58 C 77.88 49.70 78.56 51.63 79.51 53.12 C 77.93 54.08 76.27 54.97 74.97 56.31 C 74.44 57.77 75.69 59.20 75.38 60.68 C 74.83 61.55 74.12 62.30 73.46 63.08 C 72.85 61.84 72.23 60.61 71.56 59.41 C 71.93 59.04 72.67 58.30 73.04 57.93 C 71.27 57.70 69.49 57.53 67.71 57.37 C 67.54 56.78 67.19 55.61 67.02 55.03 C 69.09 55.06 71.16 55.13 73.24 55.16 C 72.86 53.48 72.50 51.79 72.19 50.10 Z" />
<path fill="#c5a8cf" opacity="1.00" d=" M 51.91 51.59 C 54.73 51.10 57.59 51.29 60.38 51.85 C 59.93 53.24 59.94 54.96 58.69 55.94 C 56.02 56.50 53.30 55.95 50.71 55.27 C 51.10 54.04 51.50 52.82 51.91 51.59 Z" />
<path fill="#c5a8cf" opacity="1.00" d=" M 70.10 51.28 C 73.43 51.38 68.59 54.29 70.10 51.28 Z" />
<path fill="#c5a8cf" opacity="1.00" d=" M 66.00 57.65 C 68.12 58.80 70.02 60.30 71.50 62.22 C 69.92 62.03 68.34 61.78 66.76 61.56 C 68.35 62.51 69.97 63.42 71.60 64.30 C 71.83 64.99 72.29 66.38 72.52 67.07 C 74.26 65.11 76.39 63.59 78.61 62.23 C 78.86 63.45 79.13 64.68 79.43 65.90 C 77.27 67.26 74.78 68.26 72.19 67.62 C 67.49 66.69 62.72 65.58 57.94 66.76 C 58.12 65.66 58.30 64.56 58.48 63.46 C 61.22 61.87 64.18 60.36 66.00 57.65 Z" />
<path fill="#c5a8cf" opacity="1.00" d=" M 47.11 58.72 C 50.87 59.56 53.58 63.10 54.22 66.79 C 51.22 65.95 48.13 66.43 45.07 66.23 C 45.35 63.63 45.75 61.00 47.11 58.72 Z" />
<path fill="#c5a8cf" opacity="1.00" d=" M 59.01 68.93 C 66.20 68.00 73.71 70.98 80.61 67.98 C 81.99 69.57 83.34 71.20 84.36 73.05 C 80.19 72.67 76.01 71.93 71.82 72.43 C 76.11 72.93 80.53 72.78 84.69 74.11 C 86.13 74.41 86.44 75.98 86.24 77.21 C 82.80 76.74 79.44 75.74 75.98 75.46 C 71.76 75.47 67.67 77.21 63.42 76.59 C 58.53 75.96 53.61 76.12 48.70 76.45 C 46.41 76.68 44.28 75.71 42.23 74.84 C 42.47 74.05 42.72 73.26 42.96 72.46 C 49.00 74.79 56.53 75.82 62.26 72.20 C 55.69 72.47 48.93 73.07 42.72 70.39 C 47.73 67.79 53.63 69.77 59.01 68.93 Z" />
<path fill="#c5a8cf" opacity="1.00" d=" M 38.63 77.08 C 44.39 78.67 50.36 79.89 56.30 78.51 C 65.87 78.08 75.51 77.37 85.07 78.40 C 85.35 79.94 85.61 81.48 85.86 83.03 C 84.47 83.21 83.09 83.38 81.71 83.54 C 75.28 84.83 68.76 84.52 62.26 84.94 C 53.61 83.40 44.83 84.09 36.10 83.84 C 38.27 82.23 38.78 79.63 38.63 77.08 M 59.64 82.06 C 66.11 80.98 73.25 83.97 79.11 80.00 C 75.39 80.02 71.74 81.23 68.02 80.72 C 65.22 80.54 61.72 79.55 59.64 82.06 Z" />
</g>
<g id="#8d708eff">
<path fill="#8d708e" opacity="1.00" d=" M 31.25 43.27 C 32.64 42.15 33.93 44.65 32.64 45.52 C 31.25 46.64 30.01 44.15 31.25 43.27 Z" />
<path fill="#8d708e" opacity="1.00" d=" M 49.38 43.54 C 52.68 46.54 49.76 51.23 49.80 54.98 L 50.71 55.27 C 53.30 55.95 56.02 56.50 58.69 55.94 C 59.94 54.96 59.93 53.24 60.38 51.85 C 57.59 51.29 54.73 51.10 51.91 51.59 C 53.40 46.66 59.39 49.28 63.00 49.67 C 62.39 51.80 61.76 53.92 61.19 56.06 C 62.34 54.68 63.92 53.47 64.44 51.68 C 64.25 50.38 63.81 49.14 63.47 47.87 C 63.45 47.17 63.40 45.76 63.37 45.06 C 66.17 44.18 68.75 45.35 71.03 46.92 C 68.63 50.12 67.07 53.82 66.00 57.65 C 64.18 60.36 61.22 61.87 58.48 63.46 C 58.30 64.56 58.12 65.66 57.94 66.76 C 62.72 65.58 67.49 66.69 72.19 67.62 C 74.78 68.26 77.27 67.26 79.43 65.90 C 79.72 66.42 80.32 67.46 80.61 67.98 C 73.71 70.98 66.20 68.00 59.01 68.93 C 53.63 69.77 47.73 67.79 42.72 70.39 C 48.93 73.07 55.69 72.47 62.26 72.20 C 56.53 75.82 49.00 74.79 42.96 72.46 C 42.72 73.26 42.47 74.05 42.23 74.84 C 44.28 75.71 46.41 76.68 48.70 76.45 C 53.61 76.12 58.53 75.96 63.42 76.59 C 67.67 77.21 71.76 75.47 75.98 75.46 C 79.44 75.74 82.80 76.74 86.24 77.21 C 89.93 77.16 92.92 80.14 92.32 83.94 C 88.78 84.46 85.17 84.59 81.71 83.54 C 83.09 83.38 84.47 83.21 85.86 83.03 C 85.61 81.48 85.35 79.94 85.07 78.40 C 75.51 77.37 65.87 78.08 56.30 78.51 C 50.36 79.89 44.39 78.67 38.63 77.08 C 38.78 79.63 38.27 82.23 36.10 83.84 C 44.83 84.09 53.61 83.40 62.26 84.94 C 55.54 86.80 48.75 84.36 41.96 84.62 C 38.03 84.73 33.90 84.57 30.51 82.31 C 31.00 82.07 32.00 81.60 32.49 81.36 C 33.99 81.09 35.15 80.01 35.32 78.46 C 35.55 78.07 36.02 77.29 36.26 76.89 C 37.11 76.24 37.45 75.37 37.30 74.30 C 37.86 71.97 40.58 70.77 42.10 68.99 C 44.43 65.59 43.90 61.22 43.97 57.31 C 39.10 56.34 32.74 56.04 30.63 50.65 C 29.81 51.19 28.98 51.73 28.16 52.26 C 27.26 51.64 26.36 51.01 25.46 50.38 C 25.81 50.05 26.51 49.39 26.86 49.05 C 30.21 49.11 33.53 48.50 36.44 46.78 C 36.37 48.69 36.16 50.59 35.86 52.48 C 36.51 51.29 37.17 50.10 37.85 48.93 C 40.34 49.67 42.82 50.49 45.22 51.52 C 44.90 49.95 44.59 48.38 44.27 46.81 C 45.77 47.35 47.26 47.91 48.76 48.44 C 48.95 46.81 49.16 45.17 49.38 43.54 M 53.61 58.43 C 54.67 60.23 55.69 62.06 56.50 63.99 C 56.32 61.22 56.82 58.10 59.82 57.11 C 57.85 57.96 55.75 58.45 53.61 58.43 M 47.11 58.72 C 45.75 61.00 45.35 63.63 45.07 66.23 C 48.13 66.43 51.22 65.95 54.22 66.79 C 53.58 63.10 50.87 59.56 47.11 58.72 Z" />
<path fill="#8d708e" opacity="1.00" d=" M 75.69 57.99 C 75.90 55.59 78.37 55.65 80.18 55.69 C 80.18 56.58 80.16 58.36 80.15 59.25 C 78.60 59.06 76.95 59.04 75.69 57.99 Z" />
<path fill="#8d708e" opacity="1.00" d=" M 59.64 82.06 C 61.72 79.55 65.22 80.54 68.02 80.72 C 71.74 81.23 75.39 80.02 79.11 80.00 C 73.25 83.97 66.11 80.98 59.64 82.06 Z" />
</g>
</svg>
