<?xml version="1.0" encoding="UTF-8" ?>
<!DOCTYPE svg PUBLIC "-//W3C//DTD SVG 1.1//EN" "http://www.w3.org/Graphics/SVG/1.1/DTD/svg11.dtd">
<svg width="120pt" height="120pt" viewBox="0 0 120 120" version="1.1" xmlns="http://www.w3.org/2000/svg">
<g id="#e8a873ff">
<path fill="#e8a873" opacity="1.00" d=" M 52.12 28.97 C 53.14 30.27 54.14 31.60 55.14 32.92 L 55.89 30.68 C 56.19 32.01 56.49 33.34 56.78 34.67 L 57.73 34.29 C 57.71 37.39 57.71 40.50 57.41 43.60 L 58.73 43.26 L 58.58 45.10 C 59.99 43.99 61.31 42.73 63.06 42.16 C 64.30 40.20 66.40 39.26 68.38 38.24 C 70.39 37.24 72.67 37.57 74.84 37.39 L 74.38 38.39 C 76.38 38.04 77.67 39.16 77.97 41.06 C 79.16 41.96 79.92 43.08 79.82 44.67 L 81.01 44.40 C 80.84 44.94 80.52 46.02 80.35 46.56 L 81.78 46.35 C 81.71 47.79 81.63 49.22 81.55 50.66 L 82.61 50.23 C 82.69 50.92 82.84 52.32 82.92 53.01 L 81.63 52.28 C 81.61 53.35 81.57 55.49 81.54 56.55 L 81.04 55.35 C 81.22 50.58 80.37 45.73 77.51 41.80 C 76.16 39.64 73.80 37.67 71.10 38.08 C 68.52 38.59 66.30 40.10 64.01 41.31 C 65.32 43.96 66.61 46.64 67.39 49.51 C 67.52 53.37 63.33 53.30 60.59 54.13 C 63.89 54.51 67.49 54.53 70.29 56.58 C 72.62 57.93 73.76 60.46 74.99 62.72 C 75.54 62.48 76.63 62.00 77.18 61.77 C 76.54 62.79 75.65 63.48 74.54 63.86 C 74.44 66.17 75.15 68.74 73.65 70.76 C 73.51 73.82 73.55 76.89 73.35 79.94 L 74.63 79.09 C 74.56 81.77 74.57 84.45 74.60 87.13 C 73.53 87.34 72.46 87.52 71.38 87.67 L 71.93 88.70 C 69.35 88.57 66.76 88.54 64.18 88.46 L 65.01 89.72 C 62.15 89.66 59.28 89.56 56.42 89.76 C 56.62 86.89 55.89 83.87 57.05 81.14 C 56.49 81.06 55.92 80.97 55.36 80.88 C 55.96 83.25 55.78 85.72 55.56 88.12 C 55.23 86.84 54.79 85.59 54.49 84.31 C 54.08 85.59 54.28 87.25 53.09 88.15 C 53.25 86.99 53.57 84.65 53.72 83.49 L 51.38 85.35 L 51.88 83.28 C 50.89 83.40 48.91 83.65 47.92 83.77 C 47.03 85.57 47.01 87.95 45.72 89.46 C 42.88 89.83 40.00 89.60 37.14 89.69 C 37.48 88.51 37.88 87.35 38.45 86.26 C 38.49 85.09 38.54 83.91 38.58 82.73 C 40.36 80.61 39.30 77.65 39.43 75.13 L 40.60 75.69 C 40.59 74.93 40.56 73.40 40.54 72.64 L 38.70 72.86 C 39.15 72.63 40.05 72.18 40.49 71.96 C 40.52 71.15 40.58 69.52 40.61 68.70 C 39.87 68.45 38.38 67.94 37.64 67.69 C 38.14 67.61 39.15 67.46 39.65 67.38 C 39.47 65.66 39.29 63.93 39.13 62.21 L 40.20 62.43 C 40.48 60.89 40.67 59.17 42.77 59.37 L 42.43 57.38 L 41.02 57.64 C 41.23 57.20 41.64 56.30 41.84 55.85 C 41.25 55.62 40.08 55.16 39.50 54.93 C 39.51 52.70 39.54 50.47 39.46 48.24 L 40.56 48.29 C 40.54 46.60 40.52 44.90 40.50 43.21 C 41.18 42.76 41.87 42.31 42.55 41.87 L 42.46 43.85 C 43.38 43.46 45.21 42.69 46.13 42.30 C 47.63 44.27 49.59 43.00 50.93 41.69 L 51.72 41.24 C 53.48 40.82 55.27 40.56 57.05 40.28 C 56.83 37.88 56.48 35.49 56.02 33.12 C 54.74 33.07 53.45 33.00 52.17 32.92 C 52.33 32.42 52.66 31.42 52.82 30.92 C 52.30 31.43 51.25 32.45 50.73 32.96 C 50.09 33.04 48.81 33.20 48.17 33.28 C 47.79 34.84 47.39 36.39 47.07 37.97 L 46.96 38.93 C 46.92 39.56 46.84 40.83 46.80 41.46 L 46.75 42.42 C 46.68 41.79 46.54 40.54 46.47 39.92 C 46.00 39.75 45.05 39.43 44.57 39.26 L 46.45 39.21 C 46.52 37.56 46.53 35.88 47.10 34.32 C 47.68 32.35 49.83 32.52 51.41 31.99 C 51.59 31.24 51.94 29.73 52.12 28.97 M 42.37 47.02 C 42.23 48.30 42.10 49.59 41.96 50.87 C 41.26 51.59 40.56 52.32 39.87 53.06 C 40.49 53.56 41.08 54.09 41.67 54.63 C 44.87 53.80 48.23 53.53 51.45 54.43 C 54.43 55.27 57.41 54.03 60.34 53.58 C 59.32 51.63 57.61 50.79 55.43 50.87 C 55.69 49.61 55.96 48.35 56.22 47.09 C 55.41 47.04 53.79 46.94 52.99 46.89 C 53.30 47.56 53.93 48.92 54.24 49.59 C 52.42 50.58 50.51 49.71 48.77 49.06 C 48.50 50.05 48.24 51.04 47.99 52.04 C 47.34 52.02 46.03 51.99 45.38 51.97 C 44.91 50.94 44.17 50.16 43.17 49.62 C 42.90 48.76 42.64 47.89 42.37 47.02 M 46.47 49.43 C 46.63 49.54 46.63 49.54 46.47 49.43 M 57.84 59.22 C 56.57 60.04 55.34 60.91 54.04 61.69 C 50.59 61.56 46.89 62.15 43.73 60.40 C 42.88 60.72 42.02 61.03 41.16 61.31 C 40.58 65.59 40.70 69.88 41.43 74.13 C 44.73 76.54 46.25 80.78 50.25 82.37 C 50.68 82.20 51.54 81.86 51.98 81.69 C 52.11 82.28 52.38 83.44 52.52 84.02 C 52.77 83.16 53.02 82.29 53.28 81.43 C 52.66 80.44 52.02 79.46 51.37 78.48 C 53.12 78.95 54.86 79.41 56.60 79.89 C 57.72 77.17 59.14 74.60 60.76 72.15 C 59.45 70.40 60.99 68.71 61.65 67.09 C 61.05 65.75 61.04 64.40 61.60 63.06 C 61.22 62.78 60.46 62.22 60.08 61.94 C 60.18 61.53 60.38 60.72 60.47 60.31 C 59.59 59.95 58.71 59.59 57.84 59.22 Z" />
</g>
<g id="#f9deb7ff">
<path fill="#f9deb7" opacity="1.00" d=" M 52.82 30.92 C 52.66 31.42 52.33 32.42 52.17 32.92 C 53.45 33.00 54.74 33.07 56.02 33.12 C 56.48 35.49 56.83 37.88 57.05 40.28 C 55.27 40.56 53.48 40.82 51.72 41.24 L 50.93 41.69 C 49.54 42.47 47.33 44.12 46.80 41.46 C 46.84 40.83 46.92 39.56 46.96 38.93 C 47.65 39.83 48.33 40.73 49.02 41.63 C 51.10 39.60 55.31 36.36 52.06 33.43 C 49.82 34.19 48.22 35.97 47.07 37.97 C 47.39 36.39 47.79 34.84 48.17 33.28 C 48.81 33.20 50.09 33.04 50.73 32.96 C 51.25 32.45 52.30 31.43 52.82 30.92 Z" />
<path fill="#f9deb7" opacity="1.00" d=" M 77.51 41.80 C 80.37 45.73 81.22 50.58 81.04 55.35 C 80.70 56.47 80.34 57.58 79.97 58.70 C 79.13 59.79 78.40 61.04 77.18 61.77 C 76.63 62.00 75.54 62.48 74.99 62.72 C 73.76 60.46 72.62 57.93 70.29 56.58 C 67.49 54.53 63.89 54.51 60.59 54.13 C 63.33 53.30 67.52 53.37 67.39 49.51 C 69.11 49.73 70.97 50.69 72.61 49.69 C 75.65 48.25 76.77 44.83 77.51 41.80 Z" />
<path fill="#f9deb7" opacity="1.00" d=" M 42.37 47.02 C 42.64 47.89 42.90 48.76 43.17 49.62 C 44.17 50.16 44.91 50.94 45.38 51.97 C 46.03 51.99 47.34 52.02 47.99 52.04 C 48.24 51.04 48.50 50.05 48.77 49.06 C 50.51 49.71 52.42 50.58 54.24 49.59 C 53.93 48.92 53.30 47.56 52.99 46.89 C 53.79 46.94 55.41 47.04 56.22 47.09 C 55.96 48.35 55.69 49.61 55.43 50.87 C 57.61 50.79 59.32 51.63 60.34 53.58 C 57.41 54.03 54.43 55.27 51.45 54.43 C 48.23 53.53 44.87 53.80 41.67 54.63 C 41.08 54.09 40.49 53.56 39.87 53.06 C 40.56 52.32 41.26 51.59 41.96 50.87 C 42.10 49.59 42.23 48.30 42.37 47.02 Z" />
<path fill="#f9deb7" opacity="1.00" d=" M 41.16 61.31 C 42.02 61.03 42.88 60.72 43.73 60.40 C 46.89 62.15 50.59 61.56 54.04 61.69 C 53.68 61.91 52.95 62.34 52.59 62.55 C 49.20 62.98 45.67 63.17 42.65 64.95 C 43.80 66.58 44.87 68.31 46.35 69.69 C 48.87 72.17 52.94 72.38 56.11 71.18 C 58.90 68.99 59.19 65.12 60.08 61.94 C 60.46 62.22 61.22 62.78 61.60 63.06 C 61.04 64.40 61.05 65.75 61.65 67.09 C 60.99 68.71 59.45 70.40 60.76 72.15 C 59.14 74.60 57.72 77.17 56.60 79.89 C 54.86 79.41 53.12 78.95 51.37 78.48 C 52.02 79.46 52.66 80.44 53.28 81.43 C 53.02 82.29 52.77 83.16 52.52 84.02 C 52.38 83.44 52.11 82.28 51.98 81.69 C 51.54 81.86 50.68 82.20 50.25 82.37 C 46.25 80.78 44.73 76.54 41.43 74.13 C 40.70 69.88 40.58 65.59 41.16 61.31 Z" />
</g>
<g id="#fef2c8ff">
<path fill="#fef2c8" opacity="1.00" d=" M 47.07 37.97 C 48.22 35.97 49.82 34.19 52.06 33.43 C 55.31 36.36 51.10 39.60 49.02 41.63 C 48.33 40.73 47.65 39.83 46.96 38.93 L 47.07 37.97 Z" />
<path fill="#fef2c8" opacity="1.00" d=" M 64.01 41.31 C 66.30 40.10 68.52 38.59 71.10 38.08 C 73.80 37.67 76.16 39.64 77.51 41.80 C 76.77 44.83 75.65 48.25 72.61 49.69 C 70.97 50.69 69.11 49.73 67.39 49.51 C 66.61 46.64 65.32 43.96 64.01 41.31 Z" />
<path fill="#fef2c8" opacity="1.00" d=" M 57.84 59.22 C 58.71 59.59 59.59 59.95 60.47 60.31 C 60.38 60.72 60.18 61.53 60.08 61.94 C 59.19 65.12 58.90 68.99 56.11 71.18 C 52.94 72.38 48.87 72.17 46.35 69.69 C 44.87 68.31 43.80 66.58 42.65 64.95 C 45.67 63.17 49.20 62.98 52.59 62.55 C 52.95 62.34 53.68 61.91 54.04 61.69 C 55.34 60.91 56.57 60.04 57.84 59.22 Z" />
</g>
</svg>
