<?xml version="1.0" encoding="UTF-8" ?>
<!DOCTYPE svg PUBLIC "-//W3C//DTD SVG 1.1//EN" "http://www.w3.org/Graphics/SVG/1.1/DTD/svg11.dtd">
<svg width="120pt" height="120pt" viewBox="0 0 120 120" version="1.1" xmlns="http://www.w3.org/2000/svg">
<g id="#2c637aff">
<path fill="#2c637a" opacity="1.00" d=" M 42.17 14.10 L 43.23 14.22 C 43.03 15.95 42.95 17.69 42.81 19.42 C 42.29 21.41 42.02 23.45 41.74 25.48 C 41.37 27.07 41.06 28.67 40.76 30.27 C 39.81 29.82 38.86 29.37 37.91 28.91 C 39.01 32.66 39.81 36.48 40.42 40.34 C 42.32 39.48 44.60 38.79 45.54 36.71 C 46.81 33.04 47.26 29.13 47.20 25.26 C 45.75 27.00 44.49 28.98 44.86 31.35 C 43.77 25.12 44.17 18.79 44.12 12.50 C 45.79 16.52 44.68 21.00 44.83 25.21 C 45.15 25.09 45.80 24.84 46.12 24.71 C 46.82 23.71 47.76 23.12 48.94 22.92 C 48.10 25.83 47.73 28.83 47.97 31.86 C 48.83 32.24 49.70 32.63 50.56 33.03 C 51.93 31.31 53.78 33.95 55.22 34.28 C 55.74 34.47 56.77 34.83 57.28 35.02 C 57.07 34.49 56.64 33.43 56.42 32.90 L 55.97 32.20 C 56.38 31.54 57.19 30.22 57.60 29.57 C 58.04 31.98 58.02 34.45 57.85 36.89 C 59.73 37.97 61.64 39.00 63.53 40.06 C 64.00 40.15 64.95 40.33 65.42 40.42 C 66.79 41.18 68.36 41.18 69.88 41.29 C 69.91 41.98 69.99 43.36 70.03 44.05 L 69.37 43.73 C 69.29 41.60 66.71 41.91 65.24 42.02 C 62.02 40.61 58.92 38.91 56.12 36.78 C 53.59 34.75 50.41 33.98 47.37 33.07 C 47.33 33.31 47.24 33.80 47.20 34.05 C 47.06 34.76 46.80 36.18 46.66 36.89 C 45.51 38.26 44.24 39.53 42.99 40.82 C 43.93 42.37 44.87 43.93 45.80 45.50 C 43.55 44.03 41.49 42.08 38.90 41.23 C 36.28 40.85 33.63 41.03 31.00 41.00 C 30.97 45.83 31.01 50.66 31.36 55.48 C 33.61 54.05 35.87 52.61 38.08 51.11 C 43.69 47.28 48.99 42.77 55.50 40.51 C 54.55 42.43 53.54 44.31 52.53 46.20 C 54.99 46.66 57.47 46.97 59.96 47.21 C 60.03 47.87 60.19 49.19 60.27 49.86 C 60.54 49.86 61.10 49.87 61.38 49.87 L 62.50 50.74 C 61.83 50.78 60.49 50.86 59.82 50.90 L 59.87 51.93 C 60.47 52.08 61.67 52.39 62.27 52.54 L 62.96 53.55 C 58.76 55.89 54.37 57.88 50.16 60.22 C 50.17 60.89 50.18 62.24 50.18 62.91 C 51.58 63.13 52.98 63.35 54.39 63.57 C 53.60 63.67 52.04 63.88 51.26 63.99 C 51.14 65.29 51.03 66.60 50.91 67.90 C 52.81 69.04 54.59 70.68 56.78 71.15 C 57.02 69.86 57.12 68.56 57.09 67.25 C 59.26 65.04 61.88 63.34 64.89 62.53 L 64.71 65.21 C 64.52 66.33 64.33 67.45 64.14 68.58 C 64.89 68.64 66.39 68.75 67.14 68.81 L 67.03 70.02 C 66.51 70.00 65.48 69.96 64.96 69.94 C 63.38 69.33 62.42 71.13 63.58 72.23 C 63.84 73.29 64.08 74.36 64.31 75.43 C 66.74 76.28 69.17 77.28 71.13 79.01 C 72.14 80.15 73.15 81.29 74.11 82.47 C 74.13 82.94 74.16 83.86 74.17 84.33 C 74.66 84.02 75.64 83.39 76.13 83.08 C 76.23 83.36 76.42 83.93 76.52 84.21 C 76.67 84.72 76.97 85.76 77.12 86.27 C 74.90 88.13 74.83 91.25 72.90 93.31 C 73.34 92.19 73.74 91.06 74.11 89.92 L 74.32 88.53 C 73.94 86.62 73.33 84.76 72.43 83.03 C 71.93 82.86 70.93 82.53 70.42 82.36 C 70.86 82.21 71.74 81.92 72.18 81.78 C 69.71 80.00 67.19 78.30 64.56 76.79 C 65.87 78.86 67.33 80.84 68.66 82.91 C 68.90 84.79 68.99 86.69 69.12 88.59 C 70.02 87.63 70.92 86.67 71.81 85.71 C 70.86 87.74 69.64 89.62 68.52 91.56 C 69.79 91.05 71.06 90.52 72.32 89.96 C 69.58 92.37 67.30 95.24 65.54 98.44 C 67.43 97.35 69.36 96.29 71.13 95.00 C 70.00 96.39 68.89 98.06 66.91 98.20 C 67.49 100.15 68.42 102.27 67.34 104.23 C 67.43 103.05 67.10 102.00 66.35 101.08 C 65.85 102.26 65.73 103.48 65.98 104.72 L 66.16 105.83 C 64.61 105.86 63.07 105.90 61.52 105.93 C 60.71 104.21 59.86 102.51 58.99 100.82 C 55.98 103.59 52.50 100.22 49.33 99.59 C 47.02 97.20 44.12 95.18 42.76 92.04 C 42.44 92.00 41.81 91.93 41.49 91.90 C 40.82 90.43 40.13 88.97 39.44 87.52 C 38.94 85.75 38.35 84.00 37.75 82.26 C 37.36 83.43 37.01 84.62 36.71 85.82 L 35.92 85.96 C 36.04 85.50 36.29 84.57 36.41 84.11 C 35.93 84.27 34.97 84.60 34.49 84.76 C 34.04 84.46 33.13 83.88 32.68 83.58 C 32.99 84.19 33.61 85.39 33.93 86.00 C 30.03 86.08 26.13 85.96 22.26 85.48 C 25.94 88.19 30.70 87.02 34.93 87.06 L 34.95 87.96 C 30.71 87.51 26.17 88.79 22.16 87.05 C 22.42 84.05 21.52 80.72 23.22 78.04 C 23.08 77.35 22.81 75.98 22.68 75.30 C 22.59 74.93 22.43 74.19 22.35 73.82 C 21.83 71.12 20.20 68.08 21.95 65.50 C 21.19 63.44 20.37 61.40 19.33 59.47 C 19.27 58.39 19.21 57.31 19.15 56.23 C 18.65 55.84 17.66 55.07 17.16 54.68 C 17.18 54.13 17.22 53.04 17.24 52.49 C 16.23 51.08 15.21 49.69 14.13 48.34 C 14.93 47.63 15.72 46.92 16.52 46.21 C 15.39 44.18 12.96 41.95 15.25 39.69 C 16.80 41.77 18.25 43.94 19.45 46.24 C 21.16 46.20 22.90 46.35 24.59 46.02 C 25.85 45.03 27.02 43.90 27.96 42.59 C 29.02 37.59 28.04 31.60 31.84 27.62 C 32.42 31.94 30.97 36.10 30.73 40.37 C 32.34 40.21 34.07 40.34 35.48 39.39 C 36.83 41.06 38.10 39.97 39.13 38.61 C 38.43 36.18 38.46 33.50 37.13 31.28 C 36.88 29.37 38.12 28.19 39.89 27.83 C 40.30 26.95 40.71 26.07 41.13 25.19 C 41.22 23.13 40.97 20.92 42.15 19.11 C 42.19 17.44 42.19 15.77 42.17 14.10 M 30.18 32.31 C 28.49 35.15 33.49 32.63 30.18 32.31 M 27.22 56.83 C 23.52 55.29 21.81 51.46 19.59 48.40 C 19.39 48.05 19.00 47.35 18.80 47.00 L 17.97 46.99 C 20.16 51.28 22.43 55.53 24.32 59.96 C 24.82 59.89 25.82 59.74 26.31 59.67 C 26.07 60.13 25.59 61.05 25.35 61.51 C 25.63 61.81 26.17 62.41 26.44 62.71 C 32.24 63.66 35.02 57.96 39.04 55.07 C 44.19 51.47 48.26 46.59 53.27 42.80 C 45.07 46.99 38.20 53.42 29.96 57.52 C 29.35 50.93 30.18 44.31 29.63 37.71 C 28.90 44.09 27.80 50.43 27.22 56.83 M 20.59 47.08 C 21.26 48.85 22.66 50.04 24.27 50.94 C 24.50 49.66 24.73 48.37 24.95 47.09 C 23.50 47.08 22.04 47.07 20.59 47.08 M 49.45 47.53 C 46.32 50.42 43.55 53.69 40.03 56.15 C 38.69 57.55 35.70 58.60 36.41 60.94 C 34.85 58.92 33.07 62.76 35.56 62.68 C 31.62 63.30 25.71 66.76 23.14 62.00 C 23.08 61.89 22.96 61.67 22.90 61.56 L 22.49 60.81 C 22.37 61.51 22.11 62.92 21.99 63.62 C 22.96 64.75 23.67 66.21 25.00 66.96 C 26.90 67.04 28.75 66.53 30.59 66.17 C 33.79 67.90 37.26 69.38 39.91 71.92 C 40.13 73.25 40.30 74.58 40.41 75.92 L 40.46 75.85 C 41.51 74.32 42.62 72.83 43.75 71.36 C 44.13 71.93 44.89 73.09 45.27 73.66 C 43.00 70.11 47.37 67.51 50.24 66.63 C 49.77 64.44 48.25 62.79 46.77 61.20 C 49.36 58.64 52.51 56.76 55.95 55.58 C 55.96 55.01 55.98 53.88 55.99 53.32 C 53.89 52.79 51.82 52.17 49.81 51.38 C 52.50 50.72 55.06 52.15 57.72 51.99 C 58.98 51.06 58.98 49.46 59.25 48.07 C 57.36 48.01 55.48 47.94 53.60 47.80 C 52.36 47.35 50.61 46.36 49.45 47.53 M 18.16 52.32 C 17.54 53.40 18.77 55.27 20.02 54.94 C 20.54 53.87 19.44 51.85 18.16 52.32 M 57.61 54.25 C 58.15 54.79 58.15 54.79 57.61 54.25 M 20.02 54.94 C 20.59 55.57 20.59 55.57 20.02 54.94 M 61.16 65.64 C 58.78 65.43 58.31 68.24 58.77 69.99 C 57.67 70.71 56.74 72.24 55.22 71.90 C 52.95 71.39 51.23 69.64 49.36 68.36 C 48.19 69.42 47.02 70.49 45.84 71.55 C 48.67 73.40 51.15 75.70 53.82 77.76 C 55.59 76.45 57.37 75.15 59.12 73.80 L 59.07 73.22 C 61.38 71.37 62.87 68.65 61.68 65.66 C 61.55 65.65 61.29 65.65 61.16 65.64 M 22.00 67.08 C 22.00 67.80 22.00 69.24 22.00 69.96 C 22.48 69.82 23.45 69.52 23.93 69.37 C 27.78 70.50 31.85 69.79 35.71 70.86 C 34.37 69.90 33.03 68.95 31.69 68.00 C 28.46 67.85 25.01 68.62 22.00 67.08 M 27.20 75.45 C 27.10 75.99 26.91 77.05 26.82 77.58 C 26.32 79.06 25.86 80.55 25.39 82.04 C 27.04 83.37 28.99 84.30 31.15 83.85 C 32.09 82.86 32.93 81.77 33.79 80.71 C 33.87 81.39 34.03 82.73 34.11 83.41 C 35.90 80.61 36.78 77.37 37.03 74.08 C 35.84 73.35 34.67 72.61 33.48 71.89 C 32.86 72.82 32.15 73.68 31.35 74.47 C 31.11 73.49 30.63 71.53 30.39 70.55 C 29.25 72.13 28.19 73.77 27.20 75.45 M 37.17 72.18 C 37.34 72.35 37.68 72.69 37.85 72.85 C 37.68 72.69 37.34 72.35 37.17 72.18 C 36.50 71.51 36.50 71.51 37.17 72.18 M 61.18 72.11 C 61.12 72.42 61.00 73.04 60.94 73.35 C 59.70 74.76 59.44 76.34 60.17 78.10 C 59.86 77.58 59.24 76.54 58.93 76.02 C 57.36 76.76 55.76 77.46 54.21 78.27 C 54.03 81.31 57.53 83.30 57.35 86.51 C 57.74 87.79 58.12 89.08 58.49 90.37 C 60.15 89.25 62.15 87.83 62.29 85.67 C 62.54 86.19 63.04 87.24 63.29 87.77 C 64.75 89.07 66.97 90.05 67.15 92.26 C 65.74 91.05 64.38 89.76 62.83 88.72 C 61.15 89.12 60.11 90.66 59.06 91.91 C 59.88 94.37 60.88 96.77 61.65 99.25 C 64.47 98.62 66.95 96.18 67.33 93.28 C 68.27 91.06 68.27 88.64 68.19 86.28 L 67.35 86.03 C 67.07 84.23 67.14 82.22 65.68 80.89 C 63.78 81.67 63.53 83.69 64.76 85.22 C 60.25 84.40 65.98 80.01 63.57 77.52 C 63.56 77.48 63.52 77.42 63.51 77.38 L 62.63 75.94 C 63.64 74.79 62.99 71.84 61.18 72.11 M 37.85 72.85 C 38.52 73.52 38.52 73.52 37.85 72.85 M 45.27 73.66 C 45.89 73.59 45.89 73.59 45.27 73.66 M 24.28 74.29 C 24.82 74.82 24.82 74.82 24.28 74.29 M 43.36 73.91 C 42.92 74.53 42.02 75.75 41.57 76.37 L 40.46 75.85 C 41.61 77.64 43.96 77.47 45.45 78.80 C 43.82 78.74 42.16 78.58 40.71 77.77 C 40.35 77.83 39.63 77.97 39.27 78.03 C 39.07 77.45 38.68 76.28 38.48 75.69 C 37.92 77.18 37.35 78.66 36.79 80.15 L 38.02 80.11 L 38.31 77.59 C 39.63 79.69 38.94 82.31 39.27 84.64 L 39.94 83.54 C 39.96 84.31 40.01 85.84 40.03 86.61 C 40.83 88.03 41.60 89.46 42.34 90.91 C 44.46 91.63 46.59 92.33 48.73 92.99 C 51.24 92.07 55.57 93.47 56.37 90.23 L 55.34 90.13 C 54.81 85.15 52.03 81.05 48.64 77.56 C 46.91 76.29 45.16 75.07 43.36 73.91 M 47.97 74.99 C 48.52 75.51 48.52 75.51 47.97 74.99 C 47.41 74.46 47.41 74.46 47.97 74.99 M 36.25 81.87 C 36.81 82.44 36.81 82.44 36.25 81.87 M 24.23 83.23 C 24.83 83.82 24.83 83.82 24.23 83.23 M 55.12 84.23 C 53.43 87.13 58.42 84.57 55.12 84.23 M 75.23 85.76 C 75.82 86.36 75.82 86.36 75.23 85.76 M 56.28 88.24 C 56.74 88.78 56.74 88.78 56.28 88.24 M 57.33 91.28 C 57.81 91.80 57.81 91.80 57.33 91.28 M 44.36 92.57 C 46.16 94.81 48.11 96.93 50.24 98.86 C 53.24 99.01 56.50 102.91 58.99 99.86 C 58.00 97.64 57.28 95.30 56.89 92.90 C 52.73 93.67 48.40 94.18 44.36 92.57 M 58.30 94.22 C 58.77 94.75 58.77 94.75 58.30 94.22 M 59.24 97.28 C 59.76 97.75 59.76 97.75 59.24 97.28 M 60.26 100.32 C 60.74 100.83 60.74 100.83 60.26 100.32 M 61.62 99.94 C 62.50 101.43 62.47 105.33 65.10 104.01 C 65.21 102.64 65.28 101.26 65.31 99.89 C 64.39 99.90 62.54 99.93 61.62 99.94 Z" />
<path fill="#2c637a" opacity="1.00" d=" M 71.45 23.47 C 70.47 21.96 73.11 21.32 73.63 20.40 C 73.26 20.94 72.51 22.00 72.14 22.53 C 72.42 22.84 72.99 23.45 73.28 23.76 C 72.79 27.63 73.02 31.56 74.13 35.32 C 73.08 34.83 72.00 34.43 70.90 34.10 C 71.93 37.53 73.15 40.99 75.09 44.02 C 77.17 44.02 78.43 41.70 80.05 40.61 C 80.12 37.62 80.16 34.62 80.18 31.63 C 79.26 32.49 78.35 33.35 77.44 34.20 C 76.84 32.42 76.26 30.63 75.71 28.84 C 75.39 29.02 74.74 29.40 74.41 29.59 C 74.44 28.38 74.46 27.17 74.48 25.96 C 74.68 26.66 75.09 28.05 75.30 28.74 C 75.70 27.62 76.10 26.49 76.49 25.35 C 75.77 25.18 74.31 24.84 73.58 24.67 C 74.74 24.16 75.88 23.64 77.03 23.11 C 77.03 26.31 76.26 29.78 78.17 32.64 C 78.84 31.89 80.16 30.40 80.83 29.66 C 80.98 32.87 80.99 36.09 80.89 39.30 C 83.54 37.91 86.47 36.51 89.25 38.46 C 89.26 37.75 89.28 36.32 89.29 35.61 C 90.54 33.34 91.28 30.81 92.75 28.66 C 92.83 31.99 93.35 35.27 94.22 38.48 C 94.59 39.55 94.95 40.63 95.30 41.70 C 98.70 47.02 103.23 53.65 99.87 60.06 C 101.33 62.80 102.31 65.76 103.65 68.56 C 103.76 69.04 103.98 69.99 104.10 70.47 C 104.62 71.81 105.12 73.17 105.66 74.51 C 106.86 78.62 107.77 82.84 108.12 87.11 C 104.00 85.68 99.65 85.04 95.53 83.59 C 93.77 82.66 91.96 83.88 90.21 84.17 C 90.22 83.30 90.23 81.56 90.24 80.69 C 88.18 83.04 85.60 81.33 83.50 80.12 C 81.85 79.98 80.20 79.71 78.85 78.67 C 78.82 78.65 78.76 78.62 78.72 78.60 C 78.74 75.58 77.51 72.75 75.25 70.72 C 76.00 70.91 77.49 71.29 78.23 71.48 C 78.30 71.87 78.44 72.64 78.51 73.02 C 78.84 72.82 79.49 72.43 79.81 72.23 C 80.16 72.03 80.84 71.63 81.19 71.43 C 81.26 71.32 81.40 71.09 81.47 70.98 C 81.16 70.44 80.52 69.34 80.20 68.80 C 80.53 67.65 80.81 66.48 81.07 65.31 L 81.87 65.45 C 81.80 64.93 81.65 63.88 81.57 63.35 C 79.85 61.76 78.19 59.88 75.86 59.21 C 73.40 58.22 70.31 58.33 68.56 56.06 C 68.19 56.76 67.81 57.46 67.44 58.16 L 67.00 58.99 C 67.25 57.37 67.12 55.64 67.83 54.13 L 67.99 54.64 L 68.45 54.46 L 68.38 53.85 C 68.57 53.29 68.96 52.17 69.16 51.62 L 69.25 51.75 C 70.46 53.86 70.92 57.19 73.88 57.49 C 75.49 58.16 76.64 56.51 77.82 55.70 C 77.44 56.64 77.08 57.59 76.72 58.53 C 77.55 58.76 79.22 59.23 80.05 59.46 C 80.31 59.58 80.82 59.83 81.08 59.96 C 82.84 56.60 83.29 52.80 82.08 49.17 L 82.96 50.29 C 83.17 50.56 83.60 51.09 83.81 51.36 C 84.08 51.58 84.62 52.02 84.89 52.24 C 84.34 53.60 83.97 55.02 83.58 56.43 C 82.95 58.65 81.65 60.97 82.81 63.26 C 82.78 63.76 82.73 64.76 82.70 65.26 C 82.26 67.09 82.00 68.96 81.76 70.84 C 85.64 67.20 88.47 62.60 92.55 59.15 C 90.94 56.66 89.29 54.19 87.54 51.80 C 88.13 51.89 89.31 52.07 89.90 52.16 C 90.64 53.60 91.55 54.96 92.60 56.20 C 94.19 55.84 96.94 57.32 97.87 55.60 C 97.99 55.23 98.23 54.51 98.36 54.15 C 99.18 54.69 100.22 54.39 99.75 53.20 C 99.45 51.46 98.13 50.16 96.77 49.15 C 96.62 47.78 96.39 46.43 96.22 45.07 L 96.16 44.50 C 95.46 43.36 94.50 42.52 93.28 41.99 L 92.70 41.97 C 91.68 41.09 90.66 40.20 89.65 39.31 C 87.88 38.93 86.11 38.55 84.34 38.22 C 85.47 40.45 87.97 40.91 90.11 41.69 C 88.44 41.59 87.82 42.29 88.23 43.78 C 88.54 44.79 88.87 45.79 89.21 46.79 L 88.15 47.09 C 86.64 44.12 85.41 40.28 81.60 39.71 C 80.15 41.51 78.65 43.26 77.12 44.99 C 75.90 45.02 74.67 45.05 73.45 45.09 C 73.19 43.91 72.91 42.75 72.61 41.58 C 72.32 41.07 71.76 40.05 71.48 39.53 C 71.14 38.40 70.69 37.31 70.12 36.27 C 70.12 34.73 70.80 33.44 72.12 32.61 C 72.19 29.56 72.67 26.37 71.45 23.47 M 91.21 33.00 C 90.79 34.54 90.32 36.05 89.89 37.59 C 91.35 38.98 92.79 40.38 94.27 41.76 C 93.62 39.62 93.09 37.45 92.31 35.35 C 92.26 34.76 92.14 33.59 92.08 33.00 L 91.21 33.00 M 92.53 56.90 C 94.04 58.99 96.42 60.27 99.04 59.79 C 98.27 56.66 95.27 56.45 92.53 56.90 M 93.42 64.35 C 92.60 65.89 92.71 68.02 93.51 69.55 C 94.79 68.79 94.85 65.01 93.42 64.35 M 82.86 72.81 C 81.64 74.09 80.04 75.22 79.62 77.05 C 80.42 77.74 81.24 79.73 82.54 78.78 C 83.91 77.57 84.69 79.50 85.66 80.14 C 85.97 79.78 86.59 79.05 86.90 78.68 C 86.96 79.34 87.08 80.66 87.14 81.32 C 88.41 80.82 89.68 80.31 90.96 79.82 C 91.05 78.73 91.16 77.65 91.27 76.57 C 92.82 72.80 91.70 68.59 91.63 64.65 C 88.40 67.03 85.76 70.07 82.86 72.81 M 98.37 65.89 C 98.10 67.86 97.52 69.77 96.86 71.64 C 96.30 73.28 95.90 74.96 95.42 76.61 C 95.00 77.62 94.58 78.62 94.16 79.62 C 94.11 80.32 94.00 81.71 93.94 82.41 C 94.39 82.03 95.29 81.25 95.74 80.86 C 95.89 81.46 96.18 82.65 96.32 83.24 C 97.17 82.86 98.02 82.47 98.86 82.07 C 98.66 84.11 100.24 84.76 101.56 83.15 C 102.35 83.88 103.15 84.62 103.95 85.35 C 104.54 85.01 105.74 84.32 106.34 83.97 C 106.02 83.16 105.68 82.34 105.35 81.53 C 104.99 80.49 104.63 79.46 104.25 78.44 C 104.13 77.95 103.90 76.98 103.78 76.50 C 102.71 74.64 101.85 72.66 101.58 70.52 C 102.77 70.02 102.74 68.98 101.56 68.49 C 101.87 67.16 100.94 66.77 99.54 67.47 C 99.25 67.08 98.67 66.29 98.37 65.89 Z" />
<path fill="#2c637a" opacity="1.00" d=" M 90.22 43.77 C 90.37 43.60 90.66 43.25 90.80 43.08 L 90.85 43.67 L 90.22 43.77 Z" />
<path fill="#2c637a" opacity="1.00" d=" M 83.08 45.73 C 83.62 45.58 84.70 45.27 85.24 45.12 L 84.92 45.88 C 84.46 45.84 83.54 45.77 83.08 45.73 Z" />
<path fill="#2c637a" opacity="1.00" d=" M 66.15 50.03 C 68.49 49.01 71.02 48.04 72.35 45.69 C 71.55 47.70 70.66 49.69 69.42 51.47 C 69.36 51.51 69.23 51.58 69.16 51.62 C 68.30 51.96 67.46 52.31 66.62 52.68 C 65.87 52.21 65.12 51.74 64.37 51.29 C 64.54 51.85 64.89 52.95 65.07 53.50 C 64.22 53.03 62.51 52.10 61.66 51.63 C 62.96 50.61 64.54 50.20 66.15 50.03 Z" />
<path fill="#2c637a" opacity="1.00" d=" M 74.46 46.18 C 75.67 45.28 76.37 45.51 76.56 46.87 C 75.36 47.77 74.66 47.54 74.46 46.18 Z" />
<path fill="#2c637a" opacity="1.00" d=" M 78.05 55.14 C 78.00 53.41 78.71 52.63 80.16 52.80 C 79.98 53.99 79.28 54.77 78.05 55.14 Z" />
<path fill="#2c637a" opacity="1.00" d=" M 63.54 55.59 L 64.17 54.87 C 63.82 56.33 63.45 57.79 63.03 59.24 C 64.12 59.65 65.21 60.05 66.30 60.42 C 66.08 60.97 65.64 62.06 65.41 62.61 L 64.98 63.81 C 64.98 63.28 64.98 62.21 64.98 61.68 C 63.91 60.85 62.83 60.05 61.75 59.24 C 62.35 58.02 62.93 56.80 63.54 55.59 Z" />
<path fill="#2c637a" opacity="1.00" d=" M 29.14 59.58 C 30.54 59.77 30.76 60.45 29.81 61.60 C 28.42 61.41 28.19 60.73 29.14 59.58 Z" />
<path fill="#2c637a" opacity="1.00" d=" M 39.15 62.19 C 38.83 60.97 38.85 59.78 39.20 58.60 C 41.19 59.13 41.61 62.15 39.15 62.19 Z" />
<path fill="#2c637a" opacity="1.00" d=" M 74.27 68.43 C 74.07 65.56 76.76 64.45 78.90 63.44 C 78.83 65.60 78.59 67.76 78.20 69.90 C 78.12 68.07 78.03 66.25 77.94 64.43 C 76.68 65.73 75.42 67.04 74.27 68.43 Z" />
<path fill="#2c637a" opacity="1.00" d=" M 69.19 69.20 C 70.86 68.77 72.64 68.82 74.21 69.58 C 74.40 69.79 74.77 70.20 74.96 70.41 C 72.97 71.24 70.67 70.78 69.19 69.20 Z" />
<path fill="#2c637a" opacity="1.00" d=" M 40.17 70.35 C 40.68 70.85 40.68 70.85 40.17 70.35 Z" />
<path fill="#2c637a" opacity="1.00" d=" M 19.33 75.26 L 20.17 75.15 C 19.96 75.60 19.54 76.51 19.33 76.96 C 19.33 76.54 19.33 75.68 19.33 75.26 Z" />
<path fill="#2c637a" opacity="1.00" d=" M 73.99 75.98 C 74.68 74.45 75.28 74.40 75.80 75.83 C 75.35 75.87 74.44 75.94 73.99 75.98 Z" />
<path fill="#2c637a" opacity="1.00" d=" M 70.93 77.99 C 70.75 76.58 71.42 75.90 72.92 75.96 C 72.92 77.28 72.25 77.96 70.93 77.99 Z" />
<path fill="#2c637a" opacity="1.00" d=" M 20.16 78.30 L 20.31 78.13 C 20.25 78.23 20.14 78.43 20.08 78.53 L 20.16 78.30 Z" />
<path fill="#2c637a" opacity="1.00" d=" M 60.36 78.43 L 60.52 78.65 L 60.65 79.00 C 60.57 78.86 60.43 78.58 60.36 78.43 Z" />
<path fill="#2c637a" opacity="1.00" d=" M 17.87 78.51 L 18.29 79.70 C 18.43 80.19 18.70 81.17 18.83 81.66 C 18.87 81.80 18.95 82.09 18.99 82.24 C 17.51 83.96 18.06 86.33 17.55 88.37 C 16.86 90.98 16.82 93.68 16.82 96.36 C 15.17 98.83 16.72 102.23 14.42 104.40 C 13.31 103.90 12.19 103.40 11.09 102.89 C 11.32 100.96 10.76 98.72 12.16 97.14 C 12.66 97.43 13.67 98.03 14.17 98.32 C 14.19 96.43 14.20 94.55 14.18 92.66 C 14.45 92.32 14.98 91.64 15.25 91.29 C 15.04 87.97 15.19 84.60 16.38 81.45 C 16.76 80.72 17.50 79.25 17.87 78.51 M 16.28 84.31 C 15.58 85.45 15.59 86.58 16.31 87.71 C 17.73 87.78 17.71 84.22 16.28 84.31 M 15.75 95.69 C 16.52 94.60 16.54 93.48 15.80 92.35 C 14.36 92.16 14.36 95.71 15.75 95.69 M 14.45 99.34 C 13.70 100.29 13.04 101.76 13.46 102.96 C 15.19 103.48 16.11 99.65 14.45 99.34 Z" />
<path fill="#2c637a" opacity="1.00" d=" M 61.33 80.98 L 61.50 81.32 L 61.56 81.65 C 61.50 81.48 61.39 81.15 61.33 80.98 Z" />
</g>
<g id="#dfe3ecff">
<path fill="#dfe3ec" opacity="1.00" d=" M 43.23 14.22 L 44.12 12.50 C 44.17 18.79 43.77 25.12 44.86 31.35 C 44.49 28.98 45.75 27.00 47.20 25.26 C 47.26 29.13 46.81 33.04 45.54 36.71 C 44.60 38.79 42.32 39.48 40.42 40.34 C 39.81 36.48 39.01 32.66 37.91 28.91 C 38.86 29.37 39.81 29.82 40.76 30.27 C 41.06 28.67 41.37 27.07 41.74 25.48 C 42.02 23.45 42.29 21.41 42.81 19.42 C 42.95 17.69 43.03 15.95 43.23 14.22 Z" />
<path fill="#dfe3ec" opacity="1.00" d=" M 73.63 20.40 C 73.59 21.83 73.57 23.25 73.58 24.67 C 74.31 24.84 75.77 25.18 76.49 25.35 C 76.10 26.49 75.70 27.62 75.30 28.74 C 75.09 28.05 74.68 26.66 74.48 25.96 C 74.46 27.17 74.44 28.38 74.41 29.59 C 74.74 29.40 75.39 29.02 75.71 28.84 C 76.26 30.63 76.84 32.42 77.44 34.20 C 78.35 33.35 79.26 32.49 80.18 31.63 C 80.16 34.62 80.12 37.62 80.05 40.61 C 78.43 41.70 77.17 44.02 75.09 44.02 C 73.15 40.99 71.93 37.53 70.90 34.10 C 72.00 34.43 73.08 34.83 74.13 35.32 C 73.02 31.56 72.79 27.63 73.28 23.76 C 72.99 23.45 72.42 22.84 72.14 22.53 C 72.51 22.00 73.26 20.94 73.63 20.40 Z" />
<path fill="#dfe3ec" opacity="1.00" d=" M 30.18 32.31 C 33.49 32.63 28.49 35.15 30.18 32.31 Z" />
<path fill="#dfe3ec" opacity="1.00" d=" M 47.37 33.07 C 50.41 33.98 53.59 34.75 56.12 36.78 C 53.41 35.16 50.31 34.42 47.20 34.05 C 47.24 33.80 47.33 33.31 47.37 33.07 Z" />
<path fill="#dfe3ec" opacity="1.00" d=" M 55.22 34.28 C 55.52 33.94 56.12 33.25 56.42 32.90 C 56.64 33.43 57.07 34.49 57.28 35.02 C 56.77 34.83 55.74 34.47 55.22 34.28 Z" />
<path fill="#dfe3ec" opacity="1.00" d=" M 91.21 33.00 L 92.08 33.00 C 92.14 33.59 92.26 34.76 92.31 35.35 C 93.09 37.45 93.62 39.62 94.27 41.76 C 92.79 40.38 91.35 38.98 89.89 37.59 C 90.32 36.05 90.79 34.54 91.21 33.00 Z" />
<path fill="#dfe3ec" opacity="1.00" d=" M 65.24 42.02 C 66.71 41.91 69.29 41.60 69.37 43.73 C 67.72 44.27 66.26 43.20 65.24 42.02 Z" />
<path fill="#dfe3ec" opacity="1.00" d=" M 64.37 51.29 C 65.12 51.74 65.87 52.21 66.62 52.68 C 65.77 53.38 64.95 54.11 64.17 54.87 L 63.54 55.59 C 62.93 56.80 62.35 58.02 61.75 59.24 C 62.83 60.05 63.91 60.85 64.98 61.68 C 64.98 62.21 64.98 63.28 64.98 63.81 C 64.92 64.16 64.78 64.86 64.71 65.21 L 64.89 62.53 C 61.88 63.34 59.26 65.04 57.09 67.25 C 57.12 68.56 57.02 69.86 56.78 71.15 C 54.59 70.68 52.81 69.04 50.91 67.90 C 51.03 66.60 51.14 65.29 51.26 63.99 C 52.04 63.88 53.60 63.67 54.39 63.57 C 52.98 63.35 51.58 63.13 50.18 62.91 C 50.18 62.24 50.17 60.89 50.16 60.22 C 54.37 57.88 58.76 55.89 62.96 53.55 L 62.27 52.54 L 61.66 51.63 C 62.51 52.10 64.22 53.03 65.07 53.50 C 64.89 52.95 64.54 51.85 64.37 51.29 Z" />
<path fill="#dfe3ec" opacity="1.00" d=" M 36.41 60.94 C 35.70 58.60 38.69 57.55 40.03 56.15 C 39.82 56.76 39.41 57.99 39.20 58.60 C 38.85 59.78 38.83 60.97 39.15 62.19 L 38.78 63.01 C 38.16 62.88 36.92 62.61 36.31 62.48 L 36.44 61.85 C 36.45 61.75 36.46 61.54 36.47 61.44 L 36.41 60.94 Z" />
<path fill="#dfe3ec" opacity="1.00" d=" M 82.86 72.81 C 85.76 70.07 88.40 67.03 91.63 64.65 C 91.70 68.59 92.82 72.80 91.27 76.57 C 91.16 77.65 91.05 78.73 90.96 79.82 C 89.68 80.31 88.41 80.82 87.14 81.32 C 87.08 80.66 86.96 79.34 86.90 78.68 C 86.59 79.05 85.97 79.78 85.66 80.14 C 84.69 79.50 83.91 77.57 82.54 78.78 C 81.24 79.73 80.42 77.74 79.62 77.05 C 80.04 75.22 81.64 74.09 82.86 72.81 Z" />
<path fill="#dfe3ec" opacity="1.00" d=" M 98.37 65.89 C 98.67 66.29 99.25 67.08 99.54 67.47 C 100.94 66.77 101.87 67.16 101.56 68.49 C 102.74 68.98 102.77 70.02 101.58 70.52 C 101.85 72.66 102.71 74.64 103.78 76.50 C 103.90 76.98 104.13 77.95 104.25 78.44 C 104.63 79.46 104.99 80.49 105.35 81.53 C 105.68 82.34 106.02 83.16 106.34 83.97 C 105.74 84.32 104.54 85.01 103.95 85.35 C 103.15 84.62 102.35 83.88 101.56 83.15 C 100.24 84.76 98.66 84.11 98.86 82.07 C 98.02 82.47 97.17 82.86 96.32 83.24 C 96.18 82.65 95.89 81.46 95.74 80.86 C 95.29 81.25 94.39 82.03 93.94 82.41 C 94.00 81.71 94.11 80.32 94.16 79.62 C 94.58 78.62 95.00 77.62 95.42 76.61 C 95.90 74.96 96.30 73.28 96.86 71.64 C 97.52 69.77 98.10 67.86 98.37 65.89 Z" />
<path fill="#dfe3ec" opacity="1.00" d=" M 24.23 83.23 C 24.83 83.82 24.83 83.82 24.23 83.23 Z" />
</g>
<g id="#328fb4ff">
<path fill="#328fb4" opacity="1.00" d=" M 47.20 34.05 C 50.31 34.42 53.41 35.16 56.12 36.78 C 58.92 38.91 62.02 40.61 65.24 42.02 C 66.26 43.20 67.72 44.27 69.37 43.73 C 68.60 46.78 65.58 47.93 63.40 49.78 C 62.89 49.80 61.88 49.85 61.38 49.87 C 61.10 49.87 60.54 49.86 60.27 49.86 C 60.19 49.19 60.03 47.87 59.96 47.21 C 57.47 46.97 54.99 46.66 52.53 46.20 C 53.54 44.31 54.55 42.43 55.50 40.51 C 48.99 42.77 43.69 47.28 38.08 51.11 C 36.98 49.12 35.49 47.42 33.35 46.56 C 32.59 49.51 31.95 52.49 31.36 55.48 C 31.01 50.66 30.97 45.83 31.00 41.00 C 33.63 41.03 36.28 40.85 38.90 41.23 C 41.49 42.08 43.55 44.03 45.80 45.50 C 44.87 43.93 43.93 42.37 42.99 40.82 C 44.24 39.53 45.51 38.26 46.66 36.89 C 46.80 36.18 47.06 34.76 47.20 34.05 Z" />
<path fill="#328fb4" opacity="1.00" d=" M 84.34 38.22 C 86.11 38.55 87.88 38.93 89.65 39.31 C 90.66 40.20 91.68 41.09 92.70 41.97 C 93.24 43.51 94.31 45.33 96.22 45.07 C 96.39 46.43 96.62 47.78 96.77 49.15 C 95.67 48.88 94.57 48.59 93.48 48.27 L 92.33 47.59 C 92.45 47.29 92.71 46.68 92.84 46.38 C 92.42 46.68 91.58 47.29 91.17 47.59 C 90.68 47.39 89.70 46.99 89.21 46.79 C 88.87 45.79 88.54 44.79 88.23 43.78 C 88.72 43.78 89.72 43.77 90.22 43.77 L 90.85 43.67 L 90.80 43.08 C 90.63 42.73 90.28 42.03 90.11 41.69 C 87.97 40.91 85.47 40.45 84.34 38.22 Z" />
<path fill="#328fb4" opacity="1.00" d=" M 81.60 39.71 C 85.41 40.28 86.64 44.12 88.15 47.09 C 87.53 48.14 86.96 49.22 86.44 50.33 C 85.78 50.59 84.47 51.10 83.81 51.36 C 83.60 51.09 83.17 50.56 82.96 50.29 C 83.59 48.81 84.28 47.36 84.92 45.88 L 85.24 45.12 C 84.70 45.27 83.62 45.58 83.08 45.73 C 82.53 46.15 81.45 46.98 80.90 47.39 C 81.29 47.98 81.69 48.58 82.08 49.17 C 83.29 52.80 82.84 56.60 81.08 59.96 C 80.82 59.83 80.31 59.58 80.05 59.46 C 80.18 57.27 81.60 54.81 80.16 52.80 C 78.71 52.63 78.00 53.41 78.05 55.14 L 77.82 55.70 C 76.64 56.51 75.49 58.16 73.88 57.49 C 70.92 57.19 70.46 53.86 69.25 51.75 L 69.42 51.47 C 70.66 49.69 71.55 47.70 72.35 45.69 L 72.58 45.12 L 73.45 45.09 C 74.67 45.05 75.90 45.02 77.12 44.99 C 78.65 43.26 80.15 41.51 81.60 39.71 M 74.46 46.18 C 74.66 47.54 75.36 47.77 76.56 46.87 C 76.37 45.51 75.67 45.28 74.46 46.18 Z" />
<path fill="#328fb4" opacity="1.00" d=" M 49.45 47.53 C 50.61 46.36 52.36 47.35 53.60 47.80 C 55.48 47.94 57.36 48.01 59.25 48.07 C 58.98 49.46 58.98 51.06 57.72 51.99 C 55.06 52.15 52.50 50.72 49.81 51.38 C 51.82 52.17 53.89 52.79 55.99 53.32 C 55.98 53.88 55.96 55.01 55.95 55.58 C 52.51 56.76 49.36 58.64 46.77 61.20 C 48.25 62.79 49.77 64.44 50.24 66.63 C 47.37 67.51 43.00 70.11 45.27 73.66 C 44.89 73.09 44.13 71.93 43.75 71.36 C 42.62 72.83 41.51 74.32 40.46 75.85 L 40.41 75.92 C 40.30 74.58 40.13 73.25 39.91 71.92 C 37.26 69.38 33.79 67.90 30.59 66.17 C 28.75 66.53 26.90 67.04 25.00 66.96 C 23.67 66.21 22.96 64.75 21.99 63.62 C 22.11 62.92 22.37 61.51 22.49 60.81 L 22.90 61.56 L 23.14 62.00 C 25.71 66.76 31.62 63.30 35.56 62.68 L 36.31 62.48 C 36.92 62.61 38.16 62.88 38.78 63.01 L 39.15 62.19 C 41.61 62.15 41.19 59.13 39.20 58.60 C 39.41 57.99 39.82 56.76 40.03 56.15 C 43.55 53.69 46.32 50.42 49.45 47.53 M 40.17 70.35 C 40.68 70.85 40.68 70.85 40.17 70.35 Z" />
<path fill="#328fb4" opacity="1.00" d=" M 67.44 58.16 C 67.81 57.46 68.19 56.76 68.56 56.06 C 70.31 58.33 73.40 58.22 75.86 59.21 C 78.19 59.88 79.85 61.76 81.57 63.35 C 81.44 63.84 81.20 64.82 81.07 65.31 C 80.81 66.48 80.53 67.65 80.20 68.80 C 79.79 69.91 79.66 71.05 79.81 72.23 C 79.49 72.43 78.84 72.82 78.51 73.02 C 78.44 72.64 78.30 71.87 78.23 71.48 C 78.22 71.08 78.21 70.29 78.20 69.90 C 78.59 67.76 78.83 65.60 78.90 63.44 C 76.76 64.45 74.07 65.56 74.27 68.43 C 74.25 68.72 74.22 69.29 74.21 69.58 C 72.64 68.82 70.86 68.77 69.19 69.20 C 70.67 70.78 72.97 71.24 74.96 70.41 L 75.25 70.72 C 77.51 72.75 78.74 75.58 78.72 78.60 L 78.73 78.71 L 78.35 80.16 C 77.45 81.01 76.74 82.02 76.13 83.08 C 75.64 83.39 74.66 84.02 74.17 84.33 C 74.16 83.86 74.13 82.94 74.11 82.47 C 74.28 81.85 74.63 80.61 74.80 79.99 C 75.99 79.20 76.37 78.13 75.94 76.77 L 75.80 75.83 C 75.28 74.40 74.68 74.45 73.99 75.98 L 72.92 75.96 C 71.42 75.90 70.75 76.58 70.93 77.99 L 71.13 79.01 C 69.17 77.28 66.74 76.28 64.31 75.43 C 64.08 74.36 63.84 73.29 63.58 72.23 C 63.93 71.66 64.62 70.51 64.96 69.94 C 65.48 69.96 66.51 70.00 67.03 70.02 L 67.14 68.81 C 66.39 68.75 64.89 68.64 64.14 68.58 C 64.33 67.45 64.52 66.33 64.71 65.21 C 64.78 64.86 64.92 64.16 64.98 63.81 L 65.41 62.61 C 65.64 62.06 66.08 60.97 66.30 60.42 C 66.48 60.06 66.83 59.35 67.00 58.99 L 67.44 58.16 Z" />
<path fill="#328fb4" opacity="1.00" d=" M 93.42 64.35 C 94.85 65.01 94.79 68.79 93.51 69.55 C 92.71 68.02 92.60 65.89 93.42 64.35 Z" />
<path fill="#328fb4" opacity="1.00" d=" M 58.77 69.99 C 58.31 68.24 58.78 65.43 61.16 65.64 L 61.68 65.66 C 62.87 68.65 61.38 71.37 59.07 73.22 C 58.99 72.41 58.85 70.80 58.77 69.99 Z" />
<path fill="#328fb4" opacity="1.00" d=" M 47.97 74.99 C 47.41 74.46 47.41 74.46 47.97 74.99 Z" />
<path fill="#328fb4" opacity="1.00" d=" M 60.17 78.10 C 59.44 76.34 59.70 74.76 60.94 73.35 C 61.49 74.22 62.05 75.09 62.63 75.94 L 63.51 77.38 C 63.52 77.42 63.56 77.48 63.57 77.52 C 65.98 80.01 60.25 84.40 64.76 85.22 C 65.41 85.42 66.71 85.82 67.35 86.03 L 68.19 86.28 C 68.27 88.64 68.27 91.06 67.33 93.28 L 67.15 92.26 C 66.97 90.05 64.75 89.07 63.29 87.77 C 63.04 87.24 62.54 86.19 62.29 85.67 C 62.04 84.33 61.80 82.99 61.56 81.65 L 61.50 81.32 L 61.33 80.98 C 61.16 80.49 60.82 79.50 60.65 79.00 L 60.52 78.65 L 60.36 78.43 L 60.17 78.10 Z" />
<path fill="#328fb4" opacity="1.00" d=" M 47.97 74.99 C 48.52 75.51 48.52 75.51 47.97 74.99 Z" />
<path fill="#328fb4" opacity="1.00" d=" M 64.56 76.79 C 67.19 78.30 69.71 80.00 72.18 81.78 C 71.74 81.92 70.86 82.21 70.42 82.36 C 69.98 82.50 69.10 82.77 68.66 82.91 C 67.33 80.84 65.87 78.86 64.56 76.79 Z" />
<path fill="#328fb4" opacity="1.00" d=" M 72.43 83.03 C 73.33 84.76 73.94 86.62 74.32 88.53 C 73.82 88.89 72.82 89.61 72.32 89.96 C 71.06 90.52 69.79 91.05 68.52 91.56 C 69.64 89.62 70.86 87.74 71.81 85.71 C 71.97 85.04 72.28 83.70 72.43 83.03 Z" />
<path fill="#328fb4" opacity="1.00" d=" M 55.12 84.23 C 58.42 84.57 53.43 87.13 55.12 84.23 Z" />
<path fill="#328fb4" opacity="1.00" d=" M 56.28 88.24 C 56.74 88.78 56.74 88.78 56.28 88.24 Z" />
<path fill="#328fb4" opacity="1.00" d=" M 57.33 91.28 C 57.81 91.80 57.81 91.80 57.33 91.28 Z" />
<path fill="#328fb4" opacity="1.00" d=" M 58.30 94.22 C 58.77 94.75 58.77 94.75 58.30 94.22 Z" />
<path fill="#328fb4" opacity="1.00" d=" M 59.24 97.28 C 59.76 97.75 59.76 97.75 59.24 97.28 Z" />
<path fill="#328fb4" opacity="1.00" d=" M 60.26 100.32 C 60.74 100.83 60.74 100.83 60.26 100.32 Z" />
<path fill="#328fb4" opacity="1.00" d=" M 66.35 101.08 C 67.10 102.00 67.43 103.05 67.34 104.23 C 67.00 104.36 66.32 104.60 65.98 104.72 C 65.73 103.48 65.85 102.26 66.35 101.08 Z" />
</g>
<g id="#6cc2d4ff">
<path fill="#6cc2d4" opacity="1.00" d=" M 27.22 56.83 C 27.80 50.43 28.90 44.09 29.63 37.71 C 30.18 44.31 29.35 50.93 29.96 57.52 C 38.20 53.42 45.07 46.99 53.27 42.80 C 48.26 46.59 44.19 51.47 39.04 55.07 C 35.02 57.96 32.24 63.66 26.44 62.71 C 26.17 62.41 25.63 61.81 25.35 61.51 C 25.59 61.05 26.07 60.13 26.31 59.67 C 25.82 59.74 24.82 59.89 24.32 59.96 C 22.43 55.53 20.16 51.28 17.97 46.99 L 18.80 47.00 C 19.00 47.35 19.39 48.05 19.59 48.40 C 21.81 51.46 23.52 55.29 27.22 56.83 M 29.14 59.58 C 28.19 60.73 28.42 61.41 29.81 61.60 C 30.76 60.45 30.54 59.77 29.14 59.58 Z" />
<path fill="#6cc2d4" opacity="1.00" d=" M 20.59 47.08 C 22.04 47.07 23.50 47.08 24.95 47.09 C 24.73 48.37 24.50 49.66 24.27 50.94 C 22.66 50.04 21.26 48.85 20.59 47.08 Z" />
<path fill="#6cc2d4" opacity="1.00" d=" M 33.35 46.56 C 35.49 47.42 36.98 49.12 38.08 51.11 C 35.87 52.61 33.61 54.05 31.36 55.48 C 31.95 52.49 32.59 49.51 33.35 46.56 Z" />
<path fill="#6cc2d4" opacity="1.00" d=" M 69.16 51.62 C 69.23 51.58 69.36 51.51 69.42 51.47 L 69.25 51.75 L 69.16 51.62 Z" />
<path fill="#6cc2d4" opacity="1.00" d=" M 18.16 52.32 C 19.44 51.85 20.54 53.87 20.02 54.94 C 18.77 55.27 17.54 53.40 18.16 52.32 Z" />
<path fill="#6cc2d4" opacity="1.00" d=" M 57.61 54.25 C 58.15 54.79 58.15 54.79 57.61 54.25 Z" />
<path fill="#6cc2d4" opacity="1.00" d=" M 20.02 54.94 C 20.59 55.57 20.59 55.57 20.02 54.94 Z" />
<path fill="#6cc2d4" opacity="1.00" d=" M 63.58 72.23 C 62.42 71.13 63.38 69.33 64.96 69.94 C 64.62 70.51 63.93 71.66 63.58 72.23 Z" />
<path fill="#6cc2d4" opacity="1.00" d=" M 22.35 73.82 C 22.43 74.19 22.59 74.93 22.68 75.30 C 21.88 76.23 21.09 77.18 20.31 78.13 L 20.16 78.30 L 20.08 78.53 C 19.77 79.31 19.14 80.87 18.83 81.66 C 18.70 81.17 18.43 80.19 18.29 79.70 C 18.29 79.12 18.29 77.95 18.28 77.37 L 19.33 76.96 C 19.54 76.51 19.96 75.60 20.17 75.15 C 20.71 74.81 21.80 74.15 22.35 73.82 Z" />
<path fill="#6cc2d4" opacity="1.00" d=" M 16.28 84.31 C 17.71 84.22 17.73 87.78 16.31 87.71 C 15.59 86.58 15.58 85.45 16.28 84.31 Z" />
<path fill="#6cc2d4" opacity="1.00" d=" M 15.75 95.69 C 14.36 95.71 14.36 92.16 15.80 92.35 C 16.54 93.48 16.52 94.60 15.75 95.69 Z" />
<path fill="#6cc2d4" opacity="1.00" d=" M 14.45 99.34 C 16.11 99.65 15.19 103.48 13.46 102.96 C 13.04 101.76 13.70 100.29 14.45 99.34 Z" />
</g>
<g id="#efdeb9ff">
<path fill="#efdeb9" opacity="1.00" d=" M 88.23 43.78 C 87.82 42.29 88.44 41.59 90.11 41.69 C 90.28 42.03 90.63 42.73 90.80 43.08 C 90.66 43.25 90.37 43.60 90.22 43.77 C 89.72 43.77 88.72 43.78 88.23 43.78 Z" />
<path fill="#efdeb9" opacity="1.00" d=" M 92.70 41.97 L 93.28 41.99 C 94.50 42.52 95.46 43.36 96.16 44.50 L 96.22 45.07 C 94.31 45.33 93.24 43.51 92.70 41.97 Z" />
<path fill="#efdeb9" opacity="1.00" d=" M 80.90 47.39 C 81.45 46.98 82.53 46.15 83.08 45.73 C 83.54 45.77 84.46 45.84 84.92 45.88 C 84.28 47.36 83.59 48.81 82.96 50.29 L 82.08 49.17 C 81.69 48.58 81.29 47.98 80.90 47.39 Z" />
<path fill="#efdeb9" opacity="1.00" d=" M 88.15 47.09 L 89.21 46.79 C 89.70 46.99 90.68 47.39 91.17 47.59 C 90.45 48.35 87.77 48.79 88.15 47.09 Z" />
<path fill="#efdeb9" opacity="1.00" d=" M 83.81 51.36 C 84.47 51.10 85.78 50.59 86.44 50.33 L 86.27 50.95 C 85.93 51.27 85.23 51.92 84.89 52.24 C 84.62 52.02 84.08 51.58 83.81 51.36 Z" />
<path fill="#efdeb9" opacity="1.00" d=" M 89.90 52.16 C 90.58 52.01 91.95 51.71 92.64 51.56 L 92.63 52.86 C 92.63 53.69 92.61 55.36 92.60 56.20 C 91.55 54.96 90.64 53.60 89.90 52.16 Z" />
<path fill="#efdeb9" opacity="1.00" d=" M 80.16 52.80 C 81.60 54.81 80.18 57.27 80.05 59.46 C 79.22 59.23 77.55 58.76 76.72 58.53 C 77.08 57.59 77.44 56.64 77.82 55.70 L 78.05 55.14 C 79.28 54.77 79.98 53.99 80.16 52.80 Z" />
<path fill="#efdeb9" opacity="1.00" d=" M 67.83 54.13 L 68.38 53.85 L 68.45 54.46 L 67.99 54.64 L 67.83 54.13 Z" />
<path fill="#efdeb9" opacity="1.00" d=" M 81.57 63.35 C 81.65 63.88 81.80 64.93 81.87 65.45 L 81.07 65.31 C 81.20 64.82 81.44 63.84 81.57 63.35 Z" />
<path fill="#efdeb9" opacity="1.00" d=" M 61.16 65.64 C 61.29 65.65 61.55 65.65 61.68 65.66 L 61.16 65.64 Z" />
<path fill="#efdeb9" opacity="1.00" d=" M 74.27 68.43 C 75.42 67.04 76.68 65.73 77.94 64.43 C 78.03 66.25 78.12 68.07 78.20 69.90 C 78.21 70.29 78.22 71.08 78.23 71.48 C 77.49 71.29 76.00 70.91 75.25 70.72 L 74.96 70.41 C 74.77 70.20 74.40 69.79 74.21 69.58 C 74.22 69.29 74.25 68.72 74.27 68.43 Z" />
<path fill="#efdeb9" opacity="1.00" d=" M 22.00 67.08 C 25.01 68.62 28.46 67.85 31.69 68.00 C 33.03 68.95 34.37 69.90 35.71 70.86 C 31.85 69.79 27.78 70.50 23.93 69.37 C 23.45 69.52 22.48 69.82 22.00 69.96 C 22.00 69.24 22.00 67.80 22.00 67.08 Z" />
<path fill="#efdeb9" opacity="1.00" d=" M 45.84 71.55 C 47.02 70.49 48.19 69.42 49.36 68.36 C 51.23 69.64 52.95 71.39 55.22 71.90 C 56.74 72.24 57.67 70.71 58.77 69.99 C 58.85 70.80 58.99 72.41 59.07 73.22 L 59.12 73.80 C 57.37 75.15 55.59 76.45 53.82 77.76 C 51.15 75.70 48.67 73.40 45.84 71.55 Z" />
<path fill="#efdeb9" opacity="1.00" d=" M 37.17 72.18 C 36.50 71.51 36.50 71.51 37.17 72.18 Z" />
<path fill="#efdeb9" opacity="1.00" d=" M 37.17 72.18 C 37.34 72.35 37.68 72.69 37.85 72.85 C 37.68 72.69 37.34 72.35 37.17 72.18 Z" />
<path fill="#efdeb9" opacity="1.00" d=" M 61.18 72.11 C 62.99 71.84 63.64 74.79 62.63 75.94 C 62.05 75.09 61.49 74.22 60.94 73.35 C 61.00 73.04 61.12 72.42 61.18 72.11 Z" />
<path fill="#efdeb9" opacity="1.00" d=" M 37.85 72.85 C 38.52 73.52 38.52 73.52 37.85 72.85 Z" />
<path fill="#efdeb9" opacity="1.00" d=" M 43.36 73.91 C 45.16 75.07 46.91 76.29 48.64 77.56 C 52.03 81.05 54.81 85.15 55.34 90.13 C 52.40 89.81 49.31 89.64 46.66 88.19 C 43.89 86.45 42.04 83.68 40.08 81.14 C 40.05 81.74 39.98 82.94 39.94 83.54 L 39.27 84.64 C 38.94 82.31 39.63 79.69 38.31 77.59 L 38.02 80.11 L 36.79 80.15 C 37.35 78.66 37.92 77.18 38.48 75.69 C 38.68 76.28 39.07 77.45 39.27 78.03 C 39.63 77.97 40.35 77.83 40.71 77.77 C 42.16 78.58 43.82 78.74 45.45 78.80 C 43.96 77.47 41.61 77.64 40.46 75.85 L 41.57 76.37 C 42.02 75.75 42.92 74.53 43.36 73.91 M 46.28 78.95 C 46.50 82.28 49.24 77.34 46.28 78.95 Z" />
<path fill="#efdeb9" opacity="1.00" d=" M 54.21 78.27 C 55.76 77.46 57.36 76.76 58.93 76.02 C 59.24 76.54 59.86 77.58 60.17 78.10 L 60.36 78.43 C 60.43 78.58 60.57 78.86 60.65 79.00 C 60.82 79.50 61.16 80.49 61.33 80.98 C 61.39 81.15 61.50 81.48 61.56 81.65 C 61.80 82.99 62.04 84.33 62.29 85.67 C 62.15 87.83 60.15 89.25 58.49 90.37 C 58.12 89.08 57.74 87.79 57.35 86.51 C 57.53 83.30 54.03 81.31 54.21 78.27 Z" />
<path fill="#efdeb9" opacity="1.00" d=" M 72.92 75.96 L 73.99 75.98 C 74.44 75.94 75.35 75.87 75.80 75.83 L 75.94 76.77 C 74.72 77.52 74.34 78.59 74.80 79.99 C 74.63 80.61 74.28 81.85 74.11 82.47 C 73.15 81.29 72.14 80.15 71.13 79.01 L 70.93 77.99 C 72.25 77.96 72.92 77.28 72.92 75.96 Z" />
<path fill="#efdeb9" opacity="1.00" d=" M 63.51 77.38 C 63.52 77.42 63.56 77.48 63.57 77.52 C 63.56 77.48 63.52 77.42 63.51 77.38 Z" />
<path fill="#efdeb9" opacity="1.00" d=" M 78.72 78.60 C 78.76 78.62 78.82 78.65 78.85 78.67 L 78.73 78.71 L 78.72 78.60 Z" />
<path fill="#efdeb9" opacity="1.00" d=" M 76.13 83.08 C 76.74 82.02 77.45 81.01 78.35 80.16 C 79.16 81.56 78.01 83.79 76.52 84.21 C 76.42 83.93 76.23 83.36 76.13 83.08 Z" />
<path fill="#efdeb9" opacity="1.00" d=" M 64.76 85.22 C 63.53 83.69 63.78 81.67 65.68 80.89 C 67.14 82.22 67.07 84.23 67.35 86.03 C 66.71 85.82 65.41 85.42 64.76 85.22 Z" />
<path fill="#efdeb9" opacity="1.00" d=" M 68.66 82.91 C 69.10 82.77 69.98 82.50 70.42 82.36 C 70.93 82.53 71.93 82.86 72.43 83.03 C 72.28 83.70 71.97 85.04 71.81 85.71 C 70.92 86.67 70.02 87.63 69.12 88.59 C 68.99 86.69 68.90 84.79 68.66 82.91 Z" />
<path fill="#efdeb9" opacity="1.00" d=" M 32.68 83.58 C 33.13 83.88 34.04 84.46 34.49 84.76 C 34.97 84.60 35.93 84.27 36.41 84.11 C 36.29 84.57 36.04 85.50 35.92 85.96 C 35.67 86.23 35.18 86.78 34.93 87.06 C 30.70 87.02 25.94 88.19 22.26 85.48 C 26.13 85.96 30.03 86.08 33.93 86.00 C 33.61 85.39 32.99 84.19 32.68 83.58 Z" />
<path fill="#efdeb9" opacity="1.00" d=" M 75.23 85.76 C 75.82 86.36 75.82 86.36 75.23 85.76 Z" />
<path fill="#efdeb9" opacity="1.00" d=" M 59.06 91.91 C 60.11 90.66 61.15 89.12 62.83 88.72 C 64.38 89.76 65.74 91.05 67.15 92.26 L 67.33 93.28 C 66.95 96.18 64.47 98.62 61.65 99.25 C 60.88 96.77 59.88 94.37 59.06 91.91 Z" />
<path fill="#efdeb9" opacity="1.00" d=" M 72.32 89.96 C 72.82 89.61 73.82 88.89 74.32 88.53 L 74.11 89.92 C 73.74 91.06 73.34 92.19 72.90 93.31 C 72.35 93.91 71.75 94.47 71.13 95.00 C 69.36 96.29 67.43 97.35 65.54 98.44 C 67.30 95.24 69.58 92.37 72.32 89.96 Z" />
</g>
<g id="#c0b498ff">
<path fill="#c0b498" opacity="1.00" d=" M 88.20 49.29 C 89.57 48.71 90.97 48.22 92.33 47.59 L 93.48 48.27 C 94.75 49.22 95.93 50.26 97.12 51.30 C 93.81 50.93 90.34 51.96 87.15 50.81 C 87.41 50.43 87.94 49.67 88.20 49.29 Z" />
<path fill="#c0b498" opacity="1.00" d=" M 93.10 51.41 C 95.23 51.33 97.39 52.12 98.36 54.15 C 98.23 54.51 97.99 55.23 97.87 55.60 C 96.94 57.32 94.19 55.84 92.60 56.20 C 92.61 55.36 92.63 53.69 92.63 52.86 L 93.10 51.41 Z" />
<path fill="#c0b498" opacity="1.00" d=" M 92.53 56.90 C 95.27 56.45 98.27 56.66 99.04 59.79 C 96.42 60.27 94.04 58.99 92.53 56.90 Z" />
<path fill="#c0b498" opacity="1.00" d=" M 35.56 62.68 C 33.07 62.76 34.85 58.92 36.41 60.94 L 36.47 61.44 L 36.44 61.85 L 36.31 62.48 L 35.56 62.68 Z" />
<path fill="#c0b498" opacity="1.00" d=" M 22.90 61.56 C 22.96 61.67 23.08 61.89 23.14 62.00 L 22.90 61.56 Z" />
<path fill="#c0b498" opacity="1.00" d=" M 24.28 74.29 C 24.82 74.82 24.82 74.82 24.28 74.29 Z" />
<path fill="#c0b498" opacity="1.00" d=" M 74.80 79.99 C 74.34 78.59 74.72 77.52 75.94 76.77 C 76.37 78.13 75.99 79.20 74.80 79.99 Z" />
<path fill="#c0b498" opacity="1.00" d=" M 46.28 78.95 C 49.24 77.34 46.50 82.28 46.28 78.95 Z" />
<path fill="#c0b498" opacity="1.00" d=" M 36.25 81.87 C 36.81 82.44 36.81 82.44 36.25 81.87 Z" />
<path fill="#c0b498" opacity="1.00" d=" M 40.08 81.14 C 42.04 83.68 43.89 86.45 46.66 88.19 C 49.31 89.64 52.40 89.81 55.34 90.13 L 56.37 90.23 C 55.57 93.47 51.24 92.07 48.73 92.99 C 46.59 92.33 44.46 91.63 42.34 90.91 C 41.60 89.46 40.83 88.03 40.03 86.61 C 40.01 85.84 39.96 84.31 39.94 83.54 C 39.98 82.94 40.05 81.74 40.08 81.14 Z" />
<path fill="#c0b498" opacity="1.00" d=" M 44.36 92.57 C 48.40 94.18 52.73 93.67 56.89 92.90 C 57.28 95.30 58.00 97.64 58.99 99.86 C 56.50 102.91 53.24 99.01 50.24 98.86 C 48.11 96.93 46.16 94.81 44.36 92.57 Z" />
</g>
<g id="#e79fa9ff">
<path fill="#e79fa9" opacity="1.00" d=" M 80.20 68.80 C 80.52 69.34 81.16 70.44 81.47 70.98 L 81.19 71.43 C 80.84 71.63 80.16 72.03 79.81 72.23 C 79.66 71.05 79.79 69.91 80.20 68.80 Z" />
<path fill="#e79fa9" opacity="1.00" d=" M 27.20 75.45 C 28.19 73.77 29.25 72.13 30.39 70.55 C 30.63 71.53 31.11 73.49 31.35 74.47 C 32.15 73.68 32.86 72.82 33.48 71.89 C 34.67 72.61 35.84 73.35 37.03 74.08 C 36.78 77.37 35.90 80.61 34.11 83.41 C 34.03 82.73 33.87 81.39 33.79 80.71 C 32.93 81.77 32.09 82.86 31.15 83.85 C 28.99 84.30 27.04 83.37 25.39 82.04 C 25.86 80.55 26.32 79.06 26.82 77.58 C 26.91 77.05 27.10 75.99 27.20 75.45 Z" />
</g>
</svg>
