<?xml version="1.0" encoding="UTF-8" ?>
<!DOCTYPE svg PUBLIC "-//W3C//DTD SVG 1.1//EN" "http://www.w3.org/Graphics/SVG/1.1/DTD/svg11.dtd">
<svg width="120pt" height="120pt" viewBox="0 0 120 120" version="1.1" xmlns="http://www.w3.org/2000/svg">
<g id="#827ba7ff">
<path fill="#827ba7" opacity="1.00" d=" M 79.25 39.59 C 87.39 36.56 95.16 32.64 103.18 29.30 C 102.68 30.98 102.25 32.77 100.91 34.00 C 100.96 33.30 101.07 31.91 101.12 31.22 C 94.27 34.21 87.48 37.34 80.93 40.94 C 76.63 43.48 71.60 41.14 66.96 41.62 C 60.33 41.82 52.61 46.34 52.38 53.62 C 51.69 59.74 56.38 65.02 61.64 67.41 C 63.65 65.68 65.73 64.04 67.98 62.64 C 67.40 64.40 66.11 65.76 64.99 67.20 C 68.10 66.90 71.41 66.85 74.20 65.28 C 76.55 63.97 75.99 60.99 76.19 58.75 C 76.75 60.40 77.41 62.03 78.07 63.65 C 81.48 60.26 82.46 55.54 83.29 51.00 C 83.57 48.22 86.04 46.66 87.97 45.01 C 91.85 41.96 95.09 38.20 98.91 35.08 C 98.94 35.54 98.99 36.47 99.01 36.93 C 96.63 41.12 93.47 44.86 91.61 49.36 C 94.55 48.45 97.62 48.30 100.68 48.29 C 100.77 48.89 100.96 50.09 101.05 50.69 L 100.34 50.36 C 97.61 48.46 94.40 49.79 91.53 50.54 C 90.90 52.98 90.37 55.45 90.00 57.94 C 92.74 56.20 95.31 54.22 97.89 52.26 C 97.93 52.67 98.00 53.48 98.03 53.89 C 95.58 56.83 93.21 59.87 91.54 63.34 C 94.65 62.44 97.89 62.25 101.11 62.35 C 100.69 63.75 99.53 64.61 98.32 65.30 C 98.41 64.68 98.58 63.45 98.66 62.83 C 96.24 63.34 93.83 63.90 91.42 64.46 C 91.33 65.55 91.24 66.63 91.15 67.72 C 93.06 67.08 94.98 66.45 96.88 65.80 C 95.66 66.84 94.46 67.90 93.25 68.96 C 95.03 71.70 96.01 75.57 99.42 76.69 C 101.23 77.64 101.29 80.15 101.77 81.92 C 100.25 86.89 95.58 90.27 90.36 90.04 C 90.91 88.80 91.45 87.55 91.99 86.31 C 89.36 83.80 86.43 81.68 83.26 79.91 C 80.29 83.12 76.75 86.82 72.01 86.68 C 64.17 87.54 56.12 83.91 51.01 78.01 C 47.91 73.29 45.18 68.29 41.24 64.19 C 42.15 63.76 43.07 63.32 43.99 62.90 C 42.54 59.11 41.63 55.15 40.23 51.35 C 41.14 50.83 42.05 50.33 42.97 49.83 C 41.50 44.80 39.95 39.80 38.47 34.78 C 37.84 33.45 39.22 31.62 40.59 32.58 C 45.66 35.50 50.45 38.96 55.86 41.26 C 61.59 38.90 67.83 39.24 73.88 39.51 C 75.66 39.54 77.52 40.32 79.25 39.59 M 39.28 33.84 C 41.00 38.04 42.80 42.51 46.31 45.54 C 48.75 45.31 51.77 43.48 51.68 40.71 C 47.52 38.47 43.63 35.73 39.28 33.84 M 48.16 57.04 C 48.09 59.99 48.09 62.94 48.13 65.89 C 50.40 66.80 52.75 67.54 55.16 68.02 C 52.32 64.69 50.21 60.87 48.16 57.04 M 67.31 71.50 C 66.20 72.38 65.11 73.29 63.90 74.03 C 62.02 73.42 60.25 72.54 58.42 71.82 C 58.24 72.67 57.86 74.38 57.68 75.24 C 55.81 74.10 53.96 72.95 52.06 71.86 C 52.10 73.16 52.12 74.46 52.11 75.76 C 56.73 79.59 63.02 79.44 68.63 78.61 C 71.83 77.89 74.42 75.78 76.91 73.77 C 76.93 73.01 76.98 71.49 77.00 70.74 C 73.77 70.97 70.57 71.83 67.31 71.50 M 85.19 74.29 C 82.87 75.20 80.24 75.00 77.96 76.03 C 76.49 77.03 75.40 78.47 74.21 79.78 C 75.00 80.39 75.77 81.03 76.51 81.70 C 77.90 79.86 79.36 77.73 81.95 77.82 C 85.73 77.63 89.20 75.49 90.89 72.08 C 88.84 69.32 86.83 73.07 85.19 74.29 M 98.25 79.13 C 95.75 82.13 93.51 85.37 92.11 89.04 C 96.17 88.07 99.26 85.07 100.77 81.23 C 99.90 80.56 99.06 79.86 98.25 79.13 Z" />
<path fill="#827ba7" opacity="1.00" d=" M 25.33 68.22 C 28.14 68.59 30.92 69.18 33.73 69.54 C 37.67 70.10 40.68 72.97 43.61 75.42 C 43.95 77.44 42.89 79.36 42.24 81.21 C 36.27 82.80 29.94 82.57 23.80 82.72 C 24.68 84.74 25.53 86.79 26.06 88.94 C 23.45 88.53 20.97 87.63 18.54 86.61 C 18.32 84.15 17.72 81.76 17.21 79.35 C 20.45 78.36 23.47 75.77 23.41 72.12 C 23.32 70.52 24.45 69.39 25.33 68.22 M 31.36 69.91 C 32.00 71.49 32.67 73.06 33.33 74.63 C 35.35 75.10 37.33 75.69 39.33 76.18 C 39.07 78.01 38.31 79.68 37.39 81.26 C 40.55 81.47 42.16 79.11 42.65 76.30 C 39.36 73.43 35.76 70.73 31.36 69.91 Z" />
</g>
<g id="#a99cd0ff">
<path fill="#a99cd0" opacity="1.00" d=" M 80.93 40.94 C 87.48 37.34 94.27 34.21 101.12 31.22 C 101.07 31.91 100.96 33.30 100.91 34.00 C 100.32 35.00 99.66 35.97 99.01 36.93 C 98.99 36.47 98.94 35.54 98.91 35.08 C 95.09 38.20 91.85 41.96 87.97 45.01 C 86.04 46.66 83.57 48.22 83.29 51.00 C 82.46 55.54 81.48 60.26 78.07 63.65 C 77.41 62.03 76.75 60.40 76.19 58.75 C 76.06 58.30 75.80 57.41 75.67 56.96 C 75.52 55.84 75.39 54.72 75.29 53.60 C 72.97 55.96 69.96 57.88 68.65 61.06 C 68.49 61.45 68.15 62.24 67.98 62.64 C 65.73 64.04 63.65 65.68 61.64 67.41 C 56.38 65.02 51.69 59.74 52.38 53.62 C 52.61 46.34 60.33 41.82 66.96 41.62 C 71.60 41.14 76.63 43.48 80.93 40.94 Z" />
<path fill="#a99cd0" opacity="1.00" d=" M 39.28 33.84 C 43.63 35.73 47.52 38.47 51.68 40.71 C 51.77 43.48 48.75 45.31 46.31 45.54 C 42.80 42.51 41.00 38.04 39.28 33.84 Z" />
<path fill="#a99cd0" opacity="1.00" d=" M 91.53 50.54 C 94.40 49.79 97.61 48.46 100.34 50.36 C 99.56 51.53 98.79 52.70 98.03 53.89 C 98.00 53.48 97.93 52.67 97.89 52.26 C 95.31 54.22 92.74 56.20 90.00 57.94 C 90.37 55.45 90.90 52.98 91.53 50.54 Z" />
<path fill="#a99cd0" opacity="1.00" d=" M 91.42 64.46 C 93.83 63.90 96.24 63.34 98.66 62.83 C 98.58 63.45 98.41 64.68 98.32 65.30 C 97.96 65.42 97.24 65.67 96.88 65.80 C 94.98 66.45 93.06 67.08 91.15 67.72 C 91.24 66.63 91.33 65.55 91.42 64.46 Z" />
<path fill="#a99cd0" opacity="1.00" d=" M 31.36 69.91 C 35.76 70.73 39.36 73.43 42.65 76.30 C 42.16 79.11 40.55 81.47 37.39 81.26 C 38.31 79.68 39.07 78.01 39.33 76.18 C 37.33 75.69 35.35 75.10 33.33 74.63 C 32.67 73.06 32.00 71.49 31.36 69.91 Z" />
<path fill="#a99cd0" opacity="1.00" d=" M 67.31 71.50 C 70.57 71.83 73.77 70.97 77.00 70.74 C 76.98 71.49 76.93 73.01 76.91 73.77 C 74.42 75.78 71.83 77.89 68.63 78.61 C 63.02 79.44 56.73 79.59 52.11 75.76 C 52.12 74.46 52.10 73.16 52.06 71.86 C 53.96 72.95 55.81 74.10 57.68 75.24 C 57.86 74.38 58.24 72.67 58.42 71.82 C 60.25 72.54 62.02 73.42 63.90 74.03 C 65.11 73.29 66.20 72.38 67.31 71.50 Z" />
<path fill="#a99cd0" opacity="1.00" d=" M 85.19 74.29 C 86.83 73.07 88.84 69.32 90.89 72.08 C 89.20 75.49 85.73 77.63 81.95 77.82 C 79.36 77.73 77.90 79.86 76.51 81.70 C 75.77 81.03 75.00 80.39 74.21 79.78 C 75.40 78.47 76.49 77.03 77.96 76.03 C 80.24 75.00 82.87 75.20 85.19 74.29 Z" />
<path fill="#a99cd0" opacity="1.00" d=" M 98.25 79.13 C 99.06 79.86 99.90 80.56 100.77 81.23 C 99.26 85.07 96.17 88.07 92.11 89.04 C 93.51 85.37 95.75 82.13 98.25 79.13 Z" />
</g>
<g id="#ffffffff">
<path fill="#ffffff" opacity="1.00" d=" M 68.65 61.06 C 70.36 58.90 72.32 56.97 74.25 55.02 C 74.61 55.51 75.32 56.48 75.67 56.96 C 75.80 57.41 76.06 58.30 76.19 58.75 C 75.99 60.99 76.55 63.97 74.20 65.28 C 71.41 66.85 68.10 66.90 64.99 67.20 C 66.11 65.76 67.40 64.40 67.98 62.64 C 68.15 62.24 68.49 61.45 68.65 61.06 Z" />
<path fill="#ffffff" opacity="1.00" d=" M 48.16 57.04 C 50.21 60.87 52.32 64.69 55.16 68.02 C 52.75 67.54 50.40 66.80 48.13 65.89 C 48.09 62.94 48.09 59.99 48.16 57.04 Z" />
</g>
</svg>
