<?xml version="1.0" encoding="UTF-8" ?>
<!DOCTYPE svg PUBLIC "-//W3C//DTD SVG 1.1//EN" "http://www.w3.org/Graphics/SVG/1.1/DTD/svg11.dtd">
<svg width="120pt" height="120pt" viewBox="0 0 120 120" version="1.1" xmlns="http://www.w3.org/2000/svg">
<g id="#353333ff">
<path fill="#353333" opacity="1.00" d=" M 53.26 24.12 C 54.82 24.11 56.44 24.13 57.74 23.13 C 59.98 23.04 62.21 23.03 64.45 23.14 C 65.39 23.76 66.43 24.12 67.56 24.23 C 72.52 26.08 74.13 31.40 76.28 35.70 C 78.14 36.49 79.52 37.97 80.91 39.37 C 80.98 39.90 81.10 40.95 81.16 41.47 C 83.02 45.12 81.45 49.52 82.09 53.46 C 83.41 54.83 82.90 56.75 82.95 58.43 L 82.15 57.48 C 81.30 54.72 81.37 51.65 79.75 49.17 C 82.56 44.72 79.98 38.50 75.31 36.49 C 73.43 33.19 72.44 29.15 69.32 26.74 C 65.60 24.24 60.80 23.27 56.46 24.58 C 54.75 25.04 53.06 25.57 51.50 26.41 C 51.94 25.84 52.82 24.70 53.26 24.12 Z" />
<path fill="#353333" opacity="1.00" d=" M 48.02 30.09 C 47.93 28.50 48.67 27.87 50.24 28.19 C 49.90 29.39 49.16 30.02 48.02 30.09 Z" />
<path fill="#353333" opacity="1.00" d=" M 45.07 33.44 C 45.65 32.10 46.59 31.11 47.87 30.49 C 47.48 31.29 46.68 32.89 46.29 33.68 C 46.11 35.31 46.02 36.98 45.38 38.51 L 45.22 38.94 C 44.55 39.06 43.22 39.29 42.55 39.40 C 43.17 38.98 44.42 38.14 45.05 37.72 C 45.07 36.29 45.07 34.87 45.07 33.44 Z" />
<path fill="#353333" opacity="1.00" d=" M 59.83 42.80 C 59.72 39.21 64.74 39.55 67.03 37.92 C 67.02 39.55 67.01 41.18 67.01 42.81 C 65.91 43.55 64.78 44.25 63.69 44.99 C 61.31 45.03 58.94 45.05 56.57 44.96 C 57.43 43.92 58.37 42.86 59.83 42.80 M 61.36 41.16 C 60.42 41.93 60.10 42.85 60.39 43.94 C 60.71 43.90 61.35 43.81 61.67 43.77 C 61.72 43.15 61.80 41.89 61.85 41.27 L 61.36 41.16 Z" />
<path fill="#353333" opacity="1.00" d=" M 46.77 39.12 C 47.80 39.45 48.83 39.78 49.86 40.11 C 49.97 41.89 50.31 43.65 50.99 45.31 C 50.31 45.22 48.95 45.06 48.27 44.97 C 47.80 43.84 47.38 42.70 46.95 41.55 C 46.91 40.95 46.82 39.73 46.77 39.12 Z" />
<path fill="#353333" opacity="1.00" d=" M 39.14 44.52 C 40.20 42.80 40.79 40.67 42.52 39.46 C 41.31 42.16 40.32 44.96 39.79 47.88 C 40.56 47.75 42.09 47.49 42.86 47.36 C 41.82 48.23 40.73 49.03 39.70 49.91 C 40.39 49.81 41.76 49.59 42.44 49.49 L 42.54 51.72 C 41.07 51.34 39.59 51.23 38.10 51.39 L 37.49 51.48 C 39.49 49.61 39.02 46.92 39.14 44.52 Z" />
<path fill="#353333" opacity="1.00" d=" M 71.15 40.53 C 71.91 42.88 72.65 45.24 73.46 47.58 C 74.12 48.34 74.79 49.10 75.46 49.87 C 75.34 50.58 75.12 52.01 75.01 52.73 C 75.87 53.32 76.73 53.90 77.60 54.49 C 77.43 54.86 77.09 55.61 76.92 55.98 C 75.76 55.99 74.59 56.01 73.43 56.06 C 71.39 57.67 68.72 56.81 66.36 56.85 C 65.95 56.38 65.15 55.45 64.74 54.98 C 61.28 54.04 57.78 54.52 55.02 56.97 C 57.02 52.80 61.97 52.47 65.70 54.30 C 66.11 54.74 66.94 55.63 67.35 56.07 C 69.24 56.08 71.12 56.06 73.01 55.99 C 73.49 52.37 73.00 48.73 71.25 45.50 C 71.19 43.84 71.16 42.19 71.15 40.53 M 74.25 54.23 C 74.84 54.82 74.84 54.82 74.25 54.23 Z" />
<path fill="#353333" opacity="1.00" d=" M 51.30 41.96 C 52.79 41.50 53.93 43.49 54.75 44.49 C 53.58 46.73 50.73 43.71 51.30 41.96 Z" />
<path fill="#353333" opacity="1.00" d=" M 44.77 46.75 C 45.00 46.27 45.46 45.32 45.69 44.84 C 48.44 49.68 51.12 54.57 53.60 59.56 C 55.15 62.13 52.42 64.20 51.37 66.33 C 51.27 67.01 51.09 68.38 50.99 69.06 C 53.18 69.53 55.39 69.94 57.61 70.25 C 56.22 69.05 54.77 67.92 53.24 66.89 C 55.77 67.43 58.45 68.28 60.96 67.20 C 60.62 66.16 60.29 65.12 59.98 64.07 C 62.22 61.38 65.66 60.57 68.40 58.65 C 70.69 59.03 73.01 59.13 75.34 59.10 C 75.34 58.55 75.35 57.45 75.36 56.90 C 75.49 57.41 75.76 58.43 75.90 58.94 C 76.69 59.14 78.27 59.56 79.06 59.76 C 80.09 59.00 81.12 58.24 82.15 57.48 C 82.10 58.03 81.99 59.12 81.94 59.67 C 81.32 60.00 80.08 60.65 79.46 60.98 C 78.09 60.94 76.56 61.18 75.46 60.11 C 74.89 60.08 73.74 60.00 73.16 59.96 C 73.19 61.28 72.85 62.47 72.12 63.52 C 72.06 64.03 71.96 65.05 71.91 65.56 C 71.29 66.52 70.67 67.49 70.04 68.45 C 69.99 70.46 69.99 72.46 70.09 74.47 C 70.67 75.42 71.05 76.44 71.24 77.55 C 72.73 79.30 74.04 81.32 74.15 83.69 C 74.60 84.11 75.48 84.94 75.92 85.36 C 75.98 86.40 76.05 87.44 76.13 88.48 C 77.33 90.13 77.75 93.21 75.91 94.52 C 75.76 92.70 76.74 89.39 73.98 89.18 C 69.83 88.86 64.10 89.28 62.10 93.56 C 62.95 92.96 64.64 91.76 65.49 91.17 C 66.00 91.64 67.02 92.60 67.53 93.08 C 68.15 92.47 69.38 91.24 69.99 90.62 C 70.39 92.15 70.63 93.72 70.75 95.30 C 72.15 95.08 73.54 94.88 74.94 94.69 L 75.03 95.99 C 69.30 96.01 63.57 95.99 57.85 96.01 C 58.51 94.92 59.83 92.73 60.49 91.63 C 58.98 92.62 57.32 93.14 55.51 93.19 C 53.98 94.54 51.84 93.84 50.01 94.00 L 50.04 92.98 C 50.61 92.98 51.74 92.97 52.30 92.97 C 54.90 92.74 57.40 91.95 59.89 91.18 C 59.25 89.45 59.26 87.63 59.55 85.84 C 56.61 86.69 53.71 87.66 50.71 88.27 C 51.49 87.12 52.68 86.68 54.29 86.94 C 54.01 84.74 52.14 83.35 50.21 82.62 C 50.12 81.49 49.79 80.43 49.22 79.46 C 49.14 78.98 48.96 78.03 48.87 77.55 C 47.67 76.11 47.46 73.59 49.12 72.36 C 48.82 72.17 48.22 71.77 47.93 71.58 C 48.76 70.74 49.21 69.71 49.26 68.50 C 50.18 65.59 52.95 63.50 53.21 60.39 C 52.67 59.96 51.59 59.09 51.05 58.66 C 51.03 58.12 51.00 57.03 50.98 56.49 C 49.99 55.46 49.01 54.38 48.68 52.95 C 48.30 52.96 47.55 52.99 47.17 53.01 C 47.18 54.30 46.84 55.47 46.15 56.52 C 46.07 57.03 45.92 58.05 45.85 58.55 C 45.55 59.16 44.97 60.37 44.67 60.97 C 43.22 61.00 41.77 61.00 40.33 61.02 C 38.87 59.21 37.58 57.28 36.10 55.49 C 36.08 54.31 36.07 53.14 36.06 51.96 L 37.53 52.10 C 37.49 52.69 37.42 53.86 37.38 54.45 C 38.91 56.23 40.22 58.18 41.39 60.21 C 42.49 59.83 44.28 60.10 44.66 58.66 C 45.96 55.53 46.58 52.14 46.67 48.76 C 45.25 50.16 43.98 51.71 42.75 53.28 C 43.37 51.59 44.19 49.99 45.11 48.44 C 44.51 48.23 43.31 47.83 42.71 47.63 C 43.22 47.41 44.25 46.97 44.77 46.75 M 62.13 66.52 C 61.95 66.92 61.59 67.71 61.41 68.10 C 63.64 67.63 65.89 67.32 68.16 67.23 C 67.62 66.77 66.54 65.85 66.00 65.39 C 66.45 65.28 67.35 65.06 67.80 64.94 C 68.25 65.50 69.15 66.61 69.60 67.17 C 71.11 65.01 71.80 62.45 72.25 59.90 C 68.02 59.64 62.71 61.81 62.13 66.52 M 61.41 68.10 C 61.27 68.89 61.27 68.89 61.41 68.10 M 60.78 73.26 C 63.26 71.09 66.58 71.24 69.63 70.94 C 68.44 69.85 67.25 68.76 66.06 67.68 C 63.59 68.80 61.60 70.57 60.78 73.26 M 58.05 68.98 C 58.01 69.61 57.92 70.86 57.88 71.49 C 56.51 72.91 56.97 74.97 57.10 76.72 C 59.27 78.29 61.53 79.74 63.41 81.69 C 62.69 79.97 61.99 78.24 61.33 76.49 C 60.95 74.74 59.10 72.79 61.09 71.39 C 60.74 70.80 60.04 69.62 59.69 69.03 C 59.28 69.01 58.46 68.99 58.05 68.98 M 50.15 69.92 C 50.07 70.60 49.91 71.95 49.83 72.63 C 49.14 73.67 48.82 74.83 48.85 76.11 C 51.70 76.92 55.32 76.78 56.79 73.76 C 54.74 73.78 52.69 73.88 50.64 74.01 L 50.72 73.06 C 52.91 73.12 55.27 73.35 57.05 71.78 C 54.76 71.15 52.45 70.55 50.15 69.92 M 61.98 72.97 C 61.99 73.80 62.00 75.47 62.01 76.30 C 64.52 75.60 66.94 74.58 69.49 74.03 C 69.37 73.52 69.12 72.49 68.99 71.97 C 66.60 71.66 64.16 71.90 61.98 72.97 M 62.86 79.32 C 65.64 79.25 68.50 78.52 70.84 77.00 C 70.24 76.45 69.03 75.35 68.43 74.81 C 66.28 75.96 62.15 75.84 62.86 79.32 M 49.99 77.47 L 50.03 79.52 C 50.69 79.46 52.03 79.33 52.70 79.27 C 52.12 80.21 51.48 81.12 50.88 82.05 C 53.13 82.54 55.33 82.23 57.07 80.59 L 56.15 79.90 C 55.39 79.91 53.88 79.92 53.12 79.93 C 54.66 79.10 56.19 78.10 56.78 76.33 C 54.52 76.75 52.27 77.21 49.99 77.47 M 56.15 79.90 C 56.78 79.21 56.78 79.21 56.15 79.90 M 57.88 78.50 C 58.19 81.31 55.38 82.47 53.68 84.08 C 56.71 85.30 58.85 82.85 60.82 81.00 C 59.85 80.15 58.87 79.32 57.88 78.50 M 63.92 83.18 C 67.03 83.39 69.80 81.90 72.60 80.79 C 70.70 77.20 63.13 78.85 63.92 83.18 M 59.57 84.24 C 59.05 84.72 59.05 84.72 59.57 84.24 C 61.22 84.57 62.00 83.92 61.90 82.29 C 60.41 81.91 59.63 82.57 59.57 84.24 M 69.24 82.76 C 67.88 83.65 65.35 83.87 65.83 86.19 C 68.67 86.12 72.17 85.71 73.71 82.93 C 72.85 80.78 70.62 82.18 69.24 82.76 M 61.50 85.22 C 63.29 86.07 63.38 88.06 63.93 89.68 C 66.54 88.73 63.36 83.08 61.50 85.22 M 66.63 87.94 C 69.72 88.60 72.87 88.14 75.86 87.22 C 75.35 86.63 74.34 85.45 73.83 84.86 C 71.39 85.78 68.83 86.49 66.63 87.94 M 60.26 87.22 C 59.25 88.39 61.14 90.88 62.37 89.51 C 63.62 88.27 61.56 86.19 60.26 87.22 M 60.18 93.20 C 59.68 94.85 60.23 95.41 61.86 94.89 C 62.38 93.25 61.82 92.69 60.18 93.20 M 64.35 93.10 C 64.04 93.40 63.43 94.02 63.12 94.32 C 64.13 97.50 68.33 92.23 64.35 93.10 M 68.31 93.10 C 68.01 93.41 67.40 94.03 67.10 94.33 C 68.14 97.54 72.23 92.23 68.31 93.10 Z" />
<path fill="#353333" opacity="1.00" d=" M 38.26 52.97 C 38.88 52.53 39.49 52.10 40.11 51.67 C 41.23 52.63 42.37 53.57 43.52 54.49 C 43.66 56.02 43.79 57.54 43.94 59.07 C 43.54 59.02 42.75 58.91 42.35 58.86 C 42.39 58.21 42.47 56.92 42.51 56.27 C 40.72 55.78 38.91 55.21 37.59 53.82 L 40.37 54.01 L 38.26 52.97 Z" />
<path fill="#353333" opacity="1.00" d=" M 57.26 56.69 C 59.05 55.21 61.39 55.47 63.54 55.63 C 61.42 57.78 57.67 58.51 57.86 62.19 C 58.26 61.53 59.08 60.21 59.48 59.55 C 60.09 60.37 60.74 61.16 61.43 61.91 C 61.01 62.26 60.18 62.94 59.77 63.28 C 58.70 63.09 57.65 62.87 56.60 62.61 C 56.98 60.66 57.45 58.69 57.26 56.69 Z" />
<path fill="#353333" opacity="1.00" d=" M 60.87 58.66 C 61.77 57.33 64.80 58.34 63.32 59.96 C 62.47 61.01 60.44 59.94 60.87 58.66 Z" />
<path fill="#353333" opacity="1.00" d=" M 45.18 90.59 C 45.87 89.43 47.74 88.71 48.99 89.31 C 48.49 90.13 47.81 90.79 46.94 91.28 L 46.25 91.18 L 45.47 91.07 L 45.18 90.59 Z" />
<path fill="#353333" opacity="1.00" d=" M 43.47 92.82 C 43.54 92.71 43.68 92.49 43.75 92.38 L 43.47 92.82 Z" />
</g>
<g id="#cbb4a8ff">
<path fill="#cbb4a8" opacity="1.00" d=" M 56.46 24.58 C 60.80 23.27 65.60 24.24 69.32 26.74 C 72.44 29.15 73.43 33.19 75.31 36.49 C 79.98 38.50 82.56 44.72 79.75 49.17 C 81.37 51.65 81.30 54.72 82.15 57.48 C 81.12 58.24 80.09 59.00 79.06 59.76 C 78.27 59.56 76.69 59.14 75.90 58.94 C 75.76 58.43 75.49 57.41 75.36 56.90 C 75.35 57.45 75.34 58.55 75.34 59.10 C 73.01 59.13 70.69 59.03 68.40 58.65 C 65.66 60.57 62.22 61.38 59.98 64.07 L 59.77 63.28 C 60.18 62.94 61.01 62.26 61.43 61.91 C 60.74 61.16 60.09 60.37 59.48 59.55 C 59.08 60.21 58.26 61.53 57.86 62.19 C 57.67 58.51 61.42 57.78 63.54 55.63 C 61.39 55.47 59.05 55.21 57.26 56.69 C 57.45 58.69 56.98 60.66 56.60 62.61 C 54.75 60.04 54.07 56.92 52.94 54.02 C 51.71 50.84 49.76 48.02 48.27 44.97 C 48.95 45.06 50.31 45.22 50.99 45.31 C 50.31 43.65 49.97 41.89 49.86 40.11 C 48.83 39.78 47.80 39.45 46.77 39.12 C 46.82 39.73 46.91 40.95 46.95 41.55 C 46.56 40.79 45.77 39.27 45.38 38.51 C 46.02 36.98 46.11 35.31 46.29 33.68 C 46.68 32.89 47.48 31.29 47.87 30.49 L 47.01 30.11 L 48.02 30.09 C 49.16 30.02 49.90 29.39 50.24 28.19 C 50.56 27.52 50.98 26.93 51.50 26.41 C 53.06 25.57 54.75 25.04 56.46 24.58 M 59.83 42.80 C 58.37 42.86 57.43 43.92 56.57 44.96 C 58.94 45.05 61.31 45.03 63.69 44.99 C 64.78 44.25 65.91 43.55 67.01 42.81 C 67.01 41.18 67.02 39.55 67.03 37.92 C 64.74 39.55 59.72 39.21 59.83 42.80 M 71.15 40.53 C 71.16 42.19 71.19 43.84 71.25 45.50 C 73.00 48.73 73.49 52.37 73.01 55.99 C 71.12 56.06 69.24 56.08 67.35 56.07 C 66.94 55.63 66.11 54.74 65.70 54.30 C 61.97 52.47 57.02 52.80 55.02 56.97 C 57.78 54.52 61.28 54.04 64.74 54.98 C 65.15 55.45 65.95 56.38 66.36 56.85 C 68.72 56.81 71.39 57.67 73.43 56.06 C 74.59 56.01 75.76 55.99 76.92 55.98 C 77.09 55.61 77.43 54.86 77.60 54.49 C 76.73 53.90 75.87 53.32 75.01 52.73 C 75.12 52.01 75.34 50.58 75.46 49.87 C 74.79 49.10 74.12 48.34 73.46 47.58 C 72.65 45.24 71.91 42.88 71.15 40.53 M 51.30 41.96 C 50.73 43.71 53.58 46.73 54.75 44.49 C 53.93 43.49 52.79 41.50 51.30 41.96 M 60.87 58.66 C 60.44 59.94 62.47 61.01 63.32 59.96 C 64.80 58.34 61.77 57.33 60.87 58.66 Z" />
<path fill="#cbb4a8" opacity="1.00" d=" M 42.55 39.40 C 43.22 39.29 44.55 39.06 45.22 38.94 C 44.86 40.21 44.60 41.50 44.33 42.79 C 44.79 43.47 45.24 44.15 45.69 44.84 C 45.46 45.32 45.00 46.27 44.77 46.75 C 44.25 46.97 43.22 47.41 42.71 47.63 C 43.31 47.83 44.51 48.23 45.11 48.44 C 44.19 49.99 43.37 51.59 42.75 53.28 C 43.98 51.71 45.25 50.16 46.67 48.76 C 46.58 52.14 45.96 55.53 44.66 58.66 C 44.28 60.10 42.49 59.83 41.39 60.21 C 40.22 58.18 38.91 56.23 37.38 54.45 C 37.42 53.86 37.49 52.69 37.53 52.10 C 37.67 51.92 37.95 51.57 38.10 51.39 C 39.59 51.23 41.07 51.34 42.54 51.72 L 42.44 49.49 C 41.76 49.59 40.39 49.81 39.70 49.91 C 40.73 49.03 41.82 48.23 42.86 47.36 C 42.09 47.49 40.56 47.75 39.79 47.88 C 40.32 44.96 41.31 42.16 42.52 39.46 C 42.53 39.45 42.54 39.42 42.55 39.40 M 38.26 52.97 L 40.37 54.01 L 37.59 53.82 C 38.91 55.21 40.72 55.78 42.51 56.27 C 42.47 56.92 42.39 58.21 42.35 58.86 C 42.75 58.91 43.54 59.02 43.94 59.07 C 43.79 57.54 43.66 56.02 43.52 54.49 C 42.37 53.57 41.23 52.63 40.11 51.67 C 39.49 52.10 38.88 52.53 38.26 52.97 Z" />
<path fill="#cbb4a8" opacity="1.00" d=" M 61.36 41.16 L 61.85 41.27 C 61.80 41.89 61.72 43.15 61.67 43.77 C 61.35 43.81 60.71 43.90 60.39 43.94 C 60.10 42.85 60.42 41.93 61.36 41.16 Z" />
<path fill="#cbb4a8" opacity="1.00" d=" M 62.13 66.52 C 63.41 66.11 64.70 65.73 66.00 65.39 C 66.54 65.85 67.62 66.77 68.16 67.23 C 65.89 67.32 63.64 67.63 61.41 68.10 C 61.59 67.71 61.95 66.92 62.13 66.52 Z" />
<path fill="#cbb4a8" opacity="1.00" d=" M 50.99 69.06 C 51.09 68.38 51.27 67.01 51.37 66.33 C 51.84 66.47 52.77 66.75 53.24 66.89 C 54.77 67.92 56.22 69.05 57.61 70.25 C 55.39 69.94 53.18 69.53 50.99 69.06 Z" />
<path fill="#cbb4a8" opacity="1.00" d=" M 61.41 68.10 C 61.27 68.89 61.27 68.89 61.41 68.10 Z" />
<path fill="#cbb4a8" opacity="1.00" d=" M 60.78 73.26 C 61.60 70.57 63.59 68.80 66.06 67.68 C 67.25 68.76 68.44 69.85 69.63 70.94 C 66.58 71.24 63.26 71.09 60.78 73.26 Z" />
<path fill="#cbb4a8" opacity="1.00" d=" M 50.15 69.92 C 52.45 70.55 54.76 71.15 57.05 71.78 C 55.27 73.35 52.91 73.12 50.72 73.06 L 50.64 74.01 C 52.69 73.88 54.74 73.78 56.79 73.76 C 55.32 76.78 51.70 76.92 48.85 76.11 C 48.82 74.83 49.14 73.67 49.83 72.63 C 49.91 71.95 50.07 70.60 50.15 69.92 Z" />
<path fill="#cbb4a8" opacity="1.00" d=" M 61.98 72.97 C 64.16 71.90 66.60 71.66 68.99 71.97 C 69.12 72.49 69.37 73.52 69.49 74.03 C 66.94 74.58 64.52 75.60 62.01 76.30 C 62.00 75.47 61.99 73.80 61.98 72.97 Z" />
<path fill="#cbb4a8" opacity="1.00" d=" M 62.86 79.32 C 62.15 75.84 66.28 75.96 68.43 74.81 C 69.03 75.35 70.24 76.45 70.84 77.00 C 68.50 78.52 65.64 79.25 62.86 79.32 Z" />
<path fill="#cbb4a8" opacity="1.00" d=" M 49.99 77.47 C 52.27 77.21 54.52 76.75 56.78 76.33 C 56.19 78.10 54.66 79.10 53.12 79.93 C 53.88 79.92 55.39 79.91 56.15 79.90 L 57.07 80.59 C 55.33 82.23 53.13 82.54 50.88 82.05 C 51.48 81.12 52.12 80.21 52.70 79.27 C 52.03 79.33 50.69 79.46 50.03 79.52 L 49.99 77.47 Z" />
<path fill="#cbb4a8" opacity="1.00" d=" M 56.15 79.90 C 56.78 79.21 56.78 79.21 56.15 79.90 Z" />
<path fill="#cbb4a8" opacity="1.00" d=" M 57.88 78.50 C 58.87 79.32 59.85 80.15 60.82 81.00 C 58.85 82.85 56.71 85.30 53.68 84.08 C 55.38 82.47 58.19 81.31 57.88 78.50 Z" />
<path fill="#cbb4a8" opacity="1.00" d=" M 63.92 83.18 C 63.13 78.85 70.70 77.20 72.60 80.79 C 69.80 81.90 67.03 83.39 63.92 83.18 Z" />
<path fill="#cbb4a8" opacity="1.00" d=" M 59.57 84.24 C 59.63 82.57 60.41 81.91 61.90 82.29 C 62.00 83.92 61.22 84.57 59.57 84.24 Z" />
<path fill="#cbb4a8" opacity="1.00" d=" M 69.24 82.76 C 70.62 82.18 72.85 80.78 73.71 82.93 C 72.17 85.71 68.67 86.12 65.83 86.19 C 65.35 83.87 67.88 83.65 69.24 82.76 Z" />
<path fill="#cbb4a8" opacity="1.00" d=" M 59.57 84.24 C 59.05 84.72 59.05 84.72 59.57 84.24 Z" />
<path fill="#cbb4a8" opacity="1.00" d=" M 61.50 85.22 C 63.36 83.08 66.54 88.73 63.93 89.68 C 63.38 88.06 63.29 86.07 61.50 85.22 Z" />
<path fill="#cbb4a8" opacity="1.00" d=" M 66.63 87.94 C 68.83 86.49 71.39 85.78 73.83 84.86 C 74.34 85.45 75.35 86.63 75.86 87.22 C 72.87 88.14 69.72 88.60 66.63 87.94 Z" />
<path fill="#cbb4a8" opacity="1.00" d=" M 50.71 88.27 C 53.71 87.66 56.61 86.69 59.55 85.84 C 59.26 87.63 59.25 89.45 59.89 91.18 C 57.40 91.95 54.90 92.74 52.30 92.97 C 51.93 91.60 52.41 89.77 51.18 88.77 L 50.71 88.27 Z" />
<path fill="#cbb4a8" opacity="1.00" d=" M 60.26 87.22 C 61.56 86.19 63.62 88.27 62.37 89.51 C 61.14 90.88 59.25 88.39 60.26 87.22 Z" />
<path fill="#cbb4a8" opacity="1.00" d=" M 62.10 93.56 C 64.10 89.28 69.83 88.86 73.98 89.18 C 76.74 89.39 75.76 92.70 75.91 94.52 L 75.91 94.55 L 74.94 94.69 C 73.54 94.88 72.15 95.08 70.75 95.30 C 70.63 93.72 70.39 92.15 69.99 90.62 C 69.38 91.24 68.15 92.47 67.53 93.08 C 67.02 92.60 66.00 91.64 65.49 91.17 C 64.64 91.76 62.95 92.96 62.10 93.56 Z" />
<path fill="#cbb4a8" opacity="1.00" d=" M 48.30 91.88 C 47.89 90.69 50.05 89.84 50.95 90.41 C 51.65 91.84 49.26 92.64 48.30 91.88 Z" />
<path fill="#cbb4a8" opacity="1.00" d=" M 46.25 91.18 L 46.94 91.28 L 46.61 91.74 L 46.08 91.65 L 46.25 91.18 Z" />
<path fill="#cbb4a8" opacity="1.00" d=" M 60.18 93.20 C 61.82 92.69 62.38 93.25 61.86 94.89 C 60.23 95.41 59.68 94.85 60.18 93.20 Z" />
<path fill="#cbb4a8" opacity="1.00" d=" M 64.35 93.10 C 68.33 92.23 64.13 97.50 63.12 94.32 C 63.43 94.02 64.04 93.40 64.35 93.10 Z" />
<path fill="#cbb4a8" opacity="1.00" d=" M 68.31 93.10 C 72.23 92.23 68.14 97.54 67.10 94.33 C 67.40 94.03 68.01 93.41 68.31 93.10 Z" />
</g>
<g id="#83736bff">
<path fill="#83736b" opacity="1.00" d=" M 45.22 38.94 L 45.38 38.51 C 45.77 39.27 46.56 40.79 46.95 41.55 C 47.38 42.70 47.80 43.84 48.27 44.97 C 49.76 48.02 51.71 50.84 52.94 54.02 C 54.07 56.92 54.75 60.04 56.60 62.61 C 57.65 62.87 58.70 63.09 59.77 63.28 L 59.98 64.07 C 60.29 65.12 60.62 66.16 60.96 67.20 C 58.45 68.28 55.77 67.43 53.24 66.89 C 52.77 66.75 51.84 66.47 51.37 66.33 C 52.42 64.20 55.15 62.13 53.60 59.56 C 51.12 54.57 48.44 49.68 45.69 44.84 C 45.24 44.15 44.79 43.47 44.33 42.79 C 44.60 41.50 44.86 40.21 45.22 38.94 Z" />
<path fill="#83736b" opacity="1.00" d=" M 62.13 66.52 C 62.71 61.81 68.02 59.64 72.25 59.90 C 71.80 62.45 71.11 65.01 69.60 67.17 C 69.15 66.61 68.25 65.50 67.80 64.94 C 67.35 65.06 66.45 65.28 66.00 65.39 C 64.70 65.73 63.41 66.11 62.13 66.52 Z" />
<path fill="#83736b" opacity="1.00" d=" M 48.99 89.31 L 49.60 87.84 L 51.18 88.77 C 52.41 89.77 51.93 91.60 52.30 92.97 C 51.74 92.97 50.61 92.98 50.04 92.98 C 47.85 92.97 45.66 92.92 43.47 92.82 L 43.75 92.38 C 44.18 92.05 45.04 91.40 45.47 91.07 L 46.25 91.18 L 46.08 91.65 L 46.61 91.74 L 46.94 91.28 C 47.81 90.79 48.49 90.13 48.99 89.31 M 48.30 91.88 C 49.26 92.64 51.65 91.84 50.95 90.41 C 50.05 89.84 47.89 90.69 48.30 91.88 Z" />
</g>
</svg>
