<?xml version="1.0" encoding="UTF-8" ?>
<!DOCTYPE svg PUBLIC "-//W3C//DTD SVG 1.1//EN" "http://www.w3.org/Graphics/SVG/1.1/DTD/svg11.dtd">
<svg width="120pt" height="120pt" viewBox="0 0 120 120" version="1.1" xmlns="http://www.w3.org/2000/svg">
<g id="#22343cf8">
<path fill="#22343c" opacity="0.97" d=" M 49.16 35.09 C 51.18 34.65 51.70 37.42 52.71 38.63 L 52.52 39.46 C 51.43 38.55 50.36 37.61 49.29 36.68 C 49.69 39.20 49.70 41.76 49.03 44.25 C 47.53 44.80 47.50 45.46 48.95 46.21 L 49.15 47.31 C 46.98 46.63 47.72 50.00 49.34 48.31 C 50.08 48.31 51.56 48.29 52.30 48.28 C 50.02 49.40 47.64 50.33 45.10 50.62 C 47.43 48.61 47.39 45.72 46.36 43.04 C 47.23 42.44 48.10 41.85 48.97 41.25 C 48.41 39.28 47.23 36.71 49.16 35.09 Z" />
</g>
<g id="#243943ff">
<path fill="#243943" opacity="1.00" d=" M 70.56 34.63 C 74.04 36.54 70.55 40.24 68.76 42.06 C 71.73 42.10 74.81 41.76 77.66 42.85 C 77.13 42.98 76.09 43.22 75.56 43.35 C 72.62 43.12 69.66 42.97 66.72 42.78 C 68.07 40.96 69.53 39.22 70.76 37.31 C 70.74 36.91 70.68 36.12 70.65 35.72 L 70.56 34.63 Z" />
</g>
<g id="#0e2029f0">
<path fill="#0e2029" opacity="0.94" d=" M 55.19 35.88 C 60.03 35.30 64.44 39.17 69.17 37.04 C 67.58 38.24 65.82 39.90 63.71 38.87 C 61.03 37.71 58.21 36.58 55.23 37.06 L 55.19 35.88 Z" />
</g>
<g id="#95d4efff">
<path fill="#95d4ef" opacity="1.00" d=" M 70.65 35.72 C 70.68 36.12 70.74 36.91 70.76 37.31 C 69.53 39.22 68.07 40.96 66.72 42.78 C 69.66 42.97 72.62 43.12 75.56 43.35 C 72.61 44.50 69.67 45.70 66.86 47.17 C 69.06 48.43 71.27 49.68 73.41 51.05 C 70.52 51.13 66.39 49.39 64.95 52.98 C 62.82 55.61 65.03 58.53 66.00 61.10 C 67.69 64.53 67.33 68.43 67.37 72.13 C 66.94 72.61 66.09 73.57 65.67 74.05 C 64.61 74.97 63.51 76.17 63.77 77.69 L 63.77 78.53 L 63.11 78.96 C 59.85 80.88 55.97 84.29 52.03 82.01 C 48.10 80.30 48.40 75.58 48.70 72.04 L 49.48 72.13 C 51.75 72.78 53.87 71.98 55.71 70.65 C 56.35 72.30 57.38 73.99 57.17 75.82 C 56.38 77.15 55.26 78.24 54.24 79.39 C 55.30 79.08 56.35 78.77 57.41 78.46 C 57.63 77.11 57.85 75.77 58.02 74.41 C 59.52 73.20 61.02 71.97 62.39 70.60 C 62.64 70.28 63.15 69.63 63.40 69.31 L 63.54 68.40 C 64.01 66.17 63.93 63.88 63.28 61.70 C 63.16 61.24 62.94 60.32 62.83 59.86 C 62.58 59.48 62.09 58.71 61.85 58.32 C 61.97 57.93 62.21 57.16 62.33 56.77 C 62.46 56.35 62.72 55.53 62.85 55.11 C 58.79 55.94 54.65 55.72 50.54 55.86 C 49.49 54.20 48.43 52.53 47.06 51.13 C 45.55 52.01 44.80 53.61 43.88 55.01 C 43.99 53.79 44.09 52.58 44.19 51.36 L 44.23 50.75 L 45.10 50.62 C 47.64 50.33 50.02 49.40 52.30 48.28 C 51.56 48.29 50.08 48.31 49.34 48.31 L 49.15 47.31 L 48.95 46.21 C 48.97 45.72 49.01 44.74 49.03 44.25 C 49.70 41.76 49.69 39.20 49.29 36.68 C 50.36 37.61 51.43 38.55 52.52 39.46 C 54.03 40.72 55.57 41.95 57.15 43.12 C 54.57 45.88 54.15 50.15 56.95 52.92 C 57.30 52.63 58.01 52.07 58.37 51.79 L 58.99 51.30 C 59.10 51.21 59.32 51.03 59.43 50.93 L 60.10 50.39 C 61.70 49.47 61.45 47.24 60.26 46.10 C 59.84 45.47 59.02 44.20 58.60 43.57 L 58.52 42.58 C 60.37 41.52 62.05 40.20 63.71 38.87 C 65.82 39.90 67.58 38.24 69.17 37.04 C 69.54 36.71 70.28 36.05 70.65 35.72 Z" />
</g>
<g id="#c2fdffff">
<path fill="#c2fdff" opacity="1.00" d=" M 55.23 37.06 C 58.21 36.58 61.03 37.71 63.71 38.87 C 62.05 40.20 60.37 41.52 58.52 42.58 C 58.18 42.71 57.49 42.99 57.15 43.12 C 55.57 41.95 54.03 40.72 52.52 39.46 L 52.71 38.63 C 53.34 38.24 54.60 37.45 55.23 37.06 Z" />
</g>
<g id="#99584dff">
<path fill="#99584d" opacity="1.00" d=" M 57.15 43.12 C 57.49 42.99 58.18 42.71 58.52 42.58 L 58.60 43.57 C 58.68 46.31 58.54 49.05 58.37 51.79 C 58.01 52.07 57.30 52.63 56.95 52.92 C 54.15 50.15 54.57 45.88 57.15 43.12 M 56.13 47.03 C 55.60 48.68 56.14 49.25 57.74 48.74 C 58.28 47.10 57.74 46.53 56.13 47.03 Z" />
</g>
<g id="#323232ff">
<path fill="#323232" opacity="1.00" d=" M 75.56 43.35 C 76.09 43.22 77.13 42.98 77.66 42.85 C 75.79 45.22 72.82 45.87 70.01 46.34 C 69.87 48.83 73.36 48.83 74.92 50.12 C 74.95 50.80 75.00 52.18 75.03 52.87 C 74.32 52.94 72.88 53.10 72.16 53.18 C 72.07 56.56 70.67 59.91 67.46 61.40 C 67.97 64.93 68.53 68.67 67.37 72.13 C 67.33 68.43 67.69 64.53 66.00 61.10 C 65.03 58.53 62.82 55.61 64.95 52.98 C 66.39 49.39 70.52 51.13 73.41 51.05 C 71.27 49.68 69.06 48.43 66.86 47.17 C 69.67 45.70 72.61 44.50 75.56 43.35 M 64.95 55.83 C 65.44 56.90 65.92 57.97 66.39 59.05 C 66.96 59.11 68.11 59.23 68.68 59.29 C 68.66 58.87 68.63 58.02 68.61 57.60 C 70.91 56.89 71.64 54.97 71.33 52.70 C 70.82 52.97 69.81 53.51 69.30 53.78 C 69.30 53.21 69.30 52.07 69.30 51.50 C 67.45 52.50 66.12 54.12 64.95 55.83 Z" />
<path fill="#323232" opacity="1.00" d=" M 42.93 51.14 L 44.19 51.36 C 44.09 52.58 43.99 53.79 43.88 55.01 C 44.80 53.61 45.55 52.01 47.06 51.13 C 48.43 52.53 49.49 54.20 50.54 55.86 C 54.65 55.72 58.79 55.94 62.85 55.11 C 62.72 55.53 62.46 56.35 62.33 56.77 C 61.00 56.91 59.69 57.07 58.37 57.23 C 56.45 61.03 54.57 64.90 53.72 69.10 C 56.95 69.24 60.17 69.32 63.40 69.31 C 63.15 69.63 62.64 70.28 62.39 70.60 C 60.50 70.19 58.60 69.84 56.69 69.51 C 57.14 71.14 57.63 72.76 58.02 74.41 C 57.85 75.77 57.63 77.11 57.41 78.46 C 56.35 78.77 55.30 79.08 54.24 79.39 C 55.26 78.24 56.38 77.15 57.17 75.82 C 57.38 73.99 56.35 72.30 55.71 70.65 C 54.21 70.28 52.68 70.03 51.16 69.78 C 52.98 68.69 53.31 66.55 54.00 64.72 C 54.89 62.06 56.19 59.57 57.28 56.99 C 53.18 56.57 49.23 57.78 45.20 58.16 C 43.30 56.26 42.88 53.72 42.93 51.14 Z" />
</g>
<g id="#cc705bff">
<path fill="#cc705b" opacity="1.00" d=" M 48.95 46.21 C 47.50 45.46 47.53 44.80 49.03 44.25 C 49.01 44.74 48.97 45.72 48.95 46.21 Z" />
</g>
<g id="#f4edecff">
<path fill="#f4edec" opacity="1.00" d=" M 58.37 51.79 C 58.54 49.05 58.68 46.31 58.60 43.57 C 59.02 44.20 59.84 45.47 60.26 46.10 C 59.76 47.51 59.70 48.94 60.10 50.39 L 59.43 50.93 C 59.32 51.03 59.10 51.21 58.99 51.30 L 58.37 51.79 Z" />
</g>
<g id="#4c5b61ff">
<path fill="#4c5b61" opacity="1.00" d=" M 60.26 46.10 C 61.45 47.24 61.70 49.47 60.10 50.39 C 59.70 48.94 59.76 47.51 60.26 46.10 Z" />
</g>
<g id="#d26f5aff">
<path fill="#d26f5a" opacity="1.00" d=" M 49.34 48.31 C 47.72 50.00 46.98 46.63 49.15 47.31 L 49.34 48.31 Z" />
</g>
<g id="#251110ff">
<path fill="#251110" opacity="1.00" d=" M 56.13 47.03 C 57.74 46.53 58.28 47.10 57.74 48.74 C 56.14 49.25 55.60 48.68 56.13 47.03 Z" />
</g>
<g id="#5a666bff">
<path fill="#5a666b" opacity="1.00" d=" M 58.99 51.30 C 59.10 51.21 59.32 51.03 59.43 50.93 C 59.32 51.03 59.10 51.21 58.99 51.30 Z" />
</g>
<g id="#fdf6c4ff">
<path fill="#fdf6c4" opacity="1.00" d=" M 64.95 55.83 C 66.12 54.12 67.45 52.50 69.30 51.50 C 69.30 52.07 69.30 53.21 69.30 53.78 C 69.81 53.51 70.82 52.97 71.33 52.70 C 71.64 54.97 70.91 56.89 68.61 57.60 C 68.63 58.02 68.66 58.87 68.68 59.29 C 68.11 59.23 66.96 59.11 66.39 59.05 C 65.92 57.97 65.44 56.90 64.95 55.83 Z" />
<path fill="#fdf6c4" opacity="1.00" d=" M 58.37 57.23 C 59.69 57.07 61.00 56.91 62.33 56.77 C 62.21 57.16 61.97 57.93 61.85 58.32 C 61.06 59.79 61.39 60.30 62.83 59.86 C 62.94 60.32 63.16 61.24 63.28 61.70 C 63.20 62.51 63.06 64.12 62.99 64.93 C 60.64 64.98 58.29 64.98 55.94 65.01 L 56.00 65.89 C 58.29 65.98 60.58 66.03 62.86 66.26 C 63.03 66.79 63.37 67.86 63.54 68.40 L 63.40 69.31 C 60.17 69.32 56.95 69.24 53.72 69.10 C 54.57 64.90 56.45 61.03 58.37 57.23 Z" />
</g>
<g id="#615e46ff">
<path fill="#615e46" opacity="1.00" d=" M 62.83 59.86 C 61.39 60.30 61.06 59.79 61.85 58.32 C 62.09 58.71 62.58 59.48 62.83 59.86 Z" />
</g>
<g id="#7c7b62ff">
<path fill="#7c7b62" opacity="1.00" d=" M 63.28 61.70 C 63.93 63.88 64.01 66.17 63.54 68.40 C 63.37 67.86 63.03 66.79 62.86 66.26 C 60.58 66.03 58.29 65.98 56.00 65.89 L 55.94 65.01 C 58.29 64.98 60.64 64.98 62.99 64.93 C 63.06 64.12 63.20 62.51 63.28 61.70 Z" />
</g>
<g id="#bdfaffff">
<path fill="#bdfaff" opacity="1.00" d=" M 51.16 69.78 C 52.68 70.03 54.21 70.28 55.71 70.65 C 53.87 71.98 51.75 72.78 49.48 72.13 C 49.90 71.54 50.74 70.37 51.16 69.78 Z" />
</g>
<g id="#ece4b4ff">
<path fill="#ece4b4" opacity="1.00" d=" M 56.69 69.51 C 58.60 69.84 60.50 70.19 62.39 70.60 C 61.02 71.97 59.52 73.20 58.02 74.41 C 57.63 72.76 57.14 71.14 56.69 69.51 Z" />
</g>
<g id="#2a3e47f7">
<path fill="#2a3e47" opacity="0.97" d=" M 52.38 83.67 C 47.58 82.20 45.88 76.00 48.70 72.04 C 48.40 75.58 48.10 80.30 52.03 82.01 C 55.97 84.29 59.85 80.88 63.11 78.96 C 60.97 82.54 56.49 84.86 52.38 83.67 Z" />
</g>
<g id="#4a6672ff">
<path fill="#4a6672" opacity="1.00" d=" M 63.77 77.69 C 63.51 76.17 64.61 74.97 65.67 74.05 C 66.67 75.18 65.37 78.26 63.77 77.69 Z" />
</g>
</svg>
