<?xml version="1.0" encoding="UTF-8" ?>
<!DOCTYPE svg PUBLIC "-//W3C//DTD SVG 1.1//EN" "http://www.w3.org/Graphics/SVG/1.1/DTD/svg11.dtd">
<svg width="120pt" height="120pt" viewBox="0 0 120 120" version="1.1" xmlns="http://www.w3.org/2000/svg">
<g id="#d5bd3eff">
<path fill="#d5bd3e" opacity="1.00" d=" M 72.76 19.46 C 73.00 19.09 73.48 18.36 73.72 18.00 C 73.80 22.91 73.44 27.84 73.94 32.73 C 74.48 33.94 74.78 35.21 74.83 36.54 L 75.78 36.36 C 75.72 38.47 75.68 40.58 75.62 42.68 C 77.24 42.55 78.86 42.40 80.48 42.21 C 82.64 43.34 84.08 45.21 84.86 47.51 C 87.22 47.51 89.58 47.53 91.95 47.57 C 91.73 47.01 91.29 45.89 91.08 45.33 L 92.51 45.53 L 92.61 43.47 C 91.94 43.53 90.60 43.65 89.93 43.71 L 90.64 42.38 C 91.30 41.29 91.73 40.11 91.93 38.85 C 92.31 39.10 93.07 39.60 93.45 39.85 C 93.55 40.69 93.66 41.54 93.76 42.38 C 95.26 40.41 96.04 38.07 95.65 35.59 L 95.63 34.92 C 96.55 34.73 98.02 33.27 97.93 35.60 C 98.64 35.53 100.07 35.39 100.78 35.32 L 100.49 36.29 C 104.80 36.07 105.06 41.57 104.63 44.66 C 104.19 44.98 103.31 45.63 102.87 45.96 C 101.41 49.95 98.23 54.93 93.40 54.55 C 93.49 56.80 93.49 59.05 93.44 61.30 C 96.74 61.63 95.77 65.67 95.07 67.81 C 93.50 67.69 91.92 67.68 90.36 67.42 C 88.97 66.59 89.67 64.60 89.31 63.27 C 90.38 62.57 91.45 61.88 92.56 61.25 C 92.54 59.31 92.53 57.37 92.51 55.43 C 90.76 55.67 88.85 55.50 87.34 56.60 C 86.05 56.62 84.76 56.62 83.47 56.61 C 83.60 57.19 83.86 58.34 84.00 58.91 C 83.52 58.84 82.58 58.69 82.10 58.62 C 83.67 55.40 84.89 51.99 85.16 48.39 C 83.38 46.22 81.41 44.18 78.86 42.92 C 78.19 42.98 76.86 43.10 76.19 43.16 C 76.18 44.73 76.17 46.29 76.17 47.85 C 74.07 49.62 71.89 51.29 69.75 53.00 C 66.15 54.14 62.36 54.28 58.62 54.16 C 60.37 52.13 62.60 50.36 63.69 47.85 C 63.74 46.29 63.59 44.74 63.52 43.18 C 66.91 45.91 64.43 50.30 62.42 53.04 C 66.83 52.46 71.53 51.00 74.30 47.28 C 76.15 41.91 74.40 36.19 71.97 31.30 C 72.28 29.74 73.87 27.96 72.77 26.44 C 71.77 27.23 71.58 28.81 70.88 29.88 C 69.47 28.92 68.06 27.96 66.65 27.01 C 68.90 24.67 71.09 22.25 72.76 19.46 M 97.65 37.88 C 97.67 40.12 96.30 41.89 95.38 43.81 C 97.86 42.00 98.52 38.75 99.89 36.17 C 98.93 36.31 97.59 36.64 97.65 37.88 M 98.16 45.13 C 99.33 44.02 100.50 42.91 101.69 41.83 C 101.66 42.83 101.61 43.84 101.52 44.85 C 102.57 43.89 103.84 42.79 103.86 41.24 C 103.25 39.86 102.47 38.57 101.73 37.27 C 100.30 39.77 99.15 42.42 98.16 45.13 M 86.39 48.35 C 86.44 50.87 87.03 53.63 85.46 55.84 C 87.38 54.62 89.63 54.66 91.81 54.79 C 91.29 52.55 90.97 50.26 90.81 47.96 C 89.34 48.09 87.86 48.22 86.39 48.35 Z" />
<path fill="#d5bd3e" opacity="1.00" d=" M 49.47 21.72 L 49.47 22.38 C 49.45 23.05 49.48 23.71 49.54 24.38 C 51.88 25.45 54.12 26.72 56.34 28.01 C 54.53 29.91 52.22 31.62 51.41 34.22 C 50.24 39.63 51.47 45.23 53.74 50.19 C 53.74 47.78 53.71 45.37 53.67 42.96 C 53.69 42.52 53.73 41.64 53.75 41.20 C 53.85 41.23 54.05 41.30 54.16 41.33 L 54.94 42.07 L 54.56 42.13 L 54.72 42.46 L 55.18 42.48 C 55.39 42.86 55.83 43.62 56.05 44.00 C 55.79 45.94 55.21 47.86 55.31 49.82 C 56.17 51.43 57.45 52.77 58.62 54.16 L 59.39 55.05 C 58.67 55.04 57.22 55.03 56.50 55.02 C 54.24 52.87 52.21 50.49 50.49 47.89 C 50.14 48.19 49.44 48.78 49.09 49.07 C 49.75 48.17 50.62 47.59 51.71 47.33 L 51.45 45.43 L 50.40 45.81 C 51.17 41.29 49.21 36.11 51.61 32.04 C 50.32 30.44 50.48 28.39 50.43 26.47 L 49.55 26.79 C 49.69 25.23 49.04 23.90 48.18 22.66 L 49.47 21.72 Z" />
<path fill="#d5bd3e" opacity="1.00" d=" M 49.94 22.33 C 51.29 22.07 52.15 23.38 53.11 24.07 C 54.37 24.51 55.45 25.25 56.08 26.46 C 59.35 26.55 62.62 26.54 65.89 26.47 L 65.57 26.77 C 62.65 27.19 59.71 27.46 56.81 27.98 C 54.12 26.63 51.90 24.59 49.94 22.33 Z" />
<path fill="#d5bd3e" opacity="1.00" d=" M 68.22 38.72 C 68.39 38.77 68.73 38.87 68.90 38.91 L 68.22 38.72 Z" />
<path fill="#d5bd3e" opacity="1.00" d=" M 67.87 40.91 C 68.29 40.66 69.14 40.15 69.56 39.90 L 69.53 40.84 L 68.64 41.36 L 67.87 40.91 Z" />
<path fill="#d5bd3e" opacity="1.00" d=" M 102.26 41.29 C 102.74 41.77 102.74 41.77 102.26 41.29 Z" />
<path fill="#d5bd3e" opacity="1.00" d=" M 64.30 42.00 L 64.86 42.43 C 64.72 42.33 64.44 42.11 64.30 42.00 Z" />
<path fill="#d5bd3e" opacity="1.00" d=" M 20.63 49.89 C 20.63 49.31 20.63 48.15 20.64 47.57 C 22.11 49.75 23.60 52.02 23.54 54.79 C 21.88 53.22 20.41 51.46 18.98 49.69 L 18.71 49.36 L 20.63 49.89 Z" />
<path fill="#d5bd3e" opacity="1.00" d=" M 22.85 47.98 C 24.78 48.42 26.01 49.93 27.04 51.50 C 28.26 51.49 29.48 51.46 30.70 51.43 C 31.74 52.70 32.90 53.99 32.89 55.77 C 33.35 55.61 34.25 55.30 34.71 55.14 L 34.54 56.79 C 35.08 56.63 36.16 56.32 36.70 56.16 L 36.57 57.81 C 37.10 57.64 38.16 57.29 38.69 57.11 L 38.59 58.93 C 41.26 57.88 43.88 56.67 46.44 55.37 C 46.41 53.55 46.94 51.84 47.62 50.17 L 48.32 49.96 C 47.78 51.79 47.35 53.65 46.92 55.51 C 48.47 56.81 50.02 58.12 51.60 59.39 C 52.77 60.86 53.96 62.31 55.16 63.75 C 59.13 63.86 63.05 64.60 67.01 64.75 C 70.52 64.88 73.68 63.08 76.50 61.20 C 76.80 61.32 77.40 61.56 77.70 61.68 C 78.47 61.01 79.23 60.35 80.01 59.70 C 80.16 60.20 80.46 61.21 80.61 61.72 C 80.93 64.99 80.85 68.39 79.42 71.43 L 80.90 71.44 C 80.77 71.96 80.51 72.99 80.39 73.50 L 81.81 73.31 L 81.48 74.27 C 83.75 74.14 85.03 75.81 86.04 77.57 C 86.49 77.49 87.38 77.34 87.83 77.26 C 87.78 77.69 87.69 78.54 87.64 78.97 C 90.00 80.28 90.86 83.04 90.82 85.59 L 91.91 85.30 C 91.69 88.51 90.76 91.61 90.42 94.80 C 91.00 94.62 92.15 94.27 92.73 94.09 L 92.39 95.33 C 95.42 94.65 95.91 97.49 96.02 99.72 C 90.14 99.72 84.27 99.64 78.40 99.71 C 78.48 97.60 78.52 95.49 78.59 93.38 L 77.39 93.84 C 77.47 91.88 77.51 89.93 77.52 87.97 C 76.03 87.16 74.81 85.98 74.04 84.47 C 73.61 84.60 72.75 84.88 72.32 85.02 L 72.69 83.48 C 71.84 83.56 70.14 83.74 69.28 83.83 L 69.60 82.30 C 66.59 83.30 63.51 84.21 60.80 85.93 C 62.82 81.59 68.87 81.14 72.79 82.89 C 76.90 85.09 80.02 88.67 83.76 91.41 C 84.14 90.89 84.91 89.86 85.30 89.34 C 86.13 89.86 86.97 90.37 87.81 90.89 C 88.87 89.94 89.93 89.00 90.99 88.06 C 89.82 84.82 88.93 81.25 86.31 78.82 C 84.11 76.59 81.10 75.16 79.31 72.54 C 78.55 70.38 79.54 68.05 79.77 65.86 C 72.48 68.91 64.48 69.21 56.78 67.77 C 56.89 69.58 57.01 71.38 57.13 73.19 C 54.99 74.98 52.62 76.46 50.06 77.58 L 49.99 76.70 C 50.64 76.49 51.94 76.08 52.60 75.87 C 53.60 75.14 54.60 74.41 55.60 73.67 C 55.52 71.24 55.51 68.82 55.53 66.39 L 54.28 66.80 C 54.39 65.96 54.59 64.27 54.69 63.43 L 53.55 63.78 L 53.21 62.21 C 49.60 63.26 46.23 64.95 42.64 66.07 C 39.63 67.12 36.38 66.54 33.25 66.70 L 33.67 65.53 C 31.89 65.62 30.10 65.69 28.32 65.77 L 28.57 64.33 C 28.01 64.49 26.90 64.81 26.34 64.98 L 26.65 63.46 C 25.81 63.56 24.13 63.75 23.29 63.85 L 23.68 62.47 C 22.24 62.56 20.79 62.67 19.34 62.78 L 19.53 61.41 C 18.97 61.53 17.86 61.77 17.31 61.89 C 17.39 61.37 17.55 60.33 17.63 59.81 L 15.67 59.82 C 16.12 59.63 17.02 59.24 17.47 59.05 L 17.61 57.44 C 17.05 57.56 15.93 57.79 15.37 57.90 C 15.42 57.28 15.52 56.05 15.56 55.43 C 16.54 54.04 17.96 52.94 17.44 51.02 L 18.02 51.61 C 18.19 51.77 18.51 52.09 18.67 52.25 C 19.11 52.52 19.97 53.05 20.41 53.32 C 21.06 54.30 21.70 55.29 22.35 56.27 C 20.58 55.69 18.93 54.75 17.12 54.30 C 15.48 56.11 17.79 57.27 18.94 58.37 C 18.62 59.22 18.31 60.07 18.00 60.92 C 18.59 60.95 19.79 61.01 20.39 61.04 C 20.19 59.45 20.01 57.86 19.83 56.27 C 26.57 60.55 33.88 64.33 41.96 65.01 C 43.36 64.97 44.67 64.38 45.84 63.66 C 46.76 61.44 45.73 59.08 45.43 56.84 C 44.04 57.36 42.66 57.88 41.28 58.40 C 41.19 59.08 40.99 60.46 40.90 61.15 C 38.61 59.39 36.19 57.81 33.66 56.42 C 32.52 57.19 31.57 58.47 30.20 58.79 C 27.60 57.76 27.73 54.65 27.46 52.37 C 28.90 53.54 30.29 54.78 31.68 56.00 C 31.34 54.70 30.99 53.40 30.65 52.10 C 28.82 52.05 26.98 52.02 25.15 51.98 C 24.40 50.64 23.65 49.29 22.85 47.98 M 90.21 95.55 C 90.14 96.70 90.08 97.85 90.02 99.00 C 90.46 99.00 91.35 98.99 91.79 98.99 L 91.61 96.37 C 92.71 97.31 93.78 98.31 94.86 99.28 C 94.84 98.53 94.81 97.02 94.79 96.27 C 93.26 96.04 91.73 95.82 90.21 95.55 M 84.35 98.98 C 86.20 98.77 88.67 99.28 89.40 96.96 C 87.38 96.78 85.31 96.91 84.35 98.98 Z" />
<path fill="#d5bd3e" opacity="1.00" d=" M 78.25 50.26 C 78.80 50.78 78.80 50.78 78.25 50.26 Z" />
<path fill="#d5bd3e" opacity="1.00" d=" M 61.27 58.24 C 61.73 58.82 61.73 58.82 61.27 58.24 Z" />
<path fill="#d5bd3e" opacity="1.00" d=" M 48.13 84.55 C 49.52 84.73 49.75 85.41 48.84 86.59 C 47.46 86.41 47.22 85.73 48.13 84.55 Z" />
<path fill="#d5bd3e" opacity="1.00" d=" M 45.56 84.51 C 46.77 86.58 48.51 88.24 50.42 89.65 C 51.54 88.60 52.66 87.56 53.78 86.52 C 53.58 87.68 53.37 88.84 53.17 90.00 C 55.09 89.19 57.01 88.40 58.94 87.62 L 59.98 87.25 C 59.05 89.39 58.65 91.70 57.72 93.84 C 57.67 95.79 57.69 97.74 57.76 99.69 C 52.16 101.69 46.07 100.27 40.25 100.71 C 40.48 99.29 40.68 97.86 40.91 96.43 C 41.04 97.43 41.29 99.41 41.42 100.40 C 42.11 99.59 42.81 98.78 43.51 97.96 C 44.00 98.48 44.99 99.50 45.48 100.01 C 46.25 99.39 46.96 98.71 47.68 98.04 C 48.52 100.33 51.00 99.85 52.93 100.10 C 52.79 99.40 52.52 98.02 52.39 97.32 C 49.77 97.41 47.15 97.50 44.53 97.60 C 44.42 97.43 44.19 97.09 44.08 96.92 L 44.09 96.33 C 45.11 94.10 43.83 91.37 45.40 89.31 C 45.48 87.71 45.52 86.11 45.56 84.51 Z" />
</g>
<g id="#ffe946ff">
<path fill="#ffe946" opacity="1.00" d=" M 65.89 26.47 C 68.08 24.03 70.33 21.65 72.76 19.46 C 71.09 22.25 68.90 24.67 66.65 27.01 C 68.06 27.96 69.47 28.92 70.88 29.88 C 71.58 28.81 71.77 27.23 72.77 26.44 C 73.87 27.96 72.28 29.74 71.97 31.30 C 74.40 36.19 76.15 41.91 74.30 47.28 C 71.53 51.00 66.83 52.46 62.42 53.04 C 64.43 50.30 66.91 45.91 63.52 43.18 C 63.59 44.74 63.74 46.29 63.69 47.85 C 62.60 50.36 60.37 52.13 58.62 54.16 C 57.45 52.77 56.17 51.43 55.31 49.82 C 55.21 47.86 55.79 45.94 56.05 44.00 C 55.83 43.62 55.39 42.86 55.18 42.48 L 54.94 42.07 L 54.16 41.33 C 54.05 41.30 53.85 41.23 53.75 41.20 L 53.00 41.02 L 52.57 41.72 C 52.84 42.03 53.40 42.65 53.67 42.96 C 53.71 45.37 53.74 47.78 53.74 50.19 C 51.47 45.23 50.24 39.63 51.41 34.22 C 52.22 31.62 54.53 29.91 56.34 28.01 C 54.12 26.72 51.88 25.45 49.54 24.38 C 49.48 23.71 49.45 23.05 49.47 22.38 L 49.94 22.33 C 51.90 24.59 54.12 26.63 56.81 27.98 C 59.71 27.46 62.65 27.19 65.57 26.77 L 65.89 26.47 M 68.22 38.72 C 67.67 39.01 66.58 39.57 66.03 39.85 C 65.81 40.05 65.37 40.43 65.15 40.63 C 64.94 40.97 64.52 41.66 64.30 42.00 C 64.44 42.11 64.72 42.33 64.86 42.43 L 65.63 42.13 L 66.13 42.64 L 66.83 42.53 C 66.91 42.14 67.09 41.36 67.17 40.97 L 67.87 40.91 L 68.64 41.36 L 69.53 40.84 L 69.56 39.90 C 69.39 39.66 69.06 39.16 68.90 38.91 C 68.73 38.87 68.39 38.77 68.22 38.72 Z" />
<path fill="#ffe946" opacity="1.00" d=" M 95.65 35.59 C 96.04 38.07 95.26 40.41 93.76 42.38 C 93.66 41.54 93.55 40.69 93.45 39.85 C 93.24 37.96 93.98 36.54 95.65 35.59 Z" />
<path fill="#ffe946" opacity="1.00" d=" M 98.16 45.13 C 99.15 42.42 100.30 39.77 101.73 37.27 C 102.47 38.57 103.25 39.86 103.86 41.24 C 103.84 42.79 102.57 43.89 101.52 44.85 C 101.61 43.84 101.66 42.83 101.69 41.83 C 100.50 42.91 99.33 44.02 98.16 45.13 M 102.26 41.29 C 102.74 41.77 102.74 41.77 102.26 41.29 Z" />
<path fill="#ffe946" opacity="1.00" d=" M 91.37 38.74 L 91.93 38.85 C 91.73 40.11 91.30 41.29 90.64 42.38 L 89.97 42.24 C 89.29 40.73 89.76 39.56 91.37 38.74 Z" />
<path fill="#ffe946" opacity="1.00" d=" M 20.64 47.57 C 21.19 47.67 22.30 47.88 22.85 47.98 C 23.65 49.29 24.40 50.64 25.15 51.98 C 26.98 52.02 28.82 52.05 30.65 52.10 C 30.99 53.40 31.34 54.70 31.68 56.00 C 30.29 54.78 28.90 53.54 27.46 52.37 C 27.73 54.65 27.60 57.76 30.20 58.79 C 31.57 58.47 32.52 57.19 33.66 56.42 C 36.19 57.81 38.61 59.39 40.90 61.15 C 40.99 60.46 41.19 59.08 41.28 58.40 C 42.66 57.88 44.04 57.36 45.43 56.84 C 45.73 59.08 46.76 61.44 45.84 63.66 C 44.67 64.38 43.36 64.97 41.96 65.01 C 33.88 64.33 26.57 60.55 19.83 56.27 C 20.01 57.86 20.19 59.45 20.39 61.04 C 19.79 61.01 18.59 60.95 18.00 60.92 C 18.31 60.07 18.62 59.22 18.94 58.37 C 17.79 57.27 15.48 56.11 17.12 54.30 C 18.93 54.75 20.58 55.69 22.35 56.27 C 21.70 55.29 21.06 54.30 20.41 53.32 C 19.97 53.05 19.11 52.52 18.67 52.25 C 18.51 52.09 18.19 51.77 18.02 51.61 C 18.26 51.13 18.74 50.17 18.98 49.69 C 20.41 51.46 21.88 53.22 23.54 54.79 C 23.60 52.02 22.11 49.75 20.64 47.57 Z" />
<path fill="#ffe946" opacity="1.00" d=" M 86.39 48.35 C 87.86 48.22 89.34 48.09 90.81 47.96 C 90.97 50.26 91.29 52.55 91.81 54.79 C 89.63 54.66 87.38 54.62 85.46 55.84 C 87.03 53.63 86.44 50.87 86.39 48.35 Z" />
<path fill="#ffe946" opacity="1.00" d=" M 56.78 67.77 C 64.48 69.21 72.48 68.91 79.77 65.86 C 79.54 68.05 78.55 70.38 79.31 72.54 C 81.10 75.16 84.11 76.59 86.31 78.82 C 88.93 81.25 89.82 84.82 90.99 88.06 C 89.93 89.00 88.87 89.94 87.81 90.89 C 86.97 90.37 86.13 89.86 85.30 89.34 C 84.91 89.86 84.14 90.89 83.76 91.41 C 80.02 88.67 76.90 85.09 72.79 82.89 C 68.87 81.14 62.82 81.59 60.80 85.93 L 60.35 86.72 C 59.99 86.95 59.29 87.40 58.94 87.62 C 57.01 88.40 55.09 89.19 53.17 90.00 C 53.37 88.84 53.58 87.68 53.78 86.52 C 52.66 87.56 51.54 88.60 50.42 89.65 C 48.51 88.24 46.77 86.58 45.56 84.51 L 45.29 84.12 C 45.87 83.22 46.45 82.32 47.00 81.41 C 48.01 80.15 48.56 78.35 50.06 77.58 C 52.62 76.46 54.99 74.98 57.13 73.19 C 57.01 71.38 56.89 69.58 56.78 67.77 M 48.13 84.55 C 47.22 85.73 47.46 86.41 48.84 86.59 C 49.75 85.41 49.52 84.73 48.13 84.55 Z" />
<path fill="#ffe946" opacity="1.00" d=" M 90.21 95.55 C 91.73 95.82 93.26 96.04 94.79 96.27 C 94.81 97.02 94.84 98.53 94.86 99.28 C 93.78 98.31 92.71 97.31 91.61 96.37 L 91.79 98.99 C 91.35 98.99 90.46 99.00 90.02 99.00 C 90.08 97.85 90.14 96.70 90.21 95.55 Z" />
<path fill="#ffe946" opacity="1.00" d=" M 40.91 96.43 C 41.53 96.48 42.78 96.56 43.40 96.61 L 44.08 96.92 C 44.19 97.09 44.42 97.43 44.53 97.60 C 47.15 97.50 49.77 97.41 52.39 97.32 C 52.52 98.02 52.79 99.40 52.93 100.10 C 51.00 99.85 48.52 100.33 47.68 98.04 C 46.96 98.71 46.25 99.39 45.48 100.01 C 44.99 99.50 44.00 98.48 43.51 97.96 C 42.81 98.78 42.11 99.59 41.42 100.40 C 41.29 99.41 41.04 97.43 40.91 96.43 Z" />
<path fill="#ffe946" opacity="1.00" d=" M 84.35 98.98 C 85.31 96.91 87.38 96.78 89.40 96.96 C 88.67 99.28 86.20 98.77 84.35 98.98 Z" />
</g>
<g id="#f8f8f8ff">
<path fill="#f8f8f8" opacity="1.00" d=" M 66.03 39.85 C 66.58 39.57 67.67 39.01 68.22 38.72 L 68.90 38.91 C 69.06 39.16 69.39 39.66 69.56 39.90 C 69.14 40.15 68.29 40.66 67.87 40.91 L 67.17 40.97 C 66.89 40.69 66.32 40.13 66.03 39.85 Z" />
<path fill="#f8f8f8" opacity="1.00" d=" M 64.30 42.00 C 64.52 41.66 64.94 40.97 65.15 40.63 C 65.27 41.00 65.51 41.76 65.63 42.13 L 64.86 42.43 L 64.30 42.00 Z" />
<path fill="#f8f8f8" opacity="1.00" d=" M 54.56 42.13 L 54.94 42.07 L 55.18 42.48 L 54.72 42.46 L 54.56 42.13 Z" />
<path fill="#f8f8f8" opacity="1.00" d=" M 76.19 43.16 C 76.86 43.10 78.19 42.98 78.86 42.92 C 81.41 44.18 83.38 46.22 85.16 48.39 C 84.89 51.99 83.67 55.40 82.10 58.62 C 81.73 59.39 80.98 60.94 80.61 61.72 C 80.46 61.21 80.16 60.20 80.01 59.70 C 79.23 60.35 78.47 61.01 77.70 61.68 C 77.40 61.56 76.80 61.32 76.50 61.20 C 73.68 63.08 70.52 64.88 67.01 64.75 C 63.05 64.60 59.13 63.86 55.16 63.75 C 53.96 62.31 52.77 60.86 51.60 59.39 C 50.02 58.12 48.47 56.81 46.92 55.51 C 47.35 53.65 47.78 51.79 48.32 49.96 C 48.51 49.74 48.90 49.29 49.09 49.07 C 49.44 48.78 50.14 48.19 50.49 47.89 C 52.21 50.49 54.24 52.87 56.50 55.02 C 57.22 55.03 58.67 55.04 59.39 55.05 L 58.62 54.16 C 62.36 54.28 66.15 54.14 69.75 53.00 C 71.89 51.29 74.07 49.62 76.17 47.85 C 76.17 46.29 76.18 44.73 76.19 43.16 M 78.25 50.26 C 78.80 50.78 78.80 50.78 78.25 50.26 M 61.27 58.24 C 61.73 58.82 61.73 58.82 61.27 58.24 Z" />
</g>
</svg>
