<?xml version="1.0" encoding="UTF-8" ?>
<!DOCTYPE svg PUBLIC "-//W3C//DTD SVG 1.1//EN" "http://www.w3.org/Graphics/SVG/1.1/DTD/svg11.dtd">
<svg width="120pt" height="120pt" viewBox="0 0 120 120" version="1.1" xmlns="http://www.w3.org/2000/svg">
<g id="#537266ff">
<path fill="#537266" opacity="1.00" d=" M 55.35 24.37 C 56.53 24.24 57.72 24.07 58.61 23.21 C 60.26 25.23 63.31 23.90 65.57 24.22 C 68.91 27.91 73.37 30.94 74.76 35.99 C 75.02 39.78 74.86 43.59 74.79 47.38 L 73.83 46.50 C 73.96 43.37 74.38 40.19 73.86 37.07 C 72.53 32.18 68.47 28.77 64.82 25.55 C 64.68 25.46 64.41 25.28 64.28 25.19 L 64.39 25.64 L 64.82 25.55 C 65.39 34.58 65.20 43.69 62.83 52.48 C 62.32 52.66 61.31 53.03 60.81 53.21 C 62.52 47.97 63.78 42.54 64.07 37.03 C 64.28 32.42 61.35 28.51 58.82 24.94 C 57.72 24.98 56.62 25.02 55.53 25.05 C 48.62 30.96 43.47 40.58 47.12 49.69 C 51.02 50.42 54.92 52.28 58.94 51.34 C 59.56 51.96 60.19 52.58 60.81 53.21 C 60.83 53.56 60.88 54.25 60.91 54.60 C 62.26 55.41 63.40 56.91 65.07 56.96 C 67.11 56.52 68.95 55.50 70.82 54.63 C 70.39 55.22 69.53 56.40 69.10 56.99 C 72.17 55.56 75.21 54.07 78.34 52.78 C 75.64 51.63 72.47 51.96 70.82 54.63 C 69.59 54.01 68.25 53.71 66.89 53.55 L 66.95 53.19 C 69.09 52.15 71.25 51.05 72.88 49.26 C 72.86 49.76 72.82 50.75 72.80 51.25 C 74.68 51.24 76.56 51.24 78.45 51.30 C 80.02 52.81 82.29 52.12 84.22 52.23 C 85.02 51.55 85.94 51.22 86.97 51.24 C 91.12 51.22 95.28 51.22 99.43 51.29 C 100.49 52.03 101.68 52.40 103.00 52.40 C 103.00 52.77 103.00 53.51 103.01 53.88 C 100.18 54.14 96.93 53.02 94.43 54.71 C 93.08 54.88 91.60 54.72 90.45 55.61 C 86.97 56.02 83.73 57.43 80.47 58.61 C 78.80 59.04 77.18 59.66 75.49 60.05 C 73.42 61.27 71.23 62.30 68.96 63.09 L 68.91 63.99 C 70.17 64.43 71.42 64.89 72.67 65.36 C 75.73 68.41 79.15 71.28 80.64 75.49 C 81.29 77.43 81.85 79.41 82.06 81.47 C 83.36 83.21 82.83 85.44 82.89 87.44 C 81.38 88.68 82.08 90.75 81.76 92.39 L 80.94 91.59 C 81.11 88.74 82.51 85.76 81.12 83.02 C 80.82 82.58 80.21 81.69 79.91 81.25 C 80.59 78.97 79.80 76.61 78.66 74.63 C 77.17 71.77 75.02 69.32 72.53 67.29 C 69.67 65.52 66.34 64.87 63.13 64.04 L 61.57 63.62 C 63.23 61.17 65.13 58.63 68.25 58.05 C 65.01 57.84 61.92 58.72 59.10 60.28 C 55.84 59.55 52.47 58.66 49.15 59.67 C 47.75 59.88 46.34 60.05 44.92 60.19 C 44.48 60.42 43.60 60.87 43.15 61.10 C 42.75 60.95 41.94 60.65 41.54 60.50 C 39.19 59.81 36.80 59.31 34.39 58.89 C 35.35 60.83 36.34 62.74 37.29 64.68 C 37.06 64.98 36.62 65.58 36.39 65.88 C 35.74 64.80 35.11 63.70 34.50 62.58 C 33.51 60.97 32.11 59.49 32.10 57.47 C 30.74 59.26 28.17 59.35 26.46 58.03 C 22.75 57.82 19.18 55.93 15.68 58.11 C 16.72 56.94 18.01 56.08 19.34 55.28 C 21.65 54.24 24.22 54.26 26.62 53.53 C 29.17 52.73 32.07 53.99 34.43 52.50 C 36.14 51.29 38.20 51.11 40.23 51.10 C 42.17 49.70 44.62 50.36 46.82 50.32 C 45.93 49.08 45.08 47.82 44.24 46.55 C 43.55 41.51 45.11 36.75 47.40 32.33 C 50.05 29.68 52.70 27.03 55.35 24.37 M 61.45 25.07 C 61.15 26.70 62.58 28.35 63.40 29.70 C 64.87 28.84 63.49 24.51 61.45 25.07 M 84.93 52.53 C 86.82 53.53 89.83 55.19 91.49 52.88 C 93.02 53.37 95.08 54.82 95.23 52.18 C 91.81 52.65 88.28 51.63 84.93 52.53 M 97.08 52.16 C 97.31 55.46 100.06 50.60 97.08 52.16 M 74.80 55.17 C 75.06 56.40 75.46 57.59 76.00 58.72 C 76.22 58.36 76.65 57.64 76.86 57.28 C 77.95 56.55 79.04 55.82 80.15 55.09 C 81.29 55.50 82.44 56.06 83.69 56.01 C 84.35 55.04 84.89 53.99 85.31 52.88 C 81.66 53.06 78.51 55.39 74.80 55.17 M 22.24 55.72 C 23.89 57.75 26.13 56.29 28.09 55.63 C 28.13 56.24 28.22 57.46 28.26 58.07 C 29.82 57.65 31.37 57.23 32.93 56.81 C 32.97 57.30 33.07 58.26 33.12 58.75 C 34.64 58.39 36.17 58.04 37.70 57.68 C 38.04 57.33 38.74 56.63 39.09 56.27 C 35.91 56.25 33.02 54.95 30.01 54.14 C 27.35 54.00 24.82 55.18 22.24 55.72 M 39.31 57.65 C 39.58 61.03 42.06 55.94 39.31 57.65 Z" />
<path fill="#537266" opacity="1.00" d=" M 64.36 53.49 C 64.42 53.47 64.55 53.41 64.62 53.38 C 64.55 53.41 64.42 53.47 64.36 53.49 Z" />
<path fill="#537266" opacity="1.00" d=" M 29.14 55.28 C 29.65 55.79 29.65 55.79 29.14 55.28 Z" />
<path fill="#537266" opacity="1.00" d=" M 34.50 66.75 L 34.80 67.30 C 35.31 68.24 35.82 69.19 36.33 70.14 C 35.87 70.02 34.95 69.79 34.49 69.68 C 33.64 72.96 32.98 76.31 32.96 79.72 C 37.04 80.60 41.06 81.75 45.19 82.42 C 48.33 82.24 51.23 80.77 54.34 80.32 C 57.35 79.89 60.38 79.59 63.33 78.87 C 62.72 79.96 62.12 81.05 61.52 82.15 C 56.24 80.02 50.90 82.67 45.78 83.95 C 42.29 83.99 39.00 82.35 35.55 81.89 C 41.94 88.47 52.47 88.72 60.57 85.42 C 65.11 83.93 68.53 80.34 70.59 76.12 C 70.84 76.32 71.32 76.71 71.56 76.90 C 70.34 78.76 69.06 80.60 67.56 82.25 C 65.68 84.21 63.86 86.52 61.14 87.30 C 58.40 88.02 55.56 88.23 52.76 88.64 C 55.84 88.61 58.91 88.49 61.98 88.36 C 62.60 87.65 63.84 86.22 64.46 85.51 C 64.66 88.40 64.98 91.28 65.35 94.15 C 66.93 93.79 68.52 93.44 70.11 93.09 C 70.07 93.59 70.00 94.58 69.97 95.08 C 70.47 94.74 71.47 94.04 71.97 93.69 C 72.48 94.02 73.49 94.66 74.00 94.98 C 76.48 89.45 76.58 82.99 74.84 77.24 C 75.89 77.75 76.92 78.30 77.96 78.85 C 76.69 83.45 76.99 88.25 77.75 92.90 C 78.82 92.47 79.88 92.03 80.94 91.59 C 80.96 92.19 81.00 93.40 81.02 94.00 C 78.98 93.96 76.94 93.94 74.91 93.91 C 74.90 94.41 74.90 95.42 74.89 95.93 C 71.88 95.95 68.86 95.95 65.85 96.01 C 65.43 95.67 64.59 94.99 64.17 94.65 C 64.23 93.50 64.29 92.37 64.35 91.23 C 62.76 89.78 60.12 89.02 58.46 90.81 L 58.23 90.77 C 55.47 90.25 52.72 89.72 49.97 89.12 C 49.99 89.86 50.04 91.33 50.06 92.07 C 52.84 92.09 55.69 92.05 58.23 90.77 C 58.12 91.31 57.89 92.38 57.77 92.92 C 54.94 92.84 52.11 92.89 49.28 93.00 C 48.87 93.48 48.03 94.42 47.61 94.89 C 44.15 94.96 40.69 95.01 37.23 94.98 C 36.96 92.17 38.10 88.91 36.34 86.44 C 36.30 85.85 36.23 84.66 36.20 84.06 C 35.77 84.02 34.93 83.94 34.50 83.91 C 34.23 82.49 33.18 81.52 32.26 80.51 C 31.75 75.78 32.86 71.15 34.50 66.75 M 37.98 88.06 C 38.09 89.59 38.19 91.12 38.30 92.65 C 39.73 92.84 41.16 93.11 42.52 93.59 C 44.01 92.53 45.57 93.74 47.09 94.03 C 48.29 92.66 48.87 90.94 49.19 89.18 C 48.52 89.09 47.18 88.92 46.51 88.83 C 44.81 88.06 42.80 88.09 41.27 86.93 C 40.16 87.27 39.07 87.66 37.98 88.06 Z" />
<path fill="#537266" opacity="1.00" d=" M 37.69 71.25 C 37.98 70.96 38.58 70.40 38.88 70.12 L 39.31 70.97 C 38.98 71.19 38.34 71.64 38.02 71.87 L 37.69 71.25 Z" />
<path fill="#537266" opacity="1.00" d=" M 35.91 72.12 L 36.37 72.02 C 37.49 73.04 38.08 75.04 37.36 76.43 C 36.15 75.34 35.59 73.72 35.91 72.12 Z" />
<path fill="#537266" opacity="1.00" d=" M 60.43 71.75 L 61.13 72.24 C 61.10 72.71 61.05 73.66 61.02 74.14 C 60.87 73.54 60.58 72.35 60.43 71.75 Z" />
<path fill="#537266" opacity="1.00" d=" M 63.42 73.98 C 65.47 76.18 61.44 76.36 60.02 76.03 C 60.20 75.83 60.55 75.42 60.73 75.22 C 61.40 74.91 62.75 74.29 63.42 73.98 Z" />
<path fill="#537266" opacity="1.00" d=" M 66.98 88.70 C 68.70 88.28 69.66 89.40 70.38 90.78 C 69.24 91.30 68.09 91.81 66.94 92.31 C 66.95 91.41 66.97 89.60 66.98 88.70 Z" />
</g>
<g id="#fb7b95ff">
<path fill="#fb7b95" opacity="1.00" d=" M 55.53 25.05 C 56.62 25.02 57.72 24.98 58.82 24.94 C 61.35 28.51 64.28 32.42 64.07 37.03 C 63.78 42.54 62.52 47.97 60.81 53.21 C 60.19 52.58 59.56 51.96 58.94 51.34 C 54.92 52.28 51.02 50.42 47.12 49.69 C 43.47 40.58 48.62 30.96 55.53 25.05 Z" />
<path fill="#fb7b95" opacity="1.00" d=" M 61.45 25.07 C 63.49 24.51 64.87 28.84 63.40 29.70 C 62.58 28.35 61.15 26.70 61.45 25.07 Z" />
<path fill="#fb7b95" opacity="1.00" d=" M 64.28 25.19 C 64.41 25.28 64.68 25.46 64.82 25.55 L 64.39 25.64 L 64.28 25.19 Z" />
<path fill="#fb7b95" opacity="1.00" d=" M 64.82 25.55 C 68.47 28.77 72.53 32.18 73.86 37.07 C 74.38 40.19 73.96 43.37 73.83 46.50 C 73.79 47.00 73.71 48.01 73.67 48.51 L 72.88 49.26 C 71.25 51.05 69.09 52.15 66.95 53.19 L 67.10 51.75 C 66.48 52.16 65.24 52.97 64.62 53.38 C 64.55 53.41 64.42 53.47 64.36 53.49 C 63.98 53.24 63.21 52.74 62.83 52.48 C 65.20 43.69 65.39 34.58 64.82 25.55 Z" />
<path fill="#fb7b95" opacity="1.00" d=" M 54.72 74.08 C 55.97 72.07 57.31 70.10 59.06 68.49 C 59.52 69.58 59.98 70.67 60.43 71.75 C 60.58 72.35 60.87 73.54 61.02 74.14 L 60.73 75.22 C 60.55 75.42 60.20 75.83 60.02 76.03 C 59.56 76.07 58.64 76.13 58.18 76.17 C 56.96 75.60 55.58 75.17 54.72 74.08 Z" />
<path fill="#fb7b95" opacity="1.00" d=" M 34.24 76.82 C 34.62 74.60 34.16 71.87 36.02 70.22 L 35.91 72.12 C 35.59 73.72 36.15 75.34 37.36 76.43 L 37.94 77.13 C 37.54 77.06 36.73 76.93 36.33 76.86 C 35.80 76.85 34.76 76.83 34.24 76.82 Z" />
</g>
<g id="#68ae7aff">
<path fill="#68ae7a" opacity="1.00" d=" M 60.81 53.21 C 61.31 53.03 62.32 52.66 62.83 52.48 C 63.21 52.74 63.98 53.24 64.36 53.49 C 64.42 53.47 64.55 53.41 64.62 53.38 C 65.24 52.97 66.48 52.16 67.10 51.75 L 66.95 53.19 L 66.89 53.55 C 68.25 53.71 69.59 54.01 70.82 54.63 C 68.95 55.50 67.11 56.52 65.07 56.96 C 63.40 56.91 62.26 55.41 60.91 54.60 C 60.88 54.25 60.83 53.56 60.81 53.21 Z" />
<path fill="#68ae7a" opacity="1.00" d=" M 70.82 54.63 C 72.47 51.96 75.64 51.63 78.34 52.78 C 75.21 54.07 72.17 55.56 69.10 56.99 C 69.53 56.40 70.39 55.22 70.82 54.63 Z" />
<path fill="#68ae7a" opacity="1.00" d=" M 84.93 52.53 C 88.28 51.63 91.81 52.65 95.23 52.18 C 95.08 54.82 93.02 53.37 91.49 52.88 C 89.83 55.19 86.82 53.53 84.93 52.53 Z" />
<path fill="#68ae7a" opacity="1.00" d=" M 97.08 52.16 C 100.06 50.60 97.31 55.46 97.08 52.16 Z" />
<path fill="#68ae7a" opacity="1.00" d=" M 74.80 55.17 C 78.51 55.39 81.66 53.06 85.31 52.88 C 84.89 53.99 84.35 55.04 83.69 56.01 C 82.44 56.06 81.29 55.50 80.15 55.09 C 79.04 55.82 77.95 56.55 76.86 57.28 C 76.65 57.64 76.22 58.36 76.00 58.72 C 75.46 57.59 75.06 56.40 74.80 55.17 Z" />
<path fill="#68ae7a" opacity="1.00" d=" M 22.24 55.72 C 24.82 55.18 27.35 54.00 30.01 54.14 C 33.02 54.95 35.91 56.25 39.09 56.27 C 38.74 56.63 38.04 57.33 37.70 57.68 C 36.17 58.04 34.64 58.39 33.12 58.75 C 33.07 58.26 32.97 57.30 32.93 56.81 C 31.37 57.23 29.82 57.65 28.26 58.07 C 28.22 57.46 28.13 56.24 28.09 55.63 C 26.13 56.29 23.89 57.75 22.24 55.72 M 29.14 55.28 C 29.65 55.79 29.65 55.79 29.14 55.28 Z" />
</g>
<g id="#9ae6f0ff">
<path fill="#9ae6f0" opacity="1.00" d=" M 59.10 60.28 C 61.92 58.72 65.01 57.84 68.25 58.05 C 65.13 58.63 63.23 61.17 61.57 63.62 L 63.13 64.04 C 65.36 66.74 64.89 70.27 63.65 73.28 C 62.55 71.31 61.05 69.59 59.06 68.49 C 57.31 70.10 55.97 72.07 54.72 74.08 C 54.43 74.44 53.85 75.16 53.56 75.52 L 52.77 76.42 C 49.22 76.50 44.71 76.10 43.47 72.09 C 43.59 71.49 43.82 70.28 43.94 69.68 C 42.85 69.94 41.77 70.22 40.69 70.51 C 40.34 70.63 39.65 70.86 39.31 70.97 L 38.88 70.12 C 39.38 67.12 40.50 63.62 44.04 63.36 C 43.69 63.71 42.97 64.40 42.61 64.74 C 44.16 66.56 44.99 70.35 47.88 70.01 C 49.87 67.64 51.02 64.73 52.37 61.99 C 50.73 62.01 49.08 62.05 47.43 62.02 C 47.21 61.80 46.78 61.36 46.57 61.13 C 47.42 60.64 48.28 60.15 49.15 59.67 C 52.47 58.66 55.84 59.55 59.10 60.28 M 53.08 70.38 C 51.60 73.44 56.36 70.51 53.08 70.38 Z" />
<path fill="#9ae6f0" opacity="1.00" d=" M 34.39 58.89 C 36.80 59.31 39.19 59.81 41.54 60.50 C 40.08 61.85 38.60 63.18 37.29 64.68 C 36.34 62.74 35.35 60.83 34.39 58.89 Z" />
<path fill="#9ae6f0" opacity="1.00" d=" M 71.56 76.90 C 71.79 77.09 72.24 77.47 72.47 77.66 C 72.98 80.83 72.68 84.05 71.96 87.16 C 69.33 86.76 68.20 84.59 67.56 82.25 C 69.06 80.60 70.34 78.76 71.56 76.90 Z" />
</g>
<g id="#88cbd5ff">
<path fill="#88cbd5" opacity="1.00" d=" M 41.54 60.50 C 41.94 60.65 42.75 60.95 43.15 61.10 C 43.60 60.87 44.48 60.42 44.92 60.19 C 46.34 60.05 47.75 59.88 49.15 59.67 C 48.28 60.15 47.42 60.64 46.57 61.13 C 46.78 61.36 47.21 61.80 47.43 62.02 C 46.32 62.50 45.18 62.94 44.04 63.36 C 40.50 63.62 39.38 67.12 38.88 70.12 C 38.58 70.40 37.98 70.96 37.69 71.25 L 38.02 71.87 C 38.34 71.64 38.98 71.19 39.31 70.97 C 39.65 70.86 40.34 70.63 40.69 70.51 C 40.78 71.32 40.96 72.92 41.05 73.72 C 41.48 74.12 42.35 74.93 42.78 75.33 C 43.01 74.25 43.24 73.17 43.47 72.09 C 44.71 76.10 49.22 76.50 52.77 76.42 L 53.56 75.52 L 54.00 76.19 C 55.21 77.30 56.84 76.44 58.18 76.17 C 58.64 76.13 59.56 76.07 60.02 76.03 C 61.44 76.36 65.47 76.18 63.42 73.98 L 63.65 73.28 C 64.89 70.27 65.36 66.74 63.13 64.04 C 66.34 64.87 69.67 65.52 72.53 67.29 C 72.30 68.71 72.62 70.11 73.00 71.48 C 73.41 71.44 74.21 71.36 74.62 71.32 C 75.67 72.76 76.84 74.15 78.66 74.63 C 79.80 76.61 80.59 78.97 79.91 81.25 C 79.98 81.68 80.12 82.52 80.19 82.95 L 81.12 83.02 C 82.51 85.76 81.11 88.74 80.94 91.59 C 79.88 92.03 78.82 92.47 77.75 92.90 C 76.99 88.25 76.69 83.45 77.96 78.85 C 76.92 78.30 75.89 77.75 74.84 77.24 C 76.58 82.99 76.48 89.45 74.00 94.98 C 73.49 94.66 72.48 94.02 71.97 93.69 C 71.47 94.04 70.47 94.74 69.97 95.08 C 70.00 94.58 70.07 93.59 70.11 93.09 C 68.52 93.44 66.93 93.79 65.35 94.15 C 64.98 91.28 64.66 88.40 64.46 85.51 C 63.84 86.22 62.60 87.65 61.98 88.36 C 58.91 88.49 55.84 88.61 52.76 88.64 C 55.56 88.23 58.40 88.02 61.14 87.30 C 63.86 86.52 65.68 84.21 67.56 82.25 C 68.20 84.59 69.33 86.76 71.96 87.16 C 72.68 84.05 72.98 80.83 72.47 77.66 C 72.24 77.47 71.79 77.09 71.56 76.90 C 71.32 76.71 70.84 76.32 70.59 76.12 C 68.53 80.34 65.11 83.93 60.57 85.42 C 52.47 88.72 41.94 88.47 35.55 81.89 C 39.00 82.35 42.29 83.99 45.78 83.95 C 50.90 82.67 56.24 80.02 61.52 82.15 C 62.12 81.05 62.72 79.96 63.33 78.87 C 60.38 79.59 57.35 79.89 54.34 80.32 C 51.23 80.77 48.33 82.24 45.19 82.42 C 41.06 81.75 37.04 80.60 32.96 79.72 C 32.98 76.31 33.64 72.96 34.49 69.68 C 34.95 69.79 35.87 70.02 36.33 70.14 C 35.82 69.19 35.31 68.24 34.80 67.30 C 35.19 66.94 35.99 66.24 36.39 65.88 C 36.62 65.58 37.06 64.98 37.29 64.68 C 38.60 63.18 40.08 61.85 41.54 60.50 M 34.24 76.82 C 34.76 76.83 35.80 76.85 36.33 76.86 L 36.22 77.67 L 36.98 78.20 C 37.22 77.93 37.70 77.40 37.94 77.13 L 37.36 76.43 C 38.08 75.04 37.49 73.04 36.37 72.02 L 35.91 72.12 L 36.02 70.22 C 34.16 71.87 34.62 74.60 34.24 76.82 M 47.22 80.28 C 47.73 80.80 47.73 80.80 47.22 80.28 M 66.98 88.70 C 66.97 89.60 66.95 91.41 66.94 92.31 C 68.09 91.81 69.24 91.30 70.38 90.78 C 69.66 89.40 68.70 88.28 66.98 88.70 Z" />
<path fill="#88cbd5" opacity="1.00" d=" M 37.98 88.06 C 39.07 87.66 40.16 87.27 41.27 86.93 C 42.80 88.09 44.81 88.06 46.51 88.83 C 47.18 88.92 48.52 89.09 49.19 89.18 C 48.87 90.94 48.29 92.66 47.09 94.03 C 45.57 93.74 44.01 92.53 42.52 93.59 C 41.16 93.11 39.73 92.84 38.30 92.65 C 38.19 91.12 38.09 89.59 37.98 88.06 Z" />
</g>
<g id="#188aaeff">
<path fill="#188aae" opacity="1.00" d=" M 47.43 62.02 C 49.08 62.05 50.73 62.01 52.37 61.99 C 51.02 64.73 49.87 67.64 47.88 70.01 C 44.99 70.35 44.16 66.56 42.61 64.74 C 42.97 64.40 43.69 63.71 44.04 63.36 C 45.18 62.94 46.32 62.50 47.43 62.02 Z" />
<path fill="#188aae" opacity="1.00" d=" M 73.00 71.48 C 72.62 70.11 72.30 68.71 72.53 67.29 C 75.02 69.32 77.17 71.77 78.66 74.63 C 76.84 74.15 75.67 72.76 74.62 71.32 C 74.21 71.36 73.41 71.44 73.00 71.48 Z" />
<path fill="#188aae" opacity="1.00" d=" M 40.69 70.51 C 41.77 70.22 42.85 69.94 43.94 69.68 C 43.82 70.28 43.59 71.49 43.47 72.09 C 43.24 73.17 43.01 74.25 42.78 75.33 C 42.35 74.93 41.48 74.12 41.05 73.72 C 40.96 72.92 40.78 71.32 40.69 70.51 Z" />
<path fill="#188aae" opacity="1.00" d=" M 79.91 81.25 C 80.21 81.69 80.82 82.58 81.12 83.02 L 80.19 82.95 C 80.12 82.52 79.98 81.68 79.91 81.25 Z" />
</g>
<g id="#f8f9f9ff">
<path fill="#f8f9f9" opacity="1.00" d=" M 59.06 68.49 C 61.05 69.59 62.55 71.31 63.65 73.28 L 63.42 73.98 C 62.75 74.29 61.40 74.91 60.73 75.22 L 61.02 74.14 C 61.05 73.66 61.10 72.71 61.13 72.24 L 60.43 71.75 C 59.98 70.67 59.52 69.58 59.06 68.49 Z" />
</g>
<g id="#5b97a8ff">
<path fill="#5b97a8" opacity="1.00" d=" M 53.08 70.38 C 56.36 70.51 51.60 73.44 53.08 70.38 Z" />
<path fill="#5b97a8" opacity="1.00" d=" M 36.33 76.86 C 36.73 76.93 37.54 77.06 37.94 77.13 C 37.70 77.40 37.22 77.93 36.98 78.20 L 36.22 77.67 L 36.33 76.86 Z" />
<path fill="#5b97a8" opacity="1.00" d=" M 47.22 80.28 C 47.73 80.80 47.73 80.80 47.22 80.28 Z" />
<path fill="#5b97a8" opacity="1.00" d=" M 49.97 89.12 C 52.72 89.72 55.47 90.25 58.23 90.77 C 55.69 92.05 52.84 92.09 50.06 92.07 C 50.04 91.33 49.99 89.86 49.97 89.12 Z" />
</g>
</svg>
