<?xml version="1.0" encoding="UTF-8" ?>
<!DOCTYPE svg PUBLIC "-//W3C//DTD SVG 1.1//EN" "http://www.w3.org/Graphics/SVG/1.1/DTD/svg11.dtd">
<svg width="120pt" height="120pt" viewBox="0 0 120 120" version="1.1" xmlns="http://www.w3.org/2000/svg">
<g id="#2a2d39ff">
<path fill="#2a2d39" opacity="1.00" d=" M 52.57 36.35 C 55.22 35.78 57.81 34.82 60.57 35.01 C 62.20 35.94 63.82 36.99 64.39 38.88 C 66.23 38.75 67.91 39.92 69.66 39.81 C 71.48 38.58 73.64 38.10 75.59 37.15 C 76.52 37.08 77.46 37.00 78.39 36.93 C 79.35 36.07 80.44 35.79 81.65 36.09 C 84.08 37.96 82.79 41.47 82.95 44.10 C 82.74 44.46 82.33 45.19 82.12 45.55 C 82.04 46.86 81.95 48.16 81.85 49.47 L 81.07 48.22 C 81.36 45.80 82.02 43.45 82.31 41.04 C 82.50 39.48 82.27 37.20 80.16 37.46 C 77.28 37.91 74.44 38.65 71.73 39.74 C 69.25 41.67 66.29 40.27 63.58 39.84 C 62.87 36.76 59.55 35.94 56.80 36.00 C 55.74 36.68 54.60 37.01 53.36 37.00 L 52.57 36.35 Z" />
<path fill="#2a2d39" opacity="1.00" d=" M 40.47 38.05 C 42.46 38.04 44.45 38.04 46.44 38.14 C 47.79 39.28 49.54 39.06 51.17 39.11 C 50.94 39.46 50.48 40.14 50.25 40.48 C 49.19 43.04 48.62 45.75 48.90 48.53 C 49.75 49.58 50.55 50.66 51.30 51.78 C 53.56 53.71 57.42 53.09 58.86 50.48 C 59.65 48.28 58.17 46.20 57.24 44.32 C 56.40 45.21 55.57 46.10 54.74 46.99 C 55.28 45.91 55.83 44.82 56.39 43.74 C 57.38 44.02 58.36 44.36 59.30 44.78 C 60.63 47.21 59.70 50.12 58.92 52.59 C 57.51 53.05 56.13 53.55 54.76 54.10 C 53.26 53.64 51.80 53.11 50.34 52.54 C 50.08 53.03 49.57 54.01 49.31 54.50 C 49.09 54.26 48.66 53.79 48.44 53.56 C 49.09 52.83 49.74 52.11 50.40 51.40 C 49.85 50.98 48.74 50.13 48.18 49.70 C 48.15 48.01 48.12 46.31 48.09 44.62 C 46.17 46.16 44.33 47.91 43.58 50.34 C 41.43 47.59 39.94 44.37 39.77 40.85 C 43.24 40.30 46.89 43.19 50.01 40.96 C 46.34 38.77 42.03 39.03 38.10 40.21 C 38.91 42.63 39.68 45.08 40.45 47.53 L 39.43 48.19 C 39.13 47.50 38.55 46.13 38.25 45.44 C 38.07 43.82 37.60 42.27 37.02 40.76 C 37.75 39.40 39.27 38.87 40.47 38.05 Z" />
<path fill="#2a2d39" opacity="1.00" d=" M 70.71 42.24 C 73.32 41.36 75.69 39.88 78.34 39.07 C 79.05 39.04 80.47 38.98 81.18 38.95 C 81.00 41.23 80.33 43.42 79.82 45.64 C 78.89 46.79 78.12 48.05 77.44 49.36 C 75.48 46.73 73.27 44.29 70.71 42.24 Z" />
<path fill="#2a2d39" opacity="1.00" d=" M 60.37 44.49 C 61.48 43.29 63.21 42.23 64.87 42.27 C 64.91 43.83 61.25 45.84 60.37 44.49 Z" />
<path fill="#2a2d39" opacity="1.00" d=" M 41.27 49.62 C 41.70 49.93 42.55 50.55 42.98 50.86 C 42.43 52.51 41.84 54.14 41.09 55.70 C 40.93 58.78 40.86 61.91 41.70 64.90 C 41.31 65.00 40.53 65.19 40.14 65.29 C 40.05 62.13 39.98 58.96 40.12 55.80 C 41.71 53.85 40.57 51.27 40.48 49.07 L 41.27 49.62 Z" />
<path fill="#2a2d39" opacity="1.00" d=" M 46.35 51.05 C 49.32 49.50 46.52 54.37 46.35 51.05 Z" />
<path fill="#2a2d39" opacity="1.00" d=" M 79.88 56.07 C 79.69 54.42 78.56 52.45 79.88 51.00 C 79.95 51.60 80.09 52.80 80.16 53.41 C 81.85 56.98 80.78 61.22 80.93 65.06 C 80.76 65.43 80.44 66.17 80.28 66.54 C 79.75 68.37 79.55 70.53 77.56 71.42 C 79.90 66.70 81.10 61.28 79.88 56.07 Z" />
<path fill="#2a2d39" opacity="1.00" d=" M 68.15 52.11 C 69.51 51.92 70.09 52.51 69.90 53.86 C 68.53 54.05 67.95 53.47 68.15 52.11 Z" />
<path fill="#2a2d39" opacity="1.00" d=" M 70.33 55.16 C 71.66 55.23 71.66 58.82 70.30 58.82 C 69.65 57.59 69.66 56.37 70.33 55.16 Z" />
<path fill="#2a2d39" opacity="1.00" d=" M 49.05 59.10 L 49.15 59.41 C 49.12 59.38 49.05 59.32 49.02 59.29 L 49.05 59.10 Z" />
<path fill="#2a2d39" opacity="1.00" d=" M 59.79 59.06 C 59.37 59.66 59.37 59.66 59.79 59.06 Z" />
<path fill="#2a2d39" opacity="1.00" d=" M 66.54 60.71 C 66.59 60.67 66.68 60.58 66.72 60.54 C 66.68 60.58 66.59 60.67 66.54 60.71 Z" />
<path fill="#2a2d39" opacity="1.00" d=" M 68.14 61.92 C 67.97 60.54 68.57 59.96 69.93 60.16 C 70.08 61.53 69.49 62.11 68.14 61.92 Z" />
<path fill="#2a2d39" opacity="1.00" d=" M 62.49 62.38 C 62.78 62.65 62.78 62.65 62.49 62.38 Z" />
<path fill="#2a2d39" opacity="1.00" d=" M 65.55 62.17 C 68.47 60.60 65.72 65.49 65.55 62.17 Z" />
<path fill="#2a2d39" opacity="1.00" d=" M 52.30 63.36 C 53.12 62.64 55.68 62.29 55.78 63.72 C 54.95 64.39 52.45 64.74 52.30 63.36 Z" />
<path fill="#2a2d39" opacity="1.00" d=" M 69.31 63.31 C 71.65 62.61 72.95 64.73 73.82 66.51 C 73.79 66.99 73.74 67.94 73.72 68.42 C 73.44 69.07 72.88 70.37 72.60 71.02 C 70.34 70.81 68.07 70.54 65.93 69.74 C 68.07 69.81 70.19 69.97 72.33 70.09 C 72.55 68.37 72.49 66.64 72.07 64.95 C 71.14 64.42 70.20 63.89 69.31 63.31 Z" />
<path fill="#2a2d39" opacity="1.00" d=" M 37.58 66.64 L 37.81 67.60 C 38.29 70.99 42.01 70.10 44.46 70.22 C 46.05 72.69 47.96 75.11 50.70 76.37 C 56.00 78.90 62.65 80.71 67.93 77.12 C 70.69 76.73 73.31 75.64 75.33 73.68 C 74.47 74.80 73.57 75.90 72.84 77.12 C 73.49 77.95 74.18 78.75 74.93 79.50 C 74.97 80.65 75.00 81.81 75.03 82.97 C 74.41 83.00 73.18 83.08 72.57 83.11 C 71.45 84.42 69.68 84.12 68.44 83.23 C 66.14 83.39 64.08 82.46 63.63 80.02 C 62.42 80.00 61.22 79.99 60.02 79.98 C 60.01 80.47 60.00 81.47 60.00 81.96 C 58.15 82.11 56.02 81.52 54.48 82.91 C 50.00 83.12 45.52 82.94 41.03 83.00 C 41.05 82.14 41.09 80.42 41.11 79.56 L 41.63 80.41 C 41.91 80.87 42.48 81.80 42.76 82.26 C 48.41 82.55 53.94 81.18 59.56 80.92 C 56.89 79.49 53.85 79.09 51.06 77.96 C 48.83 76.77 46.39 77.99 44.12 78.40 L 43.93 77.02 C 45.03 77.05 47.23 77.09 48.33 77.11 C 46.58 74.94 44.57 73.00 42.60 71.02 C 41.21 71.00 39.82 70.97 38.43 70.96 C 37.60 70.16 36.77 69.37 35.94 68.58 C 36.35 68.10 37.17 67.12 37.58 66.64 M 64.94 80.52 C 65.53 81.12 66.12 81.70 66.72 82.28 C 69.37 82.26 72.02 82.28 74.67 82.27 C 74.12 80.07 72.47 77.88 70.02 77.80 C 67.82 77.29 66.33 79.19 64.94 80.52 Z" />
</g>
<g id="#fbdde6ff">
<path fill="#fbdde6" opacity="1.00" d=" M 56.80 36.00 C 59.55 35.94 62.87 36.76 63.58 39.84 C 66.29 40.27 69.25 41.67 71.73 39.74 C 74.44 38.65 77.28 37.91 80.16 37.46 C 82.27 37.20 82.50 39.48 82.31 41.04 C 82.02 43.45 81.36 45.80 81.07 48.22 C 80.91 48.76 80.60 49.84 80.44 50.38 L 79.88 51.00 C 78.56 52.45 79.69 54.42 79.88 56.07 C 81.10 61.28 79.90 66.70 77.56 71.42 C 76.92 72.26 76.12 72.97 75.33 73.68 C 73.31 75.64 70.69 76.73 67.93 77.12 C 62.65 80.71 56.00 78.90 50.70 76.37 C 47.96 75.11 46.05 72.69 44.46 70.22 C 42.01 70.10 38.29 70.99 37.81 67.60 C 38.34 66.55 39.12 65.78 40.14 65.29 C 40.53 65.19 41.31 65.00 41.70 64.90 C 40.86 61.91 40.93 58.78 41.09 55.70 C 41.84 54.14 42.43 52.51 42.98 50.86 C 42.55 50.55 41.70 49.93 41.27 49.62 C 41.06 49.10 40.65 48.05 40.45 47.53 C 39.68 45.08 38.91 42.63 38.10 40.21 C 42.03 39.03 46.34 38.77 50.01 40.96 C 46.89 43.19 43.24 40.30 39.77 40.85 C 39.94 44.37 41.43 47.59 43.58 50.34 C 44.33 47.91 46.17 46.16 48.09 44.62 C 48.12 46.31 48.15 48.01 48.18 49.70 C 48.74 50.13 49.85 50.98 50.40 51.40 C 49.74 52.11 49.09 52.83 48.44 53.56 L 47.13 52.83 C 47.03 53.71 46.82 55.48 46.71 56.36 C 46.05 54.58 45.44 52.65 43.85 51.43 L 45.01 53.75 C 44.49 54.13 43.46 54.91 42.94 55.29 C 42.97 56.69 43.00 58.10 43.03 59.50 C 43.97 60.43 44.89 61.37 45.80 62.32 C 45.68 61.58 45.45 60.10 45.33 59.36 C 47.23 60.38 48.61 61.70 46.93 63.61 C 47.36 63.17 48.24 62.30 48.67 61.86 C 48.76 61.22 48.93 59.93 49.02 59.29 C 49.05 59.32 49.12 59.38 49.15 59.41 L 49.05 59.10 C 49.06 57.56 49.08 56.02 49.31 54.50 C 49.57 54.01 50.08 53.03 50.34 52.54 C 51.80 53.11 53.26 53.64 54.76 54.10 C 56.13 53.55 57.51 53.05 58.92 52.59 C 59.70 50.12 60.63 47.21 59.30 44.78 C 58.36 44.36 57.38 44.02 56.39 43.74 C 55.83 44.82 55.28 45.91 54.74 46.99 C 55.57 46.10 56.40 45.21 57.24 44.32 C 58.17 46.20 59.65 48.28 58.86 50.48 C 57.42 53.09 53.56 53.71 51.30 51.78 C 50.55 50.66 49.75 49.58 48.90 48.53 C 48.62 45.75 49.19 43.04 50.25 40.48 C 50.48 40.14 50.94 39.46 51.17 39.11 C 51.82 38.33 52.56 37.63 53.36 37.00 C 54.60 37.01 55.74 36.68 56.80 36.00 M 70.71 42.24 C 73.27 44.29 75.48 46.73 77.44 49.36 C 78.12 48.05 78.89 46.79 79.82 45.64 C 80.33 43.42 81.00 41.23 81.18 38.95 C 80.47 38.98 79.05 39.04 78.34 39.07 C 75.69 39.88 73.32 41.36 70.71 42.24 M 60.37 44.49 C 61.25 45.84 64.91 43.83 64.87 42.27 C 63.21 42.23 61.48 43.29 60.37 44.49 M 46.35 51.05 C 46.52 54.37 49.32 49.50 46.35 51.05 M 61.87 50.94 L 62.00 52.00 L 63.01 52.00 L 62.98 53.27 C 62.13 52.89 60.43 52.15 59.59 51.78 L 60.90 53.57 C 59.53 55.05 60.08 57.24 59.79 59.06 C 60.72 59.49 61.61 60.01 62.45 60.61 C 63.82 60.56 65.18 60.59 66.54 60.71 C 66.59 60.67 66.68 60.58 66.72 60.54 C 69.57 59.14 69.71 55.25 67.25 53.37 C 67.10 53.89 66.79 54.94 66.63 55.46 C 65.65 55.27 64.67 55.08 63.69 54.89 C 64.36 53.19 66.08 52.34 67.23 51.01 C 65.58 52.28 63.50 52.22 61.87 50.94 M 68.15 52.11 C 67.95 53.47 68.53 54.05 69.90 53.86 C 70.09 52.51 69.51 51.92 68.15 52.11 M 70.33 55.16 C 69.66 56.37 69.65 57.59 70.30 58.82 C 71.66 58.82 71.66 55.23 70.33 55.16 M 59.79 59.06 C 59.37 59.66 59.37 59.66 59.79 59.06 M 68.14 61.92 C 69.49 62.11 70.08 61.53 69.93 60.16 C 68.57 59.96 67.97 60.54 68.14 61.92 M 62.49 62.38 C 62.78 62.65 62.78 62.65 62.49 62.38 M 65.55 62.17 C 65.72 65.49 68.47 60.60 65.55 62.17 M 52.30 63.36 C 52.45 64.74 54.95 64.39 55.78 63.72 C 55.68 62.29 53.12 62.64 52.30 63.36 M 69.31 63.31 C 70.20 63.89 71.14 64.42 72.07 64.95 C 72.49 66.64 72.55 68.37 72.33 70.09 C 70.19 69.97 68.07 69.81 65.93 69.74 C 68.07 70.54 70.34 70.81 72.60 71.02 C 72.88 70.37 73.44 69.07 73.72 68.42 C 73.74 67.94 73.79 66.99 73.82 66.51 C 72.95 64.73 71.65 62.61 69.31 63.31 Z" />
<path fill="#fbdde6" opacity="1.00" d=" M 44.12 78.40 C 46.39 77.99 48.83 76.77 51.06 77.96 C 53.85 79.09 56.89 79.49 59.56 80.92 C 53.94 81.18 48.41 82.55 42.76 82.26 C 42.48 81.80 41.91 80.87 41.63 80.41 C 42.39 79.65 43.23 78.98 44.12 78.40 Z" />
<path fill="#fbdde6" opacity="1.00" d=" M 64.94 80.52 C 66.33 79.19 67.82 77.29 70.02 77.80 C 72.47 77.88 74.12 80.07 74.67 82.27 C 72.02 82.28 69.37 82.26 66.72 82.28 C 66.12 81.70 65.53 81.12 64.94 80.52 Z" />
</g>
<g id="#06849bff">
<path fill="#06849b" opacity="1.00" d=" M 61.87 50.94 C 63.50 52.22 65.58 52.28 67.23 51.01 C 66.08 52.34 64.36 53.19 63.69 54.89 C 64.67 55.08 65.65 55.27 66.63 55.46 C 66.79 54.94 67.10 53.89 67.25 53.37 C 69.71 55.25 69.57 59.14 66.72 60.54 C 66.68 60.58 66.59 60.67 66.54 60.71 C 65.18 60.59 63.82 60.56 62.45 60.61 C 61.61 60.01 60.72 59.49 59.79 59.06 C 60.08 57.24 59.53 55.05 60.90 53.57 L 59.59 51.78 C 60.43 52.15 62.13 52.89 62.98 53.27 L 63.01 52.00 L 62.00 52.00 L 61.87 50.94 Z" />
<path fill="#06849b" opacity="1.00" d=" M 43.85 51.43 C 45.44 52.65 46.05 54.58 46.71 56.36 C 46.82 55.48 47.03 53.71 47.13 52.83 L 48.44 53.56 C 48.66 53.79 49.09 54.26 49.31 54.50 C 49.08 56.02 49.06 57.56 49.05 59.10 L 49.02 59.29 C 48.93 59.93 48.76 61.22 48.67 61.86 C 48.24 62.30 47.36 63.17 46.93 63.61 C 48.61 61.70 47.23 60.38 45.33 59.36 C 45.45 60.10 45.68 61.58 45.80 62.32 C 44.89 61.37 43.97 60.43 43.03 59.50 C 43.00 58.10 42.97 56.69 42.94 55.29 C 43.46 54.91 44.49 54.13 45.01 53.75 L 43.85 51.43 Z" />
</g>
</svg>
