<?xml version="1.0" encoding="UTF-8" ?>
<!DOCTYPE svg PUBLIC "-//W3C//DTD SVG 1.1//EN" "http://www.w3.org/Graphics/SVG/1.1/DTD/svg11.dtd">
<svg width="120pt" height="120pt" viewBox="0 0 120 120" version="1.1" xmlns="http://www.w3.org/2000/svg">
<g id="#f6746bff">
<path fill="#f6746b" opacity="1.00" d=" M 53.19 26.07 C 55.02 23.58 58.76 23.48 61.58 23.48 L 62.19 23.89 C 64.05 25.29 66.00 23.70 67.97 23.54 C 70.08 23.56 72.95 22.69 73.95 25.22 C 75.86 25.41 76.97 26.96 78.04 28.36 C 79.47 28.36 80.90 28.35 82.34 28.34 C 83.52 28.92 84.72 29.50 86.05 29.70 C 86.29 30.67 86.53 31.64 86.75 32.62 C 87.23 32.56 88.20 32.44 88.69 32.39 C 88.77 36.82 88.74 41.28 87.36 45.54 L 88.79 45.26 L 88.67 45.62 L 88.42 46.36 C 87.86 46.10 86.73 45.59 86.16 45.34 C 86.10 45.78 85.98 46.66 85.92 47.10 C 85.76 46.81 85.46 46.24 85.30 45.95 C 86.62 43.23 90.27 39.67 86.73 37.13 C 87.21 35.93 87.91 34.73 87.83 33.41 C 86.30 34.19 84.85 35.12 83.39 36.03 C 83.49 34.29 83.59 32.56 83.70 30.82 C 83.08 30.33 81.84 29.35 81.21 28.86 C 80.65 29.20 80.10 29.55 79.55 29.90 C 80.73 32.19 81.51 34.64 81.90 37.18 C 80.42 34.64 79.20 31.95 78.03 29.25 C 77.36 29.63 76.00 30.41 75.33 30.79 C 76.77 32.60 78.44 34.29 79.41 36.43 C 79.68 37.96 79.02 39.47 78.76 40.97 C 78.00 39.85 77.24 38.73 76.48 37.61 C 75.65 38.35 74.89 39.15 74.20 40.02 C 75.39 41.48 76.94 42.56 78.44 43.68 C 78.36 43.88 78.20 44.30 78.12 44.51 C 76.60 43.66 75.14 42.73 73.68 41.81 C 74.10 40.29 73.61 38.11 75.31 37.28 C 76.10 37.14 77.68 36.86 78.47 36.72 C 78.37 37.16 78.16 38.04 78.06 38.48 L 78.68 39.00 C 78.63 38.43 78.52 37.29 78.47 36.72 C 77.32 35.33 76.20 33.94 75.05 32.55 C 75.03 31.99 74.98 30.85 74.95 30.28 C 75.49 29.82 76.58 28.89 77.13 28.42 C 74.39 26.46 71.74 23.34 68.00 24.01 C 64.22 24.26 62.35 27.96 59.98 30.38 C 60.88 28.60 61.82 26.85 62.79 25.10 C 59.63 23.34 56.16 24.50 53.19 26.07 M 84.25 30.45 C 83.36 31.45 83.68 33.62 85.13 33.90 C 87.26 33.65 86.24 29.38 84.25 30.45 Z" />
<path fill="#f6746b" opacity="1.00" d=" M 32.92 29.14 C 34.97 29.37 36.12 30.90 35.86 33.04 C 36.89 32.08 37.88 31.08 39.00 30.23 C 40.38 30.60 40.55 32.03 40.78 33.22 C 39.15 35.90 38.20 39.00 38.63 42.17 C 39.33 41.48 40.74 40.10 41.44 39.40 C 43.25 40.69 43.81 38.99 44.35 37.46 C 45.18 35.72 46.03 34.00 46.76 32.22 L 47.52 32.00 C 46.14 34.93 44.60 37.88 44.27 41.15 C 43.92 44.72 44.22 48.35 43.49 51.89 C 43.04 49.42 42.74 46.92 42.16 44.48 C 43.07 52.96 42.36 61.76 45.72 69.79 L 44.45 69.93 C 44.48 69.07 44.55 67.36 44.58 66.50 L 42.53 66.42 C 42.63 67.03 42.84 68.25 42.94 68.85 C 42.37 68.71 41.21 68.41 40.63 68.26 C 40.61 69.07 40.56 70.70 40.54 71.51 C 38.31 68.90 40.02 64.86 39.57 61.70 C 36.53 62.47 34.30 60.74 32.47 58.59 C 32.51 55.32 32.50 52.05 32.58 48.77 C 30.45 48.18 29.44 46.11 28.21 44.48 C 28.40 42.94 28.54 41.39 28.65 39.83 C 27.14 39.36 24.46 38.14 25.40 36.10 C 25.36 34.55 27.37 34.91 28.02 33.85 C 28.15 33.21 28.42 31.95 28.55 31.32 C 29.58 31.27 30.61 31.34 31.64 31.45 L 30.97 31.71 C 27.28 32.64 29.81 36.85 30.68 39.07 C 30.23 38.95 29.31 38.72 28.85 38.61 C 28.54 37.39 28.72 35.11 26.93 35.14 C 24.74 35.99 27.38 38.63 28.85 38.61 C 28.81 39.45 28.74 41.13 28.70 41.98 C 29.98 44.24 30.52 47.32 33.11 48.49 C 34.48 48.95 35.65 47.81 36.85 47.36 C 36.65 47.82 36.26 48.75 36.06 49.22 L 37.88 49.48 C 37.80 49.88 37.66 50.68 37.59 51.08 C 39.25 51.65 40.62 52.65 41.70 54.08 C 41.51 51.06 41.50 48.04 41.53 45.01 C 40.98 45.24 39.89 45.70 39.34 45.93 C 40.84 44.62 42.06 43.05 43.18 41.42 C 42.44 41.33 40.95 41.15 40.21 41.06 C 39.73 41.64 39.28 42.23 38.84 42.83 C 38.10 40.97 37.07 39.25 35.65 37.84 C 35.49 35.59 35.41 33.35 35.33 31.10 C 34.73 30.61 33.52 29.63 32.92 29.14 M 36.50 38.27 C 39.26 37.28 39.66 34.19 40.11 31.71 C 36.15 29.86 36.39 35.99 36.50 38.27 M 32.62 48.95 C 32.74 49.35 32.99 50.14 33.11 50.54 C 32.65 53.21 32.52 55.94 32.84 58.64 C 33.35 58.30 34.37 57.62 34.88 57.28 L 35.15 58.07 C 33.71 61.72 38.65 61.70 40.95 61.57 C 40.61 61.10 39.94 60.16 39.60 59.70 C 39.92 58.79 40.56 56.99 40.88 56.08 L 41.07 55.52 L 42.01 54.87 L 40.60 54.78 C 38.50 52.26 36.33 48.85 32.62 48.95 M 40.88 56.08 C 40.92 58.62 41.68 61.41 40.28 63.74 C 40.19 65.28 40.15 66.82 40.15 68.37 C 42.58 64.86 42.70 59.85 40.88 56.08 Z" />
<path fill="#f6746b" opacity="1.00" d=" M 56.10 32.47 C 55.51 31.92 54.92 31.37 54.34 30.81 C 58.10 31.70 61.89 31.30 65.67 31.01 C 73.04 41.06 73.80 55.06 68.28 66.14 C 68.62 66.76 68.97 67.39 69.32 68.02 C 72.19 66.01 74.81 63.62 76.60 60.57 C 77.04 59.32 77.50 58.08 77.99 56.85 L 78.98 58.22 C 79.04 61.85 78.96 65.49 79.34 69.11 L 79.47 69.20 C 82.19 70.96 85.53 72.38 86.82 75.60 C 89.31 76.53 91.81 77.43 94.25 78.49 C 92.20 79.28 89.73 79.77 90.39 82.64 L 91.75 82.29 C 91.66 84.08 91.59 85.88 91.50 87.67 L 92.66 87.24 C 92.64 89.41 92.66 91.58 92.74 93.75 C 89.77 93.63 86.79 93.62 83.82 93.70 C 82.08 95.05 79.82 94.57 77.79 94.75 C 76.10 96.00 73.95 95.62 72.00 95.68 C 63.01 95.66 54.01 95.60 45.02 95.68 C 43.06 95.66 40.95 95.87 39.24 94.68 C 35.57 94.63 31.89 94.65 28.21 94.67 C 28.36 94.12 28.66 93.02 28.81 92.47 L 26.89 92.85 C 29.46 90.64 31.87 88.24 34.18 85.76 C 35.10 83.28 37.39 81.75 39.08 79.85 C 36.95 79.75 34.92 79.13 32.89 78.52 C 34.62 77.28 36.46 76.22 38.35 75.24 C 40.31 74.52 42.30 73.84 44.32 73.26 L 44.23 72.63 C 46.50 72.56 47.11 71.33 46.06 68.95 C 46.56 67.67 47.24 66.47 47.89 65.26 C 47.27 65.79 46.02 66.85 45.40 67.37 C 45.86 58.71 46.23 50.05 47.33 41.44 C 48.56 37.46 50.99 33.92 54.08 31.14 C 54.07 31.78 54.04 33.05 54.03 33.68 C 54.55 33.38 55.59 32.78 56.10 32.47 M 50.22 38.26 C 47.60 41.49 48.30 45.86 48.04 49.72 C 50.23 50.19 52.44 50.55 54.66 50.89 C 53.79 48.48 51.80 44.16 55.62 43.22 C 55.02 42.62 54.42 42.03 53.81 41.45 C 54.26 40.36 54.76 39.28 54.99 38.12 C 55.42 39.71 55.89 41.29 56.36 42.87 C 58.12 42.72 59.89 42.50 61.66 42.53 C 63.60 44.27 62.19 47.33 62.46 49.59 C 65.73 49.03 68.84 49.98 71.65 51.62 C 70.91 45.20 69.82 38.44 65.70 33.23 C 60.20 31.29 53.67 33.70 50.22 38.26 M 55.50 43.60 C 54.53 45.04 54.23 46.72 54.23 48.43 C 56.50 48.98 59.50 50.67 61.48 48.59 C 61.74 46.99 62.29 44.57 60.70 43.51 C 58.97 43.51 57.24 43.86 55.50 43.60 M 63.45 50.12 L 63.47 50.72 C 64.49 51.41 65.51 51.41 66.53 50.71 L 66.55 50.11 C 65.51 49.46 64.48 49.46 63.45 50.12 M 48.71 50.97 C 51.27 52.13 54.21 52.91 55.99 55.25 C 56.84 57.23 56.15 59.39 55.92 61.42 C 54.41 62.31 52.88 63.17 51.20 63.69 C 52.55 63.73 53.89 63.82 55.24 63.89 C 55.45 62.40 56.23 61.19 57.58 60.25 C 58.25 60.87 58.90 61.49 59.54 62.13 L 60.57 60.19 C 59.97 60.15 58.77 60.07 58.17 60.04 C 57.99 58.41 57.83 56.77 57.70 55.14 C 59.34 53.80 60.96 52.44 62.54 51.02 C 60.84 51.98 59.26 53.76 57.10 53.31 C 54.29 52.52 51.76 50.73 48.71 50.97 M 56.31 50.55 C 55.89 52.05 59.20 51.98 58.64 50.49 C 58.06 50.51 56.90 50.53 56.31 50.55 M 68.47 51.51 C 68.50 51.53 68.50 51.53 68.47 51.51 Z" />
<path fill="#f6746b" opacity="1.00" d=" M 63.42 39.19 C 63.94 39.81 63.94 39.81 63.42 39.19 Z" />
<path fill="#f6746b" opacity="1.00" d=" M 55.89 45.01 C 57.67 43.77 62.15 43.87 61.45 47.04 C 60.56 50.29 53.37 48.70 55.89 45.01 Z" />
<path fill="#f6746b" opacity="1.00" d=" M 86.50 68.28 C 85.11 65.30 89.97 66.35 87.27 68.41 L 86.50 68.28 Z" />
<path fill="#f6746b" opacity="1.00" d=" M 84.29 67.79 C 87.21 66.16 84.51 71.13 84.29 67.79 Z" />
</g>
<g id="#fefdd9ff">
<path fill="#fefdd9" opacity="1.00" d=" M 53.19 26.07 C 56.16 24.50 59.63 23.34 62.79 25.10 C 61.82 26.85 60.88 28.60 59.98 30.38 C 62.35 27.96 64.22 24.26 68.00 24.01 C 71.74 23.34 74.39 26.46 77.13 28.42 C 76.58 28.89 75.49 29.82 74.95 30.28 C 74.98 30.85 75.03 31.99 75.05 32.55 C 76.20 33.94 77.32 35.33 78.47 36.72 C 77.68 36.86 76.10 37.14 75.31 37.28 C 73.61 38.11 74.10 40.29 73.68 41.81 C 75.14 42.73 76.60 43.66 78.12 44.51 C 79.35 48.58 78.79 52.76 77.99 56.85 C 77.50 58.08 77.04 59.32 76.60 60.57 C 74.81 63.62 72.19 66.01 69.32 68.02 C 68.97 67.39 68.62 66.76 68.28 66.14 C 73.80 55.06 73.04 41.06 65.67 31.01 C 61.89 31.30 58.10 31.70 54.34 30.81 C 54.92 31.37 55.51 31.92 56.10 32.47 C 55.59 32.78 54.55 33.38 54.03 33.68 C 54.04 33.05 54.07 31.78 54.08 31.14 C 50.99 33.92 48.56 37.46 47.33 41.44 C 46.23 50.05 45.86 58.71 45.40 67.37 C 46.02 66.85 47.27 65.79 47.89 65.26 C 47.24 66.47 46.56 67.67 46.06 68.95 L 45.72 69.79 C 42.36 61.76 43.07 52.96 42.16 44.48 C 42.74 46.92 43.04 49.42 43.49 51.89 C 44.22 48.35 43.92 44.72 44.27 41.15 C 44.60 37.88 46.14 34.93 47.52 32.00 C 48.58 29.30 50.84 27.59 53.19 26.07 Z" />
<path fill="#fefdd9" opacity="1.00" d=" M 64.53 36.78 C 65.19 37.94 66.32 39.06 65.93 40.52 C 65.11 41.19 64.26 41.84 63.40 42.47 C 62.88 41.35 62.40 40.21 61.97 39.06 C 62.80 38.27 63.65 37.51 64.53 36.78 M 63.42 39.19 C 63.94 39.81 63.94 39.81 63.42 39.19 Z" />
<path fill="#fefdd9" opacity="1.00" d=" M 78.47 36.72 C 78.52 37.29 78.63 38.43 78.68 39.00 L 78.06 38.48 C 78.16 38.04 78.37 37.16 78.47 36.72 Z" />
<path fill="#fefdd9" opacity="1.00" d=" M 86.16 45.34 C 86.73 45.59 87.86 46.10 88.42 46.36 C 88.50 47.76 86.34 48.97 85.92 47.10 C 85.98 46.66 86.10 45.78 86.16 45.34 Z" />
<path fill="#fefdd9" opacity="1.00" d=" M 81.51 46.67 C 84.09 48.08 86.57 49.66 89.12 51.13 C 89.21 51.08 89.40 50.97 89.50 50.92 L 90.67 50.28 C 90.61 51.17 90.48 52.94 90.42 53.83 C 90.27 55.21 90.14 56.59 90.00 57.97 C 88.20 55.53 85.86 53.55 82.76 53.09 C 82.36 50.95 81.95 48.80 81.51 46.67 Z" />
<path fill="#fefdd9" opacity="1.00" d=" M 32.62 48.95 C 36.33 48.85 38.50 52.26 40.60 54.78 C 38.94 54.66 37.25 54.67 35.61 54.33 C 34.50 53.28 33.81 51.88 33.11 50.54 C 32.99 50.14 32.74 49.35 32.62 48.95 Z" />
<path fill="#fefdd9" opacity="1.00" d=" M 80.24 49.00 L 81.00 49.00 C 80.98 51.87 80.98 54.74 81.01 57.61 C 84.17 59.84 84.30 63.54 83.95 67.06 C 83.61 66.41 82.92 65.11 82.58 64.46 C 81.52 66.02 80.49 67.61 79.47 69.20 L 79.34 69.11 C 78.96 65.49 79.04 61.85 78.98 58.22 C 79.38 55.14 79.93 52.09 80.24 49.00 Z" />
<path fill="#fefdd9" opacity="1.00" d=" M 48.71 50.97 C 51.76 50.73 54.29 52.52 57.10 53.31 C 59.26 53.76 60.84 51.98 62.54 51.02 C 60.96 52.44 59.34 53.80 57.70 55.14 C 57.83 56.77 57.99 58.41 58.17 60.04 C 58.77 60.07 59.97 60.15 60.57 60.19 L 59.54 62.13 C 58.90 61.49 58.25 60.87 57.58 60.25 C 56.23 61.19 55.45 62.40 55.24 63.89 C 53.89 63.82 52.55 63.73 51.20 63.69 C 52.88 63.17 54.41 62.31 55.92 61.42 C 56.15 59.39 56.84 57.23 55.99 55.25 C 54.21 52.91 51.27 52.13 48.71 50.97 Z" />
<path fill="#fefdd9" opacity="1.00" d=" M 81.69 55.18 C 83.01 55.13 84.33 55.09 85.65 55.05 C 86.37 55.79 87.10 56.52 87.82 57.26 C 87.71 57.93 87.49 59.28 87.39 59.96 C 84.92 59.14 83.07 57.33 81.69 55.18 Z" />
<path fill="#fefdd9" opacity="1.00" d=" M 34.88 57.28 C 36.79 56.21 39.00 56.05 41.07 55.52 L 40.88 56.08 C 40.56 56.99 39.92 58.79 39.60 59.70 C 38.12 59.13 36.64 58.59 35.15 58.07 L 34.88 57.28 Z" />
<path fill="#fefdd9" opacity="1.00" d=" M 40.88 56.08 C 42.70 59.85 42.58 64.86 40.15 68.37 C 40.15 66.82 40.19 65.28 40.28 63.74 C 41.68 61.41 40.92 58.62 40.88 56.08 Z" />
</g>
<g id="#b495c7ff">
<path fill="#b495c7" opacity="1.00" d=" M 79.55 29.90 C 80.10 29.55 80.65 29.20 81.21 28.86 C 81.84 29.35 83.08 30.33 83.70 30.82 C 83.59 32.56 83.49 34.29 83.39 36.03 C 84.85 35.12 86.30 34.19 87.83 33.41 C 87.91 34.73 87.21 35.93 86.73 37.13 C 90.27 39.67 86.62 43.23 85.30 45.95 C 85.46 46.24 85.76 46.81 85.92 47.10 C 86.34 48.97 88.50 47.76 88.42 46.36 L 88.67 45.62 C 88.65 46.34 88.62 47.77 88.60 48.49 L 89.98 48.48 C 89.86 49.09 89.62 50.31 89.50 50.92 C 89.40 50.97 89.21 51.08 89.12 51.13 C 86.57 49.66 84.09 48.08 81.51 46.67 C 81.95 48.80 82.36 50.95 82.76 53.09 C 85.86 53.55 88.20 55.53 90.00 57.97 C 90.14 56.59 90.27 55.21 90.42 53.83 L 91.34 52.71 C 91.51 53.97 91.66 55.23 91.80 56.49 C 91.06 57.57 90.34 58.67 89.58 59.74 C 89.64 61.48 89.71 63.23 89.81 64.97 L 88.49 64.29 C 88.57 65.89 88.64 67.49 88.71 69.09 L 87.27 68.41 C 89.97 66.35 85.11 65.30 86.50 68.28 L 86.93 69.76 C 86.01 69.71 84.18 69.59 83.26 69.53 C 84.81 71.49 86.43 73.38 87.85 75.44 C 90.59 74.61 92.68 76.54 94.25 78.49 C 91.81 77.43 89.31 76.53 86.82 75.60 C 85.53 72.38 82.19 70.96 79.47 69.20 C 80.49 67.61 81.52 66.02 82.58 64.46 C 82.92 65.11 83.61 66.41 83.95 67.06 C 84.30 63.54 84.17 59.84 81.01 57.61 C 80.98 54.74 80.98 51.87 81.00 49.00 L 80.24 49.00 C 79.93 52.09 79.38 55.14 78.98 58.22 L 77.99 56.85 C 78.79 52.76 79.35 48.58 78.12 44.51 C 78.20 44.30 78.36 43.88 78.44 43.68 C 76.94 42.56 75.39 41.48 74.20 40.02 C 74.89 39.15 75.65 38.35 76.48 37.61 C 77.24 38.73 78.00 39.85 78.76 40.97 C 79.02 39.47 79.68 37.96 79.41 36.43 C 78.44 34.29 76.77 32.60 75.33 30.79 C 76.00 30.41 77.36 29.63 78.03 29.25 C 79.20 31.95 80.42 34.64 81.90 37.18 C 81.51 34.64 80.73 32.19 79.55 29.90 M 81.69 55.18 C 83.07 57.33 84.92 59.14 87.39 59.96 C 87.49 59.28 87.71 57.93 87.82 57.26 C 87.10 56.52 86.37 55.79 85.65 55.05 C 84.33 55.09 83.01 55.13 81.69 55.18 M 84.29 67.79 C 84.51 71.13 87.21 66.16 84.29 67.79 M 82.40 69.40 C 82.63 69.63 82.63 69.63 82.40 69.40 Z" />
<path fill="#b495c7" opacity="1.00" d=" M 32.92 29.14 C 33.52 29.63 34.73 30.61 35.33 31.10 C 35.41 33.35 35.49 35.59 35.65 37.84 C 37.07 39.25 38.10 40.97 38.84 42.83 C 39.28 42.23 39.73 41.64 40.21 41.06 C 40.95 41.15 42.44 41.33 43.18 41.42 C 42.06 43.05 40.84 44.62 39.34 45.93 L 38.49 46.41 C 38.08 46.65 37.26 47.12 36.85 47.36 C 35.65 47.81 34.48 48.95 33.11 48.49 C 30.52 47.32 29.98 44.24 28.70 41.98 C 28.74 41.13 28.81 39.45 28.85 38.61 C 29.31 38.72 30.23 38.95 30.68 39.07 C 29.81 36.85 27.28 32.64 30.97 31.71 C 32.53 33.46 30.52 37.78 33.69 39.28 C 33.37 38.80 32.72 37.84 32.40 37.35 C 32.56 34.61 32.08 31.80 32.92 29.14 Z" />
<path fill="#b495c7" opacity="1.00" d=" M 84.25 30.45 C 86.24 29.38 87.26 33.65 85.13 33.90 C 83.68 33.62 83.36 31.45 84.25 30.45 Z" />
<path fill="#b495c7" opacity="1.00" d=" M 36.50 38.27 C 36.39 35.99 36.15 29.86 40.11 31.71 C 39.66 34.19 39.26 37.28 36.50 38.27 Z" />
<path fill="#b495c7" opacity="1.00" d=" M 50.22 38.26 C 53.67 33.70 60.20 31.29 65.70 33.23 C 69.82 38.44 70.91 45.20 71.65 51.62 C 68.84 49.98 65.73 49.03 62.46 49.59 C 62.19 47.33 63.60 44.27 61.66 42.53 C 59.89 42.50 58.12 42.72 56.36 42.87 C 55.89 41.29 55.42 39.71 54.99 38.12 C 54.76 39.28 54.26 40.36 53.81 41.45 C 54.42 42.03 55.02 42.62 55.62 43.22 C 51.80 44.16 53.79 48.48 54.66 50.89 C 52.44 50.55 50.23 50.19 48.04 49.72 C 48.30 45.86 47.60 41.49 50.22 38.26 M 64.53 36.78 C 63.65 37.51 62.80 38.27 61.97 39.06 C 62.40 40.21 62.88 41.35 63.40 42.47 C 64.26 41.84 65.11 41.19 65.93 40.52 C 66.32 39.06 65.19 37.94 64.53 36.78 Z" />
<path fill="#b495c7" opacity="1.00" d=" M 26.93 35.14 C 28.72 35.11 28.54 37.39 28.85 38.61 C 27.38 38.63 24.74 35.99 26.93 35.14 Z" />
<path fill="#b495c7" opacity="1.00" d=" M 33.11 50.54 C 33.81 51.88 34.50 53.28 35.61 54.33 C 37.25 54.67 38.94 54.66 40.60 54.78 L 42.01 54.87 L 41.07 55.52 C 39.00 56.05 36.79 56.21 34.88 57.28 C 34.37 57.62 33.35 58.30 32.84 58.64 C 32.52 55.94 32.65 53.21 33.11 50.54 Z" />
<path fill="#b495c7" opacity="1.00" d=" M 35.15 58.07 C 36.64 58.59 38.12 59.13 39.60 59.70 C 39.94 60.16 40.61 61.10 40.95 61.57 C 38.65 61.70 33.71 61.72 35.15 58.07 Z" />
</g>
</svg>
