<?xml version="1.0" encoding="UTF-8" ?>
<!DOCTYPE svg PUBLIC "-//W3C//DTD SVG 1.1//EN" "http://www.w3.org/Graphics/SVG/1.1/DTD/svg11.dtd">
<svg width="120pt" height="120pt" viewBox="0 0 120 120" version="1.1" xmlns="http://www.w3.org/2000/svg">
<g id="#6e5335ff">
<path fill="#6e5335" opacity="1.00" d=" M 70.98 26.32 C 76.69 25.54 81.89 22.80 86.98 20.23 C 87.10 23.83 86.32 27.44 84.61 30.61 L 83.83 30.82 C 84.66 28.01 85.50 25.20 86.03 22.31 C 80.76 24.05 75.75 27.38 70.00 26.98 C 65.48 26.71 60.91 26.73 56.43 27.54 C 51.57 28.45 46.62 27.88 41.72 28.07 C 38.81 28.25 36.35 26.69 33.95 25.30 C 33.56 31.50 32.75 38.36 36.08 43.95 C 39.56 49.35 46.18 51.06 51.90 53.02 C 53.68 52.07 55.23 50.53 56.59 49.01 C 56.79 49.44 57.18 50.31 57.38 50.74 C 59.63 50.28 61.81 49.54 64.06 49.10 C 66.05 49.47 67.91 50.28 69.80 50.97 C 69.24 54.71 68.99 58.49 68.92 62.27 C 68.27 61.35 67.78 60.33 67.47 59.23 C 66.02 58.91 64.53 58.97 63.06 59.03 C 63.69 62.05 63.35 65.67 65.10 68.23 C 66.77 66.81 66.97 63.58 69.10 63.04 C 68.87 68.76 68.00 74.61 69.79 80.21 C 69.85 77.46 69.39 74.72 69.58 71.98 C 69.99 69.06 70.98 66.21 70.75 63.23 C 70.80 60.38 71.00 57.31 73.13 55.18 C 75.73 52.63 74.18 48.83 74.25 45.66 C 74.23 44.03 74.24 42.40 74.13 40.77 C 70.10 40.34 70.97 45.71 70.81 48.31 C 70.55 48.47 70.02 48.79 69.76 48.96 C 69.08 48.47 68.40 47.97 67.75 47.45 C 70.62 45.74 70.19 42.36 70.52 39.51 C 72.38 39.34 74.07 40.31 75.87 40.64 C 78.82 38.68 80.47 35.34 82.87 32.80 C 82.03 37.65 77.20 40.17 74.75 44.07 C 77.00 48.36 82.75 49.36 85.52 53.30 C 85.52 54.79 85.78 56.27 85.74 57.76 C 84.75 57.59 83.76 57.42 82.77 57.24 C 84.69 60.60 90.59 60.74 90.99 65.05 C 86.81 64.66 83.23 61.71 79.00 61.88 C 79.33 65.47 77.95 68.68 76.81 71.93 C 78.63 78.38 79.41 85.11 78.62 91.80 C 78.17 91.90 77.25 92.11 76.80 92.21 C 77.59 89.69 76.66 87.17 76.24 84.69 C 75.31 80.26 75.96 75.73 75.76 71.25 C 74.23 71.14 72.69 71.16 71.17 71.27 C 71.44 75.61 73.41 79.67 73.39 84.04 C 73.31 86.48 72.96 88.90 72.77 91.33 C 74.09 91.70 75.45 91.93 76.80 92.21 C 76.60 94.76 79.24 96.35 78.88 98.87 C 74.94 97.89 70.87 97.21 66.99 98.91 C 67.06 97.90 67.45 97.04 68.15 96.34 L 68.73 96.60 C 71.56 97.53 74.61 95.90 77.36 97.25 C 77.46 97.28 77.67 97.35 77.78 97.39 C 77.67 97.35 77.46 97.28 77.36 97.25 C 76.92 96.77 76.05 95.82 75.61 95.35 C 73.76 95.07 71.88 95.09 70.02 95.06 C 71.92 94.34 72.25 92.54 71.46 90.83 C 72.10 87.23 72.67 83.57 72.10 79.88 L 71.05 79.72 C 70.96 81.48 70.98 83.25 70.87 85.02 C 68.99 85.35 69.08 83.43 68.81 82.14 C 68.39 77.69 67.11 73.35 67.07 68.86 C 62.84 67.97 59.55 71.36 57.15 74.35 C 55.88 78.88 60.26 82.36 63.62 84.55 C 64.11 87.21 63.87 89.96 63.68 92.64 C 60.52 94.66 56.66 93.26 53.23 94.13 C 50.85 94.87 48.42 94.06 46.05 93.72 C 46.50 92.78 47.55 91.80 48.65 92.47 C 51.04 93.65 53.86 93.79 56.07 92.35 C 58.68 93.35 61.48 92.84 63.17 90.50 C 60.42 90.81 57.70 91.30 55.01 91.93 C 53.78 91.62 52.54 91.33 51.30 91.07 L 51.08 90.30 C 53.10 90.19 55.13 90.24 57.16 90.14 C 57.40 88.67 56.25 87.58 55.52 86.46 C 53.41 83.57 51.49 80.43 48.29 78.61 C 48.50 76.72 48.39 74.81 48.31 72.91 C 47.80 69.81 50.19 67.16 52.20 65.10 C 51.49 67.61 50.62 70.15 50.82 72.80 C 54.59 71.63 58.41 69.85 61.43 67.32 C 62.06 64.28 61.86 61.05 61.59 57.95 C 58.46 59.55 56.08 62.23 53.24 64.27 C 54.67 61.06 57.85 59.28 60.37 57.04 C 60.24 54.63 57.71 51.97 55.18 53.08 C 51.61 54.30 47.86 53.14 44.20 53.83 C 41.38 52.36 38.78 50.51 36.01 48.95 C 35.95 53.72 33.80 58.12 33.68 62.87 C 32.21 69.49 32.98 76.30 32.96 83.02 C 32.56 82.94 31.77 82.78 31.37 82.71 C 30.05 77.27 28.16 71.67 29.20 66.02 C 29.54 61.15 28.44 56.05 30.52 51.43 C 32.03 48.29 31.41 44.34 33.34 41.50 C 33.17 43.38 32.99 45.26 33.02 47.15 C 33.60 47.16 34.75 47.18 35.33 47.19 C 35.00 45.19 34.16 43.34 33.34 41.50 C 31.71 37.21 32.23 32.52 32.25 28.03 C 32.21 26.24 33.27 24.71 34.13 23.23 C 35.85 24.49 37.61 25.69 39.34 26.93 C 41.62 28.18 44.03 25.92 46.40 26.79 C 51.92 28.47 57.40 25.66 62.98 26.15 C 65.64 24.99 68.33 25.76 70.98 26.32 M 32.02 48.00 C 31.85 49.53 32.03 51.19 33.77 51.63 C 33.01 52.14 32.12 52.32 31.25 52.53 C 29.59 56.16 29.94 60.22 30.22 64.08 C 30.68 69.00 30.11 74.00 31.24 78.86 L 32.13 79.08 C 32.36 75.05 31.67 71.00 32.04 66.98 C 32.85 62.76 33.06 58.42 34.29 54.28 C 34.92 52.19 35.20 50.01 35.15 47.83 C 34.36 47.87 32.80 47.96 32.02 48.00 M 60.50 51.46 C 60.17 51.74 59.49 52.29 59.15 52.56 C 61.35 53.16 63.59 53.56 65.78 54.15 L 65.85 54.93 C 64.62 55.09 63.39 55.26 62.17 55.43 C 62.32 55.83 62.62 56.65 62.77 57.05 C 64.45 57.67 66.25 57.88 68.02 58.13 C 67.34 56.25 67.46 54.19 66.62 52.35 C 64.61 51.94 62.56 51.57 60.50 51.46 M 44.22 52.30 C 44.77 52.84 44.77 52.84 44.22 52.30 M 83.23 54.24 C 83.83 54.83 83.83 54.83 83.23 54.24 M 72.31 67.69 C 73.77 68.16 75.27 68.67 76.83 68.62 C 78.64 64.72 78.39 59.21 74.06 57.12 C 71.04 59.46 72.18 64.29 72.31 67.69 M 80.00 58.01 C 81.34 60.28 83.78 61.35 86.21 62.06 C 84.52 60.18 82.37 58.83 80.00 58.01 M 86.21 62.06 C 86.37 65.38 89.16 60.50 86.21 62.06 M 72.34 69.06 C 72.38 72.55 75.11 67.49 72.34 69.06 M 77.24 80.45 C 76.41 81.17 76.37 83.67 77.80 83.53 C 78.62 82.81 78.66 80.31 77.24 80.45 Z" />
<path fill="#6e5335" opacity="1.00" d=" M 57.76 47.68 C 58.47 46.51 58.80 44.08 60.48 44.09 C 60.96 45.75 59.88 47.57 58.25 48.10 L 57.76 47.68 Z" />
<path fill="#6e5335" opacity="1.00" d=" M 45.41 46.09 C 46.71 47.22 47.18 51.11 44.57 49.44 C 44.48 49.07 44.30 48.31 44.22 47.93 C 44.52 47.47 45.11 46.55 45.41 46.09 Z" />
</g>
<g id="#f4ba71ff">
<path fill="#f4ba71" opacity="1.00" d=" M 70.00 26.98 C 75.75 27.38 80.76 24.05 86.03 22.31 C 85.50 25.20 84.66 28.01 83.83 30.82 C 83.59 31.31 83.11 32.30 82.87 32.80 C 80.47 35.34 78.82 38.68 75.87 40.64 C 74.07 40.31 72.38 39.34 70.52 39.51 C 70.19 42.36 70.62 45.74 67.75 47.45 C 64.74 47.06 61.68 47.56 59.08 49.16 C 58.87 48.89 58.46 48.37 58.25 48.10 C 59.88 47.57 60.96 45.75 60.48 44.09 C 58.80 44.08 58.47 46.51 57.76 47.68 C 53.64 48.31 49.88 46.66 46.11 45.29 C 45.93 45.49 45.59 45.89 45.41 46.09 C 45.11 46.55 44.52 47.47 44.22 47.93 C 45.68 41.12 41.63 34.84 41.72 28.07 C 46.62 27.88 51.57 28.45 56.43 27.54 C 60.91 26.73 65.48 26.71 70.00 26.98 Z" />
<path fill="#f4ba71" opacity="1.00" d=" M 70.81 48.31 C 70.97 45.71 70.10 40.34 74.13 40.77 C 74.24 42.40 74.23 44.03 74.25 45.66 C 73.42 46.83 72.49 47.91 71.41 48.85 L 70.81 48.31 Z" />
<path fill="#f4ba71" opacity="1.00" d=" M 33.34 41.50 C 34.16 43.34 35.00 45.19 35.33 47.19 C 34.75 47.18 33.60 47.16 33.02 47.15 C 32.99 45.26 33.17 43.38 33.34 41.50 Z" />
<path fill="#f4ba71" opacity="1.00" d=" M 32.02 48.00 C 32.80 47.96 34.36 47.87 35.15 47.83 C 35.20 50.01 34.92 52.19 34.29 54.28 C 33.06 58.42 32.85 62.76 32.04 66.98 C 31.67 71.00 32.36 75.05 32.13 79.08 L 31.24 78.86 C 30.11 74.00 30.68 69.00 30.22 64.08 C 29.94 60.22 29.59 56.16 31.25 52.53 C 32.12 52.32 33.01 52.14 33.77 51.63 C 32.03 51.19 31.85 49.53 32.02 48.00 Z" />
<path fill="#f4ba71" opacity="1.00" d=" M 69.80 50.97 C 70.10 50.78 70.70 50.40 71.00 50.22 C 71.65 52.38 71.73 54.61 70.78 56.69 C 69.56 58.74 70.55 61.06 70.75 63.23 C 70.98 66.21 69.99 69.06 69.58 71.98 C 69.39 74.72 69.85 77.46 69.79 80.21 C 68.00 74.61 68.87 68.76 69.10 63.04 C 66.97 63.58 66.77 66.81 65.10 68.23 C 63.35 65.67 63.69 62.05 63.06 59.03 C 64.53 58.97 66.02 58.91 67.47 59.23 C 67.78 60.33 68.27 61.35 68.92 62.27 C 68.99 58.49 69.24 54.71 69.80 50.97 Z" />
<path fill="#f4ba71" opacity="1.00" d=" M 60.50 51.46 C 62.56 51.57 64.61 51.94 66.62 52.35 C 67.46 54.19 67.34 56.25 68.02 58.13 C 66.25 57.88 64.45 57.67 62.77 57.05 C 62.62 56.65 62.32 55.83 62.17 55.43 C 63.39 55.26 64.62 55.09 65.85 54.93 L 65.78 54.15 C 63.59 53.56 61.35 53.16 59.15 52.56 C 59.49 52.29 60.17 51.74 60.50 51.46 Z" />
<path fill="#f4ba71" opacity="1.00" d=" M 44.22 52.30 C 44.77 52.84 44.77 52.84 44.22 52.30 Z" />
<path fill="#f4ba71" opacity="1.00" d=" M 72.31 67.69 C 72.18 64.29 71.04 59.46 74.06 57.12 C 78.39 59.21 78.64 64.72 76.83 68.62 C 75.27 68.67 73.77 68.16 72.31 67.69 Z" />
<path fill="#f4ba71" opacity="1.00" d=" M 51.30 91.07 C 52.54 91.33 53.78 91.62 55.01 91.93 L 56.07 92.35 C 53.86 93.79 51.04 93.65 48.65 92.47 C 49.31 92.12 50.64 91.42 51.30 91.07 Z" />
<path fill="#f4ba71" opacity="1.00" d=" M 68.73 96.60 C 69.05 96.21 69.69 95.44 70.02 95.06 C 71.88 95.09 73.76 95.07 75.61 95.35 C 76.05 95.82 76.92 96.77 77.36 97.25 C 74.61 95.90 71.56 97.53 68.73 96.60 Z" />
<path fill="#f4ba71" opacity="1.00" d=" M 77.36 97.25 C 77.46 97.28 77.67 97.35 77.78 97.39 C 77.67 97.35 77.46 97.28 77.36 97.25 Z" />
</g>
<g id="#c7995eff">
<path fill="#c7995e" opacity="1.00" d=" M 33.95 25.30 C 36.35 26.69 38.81 28.25 41.72 28.07 C 41.63 34.84 45.68 41.12 44.22 47.93 C 44.30 48.31 44.48 49.07 44.57 49.44 C 47.18 51.11 46.71 47.22 45.41 46.09 C 45.59 45.89 45.93 45.49 46.11 45.29 C 49.88 46.66 53.64 48.31 57.76 47.68 L 58.25 48.10 C 58.46 48.37 58.87 48.89 59.08 49.16 C 61.68 47.56 64.74 47.06 67.75 47.45 C 68.40 47.97 69.08 48.47 69.76 48.96 C 70.02 48.79 70.55 48.47 70.81 48.31 L 71.41 48.85 C 72.49 47.91 73.42 46.83 74.25 45.66 C 74.18 48.83 75.73 52.63 73.13 55.18 C 71.00 57.31 70.80 60.38 70.75 63.23 C 70.55 61.06 69.56 58.74 70.78 56.69 C 71.73 54.61 71.65 52.38 71.00 50.22 C 70.70 50.40 70.10 50.78 69.80 50.97 C 67.91 50.28 66.05 49.47 64.06 49.10 C 61.81 49.54 59.63 50.28 57.38 50.74 C 57.18 50.31 56.79 49.44 56.59 49.01 C 55.23 50.53 53.68 52.07 51.90 53.02 C 46.18 51.06 39.56 49.35 36.08 43.95 C 32.75 38.36 33.56 31.50 33.95 25.30 Z" />
<path fill="#c7995e" opacity="1.00" d=" M 53.24 64.27 C 56.08 62.23 58.46 59.55 61.59 57.95 C 61.86 61.05 62.06 64.28 61.43 67.32 C 58.41 69.85 54.59 71.63 50.82 72.80 C 50.62 70.15 51.49 67.61 52.20 65.10 C 52.46 64.89 52.98 64.48 53.24 64.27 Z" />
<path fill="#c7995e" opacity="1.00" d=" M 80.00 58.01 C 82.37 58.83 84.52 60.18 86.21 62.06 C 83.78 61.35 81.34 60.28 80.00 58.01 Z" />
<path fill="#c7995e" opacity="1.00" d=" M 86.21 62.06 C 89.16 60.50 86.37 65.38 86.21 62.06 Z" />
<path fill="#c7995e" opacity="1.00" d=" M 71.17 71.27 C 72.69 71.16 74.23 71.14 75.76 71.25 C 75.96 75.73 75.31 80.26 76.24 84.69 C 76.66 87.17 77.59 89.69 76.80 92.21 C 75.45 91.93 74.09 91.70 72.77 91.33 C 72.96 88.90 73.31 86.48 73.39 84.04 C 73.41 79.67 71.44 75.61 71.17 71.27 Z" />
<path fill="#c7995e" opacity="1.00" d=" M 77.24 80.45 C 78.66 80.31 78.62 82.81 77.80 83.53 C 76.37 83.67 76.41 81.17 77.24 80.45 Z" />
<path fill="#c7995e" opacity="1.00" d=" M 55.01 91.93 C 57.70 91.30 60.42 90.81 63.17 90.50 C 61.48 92.84 58.68 93.35 56.07 92.35 L 55.01 91.93 Z" />
</g>
</svg>
