<?xml version="1.0" encoding="UTF-8" ?>
<!DOCTYPE svg PUBLIC "-//W3C//DTD SVG 1.1//EN" "http://www.w3.org/Graphics/SVG/1.1/DTD/svg11.dtd">
<svg width="120pt" height="120pt" viewBox="0 0 120 120" version="1.1" xmlns="http://www.w3.org/2000/svg">
<g id="#2b2c29ff">
<path fill="#2b2c29" opacity="1.00" d=" M 57.84 42.40 C 70.52 37.85 87.44 56.83 84.24 69.07 C 83.86 67.41 83.44 65.75 83.03 64.10 C 82.16 57.09 77.64 51.08 72.05 46.99 C 68.10 43.59 62.78 43.09 57.84 42.40 Z" />
</g>
<g id="#061923ff">
<path fill="#061923" opacity="1.00" d=" M 52.42 43.33 C 52.23 40.86 56.51 41.14 57.84 42.40 C 56.48 42.63 53.77 43.10 52.42 43.33 Z" />
</g>
<g id="#e1ad7fff">
<path fill="#e1ad7f" opacity="1.00" d=" M 57.84 42.40 C 62.78 43.09 68.10 43.59 72.05 46.99 C 77.33 61.11 50.49 62.23 45.77 52.24 C 45.52 51.57 45.04 50.21 44.79 49.54 C 45.52 48.05 46.26 46.56 46.99 45.08 C 48.78 44.43 50.58 43.84 52.42 43.33 C 53.77 43.10 56.48 42.63 57.84 42.40 M 59.12 50.42 C 59.35 54.67 64.02 49.64 59.12 50.42 Z" />
</g>
<g id="#bf946dff">
<path fill="#bf946d" opacity="1.00" d=" M 34.92 59.01 C 35.04 52.55 43.41 45.24 46.99 45.08 C 46.26 46.56 45.52 48.05 44.79 49.54 C 43.06 50.26 43.93 52.87 45.77 52.24 C 50.49 62.23 77.33 61.11 72.05 46.99 C 77.64 51.08 82.16 57.09 83.03 64.10 C 76.73 65.95 71.06 62.54 64.96 61.83 C 54.90 62.70 44.97 59.26 34.97 61.09 C 34.96 60.57 34.93 59.53 34.92 59.01 Z" />
</g>
<g id="#372a21ff">
<path fill="#372a21" opacity="1.00" d=" M 45.77 52.24 C 43.93 52.87 43.06 50.26 44.79 49.54 C 45.04 50.21 45.52 51.57 45.77 52.24 Z" />
</g>
<g id="#624a38ff">
<path fill="#624a38" opacity="1.00" d=" M 59.12 50.42 C 64.02 49.64 59.35 54.67 59.12 50.42 Z" />
</g>
<g id="#2a2622ff">
<path fill="#2a2622" opacity="1.00" d=" M 37.11 66.86 C 32.88 67.01 32.66 59.99 34.92 59.01 C 34.93 59.53 34.96 60.57 34.97 61.09 C 34.79 63.29 34.94 65.71 37.70 65.63 C 44.65 58.23 56.13 65.41 64.96 61.83 C 68.91 64.47 73.18 67.92 78.32 66.31 C 81.04 65.45 79.27 68.72 79.41 70.17 C 81.05 69.96 82.66 69.55 84.24 69.07 C 84.60 72.88 78.95 69.42 78.09 72.06 C 77.54 74.36 75.03 75.58 72.90 76.07 C 75.32 73.99 76.59 71.12 74.75 68.17 C 68.32 64.75 70.85 69.65 70.62 72.18 C 67.54 68.21 61.68 71.47 57.57 70.28 C 49.24 67.56 53.60 70.65 55.05 72.30 L 54.20 72.45 C 52.35 70.64 50.51 68.68 47.75 68.47 C 41.87 64.67 40.59 72.08 45.00 75.11 L 45.04 76.03 C 39.87 74.52 42.74 67.16 37.11 66.86 M 44.73 65.11 C 46.66 67.66 50.21 67.99 53.18 68.00 C 51.57 65.15 47.69 64.55 44.73 65.11 M 58.25 65.09 C 54.24 69.35 63.28 69.59 66.06 67.85 C 64.49 65.15 61.71 63.47 58.25 65.09 Z" />
</g>
<g id="#87684cff">
<path fill="#87684c" opacity="1.00" d=" M 34.97 61.09 C 44.97 59.26 54.90 62.70 64.96 61.83 C 56.13 65.41 44.65 58.23 37.70 65.63 C 34.94 65.71 34.79 63.29 34.97 61.09 Z" />
</g>
<g id="#7d6146ff">
<path fill="#7d6146" opacity="1.00" d=" M 64.96 61.83 C 71.06 62.54 76.73 65.95 83.03 64.10 C 83.44 65.75 83.86 67.41 84.24 69.07 C 82.66 69.55 81.05 69.96 79.41 70.17 C 79.27 68.72 81.04 65.45 78.32 66.31 C 73.18 67.92 68.91 64.47 64.96 61.83 Z" />
</g>
<g id="#fc96a0ff">
<path fill="#fc96a0" opacity="1.00" d=" M 44.73 65.11 C 47.69 64.55 51.57 65.15 53.18 68.00 C 50.21 67.99 46.66 67.66 44.73 65.11 Z" />
</g>
<g id="#f498a2ff">
<path fill="#f498a2" opacity="1.00" d=" M 58.25 65.09 C 61.71 63.47 64.49 65.15 66.06 67.85 C 63.28 69.59 54.24 69.35 58.25 65.09 Z" />
</g>
<g id="#e5bf7dff">
<path fill="#e5bf7d" opacity="1.00" d=" M 45.00 75.11 C 40.59 72.08 41.87 64.67 47.75 68.47 C 45.62 72.23 50.05 73.77 52.24 75.90 C 49.82 75.68 47.41 75.42 45.00 75.11 Z" />
</g>
<g id="#dfb777ff">
<path fill="#dfb777" opacity="1.00" d=" M 70.62 72.18 C 70.85 69.65 68.32 64.75 74.75 68.17 C 76.59 71.12 75.32 73.99 72.90 76.07 C 70.21 76.12 67.53 76.16 64.85 76.18 C 60.86 74.02 64.72 73.58 68.19 73.16 C 68.80 72.91 70.01 72.42 70.62 72.18 Z" />
</g>
<g id="#594b32ff">
<path fill="#594b32" opacity="1.00" d=" M 52.24 75.90 C 50.05 73.77 45.62 72.23 47.75 68.47 C 48.15 71.87 50.95 74.04 54.20 72.45 L 55.05 72.30 C 55.39 72.43 56.07 72.68 56.42 72.81 L 55.87 73.54 C 51.76 77.03 57.21 76.44 59.29 74.24 C 59.75 74.36 60.68 74.62 61.14 74.74 C 57.35 78.49 48.40 78.05 45.04 76.03 L 45.00 75.11 C 47.41 75.42 49.82 75.68 52.24 75.90 Z" />
</g>
<g id="#e5c17eff">
<path fill="#e5c17e" opacity="1.00" d=" M 47.75 68.47 C 50.51 68.68 52.35 70.64 54.20 72.45 C 50.95 74.04 48.15 71.87 47.75 68.47 Z" />
</g>
<g id="#0101020d">
<path fill="#010102" opacity="0.05" d=" M 55.05 72.30 C 53.60 70.65 49.24 67.56 57.57 70.28 C 61.68 71.47 67.54 68.21 70.62 72.18 C 70.01 72.42 68.80 72.91 68.19 73.16 C 64.27 72.77 60.35 72.41 56.42 72.81 C 56.07 72.68 55.39 72.43 55.05 72.30 Z" />
</g>
<g id="#222623ff">
<path fill="#222623" opacity="1.00" d=" M 56.42 72.81 C 60.35 72.41 64.27 72.77 68.19 73.16 C 64.72 73.58 60.86 74.02 64.85 76.18 C 66.41 77.04 68.23 76.96 69.95 77.15 C 68.55 81.10 62.86 76.97 61.14 74.74 C 60.68 74.62 59.75 74.36 59.29 74.24 C 58.43 74.06 56.72 73.71 55.87 73.54 L 56.42 72.81 Z" />
</g>
<g id="#c8ad72ff">
<path fill="#c8ad72" opacity="1.00" d=" M 59.29 74.24 C 57.21 76.44 51.76 77.03 55.87 73.54 C 56.72 73.71 58.43 74.06 59.29 74.24 Z" />
</g>
<g id="#7f6742ff">
<path fill="#7f6742" opacity="1.00" d=" M 64.85 76.18 C 67.53 76.16 70.21 76.12 72.90 76.07 C 72.78 77.16 71.80 77.52 69.95 77.15 C 68.23 76.96 66.41 77.04 64.85 76.18 Z" />
</g>
</svg>
