<?xml version="1.0" encoding="UTF-8" ?>
<!DOCTYPE svg PUBLIC "-//W3C//DTD SVG 1.1//EN" "http://www.w3.org/Graphics/SVG/1.1/DTD/svg11.dtd">
<svg width="120pt" height="120pt" viewBox="0 0 120 120" version="1.1" xmlns="http://www.w3.org/2000/svg">
<g id="#574548ff">
<path fill="#574548" opacity="1.00" d=" M 71.81 26.50 C 73.10 24.32 75.45 22.52 77.92 22.03 C 77.27 25.21 76.64 28.40 75.76 31.53 C 75.19 32.91 74.66 34.31 74.10 35.69 C 75.44 37.35 76.69 39.07 78.06 40.71 C 78.06 41.68 78.06 42.64 78.06 43.60 C 77.77 43.91 77.19 44.51 76.91 44.81 C 76.19 44.97 74.76 45.28 74.05 45.43 C 74.68 47.68 75.13 50.04 76.41 52.03 C 79.44 52.98 82.41 51.26 85.34 50.71 C 87.19 51.53 89.06 52.31 90.96 53.00 C 91.88 50.35 92.57 47.58 94.01 45.14 C 94.26 47.77 92.19 50.42 93.80 52.85 C 93.41 52.92 92.64 53.08 92.26 53.16 C 91.16 53.78 90.09 54.44 89.02 55.09 C 90.61 56.21 92.17 57.37 93.71 58.56 C 94.83 58.56 95.96 58.56 97.09 58.56 C 96.98 58.06 96.77 57.04 96.66 56.54 L 98.15 55.88 C 98.49 58.20 97.17 59.82 95.00 60.45 C 95.17 65.88 94.69 71.24 93.85 76.59 C 93.06 77.79 92.49 79.21 91.30 80.09 C 90.13 80.66 88.94 81.21 87.72 81.69 C 87.64 81.59 87.48 81.39 87.41 81.29 C 92.83 79.66 93.53 73.37 93.83 68.57 C 93.92 66.01 94.07 63.46 94.25 60.90 C 91.03 58.79 87.73 56.67 85.40 53.54 C 84.53 54.10 83.66 54.66 82.80 55.22 C 82.39 55.49 81.57 56.02 81.16 56.29 C 81.11 58.01 81.07 59.73 81.01 61.45 C 79.07 62.92 77.27 64.56 75.45 66.17 C 76.03 64.44 76.81 62.77 77.82 61.25 C 78.39 61.14 79.53 60.91 80.09 60.80 C 80.78 56.25 75.44 55.34 74.22 51.66 C 73.67 50.33 73.27 48.95 72.90 47.56 C 72.74 46.86 72.41 45.45 72.25 44.75 C 73.90 44.17 75.57 43.61 77.22 43.02 C 75.91 40.68 74.41 38.43 73.30 35.98 C 74.45 31.63 76.17 27.43 76.98 22.97 C 75.29 24.20 73.56 25.37 71.81 26.50 Z" />
<path fill="#574548" opacity="1.00" d=" M 68.85 32.70 C 70.75 30.23 72.63 27.65 75.23 25.86 C 73.58 28.37 70.31 30.37 71.48 33.79 C 70.60 33.43 69.72 33.06 68.85 32.70 Z" />
<path fill="#574548" opacity="1.00" d=" M 60.45 45.72 C 62.27 42.56 65.51 40.77 68.29 38.59 C 67.57 39.95 66.29 41.23 66.83 42.90 C 65.61 41.23 63.50 43.10 64.05 44.73 L 64.11 45.69 C 63.19 45.70 61.36 45.71 60.45 45.72 Z" />
<path fill="#574548" opacity="1.00" d=" M 61.69 53.36 C 62.87 51.48 64.06 49.60 65.43 47.85 C 66.52 49.23 67.63 50.61 68.76 51.95 C 71.28 54.77 73.34 57.94 75.24 61.20 C 74.79 61.05 73.89 60.75 73.44 60.60 C 72.99 60.42 72.09 60.05 71.64 59.87 C 72.03 57.66 70.93 55.49 68.83 54.63 L 68.60 54.49 C 68.62 54.56 68.65 54.71 68.66 54.78 L 68.83 54.63 C 68.87 56.58 69.92 58.26 71.15 59.70 C 71.57 61.54 71.95 63.38 72.25 65.24 L 70.71 65.22 C 68.46 65.20 66.23 64.98 64.02 64.59 C 60.43 65.68 60.56 69.37 61.01 72.47 L 61.74 73.63 C 63.57 75.81 66.27 76.89 68.61 78.41 C 69.05 78.46 69.93 78.57 70.38 78.62 C 70.75 78.03 71.51 76.84 71.89 76.25 C 71.97 77.28 72.14 79.36 72.23 80.40 C 67.08 80.62 63.84 75.61 58.65 75.85 C 60.04 80.54 63.60 83.86 67.23 86.88 L 66.81 87.87 C 62.64 85.29 59.47 81.61 57.61 77.06 C 56.02 77.34 54.48 77.79 52.91 78.11 C 54.27 80.19 55.16 82.51 55.18 85.03 L 53.91 84.83 L 53.98 84.09 C 53.54 82.34 52.86 80.66 52.19 78.98 C 50.42 79.74 48.64 80.48 46.87 81.23 C 46.04 79.91 45.20 78.60 44.33 77.31 C 43.68 79.57 44.94 81.43 46.24 83.14 C 47.53 84.98 48.48 87.03 49.21 89.16 C 49.00 89.34 48.59 89.71 48.38 89.89 C 47.42 88.94 47.13 87.63 46.79 86.38 C 45.61 84.74 44.45 83.08 43.23 81.47 C 43.15 79.94 43.05 78.41 42.89 76.88 C 43.39 76.53 44.38 75.83 44.87 75.48 C 45.31 76.03 46.19 77.12 46.63 77.66 C 46.91 78.03 47.45 78.76 47.73 79.12 C 52.18 78.17 56.33 76.23 60.64 74.83 C 60.21 72.36 59.84 69.87 59.33 67.42 C 59.73 66.60 60.14 65.79 60.56 64.99 L 61.12 64.90 C 59.90 63.86 58.69 62.81 57.44 61.81 C 61.68 61.81 65.91 61.59 70.14 61.45 C 68.94 59.05 67.73 56.64 66.53 54.24 C 63.51 54.71 60.47 55.01 57.42 55.16 C 56.65 53.94 55.89 52.72 55.05 51.55 C 54.61 51.31 53.74 50.82 53.30 50.58 C 53.83 50.34 54.89 49.86 55.41 49.63 L 55.75 49.53 C 56.79 51.03 57.80 52.55 58.80 54.09 C 59.76 53.84 60.72 53.60 61.69 53.36 Z" />
<path fill="#574548" opacity="1.00" d=" M 37.11 95.59 C 37.31 95.35 37.72 94.88 37.93 94.65 C 39.60 94.74 41.28 94.76 42.96 94.76 C 42.79 95.17 42.44 95.99 42.26 96.39 C 40.59 96.46 38.80 95.81 37.11 95.59 Z" />
</g>
<g id="#333629f6">
<path fill="#333629" opacity="0.96" d=" M 52.19 23.09 C 54.42 23.90 56.20 25.52 57.95 27.06 C 57.81 27.30 57.53 27.80 57.39 28.05 C 55.47 26.80 53.60 25.45 51.62 24.29 C 52.18 25.41 52.74 26.53 53.31 27.65 C 53.28 28.44 53.27 29.22 53.26 30.01 C 53.21 31.08 53.56 33.13 55.02 32.91 C 55.32 32.73 55.93 32.36 56.23 32.18 L 57.29 31.88 C 55.82 33.66 54.38 35.47 53.12 37.40 C 53.03 37.92 52.86 38.96 52.77 39.48 C 52.39 40.96 52.07 42.46 51.76 43.95 C 52.89 44.26 54.03 44.55 55.17 44.83 L 55.89 45.05 L 56.56 44.37 C 56.29 44.10 55.74 43.58 55.46 43.31 C 55.24 42.86 54.79 41.94 54.57 41.48 C 54.40 40.80 54.06 39.42 53.89 38.74 C 56.82 41.87 58.18 45.90 58.12 50.18 C 57.57 48.85 57.02 47.53 56.42 46.23 C 56.17 47.32 55.95 48.42 55.75 49.53 L 55.41 49.63 C 55.03 47.32 53.35 45.71 51.45 44.53 C 51.05 43.16 50.98 41.72 50.63 40.34 C 46.41 40.76 41.52 40.55 38.40 43.95 C 42.06 47.19 46.14 49.89 50.00 52.87 C 51.09 52.09 52.18 51.31 53.30 50.58 C 51.56 53.68 49.66 56.67 47.99 59.81 C 47.29 62.19 47.27 64.69 46.91 67.13 C 47.44 68.68 47.97 70.22 48.46 71.78 L 48.32 72.75 C 46.55 70.24 44.32 67.35 45.08 64.07 C 46.50 60.58 48.42 57.32 50.12 53.96 C 49.29 53.97 47.63 54.01 46.80 54.02 C 46.73 52.09 45.03 50.99 43.20 51.30 C 43.15 48.20 39.63 47.40 37.71 45.62 C 37.93 43.23 39.79 41.65 41.34 40.04 C 43.77 40.01 46.36 40.38 48.61 39.23 C 49.68 39.13 50.76 39.04 51.84 38.96 C 52.88 36.58 53.67 33.86 52.31 31.42 C 52.12 30.47 51.92 29.53 51.73 28.58 C 50.88 26.83 50.36 24.42 52.19 23.09 Z" />
</g>
<g id="#fffb4eff">
<path fill="#fffb4e" opacity="1.00" d=" M 71.81 26.50 C 73.56 25.37 75.29 24.20 76.98 22.97 C 76.17 27.43 74.45 31.63 73.30 35.98 C 74.41 38.43 75.91 40.68 77.22 43.02 C 75.57 43.61 73.90 44.17 72.25 44.75 C 69.88 45.56 67.58 46.57 65.43 47.85 C 64.06 49.60 62.87 51.48 61.69 53.36 C 60.72 53.60 59.76 53.84 58.80 54.09 C 57.80 52.55 56.79 51.03 55.75 49.53 C 55.95 48.42 56.17 47.32 56.42 46.23 C 57.02 47.53 57.57 48.85 58.12 50.18 C 58.18 45.90 56.82 41.87 53.89 38.74 C 54.06 39.42 54.40 40.80 54.57 41.48 C 54.79 41.94 55.24 42.86 55.46 43.31 C 55.39 43.69 55.24 44.45 55.17 44.83 C 54.03 44.55 52.89 44.26 51.76 43.95 C 52.07 42.46 52.39 40.96 52.77 39.48 C 52.86 38.96 53.03 37.92 53.12 37.40 C 54.38 35.47 55.82 33.66 57.29 31.88 L 56.23 32.18 C 55.81 31.17 55.30 30.19 54.72 29.26 C 54.35 29.44 53.62 29.82 53.26 30.01 C 53.27 29.22 53.28 28.44 53.31 27.65 C 52.74 26.53 52.18 25.41 51.62 24.29 C 53.60 25.45 55.47 26.80 57.39 28.05 C 57.56 28.33 57.91 28.89 58.08 29.17 L 57.72 29.67 C 60.36 31.35 63.52 31.06 66.50 31.02 C 68.10 29.56 69.75 28.17 71.42 26.79 C 71.52 26.72 71.71 26.58 71.81 26.50 M 68.85 32.70 C 69.72 33.06 70.60 33.43 71.48 33.79 C 70.31 30.37 73.58 28.37 75.23 25.86 C 72.63 27.65 70.75 30.23 68.85 32.70 M 59.28 37.08 L 58.99 37.72 C 58.81 38.13 58.46 38.95 58.28 39.36 L 57.42 39.24 L 56.84 39.97 C 57.13 40.20 57.71 40.65 58.00 40.88 L 57.69 42.03 C 58.31 42.06 59.54 42.11 60.16 42.14 C 60.28 42.14 60.51 42.16 60.63 42.16 C 60.97 41.49 61.66 40.14 62.01 39.47 C 62.06 39.36 62.17 39.15 62.23 39.04 L 60.96 38.85 C 61.38 37.37 60.82 36.78 59.28 37.08 M 60.45 45.72 C 61.36 45.71 63.19 45.70 64.11 45.69 L 64.05 44.73 C 65.17 45.70 67.28 44.32 66.83 42.90 C 66.29 41.23 67.57 39.95 68.29 38.59 C 65.51 40.77 62.27 42.56 60.45 45.72 M 60.27 47.31 C 59.58 48.13 59.32 50.70 60.75 50.71 C 61.42 49.89 61.69 47.34 60.27 47.31 Z" />
</g>
<g id="#1a2820e1">
<path fill="#1a2820" opacity="0.88" d=" M 66.61 29.93 C 67.95 28.51 69.25 26.76 71.42 26.79 C 69.75 28.17 68.10 29.56 66.50 31.02 C 63.52 31.06 60.36 31.35 57.72 29.67 L 58.08 29.17 C 58.30 28.99 58.73 28.62 58.95 28.43 C 60.78 30.94 64.03 29.74 66.61 29.93 Z" />
</g>
<g id="#c8af3cff">
<path fill="#c8af3c" opacity="1.00" d=" M 53.26 30.01 C 53.62 29.82 54.35 29.44 54.72 29.26 C 55.30 30.19 55.81 31.17 56.23 32.18 C 55.93 32.36 55.32 32.73 55.02 32.91 C 53.56 33.13 53.21 31.08 53.26 30.01 Z" />
</g>
<g id="#2e362df9">
<path fill="#2e362d" opacity="0.98" d=" M 25.42 31.26 C 26.14 29.52 28.31 30.19 29.78 29.81 C 30.78 31.75 32.33 33.63 32.07 35.95 C 32.49 38.66 30.39 40.63 29.18 42.79 C 29.64 44.70 30.02 46.62 30.21 48.57 C 31.02 49.36 31.65 50.26 32.10 51.26 L 31.54 51.49 C 30.96 51.04 29.80 50.13 29.21 49.68 C 29.27 48.24 29.33 46.81 29.38 45.37 L 27.86 45.37 C 27.88 47.21 27.86 49.06 27.97 50.90 L 28.07 52.25 C 26.52 51.91 24.96 51.60 23.40 51.34 C 24.29 52.24 25.21 53.10 26.15 53.94 C 26.42 54.46 26.96 55.49 27.23 56.01 L 26.48 56.33 C 25.87 56.59 24.65 57.11 24.04 57.37 C 24.21 57.71 24.54 58.37 24.71 58.70 C 24.85 59.01 25.14 59.62 25.29 59.92 L 25.31 60.80 L 25.33 61.95 L 24.02 61.99 C 24.02 61.32 24.01 59.99 24.01 59.32 C 23.48 59.15 22.43 58.80 21.91 58.62 C 22.07 56.62 24.33 55.92 25.48 54.53 C 23.46 54.36 22.42 53.28 23.08 51.31 C 23.98 50.60 24.96 50.00 26.02 49.52 C 26.36 46.17 26.00 42.81 24.00 40.00 C 21.76 37.16 23.87 33.84 25.42 31.26 M 26.38 31.03 C 26.03 31.72 25.31 33.10 24.95 33.79 C 25.04 34.13 25.22 34.80 25.31 35.13 L 24.05 34.95 C 23.97 38.36 26.43 41.11 27.56 44.20 C 28.76 41.46 30.56 39.02 31.54 36.17 C 30.75 34.43 29.96 32.69 29.11 30.97 C 28.43 30.99 27.07 31.01 26.38 31.03 Z" />
</g>
<g id="#ceccbbff">
<path fill="#ceccbb" opacity="1.00" d=" M 26.38 31.03 C 27.07 31.01 28.43 30.99 29.11 30.97 C 29.96 32.69 30.75 34.43 31.54 36.17 C 30.11 36.63 28.69 37.18 27.22 37.49 C 26.52 36.76 25.92 35.94 25.31 35.13 C 25.22 34.80 25.04 34.13 24.95 33.79 C 25.31 33.10 26.03 31.72 26.38 31.03 Z" />
<path fill="#ceccbb" opacity="1.00" d=" M 92.96 35.08 C 93.45 34.99 94.44 34.81 94.93 34.71 L 95.52 35.34 C 95.41 37.20 92.22 37.10 92.96 35.08 Z" />
<path fill="#ceccbb" opacity="1.00" d=" M 55.46 43.31 C 55.74 43.58 56.29 44.10 56.56 44.37 L 55.89 45.05 L 55.17 44.83 C 55.24 44.45 55.39 43.69 55.46 43.31 Z" />
<path fill="#ceccbb" opacity="1.00" d=" M 34.81 95.61 C 34.72 94.33 35.32 93.65 36.59 93.56 C 36.93 93.84 37.59 94.38 37.93 94.65 C 37.72 94.88 37.31 95.35 37.11 95.59 C 36.53 95.59 35.38 95.60 34.81 95.61 Z" />
<path fill="#ceccbb" opacity="1.00" d=" M 42.96 94.76 C 43.44 94.81 44.39 94.90 44.86 94.94 L 45.10 95.78 C 44.44 97.16 43.49 97.37 42.26 96.39 C 42.44 95.99 42.79 95.17 42.96 94.76 Z" />
</g>
<g id="#424229f8">
<path fill="#424229" opacity="0.97" d=" M 85.26 31.94 C 87.72 33.49 88.88 36.29 89.28 39.06 C 89.94 39.06 91.26 39.07 91.93 39.08 C 91.78 36.68 92.11 34.35 94.71 33.57 L 94.93 34.71 C 94.44 34.81 93.45 34.99 92.96 35.08 C 92.22 37.10 95.41 37.20 95.52 35.34 C 96.21 37.84 96.02 40.45 96.01 43.01 L 94.69 43.06 C 94.93 41.15 95.13 39.24 95.33 37.34 L 93.66 37.19 C 93.55 40.36 93.15 43.81 90.66 46.10 C 87.57 46.07 88.44 42.64 88.26 40.60 C 88.52 37.93 86.89 35.77 85.40 33.76 C 86.54 38.08 88.30 42.91 85.72 47.09 L 84.89 47.17 C 85.44 44.71 85.93 42.25 86.36 39.77 C 84.32 39.41 82.25 39.12 80.16 39.15 L 79.97 38.03 C 81.74 38.06 83.50 38.08 85.27 38.10 C 84.57 36.11 83.06 33.59 85.26 31.94 M 90.51 40.40 C 89.61 41.19 88.83 42.76 89.60 43.88 C 91.66 44.90 93.07 39.51 90.51 40.40 Z" />
</g>
<g id="#ffea48ff">
<path fill="#ffea48" opacity="1.00" d=" M 85.40 33.76 C 86.89 35.77 88.52 37.93 88.26 40.60 C 88.44 42.64 87.57 46.07 90.66 46.10 C 93.15 43.81 93.55 40.36 93.66 37.19 L 95.33 37.34 C 95.13 39.24 94.93 41.15 94.69 43.06 C 94.65 43.36 94.57 43.96 94.53 44.27 L 94.01 45.14 C 92.57 47.58 91.88 50.35 90.96 53.00 C 89.06 52.31 87.19 51.53 85.34 50.71 C 82.93 49.02 80.26 47.48 78.66 44.92 L 78.70 44.09 C 79.12 44.41 79.96 45.06 80.37 45.39 C 80.74 45.59 81.47 45.99 81.84 46.19 C 82.85 46.55 83.86 46.87 84.89 47.17 L 85.72 47.09 C 88.30 42.91 86.54 38.08 85.40 33.76 Z" />
</g>
<g id="#89887bff">
<path fill="#89887b" opacity="1.00" d=" M 25.31 35.13 C 25.92 35.94 26.52 36.76 27.22 37.49 C 28.69 37.18 30.11 36.63 31.54 36.17 C 30.56 39.02 28.76 41.46 27.56 44.20 C 26.43 41.11 23.97 38.36 24.05 34.95 L 25.31 35.13 Z" />
</g>
<g id="#be9a2eff">
<path fill="#be9a2e" opacity="1.00" d=" M 59.28 37.08 C 60.82 36.78 61.38 37.37 60.96 38.85 C 60.47 38.57 59.48 38.00 58.99 37.72 L 59.28 37.08 Z" />
</g>
<g id="#fcc7adff">
<path fill="#fcc7ad" opacity="1.00" d=" M 58.99 37.72 C 59.48 38.00 60.47 38.57 60.96 38.85 L 62.23 39.04 L 62.01 39.47 C 61.66 40.14 60.97 41.49 60.63 42.16 L 60.16 42.14 C 59.54 42.11 58.31 42.06 57.69 42.03 L 58.00 40.88 C 58.07 40.50 58.21 39.74 58.28 39.36 C 58.46 38.95 58.81 38.13 58.99 37.72 Z" />
</g>
<g id="#c5a035ff">
<path fill="#c5a035" opacity="1.00" d=" M 57.42 39.24 L 58.28 39.36 C 58.21 39.74 58.07 40.50 58.00 40.88 C 57.71 40.65 57.13 40.20 56.84 39.97 L 57.42 39.24 Z" />
</g>
<g id="#ad910fff">
<path fill="#ad910f" opacity="1.00" d=" M 62.23 39.04 C 62.17 39.15 62.06 39.36 62.01 39.47 L 62.23 39.04 Z" />
</g>
<g id="#93776bff">
<path fill="#93776b" opacity="1.00" d=" M 80.16 39.15 C 82.25 39.12 84.32 39.41 86.36 39.77 C 85.93 42.25 85.44 44.71 84.89 47.17 C 83.86 46.87 82.85 46.55 81.84 46.19 C 81.80 45.77 81.71 44.92 81.67 44.50 C 81.35 44.72 80.70 45.17 80.37 45.39 C 79.96 45.06 79.12 44.41 78.70 44.09 L 78.06 43.60 C 78.06 42.64 78.06 41.68 78.06 40.71 L 78.06 39.23 C 78.59 39.21 79.64 39.17 80.16 39.15 Z" />
</g>
<g id="#917669ff">
<path fill="#917669" opacity="1.00" d=" M 38.40 43.95 C 41.52 40.55 46.41 40.76 50.63 40.34 C 50.98 41.72 51.05 43.16 51.45 44.53 C 53.35 45.71 55.03 47.32 55.41 49.63 C 54.89 49.86 53.83 50.34 53.30 50.58 C 52.18 51.31 51.09 52.09 50.00 52.87 C 46.14 49.89 42.06 47.19 38.40 43.95 Z" />
</g>
<g id="#94786bff">
<path fill="#94786b" opacity="1.00" d=" M 90.51 40.40 C 93.07 39.51 91.66 44.90 89.60 43.88 C 88.83 42.76 89.61 41.19 90.51 40.40 Z" />
</g>
<g id="#b29710ff">
<path fill="#b29710" opacity="1.00" d=" M 60.16 42.14 L 60.63 42.16 C 60.51 42.16 60.28 42.14 60.16 42.14 Z" />
</g>
<g id="#f9f8efff">
<path fill="#f9f8ef" opacity="1.00" d=" M 64.05 44.73 C 63.50 43.10 65.61 41.23 66.83 42.90 C 67.28 44.32 65.17 45.70 64.05 44.73 Z" />
</g>
<g id="#f7f6e7ff">
<path fill="#f7f6e7" opacity="1.00" d=" M 76.91 44.81 C 77.19 44.51 77.77 43.91 78.06 43.60 L 78.70 44.09 L 78.66 44.92 C 78.22 44.90 77.35 44.84 76.91 44.81 Z" />
</g>
<g id="#544c27ff">
<path fill="#544c27" opacity="1.00" d=" M 80.37 45.39 C 80.70 45.17 81.35 44.72 81.67 44.50 C 81.71 44.92 81.80 45.77 81.84 46.19 C 81.47 45.99 80.74 45.59 80.37 45.39 Z" />
</g>
<g id="#685356ff">
<path fill="#685356" opacity="1.00" d=" M 65.43 47.85 C 67.58 46.57 69.88 45.56 72.25 44.75 C 72.41 45.45 72.74 46.86 72.90 47.56 C 71.52 49.02 70.14 50.49 68.76 51.95 C 67.63 50.61 66.52 49.23 65.43 47.85 Z" />
</g>
<g id="#896f63ff">
<path fill="#896f63" opacity="1.00" d=" M 74.05 45.43 C 74.76 45.28 76.19 44.97 76.91 44.81 C 77.35 44.84 78.22 44.90 78.66 44.92 C 80.26 47.48 82.93 49.02 85.34 50.71 C 82.41 51.26 79.44 52.98 76.41 52.03 C 75.13 50.04 74.68 47.68 74.05 45.43 Z" />
</g>
<g id="#decb40ff">
<path fill="#decb40" opacity="1.00" d=" M 27.86 45.37 L 29.38 45.37 C 29.33 46.81 29.27 48.24 29.21 49.68 C 29.80 50.13 30.96 51.04 31.54 51.49 C 30.28 52.02 28.99 51.81 27.97 50.90 C 27.86 49.06 27.88 47.21 27.86 45.37 Z" />
</g>
<g id="#716a1cff">
<path fill="#716a1c" opacity="1.00" d=" M 60.27 47.31 C 61.69 47.34 61.42 49.89 60.75 50.71 C 59.32 50.70 59.58 48.13 60.27 47.31 Z" />
</g>
<g id="#8e7367ff">
<path fill="#8e7367" opacity="1.00" d=" M 68.76 51.95 C 70.14 50.49 71.52 49.02 72.90 47.56 C 73.27 48.95 73.67 50.33 74.22 51.66 C 75.44 55.34 80.78 56.25 80.09 60.80 C 79.53 60.91 78.39 61.14 77.82 61.25 C 77.18 61.23 75.88 61.21 75.24 61.20 C 73.34 57.94 71.28 54.77 68.76 51.95 Z" />
</g>
<g id="#5b5322ff">
<path fill="#5b5322" opacity="1.00" d=" M 27.97 50.90 C 28.99 51.81 30.28 52.02 31.54 51.49 L 32.10 51.26 L 32.62 51.04 C 32.78 51.42 33.09 52.19 33.25 52.57 C 33.45 53.06 33.86 54.03 34.06 54.52 C 33.91 55.94 33.71 57.36 33.50 58.78 C 35.56 60.15 37.52 62.05 40.16 62.05 C 39.68 60.56 38.92 59.18 38.00 57.92 C 38.35 58.20 39.05 58.77 39.40 59.06 C 42.32 58.90 43.83 55.85 46.28 54.63 C 44.02 57.43 41.72 60.21 39.66 63.18 C 36.27 63.55 34.45 60.44 31.72 59.14 C 29.90 58.75 28.02 60.26 27.53 61.97 C 26.98 61.97 25.88 61.95 25.33 61.95 L 25.31 60.80 C 27.15 62.52 27.46 58.95 25.29 59.92 C 25.14 59.62 24.85 59.01 24.71 58.70 C 27.97 58.60 31.05 57.40 33.59 55.37 C 31.45 55.19 29.19 54.93 27.23 56.01 C 26.96 55.49 26.42 54.46 26.15 53.94 C 27.98 53.96 29.81 53.86 31.64 53.75 C 30.45 53.24 29.26 52.75 28.07 52.25 L 27.97 50.90 Z" />
</g>
<g id="#8e7467ff">
<path fill="#8e7467" opacity="1.00" d=" M 43.20 51.30 C 45.03 50.99 46.73 52.09 46.80 54.02 L 46.42 54.21 C 45.13 53.68 43.65 52.95 42.97 51.67 L 43.20 51.30 Z" />
</g>
<g id="#f5de45ff">
<path fill="#f5de45" opacity="1.00" d=" M 53.30 50.58 C 53.74 50.82 54.61 51.31 55.05 51.55 C 53.99 52.82 52.92 54.08 52.05 55.49 C 51.37 57.76 50.87 60.07 50.33 62.38 L 49.80 61.79 L 49.27 61.18 C 48.95 60.84 48.31 60.15 47.99 59.81 C 49.66 56.67 51.56 53.68 53.30 50.58 Z" />
<path fill="#f5de45" opacity="1.00" d=" M 64.02 64.59 C 66.23 64.98 68.46 65.20 70.71 65.22 C 71.11 66.50 71.52 67.78 71.94 69.05 C 71.21 71.42 70.94 73.90 71.89 76.25 C 71.51 76.84 70.75 78.03 70.38 78.62 C 69.93 78.57 69.05 78.46 68.61 78.41 C 66.27 76.89 63.57 75.81 61.74 73.63 C 63.03 73.85 65.96 76.55 65.88 73.87 C 65.86 73.39 65.82 72.45 65.80 71.98 C 66.12 71.87 66.76 71.65 67.07 71.54 L 67.23 72.22 L 67.33 72.70 C 67.46 73.21 67.71 74.24 67.83 74.75 L 68.21 74.55 L 68.42 74.44 L 68.46 74.24 C 68.61 73.40 68.90 71.73 69.04 70.89 C 69.04 70.41 69.02 69.47 69.02 68.99 C 68.95 68.39 68.82 67.17 68.75 66.57 L 67.93 66.80 C 67.61 66.88 66.96 67.05 66.64 67.14 C 65.31 67.42 63.97 67.67 62.65 68.01 L 62.04 69.05 C 61.94 69.47 61.75 70.32 61.65 70.75 C 61.67 71.47 61.72 72.91 61.74 73.63 L 61.01 72.47 C 60.56 69.37 60.43 65.68 64.02 64.59 Z" />
<path fill="#f5de45" opacity="1.00" d=" M 76.12 77.90 C 77.07 78.59 77.98 79.32 78.90 80.04 C 78.47 81.06 78.05 82.09 77.66 83.12 C 76.52 82.55 75.36 82.04 74.20 81.52 C 74.84 80.31 75.48 79.11 76.12 77.90 Z" />
</g>
<g id="#d2c83eff">
<path fill="#d2c83e" opacity="1.00" d=" M 23.40 51.34 C 24.96 51.60 26.52 51.91 28.07 52.25 C 29.26 52.75 30.45 53.24 31.64 53.75 C 29.81 53.86 27.98 53.96 26.15 53.94 C 25.21 53.10 24.29 52.24 23.40 51.34 Z" />
</g>
<g id="#181e1fee">
<path fill="#181e1f" opacity="0.93" d=" M 52.05 55.49 C 52.92 54.08 53.99 52.82 55.05 51.55 C 55.15 54.65 55.14 57.76 55.12 60.86 C 55.89 61.18 56.67 61.49 57.44 61.81 C 58.69 62.81 59.90 63.86 61.12 64.90 L 60.56 64.99 C 59.91 65.06 58.62 65.21 57.97 65.28 C 58.20 66.42 58.43 67.55 58.66 68.69 C 56.90 69.63 55.15 70.59 53.44 71.61 C 54.14 70.18 55.37 69.23 56.77 68.55 C 57.04 67.04 57.35 65.55 57.77 64.08 C 56.52 63.32 55.26 62.57 54.00 61.80 C 53.55 59.67 55.28 55.93 52.05 55.49 Z" />
</g>
<g id="#907569ff">
<path fill="#907569" opacity="1.00" d=" M 55.05 51.55 C 55.89 52.72 56.65 53.94 57.42 55.16 C 60.47 55.01 63.51 54.71 66.53 54.24 C 67.73 56.64 68.94 59.05 70.14 61.45 C 65.91 61.59 61.68 61.81 57.44 61.81 C 56.67 61.49 55.89 61.18 55.12 60.86 C 55.14 57.76 55.15 54.65 55.05 51.55 Z" />
</g>
<g id="#1c251ddf">
<path fill="#1c251d" opacity="0.87" d=" M 33.25 52.57 C 35.53 53.69 37.11 55.73 39.13 57.21 C 40.34 56.02 41.39 54.66 42.51 53.38 C 41.81 55.44 40.53 57.22 39.40 59.06 C 39.05 58.77 38.35 58.20 38.00 57.92 C 36.69 56.79 35.34 55.69 34.06 54.52 C 33.86 54.03 33.45 53.06 33.25 52.57 Z" />
</g>
<g id="#fef74cff">
<path fill="#fef74c" opacity="1.00" d=" M 42.87 52.35 C 43.99 53.14 45.13 53.90 46.28 54.63 C 43.83 55.85 42.32 58.90 39.40 59.06 C 40.53 57.22 41.81 55.44 42.51 53.38 C 42.60 53.12 42.78 52.60 42.87 52.35 Z" />
</g>
<g id="#856c58ff">
<path fill="#856c58" opacity="1.00" d=" M 82.80 55.22 C 83.66 54.66 84.53 54.10 85.40 53.54 C 87.73 56.67 91.03 58.79 94.25 60.90 C 94.07 63.46 93.92 66.01 93.83 68.57 C 92.35 64.66 90.61 60.70 87.33 57.95 C 85.85 56.98 84.32 56.11 82.80 55.22 Z" />
</g>
<g id="#fee747ff">
<path fill="#fee747" opacity="1.00" d=" M 89.02 55.09 C 90.09 54.44 91.16 53.78 92.26 53.16 C 92.43 53.67 92.77 54.69 92.94 55.20 C 93.33 55.22 94.12 55.25 94.51 55.26 C 94.99 55.27 95.93 55.28 96.40 55.29 L 96.66 56.54 C 96.77 57.04 96.98 58.06 97.09 58.56 C 95.96 58.56 94.83 58.56 93.71 58.56 C 92.17 57.37 90.61 56.21 89.02 55.09 Z" />
<path fill="#fee747" opacity="1.00" d=" M 27.23 56.01 C 29.19 54.93 31.45 55.19 33.59 55.37 C 31.05 57.40 27.97 58.60 24.71 58.70 C 24.54 58.37 24.21 57.71 24.04 57.37 C 24.65 57.11 25.87 56.59 26.48 56.33 L 27.23 56.01 Z" />
<path fill="#fee747" opacity="1.00" d=" M 44.33 77.31 C 45.20 78.60 46.04 79.91 46.87 81.23 C 48.64 80.48 50.42 79.74 52.19 78.98 C 52.86 80.66 53.54 82.34 53.98 84.09 C 51.39 83.83 48.81 83.52 46.24 83.14 C 44.94 81.43 43.68 79.57 44.33 77.31 Z" />
</g>
<g id="#bba341ff">
<path fill="#bba341" opacity="1.00" d=" M 92.26 53.16 C 92.64 53.08 93.41 52.92 93.80 52.85 C 94.07 53.26 94.61 54.09 94.89 54.51 L 94.51 55.26 C 94.12 55.25 93.33 55.22 92.94 55.20 C 92.77 54.69 92.43 53.67 92.26 53.16 Z" />
<path fill="#bba341" opacity="1.00" d=" M 67.23 86.88 C 63.60 83.86 60.04 80.54 58.65 75.85 C 63.98 81.06 70.83 84.86 78.45 84.88 C 78.95 85.95 79.45 87.02 79.96 88.09 C 75.68 88.18 71.43 87.65 67.23 86.88 Z" />
<path fill="#bba341" opacity="1.00" d=" M 82.19 91.91 C 81.55 88.36 80.21 84.99 78.56 81.80 C 80.82 83.60 83.48 83.58 86.08 82.68 C 85.67 84.60 85.12 86.50 84.69 88.42 C 83.83 89.56 82.97 90.70 82.19 91.91 Z" />
</g>
<g id="#ffef4aff">
<path fill="#ffef4a" opacity="1.00" d=" M 68.66 54.78 C 68.65 54.71 68.62 54.56 68.60 54.49 L 68.83 54.63 L 68.66 54.78 Z" />
</g>
<g id="#c3aa43ff">
<path fill="#c3aa43" opacity="1.00" d=" M 34.06 54.52 C 35.34 55.69 36.69 56.79 38.00 57.92 C 38.92 59.18 39.68 60.56 40.16 62.05 C 37.52 62.05 35.56 60.15 33.50 58.78 C 33.71 57.36 33.91 55.94 34.06 54.52 Z" />
</g>
<g id="#f8ec4cff">
<path fill="#f8ec4c" opacity="1.00" d=" M 68.83 54.63 C 70.93 55.49 72.03 57.66 71.64 59.87 L 71.15 59.70 C 69.92 58.26 68.87 56.58 68.83 54.63 Z" />
</g>
<g id="#ecd14eff">
<path fill="#ecd14e" opacity="1.00" d=" M 81.16 56.29 C 81.57 56.02 82.39 55.49 82.80 55.22 C 84.32 56.11 85.85 56.98 87.33 57.95 C 85.47 62.40 82.71 66.38 79.72 70.15 C 78.36 68.76 76.90 67.47 75.45 66.17 C 77.27 64.56 79.07 62.92 81.01 61.45 C 81.07 59.73 81.11 58.01 81.16 56.29 Z" />
</g>
<g id="#ffe948ff">
<path fill="#ffe948" opacity="1.00" d=" M 87.33 57.95 C 90.61 60.70 92.35 64.66 93.83 68.57 C 93.53 73.37 92.83 79.66 87.41 81.29 C 84.76 77.63 82.53 73.69 79.72 70.15 C 82.71 66.38 85.47 62.40 87.33 57.95 Z" />
</g>
<g id="#a2a293ff">
<path fill="#a2a293" opacity="1.00" d=" M 25.29 59.92 C 27.46 58.95 27.15 62.52 25.31 60.80 L 25.29 59.92 Z" />
</g>
<g id="#ebe7a2ff">
<path fill="#ebe7a2" opacity="1.00" d=" M 47.99 59.81 C 48.31 60.15 48.95 60.84 49.27 61.18 C 49.16 64.72 49.13 68.29 48.46 71.78 C 47.97 70.22 47.44 68.68 46.91 67.13 C 47.27 64.69 47.29 62.19 47.99 59.81 Z" />
</g>
<g id="#f5f1a5ff">
<path fill="#f5f1a5" opacity="1.00" d=" M 71.15 59.70 L 71.64 59.87 C 72.09 60.05 72.99 60.42 73.44 60.60 C 74.61 64.91 74.17 69.42 73.78 73.80 C 73.04 70.99 72.74 68.10 72.25 65.24 C 71.95 63.38 71.57 61.54 71.15 59.70 Z" />
</g>
<g id="#726c52ff">
<path fill="#726c52" opacity="1.00" d=" M 73.44 60.60 C 73.89 60.75 74.79 61.05 75.24 61.20 C 75.88 61.21 77.18 61.23 77.82 61.25 C 76.81 62.77 76.03 64.44 75.45 66.17 C 75.39 66.58 75.26 67.38 75.19 67.78 C 75.03 69.39 74.94 71.00 74.75 72.60 L 73.78 73.80 C 74.17 69.42 74.61 64.91 73.44 60.60 M 75.19 62.32 C 75.70 62.81 75.70 62.81 75.19 62.32 Z" />
</g>
<g id="#5e5d44ff">
<path fill="#5e5d44" opacity="1.00" d=" M 49.27 61.18 L 49.80 61.79 C 50.21 65.51 49.94 69.26 50.00 73.00 C 49.57 73.00 48.71 72.99 48.28 72.98 L 48.32 72.75 L 48.46 71.78 C 49.13 68.29 49.16 64.72 49.27 61.18 Z" />
</g>
<g id="#231c1dff">
<path fill="#231c1d" opacity="1.00" d=" M 75.19 62.32 C 75.70 62.81 75.70 62.81 75.19 62.32 Z" />
</g>
<g id="#fff54cff">
<path fill="#fff54c" opacity="1.00" d=" M 57.97 65.28 C 58.62 65.21 59.91 65.06 60.56 64.99 C 60.14 65.79 59.73 66.60 59.33 67.42 C 59.84 69.87 60.21 72.36 60.64 74.83 C 56.33 76.23 52.18 78.17 47.73 79.12 C 47.45 78.76 46.91 78.03 46.63 77.66 C 47.04 77.28 47.85 76.52 48.25 76.14 C 49.63 75.33 51.14 74.59 52.06 73.21 C 52.48 72.65 52.94 72.12 53.44 71.61 C 55.15 70.59 56.90 69.63 58.66 68.69 C 58.43 67.55 58.20 66.42 57.97 65.28 Z" />
</g>
<g id="#575021ff">
<path fill="#575021" opacity="1.00" d=" M 70.71 65.22 L 72.25 65.24 C 72.74 68.10 73.04 70.99 73.78 73.80 C 73.62 73.98 73.32 74.35 73.16 74.53 C 76.08 76.25 78.89 78.15 81.71 80.02 C 82.09 79.53 82.85 78.56 83.23 78.07 C 81.35 74.07 78.65 70.54 75.19 67.78 C 75.26 67.38 75.39 66.58 75.45 66.17 C 76.90 67.47 78.36 68.76 79.72 70.15 C 82.53 73.69 84.76 77.63 87.41 81.29 C 87.48 81.39 87.64 81.59 87.72 81.69 C 88.94 81.21 90.13 80.66 91.30 80.09 C 90.65 83.04 88.51 84.91 86.03 86.39 C 85.54 89.11 87.80 91.15 89.23 93.16 C 90.82 93.13 92.42 93.10 94.01 93.06 C 94.81 94.61 95.05 96.33 95.19 98.06 C 94.65 98.00 93.56 97.88 93.02 97.82 L 93.84 96.60 L 94.10 96.29 L 93.92 96.07 C 92.97 93.97 90.61 94.37 88.71 94.26 C 87.07 92.54 85.63 90.61 84.69 88.42 C 85.12 86.50 85.67 84.60 86.08 82.68 C 85.66 81.26 85.21 79.86 84.73 78.46 C 83.73 79.21 82.73 79.98 81.74 80.74 C 80.95 81.00 79.36 81.53 78.56 81.80 C 80.21 84.99 81.55 88.36 82.19 91.91 L 82.36 92.72 C 81.75 93.12 80.52 93.93 79.91 94.34 C 80.97 92.76 82.12 90.14 79.72 89.12 C 75.39 88.95 71.03 89.05 66.81 87.87 L 67.23 86.88 C 71.43 87.65 75.68 88.18 79.96 88.09 C 79.45 87.02 78.95 85.95 78.45 84.88 C 78.25 84.44 77.86 83.56 77.66 83.12 C 78.05 82.09 78.47 81.06 78.90 80.04 C 77.98 79.32 77.07 78.59 76.12 77.90 C 74.77 77.20 73.35 76.66 71.89 76.25 C 70.94 73.90 71.21 71.42 71.94 69.05 C 71.52 67.78 71.11 66.50 70.71 65.22 Z" />
</g>
<g id="#d7ae51ff">
<path fill="#d7ae51" opacity="1.00" d=" M 62.65 68.01 C 63.97 67.67 65.31 67.42 66.64 67.14 C 65.74 68.57 64.93 70.06 64.02 71.49 C 63.63 71.37 62.84 71.13 62.45 71.01 L 62.89 70.30 C 62.68 69.99 62.25 69.36 62.04 69.05 L 62.65 68.01 Z" />
</g>
<g id="#a28026ff">
<path fill="#a28026" opacity="1.00" d=" M 66.64 67.14 C 66.96 67.05 67.61 66.88 67.93 66.80 C 67.49 68.35 67.15 69.92 67.07 71.54 C 66.76 71.65 66.12 71.87 65.80 71.98 C 64.41 72.68 64.44 73.31 65.88 73.87 C 65.96 76.55 63.03 73.85 61.74 73.63 C 61.72 72.91 61.67 71.47 61.65 70.75 L 62.45 71.01 C 62.84 71.13 63.63 71.37 64.02 71.49 C 64.93 70.06 65.74 68.57 66.64 67.14 Z" />
</g>
<g id="#e4a988ff">
<path fill="#e4a988" opacity="1.00" d=" M 67.93 66.80 L 68.75 66.57 C 68.82 67.17 68.95 68.39 69.02 68.99 C 67.57 69.64 67.57 70.27 69.04 70.89 C 68.90 71.73 68.61 73.40 68.46 74.24 C 68.40 74.32 68.27 74.47 68.21 74.55 L 67.83 74.75 C 67.71 74.24 67.46 73.21 67.33 72.70 L 67.43 72.59 C 67.38 72.50 67.28 72.31 67.23 72.22 L 67.07 71.54 C 67.15 69.92 67.49 68.35 67.93 66.80 Z" />
</g>
<g id="#fff14aff">
<path fill="#fff14a" opacity="1.00" d=" M 75.19 67.78 C 78.65 70.54 81.35 74.07 83.23 78.07 C 82.85 78.56 82.09 79.53 81.71 80.02 C 78.89 78.15 76.08 76.25 73.16 74.53 C 73.32 74.35 73.62 73.98 73.78 73.80 L 74.75 72.60 C 74.94 71.00 75.03 69.39 75.19 67.78 Z" />
</g>
<g id="#f1b39cff">
<path fill="#f1b39c" opacity="1.00" d=" M 62.04 69.05 C 62.25 69.36 62.68 69.99 62.89 70.30 L 62.45 71.01 L 61.65 70.75 C 61.75 70.32 61.94 69.47 62.04 69.05 Z" />
</g>
<g id="#9d7c1fff">
<path fill="#9d7c1f" opacity="1.00" d=" M 69.04 70.89 C 67.57 70.27 67.57 69.64 69.02 68.99 C 69.02 69.47 69.04 70.41 69.04 70.89 Z" />
</g>
<g id="#f2b39bff">
<path fill="#f2b39b" opacity="1.00" d=" M 65.88 73.87 C 64.44 73.31 64.41 72.68 65.80 71.98 C 65.82 72.45 65.86 73.39 65.88 73.87 Z" />
</g>
<g id="#8d6e15ff">
<path fill="#8d6e15" opacity="1.00" d=" M 67.23 72.22 C 67.28 72.31 67.38 72.50 67.43 72.59 L 67.33 72.70 L 67.23 72.22 Z" />
</g>
<g id="#121c1fd5">
<path fill="#121c1f" opacity="0.84" d=" M 48.25 76.14 C 47.42 74.33 50.44 72.05 52.06 73.21 C 51.14 74.59 49.63 75.33 48.25 76.14 Z" />
</g>
<g id="#876b10ff">
<path fill="#876b10" opacity="1.00" d=" M 68.21 74.55 C 68.27 74.47 68.40 74.32 68.46 74.24 L 68.42 74.44 L 68.21 74.55 Z" />
</g>
<g id="#d8c044ff">
<path fill="#d8c044" opacity="1.00" d=" M 58.65 75.85 C 63.84 75.61 67.08 80.62 72.23 80.40 C 72.14 79.36 71.97 77.28 71.89 76.25 C 73.35 76.66 74.77 77.20 76.12 77.90 C 75.48 79.11 74.84 80.31 74.20 81.52 C 75.36 82.04 76.52 82.55 77.66 83.12 C 77.86 83.56 78.25 84.44 78.45 84.88 C 70.83 84.86 63.98 81.06 58.65 75.85 Z" />
</g>
<g id="#f2db46ff">
<path fill="#f2db46" opacity="1.00" d=" M 81.74 80.74 C 82.73 79.98 83.73 79.21 84.73 78.46 C 85.21 79.86 85.66 81.26 86.08 82.68 C 83.48 83.58 80.82 83.60 78.56 81.80 C 79.36 81.53 80.95 81.00 81.74 80.74 Z" />
</g>
<g id="#d5be42ff">
<path fill="#d5be42" opacity="1.00" d=" M 46.24 83.14 C 48.81 83.52 51.39 83.83 53.98 84.09 L 53.91 84.83 C 53.84 85.35 53.71 86.39 53.64 86.91 C 52.15 87.62 50.65 88.33 49.21 89.16 C 48.48 87.03 47.53 84.98 46.24 83.14 Z" />
</g>
<g id="#ffe848ff">
<path fill="#ffe848" opacity="1.00" d=" M 49.21 89.16 C 50.65 88.33 52.15 87.62 53.64 86.91 L 52.45 88.19 C 52.17 89.02 52.02 89.87 52.00 90.75 C 53.90 92.04 56.15 92.67 58.26 93.52 C 54.51 94.37 50.69 94.83 46.88 95.30 C 47.08 94.59 47.27 93.88 47.44 93.16 C 46.45 93.53 45.67 94.28 44.86 94.94 C 44.39 94.90 43.44 94.81 42.96 94.76 C 41.28 94.76 39.60 94.74 37.93 94.65 C 37.59 94.38 36.93 93.84 36.59 93.56 C 39.24 93.04 41.94 92.86 44.62 92.51 C 45.17 92.50 46.27 92.47 46.82 92.46 L 47.67 90.62 C 47.84 90.44 48.20 90.08 48.38 89.89 C 48.59 89.71 49.00 89.34 49.21 89.16 Z" />
</g>
<g id="#585324ff">
<path fill="#585324" opacity="1.00" d=" M 52.00 90.75 C 52.02 89.87 52.17 89.02 52.45 88.19 C 53.54 92.23 59.29 90.69 60.43 94.77 C 58.40 94.97 56.21 94.73 54.37 95.82 C 51.29 96.06 48.19 96.01 45.10 95.78 L 44.86 94.94 C 45.67 94.28 46.45 93.53 47.44 93.16 C 47.27 93.88 47.08 94.59 46.88 95.30 C 50.69 94.83 54.51 94.37 58.26 93.52 C 56.15 92.67 53.90 92.04 52.00 90.75 Z" />
</g>
<g id="#ffec49ff">
<path fill="#ffec49" opacity="1.00" d=" M 82.19 91.91 C 82.97 90.70 83.83 89.56 84.69 88.42 C 85.63 90.61 87.07 92.54 88.71 94.26 C 90.61 94.37 92.97 93.97 93.92 96.07 L 93.56 96.08 C 90.13 95.62 86.67 95.76 83.23 95.90 C 82.92 94.84 82.63 93.78 82.36 92.72 L 82.19 91.91 Z" />
</g>
<g id="#0f1b1ed7">
<path fill="#0f1b1e" opacity="0.84" d=" M 40.32 91.21 C 42.67 92.70 45.24 90.86 47.67 90.62 L 46.82 92.46 C 46.27 92.47 45.17 92.50 44.62 92.51 C 41.94 92.86 39.24 93.04 36.59 93.56 C 35.32 93.65 34.72 94.33 34.81 95.61 C 34.25 95.78 33.14 96.12 32.59 96.29 C 34.09 93.25 37.37 92.24 40.32 91.21 Z" />
</g>
<g id="#6b6023ff">
<path fill="#6b6023" opacity="1.00" d=" M 82.36 92.72 C 82.63 93.78 82.92 94.84 83.23 95.90 C 86.67 95.76 90.13 95.62 93.56 96.08 L 93.84 96.60 L 93.02 97.82 C 89.51 96.19 85.53 97.08 81.82 97.17 C 81.37 95.87 80.46 95.11 79.08 94.89 L 79.91 94.34 C 80.52 93.93 81.75 93.12 82.36 92.72 Z" />
</g>
<g id="#2c3437ff">
<path fill="#2c3437" opacity="1.00" d=" M 78.16 95.39 L 78.62 95.36 C 78.86 95.68 79.34 96.31 79.58 96.62 C 80.14 96.76 81.26 97.03 81.82 97.17 C 81.62 98.65 79.07 98.58 78.21 97.65 C 78.20 97.09 78.17 95.96 78.16 95.39 Z" />
</g>
<g id="#ebe4b4ff">
<path fill="#ebe4b4" opacity="1.00" d=" M 78.62 95.36 L 79.08 94.89 C 80.46 95.11 81.37 95.87 81.82 97.17 C 81.26 97.03 80.14 96.76 79.58 96.62 C 79.34 96.31 78.86 95.68 78.62 95.36 Z" />
</g>
<g id="#f8f7e9ff">
<path fill="#f8f7e9" opacity="1.00" d=" M 93.56 96.08 L 93.92 96.07 L 94.10 96.29 L 93.84 96.60 L 93.56 96.08 Z" />
</g>
</svg>
