<?xml version="1.0" encoding="UTF-8" ?>
<!DOCTYPE svg PUBLIC "-//W3C//DTD SVG 1.1//EN" "http://www.w3.org/Graphics/SVG/1.1/DTD/svg11.dtd">
<svg width="120pt" height="120pt" viewBox="0 0 120 120" version="1.1" xmlns="http://www.w3.org/2000/svg">
<g id="#181618ff">
<path fill="#181618" opacity="1.00" d=" M 48.83 33.29 C 50.02 30.37 53.22 29.26 55.90 28.15 C 59.48 27.96 63.39 27.35 66.66 29.19 C 70.62 31.03 73.07 34.71 74.95 38.48 C 74.97 39.82 74.96 41.15 74.91 42.49 C 74.27 43.39 73.93 44.40 73.90 45.52 C 74.61 46.47 75.30 47.45 75.97 48.44 C 75.71 51.10 76.86 54.23 75.10 56.52 C 74.37 60.80 76.15 65.62 74.12 69.54 C 74.08 70.17 74.00 71.44 73.96 72.07 L 72.83 71.91 C 74.41 67.72 74.53 63.25 74.31 58.83 C 72.76 59.45 71.22 60.11 69.69 60.78 C 69.84 63.71 69.73 66.65 69.48 69.57 C 69.37 66.97 69.25 64.38 69.06 61.79 C 68.57 62.23 67.61 63.11 67.13 63.55 C 66.44 62.61 65.49 62.13 64.27 62.10 C 63.68 64.29 62.79 66.38 61.63 68.32 C 64.77 71.31 67.93 74.49 68.77 78.94 L 70.07 77.96 C 70.22 79.68 68.78 80.67 67.74 81.79 L 67.16 80.85 C 66.99 80.57 66.63 80.00 66.46 79.72 C 66.06 79.29 65.26 78.43 64.86 78.01 L 67.60 79.13 C 66.39 75.79 64.70 70.83 60.28 71.09 C 59.53 71.98 58.85 72.93 58.25 73.93 C 57.84 73.95 57.01 73.99 56.59 74.01 C 56.25 73.28 55.57 71.81 55.24 71.08 L 54.86 69.37 C 53.63 70.90 52.69 72.61 52.03 74.45 C 52.03 73.77 52.02 72.42 52.02 71.74 C 52.87 70.88 53.73 70.02 54.58 69.15 C 53.04 67.14 52.13 64.77 52.11 62.21 C 51.91 61.93 51.50 61.37 51.30 61.09 C 52.09 58.96 52.82 56.80 53.46 54.61 C 52.84 51.24 49.85 49.55 47.02 48.22 C 47.09 47.86 47.24 47.14 47.32 46.78 C 49.08 48.18 51.09 49.20 53.04 50.30 C 59.63 50.43 65.83 47.71 71.37 44.40 C 68.68 48.34 63.60 48.99 59.62 51.03 C 59.74 51.89 59.99 53.61 60.11 54.46 L 60.13 54.59 L 60.13 54.60 C 61.17 58.15 64.32 62.58 68.53 60.86 C 71.17 58.84 76.01 57.05 75.19 52.99 L 73.94 52.17 C 74.36 51.68 75.19 50.69 75.61 50.19 C 74.92 48.96 74.25 47.72 73.58 46.48 C 73.12 45.51 72.39 44.82 71.37 44.40 C 72.42 43.36 73.97 42.53 74.34 41.01 C 73.95 38.28 72.32 35.93 70.74 33.75 C 68.53 31.72 66.02 29.79 63.03 29.13 C 60.55 28.84 58.04 28.99 55.55 29.07 C 53.92 30.02 52.25 30.89 50.65 31.89 C 50.19 32.24 49.28 32.94 48.83 33.29 M 52.74 50.99 C 53.53 52.29 54.29 53.60 55.05 54.92 C 57.14 54.20 59.00 53.06 59.60 50.79 C 57.32 50.84 55.03 50.92 52.74 50.99 M 52.97 58.06 C 52.46 62.11 53.47 66.60 56.42 69.57 C 56.53 70.06 56.74 71.03 56.85 71.52 L 58.21 71.95 C 60.68 69.58 62.16 66.23 63.14 62.99 C 62.05 59.84 59.86 57.14 59.02 53.86 C 57.05 55.38 53.51 55.13 52.97 58.06 Z" />
<path fill="#181618" opacity="1.00" d=" M 63.35 39.84 C 63.93 39.87 65.09 39.94 65.67 39.97 C 66.50 40.99 67.34 42.02 68.17 43.05 C 65.43 44.99 62.42 46.57 59.12 47.30 L 59.14 45.75 C 60.87 47.10 61.93 44.31 60.52 43.30 C 60.95 42.76 61.80 41.69 62.23 41.16 C 62.51 40.83 63.07 40.17 63.35 39.84 Z" />
</g>
<g id="#ffee84ff">
<path fill="#ffee84" opacity="1.00" d=" M 55.55 29.07 C 58.04 28.99 60.55 28.84 63.03 29.13 C 66.02 29.79 68.53 31.72 70.74 33.75 C 69.86 35.20 69.14 36.79 67.98 38.05 C 66.50 38.80 64.88 39.22 63.35 39.84 C 63.07 40.17 62.51 40.83 62.23 41.16 C 58.31 41.96 54.06 40.93 51.61 37.61 C 50.98 35.77 50.91 33.80 50.65 31.89 C 52.25 30.89 53.92 30.02 55.55 29.07 M 58.34 30.38 C 57.18 31.13 57.41 32.64 57.14 33.81 C 58.91 33.84 60.69 33.85 62.47 33.85 C 62.50 32.93 62.52 32.01 62.55 31.10 C 61.18 30.74 59.79 29.97 58.34 30.38 Z" />
</g>
<g id="#ffffacff">
<path fill="#ffffac" opacity="1.00" d=" M 58.34 30.38 C 59.79 29.97 61.18 30.74 62.55 31.10 C 62.52 32.01 62.50 32.93 62.47 33.85 C 60.69 33.85 58.91 33.84 57.14 33.81 C 57.41 32.64 57.18 31.13 58.34 30.38 Z" />
</g>
<g id="#eedb79ff">
<path fill="#eedb79" opacity="1.00" d=" M 48.83 33.29 C 49.28 32.94 50.19 32.24 50.65 31.89 C 50.91 33.80 50.98 35.77 51.61 37.61 C 54.06 40.93 58.31 41.96 62.23 41.16 C 61.80 41.69 60.95 42.76 60.52 43.30 C 60.27 43.49 59.76 43.88 59.51 44.07 L 59.06 44.41 L 59.10 44.98 L 59.14 45.75 L 59.12 47.30 C 62.42 46.57 65.43 44.99 68.17 43.05 C 67.34 42.02 66.50 40.99 65.67 39.97 C 65.09 39.94 63.93 39.87 63.35 39.84 C 64.88 39.22 66.50 38.80 67.98 38.05 C 69.14 36.79 69.86 35.20 70.74 33.75 C 72.32 35.93 73.95 38.28 74.34 41.01 C 73.97 42.53 72.42 43.36 71.37 44.40 C 65.83 47.71 59.63 50.43 53.04 50.30 C 51.09 49.20 49.08 48.18 47.32 46.78 C 46.55 46.10 45.78 45.42 45.02 44.73 C 45.10 42.95 45.20 41.17 45.69 39.45 C 45.87 38.75 46.22 37.35 46.40 36.65 C 47.18 36.05 47.64 35.26 47.69 34.27 C 47.97 34.03 48.54 33.53 48.83 33.29 M 46.51 40.57 C 44.74 42.82 47.07 45.28 49.19 46.07 L 49.94 46.31 L 50.32 46.78 C 50.36 46.56 50.43 46.12 50.47 45.90 L 50.64 44.98 C 50.55 44.69 50.36 44.12 50.27 43.83 L 49.64 43.18 L 50.21 42.71 C 49.82 41.96 49.04 40.47 48.65 39.73 C 48.12 39.94 47.05 40.36 46.51 40.57 Z" />
<path fill="#eedb79" opacity="1.00" d=" M 52.74 50.99 C 55.03 50.92 57.32 50.84 59.60 50.79 C 59.00 53.06 57.14 54.20 55.05 54.92 C 54.29 53.60 53.53 52.29 52.74 50.99 Z" />
</g>
<g id="#202720f9">
<path fill="#202720" opacity="0.98" d=" M 43.95 45.66 C 44.06 42.64 43.76 38.63 46.40 36.65 C 46.22 37.35 45.87 38.75 45.69 39.45 C 45.20 41.17 45.10 42.95 45.02 44.73 C 45.78 45.42 46.55 46.10 47.32 46.78 C 47.24 47.14 47.09 47.86 47.02 48.22 L 46.83 49.12 C 46.17 50.75 46.38 52.47 46.92 54.09 L 47.08 54.72 C 47.07 56.10 47.04 57.48 46.98 58.86 C 48.25 59.91 49.52 61.13 51.30 61.09 C 50.79 61.40 49.78 62.03 49.27 62.34 C 49.05 66.00 49.19 69.76 51.03 73.04 C 52.95 76.34 53.24 80.16 53.07 83.89 C 54.03 83.25 54.99 82.60 55.96 81.97 C 55.24 82.61 54.53 83.25 53.81 83.89 C 53.88 84.64 54.01 86.14 54.08 86.89 C 55.38 88.04 56.68 89.20 57.98 90.35 C 59.42 89.86 60.85 89.37 62.27 88.84 C 61.44 89.63 60.56 90.35 59.63 91.01 C 58.55 90.99 57.47 90.98 56.39 90.98 C 55.29 89.83 54.18 88.70 53.06 87.58 C 53.01 87.07 52.90 86.05 52.85 85.54 C 51.38 83.48 52.16 80.83 51.96 78.50 C 51.33 77.53 50.75 76.54 50.21 75.52 C 50.04 74.44 49.70 73.42 49.18 72.46 C 49.09 71.98 48.91 71.02 48.82 70.54 C 47.16 67.79 48.30 64.37 48.01 61.33 C 47.51 60.91 46.50 60.07 46.00 59.65 C 46.01 57.61 46.01 55.57 45.91 53.54 C 44.00 51.76 46.02 49.42 46.19 47.37 C 45.63 46.94 44.51 46.09 43.95 45.66 Z" />
</g>
<g id="#232223ff">
<path fill="#232223" opacity="1.00" d=" M 46.51 40.57 C 47.05 40.36 48.12 39.94 48.65 39.73 C 49.04 40.47 49.82 41.96 50.21 42.71 L 49.64 43.18 C 48.70 43.96 48.55 44.92 49.19 46.07 C 47.07 45.28 44.74 42.82 46.51 40.57 Z" />
</g>
<g id="#edededff">
<path fill="#ededed" opacity="1.00" d=" M 49.19 46.07 C 48.55 44.92 48.70 43.96 49.64 43.18 L 50.27 43.83 C 50.36 44.12 50.55 44.69 50.64 44.98 L 50.47 45.90 L 49.94 46.31 L 49.19 46.07 Z" />
</g>
<g id="#dcdcdbff">
<path fill="#dcdcdb" opacity="1.00" d=" M 59.51 44.07 C 59.76 43.88 60.27 43.49 60.52 43.30 C 61.93 44.31 60.87 47.10 59.14 45.75 L 59.10 44.98 C 59.20 44.75 59.41 44.30 59.51 44.07 Z" />
</g>
<g id="#322f1cff">
<path fill="#322f1c" opacity="1.00" d=" M 50.27 43.83 C 50.36 44.12 50.55 44.69 50.64 44.98 C 50.55 44.69 50.36 44.12 50.27 43.83 Z" />
<path fill="#322f1c" opacity="1.00" d=" M 59.06 44.41 L 59.51 44.07 C 59.41 44.30 59.20 44.75 59.10 44.98 L 59.06 44.41 Z" />
</g>
<g id="#b59846ff">
<path fill="#b59846" opacity="1.00" d=" M 71.37 44.40 C 72.39 44.82 73.12 45.51 73.58 46.48 C 70.23 49.70 65.98 51.63 61.87 53.66 C 65.96 54.87 70.30 54.45 73.94 52.17 L 75.19 52.99 C 70.88 56.52 65.13 56.56 60.13 54.60 C 60.13 54.57 60.12 54.50 60.11 54.46 C 59.99 53.61 59.74 51.89 59.62 51.03 C 63.60 48.99 68.68 48.34 71.37 44.40 Z" />
<path fill="#b59846" opacity="1.00" d=" M 47.02 48.22 C 49.85 49.55 52.84 51.24 53.46 54.61 C 52.23 55.13 51.01 55.65 49.79 56.17 C 48.88 55.69 47.98 55.21 47.08 54.72 L 46.92 54.09 C 48.48 53.97 50.04 53.84 51.60 53.71 C 50.00 52.19 48.38 50.69 46.83 49.12 L 47.02 48.22 Z" />
<path fill="#b59846" opacity="1.00" d=" M 51.30 61.09 C 51.50 61.37 51.91 61.93 52.11 62.21 C 48.31 64.35 50.69 68.82 52.02 71.74 C 52.02 72.42 52.03 73.77 52.03 74.45 C 52.69 72.61 53.63 70.90 54.86 69.37 L 55.24 71.08 C 54.64 72.67 54.00 74.25 53.36 75.83 C 56.50 75.64 59.99 74.86 62.75 76.88 C 59.38 75.93 55.81 75.70 52.94 78.08 C 54.68 79.86 56.77 81.20 58.97 82.35 C 59.95 83.54 60.54 83.46 60.73 82.09 C 61.28 82.29 62.38 82.70 62.93 82.90 C 64.11 81.84 65.28 80.78 66.46 79.72 C 66.63 80.00 66.99 80.57 67.16 80.85 L 68.06 82.44 L 66.72 83.16 C 65.30 83.79 63.88 84.94 63.92 86.65 L 63.80 87.66 C 63.42 87.96 62.66 88.55 62.27 88.84 C 60.85 89.37 59.42 89.86 57.98 90.35 C 56.68 89.20 55.38 88.04 54.08 86.89 C 54.01 86.14 53.88 84.64 53.81 83.89 C 54.53 83.25 55.24 82.61 55.96 81.97 C 54.99 82.60 54.03 83.25 53.07 83.89 C 53.24 80.16 52.95 76.34 51.03 73.04 C 49.19 69.76 49.05 66.00 49.27 62.34 C 49.78 62.03 50.79 61.40 51.30 61.09 Z" />
</g>
<g id="#0e0c0dff">
<path fill="#0e0c0d" opacity="1.00" d=" M 49.94 46.31 L 50.47 45.90 C 50.43 46.12 50.36 46.56 50.32 46.78 L 49.94 46.31 Z" />
</g>
<g id="#f0dd7bff">
<path fill="#f0dd7b" opacity="1.00" d=" M 61.87 53.66 C 65.98 51.63 70.23 49.70 73.58 46.48 C 74.25 47.72 74.92 48.96 75.61 50.19 C 75.19 50.69 74.36 51.68 73.94 52.17 C 70.30 54.45 65.96 54.87 61.87 53.66 Z" />
</g>
<g id="#e7d575ff">
<path fill="#e7d575" opacity="1.00" d=" M 46.92 54.09 C 46.38 52.47 46.17 50.75 46.83 49.12 C 48.38 50.69 50.00 52.19 51.60 53.71 C 50.04 53.84 48.48 53.97 46.92 54.09 Z" />
</g>
<g id="#f2df7cff">
<path fill="#f2df7c" opacity="1.00" d=" M 75.19 52.99 C 76.01 57.05 71.17 58.84 68.53 60.86 C 64.32 62.58 61.17 58.15 60.13 54.60 C 65.13 56.56 70.88 56.52 75.19 52.99 Z" />
</g>
<g id="#ebd878ff">
<path fill="#ebd878" opacity="1.00" d=" M 52.97 58.06 C 53.51 55.13 57.05 55.38 59.02 53.86 C 59.86 57.14 62.05 59.84 63.14 62.99 C 62.16 66.23 60.68 69.58 58.21 71.95 L 56.85 71.52 C 56.74 71.03 56.53 70.06 56.42 69.57 C 53.47 66.60 52.46 62.11 52.97 58.06 Z" />
<path fill="#ebd878" opacity="1.00" d=" M 69.69 60.78 C 71.22 60.11 72.76 59.45 74.31 58.83 C 74.53 63.25 74.41 67.72 72.83 71.91 C 72.73 72.36 72.54 73.25 72.45 73.70 L 71.63 74.19 C 70.74 74.78 70.43 75.64 70.71 76.79 C 70.55 77.09 70.23 77.67 70.07 77.96 L 68.77 78.94 C 67.93 74.49 64.77 71.31 61.63 68.32 C 62.79 66.38 63.68 64.29 64.27 62.10 C 65.49 62.13 66.44 62.61 67.13 63.55 C 67.61 63.11 68.57 62.23 69.06 61.79 C 69.25 64.38 69.37 66.97 69.48 69.57 C 69.73 66.65 69.84 63.71 69.69 60.78 Z" />
</g>
<g id="#e5d36dff">
<path fill="#e5d36d" opacity="1.00" d=" M 60.11 54.46 C 60.12 54.50 60.13 54.57 60.13 54.60 L 60.13 54.59 L 60.11 54.46 Z" />
</g>
<g id="#edda79ff">
<path fill="#edda79" opacity="1.00" d=" M 47.08 54.72 C 47.98 55.21 48.88 55.69 49.79 56.17 C 51.01 55.65 52.23 55.13 53.46 54.61 C 52.82 56.80 52.09 58.96 51.30 61.09 C 49.52 61.13 48.25 59.91 46.98 58.86 C 47.04 57.48 47.07 56.10 47.08 54.72 Z" />
</g>
<g id="#e5d374ff">
<path fill="#e5d374" opacity="1.00" d=" M 52.02 71.74 C 50.69 68.82 48.31 64.35 52.11 62.21 C 52.13 64.77 53.04 67.14 54.58 69.15 C 53.73 70.02 52.87 70.88 52.02 71.74 Z" />
</g>
<g id="#e8d777ff">
<path fill="#e8d777" opacity="1.00" d=" M 60.28 71.09 C 64.70 70.83 66.39 75.79 67.60 79.13 L 64.86 78.01 C 65.26 78.43 66.06 79.29 66.46 79.72 C 65.28 80.78 64.11 81.84 62.93 82.90 C 62.38 82.70 61.28 82.29 60.73 82.09 L 59.79 81.76 L 58.97 82.35 C 56.77 81.20 54.68 79.86 52.94 78.08 C 55.81 75.70 59.38 75.93 62.75 76.88 C 59.99 74.86 56.50 75.64 53.36 75.83 C 54.00 74.25 54.64 72.67 55.24 71.08 C 55.57 71.81 56.25 73.28 56.59 74.01 C 57.01 73.99 57.84 73.95 58.25 73.93 C 58.85 72.93 59.53 71.98 60.28 71.09 Z" />
</g>
<g id="#483d1cff">
<path fill="#483d1c" opacity="1.00" d=" M 70.71 76.79 C 70.43 75.64 70.74 74.78 71.63 74.19 C 72.59 75.68 72.28 76.55 70.71 76.79 Z" />
</g>
<g id="#8c7b1dff">
<path fill="#8c7b1d" opacity="1.00" d=" M 58.97 82.35 L 59.79 81.76 L 60.73 82.09 C 60.54 83.46 59.95 83.54 58.97 82.35 Z" />
</g>
<g id="#5e4f20ff">
<path fill="#5e4f20" opacity="1.00" d=" M 63.92 86.65 C 63.88 84.94 65.30 83.79 66.72 83.16 C 67.65 84.64 65.48 87.23 63.92 86.65 Z" />
</g>
</svg>
