<?xml version="1.0" encoding="UTF-8" ?>
<!DOCTYPE svg PUBLIC "-//W3C//DTD SVG 1.1//EN" "http://www.w3.org/Graphics/SVG/1.1/DTD/svg11.dtd">
<svg width="120pt" height="120pt" viewBox="0 0 120 120" version="1.1" xmlns="http://www.w3.org/2000/svg">
<g id="#f8a36aff">
<path fill="#f8a36a" opacity="1.00" d=" M 64.62 16.53 C 67.33 16.58 70.05 16.57 72.77 16.41 L 72.40 17.68 C 74.19 17.58 75.98 17.50 77.77 17.39 L 77.39 18.65 C 79.14 18.58 80.89 18.53 82.63 18.44 C 83.55 19.51 84.35 20.67 85.06 21.89 C 86.01 23.27 85.47 24.99 85.57 26.53 L 86.78 26.43 C 86.69 27.22 86.50 28.80 86.41 29.59 L 87.53 29.33 C 88.13 30.75 88.12 32.64 89.39 33.66 C 92.75 35.41 91.93 39.85 90.88 42.82 C 90.20 46.49 90.93 50.28 90.57 53.99 C 89.63 56.58 87.79 58.79 87.12 61.50 L 88.68 61.34 C 88.70 61.98 88.73 63.27 88.75 63.91 C 88.31 63.84 87.43 63.68 86.99 63.60 C 87.23 63.26 87.71 62.57 87.95 62.23 C 86.81 62.31 85.66 62.39 84.53 62.46 C 83.47 63.37 82.36 64.22 81.43 65.26 C 80.93 67.36 81.05 69.54 80.97 71.68 C 80.24 72.39 79.51 73.11 78.78 73.82 C 80.49 75.35 82.62 76.13 84.92 76.08 C 84.81 74.93 84.71 73.79 84.62 72.64 L 85.67 72.21 C 85.70 73.33 85.72 74.44 85.75 75.56 C 84.68 76.59 83.62 77.63 82.58 78.69 C 80.28 78.65 77.98 78.63 75.68 78.63 C 75.67 80.38 75.63 82.13 75.54 83.88 L 75.51 84.22 C 73.92 84.64 72.34 85.11 70.76 85.56 C 71.91 86.44 73.03 87.51 74.48 87.86 C 74.29 87.05 74.09 86.24 73.88 85.44 C 77.10 84.97 80.41 84.68 83.60 85.56 C 84.17 84.77 84.73 83.98 85.36 83.23 C 85.86 83.18 86.86 83.08 87.37 83.03 C 86.76 84.18 83.92 85.68 85.72 87.04 C 89.41 90.10 91.47 94.64 92.59 99.22 C 93.75 98.75 94.92 98.28 96.09 97.81 C 92.83 93.46 89.52 89.04 87.71 83.85 L 89.54 83.08 L 89.61 84.13 C 91.04 84.52 91.63 85.73 91.86 87.09 C 92.95 88.27 94.20 89.28 95.56 90.16 C 95.35 90.35 94.94 90.73 94.73 90.91 C 93.34 90.91 92.62 91.45 92.56 92.54 C 93.07 92.47 94.08 92.32 94.58 92.24 C 95.39 94.65 96.41 97.26 98.93 98.32 C 98.41 99.96 100.78 100.93 101.88 99.85 C 103.07 98.13 99.98 97.33 98.93 98.32 C 98.94 97.64 98.95 96.29 98.96 95.62 C 97.37 94.68 95.84 93.61 94.58 92.24 C 94.62 91.91 94.70 91.25 94.73 90.91 C 96.25 91.66 97.09 93.30 97.90 94.71 C 98.36 94.60 99.28 94.37 99.74 94.26 C 99.70 95.12 99.63 96.84 99.60 97.69 C 100.39 97.61 101.97 97.43 102.75 97.35 L 102.54 98.67 C 103.32 98.60 104.90 98.45 105.69 98.38 C 105.73 99.01 105.81 100.27 105.85 100.90 C 104.67 100.70 103.49 100.50 102.32 100.31 C 102.52 101.54 102.73 102.76 102.94 103.99 C 100.08 102.12 96.62 102.75 93.40 102.71 C 93.46 101.90 93.58 100.28 93.64 99.47 C 93.15 99.55 92.18 99.71 91.69 99.80 C 90.35 95.29 87.66 91.32 85.19 87.36 C 84.74 87.52 83.84 87.84 83.39 88.00 L 83.65 86.46 C 81.88 86.78 79.84 86.33 78.38 87.63 C 77.67 87.62 76.26 87.58 75.56 87.56 L 75.82 88.90 C 74.57 88.72 73.32 88.56 72.07 88.38 C 70.50 86.46 68.45 84.96 65.88 84.89 C 69.27 84.72 72.94 84.18 74.83 80.99 C 70.91 79.07 70.71 74.61 70.73 70.80 C 69.01 74.47 66.60 77.87 62.41 78.82 C 61.64 78.04 60.87 77.27 60.09 76.50 C 60.08 77.19 60.04 78.59 60.02 79.28 C 58.91 78.47 57.82 77.62 56.65 76.91 C 55.58 78.22 54.72 79.69 53.82 81.12 C 52.22 81.07 50.62 81.09 49.03 80.87 C 47.42 80.07 46.42 78.44 45.17 77.20 C 44.27 78.13 43.38 79.06 42.48 79.99 C 42.34 79.49 42.05 78.48 41.90 77.98 C 41.53 78.25 40.78 78.78 40.41 79.05 C 38.92 76.62 37.46 74.17 36.08 71.68 C 36.05 74.08 35.85 76.51 36.23 78.90 C 37.37 81.48 40.11 82.73 42.12 84.52 C 43.22 87.75 46.63 88.66 49.40 89.92 C 50.76 90.75 52.12 89.75 53.37 89.25 C 56.36 89.06 59.56 88.41 62.40 89.72 C 64.44 90.65 66.71 90.37 68.85 90.00 L 68.95 90.69 C 66.48 90.47 63.94 90.94 61.52 90.52 L 61.14 89.85 C 56.51 88.75 51.91 91.59 47.25 90.51 C 45.41 89.50 42.90 88.81 42.26 86.55 C 41.58 86.56 40.23 86.58 39.55 86.58 C 39.58 87.29 39.62 88.70 39.64 89.41 C 38.00 92.15 38.74 95.73 37.69 98.77 C 37.01 98.74 35.66 98.68 34.98 98.65 C 35.88 98.59 37.54 97.67 36.29 96.73 C 35.31 95.72 34.01 96.44 33.11 97.11 C 32.57 97.40 31.49 97.98 30.94 98.27 C 32.19 97.05 33.22 94.77 35.44 95.51 C 35.12 95.09 34.49 94.25 34.17 93.82 C 36.42 93.27 35.18 90.83 35.44 89.28 L 36.58 89.45 C 36.57 87.76 36.56 86.06 36.57 84.37 C 36.03 84.51 34.93 84.77 34.39 84.91 L 34.65 83.65 C 32.97 83.63 31.30 83.59 29.63 83.52 C 29.79 84.61 29.41 85.24 28.49 85.40 C 27.46 85.27 26.43 85.13 25.41 84.97 C 24.89 89.36 20.84 92.98 21.72 97.47 C 21.53 97.54 21.14 97.70 20.95 97.77 C 20.27 98.00 18.92 98.45 18.25 98.67 C 16.72 99.10 15.28 99.77 13.93 100.61 C 13.68 100.75 13.19 101.03 12.94 101.17 C 14.60 98.83 17.10 97.38 19.89 96.86 C 20.08 96.24 20.45 94.99 20.64 94.36 L 21.32 94.11 C 21.90 92.55 22.64 91.00 22.51 89.29 L 23.76 89.39 C 23.64 88.89 23.39 87.88 23.27 87.37 L 24.55 87.27 C 24.56 86.30 24.59 84.36 24.61 83.39 L 23.33 83.79 C 23.43 82.95 23.62 81.26 23.72 80.42 L 22.35 80.78 C 22.47 79.33 22.59 77.89 22.71 76.45 L 21.34 76.77 L 21.57 75.37 L 20.13 75.64 C 20.32 75.07 20.69 73.93 20.88 73.37 C 20.21 73.46 18.89 73.65 18.23 73.74 C 18.39 73.15 18.70 71.96 18.86 71.37 L 17.15 71.69 C 17.34 71.12 17.72 69.97 17.91 69.39 L 16.14 69.67 C 16.34 69.11 16.72 67.98 16.91 67.42 L 15.33 67.74 C 15.42 66.90 15.61 65.21 15.70 64.37 L 14.18 64.70 C 15.17 59.22 17.21 53.14 22.35 50.22 C 24.02 49.37 25.92 49.52 27.74 49.36 L 27.44 50.54 C 29.31 50.02 30.47 51.45 31.68 52.56 C 31.62 53.31 31.51 54.80 31.46 55.54 L 32.64 55.39 C 32.65 56.90 32.68 58.41 32.72 59.92 C 32.20 59.80 31.16 59.56 30.64 59.44 L 30.09 61.84 L 31.63 61.23 C 31.58 63.46 31.60 65.70 31.71 67.93 L 30.42 67.19 C 30.45 67.77 30.52 68.91 30.55 69.48 C 28.38 71.85 25.97 74.00 23.82 76.40 L 25.41 76.27 C 25.84 77.38 26.27 78.48 26.70 79.58 C 27.34 79.58 28.62 79.58 29.26 79.58 C 29.41 77.61 29.82 77.67 30.48 79.75 C 29.69 79.91 28.90 80.06 28.11 80.20 C 28.01 81.14 27.80 83.01 27.70 83.94 C 28.75 83.27 29.80 82.60 30.85 81.93 C 33.60 82.83 36.47 83.53 38.88 85.22 C 37.95 82.28 34.62 81.72 31.92 81.89 C 33.78 81.16 35.12 79.87 35.36 77.80 C 34.85 77.92 33.83 78.17 33.32 78.29 L 33.25 77.39 C 33.83 77.45 34.97 77.57 35.54 77.64 C 35.55 75.16 35.55 72.69 35.48 70.21 C 36.20 69.83 36.93 69.45 37.65 69.08 C 37.68 70.41 37.70 71.75 37.72 73.09 C 38.50 73.93 39.24 74.81 40.00 75.68 C 41.59 73.55 43.39 71.41 43.81 68.68 C 42.29 68.70 40.54 68.48 40.24 66.69 C 38.38 66.79 37.28 65.20 36.05 64.09 C 37.26 63.77 38.48 63.50 39.70 63.20 L 39.53 64.86 C 40.06 64.68 41.14 64.33 41.67 64.16 L 41.44 65.55 C 42.52 65.58 44.68 65.64 45.76 65.67 L 45.49 63.74 C 43.77 63.64 43.45 62.25 43.40 60.82 C 41.73 60.47 41.24 59.02 41.50 57.47 L 39.88 57.55 C 40.71 57.08 41.55 56.62 42.39 56.17 C 42.76 56.65 43.50 57.62 43.86 58.10 C 45.67 59.75 47.63 61.31 48.84 63.49 C 49.54 63.55 50.94 63.67 51.64 63.73 C 51.56 61.58 51.55 59.43 51.61 57.28 L 50.40 57.81 C 50.77 55.40 49.51 51.90 52.57 50.92 C 52.56 51.62 52.54 53.02 52.53 53.72 C 53.34 53.63 54.95 53.43 55.76 53.33 L 55.43 54.55 C 56.48 54.58 58.58 54.65 59.63 54.68 C 58.93 52.66 60.51 51.40 61.75 50.12 C 61.69 51.23 61.57 53.46 61.51 54.57 C 62.34 54.60 63.98 54.66 64.81 54.69 L 64.18 53.29 C 65.08 53.42 66.88 53.67 67.78 53.80 L 67.18 52.33 C 68.07 52.41 69.86 52.57 70.75 52.66 C 70.62 51.81 70.38 50.12 70.26 49.28 L 71.63 49.79 L 71.33 48.21 L 72.70 48.74 C 72.45 45.98 72.43 43.20 72.54 40.43 L 71.29 40.51 C 71.38 39.72 71.57 38.13 71.67 37.34 L 70.06 37.55 C 70.28 37.00 70.72 35.92 70.93 35.38 L 69.41 35.77 L 69.61 34.36 L 68.10 34.53 C 68.15 32.64 68.98 31.27 71.08 31.41 C 69.83 31.43 68.57 31.47 67.31 31.47 L 67.71 32.68 C 64.97 32.64 62.01 32.14 59.57 33.75 C 58.04 34.32 55.76 37.12 54.56 34.55 C 54.47 32.47 54.53 30.38 54.58 28.29 C 55.75 27.21 57.32 26.31 57.68 24.62 C 58.54 22.69 60.21 21.21 60.75 19.13 C 61.98 18.18 63.30 17.36 64.62 16.53 M 43.25 59.20 C 43.70 59.76 43.70 59.76 43.25 59.20 M 54.53 59.42 C 54.52 60.53 54.50 61.63 54.47 62.73 C 54.74 62.56 55.29 62.20 55.56 62.03 C 55.53 62.40 55.47 63.15 55.43 63.52 L 57.67 63.74 C 57.66 62.91 57.64 61.25 57.64 60.42 L 56.30 60.67 L 56.59 59.26 C 56.07 59.30 55.05 59.38 54.53 59.42 M 68.41 64.20 C 68.71 67.62 71.43 62.59 68.41 64.20 M 73.86 65.66 C 73.60 67.43 71.91 67.70 70.46 67.95 C 70.89 69.33 71.37 70.69 71.90 72.03 C 72.70 72.73 73.34 73.56 73.84 74.50 C 75.40 74.56 76.96 74.62 78.52 74.68 C 78.31 73.18 79.76 72.47 80.56 71.50 C 80.54 69.04 80.55 66.58 80.66 64.13 C 78.39 64.63 76.21 65.58 73.86 65.66 M 42.61 72.09 C 43.64 72.77 44.66 73.46 45.70 74.13 C 45.86 73.65 46.19 72.70 46.36 72.22 C 47.14 73.26 47.95 74.27 48.82 75.24 C 48.89 73.95 48.96 72.66 49.01 71.37 C 47.99 70.52 46.98 69.66 45.98 68.81 C 44.85 69.90 43.73 71.00 42.61 72.09 M 55.72 74.83 C 58.52 74.08 61.31 73.29 64.14 72.64 C 64.15 70.88 63.23 68.47 61.04 69.00 C 58.89 70.53 56.87 72.42 55.72 74.83 M 71.85 74.17 C 72.70 75.73 73.60 77.25 74.59 78.73 C 77.03 77.80 79.66 77.88 82.23 77.79 C 81.29 77.39 80.34 77.00 79.39 76.62 C 78.24 74.40 75.79 75.24 73.79 75.44 C 73.30 75.13 72.33 74.49 71.85 74.17 M 23.27 75.80 C 23.56 78.15 23.96 80.48 24.45 82.79 C 25.03 82.80 26.19 82.83 26.77 82.84 C 26.83 82.23 26.94 81.03 26.99 80.42 C 24.44 80.34 24.20 77.60 23.27 75.80 M 40.37 85.35 C 40.56 85.68 40.56 85.68 40.37 85.35 M 37.37 86.34 C 36.85 89.26 36.29 92.20 35.04 94.92 C 35.98 95.37 36.92 95.81 37.87 96.26 C 37.79 92.73 38.19 89.21 39.10 85.80 C 38.67 85.93 37.80 86.20 37.37 86.34 M 77.41 86.35 C 77.68 86.61 77.68 86.61 77.41 86.35 M 93.75 101.98 C 95.79 102.01 97.83 101.99 99.87 101.96 C 98.97 101.23 98.06 100.51 97.14 99.81 C 97.03 99.73 96.81 99.58 96.70 99.50 L 96.19 99.10 C 94.59 99.21 94.20 100.68 93.75 101.98 Z" />
</g>
<g id="#cbbcbbff">
<path fill="#cbbcbb" opacity="1.00" d=" M 43.25 59.20 C 43.70 59.76 43.70 59.76 43.25 59.20 Z" />
<path fill="#cbbcbb" opacity="1.00" d=" M 42.12 84.52 C 45.80 84.75 49.38 85.65 53.01 86.22 C 57.36 86.88 61.59 85.27 65.88 84.89 C 68.45 84.96 70.50 86.46 72.07 88.38 C 71.26 88.79 69.66 89.60 68.85 90.00 C 66.71 90.37 64.44 90.65 62.40 89.72 C 59.56 88.41 56.36 89.06 53.37 89.25 C 52.12 89.75 50.76 90.75 49.40 89.92 C 46.63 88.66 43.22 87.75 42.12 84.52 Z" />
<path fill="#cbbcbb" opacity="1.00" d=" M 23.86 96.60 C 24.92 93.48 24.89 89.94 26.79 87.14 C 26.72 88.58 26.65 90.02 26.55 91.46 C 24.62 93.24 27.11 97.62 23.53 97.81 C 23.61 98.55 23.78 100.01 23.86 100.75 C 21.70 100.69 19.54 100.67 17.38 100.64 L 17.40 99.11 C 16.53 99.49 14.80 100.23 13.93 100.61 C 15.28 99.77 16.72 99.10 18.25 98.67 C 19.77 99.35 21.35 99.89 22.97 100.31 C 22.98 99.74 22.99 98.58 23.00 98.00 C 22.49 97.94 21.46 97.83 20.95 97.77 C 21.14 97.70 21.53 97.54 21.72 97.47 C 22.25 97.25 23.33 96.82 23.86 96.60 Z" />
<path fill="#cbbcbb" opacity="1.00" d=" M 33.11 97.11 C 34.01 96.44 35.31 95.72 36.29 96.73 C 37.54 97.67 35.88 98.59 34.98 98.65 C 34.51 98.26 33.58 97.49 33.11 97.11 Z" />
</g>
<g id="#fef7f0ff">
<path fill="#fef7f0" opacity="1.00" d=" M 84.53 62.46 C 85.66 62.39 86.81 62.31 87.95 62.23 C 87.71 62.57 87.23 63.26 86.99 63.60 C 86.87 64.12 86.64 65.16 86.52 65.68 L 85.42 65.75 C 85.50 66.48 85.66 67.95 85.74 68.69 L 84.50 68.70 C 84.53 69.69 84.59 71.65 84.62 72.64 C 84.71 73.79 84.81 74.93 84.92 76.08 C 82.62 76.13 80.49 75.35 78.78 73.82 C 79.51 73.11 80.24 72.39 80.97 71.68 C 81.05 69.54 80.93 67.36 81.43 65.26 C 82.36 64.22 83.47 63.37 84.53 62.46 Z" />
<path fill="#fef7f0" opacity="1.00" d=" M 42.61 72.09 C 43.73 71.00 44.85 69.90 45.98 68.81 C 46.98 69.66 47.99 70.52 49.01 71.37 C 48.96 72.66 48.89 73.95 48.82 75.24 C 47.95 74.27 47.14 73.26 46.36 72.22 C 46.19 72.70 45.86 73.65 45.70 74.13 C 44.66 73.46 43.64 72.77 42.61 72.09 Z" />
<path fill="#fef7f0" opacity="1.00" d=" M 55.72 74.83 C 56.87 72.42 58.89 70.53 61.04 69.00 C 63.23 68.47 64.15 70.88 64.14 72.64 C 61.31 73.29 58.52 74.08 55.72 74.83 Z" />
<path fill="#fef7f0" opacity="1.00" d=" M 62.41 78.82 C 66.60 77.87 69.01 74.47 70.73 70.80 C 70.71 74.61 70.91 79.07 74.83 80.99 C 72.94 84.18 69.27 84.72 65.88 84.89 C 61.59 85.27 57.36 86.88 53.01 86.22 C 49.38 85.65 45.80 84.75 42.12 84.52 C 40.11 82.73 37.37 81.48 36.23 78.90 C 35.85 76.51 36.05 74.08 36.08 71.68 C 37.46 74.17 38.92 76.62 40.41 79.05 C 40.78 78.78 41.53 78.25 41.90 77.98 C 42.05 78.48 42.34 79.49 42.48 79.99 C 43.38 79.06 44.27 78.13 45.17 77.20 C 46.42 78.44 47.42 80.07 49.03 80.87 C 50.62 81.09 52.22 81.07 53.82 81.12 C 54.72 79.69 55.58 78.22 56.65 76.91 C 57.82 77.62 58.91 78.47 60.02 79.28 C 60.04 78.59 60.08 77.19 60.09 76.50 C 60.87 77.27 61.64 78.04 62.41 78.82 Z" />
<path fill="#fef7f0" opacity="1.00" d=" M 71.85 74.17 C 72.33 74.49 73.30 75.13 73.79 75.44 C 75.79 75.24 78.24 74.40 79.39 76.62 C 80.34 77.00 81.29 77.39 82.23 77.79 C 79.66 77.88 77.03 77.80 74.59 78.73 C 73.60 77.25 72.70 75.73 71.85 74.17 Z" />
<path fill="#fef7f0" opacity="1.00" d=" M 23.27 75.80 C 24.20 77.60 24.44 80.34 26.99 80.42 C 26.94 81.03 26.83 82.23 26.77 82.84 C 26.19 82.83 25.03 82.80 24.45 82.79 C 23.96 80.48 23.56 78.15 23.27 75.80 Z" />
<path fill="#fef7f0" opacity="1.00" d=" M 33.32 78.29 C 33.83 78.17 34.85 77.92 35.36 77.80 C 35.12 79.87 33.78 81.16 31.92 81.89 C 34.62 81.72 37.95 82.28 38.88 85.22 C 36.47 83.53 33.60 82.83 30.85 81.93 C 29.80 82.60 28.75 83.27 27.70 83.94 C 27.80 83.01 28.01 81.14 28.11 80.20 C 28.90 80.06 29.69 79.91 30.48 79.75 C 31.19 79.38 32.61 78.66 33.32 78.29 Z" />
<path fill="#fef7f0" opacity="1.00" d=" M 75.54 83.88 C 76.27 83.80 77.74 83.64 78.47 83.57 L 78.40 82.55 C 80.70 82.77 83.16 82.31 85.36 83.23 C 84.73 83.98 84.17 84.77 83.60 85.56 C 80.41 84.68 77.10 84.97 73.88 85.44 C 74.09 86.24 74.29 87.05 74.48 87.86 C 73.03 87.51 71.91 86.44 70.76 85.56 C 72.34 85.11 73.92 84.64 75.51 84.22 L 75.54 83.88 Z" />
<path fill="#fef7f0" opacity="1.00" d=" M 85.72 87.04 C 83.92 85.68 86.76 84.18 87.37 83.03 L 87.71 83.85 C 89.52 89.04 92.83 93.46 96.09 97.81 C 94.92 98.28 93.75 98.75 92.59 99.22 C 91.47 94.64 89.41 90.10 85.72 87.04 Z" />
<path fill="#fef7f0" opacity="1.00" d=" M 25.41 84.97 C 26.43 85.13 27.46 85.27 28.49 85.40 C 28.07 85.84 27.21 86.71 26.79 87.14 C 24.89 89.94 24.92 93.48 23.86 96.60 C 23.33 96.82 22.25 97.25 21.72 97.47 C 20.84 92.98 24.89 89.36 25.41 84.97 Z" />
<path fill="#fef7f0" opacity="1.00" d=" M 37.37 86.34 C 37.80 86.20 38.67 85.93 39.10 85.80 C 38.19 89.21 37.79 92.73 37.87 96.26 C 36.92 95.81 35.98 95.37 35.04 94.92 C 36.29 92.20 36.85 89.26 37.37 86.34 Z" />
<path fill="#fef7f0" opacity="1.00" d=" M 94.58 92.24 C 95.84 93.61 97.37 94.68 98.96 95.62 C 98.95 96.29 98.94 97.64 98.93 98.32 C 96.41 97.26 95.39 94.65 94.58 92.24 Z" />
<path fill="#fef7f0" opacity="1.00" d=" M 18.25 98.67 C 18.92 98.45 20.27 98.00 20.95 97.77 C 21.46 97.83 22.49 97.94 23.00 98.00 C 22.99 98.58 22.98 99.74 22.97 100.31 C 21.35 99.89 19.77 99.35 18.25 98.67 Z" />
<path fill="#fef7f0" opacity="1.00" d=" M 98.93 98.32 C 99.98 97.33 103.07 98.13 101.88 99.85 C 100.78 100.93 98.41 99.96 98.93 98.32 Z" />
<path fill="#fef7f0" opacity="1.00" d=" M 93.75 101.98 C 94.20 100.68 94.59 99.21 96.19 99.10 L 96.70 99.50 L 97.14 99.81 C 98.06 100.51 98.97 101.23 99.87 101.96 C 97.83 101.99 95.79 102.01 93.75 101.98 Z" />
</g>
</svg>
