<?xml version="1.0" encoding="UTF-8" ?>
<!DOCTYPE svg PUBLIC "-//W3C//DTD SVG 1.1//EN" "http://www.w3.org/Graphics/SVG/1.1/DTD/svg11.dtd">
<svg width="96pt" height="96pt" viewBox="0 0 96 96" version="1.1" xmlns="http://www.w3.org/2000/svg">
<g id="#f6ee94ff">
<path fill="#f6ee94" opacity="1.00" d=" M 30.52 21.63 C 31.82 21.08 33.23 21.02 34.62 20.91 C 34.78 21.13 35.11 21.57 35.27 21.79 C 35.60 22.23 36.27 23.12 36.60 23.56 C 36.19 24.50 35.79 25.44 35.39 26.39 C 36.48 27.43 37.56 28.49 38.61 29.57 C 37.92 30.05 36.54 31.00 35.84 31.48 C 35.04 30.34 34.24 29.21 33.46 28.06 C 32.31 28.01 31.15 27.96 30.00 27.92 C 30.80 29.09 31.61 30.27 32.41 31.45 C 30.45 32.97 28.00 33.12 25.62 33.10 L 25.54 33.10 C 24.66 32.19 23.77 31.29 22.86 30.41 C 23.16 29.14 23.18 27.25 24.78 26.88 C 26.14 27.04 27.49 27.24 28.84 27.45 C 28.57 26.17 28.30 24.89 28.06 23.60 C 28.43 22.48 29.66 22.23 30.52 21.63 Z" />
<path fill="#f6ee94" opacity="1.00" d=" M 50.91 26.86 C 51.20 25.32 52.96 25.19 54.15 24.75 C 55.49 26.52 57.06 28.09 58.74 29.53 C 58.83 30.16 59.02 31.42 59.12 32.05 C 56.69 33.34 53.93 33.44 51.24 33.60 C 51.08 33.57 50.76 33.49 50.60 33.46 C 50.62 31.26 50.61 29.05 50.91 26.86 Z" />
<path fill="#f6ee94" opacity="1.00" d=" M 68.17 34.98 C 67.85 33.30 69.94 32.89 71.15 32.89 C 72.55 33.23 73.95 33.58 75.37 33.86 C 76.00 35.61 76.70 37.33 77.60 38.96 C 77.90 39.54 78.51 40.69 78.81 41.26 C 76.43 42.14 74.43 41.59 73.34 39.21 C 72.43 40.41 71.81 41.94 70.48 42.73 C 68.99 43.60 67.78 41.94 66.56 41.35 C 67.22 40.05 67.87 38.75 68.52 37.44 C 68.43 36.83 68.26 35.60 68.17 34.98 Z" />
<path fill="#f6ee94" opacity="1.00" d=" M 21.60 50.18 C 22.59 50.11 23.59 50.03 24.58 49.96 C 25.23 51.19 27.89 52.24 26.58 53.86 C 26.24 53.90 25.58 53.97 25.25 54.00 C 25.98 55.63 26.72 57.25 27.47 58.86 C 25.70 58.23 23.95 57.46 22.08 57.15 C 20.53 57.66 19.74 59.38 18.55 60.42 C 17.67 59.12 16.78 57.83 15.92 56.51 C 15.90 56.00 15.86 54.97 15.84 54.46 C 17.62 52.84 19.72 51.66 21.60 50.18 Z" />
<path fill="#f6ee94" opacity="1.00" d=" M 59.86 67.21 C 60.31 65.50 59.68 62.46 62.00 62.06 C 63.91 62.45 66.61 62.82 67.18 65.05 C 67.52 67.56 64.60 68.13 62.97 69.14 C 61.93 68.50 60.90 67.85 59.86 67.21 Z" />
<path fill="#f6ee94" opacity="1.00" d=" M 26.67 67.82 C 26.89 65.74 27.82 63.34 30.41 63.94 C 31.98 64.20 33.56 64.42 35.13 64.63 C 34.29 66.59 33.67 69.54 31.03 69.63 C 29.49 69.26 28.10 68.46 26.67 67.82 Z" />
</g>
<g id="#d3bf3fff">
<path fill="#d3bf3f" opacity="1.00" d=" M 35.27 21.79 C 38.25 22.42 38.99 25.66 40.93 27.55 C 40.97 28.58 41.00 29.60 41.04 30.63 C 39.85 31.75 38.56 32.80 37.01 33.38 C 36.99 33.79 36.94 34.60 36.92 35.00 L 35.99 35.00 C 36.06 34.56 36.21 33.67 36.28 33.23 C 37.42 31.80 39.53 30.88 39.89 29.00 C 39.22 26.96 37.81 25.29 36.60 23.56 C 36.27 23.12 35.60 22.23 35.27 21.79 Z" />
<path fill="#d3bf3f" opacity="1.00" d=" M 77.60 38.96 C 80.13 39.06 80.03 41.61 80.08 43.48 C 78.82 44.66 77.61 45.88 76.45 47.16 C 75.46 47.05 74.53 46.74 73.67 46.24 C 72.24 46.48 71.57 48.08 70.58 48.99 C 69.53 48.99 68.48 48.99 67.43 48.98 C 65.95 47.51 64.29 46.08 63.67 44.01 C 63.21 43.98 62.29 43.93 61.83 43.90 L 62.27 42.16 C 64.33 43.94 65.99 46.19 68.24 47.74 C 70.93 47.57 72.98 44.97 75.85 45.19 C 78.02 45.29 78.81 43.06 78.81 41.26 C 78.51 40.69 77.90 39.54 77.60 38.96 Z" />
<path fill="#d3bf3f" opacity="1.00" d=" M 33.75 61.85 C 35.04 62.61 36.53 63.39 37.02 64.93 C 36.28 67.43 34.32 69.19 32.57 70.99 C 31.50 71.00 30.44 71.01 29.37 71.02 C 28.47 69.95 27.56 68.89 26.67 67.82 C 28.10 68.46 29.49 69.26 31.03 69.63 C 33.67 69.54 34.29 66.59 35.13 64.63 C 33.56 64.42 31.98 64.20 30.41 63.94 L 29.54 63.41 C 31.14 63.34 32.54 62.81 33.75 61.85 Z" />
</g>
<g id="#dac54aff">
<path fill="#dac54a" opacity="1.00" d=" M 24.78 26.88 C 25.84 25.76 26.94 24.67 28.06 23.60 C 28.30 24.89 28.57 26.17 28.84 27.45 C 27.49 27.24 26.14 27.04 24.78 26.88 Z" />
</g>
<g id="#eed56aff">
<path fill="#eed56a" opacity="1.00" d=" M 36.60 23.56 C 37.81 25.29 39.22 26.96 39.89 29.00 C 39.53 30.88 37.42 31.80 36.28 33.23 C 36.21 33.67 36.06 34.56 35.99 35.00 L 35.82 36.15 C 33.45 33.94 30.97 36.70 28.45 35.38 C 27.50 34.63 26.55 33.88 25.62 33.10 C 28.00 33.12 30.45 32.97 32.41 31.45 C 31.61 30.27 30.80 29.09 30.00 27.92 C 31.15 27.96 32.31 28.01 33.46 28.06 C 34.24 29.21 35.04 30.34 35.84 31.48 C 36.54 31.00 37.92 30.05 38.61 29.57 C 37.56 28.49 36.48 27.43 35.39 26.39 C 35.79 25.44 36.19 24.50 36.60 23.56 Z" />
<path fill="#eed56a" opacity="1.00" d=" M 64.98 35.00 C 65.78 35.00 67.37 34.99 68.17 34.98 C 68.26 35.60 68.43 36.83 68.52 37.44 C 67.87 38.75 67.22 40.05 66.56 41.35 C 67.78 41.94 68.99 43.60 70.48 42.73 C 71.81 41.94 72.43 40.41 73.34 39.21 C 74.43 41.59 76.43 42.14 78.81 41.26 C 78.81 43.06 78.02 45.29 75.85 45.19 C 72.98 44.97 70.93 47.57 68.24 47.74 C 65.99 46.19 64.33 43.94 62.27 42.16 L 62.29 42.15 L 63.16 41.83 C 64.56 41.27 64.57 40.69 63.17 40.09 C 63.11 39.21 63.00 37.45 62.94 36.57 L 63.97 37.47 C 64.02 37.88 64.11 38.70 64.15 39.11 C 64.76 38.99 65.98 38.75 66.59 38.63 C 66.71 37.99 66.97 36.70 67.09 36.05 C 66.58 36.05 65.56 36.03 65.05 36.02 L 64.98 35.00 Z" />
<path fill="#eed56a" opacity="1.00" d=" M 25.25 54.00 C 25.58 53.97 26.24 53.90 26.58 53.86 C 28.52 53.47 29.61 54.98 30.23 56.56 L 30.65 57.66 C 30.73 57.87 30.90 58.29 30.98 58.50 L 30.16 59.03 C 28.50 59.92 27.39 61.45 26.30 62.93 C 23.44 62.00 20.53 61.19 17.53 60.85 L 17.39 60.82 C 15.59 59.61 14.51 57.82 14.93 55.58 L 15.92 56.51 C 16.78 57.83 17.67 59.12 18.55 60.42 C 19.74 59.38 20.53 57.66 22.08 57.15 C 23.95 57.46 25.70 58.23 27.47 58.86 C 26.72 57.25 25.98 55.63 25.25 54.00 Z" />
</g>
<g id="#d3c345ff">
<path fill="#d3c345" opacity="1.00" d=" M 54.15 24.75 C 56.63 25.55 58.15 27.78 59.99 29.47 C 59.98 29.98 59.98 31.01 59.98 31.52 C 58.80 32.67 57.65 33.83 56.52 35.02 C 56.04 34.97 55.09 34.88 54.61 34.84 C 53.77 34.53 52.09 33.91 51.24 33.60 C 53.93 33.44 56.69 33.34 59.12 32.05 C 59.02 31.42 58.83 30.16 58.74 29.53 C 57.06 28.09 55.49 26.52 54.15 24.75 Z" />
</g>
<g id="#cfbc39ff">
<path fill="#cfbc39" opacity="1.00" d=" M 48.78 28.43 C 49.31 28.04 50.38 27.25 50.91 26.86 C 50.61 29.05 50.62 31.26 50.60 33.46 L 50.26 33.38 C 49.71 31.75 49.20 30.10 48.78 28.43 Z" />
</g>
<g id="#cbb932ff">
<path fill="#cbb932" opacity="1.00" d=" M 71.15 32.89 C 71.78 30.78 76.51 32.11 76.72 33.91 C 76.39 33.90 75.71 33.87 75.37 33.86 C 73.95 33.58 72.55 33.23 71.15 32.89 Z" />
</g>
<g id="#5e3551ff">
<path fill="#5e3551" opacity="1.00" d=" M 47.52 32.86 C 48.20 32.99 49.58 33.25 50.26 33.38 L 50.60 33.46 C 50.76 33.49 51.08 33.57 51.24 33.60 C 51.69 34.02 52.60 34.87 53.05 35.29 C 52.98 35.87 52.86 37.03 52.79 37.61 C 54.37 37.86 55.39 38.99 56.30 40.20 C 54.14 39.31 51.98 38.44 49.81 37.60 C 50.21 37.24 51.01 36.53 51.41 36.18 C 51.04 35.78 50.31 34.98 49.94 34.58 C 49.14 33.24 46.97 33.92 46.83 35.41 L 47.09 36.11 C 46.98 36.26 46.75 36.58 46.64 36.74 C 45.79 36.85 44.10 37.08 43.25 37.19 L 42.98 36.41 C 44.88 35.78 46.31 34.40 47.52 32.86 Z" />
</g>
<g id="#de9cd5ff">
<path fill="#de9cd5" opacity="1.00" d=" M 46.83 35.41 C 46.97 33.92 49.14 33.24 49.94 34.58 C 49.09 35.25 48.14 35.76 47.09 36.11 L 46.83 35.41 Z" />
<path fill="#de9cd5" opacity="1.00" d=" M 35.26 37.49 C 35.69 37.15 36.54 36.48 36.96 36.14 C 38.06 37.30 37.86 39.26 36.26 39.80 C 36.01 39.22 35.51 38.07 35.26 37.49 Z" />
<path fill="#de9cd5" opacity="1.00" d=" M 43.25 37.19 C 44.10 37.08 45.79 36.85 46.64 36.74 C 47.04 38.82 46.14 40.64 44.92 42.26 C 43.02 41.18 41.13 40.09 39.19 39.09 C 39.72 38.75 40.77 38.07 41.30 37.74 C 41.78 37.60 42.76 37.33 43.25 37.19 Z" />
</g>
<g id="#dec851ff">
<path fill="#dec851" opacity="1.00" d=" M 75.37 33.86 C 75.71 33.87 76.39 33.90 76.72 33.91 C 77.36 34.27 78.63 34.99 79.27 35.36 C 79.04 36.70 78.57 37.96 77.60 38.96 C 76.70 37.33 76.00 35.61 75.37 33.86 Z" />
</g>
<g id="#bd7bb4ff">
<path fill="#bd7bb4" opacity="1.00" d=" M 47.09 36.11 C 48.14 35.76 49.09 35.25 49.94 34.58 C 50.31 34.98 51.04 35.78 51.41 36.18 C 51.01 36.53 50.21 37.24 49.81 37.60 C 51.98 38.44 54.14 39.31 56.30 40.20 L 56.85 40.42 L 56.94 41.62 C 56.73 44.62 59.08 41.70 59.74 40.68 C 60.38 41.05 61.65 41.78 62.29 42.15 L 62.27 42.16 C 60.59 43.32 58.86 44.83 58.83 47.06 C 58.43 48.92 58.43 50.84 58.75 52.71 C 58.01 53.14 57.28 53.57 56.56 54.02 L 56.37 54.27 C 56.17 54.96 55.77 56.35 55.57 57.04 C 53.86 56.86 52.17 56.58 50.47 56.30 C 49.67 56.51 48.87 56.74 48.08 56.99 C 47.67 56.97 46.85 56.94 46.44 56.93 C 46.62 55.87 46.79 54.82 46.97 53.76 C 47.04 50.19 42.75 50.63 40.34 51.16 C 38.23 51.90 39.40 53.93 39.74 55.46 L 39.85 55.82 C 39.27 56.07 38.10 56.58 37.52 56.83 C 34.63 54.58 32.35 51.71 31.31 48.16 L 32.76 48.00 C 33.19 46.46 33.59 44.91 34.00 43.37 C 34.38 43.42 35.14 43.53 35.52 43.59 C 37.75 43.91 40.00 44.06 42.25 44.17 C 41.77 43.13 41.28 42.10 40.80 41.07 C 39.91 41.01 38.14 40.88 37.25 40.82 C 37.55 40.51 38.15 39.89 38.45 39.57 C 38.64 39.45 39.01 39.21 39.19 39.09 C 41.13 40.09 43.02 41.18 44.92 42.26 C 46.14 40.64 47.04 38.82 46.64 36.74 C 46.75 36.58 46.98 36.26 47.09 36.11 M 48.02 40.28 L 48.80 40.43 C 48.00 41.59 47.29 42.80 46.67 44.07 C 48.95 43.84 51.65 44.72 53.57 43.15 L 54.05 43.86 C 53.54 42.76 53.36 41.46 52.59 40.49 C 51.12 40.05 49.54 40.33 48.02 40.28 M 38.38 45.18 L 40.08 45.98 C 39.80 46.27 39.24 46.85 38.96 47.14 L 38.83 46.36 C 38.44 46.30 37.64 46.18 37.25 46.12 C 36.56 46.09 35.19 46.02 34.51 45.99 C 35.99 47.95 38.04 49.41 40.64 49.14 L 41.18 49.11 C 41.93 50.90 45.44 50.53 46.89 49.51 L 46.83 49.18 L 47.51 49.30 C 50.66 49.21 53.08 47.18 55.13 45.02 C 53.69 45.38 52.25 45.76 50.82 46.12 L 49.95 45.72 L 51.05 45.19 C 46.84 44.81 42.60 44.93 38.38 45.18 M 53.32 52.06 C 53.31 55.39 56.38 50.66 53.32 52.06 Z" />
<path fill="#bd7bb4" opacity="1.00" d=" M 29.81 48.26 L 30.04 48.25 C 29.98 48.25 29.86 48.26 29.80 48.27 L 29.81 48.26 Z" />
<path fill="#bd7bb4" opacity="1.00" d=" M 40.71 53.75 C 41.95 51.22 44.14 52.45 45.84 53.75 C 45.10 54.05 43.62 54.66 42.87 54.96 C 42.33 54.66 41.25 54.05 40.71 53.75 Z" />
</g>
<g id="#5c3456ff">
<path fill="#5c3456" opacity="1.00" d=" M 36.96 36.14 C 37.88 36.13 38.74 36.35 39.55 36.80 C 39.98 37.04 40.86 37.50 41.30 37.74 C 40.77 38.07 39.72 38.75 39.19 39.09 C 39.01 39.21 38.64 39.45 38.45 39.57 C 38.15 39.89 37.55 40.51 37.25 40.82 C 36.64 41.72 36.08 42.65 35.52 43.59 C 35.14 43.53 34.38 43.42 34.00 43.37 C 33.59 44.91 33.19 46.46 32.76 48.00 L 31.31 48.16 L 30.04 48.25 L 29.81 48.26 L 29.80 48.27 C 29.56 48.78 29.08 49.81 28.84 50.33 L 27.96 51.42 C 27.41 48.67 28.92 46.62 31.76 46.79 C 32.39 44.75 33.49 42.89 35.07 41.42 C 35.13 40.11 35.19 38.80 35.26 37.49 C 35.51 38.07 36.01 39.22 36.26 39.80 C 37.86 39.26 38.06 37.30 36.96 36.14 Z" />
</g>
<g id="#f5eb8fff">
<path fill="#f5eb8f" opacity="1.00" d=" M 63.85 36.00 L 65.05 36.02 C 65.56 36.03 66.58 36.05 67.09 36.05 C 66.97 36.70 66.71 37.99 66.59 38.63 C 65.98 38.75 64.76 38.99 64.15 39.11 C 64.11 38.70 64.02 37.88 63.97 37.47 L 63.85 36.00 Z" />
</g>
<g id="#5f3458ff">
<path fill="#5f3458" opacity="1.00" d=" M 56.94 41.62 C 57.52 40.28 58.42 39.78 59.65 40.13 L 59.74 40.68 C 59.08 41.70 56.73 44.62 56.94 41.62 Z" />
</g>
<g id="#c5b429ff">
<path fill="#c5b429" opacity="1.00" d=" M 63.17 40.09 C 64.57 40.69 64.56 41.27 63.16 41.83 C 63.16 41.39 63.17 40.52 63.17 40.09 Z" />
</g>
<g id="#f8f8f8ff">
<path fill="#f8f8f8" opacity="1.00" d=" M 35.52 43.59 C 36.08 42.65 36.64 41.72 37.25 40.82 C 38.14 40.88 39.91 41.01 40.80 41.07 C 41.28 42.10 41.77 43.13 42.25 44.17 C 40.00 44.06 37.75 43.91 35.52 43.59 M 39.23 42.22 C 39.81 42.80 39.81 42.80 39.23 42.22 Z" />
<path fill="#f8f8f8" opacity="1.00" d=" M 48.80 40.43 C 50.69 40.66 52.68 41.31 53.57 43.15 C 51.65 44.72 48.95 43.84 46.67 44.07 C 47.29 42.80 48.00 41.59 48.80 40.43 M 49.23 42.22 C 49.80 42.80 49.80 42.80 49.23 42.22 Z" />
</g>
<g id="#101010ff">
<path fill="#101010" opacity="1.00" d=" M 39.23 42.22 C 39.81 42.80 39.81 42.80 39.23 42.22 Z" />
<path fill="#101010" opacity="1.00" d=" M 49.23 42.22 C 49.80 42.80 49.80 42.80 49.23 42.22 Z" />
<path fill="#101010" opacity="1.00" d=" M 33.42 58.21 C 33.64 58.41 33.64 58.41 33.42 58.21 Z" />
<path fill="#101010" opacity="1.00" d=" M 33.12 60.60 C 33.83 59.31 34.44 59.35 34.94 60.74 C 34.49 60.70 33.58 60.64 33.12 60.60 Z" />
<path fill="#101010" opacity="1.00" d=" M 40.51 66.43 C 40.55 66.47 40.64 66.54 40.69 66.57 C 40.64 66.54 40.55 66.47 40.51 66.43 Z" />
</g>
<g id="#2e1c2bff">
<path fill="#2e1c2b" opacity="1.00" d=" M 58.83 47.06 C 58.86 44.83 60.59 43.32 62.27 42.16 L 61.83 43.90 C 61.50 44.98 60.63 45.79 60.13 46.79 C 60.87 48.73 61.11 50.78 60.88 52.84 C 60.19 50.92 59.49 48.99 58.83 47.06 Z" />
</g>
<g id="#5a2952ff">
<path fill="#5a2952" opacity="1.00" d=" M 38.38 45.18 C 42.60 44.93 46.84 44.81 51.05 45.19 L 49.95 45.72 C 49.57 45.85 48.81 46.11 48.43 46.24 C 46.54 46.19 44.65 46.16 42.76 46.11 C 42.09 46.08 40.75 46.01 40.08 45.98 L 38.38 45.18 Z" />
<path fill="#5a2952" opacity="1.00" d=" M 41.18 49.11 C 43.06 48.96 44.97 48.79 46.83 49.18 L 46.89 49.51 C 45.44 50.53 41.93 50.90 41.18 49.11 Z" />
<path fill="#5a2952" opacity="1.00" d=" M 53.32 52.06 C 56.38 50.66 53.31 55.39 53.32 52.06 Z" />
</g>
<g id="#83477aff">
<path fill="#83477a" opacity="1.00" d=" M 50.82 46.12 C 52.25 45.76 53.69 45.38 55.13 45.02 C 53.08 47.18 50.66 49.21 47.51 49.30 C 47.90 48.81 48.67 47.84 49.05 47.35 C 49.55 47.43 50.54 47.58 51.03 47.65 C 50.98 47.27 50.87 46.50 50.82 46.12 Z" />
</g>
<g id="#7c4374ff">
<path fill="#7c4374" opacity="1.00" d=" M 34.51 45.99 C 35.19 46.02 36.56 46.09 37.25 46.12 C 37.15 46.51 36.95 47.28 36.86 47.67 C 37.38 47.54 38.43 47.27 38.96 47.14 C 39.16 47.41 39.57 47.96 39.78 48.23 L 40.64 49.14 C 38.04 49.41 35.99 47.95 34.51 45.99 Z" />
</g>
<g id="#f4f4f4ff">
<path fill="#f4f4f4" opacity="1.00" d=" M 37.25 46.12 C 37.64 46.18 38.44 46.30 38.83 46.36 L 38.96 47.14 C 38.43 47.27 37.38 47.54 36.86 47.67 C 36.95 47.28 37.15 46.51 37.25 46.12 Z" />
</g>
<g id="#d53920ff">
<path fill="#d53920" opacity="1.00" d=" M 40.08 45.98 C 40.75 46.01 42.09 46.08 42.76 46.11 C 41.93 47.01 40.98 47.88 39.78 48.23 C 39.57 47.96 39.16 47.41 38.96 47.14 C 39.24 46.85 39.80 46.27 40.08 45.98 Z" />
</g>
<g id="#ff624aff">
<path fill="#ff624a" opacity="1.00" d=" M 42.76 46.11 C 44.65 46.16 46.54 46.19 48.43 46.24 C 48.58 46.52 48.89 47.07 49.05 47.35 C 48.67 47.84 47.90 48.81 47.51 49.30 L 46.83 49.18 C 44.97 48.79 43.06 48.96 41.18 49.11 L 40.64 49.14 L 39.78 48.23 C 40.98 47.88 41.93 47.01 42.76 46.11 Z" />
</g>
<g id="#e4d4e2ff">
<path fill="#e4d4e2" opacity="1.00" d=" M 48.43 46.24 C 48.81 46.11 49.57 45.85 49.95 45.72 L 50.82 46.12 C 50.87 46.50 50.98 47.27 51.03 47.65 C 50.54 47.58 49.55 47.43 49.05 47.35 C 48.89 47.07 48.58 46.52 48.43 46.24 Z" />
</g>
<g id="#94528bff">
<path fill="#94528b" opacity="1.00" d=" M 30.04 48.25 L 31.31 48.16 C 32.35 51.71 34.63 54.58 37.52 56.83 C 38.71 57.75 39.99 58.56 41.34 59.26 C 39.49 60.23 38.28 61.94 37.29 63.72 C 36.50 62.73 35.65 61.78 34.94 60.74 C 34.44 59.35 33.83 59.31 33.12 60.60 L 32.43 61.11 C 32.07 60.46 31.34 59.15 30.98 58.50 C 30.90 58.29 30.73 57.87 30.65 57.66 L 32.39 56.77 C 34.08 55.62 32.46 53.31 31.64 52.07 L 31.23 52.04 C 30.61 51.98 29.37 51.87 28.75 51.82 L 28.84 50.33 C 29.08 49.81 29.56 48.78 29.80 48.27 C 29.86 48.26 29.98 48.25 30.04 48.25 M 33.42 58.21 C 33.64 58.41 33.64 58.41 33.42 58.21 Z" />
<path fill="#94528b" opacity="1.00" d=" M 58.75 52.71 C 58.43 50.84 58.43 48.92 58.83 47.06 C 59.49 48.99 60.19 50.92 60.88 52.84 L 60.97 53.09 C 60.75 53.37 60.30 53.93 60.07 54.20 C 58.89 55.88 58.04 57.76 57.12 59.59 C 57.43 60.31 58.05 61.75 58.35 62.48 C 58.00 62.74 57.28 63.26 56.92 63.52 L 55.99 64.19 C 54.94 63.87 53.88 63.55 52.82 63.23 C 49.57 64.13 46.26 64.81 42.91 65.17 L 43.00 66.00 C 43.75 66.00 45.26 66.02 46.01 66.02 C 44.81 66.65 43.61 67.27 42.41 67.90 C 41.98 67.56 41.12 66.90 40.69 66.57 C 40.64 66.54 40.55 66.47 40.51 66.43 C 40.03 66.05 39.07 65.28 38.59 64.90 C 39.81 64.76 41.04 64.63 42.27 64.51 C 40.71 64.52 39.27 64.13 37.97 63.32 C 39.38 62.59 40.67 61.53 42.22 61.10 C 44.27 61.51 46.15 62.48 48.14 63.07 C 49.20 61.10 45.63 60.49 44.46 59.34 C 46.12 59.66 47.74 58.66 48.08 56.99 C 48.87 56.74 49.67 56.51 50.47 56.30 C 50.97 56.60 51.95 57.19 52.45 57.49 C 53.60 57.34 54.75 57.19 55.91 57.02 C 56.12 56.02 56.34 55.02 56.56 54.02 C 57.28 53.57 58.01 53.14 58.75 52.71 Z" />
</g>
<g id="#f1e98dff">
<path fill="#f1e98d" opacity="1.00" d=" M 40.34 51.16 C 42.75 50.63 47.04 50.19 46.97 53.76 C 46.69 53.76 46.12 53.75 45.84 53.75 C 44.14 52.45 41.95 51.22 40.71 53.75 C 40.47 54.18 39.98 55.03 39.74 55.46 C 39.40 53.93 38.23 51.90 40.34 51.16 Z" />
<path fill="#f1e98d" opacity="1.00" d=" M 46.44 56.93 C 46.85 56.94 47.67 56.97 48.08 56.99 C 47.74 58.66 46.12 59.66 44.46 59.34 L 43.82 58.98 C 44.58 58.16 45.46 57.47 46.44 56.93 Z" />
</g>
<g id="#0d0d0dd5">
<path fill="#0d0d0d" opacity="0.84" d=" M 31.23 52.04 L 31.64 52.07 C 32.46 53.31 34.08 55.62 32.39 56.77 C 31.41 55.56 30.62 53.56 31.23 52.04 Z" />
</g>
<g id="#d5cd6aff">
<path fill="#d5cd6a" opacity="1.00" d=" M 40.71 53.75 C 41.25 54.05 42.33 54.66 42.87 54.96 C 43.62 54.66 45.10 54.05 45.84 53.75 C 46.12 53.75 46.69 53.76 46.97 53.76 C 46.79 54.82 46.62 55.87 46.44 56.93 C 44.49 56.57 42.51 56.47 40.55 56.77 C 40.37 56.53 40.02 56.06 39.85 55.82 L 39.74 55.46 C 39.98 55.03 40.47 54.18 40.71 53.75 Z" />
</g>
<g id="#2c1c2aff">
<path fill="#2c1c2a" opacity="1.00" d=" M 57.12 59.59 C 58.04 57.76 58.89 55.88 60.07 54.20 C 60.00 54.74 59.87 55.82 59.80 56.36 C 58.81 58.15 59.04 60.23 58.75 62.19 L 58.35 62.48 C 58.05 61.75 57.43 60.31 57.12 59.59 Z" />
</g>
<g id="#efe098ff">
<path fill="#efe098" opacity="1.00" d=" M 37.52 56.83 C 38.10 56.58 39.27 56.07 39.85 55.82 C 40.02 56.06 40.37 56.53 40.55 56.77 C 41.02 57.36 41.96 58.54 42.44 59.13 L 41.34 59.26 C 39.99 58.56 38.71 57.75 37.52 56.83 Z" />
</g>
<g id="#9d5b94ff">
<path fill="#9d5b94" opacity="1.00" d=" M 40.55 56.77 C 42.51 56.47 44.49 56.57 46.44 56.93 C 45.46 57.47 44.58 58.16 43.82 58.98 C 43.48 59.02 42.78 59.09 42.44 59.13 C 41.96 58.54 41.02 57.36 40.55 56.77 Z" />
</g>
<g id="#d0bd3bff">
<path fill="#d0bd3b" opacity="1.00" d=" M 26.30 62.93 C 27.39 61.45 28.50 59.92 30.16 59.03 C 29.20 60.84 28.02 62.51 26.66 64.03 C 25.57 64.02 24.48 64.00 23.39 63.99 C 22.95 63.50 22.09 62.52 21.66 62.03 C 20.26 61.76 18.30 62.52 17.53 60.85 C 20.53 61.19 23.44 62.00 26.30 62.93 Z" />
</g>
<g id="#dad270ff">
<path fill="#dad270" opacity="1.00" d=" M 41.34 59.26 L 42.44 59.13 C 42.78 59.09 43.48 59.02 43.82 58.98 L 44.46 59.34 C 45.63 60.49 49.20 61.10 48.14 63.07 C 46.15 62.48 44.27 61.51 42.22 61.10 C 40.67 61.53 39.38 62.59 37.97 63.32 L 37.29 63.72 C 38.28 61.94 39.49 60.23 41.34 59.26 Z" />
</g>
<g id="#edd56aff">
<path fill="#edd56a" opacity="1.00" d=" M 58.75 62.19 C 60.38 61.01 62.98 60.18 64.55 61.94 C 65.28 61.95 66.76 61.97 67.50 61.97 C 69.68 64.73 69.66 69.41 66.00 70.88 C 63.12 71.92 58.97 74.65 56.45 71.54 C 54.25 69.24 57.24 67.14 58.66 65.45 C 58.08 64.81 57.50 64.16 56.92 63.52 C 57.28 63.26 58.00 62.74 58.35 62.48 L 58.75 62.19 M 59.86 67.21 C 60.90 67.85 61.93 68.50 62.97 69.14 C 64.60 68.13 67.52 67.56 67.18 65.05 C 66.61 62.82 63.91 62.45 62.00 62.06 C 59.68 62.46 60.31 65.50 59.86 67.21 M 58.06 68.27 C 56.45 68.68 57.33 71.26 58.85 70.79 C 60.47 70.37 59.60 67.78 58.06 68.27 Z" />
</g>
<g id="#b4a32fdf">
<path fill="#b4a32f" opacity="0.87" d=" M 67.50 61.97 C 68.35 62.78 69.20 63.59 70.09 64.36 C 70.02 65.77 70.00 67.20 69.49 68.54 C 68.63 69.72 67.72 70.85 66.80 71.97 C 63.39 71.02 61.77 74.96 58.39 74.07 C 57.31 72.87 56.19 71.71 55.02 70.61 C 55.01 70.03 54.98 68.86 54.97 68.27 C 55.49 67.87 56.51 67.06 57.03 66.66 C 57.00 65.87 56.95 64.30 56.92 63.52 C 57.50 64.16 58.08 64.81 58.66 65.45 C 57.24 67.14 54.25 69.24 56.45 71.54 C 58.97 74.65 63.12 71.92 66.00 70.88 C 69.66 69.41 69.68 64.73 67.50 61.97 Z" />
</g>
<g id="#21171fff">
<path fill="#21171f" opacity="1.00" d=" M 42.91 65.17 C 46.26 64.81 49.57 64.13 52.82 63.23 C 53.88 63.55 54.94 63.87 55.99 64.19 L 55.91 65.21 C 54.70 65.13 53.60 64.77 52.61 64.12 C 51.33 64.96 49.83 65.03 48.36 65.10 C 47.42 66.06 46.49 67.04 45.56 68.02 C 44.77 67.99 43.20 67.93 42.41 67.90 C 43.61 67.27 44.81 66.65 46.01 66.02 C 45.26 66.02 43.75 66.00 43.00 66.00 L 42.91 65.17 Z" />
</g>
<g id="#f4e98cff">
<path fill="#f4e98c" opacity="1.00" d=" M 58.06 68.27 C 59.60 67.78 60.47 70.37 58.85 70.79 C 57.33 71.26 56.45 68.68 58.06 68.27 Z" />
</g>
</svg>
