<?xml version="1.0" encoding="UTF-8" ?>
<!DOCTYPE svg PUBLIC "-//W3C//DTD SVG 1.1//EN" "http://www.w3.org/Graphics/SVG/1.1/DTD/svg11.dtd">
<svg width="120pt" height="120pt" viewBox="0 0 120 120" version="1.1" xmlns="http://www.w3.org/2000/svg">
<g id="#f0a46aff">
<path fill="#f0a46a" opacity="1.00" d=" M 31.99 34.82 C 34.39 30.43 41.09 32.52 42.99 36.40 C 40.55 36.77 39.37 38.87 38.50 40.93 C 39.24 42.79 39.76 44.77 40.97 46.40 C 42.87 45.92 43.88 43.84 45.61 42.93 C 45.59 45.16 45.57 47.40 45.61 49.63 C 42.41 52.39 38.95 55.47 38.61 59.99 C 39.60 61.85 40.23 65.20 43.00 64.59 C 45.75 64.59 47.05 61.54 49.08 60.10 C 49.04 60.80 48.96 62.20 48.92 62.90 C 50.62 63.46 52.41 63.73 54.15 63.19 C 53.51 64.08 52.86 64.97 52.19 65.84 C 54.70 66.69 57.35 66.42 59.91 65.97 C 59.53 65.47 58.79 64.47 58.41 63.97 C 60.81 64.11 63.22 64.33 65.57 64.85 C 65.48 64.39 65.31 63.45 65.23 62.98 C 65.67 62.92 66.55 62.79 67.00 62.73 C 68.01 63.74 68.94 64.91 70.25 65.54 C 71.52 65.43 72.76 65.12 74.00 64.87 C 72.09 62.73 69.45 60.66 66.42 61.91 C 65.37 60.48 63.63 58.18 61.68 59.55 C 59.64 60.09 59.18 62.31 58.41 63.97 L 58.24 63.22 C 58.22 62.09 58.24 60.95 58.24 59.82 C 57.09 57.54 55.81 55.25 55.30 52.72 C 55.35 55.22 54.99 57.70 54.60 60.16 C 53.16 59.71 51.71 59.25 50.25 58.87 L 50.21 58.40 C 51.65 58.46 53.10 58.53 54.54 58.59 C 54.51 56.56 54.51 54.53 54.59 52.51 C 55.04 52.47 55.95 52.41 56.40 52.37 C 56.89 54.70 57.91 56.86 59.01 58.95 C 61.39 57.63 60.32 54.66 60.59 52.49 C 61.06 52.45 62.01 52.38 62.48 52.34 C 62.41 55.47 63.98 58.20 66.00 60.48 C 70.22 59.58 73.66 62.18 76.16 65.26 C 77.01 65.37 78.71 65.59 79.56 65.70 C 79.55 63.10 80.12 60.01 77.53 58.40 C 77.51 57.79 77.47 56.58 77.46 55.98 C 74.52 54.56 72.30 52.04 69.38 50.60 C 69.82 47.77 68.86 44.70 70.31 42.08 C 71.59 45.41 74.32 48.43 78.21 47.66 C 79.08 45.08 81.25 42.86 81.34 40.08 C 79.28 37.66 76.22 36.27 73.03 36.60 C 76.99 33.11 83.86 30.27 88.02 34.98 C 92.56 38.75 89.89 44.89 89.50 49.77 C 89.19 53.29 85.81 55.23 82.71 55.98 C 82.40 59.72 83.26 63.68 82.26 67.28 C 80.16 67.99 77.89 67.61 75.72 67.69 C 75.69 69.34 75.66 71.00 75.62 72.65 C 78.10 72.06 80.58 71.42 82.95 70.48 C 84.56 74.16 86.27 77.95 89.44 80.58 C 90.98 82.47 93.75 82.70 95.18 84.70 C 94.35 84.72 92.71 84.74 91.89 84.76 C 92.28 88.01 88.56 86.30 86.60 86.66 C 85.67 82.78 84.91 78.63 82.08 75.61 C 79.29 75.66 76.40 75.39 73.80 76.60 C 70.88 75.65 68.05 77.43 65.21 77.44 C 60.68 75.89 55.88 77.04 51.23 76.54 C 48.92 75.62 46.69 74.22 44.08 74.65 C 43.78 75.29 43.19 76.56 42.89 77.20 C 42.97 76.56 43.13 75.29 43.21 74.65 C 42.55 75.47 41.90 76.30 41.26 77.14 C 41.34 76.27 41.51 74.52 41.59 73.64 C 39.26 73.80 36.42 72.92 34.72 75.06 C 34.82 74.21 35.01 72.49 35.10 71.64 C 33.98 73.70 33.11 75.89 32.23 78.07 C 32.71 75.92 33.20 73.77 33.72 71.63 C 37.01 69.22 40.98 71.19 44.51 71.72 C 44.03 70.09 43.51 68.46 43.20 66.78 C 41.31 66.63 39.19 66.74 37.67 65.39 C 37.15 63.91 36.83 62.38 36.50 60.86 C 35.44 56.26 31.22 53.28 29.60 49.00 C 29.68 44.21 28.34 38.67 31.99 34.82 M 75.96 35.57 C 78.30 36.49 81.75 37.06 82.30 40.00 C 81.88 43.11 79.85 45.71 79.22 48.76 C 81.34 50.70 86.53 50.78 87.31 47.32 C 88.57 43.35 90.57 37.56 86.18 34.83 C 83.23 31.87 78.92 33.63 75.96 35.57 M 38.18 55.41 C 37.19 55.02 35.15 55.49 35.71 56.93 C 36.48 58.54 39.81 56.36 38.18 55.41 M 78.01 55.94 C 78.00 56.47 77.98 57.52 77.96 58.05 C 79.44 58.02 80.92 58.02 82.40 58.05 C 82.63 55.27 79.81 56.15 78.01 55.94 M 37.29 58.47 C 36.58 59.46 36.75 61.62 38.03 62.01 C 38.62 61.06 38.73 58.57 37.29 58.47 M 79.89 58.67 C 79.98 61.34 79.09 65.18 82.36 66.32 C 81.65 63.74 81.79 60.77 79.89 58.67 M 38.03 62.01 C 37.30 63.35 37.58 64.17 38.88 64.45 C 39.59 63.23 39.31 62.41 38.03 62.01 M 40.39 65.28 C 40.30 66.71 42.79 66.62 43.52 65.82 C 43.60 64.40 41.12 64.47 40.39 65.28 M 45.07 65.13 C 44.94 65.70 44.69 66.84 44.57 67.42 L 43.69 66.87 C 45.05 69.57 46.85 72.03 48.71 74.40 C 50.87 76.57 54.16 76.25 56.97 76.27 C 61.22 76.07 65.54 77.11 69.74 76.05 C 70.07 75.50 70.72 74.40 71.05 73.85 C 70.73 73.34 70.10 72.32 69.79 71.81 C 71.64 71.87 73.49 71.79 75.32 71.56 C 74.96 71.43 74.25 71.19 73.89 71.07 C 72.34 68.70 69.49 67.72 67.63 65.64 C 64.22 65.96 60.77 66.24 57.65 67.77 C 53.02 69.59 49.65 63.96 45.07 65.13 M 73.19 66.19 C 73.23 66.58 73.30 67.35 73.34 67.74 C 75.65 67.24 78.62 67.97 80.35 66.05 C 77.96 65.99 75.58 66.10 73.19 66.19 M 36.10 70.79 L 36.09 71.69 C 39.06 72.67 42.16 73.62 45.30 72.81 C 42.44 71.34 39.16 71.53 36.10 70.79 M 79.44 72.05 C 78.22 72.42 76.06 72.44 75.53 73.65 C 76.84 74.33 78.52 74.20 79.85 73.63 C 81.00 73.33 80.60 71.67 79.44 72.05 M 82.20 72.42 C 81.36 73.29 82.43 75.38 83.65 74.87 C 84.50 73.97 83.51 71.76 82.20 72.42 M 72.41 74.03 C 72.56 74.39 72.87 75.11 73.02 75.48 L 73.62 74.99 C 73.47 74.62 73.16 73.90 73.01 73.54 L 72.41 74.03 M 84.32 76.30 C 84.83 76.82 84.83 76.82 84.32 76.30 M 85.32 78.33 C 84.69 79.79 85.62 82.89 87.38 82.92 C 87.87 81.44 86.91 78.59 85.32 78.33 M 90.27 83.17 C 90.46 86.48 93.24 81.60 90.27 83.17 M 87.16 84.32 C 85.64 87.33 90.48 84.42 87.16 84.32 M 89.34 85.32 C 89.70 85.71 89.70 85.71 89.34 85.32 Z" />
<path fill="#f0a46a" opacity="1.00" d=" M 61.25 61.26 C 61.79 61.80 61.79 61.80 61.25 61.26 Z" />
<path fill="#f0a46a" opacity="1.00" d=" M 33.80 77.99 C 33.98 77.49 34.35 76.47 34.54 75.96 L 35.06 76.72 L 34.69 77.76 L 33.80 77.99 Z" />
<path fill="#f0a46a" opacity="1.00" d=" M 32.73 81.60 C 32.66 80.61 32.90 79.71 33.46 78.90 C 34.72 80.39 34.48 81.29 32.73 81.60 Z" />
<path fill="#f0a46a" opacity="1.00" d=" M 36.08 83.73 C 37.86 82.60 38.72 80.58 40.29 79.22 C 40.17 79.72 39.94 80.71 39.83 81.21 C 40.31 80.93 41.29 80.38 41.78 80.11 C 41.75 81.31 41.74 82.51 41.74 83.71 C 39.85 83.65 37.96 83.65 36.08 83.73 M 38.43 82.24 C 38.66 83.57 39.38 83.78 40.59 82.89 C 40.36 81.55 39.64 81.34 38.43 82.24 Z" />
<path fill="#f0a46a" opacity="1.00" d=" M 30.98 82.77 C 31.42 82.48 32.30 81.89 32.73 81.60 C 32.30 83.02 31.87 84.45 31.49 85.89 C 30.35 85.57 29.22 85.23 28.07 84.92 C 26.74 85.33 25.39 85.70 24.02 85.99 C 25.48 84.01 27.60 82.72 30.14 83.25 C 30.19 83.24 30.29 83.21 30.34 83.20 L 30.98 82.77 Z" />
</g>
<g id="#f5c492ff">
<path fill="#f5c492" opacity="1.00" d=" M 75.96 35.57 C 78.92 33.63 83.23 31.87 86.18 34.83 C 90.57 37.56 88.57 43.35 87.31 47.32 C 86.53 50.78 81.34 50.70 79.22 48.76 C 79.85 45.71 81.88 43.11 82.30 40.00 C 81.75 37.06 78.30 36.49 75.96 35.57 Z" />
<path fill="#f5c492" opacity="1.00" d=" M 55.30 52.72 C 55.81 55.25 57.09 57.54 58.24 59.82 C 58.24 60.95 58.22 62.09 58.24 63.22 L 58.41 63.97 C 58.79 64.47 59.53 65.47 59.91 65.97 C 57.35 66.42 54.70 66.69 52.19 65.84 C 52.86 64.97 53.51 64.08 54.15 63.19 C 54.27 62.43 54.49 60.92 54.60 60.16 C 54.99 57.70 55.35 55.22 55.30 52.72 Z" />
<path fill="#f5c492" opacity="1.00" d=" M 78.01 55.94 C 79.81 56.15 82.63 55.27 82.40 58.05 C 80.92 58.02 79.44 58.02 77.96 58.05 C 77.98 57.52 78.00 56.47 78.01 55.94 Z" />
<path fill="#f5c492" opacity="1.00" d=" M 79.89 58.67 C 81.79 60.77 81.65 63.74 82.36 66.32 C 79.09 65.18 79.98 61.34 79.89 58.67 Z" />
<path fill="#f5c492" opacity="1.00" d=" M 66.42 61.91 C 69.45 60.66 72.09 62.73 74.00 64.87 C 72.76 65.12 71.52 65.43 70.25 65.54 C 68.94 64.91 68.01 63.74 67.00 62.73 L 66.42 61.91 Z" />
<path fill="#f5c492" opacity="1.00" d=" M 38.03 62.01 C 39.31 62.41 39.59 63.23 38.88 64.45 C 37.58 64.17 37.30 63.35 38.03 62.01 Z" />
<path fill="#f5c492" opacity="1.00" d=" M 43.69 66.87 L 44.57 67.42 C 49.49 71.39 55.83 72.83 62.02 73.14 C 66.05 72.91 69.84 71.21 73.89 71.07 C 74.25 71.19 74.96 71.43 75.32 71.56 C 73.49 71.79 71.64 71.87 69.79 71.81 C 70.10 72.32 70.73 73.34 71.05 73.85 C 70.72 74.40 70.07 75.50 69.74 76.05 C 65.54 77.11 61.22 76.07 56.97 76.27 C 54.16 76.25 50.87 76.57 48.71 74.40 C 46.85 72.03 45.05 69.57 43.69 66.87 Z" />
<path fill="#f5c492" opacity="1.00" d=" M 36.10 70.79 C 39.16 71.53 42.44 71.34 45.30 72.81 C 42.16 73.62 39.06 72.67 36.09 71.69 L 36.10 70.79 Z" />
<path fill="#f5c492" opacity="1.00" d=" M 79.44 72.05 C 80.60 71.67 81.00 73.33 79.85 73.63 C 78.52 74.20 76.84 74.33 75.53 73.65 C 76.06 72.44 78.22 72.42 79.44 72.05 Z" />
<path fill="#f5c492" opacity="1.00" d=" M 41.26 77.14 C 41.90 76.30 42.55 75.47 43.21 74.65 C 43.13 75.29 42.97 76.56 42.89 77.20 C 42.96 78.45 42.59 79.42 41.78 80.11 C 41.29 80.38 40.31 80.93 39.83 81.21 C 39.94 80.71 40.17 79.72 40.29 79.22 C 40.53 78.70 41.01 77.66 41.26 77.14 Z" />
<path fill="#f5c492" opacity="1.00" d=" M 38.43 82.24 C 39.64 81.34 40.36 81.55 40.59 82.89 C 39.38 83.78 38.66 83.57 38.43 82.24 Z" />
</g>
<g id="#fdf2ecff">
<path fill="#fdf2ec" opacity="1.00" d=" M 37.29 58.47 C 38.73 58.57 38.62 61.06 38.03 62.01 C 36.75 61.62 36.58 59.46 37.29 58.47 Z" />
<path fill="#fdf2ec" opacity="1.00" d=" M 50.25 58.87 C 51.71 59.25 53.16 59.71 54.60 60.16 C 54.49 60.92 54.27 62.43 54.15 63.19 C 52.41 63.73 50.62 63.46 48.92 62.90 C 48.96 62.20 49.04 60.80 49.08 60.10 C 49.37 59.79 49.96 59.18 50.25 58.87 Z" />
<path fill="#fdf2ec" opacity="1.00" d=" M 61.68 59.55 C 63.63 58.18 65.37 60.48 66.42 61.91 L 67.00 62.73 C 66.55 62.79 65.67 62.92 65.23 62.98 C 65.31 63.45 65.48 64.39 65.57 64.85 C 63.22 64.33 60.81 64.11 58.41 63.97 C 59.18 62.31 59.64 60.09 61.68 59.55 M 61.25 61.26 C 61.79 61.80 61.79 61.80 61.25 61.26 Z" />
<path fill="#fdf2ec" opacity="1.00" d=" M 40.39 65.28 C 41.12 64.47 43.60 64.40 43.52 65.82 C 42.79 66.62 40.30 66.71 40.39 65.28 Z" />
<path fill="#fdf2ec" opacity="1.00" d=" M 45.07 65.13 C 49.65 63.96 53.02 69.59 57.65 67.77 C 60.77 66.24 64.22 65.96 67.63 65.64 C 69.49 67.72 72.34 68.70 73.89 71.07 C 69.84 71.21 66.05 72.91 62.02 73.14 C 55.83 72.83 49.49 71.39 44.57 67.42 C 44.69 66.84 44.94 65.70 45.07 65.13 Z" />
<path fill="#fdf2ec" opacity="1.00" d=" M 73.19 66.19 C 75.58 66.10 77.96 65.99 80.35 66.05 C 78.62 67.97 75.65 67.24 73.34 67.74 C 73.30 67.35 73.23 66.58 73.19 66.19 Z" />
<path fill="#fdf2ec" opacity="1.00" d=" M 32.23 78.07 C 33.11 75.89 33.98 73.70 35.10 71.64 C 35.01 72.49 34.82 74.21 34.72 75.06 L 34.54 75.96 C 34.35 76.47 33.98 77.49 33.80 77.99 L 33.46 78.90 C 32.90 79.71 32.66 80.61 32.73 81.60 C 32.30 81.89 31.42 82.48 30.98 82.77 C 30.32 81.04 31.75 79.62 32.23 78.07 Z" />
<path fill="#fdf2ec" opacity="1.00" d=" M 82.20 72.42 C 83.51 71.76 84.50 73.97 83.65 74.87 C 82.43 75.38 81.36 73.29 82.20 72.42 Z" />
<path fill="#fdf2ec" opacity="1.00" d=" M 84.32 76.30 C 84.83 76.82 84.83 76.82 84.32 76.30 Z" />
<path fill="#fdf2ec" opacity="1.00" d=" M 85.32 78.33 C 86.91 78.59 87.87 81.44 87.38 82.92 C 85.62 82.89 84.69 79.79 85.32 78.33 Z" />
<path fill="#fdf2ec" opacity="1.00" d=" M 30.14 83.25 L 30.34 83.20 C 30.29 83.21 30.19 83.24 30.14 83.25 Z" />
<path fill="#fdf2ec" opacity="1.00" d=" M 90.27 83.17 C 93.24 81.60 90.46 86.48 90.27 83.17 Z" />
<path fill="#fdf2ec" opacity="1.00" d=" M 87.16 84.32 C 90.48 84.42 85.64 87.33 87.16 84.32 Z" />
</g>
</svg>
