<?xml version="1.0" encoding="UTF-8" ?>
<!DOCTYPE svg PUBLIC "-//W3C//DTD SVG 1.1//EN" "http://www.w3.org/Graphics/SVG/1.1/DTD/svg11.dtd">
<svg width="120pt" height="120pt" viewBox="0 0 120 120" version="1.1" xmlns="http://www.w3.org/2000/svg">
<g id="#1f3d4dff">
<path fill="#1f3d4d" opacity="1.00" d=" M 45.49 13.83 C 46.56 14.06 47.58 14.41 48.57 14.89 C 49.07 14.94 50.08 15.06 50.59 15.12 C 51.36 15.88 52.13 16.64 52.90 17.41 C 52.97 17.92 53.12 18.94 53.19 19.45 C 54.10 20.68 54.41 22.45 53.11 23.58 C 53.07 24.18 53.00 25.38 52.97 25.98 L 51.92 26.00 C 52.20 24.64 52.50 23.28 52.80 21.92 C 52.48 20.77 52.17 19.61 51.83 18.46 L 51.71 18.08 C 50.09 16.68 48.11 15.87 46.17 15.05 C 44.96 15.54 43.75 16.02 42.54 16.50 C 43.46 15.54 44.45 14.65 45.49 13.83 Z" />
</g>
<g id="#85d6f5ff">
<path fill="#85d6f5" opacity="1.00" d=" M 46.17 15.05 C 48.11 15.87 50.09 16.68 51.71 18.08 C 48.68 18.90 45.64 19.67 42.61 20.49 C 42.38 19.70 42.15 18.91 41.93 18.12 C 42.08 17.72 42.39 16.91 42.54 16.50 C 43.75 16.02 44.96 15.54 46.17 15.05 Z" />
</g>
<g id="#1d3947f3">
<path fill="#1d3947" opacity="0.95" d=" M 23.74 17.83 C 24.76 16.80 26.32 17.09 27.62 16.85 C 28.57 18.18 30.04 19.30 30.15 21.08 C 33.23 19.23 36.77 18.72 40.30 19.05 C 40.17 19.74 39.91 21.13 39.78 21.83 C 39.05 21.14 38.32 20.45 37.59 19.76 C 36.19 20.11 34.79 20.44 33.39 20.71 C 32.84 20.80 31.76 20.98 31.22 21.07 C 30.58 22.09 29.95 23.11 29.32 24.13 C 28.11 23.15 27.31 18.73 25.55 20.62 C 24.38 22.50 25.12 24.88 24.95 26.98 L 24.22 27.00 C 23.87 25.02 23.52 23.04 23.15 21.06 C 24.58 20.00 26.03 18.98 27.54 18.03 C 26.59 17.98 24.69 17.88 23.74 17.83 Z" />
</g>
<g id="#5fb3dfff">
<path fill="#5fb3df" opacity="1.00" d=" M 23.74 17.83 C 24.69 17.88 26.59 17.98 27.54 18.03 C 26.03 18.98 24.58 20.00 23.15 21.06 C 23.52 23.04 23.87 25.02 24.22 27.00 L 24.95 26.98 C 25.12 24.88 24.38 22.50 25.55 20.62 C 27.31 18.73 28.11 23.15 29.32 24.13 C 29.95 23.11 30.58 22.09 31.22 21.07 C 31.76 20.98 32.84 20.80 33.39 20.71 C 34.79 20.44 36.19 20.11 37.59 19.76 C 38.32 20.45 39.05 21.14 39.78 21.83 C 39.91 21.13 40.17 19.74 40.30 19.05 C 40.62 18.51 41.25 17.43 41.56 16.89 L 41.93 18.12 C 42.15 18.91 42.38 19.70 42.61 20.49 C 45.64 19.67 48.68 18.90 51.71 18.08 L 51.83 18.46 C 52.17 19.61 52.48 20.77 52.80 21.92 C 52.50 23.28 52.20 24.64 51.92 26.00 L 51.75 26.75 L 51.50 26.83 C 48.95 27.80 46.23 28.31 43.74 26.90 C 44.14 24.67 44.51 22.43 44.83 20.19 C 43.84 21.80 42.86 23.42 41.85 25.03 C 42.62 26.36 43.38 27.68 44.15 29.00 C 44.86 29.02 46.29 29.06 47.01 29.08 C 47.02 32.01 47.11 34.95 46.76 37.87 C 46.69 38.21 46.56 38.91 46.50 39.26 L 45.64 38.28 C 45.30 37.88 44.62 37.09 44.28 36.69 L 43.85 36.17 C 39.65 38.51 34.80 39.06 30.31 40.62 C 27.90 41.51 25.30 41.35 22.78 41.27 C 22.00 38.06 21.62 34.71 22.55 31.49 C 22.95 30.33 23.36 29.17 23.76 28.01 C 22.88 26.00 22.19 23.91 21.91 21.73 C 22.29 20.93 23.05 19.33 23.43 18.53 C 23.51 18.36 23.66 18.01 23.74 17.83 M 46.34 20.13 C 46.59 21.60 48.74 22.20 49.47 23.60 C 51.27 22.43 48.27 18.55 46.34 20.13 M 28.10 26.01 C 25.88 28.89 25.36 32.66 24.42 36.08 C 24.87 36.52 25.77 37.41 26.22 37.86 C 29.36 36.37 32.46 34.79 35.41 32.96 C 35.26 33.77 34.97 35.38 34.82 36.19 C 37.46 35.94 39.94 34.97 42.33 33.89 C 41.86 32.80 41.42 31.70 41.02 30.59 C 41.02 30.15 41.02 29.28 41.02 28.85 C 41.32 28.60 41.91 28.09 42.20 27.84 C 41.09 28.07 40.01 28.42 38.98 28.88 C 37.82 29.58 35.49 32.81 35.79 28.96 C 36.18 28.39 36.97 27.25 37.36 26.68 C 35.45 23.45 30.73 24.13 28.10 26.01 Z" />
<path fill="#5fb3df" opacity="1.00" d=" M 42.73 51.45 C 43.34 50.90 44.56 49.81 45.17 49.26 C 46.11 54.99 48.77 60.23 51.98 65.01 C 53.77 67.58 56.82 68.84 58.80 71.24 C 60.59 73.45 61.84 76.02 63.43 78.36 C 63.47 78.43 63.56 78.55 63.61 78.62 C 65.86 81.35 68.09 84.29 71.11 86.21 C 74.69 87.27 77.68 84.80 80.41 82.89 C 81.81 85.53 83.11 88.22 84.33 90.95 C 79.39 89.76 74.28 90.07 69.26 89.60 C 69.98 90.06 70.71 90.50 71.46 90.91 C 75.87 93.12 80.97 92.64 85.75 92.84 C 94.12 95.06 102.65 97.82 109.77 102.87 C 109.34 102.85 108.49 102.80 108.07 102.78 C 102.89 100.87 97.37 102.52 92.03 101.95 C 83.64 101.16 75.33 99.49 67.35 96.77 C 63.38 95.51 60.31 92.56 57.27 89.86 C 53.02 85.65 49.22 80.72 47.52 74.90 C 48.11 74.37 49.29 73.33 49.88 72.80 C 48.11 66.57 45.72 60.52 43.14 54.59 C 43.05 53.96 42.89 52.70 42.81 52.07 L 42.73 51.45 M 64.13 84.48 C 62.66 87.50 67.46 84.55 64.13 84.48 Z" />
</g>
<g id="#1d3642f5">
<path fill="#1d3642" opacity="0.96" d=" M 21.05 25.40 C 20.79 22.89 21.07 20.02 23.43 18.53 C 23.05 19.33 22.29 20.93 21.91 21.73 C 22.19 23.91 22.88 26.00 23.76 28.01 C 23.36 29.17 22.95 30.33 22.55 31.49 C 21.62 34.71 22.00 38.06 22.78 41.27 C 25.30 41.35 27.90 41.51 30.31 40.62 C 34.80 39.06 39.65 38.51 43.85 36.17 L 44.28 36.69 C 43.03 37.38 41.77 38.06 40.52 38.76 C 39.15 39.02 37.78 39.27 36.41 39.55 C 33.12 40.48 29.85 41.48 26.54 42.36 C 27.65 43.01 28.76 43.65 29.86 44.30 C 31.20 44.14 32.54 43.98 33.87 43.81 C 34.28 43.99 35.10 44.35 35.51 44.54 C 34.63 44.56 32.87 44.61 31.99 44.64 C 31.96 46.06 31.96 47.48 31.99 48.90 C 32.16 52.91 33.73 56.88 32.78 60.91 C 32.14 63.56 31.95 66.28 31.95 69.00 L 31.18 69.00 C 30.88 70.67 31.24 72.72 29.57 73.83 C 30.63 67.62 32.27 61.38 31.95 55.06 C 31.74 54.65 31.33 53.83 31.12 53.42 C 30.98 50.63 31.02 47.85 31.03 45.06 C 30.40 45.02 29.15 44.92 28.53 44.88 C 26.90 43.94 25.23 43.09 23.52 42.33 C 19.80 41.16 21.10 36.89 21.09 33.93 C 21.61 31.17 23.15 27.89 21.05 25.40 Z" />
</g>
<g id="#407188ff">
<path fill="#407188" opacity="1.00" d=" M 46.34 20.13 C 48.27 18.55 51.27 22.43 49.47 23.60 C 48.74 22.20 46.59 21.60 46.34 20.13 Z" />
</g>
<g id="#2d5265ff">
<path fill="#2d5265" opacity="1.00" d=" M 41.85 25.03 C 42.86 23.42 43.84 21.80 44.83 20.19 C 44.51 22.43 44.14 24.67 43.74 26.90 C 46.23 28.31 48.95 27.80 51.50 26.83 C 50.26 27.56 49.19 28.50 48.09 29.41 C 47.81 32.26 48.02 35.14 48.00 38.01 L 46.76 37.87 C 47.11 34.95 47.02 32.01 47.01 29.08 C 46.29 29.06 44.86 29.02 44.15 29.00 C 43.38 27.68 42.62 26.36 41.85 25.03 Z" />
</g>
<g id="#7fd1f2ff">
<path fill="#7fd1f2" opacity="1.00" d=" M 28.10 26.01 C 30.73 24.13 35.45 23.45 37.36 26.68 C 36.97 27.25 36.18 28.39 35.79 28.96 L 35.67 29.46 C 35.61 30.34 35.56 31.23 35.51 32.12 C 35.49 32.33 35.44 32.75 35.41 32.96 C 32.46 34.79 29.36 36.37 26.22 37.86 C 25.77 37.41 24.87 36.52 24.42 36.08 C 25.36 32.66 25.88 28.89 28.10 26.01 Z" />
</g>
<g id="#456676ff">
<path fill="#456676" opacity="1.00" d=" M 38.98 28.88 C 40.01 28.42 41.09 28.07 42.20 27.84 C 41.91 28.09 41.32 28.60 41.02 28.85 C 40.53 29.26 39.54 30.07 39.05 30.48 C 39.03 31.71 39.01 32.94 38.99 34.18 C 39.49 34.12 40.49 34.00 40.99 33.94 C 41.00 33.10 41.02 31.43 41.02 30.59 C 41.42 31.70 41.86 32.80 42.33 33.89 C 39.94 34.97 37.46 35.94 34.82 36.19 C 34.97 35.38 35.26 33.77 35.41 32.96 C 35.44 32.75 35.49 32.33 35.51 32.12 C 35.56 31.23 35.61 30.34 35.67 29.46 L 35.79 28.96 C 35.49 32.81 37.82 29.58 38.98 28.88 M 36.97 31.29 C 35.64 34.40 40.22 31.40 36.97 31.29 Z" />
</g>
<g id="#f1f1f1ff">
<path fill="#f1f1f1" opacity="1.00" d=" M 39.05 30.48 C 39.54 30.07 40.53 29.26 41.02 28.85 C 41.02 29.28 41.02 30.15 41.02 30.59 C 41.02 31.43 41.00 33.10 40.99 33.94 C 40.49 34.00 39.49 34.12 38.99 34.18 C 39.01 32.94 39.03 31.71 39.05 30.48 Z" />
</g>
<g id="#d5d5d5ff">
<path fill="#d5d5d5" opacity="1.00" d=" M 36.97 31.29 C 40.22 31.40 35.64 34.40 36.97 31.29 Z" />
</g>
<g id="#ede1caff">
<path fill="#ede1ca" opacity="1.00" d=" M 40.52 38.76 C 41.77 38.06 43.03 37.38 44.28 36.69 C 44.62 37.09 45.30 37.88 45.64 38.28 C 44.48 39.18 43.35 40.10 42.22 41.03 C 39.42 41.91 36.64 42.85 33.87 43.81 C 32.54 43.98 31.20 44.14 29.86 44.30 C 28.76 43.65 27.65 43.01 26.54 42.36 C 29.85 41.48 33.12 40.48 36.41 39.55 C 37.78 39.27 39.15 39.02 40.52 38.76 Z" />
<path fill="#ede1ca" opacity="1.00" d=" M 31.99 48.90 C 32.53 50.16 32.89 51.60 33.97 52.53 C 37.05 53.12 39.86 51.46 42.57 50.27 C 42.61 50.56 42.69 51.16 42.73 51.45 L 42.81 52.07 C 40.83 52.86 38.15 52.86 36.76 54.61 C 35.96 59.13 36.03 63.86 36.81 68.39 C 37.81 73.14 42.95 74.69 46.74 76.65 C 46.87 76.01 47.13 74.74 47.25 74.10 L 47.52 74.90 C 49.22 80.72 53.02 85.65 57.27 89.86 C 60.31 92.56 63.38 95.51 67.35 96.77 C 75.33 99.49 83.64 101.16 92.03 101.95 C 97.37 102.52 102.89 100.87 108.07 102.78 C 107.26 102.90 105.66 103.16 104.85 103.29 C 104.38 103.46 103.43 103.80 102.96 103.97 C 100.37 104.00 97.80 104.21 95.26 104.74 C 85.89 105.55 75.94 103.65 68.24 98.04 C 67.74 98.11 66.73 98.26 66.23 98.33 C 58.05 100.13 49.34 99.92 41.64 96.37 C 36.50 94.42 32.76 90.29 28.80 86.67 C 30.06 80.82 31.83 75.03 31.95 69.00 C 31.95 66.28 32.14 63.56 32.78 60.91 C 33.73 56.88 32.16 52.91 31.99 48.90 Z" />
</g>
<g id="#4d91b5ff">
<path fill="#4d91b5" opacity="1.00" d=" M 42.22 41.03 C 43.35 40.10 44.48 39.18 45.64 38.28 L 46.50 39.26 L 47.19 40.05 L 45.88 40.94 C 44.10 43.30 45.25 46.53 45.17 49.26 C 44.56 49.81 43.34 50.90 42.73 51.45 C 42.69 51.16 42.61 50.56 42.57 50.27 C 42.23 47.68 41.68 45.13 41.06 42.60 C 41.35 42.21 41.93 41.42 42.22 41.03 Z" />
</g>
<g id="#c0b7a4ff">
<path fill="#c0b7a4" opacity="1.00" d=" M 33.87 43.81 C 36.64 42.85 39.42 41.91 42.22 41.03 C 41.93 41.42 41.35 42.21 41.06 42.60 C 41.68 45.13 42.23 47.68 42.57 50.27 C 39.86 51.46 37.05 53.12 33.97 52.53 C 32.89 51.60 32.53 50.16 31.99 48.90 C 31.96 47.48 31.96 46.06 31.99 44.64 C 32.87 44.61 34.63 44.56 35.51 44.54 C 35.10 44.35 34.28 43.99 33.87 43.81 Z" />
</g>
<g id="#3b4952fe">
<path fill="#3b4952" opacity="1.00" d=" M 45.17 49.26 C 45.25 46.53 44.10 43.30 45.88 40.94 C 45.53 45.23 46.64 49.34 47.15 53.55 C 48.20 55.76 49.37 57.93 51.01 59.77 C 51.07 58.98 51.19 57.40 51.24 56.60 C 52.55 55.02 51.51 52.51 53.27 51.23 C 54.83 51.07 56.41 51.11 57.99 51.08 C 57.99 53.26 57.87 55.45 58.09 57.63 C 59.14 60.14 61.85 58.94 63.76 58.43 C 64.13 58.67 64.85 59.14 65.21 59.38 C 64.11 60.79 63.03 62.21 61.92 63.62 C 62.21 62.95 62.78 61.60 63.06 60.93 C 61.05 60.32 59.04 59.73 57.05 59.06 C 57.08 56.71 57.11 54.35 57.13 52.00 C 55.83 52.00 54.53 52.00 53.23 52.00 C 52.96 54.49 52.49 56.96 51.99 59.41 C 56.58 61.61 58.42 66.73 62.52 69.52 C 66.11 73.35 68.70 77.96 72.18 81.89 C 75.15 80.73 78.01 79.30 80.63 77.48 C 80.91 77.09 81.48 76.30 81.76 75.91 C 81.85 76.57 82.05 77.90 82.14 78.56 C 83.38 81.26 86.48 84.49 84.19 87.45 C 84.68 89.04 85.15 90.78 86.33 92.02 C 88.01 92.19 89.71 92.16 91.40 92.26 C 92.41 92.71 93.44 93.08 94.51 93.38 C 99.23 95.68 103.96 97.99 108.64 100.41 C 110.19 100.95 109.88 102.71 110.20 103.99 C 108.32 104.00 106.44 104.00 104.56 104.08 C 102.29 105.89 99.16 104.72 96.51 104.82 L 95.26 104.74 C 97.80 104.21 100.37 104.00 102.96 103.97 C 103.43 103.80 104.38 103.46 104.85 103.29 C 105.66 103.16 107.26 102.90 108.07 102.78 C 108.49 102.80 109.34 102.85 109.77 102.87 C 102.65 97.82 94.12 95.06 85.75 92.84 C 81.15 91.22 76.29 90.85 71.46 90.91 C 70.71 90.50 69.98 90.06 69.26 89.60 C 74.28 90.07 79.39 89.76 84.33 90.95 C 83.11 88.22 81.81 85.53 80.41 82.89 C 77.68 84.80 74.69 87.27 71.11 86.21 C 68.09 84.29 65.86 81.35 63.61 78.62 C 63.56 78.55 63.47 78.43 63.43 78.36 C 61.84 76.02 60.59 73.45 58.80 71.24 C 56.82 68.84 53.77 67.58 51.98 65.01 C 48.77 60.23 46.11 54.99 45.17 49.26 M 50.52 60.62 C 52.65 63.06 53.95 66.96 57.54 67.51 C 56.85 64.24 53.81 61.25 50.52 60.62 M 57.54 67.51 C 57.70 67.66 58.00 67.96 58.15 68.11 C 58.00 67.96 57.70 67.66 57.54 67.51 M 58.15 68.11 C 58.33 68.29 58.69 68.65 58.87 68.83 C 58.69 68.65 58.33 68.29 58.15 68.11 M 58.87 68.83 C 59.02 68.98 59.33 69.27 59.48 69.42 C 59.33 69.27 59.02 68.98 58.87 68.83 M 59.48 69.42 C 62.74 75.11 66.50 80.53 71.42 84.91 C 75.16 85.86 78.16 83.46 80.60 80.97 C 81.04 81.30 81.92 81.95 82.36 82.28 C 81.93 80.96 81.21 79.80 80.38 78.72 C 78.83 79.85 77.25 80.95 75.58 81.89 C 74.32 82.21 73.09 82.62 71.90 83.12 C 68.24 80.62 66.96 76.15 63.86 73.14 C 62.52 71.70 61.76 69.57 59.48 69.42 M 82.36 82.28 C 82.33 82.68 82.28 83.47 82.26 83.87 L 83.03 83.96 C 83.04 83.56 83.06 82.76 83.07 82.36 L 82.36 82.28 M 83.03 83.96 C 81.63 87.07 86.26 84.34 83.03 83.96 Z" />
</g>
<g id="#fffddcff">
<path fill="#fffddc" opacity="1.00" d=" M 36.76 54.61 C 38.15 52.86 40.83 52.86 42.81 52.07 C 42.89 52.70 43.05 53.96 43.14 54.59 C 43.28 61.29 45.21 67.77 47.25 74.10 C 47.13 74.74 46.87 76.01 46.74 76.65 C 42.95 74.69 37.81 73.14 36.81 68.39 C 36.03 63.86 35.96 59.13 36.76 54.61 Z" />
</g>
<g id="#e5e5f7ff">
<path fill="#e5e5f7" opacity="1.00" d=" M 53.23 52.00 C 54.53 52.00 55.83 52.00 57.13 52.00 C 57.11 54.35 57.08 56.71 57.05 59.06 C 59.04 59.73 61.05 60.32 63.06 60.93 C 62.78 61.60 62.21 62.95 61.92 63.62 C 63.03 62.21 64.11 60.79 65.21 59.38 C 64.85 59.14 64.13 58.67 63.76 58.43 L 64.88 57.61 C 64.71 57.25 64.37 56.53 64.20 56.18 C 65.92 56.21 68.10 55.41 69.10 57.36 C 68.86 60.26 67.45 62.90 66.74 65.69 C 67.23 64.97 68.20 63.52 68.69 62.80 C 71.35 64.43 74.10 66.12 75.66 68.94 C 76.80 68.95 77.94 68.95 79.09 68.94 C 79.34 69.46 79.85 70.50 80.10 71.03 C 79.46 73.12 78.19 74.96 77.35 76.98 C 78.50 75.63 79.60 74.24 80.63 72.80 C 80.75 72.16 80.98 70.90 81.10 70.26 C 82.12 70.07 83.19 70.31 84.30 70.98 C 84.26 71.76 84.17 73.31 84.12 74.08 C 83.31 74.66 82.52 75.27 81.76 75.91 C 81.48 76.30 80.91 77.09 80.63 77.48 C 78.01 79.30 75.15 80.73 72.18 81.89 C 68.70 77.96 66.11 73.35 62.52 69.52 C 58.42 66.73 56.58 61.61 51.99 59.41 C 52.49 56.96 52.96 54.49 53.23 52.00 M 63.26 65.25 C 63.80 65.78 63.80 65.78 63.26 65.25 M 77.32 77.25 C 77.85 77.79 77.85 77.79 77.32 77.25 Z" />
<path fill="#e5e5f7" opacity="1.00" d=" M 59.48 69.42 C 61.76 69.57 62.52 71.70 63.86 73.14 C 66.96 76.15 68.24 80.62 71.90 83.12 C 73.09 82.62 74.32 82.21 75.58 81.89 C 77.25 80.95 78.83 79.85 80.38 78.72 C 81.21 79.80 81.93 80.96 82.36 82.28 C 81.92 81.95 81.04 81.30 80.60 80.97 C 78.16 83.46 75.16 85.86 71.42 84.91 C 66.50 80.53 62.74 75.11 59.48 69.42 Z" />
</g>
<g id="#81d0f0ff">
<path fill="#81d0f0" opacity="1.00" d=" M 43.14 54.59 C 45.72 60.52 48.11 66.57 49.88 72.80 C 49.29 73.33 48.11 74.37 47.52 74.90 L 47.25 74.10 C 45.21 67.77 43.28 61.29 43.14 54.59 Z" />
</g>
<g id="#3d454dff">
<path fill="#3d454d" opacity="1.00" d=" M 64.20 56.18 C 65.39 54.88 67.23 55.19 68.78 54.89 C 70.36 56.87 70.62 59.84 68.96 61.86 C 72.37 62.99 75.05 65.50 77.46 68.07 C 77.95 68.11 78.92 68.21 79.41 68.25 C 80.69 69.28 82.31 69.07 83.83 69.12 C 84.80 70.64 85.57 72.28 86.31 73.93 C 85.76 73.96 84.67 74.04 84.12 74.08 C 84.17 73.31 84.26 71.76 84.30 70.98 C 83.19 70.31 82.12 70.07 81.10 70.26 C 80.98 70.90 80.75 72.16 80.63 72.80 C 79.60 74.24 78.50 75.63 77.35 76.98 C 78.19 74.96 79.46 73.12 80.10 71.03 C 79.85 70.50 79.34 69.46 79.09 68.94 C 77.94 68.95 76.80 68.95 75.66 68.94 C 74.10 66.12 71.35 64.43 68.69 62.80 C 68.20 63.52 67.23 64.97 66.74 65.69 C 67.45 62.90 68.86 60.26 69.10 57.36 C 68.10 55.41 65.92 56.21 64.20 56.18 Z" />
</g>
<g id="#deddeeff">
<path fill="#deddee" opacity="1.00" d=" M 50.52 60.62 C 53.81 61.25 56.85 64.24 57.54 67.51 C 53.95 66.96 52.65 63.06 50.52 60.62 Z" />
</g>
<g id="#8e8e99ff">
<path fill="#8e8e99" opacity="1.00" d=" M 63.26 65.25 C 63.80 65.78 63.80 65.78 63.26 65.25 Z" />
</g>
<g id="#e4e2f3ff">
<path fill="#e4e2f3" opacity="1.00" d=" M 57.54 67.51 C 57.70 67.66 58.00 67.96 58.15 68.11 C 58.00 67.96 57.70 67.66 57.54 67.51 Z" />
</g>
<g id="#e4e3f4ff">
<path fill="#e4e3f4" opacity="1.00" d=" M 58.15 68.11 C 58.33 68.29 58.69 68.65 58.87 68.83 C 58.69 68.65 58.33 68.29 58.15 68.11 Z" />
</g>
<g id="#68b5ddff">
<path fill="#68b5dd" opacity="1.00" d=" M 31.18 69.00 L 31.95 69.00 C 31.83 75.03 30.06 80.82 28.80 86.67 C 28.68 87.27 28.44 88.47 28.32 89.07 C 28.05 90.38 27.79 91.71 27.43 93.01 C 27.22 92.17 27.02 91.33 26.82 90.50 C 26.72 87.44 26.98 84.37 27.55 81.36 C 27.94 80.04 28.31 78.72 28.70 77.40 C 28.83 76.84 29.10 75.71 29.23 75.15 C 29.32 74.82 29.49 74.16 29.57 73.83 C 31.24 72.72 30.88 70.67 31.18 69.00 Z" />
</g>
<g id="#e5e3f5ff">
<path fill="#e5e3f5" opacity="1.00" d=" M 58.87 68.83 C 59.02 68.98 59.33 69.27 59.48 69.42 C 59.33 69.27 59.02 68.98 58.87 68.83 Z" />
</g>
<g id="#091a23dd">
<path fill="#091a23" opacity="0.87" d=" M 28.17 74.91 L 29.23 75.15 C 29.10 75.71 28.83 76.84 28.70 77.40 C 28.31 78.72 27.94 80.04 27.55 81.36 C 26.98 84.37 26.72 87.44 26.82 90.50 C 26.61 89.84 26.20 88.51 26.00 87.85 C 24.43 87.99 22.87 88.22 21.32 88.51 C 20.01 88.95 18.68 89.38 17.35 89.77 C 16.76 89.84 15.58 89.98 14.99 90.04 L 14.98 89.03 C 15.58 88.99 16.77 88.90 17.37 88.85 C 18.54 87.93 20.04 87.99 21.42 87.75 C 22.74 86.77 24.42 87.03 25.95 86.90 C 26.11 85.06 25.53 82.97 26.83 81.42 C 26.93 80.43 27.04 79.44 27.14 78.46 C 27.77 77.36 28.11 76.18 28.17 74.91 Z" />
</g>
<g id="#8c8c96ff">
<path fill="#8c8c96" opacity="1.00" d=" M 77.32 77.25 C 77.85 77.79 77.85 77.79 77.32 77.25 Z" />
</g>
<g id="#62b6e2ff">
<path fill="#62b6e2" opacity="1.00" d=" M 63.43 78.36 C 63.47 78.43 63.56 78.55 63.61 78.62 C 63.56 78.55 63.47 78.43 63.43 78.36 Z" />
</g>
<g id="#a1a1adff">
<path fill="#a1a1ad" opacity="1.00" d=" M 82.36 82.28 L 83.07 82.36 C 83.06 82.76 83.04 83.56 83.03 83.96 L 82.26 83.87 C 82.28 83.47 82.33 82.68 82.36 82.28 Z" />
</g>
<g id="#3985b9ff">
<path fill="#3985b9" opacity="1.00" d=" M 64.13 84.48 C 67.46 84.55 62.66 87.50 64.13 84.48 Z" />
</g>
<g id="#9b9aa7ff">
<path fill="#9b9aa7" opacity="1.00" d=" M 83.03 83.96 C 86.26 84.34 81.63 87.07 83.03 83.96 Z" />
</g>
<g id="#d8ceb9ff">
<path fill="#d8ceb9" opacity="1.00" d=" M 28.80 86.67 C 32.76 90.29 36.50 94.42 41.64 96.37 C 49.34 99.92 58.05 100.13 66.23 98.33 C 66.95 98.77 67.68 99.21 68.40 99.65 C 65.71 100.69 62.85 101.16 59.97 101.02 C 54.71 100.81 49.33 101.56 44.19 100.18 C 38.20 97.54 32.69 93.98 28.32 89.07 C 28.44 88.47 28.68 87.27 28.80 86.67 Z" />
</g>
<g id="#61b5e1ff">
<path fill="#61b5e1" opacity="1.00" d=" M 21.32 88.51 C 22.87 88.22 24.43 87.99 26.00 87.85 C 26.20 88.51 26.61 89.84 26.82 90.50 C 27.02 91.33 27.22 92.17 27.43 93.01 C 22.00 93.81 16.56 94.53 11.22 95.82 C 10.98 95.95 10.51 96.21 10.27 96.33 L 9.61 96.41 C 10.64 94.95 11.59 93.43 12.81 92.11 C 13.52 91.41 14.25 90.72 14.99 90.04 C 15.58 89.98 16.76 89.84 17.35 89.77 C 18.68 89.38 20.01 88.95 21.32 88.51 Z" />
</g>
<g id="#c4bba8ff">
<path fill="#c4bba8" opacity="1.00" d=" M 28.32 89.07 C 32.69 93.98 38.20 97.54 44.19 100.18 C 39.40 99.34 35.06 97.13 30.84 94.82 C 30.92 95.27 31.09 96.15 31.17 96.60 C 30.63 97.48 29.98 98.28 29.22 99.00 C 23.42 99.46 16.49 101.99 11.49 97.89 C 16.55 97.51 21.59 96.76 26.50 95.45 C 26.74 94.84 27.20 93.62 27.43 93.01 C 27.79 91.71 28.05 90.38 28.32 89.07 Z" />
</g>
<g id="#78ccf6ff">
<path fill="#78ccf6" opacity="1.00" d=" M 71.46 90.91 C 76.29 90.85 81.15 91.22 85.75 92.84 C 80.97 92.64 75.87 93.12 71.46 90.91 Z" />
</g>
<g id="#05121acc">
<path fill="#05121a" opacity="0.80" d=" M 9.61 96.41 C 8.96 94.66 10.72 91.32 12.81 92.11 C 11.59 93.43 10.64 94.95 9.61 96.41 Z" />
</g>
<g id="#e9e0cbff">
<path fill="#e9e0cb" opacity="1.00" d=" M 11.22 95.82 C 16.56 94.53 22.00 93.81 27.43 93.01 C 27.20 93.62 26.74 94.84 26.50 95.45 C 21.59 96.76 16.55 97.51 11.49 97.89 C 11.15 97.65 10.48 97.19 10.15 96.96 L 10.27 96.33 C 10.51 96.21 10.98 95.95 11.22 95.82 Z" />
</g>
<g id="#605d54ff">
<path fill="#605d54" opacity="1.00" d=" M 30.84 94.82 C 35.06 97.13 39.40 99.34 44.19 100.18 C 49.33 101.56 54.71 100.81 59.97 101.02 C 62.85 101.16 65.71 100.69 68.40 99.65 C 67.68 99.21 66.95 98.77 66.23 98.33 C 66.73 98.26 67.74 98.11 68.24 98.04 C 75.94 103.65 85.89 105.55 95.26 104.74 L 96.51 104.82 C 95.65 106.60 93.53 105.76 92.03 106.00 C 84.64 106.29 76.92 104.87 70.52 101.03 C 69.20 101.00 67.87 100.98 66.55 100.99 C 65.42 102.41 63.53 101.86 62.00 102.00 C 57.01 101.89 52.01 102.01 47.02 101.95 C 41.41 101.41 36.14 99.16 31.17 96.60 C 31.09 96.15 30.92 95.27 30.84 94.82 Z" />
</g>
<g id="#515049ff">
<path fill="#515049" opacity="1.00" d=" M 10.15 96.96 C 10.48 97.19 11.15 97.65 11.49 97.89 C 16.49 101.99 23.42 99.46 29.22 99.00 L 28.95 99.97 C 27.82 99.99 26.69 100.03 25.55 100.07 C 23.15 101.89 19.84 100.70 17.05 101.03 C 13.97 101.48 11.24 99.85 9.16 97.72 C 9.41 97.53 9.90 97.15 10.15 96.96 Z" />
</g>
</svg>
