<?xml version="1.0" encoding="UTF-8" ?>
<!DOCTYPE svg PUBLIC "-//W3C//DTD SVG 1.1//EN" "http://www.w3.org/Graphics/SVG/1.1/DTD/svg11.dtd">
<svg width="120pt" height="120pt" viewBox="0 0 120 120" version="1.1" xmlns="http://www.w3.org/2000/svg">
<g id="#cc9c9cff">
<path fill="#cc9c9c" opacity="1.00" d=" M 47.22 36.42 C 50.19 31.33 55.70 28.14 61.62 28.33 L 61.68 29.65 C 62.41 29.58 63.89 29.42 64.63 29.34 L 64.71 30.63 C 65.19 30.55 66.14 30.40 66.61 30.33 L 66.72 31.36 C 70.91 31.68 72.66 37.17 72.72 40.77 C 74.61 40.79 75.77 39.21 77.10 38.15 C 76.18 40.13 75.25 42.10 74.35 44.09 C 78.03 44.96 81.84 44.41 85.44 43.45 C 86.57 39.97 82.75 36.98 79.50 37.15 L 79.29 36.37 C 80.30 36.43 81.30 36.49 82.30 36.56 C 86.63 37.62 87.06 42.38 86.70 46.07 C 88.85 54.16 87.67 62.83 84.85 70.63 C 84.35 71.87 83.83 73.10 83.31 74.34 L 84.74 74.38 C 84.64 77.95 84.80 81.52 84.60 85.08 C 84.10 87.41 82.14 88.99 80.64 90.69 C 76.61 90.48 72.26 91.57 68.55 89.53 C 68.07 88.19 67.59 86.85 67.32 85.46 C 65.43 85.55 63.59 85.93 61.81 86.59 C 59.45 87.29 57.36 85.27 55.01 85.71 C 54.19 86.99 53.51 88.34 52.82 89.69 C 48.32 89.59 43.83 89.70 39.33 89.74 C 39.41 88.98 39.57 87.46 39.65 86.70 L 38.35 86.62 C 38.43 86.12 38.57 85.14 38.64 84.65 L 37.32 84.61 C 37.41 83.85 37.60 82.33 37.69 81.57 L 36.39 81.69 C 36.02 77.58 37.13 73.69 38.74 69.96 C 36.29 69.62 36.25 67.48 36.55 65.53 L 35.40 65.68 C 35.77 63.26 34.73 60.37 36.42 58.33 C 36.20 56.08 37.46 54.19 38.01 52.10 C 36.78 50.25 33.90 49.17 34.48 46.53 L 33.31 46.61 C 33.40 46.10 33.57 45.10 33.66 44.60 L 32.40 44.67 C 32.47 42.91 32.51 41.15 32.55 39.39 C 33.49 38.46 34.42 37.52 35.34 36.57 C 36.44 36.51 37.53 36.44 38.62 36.37 L 38.73 37.60 C 39.20 37.54 40.16 37.43 40.64 37.37 L 40.77 38.61 C 41.32 38.55 42.41 38.44 42.95 38.39 C 42.85 38.89 42.64 39.89 42.53 40.39 C 42.39 41.07 42.11 42.43 41.96 43.11 C 40.47 43.06 38.97 43.01 37.48 42.95 C 38.36 41.38 39.21 39.79 40.05 38.20 C 38.33 37.97 36.28 36.20 34.81 37.84 C 32.83 38.93 33.18 41.22 33.19 43.12 C 35.68 44.17 37.52 46.14 39.06 48.29 C 40.82 46.32 42.47 44.27 44.08 42.19 C 44.45 41.98 45.19 41.57 45.56 41.36 C 45.44 39.63 45.70 37.92 46.55 36.38 L 47.22 36.42 M 53.79 30.82 C 50.76 31.94 49.38 35.07 47.40 37.38 C 46.56 38.21 46.29 39.33 46.11 40.46 C 51.41 40.79 56.74 39.72 62.01 40.68 C 63.40 40.95 65.08 40.93 66.00 42.21 C 66.21 43.44 66.37 44.68 66.49 45.92 C 68.76 46.18 70.68 44.80 71.61 42.80 C 72.61 39.35 70.60 36.04 68.65 33.35 C 66.57 31.53 63.87 30.64 61.34 29.66 C 58.81 28.38 56.17 29.94 53.79 30.82 M 41.27 39.34 C 41.81 39.83 41.81 39.83 41.27 39.34 M 39.26 41.19 L 39.24 41.85 C 39.57 41.92 40.22 42.05 40.55 42.11 L 40.57 41.11 C 40.24 41.13 39.59 41.17 39.26 41.19 M 47.52 42.16 C 46.59 43.09 45.59 43.98 44.29 44.35 C 42.85 45.57 41.62 47.02 40.67 48.66 C 38.34 53.57 35.65 58.75 36.60 64.37 C 39.25 69.21 45.92 69.33 50.38 67.33 C 54.38 64.07 52.59 58.41 53.00 53.97 L 54.00 54.11 C 53.98 52.14 53.96 50.18 54.00 48.22 C 55.46 46.88 56.88 45.50 58.29 44.10 C 59.57 43.99 60.85 43.88 62.13 43.77 C 61.74 43.39 60.96 42.65 60.57 42.27 C 56.26 41.72 51.86 42.05 47.52 42.16 M 73.44 45.36 C 73.57 45.56 73.57 45.56 73.44 45.36 M 71.63 48.77 C 66.71 52.63 60.23 54.68 54.00 54.11 C 54.07 54.80 54.21 56.18 54.27 56.87 C 54.08 59.25 53.97 61.63 54.00 64.02 C 54.65 64.06 55.94 64.14 56.59 64.19 C 55.48 64.50 54.39 64.87 53.32 65.29 C 52.81 66.62 52.29 67.94 51.81 69.28 C 53.05 69.78 54.30 70.27 55.55 70.76 C 52.09 71.34 48.37 70.56 45.19 72.42 C 46.37 73.05 47.55 73.68 48.71 74.34 C 48.28 74.57 47.42 75.04 46.99 75.27 C 48.73 76.63 50.47 77.99 52.16 79.43 C 48.99 79.65 46.20 78.46 43.93 76.30 C 45.51 78.81 47.74 80.80 50.23 82.38 C 52.43 81.19 54.70 82.93 56.99 82.63 C 59.16 82.64 61.19 81.81 63.19 81.10 C 64.48 80.52 65.69 79.79 66.96 79.18 C 70.22 81.20 70.90 85.64 74.20 87.84 C 78.42 88.41 83.88 85.89 83.84 81.07 C 84.68 76.81 82.79 72.77 80.00 69.67 C 79.95 66.22 80.27 62.52 78.53 59.39 C 77.38 57.83 75.69 56.70 74.81 54.95 C 74.93 53.35 75.89 52.02 76.65 50.67 C 76.41 49.38 76.16 48.09 75.91 46.81 C 74.31 47.02 72.90 47.80 71.63 48.77 M 81.52 65.76 C 81.85 62.28 81.42 58.76 81.45 55.27 C 79.09 58.27 81.97 62.33 81.52 65.76 M 37.48 79.03 C 37.89 80.78 37.81 83.45 40.37 83.08 C 39.98 82.52 39.20 81.40 38.81 80.84 C 39.34 80.83 40.39 80.82 40.91 80.81 L 41.06 82.31 C 41.38 81.95 42.03 81.24 42.35 80.89 L 43.41 81.18 C 42.27 82.43 41.11 83.66 40.06 84.99 C 41.58 86.61 43.75 85.33 44.82 83.88 C 47.48 81.72 43.67 79.21 41.92 77.98 C 42.37 76.42 41.83 75.77 40.29 76.04 C 41.22 74.26 40.81 72.39 39.66 70.83 C 37.94 73.14 37.00 76.16 37.48 79.03 M 40.26 88.32 C 40.19 89.73 43.71 89.73 43.72 88.34 C 42.57 87.62 41.42 87.62 40.26 88.32 M 74.26 89.39 C 74.64 90.77 78.24 90.72 78.64 89.37 C 77.37 88.63 75.51 88.61 74.26 89.39 Z" />
<path fill="#cc9c9c" opacity="1.00" d=" M 62.18 35.20 C 63.16 33.96 66.03 35.16 64.82 36.73 C 63.84 37.92 61.03 36.75 62.18 35.20 Z" />
<path fill="#cc9c9c" opacity="1.00" d=" M 54.31 38.24 C 54.83 38.76 54.83 38.76 54.31 38.24 Z" />
<path fill="#cc9c9c" opacity="1.00" d=" M 49.46 43.22 C 52.51 42.74 48.68 47.23 47.21 46.61 C 46.77 45.16 48.26 43.79 49.46 43.22 Z" />
<path fill="#cc9c9c" opacity="1.00" d=" M 46.08 48.30 C 49.36 48.50 44.53 51.31 46.08 48.30 Z" />
<path fill="#cc9c9c" opacity="1.00" d=" M 45.13 51.23 C 48.40 51.52 43.49 54.19 45.13 51.23 Z" />
<path fill="#cc9c9c" opacity="1.00" d=" M 44.26 55.47 C 45.68 55.38 45.61 57.85 44.79 58.57 C 43.36 58.68 43.41 56.18 44.26 55.47 Z" />
<path fill="#cc9c9c" opacity="1.00" d=" M 69.01 59.24 C 69.21 57.93 69.87 56.92 70.98 56.21 C 71.12 58.65 71.16 61.11 70.92 63.55 L 70.19 64.28 C 70.01 62.56 69.96 60.76 69.01 59.24 Z" />
<path fill="#cc9c9c" opacity="1.00" d=" M 62.94 61.10 C 62.85 59.71 63.55 58.96 65.04 58.85 C 64.99 60.21 64.30 60.97 62.94 61.10 Z" />
<path fill="#cc9c9c" opacity="1.00" d=" M 68.30 60.89 C 68.39 60.69 68.57 60.30 68.65 60.10 C 68.57 60.30 68.39 60.69 68.30 60.89 Z" />
<path fill="#cc9c9c" opacity="1.00" d=" M 60.15 62.55 C 60.28 62.49 60.53 62.36 60.66 62.30 L 60.44 62.42 L 60.15 62.55 Z" />
<path fill="#cc9c9c" opacity="1.00" d=" M 67.31 62.55 C 67.44 62.38 67.70 62.05 67.82 61.89 L 67.59 62.40 L 67.31 62.55 Z" />
<path fill="#cc9c9c" opacity="1.00" d=" M 57.03 64.12 C 57.65 63.81 58.88 63.18 59.49 62.86 C 58.88 63.18 57.65 63.81 57.03 64.12 Z" />
<path fill="#cc9c9c" opacity="1.00" d=" M 61.89 67.83 C 62.64 65.89 64.23 64.48 66.36 64.37 C 65.92 66.58 64.07 67.79 61.89 67.83 Z" />
<path fill="#cc9c9c" opacity="1.00" d=" M 69.47 64.97 C 71.09 65.93 69.87 68.18 68.25 68.16 C 68.18 66.88 68.59 65.82 69.47 64.97 Z" />
<path fill="#cc9c9c" opacity="1.00" d=" M 59.28 68.26 C 59.74 68.20 60.66 68.08 61.12 68.02 C 60.60 68.29 59.56 68.84 59.04 69.11 L 59.28 68.26 Z" />
<path fill="#cc9c9c" opacity="1.00" d=" M 60.04 74.33 C 62.73 72.51 65.40 70.67 68.01 68.72 C 67.12 72.33 63.35 73.83 60.04 74.33 Z" />
<path fill="#cc9c9c" opacity="1.00" d=" M 71.26 69.36 C 72.49 68.62 73.63 70.75 72.79 71.66 C 71.58 72.36 70.40 70.27 71.26 69.36 Z" />
<path fill="#cc9c9c" opacity="1.00" d=" M 67.83 75.07 C 67.93 73.45 68.66 72.77 70.02 73.02 C 69.93 74.26 69.20 74.95 67.83 75.07 Z" />
<path fill="#cc9c9c" opacity="1.00" d=" M 59.25 74.61 C 59.37 74.56 59.60 74.47 59.72 74.42 C 59.60 74.47 59.37 74.56 59.25 74.61 Z" />
<path fill="#cc9c9c" opacity="1.00" d=" M 50.18 75.19 C 52.39 74.48 54.72 74.79 56.92 75.32 C 54.81 76.50 52.12 76.98 50.18 75.19 Z" />
<path fill="#cc9c9c" opacity="1.00" d=" M 68.91 78.51 C 68.91 77.09 69.32 75.28 71.02 75.07 C 71.68 76.71 71.14 79.27 68.91 78.51 Z" />
<path fill="#cc9c9c" opacity="1.00" d=" M 63.00 78.09 C 62.89 76.38 64.89 76.07 66.17 76.12 C 65.65 77.33 64.48 78.67 63.00 78.09 Z" />
<path fill="#cc9c9c" opacity="1.00" d=" M 79.29 76.39 C 79.33 76.45 79.40 76.57 79.43 76.63 C 79.40 76.57 79.33 76.45 79.29 76.39 Z" />
<path fill="#cc9c9c" opacity="1.00" d=" M 60.06 79.17 C 60.55 78.86 61.53 78.24 62.02 77.92 C 61.53 78.24 60.55 78.86 60.06 79.17 Z" />
<path fill="#cc9c9c" opacity="1.00" d=" M 52.16 79.43 C 53.90 78.49 55.91 78.66 57.74 79.23 L 58.00 79.72 C 56.09 80.56 53.99 80.38 52.16 79.43 Z" />
<path fill="#cc9c9c" opacity="1.00" d=" M 71.66 80.24 L 72.88 79.58 C 72.88 80.10 72.87 81.14 72.86 81.67 C 74.46 81.43 76.06 81.15 77.66 80.86 C 76.56 81.70 75.42 82.47 74.25 83.19 C 72.35 83.46 71.99 81.66 71.66 80.24 Z" />
<path fill="#cc9c9c" opacity="1.00" d=" M 75.18 83.82 C 77.34 83.84 78.76 82.12 80.28 80.86 C 80.35 84.08 75.57 87.15 73.54 84.06 L 75.18 83.82 Z" />
</g>
<g id="#fec9d4ff">
<path fill="#fec9d4" opacity="1.00" d=" M 53.79 30.82 C 56.17 29.94 58.81 28.38 61.34 29.66 C 63.87 30.64 66.57 31.53 68.65 33.35 C 70.60 36.04 72.61 39.35 71.61 42.80 C 70.68 44.80 68.76 46.18 66.49 45.92 C 66.37 44.68 66.21 43.44 66.00 42.21 C 65.08 40.93 63.40 40.95 62.01 40.68 C 56.74 39.72 51.41 40.79 46.11 40.46 C 46.29 39.33 46.56 38.21 47.40 37.38 C 49.38 35.07 50.76 31.94 53.79 30.82 M 62.18 35.20 C 61.03 36.75 63.84 37.92 64.82 36.73 C 66.03 35.16 63.16 33.96 62.18 35.20 M 54.31 38.24 C 54.83 38.76 54.83 38.76 54.31 38.24 Z" />
<path fill="#fec9d4" opacity="1.00" d=" M 34.81 37.84 C 36.28 36.20 38.33 37.97 40.05 38.20 C 39.21 39.79 38.36 41.38 37.48 42.95 C 38.97 43.01 40.47 43.06 41.96 43.11 C 42.11 42.43 42.39 41.07 42.53 40.39 C 42.92 40.84 43.69 41.74 44.08 42.19 C 42.47 44.27 40.82 46.32 39.06 48.29 C 37.52 46.14 35.68 44.17 33.19 43.12 C 33.18 41.22 32.83 38.93 34.81 37.84 Z" />
<path fill="#fec9d4" opacity="1.00" d=" M 79.50 37.15 C 82.75 36.98 86.57 39.97 85.44 43.45 C 81.84 44.41 78.03 44.96 74.35 44.09 C 75.25 42.10 76.18 40.13 77.10 38.15 L 77.37 37.59 C 77.90 37.48 78.97 37.26 79.50 37.15 Z" />
<path fill="#fec9d4" opacity="1.00" d=" M 41.27 39.34 C 41.81 39.83 41.81 39.83 41.27 39.34 Z" />
<path fill="#fec9d4" opacity="1.00" d=" M 47.52 42.16 C 51.86 42.05 56.26 41.72 60.57 42.27 C 60.96 42.65 61.74 43.39 62.13 43.77 C 60.85 43.88 59.57 43.99 58.29 44.10 C 56.88 45.50 55.46 46.88 54.00 48.22 C 53.96 50.18 53.98 52.14 54.00 54.11 L 53.00 53.97 C 52.59 58.41 54.38 64.07 50.38 67.33 C 45.92 69.33 39.25 69.21 36.60 64.37 C 35.65 58.75 38.34 53.57 40.67 48.66 C 41.62 47.02 42.85 45.57 44.29 44.35 C 45.59 43.98 46.59 43.09 47.52 42.16 M 49.46 43.22 C 48.26 43.79 46.77 45.16 47.21 46.61 C 48.68 47.23 52.51 42.74 49.46 43.22 M 46.08 48.30 C 44.53 51.31 49.36 48.50 46.08 48.30 M 45.13 51.23 C 43.49 54.19 48.40 51.52 45.13 51.23 M 44.26 55.47 C 43.41 56.18 43.36 58.68 44.79 58.57 C 45.61 57.85 45.68 55.38 44.26 55.47 Z" />
<path fill="#fec9d4" opacity="1.00" d=" M 71.63 48.77 C 72.90 47.80 74.31 47.02 75.91 46.81 C 76.16 48.09 76.41 49.38 76.65 50.67 C 75.89 52.02 74.93 53.35 74.81 54.95 C 75.69 56.70 77.38 57.83 78.53 59.39 C 80.27 62.52 79.95 66.22 80.00 69.67 C 82.79 72.77 84.68 76.81 83.84 81.07 C 83.88 85.89 78.42 88.41 74.20 87.84 C 70.90 85.64 70.22 81.20 66.96 79.18 C 67.45 79.01 68.42 78.68 68.91 78.51 C 71.14 79.27 71.68 76.71 71.02 75.07 C 70.92 74.61 70.71 73.68 70.61 73.22 L 70.02 73.02 C 68.66 72.77 67.93 73.45 67.83 75.07 C 67.42 75.33 66.59 75.86 66.17 76.12 C 64.89 76.07 62.89 76.38 63.00 78.09 L 62.02 77.92 C 61.53 78.24 60.55 78.86 60.06 79.17 C 59.48 79.18 58.32 79.21 57.74 79.23 C 55.91 78.66 53.90 78.49 52.16 79.43 C 50.47 77.99 48.73 76.63 46.99 75.27 C 47.42 75.04 48.28 74.57 48.71 74.34 C 49.08 74.55 49.81 74.98 50.18 75.19 C 52.12 76.98 54.81 76.50 56.92 75.32 C 57.51 75.15 58.67 74.79 59.25 74.61 C 59.37 74.56 59.60 74.47 59.72 74.42 L 60.04 74.33 C 63.35 73.83 67.12 72.33 68.01 68.72 L 68.25 68.16 C 69.87 68.18 71.09 65.93 69.47 64.97 C 69.65 64.80 70.01 64.46 70.19 64.28 L 70.92 63.55 C 71.16 61.11 71.12 58.65 70.98 56.21 C 69.87 56.92 69.21 57.93 69.01 59.24 L 68.65 60.10 C 68.57 60.30 68.39 60.69 68.30 60.89 L 67.82 61.89 C 67.70 62.05 67.44 62.38 67.31 62.55 L 67.59 62.40 C 67.28 62.89 66.67 63.88 66.36 64.37 C 64.23 64.48 62.64 65.89 61.89 67.83 L 61.12 68.02 C 60.66 68.08 59.74 68.20 59.28 68.26 L 59.04 69.11 C 57.88 69.67 56.74 70.26 55.55 70.76 C 54.30 70.27 53.05 69.78 51.81 69.28 C 52.29 67.94 52.81 66.62 53.32 65.29 C 54.39 64.87 55.48 64.50 56.59 64.19 L 57.03 64.12 C 57.65 63.81 58.88 63.18 59.49 62.86 L 60.15 62.55 L 60.44 62.42 L 60.66 62.30 C 61.23 62.00 62.37 61.40 62.94 61.10 C 64.30 60.97 64.99 60.21 65.04 58.85 C 65.28 57.84 65.54 56.82 65.80 55.81 C 67.24 55.65 68.00 53.02 66.01 53.26 C 62.29 55.03 58.51 56.91 54.27 56.87 C 54.21 56.18 54.07 54.80 54.00 54.11 C 60.23 54.68 66.71 52.63 71.63 48.77 M 71.26 69.36 C 70.40 70.27 71.58 72.36 72.79 71.66 C 73.63 70.75 72.49 68.62 71.26 69.36 M 74.30 75.22 C 72.72 76.44 72.23 78.44 71.66 80.24 C 71.99 81.66 72.35 83.46 74.25 83.19 L 75.18 83.82 L 73.54 84.06 C 75.57 87.15 80.35 84.08 80.28 80.86 C 80.01 79.45 79.73 78.04 79.43 76.63 C 79.40 76.57 79.33 76.45 79.29 76.39 C 78.05 74.95 76.04 74.79 74.30 75.22 Z" />
<path fill="#fec9d4" opacity="1.00" d=" M 37.48 79.03 C 37.00 76.16 37.94 73.14 39.66 70.83 C 40.81 72.39 41.22 74.26 40.29 76.04 C 40.08 77.12 40.62 77.76 41.92 77.98 C 43.67 79.21 47.48 81.72 44.82 83.88 C 43.75 85.33 41.58 86.61 40.06 84.99 C 41.11 83.66 42.27 82.43 43.41 81.18 L 42.35 80.89 C 42.03 81.24 41.38 81.95 41.06 82.31 L 40.91 80.81 C 40.39 80.82 39.34 80.83 38.81 80.84 C 39.20 81.40 39.98 82.52 40.37 83.08 C 37.81 83.45 37.89 80.78 37.48 79.03 Z" />
<path fill="#fec9d4" opacity="1.00" d=" M 43.93 76.30 C 46.20 78.46 48.99 79.65 52.16 79.43 C 53.99 80.38 56.09 80.56 58.00 79.72 C 59.72 80.22 61.44 80.72 63.19 81.10 C 61.19 81.81 59.16 82.64 56.99 82.63 C 54.70 82.93 52.43 81.19 50.23 82.38 C 47.74 80.80 45.51 78.81 43.93 76.30 Z" />
<path fill="#fec9d4" opacity="1.00" d=" M 72.88 79.58 C 73.65 78.08 74.17 76.14 76.02 75.66 C 77.64 76.13 78.37 77.87 79.52 78.96 C 78.91 79.61 78.29 80.24 77.66 80.86 C 76.06 81.15 74.46 81.43 72.86 81.67 C 72.87 81.14 72.88 80.10 72.88 79.58 Z" />
</g>
<g id="#fefbd2ff">
<path fill="#fefbd2" opacity="1.00" d=" M 54.27 56.87 C 58.51 56.91 62.29 55.03 66.01 53.26 C 65.96 53.90 65.85 55.18 65.80 55.81 C 65.54 56.82 65.28 57.84 65.04 58.85 C 63.55 58.96 62.85 59.71 62.94 61.10 C 62.37 61.40 61.23 62.00 60.66 62.30 C 60.53 62.36 60.28 62.49 60.15 62.55 L 59.49 62.86 C 58.88 63.18 57.65 63.81 57.03 64.12 L 56.59 64.19 C 55.94 64.14 54.65 64.06 54.00 64.02 C 53.97 61.63 54.08 59.25 54.27 56.87 Z" />
<path fill="#fefbd2" opacity="1.00" d=" M 69.01 59.24 C 69.96 60.76 70.01 62.56 70.19 64.28 C 70.01 64.46 69.65 64.80 69.47 64.97 C 68.59 65.82 68.18 66.88 68.25 68.16 L 68.01 68.72 C 65.40 70.67 62.73 72.51 60.04 74.33 L 59.72 74.42 C 59.60 74.47 59.37 74.56 59.25 74.61 C 58.67 74.79 57.51 75.15 56.92 75.32 C 54.72 74.79 52.39 74.48 50.18 75.19 C 49.81 74.98 49.08 74.55 48.71 74.34 C 47.55 73.68 46.37 73.05 45.19 72.42 C 48.37 70.56 52.09 71.34 55.55 70.76 C 56.74 70.26 57.88 69.67 59.04 69.11 C 59.56 68.84 60.60 68.29 61.12 68.02 L 61.89 67.83 C 64.07 67.79 65.92 66.58 66.36 64.37 C 66.67 63.88 67.28 62.89 67.59 62.40 L 67.82 61.89 L 68.30 60.89 C 68.39 60.69 68.57 60.30 68.65 60.10 L 69.01 59.24 Z" />
<path fill="#fefbd2" opacity="1.00" d=" M 70.02 73.02 L 70.61 73.22 C 70.71 73.68 70.92 74.61 71.02 75.07 C 69.32 75.28 68.91 77.09 68.91 78.51 C 68.42 78.68 67.45 79.01 66.96 79.18 C 65.69 79.79 64.48 80.52 63.19 81.10 C 61.44 80.72 59.72 80.22 58.00 79.72 L 57.74 79.23 C 58.32 79.21 59.48 79.18 60.06 79.17 C 60.55 78.86 61.53 78.24 62.02 77.92 L 63.00 78.09 C 64.48 78.67 65.65 77.33 66.17 76.12 C 66.59 75.86 67.42 75.33 67.83 75.07 C 69.20 74.95 69.93 74.26 70.02 73.02 Z" />
<path fill="#fefbd2" opacity="1.00" d=" M 74.30 75.22 C 76.04 74.79 78.05 74.95 79.29 76.39 C 79.33 76.45 79.40 76.57 79.43 76.63 C 79.73 78.04 80.01 79.45 80.28 80.86 C 78.76 82.12 77.34 83.84 75.18 83.82 L 74.25 83.19 C 75.42 82.47 76.56 81.70 77.66 80.86 C 78.29 80.24 78.91 79.61 79.52 78.96 C 78.37 77.87 77.64 76.13 76.02 75.66 C 74.17 76.14 73.65 78.08 72.88 79.58 L 71.66 80.24 C 72.23 78.44 72.72 76.44 74.30 75.22 Z" />
<path fill="#fefbd2" opacity="1.00" d=" M 40.29 76.04 C 41.83 75.77 42.37 76.42 41.92 77.98 C 40.62 77.76 40.08 77.12 40.29 76.04 Z" />
<path fill="#fefbd2" opacity="1.00" d=" M 40.26 88.32 C 41.42 87.62 42.57 87.62 43.72 88.34 C 43.71 89.73 40.19 89.73 40.26 88.32 Z" />
<path fill="#fefbd2" opacity="1.00" d=" M 74.26 89.39 C 75.51 88.61 77.37 88.63 78.64 89.37 C 78.24 90.72 74.64 90.77 74.26 89.39 Z" />
</g>
</svg>
