<?xml version="1.0" encoding="UTF-8" ?>
<!DOCTYPE svg PUBLIC "-//W3C//DTD SVG 1.1//EN" "http://www.w3.org/Graphics/SVG/1.1/DTD/svg11.dtd">
<svg width="120pt" height="120pt" viewBox="0 0 120 120" version="1.1" xmlns="http://www.w3.org/2000/svg">
<g id="#4e4761ff">
<path fill="#4e4761" opacity="1.00" d=" M 85.96 7.06 C 87.14 7.12 88.33 7.17 89.51 7.23 C 92.58 9.80 95.60 12.46 98.95 14.67 C 98.94 17.38 99.21 20.19 98.21 22.78 C 101.34 25.75 104.16 30.71 102.04 34.94 C 102.00 35.71 101.92 37.25 101.88 38.02 L 100.88 37.96 C 101.24 35.70 101.71 33.40 101.35 31.10 C 100.70 28.96 99.85 26.88 99.02 24.80 C 98.37 25.09 97.07 25.66 96.42 25.95 C 97.24 23.16 97.77 20.30 98.13 17.42 C 96.83 18.74 95.57 20.10 94.32 21.47 C 92.06 20.93 90.84 19.58 91.58 17.25 C 91.03 17.09 89.93 16.78 89.38 16.63 C 88.84 16.47 87.75 16.16 87.21 16.00 C 86.25 14.01 85.25 12.03 83.94 10.24 C 83.61 10.09 82.93 9.78 82.59 9.62 L 81.57 9.16 C 82.28 9.21 83.70 9.30 84.41 9.35 C 86.52 10.18 88.68 10.87 90.79 11.69 C 89.80 12.69 88.81 13.70 87.82 14.72 C 88.94 15.08 90.05 15.45 91.16 15.82 C 92.16 14.76 93.20 13.74 94.09 12.59 C 93.50 12.19 92.32 11.40 91.73 11.00 C 90.09 9.81 88.56 8.32 86.51 7.86 L 85.96 7.06 M 93.99 15.00 C 93.58 16.37 93.18 17.75 92.91 19.16 C 95.31 20.17 96.22 16.46 97.52 15.04 C 96.63 15.03 94.87 15.01 93.99 15.00 Z" />
<path fill="#4e4761" opacity="1.00" d=" M 22.38 9.52 C 23.19 9.40 24.81 9.15 25.62 9.03 C 25.99 9.49 26.72 10.43 27.09 10.89 C 28.58 10.50 30.10 10.17 31.61 9.85 C 32.84 12.72 33.02 16.73 36.45 17.90 C 37.77 18.48 38.38 19.83 39.23 20.90 C 38.36 22.36 35.98 23.66 37.14 25.58 C 37.78 26.97 38.69 28.20 39.60 29.42 C 41.02 28.62 42.58 28.22 44.17 27.93 L 43.45 28.47 C 42.03 29.21 40.54 29.83 39.06 30.45 C 39.05 31.77 39.02 33.08 38.99 34.39 C 38.79 34.61 38.38 35.04 38.18 35.26 C 38.46 31.32 37.30 27.56 34.67 24.60 C 34.98 24.31 35.59 23.72 35.90 23.43 C 34.92 23.27 33.95 23.11 32.97 22.95 C 32.88 22.42 32.71 21.37 32.62 20.85 C 32.78 20.25 33.11 19.04 33.27 18.44 C 33.75 20.86 35.64 21.70 37.91 21.78 C 36.48 19.49 34.14 18.14 31.92 16.75 C 31.89 16.00 31.84 14.50 31.81 13.75 C 31.28 13.68 30.22 13.55 29.68 13.48 C 31.34 13.05 31.18 10.35 29.25 10.87 C 28.24 11.42 28.10 12.25 28.82 13.38 C 28.94 14.77 29.02 16.17 29.08 17.58 C 27.73 15.48 26.46 13.32 25.11 11.22 C 24.65 10.89 23.72 10.22 23.26 9.88 L 22.38 9.52 Z" />
<path fill="#4e4761" opacity="1.00" d=" M 21.59 10.39 L 21.97 11.20 C 22.25 11.68 22.81 12.64 23.09 13.13 C 24.32 14.88 25.41 16.74 26.37 18.67 C 25.16 17.72 24.01 16.71 22.99 15.57 L 22.54 15.07 C 21.94 15.15 20.74 15.32 20.14 15.41 C 20.09 16.09 20.00 17.46 19.96 18.14 C 21.04 18.47 22.13 18.80 23.21 19.12 C 22.78 20.19 22.35 21.27 21.92 22.34 C 23.49 23.65 25.20 24.84 26.53 26.42 C 28.44 30.04 28.39 34.63 31.33 37.73 C 33.61 40.21 37.26 39.89 40.32 40.22 L 39.75 40.73 C 39.50 40.94 39.02 41.35 38.78 41.56 C 36.29 40.98 33.58 41.02 31.34 39.63 C 29.29 38.17 28.46 35.68 27.34 33.53 C 26.98 31.41 26.46 29.32 25.97 27.22 C 22.87 25.17 20.17 21.94 16.03 22.82 C 16.12 21.98 16.30 20.31 16.39 19.48 L 16.80 20.28 C 17.28 22.70 19.86 22.07 20.80 20.36 C 19.85 19.88 18.86 19.48 17.85 19.15 C 18.31 17.02 19.47 15.14 20.92 13.54 C 21.09 12.76 21.42 11.18 21.59 10.39 Z" />
<path fill="#4e4761" opacity="1.00" d=" M 78.44 12.37 L 79.45 12.56 C 81.11 12.89 82.77 13.19 84.43 13.51 C 87.01 13.55 84.83 16.39 84.65 17.67 C 84.46 18.96 84.26 20.26 83.99 21.54 C 83.77 21.83 83.33 22.41 83.11 22.70 C 85.11 23.22 87.11 23.77 89.05 24.52 L 89.13 25.58 C 89.24 28.53 89.44 31.48 90.00 34.39 C 87.82 31.68 88.51 27.92 86.78 25.08 C 85.67 25.17 84.56 25.32 83.47 25.51 C 80.70 26.24 78.07 27.47 76.16 29.66 C 76.16 29.00 76.15 27.67 76.14 27.01 C 74.39 27.01 72.64 27.02 70.89 27.03 C 71.16 28.25 71.42 29.48 71.69 30.71 C 70.78 34.00 69.18 37.05 67.08 39.74 C 67.69 39.91 68.91 40.26 69.52 40.44 C 69.96 40.67 70.83 41.13 71.27 41.36 C 75.57 44.20 79.90 47.32 85.29 47.31 C 83.28 47.60 81.27 48.08 79.23 48.04 C 75.71 46.23 72.70 43.48 68.93 42.14 C 66.02 40.66 62.88 42.22 59.90 42.59 C 56.95 41.80 54.00 41.06 51.02 40.41 C 50.30 39.20 49.54 38.01 48.78 36.81 C 46.64 37.35 44.49 37.88 42.37 38.49 C 41.98 38.80 41.22 39.42 40.83 39.73 C 41.03 39.09 41.43 37.82 41.63 37.18 C 44.07 36.73 46.51 36.22 48.94 35.71 C 48.54 34.22 48.15 32.73 47.77 31.24 C 48.32 30.61 49.40 29.35 49.94 28.72 C 51.08 29.71 52.21 30.70 53.39 31.64 C 52.46 29.64 51.34 27.74 50.34 25.77 C 48.43 26.27 46.53 26.83 44.69 27.56 C 46.00 25.02 48.92 25.08 51.36 25.19 C 49.25 22.94 49.71 18.51 53.51 18.85 C 54.21 19.71 54.93 20.58 55.64 21.44 C 56.93 18.73 58.85 16.39 61.58 15.03 C 62.31 15.82 63.05 16.61 63.80 17.39 C 63.87 18.14 64.01 19.64 64.09 20.39 C 66.09 19.64 68.09 18.90 70.07 18.09 C 71.12 20.68 72.45 23.44 70.77 26.10 C 75.54 26.85 80.13 26.04 84.67 24.52 C 82.55 24.15 80.71 23.16 79.10 21.79 C 79.12 20.62 79.14 19.44 79.16 18.27 C 80.65 17.30 82.16 16.35 83.65 15.38 C 81.40 15.28 79.51 14.37 78.44 12.37 M 59.39 16.68 C 58.65 17.96 57.91 19.24 57.16 20.52 C 57.05 21.01 56.83 21.98 56.72 22.47 C 56.30 23.96 56.02 25.49 55.76 27.01 L 57.00 26.95 C 57.00 26.24 57.00 24.82 57.00 24.11 C 58.69 22.26 60.78 20.88 63.30 20.47 C 63.03 18.22 61.63 16.91 59.39 16.68 M 80.05 19.28 C 80.56 20.28 81.17 21.23 81.77 22.19 C 82.41 20.40 82.88 18.56 83.26 16.69 C 82.16 17.53 81.06 18.34 80.05 19.28 M 51.59 20.60 C 50.56 22.28 52.07 24.24 52.17 26.02 L 52.53 25.90 C 53.30 24.69 54.09 23.48 54.89 22.29 C 53.82 21.73 52.91 19.48 51.59 20.60 M 66.44 20.02 C 64.46 21.39 62.52 22.82 60.58 24.25 C 61.00 23.59 61.83 22.28 62.25 21.62 C 59.44 22.46 56.63 24.89 58.59 28.10 L 57.00 26.95 C 57.00 27.39 57.00 28.27 57.00 28.71 C 57.51 29.03 58.54 29.69 59.05 30.01 C 58.95 28.74 59.33 27.70 60.16 26.88 L 60.94 26.46 L 61.03 25.96 L 61.81 25.99 C 63.42 24.50 65.47 23.90 67.62 23.79 C 68.43 24.63 69.23 25.47 70.05 26.30 C 70.08 24.21 70.06 22.12 70.02 20.02 C 68.83 20.02 67.64 20.02 66.44 20.02 M 54.27 27.66 C 55.71 27.70 55.52 25.15 54.78 24.38 C 53.36 24.36 53.56 26.87 54.27 27.66 M 61.81 25.99 C 61.81 26.51 61.81 27.55 61.81 28.07 C 58.87 29.09 64.06 32.99 64.00 29.60 C 64.92 30.31 65.87 30.97 66.86 31.59 C 67.56 30.37 68.31 29.18 68.93 27.91 C 68.29 26.86 67.52 25.90 66.79 24.91 C 65.15 25.30 63.32 25.17 61.81 25.99 M 66.86 31.59 L 66.40 31.93 C 65.15 31.98 63.89 32.02 62.64 32.08 C 60.85 32.74 59.01 33.27 57.26 34.02 C 54.02 34.04 51.36 32.00 48.49 30.82 C 49.94 33.81 53.32 35.09 55.92 36.90 C 57.17 36.51 58.32 35.89 59.49 35.34 C 60.51 34.99 61.52 34.64 62.53 34.28 C 65.77 34.14 69.80 33.41 70.56 29.62 C 69.17 29.98 67.94 30.64 66.86 31.59 M 59.22 31.27 C 59.77 31.82 59.77 31.82 59.22 31.27 M 67.46 34.09 C 66.03 34.93 64.56 35.68 63.07 36.40 L 62.96 36.97 C 61.18 36.99 59.40 37.03 57.62 37.12 C 54.80 39.48 52.04 35.94 49.59 34.73 C 50.54 38.84 55.12 40.29 58.81 40.60 C 62.90 39.44 68.31 38.94 69.63 34.06 C 69.09 34.07 68.00 34.08 67.46 34.09 Z" />
<path fill="#4e4761" opacity="1.00" d=" M 61.03 25.96 C 59.40 25.58 59.25 25.01 60.58 24.25 C 60.69 24.68 60.92 25.53 61.03 25.96 Z" />
<path fill="#4e4761" opacity="1.00" d=" M 80.73 35.46 C 81.19 35.52 81.66 35.58 82.12 35.65 C 82.98 35.79 84.69 36.08 85.54 36.22 C 89.09 39.79 94.19 41.39 99.09 39.86 L 98.95 40.73 C 96.58 41.08 94.24 41.61 91.88 42.04 C 91.49 47.57 93.52 52.90 92.88 58.43 C 92.56 59.06 91.91 60.31 91.58 60.94 C 88.94 60.86 86.26 60.83 83.66 61.43 C 81.92 60.29 80.18 59.15 78.51 57.90 C 77.18 56.33 75.99 54.66 74.77 53.01 C 73.63 53.00 72.49 53.00 71.36 53.00 C 70.95 53.50 70.14 54.50 69.74 55.00 C 69.10 55.02 67.82 55.05 67.18 55.06 C 66.67 54.13 66.17 53.20 65.66 52.27 C 63.67 51.99 61.68 51.69 59.75 51.13 C 58.56 49.95 57.40 48.76 56.28 47.52 C 57.37 45.79 58.60 44.16 59.90 42.59 C 60.04 43.44 60.32 45.14 60.47 45.99 C 63.70 44.97 66.97 44.03 70.37 43.80 C 66.88 45.71 63.60 47.98 59.99 49.67 L 60.13 49.64 C 61.75 50.02 63.36 50.44 64.97 50.86 C 67.63 49.00 70.51 47.47 73.59 46.43 C 71.43 48.52 69.20 50.54 67.05 52.65 C 67.50 52.99 68.38 53.65 68.82 53.99 C 70.89 52.19 73.08 50.49 75.59 49.33 C 75.53 49.91 75.41 51.06 75.35 51.64 C 77.79 54.54 80.18 57.78 83.77 59.31 C 86.07 60.16 88.59 59.95 91.00 60.12 C 91.38 58.73 91.75 57.33 92.12 55.93 C 90.31 55.79 88.51 55.66 86.70 55.52 C 88.58 55.35 90.45 55.19 92.33 55.03 C 91.99 53.68 91.67 52.34 91.27 51.01 C 89.42 49.79 87.45 48.76 85.49 47.73 C 87.29 47.99 89.10 48.25 90.91 48.51 C 90.88 46.43 90.86 44.35 90.85 42.28 C 88.30 40.47 86.07 37.88 83.00 37.01 C 80.96 37.60 79.17 38.79 77.26 39.67 C 76.49 40.34 75.73 41.01 74.97 41.67 C 76.93 39.64 79.03 37.73 80.73 35.46 M 58.05 46.44 C 57.54 48.08 61.22 49.01 61.52 47.41 C 60.75 46.49 59.16 45.82 58.05 46.44 Z" />
<path fill="#4e4761" opacity="1.00" d=" M 36.87 43.49 L 37.08 44.83 C 37.06 45.40 37.03 46.56 37.01 47.14 C 38.31 47.08 39.62 47.02 40.93 46.97 C 41.04 49.01 41.16 51.05 41.29 53.09 C 42.90 51.99 44.50 50.88 46.11 49.78 C 46.61 52.51 46.94 55.28 46.90 58.06 C 47.80 58.84 48.69 59.61 49.60 60.38 C 52.66 63.30 54.54 68.12 59.34 68.44 C 59.08 67.92 58.56 66.87 58.31 66.35 C 60.27 65.93 62.23 65.51 64.19 65.07 C 67.56 66.80 71.17 68.53 75.07 68.01 C 77.77 68.15 79.22 65.49 81.07 63.98 C 79.31 67.07 78.82 71.79 81.66 74.39 C 85.18 78.82 86.96 84.48 86.98 90.11 C 86.70 92.15 88.77 93.17 89.90 94.50 C 89.89 96.11 89.86 97.72 89.79 99.33 C 87.83 101.88 89.84 104.55 90.75 107.04 C 91.06 108.99 90.99 110.97 91.03 112.94 C 87.00 112.91 82.96 112.94 78.93 112.91 C 79.14 111.51 79.36 110.11 79.62 108.72 C 79.82 109.50 80.21 111.05 80.40 111.83 C 81.57 111.88 82.75 111.93 83.93 111.99 C 84.19 111.01 84.46 110.03 84.73 109.06 C 86.22 108.71 87.72 108.38 89.21 108.00 L 89.01 107.04 C 87.77 103.34 88.30 99.46 88.96 95.72 C 87.77 94.24 86.55 92.77 85.50 91.18 C 86.54 84.42 82.80 78.25 78.80 73.15 C 75.56 74.69 72.20 76.51 70.56 79.88 C 70.32 80.26 69.84 81.03 69.60 81.41 C 71.72 87.46 75.98 92.46 77.81 98.62 C 78.52 100.50 80.53 101.39 81.96 102.64 C 82.01 104.01 82.04 105.39 82.08 106.76 L 81.09 107.28 C 81.12 106.04 81.14 104.79 81.16 103.55 C 79.29 102.53 77.68 101.14 76.13 99.69 C 76.14 98.29 76.14 96.88 76.12 95.48 C 71.82 92.05 71.07 86.19 67.77 82.05 C 66.66 81.89 65.55 81.78 64.44 81.71 C 63.72 83.41 63.02 85.16 61.70 86.50 C 62.15 85.14 62.59 83.77 63.02 82.39 C 62.47 81.82 61.39 80.66 60.84 80.08 C 58.84 77.75 56.94 75.32 54.64 73.26 C 53.40 74.26 52.15 75.25 50.91 76.26 C 52.96 73.73 54.69 70.80 54.22 67.41 C 51.05 64.76 48.73 61.26 45.36 58.83 C 44.13 57.80 42.92 56.76 41.72 55.70 C 39.84 53.99 37.80 52.48 35.71 51.03 C 34.83 51.85 33.95 52.67 33.06 53.49 C 35.22 54.02 37.38 54.54 39.55 55.02 L 40.89 55.66 C 40.21 55.72 38.87 55.82 38.19 55.87 C 38.56 57.24 38.93 58.60 39.30 59.97 C 38.29 60.45 37.28 60.94 36.26 61.42 C 36.18 62.05 36.01 63.32 35.93 63.95 C 35.14 64.12 33.58 64.48 32.79 64.65 C 34.99 64.84 37.18 65.05 39.37 65.32 C 37.15 66.13 34.72 66.18 32.42 65.73 C 30.98 63.99 29.72 62.09 28.18 60.43 C 28.20 59.99 28.24 59.12 28.26 58.68 C 29.83 55.47 31.67 52.17 35.05 50.56 C 35.14 49.57 35.23 48.58 35.32 47.59 C 35.82 46.21 36.34 44.85 36.87 43.49 M 37.26 47.89 C 36.98 48.38 36.43 49.37 36.15 49.87 C 37.50 50.45 38.86 51.03 40.21 51.61 C 40.18 50.70 40.11 48.88 40.08 47.97 C 39.37 47.95 37.97 47.91 37.26 47.89 M 41.27 54.45 C 42.17 55.18 43.09 55.87 44.05 56.53 C 45.86 56.69 46.83 54.84 45.36 53.66 C 44.36 51.87 42.49 54.26 41.27 54.45 M 31.23 55.21 C 31.19 55.50 31.10 56.08 31.05 56.37 C 33.08 58.33 35.54 60.01 38.43 60.26 C 37.72 57.15 34.48 54.37 31.23 55.21 M 28.73 57.99 C 30.28 60.21 32.28 62.39 34.98 63.11 C 35.42 59.79 31.01 59.19 28.73 57.99 M 60.50 69.78 C 59.43 69.97 58.36 70.17 57.30 70.38 C 58.36 71.10 59.43 71.80 60.51 72.49 C 62.08 72.82 63.66 73.13 65.23 73.46 C 66.29 72.23 67.34 71.00 68.38 69.76 C 67.66 70.08 66.21 70.72 65.49 71.04 C 65.15 70.70 64.46 70.03 64.12 69.69 C 63.52 70.19 62.33 71.21 61.73 71.72 C 61.56 71.12 61.23 69.91 61.06 69.31 C 61.73 68.45 62.39 67.59 63.04 66.72 C 61.77 67.36 60.54 68.15 60.50 69.78 M 74.26 69.33 C 74.77 69.82 74.77 69.82 74.26 69.33 M 77.26 69.30 C 77.80 69.76 77.80 69.76 77.26 69.30 M 71.28 70.25 C 71.81 70.75 71.81 70.75 71.28 70.25 M 86.10 108.84 C 86.15 109.61 86.24 111.13 86.28 111.89 C 87.57 111.80 88.86 111.71 90.15 111.61 C 89.99 109.32 87.98 109.06 86.10 108.84 Z" />
<path fill="#4e4761" opacity="1.00" d=" M 41.15 62.73 C 40.41 61.56 40.03 59.75 41.66 59.14 C 41.97 59.65 42.59 60.67 42.90 61.18 C 42.84 62.35 42.26 62.87 41.15 62.73 Z" />
<path fill="#4e4761" opacity="1.00" d=" M 75.23 61.05 C 78.15 59.40 75.49 64.39 75.23 61.05 Z" />
<path fill="#4e4761" opacity="1.00" d=" M 73.29 62.19 C 73.80 62.69 73.80 62.69 73.29 62.19 Z" />
<path fill="#4e4761" opacity="1.00" d=" M 54.54 63.04 C 55.70 62.11 56.36 62.35 56.52 63.76 C 55.36 64.69 54.70 64.45 54.54 63.04 Z" />
<path fill="#4e4761" opacity="1.00" d=" M 68.48 63.12 C 69.65 62.20 70.32 62.44 70.49 63.84 C 69.31 64.76 68.64 64.52 68.48 63.12 Z" />
<path fill="#4e4761" opacity="1.00" d=" M 46.27 82.03 C 45.16 80.49 47.43 77.67 49.12 78.38 C 48.41 79.73 47.87 81.47 46.27 82.03 Z" />
<path fill="#4e4761" opacity="1.00" d=" M 44.47 84.45 L 45.52 83.16 C 45.37 86.52 45.08 89.89 45.23 93.26 C 45.54 96.95 46.97 100.47 47.08 104.19 L 46.33 104.91 C 46.37 102.54 45.46 100.38 44.23 98.40 C 44.33 93.76 43.75 89.02 44.47 84.45 Z" />
<path fill="#4e4761" opacity="1.00" d=" M 57.02 90.68 C 57.50 90.47 58.48 90.07 58.96 89.86 L 58.80 90.75 L 57.81 91.16 L 57.02 90.68 Z" />
<path fill="#4e4761" opacity="1.00" d=" M 54.93 101.18 C 55.50 98.25 55.26 95.23 55.79 92.30 C 56.39 93.94 56.85 95.62 57.08 97.36 C 56.35 98.62 55.68 99.92 54.93 101.18 Z" />
<path fill="#4e4761" opacity="1.00" d=" M 86.16 95.60 C 87.59 95.37 87.69 97.83 86.70 98.42 C 85.26 98.65 85.16 96.20 86.16 95.60 Z" />
<path fill="#4e4761" opacity="1.00" d=" M 55.24 109.74 C 54.65 107.37 52.72 104.95 53.63 102.45 C 55.20 104.94 56.17 107.73 56.12 110.70 C 53.50 111.26 50.89 111.89 48.36 112.79 C 44.31 113.04 40.25 112.89 36.20 112.93 C 36.14 112.21 36.01 110.77 35.95 110.05 L 36.56 110.40 C 37.80 111.15 39.09 111.82 40.38 112.48 C 41.30 111.31 42.21 110.13 43.12 108.96 C 41.43 109.01 39.74 109.11 38.06 109.25 L 38.03 108.19 C 39.52 108.16 41.01 108.14 42.49 108.10 C 43.44 107.30 44.42 106.53 45.42 105.79 L 44.96 106.62 C 44.04 108.45 43.22 110.32 42.38 112.19 C 44.89 111.87 47.40 111.51 49.86 110.91 C 51.65 110.52 53.45 110.13 55.24 109.74 Z" />
</g>
<g id="#bdd1e7ff">
<path fill="#bdd1e7" opacity="1.00" d=" M 86.51 7.86 C 88.56 8.32 90.09 9.81 91.73 11.00 C 92.32 11.40 93.50 12.19 94.09 12.59 C 93.20 13.74 92.16 14.76 91.16 15.82 C 90.05 15.45 88.94 15.08 87.82 14.72 C 88.81 13.70 89.80 12.69 90.79 11.69 C 88.68 10.87 86.52 10.18 84.41 9.35 C 84.94 8.98 85.99 8.23 86.51 7.86 Z" />
<path fill="#bdd1e7" opacity="1.00" d=" M 80.05 19.28 C 81.06 18.34 82.16 17.53 83.26 16.69 C 82.88 18.56 82.41 20.40 81.77 22.19 C 81.17 21.23 80.56 20.28 80.05 19.28 Z" />
<path fill="#bdd1e7" opacity="1.00" d=" M 58.59 28.10 C 56.63 24.89 59.44 22.46 62.25 21.62 C 61.83 22.28 61.00 23.59 60.58 24.25 C 59.25 25.01 59.40 25.58 61.03 25.96 L 60.94 26.46 L 60.16 26.88 C 59.33 27.70 58.95 28.74 59.05 30.01 C 58.54 29.69 57.51 29.03 57.00 28.71 C 57.00 28.27 57.00 27.39 57.00 26.95 L 58.59 28.10 Z" />
<path fill="#bdd1e7" opacity="1.00" d=" M 54.27 27.66 C 53.56 26.87 53.36 24.36 54.78 24.38 C 55.52 25.15 55.71 27.70 54.27 27.66 Z" />
<path fill="#bdd1e7" opacity="1.00" d=" M 83.47 25.51 C 84.56 25.32 85.67 25.17 86.78 25.08 C 88.51 27.92 87.82 31.68 90.00 34.39 C 90.06 34.50 90.17 34.73 90.23 34.84 C 87.52 34.41 84.50 33.86 82.12 35.65 C 81.66 35.58 81.19 35.52 80.73 35.46 C 79.03 37.73 76.93 39.64 74.97 41.67 C 75.73 41.01 76.49 40.34 77.26 39.67 C 79.17 38.79 80.96 37.60 83.00 37.01 C 86.07 37.88 88.30 40.47 90.85 42.28 C 90.86 44.35 90.88 46.43 90.91 48.51 C 89.10 48.25 87.29 47.99 85.49 47.73 C 87.45 48.76 89.42 49.79 91.27 51.01 C 91.10 51.83 90.77 53.46 90.60 54.27 C 88.23 54.07 85.86 53.86 83.49 53.63 C 81.65 50.97 78.87 49.31 75.59 49.33 C 73.08 50.49 70.89 52.19 68.82 53.99 C 68.38 53.65 67.50 52.99 67.05 52.65 C 69.20 50.54 71.43 48.52 73.59 46.43 C 70.51 47.47 67.63 49.00 64.97 50.86 C 63.36 50.44 61.75 50.02 60.13 49.64 L 59.99 49.67 C 63.60 47.98 66.88 45.71 70.37 43.80 C 66.97 44.03 63.70 44.97 60.47 45.99 C 60.32 45.14 60.04 43.44 59.90 42.59 C 62.88 42.22 66.02 40.66 68.93 42.14 C 72.70 43.48 75.71 46.23 79.23 48.04 C 81.27 48.08 83.28 47.60 85.29 47.31 C 79.90 47.32 75.57 44.20 71.27 41.36 C 72.67 37.93 72.93 34.23 71.69 30.71 C 71.42 29.48 71.16 28.25 70.89 27.03 C 72.64 27.02 74.39 27.01 76.14 27.01 C 76.15 27.67 76.16 29.00 76.16 29.66 C 78.07 27.47 80.70 26.24 83.47 25.51 M 85.25 30.27 C 85.79 30.77 85.79 30.77 85.25 30.27 Z" />
<path fill="#bdd1e7" opacity="1.00" d=" M 44.69 27.56 C 46.53 26.83 48.43 26.27 50.34 25.77 C 51.34 27.74 52.46 29.64 53.39 31.64 C 52.21 30.70 51.08 29.71 49.94 28.72 C 49.40 29.35 48.32 30.61 47.77 31.24 C 47.25 30.75 46.19 29.76 45.66 29.27 C 45.93 30.38 46.19 31.50 46.46 32.62 C 43.95 33.13 41.44 33.64 38.99 34.39 C 39.02 33.08 39.05 31.77 39.06 30.45 C 40.54 29.83 42.03 29.21 43.45 28.47 L 44.17 27.93 C 44.30 27.84 44.56 27.66 44.69 27.56 Z" />
<path fill="#bdd1e7" opacity="1.00" d=" M 59.22 31.27 C 59.77 31.82 59.77 31.82 59.22 31.27 Z" />
<path fill="#bdd1e7" opacity="1.00" d=" M 42.37 38.49 C 44.49 37.88 46.64 37.35 48.78 36.81 C 49.54 38.01 50.30 39.20 51.02 40.41 C 51.87 41.84 52.73 43.26 53.60 44.67 C 52.96 44.76 51.68 44.92 51.04 45.01 C 52.77 45.89 54.51 46.73 56.28 47.52 C 57.40 48.76 58.56 49.95 59.75 51.13 C 57.96 51.83 55.94 53.41 54.04 52.04 C 50.27 50.16 49.77 45.57 48.51 42.02 C 48.18 43.35 47.86 44.68 47.54 46.01 C 45.16 45.61 42.78 45.21 40.40 44.79 C 40.18 43.44 39.97 42.09 39.75 40.73 L 40.32 40.22 C 40.44 40.10 40.70 39.85 40.83 39.73 C 41.22 39.42 41.98 38.80 42.37 38.49 Z" />
<path fill="#bdd1e7" opacity="1.00" d=" M 33.06 53.49 C 33.95 52.67 34.83 51.85 35.71 51.03 C 37.80 52.48 39.84 53.99 41.72 55.70 L 40.89 55.66 L 39.55 55.02 C 37.38 54.54 35.22 54.02 33.06 53.49 Z" />
<path fill="#bdd1e7" opacity="1.00" d=" M 28.73 57.99 C 31.01 59.19 35.42 59.79 34.98 63.11 C 32.28 62.39 30.28 60.21 28.73 57.99 Z" />
<path fill="#bdd1e7" opacity="1.00" d=" M 86.10 108.84 C 87.98 109.06 89.99 109.32 90.15 111.61 C 88.86 111.71 87.57 111.80 86.28 111.89 C 86.24 111.13 86.15 109.61 86.10 108.84 Z" />
</g>
<g id="#adbed2ff">
<path fill="#adbed2" opacity="1.00" d=" M 23.26 9.88 C 23.72 10.22 24.65 10.89 25.11 11.22 C 24.52 11.95 23.85 12.58 23.09 13.13 C 22.81 12.64 22.25 11.68 21.97 11.20 C 22.29 10.87 22.94 10.21 23.26 9.88 Z" />
<path fill="#adbed2" opacity="1.00" d=" M 82.59 9.62 C 82.93 9.78 83.61 10.09 83.94 10.24 C 85.25 12.03 86.25 14.01 87.21 16.00 C 87.75 16.16 88.84 16.47 89.38 16.63 C 88.90 18.14 88.51 19.69 87.88 21.15 C 86.60 21.41 85.29 21.45 83.99 21.54 C 84.26 20.26 84.46 18.96 84.65 17.67 C 84.83 16.39 87.01 13.55 84.43 13.51 C 82.77 13.19 81.11 12.89 79.45 12.56 C 80.46 11.54 81.50 10.56 82.59 9.62 Z" />
<path fill="#adbed2" opacity="1.00" d=" M 29.25 10.87 C 31.18 10.35 31.34 13.05 29.68 13.48 L 28.82 13.38 C 28.10 12.25 28.24 11.42 29.25 10.87 Z" />
<path fill="#adbed2" opacity="1.00" d=" M 20.14 15.41 C 20.74 15.32 21.94 15.15 22.54 15.07 L 22.99 15.57 C 22.62 16.92 21.46 18.21 19.96 18.14 C 20.00 17.46 20.09 16.09 20.14 15.41 Z" />
<path fill="#adbed2" opacity="1.00" d=" M 93.99 15.00 C 94.87 15.01 96.63 15.03 97.52 15.04 C 96.22 16.46 95.31 20.17 92.91 19.16 C 93.18 17.75 93.58 16.37 93.99 15.00 Z" />
<path fill="#adbed2" opacity="1.00" d=" M 31.92 16.75 C 34.14 18.14 36.48 19.49 37.91 21.78 C 35.64 21.70 33.75 20.86 33.27 18.44 C 33.11 19.04 32.78 20.25 32.62 20.85 C 32.36 19.49 32.12 18.12 31.92 16.75 Z" />
<path fill="#adbed2" opacity="1.00" d=" M 34.67 24.60 C 37.30 27.56 38.46 31.32 38.18 35.26 C 38.38 35.04 38.79 34.61 38.99 34.39 C 41.44 33.64 43.95 33.13 46.46 32.62 C 46.19 31.50 45.93 30.38 45.66 29.27 C 46.19 29.76 47.25 30.75 47.77 31.24 C 48.15 32.73 48.54 34.22 48.94 35.71 C 46.51 36.22 44.07 36.73 41.63 37.18 C 40.74 37.29 39.85 37.38 38.95 37.48 C 35.41 35.26 31.71 32.92 30.02 28.88 C 31.59 27.47 33.14 26.05 34.67 24.60 M 33.10 27.23 C 31.56 30.20 36.44 27.38 33.10 27.23 Z" />
<path fill="#adbed2" opacity="1.00" d=" M 61.81 25.99 C 63.32 25.17 65.15 25.30 66.79 24.91 C 67.52 25.90 68.29 26.86 68.93 27.91 C 68.31 29.18 67.56 30.37 66.86 31.59 C 65.87 30.97 64.92 30.31 64.00 29.60 L 63.58 29.04 C 63.51 28.93 63.37 28.73 63.29 28.62 L 63.18 28.82 C 62.84 28.63 62.15 28.26 61.81 28.07 C 61.81 27.55 61.81 26.51 61.81 25.99 Z" />
<path fill="#adbed2" opacity="1.00" d=" M 89.05 24.52 C 90.50 25.16 91.92 25.85 93.35 26.55 C 93.73 27.46 94.12 28.37 94.52 29.29 C 94.86 28.68 95.55 27.47 95.89 26.86 C 96.02 26.63 96.29 26.18 96.42 25.95 C 97.07 25.66 98.37 25.09 99.02 24.80 C 99.85 26.88 100.70 28.96 101.35 31.10 C 101.19 31.52 100.89 32.36 100.74 32.78 C 99.26 34.23 97.16 33.21 95.59 32.47 C 92.98 30.66 91.04 28.07 89.13 25.58 L 89.05 24.52 Z" />
<path fill="#adbed2" opacity="1.00" d=" M 38.78 41.56 C 39.02 41.35 39.50 40.94 39.75 40.73 C 39.97 42.09 40.18 43.44 40.40 44.79 C 42.78 45.21 45.16 45.61 47.54 46.01 C 47.86 44.68 48.18 43.35 48.51 42.02 C 49.77 45.57 50.27 50.16 54.04 52.04 C 55.94 53.41 57.96 51.83 59.75 51.13 C 61.68 51.69 63.67 51.99 65.66 52.27 C 66.17 53.20 66.67 54.13 67.18 55.06 C 67.82 55.05 69.10 55.02 69.74 55.00 C 70.14 54.50 70.95 53.50 71.36 53.00 C 72.49 53.00 73.63 53.00 74.77 53.01 C 75.99 54.66 77.18 56.33 78.51 57.90 C 75.54 59.72 72.48 61.67 68.97 62.18 C 66.12 62.72 63.33 61.69 60.62 60.96 C 57.01 62.56 52.99 62.45 49.60 60.38 C 48.69 59.61 47.80 58.84 46.90 58.06 C 46.94 55.28 46.61 52.51 46.11 49.78 C 44.50 50.88 42.90 51.99 41.29 53.09 C 41.16 51.05 41.04 49.01 40.93 46.97 C 39.62 47.02 38.31 47.08 37.01 47.14 C 37.03 46.56 37.06 45.40 37.08 44.83 C 37.18 44.26 37.40 43.13 37.51 42.57 L 38.78 41.56 Z" />
<path fill="#adbed2" opacity="1.00" d=" M 58.05 46.44 C 59.16 45.82 60.75 46.49 61.52 47.41 C 61.22 49.01 57.54 48.08 58.05 46.44 Z" />
<path fill="#adbed2" opacity="1.00" d=" M 37.26 47.89 C 37.97 47.91 39.37 47.95 40.08 47.97 C 40.11 48.88 40.18 50.70 40.21 51.61 C 38.86 51.03 37.50 50.45 36.15 49.87 C 36.43 49.37 36.98 48.38 37.26 47.89 Z" />
<path fill="#adbed2" opacity="1.00" d=" M 41.27 54.45 C 42.49 54.26 44.36 51.87 45.36 53.66 C 46.83 54.84 45.86 56.69 44.05 56.53 C 43.09 55.87 42.17 55.18 41.27 54.45 Z" />
<path fill="#adbed2" opacity="1.00" d=" M 31.23 55.21 C 34.48 54.37 37.72 57.15 38.43 60.26 C 35.54 60.01 33.08 58.33 31.05 56.37 C 31.10 56.08 31.19 55.50 31.23 55.21 Z" />
<path fill="#adbed2" opacity="1.00" d=" M 70.56 79.88 C 72.20 76.51 75.56 74.69 78.80 73.15 C 82.80 78.25 86.54 84.42 85.50 91.18 C 85.35 93.53 85.18 95.89 84.81 98.22 C 81.35 97.69 79.77 94.27 78.24 91.55 C 76.12 87.38 72.92 83.91 70.56 79.88 Z" />
<path fill="#adbed2" opacity="1.00" d=" M 50.91 76.26 C 52.15 75.25 53.40 74.26 54.64 73.26 C 56.94 75.32 58.84 77.75 60.84 80.08 C 58.01 81.73 55.64 84.02 53.71 86.65 C 56.30 85.14 58.91 83.64 61.63 82.35 C 59.28 86.04 56.17 89.76 51.47 90.09 C 50.20 91.84 48.89 93.57 47.53 95.25 C 46.77 94.58 46.00 93.91 45.23 93.26 C 45.08 89.89 45.37 86.52 45.52 83.16 C 45.53 82.96 45.55 82.57 45.56 82.37 L 46.27 82.03 C 47.87 81.47 48.41 79.73 49.12 78.38 C 49.54 77.53 50.14 76.82 50.91 76.26 Z" />
<path fill="#adbed2" opacity="1.00" d=" M 44.96 106.62 C 47.39 107.40 49.82 108.20 52.22 109.07 C 51.44 109.69 50.65 110.31 49.86 110.91 C 47.40 111.51 44.89 111.87 42.38 112.19 C 43.22 110.32 44.04 108.45 44.96 106.62 Z" />
<path fill="#adbed2" opacity="1.00" d=" M 82.23 108.00 C 84.49 107.64 86.75 107.34 89.01 107.04 L 89.21 108.00 C 87.72 108.38 86.22 108.71 84.73 109.06 C 84.46 110.03 84.19 111.01 83.93 111.99 C 82.75 111.93 81.57 111.88 80.40 111.83 C 80.21 111.05 79.82 109.50 79.62 108.72 C 80.27 108.54 81.58 108.18 82.23 108.00 Z" />
<path fill="#adbed2" opacity="1.00" d=" M 38.06 109.25 C 39.74 109.11 41.43 109.01 43.12 108.96 C 42.21 110.13 41.30 111.31 40.38 112.48 C 39.09 111.82 37.80 111.15 36.56 110.40 C 36.93 110.11 37.68 109.54 38.06 109.25 Z" />
</g>
<g id="#868e99ff">
<path fill="#868e99" opacity="1.00" d=" M 25.11 11.22 C 26.46 13.32 27.73 15.48 29.08 17.58 C 29.02 16.17 28.94 14.77 28.82 13.38 L 29.68 13.48 C 30.22 13.55 31.28 13.68 31.81 13.75 C 31.84 14.50 31.89 16.00 31.92 16.75 C 32.12 18.12 32.36 19.49 32.62 20.85 C 32.71 21.37 32.88 22.42 32.97 22.95 C 33.95 23.11 34.92 23.27 35.90 23.43 C 35.59 23.72 34.98 24.31 34.67 24.60 C 33.14 26.05 31.59 27.47 30.02 28.88 C 31.71 32.92 35.41 35.26 38.95 37.48 C 39.85 37.38 40.74 37.29 41.63 37.18 C 41.43 37.82 41.03 39.09 40.83 39.73 C 40.70 39.85 40.44 40.10 40.32 40.22 C 37.26 39.89 33.61 40.21 31.33 37.73 C 28.39 34.63 28.44 30.04 26.53 26.42 C 25.20 24.84 23.49 23.65 21.92 22.34 C 22.35 21.27 22.78 20.19 23.21 19.12 C 22.13 18.80 21.04 18.47 19.96 18.14 C 21.46 18.21 22.62 16.92 22.99 15.57 C 24.01 16.71 25.16 17.72 26.37 18.67 C 25.41 16.74 24.32 14.88 23.09 13.13 C 23.85 12.58 24.52 11.95 25.11 11.22 Z" />
<path fill="#868e99" opacity="1.00" d=" M 89.38 16.63 C 89.93 16.78 91.03 17.09 91.58 17.25 C 90.84 19.58 92.06 20.93 94.32 21.47 C 95.57 20.10 96.83 18.74 98.13 17.42 C 97.77 20.30 97.24 23.16 96.42 25.95 C 96.29 26.18 96.02 26.63 95.89 26.86 C 95.55 27.47 94.86 28.68 94.52 29.29 C 94.12 28.37 93.73 27.46 93.35 26.55 C 91.92 25.85 90.50 25.16 89.05 24.52 C 87.11 23.77 85.11 23.22 83.11 22.70 C 83.33 22.41 83.77 21.83 83.99 21.54 C 85.29 21.45 86.60 21.41 87.88 21.15 C 88.51 19.69 88.90 18.14 89.38 16.63 Z" />
<path fill="#868e99" opacity="1.00" d=" M 17.85 19.15 C 18.86 19.48 19.85 19.88 20.80 20.36 C 19.86 22.07 17.28 22.70 16.80 20.28 C 17.06 19.99 17.59 19.43 17.85 19.15 Z" />
<path fill="#868e99" opacity="1.00" d=" M 89.13 25.58 C 91.04 28.07 92.98 30.66 95.59 32.47 C 97.16 33.21 99.26 34.23 100.74 32.78 C 100.89 32.36 101.19 31.52 101.35 31.10 C 101.71 33.40 101.24 35.70 100.88 37.96 C 100.63 38.92 100.03 39.55 99.09 39.86 C 94.19 41.39 89.09 39.79 85.54 36.22 C 84.69 36.08 82.98 35.79 82.12 35.65 C 84.50 33.86 87.52 34.41 90.23 34.84 C 90.17 34.73 90.06 34.50 90.00 34.39 C 89.44 31.48 89.24 28.53 89.13 25.58 Z" />
<path fill="#868e99" opacity="1.00" d=" M 33.10 27.23 C 36.44 27.38 31.56 30.20 33.10 27.23 Z" />
<path fill="#868e99" opacity="1.00" d=" M 63.29 28.62 C 63.37 28.73 63.51 28.93 63.58 29.04 L 63.18 28.82 L 63.29 28.62 Z" />
<path fill="#868e99" opacity="1.00" d=" M 85.25 30.27 C 85.79 30.77 85.79 30.77 85.25 30.27 Z" />
<path fill="#868e99" opacity="1.00" d=" M 71.69 30.71 C 72.93 34.23 72.67 37.93 71.27 41.36 C 70.83 41.13 69.96 40.67 69.52 40.44 C 68.91 40.26 67.69 39.91 67.08 39.74 C 69.18 37.05 70.78 34.00 71.69 30.71 Z" />
<path fill="#868e99" opacity="1.00" d=" M 51.02 40.41 C 54.00 41.06 56.95 41.80 59.90 42.59 C 58.60 44.16 57.37 45.79 56.28 47.52 C 54.51 46.73 52.77 45.89 51.04 45.01 C 51.68 44.92 52.96 44.76 53.60 44.67 C 52.73 43.26 51.87 41.84 51.02 40.41 Z" />
<path fill="#868e99" opacity="1.00" d=" M 75.59 49.33 C 78.87 49.31 81.65 50.97 83.49 53.63 C 85.86 53.86 88.23 54.07 90.60 54.27 C 90.77 53.46 91.10 51.83 91.27 51.01 C 91.67 52.34 91.99 53.68 92.33 55.03 C 90.45 55.19 88.58 55.35 86.70 55.52 C 88.51 55.66 90.31 55.79 92.12 55.93 C 91.75 57.33 91.38 58.73 91.00 60.12 C 88.59 59.95 86.07 60.16 83.77 59.31 C 80.18 57.78 77.79 54.54 75.35 51.64 C 75.41 51.06 75.53 49.91 75.59 49.33 Z" />
<path fill="#868e99" opacity="1.00" d=" M 38.19 55.87 C 38.87 55.82 40.21 55.72 40.89 55.66 L 41.72 55.70 C 42.92 56.76 44.13 57.80 45.36 58.83 C 44.55 59.62 43.73 60.40 42.90 61.18 C 42.59 60.67 41.97 59.65 41.66 59.14 C 40.03 59.75 40.41 61.56 41.15 62.73 C 40.55 63.59 39.96 64.45 39.37 65.32 C 37.18 65.05 34.99 64.84 32.79 64.65 C 33.58 64.48 35.14 64.12 35.93 63.95 C 36.01 63.32 36.18 62.05 36.26 61.42 C 37.28 60.94 38.29 60.45 39.30 59.97 C 38.93 58.60 38.56 57.24 38.19 55.87 Z" />
<path fill="#868e99" opacity="1.00" d=" M 68.97 62.18 C 72.48 61.67 75.54 59.72 78.51 57.90 C 80.18 59.15 81.92 60.29 83.66 61.43 C 82.81 62.29 81.94 63.14 81.07 63.98 C 79.22 65.49 77.77 68.15 75.07 68.01 C 71.17 68.53 67.56 66.80 64.19 65.07 C 62.23 65.51 60.27 65.93 58.31 66.35 C 58.56 66.87 59.08 67.92 59.34 68.44 C 54.54 68.12 52.66 63.30 49.60 60.38 C 52.99 62.45 57.01 62.56 60.62 60.96 C 63.33 61.69 66.12 62.72 68.97 62.18 M 75.23 61.05 C 75.49 64.39 78.15 59.40 75.23 61.05 M 73.29 62.19 C 73.80 62.69 73.80 62.69 73.29 62.19 M 54.54 63.04 C 54.70 64.45 55.36 64.69 56.52 63.76 C 56.36 62.35 55.70 62.11 54.54 63.04 M 68.48 63.12 C 68.64 64.52 69.31 64.76 70.49 63.84 C 70.32 62.44 69.65 62.20 68.48 63.12 Z" />
<path fill="#868e99" opacity="1.00" d=" M 69.60 81.41 C 69.84 81.03 70.32 80.26 70.56 79.88 C 72.92 83.91 76.12 87.38 78.24 91.55 C 79.77 94.27 81.35 97.69 84.81 98.22 C 85.18 95.89 85.35 93.53 85.50 91.18 C 86.55 92.77 87.77 94.24 88.96 95.72 C 88.30 99.46 87.77 103.34 89.01 107.04 C 86.75 107.34 84.49 107.64 82.23 108.00 L 79.72 108.01 L 81.09 107.28 L 82.08 106.76 C 82.04 105.39 82.01 104.01 81.96 102.64 C 80.53 101.39 78.52 100.50 77.81 98.62 C 75.98 92.46 71.72 87.46 69.60 81.41 M 86.16 95.60 C 85.16 96.20 85.26 98.65 86.70 98.42 C 87.69 97.83 87.59 95.37 86.16 95.60 Z" />
<path fill="#868e99" opacity="1.00" d=" M 53.71 86.65 C 55.64 84.02 58.01 81.73 60.84 80.08 C 61.39 80.66 62.47 81.82 63.02 82.39 C 62.59 83.77 62.15 85.14 61.70 86.50 C 60.94 87.67 60.50 89.60 58.96 89.86 C 58.48 90.07 57.50 90.47 57.02 90.68 C 56.71 91.08 56.10 91.89 55.79 92.30 C 55.26 95.23 55.50 98.25 54.93 101.18 C 54.60 101.50 53.95 102.13 53.63 102.45 C 52.72 104.95 54.65 107.37 55.24 109.74 C 53.45 110.13 51.65 110.52 49.86 110.91 C 50.65 110.31 51.44 109.69 52.22 109.07 C 49.82 108.20 47.39 107.40 44.96 106.62 L 45.42 105.79 C 45.65 105.57 46.10 105.13 46.33 104.91 L 47.08 104.19 C 46.97 100.47 45.54 96.95 45.23 93.26 C 46.00 93.91 46.77 94.58 47.53 95.25 C 48.89 93.57 50.20 91.84 51.47 90.09 C 56.17 89.76 59.28 86.04 61.63 82.35 C 58.91 83.64 56.30 85.14 53.71 86.65 Z" />
</g>
<g id="#a59a8bff">
<path fill="#a59a8b" opacity="1.00" d=" M 59.39 16.68 C 61.63 16.91 63.03 18.22 63.30 20.47 C 60.78 20.88 58.69 22.26 57.00 24.11 C 57.00 24.82 57.00 26.24 57.00 26.95 L 55.76 27.01 C 56.02 25.49 56.30 23.96 56.72 22.47 C 56.83 21.98 57.05 21.01 57.16 20.52 C 57.91 19.24 58.65 17.96 59.39 16.68 Z" />
<path fill="#a59a8b" opacity="1.00" d=" M 51.59 20.60 C 52.91 19.48 53.82 21.73 54.89 22.29 C 54.09 23.48 53.30 24.69 52.53 25.90 L 52.17 26.02 C 52.07 24.24 50.56 22.28 51.59 20.60 Z" />
<path fill="#a59a8b" opacity="1.00" d=" M 66.44 20.02 C 67.64 20.02 68.83 20.02 70.02 20.02 C 70.06 22.12 70.08 24.21 70.05 26.30 C 69.23 25.47 68.43 24.63 67.62 23.79 C 65.47 23.90 63.42 24.50 61.81 25.99 L 61.03 25.96 C 60.92 25.53 60.69 24.68 60.58 24.25 C 62.52 22.82 64.46 21.39 66.44 20.02 Z" />
<path fill="#a59a8b" opacity="1.00" d=" M 60.50 69.78 C 60.54 68.15 61.77 67.36 63.04 66.72 C 62.39 67.59 61.73 68.45 61.06 69.31 C 61.23 69.91 61.56 71.12 61.73 71.72 C 62.33 71.21 63.52 70.19 64.12 69.69 C 64.46 70.03 65.15 70.70 65.49 71.04 C 66.21 70.72 67.66 70.08 68.38 69.76 C 67.34 71.00 66.29 72.23 65.23 73.46 C 63.66 73.13 62.08 72.82 60.51 72.49 C 59.43 71.80 58.36 71.10 57.30 70.38 C 58.36 70.17 59.43 69.97 60.50 69.78 Z" />
<path fill="#a59a8b" opacity="1.00" d=" M 74.26 69.33 C 74.77 69.82 74.77 69.82 74.26 69.33 Z" />
<path fill="#a59a8b" opacity="1.00" d=" M 77.26 69.30 C 77.80 69.76 77.80 69.76 77.26 69.30 Z" />
<path fill="#a59a8b" opacity="1.00" d=" M 71.28 70.25 C 71.81 70.75 71.81 70.75 71.28 70.25 Z" />
</g>
<g id="#fcfad0ff">
<path fill="#fcfad0" opacity="1.00" d=" M 64.00 29.60 C 64.06 32.99 58.87 29.09 61.81 28.07 C 62.15 28.26 62.84 28.63 63.18 28.82 L 63.58 29.04 L 64.00 29.60 Z" />
<path fill="#fcfad0" opacity="1.00" d=" M 66.86 31.59 C 67.94 30.64 69.17 29.98 70.56 29.62 C 69.80 33.41 65.77 34.14 62.53 34.28 C 61.52 34.64 60.51 34.99 59.49 35.34 C 58.32 35.89 57.17 36.51 55.92 36.90 C 53.32 35.09 49.94 33.81 48.49 30.82 C 51.36 32.00 54.02 34.04 57.26 34.02 C 59.01 33.27 60.85 32.74 62.64 32.08 C 63.89 32.02 65.15 31.98 66.40 31.93 L 66.86 31.59 Z" />
<path fill="#fcfad0" opacity="1.00" d=" M 67.46 34.09 C 68.00 34.08 69.09 34.07 69.63 34.06 C 68.31 38.94 62.90 39.44 58.81 40.60 C 55.12 40.29 50.54 38.84 49.59 34.73 C 52.04 35.94 54.80 39.48 57.62 37.12 C 59.40 37.03 61.18 36.99 62.96 36.97 L 63.07 36.40 C 64.56 35.68 66.03 34.93 67.46 34.09 Z" />
</g>
</svg>
