<?xml version="1.0" encoding="UTF-8" ?>
<!DOCTYPE svg PUBLIC "-//W3C//DTD SVG 1.1//EN" "http://www.w3.org/Graphics/SVG/1.1/DTD/svg11.dtd">
<svg width="120pt" height="120pt" viewBox="0 0 120 120" version="1.1" xmlns="http://www.w3.org/2000/svg">
<g id="#25272aff">
<path fill="#25272a" opacity="1.00" d=" M 45.31 35.95 C 45.05 34.59 45.60 34.05 46.97 34.33 C 47.27 35.74 46.72 36.28 45.31 35.95 Z" />
</g>
<g id="#403432f8">
<path fill="#403432" opacity="0.97" d=" M 45.94 39.37 C 46.01 38.33 46.34 37.39 46.94 36.55 C 47.00 37.00 47.11 37.91 47.17 38.36 L 47.83 38.10 C 47.80 37.69 47.76 36.86 47.73 36.45 C 48.76 37.54 50.05 38.16 51.54 38.21 C 52.53 38.79 53.51 39.38 54.48 39.98 C 57.13 40.08 59.80 40.12 62.46 39.95 C 63.13 39.65 64.47 39.04 65.15 38.74 C 64.96 39.01 64.58 39.54 64.39 39.81 L 63.57 40.44 C 60.38 41.56 56.91 40.84 53.61 41.00 C 53.65 41.55 53.74 42.65 53.78 43.20 C 53.76 44.63 53.69 46.05 53.57 47.47 C 53.36 45.02 53.33 42.56 53.24 40.10 C 51.70 39.78 50.05 38.50 48.56 39.67 C 46.90 40.13 47.93 42.33 48.95 42.94 L 49.13 43.63 C 49.19 48.92 50.61 54.04 51.28 59.27 C 50.61 59.20 49.26 59.08 48.59 59.02 C 46.91 60.26 45.16 61.40 43.35 62.44 C 42.53 66.02 40.08 69.48 41.28 73.26 C 42.57 75.91 44.54 78.10 47.32 79.22 C 47.37 77.88 47.41 76.54 47.45 75.21 C 48.17 74.37 48.89 73.53 49.63 72.71 C 51.51 71.02 54.16 71.32 56.50 71.25 C 56.70 71.41 57.11 71.74 57.31 71.90 C 57.74 72.27 58.59 73.01 59.01 73.38 C 59.34 75.38 59.78 77.37 60.25 79.35 L 59.15 79.88 C 58.85 77.94 58.44 76.03 58.08 74.10 C 57.39 73.65 56.02 72.76 55.33 72.31 C 55.24 72.25 55.07 72.13 54.99 72.07 L 55.01 72.19 C 55.50 75.26 56.25 78.36 55.85 81.49 C 55.39 81.15 54.48 80.48 54.02 80.15 C 53.55 80.16 52.62 80.18 52.15 80.19 C 51.81 79.94 51.14 79.45 50.80 79.20 C 51.59 79.02 53.16 78.66 53.94 78.49 C 53.71 76.37 53.44 74.26 52.93 72.20 C 52.68 72.14 52.18 72.02 51.94 71.96 C 50.59 73.09 49.34 74.32 48.08 75.55 C 48.41 77.22 48.77 78.89 49.10 80.57 L 49.09 81.27 C 46.90 80.40 44.60 79.63 42.72 78.17 C 41.58 76.32 40.77 74.27 39.36 72.59 C 39.89 70.69 40.08 68.73 40.23 66.77 L 40.25 66.49 C 41.55 61.79 45.88 59.18 50.20 57.65 C 50.14 56.47 49.79 55.40 49.16 54.43 C 48.90 52.44 49.58 50.15 48.20 48.47 C 47.99 46.78 48.32 44.93 47.26 43.45 C 46.94 42.06 47.27 40.35 45.94 39.37 Z" />
</g>
<g id="#663425ff">
<path fill="#663425" opacity="1.00" d=" M 46.94 36.55 L 47.73 36.45 C 47.76 36.86 47.80 37.69 47.83 38.10 L 47.17 38.36 C 47.11 37.91 47.00 37.00 46.94 36.55 Z" />
</g>
<g id="#edebecff">
<path fill="#edebec" opacity="1.00" d=" M 48.56 39.67 C 50.05 38.50 51.70 39.78 53.24 40.10 C 53.33 42.56 53.36 45.02 53.57 47.47 C 53.69 46.05 53.76 44.63 53.78 43.20 C 55.04 43.49 56.31 43.73 57.58 43.98 C 58.28 43.37 58.98 42.76 59.68 42.15 C 60.09 42.59 60.91 43.47 61.32 43.91 C 62.22 43.67 63.12 43.43 64.02 43.18 C 62.87 48.87 60.15 54.14 57.97 59.49 C 57.63 59.00 56.94 58.01 56.60 57.51 C 56.29 57.58 55.66 57.72 55.35 57.79 C 54.37 57.29 53.40 56.79 52.43 56.29 C 51.62 52.00 50.92 47.65 49.13 43.63 L 48.95 42.94 C 48.86 42.12 48.66 40.48 48.56 39.67 M 58.09 47.32 C 56.58 50.35 61.37 47.47 58.09 47.32 M 54.27 49.41 C 53.51 50.17 53.33 52.69 54.75 52.68 C 55.50 51.91 55.69 49.40 54.27 49.41 M 55.24 55.23 C 55.78 55.74 55.78 55.74 55.24 55.23 Z" />
</g>
<g id="#61605cff">
<path fill="#61605c" opacity="1.00" d=" M 65.15 38.74 L 66.02 37.55 C 66.34 39.35 66.07 41.00 65.21 42.51 C 64.98 43.86 65.07 45.33 64.25 46.52 C 63.93 48.29 63.11 49.89 62.26 51.46 C 62.09 52.56 61.71 53.57 61.13 54.50 C 61.05 55.20 60.89 56.59 60.81 57.29 C 61.47 57.28 62.77 57.27 63.42 57.26 C 65.16 59.47 67.40 57.07 69.49 57.09 C 70.45 57.08 72.37 57.07 73.33 57.06 C 70.57 58.00 67.81 58.91 64.99 59.64 C 63.29 59.10 61.61 58.53 59.92 57.97 C 60.00 58.85 60.17 60.62 60.25 61.51 L 59.31 61.07 C 58.97 60.67 58.30 59.89 57.97 59.49 C 60.15 54.14 62.87 48.87 64.02 43.18 C 64.11 42.34 64.30 40.65 64.39 39.81 C 64.58 39.54 64.96 39.01 65.15 38.74 Z" />
</g>
<g id="#81422fff">
<path fill="#81422f" opacity="1.00" d=" M 48.95 42.94 C 47.93 42.33 46.90 40.13 48.56 39.67 C 48.66 40.48 48.86 42.12 48.95 42.94 Z" />
</g>
<g id="#ffffffff">
<path fill="#ffffff" opacity="1.00" d=" M 63.57 40.44 L 64.39 39.81 C 64.30 40.65 64.11 42.34 64.02 43.18 C 63.12 43.43 62.22 43.67 61.32 43.91 C 60.91 43.47 60.09 42.59 59.68 42.15 C 58.98 42.76 58.28 43.37 57.58 43.98 C 56.31 43.73 55.04 43.49 53.78 43.20 C 53.74 42.65 53.65 41.55 53.61 41.00 C 56.91 40.84 60.38 41.56 63.57 40.44 Z" />
<path fill="#ffffff" opacity="1.00" d=" M 48.60 62.49 L 50.02 62.15 C 50.39 63.26 50.79 64.36 51.21 65.45 L 50.63 66.15 C 50.52 66.25 50.30 66.44 50.20 66.54 C 49.66 66.93 48.60 67.72 48.07 68.12 C 47.51 68.29 46.40 68.64 45.84 68.82 L 44.73 68.32 C 44.70 68.30 44.65 68.25 44.62 68.23 L 43.73 66.80 L 44.49 65.44 C 44.52 65.41 44.57 65.34 44.60 65.31 C 45.82 64.30 47.13 63.42 48.45 62.56 C 48.49 62.54 48.57 62.51 48.60 62.49 M 47.21 64.21 C 47.84 64.85 47.84 64.85 47.21 64.21 Z" />
<path fill="#ffffff" opacity="1.00" d=" M 48.08 75.55 C 49.34 74.32 50.59 73.09 51.94 71.96 C 52.18 72.02 52.68 72.14 52.93 72.20 C 49.57 73.76 49.13 77.26 49.10 80.57 C 48.77 78.89 48.41 77.22 48.08 75.55 Z" />
<path fill="#ffffff" opacity="1.00" d=" M 34.21 75.25 C 34.75 74.81 35.82 73.93 36.36 73.49 C 36.74 73.63 37.50 73.91 37.88 74.05 C 37.08 74.88 35.78 75.34 34.87 76.14 C 34.70 75.92 34.37 75.48 34.21 75.25 Z" />
</g>
<g id="#583328ff">
<path fill="#583328" opacity="1.00" d=" M 49.13 43.63 C 50.92 47.65 51.62 52.00 52.43 56.29 C 53.40 56.79 54.37 57.29 55.35 57.79 C 55.66 57.72 56.29 57.58 56.60 57.51 C 56.94 58.01 57.63 59.00 57.97 59.49 C 58.30 59.89 58.97 60.67 59.31 61.07 C 58.33 60.87 57.34 60.71 56.35 60.60 C 56.01 60.65 55.33 60.76 54.99 60.82 C 53.74 60.33 52.53 59.76 51.28 59.27 C 50.61 54.04 49.19 48.92 49.13 43.63 Z" />
<path fill="#583328" opacity="1.00" d=" M 70.69 73.01 C 72.41 73.46 74.19 73.68 75.97 73.72 C 78.50 74.27 80.94 75.14 83.39 75.96 L 83.97 76.16 L 84.17 76.87 C 84.48 77.98 84.81 79.09 85.16 80.20 C 82.30 78.84 79.04 75.75 75.87 76.89 C 75.70 77.04 75.36 77.35 75.19 77.51 C 75.03 76.85 74.71 75.54 74.55 74.88 C 73.05 75.21 71.57 75.60 70.10 76.03 C 70.24 75.01 70.44 74.00 70.69 73.01 Z" />
</g>
<g id="#aca3a7ff">
<path fill="#aca3a7" opacity="1.00" d=" M 58.09 47.32 C 61.37 47.47 56.58 50.35 58.09 47.32 Z" />
</g>
<g id="#bab4b7ff">
<path fill="#bab4b7" opacity="1.00" d=" M 54.27 49.41 C 55.69 49.40 55.50 51.91 54.75 52.68 C 53.33 52.69 53.51 50.17 54.27 49.41 Z" />
</g>
<g id="#a1959bff">
<path fill="#a1959b" opacity="1.00" d=" M 55.24 55.23 C 55.78 55.74 55.78 55.74 55.24 55.23 Z" />
</g>
<g id="#0c1c21e7">
<path fill="#0c1c21" opacity="0.91" d=" M 70.34 56.16 C 75.48 55.97 81.19 54.96 85.61 58.30 C 86.19 58.53 87.36 59.00 87.94 59.23 L 88.10 60.13 C 84.75 59.12 81.74 56.74 78.10 56.98 C 76.51 56.96 74.92 57.01 73.33 57.06 C 72.37 57.07 70.45 57.08 69.49 57.09 L 70.34 56.16 Z" />
</g>
<g id="#6d5535ff">
<path fill="#6d5535" opacity="1.00" d=" M 73.33 57.06 C 74.92 57.01 76.51 56.96 78.10 56.98 C 81.74 56.74 84.75 59.12 88.10 60.13 L 88.95 60.44 C 88.96 61.14 88.98 62.55 89.00 63.26 C 86.64 62.52 84.63 61.08 82.72 59.57 C 82.60 59.51 82.37 59.41 82.25 59.36 C 80.75 59.10 79.25 58.86 77.75 58.65 C 77.60 58.56 77.29 58.40 77.14 58.32 C 75.75 57.73 74.52 57.93 73.44 58.90 C 72.22 58.94 71.00 58.97 69.77 58.98 C 70.11 59.54 70.79 60.65 71.13 61.20 C 71.60 61.41 72.54 61.84 73.01 62.05 C 74.74 62.42 74.91 64.34 75.30 65.72 L 75.70 67.17 L 75.70 67.17 L 75.89 67.32 C 78.88 69.21 81.46 71.65 83.94 74.16 L 84.39 75.13 L 82.68 74.87 C 81.38 73.86 80.06 72.88 78.70 71.97 L 78.01 71.49 C 77.78 71.38 77.31 71.15 77.07 71.04 C 76.86 70.91 76.43 70.65 76.22 70.51 C 75.30 70.44 74.49 70.75 73.80 71.44 L 72.80 72.15 C 72.88 69.74 73.50 67.08 72.24 64.87 C 71.11 63.16 69.55 61.79 68.14 60.31 C 67.51 60.55 66.27 61.02 65.64 61.26 L 65.33 61.43 C 63.85 62.40 62.41 63.43 60.97 64.47 C 59.76 64.99 58.48 65.64 57.94 66.93 C 56.46 67.33 55.01 67.85 53.55 68.31 C 54.74 65.15 57.49 63.20 60.25 61.51 C 61.83 60.88 63.40 60.23 64.99 59.64 C 67.81 58.91 70.57 58.00 73.33 57.06 M 73.30 64.22 C 73.81 64.77 73.81 64.77 73.30 64.22 Z" />
</g>
<g id="#ff9870ff">
<path fill="#ff9870" opacity="1.00" d=" M 59.92 57.97 C 61.61 58.53 63.29 59.10 64.99 59.64 C 63.40 60.23 61.83 60.88 60.25 61.51 C 60.17 60.62 60.00 58.85 59.92 57.97 Z" />
</g>
<g id="#0b1a23ff">
<path fill="#0b1a23" opacity="1.00" d=" M 77.14 58.32 C 77.29 58.40 77.60 58.56 77.75 58.65 C 77.60 58.56 77.29 58.40 77.14 58.32 Z" />
</g>
<g id="#ff966eff">
<path fill="#ff966e" opacity="1.00" d=" M 48.59 59.02 C 49.26 59.08 50.61 59.20 51.28 59.27 C 52.53 59.76 53.74 60.33 54.99 60.82 C 53.30 62.91 52.34 65.43 51.72 68.02 C 52.12 68.11 52.94 68.28 53.35 68.37 L 53.55 68.31 C 55.01 67.85 56.46 67.33 57.94 66.93 C 59.64 67.30 62.35 66.70 60.97 64.47 C 62.41 63.43 63.85 62.40 65.33 61.43 C 66.77 66.80 60.34 68.80 57.31 71.90 C 57.11 71.74 56.70 71.41 56.50 71.25 C 54.16 71.32 51.51 71.02 49.63 72.71 C 48.99 71.44 48.34 70.17 47.69 68.90 L 48.07 68.12 C 48.60 67.72 49.66 66.93 50.20 66.54 L 50.42 66.38 L 50.63 66.15 L 51.21 65.45 C 52.88 64.51 51.98 61.48 50.02 62.15 L 48.60 62.49 L 48.52 62.51 L 48.45 62.56 C 47.13 63.42 45.82 64.30 44.60 65.31 L 44.53 65.36 L 44.49 65.44 L 43.73 66.80 C 42.65 68.85 41.98 71.07 41.28 73.26 C 40.08 69.48 42.53 66.02 43.35 62.44 C 45.16 61.40 46.91 60.26 48.59 59.02 Z" />
<path fill="#ff966e" opacity="1.00" d=" M 40.00 67.02 L 40.23 66.77 C 40.08 68.73 39.89 70.69 39.36 72.59 C 38.99 72.95 38.25 73.68 37.88 74.05 C 37.50 73.91 36.74 73.63 36.36 73.49 L 35.37 73.14 C 35.98 72.80 37.21 72.11 37.82 71.77 C 38.88 71.02 38.72 70.50 37.34 70.19 C 36.07 70.35 34.82 70.65 33.60 71.10 C 34.09 70.76 35.09 70.09 35.59 69.76 C 36.18 69.59 37.35 69.26 37.94 69.10 C 38.45 68.58 39.48 67.54 40.00 67.02 Z" />
</g>
<g id="#0d1c23ff">
<path fill="#0d1c23" opacity="1.00" d=" M 82.25 59.36 C 82.37 59.41 82.60 59.51 82.72 59.57 C 82.60 59.51 82.37 59.41 82.25 59.36 Z" />
</g>
<g id="#feb487ff">
<path fill="#feb487" opacity="1.00" d=" M 56.35 60.60 C 57.34 60.71 58.33 60.87 59.31 61.07 L 60.25 61.51 C 57.49 63.20 54.74 65.15 53.55 68.31 L 53.35 68.37 C 52.94 68.28 52.12 68.11 51.72 68.02 C 52.34 65.43 53.30 62.91 54.99 60.82 C 55.33 60.76 56.01 60.65 56.35 60.60 Z" />
</g>
<g id="#ec7653ff">
<path fill="#ec7653" opacity="1.00" d=" M 65.64 61.26 C 66.27 61.02 67.51 60.55 68.14 60.31 C 69.55 61.79 71.11 63.16 72.24 64.87 C 73.50 67.08 72.88 69.74 72.80 72.15 L 72.08 72.79 C 73.06 73.02 75.00 73.49 75.97 73.72 C 74.19 73.68 72.41 73.46 70.69 73.01 C 70.44 74.00 70.24 75.01 70.10 76.03 C 66.54 77.73 63.11 79.74 59.27 80.76 C 59.12 80.60 58.83 80.28 58.68 80.13 L 59.15 79.88 L 60.25 79.35 C 59.78 77.37 59.34 75.38 59.01 73.38 C 58.59 73.01 57.74 72.27 57.31 71.90 C 60.34 68.80 66.77 66.80 65.33 61.43 L 65.64 61.26 M 62.60 71.16 C 63.68 70.86 64.75 70.56 65.83 70.26 C 66.41 70.51 67.56 71.01 68.14 71.25 C 65.78 68.73 68.04 66.40 69.60 64.27 C 66.77 66.01 64.68 68.63 62.60 71.16 M 61.30 72.26 C 61.83 72.77 61.83 72.77 61.30 72.26 M 68.26 72.31 C 68.76 72.85 68.76 72.85 68.26 72.31 M 68.31 74.70 C 68.81 75.23 68.81 75.23 68.31 74.70 Z" />
<path fill="#ec7653" opacity="1.00" d=" M 41.28 73.26 C 41.98 71.07 42.65 68.85 43.73 66.80 L 44.62 68.23 C 44.65 68.25 44.70 68.30 44.73 68.32 L 45.84 68.82 C 46.31 68.84 47.23 68.88 47.69 68.90 C 48.34 70.17 48.99 71.44 49.63 72.71 C 48.89 73.53 48.17 74.37 47.45 75.21 C 47.41 76.54 47.37 77.88 47.32 79.22 C 44.54 78.10 42.57 75.91 41.28 73.26 Z" />
</g>
<g id="#0c1b23ff">
<path fill="#0c1b23" opacity="1.00" d=" M 71.13 61.20 C 71.56 61.19 72.44 61.18 72.87 61.18 L 73.01 62.05 C 72.54 61.84 71.60 61.41 71.13 61.20 Z" />
<path fill="#0c1b23" opacity="1.00" d=" M 77.07 71.04 C 77.31 71.15 77.78 71.38 78.01 71.49 C 77.78 71.38 77.31 71.15 77.07 71.04 Z" />
</g>
<g id="#9e523aff">
<path fill="#9e523a" opacity="1.00" d=" M 48.52 62.51 L 48.60 62.49 C 48.57 62.51 48.49 62.54 48.45 62.56 L 48.52 62.51 Z" />
</g>
<g id="#a3513aff">
<path fill="#a3513a" opacity="1.00" d=" M 50.02 62.15 C 51.98 61.48 52.88 64.51 51.21 65.45 C 50.79 64.36 50.39 63.26 50.02 62.15 Z" />
</g>
<g id="#363533ff">
<path fill="#363533" opacity="1.00" d=" M 47.21 64.21 C 47.84 64.85 47.84 64.85 47.21 64.21 Z" />
</g>
<g id="#f7815dff">
<path fill="#f7815d" opacity="1.00" d=" M 73.30 64.22 C 73.81 64.77 73.81 64.77 73.30 64.22 Z" />
</g>
<g id="#a1543eff">
<path fill="#a1543e" opacity="1.00" d=" M 44.53 65.36 L 44.60 65.31 C 44.57 65.34 44.52 65.41 44.49 65.44 L 44.53 65.36 Z" />
</g>
<g id="#ffb689ff">
<path fill="#ffb689" opacity="1.00" d=" M 57.94 66.93 C 58.48 65.64 59.76 64.99 60.97 64.47 C 62.35 66.70 59.64 67.30 57.94 66.93 Z" />
</g>
<g id="#b4553bff">
<path fill="#b4553b" opacity="1.00" d=" M 62.60 71.16 C 64.68 68.63 66.77 66.01 69.60 64.27 C 68.04 66.40 65.78 68.73 68.14 71.25 C 67.56 71.01 66.41 70.51 65.83 70.26 C 64.75 70.56 63.68 70.86 62.60 71.16 Z" />
</g>
<g id="#b15e44ff">
<path fill="#b15e44" opacity="1.00" d=" M 50.20 66.54 C 50.30 66.44 50.52 66.25 50.63 66.15 L 50.42 66.38 L 50.20 66.54 Z" />
</g>
<g id="#222721cf">
<path fill="#222721" opacity="0.81" d=" M 75.30 65.72 C 78.86 67.55 81.81 70.80 83.94 74.16 C 81.46 71.65 78.88 69.21 75.89 67.32 C 75.85 67.28 75.75 67.21 75.70 67.17 L 75.30 65.72 Z" />
</g>
<g id="#1f2622ea">
<path fill="#1f2622" opacity="0.92" d=" M 35.33 68.16 C 36.80 67.48 38.33 66.91 40.00 67.02 C 39.48 67.54 38.45 68.58 37.94 69.10 C 37.35 69.26 36.18 69.59 35.59 69.76 C 35.09 70.09 34.09 70.76 33.60 71.10 C 32.71 71.73 31.71 72.09 30.60 72.16 C 31.76 70.37 33.48 69.14 35.33 68.16 Z" />
</g>
<g id="#c3bb6dff">
<path fill="#c3bb6d" opacity="1.00" d=" M 75.70 67.17 C 75.75 67.21 75.85 67.28 75.89 67.32 L 75.70 67.17 L 75.70 67.17 Z" />
</g>
<g id="#803420ff">
<path fill="#803420" opacity="1.00" d=" M 44.62 68.23 C 44.65 68.25 44.70 68.30 44.73 68.32 C 44.70 68.30 44.65 68.25 44.62 68.23 Z" />
</g>
<g id="#934c39ff">
<path fill="#934c39" opacity="1.00" d=" M 45.84 68.82 C 46.40 68.64 47.51 68.29 48.07 68.12 L 47.69 68.90 C 47.23 68.88 46.31 68.84 45.84 68.82 Z" />
</g>
<g id="#cdcbccff">
<path fill="#cdcbcc" opacity="1.00" d=" M 37.34 70.19 C 38.72 70.50 38.88 71.02 37.82 71.77 L 37.05 70.93 L 37.34 70.19 Z" />
<path fill="#cdcbcc" opacity="1.00" d=" M 70.10 76.03 C 71.57 75.60 73.05 75.21 74.55 74.88 C 74.71 75.54 75.03 76.85 75.19 77.51 C 75.36 77.35 75.70 77.04 75.87 76.89 C 79.04 75.75 82.30 78.84 85.16 80.20 L 85.57 81.36 C 83.68 81.31 81.79 81.27 79.91 81.20 L 79.74 81.19 C 77.07 80.95 74.28 81.26 71.80 80.05 C 70.38 79.01 68.58 78.05 66.81 78.89 C 67.94 77.98 69.03 77.02 70.10 76.03 Z" />
</g>
<g id="#0b1a22ff">
<path fill="#0b1a22" opacity="1.00" d=" M 76.22 70.51 C 76.43 70.65 76.86 70.91 77.07 71.04 C 76.86 70.91 76.43 70.65 76.22 70.51 Z" />
</g>
<g id="#fffff8ff">
<path fill="#fffff8" opacity="1.00" d=" M 54.99 72.07 C 55.07 72.13 55.24 72.25 55.33 72.31 L 55.01 72.19 L 54.99 72.07 Z" />
</g>
<g id="#843623ff">
<path fill="#843623" opacity="1.00" d=" M 61.30 72.26 C 61.83 72.77 61.83 72.77 61.30 72.26 Z" />
</g>
<g id="#9b462fff">
<path fill="#9b462f" opacity="1.00" d=" M 68.26 72.31 C 68.76 72.85 68.76 72.85 68.26 72.31 Z" />
</g>
<g id="#141e23ee">
<path fill="#141e23" opacity="0.93" d=" M 72.80 72.15 L 73.80 71.44 C 75.08 72.00 78.22 74.38 78.70 71.97 C 80.06 72.88 81.38 73.86 82.68 74.87 L 83.39 75.96 C 80.94 75.14 78.50 74.27 75.97 73.72 C 75.00 73.49 73.06 73.02 72.08 72.79 L 72.80 72.15 Z" />
</g>
<g id="#5b3742ff">
<path fill="#5b3742" opacity="1.00" d=" M 49.10 80.57 C 49.13 77.26 49.57 73.76 52.93 72.20 C 53.44 74.26 53.71 76.37 53.94 78.49 C 53.16 78.66 51.59 79.02 50.80 79.20 C 51.14 79.45 51.81 79.94 52.15 80.19 C 53.09 81.55 53.71 81.54 54.02 80.15 C 54.48 80.48 55.39 81.15 55.85 81.49 L 55.73 83.08 C 53.65 82.07 51.34 81.93 49.08 81.80 L 49.09 81.27 L 49.10 80.57 Z" />
</g>
<g id="#e0b4b4ff">
<path fill="#e0b4b4" opacity="1.00" d=" M 55.01 72.19 L 55.33 72.31 C 56.02 72.76 57.39 73.65 58.08 74.10 C 58.44 76.03 58.85 77.94 59.15 79.88 L 58.68 80.13 C 57.80 80.59 56.93 81.08 56.07 81.60 C 55.99 81.97 55.82 82.71 55.73 83.08 L 55.85 81.49 C 56.25 78.36 55.50 75.26 55.01 72.19 Z" />
</g>
<g id="#8b3b27ff">
<path fill="#8b3b27" opacity="1.00" d=" M 68.31 74.70 C 68.81 75.23 68.81 75.23 68.31 74.70 Z" />
</g>
<g id="#3c4032ff">
<path fill="#3c4032" opacity="1.00" d=" M 32.35 76.85 C 32.21 75.61 32.83 75.07 34.21 75.25 C 34.37 75.48 34.70 75.92 34.87 76.14 L 34.67 76.75 C 34.09 76.78 32.93 76.83 32.35 76.85 Z" />
</g>
<g id="#462820ce">
<path fill="#462820" opacity="0.81" d=" M 59.27 80.76 C 63.11 79.74 66.54 77.73 70.10 76.03 C 69.03 77.02 67.94 77.98 66.81 78.89 C 66.56 79.09 66.05 79.50 65.80 79.70 C 65.26 79.85 64.18 80.14 63.64 80.29 C 64.64 80.72 65.65 81.13 66.67 81.54 C 65.43 81.53 64.18 81.51 62.94 81.52 C 62.24 81.56 60.84 81.63 60.14 81.67 L 59.27 80.76 Z" />
</g>
<g id="#433f3fef">
<path fill="#433f3f" opacity="0.94" d=" M 84.17 76.87 C 85.78 78.35 87.80 79.71 88.30 81.99 C 86.35 81.99 84.37 82.18 82.44 81.80 C 81.81 81.65 80.54 81.35 79.91 81.20 C 81.79 81.27 83.68 81.31 85.57 81.36 L 85.16 80.20 C 84.81 79.09 84.48 77.98 84.17 76.87 Z" />
</g>
<g id="#eae8e6ff">
<path fill="#eae8e6" opacity="1.00" d=" M 65.80 79.70 C 66.05 79.50 66.56 79.09 66.81 78.89 C 68.58 78.05 70.38 79.01 71.80 80.05 C 69.79 80.20 67.76 80.23 65.80 79.70 Z" />
</g>
<g id="#b9a8a3ff">
<path fill="#b9a8a3" opacity="1.00" d=" M 52.15 80.19 C 52.62 80.18 53.55 80.16 54.02 80.15 C 53.71 81.54 53.09 81.55 52.15 80.19 Z" />
</g>
<g id="#655633ff">
<path fill="#655633" opacity="1.00" d=" M 56.07 81.60 C 56.93 81.08 57.80 80.59 58.68 80.13 C 58.83 80.28 59.12 80.60 59.27 80.76 L 60.14 81.67 C 60.84 81.63 62.24 81.56 62.94 81.52 L 62.96 82.18 C 67.95 82.05 72.94 82.37 77.92 82.36 C 78.38 82.07 79.28 81.48 79.74 81.19 L 79.91 81.20 C 80.54 81.35 81.81 81.65 82.44 81.80 C 81.42 84.51 78.39 83.53 76.49 84.89 C 72.24 84.99 67.98 85.14 63.74 84.76 C 63.59 84.66 63.29 84.47 63.14 84.38 C 62.24 84.20 60.46 83.86 59.57 83.68 C 59.49 83.64 59.34 83.56 59.26 83.51 C 58.46 83.03 56.87 82.08 56.07 81.60 Z" />
</g>
<g id="#616161ff">
<path fill="#616161" opacity="1.00" d=" M 63.64 80.29 C 64.18 80.14 65.26 79.85 65.80 79.70 C 67.76 80.23 69.79 80.20 71.80 80.05 C 74.28 81.26 77.07 80.95 79.74 81.19 C 79.28 81.48 78.38 82.07 77.92 82.36 C 75.76 82.36 73.64 81.95 71.55 81.42 C 69.97 82.05 68.28 81.86 66.67 81.54 C 65.65 81.13 64.64 80.72 63.64 80.29 Z" />
</g>
<g id="#0b1921ff">
<path fill="#0b1921" opacity="1.00" d=" M 59.26 83.51 C 59.34 83.56 59.49 83.64 59.57 83.68 C 59.49 83.64 59.34 83.56 59.26 83.51 Z" />
</g>
<g id="#0b1821ff">
<path fill="#0b1821" opacity="1.00" d=" M 63.14 84.38 C 63.29 84.47 63.59 84.66 63.74 84.76 C 63.59 84.66 63.29 84.47 63.14 84.38 Z" />
</g>
</svg>
