<?xml version="1.0" encoding="UTF-8" ?>
<!DOCTYPE svg PUBLIC "-//W3C//DTD SVG 1.1//EN" "http://www.w3.org/Graphics/SVG/1.1/DTD/svg11.dtd">
<svg width="120pt" height="120pt" viewBox="0 0 120 120" version="1.1" xmlns="http://www.w3.org/2000/svg">
<g id="#28292cff">
<path fill="#28292c" opacity="1.00" d=" M 62.57 23.60 C 64.68 19.75 69.63 19.65 73.16 17.72 C 73.01 19.16 72.85 20.61 72.46 22.01 C 72.40 21.19 72.28 19.55 72.22 18.73 C 70.97 19.48 69.71 20.23 68.46 20.99 C 67.88 20.97 66.72 20.92 66.14 20.89 C 64.73 22.32 63.61 23.97 62.65 25.73 C 61.55 26.11 60.46 26.50 59.37 26.91 C 58.75 27.05 57.53 27.32 56.92 27.46 L 57.02 26.31 C 58.99 25.81 61.46 25.56 62.57 23.60 Z" />
<path fill="#28292c" opacity="1.00" d=" M 47.73 26.65 C 47.62 24.04 49.95 22.98 51.81 21.77 C 52.52 21.89 53.94 22.13 54.66 22.25 C 56.41 23.40 55.76 25.89 56.92 27.46 L 56.52 27.56 C 54.67 28.23 52.30 28.53 51.23 30.39 C 50.25 32.84 50.97 35.51 51.16 38.03 C 55.42 39.09 59.77 38.42 63.84 36.97 C 62.80 37.85 61.76 38.74 60.69 39.59 C 59.24 39.87 57.78 40.11 56.31 40.32 L 56.25 41.85 C 55.57 41.14 54.89 40.42 54.21 39.70 C 54.25 40.56 54.32 42.29 54.35 43.15 C 53.05 41.94 51.75 40.74 50.44 39.54 L 50.28 41.38 C 49.55 40.98 48.83 40.58 48.11 40.18 C 49.35 38.21 49.82 35.98 49.28 33.70 C 50.02 31.83 50.83 30.00 51.72 28.20 C 52.98 27.93 54.21 27.49 55.35 26.86 C 55.14 25.50 54.76 24.18 54.39 22.86 C 53.66 22.92 52.21 23.05 51.48 23.12 C 50.89 23.44 49.69 24.08 49.10 24.40 C 49.13 25.64 49.17 26.88 49.19 28.12 C 44.24 27.64 40.05 32.24 40.76 37.13 C 43.04 38.52 45.53 39.50 48.11 40.18 C 47.90 41.10 47.67 42.01 47.44 42.93 L 45.79 40.45 C 46.06 41.27 46.59 42.91 46.86 43.74 C 46.58 44.06 46.01 44.71 45.73 45.03 C 48.51 44.08 51.43 44.34 54.22 45.09 C 55.54 44.68 56.86 44.29 58.19 43.89 C 56.27 45.20 54.29 46.44 52.53 47.97 C 54.68 47.12 57.89 47.22 59.09 45.00 C 58.60 43.47 57.32 42.75 55.28 42.84 C 56.51 42.26 57.71 41.65 58.92 41.03 C 59.39 42.91 59.80 44.82 59.79 46.76 C 58.40 47.43 57.03 48.10 55.67 48.81 C 57.62 48.39 59.55 47.91 61.49 47.45 C 64.03 44.55 65.85 41.09 66.58 37.28 C 65.79 35.96 65.14 34.52 65.65 32.98 C 65.93 34.36 66.77 35.20 68.17 35.52 C 67.92 36.54 67.67 37.55 67.40 38.56 C 66.99 39.57 66.55 40.58 66.11 41.58 C 66.09 42.53 66.07 43.48 66.06 44.43 C 66.41 45.13 67.09 46.53 67.43 47.24 C 68.13 46.92 68.82 46.60 69.51 46.28 C 70.59 46.62 71.67 46.95 72.77 47.25 C 75.51 49.13 76.07 52.89 78.90 54.54 C 78.94 54.90 79.02 55.62 79.06 55.98 C 79.54 56.00 80.50 56.05 80.98 56.07 C 80.99 56.54 81.01 57.50 81.02 57.97 C 81.51 58.00 82.50 58.05 83.00 58.08 C 83.00 58.80 83.00 60.24 83.00 60.97 C 83.55 61.00 84.65 61.07 85.20 61.11 C 84.53 66.27 82.83 71.35 83.13 76.60 C 82.81 76.80 82.17 77.22 81.85 77.43 C 81.95 79.31 82.01 81.20 82.06 83.09 C 83.91 83.02 85.76 82.93 87.60 82.79 L 87.22 84.05 C 84.89 84.15 82.21 83.43 80.26 85.10 C 80.38 84.80 80.62 84.21 80.74 83.92 C 81.27 82.55 81.30 81.30 80.83 80.18 C 80.27 80.02 79.15 79.68 78.59 79.52 C 78.15 78.19 77.74 76.86 77.21 75.57 C 77.73 74.78 78.28 74.00 78.83 73.23 C 79.22 75.03 78.07 77.98 80.49 78.84 C 80.63 76.30 81.03 73.80 81.25 71.27 L 79.49 73.49 C 79.29 72.34 79.12 71.17 78.98 70.01 C 78.48 70.00 77.48 69.98 76.97 69.97 C 76.98 70.74 77.00 72.29 77.00 73.07 L 75.09 71.69 C 75.37 72.78 75.92 74.97 76.20 76.07 L 77.21 75.57 C 76.74 75.99 75.81 76.84 75.34 77.26 C 75.25 76.19 75.05 74.06 74.95 72.99 C 74.18 73.28 72.64 73.85 71.87 74.14 C 72.19 73.41 72.82 71.96 73.14 71.23 L 72.90 73.64 C 74.36 72.19 75.67 70.56 76.39 68.61 C 75.91 68.35 74.96 67.84 74.49 67.58 C 74.05 68.76 73.61 69.95 73.17 71.13 C 73.09 70.81 72.93 70.16 72.85 69.83 C 71.43 70.88 70.04 71.97 68.61 73.00 C 67.71 72.77 66.83 72.52 65.95 72.23 C 65.40 71.11 64.83 70.00 64.32 68.86 L 64.39 68.12 C 65.08 69.23 65.77 70.33 66.46 71.45 C 68.02 69.00 69.95 66.86 71.96 64.79 C 68.51 60.84 62.37 58.76 61.74 52.91 C 61.71 52.44 61.64 51.51 61.61 51.04 C 57.80 51.26 53.63 53.24 50.10 51.00 C 48.49 49.93 46.96 48.71 45.15 48.02 C 43.08 48.85 40.90 49.72 39.32 51.33 C 37.71 54.37 39.21 57.46 40.14 60.42 C 38.72 59.06 37.93 56.98 36.22 55.98 C 34.90 58.28 35.81 61.03 35.69 63.53 C 35.46 62.61 35.01 60.76 34.79 59.83 C 34.10 59.92 32.71 60.11 32.02 60.20 C 32.35 61.90 32.67 63.61 32.97 65.32 C 32.71 64.88 32.19 63.99 31.93 63.55 C 30.73 63.11 29.53 62.65 28.33 62.19 C 28.10 62.73 27.66 63.80 27.43 64.34 C 29.06 66.02 30.38 67.95 31.55 69.97 C 32.23 69.93 32.91 69.89 33.59 69.84 C 34.14 69.80 35.24 69.72 35.78 69.68 L 36.22 70.93 C 34.03 70.98 31.83 71.00 29.64 71.07 C 29.77 72.05 30.03 74.03 30.16 75.02 C 29.36 75.01 27.75 74.99 26.95 74.98 C 26.45 73.59 25.86 72.23 25.29 70.87 C 25.84 70.72 26.95 70.43 27.50 70.29 C 26.28 71.66 27.69 73.57 29.10 74.08 C 29.28 72.68 28.63 71.38 28.16 70.12 C 28.91 69.86 29.65 69.55 30.35 69.18 C 29.43 67.89 28.49 66.62 27.54 65.35 C 25.73 66.96 23.96 68.61 22.17 70.26 C 23.32 71.48 24.45 72.73 25.52 74.03 L 24.06 73.22 C 23.48 72.85 22.89 72.50 22.30 72.16 C 21.72 73.62 20.64 75.18 21.13 76.81 C 22.60 76.28 23.15 74.40 24.06 73.22 C 24.19 73.86 24.47 75.15 24.60 75.79 C 24.83 76.70 25.07 77.61 25.33 78.51 C 25.70 79.81 26.01 81.13 26.26 82.46 C 25.10 82.01 23.99 81.45 22.94 80.78 C 22.88 79.98 22.77 78.37 22.71 77.57 C 19.63 77.54 22.10 81.23 22.68 82.70 L 21.14 83.10 C 21.05 82.48 20.85 81.26 20.76 80.64 C 19.66 78.03 20.07 75.14 20.00 72.38 C 21.26 70.55 22.69 68.85 24.24 67.25 C 26.35 65.21 27.00 62.13 29.21 60.17 C 29.59 60.35 30.34 60.69 30.72 60.87 C 31.31 59.75 31.94 58.66 32.57 57.57 L 33.29 59.42 C 34.42 57.23 35.23 54.52 37.71 53.48 C 38.13 49.34 42.61 48.22 45.82 46.83 C 45.38 45.40 45.05 43.94 44.75 42.48 C 44.49 41.97 43.99 40.94 43.74 40.43 C 42.46 39.63 41.08 38.91 40.19 37.65 C 39.96 35.92 40.01 34.17 39.97 32.43 C 42.24 30.10 44.63 27.82 47.73 26.65 M 64.05 45.63 C 63.65 47.12 64.12 47.62 65.47 47.12 C 65.86 45.66 65.39 45.16 64.05 45.63 M 50.28 46.14 C 50.35 49.47 53.34 44.65 50.28 46.14 M 65.36 48.00 C 64.57 48.83 63.77 49.66 62.97 50.49 C 63.02 52.36 62.74 54.39 63.79 56.06 C 64.85 58.56 67.85 58.95 70.20 59.28 C 69.89 58.70 69.26 57.53 68.95 56.95 C 69.19 56.66 69.67 56.08 69.91 55.79 C 70.26 55.37 70.97 54.51 71.32 54.08 C 71.64 54.33 72.28 54.83 72.60 55.08 C 73.61 54.04 74.62 53.00 75.64 51.95 C 74.36 50.64 73.08 49.32 71.81 48.00 C 69.66 47.99 67.51 48.00 65.36 48.00 M 73.52 55.84 C 72.31 55.83 71.11 55.81 69.91 55.79 C 70.75 57.66 71.47 59.66 69.00 60.59 C 69.68 61.30 70.36 62.00 71.05 62.70 C 73.47 62.10 75.90 62.74 78.28 63.25 L 78.38 61.80 C 79.38 62.34 80.38 62.89 81.38 63.44 C 81.33 62.48 81.25 60.54 81.21 59.58 C 79.15 60.26 77.03 60.76 74.90 61.18 C 75.37 60.43 76.30 58.94 76.76 58.20 C 74.97 58.32 73.88 59.21 73.48 60.86 L 72.52 60.73 C 73.37 59.52 74.23 58.31 75.09 57.11 C 75.89 57.54 76.68 57.97 77.48 58.39 C 77.36 58.95 77.10 60.05 76.98 60.60 C 78.26 59.86 79.53 59.10 80.80 58.33 C 78.72 56.76 76.88 54.90 75.41 52.75 C 74.77 53.77 74.14 54.81 73.52 55.84 M 82.21 64.68 C 83.41 65.48 84.64 63.39 83.82 62.45 C 82.64 61.70 81.38 63.74 82.21 64.68 M 72.65 63.17 C 72.76 64.69 72.89 66.21 73.03 67.73 C 74.14 67.52 75.26 67.32 76.37 67.13 C 76.91 68.53 77.99 69.31 79.45 69.54 C 80.10 71.10 81.58 71.38 83.08 70.96 C 82.47 68.44 82.15 65.28 79.94 63.64 C 77.51 63.54 75.04 63.74 72.65 63.17 M 68.35 70.83 C 69.93 69.83 71.52 68.84 73.03 67.73 C 70.47 65.70 68.72 68.43 68.35 70.83 Z" />
<path fill="#28292c" opacity="1.00" d=" M 43.51 60.72 C 45.33 58.15 47.11 55.56 48.81 52.92 L 49.25 53.48 C 47.31 56.49 45.26 59.43 43.32 62.43 C 43.25 63.17 43.13 64.65 43.07 65.39 C 41.81 68.84 41.87 72.62 43.53 75.94 C 44.72 78.71 45.67 81.97 48.51 83.52 C 54.71 87.43 61.06 91.36 68.25 93.18 C 68.20 91.58 68.15 89.98 68.09 88.37 C 66.12 87.01 64.20 85.55 62.66 83.70 C 63.33 80.18 64.59 76.46 67.60 74.25 C 66.33 76.45 65.02 78.63 63.88 80.90 C 62.99 84.85 67.78 86.29 70.07 88.52 C 73.55 87.67 76.97 86.54 80.26 85.10 C 79.20 85.92 78.14 86.75 77.07 87.56 C 77.04 88.84 77.00 90.13 76.97 91.41 C 80.22 92.46 83.32 90.65 86.41 89.89 C 85.48 90.58 84.56 91.27 83.62 91.95 C 83.10 92.00 82.07 92.09 81.55 92.14 C 80.91 92.44 79.64 93.06 79.00 93.37 C 78.98 95.88 78.98 98.39 78.99 100.91 C 78.39 101.00 77.20 101.18 76.61 101.27 C 78.78 98.87 78.69 95.58 76.92 93.02 C 74.00 93.86 70.97 94.03 67.98 94.45 C 68.67 96.39 69.59 98.24 70.62 100.02 C 71.39 99.53 72.11 98.97 72.82 98.41 C 73.36 99.59 73.98 100.74 74.59 101.88 L 74.88 102.43 C 74.27 102.07 73.06 101.33 72.45 100.96 C 69.86 100.66 67.17 102.65 64.85 100.88 C 64.94 99.77 65.04 98.66 65.13 97.55 C 66.61 96.19 67.72 94.64 65.94 92.97 C 64.81 92.95 63.69 92.93 62.57 92.90 C 58.82 90.86 54.94 89.08 51.42 86.65 C 50.38 85.39 49.48 87.28 48.55 87.64 C 49.74 89.24 50.90 90.86 52.04 92.50 C 51.96 93.80 51.88 95.11 51.78 96.42 L 51.51 95.59 C 51.06 94.10 50.56 92.62 50.07 91.14 C 46.45 93.43 42.14 93.20 38.05 92.97 C 39.64 94.49 40.87 96.30 41.70 98.34 C 44.62 97.87 47.54 97.36 50.45 96.86 C 46.07 99.70 40.61 98.81 35.67 99.13 C 34.59 99.99 33.50 100.02 32.38 99.22 C 31.09 99.06 29.81 98.91 28.52 98.76 C 29.74 95.78 32.75 94.54 35.46 93.29 C 36.51 92.94 37.56 92.58 38.60 92.21 C 39.27 92.14 40.59 92.00 41.25 91.93 C 39.50 88.91 36.95 86.47 35.01 83.59 C 35.03 81.65 35.03 79.72 35.02 77.78 C 36.42 74.76 38.20 71.91 40.76 69.73 C 40.64 67.98 43.24 64.59 40.06 64.65 C 40.04 65.42 40.00 66.97 39.97 67.74 C 37.69 67.90 35.64 68.90 33.59 69.84 C 33.74 68.96 34.04 67.19 34.18 66.31 C 35.61 66.67 37.04 67.02 38.47 67.36 C 37.95 65.87 37.43 64.37 36.92 62.87 C 37.49 63.39 38.62 64.42 39.19 64.94 C 40.35 64.38 41.51 63.81 42.67 63.25 C 41.82 62.31 40.96 61.38 40.14 60.42 C 41.26 60.51 42.39 60.61 43.51 60.72 M 37.65 74.65 C 37.15 75.64 36.64 76.62 36.10 77.59 C 36.08 79.47 36.09 81.35 36.12 83.22 L 36.52 83.35 C 37.89 85.70 39.80 88.76 42.99 88.27 C 45.58 88.48 47.62 86.73 49.60 85.34 C 48.31 84.62 47.03 83.91 45.72 83.23 C 44.65 80.98 43.57 78.73 42.44 76.51 C 41.90 74.56 41.36 72.62 40.86 70.66 C 39.65 71.87 38.51 73.16 37.65 74.65 M 36.78 94.27 C 37.37 94.80 37.37 94.80 36.78 94.27 M 29.51 98.02 C 33.24 98.60 36.98 98.39 40.72 98.10 C 40.10 97.00 39.47 95.91 38.83 94.82 C 37.45 95.67 36.06 96.48 34.69 97.34 C 34.87 96.67 35.23 95.32 35.40 94.64 C 33.22 95.35 31.02 96.21 29.51 98.02 M 67.35 97.33 C 67.12 97.87 66.66 98.94 66.44 99.48 C 66.39 101.26 68.90 100.69 68.84 99.20 C 68.95 97.93 68.45 97.31 67.35 97.33 Z" />
<path fill="#28292c" opacity="1.00" d=" M 97.97 69.27 L 98.59 69.23 C 99.64 70.33 99.69 71.48 98.72 72.66 C 97.47 72.02 97.94 70.38 97.97 69.27 Z" />
<path fill="#28292c" opacity="1.00" d=" M 88.03 77.27 C 88.43 78.24 88.81 79.21 89.16 80.20 C 91.75 80.96 94.33 81.74 96.93 82.45 C 95.89 82.75 94.62 84.37 93.67 83.74 C 93.23 83.27 92.36 82.34 91.92 81.88 C 91.47 82.33 90.57 83.23 90.13 83.68 C 89.49 83.46 88.23 83.01 87.60 82.79 L 86.44 82.36 C 87.45 82.23 89.49 81.95 90.50 81.81 C 89.88 81.52 88.63 80.94 88.00 80.65 C 88.02 79.52 88.02 78.40 88.03 77.27 Z" />
<path fill="#28292c" opacity="1.00" d=" M 98.85 78.33 C 100.47 78.43 100.62 78.94 99.31 79.86 C 99.19 79.47 98.96 78.71 98.85 78.33 Z" />
</g>
<g id="#fbe273ff">
<path fill="#fbe273" opacity="1.00" d=" M 68.46 20.99 C 69.71 20.23 70.97 19.48 72.22 18.73 C 72.28 19.55 72.40 21.19 72.46 22.01 C 71.10 22.96 69.76 24.07 69.34 25.76 C 68.44 26.64 67.52 27.49 66.60 28.34 C 66.61 29.81 66.62 31.28 66.65 32.76 L 65.65 32.98 C 65.86 32.17 66.27 30.56 66.48 29.76 C 64.31 28.37 61.83 27.59 59.37 26.91 C 60.46 26.50 61.55 26.11 62.65 25.73 C 63.61 23.97 64.73 22.32 66.14 20.89 C 66.72 20.92 67.88 20.97 68.46 20.99 Z" />
<path fill="#fbe273" opacity="1.00" d=" M 51.48 23.12 C 52.21 23.05 53.66 22.92 54.39 22.86 C 54.76 24.18 55.14 25.50 55.35 26.86 C 54.21 27.49 52.98 27.93 51.72 28.20 C 51.09 28.18 49.82 28.14 49.19 28.12 C 49.17 26.88 49.13 25.64 49.10 24.40 C 49.69 24.08 50.89 23.44 51.48 23.12 Z" />
<path fill="#fbe273" opacity="1.00" d=" M 39.32 51.33 C 40.90 49.72 43.08 48.85 45.15 48.02 C 46.96 48.71 48.49 49.93 50.10 51.00 C 49.78 51.48 49.13 52.44 48.81 52.92 C 47.11 55.56 45.33 58.15 43.51 60.72 C 42.39 60.61 41.26 60.51 40.14 60.42 C 39.21 57.46 37.71 54.37 39.32 51.33 Z" />
<path fill="#fbe273" opacity="1.00" d=" M 65.36 48.00 C 67.51 48.00 69.66 47.99 71.81 48.00 C 73.08 49.32 74.36 50.64 75.64 51.95 C 74.62 53.00 73.61 54.04 72.60 55.08 C 72.28 54.83 71.64 54.33 71.32 54.08 C 70.97 54.51 70.26 55.37 69.91 55.79 C 69.67 56.08 69.19 56.66 68.95 56.95 C 69.26 57.53 69.89 58.70 70.20 59.28 C 67.85 58.95 64.85 58.56 63.79 56.06 C 62.74 54.39 63.02 52.36 62.97 50.49 C 63.77 49.66 64.57 48.83 65.36 48.00 Z" />
<path fill="#fbe273" opacity="1.00" d=" M 57.91 62.23 C 58.29 61.97 59.04 61.43 59.42 61.16 C 60.93 62.78 62.91 63.75 65.01 64.39 C 64.79 65.63 64.57 66.87 64.39 68.12 L 64.32 68.86 C 64.83 70.00 65.40 71.11 65.95 72.23 C 66.83 72.52 67.71 72.77 68.61 73.00 C 70.04 71.97 71.43 70.88 72.85 69.83 C 72.93 70.16 73.09 70.81 73.17 71.13 L 73.14 71.23 C 72.82 71.96 72.19 73.41 71.87 74.14 C 72.64 73.85 74.18 73.28 74.95 72.99 C 75.05 74.06 75.25 76.19 75.34 77.26 C 75.81 76.84 76.74 75.99 77.21 75.57 C 77.74 76.86 78.15 78.19 78.59 79.52 C 79.15 79.68 80.27 80.02 80.83 80.18 C 81.30 81.30 81.27 82.55 80.74 83.92 C 75.02 83.57 69.38 82.46 63.88 80.90 C 65.02 78.63 66.33 76.45 67.60 74.25 C 64.59 76.46 63.33 80.18 62.66 83.70 C 55.29 85.47 48.54 80.83 43.53 75.94 C 41.87 72.62 41.81 68.84 43.07 65.39 C 43.97 64.10 44.91 62.84 45.85 61.57 C 45.87 62.17 45.93 63.36 45.96 63.96 C 46.16 64.49 46.56 65.53 46.76 66.06 C 46.01 67.67 45.25 69.27 44.51 70.89 C 45.04 71.28 46.11 72.06 46.64 72.46 C 46.75 73.02 46.96 74.14 47.07 74.70 C 48.38 75.56 49.68 76.44 50.98 77.32 C 51.77 75.96 52.55 74.60 53.34 73.24 C 55.07 73.09 56.80 72.94 58.53 72.78 C 57.54 71.13 56.53 69.51 55.51 67.88 C 56.77 66.89 58.03 65.91 59.29 64.92 C 58.83 64.03 58.37 63.13 57.91 62.23 Z" />
<path fill="#fbe273" opacity="1.00" d=" M 92.94 61.88 C 94.27 63.15 94.89 65.24 96.87 65.70 C 96.79 65.93 96.63 66.41 96.56 66.64 C 95.06 65.29 93.89 63.64 92.94 61.88 Z" />
<path fill="#fbe273" opacity="1.00" d=" M 37.65 74.65 C 38.51 73.16 39.65 71.87 40.86 70.66 C 41.36 72.62 41.90 74.56 42.44 76.51 C 43.57 78.73 44.65 80.98 45.72 83.23 C 42.73 84.44 39.51 84.75 36.52 83.35 L 36.12 83.22 C 36.09 81.35 36.08 79.47 36.10 77.59 C 36.64 76.62 37.15 75.64 37.65 74.65 Z" />
<path fill="#fbe273" opacity="1.00" d=" M 90.13 83.68 C 90.57 83.23 91.47 82.33 91.92 81.88 C 92.36 82.34 93.23 83.27 93.67 83.74 C 92.74 84.56 91.71 85.15 90.56 85.52 C 88.90 85.73 87.83 87.10 87.16 88.51 C 86.98 88.86 86.60 89.54 86.41 89.89 C 83.32 90.65 80.22 92.46 76.97 91.41 C 77.00 90.13 77.04 88.84 77.07 87.56 C 78.14 86.75 79.20 85.92 80.26 85.10 C 82.21 83.43 84.89 84.15 87.22 84.05 L 87.60 82.79 C 88.23 83.01 89.49 83.46 90.13 83.68 Z" />
</g>
<g id="#f96d2dff">
<path fill="#f96d2d" opacity="1.00" d=" M 56.92 27.46 C 57.53 27.32 58.75 27.05 59.37 26.91 C 61.83 27.59 64.31 28.37 66.48 29.76 C 66.27 30.56 65.86 32.17 65.65 32.98 C 65.14 34.52 65.79 35.96 66.58 37.28 C 65.85 41.09 64.03 44.55 61.49 47.45 C 59.55 47.91 57.62 48.39 55.67 48.81 C 57.03 48.10 58.40 47.43 59.79 46.76 C 59.80 44.82 59.39 42.91 58.92 41.03 C 59.52 40.56 60.11 40.08 60.69 39.59 C 61.76 38.74 62.80 37.85 63.84 36.97 C 59.77 38.42 55.42 39.09 51.16 38.03 C 50.97 35.51 50.25 32.84 51.23 30.39 C 52.30 28.53 54.67 28.23 56.52 27.56 L 56.92 27.46 Z" />
<path fill="#f96d2d" opacity="1.00" d=" M 40.76 37.13 C 40.05 32.24 44.24 27.64 49.19 28.12 C 49.82 28.14 51.09 28.18 51.72 28.20 C 50.83 30.00 50.02 31.83 49.28 33.70 C 49.82 35.98 49.35 38.21 48.11 40.18 C 45.53 39.50 43.04 38.52 40.76 37.13 Z" />
<path fill="#f96d2d" opacity="1.00" d=" M 64.05 45.63 C 65.39 45.16 65.86 45.66 65.47 47.12 C 64.12 47.62 63.65 47.12 64.05 45.63 Z" />
<path fill="#f96d2d" opacity="1.00" d=" M 49.25 53.48 C 53.35 54.91 57.66 53.78 61.74 52.91 C 62.37 58.76 68.51 60.84 71.96 64.79 C 69.95 66.86 68.02 69.00 66.46 71.45 C 65.77 70.33 65.08 69.23 64.39 68.12 C 64.57 66.87 64.79 65.63 65.01 64.39 C 62.91 63.75 60.93 62.78 59.42 61.16 C 59.04 61.43 58.29 61.97 57.91 62.23 C 58.37 63.13 58.83 64.03 59.29 64.92 C 58.03 65.91 56.77 66.89 55.51 67.88 C 56.53 69.51 57.54 71.13 58.53 72.78 C 56.80 72.94 55.07 73.09 53.34 73.24 C 52.55 74.60 51.77 75.96 50.98 77.32 C 49.68 76.44 48.38 75.56 47.07 74.70 C 46.96 74.14 46.75 73.02 46.64 72.46 C 46.11 72.06 45.04 71.28 44.51 70.89 C 45.25 69.27 46.01 67.67 46.76 66.06 L 47.10 65.32 C 46.82 64.98 46.24 64.30 45.96 63.96 C 45.93 63.36 45.87 62.17 45.85 61.57 C 44.91 62.84 43.97 64.10 43.07 65.39 C 43.13 64.65 43.25 63.17 43.32 62.43 C 45.26 59.43 47.31 56.49 49.25 53.48 Z" />
<path fill="#f96d2d" opacity="1.00" d=" M 73.52 55.84 C 74.14 54.81 74.77 53.77 75.41 52.75 C 76.88 54.90 78.72 56.76 80.80 58.33 C 79.53 59.10 78.26 59.86 76.98 60.60 C 77.10 60.05 77.36 58.95 77.48 58.39 C 76.68 57.97 75.89 57.54 75.09 57.11 C 74.23 58.31 73.37 59.52 72.52 60.73 L 73.48 60.86 C 73.88 59.21 74.97 58.32 76.76 58.20 C 76.30 58.94 75.37 60.43 74.90 61.18 C 77.03 60.76 79.15 60.26 81.21 59.58 C 81.25 60.54 81.33 62.48 81.38 63.44 C 80.38 62.89 79.38 62.34 78.38 61.80 L 78.28 63.25 C 75.90 62.74 73.47 62.10 71.05 62.70 C 70.36 62.00 69.68 61.30 69.00 60.59 C 71.47 59.66 70.75 57.66 69.91 55.79 C 71.11 55.81 72.31 55.83 73.52 55.84 Z" />
<path fill="#f96d2d" opacity="1.00" d=" M 36.22 55.98 C 37.93 56.98 38.72 59.06 40.14 60.42 C 40.96 61.38 41.82 62.31 42.67 63.25 C 41.51 63.81 40.35 64.38 39.19 64.94 C 38.62 64.42 37.49 63.39 36.92 62.87 C 37.43 64.37 37.95 65.87 38.47 67.36 C 37.04 67.02 35.61 66.67 34.18 66.31 C 34.04 67.19 33.74 68.96 33.59 69.84 C 32.91 69.89 32.23 69.93 31.55 69.97 C 30.38 67.95 29.06 66.02 27.43 64.34 C 27.66 63.80 28.10 62.73 28.33 62.19 C 29.53 62.65 30.73 63.11 31.93 63.55 C 32.19 63.99 32.71 64.88 32.97 65.32 C 32.67 63.61 32.35 61.90 32.02 60.20 C 32.71 60.11 34.10 59.92 34.79 59.83 C 35.01 60.76 35.46 62.61 35.69 63.53 C 35.81 61.03 34.90 58.28 36.22 55.98 Z" />
<path fill="#f96d2d" opacity="1.00" d=" M 89.56 59.16 C 89.96 59.40 90.76 59.87 91.15 60.11 C 91.91 60.53 92.50 61.12 92.94 61.88 C 93.89 63.64 95.06 65.29 96.56 66.64 C 96.91 67.30 97.62 68.61 97.97 69.27 C 97.94 70.38 97.47 72.02 98.72 72.66 L 99.92 73.45 C 99.54 75.07 98.78 76.63 98.85 78.33 C 98.96 78.71 99.19 79.47 99.31 79.86 C 98.53 80.74 97.74 81.60 96.93 82.45 C 94.33 81.74 91.75 80.96 89.16 80.20 C 88.81 79.21 88.43 78.24 88.03 77.27 L 87.22 76.05 C 88.57 74.11 88.28 71.72 88.33 69.49 C 88.91 68.52 89.48 67.55 90.06 66.58 C 88.81 65.27 88.99 63.30 90.48 62.28 C 90.04 62.08 89.16 61.68 88.73 61.48 L 89.07 60.45 C 89.19 60.13 89.44 59.48 89.56 59.16 Z" />
<path fill="#f96d2d" opacity="1.00" d=" M 82.21 64.68 C 81.38 63.74 82.64 61.70 83.82 62.45 C 84.64 63.39 83.41 65.48 82.21 64.68 Z" />
<path fill="#f96d2d" opacity="1.00" d=" M 72.65 63.17 C 75.04 63.74 77.51 63.54 79.94 63.64 C 82.15 65.28 82.47 68.44 83.08 70.96 C 81.58 71.38 80.10 71.10 79.45 69.54 C 77.99 69.31 76.91 68.53 76.37 67.13 C 75.26 67.32 74.14 67.52 73.03 67.73 C 72.89 66.21 72.76 64.69 72.65 63.17 Z" />
<path fill="#f96d2d" opacity="1.00" d=" M 22.17 70.26 C 23.96 68.61 25.73 66.96 27.54 65.35 C 28.49 66.62 29.43 67.89 30.35 69.18 C 29.65 69.55 28.91 69.86 28.16 70.12 L 27.50 70.29 C 26.95 70.43 25.84 70.72 25.29 70.87 C 25.86 72.23 26.45 73.59 26.95 74.98 C 26.48 75.30 25.53 75.92 25.05 76.24 L 24.60 75.79 C 24.47 75.15 24.19 73.86 24.06 73.22 L 25.52 74.03 C 24.45 72.73 23.32 71.48 22.17 70.26 Z" />
<path fill="#f96d2d" opacity="1.00" d=" M 87.16 88.51 C 87.83 87.10 88.90 85.73 90.56 85.52 C 91.26 87.15 88.72 89.43 87.16 88.51 Z" />
<path fill="#f96d2d" opacity="1.00" d=" M 38.05 92.97 C 42.14 93.20 46.45 93.43 50.07 91.14 C 50.56 92.62 51.06 94.10 51.51 95.59 C 51.25 95.91 50.72 96.55 50.45 96.86 C 47.54 97.36 44.62 97.87 41.70 98.34 C 40.87 96.30 39.64 94.49 38.05 92.97 Z" />
<path fill="#f96d2d" opacity="1.00" d=" M 67.98 94.45 C 70.97 94.03 74.00 93.86 76.92 93.02 C 78.69 95.58 78.78 98.87 76.61 101.27 C 76.49 99.81 76.39 98.35 76.30 96.90 C 75.96 96.80 75.26 96.59 74.92 96.49 L 74.38 96.99 C 73.99 97.35 73.21 98.05 72.82 98.41 C 72.11 98.97 71.39 99.53 70.62 100.02 C 69.59 98.24 68.67 96.39 67.98 94.45 Z" />
<path fill="#f96d2d" opacity="1.00" d=" M 36.78 94.27 C 37.37 94.80 37.37 94.80 36.78 94.27 Z" />
</g>
<g id="#f5edf3ff">
<path fill="#f5edf3" opacity="1.00" d=" M 56.31 40.32 C 57.78 40.11 59.24 39.87 60.69 39.59 C 60.11 40.08 59.52 40.56 58.92 41.03 C 57.71 41.65 56.51 42.26 55.28 42.84 C 57.32 42.75 58.60 43.47 59.09 45.00 C 57.89 47.22 54.68 47.12 52.53 47.97 C 54.29 46.44 56.27 45.20 58.19 43.89 C 56.86 44.29 55.54 44.68 54.22 45.09 C 51.43 44.34 48.51 44.08 45.73 45.03 C 46.01 44.71 46.58 44.06 46.86 43.74 C 46.59 42.91 46.06 41.27 45.79 40.45 L 47.44 42.93 C 47.67 42.01 47.90 41.10 48.11 40.18 C 48.83 40.58 49.55 40.98 50.28 41.38 L 50.44 39.54 C 51.75 40.74 53.05 41.94 54.35 43.15 C 54.32 42.29 54.25 40.56 54.21 39.70 C 54.89 40.42 55.57 41.14 56.25 41.85 L 56.31 40.32 Z" />
<path fill="#f5edf3" opacity="1.00" d=" M 68.35 70.83 C 68.72 68.43 70.47 65.70 73.03 67.73 C 71.52 68.84 69.93 69.83 68.35 70.83 Z" />
<path fill="#f5edf3" opacity="1.00" d=" M 74.49 67.58 C 74.96 67.84 75.91 68.35 76.39 68.61 C 75.67 70.56 74.36 72.19 72.90 73.64 L 73.14 71.23 L 73.17 71.13 C 73.61 69.95 74.05 68.76 74.49 67.58 Z" />
<path fill="#f5edf3" opacity="1.00" d=" M 27.50 70.29 L 28.16 70.12 C 28.63 71.38 29.28 72.68 29.10 74.08 C 27.69 73.57 26.28 71.66 27.50 70.29 Z" />
<path fill="#f5edf3" opacity="1.00" d=" M 76.97 69.97 C 77.48 69.98 78.48 70.00 78.98 70.01 C 79.12 71.17 79.29 72.34 79.49 73.49 L 81.25 71.27 C 81.03 73.80 80.63 76.30 80.49 78.84 C 78.07 77.98 79.22 75.03 78.83 73.23 C 78.28 74.00 77.73 74.78 77.21 75.57 L 76.20 76.07 C 75.92 74.97 75.37 72.78 75.09 71.69 L 77.00 73.07 C 77.00 72.29 76.98 70.74 76.97 69.97 Z" />
<path fill="#f5edf3" opacity="1.00" d=" M 22.30 72.16 C 22.89 72.50 23.48 72.85 24.06 73.22 C 23.15 74.40 22.60 76.28 21.13 76.81 C 20.64 75.18 21.72 73.62 22.30 72.16 Z" />
<path fill="#f5edf3" opacity="1.00" d=" M 22.68 82.70 C 22.10 81.23 19.63 77.54 22.71 77.57 C 22.77 78.37 22.88 79.98 22.94 80.78 C 22.88 81.26 22.74 82.22 22.68 82.70 Z" />
<path fill="#f5edf3" opacity="1.00" d=" M 29.51 98.02 C 31.02 96.21 33.22 95.35 35.40 94.64 C 35.23 95.32 34.87 96.67 34.69 97.34 C 36.06 96.48 37.45 95.67 38.83 94.82 C 39.47 95.91 40.10 97.00 40.72 98.10 C 36.98 98.39 33.24 98.60 29.51 98.02 Z" />
<path fill="#f5edf3" opacity="1.00" d=" M 67.35 97.33 C 68.45 97.31 68.95 97.93 68.84 99.20 C 68.90 100.69 66.39 101.26 66.44 99.48 C 66.66 98.94 67.12 97.87 67.35 97.33 Z" />
<path fill="#f5edf3" opacity="1.00" d=" M 74.38 96.99 C 77.34 97.22 75.98 100.56 74.59 101.88 C 73.98 100.74 73.36 99.59 72.82 98.41 C 73.21 98.05 73.99 97.35 74.38 96.99 Z" />
</g>
<g id="#af9956ff">
<path fill="#af9956" opacity="1.00" d=" M 50.28 46.14 C 53.34 44.65 50.35 49.47 50.28 46.14 Z" />
<path fill="#af9956" opacity="1.00" d=" M 50.10 51.00 C 53.63 53.24 57.80 51.26 61.61 51.04 C 61.64 51.51 61.71 52.44 61.74 52.91 C 57.66 53.78 53.35 54.91 49.25 53.48 L 48.81 52.92 C 49.13 52.44 49.78 51.48 50.10 51.00 Z" />
<path fill="#af9956" opacity="1.00" d=" M 88.15 54.49 C 89.59 56.10 90.51 58.06 91.15 60.11 C 90.76 59.87 89.96 59.40 89.56 59.16 C 89.44 59.48 89.19 60.13 89.07 60.45 L 88.41 61.57 C 88.14 59.22 88.10 56.85 88.15 54.49 Z" />
<path fill="#af9956" opacity="1.00" d=" M 45.96 63.96 C 46.24 64.30 46.82 64.98 47.10 65.32 L 46.76 66.06 C 46.56 65.53 46.16 64.49 45.96 63.96 Z" />
<path fill="#af9956" opacity="1.00" d=" M 43.53 75.94 C 48.54 80.83 55.29 85.47 62.66 83.70 C 64.20 85.55 66.12 87.01 68.09 88.37 C 68.15 89.98 68.20 91.58 68.25 93.18 C 61.06 91.36 54.71 87.43 48.51 83.52 C 45.67 81.97 44.72 78.71 43.53 75.94 Z" />
<path fill="#af9956" opacity="1.00" d=" M 70.07 88.52 C 67.78 86.29 62.99 84.85 63.88 80.90 C 69.38 82.46 75.02 83.57 80.74 83.92 C 80.62 84.21 80.38 84.80 80.26 85.10 C 76.97 86.54 73.55 87.67 70.07 88.52 Z" />
<path fill="#af9956" opacity="1.00" d=" M 36.52 83.35 C 39.51 84.75 42.73 84.44 45.72 83.23 C 47.03 83.91 48.31 84.62 49.60 85.34 C 47.62 86.73 45.58 88.48 42.99 88.27 C 39.80 88.76 37.89 85.70 36.52 83.35 Z" />
</g>
</svg>
