<?xml version="1.0" encoding="UTF-8" ?>
<!DOCTYPE svg PUBLIC "-//W3C//DTD SVG 1.1//EN" "http://www.w3.org/Graphics/SVG/1.1/DTD/svg11.dtd">
<svg width="120pt" height="120pt" viewBox="0 0 120 120" version="1.1" xmlns="http://www.w3.org/2000/svg">
<g id="#091820ea">
<path fill="#091820" opacity="0.92" d=" M 54.72 44.95 C 57.40 43.08 61.53 42.01 64.37 44.06 C 63.25 44.10 62.14 44.14 61.02 44.17 C 60.46 44.35 59.34 44.72 58.78 44.90 C 57.43 44.90 56.07 44.91 54.72 44.95 Z" />
</g>
<g id="#ffffffff">
<path fill="#ffffff" opacity="1.00" d=" M 58.78 44.90 C 59.34 44.72 60.46 44.35 61.02 44.17 C 60.46 44.35 59.34 44.72 58.78 44.90 Z" />
<path fill="#ffffff" opacity="1.00" d=" M 39.74 55.98 C 41.73 56.08 43.74 55.95 45.72 56.23 C 47.27 56.82 48.02 58.37 48.94 59.64 C 48.16 61.50 47.58 63.44 47.03 65.38 C 43.95 65.51 40.87 65.57 37.80 65.93 C 37.85 65.28 37.95 63.98 38.00 63.33 C 40.64 63.98 43.34 64.37 46.07 64.53 C 46.44 63.00 46.86 61.48 47.28 59.97 C 44.85 59.24 42.42 58.48 39.99 57.78 C 39.93 57.33 39.80 56.43 39.74 55.98 Z" />
<path fill="#ffffff" opacity="1.00" d=" M 54.04 59.88 L 55.08 60.06 C 55.56 60.05 56.50 60.03 56.97 60.02 C 57.46 59.99 58.44 59.92 58.93 59.88 C 59.29 60.49 60.03 61.70 60.39 62.30 C 60.56 62.89 60.88 64.05 61.05 64.64 C 61.04 65.10 61.04 66.04 61.04 66.50 L 60.49 67.13 C 60.39 67.25 60.20 67.47 60.10 67.58 C 59.79 67.95 59.16 68.69 58.84 69.06 C 58.66 69.15 58.30 69.33 58.12 69.43 C 56.96 69.45 55.80 69.37 54.65 69.19 L 54.33 69.03 C 53.97 68.76 53.25 68.22 52.89 67.95 C 52.78 67.76 52.58 67.39 52.48 67.21 C 52.30 65.49 52.16 63.77 52.08 62.05 C 53.36 61.90 54.01 61.17 54.04 59.88 M 55.25 64.13 C 55.45 67.39 58.33 62.60 55.25 64.13 Z" />
</g>
<g id="#525759ff">
<path fill="#525759" opacity="1.00" d=" M 61.02 44.17 C 62.14 44.14 63.25 44.10 64.37 44.06 L 64.99 44.04 C 64.97 44.53 64.95 45.52 64.93 46.01 C 64.41 46.02 63.35 46.04 62.82 46.05 C 60.91 46.09 58.99 46.12 57.08 46.08 C 55.78 46.14 54.60 45.78 53.54 45.00 L 54.72 44.95 C 56.07 44.91 57.43 44.90 58.78 44.90 C 59.34 44.72 60.46 44.35 61.02 44.17 Z" />
</g>
<g id="#293236fa">
<path fill="#293236" opacity="0.98" d=" M 57.08 46.08 C 58.99 46.12 60.91 46.09 62.82 46.05 C 62.07 47.86 61.69 49.82 61.99 51.77 C 65.68 53.35 68.88 55.78 70.96 59.27 C 70.69 59.76 70.16 60.73 69.89 61.22 C 69.93 63.38 69.67 65.94 71.63 67.40 C 74.17 70.35 78.35 69.08 81.61 68.44 C 82.80 68.33 84.42 67.68 84.29 66.21 C 83.84 64.53 81.80 65.69 81.06 66.48 C 78.50 66.17 75.91 66.12 73.38 65.66 C 72.63 64.56 72.10 63.34 71.52 62.15 C 74.06 60.51 77.02 59.98 80.00 60.12 C 80.79 60.11 82.37 60.10 83.16 60.09 C 83.16 59.32 83.17 57.77 83.17 57.00 C 82.38 56.99 80.79 56.99 80.00 56.99 C 77.25 56.97 74.54 57.48 71.85 58.01 C 75.44 54.74 80.62 56.48 84.99 56.09 C 85.00 57.72 85.00 59.35 85.01 60.98 C 81.76 61.01 78.49 60.74 75.25 61.09 C 73.37 62.10 73.75 63.84 75.19 65.05 C 78.76 64.42 82.34 63.74 86.00 64.06 C 86.00 65.62 86.00 67.19 86.00 68.76 C 81.02 69.71 75.72 70.89 70.80 69.02 C 70.21 69.66 69.62 70.30 69.02 70.93 C 69.93 66.64 69.16 62.22 68.75 57.91 C 66.28 55.17 62.95 52.80 59.09 53.02 C 56.37 53.56 53.99 55.14 51.41 56.14 C 53.07 54.47 55.12 53.31 57.15 52.18 C 57.10 50.15 57.08 48.11 57.08 46.08 M 58.21 47.05 C 58.27 48.70 58.33 50.36 58.32 52.02 C 59.00 51.99 60.34 51.92 61.02 51.89 C 60.89 50.22 60.76 48.55 60.65 46.87 C 60.04 46.91 58.82 47.00 58.21 47.05 Z" />
</g>
<g id="#9c9b9bff">
<path fill="#9c9b9b" opacity="1.00" d=" M 58.21 47.05 C 58.82 47.00 60.04 46.91 60.65 46.87 C 60.76 48.55 60.89 50.22 61.02 51.89 C 60.34 51.92 59.00 51.99 58.32 52.02 C 58.33 50.36 58.27 48.70 58.21 47.05 Z" />
</g>
<g id="#cceef8ff">
<path fill="#cceef8" opacity="1.00" d=" M 51.41 56.14 C 53.99 55.14 56.37 53.56 59.09 53.02 C 62.95 52.80 66.28 55.17 68.75 57.91 C 66.97 60.52 64.79 62.89 61.92 64.31 L 61.05 64.64 C 60.88 64.05 60.56 62.89 60.39 62.30 C 61.44 61.24 60.43 59.29 58.93 59.88 C 58.44 59.92 57.46 59.99 56.97 60.02 C 56.15 58.57 55.52 58.58 55.08 60.06 L 54.04 59.88 L 53.28 59.71 C 52.74 58.73 52.21 57.73 51.71 56.73 L 51.41 56.14 Z" />
</g>
<g id="#272e32fb">
<path fill="#272e32" opacity="1.00" d=" M 37.05 54.05 C 41.40 55.86 47.33 53.56 50.16 58.32 C 49.86 58.65 49.24 59.31 48.94 59.64 C 48.02 58.37 47.27 56.82 45.72 56.23 C 43.74 55.95 41.73 56.08 39.74 55.98 C 38.31 55.46 37.33 55.82 36.80 57.05 C 37.51 58.25 38.57 58.49 39.99 57.78 C 42.42 58.48 44.85 59.24 47.28 59.97 C 46.86 61.48 46.44 63.00 46.07 64.53 C 43.34 64.37 40.64 63.98 38.00 63.33 C 37.37 63.18 36.12 62.88 35.50 62.73 L 34.65 62.11 C 38.10 61.67 41.41 63.00 44.83 63.02 C 45.09 62.56 45.61 61.62 45.86 61.16 C 42.03 61.10 38.22 60.39 34.69 58.89 C 35.44 57.26 36.23 55.65 37.05 54.05 Z" />
</g>
<g id="#c68578ff">
<path fill="#c68578" opacity="1.00" d=" M 36.80 57.05 C 37.33 55.82 38.31 55.46 39.74 55.98 C 39.80 56.43 39.93 57.33 39.99 57.78 C 38.57 58.49 37.51 58.25 36.80 57.05 Z" />
</g>
<g id="#b2d0d9ff">
<path fill="#b2d0d9" opacity="1.00" d=" M 50.16 58.32 C 50.55 57.92 51.32 57.13 51.71 56.73 C 52.21 57.73 52.74 58.73 53.28 59.71 C 52.98 60.30 52.38 61.47 52.08 62.05 C 52.16 63.77 52.30 65.49 52.48 67.21 L 52.51 67.67 L 52.89 67.95 C 53.25 68.22 53.97 68.76 54.33 69.03 C 54.41 69.07 54.57 69.15 54.65 69.19 C 55.80 69.37 56.96 69.45 58.12 69.43 L 58.54 69.44 L 58.84 69.06 C 59.16 68.69 59.79 67.95 60.10 67.58 C 60.20 67.47 60.39 67.25 60.49 67.13 L 61.04 66.50 C 61.26 65.96 61.70 64.86 61.92 64.31 C 64.79 62.89 66.97 60.52 68.75 57.91 C 69.16 62.22 69.93 66.64 69.02 70.93 C 68.80 71.35 68.38 72.18 68.16 72.59 C 66.61 70.65 64.78 68.95 62.19 68.70 C 62.07 69.46 61.81 70.97 61.68 71.72 C 61.25 71.59 60.38 71.32 59.95 71.18 C 60.21 72.50 60.47 73.81 60.72 75.12 C 55.73 74.40 51.71 70.95 49.28 66.70 C 48.90 64.36 49.03 61.99 48.94 59.64 C 49.24 59.31 49.86 58.65 50.16 58.32 Z" />
</g>
<g id="#bdc4c5ff">
<path fill="#bdc4c5" opacity="1.00" d=" M 71.85 58.01 C 74.54 57.48 77.25 56.97 80.00 56.99 C 80.00 57.77 80.00 59.34 80.00 60.12 C 77.02 59.98 74.06 60.51 71.52 62.15 C 71.11 61.92 70.30 61.45 69.89 61.22 C 70.16 60.73 70.69 59.76 70.96 59.27 C 71.19 58.96 71.63 58.33 71.85 58.01 Z" />
</g>
<g id="#77c4ddff">
<path fill="#77c4dd" opacity="1.00" d=" M 80.00 56.99 C 80.79 56.99 82.38 56.99 83.17 57.00 C 83.17 57.77 83.16 59.32 83.16 60.09 C 82.37 60.10 80.79 60.11 80.00 60.12 C 80.00 59.34 80.00 57.77 80.00 56.99 Z" />
</g>
<g id="#465155ff">
<path fill="#465155" opacity="1.00" d=" M 55.08 60.06 C 55.52 58.58 56.15 58.57 56.97 60.02 C 56.50 60.03 55.56 60.05 55.08 60.06 Z" />
</g>
<g id="#4b4c4eff">
<path fill="#4b4c4e" opacity="1.00" d=" M 47.03 65.38 C 47.58 63.44 48.16 61.50 48.94 59.64 C 49.03 61.99 48.90 64.36 49.28 66.70 C 51.71 70.95 55.73 74.40 60.72 75.12 C 60.47 73.81 60.21 72.50 59.95 71.18 C 60.38 71.32 61.25 71.59 61.68 71.72 C 61.81 70.97 62.07 69.46 62.19 68.70 C 64.78 68.95 66.61 70.65 68.16 72.59 C 65.48 74.44 62.35 75.96 59.03 75.93 C 56.14 75.45 53.47 74.14 50.89 72.79 C 49.93 73.20 48.99 73.63 48.04 74.08 C 47.45 73.23 46.86 72.40 46.26 71.56 C 46.51 70.98 47.02 69.83 47.28 69.25 C 47.30 69.20 47.35 69.09 47.37 69.04 L 47.23 69.00 C 46.95 68.92 46.38 68.76 46.09 68.68 C 43.29 67.89 40.53 66.95 37.80 65.93 C 40.87 65.57 43.95 65.51 47.03 65.38 Z" />
<path fill="#4b4c4e" opacity="1.00" d=" M 52.08 62.05 C 52.38 61.47 52.98 60.30 53.28 59.71 L 54.04 59.88 C 54.01 61.17 53.36 61.90 52.08 62.05 Z" />
<path fill="#4b4c4e" opacity="1.00" d=" M 58.93 59.88 C 60.43 59.29 61.44 61.24 60.39 62.30 C 60.03 61.70 59.29 60.49 58.93 59.88 Z" />
</g>
<g id="#9fa6a7ff">
<path fill="#9fa6a7" opacity="1.00" d=" M 69.89 61.22 C 70.30 61.45 71.11 61.92 71.52 62.15 C 72.10 63.34 72.63 64.56 73.38 65.66 C 75.91 66.12 78.50 66.17 81.06 66.48 C 81.19 66.97 81.47 67.95 81.61 68.44 C 78.35 69.08 74.17 70.35 71.63 67.40 C 69.67 65.94 69.93 63.38 69.89 61.22 Z" />
</g>
<g id="#6297a7ff">
<path fill="#6297a7" opacity="1.00" d=" M 35.50 62.73 C 36.12 62.88 37.37 63.18 38.00 63.33 C 37.95 63.98 37.85 65.28 37.80 65.93 C 36.35 65.41 34.90 64.87 33.46 64.33 C 33.97 63.93 34.99 63.13 35.50 62.73 Z" />
</g>
<g id="#1f2a2eff">
<path fill="#1f2a2e" opacity="1.00" d=" M 32.70 64.05 L 33.46 64.33 C 34.90 64.87 36.35 65.41 37.80 65.93 C 40.53 66.95 43.29 67.89 46.09 68.68 C 42.02 69.27 38.06 67.45 33.95 67.94 C 33.50 66.65 33.09 65.35 32.70 64.05 Z" />
</g>
<g id="#232c30ff">
<path fill="#232c30" opacity="1.00" d=" M 55.25 64.13 C 58.33 62.60 55.45 67.39 55.25 64.13 Z" />
</g>
<g id="#5f6f73ff">
<path fill="#5f6f73" opacity="1.00" d=" M 61.05 64.64 L 61.92 64.31 C 61.70 64.86 61.26 65.96 61.04 66.50 C 61.04 66.04 61.04 65.10 61.05 64.64 Z" />
</g>
<g id="#aa786fff">
<path fill="#aa786f" opacity="1.00" d=" M 81.06 66.48 C 81.80 65.69 83.84 64.53 84.29 66.21 C 84.42 67.68 82.80 68.33 81.61 68.44 C 81.47 67.95 81.19 66.97 81.06 66.48 Z" />
</g>
<g id="#3e484bff">
<path fill="#3e484b" opacity="1.00" d=" M 52.48 67.21 C 52.58 67.39 52.78 67.76 52.89 67.95 L 52.51 67.67 L 52.48 67.21 Z" />
</g>
<g id="#4b5457ff">
<path fill="#4b5457" opacity="1.00" d=" M 60.10 67.58 C 60.20 67.47 60.39 67.25 60.49 67.13 C 60.39 67.25 60.20 67.47 60.10 67.58 Z" />
</g>
<g id="#dce1e2ff">
<path fill="#dce1e2" opacity="1.00" d=" M 47.23 69.00 L 47.37 69.04 C 47.35 69.09 47.30 69.20 47.28 69.25 L 47.23 69.00 Z" />
</g>
<g id="#404b4eff">
<path fill="#404b4e" opacity="1.00" d=" M 54.33 69.03 L 54.65 69.19 C 54.57 69.15 54.41 69.07 54.33 69.03 Z" />
</g>
<g id="#3e474bff">
<path fill="#3e474b" opacity="1.00" d=" M 58.12 69.43 C 58.30 69.33 58.66 69.15 58.84 69.06 L 58.54 69.44 L 58.12 69.43 Z" />
</g>
<g id="#161d23ff">
<path fill="#161d23" opacity="1.00" d=" M 48.04 74.08 C 44.80 74.46 43.66 69.50 47.28 69.25 C 47.02 69.83 46.51 70.98 46.26 71.56 C 46.86 72.40 47.45 73.23 48.04 74.08 Z" />
</g>
</svg>
