<?xml version="1.0" encoding="UTF-8" ?>
<!DOCTYPE svg PUBLIC "-//W3C//DTD SVG 1.1//EN" "http://www.w3.org/Graphics/SVG/1.1/DTD/svg11.dtd">
<svg width="120pt" height="120pt" viewBox="0 0 120 120" version="1.1" xmlns="http://www.w3.org/2000/svg">
<g id="#2f3437ff">
<path fill="#2f3437" opacity="1.00" d=" M 72.37 23.12 C 74.63 20.24 77.79 24.91 78.26 27.20 L 77.56 26.66 C 76.08 25.51 74.77 24.16 73.49 22.79 C 72.74 24.15 71.97 25.51 71.03 26.75 C 70.00 27.58 68.95 28.36 67.92 29.19 C 68.05 26.42 70.77 25.03 72.37 23.12 Z" />
<path fill="#2f3437" opacity="1.00" d=" M 42.31 23.05 C 43.78 23.05 45.24 23.03 46.71 23.00 C 48.04 27.54 50.65 31.64 51.27 36.39 C 52.36 35.88 53.35 35.21 54.32 34.51 C 53.94 34.21 53.20 33.61 52.83 33.31 C 53.21 33.03 53.97 32.46 54.35 32.18 C 53.37 31.91 51.39 31.38 50.41 31.12 C 54.05 30.95 57.71 30.85 61.35 31.22 C 60.73 31.49 59.49 32.04 58.87 32.31 C 58.69 34.13 59.63 35.50 60.99 36.60 C 63.20 34.34 64.31 31.00 67.48 29.79 C 66.63 31.57 65.55 33.22 64.40 34.80 C 63.33 37.99 65.68 41.11 67.73 43.33 C 70.62 46.08 74.99 45.20 78.36 43.97 C 75.54 46.58 71.68 47.48 67.92 46.96 C 67.98 48.89 68.09 50.82 68.28 52.73 C 67.31 53.40 66.36 54.09 65.44 54.82 C 64.27 56.40 63.42 58.18 62.44 59.88 C 62.04 59.64 61.24 59.17 60.84 58.93 C 59.62 58.46 58.40 57.99 57.18 57.52 C 57.06 57.23 56.81 56.67 56.69 56.39 C 57.14 54.62 58.30 53.22 59.52 51.93 C 60.43 52.82 61.34 53.70 62.27 54.58 C 61.98 53.93 61.42 52.63 61.14 51.98 L 62.69 51.95 C 62.79 53.00 62.98 55.09 63.07 56.13 C 68.00 53.53 68.57 46.80 65.32 42.65 C 63.90 40.42 62.31 38.25 60.13 36.71 L 59.43 36.52 C 57.52 35.95 55.52 36.01 53.56 36.04 C 51.60 37.26 49.41 38.15 47.67 39.69 C 45.46 41.65 45.08 44.64 44.38 47.34 C 44.43 50.64 46.48 52.93 48.88 54.91 C 49.01 55.33 49.28 56.17 49.41 56.59 C 52.59 59.29 56.91 59.41 60.84 58.93 C 58.72 60.88 55.58 59.73 53.00 60.00 C 53.00 62.67 53.00 65.34 53.00 68.01 L 51.91 67.81 C 52.32 64.97 52.19 62.10 52.18 59.24 C 51.00 58.79 49.82 58.33 48.63 57.88 C 47.86 57.16 47.09 56.45 46.32 55.73 C 45.91 56.32 45.10 57.49 44.69 58.07 C 43.43 57.91 42.17 57.77 40.92 57.57 C 41.12 55.73 41.19 53.83 42.08 52.16 C 42.77 52.12 44.14 52.03 44.83 51.99 C 42.01 49.94 38.16 51.14 35.43 52.77 C 32.57 54.01 31.49 57.10 30.13 59.63 C 30.13 62.03 30.03 64.46 30.70 66.79 C 32.85 70.50 36.60 72.89 40.76 73.71 C 41.82 73.15 42.88 72.61 43.94 72.07 C 45.65 72.39 47.41 72.49 49.10 72.04 C 48.84 72.41 48.31 73.13 48.04 73.50 C 49.64 75.76 49.43 79.13 48.23 81.52 C 48.11 82.02 47.89 83.01 47.77 83.50 C 47.37 84.48 47.00 85.46 46.65 86.46 C 46.32 87.49 46.03 88.54 45.77 89.60 C 45.12 92.91 41.40 94.26 38.93 91.82 C 38.94 92.37 38.97 93.48 38.99 94.03 C 36.05 94.39 33.30 93.56 30.91 91.87 C 33.57 87.32 33.82 81.28 37.47 77.40 C 36.81 80.73 35.38 83.82 34.17 86.97 C 33.50 88.04 32.44 89.38 33.13 90.70 C 34.96 90.90 34.85 88.18 34.84 86.93 C 36.86 82.79 37.88 77.88 42.19 75.39 C 42.17 77.01 42.16 78.64 41.95 80.25 L 41.47 81.07 C 41.09 80.40 40.34 79.05 39.96 78.37 C 38.66 81.24 37.45 84.17 36.70 87.24 C 35.94 88.11 35.20 89.10 35.17 90.31 C 35.65 90.52 36.59 90.95 37.06 91.16 C 37.58 91.53 37.58 91.53 37.06 91.16 C 37.07 90.37 37.08 88.80 37.08 88.02 C 38.76 85.81 38.40 81.88 41.47 81.07 C 40.45 82.48 40.21 84.21 40.36 85.90 C 38.80 86.68 38.27 88.50 38.46 90.13 C 40.31 89.82 40.78 87.91 40.78 86.31 C 42.06 81.93 45.25 77.58 44.21 72.87 C 42.72 73.72 41.20 74.51 39.61 75.17 C 38.68 74.18 37.48 73.73 36.03 73.80 C 36.02 74.60 36.00 76.21 35.99 77.02 C 34.12 77.01 32.26 76.99 30.39 76.95 C 29.32 75.81 28.22 74.70 27.08 73.63 C 27.06 72.52 27.05 71.42 27.04 70.31 C 28.03 69.46 29.01 68.60 30.00 67.75 C 29.55 66.84 29.11 65.93 28.68 65.01 C 24.98 65.59 21.62 63.53 17.94 63.98 C 16.17 64.16 14.57 63.36 13.00 62.70 C 13.03 61.27 13.06 59.84 13.07 58.40 C 13.85 57.63 14.62 56.85 15.39 56.08 C 19.41 55.32 23.09 57.39 27.07 57.11 C 27.07 56.61 27.06 55.61 27.06 55.11 C 24.27 55.25 21.75 53.67 18.95 53.99 C 16.86 54.22 14.86 53.62 13.01 52.70 C 13.03 51.29 13.04 49.87 13.05 48.46 C 13.84 47.65 14.64 46.85 15.43 46.04 C 17.44 46.04 19.45 46.04 21.46 46.15 C 23.93 48.07 27.42 46.15 30.00 47.94 C 32.30 48.60 33.44 50.73 34.86 52.45 C 37.37 49.90 40.98 49.77 44.32 50.09 C 43.44 48.43 42.40 46.79 40.58 46.04 C 40.02 46.02 38.89 45.99 38.33 45.97 C 37.75 44.46 37.08 42.99 36.32 41.57 C 36.02 40.54 35.71 39.52 35.40 38.50 C 34.95 36.72 32.81 34.40 35.47 33.26 C 36.15 37.40 37.70 41.31 39.39 45.13 C 43.28 45.93 45.18 42.04 45.95 38.88 C 46.68 34.96 45.52 30.82 43.14 27.66 C 43.74 26.63 42.88 24.10 41.44 25.20 C 40.33 26.33 41.11 27.92 41.65 29.12 C 42.52 32.72 45.47 36.44 43.02 40.08 C 42.37 38.32 41.76 36.55 41.17 34.77 C 41.07 33.20 39.95 31.65 38.22 31.90 C 38.31 32.99 38.65 34.01 39.21 34.94 C 40.03 37.20 41.04 39.38 42.20 41.48 C 37.77 40.21 38.59 34.53 35.89 31.51 C 36.57 30.93 37.24 30.35 37.91 29.76 C 38.91 30.53 40.04 31.05 41.28 31.34 C 40.66 29.98 39.50 28.75 39.31 27.24 C 39.90 25.59 41.20 24.35 42.31 23.05 M 43.77 23.81 C 43.92 25.79 44.46 27.70 45.38 29.46 C 46.95 32.36 46.80 35.73 46.94 38.92 C 48.31 38.04 50.83 37.22 50.04 35.08 C 48.93 31.37 47.28 27.83 45.80 24.26 C 45.29 24.15 44.28 23.92 43.77 23.81 M 55.32 32.50 C 55.34 33.10 55.39 34.30 55.42 34.90 C 58.57 37.10 57.83 31.32 55.32 32.50 M 15.85 47.39 L 15.82 47.80 C 16.86 48.37 19.40 48.78 19.80 47.43 C 18.50 46.81 17.18 46.80 15.85 47.39 M 21.22 48.33 C 22.65 49.90 26.00 49.10 28.08 48.98 C 26.59 47.29 23.29 47.95 21.22 48.33 M 14.03 48.85 C 14.05 49.58 14.11 51.05 14.14 51.78 C 15.71 52.49 17.38 52.94 19.09 53.14 C 22.02 52.78 24.84 53.73 27.69 54.23 C 28.27 55.30 28.85 56.37 29.43 57.44 C 28.62 58.07 27.98 58.86 27.53 59.79 C 23.05 60.06 18.61 59.44 14.17 58.94 C 14.18 59.67 14.19 61.13 14.20 61.86 C 18.93 63.34 23.99 63.58 28.90 64.19 C 28.91 61.65 29.32 59.15 30.20 56.77 C 30.90 56.01 31.48 55.16 31.97 54.24 C 30.28 52.86 28.83 50.98 26.68 50.32 C 24.13 49.90 21.43 50.27 19.04 49.11 C 17.37 48.99 15.70 48.91 14.03 48.85 M 28.08 48.98 L 28.24 49.74 C 28.67 49.80 29.52 49.93 29.94 49.99 L 29.78 49.23 C 29.35 49.17 28.51 49.04 28.08 48.98 M 29.94 49.99 C 30.03 51.35 30.75 51.99 32.10 51.92 C 32.12 50.49 31.40 49.85 29.94 49.99 M 32.10 51.92 C 32.62 52.59 32.62 52.59 32.10 51.92 M 45.15 54.39 C 45.44 57.73 48.06 52.56 45.15 54.39 M 14.88 57.12 C 18.91 58.45 23.15 59.50 27.43 58.89 L 26.61 58.27 C 22.65 58.20 18.86 56.58 14.88 57.12 M 28.08 70.10 C 28.53 71.54 29.01 72.97 29.50 74.40 C 31.23 74.93 32.96 75.47 34.72 75.90 C 34.80 75.49 34.96 74.68 35.05 74.28 C 34.23 74.37 32.59 74.57 31.78 74.67 C 30.91 73.51 30.04 72.35 29.29 71.11 C 30.86 71.10 31.96 72.34 33.33 72.90 C 32.17 71.05 30.26 70.01 28.08 70.10 M 45.71 74.72 C 44.49 78.19 43.73 81.82 42.42 85.27 C 41.89 86.75 41.37 88.24 40.86 89.73 C 41.95 90.18 43.04 90.63 44.13 91.08 C 44.60 89.84 45.02 88.59 45.39 87.31 C 46.23 83.86 48.33 80.60 47.82 76.93 C 47.78 75.83 47.17 73.23 45.71 74.72 M 41.22 91.34 C 41.68 91.83 41.68 91.83 41.22 91.34 M 35.30 92.29 C 35.72 92.84 35.72 92.84 35.30 92.29 Z" />
<path fill="#2f3437" opacity="1.00" d=" M 51.47 30.39 C 52.60 29.23 54.98 26.72 56.32 29.03 C 57.90 27.05 59.97 28.78 61.30 30.08 C 58.02 30.21 54.74 30.16 51.47 30.39 Z" />
<path fill="#2f3437" opacity="1.00" d=" M 81.42 29.89 C 82.86 30.06 84.57 30.32 85.33 31.74 C 86.94 33.56 85.41 35.96 83.89 37.25 C 85.75 34.94 84.62 32.26 82.43 30.75 C 81.48 31.80 80.53 32.84 79.62 33.92 C 77.67 36.45 75.66 38.94 73.54 41.33 C 71.92 40.80 70.46 39.92 69.16 38.82 C 69.15 37.67 69.13 36.52 69.11 35.36 C 69.60 35.00 70.58 34.28 71.07 33.92 C 68.85 36.03 70.50 38.75 72.56 40.15 C 75.93 37.08 78.41 33.28 81.42 29.89 Z" />
<path fill="#2f3437" opacity="1.00" d=" M 94.43 43.33 C 96.03 43.20 97.99 41.02 99.24 42.79 C 100.80 44.36 101.03 46.63 101.14 48.74 C 99.33 50.03 97.32 51.08 95.06 51.15 C 96.02 50.53 97.00 49.93 97.98 49.35 C 98.06 47.74 97.28 45.16 95.18 46.22 C 90.94 47.69 86.55 48.96 82.64 51.22 C 83.18 47.74 86.76 46.64 89.48 45.29 C 91.22 44.91 92.89 44.25 94.43 43.33 M 95.22 44.15 C 95.49 47.44 98.17 42.52 95.22 44.15 M 99.02 46.01 C 97.65 49.13 102.24 46.53 99.02 46.01 C 100.47 42.92 95.82 45.41 99.02 46.01 M 93.32 45.30 C 93.80 45.78 93.80 45.78 93.32 45.30 M 90.28 46.32 C 90.74 46.77 90.74 46.77 90.28 46.32 Z" />
<path fill="#2f3437" opacity="1.00" d=" M 48.25 43.30 C 48.66 43.21 49.49 43.04 49.91 42.95 C 49.61 43.53 49.02 44.69 48.72 45.27 C 48.60 44.77 48.36 43.79 48.25 43.30 Z" />
<path fill="#2f3437" opacity="1.00" d=" M 52.08 47.26 C 55.31 47.42 50.59 50.40 52.08 47.26 Z" />
<path fill="#2f3437" opacity="1.00" d=" M 57.81 48.57 C 58.68 54.29 49.26 56.09 47.85 50.51 C 48.70 51.33 49.54 52.17 50.37 53.02 C 53.79 53.86 57.10 52.15 57.81 48.57 Z" />
<path fill="#2f3437" opacity="1.00" d=" M 71.44 50.86 C 73.24 49.65 75.73 49.62 77.54 50.85 C 78.07 50.92 79.13 51.08 79.66 51.15 C 80.50 51.92 81.33 52.70 82.14 53.50 C 84.26 55.70 85.38 58.55 86.82 61.18 C 89.85 64.51 94.46 62.32 97.96 61.15 C 100.33 60.16 104.29 59.82 103.82 56.33 C 98.31 55.75 93.60 59.72 88.04 59.05 C 87.61 57.45 86.79 55.86 86.99 54.17 C 88.50 52.44 90.89 52.23 93.00 51.84 L 92.98 52.98 C 92.18 52.99 90.59 53.00 89.80 53.01 C 89.85 56.77 94.38 55.53 96.49 54.33 C 99.07 53.76 101.42 52.35 104.03 51.99 C 106.10 52.74 106.87 55.38 107.03 57.41 C 106.68 58.02 105.97 59.22 105.61 59.83 C 103.50 60.18 101.46 60.85 99.54 61.78 C 99.03 61.89 98.01 62.12 97.51 62.23 C 96.51 62.61 95.52 62.99 94.52 63.36 C 92.25 64.37 89.44 64.48 87.32 63.07 L 86.53 64.05 L 85.82 63.69 C 85.41 62.27 85.15 60.82 84.87 59.37 C 84.58 58.97 84.00 58.18 83.71 57.78 C 81.95 55.23 80.07 52.43 76.87 51.65 C 75.34 51.01 73.60 51.02 72.04 51.52 C 71.42 51.68 70.19 52.01 69.57 52.17 L 68.72 51.21 C 69.40 51.12 70.76 50.95 71.44 50.86 M 88.86 55.69 C 88.97 56.24 89.20 57.34 89.31 57.89 C 91.78 58.01 94.45 57.72 96.35 55.97 C 94.89 56.15 93.47 56.52 92.10 57.06 C 91.02 56.60 89.94 56.15 88.86 55.69 C 90.62 52.76 85.58 55.39 88.86 55.69 M 100.29 54.12 C 100.41 57.41 103.33 52.63 100.29 54.12 M 105.10 56.01 C 105.56 56.68 105.56 56.68 105.10 56.01 C 106.39 52.90 101.85 55.56 105.10 56.01 M 97.26 55.13 C 97.32 58.44 100.29 53.67 97.26 55.13 Z" />
<path fill="#2f3437" opacity="1.00" d=" M 32.47 58.51 L 32.80 58.31 L 32.56 58.59 L 32.31 58.84 L 32.47 58.51 Z" />
<path fill="#2f3437" opacity="1.00" d=" M 68.60 61.27 C 69.04 59.29 70.72 57.48 72.90 57.90 C 71.99 59.54 70.39 60.73 68.60 61.27 Z" />
<path fill="#2f3437" opacity="1.00" d=" M 75.55 57.97 L 76.77 58.14 C 77.92 59.24 78.99 60.41 79.98 61.65 C 79.81 62.13 79.47 63.09 79.30 63.56 C 79.28 61.02 77.48 59.31 75.55 57.97 Z" />
<path fill="#2f3437" opacity="1.00" d=" M 40.64 64.37 C 39.26 61.66 41.96 61.25 43.94 60.76 L 44.77 61.19 C 44.63 63.37 45.74 66.30 43.66 67.83 C 41.21 67.63 38.69 66.33 36.38 67.87 C 36.91 67.46 37.97 66.66 38.50 66.25 C 38.70 64.90 38.87 63.54 39.02 62.17 C 39.42 62.72 40.23 63.82 40.64 64.37 Z" />
<path fill="#2f3437" opacity="1.00" d=" M 34.09 62.25 C 37.32 62.47 32.54 65.36 34.09 62.25 Z" />
<path fill="#2f3437" opacity="1.00" d=" M 68.64 65.21 C 67.59 64.29 67.50 62.58 68.81 61.84 C 68.77 62.69 68.68 64.37 68.64 65.21 Z" />
<path fill="#2f3437" opacity="1.00" d=" M 73.22 63.12 C 76.30 61.54 73.54 66.33 73.22 63.12 Z" />
<path fill="#2f3437" opacity="1.00" d=" M 85.36 71.12 C 83.07 69.04 85.30 66.06 85.82 63.69 C 85.95 65.44 86.42 67.46 84.94 68.81 C 85.93 69.62 86.89 70.49 87.98 71.18 C 89.14 70.55 90.07 69.59 91.05 68.73 C 90.64 70.23 91.92 72.85 89.78 73.40 L 90.25 71.44 C 88.05 73.17 86.03 75.16 84.50 77.52 C 85.86 77.12 87.03 76.41 88.01 75.39 C 88.25 77.62 85.96 77.92 84.56 78.92 C 83.86 78.95 82.47 79.03 81.78 79.07 C 82.53 77.86 83.28 76.65 84.06 75.47 C 83.21 74.60 82.40 73.68 81.46 72.92 L 80.55 72.34 C 82.00 71.21 83.49 69.74 85.36 71.12 M 83.36 72.21 C 82.66 74.14 86.39 74.60 86.82 72.81 C 86.50 71.42 84.30 71.51 83.36 72.21 Z" />
<path fill="#2f3437" opacity="1.00" d=" M 68.84 65.64 C 70.55 67.40 72.44 69.26 75.08 69.26 C 72.41 69.99 69.57 68.30 68.84 65.64 Z" />
<path fill="#2f3437" opacity="1.00" d=" M 34.04 68.18 C 34.49 68.15 35.39 68.10 35.83 68.08 C 35.60 68.42 35.14 69.10 34.91 69.44 C 34.69 69.13 34.26 68.49 34.04 68.18 Z" />
<path fill="#2f3437" opacity="1.00" d=" M 76.37 68.63 C 76.42 68.59 76.51 68.52 76.55 68.49 L 76.46 68.58 L 76.37 68.63 Z" />
<path fill="#2f3437" opacity="1.00" d=" M 59.21 76.31 C 60.16 75.03 61.46 74.11 63.06 73.84 C 62.80 74.51 62.29 75.85 62.04 76.53 L 61.86 77.94 C 61.44 77.76 60.60 77.42 60.18 77.25 C 60.79 78.93 61.12 80.67 61.18 82.47 C 60.65 81.81 59.59 80.50 59.06 79.85 C 59.55 81.69 59.94 83.55 60.29 85.43 C 59.63 85.05 58.30 84.29 57.63 83.90 C 58.46 86.59 59.90 89.09 62.67 90.12 C 63.06 89.06 63.48 88.02 63.94 86.99 C 63.80 88.44 64.39 90.10 63.47 91.38 C 61.08 92.87 58.17 91.72 55.86 90.66 C 56.49 85.78 58.21 81.12 59.21 76.31 M 57.38 88.05 C 57.70 88.37 57.70 88.37 57.38 88.05 M 59.26 90.13 C 59.48 93.45 62.20 88.52 59.26 90.13 Z" />
<path fill="#2f3437" opacity="1.00" d=" M 89.12 74.63 C 89.21 74.57 89.41 74.45 89.50 74.39 C 89.41 74.45 89.21 74.57 89.12 74.63 Z" />
<path fill="#2f3437" opacity="1.00" d=" M 70.27 80.29 C 70.38 79.34 70.71 78.47 71.26 77.68 L 71.75 77.90 C 72.14 79.63 72.05 81.43 71.57 83.13 C 71.01 82.24 70.58 81.30 70.27 80.29 Z" />
<path fill="#2f3437" opacity="1.00" d=" M 70.39 91.79 C 68.26 90.08 69.43 87.61 69.96 85.57 C 70.21 85.87 70.71 86.46 70.96 86.75 C 70.78 87.44 70.41 88.83 70.23 89.52 C 71.48 89.88 72.73 90.23 73.98 90.58 C 73.66 91.53 73.31 92.46 72.97 93.40 C 71.34 93.26 69.70 93.16 68.07 93.10 C 68.06 92.48 68.05 91.22 68.05 90.60 C 68.78 91.08 69.55 91.50 70.39 91.79 Z" />
<path fill="#2f3437" opacity="1.00" d=" M 69.34 93.93 C 69.68 93.93 70.34 93.92 70.67 93.92 L 70.88 94.60 L 70.02 95.09 L 69.15 94.61 L 69.34 93.93 Z" />
</g>
<g id="#a2a5a5ff">
<path fill="#a2a5a5" opacity="1.00" d=" M 73.49 22.79 C 74.77 24.16 76.08 25.51 77.56 26.66 C 76.79 27.69 75.82 28.40 74.66 28.80 C 74.38 28.89 73.82 29.05 73.55 29.13 C 72.71 28.33 71.87 27.54 71.03 26.75 C 71.97 25.51 72.74 24.15 73.49 22.79 Z" />
<path fill="#a2a5a5" opacity="1.00" d=" M 43.14 27.66 C 45.52 30.82 46.68 34.96 45.95 38.88 C 45.18 42.04 43.28 45.93 39.39 45.13 C 37.70 41.31 36.15 37.40 35.47 33.26 C 35.57 32.82 35.78 31.94 35.89 31.51 C 38.59 34.53 37.77 40.21 42.20 41.48 C 41.04 39.38 40.03 37.20 39.21 34.94 C 39.70 34.90 40.68 34.81 41.17 34.77 C 41.76 36.55 42.37 38.32 43.02 40.08 C 45.47 36.44 42.52 32.72 41.65 29.12 C 42.02 28.75 42.77 28.02 43.14 27.66 Z" />
<path fill="#a2a5a5" opacity="1.00" d=" M 73.54 41.33 C 75.66 38.94 77.67 36.45 79.62 33.92 C 80.93 35.26 82.24 36.58 83.57 37.89 C 81.15 39.29 79.96 41.82 78.36 43.97 C 74.99 45.20 70.62 46.08 67.73 43.33 C 65.68 41.11 63.33 37.99 64.40 34.80 C 65.96 35.06 67.52 35.33 69.11 35.36 C 69.13 36.52 69.15 37.67 69.16 38.82 C 70.46 39.92 71.92 40.80 73.54 41.33 Z" />
<path fill="#a2a5a5" opacity="1.00" d=" M 90.28 46.32 C 90.74 46.77 90.74 46.77 90.28 46.32 Z" />
<path fill="#a2a5a5" opacity="1.00" d=" M 21.22 48.33 C 23.29 47.95 26.59 47.29 28.08 48.98 C 26.00 49.10 22.65 49.90 21.22 48.33 Z" />
<path fill="#a2a5a5" opacity="1.00" d=" M 19.04 49.11 C 21.43 50.27 24.13 49.90 26.68 50.32 C 28.83 50.98 30.28 52.86 31.97 54.24 C 31.48 55.16 30.90 56.01 30.20 56.77 L 29.43 57.44 C 28.85 56.37 28.27 55.30 27.69 54.23 C 24.84 53.73 22.02 52.78 19.09 53.14 C 19.08 51.79 19.06 50.45 19.04 49.11 Z" />
<path fill="#a2a5a5" opacity="1.00" d=" M 28.08 48.98 C 28.51 49.04 29.35 49.17 29.78 49.23 L 29.94 49.99 C 29.52 49.93 28.67 49.80 28.24 49.74 L 28.08 48.98 Z" />
<path fill="#a2a5a5" opacity="1.00" d=" M 45.15 54.39 C 48.06 52.56 45.44 57.73 45.15 54.39 Z" />
<path fill="#a2a5a5" opacity="1.00" d=" M 48.88 54.91 C 51.42 55.69 54.04 56.15 56.69 56.39 C 56.81 56.67 57.06 57.23 57.18 57.52 C 58.40 57.99 59.62 58.46 60.84 58.93 C 56.91 59.41 52.59 59.29 49.41 56.59 C 49.28 56.17 49.01 55.33 48.88 54.91 Z" />
<path fill="#a2a5a5" opacity="1.00" d=" M 97.26 55.13 C 100.29 53.67 97.32 58.44 97.26 55.13 Z" />
<path fill="#a2a5a5" opacity="1.00" d=" M 88.86 55.69 C 89.94 56.15 91.02 56.60 92.10 57.06 C 93.47 56.52 94.89 56.15 96.35 55.97 C 94.45 57.72 91.78 58.01 89.31 57.89 C 89.20 57.34 88.97 56.24 88.86 55.69 Z" />
<path fill="#a2a5a5" opacity="1.00" d=" M 14.88 57.12 C 18.86 56.58 22.65 58.20 26.61 58.27 L 27.43 58.89 C 23.15 59.50 18.91 58.45 14.88 57.12 Z" />
<path fill="#a2a5a5" opacity="1.00" d=" M 30.70 66.79 L 31.94 66.84 C 32.46 67.18 33.52 67.84 34.04 68.18 C 34.26 68.49 34.69 69.13 34.91 69.44 C 38.95 72.72 44.90 71.67 49.06 69.16 C 49.39 69.59 50.04 70.46 50.36 70.89 C 50.05 71.18 49.42 71.75 49.10 72.04 C 47.41 72.49 45.65 72.39 43.94 72.07 C 42.88 72.61 41.82 73.15 40.76 73.71 C 36.60 72.89 32.85 70.50 30.70 66.79 Z" />
<path fill="#a2a5a5" opacity="1.00" d=" M 83.36 72.21 C 84.30 71.51 86.50 71.42 86.82 72.81 C 86.39 74.60 82.66 74.14 83.36 72.21 Z" />
<path fill="#a2a5a5" opacity="1.00" d=" M 45.71 74.72 C 47.17 73.23 47.78 75.83 47.82 76.93 C 48.33 80.60 46.23 83.86 45.39 87.31 C 44.65 86.80 43.16 85.78 42.42 85.27 C 43.73 81.82 44.49 78.19 45.71 74.72 Z" />
<path fill="#a2a5a5" opacity="1.00" d=" M 73.50 75.85 C 77.90 79.75 75.16 85.87 73.98 90.58 C 72.73 90.23 71.48 89.88 70.23 89.52 C 70.41 88.83 70.78 87.44 70.96 86.75 C 70.94 84.56 70.50 82.41 69.95 80.31 L 70.27 80.29 C 70.58 81.30 71.01 82.24 71.57 83.13 C 72.05 81.43 72.14 79.63 71.75 77.90 C 72.18 77.39 73.06 76.36 73.50 75.85 Z" />
</g>
<g id="#757878ff">
<path fill="#757878" opacity="1.00" d=" M 43.77 23.81 C 44.28 23.92 45.29 24.15 45.80 24.26 C 47.28 27.83 48.93 31.37 50.04 35.08 C 50.83 37.22 48.31 38.04 46.94 38.92 C 46.80 35.73 46.95 32.36 45.38 29.46 C 44.46 27.70 43.92 25.79 43.77 23.81 Z" />
<path fill="#757878" opacity="1.00" d=" M 41.44 25.20 C 42.88 24.10 43.74 26.63 43.14 27.66 C 42.77 28.02 42.02 28.75 41.65 29.12 C 41.11 27.92 40.33 26.33 41.44 25.20 Z" />
<path fill="#757878" opacity="1.00" d=" M 73.55 29.13 C 73.82 29.05 74.38 28.89 74.66 28.80 C 75.29 29.85 74.15 32.45 72.80 31.66 C 72.98 31.03 73.36 29.76 73.55 29.13 Z" />
<path fill="#757878" opacity="1.00" d=" M 51.47 30.39 C 54.74 30.16 58.02 30.21 61.30 30.08 L 61.35 31.22 C 57.71 30.85 54.05 30.95 50.41 31.12 L 51.47 30.39 Z" />
<path fill="#757878" opacity="1.00" d=" M 50.92 42.89 C 51.52 41.64 54.03 41.19 54.03 43.04 C 53.25 43.01 51.70 42.93 50.92 42.89 Z" />
<path fill="#757878" opacity="1.00" d=" M 55.06 42.99 C 57.19 42.75 58.57 45.02 58.08 46.93 L 57.65 47.07 C 56.64 45.81 55.64 44.51 55.06 42.99 Z" />
<path fill="#757878" opacity="1.00" d=" M 47.64 50.12 C 46.59 48.95 46.17 46.86 47.82 45.99 C 48.34 47.37 48.28 48.75 47.64 50.12 Z" />
<path fill="#757878" opacity="1.00" d=" M 95.18 46.22 C 97.28 45.16 98.06 47.74 97.98 49.35 C 97.00 49.93 96.02 50.53 95.06 51.15 L 94.33 51.63 C 93.99 51.68 93.33 51.79 93.00 51.84 C 90.89 52.23 88.50 52.44 86.99 54.17 C 86.79 55.86 87.61 57.45 88.04 59.05 C 93.60 59.72 98.31 55.75 103.82 56.33 C 104.29 59.82 100.33 60.16 97.96 61.15 C 94.46 62.32 89.85 64.51 86.82 61.18 C 85.38 58.55 84.26 55.70 82.14 53.50 L 81.77 52.54 C 81.99 52.21 82.42 51.55 82.64 51.22 C 86.55 48.96 90.94 47.69 95.18 46.22 Z" />
<path fill="#757878" opacity="1.00" d=" M 29.94 49.99 C 31.40 49.85 32.12 50.49 32.10 51.92 C 30.75 51.99 30.03 51.35 29.94 49.99 Z" />
<path fill="#757878" opacity="1.00" d=" M 32.10 51.92 C 32.62 52.59 32.62 52.59 32.10 51.92 Z" />
<path fill="#757878" opacity="1.00" d=" M 88.86 55.69 C 85.58 55.39 90.62 52.76 88.86 55.69 Z" />
<path fill="#757878" opacity="1.00" d=" M 100.29 54.12 C 103.33 52.63 100.41 57.41 100.29 54.12 Z" />
<path fill="#757878" opacity="1.00" d=" M 105.10 56.01 C 101.85 55.56 106.39 52.90 105.10 56.01 Z" />
<path fill="#757878" opacity="1.00" d=" M 105.10 56.01 C 105.56 56.68 105.56 56.68 105.10 56.01 Z" />
<path fill="#757878" opacity="1.00" d=" M 29.43 57.44 L 30.20 56.77 C 29.32 59.15 28.91 61.65 28.90 64.19 C 23.99 63.58 18.93 63.34 14.20 61.86 C 14.19 61.13 14.18 59.67 14.17 58.94 C 18.61 59.44 23.05 60.06 27.53 59.79 C 27.98 58.86 28.62 58.07 29.43 57.44 Z" />
<path fill="#757878" opacity="1.00" d=" M 33.47 57.87 C 34.23 56.43 36.17 56.50 36.79 58.01 C 35.96 57.97 34.30 57.90 33.47 57.87 Z" />
<path fill="#757878" opacity="1.00" d=" M 37.92 59.11 C 38.21 59.62 38.80 60.62 39.10 61.12 L 38.28 60.91 C 38.19 60.46 38.01 59.56 37.92 59.11 Z" />
<path fill="#757878" opacity="1.00" d=" M 79.17 64.07 C 80.54 64.75 80.52 65.39 79.09 65.98 C 79.11 65.50 79.15 64.55 79.17 64.07 Z" />
<path fill="#757878" opacity="1.00" d=" M 67.20 76.69 C 68.57 76.92 69.99 77.05 71.26 77.68 C 70.71 78.47 70.38 79.34 70.27 80.29 L 69.95 80.31 L 69.67 79.36 C 68.31 79.12 66.96 78.91 65.60 78.73 C 66.00 78.22 66.80 77.20 67.20 76.69 Z" />
<path fill="#757878" opacity="1.00" d=" M 34.17 86.97 L 34.84 86.93 C 34.85 88.18 34.96 90.90 33.13 90.70 C 32.44 89.38 33.50 88.04 34.17 86.97 Z" />
<path fill="#757878" opacity="1.00" d=" M 35.17 90.31 C 35.20 89.10 35.94 88.11 36.70 87.24 L 37.08 88.02 C 37.08 88.80 37.07 90.37 37.06 91.16 C 36.59 90.95 35.65 90.52 35.17 90.31 Z" />
<path fill="#757878" opacity="1.00" d=" M 59.26 90.13 C 62.20 88.52 59.48 93.45 59.26 90.13 Z" />
<path fill="#757878" opacity="1.00" d=" M 37.06 91.16 C 37.58 91.53 37.58 91.53 37.06 91.16 Z" />
<path fill="#757878" opacity="1.00" d=" M 41.22 91.34 C 41.68 91.83 41.68 91.83 41.22 91.34 Z" />
<path fill="#757878" opacity="1.00" d=" M 35.30 92.29 C 35.72 92.84 35.72 92.84 35.30 92.29 Z" />
</g>
<g id="#b3ced5ff">
<path fill="#b3ced5" opacity="1.00" d=" M 67.92 29.19 C 68.95 28.36 70.00 27.58 71.03 26.75 C 71.87 27.54 72.71 28.33 73.55 29.13 C 73.36 29.76 72.98 31.03 72.80 31.66 C 72.61 32.66 72.03 33.42 71.07 33.92 C 70.58 34.28 69.60 35.00 69.11 35.36 C 67.52 35.33 65.96 35.06 64.40 34.80 C 65.55 33.22 66.63 31.57 67.48 29.79 C 67.59 29.64 67.81 29.34 67.92 29.19 Z" />
<path fill="#b3ced5" opacity="1.00" d=" M 55.32 32.50 C 57.83 31.32 58.57 37.10 55.42 34.90 C 55.39 34.30 55.34 33.10 55.32 32.50 Z" />
<path fill="#b3ced5" opacity="1.00" d=" M 44.38 47.34 C 45.08 44.64 45.46 41.65 47.67 39.69 C 47.81 40.59 48.10 42.40 48.25 43.30 C 48.36 43.79 48.60 44.77 48.72 45.27 C 48.49 45.45 48.05 45.81 47.82 45.99 C 46.17 46.86 46.59 48.95 47.64 50.12 L 47.85 50.51 C 49.26 56.09 58.68 54.29 57.81 48.57 C 57.77 48.19 57.69 47.44 57.65 47.07 L 58.08 46.93 C 60.93 46.36 63.15 44.44 65.32 42.65 C 68.57 46.80 68.00 53.53 63.07 56.13 C 62.98 55.09 62.79 53.00 62.69 51.95 L 61.14 51.98 C 61.42 52.63 61.98 53.93 62.27 54.58 C 61.34 53.70 60.43 52.82 59.52 51.93 C 58.30 53.22 57.14 54.62 56.69 56.39 C 54.04 56.15 51.42 55.69 48.88 54.91 C 46.48 52.93 44.43 50.64 44.38 47.34 Z" />
<path fill="#b3ced5" opacity="1.00" d=" M 93.32 45.30 C 93.80 45.78 93.80 45.78 93.32 45.30 Z" />
<path fill="#b3ced5" opacity="1.00" d=" M 15.85 47.39 C 17.18 46.80 18.50 46.81 19.80 47.43 C 19.40 48.78 16.86 48.37 15.82 47.80 L 15.85 47.39 Z" />
<path fill="#b3ced5" opacity="1.00" d=" M 62.44 59.88 C 63.42 58.18 64.27 56.40 65.44 54.82 C 65.97 57.20 66.90 59.47 68.60 61.27 L 68.81 61.84 C 67.50 62.58 67.59 64.29 68.64 65.21 L 68.84 65.64 C 69.57 68.30 72.41 69.99 75.08 69.26 L 76.37 68.63 L 76.46 68.58 L 76.55 68.49 C 77.38 67.63 78.23 66.80 79.09 65.98 C 80.52 65.39 80.54 64.75 79.17 64.07 L 79.30 63.56 C 79.47 63.09 79.81 62.13 79.98 61.65 C 81.21 60.35 82.46 59.07 83.71 57.78 C 84.00 58.18 84.58 58.97 84.87 59.37 C 85.15 60.82 85.41 62.27 85.82 63.69 C 85.30 66.06 83.07 69.04 85.36 71.12 C 83.49 69.74 82.00 71.21 80.55 72.34 C 76.09 72.39 71.50 72.71 67.19 71.36 C 65.64 70.96 65.00 69.41 64.23 68.18 C 65.02 66.26 65.97 64.30 65.99 62.18 C 65.18 60.96 63.65 61.02 62.37 61.15 C 61.74 63.00 61.06 64.82 60.44 66.67 C 60.61 65.25 60.85 63.77 60.21 62.41 C 60.99 61.60 61.73 60.75 62.44 59.88 Z" />
<path fill="#b3ced5" opacity="1.00" d=" M 48.63 57.88 C 49.82 58.33 51.00 58.79 52.18 59.24 C 52.19 62.10 52.32 64.97 51.91 67.81 C 51.11 68.76 50.64 69.85 50.50 71.07 L 50.36 70.89 C 50.04 70.46 49.39 69.59 49.06 69.16 C 44.90 71.67 38.95 72.72 34.91 69.44 C 35.14 69.10 35.60 68.42 35.83 68.08 L 36.38 67.87 C 38.69 66.33 41.21 67.63 43.66 67.83 C 45.74 66.30 44.63 63.37 44.77 61.19 L 43.94 60.76 C 45.61 59.99 47.13 58.93 48.63 57.88 Z" />
<path fill="#b3ced5" opacity="1.00" d=" M 28.08 70.10 C 30.26 70.01 32.17 71.05 33.33 72.90 C 31.96 72.34 30.86 71.10 29.29 71.11 C 30.04 72.35 30.91 73.51 31.78 74.67 C 32.59 74.57 34.23 74.37 35.05 74.28 C 34.96 74.68 34.80 75.49 34.72 75.90 C 32.96 75.47 31.23 74.93 29.50 74.40 C 29.01 72.97 28.53 71.54 28.08 70.10 Z" />
<path fill="#b3ced5" opacity="1.00" d=" M 84.50 77.52 C 86.03 75.16 88.05 73.17 90.25 71.44 L 89.78 73.40 L 89.50 74.39 C 89.41 74.45 89.21 74.57 89.12 74.63 C 88.84 74.82 88.29 75.20 88.01 75.39 C 87.03 76.41 85.86 77.12 84.50 77.52 Z" />
<path fill="#b3ced5" opacity="1.00" d=" M 39.61 75.17 C 41.20 74.51 42.72 73.72 44.21 72.87 C 45.25 77.58 42.06 81.93 40.78 86.31 L 40.36 85.90 C 40.21 84.21 40.45 82.48 41.47 81.07 L 41.95 80.25 C 42.16 78.64 42.17 77.01 42.19 75.39 C 37.88 77.88 36.86 82.79 34.84 86.93 L 34.17 86.97 C 35.38 83.82 36.81 80.73 37.47 77.40 C 37.52 76.22 38.48 75.38 39.61 75.17 Z" />
<path fill="#b3ced5" opacity="1.00" d=" M 66.36 73.40 C 68.66 74.43 71.05 75.23 73.50 75.85 C 73.06 76.36 72.18 77.39 71.75 77.90 L 71.26 77.68 C 69.99 77.05 68.57 76.92 67.20 76.69 C 66.80 77.20 66.00 78.22 65.60 78.73 C 65.16 80.02 64.91 81.37 64.71 82.73 C 64.63 83.38 64.46 84.70 64.37 85.36 C 63.01 85.38 61.65 85.40 60.29 85.43 C 59.94 83.55 59.55 81.69 59.06 79.85 C 59.59 80.50 60.65 81.81 61.18 82.47 C 61.12 80.67 60.79 78.93 60.18 77.25 C 60.60 77.42 61.44 77.76 61.86 77.94 L 62.04 76.53 C 62.47 76.55 63.35 76.59 63.78 76.62 C 64.64 75.54 65.49 74.47 66.36 73.40 Z" />
<path fill="#b3ced5" opacity="1.00" d=" M 39.96 78.37 C 40.34 79.05 41.09 80.40 41.47 81.07 C 38.40 81.88 38.76 85.81 37.08 88.02 L 36.70 87.24 C 37.45 84.17 38.66 81.24 39.96 78.37 Z" />
</g>
<g id="#669eb1ff">
<path fill="#669eb1" opacity="1.00" d=" M 82.43 30.75 C 84.62 32.26 85.75 34.94 83.89 37.25 L 83.57 37.89 C 82.24 36.58 80.93 35.26 79.62 33.92 C 80.53 32.84 81.48 31.80 82.43 30.75 Z" />
<path fill="#669eb1" opacity="1.00" d=" M 38.22 31.90 C 39.95 31.65 41.07 33.20 41.17 34.77 C 40.68 34.81 39.70 34.90 39.21 34.94 C 38.65 34.01 38.31 32.99 38.22 31.90 Z" />
<path fill="#669eb1" opacity="1.00" d=" M 95.22 44.15 C 98.17 42.52 95.49 47.44 95.22 44.15 Z" />
<path fill="#669eb1" opacity="1.00" d=" M 99.02 46.01 C 95.82 45.41 100.47 42.92 99.02 46.01 Z" />
<path fill="#669eb1" opacity="1.00" d=" M 99.02 46.01 C 102.24 46.53 97.65 49.13 99.02 46.01 Z" />
<path fill="#669eb1" opacity="1.00" d=" M 14.03 48.85 C 15.70 48.91 17.37 48.99 19.04 49.11 C 19.06 50.45 19.08 51.79 19.09 53.14 C 17.38 52.94 15.71 52.49 14.14 51.78 C 14.11 51.05 14.05 49.58 14.03 48.85 Z" />
<path fill="#669eb1" opacity="1.00" d=" M 62.37 61.15 C 63.65 61.02 65.18 60.96 65.99 62.18 C 65.97 64.30 65.02 66.26 64.23 68.18 C 65.00 69.41 65.64 70.96 67.19 71.36 C 71.50 72.71 76.09 72.39 80.55 72.34 L 81.46 72.92 C 79.60 75.33 75.65 73.61 74.26 76.17 L 75.54 76.26 C 78.89 82.57 74.34 89.12 73.71 95.48 C 72.00 96.75 69.99 96.93 68.47 95.27 C 67.77 95.01 66.38 94.50 65.68 94.25 C 66.11 93.96 66.97 93.38 67.40 93.09 C 67.45 91.43 67.09 89.57 68.34 88.23 C 68.02 85.71 70.24 83.56 69.23 81.06 C 68.14 80.46 67.04 79.88 65.93 79.30 C 65.89 80.23 65.82 82.07 65.78 83.00 L 64.71 82.73 C 64.91 81.37 65.16 80.02 65.60 78.73 C 66.96 78.91 68.31 79.12 69.67 79.36 L 69.95 80.31 C 70.50 82.41 70.94 84.56 70.96 86.75 C 70.71 86.46 70.21 85.87 69.96 85.57 C 69.43 87.61 68.26 90.08 70.39 91.79 C 69.55 91.50 68.78 91.08 68.05 90.60 C 68.05 91.22 68.06 92.48 68.07 93.10 C 69.70 93.16 71.34 93.26 72.97 93.40 C 73.31 92.46 73.66 91.53 73.98 90.58 C 75.16 85.87 77.90 79.75 73.50 75.85 C 71.05 75.23 68.66 74.43 66.36 73.40 C 65.89 73.31 64.95 73.12 64.49 73.02 C 64.47 72.24 64.45 70.69 64.44 69.92 C 62.74 68.79 61.05 67.66 59.26 66.69 C 59.35 65.22 59.30 63.67 60.21 62.41 C 60.85 63.77 60.61 65.25 60.44 66.67 C 61.06 64.82 61.74 63.00 62.37 61.15 M 69.34 93.93 L 69.15 94.61 L 70.02 95.09 L 70.88 94.60 L 70.67 93.92 C 70.34 93.92 69.68 93.93 69.34 93.93 Z" />
<path fill="#669eb1" opacity="1.00" d=" M 57.63 83.90 C 58.30 84.29 59.63 85.05 60.29 85.43 C 61.65 85.40 63.01 85.38 64.37 85.36 L 65.22 85.98 L 63.94 86.99 C 63.48 88.02 63.06 89.06 62.67 90.12 C 59.90 89.09 58.46 86.59 57.63 83.90 Z" />
<path fill="#669eb1" opacity="1.00" d=" M 40.36 85.90 L 40.78 86.31 C 40.78 87.91 40.31 89.82 38.46 90.13 C 38.27 88.50 38.80 86.68 40.36 85.90 Z" />
<path fill="#669eb1" opacity="1.00" d=" M 40.86 89.73 C 41.37 88.24 41.89 86.75 42.42 85.27 C 43.16 85.78 44.65 86.80 45.39 87.31 C 45.02 88.59 44.60 89.84 44.13 91.08 C 43.04 90.63 41.95 90.18 40.86 89.73 Z" />
<path fill="#669eb1" opacity="1.00" d=" M 57.38 88.05 C 57.70 88.37 57.70 88.37 57.38 88.05 Z" />
</g>
<g id="#c6e8f2ff">
<path fill="#c6e8f2" opacity="1.00" d=" M 53.56 36.04 C 55.52 36.01 57.52 35.95 59.43 36.52 C 56.82 36.55 51.75 36.75 53.23 40.69 C 55.51 42.54 58.46 41.39 60.66 40.06 C 60.48 38.94 60.30 37.82 60.13 36.71 C 62.31 38.25 63.90 40.42 65.32 42.65 C 63.15 44.44 60.93 46.36 58.08 46.93 C 58.57 45.02 57.19 42.75 55.06 42.99 L 54.03 43.04 C 54.03 41.19 51.52 41.64 50.92 42.89 L 49.91 42.95 C 49.49 43.04 48.66 43.21 48.25 43.30 C 48.10 42.40 47.81 40.59 47.67 39.69 C 49.41 38.15 51.60 37.26 53.56 36.04 Z" />
<path fill="#c6e8f2" opacity="1.00" d=" M 35.43 52.77 C 38.16 51.14 42.01 49.94 44.83 51.99 C 44.14 52.03 42.77 52.12 42.08 52.16 C 40.18 52.03 37.63 52.51 37.32 54.78 C 38.34 55.91 39.64 56.75 40.92 57.57 C 42.17 57.77 43.43 57.91 44.69 58.07 C 45.10 57.49 45.91 56.32 46.32 55.73 C 47.09 56.45 47.86 57.16 48.63 57.88 C 47.13 58.93 45.61 59.99 43.94 60.76 C 41.96 61.25 39.26 61.66 40.64 64.37 C 40.23 63.82 39.42 62.72 39.02 62.17 C 39.04 61.91 39.08 61.38 39.10 61.12 C 38.80 60.62 38.21 59.62 37.92 59.11 C 37.64 58.84 37.07 58.28 36.79 58.01 C 36.17 56.50 34.23 56.43 33.47 57.87 L 32.80 58.31 L 32.47 58.51 L 32.31 58.84 C 30.63 61.26 31.00 64.24 31.94 66.84 L 30.70 66.79 C 30.03 64.46 30.13 62.03 30.13 59.63 C 31.49 57.10 32.57 54.01 35.43 52.77 Z" />
<path fill="#c6e8f2" opacity="1.00" d=" M 69.57 52.17 C 70.19 52.01 71.42 51.68 72.04 51.52 C 71.56 52.84 69.48 54.58 71.16 55.79 C 73.28 58.03 76.63 56.61 78.99 55.53 C 78.29 54.23 77.60 52.92 76.87 51.65 C 80.07 52.43 81.95 55.23 83.71 57.78 C 82.46 59.07 81.21 60.35 79.98 61.65 C 78.99 60.41 77.92 59.24 76.77 58.14 L 75.55 57.97 C 74.89 57.95 73.56 57.91 72.90 57.90 C 70.72 57.48 69.04 59.29 68.60 61.27 C 66.90 59.47 65.97 57.20 65.44 54.82 C 66.36 54.09 67.31 53.40 68.28 52.73 C 68.61 52.59 69.25 52.31 69.57 52.17 Z" />
</g>
<g id="#ffffffff">
<path fill="#ffffff" opacity="1.00" d=" M 53.23 40.69 C 51.75 36.75 56.82 36.55 59.43 36.52 L 60.13 36.71 C 60.30 37.82 60.48 38.94 60.66 40.06 C 58.46 41.39 55.51 42.54 53.23 40.69 Z" />
<path fill="#ffffff" opacity="1.00" d=" M 49.91 42.95 L 50.92 42.89 C 51.70 42.93 53.25 43.01 54.03 43.04 L 55.06 42.99 C 55.64 44.51 56.64 45.81 57.65 47.07 C 57.69 47.44 57.77 48.19 57.81 48.57 C 57.10 52.15 53.79 53.86 50.37 53.02 C 49.54 52.17 48.70 51.33 47.85 50.51 L 47.64 50.12 C 48.28 48.75 48.34 47.37 47.82 45.99 C 48.05 45.81 48.49 45.45 48.72 45.27 C 49.02 44.69 49.61 43.53 49.91 42.95 M 52.08 47.26 C 50.59 50.40 55.31 47.42 52.08 47.26 Z" />
<path fill="#ffffff" opacity="1.00" d=" M 37.32 54.78 C 37.63 52.51 40.18 52.03 42.08 52.16 C 41.19 53.83 41.12 55.73 40.92 57.57 C 39.64 56.75 38.34 55.91 37.32 54.78 Z" />
<path fill="#ffffff" opacity="1.00" d=" M 72.04 51.52 C 73.60 51.02 75.34 51.01 76.87 51.65 C 77.60 52.92 78.29 54.23 78.99 55.53 C 76.63 56.61 73.28 58.03 71.16 55.79 C 69.48 54.58 71.56 52.84 72.04 51.52 Z" />
<path fill="#ffffff" opacity="1.00" d=" M 32.80 58.31 L 33.47 57.87 C 34.30 57.90 35.96 57.97 36.79 58.01 C 37.07 58.28 37.64 58.84 37.92 59.11 C 38.01 59.56 38.19 60.46 38.28 60.91 L 39.10 61.12 C 39.08 61.38 39.04 61.91 39.02 62.17 C 38.87 63.54 38.70 64.90 38.50 66.25 C 37.97 66.66 36.91 67.46 36.38 67.87 L 35.83 68.08 C 35.39 68.10 34.49 68.15 34.04 68.18 C 33.52 67.84 32.46 67.18 31.94 66.84 C 31.00 64.24 30.63 61.26 32.31 58.84 L 32.56 58.59 L 32.80 58.31 M 34.09 62.25 C 32.54 65.36 37.32 62.47 34.09 62.25 Z" />
<path fill="#ffffff" opacity="1.00" d=" M 72.90 57.90 C 73.56 57.91 74.89 57.95 75.55 57.97 C 77.48 59.31 79.28 61.02 79.30 63.56 L 79.17 64.07 C 79.15 64.55 79.11 65.50 79.09 65.98 C 78.23 66.80 77.38 67.63 76.55 68.49 C 76.51 68.52 76.42 68.59 76.37 68.63 L 75.08 69.26 C 72.44 69.26 70.55 67.40 68.84 65.64 L 68.64 65.21 C 68.68 64.37 68.77 62.69 68.81 61.84 L 68.60 61.27 C 70.39 60.73 71.99 59.54 72.90 57.90 M 73.22 63.12 C 73.54 66.33 76.30 61.54 73.22 63.12 Z" />
<path fill="#ffffff" opacity="1.00" d=" M 64.49 73.02 C 64.95 73.12 65.89 73.31 66.36 73.40 C 65.49 74.47 64.64 75.54 63.78 76.62 C 63.35 76.59 62.47 76.55 62.04 76.53 C 62.29 75.85 62.80 74.51 63.06 73.84 C 63.41 73.64 64.13 73.23 64.49 73.02 Z" />
</g>
</svg>
