<?xml version="1.0" encoding="UTF-8" ?>
<!DOCTYPE svg PUBLIC "-//W3C//DTD SVG 1.1//EN" "http://www.w3.org/Graphics/SVG/1.1/DTD/svg11.dtd">
<svg width="120pt" height="120pt" viewBox="0 0 120 120" version="1.1" xmlns="http://www.w3.org/2000/svg">
<g id="#f6e4d5ff">
<path fill="#f6e4d5" opacity="1.00" d=" M 73.21 26.16 C 73.84 23.87 76.42 24.79 78.17 24.49 C 81.36 28.20 80.43 33.13 80.59 37.64 C 80.70 41.04 79.12 44.13 78.10 47.29 C 77.32 48.10 75.35 48.94 75.21 47.21 C 76.52 40.38 78.47 33.54 77.46 26.52 C 76.47 27.47 75.50 28.43 74.50 29.36 C 74.49 31.45 74.51 33.53 74.59 35.62 C 73.83 35.58 72.31 35.50 71.55 35.46 C 71.72 32.29 71.08 28.83 73.21 26.16 Z" />
<path fill="#f6e4d5" opacity="1.00" d=" M 34.45 34.61 C 36.38 34.19 38.31 33.72 40.25 33.36 C 41.25 37.72 42.01 42.17 41.36 46.66 C 44.03 47.44 46.67 48.36 49.38 49.01 C 49.75 48.07 50.13 47.14 50.52 46.22 C 49.43 44.67 48.35 43.12 47.39 41.49 C 49.76 41.94 52.12 42.56 54.25 43.72 C 55.14 42.60 56.11 41.55 57.07 40.48 C 59.68 40.59 62.28 40.48 64.89 40.39 C 67.41 41.56 69.99 42.57 72.57 43.60 C 72.53 45.23 72.55 46.85 72.62 48.48 C 75.79 49.35 78.63 47.17 81.80 47.63 C 81.67 45.50 81.61 43.37 81.49 41.24 C 82.51 41.40 84.55 41.74 85.57 41.91 C 85.81 44.74 85.11 47.45 84.24 50.12 C 81.15 51.22 78.06 52.36 75.19 53.97 C 76.80 56.11 77.92 58.49 77.69 61.24 C 76.21 61.92 74.74 62.62 73.29 63.35 C 72.73 66.70 74.78 69.70 74.57 73.00 C 74.56 75.06 74.47 77.12 74.40 79.18 C 76.35 81.04 78.78 81.97 81.48 81.85 C 81.43 83.15 81.37 84.45 81.26 85.74 C 79.42 84.94 77.60 84.11 75.80 83.22 C 74.50 84.13 73.19 85.03 71.83 85.86 C 71.74 84.30 71.67 82.74 71.65 81.18 C 70.84 81.29 69.22 81.52 68.42 81.63 C 68.46 81.11 68.53 80.07 68.57 79.55 C 69.65 79.24 70.72 78.92 71.79 78.59 C 72.05 75.05 71.38 71.63 68.54 69.26 C 66.68 69.27 64.82 69.44 62.97 69.49 C 60.60 69.76 58.51 68.00 56.13 68.54 C 53.89 69.22 51.73 70.13 49.52 70.88 C 49.51 73.16 49.47 75.44 49.37 77.72 C 50.96 77.67 52.56 77.64 54.15 77.63 C 54.35 78.61 54.55 79.59 54.75 80.57 C 53.16 80.47 51.57 80.40 49.99 80.34 C 48.60 82.23 47.17 84.16 45.24 85.53 C 43.14 84.99 41.05 84.40 38.90 84.11 C 41.06 81.84 44.37 81.35 46.69 79.25 C 46.76 76.19 46.73 73.10 45.64 70.20 C 46.87 67.95 48.46 65.91 50.02 63.88 C 49.15 62.58 48.14 61.37 47.37 60.01 C 47.31 57.62 47.52 55.24 47.63 52.85 C 44.55 51.99 41.74 50.44 38.81 49.21 C 38.26 47.20 37.02 45.19 37.71 43.06 C 38.58 40.20 38.43 37.14 37.54 34.29 C 37.45 36.01 37.52 37.74 37.59 39.46 C 36.78 39.50 35.16 39.59 34.35 39.64 C 34.42 37.96 34.45 36.29 34.45 34.61 Z" />
<path fill="#f6e4d5" opacity="1.00" d=" M 80.65 40.22 C 81.13 38.22 81.58 36.22 82.34 34.31 C 83.74 34.78 85.15 35.25 86.56 35.71 C 86.51 37.81 86.51 39.91 86.48 42.00 C 83.07 41.51 84.00 37.84 83.33 35.39 C 83.16 37.27 83.34 39.16 83.44 41.04 C 82.75 40.83 81.35 40.42 80.65 40.22 Z" />
<path fill="#f6e4d5" opacity="1.00" d=" M 33.29 36.27 C 33.95 36.93 33.95 36.93 33.29 36.27 Z" />
<path fill="#f6e4d5" opacity="1.00" d=" M 32.76 38.20 C 36.17 38.53 31.11 41.15 32.76 38.20 Z" />
<path fill="#f6e4d5" opacity="1.00" d=" M 71.29 42.30 L 71.93 42.30 L 71.93 42.94 L 71.30 42.94 L 71.29 42.30 Z" />
<path fill="#f6e4d5" opacity="1.00" d=" M 73.17 94.17 C 74.79 93.65 75.35 94.20 74.83 95.83 C 73.21 96.35 72.65 95.80 73.17 94.17 Z" />
</g>
</svg>
