<?xml version="1.0" encoding="UTF-8" ?>
<!DOCTYPE svg PUBLIC "-//W3C//DTD SVG 1.1//EN" "http://www.w3.org/Graphics/SVG/1.1/DTD/svg11.dtd">
<svg width="120pt" height="120pt" viewBox="0 0 120 120" version="1.1" xmlns="http://www.w3.org/2000/svg">
<g id="#3a3a36ff">
<path fill="#3a3a36" opacity="1.00" d=" M 56.77 23.70 C 58.61 23.90 59.25 25.70 60.35 26.87 C 62.34 27.19 64.35 27.10 66.35 27.23 C 71.04 30.18 74.59 24.05 79.12 23.73 C 79.05 26.07 78.54 28.34 77.67 30.51 C 77.29 31.80 76.99 33.12 76.67 34.43 C 76.18 35.75 76.04 37.15 75.89 38.54 C 77.74 40.83 79.69 43.28 78.99 46.44 C 78.66 47.08 77.98 48.36 77.64 49.00 C 76.42 49.00 75.21 49.00 74.00 49.00 C 74.02 49.46 74.04 50.40 74.06 50.86 L 73.38 50.71 C 72.54 50.54 70.87 50.19 70.04 50.01 C 72.55 48.56 75.79 48.52 78.06 46.73 C 79.34 44.06 76.72 42.14 75.12 40.44 C 74.88 34.91 77.28 29.83 78.44 24.54 C 76.45 25.53 74.54 26.67 72.60 27.75 C 72.07 28.10 71.00 28.81 70.46 29.16 C 67.13 28.90 63.78 27.52 60.44 28.43 C 57.58 28.95 55.07 30.46 52.50 31.71 C 52.15 31.89 51.46 32.24 51.11 32.42 L 51.04 31.51 C 53.37 30.70 54.86 28.77 55.87 26.59 L 56.05 27.52 C 56.11 27.84 56.24 28.50 56.30 28.83 C 57.14 28.52 57.97 28.18 58.78 27.79 C 58.41 26.83 57.94 25.92 57.46 25.02 L 56.77 23.70 Z" />
<path fill="#3a3a36" opacity="1.00" d=" M 49.15 33.31 L 49.96 33.13 C 49.97 33.52 50.00 34.32 50.01 34.71 L 49.34 35.03 C 49.29 34.60 49.20 33.74 49.15 33.31 Z" />
<path fill="#3a3a36" opacity="1.00" d=" M 44.33 48.31 L 45.22 48.30 C 45.16 48.67 45.03 49.42 44.96 49.79 L 44.24 50.01 L 43.82 49.18 L 44.33 48.31 Z" />
<path fill="#3a3a36" opacity="1.00" d=" M 48.42 61.28 L 49.36 61.23 C 49.10 61.69 48.59 62.61 48.34 63.07 L 47.91 62.23 L 48.42 61.28 Z" />
<path fill="#3a3a36" opacity="1.00" d=" M 70.90 70.28 C 71.74 72.04 71.71 74.03 71.34 75.91 C 64.96 75.65 58.49 76.53 52.17 75.39 C 58.44 74.79 64.76 75.22 71.05 75.22 C 71.01 73.57 71.00 71.92 70.90 70.28 Z" />
<path fill="#3a3a36" opacity="1.00" d=" M 48.21 76.17 C 48.73 76.75 48.73 76.75 48.21 76.17 Z" />
<path fill="#3a3a36" opacity="1.00" d=" M 52.04 79.18 C 52.49 79.14 53.38 79.05 53.83 79.01 L 53.79 79.70 C 53.42 79.76 52.67 79.89 52.30 79.95 L 52.04 79.18 Z" />
<path fill="#3a3a36" opacity="1.00" d=" M 69.31 81.57 C 69.39 81.49 69.54 81.33 69.62 81.25 L 69.47 81.43 L 69.31 81.57 Z" />
<path fill="#3a3a36" opacity="1.00" d=" M 53.09 82.04 C 54.37 82.44 55.67 82.78 56.91 83.30 C 56.67 83.75 56.17 84.65 55.92 85.10 C 54.32 84.98 53.53 83.38 53.09 82.04 Z" />
<path fill="#3a3a36" opacity="1.00" d=" M 43.05 84.95 L 44.27 85.21 C 44.19 85.94 44.03 87.40 43.95 88.13 C 43.90 89.73 44.40 91.32 45.31 92.65 C 46.52 94.86 49.50 93.75 51.56 94.16 C 51.80 93.51 52.29 92.22 52.54 91.58 L 52.91 91.15 C 52.95 92.43 52.98 93.70 53.02 94.98 C 49.32 94.98 45.62 95.00 41.92 95.01 C 43.33 91.83 43.18 88.34 43.05 84.95 M 44.01 93.30 C 44.63 93.89 44.63 93.89 44.01 93.30 Z" />
</g>
<g id="#ece9e3ff">
<path fill="#ece9e3" opacity="1.00" d=" M 57.46 25.02 C 57.94 25.92 58.41 26.83 58.78 27.79 C 57.97 28.18 57.14 28.52 56.30 28.83 C 56.24 28.50 56.11 27.84 56.05 27.52 C 56.40 26.89 57.10 25.64 57.46 25.02 Z" />
<path fill="#ece9e3" opacity="1.00" d=" M 72.60 27.75 C 74.54 26.67 76.45 25.53 78.44 24.54 C 77.28 29.83 74.88 34.91 75.12 40.44 C 76.72 42.14 79.34 44.06 78.06 46.73 C 75.79 48.52 72.55 48.56 70.04 50.01 C 70.87 50.19 72.54 50.54 73.38 50.71 C 72.44 51.60 71.51 52.49 70.59 53.38 C 70.53 52.56 70.41 50.93 70.35 50.11 C 69.01 52.01 67.86 54.14 65.86 55.45 C 64.04 54.63 62.08 54.35 60.10 54.57 L 60.68 53.38 C 60.12 53.43 59.00 53.55 58.44 53.60 L 58.75 54.90 C 57.79 54.66 55.86 54.19 54.89 53.95 L 58.06 55.17 C 57.24 55.64 56.42 56.12 55.61 56.60 C 55.01 56.12 53.81 55.17 53.21 54.69 L 54.81 56.93 C 51.09 55.18 48.59 59.61 44.81 58.65 C 44.78 56.56 42.98 56.41 41.32 56.34 C 41.81 54.10 42.17 51.39 44.24 50.01 L 44.96 49.79 C 45.03 49.42 45.16 48.67 45.22 48.30 C 45.91 47.20 46.57 46.09 46.95 44.84 C 49.11 41.92 45.61 36.82 49.34 35.03 L 50.01 34.71 C 50.00 34.32 49.97 33.52 49.96 33.13 C 50.25 32.95 50.82 32.60 51.11 32.42 C 51.46 32.24 52.15 31.89 52.50 31.71 C 55.07 30.46 57.58 28.95 60.44 28.43 C 63.78 27.52 67.13 28.90 70.46 29.16 C 71.00 28.81 72.07 28.10 72.60 27.75 M 60.22 41.19 C 56.97 43.28 53.69 45.34 50.43 47.42 C 48.10 49.40 46.69 52.25 45.53 55.04 C 46.25 55.03 47.67 55.01 48.39 55.00 C 48.10 54.61 47.53 53.84 47.25 53.45 C 49.06 51.17 51.07 49.03 53.48 47.35 C 54.15 47.30 55.50 47.21 56.18 47.16 C 56.25 46.43 56.40 44.98 56.47 44.25 C 58.17 46.12 61.20 47.21 63.26 45.18 C 62.41 45.11 60.69 44.97 59.83 44.90 C 59.70 43.10 60.81 42.04 62.36 41.41 C 63.76 40.91 65.09 40.22 65.84 38.85 C 63.92 39.53 62.07 40.34 60.22 41.19 M 63.21 44.72 C 64.54 44.51 64.78 43.78 63.94 42.53 C 62.62 42.74 62.38 43.47 63.21 44.72 Z" />
<path fill="#ece9e3" opacity="1.00" d=" M 50.59 69.91 C 52.96 66.23 52.68 61.03 55.74 57.87 L 56.00 58.33 C 56.41 59.71 56.69 61.12 56.81 62.56 C 60.59 62.94 63.28 60.36 65.52 57.69 C 66.39 58.73 67.10 59.89 67.75 61.07 L 67.96 61.78 C 68.29 62.86 68.63 63.93 68.97 65.00 C 63.63 65.09 58.28 64.74 52.96 65.30 C 58.53 66.70 64.33 65.74 70.01 66.00 L 69.96 67.25 C 70.05 67.67 70.23 68.52 70.32 68.95 C 70.46 69.28 70.75 69.94 70.90 70.28 C 71.00 71.92 71.01 73.57 71.05 75.22 C 64.76 75.22 58.44 74.79 52.17 75.39 C 58.49 76.53 64.96 75.65 71.34 75.91 C 71.05 76.36 70.46 77.26 70.16 77.71 C 69.26 78.73 69.17 79.79 69.92 80.88 L 69.62 81.25 C 69.54 81.33 69.39 81.49 69.31 81.57 C 68.94 81.89 68.19 82.54 67.82 82.87 C 67.26 82.90 66.15 82.98 65.60 83.01 C 62.67 82.92 59.75 82.66 56.85 82.24 C 57.12 81.83 57.66 80.99 57.93 80.58 C 59.87 81.31 62.25 81.79 64.00 80.36 C 62.13 79.60 60.09 79.80 58.17 80.20 C 56.71 79.84 55.27 79.41 53.83 79.01 C 53.38 79.05 52.49 79.14 52.04 79.18 C 51.85 78.62 51.47 77.50 51.28 76.93 C 51.12 74.59 50.86 72.25 50.59 69.91 Z" />
<path fill="#ece9e3" opacity="1.00" d=" M 35.14 67.57 C 36.50 63.87 39.80 60.51 43.52 59.15 L 43.34 60.73 L 44.75 60.46 C 45.51 65.15 40.93 69.17 36.42 68.71 L 36.80 67.21 L 35.14 67.57 Z" />
<path fill="#ece9e3" opacity="1.00" d=" M 44.01 93.30 C 44.63 93.89 44.63 93.89 44.01 93.30 Z" />
</g>
<g id="#ae8d5bff">
<path fill="#ae8d5b" opacity="1.00" d=" M 60.22 41.19 C 62.07 40.34 63.92 39.53 65.84 38.85 C 65.09 40.22 63.76 40.91 62.36 41.41 C 60.81 42.04 59.70 43.10 59.83 44.90 C 60.69 44.97 62.41 45.11 63.26 45.18 C 61.20 47.21 58.17 46.12 56.47 44.25 C 56.40 44.98 56.25 46.43 56.18 47.16 C 55.50 47.21 54.15 47.30 53.48 47.35 C 51.07 49.03 49.06 51.17 47.25 53.45 C 47.53 53.84 48.10 54.61 48.39 55.00 C 47.67 55.01 46.25 55.03 45.53 55.04 C 46.69 52.25 48.10 49.40 50.43 47.42 C 53.69 45.34 56.97 43.28 60.22 41.19 Z" />
<path fill="#ae8d5b" opacity="1.00" d=" M 63.21 44.72 C 62.38 43.47 62.62 42.74 63.94 42.53 C 64.78 43.78 64.54 44.51 63.21 44.72 Z" />
<path fill="#ae8d5b" opacity="1.00" d=" M 65.86 55.45 C 67.86 54.14 69.01 52.01 70.35 50.11 C 70.41 50.93 70.53 52.56 70.59 53.38 L 70.66 54.34 C 72.80 54.00 74.87 54.60 75.00 57.09 C 78.77 58.27 81.07 61.99 82.27 65.55 C 82.98 68.58 82.75 71.71 82.81 74.79 C 81.29 74.76 79.77 74.75 78.25 74.75 L 78.39 73.56 L 76.68 73.65 C 76.69 74.52 76.73 76.26 76.75 77.13 C 77.39 77.95 77.98 78.81 78.57 79.68 C 78.65 78.98 78.82 77.57 78.90 76.87 C 79.13 77.77 79.58 79.59 79.80 80.49 C 81.13 80.42 82.46 80.35 83.80 80.28 C 83.81 80.87 83.82 82.06 83.83 82.66 C 82.67 83.11 81.50 83.56 80.34 84.01 C 80.74 85.24 81.16 86.47 81.61 87.70 C 81.73 90.39 81.73 93.09 81.81 95.78 C 79.29 95.77 76.78 95.78 74.26 95.78 C 74.29 95.37 74.34 94.54 74.37 94.13 C 71.98 92.26 69.84 90.08 67.89 87.75 C 64.51 87.69 61.13 87.70 57.74 87.72 C 56.21 88.96 54.50 89.97 52.91 91.15 L 52.54 91.58 C 52.29 92.22 51.80 93.51 51.56 94.16 C 49.50 93.75 46.52 94.86 45.31 92.65 C 44.40 91.32 43.90 89.73 43.95 88.13 C 45.28 85.34 47.93 83.73 50.64 82.51 C 50.74 81.15 50.86 79.78 50.99 78.42 L 51.28 76.93 C 51.47 77.50 51.85 78.62 52.04 79.18 L 52.30 79.95 C 52.50 80.47 52.89 81.52 53.09 82.04 C 53.53 83.38 54.32 84.98 55.92 85.10 C 59.71 86.08 63.82 86.36 67.43 84.57 C 66.97 84.18 66.06 83.40 65.60 83.01 C 66.15 82.98 67.26 82.90 67.82 82.87 C 72.37 85.36 76.22 88.95 80.94 91.17 C 80.29 86.97 78.63 83.02 76.17 79.55 C 75.94 78.32 75.71 77.08 75.47 75.85 C 73.42 72.73 74.04 68.92 73.82 65.41 C 72.57 64.92 71.33 64.43 70.08 63.94 C 70.07 64.46 70.03 65.49 70.01 66.00 C 64.33 65.74 58.53 66.70 52.96 65.30 C 58.28 64.74 63.63 65.09 68.97 65.00 C 68.63 63.93 68.29 62.86 67.96 61.78 C 71.54 61.44 74.99 63.09 76.98 66.08 C 77.24 67.69 76.46 69.23 76.15 70.78 C 77.86 72.18 79.95 72.86 82.09 73.27 C 81.53 68.99 81.42 64.11 78.27 60.78 C 75.80 57.96 71.89 57.09 68.28 57.15 L 67.75 57.24 C 66.51 57.28 65.88 56.69 65.86 55.45 M 78.87 82.07 C 79.48 83.31 81.97 83.04 82.90 82.25 C 82.40 80.81 79.73 81.02 78.87 82.07 M 76.51 94.32 C 76.38 95.75 78.87 95.69 79.56 94.84 C 79.71 93.40 77.20 93.47 76.51 94.32 Z" />
<path fill="#ae8d5b" opacity="1.00" d=" M 69.96 67.25 C 71.55 67.54 71.67 68.11 70.32 68.95 C 70.23 68.52 70.05 67.67 69.96 67.25 Z" />
<path fill="#ae8d5b" opacity="1.00" d=" M 70.16 77.71 C 71.14 78.78 71.06 79.84 69.92 80.88 C 69.17 79.79 69.26 78.73 70.16 77.71 Z" />
<path fill="#ae8d5b" opacity="1.00" d=" M 58.17 80.20 C 60.09 79.80 62.13 79.60 64.00 80.36 C 62.25 81.79 59.87 81.31 57.93 80.58 L 58.17 80.20 Z" />
</g>
<g id="#c6c3b9ff">
<path fill="#c6c3b9" opacity="1.00" d=" M 55.79 57.40 C 56.86 56.96 57.79 56.32 58.56 55.48 C 60.49 55.36 62.42 55.34 64.33 55.69 C 64.62 56.19 65.22 57.19 65.52 57.69 C 63.28 60.36 60.59 62.94 56.81 62.56 C 56.69 61.12 56.41 59.71 56.00 58.33 L 55.74 57.87 L 55.79 57.40 Z" />
<path fill="#c6c3b9" opacity="1.00" d=" M 40.06 71.61 C 40.48 69.10 42.49 67.41 44.00 65.54 C 44.69 67.29 45.42 69.04 46.18 70.77 L 44.26 70.40 C 44.26 70.69 44.27 71.27 44.27 71.56 C 45.14 71.36 46.02 71.17 46.90 71.01 C 47.12 71.43 47.56 72.27 47.78 72.68 C 48.48 72.62 49.89 72.51 50.59 72.45 C 50.63 74.13 50.67 75.82 50.71 77.51 C 48.49 78.42 46.56 79.87 44.58 81.20 L 44.64 79.39 L 43.02 79.56 C 43.39 78.76 44.12 77.16 44.48 76.36 C 44.54 75.86 44.65 74.87 44.70 74.38 L 43.38 74.76 L 43.57 73.32 L 41.73 73.69 C 42.02 73.13 42.59 72.01 42.88 71.45 C 42.17 71.49 40.76 71.57 40.06 71.61 M 48.21 76.17 C 48.73 76.75 48.73 76.75 48.21 76.17 Z" />
<path fill="#c6c3b9" opacity="1.00" d=" M 53.83 79.01 C 55.27 79.41 56.71 79.84 58.17 80.20 L 57.93 80.58 C 57.66 80.99 57.12 81.83 56.85 82.24 C 59.75 82.66 62.67 82.92 65.60 83.01 C 66.06 83.40 66.97 84.18 67.43 84.57 C 63.82 86.36 59.71 86.08 55.92 85.10 C 56.17 84.65 56.67 83.75 56.91 83.30 C 55.67 82.78 54.37 82.44 53.09 82.04 C 52.89 81.52 52.50 80.47 52.30 79.95 C 52.67 79.89 53.42 79.76 53.79 79.70 L 53.83 79.01 Z" />
<path fill="#c6c3b9" opacity="1.00" d=" M 76.51 94.32 C 77.20 93.47 79.71 93.40 79.56 94.84 C 78.87 95.69 76.38 95.75 76.51 94.32 Z" />
</g>
<g id="#dbb472ff">
<path fill="#dbb472" opacity="1.00" d=" M 67.75 57.24 L 68.28 57.15 C 71.89 57.09 75.80 57.96 78.27 60.78 C 81.42 64.11 81.53 68.99 82.09 73.27 C 79.95 72.86 77.86 72.18 76.15 70.78 C 76.46 69.23 77.24 67.69 76.98 66.08 C 74.99 63.09 71.54 61.44 67.96 61.78 L 67.75 61.07 C 67.50 59.78 67.50 58.50 67.75 57.24 Z" />
<path fill="#dbb472" opacity="1.00" d=" M 50.71 57.34 C 51.75 57.32 53.83 57.29 54.87 57.28 C 52.03 61.22 52.72 66.85 48.54 70.02 C 48.31 69.19 47.86 67.53 47.63 66.70 C 47.61 67.49 47.58 69.07 47.57 69.86 C 47.23 69.84 46.56 69.78 46.23 69.75 C 45.40 68.20 44.88 66.50 44.29 64.84 C 45.82 64.68 47.10 63.90 48.34 63.07 C 48.59 62.61 49.10 61.69 49.36 61.23 C 49.93 59.98 50.53 58.72 50.71 57.34 Z" />
<path fill="#dbb472" opacity="1.00" d=" M 70.08 63.94 C 71.33 64.43 72.57 64.92 73.82 65.41 C 74.04 68.92 73.42 72.73 75.47 75.85 C 75.71 77.08 75.94 78.32 76.17 79.55 C 78.63 83.02 80.29 86.97 80.94 91.17 C 76.22 88.95 72.37 85.36 67.82 82.87 C 68.19 82.54 68.94 81.89 69.31 81.57 L 69.47 81.43 L 69.62 81.25 L 69.92 80.88 C 71.06 79.84 71.14 78.78 70.16 77.71 C 70.46 77.26 71.05 76.36 71.34 75.91 C 71.71 74.03 71.74 72.04 70.90 70.28 C 70.75 69.94 70.46 69.28 70.32 68.95 C 71.67 68.11 71.55 67.54 69.96 67.25 L 70.01 66.00 C 70.03 65.49 70.07 64.46 70.08 63.94 Z" />
<path fill="#dbb472" opacity="1.00" d=" M 44.27 85.21 C 44.79 81.91 47.43 78.17 50.99 78.42 C 50.86 79.78 50.74 81.15 50.64 82.51 C 47.93 83.73 45.28 85.34 43.95 88.13 C 44.03 87.40 44.19 85.94 44.27 85.21 Z" />
</g>
</svg>
