<?xml version="1.0" encoding="UTF-8" ?>
<!DOCTYPE svg PUBLIC "-//W3C//DTD SVG 1.1//EN" "http://www.w3.org/Graphics/SVG/1.1/DTD/svg11.dtd">
<svg width="96pt" height="96pt" viewBox="0 0 96 96" version="1.1" xmlns="http://www.w3.org/2000/svg">
<g id="#987310ff">
<path fill="#987310" opacity="1.00" d=" M 38.02 24.35 C 38.48 23.95 39.39 23.14 39.84 22.73 C 41.25 24.69 41.17 27.12 40.90 29.41 C 40.64 29.66 40.12 30.17 39.86 30.43 C 39.94 28.12 39.82 25.81 39.43 23.54 C 39.09 26.53 39.04 29.54 38.94 32.55 C 38.20 33.57 37.47 34.60 36.80 35.67 C 36.11 36.83 35.47 38.02 34.82 39.21 L 33.17 39.32 L 33.41 38.85 L 32.98 38.45 L 32.47 37.94 L 31.96 37.18 C 31.44 37.18 30.40 37.17 29.88 37.17 L 28.81 36.91 C 28.64 36.85 28.30 36.74 28.13 36.68 L 28.03 34.92 C 30.23 35.43 32.31 36.35 34.43 37.12 C 35.02 36.39 35.58 35.65 36.12 34.89 C 36.59 34.15 37.53 32.66 37.99 31.91 C 38.06 30.68 38.07 29.44 38.07 28.20 C 38.06 26.92 38.05 25.64 38.02 24.35 Z" />
</g>
<g id="#9d770eff">
<path fill="#9d770e" opacity="1.00" d=" M 48.10 27.39 C 48.96 25.99 49.87 24.58 51.21 23.59 L 50.64 24.63 C 50.03 25.49 50.03 26.38 50.63 27.29 C 50.66 27.80 50.74 28.83 50.78 29.34 C 50.34 30.95 49.93 32.56 49.47 34.16 L 49.21 34.34 C 49.10 33.16 48.89 30.80 48.78 29.62 C 48.27 31.26 47.81 32.91 47.24 34.54 C 46.51 35.77 45.71 36.96 44.90 38.14 C 44.03 38.14 42.29 38.15 41.42 38.16 C 45.29 37.10 46.40 33.28 47.62 29.94 L 47.83 29.42 C 47.90 28.91 48.03 27.90 48.10 27.39 M 49.13 27.87 C 47.57 30.94 52.34 28.14 49.13 27.87 Z" />
</g>
<g id="#ffffb4ff">
<path fill="#ffffb4" opacity="1.00" d=" M 39.43 23.54 C 39.82 25.81 39.94 28.12 39.86 30.43 C 39.83 33.08 39.32 36.11 41.42 38.16 C 42.29 38.15 44.03 38.14 44.90 38.14 C 45.71 36.96 46.51 35.77 47.24 34.54 C 47.90 35.42 48.55 36.30 49.20 37.19 C 47.83 38.53 46.48 39.89 45.20 41.32 C 43.14 40.72 41.09 40.07 39.05 39.41 L 38.75 39.31 C 38.75 38.83 38.74 37.85 38.74 37.36 C 38.26 36.94 37.28 36.09 36.80 35.67 C 37.47 34.60 38.20 33.57 38.94 32.55 C 39.04 29.54 39.09 26.53 39.43 23.54 Z" />
<path fill="#ffffb4" opacity="1.00" d=" M 50.64 24.63 C 52.11 25.54 52.11 26.43 50.63 27.29 C 50.03 26.38 50.03 25.49 50.64 24.63 Z" />
<path fill="#ffffb4" opacity="1.00" d=" M 49.13 27.87 C 52.34 28.14 47.57 30.94 49.13 27.87 Z" />
<path fill="#ffffb4" opacity="1.00" d=" M 29.88 37.17 C 30.40 37.17 31.44 37.18 31.96 37.18 L 32.47 37.94 C 31.82 37.75 30.53 37.36 29.88 37.17 Z" />
<path fill="#ffffb4" opacity="1.00" d=" M 41.51 46.40 C 41.59 46.47 41.75 46.60 41.83 46.67 C 41.75 46.60 41.59 46.47 41.51 46.40 Z" />
<path fill="#ffffb4" opacity="1.00" d=" M 46.60 46.42 L 47.18 46.47 L 46.92 46.95 L 46.42 46.86 L 46.60 46.42 Z" />
</g>
<g id="#101010ff">
<path fill="#101010" opacity="1.00" d=" M 33.36 27.03 C 35.02 26.80 36.53 27.74 38.07 28.20 C 38.07 29.44 38.06 30.68 37.99 31.91 C 36.53 31.14 35.07 30.37 33.63 29.56 C 34.38 31.37 35.22 33.15 36.12 34.89 C 35.58 35.65 35.02 36.39 34.43 37.12 C 34.16 36.46 33.63 35.15 33.36 34.50 C 32.94 33.45 32.50 32.42 32.06 31.39 C 32.04 29.80 31.69 27.95 33.36 27.03 Z" />
<path fill="#101010" opacity="1.00" d=" M 54.48 26.97 C 56.07 27.06 58.00 26.63 58.89 28.35 C 59.13 30.78 59.41 33.41 58.19 35.64 C 58.13 36.29 58.01 37.59 57.95 38.24 L 57.64 38.31 C 56.75 37.31 55.91 36.28 55.02 35.29 C 55.61 33.38 55.98 31.40 56.14 29.40 C 54.26 30.67 52.52 32.13 50.67 33.44 L 49.47 34.16 C 49.93 32.56 50.34 30.95 50.78 29.34 C 51.97 28.48 53.24 27.74 54.48 26.97 Z" />
<path fill="#101010" opacity="1.00" d=" M 37.93 43.33 C 37.10 42.48 36.94 39.12 38.17 39.28 C 38.67 40.50 38.94 42.30 37.93 43.33 Z" />
<path fill="#101010" opacity="1.00" d=" M 38.75 39.31 L 39.05 39.41 C 39.37 40.33 40.01 42.17 40.34 43.09 C 38.45 42.99 38.50 40.68 38.75 39.31 Z" />
<path fill="#101010" opacity="1.00" d=" M 57.43 40.07 C 57.80 40.18 58.56 40.38 58.93 40.48 C 58.93 41.36 58.49 42.07 57.62 42.63 L 56.99 42.66 C 56.51 42.41 55.56 41.90 55.09 41.64 C 55.84 41.08 56.62 40.56 57.43 40.07 Z" />
<path fill="#101010" opacity="1.00" d=" M 48.35 41.18 L 48.90 41.36 C 48.91 42.05 48.92 43.41 48.93 44.10 C 48.59 43.87 47.93 43.42 47.60 43.20 C 47.79 42.69 48.16 41.68 48.35 41.18 Z" />
<path fill="#101010" opacity="1.00" d=" M 64.89 42.97 L 65.44 42.88 C 64.60 44.19 63.55 45.37 62.29 46.30 C 61.83 45.88 60.90 45.04 60.44 44.62 C 61.81 43.83 63.43 43.57 64.89 42.97 Z" />
<path fill="#101010" opacity="1.00" d=" M 38.63 44.10 C 39.22 44.37 40.40 44.92 40.99 45.19 C 42.72 45.09 44.46 45.03 46.20 45.01 C 45.01 45.79 43.84 46.59 42.67 47.41 C 42.46 47.23 42.04 46.86 41.83 46.67 C 41.75 46.60 41.59 46.47 41.51 46.40 C 41.11 46.07 40.31 45.42 39.90 45.09 C 39.59 44.84 38.95 44.35 38.63 44.10 Z" />
<path fill="#101010" opacity="1.00" d=" M 55.06 45.14 C 56.60 44.77 58.20 44.87 59.76 45.09 C 59.31 45.41 58.42 46.05 57.98 46.37 C 57.47 46.54 56.46 46.90 55.95 47.07 C 55.73 46.59 55.28 45.62 55.06 45.14 Z" />
<path fill="#101010" opacity="1.00" d=" M 47.18 46.47 L 47.92 45.28 L 47.82 47.41 C 47.55 48.36 47.13 49.31 47.20 50.32 C 48.58 49.92 49.44 49.03 49.79 47.65 C 49.87 48.31 50.02 49.62 50.10 50.27 C 50.95 49.48 51.79 48.68 52.62 47.88 C 52.46 48.68 52.15 50.29 51.99 51.09 L 53.46 50.86 C 53.77 50.32 54.40 49.25 54.71 48.71 C 54.69 49.13 54.65 49.97 54.63 50.40 C 55.66 50.87 56.69 51.37 57.70 51.89 L 54.43 52.31 C 51.56 51.06 48.55 50.22 45.43 51.08 L 46.51 52.07 C 45.80 52.00 44.38 51.85 43.67 51.78 C 43.25 51.55 42.43 51.10 42.01 50.87 C 41.60 50.64 40.76 50.19 40.35 49.97 C 40.18 50.29 39.86 50.94 39.69 51.27 L 39.28 51.20 C 38.54 50.06 37.85 48.89 37.11 47.76 L 36.99 47.15 C 39.30 47.47 41.29 48.70 43.15 50.04 L 42.75 47.74 L 43.57 50.37 C 45.59 50.23 46.03 48.29 46.92 46.95 L 47.18 46.47 M 44.68 50.22 C 45.27 50.84 45.27 50.84 44.68 50.22 Z" />
<path fill="#101010" opacity="1.00" d=" M 63.09 49.11 C 64.31 47.98 65.40 46.73 66.51 45.51 C 65.18 48.32 63.64 51.05 61.66 53.47 C 62.07 52.48 62.47 51.49 62.86 50.50 C 61.82 49.74 60.77 48.99 59.77 48.16 C 60.85 48.57 61.96 48.89 63.09 49.11 Z" />
<path fill="#101010" opacity="1.00" d=" M 67.36 46.02 L 67.63 46.34 C 68.68 47.44 68.77 50.84 66.82 50.77 C 66.79 49.17 67.03 47.58 67.36 46.02 Z" />
<path fill="#101010" opacity="1.00" d=" M 35.17 49.62 C 36.01 50.63 36.82 51.66 37.67 52.67 C 36.08 53.34 34.48 53.98 32.86 54.59 C 31.26 54.05 30.22 52.73 29.55 51.24 L 30.08 51.58 C 31.00 52.18 31.92 52.77 32.84 53.36 C 33.05 52.65 33.48 51.24 33.69 50.54 C 33.73 51.15 33.81 52.39 33.85 53.01 C 34.45 53.00 35.63 52.97 36.23 52.96 C 35.88 51.85 35.52 50.73 35.17 49.62 Z" />
<path fill="#101010" opacity="1.00" d=" M 48.79 51.77 C 51.19 52.80 53.61 53.99 56.28 54.03 L 57.08 53.42 C 57.64 53.01 58.75 52.17 59.31 51.75 C 58.33 52.84 57.62 54.34 56.23 54.97 C 54.73 54.91 53.26 54.66 51.82 54.22 C 52.33 55.62 52.80 57.04 53.23 58.47 L 53.25 59.48 L 53.26 59.88 C 54.58 60.14 55.91 60.15 57.23 59.91 C 56.17 61.88 53.49 60.64 51.72 61.00 C 52.53 57.55 50.90 54.38 48.79 51.77 Z" />
<path fill="#101010" opacity="1.00" d=" M 64.82 54.81 C 65.09 54.37 65.63 53.50 65.90 53.07 C 65.85 53.50 65.76 54.36 65.72 54.79 L 64.82 54.81 Z" />
<path fill="#101010" opacity="1.00" d=" M 51.61 63.17 L 52.51 63.20 L 53.06 64.10 L 52.69 64.94 C 52.42 64.50 51.88 63.61 51.61 63.17 Z" />
<path fill="#101010" opacity="1.00" d=" M 49.14 64.00 C 49.42 64.44 49.98 65.33 50.26 65.77 L 49.37 65.76 L 48.80 64.86 L 49.14 64.00 Z" />
<path fill="#101010" opacity="1.00" d=" M 57.16 67.31 C 57.60 67.18 58.50 66.91 58.95 66.77 L 59.78 67.36 L 59.83 68.10 C 58.68 68.45 57.79 68.19 57.16 67.31 Z" />
</g>
<g id="#e2b800ff">
<path fill="#e2b800" opacity="1.00" d=" M 42.40 27.97 C 43.19 28.06 44.78 28.23 45.57 28.32 L 44.85 28.72 C 43.79 29.15 43.19 29.91 43.04 31.01 C 44.21 31.31 45.27 31.08 46.21 30.35 L 47.62 29.94 C 46.40 33.28 45.29 37.10 41.42 38.16 C 39.32 36.11 39.83 33.08 39.86 30.43 C 40.12 30.17 40.64 29.66 40.90 29.41 C 41.27 29.05 42.02 28.33 42.40 27.97 M 42.33 32.19 C 42.63 33.44 43.42 33.65 44.70 32.81 C 44.39 31.55 43.60 31.34 42.33 32.19 M 41.33 34.85 C 41.92 34.83 43.11 34.80 43.70 34.79 C 44.12 33.28 40.74 33.34 41.33 34.85 Z" />
</g>
<g id="#f5edccff">
<path fill="#f5edcc" opacity="1.00" d=" M 43.04 31.01 C 43.19 29.91 43.79 29.15 44.85 28.72 C 45.19 29.13 45.87 29.94 46.21 30.35 C 45.27 31.08 44.21 31.31 43.04 31.01 Z" />
</g>
<g id="#ef6a49ff">
<path fill="#ef6a49" opacity="1.00" d=" M 33.63 29.56 C 35.07 30.37 36.53 31.14 37.99 31.91 C 37.53 32.66 36.59 34.15 36.12 34.89 C 35.22 33.15 34.38 31.37 33.63 29.56 Z" />
</g>
<g id="#eb6746ff">
<path fill="#eb6746" opacity="1.00" d=" M 50.67 33.44 C 52.52 32.13 54.26 30.67 56.14 29.40 C 55.98 31.40 55.61 33.38 55.02 35.29 C 53.61 34.59 52.15 33.99 50.67 33.44 Z" />
</g>
<g id="#ffe683ff">
<path fill="#ffe683" opacity="1.00" d=" M 47.24 34.54 C 47.81 32.91 48.27 31.26 48.78 29.62 C 48.89 30.80 49.10 33.16 49.21 34.34 C 51.23 35.44 52.99 36.95 54.03 39.04 L 54.54 39.81 C 55.26 39.87 56.70 40.01 57.43 40.07 C 56.62 40.56 55.84 41.08 55.09 41.64 C 55.56 41.90 56.51 42.41 56.99 42.66 C 55.74 43.04 54.50 43.42 53.25 43.81 C 57.17 44.27 61.00 43.16 64.89 42.97 C 63.43 43.57 61.81 43.83 60.44 44.62 L 59.76 45.09 C 58.20 44.87 56.60 44.77 55.06 45.14 C 55.28 45.62 55.73 46.59 55.95 47.07 C 55.51 46.95 54.61 46.69 54.16 46.57 C 52.82 45.10 50.87 46.32 49.53 47.12 C 49.10 47.19 48.25 47.34 47.82 47.41 L 47.92 45.28 C 47.58 44.95 47.00 44.86 46.20 45.01 C 44.46 45.03 42.72 45.09 40.99 45.19 C 40.40 44.92 39.22 44.37 38.63 44.10 C 38.95 44.35 39.59 44.84 39.90 45.09 C 38.59 45.10 37.28 45.14 35.97 45.21 C 35.62 43.40 35.22 41.61 34.91 39.80 L 34.82 39.21 C 35.47 38.02 36.11 36.83 36.80 35.67 C 37.28 36.09 38.26 36.94 38.74 37.36 C 38.74 37.85 38.75 38.83 38.75 39.31 C 38.50 40.68 38.45 42.99 40.34 43.09 C 40.01 42.17 39.37 40.33 39.05 39.41 C 41.09 40.07 43.14 40.72 45.20 41.32 C 45.68 41.68 46.65 42.41 47.13 42.77 L 47.60 43.20 C 47.93 43.42 48.59 43.87 48.93 44.10 C 51.70 45.62 53.22 42.49 53.45 40.18 C 52.03 39.19 50.62 38.18 49.20 37.19 C 48.55 36.30 47.90 35.42 47.24 34.54 M 37.93 43.33 C 38.94 42.30 38.67 40.50 38.17 39.28 C 36.94 39.12 37.10 42.48 37.93 43.33 Z" />
<path fill="#ffe683" opacity="1.00" d=" M 28.13 36.68 C 28.30 36.74 28.64 36.85 28.81 36.91 L 28.29 37.06 L 28.13 36.68 Z" />
<path fill="#ffe683" opacity="1.00" d=" M 32.98 38.45 L 33.41 38.85 L 33.17 39.32 L 32.77 38.94 L 32.98 38.45 Z" />
<path fill="#ffe683" opacity="1.00" d=" M 60.97 38.77 C 61.96 37.77 63.08 37.62 64.30 38.33 C 63.39 39.38 62.28 39.52 60.97 38.77 Z" />
<path fill="#ffe683" opacity="1.00" d=" M 57.43 40.07 C 58.01 38.75 58.91 38.57 60.12 39.52 C 59.82 39.76 59.23 40.24 58.93 40.48 C 58.56 40.38 57.80 40.18 57.43 40.07 Z" />
<path fill="#ffe683" opacity="1.00" d=" M 27.86 41.46 C 28.42 41.53 29.53 41.69 30.08 41.76 C 29.66 41.87 28.81 42.09 28.39 42.20 L 27.86 41.46 Z" />
<path fill="#ffe683" opacity="1.00" d=" M 30.91 41.97 C 31.61 42.06 33.03 42.23 33.74 42.31 L 33.98 43.06 C 32.69 43.45 31.66 43.09 30.91 41.97 Z" />
<path fill="#ffe683" opacity="1.00" d=" M 49.79 47.65 C 51.32 47.80 52.86 47.35 54.16 46.57 L 54.16 47.28 C 54.54 47.42 55.31 47.69 55.69 47.83 C 56.83 48.52 57.52 49.53 57.77 50.87 C 58.15 51.09 58.92 51.53 59.31 51.75 C 58.75 52.17 57.64 53.01 57.08 53.42 C 56.42 53.15 55.09 52.59 54.43 52.31 L 57.70 51.89 C 56.69 51.37 55.66 50.87 54.63 50.40 C 54.65 49.97 54.69 49.13 54.71 48.71 C 54.40 49.25 53.77 50.32 53.46 50.86 L 51.99 51.09 C 52.15 50.29 52.46 48.68 52.62 47.88 C 51.79 48.68 50.95 49.48 50.10 50.27 C 50.02 49.62 49.87 48.31 49.79 47.65 Z" />
<path fill="#ffe683" opacity="1.00" d=" M 30.08 51.58 C 31.96 50.68 33.79 49.58 35.84 49.11 C 37.04 49.70 37.91 51.02 39.28 51.20 L 39.69 51.27 C 39.61 52.12 39.49 52.96 39.32 53.80 C 38.91 53.52 38.08 52.95 37.67 52.67 C 36.82 51.66 36.01 50.63 35.17 49.62 C 35.52 50.73 35.88 51.85 36.23 52.96 C 35.63 52.97 34.45 53.00 33.85 53.01 C 33.81 52.39 33.73 51.15 33.69 50.54 C 33.48 51.24 33.05 52.65 32.84 53.36 C 31.92 52.77 31.00 52.18 30.08 51.58 Z" />
<path fill="#ffe683" opacity="1.00" d=" M 42.01 50.87 C 42.43 51.10 43.25 51.55 43.67 51.78 C 44.38 51.85 45.80 52.00 46.51 52.07 C 46.91 52.42 47.71 53.12 48.11 53.47 C 47.71 54.99 47.31 56.50 46.91 58.02 C 44.80 58.47 42.70 58.92 40.60 59.36 C 39.67 56.41 40.89 53.56 42.01 50.87 Z" />
<path fill="#ffe683" opacity="1.00" d=" M 51.01 68.99 C 51.95 67.89 53.05 66.73 54.60 66.65 L 55.12 67.02 C 54.51 68.17 53.62 69.02 52.43 69.55 C 52.08 69.41 51.37 69.13 51.01 68.99 Z" />
</g>
<g id="#ffffffff">
<path fill="#ffffff" opacity="1.00" d=" M 42.33 32.19 C 43.60 31.34 44.39 31.55 44.70 32.81 C 43.42 33.65 42.63 33.44 42.33 32.19 Z" />
<path fill="#ffffff" opacity="1.00" d=" M 41.33 34.85 C 40.74 33.34 44.12 33.28 43.70 34.79 C 43.11 34.80 41.92 34.83 41.33 34.85 Z" />
<path fill="#ffffff" opacity="1.00" d=" M 47.09 40.19 C 47.41 40.43 48.03 40.93 48.35 41.18 C 48.16 41.68 47.79 42.69 47.60 43.20 L 47.13 42.77 C 47.12 42.13 47.10 40.83 47.09 40.19 Z" />
</g>
<g id="#debd39ff">
<path fill="#debd39" opacity="1.00" d=" M 49.21 34.34 L 49.47 34.16 L 50.67 33.44 C 52.15 33.99 53.61 34.59 55.02 35.29 C 55.91 36.28 56.75 37.31 57.64 38.31 C 56.44 38.55 55.24 38.80 54.03 39.04 C 52.99 36.95 51.23 35.44 49.21 34.34 Z" />
<path fill="#debd39" opacity="1.00" d=" M 35.97 45.21 C 37.28 45.14 38.59 45.10 39.90 45.09 C 40.31 45.42 41.11 46.07 41.51 46.40 C 41.59 46.47 41.75 46.60 41.83 46.67 C 42.04 46.86 42.46 47.23 42.67 47.41 L 42.75 47.74 L 43.15 50.04 C 41.29 48.70 39.30 47.47 36.99 47.15 C 36.74 46.67 36.23 45.69 35.97 45.21 Z" />
<path fill="#debd39" opacity="1.00" d=" M 47.82 47.41 C 48.25 47.34 49.10 47.19 49.53 47.12 L 49.79 47.65 C 49.44 49.03 48.58 49.92 47.20 50.32 C 47.13 49.31 47.55 48.36 47.82 47.41 Z" />
<path fill="#debd39" opacity="1.00" d=" M 32.29 49.35 C 33.86 48.73 35.41 47.95 37.11 47.76 C 37.85 48.89 38.54 50.06 39.28 51.20 C 37.91 51.02 37.04 49.70 35.84 49.11 C 33.79 49.58 31.96 50.68 30.08 51.58 C 30.64 51.02 31.74 49.91 32.29 49.35 Z" />
<path fill="#debd39" opacity="1.00" d=" M 44.68 50.22 C 45.27 50.84 45.27 50.84 44.68 50.22 Z" />
<path fill="#debd39" opacity="1.00" d=" M 45.43 51.08 C 48.55 50.22 51.56 51.06 54.43 52.31 C 55.09 52.59 56.42 53.15 57.08 53.42 L 56.28 54.03 C 53.61 53.99 51.19 52.80 48.79 51.77 C 50.90 54.38 52.53 57.55 51.72 61.00 C 51.67 61.72 51.64 62.44 51.61 63.17 C 51.88 63.61 52.42 64.50 52.69 64.94 C 53.17 65.37 54.12 66.22 54.60 66.65 C 53.05 66.73 51.95 67.89 51.01 68.99 L 50.16 69.75 L 49.35 68.09 C 49.58 67.72 50.05 66.97 50.28 66.60 C 50.28 66.39 50.27 65.98 50.26 65.77 C 49.98 65.33 49.42 64.44 49.14 64.00 C 48.80 63.53 48.10 62.59 47.75 62.12 C 46.09 61.64 43.55 61.47 42.90 63.52 C 42.72 63.90 42.38 64.65 42.20 65.03 C 43.37 66.16 44.18 67.37 42.55 68.58 C 41.73 67.10 40.93 65.61 40.24 64.07 C 40.30 63.93 40.42 63.64 40.48 63.50 L 40.91 62.54 C 40.85 61.48 40.75 60.42 40.60 59.36 C 42.70 58.92 44.80 58.47 46.91 58.02 C 47.31 56.50 47.71 54.99 48.11 53.47 C 47.71 53.12 46.91 52.42 46.51 52.07 L 45.43 51.08 Z" />
<path fill="#debd39" opacity="1.00" d=" M 37.67 52.67 C 38.08 52.95 38.91 53.52 39.32 53.80 C 39.25 54.37 39.10 55.50 39.02 56.07 C 37.43 55.60 35.79 55.28 34.17 54.92 L 32.86 54.59 C 34.48 53.98 36.08 53.34 37.67 52.67 Z" />
<path fill="#debd39" opacity="1.00" d=" M 53.25 59.48 C 54.55 58.84 55.93 58.40 57.30 57.96 L 57.70 58.45 C 57.58 58.82 57.35 59.54 57.23 59.91 C 55.91 60.15 54.58 60.14 53.26 59.88 L 53.25 59.48 Z" />
</g>
<g id="#0d0d0dd5">
<path fill="#0d0d0d" opacity="0.84" d=" M 28.29 37.06 L 28.81 36.91 L 29.88 37.17 C 30.53 37.36 31.82 37.75 32.47 37.94 L 32.98 38.45 L 32.77 38.94 C 31.25 39.72 29.02 38.90 28.14 37.49 L 28.29 37.06 Z" />
</g>
<g id="#9c7b10ff">
<path fill="#9c7b10" opacity="1.00" d=" M 60.66 37.07 C 61.92 37.32 63.98 36.39 64.30 38.33 C 63.08 37.62 61.96 37.77 60.97 38.77 L 60.12 39.52 C 58.91 38.57 58.01 38.75 57.43 40.07 C 56.70 40.01 55.26 39.87 54.54 39.81 L 54.03 39.04 C 55.24 38.80 56.44 38.55 57.64 38.31 L 57.95 38.24 C 58.63 37.95 59.98 37.36 60.66 37.07 Z" />
</g>
<g id="#b69b38ff">
<path fill="#b69b38" opacity="1.00" d=" M 45.20 41.32 C 46.48 39.89 47.83 38.53 49.20 37.19 C 50.62 38.18 52.03 39.19 53.45 40.18 C 53.22 42.49 51.70 45.62 48.93 44.10 C 49.94 43.64 50.93 43.16 51.92 42.65 C 52.72 40.26 50.27 38.95 48.31 38.59 C 48.46 39.28 48.75 40.67 48.90 41.36 L 48.35 41.18 C 48.03 40.93 47.41 40.43 47.09 40.19 C 47.10 40.83 47.12 42.13 47.13 42.77 C 46.65 42.41 45.68 41.68 45.20 41.32 Z" />
</g>
<g id="#f3f3f3ff">
<path fill="#f3f3f3" opacity="1.00" d=" M 48.31 38.59 C 50.27 38.95 52.72 40.26 51.92 42.65 C 50.93 43.16 49.94 43.64 48.93 44.10 C 48.92 43.41 48.91 42.05 48.90 41.36 C 48.75 40.67 48.46 39.28 48.31 38.59 Z" />
</g>
<g id="#8a6d0bff">
<path fill="#8a6d0b" opacity="1.00" d=" M 27.86 41.46 C 28.10 40.18 28.94 39.69 30.36 39.99 C 31.70 41.60 33.62 41.13 34.91 39.80 C 35.22 41.61 35.62 43.40 35.97 45.21 C 35.51 44.76 34.58 43.86 34.12 43.41 L 33.98 43.06 L 33.74 42.31 C 33.03 42.23 31.61 42.06 30.91 41.97 L 30.08 41.76 C 29.53 41.69 28.42 41.53 27.86 41.46 Z" />
</g>
<g id="#934805ea">
<path fill="#934805" opacity="0.92" d=" M 61.01 41.15 C 59.70 38.45 63.84 39.76 64.88 40.32 C 66.53 41.81 68.33 43.95 67.63 46.34 L 67.36 46.02 C 66.71 44.98 66.06 43.94 65.44 42.88 C 64.92 40.90 62.73 40.36 61.01 41.15 Z" />
</g>
<g id="#8d6300ff">
<path fill="#8d6300" opacity="1.00" d=" M 60.56 40.82 L 61.01 41.15 C 62.13 42.08 63.47 42.68 64.89 42.97 C 61.00 43.16 57.17 44.27 53.25 43.81 C 54.50 43.42 55.74 43.04 56.99 42.66 L 57.62 42.63 L 58.83 42.67 C 59.26 42.20 60.13 41.28 60.56 40.82 Z" />
</g>
<g id="#ee9c31ff">
<path fill="#ee9c31" opacity="1.00" d=" M 61.01 41.15 C 62.73 40.36 64.92 40.90 65.44 42.88 L 64.89 42.97 C 63.47 42.68 62.13 42.08 61.01 41.15 Z" />
</g>
<g id="#0e0e0edb">
<path fill="#0e0e0e" opacity="0.86" d=" M 28.39 42.20 C 28.81 42.09 29.66 41.87 30.08 41.76 L 30.91 41.97 C 31.66 43.09 32.69 43.45 33.98 43.06 L 34.12 43.41 C 32.81 44.93 28.46 43.79 28.39 42.20 Z" />
</g>
<g id="#c37809ff">
<path fill="#c37809" opacity="1.00" d=" M 65.44 42.88 C 66.06 43.94 66.71 44.98 67.36 46.02 C 67.03 47.58 66.79 49.17 66.82 50.77 C 66.81 51.26 66.79 52.24 66.77 52.73 L 65.90 53.07 C 65.63 53.50 65.09 54.37 64.82 54.81 C 64.60 55.19 64.16 55.97 63.94 56.36 C 63.33 55.69 62.11 54.36 61.49 53.70 L 61.66 53.47 C 63.64 51.05 65.18 48.32 66.51 45.51 C 65.40 46.73 64.31 47.98 63.09 49.11 C 61.96 48.89 60.85 48.57 59.77 48.16 C 59.15 47.58 58.55 46.99 57.98 46.37 C 58.42 46.05 59.31 45.41 59.76 45.09 L 60.44 44.62 C 60.90 45.04 61.83 45.88 62.29 46.30 C 63.55 45.37 64.60 44.19 65.44 42.88 Z" />
</g>
<g id="#d8693fff">
<path fill="#d8693f" opacity="1.00" d=" M 46.20 45.01 C 47.00 44.86 47.58 44.95 47.92 45.28 L 47.18 46.47 L 46.60 46.42 L 46.42 46.86 L 46.92 46.95 C 46.03 48.29 45.59 50.23 43.57 50.37 L 42.75 47.74 L 42.67 47.41 C 43.84 46.59 45.01 45.79 46.20 45.01 Z" />
</g>
<g id="#a2831aff">
<path fill="#a2831a" opacity="1.00" d=" M 49.53 47.12 C 50.87 46.32 52.82 45.10 54.16 46.57 C 52.86 47.35 51.32 47.80 49.79 47.65 L 49.53 47.12 Z" />
</g>
<g id="#8b6a00ff">
<path fill="#8b6a00" opacity="1.00" d=" M 54.16 46.57 C 54.61 46.69 55.51 46.95 55.95 47.07 L 55.69 47.83 C 55.31 47.69 54.54 47.42 54.16 47.28 L 54.16 46.57 Z" />
</g>
<g id="#8d7219ff">
<path fill="#8d7219" opacity="1.00" d=" M 39.69 51.27 C 39.86 50.94 40.18 50.29 40.35 49.97 C 40.76 50.19 41.60 50.64 42.01 50.87 C 40.89 53.56 39.67 56.41 40.60 59.36 C 40.75 60.42 40.85 61.48 40.91 62.54 L 40.48 63.50 C 40.09 61.15 39.24 58.90 38.99 56.52 L 39.02 56.07 C 39.10 55.50 39.25 54.37 39.32 53.80 C 39.49 52.96 39.61 52.12 39.69 51.27 Z" />
</g>
<g id="#af9026ff">
<path fill="#af9026" opacity="1.00" d=" M 53.23 58.47 C 55.97 57.06 58.78 55.77 61.27 53.94 C 60.04 55.36 58.72 56.72 57.30 57.96 C 55.93 58.40 54.55 58.84 53.25 59.48 L 53.23 58.47 Z" />
</g>
<g id="#fadf77ff">
<path fill="#fadf77" opacity="1.00" d=" M 61.27 53.94 L 61.49 53.70 C 62.11 54.36 63.33 55.69 63.94 56.36 C 62.23 57.51 60.50 58.63 58.80 59.80 L 57.70 58.45 L 57.30 57.96 C 58.72 56.72 60.04 55.36 61.27 53.94 Z" />
</g>
<g id="#705a0fff">
<path fill="#705a0f" opacity="1.00" d=" M 34.17 54.92 C 35.79 55.28 37.43 55.60 39.02 56.07 L 38.99 56.52 C 37.62 57.83 34.23 56.80 34.17 54.92 Z" />
</g>
<g id="#251f0dff">
<path fill="#251f0d" opacity="1.00" d=" M 42.90 63.52 C 43.55 61.47 46.09 61.64 47.75 62.12 C 47.34 63.64 44.30 63.67 42.90 63.52 Z" />
</g>
<g id="#b26d05ff">
<path fill="#b26d05" opacity="1.00" d=" M 36.06 65.11 C 36.90 65.06 38.57 64.98 39.41 64.94 C 39.08 65.32 38.41 66.08 38.08 66.46 C 38.53 67.51 39.00 68.56 39.48 69.60 C 39.10 69.62 38.33 69.66 37.94 69.69 C 35.65 69.49 32.32 70.45 31.14 67.78 C 31.59 67.59 32.50 67.20 32.95 67.00 C 33.45 67.23 34.46 67.68 34.96 67.91 C 35.15 67.48 35.54 66.62 35.73 66.19 L 36.06 65.11 Z" />
</g>
<g id="#fcd773ff">
<path fill="#fcd773" opacity="1.00" d=" M 39.41 64.94 L 40.24 64.07 C 40.93 65.61 41.73 67.10 42.55 68.58 C 41.18 68.07 40.16 68.41 39.48 69.60 C 39.00 68.56 38.53 67.51 38.08 66.46 C 38.41 66.08 39.08 65.32 39.41 64.94 Z" />
</g>
<g id="#944100ff">
<path fill="#944100" opacity="1.00" d=" M 33.14 66.30 C 33.79 66.28 35.08 66.22 35.73 66.19 C 35.54 66.62 35.15 67.48 34.96 67.91 C 34.46 67.68 33.45 67.23 32.95 67.00 L 33.14 66.30 Z" />
</g>
<g id="#bf720bff">
<path fill="#bf720b" opacity="1.00" d=" M 55.12 67.02 L 56.02 65.66 L 57.16 67.31 C 57.79 68.19 58.68 68.45 59.83 68.10 C 60.28 68.44 61.18 69.12 61.63 69.46 L 60.73 70.21 C 58.96 70.48 57.16 70.63 55.45 71.20 C 54.42 70.70 53.41 70.15 52.43 69.55 C 53.62 69.02 54.51 68.17 55.12 67.02 Z" />
</g>
<g id="#201a0fff">
<path fill="#201a0f" opacity="1.00" d=" M 37.93 71.04 C 35.34 71.03 30.24 71.83 31.14 67.78 C 32.32 70.45 35.65 69.49 37.94 69.69 L 37.93 71.04 Z" />
<path fill="#201a0f" opacity="1.00" d=" M 61.63 69.46 L 62.38 68.87 C 61.92 73.02 57.50 72.06 54.52 71.86 L 55.45 71.20 C 57.16 70.63 58.96 70.48 60.73 70.21 L 61.63 69.46 Z" />
</g>
</svg>
