<?xml version="1.0" encoding="UTF-8" ?>
<!DOCTYPE svg PUBLIC "-//W3C//DTD SVG 1.1//EN" "http://www.w3.org/Graphics/SVG/1.1/DTD/svg11.dtd">
<svg width="120pt" height="120pt" viewBox="0 0 120 120" version="1.1" xmlns="http://www.w3.org/2000/svg">
<g id="#303f28fa">
<path fill="#303f28" opacity="0.98" d=" M 50.02 30.79 C 51.53 30.43 53.05 30.13 54.58 29.86 C 57.41 35.62 58.80 42.09 62.61 47.34 C 63.15 48.92 63.31 50.61 63.86 52.19 C 64.53 54.86 67.42 56.21 68.14 58.85 C 69.63 63.56 68.72 69.08 71.72 73.30 C 74.57 76.03 78.52 77.26 82.18 78.53 C 81.95 79.99 81.70 81.45 81.35 82.89 C 81.25 81.86 81.14 80.83 81.02 79.81 C 77.86 78.48 74.61 77.18 71.88 75.05 C 69.67 73.29 69.10 70.35 68.55 67.74 C 68.03 63.54 67.58 59.01 64.51 55.79 L 63.99 55.20 C 61.65 55.57 59.33 56.09 57.03 56.62 C 57.04 55.39 57.04 54.15 57.02 52.91 L 56.98 51.70 C 57.82 52.93 58.64 54.17 59.47 55.40 C 60.76 54.82 62.05 54.24 63.31 53.57 C 61.97 52.10 60.34 50.95 58.84 49.66 C 59.84 49.32 60.83 48.95 61.82 48.57 C 60.77 46.82 58.20 47.52 56.49 47.09 C 57.60 46.64 58.72 46.21 59.84 45.77 C 57.70 40.70 55.84 35.52 53.58 30.51 C 52.06 31.28 50.56 32.08 49.14 33.02 C 49.36 32.46 49.80 31.35 50.02 30.79 Z" />
</g>
<g id="#caf081ff">
<path fill="#caf081" opacity="1.00" d=" M 49.14 33.02 C 50.56 32.08 52.06 31.28 53.58 30.51 C 55.84 35.52 57.70 40.70 59.84 45.77 C 58.72 46.21 57.60 46.64 56.49 47.09 C 58.20 47.52 60.77 46.82 61.82 48.57 C 60.83 48.95 59.84 49.32 58.84 49.66 L 57.99 49.97 C 57.43 47.67 54.56 49.36 56.44 50.88 L 56.98 51.70 L 57.02 52.91 C 54.46 54.48 51.58 56.61 48.40 55.67 C 45.34 55.02 44.70 51.52 43.54 49.11 C 45.80 44.29 46.93 39.08 47.99 33.89 C 48.28 33.67 48.85 33.24 49.14 33.02 M 47.00 52.12 C 49.44 51.51 52.72 51.61 54.03 49.00 C 55.59 46.36 53.53 43.49 52.75 40.94 C 49.23 43.66 46.52 47.44 47.00 52.12 Z" />
</g>
<g id="#203321f8">
<path fill="#203321" opacity="0.97" d=" M 44.37 44.26 C 45.56 40.80 45.65 36.87 47.99 33.89 C 46.93 39.08 45.80 44.29 43.54 49.11 C 42.51 51.78 42.21 54.66 42.22 57.50 C 42.18 62.04 41.53 66.67 42.72 71.12 C 43.88 75.73 47.21 79.33 50.24 82.84 C 55.07 88.22 62.98 87.73 69.56 88.41 C 64.63 89.76 59.50 88.42 54.67 87.31 C 49.26 85.79 47.34 79.94 42.87 77.11 C 40.71 75.55 39.16 73.37 37.82 71.11 C 39.34 65.86 41.12 60.56 41.08 55.03 C 41.14 51.19 43.33 47.86 44.37 44.26 M 39.58 69.51 C 38.98 71.48 40.96 72.92 41.85 74.45 C 41.72 71.43 41.22 68.45 40.57 65.51 C 40.20 66.83 39.84 68.16 39.58 69.51 Z" />
</g>
<g id="#e8ff93ff">
<path fill="#e8ff93" opacity="1.00" d=" M 47.00 52.12 C 46.52 47.44 49.23 43.66 52.75 40.94 C 53.53 43.49 55.59 46.36 54.03 49.00 C 52.72 51.61 49.44 51.51 47.00 52.12 Z" />
</g>
<g id="#bcdf78ff">
<path fill="#bcdf78" opacity="1.00" d=" M 42.22 57.50 C 42.21 54.66 42.51 51.78 43.54 49.11 C 44.70 51.52 45.34 55.02 48.40 55.67 C 51.58 56.61 54.46 54.48 57.02 52.91 C 57.04 54.15 57.04 55.39 57.03 56.62 C 59.33 56.09 61.65 55.57 63.99 55.20 L 64.51 55.79 C 63.93 58.49 63.34 61.20 62.71 63.89 C 64.39 65.27 66.07 66.67 67.81 67.98 C 67.47 68.10 66.78 68.35 66.44 68.47 C 62.94 65.70 59.17 63.25 56.01 60.08 C 55.51 63.01 55.13 65.95 54.75 68.89 C 52.73 69.66 50.70 71.17 48.46 70.77 C 47.25 69.84 46.27 68.67 45.30 67.49 C 47.29 65.52 49.28 63.53 51.28 61.56 C 49.00 59.44 46.88 55.18 43.20 57.01 C 43.92 57.08 45.38 57.22 46.11 57.29 C 47.05 58.56 48.05 59.80 48.82 61.19 C 48.81 63.26 46.46 64.15 45.27 65.54 C 44.62 62.73 43.74 59.97 42.22 57.50 Z" />
</g>
<g id="#525f3aff">
<path fill="#525f3a" opacity="1.00" d=" M 56.44 50.88 C 54.56 49.36 57.43 47.67 57.99 49.97 C 57.60 50.20 56.82 50.65 56.44 50.88 Z" />
</g>
<g id="#f3f3f6ff">
<path fill="#f3f3f6" opacity="1.00" d=" M 56.44 50.88 C 56.82 50.65 57.60 50.20 57.99 49.97 L 58.84 49.66 C 60.34 50.95 61.97 52.10 63.31 53.57 C 62.05 54.24 60.76 54.82 59.47 55.40 C 58.64 54.17 57.82 52.93 56.98 51.70 L 56.44 50.88 Z" />
</g>
<g id="#667a3fff">
<path fill="#667a3f" opacity="1.00" d=" M 43.20 57.01 C 46.88 55.18 49.00 59.44 51.28 61.56 C 49.28 63.53 47.29 65.52 45.30 67.49 C 45.22 67.17 45.06 66.52 44.98 66.19 L 45.27 65.54 C 46.46 64.15 48.81 63.26 48.82 61.19 C 48.05 59.80 47.05 58.56 46.11 57.29 C 45.38 57.22 43.92 57.08 43.20 57.01 Z" />
</g>
<g id="#9cc960ff">
<path fill="#9cc960" opacity="1.00" d=" M 64.51 55.79 C 67.58 59.01 68.03 63.54 68.55 67.74 L 67.81 67.98 C 66.07 66.67 64.39 65.27 62.71 63.89 C 63.34 61.20 63.93 58.49 64.51 55.79 Z" />
</g>
<g id="#7bb149ff">
<path fill="#7bb149" opacity="1.00" d=" M 42.22 57.50 C 43.74 59.97 44.62 62.73 45.27 65.54 L 44.98 66.19 C 43.52 68.10 45.21 70.07 46.62 71.40 C 48.57 73.37 51.45 73.71 54.01 74.37 C 53.90 75.47 53.79 76.58 53.70 77.69 C 56.86 78.62 60.25 79.15 63.06 80.95 C 65.60 83.08 67.48 85.86 69.56 88.41 C 62.98 87.73 55.07 88.22 50.24 82.84 C 47.21 79.33 43.88 75.73 42.72 71.12 C 41.53 66.67 42.18 62.04 42.22 57.50 Z" />
</g>
<g id="#34421eff">
<path fill="#34421e" opacity="1.00" d=" M 54.75 68.89 C 55.13 65.95 55.51 63.01 56.01 60.08 C 59.17 63.25 62.94 65.70 66.44 68.47 C 66.08 72.53 64.74 76.55 65.23 80.64 C 66.35 83.71 69.43 85.37 71.87 87.29 C 73.53 86.54 75.20 85.79 76.86 85.04 C 76.14 84.09 75.43 83.14 74.73 82.19 C 76.57 82.94 78.40 83.71 80.24 84.47 C 76.82 86.15 73.40 87.96 69.56 88.41 C 67.48 85.86 65.60 83.08 63.06 80.95 C 60.25 79.15 56.86 78.62 53.70 77.69 C 53.79 76.58 53.90 75.47 54.01 74.37 C 54.21 72.54 54.48 70.72 54.75 68.89 M 57.22 63.97 C 55.41 65.62 56.23 68.27 55.96 70.43 C 55.61 72.53 55.25 74.62 54.91 76.72 C 57.57 77.46 60.20 78.30 62.93 78.75 C 64.00 76.57 64.59 74.19 65.37 71.91 C 64.81 67.83 60.84 65.02 57.22 63.97 Z" />
</g>
<g id="#bbdf77ff">
<path fill="#bbdf77" opacity="1.00" d=" M 57.22 63.97 C 60.84 65.02 64.81 67.83 65.37 71.91 C 64.76 72.23 63.53 72.88 62.92 73.21 C 60.61 72.26 58.29 71.34 55.96 70.43 C 56.23 68.27 55.41 65.62 57.22 63.97 Z" />
</g>
<g id="#99c75eff">
<path fill="#99c75e" opacity="1.00" d=" M 39.58 69.51 C 39.84 68.16 40.20 66.83 40.57 65.51 C 41.22 68.45 41.72 71.43 41.85 74.45 C 40.96 72.92 38.98 71.48 39.58 69.51 Z" />
<path fill="#99c75e" opacity="1.00" d=" M 46.62 71.40 C 45.21 70.07 43.52 68.10 44.98 66.19 C 45.06 66.52 45.22 67.17 45.30 67.49 C 46.27 68.67 47.25 69.84 48.46 70.77 C 50.70 71.17 52.73 69.66 54.75 68.89 C 54.48 70.72 54.21 72.54 54.01 74.37 C 51.45 73.71 48.57 73.37 46.62 71.40 Z" />
</g>
<g id="#7bb249ff">
<path fill="#7bb249" opacity="1.00" d=" M 67.81 67.98 L 68.55 67.74 C 69.10 70.35 69.67 73.29 71.88 75.05 C 74.61 77.18 77.86 78.48 81.02 79.81 C 81.14 80.83 81.25 81.86 81.35 82.89 C 81.07 83.28 80.52 84.08 80.24 84.47 C 78.40 83.71 76.57 82.94 74.73 82.19 C 75.43 83.14 76.14 84.09 76.86 85.04 C 75.20 85.79 73.53 86.54 71.87 87.29 C 69.43 85.37 66.35 83.71 65.23 80.64 C 64.74 76.55 66.08 72.53 66.44 68.47 C 66.78 68.35 67.47 68.10 67.81 67.98 Z" />
</g>
<g id="#7db34bff">
<path fill="#7db34b" opacity="1.00" d=" M 55.96 70.43 C 58.29 71.34 60.61 72.26 62.92 73.21 C 63.53 72.88 64.76 72.23 65.37 71.91 C 64.59 74.19 64.00 76.57 62.93 78.75 C 60.20 78.30 57.57 77.46 54.91 76.72 C 55.25 74.62 55.61 72.53 55.96 70.43 Z" />
</g>
</svg>
