<?xml version="1.0" encoding="UTF-8" ?>
<!DOCTYPE svg PUBLIC "-//W3C//DTD SVG 1.1//EN" "http://www.w3.org/Graphics/SVG/1.1/DTD/svg11.dtd">
<svg width="96pt" height="96pt" viewBox="0 0 96 96" version="1.1" xmlns="http://www.w3.org/2000/svg">
<g id="#6f3a5ec4">
<path fill="#6f3a5e" opacity="0.77" d=" M 57.95 30.99 C 57.97 28.52 60.97 27.94 62.63 26.76 C 64.39 27.27 66.22 26.83 68.01 27.01 L 67.99 28.20 C 66.14 28.28 64.32 27.92 62.54 27.41 C 62.25 27.91 61.67 28.91 61.38 29.41 C 59.96 29.01 59.21 30.69 57.95 30.99 Z" />
</g>
<g id="#f8a8ccff">
<path fill="#f8a8cc" opacity="1.00" d=" M 61.38 29.41 C 61.67 28.91 62.25 27.91 62.54 27.41 C 64.32 27.92 66.14 28.28 67.99 28.20 C 67.81 28.53 67.44 29.19 67.25 29.51 C 65.94 28.89 64.58 28.74 63.17 29.05 L 62.76 29.90 C 62.35 29.94 61.52 30.02 61.10 30.06 L 60.85 30.95 C 60.20 31.63 59.54 32.30 58.88 32.97 L 58.32 33.15 C 57.93 32.94 57.14 32.51 56.74 32.30 C 57.05 31.97 57.65 31.32 57.95 30.99 C 59.21 30.69 59.96 29.01 61.38 29.41 Z" />
</g>
<g id="#1e0e1bea">
<path fill="#1e0e1b" opacity="0.92" d=" M 67.99 28.20 C 68.56 28.16 69.69 28.08 70.25 28.04 L 69.71 28.85 C 69.74 29.35 69.80 30.35 69.84 30.85 L 68.40 31.18 C 67.69 28.95 64.97 30.41 63.29 30.01 L 62.78 30.97 C 62.30 30.97 61.33 30.96 60.85 30.95 L 61.10 30.06 C 61.52 30.02 62.35 29.94 62.76 29.90 L 63.17 29.05 C 64.58 28.74 65.94 28.89 67.25 29.51 C 67.44 29.19 67.81 28.53 67.99 28.20 Z" />
</g>
<g id="#ee83b4ff">
<path fill="#ee83b4" opacity="1.00" d=" M 69.84 30.85 C 69.80 30.35 69.74 29.35 69.71 28.85 C 70.41 29.50 71.07 30.18 71.70 30.91 C 71.57 32.46 75.59 35.14 72.88 35.96 L 72.32 34.10 C 72.06 34.02 71.55 33.84 71.29 33.76 C 71.98 32.18 70.57 31.89 69.84 30.85 Z" />
<path fill="#ee83b4" opacity="1.00" d=" M 56.18 31.99 L 56.74 32.30 C 57.14 32.51 57.93 32.94 58.32 33.15 C 57.77 34.71 55.52 36.83 57.90 38.09 L 58.47 38.48 C 59.45 40.34 59.51 42.28 59.44 44.53 C 58.46 45.35 58.12 46.40 58.41 47.66 C 57.40 48.01 57.06 48.71 57.39 49.77 C 56.54 50.37 55.73 51.01 54.97 51.67 C 53.69 52.86 52.09 52.96 50.39 52.80 C 51.15 51.63 52.09 51.15 53.21 51.36 C 55.64 49.61 56.36 47.21 57.45 44.65 C 56.82 43.01 58.58 40.39 56.33 39.70 L 56.47 38.57 C 54.84 37.83 54.65 34.17 56.46 33.69 C 56.39 33.27 56.25 32.42 56.18 31.99 Z" />
<path fill="#ee83b4" opacity="1.00" d=" M 73.63 38.26 C 73.97 38.16 74.65 37.96 74.99 37.86 C 74.90 39.81 74.98 41.74 74.96 43.68 C 73.96 44.25 73.58 45.23 73.83 46.60 C 73.48 47.31 72.76 48.72 72.41 49.43 C 72.03 49.88 71.62 50.30 71.17 50.68 C 69.98 51.15 69.23 51.96 68.92 53.10 C 68.69 53.26 68.24 53.57 68.01 53.73 C 67.57 53.87 66.70 54.16 66.26 54.30 C 66.37 53.16 66.37 52.00 65.85 50.94 C 66.89 49.96 67.94 49.79 69.00 50.43 C 69.23 50.14 69.70 49.55 69.94 49.25 C 70.20 48.95 70.73 48.33 70.99 48.03 C 73.02 45.72 74.21 41.91 73.63 38.26 Z" />
<path fill="#ee83b4" opacity="1.00" d=" M 35.91 46.97 C 36.90 45.81 37.87 45.73 38.91 44.98 C 39.36 44.98 40.26 44.99 40.71 45.00 C 41.20 45.22 42.17 45.66 42.66 45.88 L 41.71 46.44 C 41.23 49.50 37.22 48.05 35.86 49.81 L 37.17 49.99 L 36.57 50.74 C 34.47 50.98 32.23 51.61 31.33 53.58 C 31.12 53.24 30.70 52.54 30.50 52.20 C 29.93 50.04 33.64 50.62 33.89 48.56 L 34.31 48.57 C 34.39 48.52 34.54 48.41 34.62 48.35 C 34.94 48.00 35.59 47.31 35.91 46.97 Z" />
<path fill="#ee83b4" opacity="1.00" d=" M 49.29 51.91 C 52.59 53.87 48.90 59.64 53.76 59.80 C 53.68 60.19 53.51 60.96 53.42 61.35 C 53.12 61.72 52.51 62.45 52.21 62.82 C 52.59 64.04 53.21 65.18 53.93 66.23 C 54.85 65.52 57.00 65.76 56.88 64.24 C 55.07 64.29 54.75 61.59 54.29 60.16 L 55.67 61.27 C 54.48 63.33 58.07 63.36 57.74 65.20 C 56.33 65.76 56.71 68.40 54.74 68.11 L 54.62 68.92 C 53.79 68.16 53.23 67.17 52.27 66.54 C 52.31 65.97 52.39 64.84 52.43 64.28 C 51.24 63.45 49.59 62.78 50.70 61.12 L 49.74 60.30 L 48.48 60.61 L 48.32 59.85 C 47.30 58.45 44.73 57.87 43.68 55.95 C 45.01 56.32 46.32 56.98 47.74 56.85 C 49.49 55.85 48.96 53.57 49.29 51.91 Z" />
</g>
<g id="#2c1527de">
<path fill="#2c1527" opacity="0.87" d=" M 71.70 30.91 C 74.11 30.57 73.43 33.69 75.00 34.27 C 75.00 34.87 75.00 36.08 75.00 36.68 C 77.18 37.95 75.48 41.54 75.99 43.77 C 74.93 44.33 74.60 45.32 75.00 46.74 L 74.06 47.26 C 73.64 47.80 72.82 48.89 72.41 49.43 C 72.76 48.72 73.48 47.31 73.83 46.60 C 73.58 45.23 73.96 44.25 74.96 43.68 C 74.98 41.74 74.90 39.81 74.99 37.86 C 74.65 37.96 73.97 38.16 73.63 38.26 C 74.21 41.91 73.02 45.72 70.99 48.03 C 70.99 47.55 71.00 46.59 71.00 46.11 L 72.03 45.71 C 71.52 44.19 71.84 43.20 73.00 42.75 C 72.50 40.90 74.10 37.73 72.01 36.84 C 72.08 36.16 72.24 34.79 72.32 34.10 L 72.88 35.96 C 75.59 35.14 71.57 32.46 71.70 30.91 Z" />
</g>
<g id="#2d1529d5">
<path fill="#2d1529" opacity="0.84" d=" M 58.32 33.15 L 58.88 32.97 C 59.75 34.77 57.40 36.06 57.90 38.09 C 55.52 36.83 57.77 34.71 58.32 33.15 Z" />
</g>
<g id="#ffb4d5ff">
<path fill="#ffb4d5" opacity="1.00" d=" M 36.34 35.43 C 37.43 35.31 38.29 34.78 38.94 33.84 C 39.37 34.17 40.23 34.84 40.66 35.18 C 39.70 35.95 37.13 37.87 39.86 38.31 C 40.22 39.56 40.68 40.78 41.23 41.96 L 41.53 42.45 L 40.91 42.98 C 39.97 43.36 39.30 44.03 38.91 44.98 C 37.87 45.73 36.90 45.81 35.91 46.97 C 35.23 47.04 33.87 47.17 33.20 47.24 L 32.34 47.09 L 31.97 47.80 C 31.55 47.86 30.71 47.98 30.29 48.04 C 27.71 47.48 28.50 44.37 27.02 42.75 C 27.05 42.22 27.11 41.16 27.14 40.63 C 27.76 40.88 29.00 41.36 29.62 41.61 C 30.45 40.54 31.20 39.41 31.81 38.20 C 31.35 38.00 30.43 37.58 29.98 37.37 C 29.54 37.51 28.67 37.77 28.23 37.90 C 28.08 37.18 27.79 35.73 27.64 35.01 L 29.03 34.11 C 29.43 34.42 30.22 35.03 30.62 35.34 C 31.85 36.12 33.49 35.96 34.91 36.15 L 35.64 36.75 C 35.81 36.42 36.17 35.76 36.34 35.43 M 32.68 44.98 C 34.08 45.62 35.32 44.47 36.52 44.23 C 37.29 42.79 36.90 41.67 35.35 40.86 L 36.09 40.49 C 33.43 39.79 31.32 42.97 32.68 44.98 Z" />
<path fill="#ffb4d5" opacity="1.00" d=" M 44.17 45.02 C 45.65 44.56 46.83 45.60 47.96 46.35 L 48.15 47.10 C 45.91 46.14 43.83 47.85 42.27 48.82 C 43.36 49.00 44.46 49.06 45.57 49.00 C 45.87 49.25 46.46 49.76 46.76 50.02 C 47.36 50.81 48.20 51.44 49.29 51.91 C 48.96 53.57 49.49 55.85 47.74 56.85 C 46.32 56.98 45.01 56.32 43.68 55.95 C 43.59 55.36 43.42 54.19 43.33 53.60 C 42.39 55.54 43.77 57.12 43.96 58.93 C 41.66 59.13 39.49 57.52 38.76 55.36 C 37.26 54.18 38.54 51.70 36.57 50.74 L 37.17 49.99 L 35.86 49.81 C 37.22 48.05 41.23 49.50 41.71 46.44 L 42.66 45.88 C 43.04 45.66 43.79 45.24 44.17 45.02 Z" />
<path fill="#ffb4d5" opacity="1.00" d=" M 53.42 61.35 C 53.64 61.05 54.08 60.45 54.29 60.16 C 54.75 61.59 55.07 64.29 56.88 64.24 C 57.00 65.76 54.85 65.52 53.93 66.23 C 53.21 65.18 52.59 64.04 52.21 62.82 C 52.51 62.45 53.12 61.72 53.42 61.35 Z" />
</g>
<g id="#69395bff">
<path fill="#69395b" opacity="1.00" d=" M 26.01 40.27 C 28.68 39.83 25.58 35.55 27.64 35.01 C 27.79 35.73 28.08 37.18 28.23 37.90 C 27.96 38.58 27.41 39.95 27.14 40.63 C 27.11 41.16 27.05 42.22 27.02 42.75 C 27.05 43.33 27.11 44.49 27.14 45.07 C 25.35 44.79 26.40 41.70 26.01 40.27 Z" />
</g>
<g id="#874673ff">
<path fill="#874673" opacity="1.00" d=" M 30.62 35.34 C 31.65 34.81 35.43 34.24 34.91 36.15 C 33.49 35.96 31.85 36.12 30.62 35.34 Z" />
</g>
<g id="#bf6a97ff">
<path fill="#bf6a97" opacity="1.00" d=" M 39.86 38.31 C 37.13 37.87 39.70 35.95 40.66 35.18 C 38.83 38.17 43.40 39.28 41.23 41.96 C 40.68 40.78 40.22 39.56 39.86 38.31 Z" />
</g>
<g id="#ffd5eeff">
<path fill="#ffd5ee" opacity="1.00" d=" M 28.23 37.90 C 28.67 37.77 29.54 37.51 29.98 37.37 C 30.43 37.58 31.35 38.00 31.81 38.20 C 31.20 39.41 30.45 40.54 29.62 41.61 C 29.00 41.36 27.76 40.88 27.14 40.63 C 27.41 39.95 27.96 38.58 28.23 37.90 Z" />
</g>
<g id="#d8dfefff">
<path fill="#d8dfef" opacity="1.00" d=" M 33.43 41.49 C 33.91 41.33 34.87 41.02 35.35 40.86 C 36.90 41.67 37.29 42.79 36.52 44.23 C 36.06 43.67 35.14 42.54 34.68 41.97 C 34.20 42.57 33.24 43.76 32.77 44.36 C 32.93 43.64 33.26 42.20 33.43 41.49 Z" />
</g>
<g id="#b66993ff">
<path fill="#b66993" opacity="1.00" d=" M 27.02 42.75 C 28.50 44.37 27.71 47.48 30.29 48.04 L 30.43 49.09 C 28.95 48.94 28.42 47.35 27.25 46.65 C 27.22 46.26 27.17 45.47 27.14 45.07 C 27.11 44.49 27.05 43.33 27.02 42.75 Z" />
</g>
<g id="#7a79d8ff">
<path fill="#7a79d8" opacity="1.00" d=" M 32.77 44.36 C 33.24 43.76 34.20 42.57 34.68 41.97 C 35.14 42.54 36.06 43.67 36.52 44.23 C 35.32 44.47 34.08 45.62 32.68 44.98 L 32.77 44.36 Z" />
</g>
<g id="#3c1b37ff">
<path fill="#3c1b37" opacity="1.00" d=" M 38.91 44.98 C 39.30 44.03 39.97 43.36 40.91 42.98 C 40.86 43.49 40.76 44.49 40.71 45.00 C 40.26 44.99 39.36 44.98 38.91 44.98 Z" />
</g>
<g id="#673f5eff">
<path fill="#673f5e" opacity="1.00" d=" M 46.25 43.14 C 47.77 43.01 48.00 45.16 47.96 46.35 C 46.83 45.60 45.65 44.56 44.17 45.02 L 43.94 44.43 C 44.52 44.11 45.67 43.46 46.25 43.14 Z" />
</g>
<g id="#2a1426d5">
<path fill="#2a1426" opacity="0.84" d=" M 56.00 45.05 L 57.45 44.65 C 56.36 47.21 55.64 49.61 53.21 51.36 C 52.09 51.15 51.15 51.63 50.39 52.80 C 52.09 52.96 53.69 52.86 54.97 51.67 C 55.35 53.23 53.44 54.37 52.03 54.10 C 52.37 55.48 51.06 57.89 53.08 58.35 L 53.76 59.80 C 48.90 59.64 52.59 53.87 49.29 51.91 C 48.20 51.44 47.36 50.81 46.76 50.02 C 48.76 49.21 50.72 52.89 52.15 50.01 C 54.84 50.71 54.42 47.30 55.99 46.71 C 55.99 46.30 56.00 45.47 56.00 45.05 Z" />
</g>
<g id="#5a2952ff">
<path fill="#5a2952" opacity="1.00" d=" M 32.34 47.09 L 33.20 47.24 L 32.83 47.98 L 31.97 47.80 L 32.34 47.09 Z" />
<path fill="#5a2952" opacity="1.00" d=" M 34.31 48.57 C 34.39 48.52 34.54 48.41 34.62 48.35 C 34.54 48.41 34.39 48.52 34.31 48.57 Z" />
</g>
<g id="#402038ff">
<path fill="#402038" opacity="1.00" d=" M 42.27 48.82 C 43.83 47.85 45.91 46.14 48.15 47.10 L 47.97 47.74 C 47.37 48.05 46.17 48.69 45.57 49.00 C 44.46 49.06 43.36 49.00 42.27 48.82 Z" />
</g>
<g id="#854a73ff">
<path fill="#854a73" opacity="1.00" d=" M 31.35 48.53 C 31.99 48.54 33.25 48.55 33.89 48.56 C 33.64 50.62 29.93 50.04 30.50 52.20 C 27.03 52.00 31.47 50.13 31.35 48.53 Z" />
</g>
<g id="#9d5883ff">
<path fill="#9d5883" opacity="1.00" d=" M 66.42 49.14 C 67.59 49.15 68.76 49.18 69.94 49.25 C 69.70 49.55 69.23 50.14 69.00 50.43 C 67.94 49.79 66.89 49.96 65.85 50.94 C 63.49 51.31 61.15 51.59 59.08 52.90 C 59.30 53.43 59.72 54.48 59.93 55.01 L 60.90 55.97 C 59.39 56.34 57.70 54.75 58.00 53.25 C 58.98 52.73 59.73 51.98 60.23 50.99 C 61.80 51.47 62.78 51.11 63.16 49.91 C 64.57 50.63 65.65 50.37 66.42 49.14 Z" />
</g>
<g id="#4f2842f4">
<path fill="#4f2842" opacity="0.96" d=" M 31.33 53.58 C 32.23 51.61 34.47 50.98 36.57 50.74 C 38.54 51.70 37.26 54.18 38.76 55.36 C 39.49 57.52 41.66 59.13 43.96 58.93 C 43.77 57.12 42.39 55.54 43.33 53.60 C 43.42 54.19 43.59 55.36 43.68 55.95 C 44.73 57.87 47.30 58.45 48.32 59.85 C 47.69 59.85 46.43 59.85 45.80 59.85 C 46.10 60.45 46.72 61.66 47.03 62.26 C 46.83 63.40 46.83 64.54 47.03 65.68 C 46.21 66.66 45.20 67.10 43.98 67.02 L 44.27 66.03 C 44.71 65.99 45.59 65.89 46.04 65.85 C 46.08 63.80 45.53 61.24 43.61 60.15 C 40.64 60.44 38.46 57.40 37.72 54.91 C 34.90 56.06 38.88 58.88 38.49 60.86 L 37.01 59.75 C 37.00 59.37 36.99 58.62 36.99 58.24 C 35.86 57.75 35.54 56.76 36.02 55.27 C 37.09 54.60 37.42 53.55 37.00 52.11 C 34.62 50.78 33.60 53.37 31.33 53.58 Z" />
</g>
<g id="#ffc9e5ff">
<path fill="#ffc9e5" opacity="1.00" d=" M 59.08 52.90 C 61.15 51.59 63.49 51.31 65.85 50.94 C 66.37 52.00 66.37 53.16 66.26 54.30 C 64.42 55.57 61.99 54.74 59.93 55.01 C 59.72 54.48 59.30 53.43 59.08 52.90 Z" />
</g>
<g id="#000000aa">
<path fill="#000000" opacity="0.67" d=" M 68.92 53.10 C 69.23 51.96 69.98 51.15 71.17 50.68 C 71.18 52.23 70.43 53.04 68.92 53.10 Z" />
</g>
<g id="#341b2bff">
<path fill="#341b2b" opacity="1.00" d=" M 59.93 55.01 C 61.99 54.74 64.42 55.57 66.26 54.30 C 66.70 54.16 67.57 53.87 68.01 53.73 L 68.07 54.82 C 67.49 55.12 66.32 55.72 65.74 56.02 C 64.13 55.90 62.51 55.88 60.90 55.97 L 59.93 55.01 Z" />
</g>
<g id="#f699c3ff">
<path fill="#f699c3" opacity="1.00" d=" M 38.49 60.86 C 38.88 58.88 34.90 56.06 37.72 54.91 C 38.46 57.40 40.64 60.44 43.61 60.15 C 43.19 60.34 42.34 60.72 41.91 60.92 C 41.48 60.90 40.62 60.86 40.19 60.84 L 39.56 60.19 C 39.29 60.36 38.76 60.69 38.49 60.86 Z" />
</g>
<g id="#ae5e8fff">
<path fill="#ae5e8f" opacity="1.00" d=" M 43.61 60.15 C 45.53 61.24 46.08 63.80 46.04 65.85 C 45.59 65.89 44.71 65.99 44.27 66.03 C 43.87 65.76 43.09 65.22 42.70 64.95 C 42.95 63.54 42.76 62.10 41.91 60.92 C 42.34 60.72 43.19 60.34 43.61 60.15 Z" />
</g>
<g id="#2d1529ff">
<path fill="#2d1529" opacity="1.00" d=" M 40.19 60.84 C 40.62 60.86 41.48 60.90 41.91 60.92 C 42.76 62.10 42.95 63.54 42.70 64.95 L 42.16 65.03 C 42.26 63.31 40.94 62.51 39.86 61.39 L 40.19 60.84 Z" />
</g>
<g id="#3a2531ff">
<path fill="#3a2531" opacity="1.00" d=" M 54.74 68.11 C 56.71 68.40 56.33 65.76 57.74 65.20 C 59.09 67.10 56.69 69.91 54.62 68.92 L 54.74 68.11 Z" />
</g>
</svg>
