<?xml version="1.0" encoding="UTF-8" ?>
<!DOCTYPE svg PUBLIC "-//W3C//DTD SVG 1.1//EN" "http://www.w3.org/Graphics/SVG/1.1/DTD/svg11.dtd">
<svg width="120pt" height="120pt" viewBox="0 0 120 120" version="1.1" xmlns="http://www.w3.org/2000/svg">
<g id="#bf95bbff">
<path fill="#bf95bb" opacity="1.00" d=" M 26.88 20.47 C 27.80 18.09 27.18 15.40 28.30 13.07 C 29.13 13.97 29.44 15.50 30.71 15.94 C 34.42 15.24 38.24 15.64 41.99 15.47 C 37.45 15.93 32.34 17.89 28.04 15.68 C 27.17 21.32 26.16 28.64 31.42 32.51 C 34.53 33.23 37.72 32.27 40.80 31.78 C 40.53 33.07 40.26 34.36 39.99 35.65 C 41.47 35.20 42.95 34.70 44.44 34.26 C 48.06 39.01 51.68 43.79 55.88 48.05 C 58.58 52.16 60.34 56.82 62.71 61.12 C 63.94 63.03 63.69 65.34 63.78 67.51 C 71.72 64.99 79.44 61.78 86.60 57.50 C 93.77 53.01 100.33 47.00 108.94 45.47 C 110.21 45.84 111.46 46.25 112.70 46.72 C 112.74 48.50 112.82 50.29 112.66 52.07 C 109.03 58.09 101.89 60.12 95.74 62.58 C 85.52 66.09 75.24 69.43 65.00 72.87 C 62.22 73.92 59.06 73.99 56.49 75.48 C 55.54 78.96 54.22 82.42 53.62 85.97 C 54.67 91.65 57.98 96.57 60.99 101.39 C 62.47 101.48 63.96 101.57 65.44 101.69 C 65.38 103.35 66.57 105.63 64.64 106.61 C 60.96 106.83 57.28 106.62 53.60 106.68 C 52.88 103.48 52.26 100.23 51.09 97.15 C 50.16 94.50 46.67 93.85 46.05 90.96 L 46.82 91.49 C 49.61 93.21 51.87 95.77 52.69 98.99 C 53.35 101.17 53.84 103.40 54.67 105.52 C 56.01 105.92 57.41 106.02 58.79 106.20 C 58.97 104.52 59.31 102.84 59.26 101.14 C 58.51 98.78 56.83 96.86 55.63 94.72 C 53.60 91.30 52.49 87.30 53.13 83.31 C 56.72 76.05 54.44 67.44 49.73 61.27 C 47.67 58.87 44.63 57.67 42.30 55.58 C 41.27 53.03 41.29 50.23 41.17 47.53 C 37.39 47.34 33.62 47.34 29.84 47.36 C 30.24 51.04 30.77 55.89 26.36 57.30 C 27.77 56.14 28.99 54.67 29.53 52.91 C 30.09 49.70 27.87 47.03 26.75 44.21 C 26.05 42.48 25.52 40.68 24.95 38.89 C 23.47 41.66 22.00 44.45 20.19 47.02 C 21.87 42.79 24.24 38.88 25.94 34.66 C 27.59 34.56 29.25 34.48 30.90 34.36 C 27.38 30.78 25.19 25.43 26.88 20.47 M 31.16 34.23 C 31.81 34.89 31.81 34.89 31.16 34.23 M 32.07 37.15 C 30.32 35.65 28.21 34.80 25.88 34.91 C 26.12 38.65 27.69 42.21 29.91 45.19 C 31.55 46.28 33.62 45.20 35.40 45.06 C 35.30 43.95 35.20 42.84 35.11 41.73 C 37.38 43.48 39.49 45.76 42.53 46.00 C 43.02 42.36 45.95 38.57 44.05 34.96 C 42.08 35.62 40.06 36.38 38.85 38.19 C 38.08 36.77 37.31 35.36 36.53 33.95 C 34.81 34.67 33.34 35.80 32.07 37.15 M 46.11 38.10 C 45.94 39.89 44.64 42.18 46.37 43.59 C 50.28 47.78 53.69 52.43 56.75 57.26 C 58.28 59.56 58.62 62.63 57.31 65.10 C 58.57 61.35 56.24 57.85 54.10 54.97 C 50.98 50.98 48.35 46.48 44.19 43.44 C 43.27 47.25 41.18 51.05 42.87 54.96 C 45.36 56.46 47.96 57.88 50.01 59.97 C 52.07 61.99 52.86 64.86 54.21 67.33 C 54.72 67.38 55.73 67.49 56.24 67.55 C 56.20 68.13 56.10 69.29 56.05 69.88 C 56.60 69.78 57.69 69.59 58.23 69.49 C 58.30 68.41 58.36 67.33 58.43 66.25 C 59.11 66.08 60.46 65.72 61.14 65.55 C 62.28 67.50 61.75 69.62 61.47 71.71 C 61.82 72.89 62.52 73.12 63.57 72.39 C 64.50 64.08 59.40 57.11 55.93 50.05 C 52.76 45.98 49.11 42.31 46.11 38.10 M 61.35 102.08 C 60.19 103.09 60.17 104.66 59.90 106.06 C 62.04 106.11 64.29 106.06 65.58 104.06 C 64.43 102.93 63.13 101.59 61.35 102.08 Z" />
<path fill="#bf95bb" opacity="1.00" d=" M 43.17 13.23 C 44.41 13.35 45.65 13.45 46.89 13.53 C 45.72 16.57 44.24 19.65 44.69 23.01 C 45.04 25.90 44.25 28.67 43.17 31.31 C 43.60 25.77 44.54 20.27 44.76 14.72 C 44.50 14.47 43.98 13.98 43.72 13.73 L 43.17 13.23 Z" />
<path fill="#bf95bb" opacity="1.00" d=" M 39.28 26.29 C 39.83 26.80 39.83 26.80 39.28 26.29 Z" />
<path fill="#bf95bb" opacity="1.00" d=" M 37.12 27.41 C 38.47 26.46 39.85 28.81 38.68 29.75 C 37.32 30.72 35.94 28.36 37.12 27.41 Z" />
<path fill="#bf95bb" opacity="1.00" d=" M 20.88 54.02 C 22.01 51.47 23.34 49.02 25.01 46.79 C 23.98 49.37 23.08 52.16 20.88 54.02 Z" />
<path fill="#bf95bb" opacity="1.00" d=" M 13.76 69.02 C 12.19 63.47 15.40 58.06 19.92 55.00 C 16.60 58.49 15.01 63.07 14.47 67.78 C 17.10 68.39 18.13 65.96 19.34 64.18 C 18.33 66.52 17.49 69.16 15.14 70.50 C 16.68 74.52 15.83 79.12 17.97 83.02 C 19.12 86.03 20.17 89.08 21.31 92.10 C 20.29 92.20 19.24 92.28 18.30 92.73 C 18.53 90.49 18.66 88.23 18.46 85.99 C 17.68 84.09 16.59 82.33 15.76 80.45 C 15.02 77.77 16.21 74.79 14.93 72.23 C 13.09 72.25 11.29 72.69 9.46 72.85 C 9.97 68.98 8.23 64.37 11.15 61.20 C 10.62 63.30 10.25 65.43 9.90 67.56 C 11.19 68.04 12.47 68.53 13.76 69.02 M 10.29 70.25 C 9.11 71.73 11.77 73.22 12.77 71.88 C 13.95 70.38 11.30 68.94 10.29 70.25 Z" />
<path fill="#bf95bb" opacity="1.00" d=" M 34.65 56.50 C 38.02 54.88 42.48 57.14 43.38 60.72 C 45.03 66.58 43.00 72.99 45.43 78.72 C 46.62 80.65 48.60 81.91 50.28 83.39 C 50.05 85.77 50.24 88.55 48.15 90.20 C 48.80 88.31 50.25 86.20 49.27 84.18 C 47.99 82.79 46.54 81.56 45.12 80.32 C 41.35 82.46 37.80 86.21 33.11 85.64 C 29.68 85.62 27.85 82.25 25.42 80.37 C 27.87 73.76 28.08 66.64 29.41 59.80 C 30.77 58.20 32.76 57.31 34.65 56.50 Z" />
<path fill="#bf95bb" opacity="1.00" d=" M 21.50 83.36 L 22.28 83.45 C 23.31 85.50 24.53 87.47 26.61 88.60 C 26.64 90.49 26.64 92.38 26.66 94.27 C 25.08 95.21 23.90 96.61 22.92 98.14 C 22.80 93.15 25.07 87.72 21.50 83.36 M 25.27 90.33 C 23.59 90.56 23.31 93.70 25.11 93.92 C 26.80 93.71 27.07 90.55 25.27 90.33 Z" />
<path fill="#bf95bb" opacity="1.00" d=" M 7.25 101.48 C 9.77 101.87 12.24 101.41 13.95 99.40 C 14.61 100.64 15.28 101.88 15.94 103.12 C 14.40 102.94 12.85 102.75 11.31 102.56 C 11.22 103.66 11.13 104.77 11.04 105.88 C 13.43 105.96 15.83 106.05 18.21 106.30 C 13.95 107.11 9.58 106.55 5.28 106.65 C 5.44 105.44 5.59 104.24 5.77 103.04 C 5.90 103.77 6.15 105.23 6.28 105.96 C 7.48 105.97 8.68 105.97 9.88 105.98 C 9.92 104.67 9.95 103.37 9.99 102.07 C 9.31 102.11 7.96 102.19 7.29 102.23 L 7.25 101.48 Z" />
</g>
<g id="#ebe6f0ff">
<path fill="#ebe6f0" opacity="1.00" d=" M 43.72 13.73 C 43.98 13.98 44.50 14.47 44.76 14.72 C 44.54 20.27 43.60 25.77 43.17 31.31 C 42.57 31.43 41.39 31.66 40.80 31.78 C 37.72 32.27 34.53 33.23 31.42 32.51 C 26.16 28.64 27.17 21.32 28.04 15.68 C 32.34 17.89 37.45 15.93 41.99 15.47 C 42.42 15.03 43.29 14.17 43.72 13.73 M 39.28 26.29 C 39.83 26.80 39.83 26.80 39.28 26.29 M 37.12 27.41 C 35.94 28.36 37.32 30.72 38.68 29.75 C 39.85 28.81 38.47 26.46 37.12 27.41 Z" />
<path fill="#ebe6f0" opacity="1.00" d=" M 25.88 34.91 C 28.21 34.80 30.32 35.65 32.07 37.15 C 33.81 38.59 36.00 39.25 38.25 38.84 L 38.85 38.19 C 40.06 36.38 42.08 35.62 44.05 34.96 C 45.95 38.57 43.02 42.36 42.53 46.00 C 39.49 45.76 37.38 43.48 35.11 41.73 C 35.20 42.84 35.30 43.95 35.40 45.06 C 33.62 45.20 31.55 46.28 29.91 45.19 C 27.69 42.21 26.12 38.65 25.88 34.91 Z" />
<path fill="#ebe6f0" opacity="1.00" d=" M 46.11 38.10 C 49.11 42.31 52.76 45.98 55.93 50.05 C 59.40 57.11 64.50 64.08 63.57 72.39 C 62.52 73.12 61.82 72.89 61.47 71.71 C 61.75 69.62 62.28 67.50 61.14 65.55 C 60.46 65.72 59.11 66.08 58.43 66.25 C 58.36 67.33 58.30 68.41 58.23 69.49 C 57.69 69.59 56.60 69.78 56.05 69.88 C 56.10 69.29 56.20 68.13 56.24 67.55 C 56.51 66.94 57.04 65.71 57.31 65.10 C 58.62 62.63 58.28 59.56 56.75 57.26 C 53.69 52.43 50.28 47.78 46.37 43.59 C 44.64 42.18 45.94 39.89 46.11 38.10 Z" />
<path fill="#ebe6f0" opacity="1.00" d=" M 20.19 47.02 C 22.00 44.45 23.47 41.66 24.95 38.89 C 25.52 40.68 26.05 42.48 26.75 44.21 C 26.31 44.86 25.45 46.15 25.01 46.79 C 23.34 49.02 22.01 51.47 20.88 54.02 C 20.64 54.26 20.16 54.75 19.92 55.00 C 15.40 58.06 12.19 63.47 13.76 69.02 C 12.47 68.53 11.19 68.04 9.90 67.56 C 10.25 65.43 10.62 63.30 11.15 61.20 C 14.85 56.92 16.64 51.42 20.19 47.02 Z" />
<path fill="#ebe6f0" opacity="1.00" d=" M 29.84 47.36 C 33.62 47.34 37.39 47.34 41.17 47.53 C 41.29 50.23 41.27 53.03 42.30 55.58 C 44.63 57.67 47.67 58.87 49.73 61.27 C 54.44 67.44 56.72 76.05 53.13 83.31 C 52.42 83.33 51.00 83.37 50.28 83.39 C 48.60 81.91 46.62 80.65 45.43 78.72 C 43.00 72.99 45.03 66.58 43.38 60.72 C 42.48 57.14 38.02 54.88 34.65 56.50 C 32.76 57.31 30.77 58.20 29.41 59.80 C 28.08 66.64 27.87 73.76 25.42 80.37 C 24.60 81.62 23.55 82.65 22.28 83.45 L 21.50 83.36 C 20.32 83.24 19.14 83.13 17.97 83.02 C 15.83 79.12 16.68 74.52 15.14 70.50 C 17.49 69.16 18.33 66.52 19.34 64.18 C 20.78 61.06 23.30 58.78 26.36 57.30 C 30.77 55.89 30.24 51.04 29.84 47.36 Z" />
<path fill="#ebe6f0" opacity="1.00" d=" M 10.29 70.25 C 11.30 68.94 13.95 70.38 12.77 71.88 C 11.77 73.22 9.11 71.73 10.29 70.25 Z" />
<path fill="#ebe6f0" opacity="1.00" d=" M 52.69 98.99 C 53.65 97.56 54.63 96.13 55.63 94.72 C 56.83 96.86 58.51 98.78 59.26 101.14 C 59.31 102.84 58.97 104.52 58.79 106.20 C 57.41 106.02 56.01 105.92 54.67 105.52 C 53.84 103.40 53.35 101.17 52.69 98.99 Z" />
<path fill="#ebe6f0" opacity="1.00" d=" M 17.07 95.70 C 18.86 96.40 20.65 97.13 22.41 97.91 L 21.94 98.62 C 20.59 100.56 19.51 102.67 18.73 104.90 C 18.60 105.25 18.34 105.95 18.21 106.30 C 15.83 106.05 13.43 105.96 11.04 105.88 C 11.13 104.77 11.22 103.66 11.31 102.56 C 12.85 102.75 14.40 102.94 15.94 103.12 C 15.28 101.88 14.61 100.64 13.95 99.40 C 15.02 98.19 16.11 97.00 17.07 95.70 Z" />
<path fill="#ebe6f0" opacity="1.00" d=" M 7.29 102.23 C 7.96 102.19 9.31 102.11 9.99 102.07 C 9.95 103.37 9.92 104.67 9.88 105.98 C 8.68 105.97 7.48 105.97 6.28 105.96 C 6.15 105.23 5.90 103.77 5.77 103.04 C 6.15 102.83 6.91 102.43 7.29 102.23 Z" />
<path fill="#ebe6f0" opacity="1.00" d=" M 61.35 102.08 C 63.13 101.59 64.43 102.93 65.58 104.06 C 64.29 106.06 62.04 106.11 59.90 106.06 C 60.17 104.66 60.19 103.09 61.35 102.08 Z" />
</g>
<g id="#c3bcc0ff">
<path fill="#c3bcc0" opacity="1.00" d=" M 32.07 37.15 C 33.34 35.80 34.81 34.67 36.53 33.95 C 37.31 35.36 38.08 36.77 38.85 38.19 L 38.25 38.84 C 36.00 39.25 33.81 38.59 32.07 37.15 Z" />
<path fill="#c3bcc0" opacity="1.00" d=" M 17.97 83.02 C 19.14 83.13 20.32 83.24 21.50 83.36 C 25.07 87.72 22.80 93.15 22.92 98.14 L 22.41 97.91 C 20.65 97.13 18.86 96.40 17.07 95.70 C 17.32 94.63 17.73 93.64 18.30 92.73 C 19.24 92.28 20.29 92.20 21.31 92.10 C 20.17 89.08 19.12 86.03 17.97 83.02 Z" />
<path fill="#c3bcc0" opacity="1.00" d=" M 50.28 83.39 C 51.00 83.37 52.42 83.33 53.13 83.31 C 52.49 87.30 53.60 91.30 55.63 94.72 C 54.63 96.13 53.65 97.56 52.69 98.99 C 51.87 95.77 49.61 93.21 46.82 91.49 C 47.15 91.17 47.82 90.52 48.15 90.20 C 50.24 88.55 50.05 85.77 50.28 83.39 Z" />
<path fill="#c3bcc0" opacity="1.00" d=" M 25.27 90.33 C 27.07 90.55 26.80 93.71 25.11 93.92 C 23.31 93.70 23.59 90.56 25.27 90.33 Z" />
<path fill="#c3bcc0" opacity="1.00" d=" M 18.73 104.90 C 19.51 102.67 20.59 100.56 21.94 98.62 C 21.34 100.92 20.42 103.17 18.73 104.90 Z" />
</g>
</svg>
