<?xml version="1.0" encoding="UTF-8" ?>
<!DOCTYPE svg PUBLIC "-//W3C//DTD SVG 1.1//EN" "http://www.w3.org/Graphics/SVG/1.1/DTD/svg11.dtd">
<svg width="175pt" height="120pt" viewBox="0 0 175 120" version="1.1" xmlns="http://www.w3.org/2000/svg">
<g id="#5d4119ff">
<path fill="#5d4119" opacity="1.00" d=" M 72.76 10.17 C 73.99 10.05 75.21 9.96 76.44 9.89 C 75.63 10.77 74.82 11.65 74.00 12.52 C 73.98 13.75 73.97 14.98 73.96 16.21 C 76.26 16.03 78.72 14.65 80.93 15.96 C 78.44 16.38 75.92 16.66 73.42 17.05 C 73.40 14.88 73.49 12.71 73.65 10.54 L 71.95 10.81 L 72.76 10.17 Z" />
<path fill="#5d4119" opacity="1.00" d=" M 70.23 16.71 C 70.38 16.92 70.69 17.33 70.85 17.54 L 70.18 17.60 C 68.46 18.17 68.65 20.27 68.85 21.69 C 67.27 24.96 67.86 28.68 67.82 32.17 C 70.05 30.34 72.35 28.61 74.65 26.89 C 75.08 27.36 75.92 28.30 76.34 28.77 C 76.62 29.08 77.17 29.70 77.44 30.01 C 78.14 29.25 78.85 28.50 79.54 27.74 C 80.68 28.59 81.85 29.43 82.95 30.34 L 82.80 31.11 C 80.87 29.93 79.09 30.84 77.65 32.34 C 78.07 34.23 78.55 36.10 79.09 37.97 C 82.11 38.44 85.10 38.99 88.13 39.35 C 88.54 39.03 89.34 38.37 89.74 38.04 C 91.87 38.11 93.99 38.15 96.12 38.20 C 96.52 37.93 97.33 37.39 97.73 37.13 C 103.89 37.54 109.87 35.75 115.94 35.17 C 118.79 35.38 121.35 36.85 123.92 37.95 C 126.15 38.36 128.55 39.56 130.68 38.19 C 132.81 41.93 137.80 42.72 141.74 43.02 C 141.35 44.42 142.68 45.26 143.79 45.66 C 144.18 45.85 144.96 46.25 145.35 46.44 C 146.13 46.95 146.89 47.48 147.64 48.03 C 150.99 50.56 154.49 52.94 157.43 55.97 C 157.93 55.65 158.93 55.00 159.43 54.68 C 159.08 55.14 158.38 56.06 158.03 56.52 C 160.12 59.90 162.73 63.01 163.99 66.84 C 159.46 62.34 156.77 56.15 151.46 52.42 C 143.49 46.47 134.55 41.73 124.91 39.21 C 121.83 38.49 119.05 36.83 115.94 36.26 C 110.93 36.66 106.02 37.99 100.98 38.02 C 99.42 38.02 97.86 38.24 96.40 38.81 C 93.72 39.04 90.94 38.82 88.40 39.87 C 86.58 40.02 84.76 40.03 82.94 40.06 C 82.49 39.76 81.60 39.17 81.16 38.87 L 80.15 40.16 C 77.13 38.65 76.96 35.07 76.91 32.12 L 75.69 32.01 L 75.05 31.94 C 75.39 31.44 76.07 30.44 76.41 29.94 C 73.37 27.81 70.83 30.99 68.48 32.63 C 69.57 34.33 71.23 35.19 73.23 35.35 C 73.51 35.45 74.07 35.65 74.35 35.76 L 73.37 36.29 C 72.80 37.20 72.25 38.12 71.72 39.05 C 72.43 39.85 73.15 40.64 73.86 41.44 C 73.90 42.18 73.97 43.66 74.01 44.40 C 73.05 42.73 71.86 41.22 70.66 39.72 C 69.28 40.96 67.89 42.17 66.52 43.40 C 68.64 44.03 70.76 44.66 72.88 45.26 C 72.91 45.62 72.96 46.34 72.99 46.70 C 73.00 49.74 73.63 52.71 74.44 55.62 C 75.44 58.91 74.46 62.60 76.20 65.68 C 77.09 67.78 78.86 69.25 80.65 70.56 C 80.87 71.01 81.31 71.90 81.53 72.35 C 82.29 70.42 83.09 68.50 84.07 66.67 C 84.00 68.21 83.91 69.75 83.83 71.29 C 83.37 72.63 82.95 73.98 82.51 75.33 C 81.64 78.20 82.68 81.07 83.22 83.89 C 82.67 83.93 81.57 84.03 81.02 84.08 C 81.01 86.27 80.97 88.46 80.84 90.64 C 79.20 89.22 78.11 87.33 77.02 85.48 C 77.00 87.06 76.99 88.64 76.98 90.22 C 75.67 89.71 74.37 89.18 73.06 88.66 C 73.08 87.23 73.10 85.80 73.11 84.36 C 74.88 82.58 76.75 80.87 78.89 79.53 C 79.44 76.92 79.97 74.31 80.26 71.66 C 78.40 70.62 76.50 69.40 75.64 67.36 C 73.54 64.06 74.44 60.00 73.50 56.37 C 72.57 53.59 72.03 50.69 72.08 47.75 C 70.29 48.84 68.32 50.75 66.16 49.22 C 65.95 49.51 65.55 50.08 65.34 50.36 L 65.04 49.81 C 66.27 48.44 67.55 47.11 68.81 45.77 C 66.99 45.51 65.18 45.30 63.36 45.12 C 63.06 44.62 62.46 43.62 62.16 43.12 C 61.67 43.56 60.68 44.45 60.19 44.89 C 59.41 44.67 57.85 44.21 57.07 43.99 C 56.71 44.46 56.00 45.42 55.64 45.89 L 55.54 45.83 C 53.92 44.57 52.12 43.57 50.04 43.38 C 47.10 46.10 43.07 46.83 39.37 47.97 C 36.40 50.58 33.01 52.64 29.82 54.96 C 30.53 55.96 31.24 56.96 31.95 57.97 C 29.97 61.01 28.45 64.75 24.86 66.23 C 23.00 70.00 23.88 74.26 23.46 78.28 C 23.17 78.76 22.58 79.71 22.28 80.18 C 21.73 81.10 21.22 82.06 20.77 83.03 C 19.77 82.21 18.76 81.40 17.76 80.58 C 16.76 82.69 16.60 85.02 16.54 87.32 C 16.48 88.20 16.42 89.07 16.32 89.95 C 14.90 91.45 13.63 93.08 12.66 94.91 L 12.08 94.98 C 11.57 93.79 11.06 92.60 10.55 91.40 C 9.66 92.40 8.77 93.39 7.84 94.35 C 7.58 94.59 7.05 95.08 6.79 95.33 C 6.00 95.47 5.21 95.59 4.41 95.69 C 4.10 95.46 3.49 95.00 3.19 94.77 L 2.70 93.68 L 4.70 93.97 C 5.11 93.47 5.95 92.46 6.36 91.96 C 6.75 92.29 7.53 92.94 7.92 93.26 C 9.35 90.19 10.62 87.04 12.01 83.95 L 12.96 84.36 C 12.94 85.34 12.90 86.32 12.84 87.30 C 12.20 89.00 12.01 90.81 11.83 92.60 C 12.90 91.27 13.93 89.91 14.97 88.56 C 14.53 84.42 15.51 80.32 18.78 77.55 C 18.86 78.26 19.03 79.69 19.11 80.40 C 20.08 79.49 21.06 78.57 22.04 77.66 C 22.05 74.56 21.72 71.41 22.29 68.34 C 22.88 66.10 24.88 64.79 26.60 63.46 C 27.89 61.64 29.11 59.77 30.31 57.88 C 29.50 57.08 28.69 56.29 27.87 55.49 C 30.46 52.80 33.41 50.49 36.62 48.59 C 37.12 47.81 37.62 47.04 38.12 46.27 C 41.37 45.67 44.54 44.75 47.68 43.74 C 48.10 43.31 48.96 42.44 49.39 42.01 C 50.79 41.99 52.20 41.96 53.61 41.94 C 54.07 42.49 54.99 43.57 55.46 44.11 C 56.00 43.54 56.54 42.97 57.08 42.40 C 58.90 42.87 60.71 42.67 62.38 41.81 C 62.72 41.85 63.39 41.95 63.72 41.99 C 64.28 40.66 64.83 39.33 65.38 38.00 C 58.39 38.34 51.13 37.01 44.40 39.46 C 45.68 38.34 47.08 37.00 48.92 37.17 C 54.33 37.01 59.74 37.21 65.15 37.14 C 65.14 34.91 65.13 32.67 65.11 30.43 C 65.56 29.99 66.46 29.12 66.91 28.68 C 66.98 26.52 66.95 24.30 67.80 22.26 C 67.92 20.55 67.98 18.84 68.04 17.13 C 68.59 17.03 69.68 16.82 70.23 16.71 M 66.17 33.25 C 64.66 36.31 69.42 33.43 66.17 33.25 M 63.91 44.60 C 66.42 41.94 69.36 39.79 72.23 37.56 C 70.95 36.58 69.64 35.64 68.34 34.68 C 66.40 37.76 64.94 41.11 63.91 44.60 M 68.24 47.09 C 68.48 50.33 71.30 45.56 68.24 47.09 M 81.14 73.40 C 79.72 76.49 84.41 73.47 81.14 73.40 M 77.23 81.36 C 77.20 83.91 81.99 82.51 80.68 80.13 C 79.47 79.65 78.22 80.79 77.23 81.36 M 76.15 84.29 C 76.72 84.76 76.72 84.76 76.15 84.29 Z" />
<path fill="#5d4119" opacity="1.00" d=" M 85.86 20.93 C 87.29 21.52 87.60 22.52 86.78 23.93 L 86.18 23.61 C 86.10 22.94 85.94 21.60 85.86 20.93 Z" />
<path fill="#5d4119" opacity="1.00" d=" M 88.45 24.90 C 90.61 25.19 89.93 28.44 88.00 26.65 C 88.11 26.21 88.34 25.34 88.45 24.90 Z" />
<path fill="#5d4119" opacity="1.00" d=" M 40.41 39.99 C 41.10 39.96 42.49 39.91 43.19 39.88 C 42.09 41.66 40.05 42.23 38.07 42.13 C 38.74 41.30 39.53 40.58 40.41 39.99 Z" />
<path fill="#5d4119" opacity="1.00" d=" M 113.97 43.03 C 115.89 41.71 117.87 40.47 120.00 39.51 C 120.87 40.11 121.71 40.73 122.54 41.39 C 131.49 41.89 139.19 46.87 146.50 51.58 C 147.97 54.85 150.30 57.60 153.00 59.91 C 156.32 62.83 157.26 67.39 157.15 71.62 C 157.61 72.07 158.53 72.96 159.00 73.41 C 159.00 74.11 159.01 75.51 159.01 76.21 C 159.47 75.86 160.39 75.16 160.85 74.81 C 161.54 78.34 162.26 81.88 163.24 85.35 C 164.17 84.87 165.10 84.39 166.03 83.91 C 166.03 84.55 166.05 85.83 166.06 86.48 C 167.40 88.19 168.74 89.91 170.15 91.57 C 169.83 89.97 169.49 88.37 169.13 86.78 C 169.22 85.73 169.32 84.68 169.41 83.64 C 168.80 82.06 168.17 80.49 167.62 78.89 C 166.55 74.87 165.14 70.95 163.21 67.26 L 164.47 66.83 C 166.94 71.57 168.23 76.79 170.28 81.71 C 171.15 83.84 170.85 86.20 171.28 88.42 C 172.22 90.68 173.80 92.60 175.00 94.72 L 175.00 94.88 C 174.47 94.95 173.40 95.09 172.87 95.16 C 172.96 94.58 173.15 93.43 173.24 92.86 C 172.74 93.11 171.73 93.63 171.22 93.89 C 169.60 92.68 168.01 91.45 166.45 90.17 C 166.14 90.32 165.50 90.61 165.18 90.75 C 164.55 90.10 163.91 89.44 163.28 88.79 C 162.90 87.73 162.52 86.67 162.13 85.61 C 161.47 83.92 161.01 82.16 160.67 80.38 C 159.77 79.12 158.86 77.87 157.95 76.62 C 157.96 76.08 157.97 74.99 157.98 74.45 C 157.51 74.03 156.56 73.19 156.09 72.77 C 155.99 70.63 155.83 68.49 155.35 66.41 C 155.23 65.92 154.99 64.95 154.87 64.47 C 151.64 60.89 148.25 57.48 145.46 53.54 C 138.84 48.31 131.00 44.26 122.45 43.61 C 121.29 42.87 120.15 42.12 119.00 41.38 C 117.85 42.52 116.70 43.65 115.55 44.78 C 112.27 44.66 108.98 44.72 105.73 44.16 C 103.84 43.58 102.19 44.86 100.54 45.55 C 99.84 45.31 98.43 44.81 97.73 44.57 C 98.02 45.15 98.62 46.33 98.92 46.91 L 97.40 47.17 L 97.36 46.73 C 97.26 46.86 97.06 47.12 96.96 47.25 C 95.98 46.77 95.01 46.30 94.03 45.84 C 91.46 52.28 96.01 58.55 96.28 65.01 C 96.61 65.00 97.26 64.98 97.59 64.98 C 96.88 65.91 96.19 66.87 95.73 67.96 C 95.50 68.97 95.29 69.98 95.10 70.99 C 94.57 74.02 93.80 77.00 92.94 79.95 C 93.95 81.41 94.97 82.88 95.91 84.40 C 95.80 85.53 95.71 86.65 95.64 87.78 C 95.02 88.38 94.41 88.98 93.79 89.59 C 93.37 89.48 92.53 89.26 92.10 89.15 C 91.66 89.56 90.78 90.38 90.33 90.79 C 89.75 89.87 89.25 88.90 88.75 87.95 C 87.83 88.44 86.92 88.92 86.00 89.40 C 86.20 86.02 86.79 82.69 87.14 79.33 C 87.46 79.75 88.11 80.59 88.43 81.01 C 88.75 80.66 89.40 79.96 89.73 79.61 C 89.96 77.61 90.28 75.61 90.86 73.68 C 90.12 72.48 89.39 71.28 88.56 70.14 C 87.78 69.50 87.00 68.87 86.21 68.24 C 86.17 67.64 86.09 66.44 86.05 65.84 C 85.56 66.05 84.57 66.46 84.07 66.67 C 82.97 66.11 81.87 65.56 80.77 65.02 C 82.65 65.02 84.52 65.02 86.40 65.02 C 88.30 67.53 89.94 70.37 92.53 72.23 C 93.30 70.34 93.89 68.40 94.54 66.47 L 94.90 65.43 C 94.99 59.97 92.50 54.83 91.65 49.46 L 90.52 48.81 C 90.87 44.32 96.05 44.86 99.08 43.04 C 99.44 43.20 100.14 43.50 100.50 43.66 C 104.18 40.69 108.54 43.60 112.65 42.54 C 112.98 42.66 113.64 42.91 113.97 43.03 M 164.24 87.15 C 164.56 90.42 167.20 85.53 164.24 87.15 Z" />
<path fill="#5d4119" opacity="1.00" d=" M 143.16 41.61 C 143.96 40.92 144.90 40.27 145.99 40.22 C 145.96 40.84 145.88 42.07 145.85 42.68 C 145.46 42.70 144.69 42.73 144.30 42.75 C 144.02 42.47 143.45 41.89 143.16 41.61 Z" />
<path fill="#5d4119" opacity="1.00" d=" M 146.20 44.00 C 146.50 42.80 146.66 38.81 148.62 40.42 C 148.46 41.72 148.03 42.92 147.32 44.00 C 147.04 44.00 146.48 44.00 146.20 44.00 Z" />
<path fill="#5d4119" opacity="1.00" d=" M 148.62 40.42 C 150.07 41.59 151.58 42.68 153.17 43.67 C 152.77 44.34 152.37 45.01 151.97 45.68 C 152.33 45.96 153.05 46.51 153.41 46.79 C 152.49 46.94 150.66 47.24 149.75 47.39 C 150.30 46.69 151.41 45.29 151.97 44.59 C 150.84 43.21 149.72 41.82 148.62 40.42 Z" />
<path fill="#5d4119" opacity="1.00" d=" M 27.84 47.10 C 29.97 44.24 33.58 43.37 36.85 42.53 C 34.10 44.53 30.84 45.58 27.84 47.10 Z" />
<path fill="#5d4119" opacity="1.00" d=" M 98.35 48.20 C 100.53 50.24 102.79 47.89 104.56 46.58 C 103.63 47.66 102.69 48.73 101.74 49.80 C 99.99 50.02 98.27 50.45 96.63 51.14 C 97.23 50.17 97.80 49.19 98.35 48.20 Z" />
<path fill="#5d4119" opacity="1.00" d=" M 105.86 46.90 C 108.20 48.08 110.73 48.78 113.22 49.56 L 113.59 49.84 C 112.33 50.15 111.09 50.55 109.85 50.95 C 109.89 50.45 109.98 49.44 110.02 48.94 C 108.74 48.96 107.47 48.99 106.19 49.02 C 106.11 48.49 105.94 47.43 105.86 46.90 Z" />
<path fill="#5d4119" opacity="1.00" d=" M 155.25 47.11 C 158.31 45.56 155.48 50.35 155.25 47.11 Z" />
<path fill="#5d4119" opacity="1.00" d=" M 19.86 55.21 C 20.98 51.94 23.62 49.09 26.95 48.02 L 26.47 48.51 C 24.42 50.44 22.49 52.48 20.57 54.53 L 19.86 55.21 Z" />
<path fill="#5d4119" opacity="1.00" d=" M 60.71 50.85 C 61.66 49.69 62.58 48.50 63.52 47.32 C 63.12 49.49 62.32 51.54 61.30 53.50 C 61.08 52.72 60.63 51.16 60.40 50.38 C 60.29 50.02 60.08 49.30 59.97 48.93 L 60.71 50.85 Z" />
<path fill="#5d4119" opacity="1.00" d=" M 123.23 48.05 C 125.50 50.10 128.54 50.31 131.40 50.83 C 131.81 50.61 132.63 50.17 133.04 49.95 C 133.21 51.13 133.38 52.31 133.65 53.47 C 133.87 53.64 134.32 53.98 134.54 54.15 C 134.99 54.47 135.89 55.12 136.34 55.44 C 136.92 55.98 138.08 57.05 138.66 57.58 C 137.77 57.16 136.01 56.31 135.12 55.88 C 134.00 56.32 132.88 56.79 131.77 57.27 C 132.59 56.34 132.91 55.33 132.72 54.24 C 131.67 54.09 130.61 53.98 129.56 53.92 C 129.09 54.57 128.16 55.87 127.69 56.52 C 128.21 54.68 129.71 53.14 129.77 51.19 C 127.96 50.51 126.08 51.29 124.31 51.69 C 123.59 51.10 122.87 50.52 122.14 49.95 C 122.42 49.48 122.96 48.53 123.23 48.05 Z" />
<path fill="#5d4119" opacity="1.00" d=" M 54.87 50.85 C 55.89 50.65 56.91 50.50 57.93 50.38 C 57.51 51.59 57.18 52.82 56.73 54.02 C 55.46 53.55 54.61 52.20 54.87 50.85 Z" />
<path fill="#5d4119" opacity="1.00" d=" M 115.35 51.28 C 117.02 51.32 118.70 51.26 120.37 51.12 L 119.44 51.62 C 118.98 51.78 118.05 52.09 117.59 52.25 C 116.21 52.92 114.82 53.59 113.43 54.24 C 114.02 53.22 114.66 52.23 115.35 51.28 Z" />
<path fill="#5d4119" opacity="1.00" d=" M 44.45 54.31 C 44.87 54.57 45.71 55.08 46.13 55.34 C 44.99 56.28 43.84 57.21 42.71 58.16 C 42.81 57.59 43.01 56.47 43.12 55.91 C 42.64 55.97 41.68 56.09 41.20 56.15 C 42.29 55.55 43.37 54.92 44.45 54.31 Z" />
<path fill="#5d4119" opacity="1.00" d=" M 48.26 54.43 L 49.10 54.32 C 48.78 54.77 48.12 55.67 47.79 56.12 C 47.91 55.69 48.14 54.85 48.26 54.43 Z" />
<path fill="#5d4119" opacity="1.00" d=" M 12.48 65.40 C 14.55 62.25 16.05 58.62 18.94 56.08 C 15.80 61.61 12.95 67.33 9.62 72.74 C 10.11 70.14 11.01 67.62 12.48 65.40 Z" />
<path fill="#5d4119" opacity="1.00" d=" M 38.68 58.19 C 38.67 57.90 38.66 57.32 38.65 57.03 C 38.94 57.67 39.52 58.94 39.81 59.57 C 39.89 60.04 40.06 60.97 40.15 61.44 C 40.81 62.97 41.45 64.50 42.13 66.03 C 40.51 66.01 38.89 65.98 37.27 66.07 C 38.32 65.61 39.39 65.22 40.49 64.88 C 39.82 62.67 39.09 60.47 38.68 58.19 Z" />
<path fill="#5d4119" opacity="1.00" d=" M 141.43 57.77 C 141.73 58.82 142.03 59.88 142.34 60.94 C 144.41 61.15 146.47 61.42 148.52 61.79 C 145.57 61.86 142.49 61.74 139.75 63.03 C 140.34 61.28 140.90 59.53 141.43 57.77 Z" />
<path fill="#5d4119" opacity="1.00" d=" M 41.21 59.24 C 41.80 59.82 41.80 59.82 41.21 59.24 Z" />
<path fill="#5d4119" opacity="1.00" d=" M 145.86 64.52 C 146.41 64.06 146.96 63.59 147.50 63.12 C 148.23 64.36 149.01 65.57 149.79 66.78 C 149.63 67.65 149.48 68.52 149.35 69.39 C 147.85 70.26 146.40 71.20 144.97 72.16 C 144.72 71.14 143.61 70.07 144.39 69.03 C 144.90 69.07 145.92 69.14 146.43 69.18 C 147.44 68.50 148.46 67.84 149.49 67.19 C 148.43 66.10 147.25 65.14 145.86 64.52 Z" />
<path fill="#5d4119" opacity="1.00" d=" M 34.10 70.36 C 34.81 71.99 35.00 73.76 35.15 75.52 C 35.90 76.36 36.65 77.20 37.40 78.04 C 36.62 78.01 35.06 77.95 34.29 77.93 C 34.58 75.41 34.37 72.87 34.10 70.36 Z" />
<path fill="#5d4119" opacity="1.00" d=" M 84.07 72.38 L 84.47 72.13 L 85.14 72.74 C 85.40 74.21 85.18 75.62 84.50 76.97 L 84.19 76.72 C 83.76 75.31 83.76 73.81 84.07 72.38 Z" />
<path fill="#5d4119" opacity="1.00" d=" M 148.42 72.22 L 149.01 71.82 C 149.24 72.31 149.72 73.29 149.96 73.78 C 149.46 74.06 148.46 74.61 147.96 74.88 C 148.08 74.22 148.30 72.88 148.42 72.22 Z" />
<path fill="#5d4119" opacity="1.00" d=" M 4.87 85.44 C 5.87 81.33 6.45 76.74 9.43 73.49 C 8.37 77.63 6.70 81.58 5.80 85.76 C 5.49 86.28 4.86 87.32 4.55 87.84 C 4.70 89.04 4.82 90.23 4.90 91.43 L 4.00 92.32 C 4.05 91.75 4.16 90.63 4.21 90.06 C 3.61 90.02 2.40 89.94 1.80 89.89 C 2.82 88.41 3.84 86.92 4.87 85.44 Z" />
<path fill="#5d4119" opacity="1.00" d=" M 150.83 75.21 C 152.08 75.83 153.10 76.80 153.89 77.94 C 153.21 77.93 151.85 77.91 151.17 77.90 C 151.09 77.22 150.92 75.88 150.83 75.21 Z" />
<path fill="#5d4119" opacity="1.00" d=" M 103.03 76.77 C 104.55 76.70 105.27 77.43 105.19 78.95 C 103.91 78.78 103.19 78.05 103.03 76.77 Z" />
<path fill="#5d4119" opacity="1.00" d=" M 25.58 78.42 L 25.99 78.08 C 26.57 79.34 26.99 80.67 27.38 82.00 C 28.47 82.00 29.55 82.00 30.64 82.00 C 31.00 82.67 31.71 84.00 32.07 84.66 C 31.97 85.40 31.85 86.14 31.73 86.87 C 31.64 83.77 29.10 82.47 26.35 82.12 C 26.36 81.91 26.37 81.47 26.37 81.25 C 26.12 80.31 25.86 79.36 25.58 78.42 Z" />
<path fill="#5d4119" opacity="1.00" d=" M 30.22 79.24 C 30.80 79.83 30.80 79.83 30.22 79.24 Z" />
<path fill="#5d4119" opacity="1.00" d=" M 163.90 81.47 C 167.23 81.70 162.16 84.41 163.90 81.47 Z" />
<path fill="#5d4119" opacity="1.00" d=" M 158.16 84.99 L 158.77 85.10 C 159.88 86.41 160.61 88.33 159.40 89.83 C 159.13 89.33 158.60 88.33 158.33 87.83 C 157.39 87.05 156.92 85.78 158.16 84.99 Z" />
<path fill="#5d4119" opacity="1.00" d=" M 22.37 87.85 C 23.13 86.64 24.75 87.44 25.87 87.53 L 27.02 88.15 C 27.55 88.22 28.60 88.35 29.13 88.42 L 28.31 88.72 C 27.93 88.78 27.18 88.89 26.81 88.95 C 25.69 88.18 24.52 87.95 23.28 88.26 C 22.89 89.72 23.51 91.18 23.69 92.64 C 23.34 92.81 22.65 93.15 22.31 93.32 C 22.16 94.25 22.38 95.13 22.94 95.95 C 22.45 96.04 21.47 96.20 20.98 96.28 C 21.12 94.91 21.29 93.55 21.49 92.19 L 22.00 91.96 C 22.13 90.59 22.26 89.22 22.37 87.85 Z" />
<path fill="#5d4119" opacity="1.00" d=" M 152.23 89.25 C 152.81 89.82 152.81 89.82 152.23 89.25 Z" />
<path fill="#5d4119" opacity="1.00" d=" M 154.75 92.02 C 154.75 90.50 155.51 89.75 157.03 89.78 C 156.81 91.07 156.05 91.82 154.75 92.02 Z" />
<path fill="#5d4119" opacity="1.00" d=" M 91.74 92.11 C 93.67 93.77 95.01 95.96 96.15 98.21 C 95.75 97.69 94.96 96.63 94.56 96.11 C 94.23 96.07 93.57 96.01 93.24 95.98 C 92.75 94.69 92.24 93.40 91.74 92.11 Z" />
<path fill="#5d4119" opacity="1.00" d=" M 158.12 93.03 C 158.62 92.78 159.63 92.30 160.13 92.05 C 160.24 94.08 158.41 95.75 156.43 94.89 L 156.16 94.60 C 156.65 94.21 157.63 93.42 158.12 93.03 Z" />
<path fill="#5d4119" opacity="1.00" d=" M 161.12 92.09 C 162.35 92.50 162.57 93.40 161.79 94.77 L 161.14 94.81 C 161.14 94.13 161.13 92.77 161.12 92.09 Z" />
<path fill="#5d4119" opacity="1.00" d=" M 0.00 102.85 C 1.05 100.27 1.00 97.44 1.67 94.77 C 1.39 97.86 1.63 100.98 2.65 103.92 C 2.83 104.95 3.00 105.97 3.16 107.00 L 2.01 107.00 C 2.00 105.51 1.98 104.02 1.95 102.53 C 1.46 103.05 0.49 104.10 0.00 104.62 L 0.00 102.85 Z" />
<path fill="#5d4119" opacity="1.00" d=" M 172.82 95.39 C 175.14 97.15 173.05 99.66 172.56 101.72 L 171.67 99.29 C 170.83 101.20 170.99 103.29 171.03 105.33 C 172.05 106.61 172.99 107.98 173.26 109.64 C 172.07 108.37 171.01 106.99 170.00 105.59 C 169.92 105.11 169.77 104.16 169.69 103.68 C 169.24 101.79 168.94 99.87 168.62 97.95 C 170.05 98.50 171.52 98.95 173.01 99.32 C 172.96 98.34 172.87 96.38 172.82 95.39 Z" />
<path fill="#5d4119" opacity="1.00" d=" M 16.81 98.24 C 17.29 98.01 18.27 97.55 18.75 97.32 C 19.06 97.94 19.69 99.16 20.00 99.78 L 19.01 100.24 C 19.31 100.83 19.91 102.01 20.21 102.60 C 18.91 101.28 17.87 99.74 16.81 98.24 Z" />
<path fill="#5d4119" opacity="1.00" d=" M 162.78 97.07 C 163.08 97.60 163.68 98.65 163.98 99.18 C 163.68 98.65 163.08 97.60 162.78 97.07 Z" />
<path fill="#5d4119" opacity="1.00" d=" M 166.18 98.19 L 166.93 97.94 C 166.75 98.48 166.40 99.54 166.22 100.08 C 166.21 99.61 166.19 98.66 166.18 98.19 Z" />
<path fill="#5d4119" opacity="1.00" d=" M 102.90 103.01 C 103.18 102.07 103.73 100.19 104.01 99.25 C 104.01 101.31 104.00 103.38 104.00 105.45 C 103.13 104.57 102.27 103.70 101.41 102.83 C 101.12 103.23 100.52 104.02 100.22 104.42 C 100.11 103.81 99.87 102.60 99.76 101.99 C 100.54 102.25 102.11 102.75 102.90 103.01 Z" />
<path fill="#5d4119" opacity="1.00" d=" M 175.00 102.01 C 173.43 101.19 173.43 100.59 175.00 100.20 L 175.00 102.01 Z" />
<path fill="#5d4119" opacity="1.00" d=" M 4.95 101.96 C 6.26 102.39 7.45 103.21 8.07 104.47 L 8.12 105.09 C 6.09 105.75 5.32 103.47 4.95 101.96 Z" />
<path fill="#5d4119" opacity="1.00" d=" M 12.06 104.42 C 12.87 105.92 13.66 107.43 14.42 108.96 C 12.69 108.98 10.95 109.00 9.22 109.01 C 9.08 108.58 8.81 107.73 8.67 107.30 C 10.10 107.78 11.55 108.24 13.00 108.67 C 12.77 107.61 12.30 105.48 12.06 104.42 Z" />
<path fill="#5d4119" opacity="1.00" d=" M 15.10 106.25 C 18.34 106.45 13.58 109.33 15.10 106.25 Z" />
</g>
<g id="#f69212ff">
<path fill="#f69212" opacity="1.00" d=" M 69.82 12.49 C 70.35 12.07 71.41 11.23 71.95 10.81 L 73.65 10.54 C 73.49 12.71 73.40 14.88 73.42 17.05 C 72.77 17.17 71.49 17.41 70.85 17.54 C 70.69 17.33 70.38 16.92 70.23 16.71 C 69.90 16.28 69.24 15.43 68.91 15.00 L 70.02 15.01 C 71.31 15.76 73.81 13.60 71.58 13.11 L 69.82 12.49 Z" />
<path fill="#f69212" opacity="1.00" d=" M 85.06 17.78 L 85.66 18.44 C 85.71 19.06 85.81 20.30 85.86 20.93 C 85.94 21.60 86.10 22.94 86.18 23.61 L 86.78 23.93 C 87.19 24.17 88.03 24.66 88.45 24.90 C 88.34 25.34 88.11 26.21 88.00 26.65 C 87.93 26.98 87.79 27.63 87.72 27.96 C 85.47 28.17 83.74 26.87 82.26 25.37 C 83.17 22.83 84.08 20.29 85.06 17.78 Z" />
<path fill="#f69212" opacity="1.00" d=" M 68.85 21.69 C 69.65 20.96 70.39 20.17 71.06 19.31 C 71.15 22.12 70.83 24.92 70.20 27.65 C 72.69 25.95 75.41 24.59 78.29 23.68 C 77.67 25.39 77.02 27.09 76.34 28.77 C 75.92 28.30 75.08 27.36 74.65 26.89 C 72.35 28.61 70.05 30.34 67.82 32.17 C 67.86 28.68 67.27 24.96 68.85 21.69 Z" />
<path fill="#f69212" opacity="1.00" d=" M 147.32 44.00 C 148.03 42.92 148.46 41.72 148.62 40.42 C 149.72 41.82 150.84 43.21 151.97 44.59 C 151.41 45.29 150.30 46.69 149.75 47.39 C 149.22 47.55 148.17 47.87 147.64 48.03 C 146.89 47.48 146.13 46.95 145.35 46.44 C 145.74 45.99 146.51 45.08 146.90 44.63 L 147.32 44.00 Z" />
<path fill="#f69212" opacity="1.00" d=" M 63.36 45.12 C 65.18 45.30 66.99 45.51 68.81 45.77 C 67.55 47.11 66.27 48.44 65.04 49.81 C 64.66 49.19 63.90 47.94 63.52 47.32 C 62.58 48.50 61.66 49.69 60.71 50.85 L 59.97 48.93 L 59.77 48.36 C 59.15 49.03 58.54 49.70 57.93 50.38 C 56.91 50.50 55.89 50.65 54.87 50.85 C 54.56 50.78 53.94 50.63 53.62 50.56 C 52.50 49.95 51.35 49.79 50.19 50.06 C 49.89 50.61 49.29 51.72 48.99 52.28 C 49.17 51.65 49.51 50.40 49.68 49.77 C 52.03 49.10 54.10 47.83 55.54 45.83 L 55.64 45.89 C 57.21 46.96 59.07 47.33 60.88 47.77 C 61.70 46.89 62.53 46.00 63.36 45.12 Z" />
<path fill="#f69212" opacity="1.00" d=" M 105.41 46.69 C 108.98 46.96 112.60 47.66 116.14 46.75 C 118.59 46.09 121.25 46.35 123.23 48.05 C 122.96 48.53 122.42 49.48 122.14 49.95 L 121.47 50.46 C 121.20 50.62 120.65 50.96 120.37 51.12 C 118.70 51.26 117.02 51.32 115.35 51.28 C 114.91 50.92 114.03 50.20 113.59 49.84 L 113.22 49.56 C 110.73 48.78 108.20 48.08 105.86 46.90 L 105.41 46.69 Z" />
<path fill="#f69212" opacity="1.00" d=" M 30.69 64.32 C 33.17 61.80 34.80 58.65 36.64 55.67 C 37.14 55.82 38.12 56.12 38.62 56.27 L 38.65 57.03 C 38.66 57.32 38.67 57.90 38.68 58.19 C 39.09 60.47 39.82 62.67 40.49 64.88 C 39.39 65.22 38.32 65.61 37.27 66.07 L 36.12 66.61 C 35.79 66.22 35.13 65.42 34.80 65.02 C 33.49 66.51 33.71 68.35 34.75 69.89 C 34.56 69.91 34.18 69.96 33.99 69.99 L 34.10 70.36 C 34.37 72.87 34.58 75.41 34.29 77.93 C 33.71 78.65 33.12 79.37 32.53 80.08 C 32.08 79.53 31.19 78.43 30.75 77.88 C 30.06 77.83 28.69 77.73 28.01 77.68 C 27.98 77.34 27.93 76.66 27.91 76.32 C 28.26 75.34 28.61 74.36 28.97 73.38 C 30.30 73.56 31.63 73.73 32.96 73.91 C 32.16 70.72 31.37 67.54 30.69 64.32 Z" />
<path fill="#f69212" opacity="1.00" d=" M 144.93 68.36 C 145.31 68.56 146.06 68.97 146.43 69.18 C 145.92 69.14 144.90 69.07 144.39 69.03 L 144.93 68.36 Z" />
<path fill="#f69212" opacity="1.00" d=" M 20.77 83.03 C 21.22 82.06 21.73 81.10 22.28 80.18 C 23.65 80.53 25.01 80.89 26.37 81.25 C 26.37 81.47 26.36 81.91 26.35 82.12 C 26.19 83.93 25.99 85.73 25.87 87.53 C 24.75 87.44 23.13 86.64 22.37 87.85 C 22.26 89.22 22.13 90.59 22.00 91.96 L 21.49 92.19 C 21.01 92.02 20.05 91.67 19.57 91.50 C 16.77 93.70 15.15 96.99 13.79 100.20 C 13.63 100.53 13.32 101.20 13.16 101.53 C 12.79 102.45 12.43 103.38 12.09 104.32 C 12.25 103.45 12.56 101.71 12.72 100.85 C 9.85 99.30 7.00 97.68 4.41 95.69 C 5.21 95.59 6.00 95.47 6.79 95.33 C 7.05 95.08 7.58 94.59 7.84 94.35 C 9.15 95.07 10.45 95.79 11.76 96.51 C 11.84 96.13 12.00 95.36 12.08 94.98 L 12.66 94.91 C 13.46 94.82 15.07 94.63 15.87 94.53 C 16.02 93.01 16.17 91.48 16.32 89.95 C 16.42 89.07 16.48 88.20 16.54 87.32 C 17.60 86.75 18.66 86.18 19.72 85.60 C 19.98 84.96 20.51 83.68 20.77 83.03 Z" />
<path fill="#f69212" opacity="1.00" d=" M 153.16 80.11 C 153.84 80.12 155.19 80.16 155.87 80.17 C 156.32 80.28 157.23 80.49 157.68 80.59 C 157.66 81.97 157.65 83.36 157.64 84.74 C 156.16 83.96 154.68 83.18 153.18 82.43 C 153.18 81.85 153.17 80.69 153.16 80.11 Z" />
<path fill="#f69212" opacity="1.00" d=" M 96.18 82.25 C 97.90 81.83 99.72 80.49 101.47 81.48 C 102.88 83.25 101.99 85.56 101.91 87.59 C 100.90 87.54 99.90 87.50 98.89 87.46 C 98.06 89.74 96.99 91.92 95.77 94.01 C 95.62 91.94 95.56 89.86 95.64 87.78 C 95.71 86.65 95.80 85.53 95.91 84.40 C 95.98 83.86 96.11 82.79 96.18 82.25 Z" />
<path fill="#f69212" opacity="1.00" d=" M 158.77 85.10 C 159.61 85.23 161.29 85.48 162.13 85.61 C 162.52 86.67 162.90 87.73 163.28 88.79 C 163.91 89.44 164.55 90.10 165.18 90.75 C 165.50 90.61 166.14 90.32 166.45 90.17 C 168.01 91.45 169.60 92.68 171.22 93.89 C 171.73 93.63 172.74 93.11 173.24 92.86 C 173.15 93.43 172.96 94.58 172.87 95.16 L 172.82 95.39 C 169.35 94.98 165.87 94.35 162.36 94.74 L 161.79 94.77 C 162.57 93.40 162.35 92.50 161.12 92.09 C 160.87 92.08 160.38 92.06 160.13 92.05 C 159.63 92.30 158.62 92.78 158.12 93.03 C 157.63 93.42 156.65 94.21 156.16 94.60 C 155.61 94.02 154.51 92.86 153.96 92.28 L 154.75 92.02 C 156.05 91.82 156.81 91.07 157.03 89.78 L 157.39 88.84 C 157.76 89.34 158.51 90.34 158.88 90.84 L 159.40 89.83 C 160.61 88.33 159.88 86.41 158.77 85.10 Z" />
<path fill="#f69212" opacity="1.00" d=" M 97.69 100.02 C 99.82 98.58 102.19 97.56 104.69 96.94 C 104.46 97.71 104.24 98.48 104.01 99.25 C 103.73 100.19 103.18 102.07 102.90 103.01 C 102.11 102.75 100.54 102.25 99.76 101.99 C 99.06 101.34 98.37 100.69 97.69 100.02 Z" />
</g>
<g id="#fd5c34ff">
<path fill="#fd5c34" opacity="1.00" d=" M 71.58 13.11 C 73.81 13.60 71.31 15.76 70.02 15.01 C 70.41 14.54 71.19 13.59 71.58 13.11 Z" />
<path fill="#fd5c34" opacity="1.00" d=" M 80.93 15.96 C 81.19 15.65 81.70 15.02 81.96 14.70 C 83.00 15.72 84.05 16.73 85.06 17.78 C 84.08 20.29 83.17 22.83 82.26 25.37 C 83.74 26.87 85.47 28.17 87.72 27.96 C 87.42 28.79 86.82 30.44 86.52 31.27 C 85.36 30.75 84.22 30.22 83.08 29.67 C 83.05 29.84 82.98 30.17 82.95 30.34 C 81.85 29.43 80.68 28.59 79.54 27.74 C 78.85 28.50 78.14 29.25 77.44 30.01 C 77.17 29.70 76.62 29.08 76.34 28.77 C 77.02 27.09 77.67 25.39 78.29 23.68 C 75.41 24.59 72.69 25.95 70.20 27.65 C 70.83 24.92 71.15 22.12 71.06 19.31 C 71.00 18.87 70.90 17.98 70.85 17.54 C 71.49 17.41 72.77 17.17 73.42 17.05 C 75.92 16.66 78.44 16.38 80.93 15.96 Z" />
<path fill="#fd5c34" opacity="1.00" d=" M 46.13 55.34 C 46.93 54.66 47.74 53.98 48.55 53.30 C 48.99 53.16 49.85 52.86 50.29 52.71 C 49.99 53.12 49.40 53.92 49.10 54.32 L 48.26 54.43 C 48.14 54.85 47.91 55.69 47.79 56.12 C 47.81 57.73 47.82 59.34 47.83 60.95 C 47.26 60.89 46.11 60.78 45.54 60.72 C 44.35 60.08 43.17 59.44 41.98 58.80 L 42.71 58.16 C 43.84 57.21 44.99 56.28 46.13 55.34 Z" />
<path fill="#fd5c34" opacity="1.00" d=" M 99.24 64.90 C 100.50 65.47 101.79 66.00 103.07 66.53 C 102.36 69.15 101.65 71.78 100.65 74.31 C 101.44 75.13 102.24 75.95 103.03 76.77 C 103.19 78.05 103.91 78.78 105.19 78.95 C 106.21 80.72 107.53 82.28 108.96 83.73 C 108.58 83.90 107.84 84.23 107.47 84.39 C 108.40 85.25 109.33 86.10 110.26 86.95 C 108.93 88.64 108.98 90.88 109.46 92.86 C 108.50 93.75 107.53 94.64 106.57 95.53 C 106.96 95.85 107.76 96.48 108.15 96.80 C 107.30 98.23 106.46 99.68 105.61 101.12 C 105.21 100.65 104.41 99.72 104.01 99.25 C 104.24 98.48 104.46 97.71 104.69 96.94 C 102.19 97.56 99.82 98.58 97.69 100.02 C 97.15 99.44 96.63 98.84 96.15 98.21 C 95.01 95.96 93.67 93.77 91.74 92.11 C 91.39 91.78 90.69 91.12 90.33 90.79 C 90.78 90.38 91.66 89.56 92.10 89.15 C 92.53 89.26 93.37 89.48 93.79 89.59 C 94.41 88.98 95.02 88.38 95.64 87.78 C 95.56 89.86 95.62 91.94 95.77 94.01 C 96.99 91.92 98.06 89.74 98.89 87.46 C 99.90 87.50 100.90 87.54 101.91 87.59 C 101.99 85.56 102.88 83.25 101.47 81.48 C 99.72 80.49 97.90 81.83 96.18 82.25 C 96.60 79.02 96.47 75.75 96.42 72.50 C 96.09 72.13 95.43 71.37 95.10 70.99 C 95.29 69.98 95.50 68.97 95.73 67.96 C 97.64 68.96 99.73 69.52 101.86 69.70 C 101.06 68.07 100.21 66.45 99.24 64.90 Z" />
<path fill="#fd5c34" opacity="1.00" d=" M 88.56 70.14 C 89.39 71.28 90.12 72.48 90.86 73.68 C 90.28 75.61 89.96 77.61 89.73 79.61 C 89.40 79.96 88.75 80.66 88.43 81.01 C 88.11 80.59 87.46 79.75 87.14 79.33 C 86.28 78.52 85.40 77.73 84.50 76.97 C 85.18 75.62 85.40 74.21 85.14 72.74 C 86.43 72.08 87.49 71.10 88.56 70.14 Z" />
<path fill="#fd5c34" opacity="1.00" d=" M 26.35 82.12 C 29.10 82.47 31.64 83.77 31.73 86.87 C 31.08 87.26 29.78 88.03 29.13 88.42 C 28.60 88.35 27.55 88.22 27.02 88.15 L 25.87 87.53 C 25.99 85.73 26.19 83.93 26.35 82.12 Z" />
<path fill="#fd5c34" opacity="1.00" d=" M 13.79 100.20 C 15.15 96.99 16.77 93.70 19.57 91.50 C 20.05 91.67 21.01 92.02 21.49 92.19 C 21.29 93.55 21.12 94.91 20.98 96.28 L 20.59 96.46 C 20.13 96.68 19.21 97.11 18.75 97.32 C 18.27 97.55 17.29 98.01 16.81 98.24 C 16.44 98.11 15.70 97.86 15.33 97.74 C 14.94 98.35 14.17 99.58 13.79 100.20 Z" />
<path fill="#fd5c34" opacity="1.00" d=" M 1.67 94.77 L 1.88 93.79 L 3.19 94.77 C 3.49 95.00 4.10 95.46 4.41 95.69 C 7.00 97.68 9.85 99.30 12.72 100.85 C 12.56 101.71 12.25 103.45 12.09 104.32 L 12.06 104.42 C 12.30 105.48 12.77 107.61 13.00 108.67 C 11.55 108.24 10.10 107.78 8.67 107.30 L 8.42 106.54 C 8.34 106.18 8.19 105.45 8.12 105.09 L 8.07 104.47 C 7.45 103.21 6.26 102.39 4.95 101.96 L 4.31 101.68 C 3.90 102.24 3.07 103.36 2.65 103.92 C 1.63 100.98 1.39 97.86 1.67 94.77 Z" />
<path fill="#fd5c34" opacity="1.00" d=" M 162.36 94.74 C 165.87 94.35 169.35 94.98 172.82 95.39 C 172.87 96.38 172.96 98.34 173.01 99.32 C 171.52 98.95 170.05 98.50 168.62 97.95 C 168.05 97.92 167.49 97.92 166.93 97.94 L 166.18 98.19 C 166.19 98.66 166.21 99.61 166.22 100.08 L 165.49 100.93 C 165.11 100.49 164.35 99.62 163.98 99.18 C 163.68 98.65 163.08 97.60 162.78 97.07 L 162.28 96.16 L 162.36 94.74 Z" />
</g>
<g id="#f0ce00ff">
<path fill="#f0ce00" opacity="1.00" d=" M 68.85 21.69 C 68.65 20.27 68.46 18.17 70.18 17.60 L 70.85 17.54 C 70.90 17.98 71.00 18.87 71.06 19.31 C 70.39 20.17 69.65 20.96 68.85 21.69 Z" />
<path fill="#f0ce00" opacity="1.00" d=" M 115.55 44.78 C 116.70 43.65 117.85 42.52 119.00 41.38 C 120.15 42.12 121.29 42.87 122.45 43.61 C 131.00 44.26 138.84 48.31 145.46 53.54 C 148.25 57.48 151.64 60.89 154.87 64.47 C 154.99 64.95 155.23 65.92 155.35 66.41 C 155.83 68.49 155.99 70.63 156.09 72.77 C 156.56 73.19 157.51 74.03 157.98 74.45 C 157.97 74.99 157.96 76.08 157.95 76.62 C 158.86 77.87 159.77 79.12 160.67 80.38 C 161.01 82.16 161.47 83.92 162.13 85.61 C 161.29 85.48 159.61 85.23 158.77 85.10 L 158.16 84.99 L 157.64 84.74 C 157.65 83.36 157.66 81.97 157.68 80.59 C 157.23 80.49 156.32 80.28 155.87 80.17 C 155.18 79.45 154.53 78.70 153.89 77.94 C 153.10 76.80 152.08 75.83 150.83 75.21 C 150.61 74.85 150.18 74.14 149.96 73.78 C 149.72 73.29 149.24 72.31 149.01 71.82 C 149.12 71.01 149.24 70.20 149.35 69.39 C 149.48 68.52 149.63 67.65 149.79 66.78 C 149.01 65.57 148.23 64.36 147.50 63.12 C 147.84 62.80 148.53 62.15 148.87 61.83 L 148.52 61.79 C 146.47 61.42 144.41 61.15 142.34 60.94 C 142.03 59.88 141.73 58.82 141.43 57.77 C 140.50 57.72 139.58 57.66 138.66 57.58 C 138.08 57.05 136.92 55.98 136.34 55.44 C 136.94 54.89 138.12 53.77 138.71 53.22 C 138.10 52.95 137.47 52.75 136.87 52.48 C 136.29 52.90 135.13 53.74 134.54 54.15 C 134.32 53.98 133.87 53.64 133.65 53.47 C 133.38 52.31 133.21 51.13 133.04 49.95 C 132.63 50.17 131.81 50.61 131.40 50.83 C 128.54 50.31 125.50 50.10 123.23 48.05 C 121.25 46.35 118.59 46.09 116.14 46.75 C 112.60 47.66 108.98 46.96 105.41 46.69 C 105.20 46.66 104.78 46.61 104.56 46.58 C 102.79 47.89 100.53 50.24 98.35 48.20 C 98.01 47.96 97.31 47.49 96.96 47.25 L 97.40 47.17 L 98.92 46.91 C 98.62 46.33 98.02 45.15 97.73 44.57 C 98.43 44.81 99.84 45.31 100.54 45.55 C 102.19 44.86 103.84 43.58 105.73 44.16 C 108.98 44.72 112.27 44.66 115.55 44.78 Z" />
<path fill="#f0ce00" opacity="1.00" d=" M 141.74 43.02 C 142.09 42.66 142.81 41.96 143.16 41.61 C 143.45 41.89 144.02 42.47 144.30 42.75 C 144.18 43.48 143.92 44.93 143.79 45.66 C 142.68 45.26 141.35 44.42 141.74 43.02 Z" />
<path fill="#f0ce00" opacity="1.00" d=" M 62.16 43.12 C 62.46 43.62 63.06 44.62 63.36 45.12 C 62.53 46.00 61.70 46.89 60.88 47.77 C 59.07 47.33 57.21 46.96 55.64 45.89 C 56.00 45.42 56.71 44.46 57.07 43.99 C 57.85 44.21 59.41 44.67 60.19 44.89 C 60.68 44.45 61.67 43.56 62.16 43.12 Z" />
<path fill="#f0ce00" opacity="1.00" d=" M 39.37 47.97 C 43.07 46.83 47.10 46.10 50.04 43.38 C 52.12 43.57 53.92 44.57 55.54 45.83 C 54.10 47.83 52.03 49.10 49.68 49.77 C 49.51 50.40 49.17 51.65 48.99 52.28 C 48.88 52.54 48.66 53.05 48.55 53.30 C 47.74 53.98 46.93 54.66 46.13 55.34 C 45.71 55.08 44.87 54.57 44.45 54.31 C 43.37 54.92 42.29 55.55 41.20 56.15 L 39.96 56.65 L 38.62 56.27 C 38.12 56.12 37.14 55.82 36.64 55.67 C 34.80 58.65 33.17 61.80 30.69 64.32 C 31.37 67.54 32.16 70.72 32.96 73.91 C 31.63 73.73 30.30 73.56 28.97 73.38 C 28.61 74.36 28.26 75.34 27.91 76.32 C 27.29 76.93 26.65 77.51 25.99 78.08 L 25.58 78.42 C 25.86 79.36 26.12 80.31 26.37 81.25 C 25.01 80.89 23.65 80.53 22.28 80.18 C 22.58 79.71 23.17 78.76 23.46 78.28 C 23.88 74.26 23.00 70.00 24.86 66.23 C 28.45 64.75 29.97 61.01 31.95 57.97 C 31.24 56.96 30.53 55.96 29.82 54.96 C 33.01 52.64 36.40 50.58 39.37 47.97 Z" />
<path fill="#f0ce00" opacity="1.00" d=" M 97.59 64.98 C 97.84 64.74 98.34 64.27 98.59 64.04 L 99.24 64.90 C 100.21 66.45 101.06 68.07 101.86 69.70 C 99.73 69.52 97.64 68.96 95.73 67.96 C 96.19 66.87 96.88 65.91 97.59 64.98 Z" />
<path fill="#f0ce00" opacity="1.00" d=" M 86.21 68.24 C 87.00 68.87 87.78 69.50 88.56 70.14 C 87.49 71.10 86.43 72.08 85.14 72.74 L 84.47 72.13 C 85.01 71.75 86.11 71.00 86.66 70.62 C 86.26 70.36 85.45 69.84 85.05 69.58 C 85.34 69.25 85.92 68.58 86.21 68.24 Z" />
<path fill="#f0ce00" opacity="1.00" d=" M 95.10 70.99 C 95.43 71.37 96.09 72.13 96.42 72.50 C 96.47 75.75 96.60 79.02 96.18 82.25 C 96.11 82.79 95.98 83.86 95.91 84.40 C 94.97 82.88 93.95 81.41 92.94 79.95 C 93.80 77.00 94.57 74.02 95.10 70.99 Z" />
<path fill="#f0ce00" opacity="1.00" d=" M 17.76 80.58 C 18.76 81.40 19.77 82.21 20.77 83.03 C 20.51 83.68 19.98 84.96 19.72 85.60 C 18.66 86.18 17.60 86.75 16.54 87.32 C 16.60 85.02 16.76 82.69 17.76 80.58 Z" />
<path fill="#f0ce00" opacity="1.00" d=" M 12.66 94.91 C 13.63 93.08 14.90 91.45 16.32 89.95 C 16.17 91.48 16.02 93.01 15.87 94.53 C 15.07 94.63 13.46 94.82 12.66 94.91 Z" />
<path fill="#f0ce00" opacity="1.00" d=" M 7.84 94.35 C 8.77 93.39 9.66 92.40 10.55 91.40 C 11.06 92.60 11.57 93.79 12.08 94.98 C 12.00 95.36 11.84 96.13 11.76 96.51 C 10.45 95.79 9.15 95.07 7.84 94.35 Z" />
</g>
<g id="#f5c968ff">
<path fill="#f5c968" opacity="1.00" d=" M 68.48 32.63 C 70.83 30.99 73.37 27.81 76.41 29.94 C 76.07 30.44 75.39 31.44 75.05 31.94 C 74.27 32.98 73.56 34.08 73.23 35.35 C 71.23 35.19 69.57 34.33 68.48 32.63 Z" />
<path fill="#f5c968" opacity="1.00" d=" M 66.17 33.25 C 69.42 33.43 64.66 36.31 66.17 33.25 Z" />
<path fill="#f5c968" opacity="1.00" d=" M 100.98 38.02 C 106.02 37.99 110.93 36.66 115.94 36.26 C 119.05 36.83 121.83 38.49 124.91 39.21 C 134.55 41.73 143.49 46.47 151.46 52.42 C 156.77 56.15 159.46 62.34 163.99 66.84 C 163.79 66.95 163.40 67.16 163.21 67.26 C 165.14 70.95 166.55 74.87 167.62 78.89 C 164.83 77.67 164.27 74.40 163.09 71.92 C 159.91 63.68 154.57 55.66 146.50 51.58 C 139.19 46.87 131.49 41.89 122.54 41.39 C 121.71 40.73 120.87 40.11 120.00 39.51 C 115.28 38.12 110.47 39.85 105.84 40.74 C 99.52 42.21 93.03 43.05 86.90 45.23 C 86.69 47.38 89.14 47.80 90.52 48.81 L 91.65 49.46 C 92.50 54.83 94.99 59.97 94.90 65.43 L 94.54 66.47 C 92.67 66.76 90.78 66.96 88.90 67.16 C 89.44 64.08 90.11 61.01 90.89 57.98 C 87.32 57.37 83.57 57.36 80.20 55.93 C 76.39 54.28 74.67 50.22 72.99 46.70 C 72.96 46.34 72.91 45.62 72.88 45.26 C 70.76 44.66 68.64 44.03 66.52 43.40 C 67.89 42.17 69.28 40.96 70.66 39.72 C 71.86 41.22 73.05 42.73 74.01 44.40 C 74.68 46.07 75.29 48.54 77.68 47.75 C 78.93 45.38 79.21 42.65 80.15 40.16 L 81.16 38.87 C 81.60 39.17 82.49 39.76 82.94 40.06 C 84.76 40.03 86.58 40.02 88.40 39.87 C 90.94 38.82 93.72 39.04 96.40 38.81 C 97.86 38.24 99.42 38.02 100.98 38.02 Z" />
<path fill="#f5c968" opacity="1.00" d=" M 44.40 39.46 C 51.13 37.01 58.39 38.34 65.38 38.00 C 64.83 39.33 64.28 40.66 63.72 41.99 C 63.39 41.95 62.72 41.85 62.38 41.81 C 56.84 40.75 51.04 40.65 45.48 41.57 C 39.06 43.98 32.12 46.07 27.15 51.06 C 18.17 59.63 14.37 71.88 10.52 83.32 C 10.89 83.48 11.64 83.79 12.01 83.95 C 10.62 87.04 9.35 90.19 7.92 93.26 C 7.53 92.94 6.75 92.29 6.36 91.96 C 5.95 92.46 5.11 93.47 4.70 93.97 L 2.70 93.68 C 3.02 93.34 3.68 92.66 4.00 92.32 L 4.90 91.43 C 4.82 90.23 4.70 89.04 4.55 87.84 C 4.86 87.32 5.49 86.28 5.80 85.76 C 6.70 81.58 8.37 77.63 9.43 73.49 C 9.48 73.30 9.57 72.93 9.62 72.74 C 12.95 67.33 15.80 61.61 18.94 56.08 C 19.17 55.87 19.63 55.43 19.86 55.21 L 20.57 54.53 C 22.49 52.48 24.42 50.44 26.47 48.51 L 26.95 48.02 C 27.17 47.79 27.62 47.33 27.84 47.10 C 30.84 45.58 34.10 44.53 36.85 42.53 C 37.15 42.43 37.76 42.23 38.07 42.13 C 40.05 42.23 42.09 41.66 43.19 39.88 C 43.49 39.78 44.10 39.57 44.40 39.46 Z" />
<path fill="#f5c968" opacity="1.00" d=" M 110.26 86.95 L 110.58 87.24 C 110.81 88.72 110.88 90.24 110.67 91.73 C 110.37 92.01 109.76 92.58 109.46 92.86 C 108.98 90.88 108.93 88.64 110.26 86.95 Z" />
</g>
<g id="#eecfb3ff">
<path fill="#eecfb3" opacity="1.00" d=" M 75.05 31.94 L 75.69 32.01 C 76.75 33.42 76.07 35.38 74.35 35.76 C 74.07 35.65 73.51 35.45 73.23 35.35 C 73.56 34.08 74.27 32.98 75.05 31.94 Z" />
<path fill="#eecfb3" opacity="1.00" d=" M 63.91 44.60 C 64.94 41.11 66.40 37.76 68.34 34.68 C 69.64 35.64 70.95 36.58 72.23 37.56 C 69.36 39.79 66.42 41.94 63.91 44.60 Z" />
<path fill="#eecfb3" opacity="1.00" d=" M 96.96 47.25 C 97.06 47.12 97.26 46.86 97.36 46.73 L 97.40 47.17 L 96.96 47.25 Z" />
<path fill="#eecfb3" opacity="1.00" d=" M 77.23 81.36 C 78.22 80.79 79.47 79.65 80.68 80.13 C 81.99 82.51 77.20 83.91 77.23 81.36 Z" />
</g>
<g id="#e0a854ff">
<path fill="#e0a854" opacity="1.00" d=" M 75.69 32.01 L 76.91 32.12 C 76.96 35.07 77.13 38.65 80.15 40.16 C 79.21 42.65 78.93 45.38 77.68 47.75 C 75.29 48.54 74.68 46.07 74.01 44.40 C 73.97 43.66 73.90 42.18 73.86 41.44 C 73.15 40.64 72.43 39.85 71.72 39.05 C 72.25 38.12 72.80 37.20 73.37 36.29 L 74.35 35.76 C 76.07 35.38 76.75 33.42 75.69 32.01 Z" />
<path fill="#e0a854" opacity="1.00" d=" M 105.84 40.74 C 110.47 39.85 115.28 38.12 120.00 39.51 C 117.87 40.47 115.89 41.71 113.97 43.03 C 113.64 42.91 112.98 42.66 112.65 42.54 C 108.54 43.60 104.18 40.69 100.50 43.66 C 100.14 43.50 99.44 43.20 99.08 43.04 C 96.05 44.86 90.87 44.32 90.52 48.81 C 89.14 47.80 86.69 47.38 86.90 45.23 C 93.03 43.05 99.52 42.21 105.84 40.74 Z" />
<path fill="#e0a854" opacity="1.00" d=" M 45.48 41.57 C 51.04 40.65 56.84 40.75 62.38 41.81 C 60.71 42.67 58.90 42.87 57.08 42.40 C 56.54 42.97 56.00 43.54 55.46 44.11 C 54.99 43.57 54.07 42.49 53.61 41.94 C 52.20 41.96 50.79 41.99 49.39 42.01 C 48.96 42.44 48.10 43.31 47.68 43.74 C 44.54 44.75 41.37 45.67 38.12 46.27 C 37.62 47.04 37.12 47.81 36.62 48.59 C 33.41 50.49 30.46 52.80 27.87 55.49 C 28.69 56.29 29.50 57.08 30.31 57.88 C 29.11 59.77 27.89 61.64 26.60 63.46 C 24.88 64.79 22.88 66.10 22.29 68.34 C 21.72 71.41 22.05 74.56 22.04 77.66 C 21.06 78.57 20.08 79.49 19.11 80.40 C 19.03 79.69 18.86 78.26 18.78 77.55 C 15.51 80.32 14.53 84.42 14.97 88.56 C 13.93 89.91 12.90 91.27 11.83 92.60 C 12.01 90.81 12.20 89.00 12.84 87.30 C 12.90 86.32 12.94 85.34 12.96 84.36 L 12.01 83.95 C 11.64 83.79 10.89 83.48 10.52 83.32 C 14.37 71.88 18.17 59.63 27.15 51.06 C 32.12 46.07 39.06 43.98 45.48 41.57 Z" />
<path fill="#e0a854" opacity="1.00" d=" M 72.99 46.70 C 74.67 50.22 76.39 54.28 80.20 55.93 C 83.57 57.36 87.32 57.37 90.89 57.98 C 90.11 61.01 89.44 64.08 88.90 67.16 C 90.78 66.96 92.67 66.76 94.54 66.47 C 93.89 68.40 93.30 70.34 92.53 72.23 C 89.94 70.37 88.30 67.53 86.40 65.02 C 84.52 65.02 82.65 65.02 80.77 65.02 C 81.87 65.56 82.97 66.11 84.07 66.67 C 83.09 68.50 82.29 70.42 81.53 72.35 C 81.31 71.90 80.87 71.01 80.65 70.56 C 78.86 69.25 77.09 67.78 76.20 65.68 C 74.46 62.60 75.44 58.91 74.44 55.62 C 73.63 52.71 73.00 49.74 72.99 46.70 Z" />
<path fill="#e0a854" opacity="1.00" d=" M 146.50 51.58 C 154.57 55.66 159.91 63.68 163.09 71.92 C 164.27 74.40 164.83 77.67 167.62 78.89 C 168.17 80.49 168.80 82.06 169.41 83.64 C 169.32 84.68 169.22 85.73 169.13 86.78 C 169.49 88.37 169.83 89.97 170.15 91.57 C 168.74 89.91 167.40 88.19 166.06 86.48 C 166.05 85.83 166.03 84.55 166.03 83.91 C 165.10 84.39 164.17 84.87 163.24 85.35 C 162.26 81.88 161.54 78.34 160.85 74.81 C 160.39 75.16 159.47 75.86 159.01 76.21 C 159.01 75.51 159.00 74.11 159.00 73.41 C 158.53 72.96 157.61 72.07 157.15 71.62 C 157.26 67.39 156.32 62.83 153.00 59.91 C 150.30 57.60 147.97 54.85 146.50 51.58 M 163.90 81.47 C 162.16 84.41 167.23 81.70 163.90 81.47 Z" />
<path fill="#e0a854" opacity="1.00" d=" M 81.14 73.40 C 84.41 73.47 79.72 76.49 81.14 73.40 Z" />
<path fill="#e0a854" opacity="1.00" d=" M 76.15 84.29 C 76.72 84.76 76.72 84.76 76.15 84.29 Z" />
<path fill="#e0a854" opacity="1.00" d=" M 164.24 87.15 C 167.20 85.53 164.56 90.42 164.24 87.15 Z" />
</g>
</svg>
