<?xml version="1.0" encoding="UTF-8" ?>
<!DOCTYPE svg PUBLIC "-//W3C//DTD SVG 1.1//EN" "http://www.w3.org/Graphics/SVG/1.1/DTD/svg11.dtd">
<svg width="120pt" height="120pt" viewBox="0 0 120 120" version="1.1" xmlns="http://www.w3.org/2000/svg">
<g id="#205275ff">
<path fill="#205275" opacity="1.00" d=" M 68.29 20.19 C 70.03 20.18 71.77 20.17 73.51 20.20 C 77.47 22.89 83.32 24.11 85.25 28.89 C 82.27 29.11 79.37 28.13 76.82 26.68 C 76.57 28.69 77.78 31.51 75.64 32.79 C 73.96 33.10 72.16 32.87 70.84 31.71 C 70.87 34.06 70.85 36.40 70.86 38.74 C 70.31 39.15 69.22 39.97 68.67 40.37 C 69.77 42.18 70.19 44.23 70.00 46.33 C 72.19 45.22 74.59 45.15 76.98 45.02 C 78.25 44.59 80.15 43.30 81.24 44.75 C 82.77 45.98 81.86 48.08 80.66 49.16 C 81.34 49.17 82.70 49.21 83.39 49.23 C 83.03 52.21 80.04 51.78 78.24 50.41 C 79.19 49.34 80.14 48.29 81.10 47.25 C 80.55 46.43 79.98 45.61 79.42 44.79 C 78.49 45.48 77.57 46.17 76.66 46.87 C 77.16 46.94 78.17 47.09 78.67 47.17 C 78.45 48.27 78.22 49.36 77.99 50.46 C 76.73 52.41 75.25 54.56 75.68 57.02 C 76.80 61.70 82.57 60.81 86.20 60.88 C 86.18 61.32 86.14 62.19 86.12 62.63 C 85.95 65.11 90.62 64.15 89.10 61.99 C 88.60 61.66 87.61 61.00 87.11 60.67 C 87.29 59.94 87.46 59.20 87.61 58.46 L 86.63 60.43 C 86.09 60.19 85.01 59.72 84.47 59.48 C 84.84 58.98 85.56 57.97 85.92 57.47 C 88.05 57.83 90.15 58.31 92.25 58.79 L 91.72 59.82 C 91.23 59.88 90.24 60.00 89.75 60.06 C 90.22 60.87 90.68 61.68 91.13 62.50 C 90.78 63.11 90.08 64.34 89.73 64.95 C 88.19 64.94 86.66 64.93 85.12 64.92 C 85.14 64.18 85.17 62.69 85.18 61.95 C 81.28 62.33 77.53 61.70 73.80 60.73 C 73.85 61.50 73.96 63.04 74.02 63.81 C 74.48 64.19 75.41 64.95 75.87 65.33 C 75.91 67.60 76.23 70.01 74.96 72.04 C 75.99 74.25 76.89 76.64 78.72 78.34 C 80.01 79.23 80.08 80.78 80.03 82.20 L 79.32 81.36 C 76.71 78.57 75.06 75.15 73.26 71.83 C 72.64 72.18 71.41 72.89 70.79 73.24 C 71.40 71.30 73.53 71.26 75.15 70.78 C 75.69 68.03 74.94 65.49 72.69 63.72 C 71.02 65.43 69.43 67.21 67.78 68.94 C 68.83 65.89 71.88 64.27 73.31 61.45 C 72.03 60.88 70.76 60.31 69.50 59.73 C 68.78 58.63 68.03 57.55 67.27 56.48 C 67.06 55.01 66.87 53.53 66.70 52.05 C 63.77 53.77 60.77 55.42 57.57 56.58 C 54.97 57.69 52.10 56.93 49.38 57.20 C 47.33 58.02 48.13 60.35 48.23 62.03 C 48.55 64.89 50.25 67.34 52.08 69.47 C 52.34 69.57 52.86 69.78 53.12 69.88 C 53.27 70.07 53.57 70.43 53.72 70.61 C 53.57 70.43 53.27 70.07 53.12 69.88 C 52.86 69.78 52.34 69.57 52.08 69.47 C 51.83 66.97 51.52 64.17 52.84 61.90 C 55.41 60.09 58.98 58.20 62.00 60.15 C 65.18 62.12 65.17 66.33 65.00 69.64 C 64.23 70.47 63.47 71.30 62.71 72.14 C 60.40 72.28 58.07 72.25 55.79 71.81 C 55.70 71.71 55.52 71.52 55.43 71.42 C 55.52 71.52 55.70 71.71 55.79 71.81 C 55.80 72.03 55.82 72.46 55.83 72.68 C 58.42 73.33 61.08 73.62 63.72 73.95 L 64.25 74.94 C 62.35 74.96 60.45 75.01 58.56 74.85 C 54.84 73.76 52.04 71.01 49.01 68.75 C 49.02 69.52 49.02 71.07 49.02 71.84 C 50.79 73.78 52.94 75.36 55.56 75.86 L 56.11 77.09 C 54.69 77.21 53.52 76.81 52.61 75.87 C 52.34 76.07 51.79 76.47 51.52 76.67 C 50.75 75.37 49.66 74.34 48.27 73.70 C 48.02 71.77 48.00 69.75 49.10 68.05 C 48.52 66.31 47.20 64.82 46.95 62.92 C 44.29 62.74 41.34 63.48 38.95 61.99 C 37.18 61.07 36.13 59.32 35.31 57.57 C 35.71 54.94 33.44 53.52 31.06 53.78 C 30.89 51.55 31.14 48.52 34.23 49.04 C 33.68 49.40 32.57 50.11 32.02 50.47 C 32.08 51.18 32.20 52.61 32.26 53.32 C 35.50 51.90 37.71 48.93 39.77 46.16 C 39.25 45.86 38.20 45.26 37.68 44.97 C 37.64 45.45 37.56 46.41 37.52 46.89 C 36.94 47.23 35.77 47.93 35.18 48.27 C 35.39 47.69 35.82 46.51 36.03 45.93 C 33.59 46.59 31.83 44.91 31.78 42.54 C 29.46 43.85 29.96 47.84 27.16 48.14 C 27.15 46.25 27.16 44.36 27.27 42.47 C 28.90 39.56 28.98 35.99 31.13 33.33 C 31.18 33.76 31.29 34.62 31.35 35.05 C 31.35 35.43 31.37 36.19 31.37 36.58 C 31.99 36.71 33.22 36.97 33.83 37.10 C 33.77 36.13 33.72 35.17 33.67 34.20 C 33.16 33.98 32.13 33.54 31.62 33.31 C 33.93 31.84 35.62 28.82 38.67 29.05 C 38.98 29.43 39.59 30.21 39.89 30.59 C 40.49 31.35 41.11 32.08 41.75 32.81 C 40.79 34.30 40.61 36.82 38.46 37.14 C 38.50 36.29 38.59 34.59 38.63 33.74 C 38.79 33.62 39.10 33.38 39.26 33.26 L 38.64 33.24 C 38.52 32.53 38.28 31.13 38.16 30.42 C 37.64 30.31 36.58 30.08 36.05 29.97 L 35.90 31.16 C 36.25 31.71 36.97 32.81 37.33 33.36 C 37.25 34.98 37.14 36.61 37.03 38.23 C 36.34 37.98 34.96 37.46 34.27 37.20 C 35.16 39.82 35.93 42.49 37.23 44.94 C 38.10 42.99 39.13 41.08 40.66 39.56 C 40.45 41.77 36.78 42.96 38.54 45.35 C 42.26 46.85 45.04 43.03 47.55 40.90 C 48.56 41.51 49.61 42.04 50.65 42.59 C 49.12 42.79 47.59 42.99 46.06 43.18 C 46.01 44.30 45.96 45.42 45.90 46.53 C 45.61 47.27 45.02 48.74 44.73 49.47 C 45.20 49.47 46.14 49.47 46.61 49.47 C 46.49 50.17 46.24 51.58 46.12 52.29 C 48.19 52.21 48.45 52.97 46.90 54.56 C 51.85 58.02 58.23 55.39 63.07 53.00 C 65.69 52.04 67.64 50.05 69.08 47.71 C 68.21 50.04 67.80 52.50 67.57 54.97 C 69.08 57.02 70.78 58.97 73.06 60.22 C 73.68 59.40 74.30 58.58 74.93 57.77 C 74.71 57.33 74.27 56.45 74.05 56.01 C 75.25 53.78 76.39 51.51 77.40 49.19 C 76.86 48.10 76.33 47.01 75.80 45.92 C 73.42 45.90 71.21 46.75 69.08 47.71 C 69.17 45.50 69.06 43.24 67.90 41.29 C 63.32 40.25 59.53 37.10 55.83 34.34 C 54.66 34.60 53.52 34.96 52.36 35.25 L 52.02 34.25 C 54.81 33.93 57.72 33.19 59.71 31.07 C 64.35 29.02 64.27 23.04 68.29 20.19 M 37.64 50.31 C 38.68 50.96 39.72 51.61 40.77 52.24 C 40.81 53.50 40.84 54.76 40.87 56.02 C 39.12 55.97 37.39 55.73 35.80 54.96 C 36.27 57.13 37.46 59.03 39.03 60.58 C 40.13 60.54 41.03 60.92 41.73 61.69 C 43.32 61.76 44.92 61.81 46.51 61.83 C 46.94 60.27 47.38 58.72 47.84 57.17 C 44.84 54.97 43.74 51.44 44.12 47.84 C 41.77 48.16 40.01 50.01 37.64 50.31 M 36.01 52.09 C 35.00 54.30 38.76 54.24 40.06 55.03 C 40.56 52.66 37.95 51.58 36.01 52.09 M 53.00 62.27 C 52.73 63.91 52.53 65.55 52.36 67.20 C 54.99 69.70 58.93 72.93 62.66 70.63 C 66.87 67.46 63.60 60.29 58.85 59.56 C 56.90 60.46 54.96 61.38 53.00 62.27 Z" />
<path fill="#205275" opacity="1.00" d=" M 41.01 27.87 C 42.26 28.01 43.62 28.60 43.98 29.92 C 44.60 32.14 42.09 33.98 43.76 36.07 L 43.37 37.02 C 42.98 37.36 42.21 38.05 41.82 38.39 C 40.72 35.08 44.02 31.44 41.43 28.57 L 41.01 27.87 Z" />
<path fill="#205275" opacity="1.00" d=" M 45.92 30.88 C 49.46 30.74 48.63 34.51 49.84 36.65 C 50.52 38.30 51.04 40.01 51.15 41.81 C 50.57 41.00 50.00 40.18 49.45 39.35 C 48.55 39.30 47.65 39.24 46.75 39.16 C 46.95 39.60 47.35 40.47 47.55 40.90 C 46.69 41.11 44.99 41.51 44.14 41.72 C 44.16 40.79 44.19 38.95 44.21 38.03 C 44.62 37.58 45.45 36.69 45.86 36.25 C 46.71 35.42 47.56 34.60 48.43 33.80 C 47.71 33.04 47.01 32.25 46.34 31.44 L 45.92 30.88 Z" />
<path fill="#205275" opacity="1.00" d=" M 57.08 39.67 C 57.76 40.33 58.41 41.02 59.03 41.73 C 58.53 43.19 59.16 44.60 59.99 45.75 C 59.94 46.59 59.84 48.27 59.80 49.10 C 60.41 49.24 61.65 49.52 62.26 49.66 C 61.77 49.70 60.79 49.77 60.30 49.80 C 58.57 49.85 56.84 49.80 55.12 49.73 C 53.00 50.79 50.57 51.64 49.26 53.77 L 48.50 55.08 C 48.94 53.38 48.67 51.67 48.07 50.07 C 51.87 49.79 55.32 47.96 58.96 46.95 C 57.78 45.19 58.04 43.01 57.97 41.00 L 56.98 41.00 L 57.08 39.67 Z" />
<path fill="#205275" opacity="1.00" d=" M 55.13 42.18 C 58.22 42.55 53.61 45.40 55.13 42.18 Z" />
<path fill="#205275" opacity="1.00" d=" M 47.12 44.39 C 50.27 44.87 45.45 47.41 47.12 44.39 Z" />
<path fill="#205275" opacity="1.00" d=" M 49.26 44.26 C 49.78 44.79 49.78 44.79 49.26 44.26 Z" />
<path fill="#205275" opacity="1.00" d=" M 84.28 46.10 C 84.10 44.61 86.31 43.10 87.25 44.77 C 89.35 46.96 87.48 50.72 84.35 50.31 C 84.62 49.80 85.17 48.76 85.44 48.25 C 88.02 48.12 86.02 44.20 84.28 46.10 Z" />
<path fill="#205275" opacity="1.00" d=" M 56.25 45.26 C 56.72 45.83 56.72 45.83 56.25 45.26 Z" />
<path fill="#205275" opacity="1.00" d=" M 48.16 47.21 C 48.61 47.12 49.50 46.94 49.94 46.84 C 52.48 47.90 47.55 49.33 48.16 47.21 Z" />
<path fill="#205275" opacity="1.00" d=" M 88.67 49.85 C 89.61 49.16 90.69 48.88 91.92 49.03 C 91.63 50.84 93.09 53.78 90.58 54.48 C 91.25 54.71 92.60 55.18 93.27 55.41 L 92.61 56.29 C 90.15 56.71 87.39 57.08 85.09 55.91 C 84.71 53.98 88.58 53.87 87.72 51.72 L 87.60 50.47 C 87.97 52.19 91.66 54.14 90.72 51.03 L 90.58 50.41 L 89.88 50.24 L 88.67 49.85 Z" />
<path fill="#205275" opacity="1.00" d=" M 83.05 52.31 C 83.47 51.63 83.90 50.97 84.35 50.31 C 84.72 50.92 85.45 52.13 85.82 52.73 C 85.26 54.01 83.59 53.13 83.05 52.31 Z" />
<path fill="#205275" opacity="1.00" d=" M 56.32 53.71 C 56.44 53.67 56.68 53.60 56.80 53.56 C 56.68 53.60 56.44 53.67 56.32 53.71 Z" />
<path fill="#205275" opacity="1.00" d=" M 53.00 54.94 C 53.47 54.75 54.40 54.37 54.87 54.18 L 54.68 55.07 C 54.26 55.04 53.42 54.97 53.00 54.94 Z" />
<path fill="#205275" opacity="1.00" d=" M 63.72 73.95 C 65.47 72.64 66.73 70.84 67.78 68.94 C 67.65 69.77 67.39 71.42 67.27 72.24 C 68.44 72.58 69.61 72.91 70.79 73.24 C 72.89 76.24 75.61 79.29 75.19 83.24 L 74.95 83.79 C 73.25 86.51 74.68 89.59 75.60 92.29 L 76.11 92.38 C 77.81 92.66 80.03 92.65 80.23 94.88 L 81.17 95.45 C 81.15 94.49 81.12 92.56 81.11 91.60 L 78.93 92.47 C 79.02 91.46 79.12 90.45 79.23 89.44 C 82.59 87.92 84.08 92.37 83.90 94.99 C 83.76 96.62 84.47 98.82 82.66 99.75 C 80.54 99.95 78.40 99.95 76.28 99.76 C 75.03 99.00 75.12 97.50 75.03 96.24 C 74.56 95.85 73.60 95.08 73.13 94.70 C 73.43 93.39 72.40 91.21 74.24 90.74 C 72.36 88.68 72.84 85.23 74.17 82.98 C 73.61 82.04 72.60 81.14 74.06 80.39 C 72.62 78.27 71.30 76.06 69.77 74.00 C 67.76 73.78 65.73 73.87 63.72 73.95 Z" />
<path fill="#205275" opacity="1.00" d=" M 41.21 80.24 C 42.93 78.90 44.17 76.85 46.29 76.09 C 45.86 76.80 45.00 78.21 44.57 78.92 C 45.06 79.43 45.56 79.94 46.07 80.45 C 47.64 78.87 49.43 77.49 51.52 76.67 C 50.29 78.23 49.02 80.04 46.85 80.25 C 46.64 82.86 48.23 85.16 47.97 87.76 C 48.44 88.15 49.38 88.92 49.85 89.31 C 49.85 89.89 49.85 91.06 49.85 91.64 C 47.46 93.73 45.12 95.95 43.80 98.89 C 42.34 98.85 40.89 98.82 39.43 98.80 C 37.87 97.95 36.44 96.90 35.13 95.69 C 35.16 94.60 35.19 93.51 35.21 92.42 C 36.09 90.85 37.15 89.39 38.32 88.02 C 39.71 88.08 41.04 88.43 42.18 89.26 C 42.78 86.11 41.44 83.25 41.21 80.24 M 43.29 82.99 C 43.15 85.01 43.02 87.04 43.32 89.06 C 42.93 89.47 42.15 90.29 41.76 90.71 C 40.18 90.67 38.80 91.16 37.86 92.48 C 38.17 93.17 38.80 94.56 39.11 95.26 C 42.29 95.47 42.17 90.37 45.72 91.57 L 45.56 91.50 L 46.06 91.69 C 46.64 88.93 48.56 84.77 44.71 83.53 C 47.53 82.37 44.23 80.59 43.38 79.41 C 41.37 79.87 41.86 82.32 43.29 82.99 Z" />
</g>
<g id="#eee4e7ff">
<path fill="#eee4e7" opacity="1.00" d=" M 39.89 30.59 C 40.28 30.09 41.05 29.07 41.43 28.57 C 44.02 31.44 40.72 35.08 41.82 38.39 C 42.21 38.05 42.98 37.36 43.37 37.02 C 44.09 36.32 44.77 35.59 45.42 34.83 C 45.53 35.19 45.75 35.89 45.86 36.25 C 45.45 36.69 44.62 37.58 44.21 38.03 C 44.19 38.95 44.16 40.79 44.14 41.72 C 44.99 41.51 46.69 41.11 47.55 40.90 C 45.04 43.03 42.26 46.85 38.54 45.35 C 36.78 42.96 40.45 41.77 40.66 39.56 C 39.13 41.08 38.10 42.99 37.23 44.94 C 35.93 42.49 35.16 39.82 34.27 37.20 C 34.96 37.46 36.34 37.98 37.03 38.23 C 37.14 36.61 37.25 34.98 37.33 33.36 C 38.64 32.26 37.22 30.91 35.90 31.16 L 36.05 29.97 C 36.58 30.08 37.64 30.31 38.16 30.42 C 38.28 31.13 38.52 32.53 38.64 33.24 L 38.63 33.74 C 38.59 34.59 38.50 36.29 38.46 37.14 C 40.61 36.82 40.79 34.30 41.75 32.81 C 41.11 32.08 40.49 31.35 39.89 30.59 Z" />
<path fill="#eee4e7" opacity="1.00" d=" M 52.36 35.25 C 53.52 34.96 54.66 34.60 55.83 34.34 C 59.53 37.10 63.32 40.25 67.90 41.29 C 69.06 43.24 69.17 45.50 69.08 47.71 C 67.64 50.05 65.69 52.04 63.07 53.00 C 58.23 55.39 51.85 58.02 46.90 54.56 C 48.45 52.97 48.19 52.21 46.12 52.29 C 46.24 51.58 46.49 50.17 46.61 49.47 C 46.14 49.47 45.20 49.47 44.73 49.47 C 45.02 48.74 45.61 47.27 45.90 46.53 C 45.96 45.42 46.01 44.30 46.06 43.18 C 47.59 42.99 49.12 42.79 50.65 42.59 C 49.61 42.04 48.56 41.51 47.55 40.90 C 47.35 40.47 46.95 39.60 46.75 39.16 C 47.65 39.24 48.55 39.30 49.45 39.35 C 50.00 40.18 50.57 41.00 51.15 41.81 C 51.04 40.01 50.52 38.30 49.84 36.65 L 50.43 35.74 C 50.91 35.62 51.88 35.37 52.36 35.25 M 54.19 40.25 C 54.73 40.74 54.73 40.74 54.19 40.25 M 57.08 39.67 L 56.98 41.00 L 57.97 41.00 C 58.04 43.01 57.78 45.19 58.96 46.95 C 55.32 47.96 51.87 49.79 48.07 50.07 C 48.67 51.67 48.94 53.38 48.50 55.08 L 49.26 53.77 C 50.51 54.15 51.76 54.54 53.00 54.94 C 53.42 54.97 54.26 55.04 54.68 55.07 L 54.87 54.18 L 56.32 53.71 C 56.44 53.67 56.68 53.60 56.80 53.56 C 58.82 53.38 60.54 51.98 60.30 49.80 C 60.79 49.77 61.77 49.70 62.26 49.66 C 61.65 49.52 60.41 49.24 59.80 49.10 C 59.84 48.27 59.94 46.59 59.99 45.75 C 59.16 44.60 58.53 43.19 59.03 41.73 C 58.41 41.02 57.76 40.33 57.08 39.67 M 55.13 42.18 C 53.61 45.40 58.22 42.55 55.13 42.18 M 63.18 41.84 C 61.02 43.24 60.46 45.61 60.83 48.04 C 62.86 48.95 66.79 50.54 67.21 47.09 C 68.21 44.12 65.41 42.80 63.18 41.84 M 47.12 44.39 C 45.45 47.41 50.27 44.87 47.12 44.39 M 49.26 44.26 C 49.78 44.79 49.78 44.79 49.26 44.26 M 56.25 45.26 C 56.72 45.83 56.72 45.83 56.25 45.26 M 48.16 47.21 C 47.55 49.33 52.48 47.90 49.94 46.84 C 49.50 46.94 48.61 47.12 48.16 47.21 Z" />
<path fill="#eee4e7" opacity="1.00" d=" M 37.52 46.89 C 37.56 46.41 37.64 45.45 37.68 44.97 C 38.20 45.26 39.25 45.86 39.77 46.16 C 37.71 48.93 35.50 51.90 32.26 53.32 C 32.20 52.61 32.08 51.18 32.02 50.47 C 32.57 50.11 33.68 49.40 34.23 49.04 C 34.47 48.85 34.94 48.46 35.18 48.27 C 35.77 47.93 36.94 47.23 37.52 46.89 Z" />
<path fill="#eee4e7" opacity="1.00" d=" M 79.42 44.79 C 79.98 45.61 80.55 46.43 81.10 47.25 C 80.14 48.29 79.19 49.34 78.24 50.41 C 80.04 51.78 83.03 52.21 83.39 49.23 C 83.68 48.89 84.27 48.21 84.57 47.87 L 85.44 48.25 C 85.17 48.76 84.62 49.80 84.35 50.31 C 83.90 50.97 83.47 51.63 83.05 52.31 C 83.59 53.13 85.26 54.01 85.82 52.73 L 86.72 51.48 L 87.72 51.72 C 88.58 53.87 84.71 53.98 85.09 55.91 C 87.39 57.08 90.15 56.71 92.61 56.29 C 92.62 56.93 92.63 58.23 92.64 58.87 L 92.25 58.79 C 90.15 58.31 88.05 57.83 85.92 57.47 C 85.56 57.97 84.84 58.98 84.47 59.48 C 83.28 60.73 81.69 60.27 80.20 59.95 C 80.28 58.98 80.36 58.02 80.44 57.06 C 79.57 57.61 78.71 58.16 77.84 58.72 C 77.30 58.29 76.22 57.44 75.68 57.02 C 75.25 54.56 76.73 52.41 77.99 50.46 C 78.22 49.36 78.45 48.27 78.67 47.17 C 78.17 47.09 77.16 46.94 76.66 46.87 C 77.57 46.17 78.49 45.48 79.42 44.79 Z" />
<path fill="#eee4e7" opacity="1.00" d=" M 89.88 50.24 L 90.58 50.41 L 90.72 51.03 C 90.51 50.83 90.09 50.43 89.88 50.24 Z" />
<path fill="#eee4e7" opacity="1.00" d=" M 36.01 52.09 C 37.95 51.58 40.56 52.66 40.06 55.03 C 38.76 54.24 35.00 54.30 36.01 52.09 Z" />
<path fill="#eee4e7" opacity="1.00" d=" M 57.57 56.58 C 60.77 55.42 63.77 53.77 66.70 52.05 C 66.87 53.53 67.06 55.01 67.27 56.48 C 68.03 57.55 68.78 58.63 69.50 59.73 C 70.76 60.31 72.03 60.88 73.31 61.45 C 71.88 64.27 68.83 65.89 67.78 68.94 C 66.73 70.84 65.47 72.64 63.72 73.95 C 61.08 73.62 58.42 73.33 55.83 72.68 C 55.82 72.46 55.80 72.03 55.79 71.81 C 58.07 72.25 60.40 72.28 62.71 72.14 C 63.47 71.30 64.23 70.47 65.00 69.64 C 65.17 66.33 65.18 62.12 62.00 60.15 C 58.98 58.20 55.41 60.09 52.84 61.90 C 51.52 64.17 51.83 66.97 52.08 69.47 C 50.25 67.34 48.55 64.89 48.23 62.03 C 48.13 60.35 47.33 58.02 49.38 57.20 C 52.10 56.93 54.97 57.69 57.57 56.58 Z" />
<path fill="#eee4e7" opacity="1.00" d=" M 86.20 60.88 L 87.11 60.67 C 87.61 61.00 88.60 61.66 89.10 61.99 C 88.09 62.12 87.10 62.34 86.12 62.63 C 86.14 62.19 86.18 61.32 86.20 60.88 Z" />
<path fill="#eee4e7" opacity="1.00" d=" M 70.79 73.24 C 71.41 72.89 72.64 72.18 73.26 71.83 C 75.06 75.15 76.71 78.57 79.32 81.36 C 79.04 81.84 78.49 82.82 78.21 83.31 C 77.45 83.29 75.95 83.26 75.19 83.24 C 75.61 79.29 72.89 76.24 70.79 73.24 Z" />
<path fill="#eee4e7" opacity="1.00" d=" M 48.27 73.70 C 49.66 74.34 50.75 75.37 51.52 76.67 C 49.43 77.49 47.64 78.87 46.07 80.45 C 45.56 79.94 45.06 79.43 44.57 78.92 C 45.00 78.21 45.86 76.80 46.29 76.09 C 46.93 75.28 47.59 74.48 48.27 73.70 Z" />
<path fill="#eee4e7" opacity="1.00" d=" M 43.29 82.99 C 41.86 82.32 41.37 79.87 43.38 79.41 C 44.23 80.59 47.53 82.37 44.71 83.53 C 44.36 83.39 43.64 83.13 43.29 82.99 Z" />
</g>
<g id="#f38ba3ff">
<path fill="#f38ba3" opacity="1.00" d=" M 35.90 31.16 C 37.22 30.91 38.64 32.26 37.33 33.36 C 36.97 32.81 36.25 31.71 35.90 31.16 Z" />
<path fill="#f38ba3" opacity="1.00" d=" M 45.42 34.83 C 45.03 33.58 45.34 32.45 46.34 31.44 C 47.01 32.25 47.71 33.04 48.43 33.80 C 47.56 34.60 46.71 35.42 45.86 36.25 C 45.75 35.89 45.53 35.19 45.42 34.83 Z" />
<path fill="#f38ba3" opacity="1.00" d=" M 31.62 33.31 C 32.13 33.54 33.16 33.98 33.67 34.20 C 33.72 35.17 33.77 36.13 33.83 37.10 C 33.22 36.97 31.99 36.71 31.37 36.58 C 31.37 36.19 31.35 35.43 31.35 35.05 C 31.42 34.61 31.55 33.75 31.62 33.31 Z" />
<path fill="#f38ba3" opacity="1.00" d=" M 54.19 40.25 C 54.73 40.74 54.73 40.74 54.19 40.25 Z" />
<path fill="#f38ba3" opacity="1.00" d=" M 63.18 41.84 C 65.41 42.80 68.21 44.12 67.21 47.09 C 66.79 50.54 62.86 48.95 60.83 48.04 C 60.46 45.61 61.02 43.24 63.18 41.84 Z" />
<path fill="#f38ba3" opacity="1.00" d=" M 69.08 47.71 C 71.21 46.75 73.42 45.90 75.80 45.92 C 76.33 47.01 76.86 48.10 77.40 49.19 C 76.39 51.51 75.25 53.78 74.05 56.01 C 74.27 56.45 74.71 57.33 74.93 57.77 C 74.30 58.58 73.68 59.40 73.06 60.22 C 70.78 58.97 69.08 57.02 67.57 54.97 C 67.80 52.50 68.21 50.04 69.08 47.71 Z" />
<path fill="#f38ba3" opacity="1.00" d=" M 84.28 46.10 C 86.02 44.20 88.02 48.12 85.44 48.25 L 84.57 47.87 C 84.50 47.43 84.35 46.54 84.28 46.10 Z" />
<path fill="#f38ba3" opacity="1.00" d=" M 37.64 50.31 C 40.01 50.01 41.77 48.16 44.12 47.84 C 43.74 51.44 44.84 54.97 47.84 57.17 C 47.38 58.72 46.94 60.27 46.51 61.83 C 44.92 61.81 43.32 61.76 41.73 61.69 C 41.03 60.92 40.13 60.54 39.03 60.58 C 37.46 59.03 36.27 57.13 35.80 54.96 C 37.39 55.73 39.12 55.97 40.87 56.02 C 40.84 54.76 40.81 53.50 40.77 52.24 C 39.72 51.61 38.68 50.96 37.64 50.31 Z" />
<path fill="#f38ba3" opacity="1.00" d=" M 49.26 53.77 C 50.57 51.64 53.00 50.79 55.12 49.73 C 56.84 49.80 58.57 49.85 60.30 49.80 C 60.54 51.98 58.82 53.38 56.80 53.56 C 56.68 53.60 56.44 53.67 56.32 53.71 L 54.87 54.18 C 54.40 54.37 53.47 54.75 53.00 54.94 C 51.76 54.54 50.51 54.15 49.26 53.77 Z" />
<path fill="#f38ba3" opacity="1.00" d=" M 87.60 50.47 C 87.87 50.32 88.41 50.01 88.67 49.85 L 89.88 50.24 C 90.09 50.43 90.51 50.83 90.72 51.03 C 91.66 54.14 87.97 52.19 87.60 50.47 Z" />
<path fill="#f38ba3" opacity="1.00" d=" M 75.68 57.02 C 76.22 57.44 77.30 58.29 77.84 58.72 C 78.71 58.16 79.57 57.61 80.44 57.06 C 80.36 58.02 80.28 58.98 80.20 59.95 C 81.69 60.27 83.28 60.73 84.47 59.48 C 85.01 59.72 86.09 60.19 86.63 60.43 L 87.61 58.46 C 87.46 59.20 87.29 59.94 87.11 60.67 L 86.20 60.88 C 82.57 60.81 76.80 61.70 75.68 57.02 Z" />
<path fill="#f38ba3" opacity="1.00" d=" M 53.00 62.27 C 54.96 61.38 56.90 60.46 58.85 59.56 C 63.60 60.29 66.87 67.46 62.66 70.63 C 58.93 72.93 54.99 69.70 52.36 67.20 C 52.53 65.55 52.73 63.91 53.00 62.27 Z" />
<path fill="#f38ba3" opacity="1.00" d=" M 86.12 62.63 C 87.10 62.34 88.09 62.12 89.10 61.99 C 90.62 64.15 85.95 65.11 86.12 62.63 Z" />
<path fill="#f38ba3" opacity="1.00" d=" M 67.78 68.94 C 69.43 67.21 71.02 65.43 72.69 63.72 C 74.94 65.49 75.69 68.03 75.15 70.78 C 73.53 71.26 71.40 71.30 70.79 73.24 C 69.61 72.91 68.44 72.58 67.27 72.24 C 67.39 71.42 67.65 69.77 67.78 68.94 Z" />
<path fill="#f38ba3" opacity="1.00" d=" M 49.01 68.75 C 52.04 71.01 54.84 73.76 58.56 74.85 C 57.81 75.10 56.31 75.61 55.56 75.86 C 52.94 75.36 50.79 73.78 49.02 71.84 C 49.02 71.07 49.02 69.52 49.01 68.75 Z" />
<path fill="#f38ba3" opacity="1.00" d=" M 52.08 69.47 C 52.34 69.57 52.86 69.78 53.12 69.88 C 52.86 69.78 52.34 69.57 52.08 69.47 Z" />
<path fill="#f38ba3" opacity="1.00" d=" M 53.12 69.88 C 53.27 70.07 53.57 70.43 53.72 70.61 C 53.57 70.43 53.27 70.07 53.12 69.88 Z" />
<path fill="#f38ba3" opacity="1.00" d=" M 43.29 82.99 C 43.64 83.13 44.36 83.39 44.71 83.53 C 48.56 84.77 46.64 88.93 46.06 91.69 L 45.56 91.50 C 45.07 91.31 44.09 90.93 43.59 90.74 C 43.53 90.32 43.39 89.48 43.32 89.06 C 43.02 87.04 43.15 85.01 43.29 82.99 Z" />
<path fill="#f38ba3" opacity="1.00" d=" M 74.95 83.79 C 75.89 83.70 77.77 83.52 78.70 83.43 C 78.16 86.27 80.05 91.63 76.11 92.38 L 75.60 92.29 C 74.68 89.59 73.25 86.51 74.95 83.79 Z" />
</g>
</svg>
