<?xml version="1.0" encoding="UTF-8" ?>
<!DOCTYPE svg PUBLIC "-//W3C//DTD SVG 1.1//EN" "http://www.w3.org/Graphics/SVG/1.1/DTD/svg11.dtd">
<svg width="124pt" height="120pt" viewBox="0 0 124 120" version="1.1" xmlns="http://www.w3.org/2000/svg">
<g id="#816d81ff">
<path fill="#816d81" opacity="1.00" d=" M 91.60 22.37 C 93.87 22.35 96.13 22.34 98.40 22.28 C 101.66 24.00 104.02 26.87 106.59 29.42 C 107.00 31.06 107.45 32.69 107.86 34.33 C 107.51 34.97 106.82 36.25 106.47 36.90 C 105.20 36.81 103.94 36.72 102.67 36.63 C 102.75 38.53 102.82 40.42 102.90 42.32 C 102.60 42.65 102.01 43.31 101.72 43.64 C 101.60 49.45 101.88 55.21 102.74 60.95 C 102.22 65.23 105.33 68.43 107.07 71.99 C 111.13 73.39 113.13 77.46 114.90 81.04 C 116.18 81.52 117.44 82.05 118.71 82.56 C 120.75 84.08 123.14 85.44 124.00 88.02 L 124.00 89.06 C 123.64 89.68 122.93 90.93 122.57 91.55 C 122.02 91.79 120.93 92.27 120.38 92.51 C 115.52 94.46 110.13 92.78 105.31 94.56 C 101.50 94.79 97.69 94.58 93.88 94.82 C 90.68 96.39 87.00 95.55 83.58 95.65 C 83.19 96.02 82.39 96.77 82.00 97.14 C 81.60 96.76 80.81 96.01 80.41 95.64 C 75.92 95.79 71.43 95.55 66.95 95.74 C 57.82 97.62 48.30 96.87 39.31 94.58 C 38.91 94.12 38.13 93.18 37.73 92.72 C 33.50 93.07 29.44 91.70 25.25 91.53 C 23.26 91.58 21.95 89.92 20.49 88.85 C 17.84 88.35 14.14 88.52 12.98 85.51 C 12.78 85.27 12.38 84.77 12.17 84.53 C 13.14 82.65 14.59 81.17 16.60 80.47 C 17.19 80.29 18.35 79.91 18.94 79.72 C 19.66 76.81 20.34 73.81 22.27 71.41 C 22.46 71.22 22.82 70.85 23.00 70.66 C 25.00 71.67 27.07 72.53 29.24 73.10 C 27.86 72.06 26.44 71.06 25.03 70.07 C 26.82 68.25 28.43 66.14 28.08 63.42 C 27.32 62.64 26.61 61.81 25.96 60.93 C 27.42 59.28 28.86 57.50 28.34 55.12 C 28.76 52.58 28.89 49.99 28.38 47.44 C 28.77 47.72 29.53 48.27 29.91 48.54 C 31.81 52.45 29.00 56.94 31.73 60.61 C 30.40 61.39 29.05 62.16 27.79 63.06 C 31.98 63.75 34.09 59.62 36.71 57.20 C 36.88 58.32 37.22 60.56 37.39 61.67 C 37.88 59.18 38.23 56.67 38.58 54.16 C 39.25 59.05 40.60 64.54 37.94 69.08 C 34.96 70.72 31.86 73.24 32.41 77.07 C 32.08 81.12 36.92 79.34 39.37 79.67 C 43.21 80.73 45.38 84.56 47.73 87.49 C 44.63 86.00 42.84 82.55 39.53 81.52 C 35.84 81.44 32.13 81.90 28.49 82.51 C 27.08 84.39 26.28 86.63 25.33 88.75 C 29.46 90.16 33.89 90.44 38.07 89.06 C 38.79 90.36 39.51 91.67 40.22 92.98 C 50.69 95.26 61.64 94.85 72.08 92.64 C 78.05 92.78 84.05 94.00 90.03 92.96 C 93.39 92.69 96.58 90.48 100.00 91.51 C 105.06 92.62 111.05 94.26 115.60 90.84 C 112.54 90.85 109.49 91.05 106.43 90.94 C 109.14 89.86 111.98 88.52 114.98 89.04 C 117.69 89.43 120.43 89.71 123.16 89.39 C 121.50 86.90 119.34 84.36 116.06 84.55 C 115.93 83.95 115.66 82.75 115.53 82.15 C 110.84 82.88 106.02 83.46 101.85 85.89 C 99.29 87.46 96.26 87.32 93.39 87.11 C 98.36 85.96 101.06 80.52 106.28 80.19 C 108.55 79.94 110.83 80.01 113.10 79.99 C 111.91 78.49 110.72 76.99 109.52 75.50 C 105.66 76.56 101.69 77.10 97.70 77.36 C 97.17 75.93 96.61 74.51 96.08 73.08 C 94.71 73.00 93.34 72.94 91.99 72.75 C 90.15 71.57 90.19 69.22 89.77 67.33 C 90.93 68.38 92.06 69.46 93.17 70.55 C 94.31 69.90 95.48 69.28 96.62 68.63 C 97.66 70.94 98.95 73.14 100.54 75.12 C 100.96 73.50 101.37 71.89 101.78 70.27 C 100.02 69.19 98.27 68.08 96.56 66.91 C 98.45 67.17 100.33 67.50 102.21 67.84 C 101.83 63.87 101.40 59.90 100.88 55.95 C 99.55 57.60 98.41 59.99 96.00 60.08 C 94.40 59.72 92.93 58.97 91.43 58.36 C 93.89 58.02 96.34 57.57 98.72 56.88 C 100.64 53.40 101.42 49.50 100.93 45.55 C 98.74 48.00 97.08 50.89 96.76 54.21 C 95.02 54.05 93.32 53.69 91.69 53.10 C 91.99 52.56 92.59 51.47 92.89 50.92 C 91.77 48.23 90.70 45.52 89.67 42.79 C 90.33 43.07 91.65 43.62 92.32 43.90 C 91.92 41.74 90.62 39.99 89.10 38.48 C 88.98 36.73 89.58 35.08 90.14 33.47 C 91.97 34.24 93.70 35.99 95.85 35.60 C 97.98 35.08 99.79 33.75 101.69 32.70 C 101.37 30.51 101.07 28.31 100.84 26.11 C 100.88 25.80 100.95 25.18 100.99 24.86 C 100.62 25.44 99.87 26.59 99.50 27.17 C 98.54 25.70 97.58 24.24 96.63 22.77 C 94.29 23.24 91.13 23.49 90.95 26.63 C 90.54 25.97 90.14 25.31 89.73 24.65 C 88.23 25.25 86.66 25.63 85.09 25.97 L 85.48 25.66 C 87.51 24.53 89.60 23.53 91.60 22.37 M 103.05 28.49 C 102.04 29.87 103.92 32.40 105.45 31.21 C 105.95 30.00 104.29 28.04 103.05 28.49 M 93.68 39.59 C 94.56 42.43 94.13 45.41 94.42 48.31 C 94.77 48.55 95.47 49.02 95.82 49.25 C 95.74 46.46 95.38 43.46 96.96 40.97 C 97.37 39.27 99.18 40.27 100.08 40.83 C 100.04 40.34 99.95 39.36 99.90 38.86 C 98.48 39.15 97.10 39.61 95.77 40.20 C 95.07 40.00 94.37 39.80 93.68 39.59 M 98.44 42.49 C 97.66 43.88 97.14 45.39 96.82 46.95 C 98.84 44.84 101.97 43.31 102.24 40.08 C 101.02 40.95 99.76 41.77 98.44 42.49 M 94.13 50.49 C 93.04 51.47 94.33 53.87 95.72 52.89 C 96.82 51.94 95.46 49.57 94.13 50.49 M 36.25 64.14 C 36.69 64.57 36.69 64.57 36.25 64.14 M 35.29 66.23 C 35.69 66.78 35.69 66.78 35.29 66.23 Z" />
<path fill="#816d81" opacity="1.00" d=" M 83.53 28.34 C 85.18 28.46 86.83 28.57 88.47 28.68 C 88.74 29.90 89.05 31.11 89.38 32.31 L 88.62 32.92 C 87.95 33.40 87.26 33.84 86.53 34.22 C 85.35 33.50 83.98 32.96 83.07 31.88 C 83.12 30.69 83.27 29.51 83.53 28.34 Z" />
<path fill="#816d81" opacity="1.00" d=" M 93.18 33.51 C 94.42 32.87 97.11 32.59 97.75 33.98 C 96.52 34.59 93.72 34.93 93.18 33.51 Z" />
<path fill="#816d81" opacity="1.00" d=" M 49.85 47.03 C 52.73 45.25 55.63 43.27 59.10 42.92 L 58.69 44.05 C 54.09 44.92 51.48 48.85 47.92 51.37 C 44.75 51.01 40.81 50.26 39.44 46.96 L 40.78 47.08 C 43.76 47.35 47.07 48.72 49.85 47.03 Z" />
<path fill="#816d81" opacity="1.00" d=" M 74.72 48.38 C 77.18 48.09 79.64 48.45 82.06 48.87 C 83.61 50.88 84.97 53.02 86.26 55.20 C 85.22 58.57 84.95 62.23 83.25 65.37 C 81.44 68.00 79.33 70.55 76.66 72.36 C 75.49 72.25 74.34 72.03 73.20 71.71 C 78.22 64.79 75.79 56.11 74.72 48.38 Z" />
<path fill="#816d81" opacity="1.00" d=" M 5.46 49.27 L 6.56 48.77 C 7.11 48.89 8.21 49.15 8.76 49.28 C 9.93 51.15 10.87 53.14 11.81 55.13 C 13.51 55.40 15.22 55.65 16.88 56.14 L 16.78 56.62 C 15.84 58.96 15.31 61.55 13.62 63.50 C 13.30 60.55 12.29 57.75 9.82 55.94 C 8.35 53.74 7.06 51.41 5.38 49.35 L 5.46 49.27 Z" />
<path fill="#816d81" opacity="1.00" d=" M 23.09 53.44 C 23.78 53.52 25.15 53.68 25.84 53.76 C 26.36 54.31 27.40 55.41 27.92 55.96 C 27.50 56.73 26.67 58.28 26.26 59.06 C 24.85 57.98 23.45 56.90 22.05 55.82 C 22.31 55.23 22.83 54.03 23.09 53.44 Z" />
<path fill="#816d81" opacity="1.00" d=" M 38.49 74.26 C 43.08 73.61 47.79 72.18 52.40 73.49 C 57.18 74.76 62.15 75.02 67.04 74.35 C 67.29 74.69 67.77 75.36 68.01 75.70 C 62.04 76.87 56.03 77.95 49.95 78.36 C 45.86 78.12 41.93 76.42 38.49 74.26 Z" />
<path fill="#816d81" opacity="1.00" d=" M 47.53 87.05 C 56.32 89.45 63.34 80.99 71.99 81.59 C 75.05 81.80 78.62 81.82 80.89 84.21 C 75.74 84.45 70.28 82.92 65.42 85.34 C 61.21 87.38 56.66 88.31 52.08 89.04 C 50.30 89.28 48.80 88.12 47.53 87.05 Z" />
<path fill="#816d81" opacity="1.00" d=" M 81.10 84.08 C 84.08 82.51 81.29 87.39 81.10 84.08 Z" />
<path fill="#816d81" opacity="1.00" d=" M 84.39 85.26 C 84.83 85.70 84.83 85.70 84.39 85.26 Z" />
</g>
<g id="#b2a1baff">
<path fill="#b2a1ba" opacity="1.00" d=" M 90.95 26.63 C 91.13 23.49 94.29 23.24 96.63 22.77 C 97.58 24.24 98.54 25.70 99.50 27.17 C 99.87 26.59 100.62 25.44 100.99 24.86 C 100.95 25.18 100.88 25.80 100.84 26.11 C 100.53 27.32 100.22 28.52 99.89 29.72 C 99.10 30.39 98.32 31.05 97.53 31.72 C 94.50 31.88 89.62 31.20 90.26 27.00 C 89.77 26.95 88.79 26.85 88.30 26.80 C 88.35 27.27 88.43 28.21 88.47 28.68 C 86.83 28.57 85.18 28.46 83.53 28.34 C 83.61 28.04 83.77 27.44 83.85 27.13 C 84.16 26.84 84.78 26.26 85.09 25.97 C 86.66 25.63 88.23 25.25 89.73 24.65 C 90.14 25.31 90.54 25.97 90.95 26.63 Z" />
<path fill="#b2a1ba" opacity="1.00" d=" M 103.05 28.49 C 104.29 28.04 105.95 30.00 105.45 31.21 C 103.92 32.40 102.04 29.87 103.05 28.49 Z" />
<path fill="#b2a1ba" opacity="1.00" d=" M 53.47 35.60 C 58.24 34.58 63.74 34.35 67.97 37.19 C 71.57 39.41 75.63 41.26 78.00 44.94 C 75.02 44.07 71.64 43.81 69.33 41.51 C 65.89 41.72 62.46 42.15 59.10 42.92 C 55.63 43.27 52.73 45.25 49.85 47.03 C 47.07 48.72 43.76 47.35 40.78 47.08 C 41.20 46.98 42.03 46.78 42.45 46.68 C 41.60 46.61 39.91 46.49 39.06 46.42 C 40.40 45.07 41.46 43.49 42.29 41.78 C 42.85 41.23 43.40 40.66 43.94 40.09 C 44.21 39.83 44.74 39.31 45.01 39.05 C 46.78 38.14 48.59 37.29 50.50 36.70 C 51.49 36.34 52.48 35.97 53.47 35.60 Z" />
<path fill="#b2a1ba" opacity="1.00" d=" M 89.10 38.48 C 90.62 39.99 91.92 41.74 92.32 43.90 C 91.65 43.62 90.33 43.07 89.67 42.79 C 90.70 45.52 91.77 48.23 92.89 50.92 C 92.59 51.47 91.99 52.56 91.69 53.10 C 93.32 53.69 95.02 54.05 96.76 54.21 C 97.08 50.89 98.74 48.00 100.93 45.55 C 101.42 49.50 100.64 53.40 98.72 56.88 C 96.34 57.57 93.89 58.02 91.43 58.36 C 92.93 58.97 94.40 59.72 96.00 60.08 C 98.41 59.99 99.55 57.60 100.88 55.95 C 101.40 59.90 101.83 63.87 102.21 67.84 C 100.33 67.50 98.45 67.17 96.56 66.91 C 98.27 68.08 100.02 69.19 101.78 70.27 C 101.37 71.89 100.96 73.50 100.54 75.12 C 98.95 73.14 97.66 70.94 96.62 68.63 C 95.48 69.28 94.31 69.90 93.17 70.55 C 92.06 69.46 90.93 68.38 89.77 67.33 C 90.19 69.22 90.15 71.57 91.99 72.75 C 93.34 72.94 94.71 73.00 96.08 73.08 C 96.61 74.51 97.17 75.93 97.70 77.36 C 101.69 77.10 105.66 76.56 109.52 75.50 C 110.72 76.99 111.91 78.49 113.10 79.99 C 110.83 80.01 108.55 79.94 106.28 80.19 C 101.06 80.52 98.36 85.96 93.39 87.11 C 96.26 87.32 99.29 87.46 101.85 85.89 C 106.02 83.46 110.84 82.88 115.53 82.15 C 115.66 82.75 115.93 83.95 116.06 84.55 C 119.34 84.36 121.50 86.90 123.16 89.39 C 120.43 89.71 117.69 89.43 114.98 89.04 C 111.98 88.52 109.14 89.86 106.43 90.94 C 109.49 91.05 112.54 90.85 115.60 90.84 C 111.05 94.26 105.06 92.62 100.00 91.51 C 96.58 90.48 93.39 92.69 90.03 92.96 C 84.05 94.00 78.05 92.78 72.08 92.64 C 61.64 94.85 50.69 95.26 40.22 92.98 C 39.51 91.67 38.79 90.36 38.07 89.06 C 33.89 90.44 29.46 90.16 25.33 88.75 C 26.28 86.63 27.08 84.39 28.49 82.51 C 32.13 81.90 35.84 81.44 39.53 81.52 C 42.84 82.55 44.63 86.00 47.73 87.49 C 45.38 84.56 43.21 80.73 39.37 79.67 C 36.92 79.34 32.08 81.12 32.41 77.07 C 31.86 73.24 34.96 70.72 37.94 69.08 C 38.19 69.62 38.71 70.70 38.97 71.24 C 39.78 70.67 40.58 70.10 41.40 69.56 C 48.54 65.95 56.53 68.12 63.59 70.68 C 66.85 72.12 68.78 68.81 69.62 66.23 C 70.33 67.94 71.06 69.65 71.80 71.35 C 72.15 71.44 72.85 71.62 73.20 71.71 C 74.34 72.03 75.49 72.25 76.66 72.36 C 79.33 70.55 81.44 68.00 83.25 65.37 C 84.95 62.23 85.22 58.57 86.26 55.20 C 86.67 54.83 87.49 54.09 87.89 53.72 C 88.02 51.92 88.09 50.08 88.79 48.39 C 89.25 45.10 89.36 41.78 89.10 38.48 M 38.49 74.26 C 41.93 76.42 45.86 78.12 49.95 78.36 C 56.03 77.95 62.04 76.87 68.01 75.70 C 67.77 75.36 67.29 74.69 67.04 74.35 C 62.15 75.02 57.18 74.76 52.40 73.49 C 47.79 72.18 43.08 73.61 38.49 74.26 M 47.53 87.05 C 48.80 88.12 50.30 89.28 52.08 89.04 C 56.66 88.31 61.21 87.38 65.42 85.34 C 70.28 82.92 75.74 84.45 80.89 84.21 C 78.62 81.82 75.05 81.80 71.99 81.59 C 63.34 80.99 56.32 89.45 47.53 87.05 M 81.10 84.08 C 81.29 87.39 84.08 82.51 81.10 84.08 M 84.39 85.26 C 84.83 85.70 84.83 85.70 84.39 85.26 Z" />
<path fill="#b2a1ba" opacity="1.00" d=" M 93.68 39.59 C 94.37 39.80 95.07 40.00 95.77 40.20 C 97.10 39.61 98.48 39.15 99.90 38.86 C 99.95 39.36 100.04 40.34 100.08 40.83 C 99.18 40.27 97.37 39.27 96.96 40.97 C 95.38 43.46 95.74 46.46 95.82 49.25 C 95.47 49.02 94.77 48.55 94.42 48.31 C 94.13 45.41 94.56 42.43 93.68 39.59 Z" />
<path fill="#b2a1ba" opacity="1.00" d=" M 98.44 42.49 C 99.76 41.77 101.02 40.95 102.24 40.08 C 101.97 43.31 98.84 44.84 96.82 46.95 C 97.14 45.39 97.66 43.88 98.44 42.49 Z" />
<path fill="#b2a1ba" opacity="1.00" d=" M 58.69 44.05 C 60.58 43.55 62.50 43.13 64.43 42.79 C 63.23 46.52 60.88 49.70 57.90 52.21 C 51.40 53.84 43.76 56.39 37.79 51.93 C 38.17 51.45 38.94 50.49 39.33 50.01 C 39.23 49.24 39.02 47.69 38.92 46.92 L 39.44 46.96 C 40.81 50.26 44.75 51.01 47.92 51.37 C 51.48 48.85 54.09 44.92 58.69 44.05 Z" />
<path fill="#b2a1ba" opacity="1.00" d=" M 65.25 43.24 C 66.42 42.68 68.80 42.47 69.26 44.03 C 68.73 45.97 64.78 45.12 65.25 43.24 Z" />
<path fill="#b2a1ba" opacity="1.00" d=" M 78.00 44.94 C 78.05 45.00 78.14 45.12 78.19 45.19 L 77.95 45.16 L 78.00 44.94 Z" />
<path fill="#b2a1ba" opacity="1.00" d=" M 16.67 45.86 C 17.97 44.64 19.80 45.14 21.39 44.97 C 22.03 47.78 22.90 50.56 22.62 53.48 C 21.96 53.81 20.63 54.46 19.96 54.78 C 19.92 53.91 19.83 52.16 19.79 51.28 C 17.54 49.56 15.16 48.01 12.89 46.32 C 13.84 46.20 15.73 45.97 16.67 45.86 Z" />
<path fill="#b2a1ba" opacity="1.00" d=" M 68.59 45.59 C 73.07 42.55 78.53 45.80 82.06 48.87 C 79.64 48.45 77.18 48.09 74.72 48.38 C 70.71 48.90 71.03 53.08 70.25 56.09 C 69.09 54.17 68.35 52.04 67.73 49.89 C 67.13 50.28 66.52 50.67 65.92 51.05 C 63.47 51.27 61.08 51.84 58.72 52.48 C 60.80 50.37 62.60 48.01 63.98 45.39 C 65.52 45.46 67.05 45.53 68.59 45.59 Z" />
<path fill="#b2a1ba" opacity="1.00" d=" M 6.56 48.77 C 8.36 47.92 10.13 46.99 11.86 46.02 C 14.98 48.69 19.91 50.91 19.25 55.83 L 18.42 56.65 L 16.88 56.14 C 15.22 55.65 13.51 55.40 11.81 55.13 C 10.87 53.14 9.93 51.15 8.76 49.28 C 8.21 49.15 7.11 48.89 6.56 48.77 Z" />
<path fill="#b2a1ba" opacity="1.00" d=" M 22.29 45.74 C 24.40 45.97 26.50 46.42 28.38 47.44 C 28.89 49.99 28.76 52.58 28.34 55.12 L 27.92 55.96 C 27.40 55.41 26.36 54.31 25.84 53.76 C 25.15 53.68 23.78 53.52 23.09 53.44 C 23.89 50.85 23.11 48.21 22.29 45.74 Z" />
<path fill="#b2a1ba" opacity="1.00" d=" M 29.91 48.54 C 32.42 50.94 37.26 51.88 36.69 56.22 C 35.12 57.77 33.58 59.38 31.73 60.61 C 29.00 56.94 31.81 52.45 29.91 48.54 Z" />
<path fill="#b2a1ba" opacity="1.00" d=" M 4.77 51.37 C 4.93 50.86 5.23 49.85 5.38 49.35 C 7.06 51.41 8.35 53.74 9.82 55.94 C 9.66 56.35 9.35 57.18 9.19 57.59 C 9.02 58.02 8.68 58.87 8.51 59.30 C 7.92 59.93 6.74 61.20 6.15 61.83 C 4.47 61.72 2.25 62.48 1.23 60.65 C 0.37 56.62 4.11 53.48 4.91 49.72 L 4.77 51.37 Z" />
<path fill="#b2a1ba" opacity="1.00" d=" M 94.13 50.49 C 95.46 49.57 96.82 51.94 95.72 52.89 C 94.33 53.87 93.04 51.47 94.13 50.49 Z" />
<path fill="#b2a1ba" opacity="1.00" d=" M 41.06 67.46 C 44.54 63.49 50.03 62.68 54.98 62.06 C 59.64 62.86 64.65 62.67 68.88 65.06 C 68.31 67.33 67.53 71.34 64.29 69.87 C 57.11 67.35 47.96 63.80 41.40 69.56 C 41.32 69.03 41.14 67.99 41.06 67.46 Z" />
<path fill="#b2a1ba" opacity="1.00" d=" M 72.32 68.10 C 72.75 68.48 72.75 68.48 72.32 68.10 Z" />
</g>
<g id="#2f2b2dff">
<path fill="#2f2b2d" opacity="1.00" d=" M 83.59 27.43 L 83.85 27.13 C 83.77 27.44 83.61 28.04 83.53 28.34 C 83.27 29.51 83.12 30.69 83.07 31.88 C 83.98 32.96 85.35 33.50 86.53 34.22 C 85.04 35.38 83.41 34.32 81.98 33.71 C 82.00 32.30 82.01 30.90 82.03 29.50 C 82.42 28.98 83.20 27.94 83.59 27.43 Z" />
<path fill="#2f2b2d" opacity="1.00" d=" M 88.30 26.80 C 88.79 26.85 89.77 26.95 90.26 27.00 C 89.62 31.20 94.50 31.88 97.53 31.72 C 98.32 31.05 99.10 30.39 99.89 29.72 C 100.22 28.52 100.53 27.32 100.84 26.11 C 101.07 28.31 101.37 30.51 101.69 32.70 C 99.79 33.75 97.98 35.08 95.85 35.60 C 93.70 35.99 91.97 34.24 90.14 33.47 C 89.58 35.08 88.98 36.73 89.10 38.48 C 89.36 41.78 89.25 45.10 88.79 48.39 C 88.09 50.08 88.02 51.92 87.89 53.72 C 87.49 54.09 86.67 54.83 86.26 55.20 C 84.97 53.02 83.61 50.88 82.06 48.87 C 78.53 45.80 73.07 42.55 68.59 45.59 C 67.05 45.53 65.52 45.46 63.98 45.39 C 62.60 48.01 60.80 50.37 58.72 52.48 C 61.08 51.84 63.47 51.27 65.92 51.05 C 66.52 50.67 67.13 50.28 67.73 49.89 C 68.35 52.04 69.09 54.17 70.25 56.09 C 71.03 53.08 70.71 48.90 74.72 48.38 C 75.79 56.11 78.22 64.79 73.20 71.71 C 72.85 71.62 72.15 71.44 71.80 71.35 C 71.06 69.65 70.33 67.94 69.62 66.23 C 68.78 68.81 66.85 72.12 63.59 70.68 C 56.53 68.12 48.54 65.95 41.40 69.56 C 47.96 63.80 57.11 67.35 64.29 69.87 C 67.53 71.34 68.31 67.33 68.88 65.06 C 64.65 62.67 59.64 62.86 54.98 62.06 C 50.03 62.68 44.54 63.49 41.06 67.46 C 41.14 67.99 41.32 69.03 41.40 69.56 C 40.58 70.10 39.78 70.67 38.97 71.24 C 38.71 70.70 38.19 69.62 37.94 69.08 C 40.60 64.54 39.25 59.05 38.58 54.16 C 38.23 56.67 37.88 59.18 37.39 61.67 C 37.22 60.56 36.88 58.32 36.71 57.20 C 34.09 59.62 31.98 63.75 27.79 63.06 C 29.05 62.16 30.40 61.39 31.73 60.61 C 33.58 59.38 35.12 57.77 36.69 56.22 C 37.26 51.88 32.42 50.94 29.91 48.54 C 29.53 48.27 28.77 47.72 28.38 47.44 C 26.50 46.42 24.40 45.97 22.29 45.74 C 23.11 48.21 23.89 50.85 23.09 53.44 C 22.83 54.03 22.31 55.23 22.05 55.82 C 23.45 56.90 24.85 57.98 26.26 59.06 C 26.67 58.28 27.50 56.73 27.92 55.96 L 28.34 55.12 C 28.86 57.50 27.42 59.28 25.96 60.93 C 26.61 61.81 27.32 62.64 28.08 63.42 C 28.43 66.14 26.82 68.25 25.03 70.07 C 26.44 71.06 27.86 72.06 29.24 73.10 C 27.07 72.53 25.00 71.67 23.00 70.66 C 24.42 69.17 25.83 67.68 27.25 66.20 C 25.11 62.36 23.71 57.62 19.25 55.83 C 19.91 50.91 14.98 48.69 11.86 46.02 C 10.13 46.99 8.36 47.92 6.56 48.77 L 5.46 49.27 C 7.09 47.26 9.46 46.13 11.79 45.13 C 16.28 45.09 20.74 42.92 25.13 44.99 C 30.18 45.60 32.88 50.97 37.99 51.28 C 38.01 49.89 38.05 48.50 38.10 47.12 L 38.92 46.92 C 39.02 47.69 39.23 49.24 39.33 50.01 C 38.94 50.49 38.17 51.45 37.79 51.93 C 43.76 56.39 51.40 53.84 57.90 52.21 C 60.88 49.70 63.23 46.52 64.43 42.79 C 62.50 43.13 60.58 43.55 58.69 44.05 L 59.10 42.92 C 62.46 42.15 65.89 41.72 69.33 41.51 C 71.64 43.81 75.02 44.07 78.00 44.94 L 77.95 45.16 L 78.19 45.19 C 78.14 45.12 78.05 45.00 78.00 44.94 C 75.63 41.26 71.57 39.41 67.97 37.19 C 63.74 34.35 58.24 34.58 53.47 35.60 C 52.48 35.97 51.49 36.34 50.50 36.70 C 48.59 37.29 46.78 38.14 45.01 39.05 C 45.13 38.84 45.36 38.40 45.47 38.19 C 46.38 37.45 47.35 36.79 48.38 36.22 C 54.46 34.00 61.28 32.83 67.50 35.26 C 70.07 37.20 73.04 38.50 75.62 40.42 C 80.18 44.01 83.78 48.64 86.91 53.49 C 87.23 49.98 88.30 46.54 88.09 42.98 C 88.15 39.63 87.54 36.16 88.62 32.92 L 89.38 32.31 C 89.05 31.11 88.74 29.90 88.47 28.68 C 88.43 28.21 88.35 27.27 88.30 26.80 M 93.18 33.51 C 93.72 34.93 96.52 34.59 97.75 33.98 C 97.11 32.59 94.42 32.87 93.18 33.51 M 65.25 43.24 C 64.78 45.12 68.73 45.97 69.26 44.03 C 68.80 42.47 66.42 42.68 65.25 43.24 M 16.67 45.86 C 15.73 45.97 13.84 46.20 12.89 46.32 C 15.16 48.01 17.54 49.56 19.79 51.28 C 19.83 52.16 19.92 53.91 19.96 54.78 C 20.63 54.46 21.96 53.81 22.62 53.48 C 22.90 50.56 22.03 47.78 21.39 44.97 C 19.80 45.14 17.97 44.64 16.67 45.86 M 72.32 68.10 C 72.75 68.48 72.75 68.48 72.32 68.10 Z" />
<path fill="#2f2b2d" opacity="1.00" d=" M 41.74 40.21 C 42.29 40.18 43.39 40.12 43.94 40.09 C 43.40 40.66 42.85 41.23 42.29 41.78 C 41.46 43.49 40.40 45.07 39.06 46.42 C 39.91 44.33 40.83 42.27 41.74 40.21 Z" />
<path fill="#2f2b2d" opacity="1.00" d=" M 0.00 57.78 C 1.48 55.01 2.69 52.02 4.91 49.72 C 4.11 53.48 0.37 56.62 1.23 60.65 C 2.25 62.48 4.47 61.72 6.15 61.83 C 6.74 61.20 7.92 59.93 8.51 59.30 C 7.98 60.59 7.43 61.87 6.87 63.15 C 4.55 62.86 1.71 63.67 0.00 61.62 L 0.00 57.78 Z" />
<path fill="#2f2b2d" opacity="1.00" d=" M 9.19 57.59 C 9.35 57.18 9.66 56.35 9.82 55.94 C 12.29 57.75 13.30 60.55 13.62 63.50 C 15.31 61.55 15.84 58.96 16.78 56.62 C 17.05 59.15 16.46 61.60 15.75 64.01 C 14.52 64.00 13.30 64.00 12.08 64.00 C 12.05 62.82 12.02 61.64 12.00 60.46 C 11.05 59.51 10.10 58.57 9.19 57.59 Z" />
<path fill="#2f2b2d" opacity="1.00" d=" M 36.25 64.14 C 36.69 64.57 36.69 64.57 36.25 64.14 Z" />
<path fill="#2f2b2d" opacity="1.00" d=" M 35.29 66.23 C 35.69 66.78 35.69 66.78 35.29 66.23 Z" />
<path fill="#2f2b2d" opacity="1.00" d=" M 18.16 76.49 C 19.10 74.48 20.63 72.87 22.27 71.41 C 20.34 73.81 19.66 76.81 18.94 79.72 C 18.35 79.91 17.19 80.29 16.60 80.47 C 16.91 79.97 17.51 78.96 17.82 78.46 C 17.90 77.97 18.07 76.98 18.16 76.49 Z" />
</g>
</svg>
