<?xml version="1.0" encoding="UTF-8" ?>
<!DOCTYPE svg PUBLIC "-//W3C//DTD SVG 1.1//EN" "http://www.w3.org/Graphics/SVG/1.1/DTD/svg11.dtd">
<svg width="120pt" height="120pt" viewBox="0 0 120 120" version="1.1" xmlns="http://www.w3.org/2000/svg">
<g id="#373343fa">
<path fill="#373343" opacity="0.98" d=" M 33.03 34.46 C 33.40 34.08 34.13 33.31 34.50 32.92 C 37.41 35.77 40.34 38.70 41.85 42.57 C 41.95 43.04 42.16 43.97 42.26 44.44 C 42.96 46.01 43.04 47.74 43.28 49.42 C 43.68 50.71 44.03 52.02 44.35 53.33 C 45.51 52.98 46.66 52.61 47.80 52.18 C 50.51 52.19 53.60 51.34 55.94 53.17 C 56.90 50.81 57.48 47.40 60.81 47.83 C 61.41 46.37 62.05 44.92 62.64 43.45 C 64.10 41.39 65.86 39.57 67.63 37.78 C 67.78 38.13 68.06 38.82 68.20 39.17 C 69.95 38.09 71.76 37.11 73.56 36.12 C 74.02 36.08 74.95 35.99 75.41 35.95 C 76.89 35.01 78.49 34.18 80.26 33.97 C 81.88 35.45 84.10 35.00 86.08 35.15 L 85.61 36.40 C 84.37 36.05 83.12 35.98 81.87 36.19 C 81.73 36.21 81.45 36.25 81.31 36.27 C 80.78 36.02 79.74 35.52 79.22 35.27 C 74.76 37.03 70.55 39.36 66.07 41.06 C 66.02 41.67 65.93 42.87 65.88 43.47 C 65.52 43.13 64.82 42.45 64.46 42.11 C 63.80 43.73 63.13 45.36 62.38 46.96 C 61.80 47.84 61.22 48.72 60.66 49.61 C 60.41 50.23 59.92 51.48 59.67 52.10 C 59.25 51.75 58.43 51.04 58.01 50.69 C 57.17 52.47 57.21 54.41 57.51 56.31 C 55.21 52.43 50.23 52.49 46.43 53.73 C 45.65 53.87 44.09 54.17 43.31 54.31 C 44.20 54.62 45.96 55.23 46.85 55.54 C 44.91 55.58 42.99 55.38 41.10 54.96 C 41.12 54.27 41.15 52.91 41.17 52.22 C 41.68 52.71 42.71 53.69 43.23 54.18 C 42.27 49.57 41.86 44.70 39.51 40.52 C 38.21 38.06 35.78 36.53 33.69 34.82 C 34.42 36.95 35.31 39.04 36.47 40.98 C 37.00 45.35 38.13 49.62 39.31 53.86 C 40.26 54.82 41.22 55.78 42.19 56.74 C 42.47 58.07 42.72 59.40 42.94 60.75 C 42.05 59.38 41.12 58.03 40.22 56.67 C 40.06 58.76 39.92 60.87 39.28 62.89 C 39.24 63.89 39.20 64.90 39.17 65.91 C 39.14 66.68 39.06 68.22 39.02 68.99 C 39.13 71.17 40.02 73.18 41.13 75.03 C 41.44 74.79 42.06 74.33 42.38 74.09 C 43.46 75.00 44.56 75.90 45.65 76.79 C 44.65 75.32 43.65 73.84 42.66 72.35 C 44.64 73.53 46.49 74.92 48.25 76.41 C 53.00 74.94 57.84 73.78 62.74 72.90 C 63.25 71.12 63.78 69.33 64.39 67.58 C 64.19 69.73 63.86 71.89 63.17 73.94 C 56.61 74.85 50.43 77.37 43.88 78.28 C 42.42 77.04 40.87 75.91 39.34 74.75 C 39.00 75.55 38.33 77.13 38.00 77.93 C 38.18 72.88 37.95 67.83 38.17 62.79 C 39.58 60.23 39.36 57.09 38.42 54.41 C 38.05 53.41 37.68 52.42 37.32 51.43 C 37.05 50.06 36.76 48.70 36.39 47.36 C 36.07 46.01 35.76 44.66 35.27 43.35 C 35.19 42.89 35.03 41.96 34.95 41.49 C 34.34 40.50 33.72 39.51 33.09 38.52 C 33.07 37.17 33.05 35.82 33.03 34.46 Z" />
</g>
<g id="#cba1caff">
<path fill="#cba1ca" opacity="1.00" d=" M 33.69 34.82 C 35.78 36.53 38.21 38.06 39.51 40.52 C 41.86 44.70 42.27 49.57 43.23 54.18 C 42.71 53.69 41.68 52.71 41.17 52.22 C 41.15 52.91 41.12 54.27 41.10 54.96 C 42.99 55.38 44.91 55.58 46.85 55.54 C 47.65 55.63 48.46 55.73 49.26 55.84 C 49.02 57.57 48.81 59.32 48.51 61.04 C 46.40 59.61 44.24 58.25 42.19 56.74 C 41.22 55.78 40.26 54.82 39.31 53.86 C 38.13 49.62 37.00 45.35 36.47 40.98 C 35.31 39.04 34.42 36.95 33.69 34.82 Z" />
</g>
<g id="#e5b5e4ff">
<path fill="#e5b5e4" opacity="1.00" d=" M 79.22 35.27 C 79.74 35.52 80.78 36.02 81.31 36.27 C 77.22 38.69 72.16 39.17 68.68 42.69 C 66.80 43.37 65.36 44.77 64.57 46.61 L 64.06 46.69 L 62.38 46.96 C 63.13 45.36 63.80 43.73 64.46 42.11 C 64.82 42.45 65.52 43.13 65.88 43.47 C 65.93 42.87 66.02 41.67 66.07 41.06 C 70.55 39.36 74.76 37.03 79.22 35.27 Z" />
<path fill="#e5b5e4" opacity="1.00" d=" M 46.43 53.73 C 50.23 52.49 55.21 52.43 57.51 56.31 C 53.41 61.36 48.06 65.30 44.51 70.84 C 44.25 69.22 44.01 67.61 43.75 66.00 C 45.70 64.74 47.59 63.25 48.51 61.04 C 48.81 59.32 49.02 57.57 49.26 55.84 C 48.46 55.73 47.65 55.63 46.85 55.54 C 45.96 55.23 44.20 54.62 43.31 54.31 C 44.09 54.17 45.65 53.87 46.43 53.73 Z" />
</g>
<g id="#296863ff">
<path fill="#296863" opacity="1.00" d=" M 81.31 36.27 C 81.45 36.25 81.73 36.21 81.87 36.19 C 81.99 36.71 82.23 37.74 82.34 38.26 C 83.04 38.04 84.42 37.59 85.12 37.36 C 84.89 38.67 85.09 40.18 84.08 41.22 C 83.95 40.77 83.68 39.89 83.55 39.45 C 82.43 39.39 82.14 40.07 82.70 41.51 L 82.93 42.37 C 82.34 43.37 81.76 44.39 81.19 45.40 C 78.69 50.64 75.03 55.33 70.98 59.46 C 70.96 60.00 70.93 61.07 70.91 61.61 C 73.57 64.20 76.18 66.84 78.83 69.45 C 78.92 69.95 79.11 70.94 79.21 71.43 C 80.26 73.66 79.89 76.19 79.97 78.58 C 79.25 79.52 78.53 80.45 77.78 81.37 C 79.38 77.80 79.21 73.90 77.85 70.29 C 75.24 67.74 72.68 65.14 70.05 62.61 C 70.08 61.96 70.15 60.66 70.18 60.01 C 67.62 61.15 64.96 62.04 62.27 62.81 C 61.78 61.88 61.29 60.95 60.80 60.03 L 61.64 59.80 C 63.06 59.82 64.47 59.88 65.89 59.98 C 66.37 59.66 67.34 59.03 67.82 58.71 C 68.63 57.96 69.44 57.22 70.28 56.51 C 70.25 56.93 70.19 57.78 70.16 58.21 C 71.44 57.90 71.99 57.03 71.78 55.60 C 75.57 50.99 79.04 46.05 81.24 40.47 C 73.36 42.45 66.79 48.31 63.26 55.54 C 62.04 56.08 60.82 56.62 59.60 57.17 C 60.63 53.50 62.26 50.04 64.06 46.69 L 64.57 46.61 C 67.00 46.89 68.52 44.93 68.68 42.69 C 72.16 39.17 77.22 38.69 81.31 36.27 Z" />
</g>
<g id="#b28cb1ff">
<path fill="#b28cb1" opacity="1.00" d=" M 81.87 36.19 C 83.12 35.98 84.37 36.05 85.61 36.40 C 85.49 36.64 85.24 37.12 85.12 37.36 C 84.42 37.59 83.04 38.04 82.34 38.26 C 82.23 37.74 81.99 36.71 81.87 36.19 Z" />
</g>
<g id="#cda2ccff">
<path fill="#cda2cc" opacity="1.00" d=" M 82.70 41.51 C 82.14 40.07 82.43 39.39 83.55 39.45 C 83.68 39.89 83.95 40.77 84.08 41.22 C 83.74 41.29 83.04 41.43 82.70 41.51 Z" />
<path fill="#cda2cc" opacity="1.00" d=" M 60.66 49.61 C 61.22 48.72 61.80 47.84 62.38 46.96 L 64.06 46.69 C 62.26 50.04 60.63 53.50 59.60 57.17 C 60.82 56.62 62.04 56.08 63.26 55.54 C 62.71 56.96 62.20 58.39 61.64 59.80 L 60.80 60.03 C 61.29 60.95 61.78 61.88 62.27 62.81 C 64.96 62.04 67.62 61.15 70.18 60.01 C 70.15 60.66 70.08 61.96 70.05 62.61 C 72.68 65.14 75.24 67.74 77.85 70.29 C 79.21 73.90 79.38 77.80 77.78 81.37 L 77.59 81.97 C 75.64 81.75 73.69 81.56 71.76 81.18 C 71.14 77.98 71.26 74.70 71.25 71.46 C 70.87 71.40 70.10 71.26 69.72 71.20 C 70.21 75.77 70.03 80.40 68.83 84.86 C 66.59 84.32 64.30 83.96 62.00 83.72 C 62.00 82.55 61.99 81.37 61.98 80.20 C 62.11 78.07 62.56 75.98 63.17 73.94 C 63.86 71.89 64.19 69.73 64.39 67.58 C 63.78 69.33 63.25 71.12 62.74 72.90 C 57.84 73.78 53.00 74.94 48.25 76.41 C 46.49 74.92 44.64 73.53 42.66 72.35 C 43.65 73.84 44.65 75.32 45.65 76.79 C 44.56 75.90 43.46 75.00 42.38 74.09 C 42.06 74.33 41.44 74.79 41.13 75.03 C 40.02 73.18 39.13 71.17 39.02 68.99 C 40.60 68.60 40.65 66.48 39.17 65.91 C 39.20 64.90 39.24 63.89 39.28 62.89 C 39.92 60.87 40.06 58.76 40.22 56.67 C 41.12 58.03 42.05 59.38 42.94 60.75 L 43.01 61.17 C 43.06 61.57 43.15 62.38 43.20 62.78 C 43.33 63.58 43.61 65.19 43.75 66.00 C 44.01 67.61 44.25 69.22 44.51 70.84 C 48.06 65.30 53.41 61.36 57.51 56.31 C 57.21 54.41 57.17 52.47 58.01 50.69 C 58.43 51.04 59.25 51.75 59.67 52.10 C 59.92 51.48 60.41 50.23 60.66 49.61 M 56.57 63.92 C 56.20 64.27 55.46 64.99 55.08 65.35 C 53.60 65.04 52.35 66.97 52.46 68.31 L 51.94 68.10 L 51.66 69.40 C 51.64 69.53 51.58 69.79 51.55 69.92 C 53.46 69.71 56.10 70.85 57.35 68.79 L 57.11 67.91 C 58.61 67.24 58.54 66.71 56.91 66.32 C 56.92 65.63 56.94 64.25 56.95 63.56 C 56.86 63.65 56.67 63.83 56.57 63.92 M 69.27 65.26 C 68.74 66.34 68.85 67.96 69.53 68.96 C 71.69 69.10 71.36 64.79 69.27 65.26 M 46.28 72.27 C 46.78 72.78 46.78 72.78 46.28 72.27 Z" />
<path fill="#cda2cc" opacity="1.00" d=" M 39.34 74.75 C 40.87 75.91 42.42 77.04 43.88 78.28 C 44.56 79.08 45.19 79.91 45.83 80.73 C 45.06 81.85 44.29 82.98 43.52 84.10 C 41.72 83.61 39.90 83.16 38.09 82.73 C 38.07 81.13 38.08 79.52 38.00 77.93 C 38.33 77.13 39.00 75.55 39.34 74.75 Z" />
</g>
<g id="#00918aff">
<path fill="#00918a" opacity="1.00" d=" M 63.26 55.54 C 66.79 48.31 73.36 42.45 81.24 40.47 C 79.04 46.05 75.57 50.99 71.78 55.60 C 71.40 55.83 70.65 56.28 70.28 56.51 C 69.44 57.22 68.63 57.96 67.82 58.71 C 67.34 59.03 66.37 59.66 65.89 59.98 C 64.47 59.88 63.06 59.82 61.64 59.80 C 62.20 58.39 62.71 56.96 63.26 55.54 Z" />
</g>
<g id="#504355ff">
<path fill="#504355" opacity="1.00" d=" M 64.57 46.61 C 65.36 44.77 66.80 43.37 68.68 42.69 C 68.52 44.93 67.00 46.89 64.57 46.61 Z" />
</g>
<g id="#a06f9dff">
<path fill="#a06f9d" opacity="1.00" d=" M 70.28 56.51 C 70.65 56.28 71.40 55.83 71.78 55.60 C 71.99 57.03 71.44 57.90 70.16 58.21 C 70.19 57.78 70.25 56.93 70.28 56.51 Z" />
<path fill="#a06f9d" opacity="1.00" d=" M 43.88 78.28 C 50.43 77.37 56.61 74.85 63.17 73.94 C 62.56 75.98 62.11 78.07 61.98 80.20 C 61.41 80.02 60.28 79.68 59.72 79.51 C 60.06 80.15 60.75 81.42 61.09 82.06 C 57.62 81.68 54.10 81.36 50.78 80.18 C 49.11 79.57 47.36 79.11 45.58 79.61 C 47.26 80.40 48.96 81.17 50.66 81.94 C 49.69 81.93 47.76 81.92 46.79 81.91 C 46.55 81.61 46.07 81.02 45.83 80.73 C 45.19 79.91 44.56 79.08 43.88 78.28 Z" />
</g>
<g id="#986a96ff">
<path fill="#986a96" opacity="1.00" d=" M 42.19 56.74 C 44.24 58.25 46.40 59.61 48.51 61.04 C 47.59 63.25 45.70 64.74 43.75 66.00 C 43.61 65.19 43.33 63.58 43.20 62.78 C 45.56 63.60 45.18 59.80 43.01 61.17 L 42.94 60.75 C 42.72 59.40 42.47 58.07 42.19 56.74 M 46.33 61.32 C 46.84 61.80 46.84 61.80 46.33 61.32 Z" />
</g>
<g id="#7e567bff">
<path fill="#7e567b" opacity="1.00" d=" M 65.89 59.98 C 66.37 59.66 67.34 59.03 67.82 58.71 C 67.34 59.03 66.37 59.66 65.89 59.98 Z" />
</g>
<g id="#653c63ff">
<path fill="#653c63" opacity="1.00" d=" M 43.01 61.17 C 45.18 59.80 45.56 63.60 43.20 62.78 C 43.15 62.38 43.06 61.57 43.01 61.17 Z" />
</g>
<g id="#532e51ff">
<path fill="#532e51" opacity="1.00" d=" M 46.33 61.32 C 46.84 61.80 46.84 61.80 46.33 61.32 Z" />
</g>
<g id="#371b36ff">
<path fill="#371b36" opacity="1.00" d=" M 56.57 63.92 C 56.67 63.83 56.86 63.65 56.95 63.56 L 56.57 63.92 Z" />
</g>
<g id="#f9fafdff">
<path fill="#f9fafd" opacity="1.00" d=" M 56.57 63.92 L 56.95 63.56 C 56.94 64.25 56.92 65.63 56.91 66.32 C 56.96 66.72 57.06 67.51 57.11 67.91 L 57.35 68.79 C 56.74 69.02 55.54 69.47 54.93 69.70 C 54.92 68.90 54.88 67.29 54.87 66.48 C 54.92 66.20 55.03 65.63 55.08 65.35 C 55.46 64.99 56.20 64.27 56.57 63.92 Z" />
</g>
<g id="#8b638cff">
<path fill="#8b638c" opacity="1.00" d=" M 69.27 65.26 C 71.36 64.79 71.69 69.10 69.53 68.96 C 68.85 67.96 68.74 66.34 69.27 65.26 Z" />
</g>
<g id="#fefefeff">
<path fill="#fefefe" opacity="1.00" d=" M 39.17 65.91 C 40.65 66.48 40.60 68.60 39.02 68.99 C 39.06 68.22 39.14 66.68 39.17 65.91 Z" />
</g>
<g id="#785576ff">
<path fill="#785576" opacity="1.00" d=" M 56.91 66.32 C 58.54 66.71 58.61 67.24 57.11 67.91 C 57.06 67.51 56.96 66.72 56.91 66.32 Z" />
</g>
<g id="#a54c54ff">
<path fill="#a54c54" opacity="1.00" d=" M 52.46 68.31 C 53.74 69.16 54.44 67.36 54.87 66.48 C 54.88 67.29 54.92 68.90 54.93 69.70 C 55.54 69.47 56.74 69.02 57.35 68.79 C 56.10 70.85 53.46 69.71 51.55 69.92 L 51.66 69.40 L 51.94 68.10 L 52.46 68.31 Z" />
</g>
<g id="#311931ff">
<path fill="#311931" opacity="1.00" d=" M 51.55 69.92 C 51.58 69.79 51.64 69.53 51.66 69.40 L 51.55 69.92 Z" />
</g>
<g id="#755c75ff">
<path fill="#755c75" opacity="1.00" d=" M 69.72 71.20 C 70.10 71.26 70.87 71.40 71.25 71.46 C 71.26 74.70 71.14 77.98 71.76 81.18 C 73.69 81.56 75.64 81.75 77.59 81.97 C 77.14 82.33 76.24 83.04 75.79 83.39 C 74.15 83.01 72.42 82.68 70.77 83.12 C 68.91 83.99 72.30 84.69 72.95 84.34 C 73.66 84.18 75.07 83.88 75.78 83.72 L 76.04 84.91 C 73.80 85.01 71.45 84.72 69.33 85.65 C 68.90 85.77 68.04 86.01 67.61 86.12 C 65.93 87.74 62.32 86.59 62.00 84.45 L 62.00 83.72 C 64.30 83.96 66.59 84.32 68.83 84.86 C 70.03 80.40 70.21 75.77 69.72 71.20 M 65.27 85.23 C 65.78 85.74 65.78 85.74 65.27 85.23 Z" />
</g>
<g id="#583757ff">
<path fill="#583757" opacity="1.00" d=" M 46.28 72.27 C 46.78 72.78 46.78 72.78 46.28 72.27 Z" />
</g>
<g id="#413745ff">
<path fill="#413745" opacity="1.00" d=" M 37.24 76.48 L 38.00 77.93 C 38.08 79.52 38.07 81.13 38.09 82.73 C 39.90 83.16 41.72 83.61 43.52 84.10 C 44.29 82.98 45.06 81.85 45.83 80.73 C 46.07 81.02 46.55 81.61 46.79 81.91 C 47.76 81.92 49.69 81.93 50.66 81.94 C 48.96 81.17 47.26 80.40 45.58 79.61 C 47.36 79.11 49.11 79.57 50.78 80.18 C 54.10 81.36 57.62 81.68 61.09 82.06 C 60.75 81.42 60.06 80.15 59.72 79.51 C 60.28 79.68 61.41 80.02 61.98 80.20 C 61.99 81.37 62.00 82.55 62.00 83.72 L 62.00 84.45 L 61.39 85.54 C 61.29 84.86 61.09 83.50 60.99 82.82 C 59.44 82.98 57.87 83.11 56.39 83.65 C 55.04 83.98 53.63 84.17 52.38 84.86 C 49.80 85.02 47.22 84.99 44.63 85.12 C 42.40 86.61 39.62 85.86 37.11 86.01 C 37.11 82.83 37.02 79.65 37.24 76.48 M 51.15 82.13 C 49.41 82.34 50.07 84.79 51.67 83.97 C 53.39 83.76 52.74 81.34 51.15 82.13 M 46.22 83.26 C 46.43 84.57 47.17 84.80 48.44 83.95 C 48.23 82.65 47.49 82.42 46.22 83.26 M 38.41 84.39 C 38.82 84.81 38.82 84.81 38.41 84.39 M 40.39 84.41 C 40.81 84.82 40.81 84.82 40.39 84.41 Z" />
</g>
<g id="#835b80ff">
<path fill="#835b80" opacity="1.00" d=" M 51.15 82.13 C 52.74 81.34 53.39 83.76 51.67 83.97 C 50.07 84.79 49.41 82.34 51.15 82.13 Z" />
</g>
<g id="#9e9da1ff">
<path fill="#9e9da1" opacity="1.00" d=" M 46.22 83.26 C 47.49 82.42 48.23 82.65 48.44 83.95 C 47.17 84.80 46.43 84.57 46.22 83.26 Z" />
</g>
<g id="#3f2c3eff">
<path fill="#3f2c3e" opacity="1.00" d=" M 72.95 84.34 C 72.30 84.69 68.91 83.99 70.77 83.12 C 72.42 82.68 74.15 83.01 75.79 83.39 L 75.78 83.72 C 75.07 83.88 73.66 84.18 72.95 84.34 Z" />
</g>
<g id="#c8c8c8ff">
<path fill="#c8c8c8" opacity="1.00" d=" M 38.41 84.39 C 38.82 84.81 38.82 84.81 38.41 84.39 Z" />
</g>
<g id="#c1c1c5ff">
<path fill="#c1c1c5" opacity="1.00" d=" M 40.39 84.41 C 40.81 84.82 40.81 84.82 40.39 84.41 Z" />
</g>
<g id="#e2e2e6ff">
<path fill="#e2e2e6" opacity="1.00" d=" M 65.27 85.23 C 65.78 85.74 65.78 85.74 65.27 85.23 Z" />
</g>
</svg>
