<?xml version="1.0" encoding="UTF-8" ?>
<!DOCTYPE svg PUBLIC "-//W3C//DTD SVG 1.1//EN" "http://www.w3.org/Graphics/SVG/1.1/DTD/svg11.dtd">
<svg width="120pt" height="120pt" viewBox="0 0 120 120" version="1.1" xmlns="http://www.w3.org/2000/svg">
<g id="#1f2b36fc">
<path fill="#1f2b36" opacity="1.00" d=" M 41.16 40.07 C 42.35 39.29 43.37 37.84 44.91 37.91 C 47.88 39.58 49.76 42.59 51.44 45.45 L 50.50 45.41 C 48.62 42.86 46.48 40.38 43.23 39.70 C 43.65 41.43 44.15 43.13 44.64 44.84 C 45.12 46.51 45.60 48.18 46.10 49.85 C 46.61 49.65 47.65 49.25 48.17 49.05 C 47.71 50.37 47.22 51.69 46.79 53.02 L 46.52 53.83 C 45.53 57.44 45.39 61.36 47.86 64.41 C 47.96 65.52 48.02 66.63 48.04 67.74 C 48.02 71.81 48.06 75.88 48.01 79.95 C 47.97 80.56 47.90 81.76 47.87 82.36 C 45.75 76.70 48.05 70.26 46.74 64.38 C 46.20 63.61 45.62 62.86 45.01 62.14 C 43.26 62.92 41.49 63.65 39.65 64.18 C 41.33 62.15 43.49 60.64 45.44 58.91 C 42.19 59.52 38.93 60.28 35.60 59.97 C 37.84 57.20 41.68 57.23 44.91 56.74 C 45.21 55.17 45.84 53.64 45.84 52.03 C 44.34 48.02 42.92 43.97 41.16 40.07 Z" />
</g>
<g id="#293540f6">
<path fill="#293540" opacity="0.96" d=" M 66.07 42.92 C 67.42 41.46 68.94 39.89 70.89 39.32 C 74.37 39.25 77.84 39.96 81.19 40.86 C 82.46 41.04 83.18 41.78 83.36 43.10 C 82.91 42.95 82.01 42.67 81.57 42.53 C 76.57 40.37 70.92 40.40 66.07 42.92 Z" />
</g>
<g id="#d0daf5ff">
<path fill="#d0daf5" opacity="1.00" d=" M 43.23 39.70 C 46.48 40.38 48.62 42.86 50.50 45.41 C 48.53 45.32 46.58 45.09 44.64 44.84 C 44.15 43.13 43.65 41.43 43.23 39.70 Z" />
<path fill="#d0daf5" opacity="1.00" d=" M 66.07 42.92 C 70.92 40.40 76.57 40.37 81.57 42.53 C 80.68 43.40 79.79 44.27 78.89 45.13 C 78.68 44.73 78.26 43.92 78.05 43.52 C 72.20 41.28 66.73 45.18 63.01 49.37 C 63.33 49.85 63.97 50.80 64.29 51.28 C 64.99 52.39 65.66 53.53 66.33 54.67 C 67.15 56.05 68.02 57.41 68.90 58.75 C 66.12 58.27 63.30 57.98 60.47 57.92 C 61.55 58.93 62.70 59.86 63.90 60.72 C 62.52 61.14 61.13 61.55 59.74 61.98 C 60.90 62.86 62.06 63.73 63.24 64.57 C 58.28 66.68 52.72 67.04 47.86 64.41 C 45.39 61.36 45.53 57.44 46.52 53.83 C 47.76 56.08 49.16 52.44 46.79 53.02 C 47.22 51.69 47.71 50.37 48.17 49.05 C 49.68 48.00 51.16 46.86 52.38 45.47 C 55.97 45.01 59.60 45.25 62.98 46.64 C 63.25 46.31 63.79 45.63 64.06 45.30 C 64.69 44.47 65.36 43.68 66.07 42.92 M 60.11 51.25 C 60.66 51.80 60.66 51.80 60.11 51.25 M 55.65 56.01 C 57.20 55.99 58.74 55.94 60.29 55.86 C 59.81 54.42 59.29 52.99 58.76 51.57 C 57.54 52.91 56.50 54.40 55.65 56.01 M 61.13 53.37 C 59.56 56.34 64.44 53.57 61.13 53.37 M 47.07 59.91 C 48.06 61.01 49.02 62.14 49.98 63.28 C 52.24 62.54 54.69 62.02 56.42 60.27 C 53.31 59.96 50.19 59.84 47.07 59.91 Z" />
</g>
<g id="#1e2a35ff">
<path fill="#1e2a35" opacity="1.00" d=" M 52.84 43.28 C 56.56 44.03 60.33 44.58 64.06 45.30 C 63.79 45.63 63.25 46.31 62.98 46.64 C 59.60 45.25 55.97 45.01 52.38 45.47 C 52.49 44.92 52.72 43.83 52.84 43.28 Z" />
</g>
<g id="#5a5a9aff">
<path fill="#5a5a9a" opacity="1.00" d=" M 63.01 49.37 C 66.73 45.18 72.20 41.28 78.05 43.52 C 76.97 46.37 77.30 50.62 73.99 51.95 C 73.06 52.40 72.10 52.79 71.12 53.14 C 72.23 50.54 73.11 47.85 73.67 45.09 C 69.69 45.57 66.63 48.19 64.29 51.28 C 63.97 50.80 63.33 49.85 63.01 49.37 Z" />
</g>
<g id="#5a6182ff">
<path fill="#5a6182" opacity="1.00" d=" M 44.64 44.84 C 46.58 45.09 48.53 45.32 50.50 45.41 L 51.44 45.45 L 52.38 45.47 C 51.16 46.86 49.68 48.00 48.17 49.05 C 47.65 49.25 46.61 49.65 46.10 49.85 C 45.60 48.18 45.12 46.51 44.64 44.84 Z" />
</g>
<g id="#434856ff">
<path fill="#434856" opacity="1.00" d=" M 73.99 51.95 C 77.30 50.62 76.97 46.37 78.05 43.52 C 78.26 43.92 78.68 44.73 78.89 45.13 C 79.40 47.52 77.65 49.61 76.64 51.62 C 75.01 54.51 71.21 54.11 68.52 55.31 C 71.22 60.23 77.41 63.77 77.01 69.95 C 76.98 71.45 76.85 72.95 76.63 74.43 L 76.22 73.61 C 76.21 73.21 76.18 72.43 76.17 72.04 C 76.91 66.99 73.56 62.47 68.90 60.87 C 67.61 60.84 66.32 60.83 65.04 60.85 C 65.30 62.23 65.56 63.60 65.82 64.98 C 64.96 64.84 64.10 64.70 63.24 64.57 C 62.06 63.73 60.90 62.86 59.74 61.98 C 61.13 61.55 62.52 61.14 63.90 60.72 C 62.70 59.86 61.55 58.93 60.47 57.92 C 63.30 57.98 66.12 58.27 68.90 58.75 C 68.02 57.41 67.15 56.05 66.33 54.67 C 67.93 54.15 69.53 53.66 71.12 53.14 C 72.10 52.79 73.06 52.40 73.99 51.95 Z" />
</g>
<g id="#74a5caff">
<path fill="#74a5ca" opacity="1.00" d=" M 64.29 51.28 C 66.63 48.19 69.69 45.57 73.67 45.09 C 73.11 47.85 72.23 50.54 71.12 53.14 C 69.53 53.66 67.93 54.15 66.33 54.67 C 65.66 53.53 64.99 52.39 64.29 51.28 Z" />
</g>
<g id="#556079ff">
<path fill="#556079" opacity="1.00" d=" M 60.11 51.25 C 60.66 51.80 60.66 51.80 60.11 51.25 Z" />
</g>
<g id="#7b555cff">
<path fill="#7b555c" opacity="1.00" d=" M 55.65 56.01 C 56.50 54.40 57.54 52.91 58.76 51.57 C 59.29 52.99 59.81 54.42 60.29 55.86 C 58.74 55.94 57.20 55.99 55.65 56.01 Z" />
</g>
<g id="#b13422ff">
<path fill="#b13422" opacity="1.00" d=" M 46.79 53.02 C 49.16 52.44 47.76 56.08 46.52 53.83 L 46.79 53.02 Z" />
</g>
<g id="#878f9fff">
<path fill="#878f9f" opacity="1.00" d=" M 61.13 53.37 C 64.44 53.57 59.56 56.34 61.13 53.37 Z" />
</g>
<g id="#565962ff">
<path fill="#565962" opacity="1.00" d=" M 47.07 59.91 C 50.19 59.84 53.31 59.96 56.42 60.27 C 54.69 62.02 52.24 62.54 49.98 63.28 C 49.02 62.14 48.06 61.01 47.07 59.91 M 50.24 61.24 C 50.81 61.81 50.81 61.81 50.24 61.24 Z" />
</g>
<g id="#eeedecff">
<path fill="#eeedec" opacity="1.00" d=" M 50.24 61.24 C 50.81 61.81 50.81 61.81 50.24 61.24 Z" />
</g>
<g id="#9da5bdff">
<path fill="#9da5bd" opacity="1.00" d=" M 65.04 60.85 C 66.32 60.83 67.61 60.84 68.90 60.87 C 68.60 61.95 68.29 63.03 67.96 64.10 L 67.63 64.67 C 65.33 68.39 60.19 70.15 59.63 74.87 C 59.25 74.63 58.47 74.13 58.09 73.89 C 58.36 75.62 58.65 77.35 58.91 79.09 C 57.95 78.91 56.99 78.73 56.03 78.55 C 55.62 77.17 55.23 75.78 54.69 74.44 C 52.87 71.84 50.46 69.75 48.04 67.74 C 48.02 66.63 47.96 65.52 47.86 64.41 C 52.72 67.04 58.28 66.68 63.24 64.57 C 64.10 64.70 64.96 64.84 65.82 64.98 C 65.56 63.60 65.30 62.23 65.04 60.85 Z" />
</g>
<g id="#ccd6f1ff">
<path fill="#ccd6f1" opacity="1.00" d=" M 68.90 60.87 C 73.56 62.47 76.91 66.99 76.17 72.04 C 73.56 73.38 70.74 74.23 67.81 74.38 C 68.07 72.61 68.29 70.83 68.45 69.04 C 66.80 72.63 65.99 76.52 64.83 80.28 C 63.29 80.18 61.74 80.08 60.20 79.99 C 60.01 78.28 59.80 76.58 59.63 74.87 C 60.19 70.15 65.33 68.39 67.63 64.67 C 67.73 65.82 68.00 68.27 69.71 67.78 C 70.88 66.42 69.27 64.61 67.96 64.10 C 68.29 63.03 68.60 61.95 68.90 60.87 Z" />
</g>
<g id="#6262a1ff">
<path fill="#6262a1" opacity="1.00" d=" M 67.96 64.10 C 69.27 64.61 70.88 66.42 69.71 67.78 C 68.00 68.27 67.73 65.82 67.63 64.67 L 67.96 64.10 Z" />
</g>
<g id="#cdd7f2ff">
<path fill="#cdd7f2" opacity="1.00" d=" M 48.04 67.74 C 50.46 69.75 52.87 71.84 54.69 74.44 C 54.05 76.61 53.77 78.87 53.03 81.02 C 51.36 80.64 49.69 80.28 48.01 79.95 C 48.06 75.88 48.02 71.81 48.04 67.74 Z" />
<path fill="#cdd7f2" opacity="1.00" d=" M 68.60 81.13 C 68.99 78.15 72.99 78.18 75.18 79.20 C 72.99 79.85 70.82 80.58 68.60 81.13 Z" />
</g>
<g id="#4d515cff">
<path fill="#4d515c" opacity="1.00" d=" M 64.83 80.28 C 65.99 76.52 66.80 72.63 68.45 69.04 C 68.29 70.83 68.07 72.61 67.81 74.38 C 67.59 75.64 67.36 76.88 67.14 78.14 C 69.77 77.62 72.42 77.07 74.91 76.07 C 75.22 77.96 77.02 80.53 74.75 81.84 C 68.82 82.02 62.81 82.06 56.95 80.98 C 53.87 80.97 50.91 82.03 47.87 82.36 C 47.90 81.76 47.97 80.56 48.01 79.95 C 49.69 80.28 51.36 80.64 53.03 81.02 C 53.77 78.87 54.05 76.61 54.69 74.44 C 55.23 75.78 55.62 77.17 56.03 78.55 C 56.99 78.73 57.95 78.91 58.91 79.09 C 58.65 77.35 58.36 75.62 58.09 73.89 C 58.47 74.13 59.25 74.63 59.63 74.87 C 59.80 76.58 60.01 78.28 60.20 79.99 C 61.74 80.08 63.29 80.18 64.83 80.28 M 68.60 81.13 C 70.82 80.58 72.99 79.85 75.18 79.20 C 72.99 78.18 68.99 78.15 68.60 81.13 M 67.26 80.30 C 67.84 80.88 67.84 80.88 67.26 80.30 Z" />
</g>
<g id="#a7b0c8ff">
<path fill="#a7b0c8" opacity="1.00" d=" M 67.81 74.38 C 70.74 74.23 73.56 73.38 76.17 72.04 C 76.18 72.43 76.21 73.21 76.22 73.61 C 75.89 74.22 75.24 75.45 74.91 76.07 C 72.42 77.07 69.77 77.62 67.14 78.14 C 67.36 76.88 67.59 75.64 67.81 74.38 Z" />
</g>
<g id="#f0eeedff">
<path fill="#f0eeed" opacity="1.00" d=" M 67.26 80.30 C 67.84 80.88 67.84 80.88 67.26 80.30 Z" />
</g>
</svg>
