<?xml version="1.0" encoding="UTF-8" ?>
<!DOCTYPE svg PUBLIC "-//W3C//DTD SVG 1.1//EN" "http://www.w3.org/Graphics/SVG/1.1/DTD/svg11.dtd">
<svg width="120pt" height="120pt" viewBox="0 0 120 120" version="1.1" xmlns="http://www.w3.org/2000/svg">
<g id="#131b25cc">
<path fill="#131b25" opacity="0.80" d=" M 61.06 20.93 C 63.35 19.99 65.21 18.36 66.99 16.69 C 67.00 17.53 67.02 19.19 67.03 20.03 L 65.92 19.97 L 66.46 18.42 C 62.96 21.50 58.66 23.31 54.55 25.38 C 55.75 22.75 58.75 22.19 61.06 20.93 Z" />
</g>
<g id="#353846f7">
<path fill="#353846" opacity="0.97" d=" M 42.13 20.02 C 43.05 19.58 43.97 19.15 44.90 18.72 C 44.97 20.60 45.01 22.48 45.08 24.36 C 47.07 24.15 47.47 21.98 48.52 20.67 C 50.37 23.63 50.04 27.11 50.05 30.44 C 51.19 28.65 52.26 26.68 54.31 25.79 C 53.26 27.94 52.14 30.05 51.04 32.17 C 55.24 28.81 59.49 24.86 65.08 24.19 C 68.09 23.49 72.35 24.77 72.96 28.18 C 70.66 26.05 67.48 24.01 64.45 26.10 C 60.02 28.41 55.44 30.95 52.37 35.01 C 52.30 38.26 55.56 39.42 58.23 39.74 C 56.97 40.05 55.72 40.38 54.47 40.72 C 53.68 39.58 52.95 38.40 52.16 37.26 C 51.48 36.39 50.76 35.55 50.05 34.71 C 50.34 33.73 50.64 32.74 50.93 31.76 C 50.31 31.83 49.05 31.97 48.43 32.05 C 48.99 29.19 49.20 26.27 49.01 23.36 C 45.81 24.69 47.05 28.53 47.44 31.11 C 43.95 28.28 44.63 23.45 43.49 19.54 C 42.44 23.66 42.89 29.14 38.88 31.76 C 36.23 31.67 34.18 29.75 32.08 28.37 C 31.05 27.62 29.92 27.02 28.81 26.41 C 30.46 30.29 33.18 34.03 32.70 38.46 C 32.38 38.01 31.74 37.10 31.42 36.64 C 29.76 33.96 27.78 31.45 25.26 29.53 C 24.04 29.02 22.81 28.54 21.57 28.09 C 21.75 27.80 22.11 27.22 22.29 26.93 C 25.05 27.60 27.26 29.42 29.43 31.15 C 28.66 27.07 24.84 25.10 22.03 22.54 C 22.01 23.37 21.96 25.02 21.93 25.85 C 21.31 25.89 20.07 25.98 19.45 26.03 C 20.02 29.22 19.85 32.52 20.77 35.65 C 21.26 37.24 21.84 38.83 22.74 40.24 C 24.66 42.31 27.67 41.84 30.20 42.09 C 30.45 42.26 30.96 42.60 31.21 42.77 C 30.89 44.09 30.54 45.40 30.18 46.71 C 29.66 47.44 29.12 48.16 28.57 48.86 C 26.63 50.96 25.75 53.65 26.00 56.49 C 27.74 58.57 29.46 60.69 31.52 62.48 C 31.73 61.14 31.93 59.79 32.14 58.45 L 32.78 57.17 C 32.91 59.89 32.82 62.69 33.55 65.34 C 34.65 67.12 36.09 68.65 37.53 70.16 C 37.37 71.03 37.23 71.91 37.10 72.78 C 36.55 72.54 35.46 72.06 34.91 71.82 C 35.21 71.47 35.79 70.77 36.08 70.42 C 34.45 69.08 33.12 67.45 32.12 65.60 C 32.09 64.91 32.03 63.52 32.00 62.83 C 30.59 63.29 29.18 63.76 27.75 64.20 C 28.06 63.70 28.67 62.69 28.98 62.19 C 27.64 60.13 26.05 58.24 24.25 56.57 C 21.38 59.76 25.85 62.51 26.98 65.43 C 26.49 66.01 25.98 66.59 25.46 67.15 C 25.03 65.71 24.61 64.26 24.09 62.85 C 23.33 61.80 22.52 60.80 21.72 59.78 C 18.87 59.97 16.10 60.72 13.51 61.93 C 12.41 61.98 11.31 62.02 10.22 62.07 C 9.88 63.46 9.98 65.03 9.24 66.29 C 8.23 66.76 7.18 67.14 6.09 67.43 C 6.13 68.18 6.20 69.66 6.24 70.40 C 7.53 69.58 8.81 68.74 10.09 67.91 C 10.79 69.95 12.16 73.07 8.93 73.60 C 9.48 74.03 10.02 74.46 10.57 74.89 C 12.11 73.16 13.80 71.52 15.96 70.60 C 16.29 72.16 16.51 73.74 16.64 75.33 C 17.26 74.76 18.50 73.62 19.11 73.05 C 19.23 75.90 16.19 76.19 14.06 76.79 C 12.50 76.32 10.91 75.96 9.28 75.83 C 7.63 74.26 6.21 72.47 5.05 70.52 C 5.07 68.79 5.07 67.06 5.06 65.34 C 6.82 63.81 8.41 61.74 10.84 61.30 C 14.91 60.46 18.80 58.93 22.74 57.64 C 25.85 56.41 24.46 52.41 26.49 50.31 C 28.29 48.17 29.00 45.43 30.16 42.94 C 26.38 43.51 21.47 42.89 20.26 38.58 C 20.07 37.48 19.71 36.43 19.17 35.45 C 19.03 33.07 19.05 30.68 19.07 28.30 C 18.52 27.89 17.44 27.08 16.90 26.67 C 17.27 26.27 18.00 25.46 18.37 25.06 C 18.99 25.05 20.24 25.03 20.86 25.03 C 21.00 23.51 21.36 22.04 22.19 20.74 C 23.60 22.12 24.98 23.53 26.33 24.98 C 27.41 25.03 28.49 25.07 29.57 25.12 C 31.94 26.63 34.37 28.09 36.48 29.97 C 37.59 30.02 38.69 30.05 39.80 30.09 C 40.51 28.29 41.04 26.43 41.34 24.52 C 42.18 23.15 42.10 21.55 42.13 20.02 M 7.21 64.15 C 6.70 65.78 7.26 66.32 8.88 65.77 C 9.41 64.12 8.85 63.59 7.21 64.15 M 8.23 70.06 C 7.68 71.66 8.24 72.20 9.89 71.66 C 10.45 70.05 9.89 69.51 8.23 70.06 M 14.22 72.15 C 12.54 72.57 12.76 75.66 14.73 74.93 C 16.38 74.55 15.98 71.65 14.22 72.15 Z" />
</g>
<g id="#ca8fc1ff">
<path fill="#ca8fc1" opacity="1.00" d=" M 54.55 25.38 C 58.66 23.31 62.96 21.50 66.46 18.42 L 65.92 19.97 L 65.55 21.08 L 65.28 21.97 C 69.44 22.05 73.61 21.77 77.73 22.37 C 76.82 23.26 76.00 24.21 75.27 25.24 L 74.74 26.13 C 74.19 27.15 73.72 28.21 73.27 29.28 L 72.96 28.18 C 72.35 24.77 68.09 23.49 65.08 24.19 C 59.49 24.86 55.24 28.81 51.04 32.17 C 52.14 30.05 53.26 27.94 54.31 25.79 C 54.37 25.69 54.49 25.48 54.55 25.38 Z" />
</g>
<g id="#df9ed5ff">
<path fill="#df9ed5" opacity="1.00" d=" M 43.49 19.54 C 44.63 23.45 43.95 28.28 47.44 31.11 C 47.05 28.53 45.81 24.69 49.01 23.36 C 49.20 26.27 48.99 29.19 48.43 32.05 C 49.05 31.97 50.31 31.83 50.93 31.76 C 50.64 32.74 50.34 33.73 50.05 34.71 C 50.76 35.55 51.48 36.39 52.16 37.26 C 51.06 38.56 49.96 39.86 49.02 41.27 L 48.44 40.00 C 47.35 41.41 46.31 42.85 45.28 44.31 C 44.32 44.08 43.37 43.82 42.42 43.57 C 41.47 45.16 40.31 47.11 38.12 46.64 C 35.02 46.86 34.65 43.38 34.61 41.08 C 36.81 40.49 39.06 39.59 39.82 37.22 C 36.83 34.66 34.09 31.78 32.08 28.37 C 34.18 29.75 36.23 31.67 38.88 31.76 C 42.89 29.14 42.44 23.66 43.49 19.54 Z" />
</g>
<g id="#091a26ff">
<path fill="#091a26" opacity="1.00" d=" M 65.55 21.08 C 69.76 20.95 73.97 20.99 78.18 21.02 C 78.07 21.36 77.85 22.03 77.73 22.37 C 73.61 21.77 69.44 22.05 65.28 21.97 L 65.55 21.08 Z" />
</g>
<g id="#b581aeff">
<path fill="#b581ae" opacity="1.00" d=" M 22.03 22.54 C 24.84 25.10 28.66 27.07 29.43 31.15 C 27.26 29.42 25.05 27.60 22.29 26.93 C 22.11 27.22 21.75 27.80 21.57 28.09 C 21.02 30.57 20.84 33.11 20.77 35.65 C 19.85 32.52 20.02 29.22 19.45 26.03 C 20.07 25.98 21.31 25.89 21.93 25.85 C 21.96 25.02 22.01 23.37 22.03 22.54 Z" />
</g>
<g id="#669ea1ff">
<path fill="#669ea1" opacity="1.00" d=" M 64.45 26.10 C 67.48 24.01 70.66 26.05 72.96 28.18 L 73.27 29.28 C 73.52 29.67 74.03 30.46 74.29 30.86 C 74.01 31.40 73.44 32.48 73.16 33.02 C 71.22 33.09 69.29 33.17 67.36 33.27 C 67.41 31.82 67.27 30.25 66.41 29.03 C 65.92 28.30 64.94 26.83 64.45 26.10 Z" />
</g>
<g id="#3d4350ff">
<path fill="#3d4350" opacity="1.00" d=" M 73.27 29.28 C 73.72 28.21 74.19 27.15 74.74 26.13 C 75.15 27.92 75.65 29.68 76.10 31.46 C 74.30 32.85 73.35 34.90 72.64 37.01 L 71.73 36.91 C 72.20 35.61 72.64 34.30 73.16 33.02 C 73.44 32.48 74.01 31.40 74.29 30.86 C 74.32 30.79 74.40 30.66 74.43 30.59 C 74.40 30.66 74.32 30.79 74.29 30.86 C 74.03 30.46 73.52 29.67 73.27 29.28 Z" />
</g>
<g id="#956d8dff">
<path fill="#956d8d" opacity="1.00" d=" M 28.81 26.41 C 29.92 27.02 31.05 27.62 32.08 28.37 C 34.09 31.78 36.83 34.66 39.82 37.22 C 39.06 39.59 36.81 40.49 34.61 41.08 C 33.98 40.20 33.33 39.34 32.70 38.46 C 33.18 34.03 30.46 30.29 28.81 26.41 Z" />
</g>
<g id="#307889ff">
<path fill="#307889" opacity="1.00" d=" M 52.37 35.01 C 55.44 30.95 60.02 28.41 64.45 26.10 C 64.94 26.83 65.92 28.30 66.41 29.03 C 65.74 31.00 65.66 33.15 66.39 35.12 C 65.88 36.05 65.36 36.98 64.86 37.92 C 62.67 38.60 60.47 39.24 58.23 39.74 C 55.56 39.42 52.30 38.26 52.37 35.01 Z" />
</g>
<g id="#659d9fff">
<path fill="#659d9f" opacity="1.00" d=" M 20.77 35.65 C 20.84 33.11 21.02 30.57 21.57 28.09 C 22.81 28.54 24.04 29.02 25.26 29.53 C 25.20 30.40 25.08 32.13 25.02 32.99 C 25.05 33.76 25.12 35.28 25.15 36.05 C 25.61 38.74 27.57 40.58 29.86 41.86 L 30.20 42.09 C 27.67 41.84 24.66 42.31 22.74 40.24 C 21.84 38.83 21.26 37.24 20.77 35.65 Z" />
</g>
<g id="#23505aff">
<path fill="#23505a" opacity="1.00" d=" M 66.41 29.03 C 67.27 30.25 67.41 31.82 67.36 33.27 C 67.12 33.73 66.63 34.65 66.39 35.12 C 65.66 33.15 65.74 31.00 66.41 29.03 Z" />
</g>
<g id="#2e7383ff">
<path fill="#2e7383" opacity="1.00" d=" M 25.26 29.53 C 27.78 31.45 29.76 33.96 31.42 36.64 C 31.00 38.41 30.45 40.14 29.86 41.86 C 27.57 40.58 25.61 38.74 25.15 36.05 C 26.64 35.49 26.50 33.46 25.02 32.99 C 25.08 32.13 25.20 30.40 25.26 29.53 Z" />
</g>
<g id="#c88ec0ff">
<path fill="#c88ec0" opacity="1.00" d=" M 74.29 30.86 C 74.32 30.79 74.40 30.66 74.43 30.59 C 74.40 30.66 74.32 30.79 74.29 30.86 Z" />
<path fill="#c88ec0" opacity="1.00" d=" M 26.00 56.49 C 25.75 53.65 26.63 50.96 28.57 48.86 C 29.57 51.15 30.84 53.31 32.43 55.23 C 32.34 56.30 32.24 57.38 32.14 58.45 C 31.93 59.79 31.73 61.14 31.52 62.48 C 29.46 60.69 27.74 58.57 26.00 56.49 Z" />
</g>
<g id="#1b3f48ff">
<path fill="#1b3f48" opacity="1.00" d=" M 25.02 32.99 C 26.50 33.46 26.64 35.49 25.15 36.05 C 25.12 35.28 25.05 33.76 25.02 32.99 Z" />
</g>
<g id="#72b2b4ff">
<path fill="#72b2b4" opacity="1.00" d=" M 67.36 33.27 C 69.29 33.17 71.22 33.09 73.16 33.02 C 72.64 34.30 72.20 35.61 71.73 36.91 C 71.50 37.68 71.05 38.30 70.39 38.78 C 65.70 39.76 60.94 40.43 56.27 41.53 C 55.82 41.33 54.92 40.92 54.47 40.72 C 55.72 40.38 56.97 40.05 58.23 39.74 C 60.47 39.24 62.67 38.60 64.86 37.92 C 65.36 36.98 65.88 36.05 66.39 35.12 C 66.63 34.65 67.12 33.73 67.36 33.27 Z" />
</g>
<g id="#c68cbdff">
<path fill="#c68cbd" opacity="1.00" d=" M 31.42 36.64 C 31.74 37.10 32.38 38.01 32.70 38.46 C 33.33 39.34 33.98 40.20 34.61 41.08 C 34.65 43.38 35.02 46.86 38.12 46.64 C 40.31 47.11 41.47 45.16 42.42 43.57 C 43.37 43.82 44.32 44.08 45.28 44.31 C 45.68 44.27 46.47 44.20 46.87 44.16 C 47.46 43.81 48.65 43.09 49.24 42.73 C 49.25 42.58 49.28 42.29 49.29 42.14 L 49.02 41.27 C 49.96 39.86 51.06 38.56 52.16 37.26 C 52.95 38.40 53.68 39.58 54.47 40.72 C 54.92 40.92 55.82 41.33 56.27 41.53 C 56.81 41.76 57.89 42.21 58.43 42.44 C 59.37 43.54 60.25 44.70 61.14 45.84 C 60.31 45.86 58.65 45.88 57.82 45.89 C 58.54 47.17 59.26 48.45 59.98 49.73 C 58.71 50.27 57.43 50.79 56.15 51.31 C 54.34 51.62 52.65 52.36 51.29 53.61 L 49.40 54.50 C 48.69 53.99 48.00 53.47 47.31 52.94 C 48.72 52.58 50.12 52.21 51.52 51.83 C 52.29 48.98 53.59 46.17 56.55 45.03 C 53.44 45.13 51.17 47.94 48.02 47.86 C 43.88 47.94 39.71 48.30 35.82 49.84 C 34.84 49.34 33.87 48.84 32.90 48.34 C 32.45 48.34 31.55 48.33 31.10 48.33 C 30.87 47.92 30.41 47.11 30.18 46.71 C 30.54 45.40 30.89 44.09 31.21 42.77 C 30.96 42.60 30.45 42.26 30.20 42.09 L 29.86 41.86 C 30.45 40.14 31.00 38.41 31.42 36.64 Z" />
<path fill="#c68cbd" opacity="1.00" d=" M 85.54 67.16 C 88.48 66.84 91.40 66.34 94.33 65.95 C 93.98 66.22 93.26 66.75 92.91 67.02 C 92.35 67.16 91.25 67.45 90.69 67.59 C 90.29 67.88 89.48 68.44 89.08 68.72 C 90.35 69.34 91.66 69.88 92.99 70.34 C 91.73 72.51 95.47 72.06 93.83 70.22 C 95.88 69.69 97.90 69.08 99.92 68.48 C 100.33 69.58 100.78 70.66 101.26 71.73 C 99.76 73.88 97.05 74.53 94.83 75.68 C 93.36 75.87 92.03 76.60 91.14 77.79 C 90.96 77.97 90.61 78.33 90.43 78.51 C 88.84 79.19 87.25 79.85 85.66 80.52 C 83.13 80.16 80.58 79.98 78.03 79.91 C 76.05 82.33 75.39 86.44 71.94 87.17 C 70.38 84.00 69.73 80.50 69.61 76.99 C 76.50 77.90 82.97 73.42 85.54 67.16 M 86.05 71.22 C 84.63 74.27 89.36 71.27 86.05 71.22 M 87.11 75.30 C 85.45 78.24 90.41 75.60 87.11 75.30 Z" />
</g>
<g id="#554857ff">
<path fill="#554857" opacity="1.00" d=" M 56.27 41.53 C 60.94 40.43 65.70 39.76 70.39 38.78 C 68.14 41.01 64.55 40.90 61.58 40.99 C 62.82 42.39 64.07 43.77 65.33 45.15 C 67.40 45.17 69.48 45.18 71.55 45.17 C 74.66 46.57 77.00 49.40 77.15 52.90 C 79.82 54.72 82.64 56.33 85.09 58.46 C 84.89 61.23 84.81 64.07 85.67 66.75 L 85.54 67.16 C 82.97 73.42 76.50 77.90 69.61 76.99 C 69.23 76.99 68.47 76.99 68.09 76.99 C 65.38 77.54 62.84 79.41 59.98 78.79 C 57.34 78.38 54.72 77.53 52.52 75.99 C 56.22 76.54 59.82 79.13 63.63 77.66 C 65.91 77.02 67.00 74.73 68.47 73.09 C 67.95 71.63 67.42 70.17 66.85 68.73 C 67.45 68.52 68.63 68.09 69.22 67.88 C 68.89 66.99 68.56 66.10 68.23 65.21 C 69.32 64.12 70.41 63.02 71.49 61.92 C 70.07 62.09 68.65 62.28 67.23 62.49 C 64.39 60.39 62.87 57.15 61.70 53.92 C 61.45 53.21 60.94 51.80 60.68 51.09 C 59.62 51.20 58.55 51.32 57.48 51.36 L 56.15 51.31 C 57.43 50.79 58.71 50.27 59.98 49.73 C 59.26 48.45 58.54 47.17 57.82 45.89 C 58.65 45.88 60.31 45.86 61.14 45.84 C 60.25 44.70 59.37 43.54 58.43 42.44 C 57.89 42.21 56.81 41.76 56.27 41.53 M 61.11 43.12 C 61.29 43.31 61.63 43.70 61.81 43.89 C 61.63 43.70 61.29 43.31 61.11 43.12 C 60.43 42.42 60.43 42.42 61.11 43.12 M 61.81 43.89 C 61.64 45.17 62.79 47.00 64.21 46.82 C 64.64 45.52 63.02 44.07 61.81 43.89 M 66.41 46.19 C 65.93 46.63 64.95 47.51 64.46 47.95 C 63.36 49.36 61.93 51.09 62.80 52.99 C 63.95 56.30 65.48 60.53 69.50 61.03 C 69.84 59.34 70.25 57.65 70.98 56.08 C 72.66 54.65 74.26 53.14 75.88 51.65 C 74.40 47.85 70.58 45.17 66.41 46.19 M 61.64 50.74 C 62.52 50.08 62.86 49.23 62.63 48.19 C 62.34 47.99 61.75 47.59 61.45 47.39 C 59.32 46.18 60.53 50.64 61.64 50.74 M 74.43 54.18 C 73.29 55.20 72.32 56.38 71.31 57.53 C 71.28 58.09 71.21 59.21 71.18 59.77 C 71.75 59.82 72.90 59.91 73.47 59.96 C 74.17 58.51 75.12 57.21 76.24 56.05 C 77.02 56.00 78.58 55.91 79.36 55.86 C 77.88 55.02 76.27 53.46 74.43 54.18 M 76.36 57.26 C 75.31 58.69 74.38 60.21 73.20 61.55 C 74.45 63.39 75.61 65.49 73.73 67.38 C 71.29 66.40 69.07 67.34 68.73 70.05 C 70.46 69.60 72.20 69.15 73.96 68.79 C 73.97 70.45 73.98 72.11 73.99 73.78 C 72.30 73.78 71.70 74.49 72.20 75.90 C 77.01 75.00 81.30 72.17 83.95 68.06 C 83.45 64.71 85.50 60.05 82.17 57.82 L 82.26 57.07 C 80.30 57.07 78.30 56.89 76.36 57.26 M 70.25 65.83 C 71.35 66.30 72.44 66.30 73.51 65.81 C 74.56 62.39 70.03 63.25 70.25 65.83 M 69.31 71.31 C 69.63 72.82 73.74 73.72 73.04 71.00 C 72.51 69.06 70.35 70.82 69.31 71.31 M 68.29 75.89 C 69.31 76.74 71.88 75.72 70.94 74.24 C 69.96 73.28 67.60 74.57 68.29 75.89 Z" />
</g>
<g id="#f6eff6ff">
<path fill="#f6eff6" opacity="1.00" d=" M 46.87 44.16 C 46.44 42.90 47.50 40.84 49.02 41.27 L 49.29 42.14 L 49.24 42.73 C 48.65 43.09 47.46 43.81 46.87 44.16 Z" />
<path fill="#f6eff6" opacity="1.00" d=" M 23.89 96.33 C 25.01 95.90 26.12 95.45 27.23 94.99 C 29.18 96.03 30.92 97.40 32.44 99.00 C 28.54 99.19 24.56 99.44 20.72 98.47 C 21.61 97.52 22.61 96.68 23.89 96.33 Z" />
</g>
<g id="#49354cff">
<path fill="#49354c" opacity="1.00" d=" M 49.29 42.14 C 49.28 42.29 49.25 42.58 49.24 42.73 L 49.29 42.14 Z" />
</g>
<g id="#c48bbbff">
<path fill="#c48bbb" opacity="1.00" d=" M 61.11 43.12 C 60.43 42.42 60.43 42.42 61.11 43.12 Z" />
<path fill="#c48bbb" opacity="1.00" d=" M 61.11 43.12 C 61.29 43.31 61.63 43.70 61.81 43.89 C 61.63 43.70 61.29 43.31 61.11 43.12 Z" />
<path fill="#c48bbb" opacity="1.00" d=" M 61.81 43.89 C 63.02 44.07 64.64 45.52 64.21 46.82 C 62.79 47.00 61.64 45.17 61.81 43.89 Z" />
<path fill="#c48bbb" opacity="1.00" d=" M 15.96 70.60 C 18.03 67.40 21.06 65.07 24.09 62.85 C 24.61 64.26 25.03 65.71 25.46 67.15 C 24.61 67.76 23.71 68.30 22.76 68.76 C 21.69 69.03 21.04 69.70 20.80 70.78 C 20.46 71.68 19.90 72.44 19.11 73.05 C 18.50 73.62 17.26 74.76 16.64 75.33 C 16.51 73.74 16.29 72.16 15.96 70.60 Z" />
<path fill="#c48bbb" opacity="1.00" d=" M 34.91 71.82 C 35.46 72.06 36.55 72.54 37.10 72.78 C 36.91 74.39 36.73 75.99 36.59 77.60 C 36.27 80.07 36.29 82.58 36.85 85.02 C 36.26 85.00 35.07 84.97 34.47 84.96 C 33.25 82.97 31.88 81.05 31.03 78.87 C 31.46 77.00 32.65 75.42 33.49 73.73 C 33.95 73.08 34.42 72.44 34.91 71.82 Z" />
</g>
<g id="#584451ff">
<path fill="#584451" opacity="1.00" d=" M 48.02 47.86 C 51.17 47.94 53.44 45.13 56.55 45.03 C 53.59 46.17 52.29 48.98 51.52 51.83 C 50.12 52.21 48.72 52.58 47.31 52.94 C 48.00 53.47 48.69 53.99 49.40 54.50 L 51.29 53.61 C 48.78 57.72 43.59 58.59 39.23 59.33 C 37.64 58.99 36.06 58.59 34.49 58.14 C 34.17 57.68 33.51 56.76 33.18 56.29 L 32.78 57.17 L 32.14 58.45 C 32.24 57.38 32.34 56.30 32.43 55.23 C 30.84 53.31 29.57 51.15 28.57 48.86 C 29.12 48.16 29.66 47.44 30.18 46.71 C 30.41 47.11 30.87 47.92 31.10 48.33 C 31.55 48.33 32.45 48.34 32.90 48.34 C 33.87 48.84 34.84 49.34 35.82 49.84 C 39.71 48.30 43.88 47.94 48.02 47.86 M 50.30 48.25 C 50.28 48.88 50.26 50.14 50.24 50.78 C 51.69 51.28 51.76 47.88 50.30 48.25 M 34.87 52.05 C 34.39 51.63 33.43 50.80 32.95 50.38 C 34.33 51.73 35.61 53.20 36.43 54.98 C 38.50 55.03 40.57 55.04 42.65 55.00 C 44.32 52.82 46.63 51.35 49.18 50.36 C 49.01 50.12 48.66 49.65 48.49 49.41 C 43.75 48.39 39.10 50.02 34.87 52.05 M 45.91 53.52 C 45.75 57.38 41.38 55.94 38.95 57.05 C 37.58 56.79 36.21 56.52 34.83 56.33 C 38.93 58.69 43.73 57.15 47.66 55.25 C 47.08 54.67 46.50 54.09 45.91 53.52 Z" />
</g>
<g id="#e2a0d9ff">
<path fill="#e2a0d9" opacity="1.00" d=" M 66.41 46.19 C 70.58 45.17 74.40 47.85 75.88 51.65 C 74.26 53.14 72.66 54.65 70.98 56.08 C 69.22 55.22 67.36 54.53 65.79 53.33 C 64.93 51.68 64.87 49.74 64.46 47.95 C 64.95 47.51 65.93 46.63 66.41 46.19 Z" />
<path fill="#e2a0d9" opacity="1.00" d=" M 61.64 50.74 C 60.53 50.64 59.32 46.18 61.45 47.39 C 61.75 47.59 62.34 47.99 62.63 48.19 C 62.86 49.23 62.52 50.08 61.64 50.74 Z" />
</g>
<g id="#dfd8ddff">
<path fill="#dfd8dd" opacity="1.00" d=" M 50.30 48.25 C 51.76 47.88 51.69 51.28 50.24 50.78 C 50.26 50.14 50.28 48.88 50.30 48.25 Z" />
</g>
<g id="#c38abbff">
<path fill="#c38abb" opacity="1.00" d=" M 62.80 52.99 C 61.93 51.09 63.36 49.36 64.46 47.95 C 64.87 49.74 64.93 51.68 65.79 53.33 C 67.36 54.53 69.22 55.22 70.98 56.08 C 70.25 57.65 69.84 59.34 69.50 61.03 C 65.48 60.53 63.95 56.30 62.80 52.99 Z" />
<path fill="#c38abb" opacity="1.00" d=" M 28.95 94.64 C 31.98 92.55 33.50 89.19 35.19 86.07 C 36.34 86.64 37.53 87.05 38.78 87.32 C 39.15 87.69 39.88 88.41 40.25 88.78 C 41.93 91.78 41.11 95.84 43.78 98.27 L 44.37 98.93 C 41.05 98.95 37.73 99.00 34.42 98.97 C 32.83 97.26 31.32 95.27 28.95 94.64 Z" />
</g>
<g id="#e299a2ff">
<path fill="#e299a2" opacity="1.00" d=" M 34.87 52.05 C 39.10 50.02 43.75 48.39 48.49 49.41 C 48.66 49.65 49.01 50.12 49.18 50.36 C 46.63 51.35 44.32 52.82 42.65 55.00 C 40.57 55.04 38.50 55.03 36.43 54.98 C 35.61 53.20 34.33 51.73 32.95 50.38 C 33.43 50.80 34.39 51.63 34.87 52.05 Z" />
</g>
<g id="#9f7497ff">
<path fill="#9f7497" opacity="1.00" d=" M 51.29 53.61 C 52.65 52.36 54.34 51.62 56.15 51.31 L 57.48 51.36 C 58.55 51.32 59.62 51.20 60.68 51.09 C 60.94 51.80 61.45 53.21 61.70 53.92 C 60.40 55.03 59.07 56.11 57.77 57.23 L 57.86 56.70 C 57.61 56.80 57.10 57.00 56.84 57.10 L 56.01 57.48 C 55.87 57.55 55.59 57.68 55.45 57.75 C 53.95 58.53 52.44 59.29 50.86 59.88 C 50.27 58.47 49.67 58.53 49.05 60.06 C 48.13 60.28 47.21 60.49 46.30 60.72 C 45.93 60.70 45.19 60.67 44.83 60.66 C 43.20 60.57 41.57 60.46 39.95 60.37 C 39.77 60.11 39.41 59.59 39.23 59.33 C 43.59 58.59 48.78 57.72 51.29 53.61 Z" />
</g>
<g id="#df9ed6ff">
<path fill="#df9ed6" opacity="1.00" d=" M 45.91 53.52 C 46.50 54.09 47.08 54.67 47.66 55.25 C 43.73 57.15 38.93 58.69 34.83 56.33 C 36.21 56.52 37.58 56.79 38.95 57.05 C 41.38 55.94 45.75 57.38 45.91 53.52 Z" />
<path fill="#df9ed6" opacity="1.00" d=" M 76.36 57.26 C 78.30 56.89 80.30 57.07 82.26 57.07 L 82.17 57.82 C 82.39 62.21 79.03 65.41 75.59 67.53 C 75.13 67.49 74.20 67.42 73.73 67.38 C 75.61 65.49 74.45 63.39 73.20 61.55 C 74.38 60.21 75.31 58.69 76.36 57.26 Z" />
</g>
<g id="#efe8efff">
<path fill="#efe8ef" opacity="1.00" d=" M 61.70 53.92 C 62.87 57.15 64.39 60.39 67.23 62.49 C 66.98 62.95 66.47 63.85 66.22 64.30 C 60.44 68.13 52.92 68.86 46.36 66.82 C 46.19 66.33 45.86 65.34 45.69 64.85 C 45.81 64.41 46.06 63.54 46.19 63.10 C 50.97 64.27 55.38 61.17 57.77 57.23 C 59.07 56.11 60.40 55.03 61.70 53.92 Z" />
</g>
<g id="#cd92c4ff">
<path fill="#cd92c4" opacity="1.00" d=" M 74.43 54.18 C 76.27 53.46 77.88 55.02 79.36 55.86 C 78.58 55.91 77.02 56.00 76.24 56.05 C 75.12 57.21 74.17 58.51 73.47 59.96 C 72.90 59.91 71.75 59.82 71.18 59.77 C 71.21 59.21 71.28 58.09 71.31 57.53 C 72.32 56.38 73.29 55.20 74.43 54.18 Z" />
</g>
<g id="#594754ff">
<path fill="#594754" opacity="1.00" d=" M 56.84 57.10 C 57.10 57.00 57.61 56.80 57.86 56.70 L 57.77 57.23 L 56.84 57.10 Z" />
</g>
<g id="#b581adff">
<path fill="#b581ad" opacity="1.00" d=" M 24.25 56.57 C 26.05 58.24 27.64 60.13 28.98 62.19 C 28.67 62.69 28.06 63.70 27.75 64.20 C 27.56 64.50 27.18 65.12 26.98 65.43 C 25.85 62.51 21.38 59.76 24.25 56.57 Z" />
</g>
<g id="#e9e2e9ff">
<path fill="#e9e2e9" opacity="1.00" d=" M 33.18 56.29 C 33.51 56.76 34.17 57.68 34.49 58.14 C 36.12 62.05 40.70 64.62 44.82 63.17 C 45.00 63.65 45.37 64.61 45.55 65.08 C 45.30 65.52 44.81 66.40 44.56 66.84 C 40.88 68.58 36.83 67.35 33.55 65.34 C 32.82 62.69 32.91 59.89 32.78 57.17 L 33.18 56.29 Z" />
</g>
<g id="#5a4855ff">
<path fill="#5a4855" opacity="1.00" d=" M 55.45 57.75 C 55.59 57.68 55.87 57.55 56.01 57.48 C 55.87 57.55 55.59 57.68 55.45 57.75 Z" />
</g>
<g id="#c4bec0ff">
<path fill="#c4bec0" opacity="1.00" d=" M 56.01 57.48 L 56.84 57.10 L 57.77 57.23 C 55.38 61.17 50.97 64.27 46.19 63.10 C 46.21 62.50 46.27 61.31 46.30 60.72 C 47.21 60.49 48.13 60.28 49.05 60.06 C 49.50 60.02 50.40 59.93 50.86 59.88 C 52.44 59.29 53.95 58.53 55.45 57.75 C 55.59 57.68 55.87 57.55 56.01 57.48 Z" />
</g>
<g id="#2a2e3af5">
<path fill="#2a2e3a" opacity="0.96" d=" M 85.01 57.02 C 85.51 57.01 86.49 57.00 86.98 56.99 C 87.01 60.07 87.00 63.14 87.02 66.22 C 90.62 65.18 94.39 65.03 98.00 64.06 C 100.50 63.64 103.38 64.79 105.55 63.12 C 108.41 62.97 111.28 63.01 114.15 63.03 C 114.35 65.34 113.32 67.24 110.81 67.23 C 111.64 66.18 112.47 65.13 113.30 64.09 C 111.60 64.05 109.90 64.02 108.20 64.00 C 108.37 64.37 108.69 65.12 108.85 65.49 C 108.02 65.12 107.33 64.06 106.33 64.33 C 102.37 65.16 98.27 64.96 94.33 65.95 C 91.40 66.34 88.48 66.84 85.54 67.16 L 85.67 66.75 C 86.51 63.81 86.27 60.72 86.17 57.71 L 85.09 58.46 L 85.01 57.02 Z" />
</g>
<g id="#c2bcbeff">
<path fill="#c2bcbe" opacity="1.00" d=" M 34.49 58.14 C 36.06 58.59 37.64 58.99 39.23 59.33 C 39.41 59.59 39.77 60.11 39.95 60.37 C 41.57 60.46 43.20 60.57 44.83 60.66 C 44.83 61.29 44.82 62.54 44.82 63.17 C 40.70 64.62 36.12 62.05 34.49 58.14 Z" />
</g>
<g id="#c289b9ff">
<path fill="#c289b9" opacity="1.00" d=" M 82.17 57.82 C 85.50 60.05 83.45 64.71 83.95 68.06 C 81.30 72.17 77.01 75.00 72.20 75.90 C 71.70 74.49 72.30 73.78 73.99 73.78 C 73.98 72.11 73.97 70.45 73.96 68.79 C 72.20 69.15 70.46 69.60 68.73 70.05 C 69.07 67.34 71.29 66.40 73.73 67.38 C 74.20 67.42 75.13 67.49 75.59 67.53 C 79.03 65.41 82.39 62.21 82.17 57.82 Z" />
</g>
<g id="#f7f0f7ff">
<path fill="#f7f0f7" opacity="1.00" d=" M 85.09 58.46 L 86.17 57.71 C 86.27 60.72 86.51 63.81 85.67 66.75 C 84.81 64.07 84.89 61.23 85.09 58.46 Z" />
</g>
<g id="#5a5356ff">
<path fill="#5a5356" opacity="1.00" d=" M 49.05 60.06 C 49.67 58.53 50.27 58.47 50.86 59.88 C 50.40 59.93 49.50 60.02 49.05 60.06 Z" />
</g>
<g id="#e2a0d8ff">
<path fill="#e2a0d8" opacity="1.00" d=" M 13.51 61.93 C 16.10 60.72 18.87 59.97 21.72 59.78 C 22.52 60.80 23.33 61.80 24.09 62.85 C 21.06 65.07 18.03 67.40 15.96 70.60 C 13.80 71.52 12.11 73.16 10.57 74.89 C 10.02 74.46 9.48 74.03 8.93 73.60 C 12.16 73.07 10.79 69.95 10.09 67.91 C 8.81 68.74 7.53 69.58 6.24 70.40 C 6.20 69.66 6.13 68.18 6.09 67.43 C 7.18 67.14 8.23 66.76 9.24 66.29 C 9.98 65.03 9.88 63.46 10.22 62.07 C 11.31 62.02 12.41 61.98 13.51 61.93 Z" />
</g>
<g id="#6a6366ff">
<path fill="#6a6366" opacity="1.00" d=" M 44.83 60.66 C 45.19 60.67 45.93 60.70 46.30 60.72 C 46.27 61.31 46.21 62.50 46.19 63.10 C 46.06 63.54 45.81 64.41 45.69 64.85 L 45.55 65.08 C 45.37 64.61 45.00 63.65 44.82 63.17 C 44.82 62.54 44.83 61.29 44.83 60.66 Z" />
</g>
<g id="#846e7fff">
<path fill="#846e7f" opacity="1.00" d=" M 67.23 62.49 C 68.65 62.28 70.07 62.09 71.49 61.92 C 70.41 63.02 69.32 64.12 68.23 65.21 C 68.56 66.10 68.89 66.99 69.22 67.88 C 68.63 68.09 67.45 68.52 66.85 68.73 L 67.07 67.15 C 64.23 68.74 61.42 70.49 58.18 71.12 C 59.85 67.79 65.05 68.33 66.22 64.30 C 66.47 63.85 66.98 62.95 67.23 62.49 Z" />
</g>
<g id="#f2f0f2ff">
<path fill="#f2f0f2" opacity="1.00" d=" M 70.25 65.83 C 70.03 63.25 74.56 62.39 73.51 65.81 C 72.44 66.30 71.35 66.30 70.25 65.83 Z" />
</g>
<g id="#ede8edff">
<path fill="#ede8ed" opacity="1.00" d=" M 7.21 64.15 C 8.85 63.59 9.41 64.12 8.88 65.77 C 7.26 66.32 6.70 65.78 7.21 64.15 Z" />
</g>
<g id="#c9c2c6ff">
<path fill="#c9c2c6" opacity="1.00" d=" M 46.36 66.82 C 52.92 68.86 60.44 68.13 66.22 64.30 C 65.05 68.33 59.85 67.79 58.18 71.12 C 61.42 70.49 64.23 68.74 67.07 67.15 L 66.85 68.73 C 62.01 72.31 55.71 72.57 49.95 71.80 C 45.85 71.14 41.91 72.73 37.95 73.50 C 37.90 74.79 37.85 76.08 37.81 77.37 L 36.59 77.60 C 36.73 75.99 36.91 74.39 37.10 72.78 C 37.23 71.91 37.37 71.03 37.53 70.16 C 36.09 68.65 34.65 67.12 33.55 65.34 C 36.83 67.35 40.88 68.58 44.56 66.84 C 44.81 66.40 45.30 65.52 45.55 65.08 L 45.69 64.85 C 45.86 65.34 46.19 66.33 46.36 66.82 M 46.42 68.46 C 44.96 68.68 43.50 68.86 42.04 69.05 L 42.05 70.04 C 45.91 69.92 49.79 70.14 53.64 69.70 C 51.36 68.73 48.83 68.82 46.42 68.46 M 39.22 70.10 C 39.56 73.37 42.17 68.42 39.22 70.10 M 55.27 70.30 C 55.78 70.81 55.78 70.81 55.27 70.30 M 57.31 70.23 C 57.81 70.76 57.81 70.76 57.31 70.23 Z" />
</g>
<g id="#d99ad0ff">
<path fill="#d99ad0" opacity="1.00" d=" M 106.33 64.33 C 107.33 64.06 108.02 65.12 108.85 65.49 C 108.69 65.12 108.37 64.37 108.20 64.00 C 109.90 64.02 111.60 64.05 113.30 64.09 C 112.47 65.13 111.64 66.18 110.81 67.23 L 110.51 67.62 C 110.06 67.64 109.17 67.69 108.72 67.72 C 107.25 67.70 105.65 68.34 105.02 69.75 L 104.59 70.47 C 104.13 70.65 103.23 71.00 102.77 71.17 C 102.16 69.79 101.75 67.85 100.24 67.23 C 100.16 67.54 100.00 68.17 99.92 68.48 C 97.90 69.08 95.88 69.69 93.83 70.22 L 92.99 70.34 C 91.66 69.88 90.35 69.34 89.08 68.72 C 89.48 68.44 90.29 67.88 90.69 67.59 C 91.22 67.88 92.26 68.45 92.78 68.74 C 92.81 68.31 92.88 67.45 92.91 67.02 C 93.26 66.75 93.98 66.22 94.33 65.95 C 98.27 64.96 102.37 65.16 106.33 64.33 Z" />
</g>
<g id="#a06398ff">
<path fill="#a06398" opacity="1.00" d=" M 90.69 67.59 C 91.25 67.45 92.35 67.16 92.91 67.02 C 92.88 67.45 92.81 68.31 92.78 68.74 C 92.26 68.45 91.22 67.88 90.69 67.59 Z" />
</g>
<g id="#7e5378ff">
<path fill="#7e5378" opacity="1.00" d=" M 100.24 67.23 C 101.75 67.85 102.16 69.79 102.77 71.17 C 102.40 71.31 101.64 71.59 101.26 71.73 C 100.78 70.66 100.33 69.58 99.92 68.48 C 100.00 68.17 100.16 67.54 100.24 67.23 Z" />
</g>
<g id="#645e60ff">
<path fill="#645e60" opacity="1.00" d=" M 46.42 68.46 C 48.83 68.82 51.36 68.73 53.64 69.70 C 49.79 70.14 45.91 69.92 42.05 70.04 L 42.04 69.05 C 43.50 68.86 44.96 68.68 46.42 68.46 Z" />
</g>
<g id="#5c4258ff">
<path fill="#5c4258" opacity="1.00" d=" M 105.02 69.75 C 105.65 68.34 107.25 67.70 108.72 67.72 C 109.20 69.33 106.26 70.43 105.02 69.75 Z" />
</g>
<g id="#674a62ff">
<path fill="#674a62" opacity="1.00" d=" M 20.80 70.78 C 21.04 69.70 21.69 69.03 22.76 68.76 C 23.11 70.41 22.45 71.08 20.80 70.78 Z" />
</g>
<g id="#eae3eaff">
<path fill="#eae3ea" opacity="1.00" d=" M 49.95 71.80 C 55.71 72.57 62.01 72.31 66.85 68.73 C 67.42 70.17 67.95 71.63 68.47 73.09 C 67.00 74.73 65.91 77.02 63.63 77.66 C 59.82 79.13 56.22 76.54 52.52 75.99 C 54.72 77.53 57.34 78.38 59.98 78.79 C 62.84 79.41 65.38 77.54 68.09 76.99 L 68.08 77.73 C 68.02 78.58 67.90 80.28 67.84 81.13 L 67.43 81.28 C 60.89 83.84 54.12 86.93 46.93 86.38 C 42.82 85.73 37.49 82.80 38.85 77.83 C 40.50 77.19 42.04 76.30 43.56 75.39 C 41.67 76.12 39.79 76.90 37.81 77.37 C 37.85 76.08 37.90 74.79 37.95 73.50 C 41.91 72.73 45.85 71.14 49.95 71.80 M 45.29 74.35 C 43.91 75.93 47.17 76.72 47.89 75.44 C 48.43 74.00 46.10 73.45 45.29 74.35 M 50.15 75.14 C 50.34 78.42 53.20 73.68 50.15 75.14 Z" />
</g>
<g id="#d9d4d7ff">
<path fill="#d9d4d7" opacity="1.00" d=" M 8.23 70.06 C 9.89 69.51 10.45 70.05 9.89 71.66 C 8.24 72.20 7.68 71.66 8.23 70.06 Z" />
</g>
<g id="#706b6dff">
<path fill="#706b6d" opacity="1.00" d=" M 39.22 70.10 C 42.17 68.42 39.56 73.37 39.22 70.10 Z" />
</g>
<g id="#8c8789ff">
<path fill="#8c8789" opacity="1.00" d=" M 55.27 70.30 C 55.78 70.81 55.78 70.81 55.27 70.30 Z" />
</g>
<g id="#777174ff">
<path fill="#777174" opacity="1.00" d=" M 57.31 70.23 C 57.81 70.76 57.81 70.76 57.31 70.23 Z" />
</g>
<g id="#f8f4f8ff">
<path fill="#f8f4f8" opacity="1.00" d=" M 69.31 71.31 C 70.35 70.82 72.51 69.06 73.04 71.00 C 73.74 73.72 69.63 72.82 69.31 71.31 Z" />
</g>
<g id="#81477aff">
<path fill="#81477a" opacity="1.00" d=" M 92.99 70.34 L 93.83 70.22 C 95.47 72.06 91.73 72.51 92.99 70.34 Z" />
</g>
<g id="#97658fff">
<path fill="#97658f" opacity="1.00" d=" M 86.05 71.22 C 89.36 71.27 84.63 74.27 86.05 71.22 Z" />
</g>
<g id="#eae5e9ff">
<path fill="#eae5e9" opacity="1.00" d=" M 14.22 72.15 C 15.98 71.65 16.38 74.55 14.73 74.93 C 12.76 75.66 12.54 72.57 14.22 72.15 Z" />
</g>
<g id="#4d404ef9">
<path fill="#4d404e" opacity="0.98" d=" M 29.71 79.04 C 30.63 77.07 31.69 75.04 33.49 73.73 C 32.65 75.42 31.46 77.00 31.03 78.87 C 31.88 81.05 33.25 82.97 34.47 84.96 C 35.07 84.97 36.26 85.00 36.85 85.02 C 36.29 82.58 36.27 80.07 36.59 77.60 L 37.81 77.37 C 39.79 76.90 41.67 76.12 43.56 75.39 C 42.04 76.30 40.50 77.19 38.85 77.83 C 38.29 77.83 37.16 77.82 36.60 77.82 C 36.73 82.07 39.13 86.08 42.58 88.47 C 47.41 91.15 52.58 93.45 58.18 93.66 C 58.65 93.32 59.58 92.64 60.04 92.31 C 62.53 92.34 64.98 91.86 67.45 91.59 C 66.04 93.82 62.82 93.48 60.55 94.24 C 58.43 95.44 55.66 95.33 53.52 94.24 C 51.18 94.10 49.06 93.16 47.12 91.90 C 45.54 94.32 46.99 98.21 44.56 99.86 C 35.97 100.18 27.35 99.95 18.75 99.95 C 19.24 99.58 20.23 98.84 20.72 98.47 C 24.56 99.44 28.54 99.19 32.44 99.00 C 30.92 97.40 29.18 96.03 27.23 94.99 C 26.12 95.45 25.01 95.90 23.89 96.33 C 24.51 95.33 25.23 94.41 26.05 93.56 C 25.20 92.21 24.33 90.87 23.39 89.58 C 22.16 87.21 21.62 84.22 24.40 82.66 C 24.07 83.72 23.74 84.78 23.39 85.84 C 24.36 88.32 25.72 90.62 27.26 92.79 C 27.89 92.81 29.13 92.84 29.76 92.86 C 31.41 90.77 32.81 88.51 34.06 86.16 C 32.20 83.49 30.27 80.85 27.81 78.70 C 28.28 78.79 29.23 78.96 29.71 79.04 M 28.95 94.64 C 31.32 95.27 32.83 97.26 34.42 98.97 C 37.73 99.00 41.05 98.95 44.37 98.93 L 43.78 98.27 L 44.75 98.67 C 44.96 96.15 45.43 93.66 46.12 91.23 C 45.43 91.13 44.04 90.91 43.35 90.81 C 42.36 90.06 41.33 89.38 40.25 88.78 C 39.88 88.41 39.15 87.69 38.78 87.32 C 37.53 87.05 36.34 86.64 35.19 86.07 C 33.50 89.19 31.98 92.55 28.95 94.64 Z" />
</g>
<g id="#c4bec4ff">
<path fill="#c4bec4" opacity="1.00" d=" M 45.29 74.35 C 46.10 73.45 48.43 74.00 47.89 75.44 C 47.17 76.72 43.91 75.93 45.29 74.35 Z" />
</g>
<g id="#fdfcfdff">
<path fill="#fdfcfd" opacity="1.00" d=" M 68.29 75.89 C 67.60 74.57 69.96 73.28 70.94 74.24 C 71.88 75.72 69.31 76.74 68.29 75.89 Z" />
</g>
<g id="#7d767dff">
<path fill="#7d767d" opacity="1.00" d=" M 50.15 75.14 C 53.20 73.68 50.34 78.42 50.15 75.14 Z" />
</g>
<g id="#8e5c87ff">
<path fill="#8e5c87" opacity="1.00" d=" M 87.11 75.30 C 90.41 75.60 85.45 78.24 87.11 75.30 Z" />
</g>
<g id="#2e212ccc">
<path fill="#2e212c" opacity="0.80" d=" M 91.14 77.79 C 92.03 76.60 93.36 75.87 94.83 75.68 C 95.49 77.44 92.43 78.67 91.14 77.79 Z" />
</g>
<g id="#9b7394ff">
<path fill="#9b7394" opacity="1.00" d=" M 68.09 76.99 C 68.47 76.99 69.23 76.99 69.61 76.99 C 69.73 80.50 70.38 84.00 71.94 87.17 C 71.69 87.65 71.19 88.62 70.94 89.10 C 70.22 89.20 68.79 89.39 68.07 89.49 C 66.55 85.62 68.27 81.67 68.08 77.73 L 68.09 76.99 Z" />
</g>
<g id="#bfb9bbff">
<path fill="#bfb9bb" opacity="1.00" d=" M 36.60 77.82 C 37.16 77.82 38.29 77.83 38.85 77.83 C 37.49 82.80 42.82 85.73 46.93 86.38 C 54.12 86.93 60.89 83.84 67.43 81.28 C 67.21 83.88 67.12 86.50 67.52 89.10 C 68.33 89.69 68.84 90.49 69.05 91.50 C 68.65 91.52 67.85 91.57 67.45 91.59 C 64.98 91.86 62.53 92.34 60.04 92.31 C 59.58 92.64 58.65 93.32 58.18 93.66 C 52.58 93.45 47.41 91.15 42.58 88.47 C 39.13 86.08 36.73 82.07 36.60 77.82 Z" />
</g>
<g id="#c78dbeff">
<path fill="#c78dbe" opacity="1.00" d=" M 27.27 78.19 L 27.81 78.70 C 30.27 80.85 32.20 83.49 34.06 86.16 C 32.81 88.51 31.41 90.77 29.76 92.86 C 29.13 92.84 27.89 92.81 27.26 92.79 C 25.72 90.62 24.36 88.32 23.39 85.84 C 23.74 84.78 24.07 83.72 24.40 82.66 C 25.44 81.22 26.33 79.69 27.27 78.19 Z" />
</g>
<g id="#534052ff">
<path fill="#534052" opacity="1.00" d=" M 85.66 80.52 C 87.25 79.85 88.84 79.19 90.43 78.51 C 89.22 80.30 86.63 80.81 85.91 82.98 C 87.78 86.54 89.78 90.39 89.82 94.45 L 89.14 95.41 C 90.02 97.48 90.76 99.62 91.20 101.84 C 89.63 102.07 87.73 101.60 86.50 102.91 C 82.50 102.87 78.35 103.57 74.47 102.31 C 72.34 101.73 70.11 101.96 67.93 101.91 C 69.75 98.44 69.07 94.48 69.13 90.73 C 69.54 90.53 70.38 90.12 70.79 89.92 C 70.49 93.64 70.36 97.39 69.72 101.08 C 71.32 101.00 72.93 100.92 74.53 100.84 C 76.01 99.55 77.56 98.35 79.01 97.03 C 76.80 94.24 74.78 91.29 73.55 87.93 C 72.68 88.32 71.81 88.71 70.94 89.10 C 71.19 88.62 71.69 87.65 71.94 87.17 C 75.39 86.44 76.05 82.33 78.03 79.91 C 80.58 79.98 83.13 80.16 85.66 80.52 M 78.07 81.02 C 76.84 83.28 75.90 85.69 75.00 88.09 C 76.37 90.95 78.04 93.69 80.45 95.80 C 80.95 95.79 81.96 95.76 82.46 95.74 C 83.21 95.05 83.96 94.36 84.71 93.67 C 84.85 92.61 84.99 91.56 85.15 90.51 C 87.54 87.24 84.34 83.82 82.82 80.97 C 81.24 81.00 79.65 81.01 78.07 81.02 M 82.83 96.28 C 84.89 97.27 86.82 98.64 87.51 100.94 C 88.14 100.96 89.38 101.02 90.00 101.05 C 89.29 99.30 88.60 97.55 87.89 95.80 C 88.17 95.39 88.71 94.56 88.98 94.15 C 88.13 92.43 87.91 90.53 87.75 88.64 C 84.91 90.60 87.16 96.26 82.83 96.28 M 79.45 98.12 C 78.10 99.19 75.94 99.84 75.96 101.89 C 79.30 102.09 82.66 102.30 86.00 102.00 C 86.75 100.27 84.46 99.27 83.70 97.98 C 82.28 98.03 80.86 98.08 79.45 98.12 Z" />
</g>
<g id="#c88dbfff">
<path fill="#c88dbf" opacity="1.00" d=" M 78.07 81.02 C 79.65 81.01 81.24 81.00 82.82 80.97 C 84.34 83.82 87.54 87.24 85.15 90.51 C 84.99 91.56 84.85 92.61 84.71 93.67 C 83.96 94.36 83.21 95.05 82.46 95.74 C 81.96 95.76 80.95 95.79 80.45 95.80 C 78.04 93.69 76.37 90.95 75.00 88.09 C 75.90 85.69 76.84 83.28 78.07 81.02 Z" />
</g>
<g id="#be87b6ff">
<path fill="#be87b6" opacity="1.00" d=" M 70.94 89.10 C 71.81 88.71 72.68 88.32 73.55 87.93 C 74.78 91.29 76.80 94.24 79.01 97.03 C 77.56 98.35 76.01 99.55 74.53 100.84 C 72.93 100.92 71.32 101.00 69.72 101.08 C 70.36 97.39 70.49 93.64 70.79 89.92 L 70.94 89.10 Z" />
</g>
<g id="#9b7294ff">
<path fill="#9b7294" opacity="1.00" d=" M 40.25 88.78 C 41.33 89.38 42.36 90.06 43.35 90.81 C 44.04 90.91 45.43 91.13 46.12 91.23 C 45.43 93.66 44.96 96.15 44.75 98.67 L 43.78 98.27 C 41.11 95.84 41.93 91.78 40.25 88.78 Z" />
</g>
<g id="#bc86b4ff">
<path fill="#bc86b4" opacity="1.00" d=" M 82.83 96.28 C 87.16 96.26 84.91 90.60 87.75 88.64 C 87.91 90.53 88.13 92.43 88.98 94.15 C 88.71 94.56 88.17 95.39 87.89 95.80 C 88.60 97.55 89.29 99.30 90.00 101.05 C 89.38 101.02 88.14 100.96 87.51 100.94 C 86.82 98.64 84.89 97.27 82.83 96.28 Z" />
</g>
<g id="#f4edf4ff">
<path fill="#f4edf4" opacity="1.00" d=" M 79.45 98.12 C 80.86 98.08 82.28 98.03 83.70 97.98 C 84.46 99.27 86.75 100.27 86.00 102.00 C 82.66 102.30 79.30 102.09 75.96 101.89 C 75.94 99.84 78.10 99.19 79.45 98.12 Z" />
</g>
</svg>
