<?xml version="1.0" encoding="UTF-8" ?>
<!DOCTYPE svg PUBLIC "-//W3C//DTD SVG 1.1//EN" "http://www.w3.org/Graphics/SVG/1.1/DTD/svg11.dtd">
<svg width="120pt" height="120pt" viewBox="0 0 120 120" version="1.1" xmlns="http://www.w3.org/2000/svg">
<g id="#584c41ff">
<path fill="#584c41" opacity="1.00" d=" M 69.54 16.64 C 72.55 15.45 75.75 15.00 78.98 15.07 C 78.97 15.39 78.95 16.03 78.95 16.36 C 76.74 16.09 74.48 15.93 72.34 16.66 C 71.92 16.74 71.10 16.88 70.69 16.95 L 69.54 16.64 Z" />
<path fill="#584c41" opacity="1.00" d=" M 55.34 17.90 C 55.71 18.26 56.45 18.98 56.81 19.34 C 56.90 19.89 57.07 21.00 57.15 21.55 C 57.94 23.12 58.68 24.70 59.44 26.28 C 60.34 24.64 61.01 22.81 62.48 21.57 C 61.55 23.83 60.57 26.07 59.51 28.28 C 58.76 27.14 58.01 26.00 57.33 24.82 C 56.56 23.03 55.94 21.19 55.28 19.36 C 54.08 21.14 53.25 23.14 52.70 25.21 L 52.16 24.86 C 51.64 22.07 53.83 19.94 55.34 17.90 Z" />
<path fill="#584c41" opacity="1.00" d=" M 76.21 18.61 L 76.74 18.15 C 79.84 21.85 81.28 26.66 80.91 31.46 C 80.29 34.94 77.46 36.60 74.45 37.88 C 72.85 37.91 71.24 37.94 69.64 37.98 C 70.49 39.26 71.38 40.53 72.38 41.71 C 71.91 43.01 72.76 44.38 73.89 45.01 C 73.85 44.30 73.77 42.89 73.73 42.18 L 74.86 41.91 C 74.92 43.31 74.97 44.71 75.02 46.11 C 76.48 46.16 77.93 46.21 79.38 46.30 C 80.50 46.68 81.62 47.04 82.74 47.38 C 85.28 49.59 88.12 52.84 86.61 56.45 C 85.55 58.58 87.12 60.68 87.82 62.65 C 87.98 65.15 87.99 67.65 88.00 70.16 C 89.99 70.14 91.98 70.13 93.97 70.11 C 93.93 71.25 93.90 72.39 93.86 73.54 C 92.90 75.20 91.99 76.89 91.01 78.54 C 91.05 79.48 91.09 80.43 91.14 81.38 C 92.49 84.23 91.90 87.47 91.84 90.51 L 90.87 89.33 C 90.91 87.42 90.98 85.51 91.04 83.60 C 86.26 86.47 80.53 87.97 75.10 86.04 C 74.73 86.33 74.00 86.90 73.63 87.18 C 72.04 87.38 70.47 87.70 68.92 88.06 C 70.62 87.01 72.32 85.94 73.99 84.84 C 74.02 83.94 74.07 82.15 74.10 81.25 C 70.85 82.01 67.57 82.62 64.26 83.04 C 65.82 82.57 67.38 82.10 68.94 81.65 C 69.90 78.20 70.26 74.44 72.35 71.43 C 74.34 68.65 76.53 66.03 78.49 63.24 C 77.62 63.11 75.89 62.85 75.03 62.72 C 73.85 59.26 72.12 56.02 70.85 52.60 C 70.75 49.39 72.59 46.00 71.00 42.96 C 70.30 41.34 69.53 39.75 68.83 38.14 C 68.76 37.68 68.63 36.75 68.57 36.29 C 72.22 37.01 75.76 35.93 78.96 34.23 C 78.80 33.68 78.47 32.58 78.30 32.04 C 78.72 31.71 79.57 31.05 79.99 30.71 C 79.65 27.25 78.77 23.75 76.39 21.09 C 76.32 20.26 76.24 19.44 76.21 18.61 M 72.08 46.53 C 71.19 51.77 73.60 56.63 76.27 60.95 C 77.93 57.08 82.27 54.87 86.31 56.46 C 86.02 54.56 85.47 52.71 84.64 50.97 C 83.66 50.06 82.69 49.14 81.73 48.22 C 78.98 47.33 76.11 46.65 73.21 47.26 C 72.93 47.08 72.36 46.71 72.08 46.53 M 78.00 59.27 C 78.29 60.38 78.59 61.50 78.88 62.62 C 81.27 61.93 83.67 61.30 86.09 60.78 C 85.26 59.49 84.44 58.20 83.63 56.90 C 81.65 57.42 79.78 58.26 78.00 59.27 M 80.31 63.35 C 78.16 65.23 76.38 67.47 74.72 69.78 C 73.09 71.49 72.12 73.66 71.25 75.82 L 70.85 75.54 C 71.31 76.53 71.77 77.53 72.23 78.53 C 73.30 79.22 74.36 79.93 75.43 80.63 C 75.99 80.78 77.11 81.06 77.67 81.20 C 78.74 82.22 79.81 83.28 81.06 84.09 C 82.56 83.18 83.45 81.65 84.36 80.22 L 84.64 80.22 C 85.48 76.73 87.05 73.36 87.00 69.70 C 87.11 67.90 87.06 66.09 87.06 64.29 C 86.13 63.53 85.22 62.77 84.30 62.01 C 82.98 62.49 81.65 62.94 80.31 63.35 M 87.75 70.99 C 87.84 71.62 88.02 72.88 88.11 73.52 C 89.01 74.68 89.92 75.84 90.82 77.01 C 91.92 75.16 92.81 73.19 93.32 71.09 C 91.46 71.04 89.61 71.01 87.75 70.99 M 87.46 74.66 C 87.13 75.35 86.49 76.74 86.17 77.43 C 86.11 78.00 86.00 79.15 85.94 79.72 C 84.38 82.12 82.45 84.23 80.49 86.31 C 83.55 85.85 87.01 85.66 89.47 83.58 C 91.18 80.59 89.46 77.07 87.46 74.66 M 70.33 80.20 C 70.65 81.45 71.44 81.64 72.70 80.78 C 72.37 79.51 71.58 79.32 70.33 80.20 M 75.25 82.39 C 75.22 82.93 75.16 84.00 75.12 84.54 C 76.12 84.87 76.98 84.61 77.71 83.73 C 78.19 82.47 76.11 81.41 75.25 82.39 M 78.27 85.09 C 78.47 88.36 81.34 83.55 78.27 85.09 Z" />
<path fill="#584c41" opacity="1.00" d=" M 60.80 29.85 C 61.19 25.17 65.07 21.99 68.82 19.77 C 71.36 20.91 73.69 22.46 75.43 24.66 C 72.86 25.14 69.94 24.98 67.81 26.72 C 65.62 28.19 64.60 30.70 63.56 33.01 C 62.55 32.03 61.50 31.07 60.80 29.85 Z" />
<path fill="#584c41" opacity="1.00" d=" M 38.08 22.30 C 40.21 24.44 41.77 27.09 42.08 30.14 L 39.80 30.07 L 39.25 29.54 C 38.68 27.16 38.32 24.73 38.08 22.30 Z" />
<path fill="#584c41" opacity="1.00" d=" M 51.26 36.29 C 52.30 37.14 51.45 39.77 50.62 40.78 C 48.76 40.25 50.00 37.07 51.26 36.29 Z" />
<path fill="#584c41" opacity="1.00" d=" M 53.00 40.29 C 54.92 38.22 56.87 35.67 60.02 35.77 C 60.26 37.00 60.48 38.24 60.67 39.47 C 60.42 38.78 59.92 37.39 59.66 36.69 C 58.40 37.10 57.15 37.52 55.90 37.96 C 56.19 38.48 56.79 39.51 57.09 40.03 C 55.13 40.80 55.19 41.64 56.78 42.07 C 56.57 43.51 54.03 42.42 52.97 42.86 C 52.98 42.22 52.99 40.94 53.00 40.29 Z" />
<path fill="#584c41" opacity="1.00" d=" M 63.93 56.29 C 65.82 54.91 67.29 52.54 69.79 52.24 C 67.87 53.64 65.97 55.07 63.93 56.29 Z" />
<path fill="#584c41" opacity="1.00" d=" M 55.74 62.35 C 56.34 61.98 57.53 61.24 58.13 60.87 C 57.94 62.33 57.17 63.09 55.83 63.13 L 55.74 62.35 Z" />
<path fill="#584c41" opacity="1.00" d=" M 71.13 69.53 C 71.22 69.45 71.42 69.30 71.51 69.22 L 71.37 69.40 L 71.13 69.53 Z" />
<path fill="#584c41" opacity="1.00" d=" M 67.97 70.72 C 68.62 70.49 69.94 70.04 70.60 69.82 C 69.94 70.04 68.62 70.49 67.97 70.72 Z" />
<path fill="#584c41" opacity="1.00" d=" M 63.02 70.99 C 63.47 70.92 64.37 70.78 64.82 70.71 C 64.62 72.27 64.02 72.36 63.02 70.99 Z" />
<path fill="#584c41" opacity="1.00" d=" M 45.75 82.31 C 46.32 82.54 47.46 83.00 48.03 83.23 C 47.46 83.00 46.32 82.54 45.75 82.31 Z" />
<path fill="#584c41" opacity="1.00" d=" M 33.45 82.78 C 33.56 83.15 33.77 83.88 33.88 84.25 C 34.32 86.31 34.97 88.32 35.90 90.22 C 36.73 91.77 37.60 93.30 38.45 94.85 C 40.37 94.90 42.28 94.94 44.20 94.99 L 44.24 95.88 C 42.44 95.99 40.64 96.10 38.85 96.27 C 37.54 96.41 36.26 96.69 34.97 96.93 C 35.79 96.36 36.59 95.77 37.37 95.17 C 36.53 93.53 35.51 92.00 34.39 90.55 C 34.10 89.52 33.81 88.49 33.52 87.46 C 33.02 86.14 32.44 84.86 31.77 83.62 L 33.45 82.78 Z" />
<path fill="#584c41" opacity="1.00" d=" M 43.47 85.09 C 43.54 85.24 43.66 85.54 43.72 85.69 C 43.66 85.54 43.54 85.24 43.47 85.09 Z" />
<path fill="#584c41" opacity="1.00" d=" M 48.22 88.27 C 48.82 88.81 48.82 88.81 48.22 88.27 Z" />
<path fill="#584c41" opacity="1.00" d=" M 67.26 88.17 C 70.26 86.60 67.47 91.48 67.26 88.17 Z" />
<path fill="#584c41" opacity="1.00" d=" M 73.28 88.48 C 73.31 88.35 73.38 88.10 73.42 87.97 C 73.38 88.10 73.31 88.35 73.28 88.48 Z" />
<path fill="#584c41" opacity="1.00" d=" M 46.46 89.30 C 46.52 89.35 46.64 89.45 46.70 89.51 L 46.57 89.41 L 46.46 89.30 Z" />
<path fill="#584c41" opacity="1.00" d=" M 46.89 89.65 C 48.47 89.44 50.05 89.18 51.62 88.87 C 51.49 89.58 51.23 91.01 51.10 91.72 C 54.74 92.89 58.42 93.99 62.21 94.53 C 65.73 95.05 69.14 93.58 72.24 92.09 C 73.62 93.65 74.95 95.25 76.27 96.86 C 80.42 96.62 85.30 98.19 88.87 95.43 C 89.96 97.72 90.04 100.26 90.06 102.75 C 85.67 104.77 81.06 101.73 76.56 103.36 C 75.32 104.06 74.15 103.56 73.04 102.94 C 73.07 102.30 73.13 101.03 73.17 100.39 C 73.94 99.64 74.70 98.89 75.47 98.14 C 74.36 96.81 73.29 95.43 72.64 93.80 C 71.58 94.09 70.52 94.36 69.46 94.62 C 68.09 94.95 66.70 95.23 65.43 95.86 C 62.15 96.40 59.04 94.96 55.78 94.88 C 55.42 94.63 54.71 94.13 54.36 93.88 C 54.03 94.26 53.38 95.02 53.06 95.40 C 54.13 97.00 54.73 99.78 52.63 100.83 C 48.63 101.12 44.62 100.78 40.62 101.14 C 37.79 102.80 34.50 100.38 31.38 100.77 C 31.22 100.37 30.91 99.57 30.75 99.17 L 31.97 99.18 C 32.68 100.23 33.61 100.45 34.78 99.82 C 34.46 99.52 33.83 98.92 33.51 98.61 C 33.75 98.22 34.24 97.42 34.48 97.03 C 35.24 97.99 36.00 98.95 36.75 99.92 C 38.44 98.95 40.24 98.17 42.15 97.74 C 42.84 99.69 44.54 100.21 46.43 100.07 C 48.54 100.09 50.65 100.02 52.74 99.70 C 52.74 97.82 52.52 95.96 52.38 94.10 C 50.58 92.58 48.77 91.08 46.89 89.65 M 75.65 98.35 C 76.22 98.56 77.36 98.98 77.92 99.19 C 77.89 99.91 77.81 101.35 77.77 102.06 C 79.67 102.04 81.58 102.01 83.48 101.97 C 84.13 100.84 84.67 99.56 85.80 98.82 C 86.89 99.48 87.91 100.23 88.95 100.97 C 88.91 100.28 88.84 98.90 88.81 98.22 C 84.43 98.11 80.02 97.85 75.65 98.35 M 39.18 100.24 C 40.44 100.88 41.23 100.56 41.55 99.25 C 40.24 98.56 39.45 98.89 39.18 100.24 M 75.21 100.41 C 75.18 100.87 75.11 101.79 75.08 102.25 L 75.80 102.58 C 77.83 102.47 76.92 98.75 75.21 100.41 M 85.16 100.47 C 84.90 101.92 85.44 102.55 86.79 102.35 C 87.04 100.91 86.49 100.28 85.16 100.47 Z" />
<path fill="#584c41" opacity="1.00" d=" M 52.46 89.78 C 57.33 89.92 62.23 90.01 67.01 88.94 C 62.89 91.96 57.21 90.88 52.38 91.37 L 52.46 89.78 Z" />
<path fill="#584c41" opacity="1.00" d=" M 47.46 96.07 C 48.68 95.20 49.37 95.45 49.53 96.82 C 48.30 97.69 47.61 97.44 47.46 96.07 Z" />
</g>
<g id="#90b7d3ff">
<path fill="#90b7d3" opacity="1.00" d=" M 72.34 16.66 C 74.48 15.93 76.74 16.09 78.95 16.36 C 78.39 16.81 77.29 17.70 76.74 18.15 L 76.21 18.61 C 76.24 19.44 76.32 20.26 76.39 21.09 C 75.98 20.52 75.17 19.38 74.76 18.81 C 72.77 19.04 70.77 19.27 68.82 19.77 C 65.07 21.99 61.19 25.17 60.80 29.85 C 61.50 31.07 62.55 32.03 63.56 33.01 C 65.40 34.63 67.22 36.28 68.83 38.14 C 69.53 39.75 70.30 41.34 71.00 42.96 C 72.59 46.00 70.75 49.39 70.85 52.60 L 69.79 52.24 C 67.29 52.54 65.82 54.91 63.93 56.29 L 63.68 56.46 L 63.52 56.57 L 63.39 56.66 C 62.89 57.01 61.88 57.70 61.38 58.05 C 59.96 57.97 59.02 58.59 58.57 59.91 C 58.46 60.15 58.24 60.63 58.13 60.87 C 57.53 61.24 56.34 61.98 55.74 62.35 L 55.83 63.13 C 55.88 63.62 55.97 64.59 56.02 65.08 C 54.54 65.69 54.53 66.33 55.99 66.99 L 56.08 67.92 C 56.28 69.32 57.14 70.08 58.66 70.20 L 59.24 70.34 L 59.46 70.40 L 59.69 70.43 C 60.52 70.57 62.19 70.85 63.02 70.99 C 64.02 72.36 64.62 72.27 64.82 70.71 C 65.61 70.71 67.18 70.72 67.97 70.72 C 68.62 70.49 69.94 70.04 70.60 69.82 L 71.13 69.53 L 71.37 69.40 L 71.51 69.22 C 72.33 68.20 73.14 67.17 73.95 66.14 C 74.26 65.61 74.87 64.55 75.18 64.02 L 75.03 62.72 C 75.89 62.85 77.62 63.11 78.49 63.24 C 76.53 66.03 74.34 68.65 72.35 71.43 C 70.26 74.44 69.90 78.20 68.94 81.65 C 67.38 82.10 65.82 82.57 64.26 83.04 C 63.90 83.09 63.17 83.19 62.80 83.24 C 58.52 83.11 54.23 83.06 49.94 83.07 C 48.71 80.68 47.23 78.38 46.48 75.77 C 47.76 72.73 50.34 70.23 50.85 66.86 C 50.85 64.34 49.77 61.99 49.05 59.62 C 54.66 60.44 59.46 56.90 63.57 53.57 C 65.53 51.99 67.06 49.92 67.95 47.55 C 67.98 46.83 68.04 45.40 68.07 44.68 L 68.10 43.66 C 64.42 44.46 60.79 45.56 57.03 45.92 C 60.39 45.04 64.23 42.92 64.35 38.99 C 63.52 35.83 61.70 32.99 59.52 30.58 C 56.57 27.26 51.70 27.76 47.69 27.53 L 48.02 26.50 C 48.66 26.52 49.93 26.57 50.57 26.60 C 50.97 26.16 51.76 25.29 52.16 24.86 L 52.70 25.21 C 53.37 25.50 54.71 26.06 55.38 26.35 C 55.41 26.36 55.48 26.40 55.52 26.42 L 55.57 26.37 C 56.01 25.99 56.89 25.21 57.33 24.82 C 58.01 26.00 58.76 27.14 59.51 28.28 C 60.57 26.07 61.55 23.83 62.48 21.57 C 64.54 19.11 67.79 18.09 70.69 16.95 C 71.10 16.88 71.92 16.74 72.34 16.66 Z" />
<path fill="#90b7d3" opacity="1.00" d=" M 39.29 35.92 C 40.28 36.31 41.26 36.70 42.24 37.09 C 41.72 37.58 40.67 38.55 40.15 39.04 C 41.52 42.49 44.23 45.25 48.03 45.78 C 45.00 46.32 41.96 46.78 38.90 47.15 C 37.65 43.45 38.21 39.58 39.29 35.92 Z" />
<path fill="#90b7d3" opacity="1.00" d=" M 72.08 46.53 C 72.36 46.71 72.93 47.08 73.21 47.26 C 74.75 49.28 75.60 52.25 78.31 53.03 C 80.67 54.17 82.69 51.97 84.64 50.97 C 85.47 52.71 86.02 54.56 86.31 56.46 C 82.27 54.87 77.93 57.08 76.27 60.95 C 73.60 56.63 71.19 51.77 72.08 46.53 Z" />
<path fill="#90b7d3" opacity="1.00" d=" M 39.33 48.17 L 40.07 49.12 C 41.16 50.62 42.32 52.08 43.47 53.53 C 42.35 55.07 41.23 56.60 40.10 58.13 C 38.85 56.97 37.56 55.86 36.47 54.56 C 36.57 52.93 37.41 51.46 38.07 50.00 C 38.38 49.54 39.02 48.63 39.33 48.17 Z" />
<path fill="#90b7d3" opacity="1.00" d=" M 78.00 59.27 C 79.78 58.26 81.65 57.42 83.63 56.90 C 84.44 58.20 85.26 59.49 86.09 60.78 C 83.67 61.30 81.27 61.93 78.88 62.62 C 78.59 61.50 78.29 60.38 78.00 59.27 Z" />
<path fill="#90b7d3" opacity="1.00" d=" M 38.67 63.97 C 38.50 68.19 37.74 73.39 33.56 75.50 C 33.36 74.46 32.96 72.37 32.76 71.33 C 30.84 72.29 29.29 73.75 28.12 75.55 C 27.61 75.63 26.58 75.79 26.06 75.87 C 26.14 73.05 26.61 70.24 27.69 67.62 C 27.83 68.21 28.10 69.38 28.24 69.97 C 30.63 70.12 33.32 70.86 35.52 69.56 C 36.80 67.84 37.66 65.85 38.67 63.97 Z" />
<path fill="#90b7d3" opacity="1.00" d=" M 71.25 75.82 C 72.12 73.66 73.09 71.49 74.72 69.78 C 76.26 72.08 77.89 75.07 81.08 75.11 C 84.36 75.51 85.61 71.96 87.00 69.70 C 87.05 73.36 85.48 76.73 84.64 80.22 L 84.36 80.22 C 79.48 80.85 74.92 78.93 71.25 75.82 Z" />
<path fill="#90b7d3" opacity="1.00" d=" M 40.25 74.04 C 40.60 74.08 41.30 74.18 41.65 74.22 C 41.87 75.68 42.04 77.15 42.22 78.61 C 42.21 79.31 42.19 80.69 42.19 81.38 C 41.38 82.53 41.46 83.56 42.44 84.50 C 40.05 85.46 39.86 88.28 38.97 90.36 C 37.95 90.31 36.92 90.26 35.90 90.22 C 34.97 88.32 34.32 86.31 33.88 84.25 C 35.56 83.55 37.45 83.74 39.22 83.49 C 37.30 83.20 33.51 84.02 34.01 80.90 C 35.46 78.89 36.97 76.93 38.64 75.10 C 39.04 74.84 39.85 74.30 40.25 74.04 Z" />
<path fill="#90b7d3" opacity="1.00" d=" M 87.46 74.66 C 89.46 77.07 91.18 80.59 89.47 83.58 C 87.01 85.66 83.55 85.85 80.49 86.31 C 82.45 84.23 84.38 82.12 85.94 79.72 C 86.00 79.15 86.11 78.00 86.17 77.43 C 86.49 76.74 87.13 75.35 87.46 74.66 Z" />
<path fill="#90b7d3" opacity="1.00" d=" M 75.10 86.04 C 80.53 87.97 86.26 86.47 91.04 83.60 C 90.98 85.51 90.91 87.42 90.87 89.33 C 90.84 89.90 90.77 91.05 90.74 91.63 L 89.68 92.17 C 86.77 93.65 83.58 95.34 80.20 94.57 C 78.27 93.80 76.82 92.24 75.23 90.95 C 75.19 89.32 75.15 87.68 75.10 86.04 Z" />
<path fill="#90b7d3" opacity="1.00" d=" M 34.97 96.93 C 36.26 96.69 37.54 96.41 38.85 96.27 C 41.83 96.43 44.49 97.83 46.43 100.07 C 44.54 100.21 42.84 99.69 42.15 97.74 C 40.24 98.17 38.44 98.95 36.75 99.92 C 36.00 98.95 35.24 97.99 34.48 97.03 L 34.97 96.93 Z" />
<path fill="#90b7d3" opacity="1.00" d=" M 75.65 98.35 C 80.02 97.85 84.43 98.11 88.81 98.22 C 88.84 98.90 88.91 100.28 88.95 100.97 C 87.91 100.23 86.89 99.48 85.80 98.82 C 84.67 99.56 84.13 100.84 83.48 101.97 C 81.58 102.01 79.67 102.04 77.77 102.06 C 77.81 101.35 77.89 99.91 77.92 99.19 C 77.36 98.98 76.22 98.56 75.65 98.35 Z" />
</g>
<g id="#6893b7ff">
<path fill="#6893b7" opacity="1.00" d=" M 34.22 19.10 C 35.57 18.59 36.99 18.37 38.43 18.25 C 40.24 19.44 41.94 20.77 43.49 22.28 C 44.09 23.99 45.45 25.59 45.32 27.43 C 42.75 24.01 40.45 20.04 35.95 18.98 C 38.85 22.05 41.14 25.59 43.41 29.12 L 43.15 29.78 C 42.88 29.87 42.35 30.05 42.08 30.14 C 41.77 27.09 40.21 24.44 38.08 22.30 C 38.32 24.73 38.68 27.16 39.25 29.54 L 39.80 30.07 C 41.45 31.63 43.05 33.24 44.65 34.86 C 43.85 35.60 43.04 36.35 42.24 37.09 C 41.26 36.70 40.28 36.31 39.29 35.92 C 38.21 39.58 37.65 43.45 38.90 47.15 C 41.96 46.78 45.00 46.32 48.03 45.78 C 51.02 45.02 54.05 45.27 57.03 45.92 C 60.79 45.56 64.42 44.46 68.10 43.66 L 68.07 44.68 C 65.65 45.28 63.27 46.02 60.86 46.64 C 57.78 47.54 54.59 46.64 51.45 46.69 C 47.85 46.91 44.34 47.79 40.78 48.28 C 43.68 51.52 47.38 53.99 51.74 54.66 C 53.85 55.46 56.57 55.14 57.70 52.97 C 61.25 51.42 64.57 49.44 67.95 47.55 C 67.06 49.92 65.53 51.99 63.57 53.57 C 59.46 56.90 54.66 60.44 49.05 59.62 C 49.77 61.99 50.85 64.34 50.85 66.86 C 50.34 70.23 47.76 72.73 46.48 75.77 C 47.23 78.38 48.71 80.68 49.94 83.07 C 49.47 83.11 48.51 83.19 48.03 83.23 C 47.46 83.00 46.32 82.54 45.75 82.31 L 45.10 82.20 C 44.87 80.78 44.04 80.03 42.60 79.96 C 42.51 79.62 42.32 78.95 42.22 78.61 C 42.04 77.15 41.87 75.68 41.65 74.22 C 41.30 74.18 40.60 74.08 40.25 74.04 C 40.83 73.81 42.00 73.35 42.58 73.12 C 42.49 72.42 42.32 71.02 42.24 70.32 C 41.37 69.24 40.52 68.14 39.68 67.04 C 38.64 70.00 37.58 72.95 36.39 75.85 C 36.95 75.66 38.08 75.29 38.64 75.10 C 36.97 76.93 35.46 78.89 34.01 80.90 L 33.73 80.53 L 33.14 80.36 L 32.45 80.51 L 32.36 80.45 C 30.87 78.71 28.82 80.96 30.14 82.57 L 29.24 83.05 C 29.31 82.52 29.47 81.45 29.55 80.92 C 27.20 81.17 26.31 79.11 25.38 77.41 C 25.49 74.70 25.06 71.89 26.02 69.29 C 26.82 68.12 27.59 66.94 28.38 65.77 C 28.21 66.23 27.86 67.16 27.69 67.62 C 26.61 70.24 26.14 73.05 26.06 75.87 C 26.58 75.79 27.61 75.63 28.12 75.55 C 29.29 73.75 30.84 72.29 32.76 71.33 C 32.96 72.37 33.36 74.46 33.56 75.50 C 37.74 73.39 38.50 68.19 38.67 63.97 C 36.88 62.84 35.00 61.85 33.12 60.88 C 34.05 57.26 36.84 61.20 38.72 61.67 C 39.15 58.95 36.47 57.46 35.17 55.47 C 35.44 54.37 35.72 53.27 35.99 52.17 C 36.67 51.43 37.36 50.71 38.07 50.00 C 37.41 51.46 36.57 52.93 36.47 54.56 C 37.56 55.86 38.85 56.97 40.10 58.13 C 41.23 56.60 42.35 55.07 43.47 53.53 C 42.32 52.08 41.16 50.62 40.07 49.12 L 39.42 48.00 C 38.74 47.61 38.07 47.23 37.39 46.84 C 36.69 41.85 38.45 37.27 39.77 32.57 L 38.42 32.81 C 38.86 29.89 36.81 27.40 37.45 24.48 L 36.48 24.80 C 36.61 22.62 35.37 20.83 34.22 19.10 M 44.45 54.12 C 43.04 56.80 41.25 59.30 40.15 62.14 C 39.41 65.95 42.41 69.85 46.06 70.77 C 47.80 70.05 49.10 68.51 49.86 66.83 C 50.48 61.72 44.81 58.92 44.75 54.00 L 44.45 54.12 M 31.85 75.57 C 31.85 75.02 31.85 73.93 31.85 73.38 C 29.77 72.21 29.78 76.89 31.85 75.57 M 27.23 77.06 C 26.84 78.66 27.44 79.23 29.04 78.78 C 29.46 77.16 28.86 76.58 27.23 77.06 Z" />
<path fill="#6893b7" opacity="1.00" d=" M 55.38 26.35 L 55.57 26.37 L 55.52 26.42 C 55.48 26.40 55.41 26.36 55.38 26.35 Z" />
<path fill="#6893b7" opacity="1.00" d=" M 57.68 41.84 C 58.74 41.20 59.89 40.86 61.15 40.81 L 61.75 41.15 C 60.85 42.35 59.55 42.69 57.84 42.17 L 57.68 41.84 Z" />
<path fill="#6893b7" opacity="1.00" d=" M 87.75 70.99 C 89.61 71.01 91.46 71.04 93.32 71.09 C 92.81 73.19 91.92 75.16 90.82 77.01 C 89.92 75.84 89.01 74.68 88.11 73.52 C 88.02 72.88 87.84 71.62 87.75 70.99 Z" />
<path fill="#6893b7" opacity="1.00" d=" M 70.85 75.54 L 71.25 75.82 C 74.92 78.93 79.48 80.85 84.36 80.22 C 83.45 81.65 82.56 83.18 81.06 84.09 C 79.81 83.28 78.74 82.22 77.67 81.20 C 77.11 81.06 75.99 80.78 75.43 80.63 C 74.36 79.93 73.30 79.22 72.23 78.53 C 71.77 77.53 71.31 76.53 70.85 75.54 Z" />
<path fill="#6893b7" opacity="1.00" d=" M 42.44 84.50 L 43.20 84.33 L 43.47 85.09 C 43.54 85.24 43.66 85.54 43.72 85.69 L 44.00 86.29 C 44.27 86.69 44.81 87.49 45.08 87.88 C 45.43 88.24 46.12 88.95 46.46 89.30 L 46.57 89.41 L 46.70 89.51 L 46.89 89.65 C 48.77 91.08 50.58 92.58 52.38 94.10 C 52.52 95.96 52.74 97.82 52.74 99.70 C 50.65 100.02 48.54 100.09 46.43 100.07 C 44.49 97.83 41.83 96.43 38.85 96.27 C 40.64 96.10 42.44 95.99 44.24 95.88 L 44.20 94.99 C 42.28 94.94 40.37 94.90 38.45 94.85 C 37.60 93.30 36.73 91.77 35.90 90.22 C 36.92 90.26 37.95 90.31 38.97 90.36 C 39.86 88.28 40.05 85.46 42.44 84.50 M 47.46 96.07 C 47.61 97.44 48.30 97.69 49.53 96.82 C 49.37 95.45 48.68 95.20 47.46 96.07 Z" />
<path fill="#6893b7" opacity="1.00" d=" M 73.63 87.18 C 74.00 86.90 74.73 86.33 75.10 86.04 C 75.15 87.68 75.19 89.32 75.23 90.95 C 76.82 92.24 78.27 93.80 80.20 94.57 C 83.58 95.34 86.77 93.65 89.68 92.17 C 89.71 92.82 89.76 94.13 89.78 94.79 L 88.87 95.43 C 85.30 98.19 80.42 96.62 76.27 96.86 C 74.95 95.25 73.62 93.65 72.24 92.09 C 72.58 90.89 72.92 89.68 73.28 88.48 C 73.31 88.35 73.38 88.10 73.42 87.97 L 73.63 87.18 Z" />
</g>
<g id="#a7d4f5ff">
<path fill="#a7d4f5" opacity="1.00" d=" M 35.95 18.98 C 40.45 20.04 42.75 24.01 45.32 27.43 C 45.16 28.59 44.52 29.16 43.41 29.12 C 41.14 25.59 38.85 22.05 35.95 18.98 Z" />
<path fill="#a7d4f5" opacity="1.00" d=" M 52.70 25.21 C 53.25 23.14 54.08 21.14 55.28 19.36 C 55.94 21.19 56.56 23.03 57.33 24.82 C 56.89 25.21 56.01 25.99 55.57 26.37 L 55.38 26.35 C 54.71 26.06 53.37 25.50 52.70 25.21 Z" />
<path fill="#a7d4f5" opacity="1.00" d=" M 45.97 28.24 C 46.40 28.07 47.26 27.71 47.69 27.53 C 51.70 27.76 56.57 27.26 59.52 30.58 C 61.70 32.99 63.52 35.83 64.35 38.99 C 64.23 42.92 60.39 45.04 57.03 45.92 C 54.05 45.27 51.02 45.02 48.03 45.78 C 44.23 45.25 41.52 42.49 40.15 39.04 C 40.67 38.55 41.72 37.58 42.24 37.09 C 43.04 36.35 43.85 35.60 44.65 34.86 C 43.05 33.24 41.45 31.63 39.80 30.07 L 42.08 30.14 C 42.35 30.05 42.88 29.87 43.15 29.78 C 43.89 29.85 45.38 29.99 46.12 30.06 C 46.08 29.60 46.01 28.70 45.97 28.24 M 51.26 36.29 C 50.00 37.07 48.76 40.25 50.62 40.78 C 51.45 39.77 52.30 37.14 51.26 36.29 M 53.00 40.29 C 52.99 40.94 52.98 42.22 52.97 42.86 C 54.03 42.42 56.57 43.51 56.78 42.07 L 57.68 41.84 L 57.84 42.17 C 59.55 42.69 60.85 42.35 61.75 41.15 L 61.15 40.81 C 61.03 40.48 60.79 39.81 60.67 39.47 C 60.48 38.24 60.26 37.00 60.02 35.77 C 56.87 35.67 54.92 38.22 53.00 40.29 Z" />
<path fill="#a7d4f5" opacity="1.00" d=" M 72.38 41.71 L 73.08 41.56 L 73.73 42.18 C 73.77 42.89 73.85 44.30 73.89 45.01 C 72.76 44.38 71.91 43.01 72.38 41.71 Z" />
<path fill="#a7d4f5" opacity="1.00" d=" M 73.21 47.26 C 76.11 46.65 78.98 47.33 81.73 48.22 C 82.69 49.14 83.66 50.06 84.64 50.97 C 82.69 51.97 80.67 54.17 78.31 53.03 C 75.60 52.25 74.75 49.28 73.21 47.26 Z" />
<path fill="#a7d4f5" opacity="1.00" d=" M 33.12 60.88 C 35.00 61.85 36.88 62.84 38.67 63.97 C 37.66 65.85 36.80 67.84 35.52 69.56 C 33.32 70.86 30.63 70.12 28.24 69.97 C 28.10 69.38 27.83 68.21 27.69 67.62 C 27.86 67.16 28.21 66.23 28.38 65.77 C 29.89 64.07 31.60 62.57 33.12 60.88 Z" />
<path fill="#a7d4f5" opacity="1.00" d=" M 80.31 63.35 C 81.65 62.94 82.98 62.49 84.30 62.01 C 85.22 62.77 86.13 63.53 87.06 64.29 C 87.06 66.09 87.11 67.90 87.00 69.70 C 85.61 71.96 84.36 75.51 81.08 75.11 C 77.89 75.07 76.26 72.08 74.72 69.78 C 76.38 67.47 78.16 65.23 80.31 63.35 Z" />
</g>
<g id="#786556ff">
<path fill="#786556" opacity="1.00" d=" M 68.82 19.77 C 70.77 19.27 72.77 19.04 74.76 18.81 C 75.17 19.38 75.98 20.52 76.39 21.09 C 78.77 23.75 79.65 27.25 79.99 30.71 C 79.57 31.05 78.72 31.71 78.30 32.04 C 78.47 32.58 78.80 33.68 78.96 34.23 C 75.76 35.93 72.22 37.01 68.57 36.29 C 68.63 36.75 68.76 37.68 68.83 38.14 C 67.22 36.28 65.40 34.63 63.56 33.01 C 64.60 30.70 65.62 28.19 67.81 26.72 C 69.94 24.98 72.86 25.14 75.43 24.66 C 73.69 22.46 71.36 20.91 68.82 19.77 Z" />
<path fill="#786556" opacity="1.00" d=" M 51.74 54.66 C 53.26 53.01 55.68 53.32 57.70 52.97 C 56.57 55.14 53.85 55.46 51.74 54.66 Z" />
<path fill="#786556" opacity="1.00" d=" M 63.52 56.57 L 63.68 56.46 L 63.54 56.56 L 63.39 56.66 L 63.52 56.57 Z" />
<path fill="#786556" opacity="1.00" d=" M 73.95 66.14 C 74.26 65.61 74.87 64.55 75.18 64.02 C 74.87 64.55 74.26 65.61 73.95 66.14 Z" />
<path fill="#786556" opacity="1.00" d=" M 55.99 66.99 C 54.53 66.33 54.54 65.69 56.02 65.08 C 56.02 65.55 56.00 66.51 55.99 66.99 Z" />
<path fill="#786556" opacity="1.00" d=" M 56.08 67.92 C 57.48 68.04 58.34 68.80 58.66 70.20 C 57.14 70.08 56.28 69.32 56.08 67.92 Z" />
<path fill="#786556" opacity="1.00" d=" M 59.24 70.34 C 59.36 70.36 59.58 70.41 59.69 70.43 L 59.46 70.40 L 59.24 70.34 Z" />
<path fill="#786556" opacity="1.00" d=" M 42.60 79.96 C 44.04 80.03 44.87 80.78 45.10 82.20 C 43.69 82.10 42.86 81.35 42.60 79.96 Z" />
<path fill="#786556" opacity="1.00" d=" M 42.44 84.50 C 41.46 83.56 41.38 82.53 42.19 81.38 C 42.44 82.12 42.94 83.59 43.20 84.33 L 42.44 84.50 Z" />
<path fill="#786556" opacity="1.00" d=" M 49.94 83.07 C 54.23 83.06 58.52 83.11 62.80 83.24 C 58.65 84.54 54.26 84.04 49.98 84.15 L 49.94 83.07 Z" />
<path fill="#786556" opacity="1.00" d=" M 44.00 86.29 C 45.51 84.78 47.43 87.48 45.08 87.88 C 44.81 87.49 44.27 86.69 44.00 86.29 Z" />
</g>
<g id="#ebe3beff">
<path fill="#ebe3be" opacity="1.00" d=" M 55.90 37.96 C 57.15 37.52 58.40 37.10 59.66 36.69 C 59.92 37.39 60.42 38.78 60.67 39.47 C 60.79 39.81 61.03 40.48 61.15 40.81 C 59.89 40.86 58.74 41.20 57.68 41.84 L 56.78 42.07 C 55.19 41.64 55.13 40.80 57.09 40.03 C 56.79 39.51 56.19 38.48 55.90 37.96 Z" />
<path fill="#ebe3be" opacity="1.00" d=" M 60.86 46.64 C 63.27 46.02 65.65 45.28 68.07 44.68 C 68.04 45.40 67.98 46.83 67.95 47.55 C 64.57 49.44 61.25 51.42 57.70 52.97 C 55.68 53.32 53.26 53.01 51.74 54.66 C 47.38 53.99 43.68 51.52 40.78 48.28 C 44.34 47.79 47.85 46.91 51.45 46.69 C 54.59 46.64 57.78 47.54 60.86 46.64 Z" />
<path fill="#ebe3be" opacity="1.00" d=" M 63.93 56.29 C 65.97 55.07 67.87 53.64 69.79 52.24 L 70.85 52.60 C 72.12 56.02 73.85 59.26 75.03 62.72 L 75.18 64.02 C 74.87 64.55 74.26 65.61 73.95 66.14 C 73.14 67.17 72.33 68.20 71.51 69.22 C 71.42 69.30 71.22 69.45 71.13 69.53 L 70.60 69.82 C 69.94 70.04 68.62 70.49 67.97 70.72 C 67.18 70.72 65.61 70.71 64.82 70.71 C 64.37 70.78 63.47 70.92 63.02 70.99 C 62.19 70.85 60.52 70.57 59.69 70.43 C 59.58 70.41 59.36 70.36 59.24 70.34 L 58.66 70.20 C 58.34 68.80 57.48 68.04 56.08 67.92 L 55.99 66.99 C 56.00 66.51 56.02 65.55 56.02 65.08 C 55.97 64.59 55.88 63.62 55.83 63.13 C 57.17 63.09 57.94 62.33 58.13 60.87 C 58.24 60.63 58.46 60.15 58.57 59.91 C 59.98 60.00 60.92 59.38 61.38 58.05 C 61.88 57.70 62.89 57.01 63.39 56.66 L 63.54 56.56 L 63.68 56.46 L 63.93 56.29 Z" />
<path fill="#ebe3be" opacity="1.00" d=" M 44.45 54.12 L 44.75 54.00 C 44.81 58.92 50.48 61.72 49.86 66.83 C 49.10 68.51 47.80 70.05 46.06 70.77 C 42.41 69.85 39.41 65.95 40.15 62.14 C 41.25 59.30 43.04 56.80 44.45 54.12 Z" />
<path fill="#ebe3be" opacity="1.00" d=" M 31.85 75.57 C 29.78 76.89 29.77 72.21 31.85 73.38 C 31.85 73.93 31.85 75.02 31.85 75.57 Z" />
<path fill="#ebe3be" opacity="1.00" d=" M 27.23 77.06 C 28.86 76.58 29.46 77.16 29.04 78.78 C 27.44 79.23 26.84 78.66 27.23 77.06 Z" />
<path fill="#ebe3be" opacity="1.00" d=" M 42.22 78.61 C 42.32 78.95 42.51 79.62 42.60 79.96 C 42.86 81.35 43.69 82.10 45.10 82.20 L 45.75 82.31 C 46.32 82.54 47.46 83.00 48.03 83.23 C 48.51 83.19 49.47 83.11 49.94 83.07 L 49.98 84.15 C 54.26 84.04 58.65 84.54 62.80 83.24 C 63.17 83.19 63.90 83.09 64.26 83.04 C 67.57 82.62 70.85 82.01 74.10 81.25 C 74.07 82.15 74.02 83.94 73.99 84.84 C 72.32 85.94 70.62 87.01 68.92 88.06 C 70.47 87.70 72.04 87.38 73.63 87.18 L 73.42 87.97 C 73.38 88.10 73.31 88.35 73.28 88.48 C 72.92 89.68 72.58 90.89 72.24 92.09 C 69.14 93.58 65.73 95.05 62.21 94.53 C 58.42 93.99 54.74 92.89 51.10 91.72 C 51.23 91.01 51.49 89.58 51.62 88.87 C 50.05 89.18 48.47 89.44 46.89 89.65 L 46.70 89.51 C 46.64 89.45 46.52 89.35 46.46 89.30 C 46.12 88.95 45.43 88.24 45.08 87.88 C 47.43 87.48 45.51 84.78 44.00 86.29 L 43.72 85.69 C 43.66 85.54 43.54 85.24 43.47 85.09 L 43.20 84.33 C 42.94 83.59 42.44 82.12 42.19 81.38 C 42.19 80.69 42.21 79.31 42.22 78.61 M 48.22 88.27 C 48.82 88.81 48.82 88.81 48.22 88.27 M 67.26 88.17 C 67.47 91.48 70.26 86.60 67.26 88.17 M 52.46 89.78 L 52.38 91.37 C 57.21 90.88 62.89 91.96 67.01 88.94 C 62.23 90.01 57.33 89.92 52.46 89.78 Z" />
<path fill="#ebe3be" opacity="1.00" d=" M 30.14 82.57 C 28.82 80.96 30.87 78.71 32.36 80.45 C 32.42 82.27 31.68 82.98 30.14 82.57 Z" />
<path fill="#ebe3be" opacity="1.00" d=" M 70.33 80.20 C 71.58 79.32 72.37 79.51 72.70 80.78 C 71.44 81.64 70.65 81.45 70.33 80.20 Z" />
<path fill="#ebe3be" opacity="1.00" d=" M 75.25 82.39 C 76.11 81.41 78.19 82.47 77.71 83.73 C 76.98 84.61 76.12 84.87 75.12 84.54 C 75.16 84.00 75.22 82.93 75.25 82.39 Z" />
<path fill="#ebe3be" opacity="1.00" d=" M 78.27 85.09 C 81.34 83.55 78.47 88.36 78.27 85.09 Z" />
<path fill="#ebe3be" opacity="1.00" d=" M 31.97 99.18 C 32.35 99.04 33.12 98.76 33.51 98.61 C 33.83 98.92 34.46 99.52 34.78 99.82 C 33.61 100.45 32.68 100.23 31.97 99.18 Z" />
<path fill="#ebe3be" opacity="1.00" d=" M 39.18 100.24 C 39.45 98.89 40.24 98.56 41.55 99.25 C 41.23 100.56 40.44 100.88 39.18 100.24 Z" />
<path fill="#ebe3be" opacity="1.00" d=" M 75.21 100.41 C 76.92 98.75 77.83 102.47 75.80 102.58 L 75.08 102.25 C 75.11 101.79 75.18 100.87 75.21 100.41 Z" />
<path fill="#ebe3be" opacity="1.00" d=" M 85.16 100.47 C 86.49 100.28 87.04 100.91 86.79 102.35 C 85.44 102.55 84.90 101.92 85.16 100.47 Z" />
</g>
</svg>
