<?xml version="1.0" encoding="UTF-8" ?>
<!DOCTYPE svg PUBLIC "-//W3C//DTD SVG 1.1//EN" "http://www.w3.org/Graphics/SVG/1.1/DTD/svg11.dtd">
<svg width="120pt" height="120pt" viewBox="0 0 120 120" version="1.1" xmlns="http://www.w3.org/2000/svg">
<g id="#07857fff">
<path fill="#07857f" opacity="1.00" d=" M 58.25 39.57 C 61.07 36.74 59.82 31.52 63.61 29.60 C 63.74 31.04 63.87 32.48 63.99 33.92 L 62.93 33.55 C 63.03 32.92 63.23 31.65 63.32 31.01 L 62.27 31.00 C 61.99 32.19 61.70 33.38 61.40 34.57 C 60.48 37.12 59.60 39.70 58.41 42.15 C 58.37 41.50 58.29 40.21 58.25 39.57 Z" />
<path fill="#07857f" opacity="1.00" d=" M 62.38 46.73 C 62.02 42.67 61.94 38.52 62.72 34.50 C 62.86 38.45 62.86 42.40 62.76 46.35 C 63.38 46.31 64.62 46.24 65.24 46.20 C 64.97 46.59 64.44 47.36 64.17 47.75 C 63.55 47.45 62.95 47.11 62.38 46.73 Z" />
<path fill="#07857f" opacity="1.00" d=" M 31.08 44.15 C 31.41 41.04 32.33 37.88 34.75 35.74 C 34.98 37.71 35.47 39.63 36.05 41.52 C 37.65 44.49 39.06 47.57 40.69 50.53 C 40.87 52.55 40.34 54.96 42.36 56.25 C 43.95 56.61 45.32 55.61 46.69 54.99 C 47.63 54.03 48.73 53.27 50.04 52.91 C 50.96 48.55 52.84 44.43 53.28 39.96 C 53.38 37.93 54.48 36.21 55.71 34.67 C 55.48 35.38 55.02 36.81 54.79 37.53 L 54.42 38.75 C 53.31 43.58 53.02 48.87 50.29 53.13 C 44.60 57.95 36.67 59.43 29.38 59.07 C 32.11 61.97 35.79 63.85 38.14 67.11 C 36.74 66.44 35.34 65.76 33.97 65.05 C 34.21 68.41 34.36 71.87 33.19 75.10 C 33.27 71.53 33.30 67.96 33.26 64.39 C 31.42 62.68 29.62 60.92 27.84 59.14 C 29.72 58.09 31.86 58.22 33.93 58.23 C 33.09 57.37 32.25 56.51 31.43 55.64 C 31.22 54.54 30.95 53.47 30.61 52.40 C 30.24 51.37 29.82 50.37 29.35 49.38 C 29.28 47.94 29.25 46.50 29.21 45.05 L 29.81 45.18 C 30.69 49.18 31.15 53.72 34.03 56.87 C 35.85 58.94 38.66 57.39 40.85 57.02 C 40.24 49.96 35.45 44.38 33.70 37.65 C 33.06 39.64 32.49 41.66 31.70 43.60 L 31.08 44.15 Z" />
<path fill="#07857f" opacity="1.00" d=" M 82.57 39.45 C 85.57 38.94 88.05 37.10 90.73 35.79 C 90.77 36.64 90.84 38.34 90.88 39.19 L 89.37 38.50 C 89.68 38.08 90.29 37.22 90.60 36.80 C 86.67 38.86 82.58 40.56 78.50 42.29 C 75.56 43.77 72.35 44.57 69.42 46.05 C 68.92 45.94 67.91 45.74 67.41 45.64 L 67.50 45.00 C 67.64 44.46 67.91 43.37 68.04 42.83 C 71.06 46.03 75.24 42.80 78.47 41.54 C 79.84 40.85 81.18 40.11 82.57 39.45 Z" />
<path fill="#07857f" opacity="1.00" d=" M 82.43 43.74 C 84.01 42.73 85.61 41.77 87.20 40.76 C 86.22 41.96 85.20 43.13 84.21 44.31 C 85.13 44.29 86.99 44.25 87.92 44.23 C 87.96 44.66 88.05 45.50 88.09 45.93 L 87.77 45.81 C 85.99 45.11 84.21 44.43 82.43 43.74 Z" />
<path fill="#07857f" opacity="1.00" d=" M 75.87 45.77 C 77.38 45.52 78.88 45.23 80.37 44.90 C 79.85 46.95 79.39 49.01 79.01 51.09 L 80.79 49.94 C 80.38 51.02 79.96 52.10 79.53 53.18 L 78.84 52.68 C 78.79 52.64 78.70 52.58 78.66 52.55 L 78.70 52.71 L 79.19 54.39 L 78.25 54.50 L 77.77 54.56 L 77.81 55.02 C 77.84 55.40 77.89 56.16 77.92 56.54 C 79.22 58.16 80.43 59.85 81.68 61.51 C 81.78 62.00 81.98 62.98 82.08 63.47 C 82.86 65.76 83.37 68.14 84.09 70.46 C 85.10 73.47 85.01 76.80 86.71 79.60 C 86.83 82.38 86.84 85.16 86.87 87.94 C 84.27 87.87 81.67 87.94 79.07 87.79 C 77.25 87.88 77.11 85.60 77.20 84.31 C 76.64 84.71 75.51 85.49 74.95 85.89 C 75.11 83.01 74.32 80.22 73.86 77.41 L 74.18 76.08 C 69.46 77.26 66.59 81.41 64.04 85.21 C 65.09 85.97 66.14 86.71 67.20 87.45 C 67.98 87.98 68.77 88.51 69.56 89.03 C 69.47 88.47 69.30 87.33 69.21 86.77 L 70.58 87.55 C 70.76 87.84 71.12 88.42 71.31 88.71 C 72.89 88.48 73.84 86.87 74.95 85.89 C 74.91 87.24 74.89 88.60 74.89 89.96 C 71.65 89.90 68.40 89.89 65.16 89.89 C 65.22 89.09 65.32 87.47 65.38 86.67 C 61.19 86.84 57.01 86.86 52.82 86.99 C 53.86 85.88 54.89 84.76 55.89 83.62 C 53.66 83.87 51.48 84.38 49.33 84.98 C 48.90 85.43 48.05 86.34 47.63 86.79 C 47.04 86.83 45.86 86.91 45.27 86.95 C 46.39 86.28 47.52 85.62 48.66 84.98 C 45.70 84.06 42.62 83.53 39.52 83.73 C 38.01 83.58 36.59 84.52 36.04 85.90 C 37.02 86.41 38.28 86.95 39.30 86.22 C 40.50 87.52 42.10 88.23 43.75 88.75 C 40.51 88.83 37.28 88.92 34.05 88.93 L 34.71 87.55 L 35.31 88.21 C 35.67 88.07 36.37 87.80 36.73 87.67 C 36.34 87.47 35.58 87.07 35.19 86.87 C 35.08 85.94 35.42 85.08 36.23 84.28 C 36.29 82.68 36.35 81.09 36.41 79.49 C 34.27 78.01 31.18 76.84 32.20 73.60 L 33.19 75.10 C 33.50 75.81 33.81 76.53 34.12 77.25 C 35.43 77.20 36.73 77.16 38.03 77.11 C 38.57 75.88 39.10 74.66 39.66 73.44 C 39.48 74.07 39.12 75.34 38.94 75.98 C 40.31 76.28 41.68 76.60 43.05 76.93 C 46.57 75.78 50.12 74.47 53.86 74.33 C 55.91 74.79 57.77 75.81 59.70 76.61 C 60.32 75.99 60.93 75.36 61.54 74.73 C 60.04 70.56 59.07 66.20 59.12 61.75 C 58.40 62.28 56.97 63.35 56.25 63.88 C 57.39 61.01 58.89 58.23 61.17 56.10 C 65.43 51.88 70.08 47.71 75.87 45.77 M 77.60 57.79 C 76.63 58.83 75.66 59.88 74.69 60.92 C 74.15 61.02 73.09 61.21 72.56 61.30 C 71.24 61.72 69.90 62.04 68.56 62.36 C 67.52 62.65 66.48 62.93 65.44 63.22 C 63.87 64.03 62.43 65.06 61.14 66.27 C 61.08 69.71 61.93 73.06 62.53 76.42 C 61.68 76.90 60.81 77.36 59.94 77.79 C 57.65 76.72 55.30 75.79 52.88 75.08 C 52.60 75.29 52.03 75.72 51.75 75.94 L 52.25 76.73 L 53.10 76.68 C 53.21 77.28 53.43 78.48 53.54 79.08 C 52.73 78.58 51.91 78.08 51.09 77.58 C 48.18 79.90 44.43 80.72 41.50 82.98 C 46.68 83.78 51.09 80.00 56.20 80.38 C 55.05 80.60 52.77 81.05 51.62 81.28 C 54.03 83.96 57.70 83.26 60.89 83.11 C 61.46 80.62 62.36 78.24 63.32 75.88 C 65.22 72.82 67.84 70.36 71.06 68.72 C 73.65 70.47 74.48 73.51 75.57 76.26 C 75.99 75.54 76.84 74.09 77.27 73.37 C 77.41 76.26 73.55 77.36 74.51 80.47 C 76.17 80.05 77.82 79.56 79.46 79.04 C 78.12 80.08 76.71 81.02 75.26 81.88 C 76.53 83.30 77.75 84.76 78.94 86.24 C 80.42 86.41 81.86 86.79 83.21 87.44 C 84.34 86.48 85.45 85.51 86.57 84.55 L 85.93 83.75 C 86.91 82.40 86.45 79.84 84.82 79.21 L 85.85 77.90 C 85.31 77.42 84.23 76.45 83.68 75.97 C 82.30 76.74 81.06 77.73 79.78 78.65 C 80.77 76.77 82.45 75.55 84.39 74.76 C 83.74 72.07 82.95 69.40 81.99 66.80 C 81.83 63.54 79.37 60.54 77.60 57.79 M 70.53 69.85 C 67.83 71.50 65.17 73.55 64.35 76.78 L 64.06 76.23 C 63.21 78.13 62.30 80.01 61.72 82.01 C 62.32 82.92 62.96 83.79 63.63 84.65 C 64.54 83.26 65.44 81.88 66.30 80.47 C 68.37 78.37 70.98 76.86 72.95 74.67 C 74.10 72.59 71.58 71.28 70.53 69.85 M 40.19 78.47 C 40.11 79.79 40.04 81.11 39.97 82.43 C 42.20 81.53 44.32 80.35 46.65 79.70 C 48.23 78.54 49.80 77.36 51.30 76.09 C 47.44 76.05 43.91 77.74 40.19 78.47 M 37.40 81.31 C 37.88 81.73 37.88 81.73 37.40 81.31 M 47.39 83.28 C 47.23 84.75 50.79 84.71 50.66 83.26 C 49.57 82.52 48.48 82.53 47.39 83.28 M 55.84 83.97 C 56.14 84.58 56.75 85.81 57.05 86.42 C 57.50 86.15 58.41 85.60 58.86 85.32 C 60.44 86.07 62.14 86.40 63.89 86.43 C 62.44 82.98 58.83 83.70 55.84 83.97 Z" />
<path fill="#07857f" opacity="1.00" d=" M 83.35 46.95 C 83.73 46.90 84.49 46.79 84.87 46.74 L 84.84 47.60 L 83.96 48.10 L 83.14 47.67 L 83.35 46.95 Z" />
<path fill="#07857f" opacity="1.00" d=" M 51.23 68.29 C 51.74 68.79 51.74 68.79 51.23 68.29 Z" />
<path fill="#07857f" opacity="1.00" d=" M 57.35 79.07 C 60.28 77.46 57.56 82.41 57.35 79.07 Z" />
</g>
<g id="#dcaddbff">
<path fill="#dcaddb" opacity="1.00" d=" M 62.27 31.00 L 63.32 31.01 C 63.23 31.65 63.03 32.92 62.93 33.55 L 62.72 34.50 C 61.94 38.52 62.02 42.67 62.38 46.73 C 62.95 47.11 63.55 47.45 64.17 47.75 C 64.44 47.36 64.97 46.59 65.24 46.20 L 65.60 45.67 C 66.08 45.50 67.03 45.17 67.50 45.00 L 67.41 45.64 C 67.91 45.74 68.92 45.94 69.42 46.05 C 72.35 44.57 75.56 43.77 78.50 42.29 C 82.58 40.56 86.67 38.86 90.60 36.80 C 90.29 37.22 89.68 38.08 89.37 38.50 C 88.74 39.34 88.06 40.16 87.20 40.76 C 85.61 41.77 84.01 42.73 82.43 43.74 C 84.21 44.43 85.99 45.11 87.77 45.81 C 87.05 46.04 85.60 46.51 84.87 46.74 C 84.49 46.79 83.73 46.90 83.35 46.95 L 83.14 47.67 C 82.54 48.62 81.76 49.37 80.79 49.94 L 79.01 51.09 C 79.39 49.01 79.85 46.95 80.37 44.90 C 78.88 45.23 77.38 45.52 75.87 45.77 C 70.08 47.71 65.43 51.88 61.17 56.10 C 58.89 58.23 57.39 61.01 56.25 63.88 C 56.97 63.35 58.40 62.28 59.12 61.75 C 59.07 66.20 60.04 70.56 61.54 74.73 C 60.93 75.36 60.32 75.99 59.70 76.61 C 57.77 75.81 55.91 74.79 53.86 74.33 C 50.12 74.47 46.57 75.78 43.05 76.93 C 41.68 76.60 40.31 76.28 38.94 75.98 C 39.12 75.34 39.48 74.07 39.66 73.44 C 39.10 74.66 38.57 75.88 38.03 77.11 C 36.73 77.16 35.43 77.20 34.12 77.25 C 33.81 76.53 33.50 75.81 33.19 75.10 C 34.36 71.87 34.21 68.41 33.97 65.05 C 35.34 65.76 36.74 66.44 38.14 67.11 C 35.79 63.85 32.11 61.97 29.38 59.07 C 36.67 59.43 44.60 57.95 50.29 53.13 C 53.02 48.87 53.31 43.58 54.42 38.75 L 54.79 37.53 C 55.65 41.25 54.63 46.17 57.76 48.89 C 57.60 47.77 57.44 46.64 57.27 45.52 L 57.68 45.76 C 57.63 45.01 57.54 43.49 57.50 42.74 L 58.41 42.15 C 59.60 39.70 60.48 37.12 61.40 34.57 C 61.70 33.38 61.99 32.19 62.27 31.00 M 54.86 59.65 C 57.49 57.67 58.66 54.30 61.52 52.59 C 63.91 51.00 66.15 49.10 67.48 46.50 C 62.76 50.19 56.48 53.43 54.86 59.65 M 50.39 57.12 C 50.28 58.48 52.64 59.36 53.76 58.79 C 54.07 57.25 51.52 56.38 50.39 57.12 M 43.30 58.26 C 43.75 58.71 43.75 58.71 43.30 58.26 M 44.22 70.82 C 45.79 70.32 46.73 67.77 46.75 66.19 C 44.90 66.23 43.44 69.19 44.22 70.82 M 51.23 68.29 C 51.74 68.79 51.74 68.79 51.23 68.29 M 47.28 71.82 C 48.42 72.48 50.65 71.80 50.64 70.32 C 49.85 68.65 46.80 70.31 47.28 71.82 Z" />
<path fill="#dcaddb" opacity="1.00" d=" M 31.70 43.60 C 32.49 41.66 33.06 39.64 33.70 37.65 C 35.45 44.38 40.24 49.96 40.85 57.02 C 38.66 57.39 35.85 58.94 34.03 56.87 C 31.15 53.72 30.69 49.18 29.81 45.18 C 30.13 44.92 30.77 44.41 31.08 44.15 L 31.70 43.60 Z" />
<path fill="#dcaddb" opacity="1.00" d=" M 77.60 57.79 C 79.37 60.54 81.83 63.54 81.99 66.80 C 79.77 68.46 78.07 70.69 77.27 73.37 C 76.84 74.09 75.99 75.54 75.57 76.26 C 74.48 73.51 73.65 70.47 71.06 68.72 C 67.84 70.36 65.22 72.82 63.32 75.88 L 62.53 76.42 C 61.93 73.06 61.08 69.71 61.14 66.27 C 62.43 65.06 63.87 64.03 65.44 63.22 C 66.48 62.93 67.52 62.65 68.56 62.36 C 69.90 62.04 71.24 61.72 72.56 61.30 C 73.09 61.21 74.15 61.02 74.69 60.92 C 75.66 59.88 76.63 58.83 77.60 57.79 M 76.00 59.61 C 76.38 62.55 76.73 65.49 76.86 68.45 L 78.35 68.37 C 78.32 65.32 78.96 61.59 76.00 59.61 M 70.75 62.45 C 70.86 64.94 69.71 68.80 73.36 69.05 C 73.11 66.68 74.08 62.99 70.75 62.45 M 75.37 71.33 C 75.77 71.75 75.77 71.75 75.37 71.33 Z" />
<path fill="#dcaddb" opacity="1.00" d=" M 70.53 69.85 C 71.58 71.28 74.10 72.59 72.95 74.67 C 70.98 76.86 68.37 78.37 66.30 80.47 C 65.65 79.24 65.00 78.01 64.35 76.78 C 65.17 73.55 67.83 71.50 70.53 69.85 Z" />
<path fill="#dcaddb" opacity="1.00" d=" M 51.75 75.94 C 52.03 75.72 52.60 75.29 52.88 75.08 C 52.94 75.48 53.04 76.28 53.10 76.68 L 52.25 76.73 L 51.75 75.94 Z" />
<path fill="#dcaddb" opacity="1.00" d=" M 40.19 78.47 C 43.91 77.74 47.44 76.05 51.30 76.09 C 49.80 77.36 48.23 78.54 46.65 79.70 C 44.32 80.35 42.20 81.53 39.97 82.43 C 40.04 81.11 40.11 79.79 40.19 78.47 Z" />
<path fill="#dcaddb" opacity="1.00" d=" M 69.61 79.92 C 71.02 79.08 72.46 78.27 73.86 77.41 C 74.32 80.22 75.11 83.01 74.95 85.89 C 73.84 86.87 72.89 88.48 71.31 88.71 C 71.12 88.42 70.76 87.84 70.58 87.55 L 69.21 86.77 C 69.30 87.33 69.47 88.47 69.56 89.03 C 68.77 88.51 67.98 87.98 67.20 87.45 C 67.19 86.72 67.19 85.25 67.18 84.51 C 67.73 84.58 68.83 84.73 69.38 84.80 C 68.91 83.67 68.45 82.54 67.98 81.42 C 68.95 81.89 69.92 82.37 70.88 82.84 C 71.18 82.48 71.78 81.76 72.08 81.40 C 71.46 81.03 70.23 80.29 69.61 79.92 Z" />
<path fill="#dcaddb" opacity="1.00" d=" M 85.93 83.75 C 84.96 82.56 83.51 80.65 84.82 79.21 C 86.45 79.84 86.91 82.40 85.93 83.75 Z" />
<path fill="#dcaddb" opacity="1.00" d=" M 36.04 85.90 C 36.59 84.52 38.01 83.58 39.52 83.73 C 39.46 84.36 39.36 85.60 39.30 86.22 C 38.28 86.95 37.02 86.41 36.04 85.90 Z" />
</g>
<g id="#a373a1ff">
<path fill="#a373a1" opacity="1.00" d=" M 55.71 34.67 C 55.57 38.47 56.13 42.27 57.68 45.76 L 57.27 45.52 C 57.44 46.64 57.60 47.77 57.76 48.89 C 54.63 46.17 55.65 41.25 54.79 37.53 C 55.02 36.81 55.48 35.38 55.71 34.67 Z" />
<path fill="#a373a1" opacity="1.00" d=" M 54.86 59.65 C 56.48 53.43 62.76 50.19 67.48 46.50 C 66.15 49.10 63.91 51.00 61.52 52.59 C 58.66 54.30 57.49 57.67 54.86 59.65 Z" />
<path fill="#a373a1" opacity="1.00" d=" M 78.66 52.55 C 78.70 52.58 78.79 52.64 78.84 52.68 L 78.70 52.71 L 78.66 52.55 Z" />
<path fill="#a373a1" opacity="1.00" d=" M 78.25 54.50 C 78.14 54.63 77.92 54.89 77.81 55.02 L 77.77 54.56 L 78.25 54.50 Z" />
<path fill="#a373a1" opacity="1.00" d=" M 50.39 57.12 C 51.52 56.38 54.07 57.25 53.76 58.79 C 52.64 59.36 50.28 58.48 50.39 57.12 Z" />
<path fill="#a373a1" opacity="1.00" d=" M 43.30 58.26 C 43.75 58.71 43.75 58.71 43.30 58.26 Z" />
<path fill="#a373a1" opacity="1.00" d=" M 76.00 59.61 C 78.96 61.59 78.32 65.32 78.35 68.37 L 76.86 68.45 C 76.73 65.49 76.38 62.55 76.00 59.61 Z" />
<path fill="#a373a1" opacity="1.00" d=" M 70.75 62.45 C 74.08 62.99 73.11 66.68 73.36 69.05 C 69.71 68.80 70.86 64.94 70.75 62.45 Z" />
<path fill="#a373a1" opacity="1.00" d=" M 44.22 70.82 C 43.44 69.19 44.90 66.23 46.75 66.19 C 46.73 67.77 45.79 70.32 44.22 70.82 Z" />
<path fill="#a373a1" opacity="1.00" d=" M 77.27 73.37 C 78.07 70.69 79.77 68.46 81.99 66.80 C 82.95 69.40 83.74 72.07 84.39 74.76 C 82.45 75.55 80.77 76.77 79.78 78.65 C 81.06 77.73 82.30 76.74 83.68 75.97 C 84.23 76.45 85.31 77.42 85.85 77.90 L 84.82 79.21 C 83.51 80.65 84.96 82.56 85.93 83.75 L 86.57 84.55 C 85.45 85.51 84.34 86.48 83.21 87.44 C 81.86 86.79 80.42 86.41 78.94 86.24 C 77.75 84.76 76.53 83.30 75.26 81.88 C 76.71 81.02 78.12 80.08 79.46 79.04 C 77.82 79.56 76.17 80.05 74.51 80.47 C 73.55 77.36 77.41 76.26 77.27 73.37 Z" />
<path fill="#a373a1" opacity="1.00" d=" M 47.28 71.82 C 46.80 70.31 49.85 68.65 50.64 70.32 C 50.65 71.80 48.42 72.48 47.28 71.82 Z" />
<path fill="#a373a1" opacity="1.00" d=" M 75.37 71.33 C 75.77 71.75 75.77 71.75 75.37 71.33 Z" />
<path fill="#a373a1" opacity="1.00" d=" M 52.88 75.08 C 55.30 75.79 57.65 76.72 59.94 77.79 C 60.81 77.36 61.68 76.90 62.53 76.42 L 63.32 75.88 C 62.36 78.24 61.46 80.62 60.89 83.11 C 57.70 83.26 54.03 83.96 51.62 81.28 C 52.77 81.05 55.05 80.60 56.20 80.38 C 51.09 80.00 46.68 83.78 41.50 82.98 C 44.43 80.72 48.18 79.90 51.09 77.58 C 51.91 78.08 52.73 78.58 53.54 79.08 C 53.43 78.48 53.21 77.28 53.10 76.68 C 53.04 76.28 52.94 75.48 52.88 75.08 M 57.35 79.07 C 57.56 82.41 60.28 77.46 57.35 79.07 Z" />
<path fill="#a373a1" opacity="1.00" d=" M 64.06 76.23 L 64.35 76.78 C 65.00 78.01 65.65 79.24 66.30 80.47 C 65.44 81.88 64.54 83.26 63.63 84.65 C 62.96 83.79 62.32 82.92 61.72 82.01 C 62.30 80.01 63.21 78.13 64.06 76.23 Z" />
<path fill="#a373a1" opacity="1.00" d=" M 64.04 85.21 C 66.59 81.41 69.46 77.26 74.18 76.08 L 73.86 77.41 C 72.46 78.27 71.02 79.08 69.61 79.92 C 70.23 80.29 71.46 81.03 72.08 81.40 C 71.78 81.76 71.18 82.48 70.88 82.84 C 69.92 82.37 68.95 81.89 67.98 81.42 C 68.45 82.54 68.91 83.67 69.38 84.80 C 68.83 84.73 67.73 84.58 67.18 84.51 C 67.19 85.25 67.19 86.72 67.20 87.45 C 66.14 86.71 65.09 85.97 64.04 85.21 Z" />
<path fill="#a373a1" opacity="1.00" d=" M 37.40 81.31 C 37.88 81.73 37.88 81.73 37.40 81.31 Z" />
<path fill="#a373a1" opacity="1.00" d=" M 47.39 83.28 C 48.48 82.53 49.57 82.52 50.66 83.26 C 50.79 84.71 47.23 84.75 47.39 83.28 Z" />
<path fill="#a373a1" opacity="1.00" d=" M 39.52 83.73 C 42.62 83.53 45.70 84.06 48.66 84.98 C 47.52 85.62 46.39 86.28 45.27 86.95 C 44.89 87.40 44.13 88.30 43.75 88.75 C 42.10 88.23 40.50 87.52 39.30 86.22 C 39.36 85.60 39.46 84.36 39.52 83.73 Z" />
<path fill="#a373a1" opacity="1.00" d=" M 55.84 83.97 C 58.83 83.70 62.44 82.98 63.89 86.43 C 62.14 86.40 60.44 86.07 58.86 85.32 C 58.41 85.60 57.50 86.15 57.05 86.42 C 56.75 85.81 56.14 84.58 55.84 83.97 Z" />
<path fill="#a373a1" opacity="1.00" d=" M 35.19 86.87 C 35.58 87.07 36.34 87.47 36.73 87.67 C 36.37 87.80 35.67 88.07 35.31 88.21 L 34.71 87.55 L 35.19 86.87 Z" />
</g>
</svg>
