<?xml version="1.0" encoding="UTF-8" ?>
<!DOCTYPE svg PUBLIC "-//W3C//DTD SVG 1.1//EN" "http://www.w3.org/Graphics/SVG/1.1/DTD/svg11.dtd">
<svg width="120pt" height="120pt" viewBox="0 0 120 120" version="1.1" xmlns="http://www.w3.org/2000/svg">
<g id="#6c87b0ff">
<path fill="#6c87b0" opacity="1.00" d=" M 63.38 31.24 C 63.68 30.90 64.28 30.24 64.59 29.90 C 64.79 31.26 65.13 32.58 65.61 33.86 C 68.08 32.17 71.01 31.15 74.03 31.36 C 76.46 31.57 79.28 30.76 81.39 32.25 L 80.81 32.23 C 74.59 31.30 68.38 32.42 62.90 35.47 C 63.05 34.15 63.20 32.83 63.35 31.50 L 63.38 31.24 Z" />
<path fill="#6c87b0" opacity="1.00" d=" M 37.88 34.61 C 39.34 33.80 40.76 32.92 42.11 31.95 C 44.53 34.43 47.51 36.72 48.06 40.39 C 51.69 40.32 55.37 40.70 58.96 40.16 C 59.82 37.40 60.54 34.39 62.80 32.40 C 61.27 35.62 60.04 38.96 58.81 42.30 C 58.37 41.98 57.50 41.33 57.06 41.00 C 52.70 40.78 47.46 40.71 44.88 44.95 C 42.54 47.24 43.26 50.45 44.68 52.98 C 44.37 53.22 43.74 53.71 43.43 53.96 C 41.78 51.59 42.03 48.34 43.43 45.91 L 42.09 45.20 L 42.73 43.61 L 41.17 43.77 C 41.27 43.02 41.46 41.52 41.56 40.77 C 40.94 40.58 39.70 40.20 39.07 40.01 C 40.29 38.98 40.43 37.43 40.61 35.96 C 39.93 35.62 38.56 34.95 37.88 34.61 M 40.22 34.31 C 40.72 34.77 40.72 34.77 40.22 34.31 M 41.70 33.69 C 42.97 36.91 44.83 39.88 47.13 42.45 C 47.37 38.61 44.64 35.68 41.70 33.69 Z" />
<path fill="#6c87b0" opacity="1.00" d=" M 76.27 34.56 C 77.37 34.03 78.47 33.51 79.57 32.98 C 79.23 33.51 78.55 34.56 78.21 35.09 C 80.33 34.92 81.71 36.22 82.37 38.11 L 81.47 37.62 C 79.71 36.65 77.99 35.60 76.27 34.56 Z" />
<path fill="#6c87b0" opacity="1.00" d=" M 59.96 41.12 C 63.51 36.90 68.62 34.65 73.95 33.67 C 75.37 36.01 76.89 38.30 78.64 40.41 C 78.89 42.87 78.81 45.35 77.77 47.63 C 77.20 47.84 76.08 48.24 75.52 48.45 C 74.14 49.18 72.77 49.93 71.41 50.68 C 69.46 50.73 67.51 50.77 65.56 50.81 C 66.39 52.41 67.22 54.01 68.01 55.64 C 69.21 55.44 70.38 55.12 71.51 54.67 C 72.71 54.12 73.93 53.59 75.20 53.20 C 72.91 54.77 70.35 55.87 67.99 57.29 C 65.96 60.19 65.46 63.84 64.41 67.15 C 64.42 66.06 64.42 64.97 64.42 63.89 C 61.64 64.86 58.87 65.98 55.93 66.37 C 53.78 66.20 51.88 65.04 49.94 64.21 C 50.00 65.78 50.07 67.34 50.08 68.91 C 49.81 70.93 49.33 72.92 48.78 74.87 C 47.95 76.23 47.10 77.57 46.21 78.89 C 46.89 75.78 47.73 72.68 48.91 69.71 C 47.86 68.59 46.81 67.47 45.77 66.36 C 45.43 66.51 44.76 66.82 44.42 66.97 C 44.41 66.18 44.39 64.59 44.39 63.79 L 44.70 64.00 C 46.15 64.98 47.61 65.96 49.06 66.95 C 49.09 66.30 49.15 65.00 49.18 64.35 C 48.45 63.85 47.72 63.36 46.99 62.86 C 45.05 61.48 43.14 60.08 41.24 58.64 C 41.36 57.25 41.52 55.87 41.72 54.49 L 41.87 55.59 C 41.95 56.24 42.10 57.53 42.18 58.18 C 45.35 58.56 48.55 58.48 51.72 58.35 C 54.81 57.96 57.75 56.74 60.89 56.69 C 61.14 57.62 61.64 59.48 61.88 60.41 C 63.25 58.71 65.21 57.27 65.84 55.10 C 65.20 50.65 62.51 46.92 59.61 43.64 C 59.73 42.80 59.84 41.96 59.96 41.12 M 53.86 59.98 C 56.37 60.54 58.93 60.82 61.50 60.65 C 60.54 60.50 58.63 60.18 57.67 60.02 C 57.69 59.47 57.74 58.36 57.76 57.80 C 56.46 58.54 55.16 59.26 53.86 59.98 M 59.39 58.39 C 59.69 58.69 59.69 58.69 59.39 58.39 Z" />
<path fill="#6c87b0" opacity="1.00" d=" M 52.18 51.91 C 51.88 50.51 52.42 49.96 53.80 50.23 C 54.09 51.62 53.56 52.18 52.18 51.91 Z" />
<path fill="#6c87b0" opacity="1.00" d=" M 54.99 54.04 C 53.54 51.57 56.00 49.91 58.19 49.59 C 57.96 50.22 57.48 51.47 57.24 52.10 C 57.17 52.49 57.03 53.27 56.95 53.66 L 57.59 54.01 C 57.97 54.22 58.72 54.62 59.09 54.83 C 56.58 54.92 54.08 55.01 51.57 55.04 C 52.33 54.09 53.09 53.15 53.86 52.21 L 54.03 53.98 L 54.99 54.04 Z" />
<path fill="#6c87b0" opacity="1.00" d=" M 77.33 51.70 C 79.76 49.37 79.23 56.54 76.74 55.81 C 76.93 54.44 77.10 53.07 77.33 51.70 Z" />
<path fill="#6c87b0" opacity="1.00" d=" M 72.33 64.14 C 72.97 61.51 73.98 58.94 75.92 57.00 C 75.53 58.49 75.00 59.94 74.48 61.39 C 74.17 62.41 73.90 63.45 73.67 64.49 C 74.59 65.49 75.41 66.58 76.05 67.77 C 76.84 68.68 77.66 69.56 78.49 70.42 C 78.85 71.51 79.22 72.60 79.58 73.69 C 79.67 76.24 79.74 78.79 79.70 81.34 C 78.87 83.31 78.12 85.31 77.54 87.37 C 77.29 87.99 76.78 89.24 76.53 89.87 C 73.62 89.75 70.70 89.79 67.79 89.91 C 68.39 89.38 69.58 88.30 70.18 87.77 L 68.14 87.75 C 68.26 87.21 68.49 86.13 68.61 85.59 C 65.16 85.83 61.70 85.80 58.25 85.73 C 57.39 87.06 56.67 88.50 55.62 89.70 C 53.17 89.91 50.71 89.83 48.25 89.81 C 48.32 88.98 48.46 87.32 48.53 86.49 L 47.02 86.79 C 47.18 86.25 47.50 85.19 47.66 84.65 L 46.20 84.76 C 46.24 84.25 46.33 83.24 46.37 82.73 C 45.54 81.36 45.16 79.85 45.24 78.21 C 44.38 78.88 43.52 79.56 42.66 80.23 C 42.65 78.71 42.16 77.37 41.22 76.23 C 41.52 75.20 41.90 74.20 42.32 73.22 C 42.37 71.83 42.40 70.44 42.41 69.05 L 43.45 69.01 C 43.20 72.08 43.07 75.15 42.98 78.23 C 43.44 77.82 44.35 76.99 44.80 76.58 C 46.30 79.98 47.73 83.40 49.25 86.79 C 50.79 86.72 52.33 86.64 53.87 86.56 C 53.40 85.11 52.93 83.66 52.45 82.21 C 57.31 84.04 64.58 87.52 68.55 82.41 C 69.01 81.90 69.91 80.89 70.36 80.39 C 69.62 82.41 68.06 85.35 70.10 87.11 C 73.14 88.70 76.09 86.22 78.20 84.22 C 77.73 83.16 77.26 82.11 76.79 81.05 C 77.51 80.45 78.23 79.84 78.95 79.24 C 78.44 76.71 78.01 74.17 77.64 71.62 C 76.00 69.72 74.55 67.66 73.24 65.51 C 75.10 70.45 73.19 75.78 70.56 80.05 C 69.21 80.03 67.86 80.01 66.51 80.00 C 65.83 79.68 64.46 79.03 63.77 78.71 C 64.30 75.91 64.87 73.11 65.06 70.26 L 63.33 69.60 C 64.65 68.39 65.97 67.17 67.25 65.91 C 68.75 65.94 70.25 65.98 71.75 66.02 C 70.47 63.65 69.51 61.05 70.43 58.36 C 71.19 60.25 71.80 62.19 72.33 64.14 M 66.05 68.25 C 66.28 70.93 66.16 73.63 65.53 76.26 C 66.50 76.97 67.07 77.92 67.25 79.13 C 70.31 77.39 72.25 74.52 72.67 71.01 C 72.34 69.66 72.00 68.31 71.66 66.97 C 69.71 67.00 67.67 67.00 66.05 68.25 Z" />
</g>
<g id="#bcdfe5ff">
<path fill="#bcdfe5" opacity="1.00" d=" M 62.80 32.40 C 62.94 32.18 63.21 31.73 63.35 31.50 C 63.20 32.83 63.05 34.15 62.90 35.47 C 68.38 32.42 74.59 31.30 80.81 32.23 C 80.50 32.42 79.88 32.79 79.57 32.98 C 78.47 33.51 77.37 34.03 76.27 34.56 C 77.99 35.60 79.71 36.65 81.47 37.62 C 80.55 38.57 79.60 39.50 78.64 40.41 C 76.89 38.30 75.37 36.01 73.95 33.67 C 68.62 34.65 63.51 36.90 59.96 41.12 C 59.84 41.96 59.73 42.80 59.61 43.64 C 62.51 46.92 65.20 50.65 65.84 55.10 C 65.21 57.27 63.25 58.71 61.88 60.41 C 61.64 59.48 61.14 57.62 60.89 56.69 C 57.75 56.74 54.81 57.96 51.72 58.35 C 48.55 58.48 45.35 58.56 42.18 58.18 C 42.10 57.53 41.95 56.24 41.87 55.59 C 42.26 55.19 43.04 54.37 43.43 53.96 C 43.74 53.71 44.37 53.22 44.68 52.98 C 43.26 50.45 42.54 47.24 44.88 44.95 C 47.46 40.71 52.70 40.78 57.06 41.00 C 57.50 41.33 58.37 41.98 58.81 42.30 C 60.04 38.96 61.27 35.62 62.80 32.40 M 52.18 51.91 C 53.56 52.18 54.09 51.62 53.80 50.23 C 52.42 49.96 51.88 50.51 52.18 51.91 M 54.99 54.04 L 54.03 53.98 L 53.86 52.21 C 53.09 53.15 52.33 54.09 51.57 55.04 C 54.08 55.01 56.58 54.92 59.09 54.83 C 58.72 54.62 57.97 54.22 57.59 54.01 C 59.42 54.17 58.75 50.80 57.24 52.10 C 57.48 51.47 57.96 50.22 58.19 49.59 C 56.00 49.91 53.54 51.57 54.99 54.04 Z" />
<path fill="#bcdfe5" opacity="1.00" d=" M 40.22 34.31 C 40.72 34.77 40.72 34.77 40.22 34.31 Z" />
<path fill="#bcdfe5" opacity="1.00" d=" M 41.70 33.69 C 44.64 35.68 47.37 38.61 47.13 42.45 C 44.83 39.88 42.97 36.91 41.70 33.69 Z" />
<path fill="#bcdfe5" opacity="1.00" d=" M 77.33 51.70 C 77.10 53.07 76.93 54.44 76.74 55.81 C 76.53 56.11 76.13 56.70 75.92 57.00 C 73.98 58.94 72.97 61.51 72.33 64.14 C 71.80 62.19 71.19 60.25 70.43 58.36 C 69.51 61.05 70.47 63.65 71.75 66.02 C 70.25 65.98 68.75 65.94 67.25 65.91 C 65.97 67.17 64.65 68.39 63.33 69.60 C 59.10 67.88 54.47 67.71 50.08 68.91 C 50.07 67.34 50.00 65.78 49.94 64.21 C 51.88 65.04 53.78 66.20 55.93 66.37 C 58.87 65.98 61.64 64.86 64.42 63.89 C 64.42 64.97 64.42 66.06 64.41 67.15 C 65.46 63.84 65.96 60.19 67.99 57.29 C 70.35 55.87 72.91 54.77 75.20 53.20 L 75.63 52.93 C 76.05 52.63 76.91 52.01 77.33 51.70 Z" />
<path fill="#bcdfe5" opacity="1.00" d=" M 53.86 59.98 C 55.16 59.26 56.46 58.54 57.76 57.80 C 57.74 58.36 57.69 59.47 57.67 60.02 C 58.63 60.18 60.54 60.50 61.50 60.65 C 58.93 60.82 56.37 60.54 53.86 59.98 Z" />
<path fill="#bcdfe5" opacity="1.00" d=" M 46.99 62.86 C 47.72 63.36 48.45 63.85 49.18 64.35 C 49.15 65.00 49.09 66.30 49.06 66.95 C 47.61 65.96 46.15 64.98 44.70 64.00 C 45.27 63.72 46.41 63.15 46.99 62.86 Z" />
<path fill="#bcdfe5" opacity="1.00" d=" M 44.42 66.97 C 44.76 66.82 45.43 66.51 45.77 66.36 C 46.81 67.47 47.86 68.59 48.91 69.71 C 47.73 72.68 46.89 75.78 46.21 78.89 C 47.10 77.57 47.95 76.23 48.78 74.87 C 51.18 77.69 53.74 80.67 57.37 81.89 C 60.92 83.37 64.85 82.95 68.55 82.41 C 64.58 87.52 57.31 84.04 52.45 82.21 C 52.93 83.66 53.40 85.11 53.87 86.56 C 52.33 86.64 50.79 86.72 49.25 86.79 C 47.73 83.40 46.30 79.98 44.80 76.58 C 44.35 76.99 43.44 77.82 42.98 78.23 C 43.07 75.15 43.20 72.08 43.45 69.01 C 43.49 68.60 43.55 67.77 43.58 67.36 L 44.42 66.97 Z" />
<path fill="#bcdfe5" opacity="1.00" d=" M 73.24 65.51 C 74.55 67.66 76.00 69.72 77.64 71.62 C 78.01 74.17 78.44 76.71 78.95 79.24 C 78.23 79.84 77.51 80.45 76.79 81.05 C 77.26 82.11 77.73 83.16 78.20 84.22 C 76.09 86.22 73.14 88.70 70.10 87.11 C 68.06 85.35 69.62 82.41 70.36 80.39 L 70.56 80.05 C 73.19 75.78 75.10 70.45 73.24 65.51 Z" />
<path fill="#bcdfe5" opacity="1.00" d=" M 66.05 68.25 C 67.67 67.00 69.71 67.00 71.66 66.97 C 72.00 68.31 72.34 69.66 72.67 71.01 C 72.25 74.52 70.31 77.39 67.25 79.13 C 67.07 77.92 66.50 76.97 65.53 76.26 C 66.16 73.63 66.28 70.93 66.05 68.25 Z" />
</g>
<g id="#eeeeebff">
<path fill="#eeeeeb" opacity="1.00" d=" M 57.24 52.10 C 58.75 50.80 59.42 54.17 57.59 54.01 L 56.95 53.66 C 57.03 53.27 57.17 52.49 57.24 52.10 Z" />
<path fill="#eeeeeb" opacity="1.00" d=" M 59.39 58.39 C 59.69 58.69 59.69 58.69 59.39 58.39 Z" />
<path fill="#eeeeeb" opacity="1.00" d=" M 50.08 68.91 C 54.47 67.71 59.10 67.88 63.33 69.60 L 65.06 70.26 C 64.87 73.11 64.30 75.91 63.77 78.71 C 64.46 79.03 65.83 79.68 66.51 80.00 C 67.86 80.01 69.21 80.03 70.56 80.05 L 70.36 80.39 C 69.91 80.89 69.01 81.90 68.55 82.41 C 64.85 82.95 60.92 83.37 57.37 81.89 C 53.74 80.67 51.18 77.69 48.78 74.87 C 49.33 72.92 49.81 70.93 50.08 68.91 Z" />
</g>
</svg>
