<?xml version="1.0" encoding="UTF-8" ?>
<!DOCTYPE svg PUBLIC "-//W3C//DTD SVG 1.1//EN" "http://www.w3.org/Graphics/SVG/1.1/DTD/svg11.dtd">
<svg width="120pt" height="120pt" viewBox="0 0 120 120" version="1.1" xmlns="http://www.w3.org/2000/svg">
<g id="#c2b371ff">
<path fill="#c2b371" opacity="1.00" d=" M 58.29 18.36 C 59.41 17.90 60.54 17.44 61.67 16.98 L 61.51 18.65 C 62.32 18.56 63.95 18.38 64.76 18.29 L 64.55 19.65 C 65.35 19.56 66.96 19.38 67.76 19.29 L 67.55 20.54 C 69.92 20.51 72.30 20.43 74.68 20.47 L 75.24 20.79 C 75.87 21.00 77.12 21.42 77.75 21.63 L 77.57 22.28 C 81.78 23.01 83.91 27.55 87.00 30.15 C 88.40 30.46 89.58 31.15 90.05 32.60 C 90.45 32.49 91.27 32.27 91.68 32.16 L 91.56 33.29 C 92.16 33.43 93.38 33.69 93.98 33.82 C 97.34 38.99 98.81 44.96 101.19 50.55 C 101.74 53.87 102.56 57.80 100.70 60.82 C 100.28 64.31 102.07 67.53 101.75 71.02 C 101.43 74.59 102.53 78.49 100.82 81.81 C 100.75 82.47 100.61 83.79 100.54 84.45 C 100.24 85.09 99.64 86.38 99.34 87.02 L 98.87 86.71 C 99.42 84.15 100.13 81.64 100.65 79.07 C 101.34 73.54 101.41 67.53 98.15 62.72 C 93.22 54.70 83.22 50.35 73.99 51.10 C 67.88 52.02 62.35 55.06 56.97 57.92 C 62.58 58.91 68.36 58.03 73.95 59.33 C 78.67 60.38 83.61 61.04 87.96 63.27 C 90.79 65.26 94.00 68.17 93.61 71.98 C 93.59 73.81 93.40 75.64 93.21 77.47 C 91.84 83.97 90.74 90.58 91.08 97.25 C 91.55 96.94 92.48 96.32 92.94 96.01 C 92.76 97.50 91.67 98.46 90.57 99.34 C 90.43 95.27 90.44 91.18 90.62 87.11 C 89.88 87.95 88.42 89.65 87.68 90.49 C 87.57 88.75 87.52 87.01 87.48 85.28 L 86.24 85.85 C 86.33 85.11 86.52 83.63 86.61 82.88 C 85.72 82.30 84.83 81.72 83.95 81.14 C 83.03 78.76 79.58 78.95 79.14 76.29 C 78.69 76.49 77.78 76.89 77.33 77.09 L 77.71 75.51 C 75.53 75.60 73.34 75.64 71.17 75.74 L 71.74 74.36 C 70.87 74.48 69.12 74.72 68.25 74.84 L 68.66 73.20 C 68.08 73.41 66.93 73.82 66.35 74.02 L 66.64 72.71 C 65.15 72.44 63.69 72.05 62.22 71.68 L 62.73 70.48 L 60.49 70.66 C 60.24 74.66 62.62 77.91 64.59 81.14 C 64.86 85.60 64.57 90.07 64.71 94.53 C 64.02 95.60 63.43 96.74 62.59 97.70 C 60.86 97.98 59.23 97.38 57.73 96.57 L 59.33 96.46 C 60.90 92.48 60.52 88.17 60.44 83.99 C 59.24 83.05 58.06 82.08 56.90 81.09 C 54.77 79.91 52.11 78.29 52.33 75.48 L 51.22 75.74 C 51.33 75.10 51.55 73.81 51.66 73.17 C 48.98 73.04 48.28 74.76 48.47 77.09 C 50.78 77.54 50.83 79.70 50.73 81.61 L 52.02 81.36 C 51.84 81.94 51.48 83.09 51.29 83.67 L 52.87 83.37 C 52.91 83.67 52.99 84.26 53.03 84.56 C 52.32 84.61 50.90 84.72 50.19 84.77 L 50.75 83.53 C 49.95 83.51 48.35 83.47 47.55 83.46 C 47.59 84.21 47.67 85.71 47.71 86.46 C 47.09 87.45 46.49 88.45 45.90 89.46 C 45.32 92.01 44.36 94.57 42.68 96.61 C 40.91 96.75 39.14 96.71 37.37 96.75 C 37.38 96.11 37.41 94.84 37.42 94.20 C 38.39 93.48 39.38 92.80 40.50 92.34 C 41.60 89.39 42.27 86.26 43.91 83.54 L 42.17 83.69 C 42.29 83.27 42.52 82.42 42.63 81.99 C 40.96 81.20 39.62 79.88 38.93 78.14 C 36.63 78.57 36.58 80.97 35.96 82.77 C 35.75 84.14 35.44 85.48 34.99 86.79 C 34.91 88.19 34.50 89.47 33.75 90.63 C 33.60 92.60 33.61 94.62 34.85 96.28 C 33.91 97.28 32.96 98.28 32.04 99.30 C 31.63 102.30 28.62 101.68 26.41 101.65 C 26.08 101.23 25.42 100.38 25.10 99.95 C 26.49 98.58 27.80 97.13 29.08 95.65 C 29.62 92.94 29.54 90.17 29.55 87.42 L 28.32 87.81 C 28.43 86.34 28.53 84.87 28.64 83.40 L 27.33 83.82 C 27.43 82.37 27.52 80.91 27.61 79.46 L 26.13 79.73 C 26.25 79.29 26.50 78.43 26.63 78.00 C 24.92 77.18 23.49 75.92 23.15 73.98 C 21.76 73.28 21.26 72.00 21.34 70.48 L 20.13 70.73 C 20.29 70.19 20.60 69.12 20.76 68.58 L 19.15 68.69 C 19.31 68.16 19.62 67.09 19.77 66.56 L 18.39 66.77 C 18.71 63.96 17.80 60.84 19.35 58.29 C 19.51 56.57 19.27 54.69 20.44 53.25 C 20.48 51.80 20.50 50.36 20.50 48.92 C 16.29 47.31 19.37 41.72 19.83 38.58 L 18.33 38.77 C 18.43 37.37 18.52 35.96 18.62 34.56 L 17.31 34.75 C 17.36 34.08 17.46 32.75 17.51 32.08 C 17.99 32.16 18.96 32.32 19.44 32.40 C 19.82 32.78 20.57 33.53 20.94 33.91 C 22.11 35.13 23.80 36.48 25.59 35.65 C 27.56 34.06 29.18 32.08 30.99 30.32 C 31.19 33.63 31.65 37.16 30.03 40.23 C 28.01 38.46 29.33 36.08 29.66 34.01 C 29.12 35.34 28.55 36.66 27.98 37.98 C 25.78 37.57 23.58 37.19 21.37 36.84 C 20.52 39.77 19.75 42.72 19.05 45.68 C 19.60 45.79 20.69 46.01 21.23 46.12 C 20.98 46.58 20.49 47.49 20.24 47.95 C 23.45 47.31 26.65 46.63 29.85 45.92 C 29.73 44.39 29.60 42.86 29.47 41.33 C 30.01 40.67 30.56 40.02 31.11 39.37 C 32.93 42.91 35.82 45.66 38.95 48.05 C 37.06 44.09 34.69 40.34 31.29 37.51 C 32.89 37.91 34.50 38.28 36.12 38.62 C 35.64 37.82 35.16 37.02 34.68 36.21 C 33.94 34.89 33.09 33.62 32.19 32.40 C 34.83 33.73 37.43 35.13 40.15 36.30 C 36.80 34.20 33.37 32.16 30.47 29.42 C 31.47 28.59 32.47 27.77 33.47 26.94 C 31.54 26.34 29.61 25.75 27.69 25.15 C 28.18 24.14 28.68 23.13 29.17 22.12 C 27.37 22.95 25.56 23.76 23.77 24.61 L 24.14 23.70 C 25.25 23.28 26.35 22.85 27.44 22.40 C 28.76 21.61 30.09 20.85 31.40 20.06 C 31.03 20.66 30.27 21.85 29.90 22.45 C 29.76 23.22 29.48 24.76 29.34 25.53 C 30.90 25.49 32.46 25.45 34.01 25.40 C 35.21 27.15 34.57 28.57 32.41 28.95 L 32.53 30.42 L 33.76 30.30 L 33.54 31.49 C 34.56 31.52 36.61 31.59 37.64 31.63 C 38.42 30.59 39.20 29.54 39.78 28.36 C 40.96 27.03 42.20 25.76 43.41 24.46 C 44.16 24.48 45.64 24.51 46.39 24.53 C 47.39 23.57 48.45 22.65 49.79 22.18 C 44.43 25.97 44.07 33.15 44.59 39.11 C 45.06 44.35 48.00 48.84 50.87 53.08 C 48.63 46.09 48.67 38.39 51.33 31.52 C 52.97 27.25 57.16 24.99 60.02 21.67 C 60.53 22.14 61.03 22.62 61.53 23.10 C 58.51 25.19 55.01 27.07 53.44 30.59 C 50.22 36.19 50.93 42.89 51.41 49.06 C 53.27 40.13 59.64 32.44 68.01 28.88 C 73.23 27.24 78.88 27.65 84.12 28.95 C 81.60 26.46 79.34 23.33 75.80 22.25 C 71.27 20.40 66.45 22.43 61.81 22.58 C 61.89 22.07 62.04 21.04 62.12 20.52 C 63.91 20.69 65.69 20.84 67.48 20.96 C 65.06 20.00 62.60 19.16 60.13 18.31 C 57.01 18.99 53.83 19.62 50.97 21.11 C 52.71 18.86 55.58 18.21 58.29 18.36 M 37.89 32.21 C 39.24 33.15 40.59 34.07 41.95 34.99 C 43.11 31.58 43.89 28.07 44.72 24.57 C 41.76 26.44 39.93 29.46 37.89 32.21 M 53.32 54.82 C 54.53 49.32 59.42 45.94 63.48 42.55 C 68.76 39.46 74.87 37.85 80.97 37.55 C 86.85 35.98 93.28 38.89 97.18 43.33 C 95.85 40.55 94.87 37.53 93.02 35.04 C 87.68 30.74 80.72 28.92 73.95 29.06 C 61.51 30.01 51.86 42.55 53.32 54.82 M 37.16 37.40 C 39.31 42.06 42.00 46.48 45.68 50.11 L 46.32 50.25 C 46.17 48.51 44.87 47.21 44.15 45.71 C 42.67 43.04 42.97 39.90 42.94 36.96 C 41.01 37.10 39.08 37.24 37.16 37.40 M 82.54 38.92 C 78.82 38.86 75.06 39.09 71.68 40.80 C 69.97 41.32 68.26 41.84 66.55 42.34 C 62.29 45.93 57.41 49.15 55.02 54.40 C 61.43 51.73 67.89 48.33 75.01 48.38 C 79.18 48.42 83.38 48.13 87.54 48.59 C 89.49 48.87 90.50 50.78 91.63 52.16 C 94.02 55.72 97.75 58.15 99.88 61.91 C 101.16 57.82 101.16 53.46 99.51 49.47 C 97.07 47.19 95.51 44.16 93.10 41.87 C 90.25 40.28 87.16 39.13 84.08 38.08 C 83.69 38.29 82.93 38.71 82.54 38.92 M 97.18 43.33 L 96.60 43.90 C 97.13 46.20 99.82 42.98 97.18 43.33 M 33.91 46.87 C 33.93 48.49 35.61 49.19 36.66 50.12 C 40.13 52.33 43.60 55.19 47.97 54.96 C 45.49 52.14 42.71 49.60 40.24 46.77 C 40.70 48.32 41.03 49.91 41.24 51.53 C 38.42 50.80 36.67 48.34 34.38 46.77 L 33.91 46.87 C 33.48 46.48 33.48 46.48 33.91 46.87 M 46.32 50.25 C 46.45 50.40 46.73 50.70 46.87 50.85 C 46.73 50.70 46.45 50.40 46.32 50.25 M 26.82 54.37 C 24.62 54.70 22.39 54.37 20.19 54.20 C 20.27 58.17 18.27 62.25 20.01 66.09 C 21.03 69.90 24.58 72.12 26.23 75.59 C 27.38 73.06 29.27 71.03 30.90 68.83 C 30.64 67.93 30.33 67.04 29.97 66.16 C 31.97 64.02 34.16 62.07 36.53 60.33 C 38.27 59.32 38.22 57.11 38.62 55.37 C 36.98 53.79 35.37 52.18 33.76 50.56 C 31.54 51.97 29.40 53.67 26.82 54.37 M 46.87 50.85 C 47.36 51.36 47.36 51.36 46.87 50.85 M 41.09 57.33 C 40.95 59.18 40.95 61.03 41.00 62.88 C 36.28 64.16 33.63 68.40 30.89 72.08 C 31.46 78.77 31.67 85.57 30.57 92.22 C 30.29 95.24 27.97 97.42 27.14 100.25 C 28.30 100.15 29.47 100.04 30.63 99.94 C 33.11 91.80 34.53 83.38 37.23 75.31 C 38.40 72.36 39.77 69.47 40.41 66.34 C 42.78 70.66 48.18 69.75 51.92 67.98 C 51.60 71.49 52.12 75.53 54.94 77.95 C 57.42 79.34 60.18 80.13 62.77 81.28 C 61.50 78.68 59.65 76.11 59.87 73.07 C 59.96 68.87 60.14 64.58 58.62 60.58 C 56.45 59.32 54.35 57.91 52.41 56.31 C 48.60 55.31 44.86 56.95 41.09 57.33 M 60.37 60.80 C 61.37 63.66 60.51 67.28 62.92 69.51 C 66.43 72.44 70.74 74.23 75.17 75.21 C 73.77 73.51 72.28 71.88 70.74 70.30 L 70.03 70.26 C 66.83 67.10 65.82 60.63 60.37 60.80 M 67.27 62.49 C 69.89 67.36 75.19 70.14 77.15 75.41 C 78.04 74.19 76.86 72.88 76.52 71.69 C 74.10 69.06 73.83 65.29 72.62 62.07 C 70.83 62.20 69.05 62.34 67.27 62.49 M 75.24 63.16 C 76.85 69.19 80.00 74.63 84.15 79.27 C 82.14 74.44 80.09 69.54 79.62 64.28 C 78.16 63.91 76.70 63.53 75.24 63.16 M 82.45 63.95 C 82.47 67.32 83.61 70.49 85.46 73.28 C 85.64 70.75 85.73 68.18 86.56 65.76 C 85.07 65.46 83.75 64.70 82.45 63.95 M 31.96 66.37 L 31.48 66.98 C 32.36 69.18 34.64 65.77 31.96 66.37 M 37.84 75.93 C 40.66 77.66 43.52 79.42 45.82 81.85 C 45.24 78.33 46.30 75.00 48.58 72.30 C 44.84 72.95 40.69 73.05 37.84 75.93 M 27.81 78.48 C 28.38 81.36 28.99 84.23 29.60 87.10 C 30.06 82.74 29.88 78.35 29.89 73.97 C 29.22 75.49 28.53 76.99 27.81 78.48 M 88.37 86.90 C 88.56 88.53 90.02 87.22 90.07 86.29 C 91.90 82.80 89.55 79.09 88.23 75.87 C 87.12 79.45 87.18 83.35 88.37 86.90 M 46.92 76.34 C 46.83 79.21 48.30 81.64 50.56 83.28 C 50.27 80.55 49.11 78.07 46.92 76.34 M 84.15 79.27 C 84.66 79.65 84.66 79.65 84.15 79.27 Z" />
<path fill="#c2b371" opacity="1.00" d=" M 27.04 41.26 C 30.35 41.46 25.45 44.28 27.04 41.26 Z" />
<path fill="#c2b371" opacity="1.00" d=" M 25.26 43.25 C 25.80 43.79 25.80 43.79 25.26 43.25 Z" />
<path fill="#c2b371" opacity="1.00" d=" M 96.63 90.83 C 96.87 90.40 97.35 89.53 97.59 89.09 C 97.57 89.51 97.52 90.36 97.49 90.78 L 96.63 90.83 Z" />
<path fill="#c2b371" opacity="1.00" d=" M 94.62 93.90 C 94.87 93.45 95.35 92.57 95.59 92.13 C 95.57 92.56 95.53 93.40 95.50 93.83 L 94.62 93.90 Z" />
</g>
<g id="#f9ef8aff">
<path fill="#f9ef8a" opacity="1.00" d=" M 50.97 21.11 C 53.83 19.62 57.01 18.99 60.13 18.31 C 62.60 19.16 65.06 20.00 67.48 20.96 C 65.69 20.84 63.91 20.69 62.12 20.52 C 62.04 21.04 61.89 22.07 61.81 22.58 C 66.45 22.43 71.27 20.40 75.80 22.25 C 79.34 23.33 81.60 26.46 84.12 28.95 C 78.88 27.65 73.23 27.24 68.01 28.88 C 59.64 32.44 53.27 40.13 51.41 49.06 C 50.93 42.89 50.22 36.19 53.44 30.59 C 55.01 27.07 58.51 25.19 61.53 23.10 C 61.03 22.62 60.53 22.14 60.02 21.67 C 57.16 24.99 52.97 27.25 51.33 31.52 C 48.67 38.39 48.63 46.09 50.87 53.08 C 48.00 48.84 45.06 44.35 44.59 39.11 C 44.07 33.15 44.43 25.97 49.79 22.18 C 50.08 21.91 50.68 21.38 50.97 21.11 Z" />
<path fill="#f9ef8a" opacity="1.00" d=" M 23.77 24.61 C 25.56 23.76 27.37 22.95 29.17 22.12 C 28.68 23.13 28.18 24.14 27.69 25.15 C 29.61 25.75 31.54 26.34 33.47 26.94 C 32.47 27.77 31.47 28.59 30.47 29.42 C 33.37 32.16 36.80 34.20 40.15 36.30 C 37.43 35.13 34.83 33.73 32.19 32.40 C 33.09 33.62 33.94 34.89 34.68 36.21 C 35.16 37.02 35.64 37.82 36.12 38.62 C 34.50 38.28 32.89 37.91 31.29 37.51 C 34.69 40.34 37.06 44.09 38.95 48.05 C 35.82 45.66 32.93 42.91 31.11 39.37 C 30.56 40.02 30.01 40.67 29.47 41.33 C 29.60 42.86 29.73 44.39 29.85 45.92 C 26.65 46.63 23.45 47.31 20.24 47.95 C 20.49 47.49 20.98 46.58 21.23 46.12 C 20.69 46.01 19.60 45.79 19.05 45.68 C 19.75 42.72 20.52 39.77 21.37 36.84 C 23.58 37.19 25.78 37.57 27.98 37.98 C 28.55 36.66 29.12 35.34 29.66 34.01 C 29.33 36.08 28.01 38.46 30.03 40.23 C 31.65 37.16 31.19 33.63 30.99 30.32 C 29.18 32.08 27.56 34.06 25.59 35.65 C 23.80 36.48 22.11 35.13 20.94 33.91 C 20.04 31.66 20.79 29.40 21.81 27.38 C 22.46 26.48 22.70 25.15 23.77 24.61 M 27.04 41.26 C 25.45 44.28 30.35 41.46 27.04 41.26 M 25.26 43.25 C 25.80 43.79 25.80 43.79 25.26 43.25 Z" />
<path fill="#f9ef8a" opacity="1.00" d=" M 37.89 32.21 C 39.93 29.46 41.76 26.44 44.72 24.57 C 43.89 28.07 43.11 31.58 41.95 34.99 C 40.59 34.07 39.24 33.15 37.89 32.21 Z" />
<path fill="#f9ef8a" opacity="1.00" d=" M 53.32 54.82 C 51.86 42.55 61.51 30.01 73.95 29.06 C 80.72 28.92 87.68 30.74 93.02 35.04 C 94.87 37.53 95.85 40.55 97.18 43.33 C 93.28 38.89 86.85 35.98 80.97 37.55 C 74.87 37.85 68.76 39.46 63.48 42.55 C 59.42 45.94 54.53 49.32 53.32 54.82 Z" />
<path fill="#f9ef8a" opacity="1.00" d=" M 37.16 37.40 C 39.08 37.24 41.01 37.10 42.94 36.96 C 42.97 39.90 42.67 43.04 44.15 45.71 C 44.87 47.21 46.17 48.51 46.32 50.25 L 45.68 50.11 C 42.00 46.48 39.31 42.06 37.16 37.40 Z" />
<path fill="#f9ef8a" opacity="1.00" d=" M 82.54 38.92 C 82.93 38.71 83.69 38.29 84.08 38.08 C 87.16 39.13 90.25 40.28 93.10 41.87 C 95.51 44.16 97.07 47.19 99.51 49.47 C 101.16 53.46 101.16 57.82 99.88 61.91 C 97.75 58.15 94.02 55.72 91.63 52.16 C 90.50 50.78 89.49 48.87 87.54 48.59 C 83.38 48.13 79.18 48.42 75.01 48.38 C 67.89 48.33 61.43 51.73 55.02 54.40 C 57.41 49.15 62.29 45.93 66.55 42.34 C 68.26 41.84 69.97 41.32 71.68 40.80 C 75.06 39.09 78.82 38.86 82.54 38.92 Z" />
<path fill="#f9ef8a" opacity="1.00" d=" M 33.91 46.87 L 34.38 46.77 C 36.67 48.34 38.42 50.80 41.24 51.53 C 41.03 49.91 40.70 48.32 40.24 46.77 C 42.71 49.60 45.49 52.14 47.97 54.96 C 43.60 55.19 40.13 52.33 36.66 50.12 C 35.61 49.19 33.93 48.49 33.91 46.87 Z" />
<path fill="#f9ef8a" opacity="1.00" d=" M 26.82 54.37 C 29.40 53.67 31.54 51.97 33.76 50.56 C 35.37 52.18 36.98 53.79 38.62 55.37 C 38.22 57.11 38.27 59.32 36.53 60.33 C 34.16 62.07 31.97 64.02 29.97 66.16 C 30.33 67.04 30.64 67.93 30.90 68.83 C 29.27 71.03 27.38 73.06 26.23 75.59 C 24.58 72.12 21.03 69.90 20.01 66.09 C 18.27 62.25 20.27 58.17 20.19 54.20 C 22.39 54.37 24.62 54.70 26.82 54.37 Z" />
<path fill="#f9ef8a" opacity="1.00" d=" M 56.97 57.92 C 62.35 55.06 67.88 52.02 73.99 51.10 C 83.22 50.35 93.22 54.70 98.15 62.72 C 101.41 67.53 101.34 73.54 100.65 79.07 C 100.24 78.42 99.84 77.78 99.43 77.13 C 99.10 78.68 98.76 80.24 98.42 81.80 C 97.77 81.29 97.11 80.78 96.46 80.27 C 95.90 81.23 95.35 82.19 94.79 83.15 C 94.24 81.26 93.68 79.38 93.21 77.47 C 93.40 75.64 93.59 73.81 93.61 71.98 C 94.00 68.17 90.79 65.26 87.96 63.27 C 83.61 61.04 78.67 60.38 73.95 59.33 C 68.36 58.03 62.58 58.91 56.97 57.92 Z" />
<path fill="#f9ef8a" opacity="1.00" d=" M 41.09 57.33 C 44.86 56.95 48.60 55.31 52.41 56.31 C 54.35 57.91 56.45 59.32 58.62 60.58 C 60.14 64.58 59.96 68.87 59.87 73.07 C 59.65 76.11 61.50 78.68 62.77 81.28 C 60.18 80.13 57.42 79.34 54.94 77.95 C 52.12 75.53 51.60 71.49 51.92 67.98 C 48.18 69.75 42.78 70.66 40.41 66.34 C 39.77 69.47 38.40 72.36 37.23 75.31 C 34.53 83.38 33.11 91.80 30.63 99.94 C 29.47 100.04 28.30 100.15 27.14 100.25 C 27.97 97.42 30.29 95.24 30.57 92.22 C 31.67 85.57 31.46 78.77 30.89 72.08 C 33.63 68.40 36.28 64.16 41.00 62.88 C 40.95 61.03 40.95 59.18 41.09 57.33 Z" />
<path fill="#f9ef8a" opacity="1.00" d=" M 60.37 60.80 C 65.82 60.63 66.83 67.10 70.03 70.26 C 67.65 70.15 65.26 69.95 62.92 69.51 C 60.51 67.28 61.37 63.66 60.37 60.80 Z" />
<path fill="#f9ef8a" opacity="1.00" d=" M 67.27 62.49 C 69.05 62.34 70.83 62.20 72.62 62.07 C 73.83 65.29 74.10 69.06 76.52 71.69 C 76.86 72.88 78.04 74.19 77.15 75.41 C 75.19 70.14 69.89 67.36 67.27 62.49 Z" />
<path fill="#f9ef8a" opacity="1.00" d=" M 75.24 63.16 C 76.70 63.53 78.16 63.91 79.62 64.28 C 80.09 69.54 82.14 74.44 84.15 79.27 C 80.00 74.63 76.85 69.19 75.24 63.16 Z" />
<path fill="#f9ef8a" opacity="1.00" d=" M 82.45 63.95 C 83.75 64.70 85.07 65.46 86.56 65.76 C 85.73 68.18 85.64 70.75 85.46 73.28 C 83.61 70.49 82.47 67.32 82.45 63.95 Z" />
<path fill="#f9ef8a" opacity="1.00" d=" M 37.84 75.93 C 40.69 73.05 44.84 72.95 48.58 72.30 C 46.30 75.00 45.24 78.33 45.82 81.85 C 43.52 79.42 40.66 77.66 37.84 75.93 Z" />
<path fill="#f9ef8a" opacity="1.00" d=" M 27.81 78.48 C 28.53 76.99 29.22 75.49 29.89 73.97 C 29.88 78.35 30.06 82.74 29.60 87.10 C 28.99 84.23 28.38 81.36 27.81 78.48 Z" />
</g>
<g id="#f4be47ff">
<path fill="#f4be47" opacity="1.00" d=" M 62.92 69.51 C 65.26 69.95 67.65 70.15 70.03 70.26 L 70.74 70.30 C 72.28 71.88 73.77 73.51 75.17 75.21 C 70.74 74.23 66.43 72.44 62.92 69.51 Z" />
<path fill="#f4be47" opacity="1.00" d=" M 88.37 86.90 C 87.18 83.35 87.12 79.45 88.23 75.87 C 89.55 79.09 91.90 82.80 90.07 86.29 C 90.02 87.22 88.56 88.53 88.37 86.90 Z" />
<path fill="#f4be47" opacity="1.00" d=" M 46.92 76.34 C 49.11 78.07 50.27 80.55 50.56 83.28 C 48.30 81.64 46.83 79.21 46.92 76.34 Z" />
<path fill="#f4be47" opacity="1.00" d=" M 99.43 77.13 C 99.84 77.78 100.24 78.42 100.65 79.07 C 100.13 81.64 99.42 84.15 98.87 86.71 C 98.77 87.23 98.57 88.27 98.47 88.78 L 97.59 89.09 C 97.35 89.53 96.87 90.40 96.63 90.83 L 96.69 91.59 L 95.59 92.13 C 95.35 92.57 94.87 93.45 94.62 93.90 C 94.54 94.83 93.98 95.53 92.94 96.01 C 92.48 96.32 91.55 96.94 91.08 97.25 C 90.74 90.58 91.84 83.97 93.21 77.47 C 93.68 79.38 94.24 81.26 94.79 83.15 C 95.35 82.19 95.90 81.23 96.46 80.27 C 97.11 80.78 97.77 81.29 98.42 81.80 C 98.76 80.24 99.10 78.68 99.43 77.13 Z" />
</g>
</svg>
