<?xml version="1.0" encoding="UTF-8" ?>
<!DOCTYPE svg PUBLIC "-//W3C//DTD SVG 1.1//EN" "http://www.w3.org/Graphics/SVG/1.1/DTD/svg11.dtd">
<svg width="120pt" height="120pt" viewBox="0 0 120 120" version="1.1" xmlns="http://www.w3.org/2000/svg">
<g id="#1a3720fb">
<path fill="#1a3720" opacity="1.00" d=" M 51.24 42.45 C 53.04 39.17 53.55 32.48 58.57 33.14 C 61.59 36.95 60.57 42.60 61.40 47.22 C 61.74 50.99 62.38 55.12 60.25 58.51 C 60.30 52.64 60.72 46.77 60.03 40.92 C 59.47 38.27 59.62 34.32 56.27 33.59 C 55.03 36.02 53.77 38.45 52.86 41.03 C 50.35 47.85 50.13 55.55 53.37 62.17 C 55.19 61.74 57.00 61.29 58.82 60.83 C 60.31 61.82 61.74 62.94 63.43 63.58 C 65.98 63.92 68.56 63.44 71.10 63.19 C 69.39 63.78 67.67 64.33 65.97 64.95 C 68.11 68.57 68.80 73.18 67.31 77.16 L 67.32 76.12 C 67.38 72.51 67.52 68.51 64.68 65.82 C 60.12 62.59 53.86 61.73 48.90 64.57 L 48.23 64.56 C 45.78 64.09 43.17 63.49 41.32 61.69 C 38.12 58.60 34.98 55.44 31.92 52.21 C 34.84 48.98 39.42 50.31 43.24 50.01 C 43.27 46.28 41.27 43.10 39.99 39.74 L 40.98 40.20 C 42.11 41.91 43.08 43.72 43.77 45.64 C 44.13 49.28 46.64 51.79 49.50 53.77 C 49.85 50.53 50.30 47.30 50.86 44.09 C 49.74 42.97 48.63 41.83 47.46 40.76 C 45.68 39.83 43.82 39.09 41.94 38.41 C 45.69 36.97 48.62 40.32 51.24 42.45 M 33.84 51.23 C 34.44 53.67 36.46 55.22 38.30 56.73 C 40.46 59.32 42.81 62.07 46.14 63.11 C 48.12 63.54 50.00 62.46 51.85 61.94 C 50.71 56.07 45.93 49.99 39.34 50.96 C 37.50 51.03 35.67 51.10 33.84 51.23 Z" />
</g>
<g id="#a5d480ff">
<path fill="#a5d480" opacity="1.00" d=" M 56.27 33.59 C 59.62 34.32 59.47 38.27 60.03 40.92 C 58.36 41.59 56.71 42.26 55.05 42.95 C 54.32 42.31 53.59 41.67 52.86 41.03 C 53.77 38.45 55.03 36.02 56.27 33.59 Z" />
</g>
<g id="#1d3629f5">
<path fill="#1d3629" opacity="0.96" d=" M 67.90 42.03 C 71.99 38.75 77.44 37.22 82.62 38.25 C 83.78 38.70 84.22 39.53 83.94 40.74 C 82.67 41.27 81.36 41.70 80.04 42.09 C 80.82 41.10 81.56 40.07 82.28 39.04 C 78.76 38.76 75.25 39.29 71.99 40.66 C 70.63 41.13 69.26 41.57 67.90 42.03 Z" />
</g>
<g id="#9bc879ff">
<path fill="#9bc879" opacity="1.00" d=" M 41.94 38.41 C 43.82 39.09 45.68 39.83 47.46 40.76 C 46.27 42.41 45.04 44.05 43.77 45.64 C 43.08 43.72 42.11 41.91 40.98 40.20 C 41.22 39.75 41.70 38.86 41.94 38.41 Z" />
</g>
<g id="#a0ce7bff">
<path fill="#a0ce7b" opacity="1.00" d=" M 71.99 40.66 C 75.25 39.29 78.76 38.76 82.28 39.04 C 81.56 40.07 80.82 41.10 80.04 42.09 C 79.10 43.18 78.05 44.17 77.04 45.19 C 75.50 44.93 73.97 44.68 72.44 44.43 C 72.30 43.17 72.15 41.92 71.99 40.66 Z" />
</g>
<g id="#4bb037ff">
<path fill="#4bb037" opacity="1.00" d=" M 47.46 40.76 C 48.63 41.83 49.74 42.97 50.86 44.09 C 50.30 47.30 49.85 50.53 49.50 53.77 C 46.64 51.79 44.13 49.28 43.77 45.64 C 45.04 44.05 46.27 42.41 47.46 40.76 Z" />
</g>
<g id="#4aad36ff">
<path fill="#4aad36" opacity="1.00" d=" M 52.86 41.03 C 53.59 41.67 54.32 42.31 55.05 42.95 C 56.71 42.26 58.36 41.59 60.03 40.92 C 60.72 46.77 60.30 52.64 60.25 58.51 C 62.38 55.12 61.74 50.99 61.40 47.22 C 62.64 46.22 63.61 44.77 65.13 44.16 C 65.57 43.89 66.45 43.36 66.89 43.09 C 67.14 42.82 67.65 42.30 67.90 42.03 C 69.26 41.57 70.63 41.13 71.99 40.66 C 72.15 41.92 72.30 43.17 72.44 44.43 C 73.97 44.68 75.50 44.93 77.04 45.19 C 76.39 46.75 75.65 48.28 74.88 49.79 C 71.96 49.73 69.17 50.69 66.49 51.73 C 70.30 51.34 74.12 50.86 77.96 50.81 C 77.04 51.88 76.10 52.94 75.29 54.09 C 76.42 55.35 77.78 56.36 79.09 57.41 C 76.67 59.63 74.17 61.90 71.10 63.19 C 68.56 63.44 65.98 63.92 63.43 63.58 C 61.74 62.94 60.31 61.82 58.82 60.83 C 57.00 61.29 55.19 61.74 53.37 62.17 C 50.13 55.55 50.35 47.85 52.86 41.03 Z" />
</g>
<g id="#071823ff">
<path fill="#071823" opacity="1.00" d=" M 65.15 43.26 L 66.06 42.71 L 66.89 43.09 C 66.45 43.36 65.57 43.89 65.13 44.16 L 65.15 43.26 Z" />
</g>
<g id="#1e3824ff">
<path fill="#1e3824" opacity="1.00" d=" M 66.49 51.73 C 69.17 50.69 71.96 49.73 74.88 49.79 C 79.39 49.87 83.88 50.40 88.31 51.31 C 87.86 53.32 85.60 53.53 84.00 54.17 C 84.37 53.75 85.13 52.89 85.50 52.46 C 83.11 51.46 80.57 50.84 77.96 50.81 C 74.12 50.86 70.30 51.34 66.49 51.73 Z" />
</g>
<g id="#99c477ff">
<path fill="#99c477" opacity="1.00" d=" M 33.84 51.23 C 35.67 51.10 37.50 51.03 39.34 50.96 C 39.20 52.91 38.88 54.86 38.30 56.73 C 36.46 55.22 34.44 53.67 33.84 51.23 Z" />
</g>
<g id="#49ad36ff">
<path fill="#49ad36" opacity="1.00" d=" M 39.34 50.96 C 45.93 49.99 50.71 56.07 51.85 61.94 C 50.00 62.46 48.12 63.54 46.14 63.11 C 42.81 62.07 40.46 59.32 38.30 56.73 C 38.88 54.86 39.20 52.91 39.34 50.96 Z" />
</g>
<g id="#9fcc7cff">
<path fill="#9fcc7c" opacity="1.00" d=" M 77.96 50.81 C 80.57 50.84 83.11 51.46 85.50 52.46 C 85.13 52.89 84.37 53.75 84.00 54.17 C 83.45 54.34 82.36 54.67 81.81 54.83 C 81.36 55.09 80.45 55.60 80.00 55.85 C 79.77 56.24 79.32 57.02 79.09 57.41 C 77.78 56.36 76.42 55.35 75.29 54.09 C 76.10 52.94 77.04 51.88 77.96 50.81 Z" />
</g>
<g id="#3f5132ff">
<path fill="#3f5132" opacity="1.00" d=" M 80.00 55.85 C 80.45 55.60 81.36 55.09 81.81 54.83 L 81.76 55.72 L 80.83 56.24 L 80.00 55.85 Z" />
</g>
<g id="#6093b9ff">
<path fill="#6093b9" opacity="1.00" d=" M 48.90 64.57 C 53.86 61.73 60.12 62.59 64.68 65.82 C 63.78 67.53 63.09 69.40 61.78 70.85 C 60.64 71.57 59.17 71.15 57.89 71.29 C 57.87 70.86 57.84 70.02 57.82 69.59 L 57.04 69.55 C 55.46 69.93 55.46 70.52 57.06 71.30 C 54.24 71.88 51.24 72.08 49.19 69.65 L 48.47 69.09 C 48.69 67.59 48.79 66.08 48.90 64.57 Z" />
</g>
<g id="#5684a6ff">
<path fill="#5684a6" opacity="1.00" d=" M 48.23 64.56 L 48.90 64.57 C 48.79 66.08 48.69 67.59 48.47 69.09 C 46.29 69.98 49.24 72.07 49.19 69.65 C 51.24 72.08 54.24 71.88 57.06 71.30 L 57.89 71.29 C 59.17 71.15 60.64 71.57 61.78 70.85 C 63.09 69.40 63.78 67.53 64.68 65.82 C 67.52 68.51 67.38 72.51 67.32 76.12 C 60.14 77.53 52.83 77.26 45.61 76.42 C 42.89 73.68 44.57 69.92 45.86 66.93 C 46.60 66.10 47.39 65.31 48.23 64.56 Z" />
<path fill="#5684a6" opacity="1.00" d=" M 54.55 81.24 C 57.48 81.72 61.26 80.90 63.04 83.93 C 59.96 85.11 55.98 84.59 54.55 81.24 Z" />
</g>
<g id="#152432ff">
<path fill="#152432" opacity="1.00" d=" M 43.24 75.60 C 42.50 72.47 43.17 68.94 45.86 66.93 C 44.57 69.92 42.89 73.68 45.61 76.42 C 50.78 80.79 57.88 79.97 64.08 79.05 C 63.61 79.36 62.66 79.98 62.19 80.29 C 63.06 81.66 63.77 83.13 64.23 84.70 C 62.08 85.54 59.78 86.36 57.48 85.55 C 52.97 84.17 48.02 85.96 43.68 83.90 C 45.25 81.76 47.68 80.86 50.22 80.52 C 47.63 79.30 44.95 77.98 43.24 75.60 M 45.44 83.24 C 48.02 84.98 51.24 84.08 54.12 84.02 C 53.71 82.95 53.30 81.89 52.89 80.83 C 50.35 81.46 47.85 82.22 45.44 83.24 M 54.55 81.24 C 55.98 84.59 59.96 85.11 63.04 83.93 C 61.26 80.90 57.48 81.72 54.55 81.24 Z" />
</g>
<g id="#efb1a9ff">
<path fill="#efb1a9" opacity="1.00" d=" M 49.19 69.65 C 49.24 72.07 46.29 69.98 48.47 69.09 L 49.19 69.65 Z" />
</g>
<g id="#333846ff">
<path fill="#333846" opacity="1.00" d=" M 57.06 71.30 C 55.46 70.52 55.46 69.93 57.04 69.55 C 57.05 69.98 57.06 70.86 57.06 71.30 Z" />
</g>
<g id="#f68171ff">
<path fill="#f68171" opacity="1.00" d=" M 57.04 69.55 L 57.82 69.59 C 57.84 70.02 57.87 70.86 57.89 71.29 L 57.06 71.30 C 57.06 70.86 57.05 69.98 57.04 69.55 Z" />
</g>
<g id="#3f6086ff">
<path fill="#3f6086" opacity="1.00" d=" M 45.61 76.42 C 52.83 77.26 60.14 77.53 67.32 76.12 L 67.31 77.16 C 66.45 78.11 65.44 79.00 64.08 79.05 C 57.88 79.97 50.78 80.79 45.61 76.42 Z" />
</g>
<g id="#406181ff">
<path fill="#406181" opacity="1.00" d=" M 45.44 83.24 C 47.85 82.22 50.35 81.46 52.89 80.83 C 53.30 81.89 53.71 82.95 54.12 84.02 C 51.24 84.08 48.02 84.98 45.44 83.24 Z" />
</g>
</svg>
