<?xml version="1.0" encoding="UTF-8" ?>
<!DOCTYPE svg PUBLIC "-//W3C//DTD SVG 1.1//EN" "http://www.w3.org/Graphics/SVG/1.1/DTD/svg11.dtd">
<svg width="120pt" height="120pt" viewBox="0 0 120 120" version="1.1" xmlns="http://www.w3.org/2000/svg">
<g id="#423f30ff">
<path fill="#423f30" opacity="1.00" d=" M 62.56 36.27 C 64.69 36.24 66.70 35.51 68.79 35.22 C 71.01 35.89 73.40 35.96 75.56 36.85 C 76.11 36.92 77.22 37.05 77.77 37.12 C 80.48 40.10 82.25 43.95 82.88 47.91 C 82.72 52.12 85.19 56.28 83.40 60.41 C 82.50 65.42 83.48 72.14 78.68 75.43 C 79.64 73.58 80.55 71.70 81.46 69.82 C 78.68 70.97 75.88 72.06 73.04 73.03 C 72.52 72.75 71.49 72.21 70.97 71.94 C 69.76 72.06 68.55 72.18 67.35 72.30 C 66.59 73.77 66.58 76.05 64.74 76.66 C 63.25 76.95 61.72 76.97 60.22 77.08 C 59.02 75.33 57.91 73.52 56.92 71.65 C 56.10 73.05 55.28 74.45 54.37 75.80 L 53.14 76.27 C 53.91 74.84 54.95 73.53 55.40 71.95 C 54.33 69.69 52.07 68.46 49.59 69.03 L 49.99 67.88 C 51.21 67.87 52.43 67.88 53.65 67.91 C 54.06 68.39 54.87 69.35 55.28 69.84 C 56.69 69.82 58.10 69.82 59.51 69.81 C 60.31 69.06 61.13 68.33 61.95 67.61 C 64.68 67.98 67.29 68.92 69.55 70.52 C 71.02 70.98 72.50 71.43 73.97 71.90 C 74.24 71.47 74.77 70.61 75.04 70.18 C 75.47 70.43 76.34 70.92 76.77 71.17 C 77.26 70.04 77.74 68.92 78.22 67.80 C 79.45 67.67 80.68 67.55 81.91 67.43 C 81.08 63.28 81.27 59.04 81.10 54.84 L 81.74 54.79 C 82.01 56.47 82.28 58.15 82.63 59.81 C 83.28 56.72 83.01 53.49 80.60 51.24 C 80.28 50.63 79.65 49.43 79.33 48.82 C 77.16 49.14 75.95 50.99 74.59 52.49 C 75.74 49.61 77.63 46.89 77.19 43.63 C 77.91 46.81 79.99 49.37 82.13 51.73 C 82.15 47.38 80.68 43.16 78.20 39.62 C 77.89 39.25 77.25 38.50 76.93 38.13 C 74.63 37.61 72.31 36.86 69.92 37.21 L 68.89 37.52 C 69.03 37.07 69.30 36.18 69.44 35.73 C 68.71 36.00 67.25 36.54 66.52 36.81 C 63.41 37.21 60.35 37.99 57.45 39.19 C 57.07 39.72 56.33 40.78 55.95 41.31 C 55.68 37.62 60.11 37.45 62.56 36.27 M 58.97 71.32 C 57.68 75.38 64.99 78.37 66.06 73.90 C 67.12 71.67 64.86 70.30 63.75 68.72 C 61.74 68.70 60.32 70.01 58.97 71.32 Z" />
<path fill="#423f30" opacity="1.00" d=" M 50.61 70.08 C 51.19 70.03 52.35 69.93 52.92 69.89 C 53.52 71.20 54.74 72.97 53.26 74.20 C 52.06 76.09 49.72 74.02 48.23 73.79 C 49.49 75.27 51.12 76.20 53.09 76.29 L 52.40 76.93 C 51.33 76.95 50.25 76.96 49.17 76.97 C 48.40 75.39 47.65 73.80 46.79 72.26 L 48.03 73.20 C 49.14 72.39 49.82 71.17 50.61 70.08 Z" />
<path fill="#423f30" opacity="1.00" d=" M 59.80 72.29 C 60.77 70.93 62.65 68.79 64.10 70.93 C 66.56 72.89 63.81 75.75 61.28 75.07 C 60.82 74.13 60.32 73.20 59.80 72.29 Z" />
</g>
<g id="#fff4c6ff">
<path fill="#fff4c6" opacity="1.00" d=" M 66.52 36.81 C 67.25 36.54 68.71 36.00 69.44 35.73 C 69.30 36.18 69.03 37.07 68.89 37.52 C 67.28 38.07 65.66 38.60 64.04 39.11 C 63.42 40.08 62.80 41.06 62.19 42.04 C 62.63 42.15 63.52 42.37 63.96 42.48 C 63.50 42.78 62.58 43.38 62.12 43.69 C 64.01 44.26 66.19 44.54 67.99 43.55 C 69.04 42.80 70.68 42.35 70.90 40.87 C 70.63 39.64 70.30 38.42 69.92 37.21 C 72.31 36.86 74.63 37.61 76.93 38.13 C 77.25 38.50 77.89 39.25 78.20 39.62 C 77.82 40.05 77.05 40.89 76.67 41.32 L 76.52 41.48 L 76.40 41.67 C 75.49 43.13 74.56 44.60 73.94 46.21 C 74.00 46.53 74.11 47.16 74.16 47.47 L 74.16 47.72 C 73.73 49.60 73.20 51.45 72.79 53.34 C 71.67 52.77 70.55 52.69 69.42 53.09 C 69.32 54.49 71.39 54.63 72.38 55.01 C 71.72 57.12 71.00 59.22 70.17 61.27 C 63.47 60.84 56.76 60.93 50.06 61.08 C 50.14 59.48 50.21 57.85 50.81 56.34 C 50.89 55.69 51.05 54.38 51.13 53.72 C 51.57 53.80 52.46 53.94 52.90 54.02 C 51.33 53.31 50.58 51.89 51.80 50.34 C 51.93 49.43 52.06 48.53 52.19 47.62 C 52.48 46.97 53.08 45.66 53.37 45.01 C 53.71 45.00 54.39 44.98 54.73 44.97 C 54.48 44.56 53.99 43.75 53.75 43.34 C 54.52 42.70 55.25 42.02 55.95 41.31 C 56.33 40.78 57.07 39.72 57.45 39.19 C 60.35 37.99 63.41 37.21 66.52 36.81 M 56.34 43.30 C 56.74 44.62 60.41 44.68 60.81 43.33 C 59.51 42.57 57.65 42.56 56.34 43.30 M 70.43 44.08 C 70.58 47.39 73.43 42.55 70.43 44.08 M 53.62 52.67 C 57.81 53.02 62.19 53.59 66.29 52.37 C 62.10 51.96 57.71 51.40 53.62 52.67 Z" />
</g>
<g id="#fffff0ff">
<path fill="#fffff0" opacity="1.00" d=" M 64.04 39.11 C 65.66 38.60 67.28 38.07 68.89 37.52 L 69.92 37.21 C 70.30 38.42 70.63 39.64 70.90 40.87 C 70.68 42.35 69.04 42.80 67.99 43.55 C 66.68 43.09 65.33 42.73 63.96 42.48 C 63.52 42.37 62.63 42.15 62.19 42.04 C 62.80 41.06 63.42 40.08 64.04 39.11 Z" />
<path fill="#fffff0" opacity="1.00" d=" M 49.59 69.03 C 52.07 68.46 54.33 69.69 55.40 71.95 C 54.95 73.53 53.91 74.84 53.14 76.27 L 53.09 76.29 C 51.12 76.20 49.49 75.27 48.23 73.79 C 49.72 74.02 52.06 76.09 53.26 74.20 C 54.74 72.97 53.52 71.20 52.92 69.89 C 52.35 69.93 51.19 70.03 50.61 70.08 C 49.82 71.17 49.14 72.39 48.03 73.20 C 48.27 72.60 48.75 71.38 48.99 70.78 C 49.14 70.34 49.44 69.47 49.59 69.03 Z" />
<path fill="#fffff0" opacity="1.00" d=" M 58.97 71.32 C 60.32 70.01 61.74 68.70 63.75 68.72 C 64.86 70.30 67.12 71.67 66.06 73.90 C 64.99 78.37 57.68 75.38 58.97 71.32 M 59.80 72.29 C 60.32 73.20 60.82 74.13 61.28 75.07 C 63.81 75.75 66.56 72.89 64.10 70.93 C 62.65 68.79 60.77 70.93 59.80 72.29 Z" />
</g>
<g id="#eae1b9ff">
<path fill="#eae1b9" opacity="1.00" d=" M 76.67 41.32 C 77.05 40.89 77.82 40.05 78.20 39.62 C 80.68 43.16 82.15 47.38 82.13 51.73 C 79.99 49.37 77.91 46.81 77.19 43.63 C 77.63 46.89 75.74 49.61 74.59 52.49 C 75.95 50.99 77.16 49.14 79.33 48.82 C 79.65 49.43 80.28 50.63 80.60 51.24 C 80.38 52.68 79.67 53.74 78.50 54.42 L 78.50 54.28 C 78.45 54.35 78.35 54.49 78.30 54.56 C 75.96 57.15 77.24 60.95 77.11 64.10 L 76.61 64.78 C 76.26 65.22 75.56 66.09 75.21 66.53 C 75.06 61.91 74.97 57.29 75.31 52.68 L 74.03 52.71 C 74.13 58.39 73.51 64.10 74.33 69.75 C 74.50 69.86 74.86 70.08 75.04 70.18 C 74.77 70.61 74.24 71.47 73.97 71.90 C 72.50 71.43 71.02 70.98 69.55 70.52 C 67.29 68.92 64.68 67.98 61.95 67.61 C 64.97 67.17 68.03 67.44 71.05 67.76 C 70.69 65.75 70.33 63.76 69.95 61.76 L 70.17 61.27 C 71.00 59.22 71.72 57.12 72.38 55.01 C 72.48 54.59 72.69 53.76 72.79 53.34 C 73.20 51.45 73.73 49.60 74.16 47.72 C 74.16 47.66 74.16 47.53 74.16 47.47 C 74.11 47.16 74.00 46.53 73.94 46.21 C 74.56 44.60 75.49 43.13 76.40 41.67 L 76.52 41.50 L 76.67 41.32 M 71.45 62.09 C 71.59 65.39 74.46 60.57 71.45 62.09 Z" />
</g>
<g id="#95753bff">
<path fill="#95753b" opacity="1.00" d=" M 76.52 41.48 L 76.67 41.32 L 76.52 41.50 L 76.40 41.67 L 76.52 41.48 Z" />
</g>
<g id="#172123d5">
<path fill="#172123" opacity="0.84" d=" M 53.37 42.72 L 53.75 43.34 C 53.99 43.75 54.48 44.56 54.73 44.97 C 54.39 44.98 53.71 45.00 53.37 45.01 C 53.08 45.66 52.48 46.97 52.19 47.62 C 52.06 48.53 51.93 49.43 51.80 50.34 C 50.58 51.89 51.33 53.31 52.90 54.02 C 52.46 53.94 51.57 53.80 51.13 53.72 C 51.05 54.38 50.89 55.69 50.81 56.34 C 50.21 57.85 50.14 59.48 50.06 61.08 L 50.00 61.95 C 49.55 63.28 48.79 64.47 47.83 65.49 C 49.97 57.97 49.48 49.73 53.37 42.72 Z" />
</g>
<g id="#b49a64ff">
<path fill="#b49a64" opacity="1.00" d=" M 56.34 43.30 C 57.65 42.56 59.51 42.57 60.81 43.33 C 60.41 44.68 56.74 44.62 56.34 43.30 Z" />
</g>
<g id="#d0af6cff">
<path fill="#d0af6c" opacity="1.00" d=" M 62.12 43.69 C 62.58 43.38 63.50 42.78 63.96 42.48 C 65.33 42.73 66.68 43.09 67.99 43.55 C 66.19 44.54 64.01 44.26 62.12 43.69 Z" />
</g>
<g id="#c3af7eff">
<path fill="#c3af7e" opacity="1.00" d=" M 70.43 44.08 C 73.43 42.55 70.58 47.39 70.43 44.08 Z" />
</g>
<g id="#b8a97dff">
<path fill="#b8a97d" opacity="1.00" d=" M 74.16 47.47 C 74.16 47.53 74.16 47.66 74.16 47.72 L 74.16 47.47 Z" />
</g>
<g id="#a98b50ff">
<path fill="#a98b50" opacity="1.00" d=" M 53.62 52.67 C 57.71 51.40 62.10 51.96 66.29 52.37 C 62.19 53.59 57.81 53.02 53.62 52.67 Z" />
</g>
<g id="#bdb58fff">
<path fill="#bdb58f" opacity="1.00" d=" M 80.60 51.24 C 83.01 53.49 83.28 56.72 82.63 59.81 C 82.28 58.15 82.01 56.47 81.74 54.79 L 81.10 54.84 C 81.27 59.04 81.08 63.28 81.91 67.43 C 80.68 67.55 79.45 67.67 78.22 67.80 C 77.74 68.92 77.26 70.04 76.77 71.17 C 76.34 70.92 75.47 70.43 75.04 70.18 C 74.86 70.08 74.50 69.86 74.33 69.75 C 74.65 68.68 74.94 67.61 75.21 66.53 C 75.56 66.09 76.26 65.22 76.61 64.78 C 76.92 65.11 77.53 65.76 77.84 66.08 C 77.65 65.58 77.29 64.59 77.11 64.10 C 77.24 60.95 75.96 57.15 78.30 54.56 L 78.50 54.42 C 79.67 53.74 80.38 52.68 80.60 51.24 M 78.27 58.89 C 78.40 58.91 78.66 58.95 78.79 58.97 C 79.82 58.23 80.06 57.31 79.53 56.20 C 78.14 55.61 77.46 58.03 78.27 58.89 M 78.20 61.34 C 78.72 61.81 78.72 61.81 78.20 61.34 Z" />
</g>
<g id="#c1ad7cff">
<path fill="#c1ad7c" opacity="1.00" d=" M 69.42 53.09 C 70.55 52.69 71.67 52.77 72.79 53.34 C 72.69 53.76 72.48 54.59 72.38 55.01 C 71.39 54.63 69.32 54.49 69.42 53.09 Z" />
</g>
<g id="#817d67ff">
<path fill="#817d67" opacity="1.00" d=" M 74.03 52.71 L 75.31 52.68 C 74.97 57.29 75.06 61.91 75.21 66.53 C 74.94 67.61 74.65 68.68 74.33 69.75 C 73.51 64.10 74.13 58.39 74.03 52.71 Z" />
</g>
<g id="#826934ff">
<path fill="#826934" opacity="1.00" d=" M 78.30 54.56 C 78.35 54.49 78.45 54.35 78.50 54.28 L 78.50 54.42 L 78.30 54.56 Z" />
</g>
<g id="#dcd5afff">
<path fill="#dcd5af" opacity="1.00" d=" M 78.27 58.89 C 77.46 58.03 78.14 55.61 79.53 56.20 C 80.06 57.31 79.82 58.23 78.79 58.97 L 78.27 58.89 Z" />
</g>
<g id="#7d673aff">
<path fill="#7d673a" opacity="1.00" d=" M 78.27 58.89 L 78.79 58.97 C 78.66 58.95 78.40 58.91 78.27 58.89 Z" />
</g>
<g id="#a68952ff">
<path fill="#a68952" opacity="1.00" d=" M 50.06 61.08 C 56.76 60.93 63.47 60.84 70.17 61.27 L 69.95 61.76 C 63.31 62.25 56.65 61.94 50.00 61.95 L 50.06 61.08 Z" />
</g>
<g id="#786235ff">
<path fill="#786235" opacity="1.00" d=" M 78.20 61.34 C 78.72 61.81 78.72 61.81 78.20 61.34 Z" />
</g>
<g id="#fcf1c4ff">
<path fill="#fcf1c4" opacity="1.00" d=" M 50.00 61.95 C 56.65 61.94 63.31 62.25 69.95 61.76 C 70.33 63.76 70.69 65.75 71.05 67.76 C 68.03 67.44 64.97 67.17 61.95 67.61 C 61.13 68.33 60.31 69.06 59.51 69.81 C 58.10 69.82 56.69 69.82 55.28 69.84 C 54.87 69.35 54.06 68.39 53.65 67.91 C 52.43 67.88 51.21 67.87 49.99 67.88 L 49.59 69.03 C 49.44 69.47 49.14 70.34 48.99 70.78 C 48.37 69.80 47.75 68.83 47.13 67.86 C 47.26 67.32 47.52 66.25 47.64 65.72 L 47.83 65.49 C 48.79 64.47 49.55 63.28 50.00 61.95 Z" />
</g>
<g id="#a18c5dff">
<path fill="#a18c5d" opacity="1.00" d=" M 71.45 62.09 C 74.46 60.57 71.59 65.39 71.45 62.09 Z" />
</g>
<g id="#755f33ff">
<path fill="#755f33" opacity="1.00" d=" M 77.11 64.10 C 77.29 64.59 77.65 65.58 77.84 66.08 C 77.53 65.76 76.92 65.11 76.61 64.78 L 77.11 64.10 Z" />
</g>
<g id="#263e46fc">
<path fill="#263e46" opacity="1.00" d=" M 46.22 66.53 L 47.13 67.86 C 47.75 68.83 48.37 69.80 48.99 70.78 C 48.75 71.38 48.27 72.60 48.03 73.20 L 46.79 72.26 C 44.14 70.25 40.81 69.46 37.63 68.72 C 40.18 73.06 44.15 76.23 48.78 78.15 C 49.16 79.21 49.55 80.27 49.93 81.33 C 49.29 81.79 48.02 82.71 47.38 83.17 C 50.17 83.58 51.96 81.76 53.38 79.64 C 52.89 81.19 52.40 82.75 51.93 84.30 C 53.20 83.79 54.47 83.26 55.73 82.74 C 55.91 81.90 56.27 80.24 56.45 79.41 C 56.78 80.73 57.11 82.06 57.44 83.38 C 59.53 83.08 60.66 81.36 61.64 79.69 C 61.80 80.23 62.11 81.33 62.27 81.88 C 63.06 81.94 64.64 82.05 65.43 82.11 C 65.12 81.46 64.49 80.14 64.18 79.48 C 65.69 80.57 67.12 81.76 68.51 82.99 C 69.26 83.03 70.77 83.09 71.52 83.13 C 70.89 82.64 69.61 81.68 68.97 81.19 C 69.17 80.33 69.39 79.48 69.63 78.63 C 72.22 77.90 74.78 77.09 77.28 76.10 L 77.99 75.83 C 78.03 76.49 78.11 77.83 78.15 78.49 C 79.31 79.79 79.48 82.07 77.62 82.86 C 75.54 83.21 73.19 82.54 71.38 83.90 C 66.55 84.14 61.71 83.92 56.88 83.99 C 54.68 83.77 52.52 85.83 50.49 84.30 C 47.89 83.66 45.29 83.01 42.62 82.70 C 43.48 81.01 44.80 79.64 46.17 78.35 C 43.51 77.04 40.55 75.72 39.04 73.02 C 38.13 71.58 36.95 70.35 35.76 69.14 C 39.04 66.61 42.82 68.83 45.96 70.34 C 46.03 69.39 46.16 67.48 46.22 66.53 M 75.53 78.09 C 75.22 79.43 75.76 80.03 77.16 79.88 C 77.46 78.47 76.92 77.87 75.53 78.09 M 70.26 79.74 C 70.22 79.92 70.14 80.27 70.09 80.45 C 72.14 81.01 74.17 81.60 76.22 82.15 C 75.89 81.63 75.25 80.60 74.92 80.08 C 73.36 80.00 71.81 79.90 70.26 79.74 M 44.28 81.79 C 45.66 82.29 48.53 81.86 48.80 80.25 C 47.42 79.59 44.66 80.28 44.28 81.79 M 77.16 79.88 C 77.62 80.58 77.62 80.58 77.16 79.88 Z" />
</g>
<g id="#7fd0eaff">
<path fill="#7fd0ea" opacity="1.00" d=" M 37.63 68.72 C 40.81 69.46 44.14 70.25 46.79 72.26 C 47.65 73.80 48.40 75.39 49.17 76.97 C 50.25 76.96 51.33 76.95 52.40 76.93 L 53.09 76.29 L 53.14 76.27 L 54.37 75.80 C 55.28 74.45 56.10 73.05 56.92 71.65 C 57.91 73.52 59.02 75.33 60.22 77.08 C 61.72 76.97 63.25 76.95 64.74 76.66 C 66.58 76.05 66.59 73.77 67.35 72.30 C 68.55 72.18 69.76 72.06 70.97 71.94 C 71.49 72.21 72.52 72.75 73.04 73.03 C 75.88 72.06 78.68 70.97 81.46 69.82 C 80.55 71.70 79.64 73.58 78.68 75.43 C 78.33 75.60 77.63 75.94 77.28 76.10 C 74.78 77.09 72.22 77.90 69.63 78.63 C 69.39 79.48 69.17 80.33 68.97 81.19 C 69.61 81.68 70.89 82.64 71.52 83.13 C 70.77 83.09 69.26 83.03 68.51 82.99 C 67.12 81.76 65.69 80.57 64.18 79.48 C 64.49 80.14 65.12 81.46 65.43 82.11 C 64.64 82.05 63.06 81.94 62.27 81.88 C 62.11 81.33 61.80 80.23 61.64 79.69 C 60.66 81.36 59.53 83.08 57.44 83.38 C 57.11 82.06 56.78 80.73 56.45 79.41 C 56.27 80.24 55.91 81.90 55.73 82.74 C 54.47 83.26 53.20 83.79 51.93 84.30 C 52.40 82.75 52.89 81.19 53.38 79.64 C 51.96 81.76 50.17 83.58 47.38 83.17 C 48.02 82.71 49.29 81.79 49.93 81.33 C 49.55 80.27 49.16 79.21 48.78 78.15 C 44.15 76.23 40.18 73.06 37.63 68.72 Z" />
<path fill="#7fd0ea" opacity="1.00" d=" M 70.26 79.74 C 71.81 79.90 73.36 80.00 74.92 80.08 C 75.25 80.60 75.89 81.63 76.22 82.15 C 74.17 81.60 72.14 81.01 70.09 80.45 C 70.14 80.27 70.22 79.92 70.26 79.74 Z" />
</g>
<g id="#8a815dff">
<path fill="#8a815d" opacity="1.00" d=" M 75.53 78.09 C 76.92 77.87 77.46 78.47 77.16 79.88 C 75.76 80.03 75.22 79.43 75.53 78.09 Z" />
</g>
<g id="#7ac9e2ff">
<path fill="#7ac9e2" opacity="1.00" d=" M 44.28 81.79 C 44.66 80.28 47.42 79.59 48.80 80.25 C 48.53 81.86 45.66 82.29 44.28 81.79 Z" />
</g>
<g id="#7e7758ff">
<path fill="#7e7758" opacity="1.00" d=" M 77.16 79.88 C 77.62 80.58 77.62 80.58 77.16 79.88 Z" />
</g>
</svg>
