<?xml version="1.0" encoding="UTF-8" ?>
<!DOCTYPE svg PUBLIC "-//W3C//DTD SVG 1.1//EN" "http://www.w3.org/Graphics/SVG/1.1/DTD/svg11.dtd">
<svg width="120pt" height="120pt" viewBox="0 0 120 120" version="1.1" xmlns="http://www.w3.org/2000/svg">
<g id="#202b2be4">
<path fill="#202b2b" opacity="0.89" d=" M 61.73 26.02 L 62.74 26.01 C 63.55 28.03 64.51 29.98 65.32 31.99 C 65.68 32.00 66.40 32.00 66.75 32.00 C 67.03 30.79 67.31 29.57 67.57 28.36 C 67.89 27.07 68.57 26.02 69.60 25.19 C 69.34 26.11 68.81 27.96 68.54 28.89 L 68.08 29.39 C 68.15 30.11 68.30 31.56 68.37 32.28 C 67.18 32.67 65.99 33.07 64.81 33.46 C 63.98 31.67 63.18 29.87 62.45 28.05 C 62.38 27.86 62.23 27.47 62.16 27.28 L 61.73 26.02 Z" />
</g>
<g id="#67634eff">
<path fill="#67634e" opacity="1.00" d=" M 69.60 25.19 L 69.73 24.72 C 70.17 27.50 70.72 30.26 71.06 33.04 L 71.22 33.97 C 70.15 33.71 69.08 33.45 68.01 33.19 C 67.37 34.25 66.75 35.32 66.14 36.40 C 65.70 35.42 65.25 34.44 64.81 33.46 C 65.99 33.07 67.18 32.67 68.37 32.28 C 70.61 32.25 70.37 29.48 68.54 28.89 C 68.81 27.96 69.34 26.11 69.60 25.19 Z" />
</g>
<g id="#2f3734f1">
<path fill="#2f3734" opacity="0.95" d=" M 61.35 26.62 L 62.16 27.28 C 62.23 27.47 62.38 27.86 62.45 28.05 C 61.53 30.68 60.87 33.39 60.05 36.06 C 62.25 36.12 64.45 36.24 66.62 36.64 C 64.28 36.90 61.93 36.95 59.58 37.00 C 59.30 36.47 58.74 35.41 58.46 34.88 L 57.93 33.93 C 58.41 33.95 59.36 33.98 59.84 34.00 C 60.16 31.51 60.66 29.04 61.35 26.62 Z" />
</g>
<g id="#fff4c6ff">
<path fill="#fff4c6" opacity="1.00" d=" M 62.45 28.05 C 63.18 29.87 63.98 31.67 64.81 33.46 C 65.25 34.44 65.70 35.42 66.14 36.40 C 66.75 35.32 67.37 34.25 68.01 33.19 C 69.08 33.45 70.15 33.71 71.22 33.97 C 72.77 34.38 74.35 34.73 75.92 35.07 C 76.42 36.15 76.93 37.23 77.40 38.32 C 78.31 40.79 77.21 43.19 76.36 45.49 C 75.79 45.07 74.67 44.24 74.11 43.82 C 73.78 45.22 74.97 46.27 75.95 47.04 L 75.92 48.56 C 75.44 51.36 74.57 54.08 74.08 56.87 C 71.69 55.53 69.19 54.32 66.49 53.74 C 68.81 54.92 71.21 55.95 73.57 57.07 C 73.18 60.94 73.93 64.99 72.80 68.74 C 70.18 67.47 69.22 63.85 66.39 62.52 C 67.45 64.82 71.73 66.95 69.82 69.68 C 67.55 70.38 66.28 67.23 64.55 66.17 C 63.26 66.06 61.98 65.95 60.69 65.84 C 59.70 66.69 58.72 67.55 57.79 68.47 C 55.16 68.47 52.50 68.42 49.97 67.64 C 48.77 66.57 47.79 64.75 45.93 64.96 C 44.31 65.70 43.02 66.97 41.65 68.09 C 42.42 66.06 42.65 63.57 44.49 62.16 C 45.93 61.71 47.49 61.89 48.97 61.75 L 48.88 60.89 C 47.26 61.12 45.64 61.37 44.03 61.63 C 44.51 59.99 44.98 58.34 45.41 56.69 C 45.60 55.99 45.97 54.59 46.15 53.89 C 47.43 54.54 48.35 54.23 48.91 52.96 C 48.26 53.02 46.97 53.14 46.32 53.20 L 46.46 52.67 C 46.74 51.65 47.02 50.63 47.32 49.62 C 47.65 48.61 47.97 47.59 48.26 46.56 C 48.77 45.60 49.30 44.63 49.83 43.68 C 50.36 42.42 50.89 41.15 51.40 39.89 C 51.87 40.13 52.80 40.63 53.27 40.88 C 53.25 43.53 53.22 46.18 53.15 48.83 C 54.93 49.31 56.72 49.79 58.54 50.06 L 59.38 49.63 C 60.44 49.06 61.49 48.48 62.54 47.89 C 63.15 48.81 63.78 49.73 64.40 50.65 C 66.43 47.70 68.48 44.75 70.03 41.52 C 70.96 42.40 72.44 43.57 73.76 42.83 C 73.86 41.19 71.52 40.81 70.26 41.05 L 68.88 41.18 L 69.08 40.52 C 69.29 39.83 69.72 38.45 69.93 37.75 C 67.81 38.36 65.74 39.08 63.65 39.79 C 60.63 39.76 57.48 39.12 55.73 36.40 C 56.42 36.02 57.78 35.26 58.46 34.88 C 58.74 35.41 59.30 36.47 59.58 37.00 C 61.93 36.95 64.28 36.90 66.62 36.64 C 64.45 36.24 62.25 36.12 60.05 36.06 C 60.87 33.39 61.53 30.68 62.45 28.05 M 49.63 52.26 C 50.04 53.35 50.80 53.90 51.92 53.91 C 56.67 54.29 61.49 53.57 66.20 54.57 C 65.55 54.04 65.21 52.85 64.17 53.05 C 59.31 53.01 54.46 52.85 49.63 52.26 M 52.51 56.24 C 51.41 56.86 50.31 57.47 49.22 58.10 C 50.26 60.59 49.14 64.00 52.47 64.92 C 54.90 65.08 57.24 64.24 59.04 62.61 C 60.34 63.14 61.70 63.31 63.15 63.13 C 63.61 63.26 66.78 62.91 65.15 62.10 C 63.16 61.85 60.97 61.57 59.05 62.26 C 58.98 60.99 58.91 59.71 58.82 58.44 C 58.07 57.70 57.31 56.95 56.57 56.21 C 55.21 56.22 53.86 56.23 52.51 56.24 Z" />
</g>
<g id="#f7ecbfff">
<path fill="#f7ecbf" opacity="1.00" d=" M 68.08 29.39 L 68.54 28.89 C 70.37 29.48 70.61 32.25 68.37 32.28 C 68.30 31.56 68.15 30.11 68.08 29.39 Z" />
</g>
<g id="#333333ff">
<path fill="#333333" opacity="1.00" d=" M 71.06 33.04 C 72.21 33.07 73.35 33.09 74.50 33.12 C 77.67 34.61 80.51 36.67 82.84 39.30 C 82.94 39.83 83.15 40.91 83.25 41.45 C 83.75 42.73 84.03 44.08 84.33 45.43 C 85.58 48.27 84.52 51.47 85.33 54.41 C 86.09 56.41 85.04 58.43 84.80 60.41 C 85.31 60.00 86.32 59.18 86.82 58.77 C 88.62 60.67 87.76 62.99 86.82 65.05 L 85.91 64.82 C 86.33 63.33 86.75 61.85 87.17 60.36 C 80.55 63.94 75.34 70.41 67.47 71.34 C 67.21 71.72 66.70 72.49 66.44 72.88 C 64.46 75.60 61.12 76.57 58.11 74.82 C 59.06 75.72 60.00 76.61 60.95 77.51 C 61.09 80.27 60.85 83.05 59.94 85.68 C 59.20 86.07 57.72 86.85 56.98 87.24 C 54.53 86.91 51.99 87.14 49.62 86.37 C 47.57 85.64 46.54 83.58 45.29 81.96 C 45.50 81.53 45.90 80.66 46.10 80.23 L 44.88 79.74 C 45.43 79.03 45.99 78.33 46.54 77.63 L 46.55 77.62 C 48.86 79.48 50.28 75.99 51.67 74.79 C 50.38 75.14 49.11 75.56 47.86 76.06 L 49.23 74.47 C 46.63 75.26 44.12 74.96 42.27 72.91 C 42.11 71.53 41.97 70.16 41.74 68.80 L 40.94 68.44 C 41.12 68.35 41.47 68.18 41.65 68.09 C 43.02 66.97 44.31 65.70 45.93 64.96 C 47.79 64.75 48.77 66.57 49.97 67.64 C 50.77 68.69 51.54 69.75 52.32 70.81 C 53.37 70.82 54.42 70.84 55.48 70.85 C 56.24 70.05 57.01 69.26 57.79 68.47 C 58.72 67.55 59.70 66.69 60.69 65.84 C 61.98 65.95 63.26 66.06 64.55 66.17 C 66.28 67.23 67.55 70.38 69.82 69.68 C 71.73 66.95 67.45 64.82 66.39 62.52 C 69.22 63.85 70.18 67.47 72.80 68.74 C 73.93 64.99 73.18 60.94 73.57 57.07 C 71.21 55.95 68.81 54.92 66.49 53.74 C 69.19 54.32 71.69 55.53 74.08 56.87 C 74.57 54.08 75.44 51.36 75.92 48.56 C 76.57 48.28 77.86 47.73 78.51 47.45 C 79.46 47.48 80.41 47.51 81.35 47.54 C 80.41 49.87 82.72 50.77 84.58 50.61 C 83.50 47.20 82.27 43.80 82.00 40.21 C 80.32 38.56 78.60 36.96 76.85 35.40 L 77.40 38.32 C 76.93 37.23 76.42 36.15 75.92 35.07 C 74.35 34.73 72.77 34.38 71.22 33.97 L 71.06 33.04 M 76.14 51.41 C 74.12 56.78 74.15 62.57 73.91 68.22 C 79.55 67.10 76.98 61.36 77.33 57.43 C 77.69 60.19 77.70 62.98 77.78 65.76 C 78.91 64.68 81.55 64.18 81.33 62.22 L 81.50 63.11 C 82.06 62.51 83.16 61.30 83.71 60.70 C 83.71 59.25 83.83 57.79 84.45 56.45 C 84.34 55.15 84.11 52.54 84.00 51.23 C 83.41 52.18 82.83 53.14 82.25 54.10 C 82.57 51.69 80.65 49.90 79.72 47.88 C 78.04 48.44 76.77 49.78 76.14 51.41 M 46.67 66.56 C 47.13 69.15 47.00 71.79 47.11 74.41 C 48.28 73.19 49.28 71.83 50.27 70.47 C 49.20 69.06 48.56 67.12 46.67 66.56 C 46.33 66.37 46.33 66.37 46.67 66.56 M 43.69 67.50 C 42.84 68.72 42.98 70.24 42.86 71.64 C 43.40 72.08 44.47 72.95 45.00 73.38 C 45.00 71.93 45.00 70.48 44.99 69.03 L 46.29 68.93 C 45.56 68.34 44.85 66.43 43.69 67.50 M 60.41 67.00 C 59.61 67.82 58.81 68.63 58.01 69.44 C 58.01 70.52 58.00 71.60 58.00 72.68 C 58.50 73.10 59.50 73.96 60.00 74.39 C 60.00 72.93 59.99 71.46 59.99 70.00 L 61.00 70.00 C 61.00 69.50 61.00 68.50 61.00 68.00 L 62.00 68.00 C 62.00 70.40 62.00 72.80 62.01 75.20 C 63.65 74.09 66.52 73.47 66.27 70.96 C 66.71 69.14 64.60 68.20 63.77 66.87 C 62.65 66.91 61.53 66.95 60.41 67.00 M 55.22 72.42 C 53.47 72.28 51.78 71.90 50.15 71.29 C 49.92 71.95 49.45 73.27 49.21 73.93 C 50.30 74.16 51.39 74.40 52.47 74.64 C 54.03 74.05 55.71 74.19 57.35 74.19 C 57.25 73.39 57.07 71.79 56.97 70.99 C 56.53 71.35 55.66 72.06 55.22 72.42 M 54.00 75.00 C 54.00 76.41 54.00 77.82 54.00 79.23 C 56.26 79.23 58.52 79.23 60.78 79.22 C 59.45 77.80 58.11 76.40 56.76 75.00 C 56.07 75.00 54.69 75.00 54.00 75.00 M 48.33 83.27 C 48.89 83.82 48.89 83.82 48.33 83.27 M 54.00 83.03 C 54.00 83.80 54.02 85.33 54.02 86.10 C 55.25 86.07 56.48 86.05 57.71 86.02 C 58.64 84.97 59.57 83.91 60.49 82.85 C 58.33 82.99 56.16 83.02 54.00 83.03 Z" />
<path fill="#333333" opacity="1.00" d=" M 52.51 56.24 C 53.86 56.23 55.21 56.22 56.57 56.21 C 57.31 56.95 58.07 57.70 58.82 58.44 C 58.91 59.71 58.98 60.99 59.05 62.26 L 59.04 62.61 C 57.24 64.24 54.90 65.08 52.47 64.92 C 49.14 64.00 50.26 60.59 49.22 58.10 C 50.31 57.47 51.41 56.86 52.51 56.24 M 50.69 57.91 C 50.77 59.52 50.85 61.12 50.95 62.73 C 53.27 64.36 55.90 64.09 58.29 62.77 C 58.48 60.42 57.45 58.45 55.73 56.92 C 54.02 57.08 52.31 57.33 50.69 57.91 Z" />
</g>
<g id="#273638f3">
<path fill="#273638" opacity="0.95" d=" M 52.03 35.42 C 52.41 35.03 53.18 34.26 53.57 33.87 C 54.28 34.72 55.00 35.56 55.73 36.40 C 57.48 39.12 60.63 39.76 63.65 39.79 C 62.58 39.89 60.45 40.09 59.38 40.19 C 60.57 41.29 61.75 42.41 62.93 43.53 C 62.88 44.01 62.79 44.98 62.75 45.46 L 62.66 46.36 C 60.53 41.82 56.26 38.89 52.89 35.33 C 53.75 39.48 54.32 43.68 54.15 47.92 C 55.89 48.51 57.63 49.08 59.38 49.63 L 58.54 50.06 C 56.72 49.79 54.93 49.31 53.15 48.83 C 53.22 46.18 53.25 43.53 53.27 40.88 C 52.80 40.63 51.87 40.13 51.40 39.89 C 50.89 41.15 50.36 42.42 49.83 43.68 C 49.30 44.63 48.77 45.60 48.26 46.56 C 47.97 47.59 47.65 48.61 47.32 49.62 C 47.02 50.63 46.74 51.65 46.46 52.67 L 46.32 53.20 L 46.15 53.89 C 45.97 54.59 45.60 55.99 45.41 56.69 C 44.98 58.34 44.51 59.99 44.03 61.63 C 45.64 61.37 47.26 61.12 48.88 60.89 L 48.97 61.75 C 47.49 61.89 45.93 61.71 44.49 62.16 C 42.65 63.57 42.42 66.06 41.65 68.09 C 41.47 68.18 41.12 68.35 40.94 68.44 C 35.07 66.32 29.06 64.04 22.68 65.15 C 23.14 65.39 24.07 65.86 24.53 66.10 C 29.88 68.93 34.69 72.67 38.92 76.99 C 40.32 78.72 42.44 80.47 42.09 82.96 C 41.45 86.06 40.23 89.00 39.58 92.10 C 41.41 92.01 43.24 91.91 45.07 91.77 L 44.99 93.03 C 43.20 93.01 41.42 92.98 39.64 92.88 C 36.87 91.50 33.56 92.22 30.74 90.83 C 31.15 90.43 31.96 89.63 32.37 89.23 C 33.48 88.95 34.56 88.60 35.62 88.16 C 37.06 88.07 38.49 88.02 39.93 87.97 C 39.99 87.38 40.13 86.20 40.19 85.62 C 41.04 84.26 41.02 82.67 41.14 81.14 C 39.54 81.02 37.86 81.07 36.42 80.24 C 35.94 80.14 34.97 79.95 34.48 79.86 C 29.41 77.09 27.53 71.30 23.67 67.32 C 23.19 67.12 22.23 66.71 21.75 66.51 C 22.24 65.64 22.74 64.79 23.26 63.95 C 26.31 63.99 29.36 64.00 32.40 64.13 C 33.42 64.54 34.43 64.96 35.44 65.38 C 36.46 65.68 37.47 65.98 38.49 66.27 C 39.02 66.50 40.09 66.96 40.62 67.19 C 41.26 65.59 41.99 64.01 42.81 62.49 C 42.93 61.99 43.18 60.99 43.31 60.49 C 44.47 56.86 45.08 53.08 46.32 49.48 C 46.64 48.47 46.97 47.46 47.30 46.46 C 48.68 43.72 49.74 40.74 51.92 38.50 C 51.96 37.47 51.99 36.45 52.03 35.42 M 27.97 69.94 C 28.09 70.05 28.33 70.27 28.45 70.38 C 28.33 70.27 28.09 70.05 27.97 69.94 C 27.40 69.41 27.40 69.41 27.97 69.94 M 28.45 70.38 C 29.69 73.88 32.29 76.63 35.27 78.74 C 36.06 78.85 37.66 79.09 38.46 79.20 C 36.84 76.88 34.20 75.65 32.39 73.53 C 31.32 72.20 29.91 71.23 28.45 70.38 M 38.46 79.20 C 38.76 79.84 38.76 79.84 38.46 79.20 M 36.18 89.17 C 33.47 90.52 37.71 92.40 38.81 90.68 C 39.92 89.08 37.18 88.48 36.18 89.17 Z" />
</g>
<g id="#fcf3c3ff">
<path fill="#fcf3c3" opacity="1.00" d=" M 52.89 35.33 C 56.26 38.89 60.53 41.82 62.66 46.36 C 62.63 46.74 62.57 47.51 62.54 47.89 C 61.49 48.48 60.44 49.06 59.38 49.63 C 57.63 49.08 55.89 48.51 54.15 47.92 C 54.32 43.68 53.75 39.48 52.89 35.33 Z" />
</g>
<g id="#e5dcb4ff">
<path fill="#e5dcb4" opacity="1.00" d=" M 76.85 35.40 C 78.60 36.96 80.32 38.56 82.00 40.21 C 82.27 43.80 83.50 47.20 84.58 50.61 C 82.72 50.77 80.41 49.87 81.35 47.54 C 80.41 47.51 79.46 47.48 78.51 47.45 C 77.86 47.73 76.57 48.28 75.92 48.56 L 75.95 47.04 C 76.05 46.65 76.26 45.88 76.36 45.49 C 77.21 43.19 78.31 40.79 77.40 38.32 L 76.85 35.40 M 79.29 42.17 C 78.65 43.05 78.34 45.60 79.74 45.74 C 80.37 44.85 80.68 42.31 79.29 42.17 Z" />
</g>
<g id="#fffff0ff">
<path fill="#fffff0" opacity="1.00" d=" M 63.65 39.79 C 65.74 39.08 67.81 38.36 69.93 37.75 C 69.72 38.45 69.29 39.83 69.08 40.52 C 68.53 39.15 65.03 40.01 67.05 41.15 C 67.51 41.16 68.43 41.18 68.88 41.18 L 70.26 41.05 L 70.03 41.52 C 68.48 44.75 66.43 47.70 64.40 50.65 C 63.78 49.73 63.15 48.81 62.54 47.89 C 62.57 47.51 62.63 46.74 62.66 46.36 L 62.75 45.46 C 62.79 44.98 62.88 44.01 62.93 43.53 C 61.75 42.41 60.57 41.29 59.38 40.19 C 60.45 40.09 62.58 39.89 63.65 39.79 Z" />
</g>
<g id="#f9dd91ff">
<path fill="#f9dd91" opacity="1.00" d=" M 67.05 41.15 C 65.03 40.01 68.53 39.15 69.08 40.52 L 68.88 41.18 C 68.43 41.18 67.51 41.16 67.05 41.15 Z" />
</g>
<g id="#cebd8cff">
<path fill="#cebd8c" opacity="1.00" d=" M 70.26 41.05 C 71.52 40.81 73.86 41.19 73.76 42.83 C 72.44 43.57 70.96 42.40 70.03 41.52 L 70.26 41.05 Z" />
</g>
<g id="#947d43ff">
<path fill="#947d43" opacity="1.00" d=" M 79.29 42.17 C 80.68 42.31 80.37 44.85 79.74 45.74 C 78.34 45.60 78.65 43.05 79.29 42.17 Z" />
</g>
<g id="#c9bb8cff">
<path fill="#c9bb8c" opacity="1.00" d=" M 74.11 43.82 C 74.67 44.24 75.79 45.07 76.36 45.49 C 76.26 45.88 76.05 46.65 75.95 47.04 C 74.97 46.27 73.78 45.22 74.11 43.82 Z" />
</g>
<g id="#e5ddb6ff">
<path fill="#e5ddb6" opacity="1.00" d=" M 76.14 51.41 C 76.77 49.78 78.04 48.44 79.72 47.88 C 80.65 49.90 82.57 51.69 82.25 54.10 C 81.74 55.16 81.22 56.22 80.69 57.27 L 80.54 57.48 L 80.57 57.72 C 80.76 59.23 81.06 60.72 81.33 62.22 C 81.55 64.18 78.91 64.68 77.78 65.76 C 77.70 62.98 77.69 60.19 77.33 57.43 C 76.98 61.36 79.55 67.10 73.91 68.22 C 74.15 62.57 74.12 56.78 76.14 51.41 M 78.39 55.39 C 77.78 56.83 78.20 57.26 79.64 56.68 C 80.24 55.24 79.83 54.81 78.39 55.39 Z" />
</g>
<g id="#bba56aff">
<path fill="#bba56a" opacity="1.00" d=" M 49.63 52.26 C 54.46 52.85 59.31 53.01 64.17 53.05 C 65.21 52.85 65.55 54.04 66.20 54.57 C 61.49 53.57 56.67 54.29 51.92 53.91 C 50.80 53.90 50.04 53.35 49.63 52.26 Z" />
</g>
<g id="#bbb18aff">
<path fill="#bbb18a" opacity="1.00" d=" M 82.25 54.10 C 82.83 53.14 83.41 52.18 84.00 51.23 C 84.11 52.54 84.34 55.15 84.45 56.45 C 83.83 57.79 83.71 59.25 83.71 60.70 C 83.16 61.30 82.06 62.51 81.50 63.11 L 81.33 62.22 C 81.06 60.72 80.76 59.23 80.57 57.72 C 80.60 57.61 80.66 57.38 80.69 57.27 C 81.22 56.22 81.74 55.16 82.25 54.10 Z" />
</g>
<g id="#9f8340ff">
<path fill="#9f8340" opacity="1.00" d=" M 46.32 53.20 C 46.97 53.14 48.26 53.02 48.91 52.96 C 48.35 54.23 47.43 54.54 46.15 53.89 L 46.32 53.20 Z" />
</g>
<g id="#ac9c6aff">
<path fill="#ac9c6a" opacity="1.00" d=" M 78.39 55.39 C 79.83 54.81 80.24 55.24 79.64 56.68 C 78.20 57.26 77.78 56.83 78.39 55.39 Z" />
</g>
<g id="#f9eec0ff">
<path fill="#f9eec0" opacity="1.00" d=" M 50.69 57.91 C 52.31 57.33 54.02 57.08 55.73 56.92 C 57.45 58.45 58.48 60.42 58.29 62.77 C 55.90 64.09 53.27 64.36 50.95 62.73 C 50.85 61.12 50.77 59.52 50.69 57.91 Z" />
<path fill="#f9eec0" opacity="1.00" d=" M 47.86 76.06 C 49.11 75.56 50.38 75.14 51.67 74.79 C 50.28 75.99 48.86 79.48 46.55 77.62 C 46.88 77.23 47.54 76.45 47.86 76.06 Z" />
</g>
<g id="#856f36ff">
<path fill="#856f36" opacity="1.00" d=" M 80.54 57.48 L 80.69 57.27 C 80.66 57.38 80.60 57.61 80.57 57.72 L 80.54 57.48 Z" />
</g>
<g id="#86dcf7ff">
<path fill="#86dcf7" opacity="1.00" d=" M 67.47 71.34 C 75.34 70.41 80.55 63.94 87.17 60.36 C 86.75 61.85 86.33 63.33 85.91 64.82 L 85.02 65.33 C 79.76 68.24 75.94 73.60 69.93 75.13 C 68.53 74.85 67.57 73.66 66.44 72.88 C 66.70 72.49 67.21 71.72 67.47 71.34 Z" />
<path fill="#86dcf7" opacity="1.00" d=" M 55.22 72.42 C 55.66 72.06 56.53 71.35 56.97 70.99 C 57.07 71.79 57.25 73.39 57.35 74.19 C 55.71 74.19 54.03 74.05 52.47 74.64 C 51.39 74.40 50.30 74.16 49.21 73.93 C 49.45 73.27 49.92 71.95 50.15 71.29 C 51.78 71.90 53.47 72.28 55.22 72.42 Z" />
<path fill="#86dcf7" opacity="1.00" d=" M 76.31 91.76 C 81.94 90.50 87.70 91.12 93.08 93.11 C 91.93 92.96 90.77 92.83 89.62 92.73 C 85.19 92.31 80.55 93.46 76.31 91.76 Z" />
</g>
<g id="#8a7034ff">
<path fill="#8a7034" opacity="1.00" d=" M 59.05 62.26 C 60.97 61.57 63.16 61.85 65.15 62.10 C 66.78 62.91 63.61 63.26 63.15 63.13 C 61.70 63.31 60.34 63.14 59.04 62.61 L 59.05 62.26 Z" />
</g>
<g id="#87defaff">
<path fill="#87defa" opacity="1.00" d=" M 22.68 65.15 C 29.06 64.04 35.07 66.32 40.94 68.44 L 41.74 68.80 C 40.91 70.16 40.09 71.52 39.27 72.88 C 34.57 70.17 30.16 66.56 24.53 66.10 C 24.07 65.86 23.14 65.39 22.68 65.15 Z" />
<path fill="#87defa" opacity="1.00" d=" M 28.45 70.38 C 29.91 71.23 31.32 72.20 32.39 73.53 C 34.20 75.65 36.84 76.88 38.46 79.20 C 37.66 79.09 36.06 78.85 35.27 78.74 C 32.29 76.63 29.69 73.88 28.45 70.38 Z" />
</g>
<g id="#77c4dcff">
<path fill="#77c4dc" opacity="1.00" d=" M 69.93 75.13 C 75.94 73.60 79.76 68.24 85.02 65.33 L 86.10 65.64 C 85.07 67.62 83.04 69.45 83.74 71.90 L 82.30 71.26 C 83.32 73.04 83.33 74.18 82.34 74.67 C 82.12 73.94 81.69 72.46 81.47 71.72 C 79.61 73.69 77.71 75.61 75.80 77.53 C 75.18 77.94 73.96 78.76 73.34 79.16 C 76.98 80.94 80.41 83.10 84.08 84.79 C 86.97 85.29 89.94 85.07 92.81 85.72 C 92.26 86.00 91.17 86.56 90.62 86.84 C 83.45 88.82 77.39 84.04 71.62 80.61 C 71.38 81.47 70.89 83.19 70.65 84.06 C 67.23 87.89 61.75 89.84 56.98 87.24 C 57.72 86.85 59.20 86.07 59.94 85.68 C 60.85 83.05 61.09 80.27 60.95 77.51 C 60.00 76.61 59.06 75.72 58.11 74.82 C 61.12 76.57 64.46 75.60 66.44 72.88 C 67.57 73.66 68.53 74.85 69.93 75.13 Z" />
</g>
<g id="#76c2dbff">
<path fill="#76c2db" opacity="1.00" d=" M 24.53 66.10 C 30.16 66.56 34.57 70.17 39.27 72.88 C 40.09 71.52 40.91 70.16 41.74 68.80 C 41.97 70.16 42.11 71.53 42.27 72.91 C 44.12 74.96 46.63 75.26 49.23 74.47 L 47.86 76.06 C 47.54 76.45 46.88 77.23 46.55 77.62 L 46.54 77.63 C 45.99 78.33 45.43 79.03 44.88 79.74 C 42.85 78.92 40.84 78.05 38.92 76.99 C 34.69 72.67 29.88 68.93 24.53 66.10 Z" />
</g>
<g id="#ffffd8ff">
<path fill="#ffffd8" opacity="1.00" d=" M 46.67 66.56 C 46.33 66.37 46.33 66.37 46.67 66.56 Z" />
</g>
<g id="#fffdcfff">
<path fill="#fffdcf" opacity="1.00" d=" M 43.69 67.50 C 44.85 66.43 45.56 68.34 46.29 68.93 L 44.99 69.03 C 45.00 70.48 45.00 71.93 45.00 73.38 C 44.47 72.95 43.40 72.08 42.86 71.64 C 42.98 70.24 42.84 68.72 43.69 67.50 Z" />
</g>
<g id="#fffeccff">
<path fill="#fffecc" opacity="1.00" d=" M 46.67 66.56 C 48.56 67.12 49.20 69.06 50.27 70.47 C 49.28 71.83 48.28 73.19 47.11 74.41 C 47.00 71.79 47.13 69.15 46.67 66.56 Z" />
</g>
<g id="#ffffceff">
<path fill="#ffffce" opacity="1.00" d=" M 60.41 67.00 C 61.53 66.95 62.65 66.91 63.77 66.87 C 64.60 68.20 66.71 69.14 66.27 70.96 C 66.52 73.47 63.65 74.09 62.01 75.20 C 62.00 72.80 62.00 70.40 62.00 68.00 L 61.00 68.00 C 61.00 68.50 61.00 69.50 61.00 70.00 L 59.99 70.00 C 59.99 71.46 60.00 72.93 60.00 74.39 C 59.50 73.96 58.50 73.10 58.00 72.68 C 58.00 71.60 58.01 70.52 58.01 69.44 C 58.81 68.63 59.61 67.82 60.41 67.00 Z" />
</g>
<g id="#a99c6dff">
<path fill="#a99c6d" opacity="1.00" d=" M 49.97 67.64 C 52.50 68.42 55.16 68.47 57.79 68.47 C 57.01 69.26 56.24 70.05 55.48 70.85 C 54.42 70.84 53.37 70.82 52.32 70.81 C 51.54 69.75 50.77 68.69 49.97 67.64 Z" />
</g>
<g id="#5c96aaff">
<path fill="#5c96aa" opacity="1.00" d=" M 27.97 69.94 C 27.40 69.41 27.40 69.41 27.97 69.94 Z" />
</g>
<g id="#78c5deff">
<path fill="#78c5de" opacity="1.00" d=" M 27.97 69.94 C 28.09 70.05 28.33 70.27 28.45 70.38 C 28.33 70.27 28.09 70.05 27.97 69.94 Z" />
</g>
<g id="#87866dff">
<path fill="#87866d" opacity="1.00" d=" M 75.80 77.53 C 77.71 75.61 79.61 73.69 81.47 71.72 C 81.69 72.46 82.12 73.94 82.34 74.67 L 82.49 75.14 C 81.38 76.89 79.98 78.42 78.51 79.88 C 77.92 79.56 76.73 78.91 76.13 78.59 L 75.80 77.53 Z" />
</g>
<g id="#fff7c8ff">
<path fill="#fff7c8" opacity="1.00" d=" M 54.00 75.00 C 54.69 75.00 56.07 75.00 56.76 75.00 C 58.11 76.40 59.45 77.80 60.78 79.22 C 58.52 79.23 56.26 79.23 54.00 79.23 C 54.00 77.82 54.00 76.41 54.00 75.00 Z" />
</g>
<g id="#568e9fff">
<path fill="#568e9f" opacity="1.00" d=" M 38.92 76.99 C 40.84 78.05 42.85 78.92 44.88 79.74 L 46.10 80.23 C 45.90 80.66 45.50 81.53 45.29 81.96 C 46.54 83.58 47.57 85.64 49.62 86.37 C 51.99 87.14 54.53 86.91 56.98 87.24 C 61.75 89.84 67.23 87.89 70.65 84.06 C 72.38 87.43 74.51 90.60 75.81 94.18 C 67.63 92.45 59.71 88.63 51.16 89.32 C 49.69 89.51 48.33 90.14 47.11 90.96 L 46.27 91.67 C 45.97 91.69 45.37 91.74 45.07 91.77 C 43.24 91.91 41.41 92.01 39.58 92.10 C 40.23 89.00 41.45 86.06 42.09 82.96 C 42.44 80.47 40.32 78.72 38.92 76.99 Z" />
</g>
<g id="#263b41ff">
<path fill="#263b41" opacity="1.00" d=" M 73.34 79.16 C 73.96 78.76 75.18 77.94 75.80 77.53 L 76.13 78.59 C 76.73 78.91 77.92 79.56 78.51 79.88 C 78.74 80.05 79.19 80.41 79.41 80.59 C 81.07 81.76 82.76 82.90 84.46 84.00 C 85.98 84.05 87.49 84.12 89.01 84.06 C 91.20 84.08 92.86 81.87 95.05 82.06 C 95.41 82.26 96.13 82.67 96.48 82.87 C 95.33 83.78 94.51 86.06 92.81 85.72 C 89.94 85.07 86.97 85.29 84.08 84.79 C 80.41 83.10 76.98 80.94 73.34 79.16 Z" />
</g>
<g id="#528798ff">
<path fill="#528798" opacity="1.00" d=" M 38.46 79.20 C 38.76 79.84 38.76 79.84 38.46 79.20 Z" />
</g>
<g id="#223941ff">
<path fill="#223941" opacity="1.00" d=" M 71.62 80.61 C 77.39 84.04 83.45 88.82 90.62 86.84 C 89.60 88.50 87.52 87.89 85.94 88.07 C 84.05 87.98 81.89 88.38 80.36 86.93 C 79.39 87.16 78.42 87.41 77.46 87.70 C 76.46 87.87 75.49 88.13 74.55 88.50 C 75.31 88.87 76.82 89.61 77.58 89.99 C 81.18 90.10 84.77 89.97 88.36 90.16 C 89.73 91.09 91.38 91.06 92.95 91.20 L 93.08 93.11 C 87.70 91.12 81.94 90.50 76.31 91.76 C 80.55 93.46 85.19 92.31 89.62 92.73 L 90.39 93.94 C 85.78 94.11 81.18 93.87 76.58 94.11 C 75.11 95.50 73.07 95.07 71.42 94.32 C 70.11 94.01 68.81 93.72 67.52 93.36 C 66.48 93.05 65.47 92.71 64.46 92.33 C 63.45 91.93 62.45 91.53 61.44 91.14 C 59.50 91.03 57.57 90.97 55.63 90.85 C 54.11 89.68 51.87 89.57 50.40 90.89 C 49.30 90.92 48.21 90.94 47.11 90.96 C 48.33 90.14 49.69 89.51 51.16 89.32 C 59.71 88.63 67.63 92.45 75.81 94.18 C 74.51 90.60 72.38 87.43 70.65 84.06 C 70.89 83.19 71.38 81.47 71.62 80.61 M 73.03 84.92 C 73.03 85.52 73.04 86.72 73.04 87.32 C 74.70 87.03 76.36 86.74 78.01 86.40 C 76.94 84.54 74.73 85.19 73.03 84.92 Z" />
</g>
<g id="#12242bff">
<path fill="#12242b" opacity="1.00" d=" M 95.13 81.32 C 96.50 80.61 97.15 81.02 97.07 82.57 L 96.48 82.87 C 96.13 82.67 95.41 82.26 95.05 82.06 L 95.13 81.32 Z" />
</g>
<g id="#dfd8b3ff">
<path fill="#dfd8b3" opacity="1.00" d=" M 48.33 83.27 C 48.89 83.82 48.89 83.82 48.33 83.27 Z" />
</g>
<g id="#e9e1b8ff">
<path fill="#e9e1b8" opacity="1.00" d=" M 54.00 83.03 C 56.16 83.02 58.33 82.99 60.49 82.85 C 59.57 83.91 58.64 84.97 57.71 86.02 C 56.48 86.05 55.25 86.07 54.02 86.10 C 54.02 85.33 54.00 83.80 54.00 83.03 Z" />
</g>
<g id="#5c99abff">
<path fill="#5c99ab" opacity="1.00" d=" M 73.03 84.92 C 74.73 85.19 76.94 84.54 78.01 86.40 C 76.36 86.74 74.70 87.03 73.04 87.32 C 73.04 86.72 73.03 85.52 73.03 84.92 Z" />
</g>
<g id="#6aafc5ff">
<path fill="#6aafc5" opacity="1.00" d=" M 36.18 89.17 C 37.18 88.48 39.92 89.08 38.81 90.68 C 37.71 92.40 33.47 90.52 36.18 89.17 Z" />
</g>
</svg>
