<?xml version="1.0" encoding="UTF-8" ?>
<!DOCTYPE svg PUBLIC "-//W3C//DTD SVG 1.1//EN" "http://www.w3.org/Graphics/SVG/1.1/DTD/svg11.dtd">
<svg width="120pt" height="120pt" viewBox="0 0 120 120" version="1.1" xmlns="http://www.w3.org/2000/svg">
<g id="#6e6c6eff">
<path fill="#6e6c6e" opacity="1.00" d=" M 26.57 13.40 C 25.66 10.73 25.79 6.44 29.71 7.05 C 31.08 14.95 31.98 23.08 35.22 30.47 C 40.42 28.06 45.69 25.40 51.50 25.02 C 51.79 24.82 52.38 24.41 52.67 24.21 C 54.58 26.34 56.58 28.38 58.52 30.48 C 59.08 29.79 59.63 29.09 60.19 28.40 C 62.44 27.21 64.97 27.14 67.45 27.32 C 68.49 28.53 70.13 28.22 71.52 28.38 C 74.55 29.49 76.20 32.55 77.17 35.43 C 78.91 35.07 80.62 34.60 82.34 34.16 C 83.68 35.13 85.17 35.85 86.69 36.49 C 87.32 37.10 87.95 37.71 88.58 38.34 C 88.95 41.40 92.19 44.21 89.42 47.10 C 95.05 47.82 98.74 53.15 100.86 57.99 C 102.12 59.98 101.71 62.37 101.76 64.60 C 100.92 65.44 100.07 66.28 99.22 67.11 C 103.07 66.41 104.14 71.06 103.89 73.95 C 104.26 77.77 102.88 81.36 101.97 84.99 C 101.92 86.85 102.93 88.59 103.11 90.46 C 104.03 92.04 103.77 93.89 103.81 95.64 C 101.43 97.32 99.97 100.58 96.87 100.94 C 96.80 103.03 97.11 105.30 95.85 107.13 C 94.96 108.95 92.72 108.98 91.09 109.76 C 88.94 109.79 86.79 109.77 84.64 109.67 C 83.64 110.69 82.65 111.72 81.68 112.77 C 79.18 112.80 76.69 112.80 74.20 112.79 C 73.88 112.26 73.22 111.19 72.90 110.66 C 69.57 112.94 64.70 112.09 61.42 109.99 C 59.60 110.30 57.78 111.21 56.04 109.95 C 53.96 110.89 51.39 111.40 49.39 109.97 C 47.97 111.61 45.48 110.83 44.01 109.68 C 41.92 111.73 38.72 110.04 36.42 111.62 C 35.91 111.66 34.89 111.75 34.38 111.79 C 33.52 110.82 32.66 109.86 31.79 108.90 C 30.14 108.85 28.49 108.81 26.84 108.77 C 27.29 107.91 27.75 107.05 28.20 106.20 C 29.86 106.25 31.51 106.30 33.16 106.35 C 33.15 106.99 33.14 108.28 33.14 108.93 C 36.41 108.56 39.70 108.32 42.99 108.14 C 42.99 107.42 43.00 105.97 43.01 105.24 C 40.04 104.46 36.93 104.15 33.96 105.11 C 34.28 104.64 34.92 103.71 35.24 103.25 C 36.98 103.26 38.71 103.28 40.45 103.36 C 41.66 104.22 43.40 104.11 44.33 105.37 C 45.16 104.61 45.95 103.81 46.84 103.12 C 49.31 105.43 52.10 102.80 54.92 103.15 C 55.70 102.22 56.47 101.28 57.24 100.34 C 58.57 100.50 59.64 100.10 60.47 99.17 C 61.33 100.02 62.18 100.88 63.03 101.74 C 63.79 100.98 64.54 100.22 65.29 99.44 C 67.22 97.74 69.42 98.66 71.47 99.55 C 72.09 99.79 73.35 100.28 73.98 100.52 C 72.75 103.38 71.87 106.43 72.48 109.57 C 72.75 108.04 72.99 106.50 73.24 104.97 C 74.46 104.96 75.68 104.95 76.90 104.94 C 77.35 103.98 77.80 103.03 78.25 102.08 C 78.69 102.34 79.57 102.85 80.01 103.11 C 79.97 101.76 79.93 100.41 79.89 99.06 C 78.82 99.09 77.75 99.11 76.69 99.14 L 75.64 98.31 C 77.49 98.25 79.34 98.26 81.19 98.30 C 81.70 97.96 82.73 97.28 83.24 96.94 C 82.39 98.55 81.61 100.22 81.15 101.99 C 81.99 103.27 83.54 103.82 84.73 104.70 C 85.23 104.30 86.22 103.48 86.71 103.07 C 88.31 103.54 89.89 104.02 91.48 104.52 C 88.70 101.84 86.92 98.34 84.18 95.64 C 86.13 94.16 84.98 91.36 85.24 89.28 C 85.66 88.97 86.51 88.34 86.93 88.02 C 85.78 91.08 86.41 94.35 87.42 97.35 C 89.28 94.46 91.32 91.53 91.98 88.10 C 91.37 87.10 90.51 86.29 89.64 85.52 C 87.78 84.30 85.90 83.12 84.19 81.69 C 84.29 78.96 84.31 76.22 84.27 73.49 C 85.02 72.32 85.77 71.14 86.55 69.99 C 85.46 69.51 84.38 69.03 83.29 68.55 C 81.68 66.91 80.02 65.32 78.45 63.65 C 77.16 60.76 77.85 57.40 79.58 54.86 C 78.18 54.64 76.80 54.28 75.48 53.75 C 74.77 51.90 73.04 50.54 73.08 48.40 C 71.60 48.68 70.54 49.67 69.55 50.71 C 66.09 50.33 62.00 51.85 59.02 49.60 C 57.13 50.77 54.97 51.35 52.85 51.96 C 52.86 52.44 52.86 53.40 52.87 53.88 L 51.77 53.86 C 51.87 51.27 52.12 48.69 52.48 46.13 C 50.22 43.16 47.97 40.19 45.96 37.04 C 44.36 34.10 40.58 32.77 37.44 33.28 C 35.93 35.73 33.84 37.57 31.18 38.69 C 30.79 38.99 30.00 39.61 29.61 39.91 C 28.96 39.94 27.67 40.01 27.03 40.04 C 26.98 37.89 26.92 35.75 26.87 33.60 C 23.82 37.42 18.55 39.92 17.69 45.11 C 17.89 48.12 21.11 49.46 23.49 50.54 C 22.70 54.88 21.28 59.34 22.29 63.77 C 23.04 65.11 24.40 65.95 25.51 66.97 C 32.14 65.20 39.67 63.69 44.19 58.04 C 45.76 57.99 47.33 57.96 48.90 57.92 C 49.61 57.30 50.32 56.68 51.04 56.06 C 51.10 58.44 48.34 58.72 47.24 60.38 C 46.19 61.82 45.32 63.39 44.45 64.94 L 43.70 64.87 C 44.43 62.86 45.09 60.82 45.62 58.74 C 42.66 61.83 40.61 65.64 37.98 69.00 C 39.37 68.41 40.75 67.79 42.09 67.10 C 41.76 70.40 37.86 69.94 35.70 71.48 C 32.46 73.72 27.77 75.09 24.36 72.45 C 22.32 70.63 19.98 68.87 18.96 66.25 C 17.78 64.98 16.53 63.79 15.25 62.63 C 15.28 60.63 15.05 58.54 15.87 56.66 C 17.40 54.16 13.72 51.43 16.23 49.11 C 16.29 47.57 16.31 46.03 16.33 44.49 C 17.52 42.51 18.59 40.47 19.44 38.33 C 20.75 37.02 22.07 35.71 23.33 34.35 C 24.75 33.74 26.25 33.34 27.78 33.09 C 28.26 32.55 29.21 31.46 29.69 30.91 L 28.19 30.76 C 27.93 27.70 29.29 24.07 27.32 21.41 C 27.24 18.73 27.62 15.95 26.57 13.40 M 28.28 19.87 C 28.72 19.52 29.61 18.83 30.05 18.48 C 29.15 21.83 28.52 25.39 29.45 28.82 C 30.42 31.96 28.48 35.05 28.91 38.27 C 30.24 37.74 31.58 37.22 32.94 36.73 L 33.02 36.00 C 33.52 36.00 34.52 36.00 35.02 35.99 C 35.01 34.41 35.00 32.83 35.01 31.24 C 34.55 30.87 33.65 30.12 33.20 29.75 C 31.77 25.78 31.91 21.39 30.10 17.55 C 30.01 15.84 29.98 14.12 29.93 12.41 C 28.24 11.95 27.71 10.40 27.23 8.91 C 27.46 12.57 28.28 16.18 28.28 19.87 M 35.74 31.92 C 38.46 31.41 41.23 31.38 43.98 31.65 C 45.59 30.89 46.93 29.65 48.36 28.59 C 47.33 30.12 46.30 31.65 45.07 33.02 C 47.23 35.93 49.09 39.05 51.35 41.90 C 54.06 41.53 57.35 41.47 59.32 39.35 C 59.22 37.75 60.58 34.77 57.94 34.77 C 58.11 34.42 58.45 33.74 58.63 33.39 C 55.56 30.62 53.97 24.61 48.74 26.11 C 44.23 27.56 39.46 28.81 35.74 31.92 M 58.93 31.34 C 60.09 32.95 61.09 34.69 61.81 36.55 C 61.28 38.41 61.17 40.35 61.14 42.29 C 64.46 42.26 68.47 41.75 69.24 37.86 C 70.17 38.34 71.11 38.82 72.04 39.30 C 72.64 38.79 73.23 38.27 73.83 37.76 C 71.81 35.95 74.87 35.41 75.95 34.53 C 73.49 34.06 74.10 30.82 71.92 29.98 C 70.11 28.41 67.84 29.53 65.85 30.03 C 66.18 29.52 66.83 28.49 67.15 27.98 C 64.08 27.74 60.32 28.13 58.93 31.34 M 78.75 38.10 C 77.67 38.49 77.23 39.67 77.55 40.72 C 77.39 41.24 77.08 42.27 76.92 42.78 C 76.22 44.56 72.33 47.66 75.64 48.58 C 75.76 47.77 76.00 46.17 76.13 45.37 C 76.67 46.36 77.22 47.35 77.78 48.34 C 77.55 48.80 77.10 49.73 76.88 50.20 C 79.96 49.00 82.88 46.98 84.34 43.92 C 84.96 44.54 85.58 45.16 86.20 45.79 C 86.93 45.82 88.40 45.88 89.13 45.91 C 88.77 43.68 88.30 41.48 87.71 39.30 C 86.64 38.56 85.85 36.95 84.36 37.15 C 83.16 36.38 81.97 35.58 80.81 34.75 C 80.02 35.81 79.29 36.90 78.75 38.10 M 89.01 47.85 C 89.02 48.68 89.06 50.33 89.08 51.15 C 86.78 52.31 84.26 52.94 81.98 54.13 C 79.00 55.68 78.62 59.76 79.71 62.59 C 80.86 64.22 82.67 66.66 84.77 64.89 C 84.85 64.09 85.01 62.48 85.09 61.68 C 85.46 62.16 86.21 63.13 86.58 63.61 C 89.18 64.16 91.81 64.55 94.45 64.79 C 95.72 62.37 96.95 59.88 97.16 57.11 C 97.66 57.08 98.65 57.01 99.14 56.98 C 96.84 52.97 93.58 49.21 89.01 47.85 M 17.80 49.69 C 17.13 52.65 19.30 54.74 22.24 54.08 C 21.99 53.44 21.50 52.17 21.25 51.53 L 20.99 53.00 L 19.96 53.03 C 21.18 51.02 19.34 50.36 17.80 49.69 M 97.09 68.04 L 97.21 69.02 C 95.64 69.11 93.89 68.73 92.58 69.88 C 90.77 70.03 88.95 70.08 87.13 70.12 C 85.45 73.33 84.23 77.10 85.48 80.68 C 87.07 82.02 89.38 81.32 91.28 81.59 C 91.85 80.29 92.41 78.98 92.97 77.67 C 92.56 76.67 92.15 75.68 91.74 74.69 C 92.58 75.39 93.45 76.05 94.36 76.67 C 96.18 76.07 97.88 75.16 99.60 74.31 C 100.51 75.75 101.61 77.07 102.86 78.23 C 103.28 74.68 103.15 70.98 100.79 68.09 C 99.55 68.07 98.32 68.06 97.09 68.04 M 95.61 87.83 C 94.86 87.94 93.37 88.16 92.62 88.27 C 94.97 91.34 98.80 89.68 101.84 88.91 C 101.51 88.01 101.19 87.11 100.87 86.21 C 99.13 86.80 97.35 87.25 95.61 87.83 M 63.11 103.17 C 62.49 104.50 61.43 106.84 63.51 107.41 C 64.74 104.86 68.67 105.89 70.72 106.92 C 70.91 105.31 70.84 103.54 72.07 102.29 C 70.24 98.97 64.52 99.70 63.11 103.17 M 55.03 104.96 C 55.99 106.69 56.91 108.57 58.80 109.46 C 58.84 108.55 58.92 106.72 58.97 105.81 C 59.47 106.16 60.49 106.87 60.99 107.23 C 60.99 106.42 61.00 104.81 61.00 104.01 L 62.30 103.89 C 61.56 102.97 61.47 100.82 59.90 101.02 C 57.28 100.42 56.40 103.39 55.03 104.96 M 49.44 105.18 C 49.76 106.46 50.08 107.73 50.39 109.01 C 51.69 109.28 53.01 109.44 54.34 109.56 C 54.51 108.93 54.86 107.67 55.03 107.04 C 54.46 107.07 53.33 107.12 52.77 107.14 C 53.30 106.09 53.78 105.02 54.21 103.92 C 52.61 104.31 51.03 104.74 49.44 105.18 M 47.37 105.03 C 46.08 105.59 44.67 106.06 43.82 107.27 C 44.87 108.10 45.89 109.01 47.11 109.59 C 48.40 110.52 48.70 108.34 49.08 107.59 C 48.51 106.73 47.94 105.88 47.37 105.03 M 29.27 107.24 C 29.57 108.51 30.35 108.72 31.61 107.88 C 31.31 106.61 30.53 106.40 29.27 107.24 Z" />
<path fill="#6e6c6e" opacity="1.00" d=" M 49.37 27.33 L 49.40 27.38 C 49.37 27.41 49.31 27.48 49.29 27.51 L 49.37 27.33 Z" />
<path fill="#6e6c6e" opacity="1.00" d=" M 63.15 34.39 C 66.45 34.70 61.50 37.33 63.15 34.39 Z" />
<path fill="#6e6c6e" opacity="1.00" d=" M 71.28 37.32 C 71.77 37.85 71.77 37.85 71.28 37.32 Z" />
<path fill="#6e6c6e" opacity="1.00" d=" M 39.54 39.98 C 40.10 39.69 41.21 39.10 41.77 38.81 C 41.90 39.88 41.56 40.78 40.77 41.52 L 40.15 41.57 C 40.00 41.17 39.69 40.38 39.54 39.98 Z" />
<path fill="#6e6c6e" opacity="1.00" d=" M 83.16 39.38 C 84.43 39.66 84.65 40.44 83.82 41.72 C 82.55 41.43 82.33 40.65 83.16 39.38 Z" />
<path fill="#6e6c6e" opacity="1.00" d=" M 39.62 48.86 C 37.35 50.35 37.61 46.80 39.71 46.98 C 39.69 47.45 39.64 48.39 39.62 48.86 Z" />
<path fill="#6e6c6e" opacity="1.00" d=" M 26.47 49.39 C 26.50 49.44 26.54 49.54 26.57 49.59 L 26.55 49.57 L 26.47 49.39 Z" />
<path fill="#6e6c6e" opacity="1.00" d=" M 35.34 49.06 C 38.34 47.52 35.54 52.35 35.34 49.06 Z" />
<path fill="#6e6c6e" opacity="1.00" d=" M 43.51 51.12 C 43.57 50.57 43.70 49.47 43.76 48.93 L 44.31 49.52 C 44.11 49.92 43.71 50.72 43.51 51.12 Z" />
<path fill="#6e6c6e" opacity="1.00" d=" M 33.29 50.27 C 33.80 50.78 33.80 50.78 33.29 50.27 Z" />
<path fill="#6e6c6e" opacity="1.00" d=" M 27.08 50.69 C 28.09 51.44 29.14 52.14 30.18 52.85 C 30.52 53.98 30.84 55.12 31.13 56.26 C 29.59 54.55 28.06 52.79 27.08 50.69 Z" />
<path fill="#6e6c6e" opacity="1.00" d=" M 31.50 51.55 C 31.51 51.56 31.55 51.58 31.57 51.59 L 31.50 51.55 Z" />
<path fill="#6e6c6e" opacity="1.00" d=" M 92.13 51.23 C 93.51 50.94 94.04 51.48 93.71 52.88 C 92.33 53.17 91.80 52.62 92.13 51.23 Z" />
<path fill="#6e6c6e" opacity="1.00" d=" M 44.21 52.10 C 47.24 50.59 44.36 55.38 44.21 52.10 Z" />
<path fill="#6e6c6e" opacity="1.00" d=" M 49.26 54.36 C 49.78 54.87 49.78 54.87 49.26 54.36 Z" />
<path fill="#6e6c6e" opacity="1.00" d=" M 83.05 55.25 C 86.38 55.27 81.63 58.29 83.05 55.25 Z" />
<path fill="#6e6c6e" opacity="1.00" d=" M 28.26 58.22 C 28.79 58.74 28.79 58.74 28.26 58.22 Z" />
<path fill="#6e6c6e" opacity="1.00" d=" M 27.24 60.08 C 28.82 60.16 27.76 62.59 26.72 62.82 C 25.12 62.75 26.17 60.28 27.24 60.08 Z" />
<path fill="#6e6c6e" opacity="1.00" d=" M 35.99 62.19 C 35.89 60.77 36.60 60.00 38.12 59.87 C 38.02 61.22 37.31 62.00 35.99 62.19 Z" />
<path fill="#6e6c6e" opacity="1.00" d=" M 98.28 72.26 C 98.81 72.74 98.81 72.74 98.28 72.26 Z" />
<path fill="#6e6c6e" opacity="1.00" d=" M 88.33 73.26 C 89.58 72.40 90.35 72.61 90.66 73.89 C 89.41 74.74 88.63 74.54 88.33 73.26 Z" />
<path fill="#6e6c6e" opacity="1.00" d=" M 37.24 106.08 C 40.22 104.51 37.42 109.39 37.24 106.08 Z" />
</g>
<g id="#a09ea0ff">
<path fill="#a09ea0" opacity="1.00" d=" M 28.28 19.87 C 28.28 16.18 27.46 12.57 27.23 8.91 C 27.71 10.40 28.24 11.95 29.93 12.41 C 29.98 14.12 30.01 15.84 30.10 17.55 C 31.91 21.39 31.77 25.78 33.20 29.75 C 33.65 30.12 34.55 30.87 35.01 31.24 C 35.00 32.83 35.01 34.41 35.02 35.99 C 34.52 36.00 33.52 36.00 33.02 36.00 L 32.94 36.73 C 31.58 37.22 30.24 37.74 28.91 38.27 C 28.48 35.05 30.42 31.96 29.45 28.82 C 28.52 25.39 29.15 21.83 30.05 18.48 C 29.61 18.83 28.72 19.52 28.28 19.87 Z" />
<path fill="#a09ea0" opacity="1.00" d=" M 48.74 26.11 C 53.97 24.61 55.56 30.62 58.63 33.39 C 58.45 33.74 58.11 34.42 57.94 34.77 C 60.58 34.77 59.22 37.75 59.32 39.35 C 57.35 41.47 54.06 41.53 51.35 41.90 C 49.09 39.05 47.23 35.93 45.07 33.02 C 46.30 31.65 47.33 30.12 48.36 28.59 C 48.59 28.32 49.05 27.78 49.29 27.51 C 49.31 27.48 49.37 27.41 49.40 27.38 L 49.37 27.33 L 48.74 26.11 Z" />
<path fill="#a09ea0" opacity="1.00" d=" M 58.93 31.34 C 60.32 28.13 64.08 27.74 67.15 27.98 C 66.83 28.49 66.18 29.52 65.85 30.03 C 67.84 29.53 70.11 28.41 71.92 29.98 C 74.10 30.82 73.49 34.06 75.95 34.53 C 74.87 35.41 71.81 35.95 73.83 37.76 C 73.23 38.27 72.64 38.79 72.04 39.30 C 71.11 38.82 70.17 38.34 69.24 37.86 C 68.47 41.75 64.46 42.26 61.14 42.29 C 61.17 40.35 61.28 38.41 61.81 36.55 C 61.09 34.69 60.09 32.95 58.93 31.34 M 63.15 34.39 C 61.50 37.33 66.45 34.70 63.15 34.39 M 71.28 37.32 C 71.77 37.85 71.77 37.85 71.28 37.32 Z" />
<path fill="#a09ea0" opacity="1.00" d=" M 37.44 33.28 C 40.58 32.77 44.36 34.10 45.96 37.04 C 47.97 40.19 50.22 43.16 52.48 46.13 C 52.12 48.69 51.87 51.27 51.77 53.86 C 51.76 54.26 51.74 55.06 51.72 55.46 L 51.04 56.06 C 50.32 56.68 49.61 57.30 48.90 57.92 C 47.33 57.96 45.76 57.99 44.19 58.04 C 39.67 63.69 32.14 65.20 25.51 66.97 C 24.40 65.95 23.04 65.11 22.29 63.77 C 21.28 59.34 22.70 54.88 23.49 50.54 C 21.11 49.46 17.89 48.12 17.69 45.11 C 18.55 39.92 23.82 37.42 26.87 33.60 C 26.92 35.75 26.98 37.89 27.03 40.04 C 27.67 40.01 28.96 39.94 29.61 39.91 C 30.53 40.98 31.44 42.06 32.34 43.15 C 30.78 43.73 29.20 44.24 27.59 44.66 C 27.80 46.47 27.50 49.15 29.97 49.41 C 33.46 49.28 36.57 47.41 39.76 46.17 L 39.71 46.98 C 37.61 46.80 37.35 50.35 39.62 48.86 C 39.59 49.78 39.53 51.63 39.50 52.55 C 39.40 52.43 39.21 52.20 39.11 52.09 C 39.06 51.37 38.96 49.95 38.91 49.24 C 36.78 50.13 34.73 51.22 32.88 52.60 L 32.57 52.35 L 31.57 51.59 C 31.55 51.58 31.51 51.56 31.50 51.55 C 31.17 51.88 30.51 52.53 30.18 52.85 C 29.14 52.14 28.09 51.44 27.08 50.69 C 26.95 50.41 26.68 49.85 26.55 49.57 L 26.57 49.59 C 26.54 49.54 26.50 49.44 26.47 49.39 C 26.12 48.65 25.43 47.16 25.08 46.42 C 24.60 52.00 23.47 57.50 23.29 63.10 C 27.55 64.80 31.87 63.64 35.99 62.19 C 37.31 62.00 38.02 61.22 38.12 59.87 C 40.22 57.15 42.01 54.21 43.51 51.12 C 43.71 50.72 44.11 49.92 44.31 49.52 L 43.76 48.93 C 43.42 48.57 42.73 47.86 42.39 47.50 C 43.69 45.64 44.95 43.74 46.09 41.78 C 44.34 41.37 42.55 41.21 40.77 41.52 C 41.56 40.78 41.90 39.88 41.77 38.81 C 41.21 39.10 40.10 39.69 39.54 39.98 C 38.58 39.40 37.62 38.83 36.66 38.26 C 35.73 39.74 34.80 41.21 33.87 42.69 C 32.97 41.35 32.08 40.02 31.18 38.69 C 33.84 37.57 35.93 35.73 37.44 33.28 M 35.34 49.06 C 35.54 52.35 38.34 47.52 35.34 49.06 M 33.29 50.27 C 33.80 50.78 33.80 50.78 33.29 50.27 M 44.21 52.10 C 44.36 55.38 47.24 50.59 44.21 52.10 M 49.26 54.36 C 49.78 54.87 49.78 54.87 49.26 54.36 Z" />
<path fill="#a09ea0" opacity="1.00" d=" M 78.75 38.10 C 80.60 37.70 82.47 37.35 84.36 37.15 C 85.85 36.95 86.64 38.56 87.71 39.30 C 88.30 41.48 88.77 43.68 89.13 45.91 C 88.40 45.88 86.93 45.82 86.20 45.79 C 85.58 45.16 84.96 44.54 84.34 43.92 C 82.88 46.98 79.96 49.00 76.88 50.20 C 77.10 49.73 77.55 48.80 77.78 48.34 C 77.22 47.35 76.67 46.36 76.13 45.37 C 76.00 46.17 75.76 47.77 75.64 48.58 C 72.33 47.66 76.22 44.56 76.92 42.78 C 77.08 42.27 77.39 41.24 77.55 40.72 C 77.23 39.67 77.67 38.49 78.75 38.10 M 83.16 39.38 C 82.33 40.65 82.55 41.43 83.82 41.72 C 84.65 40.44 84.43 39.66 83.16 39.38 Z" />
<path fill="#a09ea0" opacity="1.00" d=" M 89.01 47.85 C 93.58 49.21 96.84 52.97 99.14 56.98 C 98.65 57.01 97.66 57.08 97.16 57.11 C 96.95 59.88 95.72 62.37 94.45 64.79 C 91.81 64.55 89.18 64.16 86.58 63.61 C 86.21 63.13 85.46 62.16 85.09 61.68 C 85.01 62.48 84.85 64.09 84.77 64.89 C 82.67 66.66 80.86 64.22 79.71 62.59 C 78.62 59.76 79.00 55.68 81.98 54.13 C 84.26 52.94 86.78 52.31 89.08 51.15 C 89.06 50.33 89.02 48.68 89.01 47.85 M 92.13 51.23 C 91.80 52.62 92.33 53.17 93.71 52.88 C 94.04 51.48 93.51 50.94 92.13 51.23 M 83.05 55.25 C 81.63 58.29 86.38 55.27 83.05 55.25 Z" />
<path fill="#a09ea0" opacity="1.00" d=" M 97.09 68.04 C 98.32 68.06 99.55 68.07 100.79 68.09 C 103.15 70.98 103.28 74.68 102.86 78.23 C 101.61 77.07 100.51 75.75 99.60 74.31 C 97.88 75.16 96.18 76.07 94.36 76.67 C 93.45 76.05 92.58 75.39 91.74 74.69 C 92.15 75.68 92.56 76.67 92.97 77.67 C 92.41 78.98 91.85 80.29 91.28 81.59 C 89.38 81.32 87.07 82.02 85.48 80.68 C 84.23 77.10 85.45 73.33 87.13 70.12 C 88.95 70.08 90.77 70.03 92.58 69.88 C 93.89 68.73 95.64 69.11 97.21 69.02 L 97.09 68.04 M 98.28 72.26 C 98.81 72.74 98.81 72.74 98.28 72.26 M 88.33 73.26 C 88.63 74.54 89.41 74.74 90.66 73.89 C 90.35 72.61 89.58 72.40 88.33 73.26 Z" />
<path fill="#a09ea0" opacity="1.00" d=" M 89.64 85.52 C 90.51 86.29 91.37 87.10 91.98 88.10 C 91.32 91.53 89.28 94.46 87.42 97.35 C 86.41 94.35 85.78 91.08 86.93 88.02 C 87.79 87.14 88.69 86.31 89.64 85.52 Z" />
<path fill="#a09ea0" opacity="1.00" d=" M 95.61 87.83 C 97.35 87.25 99.13 86.80 100.87 86.21 C 101.19 87.11 101.51 88.01 101.84 88.91 C 98.80 89.68 94.97 91.34 92.62 88.27 C 93.37 88.16 94.86 87.94 95.61 87.83 Z" />
<path fill="#a09ea0" opacity="1.00" d=" M 84.18 95.64 C 86.92 98.34 88.70 101.84 91.48 104.52 C 89.89 104.02 88.31 103.54 86.71 103.07 C 86.22 103.48 85.23 104.30 84.73 104.70 C 83.54 103.82 81.99 103.27 81.15 101.99 C 81.61 100.22 82.39 98.55 83.24 96.94 C 83.48 96.62 83.95 95.97 84.18 95.64 Z" />
<path fill="#a09ea0" opacity="1.00" d=" M 76.69 99.14 C 77.75 99.11 78.82 99.09 79.89 99.06 C 79.93 100.41 79.97 101.76 80.01 103.11 C 79.57 102.85 78.69 102.34 78.25 102.08 C 77.80 103.03 77.35 103.98 76.90 104.94 C 75.68 104.95 74.46 104.96 73.24 104.97 C 72.99 106.50 72.75 108.04 72.48 109.57 C 71.87 106.43 72.75 103.38 73.98 100.52 L 74.45 99.30 C 75.01 99.26 76.13 99.18 76.69 99.14 Z" />
<path fill="#a09ea0" opacity="1.00" d=" M 63.11 103.17 C 64.52 99.70 70.24 98.97 72.07 102.29 C 70.84 103.54 70.91 105.31 70.72 106.92 C 68.67 105.89 64.74 104.86 63.51 107.41 C 61.43 106.84 62.49 104.50 63.11 103.17 Z" />
<path fill="#a09ea0" opacity="1.00" d=" M 55.03 104.96 C 56.40 103.39 57.28 100.42 59.90 101.02 C 61.47 100.82 61.56 102.97 62.30 103.89 L 61.00 104.01 C 61.00 104.81 60.99 106.42 60.99 107.23 C 60.49 106.87 59.47 106.16 58.97 105.81 C 58.92 106.72 58.84 108.55 58.80 109.46 C 56.91 108.57 55.99 106.69 55.03 104.96 Z" />
<path fill="#a09ea0" opacity="1.00" d=" M 33.96 105.11 C 36.93 104.15 40.04 104.46 43.01 105.24 C 43.00 105.97 42.99 107.42 42.99 108.14 C 39.70 108.32 36.41 108.56 33.14 108.93 C 33.14 108.28 33.15 106.99 33.16 106.35 L 33.17 105.28 L 33.96 105.11 M 37.24 106.08 C 37.42 109.39 40.22 104.51 37.24 106.08 Z" />
<path fill="#a09ea0" opacity="1.00" d=" M 49.44 105.18 C 51.03 104.74 52.61 104.31 54.21 103.92 C 53.78 105.02 53.30 106.09 52.77 107.14 C 53.33 107.12 54.46 107.07 55.03 107.04 C 54.86 107.67 54.51 108.93 54.34 109.56 C 53.01 109.44 51.69 109.28 50.39 109.01 C 50.08 107.73 49.76 106.46 49.44 105.18 Z" />
<path fill="#a09ea0" opacity="1.00" d=" M 47.37 105.03 C 47.94 105.88 48.51 106.73 49.08 107.59 C 48.70 108.34 48.40 110.52 47.11 109.59 C 45.89 109.01 44.87 108.10 43.82 107.27 C 44.67 106.06 46.08 105.59 47.37 105.03 Z" />
<path fill="#a09ea0" opacity="1.00" d=" M 29.27 107.24 C 30.53 106.40 31.31 106.61 31.61 107.88 C 30.35 108.72 29.57 108.51 29.27 107.24 Z" />
</g>
<g id="#bfbcbfff">
<path fill="#bfbcbf" opacity="1.00" d=" M 35.74 31.92 C 39.46 28.81 44.23 27.56 48.74 26.11 L 49.37 27.33 L 49.29 27.51 C 49.05 27.78 48.59 28.32 48.36 28.59 C 46.93 29.65 45.59 30.89 43.98 31.65 C 41.23 31.38 38.46 31.41 35.74 31.92 Z" />
<path fill="#bfbcbf" opacity="1.00" d=" M 78.75 38.10 C 79.29 36.90 80.02 35.81 80.81 34.75 C 81.97 35.58 83.16 36.38 84.36 37.15 C 82.47 37.35 80.60 37.70 78.75 38.10 Z" />
<path fill="#bfbcbf" opacity="1.00" d=" M 29.61 39.91 C 30.00 39.61 30.79 38.99 31.18 38.69 C 32.08 40.02 32.97 41.35 33.87 42.69 C 34.80 41.21 35.73 39.74 36.66 38.26 C 37.62 38.83 38.58 39.40 39.54 39.98 C 39.69 40.38 40.00 41.17 40.15 41.57 L 40.77 41.52 C 42.55 41.21 44.34 41.37 46.09 41.78 C 44.95 43.74 43.69 45.64 42.39 47.50 C 42.73 47.86 43.42 48.57 43.76 48.93 C 43.70 49.47 43.57 50.57 43.51 51.12 C 42.01 54.21 40.22 57.15 38.12 59.87 C 36.60 60.00 35.89 60.77 35.99 62.19 C 31.87 63.64 27.55 64.80 23.29 63.10 C 23.47 57.50 24.60 52.00 25.08 46.42 C 25.43 47.16 26.12 48.65 26.47 49.39 L 26.55 49.57 C 26.68 49.85 26.95 50.41 27.08 50.69 C 28.06 52.79 29.59 54.55 31.13 56.26 C 30.84 55.12 30.52 53.98 30.18 52.85 C 30.51 52.53 31.17 51.88 31.50 51.55 L 31.57 51.59 L 32.57 52.35 C 32.85 55.97 39.00 55.55 39.11 52.09 C 39.21 52.20 39.40 52.43 39.50 52.55 C 39.53 51.63 39.59 49.78 39.62 48.86 C 39.64 48.39 39.69 47.45 39.71 46.98 L 39.76 46.17 C 36.57 47.41 33.46 49.28 29.97 49.41 C 27.50 49.15 27.80 46.47 27.59 44.66 C 29.20 44.24 30.78 43.73 32.34 43.15 C 31.44 42.06 30.53 40.98 29.61 39.91 M 28.26 58.22 C 28.79 58.74 28.79 58.74 28.26 58.22 M 27.24 60.08 C 26.17 60.28 25.12 62.75 26.72 62.82 C 27.76 62.59 28.82 60.16 27.24 60.08 Z" />
<path fill="#bfbcbf" opacity="1.00" d=" M 17.80 49.69 C 19.34 50.36 21.18 51.02 19.96 53.03 L 20.99 53.00 L 21.25 51.53 C 21.50 52.17 21.99 53.44 22.24 54.08 C 19.30 54.74 17.13 52.65 17.80 49.69 Z" />
<path fill="#bfbcbf" opacity="1.00" d=" M 38.91 49.24 C 38.96 49.95 39.06 51.37 39.11 52.09 C 37.47 53.99 34.61 55.06 32.88 52.60 C 34.73 51.22 36.78 50.13 38.91 49.24 Z" />
<path fill="#bfbcbf" opacity="1.00" d=" M 37.98 69.00 C 40.61 65.64 42.66 61.83 45.62 58.74 C 45.09 60.82 44.43 62.86 43.70 64.87 C 43.36 65.75 42.83 66.49 42.09 67.10 C 40.75 67.79 39.37 68.41 37.98 69.00 Z" />
</g>
</svg>
