<?xml version="1.0" encoding="UTF-8" ?>
<!DOCTYPE svg PUBLIC "-//W3C//DTD SVG 1.1//EN" "http://www.w3.org/Graphics/SVG/1.1/DTD/svg11.dtd">
<svg width="120pt" height="120pt" viewBox="0 0 120 120" version="1.1" xmlns="http://www.w3.org/2000/svg">
<g id="#353535ff">
<path fill="#353535" opacity="1.00" d=" M 45.56 42.44 C 48.92 40.80 52.38 41.45 55.85 42.17 C 57.44 44.17 58.58 46.50 56.84 48.81 C 56.44 48.78 55.63 48.72 55.22 48.69 C 54.79 48.84 53.93 49.13 53.50 49.28 L 53.41 50.17 C 51.24 49.73 49.71 51.52 48.99 53.33 C 49.49 53.31 50.48 53.27 50.98 53.25 C 49.98 55.99 49.58 58.87 50.19 61.75 C 49.43 62.54 48.63 63.28 47.83 64.03 C 46.96 64.09 45.22 64.20 44.35 64.26 C 46.08 66.26 47.90 68.19 49.71 70.13 C 49.63 68.67 49.52 67.22 49.52 65.77 C 49.61 65.63 49.80 65.36 49.89 65.23 C 52.39 66.67 55.12 66.25 57.57 64.95 C 57.80 66.40 57.97 67.87 58.16 69.34 C 55.51 69.74 52.85 69.99 50.20 70.39 C 54.61 71.45 59.16 71.08 63.64 70.97 C 64.09 69.95 64.53 68.92 64.96 67.90 C 65.45 66.34 65.66 64.72 65.68 63.10 C 66.48 60.38 66.15 57.82 63.96 55.90 C 62.73 55.95 61.50 55.99 60.26 56.03 C 59.35 57.45 58.45 58.89 57.56 60.32 C 59.03 61.58 60.54 62.87 62.45 63.41 C 61.76 62.91 60.37 61.90 59.67 61.40 C 59.78 58.38 62.53 57.54 65.11 57.73 C 65.47 59.64 65.20 61.54 63.69 62.88 C 64.07 62.97 64.83 63.14 65.21 63.22 C 65.15 63.44 65.03 63.88 64.97 64.10 C 62.01 64.36 59.24 63.50 56.71 62.04 C 57.06 59.73 57.77 57.46 59.19 55.57 C 61.03 55.30 62.86 55.05 64.70 54.79 C 65.67 56.23 66.56 57.72 67.34 59.26 C 67.06 60.24 66.50 62.19 66.22 63.17 C 68.59 60.47 71.39 58.20 74.43 56.30 C 73.16 55.46 71.89 54.62 70.63 53.77 C 68.90 52.61 67.28 51.30 65.65 50.00 C 65.79 49.67 66.05 49.01 66.19 48.67 L 66.54 47.92 C 66.77 48.19 67.22 48.73 67.45 49.01 C 69.09 50.67 70.82 52.24 72.74 53.58 C 74.42 54.59 76.35 54.85 78.27 54.74 L 78.89 54.83 C 78.62 55.41 78.09 56.55 77.82 57.13 C 78.73 57.13 80.54 57.13 81.45 57.13 L 80.46 58.26 L 80.10 58.19 C 78.84 57.92 77.60 57.64 76.36 57.34 C 73.23 58.13 70.31 59.63 68.22 62.13 C 67.98 62.42 67.52 63.00 67.29 63.29 C 66.42 65.76 65.77 68.29 65.15 70.83 C 65.93 73.25 65.74 75.76 65.02 78.16 C 66.27 77.56 67.52 76.96 68.78 76.37 C 68.26 77.03 67.22 78.35 66.69 79.01 C 66.03 79.00 64.72 78.99 64.06 78.98 C 64.06 76.65 64.07 74.32 64.07 71.98 C 59.56 71.94 55.05 72.07 50.55 71.87 C 49.11 71.06 47.63 70.32 46.12 69.64 C 46.06 70.34 45.93 71.76 45.87 72.47 C 45.56 73.10 44.96 74.36 44.66 74.99 C 44.33 75.00 43.68 75.00 43.35 75.00 C 43.05 73.74 42.68 72.50 42.23 71.29 C 42.91 68.84 44.01 65.97 42.25 63.71 C 42.04 63.34 41.61 62.61 41.39 62.24 C 41.24 60.87 41.17 59.50 41.10 58.13 L 42.05 58.40 C 42.01 59.66 41.98 60.92 41.95 62.18 C 43.93 62.68 45.94 63.14 48.01 63.00 C 46.65 62.31 45.17 61.92 43.69 61.59 C 43.92 60.45 44.18 59.33 44.48 58.21 C 45.99 57.79 47.46 58.48 48.94 58.68 C 49.70 55.89 46.08 55.83 44.22 55.91 L 44.21 55.01 L 45.03 55.34 C 45.26 55.04 45.73 54.45 45.96 54.15 L 46.13 53.42 C 47.98 52.21 49.68 50.79 51.38 49.38 C 53.02 48.13 54.82 47.10 56.62 46.10 C 56.06 45.12 55.50 44.16 54.93 43.19 C 53.24 42.93 51.56 42.58 49.86 42.34 L 48.75 42.62 C 48.32 42.74 47.46 42.98 47.02 43.09 L 46.50 43.24 L 45.56 42.44 M 47.27 54.24 C 47.77 54.81 47.77 54.81 47.27 54.24 M 48.10 60.16 C 46.89 63.22 51.03 60.72 48.10 60.16 M 55.39 67.19 C 54.75 68.82 55.26 69.39 56.91 68.88 C 57.54 67.25 57.03 66.69 55.39 67.19 M 44.26 71.48 C 45.55 71.46 46.22 69.06 45.61 68.02 C 43.90 67.52 43.50 70.43 44.26 71.48 Z" />
</g>
<g id="#262c2bf1">
<path fill="#262c2b" opacity="0.95" d=" M 67.50 42.61 C 69.95 41.11 72.78 40.81 75.60 40.96 C 78.35 42.23 79.59 44.97 80.96 47.48 C 80.79 49.58 81.79 52.24 79.79 53.77 C 79.91 52.76 80.14 50.73 80.25 49.72 C 79.64 47.83 78.83 46.01 77.95 44.24 L 77.88 44.14 C 76.82 43.36 75.71 42.65 74.61 41.92 C 73.28 42.01 71.95 42.08 70.63 42.24 L 69.65 42.68 L 68.86 43.06 C 67.92 43.51 66.98 43.96 66.04 44.41 C 66.10 45.83 66.15 47.25 66.19 48.67 C 66.05 49.01 65.79 49.67 65.65 50.00 C 62.99 50.00 60.33 50.03 57.67 50.13 C 56.57 50.59 55.47 51.03 54.36 51.47 C 53.24 52.08 52.12 52.68 50.98 53.25 C 51.97 52.37 52.73 51.29 53.41 50.17 C 53.86 49.80 54.77 49.06 55.22 48.69 C 55.63 48.72 56.44 48.78 56.84 48.81 C 59.57 49.05 62.30 49.02 65.04 49.00 C 64.99 47.49 64.93 45.98 64.87 44.46 C 65.74 43.84 66.62 43.22 67.50 42.61 Z" />
</g>
<g id="#ffdeffff">
<path fill="#ffdeff" opacity="1.00" d=" M 49.86 42.34 C 51.56 42.58 53.24 42.93 54.93 43.19 C 55.50 44.16 56.06 45.12 56.62 46.10 C 54.82 47.10 53.02 48.13 51.38 49.38 C 50.78 49.04 49.60 48.34 49.01 48.00 C 48.75 47.49 48.22 46.49 47.96 45.99 C 47.47 46.28 46.47 46.87 45.97 47.16 C 46.12 46.51 46.42 45.22 46.57 44.57 C 47.74 44.62 48.81 44.30 49.78 43.62 C 49.52 43.37 49.01 42.87 48.75 42.62 L 49.86 42.34 M 52.21 44.26 C 51.64 45.92 52.16 46.48 53.77 45.93 C 54.36 44.28 53.84 43.73 52.21 44.26 Z" />
<path fill="#ffdeff" opacity="1.00" d=" M 60.26 56.03 C 61.50 55.99 62.73 55.95 63.96 55.90 C 66.15 57.82 66.48 60.38 65.68 63.10 L 65.21 63.22 C 64.83 63.14 64.07 62.97 63.69 62.88 C 65.20 61.54 65.47 59.64 65.11 57.73 C 62.53 57.54 59.78 58.38 59.67 61.40 C 60.37 61.90 61.76 62.91 62.45 63.41 C 60.54 62.87 59.03 61.58 57.56 60.32 C 58.45 58.89 59.35 57.45 60.26 56.03 Z" />
</g>
<g id="#ffd0f7ff">
<path fill="#ffd0f7" opacity="1.00" d=" M 70.63 42.24 C 71.95 42.08 73.28 42.01 74.61 41.92 C 75.71 42.65 76.82 43.36 77.88 44.14 L 77.95 44.24 C 77.09 45.45 76.27 46.69 75.49 47.95 C 75.06 48.16 74.19 48.58 73.76 48.79 C 75.32 46.28 70.75 46.24 72.03 48.80 C 71.50 48.55 70.43 48.05 69.90 47.80 C 70.72 44.97 66.78 45.92 66.54 47.92 L 66.19 48.67 C 66.15 47.25 66.10 45.83 66.04 44.41 C 66.98 43.96 67.92 43.51 68.86 43.06 C 68.40 45.13 72.41 44.84 71.55 43.16 C 71.07 43.04 70.12 42.80 69.65 42.68 L 70.63 42.24 Z" />
</g>
<g id="#f5b2ceff">
<path fill="#f5b2ce" opacity="1.00" d=" M 46.50 43.24 L 47.02 43.09 C 46.91 43.46 46.68 44.20 46.57 44.57 C 46.42 45.22 46.12 46.51 45.97 47.16 L 45.83 47.80 C 46.72 48.58 48.01 48.59 49.01 48.00 C 49.60 48.34 50.78 49.04 51.38 49.38 C 49.68 50.79 47.98 52.21 46.13 53.42 C 45.62 53.41 44.59 53.38 44.08 53.37 C 43.90 53.01 43.54 52.29 43.35 51.93 C 44.93 51.03 45.27 48.41 43.11 48.05 C 43.57 46.80 44.06 45.56 44.57 44.34 C 45.11 43.78 45.75 43.41 46.50 43.24 Z" />
</g>
<g id="#ffff46ff">
<path fill="#ffff46" opacity="1.00" d=" M 47.02 43.09 C 47.46 42.98 48.32 42.74 48.75 42.62 C 49.01 42.87 49.52 43.37 49.78 43.62 C 48.81 44.30 47.74 44.62 46.57 44.57 C 46.68 44.20 46.91 43.46 47.02 43.09 Z" />
</g>
<g id="#fffe4eff">
<path fill="#fffe4e" opacity="1.00" d=" M 68.86 43.06 L 69.65 42.68 C 70.12 42.80 71.07 43.04 71.55 43.16 C 72.41 44.84 68.40 45.13 68.86 43.06 Z" />
</g>
<g id="#ffff33ff">
<path fill="#ffff33" opacity="1.00" d=" M 52.21 44.26 C 53.84 43.73 54.36 44.28 53.77 45.93 C 52.16 46.48 51.64 45.92 52.21 44.26 Z" />
</g>
<g id="#0c171ee0">
<path fill="#0c171e" opacity="0.88" d=" M 42.83 54.63 C 41.24 51.44 41.28 46.50 44.57 44.34 C 44.06 45.56 43.57 46.80 43.11 48.05 C 42.61 49.38 42.69 50.67 43.35 51.93 C 43.54 52.29 43.90 53.01 44.08 53.37 L 44.18 54.15 L 44.21 55.01 L 44.22 55.91 C 43.53 56.78 42.81 57.61 42.05 58.40 L 41.10 58.13 C 40.25 57.86 39.41 57.58 38.57 57.29 C 37.46 57.55 36.34 57.80 35.23 58.06 C 34.40 56.31 37.28 56.90 38.22 56.35 C 39.85 56.05 41.44 56.99 43.04 57.19 C 42.99 56.55 42.88 55.27 42.83 54.63 Z" />
</g>
<g id="#fff32fff">
<path fill="#fff32f" opacity="1.00" d=" M 75.49 47.95 C 76.27 46.69 77.09 45.45 77.95 44.24 C 78.83 46.01 79.64 47.83 80.25 49.72 C 79.80 50.05 78.88 50.72 78.42 51.05 C 77.45 50.01 76.47 48.98 75.49 47.95 Z" />
</g>
<g id="#fffa4bff">
<path fill="#fffa4b" opacity="1.00" d=" M 45.97 47.16 C 46.47 46.87 47.47 46.28 47.96 45.99 C 48.22 46.49 48.75 47.49 49.01 48.00 C 48.01 48.59 46.72 48.58 45.83 47.80 L 45.97 47.16 Z" />
</g>
<g id="#fff445ff">
<path fill="#fff445" opacity="1.00" d=" M 66.54 47.92 C 66.78 45.92 70.72 44.97 69.90 47.80 C 69.29 48.10 68.06 48.70 67.45 49.01 C 67.22 48.73 66.77 48.19 66.54 47.92 Z" />
</g>
<g id="#fffe4bff">
<path fill="#fffe4b" opacity="1.00" d=" M 72.03 48.80 C 70.75 46.24 75.32 46.28 73.76 48.79 L 72.88 49.20 L 72.03 48.80 Z" />
</g>
<g id="#fed735ff">
<path fill="#fed735" opacity="1.00" d=" M 43.11 48.05 C 45.27 48.41 44.93 51.03 43.35 51.93 C 42.69 50.67 42.61 49.38 43.11 48.05 Z" />
</g>
<g id="#ffbbdaff">
<path fill="#ffbbda" opacity="1.00" d=" M 67.45 49.01 C 68.06 48.70 69.29 48.10 69.90 47.80 C 70.43 48.05 71.50 48.55 72.03 48.80 L 72.88 49.20 L 73.76 48.79 C 74.19 48.58 75.06 48.16 75.49 47.95 C 76.47 48.98 77.45 50.01 78.42 51.05 C 78.88 50.72 79.80 50.05 80.25 49.72 C 80.14 50.73 79.91 52.76 79.79 53.77 C 79.73 54.03 79.61 54.53 79.55 54.78 L 78.89 54.83 L 78.27 54.74 C 77.63 53.24 76.66 51.93 75.67 50.64 C 74.69 51.62 73.71 52.60 72.74 53.58 C 70.82 52.24 69.09 50.67 67.45 49.01 Z" />
</g>
<g id="#ffc35eff">
<path fill="#ffc35e" opacity="1.00" d=" M 53.50 49.28 C 53.93 49.13 54.79 48.84 55.22 48.69 C 54.77 49.06 53.86 49.80 53.41 50.17 L 53.50 49.28 Z" />
<path fill="#ffc35e" opacity="1.00" d=" M 48.99 53.33 C 49.71 51.52 51.24 49.73 53.41 50.17 C 52.73 51.29 51.97 52.37 50.98 53.25 C 50.48 53.27 49.49 53.31 48.99 53.33 Z" />
<path fill="#ffc35e" opacity="1.00" d=" M 57.67 50.13 C 60.33 50.03 62.99 50.00 65.65 50.00 C 67.28 51.30 68.90 52.61 70.63 53.77 C 69.57 55.62 68.48 57.46 67.34 59.26 C 66.56 57.72 65.67 56.23 64.70 54.79 C 63.86 53.78 63.21 52.47 61.98 51.87 C 60.13 51.18 58.75 52.83 57.39 53.75 C 57.84 54.21 58.74 55.12 59.19 55.57 C 57.77 57.46 57.06 59.73 56.71 62.04 C 56.25 61.98 55.32 61.87 54.85 61.81 C 54.22 61.81 52.95 61.79 52.31 61.79 C 51.78 61.78 50.72 61.76 50.19 61.75 C 49.58 58.87 49.98 55.99 50.98 53.25 C 52.12 52.68 53.24 52.08 54.36 51.47 C 55.47 51.03 56.57 50.59 57.67 50.13 M 64.29 51.24 C 64.72 51.82 64.72 51.82 64.29 51.24 M 52.28 55.19 C 52.81 55.72 52.81 55.72 52.28 55.19 M 51.22 58.25 C 51.79 58.79 51.79 58.79 51.22 58.25 Z" />
<path fill="#ffc35e" opacity="1.00" d=" M 38.57 57.29 C 39.41 57.58 40.25 57.86 41.10 58.13 C 41.17 59.50 41.24 60.87 41.39 62.24 C 41.61 62.61 42.04 63.34 42.25 63.71 C 40.73 65.66 39.07 67.51 37.22 69.16 C 35.86 66.39 34.66 63.54 33.76 60.58 C 33.88 60.20 34.11 59.44 34.23 59.06 C 34.48 58.81 34.98 58.31 35.23 58.06 C 36.34 57.80 37.46 57.55 38.57 57.29 Z" />
</g>
<g id="#bd8345ff">
<path fill="#bd8345" opacity="1.00" d=" M 64.29 51.24 C 64.72 51.82 64.72 51.82 64.29 51.24 Z" />
</g>
<g id="#ebbf27ff">
<path fill="#ebbf27" opacity="1.00" d=" M 75.67 50.64 C 76.66 51.93 77.63 53.24 78.27 54.74 C 76.35 54.85 74.42 54.59 72.74 53.58 C 73.71 52.60 74.69 51.62 75.67 50.64 Z" />
</g>
<g id="#ffe56fff">
<path fill="#ffe56f" opacity="1.00" d=" M 57.39 53.75 C 58.75 52.83 60.13 51.18 61.98 51.87 C 63.21 52.47 63.86 53.78 64.70 54.79 C 62.86 55.05 61.03 55.30 59.19 55.57 C 58.74 55.12 57.84 54.21 57.39 53.75 Z" />
</g>
<g id="#e0a910ff">
<path fill="#e0a910" opacity="1.00" d=" M 44.08 53.37 C 44.59 53.38 45.62 53.41 46.13 53.42 L 45.96 54.15 C 45.51 54.15 44.62 54.15 44.18 54.15 L 44.08 53.37 Z" />
</g>
<g id="#9d5b77ff">
<path fill="#9d5b77" opacity="1.00" d=" M 44.18 54.15 C 44.62 54.15 45.51 54.15 45.96 54.15 C 45.73 54.45 45.26 55.04 45.03 55.34 L 44.21 55.01 L 44.18 54.15 Z" />
</g>
<g id="#b39f56ff">
<path fill="#b39f56" opacity="1.00" d=" M 47.27 54.24 C 47.77 54.81 47.77 54.81 47.27 54.24 Z" />
</g>
<g id="#fbad54ff">
<path fill="#fbad54" opacity="1.00" d=" M 70.63 53.77 C 71.89 54.62 73.16 55.46 74.43 56.30 C 71.39 58.20 68.59 60.47 66.22 63.17 C 66.50 62.19 67.06 60.24 67.34 59.26 C 68.48 57.46 69.57 55.62 70.63 53.77 Z" />
</g>
<g id="#875d2eff">
<path fill="#875d2e" opacity="1.00" d=" M 52.28 55.19 C 52.81 55.72 52.81 55.72 52.28 55.19 Z" />
</g>
<g id="#dee5ecff">
<path fill="#dee5ec" opacity="1.00" d=" M 44.22 55.91 C 46.08 55.83 49.70 55.89 48.94 58.68 C 47.46 58.48 45.99 57.79 44.48 58.21 C 44.18 59.33 43.92 60.45 43.69 61.59 C 45.17 61.92 46.65 62.31 48.01 63.00 C 45.94 63.14 43.93 62.68 41.95 62.18 C 41.98 60.92 42.01 59.66 42.05 58.40 C 42.81 57.61 43.53 56.78 44.22 55.91 Z" />
</g>
<g id="#ffc25eff">
<path fill="#ffc25e" opacity="1.00" d=" M 76.36 57.34 C 77.60 57.64 78.84 57.92 80.10 58.19 C 80.14 58.43 80.22 58.93 80.26 59.18 C 76.72 62.63 73.55 67.14 68.35 68.09 C 68.30 66.10 68.26 64.12 68.22 62.13 C 70.31 59.63 73.23 58.13 76.36 57.34 Z" />
</g>
<g id="#604123ff">
<path fill="#604123" opacity="1.00" d=" M 51.22 58.25 C 51.79 58.79 51.79 58.79 51.22 58.25 Z" />
</g>
<g id="#44331fff">
<path fill="#44331f" opacity="1.00" d=" M 80.10 58.19 L 80.46 58.26 C 82.46 58.85 81.89 61.08 82.11 62.64 C 83.32 64.87 85.05 66.74 86.91 68.44 C 86.99 69.43 87.09 70.41 87.19 71.40 C 88.03 72.90 87.99 74.64 88.13 76.30 C 87.61 76.14 86.56 75.82 86.04 75.66 L 85.75 74.37 C 85.47 73.89 84.89 72.92 84.60 72.44 C 84.98 72.32 85.74 72.08 86.11 71.95 C 86.18 68.68 83.01 67.01 81.77 64.31 C 81.06 62.66 80.69 60.91 80.26 59.18 C 80.22 58.93 80.14 58.43 80.10 58.19 Z" />
</g>
<g id="#2e281ef3">
<path fill="#2e281e" opacity="0.95" d=" M 34.41 58.46 L 34.23 59.06 C 34.11 59.44 33.88 60.20 33.76 60.58 C 33.32 61.08 32.44 62.08 32.00 62.58 C 32.05 64.59 31.89 66.65 32.41 68.62 C 33.86 72.05 36.65 74.69 39.31 77.21 C 38.92 75.38 38.49 73.56 38.05 71.74 C 37.44 72.05 36.24 72.68 35.64 73.00 C 36.22 71.97 36.81 70.94 37.40 69.92 C 38.59 71.45 39.79 72.97 41.02 74.46 C 40.55 75.13 40.09 75.80 39.64 76.48 C 39.39 77.21 38.89 78.67 38.64 79.39 C 36.86 78.77 35.96 77.18 35.30 75.52 C 33.95 73.50 32.42 71.61 31.01 69.63 C 30.98 67.35 30.88 65.07 31.10 62.80 C 31.99 61.20 33.25 59.85 34.41 58.46 Z" />
</g>
<g id="#cbd5deff">
<path fill="#cbd5de" opacity="1.00" d=" M 48.10 60.16 C 51.03 60.72 46.89 63.22 48.10 60.16 Z" />
</g>
<g id="#f2a34fff">
<path fill="#f2a34f" opacity="1.00" d=" M 68.35 68.09 C 73.55 67.14 76.72 62.63 80.26 59.18 C 80.69 60.91 81.06 62.66 81.77 64.31 C 83.01 67.01 86.18 68.68 86.11 71.95 C 85.56 71.33 84.44 70.08 83.88 69.46 C 82.69 68.00 81.48 66.57 80.29 65.12 C 79.86 65.98 79.44 66.84 79.02 67.71 C 80.01 68.17 81.00 68.64 81.99 69.11 C 81.99 70.00 81.97 71.77 81.97 72.65 C 80.88 70.90 79.58 69.28 78.26 67.70 L 78.18 69.29 C 78.00 69.61 77.63 70.26 77.45 70.58 C 74.86 71.79 72.20 73.10 70.44 75.45 L 70.10 75.82 C 69.68 75.67 68.85 75.36 68.43 75.21 C 68.52 75.50 68.69 76.08 68.78 76.37 C 67.52 76.96 66.27 77.56 65.02 78.16 C 65.74 75.76 65.93 73.25 65.15 70.83 C 65.77 68.29 66.42 65.76 67.29 63.29 C 67.52 63.00 67.98 62.42 68.22 62.13 C 68.26 64.12 68.30 66.10 68.35 68.09 Z" />
<path fill="#f2a34f" opacity="1.00" d=" M 32.00 62.58 C 32.44 62.08 33.32 61.08 33.76 60.58 C 34.66 63.54 35.86 66.39 37.22 69.16 C 39.07 67.51 40.73 65.66 42.25 63.71 C 44.01 65.97 42.91 68.84 42.23 71.29 C 41.92 72.08 41.32 73.67 41.02 74.46 C 39.79 72.97 38.59 71.45 37.40 69.92 C 36.81 70.94 36.22 71.97 35.64 73.00 C 36.24 72.68 37.44 72.05 38.05 71.74 C 38.49 73.56 38.92 75.38 39.31 77.21 C 36.65 74.69 33.86 72.05 32.41 68.62 C 31.89 66.65 32.05 64.59 32.00 62.58 Z" />
</g>
<g id="#eea04dff">
<path fill="#eea04d" opacity="1.00" d=" M 50.19 61.75 C 50.72 61.76 51.78 61.78 52.31 61.79 L 52.02 62.40 C 51.49 63.11 50.42 64.52 49.89 65.23 C 49.80 65.36 49.61 65.63 49.52 65.77 C 49.52 67.22 49.63 68.67 49.71 70.13 C 47.90 68.19 46.08 66.26 44.35 64.26 C 45.22 64.20 46.96 64.09 47.83 64.03 C 48.63 63.28 49.43 62.54 50.19 61.75 Z" />
<path fill="#eea04d" opacity="1.00" d=" M 54.85 61.81 C 55.32 61.87 56.25 61.98 56.71 62.04 C 59.24 63.50 62.01 64.36 64.97 64.10 C 65.03 63.88 65.15 63.44 65.21 63.22 L 65.68 63.10 C 65.66 64.72 65.45 66.34 64.96 67.90 C 62.70 68.41 60.44 68.93 58.16 69.34 C 57.97 67.87 57.80 66.40 57.57 64.95 C 56.77 64.09 55.95 63.26 55.12 62.45 L 54.85 61.81 Z" />
</g>
<g id="#8f6131ff">
<path fill="#8f6131" opacity="1.00" d=" M 52.31 61.79 C 52.95 61.79 54.22 61.81 54.85 61.81 L 55.12 62.45 C 54.34 62.44 52.79 62.41 52.02 62.40 L 52.31 61.79 Z" />
</g>
<g id="#ffc05dff">
<path fill="#ffc05d" opacity="1.00" d=" M 49.89 65.23 C 50.42 64.52 51.49 63.11 52.02 62.40 C 52.79 62.41 54.34 62.44 55.12 62.45 C 55.95 63.26 56.77 64.09 57.57 64.95 C 55.12 66.25 52.39 66.67 49.89 65.23 Z" />
</g>
<g id="#5d3f1fff">
<path fill="#5d3f1f" opacity="1.00" d=" M 80.29 65.12 C 81.48 66.57 82.69 68.00 83.88 69.46 C 83.74 69.96 83.45 70.97 83.31 71.48 C 84.12 73.40 84.08 75.50 83.87 77.54 L 83.41 76.61 C 82.85 75.32 82.40 73.99 81.97 72.65 C 81.97 71.77 81.99 70.00 81.99 69.11 C 81.00 68.64 80.01 68.17 79.02 67.71 C 79.44 66.84 79.86 65.98 80.29 65.12 Z" />
</g>
<g id="#e1e1e1ff">
<path fill="#e1e1e1" opacity="1.00" d=" M 55.39 67.19 C 57.03 66.69 57.54 67.25 56.91 68.88 C 55.26 69.39 54.75 68.82 55.39 67.19 Z" />
</g>
<g id="#c98844ff">
<path fill="#c98844" opacity="1.00" d=" M 44.26 71.48 C 43.50 70.43 43.90 67.52 45.61 68.02 C 46.22 69.06 45.55 71.46 44.26 71.48 Z" />
</g>
<g id="#a17142ff">
<path fill="#a17142" opacity="1.00" d=" M 58.16 69.34 C 60.44 68.93 62.70 68.41 64.96 67.90 C 64.53 68.92 64.09 69.95 63.64 70.97 C 59.16 71.08 54.61 71.45 50.20 70.39 C 52.85 69.99 55.51 69.74 58.16 69.34 Z" />
</g>
<g id="#2d2921ff">
<path fill="#2d2921" opacity="1.00" d=" M 78.26 67.70 C 79.58 69.28 80.88 70.90 81.97 72.65 C 82.40 73.99 82.85 75.32 83.41 76.61 L 82.29 77.01 C 81.81 75.78 81.31 74.55 80.83 73.33 C 79.93 71.99 79.00 70.67 78.18 69.29 L 78.26 67.70 Z" />
</g>
<g id="#684828ff">
<path fill="#684828" opacity="1.00" d=" M 70.44 75.45 C 72.20 73.10 74.86 71.79 77.45 70.58 C 75.75 72.96 73.11 74.42 70.44 75.45 Z" />
</g>
<g id="#0c1b22ff">
<path fill="#0c1b22" opacity="1.00" d=" M 84.60 72.44 C 84.89 72.92 85.47 73.89 85.75 74.37 L 84.92 74.27 C 84.84 73.82 84.68 72.90 84.60 72.44 Z" />
</g>
</svg>
