<?xml version="1.0" encoding="UTF-8" ?>
<!DOCTYPE svg PUBLIC "-//W3C//DTD SVG 1.1//EN" "http://www.w3.org/Graphics/SVG/1.1/DTD/svg11.dtd">
<svg width="96pt" height="96pt" viewBox="0 0 96 96" version="1.1" xmlns="http://www.w3.org/2000/svg">
<g id="#101010ff">
<path fill="#101010" opacity="1.00" d=" M 41.43 18.02 C 42.47 18.01 43.51 18.01 44.55 18.00 C 45.37 18.82 46.20 19.63 47.03 20.44 C 46.98 21.45 46.93 22.45 46.90 23.46 C 46.59 24.10 45.97 25.38 45.67 26.02 L 44.69 25.87 C 44.90 24.49 45.01 23.11 45.03 21.71 C 44.42 20.90 43.74 20.15 43.01 19.44 C 41.30 21.05 39.81 22.88 38.52 24.84 C 38.43 24.93 38.27 25.12 38.19 25.22 C 37.66 25.76 36.61 26.85 36.08 27.39 C 36.03 26.84 35.94 25.72 35.89 25.17 L 37.04 24.90 C 37.04 24.36 37.04 23.27 37.04 22.73 L 37.04 22.38 C 38.04 20.49 39.53 19.00 41.43 18.02 Z" />
<path fill="#101010" opacity="1.00" d=" M 21.90 25.53 C 21.40 22.58 24.25 21.45 26.72 21.90 C 26.98 22.32 27.50 23.17 27.76 23.60 C 27.90 23.82 28.18 24.26 28.32 24.49 L 28.61 24.91 C 29.27 25.98 29.89 27.07 30.47 28.18 C 30.00 27.99 29.05 27.62 28.57 27.44 C 27.24 25.78 25.76 24.12 23.65 23.51 C 24.07 25.03 24.51 26.55 25.24 27.95 L 26.71 28.74 C 24.06 30.02 23.21 27.13 21.90 25.53 Z" />
<path fill="#101010" opacity="1.00" d=" M 47.73 35.09 C 49.10 34.97 50.48 34.93 51.87 34.98 C 51.48 36.63 48.55 36.40 47.47 35.47 L 47.73 35.09 Z" />
<path fill="#101010" opacity="1.00" d=" M 79.17 45.26 L 79.79 45.19 C 79.93 45.80 80.21 47.02 80.35 47.63 L 79.62 47.79 L 78.91 47.15 C 78.98 46.68 79.11 45.74 79.17 45.26 Z" />
</g>
<g id="#947b20ff">
<path fill="#947b20" opacity="1.00" d=" M 38.52 24.84 C 39.81 22.88 41.30 21.05 43.01 19.44 C 43.74 20.15 44.42 20.90 45.03 21.71 C 43.43 22.80 41.83 23.91 40.17 24.90 C 39.76 24.89 38.93 24.86 38.52 24.84 Z" />
</g>
<g id="#baa147ff">
<path fill="#baa147" opacity="1.00" d=" M 40.17 24.90 C 41.83 23.91 43.43 22.80 45.03 21.71 C 45.01 23.11 44.90 24.49 44.69 25.87 C 44.57 26.24 44.31 26.99 44.19 27.37 C 42.87 26.50 41.53 25.69 40.17 24.90 Z" />
</g>
<g id="#90661aeb">
<path fill="#90661a" opacity="0.92" d=" M 27.76 23.60 L 28.10 22.77 C 29.69 23.92 31.43 25.01 33.45 25.12 C 34.61 24.27 35.85 23.54 37.04 22.73 C 37.04 23.27 37.04 24.36 37.04 24.90 L 35.89 25.17 C 34.06 25.68 32.13 26.09 30.25 25.51 C 29.84 25.36 29.02 25.06 28.61 24.91 L 28.32 24.49 C 28.18 24.26 27.90 23.82 27.76 23.60 Z" />
</g>
<g id="#91781eff">
<path fill="#91781e" opacity="1.00" d=" M 23.65 23.51 C 25.76 24.12 27.24 25.78 28.57 27.44 C 27.74 27.56 26.07 27.82 25.24 27.95 C 24.51 26.55 24.07 25.03 23.65 23.51 Z" />
</g>
<g id="#ffe683ff">
<path fill="#ffe683" opacity="1.00" d=" M 28.61 24.91 C 29.02 25.06 29.84 25.36 30.25 25.51 C 32.13 26.09 34.06 25.68 35.89 25.17 C 35.94 25.72 36.03 26.84 36.08 27.39 C 36.61 26.85 37.66 25.76 38.19 25.22 C 39.56 26.26 40.89 27.36 42.05 28.63 C 41.91 29.00 41.61 29.74 41.46 30.11 C 40.98 29.84 40.01 29.29 39.53 29.02 C 37.30 29.13 35.37 30.96 35.04 33.15 L 35.43 33.33 C 35.74 33.48 36.36 33.78 36.67 33.93 L 37.23 34.50 L 38.03 34.49 C 38.63 34.72 39.83 35.18 40.43 35.41 C 39.51 36.51 38.55 37.58 37.50 38.56 L 37.27 38.78 L 36.96 38.92 L 36.31 38.99 C 35.37 38.99 33.50 39.00 32.57 39.00 C 32.75 38.57 33.12 37.69 33.31 37.25 C 32.79 37.08 31.75 36.75 31.23 36.58 C 31.75 35.44 31.99 33.11 30.11 33.25 C 29.21 32.08 28.31 30.91 27.40 29.74 C 27.57 29.58 27.90 29.25 28.07 29.08 C 27.73 29.00 27.05 28.83 26.71 28.74 L 25.24 27.95 C 26.07 27.82 27.74 27.56 28.57 27.44 C 29.05 27.62 30.00 27.99 30.47 28.18 C 29.89 27.07 29.27 25.98 28.61 24.91 M 31.46 28.07 C 31.12 28.40 30.43 29.07 30.09 29.40 C 30.05 31.81 33.87 28.10 31.46 28.07 M 31.26 31.90 C 32.67 32.62 34.62 30.66 33.90 29.25 C 32.69 29.06 31.07 30.69 31.26 31.90 Z" />
<path fill="#ffe683" opacity="1.00" d=" M 46.07 29.92 C 47.24 28.54 48.38 26.86 50.45 27.13 C 49.64 28.02 48.87 28.93 48.07 29.83 C 47.73 30.11 47.04 30.66 46.70 30.94 C 46.31 30.96 45.52 31.00 45.13 31.02 C 45.36 30.74 45.83 30.19 46.07 29.92 Z" />
<path fill="#ffe683" opacity="1.00" d=" M 23.81 33.14 C 24.01 33.32 24.42 33.67 24.62 33.85 L 23.88 33.76 L 23.81 33.14 Z" />
<path fill="#ffe683" opacity="1.00" d=" M 43.38 35.34 C 46.52 34.35 50.00 33.24 53.14 34.95 L 51.87 34.98 C 50.48 34.93 49.10 34.97 47.73 35.09 L 47.47 35.47 C 47.09 35.65 46.32 36.01 45.94 36.19 C 45.25 36.12 43.87 35.98 43.18 35.91 L 43.38 35.34 Z" />
<path fill="#ffe683" opacity="1.00" d=" M 28.74 36.62 C 30.17 36.90 31.30 37.76 32.12 38.93 C 30.87 40.30 29.10 41.01 27.77 42.28 L 29.25 39.81 C 27.77 39.76 26.30 39.63 24.83 39.42 L 25.20 39.37 C 25.86 39.24 27.20 38.98 27.87 38.85 C 28.24 38.77 29.00 38.61 29.38 38.54 L 28.74 36.62 Z" />
<path fill="#ffe683" opacity="1.00" d=" M 74.78 38.77 C 78.52 36.09 83.37 36.77 87.08 39.11 C 87.19 39.22 87.41 39.45 87.51 39.56 C 89.17 41.94 90.75 44.75 89.67 47.72 L 89.39 48.78 C 89.59 48.88 89.97 49.08 90.17 49.18 C 88.07 50.02 85.97 50.88 83.71 51.12 C 82.77 50.59 80.89 49.54 79.96 49.02 C 80.12 48.96 80.46 48.84 80.63 48.78 L 80.35 47.63 C 80.21 47.02 79.93 45.80 79.79 45.19 C 80.53 44.48 81.31 43.82 82.12 43.19 C 84.62 42.13 85.93 44.64 86.28 46.68 C 84.97 47.42 83.68 48.20 82.42 49.04 C 83.98 48.90 86.04 49.52 86.85 47.71 C 87.03 46.52 87.14 45.33 87.20 44.13 C 85.40 42.72 83.49 41.48 81.72 40.03 C 80.25 39.98 78.78 39.95 77.31 39.92 C 76.37 40.55 75.49 41.26 74.68 42.05 C 74.44 42.24 73.95 42.63 73.71 42.82 C 71.91 43.96 71.19 46.07 70.66 48.03 C 70.44 48.32 70.01 48.92 69.79 49.22 C 69.10 48.88 67.72 48.21 67.03 47.87 C 69.78 44.95 70.76 40.41 74.78 38.77 Z" />
<path fill="#ffe683" opacity="1.00" d=" M 42.45 38.29 C 44.23 37.65 46.14 38.49 47.54 39.60 L 47.32 40.14 C 46.83 40.14 45.85 40.14 45.36 40.14 L 44.49 39.86 C 43.99 39.57 42.99 39.00 42.48 38.72 L 42.45 38.29 Z" />
<path fill="#ffe683" opacity="1.00" d=" M 48.12 40.59 L 48.59 40.85 L 48.32 41.35 C 48.27 41.16 48.17 40.78 48.12 40.59 Z" />
<path fill="#ffe683" opacity="1.00" d=" M 47.19 43.53 C 49.92 44.74 52.85 45.44 55.80 45.85 C 58.76 46.21 61.66 46.89 64.56 47.56 C 64.74 47.57 65.09 47.59 65.26 47.61 L 65.58 47.99 C 66.92 49.14 68.49 50.14 69.35 51.77 C 69.03 54.71 69.09 58.56 66.06 60.13 C 64.46 61.24 62.41 61.20 60.87 60.02 C 60.19 57.69 59.64 55.23 58.03 53.34 C 58.30 54.12 58.86 55.69 59.13 56.48 C 56.44 57.08 53.86 58.07 51.29 59.05 C 51.21 58.28 51.07 56.74 50.99 55.97 L 50.05 56.00 L 50.01 57.08 C 48.16 55.53 46.11 54.20 43.76 53.58 C 44.31 53.13 45.39 52.24 45.94 51.79 C 45.23 50.85 44.53 49.91 43.83 48.97 C 44.95 47.16 46.07 45.34 47.19 43.53 Z" />
<path fill="#ffe683" opacity="1.00" d=" M 39.11 71.81 C 39.88 72.13 41.41 72.77 42.18 73.09 L 41.38 73.55 C 40.14 74.29 39.24 75.41 38.38 76.53 L 37.91 76.55 C 38.00 76.10 38.19 75.21 38.29 74.76 C 38.00 75.21 37.42 76.13 37.13 76.58 L 36.01 76.65 C 36.12 75.75 36.34 73.96 36.46 73.06 C 36.79 73.26 37.46 73.65 37.80 73.85 C 38.13 73.34 38.78 72.32 39.11 71.81 Z" />
<path fill="#ffe683" opacity="1.00" d=" M 39.96 75.67 C 41.08 75.04 42.16 74.36 43.21 73.61 C 44.49 74.00 45.76 74.42 47.03 74.83 C 46.84 75.03 46.45 75.44 46.26 75.65 C 45.31 76.62 44.32 77.55 43.26 78.41 C 43.12 78.52 42.82 78.74 42.67 78.85 L 41.70 78.61 C 42.01 77.97 42.63 76.68 42.95 76.04 C 41.59 76.19 40.97 76.96 41.06 78.34 L 41.05 78.97 C 40.78 78.15 40.23 76.50 39.96 75.67 Z" />
</g>
<g id="#deb46aff">
<path fill="#deb46a" opacity="1.00" d=" M 38.19 25.22 C 38.27 25.12 38.43 24.93 38.52 24.84 C 38.93 24.86 39.76 24.89 40.17 24.90 C 41.53 25.69 42.87 26.50 44.19 27.37 C 45.15 27.96 45.78 28.81 46.07 29.92 C 45.83 30.19 45.36 30.74 45.13 31.02 C 44.71 31.25 43.88 31.72 43.47 31.96 C 41.89 33.20 45.00 33.46 45.71 33.00 L 45.97 33.79 C 45.43 33.91 44.35 34.14 43.81 34.26 C 43.70 34.53 43.49 35.07 43.38 35.34 L 43.18 35.91 C 43.13 36.06 43.03 36.37 42.98 36.52 C 42.85 36.96 42.58 37.85 42.45 38.29 L 42.48 38.72 L 42.55 39.59 C 43.04 39.66 44.01 39.79 44.49 39.86 L 45.36 40.14 L 45.28 40.85 C 44.97 42.17 46.44 42.77 47.19 43.53 C 46.07 45.34 44.95 47.16 43.83 48.97 C 44.53 49.91 45.23 50.85 45.94 51.79 C 45.39 52.24 44.31 53.13 43.76 53.58 C 46.11 54.20 48.16 55.53 50.01 57.08 C 49.96 58.48 49.89 59.88 49.77 61.28 C 48.20 65.44 49.33 69.99 48.86 74.33 C 48.43 75.53 48.02 76.74 47.64 77.96 C 47.38 78.26 46.84 78.84 46.57 79.13 C 46.05 79.07 45.00 78.94 44.47 78.88 C 45.06 77.79 45.65 76.72 46.26 75.65 C 46.45 75.44 46.84 75.03 47.03 74.83 C 45.76 74.42 44.49 74.00 43.21 73.61 C 43.40 73.37 43.78 72.90 43.97 72.66 C 44.14 69.85 44.28 66.95 43.35 64.25 C 43.13 63.35 42.91 62.45 42.69 61.56 C 42.37 60.05 42.05 58.53 41.74 57.02 C 41.39 57.30 40.67 57.85 40.31 58.13 C 41.12 60.20 41.81 62.33 42.45 64.46 C 43.04 67.13 43.13 69.88 42.96 72.60 C 42.77 72.72 42.38 72.97 42.18 73.09 C 41.41 72.77 39.88 72.13 39.11 71.81 C 39.08 69.76 39.00 67.71 38.78 65.67 C 37.74 63.23 38.55 60.18 36.65 58.13 C 36.59 57.95 36.48 57.57 36.43 57.38 C 35.44 54.16 34.12 50.58 35.79 47.34 C 35.92 46.05 36.00 44.77 36.09 43.48 C 37.67 42.64 39.16 41.66 40.66 40.69 C 39.83 41.00 38.17 41.62 37.34 41.93 C 35.79 41.93 34.25 41.90 32.71 41.80 C 32.46 41.56 31.96 41.08 31.71 40.83 L 32.52 40.31 C 33.77 40.02 35.03 39.78 36.30 39.59 L 36.88 39.49 L 36.96 38.92 C 37.10 38.83 37.37 38.65 37.50 38.56 C 38.55 37.58 39.51 36.51 40.43 35.41 C 39.83 35.18 38.63 34.72 38.03 34.49 L 38.18 33.47 C 38.60 33.70 39.45 34.15 39.88 34.37 C 39.97 33.85 40.16 32.80 40.26 32.27 C 40.56 31.73 41.16 30.65 41.46 30.11 C 41.61 29.74 41.91 29.00 42.05 28.63 C 40.89 27.36 39.56 26.26 38.19 25.22 M 36.09 51.64 C 34.66 54.83 39.30 51.78 36.09 51.64 M 37.09 54.22 C 36.30 55.52 38.06 57.90 39.48 57.25 C 39.42 56.06 38.47 54.03 37.09 54.22 Z" />
<path fill="#deb46a" opacity="1.00" d=" M 25.81 34.10 C 26.29 34.05 27.27 33.96 27.75 33.91 L 27.86 34.73 C 27.35 34.57 26.32 34.26 25.81 34.10 Z" />
<path fill="#deb46a" opacity="1.00" d=" M 25.19 37.68 C 25.76 37.50 26.89 37.12 27.46 36.94 C 27.56 37.41 27.76 38.37 27.87 38.85 C 27.20 38.98 25.86 39.24 25.20 39.37 L 24.76 38.66 L 25.19 37.68 Z" />
<path fill="#deb46a" opacity="1.00" d=" M 69.35 51.77 L 69.66 51.82 L 70.42 51.92 C 70.48 52.29 70.59 53.03 70.64 53.40 C 70.96 55.50 71.38 57.84 70.08 59.73 C 70.10 61.61 69.65 63.84 71.51 65.13 C 71.51 65.18 71.51 65.28 71.51 65.33 L 72.11 66.61 C 71.93 67.94 71.71 69.26 71.47 70.57 C 71.06 71.56 70.64 72.55 70.23 73.53 C 70.06 74.89 69.88 76.24 69.68 77.58 C 69.40 77.71 68.86 77.95 68.58 78.07 L 67.93 77.96 C 69.42 76.01 65.73 75.59 67.11 77.80 C 66.69 77.46 65.85 76.78 65.43 76.44 C 64.86 76.98 64.40 77.62 64.06 78.34 C 63.89 77.56 63.56 76.02 63.40 75.24 C 63.74 75.02 64.41 74.57 64.75 74.35 L 65.67 73.72 C 67.00 71.89 67.16 69.60 66.97 67.42 L 65.80 66.42 C 65.58 66.25 65.15 65.91 64.93 65.74 C 63.38 64.59 61.82 63.32 61.28 61.37 C 61.17 61.03 60.97 60.35 60.87 60.02 C 62.41 61.20 64.46 61.24 66.06 60.13 C 69.09 58.56 69.03 54.71 69.35 51.77 Z" />
<path fill="#deb46a" opacity="1.00" d=" M 54.80 61.27 C 55.25 60.10 55.49 57.95 57.11 57.99 C 59.26 57.40 59.87 60.01 60.23 61.58 C 60.95 63.52 63.47 65.17 62.43 67.46 C 61.83 69.02 61.29 70.60 60.77 72.18 C 60.34 72.96 59.71 73.50 58.90 73.82 C 58.40 73.84 57.41 73.89 56.92 73.92 C 58.33 71.81 54.65 71.88 56.10 73.94 L 54.93 73.98 C 54.96 73.37 55.00 72.15 55.03 71.54 C 57.42 70.63 58.26 68.04 57.97 65.68 L 57.03 64.77 C 56.87 64.61 56.57 64.30 56.42 64.15 C 56.01 63.43 55.21 61.99 54.80 61.27 Z" />
</g>
<g id="#0d0d0dcc">
<path fill="#0d0d0d" opacity="0.80" d=" M 50.45 27.13 L 50.97 27.16 C 52.12 28.68 49.50 31.11 48.07 29.83 C 48.87 28.93 49.64 28.02 50.45 27.13 Z" />
<path fill="#0d0d0d" opacity="0.80" d=" M 87.51 39.56 C 88.79 40.12 89.85 41.15 90.48 42.39 C 91.26 44.21 90.95 46.25 91.05 48.17 L 89.67 47.72 C 90.75 44.75 89.17 41.94 87.51 39.56 Z" />
<path fill="#0d0d0d" opacity="0.80" d=" M 79.96 49.02 C 80.89 49.54 82.77 50.59 83.71 51.12 C 85.97 50.88 88.07 50.02 90.17 49.18 C 89.53 49.76 88.26 50.91 87.62 51.49 C 86.26 52.05 84.75 51.99 83.31 52.07 C 82.02 51.24 80.91 50.22 79.96 49.02 Z" />
</g>
<g id="#f98c80ff">
<path fill="#f98c80" opacity="1.00" d=" M 31.46 28.07 C 33.87 28.10 30.05 31.81 30.09 29.40 C 30.43 29.07 31.12 28.40 31.46 28.07 Z" />
</g>
<g id="#b63b1aff">
<path fill="#b63b1a" opacity="1.00" d=" M 31.26 31.90 C 31.07 30.69 32.69 29.06 33.90 29.25 C 34.62 30.66 32.67 32.62 31.26 31.90 Z" />
</g>
<g id="#2d210cff">
<path fill="#2d210c" opacity="1.00" d=" M 39.53 29.02 C 40.01 29.29 40.98 29.84 41.46 30.11 C 41.16 30.65 40.56 31.73 40.26 32.27 C 40.06 31.61 39.65 30.29 39.45 29.62 L 39.53 29.02 Z" />
</g>
<g id="#ece0dfff">
<path fill="#ece0df" opacity="1.00" d=" M 35.43 33.33 C 36.87 32.21 38.13 30.88 39.45 29.62 C 39.65 30.29 40.06 31.61 40.26 32.27 C 40.16 32.80 39.97 33.85 39.88 34.37 C 39.45 34.15 38.60 33.70 38.18 33.47 L 37.61 32.78 C 37.38 33.07 36.91 33.64 36.67 33.93 C 36.36 33.78 35.74 33.48 35.43 33.33 Z" />
</g>
<g id="#2b2517ef">
<path fill="#2b2517" opacity="0.94" d=" M 27.40 29.74 C 28.31 30.91 29.21 32.08 30.11 33.25 C 28.62 33.33 28.39 34.00 29.41 35.26 C 29.86 35.59 30.78 36.25 31.23 36.58 C 31.75 36.75 32.79 37.08 33.31 37.25 C 33.12 37.69 32.75 38.57 32.57 39.00 C 33.50 39.00 35.37 38.99 36.31 38.99 L 36.30 39.59 C 35.03 39.78 33.77 40.02 32.52 40.31 L 31.71 40.83 C 30.23 41.93 28.62 42.94 26.77 43.23 C 27.39 42.38 28.63 40.67 29.25 39.81 L 27.77 42.28 C 29.10 41.01 30.87 40.30 32.12 38.93 C 31.30 37.76 30.17 36.90 28.74 36.62 L 28.84 36.00 C 28.22 36.00 26.97 36.00 26.35 36.00 C 25.41 35.37 24.59 34.62 23.88 33.76 L 24.62 33.85 L 25.81 34.10 C 26.32 34.26 27.35 34.57 27.86 34.73 L 27.75 33.91 L 27.73 33.61 C 27.65 32.64 27.48 30.71 27.40 29.74 Z" />
</g>
<g id="#4b3f21ff">
<path fill="#4b3f21" opacity="1.00" d=" M 43.47 31.96 C 43.88 31.72 44.71 31.25 45.13 31.02 C 45.52 31.00 46.31 30.96 46.70 30.94 C 46.45 31.46 45.96 32.48 45.71 33.00 C 45.00 33.46 41.89 33.20 43.47 31.96 Z" />
</g>
<g id="#9c701aff">
<path fill="#9c701a" opacity="1.00" d=" M 23.79 32.58 C 24.99 31.52 26.85 32.62 27.73 33.61 L 27.75 33.91 C 27.27 33.96 26.29 34.05 25.81 34.10 L 24.62 33.85 C 24.42 33.67 24.01 33.32 23.81 33.14 L 23.79 32.58 Z" />
</g>
<g id="#efefefff">
<path fill="#efefef" opacity="1.00" d=" M 29.41 35.26 C 28.39 34.00 28.62 33.33 30.11 33.25 C 29.94 33.75 29.58 34.76 29.41 35.26 Z" />
</g>
<g id="#c56c37ff">
<path fill="#c56c37" opacity="1.00" d=" M 30.11 33.25 C 31.99 33.11 31.75 35.44 31.23 36.58 C 30.78 36.25 29.86 35.59 29.41 35.26 C 29.58 34.76 29.94 33.75 30.11 33.25 Z" />
</g>
<g id="#833129ff">
<path fill="#833129" opacity="1.00" d=" M 36.67 33.93 C 36.91 33.64 37.38 33.07 37.61 32.78 L 38.18 33.47 L 38.03 34.49 L 37.23 34.50 L 36.67 33.93 Z" />
</g>
<g id="#81550aff">
<path fill="#81550a" opacity="1.00" d=" M 45.71 33.00 C 48.22 33.43 51.92 31.71 53.14 34.95 C 50.00 33.24 46.52 34.35 43.38 35.34 C 43.49 35.07 43.70 34.53 43.81 34.26 C 44.35 34.14 45.43 33.91 45.97 33.79 L 45.71 33.00 Z" />
</g>
<g id="#a17323ff">
<path fill="#a17323" opacity="1.00" d=" M 77.52 36.11 C 79.53 36.13 81.53 36.08 83.53 36.09 C 84.87 36.89 86.31 37.69 87.08 39.11 C 83.37 36.77 78.52 36.09 74.78 38.77 C 70.76 40.41 69.78 44.95 67.03 47.87 C 66.67 47.90 65.94 47.96 65.58 47.99 C 66.89 46.70 68.11 45.28 68.77 43.55 C 70.18 40.79 72.62 38.66 75.37 37.30 C 75.91 37.00 76.99 36.40 77.52 36.11 Z" />
<path fill="#a17323" opacity="1.00" d=" M 41.06 78.34 C 40.97 76.96 41.59 76.19 42.95 76.04 C 42.63 76.68 42.01 77.97 41.70 78.61 L 41.06 78.34 Z" />
</g>
<g id="#92691bff">
<path fill="#92691b" opacity="1.00" d=" M 42.45 38.29 C 42.58 37.85 42.85 36.96 42.98 36.52 C 43.48 36.61 44.48 36.81 44.98 36.90 C 47.06 38.31 50.47 38.78 51.20 41.50 C 50.48 41.46 49.04 41.38 48.32 41.35 L 48.59 40.85 L 48.12 40.59 L 47.32 40.14 L 47.54 39.60 C 46.14 38.49 44.23 37.65 42.45 38.29 Z" />
</g>
<g id="#835200ff">
<path fill="#835200" opacity="1.00" d=" M 37.27 38.78 L 37.50 38.56 C 37.37 38.65 37.10 38.83 36.96 38.92 L 37.27 38.78 Z" />
<path fill="#835200" opacity="1.00" d=" M 36.09 51.64 C 39.30 51.78 34.66 54.83 36.09 51.64 Z" />
<path fill="#835200" opacity="1.00" d=" M 56.10 73.94 C 54.65 71.88 58.33 71.81 56.92 73.92 L 56.10 73.94 Z" />
<path fill="#835200" opacity="1.00" d=" M 37.13 76.58 C 37.42 76.13 38.00 75.21 38.29 74.76 C 38.19 75.21 38.00 76.10 37.91 76.55 L 37.13 76.58 Z" />
<path fill="#835200" opacity="1.00" d=" M 67.11 77.80 C 65.73 75.59 69.42 76.01 67.93 77.96 L 67.11 77.80 Z" />
</g>
<g id="#ffffffff">
<path fill="#ffffff" opacity="1.00" d=" M 36.31 38.99 L 36.96 38.92 L 36.88 39.49 L 36.30 39.59 L 36.31 38.99 Z" />
</g>
<g id="#403522f6">
<path fill="#403522" opacity="0.96" d=" M 77.31 39.92 C 78.78 39.95 80.25 39.98 81.72 40.03 C 83.49 41.48 85.40 42.72 87.20 44.13 C 87.14 45.33 87.03 46.52 86.85 47.71 C 86.04 49.52 83.98 48.90 82.42 49.04 C 83.68 48.20 84.97 47.42 86.28 46.68 C 85.93 44.64 84.62 42.13 82.12 43.19 C 81.63 43.26 80.64 43.40 80.15 43.47 C 80.71 42.83 81.83 41.55 82.39 40.91 C 79.76 40.79 77.15 41.17 74.68 42.05 C 75.49 41.26 76.37 40.55 77.31 39.92 Z" />
</g>
<g id="#1c1812ea">
<path fill="#1c1812" opacity="0.92" d=" M 37.34 41.93 C 38.17 41.62 39.83 41.00 40.66 40.69 C 39.16 41.66 37.67 42.64 36.09 43.48 C 36.00 44.77 35.92 46.05 35.79 47.34 C 34.12 50.58 35.44 54.16 36.43 57.38 C 35.27 56.88 34.70 55.94 34.72 54.56 C 33.52 52.75 34.08 50.51 34.07 48.49 C 35.48 47.09 34.86 45.05 35.01 43.30 C 34.44 42.92 33.29 42.17 32.71 41.80 C 34.25 41.90 35.79 41.93 37.34 41.93 Z" />
</g>
<g id="#9d6f1eff">
<path fill="#9d6f1e" opacity="1.00" d=" M 45.28 40.85 C 46.04 41.36 46.79 41.87 47.55 42.39 C 48.55 42.85 49.54 43.36 50.49 43.91 C 52.34 43.94 54.05 44.59 55.80 45.06 L 55.80 45.85 C 52.85 45.44 49.92 44.74 47.19 43.53 C 46.44 42.77 44.97 42.17 45.28 40.85 Z" />
</g>
<g id="#0b0b0bb6">
<path fill="#0b0b0b" opacity="0.71" d=" M 70.66 48.03 C 71.19 46.07 71.91 43.96 73.71 42.82 C 74.02 44.61 72.71 47.97 70.66 48.03 Z" />
</g>
<g id="#0e0e0ee3">
<path fill="#0e0e0e" opacity="0.89" d=" M 55.80 45.06 C 57.41 45.16 59.26 44.53 60.58 45.80 C 61.99 46.22 64.31 45.34 64.56 47.56 C 61.66 46.89 58.76 46.21 55.80 45.85 L 55.80 45.06 Z" />
</g>
<g id="#2d271dff">
<path fill="#2d271d" opacity="1.00" d=" M 65.58 47.99 C 65.94 47.96 66.67 47.90 67.03 47.87 C 67.72 48.21 69.10 48.88 69.79 49.22 C 69.76 49.87 69.69 51.17 69.66 51.82 L 69.35 51.77 C 68.49 50.14 66.92 49.14 65.58 47.99 Z" />
</g>
<g id="#a7792aff">
<path fill="#a7792a" opacity="1.00" d=" M 37.09 54.22 C 38.47 54.03 39.42 56.06 39.48 57.25 C 38.06 57.90 36.30 55.52 37.09 54.22 Z" />
</g>
<g id="#382e1ded">
<path fill="#382e1d" opacity="0.93" d=" M 58.03 53.34 C 59.64 55.23 60.19 57.69 60.87 60.02 C 60.97 60.35 61.17 61.03 61.28 61.37 C 61.82 63.32 63.38 64.59 64.93 65.74 C 64.45 66.14 63.47 66.95 62.99 67.36 C 62.99 67.93 62.99 69.08 62.99 69.65 C 62.33 70.57 61.59 71.41 60.77 72.18 C 61.29 70.60 61.83 69.02 62.43 67.46 C 63.47 65.17 60.95 63.52 60.23 61.58 C 59.87 60.01 59.26 57.40 57.11 57.99 C 55.49 57.95 55.25 60.10 54.80 61.27 C 55.21 61.99 56.01 63.43 56.42 64.15 C 54.22 63.34 54.00 60.73 53.93 58.75 C 53.11 59.37 52.22 59.89 51.28 60.31 C 50.97 60.86 50.36 61.96 50.05 62.52 C 49.49 66.82 51.05 71.59 49.14 75.57 C 49.09 76.19 48.99 77.41 48.95 78.02 L 47.64 77.96 C 48.02 76.74 48.43 75.53 48.86 74.33 C 49.33 69.99 48.20 65.44 49.77 61.28 C 49.89 59.88 49.96 58.48 50.01 57.08 L 50.05 56.00 L 50.99 55.97 C 51.07 56.74 51.21 58.28 51.29 59.05 C 53.86 58.07 56.44 57.08 59.13 56.48 C 58.86 55.69 58.30 54.12 58.03 53.34 Z" />
</g>
<g id="#0f0f0fe8">
<path fill="#0f0f0f" opacity="0.91" d=" M 70.64 53.40 C 72.83 54.42 72.49 58.01 71.03 59.59 C 70.99 61.45 71.19 63.30 71.51 65.13 C 69.65 63.84 70.10 61.61 70.08 59.73 C 71.38 57.84 70.96 55.50 70.64 53.40 Z" />
</g>
<g id="#342c1cf8">
<path fill="#342c1c" opacity="0.97" d=" M 40.31 58.13 C 40.67 57.85 41.39 57.30 41.74 57.02 C 42.05 58.53 42.37 60.05 42.69 61.56 C 42.91 62.45 43.13 63.35 43.35 64.25 C 44.28 66.95 44.14 69.85 43.97 72.66 C 43.78 72.90 43.40 73.37 43.21 73.61 C 42.16 74.36 41.08 75.04 39.96 75.67 C 40.23 76.50 40.78 78.15 41.05 78.97 C 38.86 78.05 33.63 78.18 35.18 74.33 L 36.46 73.06 C 36.34 73.96 36.12 75.75 36.01 76.65 L 37.13 76.58 L 37.91 76.55 L 38.38 76.53 C 39.24 75.41 40.14 74.29 41.38 73.55 L 42.18 73.09 C 42.38 72.97 42.77 72.72 42.96 72.60 C 43.13 69.88 43.04 67.13 42.45 64.46 C 41.81 62.33 41.12 60.20 40.31 58.13 Z" />
</g>
<g id="#0f0f0fee">
<path fill="#0f0f0f" opacity="0.93" d=" M 36.65 58.13 C 38.55 60.18 37.74 63.23 38.78 65.67 C 39.00 67.71 39.08 69.76 39.11 71.81 C 38.78 72.32 38.13 73.34 37.80 73.85 C 37.99 71.09 38.07 68.33 37.90 65.57 C 36.28 63.46 37.22 60.56 36.65 58.13 Z" />
</g>
<g id="#0d0d0dd2">
<path fill="#0d0d0d" opacity="0.82" d=" M 57.03 64.77 L 57.97 65.68 C 58.26 68.04 57.42 70.63 55.03 71.54 C 55.00 72.15 54.96 73.37 54.93 73.98 L 56.10 73.94 L 56.92 73.92 C 57.41 73.89 58.40 73.84 58.90 73.82 L 59.08 75.08 C 56.44 75.59 53.18 74.67 53.86 71.32 C 54.91 70.41 55.95 69.47 57.00 68.56 C 56.98 67.29 56.99 66.03 57.03 64.77 Z" />
</g>
<g id="#0e0e0ed8">
<path fill="#0e0e0e" opacity="0.85" d=" M 72.11 66.61 L 72.96 65.54 C 72.97 67.23 73.28 69.05 72.37 70.59 C 72.03 71.61 71.66 72.61 71.24 73.60 C 70.84 74.98 71.49 77.00 69.68 77.58 C 69.88 76.24 70.06 74.89 70.23 73.53 C 70.64 72.55 71.06 71.56 71.47 70.57 C 71.71 69.26 71.93 67.94 72.11 66.61 Z" />
</g>
<g id="#0e0e0edf">
<path fill="#0e0e0e" opacity="0.87" d=" M 65.80 66.42 L 66.97 67.42 C 67.16 69.60 67.00 71.89 65.67 73.72 L 64.75 74.35 C 65.05 73.62 65.64 72.14 65.94 71.41 C 65.95 69.75 65.89 68.08 65.80 66.42 Z" />
</g>
<g id="#4d3815ff">
<path fill="#4d3815" opacity="1.00" d=" M 43.26 78.41 C 44.32 77.55 45.31 76.62 46.26 75.65 C 45.65 76.72 45.06 77.79 44.47 78.88 C 45.00 78.94 46.05 79.07 46.57 79.13 L 47.43 79.81 C 45.49 79.92 43.55 79.92 41.61 79.85 L 42.67 78.85 C 42.82 78.74 43.12 78.52 43.26 78.41 Z" />
</g>
<g id="#31230bff">
<path fill="#31230b" opacity="1.00" d=" M 64.06 78.34 C 64.40 77.62 64.86 76.98 65.43 76.44 C 65.85 76.78 66.69 77.46 67.11 77.80 L 67.93 77.96 L 68.58 78.07 L 68.74 78.46 C 67.57 79.26 64.85 79.67 64.06 78.34 Z" />
</g>
</svg>
