<?xml version="1.0" encoding="UTF-8" ?>
<!DOCTYPE svg PUBLIC "-//W3C//DTD SVG 1.1//EN" "http://www.w3.org/Graphics/SVG/1.1/DTD/svg11.dtd">
<svg width="120pt" height="120pt" viewBox="0 0 120 120" version="1.1" xmlns="http://www.w3.org/2000/svg">
<g id="#41413eff">
<path fill="#41413e" opacity="1.00" d=" M 45.23 38.24 C 49.06 36.74 52.83 32.80 57.18 34.71 C 60.54 36.45 65.18 36.59 66.46 40.77 C 65.54 40.86 63.68 41.06 62.75 41.16 C 63.68 44.25 64.14 47.44 64.10 50.66 C 73.57 53.20 78.79 63.67 79.15 72.85 C 78.10 73.35 77.04 73.84 75.99 74.32 C 77.24 75.81 78.45 77.32 79.55 78.93 C 76.44 78.38 73.34 77.83 70.29 77.00 C 71.34 76.22 72.39 75.43 73.43 74.65 L 73.98 74.23 C 75.39 73.11 77.07 72.26 78.20 70.84 C 78.26 69.40 77.18 68.23 76.57 67.01 C 76.42 66.21 76.25 65.42 76.06 64.63 C 74.33 58.61 69.65 53.72 63.81 51.52 C 63.83 55.56 64.83 59.49 66.48 63.16 C 66.65 63.55 67.00 64.34 67.17 64.73 C 68.27 67.26 69.48 69.76 71.05 72.03 C 70.49 72.66 69.92 73.28 69.35 73.90 C 68.43 71.21 67.38 68.56 66.35 65.92 C 65.11 62.65 63.67 59.44 62.86 56.04 C 62.74 53.30 62.92 50.56 63.07 47.82 C 62.00 48.98 60.93 50.12 59.86 51.27 C 60.17 50.19 60.47 49.11 60.78 48.03 C 58.63 47.58 56.49 47.15 54.32 46.81 C 54.73 49.25 54.80 52.34 51.95 53.32 C 50.39 52.89 48.84 52.45 47.30 51.97 C 47.17 50.29 47.04 48.61 46.90 46.94 C 46.53 47.22 45.80 47.77 45.44 48.05 C 46.65 52.13 46.38 56.43 44.44 60.25 L 43.28 60.07 C 44.41 58.70 44.79 56.90 44.79 55.16 C 43.20 56.22 42.25 57.97 42.11 59.86 C 41.78 61.77 41.21 63.69 41.38 65.65 C 42.22 67.90 43.67 69.83 44.87 71.88 C 44.93 72.22 45.05 72.90 45.11 73.23 C 43.50 71.75 41.39 70.43 40.85 68.16 C 38.68 62.78 41.35 56.82 45.24 52.99 C 43.58 48.20 44.30 43.09 45.23 38.24 M 48.03 39.39 C 47.63 38.94 46.85 38.03 46.46 37.58 C 46.19 39.56 46.07 41.68 47.32 43.39 C 47.54 45.13 50.97 44.92 52.51 45.83 L 52.91 45.11 C 54.23 44.27 55.56 43.42 56.94 42.67 C 58.77 43.17 60.59 43.71 62.40 44.25 C 62.18 43.32 61.74 41.45 61.53 40.52 C 62.66 39.94 63.57 39.01 64.55 38.21 C 63.09 38.08 61.64 37.98 60.18 37.94 C 58.24 36.73 56.19 35.65 53.97 35.05 C 51.57 35.75 49.73 37.65 48.03 39.39 M 56.57 44.10 C 56.14 45.49 56.61 46.03 57.98 45.73 C 58.44 44.32 57.97 43.78 56.57 44.10 M 49.22 45.63 C 48.96 47.12 48.71 48.62 48.48 50.12 C 50.18 50.01 51.89 49.89 53.59 49.76 C 52.58 47.95 51.15 46.45 49.22 45.63 M 50.32 51.06 C 50.47 54.39 53.32 49.53 50.32 51.06 Z" />
</g>
<g id="#e4b86eff">
<path fill="#e4b86e" opacity="1.00" d=" M 48.03 39.39 C 49.73 37.65 51.57 35.75 53.97 35.05 C 56.19 35.65 58.24 36.73 60.18 37.94 C 56.92 39.32 54.40 41.92 52.91 45.11 L 52.51 45.83 C 50.97 44.92 47.54 45.13 47.32 43.39 C 47.58 42.06 47.80 40.73 48.03 39.39 Z" />
</g>
<g id="#ece8aeff">
<path fill="#ece8ae" opacity="1.00" d=" M 46.46 37.58 C 46.85 38.03 47.63 38.94 48.03 39.39 C 47.80 40.73 47.58 42.06 47.32 43.39 C 46.07 41.68 46.19 39.56 46.46 37.58 Z" />
</g>
<g id="#f7f3b6ff">
<path fill="#f7f3b6" opacity="1.00" d=" M 52.91 45.11 C 54.40 41.92 56.92 39.32 60.18 37.94 C 61.64 37.98 63.09 38.08 64.55 38.21 C 63.57 39.01 62.66 39.94 61.53 40.52 C 60.00 41.24 58.45 41.90 56.94 42.67 C 55.56 43.42 54.23 44.27 52.91 45.11 Z" />
</g>
<g id="#907c50ff">
<path fill="#907c50" opacity="1.00" d=" M 56.94 42.67 C 58.45 41.90 60.00 41.24 61.53 40.52 C 61.74 41.45 62.18 43.32 62.40 44.25 C 60.59 43.71 58.77 43.17 56.94 42.67 Z" />
</g>
<g id="#d7d7dbff">
<path fill="#d7d7db" opacity="1.00" d=" M 56.57 44.10 C 57.97 43.78 58.44 44.32 57.98 45.73 C 56.61 46.03 56.14 45.49 56.57 44.10 Z" />
</g>
<g id="#e7b4c2ff">
<path fill="#e7b4c2" opacity="1.00" d=" M 49.22 45.63 C 51.15 46.45 52.58 47.95 53.59 49.76 C 51.89 49.89 50.18 50.01 48.48 50.12 C 48.71 48.62 48.96 47.12 49.22 45.63 Z" />
</g>
<g id="#f4f0b4ff">
<path fill="#f4f0b4" opacity="1.00" d=" M 45.44 48.05 C 45.80 47.77 46.53 47.22 46.90 46.94 C 47.04 48.61 47.17 50.29 47.30 51.97 C 48.84 52.45 50.39 52.89 51.95 53.32 C 54.80 52.34 54.73 49.25 54.32 46.81 C 56.49 47.15 58.63 47.58 60.78 48.03 C 60.47 49.11 60.17 50.19 59.86 51.27 C 59.48 52.36 59.13 53.46 58.79 54.57 C 60.14 55.06 61.50 55.54 62.86 56.04 C 63.67 59.44 65.11 62.65 66.35 65.92 L 65.47 66.18 C 64.90 66.12 63.75 66.00 63.18 65.94 C 59.25 65.10 55.45 66.46 51.61 66.90 C 49.65 66.38 48.00 65.12 46.25 64.14 C 46.65 63.02 47.07 61.89 47.49 60.78 C 46.48 60.59 45.46 60.42 44.44 60.25 C 46.38 56.43 46.65 52.13 45.44 48.05 Z" />
</g>
<g id="#d3ab66ff">
<path fill="#d3ab66" opacity="1.00" d=" M 59.86 51.27 C 60.93 50.12 62.00 48.98 63.07 47.82 C 62.92 50.56 62.74 53.30 62.86 56.04 C 61.50 55.54 60.14 55.06 58.79 54.57 C 59.13 53.46 59.48 52.36 59.86 51.27 Z" />
</g>
<g id="#bc909aff">
<path fill="#bc909a" opacity="1.00" d=" M 50.32 51.06 C 53.32 49.53 50.47 54.39 50.32 51.06 Z" />
</g>
<g id="#d5ac66ff">
<path fill="#d5ac66" opacity="1.00" d=" M 63.81 51.52 C 69.65 53.72 74.33 58.61 76.06 64.63 C 72.89 63.96 69.70 63.46 66.48 63.16 C 64.83 59.49 63.83 55.56 63.81 51.52 Z" />
</g>
<g id="#d1a965ff">
<path fill="#d1a965" opacity="1.00" d=" M 42.11 59.86 C 42.25 57.97 43.20 56.22 44.79 55.16 C 44.79 56.90 44.41 58.70 43.28 60.07 L 42.56 60.38 L 42.11 59.86 Z" />
</g>
<g id="#917240ff">
<path fill="#917240" opacity="1.00" d=" M 42.11 59.86 L 42.56 60.38 C 43.75 64.12 44.38 68.00 44.87 71.88 C 43.67 69.83 42.22 67.90 41.38 65.65 C 41.21 63.69 41.78 61.77 42.11 59.86 Z" />
</g>
<g id="#524d3eff">
<path fill="#524d3e" opacity="1.00" d=" M 42.56 60.38 L 43.28 60.07 C 44.60 64.77 47.99 68.27 51.03 71.90 C 51.08 71.10 51.17 69.50 51.22 68.70 C 52.33 70.22 53.43 71.75 54.53 73.28 C 54.79 71.70 55.03 70.13 55.27 68.56 C 56.44 68.57 57.62 68.58 58.80 68.57 C 59.05 69.78 59.34 70.99 59.64 72.19 C 60.04 70.31 60.48 68.44 60.83 66.56 C 61.54 68.16 62.24 69.76 62.94 71.37 C 63.03 69.56 63.10 67.75 63.18 65.94 C 63.75 66.00 64.90 66.12 65.47 66.18 C 64.60 68.22 64.50 71.14 62.09 72.04 C 58.39 73.58 54.33 73.88 50.44 74.70 C 55.36 77.33 61.15 77.62 66.52 76.46 C 67.57 75.74 68.45 74.80 69.35 73.90 C 69.92 73.28 70.49 72.66 71.05 72.03 C 71.82 72.92 72.62 73.79 73.43 74.65 C 72.39 75.43 71.34 76.22 70.29 77.00 C 69.16 77.71 67.94 78.25 66.64 78.64 C 67.58 80.96 69.76 83.41 68.21 85.95 C 64.77 84.83 61.15 86.15 57.76 84.78 C 53.34 84.85 48.91 85.26 44.50 84.75 C 45.42 83.59 46.13 82.18 47.41 81.36 C 49.98 80.85 53.00 81.67 55.16 79.86 C 55.13 79.46 55.07 78.68 55.03 78.29 C 51.82 76.60 48.93 74.02 45.19 73.68 L 45.11 73.23 C 45.05 72.90 44.93 72.22 44.87 71.88 C 44.38 68.00 43.75 64.12 42.56 60.38 M 47.25 69.25 C 47.79 69.79 47.79 69.79 47.25 69.25 M 46.31 72.13 C 46.43 75.45 49.32 70.62 46.31 72.13 M 55.01 81.09 C 53.40 82.04 51.95 83.24 50.26 84.06 C 54.33 84.21 58.32 83.41 62.30 82.67 C 61.03 82.35 59.77 82.05 58.50 81.75 C 58.15 80.33 57.81 78.92 57.48 77.50 C 57.09 78.97 56.18 80.13 55.01 81.09 M 58.35 81.03 C 59.96 81.10 61.57 81.16 63.18 81.21 C 63.17 80.37 63.16 78.70 63.15 77.86 C 61.42 78.72 59.15 79.01 58.35 81.03 M 63.65 82.79 C 64.29 82.85 65.56 82.96 66.20 83.02 C 66.00 81.17 65.92 79.31 65.67 77.48 C 65.25 79.34 64.07 80.91 63.65 82.79 M 48.24 82.00 C 48.02 82.29 47.58 82.87 47.36 83.17 C 48.12 86.22 51.63 81.25 48.24 82.00 Z" />
</g>
<g id="#d6cc9cff">
<path fill="#d6cc9c" opacity="1.00" d=" M 43.28 60.07 L 44.44 60.25 C 45.46 60.42 46.48 60.59 47.49 60.78 C 47.07 61.89 46.65 63.02 46.25 64.14 C 48.00 65.12 49.65 66.38 51.61 66.90 C 55.45 66.46 59.25 65.10 63.18 65.94 C 63.10 67.75 63.03 69.56 62.94 71.37 C 62.24 69.76 61.54 68.16 60.83 66.56 C 60.48 68.44 60.04 70.31 59.64 72.19 C 59.34 70.99 59.05 69.78 58.80 68.57 C 57.62 68.58 56.44 68.57 55.27 68.56 C 55.03 70.13 54.79 71.70 54.53 73.28 C 53.43 71.75 52.33 70.22 51.22 68.70 C 51.17 69.50 51.08 71.10 51.03 71.90 C 47.99 68.27 44.60 64.77 43.28 60.07 Z" />
</g>
<g id="#b28e52ff">
<path fill="#b28e52" opacity="1.00" d=" M 66.48 63.16 C 69.70 63.46 72.89 63.96 76.06 64.63 C 76.25 65.42 76.42 66.21 76.57 67.01 L 76.25 67.98 C 73.14 67.15 70.06 66.17 67.17 64.73 C 67.00 64.34 66.65 63.55 66.48 63.16 Z" />
</g>
<g id="#927340ff">
<path fill="#927340" opacity="1.00" d=" M 67.17 64.73 C 70.06 66.17 73.14 67.15 76.25 67.98 C 75.53 70.08 74.80 72.17 73.98 74.23 L 73.43 74.65 C 72.62 73.79 71.82 72.92 71.05 72.03 C 69.48 69.76 68.27 67.26 67.17 64.73 Z" />
</g>
<g id="#cdc194ff">
<path fill="#cdc194" opacity="1.00" d=" M 65.47 66.18 L 66.35 65.92 C 67.38 68.56 68.43 71.21 69.35 73.90 C 68.45 74.80 67.57 75.74 66.52 76.46 C 61.15 77.62 55.36 77.33 50.44 74.70 C 54.33 73.88 58.39 73.58 62.09 72.04 C 64.50 71.14 64.60 68.22 65.47 66.18 Z" />
<path fill="#cdc194" opacity="1.00" d=" M 47.25 69.25 C 47.79 69.79 47.79 69.79 47.25 69.25 Z" />
</g>
<g id="#c8be91ff">
<path fill="#c8be91" opacity="1.00" d=" M 76.57 67.01 C 77.18 68.23 78.26 69.40 78.20 70.84 C 77.07 72.26 75.39 73.11 73.98 74.23 C 74.80 72.17 75.53 70.08 76.25 67.98 L 76.57 67.01 Z" />
</g>
<g id="#bfb48aff">
<path fill="#bfb48a" opacity="1.00" d=" M 46.31 72.13 C 49.32 70.62 46.43 75.45 46.31 72.13 Z" />
</g>
<g id="#a6818aff">
<path fill="#a6818a" opacity="1.00" d=" M 55.01 81.09 C 56.18 80.13 57.09 78.97 57.48 77.50 C 57.81 78.92 58.15 80.33 58.50 81.75 C 59.77 82.05 61.03 82.35 62.30 82.67 C 58.32 83.41 54.33 84.21 50.26 84.06 C 51.95 83.24 53.40 82.04 55.01 81.09 Z" />
</g>
<g id="#ba8e98ff">
<path fill="#ba8e98" opacity="1.00" d=" M 63.65 82.79 C 64.07 80.91 65.25 79.34 65.67 77.48 C 65.92 79.31 66.00 81.17 66.20 83.02 C 65.56 82.96 64.29 82.85 63.65 82.79 Z" />
</g>
<g id="#bc98a2ff">
<path fill="#bc98a2" opacity="1.00" d=" M 48.24 82.00 C 51.63 81.25 48.12 86.22 47.36 83.17 C 47.58 82.87 48.02 82.29 48.24 82.00 Z" />
</g>
</svg>
