<?xml version="1.0" encoding="UTF-8" ?>
<!DOCTYPE svg PUBLIC "-//W3C//DTD SVG 1.1//EN" "http://www.w3.org/Graphics/SVG/1.1/DTD/svg11.dtd">
<svg width="120pt" height="120pt" viewBox="0 0 120 120" version="1.1" xmlns="http://www.w3.org/2000/svg">
<g id="#4d4033ff">
<path fill="#4d4033" opacity="1.00" d=" M 97.75 24.57 C 98.76 22.69 99.39 20.05 101.91 19.75 C 101.54 21.56 103.17 24.73 100.69 25.43 C 100.79 24.41 101.00 22.37 101.10 21.36 C 100.21 22.97 99.38 24.63 98.60 26.30 C 98.56 26.40 98.48 26.59 98.44 26.69 C 98.06 27.73 97.76 28.80 97.44 29.87 L 96.73 30.59 C 96.30 30.99 95.45 31.79 95.02 32.20 C 94.84 29.35 96.63 27.04 97.75 24.57 Z" />
<path fill="#4d4033" opacity="1.00" d=" M 9.08 23.82 C 9.57 23.08 10.11 22.37 10.69 21.69 C 11.01 22.74 11.32 23.79 11.63 24.85 C 13.97 32.62 16.72 40.33 20.54 47.51 C 22.64 51.66 27.10 53.60 30.72 56.18 C 35.32 58.72 40.19 60.87 45.24 62.37 C 45.65 62.99 46.07 63.61 46.51 64.22 C 46.85 63.63 47.53 62.47 47.87 61.89 C 47.92 63.78 47.98 65.68 48.06 67.58 C 49.80 66.56 53.38 65.98 52.16 63.21 C 50.90 62.55 49.55 62.13 48.22 61.64 C 47.15 60.70 45.89 60.08 44.50 59.76 C 43.96 59.24 43.43 58.73 42.90 58.22 C 40.15 57.95 37.18 57.80 34.88 56.08 C 31.07 53.21 28.31 49.20 24.54 46.27 C 24.50 46.91 24.42 48.19 24.38 48.82 C 23.44 47.01 22.47 45.21 21.66 43.33 C 21.71 42.33 21.77 41.34 21.85 40.35 C 22.08 40.17 22.54 39.81 22.76 39.63 C 22.96 40.36 23.36 41.81 23.57 42.53 L 24.24 40.84 C 25.61 42.39 27.88 43.59 27.97 45.89 C 26.53 44.60 24.92 43.52 23.17 42.71 C 24.23 45.02 25.81 47.23 28.69 46.71 L 28.97 46.74 C 31.05 52.67 36.91 56.66 43.07 57.31 C 42.12 52.44 45.43 47.19 50.11 45.93 C 48.19 48.33 46.16 50.90 46.55 54.19 C 46.33 52.88 46.09 51.57 45.85 50.26 C 45.27 51.44 44.68 52.62 44.10 53.80 C 44.91 55.57 45.73 57.33 46.56 59.10 C 48.04 56.33 49.25 53.43 50.70 50.65 C 51.80 48.26 54.33 47.12 56.36 45.66 C 52.71 49.24 50.94 54.15 49.93 59.05 C 50.06 59.71 50.32 61.02 50.45 61.68 C 50.98 61.75 52.03 61.89 52.55 61.95 C 53.04 63.03 53.54 64.10 54.04 65.17 C 52.91 66.64 51.62 68.09 51.30 70.00 C 49.49 68.92 47.66 67.88 45.86 66.79 C 46.01 71.08 47.10 75.42 49.94 78.74 C 51.32 81.42 52.11 84.42 54.05 86.78 C 55.39 87.10 56.73 87.45 58.06 87.80 C 60.65 87.07 63.39 86.56 65.94 87.72 C 66.32 87.22 67.07 86.21 67.45 85.71 C 68.28 87.00 69.10 88.28 69.85 89.62 C 70.00 90.57 70.12 91.54 70.23 92.51 C 71.43 94.97 72.05 99.58 68.47 100.22 C 67.60 98.20 66.71 96.19 65.76 94.21 C 64.37 93.99 63.02 93.56 61.87 92.72 C 62.45 92.15 63.61 91.02 64.19 90.45 C 62.92 90.07 61.62 89.80 60.29 89.77 C 60.19 91.37 60.09 92.97 59.99 94.58 C 60.46 94.11 61.40 93.19 61.87 92.72 C 61.92 93.30 62.01 94.44 62.05 95.01 C 61.39 95.00 60.06 94.99 59.40 94.98 C 57.80 96.60 56.45 98.88 54.00 99.24 C 53.92 97.80 54.26 96.47 55.02 95.26 C 54.40 94.76 53.79 94.25 53.17 93.75 C 52.53 94.13 51.24 94.87 50.60 95.25 C 50.80 94.72 51.19 93.67 51.39 93.15 C 53.13 92.90 54.89 92.84 56.64 92.77 C 55.17 91.24 55.27 89.30 55.59 87.38 C 54.91 88.36 54.35 89.40 53.90 90.50 C 52.52 90.28 51.14 90.06 49.76 89.85 C 49.72 92.61 49.18 95.37 49.48 98.14 L 48.37 97.95 C 48.06 97.00 47.44 95.09 47.12 94.13 C 47.85 92.79 48.65 91.48 49.41 90.16 C 48.02 90.85 46.59 91.49 45.29 92.36 C 44.89 94.70 45.51 97.08 45.67 99.42 C 44.61 98.73 43.77 97.82 43.14 96.71 C 44.01 95.39 44.06 93.80 44.40 92.31 C 45.24 90.74 47.08 90.10 48.46 89.11 C 50.12 89.12 51.78 89.11 53.44 89.09 C 53.09 87.73 52.24 86.63 51.36 85.59 C 50.40 80.72 46.46 77.26 45.21 72.49 C 45.05 69.75 45.26 66.99 44.97 64.26 C 44.13 63.09 42.71 62.95 41.41 62.72 C 40.47 62.19 39.54 61.67 38.61 61.13 C 38.08 61.04 37.01 60.86 36.47 60.77 C 33.29 58.81 29.52 57.80 26.75 55.22 C 25.02 53.46 22.08 53.27 20.93 50.90 C 17.54 45.41 14.50 39.61 12.41 33.50 C 11.17 30.31 10.00 27.11 9.08 23.82 M 67.07 88.26 C 67.65 88.77 67.65 88.77 67.07 88.26 M 58.30 89.22 C 58.72 89.82 58.72 89.82 58.30 89.22 M 65.36 90.08 C 64.24 90.10 63.13 92.51 64.72 92.59 C 65.86 92.54 67.14 90.09 65.36 90.08 M 67.01 94.79 C 68.04 95.49 69.06 96.21 70.08 96.93 C 69.22 94.60 68.20 92.24 68.35 89.70 C 66.45 90.75 66.95 92.99 67.01 94.79 M 58.14 91.22 C 56.57 94.26 61.38 91.53 58.14 91.22 M 56.30 94.30 C 56.87 94.79 56.87 94.79 56.30 94.30 Z" />
<path fill="#4d4033" opacity="1.00" d=" M 105.40 21.79 C 107.15 23.12 107.08 25.29 107.07 27.28 C 107.56 26.93 108.53 26.21 109.02 25.85 C 109.03 27.71 108.99 29.58 108.88 31.44 L 108.25 30.43 C 108.16 29.95 107.99 28.99 107.91 28.51 C 106.10 30.72 104.59 33.35 101.87 34.55 C 103.33 30.90 105.82 27.64 106.34 23.65 C 103.66 24.86 102.75 27.91 101.20 30.17 C 99.85 31.98 99.96 34.30 99.68 36.42 C 99.12 34.95 98.56 33.48 97.97 32.02 C 98.55 30.70 98.96 29.26 99.93 28.15 L 100.02 28.66 L 100.49 28.53 L 100.49 27.96 L 100.51 27.63 C 102.75 26.24 103.77 23.74 105.40 21.79 Z" />
<path fill="#4d4033" opacity="1.00" d=" M 12.34 26.31 C 12.37 26.39 12.45 26.54 12.49 26.62 C 12.45 26.54 12.37 26.39 12.34 26.31 Z" />
<path fill="#4d4033" opacity="1.00" d=" M 13.68 29.46 C 15.29 29.07 15.92 29.68 15.56 31.28 C 14.46 31.23 13.84 30.62 13.68 29.46 Z" />
<path fill="#4d4033" opacity="1.00" d=" M 15.64 32.12 C 18.75 33.03 20.25 36.32 21.49 39.03 C 21.39 39.27 21.19 39.76 21.09 40.00 C 20.22 39.65 19.38 39.25 18.56 38.79 C 17.59 36.57 16.41 34.43 15.64 32.12 Z" />
<path fill="#4d4033" opacity="1.00" d=" M 106.08 33.91 C 107.46 33.56 108.81 33.14 110.21 32.89 L 109.86 34.09 C 108.92 34.82 107.94 35.52 106.96 36.21 C 105.61 37.12 104.14 37.81 102.66 38.46 C 103.78 36.93 104.97 35.45 106.08 33.91 Z" />
<path fill="#4d4033" opacity="1.00" d=" M 93.46 33.90 L 94.39 34.30 C 93.92 36.14 93.29 37.94 92.71 39.75 C 93.57 38.98 94.44 38.21 95.30 37.43 C 95.53 36.90 96.00 35.83 96.23 35.30 C 96.63 34.61 97.43 33.22 97.82 32.53 C 98.01 37.17 94.14 40.59 92.36 44.62 C 92.85 42.78 93.28 40.93 93.67 39.07 C 89.72 42.83 89.85 48.78 87.41 53.42 C 86.91 53.40 85.89 53.37 85.39 53.35 L 84.68 52.48 C 86.63 52.48 87.33 51.26 87.39 49.53 C 88.03 48.26 88.13 46.83 88.28 45.44 C 89.50 43.20 90.80 40.98 91.38 38.47 C 92.09 36.95 92.79 35.43 93.46 33.90 Z" />
<path fill="#4d4033" opacity="1.00" d=" M 100.03 36.20 C 100.56 35.85 101.62 35.15 102.16 34.80 C 101.64 38.11 103.60 41.19 102.43 44.52 C 101.74 43.99 101.07 43.44 100.42 42.88 C 99.48 44.10 98.40 45.23 96.75 45.31 C 98.09 43.24 99.47 41.18 101.15 39.37 C 100.78 38.31 100.41 37.26 100.03 36.20 Z" />
<path fill="#4d4033" opacity="1.00" d=" M 98.22 35.83 C 98.73 36.32 99.74 37.32 100.25 37.81 C 98.52 39.71 97.73 43.06 94.78 43.31 C 95.95 40.81 98.18 38.77 98.22 35.83 Z" />
<path fill="#4d4033" opacity="1.00" d=" M 103.04 42.98 C 103.49 41.76 104.43 40.78 105.62 40.26 C 106.21 41.34 106.31 42.45 105.90 43.61 L 105.36 43.84 C 104.78 43.63 103.62 43.19 103.04 42.98 Z" />
<path fill="#4d4033" opacity="1.00" d=" M 51.64 44.17 C 54.76 43.95 58.32 43.68 60.64 46.24 C 62.05 47.87 65.19 48.36 65.00 50.93 C 63.58 50.31 62.06 48.07 60.39 49.24 C 57.76 51.27 56.49 54.57 53.78 56.54 C 55.44 53.27 58.06 50.69 60.32 47.85 C 58.59 45.34 55.31 45.14 52.54 45.08 L 51.64 44.17 Z" />
<path fill="#4d4033" opacity="1.00" d=" M 100.62 44.05 C 100.86 44.74 101.34 46.11 101.58 46.79 L 102.82 45.90 L 103.02 46.65 C 101.11 47.07 99.84 48.55 98.68 50.01 C 99.29 50.05 100.52 50.11 101.13 50.15 C 101.07 50.51 100.95 51.24 100.89 51.60 C 99.42 51.37 97.96 51.11 96.50 50.87 C 95.77 52.17 95.03 53.46 94.29 54.75 C 95.98 54.04 97.68 53.35 99.36 52.61 C 98.58 54.41 96.40 54.59 94.85 55.35 C 95.28 56.57 95.73 57.78 96.16 59.00 C 94.56 59.00 92.95 58.99 91.35 58.99 C 90.93 59.49 90.10 60.50 89.68 61.00 C 87.62 60.99 85.56 60.99 83.51 61.09 C 82.21 62.44 80.19 61.86 78.53 62.15 C 77.12 63.40 75.14 62.91 73.43 63.12 C 72.17 63.88 70.91 64.63 69.64 65.38 C 69.51 64.86 69.26 63.83 69.13 63.31 C 72.76 61.67 76.59 59.46 80.71 60.68 C 80.97 60.39 81.48 59.82 81.74 59.54 C 83.00 59.58 84.27 59.61 85.53 59.62 C 87.76 57.43 90.55 56.00 93.22 54.44 C 90.08 53.80 87.84 56.05 85.33 57.42 C 86.33 55.76 87.76 54.45 89.18 53.15 C 89.41 52.79 89.88 52.08 90.11 51.73 C 90.11 52.26 90.11 53.33 90.12 53.87 C 91.36 53.78 92.61 53.69 93.85 53.60 C 96.04 50.37 98.61 47.41 100.62 44.05 M 91.26 57.17 C 91.48 58.46 92.23 58.71 93.52 57.90 C 93.29 56.61 92.53 56.36 91.26 57.17 Z" />
<path fill="#4d4033" opacity="1.00" d=" M 55.14 57.95 C 57.76 56.30 59.52 53.61 62.11 51.91 C 61.87 53.18 60.83 54.36 61.06 55.68 C 64.36 59.27 69.66 58.03 73.97 57.99 C 74.36 57.83 75.14 57.52 75.54 57.36 C 78.37 57.36 80.56 55.27 83.32 55.04 C 83.12 55.46 82.70 56.30 82.50 56.72 C 79.76 57.78 76.92 58.59 74.00 58.92 C 68.84 59.24 63.06 59.95 58.88 56.22 C 58.56 56.56 57.92 57.25 57.60 57.59 C 59.25 59.46 61.24 61.67 58.86 63.97 C 58.90 63.35 58.99 62.11 59.04 61.49 C 58.08 60.91 57.12 60.33 56.16 59.75 C 54.21 58.25 52.34 61.26 50.45 61.68 C 51.25 60.05 52.10 58.45 52.99 56.87 C 53.53 57.14 54.60 57.68 55.14 57.95 Z" />
<path fill="#4d4033" opacity="1.00" d=" M 54.43 61.55 L 54.63 61.36 L 54.42 61.58 L 54.14 61.64 L 54.43 61.55 Z" />
<path fill="#4d4033" opacity="1.00" d=" M 58.43 64.79 C 58.49 64.68 58.60 64.47 58.66 64.36 L 58.55 64.59 L 58.43 64.79 Z" />
<path fill="#4d4033" opacity="1.00" d=" M 65.54 64.14 C 66.78 63.24 67.49 63.46 67.67 64.80 C 66.43 65.69 65.72 65.47 65.54 64.14 Z" />
<path fill="#4d4033" opacity="1.00" d=" M 60.94 67.78 C 61.59 66.37 63.62 66.41 64.01 67.99 C 63.24 67.94 61.71 67.83 60.94 67.78 Z" />
<path fill="#4d4033" opacity="1.00" d=" M 51.68 69.64 C 52.44 68.52 53.85 68.27 55.11 68.28 C 55.36 68.57 55.88 69.14 56.13 69.42 C 54.73 70.03 53.13 70.16 51.68 69.64 Z" />
<path fill="#4d4033" opacity="1.00" d=" M 58.34 68.73 C 58.46 68.69 58.69 68.61 58.80 68.57 L 58.59 68.65 L 58.34 68.73 Z" />
<path fill="#4d4033" opacity="1.00" d=" M 70.39 68.44 L 70.90 67.33 C 70.88 72.19 72.68 76.81 72.00 81.72 C 75.72 83.75 80.51 84.63 82.98 88.34 C 84.60 89.65 87.28 90.52 87.10 93.07 C 84.71 92.77 82.72 91.30 80.72 90.08 C 78.75 88.70 76.33 87.98 74.71 86.11 C 73.51 86.05 72.30 86.00 71.10 85.96 C 71.26 87.43 70.84 88.65 69.85 89.62 C 71.10 85.12 71.35 80.44 71.01 75.80 C 70.99 75.42 70.95 74.66 70.92 74.28 C 70.53 73.97 69.76 73.36 69.37 73.05 C 69.69 71.51 70.00 69.96 70.39 68.44 Z" />
</g>
<g id="#fbf8baff">
<path fill="#fbf8ba" opacity="1.00" d=" M 98.60 26.30 C 99.38 24.63 100.21 22.97 101.10 21.36 C 101.00 22.37 100.79 24.41 100.69 25.43 C 100.65 25.98 100.55 27.08 100.51 27.63 L 100.49 27.96 L 99.93 28.15 C 98.96 29.26 98.55 30.70 97.97 32.02 C 98.56 33.48 99.12 34.95 99.68 36.42 C 99.96 34.30 99.85 31.98 101.20 30.17 C 102.75 27.91 103.66 24.86 106.34 23.65 C 105.82 27.64 103.33 30.90 101.87 34.55 C 104.59 33.35 106.10 30.72 107.91 28.51 C 107.99 28.99 108.16 29.95 108.25 30.43 C 107.61 31.64 106.89 32.80 106.08 33.91 C 104.97 35.45 103.78 36.93 102.66 38.46 C 104.14 37.81 105.61 37.12 106.96 36.21 C 106.91 36.76 106.82 37.85 106.78 38.40 L 106.64 39.71 L 105.62 40.26 C 104.43 40.78 103.49 41.76 103.04 42.98 C 103.62 43.19 104.78 43.63 105.36 43.84 C 104.54 44.56 103.70 45.25 102.82 45.90 L 101.58 46.79 C 101.34 46.11 100.86 44.74 100.62 44.05 C 98.61 47.41 96.04 50.37 93.85 53.60 C 92.61 53.69 91.36 53.78 90.12 53.87 C 90.11 53.33 90.11 52.26 90.11 51.73 C 90.80 49.34 91.57 46.98 92.36 44.62 C 94.14 40.59 98.01 37.17 97.82 32.53 C 97.43 33.22 96.63 34.61 96.23 35.30 C 96.62 33.49 97.02 31.68 97.44 29.87 C 97.76 28.80 98.06 27.73 98.44 26.69 C 98.48 26.59 98.56 26.40 98.60 26.30 M 100.03 36.20 C 100.41 37.26 100.78 38.31 101.15 39.37 C 99.47 41.18 98.09 43.24 96.75 45.31 C 98.40 45.23 99.48 44.10 100.42 42.88 C 101.07 43.44 101.74 43.99 102.43 44.52 C 103.60 41.19 101.64 38.11 102.16 34.80 C 101.62 35.15 100.56 35.85 100.03 36.20 M 98.22 35.83 C 98.18 38.77 95.95 40.81 94.78 43.31 C 97.73 43.06 98.52 39.71 100.25 37.81 C 99.74 37.32 98.73 36.32 98.22 35.83 Z" />
<path fill="#fbf8ba" opacity="1.00" d=" M 16.65 37.71 C 17.13 37.98 18.09 38.52 18.56 38.79 C 19.38 39.25 20.22 39.65 21.09 40.00 L 21.85 40.35 C 21.77 41.34 21.71 42.33 21.66 43.33 L 21.00 41.82 C 20.54 41.44 19.62 40.67 19.16 40.28 C 18.33 39.42 17.49 38.57 16.65 37.71 Z" />
<path fill="#fbf8ba" opacity="1.00" d=" M 23.17 42.71 C 24.92 43.52 26.53 44.60 27.97 45.89 C 28.15 46.09 28.51 46.50 28.69 46.71 C 25.81 47.23 24.23 45.02 23.17 42.71 Z" />
<path fill="#fbf8ba" opacity="1.00" d=" M 85.33 57.42 C 87.84 56.05 90.08 53.80 93.22 54.44 C 90.55 56.00 87.76 57.43 85.53 59.62 C 84.27 59.61 83.00 59.58 81.74 59.54 L 82.39 58.79 C 83.68 59.10 84.62 58.66 85.23 57.48 L 85.33 57.42 Z" />
<path fill="#fbf8ba" opacity="1.00" d=" M 56.16 59.75 C 57.12 60.33 58.08 60.91 59.04 61.49 C 58.99 62.11 58.90 63.35 58.86 63.97 L 58.66 64.36 C 58.60 64.47 58.49 64.68 58.43 64.79 C 57.75 66.33 56.75 67.70 55.11 68.28 C 53.85 68.27 52.44 68.52 51.68 69.64 C 53.13 70.16 54.73 70.03 56.13 69.42 C 56.68 69.25 57.79 68.90 58.34 68.73 L 58.59 68.65 L 58.80 68.57 C 59.34 68.37 60.40 67.98 60.94 67.78 C 61.71 67.83 63.24 67.94 64.01 67.99 C 64.39 67.92 65.16 67.78 65.54 67.71 C 65.88 67.19 66.55 66.15 66.88 65.63 C 68.04 66.58 69.20 67.53 70.39 68.44 C 70.00 69.96 69.69 71.51 69.37 73.05 C 69.76 73.36 70.53 73.97 70.92 74.28 C 70.95 74.66 70.99 75.42 71.01 75.80 C 70.18 77.59 69.52 79.78 67.66 80.77 C 61.90 83.37 54.96 82.60 49.94 78.74 C 47.10 75.42 46.01 71.08 45.86 66.79 C 47.66 67.88 49.49 68.92 51.30 70.00 C 51.62 68.09 52.91 66.64 54.04 65.17 C 53.54 64.10 53.04 63.03 52.55 61.95 L 54.14 61.64 L 54.42 61.58 L 54.63 61.36 C 55.01 60.96 55.78 60.15 56.16 59.75 Z" />
<path fill="#fbf8ba" opacity="1.00" d=" M 60.29 89.77 C 61.62 89.80 62.92 90.07 64.19 90.45 C 63.61 91.02 62.45 92.15 61.87 92.72 C 61.40 93.19 60.46 94.11 59.99 94.58 C 60.09 92.97 60.19 91.37 60.29 89.77 Z" />
<path fill="#fbf8ba" opacity="1.00" d=" M 67.01 94.79 C 66.95 92.99 66.45 90.75 68.35 89.70 C 68.20 92.24 69.22 94.60 70.08 96.93 C 69.06 96.21 68.04 95.49 67.01 94.79 Z" />
<path fill="#fbf8ba" opacity="1.00" d=" M 45.29 92.36 C 46.59 91.49 48.02 90.85 49.41 90.16 C 48.65 91.48 47.85 92.79 47.12 94.13 L 46.65 95.00 C 46.35 96.48 46.00 97.95 45.67 99.42 C 45.51 97.08 44.89 94.70 45.29 92.36 Z" />
</g>
<g id="#d2994dff">
<path fill="#d2994d" opacity="1.00" d=" M 20.54 47.51 C 16.72 40.33 13.97 32.62 11.63 24.85 L 12.34 26.31 C 12.37 26.39 12.45 26.54 12.49 26.62 C 12.78 27.33 13.38 28.75 13.68 29.46 C 13.84 30.62 14.46 31.23 15.56 31.28 C 15.58 31.49 15.62 31.91 15.64 32.12 C 16.41 34.43 17.59 36.57 18.56 38.79 C 18.09 38.52 17.13 37.98 16.65 37.71 C 17.49 38.57 18.33 39.42 19.16 40.28 C 19.62 40.67 20.54 41.44 21.00 41.82 L 21.66 43.33 C 22.47 45.21 23.44 47.01 24.38 48.82 C 24.42 48.19 24.50 46.91 24.54 46.27 C 28.31 49.20 31.07 53.21 34.88 56.08 C 37.18 57.80 40.15 57.95 42.90 58.22 C 43.43 58.73 43.96 59.24 44.50 59.76 C 44.68 60.41 45.05 61.71 45.24 62.37 C 40.19 60.87 35.32 58.72 30.72 56.18 C 27.10 53.60 22.64 51.66 20.54 47.51 Z" />
<path fill="#d2994d" opacity="1.00" d=" M 98.44 26.69 C 98.48 26.59 98.56 26.40 98.60 26.30 C 98.56 26.40 98.48 26.59 98.44 26.69 Z" />
<path fill="#d2994d" opacity="1.00" d=" M 96.73 30.59 L 97.44 29.87 C 97.02 31.68 96.62 33.49 96.23 35.30 L 95.42 35.56 C 95.39 36.03 95.33 36.96 95.30 37.43 C 94.44 38.21 93.57 38.98 92.71 39.75 C 93.29 37.94 93.92 36.14 94.39 34.30 C 94.42 33.89 94.47 33.08 94.50 32.67 L 95.02 32.20 C 95.45 31.79 96.30 30.99 96.73 30.59 Z" />
<path fill="#d2994d" opacity="1.00" d=" M 87.41 53.42 C 89.85 48.78 89.72 42.83 93.67 39.07 C 93.28 40.93 92.85 42.78 92.36 44.62 C 91.57 46.98 90.80 49.34 90.11 51.73 C 89.88 52.08 89.41 52.79 89.18 53.15 C 87.76 54.45 86.33 55.76 85.33 57.42 L 85.23 57.48 C 83.82 57.02 82.87 57.45 82.39 58.79 L 81.74 59.54 C 81.48 59.82 80.97 60.39 80.71 60.68 C 76.59 59.46 72.76 61.67 69.13 63.31 C 69.26 63.83 69.51 64.86 69.64 65.38 C 69.65 65.92 69.67 66.99 69.68 67.53 C 69.98 67.48 70.59 67.38 70.90 67.33 L 70.39 68.44 C 69.20 67.53 68.04 66.58 66.88 65.63 C 66.55 66.15 65.88 67.19 65.54 67.71 C 65.16 67.78 64.39 67.92 64.01 67.99 C 63.62 66.41 61.59 66.37 60.94 67.78 C 60.40 67.98 59.34 68.37 58.80 68.57 C 58.69 68.61 58.46 68.69 58.34 68.73 C 57.79 68.90 56.68 69.25 56.13 69.42 C 55.88 69.14 55.36 68.57 55.11 68.28 C 56.75 67.70 57.75 66.33 58.43 64.79 L 58.55 64.59 L 58.66 64.36 L 58.86 63.97 C 61.24 61.67 59.25 59.46 57.60 57.59 C 57.92 57.25 58.56 56.56 58.88 56.22 C 63.06 59.95 68.84 59.24 74.00 58.92 C 76.92 58.59 79.76 57.78 82.50 56.72 C 82.70 56.30 83.12 55.46 83.32 55.04 C 83.63 53.89 84.32 53.33 85.39 53.35 C 85.89 53.37 86.91 53.40 87.41 53.42 M 65.54 64.14 C 65.72 65.47 66.43 65.69 67.67 64.80 C 67.49 63.46 66.78 63.24 65.54 64.14 Z" />
<path fill="#d2994d" opacity="1.00" d=" M 56.30 94.30 C 56.87 94.79 56.87 94.79 56.30 94.30 Z" />
</g>
<g id="#1799dbff">
<path fill="#1799db" opacity="1.00" d=" M 99.93 28.15 L 100.49 27.96 L 100.49 28.53 L 100.02 28.66 L 99.93 28.15 Z" />
</g>
<g id="#d8cf9dff">
<path fill="#d8cf9d" opacity="1.00" d=" M 106.96 36.21 C 107.94 35.52 108.92 34.82 109.86 34.09 C 109.58 36.15 107.47 37.23 107.21 39.33 L 106.78 38.40 C 106.82 37.85 106.91 36.76 106.96 36.21 Z" />
<path fill="#d8cf9d" opacity="1.00" d=" M 95.42 35.56 L 96.23 35.30 C 96.00 35.83 95.53 36.90 95.30 37.43 C 95.33 36.96 95.39 36.03 95.42 35.56 Z" />
<path fill="#d8cf9d" opacity="1.00" d=" M 96.50 50.87 C 97.96 51.11 99.42 51.37 100.89 51.60 C 100.51 51.85 99.74 52.35 99.36 52.61 C 97.68 53.35 95.98 54.04 94.29 54.75 C 95.03 53.46 95.77 52.17 96.50 50.87 Z" />
<path fill="#d8cf9d" opacity="1.00" d=" M 91.26 57.17 C 92.53 56.36 93.29 56.61 93.52 57.90 C 92.23 58.71 91.48 58.46 91.26 57.17 Z" />
<path fill="#d8cf9d" opacity="1.00" d=" M 44.50 59.76 C 45.89 60.08 47.15 60.70 48.22 61.64 C 49.55 62.13 50.90 62.55 52.16 63.21 C 53.38 65.98 49.80 66.56 48.06 67.58 C 47.98 65.68 47.92 63.78 47.87 61.89 C 47.53 62.47 46.85 63.63 46.51 64.22 C 46.07 63.61 45.65 62.99 45.24 62.37 C 45.05 61.71 44.68 60.41 44.50 59.76 Z" />
<path fill="#d8cf9d" opacity="1.00" d=" M 67.66 80.77 C 69.52 79.78 70.18 77.59 71.01 75.80 C 71.35 80.44 71.10 85.12 69.85 89.62 C 69.10 88.28 68.28 87.00 67.45 85.71 C 67.07 86.21 66.32 87.22 65.94 87.72 C 63.39 86.56 60.65 87.07 58.06 87.80 C 56.73 87.45 55.39 87.10 54.05 86.78 C 52.11 84.42 51.32 81.42 49.94 78.74 C 54.96 82.60 61.90 83.37 67.66 80.77 Z" />
<path fill="#d8cf9d" opacity="1.00" d=" M 53.90 90.50 C 54.35 89.40 54.91 88.36 55.59 87.38 C 55.27 89.30 55.17 91.24 56.64 92.77 C 54.89 92.84 53.13 92.90 51.39 93.15 C 51.19 93.67 50.80 94.72 50.60 95.25 C 50.24 96.22 49.87 97.18 49.48 98.14 C 49.18 95.37 49.72 92.61 49.76 89.85 C 51.14 90.06 52.52 90.28 53.90 90.50 Z" />
<path fill="#d8cf9d" opacity="1.00" d=" M 67.07 88.26 C 67.65 88.77 67.65 88.77 67.07 88.26 Z" />
<path fill="#d8cf9d" opacity="1.00" d=" M 65.36 90.08 C 67.14 90.09 65.86 92.54 64.72 92.59 C 63.13 92.51 64.24 90.10 65.36 90.08 Z" />
</g>
<g id="#ff6651ff">
<path fill="#ff6651" opacity="1.00" d=" M 52.54 45.08 C 55.31 45.14 58.59 45.34 60.32 47.85 C 58.06 50.69 55.44 53.27 53.78 56.54 C 56.49 54.57 57.76 51.27 60.39 49.24 C 62.06 48.07 63.58 50.31 65.00 50.93 C 64.27 51.17 62.83 51.66 62.11 51.91 C 59.52 53.61 57.76 56.30 55.14 57.95 C 54.60 57.68 53.53 57.14 52.99 56.87 C 52.10 58.45 51.25 60.05 50.45 61.68 C 50.32 61.02 50.06 59.71 49.93 59.05 C 50.94 54.15 52.71 49.24 56.36 45.66 C 54.33 47.12 51.80 48.26 50.70 50.65 C 49.25 53.43 48.04 56.33 46.56 59.10 C 45.73 57.33 44.91 55.57 44.10 53.80 C 44.68 52.62 45.27 51.44 45.85 50.26 C 46.09 51.57 46.33 52.88 46.55 54.19 C 46.16 50.90 48.19 48.33 50.11 45.93 L 50.52 45.39 C 51.02 45.31 52.04 45.16 52.54 45.08 Z" />
<path fill="#ff6651" opacity="1.00" d=" M 58.30 89.22 C 58.72 89.82 58.72 89.82 58.30 89.22 Z" />
</g>
<g id="#ffe7f9ff">
<path fill="#ffe7f9" opacity="1.00" d=" M 50.45 61.68 C 52.34 61.26 54.21 58.25 56.16 59.75 C 55.78 60.15 55.01 60.96 54.63 61.36 L 54.43 61.55 L 54.14 61.64 L 52.55 61.95 C 52.03 61.89 50.98 61.75 50.45 61.68 Z" />
</g>
</svg>
