<?xml version="1.0" encoding="UTF-8" ?>
<!DOCTYPE svg PUBLIC "-//W3C//DTD SVG 1.1//EN" "http://www.w3.org/Graphics/SVG/1.1/DTD/svg11.dtd">
<svg width="120pt" height="120pt" viewBox="0 0 120 120" version="1.1" xmlns="http://www.w3.org/2000/svg">
<g id="#403d36ff">
<path fill="#403d36" opacity="1.00" d=" M 104.01 20.01 C 108.09 17.22 112.89 15.83 117.00 13.10 C 117.02 14.33 116.99 15.55 116.92 16.77 L 116.26 16.77 C 116.12 16.43 115.83 15.75 115.69 15.41 C 110.73 18.27 103.77 20.38 102.40 26.67 C 102.15 26.36 101.64 25.76 101.39 25.46 C 97.15 26.83 93.77 29.99 89.65 31.64 C 87.50 32.77 84.56 33.13 83.49 35.61 C 81.93 39.08 81.45 42.99 79.51 46.31 C 79.72 44.83 79.87 43.34 79.91 41.85 C 78.20 42.12 77.43 44.03 76.34 45.18 C 76.40 44.04 76.41 42.90 76.39 41.76 C 77.50 40.28 78.60 38.77 79.40 37.09 C 74.39 38.92 70.27 43.64 64.67 43.47 C 67.24 41.60 69.86 39.78 72.69 38.31 C 74.26 39.39 75.67 37.88 77.01 37.17 C 80.78 35.36 82.31 30.99 86.03 29.08 C 91.96 25.93 98.10 23.19 104.01 20.01 Z" />
<path fill="#403d36" opacity="1.00" d=" M 108.91 22.66 C 110.83 20.90 113.02 19.49 115.10 17.94 C 114.15 19.55 113.19 21.14 112.43 22.84 C 111.25 22.82 110.08 22.77 108.91 22.66 Z" />
<path fill="#403d36" opacity="1.00" d=" M 72.99 25.19 C 74.13 22.30 77.51 21.52 80.00 20.14 C 80.01 20.75 80.03 21.97 80.04 22.59 L 79.25 22.46 C 76.84 21.87 75.00 24.22 72.99 25.19 Z" />
<path fill="#403d36" opacity="1.00" d=" M 109.06 24.88 C 109.52 24.63 110.45 24.13 110.91 23.88 L 110.83 24.79 L 109.88 25.29 L 109.06 24.88 Z" />
<path fill="#403d36" opacity="1.00" d=" M 69.20 28.15 C 68.19 26.65 70.94 24.89 72.00 26.28 C 71.35 27.27 70.26 27.74 69.20 28.15 Z" />
<path fill="#403d36" opacity="1.00" d=" M 77.16 30.18 C 78.94 27.66 82.27 26.92 85.04 25.95 C 85.44 27.77 83.86 28.43 82.36 28.53 C 80.52 28.67 78.83 29.46 77.16 30.18 Z" />
<path fill="#403d36" opacity="1.00" d=" M 101.95 28.57 C 104.01 27.88 105.92 26.81 107.87 25.85 C 107.53 27.06 107.17 28.27 106.75 29.45 L 106.28 29.45 C 102.77 29.05 98.23 30.72 97.77 34.67 C 99.74 33.65 101.69 32.58 103.74 31.73 C 103.69 33.34 101.43 33.30 100.41 34.17 C 100.87 35.93 100.46 37.63 99.44 39.11 C 99.95 36.04 96.91 36.76 94.93 36.94 C 94.91 37.71 94.87 39.27 94.85 40.05 C 95.33 40.05 96.28 40.05 96.75 40.05 C 95.80 41.02 95.16 42.21 94.60 43.44 L 94.12 43.45 C 92.81 43.34 91.51 43.21 90.20 43.18 C 90.18 43.93 90.13 45.42 90.11 46.17 C 90.85 46.16 92.32 46.15 93.06 46.15 C 91.57 47.01 90.52 48.39 89.26 49.53 C 87.18 49.23 85.12 49.68 83.08 50.06 C 84.09 47.83 87.08 47.42 88.95 46.04 C 88.55 45.62 87.75 44.77 87.35 44.35 C 89.31 42.21 92.86 41.91 94.17 39.14 C 92.71 39.30 91.27 39.55 89.81 39.76 C 92.05 37.99 94.49 36.52 96.87 34.98 C 96.52 34.60 95.82 33.85 95.48 33.47 C 97.08 31.42 98.83 29.49 100.45 27.46 C 100.83 27.74 101.58 28.29 101.95 28.57 Z" />
<path fill="#403d36" opacity="1.00" d=" M 65.22 31.13 C 64.21 29.62 66.97 27.89 68.03 29.26 C 67.37 30.24 66.29 30.73 65.22 31.13 Z" />
<path fill="#403d36" opacity="1.00" d=" M 61.70 41.22 C 65.35 37.79 70.07 35.61 72.93 31.33 C 73.42 31.54 74.39 31.98 74.88 32.19 C 70.77 35.56 67.10 39.98 61.70 41.22 Z" />
<path fill="#403d36" opacity="1.00" d=" M 62.32 32.26 C 62.76 32.25 63.65 32.24 64.10 32.23 C 63.62 32.46 62.67 32.91 62.20 33.14 L 62.32 32.26 Z" />
<path fill="#403d36" opacity="1.00" d=" M 59.30 34.27 L 60.27 33.82 L 61.07 34.26 C 60.60 34.48 59.65 34.92 59.17 35.15 L 59.30 34.27 Z" />
<path fill="#403d36" opacity="1.00" d=" M 56.31 36.31 L 57.27 35.82 L 58.07 36.25 C 57.61 36.49 56.69 36.97 56.22 37.21 L 56.31 36.31 Z" />
<path fill="#403d36" opacity="1.00" d=" M 60.31 42.16 C 60.89 42.75 60.89 42.75 60.31 42.16 Z" />
<path fill="#403d36" opacity="1.00" d=" M 71.02 45.15 C 71.41 43.26 73.31 42.43 75.06 43.02 C 74.17 44.40 72.64 45.15 71.02 45.15 Z" />
<path fill="#403d36" opacity="1.00" d=" M 70.88 52.03 C 71.78 49.92 73.38 48.29 75.26 47.03 C 74.45 49.21 72.78 50.79 70.88 52.03 Z" />
<path fill="#403d36" opacity="1.00" d=" M 79.07 53.04 C 81.54 51.58 84.40 51.04 87.16 51.97 C 86.26 52.47 85.36 52.98 84.46 53.47 C 84.19 54.37 83.78 55.18 83.23 55.89 C 81.73 55.12 80.10 54.44 79.07 53.04 Z" />
<path fill="#403d36" opacity="1.00" d=" M 78.11 57.42 C 79.09 57.59 80.07 57.78 81.05 57.98 C 78.64 59.60 76.17 61.62 76.35 64.83 C 77.26 68.14 78.62 71.54 81.17 73.94 C 84.58 73.33 88.08 72.66 91.54 73.38 C 93.50 75.36 96.35 77.00 97.05 79.85 C 93.24 79.87 89.34 80.25 85.63 79.24 C 84.20 78.84 82.68 78.67 81.23 79.03 C 80.25 80.49 80.55 83.10 78.84 83.82 C 78.98 83.15 79.27 81.81 79.41 81.14 C 81.03 78.43 81.17 73.85 77.45 72.92 C 76.60 70.58 76.31 68.04 75.24 65.77 C 75.76 62.88 76.18 59.76 78.11 57.42 M 83.92 74.12 C 83.93 74.61 83.95 75.57 83.96 76.06 C 86.41 76.08 89.61 76.60 91.17 74.19 C 88.76 73.98 86.33 73.95 83.92 74.12 M 82.93 77.05 L 83.30 77.83 C 87.08 79.17 91.18 79.69 95.17 79.12 C 94.52 77.56 93.19 75.49 91.21 75.96 C 88.53 76.83 85.72 76.95 82.93 77.05 Z" />
<path fill="#403d36" opacity="1.00" d=" M 75.82 89.64 C 76.00 88.25 76.48 86.81 77.75 86.05 C 78.84 87.18 77.46 90.36 75.82 89.64 Z" />
</g>
<g id="#d2994dff">
<path fill="#d2994d" opacity="1.00" d=" M 3.29 16.39 C 4.65 14.46 6.81 16.41 8.52 16.67 C 10.46 17.52 12.50 15.83 14.44 16.76 C 16.83 17.83 19.54 17.23 21.91 18.31 C 23.09 18.90 24.40 18.63 25.65 18.69 C 27.78 19.86 29.77 21.28 32.10 22.06 C 34.40 22.85 35.78 25.03 37.79 26.30 C 39.87 27.81 42.40 28.83 43.92 31.01 C 46.05 34.11 48.72 36.77 51.01 39.75 C 52.38 39.32 53.68 38.68 55.01 38.15 C 52.32 40.47 49.17 42.81 48.24 46.43 C 47.57 49.27 49.32 53.46 52.76 52.98 C 58.48 51.41 62.94 46.87 68.97 45.99 C 67.70 46.64 66.44 47.31 65.29 48.16 C 65.51 50.81 65.13 54.35 68.00 55.70 C 69.02 54.53 69.94 53.27 70.88 52.03 C 72.78 50.79 74.45 49.21 75.26 47.03 C 75.53 46.57 76.07 45.64 76.34 45.18 C 77.43 44.03 78.20 42.12 79.91 41.85 C 79.87 43.34 79.72 44.83 79.51 46.31 C 76.55 51.84 73.05 57.12 70.82 63.01 C 67.98 64.84 64.58 65.63 61.24 64.97 C 59.49 62.03 60.90 58.96 61.86 56.06 C 61.88 54.32 59.76 54.41 58.65 53.70 C 58.55 53.22 58.35 52.26 58.25 51.78 C 54.88 53.31 56.09 57.06 55.89 59.96 C 54.26 60.10 52.62 60.05 50.98 60.11 C 51.67 61.04 52.82 61.44 54.44 61.31 C 52.82 61.84 51.16 62.16 49.53 62.62 C 46.11 66.84 47.14 72.78 49.77 77.12 C 52.33 82.38 57.52 85.46 61.71 89.27 C 63.40 91.16 65.67 89.44 67.70 89.38 C 70.17 89.65 72.55 90.47 74.96 91.05 C 74.40 92.12 72.59 93.05 73.40 94.44 C 74.69 97.32 76.25 100.33 75.71 103.60 C 73.07 105.95 69.17 105.97 66.01 104.68 C 62.48 106.24 57.86 105.73 55.45 102.48 C 54.40 97.67 59.18 95.17 61.56 92.04 C 60.75 90.11 59.68 88.19 57.80 87.12 C 52.03 83.15 46.77 77.26 46.40 69.94 C 45.65 65.60 50.04 61.91 47.63 57.65 C 48.01 53.99 45.81 50.42 47.20 46.89 C 46.52 43.73 43.66 41.61 41.39 39.53 C 35.83 36.36 30.32 33.05 24.47 30.40 C 16.82 26.68 10.55 20.77 3.29 16.39 M 10.56 18.20 C 10.14 18.14 9.31 18.02 8.90 17.96 C 12.05 21.85 17.06 24.72 22.24 24.36 C 25.54 24.18 28.85 24.23 32.08 24.97 C 31.83 22.50 29.10 22.10 27.11 21.97 C 24.95 21.98 23.64 19.67 21.41 19.94 C 21.24 19.71 20.91 19.23 20.74 19.00 C 19.67 18.72 18.58 18.50 17.48 18.36 L 17.99 18.73 L 17.17 19.29 C 15.37 17.90 12.55 15.99 10.56 18.20 M 47.86 54.29 C 49.09 55.85 48.89 57.88 49.03 59.74 C 50.98 59.21 53.33 59.29 54.90 57.89 C 54.34 56.43 53.16 55.18 51.77 54.47 C 50.46 54.86 49.11 54.97 47.86 54.29 M 64.87 92.93 C 65.88 93.81 66.65 95.31 68.11 95.43 C 67.02 96.72 65.83 98.15 66.08 99.98 C 66.23 101.57 65.43 104.33 67.93 104.12 C 66.96 102.03 66.76 97.76 68.98 97.04 C 69.13 99.23 69.13 101.44 69.35 103.63 C 69.68 103.69 70.35 103.79 70.68 103.84 C 70.84 101.88 70.85 99.91 70.99 97.95 C 73.42 98.61 71.13 103.25 74.06 104.12 C 75.74 99.70 72.08 95.60 71.83 91.21 C 69.99 90.78 70.05 93.01 69.16 94.02 C 70.27 92.28 69.05 89.74 66.98 89.58 C 65.47 89.89 65.51 91.82 64.87 92.93 M 61.10 94.14 C 60.05 95.23 58.67 95.97 57.73 97.16 C 57.81 99.38 58.18 101.57 58.52 103.76 C 59.06 103.84 60.14 103.99 60.68 104.07 C 60.39 102.34 59.96 100.62 59.97 98.86 C 62.56 98.85 61.17 103.46 63.72 104.07 C 63.50 102.44 63.07 100.83 63.10 99.19 C 63.14 97.45 65.30 96.72 65.58 95.12 C 64.81 93.73 63.87 92.44 62.87 91.22 C 61.72 91.63 61.80 93.26 61.10 94.14 M 64.18 99.28 C 62.61 102.29 67.59 99.41 64.18 99.28 M 56.22 100.18 C 56.75 100.70 56.75 100.70 56.22 100.18 Z" />
<path fill="#d2994d" opacity="1.00" d=" M 73.76 36.72 C 73.90 35.59 74.54 34.94 75.67 34.78 C 76.00 36.38 75.36 37.02 73.76 36.72 Z" />
</g>
<g id="#d8ce9dff">
<path fill="#d8ce9d" opacity="1.00" d=" M 102.40 26.67 C 103.77 20.38 110.73 18.27 115.69 15.41 C 115.83 15.75 116.12 16.43 116.26 16.77 C 115.97 17.06 115.39 17.65 115.10 17.94 C 113.02 19.49 110.83 20.90 108.91 22.66 C 110.08 22.77 111.25 22.82 112.43 22.84 C 112.05 23.10 111.29 23.62 110.91 23.88 C 110.45 24.13 109.52 24.63 109.06 24.88 C 108.76 25.12 108.17 25.61 107.87 25.85 C 105.92 26.81 104.01 27.88 101.95 28.57 C 101.58 28.29 100.83 27.74 100.45 27.46 C 98.83 29.49 97.08 31.42 95.48 33.47 C 95.82 33.85 96.52 34.60 96.87 34.98 C 94.49 36.52 92.05 37.99 89.81 39.76 C 91.27 39.55 92.71 39.30 94.17 39.14 C 92.86 41.91 89.31 42.21 87.35 44.35 C 87.75 44.77 88.55 45.62 88.95 46.04 C 87.08 47.42 84.09 47.83 83.08 50.06 C 85.12 49.68 87.18 49.23 89.26 49.53 C 88.67 50.44 87.97 51.25 87.16 51.97 C 84.40 51.04 81.54 51.58 79.07 53.04 C 80.10 54.44 81.73 55.12 83.23 55.89 C 82.55 56.64 81.83 57.34 81.05 57.98 C 80.07 57.78 79.09 57.59 78.11 57.42 C 76.18 59.76 75.76 62.88 75.24 65.77 C 73.76 64.86 72.29 63.94 70.82 63.01 C 73.05 57.12 76.55 51.84 79.51 46.31 C 81.45 42.99 81.93 39.08 83.49 35.61 C 84.56 33.13 87.50 32.77 89.65 31.64 C 93.77 29.99 97.15 26.83 101.39 25.46 C 101.64 25.76 102.15 26.36 102.40 26.67 Z" />
<path fill="#d8ce9d" opacity="1.00" d=" M 10.56 18.20 C 12.55 15.99 15.37 17.90 17.17 19.29 C 17.14 19.94 17.08 21.24 17.05 21.89 C 14.82 20.78 12.73 19.41 10.56 18.20 Z" />
<path fill="#d8ce9d" opacity="1.00" d=" M 94.93 36.94 C 96.91 36.76 99.95 36.04 99.44 39.11 C 98.77 39.35 97.42 39.82 96.75 40.05 C 96.28 40.05 95.33 40.05 94.85 40.05 C 94.87 39.27 94.91 37.71 94.93 36.94 Z" />
<path fill="#d8ce9d" opacity="1.00" d=" M 49.77 77.12 C 53.87 80.20 57.39 84.58 62.79 85.28 C 68.55 85.80 74.94 85.23 79.41 81.14 C 79.27 81.81 78.98 83.15 78.84 83.82 C 78.73 84.24 78.50 85.08 78.39 85.49 L 77.75 86.05 C 76.48 86.81 76.00 88.25 75.82 89.64 C 75.61 90.00 75.18 90.70 74.96 91.05 C 72.55 90.47 70.17 89.65 67.70 89.38 C 65.67 89.44 63.40 91.16 61.71 89.27 C 57.52 85.46 52.33 82.38 49.77 77.12 Z" />
</g>
<g id="#fdfbbeff">
<path fill="#fdfbbe" opacity="1.00" d=" M 8.90 17.96 C 9.31 18.02 10.14 18.14 10.56 18.20 C 12.73 19.41 14.82 20.78 17.05 21.89 C 17.08 21.24 17.14 19.94 17.17 19.29 L 17.99 18.73 C 19.73 19.60 21.34 20.67 22.75 22.01 C 22.41 21.50 21.74 20.46 21.41 19.94 C 23.64 19.67 24.95 21.98 27.11 21.97 C 29.10 22.10 31.83 22.50 32.08 24.97 C 28.85 24.23 25.54 24.18 22.24 24.36 C 17.06 24.72 12.05 21.85 8.90 17.96 Z" />
<path fill="#fdfbbe" opacity="1.00" d=" M 97.77 34.67 C 98.23 30.72 102.77 29.05 106.28 29.45 C 105.71 30.54 104.87 31.30 103.74 31.73 C 101.69 32.58 99.74 33.65 97.77 34.67 Z" />
<path fill="#fdfbbe" opacity="1.00" d=" M 90.20 43.18 C 91.51 43.21 92.81 43.34 94.12 43.45 C 93.86 44.13 93.33 45.47 93.06 46.15 C 92.32 46.15 90.85 46.16 90.11 46.17 C 90.13 45.42 90.18 43.93 90.20 43.18 Z" />
<path fill="#fdfbbe" opacity="1.00" d=" M 55.89 59.96 C 56.09 57.06 54.88 53.31 58.25 51.78 C 58.35 52.26 58.55 53.22 58.65 53.70 C 59.76 54.41 61.88 54.32 61.86 56.06 C 60.90 58.96 59.49 62.03 61.24 64.97 C 64.58 65.63 67.98 64.84 70.82 63.01 C 72.29 63.94 73.76 64.86 75.24 65.77 C 76.31 68.04 76.60 70.58 77.45 72.92 C 81.17 73.85 81.03 78.43 79.41 81.14 C 74.94 85.23 68.55 85.80 62.79 85.28 C 57.39 84.58 53.87 80.20 49.77 77.12 C 47.14 72.78 46.11 66.84 49.53 62.62 C 51.16 62.16 52.82 61.84 54.44 61.31 C 52.82 61.44 51.67 61.04 50.98 60.11 C 52.62 60.05 54.26 60.10 55.89 59.96 Z" />
</g>
<g id="#fff28cff">
<path fill="#fff28c" opacity="1.00" d=" M 72.99 25.19 C 75.00 24.22 76.84 21.87 79.25 22.46 C 77.35 25.55 75.43 28.67 72.93 31.33 C 70.07 35.61 65.35 37.79 61.70 41.22 C 67.10 39.98 70.77 35.56 74.88 32.19 C 75.61 31.49 76.37 30.82 77.16 30.18 C 78.83 29.46 80.52 28.67 82.36 28.53 C 80.28 30.71 78.38 33.42 75.67 34.78 C 74.54 34.94 73.90 35.59 73.76 36.72 C 73.49 37.12 72.95 37.91 72.69 38.31 C 69.86 39.78 67.24 41.60 64.67 43.47 C 59.89 45.47 56.04 49.05 52.76 52.98 C 49.32 53.46 47.57 49.27 48.24 46.43 C 49.17 42.81 52.32 40.47 55.01 38.15 C 55.31 37.92 55.92 37.44 56.22 37.21 C 56.69 36.97 57.61 36.49 58.07 36.25 C 58.35 35.98 58.90 35.42 59.17 35.15 C 59.65 34.92 60.60 34.48 61.07 34.26 C 61.35 33.98 61.92 33.42 62.20 33.14 C 62.67 32.91 63.62 32.46 64.10 32.23 C 64.38 31.95 64.94 31.40 65.22 31.13 C 66.29 30.73 67.37 30.24 68.03 29.26 C 68.33 28.98 68.91 28.43 69.20 28.15 C 70.26 27.74 71.35 27.27 72.00 26.28 C 72.25 26.01 72.74 25.46 72.99 25.19 M 60.31 42.16 C 60.89 42.75 60.89 42.75 60.31 42.16 Z" />
</g>
<g id="#fe624dff">
<path fill="#fe624d" opacity="1.00" d=" M 64.67 43.47 C 70.27 43.64 74.39 38.92 79.40 37.09 C 78.60 38.77 77.50 40.28 76.39 41.76 C 76.06 42.08 75.39 42.71 75.06 43.02 C 73.31 42.43 71.41 43.26 71.02 45.15 C 70.51 45.36 69.48 45.78 68.97 45.99 C 62.94 46.87 58.48 51.41 52.76 52.98 C 56.04 49.05 59.89 45.47 64.67 43.47 Z" />
<path fill="#fe624d" opacity="1.00" d=" M 83.92 74.12 C 86.33 73.95 88.76 73.98 91.17 74.19 C 89.61 76.60 86.41 76.08 83.96 76.06 C 83.95 75.57 83.93 74.61 83.92 74.12 Z" />
<path fill="#fe624d" opacity="1.00" d=" M 82.93 77.05 C 85.72 76.95 88.53 76.83 91.21 75.96 C 93.19 75.49 94.52 77.56 95.17 79.12 C 91.18 79.69 87.08 79.17 83.30 77.83 L 82.93 77.05 Z" />
</g>
<g id="#ffdbeeff">
<path fill="#ffdbee" opacity="1.00" d=" M 47.86 54.29 C 49.11 54.97 50.46 54.86 51.77 54.47 C 53.16 55.18 54.34 56.43 54.90 57.89 C 53.33 59.29 50.98 59.21 49.03 59.74 C 48.89 57.88 49.09 55.85 47.86 54.29 Z" />
<path fill="#ffdbee" opacity="1.00" d=" M 61.10 94.14 C 61.80 93.26 61.72 91.63 62.87 91.22 C 63.87 92.44 64.81 93.73 65.58 95.12 C 65.30 96.72 63.14 97.45 63.10 99.19 C 63.07 100.83 63.50 102.44 63.72 104.07 C 61.17 103.46 62.56 98.85 59.97 98.86 C 59.96 100.62 60.39 102.34 60.68 104.07 C 60.14 103.99 59.06 103.84 58.52 103.76 C 58.18 101.57 57.81 99.38 57.73 97.16 C 58.67 95.97 60.05 95.23 61.10 94.14 Z" />
<path fill="#ffdbee" opacity="1.00" d=" M 69.16 94.02 C 70.05 93.01 69.99 90.78 71.83 91.21 C 72.08 95.60 75.74 99.70 74.06 104.12 C 71.13 103.25 73.42 98.61 70.99 97.95 C 70.85 99.91 70.84 101.88 70.68 103.84 C 70.35 103.79 69.68 103.69 69.35 103.63 C 69.13 101.44 69.13 99.23 68.98 97.04 C 66.76 97.76 66.96 102.03 67.93 104.12 C 65.43 104.33 66.23 101.57 66.08 99.98 C 65.83 98.15 67.02 96.72 68.11 95.43 C 68.38 95.08 68.90 94.37 69.16 94.02 Z" />
<path fill="#ffdbee" opacity="1.00" d=" M 56.22 100.18 C 56.75 100.70 56.75 100.70 56.22 100.18 Z" />
</g>
</svg>
