<?xml version="1.0" encoding="UTF-8" ?>
<!DOCTYPE svg PUBLIC "-//W3C//DTD SVG 1.1//EN" "http://www.w3.org/Graphics/SVG/1.1/DTD/svg11.dtd">
<svg width="120pt" height="120pt" viewBox="0 0 120 120" version="1.1" xmlns="http://www.w3.org/2000/svg">
<g id="#484848ff">
<path fill="#484848" opacity="1.00" d=" M 33.33 26.83 C 36.40 29.53 38.44 33.20 39.74 37.03 C 40.08 38.47 40.05 41.19 42.13 41.14 C 45.11 40.11 48.25 39.84 51.38 40.24 C 52.47 40.85 53.65 41.20 54.91 41.29 C 55.52 40.01 55.20 37.20 57.28 37.46 C 57.04 37.95 56.55 38.93 56.31 39.42 C 55.82 40.54 55.32 41.66 54.97 42.84 C 51.42 41.16 47.31 40.36 43.49 41.60 C 42.32 42.07 41.15 42.52 39.98 42.98 C 39.22 38.75 38.17 34.36 34.85 31.35 C 30.89 35.61 34.78 41.06 36.75 45.28 C 36.25 46.42 35.75 47.57 35.24 48.71 C 35.09 49.62 34.92 50.53 34.75 51.44 C 34.32 52.61 34.20 53.85 34.22 55.09 C 31.60 57.60 34.25 60.43 35.95 62.45 C 36.01 62.68 36.13 63.12 36.19 63.34 C 35.43 64.79 34.73 66.27 34.00 67.74 C 34.38 72.22 35.44 78.71 40.92 79.34 C 41.65 74.87 40.73 70.47 38.78 66.44 C 37.84 65.60 36.91 64.76 35.98 63.91 C 37.18 64.37 38.38 64.87 39.59 65.31 C 40.05 66.53 40.50 67.75 40.96 68.97 C 42.14 71.82 42.27 74.98 41.90 78.01 C 41.88 79.66 39.86 79.98 38.66 80.42 C 37.66 79.92 36.69 79.36 35.76 78.74 C 35.47 78.01 34.87 76.54 34.57 75.81 C 33.69 77.82 32.41 79.74 32.11 81.96 C 32.86 85.66 36.58 87.46 39.02 89.95 C 37.77 89.96 35.26 89.99 34.01 90.01 L 33.98 91.24 C 36.94 90.66 40.17 90.35 42.45 88.15 C 47.07 88.14 52.00 87.11 56.35 89.18 C 57.95 88.94 59.58 88.67 61.06 87.96 C 60.22 89.17 59.95 90.59 59.79 92.03 C 58.05 92.01 56.30 91.95 54.55 91.86 L 56.04 91.21 C 56.94 91.90 60.03 90.75 57.94 89.95 C 57.46 90.08 56.50 90.33 56.02 90.45 C 52.14 87.98 47.40 89.24 43.05 88.98 C 43.02 89.45 42.97 90.41 42.94 90.89 C 41.39 91.03 39.67 90.77 38.40 91.91 C 36.48 91.97 34.56 91.94 32.64 91.86 C 33.19 90.50 34.14 89.39 35.17 88.38 C 33.48 87.06 32.11 85.40 31.12 83.50 C 31.14 82.52 31.15 81.53 31.16 80.55 C 32.26 77.99 35.59 75.20 33.22 72.41 C 33.15 70.86 33.14 69.31 33.16 67.77 C 33.82 66.34 34.39 64.87 34.99 63.41 C 33.89 62.18 32.93 60.85 32.00 59.51 C 32.24 57.22 32.80 54.99 33.36 52.77 C 34.18 50.08 34.96 47.35 35.19 44.54 C 34.48 43.57 33.85 42.55 33.29 41.49 C 33.08 40.43 32.77 39.40 32.36 38.39 C 32.10 37.04 32.14 35.56 31.22 34.42 C 31.16 33.11 31.14 31.81 31.13 30.50 C 31.90 29.30 32.62 28.07 33.33 26.83 Z" />
</g>
<g id="#151d22ff">
<path fill="#151d22" opacity="1.00" d=" M 63.64 29.13 C 64.68 27.69 66.41 27.28 68.00 26.78 C 68.00 28.87 67.99 30.96 68.00 33.05 L 66.90 32.89 C 66.95 31.40 66.98 29.92 67.00 28.43 C 66.16 28.60 64.48 28.96 63.64 29.13 Z" />
</g>
<g id="#474747ff">
<path fill="#474747" opacity="1.00" d=" M 58.41 35.85 C 59.02 32.95 61.46 30.92 63.64 29.13 C 64.48 28.96 66.16 28.60 67.00 28.43 C 66.98 29.92 66.95 31.40 66.90 32.89 C 66.84 34.37 66.13 35.71 65.71 37.09 L 64.87 36.76 C 64.83 34.94 64.24 33.22 63.66 31.52 C 61.19 31.95 60.02 34.22 58.41 35.85 Z" />
<path fill="#474747" opacity="1.00" d=" M 40.22 59.67 C 39.76 58.38 41.98 57.44 42.98 58.05 C 43.45 59.37 41.20 60.14 40.22 59.67 Z" />
<path fill="#474747" opacity="1.00" d=" M 50.53 65.90 C 52.19 65.12 53.87 64.40 55.56 63.69 C 53.80 65.63 51.37 66.82 49.70 68.84 C 48.38 70.81 47.54 73.04 46.48 75.16 L 45.68 75.38 C 46.53 77.19 47.53 78.93 48.63 80.61 C 46.94 80.04 45.02 78.80 45.24 76.76 C 45.60 74.07 47.21 71.77 48.44 69.42 C 49.12 68.23 49.81 67.06 50.53 65.90 Z" />
<path fill="#474747" opacity="1.00" d=" M 59.13 70.20 C 59.77 69.46 60.41 68.72 61.06 68.00 C 59.19 71.36 57.08 74.68 54.24 77.32 C 52.57 78.87 51.15 81.11 48.63 81.22 C 51.34 78.72 54.33 76.50 56.60 73.55 C 56.74 71.97 57.77 70.87 59.13 70.20 Z" />
</g>
<g id="#fff284ff">
<path fill="#fff284" opacity="1.00" d=" M 36.75 45.28 C 34.78 41.06 30.89 35.61 34.85 31.35 C 38.17 34.36 39.22 38.75 39.98 42.98 C 41.15 42.52 42.32 42.07 43.49 41.60 C 47.31 40.36 51.42 41.16 54.97 42.84 C 58.05 45.84 55.88 49.89 53.47 52.48 C 52.72 50.85 51.47 49.22 49.56 50.38 C 49.26 50.66 48.66 51.22 48.36 51.51 C 46.54 54.95 51.75 56.32 53.72 53.98 L 53.64 54.61 C 53.22 56.57 52.16 58.49 52.39 60.54 C 52.78 62.43 54.92 62.93 56.40 63.67 C 56.43 63.69 56.48 63.71 56.51 63.72 C 56.94 64.07 57.81 64.76 58.24 65.10 C 55.30 69.30 52.05 74.51 46.48 75.16 C 47.54 73.04 48.38 70.81 49.70 68.84 C 51.37 66.82 53.80 65.63 55.56 63.69 C 53.87 64.40 52.19 65.12 50.53 65.90 C 46.90 66.64 43.11 66.50 39.59 65.31 C 38.38 64.87 37.18 64.37 35.98 63.91 C 36.91 64.76 37.84 65.60 38.78 66.44 C 40.73 70.47 41.65 74.87 40.92 79.34 C 35.44 78.71 34.38 72.22 34.00 67.74 C 34.73 66.27 35.43 64.79 36.19 63.34 C 36.13 63.12 36.01 62.68 35.95 62.45 C 35.53 59.96 34.98 57.50 34.22 55.09 C 34.20 53.85 34.32 52.61 34.75 51.44 C 34.92 50.53 35.09 49.62 35.24 48.71 C 35.75 47.57 36.25 46.42 36.75 45.28 M 36.27 49.95 C 35.97 50.57 35.38 51.82 35.08 52.44 C 35.05 53.15 35.00 54.55 34.97 55.25 C 35.61 55.16 36.90 54.98 37.54 54.90 C 38.30 54.39 40.17 51.11 38.27 51.73 L 37.64 50.98 L 38.55 50.15 C 37.98 50.10 36.84 50.00 36.27 49.95 M 41.54 55.11 C 41.76 58.42 44.51 53.51 41.54 55.11 M 40.22 59.67 C 41.20 60.14 43.45 59.37 42.98 58.05 C 41.98 57.44 39.76 58.38 40.22 59.67 M 46.40 58.42 C 46.60 58.62 46.60 58.62 46.40 58.42 M 44.37 59.35 C 44.66 59.64 44.66 59.64 44.37 59.35 Z" />
</g>
<g id="#f6e17bff">
<path fill="#f6e17b" opacity="1.00" d=" M 58.41 35.85 C 60.02 34.22 61.19 31.95 63.66 31.52 C 64.24 33.22 64.83 34.94 64.87 36.76 C 64.16 38.70 62.92 40.39 61.19 41.54 L 62.12 41.57 C 60.68 42.68 59.27 43.84 57.89 45.03 C 60.14 49.66 61.40 54.81 61.00 59.98 C 60.38 66.21 63.36 72.04 63.12 78.26 C 62.97 79.04 62.67 80.62 62.51 81.40 C 54.67 83.09 46.19 83.70 38.66 80.42 C 39.86 79.98 41.88 79.66 41.90 78.01 C 42.27 74.98 42.14 71.82 40.96 68.97 C 43.45 69.12 45.95 69.27 48.44 69.42 C 47.21 71.77 45.60 74.07 45.24 76.76 C 45.02 78.80 46.94 80.04 48.63 80.61 C 47.53 78.93 46.53 77.19 45.68 75.38 L 46.48 75.16 C 52.05 74.51 55.30 69.30 58.24 65.10 C 57.81 64.76 56.94 64.07 56.51 63.72 L 56.42 63.65 C 58.13 61.56 59.91 59.06 58.96 56.20 C 57.65 54.66 55.39 55.07 53.64 54.61 L 53.72 53.98 C 53.66 53.61 53.53 52.86 53.47 52.48 C 55.88 49.89 58.05 45.84 54.97 42.84 C 55.32 41.66 55.82 40.54 56.31 39.42 C 56.55 38.93 57.04 37.95 57.28 37.46 L 57.13 36.42 L 58.41 35.85 M 58.40 62.33 C 58.78 62.71 58.78 62.71 58.40 62.33 M 59.13 70.20 C 57.77 70.87 56.74 71.97 56.60 73.55 C 54.33 76.50 51.34 78.72 48.63 81.22 C 51.15 81.11 52.57 78.87 54.24 77.32 C 57.08 74.68 59.19 71.36 61.06 68.00 C 60.41 68.72 59.77 69.46 59.13 70.20 Z" />
</g>
<g id="#5a532fff">
<path fill="#5a532f" opacity="1.00" d=" M 57.89 45.03 C 59.27 43.84 60.68 42.68 62.12 41.57 C 61.45 43.04 59.73 44.20 59.91 45.96 C 60.49 49.37 62.25 52.58 61.98 56.11 C 61.96 56.40 61.93 56.99 61.91 57.28 C 61.80 59.75 61.88 62.29 62.79 64.63 C 62.89 66.54 62.98 68.46 63.08 70.38 C 63.59 70.26 64.60 70.02 65.11 69.90 C 64.89 70.36 64.44 71.27 64.22 71.72 C 64.05 73.13 63.90 74.54 63.78 75.96 C 65.30 75.53 66.83 75.11 68.36 74.71 C 67.67 75.96 66.51 76.38 64.87 75.98 C 65.15 76.58 65.72 77.77 66.00 78.36 L 65.78 78.87 C 65.07 79.86 64.85 80.93 65.14 82.10 L 64.51 82.79 L 63.80 83.56 C 63.95 81.76 63.89 79.93 63.12 78.26 C 63.36 72.04 60.38 66.21 61.00 59.98 C 61.40 54.81 60.14 49.66 57.89 45.03 Z" />
</g>
<g id="#1e251fc8">
<path fill="#1e251f" opacity="0.78" d=" M 83.31 46.20 C 85.25 45.41 87.18 44.59 89.08 43.71 C 88.95 48.80 89.03 53.90 89.00 59.00 L 88.33 59.26 C 88.26 54.76 88.31 50.26 88.39 45.76 C 87.68 45.85 86.26 46.03 85.55 46.12 C 83.85 47.05 82.15 47.99 80.45 48.92 C 79.99 48.96 79.07 49.05 78.60 49.09 C 77.25 49.89 75.84 50.60 74.41 51.26 C 73.45 51.81 72.48 52.37 71.52 52.93 C 71.02 52.97 70.03 53.04 69.53 53.08 C 68.56 53.64 67.59 54.20 66.62 54.76 C 64.99 55.49 63.41 56.31 61.91 57.28 C 61.93 56.99 61.96 56.40 61.98 56.11 C 62.60 55.74 63.84 55.00 64.46 54.63 C 65.82 54.00 67.16 53.33 68.50 52.68 C 69.77 52.20 71.05 51.74 72.33 51.28 C 74.06 50.42 75.79 49.54 77.51 48.66 C 78.79 48.19 80.08 47.75 81.38 47.31 C 81.86 47.03 82.83 46.48 83.31 46.20 Z" />
</g>
<g id="#fae47dff">
<path fill="#fae47d" opacity="1.00" d=" M 85.55 46.12 C 86.26 46.03 87.68 45.85 88.39 45.76 C 88.31 50.26 88.26 54.76 88.33 59.26 C 88.06 59.36 87.52 59.55 87.25 59.65 C 82.10 60.32 76.96 61.09 71.85 62.04 C 70.28 62.26 69.06 63.36 67.72 64.12 C 69.62 66.92 71.89 69.48 73.31 72.59 C 72.00 72.81 70.83 73.32 69.80 74.11 L 69.39 74.42 C 69.14 74.49 68.62 74.63 68.36 74.71 C 66.83 75.11 65.30 75.53 63.78 75.96 C 63.90 74.54 64.05 73.13 64.22 71.72 C 64.44 71.27 64.89 70.36 65.11 69.90 C 65.35 69.68 65.84 69.25 66.08 69.03 C 65.30 68.42 64.51 67.82 63.72 67.22 C 63.49 66.57 63.02 65.28 62.79 64.63 C 61.88 62.29 61.80 59.75 61.91 57.28 C 63.41 56.31 64.99 55.49 66.62 54.76 C 67.59 54.20 68.56 53.64 69.53 53.08 C 70.03 53.04 71.02 52.97 71.52 52.93 C 72.48 52.37 73.45 51.81 74.41 51.26 C 75.84 50.60 77.25 49.89 78.60 49.09 C 79.07 49.05 79.99 48.96 80.45 48.92 C 82.15 47.99 83.85 47.05 85.55 46.12 Z" />
</g>
<g id="#383226ff">
<path fill="#383226" opacity="1.00" d=" M 36.27 49.95 C 36.84 50.00 37.98 50.10 38.55 50.15 L 37.64 50.98 C 37.50 51.49 37.23 52.49 37.09 53.00 C 37.39 52.68 37.98 52.04 38.27 51.73 C 40.17 51.11 38.30 54.39 37.54 54.90 C 36.90 54.98 35.61 55.16 34.97 55.25 C 35.00 54.55 35.05 53.15 35.08 52.44 C 35.38 51.82 35.97 50.57 36.27 49.95 Z" />
</g>
<g id="#302c24ff">
<path fill="#302c24" opacity="1.00" d=" M 49.56 50.38 C 51.47 49.22 52.72 50.85 53.47 52.48 C 53.53 52.86 53.66 53.61 53.72 53.98 C 51.75 56.32 46.54 54.95 48.36 51.51 C 49.51 54.27 52.52 51.45 49.56 50.38 Z" />
</g>
<g id="#fbfbfbff">
<path fill="#fbfbfb" opacity="1.00" d=" M 37.09 53.00 C 37.23 52.49 37.50 51.49 37.64 50.98 L 38.27 51.73 C 37.98 52.04 37.39 52.68 37.09 53.00 Z" />
</g>
<g id="#d0d0d0ff">
<path fill="#d0d0d0" opacity="1.00" d=" M 48.36 51.51 C 48.66 51.22 49.26 50.66 49.56 50.38 C 52.52 51.45 49.51 54.27 48.36 51.51 Z" />
</g>
<g id="#60552eff">
<path fill="#60552e" opacity="1.00" d=" M 41.54 55.11 C 44.51 53.51 41.76 58.42 41.54 55.11 Z" />
</g>
<g id="#fa947dff">
<path fill="#fa947d" opacity="1.00" d=" M 53.64 54.61 C 55.39 55.07 57.65 54.66 58.96 56.20 C 59.91 59.06 58.13 61.56 56.42 63.65 L 56.40 63.67 C 54.92 62.93 52.78 62.43 52.39 60.54 C 52.16 58.49 53.22 56.57 53.64 54.61 Z" />
</g>
<g id="#ec9075ff">
<path fill="#ec9075" opacity="1.00" d=" M 35.95 62.45 C 34.25 60.43 31.60 57.60 34.22 55.09 C 34.98 57.50 35.53 59.96 35.95 62.45 Z" />
</g>
<g id="#4c342eff">
<path fill="#4c342e" opacity="1.00" d=" M 46.40 58.42 C 46.60 58.62 46.60 58.62 46.40 58.42 Z" />
</g>
<g id="#947e4eff">
<path fill="#947e4e" opacity="1.00" d=" M 44.37 59.35 C 44.66 59.64 44.66 59.64 44.37 59.35 Z" />
</g>
<g id="#645d36ff">
<path fill="#645d36" opacity="1.00" d=" M 71.85 62.04 C 76.96 61.09 82.10 60.32 87.25 59.65 C 86.48 62.05 83.39 60.58 81.55 61.09 C 79.85 62.52 77.55 61.84 75.55 62.09 C 73.93 63.56 71.67 62.81 69.72 62.98 C 69.80 67.02 73.97 69.14 75.30 72.76 C 73.51 73.37 71.70 73.97 69.80 74.11 C 70.83 73.32 72.00 72.81 73.31 72.59 C 71.89 69.48 69.62 66.92 67.72 64.12 C 69.06 63.36 70.28 62.26 71.85 62.04 Z" />
</g>
<g id="#aa9b54ff">
<path fill="#aa9b54" opacity="1.00" d=" M 58.40 62.33 C 58.78 62.71 58.78 62.71 58.40 62.33 Z" />
</g>
<g id="#635a31ff">
<path fill="#635a31" opacity="1.00" d=" M 56.40 63.67 L 56.42 63.65 L 56.51 63.72 C 56.48 63.71 56.43 63.69 56.40 63.67 Z" />
</g>
<g id="#d1b75fff">
<path fill="#d1b75f" opacity="1.00" d=" M 39.59 65.31 C 43.11 66.50 46.90 66.64 50.53 65.90 C 49.81 67.06 49.12 68.23 48.44 69.42 C 45.95 69.27 43.45 69.12 40.96 68.97 C 40.50 67.75 40.05 66.53 39.59 65.31 Z" />
</g>
<g id="#c7ae5aff">
<path fill="#c7ae5a" opacity="1.00" d=" M 32.11 81.96 C 32.41 79.74 33.69 77.82 34.57 75.81 C 34.87 76.54 35.47 78.01 35.76 78.74 C 36.34 80.59 37.65 82.07 39.60 82.45 C 47.02 84.57 54.84 85.45 62.54 84.69 C 62.78 84.95 63.28 85.48 63.53 85.74 C 62.77 86.55 61.94 87.29 61.06 87.96 C 59.58 88.67 57.95 88.94 56.35 89.18 C 52.00 87.11 47.07 88.14 42.45 88.15 C 40.17 90.35 36.94 90.66 33.98 91.24 L 34.01 90.01 C 35.26 89.99 37.77 89.96 39.02 89.95 C 36.58 87.46 32.86 85.66 32.11 81.96 Z" />
</g>
<g id="#38311dff">
<path fill="#38311d" opacity="1.00" d=" M 66.00 78.36 L 66.38 77.51 C 66.76 78.28 67.51 79.81 67.89 80.57 C 67.93 81.19 68.01 82.44 68.05 83.06 C 67.17 83.00 65.39 82.86 64.51 82.79 L 65.14 82.10 C 65.53 82.09 66.30 82.06 66.69 82.04 C 66.78 80.90 66.47 79.84 65.78 78.87 L 66.00 78.36 Z" />
</g>
<g id="#dcc569ff">
<path fill="#dcc569" opacity="1.00" d=" M 35.76 78.74 C 36.69 79.36 37.66 79.92 38.66 80.42 C 46.19 83.70 54.67 83.09 62.51 81.40 C 62.67 80.62 62.97 79.04 63.12 78.26 C 63.89 79.93 63.95 81.76 63.80 83.56 C 63.78 84.16 63.75 85.36 63.73 85.96 L 63.53 85.74 C 63.28 85.48 62.78 84.95 62.54 84.69 C 54.84 85.45 47.02 84.57 39.60 82.45 C 37.65 82.07 36.34 80.59 35.76 78.74 Z" />
</g>
<g id="#c69f4eff">
<path fill="#c69f4e" opacity="1.00" d=" M 65.14 82.10 C 64.85 80.93 65.07 79.86 65.78 78.87 C 66.47 79.84 66.78 80.90 66.69 82.04 C 66.30 82.06 65.53 82.09 65.14 82.10 Z" />
</g>
<g id="#9a8746ff">
<path fill="#9a8746" opacity="1.00" d=" M 56.02 90.45 C 56.50 90.33 57.46 90.08 57.94 89.95 C 60.03 90.75 56.94 91.90 56.04 91.21 L 56.02 90.45 Z" />
</g>
</svg>
