<?xml version="1.0" encoding="UTF-8" ?>
<!DOCTYPE svg PUBLIC "-//W3C//DTD SVG 1.1//EN" "http://www.w3.org/Graphics/SVG/1.1/DTD/svg11.dtd">
<svg width="120pt" height="120pt" viewBox="0 0 120 120" version="1.1" xmlns="http://www.w3.org/2000/svg">
<g id="#beaca5ff">
<path fill="#beaca5" opacity="1.00" d=" M 77.46 21.00 C 75.03 20.40 76.75 18.89 78.04 18.24 C 79.60 19.49 80.96 20.96 82.38 22.37 C 82.82 23.42 83.27 24.46 83.72 25.51 C 84.93 25.55 86.14 25.61 87.35 25.67 C 86.88 26.22 85.94 27.31 85.46 27.85 C 85.51 28.74 85.59 30.52 85.64 31.41 L 86.69 31.40 C 86.63 35.62 86.64 39.83 86.65 44.05 C 88.20 44.68 88.75 46.21 89.17 47.69 C 88.40 47.67 86.85 47.62 86.07 47.60 C 84.38 50.96 81.89 54.12 81.49 57.96 C 82.55 58.64 82.98 59.67 82.78 61.05 C 83.06 61.36 83.61 61.99 83.89 62.31 C 86.79 62.63 88.29 65.51 90.01 67.50 L 91.30 67.55 C 89.93 64.43 92.67 67.56 93.59 67.78 L 93.72 68.48 C 94.44 68.53 95.87 68.62 96.58 68.67 C 96.54 66.96 96.53 65.25 96.54 63.53 L 95.32 63.67 C 95.45 62.27 95.57 60.87 95.70 59.47 L 94.24 59.67 C 94.35 59.22 94.55 58.32 94.66 57.87 C 93.01 56.84 89.24 56.42 90.74 53.71 C 92.07 53.03 93.21 54.17 94.33 54.73 C 96.20 56.79 97.82 54.78 97.91 52.63 L 96.15 52.58 C 96.35 51.62 96.57 50.67 96.84 49.73 C 98.51 48.73 99.66 50.60 100.67 51.59 C 100.69 52.18 100.74 53.36 100.76 53.95 C 103.53 55.21 102.48 58.40 102.65 60.80 C 102.16 61.09 101.19 61.66 100.70 61.94 C 100.64 63.64 100.86 65.51 99.55 66.83 C 99.58 68.45 99.64 70.07 99.73 71.68 C 97.93 71.63 96.14 71.62 94.35 71.64 L 94.38 70.54 C 92.70 70.59 91.03 70.62 89.36 70.68 L 89.38 69.19 C 87.13 70.07 85.01 71.46 82.54 71.66 C 82.80 74.35 82.52 77.04 81.28 79.48 C 83.45 79.13 85.62 79.40 86.04 81.91 C 86.82 83.56 87.68 85.17 88.59 86.75 C 88.91 90.46 88.26 94.07 87.34 97.63 C 87.94 97.55 89.13 97.39 89.73 97.30 C 89.73 98.60 89.73 99.89 89.74 101.18 C 88.74 100.86 87.81 100.40 86.95 99.82 C 86.09 99.72 84.37 99.54 83.51 99.44 L 83.84 100.79 C 82.31 100.73 80.78 100.70 79.24 100.68 C 79.38 100.11 79.66 98.96 79.79 98.39 C 79.19 98.52 77.98 98.77 77.38 98.89 C 77.47 97.41 77.57 95.92 77.66 94.44 L 76.39 94.69 C 76.48 92.69 76.52 90.68 76.54 88.68 C 75.23 89.92 73.94 91.18 72.63 92.42 C 71.45 92.51 70.36 92.88 69.38 93.52 C 67.03 93.60 64.68 93.60 62.34 93.67 L 62.59 92.56 C 60.70 92.74 58.29 92.84 58.21 90.28 C 57.75 90.43 56.84 90.73 56.38 90.89 L 56.57 89.36 L 54.46 89.40 C 54.52 90.71 54.56 92.03 54.58 93.35 C 52.55 95.00 54.03 97.19 55.13 98.83 C 53.62 98.70 52.10 98.58 50.58 98.46 L 50.92 99.66 C 49.40 100.15 47.89 100.63 46.35 101.05 L 46.90 99.47 C 44.33 99.69 41.74 99.74 39.16 99.79 C 40.30 98.69 41.46 97.60 42.60 96.50 C 42.49 93.18 42.54 89.86 42.46 86.55 C 43.28 85.32 44.08 84.09 45.00 82.94 C 44.43 86.31 44.51 89.76 45.29 93.09 C 46.35 92.29 47.41 91.50 48.47 90.71 C 48.37 89.96 48.28 89.21 48.20 88.46 C 51.04 86.36 50.93 83.00 49.80 79.98 C 48.55 80.67 47.30 81.35 46.07 82.09 C 47.09 80.97 48.02 79.56 49.66 79.31 L 49.59 77.42 L 48.26 77.67 C 48.38 76.87 48.63 75.26 48.75 74.46 L 47.22 74.66 C 47.36 74.09 47.63 72.96 47.76 72.39 C 46.91 72.48 45.20 72.67 44.35 72.77 L 44.56 71.18 C 42.94 71.72 41.34 72.33 39.70 72.81 L 39.75 73.70 C 37.97 73.63 36.19 73.59 34.42 73.57 C 33.30 72.32 32.20 71.05 31.15 69.75 C 29.61 69.81 28.62 68.86 28.04 67.52 C 27.59 67.59 26.69 67.72 26.24 67.79 C 26.37 67.21 26.65 66.05 26.78 65.47 C 24.97 65.55 23.17 65.61 21.36 65.69 L 21.45 64.13 C 20.06 65.76 18.52 66.04 17.08 64.47 C 17.56 64.16 18.53 63.52 19.01 63.20 C 19.30 65.64 22.12 63.32 20.36 62.10 L 19.89 61.43 L 21.98 61.60 C 21.73 60.37 21.61 59.13 21.62 57.89 C 22.62 57.62 23.62 57.38 24.62 57.16 L 24.62 58.68 C 25.04 58.60 25.88 58.44 26.30 58.36 C 26.92 61.05 29.51 58.45 30.93 58.11 C 30.65 59.99 29.95 61.77 29.20 63.51 L 30.30 63.42 C 31.06 64.76 31.91 66.06 32.80 67.33 C 34.85 67.22 35.88 69.05 37.11 70.34 C 39.07 70.84 40.73 68.92 42.53 68.36 C 42.89 67.34 43.23 66.32 43.57 65.30 C 44.50 64.51 45.43 63.70 46.59 63.27 C 46.56 61.69 46.54 60.11 46.53 58.54 L 45.24 58.65 C 45.33 58.23 45.52 57.40 45.61 56.98 C 44.03 56.07 42.29 54.98 42.28 52.93 C 40.57 52.25 40.12 50.82 40.65 49.10 C 42.66 51.64 44.43 54.47 47.18 56.30 C 48.50 53.29 50.07 50.38 52.12 47.79 C 51.04 46.77 49.95 45.76 48.87 44.74 C 49.30 43.90 49.72 43.06 50.15 42.22 C 49.43 42.17 47.98 42.07 47.26 42.03 C 45.86 38.97 44.09 36.03 43.19 32.77 C 42.57 31.14 44.20 30.13 44.99 28.96 C 44.27 28.97 42.84 29.01 42.12 29.03 C 41.96 26.85 41.77 24.68 41.50 22.51 L 41.48 22.34 C 41.80 22.00 42.44 21.32 42.76 20.98 C 42.75 23.53 42.75 26.09 42.69 28.64 C 43.44 28.57 44.93 28.42 45.68 28.35 C 45.73 28.85 45.83 29.85 45.89 30.35 L 44.50 30.83 C 44.42 31.05 44.27 31.50 44.19 31.73 L 44.43 32.30 C 44.56 32.94 44.80 34.24 44.92 34.88 C 46.20 36.99 47.40 39.17 47.92 41.60 C 48.65 41.54 50.11 41.44 50.84 41.38 C 50.72 42.56 50.61 43.74 50.49 44.91 C 51.18 45.54 52.56 46.80 53.25 47.43 C 58.43 43.72 64.79 44.58 70.76 44.41 L 70.50 45.75 C 71.42 45.61 73.27 45.33 74.20 45.19 C 75.08 43.68 74.66 41.58 72.95 40.90 C 74.13 40.77 75.32 40.65 76.51 40.53 C 76.42 39.31 76.74 38.24 77.46 37.30 C 77.20 34.30 78.12 31.46 78.80 28.59 C 77.84 28.60 75.91 28.62 74.94 28.63 C 75.51 27.50 76.08 26.27 77.62 26.38 C 77.56 24.59 77.52 22.80 77.46 21.00 M 78.00 19.79 C 77.92 22.15 78.04 24.53 78.68 26.82 C 77.66 27.13 76.64 27.43 75.62 27.73 C 76.51 27.81 78.30 27.98 79.19 28.06 C 78.44 32.27 78.46 36.76 76.75 40.72 C 76.36 40.91 75.59 41.30 75.21 41.49 C 75.12 42.55 75.03 43.62 74.94 44.68 C 71.12 48.02 74.01 53.34 77.52 55.60 C 78.62 56.43 79.79 55.28 80.38 54.41 C 84.64 47.22 87.11 38.36 84.49 30.14 C 83.73 28.69 84.35 27.51 85.60 26.58 C 81.79 26.15 80.79 21.84 78.00 19.79 M 54.55 47.49 C 53.63 49.53 51.95 51.45 51.91 53.75 C 53.59 55.57 55.60 57.05 57.31 58.84 C 53.75 58.35 53.59 63.85 56.90 64.10 L 56.50 63.35 L 56.15 62.75 C 57.30 59.63 61.47 61.77 63.81 62.09 C 65.65 65.09 67.76 68.43 67.15 72.11 C 65.40 72.81 63.44 71.80 61.60 72.06 C 61.86 72.27 62.37 72.69 62.63 72.90 C 66.43 73.35 70.67 74.92 74.10 72.43 C 72.03 72.17 69.87 72.49 67.87 71.85 C 68.74 69.86 71.82 71.21 73.60 70.53 C 78.96 69.56 78.81 62.93 79.81 58.73 C 75.23 57.20 72.18 53.26 71.07 48.65 C 71.37 47.83 71.68 47.01 71.98 46.19 C 66.26 44.34 59.95 44.90 54.55 47.49 M 86.03 45.22 C 84.29 45.53 85.42 47.80 86.82 47.18 C 88.57 46.94 87.35 44.66 86.03 45.22 M 100.20 55.21 C 99.44 56.18 100.64 58.11 101.86 57.64 C 102.72 56.68 101.42 54.68 100.20 55.21 M 52.80 59.68 C 54.41 59.36 53.41 57.14 52.87 56.23 C 52.71 57.36 50.17 60.39 52.80 59.68 M 22.21 58.08 C 22.45 61.35 25.18 56.52 22.21 58.08 M 81.38 61.95 C 81.13 64.10 80.85 66.24 80.44 68.37 C 83.01 68.38 85.54 67.89 87.94 66.94 C 86.25 64.68 84.14 62.77 81.38 61.95 M 61.34 63.12 C 61.52 66.02 64.01 61.77 61.34 63.12 M 54.64 66.73 C 55.59 67.79 56.18 67.55 56.40 66.01 C 55.37 64.95 54.79 65.19 54.64 66.73 M 62.20 66.34 C 63.28 67.42 64.13 67.43 64.76 66.35 C 63.70 65.29 62.85 65.29 62.20 66.34 M 54.47 68.26 C 53.57 70.40 55.80 71.94 55.57 69.03 C 56.17 68.98 57.37 68.88 57.97 68.83 L 57.99 68.40 C 56.82 68.36 55.64 68.32 54.47 68.26 M 61.34 69.50 C 62.69 69.73 64.11 69.43 65.49 69.70 C 65.05 69.31 64.19 68.53 63.76 68.14 C 62.36 67.91 61.55 68.36 61.34 69.50 M 56.09 75.60 C 56.96 76.65 58.94 76.81 60.20 76.39 L 60.24 75.82 C 58.91 75.20 57.53 75.12 56.09 75.60 M 81.42 80.03 C 81.26 82.70 80.97 85.37 80.36 87.98 C 82.73 89.03 85.34 88.74 87.86 88.63 C 85.99 85.66 85.67 80.40 81.42 80.03 M 41.43 98.82 C 42.47 99.52 43.51 99.52 44.54 98.83 C 45.50 96.50 40.42 96.51 41.43 98.82 M 47.28 99.70 C 48.20 100.59 49.79 99.42 49.63 98.28 C 49.16 96.19 46.17 98.25 47.28 99.70 M 80.19 98.32 C 79.19 99.68 81.56 101.04 82.56 99.98 C 83.48 98.67 81.17 97.25 80.19 98.32 M 85.45 98.26 C 85.47 99.60 87.97 99.97 89.00 99.45 C 89.45 97.73 86.47 97.47 85.45 98.26 Z" />
<path fill="#beaca5" opacity="1.00" d=" M 39.73 24.06 L 40.62 24.36 C 39.72 26.38 39.01 28.83 36.56 29.41 C 38.25 32.96 37.88 36.96 37.18 40.70 C 38.02 39.56 38.84 38.40 39.61 37.21 C 39.08 38.90 39.32 40.26 41.35 40.51 C 40.80 40.76 39.68 41.27 39.12 41.52 C 39.21 44.01 40.43 46.95 38.57 49.08 C 38.55 47.55 38.55 46.02 38.57 44.49 L 37.29 44.72 C 37.40 43.92 37.60 42.33 37.70 41.53 L 36.40 41.70 C 36.57 38.08 36.52 34.47 36.53 30.85 C 35.65 30.32 34.77 29.78 33.90 29.24 C 35.65 28.52 38.38 28.96 38.87 26.62 C 39.09 25.98 39.52 24.70 39.73 24.06 Z" />
<path fill="#beaca5" opacity="1.00" d=" M 79.04 37.43 C 80.16 36.80 81.69 37.50 82.54 38.31 C 82.29 39.89 78.43 39.17 79.04 37.43 Z" />
<path fill="#beaca5" opacity="1.00" d=" M 64.96 56.05 C 66.25 55.21 67.54 54.36 68.79 53.44 C 68.89 54.04 69.11 55.24 69.22 55.85 C 68.41 55.90 66.80 56.02 66.00 56.07 C 66.00 57.42 66.00 58.76 66.00 60.11 L 66.01 61.10 C 65.46 61.09 64.36 61.06 63.81 61.04 C 63.84 60.53 63.92 59.52 63.96 59.02 C 63.37 58.99 62.19 58.93 61.59 58.89 C 62.67 57.90 63.74 56.88 64.96 56.05 Z" />
</g>
<g id="#f2edf2ff">
<path fill="#f2edf2" opacity="1.00" d=" M 78.00 19.79 C 80.79 21.84 81.79 26.15 85.60 26.58 C 84.35 27.51 83.73 28.69 84.49 30.14 C 87.11 38.36 84.64 47.22 80.38 54.41 C 79.79 55.28 78.62 56.43 77.52 55.60 C 74.01 53.34 71.12 48.02 74.94 44.68 C 75.03 43.62 75.12 42.55 75.21 41.49 C 75.59 41.30 76.36 40.91 76.75 40.72 C 78.46 36.76 78.44 32.27 79.19 28.06 C 78.30 27.98 76.51 27.81 75.62 27.73 C 76.64 27.43 77.66 27.13 78.68 26.82 C 78.04 24.53 77.92 22.15 78.00 19.79 M 79.04 37.43 C 78.43 39.17 82.29 39.89 82.54 38.31 C 81.69 37.50 80.16 36.80 79.04 37.43 Z" />
<path fill="#f2edf2" opacity="1.00" d=" M 41.50 22.51 C 41.77 24.68 41.96 26.85 42.12 29.03 C 42.84 29.01 44.27 28.97 44.99 28.96 C 44.20 30.13 42.57 31.14 43.19 32.77 C 44.09 36.03 45.86 38.97 47.26 42.03 C 47.98 42.07 49.43 42.17 50.15 42.22 C 49.72 43.06 49.30 43.90 48.87 44.74 C 49.95 45.76 51.04 46.77 52.12 47.79 C 50.07 50.38 48.50 53.29 47.18 56.30 C 44.43 54.47 42.66 51.64 40.65 49.10 C 39.71 49.36 37.82 49.90 36.88 50.17 C 37.30 49.90 38.15 49.35 38.57 49.08 C 40.43 46.95 39.21 44.01 39.12 41.52 C 39.68 41.27 40.80 40.76 41.35 40.51 C 39.32 40.26 39.08 38.90 39.61 37.21 C 38.84 38.40 38.02 39.56 37.18 40.70 C 37.88 36.96 38.25 32.96 36.56 29.41 C 39.01 28.83 39.72 26.38 40.62 24.36 C 40.84 23.90 41.28 22.97 41.50 22.51 Z" />
<path fill="#f2edf2" opacity="1.00" d=" M 86.03 45.22 C 87.35 44.66 88.57 46.94 86.82 47.18 C 85.42 47.80 84.29 45.53 86.03 45.22 Z" />
<path fill="#f2edf2" opacity="1.00" d=" M 61.14 52.35 C 63.70 50.21 66.87 49.42 69.89 51.15 C 69.55 51.93 69.18 52.69 68.79 53.44 C 67.54 54.36 66.25 55.21 64.96 56.05 C 62.93 56.69 62.22 53.61 61.14 52.35 Z" />
<path fill="#f2edf2" opacity="1.00" d=" M 100.20 55.21 C 101.42 54.68 102.72 56.68 101.86 57.64 C 100.64 58.11 99.44 56.18 100.20 55.21 Z" />
<path fill="#f2edf2" opacity="1.00" d=" M 66.00 56.07 C 66.80 56.02 68.41 55.90 69.22 55.85 C 69.20 56.55 69.17 57.97 69.15 58.67 C 68.10 59.15 67.05 59.63 66.00 60.11 C 66.00 58.76 66.00 57.42 66.00 56.07 Z" />
<path fill="#f2edf2" opacity="1.00" d=" M 22.21 58.08 C 25.18 56.52 22.45 61.35 22.21 58.08 Z" />
<path fill="#f2edf2" opacity="1.00" d=" M 20.36 62.10 C 22.12 63.32 19.30 65.64 19.01 63.20 C 19.35 62.93 20.02 62.37 20.36 62.10 Z" />
<path fill="#f2edf2" opacity="1.00" d=" M 41.43 98.82 C 40.42 96.51 45.50 96.50 44.54 98.83 C 43.51 99.52 42.47 99.52 41.43 98.82 Z" />
<path fill="#f2edf2" opacity="1.00" d=" M 47.28 99.70 C 46.17 98.25 49.16 96.19 49.63 98.28 C 49.79 99.42 48.20 100.59 47.28 99.70 Z" />
<path fill="#f2edf2" opacity="1.00" d=" M 80.19 98.32 C 81.17 97.25 83.48 98.67 82.56 99.98 C 81.56 101.04 79.19 99.68 80.19 98.32 Z" />
<path fill="#f2edf2" opacity="1.00" d=" M 85.45 98.26 C 86.47 97.47 89.45 97.73 89.00 99.45 C 87.97 99.97 85.47 99.60 85.45 98.26 Z" />
</g>
<g id="#dfcdc6ff">
<path fill="#dfcdc6" opacity="1.00" d=" M 54.55 47.49 C 59.95 44.90 66.26 44.34 71.98 46.19 C 71.68 47.01 71.37 47.83 71.07 48.65 C 72.18 53.26 75.23 57.20 79.81 58.73 C 78.81 62.93 78.96 69.56 73.60 70.53 C 71.82 71.21 68.74 69.86 67.87 71.85 C 69.87 72.49 72.03 72.17 74.10 72.43 C 70.67 74.92 66.43 73.35 62.63 72.90 C 62.37 72.69 61.86 72.27 61.60 72.06 C 63.44 71.80 65.40 72.81 67.15 72.11 C 67.76 68.43 65.65 65.09 63.81 62.09 C 61.47 61.77 57.30 59.63 56.15 62.75 L 56.50 63.35 L 56.90 64.10 C 53.59 63.85 53.75 58.35 57.31 58.84 C 55.60 57.05 53.59 55.57 51.91 53.75 C 51.95 51.45 53.63 49.53 54.55 47.49 M 61.14 52.35 C 62.22 53.61 62.93 56.69 64.96 56.05 C 63.74 56.88 62.67 57.90 61.59 58.89 C 62.19 58.93 63.37 58.99 63.96 59.02 C 63.92 59.52 63.84 60.53 63.81 61.04 C 64.36 61.06 65.46 61.09 66.01 61.10 L 66.00 60.11 C 67.05 59.63 68.10 59.15 69.15 58.67 C 69.17 57.97 69.20 56.55 69.22 55.85 C 69.11 55.24 68.89 54.04 68.79 53.44 C 69.18 52.69 69.55 51.93 69.89 51.15 C 66.87 49.42 63.70 50.21 61.14 52.35 Z" />
<path fill="#dfcdc6" opacity="1.00" d=" M 81.38 61.95 C 84.14 62.77 86.25 64.68 87.94 66.94 C 85.54 67.89 83.01 68.38 80.44 68.37 C 80.85 66.24 81.13 64.10 81.38 61.95 Z" />
<path fill="#dfcdc6" opacity="1.00" d=" M 46.07 82.09 C 47.30 81.35 48.55 80.67 49.80 79.98 C 50.93 83.00 51.04 86.36 48.20 88.46 C 48.28 89.21 48.37 89.96 48.47 90.71 C 47.41 91.50 46.35 92.29 45.29 93.09 C 44.51 89.76 44.43 86.31 45.00 82.94 C 45.27 82.73 45.81 82.30 46.07 82.09 Z" />
<path fill="#dfcdc6" opacity="1.00" d=" M 81.42 80.03 C 85.67 80.40 85.99 85.66 87.86 88.63 C 85.34 88.74 82.73 89.03 80.36 87.98 C 80.97 85.37 81.26 82.70 81.42 80.03 Z" />
</g>
</svg>
