<?xml version="1.0" encoding="UTF-8" ?>
<!DOCTYPE svg PUBLIC "-//W3C//DTD SVG 1.1//EN" "http://www.w3.org/Graphics/SVG/1.1/DTD/svg11.dtd">
<svg width="120pt" height="120pt" viewBox="0 0 120 120" version="1.1" xmlns="http://www.w3.org/2000/svg">
<g id="#293746ff">
<path fill="#293746" opacity="1.00" d=" M 51.53 39.37 C 54.27 38.42 57.02 39.51 59.65 40.27 C 62.61 42.18 66.11 43.71 67.91 46.93 C 68.53 48.15 69.50 49.12 70.91 49.33 C 70.91 50.07 70.92 51.56 70.93 52.31 C 71.30 53.70 71.77 55.05 72.22 56.42 C 74.89 53.83 77.40 51.05 80.33 48.74 C 79.23 52.53 75.59 54.64 73.01 57.36 C 72.97 59.13 72.95 60.90 72.93 62.68 C 73.75 62.54 75.41 62.27 76.23 62.14 C 75.01 63.10 73.57 63.72 72.15 64.34 C 72.21 65.54 71.82 66.51 70.98 67.25 C 73.01 58.67 70.09 48.33 62.40 43.47 C 59.77 41.97 57.01 40.33 53.93 40.13 C 51.51 40.34 49.14 40.92 46.77 41.44 C 47.44 39.48 49.96 40.07 51.53 39.37 Z" />
</g>
<g id="#7da3ceff">
<path fill="#7da3ce" opacity="1.00" d=" M 46.77 41.44 C 49.14 40.92 51.51 40.34 53.93 40.13 C 57.01 40.33 59.77 41.97 62.40 43.47 C 62.33 46.69 63.77 50.63 61.27 53.26 C 60.18 54.81 58.17 54.31 56.59 54.32 C 55.04 53.54 53.47 52.80 51.95 51.99 C 52.02 51.49 52.18 50.49 52.25 49.99 C 53.19 50.33 54.13 50.63 55.09 50.92 L 55.52 51.05 C 57.05 51.09 58.58 51.13 60.11 51.16 C 61.52 51.14 62.12 50.38 61.93 48.86 C 61.91 48.37 61.89 47.39 61.88 46.90 C 60.77 45.57 59.71 44.21 58.68 42.83 C 56.59 42.96 54.43 43.07 52.57 44.12 C 51.79 45.30 51.03 46.49 50.24 47.66 C 49.03 48.06 47.85 48.53 46.64 48.95 L 46.09 48.97 L 45.35 48.86 C 46.25 46.53 48.38 43.88 45.88 41.80 C 46.10 41.71 46.55 41.53 46.77 41.44 Z" />
<path fill="#7da3ce" opacity="1.00" d=" M 40.84 70.76 C 41.22 70.71 42.00 70.63 42.39 70.59 C 42.70 70.91 43.31 71.55 43.62 71.87 L 43.81 72.63 C 43.13 72.48 41.79 72.18 41.11 72.02 C 41.04 71.71 40.91 71.07 40.84 70.76 Z" />
</g>
<g id="#4a4a4fff">
<path fill="#4a4a4f" opacity="1.00" d=" M 38.92 47.58 C 41.33 45.77 42.89 42.65 45.88 41.80 C 48.38 43.88 46.25 46.53 45.35 48.86 L 46.09 48.97 C 47.80 49.73 50.16 49.87 50.65 52.05 C 48.65 52.84 46.48 52.39 44.40 52.46 C 46.43 53.67 48.73 53.95 50.96 53.17 C 50.99 52.37 51.04 50.78 51.06 49.98 C 49.59 49.61 48.13 49.22 46.64 48.95 C 47.85 48.53 49.03 48.06 50.24 47.66 C 50.74 48.25 51.75 49.41 52.25 49.99 C 52.18 50.49 52.02 51.49 51.95 51.99 C 51.82 52.66 51.57 54.01 51.45 54.69 C 56.82 55.63 60.51 61.42 58.65 66.65 C 56.98 72.69 47.84 74.01 44.42 68.79 C 47.82 70.12 51.96 71.80 55.21 69.14 C 59.43 65.11 56.76 56.90 51.01 55.97 C 48.22 55.66 44.91 55.57 42.83 57.81 C 40.01 60.22 41.29 64.28 40.86 67.50 C 37.98 62.90 40.33 56.59 45.21 54.47 C 44.46 53.92 43.71 53.38 42.96 52.84 C 43.38 51.59 43.80 50.34 44.22 49.08 C 43.69 49.45 42.64 50.20 42.12 50.57 C 41.61 50.19 40.60 49.44 40.09 49.07 C 39.80 48.70 39.21 47.95 38.92 47.58 M 42.02 48.08 C 43.50 46.74 45.65 45.93 46.30 43.88 C 44.26 43.73 41.43 45.91 42.02 48.08 Z" />
</g>
<g id="#57554dff">
<path fill="#57554d" opacity="1.00" d=" M 52.57 44.12 C 54.43 43.07 56.59 42.96 58.68 42.83 C 59.71 44.21 60.77 45.57 61.88 46.90 C 61.02 47.21 59.31 47.84 58.46 48.15 C 57.81 46.77 57.18 45.39 56.55 44.00 C 55.91 44.00 54.62 44.00 53.98 44.00 C 53.97 44.44 53.95 45.31 53.94 45.75 C 56.08 45.84 57.51 47.32 58.79 48.85 C 57.70 49.58 56.61 50.32 55.52 51.05 L 55.09 50.92 C 53.35 49.06 52.94 46.54 52.57 44.12 Z" />
</g>
<g id="#343d43e4">
<path fill="#343d43" opacity="0.89" d=" M 72.91 47.37 C 74.13 44.74 76.50 42.25 79.68 42.95 C 81.26 44.65 82.73 46.46 84.00 48.41 C 84.01 50.91 84.01 53.42 84.00 55.92 L 83.30 56.05 C 83.60 51.94 82.63 47.73 79.65 44.74 L 78.84 44.20 C 78.28 44.14 77.14 44.01 76.57 43.94 C 75.38 45.12 74.16 46.26 72.91 47.37 Z" />
</g>
<g id="#dae0edff">
<path fill="#dae0ed" opacity="1.00" d=" M 42.02 48.08 C 41.43 45.91 44.26 43.73 46.30 43.88 C 45.65 45.93 43.50 46.74 42.02 48.08 Z" />
<path fill="#dae0ed" opacity="1.00" d=" M 53.98 44.00 C 54.62 44.00 55.91 44.00 56.55 44.00 C 57.18 45.39 57.81 46.77 58.46 48.15 C 59.31 47.84 61.02 47.21 61.88 46.90 C 61.89 47.39 61.91 48.37 61.93 48.86 C 60.64 49.17 60.04 49.93 60.11 51.16 C 58.58 51.13 57.05 51.09 55.52 51.05 C 56.61 50.32 57.70 49.58 58.79 48.85 C 57.51 47.32 56.08 45.84 53.94 45.75 C 53.95 45.31 53.97 44.44 53.98 44.00 M 59.23 48.23 C 59.82 48.82 59.82 48.82 59.23 48.23 Z" />
<path fill="#dae0ed" opacity="1.00" d=" M 79.65 44.74 C 82.63 47.73 83.60 51.94 83.30 56.05 C 82.49 56.79 81.60 57.41 80.63 57.90 C 79.21 58.46 77.56 59.04 77.04 60.64 C 76.84 61.02 76.44 61.76 76.23 62.14 C 75.41 62.27 73.75 62.54 72.93 62.68 C 72.95 60.90 72.97 59.13 73.01 57.36 C 75.59 54.64 79.23 52.53 80.33 48.74 C 77.40 51.05 74.89 53.83 72.22 56.42 C 71.77 55.05 71.30 53.70 70.93 52.31 C 73.59 49.52 76.51 46.99 79.65 44.74 Z" />
<path fill="#dae0ed" opacity="1.00" d=" M 46.09 48.97 L 46.64 48.95 C 48.13 49.22 49.59 49.61 51.06 49.98 C 51.04 50.78 50.99 52.37 50.96 53.17 C 48.73 53.95 46.43 53.67 44.40 52.46 C 46.48 52.39 48.65 52.84 50.65 52.05 C 50.16 49.87 47.80 49.73 46.09 48.97 Z" />
<path fill="#dae0ed" opacity="1.00" d=" M 51.95 51.99 C 53.47 52.80 55.04 53.54 56.59 54.32 C 57.45 55.02 58.30 55.73 59.13 56.46 C 59.22 56.57 59.38 56.80 59.47 56.91 C 59.98 57.99 60.50 59.07 61.01 60.15 C 61.07 60.63 61.17 61.61 61.22 62.10 C 61.14 64.72 60.68 67.31 59.80 69.79 C 58.01 71.57 55.90 73.12 53.44 73.82 C 50.19 73.86 46.85 73.95 43.81 72.63 L 43.62 71.87 C 46.03 71.99 44.11 69.63 42.71 70.02 L 42.36 69.50 L 41.87 69.59 C 41.82 69.13 41.73 68.21 41.68 67.75 L 40.86 67.50 C 41.29 64.28 40.01 60.22 42.83 57.81 C 44.91 55.57 48.22 55.66 51.01 55.97 C 56.76 56.90 59.43 65.11 55.21 69.14 C 51.96 71.80 47.82 70.12 44.42 68.79 L 44.45 68.55 L 44.19 68.58 C 43.88 65.65 42.59 61.58 45.82 59.76 C 49.56 56.87 55.86 61.98 53.04 66.09 C 51.20 69.68 44.72 67.22 46.22 63.36 C 47.41 61.14 49.80 62.13 50.99 63.76 C 49.87 64.56 48.76 65.37 47.65 66.19 C 49.68 66.48 52.93 65.78 51.89 63.00 C 50.72 59.72 46.51 60.80 44.65 62.84 C 44.56 65.95 46.49 69.47 50.05 69.08 C 54.58 69.75 56.68 63.89 54.35 60.60 C 51.91 56.29 44.01 56.66 42.57 61.67 C 41.42 64.06 42.46 66.79 44.19 68.58 C 44.25 68.64 44.36 68.74 44.42 68.79 C 47.84 74.01 56.98 72.69 58.65 66.65 C 60.51 61.42 56.82 55.63 51.45 54.69 C 51.57 54.01 51.82 52.66 51.95 51.99 Z" />
<path fill="#dae0ed" opacity="1.00" d=" M 42.96 52.84 C 43.71 53.38 44.46 53.92 45.21 54.47 C 40.33 56.59 37.98 62.90 40.86 67.50 C 41.12 68.02 41.62 69.07 41.87 69.59 C 42.08 69.70 42.50 69.91 42.71 70.02 L 42.39 70.59 C 42.00 70.63 41.22 70.71 40.84 70.76 C 40.70 70.62 40.42 70.36 40.28 70.22 C 39.67 67.80 38.53 65.54 38.01 63.10 C 37.52 60.04 38.84 57.11 40.69 54.75 C 40.71 54.73 40.75 54.68 40.77 54.66 C 41.32 54.20 42.42 53.30 42.96 52.84 Z" />
</g>
<g id="#5881b8ff">
<path fill="#5881b8" opacity="1.00" d=" M 62.40 43.47 C 70.09 48.33 73.01 58.67 70.98 67.25 L 70.08 67.46 C 66.81 68.20 64.14 70.41 61.05 71.62 C 60.74 71.16 60.12 70.25 59.80 69.79 C 60.68 67.31 61.14 64.72 61.22 62.10 C 62.57 61.31 62.50 60.66 61.01 60.15 C 60.50 59.07 59.98 57.99 59.47 56.91 L 59.34 56.64 L 59.13 56.46 C 58.30 55.73 57.45 55.02 56.59 54.32 C 58.17 54.31 60.18 54.81 61.27 53.26 C 63.77 50.63 62.33 46.69 62.40 43.47 Z" />
<path fill="#5881b8" opacity="1.00" d=" M 38.92 47.58 C 39.21 47.95 39.80 48.70 40.09 49.07 C 40.14 49.57 40.25 50.56 40.30 51.06 C 40.33 51.20 40.39 51.49 40.42 51.63 L 40.77 51.43 C 41.11 51.21 41.78 50.78 42.12 50.57 C 42.64 50.20 43.69 49.45 44.22 49.08 C 43.80 50.34 43.38 51.59 42.96 52.84 C 42.42 53.30 41.32 54.20 40.77 54.66 L 40.72 54.70 L 40.69 54.75 C 38.84 57.11 37.52 60.04 38.01 63.10 C 38.53 65.54 39.67 67.80 40.28 70.22 C 33.87 65.33 35.96 56.25 38.15 49.70 C 38.34 49.17 38.72 48.11 38.92 47.58 Z" />
<path fill="#5881b8" opacity="1.00" d=" M 38.16 77.13 C 41.75 77.00 45.34 77.23 48.94 77.30 C 48.91 77.61 48.87 78.23 48.84 78.54 C 44.23 78.39 38.96 81.60 35.03 77.94 C 35.81 77.74 37.37 77.34 38.16 77.13 Z" />
</g>
<g id="#fafcffff">
<path fill="#fafcff" opacity="1.00" d=" M 76.57 43.94 C 77.14 44.01 78.28 44.14 78.84 44.20 L 79.65 44.74 C 76.51 46.99 73.59 49.52 70.93 52.31 C 70.92 51.56 70.91 50.07 70.91 49.33 C 71.56 48.66 72.23 48.01 72.91 47.37 C 74.16 46.26 75.38 45.12 76.57 43.94 Z" />
</g>
<g id="#a8cae8ff">
<path fill="#a8cae8" opacity="1.00" d=" M 50.24 47.66 C 51.03 46.49 51.79 45.30 52.57 44.12 C 52.94 46.54 53.35 49.06 55.09 50.92 C 54.13 50.63 53.19 50.33 52.25 49.99 C 51.75 49.41 50.74 48.25 50.24 47.66 Z" />
</g>
<g id="#436390ff">
<path fill="#436390" opacity="1.00" d=" M 59.23 48.23 C 59.82 48.82 59.82 48.82 59.23 48.23 Z" />
<path fill="#436390" opacity="1.00" d=" M 61.05 71.62 C 64.14 70.41 66.81 68.20 70.08 67.46 L 71.28 67.53 C 70.19 70.75 67.64 72.77 64.82 74.39 C 64.54 74.59 63.97 75.00 63.69 75.21 C 58.24 75.65 52.37 77.53 47.15 75.08 C 49.25 74.70 51.37 74.40 53.44 73.82 C 55.90 73.12 58.01 71.57 59.80 69.79 C 60.12 70.25 60.74 71.16 61.05 71.62 Z" />
</g>
<g id="#e5e5e5ff">
<path fill="#e5e5e5" opacity="1.00" d=" M 40.09 49.07 C 40.60 49.44 41.61 50.19 42.12 50.57 C 41.78 50.78 41.11 51.21 40.77 51.43 L 40.30 51.06 C 40.25 50.56 40.14 49.57 40.09 49.07 Z" />
</g>
<g id="#1c2c3dfd">
<path fill="#1c2c3d" opacity="1.00" d=" M 35.05 64.11 C 34.91 59.29 34.82 53.52 38.15 49.70 C 35.96 56.25 33.87 65.33 40.28 70.22 C 40.42 70.36 40.70 70.62 40.84 70.76 C 40.91 71.07 41.04 71.71 41.11 72.02 C 41.79 72.18 43.13 72.48 43.81 72.63 C 46.85 73.95 50.19 73.86 53.44 73.82 C 51.37 74.40 49.25 74.70 47.15 75.08 C 52.37 77.53 58.24 75.65 63.69 75.21 C 63.97 75.00 64.54 74.59 64.82 74.39 C 65.85 75.37 66.89 76.36 67.93 77.34 C 67.97 78.56 68.00 79.78 68.03 81.00 C 64.62 81.00 61.21 81.01 57.80 80.96 C 57.99 79.53 58.32 78.13 59.15 76.93 C 56.11 77.01 53.06 76.98 50.02 76.99 C 50.01 77.73 50.00 79.21 49.99 79.96 C 49.38 80.00 48.16 80.09 47.55 80.13 C 44.73 81.87 41.13 80.74 37.99 80.99 C 36.10 81.43 34.77 79.69 35.03 77.94 C 38.96 81.60 44.23 78.39 48.84 78.54 C 48.87 78.23 48.91 77.61 48.94 77.30 C 45.34 77.23 41.75 77.00 38.16 77.13 L 38.15 76.00 C 40.24 76.03 42.33 76.04 44.41 75.94 C 40.36 72.92 35.78 69.50 35.05 64.11 M 59.83 79.01 C 59.57 79.18 59.05 79.54 58.79 79.72 C 61.49 80.05 64.25 80.26 66.95 79.75 C 68.12 76.78 63.81 76.61 61.89 77.00 C 60.20 76.67 59.51 77.34 59.83 79.01 Z" />
</g>
<g id="#1a3152ff">
<path fill="#1a3152" opacity="1.00" d=" M 40.30 51.06 L 40.77 51.43 L 40.42 51.63 C 40.39 51.49 40.33 51.20 40.30 51.06 Z" />
</g>
<g id="#3b5274ff">
<path fill="#3b5274" opacity="1.00" d=" M 40.72 54.70 L 40.77 54.66 C 40.75 54.68 40.71 54.73 40.69 54.75 L 40.72 54.70 Z" />
</g>
<g id="#384f6eff">
<path fill="#384f6e" opacity="1.00" d=" M 59.13 56.46 L 59.34 56.64 L 59.47 56.91 C 59.38 56.80 59.22 56.57 59.13 56.46 Z" />
</g>
<g id="#565658ff">
<path fill="#565658" opacity="1.00" d=" M 42.57 61.67 C 44.01 56.66 51.91 56.29 54.35 60.60 C 56.68 63.89 54.58 69.75 50.05 69.08 C 46.49 69.47 44.56 65.95 44.65 62.84 C 46.51 60.80 50.72 59.72 51.89 63.00 C 52.93 65.78 49.68 66.48 47.65 66.19 C 48.76 65.37 49.87 64.56 50.99 63.76 C 49.80 62.13 47.41 61.14 46.22 63.36 C 44.72 67.22 51.20 69.68 53.04 66.09 C 55.86 61.98 49.56 56.87 45.82 59.76 C 42.59 61.58 43.88 65.65 44.19 68.58 C 42.46 66.79 41.42 64.06 42.57 61.67 Z" />
</g>
<g id="#82868eff">
<path fill="#82868e" opacity="1.00" d=" M 77.04 60.64 C 77.56 59.04 79.21 58.46 80.63 57.90 C 81.27 59.51 78.49 61.87 77.04 60.64 Z" />
</g>
<g id="#3e5470ff">
<path fill="#3e5470" opacity="1.00" d=" M 61.01 60.15 C 62.50 60.66 62.57 61.31 61.22 62.10 C 61.17 61.61 61.07 60.63 61.01 60.15 Z" />
</g>
<g id="#4c4d4eff">
<path fill="#4c4d4e" opacity="1.00" d=" M 40.86 67.50 L 41.68 67.75 C 41.73 68.21 41.82 69.13 41.87 69.59 C 41.62 69.07 41.12 68.02 40.86 67.50 Z" />
</g>
<g id="#363636ff">
<path fill="#363636" opacity="1.00" d=" M 44.19 68.58 L 44.45 68.55 L 44.42 68.79 C 44.36 68.74 44.25 68.64 44.19 68.58 Z" />
</g>
<g id="#496894ff">
<path fill="#496894" opacity="1.00" d=" M 40.28 70.22 C 40.42 70.36 40.70 70.62 40.84 70.76 C 40.70 70.62 40.42 70.36 40.28 70.22 Z" />
</g>
<g id="#81a4cfff">
<path fill="#81a4cf" opacity="1.00" d=" M 59.83 79.01 C 59.51 77.34 60.20 76.67 61.89 77.00 C 61.62 78.03 60.94 78.70 59.83 79.01 Z" />
</g>
<g id="#5b7fb0ff">
<path fill="#5b7fb0" opacity="1.00" d=" M 61.89 77.00 C 63.81 76.61 68.12 76.78 66.95 79.75 C 64.25 80.26 61.49 80.05 58.79 79.72 C 59.05 79.54 59.57 79.18 59.83 79.01 C 60.94 78.70 61.62 78.03 61.89 77.00 Z" />
</g>
</svg>
