<?xml version="1.0" encoding="UTF-8" ?>
<!DOCTYPE svg PUBLIC "-//W3C//DTD SVG 1.1//EN" "http://www.w3.org/Graphics/SVG/1.1/DTD/svg11.dtd">
<svg width="120pt" height="120pt" viewBox="0 0 120 120" version="1.1" xmlns="http://www.w3.org/2000/svg">
<g id="#29323cff">
<path fill="#29323c" opacity="1.00" d=" M 72.40 25.28 C 73.51 25.65 74.62 25.99 75.76 26.21 C 76.85 27.31 77.76 28.55 78.44 29.93 C 78.94 30.01 79.94 30.17 80.44 30.25 C 81.45 30.62 82.47 30.98 83.49 31.33 C 87.95 32.97 91.77 35.74 94.85 39.33 C 94.94 39.88 95.10 40.96 95.19 41.51 C 95.59 42.49 96.00 43.48 96.41 44.46 C 96.86 45.73 96.94 47.07 97.01 48.40 C 95.71 49.62 96.07 51.44 95.87 53.01 L 94.78 53.00 C 96.86 47.52 95.20 40.97 90.81 37.12 C 87.57 34.13 83.32 32.69 79.31 31.07 C 78.62 32.92 77.91 34.77 77.01 36.54 C 76.97 34.76 76.85 32.98 76.71 31.21 C 72.21 30.54 71.26 35.86 71.50 39.22 C 72.80 39.29 74.10 39.37 75.41 39.45 C 78.67 40.85 81.94 42.43 85.52 42.81 C 87.14 44.12 88.79 45.39 90.41 46.70 C 91.86 49.35 91.94 52.38 91.88 55.32 L 91.90 56.43 C 91.85 58.17 92.41 60.12 91.14 61.59 C 91.09 62.19 90.98 63.38 90.93 63.98 L 89.90 64.07 C 90.46 61.48 91.32 58.84 90.54 56.19 C 91.60 52.86 91.04 49.39 88.72 46.74 C 83.11 42.81 76.33 41.06 69.74 39.55 C 70.17 38.08 70.65 36.62 71.10 35.15 C 70.54 35.94 69.42 37.52 68.86 38.30 C 68.67 38.21 68.30 38.03 68.12 37.94 C 68.08 37.44 68.01 36.45 67.97 35.96 C 70.63 34.78 72.13 32.23 73.76 29.98 C 74.98 30.22 76.18 30.52 77.39 30.80 C 76.54 29.62 75.67 28.45 74.81 27.29 C 73.36 27.23 71.91 27.19 70.47 27.08 C 69.97 27.04 68.98 26.95 68.49 26.90 L 67.51 26.34 C 69.13 26.02 70.96 26.25 72.40 25.28 Z" />
<path fill="#29323c" opacity="1.00" d=" M 46.00 28.03 C 47.52 28.05 49.04 28.07 50.56 28.09 C 51.53 28.72 52.49 29.36 53.44 30.00 C 55.83 29.92 58.51 30.67 60.60 29.16 C 62.41 29.08 64.21 29.06 66.02 29.05 C 65.29 31.05 64.79 33.13 64.43 35.23 C 64.41 33.44 64.52 31.66 64.64 29.89 C 63.40 30.06 62.17 30.24 60.94 30.42 L 60.20 30.52 C 59.91 30.55 59.33 30.63 59.04 30.66 C 57.77 30.83 56.50 31.02 55.24 31.24 C 55.02 31.49 54.58 31.99 54.36 32.23 C 52.30 30.74 50.16 29.19 47.57 28.86 C 47.19 28.90 46.45 29.00 46.07 29.04 L 46.00 28.03 Z" />
<path fill="#29323c" opacity="1.00" d=" M 40.22 37.33 C 41.53 35.09 41.61 32.01 44.19 30.70 C 43.60 31.81 43.01 32.92 42.42 34.04 C 45.50 32.50 46.91 36.69 49.69 37.15 C 49.84 37.61 50.14 38.54 50.29 39.00 C 49.74 38.73 48.64 38.19 48.09 37.93 C 48.51 39.18 48.92 40.43 49.34 41.69 C 47.92 40.57 46.86 39.15 46.68 37.31 C 45.88 36.19 45.07 35.07 44.26 33.96 C 41.86 35.27 42.86 37.60 43.61 39.54 L 44.03 40.54 C 43.15 39.67 42.24 38.81 41.34 37.96 C 39.79 38.80 38.21 39.61 36.63 40.40 C 37.79 39.35 39.07 38.41 40.22 37.33 Z" />
<path fill="#29323c" opacity="1.00" d=" M 85.51 41.87 C 85.51 41.76 85.50 41.55 85.50 41.44 L 85.51 41.87 Z" />
<path fill="#29323c" opacity="1.00" d=" M 57.28 44.15 C 57.81 44.68 57.81 44.68 57.28 44.15 Z" />
<path fill="#29323c" opacity="1.00" d=" M 22.11 53.55 C 23.51 51.87 24.50 49.76 26.46 48.63 C 25.17 50.90 23.16 53.04 23.12 55.79 C 23.02 57.89 23.00 59.98 22.98 62.08 C 27.49 64.34 32.29 66.13 37.37 66.51 C 35.12 67.25 32.65 67.30 30.45 66.36 C 29.47 66.02 28.49 65.67 27.51 65.34 C 25.63 64.69 23.51 64.23 22.14 62.66 C 21.89 59.63 22.07 56.59 22.11 53.55 Z" />
<path fill="#29323c" opacity="1.00" d=" M 84.20 75.19 C 84.40 74.91 84.79 74.33 84.99 74.04 C 85.03 74.64 85.11 75.84 85.15 76.43 C 86.86 79.67 85.66 83.54 85.98 87.04 C 86.62 87.04 87.91 87.04 88.56 87.03 C 90.09 88.06 91.58 89.14 93.02 90.29 C 93.01 91.52 93.00 92.75 92.99 93.99 C 88.50 93.61 83.74 94.84 79.44 93.26 C 75.83 93.89 73.62 90.39 75.75 87.41 C 75.99 86.04 76.24 84.66 76.85 83.39 C 75.86 81.59 75.04 79.66 73.71 78.09 C 69.17 77.80 64.61 78.10 60.07 77.94 L 60.65 77.30 C 65.38 76.87 70.13 77.13 74.87 77.12 C 75.90 79.04 76.92 80.98 77.91 82.92 C 77.11 85.62 76.40 88.35 75.72 91.08 C 78.33 91.84 80.97 92.56 83.68 92.91 C 86.77 93.20 89.90 93.05 92.90 92.20 C 91.03 90.28 88.88 88.55 86.24 87.85 C 85.85 87.73 85.07 87.50 84.68 87.38 C 82.97 87.64 81.24 87.84 79.52 88.02 C 81.36 87.26 83.23 86.57 85.10 85.90 C 85.22 82.30 84.50 78.76 84.20 75.19 Z" />
<path fill="#29323c" opacity="1.00" d=" M 55.76 92.51 C 56.07 89.77 53.91 86.42 55.89 84.13 C 55.96 85.56 56.03 87.00 56.14 88.44 C 57.04 89.63 57.22 91.15 56.95 92.59 C 55.77 94.50 53.11 93.66 51.44 94.87 C 47.95 95.07 44.45 94.98 40.95 94.98 C 41.25 93.60 40.51 91.65 42.04 90.78 C 42.02 91.40 41.99 92.64 41.98 93.26 C 44.97 94.19 48.14 93.95 51.18 93.45 C 52.72 93.20 54.26 92.92 55.76 92.51 Z" />
</g>
<g id="#5881b8ff">
<path fill="#5881b8" opacity="1.00" d=" M 68.49 26.90 C 68.98 26.95 69.97 27.04 70.47 27.08 C 70.46 27.71 70.44 28.97 70.43 29.60 C 69.05 30.09 66.69 31.00 67.19 32.85 C 69.09 33.35 70.00 30.89 70.91 29.66 C 71.62 29.74 73.05 29.90 73.76 29.98 C 72.13 32.23 70.63 34.78 67.97 35.96 C 68.01 36.45 68.08 37.44 68.12 37.94 C 67.97 38.12 67.68 38.49 67.54 38.68 C 65.71 38.49 64.94 36.74 64.43 35.23 C 64.79 33.13 65.29 31.05 66.02 29.05 C 66.57 28.01 67.40 27.30 68.49 26.90 M 66.14 34.39 C 65.27 35.65 65.50 36.38 66.82 36.59 C 67.68 35.33 67.45 34.60 66.14 34.39 Z" />
<path fill="#5881b8" opacity="1.00" d=" M 46.07 29.04 C 46.45 29.00 47.19 28.90 47.57 28.86 C 47.72 30.14 48.04 31.37 48.54 32.54 C 49.23 34.38 53.54 37.95 50.29 39.00 C 50.14 38.54 49.84 37.61 49.69 37.15 C 46.91 36.69 45.50 32.50 42.42 34.04 C 43.01 32.92 43.60 31.81 44.19 30.70 C 44.69 29.99 45.31 29.44 46.07 29.04 M 46.26 32.40 C 46.79 32.87 46.79 32.87 46.26 32.40 Z" />
<path fill="#5881b8" opacity="1.00" d=" M 55.24 31.24 C 56.50 31.02 57.77 30.83 59.04 30.66 C 59.33 30.63 59.91 30.55 60.20 30.52 C 60.61 30.75 61.42 31.20 61.82 31.43 C 60.16 33.65 57.97 35.94 58.28 38.95 C 57.97 42.43 59.47 45.60 61.19 48.51 L 61.56 49.30 L 61.52 49.30 C 58.16 48.62 54.71 48.95 51.33 48.50 C 49.51 47.38 48.24 45.20 45.97 44.99 C 42.00 44.55 37.99 44.85 34.01 44.85 C 34.36 43.86 34.72 42.89 35.10 41.91 C 35.46 41.26 35.97 40.76 36.63 40.40 C 38.21 39.61 39.79 38.80 41.34 37.96 C 42.24 38.81 43.15 39.67 44.03 40.54 C 44.62 41.15 45.22 41.76 45.83 42.35 L 46.19 42.68 C 47.74 42.78 49.30 42.83 50.85 42.80 C 51.64 42.13 52.29 41.34 52.81 40.43 C 52.61 38.71 52.33 36.99 51.68 35.38 C 52.58 34.33 53.46 33.28 54.36 32.23 C 54.58 31.99 55.02 31.49 55.24 31.24 M 57.28 44.15 C 57.81 44.68 57.81 44.68 57.28 44.15 Z" />
<path fill="#5881b8" opacity="1.00" d=" M 79.31 31.07 C 83.32 32.69 87.57 34.13 90.81 37.12 C 95.20 40.97 96.86 47.52 94.78 53.00 C 94.19 54.38 92.83 55.28 91.90 56.43 L 91.88 55.32 C 91.94 52.38 91.86 49.35 90.41 46.70 C 90.93 42.55 90.14 36.91 85.31 35.85 C 85.34 37.71 85.43 39.57 85.50 41.44 C 85.50 41.55 85.51 41.76 85.51 41.87 L 85.52 42.81 C 81.94 42.43 78.67 40.85 75.41 39.45 C 75.97 38.49 76.50 37.52 77.01 36.54 C 77.91 34.77 78.62 32.92 79.31 31.07 Z" />
<path fill="#5881b8" opacity="1.00" d=" M 90.54 56.19 C 91.32 58.84 90.46 61.48 89.90 64.07 C 89.82 64.46 89.67 65.25 89.59 65.64 L 89.04 65.87 C 86.34 67.03 83.57 68.05 80.83 69.13 C 81.75 67.93 82.66 66.71 83.50 65.45 L 84.32 64.22 C 84.94 63.20 85.50 62.15 86.08 61.10 C 88.00 59.88 90.33 58.81 90.54 56.19 Z" />
<path fill="#5881b8" opacity="1.00" d=" M 44.15 89.12 C 45.46 88.82 46.77 88.51 48.08 88.20 C 49.24 89.19 50.40 90.19 51.56 91.19 C 51.46 91.75 51.28 92.89 51.18 93.45 C 48.14 93.95 44.97 94.19 41.98 93.26 C 41.99 92.64 42.02 91.40 42.04 90.78 C 42.38 90.41 43.05 89.66 43.39 89.29 L 44.15 89.12 Z" />
<path fill="#5881b8" opacity="1.00" d=" M 86.24 87.85 C 88.88 88.55 91.03 90.28 92.90 92.20 C 89.90 93.05 86.77 93.20 83.68 92.91 C 83.61 92.07 83.54 91.23 83.48 90.39 C 84.39 89.54 85.31 88.69 86.24 87.85 Z" />
</g>
<g id="#c6ccd7ff">
<path fill="#c6ccd7" opacity="1.00" d=" M 70.47 27.08 C 71.91 27.19 73.36 27.23 74.81 27.29 C 75.67 28.45 76.54 29.62 77.39 30.80 C 76.18 30.52 74.98 30.22 73.76 29.98 C 73.05 29.90 71.62 29.74 70.91 29.66 L 70.43 29.60 C 70.44 28.97 70.46 27.71 70.47 27.08 Z" />
<path fill="#c6ccd7" opacity="1.00" d=" M 42.83 56.89 C 43.88 57.37 44.92 57.85 45.97 58.32 C 45.55 59.25 45.13 60.19 44.72 61.13 C 44.21 60.55 43.70 59.97 43.20 59.39 C 43.11 58.77 42.92 57.52 42.83 56.89 Z" />
</g>
<g id="#799fccff">
<path fill="#799fcc" opacity="1.00" d=" M 47.57 28.86 C 50.16 29.19 52.30 30.74 54.36 32.23 C 53.46 33.28 52.58 34.33 51.68 35.38 C 50.65 34.41 49.55 33.52 48.54 32.54 C 48.04 31.37 47.72 30.14 47.57 28.86 Z" />
<path fill="#799fcc" opacity="1.00" d=" M 60.94 30.42 C 62.17 30.24 63.40 30.06 64.64 29.89 C 64.52 31.66 64.41 33.44 64.43 35.23 C 64.94 36.74 65.71 38.49 67.54 38.68 L 67.88 39.05 C 67.71 39.28 67.36 39.74 67.18 39.98 C 64.79 42.52 62.19 45.03 61.19 48.51 C 59.47 45.60 57.97 42.43 58.28 38.95 C 57.97 35.94 60.16 33.65 61.82 31.43 C 61.42 31.20 60.61 30.75 60.20 30.52 L 60.94 30.42 M 60.18 43.09 C 59.68 44.73 60.23 45.33 61.83 44.89 C 62.33 43.25 61.78 42.65 60.18 43.09 Z" />
<path fill="#799fcc" opacity="1.00" d=" M 85.31 35.85 C 90.14 36.91 90.93 42.55 90.41 46.70 C 88.79 45.39 87.14 44.12 85.52 42.81 L 85.51 41.87 L 85.50 41.44 C 85.43 39.57 85.34 37.71 85.31 35.85 Z" />
</g>
<g id="#436390ff">
<path fill="#436390" opacity="1.00" d=" M 67.19 32.85 C 66.69 31.00 69.05 30.09 70.43 29.60 L 70.91 29.66 C 70.00 30.89 69.09 33.35 67.19 32.85 Z" />
<path fill="#436390" opacity="1.00" d=" M 46.26 32.40 C 46.79 32.87 46.79 32.87 46.26 32.40 Z" />
<path fill="#436390" opacity="1.00" d=" M 66.14 34.39 C 67.45 34.60 67.68 35.33 66.82 36.59 C 65.50 36.38 65.27 35.65 66.14 34.39 Z" />
<path fill="#436390" opacity="1.00" d=" M 67.88 39.05 C 68.74 39.54 69.59 40.05 70.43 40.57 C 69.04 41.15 67.65 41.75 66.27 42.36 C 63.59 44.75 62.63 48.22 62.94 51.72 C 64.29 52.51 65.64 53.30 66.97 54.10 C 65.10 50.12 66.55 44.85 71.16 43.72 C 72.63 43.43 74.10 43.15 75.58 42.88 C 73.54 43.95 71.48 44.97 69.39 45.92 C 69.09 45.95 68.49 46.01 68.19 46.03 C 67.01 48.88 67.41 51.77 69.14 54.29 C 72.17 53.52 75.20 52.63 78.34 52.57 C 77.63 52.87 76.20 53.49 75.49 53.79 C 75.02 53.90 74.07 54.12 73.60 54.23 C 72.48 54.63 71.36 55.04 70.25 55.46 L 69.22 56.09 C 68.52 59.01 69.75 61.75 71.17 64.24 C 78.17 63.26 85.37 61.31 90.54 56.19 C 90.33 58.81 88.00 59.88 86.08 61.10 C 85.50 62.15 84.94 63.20 84.32 64.22 L 83.50 65.45 C 83.71 64.59 84.12 62.86 84.33 62.00 C 83.10 62.48 81.87 62.95 80.63 63.42 C 80.65 66.01 80.12 68.55 78.17 70.46 C 77.68 68.29 79.94 65.04 77.48 63.49 C 76.94 66.07 77.16 69.15 75.02 71.07 C 73.40 72.88 70.82 73.12 68.68 73.97 C 73.15 73.71 77.31 71.84 80.83 69.13 C 83.57 68.05 86.34 67.03 89.04 65.87 C 88.26 68.50 87.01 70.96 85.59 73.30 L 84.99 74.04 C 84.79 74.33 84.40 74.91 84.20 75.19 C 84.50 78.76 85.22 82.30 85.10 85.90 C 83.23 86.57 81.36 87.26 79.52 88.02 C 81.24 87.84 82.97 87.64 84.68 87.38 C 85.07 87.50 85.85 87.73 86.24 87.85 C 85.31 88.69 84.39 89.54 83.48 90.39 C 83.54 91.23 83.61 92.07 83.68 92.91 C 80.97 92.56 78.33 91.84 75.72 91.08 C 76.40 88.35 77.11 85.62 77.91 82.92 C 76.92 80.98 75.90 79.04 74.87 77.12 C 70.13 77.13 65.38 76.87 60.65 77.30 L 60.07 77.94 C 59.11 79.03 58.29 80.26 57.54 81.51 C 57.29 82.00 56.80 83.00 56.55 83.50 L 55.89 84.13 C 53.91 86.42 56.07 89.77 55.76 92.51 C 54.26 92.92 52.72 93.20 51.18 93.45 C 51.28 92.89 51.46 91.75 51.56 91.19 C 50.40 90.19 49.24 89.19 48.08 88.20 C 46.77 88.51 45.46 88.82 44.15 89.12 L 43.91 88.49 C 47.21 88.88 45.83 85.08 47.06 83.18 C 47.16 80.43 47.86 77.75 49.17 75.32 C 47.61 72.75 45.64 70.38 43.01 68.85 C 41.93 68.35 41.35 67.34 40.95 66.28 C 40.01 65.29 39.03 64.34 38.05 63.39 C 37.80 61.57 37.38 59.77 36.97 57.97 C 36.73 58.03 36.24 58.14 36.00 58.19 C 33.28 56.75 30.59 55.26 27.94 53.70 C 28.28 53.53 28.98 53.19 29.33 53.02 C 33.04 54.84 36.77 56.66 40.13 59.09 C 41.07 58.25 42.01 57.41 42.96 56.57 C 42.96 55.15 42.96 53.74 42.97 52.32 C 41.83 51.38 40.68 50.45 39.55 49.49 C 38.44 48.54 37.44 47.47 36.50 46.35 C 34.56 45.97 32.58 44.93 30.58 45.58 C 30.22 45.75 29.49 46.10 29.13 46.27 L 29.06 45.45 C 30.27 44.99 31.47 44.51 32.67 44.05 C 33.47 43.33 34.28 42.61 35.10 41.91 C 34.72 42.89 34.36 43.86 34.01 44.85 C 37.99 44.85 42.00 44.55 45.97 44.99 C 48.24 45.20 49.51 47.38 51.33 48.50 C 54.71 48.95 58.16 48.62 61.52 49.30 C 58.25 50.91 54.55 50.05 51.06 50.06 C 51.04 50.69 51.01 51.96 50.99 52.60 C 54.52 51.20 58.28 50.62 62.05 50.35 C 61.92 50.09 61.68 49.57 61.56 49.30 L 61.19 48.51 C 62.19 45.03 64.79 42.52 67.18 39.98 C 67.36 39.74 67.71 39.28 67.88 39.05 M 37.03 46.09 C 38.56 47.24 40.13 48.44 41.99 48.99 C 42.63 49.77 43.28 50.55 43.92 51.33 C 43.99 52.76 43.99 54.20 44.19 55.63 C 45.45 57.66 48.14 56.81 50.12 57.19 C 49.89 54.52 50.43 51.63 49.19 49.15 C 48.31 47.78 46.97 46.86 45.63 45.99 C 42.76 46.02 39.89 45.96 37.03 46.09 M 50.12 57.19 C 48.64 58.41 46.98 59.89 47.08 62.01 C 46.70 64.84 48.84 66.93 49.96 69.30 C 50.99 69.90 52.04 70.49 53.05 71.14 L 51.09 71.92 C 52.65 73.01 54.73 73.24 56.39 72.21 C 57.50 71.88 58.62 71.56 59.66 71.03 C 63.20 70.97 69.83 71.12 69.82 66.14 C 68.24 60.36 59.66 58.62 55.53 62.68 C 55.07 63.78 54.78 65.23 55.73 66.18 C 57.92 68.77 61.82 68.66 64.82 67.80 C 64.84 67.13 64.89 65.79 64.92 65.12 C 63.14 64.22 61.16 63.98 59.19 64.05 C 60.50 65.03 61.75 66.07 62.97 67.17 C 61.15 66.97 58.61 67.64 57.50 65.70 C 56.06 64.17 58.39 61.82 60.05 61.86 C 63.40 61.22 67.73 63.09 67.79 66.95 C 66.35 70.21 62.19 69.95 59.25 70.51 C 59.13 70.09 58.88 69.27 58.76 68.86 C 56.12 69.87 53.48 67.45 52.64 65.10 C 51.99 61.36 55.83 58.82 59.09 58.44 C 62.28 57.70 65.36 59.07 68.36 59.93 C 67.57 57.25 64.23 57.30 61.98 56.82 C 57.35 56.36 50.93 58.64 50.73 64.08 C 51.00 67.96 55.20 68.89 57.82 70.71 C 56.52 71.16 55.23 71.69 53.88 71.94 C 52.58 71.87 53.87 70.33 53.92 69.67 C 52.34 69.07 50.28 68.98 49.47 67.23 C 46.79 63.63 49.27 58.75 52.69 56.68 C 56.30 54.00 61.04 54.17 65.25 54.87 C 64.34 54.28 63.43 53.67 62.52 53.07 C 58.17 53.21 53.00 53.38 50.12 57.19 M 66.45 55.16 C 66.71 56.43 67.47 56.64 68.74 55.80 C 68.49 54.51 67.72 54.29 66.45 55.16 M 42.83 56.89 C 42.92 57.52 43.11 58.77 43.20 59.39 C 42.62 59.23 41.48 58.91 40.91 58.75 C 40.81 61.19 41.37 63.54 42.92 65.47 C 42.89 65.77 42.85 66.38 42.82 66.69 C 44.77 67.88 46.77 69.00 48.77 70.10 C 46.64 67.50 44.49 64.70 44.72 61.13 C 45.13 60.19 45.55 59.25 45.97 58.32 C 44.92 57.85 43.88 57.37 42.83 56.89 M 72.39 64.95 C 72.14 66.64 72.64 68.79 70.93 69.85 C 67.03 73.41 61.24 71.47 56.78 73.82 C 61.87 72.90 67.26 72.99 72.04 70.84 C 74.13 69.87 74.19 67.25 74.74 65.34 C 74.16 65.24 72.98 65.05 72.39 64.95 M 64.30 73.67 C 64.22 75.06 67.64 75.03 67.67 73.68 C 66.55 72.92 65.43 72.92 64.30 73.67 Z" />
<path fill="#436390" opacity="1.00" d=" M 60.18 43.09 C 61.78 42.65 62.33 43.25 61.83 44.89 C 60.23 45.33 59.68 44.73 60.18 43.09 Z" />
</g>
<g id="#e8ecf5ff">
<path fill="#e8ecf5" opacity="1.00" d=" M 71.50 39.22 C 71.26 35.86 72.21 30.54 76.71 31.21 C 76.85 32.98 76.97 34.76 77.01 36.54 C 76.50 37.52 75.97 38.49 75.41 39.45 C 74.10 39.37 72.80 39.29 71.50 39.22 Z" />
<path fill="#e8ecf5" opacity="1.00" d=" M 43.61 39.54 C 42.86 37.60 41.86 35.27 44.26 33.96 C 45.07 35.07 45.88 36.19 46.68 37.31 C 46.86 39.15 47.92 40.57 49.34 41.69 C 48.92 40.43 48.51 39.18 48.09 37.93 C 48.64 38.19 49.74 38.73 50.29 39.00 C 50.69 39.91 50.86 40.84 50.81 41.81 C 49.28 42.62 47.48 42.25 45.83 42.35 C 45.22 41.76 44.62 41.15 44.03 40.54 L 43.61 39.54 Z" />
<path fill="#e8ecf5" opacity="1.00" d=" M 68.86 38.30 C 69.42 37.52 70.54 35.94 71.10 35.15 C 70.65 36.62 70.17 38.08 69.74 39.55 C 76.33 41.06 83.11 42.81 88.72 46.74 C 88.03 51.68 84.60 56.04 79.95 57.80 C 76.29 58.33 72.72 56.96 69.22 56.09 L 70.25 55.46 C 71.36 55.04 72.48 54.63 73.60 54.23 C 74.07 54.12 75.02 53.90 75.49 53.79 C 76.20 53.49 77.63 52.87 78.34 52.57 C 78.88 52.54 79.97 52.47 80.51 52.44 C 77.41 49.35 73.24 47.81 69.39 45.92 C 71.48 44.97 73.54 43.95 75.58 42.88 C 74.10 43.15 72.63 43.43 71.16 43.72 C 69.51 43.32 67.89 42.84 66.27 42.36 C 67.65 41.75 69.04 41.15 70.43 40.57 C 69.59 40.05 68.74 39.54 67.88 39.05 L 67.54 38.68 C 67.68 38.49 67.97 38.12 68.12 37.94 C 68.30 38.03 68.67 38.21 68.86 38.30 Z" />
<path fill="#e8ecf5" opacity="1.00" d=" M 30.58 45.58 C 32.58 44.93 34.56 45.97 36.50 46.35 C 37.44 47.47 38.44 48.54 39.55 49.49 C 36.10 50.52 32.56 51.38 29.33 53.02 C 28.98 53.19 28.28 53.53 27.94 53.70 C 30.59 55.26 33.28 56.75 36.00 58.19 C 32.14 59.65 28.00 60.26 23.97 59.14 C 23.67 58.03 23.39 56.91 23.12 55.79 C 23.16 53.04 25.17 50.90 26.46 48.63 C 27.27 47.76 28.13 46.91 29.13 46.27 C 29.49 46.10 30.22 45.75 30.58 45.58 Z" />
<path fill="#e8ecf5" opacity="1.00" d=" M 37.03 46.09 C 39.89 45.96 42.76 46.02 45.63 45.99 C 46.97 46.86 48.31 47.78 49.19 49.15 C 46.79 49.09 44.39 49.12 41.99 48.99 C 40.13 48.44 38.56 47.24 37.03 46.09 Z" />
<path fill="#e8ecf5" opacity="1.00" d=" M 61.52 49.30 L 61.56 49.30 C 61.68 49.57 61.92 50.09 62.05 50.35 C 58.28 50.62 54.52 51.20 50.99 52.60 C 51.01 51.96 51.04 50.69 51.06 50.06 C 54.55 50.05 58.25 50.91 61.52 49.30 Z" />
<path fill="#e8ecf5" opacity="1.00" d=" M 50.12 57.19 C 53.00 53.38 58.17 53.21 62.52 53.07 C 63.43 53.67 64.34 54.28 65.25 54.87 C 61.04 54.17 56.30 54.00 52.69 56.68 C 49.27 58.75 46.79 63.63 49.47 67.23 C 50.28 68.98 52.34 69.07 53.92 69.67 C 53.87 70.33 52.58 71.87 53.88 71.94 C 55.23 71.69 56.52 71.16 57.82 70.71 C 55.20 68.89 51.00 67.96 50.73 64.08 C 50.93 58.64 57.35 56.36 61.98 56.82 C 64.23 57.30 67.57 57.25 68.36 59.93 C 65.36 59.07 62.28 57.70 59.09 58.44 C 55.83 58.82 51.99 61.36 52.64 65.10 C 53.48 67.45 56.12 69.87 58.76 68.86 C 58.88 69.27 59.13 70.09 59.25 70.51 C 62.19 69.95 66.35 70.21 67.79 66.95 C 67.73 63.09 63.40 61.22 60.05 61.86 C 58.39 61.82 56.06 64.17 57.50 65.70 C 58.61 67.64 61.15 66.97 62.97 67.17 C 61.75 66.07 60.50 65.03 59.19 64.05 C 61.16 63.98 63.14 64.22 64.92 65.12 C 64.89 65.79 64.84 67.13 64.82 67.80 C 61.82 68.66 57.92 68.77 55.73 66.18 C 54.78 65.23 55.07 63.78 55.53 62.68 C 59.66 58.62 68.24 60.36 69.82 66.14 C 69.83 71.12 63.20 70.97 59.66 71.03 C 58.62 71.56 57.50 71.88 56.39 72.21 C 54.73 73.24 52.65 73.01 51.09 71.92 L 53.05 71.14 C 52.04 70.49 50.99 69.90 49.96 69.30 C 48.84 66.93 46.70 64.84 47.08 62.01 C 46.98 59.89 48.64 58.41 50.12 57.19 Z" />
<path fill="#e8ecf5" opacity="1.00" d=" M 80.63 63.42 C 81.87 62.95 83.10 62.48 84.33 62.00 C 84.12 62.86 83.71 64.59 83.50 65.45 C 82.66 66.71 81.75 67.93 80.83 69.13 C 77.31 71.84 73.15 73.71 68.68 73.97 C 70.82 73.12 73.40 72.88 75.02 71.07 C 77.16 69.15 76.94 66.07 77.48 63.49 C 79.94 65.04 77.68 68.29 78.17 70.46 C 80.12 68.55 80.65 66.01 80.63 63.42 Z" />
<path fill="#e8ecf5" opacity="1.00" d=" M 72.39 64.95 C 72.98 65.05 74.16 65.24 74.74 65.34 C 74.19 67.25 74.13 69.87 72.04 70.84 C 67.26 72.99 61.87 72.90 56.78 73.82 C 61.24 71.47 67.03 73.41 70.93 69.85 C 72.64 68.79 72.14 66.64 72.39 64.95 Z" />
</g>
<g id="#aaaebbff">
<path fill="#aaaebb" opacity="1.00" d=" M 62.94 51.72 C 62.63 48.22 63.59 44.75 66.27 42.36 C 67.89 42.84 69.51 43.32 71.16 43.72 C 66.55 44.85 65.10 50.12 66.97 54.10 C 65.64 53.30 64.29 52.51 62.94 51.72 Z" />
<path fill="#aaaebb" opacity="1.00" d=" M 68.19 46.03 C 68.49 46.01 69.09 45.95 69.39 45.92 C 73.24 47.81 77.41 49.35 80.51 52.44 C 79.97 52.47 78.88 52.54 78.34 52.57 C 75.20 52.63 72.17 53.52 69.14 54.29 C 67.41 51.77 67.01 48.88 68.19 46.03 Z" />
<path fill="#aaaebb" opacity="1.00" d=" M 88.72 46.74 C 91.04 49.39 91.60 52.86 90.54 56.19 C 85.37 61.31 78.17 63.26 71.17 64.24 C 69.75 61.75 68.52 59.01 69.22 56.09 C 72.72 56.96 76.29 58.33 79.95 57.80 C 84.60 56.04 88.03 51.68 88.72 46.74 Z" />
<path fill="#aaaebb" opacity="1.00" d=" M 39.55 49.49 C 40.68 50.45 41.83 51.38 42.97 52.32 C 42.96 53.74 42.96 55.15 42.96 56.57 C 42.01 57.41 41.07 58.25 40.13 59.09 C 36.77 56.66 33.04 54.84 29.33 53.02 C 32.56 51.38 36.10 50.52 39.55 49.49 Z" />
<path fill="#aaaebb" opacity="1.00" d=" M 41.99 48.99 C 44.39 49.12 46.79 49.09 49.19 49.15 C 50.43 51.63 49.89 54.52 50.12 57.19 C 48.14 56.81 45.45 57.66 44.19 55.63 C 43.99 54.20 43.99 52.76 43.92 51.33 C 43.28 50.55 42.63 49.77 41.99 48.99 Z" />
<path fill="#aaaebb" opacity="1.00" d=" M 66.45 55.16 C 67.72 54.29 68.49 54.51 68.74 55.80 C 67.47 56.64 66.71 56.43 66.45 55.16 Z" />
<path fill="#aaaebb" opacity="1.00" d=" M 23.12 55.79 C 23.39 56.91 23.67 58.03 23.97 59.14 C 28.00 60.26 32.14 59.65 36.00 58.19 C 36.24 58.14 36.73 58.03 36.97 57.97 C 37.38 59.77 37.80 61.57 38.05 63.39 C 37.88 64.17 37.54 65.73 37.37 66.51 C 32.29 66.13 27.49 64.34 22.98 62.08 C 23.00 59.98 23.02 57.89 23.12 55.79 Z" />
<path fill="#aaaebb" opacity="1.00" d=" M 40.91 58.75 C 41.48 58.91 42.62 59.23 43.20 59.39 C 43.70 59.97 44.21 60.55 44.72 61.13 C 44.49 64.70 46.64 67.50 48.77 70.10 C 46.77 69.00 44.77 67.88 42.82 66.69 C 42.85 66.38 42.89 65.77 42.92 65.47 C 41.37 63.54 40.81 61.19 40.91 58.75 Z" />
</g>
</svg>
