<?xml version="1.0" encoding="UTF-8" ?>
<!DOCTYPE svg PUBLIC "-//W3C//DTD SVG 1.1//EN" "http://www.w3.org/Graphics/SVG/1.1/DTD/svg11.dtd">
<svg width="120pt" height="120pt" viewBox="0 0 120 120" version="1.1" xmlns="http://www.w3.org/2000/svg">
<g id="#436088ff">
<path fill="#436088" opacity="1.00" d=" M 49.52 33.21 C 50.88 33.23 52.23 33.24 53.59 33.25 C 54.49 34.21 55.37 35.19 56.34 36.08 C 59.35 36.48 62.41 36.18 65.44 36.29 C 66.05 36.60 67.27 37.23 67.88 37.55 L 67.49 38.09 C 63.72 37.06 59.81 37.02 55.94 36.85 C 53.86 35.77 52.04 34.12 49.60 33.91 C 50.37 34.44 51.90 35.50 52.66 36.03 C 51.08 36.00 49.49 35.96 47.91 35.92 C 47.53 37.10 47.17 38.29 46.83 39.48 C 47.22 38.87 47.99 37.63 48.38 37.01 C 48.79 37.00 49.60 36.99 50.00 36.98 C 50.00 37.50 50.00 38.54 50.00 39.06 L 52.19 38.97 C 51.86 38.35 51.20 37.12 50.87 36.51 C 52.22 37.56 53.53 38.82 52.99 40.71 C 51.83 42.33 49.78 41.91 48.06 42.08 C 47.97 41.45 47.77 40.19 47.68 39.57 C 47.50 39.97 47.14 40.79 46.97 41.20 C 46.51 42.35 46.13 43.53 45.70 44.69 C 45.29 44.86 44.47 45.20 44.06 45.37 C 45.73 43.04 45.25 40.13 45.24 37.45 C 46.03 35.47 47.68 34.17 49.52 33.21 Z" />
<path fill="#436088" opacity="1.00" d=" M 69.57 34.40 C 71.56 34.23 73.56 34.23 75.56 34.23 C 76.63 35.32 77.72 36.40 78.81 37.47 C 78.85 39.57 78.89 41.67 78.96 43.77 C 80.75 45.49 82.37 47.52 84.71 48.53 C 86.31 49.97 87.64 51.91 89.82 52.50 C 89.89 52.86 90.02 53.57 90.09 53.93 C 94.42 54.92 96.76 61.13 93.07 64.22 C 93.46 62.67 93.81 61.10 93.88 59.50 C 93.62 58.94 93.10 57.82 92.84 57.27 C 90.48 54.98 87.87 52.89 84.81 51.62 C 85.01 52.01 85.40 52.78 85.60 53.17 C 82.38 54.42 79.54 56.45 77.86 59.53 C 78.94 60.87 80.02 62.20 81.11 63.52 C 80.39 60.59 81.56 58.06 84.11 56.56 C 83.39 57.77 82.61 58.94 81.96 60.18 C 82.59 61.12 83.34 61.96 84.18 62.72 C 86.68 64.31 89.55 65.11 92.43 65.67 C 88.66 66.89 85.28 64.67 82.20 62.82 C 81.36 67.12 77.55 69.52 74.81 72.54 C 73.19 73.78 73.97 75.93 73.80 77.66 C 76.08 79.78 79.26 82.15 78.87 85.66 C 78.55 85.93 77.92 86.46 77.60 86.73 C 74.14 86.70 70.34 87.57 67.14 85.92 C 67.20 84.15 67.26 82.38 67.39 80.61 L 67.77 81.72 C 68.27 82.95 68.49 84.38 69.38 85.42 C 72.15 86.32 75.12 85.79 77.96 85.65 C 77.23 83.68 76.65 81.39 74.70 80.25 C 72.74 79.77 70.71 79.70 68.71 79.52 L 67.78 79.45 C 68.88 78.01 69.43 76.38 69.43 74.57 C 64.31 76.07 58.64 76.68 53.58 74.59 C 55.37 78.06 55.95 82.02 55.94 85.89 C 53.76 85.99 51.25 85.18 49.40 86.74 C 46.78 86.84 44.15 86.84 41.53 86.86 C 41.08 85.96 40.63 85.06 40.16 84.16 C 40.49 83.95 41.13 83.53 41.45 83.32 C 43.55 85.57 48.57 86.69 50.02 83.16 C 50.68 82.15 51.28 81.11 51.90 80.08 C 51.00 79.64 50.11 79.19 49.21 78.74 C 49.03 76.53 50.15 73.60 47.93 72.11 C 47.16 71.54 46.35 71.02 45.51 70.56 C 44.03 68.23 42.51 65.92 41.28 63.45 C 41.26 62.05 41.22 60.65 41.17 59.26 C 40.43 60.28 39.69 61.29 38.93 62.30 C 39.30 59.12 38.88 55.96 37.45 53.09 C 37.49 52.03 37.40 50.99 37.15 49.96 C 36.37 49.98 34.79 50.01 34.00 50.03 C 34.00 50.52 34.00 51.50 34.00 51.99 C 33.40 52.02 32.21 52.06 31.61 52.09 C 30.92 52.44 29.53 53.14 28.84 53.49 C 29.72 52.04 31.37 51.54 32.83 50.92 C 33.17 50.54 33.85 49.78 34.20 49.40 C 36.20 49.23 38.16 48.79 40.04 48.10 C 39.71 48.55 39.05 49.45 38.72 49.90 C 39.06 50.49 39.75 51.65 40.09 52.24 C 41.09 50.90 42.09 49.57 43.12 48.26 C 41.90 51.65 40.87 55.16 41.27 58.81 C 42.07 59.07 42.88 59.33 43.69 59.57 C 44.47 65.42 48.96 70.57 54.60 72.24 C 58.74 73.10 63.02 72.55 67.13 71.80 C 66.79 71.47 66.11 70.79 65.76 70.45 C 69.48 67.42 72.68 63.10 72.12 58.03 C 72.50 48.92 61.61 41.87 53.45 46.16 C 53.99 45.32 54.54 44.49 55.08 43.66 L 53.64 43.99 L 54.71 43.41 C 54.80 43.40 54.96 43.37 55.05 43.36 C 57.55 43.79 60.09 43.95 62.58 44.43 C 65.72 45.25 68.23 47.43 71.09 48.85 C 71.32 49.03 71.79 49.40 72.02 49.58 C 73.31 53.69 75.01 58.11 73.59 62.43 C 72.61 65.98 69.97 68.65 67.56 71.30 C 68.38 70.76 69.21 70.22 70.03 69.69 C 74.03 70.14 77.04 67.48 79.55 64.77 C 78.55 63.20 77.43 61.66 76.77 59.89 C 77.94 56.60 81.76 54.15 80.24 50.25 C 81.31 51.27 82.42 52.26 83.53 53.24 C 83.94 52.34 85.11 51.58 84.73 50.49 C 82.27 48.33 79.53 46.49 77.33 44.04 C 77.59 41.98 77.78 39.91 77.89 37.83 C 77.49 38.50 76.70 39.84 76.30 40.52 C 76.17 39.95 75.90 38.81 75.76 38.25 C 75.46 37.79 74.86 36.87 74.56 36.42 L 73.97 35.52 C 72.82 35.28 71.67 35.04 70.53 34.78 L 69.57 34.40 Z" />
<path fill="#436088" opacity="1.00" d=" M 71.29 36.62 C 72.53 37.14 73.76 37.68 74.99 38.21 C 75.00 38.91 75.03 40.32 75.04 41.02 C 74.71 41.51 74.03 42.50 73.69 42.99 C 73.05 43.00 71.75 43.03 71.11 43.04 C 70.29 41.77 68.42 39.95 70.64 39.08 C 71.24 39.35 72.43 39.89 73.02 40.16 C 73.02 39.63 73.01 38.56 73.00 38.03 L 70.98 37.95 L 71.29 36.62 Z" />
<path fill="#436088" opacity="1.00" d=" M 62.28 40.32 C 62.77 40.83 62.77 40.83 62.28 40.32 Z" />
<path fill="#436088" opacity="1.00" d=" M 76.25 41.53 L 76.53 41.53 C 76.45 41.60 76.30 41.75 76.22 41.82 L 76.25 41.53 Z" />
<path fill="#436088" opacity="1.00" d=" M 51.48 45.84 C 52.76 45.88 53.05 46.41 52.35 47.43 L 51.31 46.86 L 51.48 45.84 Z" />
<path fill="#436088" opacity="1.00" d=" M 46.98 51.00 C 46.84 48.51 49.17 47.20 51.31 46.86 C 50.37 48.66 48.97 50.35 46.98 51.00 Z" />
<path fill="#436088" opacity="1.00" d=" M 48.63 51.75 C 52.85 44.99 63.38 46.00 67.76 52.02 C 72.05 57.28 70.19 66.03 64.45 69.44 C 61.63 71.33 58.13 71.26 54.89 71.51 C 52.51 70.25 49.45 69.45 48.57 66.55 C 51.56 67.97 54.54 69.94 57.97 69.90 C 61.65 69.47 65.39 67.46 66.93 63.94 C 69.59 58.59 67.40 51.27 61.77 48.86 C 54.77 45.49 45.45 53.78 48.94 61.02 C 50.80 66.05 58.24 68.39 62.00 64.07 C 65.92 60.20 63.39 52.75 57.96 52.01 C 54.10 52.07 51.38 55.83 51.94 59.55 C 52.78 60.33 53.62 61.12 54.46 61.91 C 55.97 61.88 57.47 61.85 58.98 61.82 C 59.20 60.59 59.45 59.37 59.54 58.12 C 59.26 56.34 57.17 56.38 55.85 55.91 C 56.39 57.58 56.94 59.24 57.46 60.92 C 54.91 60.57 52.48 57.85 54.48 55.54 C 57.45 51.56 63.42 56.67 61.51 60.59 C 60.68 64.13 56.40 65.11 53.49 63.52 C 50.44 61.70 48.84 57.23 51.14 54.20 C 54.05 49.06 62.55 49.89 64.87 55.18 C 68.65 61.00 62.65 69.42 55.94 68.09 C 48.42 67.47 44.02 57.77 48.63 51.75 Z" />
<path fill="#436088" opacity="1.00" d=" M 44.79 51.97 C 45.33 51.73 46.43 51.24 46.98 51.00 C 47.22 52.73 46.29 54.29 45.63 55.81 L 45.24 55.79 C 45.55 54.58 45.19 53.67 44.14 53.06 C 44.30 52.79 44.62 52.25 44.79 51.97 Z" />
<path fill="#436088" opacity="1.00" d=" M 25.26 60.42 C 25.31 57.85 24.31 53.81 28.17 53.96 C 27.60 54.35 26.47 55.15 25.91 55.55 C 26.26 57.61 26.68 59.66 27.17 61.69 C 29.47 61.67 31.78 61.67 34.09 61.65 C 33.79 59.74 33.40 57.84 32.95 55.95 C 33.48 56.26 34.53 56.87 35.05 57.18 C 35.22 58.75 35.39 60.32 35.55 61.89 C 36.05 62.03 37.04 62.32 37.54 62.46 L 38.32 64.08 C 36.91 64.06 35.63 63.67 34.46 62.93 C 31.82 62.87 29.19 62.91 26.56 62.96 C 26.23 62.32 25.59 61.06 25.26 60.42 Z" />
<path fill="#436088" opacity="1.00" d=" M 44.55 59.80 L 45.74 60.08 C 46.59 62.29 47.61 64.44 48.23 66.74 C 45.94 65.11 45.10 62.41 44.55 59.80 Z" />
<path fill="#436088" opacity="1.00" d=" M 48.23 66.74 L 48.28 66.41 L 48.57 66.55 L 48.46 66.95 L 48.23 66.74 Z" />
<path fill="#436088" opacity="1.00" d=" M 43.32 82.11 C 43.22 80.34 46.56 79.52 47.83 80.55 C 46.94 82.18 44.90 81.99 43.32 82.11 Z" />
</g>
<g id="#6085b9ff">
<path fill="#6085b9" opacity="1.00" d=" M 49.60 33.91 C 52.04 34.12 53.86 35.77 55.94 36.85 C 59.81 37.02 63.72 37.06 67.49 38.09 L 67.88 37.55 C 68.48 36.33 69.37 35.41 70.53 34.78 C 71.67 35.04 72.82 35.28 73.97 35.52 L 74.56 36.42 C 72.21 35.19 70.35 37.09 68.98 38.80 C 67.86 39.63 67.62 40.61 68.27 41.74 L 69.02 41.78 C 70.01 42.54 70.98 43.33 71.96 44.11 C 72.21 44.41 72.71 45.01 72.97 45.31 C 73.18 44.98 73.61 44.33 73.83 44.00 C 74.64 43.29 75.44 42.56 76.22 41.82 C 76.30 41.75 76.45 41.60 76.53 41.53 L 76.25 41.53 L 76.30 40.52 C 76.70 39.84 77.49 38.50 77.89 37.83 C 77.78 39.91 77.59 41.98 77.33 44.04 C 79.53 46.49 82.27 48.33 84.73 50.49 C 85.11 51.58 83.94 52.34 83.53 53.24 C 82.42 52.26 81.31 51.27 80.24 50.25 C 81.76 54.15 77.94 56.60 76.77 59.89 C 77.43 61.66 78.55 63.20 79.55 64.77 C 77.04 67.48 74.03 70.14 70.03 69.69 C 71.14 68.66 72.22 67.60 73.25 66.49 C 73.29 66.42 73.38 66.29 73.42 66.22 C 74.72 63.37 75.04 60.24 75.08 57.15 C 76.18 56.27 76.32 54.37 74.78 53.85 L 74.70 53.16 C 75.19 51.53 74.36 49.26 72.30 49.78 L 72.02 49.58 C 71.79 49.40 71.32 49.03 71.09 48.85 C 67.66 43.74 60.86 41.90 55.05 43.36 C 54.96 43.37 54.80 43.40 54.71 43.41 L 53.64 43.99 C 50.11 45.89 46.53 48.19 44.79 51.97 C 44.62 52.25 44.30 52.79 44.14 53.06 L 43.68 53.81 C 42.69 55.01 42.94 55.66 44.44 55.76 L 45.24 55.79 L 45.63 55.81 C 45.59 57.24 45.63 58.66 45.74 60.08 L 44.55 59.80 L 43.69 59.57 C 42.88 59.33 42.07 59.07 41.27 58.81 C 40.87 55.16 41.90 51.65 43.12 48.26 C 42.09 49.57 41.09 50.90 40.09 52.24 C 39.75 51.65 39.06 50.49 38.72 49.90 C 39.05 49.45 39.71 48.55 40.04 48.10 C 40.91 46.61 42.49 45.87 44.06 45.37 C 44.47 45.20 45.29 44.86 45.70 44.69 C 46.13 43.53 46.51 42.35 46.97 41.20 C 47.52 41.87 48.09 42.53 48.65 43.19 L 48.97 43.67 C 50.21 44.19 51.22 43.98 52.01 43.04 C 53.96 41.06 54.70 38.25 52.66 36.03 C 51.90 35.50 50.37 34.44 49.60 33.91 M 62.28 40.32 C 62.77 40.83 62.77 40.83 62.28 40.32 Z" />
<path fill="#6085b9" opacity="1.00" d=" M 93.88 59.50 C 93.81 61.10 93.46 62.67 93.07 64.22 C 92.91 64.58 92.59 65.31 92.43 65.67 C 89.55 65.11 86.68 64.31 84.18 62.72 C 87.65 62.52 90.86 61.09 93.88 59.50 Z" />
<path fill="#6085b9" opacity="1.00" d=" M 47.83 80.55 C 48.18 80.10 48.87 79.20 49.21 78.74 C 50.11 79.19 51.00 79.64 51.90 80.08 C 51.28 81.11 50.68 82.15 50.02 83.16 C 48.57 86.69 43.55 85.57 41.45 83.32 C 41.92 83.02 42.85 82.41 43.32 82.11 C 44.90 81.99 46.94 82.18 47.83 80.55 Z" />
<path fill="#6085b9" opacity="1.00" d=" M 68.71 79.52 C 70.71 79.70 72.74 79.77 74.70 80.25 C 76.65 81.39 77.23 83.68 77.96 85.65 C 75.12 85.79 72.15 86.32 69.38 85.42 C 68.49 84.38 68.27 82.95 67.77 81.72 C 68.01 81.17 68.47 80.07 68.71 79.52 Z" />
</g>
<g id="#e8ebf3ff">
<path fill="#e8ebf3" opacity="1.00" d=" M 46.83 39.48 C 47.17 38.29 47.53 37.10 47.91 35.92 C 49.49 35.96 51.08 36.00 52.66 36.03 C 54.70 38.25 53.96 41.06 52.01 43.04 C 51.17 43.07 49.49 43.15 48.65 43.19 C 48.09 42.53 47.52 41.87 46.97 41.20 C 47.14 40.79 47.50 39.97 47.68 39.57 C 47.77 40.19 47.97 41.45 48.06 42.08 C 49.78 41.91 51.83 42.33 52.99 40.71 C 53.53 38.82 52.22 37.56 50.87 36.51 C 51.20 37.12 51.86 38.35 52.19 38.97 L 50.00 39.06 C 50.00 38.54 50.00 37.50 50.00 36.98 C 49.60 36.99 48.79 37.00 48.38 37.01 C 47.99 37.63 47.22 38.87 46.83 39.48 Z" />
<path fill="#e8ebf3" opacity="1.00" d=" M 68.98 38.80 C 70.35 37.09 72.21 35.19 74.56 36.42 C 74.86 36.87 75.46 37.79 75.76 38.25 C 75.90 38.81 76.17 39.95 76.30 40.52 L 76.25 41.53 L 76.22 41.82 C 75.44 42.56 74.64 43.29 73.83 44.00 C 73.36 44.03 72.42 44.08 71.96 44.11 C 70.98 43.33 70.01 42.54 69.02 41.78 C 69.01 41.04 68.99 39.55 68.98 38.80 M 71.29 36.62 L 70.98 37.95 L 73.00 38.03 C 73.01 38.56 73.02 39.63 73.02 40.16 C 72.43 39.89 71.24 39.35 70.64 39.08 C 68.42 39.95 70.29 41.77 71.11 43.04 C 71.75 43.03 73.05 43.00 73.69 42.99 C 74.03 42.50 74.71 41.51 75.04 41.02 C 75.03 40.32 75.00 38.91 74.99 38.21 C 73.76 37.68 72.53 37.14 71.29 36.62 Z" />
<path fill="#e8ebf3" opacity="1.00" d=" M 55.05 43.36 C 60.86 41.90 67.66 43.74 71.09 48.85 C 68.23 47.43 65.72 45.25 62.58 44.43 C 60.09 43.95 57.55 43.79 55.05 43.36 Z" />
<path fill="#e8ebf3" opacity="1.00" d=" M 44.79 51.97 C 46.53 48.19 50.11 45.89 53.64 43.99 L 55.08 43.66 C 54.54 44.49 53.99 45.32 53.45 46.16 C 61.61 41.87 72.50 48.92 72.12 58.03 C 72.68 63.10 69.48 67.42 65.76 70.45 C 66.11 70.79 66.79 71.47 67.13 71.80 C 63.02 72.55 58.74 73.10 54.60 72.24 C 48.96 70.57 44.47 65.42 43.69 59.57 L 44.55 59.80 C 45.10 62.41 45.94 65.11 48.23 66.74 L 48.46 66.95 L 48.57 66.55 C 49.45 69.45 52.51 70.25 54.89 71.51 C 58.13 71.26 61.63 71.33 64.45 69.44 C 70.19 66.03 72.05 57.28 67.76 52.02 C 63.38 46.00 52.85 44.99 48.63 51.75 C 44.02 57.77 48.42 67.47 55.94 68.09 C 62.65 69.42 68.65 61.00 64.87 55.18 C 62.55 49.89 54.05 49.06 51.14 54.20 C 48.84 57.23 50.44 61.70 53.49 63.52 C 56.40 65.11 60.68 64.13 61.51 60.59 C 63.42 56.67 57.45 51.56 54.48 55.54 C 52.48 57.85 54.91 60.57 57.46 60.92 C 56.94 59.24 56.39 57.58 55.85 55.91 C 57.17 56.38 59.26 56.34 59.54 58.12 C 59.45 59.37 59.20 60.59 58.98 61.82 C 57.47 61.85 55.97 61.88 54.46 61.91 C 53.62 61.12 52.78 60.33 51.94 59.55 C 51.38 55.83 54.10 52.07 57.96 52.01 C 63.39 52.75 65.92 60.20 62.00 64.07 C 58.24 68.39 50.80 66.05 48.94 61.02 C 45.45 53.78 54.77 45.49 61.77 48.86 C 67.40 51.27 69.59 58.59 66.93 63.94 C 65.39 67.46 61.65 69.47 57.97 69.90 C 54.54 69.94 51.56 67.97 48.57 66.55 L 48.28 66.41 L 48.23 66.74 C 47.61 64.44 46.59 62.29 45.74 60.08 C 45.63 58.66 45.59 57.24 45.63 55.81 C 46.29 54.29 47.22 52.73 46.98 51.00 C 48.97 50.35 50.37 48.66 51.31 46.86 L 52.35 47.43 C 53.05 46.41 52.76 45.88 51.48 45.84 L 51.31 46.86 C 49.17 47.20 46.84 48.51 46.98 51.00 C 46.43 51.24 45.33 51.73 44.79 51.97 Z" />
<path fill="#e8ebf3" opacity="1.00" d=" M 34.00 50.03 C 34.79 50.01 36.37 49.98 37.15 49.96 C 37.40 50.99 37.49 52.03 37.45 53.09 C 38.88 55.96 39.30 59.12 38.93 62.30 L 38.91 62.83 L 37.54 62.46 C 37.04 62.32 36.05 62.03 35.55 61.89 C 35.39 60.32 35.22 58.75 35.05 57.18 C 34.53 56.87 33.48 56.26 32.95 55.95 C 33.40 57.84 33.79 59.74 34.09 61.65 C 31.78 61.67 29.47 61.67 27.17 61.69 C 26.68 59.66 26.26 57.61 25.91 55.55 C 26.47 55.15 27.60 54.35 28.17 53.96 C 28.34 53.84 28.67 53.60 28.84 53.49 C 29.53 53.14 30.92 52.44 31.61 52.09 C 32.21 52.06 33.40 52.02 34.00 51.99 C 34.00 51.50 34.00 50.52 34.00 50.03 Z" />
<path fill="#e8ebf3" opacity="1.00" d=" M 72.02 49.58 L 72.30 49.78 C 73.00 50.97 73.73 52.16 74.70 53.16 L 74.78 53.85 C 74.86 54.68 75.01 56.33 75.08 57.15 C 75.04 60.24 74.72 63.37 73.42 66.22 C 73.38 66.29 73.29 66.42 73.25 66.49 C 72.22 67.60 71.14 68.66 70.03 69.69 C 69.21 70.22 68.38 70.76 67.56 71.30 C 69.97 68.65 72.61 65.98 73.59 62.43 C 75.01 58.11 73.31 53.69 72.02 49.58 Z" />
<path fill="#e8ebf3" opacity="1.00" d=" M 84.81 51.62 C 87.87 52.89 90.48 54.98 92.84 57.27 C 93.10 57.82 93.62 58.94 93.88 59.50 C 90.86 61.09 87.65 62.52 84.18 62.72 C 83.34 61.96 82.59 61.12 81.96 60.18 C 82.61 58.94 83.39 57.77 84.11 56.56 C 81.56 58.06 80.39 60.59 81.11 63.52 C 80.02 62.20 78.94 60.87 77.86 59.53 C 79.54 56.45 82.38 54.42 85.60 53.17 C 85.40 52.78 85.01 52.01 84.81 51.62 Z" />
<path fill="#e8ebf3" opacity="1.00" d=" M 44.14 53.06 C 45.19 53.67 45.55 54.58 45.24 55.79 L 44.44 55.76 C 44.25 55.27 43.87 54.30 43.68 53.81 L 44.14 53.06 Z" />
</g>
</svg>
