<?xml version="1.0" encoding="UTF-8" ?>
<!DOCTYPE svg PUBLIC "-//W3C//DTD SVG 1.1//EN" "http://www.w3.org/Graphics/SVG/1.1/DTD/svg11.dtd">
<svg width="120pt" height="120pt" viewBox="0 0 120 120" version="1.1" xmlns="http://www.w3.org/2000/svg">
<g id="#f06b07ff">
<path fill="#f06b07" opacity="1.00" d=" M 48.36 24.31 C 49.65 24.15 50.86 23.71 51.92 22.96 C 52.19 25.29 52.74 27.57 53.13 29.87 C 52.57 29.87 51.46 29.86 50.91 29.86 C 50.87 31.27 50.81 32.68 50.74 34.09 C 47.73 35.50 44.93 37.39 43.35 40.42 C 41.60 42.04 39.76 43.59 37.68 44.78 C 39.41 41.83 42.27 39.87 44.48 37.33 C 42.56 35.07 40.81 32.66 39.18 30.17 C 39.08 30.02 38.89 29.71 38.79 29.55 C 39.49 29.22 40.90 28.55 41.61 28.22 C 42.58 28.20 43.55 28.18 44.52 28.16 C 45.78 26.85 47.05 25.56 48.36 24.31 Z" />
<path fill="#f06b07" opacity="1.00" d=" M 37.37 33.00 L 38.18 33.16 C 37.83 35.98 36.82 38.65 35.75 41.26 C 36.39 42.44 37.03 43.61 37.68 44.78 C 36.82 44.65 35.97 44.46 35.12 44.29 C 35.02 44.79 34.82 45.78 34.72 46.28 L 34.48 46.73 C 34.45 45.54 34.42 44.34 34.37 43.15 L 35.43 43.54 C 35.30 42.05 35.19 40.57 35.11 39.08 C 36.09 37.14 36.69 35.05 37.37 33.00 Z" />
<path fill="#f06b07" opacity="1.00" d=" M 48.92 36.45 L 49.01 36.32 L 49.13 36.38 C 49.08 36.39 48.97 36.43 48.92 36.45 Z" />
<path fill="#f06b07" opacity="1.00" d=" M 70.53 36.94 C 71.95 37.18 73.48 37.20 74.72 38.06 C 75.26 38.06 76.35 38.08 76.89 38.08 C 76.88 38.62 76.85 39.69 76.84 40.23 C 77.47 40.17 78.72 40.06 79.34 40.00 C 80.39 39.58 81.45 39.19 82.53 38.85 C 82.97 39.43 83.86 40.60 84.30 41.19 C 85.10 41.16 86.71 41.11 87.51 41.08 C 85.45 42.63 82.79 43.81 82.16 46.56 C 81.59 48.20 80.15 49.03 78.49 49.22 C 78.97 49.70 79.94 50.65 80.42 51.12 C 79.19 52.13 77.83 52.95 76.53 53.86 C 76.02 53.84 74.99 53.79 74.48 53.76 C 74.03 54.22 73.14 55.13 72.69 55.59 C 71.50 54.68 70.30 53.79 69.12 52.87 C 68.04 51.50 66.99 50.09 66.11 48.57 C 66.12 48.10 66.14 47.16 66.15 46.69 C 67.65 43.44 68.49 39.93 70.53 36.94 Z" />
<path fill="#f06b07" opacity="1.00" d=" M 46.31 39.15 C 46.77 38.11 47.23 37.07 47.70 36.04 L 48.68 37.04 C 48.66 38.20 48.61 40.53 48.59 41.69 C 49.68 40.98 50.78 40.28 51.89 39.60 C 52.08 41.57 51.78 43.90 49.25 44.12 C 50.71 45.03 52.27 45.80 53.95 46.20 C 53.46 47.13 52.98 48.07 52.52 49.02 L 51.20 49.12 C 51.94 50.19 53.07 52.33 54.69 51.14 C 54.85 50.59 55.17 49.50 55.33 48.96 L 55.92 49.06 C 55.84 50.98 55.79 52.91 55.74 54.84 C 56.59 54.05 57.44 53.25 58.29 52.45 C 58.21 51.48 58.07 49.54 57.99 48.57 C 58.59 49.53 59.19 50.48 59.78 51.45 C 59.82 52.24 59.91 53.81 59.95 54.60 C 60.35 54.19 61.16 53.38 61.57 52.98 C 61.94 53.40 62.68 54.23 63.05 54.65 C 63.12 53.09 63.18 51.53 63.23 49.98 C 63.71 50.04 64.67 50.17 65.15 50.24 C 64.94 51.68 64.73 53.12 64.57 54.57 C 66.58 55.77 68.48 57.19 70.63 58.13 C 71.76 57.66 72.87 57.15 73.96 56.57 C 73.05 57.52 72.16 58.49 71.30 59.48 C 71.27 60.05 71.23 61.19 71.21 61.76 L 71.54 62.30 C 71.82 64.80 71.73 67.33 71.81 69.85 C 72.92 68.16 73.99 66.31 75.96 65.49 C 75.44 66.84 74.94 68.19 74.60 69.59 C 74.25 70.05 73.54 70.95 73.19 71.40 C 72.72 72.63 71.89 73.46 70.72 73.90 C 71.39 75.00 72.24 76.15 71.67 77.58 L 72.76 77.27 C 72.44 83.07 73.48 89.02 71.56 94.60 C 69.82 94.58 68.08 94.59 66.34 94.63 C 66.34 93.99 66.36 92.71 66.37 92.07 L 67.67 92.75 C 67.57 91.89 67.38 90.17 67.28 89.31 L 68.49 89.23 C 68.47 86.29 68.47 83.36 68.50 80.42 L 67.09 80.76 C 67.25 80.23 67.57 79.15 67.73 78.61 L 65.62 78.39 C 65.84 83.50 65.94 88.67 64.46 93.63 C 62.75 93.59 61.04 93.59 59.33 93.62 C 59.34 92.98 59.37 91.72 59.39 91.08 L 60.91 91.71 C 60.70 91.13 60.29 89.96 60.08 89.38 L 61.49 89.34 C 61.46 85.89 61.50 82.44 61.44 78.99 C 60.16 78.35 59.29 77.33 58.83 75.95 C 57.08 77.66 56.47 79.99 56.56 82.39 C 55.10 84.55 55.88 87.30 55.59 89.74 C 55.00 86.36 55.69 82.95 55.46 79.55 C 55.67 78.90 55.89 78.25 56.10 77.60 C 56.63 74.86 57.22 72.14 57.88 69.42 C 59.70 69.82 61.69 69.77 63.37 70.64 C 64.08 71.84 64.05 73.29 64.36 74.61 C 65.91 76.36 67.95 77.84 68.83 80.08 C 69.89 83.81 69.09 87.71 68.26 91.40 C 69.41 91.51 70.56 91.62 71.71 91.73 C 71.64 88.13 71.83 84.53 71.75 80.93 C 71.70 78.55 70.27 76.51 69.85 74.20 C 69.88 71.09 71.18 68.14 71.18 65.03 C 70.77 63.23 70.09 61.50 69.29 59.85 C 68.11 57.53 65.34 57.07 63.13 56.24 C 59.62 57.09 54.45 58.65 52.56 54.43 C 51.96 53.01 51.31 51.61 50.67 50.21 C 50.37 49.06 50.11 47.91 49.87 46.75 C 48.80 44.17 47.82 41.53 46.31 39.15 M 54.19 52.24 C 52.47 55.10 57.51 52.60 54.19 52.24 M 58.09 54.20 C 56.29 54.48 57.53 56.74 58.91 56.07 C 60.71 55.80 59.46 53.55 58.09 54.20 M 58.97 75.54 C 60.11 76.56 61.24 77.59 62.36 78.63 C 62.22 82.77 62.18 86.92 62.33 91.06 C 63.26 90.52 64.19 89.98 65.12 89.42 C 63.56 85.66 65.82 81.48 64.56 77.55 C 63.75 76.42 62.97 75.27 62.22 74.11 C 61.13 74.57 60.04 75.05 58.97 75.54 Z" />
<path fill="#f06b07" opacity="1.00" d=" M 42.09 42.96 C 42.93 42.98 44.61 43.01 45.44 43.03 C 44.94 45.39 43.24 47.32 40.67 47.33 C 41.10 45.86 41.59 44.41 42.09 42.96 Z" />
<path fill="#f06b07" opacity="1.00" d=" M 32.50 48.22 C 33.00 47.85 33.98 47.10 34.48 46.73 C 34.18 47.22 33.58 48.20 33.28 48.69 C 33.11 49.81 32.96 50.94 32.84 52.07 C 34.26 51.95 35.69 51.82 37.11 51.67 C 39.18 51.40 41.25 51.17 43.32 50.92 C 44.03 57.91 40.74 64.36 40.86 71.28 C 41.34 71.95 41.81 72.64 42.27 73.33 C 41.36 79.74 44.04 86.03 42.68 92.45 C 43.72 92.84 44.76 93.23 45.80 93.62 C 45.74 94.20 45.63 95.36 45.57 95.94 C 45.04 95.76 43.98 95.38 43.45 95.19 L 43.87 96.72 C 43.21 96.67 41.89 96.56 41.24 96.51 C 40.87 96.02 40.14 95.03 39.78 94.54 C 40.23 94.53 41.13 94.50 41.58 94.49 C 41.55 93.82 41.48 92.47 41.44 91.80 C 43.27 89.44 42.85 85.78 41.30 83.36 C 41.28 79.72 42.41 75.61 40.31 72.36 C 40.46 70.22 40.43 68.07 40.54 65.93 C 40.60 63.56 42.26 61.58 42.44 59.23 C 42.57 56.97 42.49 54.70 42.51 52.43 L 41.18 52.88 L 41.58 51.19 C 39.86 51.54 38.55 52.63 37.38 53.87 C 35.66 53.67 34.00 53.20 32.36 52.64 C 32.42 51.17 32.46 49.69 32.50 48.22 Z" />
<path fill="#f06b07" opacity="1.00" d=" M 48.29 49.26 C 48.77 49.84 48.77 49.84 48.29 49.26 Z" />
<path fill="#f06b07" opacity="1.00" d=" M 65.38 65.10 C 66.55 66.25 64.95 70.08 63.10 69.59 C 62.83 67.89 64.13 66.14 65.38 65.10 Z" />
<path fill="#f06b07" opacity="1.00" d=" M 46.00 71.94 C 47.20 72.12 48.41 72.30 49.61 72.48 C 52.40 78.59 52.25 85.38 52.97 91.92 C 53.29 92.57 53.95 93.86 54.27 94.51 C 54.76 93.78 55.26 93.06 55.77 92.35 C 55.69 93.77 55.64 95.20 55.62 96.62 C 53.86 96.59 52.09 96.59 50.32 96.62 C 50.34 95.99 50.36 94.74 50.37 94.11 L 51.65 94.63 C 51.56 93.80 51.37 92.13 51.28 91.30 L 52.48 91.25 C 52.50 90.28 52.54 88.34 52.56 87.37 L 51.33 87.88 C 51.42 86.18 51.48 84.48 51.55 82.77 C 51.04 82.56 50.02 82.13 49.51 81.92 L 51.54 81.21 C 51.11 80.65 50.68 80.09 50.25 79.53 C 50.14 78.70 49.94 77.02 49.84 76.19 C 48.65 75.97 47.45 76.83 46.91 77.83 C 45.77 82.93 48.08 88.81 45.80 93.62 C 47.21 86.97 44.85 79.94 47.26 73.51 C 46.95 73.12 46.32 72.33 46.00 71.94 Z" />
</g>
<g id="#f3af03ff">
<path fill="#f3af03" opacity="1.00" d=" M 38.18 33.16 C 38.43 32.42 38.93 30.92 39.18 30.17 C 40.81 32.66 42.56 35.07 44.48 37.33 C 42.27 39.87 39.41 41.83 37.68 44.78 C 37.03 43.61 36.39 42.44 35.75 41.26 C 36.82 38.65 37.83 35.98 38.18 33.16 Z" />
<path fill="#f3af03" opacity="1.00" d=" M 65.46 47.54 L 66.11 48.57 C 66.99 50.09 68.04 51.50 69.12 52.87 C 70.30 53.79 71.50 54.68 72.69 55.59 L 73.96 56.57 C 72.87 57.15 71.76 57.66 70.63 58.13 C 68.48 57.19 66.58 55.77 64.57 54.57 C 64.73 53.12 64.94 51.68 65.15 50.24 C 65.23 49.56 65.38 48.21 65.46 47.54 Z" />
<path fill="#f3af03" opacity="1.00" d=" M 54.19 52.24 C 57.51 52.60 52.47 55.10 54.19 52.24 Z" />
<path fill="#f3af03" opacity="1.00" d=" M 58.09 54.20 C 59.46 53.55 60.71 55.80 58.91 56.07 C 57.53 56.74 56.29 54.48 58.09 54.20 Z" />
</g>
<g id="#fcf3afff">
<path fill="#fcf3af" opacity="1.00" d=" M 43.35 40.42 C 44.93 37.39 47.73 35.50 50.74 34.09 C 50.31 34.65 49.44 35.76 49.01 36.32 L 48.92 36.45 C 48.97 36.43 49.08 36.39 49.13 36.38 L 49.98 38.27 L 48.68 37.04 L 47.70 36.04 C 47.23 37.07 46.77 38.11 46.31 39.15 C 47.82 41.53 48.80 44.17 49.87 46.75 C 50.11 47.91 50.37 49.06 50.67 50.21 C 51.31 51.61 51.96 53.01 52.56 54.43 C 54.45 58.65 59.62 57.09 63.13 56.24 C 65.34 57.07 68.11 57.53 69.29 59.85 C 70.09 61.50 70.77 63.23 71.18 65.03 C 71.18 68.14 69.88 71.09 69.85 74.20 C 70.27 76.51 71.70 78.55 71.75 80.93 C 71.83 84.53 71.64 88.13 71.71 91.73 C 70.56 91.62 69.41 91.51 68.26 91.40 C 69.09 87.71 69.89 83.81 68.83 80.08 C 67.95 77.84 65.91 76.36 64.36 74.61 C 64.05 73.29 64.08 71.84 63.37 70.64 C 61.69 69.77 59.70 69.82 57.88 69.42 C 57.22 72.14 56.63 74.86 56.10 77.60 C 55.89 78.25 55.67 78.90 55.46 79.55 C 55.69 82.95 55.00 86.36 55.59 89.74 L 56.93 90.95 L 55.77 92.35 C 55.26 93.06 54.76 93.78 54.27 94.51 C 53.95 93.86 53.29 92.57 52.97 91.92 C 52.25 85.38 52.40 78.59 49.61 72.48 C 48.41 72.30 47.20 72.12 46.00 71.94 C 46.32 72.33 46.95 73.12 47.26 73.51 C 44.85 79.94 47.21 86.97 45.80 93.62 C 44.76 93.23 43.72 92.84 42.68 92.45 C 44.04 86.03 41.36 79.74 42.27 73.33 C 41.81 72.64 41.34 71.95 40.86 71.28 C 40.74 64.36 44.03 57.91 43.32 50.92 C 41.25 51.17 39.18 51.40 37.11 51.67 C 35.69 51.82 34.26 51.95 32.84 52.07 C 32.96 50.94 33.11 49.81 33.28 48.69 C 33.58 48.20 34.18 47.22 34.48 46.73 L 34.72 46.28 C 34.82 45.78 35.02 44.79 35.12 44.29 C 35.97 44.46 36.82 44.65 37.68 44.78 C 39.76 43.59 41.60 42.04 43.35 40.42 M 42.09 42.96 C 41.59 44.41 41.10 45.86 40.67 47.33 C 43.24 47.32 44.94 45.39 45.44 43.03 C 44.61 43.01 42.93 42.98 42.09 42.96 M 48.29 49.26 C 48.77 49.84 48.77 49.84 48.29 49.26 M 65.38 65.10 C 64.13 66.14 62.83 67.89 63.10 69.59 C 64.95 70.08 66.55 66.25 65.38 65.10 Z" />
<path fill="#fcf3af" opacity="1.00" d=" M 58.97 75.54 C 60.04 75.05 61.13 74.57 62.22 74.11 C 62.97 75.27 63.75 76.42 64.56 77.55 C 65.82 81.48 63.56 85.66 65.12 89.42 C 64.19 89.98 63.26 90.52 62.33 91.06 C 62.18 86.92 62.22 82.77 62.36 78.63 C 61.24 77.59 60.11 76.56 58.97 75.54 Z" />
</g>
</svg>
