<?xml version="1.0" encoding="UTF-8" ?>
<!DOCTYPE svg PUBLIC "-//W3C//DTD SVG 1.1//EN" "http://www.w3.org/Graphics/SVG/1.1/DTD/svg11.dtd">
<svg width="96pt" height="96pt" viewBox="0 0 96 96" version="1.1" xmlns="http://www.w3.org/2000/svg">
<g id="#c5395aff">
<path fill="#c5395a" opacity="1.00" d=" M 40.35 28.15 C 42.83 27.58 45.32 28.73 47.44 29.90 C 45.39 29.72 43.32 29.17 41.25 29.40 C 39.51 30.03 38.13 31.34 36.63 32.40 C 37.71 30.85 38.88 29.34 40.35 28.15 Z" />
<path fill="#c5395a" opacity="1.00" d=" M 51.32 33.09 C 51.52 33.55 51.93 34.46 52.13 34.91 C 51.65 37.77 50.96 40.60 50.27 43.42 L 50.09 44.06 C 49.38 46.16 48.47 48.20 47.18 50.02 C 47.16 48.79 47.12 47.56 47.06 46.34 C 45.77 46.93 44.67 48.23 43.19 48.19 C 42.78 47.74 41.95 46.84 41.54 46.39 C 42.48 45.25 43.44 44.11 44.40 42.98 L 45.08 42.96 C 47.42 43.46 48.60 41.21 48.03 39.19 L 48.01 38.56 C 49.66 37.10 51.01 35.33 51.32 33.09 Z" />
<path fill="#c5395a" opacity="1.00" d=" M 43.87 53.95 C 45.68 53.42 47.48 52.87 49.23 52.17 L 49.15 52.83 C 47.20 55.09 45.06 57.21 42.66 59.01 C 42.32 59.08 41.64 59.24 41.30 59.32 C 40.84 58.03 39.83 56.50 40.87 55.21 C 41.78 54.60 42.86 54.34 43.87 53.95 Z" />
</g>
<g id="#f6d5c5ff">
<path fill="#f6d5c5" opacity="1.00" d=" M 41.25 29.40 C 43.32 29.17 45.39 29.72 47.44 29.90 C 47.20 31.96 46.60 33.96 45.82 35.87 L 45.00 35.58 C 42.17 34.64 39.40 33.52 36.63 32.40 C 38.13 31.34 39.51 30.03 41.25 29.40 Z" />
</g>
<g id="#ff6262ff">
<path fill="#ff6262" opacity="1.00" d=" M 47.44 29.90 C 49.03 30.56 50.22 31.82 51.32 33.09 C 51.01 35.33 49.66 37.10 48.01 38.56 C 47.30 37.65 46.57 36.76 45.82 35.87 C 46.60 33.96 47.20 31.96 47.44 29.90 Z" />
<path fill="#ff6262" opacity="1.00" d=" M 41.73 40.64 C 42.61 41.43 43.50 42.21 44.40 42.98 C 43.44 44.11 42.48 45.25 41.54 46.39 C 41.22 46.01 40.57 45.24 40.25 44.86 C 40.75 43.45 41.25 42.05 41.73 40.64 Z" />
<path fill="#ff6262" opacity="1.00" d=" M 50.09 44.06 C 51.43 45.33 53.30 45.20 54.81 44.34 C 55.30 44.32 56.28 44.26 56.77 44.23 C 57.10 44.75 57.77 45.78 58.11 46.29 C 58.08 46.66 58.03 47.39 58.01 47.75 C 55.22 48.96 52.48 50.29 49.86 51.82 L 49.23 52.17 C 47.48 52.87 45.68 53.42 43.87 53.95 C 45.05 52.70 46.19 51.41 47.18 50.02 C 48.47 48.20 49.38 46.16 50.09 44.06 Z" />
</g>
<g id="#0f3542ff">
<path fill="#0f3542" opacity="1.00" d=" M 61.47 31.08 C 63.94 30.46 65.03 34.77 63.18 35.85 C 62.83 34.83 62.45 33.82 62.04 32.82 C 61.87 32.48 61.54 31.79 61.37 31.45 L 61.47 31.08 Z" />
</g>
<g id="#eeac9cff">
<path fill="#eeac9c" opacity="1.00" d=" M 35.95 32.15 L 36.63 32.40 C 39.40 33.52 42.17 34.64 45.00 35.58 C 43.39 36.90 42.20 38.60 41.73 40.64 C 41.25 42.05 40.75 43.45 40.25 44.86 C 38.12 44.17 35.97 43.56 33.80 42.99 L 32.92 42.76 C 33.35 41.53 33.72 40.29 34.11 39.05 C 35.65 37.76 36.38 35.81 35.88 33.83 L 35.91 33.02 L 35.95 32.15 Z" />
</g>
<g id="#56b8e1ff">
<path fill="#56b8e1" opacity="1.00" d=" M 60.08 32.79 C 60.40 32.46 61.05 31.78 61.37 31.45 C 61.54 31.79 61.87 32.48 62.04 32.82 C 60.50 36.71 59.52 40.96 56.77 44.23 C 56.28 44.26 55.30 44.32 54.81 44.34 L 55.01 43.69 C 57.26 40.34 59.04 36.70 60.08 32.79 Z" />
</g>
<g id="#723041d8">
<path fill="#723041" opacity="0.85" d=" M 32.22 43.23 C 33.12 39.91 32.13 34.55 35.91 33.02 L 35.88 33.83 C 34.31 35.10 33.52 37.07 34.11 39.05 C 33.72 40.29 33.35 41.53 32.92 42.76 L 32.22 43.23 Z" />
</g>
<g id="#196983ed">
<path fill="#196983" opacity="0.93" d=" M 55.01 43.69 C 55.80 39.77 57.62 35.94 60.08 32.79 C 59.04 36.70 57.26 40.34 55.01 43.69 Z" />
</g>
<g id="#0883a4ff">
<path fill="#0883a4" opacity="1.00" d=" M 62.04 32.82 C 62.45 33.82 62.83 34.83 63.18 35.85 L 62.67 36.82 C 61.98 37.74 61.71 38.77 61.87 39.91 L 61.61 40.88 C 60.90 41.75 60.67 42.73 60.91 43.82 L 60.99 44.79 C 60.54 45.98 59.43 47.48 58.11 46.29 C 57.77 45.78 57.10 44.75 56.77 44.23 C 59.52 40.96 60.50 36.71 62.04 32.82 Z" />
<path fill="#0883a4" opacity="1.00" d=" M 32.22 43.23 L 32.92 42.76 L 33.80 42.99 C 33.51 44.90 33.19 46.82 33.12 48.76 C 34.36 49.48 35.66 50.08 37.01 50.54 C 38.52 48.92 39.32 46.82 40.25 44.86 C 40.57 45.24 41.22 46.01 41.54 46.39 C 41.95 46.84 42.78 47.74 43.19 48.19 C 44.67 48.23 45.77 46.93 47.06 46.34 C 47.12 47.56 47.16 48.79 47.18 50.02 C 46.19 51.41 45.05 52.70 43.87 53.95 C 42.86 54.34 41.78 54.60 40.87 55.21 C 39.83 56.50 40.84 58.03 41.30 59.32 C 39.24 58.84 37.58 57.47 36.69 55.56 C 36.60 55.40 36.42 55.10 36.33 54.94 L 35.78 54.00 C 35.03 52.22 32.79 52.56 31.24 52.15 C 30.30 51.53 29.55 50.74 28.99 49.76 C 28.99 49.36 28.99 48.56 28.99 48.16 C 29.21 47.83 29.65 47.19 29.87 46.86 C 29.68 47.96 30.14 50.62 31.79 49.71 C 32.81 48.56 31.92 47.00 31.21 45.97 C 31.45 45.02 31.79 44.11 32.22 43.23 M 40.89 49.47 C 39.29 49.41 35.37 52.34 39.03 52.12 C 38.76 54.60 42.36 52.20 39.78 51.73 C 40.81 51.61 43.37 49.04 40.89 49.47 M 33.11 50.28 C 31.63 53.33 36.44 50.32 33.11 50.28 Z" />
<path fill="#0883a4" opacity="1.00" d=" M 45.84 64.04 C 47.94 61.27 50.44 58.82 53.18 56.69 C 55.43 56.83 57.67 56.94 59.92 57.06 C 60.26 57.48 60.95 58.32 61.29 58.74 C 60.86 59.38 60.01 60.65 59.59 61.29 C 59.44 61.37 59.15 61.53 59.01 61.61 L 58.06 61.88 C 57.57 62.12 56.58 62.61 56.08 62.85 C 55.68 63.05 54.89 63.44 54.49 63.64 C 54.39 63.67 54.20 63.73 54.10 63.76 L 53.02 64.14 C 52.77 64.26 52.25 64.48 52.00 64.60 L 50.90 65.19 C 50.69 65.31 50.25 65.53 50.04 65.65 L 48.96 66.19 C 48.76 66.28 48.36 66.47 48.17 66.56 L 47.14 67.00 C 46.61 66.71 45.55 66.12 45.02 65.82 C 45.22 65.38 45.63 64.49 45.84 64.04 Z" />
</g>
<g id="#fbeae5ff">
<path fill="#fbeae5" opacity="1.00" d=" M 34.11 39.05 C 33.52 37.07 34.31 35.10 35.88 33.83 C 36.38 35.81 35.65 37.76 34.11 39.05 Z" />
</g>
<g id="#270b12ff">
<path fill="#270b12" opacity="1.00" d=" M 52.13 34.91 C 53.91 36.75 51.89 39.89 51.75 42.17 L 51.60 42.73 C 51.27 42.90 50.60 43.25 50.27 43.42 C 50.96 40.60 51.65 37.77 52.13 34.91 Z" />
</g>
<g id="#ffffffff">
<path fill="#ffffff" opacity="1.00" d=" M 41.73 40.64 C 42.20 38.60 43.39 36.90 45.00 35.58 L 45.82 35.87 C 46.57 36.76 47.30 37.65 48.01 38.56 L 48.03 39.19 C 46.62 40.06 45.61 41.40 45.08 42.96 L 44.40 42.98 C 43.50 42.21 42.61 41.43 41.73 40.64 M 45.18 39.19 C 45.87 39.87 45.87 39.87 45.18 39.19 Z" />
</g>
<g id="#000000ff">
<path fill="#000000" opacity="1.00" d=" M 61.87 39.91 C 61.71 38.77 61.98 37.74 62.67 36.82 C 63.70 38.29 63.43 39.32 61.87 39.91 Z" />
<path fill="#000000" opacity="1.00" d=" M 45.18 39.19 C 45.87 39.87 45.87 39.87 45.18 39.19 Z" />
<path fill="#000000" opacity="1.00" d=" M 60.91 43.82 C 60.67 42.73 60.90 41.75 61.61 40.88 C 62.70 42.31 62.47 43.29 60.91 43.82 Z" />
<path fill="#000000" opacity="1.00" d=" M 28.19 48.14 L 28.99 48.16 C 28.99 48.56 28.99 49.36 28.99 49.76 L 28.20 49.80 L 27.74 48.98 L 28.19 48.14 Z" />
<path fill="#000000" opacity="1.00" d=" M 33.11 50.28 C 36.44 50.32 31.63 53.33 33.11 50.28 Z" />
<path fill="#000000" opacity="1.00" d=" M 36.33 54.94 C 36.42 55.10 36.60 55.40 36.69 55.56 C 36.60 55.40 36.42 55.10 36.33 54.94 Z" />
<path fill="#000000" opacity="1.00" d=" M 59.01 61.61 C 59.15 61.53 59.44 61.37 59.59 61.29 C 59.44 61.37 59.15 61.53 59.01 61.61 Z" />
<path fill="#000000" opacity="1.00" d=" M 56.08 62.85 C 56.58 62.61 57.57 62.12 58.06 61.88 L 57.89 62.76 C 57.44 62.78 56.53 62.83 56.08 62.85 Z" />
<path fill="#000000" opacity="1.00" d=" M 54.10 63.76 C 54.20 63.73 54.39 63.67 54.49 63.64 L 54.10 63.76 Z" />
<path fill="#000000" opacity="1.00" d=" M 52.00 64.60 C 52.25 64.48 52.77 64.26 53.02 64.14 C 52.77 64.26 52.25 64.48 52.00 64.60 Z" />
<path fill="#000000" opacity="1.00" d=" M 50.04 65.65 C 50.25 65.53 50.69 65.31 50.90 65.19 C 50.69 65.31 50.25 65.53 50.04 65.65 Z" />
<path fill="#000000" opacity="1.00" d=" M 48.17 66.56 C 48.36 66.47 48.76 66.28 48.96 66.19 C 48.76 66.28 48.36 66.47 48.17 66.56 Z" />
</g>
<g id="#c5c5c5ff">
<path fill="#c5c5c5" opacity="1.00" d=" M 45.08 42.96 C 45.61 41.40 46.62 40.06 48.03 39.19 C 48.60 41.21 47.42 43.46 45.08 42.96 Z" />
</g>
<g id="#d16075ff">
<path fill="#d16075" opacity="1.00" d=" M 51.75 42.17 C 53.16 41.92 54.25 42.42 55.01 43.69 L 54.81 44.34 C 53.68 43.94 52.61 43.40 51.60 42.73 L 51.75 42.17 Z" />
</g>
<g id="#8bd5eeff">
<path fill="#8bd5ee" opacity="1.00" d=" M 33.80 42.99 C 35.97 43.56 38.12 44.17 40.25 44.86 C 39.32 46.82 38.52 48.92 37.01 50.54 C 35.66 50.08 34.36 49.48 33.12 48.76 C 33.19 46.82 33.51 44.90 33.80 42.99 Z" />
<path fill="#8bd5ee" opacity="1.00" d=" M 49.15 52.83 L 49.73 53.34 C 50.92 54.42 52.05 55.56 53.18 56.69 C 50.44 58.82 47.94 61.27 45.84 64.04 C 44.66 63.04 43.51 62.03 42.36 61.01 C 42.44 60.51 42.59 59.51 42.66 59.01 C 45.06 57.21 47.20 55.09 49.15 52.83 Z" />
</g>
<g id="#efb3a3ff">
<path fill="#efb3a3" opacity="1.00" d=" M 50.27 43.42 C 50.60 43.25 51.27 42.90 51.60 42.73 C 52.61 43.40 53.68 43.94 54.81 44.34 C 53.30 45.20 51.43 45.33 50.09 44.06 L 50.27 43.42 Z" />
</g>
<g id="#1c1821ff">
<path fill="#1c1821" opacity="1.00" d=" M 58.11 46.29 C 59.43 47.48 60.54 45.98 60.99 44.79 C 61.19 46.92 60.20 49.44 57.85 49.77 C 57.89 49.27 57.97 48.26 58.01 47.75 C 58.03 47.39 58.08 46.66 58.11 46.29 Z" />
</g>
<g id="#78c3dcff">
<path fill="#78c3dc" opacity="1.00" d=" M 29.87 46.86 C 30.20 46.64 30.87 46.19 31.21 45.97 C 31.92 47.00 32.81 48.56 31.79 49.71 C 30.14 50.62 29.68 47.96 29.87 46.86 Z" />
</g>
<g id="#c13859ff">
<path fill="#c13859" opacity="1.00" d=" M 49.86 51.82 C 52.48 50.29 55.22 48.96 58.01 47.75 C 57.97 48.26 57.89 49.27 57.85 49.77 C 57.57 50.11 57.01 50.80 56.72 51.15 C 56.42 51.39 55.80 51.88 55.49 52.13 L 54.85 52.32 C 53.20 52.02 51.54 51.75 49.86 51.82 Z" />
</g>
<g id="#0e2e38ff">
<path fill="#0e2e38" opacity="1.00" d=" M 40.89 49.47 C 43.37 49.04 40.81 51.61 39.78 51.73 L 39.03 52.12 C 35.37 52.34 39.29 49.41 40.89 49.47 Z" />
</g>
<g id="#031e26ff">
<path fill="#031e26" opacity="1.00" d=" M 55.49 52.13 C 55.80 51.88 56.42 51.39 56.72 51.15 C 57.05 51.47 57.69 52.12 58.01 52.44 L 57.67 53.17 C 57.12 52.91 56.03 52.39 55.49 52.13 Z" />
</g>
<g id="#000000d5">
<path fill="#000000" opacity="0.84" d=" M 31.24 52.15 C 32.79 52.56 35.03 52.22 35.78 54.00 C 34.37 54.65 30.95 54.14 31.24 52.15 Z" />
</g>
<g id="#5abde6ff">
<path fill="#5abde6" opacity="1.00" d=" M 39.03 52.12 L 39.78 51.73 C 42.36 52.20 38.76 54.60 39.03 52.12 Z" />
</g>
<g id="#085a73ff">
<path fill="#085a73" opacity="1.00" d=" M 49.23 52.17 L 49.86 51.82 C 51.54 51.75 53.20 52.02 54.85 52.32 C 53.22 52.98 51.51 53.51 49.73 53.34 L 49.15 52.83 L 49.23 52.17 Z" />
</g>
<g id="#08acd5ff">
<path fill="#08acd5" opacity="1.00" d=" M 54.85 52.32 L 55.49 52.13 C 56.03 52.39 57.12 52.91 57.67 53.17 C 58.01 53.48 58.69 54.10 59.03 54.42 C 59.34 55.29 59.63 56.17 59.92 57.06 C 57.67 56.94 55.43 56.83 53.18 56.69 C 52.05 55.56 50.92 54.42 49.73 53.34 C 51.51 53.51 53.22 52.98 54.85 52.32 Z" />
</g>
<g id="#02252fff">
<path fill="#02252f" opacity="1.00" d=" M 59.03 54.42 C 60.95 53.94 63.32 57.70 61.29 58.74 C 60.95 58.32 60.26 57.48 59.92 57.06 C 59.63 56.17 59.34 55.29 59.03 54.42 Z" />
</g>
<g id="#042d3aff">
<path fill="#042d3a" opacity="1.00" d=" M 41.30 59.32 C 41.64 59.24 42.32 59.08 42.66 59.01 C 42.59 59.51 42.44 60.51 42.36 61.01 C 42.21 61.64 41.91 62.92 41.76 63.56 L 41.40 63.65 C 40.55 62.48 40.31 60.47 41.30 59.32 Z" />
</g>
<g id="#08a8d0ff">
<path fill="#08a8d0" opacity="1.00" d=" M 42.36 61.01 C 43.51 62.03 44.66 63.04 45.84 64.04 C 45.63 64.49 45.22 65.38 45.02 65.82 L 44.42 66.06 C 43.37 65.40 42.49 64.57 41.76 63.56 C 41.91 62.92 42.21 61.64 42.36 61.01 Z" />
</g>
<g id="#02171dff">
<path fill="#02171d" opacity="1.00" d=" M 44.42 66.06 L 45.02 65.82 C 45.55 66.12 46.61 66.71 47.14 67.00 C 46.98 68.94 43.43 67.69 44.42 66.06 Z" />
</g>
</svg>
