<?xml version="1.0" encoding="UTF-8" ?>
<!DOCTYPE svg PUBLIC "-//W3C//DTD SVG 1.1//EN" "http://www.w3.org/Graphics/SVG/1.1/DTD/svg11.dtd">
<svg width="120pt" height="120pt" viewBox="0 0 120 120" version="1.1" xmlns="http://www.w3.org/2000/svg">
<g id="#866c57ff">
<path fill="#866c57" opacity="1.00" d=" M 62.29 26.40 C 62.69 26.01 63.49 25.23 63.89 24.84 C 64.47 26.45 64.93 28.11 65.27 29.80 C 65.99 28.10 67.03 26.57 68.62 25.57 L 68.24 26.85 C 68.10 26.94 67.83 27.12 67.69 27.21 C 66.75 28.61 65.55 29.81 64.20 30.84 C 64.14 29.88 64.01 27.96 63.95 27.00 L 63.30 27.00 C 62.79 28.48 62.27 29.96 61.75 31.43 C 60.76 30.83 59.76 30.22 58.76 29.63 C 59.91 29.45 61.07 29.28 62.23 29.13 C 62.25 28.45 62.27 27.08 62.29 26.40 Z" />
<path fill="#866c57" opacity="1.00" d=" M 75.87 26.05 C 76.48 27.43 76.90 28.87 77.27 30.33 C 78.37 30.29 79.47 30.26 80.57 30.22 C 80.90 30.90 81.55 32.27 81.88 32.95 C 82.26 32.52 83.02 31.65 83.40 31.22 C 84.03 31.58 85.31 32.30 85.95 32.66 C 85.95 33.40 85.94 34.88 85.94 35.62 C 87.07 35.08 88.20 34.55 89.33 34.02 C 88.67 35.52 88.04 37.03 87.39 38.53 C 88.19 38.42 89.77 38.22 90.56 38.11 C 91.10 39.36 91.64 40.61 92.18 41.85 C 91.32 41.58 89.61 41.02 88.75 40.74 C 89.12 40.30 89.85 39.43 90.22 38.99 C 89.29 39.01 87.44 39.06 86.51 39.08 C 87.44 40.07 88.36 41.05 89.33 41.99 C 89.72 41.98 90.50 41.95 90.89 41.94 C 90.85 42.80 90.77 44.54 90.73 45.40 C 91.28 45.34 92.37 45.23 92.91 45.17 C 92.88 47.94 92.17 51.02 94.12 53.35 C 92.87 54.56 91.55 55.78 89.79 56.15 C 90.88 57.59 91.58 59.63 89.66 60.81 C 90.21 61.85 90.75 62.90 91.28 63.94 C 89.47 63.92 87.66 63.89 85.85 63.88 L 86.61 63.33 C 87.26 63.15 88.56 62.78 89.21 62.60 C 88.80 61.82 88.39 61.04 87.97 60.27 C 88.69 59.65 89.40 59.04 90.11 58.43 C 87.97 56.80 85.82 55.19 83.73 53.50 C 82.37 53.74 81.01 53.96 79.65 54.17 C 76.27 51.42 72.70 48.66 71.17 44.40 C 72.62 42.44 74.12 40.50 75.90 38.81 C 74.81 40.82 73.77 42.86 72.75 44.90 C 74.94 47.24 76.96 49.91 79.84 51.46 C 81.17 52.25 82.54 51.29 83.71 50.67 C 86.07 49.28 88.45 47.92 90.90 46.69 C 88.84 43.66 86.71 40.30 83.16 38.89 C 80.89 37.81 78.35 38.44 75.98 38.66 C 76.21 38.25 76.68 37.42 76.91 37.01 C 76.95 33.96 76.30 30.96 75.79 27.97 C 75.23 28.03 74.12 28.16 73.56 28.23 C 72.60 29.03 71.64 29.83 70.67 30.63 C 70.87 30.86 71.28 31.32 71.48 31.54 C 69.79 33.09 68.16 34.69 66.54 36.31 C 67.56 34.58 68.78 32.95 69.61 31.12 C 69.20 29.80 68.69 28.51 68.33 27.17 C 68.80 27.71 69.74 28.80 70.21 29.35 C 70.77 29.04 71.88 28.42 72.44 28.11 C 73.58 27.42 74.73 26.75 75.87 26.05 M 78.06 30.65 C 77.99 32.73 78.00 34.82 78.00 36.90 C 81.04 36.96 84.04 37.47 87.00 38.16 C 87.00 37.59 87.00 36.46 87.00 35.90 C 86.45 36.18 85.34 36.76 84.78 37.05 C 84.88 35.70 84.97 34.35 85.06 33.00 C 83.51 33.00 81.97 33.01 80.42 32.99 C 79.95 31.89 79.16 31.10 78.06 30.65 Z" />
<path fill="#866c57" opacity="1.00" d=" M 45.28 30.13 C 45.70 28.82 47.32 29.39 48.32 29.19 C 49.69 30.03 51.09 30.82 52.52 31.56 C 53.01 31.84 54.00 32.41 54.49 32.69 C 55.97 33.57 57.26 33.27 58.34 31.80 L 58.20 32.71 C 58.14 33.05 58.02 33.71 57.96 34.04 C 57.40 34.03 56.29 34.01 55.73 34.00 C 56.08 34.64 56.76 35.92 57.10 36.56 C 53.38 34.75 50.44 30.81 46.31 30.25 C 46.05 31.43 45.91 32.64 45.91 33.88 C 47.05 33.28 48.16 32.61 49.36 32.11 C 51.21 33.65 53.64 35.22 54.12 37.75 C 52.40 39.19 50.23 40.70 47.97 39.25 C 49.38 38.14 51.12 37.70 52.83 37.33 C 51.58 36.31 50.33 35.27 49.10 34.22 L 49.45 36.97 C 48.98 37.00 48.02 37.08 47.55 37.11 L 48.89 34.44 L 46.88 34.51 C 47.84 37.93 48.37 41.45 48.16 45.01 C 47.70 45.01 46.79 45.00 46.33 45.00 C 46.05 46.22 45.76 47.44 45.45 48.66 C 45.68 49.27 45.91 49.88 46.14 50.49 C 45.24 51.47 44.25 52.39 43.49 53.49 C 43.23 53.91 42.71 54.74 42.45 55.15 C 44.27 55.66 45.44 56.97 45.99 58.75 C 43.26 61.01 39.57 58.77 37.41 56.75 C 35.10 56.76 32.79 56.78 30.48 56.80 C 29.02 55.83 27.60 54.80 26.22 53.72 C 26.25 52.29 26.27 50.87 26.29 49.44 C 26.95 48.53 27.61 47.63 28.28 46.73 C 27.84 48.48 27.30 50.22 27.09 52.02 C 28.58 55.12 32.32 55.15 35.27 55.43 C 38.28 52.56 40.63 49.12 42.19 45.26 C 41.94 47.65 41.62 50.04 41.28 52.43 C 42.23 51.05 43.26 49.71 43.98 48.19 C 43.11 44.84 40.06 42.65 36.74 42.16 C 33.39 41.29 31.28 44.77 28.71 46.25 C 30.69 43.99 32.77 41.73 35.46 40.30 C 36.41 40.79 37.38 41.25 38.37 41.69 C 39.49 41.95 40.61 42.20 41.73 42.44 C 42.56 43.37 43.40 44.31 44.23 45.24 C 45.31 44.65 46.47 44.29 47.70 44.16 C 47.31 42.89 46.90 41.62 46.46 40.36 C 46.23 38.34 46.67 36.09 45.34 34.35 C 45.31 32.94 45.26 31.53 45.28 30.13 Z" />
<path fill="#866c57" opacity="1.00" d=" M 72.11 31.55 C 73.07 31.03 74.03 30.50 74.99 29.97 C 75.52 32.67 75.88 35.40 76.15 38.14 C 75.53 38.03 74.30 37.82 73.68 37.71 C 72.03 37.34 70.36 37.03 68.70 36.72 C 69.64 35.00 70.58 33.29 71.48 31.54 L 72.85 33.11 C 72.20 33.78 71.55 34.45 70.90 35.12 C 72.47 35.71 74.03 36.30 75.59 36.89 C 74.90 34.82 73.98 32.82 72.11 31.55 Z" />
<path fill="#866c57" opacity="1.00" d=" M 62.55 58.08 C 65.47 55.91 68.46 53.76 71.97 52.65 C 71.98 53.49 72.00 55.16 72.01 56.00 L 71.04 56.00 C 71.04 55.46 71.04 54.39 71.04 53.85 C 68.76 55.38 65.82 56.40 64.61 59.07 C 65.58 58.56 67.51 57.53 68.48 57.01 C 67.76 57.93 66.99 58.78 66.16 59.59 C 66.48 62.33 65.90 65.13 62.70 65.51 C 61.26 65.82 59.81 66.05 58.35 66.23 C 56.59 64.99 55.05 63.50 53.87 61.69 C 54.57 60.66 55.26 59.62 55.95 58.58 C 55.56 58.12 54.77 57.22 54.38 56.77 C 56.63 57.70 59.04 58.04 61.46 58.11 C 61.40 57.46 61.27 56.17 61.21 55.52 C 61.54 56.16 62.21 57.44 62.55 58.08 M 57.43 59.12 C 56.29 59.90 56.05 61.27 55.79 62.52 C 56.34 62.92 57.45 63.72 58.00 64.12 C 58.00 63.59 57.99 62.52 57.99 61.99 L 59.02 61.90 C 59.04 62.69 59.09 64.26 59.11 65.04 C 59.64 64.97 60.70 64.82 61.23 64.74 C 62.50 64.33 63.77 63.96 65.05 63.60 C 64.93 61.99 65.34 60.03 63.61 59.12 C 61.56 58.92 59.48 58.91 57.43 59.12 Z" />
<path fill="#866c57" opacity="1.00" d=" M 50.51 57.81 C 48.77 57.55 50.70 54.39 52.02 55.10 C 52.15 56.29 51.65 57.20 50.51 57.81 Z" />
<path fill="#866c57" opacity="1.00" d=" M 53.12 56.23 C 56.40 56.42 51.59 59.29 53.12 56.23 Z" />
<path fill="#866c57" opacity="1.00" d=" M 70.38 57.23 C 70.92 57.79 70.92 57.79 70.38 57.23 Z" />
<path fill="#866c57" opacity="1.00" d=" M 45.43 59.96 C 45.80 59.70 46.55 59.18 46.93 58.91 C 49.66 62.26 51.44 66.38 54.82 69.19 C 58.68 72.71 64.21 72.84 69.11 73.51 C 71.66 74.15 73.73 72.28 75.74 71.05 C 75.91 71.28 76.23 71.74 76.39 71.96 C 77.46 68.79 80.69 68.05 83.62 67.58 C 83.81 67.09 84.19 66.11 84.38 65.62 L 84.98 64.83 C 84.73 66.48 85.34 68.51 83.76 69.71 C 83.76 74.47 87.70 77.81 89.96 81.65 C 89.64 82.62 89.33 83.59 89.04 84.58 C 89.33 88.08 93.19 91.51 90.93 94.89 C 87.04 94.74 83.15 94.76 79.26 94.84 C 79.23 93.49 79.17 92.14 79.10 90.79 L 79.82 91.74 C 80.03 92.01 80.47 92.56 80.69 92.83 C 81.55 92.95 82.42 93.06 83.30 93.15 C 83.77 91.90 84.25 90.66 84.73 89.42 C 84.97 90.81 85.21 92.21 85.45 93.61 C 87.15 93.47 88.85 93.33 90.55 93.19 C 89.63 90.95 88.71 88.72 87.80 86.49 C 86.24 87.04 84.68 87.60 83.12 88.16 C 82.04 89.37 80.94 90.57 79.82 91.74 C 80.70 89.88 81.60 87.95 83.29 86.67 C 82.60 86.52 81.22 86.22 80.54 86.07 C 80.02 84.92 79.49 83.78 78.95 82.64 C 79.30 82.47 80.01 82.12 80.36 81.95 C 78.38 78.83 77.87 74.96 75.32 72.18 L 74.84 73.93 C 74.30 73.94 73.23 73.97 72.70 73.99 C 69.15 76.31 65.01 73.06 61.13 73.76 C 60.66 74.94 60.15 76.10 59.60 77.24 C 60.30 77.99 61.00 78.73 61.70 79.47 C 61.75 79.93 61.85 80.86 61.90 81.32 C 62.97 82.90 63.06 84.94 61.99 86.55 C 63.31 88.43 63.03 90.92 61.96 92.85 C 59.74 92.85 57.28 92.30 55.33 93.69 C 50.72 94.15 46.12 93.60 41.66 92.39 L 42.73 91.53 C 48.34 90.85 54.10 93.40 59.44 90.57 C 58.35 89.54 57.31 88.43 56.03 87.65 C 53.95 87.58 51.90 87.91 49.84 88.11 C 50.86 88.75 51.88 89.39 52.90 90.03 C 49.38 90.39 45.85 90.44 42.33 90.18 C 43.36 89.59 44.41 89.01 45.46 88.45 C 48.15 87.96 51.29 87.85 53.23 85.64 C 53.85 81.52 52.28 77.04 54.19 73.17 C 54.22 72.49 54.29 71.12 54.32 70.43 C 52.63 68.96 51.05 67.36 49.82 65.49 C 48.70 63.84 47.73 62.09 47.03 60.23 L 45.43 59.96 M 78.39 71.47 C 77.84 74.48 80.12 76.54 81.95 78.55 C 82.43 78.14 83.38 77.31 83.86 76.89 C 83.23 74.39 82.75 71.85 82.33 69.31 C 81.02 70.04 79.71 70.76 78.39 71.47 M 55.46 72.34 C 54.37 74.39 53.85 76.64 54.46 78.92 C 55.70 78.31 56.99 78.17 58.29 78.66 C 58.75 77.08 59.20 75.51 59.66 73.94 C 58.25 73.41 56.85 72.88 55.46 72.34 Z" />
<path fill="#866c57" opacity="1.00" d=" M 61.08 61.51 C 64.37 61.62 59.60 64.56 61.08 61.51 Z" />
</g>
<g id="#f4e3d5ff">
<path fill="#f4e3d5" opacity="1.00" d=" M 63.30 27.00 L 63.95 27.00 C 64.01 27.96 64.14 29.88 64.20 30.84 C 65.55 29.81 66.75 28.61 67.69 27.21 C 67.83 27.12 68.10 26.94 68.24 26.85 L 68.33 27.17 C 68.69 28.51 69.20 29.80 69.61 31.12 C 68.78 32.95 67.56 34.58 66.54 36.31 C 68.16 34.69 69.79 33.09 71.48 31.54 C 70.58 33.29 69.64 35.00 68.70 36.72 C 70.36 37.03 72.03 37.34 73.68 37.71 C 74.30 37.82 75.53 38.03 76.15 38.14 C 75.88 35.40 75.52 32.67 74.99 29.97 C 74.03 30.50 73.07 31.03 72.11 31.55 C 73.98 32.82 74.90 34.82 75.59 36.89 C 74.03 36.30 72.47 35.71 70.90 35.12 C 71.55 34.45 72.20 33.78 72.85 33.11 L 71.48 31.54 C 71.28 31.32 70.87 30.86 70.67 30.63 C 71.64 29.83 72.60 29.03 73.56 28.23 C 74.12 28.16 75.23 28.03 75.79 27.97 C 76.30 30.96 76.95 33.96 76.91 37.01 C 76.68 37.42 76.21 38.25 75.98 38.66 L 75.90 38.81 C 74.12 40.50 72.62 42.44 71.17 44.40 C 72.70 48.66 76.27 51.42 79.65 54.17 C 81.01 53.96 82.37 53.74 83.73 53.50 C 85.82 55.19 87.97 56.80 90.11 58.43 C 89.40 59.04 88.69 59.65 87.97 60.27 C 88.39 61.04 88.80 61.82 89.21 62.60 C 88.56 62.78 87.26 63.15 86.61 63.33 L 85.85 63.88 C 85.63 64.12 85.20 64.59 84.98 64.83 L 84.38 65.62 C 84.19 66.11 83.81 67.09 83.62 67.58 C 80.69 68.05 77.46 68.79 76.39 71.96 C 76.23 71.74 75.91 71.28 75.74 71.05 C 73.73 72.28 71.66 74.15 69.11 73.51 C 64.21 72.84 58.68 72.71 54.82 69.19 C 51.44 66.38 49.66 62.26 46.93 58.91 C 46.09 57.84 45.81 56.50 45.48 55.21 C 44.91 55.22 43.78 55.25 43.21 55.26 L 43.49 53.49 C 44.25 52.39 45.24 51.47 46.14 50.49 C 45.91 49.88 45.68 49.27 45.45 48.66 C 45.76 47.44 46.05 46.22 46.33 45.00 C 46.79 45.00 47.70 45.01 48.16 45.01 C 48.37 41.45 47.84 37.93 46.88 34.51 L 48.89 34.44 L 47.55 37.11 C 48.02 37.08 48.98 37.00 49.45 36.97 L 49.10 34.22 C 50.33 35.27 51.58 36.31 52.83 37.33 C 51.12 37.70 49.38 38.14 47.97 39.25 C 50.23 40.70 52.40 39.19 54.12 37.75 C 53.64 35.22 51.21 33.65 49.36 32.11 C 48.16 32.61 47.05 33.28 45.91 33.88 C 45.91 32.64 46.05 31.43 46.31 30.25 C 50.44 30.81 53.38 34.75 57.10 36.56 C 56.76 35.92 56.08 34.64 55.73 34.00 C 56.29 34.01 57.40 34.03 57.96 34.04 C 58.02 33.71 58.14 33.05 58.20 32.71 C 58.34 31.94 58.62 30.40 58.76 29.63 C 59.76 30.22 60.76 30.83 61.75 31.43 C 62.27 29.96 62.79 28.48 63.30 27.00 M 66.27 31.33 C 66.78 31.85 66.78 31.85 66.27 31.33 M 61.06 54.58 C 62.27 55.13 63.51 53.16 62.75 52.19 C 61.54 51.63 60.25 53.60 61.06 54.58 M 62.55 58.08 C 62.21 57.44 61.54 56.16 61.21 55.52 C 61.27 56.17 61.40 57.46 61.46 58.11 C 59.04 58.04 56.63 57.70 54.38 56.77 C 54.77 57.22 55.56 58.12 55.95 58.58 C 55.26 59.62 54.57 60.66 53.87 61.69 C 55.05 63.50 56.59 64.99 58.35 66.23 C 59.81 66.05 61.26 65.82 62.70 65.51 C 65.90 65.13 66.48 62.33 66.16 59.59 C 66.99 58.78 67.76 57.93 68.48 57.01 C 67.51 57.53 65.58 58.56 64.61 59.07 C 65.82 56.40 68.76 55.38 71.04 53.85 C 71.04 54.39 71.04 55.46 71.04 56.00 L 72.01 56.00 C 72.00 55.16 71.98 53.49 71.97 52.65 C 68.46 53.76 65.47 55.91 62.55 58.08 M 49.27 54.20 C 49.78 54.72 49.78 54.72 49.27 54.20 M 50.51 57.81 C 51.65 57.20 52.15 56.29 52.02 55.10 C 50.70 54.39 48.77 57.55 50.51 57.81 M 53.12 56.23 C 51.59 59.29 56.40 56.42 53.12 56.23 M 70.38 57.23 C 70.92 57.79 70.92 57.79 70.38 57.23 Z" />
<path fill="#f4e3d5" opacity="1.00" d=" M 78.06 30.65 C 79.16 31.10 79.95 31.89 80.42 32.99 C 81.97 33.01 83.51 33.00 85.06 33.00 C 84.97 34.35 84.88 35.70 84.78 37.05 C 85.34 36.76 86.45 36.18 87.00 35.90 C 87.00 36.46 87.00 37.59 87.00 38.16 C 84.04 37.47 81.04 36.96 78.00 36.90 C 78.00 34.82 77.99 32.73 78.06 30.65 Z" />
<path fill="#f4e3d5" opacity="1.00" d=" M 86.51 39.08 C 87.44 39.06 89.29 39.01 90.22 38.99 C 89.85 39.43 89.12 40.30 88.75 40.74 C 89.61 41.02 91.32 41.58 92.18 41.85 C 91.85 41.88 91.21 41.92 90.89 41.94 C 90.50 41.95 89.72 41.98 89.33 41.99 C 88.36 41.05 87.44 40.07 86.51 39.08 Z" />
<path fill="#f4e3d5" opacity="1.00" d=" M 57.43 59.12 C 59.48 58.91 61.56 58.92 63.61 59.12 C 65.34 60.03 64.93 61.99 65.05 63.60 C 63.77 63.96 62.50 64.33 61.23 64.74 C 60.70 64.82 59.64 64.97 59.11 65.04 C 59.09 64.26 59.04 62.69 59.02 61.90 L 57.99 61.99 C 57.99 62.52 58.00 63.59 58.00 64.12 C 57.45 63.72 56.34 62.92 55.79 62.52 C 56.05 61.27 56.29 59.90 57.43 59.12 M 61.08 61.51 C 59.60 64.56 64.37 61.62 61.08 61.51 Z" />
</g>
<g id="#cfa986ff">
<path fill="#cfa986" opacity="1.00" d=" M 66.27 31.33 C 66.78 31.85 66.78 31.85 66.27 31.33 Z" />
<path fill="#cfa986" opacity="1.00" d=" M 75.98 38.66 C 78.35 38.44 80.89 37.81 83.16 38.89 C 86.71 40.30 88.84 43.66 90.90 46.69 C 88.45 47.92 86.07 49.28 83.71 50.67 C 82.54 51.29 81.17 52.25 79.84 51.46 C 76.96 49.91 74.94 47.24 72.75 44.90 C 73.77 42.86 74.81 40.82 75.90 38.81 L 75.98 38.66 Z" />
<path fill="#cfa986" opacity="1.00" d=" M 28.71 46.25 C 31.28 44.77 33.39 41.29 36.74 42.16 C 40.06 42.65 43.11 44.84 43.98 48.19 C 43.26 49.71 42.23 51.05 41.28 52.43 C 41.62 50.04 41.94 47.65 42.19 45.26 C 40.63 49.12 38.28 52.56 35.27 55.43 C 32.32 55.15 28.58 55.12 27.09 52.02 C 27.30 50.22 27.84 48.48 28.28 46.73 L 28.33 46.53 L 28.71 46.25 Z" />
<path fill="#cfa986" opacity="1.00" d=" M 61.06 54.58 C 60.25 53.60 61.54 51.63 62.75 52.19 C 63.51 53.16 62.27 55.13 61.06 54.58 Z" />
<path fill="#cfa986" opacity="1.00" d=" M 49.27 54.20 C 49.78 54.72 49.78 54.72 49.27 54.20 Z" />
<path fill="#cfa986" opacity="1.00" d=" M 78.39 71.47 C 79.71 70.76 81.02 70.04 82.33 69.31 C 82.75 71.85 83.23 74.39 83.86 76.89 C 83.38 77.31 82.43 78.14 81.95 78.55 C 80.12 76.54 77.84 74.48 78.39 71.47 Z" />
<path fill="#cfa986" opacity="1.00" d=" M 55.46 72.34 C 56.85 72.88 58.25 73.41 59.66 73.94 C 59.20 75.51 58.75 77.08 58.29 78.66 C 56.99 78.17 55.70 78.31 54.46 78.92 C 53.85 76.64 54.37 74.39 55.46 72.34 Z" />
<path fill="#cfa986" opacity="1.00" d=" M 83.12 88.16 C 84.68 87.60 86.24 87.04 87.80 86.49 C 88.71 88.72 89.63 90.95 90.55 93.19 C 88.85 93.33 87.15 93.47 85.45 93.61 C 85.21 92.21 84.97 90.81 84.73 89.42 C 84.25 90.66 83.77 91.90 83.30 93.15 C 82.42 93.06 81.55 92.95 80.69 92.83 C 80.47 92.56 80.03 92.01 79.82 91.74 C 80.94 90.57 82.04 89.37 83.12 88.16 Z" />
<path fill="#cfa986" opacity="1.00" d=" M 49.84 88.11 C 51.90 87.91 53.95 87.58 56.03 87.65 C 57.31 88.43 58.35 89.54 59.44 90.57 C 54.10 93.40 48.34 90.85 42.73 91.53 C 42.63 91.20 42.43 90.52 42.33 90.18 C 45.85 90.44 49.38 90.39 52.90 90.03 C 51.88 89.39 50.86 88.75 49.84 88.11 Z" />
</g>
</svg>
