<?xml version="1.0" encoding="UTF-8" ?>
<!DOCTYPE svg PUBLIC "-//W3C//DTD SVG 1.1//EN" "http://www.w3.org/Graphics/SVG/1.1/DTD/svg11.dtd">
<svg width="120pt" height="120pt" viewBox="0 0 120 120" version="1.1" xmlns="http://www.w3.org/2000/svg">
<g id="#121c21ff">
<path fill="#121c21" opacity="1.00" d=" M 59.22 36.25 C 60.43 34.24 61.04 30.68 64.08 30.95 C 63.46 33.36 63.29 35.84 62.84 38.28 C 64.97 36.88 66.39 34.19 69.08 33.88 C 69.20 36.28 66.67 37.70 64.83 38.76 C 69.19 39.36 72.91 42.39 74.65 46.39 C 75.76 50.35 74.40 54.31 73.12 58.04 C 74.87 60.40 78.26 61.41 80.25 63.75 C 83.23 67.19 86.81 70.53 88.15 75.00 C 84.87 75.46 81.72 74.29 78.52 74.16 C 77.71 74.98 77.33 75.96 77.38 77.09 C 77.31 76.37 77.16 74.93 77.09 74.21 C 76.87 73.85 76.44 73.14 76.22 72.78 C 74.54 70.35 73.16 67.74 72.00 65.02 C 74.84 69.80 79.84 75.48 86.03 73.13 C 82.77 67.52 78.33 62.13 72.09 59.79 C 72.26 58.90 72.20 57.99 71.82 57.16 C 74.39 53.79 75.61 48.83 72.81 45.21 C 68.59 38.80 59.81 37.71 53.05 40.23 C 54.32 37.99 58.37 39.04 59.22 36.25 Z" />
<path fill="#121c21" opacity="1.00" d=" M 45.85 55.82 C 46.52 51.37 44.65 45.84 49.17 42.93 C 47.18 46.05 46.59 49.72 47.05 53.36 C 47.42 52.88 48.16 51.90 48.52 51.41 C 50.44 51.06 52.25 50.38 53.63 48.95 C 55.25 48.75 56.90 48.67 58.53 48.90 C 60.62 50.44 63.05 51.40 65.69 51.23 C 68.18 52.22 68.28 55.00 65.93 56.24 C 66.30 55.16 66.69 54.09 67.11 53.03 C 63.29 52.21 59.66 50.73 55.93 49.64 C 53.06 49.27 51.19 51.82 48.91 53.03 C 48.02 55.03 46.96 56.93 45.28 58.37 C 43.77 59.41 43.38 61.81 45.08 62.88 C 49.67 66.98 56.13 64.15 61.44 63.48 C 56.66 65.93 51.24 65.86 46.01 65.51 C 45.79 65.79 45.35 66.35 45.13 66.63 C 44.75 67.40 44.42 68.19 44.11 69.00 C 44.45 67.00 46.00 64.41 44.01 62.83 C 41.39 64.88 39.21 67.41 36.80 69.68 C 36.30 70.03 35.30 70.71 34.80 71.05 C 37.21 67.04 42.36 64.93 43.24 60.07 C 44.04 58.61 45.06 57.28 45.85 55.82 Z" />
<path fill="#121c21" opacity="1.00" d=" M 62.06 62.00 C 61.39 60.62 61.63 59.53 62.77 58.73 C 63.35 59.98 63.12 61.07 62.06 62.00 Z" />
</g>
<g id="#ffe58aff">
<path fill="#ffe58a" opacity="1.00" d=" M 53.05 40.23 C 59.81 37.71 68.59 38.80 72.81 45.21 C 75.61 48.83 74.39 53.79 71.82 57.16 C 69.87 56.77 67.91 56.40 65.93 56.24 C 68.28 55.00 68.18 52.22 65.69 51.23 C 66.09 50.71 66.91 49.69 67.31 49.17 C 69.03 48.14 67.91 45.52 66.02 45.91 C 63.07 45.54 60.46 46.73 58.53 48.90 C 56.90 48.67 55.25 48.75 53.63 48.95 C 53.13 48.42 52.13 47.34 51.64 46.80 L 51.45 46.61 L 51.20 46.63 C 50.18 46.72 49.17 46.89 48.17 47.15 C 48.23 48.57 48.34 49.99 48.52 51.41 C 48.16 51.90 47.42 52.88 47.05 53.36 C 46.59 49.72 47.18 46.05 49.17 42.93 C 50.39 41.94 51.73 41.09 53.05 40.23 Z" />
</g>
<g id="#f9f9f9ff">
<path fill="#f9f9f9" opacity="1.00" d=" M 48.17 47.15 C 49.17 46.89 50.18 46.72 51.20 46.63 C 51.31 46.67 51.53 46.76 51.64 46.80 C 52.13 47.34 53.13 48.42 53.63 48.95 C 52.25 50.38 50.44 51.06 48.52 51.41 C 48.34 49.99 48.23 48.57 48.17 47.15 M 50.24 48.25 C 50.80 48.80 50.80 48.80 50.24 48.25 Z" />
</g>
<g id="#615943ff">
<path fill="#615943" opacity="1.00" d=" M 51.20 46.63 L 51.45 46.61 L 51.64 46.80 C 51.53 46.76 51.31 46.67 51.20 46.63 Z" />
</g>
<g id="#ffffffff">
<path fill="#ffffff" opacity="1.00" d=" M 58.53 48.90 C 60.46 46.73 63.07 45.54 66.02 45.91 C 66.38 47.02 66.81 48.11 67.31 49.17 C 66.91 49.69 66.09 50.71 65.69 51.23 C 63.05 51.40 60.62 50.44 58.53 48.90 M 62.22 48.21 C 62.84 48.84 62.84 48.84 62.22 48.21 Z" />
</g>
<g id="#757575ff">
<path fill="#757575" opacity="1.00" d=" M 50.24 48.25 C 50.80 48.80 50.80 48.80 50.24 48.25 Z" />
</g>
<g id="#3b3b3bff">
<path fill="#3b3b3b" opacity="1.00" d=" M 62.22 48.21 C 62.84 48.84 62.84 48.84 62.22 48.21 Z" />
</g>
<g id="#f5eedcff">
<path fill="#f5eedc" opacity="1.00" d=" M 48.91 53.03 C 51.19 51.82 53.06 49.27 55.93 49.64 C 59.66 50.73 63.29 52.21 67.11 53.03 C 66.69 54.09 66.30 55.16 65.93 56.24 C 64.97 57.18 63.87 57.96 62.77 58.73 C 61.63 59.53 61.39 60.62 62.06 62.00 C 61.91 62.37 61.60 63.11 61.44 63.48 C 56.13 64.15 49.67 66.98 45.08 62.88 C 43.38 61.81 43.77 59.41 45.28 58.37 C 46.96 56.93 48.02 55.03 48.91 53.03 M 56.34 51.24 C 56.91 51.81 56.91 51.81 56.34 51.24 Z" />
</g>
<g id="#665e4dff">
<path fill="#665e4d" opacity="1.00" d=" M 56.34 51.24 C 56.91 51.81 56.91 51.81 56.34 51.24 Z" />
</g>
<g id="#d5b070ff">
<path fill="#d5b070" opacity="1.00" d=" M 62.77 58.73 C 63.87 57.96 64.97 57.18 65.93 56.24 C 67.91 56.40 69.87 56.77 71.82 57.16 C 72.20 57.99 72.26 58.90 72.09 59.79 C 68.92 61.97 65.13 62.72 61.44 63.48 C 61.60 63.11 61.91 62.37 62.06 62.00 C 63.12 61.07 63.35 59.98 62.77 58.73 Z" />
</g>
<g id="#ffdb83ff">
<path fill="#ffdb83" opacity="1.00" d=" M 61.44 63.48 C 65.13 62.72 68.92 61.97 72.09 59.79 C 78.33 62.13 82.77 67.52 86.03 73.13 C 79.84 75.48 74.84 69.80 72.00 65.02 C 73.16 67.74 74.54 70.35 76.22 72.78 C 73.38 75.17 70.47 77.94 66.64 78.52 C 60.39 79.59 53.15 79.30 48.21 74.81 C 45.82 72.82 45.71 69.45 45.13 66.63 C 45.35 66.35 45.79 65.79 46.01 65.51 C 51.24 65.86 56.66 65.93 61.44 63.48 Z" />
</g>
<g id="#f1cc7cff">
<path fill="#f1cc7c" opacity="1.00" d=" M 36.80 69.68 C 39.21 67.41 41.39 64.88 44.01 62.83 C 46.00 64.41 44.45 67.00 44.11 69.00 L 43.31 69.15 C 41.15 69.41 38.97 69.49 36.80 69.68 Z" />
</g>
<g id="#e5c077ff">
<path fill="#e5c077" opacity="1.00" d=" M 44.11 69.00 C 44.42 68.19 44.75 67.40 45.13 66.63 C 45.71 69.45 45.82 72.82 48.21 74.81 C 53.15 79.30 60.39 79.59 66.64 78.52 C 70.47 77.94 73.38 75.17 76.22 72.78 C 76.44 73.14 76.87 73.85 77.09 74.21 C 74.10 77.37 70.64 80.72 66.03 81.00 C 60.94 81.31 55.60 81.16 50.82 79.16 C 47.26 77.79 45.35 74.21 44.02 70.87 C 44.04 70.40 44.09 69.47 44.11 69.00 Z" />
</g>
<g id="#cda86bff">
<path fill="#cda86b" opacity="1.00" d=" M 36.80 69.68 C 38.97 69.49 41.15 69.41 43.31 69.15 C 42.95 73.75 37.89 73.96 34.33 74.24 C 34.45 73.17 34.61 72.11 34.80 71.05 C 35.30 70.71 36.30 70.03 36.80 69.68 Z" />
</g>
<g id="#7a7469ff">
<path fill="#7a7469" opacity="1.00" d=" M 43.31 69.15 L 44.11 69.00 C 44.09 69.47 44.04 70.40 44.02 70.87 C 43.67 74.93 44.55 79.38 48.14 81.81 C 55.53 86.56 64.69 84.96 72.67 82.86 C 72.54 83.35 72.29 84.34 72.17 84.84 C 73.37 86.06 75.32 86.70 75.07 88.81 C 70.14 88.99 65.20 88.92 60.27 88.84 C 60.52 87.76 60.70 86.67 60.79 85.57 C 58.94 86.49 57.66 88.56 55.38 88.35 C 51.19 88.21 47.02 87.69 42.81 87.79 C 44.41 85.88 47.54 86.02 48.82 84.04 C 47.30 82.62 45.83 81.14 44.57 79.49 C 43.59 77.70 43.25 75.49 41.82 74.00 C 38.60 73.88 35.05 76.11 32.07 73.86 C 32.93 72.88 33.86 71.96 34.80 71.05 C 34.61 72.11 34.45 73.17 34.33 74.24 C 37.89 73.96 42.95 73.75 43.31 69.15 M 49.03 85.17 C 49.08 85.63 49.18 86.54 49.22 87.00 C 51.47 87.20 53.73 87.19 55.97 86.96 C 55.65 86.51 54.99 85.61 54.67 85.16 C 52.80 84.85 50.90 84.99 49.03 85.17 M 63.03 86.30 C 65.58 87.66 69.89 88.35 72.09 86.14 C 69.27 84.51 65.91 85.23 63.03 86.30 Z" />
</g>
<g id="#cda96bff">
<path fill="#cda96b" opacity="1.00" d=" M 44.02 70.87 C 45.35 74.21 47.26 77.79 50.82 79.16 C 55.60 81.16 60.94 81.31 66.03 81.00 C 70.64 80.72 74.10 77.37 77.09 74.21 C 77.16 74.93 77.31 76.37 77.38 77.09 C 76.12 79.15 75.26 82.18 72.67 82.86 C 64.69 84.96 55.53 86.56 48.14 81.81 C 44.55 79.38 43.67 74.93 44.02 70.87 Z" />
</g>
<g id="#cdc3aeff">
<path fill="#cdc3ae" opacity="1.00" d=" M 49.03 85.17 C 50.90 84.99 52.80 84.85 54.67 85.16 C 54.99 85.61 55.65 86.51 55.97 86.96 C 53.73 87.19 51.47 87.20 49.22 87.00 C 49.18 86.54 49.08 85.63 49.03 85.17 Z" />
</g>
<g id="#ece4d0ff">
<path fill="#ece4d0" opacity="1.00" d=" M 63.03 86.30 C 65.91 85.23 69.27 84.51 72.09 86.14 C 69.89 88.35 65.58 87.66 63.03 86.30 Z" />
</g>
</svg>
