<?xml version="1.0" encoding="UTF-8" ?>
<!DOCTYPE svg PUBLIC "-//W3C//DTD SVG 1.1//EN" "http://www.w3.org/Graphics/SVG/1.1/DTD/svg11.dtd">
<svg width="120pt" height="120pt" viewBox="0 0 120 120" version="1.1" xmlns="http://www.w3.org/2000/svg">
<g id="#d4a54aff">
<path fill="#d4a54a" opacity="1.00" d=" M 27.38 5.12 C 27.81 4.88 28.66 4.40 29.09 4.16 C 35.75 10.53 43.00 16.26 50.37 21.78 C 50.94 18.62 49.45 14.85 51.52 12.10 C 54.29 16.38 56.65 21.06 60.51 24.50 C 62.81 26.58 64.30 29.35 66.49 31.52 C 70.05 35.11 73.73 38.58 77.18 42.28 C 78.52 41.62 79.88 40.96 81.24 40.33 C 80.40 41.60 79.48 42.81 78.57 44.02 C 79.32 45.10 80.18 46.12 80.80 47.30 C 80.79 47.67 80.79 48.41 80.78 48.78 C 80.33 48.56 79.41 48.12 78.95 47.90 C 78.44 47.56 77.42 46.87 76.91 46.53 C 75.71 49.13 75.29 52.03 75.87 54.85 C 77.59 57.05 80.28 58.07 82.65 59.38 C 82.71 60.83 82.77 62.27 82.83 63.72 C 81.42 63.70 80.01 63.69 78.61 63.71 C 78.70 62.29 78.78 60.88 78.85 59.47 C 76.89 59.81 74.94 60.25 73.08 60.99 C 74.63 59.53 76.71 59.09 78.76 58.84 C 77.35 57.39 75.11 56.19 75.14 53.90 C 74.79 50.84 75.72 47.85 76.73 45.00 C 76.47 45.06 75.94 45.19 75.68 45.26 C 75.13 45.28 74.02 45.33 73.47 45.36 C 73.63 44.79 73.94 43.64 74.10 43.07 C 71.77 40.65 69.32 38.32 66.53 36.43 C 63.05 34.03 59.98 30.94 56.00 29.34 C 55.08 33.65 54.94 38.06 54.14 42.35 C 54.13 37.56 53.98 32.48 56.12 28.06 C 61.20 30.19 65.11 34.25 69.79 37.07 C 63.85 29.14 56.36 22.45 51.23 13.91 C 51.18 17.12 51.13 20.34 51.01 23.55 C 43.65 18.35 37.06 12.14 29.86 6.72 C 29.76 6.64 29.58 6.49 29.49 6.42 C 29.58 6.49 29.76 6.64 29.86 6.72 C 34.83 19.92 43.02 31.71 52.11 42.41 C 52.61 42.40 53.63 42.37 54.14 42.35 C 53.99 43.04 53.69 44.41 53.54 45.09 C 50.89 43.54 49.75 40.49 47.51 38.48 C 42.95 32.95 39.24 26.78 35.40 20.74 C 32.59 15.60 30.26 10.22 27.38 5.12 M 80.18 60.40 C 79.31 61.64 79.54 62.37 80.88 62.60 C 81.77 61.36 81.54 60.62 80.18 60.40 Z" />
<path fill="#d4a54a" opacity="1.00" d=" M 59.38 80.58 C 59.76 80.85 60.52 81.38 60.90 81.65 C 61.36 82.41 61.81 83.19 62.23 83.98 C 60.73 85.39 59.22 86.79 57.70 88.19 C 53.09 88.20 48.46 88.45 43.86 87.89 C 43.29 86.73 42.72 85.58 42.10 84.46 C 42.86 84.55 44.38 84.75 45.15 84.85 C 50.27 86.16 55.54 85.45 60.47 83.74 C 60.10 82.69 59.73 81.64 59.38 80.58 Z" />
<path fill="#d4a54a" opacity="1.00" d=" M 43.91 101.02 C 45.45 100.47 46.60 101.92 47.00 103.22 C 45.62 103.25 44.02 102.60 43.91 101.02 Z" />
<path fill="#d4a54a" opacity="1.00" d=" M 47.32 103.80 C 47.98 103.89 49.29 104.08 49.94 104.17 C 50.25 106.06 50.56 107.95 50.88 109.83 C 49.92 110.64 48.96 111.45 48.01 112.27 C 44.95 111.60 41.95 110.68 39.09 109.39 C 42.47 108.76 45.84 108.08 49.21 107.44 C 47.42 107.14 45.63 106.87 43.86 106.47 C 45.02 105.59 46.17 104.70 47.32 103.80 Z" />
<path fill="#d4a54a" opacity="1.00" d=" M 66.34 110.24 C 67.57 109.46 69.38 109.55 70.59 110.32 C 70.29 111.70 66.61 111.66 66.34 110.24 Z" />
</g>
<g id="#fce680ff">
<path fill="#fce680" opacity="1.00" d=" M 29.49 6.42 C 29.58 6.49 29.76 6.64 29.86 6.72 C 29.76 6.64 29.58 6.49 29.49 6.42 Z" />
<path fill="#fce680" opacity="1.00" d=" M 29.86 6.72 C 37.06 12.14 43.65 18.35 51.01 23.55 C 51.13 20.34 51.18 17.12 51.23 13.91 C 56.36 22.45 63.85 29.14 69.79 37.07 C 65.11 34.25 61.20 30.19 56.12 28.06 C 53.98 32.48 54.13 37.56 54.14 42.35 C 53.63 42.37 52.61 42.40 52.11 42.41 C 43.02 31.71 34.83 19.92 29.86 6.72 Z" />
<path fill="#fce680" opacity="1.00" d=" M 75.68 45.26 C 75.94 45.19 76.47 45.06 76.73 45.00 C 75.72 47.85 74.79 50.84 75.14 53.90 C 75.11 56.19 77.35 57.39 78.76 58.84 C 76.71 59.09 74.63 59.53 73.08 60.99 C 72.78 61.22 72.18 61.67 71.87 61.90 C 69.07 63.30 65.97 63.23 63.70 60.90 C 65.86 54.42 71.45 50.28 75.68 45.26 Z" />
<path fill="#fce680" opacity="1.00" d=" M 34.15 47.67 C 37.26 52.22 37.16 57.86 36.83 63.12 C 35.34 61.66 33.90 60.16 32.39 58.73 C 35.14 55.67 33.70 51.38 34.15 47.67 Z" />
<path fill="#fce680" opacity="1.00" d=" M 60.16 73.82 C 61.55 73.65 63.42 73.66 63.99 75.26 C 65.33 77.95 62.46 79.92 60.90 81.65 C 60.52 81.38 59.76 80.85 59.38 80.58 C 58.52 78.44 58.13 75.44 60.16 73.82 Z" />
</g>
<g id="#815723ff">
<path fill="#815723" opacity="1.00" d=" M 32.24 41.16 C 33.51 41.82 33.47 42.49 32.11 43.18 C 30.85 42.54 30.89 41.87 32.24 41.16 Z" />
<path fill="#815723" opacity="1.00" d=" M 32.25 44.15 C 33.53 42.58 34.83 44.34 35.62 45.34 C 38.44 49.29 40.81 53.59 42.20 58.26 C 47.42 55.44 53.62 55.28 59.19 57.12 C 63.12 52.46 67.40 47.04 73.47 45.36 C 74.02 45.33 75.13 45.28 75.68 45.26 C 71.45 50.28 65.86 54.42 63.70 60.90 C 65.97 63.23 69.07 63.30 71.87 61.90 C 70.06 63.33 67.99 64.38 65.91 65.38 C 66.39 68.12 66.67 70.92 67.37 73.62 C 68.57 76.62 70.23 79.41 71.60 82.34 C 73.02 82.98 74.50 83.55 75.80 84.43 C 76.22 86.74 75.24 88.91 74.27 90.94 C 74.81 92.40 75.34 93.86 75.89 95.31 C 86.55 91.92 91.02 78.81 88.53 68.67 C 87.36 60.94 82.59 54.59 78.95 47.90 C 79.41 48.12 80.33 48.56 80.78 48.78 C 80.79 48.41 80.79 47.67 80.80 47.30 C 82.15 47.16 82.57 48.82 83.31 49.63 C 88.75 58.30 93.50 68.67 91.06 79.10 C 90.09 87.56 84.36 95.43 76.19 98.22 C 75.64 100.20 75.29 102.34 73.99 104.00 C 74.95 99.95 76.26 95.42 73.35 91.80 C 71.19 90.88 68.75 91.00 66.47 90.54 C 67.74 90.21 69.01 89.89 70.28 89.58 C 70.19 85.58 69.94 81.47 68.00 77.87 C 65.96 74.07 65.86 69.67 64.89 65.55 C 62.20 65.13 59.89 63.73 58.01 61.79 C 58.22 60.48 58.42 59.16 58.63 57.84 C 52.42 56.42 43.86 55.76 40.18 62.17 C 36.52 67.06 36.98 73.32 36.94 79.07 L 36.85 80.24 C 35.48 75.70 36.21 70.64 37.08 66.02 C 36.08 63.63 33.70 62.05 32.29 59.88 C 31.17 60.31 30.05 60.72 28.92 61.10 C 30.30 59.36 31.98 57.84 33.13 55.93 C 33.86 51.95 32.72 48.06 32.25 44.15 M 34.15 47.67 C 33.70 51.38 35.14 55.67 32.39 58.73 C 33.90 60.16 35.34 61.66 36.83 63.12 C 37.16 57.86 37.26 52.22 34.15 47.67 Z" />
<path fill="#815723" opacity="1.00" d=" M 30.26 62.05 C 34.15 61.36 30.18 66.59 29.20 63.25 C 29.47 62.95 30.00 62.35 30.26 62.05 Z" />
<path fill="#815723" opacity="1.00" d=" M 39.88 72.01 C 40.51 72.01 41.75 72.02 42.38 72.02 L 41.84 73.10 C 39.60 73.30 41.44 76.13 42.39 73.97 L 43.30 73.64 C 42.84 74.88 42.34 76.11 41.81 77.33 C 40.03 76.14 39.12 74.11 39.88 72.01 Z" />
<path fill="#815723" opacity="1.00" d=" M 52.58 72.02 C 55.76 70.70 57.54 75.53 54.76 76.93 C 53.07 77.71 52.46 76.03 51.74 74.88 L 52.84 74.72 C 53.20 74.58 53.90 74.29 54.26 74.15 C 54.00 73.85 53.49 73.27 53.24 72.98 L 52.58 72.02 Z" />
<path fill="#815723" opacity="1.00" d=" M 45.38 79.17 C 46.63 78.31 47.38 78.53 47.63 79.83 C 46.38 80.70 45.63 80.48 45.38 79.17 Z" />
<path fill="#815723" opacity="1.00" d=" M 42.15 80.32 C 43.55 79.97 44.09 80.49 43.77 81.88 C 42.39 82.21 41.85 81.69 42.15 80.32 Z" />
<path fill="#815723" opacity="1.00" d=" M 51.20 81.25 C 51.77 81.82 51.77 81.82 51.20 81.25 Z" />
<path fill="#815723" opacity="1.00" d=" M 30.34 82.29 C 32.17 82.25 34.01 82.22 35.85 82.19 C 34.18 84.40 34.72 87.34 34.42 89.92 C 36.65 89.55 38.87 89.17 41.10 88.85 C 39.62 91.51 37.63 94.04 37.03 97.09 C 37.03 101.29 39.85 105.17 43.86 106.47 C 45.63 106.87 47.42 107.14 49.21 107.44 C 45.84 108.08 42.47 108.76 39.09 109.39 C 41.95 110.68 44.95 111.60 48.01 112.27 C 42.29 113.86 36.33 115.44 30.34 114.65 C 28.09 113.40 29.35 110.22 31.43 109.53 C 35.37 108.53 39.43 108.23 43.48 108.00 C 41.32 106.36 38.33 105.46 37.42 102.63 C 35.07 98.96 36.48 94.57 38.33 91.04 C 34.63 91.18 30.77 90.66 28.20 87.71 C 28.22 86.60 28.24 85.49 28.26 84.38 C 28.96 83.69 29.65 82.99 30.34 82.29 Z" />
<path fill="#815723" opacity="1.00" d=" M 49.94 104.17 C 54.25 105.08 58.63 104.77 62.95 104.11 C 64.84 106.19 67.05 108.00 69.69 109.08 C 70.31 108.04 70.94 107.01 71.72 106.08 C 71.82 107.28 71.92 108.48 72.03 109.68 C 72.96 110.20 73.89 110.74 74.82 111.29 C 74.83 112.79 74.85 114.30 74.88 115.81 C 71.31 115.80 67.73 115.79 64.16 115.81 C 63.95 112.06 65.94 107.26 61.78 105.04 C 58.30 105.28 54.76 106.30 51.16 105.91 C 51.68 107.68 51.92 109.52 51.64 111.35 C 50.43 111.65 49.22 111.96 48.01 112.27 C 48.96 111.45 49.92 110.64 50.88 109.83 C 50.56 107.95 50.25 106.06 49.94 104.17 M 66.34 110.24 C 66.61 111.66 70.29 111.70 70.59 110.32 C 69.38 109.55 67.57 109.46 66.34 110.24 Z" />
</g>
<g id="#fdd760ff">
<path fill="#fdd760" opacity="1.00" d=" M 40.18 62.17 C 43.86 55.76 52.42 56.42 58.63 57.84 C 58.42 59.16 58.22 60.48 58.01 61.79 C 59.89 63.73 62.20 65.13 64.89 65.55 C 65.86 69.67 65.96 74.07 68.00 77.87 C 69.94 81.47 70.19 85.58 70.28 89.58 C 69.01 89.89 67.74 90.21 66.47 90.54 C 68.75 91.00 71.19 90.88 73.35 91.80 C 76.26 95.42 74.95 99.95 73.99 104.00 C 73.25 104.72 72.50 105.41 71.72 106.08 C 70.94 107.01 70.31 108.04 69.69 109.08 C 67.05 108.00 64.84 106.19 62.95 104.11 C 63.76 102.51 64.56 100.90 65.28 99.26 C 65.48 97.16 66.28 94.80 65.23 92.83 C 63.24 90.58 60.39 89.37 57.70 88.19 C 59.22 86.79 60.73 85.39 62.23 83.98 C 61.81 83.19 61.36 82.41 60.90 81.65 C 62.46 79.92 65.33 77.95 63.99 75.26 C 63.42 73.66 61.55 73.65 60.16 73.82 C 58.13 75.44 58.52 78.44 59.38 80.58 C 59.73 81.64 60.10 82.69 60.47 83.74 C 55.54 85.45 50.27 86.16 45.15 84.85 C 41.61 84.30 39.31 81.44 36.94 79.07 C 36.98 73.32 36.52 67.06 40.18 62.17 M 39.88 72.01 C 39.12 74.11 40.03 76.14 41.81 77.33 C 42.34 76.11 42.84 74.88 43.30 73.64 L 42.39 73.97 L 41.84 73.10 L 42.38 72.02 C 41.75 72.02 40.51 72.01 39.88 72.01 M 52.58 72.02 L 53.24 72.98 C 53.14 73.41 52.94 74.29 52.84 74.72 L 51.74 74.88 C 52.46 76.03 53.07 77.71 54.76 76.93 C 57.54 75.53 55.76 70.70 52.58 72.02 M 45.38 79.17 C 45.63 80.48 46.38 80.70 47.63 79.83 C 47.38 78.53 46.63 78.31 45.38 79.17 M 42.15 80.32 C 41.85 81.69 42.39 82.21 43.77 81.88 C 44.09 80.49 43.55 79.97 42.15 80.32 M 51.20 81.25 C 51.77 81.82 51.77 81.82 51.20 81.25 Z" />
<path fill="#fdd760" opacity="1.00" d=" M 35.85 82.19 C 36.31 81.80 37.23 81.01 37.69 80.62 C 39.09 81.98 40.64 83.17 42.10 84.46 C 42.72 85.58 43.29 86.73 43.86 87.89 C 42.41 89.94 41.66 92.35 42.05 94.87 C 42.63 96.93 43.31 98.96 43.91 101.02 C 44.02 102.60 45.62 103.25 47.00 103.22 L 47.32 103.80 C 46.17 104.70 45.02 105.59 43.86 106.47 C 39.85 105.17 37.03 101.29 37.03 97.09 C 37.63 94.04 39.62 91.51 41.10 88.85 C 38.87 89.17 36.65 89.55 34.42 89.92 C 34.72 87.34 34.18 84.40 35.85 82.19 Z" />
</g>
<g id="#f5eeddff">
<path fill="#f5eedd" opacity="1.00" d=" M 42.39 73.97 C 41.44 76.13 39.60 73.30 41.84 73.10 L 42.39 73.97 Z" />
<path fill="#f5eedd" opacity="1.00" d=" M 53.24 72.98 C 53.49 73.27 54.00 73.85 54.26 74.15 C 53.90 74.29 53.20 74.58 52.84 74.72 C 52.94 74.29 53.14 73.41 53.24 72.98 Z" />
<path fill="#f5eedd" opacity="1.00" d=" M 43.86 87.89 C 48.46 88.45 53.09 88.20 57.70 88.19 C 60.39 89.37 63.24 90.58 65.23 92.83 C 66.28 94.80 65.48 97.16 65.28 99.26 C 57.55 103.01 48.82 98.89 42.05 94.87 C 41.66 92.35 42.41 89.94 43.86 87.89 Z" />
</g>
<g id="#ddd4c2ff">
<path fill="#ddd4c2" opacity="1.00" d=" M 42.05 94.87 C 48.82 98.89 57.55 103.01 65.28 99.26 C 64.56 100.90 63.76 102.51 62.95 104.11 C 58.63 104.77 54.25 105.08 49.94 104.17 C 49.29 104.08 47.98 103.89 47.32 103.80 L 47.00 103.22 C 46.60 101.92 45.45 100.47 43.91 101.02 C 43.31 98.96 42.63 96.93 42.05 94.87 Z" />
</g>
</svg>
