<?xml version="1.0" encoding="UTF-8" ?>
<!DOCTYPE svg PUBLIC "-//W3C//DTD SVG 1.1//EN" "http://www.w3.org/Graphics/SVG/1.1/DTD/svg11.dtd">
<svg width="120pt" height="120pt" viewBox="0 0 120 120" version="1.1" xmlns="http://www.w3.org/2000/svg">
<g id="#f27b0aff">
<path fill="#f27b0a" opacity="1.00" d=" M 50.22 10.30 C 51.56 9.87 52.88 9.39 54.27 9.14 C 53.74 9.78 53.20 10.41 52.66 11.04 L 54.52 11.98 C 53.86 11.96 52.53 11.94 51.87 11.92 C 51.86 12.44 51.84 13.49 51.82 14.02 L 50.83 13.97 C 50.84 13.32 50.88 12.01 50.89 11.36 C 50.38 11.49 49.37 11.76 48.86 11.89 C 49.20 11.49 49.88 10.70 50.22 10.30 Z" />
<path fill="#f27b0a" opacity="1.00" d=" M 45.03 9.62 C 45.82 10.47 46.61 11.33 47.39 12.20 C 44.89 12.54 42.37 12.63 39.85 12.70 C 41.47 11.84 43.36 12.22 45.11 12.10 C 45.09 11.48 45.05 10.24 45.03 9.62 Z" />
<path fill="#f27b0a" opacity="1.00" d=" M 58.29 12.62 C 60.08 13.50 61.65 14.81 62.19 16.80 C 64.30 17.55 65.72 19.33 67.28 20.83 C 66.25 20.95 65.23 21.07 64.20 21.19 C 65.05 21.90 65.90 22.62 66.74 23.35 C 67.67 21.71 68.65 20.09 69.83 18.61 C 70.35 19.08 71.39 20.00 71.90 20.47 C 72.75 19.88 73.59 19.31 74.45 18.73 C 74.74 19.44 75.32 20.85 75.62 21.56 C 76.04 23.13 76.60 24.66 77.08 26.22 C 77.55 26.16 78.49 26.05 78.97 25.99 L 78.77 27.14 L 80.03 26.91 L 79.97 28.26 C 79.57 27.90 78.76 27.18 78.35 26.82 C 77.88 27.39 76.93 28.52 76.45 29.09 C 76.09 28.66 75.37 27.81 75.01 27.39 C 74.94 28.04 74.81 29.35 74.75 30.00 C 74.40 30.00 73.71 30.00 73.36 30.00 C 73.48 27.96 72.47 26.42 70.80 25.35 C 71.08 26.16 71.62 27.78 71.89 28.59 C 71.58 28.90 70.94 29.54 70.62 29.86 C 69.92 29.85 68.52 29.84 67.82 29.84 C 67.85 30.58 67.89 32.06 67.92 32.80 C 67.04 33.31 66.16 33.82 65.28 34.31 C 65.22 33.62 65.10 32.25 65.04 31.57 C 63.79 32.65 62.57 33.86 60.90 34.22 C 60.90 34.66 60.90 35.53 60.90 35.96 C 60.28 35.94 59.04 35.89 58.42 35.87 C 57.26 37.08 56.08 38.26 54.87 39.42 C 54.88 39.95 54.88 41.02 54.88 41.55 C 54.07 42.39 53.27 43.24 52.47 44.09 C 51.30 42.76 49.99 41.44 49.82 39.57 C 49.08 40.26 47.60 41.65 46.85 42.34 C 46.48 41.41 46.11 40.47 45.74 39.53 C 47.86 38.86 51.52 38.39 50.88 35.28 C 51.29 30.42 46.88 26.63 42.27 26.41 C 41.42 28.28 40.52 30.12 39.57 31.94 C 40.20 32.89 40.80 33.86 41.41 34.83 C 42.90 34.47 44.38 34.12 45.87 33.78 C 45.82 35.69 45.77 37.61 45.74 39.53 C 45.17 38.12 45.30 36.23 43.84 35.35 C 43.46 37.43 44.07 39.27 45.71 40.63 C 45.81 42.93 46.44 45.60 44.37 47.28 C 45.97 47.23 47.58 47.18 49.19 47.16 C 48.29 48.87 47.58 50.66 47.87 52.64 C 48.73 51.84 49.58 51.03 50.42 50.21 C 51.56 50.18 52.70 50.15 53.84 50.11 C 53.84 50.72 53.85 51.92 53.86 52.53 C 55.13 51.47 56.39 50.39 57.86 49.60 L 56.68 52.86 C 58.58 51.61 59.41 49.51 60.59 47.70 C 61.15 49.36 61.68 51.03 62.09 52.74 C 62.42 52.07 63.06 50.72 63.39 50.04 C 63.81 50.08 64.66 50.16 65.09 50.20 C 65.38 48.68 64.55 46.62 66.13 45.60 C 66.27 48.86 64.69 51.58 62.24 53.58 C 64.63 55.28 66.93 57.10 69.15 59.01 C 70.34 57.77 71.53 56.52 72.71 55.27 C 70.45 51.91 69.99 47.85 68.62 44.14 C 69.63 43.81 70.66 43.49 71.67 43.13 C 72.23 40.61 74.56 39.70 76.66 38.74 L 76.60 39.37 C 76.51 41.29 75.98 43.38 76.85 45.20 C 77.52 46.57 79.23 46.32 80.46 46.63 C 79.75 45.67 79.04 44.72 78.33 43.76 C 78.32 43.03 78.31 41.56 78.30 40.82 C 78.67 41.89 78.91 43.00 79.01 44.13 C 79.81 44.14 81.41 44.16 82.21 44.17 C 81.45 45.85 80.16 47.68 81.15 49.57 C 82.73 51.48 84.77 52.89 86.82 54.22 C 87.90 52.28 88.70 50.18 88.63 47.92 C 87.16 47.53 85.70 47.12 84.26 46.65 C 84.20 46.15 84.08 45.17 84.02 44.68 C 85.08 45.23 86.13 45.81 87.16 46.43 C 87.56 46.03 88.36 45.23 88.76 44.82 C 89.29 46.60 89.80 48.39 90.00 50.24 C 90.79 50.16 92.35 50.01 93.13 49.94 C 92.77 50.46 92.04 51.51 91.68 52.03 C 92.32 52.10 93.59 52.23 94.22 52.30 C 94.19 51.52 94.12 49.95 94.09 49.17 C 96.15 49.18 98.21 49.14 100.28 49.06 C 99.87 49.46 99.05 50.26 98.64 50.67 C 99.06 50.98 99.91 51.61 100.34 51.93 C 99.70 51.90 98.42 51.85 97.78 51.83 C 97.81 52.35 97.88 53.40 97.91 53.92 C 97.48 53.90 96.60 53.84 96.17 53.82 C 95.78 54.94 95.26 56.00 94.62 56.99 C 95.98 56.90 97.27 57.15 98.49 57.75 C 97.04 57.83 95.58 57.87 94.13 57.86 C 94.12 61.14 89.42 60.91 89.49 64.32 C 88.73 63.16 88.14 61.91 87.85 60.55 C 87.31 60.98 86.22 61.85 85.68 62.28 C 88.38 63.86 86.00 66.05 83.78 66.10 C 83.81 67.37 83.85 68.65 83.90 69.93 C 82.70 70.48 81.44 70.86 80.17 71.16 C 80.18 70.60 80.20 69.46 80.21 68.89 L 79.14 68.76 C 78.72 69.93 78.27 71.10 77.81 72.25 C 74.73 70.42 75.69 65.33 71.27 65.33 C 71.83 66.60 72.42 67.85 73.04 69.09 L 72.31 68.98 C 71.90 68.52 71.07 67.60 70.66 67.14 C 70.68 71.92 70.78 76.70 70.60 81.47 L 71.43 81.33 C 71.71 81.90 72.27 83.03 72.55 83.60 C 72.58 84.19 72.65 85.35 72.68 85.94 C 71.52 87.08 72.64 88.28 73.27 89.28 C 76.67 85.55 81.27 92.36 84.48 89.24 C 85.02 89.61 86.09 90.36 86.63 90.73 C 87.70 91.09 88.80 91.25 89.94 91.21 L 89.91 91.58 C 88.66 92.04 87.54 92.73 86.57 93.66 C 85.39 92.89 84.08 92.55 82.63 92.65 C 82.76 93.27 83.01 94.52 83.13 95.14 C 81.35 94.23 79.55 91.93 77.41 93.21 C 77.87 93.71 78.78 94.70 79.24 95.20 C 78.69 95.03 77.59 94.71 77.04 94.55 C 76.75 92.44 76.43 90.33 76.05 88.24 C 73.65 90.14 74.08 93.21 74.75 95.83 L 73.43 95.15 C 73.51 95.96 73.66 97.58 73.74 98.39 L 72.66 97.47 C 71.59 93.41 70.55 89.17 71.55 84.98 C 68.64 78.23 71.67 70.66 69.29 63.81 C 68.11 60.06 65.30 56.67 61.54 55.36 C 58.20 54.84 55.30 57.47 52.00 57.26 C 47.51 55.78 43.61 52.14 42.60 47.41 C 40.17 41.41 40.64 33.78 35.00 29.54 C 36.48 27.24 37.97 24.95 39.22 22.51 C 36.38 24.98 34.97 28.98 31.06 30.10 C 29.41 27.57 27.76 25.00 26.75 22.14 C 27.66 22.85 28.48 23.64 29.22 24.53 C 30.97 23.86 32.24 22.27 34.10 21.79 C 34.12 21.22 34.18 20.10 34.20 19.53 C 35.14 17.86 36.03 16.16 37.02 14.52 C 40.87 18.12 46.31 16.04 50.80 15.16 L 51.82 14.91 C 51.84 15.46 51.86 16.57 51.88 17.12 L 53.16 17.20 C 53.15 16.68 53.12 15.62 53.11 15.10 C 54.78 15.14 56.45 15.17 58.12 15.20 C 58.16 14.56 58.25 13.27 58.29 12.62 Z" />
<path fill="#f27b0a" opacity="1.00" d=" M 32.49 35.02 C 33.53 34.26 35.34 35.71 34.90 36.88 C 33.85 37.59 32.02 36.21 32.49 35.02 Z" />
<path fill="#f27b0a" opacity="1.00" d=" M 31.10 37.02 C 34.05 35.47 31.36 40.34 31.10 37.02 Z" />
<path fill="#f27b0a" opacity="1.00" d=" M 20.38 45.35 C 24.31 44.53 28.40 44.94 32.25 43.68 C 31.72 44.61 30.14 45.25 30.60 46.55 C 31.09 50.82 31.57 55.22 30.47 59.45 C 29.81 62.26 28.50 65.11 29.18 68.06 C 30.24 72.79 31.87 77.39 32.72 82.18 C 33.04 85.06 33.38 87.96 34.34 90.72 C 35.73 94.87 34.64 99.41 36.23 103.53 C 37.65 101.17 38.22 98.47 38.53 95.77 C 38.10 92.18 38.06 88.55 37.67 84.95 C 38.08 84.73 38.89 84.28 39.30 84.06 C 39.30 83.54 39.32 82.51 39.33 82.00 L 38.73 81.45 C 38.22 80.39 37.76 79.32 37.30 78.24 C 38.08 76.91 38.84 75.58 39.57 74.22 C 39.68 78.15 40.41 82.08 39.89 86.01 C 39.67 87.84 39.19 89.68 39.56 91.52 C 40.47 96.16 37.99 100.56 37.90 105.19 C 39.53 104.95 41.17 104.73 42.76 104.28 C 42.57 106.07 42.56 107.87 42.62 109.66 C 40.12 109.53 37.62 109.53 35.12 109.61 C 35.30 109.10 35.67 108.09 35.85 107.58 C 34.37 107.67 32.97 107.33 31.76 106.46 L 33.56 106.69 C 33.04 104.95 33.70 103.38 35.62 103.19 L 35.48 101.49 L 34.36 101.74 C 34.52 98.49 34.56 95.23 34.46 91.98 C 33.64 91.20 32.89 90.35 32.15 89.49 C 32.36 87.04 32.96 84.42 32.25 82.03 L 31.73 81.34 C 30.96 80.49 30.94 79.27 30.35 78.31 C 30.86 76.78 29.82 75.53 29.31 74.21 C 29.19 73.47 28.95 71.98 28.83 71.24 L 28.48 70.65 C 28.87 66.55 27.12 61.60 30.49 58.38 C 30.51 54.73 30.47 51.08 30.56 47.44 L 29.09 47.70 C 29.29 47.05 29.70 45.75 29.90 45.10 C 29.02 45.50 27.26 46.31 26.39 46.71 C 24.28 46.85 22.17 46.55 20.38 45.35 Z" />
<path fill="#f27b0a" opacity="1.00" d=" M 34.27 44.26 C 34.80 44.80 34.80 44.80 34.27 44.26 Z" />
<path fill="#f27b0a" opacity="1.00" d=" M 48.96 77.52 C 53.42 76.81 57.90 75.22 60.92 71.69 C 60.78 73.13 59.81 74.77 60.79 76.11 C 63.06 79.89 66.50 82.99 67.88 87.28 C 69.43 90.89 69.38 94.86 69.19 98.71 C 70.25 98.90 71.32 99.08 72.38 99.27 L 73.66 99.50 C 73.64 100.60 73.62 101.69 73.62 102.79 C 72.84 102.68 71.28 102.44 70.50 102.32 L 70.66 103.94 C 68.33 103.91 67.12 102.55 67.05 100.26 L 68.51 100.61 C 68.47 98.57 68.49 96.53 68.59 94.49 C 66.61 94.64 64.64 94.71 62.66 94.79 C 63.06 93.48 63.46 92.17 63.88 90.87 C 64.25 90.38 64.98 89.41 65.35 88.92 C 65.88 89.59 66.95 90.92 67.49 91.59 C 67.50 90.60 67.53 88.60 67.54 87.61 L 66.29 87.62 C 66.34 87.01 66.44 85.79 66.49 85.17 C 65.46 84.33 64.60 83.33 63.96 82.17 C 62.21 80.04 60.85 77.58 58.70 75.81 C 58.69 77.57 58.72 79.33 58.79 81.09 C 59.73 82.97 60.02 85.11 58.84 86.97 C 59.43 88.61 59.80 90.31 60.07 92.03 C 60.51 91.19 61.39 89.52 61.84 88.68 C 62.11 88.97 62.65 89.53 62.92 89.81 C 61.40 91.60 58.20 95.36 62.06 96.51 C 60.34 96.74 58.69 97.26 57.08 97.92 C 58.70 100.64 61.04 97.78 63.27 97.82 C 62.38 98.86 61.48 99.88 60.57 100.89 C 59.71 100.79 57.99 100.58 57.13 100.47 C 57.33 101.00 57.73 102.07 57.93 102.60 C 55.12 101.89 51.17 104.02 49.26 101.40 C 49.67 98.42 48.86 95.40 46.16 93.76 C 45.30 95.65 44.53 97.59 43.85 99.56 C 45.98 100.13 48.26 100.73 49.16 103.07 C 48.36 102.41 46.76 101.07 45.96 100.40 C 45.92 100.94 45.85 102.03 45.81 102.57 C 44.71 103.00 43.70 103.57 42.76 104.28 C 42.87 102.70 42.71 101.13 42.51 99.56 C 41.84 95.93 43.84 92.55 44.15 88.99 C 44.43 86.00 45.31 83.10 47.06 80.64 C 46.34 82.76 45.61 84.89 44.69 86.93 C 44.87 89.56 44.97 92.20 44.68 94.83 C 47.38 91.30 52.06 91.52 55.49 89.19 C 55.49 88.50 55.49 87.13 55.49 86.45 C 54.97 86.56 53.92 86.78 53.40 86.88 C 53.43 85.64 53.45 84.39 53.46 83.15 C 52.14 82.39 51.45 81.15 51.26 79.67 C 50.29 79.27 49.30 78.90 48.31 78.57 C 48.47 78.31 48.80 77.78 48.96 77.52 M 50.85 78.21 C 52.44 80.40 54.00 82.66 54.59 85.35 C 56.80 86.39 56.36 88.68 55.66 90.58 C 55.21 91.66 54.78 92.74 54.34 93.81 C 55.54 94.95 56.73 96.08 57.91 97.23 C 57.79 94.12 57.41 90.97 58.00 87.89 C 59.47 83.95 56.96 80.07 57.71 76.04 C 55.45 76.86 53.16 77.58 50.85 78.21 Z" />
<path fill="#f27b0a" opacity="1.00" d=" M 56.13 83.31 C 59.49 83.30 54.70 86.35 56.13 83.31 Z" />
<path fill="#f27b0a" opacity="1.00" d=" M 69.36 85.23 C 69.74 85.87 69.74 85.87 69.36 85.23 Z" />
</g>
<g id="#f7aa08ff">
<path fill="#f7aa08" opacity="1.00" d=" M 48.86 11.89 C 49.37 11.76 50.38 11.49 50.89 11.36 C 50.88 12.01 50.84 13.32 50.83 13.97 L 50.80 15.16 C 46.31 16.04 40.87 18.12 37.02 14.52 C 38.14 14.17 39.08 13.57 39.85 12.70 C 42.37 12.63 44.89 12.54 47.39 12.20 C 47.76 12.12 48.49 11.97 48.86 11.89 Z" />
<path fill="#f7aa08" opacity="1.00" d=" M 42.27 26.41 C 46.88 26.63 51.29 30.42 50.88 35.28 C 51.52 38.39 47.86 38.86 45.74 39.53 C 45.77 37.61 45.82 35.69 45.87 33.78 C 44.38 34.12 42.90 34.47 41.41 34.83 C 40.80 33.86 40.20 32.89 39.57 31.94 C 40.52 30.12 41.42 28.28 42.27 26.41 Z" />
<path fill="#f7aa08" opacity="1.00" d=" M 76.85 45.20 C 75.98 43.38 76.51 41.29 76.60 39.37 C 77.03 39.73 77.87 40.46 78.30 40.82 C 78.31 41.56 78.32 43.03 78.33 43.76 C 79.04 44.72 79.75 45.67 80.46 46.63 C 79.23 46.32 77.52 46.57 76.85 45.20 Z" />
<path fill="#f7aa08" opacity="1.00" d=" M 66.13 45.60 C 66.04 42.46 69.63 43.29 71.67 43.13 C 70.66 43.49 69.63 43.81 68.62 44.14 C 69.99 47.85 70.45 51.91 72.71 55.27 C 71.53 56.52 70.34 57.77 69.15 59.01 C 66.93 57.10 64.63 55.28 62.24 53.58 C 64.69 51.58 66.27 48.86 66.13 45.60 Z" />
<path fill="#f7aa08" opacity="1.00" d=" M 81.15 49.57 C 82.17 48.58 83.20 47.60 84.26 46.65 C 85.70 47.12 87.16 47.53 88.63 47.92 C 88.70 50.18 87.90 52.28 86.82 54.22 C 84.77 52.89 82.73 51.48 81.15 49.57 Z" />
<path fill="#f7aa08" opacity="1.00" d=" M 35.31 76.25 C 35.80 76.78 35.80 76.78 35.31 76.25 Z" />
<path fill="#f7aa08" opacity="1.00" d=" M 74.75 95.83 C 74.08 93.21 73.65 90.14 76.05 88.24 C 76.43 90.33 76.75 92.44 77.04 94.55 C 76.62 95.59 75.97 96.49 75.08 97.25 L 74.75 95.83 Z" />
<path fill="#f7aa08" opacity="1.00" d=" M 62.06 96.51 C 58.20 95.36 61.40 91.60 62.92 89.81 C 63.16 90.08 63.64 90.61 63.88 90.87 C 63.46 92.17 63.06 93.48 62.66 94.79 C 62.51 95.22 62.21 96.08 62.06 96.51 Z" />
<path fill="#f7aa08" opacity="1.00" d=" M 46.16 93.76 C 48.86 95.40 49.67 98.42 49.26 101.40 L 49.16 103.07 C 48.26 100.73 45.98 100.13 43.85 99.56 C 44.53 97.59 45.30 95.65 46.16 93.76 Z" />
</g>
<g id="#fcf3afff">
<path fill="#fcf3af" opacity="1.00" d=" M 25.45 19.55 C 25.99 20.36 26.42 21.22 26.75 22.14 C 27.76 25.00 29.41 27.57 31.06 30.10 C 34.97 28.98 36.38 24.98 39.22 22.51 C 37.97 24.95 36.48 27.24 35.00 29.54 C 40.64 33.78 40.17 41.41 42.60 47.41 C 43.61 52.14 47.51 55.78 52.00 57.26 C 55.30 57.47 58.20 54.84 61.54 55.36 C 65.30 56.67 68.11 60.06 69.29 63.81 C 71.67 70.66 68.64 78.23 71.55 84.98 C 70.55 89.17 71.59 93.41 72.66 97.47 L 72.38 99.27 C 71.32 99.08 70.25 98.90 69.19 98.71 C 69.38 94.86 69.43 90.89 67.88 87.28 C 66.50 82.99 63.06 79.89 60.79 76.11 C 59.81 74.77 60.78 73.13 60.92 71.69 C 57.90 75.22 53.42 76.81 48.96 77.52 C 48.80 77.78 48.47 78.31 48.31 78.57 C 48.05 78.99 47.54 79.83 47.29 80.25 L 47.06 80.64 C 45.31 83.10 44.43 86.00 44.15 88.99 C 43.84 92.55 41.84 95.93 42.51 99.56 C 42.71 101.13 42.87 102.70 42.76 104.28 C 41.17 104.73 39.53 104.95 37.90 105.19 C 37.99 100.56 40.47 96.16 39.56 91.52 C 39.19 89.68 39.67 87.84 39.89 86.01 C 40.41 82.08 39.68 78.15 39.57 74.22 C 38.84 75.58 38.08 76.91 37.30 78.24 C 37.76 79.32 38.22 80.39 38.73 81.45 C 37.23 81.96 37.40 83.73 37.67 84.95 C 38.06 88.55 38.10 92.18 38.53 95.77 C 38.22 98.47 37.65 101.17 36.23 103.53 C 34.64 99.41 35.73 94.87 34.34 90.72 C 33.38 87.96 33.04 85.06 32.72 82.18 C 31.87 77.39 30.24 72.79 29.18 68.06 C 28.50 65.11 29.81 62.26 30.47 59.45 C 31.57 55.22 31.09 50.82 30.60 46.55 C 30.14 45.25 31.72 44.61 32.25 43.68 C 28.40 44.94 24.31 44.53 20.38 45.35 C 20.50 43.98 20.61 42.61 20.71 41.25 C 21.71 40.37 22.71 39.49 23.72 38.61 C 23.69 37.89 23.64 36.45 23.61 35.73 C 25.47 32.90 27.20 29.84 26.75 26.32 L 25.57 26.70 C 25.57 24.31 25.40 21.93 25.45 19.55 M 32.49 35.02 C 32.02 36.21 33.85 37.59 34.90 36.88 C 35.34 35.71 33.53 34.26 32.49 35.02 M 31.10 37.02 C 31.36 40.34 34.05 35.47 31.10 37.02 M 34.27 44.26 C 34.80 44.80 34.80 44.80 34.27 44.26 M 35.31 76.25 C 35.80 76.78 35.80 76.78 35.31 76.25 M 69.36 85.23 C 69.74 85.87 69.74 85.87 69.36 85.23 Z" />
<path fill="#fcf3af" opacity="1.00" d=" M 50.85 78.21 C 53.16 77.58 55.45 76.86 57.71 76.04 C 56.96 80.07 59.47 83.95 58.00 87.89 C 57.41 90.97 57.79 94.12 57.91 97.23 C 56.73 96.08 55.54 94.95 54.34 93.81 C 54.78 92.74 55.21 91.66 55.66 90.58 C 56.36 88.68 56.80 86.39 54.59 85.35 C 54.00 82.66 52.44 80.40 50.85 78.21 M 56.13 83.31 C 54.70 86.35 59.49 83.30 56.13 83.31 Z" />
</g>
</svg>
