<?xml version="1.0" encoding="UTF-8" ?>
<!DOCTYPE svg PUBLIC "-//W3C//DTD SVG 1.1//EN" "http://www.w3.org/Graphics/SVG/1.1/DTD/svg11.dtd">
<svg width="96pt" height="96pt" viewBox="0 0 96 96" version="1.1" xmlns="http://www.w3.org/2000/svg">
<g id="#8b4a8bff">
<path fill="#8b4a8b" opacity="1.00" d=" M 53.53 22.15 C 55.80 21.73 57.99 22.25 60.06 23.20 L 59.91 23.32 C 59.51 23.68 58.70 24.40 58.30 24.76 C 57.69 24.91 56.48 25.20 55.88 25.34 C 56.31 24.65 57.16 23.26 57.59 22.56 C 56.79 22.48 55.18 22.32 54.38 22.24 L 53.53 22.15 Z" />
<path fill="#8b4a8b" opacity="1.00" d=" M 60.47 47.65 L 61.12 46.96 C 60.98 48.46 60.27 50.52 61.60 51.66 L 62.82 52.57 C 62.85 53.06 62.90 54.04 62.93 54.53 L 62.75 55.24 C 62.42 55.49 61.75 55.98 61.42 56.23 C 61.03 56.24 60.25 56.27 59.86 56.28 C 59.31 55.88 58.21 55.09 57.67 54.69 C 57.39 54.41 56.83 53.85 56.55 53.57 C 57.86 51.60 59.15 49.62 60.47 47.65 Z" />
<path fill="#8b4a8b" opacity="1.00" d=" M 43.10 62.76 C 43.49 62.77 44.25 62.80 44.63 62.81 L 44.88 63.51 C 44.47 63.53 43.66 63.57 43.25 63.58 L 43.10 62.76 Z" />
</g>
<g id="#d59cd5ff">
<path fill="#d59cd5" opacity="1.00" d=" M 52.63 26.07 C 50.66 25.25 53.49 22.97 54.38 22.24 C 55.18 22.32 56.79 22.48 57.59 22.56 C 57.16 23.26 56.31 24.65 55.88 25.34 C 56.48 25.20 57.69 24.91 58.30 24.76 C 57.87 25.34 57.01 26.50 56.58 27.09 C 55.26 26.76 53.94 26.43 52.63 26.07 Z" />
<path fill="#d59cd5" opacity="1.00" d=" M 46.33 37.07 C 46.98 37.08 48.28 37.09 48.93 37.09 L 49.16 37.79 C 49.34 38.35 49.71 39.46 49.89 40.02 C 49.01 39.65 48.12 39.27 47.23 38.90 C 46.34 39.98 45.44 41.05 44.53 42.11 C 44.35 41.64 43.97 40.70 43.79 40.23 C 44.26 38.92 45.51 38.15 46.33 37.07 Z" />
<path fill="#d59cd5" opacity="1.00" d=" M 35.52 42.16 C 37.84 41.12 40.41 40.99 42.92 40.90 C 41.70 44.31 37.71 45.77 34.47 44.26 C 34.73 43.74 35.26 42.69 35.52 42.16 Z" />
<path fill="#d59cd5" opacity="1.00" d=" M 47.98 53.58 C 49.45 53.52 50.92 53.44 52.39 53.37 C 52.21 53.90 51.84 54.96 51.65 55.50 C 51.00 57.34 50.28 59.17 49.48 60.96 C 48.95 62.11 48.46 63.28 48.10 64.49 C 47.73 62.79 47.23 61.08 45.95 59.83 L 45.13 58.86 L 46.36 57.68 C 47.41 56.59 47.54 54.96 47.98 53.58 Z" />
</g>
<g id="#b473bdff">
<path fill="#b473bd" opacity="1.00" d=" M 58.30 24.76 C 58.70 24.40 59.51 23.68 59.91 23.32 C 60.63 24.17 61.30 25.06 61.92 26.00 C 63.47 30.18 63.03 34.69 61.92 38.92 L 61.51 38.83 C 61.09 35.63 62.25 31.97 60.02 29.25 C 59.52 29.02 58.52 28.57 58.02 28.35 C 57.12 27.82 56.16 27.64 55.13 27.82 C 54.21 27.38 53.37 26.80 52.63 26.07 C 53.94 26.43 55.26 26.76 56.58 27.09 C 57.01 26.50 57.87 25.34 58.30 24.76 M 59.27 27.26 C 59.81 27.81 59.81 27.81 59.27 27.26 Z" />
<path fill="#b473bd" opacity="1.00" d=" M 43.15 40.33 L 43.79 40.23 C 43.97 40.70 44.35 41.64 44.53 42.11 C 44.89 42.60 45.60 43.57 45.96 44.05 C 46.28 44.32 46.90 44.87 47.22 45.14 C 47.58 45.26 48.29 45.51 48.65 45.63 C 49.68 43.81 50.40 41.84 51.24 39.93 C 52.44 43.31 51.01 47.45 47.05 47.70 L 46.11 48.12 C 45.49 48.36 44.27 48.84 43.66 49.07 C 44.01 47.87 43.78 46.76 42.98 45.73 L 42.44 44.73 C 40.49 46.14 38.68 47.74 36.79 49.22 L 36.57 49.33 C 36.40 49.42 36.08 49.59 35.92 49.68 C 35.43 49.89 34.46 50.30 33.97 50.50 C 33.80 50.58 33.45 50.75 33.28 50.83 C 32.85 50.87 32.00 50.93 31.57 50.96 C 29.79 50.86 30.12 48.51 30.10 47.29 C 30.44 47.07 31.10 46.64 31.43 46.42 C 31.90 46.23 32.84 45.84 33.30 45.65 C 33.71 45.20 34.10 44.74 34.47 44.26 C 37.71 45.77 41.70 44.31 42.92 40.90 L 43.15 40.33 Z" />
<path fill="#b473bd" opacity="1.00" d=" M 51.03 47.56 C 50.33 45.74 52.36 43.92 53.05 42.32 C 55.42 42.75 57.69 43.60 59.76 44.83 L 61.26 45.69 L 60.47 47.65 C 59.15 49.62 57.86 51.60 56.55 53.57 C 56.19 53.49 55.47 53.33 55.11 53.25 C 54.57 53.58 53.51 54.24 52.98 54.56 C 52.91 54.09 52.76 53.16 52.69 52.69 L 52.39 53.37 C 50.92 53.44 49.45 53.52 47.98 53.58 C 47.26 53.61 46.54 53.65 45.83 53.72 C 46.01 53.33 46.36 52.56 46.54 52.17 C 48.71 51.37 51.01 51.07 53.29 50.80 C 53.46 50.40 53.81 49.62 53.99 49.23 L 53.72 49.06 C 53.05 48.69 51.70 47.93 51.03 47.56 Z" />
</g>
<g id="#251b24ee">
<path fill="#251b24" opacity="0.93" d=" M 61.92 26.00 L 62.83 26.01 C 64.14 30.09 64.60 34.55 62.83 38.58 C 62.60 38.67 62.15 38.83 61.92 38.92 C 63.03 34.69 63.47 30.18 61.92 26.00 Z" />
</g>
<g id="#4a2941ff">
<path fill="#4a2941" opacity="1.00" d=" M 59.27 27.26 C 59.81 27.81 59.81 27.81 59.27 27.26 Z" />
<path fill="#4a2941" opacity="1.00" d=" M 55.13 27.82 C 56.16 27.64 57.12 27.82 58.02 28.35 C 56.62 29.64 55.66 29.47 55.13 27.82 Z" />
</g>
<g id="#653762ef">
<path fill="#653762" opacity="0.94" d=" M 60.02 29.25 C 62.25 31.97 61.09 35.63 61.51 38.83 L 61.46 39.76 C 61.10 41.51 60.38 43.16 59.76 44.83 C 57.69 43.60 55.42 42.75 53.05 42.32 L 52.99 41.81 C 54.64 41.94 56.31 42.07 57.82 42.81 C 58.43 41.35 59.07 39.92 59.74 38.50 C 60.62 35.45 61.44 32.28 60.02 29.25 Z" />
</g>
<g id="#6a3e5fff">
<path fill="#6a3e5f" opacity="1.00" d=" M 31.36 39.96 C 29.72 37.43 33.63 36.58 35.41 37.01 L 34.63 37.20 C 33.96 37.36 32.62 37.67 31.96 37.83 C 32.93 39.23 33.95 40.60 34.96 41.97 C 35.32 41.30 36.03 39.96 36.38 39.29 C 38.50 40.35 40.91 39.88 43.15 40.33 L 42.92 40.90 C 40.41 40.99 37.84 41.12 35.52 42.16 C 35.26 42.69 34.73 43.74 34.47 44.26 C 34.10 44.74 33.71 45.20 33.30 45.65 C 33.21 45.14 33.02 44.10 32.92 43.58 C 34.48 43.67 34.63 43.12 33.35 41.93 C 32.70 41.26 32.03 40.61 31.36 39.96 Z" />
</g>
<g id="#b778bdff">
<path fill="#b778bd" opacity="1.00" d=" M 31.96 37.83 C 32.62 37.67 33.96 37.36 34.63 37.20 C 35.07 37.72 35.94 38.77 36.38 39.29 C 36.03 39.96 35.32 41.30 34.96 41.97 C 33.95 40.60 32.93 39.23 31.96 37.83 Z" />
</g>
<g id="#834e6df2">
<path fill="#834e6d" opacity="0.95" d=" M 49.16 37.79 C 49.86 38.50 50.56 39.21 51.24 39.93 C 50.40 41.84 49.68 43.81 48.65 45.63 C 48.29 45.51 47.58 45.26 47.22 45.14 C 48.25 44.75 48.79 44.00 48.82 42.90 C 48.60 42.34 48.15 41.22 47.92 40.66 C 47.63 40.95 47.06 41.53 46.77 41.82 C 46.57 42.38 46.16 43.49 45.96 44.05 C 45.60 43.57 44.89 42.60 44.53 42.11 C 45.44 41.05 46.34 39.98 47.23 38.90 C 48.12 39.27 49.01 39.65 49.89 40.02 C 49.71 39.46 49.34 38.35 49.16 37.79 Z" />
</g>
<g id="#9d6486ff">
<path fill="#9d6486" opacity="1.00" d=" M 31.36 39.96 C 32.03 40.61 32.70 41.26 33.35 41.93 C 33.25 42.34 33.03 43.17 32.92 43.58 C 31.55 44.30 30.50 40.95 31.36 39.96 Z" />
</g>
<g id="#a47308ff">
<path fill="#a47308" opacity="1.00" d=" M 46.77 41.82 C 47.06 41.53 47.63 40.95 47.92 40.66 C 48.15 41.22 48.60 42.34 48.82 42.90 C 48.31 42.63 47.29 42.09 46.77 41.82 Z" />
</g>
<g id="#e6cd73ff">
<path fill="#e6cd73" opacity="1.00" d=" M 33.35 41.93 C 34.63 43.12 34.48 43.67 32.92 43.58 C 33.03 43.17 33.25 42.34 33.35 41.93 Z" />
<path fill="#e6cd73" opacity="1.00" d=" M 45.96 44.05 C 46.16 43.49 46.57 42.38 46.77 41.82 C 47.29 42.09 48.31 42.63 48.82 42.90 C 48.79 44.00 48.25 44.75 47.22 45.14 C 46.90 44.87 46.28 44.32 45.96 44.05 Z" />
</g>
<g id="#8e6508ff">
<path fill="#8e6508" opacity="1.00" d=" M 28.89 45.89 C 26.18 45.62 29.70 42.19 30.08 44.85 C 29.78 45.11 29.19 45.63 28.89 45.89 Z" />
</g>
<g id="#eedeb4ff">
<path fill="#eedeb4" opacity="1.00" d=" M 28.89 45.89 C 29.19 45.63 29.78 45.11 30.08 44.85 C 30.41 45.24 31.09 46.03 31.43 46.42 C 31.10 46.64 30.44 47.07 30.10 47.29 C 29.80 46.94 29.20 46.24 28.89 45.89 Z" />
<path fill="#eedeb4" opacity="1.00" d=" M 36.57 49.33 L 36.79 49.22 C 38.53 49.04 40.28 49.04 42.02 49.22 L 42.85 49.39 C 46.46 50.16 50.08 48.77 53.72 49.06 C 50.25 50.06 46.70 50.80 43.12 51.19 C 44.47 51.99 45.57 53.04 45.38 54.75 L 45.32 55.54 C 44.64 56.32 43.92 57.05 43.16 57.74 C 42.73 58.07 41.86 58.71 41.42 59.04 C 40.88 58.87 39.80 58.53 39.26 58.36 C 40.09 57.95 41.75 57.13 42.58 56.73 C 41.75 55.12 40.97 53.48 39.94 51.99 C 39.18 51.14 38.23 50.87 37.08 51.16 C 35.84 51.24 34.59 51.32 33.34 51.18 L 33.28 50.83 C 33.45 50.75 33.80 50.58 33.97 50.50 C 34.46 50.30 35.43 49.89 35.92 49.68 C 36.08 49.59 36.40 49.42 36.57 49.33 Z" />
<path fill="#eedeb4" opacity="1.00" d=" M 43.10 62.76 C 44.05 61.78 45.00 60.81 45.95 59.83 C 47.23 61.08 47.73 62.79 48.10 64.49 C 46.89 63.31 45.83 62.91 45.34 64.86 C 45.23 64.52 44.99 63.85 44.88 63.51 L 44.63 62.81 C 44.25 62.80 43.49 62.77 43.10 62.76 Z" />
</g>
<g id="#943a61ff">
<path fill="#943a61" opacity="1.00" d=" M 36.79 49.22 C 38.68 47.74 40.49 46.14 42.44 44.73 L 42.98 45.73 C 42.08 46.76 41.76 47.93 42.02 49.22 C 40.28 49.04 38.53 49.04 36.79 49.22 M 40.24 47.23 C 40.82 47.82 40.82 47.82 40.24 47.23 Z" />
</g>
<g id="#f5f5f5ff">
<path fill="#f5f5f5" opacity="1.00" d=" M 42.02 49.22 C 41.76 47.93 42.08 46.76 42.98 45.73 C 43.78 46.76 44.01 47.87 43.66 49.07 L 42.85 49.39 L 42.02 49.22 Z" />
</g>
<g id="#ffffffff">
<path fill="#ffffff" opacity="1.00" d=" M 40.24 47.23 C 40.82 47.82 40.82 47.82 40.24 47.23 Z" />
</g>
<g id="#1c151aff">
<path fill="#1c151a" opacity="1.00" d=" M 61.12 46.96 C 62.72 47.58 62.55 50.48 61.60 51.66 C 60.27 50.52 60.98 48.46 61.12 46.96 Z" />
</g>
<g id="#a97821ff">
<path fill="#a97821" opacity="1.00" d=" M 46.11 48.12 C 47.68 47.90 49.50 46.83 51.03 47.56 C 51.70 47.93 53.05 48.69 53.72 49.06 C 50.08 48.77 46.46 50.16 42.85 49.39 L 43.66 49.07 C 44.27 48.84 45.49 48.36 46.11 48.12 Z" />
</g>
<g id="#cdac62ff">
<path fill="#cdac62" opacity="1.00" d=" M 35.92 49.68 C 36.08 49.59 36.40 49.42 36.57 49.33 C 36.40 49.42 36.08 49.59 35.92 49.68 Z" />
<path fill="#cdac62" opacity="1.00" d=" M 33.28 50.83 C 33.45 50.75 33.80 50.58 33.97 50.50 C 33.80 50.58 33.45 50.75 33.28 50.83 Z" />
<path fill="#cdac62" opacity="1.00" d=" M 52.98 54.56 C 53.51 54.24 54.57 53.58 55.11 53.25 C 55.06 54.49 54.39 55.19 53.09 55.35 L 52.98 54.56 Z" />
<path fill="#cdac62" opacity="1.00" d=" M 61.42 56.23 C 61.75 55.98 62.42 55.49 62.75 55.24 C 62.76 55.68 62.77 56.57 62.78 57.02 C 62.44 56.82 61.76 56.43 61.42 56.23 Z" />
<path fill="#cdac62" opacity="1.00" d=" M 38.52 58.04 C 37.57 57.33 37.66 56.67 38.80 56.04 L 39.12 57.04 L 38.52 58.04 Z" />
</g>
<g id="#8f6d35ff">
<path fill="#8f6d35" opacity="1.00" d=" M 53.72 49.06 L 53.99 49.23 C 53.81 49.62 53.46 50.40 53.29 50.80 C 51.01 51.07 48.71 51.37 46.54 52.17 C 46.36 52.56 46.01 53.33 45.83 53.72 C 45.72 53.98 45.50 54.49 45.38 54.75 C 45.57 53.04 44.47 51.99 43.12 51.19 C 46.70 50.80 50.25 50.06 53.72 49.06 Z" />
</g>
<g id="#856f33ff">
<path fill="#856f33" opacity="1.00" d=" M 31.57 50.96 C 32.00 50.93 32.85 50.87 33.28 50.83 L 33.34 51.18 C 34.59 51.32 35.84 51.24 37.08 51.16 L 37.14 52.11 C 35.79 52.63 34.38 52.99 32.95 53.20 C 32.36 52.68 31.17 51.63 30.58 51.10 L 31.57 50.96 Z" />
</g>
<g id="#3c352cf5">
<path fill="#3c352c" opacity="0.96" d=" M 37.08 51.16 C 38.23 50.87 39.18 51.14 39.94 51.99 C 40.11 52.70 40.46 54.13 40.63 54.84 C 40.17 55.14 39.26 55.74 38.80 56.04 C 37.66 56.67 37.57 57.33 38.52 58.04 L 39.26 58.36 C 39.80 58.53 40.88 58.87 41.42 59.04 C 41.86 58.71 42.73 58.07 43.16 57.74 C 42.20 60.73 39.39 60.08 37.31 58.70 C 37.28 58.24 37.21 57.33 37.18 56.87 C 36.36 56.02 35.32 55.61 34.05 55.63 L 34.63 55.51 C 35.55 55.31 36.47 55.13 37.40 54.95 C 37.33 54.24 37.20 52.82 37.14 52.11 L 37.08 51.16 Z" />
</g>
<g id="#f3f3f3ff">
<path fill="#f3f3f3" opacity="1.00" d=" M 32.95 53.20 C 34.38 52.99 35.79 52.63 37.14 52.11 C 37.20 52.82 37.33 54.24 37.40 54.95 C 36.47 55.13 35.55 55.31 34.63 55.51 C 34.21 54.93 33.37 53.78 32.95 53.20 Z" />
</g>
<g id="#a67428ff">
<path fill="#a67428" opacity="1.00" d=" M 39.94 51.99 C 40.97 53.48 41.75 55.12 42.58 56.73 C 41.75 57.13 40.09 57.95 39.26 58.36 L 38.52 58.04 L 39.12 57.04 C 40.45 57.32 41.26 55.94 40.63 54.84 C 40.46 54.13 40.11 52.70 39.94 51.99 Z" />
</g>
<g id="#4c2b48ff">
<path fill="#4c2b48" opacity="1.00" d=" M 45.83 53.72 C 46.54 53.65 47.26 53.61 47.98 53.58 C 47.54 54.96 47.41 56.59 46.36 57.68 C 46.10 57.15 45.58 56.08 45.32 55.54 L 45.38 54.75 C 45.50 54.49 45.72 53.98 45.83 53.72 Z" />
</g>
<g id="#1c1713e6">
<path fill="#1c1713" opacity="0.90" d=" M 52.69 52.69 C 52.76 53.16 52.91 54.09 52.98 54.56 L 53.09 55.35 C 52.90 55.81 52.51 56.74 52.32 57.20 C 51.79 58.47 51.25 59.75 50.72 61.03 L 49.48 60.96 C 50.28 59.17 51.00 57.34 51.65 55.50 C 51.84 54.96 52.21 53.90 52.39 53.37 L 52.69 52.69 Z" />
</g>
<g id="#76553eff">
<path fill="#76553e" opacity="1.00" d=" M 55.11 53.25 C 55.47 53.33 56.19 53.49 56.55 53.57 C 56.83 53.85 57.39 54.41 57.67 54.69 C 55.89 55.53 54.11 56.39 52.32 57.20 C 52.51 56.74 52.90 55.81 53.09 55.35 C 54.39 55.19 55.06 54.49 55.11 53.25 Z" />
</g>
<g id="#101010ff">
<path fill="#101010" opacity="1.00" d=" M 62.93 54.53 L 63.53 54.38 C 64.59 55.43 64.61 56.54 63.60 57.69 L 63.01 57.66 L 62.78 57.02 C 62.77 56.57 62.76 55.68 62.75 55.24 L 62.93 54.53 Z" />
</g>
<g id="#e65a73ff">
<path fill="#e65a73" opacity="1.00" d=" M 38.80 56.04 C 39.26 55.74 40.17 55.14 40.63 54.84 C 41.26 55.94 40.45 57.32 39.12 57.04 L 38.80 56.04 Z" />
</g>
<g id="#7d437bff">
<path fill="#7d437b" opacity="1.00" d=" M 31.64 57.52 C 32.24 57.05 33.45 56.10 34.05 55.63 C 35.32 55.61 36.36 56.02 37.18 56.87 C 37.21 57.33 37.28 58.24 37.31 58.70 C 36.67 59.71 35.83 60.53 34.78 61.15 C 35.20 59.79 34.30 58.34 32.92 58.06 L 31.64 57.52 Z" />
</g>
<g id="#ac862fff">
<path fill="#ac862f" opacity="1.00" d=" M 59.86 56.28 C 60.25 56.27 61.03 56.24 61.42 56.23 C 61.76 56.43 62.44 56.82 62.78 57.02 L 63.01 57.66 C 62.50 57.95 61.49 58.53 60.98 58.83 C 60.32 58.23 59.65 57.66 58.97 57.09 C 59.19 56.89 59.64 56.48 59.86 56.28 Z" />
</g>
<g id="#201c0eff">
<path fill="#201c0e" opacity="1.00" d=" M 60.98 58.83 C 60.07 61.49 56.14 57.78 58.97 57.09 C 59.65 57.66 60.32 58.23 60.98 58.83 Z" />
</g>
<g id="#bd953eff">
<path fill="#bd953e" opacity="1.00" d=" M 32.92 58.06 C 34.30 58.34 35.20 59.79 34.78 61.15 L 34.16 61.16 C 33.43 60.45 32.73 59.73 32.05 58.98 C 32.27 58.75 32.70 58.29 32.92 58.06 Z" />
</g>
<g id="#362f20ff">
<path fill="#362f20" opacity="1.00" d=" M 34.16 61.16 C 32.72 63.20 29.34 59.63 32.05 58.98 C 32.73 59.73 33.43 60.45 34.16 61.16 Z" />
</g>
</svg>
