<?xml version="1.0" encoding="UTF-8" ?>
<!DOCTYPE svg PUBLIC "-//W3C//DTD SVG 1.1//EN" "http://www.w3.org/Graphics/SVG/1.1/DTD/svg11.dtd">
<svg width="120pt" height="120pt" viewBox="0 0 120 120" version="1.1" xmlns="http://www.w3.org/2000/svg">
<g id="#373c42ff">
<path fill="#373c42" opacity="1.00" d=" M 61.14 29.06 C 62.75 29.06 64.36 29.04 65.97 29.00 C 66.58 30.44 66.99 31.95 67.36 33.47 C 67.63 34.53 67.90 35.59 68.15 36.66 C 68.84 37.79 69.48 38.95 70.34 39.97 C 71.75 40.13 73.17 40.10 74.58 40.11 C 79.06 42.28 80.07 47.64 83.22 51.10 C 83.75 51.14 84.80 51.22 85.32 51.26 C 86.47 51.61 87.62 51.95 88.78 52.27 C 92.03 54.43 90.84 58.51 91.00 61.80 C 94.16 61.40 96.28 64.41 94.36 67.11 C 94.26 66.28 94.05 64.63 93.95 63.81 C 91.24 63.62 88.54 63.51 85.83 63.40 C 84.68 66.03 83.62 68.70 82.59 71.39 C 84.34 70.93 86.09 70.45 87.84 69.97 C 87.85 71.89 87.87 73.80 87.89 75.72 C 87.48 75.78 86.65 75.92 86.24 75.98 C 86.55 74.41 86.85 72.84 87.15 71.26 C 85.38 71.54 83.61 71.79 81.84 72.04 C 82.92 68.53 83.72 64.82 85.78 61.73 C 87.12 61.08 88.65 61.02 90.08 60.69 C 90.08 58.91 90.07 57.12 90.06 55.34 C 89.29 54.63 88.51 53.92 87.73 53.20 C 85.96 52.76 84.18 52.29 82.41 51.84 C 83.61 54.17 85.10 56.36 86.00 58.84 C 85.29 60.36 84.36 61.77 83.48 63.20 C 83.61 62.53 83.87 61.17 83.99 60.49 C 80.15 62.62 76.33 64.80 72.52 66.97 C 71.85 67.00 70.52 67.05 69.86 67.08 C 70.27 68.91 70.70 70.73 71.13 72.55 C 74.97 74.04 77.88 77.03 79.68 80.69 C 81.81 79.06 83.94 77.38 86.24 75.98 C 84.99 77.48 83.81 79.04 82.65 80.61 C 85.77 80.52 88.78 79.66 91.70 78.62 C 91.28 75.07 89.82 70.60 93.12 67.97 C 92.86 68.64 92.33 69.98 92.07 70.65 C 92.09 71.90 92.11 73.14 92.14 74.39 C 92.59 75.73 93.00 77.09 93.43 78.45 C 93.98 80.44 94.04 82.51 94.04 84.57 C 93.26 85.69 92.53 86.85 91.66 87.92 C 87.36 88.18 83.04 87.91 78.73 87.98 C 78.82 87.11 79.01 85.35 79.10 84.48 C 77.63 84.56 76.16 84.63 74.68 84.71 C 75.93 84.40 77.18 84.11 78.43 83.81 C 78.26 79.17 75.04 75.82 71.22 73.66 C 68.24 76.28 65.62 79.27 63.24 82.43 C 65.48 84.67 67.72 86.90 69.95 89.16 C 71.77 88.36 73.59 87.54 75.41 86.73 C 76.49 87.42 77.56 88.11 78.64 88.81 L 79.04 89.07 C 73.98 91.06 68.35 89.49 63.05 90.08 C 63.59 88.69 64.05 87.28 64.49 85.86 C 62.48 87.15 60.13 87.08 57.86 86.72 C 59.57 86.19 61.28 85.70 63.00 85.21 C 62.58 84.58 62.16 83.96 61.74 83.33 C 59.35 83.35 56.96 83.35 54.56 83.33 C 52.79 82.35 50.93 81.55 48.99 80.98 C 47.19 81.85 45.36 82.65 43.52 83.43 C 44.48 84.38 45.44 85.34 46.40 86.29 C 45.05 86.84 43.70 87.38 42.35 87.93 C 43.24 87.87 45.01 87.76 45.90 87.70 L 46.03 88.97 C 42.44 88.95 38.85 89.18 35.28 88.92 C 34.48 88.63 32.89 88.05 32.09 87.76 C 35.97 86.56 41.20 87.98 43.76 84.08 C 39.60 85.38 35.30 86.05 31.08 87.10 L 31.09 87.33 L 31.24 88.71 L 30.06 89.09 C 30.07 87.74 30.09 86.39 30.10 85.04 C 29.42 85.01 28.06 84.94 27.37 84.91 C 26.14 83.60 24.90 82.29 23.66 80.98 C 24.12 80.50 25.04 79.53 25.50 79.05 C 25.17 78.69 24.49 77.97 24.15 77.61 C 24.73 76.28 25.27 74.93 25.82 73.59 C 24.75 71.63 24.68 69.11 26.02 67.26 C 25.98 65.95 25.91 64.64 25.81 63.33 C 26.50 62.17 27.89 61.95 29.06 61.55 C 29.46 58.50 27.66 54.15 31.39 52.69 C 31.13 53.20 30.59 54.21 30.32 54.72 C 30.06 58.40 30.11 62.09 30.15 65.78 C 30.43 65.28 30.99 64.30 31.27 63.81 C 32.03 65.69 32.94 67.51 33.85 69.32 C 34.67 70.84 34.98 72.54 35.21 74.23 C 32.82 70.46 30.74 66.28 27.37 63.30 C 26.15 68.09 26.42 73.14 28.47 77.66 C 29.66 77.41 32.05 76.92 33.25 76.67 L 31.45 77.47 C 30.70 77.69 29.20 78.13 28.45 78.35 C 27.72 77.15 27.03 75.92 26.32 74.70 C 26.06 76.75 25.80 78.81 25.49 80.86 C 26.45 81.86 27.41 82.86 28.36 83.87 C 31.48 84.42 34.67 85.35 37.85 84.78 C 42.02 83.50 45.61 80.57 50.00 79.98 C 53.90 79.82 58.12 83.81 61.56 80.56 C 64.51 78.17 67.86 76.07 70.07 72.94 C 69.68 68.83 67.13 65.39 65.37 61.78 C 65.43 59.18 65.31 56.58 65.01 54.00 C 63.67 51.83 61.55 50.14 58.96 49.82 C 57.41 50.18 56.19 51.27 54.88 52.10 C 53.86 56.44 50.27 59.31 47.28 62.31 C 44.31 65.27 40.48 67.21 36.54 68.53 L 35.12 68.93 C 42.64 64.99 49.90 60.14 54.47 52.79 C 48.09 53.95 41.82 51.92 36.52 48.45 C 36.24 48.66 35.69 49.08 35.41 49.29 C 34.75 49.79 33.43 50.78 32.76 51.27 C 32.97 49.12 34.75 47.59 36.81 47.28 C 40.52 48.71 43.96 45.46 46.97 43.68 C 47.27 40.93 47.09 38.15 47.01 35.39 C 47.56 34.54 48.18 33.77 48.89 33.07 C 48.32 39.12 47.71 45.15 46.59 51.13 L 47.41 51.93 C 50.25 52.48 52.04 50.73 52.45 48.00 C 54.48 45.80 56.85 43.96 59.28 42.22 C 63.34 43.44 67.37 44.75 71.34 46.24 C 71.11 42.06 67.53 39.32 66.63 35.38 C 65.93 33.17 65.66 30.51 63.24 29.47 C 60.72 31.45 59.53 34.53 57.99 37.24 C 57.34 37.22 56.06 37.18 55.42 37.16 C 54.03 35.77 52.63 34.40 51.22 33.04 C 50.78 34.87 50.33 36.69 49.94 38.52 C 50.10 36.95 50.29 35.39 50.49 33.83 C 50.77 33.37 51.34 32.45 51.63 32.00 C 51.24 31.99 50.48 31.99 50.10 31.99 C 50.15 30.91 50.90 30.53 52.38 30.85 C 53.40 33.12 55.07 35.02 57.12 36.44 C 58.69 34.11 59.77 31.50 61.14 29.06 M 72.21 40.82 C 72.08 42.75 72.32 44.75 71.78 46.62 C 70.74 48.55 68.96 49.87 66.97 50.69 C 66.41 50.78 65.27 50.97 64.70 51.06 C 64.99 51.51 65.56 52.42 65.84 52.87 C 66.23 55.07 66.78 57.24 67.20 59.44 C 67.22 60.50 67.24 61.56 67.27 62.63 C 67.99 63.36 68.71 64.09 69.43 64.82 C 72.17 64.88 75.05 64.92 77.18 62.91 C 79.80 61.60 82.40 60.23 84.98 58.83 C 80.17 53.24 80.37 43.09 72.21 40.82 M 60.35 44.01 C 60.21 44.53 59.93 45.56 59.79 46.07 C 58.69 45.82 57.63 44.97 56.48 45.20 C 55.24 46.16 54.14 47.27 53.00 48.34 C 53.00 48.99 53.00 50.29 53.00 50.94 L 51.94 50.96 L 51.97 52.17 C 53.17 51.68 54.38 51.20 55.59 50.71 C 57.19 49.12 59.32 48.59 61.44 49.48 C 64.57 50.89 67.72 49.13 70.39 47.55 C 67.19 45.98 63.84 44.74 60.35 44.01 M 43.92 46.55 C 42.69 47.36 41.46 48.17 40.23 48.98 L 41.04 50.51 L 41.90 48.43 C 42.87 49.26 43.28 51.10 44.73 51.12 C 45.38 49.61 45.90 48.05 46.40 46.49 C 45.81 46.99 44.63 48.00 44.04 48.50 C 44.01 48.01 43.95 47.04 43.92 46.55 M 79.94 83.53 C 80.19 83.87 80.70 84.54 80.96 84.87 C 78.48 85.28 80.99 88.70 82.48 87.01 C 84.18 86.82 85.89 86.68 87.60 86.56 C 88.06 86.21 88.97 85.50 89.42 85.14 C 90.62 85.11 91.82 85.07 93.02 85.04 C 93.03 83.24 93.03 81.44 93.03 79.64 C 89.03 81.95 84.63 83.70 79.94 83.53 M 81.26 81.52 C 82.00 84.79 83.74 79.41 81.26 81.52 M 89.97 86.28 C 90.57 86.84 90.57 86.84 89.97 86.28 M 65.24 88.73 C 65.80 88.77 66.93 88.85 67.50 88.90 C 68.78 86.53 63.63 86.13 65.24 88.73 M 74.32 88.13 C 74.44 91.43 77.42 86.62 74.32 88.13 Z" />
<path fill="#373c42" opacity="1.00" d=" M 60.31 54.62 C 58.54 52.18 64.16 51.68 63.21 54.51 C 62.48 54.54 61.04 54.59 60.31 54.62 Z" />
<path fill="#373c42" opacity="1.00" d=" M 49.26 69.28 C 49.85 69.74 49.85 69.74 49.26 69.28 Z" />
<path fill="#373c42" opacity="1.00" d=" M 45.93 73.25 C 46.67 71.95 47.39 71.89 48.09 73.08 C 47.35 74.39 46.64 74.45 45.93 73.25 Z" />
<path fill="#373c42" opacity="1.00" d=" M 83.36 73.20 C 83.87 73.75 83.87 73.75 83.36 73.20 Z" />
<path fill="#373c42" opacity="1.00" d=" M 41.67 75.73 C 42.43 75.08 43.19 74.43 43.95 73.79 C 45.02 74.51 46.08 75.23 47.15 75.95 C 46.44 75.95 45.01 75.95 44.29 75.95 L 44.23 76.55 C 44.77 77.00 45.84 77.89 46.38 78.34 C 44.71 77.65 43.18 76.70 41.67 75.73 Z" />
<path fill="#373c42" opacity="1.00" d=" M 33.41 76.60 C 33.47 76.55 33.58 76.47 33.63 76.42 L 33.54 76.54 L 33.41 76.60 Z" />
<path fill="#373c42" opacity="1.00" d=" M 39.18 78.66 C 39.27 77.45 39.97 76.72 41.28 76.46 C 43.11 77.04 40.27 79.49 39.18 78.66 Z" />
<path fill="#373c42" opacity="1.00" d=" M 51.73 83.25 C 52.30 83.80 52.30 83.80 51.73 83.25 Z" />
<path fill="#373c42" opacity="1.00" d=" M 44.80 83.62 C 47.03 83.59 49.26 83.56 51.50 83.52 L 50.52 84.79 C 50.03 84.85 49.04 84.97 48.55 85.03 C 48.45 86.32 49.12 86.71 50.53 86.22 C 51.32 86.01 52.90 85.59 53.69 85.39 C 54.08 85.02 54.87 84.28 55.26 83.91 C 56.41 83.98 57.55 84.05 58.70 84.12 C 57.33 85.00 55.97 85.90 54.62 86.81 C 51.84 87.08 48.93 86.65 46.29 87.72 L 45.90 87.70 C 46.16 87.26 46.67 86.39 46.93 85.95 C 46.40 85.37 45.33 84.21 44.80 83.62 Z" />
</g>
<g id="#bec6d3ff">
<path fill="#bec6d3" opacity="1.00" d=" M 57.99 37.24 C 59.53 34.53 60.72 31.45 63.24 29.47 C 61.98 32.30 61.20 35.97 57.99 37.24 Z" />
<path fill="#bec6d3" opacity="1.00" d=" M 49.29 32.33 L 50.10 31.99 C 50.48 31.99 51.24 31.99 51.63 32.00 C 51.34 32.45 50.77 33.37 50.49 33.83 C 50.29 35.39 50.10 36.95 49.94 38.52 C 49.49 42.55 49.72 46.61 49.86 50.65 C 49.04 50.77 47.40 51.01 46.59 51.13 C 47.71 45.15 48.32 39.12 48.89 33.07 L 49.29 32.33 Z" />
<path fill="#bec6d3" opacity="1.00" d=" M 60.35 44.01 C 63.84 44.74 67.19 45.98 70.39 47.55 C 67.72 49.13 64.57 50.89 61.44 49.48 C 59.32 48.59 57.19 49.12 55.59 50.71 C 54.38 51.20 53.17 51.68 51.97 52.17 L 51.94 50.96 L 53.00 50.94 C 53.00 50.29 53.00 48.99 53.00 48.34 C 54.14 47.27 55.24 46.16 56.48 45.20 C 57.63 44.97 58.69 45.82 59.79 46.07 C 59.93 45.56 60.21 44.53 60.35 44.01 Z" />
<path fill="#bec6d3" opacity="1.00" d=" M 66.97 50.69 C 69.90 50.21 72.76 49.46 75.63 48.72 C 75.69 53.16 74.47 57.81 70.93 60.77 C 69.65 60.43 68.44 59.89 67.20 59.44 C 66.78 57.24 66.23 55.07 65.84 52.87 C 65.56 52.42 64.99 51.51 64.70 51.06 C 65.27 50.97 66.41 50.78 66.97 50.69 Z" />
<path fill="#bec6d3" opacity="1.00" d=" M 32.76 51.27 C 33.43 50.78 34.75 49.79 35.41 49.29 C 35.64 54.46 33.70 59.34 31.27 63.81 C 30.99 64.30 30.43 65.28 30.15 65.78 C 30.11 62.09 30.06 58.40 30.32 54.72 C 30.59 54.21 31.13 53.20 31.39 52.69 C 31.50 52.51 31.70 52.14 31.81 51.96 C 32.04 51.79 32.52 51.44 32.76 51.27 Z" />
<path fill="#bec6d3" opacity="1.00" d=" M 54.88 52.10 C 56.19 51.27 57.41 50.18 58.96 49.82 C 61.55 50.14 63.67 51.83 65.01 54.00 C 64.56 54.13 63.66 54.38 63.21 54.51 C 64.16 51.68 58.54 52.18 60.31 54.62 C 60.71 55.24 61.49 56.48 61.89 57.10 C 52.37 61.56 43.45 67.67 36.82 75.91 C 35.01 77.90 33.09 80.50 30.12 80.50 C 29.70 79.96 28.87 78.89 28.45 78.35 C 29.20 78.13 30.70 77.69 31.45 77.47 L 33.25 76.67 L 33.41 76.60 L 33.54 76.54 L 33.63 76.42 C 34.02 75.87 34.81 74.78 35.21 74.23 C 34.98 72.54 34.67 70.84 33.85 69.32 C 34.17 69.23 34.81 69.03 35.12 68.93 L 36.54 68.53 C 40.48 67.21 44.31 65.27 47.28 62.31 C 50.27 59.31 53.86 56.44 54.88 52.10 Z" />
<path fill="#bec6d3" opacity="1.00" d=" M 48.55 85.03 C 49.04 84.97 50.03 84.85 50.52 84.79 C 50.52 85.15 50.53 85.86 50.53 86.22 C 49.12 86.71 48.45 86.32 48.55 85.03 Z" />
<path fill="#bec6d3" opacity="1.00" d=" M 82.48 87.01 C 80.99 88.70 78.48 85.28 80.96 84.87 C 81.52 85.54 82.03 86.25 82.48 87.01 Z" />
<path fill="#bec6d3" opacity="1.00" d=" M 89.97 86.28 C 90.57 86.84 90.57 86.84 89.97 86.28 Z" />
<path fill="#bec6d3" opacity="1.00" d=" M 31.08 87.10 C 31.14 87.15 31.25 87.27 31.31 87.32 L 31.09 87.33 L 31.08 87.10 Z" />
<path fill="#bec6d3" opacity="1.00" d=" M 65.24 88.73 C 63.63 86.13 68.78 86.53 67.50 88.90 C 66.93 88.85 65.80 88.77 65.24 88.73 Z" />
<path fill="#bec6d3" opacity="1.00" d=" M 74.32 88.13 C 77.42 86.62 74.44 91.43 74.32 88.13 Z" />
</g>
<g id="#a5abb8ff">
<path fill="#a5abb8" opacity="1.00" d=" M 63.24 29.47 C 65.66 30.51 65.93 33.17 66.63 35.38 C 67.53 39.32 71.11 42.06 71.34 46.24 C 67.37 44.75 63.34 43.44 59.28 42.22 C 56.85 43.96 54.48 45.80 52.45 48.00 C 52.04 50.73 50.25 52.48 47.41 51.93 L 46.59 51.13 C 47.40 51.01 49.04 50.77 49.86 50.65 C 49.72 46.61 49.49 42.55 49.94 38.52 C 50.33 36.69 50.78 34.87 51.22 33.04 C 52.63 34.40 54.03 35.77 55.42 37.16 C 56.06 37.18 57.34 37.22 57.99 37.24 C 61.20 35.97 61.98 32.30 63.24 29.47 Z" />
<path fill="#a5abb8" opacity="1.00" d=" M 72.21 40.82 C 80.37 43.09 80.17 53.24 84.98 58.83 C 82.40 60.23 79.80 61.60 77.18 62.91 C 75.05 64.92 72.17 64.88 69.43 64.82 C 68.71 64.09 67.99 63.36 67.27 62.63 C 67.24 61.56 67.22 60.50 67.20 59.44 C 68.44 59.89 69.65 60.43 70.93 60.77 C 74.47 57.81 75.69 53.16 75.63 48.72 C 72.76 49.46 69.90 50.21 66.97 50.69 C 68.96 49.87 70.74 48.55 71.78 46.62 C 72.32 44.75 72.08 42.75 72.21 40.82 Z" />
<path fill="#a5abb8" opacity="1.00" d=" M 43.92 46.55 C 43.95 47.04 44.01 48.01 44.04 48.50 C 44.63 48.00 45.81 46.99 46.40 46.49 C 45.90 48.05 45.38 49.61 44.73 51.12 C 43.28 51.10 42.87 49.26 41.90 48.43 L 41.04 50.51 L 40.23 48.98 C 41.46 48.17 42.69 47.36 43.92 46.55 Z" />
<path fill="#a5abb8" opacity="1.00" d=" M 35.41 49.29 C 35.69 49.08 36.24 48.66 36.52 48.45 C 41.82 51.92 48.09 53.95 54.47 52.79 C 49.90 60.14 42.64 64.99 35.12 68.93 C 34.81 69.03 34.17 69.23 33.85 69.32 C 32.94 67.51 32.03 65.69 31.27 63.81 C 33.70 59.34 35.64 54.46 35.41 49.29 Z" />
<path fill="#a5abb8" opacity="1.00" d=" M 82.41 51.84 C 84.18 52.29 85.96 52.76 87.73 53.20 C 88.51 53.92 89.29 54.63 90.06 55.34 C 90.07 57.12 90.08 58.91 90.08 60.69 C 88.65 61.02 87.12 61.08 85.78 61.73 C 83.72 64.82 82.92 68.53 81.84 72.04 C 83.61 71.79 85.38 71.54 87.15 71.26 C 86.85 72.84 86.55 74.41 86.24 75.98 C 83.94 77.38 81.81 79.06 79.68 80.69 C 77.88 77.03 74.97 74.04 71.13 72.55 C 70.70 70.73 70.27 68.91 69.86 67.08 C 70.52 67.05 71.85 67.00 72.52 66.97 C 76.33 64.80 80.15 62.62 83.99 60.49 C 83.87 61.17 83.61 62.53 83.48 63.20 C 84.36 61.77 85.29 60.36 86.00 58.84 C 85.10 56.36 83.61 54.17 82.41 51.84 M 83.36 73.20 C 83.87 73.75 83.87 73.75 83.36 73.20 Z" />
<path fill="#a5abb8" opacity="1.00" d=" M 63.21 54.51 C 63.66 54.38 64.56 54.13 65.01 54.00 C 65.31 56.58 65.43 59.18 65.37 61.78 C 67.13 65.39 69.68 68.83 70.07 72.94 C 67.86 76.07 64.51 78.17 61.56 80.56 C 58.12 83.81 53.90 79.82 50.00 79.98 C 45.61 80.57 42.02 83.50 37.85 84.78 C 34.67 85.35 31.48 84.42 28.36 83.87 C 27.41 82.86 26.45 81.86 25.49 80.86 C 25.80 78.81 26.06 76.75 26.32 74.70 C 27.03 75.92 27.72 77.15 28.45 78.35 C 28.87 78.89 29.70 79.96 30.12 80.50 C 33.09 80.50 35.01 77.90 36.82 75.91 C 43.45 67.67 52.37 61.56 61.89 57.10 C 61.49 56.48 60.71 55.24 60.31 54.62 C 61.04 54.59 62.48 54.54 63.21 54.51 M 49.26 69.28 C 49.85 69.74 49.85 69.74 49.26 69.28 M 45.93 73.25 C 46.64 74.45 47.35 74.39 48.09 73.08 C 47.39 71.89 46.67 71.95 45.93 73.25 M 41.67 75.73 C 43.18 76.70 44.71 77.65 46.38 78.34 C 45.84 77.89 44.77 77.00 44.23 76.55 L 44.29 75.95 C 45.01 75.95 46.44 75.95 47.15 75.95 C 46.08 75.23 45.02 74.51 43.95 73.79 C 43.19 74.43 42.43 75.08 41.67 75.73 M 39.18 78.66 C 40.27 79.49 43.11 77.04 41.28 76.46 C 39.97 76.72 39.27 77.45 39.18 78.66 Z" />
<path fill="#a5abb8" opacity="1.00" d=" M 27.37 63.30 C 30.74 66.28 32.82 70.46 35.21 74.23 C 34.81 74.78 34.02 75.87 33.63 76.42 C 33.58 76.47 33.47 76.55 33.41 76.60 L 33.25 76.67 C 32.05 76.92 29.66 77.41 28.47 77.66 C 26.42 73.14 26.15 68.09 27.37 63.30 Z" />
<path fill="#a5abb8" opacity="1.00" d=" M 85.83 63.40 C 88.54 63.51 91.24 63.62 93.95 63.81 C 94.05 64.63 94.26 66.28 94.36 67.11 C 94.05 67.32 93.43 67.76 93.12 67.97 C 89.82 70.60 91.28 75.07 91.70 78.62 C 88.78 79.66 85.77 80.52 82.65 80.61 C 83.81 79.04 84.99 77.48 86.24 75.98 C 86.65 75.92 87.48 75.78 87.89 75.72 C 87.87 73.80 87.85 71.89 87.84 69.97 C 86.09 70.45 84.34 70.93 82.59 71.39 C 83.62 68.70 84.68 66.03 85.83 63.40 Z" />
<path fill="#a5abb8" opacity="1.00" d=" M 71.22 73.66 C 75.04 75.82 78.26 79.17 78.43 83.81 C 77.18 84.11 75.93 84.40 74.68 84.71 C 76.16 84.63 77.63 84.56 79.10 84.48 C 79.01 85.35 78.82 87.11 78.73 87.98 L 78.64 88.81 C 77.56 88.11 76.49 87.42 75.41 86.73 C 73.59 87.54 71.77 88.36 69.95 89.16 C 67.72 86.90 65.48 84.67 63.24 82.43 C 65.62 79.27 68.24 76.28 71.22 73.66 Z" />
<path fill="#a5abb8" opacity="1.00" d=" M 79.94 83.53 C 84.63 83.70 89.03 81.95 93.03 79.64 C 93.03 81.44 93.03 83.24 93.02 85.04 C 91.82 85.07 90.62 85.11 89.42 85.14 C 88.97 85.50 88.06 86.21 87.60 86.56 C 85.89 86.68 84.18 86.82 82.48 87.01 C 82.03 86.25 81.52 85.54 80.96 84.87 C 80.70 84.54 80.19 83.87 79.94 83.53 Z" />
<path fill="#a5abb8" opacity="1.00" d=" M 48.99 80.98 C 50.93 81.55 52.79 82.35 54.56 83.33 C 56.96 83.35 59.35 83.35 61.74 83.33 C 62.16 83.96 62.58 84.58 63.00 85.21 C 61.28 85.70 59.57 86.19 57.86 86.72 C 56.78 86.74 55.70 86.77 54.62 86.81 C 55.97 85.90 57.33 85.00 58.70 84.12 C 57.55 84.05 56.41 83.98 55.26 83.91 C 54.87 84.28 54.08 85.02 53.69 85.39 C 52.90 85.59 51.32 86.01 50.53 86.22 C 50.53 85.86 50.52 85.15 50.52 84.79 L 51.50 83.52 C 49.26 83.56 47.03 83.59 44.80 83.62 C 45.33 84.21 46.40 85.37 46.93 85.95 C 46.67 86.39 46.16 87.26 45.90 87.70 C 45.01 87.76 43.24 87.87 42.35 87.93 C 43.70 87.38 45.05 86.84 46.40 86.29 C 45.44 85.34 44.48 84.38 43.52 83.43 C 45.36 82.65 47.19 81.85 48.99 80.98 M 51.73 83.25 C 52.30 83.80 52.30 83.80 51.73 83.25 Z" />
<path fill="#a5abb8" opacity="1.00" d=" M 31.08 87.10 C 35.30 86.05 39.60 85.38 43.76 84.08 C 41.20 87.98 35.97 86.56 32.09 87.76 C 32.89 88.05 34.48 88.63 35.28 88.92 C 33.93 88.90 32.58 88.83 31.24 88.71 L 31.09 87.33 L 31.31 87.32 C 31.25 87.27 31.14 87.15 31.08 87.10 Z" />
</g>
</svg>
