<?xml version="1.0" encoding="UTF-8" ?>
<!DOCTYPE svg PUBLIC "-//W3C//DTD SVG 1.1//EN" "http://www.w3.org/Graphics/SVG/1.1/DTD/svg11.dtd">
<svg width="120pt" height="120pt" viewBox="0 0 120 120" version="1.1" xmlns="http://www.w3.org/2000/svg">
<g id="#444637f8">
<path fill="#444637" opacity="0.97" d=" M 48.24 36.04 C 50.59 34.23 53.77 35.34 56.50 35.14 C 57.47 36.49 59.54 36.45 60.53 35.13 C 61.68 35.10 62.83 35.08 63.99 35.07 L 63.99 35.93 L 62.93 36.00 C 61.71 35.85 60.67 36.19 59.82 37.00 C 59.09 37.00 57.63 37.00 56.90 37.00 C 54.50 35.31 51.42 36.22 48.70 36.07 C 49.45 36.71 50.21 37.35 50.96 37.98 C 49.75 37.70 48.54 37.42 47.33 37.14 C 46.89 37.45 46.00 38.09 45.55 38.41 C 43.53 39.77 41.49 42.18 42.52 44.76 C 42.15 44.90 41.41 45.18 41.05 45.31 C 41.03 46.17 40.98 47.90 40.96 48.76 L 40.56 48.35 L 40.11 48.72 C 40.32 48.73 40.75 48.75 40.96 48.76 C 41.43 48.57 42.38 48.18 42.86 47.99 C 41.48 50.09 42.12 52.53 43.97 54.08 L 41.72 52.68 C 43.06 55.02 44.48 57.32 45.63 59.77 C 48.65 60.79 50.64 57.43 53.67 57.82 C 51.75 58.75 49.91 59.83 48.07 60.91 C 47.45 60.94 46.22 61.00 45.60 61.03 L 44.92 60.74 C 44.88 62.32 44.84 63.90 44.81 65.48 C 44.40 66.26 43.59 67.82 43.18 68.59 L 42.82 68.13 C 41.96 67.08 41.08 66.06 40.21 65.03 C 41.51 63.89 42.83 62.78 44.14 61.67 C 43.94 59.30 42.95 57.14 41.78 55.11 L 41.11 55.14 C 39.50 55.00 39.53 54.43 41.20 53.42 C 40.41 52.51 39.70 51.54 39.06 50.52 C 39.08 49.52 39.11 48.52 39.13 47.52 C 40.55 45.60 41.10 43.25 42.07 41.11 C 41.69 39.67 40.68 38.49 39.91 37.24 C 42.21 35.20 45.48 36.40 48.24 36.04 M 43.02 37.33 L 42.99 38.03 C 45.15 39.51 45.16 35.59 43.02 37.33 Z" />
</g>
<g id="#ffee7fff">
<path fill="#ffee7f" opacity="1.00" d=" M 48.70 36.07 C 51.42 36.22 54.50 35.31 56.90 37.00 C 58.34 38.40 59.74 39.84 61.12 41.30 C 61.10 43.48 59.78 45.13 58.12 46.38 C 56.09 47.05 54.19 46.37 52.74 44.89 C 51.43 42.81 53.63 40.62 53.57 38.44 C 52.69 39.84 52.43 41.82 50.89 42.70 C 49.22 42.80 47.55 42.46 45.89 42.37 C 45.81 41.38 45.64 39.40 45.55 38.41 C 46.00 38.09 46.89 37.45 47.33 37.14 C 48.54 37.42 49.75 37.70 50.96 37.98 C 50.21 37.35 49.45 36.71 48.70 36.07 M 59.23 43.28 C 59.78 43.87 59.78 43.87 59.23 43.28 Z" />
</g>
<g id="#efd472ff">
<path fill="#efd472" opacity="1.00" d=" M 59.82 37.00 C 60.67 36.19 61.71 35.85 62.93 36.00 C 62.59 36.52 61.89 37.54 61.54 38.06 L 60.68 38.22 C 60.47 37.91 60.04 37.30 59.82 37.00 Z" />
</g>
<g id="#6d6136fc">
<path fill="#6d6136" opacity="1.00" d=" M 62.93 36.00 L 63.99 35.93 C 63.96 39.21 63.87 42.49 64.01 45.76 C 67.81 48.86 70.40 53.50 71.17 58.31 C 72.69 58.34 73.84 56.24 75.24 57.73 C 74.12 58.26 72.99 58.79 71.87 59.31 C 72.20 60.95 72.70 62.56 73.48 64.05 C 74.26 65.55 75.08 67.03 75.89 68.52 C 74.65 69.17 75.40 70.11 75.89 71.01 C 74.33 73.16 75.73 76.17 73.73 78.07 L 73.22 77.70 C 72.88 77.46 72.21 76.99 71.87 76.75 C 70.81 76.69 69.75 76.65 68.69 76.64 C 72.57 75.70 71.05 71.02 71.48 68.13 C 69.56 67.78 67.66 67.39 65.77 66.92 C 65.97 66.53 66.38 65.75 66.58 65.36 C 67.08 67.83 69.93 67.01 71.69 67.41 C 71.82 70.28 71.81 73.17 71.61 76.04 C 72.14 76.01 73.19 75.94 73.72 75.91 C 73.95 74.47 74.19 73.04 74.44 71.62 C 74.12 68.39 72.88 65.39 71.07 62.72 C 71.10 60.23 69.99 58.03 67.60 57.06 C 68.24 57.11 69.51 57.21 70.14 57.26 C 68.29 53.39 66.32 49.48 62.95 46.70 C 62.91 45.58 62.88 44.47 62.86 43.36 C 62.29 42.67 61.71 41.98 61.12 41.30 C 59.74 39.84 58.34 38.40 56.90 37.00 C 57.63 37.00 59.09 37.00 59.82 37.00 C 60.04 37.30 60.47 37.91 60.68 38.22 C 61.01 38.62 61.68 39.42 62.01 39.82 C 61.89 39.38 61.66 38.50 61.54 38.06 C 61.89 37.54 62.59 36.52 62.93 36.00 Z" />
</g>
<g id="#f5f583ff">
<path fill="#f5f583" opacity="1.00" d=" M 43.02 37.33 C 45.16 35.59 45.15 39.51 42.99 38.03 L 43.02 37.33 Z" />
</g>
<g id="#ded5c0ff">
<path fill="#ded5c0" opacity="1.00" d=" M 60.68 38.22 L 61.54 38.06 C 61.66 38.50 61.89 39.38 62.01 39.82 C 61.68 39.42 61.01 38.62 60.68 38.22 Z" />
</g>
<g id="#ffe178ff">
<path fill="#ffe178" opacity="1.00" d=" M 42.52 44.76 C 41.49 42.18 43.53 39.77 45.55 38.41 C 45.64 39.40 45.81 41.38 45.89 42.37 L 44.92 42.28 C 49.15 42.65 53.45 44.56 54.85 48.90 C 53.77 49.28 52.99 49.97 52.50 50.96 C 52.06 51.38 51.17 52.23 50.73 52.65 C 50.69 52.68 50.60 52.74 50.55 52.78 C 50.09 52.98 49.17 53.39 48.72 53.59 C 48.65 53.62 48.53 53.66 48.46 53.68 L 48.31 53.76 C 47.67 54.03 46.37 54.58 45.73 54.85 L 45.76 54.30 L 45.23 54.26 L 45.19 54.81 C 44.88 54.63 44.27 54.26 43.97 54.08 C 42.12 52.53 41.48 50.09 42.86 47.99 C 42.38 48.18 41.43 48.57 40.96 48.76 C 40.98 47.90 41.03 46.17 41.05 45.31 C 41.41 45.18 42.15 44.90 42.52 44.76 M 45.20 44.58 C 44.90 45.66 44.59 46.73 44.29 47.80 C 46.82 48.17 49.22 49.06 51.61 49.95 C 50.90 47.89 48.56 47.99 46.88 47.22 C 46.27 46.38 45.71 45.50 45.20 44.58 Z" />
<path fill="#ffe178" opacity="1.00" d=" M 61.12 41.30 C 61.71 41.98 62.29 42.67 62.86 43.36 C 62.88 44.47 62.91 45.58 62.95 46.70 C 66.32 49.48 68.29 53.39 70.14 57.26 C 69.51 57.21 68.24 57.11 67.60 57.06 C 69.99 58.03 71.10 60.23 71.07 62.72 C 72.88 65.39 74.12 68.39 74.44 71.62 C 74.19 73.04 73.95 74.47 73.72 75.91 C 73.19 75.94 72.14 76.01 71.61 76.04 C 71.81 73.17 71.82 70.28 71.69 67.41 C 69.93 67.01 67.08 67.83 66.58 65.36 L 66.72 65.08 C 67.93 64.45 69.15 63.84 70.36 63.23 C 69.76 63.11 68.56 62.87 67.95 62.76 C 68.29 61.58 68.61 60.41 68.92 59.23 C 66.73 61.76 65.16 64.87 61.76 66.08 C 60.55 64.14 59.29 62.22 57.78 60.50 C 58.70 62.43 59.73 64.32 60.77 66.19 C 57.63 68.08 56.21 64.64 53.88 63.31 C 55.69 58.15 60.69 55.92 64.89 53.12 C 61.39 52.85 62.34 48.94 61.58 46.58 C 61.20 49.19 61.81 52.60 58.95 53.94 C 58.87 53.39 58.70 52.29 58.62 51.74 C 58.62 51.14 58.63 49.96 58.63 49.36 C 58.61 48.35 58.38 47.36 58.12 46.38 C 59.78 45.13 61.10 43.48 61.12 41.30 M 64.01 51.03 C 64.60 51.60 64.60 51.60 64.01 51.03 M 66.26 54.19 C 66.82 54.74 66.82 54.74 66.26 54.19 M 64.28 56.11 C 63.81 57.38 65.45 59.36 66.79 58.88 C 67.28 57.58 65.62 55.72 64.28 56.11 Z" />
</g>
<g id="#9d893fff">
<path fill="#9d893f" opacity="1.00" d=" M 59.23 43.28 C 59.78 43.87 59.78 43.87 59.23 43.28 Z" />
</g>
<g id="#cbb15cff">
<path fill="#cbb15c" opacity="1.00" d=" M 45.20 44.58 C 45.71 45.50 46.27 46.38 46.88 47.22 C 48.56 47.99 50.90 47.89 51.61 49.95 C 49.22 49.06 46.82 48.17 44.29 47.80 C 44.59 46.73 44.90 45.66 45.20 44.58 Z" />
</g>
<g id="#faf5ddff">
<path fill="#faf5dd" opacity="1.00" d=" M 54.92 47.38 C 55.30 47.35 56.08 47.30 56.46 47.27 C 56.43 47.71 56.36 48.59 56.32 49.03 C 55.19 49.16 54.72 48.61 54.92 47.38 Z" />
<path fill="#faf5dd" opacity="1.00" d=" M 44.92 60.74 L 45.60 61.03 C 47.86 62.38 50.45 62.80 53.04 62.85 C 52.77 63.33 52.22 64.31 51.95 64.79 L 53.18 65.31 C 52.82 65.69 52.10 66.44 51.73 66.82 C 54.55 68.04 57.62 68.18 60.64 67.97 C 62.88 66.69 65.13 65.43 67.19 63.87 L 66.72 65.08 L 66.58 65.36 C 66.38 65.75 65.97 66.53 65.77 66.92 C 65.73 67.00 65.66 67.15 65.63 67.23 C 64.22 69.94 63.44 72.90 62.62 75.82 L 61.65 76.44 C 54.72 78.11 46.01 75.70 43.18 68.59 C 43.59 67.82 44.40 66.26 44.81 65.48 C 44.84 63.90 44.88 62.32 44.92 60.74 Z" />
</g>
<g id="#82744aff">
<path fill="#82744a" opacity="1.00" d=" M 58.95 53.94 C 61.81 52.60 61.20 49.19 61.58 46.58 C 62.34 48.94 61.39 52.85 64.89 53.12 C 60.69 55.92 55.69 58.15 53.88 63.31 C 56.21 64.64 57.63 68.08 60.77 66.19 C 59.73 64.32 58.70 62.43 57.78 60.50 C 59.29 62.22 60.55 64.14 61.76 66.08 C 65.16 64.87 66.73 61.76 68.92 59.23 C 68.61 60.41 68.29 61.58 67.95 62.76 C 68.56 62.87 69.76 63.11 70.36 63.23 C 69.15 63.84 67.93 64.45 66.72 65.08 L 67.19 63.87 C 65.13 65.43 62.88 66.69 60.64 67.97 C 57.62 68.18 54.55 68.04 51.73 66.82 C 52.10 66.44 52.82 65.69 53.18 65.31 L 51.95 64.79 C 52.22 64.31 52.77 63.33 53.04 62.85 C 54.20 60.83 55.30 58.76 55.89 56.50 C 56.89 55.62 57.91 54.77 58.95 53.94 M 54.22 65.23 C 54.81 65.85 54.81 65.85 54.22 65.23 Z" />
</g>
<g id="#efefefff">
<path fill="#efefef" opacity="1.00" d=" M 40.56 48.35 L 40.96 48.76 C 40.75 48.75 40.32 48.73 40.11 48.72 L 40.56 48.35 Z" />
</g>
<g id="#245060ff">
<path fill="#245060" opacity="1.00" d=" M 53.64 49.86 C 55.30 49.71 56.97 49.54 58.63 49.36 C 58.63 49.96 58.62 51.14 58.62 51.74 C 57.12 52.58 55.65 53.45 54.16 54.31 L 53.78 53.21 C 53.74 52.37 53.68 50.70 53.64 49.86 Z" />
</g>
<g id="#fcf7dfff">
<path fill="#fcf7df" opacity="1.00" d=" M 52.50 50.96 C 52.94 51.70 53.36 52.45 53.78 53.21 L 54.16 54.31 C 55.65 53.45 57.12 52.58 58.62 51.74 C 58.70 52.29 58.87 53.39 58.95 53.94 C 57.91 54.77 56.89 55.62 55.89 56.50 L 54.80 57.23 L 54.45 57.42 L 54.21 57.58 L 53.67 57.82 C 50.64 57.43 48.65 60.79 45.63 59.77 C 44.48 57.32 43.06 55.02 41.72 52.68 L 43.97 54.08 C 44.27 54.26 44.88 54.63 45.19 54.81 L 45.73 54.85 C 46.37 54.58 47.67 54.03 48.31 53.76 L 48.72 53.59 C 49.17 53.39 50.09 52.98 50.55 52.78 C 50.60 52.74 50.69 52.68 50.73 52.65 C 51.17 52.23 52.06 51.38 52.50 50.96 Z" />
</g>
<g id="#816e39ff">
<path fill="#816e39" opacity="1.00" d=" M 64.01 51.03 C 64.60 51.60 64.60 51.60 64.01 51.03 Z" />
</g>
<g id="#121a1bb9">
<path fill="#121a1b" opacity="0.73" d=" M 81.39 50.78 C 82.37 51.50 82.98 52.44 83.20 53.60 L 82.15 53.12 L 81.22 52.70 C 79.09 54.22 77.02 55.85 74.58 56.86 C 76.31 54.18 79.76 53.56 81.39 50.78 Z" />
</g>
<g id="#ffff8aff">
<path fill="#ffff8a" opacity="1.00" d=" M 74.58 56.86 C 77.02 55.85 79.09 54.22 81.22 52.70 L 82.15 53.12 L 83.19 54.20 L 81.68 55.00 C 80.72 55.64 80.48 56.55 80.95 57.73 L 80.20 58.09 C 77.49 59.45 75.69 62.05 73.48 64.05 C 72.70 62.56 72.20 60.95 71.87 59.31 C 72.99 58.79 74.12 58.26 75.24 57.73 C 75.07 57.51 74.74 57.08 74.58 56.86 Z" />
</g>
<g id="#9a8742ff">
<path fill="#9a8742" opacity="1.00" d=" M 45.23 54.26 L 45.76 54.30 L 45.73 54.85 L 45.19 54.81 L 45.23 54.26 Z" />
</g>
<g id="#ae9749ff">
<path fill="#ae9749" opacity="1.00" d=" M 66.26 54.19 C 66.82 54.74 66.82 54.74 66.26 54.19 Z" />
</g>
<g id="#fff080ff">
<path fill="#fff080" opacity="1.00" d=" M 41.11 55.14 L 41.78 55.11 C 42.95 57.14 43.94 59.30 44.14 61.67 C 42.83 62.78 41.51 63.89 40.21 65.03 C 40.06 65.29 39.74 65.82 39.58 66.08 C 38.78 65.29 37.98 64.49 37.19 63.70 C 37.15 62.32 37.11 60.94 37.08 59.56 C 37.73 58.41 38.36 57.25 39.05 56.13 C 39.56 55.88 40.59 55.39 41.11 55.14 M 38.07 61.85 C 39.09 62.42 40.98 61.23 40.62 60.02 C 39.56 59.26 37.63 60.60 38.07 61.85 Z" />
</g>
<g id="#63562eff">
<path fill="#63562e" opacity="1.00" d=" M 80.95 57.73 C 80.48 56.55 80.72 55.64 81.68 55.00 C 81.66 55.70 81.62 57.10 81.60 57.80 L 80.95 57.73 Z" />
</g>
<g id="#1c2320ec">
<path fill="#1c2320" opacity="0.93" d=" M 35.98 64.70 C 35.90 61.76 35.63 57.13 39.05 56.13 C 38.36 57.25 37.73 58.41 37.08 59.56 C 37.11 60.94 37.15 62.32 37.19 63.70 C 37.98 64.49 38.78 65.29 39.58 66.08 L 39.17 67.03 C 38.89 67.67 38.35 68.96 38.07 69.60 C 37.78 72.29 38.06 74.99 39.59 77.29 C 40.89 78.06 42.19 78.85 43.47 79.66 C 45.29 79.77 47.11 79.91 48.92 80.12 C 46.83 80.62 44.69 80.92 42.57 81.29 C 40.93 79.10 37.97 78.40 37.04 75.60 C 36.61 72.43 37.28 69.40 38.13 66.39 C 37.59 65.97 36.52 65.12 35.98 64.70 Z" />
</g>
<g id="#d6bb61ff">
<path fill="#d6bb61" opacity="1.00" d=" M 64.28 56.11 C 65.62 55.72 67.28 57.58 66.79 58.88 C 65.45 59.36 63.81 57.38 64.28 56.11 Z" />
</g>
<g id="#57544bff">
<path fill="#57544b" opacity="1.00" d=" M 54.45 57.42 L 54.80 57.23 C 54.65 57.32 54.35 57.49 54.21 57.58 L 54.45 57.42 Z" />
</g>
<g id="#cfc4aeff">
<path fill="#cfc4ae" opacity="1.00" d=" M 54.80 57.23 L 55.89 56.50 C 55.30 58.76 54.20 60.83 53.04 62.85 C 50.45 62.80 47.86 62.38 45.60 61.03 C 46.22 61.00 47.45 60.94 48.07 60.91 C 49.91 59.83 51.75 58.75 53.67 57.82 L 54.21 57.58 C 54.35 57.49 54.65 57.32 54.80 57.23 Z" />
</g>
<g id="#f3d471ff">
<path fill="#f3d471" opacity="1.00" d=" M 73.48 64.05 C 75.69 62.05 77.49 59.45 80.20 58.09 L 81.23 59.22 L 79.71 60.08 C 78.85 60.74 78.59 61.68 78.95 62.89 C 78.68 63.17 78.16 63.74 77.90 64.03 C 77.51 64.03 76.74 64.03 76.36 64.03 C 76.49 64.53 76.75 65.55 76.88 66.05 C 76.63 66.67 76.14 67.90 75.89 68.52 C 75.08 67.03 74.26 65.55 73.48 64.05 Z" />
</g>
<g id="#c7ae59ff">
<path fill="#c7ae59" opacity="1.00" d=" M 38.07 61.85 C 37.63 60.60 39.56 59.26 40.62 60.02 C 40.98 61.23 39.09 62.42 38.07 61.85 Z" />
</g>
<g id="#453c1fff">
<path fill="#453c1f" opacity="1.00" d=" M 78.95 62.89 C 78.59 61.68 78.85 60.74 79.71 60.08 C 80.66 61.57 80.40 62.50 78.95 62.89 Z" />
</g>
<g id="#796a37ff">
<path fill="#796a37" opacity="1.00" d=" M 76.36 64.03 C 76.74 64.03 77.51 64.03 77.90 64.03 C 77.85 64.48 77.76 65.39 77.72 65.84 L 76.88 66.05 C 76.75 65.55 76.49 64.53 76.36 64.03 Z" />
</g>
<g id="#86763fff">
<path fill="#86763f" opacity="1.00" d=" M 39.58 66.08 C 39.74 65.82 40.06 65.29 40.21 65.03 C 41.08 66.06 41.96 67.08 42.82 68.13 C 43.11 70.44 43.77 72.69 44.71 74.82 C 44.88 75.37 45.22 76.46 45.39 77.01 C 44.22 76.73 43.04 76.46 41.87 76.21 C 42.64 73.64 42.35 70.98 41.90 68.38 C 40.99 67.94 40.07 67.48 39.17 67.03 L 39.58 66.08 M 43.09 74.26 C 41.68 77.41 46.31 74.35 43.09 74.26 Z" />
</g>
<g id="#fefeffff">
<path fill="#fefeff" opacity="1.00" d=" M 54.22 65.23 C 54.81 65.85 54.81 65.85 54.22 65.23 Z" />
</g>
<g id="#f4d572ff">
<path fill="#f4d572" opacity="1.00" d=" M 39.17 67.03 C 40.07 67.48 40.99 67.94 41.90 68.38 C 42.35 70.98 42.64 73.64 41.87 76.21 C 43.04 76.46 44.22 76.73 45.39 77.01 C 47.61 78.67 49.93 80.21 52.30 81.65 C 49.50 81.69 46.70 81.88 43.97 82.57 C 43.35 82.30 42.10 81.77 41.48 81.50 L 42.57 81.29 C 44.69 80.92 46.83 80.62 48.92 80.12 C 47.11 79.91 45.29 79.77 43.47 79.66 C 42.19 78.85 40.89 78.06 39.59 77.29 C 38.06 74.99 37.78 72.29 38.07 69.60 C 38.35 68.96 38.89 67.67 39.17 67.03 Z" />
<path fill="#f4d572" opacity="1.00" d=" M 43.09 74.26 C 46.31 74.35 41.68 77.41 43.09 74.26 Z" />
</g>
<g id="#f9d974ff">
<path fill="#f9d974" opacity="1.00" d=" M 65.63 67.23 C 65.66 67.15 65.73 67.00 65.77 66.92 C 67.66 67.39 69.56 67.78 71.48 68.13 C 71.05 71.02 72.57 75.70 68.69 76.64 C 69.75 76.65 70.81 76.69 71.87 76.75 C 72.21 76.99 72.88 77.46 73.22 77.70 C 72.79 78.20 71.94 79.19 71.51 79.68 L 70.93 79.71 C 68.30 79.63 65.32 80.47 63.04 78.75 L 62.55 77.96 C 64.67 77.39 66.78 76.80 68.85 76.05 C 67.36 75.77 65.85 75.75 64.35 75.76 C 64.54 72.87 65.94 70.15 65.63 67.23 Z" />
</g>
<g id="#c3b8a3ff">
<path fill="#c3b8a3" opacity="1.00" d=" M 42.82 68.13 L 43.18 68.59 C 46.01 75.70 54.72 78.11 61.65 76.44 C 61.87 76.82 62.32 77.58 62.55 77.96 L 63.04 78.75 C 56.81 82.03 49.59 79.17 44.71 74.82 C 43.77 72.69 43.11 70.44 42.82 68.13 Z" />
</g>
<g id="#a7965eff">
<path fill="#a7965e" opacity="1.00" d=" M 65.63 67.23 C 65.94 70.15 64.54 72.87 64.35 75.76 C 65.85 75.75 67.36 75.77 68.85 76.05 C 66.78 76.80 64.67 77.39 62.55 77.96 C 62.32 77.58 61.87 76.82 61.65 76.44 L 62.62 75.82 C 63.44 72.90 64.22 69.94 65.63 67.23 Z" />
</g>
<g id="#4b4636ff">
<path fill="#4b4636" opacity="1.00" d=" M 44.71 74.82 C 49.59 79.17 56.81 82.03 63.04 78.75 C 65.32 80.47 68.30 79.63 70.93 79.71 C 70.95 81.13 70.98 82.56 71.00 83.99 C 68.36 84.02 65.72 84.00 63.08 83.93 C 63.10 82.54 63.11 81.15 63.11 79.75 C 59.98 81.43 56.45 81.01 53.04 80.99 C 53.02 81.49 52.98 82.48 52.96 82.97 C 51.16 83.21 48.86 82.32 47.51 83.92 C 44.57 84.02 41.64 84.03 38.70 83.95 C 39.40 83.29 40.11 82.63 40.83 81.99 C 41.54 83.24 42.59 83.43 43.97 82.57 C 46.70 81.88 49.50 81.69 52.30 81.65 C 49.93 80.21 47.61 78.67 45.39 77.01 C 45.22 76.46 44.88 75.37 44.71 74.82 M 64.08 81.48 C 63.06 83.72 67.74 83.96 66.92 81.63 C 66.09 81.25 64.93 81.08 64.08 81.48 M 67.94 81.38 C 67.63 82.76 68.19 83.30 69.62 82.99 C 69.89 81.65 69.33 81.11 67.94 81.38 Z" />
</g>
<g id="#c7b175ff">
<path fill="#c7b175" opacity="1.00" d=" M 64.08 81.48 C 64.93 81.08 66.09 81.25 66.92 81.63 C 67.74 83.96 63.06 83.72 64.08 81.48 Z" />
</g>
<g id="#c2ac6eff">
<path fill="#c2ac6e" opacity="1.00" d=" M 67.94 81.38 C 69.33 81.11 69.89 81.65 69.62 82.99 C 68.19 83.30 67.63 82.76 67.94 81.38 Z" />
</g>
<g id="#cbcbcfff">
<path fill="#cbcbcf" opacity="1.00" d=" M 40.83 81.99 L 41.48 81.50 C 42.10 81.77 43.35 82.30 43.97 82.57 C 42.59 83.43 41.54 83.24 40.83 81.99 Z" />
</g>
</svg>
