<?xml version="1.0" encoding="UTF-8" ?>
<!DOCTYPE svg PUBLIC "-//W3C//DTD SVG 1.1//EN" "http://www.w3.org/Graphics/SVG/1.1/DTD/svg11.dtd">
<svg width="120pt" height="120pt" viewBox="0 0 120 120" version="1.1" xmlns="http://www.w3.org/2000/svg">
<g id="#895f27ff">
<path fill="#895f27" opacity="1.00" d=" M 54.73 26.90 C 56.26 25.52 57.70 24.05 59.15 22.59 C 60.97 24.92 60.52 27.94 61.60 30.52 C 59.27 32.26 57.34 34.42 55.73 36.83 C 56.79 32.64 59.27 28.83 59.17 24.37 C 55.68 26.91 52.67 30.01 49.67 33.08 C 48.45 30.44 47.19 27.81 45.86 25.22 C 43.41 29.08 42.19 33.53 41.87 38.06 L 41.42 38.26 C 40.83 34.96 39.37 31.75 36.04 30.46 C 36.08 32.28 36.15 34.11 36.25 35.93 L 36.15 37.68 C 34.52 35.06 35.10 31.70 35.98 28.90 C 38.06 29.79 39.68 32.46 42.04 32.15 C 42.13 31.50 42.33 30.19 42.43 29.54 C 43.15 28.16 43.83 26.76 44.42 25.32 C 44.86 24.91 45.72 24.07 46.15 23.66 C 47.86 25.73 49.01 28.17 50.17 30.57 C 51.51 29.14 52.87 27.66 54.73 26.90 Z" />
<path fill="#895f27" opacity="1.00" d=" M 64.03 28.33 C 65.92 28.35 67.83 28.20 69.38 26.97 C 68.84 28.09 68.30 29.21 67.77 30.33 C 69.78 30.28 71.80 30.24 73.82 30.20 C 73.90 30.90 74.06 32.29 74.13 32.98 L 73.50 32.49 C 71.61 30.17 68.67 31.67 66.29 32.08 L 66.68 30.62 C 66.79 30.18 67.02 29.31 67.13 28.87 C 66.44 28.98 65.05 29.20 64.35 29.31 L 64.03 28.33 Z" />
<path fill="#895f27" opacity="1.00" d=" M 42.80 37.63 C 43.78 34.65 45.06 31.66 47.71 29.77 C 48.77 32.68 49.66 35.69 50.02 38.78 C 49.13 40.49 48.25 42.19 47.25 43.83 C 48.26 39.75 48.49 35.34 46.48 31.51 C 45.04 35.04 44.01 38.72 43.47 42.49 C 43.23 40.87 42.99 39.26 42.80 37.63 Z" />
<path fill="#895f27" opacity="1.00" d=" M 57.88 39.17 C 61.13 37.63 64.05 35.49 66.13 32.53 C 65.60 34.89 64.47 37.04 63.01 38.96 C 66.48 38.84 69.95 38.53 73.42 38.62 C 71.65 38.42 69.87 38.18 68.10 37.94 C 69.36 36.52 70.64 35.12 72.05 33.85 C 71.67 35.13 71.09 36.33 70.32 37.43 C 71.07 37.40 72.58 37.34 73.34 37.31 C 75.50 38.94 78.35 38.10 80.84 38.21 C 80.88 38.86 80.96 40.14 81.00 40.79 L 80.73 40.74 C 75.10 39.32 69.24 40.04 63.75 41.70 C 64.90 43.26 65.68 45.72 67.98 45.79 C 72.20 46.15 75.56 42.93 79.32 41.50 C 77.86 43.55 76.08 45.34 74.31 47.12 C 77.49 46.99 80.45 48.47 83.62 48.24 C 84.14 49.54 84.76 50.79 85.25 52.10 L 84.59 51.89 C 82.76 51.27 80.94 50.65 79.11 50.04 C 76.44 51.69 72.43 52.47 71.77 56.05 C 75.25 55.34 78.50 53.89 81.87 52.82 L 81.99 53.40 C 80.46 53.99 79.22 55.08 78.03 56.19 C 79.48 56.23 80.94 56.29 82.39 56.35 C 83.57 57.18 85.00 57.26 86.36 57.50 C 87.75 58.28 89.34 58.19 90.87 58.25 C 91.34 59.21 91.80 60.18 92.24 61.16 C 91.77 60.93 90.82 60.48 90.35 60.26 C 85.46 58.14 79.97 56.43 74.63 57.73 C 75.72 59.74 76.64 61.93 78.29 63.57 C 81.59 63.96 84.72 62.24 87.96 61.82 L 87.97 62.47 C 87.34 62.79 86.07 63.42 85.44 63.73 C 84.80 63.76 83.52 63.81 82.88 63.83 C 82.82 64.44 82.70 65.66 82.65 66.27 C 83.35 66.27 84.75 66.27 85.45 66.27 C 86.82 67.06 88.22 67.82 89.63 68.54 C 90.68 69.33 91.76 70.10 92.96 70.67 C 92.97 70.89 93.00 71.34 93.02 71.57 C 92.35 71.85 91.01 72.42 90.34 72.70 C 88.64 72.81 86.83 72.66 85.36 73.71 C 83.98 73.75 82.59 73.79 81.20 73.82 C 82.48 75.41 83.96 76.84 85.89 77.60 C 85.91 78.08 85.93 79.06 85.94 79.54 C 85.31 79.81 84.05 80.36 83.42 80.63 C 82.04 80.80 80.62 80.92 79.40 81.65 C 78.10 81.77 76.80 81.88 75.51 81.99 C 76.47 83.06 77.43 84.13 78.38 85.20 C 76.57 86.54 74.71 87.81 72.92 89.17 C 74.20 91.05 73.89 93.35 73.84 95.49 L 72.60 94.64 C 72.52 93.23 71.45 91.82 69.90 92.09 C 69.45 93.36 69.70 94.45 70.66 95.35 L 71.28 96.03 C 69.38 95.48 67.46 94.99 65.49 94.74 C 65.06 94.31 64.20 93.44 63.77 93.00 C 64.72 92.02 65.68 91.04 66.63 90.06 C 61.99 88.44 57.25 87.14 52.44 86.20 C 51.85 86.31 50.67 86.54 50.08 86.65 C 48.43 85.10 46.83 83.49 45.28 81.85 C 44.84 81.34 43.95 80.33 43.51 79.82 L 45.02 80.02 C 47.52 82.54 50.15 85.38 54.03 85.19 L 54.86 85.32 C 56.80 85.60 58.72 86.01 60.47 86.92 C 60.05 85.41 59.75 83.86 59.50 82.32 C 58.55 83.19 57.61 84.06 56.68 84.94 L 56.07 83.62 C 60.83 80.46 63.92 75.37 67.41 70.93 C 66.04 70.51 64.66 70.10 63.28 69.72 C 60.54 74.35 58.18 79.24 55.04 83.62 C 55.37 84.00 56.02 84.76 56.35 85.14 C 55.77 85.15 54.61 85.18 54.03 85.19 C 53.26 84.54 52.50 83.88 51.75 83.21 C 52.17 82.34 52.57 81.47 52.96 80.60 C 54.48 77.17 55.67 73.60 56.92 70.07 C 55.10 67.28 57.00 64.54 58.91 62.44 C 59.13 60.08 59.33 57.72 59.36 55.35 C 58.44 54.09 57.45 52.88 56.48 51.67 C 53.80 52.97 51.11 54.25 48.42 55.53 C 47.94 55.74 46.99 56.15 46.51 56.36 C 46.20 56.27 45.58 56.07 45.27 55.98 C 45.00 58.80 44.49 61.59 43.99 64.38 C 43.60 65.87 43.21 67.36 42.82 68.85 C 42.63 68.39 42.25 67.46 42.05 66.99 C 41.67 69.97 38.91 71.69 37.05 73.77 C 38.13 78.30 39.23 82.87 41.40 87.03 C 40.62 87.02 39.06 87.01 38.28 87.01 C 37.37 85.72 36.40 84.47 35.27 83.37 C 35.50 86.43 38.51 88.11 41.17 88.78 C 44.32 89.49 47.33 87.97 50.08 86.65 C 49.97 88.37 50.85 89.93 50.93 91.63 C 49.11 94.10 45.55 91.87 43.36 93.82 C 42.18 93.81 41.01 93.79 39.83 93.75 C 39.99 93.06 40.30 91.66 40.46 90.97 C 38.42 91.44 36.37 91.90 34.32 92.31 C 34.06 92.64 33.53 93.30 33.27 93.63 C 32.89 93.79 32.13 94.11 31.75 94.27 C 33.25 91.83 35.76 90.39 38.54 89.94 C 36.92 88.20 35.22 86.52 33.74 84.65 C 33.89 83.88 34.18 82.33 34.32 81.55 C 31.11 79.08 31.85 74.40 29.27 71.43 C 29.25 69.79 29.27 68.15 29.31 66.51 C 30.09 65.15 30.85 63.78 31.57 62.38 C 32.69 60.95 33.43 59.15 34.84 57.98 C 35.70 57.13 38.02 56.89 37.28 55.19 C 33.41 54.93 29.90 53.14 26.95 50.69 C 27.74 49.94 28.52 49.18 29.32 48.44 C 30.46 48.23 31.54 47.86 32.57 47.34 C 34.29 47.29 36.00 47.30 37.72 47.34 C 36.44 45.32 35.27 43.25 34.04 41.21 C 35.06 40.73 36.13 40.34 37.22 40.05 C 37.30 39.50 37.45 38.39 37.53 37.83 C 38.16 38.18 39.42 38.86 40.05 39.20 C 40.06 40.31 40.08 41.42 40.10 42.53 C 40.53 42.90 41.38 43.66 41.81 44.04 C 40.36 45.97 42.76 46.95 43.70 48.26 L 43.92 49.26 C 41.56 47.73 41.83 51.60 44.09 50.86 C 44.41 52.30 44.81 53.72 45.20 55.14 C 46.17 55.06 47.14 54.96 48.11 54.85 L 48.60 54.56 C 51.12 52.89 54.07 52.05 56.61 50.43 C 57.88 49.02 58.22 47.06 58.88 45.33 C 59.06 43.22 58.52 41.16 57.88 39.17 M 35.86 41.24 C 36.79 43.06 37.89 44.79 39.29 46.27 C 39.08 44.55 38.85 42.83 38.61 41.11 C 37.93 41.14 36.55 41.21 35.86 41.24 M 65.19 47.47 C 63.46 49.23 65.13 53.52 67.81 52.63 C 71.54 51.94 75.47 51.01 78.42 48.46 C 74.08 47.67 69.59 46.24 65.19 47.47 M 29.24 50.63 C 31.27 52.40 33.99 52.66 36.56 52.79 C 37.06 51.21 37.56 49.64 38.05 48.07 C 35.24 48.41 30.66 47.71 29.24 50.63 M 82.31 49.28 C 82.79 49.78 82.79 49.78 82.31 49.28 M 38.56 56.27 C 37.52 57.06 36.47 57.83 35.39 58.56 C 34.13 60.23 32.90 61.93 31.70 63.64 C 30.53 65.89 30.14 68.38 30.01 70.89 C 31.88 68.40 34.64 69.33 37.12 70.18 C 38.29 64.57 41.59 59.81 44.32 54.89 C 42.44 55.49 40.54 56.05 38.56 56.27 M 62.08 55.00 C 60.13 56.93 59.77 59.55 59.93 62.18 C 58.80 63.86 57.87 65.67 57.11 67.55 C 58.48 66.97 59.83 66.36 61.16 65.72 C 62.06 66.66 62.87 67.67 63.53 68.78 C 65.60 68.79 67.47 69.49 69.02 70.87 C 68.94 68.06 69.30 65.15 68.33 62.44 C 68.02 59.59 66.75 57.00 64.70 55.00 C 64.04 55.00 62.73 55.00 62.08 55.00 M 77.06 66.15 C 77.69 67.93 78.29 69.71 78.77 71.53 C 82.75 72.17 86.83 72.27 90.79 71.39 C 87.12 67.92 82.10 66.09 77.06 66.15 M 60.63 66.88 C 59.99 67.25 58.71 67.99 58.08 68.36 C 58.01 68.90 57.88 69.97 57.82 70.51 C 57.23 71.81 56.68 73.13 56.10 74.43 C 56.06 75.07 55.98 76.34 55.94 76.97 L 55.22 76.88 C 54.43 79.15 53.65 81.42 52.90 83.72 C 56.49 80.21 58.88 75.72 61.48 71.48 C 62.32 69.81 62.24 68.04 60.63 66.88 M 70.41 68.67 C 69.89 70.00 69.36 71.33 68.82 72.65 C 64.09 74.76 61.67 79.56 61.28 84.53 C 64.01 87.80 67.99 89.20 72.19 88.58 C 73.68 85.88 75.57 83.19 75.90 80.05 C 75.64 77.80 74.86 75.65 74.17 73.50 C 74.11 72.94 73.97 71.81 73.91 71.25 C 72.78 70.34 71.62 69.47 70.41 68.67 M 31.75 69.81 C 32.84 73.11 33.62 76.51 35.18 79.63 C 35.99 81.12 36.92 82.54 38.32 83.54 C 38.07 82.75 37.57 81.18 37.31 80.39 C 37.11 78.67 37.22 76.84 36.22 75.33 C 36.15 73.97 36.12 72.60 36.08 71.24 C 35.00 70.88 32.84 70.17 31.75 69.81 M 76.27 74.38 C 76.75 76.12 77.26 77.86 77.76 79.61 C 80.14 79.54 82.52 79.35 84.85 78.83 C 82.34 76.74 79.53 74.97 76.27 74.38 M 75.80 85.44 C 75.98 85.60 75.98 85.60 75.80 85.44 M 45.52 89.89 C 43.99 89.97 42.46 90.00 40.93 90.01 C 40.93 90.80 40.95 92.38 40.96 93.16 C 43.81 92.39 46.75 92.06 49.65 91.53 C 50.76 89.27 46.82 88.19 45.52 89.89 M 65.62 92.10 L 66.76 91.87 C 65.39 94.73 70.55 93.92 68.36 91.62 C 69.74 91.45 71.12 91.23 72.50 90.96 C 70.16 90.12 67.29 89.87 65.62 92.10 M 72.50 90.96 C 72.64 91.70 72.64 91.70 72.50 90.96 Z" />
<path fill="#895f27" opacity="1.00" d=" M 49.75 49.37 C 49.83 45.03 53.50 42.33 57.43 41.59 C 57.40 42.10 57.35 43.12 57.32 43.63 C 57.24 44.18 57.07 45.27 56.99 45.82 C 55.42 48.32 52.50 49.04 49.75 49.37 M 51.26 46.87 C 52.69 47.10 53.24 46.54 52.90 45.19 C 51.48 44.97 50.93 45.53 51.26 46.87 Z" />
</g>
<g id="#b68532ff">
<path fill="#b68532" opacity="1.00" d=" M 49.67 33.08 C 52.67 30.01 55.68 26.91 59.17 24.37 C 59.27 28.83 56.79 32.64 55.73 36.83 C 53.91 37.72 51.93 38.16 50.02 38.78 C 49.66 35.69 48.77 32.68 47.71 29.77 C 45.06 31.66 43.78 34.65 42.80 37.63 L 41.87 38.06 C 42.19 33.53 43.41 29.08 45.86 25.22 C 47.19 27.81 48.45 30.44 49.67 33.08 Z" />
<path fill="#b68532" opacity="1.00" d=" M 66.13 32.53 C 66.27 32.05 66.54 31.10 66.68 30.62 L 66.29 32.08 C 68.67 31.67 71.61 30.17 73.50 32.49 C 73.14 32.83 72.42 33.51 72.05 33.85 C 70.64 35.12 69.36 36.52 68.10 37.94 C 69.87 38.18 71.65 38.42 73.42 38.62 C 69.95 38.53 66.48 38.84 63.01 38.96 C 64.47 37.04 65.60 34.89 66.13 32.53 Z" />
<path fill="#b68532" opacity="1.00" d=" M 63.75 41.70 C 69.24 40.04 75.10 39.32 80.73 40.74 C 80.38 40.93 79.67 41.31 79.32 41.50 C 75.56 42.93 72.20 46.15 67.98 45.79 C 65.68 45.72 64.90 43.26 63.75 41.70 Z" />
<path fill="#b68532" opacity="1.00" d=" M 35.86 41.24 C 36.55 41.21 37.93 41.14 38.61 41.11 C 38.85 42.83 39.08 44.55 39.29 46.27 C 37.89 44.79 36.79 43.06 35.86 41.24 Z" />
<path fill="#b68532" opacity="1.00" d=" M 65.19 47.47 C 69.59 46.24 74.08 47.67 78.42 48.46 C 75.47 51.01 71.54 51.94 67.81 52.63 C 65.13 53.52 63.46 49.23 65.19 47.47 Z" />
<path fill="#b68532" opacity="1.00" d=" M 29.24 50.63 C 30.66 47.71 35.24 48.41 38.05 48.07 C 37.56 49.64 37.06 51.21 36.56 52.79 C 33.99 52.66 31.27 52.40 29.24 50.63 Z" />
<path fill="#b68532" opacity="1.00" d=" M 82.31 49.28 C 82.79 49.78 82.79 49.78 82.31 49.28 Z" />
<path fill="#b68532" opacity="1.00" d=" M 71.77 56.05 C 72.43 52.47 76.44 51.69 79.11 50.04 C 80.94 50.65 82.76 51.27 84.59 51.89 C 83.91 52.12 82.55 52.59 81.87 52.82 C 78.50 53.89 75.25 55.34 71.77 56.05 Z" />
<path fill="#b68532" opacity="1.00" d=" M 74.63 57.73 C 79.97 56.43 85.46 58.14 90.35 60.26 L 90.04 61.56 C 89.52 61.63 88.48 61.76 87.96 61.82 C 84.72 62.24 81.59 63.96 78.29 63.57 C 76.64 61.93 75.72 59.74 74.63 57.73 Z" />
<path fill="#b68532" opacity="1.00" d=" M 77.06 66.15 C 82.10 66.09 87.12 67.92 90.79 71.39 C 86.83 72.27 82.75 72.17 78.77 71.53 C 78.29 69.71 77.69 67.93 77.06 66.15 Z" />
<path fill="#b68532" opacity="1.00" d=" M 76.27 74.38 C 79.53 74.97 82.34 76.74 84.85 78.83 C 82.52 79.35 80.14 79.54 77.76 79.61 C 77.26 77.86 76.75 76.12 76.27 74.38 Z" />
<path fill="#b68532" opacity="1.00" d=" M 43.53 78.46 L 43.58 78.47 L 43.62 78.57 C 43.60 78.54 43.55 78.49 43.53 78.46 Z" />
</g>
<g id="#f9db75ff">
<path fill="#f9db75" opacity="1.00" d=" M 64.35 29.31 C 65.05 29.20 66.44 28.98 67.13 28.87 C 67.02 29.31 66.79 30.18 66.68 30.62 C 66.54 31.10 66.27 32.05 66.13 32.53 C 64.05 35.49 61.13 37.63 57.88 39.17 C 58.52 41.16 59.06 43.22 58.88 45.33 C 58.49 44.91 57.71 44.06 57.32 43.63 C 57.35 43.12 57.40 42.10 57.43 41.59 C 53.50 42.33 49.83 45.03 49.75 49.37 C 49.39 51.10 49.04 52.84 48.60 54.56 L 48.11 54.85 C 47.14 54.96 46.17 55.06 45.20 55.14 C 44.81 53.72 44.41 52.30 44.09 50.86 C 44.05 50.46 43.96 49.66 43.92 49.26 L 43.70 48.26 C 42.76 46.95 40.36 45.97 41.81 44.04 C 41.38 43.66 40.53 42.90 40.10 42.53 C 40.08 41.42 40.06 40.31 40.05 39.20 C 39.42 38.86 38.16 38.18 37.53 37.83 C 37.24 37.69 36.68 37.41 36.39 37.26 C 36.36 36.93 36.29 36.26 36.25 35.93 C 36.15 34.11 36.08 32.28 36.04 30.46 C 39.37 31.75 40.83 34.96 41.42 38.26 L 41.87 38.06 L 42.80 37.63 C 42.99 39.26 43.23 40.87 43.47 42.49 C 44.01 38.72 45.04 35.04 46.48 31.51 C 48.49 35.34 48.26 39.75 47.25 43.83 C 48.25 42.19 49.13 40.49 50.02 38.78 C 51.93 38.16 53.91 37.72 55.73 36.83 C 57.34 34.42 59.27 32.26 61.60 30.52 L 62.56 29.64 C 63.01 29.56 63.90 29.39 64.35 29.31 Z" />
<path fill="#f9db75" opacity="1.00" d=" M 38.56 56.27 C 40.54 56.05 42.44 55.49 44.32 54.89 C 41.59 59.81 38.29 64.57 37.12 70.18 C 34.64 69.33 31.88 68.40 30.01 70.89 C 30.14 68.38 30.53 65.89 31.70 63.64 C 32.90 61.93 34.13 60.23 35.39 58.56 C 36.47 57.83 37.52 57.06 38.56 56.27 Z" />
<path fill="#f9db75" opacity="1.00" d=" M 62.08 55.00 C 62.73 55.00 64.04 55.00 64.70 55.00 C 66.75 57.00 68.02 59.59 68.33 62.44 C 69.30 65.15 68.94 68.06 69.02 70.87 C 67.47 69.49 65.60 68.79 63.53 68.78 C 62.87 67.67 62.06 66.66 61.16 65.72 C 59.83 66.36 58.48 66.97 57.11 67.55 C 57.87 65.67 58.80 63.86 59.93 62.18 C 59.77 59.55 60.13 56.93 62.08 55.00 Z" />
<path fill="#f9db75" opacity="1.00" d=" M 37.05 73.77 C 38.91 71.69 41.67 69.97 42.05 66.99 C 42.25 67.46 42.63 68.39 42.82 68.85 C 42.82 72.06 42.43 75.38 43.58 78.47 L 43.53 78.46 C 43.55 78.49 43.60 78.54 43.62 78.57 C 43.97 78.93 44.67 79.66 45.02 80.02 L 43.51 79.82 C 43.95 80.33 44.84 81.34 45.28 81.85 C 45.01 83.52 44.75 85.19 44.49 86.86 C 43.46 86.93 42.43 86.99 41.40 87.03 C 39.23 82.87 38.13 78.30 37.05 73.77 Z" />
<path fill="#f9db75" opacity="1.00" d=" M 70.41 68.67 C 71.62 69.47 72.78 70.34 73.91 71.25 C 73.97 71.81 74.11 72.94 74.17 73.50 C 74.86 75.65 75.64 77.80 75.90 80.05 C 75.57 83.19 73.68 85.88 72.19 88.58 C 67.99 89.20 64.01 87.80 61.28 84.53 C 61.67 79.56 64.09 74.76 68.82 72.65 C 69.36 71.33 69.89 70.00 70.41 68.67 Z" />
<path fill="#f9db75" opacity="1.00" d=" M 75.80 85.44 C 75.98 85.60 75.98 85.60 75.80 85.44 Z" />
<path fill="#f9db75" opacity="1.00" d=" M 65.62 92.10 C 67.29 89.87 70.16 90.12 72.50 90.96 C 71.12 91.23 69.74 91.45 68.36 91.62 C 67.96 91.68 67.16 91.81 66.76 91.87 L 65.62 92.10 Z" />
<path fill="#f9db75" opacity="1.00" d=" M 72.50 90.96 C 72.64 91.70 72.64 91.70 72.50 90.96 Z" />
</g>
<g id="#f9f4deff">
<path fill="#f9f4de" opacity="1.00" d=" M 57.32 43.63 C 57.71 44.06 58.49 44.91 58.88 45.33 C 58.22 47.06 57.88 49.02 56.61 50.43 C 54.07 52.05 51.12 52.89 48.60 54.56 C 49.04 52.84 49.39 51.10 49.75 49.37 C 52.50 49.04 55.42 48.32 56.99 45.82 C 57.07 45.27 57.24 44.18 57.32 43.63 Z" />
<path fill="#f9f4de" opacity="1.00" d=" M 51.26 46.87 C 50.93 45.53 51.48 44.97 52.90 45.19 C 53.24 46.54 52.69 47.10 51.26 46.87 Z" />
<path fill="#f9f4de" opacity="1.00" d=" M 44.09 50.86 C 41.83 51.60 41.56 47.73 43.92 49.26 C 43.96 49.66 44.05 50.46 44.09 50.86 Z" />
<path fill="#f9f4de" opacity="1.00" d=" M 51.00 57.70 C 54.05 57.86 56.26 54.48 59.36 55.35 C 59.33 57.72 59.13 60.08 58.91 62.44 C 57.00 64.54 55.10 67.28 56.92 70.07 C 55.67 73.60 54.48 77.17 52.96 80.60 C 50.73 79.40 48.19 78.38 46.76 76.16 C 44.40 72.73 44.40 68.37 43.99 64.38 C 44.49 61.59 45.00 58.80 45.27 55.98 C 45.58 56.07 46.20 56.27 46.51 56.36 C 47.99 56.86 49.44 57.49 51.00 57.70 Z" />
<path fill="#f9f4de" opacity="1.00" d=" M 60.63 66.88 C 62.24 68.04 62.32 69.81 61.48 71.48 C 58.88 75.72 56.49 80.21 52.90 83.72 C 53.65 81.42 54.43 79.15 55.22 76.88 L 55.94 76.97 C 55.98 76.34 56.06 75.07 56.10 74.43 C 56.68 73.13 57.23 71.81 57.82 70.51 C 57.88 69.97 58.01 68.90 58.08 68.36 C 58.71 67.99 59.99 67.25 60.63 66.88 Z" />
<path fill="#f9f4de" opacity="1.00" d=" M 63.28 69.72 C 64.66 70.10 66.04 70.51 67.41 70.93 C 63.92 75.37 60.83 80.46 56.07 83.62 L 56.68 84.94 C 57.61 84.06 58.55 83.19 59.50 82.32 C 59.75 83.86 60.05 85.41 60.47 86.92 C 58.72 86.01 56.80 85.60 54.86 85.32 L 54.03 85.19 C 54.61 85.18 55.77 85.15 56.35 85.14 C 56.02 84.76 55.37 84.00 55.04 83.62 C 58.18 79.24 60.54 74.35 63.28 69.72 Z" />
<path fill="#f9f4de" opacity="1.00" d=" M 31.75 69.81 C 32.84 70.17 35.00 70.88 36.08 71.24 C 36.12 72.60 36.15 73.97 36.22 75.33 C 37.22 76.84 37.11 78.67 37.31 80.39 C 37.57 81.18 38.07 82.75 38.32 83.54 C 36.92 82.54 35.99 81.12 35.18 79.63 C 33.62 76.51 32.84 73.11 31.75 69.81 Z" />
<path fill="#f9f4de" opacity="1.00" d=" M 66.76 91.87 C 67.16 91.81 67.96 91.68 68.36 91.62 C 70.55 93.92 65.39 94.73 66.76 91.87 Z" />
<path fill="#f9f4de" opacity="1.00" d=" M 69.90 92.09 C 71.45 91.82 72.52 93.23 72.60 94.64 C 72.12 94.82 71.15 95.17 70.66 95.35 C 69.70 94.45 69.45 93.36 69.90 92.09 Z" />
</g>
<g id="#c7bba7ff">
<path fill="#c7bba7" opacity="1.00" d=" M 56.48 51.67 C 57.45 52.88 58.44 54.09 59.36 55.35 C 56.26 54.48 54.05 57.86 51.00 57.70 C 49.44 57.49 47.99 56.86 46.51 56.36 C 46.99 56.15 47.94 55.74 48.42 55.53 C 51.11 54.25 53.80 52.97 56.48 51.67 Z" />
<path fill="#c7bba7" opacity="1.00" d=" M 42.82 68.85 C 43.21 67.36 43.60 65.87 43.99 64.38 C 44.40 68.37 44.40 72.73 46.76 76.16 C 48.19 78.38 50.73 79.40 52.96 80.60 C 52.57 81.47 52.17 82.34 51.75 83.21 C 52.50 83.88 53.26 84.54 54.03 85.19 C 50.15 85.38 47.52 82.54 45.02 80.02 C 44.67 79.66 43.97 78.93 43.62 78.57 L 43.58 78.47 C 42.43 75.38 42.82 72.06 42.82 68.85 Z" />
<path fill="#c7bba7" opacity="1.00" d=" M 34.32 92.31 C 36.37 91.90 38.42 91.44 40.46 90.97 C 40.30 91.66 39.99 93.06 39.83 93.75 C 37.64 93.71 35.46 93.71 33.27 93.63 C 33.53 93.30 34.06 92.64 34.32 92.31 Z" />
</g>
<g id="#c0a45cff">
<path fill="#c0a45c" opacity="1.00" d=" M 45.28 81.85 C 46.83 83.49 48.43 85.10 50.08 86.65 C 47.33 87.97 44.32 89.49 41.17 88.78 C 38.51 88.11 35.50 86.43 35.27 83.37 C 36.40 84.47 37.37 85.72 38.28 87.01 C 39.06 87.01 40.62 87.02 41.40 87.03 C 42.43 86.99 43.46 86.93 44.49 86.86 C 44.75 85.19 45.01 83.52 45.28 81.85 Z" />
<path fill="#c0a45c" opacity="1.00" d=" M 45.52 89.89 C 46.82 88.19 50.76 89.27 49.65 91.53 C 46.75 92.06 43.81 92.39 40.96 93.16 C 40.95 92.38 40.93 90.80 40.93 90.01 C 42.46 90.00 43.99 89.97 45.52 89.89 Z" />
</g>
</svg>
