<?xml version="1.0" encoding="UTF-8" ?>
<!DOCTYPE svg PUBLIC "-//W3C//DTD SVG 1.1//EN" "http://www.w3.org/Graphics/SVG/1.1/DTD/svg11.dtd">
<svg width="120pt" height="120pt" viewBox="0 0 120 120" version="1.1" xmlns="http://www.w3.org/2000/svg">
<g id="#aad48cff">
<path fill="#aad48c" opacity="1.00" d=" M 110.25 12.64 C 111.38 12.37 112.38 11.84 113.26 11.06 C 112.64 12.25 112.04 13.44 111.46 14.65 L 111.23 14.62 C 110.83 14.56 110.03 14.44 109.63 14.38 C 104.61 18.57 98.95 21.89 93.74 25.82 C 89.70 25.53 86.63 28.80 85.75 32.50 C 82.69 36.14 78.02 37.93 75.10 41.71 L 73.91 40.39 L 73.56 40.01 C 74.02 39.69 74.94 39.07 75.40 38.75 L 75.60 38.62 L 75.76 38.43 C 78.44 35.39 81.43 32.63 84.29 29.76 C 86.04 29.37 87.09 27.88 88.35 26.75 C 92.21 25.06 95.11 21.40 99.20 20.37 C 99.44 18.57 101.06 18.36 102.58 18.46 L 102.31 17.14 C 102.77 17.29 103.69 17.60 104.16 17.75 C 104.27 16.03 105.60 15.27 107.19 15.40 C 107.55 13.72 108.96 13.15 110.57 13.50 L 110.25 12.64 Z" />
<path fill="#aad48c" opacity="1.00" d=" M 21.09 57.48 C 24.99 56.52 29.08 54.19 33.12 55.74 C 36.71 56.88 39.99 58.81 43.07 60.96 C 45.72 61.01 48.36 61.01 51.01 60.98 C 51.78 62.29 52.55 63.60 53.33 64.90 C 52.97 65.49 52.26 66.66 51.90 67.24 L 51.66 67.64 C 50.42 67.69 49.18 67.73 47.94 67.77 L 48.71 67.67 L 49.51 67.57 C 49.59 66.28 49.63 64.99 49.67 63.70 C 47.66 63.65 45.65 63.59 43.66 63.38 C 43.38 63.23 42.82 62.94 42.54 62.79 L 42.37 62.69 L 42.15 62.59 C 39.31 61.22 36.61 59.60 33.97 57.89 C 32.24 56.19 29.75 56.73 28.02 58.11 C 26.93 58.30 25.85 58.49 24.76 58.68 C 24.66 58.70 24.46 58.75 24.36 58.78 C 23.78 58.97 22.62 59.36 22.04 59.55 L 21.58 59.69 L 21.31 59.86 C 20.26 60.37 19.20 60.85 18.13 61.30 L 15.61 61.33 C 17.14 60.18 18.68 59.05 20.23 57.93 C 20.45 57.82 20.88 57.59 21.09 57.48 Z" />
</g>
<g id="#bccdb7ff">
<path fill="#bccdb7" opacity="1.00" d=" M 109.63 14.38 C 110.03 14.44 110.83 14.56 111.23 14.62 C 109.85 16.49 108.89 18.83 106.78 20.04 C 106.57 20.52 106.14 21.47 105.93 21.94 C 105.41 22.83 104.69 23.53 103.78 24.04 C 103.57 24.52 103.15 25.46 102.94 25.94 C 102.49 26.87 101.77 27.49 100.79 27.79 C 99.70 28.03 99.04 28.70 98.79 29.78 C 98.53 30.86 97.86 31.53 96.79 31.80 C 95.70 32.04 95.04 32.70 94.79 33.78 C 94.45 34.71 93.87 35.47 93.04 36.05 C 91.98 36.29 90.92 36.52 89.85 36.74 C 88.50 35.31 87.13 33.90 85.75 32.50 C 86.63 28.80 89.70 25.53 93.74 25.82 C 98.95 21.89 104.61 18.57 109.63 14.38 M 88.82 28.25 C 89.39 28.80 89.39 28.80 88.82 28.25 Z" />
<path fill="#bccdb7" opacity="1.00" d=" M 67.82 41.93 C 69.23 42.15 70.89 41.90 71.92 43.12 C 71.14 44.83 70.46 46.66 69.32 48.15 C 68.97 46.04 68.60 43.93 67.82 41.93 Z" />
<path fill="#bccdb7" opacity="1.00" d=" M 12.52 64.52 L 13.06 64.42 C 15.00 64.59 16.94 64.82 18.88 64.99 C 18.53 66.11 17.79 66.35 16.64 65.72 C 15.45 66.59 14.10 67.16 12.68 67.54 C 12.62 67.59 12.50 67.68 12.44 67.72 C 12.06 68.14 11.30 68.98 10.92 69.40 L 8.94 69.27 C 10.18 67.72 11.38 66.15 12.52 64.52 Z" />
</g>
<g id="#162828ff">
<path fill="#162828" opacity="1.00" d=" M 40.95 19.51 C 41.50 18.96 42.05 18.41 42.61 17.86 C 44.88 20.18 46.48 23.04 48.76 25.35 C 48.53 26.04 48.06 27.40 47.82 28.08 C 45.53 25.22 43.69 21.98 40.95 19.51 Z" />
</g>
<g id="#3c3f35ff">
<path fill="#3c3f35" opacity="1.00" d=" M 105.93 21.94 C 106.14 21.47 106.57 20.52 106.78 20.04 C 106.79 20.49 106.80 21.37 106.81 21.81 L 105.93 21.94 Z" />
<path fill="#3c3f35" opacity="1.00" d=" M 102.94 25.94 C 103.15 25.46 103.57 24.52 103.78 24.04 C 103.79 24.48 103.81 25.36 103.83 25.80 L 102.94 25.94 Z" />
</g>
<g id="#22322bf0">
<path fill="#22322b" opacity="0.94" d=" M 47.82 28.08 C 48.06 27.40 48.53 26.04 48.76 25.35 C 51.86 28.05 54.38 31.42 56.42 34.97 C 56.72 34.97 57.31 34.97 57.61 34.97 C 58.16 33.17 59.47 31.85 60.87 30.67 C 61.21 32.25 60.52 34.30 61.96 35.48 C 62.15 35.59 62.53 35.81 62.72 35.91 L 62.54 35.38 L 61.96 35.48 C 62.39 34.36 63.04 33.39 63.93 32.56 C 63.95 33.67 63.99 35.88 64.01 36.99 C 66.83 35.73 70.00 35.69 72.95 34.82 C 72.99 35.25 73.08 36.12 73.13 36.55 L 72.66 36.52 C 69.66 36.18 66.75 37.30 63.89 38.04 C 62.66 37.29 61.42 36.53 60.20 35.77 C 60.15 34.92 60.04 33.24 59.99 32.40 C 59.00 34.21 58.08 36.09 57.69 38.14 C 57.33 38.09 56.61 37.98 56.25 37.92 C 55.11 36.79 54.02 35.62 52.92 34.45 C 51.03 32.49 49.34 30.34 47.82 28.08 Z" />
</g>
<g id="#33422bff">
<path fill="#33422b" opacity="1.00" d=" M 88.82 28.25 C 89.39 28.80 89.39 28.80 88.82 28.25 Z" />
</g>
<g id="#676e60ff">
<path fill="#676e60" opacity="1.00" d=" M 98.79 29.78 C 99.04 28.70 99.70 28.03 100.79 27.79 C 101.09 29.44 100.42 30.11 98.79 29.78 Z" />
</g>
<g id="#686f61ff">
<path fill="#686f61" opacity="1.00" d=" M 94.79 33.78 C 95.04 32.70 95.70 32.04 96.79 31.80 C 97.08 33.45 96.42 34.11 94.79 33.78 Z" />
</g>
<g id="#c5eea1ff">
<path fill="#c5eea1" opacity="1.00" d=" M 57.69 38.14 C 58.08 36.09 59.00 34.21 59.99 32.40 C 60.04 33.24 60.15 34.92 60.20 35.77 C 61.42 36.53 62.66 37.29 63.89 38.04 C 66.75 37.30 69.66 36.18 72.66 36.52 C 71.67 37.45 70.67 38.37 69.66 39.29 L 69.35 39.37 C 68.74 39.51 67.53 39.77 66.92 39.91 C 65.80 41.48 64.61 43.02 63.08 44.20 C 61.85 45.15 60.66 46.12 59.45 47.09 C 59.20 47.21 58.69 47.46 58.43 47.59 C 59.15 47.71 60.58 47.97 61.30 48.09 C 60.67 49.48 60.07 50.89 59.53 52.32 C 59.65 52.85 59.91 53.91 60.03 54.44 C 59.26 53.73 58.49 53.02 57.72 52.31 C 57.22 52.58 56.23 53.11 55.74 53.37 C 55.51 52.29 55.29 51.20 55.06 50.11 C 55.21 49.57 55.51 48.48 55.66 47.94 C 56.44 44.70 56.99 41.40 57.69 38.14 Z" />
</g>
<g id="#c4d6bcff">
<path fill="#c4d6bc" opacity="1.00" d=" M 75.10 41.71 C 78.02 37.93 82.69 36.14 85.75 32.50 C 87.13 33.90 88.50 35.31 89.85 36.74 C 90.92 36.52 91.98 36.29 93.04 36.05 C 92.28 36.84 91.41 37.50 90.36 37.86 C 89.95 38.19 89.14 38.87 88.73 39.20 C 86.17 42.08 82.03 40.67 78.77 41.92 C 76.18 42.56 74.65 44.90 72.99 46.78 L 72.67 47.14 C 72.50 47.01 72.16 46.73 72.00 46.60 C 73.04 44.97 74.08 43.34 75.10 41.71 Z" />
</g>
<g id="#0c1e22e5">
<path fill="#0c1e22" opacity="0.90" d=" M 52.92 34.45 C 54.02 35.62 55.11 36.79 56.25 37.92 C 54.40 37.68 52.56 37.31 50.74 36.91 C 53.12 39.68 54.50 43.11 54.41 46.80 L 53.23 46.92 C 52.78 46.97 51.87 47.09 51.42 47.14 C 50.89 47.66 49.82 48.71 49.28 49.23 L 48.64 48.87 C 49.76 47.40 51.15 46.12 52.98 45.62 C 52.98 44.57 52.98 43.52 52.98 42.47 C 52.17 40.53 48.12 37.98 51.18 36.35 C 51.64 36.16 52.54 35.80 52.99 35.61 C 52.97 35.32 52.94 34.74 52.92 34.45 Z" />
</g>
<g id="#afd98fff">
<path fill="#afd98f" opacity="1.00" d=" M 61.96 35.48 L 62.54 35.38 L 62.72 35.91 C 62.53 35.81 62.15 35.59 61.96 35.48 Z" />
</g>
<g id="#add78eff">
<path fill="#add78e" opacity="1.00" d=" M 50.74 36.91 C 52.56 37.31 54.40 37.68 56.25 37.92 C 56.61 37.98 57.33 38.09 57.69 38.14 C 56.99 41.40 56.44 44.70 55.66 47.94 C 55.37 47.96 54.79 48.00 54.50 48.02 L 54.41 46.80 C 54.50 43.11 53.12 39.68 50.74 36.91 Z" />
<path fill="#add78e" opacity="1.00" d=" M 64.74 52.94 C 66.19 53.73 67.64 54.51 69.10 55.29 C 69.63 56.38 70.24 57.44 70.85 58.49 C 71.53 60.24 72.20 62.00 72.88 63.75 C 70.46 64.61 67.89 64.65 65.53 63.56 C 65.34 62.81 64.96 61.32 64.77 60.58 C 64.45 61.19 63.82 62.42 63.50 63.03 C 62.56 62.52 61.62 62.01 60.68 61.50 C 60.41 60.88 59.86 59.64 59.58 59.02 C 60.92 59.14 62.25 59.25 63.59 59.37 C 63.96 57.22 64.41 55.09 64.74 52.94 Z" />
</g>
<g id="#051923ff">
<path fill="#051923" opacity="1.00" d=" M 75.40 38.75 C 75.49 38.67 75.67 38.51 75.76 38.43 L 75.60 38.62 L 75.40 38.75 Z" />
</g>
<g id="#abd68dff">
<path fill="#abd68d" opacity="1.00" d=" M 66.92 39.91 C 67.53 39.77 68.74 39.51 69.35 39.37 C 68.58 40.05 67.81 40.73 67.06 41.43 C 67.44 43.43 67.93 45.41 68.14 47.43 C 65.06 48.67 62.15 50.27 59.53 52.32 C 60.07 50.89 60.67 49.48 61.30 48.09 C 61.41 47.85 61.62 47.38 61.73 47.14 C 61.90 46.56 62.24 45.41 62.41 44.84 L 63.08 44.20 C 64.61 43.02 65.80 41.48 66.92 39.91 Z" />
</g>
<g id="#141a23ff">
<path fill="#141a23" opacity="1.00" d=" M 69.35 39.37 L 69.66 39.29 C 70.76 40.68 72.23 41.39 73.91 40.39 L 75.10 41.71 C 74.08 43.34 73.04 44.97 72.00 46.60 C 72.16 46.73 72.50 47.01 72.67 47.14 C 72.36 47.50 71.74 48.21 71.43 48.57 C 71.16 48.94 70.62 49.67 70.35 50.04 C 69.89 50.68 69.42 51.31 68.95 51.94 C 68.99 51.14 69.06 49.54 69.10 48.74 C 67.57 48.51 66.25 49.59 64.83 49.96 C 64.80 50.71 64.76 52.19 64.74 52.94 C 64.41 55.09 63.96 57.22 63.59 59.37 C 62.25 59.25 60.92 59.14 59.58 59.02 C 59.41 58.85 59.06 58.50 58.89 58.33 C 57.94 56.91 57.07 55.45 56.10 54.05 L 55.54 56.16 L 55.28 57.10 L 55.00 55.37 C 54.75 54.05 54.49 52.74 54.23 51.44 C 53.92 49.92 53.57 48.42 53.23 46.92 L 54.41 46.80 L 54.50 48.02 C 54.79 48.00 55.37 47.96 55.66 47.94 C 55.51 48.48 55.21 49.57 55.06 50.11 C 55.29 51.20 55.51 52.29 55.74 53.37 C 56.23 53.11 57.22 52.58 57.72 52.31 C 58.49 53.02 59.26 53.73 60.03 54.44 C 59.91 53.91 59.65 52.85 59.53 52.32 C 62.15 50.27 65.06 48.67 68.14 47.43 C 67.93 45.41 67.44 43.43 67.06 41.43 C 67.81 40.73 68.58 40.05 69.35 39.37 M 67.82 41.93 C 68.60 43.93 68.97 46.04 69.32 48.15 C 70.46 46.66 71.14 44.83 71.92 43.12 C 70.89 41.90 69.23 42.15 67.82 41.93 M 58.68 54.85 C 58.76 55.69 58.91 57.36 58.98 58.19 C 60.34 58.28 61.69 58.35 63.05 58.43 C 63.59 55.74 64.12 53.05 64.17 50.30 C 62.66 52.10 61.64 55.37 58.68 54.85 Z" />
<path fill="#141a23" opacity="1.00" d=" M 78.77 41.92 C 82.03 40.67 86.17 42.08 88.73 39.20 C 89.13 39.62 89.93 40.46 90.34 40.88 C 91.77 41.01 93.28 40.97 94.53 41.81 C 95.20 41.88 96.53 42.03 97.20 42.11 C 96.74 43.39 96.26 44.67 95.80 45.95 L 94.94 46.03 C 95.25 45.32 95.86 43.90 96.17 43.19 C 92.63 42.74 89.07 40.40 85.50 41.84 C 82.71 41.95 79.94 42.30 77.27 43.10 C 76.40 44.01 75.53 44.92 74.66 45.82 C 76.13 46.15 77.59 46.51 79.05 46.89 C 80.89 48.23 81.55 50.46 82.42 52.45 C 86.33 51.87 90.30 50.67 93.20 47.85 C 92.19 49.73 90.41 50.91 88.60 51.92 C 88.09 51.99 87.07 52.11 86.56 52.18 C 85.27 53.16 83.64 52.97 82.13 53.11 C 82.38 54.59 81.93 55.60 80.80 56.14 C 81.74 53.14 80.96 49.98 78.71 47.80 C 76.87 47.16 74.95 46.75 72.99 46.78 C 74.65 44.90 76.18 42.56 78.77 41.92 Z" />
<path fill="#141a23" opacity="1.00" d=" M 59.45 47.09 C 60.66 46.12 61.85 45.15 63.08 44.20 L 62.41 44.84 C 62.14 45.22 61.61 45.99 61.34 46.37 L 61.73 47.14 C 61.62 47.38 61.41 47.85 61.30 48.09 C 60.58 47.97 59.15 47.71 58.43 47.59 C 58.69 47.46 59.20 47.21 59.45 47.09 Z" />
<path fill="#141a23" opacity="1.00" d=" M 46.99 49.98 L 48.15 50.24 C 47.93 51.95 48.06 53.69 48.55 55.36 C 49.70 56.49 50.91 57.57 52.10 58.66 C 52.84 58.53 54.33 58.27 55.07 58.14 L 55.11 58.52 C 54.05 59.10 53.00 59.67 51.94 60.24 C 52.32 61.17 52.71 62.10 53.12 63.03 C 53.67 63.20 54.78 63.54 55.33 63.71 C 55.66 63.65 56.33 63.54 56.67 63.48 C 57.07 63.66 57.89 64.02 58.30 64.20 C 57.19 63.04 55.51 61.88 56.53 60.10 C 58.54 62.91 62.02 65.55 65.53 63.56 C 67.89 64.65 70.46 64.61 72.88 63.75 C 72.20 62.00 71.53 60.24 70.85 58.49 C 70.24 57.44 69.63 56.38 69.10 55.29 C 68.84 54.71 68.33 53.55 68.07 52.97 C 68.29 52.71 68.73 52.20 68.95 51.94 C 69.27 53.01 69.58 54.07 69.88 55.15 C 73.14 53.13 76.42 55.20 79.11 57.10 C 79.53 56.86 80.37 56.38 80.80 56.14 C 82.54 59.16 85.33 61.53 86.34 64.98 C 87.05 64.99 88.48 65.02 89.19 65.03 C 89.09 66.27 88.76 67.45 88.22 68.56 C 88.11 69.04 87.88 69.98 87.77 70.46 C 87.33 71.48 87.01 72.55 86.81 73.65 C 86.24 74.62 85.58 75.53 84.84 76.38 C 86.02 72.95 87.19 69.52 88.48 66.13 C 87.66 66.04 86.03 65.87 85.21 65.78 L 85.33 67.06 C 83.28 66.96 81.24 66.61 79.63 65.25 C 78.79 65.61 77.94 65.98 77.10 66.34 C 77.48 67.21 77.86 68.09 78.24 68.97 C 77.77 68.99 76.83 69.03 76.36 69.05 L 76.75 66.74 C 76.03 67.36 74.61 68.61 73.90 69.24 C 73.33 72.36 74.22 75.34 76.07 77.86 C 78.67 77.56 81.29 77.41 83.89 77.13 C 83.33 78.23 82.76 79.38 83.02 80.66 C 84.27 81.65 85.66 82.44 87.01 83.29 C 87.04 83.85 87.09 84.96 87.12 85.52 C 89.25 88.75 90.16 92.75 92.99 95.50 C 92.95 96.82 92.90 98.14 92.81 99.47 C 91.82 99.78 90.83 100.09 89.84 100.42 C 91.14 101.67 92.45 102.92 93.73 104.21 C 92.52 104.00 91.37 103.64 90.27 103.10 C 89.69 103.68 89.11 104.26 88.52 104.83 C 88.06 104.19 87.15 102.90 86.69 102.25 C 86.49 102.90 86.08 104.21 85.88 104.87 C 84.95 105.34 83.96 105.68 82.93 105.89 C 83.09 105.33 83.42 104.23 83.58 103.67 L 82.16 103.76 C 81.61 103.57 80.50 103.19 79.94 103.00 C 79.98 100.85 80.00 98.71 80.11 96.56 C 81.53 94.22 81.62 90.69 80.01 88.43 C 80.04 87.03 80.12 85.63 80.74 84.35 C 79.36 82.30 78.75 77.96 75.38 79.06 C 74.52 80.03 73.83 81.14 73.12 82.22 C 73.53 80.57 73.93 78.92 74.28 77.26 C 73.64 75.42 73.17 73.54 72.74 71.65 C 72.07 71.64 70.72 71.62 70.05 71.61 C 70.94 71.48 71.83 71.33 72.72 71.18 C 72.96 70.71 73.44 69.76 73.67 69.29 C 74.91 67.35 73.62 65.77 72.29 64.34 C 71.27 64.79 70.26 65.25 69.24 65.69 C 67.33 65.25 65.24 64.16 63.31 65.14 C 61.61 66.51 61.29 68.76 61.02 70.79 C 62.09 74.74 64.02 78.39 66.45 81.68 C 67.91 82.43 69.38 83.18 70.76 84.08 L 71.35 85.24 C 69.24 84.67 67.27 83.70 65.33 82.72 C 64.31 81.11 63.38 79.45 62.52 77.75 C 59.96 78.29 59.73 80.74 59.90 82.93 C 60.43 82.96 61.47 83.04 62.00 83.07 C 61.70 86.15 62.80 89.59 61.25 92.41 C 61.44 89.36 61.97 86.22 60.87 83.27 L 60.85 84.58 C 59.25 84.60 57.65 84.58 56.06 84.54 C 56.02 82.48 56.00 80.42 55.99 78.36 C 54.99 77.45 54.00 76.54 52.99 75.64 C 52.80 72.20 52.82 68.63 55.21 65.85 C 54.38 66.20 52.73 66.89 51.90 67.24 C 52.26 66.66 52.97 65.49 53.33 64.90 C 52.55 63.60 51.78 62.29 51.01 60.98 C 48.36 61.01 45.72 61.01 43.07 60.96 C 39.99 58.81 36.71 56.88 33.12 55.74 C 29.08 54.19 24.99 56.52 21.09 57.48 L 20.96 56.09 C 21.57 56.02 22.81 55.89 23.43 55.83 C 25.08 55.06 26.96 54.98 28.57 54.10 C 30.25 54.02 32.05 53.71 33.52 54.77 C 34.03 54.88 35.05 55.09 35.56 55.20 C 38.22 56.74 41.28 57.71 43.49 59.94 C 46.11 60.03 48.74 60.03 51.36 59.98 C 49.97 58.46 48.52 57.00 47.02 55.60 C 47.00 53.72 47.00 51.85 46.99 49.98 M 72.05 54.95 C 72.62 57.06 73.65 58.99 74.76 60.86 L 72.86 60.65 L 72.74 61.84 C 75.97 58.77 74.25 63.58 75.48 64.86 L 75.56 63.28 C 76.24 63.65 77.60 64.39 78.29 64.76 C 78.80 63.58 76.89 62.33 75.82 62.26 C 76.09 61.87 76.64 61.09 76.92 60.70 C 79.29 62.70 82.08 67.84 85.57 64.70 C 84.99 64.54 83.83 64.23 83.24 64.08 C 83.30 63.24 84.27 61.67 82.74 61.64 C 78.56 60.53 76.67 55.48 72.05 54.95 M 56.08 64.61 C 56.04 65.20 55.98 66.40 55.94 66.99 L 55.35 67.05 C 55.04 67.67 54.41 68.92 54.10 69.54 C 54.04 71.31 53.99 73.09 53.97 74.86 C 55.99 76.94 59.28 78.37 62.01 76.85 C 61.66 75.58 61.29 74.32 60.92 73.06 L 60.04 72.96 C 60.36 70.59 60.81 68.24 61.34 65.91 C 59.46 66.11 57.74 65.36 56.08 64.61 M 57.14 78.03 C 57.13 80.06 57.11 82.09 57.09 84.12 C 57.67 84.11 58.83 84.10 59.40 84.10 C 59.38 82.07 59.33 80.04 59.28 78.01 C 58.74 78.02 57.67 78.03 57.14 78.03 M 78.89 77.81 C 79.53 79.27 80.15 80.73 80.86 82.16 C 81.30 83.24 82.89 86.08 83.67 83.18 C 82.15 81.28 82.00 77.64 78.89 77.81 M 82.89 85.37 C 82.37 85.21 81.34 84.90 80.83 84.75 C 81.30 87.84 82.52 90.90 81.94 94.07 C 81.48 96.54 81.16 99.04 81.24 101.57 C 82.46 102.30 83.66 103.08 84.84 103.87 C 85.25 102.96 85.67 102.04 86.09 101.13 C 87.38 101.80 88.66 102.47 89.95 103.13 C 89.70 102.26 89.21 100.51 88.96 99.64 L 89.59 100.21 C 90.64 99.14 91.68 98.07 92.73 97.00 C 91.98 96.24 91.24 95.48 90.49 94.72 C 89.22 91.96 87.84 89.25 86.47 86.54 C 86.86 83.75 83.94 82.02 82.89 85.37 Z" />
<path fill="#141a23" opacity="1.00" d=" M 28.02 58.11 C 29.75 56.73 32.24 56.19 33.97 57.89 C 32.05 58.60 30.00 58.37 28.02 58.11 Z" />
<path fill="#141a23" opacity="1.00" d=" M 6.78 71.29 C 9.86 65.86 13.72 59.37 20.23 57.93 C 18.68 59.05 17.14 60.18 15.61 61.33 L 18.13 61.30 C 16.36 62.21 14.74 63.36 13.06 64.42 L 12.52 64.52 C 11.38 66.15 10.18 67.72 8.94 69.27 L 10.92 69.40 C 9.64 70.23 8.24 70.86 6.78 71.29 Z" />
<path fill="#141a23" opacity="1.00" d=" M 34.31 61.13 C 35.76 61.47 38.14 63.08 38.07 64.73 C 36.37 65.17 34.01 62.78 34.31 61.13 Z" />
<path fill="#141a23" opacity="1.00" d=" M 17.50 63.08 C 18.74 62.70 19.98 62.30 21.25 62.01 L 19.14 62.99 C 19.80 63.46 20.46 63.92 21.12 64.37 C 23.20 63.45 25.46 63.10 27.63 62.44 C 27.91 62.63 28.46 62.99 28.74 63.17 C 30.48 63.40 32.21 63.75 33.92 64.17 C 33.98 64.97 34.11 66.57 34.17 67.37 C 35.42 67.29 36.68 67.20 37.93 67.10 C 41.51 65.97 45.34 66.28 48.98 65.38 L 49.06 63.87 C 47.60 63.90 46.13 63.91 44.66 63.89 L 43.66 63.38 C 45.65 63.59 47.66 63.65 49.67 63.70 C 49.63 64.99 49.59 66.28 49.51 67.57 L 48.71 67.67 C 45.74 66.84 42.63 66.87 39.58 67.11 C 37.72 68.62 35.21 67.83 33.03 68.03 C 33.02 67.36 32.99 66.02 32.98 65.35 C 32.35 65.04 31.09 64.40 30.46 64.09 C 26.53 63.58 22.68 64.32 18.88 64.99 C 18.43 64.34 17.97 63.70 17.50 63.08 Z" />
<path fill="#141a23" opacity="1.00" d=" M 12.44 67.72 C 12.50 67.68 12.62 67.59 12.68 67.54 L 12.44 67.72 Z" />
<path fill="#141a23" opacity="1.00" d=" M 45.81 105.04 C 44.34 104.68 45.85 102.40 46.96 102.83 C 47.34 102.96 48.10 103.20 48.48 103.32 L 48.68 103.66 C 47.90 104.46 46.94 104.92 45.81 105.04 Z" />
</g>
<g id="#d8eee9ff">
<path fill="#d8eee9" opacity="1.00" d=" M 85.50 41.84 C 89.07 40.40 92.63 42.74 96.17 43.19 C 95.86 43.90 95.25 45.32 94.94 46.03 C 94.38 46.65 93.80 47.26 93.20 47.85 C 90.30 50.67 86.33 51.87 82.42 52.45 C 81.55 50.46 80.89 48.23 79.05 46.89 C 81.24 45.26 83.39 43.58 85.50 41.84 Z" />
</g>
<g id="#f5f6dfff">
<path fill="#f5f6df" opacity="1.00" d=" M 77.27 43.10 C 79.94 42.30 82.71 41.95 85.50 41.84 C 83.39 43.58 81.24 45.26 79.05 46.89 C 77.59 46.51 76.13 46.15 74.66 45.82 C 75.53 44.92 76.40 44.01 77.27 43.10 Z" />
</g>
<g id="#f0f2f1ff">
<path fill="#f0f2f1" opacity="1.00" d=" M 61.34 46.37 C 61.61 45.99 62.14 45.22 62.41 44.84 C 62.24 45.41 61.90 46.56 61.73 47.14 L 61.34 46.37 Z" />
<path fill="#f0f2f1" opacity="1.00" d=" M 72.05 54.95 C 76.67 55.48 78.56 60.53 82.74 61.64 C 84.27 61.67 83.30 63.24 83.24 64.08 C 83.83 64.23 84.99 64.54 85.57 64.70 C 82.08 67.84 79.29 62.70 76.92 60.70 C 76.64 61.09 76.09 61.87 75.82 62.26 C 75.75 62.51 75.62 63.02 75.56 63.28 L 75.48 64.86 C 74.25 63.58 75.97 58.77 72.74 61.84 L 72.86 60.65 L 74.76 60.86 C 73.65 58.99 72.62 57.06 72.05 54.95 Z" />
<path fill="#f0f2f1" opacity="1.00" d=" M 47.86 101.16 C 48.36 100.92 49.34 100.45 49.84 100.22 L 50.00 100.77 C 49.62 101.41 48.86 102.69 48.48 103.32 C 48.10 103.20 47.34 102.96 46.96 102.83 C 47.19 102.42 47.64 101.58 47.86 101.16 Z" />
<path fill="#f0f2f1" opacity="1.00" d=" M 89.84 100.42 C 90.83 100.09 91.82 99.78 92.81 99.47 L 92.76 101.21 L 92.75 101.74 L 93.35 101.72 C 93.45 102.34 93.63 103.58 93.73 104.21 C 92.45 102.92 91.14 101.67 89.84 100.42 Z" />
<path fill="#f0f2f1" opacity="1.00" d=" M 52.25 101.82 C 52.93 102.81 53.17 103.90 52.96 105.08 C 52.68 105.40 52.12 106.05 51.84 106.38 C 51.62 105.87 51.19 104.86 50.97 104.36 C 51.29 103.73 51.93 102.46 52.25 101.82 Z" />
<path fill="#f0f2f1" opacity="1.00" d=" M 57.27 101.88 C 58.52 102.93 58.39 104.74 58.36 106.22 C 58.15 106.34 57.73 106.60 57.52 106.72 C 57.02 105.17 56.69 103.46 57.27 101.88 Z" />
<path fill="#f0f2f1" opacity="1.00" d=" M 85.88 104.87 C 86.08 104.21 86.49 102.90 86.69 102.25 C 87.15 102.90 88.06 104.19 88.52 104.83 L 87.61 105.69 C 87.64 106.11 87.72 106.96 87.76 107.38 L 86.86 107.61 L 87.26 106.89 C 87.02 106.58 86.53 105.97 86.29 105.66 L 85.88 104.87 Z" />
<path fill="#f0f2f1" opacity="1.00" d=" M 80.85 104.17 L 82.16 103.76 L 83.58 103.67 C 83.42 104.23 83.09 105.33 82.93 105.89 C 82.44 106.86 81.97 107.84 81.52 108.82 L 81.15 108.88 C 81.40 107.30 81.03 105.73 80.85 104.17 Z" />
</g>
<g id="#c0e99dff">
<path fill="#c0e99d" opacity="1.00" d=" M 51.42 47.14 C 51.87 47.09 52.78 46.97 53.23 46.92 C 53.57 48.42 53.92 49.92 54.23 51.44 C 52.55 50.77 50.87 50.09 49.28 49.23 C 49.82 48.71 50.89 47.66 51.42 47.14 Z" />
</g>
<g id="#c4eda0ff">
<path fill="#c4eda0" opacity="1.00" d=" M 72.67 47.14 L 72.99 46.78 C 74.95 46.75 76.87 47.16 78.71 47.80 C 77.75 49.72 77.04 52.28 74.62 52.80 C 72.54 53.86 71.15 51.60 70.35 50.04 C 70.62 49.67 71.16 48.94 71.43 48.57 C 71.74 48.21 72.36 47.50 72.67 47.14 Z" />
<path fill="#c4eda0" opacity="1.00" d=" M 64.83 49.96 C 66.25 49.59 67.57 48.51 69.10 48.74 C 69.06 49.54 68.99 51.14 68.95 51.94 C 68.73 52.20 68.29 52.71 68.07 52.97 C 68.33 53.55 68.84 54.71 69.10 55.29 C 67.64 54.51 66.19 53.73 64.74 52.94 C 64.76 52.19 64.80 50.71 64.83 49.96 Z" />
<path fill="#c4eda0" opacity="1.00" d=" M 56.08 64.61 C 57.74 65.36 59.46 66.11 61.34 65.91 C 60.81 68.24 60.36 70.59 60.04 72.96 C 58.80 72.64 57.05 73.00 56.32 71.65 C 55.56 70.23 56.02 68.53 55.94 66.99 C 55.98 66.40 56.04 65.20 56.08 64.61 Z" />
<path fill="#c4eda0" opacity="1.00" d=" M 77.10 66.34 C 77.94 65.98 78.79 65.61 79.63 65.25 C 81.24 66.61 83.28 66.96 85.33 67.06 C 85.54 70.62 81.13 74.19 77.80 72.28 C 76.54 71.68 76.54 70.23 76.36 69.05 C 76.83 69.03 77.77 68.99 78.24 68.97 C 77.86 68.09 77.48 67.21 77.10 66.34 Z" />
<path fill="#c4eda0" opacity="1.00" d=" M 55.33 84.51 L 56.06 84.54 C 57.65 84.58 59.25 84.60 60.85 84.58 C 61.04 88.49 59.95 92.39 60.58 96.28 C 61.02 98.09 59.94 99.73 59.36 101.37 C 58.84 100.97 57.81 100.19 57.29 99.80 C 56.51 100.82 55.96 102.09 54.94 102.90 C 54.42 102.28 53.36 101.03 52.83 100.40 C 52.68 100.76 52.39 101.47 52.25 101.82 L 50.80 103.16 C 50.60 102.56 50.20 101.37 50.00 100.77 L 49.84 100.22 C 50.26 98.33 50.76 96.47 51.24 94.60 C 51.41 94.51 51.74 94.33 51.90 94.23 L 52.78 93.72 C 54.58 90.98 55.41 87.78 55.33 84.51 Z" />
</g>
<g id="#abd68eff">
<path fill="#abd68e" opacity="1.00" d=" M 78.71 47.80 C 80.96 49.98 81.74 53.14 80.80 56.14 C 80.37 56.38 79.53 56.86 79.11 57.10 C 76.42 55.20 73.14 53.13 69.88 55.15 C 69.58 54.07 69.27 53.01 68.95 51.94 C 69.42 51.31 69.89 50.68 70.35 50.04 C 71.15 51.60 72.54 53.86 74.62 52.80 C 77.04 52.28 77.75 49.72 78.71 47.80 Z" />
</g>
<g id="#acd68eff">
<path fill="#acd68e" opacity="1.00" d=" M 48.64 48.87 L 49.28 49.23 C 50.87 50.09 52.55 50.77 54.23 51.44 C 54.49 52.74 54.75 54.05 55.00 55.37 C 52.85 55.37 50.70 55.37 48.55 55.36 C 48.06 53.69 47.93 51.95 48.15 50.24 C 48.27 49.90 48.52 49.21 48.64 48.87 Z" />
<path fill="#acd68e" opacity="1.00" d=" M 85.21 65.78 C 86.03 65.87 87.66 66.04 88.48 66.13 C 87.19 69.52 86.02 72.95 84.84 76.38 C 84.60 76.57 84.13 76.94 83.89 77.13 C 81.29 77.41 78.67 77.56 76.07 77.86 C 74.22 75.34 73.33 72.36 73.90 69.24 C 74.61 68.61 76.03 67.36 76.75 66.74 L 76.36 69.05 C 76.54 70.23 76.54 71.68 77.80 72.28 C 81.13 74.19 85.54 70.62 85.33 67.06 L 85.21 65.78 Z" />
<path fill="#acd68e" opacity="1.00" d=" M 80.83 84.75 C 81.34 84.90 82.37 85.21 82.89 85.37 C 84.64 90.21 84.19 96.48 88.96 99.64 C 89.21 100.51 89.70 102.26 89.95 103.13 C 88.66 102.47 87.38 101.80 86.09 101.13 C 85.67 102.04 85.25 102.96 84.84 103.87 C 83.66 103.08 82.46 102.30 81.24 101.57 C 81.16 99.04 81.48 96.54 81.94 94.07 C 82.52 90.90 81.30 87.84 80.83 84.75 Z" />
</g>
<g id="#cbcba2ff">
<path fill="#cbcba2" opacity="1.00" d=" M 58.68 54.85 C 61.64 55.37 62.66 52.10 64.17 50.30 C 64.12 53.05 63.59 55.74 63.05 58.43 C 61.69 58.35 60.34 58.28 58.98 58.19 C 58.91 57.36 58.76 55.69 58.68 54.85 Z" />
</g>
<g id="#86ac70ff">
<path fill="#86ac70" opacity="1.00" d=" M 48.55 55.36 C 50.70 55.37 52.85 55.37 55.00 55.37 L 55.28 57.10 C 55.23 57.36 55.12 57.88 55.07 58.14 C 54.33 58.27 52.84 58.53 52.10 58.66 C 50.91 57.57 49.70 56.49 48.55 55.36 Z" />
</g>
<g id="#84a96eff">
<path fill="#84a96e" opacity="1.00" d=" M 56.10 54.05 C 57.07 55.45 57.94 56.91 58.89 58.33 C 59.06 58.50 59.41 58.85 59.58 59.02 C 59.86 59.64 60.41 60.88 60.68 61.50 C 61.62 62.01 62.56 62.52 63.50 63.03 C 63.82 62.42 64.45 61.19 64.77 60.58 C 64.96 61.32 65.34 62.81 65.53 63.56 C 62.02 65.55 58.54 62.91 56.53 60.10 C 56.16 58.79 55.82 57.48 55.54 56.16 L 56.10 54.05 Z" />
</g>
<g id="#e4e6e5ff">
<path fill="#e4e6e5" opacity="1.00" d=" M 24.76 58.68 C 25.85 58.49 26.93 58.30 28.02 58.11 C 30.00 58.37 32.05 58.60 33.97 57.89 C 36.61 59.60 39.31 61.22 42.15 62.59 L 42.33 62.68 L 42.54 62.79 C 42.82 62.94 43.38 63.23 43.66 63.38 L 44.66 63.89 C 46.13 63.91 47.60 63.90 49.06 63.87 L 48.98 65.38 C 45.34 66.28 41.51 65.97 37.93 67.10 C 36.68 67.20 35.42 67.29 34.17 67.37 C 34.11 66.57 33.98 64.97 33.92 64.17 C 32.21 63.75 30.48 63.40 28.74 63.17 C 28.46 62.99 27.91 62.63 27.63 62.44 C 25.46 63.10 23.20 63.45 21.12 64.37 C 20.46 63.92 19.80 63.46 19.14 62.99 L 21.25 62.01 C 23.19 63.30 25.05 60.00 22.15 60.70 C 21.92 61.03 21.47 61.68 21.25 62.01 C 19.98 62.30 18.74 62.70 17.50 63.08 C 17.97 63.70 18.43 64.34 18.88 64.99 C 16.94 64.82 15.00 64.59 13.06 64.42 C 14.74 63.36 16.36 62.21 18.13 61.30 C 19.20 60.85 20.26 60.37 21.31 59.86 L 21.65 59.73 L 22.04 59.55 C 22.62 59.36 23.78 58.97 24.36 58.78 L 24.76 58.68 M 25.21 60.08 C 25.54 63.37 28.13 58.41 25.21 60.08 M 30.47 60.15 C 30.72 61.46 31.46 61.69 32.70 60.86 C 32.45 59.54 31.71 59.30 30.47 60.15 M 34.31 61.13 C 34.01 62.78 36.37 65.17 38.07 64.73 C 38.14 63.08 35.76 61.47 34.31 61.13 Z" />
</g>
<g id="#3f5036ff">
<path fill="#3f5036" opacity="1.00" d=" M 21.58 59.69 L 22.04 59.55 L 21.65 59.73 L 21.31 59.86 L 21.58 59.69 Z" />
</g>
<g id="#8cae75ff">
<path fill="#8cae75" opacity="1.00" d=" M 51.94 60.24 C 53.00 59.67 54.05 59.10 55.11 58.52 C 55.21 60.24 55.28 61.98 55.33 63.71 C 54.78 63.54 53.67 63.20 53.12 63.03 C 52.71 62.10 52.32 61.17 51.94 60.24 Z" />
</g>
<g id="#a7a9a8ff">
<path fill="#a7a9a8" opacity="1.00" d=" M 25.21 60.08 C 28.13 58.41 25.54 63.37 25.21 60.08 Z" />
</g>
<g id="#9ea09eff">
<path fill="#9ea09e" opacity="1.00" d=" M 30.47 60.15 C 31.71 59.30 32.45 59.54 32.70 60.86 C 31.46 61.69 30.72 61.46 30.47 60.15 Z" />
</g>
<g id="#888a88ff">
<path fill="#888a88" opacity="1.00" d=" M 21.25 62.01 C 21.47 61.68 21.92 61.03 22.15 60.70 C 25.05 60.00 23.19 63.30 21.25 62.01 Z" />
</g>
<g id="#607c51ff">
<path fill="#607c51" opacity="1.00" d=" M 42.15 62.59 L 42.37 62.69 L 42.54 62.79 L 42.33 62.68 L 42.15 62.59 Z" />
</g>
<g id="#89ae72ff">
<path fill="#89ae72" opacity="1.00" d=" M 63.31 65.14 C 65.24 64.16 67.33 65.25 69.24 65.69 C 70.26 65.25 71.27 64.79 72.29 64.34 C 73.62 65.77 74.91 67.35 73.67 69.29 C 69.43 69.32 64.93 68.76 61.02 70.79 C 61.29 68.76 61.61 66.51 63.31 65.14 Z" />
</g>
<g id="#add88fff">
<path fill="#add88f" opacity="1.00" d=" M 55.35 67.05 L 55.94 66.99 C 56.02 68.53 55.56 70.23 56.32 71.65 C 57.05 73.00 58.80 72.64 60.04 72.96 L 60.92 73.06 C 61.29 74.32 61.66 75.58 62.01 76.85 C 59.28 78.37 55.99 76.94 53.97 74.86 C 53.99 73.09 54.04 71.31 54.10 69.54 C 54.41 68.92 55.04 67.67 55.35 67.05 Z" />
</g>
<g id="#acd78eff">
<path fill="#acd78e" opacity="1.00" d=" M 61.02 70.79 C 64.93 68.76 69.43 69.32 73.67 69.29 C 73.44 69.76 72.96 70.71 72.72 71.18 C 71.83 71.33 70.94 71.48 70.05 71.61 C 70.72 71.62 72.07 71.64 72.74 71.65 C 73.17 73.54 73.64 75.42 74.28 77.26 C 73.93 78.92 73.53 80.57 73.12 82.22 C 72.34 82.84 71.55 83.46 70.76 84.08 C 69.38 83.18 67.91 82.43 66.45 81.68 C 64.02 78.39 62.09 74.74 61.02 70.79 M 63.41 71.24 C 63.68 72.61 67.29 72.61 67.64 71.28 C 66.47 70.42 64.60 70.40 63.41 71.24 Z" />
</g>
<g id="#718a5dff">
<path fill="#718a5d" opacity="1.00" d=" M 63.41 71.24 C 64.60 70.40 66.47 70.42 67.64 71.28 C 67.29 72.61 63.68 72.61 63.41 71.24 Z" />
</g>
<g id="#c8c49fff">
<path fill="#c8c49f" opacity="1.00" d=" M 57.14 78.03 C 57.67 78.03 58.74 78.02 59.28 78.01 C 59.33 80.04 59.38 82.07 59.40 84.10 C 58.83 84.10 57.67 84.11 57.09 84.12 C 57.11 82.09 57.13 80.06 57.14 78.03 Z" />
</g>
<g id="#c4c19cff">
<path fill="#c4c19c" opacity="1.00" d=" M 78.89 77.81 C 82.00 77.64 82.15 81.28 83.67 83.18 C 82.89 86.08 81.30 83.24 80.86 82.16 C 80.15 80.73 79.53 79.27 78.89 77.81 Z" />
</g>
<g id="#596c50ff">
<path fill="#596c50" opacity="1.00" d=" M 60.87 83.27 C 61.97 86.22 61.44 89.36 61.25 92.41 C 61.96 95.51 62.13 98.64 60.73 101.62 C 60.34 102.05 59.56 102.92 59.17 103.35 C 58.90 104.30 58.63 105.26 58.36 106.22 C 58.39 104.74 58.52 102.93 57.27 101.88 C 56.69 103.46 57.02 105.17 57.52 106.72 L 56.23 107.10 C 56.22 106.21 56.19 104.43 56.17 103.54 C 55.09 104.03 54.02 104.54 52.96 105.08 C 53.17 103.90 52.93 102.81 52.25 101.82 C 52.39 101.47 52.68 100.76 52.83 100.40 C 53.36 101.03 54.42 102.28 54.94 102.90 C 55.96 102.09 56.51 100.82 57.29 99.80 C 57.81 100.19 58.84 100.97 59.36 101.37 C 59.94 99.73 61.02 98.09 60.58 96.28 C 59.95 92.39 61.04 88.49 60.85 84.58 L 60.87 83.27 Z" />
</g>
<g id="#c7efa2ff">
<path fill="#c7efa2" opacity="1.00" d=" M 82.89 85.37 C 83.94 82.02 86.86 83.75 86.47 86.54 C 87.84 89.25 89.22 91.96 90.49 94.72 C 91.24 95.48 91.98 96.24 92.73 97.00 C 91.68 98.07 90.64 99.14 89.59 100.21 L 88.96 99.64 C 84.19 96.48 84.64 90.21 82.89 85.37 Z" />
</g>
<g id="#132427e8">
<path fill="#132427" opacity="0.91" d=" M 53.85 89.44 C 54.24 87.79 53.26 85.30 55.33 84.51 C 55.41 87.78 54.58 90.98 52.78 93.72 L 51.90 94.23 C 52.02 92.45 53.00 90.95 53.85 89.44 Z" />
</g>
<g id="#0f1c1fdf">
<path fill="#0f1c1f" opacity="0.87" d=" M 47.86 101.16 C 48.44 98.76 49.34 96.28 51.24 94.60 C 50.76 96.47 50.26 98.33 49.84 100.22 C 49.34 100.45 48.36 100.92 47.86 101.16 Z" />
</g>
<g id="#0f1c23ff">
<path fill="#0f1c23" opacity="1.00" d=" M 92.76 101.21 C 92.91 101.34 93.21 101.59 93.35 101.72 L 92.75 101.74 L 92.76 101.21 Z" />
</g>
<g id="#1d2a32ff">
<path fill="#1d2a32" opacity="1.00" d=" M 50.37 104.25 L 50.97 104.36 C 51.19 104.86 51.62 105.87 51.84 106.38 C 51.08 108.70 48.45 105.16 50.37 104.25 Z" />
</g>
<g id="#0a1821ff">
<path fill="#0a1821" opacity="1.00" d=" M 81.15 108.88 C 79.34 108.77 79.31 104.52 80.85 104.17 C 81.03 105.73 81.40 107.30 81.15 108.88 Z" />
</g>
<g id="#121f24ff">
<path fill="#121f24" opacity="1.00" d=" M 86.29 105.66 C 86.53 105.97 87.02 106.58 87.26 106.89 L 86.86 107.61 L 85.98 107.10 L 85.74 105.95 L 86.29 105.66 Z" />
</g>
</svg>
