<?xml version="1.0" encoding="UTF-8" ?>
<!DOCTYPE svg PUBLIC "-//W3C//DTD SVG 1.1//EN" "http://www.w3.org/Graphics/SVG/1.1/DTD/svg11.dtd">
<svg width="120pt" height="120pt" viewBox="0 0 120 120" version="1.1" xmlns="http://www.w3.org/2000/svg">
<g id="#030f1599">
<path fill="#030f15" opacity="0.60" d=" M 55.32 29.17 C 53.39 27.70 56.26 24.49 58.00 26.09 L 57.92 26.51 C 56.50 26.71 55.77 27.53 55.75 28.97 L 55.32 29.17 Z" />
</g>
<g id="#adecfeff">
<path fill="#adecfe" opacity="1.00" d=" M 58.00 26.09 L 58.16 25.39 C 58.34 26.14 58.72 27.63 58.90 28.38 L 59.04 28.92 L 59.64 28.82 C 58.87 30.05 58.05 31.24 57.34 32.50 L 56.69 33.10 C 56.40 33.37 55.82 33.93 55.53 34.20 C 56.88 35.32 58.49 35.98 60.16 36.44 C 60.17 37.00 60.18 38.11 60.19 38.66 C 59.78 38.96 58.97 39.55 58.56 39.85 C 56.19 40.43 53.84 41.15 51.58 42.11 C 52.00 41.48 52.82 40.22 53.23 39.59 C 50.81 41.33 48.41 43.10 45.86 44.66 C 44.75 44.38 43.64 44.11 42.52 43.86 C 43.51 44.71 44.52 45.55 45.53 46.38 L 45.75 46.56 C 43.73 48.46 41.06 50.09 38.33 48.51 C 38.13 48.14 37.73 47.40 37.53 47.02 C 37.19 46.50 36.53 45.46 36.19 44.93 C 35.68 44.73 34.66 44.32 34.14 44.11 L 35.18 42.55 C 36.61 43.44 37.66 44.75 38.58 46.15 C 39.54 44.21 40.58 42.31 41.67 40.44 C 39.07 38.33 41.49 35.33 42.40 33.02 C 42.68 32.36 43.12 31.85 43.72 31.47 C 44.88 30.95 46.04 30.43 47.20 29.90 C 47.24 31.60 47.28 33.30 47.32 35.00 C 47.81 34.49 48.77 33.46 49.25 32.94 C 49.12 30.75 50.24 28.80 50.91 26.79 C 50.82 28.31 50.74 29.82 50.68 31.34 L 50.63 32.14 C 51.13 31.97 52.15 31.65 52.65 31.49 C 53.46 30.63 54.35 29.85 55.32 29.17 L 55.75 28.97 C 57.09 28.68 57.81 27.86 57.92 26.51 L 58.00 26.09 M 50.29 37.24 C 50.80 37.76 50.80 37.76 50.29 37.24 M 48.25 38.28 C 48.77 38.79 48.77 38.79 48.25 38.28 M 45.27 40.22 C 45.76 40.77 45.76 40.77 45.27 40.22 Z" />
<path fill="#adecfe" opacity="1.00" d=" M 76.81 27.65 L 77.59 27.16 L 78.46 27.57 L 78.42 28.46 L 77.82 28.57 C 77.56 28.34 77.06 27.88 76.81 27.65 Z" />
<path fill="#adecfe" opacity="1.00" d=" M 35.12 29.45 L 36.21 29.62 C 36.25 29.63 36.33 29.64 36.37 29.64 L 36.62 30.97 C 37.09 33.88 38.07 36.66 38.75 39.52 C 36.47 36.63 36.45 32.76 35.12 29.45 Z" />
<path fill="#adecfe" opacity="1.00" d=" M 54.85 54.97 C 55.82 53.79 56.82 52.64 57.83 51.49 C 60.35 52.45 62.88 53.34 65.42 54.23 C 64.96 54.65 64.06 55.50 63.61 55.92 L 63.06 56.15 C 62.60 56.15 61.67 56.15 61.21 56.15 C 60.33 56.42 59.45 56.71 58.58 57.00 C 57.54 57.01 55.45 57.04 54.41 57.05 C 54.52 56.53 54.74 55.49 54.85 54.97 Z" />
<path fill="#adecfe" opacity="1.00" d=" M 46.50 76.07 C 48.59 75.96 50.68 75.94 52.77 75.90 C 53.25 76.44 54.23 77.53 54.72 78.08 C 53.27 78.57 51.83 79.06 50.38 79.54 C 51.01 79.72 52.28 80.07 52.91 80.24 C 54.46 81.50 54.82 83.34 54.72 85.24 C 53.41 85.23 52.11 85.21 50.80 85.19 C 51.62 86.75 52.43 88.31 53.24 89.88 C 51.31 89.05 49.32 87.96 48.67 85.81 C 47.35 83.61 49.24 81.45 49.93 79.41 C 48.72 80.91 47.95 82.68 47.27 84.47 C 47.05 84.84 46.60 85.59 46.38 85.96 C 45.15 84.13 43.94 82.28 42.84 80.37 C 43.22 79.49 43.65 78.64 44.14 77.81 C 44.83 77.10 45.62 76.52 46.50 76.07 Z" />
</g>
<g id="#333333ff">
<path fill="#333333" opacity="1.00" d=" M 55.75 28.97 C 55.77 27.53 56.50 26.71 57.92 26.51 C 57.81 27.86 57.09 28.68 55.75 28.97 Z" />
<path fill="#333333" opacity="1.00" d=" M 48.67 30.23 C 49.23 29.37 50.35 27.65 50.91 26.79 C 50.24 28.80 49.12 30.75 49.25 32.94 C 48.77 33.46 47.81 34.49 47.32 35.00 C 47.28 33.30 47.24 31.60 47.20 29.90 C 46.04 30.43 44.88 30.95 43.72 31.47 C 44.75 30.16 46.12 29.18 47.43 28.18 C 47.74 28.69 48.36 29.72 48.67 30.23 Z" />
<path fill="#333333" opacity="1.00" d=" M 45.86 44.66 C 48.41 43.10 50.81 41.33 53.23 39.59 C 52.82 40.22 52.00 41.48 51.58 42.11 C 51.68 43.43 51.78 44.75 51.89 46.07 C 50.30 47.05 48.62 48.52 46.76 47.04 C 50.27 48.11 51.56 44.97 51.14 42.12 C 49.20 43.45 47.48 45.06 45.53 46.38 C 44.52 45.55 43.51 44.71 42.52 43.86 C 43.64 44.11 44.75 44.38 45.86 44.66 Z" />
<path fill="#333333" opacity="1.00" d=" M 64.50 43.63 C 64.79 43.32 65.38 42.71 65.68 42.40 C 66.04 42.50 66.77 42.70 67.13 42.80 C 69.54 43.41 72.18 43.46 74.47 42.39 C 76.18 43.26 78.13 43.04 79.98 43.13 C 79.99 43.59 80.01 44.50 80.02 44.96 C 79.39 45.00 78.14 45.07 77.51 45.10 L 76.41 45.84 C 75.92 46.14 74.95 46.74 74.47 47.03 C 71.33 47.15 68.34 48.20 65.60 49.70 C 66.63 51.13 67.65 52.57 68.65 54.03 C 66.99 54.70 65.30 55.32 63.61 55.92 C 64.06 55.50 64.96 54.65 65.42 54.23 C 62.88 53.34 60.35 52.45 57.83 51.49 C 56.82 52.64 55.82 53.79 54.85 54.97 C 53.79 55.13 52.73 55.19 51.66 55.23 C 53.40 53.55 55.10 51.82 56.66 49.97 C 60.00 51.15 63.28 52.52 66.73 53.36 L 66.34 53.65 L 66.65 54.03 L 67.04 53.72 L 66.73 53.36 C 65.81 52.28 64.88 51.21 63.95 50.15 C 66.97 47.56 70.88 46.66 74.55 45.41 C 75.35 45.10 76.97 44.49 77.77 44.19 C 73.36 43.78 68.92 43.97 64.50 43.63 Z" />
<path fill="#333333" opacity="1.00" d=" M 25.09 55.41 C 24.91 52.32 24.71 48.95 26.99 46.53 C 26.97 47.21 26.93 48.58 26.91 49.26 C 27.46 48.88 28.57 48.11 29.12 47.73 C 30.86 49.92 32.46 52.25 33.51 54.86 C 31.14 55.40 28.76 54.86 26.51 54.08 C 27.42 52.85 27.53 50.87 26.31 49.80 C 25.91 51.14 25.80 52.51 25.96 53.92 L 25.98 54.46 L 25.09 55.41 Z" />
<path fill="#333333" opacity="1.00" d=" M 78.75 50.48 C 80.03 49.56 81.56 49.17 83.11 49.13 C 82.33 50.86 80.33 52.06 78.75 50.48 Z" />
<path fill="#333333" opacity="1.00" d=" M 38.28 58.54 L 39.07 57.83 C 39.26 61.42 38.13 65.52 40.38 68.66 C 42.61 72.15 46.76 73.49 50.45 74.81 C 51.28 74.92 52.95 75.13 53.79 75.24 C 56.34 77.92 58.94 81.00 59.43 84.81 C 59.05 88.19 55.65 89.84 52.87 91.03 C 50.38 89.44 48.28 87.29 47.27 84.47 C 47.95 82.68 48.72 80.91 49.93 79.41 C 49.24 81.45 47.35 83.61 48.67 85.81 C 49.32 87.96 51.31 89.05 53.24 89.88 C 55.08 89.11 56.98 88.22 58.23 86.60 C 58.40 83.43 56.47 80.57 54.72 78.08 C 54.23 77.53 53.25 76.44 52.77 75.90 C 50.68 75.94 48.59 75.96 46.50 76.07 C 45.75 73.34 42.39 73.30 40.76 71.31 C 37.06 68.15 37.91 62.82 38.28 58.54 Z" />
<path fill="#333333" opacity="1.00" d=" M 51.45 65.13 C 53.02 64.93 54.59 64.68 56.15 64.44 C 54.73 64.89 53.29 65.34 51.85 65.73 C 50.40 65.80 48.95 65.79 47.51 65.71 C 48.82 65.48 50.13 65.29 51.45 65.13 Z" />
<path fill="#333333" opacity="1.00" d=" M 55.83 71.77 C 56.50 71.00 57.13 70.21 57.78 69.42 C 61.59 75.00 64.65 82.14 61.83 88.81 C 61.36 89.15 60.42 89.83 59.95 90.18 C 60.84 87.88 61.89 85.55 62.00 83.06 C 61.52 79.15 59.83 75.51 57.91 72.13 C 57.39 72.04 56.35 71.86 55.83 71.77 Z" />
<path fill="#333333" opacity="1.00" d=" M 52.91 80.24 C 56.24 80.58 55.62 84.26 54.79 86.51 L 54.72 85.24 C 54.82 83.34 54.46 81.50 52.91 80.24 Z" />
</g>
<g id="#031823ff">
<path fill="#031823" opacity="1.00" d=" M 58.90 28.38 C 59.09 28.49 59.45 28.71 59.64 28.82 L 59.04 28.92 L 58.90 28.38 Z" />
<path fill="#031823" opacity="1.00" d=" M 68.20 33.34 L 69.07 32.82 L 69.91 33.21 L 69.72 33.93 C 69.34 34.00 68.57 34.13 68.19 34.20 L 68.20 33.34 Z" />
<path fill="#031823" opacity="1.00" d=" M 64.25 36.29 L 65.19 35.78 L 66.02 36.22 C 65.56 36.47 64.65 36.97 64.20 37.22 L 64.25 36.29 Z" />
</g>
<g id="#c5bf98ff">
<path fill="#c5bf98" opacity="1.00" d=" M 77.82 28.57 L 78.42 28.46 C 78.27 28.49 77.97 28.54 77.82 28.57 Z" />
<path fill="#c5bf98" opacity="1.00" d=" M 40.42 56.71 C 40.91 56.05 41.40 55.39 41.89 54.73 C 44.05 55.83 46.48 56.09 48.85 56.41 C 48.90 57.11 48.99 58.52 49.04 59.23 C 49.15 59.72 49.35 60.69 49.46 61.18 C 46.66 61.72 42.22 63.64 40.35 60.71 L 40.46 60.70 C 40.41 60.58 40.32 60.33 40.27 60.20 C 40.17 59.51 39.99 58.13 39.89 57.44 L 40.42 56.71 Z" />
</g>
<g id="#79a4acff">
<path fill="#79a4ac" opacity="1.00" d=" M 34.25 28.70 L 35.12 29.45 C 36.45 32.76 36.47 36.63 38.75 39.52 C 38.07 36.66 37.09 33.88 36.62 30.97 C 38.80 31.87 38.14 36.78 41.17 35.17 C 41.28 34.67 41.52 33.68 41.63 33.19 L 42.40 33.02 C 41.49 35.33 39.07 38.33 41.67 40.44 C 40.58 42.31 39.54 44.21 38.58 46.15 C 37.66 44.75 36.61 43.44 35.18 42.55 C 35.87 42.52 37.25 42.47 37.94 42.44 C 37.60 41.66 36.91 40.11 36.57 39.34 C 36.40 37.97 36.55 36.45 35.60 35.31 C 35.31 33.07 34.54 30.94 34.25 28.70 Z" />
</g>
<g id="#93d3eeff">
<path fill="#93d3ee" opacity="1.00" d=" M 36.21 29.62 C 36.25 29.63 36.33 29.64 36.37 29.64 C 36.33 29.64 36.25 29.63 36.21 29.62 Z" />
<path fill="#93d3ee" opacity="1.00" d=" M 74.21 29.91 C 74.50 28.32 77.65 28.53 77.18 30.31 L 76.46 30.67 C 75.89 30.48 74.77 30.10 74.21 29.91 Z" />
<path fill="#93d3ee" opacity="1.00" d=" M 51.58 42.11 C 53.84 41.15 56.19 40.43 58.56 39.85 L 57.51 41.32 C 56.82 42.23 56.16 43.16 55.49 44.08 C 56.87 44.96 58.19 46.22 59.96 46.12 C 64.83 46.28 69.68 45.48 74.55 45.41 C 70.88 46.66 66.97 47.56 63.95 50.15 C 64.88 51.21 65.81 52.28 66.73 53.36 C 63.28 52.52 60.00 51.15 56.66 49.97 C 55.10 51.82 53.40 53.55 51.66 55.23 C 47.77 55.27 43.64 54.75 40.84 51.76 C 38.27 52.48 35.87 53.64 33.51 54.86 C 32.46 52.25 30.86 49.92 29.12 47.73 C 28.57 48.11 27.46 48.88 26.91 49.26 C 26.93 48.58 26.97 47.21 26.99 46.53 C 27.32 46.54 27.97 46.57 28.29 46.59 C 31.35 46.99 34.44 47.04 37.53 47.02 C 37.73 47.40 38.13 48.14 38.33 48.51 C 41.06 50.09 43.73 48.46 45.75 46.56 C 46.00 46.68 46.51 46.92 46.76 47.04 C 48.62 48.52 50.30 47.05 51.89 46.07 C 51.78 44.75 51.68 43.43 51.58 42.11 Z" />
<path fill="#93d3ee" opacity="1.00" d=" M 51.66 94.28 C 45.53 93.64 40.08 86.25 42.84 80.37 C 43.94 82.28 45.15 84.13 46.38 85.96 C 46.60 85.59 47.05 84.84 47.27 84.47 C 48.28 87.29 50.38 89.44 52.87 91.03 C 52.46 92.11 52.06 93.19 51.66 94.28 Z" />
</g>
<g id="#a0e0f6ff">
<path fill="#a0e0f6" opacity="1.00" d=" M 74.21 29.91 C 74.77 30.10 75.89 30.48 76.46 30.67 C 75.49 31.47 74.79 32.45 74.35 33.62 C 71.58 36.67 68.57 39.48 65.68 42.40 C 65.38 42.71 64.79 43.32 64.50 43.63 C 68.92 43.97 73.36 43.78 77.77 44.19 C 76.97 44.49 75.35 45.10 74.55 45.41 C 69.68 45.48 64.83 46.28 59.96 46.12 C 58.19 46.22 56.87 44.96 55.49 44.08 C 56.16 43.16 56.82 42.23 57.51 41.32 C 59.35 40.46 61.25 39.65 62.86 38.39 C 63.20 38.09 63.86 37.51 64.20 37.22 C 64.65 36.97 65.56 36.47 66.02 36.22 C 66.56 35.34 67.28 34.66 68.19 34.20 C 68.57 34.13 69.34 34.00 69.72 33.93 L 69.91 33.21 C 70.21 32.92 70.79 32.35 71.09 32.07 C 71.58 31.88 72.56 31.49 73.05 31.30 C 73.34 30.95 73.92 30.26 74.21 29.91 Z" />
</g>
<g id="#ffffd3ff">
<path fill="#ffffd3" opacity="1.00" d=" M 70.23 38.95 C 74.67 37.11 76.75 32.00 81.07 29.88 C 80.57 31.01 80.04 32.12 79.48 33.23 C 79.46 33.28 79.42 33.37 79.39 33.42 C 79.14 33.97 78.64 35.07 78.39 35.62 L 77.75 36.02 C 76.37 36.70 75.74 38.29 75.73 39.76 C 75.70 40.29 75.63 41.33 75.59 41.86 L 74.47 42.39 C 72.18 43.46 69.54 43.41 67.13 42.80 L 67.03 42.33 C 68.07 41.18 69.13 40.05 70.23 38.95 Z" />
</g>
<g id="#051923ff">
<path fill="#051923" opacity="1.00" d=" M 50.68 31.34 C 51.17 31.38 52.16 31.45 52.65 31.49 C 52.15 31.65 51.13 31.97 50.63 32.14 L 50.68 31.34 Z" />
</g>
<g id="#041923ff">
<path fill="#041923" opacity="1.00" d=" M 71.26 31.20 L 72.25 30.80 L 73.05 31.30 C 72.56 31.49 71.58 31.88 71.09 32.07 L 71.26 31.20 Z" />
</g>
<g id="#2d444bff">
<path fill="#2d444b" opacity="1.00" d=" M 55.53 34.20 C 55.82 33.93 56.40 33.37 56.69 33.10 C 57.09 33.58 57.89 34.56 58.29 35.04 C 58.92 35.06 60.18 35.08 60.81 35.10 C 60.95 36.60 60.87 38.38 62.86 38.39 C 61.25 39.65 59.35 40.46 57.51 41.32 L 58.56 39.85 C 58.97 39.55 59.78 38.96 60.19 38.66 C 60.18 38.11 60.17 37.00 60.16 36.44 C 58.49 35.98 56.88 35.32 55.53 34.20 Z" />
</g>
<g id="#666552ff">
<path fill="#666552" opacity="1.00" d=" M 79.39 33.42 C 79.42 33.37 79.46 33.28 79.48 33.23 C 79.46 33.28 79.42 33.37 79.39 33.42 Z" />
</g>
<g id="#817f67ff">
<path fill="#817f67" opacity="1.00" d=" M 75.73 39.76 C 75.74 38.29 76.37 36.70 77.75 36.02 C 78.50 37.25 77.33 40.21 75.73 39.76 Z" />
</g>
<g id="#7ca5adff">
<path fill="#7ca5ad" opacity="1.00" d=" M 50.29 37.24 C 50.80 37.76 50.80 37.76 50.29 37.24 Z" />
</g>
<g id="#7da2a5ff">
<path fill="#7da2a5" opacity="1.00" d=" M 48.25 38.28 C 48.77 38.79 48.77 38.79 48.25 38.28 Z" />
</g>
<g id="#7b9a96ff">
<path fill="#7b9a96" opacity="1.00" d=" M 45.27 40.22 C 45.76 40.77 45.76 40.77 45.27 40.22 Z" />
</g>
<g id="#ffffd8ff">
<path fill="#ffffd8" opacity="1.00" d=" M 45.53 46.38 C 47.48 45.06 49.20 43.45 51.14 42.12 C 51.56 44.97 50.27 48.11 46.76 47.04 C 46.51 46.92 46.00 46.68 45.75 46.56 L 45.53 46.38 Z" />
<path fill="#ffffd8" opacity="1.00" d=" M 87.36 45.73 C 89.86 44.59 92.66 44.95 95.27 45.45 L 93.79 45.79 C 92.43 46.09 90.53 46.17 89.98 47.72 L 89.62 48.52 L 88.57 48.59 C 86.74 48.68 84.92 48.87 83.11 49.13 C 81.56 49.17 80.03 49.56 78.75 50.48 C 78.55 50.59 78.16 50.80 77.96 50.91 C 76.17 50.95 74.43 51.48 72.99 52.55 L 71.97 52.66 C 71.40 52.90 70.26 53.37 69.69 53.60 C 69.43 53.71 68.91 53.92 68.65 54.03 C 67.65 52.57 66.63 51.13 65.60 49.70 C 68.34 48.20 71.33 47.15 74.47 47.03 C 78.82 47.24 83.04 45.99 87.36 45.73 Z" />
</g>
<g id="#0d2029f3">
<path fill="#0d2029" opacity="0.95" d=" M 76.41 45.84 C 82.61 45.96 88.66 43.62 94.90 43.97 C 94.99 44.34 95.18 45.08 95.27 45.45 C 92.66 44.95 89.86 44.59 87.36 45.73 C 83.04 45.99 78.82 47.24 74.47 47.03 C 74.95 46.74 75.92 46.14 76.41 45.84 Z" />
</g>
<g id="#10252eff">
<path fill="#10252e" opacity="1.00" d=" M 27.65 44.92 C 30.43 45.77 33.59 46.86 36.19 44.93 C 36.53 45.46 37.19 46.50 37.53 47.02 C 34.44 47.04 31.35 46.99 28.29 46.59 L 27.65 44.92 Z" />
</g>
<g id="#83826bff">
<path fill="#83826b" opacity="1.00" d=" M 89.98 47.72 C 90.53 46.17 92.43 46.09 93.79 45.79 C 94.13 47.40 91.19 48.60 89.98 47.72 Z" />
</g>
<g id="#b5b18eff">
<path fill="#b5b18e" opacity="1.00" d=" M 83.11 49.13 C 84.92 48.87 86.74 48.68 88.57 48.59 C 84.42 51.99 78.75 52.99 74.67 56.47 C 74.41 56.74 73.90 57.28 73.64 57.55 C 73.38 57.82 72.86 58.37 72.60 58.65 C 71.67 57.83 70.78 56.97 69.89 56.12 C 71.52 55.17 73.14 54.21 74.83 53.36 C 76.26 53.14 77.18 52.01 77.96 50.91 C 78.16 50.80 78.55 50.59 78.75 50.48 C 80.33 52.06 82.33 50.86 83.11 49.13 Z" />
</g>
<g id="#94d4efff">
<path fill="#94d4ef" opacity="1.00" d=" M 26.31 49.80 C 27.53 50.87 27.42 52.85 26.51 54.08 L 25.96 53.92 C 25.80 52.51 25.91 51.14 26.31 49.80 Z" />
<path fill="#94d4ef" opacity="1.00" d=" M 50.20 61.00 C 51.65 59.73 53.13 58.49 54.41 57.05 C 55.45 57.04 57.54 57.01 58.58 57.00 C 57.49 57.93 56.42 58.88 55.35 59.83 C 55.82 60.36 56.29 60.90 56.76 61.45 C 57.98 62.94 59.02 64.62 59.35 66.55 L 58.48 67.63 L 58.69 68.31 L 57.78 69.42 C 57.13 70.21 56.50 71.00 55.83 71.77 C 54.91 72.25 54.00 72.73 53.09 73.23 C 53.09 72.52 53.09 71.11 53.09 70.41 C 53.47 70.22 54.22 69.85 54.60 69.66 C 54.21 69.38 53.45 68.81 53.07 68.52 C 52.65 67.60 52.24 66.67 51.85 65.73 C 53.29 65.34 54.73 64.89 56.15 64.44 C 54.59 64.68 53.02 64.93 51.45 65.13 C 51.03 63.75 50.61 62.38 50.20 61.00 Z" />
</g>
<g id="#688286ff">
<path fill="#688286" opacity="1.00" d=" M 72.99 52.55 C 74.43 51.48 76.17 50.95 77.96 50.91 C 77.18 52.01 76.26 53.14 74.83 53.36 C 74.37 53.16 73.45 52.75 72.99 52.55 Z" />
</g>
<g id="#3f5a66ff">
<path fill="#3f5a66" opacity="1.00" d=" M 33.51 54.86 C 35.87 53.64 38.27 52.48 40.84 51.76 C 40.63 52.28 40.21 53.32 40.00 53.84 C 40.47 54.07 41.42 54.51 41.89 54.73 C 41.40 55.39 40.91 56.05 40.42 56.71 C 39.98 53.37 36.00 53.14 34.54 55.92 C 31.72 56.02 28.86 56.20 26.05 55.71 L 25.98 54.46 L 25.96 53.92 L 26.51 54.08 C 28.76 54.86 31.14 55.40 33.51 54.86 Z" />
</g>
<g id="#73a5baff">
<path fill="#73a5ba" opacity="1.00" d=" M 40.84 51.76 C 43.64 54.75 47.77 55.27 51.66 55.23 C 52.73 55.19 53.79 55.13 54.85 54.97 C 54.74 55.49 54.52 56.53 54.41 57.05 C 53.13 58.49 51.65 59.73 50.20 61.00 C 49.91 60.55 49.33 59.67 49.04 59.23 C 48.99 58.52 48.90 57.11 48.85 56.41 C 46.48 56.09 44.05 55.83 41.89 54.73 C 41.42 54.51 40.47 54.07 40.00 53.84 C 40.21 53.32 40.63 52.28 40.84 51.76 Z" />
<path fill="#73a5ba" opacity="1.00" d=" M 71.97 52.66 L 72.99 52.55 C 73.45 52.75 74.37 53.16 74.83 53.36 C 73.14 54.21 71.52 55.17 69.89 56.12 C 70.78 56.97 71.67 57.83 72.60 58.65 C 73.00 58.93 73.80 59.50 74.19 59.79 C 73.61 59.97 72.44 60.35 71.85 60.53 C 73.02 61.02 74.19 61.49 75.37 61.94 C 69.14 62.28 62.99 60.33 56.76 61.45 C 56.29 60.90 55.82 60.36 55.35 59.83 C 56.42 58.88 57.49 57.93 58.58 57.00 C 59.45 56.71 60.33 56.42 61.21 56.15 C 61.59 57.55 62.21 57.55 63.06 56.15 L 63.61 55.92 C 65.30 55.32 66.99 54.70 68.65 54.03 C 68.91 53.92 69.43 53.71 69.69 53.60 C 70.26 53.37 71.40 52.90 71.97 52.66 Z" />
<path fill="#73a5ba" opacity="1.00" d=" M 53.09 73.23 C 54.00 72.73 54.91 72.25 55.83 71.77 C 56.35 71.86 57.39 72.04 57.91 72.13 C 59.83 75.51 61.52 79.15 62.00 83.06 C 61.89 85.55 60.84 87.88 59.95 90.18 C 59.79 90.40 59.46 90.85 59.29 91.08 C 56.93 92.54 54.33 93.55 51.66 94.28 C 52.06 93.19 52.46 92.11 52.87 91.03 C 55.65 89.84 59.05 88.19 59.43 84.81 C 58.94 81.00 56.34 77.92 53.79 75.24 C 52.95 75.13 51.28 74.92 50.45 74.81 C 51.32 74.27 52.20 73.74 53.09 73.23 Z" />
<path fill="#73a5ba" opacity="1.00" d=" M 54.72 78.08 C 56.47 80.57 58.40 83.43 58.23 86.60 C 56.98 88.22 55.08 89.11 53.24 89.88 C 52.43 88.31 51.62 86.75 50.80 85.19 C 52.11 85.21 53.41 85.23 54.72 85.24 L 54.79 86.51 C 55.62 84.26 56.24 80.58 52.91 80.24 C 52.28 80.07 51.01 79.72 50.38 79.54 C 51.83 79.06 53.27 78.57 54.72 78.08 Z" />
</g>
<g id="#a6e6ffff">
<path fill="#a6e6ff" opacity="1.00" d=" M 66.73 53.36 L 67.04 53.72 L 66.65 54.03 L 66.34 53.65 L 66.73 53.36 Z" />
</g>
<g id="#557a89ff">
<path fill="#557a89" opacity="1.00" d=" M 69.69 53.60 C 70.26 53.37 71.40 52.90 71.97 52.66 C 71.40 52.90 70.26 53.37 69.69 53.60 Z" />
</g>
<g id="#476573ff">
<path fill="#476573" opacity="1.00" d=" M 61.21 56.15 C 61.67 56.15 62.60 56.15 63.06 56.15 C 62.21 57.55 61.59 57.55 61.21 56.15 Z" />
</g>
<g id="#384546ff">
<path fill="#384546" opacity="1.00" d=" M 73.64 57.55 C 73.90 57.28 74.41 56.74 74.67 56.47 C 80.22 58.11 85.56 60.33 90.99 62.31 C 91.00 63.03 91.01 64.49 91.01 65.22 C 87.42 63.93 83.64 63.97 79.89 63.90 C 76.33 62.73 72.60 63.10 68.93 62.90 C 65.70 61.96 62.35 61.84 59.01 61.94 C 59.78 63.48 60.05 65.16 60.17 66.86 L 59.35 66.55 C 59.02 64.62 57.98 62.94 56.76 61.45 C 62.99 60.33 69.14 62.28 75.37 61.94 C 78.06 62.34 80.74 62.85 83.46 63.06 C 85.07 63.17 86.69 63.21 88.30 63.27 L 88.16 62.37 C 83.28 60.88 78.65 58.63 73.64 57.55 M 89.27 63.28 C 89.89 63.89 89.89 63.89 89.27 63.28 Z" />
</g>
<g id="#fdf5c3ff">
<path fill="#fdf5c3" opacity="1.00" d=" M 39.07 57.83 L 39.89 57.44 C 39.99 58.13 40.17 59.51 40.27 60.20 L 40.35 60.71 C 42.22 63.64 46.66 61.72 49.46 61.18 L 50.20 61.00 C 50.61 62.38 51.03 63.75 51.45 65.13 C 50.13 65.29 48.82 65.48 47.51 65.71 C 48.95 65.79 50.40 65.80 51.85 65.73 C 52.24 66.67 52.65 67.60 53.07 68.52 C 52.62 68.84 51.73 69.48 51.28 69.80 C 51.74 69.95 52.64 70.26 53.09 70.41 C 53.09 71.11 53.09 72.52 53.09 73.23 C 52.20 73.74 51.32 74.27 50.45 74.81 C 46.76 73.49 42.61 72.15 40.38 68.66 C 38.13 65.52 39.26 61.42 39.07 57.83 M 40.09 64.27 C 39.68 65.65 40.17 66.18 41.57 65.85 C 41.98 64.46 41.49 63.94 40.09 64.27 M 45.33 68.02 C 44.91 69.02 44.49 70.01 44.07 71.00 C 46.10 70.93 48.14 70.84 50.17 70.73 C 48.89 70.36 47.60 69.99 46.31 69.63 C 46.07 69.23 45.58 68.43 45.33 68.02 Z" />
</g>
<g id="#f7f4c8ff">
<path fill="#f7f4c8" opacity="1.00" d=" M 72.60 58.65 C 72.86 58.37 73.38 57.82 73.64 57.55 C 78.65 58.63 83.28 60.88 88.16 62.37 L 88.30 63.27 C 86.69 63.21 85.07 63.17 83.46 63.06 C 80.49 61.64 77.39 60.54 74.19 59.79 C 73.80 59.50 73.00 58.93 72.60 58.65 Z" />
</g>
<g id="#6d6c58ff">
<path fill="#6d6c58" opacity="1.00" d=" M 49.04 59.23 C 49.33 59.67 49.91 60.55 50.20 61.00 L 49.46 61.18 C 49.35 60.69 49.15 59.72 49.04 59.23 Z" />
</g>
<g id="#6d6a55ff">
<path fill="#6d6a55" opacity="1.00" d=" M 40.27 60.20 C 40.32 60.33 40.41 60.58 40.46 60.70 L 40.35 60.71 L 40.27 60.20 Z" />
</g>
<g id="#cac7a1ff">
<path fill="#cac7a1" opacity="1.00" d=" M 71.85 60.53 C 72.44 60.35 73.61 59.97 74.19 59.79 C 77.39 60.54 80.49 61.64 83.46 63.06 C 80.74 62.85 78.06 62.34 75.37 61.94 C 74.19 61.49 73.02 61.02 71.85 60.53 Z" />
</g>
<g id="#ffffdfff">
<path fill="#ffffdf" opacity="1.00" d=" M 89.27 63.28 C 89.89 63.89 89.89 63.89 89.27 63.28 Z" />
</g>
<g id="#c1bc97ff">
<path fill="#c1bc97" opacity="1.00" d=" M 40.09 64.27 C 41.49 63.94 41.98 64.46 41.57 65.85 C 40.17 66.18 39.68 65.65 40.09 64.27 Z" />
</g>
<g id="#dbd4a9ff">
<path fill="#dbd4a9" opacity="1.00" d=" M 45.33 68.02 C 45.58 68.43 46.07 69.23 46.31 69.63 C 47.60 69.99 48.89 70.36 50.17 70.73 C 48.14 70.84 46.10 70.93 44.07 71.00 C 44.49 70.01 44.91 69.02 45.33 68.02 Z" />
</g>
<g id="#6a7a76ff">
<path fill="#6a7a76" opacity="1.00" d=" M 51.28 69.80 C 51.73 69.48 52.62 68.84 53.07 68.52 C 53.45 68.81 54.21 69.38 54.60 69.66 C 54.22 69.85 53.47 70.22 53.09 70.41 C 52.64 70.26 51.74 69.95 51.28 69.80 Z" />
</g>
<g id="#21353df2">
<path fill="#21353d" opacity="0.95" d=" M 40.96 84.95 C 40.60 82.22 41.62 79.18 44.14 77.81 C 43.65 78.64 43.22 79.49 42.84 80.37 C 40.08 86.25 45.53 93.64 51.66 94.28 C 54.33 93.55 56.93 92.54 59.29 91.08 C 58.87 93.98 55.14 93.97 52.93 94.89 C 46.78 96.45 41.91 90.40 40.96 84.95 Z" />
</g>
</svg>
