<?xml version="1.0" encoding="UTF-8" ?>
<!DOCTYPE svg PUBLIC "-//W3C//DTD SVG 1.1//EN" "http://www.w3.org/Graphics/SVG/1.1/DTD/svg11.dtd">
<svg width="120pt" height="120pt" viewBox="0 0 120 120" version="1.1" xmlns="http://www.w3.org/2000/svg">
<g id="#aa6f57ff">
<path fill="#aa6f57" opacity="1.00" d=" M 44.44 30.21 C 45.12 29.17 46.45 29.43 47.51 29.23 C 51.11 32.45 53.57 36.63 57.04 39.95 C 59.07 42.47 59.65 45.89 61.80 48.33 C 62.94 49.55 63.93 50.90 64.72 52.37 C 65.54 51.56 66.33 50.71 67.07 49.82 C 67.40 49.50 68.05 48.86 68.37 48.54 C 69.20 47.51 70.06 46.47 71.34 45.96 C 70.97 46.46 70.25 47.45 69.89 47.95 C 70.95 48.17 73.00 47.44 72.23 46.04 L 71.34 45.96 L 71.00 45.42 C 71.80 44.59 72.59 43.75 73.38 42.91 C 72.84 42.98 71.75 43.11 71.20 43.18 L 71.03 42.36 C 71.67 42.34 72.95 42.30 73.59 42.29 C 73.91 42.98 74.57 44.36 74.90 45.05 L 74.17 46.19 C 71.93 48.61 70.23 51.51 67.69 53.64 C 68.16 52.80 69.11 51.12 69.59 50.28 C 67.54 50.31 64.98 52.20 66.33 54.42 C 68.83 59.06 69.26 64.60 67.40 69.55 C 66.67 70.98 68.44 71.86 69.05 72.94 C 68.48 72.67 67.35 72.14 66.78 71.87 C 67.45 73.79 68.13 75.71 68.90 77.60 C 69.00 79.89 69.03 82.19 69.05 84.49 C 70.56 86.24 72.05 88.03 73.78 89.57 C 73.05 89.74 72.31 89.91 71.58 90.07 C 71.50 88.00 69.63 86.89 68.32 85.57 C 68.32 83.83 68.33 82.10 68.35 80.37 C 66.62 78.75 64.93 77.10 63.18 75.51 C 63.50 75.09 64.14 74.24 64.46 73.81 C 65.33 74.67 66.20 75.53 67.07 76.38 C 66.37 75.07 65.67 73.77 64.97 72.46 C 65.36 72.19 66.15 71.63 66.54 71.35 C 64.10 68.46 61.62 65.48 58.19 63.73 L 58.62 62.95 C 59.55 63.26 60.47 63.59 61.37 63.96 C 62.99 65.62 64.40 67.46 65.76 69.32 C 66.72 65.85 68.30 61.65 65.96 58.38 C 65.99 57.79 66.06 56.62 66.09 56.03 C 65.62 56.30 64.68 56.84 64.21 57.11 C 64.62 52.00 60.11 49.26 57.23 45.83 C 57.56 46.96 57.89 48.08 58.22 49.21 C 57.64 48.92 56.48 48.33 55.90 48.04 C 56.79 49.91 57.73 51.76 58.82 53.53 C 58.34 56.61 58.27 59.80 57.15 62.74 C 56.90 62.77 56.41 62.84 56.16 62.87 C 56.04 58.77 57.26 54.47 55.02 50.62 C 54.80 53.58 57.34 57.36 54.53 59.63 C 53.72 59.80 52.10 60.14 51.29 60.31 C 52.19 59.50 53.10 58.69 54.01 57.89 C 53.21 57.97 51.59 58.14 50.78 58.22 C 50.12 57.00 49.54 55.73 49.16 54.38 C 49.84 55.12 51.20 56.60 51.88 57.34 C 50.89 55.57 49.95 53.74 49.75 51.68 C 50.31 51.76 51.44 51.92 52.00 52.00 C 52.00 51.51 52.00 50.54 52.00 50.05 C 51.42 50.03 50.25 49.98 49.67 49.96 C 50.32 49.19 50.97 48.42 51.64 47.66 C 52.86 48.44 54.09 49.22 55.31 50.00 C 52.96 44.56 48.15 40.33 42.11 39.73 C 42.65 42.12 43.01 44.55 43.24 46.99 C 40.25 48.30 36.99 48.25 33.98 47.07 C 33.96 46.26 33.93 44.63 33.92 43.81 C 29.28 48.46 27.43 55.04 27.01 61.43 C 26.90 63.05 27.13 64.68 27.44 66.27 C 27.47 66.38 27.52 66.60 27.55 66.71 C 27.73 67.38 28.07 68.71 28.24 69.38 C 29.29 70.74 30.31 72.12 31.32 73.50 C 36.11 73.99 41.08 77.08 45.64 74.06 C 47.78 74.27 49.89 74.76 51.95 75.36 C 52.67 74.12 53.40 72.89 54.10 71.65 C 54.03 72.94 53.97 74.24 53.93 75.54 C 52.32 78.11 50.77 80.84 50.86 83.98 C 51.69 84.00 53.35 84.05 54.18 84.08 C 53.35 85.43 51.58 84.72 50.30 84.96 C 50.33 83.60 50.36 82.24 50.39 80.87 C 45.95 80.60 41.27 81.53 37.07 79.68 C 32.32 78.18 29.99 73.42 26.88 69.96 C 26.57 73.21 27.70 76.77 26.13 79.80 C 25.75 76.17 25.06 72.36 26.86 68.97 C 26.27 65.99 26.12 62.94 26.24 59.92 C 26.25 58.62 26.38 57.27 27.35 56.30 C 27.39 53.62 26.97 50.77 28.55 48.42 C 29.27 46.92 29.88 45.11 31.87 45.05 C 32.63 44.26 33.44 43.52 34.30 42.84 C 34.55 40.66 33.76 38.15 35.25 36.29 C 35.30 34.76 35.36 33.19 36.36 31.95 C 38.12 34.92 39.55 39.18 43.42 39.77 C 43.49 38.25 42.93 36.43 44.34 35.33 C 44.37 33.62 44.30 31.91 44.44 30.21 M 45.11 29.77 C 44.75 31.98 45.91 34.85 44.10 36.58 C 44.08 37.18 44.03 38.39 44.01 39.00 C 46.20 38.97 48.49 38.35 50.61 39.16 C 53.38 40.53 55.76 42.55 58.30 44.28 C 57.40 42.42 56.32 40.64 54.75 39.27 C 51.46 36.22 49.63 31.26 45.11 29.77 M 35.21 37.37 C 34.94 40.24 35.20 43.12 35.18 46.00 L 36.55 46.00 C 36.54 42.86 36.50 39.71 36.32 36.57 L 35.21 37.37 M 38.39 38.16 C 38.90 40.84 40.41 43.20 40.86 45.90 L 41.79 45.96 C 41.79 45.35 41.80 44.15 41.80 43.55 C 40.73 41.71 39.85 39.73 38.39 38.16 M 55.46 46.47 C 55.54 46.56 55.54 46.56 55.46 46.47 Z" />
<path fill="#aa6f57" opacity="1.00" d=" M 86.63 33.14 C 88.44 34.99 87.83 37.66 87.92 40.01 C 87.87 43.68 87.94 47.35 87.81 51.02 C 86.69 52.73 86.81 54.78 86.86 56.73 C 88.33 58.18 89.77 59.66 91.25 61.10 C 95.15 62.09 97.57 67.00 95.09 70.41 C 95.07 68.71 95.04 67.02 95.04 65.32 C 92.15 62.82 88.99 60.68 85.77 58.64 C 86.26 55.60 85.88 52.55 85.00 49.62 L 86.28 51.90 C 87.93 46.46 86.55 40.60 87.02 34.99 C 86.40 35.00 85.17 35.02 84.56 35.04 C 83.68 35.80 82.80 36.57 81.92 37.33 C 83.03 35.48 84.84 34.27 86.63 33.14 Z" />
<path fill="#aa6f57" opacity="1.00" d=" M 82.11 42.68 C 81.37 41.66 82.72 39.76 83.91 40.27 C 84.63 41.29 83.31 43.18 82.11 42.68 Z" />
<path fill="#aa6f57" opacity="1.00" d=" M 31.03 52.34 C 33.68 51.92 36.65 51.41 39.12 52.77 C 40.89 54.19 42.11 56.15 43.75 57.71 C 43.24 58.30 42.22 59.49 41.71 60.09 C 37.38 60.44 33.23 58.91 28.93 58.89 L 28.68 56.47 C 29.29 55.20 29.92 53.94 30.56 52.68 C 30.82 53.13 31.34 54.03 31.60 54.48 C 34.51 54.84 37.46 55.02 40.33 55.72 C 37.78 53.22 34.17 53.36 31.03 52.34 M 30.01 57.27 L 30.00 57.91 C 32.06 57.77 34.12 57.70 36.18 57.64 C 34.44 55.56 32.19 56.81 30.01 57.27 M 37.05 57.20 C 37.05 58.98 39.99 59.57 41.33 58.77 L 41.31 58.35 C 39.97 57.80 38.49 57.20 37.05 57.20 Z" />
<path fill="#aa6f57" opacity="1.00" d=" M 60.27 52.26 C 60.82 52.76 60.82 52.76 60.27 52.26 Z" />
<path fill="#aa6f57" opacity="1.00" d=" M 67.38 54.14 C 67.45 54.01 67.61 53.77 67.69 53.64 L 67.38 54.14 Z" />
<path fill="#aa6f57" opacity="1.00" d=" M 61.36 57.27 C 63.77 56.83 62.57 61.09 61.30 61.61 C 60.77 60.28 60.64 58.56 61.36 57.27 Z" />
<path fill="#aa6f57" opacity="1.00" d=" M 80.41 60.70 C 80.95 59.39 85.09 58.47 84.76 60.78 C 83.45 61.47 81.71 61.30 80.41 60.70 Z" />
<path fill="#aa6f57" opacity="1.00" d=" M 23.40 67.56 C 25.57 65.90 23.25 62.60 25.15 60.83 C 25.39 66.12 23.06 71.34 24.50 76.59 C 25.04 77.66 25.58 78.73 26.13 79.80 C 25.71 79.85 24.88 79.95 24.46 79.99 C 24.63 78.61 24.28 77.43 23.40 76.46 C 23.34 73.49 23.34 70.53 23.40 67.56 Z" />
<path fill="#aa6f57" opacity="1.00" d=" M 51.22 61.33 C 52.40 60.88 53.91 61.50 54.77 62.35 C 54.38 64.03 50.76 63.02 51.22 61.33 Z" />
<path fill="#aa6f57" opacity="1.00" d=" M 55.38 64.15 C 55.71 64.48 55.71 64.48 55.38 64.15 Z" />
<path fill="#aa6f57" opacity="1.00" d=" M 58.06 68.35 C 58.51 67.83 59.40 66.77 59.84 66.24 C 60.48 66.97 61.12 67.70 61.76 68.44 C 60.57 69.06 59.85 70.16 59.24 71.31 C 59.52 70.03 59.13 69.04 58.06 68.35 Z" />
<path fill="#aa6f57" opacity="1.00" d=" M 83.78 68.98 C 85.86 67.05 88.73 68.54 89.50 70.98 C 90.49 70.98 91.49 70.97 92.48 70.96 L 93.36 71.85 C 86.90 72.67 80.71 70.69 74.30 70.73 C 75.86 72.80 77.70 74.63 79.59 76.39 C 80.76 79.49 81.67 82.95 79.66 85.94 L 78.71 86.10 C 79.79 84.02 80.61 81.58 79.27 79.39 C 79.18 78.89 79.00 77.88 78.91 77.37 C 76.97 75.45 75.01 73.54 73.03 71.65 C 73.74 70.82 74.45 69.99 75.16 69.16 C 77.46 70.10 79.97 70.07 82.42 70.14 C 83.15 70.44 84.61 71.03 85.34 71.33 C 84.95 70.74 84.17 69.57 83.78 68.98 Z" />
<path fill="#aa6f57" opacity="1.00" d=" M 72.81 76.03 C 73.53 76.05 74.96 76.11 75.68 76.14 C 76.19 77.55 76.71 78.97 77.17 80.41 C 75.52 79.15 74.13 77.62 72.81 76.03 Z" />
<path fill="#aa6f57" opacity="1.00" d=" M 77.32 83.26 C 77.80 83.87 77.80 83.87 77.32 83.26 Z" />
</g>
<g id="#f7f7f7ff">
<path fill="#f7f7f7" opacity="1.00" d=" M 45.11 29.77 C 49.63 31.26 51.46 36.22 54.75 39.27 C 56.32 40.64 57.40 42.42 58.30 44.28 C 55.76 42.55 53.38 40.53 50.61 39.16 C 48.49 38.35 46.20 38.97 44.01 39.00 C 44.03 38.39 44.08 37.18 44.10 36.58 C 45.91 34.85 44.75 31.98 45.11 29.77 Z" />
<path fill="#f7f7f7" opacity="1.00" d=" M 84.56 35.04 C 85.17 35.02 86.40 35.00 87.02 34.99 C 86.55 40.60 87.93 46.46 86.28 51.90 L 85.00 49.62 C 85.88 52.55 86.26 55.60 85.77 58.64 C 88.99 60.68 92.15 62.82 95.04 65.32 C 95.04 67.02 95.07 68.71 95.09 70.41 C 94.44 70.55 93.13 70.82 92.48 70.96 C 91.49 70.97 90.49 70.98 89.50 70.98 C 88.73 68.54 85.86 67.05 83.78 68.98 C 84.17 69.57 84.95 70.74 85.34 71.33 C 84.61 71.03 83.15 70.44 82.42 70.14 C 79.97 70.07 77.46 70.10 75.16 69.16 C 74.45 69.99 73.74 70.82 73.03 71.65 C 75.01 73.54 76.97 75.45 78.91 77.37 C 79.00 77.88 79.18 78.89 79.27 79.39 C 80.61 81.58 79.79 84.02 78.71 86.10 C 78.49 86.47 78.06 87.21 77.85 87.58 C 76.01 87.19 74.61 87.87 73.78 89.57 C 72.05 88.03 70.56 86.24 69.05 84.49 C 69.03 82.19 69.00 79.89 68.90 77.60 C 68.13 75.71 67.45 73.79 66.78 71.87 C 67.35 72.14 68.48 72.67 69.05 72.94 C 68.44 71.86 66.67 70.98 67.40 69.55 C 69.26 64.60 68.83 59.06 66.33 54.42 C 64.98 52.20 67.54 50.31 69.59 50.28 C 69.11 51.12 68.16 52.80 67.69 53.64 C 67.61 53.77 67.45 54.01 67.38 54.14 L 67.69 53.64 C 70.23 51.51 71.93 48.61 74.17 46.19 L 74.73 45.59 C 76.00 42.08 79.51 40.04 81.92 37.33 C 82.80 36.57 83.68 35.80 84.56 35.04 M 82.11 42.68 C 83.31 43.18 84.63 41.29 83.91 40.27 C 82.72 39.76 81.37 41.66 82.11 42.68 M 80.41 60.70 C 81.71 61.30 83.45 61.47 84.76 60.78 C 85.09 58.47 80.95 59.39 80.41 60.70 M 72.81 76.03 C 74.13 77.62 75.52 79.15 77.17 80.41 C 76.71 78.97 76.19 77.55 75.68 76.14 C 74.96 76.11 73.53 76.05 72.81 76.03 M 77.32 83.26 C 77.80 83.87 77.80 83.87 77.32 83.26 Z" />
<path fill="#f7f7f7" opacity="1.00" d=" M 35.21 37.37 L 36.32 36.57 C 36.50 39.71 36.54 42.86 36.55 46.00 L 35.18 46.00 C 35.20 43.12 34.94 40.24 35.21 37.37 Z" />
<path fill="#f7f7f7" opacity="1.00" d=" M 38.39 38.16 C 39.85 39.73 40.73 41.71 41.80 43.55 C 41.80 44.15 41.79 45.35 41.79 45.96 L 40.86 45.90 C 40.41 43.20 38.90 40.84 38.39 38.16 Z" />
<path fill="#f7f7f7" opacity="1.00" d=" M 71.20 43.18 C 71.75 43.11 72.84 42.98 73.38 42.91 C 72.59 43.75 71.80 44.59 71.00 45.42 L 71.34 45.96 C 70.06 46.47 69.20 47.51 68.37 48.54 C 68.05 48.86 67.40 49.50 67.07 49.82 C 66.33 50.71 65.54 51.56 64.72 52.37 C 63.93 50.90 62.94 49.55 61.80 48.33 C 62.87 47.34 64.10 46.56 65.40 45.89 C 66.71 45.29 68.00 44.57 69.49 44.59 C 69.91 44.24 70.77 43.53 71.20 43.18 Z" />
<path fill="#f7f7f7" opacity="1.00" d=" M 71.34 45.96 L 72.23 46.04 C 73.00 47.44 70.95 48.17 69.89 47.95 C 70.25 47.45 70.97 46.46 71.34 45.96 Z" />
<path fill="#f7f7f7" opacity="1.00" d=" M 51.33 46.82 C 51.40 47.03 51.56 47.45 51.64 47.66 C 50.97 48.42 50.32 49.19 49.67 49.96 C 50.25 49.98 51.42 50.03 52.00 50.05 C 52.00 50.54 52.00 51.51 52.00 52.00 C 51.44 51.92 50.31 51.76 49.75 51.68 C 49.95 53.74 50.89 55.57 51.88 57.34 C 51.20 56.60 49.84 55.12 49.16 54.38 C 49.09 54.14 48.93 53.66 48.85 53.42 C 49.54 51.91 49.59 50.40 48.99 48.88 C 49.57 48.36 50.74 47.33 51.33 46.82 Z" />
<path fill="#f7f7f7" opacity="1.00" d=" M 31.03 52.34 C 34.17 53.36 37.78 53.22 40.33 55.72 C 37.46 55.02 34.51 54.84 31.60 54.48 C 31.34 54.03 30.82 53.13 30.56 52.68 Z" />
<path fill="#f7f7f7" opacity="1.00" d=" M 30.01 57.27 C 32.19 56.81 34.44 55.56 36.18 57.64 C 34.12 57.70 32.06 57.77 30.00 57.91 L 30.01 57.27 Z" />
<path fill="#f7f7f7" opacity="1.00" d=" M 37.05 57.20 C 38.49 57.20 39.97 57.80 41.31 58.35 L 41.33 58.77 C 39.99 59.57 37.05 58.98 37.05 57.20 Z" />
<path fill="#f7f7f7" opacity="1.00" d=" M 28.09 57.66 L 28.68 56.47 L 28.93 58.89 C 33.23 58.91 37.38 60.44 41.71 60.09 C 42.22 59.49 43.24 58.30 43.75 57.71 C 43.99 57.91 44.48 58.31 44.72 58.51 C 45.26 62.73 45.76 66.96 46.82 71.09 C 46.44 72.08 46.04 73.07 45.64 74.06 C 41.08 77.08 36.11 73.99 31.32 73.50 C 30.31 72.12 29.29 70.74 28.24 69.38 C 28.07 68.71 27.73 67.38 27.55 66.71 C 27.52 66.60 27.47 66.38 27.44 66.27 C 27.13 64.68 26.90 63.05 27.01 61.43 C 27.30 60.15 27.66 58.90 28.09 57.66 Z" />
<path fill="#f7f7f7" opacity="1.00" d=" M 65.96 58.38 C 68.30 61.65 66.72 65.85 65.76 69.32 C 64.40 67.46 62.99 65.62 61.37 63.96 C 62.50 63.19 63.63 62.42 64.76 61.66 C 65.17 60.57 65.57 59.48 65.96 58.38 Z" />
<path fill="#f7f7f7" opacity="1.00" d=" M 25.15 60.83 L 26.24 59.92 C 26.12 62.94 26.27 65.99 26.86 68.97 C 25.06 72.36 25.75 76.17 26.13 79.80 C 25.58 78.73 25.04 77.66 24.50 76.59 C 23.06 71.34 25.39 66.12 25.15 60.83 Z" />
<path fill="#f7f7f7" opacity="1.00" d=" M 58.19 63.73 C 61.62 65.48 64.10 68.46 66.54 71.35 C 66.15 71.63 65.36 72.19 64.97 72.46 C 65.67 73.77 66.37 75.07 67.07 76.38 C 66.20 75.53 65.33 74.67 64.46 73.81 C 64.14 74.24 63.50 75.09 63.18 75.51 C 62.78 76.03 61.98 77.07 61.57 77.59 C 61.97 79.21 61.62 80.50 60.52 81.45 C 60.60 81.72 60.78 82.27 60.87 82.54 C 59.37 82.85 57.99 83.59 56.45 83.73 L 56.37 81.74 C 55.83 82.32 54.73 83.49 54.18 84.08 C 53.35 84.05 51.69 84.00 50.86 83.98 C 50.77 80.84 52.32 78.11 53.93 75.54 C 53.97 74.24 54.03 72.94 54.10 71.65 C 55.50 69.03 56.81 66.36 58.19 63.73 M 58.06 68.35 C 59.13 69.04 59.52 70.03 59.24 71.31 C 59.85 70.16 60.57 69.06 61.76 68.44 C 61.12 67.70 60.48 66.97 59.84 66.24 C 59.40 66.77 58.51 67.83 58.06 68.35 Z" />
</g>
<g id="#e77a53ff">
<path fill="#e77a53" opacity="1.00" d=" M 42.11 39.73 C 48.15 40.33 52.96 44.56 55.31 50.00 C 54.09 49.22 52.86 48.44 51.64 47.66 C 51.56 47.45 51.40 47.03 51.33 46.82 C 50.74 47.33 49.57 48.36 48.99 48.88 L 48.61 49.16 C 48.11 50.45 48.06 51.76 48.47 53.08 L 48.85 53.42 C 48.93 53.66 49.09 54.14 49.16 54.38 C 49.54 55.73 50.12 57.00 50.78 58.22 C 51.59 58.14 53.21 57.97 54.01 57.89 C 53.10 58.69 52.19 59.50 51.29 60.31 C 52.10 60.14 53.72 59.80 54.53 59.63 C 57.34 57.36 54.80 53.58 55.02 50.62 C 57.26 54.47 56.04 58.77 56.16 62.87 C 56.41 62.84 56.90 62.77 57.15 62.74 C 58.27 59.80 58.34 56.61 58.82 53.53 C 57.73 51.76 56.79 49.91 55.90 48.04 C 56.48 48.33 57.64 48.92 58.22 49.21 C 57.89 48.08 57.56 46.96 57.23 45.83 C 60.11 49.26 64.62 52.00 64.21 57.11 C 64.68 56.84 65.62 56.30 66.09 56.03 C 66.06 56.62 65.99 57.79 65.96 58.38 C 65.57 59.48 65.17 60.57 64.76 61.66 C 63.63 62.42 62.50 63.19 61.37 63.96 C 60.47 63.59 59.55 63.26 58.62 62.95 L 58.19 63.73 C 56.81 66.36 55.50 69.03 54.10 71.65 C 53.40 72.89 52.67 74.12 51.95 75.36 C 49.89 74.76 47.78 74.27 45.64 74.06 C 46.04 73.07 46.44 72.08 46.82 71.09 C 45.76 66.96 45.26 62.73 44.72 58.51 C 44.48 58.31 43.99 57.91 43.75 57.71 C 42.11 56.15 40.89 54.19 39.12 52.77 C 36.65 51.41 33.68 51.92 31.03 52.34 L 30.56 52.68 C 29.92 53.94 29.29 55.20 28.68 56.47 L 28.09 57.66 C 27.66 58.90 27.30 60.15 27.01 61.43 C 27.43 55.04 29.28 48.46 33.92 43.81 C 33.93 44.63 33.96 46.26 33.98 47.07 C 36.99 48.25 40.25 48.30 43.24 46.99 C 43.01 44.55 42.65 42.12 42.11 39.73 M 60.27 52.26 C 60.82 52.76 60.82 52.76 60.27 52.26 M 61.36 57.27 C 60.64 58.56 60.77 60.28 61.30 61.61 C 62.57 61.09 63.77 56.83 61.36 57.27 M 51.22 61.33 C 50.76 63.02 54.38 64.03 54.77 62.35 C 53.91 61.50 52.40 60.88 51.22 61.33 M 55.38 64.15 C 55.71 64.48 55.71 64.48 55.38 64.15 Z" />
<path fill="#e77a53" opacity="1.00" d=" M 27.44 66.27 C 27.47 66.38 27.52 66.60 27.55 66.71 C 27.52 66.60 27.47 66.38 27.44 66.27 Z" />
</g>
</svg>
