<?xml version="1.0" encoding="UTF-8" ?>
<!DOCTYPE svg PUBLIC "-//W3C//DTD SVG 1.1//EN" "http://www.w3.org/Graphics/SVG/1.1/DTD/svg11.dtd">
<svg width="120pt" height="120pt" viewBox="0 0 120 120" version="1.1" xmlns="http://www.w3.org/2000/svg">
<g id="#30393ef4">
<path fill="#30393e" opacity="0.96" d=" M 52.76 41.71 C 53.61 39.66 54.42 37.59 55.32 35.56 C 56.31 38.23 57.77 40.72 60.39 42.06 C 60.91 42.06 61.94 42.05 62.46 42.05 C 65.41 43.85 67.60 46.42 68.99 49.58 C 68.99 50.63 68.99 51.68 68.98 52.73 C 72.47 56.75 76.55 60.31 79.26 64.97 C 79.82 64.67 80.93 64.06 81.49 63.76 C 80.70 64.93 79.94 66.13 79.21 67.35 L 78.91 66.79 C 78.74 66.49 78.41 65.89 78.25 65.59 C 76.12 62.22 73.38 59.30 70.86 56.23 C 70.40 56.79 69.49 57.92 69.03 58.48 C 69.06 57.64 69.10 55.96 69.13 55.11 C 68.71 53.72 68.32 52.31 67.95 50.90 C 67.49 49.77 67.02 48.64 66.56 47.51 C 66.41 47.17 66.12 46.48 65.98 46.13 C 62.72 43.20 57.39 43.02 55.35 38.79 C 55.02 39.24 54.37 40.14 54.04 40.59 C 54.04 41.19 54.03 42.39 54.03 42.99 C 53.44 43.01 52.27 43.06 51.69 43.08 C 51.19 43.29 50.21 43.71 49.71 43.92 L 48.31 44.02 C 49.75 43.18 51.24 42.42 52.76 41.71 Z" />
</g>
<g id="#f0f4f5ff">
<path fill="#f0f4f5" opacity="1.00" d=" M 54.04 40.59 C 54.37 40.14 55.02 39.24 55.35 38.79 C 57.39 43.02 62.72 43.20 65.98 46.13 C 66.12 46.48 66.41 47.17 66.56 47.51 C 65.10 49.53 63.41 51.38 61.39 52.83 C 60.52 51.55 59.58 50.32 58.61 49.11 C 58.34 50.69 58.10 52.28 57.89 53.87 C 56.33 54.10 54.77 54.34 53.22 54.59 C 52.96 54.18 52.44 53.37 52.18 52.96 C 51.45 53.40 49.97 54.28 49.23 54.71 C 48.64 53.17 48.32 51.55 48.63 49.90 C 48.14 49.55 47.14 48.86 46.65 48.52 C 47.01 49.14 47.74 50.39 48.11 51.01 C 47.74 51.01 46.99 51.01 46.62 51.01 C 45.73 51.92 44.86 52.85 43.99 53.78 C 44.11 52.45 44.24 51.11 44.38 49.78 C 45.42 48.36 46.47 46.96 47.55 45.58 C 48.13 44.85 48.86 44.30 49.71 43.92 C 50.21 43.71 51.19 43.29 51.69 43.08 C 52.27 43.06 53.44 43.01 54.03 42.99 C 54.03 42.39 54.04 41.19 54.04 40.59 M 60.20 48.20 C 60.84 48.84 60.84 48.84 60.20 48.20 Z" />
</g>
<g id="#434848f1">
<path fill="#434848" opacity="0.95" d=" M 42.92 54.53 C 42.65 50.88 44.20 47.30 47.55 45.58 C 46.47 46.96 45.42 48.36 44.38 49.78 C 44.24 51.11 44.11 52.45 43.99 53.78 C 44.86 52.85 45.73 51.92 46.62 51.01 C 46.99 51.01 47.74 51.01 48.11 51.01 C 47.74 50.39 47.01 49.14 46.65 48.52 C 47.14 48.86 48.14 49.55 48.63 49.90 C 48.32 51.55 48.64 53.17 49.23 54.71 C 49.97 54.28 51.45 53.40 52.18 52.96 C 52.44 53.37 52.96 54.18 53.22 54.59 C 54.77 54.34 56.33 54.10 57.89 53.87 C 58.10 52.28 58.34 50.69 58.61 49.11 C 59.58 50.32 60.52 51.55 61.39 52.83 C 60.99 53.14 60.20 53.75 59.80 54.05 C 60.49 54.07 61.87 54.09 62.55 54.10 C 63.36 54.90 64.18 55.70 64.99 56.49 C 64.98 58.07 64.98 59.66 64.91 61.24 C 64.68 61.55 64.22 62.15 63.99 62.46 L 64.04 61.63 C 64.08 60.24 64.11 58.86 64.13 57.47 C 63.27 56.58 62.41 55.69 61.55 54.79 C 58.76 54.87 55.91 54.89 53.24 55.81 C 52.75 55.87 51.77 55.98 51.29 56.04 C 49.06 54.95 46.74 54.09 44.34 53.50 C 44.21 53.87 43.95 54.60 43.83 54.96 C 43.59 55.60 43.11 56.87 42.87 57.50 L 42.70 57.98 C 42.85 59.27 43.10 60.54 43.37 61.80 L 42.26 62.08 C 41.80 60.63 41.33 59.19 40.91 57.73 C 41.59 56.67 42.26 55.60 42.92 54.53 Z" />
</g>
<g id="#2f2e28ff">
<path fill="#2f2e28" opacity="1.00" d=" M 60.20 48.20 C 60.84 48.84 60.84 48.84 60.20 48.20 Z" />
</g>
<g id="#e5e9eeff">
<path fill="#e5e9ee" opacity="1.00" d=" M 61.39 52.83 C 63.41 51.38 65.10 49.53 66.56 47.51 C 67.02 48.64 67.49 49.77 67.95 50.90 C 68.32 52.31 68.71 53.72 69.13 55.11 C 69.10 55.96 69.06 57.64 69.03 58.48 C 69.49 57.92 70.40 56.79 70.86 56.23 C 73.38 59.30 76.12 62.22 78.25 65.59 C 78.15 67.34 78.06 69.09 77.99 70.84 C 76.53 70.15 75.07 69.46 73.55 68.93 C 72.27 69.23 71.00 69.59 69.73 69.95 C 72.33 73.68 75.09 77.87 79.67 79.30 C 83.05 80.57 86.55 79.10 89.62 77.70 C 89.78 78.35 90.10 79.66 90.26 80.32 C 89.88 80.75 89.12 81.60 88.74 82.03 C 84.77 81.76 80.14 83.01 76.81 80.21 C 73.69 77.69 71.36 74.39 68.64 71.47 C 69.14 72.86 69.68 74.22 70.26 75.58 C 61.19 77.12 52.54 73.28 44.52 69.55 C 45.02 70.12 46.01 71.27 46.51 71.84 C 46.16 75.08 44.15 77.60 41.78 79.66 C 40.12 80.00 38.47 80.38 36.84 80.83 C 33.81 81.04 30.78 80.61 28.08 79.16 C 28.02 78.30 27.91 76.60 27.85 75.74 C 28.60 75.57 30.12 75.23 30.87 75.05 C 33.48 74.96 36.30 75.29 38.54 73.64 L 39.68 72.65 C 39.81 72.55 40.08 72.33 40.21 72.23 C 41.10 71.72 41.76 71.01 42.19 70.09 C 42.82 69.26 43.54 68.53 44.37 67.90 L 44.70 67.62 C 45.07 66.31 45.34 64.98 45.69 63.67 C 46.16 64.01 47.11 64.68 47.58 65.02 C 48.11 65.46 49.17 66.33 49.70 66.77 C 51.98 67.56 54.29 68.63 56.76 68.51 C 62.52 67.64 68.34 64.44 70.43 58.70 L 68.67 59.22 L 68.22 59.38 C 67.09 59.95 65.99 60.58 64.91 61.24 C 64.98 59.66 64.98 58.07 64.99 56.49 C 64.18 55.70 63.36 54.90 62.55 54.10 C 61.87 54.09 60.49 54.07 59.80 54.05 C 60.20 53.75 60.99 53.14 61.39 52.83 Z" />
<path fill="#e5e9ee" opacity="1.00" d=" M 91.98 77.23 C 93.13 78.05 93.19 79.03 92.15 80.18 L 91.39 80.28 C 91.15 79.97 90.67 79.34 90.43 79.03 C 90.81 78.58 91.59 77.68 91.98 77.23 Z" />
</g>
<g id="#f7ebcdff">
<path fill="#f7ebcd" opacity="1.00" d=" M 44.34 53.50 C 46.74 54.09 49.06 54.95 51.29 56.04 C 51.77 55.98 52.75 55.87 53.24 55.81 C 55.91 54.89 58.76 54.87 61.55 54.79 C 62.41 55.69 63.27 56.58 64.13 57.47 C 64.11 58.86 64.08 60.24 64.04 61.63 C 62.76 62.14 61.47 62.63 60.19 63.12 C 60.08 60.55 59.99 57.98 59.90 55.42 C 58.78 56.75 57.67 58.09 56.60 59.46 C 53.43 57.76 49.83 57.66 46.44 58.67 C 45.56 57.44 44.68 56.21 43.83 54.96 C 43.95 54.60 44.21 53.87 44.34 53.50 Z" />
</g>
<g id="#615d5cff">
<path fill="#615d5c" opacity="1.00" d=" M 42.87 57.50 C 43.11 56.87 43.59 55.60 43.83 54.96 C 44.68 56.21 45.56 57.44 46.44 58.67 C 49.83 57.66 53.43 57.76 56.60 59.46 C 57.67 58.09 58.78 56.75 59.90 55.42 C 59.99 57.98 60.08 60.55 60.19 63.12 C 61.47 62.63 62.76 62.14 64.04 61.63 L 63.99 62.46 C 63.72 62.82 63.18 63.56 62.91 63.92 C 57.68 63.22 52.70 66.56 47.58 65.02 C 47.11 64.68 46.16 64.01 45.69 63.67 C 45.47 63.52 45.04 63.20 44.82 63.04 C 44.46 62.73 43.73 62.11 43.37 61.80 C 43.10 60.54 42.85 59.27 42.70 57.98 C 43.22 59.43 44.25 60.73 45.77 61.18 C 45.66 60.07 45.38 59.01 44.94 58.00 C 44.42 57.88 43.39 57.63 42.87 57.50 M 48.18 59.02 C 47.73 60.03 47.33 61.06 46.96 62.10 C 48.05 63.62 49.96 64.06 51.56 64.86 C 53.25 64.15 55.26 63.66 56.21 61.92 C 55.09 60.91 53.85 60.07 52.64 59.19 C 52.36 59.35 51.79 59.68 51.51 59.84 C 50.40 59.56 49.29 59.29 48.18 59.02 M 57.63 61.84 C 58.96 62.59 59.82 60.28 58.89 59.46 C 57.63 58.77 56.71 61.04 57.63 61.84 Z" />
</g>
<g id="#c7c7c9ff">
<path fill="#c7c7c9" opacity="1.00" d=" M 42.87 57.50 C 43.39 57.63 44.42 57.88 44.94 58.00 C 45.38 59.01 45.66 60.07 45.77 61.18 C 44.25 60.73 43.22 59.43 42.70 57.98 L 42.87 57.50 Z" />
</g>
<g id="#f1d8edff">
<path fill="#f1d8ed" opacity="1.00" d=" M 48.18 59.02 C 49.29 59.29 50.40 59.56 51.51 59.84 C 51.79 59.68 52.36 59.35 52.64 59.19 C 53.85 60.07 55.09 60.91 56.21 61.92 C 55.26 63.66 53.25 64.15 51.56 64.86 C 49.96 64.06 48.05 63.62 46.96 62.10 C 47.33 61.06 47.73 60.03 48.18 59.02 Z" />
</g>
<g id="#d6d6d9ff">
<path fill="#d6d6d9" opacity="1.00" d=" M 57.63 61.84 C 56.71 61.04 57.63 58.77 58.89 59.46 C 59.82 60.28 58.96 62.59 57.63 61.84 Z" />
</g>
<g id="#c3c7d2ff">
<path fill="#c3c7d2" opacity="1.00" d=" M 64.91 61.24 C 65.99 60.58 67.09 59.95 68.22 59.38 L 68.36 59.81 L 68.81 59.67 L 68.67 59.22 L 70.43 58.70 C 68.34 64.44 62.52 67.64 56.76 68.51 C 54.29 68.63 51.98 67.56 49.70 66.77 C 49.17 66.33 48.11 65.46 47.58 65.02 C 52.70 66.56 57.68 63.22 62.91 63.92 C 63.18 63.56 63.72 62.82 63.99 62.46 C 64.22 62.15 64.68 61.55 64.91 61.24 Z" />
</g>
<g id="#75787eff">
<path fill="#75787e" opacity="1.00" d=" M 68.22 59.38 L 68.67 59.22 L 68.81 59.67 L 68.36 59.81 L 68.22 59.38 Z" />
</g>
<g id="#5b5f64ff">
<path fill="#5b5f64" opacity="1.00" d=" M 82.43 61.43 C 84.57 61.29 86.71 61.19 88.85 61.11 C 91.91 65.35 93.04 70.76 91.30 75.78 C 91.47 76.14 91.81 76.87 91.98 77.23 C 91.59 77.68 90.81 78.58 90.43 79.03 C 90.67 79.34 91.15 79.97 91.39 80.28 C 91.63 80.55 92.11 81.09 92.35 81.35 C 91.62 81.75 90.15 82.53 89.42 82.93 C 85.94 82.95 82.44 83.22 78.98 82.85 C 76.60 82.12 74.89 80.20 73.07 78.63 C 73.03 78.99 72.94 79.72 72.90 80.09 C 64.37 81.44 53.27 82.88 47.55 74.75 C 45.67 76.82 43.68 78.80 41.69 80.77 C 40.18 81.03 38.67 81.27 37.24 81.84 C 33.60 82.38 29.90 81.98 26.86 79.77 C 27.18 78.42 27.48 77.07 27.85 75.74 C 27.91 76.60 28.02 78.30 28.08 79.16 C 30.78 80.61 33.81 81.04 36.84 80.83 C 38.47 80.38 40.12 80.00 41.78 79.66 C 44.15 77.60 46.16 75.08 46.51 71.84 C 49.46 75.25 52.79 78.88 57.48 79.63 C 62.56 80.31 68.04 80.65 72.77 78.31 C 71.91 77.41 71.08 76.50 70.26 75.58 C 69.68 74.22 69.14 72.86 68.64 71.47 C 71.36 74.39 73.69 77.69 76.81 80.21 C 80.14 83.01 84.77 81.76 88.74 82.03 C 89.12 81.60 89.88 80.75 90.26 80.32 C 90.10 79.66 89.78 78.35 89.62 77.70 L 89.21 75.78 C 88.56 76.20 87.26 77.03 86.61 77.44 C 87.03 76.83 87.89 75.61 88.32 75.00 C 85.75 75.00 83.18 75.00 80.61 74.98 C 78.16 73.08 75.73 71.14 73.55 68.93 C 75.07 69.46 76.53 70.15 77.99 70.84 C 78.06 69.09 78.15 67.34 78.25 65.59 C 78.41 65.89 78.74 66.49 78.91 66.79 C 79.01 68.45 79.04 70.12 79.08 71.79 C 79.84 72.47 80.60 73.16 81.37 73.85 C 84.54 73.96 87.72 74.17 90.84 74.76 C 90.72 73.60 90.60 72.44 90.48 71.28 C 90.72 70.04 90.95 68.80 91.17 67.56 C 90.76 67.12 89.93 66.23 89.52 65.79 C 89.15 62.49 86.20 61.81 83.39 61.60 L 82.43 61.43 Z" />
</g>
<g id="#e6eaeeff">
<path fill="#e6eaee" opacity="1.00" d=" M 83.39 61.60 C 86.20 61.81 89.15 62.49 89.52 65.79 C 89.93 66.23 90.76 67.12 91.17 67.56 C 90.95 68.80 90.72 70.04 90.48 71.28 C 90.60 72.44 90.72 73.60 90.84 74.76 C 87.72 74.17 84.54 73.96 81.37 73.85 C 80.60 73.16 79.84 72.47 79.08 71.79 C 79.04 70.12 79.01 68.45 78.91 66.79 L 79.21 67.35 C 79.94 66.13 80.70 64.93 81.49 63.76 C 82.10 63.01 82.73 62.30 83.39 61.60 Z" />
</g>
<g id="#06131bd5">
<path fill="#06131b" opacity="0.84" d=" M 44.82 63.04 C 45.04 63.20 45.47 63.52 45.69 63.67 C 45.34 64.98 45.07 66.31 44.70 67.62 L 44.37 67.90 C 43.09 66.61 43.52 64.16 44.82 63.04 Z" />
</g>
<g id="#f3f6f7ff">
<path fill="#f3f6f7" opacity="1.00" d=" M 69.73 69.95 C 71.00 69.59 72.27 69.23 73.55 68.93 C 75.73 71.14 78.16 73.08 80.61 74.98 C 83.18 75.00 85.75 75.00 88.32 75.00 C 87.89 75.61 87.03 76.83 86.61 77.44 C 87.26 77.03 88.56 76.20 89.21 75.78 L 89.62 77.70 C 86.55 79.10 83.05 80.57 79.67 79.30 C 75.09 77.87 72.33 73.68 69.73 69.95 Z" />
</g>
<g id="#091217aa">
<path fill="#091217" opacity="0.67" d=" M 40.21 72.23 C 39.74 70.45 40.40 69.74 42.19 70.09 C 41.76 71.01 41.10 71.72 40.21 72.23 Z" />
</g>
<g id="#bec3cfff">
<path fill="#bec3cf" opacity="1.00" d=" M 44.52 69.55 C 52.54 73.28 61.19 77.12 70.26 75.58 C 71.08 76.50 71.91 77.41 72.77 78.31 C 68.04 80.65 62.56 80.31 57.48 79.63 C 52.79 78.88 49.46 75.25 46.51 71.84 C 46.01 71.27 45.02 70.12 44.52 69.55 Z" />
</g>
<g id="#07141de6">
<path fill="#07141d" opacity="0.90" d=" M 36.30 73.82 C 37.15 73.53 38.84 72.94 39.68 72.65 L 38.54 73.64 C 36.30 75.29 33.48 74.96 30.87 75.05 L 29.22 74.30 C 31.57 73.98 33.94 73.94 36.30 73.82 Z" />
</g>
</svg>
