<?xml version="1.0" encoding="UTF-8" ?>
<!DOCTYPE svg PUBLIC "-//W3C//DTD SVG 1.1//EN" "http://www.w3.org/Graphics/SVG/1.1/DTD/svg11.dtd">
<svg width="120pt" height="120pt" viewBox="0 0 120 120" version="1.1" xmlns="http://www.w3.org/2000/svg">
<g id="#ede7f6ff">
<path fill="#ede7f6" opacity="1.00" d=" M 83.07 36.45 C 83.74 35.55 84.47 34.68 85.23 33.84 C 85.26 34.31 85.30 35.24 85.33 35.70 L 86.74 35.47 C 86.70 36.84 86.27 38.09 84.95 38.71 C 81.53 41.15 79.20 45.38 79.71 49.65 C 77.52 49.65 75.30 49.64 73.16 49.12 C 69.95 46.50 66.02 44.71 63.44 41.38 C 63.14 41.51 62.55 41.76 62.26 41.89 C 58.17 40.14 53.69 39.85 49.46 38.59 C 46.01 39.78 42.29 39.93 38.87 41.26 C 38.56 41.26 37.95 41.26 37.65 41.26 C 38.09 41.03 38.98 40.58 39.43 40.35 C 42.60 38.62 46.02 37.42 49.55 36.67 C 58.93 34.24 68.37 38.13 76.37 42.82 C 77.36 41.55 78.32 40.25 79.32 38.98 C 79.85 38.31 80.47 37.71 81.15 37.18 C 81.63 37.00 82.59 36.63 83.07 36.45 M 67.28 39.23 C 67.88 39.71 67.88 39.71 67.28 39.23 M 65.24 40.24 C 65.80 40.76 65.80 40.76 65.24 40.24 Z" />
<path fill="#ede7f6" opacity="1.00" d=" M 39.45 36.16 C 40.52 35.47 42.23 37.06 41.48 38.17 C 40.37 39.18 38.97 37.20 39.45 36.16 Z" />
<path fill="#ede7f6" opacity="1.00" d=" M 59.97 50.16 C 61.35 48.66 63.13 47.68 64.95 46.81 C 66.85 47.61 68.86 48.37 69.88 50.32 C 72.42 53.73 69.02 58.66 64.98 58.02 C 62.72 58.11 61.16 56.28 60.02 54.59 C 60.02 53.11 59.99 51.64 59.97 50.16 M 64.20 52.12 C 64.51 55.25 67.40 50.61 64.20 52.12 Z" />
<path fill="#ede7f6" opacity="1.00" d=" M 44.25 48.10 C 44.94 48.03 46.31 47.89 47.00 47.81 C 46.79 50.96 47.94 54.93 45.17 57.28 C 43.79 58.69 41.74 56.67 42.04 55.08 C 41.40 52.44 43.69 50.52 44.25 48.10 Z" />
<path fill="#ede7f6" opacity="1.00" d=" M 75.50 57.40 C 75.72 59.61 75.89 61.82 75.99 64.04 L 75.71 64.83 C 74.03 64.78 72.36 64.71 70.68 64.66 C 72.04 64.09 74.34 64.66 75.08 63.02 C 75.60 61.19 75.41 59.27 75.50 57.40 Z" />
<path fill="#ede7f6" opacity="1.00" d=" M 48.51 58.68 C 50.79 57.89 53.21 57.98 55.60 58.04 C 56.40 58.91 57.21 59.78 58.02 60.64 C 57.30 61.21 55.86 62.34 55.14 62.90 C 55.97 63.59 56.80 64.28 57.62 64.98 C 56.47 64.93 55.38 64.61 54.37 64.07 C 53.01 65.11 51.64 66.35 49.83 66.48 C 46.34 66.84 41.77 67.21 39.71 63.69 C 40.61 62.83 41.49 61.96 42.37 61.07 C 44.18 59.76 46.33 59.10 48.51 58.68 Z" />
<path fill="#ede7f6" opacity="1.00" d=" M 73.70 66.27 L 74.35 66.45 C 74.89 67.00 75.98 68.10 76.53 68.65 C 76.61 69.50 76.68 70.35 76.73 71.21 C 76.75 71.64 76.79 72.50 76.81 72.93 C 76.14 72.89 74.80 72.80 74.14 72.75 C 73.87 71.85 73.63 70.94 73.40 70.03 C 73.46 68.77 73.58 67.52 73.70 66.27 Z" />
<path fill="#ede7f6" opacity="1.00" d=" M 74.09 83.29 C 75.05 82.32 77.31 83.62 76.75 84.90 C 75.73 85.80 73.11 84.82 74.09 83.29 Z" />
</g>
<g id="#494162ff">
<path fill="#494162" opacity="1.00" d=" M 38.10 36.80 C 38.43 35.13 40.23 35.16 41.57 35.05 C 43.22 38.69 46.89 36.20 49.64 35.67 C 54.90 34.59 60.40 34.97 65.55 36.41 C 69.29 37.56 72.80 39.33 76.14 41.36 C 77.11 40.45 78.10 39.55 79.32 38.98 C 78.32 40.25 77.36 41.55 76.37 42.82 C 68.37 38.13 58.93 34.24 49.55 36.67 C 46.02 37.42 42.60 38.62 39.43 40.35 C 38.96 39.18 38.52 37.99 38.10 36.80 M 39.45 36.16 C 38.97 37.20 40.37 39.18 41.48 38.17 C 42.23 37.06 40.52 35.47 39.45 36.16 Z" />
<path fill="#494162" opacity="1.00" d=" M 81.31 36.31 C 81.75 36.35 82.63 36.42 83.07 36.45 C 82.59 36.63 81.63 37.00 81.15 37.18 L 81.31 36.31 Z" />
<path fill="#494162" opacity="1.00" d=" M 49.46 38.59 C 53.69 39.85 58.17 40.14 62.26 41.89 C 62.55 41.76 63.14 41.51 63.44 41.38 C 66.02 44.71 69.95 46.50 73.16 49.12 C 75.97 50.15 78.99 50.33 81.92 50.86 C 81.97 51.59 82.08 53.06 82.13 53.80 C 82.72 54.72 84.50 55.39 83.95 56.69 C 82.14 57.71 80.60 59.07 79.69 60.98 C 79.07 60.97 77.83 60.94 77.21 60.93 C 77.44 62.33 77.03 63.37 75.99 64.04 C 75.89 61.82 75.72 59.61 75.50 57.40 C 75.41 59.27 75.60 61.19 75.08 63.02 C 74.34 64.66 72.04 64.09 70.68 64.66 C 72.36 64.71 74.03 64.78 75.71 64.83 C 75.92 65.79 76.32 67.70 76.53 68.65 C 75.98 68.10 74.89 67.00 74.35 66.45 L 73.70 66.27 C 70.10 65.58 66.67 63.85 62.97 63.84 C 59.86 64.80 56.76 65.76 53.59 66.47 C 53.35 66.78 52.86 67.40 52.62 67.71 C 56.35 68.52 60.21 69.41 63.99 68.35 C 67.26 67.46 70.53 68.49 73.40 70.03 C 73.63 70.94 73.87 71.85 74.14 72.75 C 74.80 72.80 76.14 72.89 76.81 72.93 C 76.79 72.50 76.75 71.64 76.73 71.21 C 77.02 70.86 77.61 70.16 77.90 69.81 C 77.94 71.20 77.97 72.60 77.99 74.00 C 74.93 74.50 71.48 73.63 70.82 70.15 C 67.04 67.42 62.92 70.08 58.91 69.94 C 56.32 68.84 53.28 69.36 50.89 67.79 C 50.59 67.99 49.98 68.41 49.68 68.62 C 47.49 68.18 45.27 67.95 43.04 67.85 C 42.61 69.29 42.20 70.74 41.86 72.21 C 43.72 72.77 45.51 71.70 47.21 71.10 C 45.65 72.91 42.91 75.13 40.88 72.69 C 41.51 70.93 41.82 69.08 42.33 67.28 C 40.81 67.05 39.66 66.13 38.67 65.02 C 36.38 64.97 34.08 64.95 31.79 64.88 C 32.21 64.14 32.22 62.77 33.26 62.58 C 36.45 63.00 39.01 59.94 42.37 61.07 C 41.49 61.96 40.61 62.83 39.71 63.69 C 41.77 67.21 46.34 66.84 49.83 66.48 C 51.64 66.35 53.01 65.11 54.37 64.07 C 55.38 64.61 56.47 64.93 57.62 64.98 C 56.80 64.28 55.97 63.59 55.14 62.90 C 55.86 62.34 57.30 61.21 58.02 60.64 C 57.21 59.78 56.40 58.91 55.60 58.04 C 53.21 57.98 50.79 57.89 48.51 58.68 C 46.33 59.10 44.18 59.76 42.37 61.07 C 41.73 59.56 41.12 58.04 40.51 56.52 C 38.98 57.61 37.45 58.71 35.99 59.90 C 36.16 57.07 39.10 56.10 41.15 54.86 C 41.15 54.14 41.17 52.71 41.17 51.99 C 38.06 52.10 35.22 50.48 32.09 50.86 C 32.13 49.40 32.16 47.95 32.21 46.50 C 33.18 45.36 34.06 44.16 34.89 42.91 C 35.15 43.58 35.66 44.92 35.92 45.59 C 35.06 46.92 34.18 48.23 33.29 49.54 C 35.83 49.97 38.35 50.54 40.91 50.87 C 44.24 46.06 48.88 41.80 55.02 41.34 C 48.94 40.88 42.62 41.00 37.19 44.14 C 36.89 43.42 36.28 41.97 35.98 41.25 C 36.40 41.25 37.23 41.26 37.65 41.26 C 37.95 41.26 38.56 41.26 38.87 41.26 C 42.29 39.93 46.01 39.78 49.46 38.59 M 59.97 50.16 C 59.99 51.64 60.02 53.11 60.02 54.59 C 61.16 56.28 62.72 58.11 64.98 58.02 C 69.02 58.66 72.42 53.73 69.88 50.32 C 68.86 48.37 66.85 47.61 64.95 46.81 C 63.13 47.68 61.35 48.66 59.97 50.16 M 44.25 48.10 C 43.69 50.52 41.40 52.44 42.04 55.08 C 41.74 56.67 43.79 58.69 45.17 57.28 C 47.94 54.93 46.79 50.96 47.00 47.81 C 46.31 47.89 44.94 48.03 44.25 48.10 M 78.27 55.22 C 76.54 55.80 76.22 58.49 77.80 59.46 C 79.11 60.47 79.04 58.76 78.62 58.03 C 78.37 57.18 79.65 55.44 78.27 55.22 M 73.32 60.25 C 71.79 60.07 69.82 62.55 72.05 63.16 C 73.79 63.92 75.27 60.71 73.32 60.25 M 62.38 62.89 C 63.66 63.74 64.45 63.53 64.72 62.26 C 63.44 61.43 62.66 61.64 62.38 62.89 M 66.27 62.14 C 66.41 65.39 69.34 60.66 66.27 62.14 Z" />
<path fill="#494162" opacity="1.00" d=" M 81.31 49.26 C 81.35 49.36 81.41 49.57 81.45 49.67 C 81.41 49.57 81.35 49.36 81.31 49.26 Z" />
<path fill="#494162" opacity="1.00" d=" M 64.20 52.12 C 67.40 50.61 64.51 55.25 64.20 52.12 Z" />
</g>
<g id="#695f89ff">
<path fill="#695f89" opacity="1.00" d=" M 67.28 39.23 C 67.88 39.71 67.88 39.71 67.28 39.23 Z" />
<path fill="#695f89" opacity="1.00" d=" M 79.71 49.65 C 79.20 45.38 81.53 41.15 84.95 38.71 C 84.81 42.71 78.97 44.92 81.31 49.26 C 81.35 49.36 81.41 49.57 81.45 49.67 L 81.92 50.86 C 78.99 50.33 75.97 50.15 73.16 49.12 C 75.30 49.64 77.52 49.65 79.71 49.65 Z" />
<path fill="#695f89" opacity="1.00" d=" M 65.24 40.24 C 65.80 40.76 65.80 40.76 65.24 40.24 Z" />
<path fill="#695f89" opacity="1.00" d=" M 37.19 44.14 C 42.62 41.00 48.94 40.88 55.02 41.34 C 48.88 41.80 44.24 46.06 40.91 50.87 C 38.35 50.54 35.83 49.97 33.29 49.54 C 34.18 48.23 35.06 46.92 35.92 45.59 C 35.66 44.92 35.15 43.58 34.89 42.91 C 35.16 42.50 35.71 41.67 35.98 41.25 C 36.28 41.97 36.89 43.42 37.19 44.14 Z" />
<path fill="#695f89" opacity="1.00" d=" M 78.27 55.22 C 79.65 55.44 78.37 57.18 78.62 58.03 C 79.04 58.76 79.11 60.47 77.80 59.46 C 76.22 58.49 76.54 55.80 78.27 55.22 Z" />
<path fill="#695f89" opacity="1.00" d=" M 35.99 59.90 C 37.45 58.71 38.98 57.61 40.51 56.52 C 41.12 58.04 41.73 59.56 42.37 61.07 C 39.01 59.94 36.45 63.00 33.26 62.58 C 34.13 61.64 35.04 60.75 35.99 59.90 Z" />
<path fill="#695f89" opacity="1.00" d=" M 73.32 60.25 C 75.27 60.71 73.79 63.92 72.05 63.16 C 69.82 62.55 71.79 60.07 73.32 60.25 Z" />
<path fill="#695f89" opacity="1.00" d=" M 62.38 62.89 C 62.66 61.64 63.44 61.43 64.72 62.26 C 64.45 63.53 63.66 63.74 62.38 62.89 Z" />
<path fill="#695f89" opacity="1.00" d=" M 66.27 62.14 C 69.34 60.66 66.41 65.39 66.27 62.14 Z" />
<path fill="#695f89" opacity="1.00" d=" M 53.59 66.47 C 56.76 65.76 59.86 64.80 62.97 63.84 C 66.67 63.85 70.10 65.58 73.70 66.27 C 73.58 67.52 73.46 68.77 73.40 70.03 C 70.53 68.49 67.26 67.46 63.99 68.35 C 60.21 69.41 56.35 68.52 52.62 67.71 C 52.86 67.40 53.35 66.78 53.59 66.47 Z" />
<path fill="#695f89" opacity="1.00" d=" M 43.04 67.85 C 45.27 67.95 47.49 68.18 49.68 68.62 C 48.88 69.48 48.06 70.30 47.21 71.10 C 45.51 71.70 43.72 72.77 41.86 72.21 C 42.20 70.74 42.61 69.29 43.04 67.85 Z" />
</g>
</svg>
