<?xml version="1.0" encoding="UTF-8" ?>
<!DOCTYPE svg PUBLIC "-//W3C//DTD SVG 1.1//EN" "http://www.w3.org/Graphics/SVG/1.1/DTD/svg11.dtd">
<svg width="120pt" height="120pt" viewBox="0 0 120 120" version="1.1" xmlns="http://www.w3.org/2000/svg">
<g id="#483b41fd">
<path fill="#483b41" opacity="1.00" d=" M 63.01 29.25 C 64.76 28.54 66.58 28.00 68.50 28.11 C 75.15 30.61 78.02 37.99 79.28 44.47 C 80.93 49.94 79.50 55.88 80.07 61.53 C 82.10 64.55 83.23 68.02 84.32 71.45 C 85.76 76.61 84.75 82.14 84.90 87.45 C 84.60 88.09 84.00 89.37 83.70 90.02 C 82.65 89.98 81.59 89.94 80.54 89.90 C 77.89 88.30 75.93 85.99 74.04 83.59 C 74.03 84.44 74.00 86.15 73.99 87.00 L 72.97 87.01 C 73.34 84.81 73.82 82.63 74.43 80.48 L 75.15 80.06 C 75.09 80.62 74.96 81.75 74.90 82.31 C 77.23 81.31 79.44 80.05 81.64 78.78 C 80.07 80.69 78.05 82.11 75.90 83.29 C 76.71 84.46 77.30 85.85 78.41 86.79 C 80.11 87.91 82.16 87.04 84.02 86.96 C 83.92 82.54 84.26 78.12 83.81 73.72 L 83.54 72.74 C 82.56 67.63 78.37 63.42 79.04 57.99 C 79.81 48.40 78.21 37.45 70.78 30.64 C 68.97 29.89 67.11 29.27 65.23 28.71 L 65.30 29.70 C 64.77 29.87 63.69 30.20 63.16 30.36 L 63.01 29.25 M 81.28 88.16 C 81.49 91.40 84.37 86.64 81.28 88.16 Z" />
</g>
<g id="#f8d7e0ff">
<path fill="#f8d7e0" opacity="1.00" d=" M 65.23 28.71 C 67.11 29.27 68.97 29.89 70.78 30.64 C 69.88 31.84 69.00 33.05 68.04 34.20 C 66.65 34.47 65.27 34.73 63.89 35.03 C 65.31 33.56 65.83 31.68 65.30 29.70 L 65.23 28.71 Z" />
</g>
<g id="#fff6feff">
<path fill="#fff6fe" opacity="1.00" d=" M 63.16 30.36 C 63.69 30.20 64.77 29.87 65.30 29.70 C 65.83 31.68 65.31 33.56 63.89 35.03 C 63.71 35.22 63.34 35.61 63.15 35.81 C 62.44 36.63 61.66 37.37 60.81 38.03 C 60.57 38.50 60.10 39.43 59.86 39.90 C 59.52 40.40 58.84 41.42 58.51 41.93 C 58.32 40.51 58.12 39.09 57.97 37.66 C 59.09 35.79 60.09 33.85 61.12 31.93 C 61.69 31.24 62.36 30.72 63.16 30.36 Z" />
</g>
<g id="#e8b0beff">
<path fill="#e8b0be" opacity="1.00" d=" M 70.78 30.64 C 78.21 37.45 79.81 48.40 79.04 57.99 C 78.37 63.42 82.56 67.63 83.54 72.74 C 81.50 75.96 78.66 78.56 75.15 80.06 L 74.43 80.48 C 73.82 82.63 73.34 84.81 72.97 87.01 L 72.08 86.95 C 72.13 81.62 71.73 76.25 72.76 70.98 C 73.55 66.46 72.74 61.12 68.97 58.10 C 65.79 56.05 61.75 55.71 58.08 56.20 C 54.57 56.73 52.40 59.84 49.90 62.02 C 48.38 62.60 46.86 63.14 45.33 63.68 C 46.29 62.40 47.27 61.15 48.26 59.89 C 48.69 59.34 49.15 58.83 49.66 58.36 C 51.62 57.27 53.56 56.15 55.58 55.18 C 56.04 55.06 56.95 54.83 57.41 54.71 C 64.59 52.34 72.19 55.40 77.76 60.00 C 75.56 56.75 72.19 54.72 68.40 53.87 C 69.54 48.69 74.59 44.39 73.23 38.75 C 72.76 36.13 70.33 34.93 68.04 34.20 C 69.00 33.05 69.88 31.84 70.78 30.64 Z" />
</g>
<g id="#101d25cc">
<path fill="#101d25" opacity="0.80" d=" M 58.56 34.46 C 59.17 33.38 59.86 32.32 61.12 31.93 C 60.09 33.85 59.09 35.79 57.97 37.66 C 58.12 39.09 58.32 40.51 58.51 41.93 C 57.79 42.16 56.92 42.23 55.88 42.13 C 57.22 39.73 57.06 36.81 58.56 34.46 Z" />
</g>
<g id="#c28f98ff">
<path fill="#c28f98" opacity="1.00" d=" M 63.89 35.03 C 65.27 34.73 66.65 34.47 68.04 34.20 C 70.33 34.93 72.76 36.13 73.23 38.75 C 74.59 44.39 69.54 48.69 68.40 53.87 L 68.06 53.74 C 67.54 47.60 69.36 40.87 65.99 35.28 L 64.82 35.49 C 64.40 35.57 63.57 35.73 63.15 35.81 C 63.34 35.61 63.71 35.22 63.89 35.03 Z" />
</g>
<g id="#282a32ed">
<path fill="#282a32" opacity="0.93" d=" M 64.82 35.49 L 65.99 35.28 C 69.36 40.87 67.54 47.60 68.06 53.74 L 68.40 53.87 C 72.19 54.72 75.56 56.75 77.76 60.00 C 72.19 55.40 64.59 52.34 57.41 54.71 C 56.95 54.83 56.04 55.06 55.58 55.18 C 53.56 56.15 51.62 57.27 49.66 58.36 C 51.08 55.57 54.36 54.88 57.01 53.77 C 60.19 52.50 63.67 53.08 67.00 53.01 C 66.65 48.52 67.77 43.80 66.35 39.47 C 65.83 38.15 65.29 36.83 64.82 35.49 Z" />
</g>
<g id="#61585cff">
<path fill="#61585c" opacity="1.00" d=" M 59.86 39.90 C 60.10 39.43 60.57 38.50 60.81 38.03 L 61.24 38.87 L 60.75 39.82 L 59.86 39.90 Z" />
</g>
<g id="#f9bdccff">
<path fill="#f9bdcc" opacity="1.00" d=" M 49.90 62.02 C 52.40 59.84 54.57 56.73 58.08 56.20 C 61.75 55.71 65.79 56.05 68.97 58.10 C 72.74 61.12 73.55 66.46 72.76 70.98 C 71.73 76.25 72.13 81.62 72.08 86.95 C 72.07 87.63 72.05 88.99 72.04 89.67 C 70.49 89.22 68.89 89.16 67.29 89.32 C 65.79 88.14 64.22 87.06 62.55 86.15 C 64.70 84.29 66.64 82.19 68.41 79.95 C 68.07 78.23 67.74 76.50 67.25 74.81 C 66.92 73.90 66.57 73.00 66.19 72.12 C 66.62 69.57 67.04 67.02 67.09 64.43 C 66.24 63.63 65.40 62.83 64.56 62.02 C 63.49 62.01 62.41 62.00 61.34 61.99 C 60.94 62.47 60.13 63.44 59.73 63.93 C 56.62 62.60 53.33 61.55 49.90 62.02 Z" />
</g>
<g id="#614d55f7">
<path fill="#614d55" opacity="0.97" d=" M 42.36 65.37 C 44.19 63.41 46.02 61.40 48.26 59.89 C 47.27 61.15 46.29 62.40 45.33 63.68 C 46.86 63.14 48.38 62.60 49.90 62.02 C 53.33 61.55 56.62 62.60 59.73 63.93 C 60.13 63.44 60.94 62.47 61.34 61.99 C 62.41 62.00 63.49 62.01 64.56 62.02 C 65.40 62.83 66.24 63.63 67.09 64.43 C 67.04 67.02 66.62 69.57 66.19 72.12 C 65.13 71.72 64.05 71.39 62.95 71.11 C 60.72 70.61 60.08 68.54 59.69 66.54 C 60.91 67.75 61.35 69.73 62.94 70.53 C 63.68 70.34 65.17 69.95 65.92 69.76 C 65.94 68.25 65.97 66.75 66.01 65.24 C 64.74 64.44 63.70 62.73 62.00 62.97 C 60.09 63.75 59.18 65.79 57.96 67.32 C 57.96 66.54 57.96 64.98 57.96 64.20 C 55.24 63.51 52.40 62.63 49.58 63.30 C 46.93 64.06 44.56 65.53 42.00 66.51 C 41.14 65.43 40.40 64.27 39.66 63.12 C 38.24 63.14 36.82 63.16 35.40 63.18 C 36.77 61.61 39.05 62.33 40.87 62.04 C 41.37 63.15 41.86 64.26 42.36 65.37 Z" />
</g>
<g id="#fbbfcdff">
<path fill="#fbbfcd" opacity="1.00" d=" M 35.40 63.18 C 36.82 63.16 38.24 63.14 39.66 63.12 C 40.40 64.27 41.14 65.43 42.00 66.51 C 44.56 65.53 46.93 64.06 49.58 63.30 C 52.40 62.63 55.24 63.51 57.96 64.20 C 57.96 64.98 57.96 66.54 57.96 67.32 C 59.18 65.79 60.09 63.75 62.00 62.97 C 63.70 62.73 64.74 64.44 66.01 65.24 C 65.97 66.75 65.94 68.25 65.92 69.76 C 65.17 69.95 63.68 70.34 62.94 70.53 C 61.35 69.73 60.91 67.75 59.69 66.54 C 60.08 68.54 60.72 70.61 62.95 71.11 C 62.37 72.74 61.67 74.33 60.76 75.81 C 60.78 75.15 60.84 73.83 60.86 73.17 L 60.35 72.88 C 59.45 72.16 58.54 71.43 57.65 70.69 L 57.46 70.54 L 57.20 70.47 C 56.69 70.34 55.67 70.09 55.16 69.97 C 53.63 69.24 51.94 70.44 51.75 72.03 L 51.44 72.94 C 51.36 73.16 51.20 73.62 51.12 73.85 C 48.69 72.82 46.06 72.69 43.56 73.56 C 43.30 72.80 42.78 71.30 42.52 70.54 L 42.43 70.26 L 42.42 70.26 C 41.19 70.61 39.99 71.05 38.85 71.65 C 39.64 70.30 40.10 68.80 40.30 67.26 C 39.56 68.36 38.82 69.47 38.11 70.58 C 37.09 69.57 36.08 68.57 35.05 67.58 C 35.13 66.46 35.22 65.34 35.31 64.22 C 35.34 63.96 35.38 63.44 35.40 63.18 M 36.40 66.39 C 36.86 66.81 36.86 66.81 36.40 66.39 M 38.39 66.34 C 38.86 66.80 38.86 66.80 38.39 66.34 M 62.17 66.12 C 61.92 67.48 62.49 68.00 63.90 67.67 C 64.15 66.30 63.58 65.79 62.17 66.12 Z" />
</g>
<g id="#262931f3">
<path fill="#262931" opacity="0.95" d=" M 34.00 63.91 L 35.31 64.22 C 35.22 65.34 35.13 66.46 35.05 67.58 C 36.08 68.57 37.09 69.57 38.11 70.58 C 38.82 69.47 39.56 68.36 40.30 67.26 C 40.10 68.80 39.64 70.30 38.85 71.65 C 38.65 71.99 38.24 72.68 38.04 73.03 C 38.54 74.24 39.10 75.43 39.66 76.62 C 38.77 77.56 37.91 78.55 37.04 79.52 C 37.08 80.66 37.13 81.80 37.18 82.94 L 37.20 83.53 C 37.18 84.99 37.15 86.46 37.14 87.92 L 37.14 89.16 L 37.12 89.96 L 37.11 91.00 L 36.00 91.02 C 36.20 86.72 35.40 82.31 36.71 78.13 C 37.34 75.82 36.43 73.15 38.03 71.15 C 36.32 71.03 35.18 69.71 33.97 68.68 C 33.99 67.09 34.00 65.50 34.00 63.91 Z" />
</g>
<g id="#74585fff">
<path fill="#74585f" opacity="1.00" d=" M 36.40 66.39 C 36.86 66.81 36.86 66.81 36.40 66.39 Z" />
</g>
<g id="#816069ff">
<path fill="#816069" opacity="1.00" d=" M 38.39 66.34 C 38.86 66.80 38.86 66.80 38.39 66.34 Z" />
</g>
<g id="#b38490ff">
<path fill="#b38490" opacity="1.00" d=" M 62.17 66.12 C 63.58 65.79 64.15 66.30 63.90 67.67 C 62.49 68.00 61.92 67.48 62.17 66.12 Z" />
</g>
<g id="#f5eff3ff">
<path fill="#f5eff3" opacity="1.00" d=" M 38.85 71.65 C 39.99 71.05 41.19 70.61 42.42 70.26 C 42.45 70.33 42.50 70.47 42.52 70.54 C 42.78 71.30 43.30 72.80 43.56 73.56 C 42.19 74.20 40.89 73.34 39.59 72.93 C 39.88 73.35 40.46 74.18 40.76 74.60 L 39.66 76.62 C 39.10 75.43 38.54 74.24 38.04 73.03 C 38.24 72.68 38.65 71.99 38.85 71.65 Z" />
</g>
<g id="#62484dff">
<path fill="#62484d" opacity="1.00" d=" M 42.42 70.26 L 42.43 70.26 L 42.52 70.54 C 42.50 70.47 42.45 70.33 42.42 70.26 Z" />
</g>
<g id="#c399a4ff">
<path fill="#c399a4" opacity="1.00" d=" M 51.75 72.03 C 51.94 70.44 53.63 69.24 55.16 69.97 C 54.44 71.20 53.16 71.91 51.75 72.03 Z" />
</g>
<g id="#ffffffff">
<path fill="#ffffff" opacity="1.00" d=" M 55.16 69.97 C 55.67 70.09 56.69 70.34 57.20 70.47 L 57.43 70.53 L 57.65 70.69 C 58.54 71.43 59.45 72.16 60.35 72.88 C 60.31 73.70 60.22 75.33 60.18 76.14 L 60.46 77.14 C 57.05 76.87 53.77 75.48 51.44 72.94 L 51.75 72.03 C 53.16 71.91 54.44 71.20 55.16 69.97 M 56.17 73.30 C 56.66 73.72 56.66 73.72 56.17 73.30 Z" />
</g>
<g id="#6e545aff">
<path fill="#6e545a" opacity="1.00" d=" M 57.20 70.47 L 57.46 70.54 L 57.65 70.69 L 57.43 70.53 L 57.20 70.47 Z" />
</g>
<g id="#eab2bfff">
<path fill="#eab2bf" opacity="1.00" d=" M 62.95 71.11 C 64.05 71.39 65.13 71.72 66.19 72.12 C 66.57 73.00 66.92 73.90 67.25 74.81 C 67.51 76.60 67.65 78.41 67.79 80.22 C 65.37 82.13 63.03 84.15 60.73 86.22 C 61.03 86.61 61.61 87.40 61.90 87.79 C 60.34 87.81 58.77 87.85 57.21 87.91 C 57.42 87.46 57.84 86.57 58.06 86.13 C 58.62 85.21 59.09 84.23 59.45 83.21 C 60.70 82.24 62.01 81.34 63.36 80.50 L 64.53 80.80 C 63.74 79.02 62.21 77.88 60.46 77.14 L 60.18 76.14 L 60.76 75.81 C 61.67 74.33 62.37 72.74 62.95 71.11 Z" />
</g>
<g id="#665a5bff">
<path fill="#665a5b" opacity="1.00" d=" M 39.59 72.93 C 40.89 73.34 42.19 74.20 43.56 73.56 C 46.06 72.69 48.69 72.82 51.12 73.85 C 51.20 73.62 51.36 73.16 51.44 72.94 C 53.77 75.48 57.05 76.87 60.46 77.14 C 62.21 77.88 63.74 79.02 64.53 80.80 L 63.36 80.50 C 59.78 78.00 55.28 77.59 51.53 75.41 C 47.75 73.25 43.01 73.97 39.66 76.62 L 40.76 74.60 C 40.46 74.18 39.88 73.35 39.59 72.93 Z" />
</g>
<g id="#79797cff">
<path fill="#79797c" opacity="1.00" d=" M 56.17 73.30 C 56.66 73.72 56.66 73.72 56.17 73.30 Z" />
</g>
<g id="#674c52ff">
<path fill="#674c52" opacity="1.00" d=" M 60.35 72.88 L 60.86 73.17 C 60.84 73.83 60.78 75.15 60.76 75.81 L 60.18 76.14 C 60.22 75.33 60.31 73.70 60.35 72.88 Z" />
</g>
<g id="#c18e97ff">
<path fill="#c18e97" opacity="1.00" d=" M 83.54 72.74 L 83.81 73.72 C 84.26 78.12 83.92 82.54 84.02 86.96 C 82.16 87.04 80.11 87.91 78.41 86.79 C 77.30 85.85 76.71 84.46 75.90 83.29 C 78.05 82.11 80.07 80.69 81.64 78.78 C 79.44 80.05 77.23 81.31 74.90 82.31 C 74.96 81.75 75.09 80.62 75.15 80.06 C 78.66 78.56 81.50 75.96 83.54 72.74 Z" />
</g>
<g id="#fbf3dcff">
<path fill="#fbf3dc" opacity="1.00" d=" M 39.66 76.62 C 43.01 73.97 47.75 73.25 51.53 75.41 C 55.28 77.59 59.78 78.00 63.36 80.50 C 62.01 81.34 60.70 82.24 59.45 83.21 C 59.09 84.23 58.62 85.21 58.06 86.13 C 55.39 86.69 52.91 87.85 50.33 88.67 C 47.26 89.49 44.10 88.49 41.45 86.94 C 44.44 86.98 47.44 87.10 50.43 86.91 C 53.08 85.37 56.32 85.50 58.96 83.96 C 51.70 83.22 44.47 81.65 37.18 82.94 C 37.13 81.80 37.08 80.66 37.04 79.52 C 37.91 78.55 38.77 77.56 39.66 76.62 M 42.19 79.28 C 42.67 79.77 42.67 79.77 42.19 79.28 Z" />
</g>
<g id="#6a5757ff">
<path fill="#6a5757" opacity="1.00" d=" M 67.25 74.81 C 67.74 76.50 68.07 78.23 68.41 79.95 C 66.64 82.19 64.70 84.29 62.55 86.15 C 64.22 87.06 65.79 88.14 67.29 89.32 C 68.89 89.16 70.49 89.22 72.04 89.67 C 72.05 88.99 72.07 87.63 72.08 86.95 L 72.97 87.01 C 72.97 88.78 73.41 91.87 70.86 92.01 C 67.60 92.93 65.61 90.05 63.82 87.89 C 59.89 90.62 54.41 87.28 50.41 89.84 C 48.54 89.93 46.67 89.95 44.80 89.97 C 44.44 89.68 43.73 89.11 43.37 88.82 C 42.94 89.36 42.09 90.44 41.66 90.98 C 40.14 91.00 38.62 91.00 37.11 91.00 L 37.12 89.96 C 37.53 89.93 38.33 89.87 38.74 89.84 L 38.92 89.13 C 38.48 89.13 37.58 89.15 37.14 89.16 L 37.14 87.92 C 37.99 88.02 39.68 88.21 40.52 88.31 L 40.46 88.59 L 40.68 88.62 C 40.64 88.55 40.56 88.39 40.52 88.31 C 39.36 86.75 38.31 85.13 37.20 83.53 L 37.18 82.94 C 44.47 81.65 51.70 83.22 58.96 83.96 C 56.32 85.50 53.08 85.37 50.43 86.91 C 47.44 87.10 44.44 86.98 41.45 86.94 L 41.73 86.48 L 41.28 86.23 L 41.00 86.70 L 41.45 86.94 C 44.10 88.49 47.26 89.49 50.33 88.67 C 52.91 87.85 55.39 86.69 58.06 86.13 C 57.84 86.57 57.42 87.46 57.21 87.91 C 58.77 87.85 60.34 87.81 61.90 87.79 C 61.61 87.40 61.03 86.61 60.73 86.22 C 63.03 84.15 65.37 82.13 67.79 80.22 C 67.65 78.41 67.51 76.60 67.25 74.81 M 41.77 84.69 C 44.31 86.70 47.64 85.84 50.62 86.00 C 51.02 85.50 51.82 84.50 52.22 84.00 C 49.97 84.01 47.72 84.03 45.48 83.91 C 44.15 82.05 42.90 83.78 41.77 84.69 M 68.27 90.13 C 68.41 93.36 71.38 88.67 68.27 90.13 Z" />
</g>
<g id="#665f50ff">
<path fill="#665f50" opacity="1.00" d=" M 42.19 79.28 C 42.67 79.77 42.67 79.77 42.19 79.28 Z" />
</g>
<g id="#f9aeb4ff">
<path fill="#f9aeb4" opacity="1.00" d=" M 41.77 84.69 C 42.90 83.78 44.15 82.05 45.48 83.91 C 47.72 84.03 49.97 84.01 52.22 84.00 C 51.82 84.50 51.02 85.50 50.62 86.00 C 47.64 85.84 44.31 86.70 41.77 84.69 Z" />
</g>
<g id="#e4adb9ff">
<path fill="#e4adb9" opacity="1.00" d=" M 37.20 83.53 C 38.31 85.13 39.36 86.75 40.52 88.31 C 39.68 88.21 37.99 88.02 37.14 87.92 C 37.15 86.46 37.18 84.99 37.20 83.53 Z" />
</g>
<g id="#f0e8d2ff">
<path fill="#f0e8d2" opacity="1.00" d=" M 41.28 86.23 L 41.73 86.48 L 41.45 86.94 L 41.00 86.70 L 41.28 86.23 Z" />
</g>
<g id="#edb4c1ff">
<path fill="#edb4c1" opacity="1.00" d=" M 40.52 88.31 C 40.56 88.39 40.64 88.55 40.68 88.62 L 40.46 88.59 L 40.52 88.31 Z" />
</g>
<g id="#f2f2f2ff">
<path fill="#f2f2f2" opacity="1.00" d=" M 81.28 88.16 C 84.37 86.64 81.49 91.40 81.28 88.16 Z" />
</g>
<g id="#f7f7f7ff">
<path fill="#f7f7f7" opacity="1.00" d=" M 37.14 89.16 C 37.58 89.15 38.48 89.13 38.92 89.13 L 38.74 89.84 C 38.33 89.87 37.53 89.93 37.12 89.96 L 37.14 89.16 Z" />
</g>
<g id="#fdfdfdff">
<path fill="#fdfdfd" opacity="1.00" d=" M 68.27 90.13 C 71.38 88.67 68.41 93.36 68.27 90.13 Z" />
</g>
</svg>
