<?xml version="1.0" encoding="UTF-8" ?>
<!DOCTYPE svg PUBLIC "-//W3C//DTD SVG 1.1//EN" "http://www.w3.org/Graphics/SVG/1.1/DTD/svg11.dtd">
<svg width="120pt" height="120pt" viewBox="0 0 120 120" version="1.1" xmlns="http://www.w3.org/2000/svg">
<g id="#3d2836ff">
<path fill="#3d2836" opacity="1.00" d=" M 17.56 24.46 C 18.39 22.91 19.61 21.78 21.46 21.87 C 22.49 22.65 23.51 23.44 24.53 24.24 C 26.40 23.87 28.08 22.94 29.83 22.23 C 33.06 21.84 36.32 22.14 39.56 22.06 C 40.74 22.83 41.96 23.56 43.03 24.49 L 43.23 25.25 C 39.04 22.79 34.21 22.79 29.50 23.03 C 28.49 23.77 27.48 24.51 26.48 25.26 C 24.14 24.91 21.95 24.02 19.86 22.94 C 19.28 23.32 18.13 24.08 17.56 24.46 Z" />
<path fill="#3d2836" opacity="1.00" d=" M 44.59 22.17 C 45.33 22.13 46.81 22.05 47.55 22.01 C 48.66 22.76 49.82 23.46 50.85 24.33 C 51.12 26.43 51.01 28.55 51.02 30.66 C 50.54 31.06 49.58 31.85 49.10 32.25 C 50.01 33.84 50.02 35.69 50.24 37.46 C 51.13 39.02 51.01 40.84 51.11 42.57 C 51.70 43.55 52.29 44.52 52.88 45.49 C 52.95 45.98 53.10 46.97 53.18 47.46 C 53.60 48.46 54.01 49.46 54.41 50.47 C 54.73 51.80 55.04 53.13 55.34 54.47 C 56.62 53.27 57.19 51.69 57.20 49.95 C 58.21 49.58 59.22 49.23 60.24 48.90 C 59.72 49.30 58.68 50.09 58.16 50.49 C 58.04 50.97 57.82 51.95 57.70 52.43 C 56.43 55.10 57.32 57.97 58.14 60.62 C 61.53 66.17 66.00 70.84 70.67 75.32 C 72.11 77.26 73.05 79.51 73.26 81.94 C 77.30 83.94 81.45 85.71 85.59 87.48 C 84.46 85.15 83.38 82.76 83.07 80.16 C 84.86 77.07 84.09 73.49 82.75 70.39 C 79.60 62.57 75.98 54.84 70.89 48.08 C 68.77 47.69 66.56 46.67 64.45 47.69 C 64.01 47.80 63.12 48.01 62.68 48.11 L 61.57 47.43 C 63.78 46.78 66.03 46.19 68.35 46.05 C 69.44 46.72 70.62 47.11 71.89 47.22 C 77.24 54.36 81.03 62.55 84.28 70.81 C 84.70 72.26 85.01 73.72 85.35 75.19 C 86.83 75.09 88.32 74.98 89.80 74.84 L 90.07 76.00 C 88.46 76.00 86.84 76.00 85.23 76.00 C 85.12 77.29 84.75 78.49 84.12 79.61 C 84.11 80.07 84.08 81.01 84.06 81.47 C 85.35 83.58 86.44 85.80 87.32 88.11 C 85.67 87.99 83.94 88.06 82.43 87.25 C 81.95 87.14 80.98 86.92 80.50 86.81 C 78.87 85.92 77.22 85.07 75.55 84.27 C 74.10 83.87 72.71 83.30 71.35 82.67 C 69.99 81.15 63.65 83.80 67.72 84.34 L 68.01 84.96 C 66.87 85.02 65.72 85.08 64.58 85.13 C 63.88 85.42 62.49 86.01 61.79 86.30 C 61.85 85.71 61.97 84.54 62.03 83.95 C 62.12 80.77 62.65 77.43 61.70 74.34 C 60.02 71.17 58.09 68.08 57.41 64.49 C 57.94 64.14 59.00 63.45 59.53 63.11 C 58.97 63.27 57.85 63.59 57.29 63.75 C 55.08 53.77 49.53 44.63 49.07 34.28 C 47.42 32.60 45.59 31.06 43.35 30.21 C 43.27 29.28 43.19 28.35 43.12 27.42 C 44.11 26.95 45.10 26.47 46.09 25.98 C 46.52 26.29 47.38 26.91 47.82 27.22 C 47.76 28.13 47.71 29.04 47.66 29.95 C 47.48 29.17 47.12 27.61 46.94 26.83 C 46.01 27.00 44.14 27.34 43.21 27.51 C 44.47 29.08 45.77 30.63 47.10 32.14 C 48.13 31.62 49.15 31.10 50.18 30.58 C 50.23 28.95 50.28 27.32 50.36 25.70 C 48.94 24.65 47.46 23.69 45.90 22.89 L 44.59 22.17 M 58.67 64.31 C 58.76 68.28 61.33 73.05 65.20 74.35 C 64.91 73.85 64.34 72.85 64.05 72.35 C 64.30 72.13 64.79 71.68 65.04 71.46 C 62.59 69.37 60.87 66.63 58.67 64.31 Z" />
<path fill="#3d2836" opacity="1.00" d=" M 15.01 26.79 C 15.60 25.98 16.33 25.30 17.20 24.74 C 17.02 25.26 16.66 26.28 16.48 26.80 C 17.17 28.28 17.16 30.68 18.94 31.31 C 20.13 30.94 21.29 30.50 22.42 29.97 C 21.69 30.81 20.99 31.66 20.30 32.53 C 20.23 33.88 20.22 35.24 20.26 36.60 C 19.23 38.19 18.35 39.88 17.62 41.64 C 18.23 41.89 19.45 42.40 20.06 42.66 C 22.48 44.24 21.34 47.25 21.28 49.59 C 19.21 51.52 17.08 53.38 14.88 55.16 C 16.39 53.00 18.34 51.21 20.19 49.35 C 20.14 48.61 20.05 47.13 20.00 46.39 C 19.07 45.01 18.09 43.66 16.99 42.40 C 17.14 38.75 19.21 35.56 20.06 32.05 C 16.51 33.02 15.78 29.25 15.01 26.79 Z" />
<path fill="#3d2836" opacity="1.00" d=" M 18.16 27.35 C 17.86 24.94 22.22 25.40 22.00 27.58 C 20.81 27.85 19.34 27.67 18.16 27.35 Z" />
<path fill="#3d2836" opacity="1.00" d=" M 33.70 31.61 C 34.82 29.59 37.65 27.69 39.62 29.84 C 38.90 30.02 37.46 30.37 36.74 30.54 C 35.77 31.07 34.79 31.56 33.79 32.03 L 33.70 31.61 Z" />
<path fill="#3d2836" opacity="1.00" d=" M 40.21 30.27 L 40.46 30.44 L 40.63 30.62 C 40.53 30.53 40.31 30.35 40.21 30.27 Z" />
<path fill="#3d2836" opacity="1.00" d=" M 22.21 32.21 C 22.84 32.84 22.84 32.84 22.21 32.21 Z" />
<path fill="#3d2836" opacity="1.00" d=" M 37.63 32.05 C 40.61 30.57 37.73 35.36 37.63 32.05 Z" />
<path fill="#3d2836" opacity="1.00" d=" M 42.15 32.06 C 43.46 32.91 43.90 35.28 42.37 36.12 C 41.80 34.80 41.73 33.44 42.15 32.06 Z" />
<path fill="#3d2836" opacity="1.00" d=" M 73.88 45.31 C 74.77 42.46 75.61 38.95 78.60 37.60 C 79.68 39.95 79.64 43.43 82.50 44.41 C 83.64 45.56 84.76 44.77 85.80 44.00 C 86.01 44.63 86.43 45.90 86.65 46.53 C 89.51 51.62 92.84 56.53 94.38 62.25 C 94.70 63.22 95.01 64.20 95.32 65.18 C 96.68 65.16 98.05 65.15 99.42 65.14 C 98.21 66.28 96.49 65.92 95.01 66.12 C 94.99 66.78 94.96 68.10 94.94 68.76 C 96.19 69.80 97.51 70.76 98.96 71.50 C 98.98 72.12 99.01 73.38 99.02 74.01 C 96.70 74.01 94.37 73.99 92.05 73.92 C 93.94 72.55 96.47 73.33 98.63 73.09 C 97.15 72.02 95.70 70.93 94.27 69.81 C 94.15 67.48 94.00 65.12 93.33 62.87 C 91.79 57.79 89.16 53.17 86.57 48.58 C 86.23 49.07 85.56 50.06 85.23 50.56 C 85.24 48.85 85.24 47.15 85.23 45.44 C 83.70 46.28 82.21 47.19 80.73 48.11 C 81.26 47.33 81.79 46.55 82.32 45.77 C 80.81 44.67 79.34 43.53 77.88 42.36 C 76.53 43.33 75.19 44.29 73.88 45.31 M 77.39 39.32 C 76.87 40.07 75.56 41.88 76.94 42.39 C 79.02 42.89 79.08 39.37 77.39 39.32 Z" />
<path fill="#3d2836" opacity="1.00" d=" M 23.21 39.22 C 23.85 39.78 23.85 39.78 23.21 39.22 Z" />
<path fill="#3d2836" opacity="1.00" d=" M 28.19 39.24 C 28.83 39.80 28.83 39.80 28.19 39.24 Z" />
<path fill="#3d2836" opacity="1.00" d=" M 90.78 40.02 C 91.32 40.01 92.41 39.99 92.95 39.98 C 92.98 41.52 93.00 43.07 93.02 44.61 C 93.82 45.43 94.61 46.25 95.40 47.08 C 98.45 47.52 101.25 46.64 103.88 45.20 C 105.69 46.02 107.52 46.38 109.13 44.92 C 109.04 46.45 108.92 47.97 108.77 49.50 L 108.37 48.51 C 108.32 48.14 108.23 47.38 108.18 47.00 C 107.42 47.00 105.89 47.00 105.12 47.00 C 104.75 47.93 104.37 48.87 103.99 49.80 C 101.57 48.76 99.05 47.95 96.40 47.80 C 97.89 50.88 99.53 53.90 100.61 57.17 C 102.32 54.84 104.12 52.55 106.29 50.63 C 105.56 51.94 104.84 53.26 104.11 54.57 C 104.41 55.17 105.03 56.37 105.33 56.97 C 103.88 56.99 102.43 57.01 100.98 57.02 C 100.99 59.00 101.00 60.99 101.01 62.98 L 99.87 63.07 L 100.12 61.63 C 98.76 61.75 97.40 61.88 96.04 62.02 C 96.21 61.34 96.53 59.98 96.70 59.30 C 97.59 58.60 98.49 57.92 99.33 57.16 C 98.01 52.76 95.68 48.63 92.29 45.49 C 92.25 44.12 92.21 42.75 92.12 41.38 L 91.47 40.72 L 90.78 40.02 M 103.30 46.18 C 101.86 46.94 101.75 47.62 102.96 48.22 C 104.41 47.49 104.52 46.81 103.30 46.18 M 97.21 59.87 C 97.26 63.20 100.30 58.52 97.21 59.87 Z" />
<path fill="#3d2836" opacity="1.00" d=" M 22.24 45.59 C 21.02 44.60 22.54 42.06 23.89 43.12 C 23.77 44.09 23.42 44.97 22.85 45.75 L 22.24 45.59 Z" />
<path fill="#3d2836" opacity="1.00" d=" M 59.42 51.73 C 59.48 50.47 61.56 49.81 62.56 50.47 C 62.65 51.00 62.83 52.05 62.92 52.57 L 62.34 52.90 C 61.19 52.90 60.22 52.51 59.42 51.73 Z" />
<path fill="#3d2836" opacity="1.00" d=" M 12.15 63.39 C 11.99 60.76 11.57 57.23 14.38 55.80 C 14.03 56.53 13.34 58.00 12.99 58.74 C 13.09 62.31 13.55 67.18 17.72 68.26 C 17.66 68.83 17.52 69.95 17.45 70.51 C 14.75 74.24 13.73 79.72 16.95 83.47 C 18.28 84.97 19.68 86.41 21.04 87.88 C 19.71 87.97 18.38 88.06 17.05 88.15 L 16.85 89.98 C 18.04 89.59 19.23 89.21 20.43 88.84 C 21.00 89.94 21.58 91.04 22.16 92.15 C 24.97 92.13 27.78 92.11 30.59 92.10 C 31.10 91.54 32.12 90.44 32.62 89.89 C 29.92 87.91 27.08 86.07 24.74 83.66 C 28.37 85.70 32.18 87.51 36.23 88.56 C 39.80 89.18 43.44 88.73 46.96 88.07 C 46.95 87.31 46.93 85.78 46.92 85.02 C 46.29 85.01 45.03 84.99 44.40 84.99 C 45.09 84.79 46.46 84.41 47.15 84.21 C 47.92 86.50 49.29 88.50 50.71 90.43 C 53.02 90.28 55.34 90.23 57.65 90.42 C 55.68 90.70 53.70 90.89 51.71 90.99 C 53.16 91.99 54.00 93.44 54.22 95.19 C 55.23 93.00 56.97 91.65 59.46 91.90 C 60.47 92.92 61.48 93.92 62.50 94.93 C 61.71 92.80 60.74 90.75 60.09 88.58 L 60.68 88.18 C 61.53 89.23 62.27 90.37 63.05 91.47 C 63.77 94.28 61.76 95.84 59.57 97.06 C 57.68 97.05 55.84 96.71 54.01 96.31 C 51.90 96.99 49.60 97.43 47.77 95.79 C 47.77 93.49 50.59 89.79 47.07 88.98 C 46.66 89.21 45.85 89.67 45.44 89.90 C 41.30 89.71 36.75 90.97 32.92 88.96 C 32.94 89.64 32.99 91.00 33.01 91.68 C 32.37 91.99 31.11 92.61 30.47 92.91 C 27.19 93.03 23.90 92.94 20.61 93.12 C 18.49 94.52 15.60 94.37 13.42 93.18 C 12.14 93.06 10.86 92.94 9.58 92.83 C 10.37 92.27 11.17 91.72 11.98 91.18 C 13.28 93.18 18.19 90.78 14.49 90.03 L 13.51 89.73 C 15.04 88.67 16.61 87.68 18.19 86.70 C 16.60 85.15 15.19 83.43 14.03 81.54 C 14.06 79.30 13.92 77.05 14.24 74.83 C 14.94 73.06 15.87 71.38 16.27 69.51 C 15.25 68.59 14.24 67.65 13.25 66.69 C 13.02 65.55 12.65 64.45 12.15 63.39 M 16.31 92.83 C 17.58 93.24 20.03 92.95 19.97 91.18 C 19.40 88.79 16.14 91.43 16.31 92.83 M 49.15 93.23 C 48.24 95.70 51.32 96.52 53.20 96.21 C 53.12 95.34 52.96 93.62 52.88 92.76 C 51.63 92.87 50.38 93.02 49.15 93.23 M 56.12 93.01 C 56.06 93.83 55.95 95.46 55.89 96.28 C 57.56 96.13 59.27 96.02 60.81 95.29 C 59.65 93.68 58.19 92.50 56.12 93.01 Z" />
<path fill="#3d2836" opacity="1.00" d=" M 67.56 59.82 C 70.01 60.49 71.93 62.20 73.44 64.17 C 72.84 63.88 71.63 63.29 71.02 62.99 L 70.68 62.37 C 69.66 61.49 68.60 60.67 67.56 59.82 Z" />
<path fill="#3d2836" opacity="1.00" d=" M 50.23 61.23 C 50.86 61.73 50.86 61.73 50.23 61.23 Z" />
<path fill="#3d2836" opacity="1.00" d=" M 69.53 64.49 L 69.59 64.42 C 69.56 64.44 69.49 64.48 69.46 64.50 L 69.53 64.49 Z" />
<path fill="#3d2836" opacity="1.00" d=" M 25.64 81.17 C 30.66 82.37 35.62 80.85 40.60 80.41 C 38.46 81.52 36.03 81.75 33.68 82.08 C 31.16 82.22 28.64 82.25 26.12 82.03 L 25.64 81.17 Z" />
<path fill="#3d2836" opacity="1.00" d=" M 41.69 85.46 C 42.17 85.36 43.12 85.16 43.60 85.06 C 43.28 86.59 42.64 86.72 41.69 85.46 Z" />
<path fill="#3d2836" opacity="1.00" d=" M 38.09 86.10 C 41.00 84.48 38.31 89.46 38.09 86.10 Z" />
</g>
<g id="#f2b8c5ff">
<path fill="#f2b8c5" opacity="1.00" d=" M 17.56 24.46 C 18.13 24.08 19.28 23.32 19.86 22.94 C 21.95 24.02 24.14 24.91 26.48 25.26 C 27.48 24.51 28.49 23.77 29.50 23.03 C 34.21 22.79 39.04 22.79 43.23 25.25 L 43.03 24.49 L 42.85 23.78 C 43.61 23.56 45.13 23.11 45.90 22.89 C 47.46 23.69 48.94 24.65 50.36 25.70 C 50.28 27.32 50.23 28.95 50.18 30.58 C 49.15 31.10 48.13 31.62 47.10 32.14 C 45.77 30.63 44.47 29.08 43.21 27.51 C 44.14 27.34 46.01 27.00 46.94 26.83 C 47.12 27.61 47.48 29.17 47.66 29.95 C 47.71 29.04 47.76 28.13 47.82 27.22 C 47.38 26.91 46.52 26.29 46.09 25.98 C 45.10 26.47 44.11 26.95 43.12 27.42 C 43.19 28.35 43.27 29.28 43.35 30.21 C 45.59 31.06 47.42 32.60 49.07 34.28 C 49.53 44.63 55.08 53.77 57.29 63.75 C 57.85 63.59 58.97 63.27 59.53 63.11 C 59.00 63.45 57.94 64.14 57.41 64.49 C 58.09 68.08 60.02 71.17 61.70 74.34 C 62.65 77.43 62.12 80.77 62.03 83.95 C 59.11 85.24 56.25 86.87 53.06 87.34 C 49.99 87.82 48.37 84.79 46.77 82.77 C 46.50 81.71 46.24 80.65 46.00 79.59 C 46.47 79.47 47.43 79.22 47.90 79.10 C 48.27 77.18 48.64 75.26 48.99 73.34 C 48.29 71.93 47.47 70.56 47.08 69.02 C 48.09 66.69 49.38 64.49 50.30 62.12 C 47.73 64.60 45.88 67.92 42.70 69.71 C 40.98 70.86 39.00 69.84 37.21 69.50 C 38.23 63.79 41.80 58.84 42.00 52.91 C 38.60 56.97 38.91 62.75 35.40 66.78 C 31.26 66.77 27.00 67.35 22.94 66.32 C 21.20 61.26 22.59 55.48 22.18 50.14 C 29.68 52.84 38.01 49.86 43.02 43.90 C 43.03 42.30 43.04 40.70 43.07 39.11 C 42.31 38.45 41.54 37.80 40.75 37.17 C 41.16 36.91 41.96 36.38 42.37 36.12 C 43.90 35.28 43.46 32.91 42.15 32.06 C 41.77 31.70 41.01 30.98 40.63 30.62 L 40.46 30.44 L 40.21 30.27 L 39.62 29.84 C 37.65 27.69 34.82 29.59 33.70 31.61 L 33.79 32.03 C 33.88 32.43 34.05 33.24 34.14 33.64 C 31.23 32.81 28.18 32.84 25.18 32.83 C 24.86 32.39 24.22 31.51 23.90 31.07 C 26.30 30.94 24.13 27.60 22.91 29.52 L 22.42 29.97 C 21.29 30.50 20.13 30.94 18.94 31.31 C 17.16 30.68 17.17 28.28 16.48 26.80 C 16.66 26.28 17.02 25.26 17.20 24.74 C 17.29 24.67 17.47 24.53 17.56 24.46 M 18.16 27.35 C 19.34 27.67 20.81 27.85 22.00 27.58 C 22.22 25.40 17.86 24.94 18.16 27.35 M 51.19 56.48 C 50.26 57.65 50.48 58.35 51.84 58.57 C 52.77 57.40 52.55 56.70 51.19 56.48 M 50.23 61.23 C 50.86 61.73 50.86 61.73 50.23 61.23 M 49.41 69.41 C 48.23 70.08 48.94 72.80 50.29 71.32 C 51.43 70.63 50.79 67.96 49.41 69.41 Z" />
<path fill="#f2b8c5" opacity="1.00" d=" M 23.89 43.12 C 27.40 43.44 31.04 43.61 34.12 45.55 C 35.00 45.13 35.89 44.71 36.77 44.30 C 33.25 47.94 26.91 49.28 22.85 45.75 C 23.42 44.97 23.77 44.09 23.89 43.12 Z" />
<path fill="#f2b8c5" opacity="1.00" d=" M 14.88 55.16 C 17.08 53.38 19.21 51.52 21.28 49.59 C 20.64 55.60 20.98 61.65 20.69 67.67 C 19.70 67.88 18.72 68.10 17.72 68.26 C 13.55 67.18 13.09 62.31 12.99 58.74 C 13.34 58.00 14.03 56.53 14.38 55.80 C 14.51 55.64 14.75 55.32 14.88 55.16 Z" />
<path fill="#f2b8c5" opacity="1.00" d=" M 17.45 70.51 C 18.10 72.19 18.02 74.74 19.66 75.71 C 19.98 75.13 20.61 73.97 20.93 73.39 C 21.07 73.41 21.35 73.47 21.49 73.49 C 23.08 75.93 24.29 78.59 25.64 81.17 L 26.12 82.03 C 28.64 82.25 31.16 82.22 33.68 82.08 C 33.59 82.50 33.41 83.34 33.31 83.77 C 36.08 84.47 38.87 85.06 41.69 85.46 C 42.64 86.72 43.28 86.59 43.60 85.06 L 44.40 84.99 C 45.03 84.99 46.29 85.01 46.92 85.02 C 46.93 85.78 46.95 87.31 46.96 88.07 C 43.44 88.73 39.80 89.18 36.23 88.56 C 32.18 87.51 28.37 85.70 24.74 83.66 C 24.50 82.42 24.33 81.18 24.18 79.94 C 22.97 78.85 21.81 77.61 20.24 77.03 C 20.06 79.27 21.29 81.22 22.07 83.21 C 20.36 83.30 18.66 83.38 16.95 83.47 C 13.73 79.72 14.75 74.24 17.45 70.51 M 38.09 86.10 C 38.31 89.46 41.00 84.48 38.09 86.10 Z" />
</g>
<g id="#aca7b1ff">
<path fill="#aca7b1" opacity="1.00" d=" M 22.91 29.52 C 24.13 27.60 26.30 30.94 23.90 31.07 C 23.65 30.68 23.16 29.91 22.91 29.52 Z" />
<path fill="#aca7b1" opacity="1.00" d=" M 20.26 36.60 C 21.43 34.80 23.16 33.52 25.18 32.83 C 28.18 32.84 31.23 32.81 34.14 33.64 C 36.26 34.96 38.49 36.10 40.75 37.17 C 41.54 37.80 42.31 38.45 43.07 39.11 C 43.04 40.70 43.03 42.30 43.02 43.90 C 38.01 49.86 29.68 52.84 22.18 50.14 C 22.59 55.48 21.20 61.26 22.94 66.32 C 27.00 67.35 31.26 66.77 35.40 66.78 C 38.91 62.75 38.60 56.97 42.00 52.91 C 41.80 58.84 38.23 63.79 37.21 69.50 C 39.00 69.84 40.98 70.86 42.70 69.71 C 45.88 67.92 47.73 64.60 50.30 62.12 C 49.38 64.49 48.09 66.69 47.08 69.02 C 47.47 70.56 48.29 71.93 48.99 73.34 C 48.64 75.26 48.27 77.18 47.90 79.10 C 47.43 79.22 46.47 79.47 46.00 79.59 C 44.69 79.85 43.37 79.94 42.04 79.83 C 43.39 78.74 45.10 78.23 46.59 77.37 C 47.66 74.43 46.23 71.44 45.19 68.73 C 45.12 69.82 45.06 70.91 45.01 72.00 C 37.34 73.81 29.31 75.34 21.49 73.49 C 21.35 73.47 21.07 73.41 20.93 73.39 C 20.61 73.97 19.98 75.13 19.66 75.71 C 18.02 74.74 18.10 72.19 17.45 70.51 C 17.52 69.95 17.66 68.83 17.72 68.26 C 18.72 68.10 19.70 67.88 20.69 67.67 C 20.98 61.65 20.64 55.60 21.28 49.59 C 21.34 47.25 22.48 44.24 20.06 42.66 C 27.42 40.38 34.94 43.54 42.40 42.91 C 41.48 38.31 36.46 37.10 32.89 35.13 C 28.80 32.68 24.13 34.81 20.26 36.60 M 22.24 45.59 L 22.85 45.75 C 26.91 49.28 33.25 47.94 36.77 44.30 C 35.89 44.71 35.00 45.13 34.12 45.55 C 31.04 43.61 27.40 43.44 23.89 43.12 C 22.54 42.06 21.02 44.60 22.24 45.59 M 39.44 44.10 C 39.49 47.39 42.49 42.62 39.44 44.10 M 19.91 70.61 C 24.67 73.80 30.54 72.73 35.92 72.72 C 35.45 71.19 35.00 69.65 34.59 68.10 C 30.51 68.25 26.38 68.52 22.35 67.67 C 22.24 69.23 21.57 70.37 19.91 70.61 Z" />
<path fill="#aca7b1" opacity="1.00" d=" M 94.22 52.42 C 95.40 51.73 96.75 53.69 95.87 54.64 C 94.68 55.33 93.34 53.37 94.22 52.42 Z" />
<path fill="#aca7b1" opacity="1.00" d=" M 51.19 56.48 C 52.55 56.70 52.77 57.40 51.84 58.57 C 50.48 58.35 50.26 57.65 51.19 56.48 Z" />
<path fill="#aca7b1" opacity="1.00" d=" M 83.23 57.31 C 84.60 56.95 85.11 57.48 84.76 58.89 C 83.39 59.24 82.88 58.71 83.23 57.31 Z" />
<path fill="#aca7b1" opacity="1.00" d=" M 94.38 62.25 C 94.80 62.19 95.63 62.08 96.04 62.02 C 97.40 61.88 98.76 61.75 100.12 61.63 L 99.87 63.07 C 99.79 63.59 99.61 64.62 99.53 65.14 L 99.42 65.14 C 98.05 65.15 96.68 65.16 95.32 65.18 C 95.01 64.20 94.70 63.22 94.38 62.25 Z" />
<path fill="#aca7b1" opacity="1.00" d=" M 88.37 63.15 C 89.76 62.72 90.26 63.21 89.85 64.62 C 88.46 65.04 87.96 64.55 88.37 63.15 Z" />
<path fill="#aca7b1" opacity="1.00" d=" M 84.28 70.81 C 88.05 69.14 91.02 66.25 93.33 62.87 C 94.00 65.12 94.15 67.48 94.27 69.81 C 95.70 70.93 97.15 72.02 98.63 73.09 C 96.47 73.33 93.94 72.55 92.05 73.92 L 91.31 74.68 C 90.93 74.72 90.18 74.80 89.80 74.84 C 88.32 74.98 86.83 75.09 85.35 75.19 C 85.01 73.72 84.70 72.26 84.28 70.81 Z" />
<path fill="#aca7b1" opacity="1.00" d=" M 58.67 64.31 C 60.87 66.63 62.59 69.37 65.04 71.46 C 64.79 71.68 64.30 72.13 64.05 72.35 C 64.34 72.85 64.91 73.85 65.20 74.35 C 61.33 73.05 58.76 68.28 58.67 64.31 Z" />
<path fill="#aca7b1" opacity="1.00" d=" M 49.41 69.41 C 50.79 67.96 51.43 70.63 50.29 71.32 C 48.94 72.80 48.23 70.08 49.41 69.41 Z" />
<path fill="#aca7b1" opacity="1.00" d=" M 82.75 70.39 C 84.09 73.49 84.86 77.07 83.07 80.16 C 83.38 82.76 84.46 85.15 85.59 87.48 C 81.45 85.71 77.30 83.94 73.26 81.94 C 73.05 79.51 72.11 77.26 70.67 75.32 C 75.32 78.45 80.55 74.65 82.75 70.39 Z" />
<path fill="#aca7b1" opacity="1.00" d=" M 73.13 71.06 C 74.21 71.10 75.20 71.45 76.09 72.09 C 76.86 73.70 74.89 76.26 73.08 75.16 C 72.93 73.98 71.37 71.60 73.13 71.06 Z" />
<path fill="#aca7b1" opacity="1.00" d=" M 20.24 77.03 C 21.81 77.61 22.97 78.85 24.18 79.94 C 24.33 81.18 24.50 82.42 24.74 83.66 C 27.08 86.07 29.92 87.91 32.62 89.89 C 32.12 90.44 31.10 91.54 30.59 92.10 C 27.78 92.11 24.97 92.13 22.16 92.15 C 21.58 91.04 21.00 89.94 20.43 88.84 C 19.23 89.21 18.04 89.59 16.85 89.98 L 17.05 88.15 C 18.38 88.06 19.71 87.97 21.04 87.88 C 19.68 86.41 18.28 84.97 16.95 83.47 C 18.66 83.38 20.36 83.30 22.07 83.21 C 21.29 81.22 20.06 79.27 20.24 77.03 Z" />
<path fill="#aca7b1" opacity="1.00" d=" M 67.72 84.34 C 63.65 83.80 69.99 81.15 71.35 82.67 C 70.49 83.81 69.28 84.37 67.72 84.34 Z" />
<path fill="#aca7b1" opacity="1.00" d=" M 46.77 82.77 C 48.37 84.79 49.99 87.82 53.06 87.34 C 56.25 86.87 59.11 85.24 62.03 83.95 C 61.97 84.54 61.85 85.71 61.79 86.30 C 61.75 86.61 61.69 87.24 61.65 87.55 L 60.68 88.18 L 60.09 88.58 C 60.74 90.75 61.71 92.80 62.50 94.93 C 61.48 93.92 60.47 92.92 59.46 91.90 C 56.97 91.65 55.23 93.00 54.22 95.19 C 54.00 93.44 53.16 91.99 51.71 90.99 C 53.70 90.89 55.68 90.70 57.65 90.42 C 55.34 90.23 53.02 90.28 50.71 90.43 C 49.29 88.50 47.92 86.50 47.15 84.21 L 46.77 82.77 Z" />
</g>
<g id="#f0ebd8ff">
<path fill="#f0ebd8" opacity="1.00" d=" M 22.42 29.97 L 22.91 29.52 C 23.16 29.91 23.65 30.68 23.90 31.07 C 24.22 31.51 24.86 32.39 25.18 32.83 C 23.16 33.52 21.43 34.80 20.26 36.60 C 20.22 35.24 20.23 33.88 20.30 32.53 C 20.99 31.66 21.69 30.81 22.42 29.97 M 22.21 32.21 C 22.84 32.84 22.84 32.84 22.21 32.21 Z" />
<path fill="#f0ebd8" opacity="1.00" d=" M 36.74 30.54 C 37.46 30.37 38.90 30.02 39.62 29.84 L 40.21 30.27 C 40.31 30.35 40.53 30.53 40.63 30.62 C 41.01 30.98 41.77 31.70 42.15 32.06 C 41.73 33.44 41.80 34.80 42.37 36.12 C 41.96 36.38 41.16 36.91 40.75 37.17 C 38.49 36.10 36.26 34.96 34.14 33.64 C 34.05 33.24 33.88 32.43 33.79 32.03 C 34.79 31.56 35.77 31.07 36.74 30.54 M 37.63 32.05 C 37.73 35.36 40.61 30.57 37.63 32.05 Z" />
<path fill="#f0ebd8" opacity="1.00" d=" M 20.26 36.60 C 24.13 34.81 28.80 32.68 32.89 35.13 C 36.46 37.10 41.48 38.31 42.40 42.91 C 34.94 43.54 27.42 40.38 20.06 42.66 C 19.45 42.40 18.23 41.89 17.62 41.64 C 18.35 39.88 19.23 38.19 20.26 36.60 M 23.21 39.22 C 23.85 39.78 23.85 39.78 23.21 39.22 M 28.19 39.24 C 28.83 39.80 28.83 39.80 28.19 39.24 Z" />
<path fill="#f0ebd8" opacity="1.00" d=" M 39.44 44.10 C 42.49 42.62 39.49 47.39 39.44 44.10 Z" />
<path fill="#f0ebd8" opacity="1.00" d=" M 76.05 47.18 C 79.95 45.01 81.89 50.41 79.98 53.18 C 78.19 51.73 75.04 49.86 76.05 47.18 Z" />
<path fill="#f0ebd8" opacity="1.00" d=" M 62.56 50.47 L 62.38 49.82 C 63.88 50.34 65.38 50.85 66.88 51.36 C 66.76 53.31 66.90 55.35 66.06 57.17 C 65.54 57.33 64.52 57.63 64.01 57.78 C 61.73 58.26 60.24 56.39 59.14 54.72 C 60.21 54.12 61.28 53.51 62.34 52.90 L 62.92 52.57 C 62.83 52.05 62.65 51.00 62.56 50.47 Z" />
<path fill="#f0ebd8" opacity="1.00" d=" M 67.26 59.58 L 67.56 59.82 C 68.60 60.67 69.66 61.49 70.68 62.37 L 71.02 62.99 C 70.66 63.35 69.95 64.07 69.59 64.42 L 69.53 64.49 L 69.46 64.50 C 67.24 65.98 66.77 63.37 65.91 61.95 C 66.25 61.35 66.93 60.17 67.26 59.58 Z" />
<path fill="#f0ebd8" opacity="1.00" d=" M 19.91 70.61 C 21.57 70.37 22.24 69.23 22.35 67.67 C 26.38 68.52 30.51 68.25 34.59 68.10 C 35.00 69.65 35.45 71.19 35.92 72.72 C 30.54 72.73 24.67 73.80 19.91 70.61 Z" />
<path fill="#f0ebd8" opacity="1.00" d=" M 45.19 68.73 C 46.23 71.44 47.66 74.43 46.59 77.37 C 45.10 78.23 43.39 78.74 42.04 79.83 C 43.37 79.94 44.69 79.85 46.00 79.59 C 46.24 80.65 46.50 81.71 46.77 82.77 L 47.15 84.21 C 46.46 84.41 45.09 84.79 44.40 84.99 L 43.60 85.06 C 43.12 85.16 42.17 85.36 41.69 85.46 C 38.87 85.06 36.08 84.47 33.31 83.77 C 33.41 83.34 33.59 82.50 33.68 82.08 C 36.03 81.75 38.46 81.52 40.60 80.41 C 35.62 80.85 30.66 82.37 25.64 81.17 C 24.29 78.59 23.08 75.93 21.49 73.49 C 29.31 75.34 37.34 73.81 45.01 72.00 C 45.06 70.91 45.12 69.82 45.19 68.73 Z" />
<path fill="#f0ebd8" opacity="1.00" d=" M 14.49 90.03 C 18.19 90.78 13.28 93.18 11.98 91.18 C 12.61 90.90 13.86 90.32 14.49 90.03 Z" />
<path fill="#f0ebd8" opacity="1.00" d=" M 16.31 92.83 C 16.14 91.43 19.40 88.79 19.97 91.18 C 20.03 92.95 17.58 93.24 16.31 92.83 Z" />
<path fill="#f0ebd8" opacity="1.00" d=" M 49.15 93.23 C 50.38 93.02 51.63 92.87 52.88 92.76 C 52.96 93.62 53.12 95.34 53.20 96.21 C 51.32 96.52 48.24 95.70 49.15 93.23 Z" />
<path fill="#f0ebd8" opacity="1.00" d=" M 56.12 93.01 C 58.19 92.50 59.65 93.68 60.81 95.29 C 59.27 96.02 57.56 96.13 55.89 96.28 C 55.95 95.46 56.06 93.83 56.12 93.01 Z" />
</g>
<g id="#cbdde6ff">
<path fill="#cbdde6" opacity="1.00" d=" M 77.39 39.32 C 79.08 39.37 79.02 42.89 76.94 42.39 C 75.56 41.88 76.87 40.07 77.39 39.32 Z" />
<path fill="#cbdde6" opacity="1.00" d=" M 91.47 40.72 L 92.12 41.38 C 92.21 42.75 92.25 44.12 92.29 45.49 C 95.68 48.63 98.01 52.76 99.33 57.16 C 98.49 57.92 97.59 58.60 96.70 59.30 C 96.53 59.98 96.21 61.34 96.04 62.02 C 95.63 62.08 94.80 62.19 94.38 62.25 C 92.84 56.53 89.51 51.62 86.65 46.53 C 87.55 45.59 88.45 44.65 89.36 43.71 C 89.58 42.42 90.45 41.48 91.47 40.72 M 94.22 52.42 C 93.34 53.37 94.68 55.33 95.87 54.64 C 96.75 53.69 95.40 51.73 94.22 52.42 Z" />
<path fill="#cbdde6" opacity="1.00" d=" M 73.88 45.31 C 75.19 44.29 76.53 43.33 77.88 42.36 C 79.34 43.53 80.81 44.67 82.32 45.77 C 81.79 46.55 81.26 47.33 80.73 48.11 C 82.21 47.19 83.70 46.28 85.23 45.44 C 85.24 47.15 85.24 48.85 85.23 50.56 C 85.56 50.06 86.23 49.07 86.57 48.58 C 89.16 53.17 91.79 57.79 93.33 62.87 C 91.02 66.25 88.05 69.14 84.28 70.81 C 81.03 62.55 77.24 54.36 71.89 47.22 C 72.53 46.56 73.19 45.92 73.88 45.31 M 76.05 47.18 C 75.04 49.86 78.19 51.73 79.98 53.18 C 81.89 50.41 79.95 45.01 76.05 47.18 M 83.23 57.31 C 82.88 58.71 83.39 59.24 84.76 58.89 C 85.11 57.48 84.60 56.95 83.23 57.31 M 88.37 63.15 C 87.96 64.55 88.46 65.04 89.85 64.62 C 90.26 63.21 89.76 62.72 88.37 63.15 Z" />
<path fill="#cbdde6" opacity="1.00" d=" M 103.30 46.18 C 104.52 46.81 104.41 47.49 102.96 48.22 C 101.75 47.62 101.86 46.94 103.30 46.18 Z" />
<path fill="#cbdde6" opacity="1.00" d=" M 64.45 47.69 C 66.56 46.67 68.77 47.69 70.89 48.08 C 75.98 54.84 79.60 62.57 82.75 70.39 C 80.55 74.65 75.32 78.45 70.67 75.32 C 66.00 70.84 61.53 66.17 58.14 60.62 C 57.32 57.97 56.43 55.10 57.70 52.43 C 57.82 51.95 58.04 50.97 58.16 50.49 C 58.68 50.09 59.72 49.30 60.24 48.90 L 60.58 48.64 C 61.11 48.50 62.16 48.24 62.68 48.11 C 63.12 48.01 64.01 47.80 64.45 47.69 M 59.42 51.73 C 60.22 52.51 61.19 52.90 62.34 52.90 C 61.28 53.51 60.21 54.12 59.14 54.72 C 60.24 56.39 61.73 58.26 64.01 57.78 C 63.91 59.78 67.56 58.69 66.06 57.17 C 66.90 55.35 66.76 53.31 66.88 51.36 C 65.38 50.85 63.88 50.34 62.38 49.82 L 62.56 50.47 C 61.56 49.81 59.48 50.47 59.42 51.73 M 65.38 61.78 L 65.91 61.95 C 66.77 63.37 67.24 65.98 69.46 64.50 C 69.49 64.48 69.56 64.44 69.59 64.42 C 69.95 64.07 70.66 63.35 71.02 62.99 C 71.63 63.29 72.84 63.88 73.44 64.17 C 71.93 62.20 70.01 60.49 67.56 59.82 L 67.26 59.58 C 65.86 59.45 65.23 60.18 65.38 61.78 M 73.13 71.06 C 71.37 71.60 72.93 73.98 73.08 75.16 C 74.89 76.26 76.86 73.70 76.09 72.09 C 75.20 71.45 74.21 71.10 73.13 71.06 Z" />
<path fill="#cbdde6" opacity="1.00" d=" M 105.12 47.00 C 105.89 47.00 107.42 47.00 108.18 47.00 C 108.23 47.38 108.32 48.14 108.37 48.51 C 107.71 49.25 107.02 49.96 106.29 50.63 C 104.12 52.55 102.32 54.84 100.61 57.17 C 99.53 53.90 97.89 50.88 96.40 47.80 C 99.05 47.95 101.57 48.76 103.99 49.80 C 104.37 48.87 104.75 47.93 105.12 47.00 Z" />
<path fill="#cbdde6" opacity="1.00" d=" M 97.21 59.87 C 100.30 58.52 97.26 63.20 97.21 59.87 Z" />
</g>
</svg>
