<?xml version="1.0" encoding="UTF-8" ?>
<!DOCTYPE svg PUBLIC "-//W3C//DTD SVG 1.1//EN" "http://www.w3.org/Graphics/SVG/1.1/DTD/svg11.dtd">
<svg width="120pt" height="120pt" viewBox="0 0 120 120" version="1.1" xmlns="http://www.w3.org/2000/svg">
<g id="#04252ffd">
<path fill="#04252f" opacity="1.00" d=" M 72.10 15.81 C 72.75 15.93 74.04 16.16 74.68 16.28 C 76.24 18.57 75.87 21.41 75.97 24.02 C 75.98 27.82 77.35 31.42 77.88 35.15 C 78.22 37.76 77.22 40.27 76.93 42.84 C 82.85 45.26 88.43 48.49 93.28 52.69 C 99.22 56.85 104.69 63.44 104.13 71.10 C 102.18 71.85 100.34 72.87 98.34 73.47 C 96.97 74.08 95.43 73.68 93.99 73.76 C 93.61 77.24 94.64 80.94 93.23 84.25 C 93.24 79.82 93.86 74.92 91.22 71.04 C 87.88 67.19 83.62 64.02 81.55 59.20 C 84.70 62.15 87.51 65.45 90.81 68.23 C 93.77 71.75 98.60 71.66 102.67 70.48 C 103.55 67.43 102.00 64.47 100.43 61.95 C 97.56 57.42 93.18 54.20 89.02 50.95 C 85.75 48.42 82.18 46.17 78.13 45.16 C 76.51 44.03 76.11 42.23 76.35 40.37 C 77.61 34.88 75.41 29.49 75.33 24.01 C 75.29 21.26 74.98 18.24 72.61 16.45 L 72.10 15.81 M 93.23 72.25 C 93.80 72.82 93.80 72.82 93.23 72.25 M 96.36 72.38 C 96.92 72.94 96.92 72.94 96.36 72.38 Z" />
</g>
<g id="#052531fc">
<path fill="#052531" opacity="1.00" d=" M 43.29 17.09 C 46.77 17.02 49.65 19.55 53.03 20.00 C 58.79 20.26 64.76 20.60 70.12 18.07 C 66.05 21.99 60.08 21.04 54.94 21.02 C 51.03 21.01 47.52 19.13 43.85 18.07 C 41.88 21.83 42.02 26.19 41.21 30.26 C 40.68 32.12 40.05 33.98 39.85 35.92 C 39.76 38.90 40.15 41.89 41.09 44.73 C 40.41 44.81 39.04 44.99 38.35 45.08 C 39.41 42.05 37.70 39.07 37.95 36.01 C 38.00 32.69 40.03 29.85 40.78 26.70 C 41.33 23.47 41.05 19.74 43.29 17.09 Z" />
</g>
<g id="#0a799bff">
<path fill="#0a799b" opacity="1.00" d=" M 72.61 16.45 C 74.98 18.24 75.29 21.26 75.33 24.01 C 75.41 29.49 77.61 34.88 76.35 40.37 C 74.90 41.54 73.34 42.68 71.48 43.07 C 71.26 41.64 71.07 40.21 70.92 38.77 C 70.82 37.46 70.69 36.16 70.45 34.87 C 69.80 30.33 67.17 25.78 62.76 24.04 C 59.20 23.87 55.94 26.07 52.34 25.89 C 51.24 25.22 50.15 24.53 48.98 23.99 C 45.82 25.24 43.40 27.74 41.21 30.26 C 42.02 26.19 41.88 21.83 43.85 18.07 C 47.52 19.13 51.03 21.01 54.94 21.02 C 60.08 21.04 66.05 21.99 70.12 18.07 C 70.74 17.66 71.99 16.86 72.61 16.45 Z" />
</g>
<g id="#f5ebdbff">
<path fill="#f5ebdb" opacity="1.00" d=" M 41.21 30.26 C 43.40 27.74 45.82 25.24 48.98 23.99 C 50.15 24.53 51.24 25.22 52.34 25.89 C 50.84 26.63 49.37 27.42 47.93 28.26 C 46.87 28.70 46.48 29.47 46.76 30.55 C 47.01 32.04 47.30 33.53 47.75 34.98 C 48.21 35.34 49.14 36.06 49.60 36.42 C 52.81 38.93 56.87 40.28 60.95 39.83 C 64.51 39.48 69.33 38.99 70.45 34.87 C 70.69 36.16 70.82 37.46 70.92 38.77 C 70.44 40.69 69.81 42.57 69.11 44.42 C 61.83 44.60 54.43 46.71 47.23 44.78 C 43.16 43.69 41.17 39.56 39.85 35.92 C 40.05 33.98 40.68 32.12 41.21 30.26 M 43.38 30.09 C 43.56 33.38 46.40 28.56 43.38 30.09 Z" />
</g>
<g id="#fffcecff">
<path fill="#fffcec" opacity="1.00" d=" M 52.34 25.89 C 55.94 26.07 59.20 23.87 62.76 24.04 C 67.17 25.78 69.80 30.33 70.45 34.87 C 69.33 38.99 64.51 39.48 60.95 39.83 C 56.87 40.28 52.81 38.93 49.60 36.42 C 52.39 36.18 55.19 36.05 57.94 35.51 C 57.78 34.69 57.42 33.93 56.96 33.24 C 54.44 35.59 50.88 34.95 47.75 34.98 C 47.30 33.53 47.01 32.04 46.76 30.55 C 47.37 30.36 48.59 29.98 49.20 29.79 C 48.88 29.41 48.25 28.64 47.93 28.26 C 49.37 27.42 50.84 26.63 52.34 25.89 M 57.24 29.30 C 58.07 30.79 61.27 30.19 62.79 29.70 C 61.95 28.21 58.76 28.80 57.24 29.30 M 48.23 33.22 C 48.83 33.82 48.83 33.82 48.23 33.22 Z" />
<path fill="#fffcec" opacity="1.00" d=" M 49.95 50.29 C 56.65 50.60 63.29 49.41 69.96 49.06 L 70.90 49.05 C 76.30 56.74 80.54 66.85 77.47 76.24 C 70.32 76.66 63.13 78.64 55.97 77.10 C 50.58 76.31 44.16 74.85 41.71 69.35 C 40.18 64.48 41.08 58.95 43.53 54.52 C 44.76 52.04 47.44 50.98 49.95 50.29 Z" />
<path fill="#fffcec" opacity="1.00" d=" M 75.47 98.82 C 79.50 98.28 84.22 96.02 88.01 98.41 C 86.68 99.43 85.38 100.48 84.02 101.44 C 83.14 100.86 82.44 100.07 81.65 99.38 C 80.06 99.90 78.64 100.83 77.11 101.51 C 76.56 100.61 76.01 99.72 75.47 98.82 Z" />
</g>
<g id="#4e4b46ff">
<path fill="#4e4b46" opacity="1.00" d=" M 46.76 30.55 C 46.48 29.47 46.87 28.70 47.93 28.26 C 48.25 28.64 48.88 29.41 49.20 29.79 C 48.59 29.98 47.37 30.36 46.76 30.55 Z" />
</g>
<g id="#2e2e2dff">
<path fill="#2e2e2d" opacity="1.00" d=" M 57.24 29.30 C 58.76 28.80 61.95 28.21 62.79 29.70 C 61.27 30.19 58.07 30.79 57.24 29.30 Z" />
</g>
<g id="#58544eff">
<path fill="#58544e" opacity="1.00" d=" M 43.38 30.09 C 46.40 28.56 43.56 33.38 43.38 30.09 Z" />
</g>
<g id="#4a4742ff">
<path fill="#4a4742" opacity="1.00" d=" M 48.23 33.22 C 48.83 33.82 48.83 33.82 48.23 33.22 Z" />
</g>
<g id="#6d6352ff">
<path fill="#6d6352" opacity="1.00" d=" M 56.96 33.24 C 57.42 33.93 57.78 34.69 57.94 35.51 C 55.19 36.05 52.39 36.18 49.60 36.42 C 49.14 36.06 48.21 35.34 47.75 34.98 C 50.88 34.95 54.44 35.59 56.96 33.24 Z" />
</g>
<g id="#c7beb4ff">
<path fill="#c7beb4" opacity="1.00" d=" M 39.85 35.92 C 41.17 39.56 43.16 43.69 47.23 44.78 C 54.43 46.71 61.83 44.60 69.11 44.42 C 69.31 45.98 69.63 47.52 69.96 49.06 C 63.29 49.41 56.65 50.60 49.95 50.29 C 46.82 49.95 43.71 49.37 40.63 48.73 C 41.43 47.98 42.22 47.22 42.93 46.38 C 42.47 45.97 41.55 45.14 41.09 44.73 C 40.15 41.89 39.76 38.90 39.85 35.92 Z" />
</g>
<g id="#01546cff">
<path fill="#01546c" opacity="1.00" d=" M 69.11 44.42 C 69.81 42.57 70.44 40.69 70.92 38.77 C 71.07 40.21 71.26 41.64 71.48 43.07 C 73.34 42.68 74.90 41.54 76.35 40.37 C 76.11 42.23 76.51 44.03 78.13 45.16 C 75.82 46.64 73.43 48.00 70.90 49.05 L 69.96 49.06 C 69.63 47.52 69.31 45.98 69.11 44.42 Z" />
</g>
<g id="#005168ff">
<path fill="#005168" opacity="1.00" d=" M 34.11 46.72 C 35.28 45.68 36.81 45.21 38.35 45.08 C 39.04 44.99 40.41 44.81 41.09 44.73 C 41.55 45.14 42.47 45.97 42.93 46.38 C 42.22 47.22 41.43 47.98 40.63 48.73 C 35.27 51.76 32.10 57.35 29.78 62.85 C 27.54 68.65 27.00 75.51 29.67 81.26 C 32.65 87.46 39.44 91.03 46.05 91.86 C 51.09 92.05 56.23 92.34 61.22 91.38 C 63.70 90.78 65.91 89.47 68.12 88.27 C 68.92 87.84 69.71 87.42 70.51 86.99 C 75.64 89.75 81.76 87.30 86.13 84.18 C 90.32 81.21 90.70 75.70 91.22 71.04 C 93.86 74.92 93.24 79.82 93.23 84.25 C 92.69 87.44 91.80 91.65 88.65 93.13 C 86.04 93.46 83.54 94.25 81.09 95.14 C 77.56 96.29 73.90 96.93 70.20 97.14 C 57.51 94.80 43.66 98.67 31.86 92.12 C 25.50 88.07 24.92 79.65 25.01 72.83 C 24.99 72.46 24.97 71.72 24.96 71.35 C 23.57 71.57 22.17 71.66 20.78 71.84 C 21.99 69.31 18.00 69.10 18.92 71.74 L 18.92 72.77 C 18.36 72.83 17.25 72.94 16.69 73.00 C 17.64 72.51 18.83 70.34 17.10 70.09 C 16.16 70.66 15.82 71.56 16.05 72.78 L 15.23 72.87 C 14.75 67.09 16.85 61.09 21.99 57.98 C 20.93 59.87 19.93 61.80 19.16 63.83 C 21.08 64.81 23.35 65.19 25.44 64.55 C 27.38 62.32 28.57 59.58 30.08 57.07 C 31.93 53.78 34.31 50.79 35.79 47.30 C 35.37 47.16 34.53 46.86 34.11 46.72 Z" />
</g>
<g id="#09789aff">
<path fill="#09789a" opacity="1.00" d=" M 78.13 45.16 C 82.18 46.17 85.75 48.42 89.02 50.95 C 93.18 54.20 97.56 57.42 100.43 61.95 C 100.31 64.15 100.15 66.39 99.42 68.49 C 96.61 69.37 93.65 68.61 90.81 68.23 C 87.51 65.45 84.70 62.15 81.55 59.20 C 83.62 64.02 87.88 67.19 91.22 71.04 C 90.70 75.70 90.32 81.21 86.13 84.18 C 81.76 87.30 75.64 89.75 70.51 86.99 C 73.42 83.85 76.17 80.39 77.47 76.24 C 80.54 66.85 76.30 56.74 70.90 49.05 C 73.43 48.00 75.82 46.64 78.13 45.16 Z" />
</g>
<g id="#076c8aff">
<path fill="#076c8a" opacity="1.00" d=" M 21.99 57.98 C 25.70 53.92 29.39 49.64 34.11 46.72 C 34.53 46.86 35.37 47.16 35.79 47.30 C 34.31 50.79 31.93 53.78 30.08 57.07 C 28.57 59.58 27.38 62.32 25.44 64.55 C 23.35 65.19 21.08 64.81 19.16 63.83 C 19.93 61.80 20.93 59.87 21.99 57.98 Z" />
</g>
<g id="#f6ecdcff">
<path fill="#f6ecdc" opacity="1.00" d=" M 29.78 62.85 C 32.10 57.35 35.27 51.76 40.63 48.73 C 43.71 49.37 46.82 49.95 49.95 50.29 C 47.44 50.98 44.76 52.04 43.53 54.52 C 41.08 58.95 40.18 64.48 41.71 69.35 C 44.16 74.85 50.58 76.31 55.97 77.10 C 63.13 78.64 70.32 76.66 77.47 76.24 C 76.17 80.39 73.42 83.85 70.51 86.99 C 69.71 87.42 68.92 87.84 68.12 88.27 C 57.10 87.15 44.84 87.42 35.60 80.35 C 30.24 76.32 29.55 69.05 29.78 62.85 Z" />
</g>
<g id="#025b74ff">
<path fill="#025b74" opacity="1.00" d=" M 100.43 61.95 C 102.00 64.47 103.55 67.43 102.67 70.48 C 98.60 71.66 93.77 71.75 90.81 68.23 C 93.65 68.61 96.61 69.37 99.42 68.49 C 100.15 66.39 100.31 64.15 100.43 61.95 Z" />
</g>
<g id="#dbd2c4ff">
<path fill="#dbd2c4" opacity="1.00" d=" M 29.67 81.26 C 27.00 75.51 27.54 68.65 29.78 62.85 C 29.55 69.05 30.24 76.32 35.60 80.35 C 44.84 87.42 57.10 87.15 68.12 88.27 C 65.91 89.47 63.70 90.78 61.22 91.38 C 50.36 89.64 38.46 88.59 29.67 81.26 Z" />
</g>
<g id="#6d6c6cff">
<path fill="#6d6c6c" opacity="1.00" d=" M 17.10 70.09 C 18.83 70.34 17.64 72.51 16.69 73.00 L 16.05 72.78 C 15.82 71.56 16.16 70.66 17.10 70.09 Z" />
</g>
<g id="#c3baafff">
<path fill="#c3baaf" opacity="1.00" d=" M 18.92 71.74 C 18.00 69.10 21.99 69.31 20.78 71.84 C 20.32 71.81 19.39 71.76 18.92 71.74 Z" />
<path fill="#c3baaf" opacity="1.00" d=" M 29.67 81.26 C 38.46 88.59 50.36 89.64 61.22 91.38 C 56.23 92.34 51.09 92.05 46.05 91.86 C 39.44 91.03 32.65 87.46 29.67 81.26 Z" />
</g>
<g id="#58595bff">
<path fill="#58595b" opacity="1.00" d=" M 98.34 73.47 C 100.34 72.87 102.18 71.85 104.13 71.10 C 104.09 72.39 104.02 73.68 103.90 74.97 C 102.08 74.78 99.20 75.66 98.34 73.47 Z" />
</g>
<g id="#63b9e4ff">
<path fill="#63b9e4" opacity="1.00" d=" M 93.23 72.25 C 93.80 72.82 93.80 72.82 93.23 72.25 Z" />
</g>
<g id="#a5a5a5ff">
<path fill="#a5a5a5" opacity="1.00" d=" M 96.36 72.38 C 96.92 72.94 96.92 72.94 96.36 72.38 Z" />
</g>
<g id="#283539fb">
<path fill="#283539" opacity="1.00" d=" M 24.04 77.00 C 24.23 75.65 23.47 73.59 25.01 72.83 C 24.92 79.65 25.50 88.07 31.86 92.12 C 43.66 98.67 57.51 94.80 70.20 97.14 C 69.71 97.48 68.72 98.15 68.22 98.48 C 68.91 99.79 69.80 100.97 70.67 102.16 L 71.19 102.88 C 68.16 102.29 67.38 99.23 65.78 97.06 C 61.01 96.79 56.18 96.68 51.42 97.14 C 50.77 98.31 50.22 99.54 49.55 100.71 C 43.85 101.09 38.14 102.90 32.42 101.56 C 29.30 100.67 25.76 101.62 22.91 99.86 C 24.00 98.60 25.02 96.66 26.80 96.43 C 28.47 97.54 30.10 98.92 32.10 99.35 C 33.35 99.14 34.57 98.78 35.81 98.53 C 37.02 99.24 38.15 100.06 39.32 100.82 C 42.46 100.97 45.62 100.41 48.69 99.78 C 49.33 99.00 49.88 98.15 50.33 97.24 C 46.81 96.95 43.20 97.26 39.78 96.22 C 35.97 95.37 32.28 93.08 28.26 93.95 C 28.48 93.48 28.93 92.55 29.15 92.08 C 25.72 87.79 24.30 82.41 24.04 77.00 M 25.24 98.33 C 24.70 99.95 25.25 100.49 26.89 99.94 C 27.44 98.30 26.88 97.76 25.24 98.33 M 28.31 99.12 C 28.41 102.45 31.37 97.61 28.31 99.12 M 34.96 99.11 C 33.31 99.50 34.53 101.75 35.86 101.22 C 37.51 100.88 36.20 98.67 34.96 99.11 Z" />
</g>
<g id="#c9bfb5ff">
<path fill="#c9bfb5" opacity="1.00" d=" M 28.26 93.95 C 32.28 93.08 35.97 95.37 39.78 96.22 C 43.20 97.26 46.81 96.95 50.33 97.24 C 49.88 98.15 49.33 99.00 48.69 99.78 C 45.62 100.41 42.46 100.97 39.32 100.82 C 38.15 100.06 37.02 99.24 35.81 98.53 C 34.57 98.78 33.35 99.14 32.10 99.35 C 30.10 98.92 28.47 97.54 26.80 96.43 C 27.17 95.81 27.90 94.57 28.26 93.95 Z" />
</g>
<g id="#12272dff">
<path fill="#12272d" opacity="1.00" d=" M 81.09 95.14 C 83.54 94.25 86.04 93.46 88.65 93.13 C 89.47 94.52 90.24 95.95 90.94 97.41 L 90.24 96.96 C 87.73 94.66 84.24 94.83 81.09 95.14 Z" />
</g>
<g id="#cdc4b9ff">
<path fill="#cdc4b9" opacity="1.00" d=" M 81.09 95.14 C 84.24 94.83 87.73 94.66 90.24 96.96 C 90.19 97.66 90.10 99.08 90.06 99.78 C 89.55 99.44 88.52 98.76 88.01 98.41 C 84.22 96.02 79.50 98.28 75.47 98.82 C 73.30 98.93 71.89 100.57 70.67 102.16 C 69.80 100.97 68.91 99.79 68.22 98.48 C 68.72 98.15 69.71 97.48 70.20 97.14 C 73.90 96.93 77.56 96.29 81.09 95.14 Z" />
</g>
<g id="#686561ff">
<path fill="#686561" opacity="1.00" d=" M 90.24 96.96 L 90.94 97.41 C 90.83 99.24 91.58 101.68 89.65 102.80 C 83.50 103.02 77.34 102.95 71.19 102.88 L 70.67 102.16 C 71.89 100.57 73.30 98.93 75.47 98.82 C 76.01 99.72 76.56 100.61 77.11 101.51 C 78.64 100.83 80.06 99.90 81.65 99.38 C 82.44 100.07 83.14 100.86 84.02 101.44 C 85.38 100.48 86.68 99.43 88.01 98.41 C 88.52 98.76 89.55 99.44 90.06 99.78 C 90.10 99.08 90.19 97.66 90.24 96.96 M 73.23 100.27 C 72.69 101.90 73.23 102.45 74.86 101.92 C 75.40 100.29 74.86 99.74 73.23 100.27 M 81.07 100.06 C 79.75 100.74 79.76 101.42 81.09 102.08 C 82.40 101.40 82.39 100.72 81.07 100.06 M 86.18 100.35 C 85.23 101.75 87.62 103.02 88.61 101.96 C 89.46 100.63 87.13 99.24 86.18 100.35 Z" />
</g>
<g id="#ebeaeaff">
<path fill="#ebeaea" opacity="1.00" d=" M 25.24 98.33 C 26.88 97.76 27.44 98.30 26.89 99.94 C 25.25 100.49 24.70 99.95 25.24 98.33 Z" />
</g>
<g id="#f2f1f0ff">
<path fill="#f2f1f0" opacity="1.00" d=" M 28.31 99.12 C 31.37 97.61 28.41 102.45 28.31 99.12 Z" />
</g>
<g id="#eae8e7ff">
<path fill="#eae8e7" opacity="1.00" d=" M 34.96 99.11 C 36.20 98.67 37.51 100.88 35.86 101.22 C 34.53 101.75 33.31 99.50 34.96 99.11 Z" />
</g>
<g id="#e8e5e4ff">
<path fill="#e8e5e4" opacity="1.00" d=" M 73.23 100.27 C 74.86 99.74 75.40 100.29 74.86 101.92 C 73.23 102.45 72.69 101.90 73.23 100.27 Z" />
</g>
<g id="#ebe8e5ff">
<path fill="#ebe8e5" opacity="1.00" d=" M 81.07 100.06 C 82.39 100.72 82.40 101.40 81.09 102.08 C 79.76 101.42 79.75 100.74 81.07 100.06 Z" />
</g>
<g id="#f5f4f2ff">
<path fill="#f5f4f2" opacity="1.00" d=" M 86.18 100.35 C 87.13 99.24 89.46 100.63 88.61 101.96 C 87.62 103.02 85.23 101.75 86.18 100.35 Z" />
</g>
</svg>
