<?xml version="1.0" encoding="UTF-8" ?>
<!DOCTYPE svg PUBLIC "-//W3C//DTD SVG 1.1//EN" "http://www.w3.org/Graphics/SVG/1.1/DTD/svg11.dtd">
<svg width="120pt" height="120pt" viewBox="0 0 120 120" version="1.1" xmlns="http://www.w3.org/2000/svg">
<g id="#2f2d29fb">
<path fill="#2f2d29" opacity="1.00" d=" M 47.81 31.88 C 49.92 33.16 51.98 34.54 53.89 36.11 C 56.82 34.33 60.04 33.17 63.27 32.06 C 62.77 33.36 62.24 34.66 61.74 35.96 C 62.16 35.86 63.01 35.65 63.43 35.55 C 65.64 38.17 69.42 35.07 72.26 34.97 C 71.94 35.84 71.61 36.70 71.28 37.57 L 70.51 37.56 C 67.07 37.49 63.65 37.75 60.21 37.74 C 60.36 36.57 60.49 35.40 60.63 34.23 C 59.19 35.59 57.80 37.00 56.39 38.39 C 56.52 37.83 56.78 36.70 56.92 36.13 C 52.52 36.13 48.19 36.80 44.06 38.32 C 45.19 41.02 46.38 43.70 47.63 46.35 C 50.02 45.58 52.43 44.85 54.78 43.95 C 54.72 45.38 55.38 46.12 56.76 46.17 C 56.39 46.94 56.03 47.72 55.70 48.52 C 52.89 47.29 49.84 47.30 46.90 48.00 C 47.15 49.79 47.46 51.58 47.71 53.38 L 47.73 53.92 C 46.86 54.57 46.00 55.23 45.16 55.90 C 45.90 52.74 46.47 49.44 45.85 46.21 C 44.94 42.79 42.09 39.43 43.83 35.80 C 44.85 36.15 45.87 36.52 46.88 36.89 C 47.12 35.21 47.42 33.53 47.81 31.88 Z" />
</g>
<g id="#c1885cff">
<path fill="#c1885c" opacity="1.00" d=" M 44.06 38.32 C 48.19 36.80 52.52 36.13 56.92 36.13 C 56.78 36.70 56.52 37.83 56.39 38.39 C 57.80 37.00 59.19 35.59 60.63 34.23 C 60.49 35.40 60.36 36.57 60.21 37.74 C 63.65 37.75 67.07 37.49 70.51 37.56 C 70.16 37.90 69.46 38.59 69.11 38.93 C 67.77 40.25 66.48 41.62 65.19 42.98 C 65.96 44.00 66.73 45.03 67.50 46.06 C 67.05 46.35 66.14 46.94 65.69 47.23 C 65.38 47.44 64.75 47.85 64.44 48.06 C 64.75 49.00 65.07 49.94 65.37 50.89 C 62.79 50.17 60.11 49.69 57.43 50.00 C 56.90 50.09 55.84 50.27 55.32 50.37 C 55.41 49.90 55.61 48.98 55.70 48.52 C 56.03 47.72 56.39 46.94 56.76 46.17 C 58.19 44.68 56.42 42.61 54.78 43.95 C 52.43 44.85 50.02 45.58 47.63 46.35 C 46.38 43.70 45.19 41.02 44.06 38.32 Z" />
</g>
<g id="#463324ff">
<path fill="#463324" opacity="1.00" d=" M 65.19 42.98 C 66.48 41.62 67.77 40.25 69.11 38.93 C 68.41 41.27 67.93 43.66 67.50 46.06 C 66.73 45.03 65.96 44.00 65.19 42.98 Z" />
</g>
<g id="#ecedf1ff">
<path fill="#ecedf1" opacity="1.00" d=" M 54.78 43.95 C 56.42 42.61 58.19 44.68 56.76 46.17 C 55.38 46.12 54.72 45.38 54.78 43.95 Z" />
</g>
<g id="#f8d8ddff">
<path fill="#f8d8dd" opacity="1.00" d=" M 46.90 48.00 C 49.84 47.30 52.89 47.29 55.70 48.52 C 55.61 48.98 55.41 49.90 55.32 50.37 C 52.88 51.61 50.36 52.68 47.71 53.38 C 47.46 51.58 47.15 49.79 46.90 48.00 Z" />
<path fill="#f8d8dd" opacity="1.00" d=" M 47.82 86.49 C 49.19 84.68 50.78 83.05 52.60 81.69 C 52.90 82.28 53.51 83.47 53.81 84.06 C 51.94 85.16 49.97 86.08 47.82 86.49 Z" />
<path fill="#f8d8dd" opacity="1.00" d=" M 69.43 85.12 C 70.56 84.20 71.23 84.45 71.44 85.87 C 70.30 86.78 69.63 86.53 69.43 85.12 Z" />
</g>
<g id="#4a3124ff">
<path fill="#4a3124" opacity="1.00" d=" M 64.44 48.06 C 64.75 47.85 65.38 47.44 65.69 47.23 C 67.06 49.20 68.14 51.54 70.35 52.71 C 72.88 53.92 73.87 56.62 75.01 58.97 C 77.25 63.38 75.43 68.39 74.25 72.84 C 76.05 73.92 77.78 75.18 78.52 77.25 C 75.59 76.44 72.87 75.04 70.48 73.18 C 70.05 73.79 69.62 74.39 69.18 75.00 C 69.81 72.00 70.69 68.71 69.42 65.76 C 68.05 62.61 66.41 59.60 64.71 56.62 C 60.89 60.20 56.44 63.08 53.00 67.06 C 51.68 64.35 50.06 61.80 48.25 59.40 C 48.07 61.34 47.91 63.28 47.82 65.23 C 48.24 70.21 50.34 75.66 54.96 78.11 C 59.30 78.22 64.00 79.06 68.12 77.32 C 68.05 78.86 68.00 80.39 67.94 81.94 C 69.60 82.80 71.27 83.63 72.98 84.41 C 72.99 85.66 73.01 86.92 73.01 88.17 C 69.87 87.19 66.65 86.62 63.36 86.44 C 63.73 84.43 64.28 82.39 64.01 80.33 C 61.53 77.38 56.76 79.29 54.67 81.88 C 55.83 83.30 57.18 84.57 58.49 85.85 C 52.66 87.16 46.56 86.46 40.76 87.96 C 41.66 86.59 42.44 85.12 43.58 83.93 C 45.38 83.58 47.37 84.09 49.01 83.09 C 50.76 82.09 52.05 80.47 53.49 79.10 C 50.78 76.24 48.34 73.15 45.79 70.16 L 45.49 69.56 C 46.57 66.63 46.98 63.52 47.24 60.43 C 47.43 58.26 47.66 56.09 47.73 53.92 L 47.71 53.38 C 50.36 52.68 52.88 51.61 55.32 50.37 C 55.84 50.27 56.90 50.09 57.43 50.00 C 54.84 52.52 51.83 54.53 48.71 56.33 C 49.17 56.45 50.08 56.68 50.54 56.80 C 51.03 59.21 51.56 61.61 52.16 64.00 C 58.35 62.16 59.58 54.29 65.84 52.47 C 65.72 52.07 65.48 51.28 65.37 50.89 C 65.07 49.94 64.75 49.00 64.44 48.06 M 65.68 53.82 C 67.00 56.89 67.50 60.84 70.18 63.01 C 70.58 66.59 71.07 70.18 72.31 73.59 C 74.27 70.50 74.91 66.87 75.38 63.31 C 74.22 60.37 73.22 57.27 71.28 54.74 C 69.81 53.13 67.58 52.83 65.68 53.82 M 65.58 79.75 C 65.51 81.42 65.44 83.09 65.37 84.76 C 66.26 84.54 67.16 84.31 68.06 84.09 C 67.21 82.66 66.40 81.20 65.58 79.75 M 47.82 86.49 C 49.97 86.08 51.94 85.16 53.81 84.06 C 53.51 83.47 52.90 82.28 52.60 81.69 C 50.78 83.05 49.19 84.68 47.82 86.49 M 43.46 85.24 C 43.21 86.71 45.70 86.72 46.38 85.84 C 46.57 84.45 44.11 84.32 43.46 85.24 M 69.43 85.12 C 69.63 86.53 70.30 86.78 71.44 85.87 C 71.23 84.45 70.56 84.20 69.43 85.12 Z" />
</g>
<g id="#a16a4bff">
<path fill="#a16a4b" opacity="1.00" d=" M 57.43 50.00 C 60.11 49.69 62.79 50.17 65.37 50.89 C 65.48 51.28 65.72 52.07 65.84 52.47 C 59.58 54.29 58.35 62.16 52.16 64.00 C 51.56 61.61 51.03 59.21 50.54 56.80 C 50.08 56.68 49.17 56.45 48.71 56.33 C 51.83 54.53 54.84 52.52 57.43 50.00 Z" />
</g>
<g id="#e67c75ff">
<path fill="#e67c75" opacity="1.00" d=" M 65.68 53.82 C 67.58 52.83 69.81 53.13 71.28 54.74 C 73.22 57.27 74.22 60.37 75.38 63.31 C 73.64 63.23 71.91 63.16 70.18 63.01 C 67.50 60.84 67.00 56.89 65.68 53.82 Z" />
</g>
<g id="#e57b74ff">
<path fill="#e57b74" opacity="1.00" d=" M 45.16 55.90 C 46.00 55.23 46.86 54.57 47.73 53.92 C 47.66 56.09 47.43 58.26 47.24 60.43 C 45.88 60.69 44.53 60.98 43.18 61.28 C 43.41 59.84 43.65 58.40 43.91 56.97 C 44.22 56.70 44.85 56.17 45.16 55.90 Z" />
</g>
<g id="#1d1f27ff">
<path fill="#1d1f27" opacity="1.00" d=" M 45.79 70.16 C 41.55 67.43 41.00 60.94 43.91 56.97 C 43.65 58.40 43.41 59.84 43.18 61.28 C 43.33 64.17 44.35 66.93 45.49 69.56 L 45.79 70.16 Z" />
</g>
<g id="#fdf1d5ff">
<path fill="#fdf1d5" opacity="1.00" d=" M 53.00 67.06 C 56.44 63.08 60.89 60.20 64.71 56.62 C 66.41 59.60 68.05 62.61 69.42 65.76 C 65.90 67.85 62.28 70.48 57.98 70.31 C 53.93 70.44 50.69 67.72 47.82 65.23 C 47.91 63.28 48.07 61.34 48.25 59.40 C 50.06 61.80 51.68 64.35 53.00 67.06 Z" />
<path fill="#fdf1d5" opacity="1.00" d=" M 65.58 79.75 C 66.40 81.20 67.21 82.66 68.06 84.09 C 67.16 84.31 66.26 84.54 65.37 84.76 C 65.44 83.09 65.51 81.42 65.58 79.75 Z" />
<path fill="#fdf1d5" opacity="1.00" d=" M 43.46 85.24 C 44.11 84.32 46.57 84.45 46.38 85.84 C 45.70 86.72 43.21 86.71 43.46 85.24 Z" />
</g>
<g id="#bc525bff">
<path fill="#bc525b" opacity="1.00" d=" M 43.18 61.28 C 44.53 60.98 45.88 60.69 47.24 60.43 C 46.98 63.52 46.57 66.63 45.49 69.56 C 44.35 66.93 43.33 64.17 43.18 61.28 Z" />
</g>
<g id="#b94e59ff">
<path fill="#b94e59" opacity="1.00" d=" M 70.18 63.01 C 71.91 63.16 73.64 63.23 75.38 63.31 C 74.91 66.87 74.27 70.50 72.31 73.59 C 71.07 70.18 70.58 66.59 70.18 63.01 Z" />
</g>
<g id="#cec0afff">
<path fill="#cec0af" opacity="1.00" d=" M 47.82 65.23 C 50.69 67.72 53.93 70.44 57.98 70.31 C 62.28 70.48 65.90 67.85 69.42 65.76 C 70.69 68.71 69.81 72.00 69.18 75.00 C 68.92 75.58 68.39 76.74 68.12 77.32 C 64.00 79.06 59.30 78.22 54.96 78.11 C 50.34 75.66 48.24 70.21 47.82 65.23 M 60.25 72.27 C 60.79 72.81 60.79 72.81 60.25 72.27 Z" />
</g>
<g id="#594d3dff">
<path fill="#594d3d" opacity="1.00" d=" M 60.25 72.27 C 60.79 72.81 60.79 72.81 60.25 72.27 Z" />
</g>
<g id="#97d2f2ff">
<path fill="#97d2f2" opacity="1.00" d=" M 75.20 77.18 C 75.87 77.87 75.87 77.87 75.20 77.18 Z" />
</g>
</svg>
