<?xml version="1.0" encoding="UTF-8" ?>
<!DOCTYPE svg PUBLIC "-//W3C//DTD SVG 1.1//EN" "http://www.w3.org/Graphics/SVG/1.1/DTD/svg11.dtd">
<svg width="120pt" height="120pt" viewBox="0 0 120 120" version="1.1" xmlns="http://www.w3.org/2000/svg">
<g id="#1c1c1cff">
<path fill="#1c1c1c" opacity="1.00" d=" M 53.54 30.13 C 57.17 29.92 60.81 29.98 64.45 30.06 C 67.77 32.08 70.50 34.76 71.84 38.49 C 71.94 38.98 72.13 39.95 72.23 40.44 C 73.37 42.58 73.66 45.69 71.96 47.62 C 72.15 48.75 72.38 49.88 72.60 51.01 L 71.87 51.16 L 71.30 51.28 L 71.45 51.80 C 71.68 52.30 72.15 53.30 72.38 53.80 C 71.59 53.79 70.02 53.76 69.24 53.75 C 69.62 53.10 70.38 51.81 70.77 51.16 C 66.11 55.72 59.43 56.65 53.22 55.77 C 52.13 58.55 51.17 61.39 50.69 64.34 C 50.15 63.83 49.08 62.81 48.54 62.30 C 48.61 66.09 49.94 69.67 51.71 72.98 C 51.80 71.98 51.99 69.99 52.08 69.00 L 53.04 69.00 C 53.02 70.57 53.00 72.15 52.97 73.72 C 55.79 77.39 59.82 79.60 64.07 81.19 C 65.81 81.23 67.54 81.27 69.28 81.31 C 69.27 79.95 69.26 78.60 69.26 77.25 C 70.23 76.30 71.20 75.36 72.18 74.41 L 71.18 74.06 C 70.34 72.97 69.55 71.85 68.80 70.71 L 69.59 71.37 C 71.50 73.36 74.43 75.49 76.90 72.93 C 76.84 72.33 76.72 71.13 76.67 70.53 C 76.27 67.91 75.70 65.32 74.95 62.77 C 74.19 62.78 72.67 62.81 71.91 62.83 C 70.80 65.33 69.58 67.80 68.62 70.37 L 68.36 69.74 C 69.21 67.60 70.20 65.52 71.21 63.45 C 69.81 62.55 68.42 61.63 67.05 60.70 C 67.27 58.71 67.25 56.55 68.60 54.92 C 68.37 56.51 68.18 58.10 68.02 59.69 C 68.80 60.42 69.58 61.15 70.36 61.88 C 72.29 61.72 74.21 61.56 76.13 61.35 C 75.85 60.86 75.30 59.88 75.02 59.39 L 76.83 59.28 C 75.89 58.36 74.95 57.46 74.01 56.55 C 74.69 56.62 76.06 56.75 76.74 56.82 C 76.23 56.00 75.21 54.36 74.70 53.54 L 74.79 52.85 C 77.74 54.26 77.96 57.90 79.38 60.49 C 79.87 61.81 80.00 63.22 80.16 64.62 C 82.05 65.13 83.01 66.81 83.91 68.39 C 83.99 68.91 84.13 69.94 84.20 70.45 C 85.30 71.96 85.39 74.10 84.17 75.57 C 84.05 76.87 83.92 78.17 83.79 79.46 L 83.16 78.44 C 84.55 74.56 83.84 70.67 82.07 67.05 C 81.49 66.66 80.33 65.90 79.76 65.51 C 79.87 70.67 79.47 75.91 81.35 80.84 C 81.23 82.36 81.07 83.87 81.03 85.40 C 81.95 86.52 81.93 87.99 82.14 89.34 C 78.05 88.74 73.92 89.01 69.82 89.07 C 70.30 88.20 70.77 87.33 71.25 86.46 C 68.84 85.77 67.24 83.78 65.59 82.04 C 64.58 81.99 63.58 81.93 62.58 81.87 C 61.30 80.43 59.52 81.04 59.03 82.76 C 59.71 84.43 60.07 86.19 60.16 88.00 C 56.05 88.01 51.95 87.99 47.84 88.00 C 49.84 85.06 47.30 82.03 48.00 78.88 C 48.24 76.63 49.96 74.84 50.14 72.55 C 49.44 71.57 48.76 70.58 48.09 69.58 C 48.02 69.07 47.88 68.06 47.80 67.55 C 46.94 66.18 47.00 64.55 46.87 63.00 C 44.10 63.01 41.33 63.04 38.56 62.89 C 37.19 61.70 35.34 62.09 33.69 61.92 C 34.09 61.49 34.88 60.63 35.28 60.20 L 33.74 59.79 C 34.27 59.25 35.31 58.16 35.83 57.62 L 35.91 58.02 C 36.14 59.13 36.34 60.25 36.54 61.36 C 36.97 61.35 37.81 61.31 38.23 61.29 C 41.92 62.93 46.03 62.24 49.92 62.13 C 50.14 61.68 50.58 60.79 50.80 60.34 C 51.43 58.82 51.99 57.27 52.52 55.71 L 52.04 55.43 C 50.86 54.94 49.67 54.46 48.48 53.99 C 47.21 54.03 45.93 54.07 44.66 54.12 L 43.57 53.15 C 44.52 53.10 46.41 53.00 47.35 52.94 C 46.57 52.14 45.79 51.34 45.01 50.54 C 45.71 45.39 42.86 38.29 48.06 34.85 C 47.10 36.55 46.39 38.37 45.66 40.17 C 46.55 39.87 48.33 39.28 49.22 38.98 C 48.86 39.25 48.14 39.78 47.78 40.05 L 46.99 40.25 L 46.85 41.07 C 47.18 41.29 47.84 41.72 48.17 41.93 C 48.47 43.71 49.23 45.62 48.34 47.35 C 47.85 46.08 47.14 44.88 46.10 43.99 C 45.78 45.43 46.03 47.12 47.33 48.02 L 45.52 48.43 C 45.89 48.91 46.64 49.88 47.01 50.36 C 53.13 51.66 59.33 49.69 65.50 50.39 C 59.82 51.66 54.01 51.76 48.23 52.03 C 54.87 57.30 65.42 55.88 71.13 49.78 C 73.52 44.32 71.30 38.22 67.66 33.89 C 66.29 32.94 64.90 32.02 63.54 31.05 C 60.59 31.00 57.63 31.00 54.67 31.02 L 53.54 30.13 M 75.88 62.43 C 77.19 66.46 77.24 70.76 78.67 74.77 C 79.37 71.70 79.63 68.40 78.56 65.39 C 78.42 63.67 78.32 61.95 78.20 60.23 C 77.62 60.78 76.46 61.88 75.88 62.43 M 51.38 73.42 C 50.80 74.47 50.22 75.52 49.63 76.57 C 48.61 78.64 49.13 81.00 49.11 83.21 L 50.02 83.36 C 50.37 84.86 50.09 86.24 49.19 87.51 C 52.64 87.34 56.09 87.31 59.54 87.33 C 58.92 85.52 57.75 83.56 58.88 81.69 C 59.58 80.31 59.11 79.66 57.49 79.74 C 55.42 77.66 53.36 75.57 51.38 73.42 M 72.39 75.01 C 71.50 75.88 70.60 76.74 69.69 77.60 C 69.80 77.84 70.02 78.31 70.12 78.55 C 70.16 81.95 72.22 84.97 71.96 88.42 C 74.55 88.38 77.15 88.38 79.74 88.47 C 80.33 88.00 80.91 87.52 81.49 87.04 C 81.15 86.34 80.48 84.95 80.15 84.25 C 80.47 81.31 80.54 77.97 78.46 75.61 C 76.78 74.11 74.39 75.08 72.39 75.01 M 68.39 82.11 C 68.06 83.47 68.59 84.00 70.00 83.68 C 70.34 82.30 69.81 81.77 68.39 82.11 Z" />
<path fill="#1c1c1c" opacity="1.00" d=" M 60.98 38.89 C 61.33 38.96 62.03 39.08 62.38 39.15 C 63.01 40.98 63.68 42.81 64.82 44.39 C 64.51 45.28 64.19 46.17 63.87 47.06 C 62.38 47.35 60.90 47.70 59.39 47.84 C 57.40 46.53 58.18 43.91 58.10 41.92 C 58.37 41.54 58.90 40.78 59.17 40.40 C 59.45 40.74 60.01 41.41 60.29 41.75 C 62.54 43.08 62.23 39.74 60.98 38.89 M 59.67 46.43 C 60.41 47.18 61.33 47.19 62.41 46.46 C 62.53 45.96 62.77 44.97 62.89 44.47 C 61.64 44.36 60.59 45.70 59.67 46.43 Z" />
</g>
<g id="#a8f1ffff">
<path fill="#a8f1ff" opacity="1.00" d=" M 54.67 31.02 C 57.63 31.00 60.59 31.00 63.54 31.05 C 64.90 32.02 66.29 32.94 67.66 33.89 C 66.09 35.81 64.48 37.76 62.38 39.15 C 62.03 39.08 61.33 38.96 60.98 38.89 L 60.41 38.81 C 59.98 38.75 59.13 38.64 58.70 38.58 L 58.46 38.55 L 58.26 38.55 C 55.77 38.84 53.39 38.12 51.25 36.90 C 51.18 35.70 51.12 34.50 51.07 33.30 C 51.62 31.71 53.25 31.40 54.67 31.02 Z" />
</g>
<g id="#92d2e5ff">
<path fill="#92d2e5" opacity="1.00" d=" M 51.02 32.12 L 51.07 33.30 C 51.12 34.50 51.18 35.70 51.25 36.90 C 53.39 38.12 55.77 38.84 58.26 38.55 C 58.37 38.56 58.59 38.57 58.70 38.58 C 59.13 38.64 59.98 38.75 60.41 38.81 C 60.10 39.20 59.48 40.00 59.17 40.40 C 58.90 40.78 58.37 41.54 58.10 41.92 C 58.18 43.91 57.40 46.53 59.39 47.84 C 60.90 47.70 62.38 47.35 63.87 47.06 C 64.19 46.17 64.51 45.28 64.82 44.39 C 63.68 42.81 63.01 40.98 62.38 39.15 C 64.48 37.76 66.09 35.81 67.66 33.89 C 71.30 38.22 73.52 44.32 71.13 49.78 C 65.42 55.88 54.87 57.30 48.23 52.03 C 54.01 51.76 59.82 51.66 65.50 50.39 C 59.33 49.69 53.13 51.66 47.01 50.36 C 46.64 49.88 45.89 48.91 45.52 48.43 L 47.33 48.02 C 47.58 47.85 48.09 47.52 48.34 47.35 C 49.23 45.62 48.47 43.71 48.17 41.93 C 48.08 41.46 47.88 40.52 47.78 40.05 C 48.14 39.78 48.86 39.25 49.22 38.98 C 48.33 39.28 46.55 39.87 45.66 40.17 C 46.39 38.37 47.10 36.55 48.06 34.85 C 49.06 33.96 50.05 33.05 51.02 32.12 Z" />
</g>
<g id="#527782ff">
<path fill="#527782" opacity="1.00" d=" M 58.46 38.55 L 58.70 38.58 C 58.59 38.57 58.37 38.56 58.26 38.55 L 58.46 38.55 Z" />
</g>
<g id="#eceaebff">
<path fill="#eceaeb" opacity="1.00" d=" M 60.41 38.81 L 60.98 38.89 C 62.23 39.74 62.54 43.08 60.29 41.75 C 60.01 41.41 59.45 40.74 59.17 40.40 C 59.48 40.00 60.10 39.20 60.41 38.81 Z" />
</g>
<g id="#f8f8f8ff">
<path fill="#f8f8f8" opacity="1.00" d=" M 46.99 40.25 L 47.78 40.05 C 47.88 40.52 48.08 41.46 48.17 41.93 C 47.84 41.72 47.18 41.29 46.85 41.07 L 46.99 40.25 Z" />
</g>
<g id="#b2628bff">
<path fill="#b2628b" opacity="1.00" d=" M 46.10 43.99 C 47.14 44.88 47.85 46.08 48.34 47.35 C 48.09 47.52 47.58 47.85 47.33 48.02 C 46.03 47.12 45.78 45.43 46.10 43.99 Z" />
</g>
<g id="#c3739bff">
<path fill="#c3739b" opacity="1.00" d=" M 59.67 46.43 C 60.59 45.70 61.64 44.36 62.89 44.47 C 62.77 44.97 62.53 45.96 62.41 46.46 C 61.33 47.19 60.41 47.18 59.67 46.43 Z" />
</g>
<g id="#eceff6ff">
<path fill="#eceff6" opacity="1.00" d=" M 71.30 51.28 L 71.87 51.16 C 71.76 51.32 71.56 51.64 71.45 51.80 L 71.30 51.28 Z" />
</g>
<g id="#5a5f62ff">
<path fill="#5a5f62" opacity="1.00" d=" M 71.87 51.16 L 72.60 51.01 C 73.83 51.08 74.56 51.69 74.79 52.85 L 74.70 53.54 C 74.12 53.60 72.96 53.74 72.38 53.80 C 72.15 53.30 71.68 52.30 71.45 51.80 C 71.56 51.64 71.76 51.32 71.87 51.16 Z" />
</g>
<g id="#e2d5b7ff">
<path fill="#e2d5b7" opacity="1.00" d=" M 53.22 55.77 C 59.43 56.65 66.11 55.72 70.77 51.16 C 70.38 51.81 69.62 53.10 69.24 53.75 L 68.89 54.37 L 68.60 54.92 C 67.25 56.55 67.27 58.71 67.05 60.70 C 68.42 61.63 69.81 62.55 71.21 63.45 C 70.20 65.52 69.21 67.60 68.36 69.74 C 67.21 69.85 66.07 69.97 64.92 70.08 C 63.32 70.06 61.72 70.00 60.12 69.92 L 59.94 69.27 C 59.61 67.77 59.28 66.26 59.04 64.74 C 59.04 63.49 59.04 62.25 59.05 61.01 C 61.41 61.02 63.78 60.97 66.14 60.69 C 61.65 59.52 56.97 60.33 52.40 60.27 C 54.18 60.69 56.00 61.00 57.81 61.28 C 58.03 63.12 58.27 64.96 58.48 66.79 C 58.30 67.29 57.95 68.27 57.77 68.76 C 54.73 69.56 52.55 66.28 50.69 64.34 C 51.17 61.39 52.13 58.55 53.22 55.77 Z" />
</g>
<g id="#a9f2ffff">
<path fill="#a9f2ff" opacity="1.00" d=" M 44.66 54.12 C 45.93 54.07 47.21 54.03 48.48 53.99 C 49.67 54.46 50.86 54.94 52.04 55.43 L 52.52 55.71 C 47.64 56.71 42.81 58.02 37.81 58.26 C 39.06 57.40 40.34 56.57 41.54 55.64 L 42.52 54.71 C 43.05 54.56 44.12 54.27 44.66 54.12 Z" />
</g>
<g id="#94d4e7ff">
<path fill="#94d4e7" opacity="1.00" d=" M 68.89 54.37 L 69.24 53.75 C 70.02 53.76 71.59 53.79 72.38 53.80 C 72.96 53.74 74.12 53.60 74.70 53.54 C 75.21 54.36 76.23 56.00 76.74 56.82 C 76.06 56.75 74.69 56.62 74.01 56.55 C 74.95 57.46 75.89 58.36 76.83 59.28 L 75.02 59.39 C 75.30 59.88 75.85 60.86 76.13 61.35 C 74.21 61.56 72.29 61.72 70.36 61.88 C 69.58 61.15 68.80 60.42 68.02 59.69 C 68.18 58.10 68.37 56.51 68.60 54.92 L 68.89 54.37 Z" />
<path fill="#94d4e7" opacity="1.00" d=" M 72.39 75.01 C 74.39 75.08 76.78 74.11 78.46 75.61 C 80.54 77.97 80.47 81.31 80.15 84.25 C 77.61 83.90 74.08 85.29 72.47 82.64 C 71.53 81.38 70.81 79.96 70.12 78.55 C 70.02 78.31 69.80 77.84 69.69 77.60 C 70.60 76.74 71.50 75.88 72.39 75.01 Z" />
</g>
<g id="#95d6e9ff">
<path fill="#95d6e9" opacity="1.00" d=" M 39.30 55.39 C 39.86 55.45 40.98 55.57 41.54 55.64 C 40.34 56.57 39.06 57.40 37.81 58.26 C 42.81 58.02 47.64 56.71 52.52 55.71 C 51.99 57.27 51.43 58.82 50.80 60.34 C 46.60 60.51 42.42 60.95 38.23 61.29 C 37.81 61.31 36.97 61.35 36.54 61.36 C 36.34 60.25 36.14 59.13 35.91 58.02 C 36.85 57.07 37.93 56.33 39.33 56.41 L 39.30 55.39 Z" />
</g>
<g id="#66b3c8ff">
<path fill="#66b3c8" opacity="1.00" d=" M 38.23 61.29 C 42.42 60.95 46.60 60.51 50.80 60.34 C 50.58 60.79 50.14 61.68 49.92 62.13 C 46.03 62.24 41.92 62.93 38.23 61.29 Z" />
</g>
<g id="#746748ff">
<path fill="#746748" opacity="1.00" d=" M 52.40 60.27 C 56.97 60.33 61.65 59.52 66.14 60.69 C 63.78 60.97 61.41 61.02 59.05 61.01 C 59.04 62.25 59.04 63.49 59.04 64.74 C 58.90 65.25 58.62 66.28 58.48 66.79 C 58.27 64.96 58.03 63.12 57.81 61.28 C 56.00 61.00 54.18 60.69 52.40 60.27 Z" />
</g>
<g id="#dde1eaff">
<path fill="#dde1ea" opacity="1.00" d=" M 75.88 62.43 C 76.46 61.88 77.62 60.78 78.20 60.23 C 78.32 61.95 78.42 63.67 78.56 65.39 C 79.63 68.40 79.37 71.70 78.67 74.77 C 77.24 70.76 77.19 66.46 75.88 62.43 Z" />
</g>
<g id="#ac997bff">
<path fill="#ac997b" opacity="1.00" d=" M 48.54 62.30 C 49.08 62.81 50.15 63.83 50.69 64.34 C 52.55 66.28 54.73 69.56 57.77 68.76 C 57.95 68.27 58.30 67.29 58.48 66.79 C 58.62 66.28 58.90 65.25 59.04 64.74 C 59.28 66.26 59.61 67.77 59.94 69.27 C 58.47 69.85 56.93 70.24 55.40 70.63 C 56.77 70.97 58.15 71.30 59.49 71.77 C 63.05 73.84 67.17 74.02 71.18 74.06 L 72.18 74.41 C 71.20 75.36 70.23 76.30 69.26 77.25 C 69.26 78.60 69.27 79.95 69.28 81.31 C 67.54 81.27 65.81 81.23 64.07 81.19 C 59.82 79.60 55.79 77.39 52.97 73.72 C 53.00 72.15 53.02 70.57 53.04 69.00 L 52.08 69.00 C 51.99 69.99 51.80 71.98 51.71 72.98 C 49.94 69.67 48.61 66.09 48.54 62.30 M 60.11 74.25 C 58.52 77.24 63.39 74.50 60.11 74.25 M 61.28 77.25 C 61.81 77.77 61.81 77.77 61.28 77.25 M 64.21 79.08 C 64.30 82.34 67.32 77.64 64.21 79.08 Z" />
</g>
<g id="#e1d4b6ff">
<path fill="#e1d4b6" opacity="1.00" d=" M 71.91 62.83 C 72.67 62.81 74.19 62.78 74.95 62.77 C 75.70 65.32 76.27 67.91 76.67 70.53 C 74.31 70.84 71.95 71.16 69.59 71.37 L 68.80 70.71 L 68.62 70.37 C 69.58 67.80 70.80 65.33 71.91 62.83 Z" />
</g>
<g id="#91d0e2ff">
<path fill="#91d0e2" opacity="1.00" d=" M 79.76 65.51 C 80.33 65.90 81.49 66.66 82.07 67.05 C 83.84 70.67 84.55 74.56 83.16 78.44 C 82.71 79.04 81.80 80.24 81.35 80.84 C 79.47 75.91 79.87 70.67 79.76 65.51 Z" />
</g>
<g id="#574b2eff">
<path fill="#574b2e" opacity="1.00" d=" M 55.40 70.63 C 56.93 70.24 58.47 69.85 59.94 69.27 L 60.12 69.92 C 61.72 70.00 63.32 70.06 64.92 70.08 C 63.10 70.60 61.29 71.17 59.49 71.77 C 58.15 71.30 56.77 70.97 55.40 70.63 Z" />
</g>
<g id="#c6b698ff">
<path fill="#c6b698" opacity="1.00" d=" M 64.92 70.08 C 66.07 69.97 67.21 69.85 68.36 69.74 L 68.62 70.37 L 68.80 70.71 C 69.55 71.85 70.34 72.97 71.18 74.06 C 67.17 74.02 63.05 73.84 59.49 71.77 C 61.29 71.17 63.10 70.60 64.92 70.08 Z" />
<path fill="#c6b698" opacity="1.00" d=" M 69.59 71.37 C 71.95 71.16 74.31 70.84 76.67 70.53 C 76.72 71.13 76.84 72.33 76.90 72.93 C 74.43 75.49 71.50 73.36 69.59 71.37 Z" />
</g>
<g id="#92d2e4ff">
<path fill="#92d2e4" opacity="1.00" d=" M 51.38 73.42 C 53.36 75.57 55.42 77.66 57.49 79.74 C 56.88 81.23 56.33 82.74 55.78 84.25 C 53.86 83.97 51.94 83.68 50.02 83.36 L 49.11 83.21 C 49.13 81.00 48.61 78.64 49.63 76.57 C 50.22 75.52 50.80 74.47 51.38 73.42 Z" />
</g>
<g id="#4a3c1eff">
<path fill="#4a3c1e" opacity="1.00" d=" M 60.11 74.25 C 63.39 74.50 58.52 77.24 60.11 74.25 Z" />
</g>
<g id="#473b1dff">
<path fill="#473b1d" opacity="1.00" d=" M 61.28 77.25 C 61.81 77.77 61.81 77.77 61.28 77.25 Z" />
</g>
<g id="#281d07ff">
<path fill="#281d07" opacity="1.00" d=" M 64.21 79.08 C 67.32 77.64 64.30 82.34 64.21 79.08 Z" />
</g>
<g id="#5eafc5ff">
<path fill="#5eafc5" opacity="1.00" d=" M 70.12 78.55 C 70.81 79.96 71.53 81.38 72.47 82.64 C 74.08 85.29 77.61 83.90 80.15 84.25 C 80.48 84.95 81.15 86.34 81.49 87.04 C 80.91 87.52 80.33 88.00 79.74 88.47 C 77.15 88.38 74.55 88.38 71.96 88.42 C 72.22 84.97 70.16 81.95 70.12 78.55 M 76.23 86.00 C 76.40 89.31 79.23 84.45 76.23 86.00 Z" />
</g>
<g id="#5eb0c6ff">
<path fill="#5eb0c6" opacity="1.00" d=" M 57.49 79.74 C 59.11 79.66 59.58 80.31 58.88 81.69 C 57.75 83.56 58.92 85.52 59.54 87.33 C 56.09 87.31 52.64 87.34 49.19 87.51 C 50.09 86.24 50.37 84.86 50.02 83.36 C 51.94 83.68 53.86 83.97 55.78 84.25 C 56.33 82.74 56.88 81.23 57.49 79.74 Z" />
</g>
<g id="#5cacc2ff">
<path fill="#5cacc2" opacity="1.00" d=" M 68.39 82.11 C 69.81 81.77 70.34 82.30 70.00 83.68 C 68.59 84.00 68.06 83.47 68.39 82.11 Z" />
</g>
<g id="#407786ff">
<path fill="#407786" opacity="1.00" d=" M 76.23 86.00 C 79.23 84.45 76.40 89.31 76.23 86.00 Z" />
</g>
</svg>
