<?xml version="1.0" encoding="UTF-8" ?>
<!DOCTYPE svg PUBLIC "-//W3C//DTD SVG 1.1//EN" "http://www.w3.org/Graphics/SVG/1.1/DTD/svg11.dtd">
<svg width="120pt" height="120pt" viewBox="0 0 120 120" version="1.1" xmlns="http://www.w3.org/2000/svg">
<g id="#383019ff">
<path fill="#383019" opacity="1.00" d=" M 58.31 32.71 C 58.91 32.83 60.13 33.08 60.74 33.20 C 62.57 38.81 64.95 44.26 66.61 49.90 L 66.58 50.79 C 65.96 53.69 66.84 56.52 68.83 58.69 C 71.75 59.84 72.62 62.79 73.20 65.59 C 71.87 73.01 76.53 79.72 76.04 87.09 C 74.05 86.95 71.80 87.27 70.19 85.80 C 66.50 83.08 62.80 80.36 58.96 77.84 C 57.90 78.19 56.84 78.55 55.78 78.90 C 55.13 77.44 55.10 74.92 53.02 74.85 C 51.24 75.02 49.54 75.58 47.82 75.98 C 47.25 73.37 47.00 70.58 45.44 68.32 C 44.13 66.51 42.46 64.98 41.21 63.12 L 40.79 62.51 C 42.39 61.17 44.02 59.84 45.50 58.36 C 46.34 56.38 46.96 54.31 47.58 52.26 L 47.82 51.44 C 48.92 54.30 50.40 57.00 51.73 59.76 C 52.31 59.29 53.47 58.34 54.05 57.87 C 51.99 55.47 50.07 52.96 48.03 50.54 C 48.30 50.53 48.86 50.49 49.14 50.48 C 49.72 50.46 50.90 50.42 51.49 50.40 C 53.43 50.36 55.38 50.23 57.32 50.12 C 57.38 46.25 57.14 42.39 57.12 38.53 L 57.38 37.74 C 57.61 41.70 57.71 45.68 57.80 49.65 C 59.37 50.19 60.93 50.75 62.49 51.32 C 60.93 53.50 59.33 55.65 57.83 57.87 C 58.31 58.18 59.28 58.80 59.77 59.11 C 61.65 56.40 63.63 53.77 65.44 51.01 C 64.97 50.72 64.02 50.14 63.54 49.85 C 63.99 49.24 64.45 48.62 64.91 48.01 C 62.98 43.04 61.76 37.71 58.67 33.28 L 58.31 32.71 M 52.24 52.59 C 52.47 53.48 52.94 55.26 53.18 56.15 C 54.69 56.15 56.24 56.43 57.72 56.04 C 59.07 54.84 60.08 53.33 61.14 51.89 C 58.24 50.84 54.84 50.70 52.24 52.59 M 60.46 60.14 C 62.78 60.14 65.10 60.05 67.41 59.91 C 67.19 57.91 66.13 56.27 64.79 54.84 C 63.01 56.31 61.44 58.03 60.46 60.14 M 48.01 55.35 C 47.25 56.87 46.54 58.40 45.86 59.95 C 47.41 60.00 48.95 60.04 50.50 60.05 C 49.82 58.41 48.99 56.84 48.01 55.35 M 52.27 60.31 L 51.48 59.83 C 51.63 61.47 51.69 63.13 52.12 64.72 C 53.52 65.88 55.50 67.49 57.37 66.43 C 60.31 65.73 59.21 61.96 59.41 59.75 L 58.59 60.17 C 57.70 59.20 56.81 58.23 55.92 57.26 C 54.68 58.24 53.45 59.26 52.27 60.31 M 42.80 61.10 C 42.71 64.83 47.45 62.78 49.82 63.27 C 50.20 62.67 50.96 61.47 51.35 60.87 C 48.50 60.83 45.64 60.90 42.80 61.10 M 61.17 60.94 C 60.75 61.90 60.33 62.84 59.90 63.79 C 63.77 63.13 67.74 63.53 71.61 62.80 C 69.66 59.03 64.54 61.45 61.17 60.94 M 47.01 64.97 C 47.07 67.03 47.86 68.63 50.12 68.58 C 49.36 70.42 48.65 72.30 48.15 74.24 C 48.99 73.46 49.82 72.66 50.55 71.77 C 53.41 72.76 55.82 74.57 57.65 76.98 C 58.37 75.33 59.13 73.69 59.97 72.10 L 59.20 72.12 C 58.84 70.65 58.01 69.40 57.11 68.22 C 55.94 68.09 54.77 67.95 53.60 67.80 L 53.98 67.30 C 51.66 66.50 49.44 65.39 47.01 64.97 M 60.37 64.82 C 61.18 66.65 62.40 68.25 63.84 69.64 C 63.07 70.58 65.64 70.18 66.17 70.57 C 66.51 72.41 66.78 74.25 67.03 76.11 C 64.53 75.82 62.05 75.35 59.62 74.70 C 60.47 76.34 61.27 78.12 62.91 79.11 C 66.68 81.73 70.29 84.70 74.61 86.39 C 75.47 80.73 72.70 75.26 71.44 69.83 C 69.82 69.40 68.21 68.96 66.62 68.45 C 68.58 68.24 70.55 68.11 72.52 67.93 C 71.96 65.69 69.44 65.59 67.68 64.75 C 65.24 64.73 62.80 64.74 60.37 64.82 M 57.84 66.63 C 59.76 70.06 61.99 73.70 65.79 75.25 C 63.39 72.22 61.85 67.83 57.84 66.63 Z" />
</g>
<g id="#3b3d32ff">
<path fill="#3b3d32" opacity="1.00" d=" M 49.14 50.48 C 53.51 45.42 54.02 38.15 58.67 33.28 C 58.26 34.77 57.81 36.25 57.38 37.74 L 57.12 38.53 C 54.48 42.09 52.90 46.24 51.49 50.40 C 50.90 50.42 49.72 50.46 49.14 50.48 Z" />
</g>
<g id="#dab068ff">
<path fill="#dab068" opacity="1.00" d=" M 58.67 33.28 C 61.76 37.71 62.98 43.04 64.91 48.01 C 64.45 48.62 63.99 49.24 63.54 49.85 C 63.28 50.22 62.75 50.95 62.49 51.32 C 60.93 50.75 59.37 50.19 57.80 49.65 C 57.71 45.68 57.61 41.70 57.38 37.74 C 57.81 36.25 58.26 34.77 58.67 33.28 Z" />
<path fill="#dab068" opacity="1.00" d=" M 45.44 68.32 C 47.00 70.58 47.25 73.37 47.82 75.98 C 46.10 77.98 44.37 79.96 42.80 82.07 C 43.80 77.51 44.78 72.94 45.44 68.32 Z" />
</g>
<g id="#c6a05eff">
<path fill="#c6a05e" opacity="1.00" d=" M 51.49 50.40 C 52.90 46.24 54.48 42.09 57.12 38.53 C 57.14 42.39 57.38 46.25 57.32 50.12 C 55.38 50.23 53.43 50.36 51.49 50.40 Z" />
</g>
<g id="#fffa77ff">
<path fill="#fffa77" opacity="1.00" d=" M 63.54 49.85 C 64.02 50.14 64.97 50.72 65.44 51.01 C 63.63 53.77 61.65 56.40 59.77 59.11 C 59.28 58.80 58.31 58.18 57.83 57.87 C 59.33 55.65 60.93 53.50 62.49 51.32 C 62.75 50.95 63.28 50.22 63.54 49.85 Z" />
</g>
<g id="#152123ff">
<path fill="#152123" opacity="1.00" d=" M 66.61 49.90 C 72.29 51.08 78.06 51.08 83.83 51.10 C 85.96 51.02 86.16 53.26 85.78 54.84 C 85.34 54.29 84.47 53.18 84.03 52.62 C 78.29 51.37 72.27 52.62 66.58 50.79 L 66.61 49.90 Z" />
</g>
<g id="#182122f7">
<path fill="#182122" opacity="0.97" d=" M 34.26 52.32 C 38.40 49.76 43.52 51.78 48.03 50.54 L 47.82 51.44 L 47.58 52.26 C 43.04 52.03 38.27 51.38 33.98 53.31 C 35.69 56.77 38.69 59.31 40.79 62.51 L 41.21 63.12 C 38.30 60.92 35.58 58.41 33.30 55.56 C 32.50 54.45 33.03 52.85 34.26 52.32 Z" />
</g>
<g id="#fef272ff">
<path fill="#fef272" opacity="1.00" d=" M 48.03 50.54 C 50.07 52.96 51.99 55.47 54.05 57.87 C 53.47 58.34 52.31 59.29 51.73 59.76 C 50.40 57.00 48.92 54.30 47.82 51.44 L 48.03 50.54 Z" />
</g>
<g id="#fffe79ff">
<path fill="#fffe79" opacity="1.00" d=" M 52.24 52.59 C 54.84 50.70 58.24 50.84 61.14 51.89 C 60.08 53.33 59.07 54.84 57.72 56.04 C 56.24 56.43 54.69 56.15 53.18 56.15 C 52.94 55.26 52.47 53.48 52.24 52.59 Z" />
</g>
<g id="#ddb269ff">
<path fill="#ddb269" opacity="1.00" d=" M 66.58 50.79 C 72.27 52.62 78.29 51.37 84.03 52.62 C 78.85 54.35 73.71 56.21 68.83 58.69 C 66.84 56.52 65.96 53.69 66.58 50.79 Z" />
</g>
<g id="#dfb46aff">
<path fill="#dfb46a" opacity="1.00" d=" M 33.98 53.31 C 38.27 51.38 43.04 52.03 47.58 52.26 C 46.96 54.31 46.34 56.38 45.50 58.36 C 41.74 56.50 37.90 54.79 33.98 53.31 Z" />
</g>
<g id="#af8c58ff">
<path fill="#af8c58" opacity="1.00" d=" M 68.83 58.69 C 73.71 56.21 78.85 54.35 84.03 52.62 C 84.47 53.18 85.34 54.29 85.78 54.84 C 81.68 58.54 77.71 62.37 73.20 65.59 C 72.62 62.79 71.75 59.84 68.83 58.69 Z" />
</g>
<g id="#aa8855ff">
<path fill="#aa8855" opacity="1.00" d=" M 40.79 62.51 C 38.69 59.31 35.69 56.77 33.98 53.31 C 37.90 54.79 41.74 56.50 45.50 58.36 C 44.02 59.84 42.39 61.17 40.79 62.51 Z" />
</g>
<g id="#fff674ff">
<path fill="#fff674" opacity="1.00" d=" M 60.46 60.14 C 61.44 58.03 63.01 56.31 64.79 54.84 C 66.13 56.27 67.19 57.91 67.41 59.91 C 65.10 60.05 62.78 60.14 60.46 60.14 Z" />
<path fill="#fff674" opacity="1.00" d=" M 47.01 64.97 C 49.44 65.39 51.66 66.50 53.98 67.30 L 53.60 67.80 C 52.58 69.13 51.59 70.47 50.55 71.77 C 49.82 72.66 48.99 73.46 48.15 74.24 C 48.65 72.30 49.36 70.42 50.12 68.58 C 47.86 68.63 47.07 67.03 47.01 64.97 Z" />
<path fill="#fff674" opacity="1.00" d=" M 57.84 66.63 C 61.85 67.83 63.39 72.22 65.79 75.25 C 61.99 73.70 59.76 70.06 57.84 66.63 Z" />
</g>
<g id="#e5d263ff">
<path fill="#e5d263" opacity="1.00" d=" M 48.01 55.35 C 48.99 56.84 49.82 58.41 50.50 60.05 C 48.95 60.04 47.41 60.00 45.86 59.95 C 46.54 58.40 47.25 56.87 48.01 55.35 Z" />
</g>
<g id="#ffc5c0ff">
<path fill="#ffc5c0" opacity="1.00" d=" M 52.27 60.31 C 53.45 59.26 54.68 58.24 55.92 57.26 C 56.81 58.23 57.70 59.20 58.59 60.17 C 57.41 60.78 56.24 61.40 55.07 62.01 C 54.14 61.45 53.20 60.88 52.27 60.31 Z" />
</g>
<g id="#d1706eff">
<path fill="#d1706e" opacity="1.00" d=" M 51.48 59.83 L 52.27 60.31 C 53.20 60.88 54.14 61.45 55.07 62.01 C 56.24 61.40 57.41 60.78 58.59 60.17 L 59.41 59.75 C 59.21 61.96 60.31 65.73 57.37 66.43 C 55.50 67.49 53.52 65.88 52.12 64.72 C 51.69 63.13 51.63 61.47 51.48 59.83 Z" />
</g>
<g id="#e9d665ff">
<path fill="#e9d665" opacity="1.00" d=" M 42.80 61.10 C 45.64 60.90 48.50 60.83 51.35 60.87 C 50.96 61.47 50.20 62.67 49.82 63.27 C 47.45 62.78 42.71 64.83 42.80 61.10 Z" />
<path fill="#e9d665" opacity="1.00" d=" M 60.37 64.82 C 62.80 64.74 65.24 64.73 67.68 64.75 C 66.39 66.38 65.07 67.98 63.84 69.64 C 62.40 68.25 61.18 66.65 60.37 64.82 Z" />
</g>
<g id="#f3e16aff">
<path fill="#f3e16a" opacity="1.00" d=" M 61.17 60.94 C 64.54 61.45 69.66 59.03 71.61 62.80 C 67.74 63.53 63.77 63.13 59.90 63.79 C 60.33 62.84 60.75 61.90 61.17 60.94 Z" />
</g>
<g id="#caa360ff">
<path fill="#caa360" opacity="1.00" d=" M 67.68 64.75 C 69.44 65.59 71.96 65.69 72.52 67.93 C 70.55 68.11 68.58 68.24 66.62 68.45 C 68.21 68.96 69.82 69.40 71.44 69.83 C 72.70 75.26 75.47 80.73 74.61 86.39 C 72.29 82.82 69.86 79.30 67.03 76.11 C 66.78 74.25 66.51 72.41 66.17 70.57 C 65.64 70.18 63.07 70.58 63.84 69.64 C 65.07 67.98 66.39 66.38 67.68 64.75 Z" />
</g>
<g id="#8e8139ff">
<path fill="#8e8139" opacity="1.00" d=" M 50.55 71.77 C 51.59 70.47 52.58 69.13 53.60 67.80 C 54.77 67.95 55.94 68.09 57.11 68.22 C 55.68 68.99 53.33 69.00 53.08 71.01 C 54.60 72.80 57.16 71.94 59.20 72.12 L 59.97 72.10 C 59.13 73.69 58.37 75.33 57.65 76.98 C 55.82 74.57 53.41 72.76 50.55 71.77 Z" />
</g>
<g id="#2f3129ff">
<path fill="#2f3129" opacity="1.00" d=" M 40.90 85.92 C 42.62 80.13 42.36 73.60 45.44 68.32 C 44.78 72.94 43.80 77.51 42.80 82.07 C 42.56 83.04 42.37 84.02 42.25 85.02 C 44.01 86.44 46.26 84.57 48.10 84.12 C 46.36 86.26 43.40 88.08 40.90 85.92 Z" />
</g>
<g id="#d3c158ff">
<path fill="#d3c158" opacity="1.00" d=" M 53.08 71.01 C 53.33 69.00 55.68 68.99 57.11 68.22 C 58.01 69.40 58.84 70.65 59.20 72.12 C 57.16 71.94 54.60 72.80 53.08 71.01 Z" />
</g>
<g id="#b08c58ff">
<path fill="#b08c58" opacity="1.00" d=" M 47.82 75.98 C 49.54 75.58 51.24 75.02 53.02 74.85 C 55.10 74.92 55.13 77.44 55.78 78.90 C 53.22 80.64 50.71 82.46 48.10 84.12 C 46.26 84.57 44.01 86.44 42.25 85.02 C 42.37 84.02 42.56 83.04 42.80 82.07 C 44.37 79.96 46.10 77.98 47.82 75.98 Z" />
</g>
<g id="#a48255ff">
<path fill="#a48255" opacity="1.00" d=" M 59.62 74.70 C 62.05 75.35 64.53 75.82 67.03 76.11 C 69.86 79.30 72.29 82.82 74.61 86.39 C 70.29 84.70 66.68 81.73 62.91 79.11 C 61.27 78.12 60.47 76.34 59.62 74.70 Z" />
</g>
</svg>
