<?xml version="1.0" encoding="UTF-8" ?>
<!DOCTYPE svg PUBLIC "-//W3C//DTD SVG 1.1//EN" "http://www.w3.org/Graphics/SVG/1.1/DTD/svg11.dtd">
<svg width="120pt" height="120pt" viewBox="0 0 120 120" version="1.1" xmlns="http://www.w3.org/2000/svg">
<g id="#925552ff">
<path fill="#925552" opacity="1.00" d=" M 56.08 27.19 C 56.72 27.20 57.99 27.23 58.62 27.24 C 59.97 30.85 62.40 34.01 63.18 37.82 C 63.53 38.23 64.22 39.04 64.57 39.44 L 64.81 40.30 C 65.34 43.80 68.06 46.13 70.48 48.42 C 72.60 48.57 74.72 48.73 76.85 48.90 C 77.62 43.30 78.65 37.73 79.85 32.21 C 79.00 31.67 78.16 31.13 77.31 30.60 L 76.85 30.30 C 77.60 30.27 79.09 30.21 79.83 30.18 C 80.30 31.19 81.45 32.35 80.67 33.51 C 79.50 35.29 80.00 37.49 79.85 39.49 C 78.31 40.72 79.09 42.84 78.82 44.52 C 77.44 45.77 77.97 47.78 77.64 49.40 C 79.57 49.32 81.50 49.27 83.44 49.31 C 85.10 51.12 87.73 50.04 89.86 50.21 C 90.33 51.16 90.80 52.12 91.25 53.08 L 90.40 52.51 C 89.74 52.06 89.09 51.61 88.43 51.16 C 82.05 50.25 75.67 49.70 69.21 50.00 C 67.60 52.78 68.50 55.85 69.52 58.64 C 73.07 57.48 76.61 56.29 80.08 54.90 C 77.02 57.18 73.07 57.64 69.91 59.72 C 70.86 61.99 74.07 60.56 76.01 61.05 C 76.02 62.35 76.04 63.66 76.05 64.96 C 74.42 65.45 72.79 65.94 71.15 66.40 C 71.26 66.87 71.47 67.81 71.58 68.27 C 70.16 69.94 69.00 71.80 68.08 73.78 C 69.85 75.79 70.49 78.18 69.15 80.63 C 66.85 79.92 64.57 79.06 62.59 77.65 C 60.52 78.18 58.62 79.15 56.90 80.41 C 63.47 81.82 68.21 86.91 74.31 89.34 C 74.46 89.46 74.75 89.71 74.90 89.83 C 75.41 90.24 75.41 90.24 74.90 89.83 C 74.75 89.71 74.46 89.46 74.31 89.34 C 74.27 88.66 74.19 87.31 74.15 86.63 C 75.68 88.42 77.38 90.05 79.14 91.62 C 78.49 84.32 75.97 77.34 73.64 70.43 C 73.42 70.19 72.96 69.71 72.73 69.47 C 77.61 65.35 81.32 59.80 87.14 56.86 C 86.22 58.33 84.96 59.50 83.55 60.47 C 85.20 61.87 86.54 63.79 88.66 64.50 C 90.81 66.49 93.72 68.48 93.01 71.85 C 91.49 72.05 89.54 71.33 88.47 72.83 C 84.15 72.57 79.95 73.03 75.78 73.94 C 78.21 79.97 80.14 86.48 79.96 93.04 C 73.66 93.27 69.69 86.56 63.80 85.85 C 63.83 86.52 63.88 87.85 63.91 88.51 C 62.91 89.50 61.87 90.51 61.63 91.96 C 60.59 91.94 59.54 91.91 58.50 91.88 C 58.27 91.30 57.81 90.13 57.58 89.55 C 56.53 87.87 56.14 85.30 54.00 84.66 C 52.31 84.66 50.78 85.47 49.22 86.01 C 51.65 84.51 52.38 81.91 52.07 79.17 C 50.36 78.46 48.64 77.74 46.92 77.03 C 44.04 81.19 41.72 85.71 38.64 89.73 C 39.45 86.29 41.59 83.44 43.63 80.64 C 42.46 79.75 41.30 78.84 40.15 77.92 C 40.60 82.00 37.57 85.72 38.64 89.73 C 38.72 90.11 38.87 90.86 38.95 91.24 C 40.39 90.74 41.82 90.24 43.25 89.70 C 42.46 90.56 41.56 91.28 40.56 91.89 C 39.45 91.88 38.34 91.89 37.23 91.90 C 37.15 88.30 37.57 84.46 39.27 81.26 C 39.29 80.02 39.30 78.78 39.31 77.55 C 40.82 76.41 40.14 74.40 40.38 72.82 C 36.40 73.25 32.48 72.51 28.74 71.16 C 32.94 70.85 36.98 72.37 41.18 72.06 C 41.06 70.03 40.89 67.88 39.12 66.56 C 38.78 66.22 38.11 65.55 37.77 65.21 C 37.21 65.11 36.07 64.89 35.50 64.79 C 33.61 60.59 29.27 58.01 26.26 54.58 C 26.26 53.92 26.24 52.60 26.24 51.93 C 29.85 50.92 33.49 49.85 37.29 50.28 C 38.32 49.20 39.82 49.24 41.18 49.10 C 42.42 51.17 43.83 53.12 45.22 55.09 C 44.09 56.13 42.96 57.17 41.82 58.21 C 42.23 57.08 42.66 55.95 43.09 54.84 C 42.07 53.21 41.30 51.30 39.65 50.21 C 36.64 51.08 33.38 50.64 30.47 51.85 C 29.21 51.95 27.96 52.04 26.70 52.12 L 27.10 52.65 C 29.28 56.00 32.31 58.63 35.08 61.47 C 37.04 61.18 39.01 60.94 40.98 60.72 C 40.91 59.99 40.78 58.52 40.71 57.78 L 41.82 58.21 C 41.91 58.96 42.08 60.46 42.17 61.21 C 43.51 58.93 44.08 54.97 47.60 55.66 C 45.40 58.96 44.93 62.84 45.23 66.72 C 45.84 66.76 47.06 66.86 47.68 66.91 C 48.67 68.07 49.77 69.14 51.01 70.03 C 52.31 70.55 53.65 70.56 55.04 70.07 C 55.65 70.14 56.89 70.28 57.51 70.35 C 57.16 71.19 56.82 72.03 56.48 72.86 C 57.07 72.66 58.26 72.25 58.85 72.04 C 58.76 72.70 58.57 74.01 58.48 74.66 C 56.65 74.39 54.83 74.13 53.00 73.87 C 53.54 76.99 51.49 81.71 55.07 83.43 C 54.84 80.79 54.40 78.17 53.94 75.55 C 54.72 76.49 55.51 77.43 56.29 78.36 C 57.91 77.67 59.53 77.01 61.17 76.36 C 60.65 75.11 60.15 73.86 59.65 72.60 C 62.68 74.90 65.16 78.07 68.93 79.21 C 66.87 76.11 63.62 74.00 61.85 70.68 C 63.66 71.06 64.91 72.36 65.96 73.79 C 66.99 71.29 68.05 68.81 69.13 66.33 C 67.36 65.90 65.61 65.40 63.89 64.81 C 67.43 63.56 71.21 63.88 74.88 63.74 C 74.89 63.39 74.91 62.68 74.92 62.33 C 71.31 61.90 66.78 63.49 63.88 60.83 C 65.53 60.87 67.17 60.93 68.82 61.02 C 67.99 58.93 67.22 56.81 66.47 54.69 C 64.97 55.42 63.52 56.24 62.10 57.11 C 62.68 57.48 63.27 57.84 63.85 58.21 C 63.27 60.39 63.03 62.63 63.02 64.88 C 63.01 66.24 63.01 67.60 63.01 68.96 C 61.64 70.01 60.26 71.04 58.85 72.04 C 59.82 70.68 60.89 69.38 61.71 67.92 C 62.18 65.45 62.04 62.92 62.01 60.42 L 61.83 59.52 C 60.56 57.61 59.17 55.78 57.78 53.97 C 55.13 53.99 52.48 53.95 49.85 54.29 C 49.44 54.44 48.63 54.74 48.22 54.89 C 45.45 53.20 43.34 50.66 42.34 47.56 C 42.03 45.54 42.94 43.13 41.44 41.46 C 41.17 38.34 39.54 35.42 40.40 32.22 C 41.66 30.19 44.14 31.82 45.76 32.44 C 46.13 32.85 46.86 33.65 47.23 34.06 C 48.36 34.52 49.48 35.02 50.60 35.52 C 54.12 38.37 53.47 31.35 54.93 29.49 C 57.15 35.38 55.45 41.95 58.16 47.73 C 60.14 48.14 62.02 48.90 63.86 49.74 C 64.62 48.88 65.39 48.02 66.16 47.16 C 63.20 41.49 61.45 35.27 58.37 29.66 C 57.89 28.81 57.21 28.16 56.34 27.70 L 56.08 27.19 M 40.79 31.87 L 41.33 32.74 C 40.56 37.18 43.52 41.16 43.16 45.61 C 44.77 47.19 46.39 48.76 47.99 50.35 L 48.01 48.99 L 46.71 49.04 C 47.55 47.36 48.35 45.66 49.09 43.94 L 49.84 44.19 C 49.76 42.82 50.11 41.60 50.89 40.54 C 50.96 39.42 51.01 38.30 51.05 37.18 C 47.48 35.70 44.63 32.67 40.79 31.87 M 53.87 35.64 C 53.32 36.58 52.77 37.53 52.21 38.47 C 51.35 41.20 50.75 44.09 49.10 46.49 C 49.07 47.17 49.02 48.54 48.99 49.23 C 51.82 49.27 52.38 46.52 52.09 44.25 C 53.27 43.22 54.47 42.20 55.67 41.18 C 55.48 38.35 55.38 35.50 55.25 32.66 C 54.16 33.26 53.70 34.25 53.87 35.64 M 53.12 53.01 C 53.56 52.99 54.44 52.95 54.88 52.93 C 54.56 52.11 54.24 51.29 53.92 50.47 C 55.99 48.52 54.32 45.17 55.76 42.78 C 52.21 44.52 53.30 49.69 53.12 53.01 M 56.40 46.94 C 56.92 48.84 55.66 50.77 56.07 52.55 C 56.75 52.69 58.10 52.97 58.77 53.11 C 59.70 54.06 60.61 55.01 61.52 55.97 C 63.49 53.09 67.49 51.44 68.13 47.82 C 65.40 49.34 63.19 51.56 60.77 53.49 C 61.09 52.71 61.73 51.14 62.06 50.36 C 60.41 49.75 58.74 49.21 57.00 48.92 C 56.85 48.42 56.55 47.44 56.40 46.94 M 45.90 51.41 C 47.03 52.24 48.18 53.34 49.66 52.54 C 50.24 52.69 51.41 52.99 52.00 53.15 C 52.00 52.19 52.00 50.27 52.00 49.32 C 49.95 49.95 47.90 50.62 45.90 51.41 M 82.49 60.93 C 80.86 62.65 79.22 64.37 77.65 66.16 C 75.74 67.37 74.25 69.26 75.05 71.67 C 76.10 73.70 78.36 73.01 79.91 72.08 C 83.67 71.87 87.66 72.60 91.12 70.71 L 92.25 71.05 C 90.97 66.22 85.16 64.89 82.49 60.93 M 36.92 61.99 C 36.67 62.48 36.16 63.47 35.91 63.97 C 38.61 64.01 41.30 64.00 44.00 64.00 C 44.00 63.50 44.00 62.50 44.00 62.00 C 41.64 62.00 39.28 62.01 36.92 61.99 M 42.27 66.33 C 42.45 68.85 44.36 70.65 45.76 72.58 C 43.89 73.65 42.69 75.44 42.09 77.48 C 43.39 78.16 43.67 75.90 43.76 75.08 C 44.99 74.11 46.23 73.15 47.64 72.44 C 45.77 72.79 45.79 70.85 45.26 69.60 C 44.10 68.67 43.24 67.44 42.27 66.33 M 42.03 72.99 C 38.88 73.57 43.35 76.19 42.03 72.99 C 45.17 72.41 40.70 69.80 42.03 72.99 M 48.52 74.67 C 48.52 75.17 48.53 76.16 48.54 76.65 C 49.59 77.40 50.63 77.37 51.66 76.56 L 51.73 76.13 C 51.35 75.79 50.58 75.10 50.19 74.75 C 49.77 74.73 48.94 74.69 48.52 74.67 M 57.00 81.78 C 56.36 85.41 57.94 88.66 60.16 91.41 C 61.89 89.67 62.92 87.43 63.91 85.22 C 62.66 84.46 61.40 83.69 60.14 82.93 L 60.17 83.48 C 59.33 82.51 58.27 81.94 57.00 81.78 Z" />
<path fill="#925552" opacity="1.00" d=" M 74.27 32.28 C 74.72 32.32 75.61 32.38 76.05 32.41 C 75.57 32.59 74.60 32.95 74.12 33.13 L 74.27 32.28 Z" />
<path fill="#925552" opacity="1.00" d=" M 71.28 34.28 C 71.72 34.30 72.60 34.34 73.04 34.36 C 72.57 34.56 71.63 34.95 71.16 35.15 L 71.28 34.28 Z" />
<path fill="#925552" opacity="1.00" d=" M 67.27 37.29 C 67.71 37.31 68.59 37.36 69.03 37.38 C 68.56 37.57 67.62 37.96 67.15 38.16 L 67.27 37.29 Z" />
<path fill="#925552" opacity="1.00" d=" M 46.84 41.63 C 46.79 41.52 46.69 41.29 46.64 41.18 L 46.84 41.63 Z" />
<path fill="#925552" opacity="1.00" d=" M 47.45 43.38 L 47.76 43.25 L 47.94 43.55 C 47.82 43.51 47.57 43.42 47.45 43.38 Z" />
<path fill="#925552" opacity="1.00" d=" M 85.92 53.05 C 86.45 52.77 87.51 52.23 88.03 51.96 C 87.51 52.23 86.45 52.77 85.92 53.05 Z" />
</g>
<g id="#d2d3fdff">
<path fill="#d2d3fd" opacity="1.00" d=" M 56.34 27.70 C 57.21 28.16 57.89 28.81 58.37 29.66 C 61.45 35.27 63.20 41.49 66.16 47.16 C 65.39 48.02 64.62 48.88 63.86 49.74 C 62.02 48.90 60.14 48.14 58.16 47.73 C 55.45 41.95 57.15 35.38 54.93 29.49 L 56.71 29.67 C 56.62 29.18 56.43 28.19 56.34 27.70 Z" />
<path fill="#d2d3fd" opacity="1.00" d=" M 77.31 30.60 C 78.16 31.13 79.00 31.67 79.85 32.21 C 78.65 37.73 77.62 43.30 76.85 48.90 C 74.72 48.73 72.60 48.57 70.48 48.42 C 68.06 46.13 65.34 43.80 64.81 40.30 C 65.55 39.55 66.33 38.83 67.15 38.16 C 67.62 37.96 68.56 37.57 69.03 37.38 C 69.56 36.45 70.27 35.71 71.16 35.15 C 71.63 34.95 72.57 34.56 73.04 34.36 C 73.31 34.06 73.85 33.44 74.12 33.13 C 74.60 32.95 75.57 32.59 76.05 32.41 C 76.36 31.96 76.99 31.05 77.31 30.60 M 77.33 33.08 C 76.26 33.26 75.09 35.67 76.66 35.84 C 77.70 35.64 78.90 33.25 77.33 33.08 Z" />
<path fill="#d2d3fd" opacity="1.00" d=" M 40.79 31.87 C 44.63 32.67 47.48 35.70 51.05 37.18 C 51.01 38.30 50.96 39.42 50.89 40.54 C 50.11 41.60 49.76 42.82 49.84 44.19 L 49.09 43.94 L 47.94 43.55 L 47.76 43.25 C 47.53 42.85 47.07 42.04 46.84 41.63 L 46.64 41.18 C 45.39 38.06 43.03 35.59 41.33 32.74 L 40.79 31.87 Z" />
<path fill="#d2d3fd" opacity="1.00" d=" M 30.47 51.85 C 33.38 50.64 36.64 51.08 39.65 50.21 C 41.30 51.30 42.07 53.21 43.09 54.84 C 42.66 55.95 42.23 57.08 41.82 58.21 L 40.71 57.78 C 36.20 55.99 31.70 54.20 27.10 52.65 L 26.70 52.12 C 27.96 52.04 29.21 51.95 30.47 51.85 Z" />
<path fill="#d2d3fd" opacity="1.00" d=" M 69.21 50.00 C 75.67 49.70 82.05 50.25 88.43 51.16 L 88.03 51.96 C 87.51 52.23 86.45 52.77 85.92 53.05 L 85.15 53.08 C 83.63 52.96 82.11 53.37 80.93 54.35 C 80.72 54.49 80.29 54.76 80.08 54.90 C 76.61 56.29 73.07 57.48 69.52 58.64 C 68.50 55.85 67.60 52.78 69.21 50.00 Z" />
<path fill="#d2d3fd" opacity="1.00" d=" M 82.49 60.93 C 85.16 64.89 90.97 66.22 92.25 71.05 L 91.12 70.71 C 86.61 69.24 82.08 67.84 77.65 66.16 C 79.22 64.37 80.86 62.65 82.49 60.93 Z" />
<path fill="#d2d3fd" opacity="1.00" d=" M 34.41 64.59 L 35.50 64.79 C 36.07 64.89 37.21 65.11 37.77 65.21 C 38.11 65.55 38.78 66.22 39.12 66.56 C 36.05 68.11 32.80 69.23 29.52 70.24 C 30.71 68.01 32.81 66.49 34.41 64.59 Z" />
<path fill="#d2d3fd" opacity="1.00" d=" M 68.08 73.78 C 69.00 71.80 70.16 69.94 71.58 68.27 L 72.73 69.47 C 72.96 69.71 73.42 70.19 73.64 70.43 C 75.97 77.34 78.49 84.32 79.14 91.62 C 77.38 90.05 75.68 88.42 74.15 86.63 C 72.73 84.44 71.07 82.40 69.15 80.63 C 70.49 78.18 69.85 75.79 68.08 73.78 Z" />
<path fill="#d2d3fd" opacity="1.00" d=" M 42.03 72.99 C 40.70 69.80 45.17 72.41 42.03 72.99 Z" />
<path fill="#d2d3fd" opacity="1.00" d=" M 42.03 72.99 C 43.35 76.19 38.88 73.57 42.03 72.99 Z" />
<path fill="#d2d3fd" opacity="1.00" d=" M 40.15 77.92 C 41.30 78.84 42.46 79.75 43.63 80.64 C 41.59 83.44 39.45 86.29 38.64 89.73 C 37.57 85.72 40.60 82.00 40.15 77.92 Z" />
<path fill="#d2d3fd" opacity="1.00" d=" M 60.17 83.48 L 60.14 82.93 C 61.40 83.69 62.66 84.46 63.91 85.22 C 62.92 87.43 61.89 89.67 60.16 91.41 C 60.20 88.77 60.29 86.12 60.17 83.48 Z" />
</g>
<g id="#b1b0d5ff">
<path fill="#b1b0d5" opacity="1.00" d=" M 41.33 32.74 C 43.03 35.59 45.39 38.06 46.64 41.18 C 46.69 41.29 46.79 41.52 46.84 41.63 C 47.07 42.04 47.53 42.85 47.76 43.25 L 47.45 43.38 C 47.57 43.42 47.82 43.51 47.94 43.55 L 49.09 43.94 C 48.35 45.66 47.55 47.36 46.71 49.04 L 48.01 48.99 L 47.99 50.35 C 46.39 48.76 44.77 47.19 43.16 45.61 C 43.52 41.16 40.56 37.18 41.33 32.74 Z" />
<path fill="#b1b0d5" opacity="1.00" d=" M 53.87 35.64 C 53.70 34.25 54.16 33.26 55.25 32.66 C 55.38 35.50 55.48 38.35 55.67 41.18 C 54.47 42.20 53.27 43.22 52.09 44.25 C 52.38 46.52 51.82 49.27 48.99 49.23 C 49.02 48.54 49.07 47.17 49.10 46.49 C 50.75 44.09 51.35 41.20 52.21 38.47 C 52.77 37.53 53.32 36.58 53.87 35.64 Z" />
<path fill="#b1b0d5" opacity="1.00" d=" M 88.43 51.16 C 89.09 51.61 89.74 52.06 90.40 52.51 C 89.08 53.79 88.71 55.84 87.14 56.86 C 81.32 59.80 77.61 65.35 72.73 69.47 L 71.58 68.27 C 71.47 67.81 71.26 66.87 71.15 66.40 C 72.79 65.94 74.42 65.45 76.05 64.96 C 76.04 63.66 76.02 62.35 76.01 61.05 C 74.07 60.56 70.86 61.99 69.91 59.72 C 73.07 57.64 77.02 57.18 80.08 54.90 C 80.29 54.76 80.72 54.49 80.93 54.35 C 82.37 56.03 84.40 54.68 85.15 53.08 L 85.92 53.05 C 86.45 52.77 87.51 52.23 88.03 51.96 L 88.43 51.16 Z" />
<path fill="#b1b0d5" opacity="1.00" d=" M 38.64 89.73 C 41.72 85.71 44.04 81.19 46.92 77.03 C 48.64 77.74 50.36 78.46 52.07 79.17 C 52.38 81.91 51.65 84.51 49.22 86.01 C 48.19 87.08 46.86 87.73 45.56 88.40 C 44.79 88.83 44.02 89.27 43.25 89.70 C 41.82 90.24 40.39 90.74 38.95 91.24 C 38.87 90.86 38.72 90.11 38.64 89.73 Z" />
</g>
<g id="#a09bb9ff">
<path fill="#a09bb9" opacity="1.00" d=" M 77.33 33.08 C 78.90 33.25 77.70 35.64 76.66 35.84 C 75.09 35.67 76.26 33.26 77.33 33.08 Z" />
<path fill="#a09bb9" opacity="1.00" d=" M 27.10 52.65 C 31.70 54.20 36.20 55.99 40.71 57.78 C 40.78 58.52 40.91 59.99 40.98 60.72 C 39.01 60.94 37.04 61.18 35.08 61.47 C 32.31 58.63 29.28 56.00 27.10 52.65 Z" />
<path fill="#a09bb9" opacity="1.00" d=" M 80.93 54.35 C 82.11 53.37 83.63 52.96 85.15 53.08 C 84.40 54.68 82.37 56.03 80.93 54.35 Z" />
<path fill="#a09bb9" opacity="1.00" d=" M 77.65 66.16 C 82.08 67.84 86.61 69.24 91.12 70.71 C 87.66 72.60 83.67 71.87 79.91 72.08 C 78.36 73.01 76.10 73.70 75.05 71.67 C 74.25 69.26 75.74 67.37 77.65 66.16 Z" />
<path fill="#a09bb9" opacity="1.00" d=" M 29.52 70.24 C 32.80 69.23 36.05 68.11 39.12 66.56 C 40.89 67.88 41.06 70.03 41.18 72.06 C 36.98 72.37 32.94 70.85 28.74 71.16 L 29.52 70.24 Z" />
<path fill="#a09bb9" opacity="1.00" d=" M 56.90 80.41 C 58.62 79.15 60.52 78.18 62.59 77.65 C 64.57 79.06 66.85 79.92 69.15 80.63 C 71.07 82.40 72.73 84.44 74.15 86.63 C 74.19 87.31 74.27 88.66 74.31 89.34 C 68.21 86.91 63.47 81.82 56.90 80.41 Z" />
<path fill="#a09bb9" opacity="1.00" d=" M 57.00 81.78 C 58.27 81.94 59.33 82.51 60.17 83.48 C 60.29 86.12 60.20 88.77 60.16 91.41 C 57.94 88.66 56.36 85.41 57.00 81.78 Z" />
<path fill="#a09bb9" opacity="1.00" d=" M 74.31 89.34 C 74.46 89.46 74.75 89.71 74.90 89.83 C 74.75 89.71 74.46 89.46 74.31 89.34 Z" />
<path fill="#a09bb9" opacity="1.00" d=" M 74.90 89.83 C 75.41 90.24 75.41 90.24 74.90 89.83 Z" />
</g>
<g id="#fecdacff">
<path fill="#fecdac" opacity="1.00" d=" M 53.12 53.01 C 53.30 49.69 52.21 44.52 55.76 42.78 C 54.32 45.17 55.99 48.52 53.92 50.47 C 54.24 51.29 54.56 52.11 54.88 52.93 C 54.44 52.95 53.56 52.99 53.12 53.01 Z" />
<path fill="#fecdac" opacity="1.00" d=" M 56.40 46.94 C 56.55 47.44 56.85 48.42 57.00 48.92 C 58.74 49.21 60.41 49.75 62.06 50.36 C 61.73 51.14 61.09 52.71 60.77 53.49 C 63.19 51.56 65.40 49.34 68.13 47.82 C 67.49 51.44 63.49 53.09 61.52 55.97 C 60.61 55.01 59.70 54.06 58.77 53.11 C 58.10 52.97 56.75 52.69 56.07 52.55 C 55.66 50.77 56.92 48.84 56.40 46.94 Z" />
<path fill="#fecdac" opacity="1.00" d=" M 49.85 54.29 C 52.48 53.95 55.13 53.99 57.78 53.97 C 59.17 55.78 60.56 57.61 61.83 59.52 L 62.01 60.42 C 60.73 60.72 59.46 61.26 58.12 61.16 C 57.00 60.50 56.40 59.27 55.57 58.31 C 54.01 58.06 52.45 57.82 50.90 57.57 C 50.55 56.48 50.20 55.38 49.85 54.29 Z" />
<path fill="#fecdac" opacity="1.00" d=" M 62.10 57.11 C 63.52 56.24 64.97 55.42 66.47 54.69 C 67.22 56.81 67.99 58.93 68.82 61.02 C 67.17 60.93 65.53 60.87 63.88 60.83 C 66.78 63.49 71.31 61.90 74.92 62.33 C 74.91 62.68 74.89 63.39 74.88 63.74 C 71.21 63.88 67.43 63.56 63.89 64.81 C 63.68 64.83 63.24 64.87 63.02 64.88 C 63.03 62.63 63.27 60.39 63.85 58.21 C 63.27 57.84 62.68 57.48 62.10 57.11 Z" />
<path fill="#fecdac" opacity="1.00" d=" M 51.01 70.03 C 51.94 68.47 54.06 68.69 55.04 70.07 C 53.65 70.56 52.31 70.55 51.01 70.03 Z" />
</g>
<g id="#d29167ff">
<path fill="#d29167" opacity="1.00" d=" M 42.34 47.56 C 43.34 50.66 45.45 53.20 48.22 54.89 C 48.63 54.74 49.44 54.44 49.85 54.29 C 50.20 55.38 50.55 56.48 50.90 57.57 C 49.65 58.75 48.10 59.73 47.28 61.28 C 46.61 63.12 47.27 65.08 47.68 66.91 C 47.06 66.86 45.84 66.76 45.23 66.72 C 44.93 62.84 45.40 58.96 47.60 55.66 C 44.08 54.97 43.51 58.93 42.17 61.21 C 42.08 60.46 41.91 58.96 41.82 58.21 C 42.96 57.17 44.09 56.13 45.22 55.09 C 43.83 53.12 42.42 51.17 41.18 49.10 C 41.47 48.72 42.05 47.94 42.34 47.56 Z" />
<path fill="#d29167" opacity="1.00" d=" M 45.90 51.41 C 47.90 50.62 49.95 49.95 52.00 49.32 C 52.00 50.27 52.00 52.19 52.00 53.15 C 51.41 52.99 50.24 52.69 49.66 52.54 C 48.18 53.34 47.03 52.24 45.90 51.41 Z" />
<path fill="#d29167" opacity="1.00" d=" M 36.92 61.99 C 39.28 62.01 41.64 62.00 44.00 62.00 C 44.00 62.50 44.00 63.50 44.00 64.00 C 41.30 64.00 38.61 64.01 35.91 63.97 C 36.16 63.47 36.67 62.48 36.92 61.99 Z" />
<path fill="#d29167" opacity="1.00" d=" M 63.02 64.88 C 63.24 64.87 63.68 64.83 63.89 64.81 C 65.61 65.40 67.36 65.90 69.13 66.33 C 68.05 68.81 66.99 71.29 65.96 73.79 C 64.91 72.36 63.66 71.06 61.85 70.68 C 63.62 74.00 66.87 76.11 68.93 79.21 C 65.16 78.07 62.68 74.90 59.65 72.60 C 60.15 73.86 60.65 75.11 61.17 76.36 C 59.53 77.01 57.91 77.67 56.29 78.36 C 55.51 77.43 54.72 76.49 53.94 75.55 C 54.40 78.17 54.84 80.79 55.07 83.43 C 51.49 81.71 53.54 76.99 53.00 73.87 C 54.83 74.13 56.65 74.39 58.48 74.66 C 58.57 74.01 58.76 72.70 58.85 72.04 C 60.26 71.04 61.64 70.01 63.01 68.96 C 63.01 67.60 63.01 66.24 63.02 64.88 Z" />
</g>
<g id="#f88684ff">
<path fill="#f88684" opacity="1.00" d=" M 47.28 61.28 C 48.10 59.73 49.65 58.75 50.90 57.57 C 52.45 57.82 54.01 58.06 55.57 58.31 C 56.40 59.27 57.00 60.50 58.12 61.16 C 59.46 61.26 60.73 60.72 62.01 60.42 C 62.04 62.92 62.18 65.45 61.71 67.92 C 60.89 69.38 59.82 70.68 58.85 72.04 C 58.26 72.25 57.07 72.66 56.48 72.86 C 56.82 72.03 57.16 71.19 57.51 70.35 C 56.89 70.28 55.65 70.14 55.04 70.07 C 54.06 68.69 51.94 68.47 51.01 70.03 C 49.77 69.14 48.67 68.07 47.68 66.91 C 47.27 65.08 46.61 63.12 47.28 61.28 Z" />
</g>
</svg>
