<?xml version="1.0" encoding="UTF-8" ?>
<!DOCTYPE svg PUBLIC "-//W3C//DTD SVG 1.1//EN" "http://www.w3.org/Graphics/SVG/1.1/DTD/svg11.dtd">
<svg width="120pt" height="120pt" viewBox="0 0 120 120" version="1.1" xmlns="http://www.w3.org/2000/svg">
<g id="#37393bff">
<path fill="#37393b" opacity="1.00" d=" M 52.60 33.11 C 53.90 33.09 55.21 33.09 56.51 33.09 C 57.99 34.24 59.41 35.47 60.63 36.89 C 62.72 36.54 64.71 35.76 66.78 35.34 C 67.61 36.12 68.42 36.94 69.20 37.78 C 71.62 36.40 74.17 37.50 76.57 38.27 C 77.34 39.63 78.27 40.88 79.25 42.09 C 80.40 42.08 81.54 42.07 82.69 42.06 C 84.95 44.53 86.99 47.18 88.92 49.90 C 89.15 53.09 89.01 56.30 88.92 59.49 C 86.17 62.25 87.99 66.77 84.93 69.28 C 85.63 67.05 85.99 64.73 86.15 62.40 C 85.22 63.93 84.36 65.51 83.55 67.12 C 82.99 67.10 81.85 67.06 81.29 67.05 C 81.89 66.39 83.09 65.07 83.69 64.41 C 83.78 61.98 83.51 59.54 82.32 57.37 C 82.20 59.37 82.14 61.37 81.91 63.36 C 81.14 60.97 80.43 58.56 79.88 56.11 C 76.73 53.38 73.18 50.68 68.93 50.11 C 65.73 50.77 62.48 51.21 59.20 50.99 C 59.12 50.27 58.94 48.81 58.86 48.08 C 62.54 44.65 69.03 45.51 71.85 49.61 C 72.49 49.70 73.76 49.88 74.40 49.96 C 73.16 47.76 71.59 45.77 69.86 43.93 C 66.33 43.67 62.80 43.60 59.27 43.93 C 58.08 45.62 55.25 47.16 56.39 49.58 C 57.11 53.28 61.59 54.19 64.75 53.52 C 67.76 52.76 70.80 53.37 73.76 54.08 C 76.71 56.97 79.11 60.34 81.91 63.36 C 81.24 63.43 79.90 63.55 79.23 63.62 C 79.51 63.94 80.05 64.58 80.32 64.91 C 79.87 65.68 79.42 66.45 78.98 67.22 C 80.19 67.71 81.40 68.21 82.60 68.73 C 81.25 69.24 80.27 70.15 79.68 71.47 C 80.82 71.31 81.95 71.14 83.08 70.98 C 82.57 72.02 82.08 73.07 81.60 74.13 L 81.13 73.75 C 80.89 73.57 80.43 73.21 80.20 73.03 C 78.90 73.31 77.70 74.06 77.00 75.21 C 77.74 75.13 79.22 74.97 79.95 74.89 L 80.02 75.64 C 77.80 75.73 77.85 78.06 77.23 79.64 C 78.29 81.38 79.53 83.27 78.61 85.36 C 77.99 83.94 77.37 82.52 76.78 81.09 C 72.59 80.02 67.60 79.37 64.55 83.13 C 67.46 86.06 71.60 86.21 75.46 85.88 L 76.40 86.90 C 72.24 86.97 67.58 87.83 64.14 84.87 C 63.83 83.52 64.60 81.62 63.31 80.68 C 62.39 79.31 61.04 80.60 59.90 80.82 C 58.29 81.15 56.63 80.99 55.00 81.02 C 55.00 82.27 55.00 83.52 55.01 84.77 C 49.77 86.99 43.86 85.77 38.33 85.83 C 34.69 83.34 39.25 79.17 42.42 79.77 C 40.17 78.64 37.93 77.46 36.05 75.76 C 36.09 72.98 36.10 70.20 36.02 67.43 C 33.82 66.49 32.92 64.07 31.16 62.58 C 31.09 61.43 31.03 60.27 30.98 59.12 L 31.62 59.20 C 32.36 61.90 33.93 64.25 36.03 66.08 C 37.26 66.32 38.70 65.88 39.80 66.54 C 37.84 68.89 36.85 71.71 37.12 74.77 C 40.54 77.69 45.08 78.07 49.39 78.00 C 46.68 75.27 42.98 74.71 39.30 75.24 C 39.73 73.19 39.95 70.96 41.33 69.29 C 43.00 67.18 45.88 66.92 48.29 66.26 C 45.84 64.72 43.01 64.37 40.41 65.89 C 41.19 65.10 41.97 64.32 42.77 63.55 C 42.03 61.22 41.31 58.89 40.56 56.56 C 38.08 58.98 39.91 62.23 40.28 65.11 C 39.18 64.76 38.09 64.40 37.00 64.03 C 35.65 62.87 34.98 61.28 35.12 59.51 C 36.34 60.78 37.54 62.08 38.72 63.39 C 38.26 61.71 37.80 60.04 37.33 58.37 C 37.47 58.05 37.75 57.41 37.89 57.09 C 43.27 55.09 49.96 55.06 53.29 49.60 C 52.30 48.64 51.30 47.68 50.29 46.73 C 50.18 47.52 49.96 49.09 49.85 49.88 C 49.01 50.30 48.13 50.59 47.22 50.76 C 46.93 49.18 47.05 47.56 47.02 45.96 C 46.25 45.99 44.71 46.04 43.95 46.06 C 44.02 47.47 44.10 48.87 44.19 50.28 C 44.60 50.61 45.43 51.29 45.85 51.63 C 45.20 51.72 43.91 51.92 43.26 52.01 C 41.53 50.69 41.71 48.34 41.22 46.44 C 43.25 45.40 45.31 43.96 47.72 44.33 C 51.03 44.49 53.19 47.32 54.74 49.93 C 54.86 48.36 55.01 46.78 55.17 45.21 C 50.88 40.66 43.16 40.61 38.88 45.20 C 39.17 47.30 39.54 49.41 40.19 51.44 C 40.73 51.74 41.80 52.34 42.34 52.64 C 40.27 53.46 38.08 53.98 36.10 55.02 C 36.08 52.74 36.09 50.46 36.13 48.18 C 36.55 47.84 37.41 47.17 37.83 46.83 C 38.07 44.15 39.65 41.47 38.24 38.85 C 37.36 37.13 38.72 35.68 39.84 34.56 C 41.96 36.64 44.12 38.71 46.74 40.16 C 47.55 37.70 48.43 34.73 51.54 34.49 C 50.60 35.50 49.64 36.51 48.68 37.51 C 52.41 36.18 56.41 36.16 59.72 38.57 L 59.83 38.63 C 59.81 38.58 59.76 38.50 59.73 38.45 L 59.72 38.57 C 59.05 36.53 57.27 35.32 55.69 34.04 C 55.19 34.08 54.17 34.18 53.66 34.23 L 52.60 33.11 M 38.90 35.63 C 38.79 38.17 39.90 40.50 41.92 42.04 C 42.73 41.73 44.36 41.12 45.18 40.81 C 42.95 39.25 41.04 37.30 38.90 35.63 M 62.32 37.24 C 62.33 38.43 62.33 39.62 62.33 40.81 C 62.64 40.82 63.27 40.84 63.58 40.84 C 63.63 40.21 63.74 38.93 63.79 38.30 C 65.27 39.43 66.23 40.95 66.50 42.81 C 67.23 42.91 68.68 43.13 69.41 43.24 C 68.81 41.04 68.05 38.87 66.97 36.86 C 65.42 37.00 63.87 37.12 62.32 37.24 M 50.23 38.03 C 49.41 39.07 48.59 40.11 47.78 41.16 C 50.04 40.96 52.21 40.33 54.29 39.47 C 55.66 39.84 57.07 40.07 58.48 40.17 C 57.02 36.79 53.11 38.22 50.23 38.03 M 68.86 39.83 C 70.93 42.00 74.18 38.83 76.49 41.19 C 75.02 38.78 70.42 36.15 68.86 39.83 M 52.02 41.12 L 51.90 41.83 C 53.37 41.89 54.44 42.79 55.40 43.79 C 58.03 42.85 60.84 43.02 63.58 42.89 C 60.40 39.54 55.93 41.80 52.02 41.12 M 73.35 41.07 C 72.33 41.77 71.14 42.33 70.67 43.56 C 71.42 43.70 72.93 43.97 73.69 44.11 C 77.14 46.18 75.07 50.72 77.19 53.54 C 80.60 51.28 78.24 47.26 77.94 44.12 C 76.40 43.11 74.86 42.11 73.35 41.07 M 76.49 41.19 C 76.84 41.91 76.84 41.91 76.49 41.19 M 78.64 43.04 C 79.75 44.16 80.87 45.27 81.99 46.37 C 81.85 47.36 81.71 48.35 81.57 49.34 C 81.16 48.86 80.34 47.89 79.93 47.41 C 82.05 49.82 77.23 53.26 80.72 54.57 C 82.31 53.05 83.62 51.28 85.05 49.63 C 85.73 46.80 83.67 44.82 81.82 43.06 C 81.03 43.05 79.44 43.04 78.64 43.04 M 79.23 46.27 C 79.82 46.83 79.82 46.83 79.23 46.27 M 47.97 47.34 C 46.39 50.31 51.28 47.55 47.97 47.34 M 63.22 47.59 C 63.45 48.65 64.73 50.12 65.90 49.49 C 67.33 47.89 63.93 45.48 63.22 47.59 M 37.33 48.31 C 36.79 49.73 36.39 52.42 38.14 53.12 C 39.94 52.41 38.47 48.82 37.33 48.31 M 67.37 48.13 C 67.57 51.41 70.41 46.60 67.37 48.13 M 86.10 49.39 C 85.18 50.84 86.56 52.61 87.45 53.74 C 88.89 53.02 88.13 48.75 86.10 49.39 M 82.83 53.18 C 84.30 56.01 84.69 59.20 85.31 62.29 C 88.08 59.13 87.34 54.78 84.86 51.72 C 84.35 52.08 83.34 52.81 82.83 53.18 M 47.70 55.96 C 47.06 56.06 45.77 56.28 45.13 56.38 C 44.37 59.48 46.17 63.36 49.75 63.22 C 50.04 62.82 50.62 62.03 50.91 61.63 C 53.35 62.59 55.98 62.61 58.52 62.04 C 58.69 62.28 59.03 62.74 59.20 62.97 C 61.10 63.00 63.53 63.90 64.88 62.02 C 66.86 60.17 65.99 57.16 64.83 55.11 C 62.91 55.14 60.99 55.15 59.08 55.16 C 58.36 55.99 57.64 56.81 56.92 57.63 L 56.77 56.50 C 55.68 56.51 54.60 56.52 53.51 56.54 L 53.06 57.55 C 52.09 56.25 51.14 54.94 50.12 53.67 C 49.31 54.43 48.50 55.19 47.70 55.96 M 69.32 54.91 C 69.02 58.71 64.62 61.91 66.73 65.80 C 68.86 70.02 73.94 70.39 78.10 70.01 C 78.12 69.55 78.16 68.63 78.18 68.17 C 74.88 68.29 71.87 66.99 68.98 65.55 C 68.73 61.65 72.03 58.83 72.24 55.03 C 71.51 55.00 70.05 54.94 69.32 54.91 M 75.65 58.81 C 76.26 57.65 74.62 56.47 73.62 56.25 C 71.35 57.09 74.02 60.15 75.65 58.81 M 75.54 59.93 C 76.50 62.58 74.19 64.71 71.96 65.65 C 72.98 66.17 73.99 66.71 75.05 67.13 C 77.43 66.16 78.39 63.53 78.22 61.11 C 77.32 60.72 76.43 60.33 75.54 59.93 M 73.25 61.10 C 71.92 61.82 71.87 62.51 73.11 63.17 C 74.45 62.46 74.49 61.77 73.25 61.10 M 56.20 66.28 C 60.25 68.94 60.81 74.28 59.06 78.48 C 56.55 76.33 53.52 78.45 50.76 77.00 C 53.49 79.33 57.12 79.95 60.61 79.68 C 63.76 76.58 63.41 71.98 61.85 68.18 C 60.58 67.11 59.31 66.03 58.06 64.95 C 57.59 65.29 56.66 65.95 56.20 66.28 M 46.54 69.54 C 46.42 70.27 46.18 71.73 46.06 72.46 C 44.55 72.14 43.07 71.73 41.60 71.27 C 42.42 74.00 45.19 73.74 47.50 73.65 C 48.66 72.41 49.76 71.09 51.21 70.18 C 53.20 69.54 55.69 70.01 56.17 72.37 C 55.70 72.36 54.78 72.34 54.31 72.33 C 54.45 72.55 54.73 72.99 54.87 73.22 L 55.43 74.02 C 53.13 73.68 50.74 72.78 48.50 73.89 C 50.41 75.16 52.59 76.56 54.99 76.27 C 56.83 75.78 57.73 74.01 58.88 72.67 C 57.90 69.99 55.99 67.56 53.01 67.06 C 50.72 67.45 48.74 68.81 46.54 69.54 M 64.17 75.95 C 64.81 73.40 66.47 71.22 69.12 70.55 C 68.33 69.75 67.56 68.95 66.78 68.14 C 63.68 69.69 63.87 72.96 64.17 75.95 M 43.33 69.09 C 42.94 70.46 43.45 71.01 44.85 70.74 C 45.23 69.38 44.73 68.83 43.33 69.09 M 68.30 72.33 C 69.17 73.44 69.95 74.63 70.51 75.93 C 72.33 75.71 74.69 76.53 76.12 75.06 C 75.07 72.85 72.02 73.10 70.11 73.98 C 71.06 73.00 72.01 72.02 72.96 71.03 C 71.40 71.47 69.85 71.91 68.30 72.33 M 73.74 71.06 C 74.77 73.27 79.41 74.33 79.24 70.97 C 77.41 70.98 75.57 71.00 73.74 71.06 M 66.31 74.07 C 66.49 77.38 69.28 72.50 66.31 74.07 M 66.74 75.90 C 67.18 80.73 73.42 78.80 76.67 78.81 C 76.85 78.37 77.23 77.48 77.41 77.04 C 73.82 77.09 70.18 77.08 66.74 75.90 M 63.90 77.12 C 62.02 77.93 64.19 80.93 65.72 80.53 C 66.16 79.28 65.22 77.42 63.90 77.12 M 38.69 81.75 C 37.12 82.82 38.58 84.96 40.07 84.95 C 44.31 85.34 48.58 85.01 52.82 84.73 C 51.71 82.49 49.27 81.89 47.15 81.13 C 49.51 81.68 51.65 82.81 53.67 84.14 C 53.67 83.47 53.68 82.11 53.68 81.44 C 52.97 80.73 52.26 80.02 51.56 79.31 C 47.12 78.97 42.79 80.24 38.69 81.75 Z" />
<path fill="#37393b" opacity="1.00" d=" M 48.56 58.09 C 51.56 56.57 48.71 61.38 48.56 58.09 Z" />
<path fill="#37393b" opacity="1.00" d=" M 60.22 58.11 C 63.39 56.60 60.46 61.30 60.22 58.11 Z" />
</g>
<g id="#81bee5ff">
<path fill="#81bee5" opacity="1.00" d=" M 53.66 34.23 C 54.17 34.18 55.19 34.08 55.69 34.04 C 57.27 35.32 59.05 36.53 59.72 38.57 C 56.41 36.16 52.41 36.18 48.68 37.51 C 49.64 36.51 50.60 35.50 51.54 34.49 C 52.07 34.42 53.13 34.29 53.66 34.23 Z" />
<path fill="#81bee5" opacity="1.00" d=" M 38.90 35.63 C 41.04 37.30 42.95 39.25 45.18 40.81 C 44.36 41.12 42.73 41.73 41.92 42.04 C 39.90 40.50 38.79 38.17 38.90 35.63 Z" />
<path fill="#81bee5" opacity="1.00" d=" M 62.32 37.24 C 63.87 37.12 65.42 37.00 66.97 36.86 C 68.05 38.87 68.81 41.04 69.41 43.24 C 68.68 43.13 67.23 42.91 66.50 42.81 C 66.23 40.95 65.27 39.43 63.79 38.30 C 63.74 38.93 63.63 40.21 63.58 40.84 C 63.27 40.84 62.64 40.82 62.33 40.81 C 62.33 39.62 62.33 38.43 62.32 37.24 Z" />
<path fill="#81bee5" opacity="1.00" d=" M 50.23 38.03 C 53.11 38.22 57.02 36.79 58.48 40.17 C 57.07 40.07 55.66 39.84 54.29 39.47 C 52.21 40.33 50.04 40.96 47.78 41.16 C 48.59 40.11 49.41 39.07 50.23 38.03 Z" />
<path fill="#81bee5" opacity="1.00" d=" M 59.72 38.57 L 59.73 38.45 C 59.76 38.50 59.81 38.58 59.83 38.63 L 59.72 38.57 Z" />
<path fill="#81bee5" opacity="1.00" d=" M 68.86 39.83 C 70.42 36.15 75.02 38.78 76.49 41.19 C 74.18 38.83 70.93 42.00 68.86 39.83 Z" />
<path fill="#81bee5" opacity="1.00" d=" M 52.02 41.12 C 55.93 41.80 60.40 39.54 63.58 42.89 C 60.84 43.02 58.03 42.85 55.40 43.79 C 54.44 42.79 53.37 41.89 51.90 41.83 L 52.02 41.12 Z" />
<path fill="#81bee5" opacity="1.00" d=" M 73.35 41.07 C 74.86 42.11 76.40 43.11 77.94 44.12 C 78.24 47.26 80.60 51.28 77.19 53.54 C 75.07 50.72 77.14 46.18 73.69 44.11 C 72.93 43.97 71.42 43.70 70.67 43.56 C 71.14 42.33 72.33 41.77 73.35 41.07 Z" />
<path fill="#81bee5" opacity="1.00" d=" M 76.49 41.19 C 76.84 41.91 76.84 41.91 76.49 41.19 Z" />
<path fill="#81bee5" opacity="1.00" d=" M 38.88 45.20 C 43.16 40.61 50.88 40.66 55.17 45.21 C 55.01 46.78 54.86 48.36 54.74 49.93 C 53.19 47.32 51.03 44.49 47.72 44.33 C 45.31 43.96 43.25 45.40 41.22 46.44 C 41.71 48.34 41.53 50.69 43.26 52.01 C 43.91 51.92 45.20 51.72 45.85 51.63 C 45.43 51.29 44.60 50.61 44.19 50.28 C 44.10 48.87 44.02 47.47 43.95 46.06 C 44.71 46.04 46.25 45.99 47.02 45.96 C 47.05 47.56 46.93 49.18 47.22 50.76 C 48.13 50.59 49.01 50.30 49.85 49.88 C 49.96 49.09 50.18 47.52 50.29 46.73 C 51.30 47.68 52.30 48.64 53.29 49.60 C 49.96 55.06 43.27 55.09 37.89 57.09 C 36.50 57.43 35.06 57.54 33.63 57.52 C 34.40 56.64 35.23 55.80 36.10 55.02 C 38.08 53.98 40.27 53.46 42.34 52.64 C 41.80 52.34 40.73 51.74 40.19 51.44 C 39.54 49.41 39.17 47.30 38.88 45.20 Z" />
<path fill="#81bee5" opacity="1.00" d=" M 59.27 43.93 C 62.80 43.60 66.33 43.67 69.86 43.93 C 71.59 45.77 73.16 47.76 74.40 49.96 C 73.76 49.88 72.49 49.70 71.85 49.61 C 69.03 45.51 62.54 44.65 58.86 48.08 C 58.94 48.81 59.12 50.27 59.20 50.99 C 62.48 51.21 65.73 50.77 68.93 50.11 C 73.18 50.68 76.73 53.38 79.88 56.11 C 80.43 58.56 81.14 60.97 81.91 63.36 C 79.11 60.34 76.71 56.97 73.76 54.08 C 70.80 53.37 67.76 52.76 64.75 53.52 C 61.59 54.19 57.11 53.28 56.39 49.58 C 55.25 47.16 58.08 45.62 59.27 43.93 Z" />
<path fill="#81bee5" opacity="1.00" d=" M 78.64 43.04 C 79.44 43.04 81.03 43.05 81.82 43.06 C 83.67 44.82 85.73 46.80 85.05 49.63 C 83.62 51.28 82.31 53.05 80.72 54.57 C 77.23 53.26 82.05 49.82 79.93 47.41 C 80.34 47.89 81.16 48.86 81.57 49.34 C 81.71 48.35 81.85 47.36 81.99 46.37 C 80.87 45.27 79.75 44.16 78.64 43.04 Z" />
<path fill="#81bee5" opacity="1.00" d=" M 79.23 46.27 C 79.82 46.83 79.82 46.83 79.23 46.27 Z" />
<path fill="#81bee5" opacity="1.00" d=" M 37.33 48.31 C 38.47 48.82 39.94 52.41 38.14 53.12 C 36.39 52.42 36.79 49.73 37.33 48.31 Z" />
<path fill="#81bee5" opacity="1.00" d=" M 67.37 48.13 C 70.41 46.60 67.57 51.41 67.37 48.13 Z" />
<path fill="#81bee5" opacity="1.00" d=" M 86.10 49.39 C 88.13 48.75 88.89 53.02 87.45 53.74 C 86.56 52.61 85.18 50.84 86.10 49.39 Z" />
<path fill="#81bee5" opacity="1.00" d=" M 82.83 53.18 C 83.34 52.81 84.35 52.08 84.86 51.72 C 87.34 54.78 88.08 59.13 85.31 62.29 C 84.69 59.20 84.30 56.01 82.83 53.18 Z" />
<path fill="#81bee5" opacity="1.00" d=" M 69.32 54.91 C 70.05 54.94 71.51 55.00 72.24 55.03 C 72.03 58.83 68.73 61.65 68.98 65.55 C 71.87 66.99 74.88 68.29 78.18 68.17 C 78.16 68.63 78.12 69.55 78.10 70.01 C 73.94 70.39 68.86 70.02 66.73 65.80 C 64.62 61.91 69.02 58.71 69.32 54.91 Z" />
<path fill="#81bee5" opacity="1.00" d=" M 75.65 58.81 C 74.02 60.15 71.35 57.09 73.62 56.25 C 74.62 56.47 76.26 57.65 75.65 58.81 Z" />
<path fill="#81bee5" opacity="1.00" d=" M 40.28 65.11 C 39.91 62.23 38.08 58.98 40.56 56.56 C 41.31 58.89 42.03 61.22 42.77 63.55 C 41.97 64.32 41.19 65.10 40.41 65.89 C 43.01 64.37 45.84 64.72 48.29 66.26 C 45.88 66.92 43.00 67.18 41.33 69.29 C 39.95 70.96 39.73 73.19 39.30 75.24 C 42.98 74.71 46.68 75.27 49.39 78.00 C 45.08 78.07 40.54 77.69 37.12 74.77 C 36.85 71.71 37.84 68.89 39.80 66.54 C 38.70 65.88 37.26 66.32 36.03 66.08 C 36.27 65.56 36.76 64.54 37.00 64.03 C 38.09 64.40 39.18 64.76 40.28 65.11 Z" />
<path fill="#81bee5" opacity="1.00" d=" M 82.32 57.37 C 83.51 59.54 83.78 61.98 83.69 64.41 C 83.09 65.07 81.89 66.39 81.29 67.05 C 81.85 67.06 82.99 67.10 83.55 67.12 C 84.36 65.51 85.22 63.93 86.15 62.40 C 85.99 64.73 85.63 67.05 84.93 69.28 C 84.32 69.86 83.71 70.42 83.08 70.98 C 81.95 71.14 80.82 71.31 79.68 71.47 C 80.27 70.15 81.25 69.24 82.60 68.73 C 81.40 68.21 80.19 67.71 78.98 67.22 C 79.42 66.45 79.87 65.68 80.32 64.91 C 80.05 64.58 79.51 63.94 79.23 63.62 C 79.90 63.55 81.24 63.43 81.91 63.36 C 82.14 61.37 82.20 59.37 82.32 57.37 Z" />
<path fill="#81bee5" opacity="1.00" d=" M 75.54 59.93 C 76.43 60.33 77.32 60.72 78.22 61.11 C 78.39 63.53 77.43 66.16 75.05 67.13 C 73.99 66.71 72.98 66.17 71.96 65.65 C 74.19 64.71 76.50 62.58 75.54 59.93 Z" />
<path fill="#81bee5" opacity="1.00" d=" M 56.20 66.28 C 56.66 65.95 57.59 65.29 58.06 64.95 C 59.31 66.03 60.58 67.11 61.85 68.18 C 63.41 71.98 63.76 76.58 60.61 79.68 C 57.12 79.95 53.49 79.33 50.76 77.00 C 53.52 78.45 56.55 76.33 59.06 78.48 C 60.81 74.28 60.25 68.94 56.20 66.28 Z" />
<path fill="#81bee5" opacity="1.00" d=" M 46.54 69.54 C 48.74 68.81 50.72 67.45 53.01 67.06 C 55.99 67.56 57.90 69.99 58.88 72.67 C 57.73 74.01 56.83 75.78 54.99 76.27 C 52.59 76.56 50.41 75.16 48.50 73.89 C 50.74 72.78 53.13 73.68 55.43 74.02 L 54.87 73.22 C 54.73 72.99 54.45 72.55 54.31 72.33 C 54.78 72.34 55.70 72.36 56.17 72.37 C 55.69 70.01 53.20 69.54 51.21 70.18 C 49.76 71.09 48.66 72.41 47.50 73.65 C 45.19 73.74 42.42 74.00 41.60 71.27 C 43.07 71.73 44.55 72.14 46.06 72.46 C 46.18 71.73 46.42 70.27 46.54 69.54 Z" />
<path fill="#81bee5" opacity="1.00" d=" M 64.17 75.95 C 63.87 72.96 63.68 69.69 66.78 68.14 C 67.56 68.95 68.33 69.75 69.12 70.55 C 66.47 71.22 64.81 73.40 64.17 75.95 Z" />
<path fill="#81bee5" opacity="1.00" d=" M 77.00 75.21 C 77.70 74.06 78.90 73.31 80.20 73.03 C 80.43 73.21 80.89 73.57 81.13 73.75 C 80.83 74.03 80.25 74.61 79.95 74.89 C 79.22 74.97 77.74 75.13 77.00 75.21 Z" />
</g>
<g id="#5f8096ff">
<path fill="#5f8096" opacity="1.00" d=" M 47.97 47.34 C 51.28 47.55 46.39 50.31 47.97 47.34 Z" />
<path fill="#5f8096" opacity="1.00" d=" M 63.22 47.59 C 63.93 45.48 67.33 47.89 65.90 49.49 C 64.73 50.12 63.45 48.65 63.22 47.59 Z" />
<path fill="#5f8096" opacity="1.00" d=" M 53.51 56.54 C 54.60 56.52 55.68 56.51 56.77 56.50 L 56.92 57.63 C 57.07 59.22 57.34 60.85 58.52 62.04 C 55.98 62.61 53.35 62.59 50.91 61.63 C 51.76 60.35 52.43 58.95 53.06 57.55 L 53.51 56.54 Z" />
<path fill="#5f8096" opacity="1.00" d=" M 33.22 57.52 L 33.63 57.52 C 35.06 57.54 36.50 57.43 37.89 57.09 C 37.75 57.41 37.47 58.05 37.33 58.37 C 37.80 60.04 38.26 61.71 38.72 63.39 C 37.54 62.08 36.34 60.78 35.12 59.51 C 34.98 61.28 35.65 62.87 37.00 64.03 C 36.76 64.54 36.27 65.56 36.03 66.08 C 33.93 64.25 32.36 61.90 31.62 59.20 C 32.02 58.78 32.82 57.94 33.22 57.52 Z" />
<path fill="#5f8096" opacity="1.00" d=" M 73.25 61.10 C 74.49 61.77 74.45 62.46 73.11 63.17 C 71.87 62.51 71.92 61.82 73.25 61.10 Z" />
<path fill="#5f8096" opacity="1.00" d=" M 43.33 69.09 C 44.73 68.83 45.23 69.38 44.85 70.74 C 43.45 71.01 42.94 70.46 43.33 69.09 Z" />
<path fill="#5f8096" opacity="1.00" d=" M 68.30 72.33 C 69.85 71.91 71.40 71.47 72.96 71.03 C 72.01 72.02 71.06 73.00 70.11 73.98 C 72.02 73.10 75.07 72.85 76.12 75.06 C 74.69 76.53 72.33 75.71 70.51 75.93 C 69.95 74.63 69.17 73.44 68.30 72.33 Z" />
<path fill="#5f8096" opacity="1.00" d=" M 73.74 71.06 C 75.57 71.00 77.41 70.98 79.24 70.97 C 79.41 74.33 74.77 73.27 73.74 71.06 Z" />
<path fill="#5f8096" opacity="1.00" d=" M 66.31 74.07 C 69.28 72.50 66.49 77.38 66.31 74.07 Z" />
<path fill="#5f8096" opacity="1.00" d=" M 66.74 75.90 C 70.18 77.08 73.82 77.09 77.41 77.04 C 77.23 77.48 76.85 78.37 76.67 78.81 C 73.42 78.80 67.18 80.73 66.74 75.90 Z" />
<path fill="#5f8096" opacity="1.00" d=" M 63.90 77.12 C 65.22 77.42 66.16 79.28 65.72 80.53 C 64.19 80.93 62.02 77.93 63.90 77.12 Z" />
</g>
<g id="#ffffffff">
<path fill="#ffffff" opacity="1.00" d=" M 47.70 55.96 C 48.50 55.19 49.31 54.43 50.12 53.67 C 51.14 54.94 52.09 56.25 53.06 57.55 C 52.43 58.95 51.76 60.35 50.91 61.63 C 50.62 62.03 50.04 62.82 49.75 63.22 C 46.17 63.36 44.37 59.48 45.13 56.38 C 45.77 56.28 47.06 56.06 47.70 55.96 M 48.56 58.09 C 48.71 61.38 51.56 56.57 48.56 58.09 Z" />
<path fill="#ffffff" opacity="1.00" d=" M 56.92 57.63 C 57.64 56.81 58.36 55.99 59.08 55.16 C 60.99 55.15 62.91 55.14 64.83 55.11 C 65.99 57.16 66.86 60.17 64.88 62.02 C 63.53 63.90 61.10 63.00 59.20 62.97 C 59.03 62.74 58.69 62.28 58.52 62.04 C 57.34 60.85 57.07 59.22 56.92 57.63 M 60.22 58.11 C 60.46 61.30 63.39 56.60 60.22 58.11 Z" />
</g>
<g id="#ff9d7eff">
<path fill="#ff9d7e" opacity="1.00" d=" M 38.69 81.75 C 42.79 80.24 47.12 78.97 51.56 79.31 C 52.26 80.02 52.97 80.73 53.68 81.44 C 53.68 82.11 53.67 83.47 53.67 84.14 C 51.65 82.81 49.51 81.68 47.15 81.13 C 49.27 81.89 51.71 82.49 52.82 84.73 C 48.58 85.01 44.31 85.34 40.07 84.95 C 38.58 84.96 37.12 82.82 38.69 81.75 Z" />
<path fill="#ff9d7e" opacity="1.00" d=" M 64.55 83.13 C 67.60 79.37 72.59 80.02 76.78 81.09 C 77.37 82.52 77.99 83.94 78.61 85.36 C 77.83 85.49 76.25 85.75 75.46 85.88 C 71.60 86.21 67.46 86.06 64.55 83.13 Z" />
</g>
</svg>
