<?xml version="1.0" encoding="UTF-8" ?>
<!DOCTYPE svg PUBLIC "-//W3C//DTD SVG 1.1//EN" "http://www.w3.org/Graphics/SVG/1.1/DTD/svg11.dtd">
<svg width="120pt" height="120pt" viewBox="0 0 120 120" version="1.1" xmlns="http://www.w3.org/2000/svg">
<g id="#3f3a36ff">
<path fill="#3f3a36" opacity="1.00" d=" M 53.34 14.06 C 56.83 16.22 60.87 17.45 63.95 20.23 C 63.98 21.97 64.02 23.70 64.10 25.43 C 64.53 26.45 64.94 27.48 65.33 28.52 C 65.68 29.51 66.03 30.49 66.38 31.47 C 67.45 34.68 66.83 38.11 67.13 41.41 C 67.93 42.61 67.92 44.05 68.03 45.42 C 67.29 46.66 66.63 47.94 65.87 49.17 C 65.75 49.32 65.51 49.64 65.39 49.79 L 65.10 50.19 C 66.17 51.57 67.38 51.62 68.74 50.36 L 68.62 49.99 L 68.92 49.99 C 70.78 50.00 72.64 50.01 74.51 50.01 C 72.92 50.95 71.05 51.15 69.36 51.84 C 68.13 51.90 66.89 51.95 65.66 51.99 C 68.47 55.24 70.53 59.21 71.36 63.43 C 71.85 65.06 72.04 66.74 72.27 68.42 C 73.51 71.26 72.94 74.44 72.87 77.43 C 71.65 78.66 71.84 80.40 72.87 81.67 C 72.98 83.58 72.99 85.49 72.88 87.40 C 72.42 88.32 72.10 89.30 71.93 90.32 C 73.61 92.33 72.83 95.07 73.08 97.46 C 73.39 98.07 74.01 99.30 74.32 99.91 C 71.54 99.97 68.76 99.97 65.98 99.95 C 66.04 99.38 66.17 98.24 66.23 97.66 C 67.51 95.15 67.58 91.92 66.26 89.41 C 66.13 87.02 66.10 84.55 64.89 82.40 C 63.28 81.65 62.38 80.07 61.33 78.72 C 60.91 79.39 60.08 80.73 59.66 81.40 C 63.24 74.58 63.71 66.77 62.86 59.24 C 62.10 61.35 61.40 63.48 60.74 65.62 C 57.94 69.20 55.14 72.80 52.85 76.74 C 51.97 78.40 50.64 79.72 49.12 80.81 C 49.09 82.39 49.07 83.97 49.06 85.54 L 48.55 85.02 C 48.20 84.41 47.48 83.19 47.13 82.58 C 47.04 83.26 46.85 84.61 46.76 85.29 C 45.82 84.81 44.88 84.33 43.94 83.84 C 43.92 84.45 43.88 85.66 43.86 86.27 C 43.27 86.01 42.09 85.49 41.50 85.22 C 40.02 84.77 38.55 84.27 37.07 83.78 C 37.00 84.99 36.91 86.21 36.81 87.42 C 34.84 92.43 36.37 98.29 38.11 103.16 C 37.73 103.62 36.99 104.53 36.61 104.98 C 33.74 104.95 30.87 104.95 27.99 104.95 C 28.05 104.37 28.18 103.22 28.24 102.65 C 29.75 99.49 29.28 95.71 28.49 92.41 C 28.05 91.40 27.61 90.41 27.16 89.41 C 26.81 86.08 27.84 82.45 26.23 79.36 C 26.15 78.36 26.08 77.37 26.01 76.37 C 23.08 73.75 20.38 70.87 18.30 67.53 C 18.02 66.49 17.73 65.46 17.43 64.43 C 17.03 63.42 16.63 62.41 16.21 61.41 C 16.14 59.74 16.16 58.06 15.96 56.39 C 14.82 55.40 13.52 54.61 12.28 53.75 C 12.01 52.59 11.66 51.47 11.22 50.37 C 11.09 48.37 11.05 46.36 11.02 44.35 C 11.58 43.93 12.71 43.08 13.27 42.65 C 11.51 45.91 12.14 49.54 13.24 52.88 C 16.39 55.23 19.88 57.10 23.79 57.78 C 23.62 55.64 23.44 53.50 23.28 51.37 C 20.13 50.32 14.55 49.64 15.46 45.03 L 16.52 45.75 C 16.87 46.46 17.56 47.89 17.90 48.60 C 17.95 47.80 18.05 46.20 18.10 45.40 C 18.82 44.42 19.56 43.46 20.32 42.51 C 19.77 44.62 19.21 46.72 18.68 48.84 C 24.81 52.13 29.87 45.29 36.06 45.90 C 39.95 45.23 42.43 48.63 45.58 50.10 C 47.39 48.78 46.86 46.39 47.15 44.46 C 46.29 43.65 45.43 42.83 44.57 42.02 C 45.41 41.19 46.24 40.37 47.08 39.54 C 49.21 41.64 51.33 43.80 52.97 46.32 C 52.96 49.28 53.97 53.03 51.44 55.26 C 50.33 56.33 48.88 56.91 47.53 57.58 C 47.18 57.75 46.48 58.09 46.13 58.26 L 45.47 58.61 C 44.60 65.61 39.86 71.06 36.93 77.25 C 33.82 77.24 30.68 76.82 28.00 75.11 C 27.94 72.63 28.20 70.07 27.42 67.69 C 26.50 65.20 25.52 62.74 24.72 60.22 C 22.26 58.72 19.56 57.72 16.76 57.07 C 17.15 58.83 17.55 60.60 18.05 62.34 C 19.64 68.72 24.60 73.48 29.63 77.36 C 32.09 79.26 34.73 81.20 37.91 81.58 C 38.81 82.22 39.71 82.88 40.60 83.54 C 42.26 83.25 43.97 83.08 45.55 82.47 C 50.58 78.11 54.29 72.50 58.27 67.22 C 59.96 64.98 60.87 62.26 61.40 59.54 C 62.62 55.35 61.66 51.03 60.20 47.05 C 60.14 46.86 60.02 46.50 59.96 46.32 C 60.54 46.17 61.69 45.87 62.27 45.72 L 62.60 45.39 C 62.97 44.95 63.71 44.08 64.08 43.64 C 63.93 39.90 64.61 36.05 63.49 32.41 C 63.06 31.41 62.63 30.42 62.20 29.42 C 62.16 28.86 62.08 27.74 62.04 27.19 C 59.28 27.07 56.95 25.54 55.04 23.68 C 55.31 23.26 55.87 22.41 56.14 21.98 C 55.01 19.64 53.41 17.57 51.98 15.41 C 52.32 15.08 53.00 14.40 53.34 14.06 M 54.67 16.57 C 56.04 18.96 57.23 21.46 58.01 24.10 C 59.60 24.78 61.19 25.44 62.80 26.07 C 62.89 24.46 62.99 22.85 63.08 21.24 C 60.62 19.13 57.79 17.49 54.67 16.57 C 54.12 16.09 54.12 16.09 54.67 16.57 M 47.82 42.42 C 47.93 44.69 48.04 46.96 48.16 49.23 C 46.69 50.05 45.18 50.81 43.63 51.45 C 43.09 49.31 41.29 50.12 39.98 51.00 C 40.00 52.94 39.99 54.89 39.98 56.83 C 41.22 57.87 42.55 58.83 44.05 59.48 C 43.08 57.33 42.26 55.10 41.96 52.74 C 42.73 54.47 43.40 56.24 44.11 57.99 C 47.35 56.66 52.66 55.51 52.21 50.93 C 52.78 47.43 50.59 44.29 47.82 42.42 C 47.07 42.20 47.07 42.20 47.82 42.42 M 31.39 47.77 C 30.89 47.84 29.89 47.98 29.39 48.05 C 25.93 49.54 25.65 53.59 25.06 56.83 C 26.43 62.18 29.53 67.14 29.17 72.83 C 30.10 73.78 31.51 74.00 32.45 74.92 L 32.85 75.42 C 34.30 75.46 35.69 74.95 37.06 74.55 C 36.54 74.40 35.51 74.10 35.00 73.94 C 36.06 72.65 38.69 73.06 38.88 70.93 C 39.79 66.84 43.91 64.46 44.37 60.19 C 43.62 60.10 42.14 59.93 41.39 59.84 C 40.69 59.14 39.99 58.45 39.29 57.75 C 38.75 54.33 39.02 50.84 41.45 48.19 C 40.70 48.04 39.20 47.73 38.45 47.57 L 39.58 47.34 C 36.88 47.03 33.93 46.45 31.39 47.77 M 24.27 54.77 C 25.64 54.65 25.47 52.13 24.83 51.24 C 23.38 51.30 23.67 53.87 24.27 54.77 M 63.10 51.85 C 62.70 57.44 64.32 62.90 64.45 68.48 C 65.22 66.87 66.00 65.27 66.94 63.75 C 66.58 67.03 64.41 69.65 63.58 72.77 C 62.67 75.44 63.34 78.27 64.22 80.84 C 64.66 80.92 65.53 81.09 65.97 81.18 C 67.37 85.99 68.00 91.02 68.21 96.01 C 67.83 96.99 67.45 97.96 67.07 98.93 C 68.71 98.97 70.34 99.00 71.98 99.03 C 72.00 98.27 72.03 96.75 72.05 95.99 C 70.61 91.44 71.66 86.88 72.15 82.29 L 71.07 82.10 C 71.06 81.26 71.06 79.57 71.06 78.72 C 71.34 78.33 71.90 77.54 72.18 77.15 C 72.18 74.55 72.30 71.88 71.43 69.38 C 70.36 62.99 68.76 55.78 63.10 51.85 M 27.12 77.46 C 28.54 81.13 27.97 85.11 28.09 88.95 L 28.80 89.14 C 29.17 90.44 29.55 91.74 29.96 93.04 C 30.04 95.70 30.07 98.36 30.09 101.03 C 29.69 102.01 29.28 103.00 28.88 103.99 C 31.18 103.92 33.52 103.98 35.75 103.33 C 35.68 102.74 35.56 101.57 35.50 100.99 L 36.12 100.99 C 35.24 97.66 34.86 94.22 34.89 90.78 C 35.25 88.38 35.80 86.01 35.96 83.58 C 32.95 81.64 30.11 79.45 27.12 77.46 Z" />
<path fill="#3f3a36" opacity="1.00" d=" M 39.40 59.42 C 39.44 60.03 39.52 61.26 39.56 61.88 L 38.96 62.54 C 39.02 62.95 39.12 63.77 39.18 64.18 C 38.75 65.29 38.09 66.29 37.41 67.26 C 37.65 65.53 37.95 63.82 38.23 62.11 C 38.52 61.43 39.10 60.09 39.40 59.42 Z" />
</g>
<g id="#bdc1d2ff">
<path fill="#bdc1d2" opacity="1.00" d=" M 54.67 16.57 C 54.12 16.09 54.12 16.09 54.67 16.57 Z" />
<path fill="#bdc1d2" opacity="1.00" d=" M 106.07 22.39 C 106.37 21.96 106.96 21.09 107.26 20.66 C 106.87 23.04 106.38 25.40 106.03 27.79 C 105.16 26.44 104.19 25.18 103.19 23.94 L 103.32 23.93 C 104.43 23.96 105.57 23.44 106.07 22.39 Z" />
<path fill="#bdc1d2" opacity="1.00" d=" M 47.82 42.42 C 50.59 44.29 52.78 47.43 52.21 50.93 C 52.66 55.51 47.35 56.66 44.11 57.99 C 43.40 56.24 42.73 54.47 41.96 52.74 C 42.26 55.10 43.08 57.33 44.05 59.48 C 42.55 58.83 41.22 57.87 39.98 56.83 C 39.99 54.89 40.00 52.94 39.98 51.00 C 41.29 50.12 43.09 49.31 43.63 51.45 C 45.18 50.81 46.69 50.05 48.16 49.23 C 48.04 46.96 47.93 44.69 47.82 42.42 Z" />
</g>
<g id="#6f78a0ff">
<path fill="#6f78a0" opacity="1.00" d=" M 54.67 16.57 C 57.79 17.49 60.62 19.13 63.08 21.24 C 62.99 22.85 62.89 24.46 62.80 26.07 C 61.19 25.44 59.60 24.78 58.01 24.10 C 57.23 21.46 56.04 18.96 54.67 16.57 Z" />
<path fill="#6f78a0" opacity="1.00" d=" M 46.34 95.13 C 46.29 94.29 46.54 93.54 47.10 92.88 C 47.33 93.45 47.79 94.59 48.03 95.16 C 47.72 96.37 47.30 97.55 46.81 98.71 C 46.69 97.81 46.46 96.02 46.34 95.13 Z" />
</g>
<g id="#394051ff">
<path fill="#394051" opacity="1.00" d=" M 107.35 20.14 C 107.81 19.79 108.74 19.07 109.21 18.71 C 109.07 20.06 108.73 21.36 108.20 22.60 C 108.06 23.54 107.92 24.47 107.78 25.41 C 106.72 27.07 107.01 29.09 106.88 30.95 L 105.81 31.08 C 105.86 30.26 105.97 28.61 106.03 27.79 C 106.38 25.40 106.87 23.04 107.26 20.66 L 107.35 20.14 Z" />
</g>
<g id="#1a2832ff">
<path fill="#1a2832" opacity="1.00" d=" M 103.32 23.93 C 101.64 22.11 105.43 19.81 106.07 22.39 C 105.57 23.44 104.43 23.96 103.32 23.93 Z" />
</g>
<g id="#041923ff">
<path fill="#041923" opacity="1.00" d=" M 101.11 25.16 L 101.98 24.97 C 101.79 25.45 101.41 26.40 101.22 26.88 C 101.19 26.45 101.14 25.59 101.11 25.16 Z" />
</g>
<g id="#727ba4ff">
<path fill="#727ba4" opacity="1.00" d=" M 101.98 24.97 L 103.19 23.94 C 104.19 25.18 105.16 26.44 106.03 27.79 C 105.97 28.61 105.86 30.26 105.81 31.08 C 105.78 31.56 105.72 32.52 105.70 33.00 L 104.96 33.10 C 103.84 33.16 103.19 33.75 103.01 34.87 L 102.66 36.15 L 101.74 35.18 C 100.83 34.21 99.92 33.25 99.01 32.29 C 99.51 30.66 99.99 29.03 100.50 27.41 C 100.68 27.28 101.04 27.01 101.22 26.88 C 101.41 26.40 101.79 25.45 101.98 24.97 Z" />
<path fill="#727ba4" opacity="1.00" d=" M 87.60 43.05 C 88.03 42.79 88.88 42.26 89.30 41.99 C 88.70 42.86 88.16 43.77 87.62 44.68 C 85.48 44.95 83.27 45.11 81.37 46.21 C 80.53 46.79 79.69 47.37 78.85 47.94 C 77.43 47.92 76.01 47.90 74.59 47.90 C 72.76 48.76 70.87 49.45 68.92 49.99 L 68.62 49.99 C 67.55 49.81 66.47 49.75 65.39 49.79 C 65.51 49.64 65.75 49.32 65.87 49.17 C 67.10 48.97 68.33 48.78 69.57 48.59 C 74.21 47.25 79.08 46.57 83.53 44.68 C 84.88 44.12 86.20 43.49 87.60 43.05 Z" />
</g>
<g id="#17232cf2">
<path fill="#17232c" opacity="0.95" d=" M 98.58 30.41 C 98.86 29.16 99.50 28.16 100.50 27.41 C 99.99 29.03 99.51 30.66 99.01 32.29 C 99.92 33.25 100.83 34.21 101.74 35.18 C 98.60 35.39 96.15 37.45 93.61 39.07 C 95.17 37.41 96.53 35.22 98.98 34.80 C 97.92 33.53 97.81 31.85 98.58 30.41 Z" />
</g>
<g id="#222b2fff">
<path fill="#222b2f" opacity="1.00" d=" M 39.03 31.11 C 40.91 30.21 42.98 28.98 45.13 29.77 C 45.50 29.62 46.25 29.34 46.62 29.19 C 47.70 30.43 49.27 32.02 50.70 29.98 C 52.82 33.80 55.72 37.06 58.32 40.54 C 59.07 42.68 60.48 44.47 62.60 45.39 L 62.27 45.72 C 61.69 45.87 60.54 46.17 59.96 46.32 C 59.78 45.91 59.42 45.10 59.24 44.70 C 56.88 40.19 53.20 36.58 50.54 32.27 C 42.71 29.55 34.40 32.41 27.58 36.43 C 28.84 34.14 31.40 33.34 33.53 32.13 C 34.03 32.08 35.03 31.99 35.53 31.95 C 36.65 31.23 37.78 30.53 38.90 29.81 L 39.03 31.11 Z" />
</g>
<g id="#9e9086ff">
<path fill="#9e9086" opacity="1.00" d=" M 27.58 36.43 C 34.40 32.41 42.71 29.55 50.54 32.27 C 53.20 36.58 56.88 40.19 59.24 44.70 C 58.75 46.08 58.25 47.46 57.76 48.84 C 57.23 48.08 56.69 47.32 56.16 46.57 C 55.10 46.49 54.04 46.40 52.97 46.32 C 51.33 43.80 49.21 41.64 47.08 39.54 C 46.24 40.37 45.41 41.19 44.57 42.02 C 45.43 42.83 46.29 43.65 47.15 44.46 C 46.86 46.39 47.39 48.78 45.58 50.10 C 42.43 48.63 39.95 45.23 36.06 45.90 C 29.87 45.29 24.81 52.13 18.68 48.84 C 19.21 46.72 19.77 44.62 20.32 42.51 L 20.35 42.43 L 20.76 42.16 C 23.15 40.72 25.23 38.85 27.15 36.83 C 27.26 36.73 27.48 36.53 27.58 36.43 Z" />
</g>
<g id="#262834ff">
<path fill="#262834" opacity="1.00" d=" M 103.01 34.87 C 103.19 33.75 103.84 33.16 104.96 33.10 C 105.26 34.74 104.61 35.33 103.01 34.87 Z" />
</g>
<g id="#514a45ff">
<path fill="#514a45" opacity="1.00" d=" M 93.61 39.07 C 96.15 37.45 98.60 35.39 101.74 35.18 C 97.48 38.77 93.74 43.12 88.44 45.28 C 86.78 46.09 85.13 46.90 83.48 47.72 C 82.46 48.00 81.44 48.29 80.43 48.58 C 79.41 48.98 78.39 49.39 77.39 49.83 C 76.43 49.91 75.47 49.97 74.51 50.01 C 72.64 50.01 70.78 50.00 68.92 49.99 C 70.87 49.45 72.76 48.76 74.59 47.90 C 76.01 47.90 77.43 47.92 78.85 47.94 C 79.69 47.37 80.53 46.79 81.37 46.21 C 83.27 45.11 85.48 44.95 87.62 44.68 C 88.16 43.77 88.70 42.86 89.30 41.99 C 90.66 40.91 92.16 40.02 93.61 39.07 Z" />
</g>
<g id="#3d4446ff">
<path fill="#3d4446" opacity="1.00" d=" M 20.76 42.16 C 22.58 40.09 24.24 37.42 27.15 36.83 C 25.23 38.85 23.15 40.72 20.76 42.16 Z" />
</g>
<g id="#061a23ff">
<path fill="#061a23" opacity="1.00" d=" M 14.25 41.37 L 15.08 40.94 C 15.26 41.27 15.64 41.92 15.83 42.24 C 15.43 42.23 14.65 42.22 14.26 42.21 L 14.25 41.37 Z" />
</g>
<g id="#c5c7d8ff">
<path fill="#c5c7d8" opacity="1.00" d=" M 14.26 42.21 C 14.65 42.22 15.43 42.23 15.83 42.24 C 15.73 42.77 15.53 43.83 15.43 44.37 L 15.41 44.44 C 15.42 44.49 15.43 44.59 15.44 44.64 L 15.46 45.03 C 14.55 49.64 20.13 50.32 23.28 51.37 C 23.44 53.50 23.62 55.64 23.79 57.78 C 19.88 57.10 16.39 55.23 13.24 52.88 C 12.14 49.54 11.51 45.91 13.27 42.65 C 13.52 42.54 14.01 42.32 14.26 42.21 Z" />
<path fill="#c5c7d8" opacity="1.00" d=" M 30.60 61.96 C 29.22 60.70 31.23 58.12 32.64 59.70 C 34.30 60.97 32.01 63.28 30.60 61.96 Z" />
<path fill="#c5c7d8" opacity="1.00" d=" M 38.96 62.54 L 39.56 61.88 L 40.08 62.71 C 39.86 63.07 39.40 63.81 39.18 64.18 C 39.12 63.77 39.02 62.95 38.96 62.54 Z" />
</g>
<g id="#bfc2d2ff">
<path fill="#bfc2d2" opacity="1.00" d=" M 47.82 42.42 C 47.07 42.20 47.07 42.20 47.82 42.42 Z" />
</g>
<g id="#031823ff">
<path fill="#031823" opacity="1.00" d=" M 15.41 44.44 L 15.43 44.37 L 15.44 44.64 C 15.43 44.59 15.42 44.49 15.41 44.44 Z" />
</g>
<g id="#ada097ff">
<path fill="#ada097" opacity="1.00" d=" M 59.24 44.70 C 59.42 45.10 59.78 45.91 59.96 46.32 C 60.02 46.50 60.14 46.86 60.20 47.05 C 59.39 49.25 58.50 51.42 57.63 53.60 C 56.67 53.19 55.72 52.79 54.76 52.39 C 54.41 54.96 54.02 57.53 53.59 60.08 C 53.22 58.68 52.86 57.28 52.50 55.88 C 50.93 57.44 49.41 59.05 47.94 60.71 C 47.84 59.93 47.63 58.36 47.53 57.58 C 48.88 56.91 50.33 56.33 51.44 55.26 C 53.97 53.03 52.96 49.28 52.97 46.32 C 54.04 46.40 55.10 46.49 56.16 46.57 C 56.69 47.32 57.23 48.08 57.76 48.84 C 58.25 47.46 58.75 46.08 59.24 44.70 Z" />
</g>
<g id="#e9b56dff">
<path fill="#e9b56d" opacity="1.00" d=" M 31.39 47.77 C 33.93 46.45 36.88 47.03 39.58 47.34 L 38.45 47.57 C 35.11 48.28 30.34 47.90 28.82 51.71 C 28.45 54.10 29.50 56.42 30.00 58.72 C 29.82 60.12 29.64 61.52 29.46 62.92 C 30.03 62.89 31.16 62.82 31.72 62.79 C 32.53 63.78 33.34 64.77 34.15 65.75 C 35.52 64.56 36.91 63.38 38.23 62.11 C 37.95 63.82 37.65 65.53 37.41 67.26 C 38.09 66.29 38.75 65.29 39.18 64.18 C 39.40 63.81 39.86 63.07 40.08 62.71 L 39.56 61.88 C 39.52 61.26 39.44 60.03 39.40 59.42 C 39.37 59.00 39.32 58.17 39.29 57.75 C 39.99 58.45 40.69 59.14 41.39 59.84 C 42.14 59.93 43.62 60.10 44.37 60.19 C 43.91 64.46 39.79 66.84 38.88 70.93 C 38.69 73.06 36.06 72.65 35.00 73.94 C 35.51 74.10 36.54 74.40 37.06 74.55 C 35.69 74.95 34.30 75.46 32.85 75.42 L 32.45 74.92 C 31.51 74.00 30.10 73.78 29.17 72.83 C 29.53 67.14 26.43 62.18 25.06 56.83 C 25.65 53.59 25.93 49.54 29.39 48.05 C 29.89 47.98 30.89 47.84 31.39 47.77 Z" />
</g>
<g id="#ffc677ff">
<path fill="#ffc677" opacity="1.00" d=" M 28.82 51.71 C 30.34 47.90 35.11 48.28 38.45 47.57 C 39.20 47.73 40.70 48.04 41.45 48.19 C 39.02 50.84 38.75 54.33 39.29 57.75 C 39.32 58.17 39.37 59.00 39.40 59.42 C 39.10 60.09 38.52 61.43 38.23 62.11 C 36.91 63.38 35.52 64.56 34.15 65.75 C 33.34 64.77 32.53 63.78 31.72 62.79 C 32.28 62.74 33.40 62.64 33.97 62.59 C 33.77 61.31 33.83 59.88 33.00 58.80 C 32.00 58.72 31.00 58.69 30.00 58.72 C 29.50 56.42 28.45 54.10 28.82 51.71 M 31.35 52.93 C 32.75 53.27 33.27 52.75 32.93 51.35 C 31.55 51.02 31.02 51.55 31.35 52.93 M 29.59 57.03 C 30.45 57.02 32.16 57.02 33.02 57.02 C 33.01 56.17 32.97 54.47 32.95 53.62 C 31.19 54.00 29.88 55.19 29.59 57.03 Z" />
</g>
<g id="#93867dff">
<path fill="#93867d" opacity="1.00" d=" M 57.63 53.60 C 58.50 51.42 59.39 49.25 60.20 47.05 C 61.66 51.03 62.62 55.35 61.40 59.54 C 61.23 58.88 60.91 57.57 60.74 56.92 C 59.93 59.05 59.17 61.20 58.41 63.35 C 57.44 63.11 56.47 62.88 55.50 62.64 C 54.08 64.09 52.67 65.55 51.26 67.00 C 51.41 65.70 51.55 64.39 51.70 63.09 C 48.82 65.41 46.48 68.27 44.25 71.19 C 44.97 66.90 45.55 62.58 46.13 58.26 C 46.48 58.09 47.18 57.75 47.53 57.58 C 47.63 58.36 47.84 59.93 47.94 60.71 C 49.41 59.05 50.93 57.44 52.50 55.88 C 52.86 57.28 53.22 58.68 53.59 60.08 C 54.02 57.53 54.41 54.96 54.76 52.39 C 55.72 52.79 56.67 53.19 57.63 53.60 Z" />
</g>
<g id="#605852ff">
<path fill="#605852" opacity="1.00" d=" M 65.39 49.79 C 66.47 49.75 67.55 49.81 68.62 49.99 L 68.74 50.36 C 67.38 51.62 66.17 51.57 65.10 50.19 L 65.39 49.79 Z" />
</g>
<g id="#c3c7d9ff">
<path fill="#c3c7d9" opacity="1.00" d=" M 24.27 54.77 C 23.67 53.87 23.38 51.30 24.83 51.24 C 25.47 52.13 25.64 54.65 24.27 54.77 Z" />
</g>
<g id="#60513fff">
<path fill="#60513f" opacity="1.00" d=" M 31.35 52.93 C 31.02 51.55 31.55 51.02 32.93 51.35 C 33.27 52.75 32.75 53.27 31.35 52.93 Z" />
</g>
<g id="#e3b16aff">
<path fill="#e3b16a" opacity="1.00" d=" M 63.10 51.85 C 68.76 55.78 70.36 62.99 71.43 69.38 C 72.30 71.88 72.18 74.55 72.18 77.15 C 71.90 77.54 71.34 78.33 71.06 78.72 C 71.06 79.57 71.06 81.26 71.07 82.10 C 69.36 81.81 67.66 81.51 65.97 81.18 C 65.53 81.09 64.66 80.92 64.22 80.84 C 63.34 78.27 62.67 75.44 63.58 72.77 C 64.41 69.65 66.58 67.03 66.94 63.75 C 66.00 65.27 65.22 66.87 64.45 68.48 C 64.32 62.90 62.70 57.44 63.10 51.85 M 67.05 61.36 C 65.57 64.38 70.37 61.44 67.05 61.36 Z" />
</g>
<g id="#6f5d47ff">
<path fill="#6f5d47" opacity="1.00" d=" M 29.59 57.03 C 29.88 55.19 31.19 54.00 32.95 53.62 C 32.97 54.47 33.01 56.17 33.02 57.02 C 32.16 57.02 30.45 57.02 29.59 57.03 M 31.29 55.26 C 31.81 55.81 31.81 55.81 31.29 55.26 Z" />
</g>
<g id="#b4b7c9ff">
<path fill="#b4b7c9" opacity="1.00" d=" M 31.29 55.26 C 31.81 55.81 31.81 55.81 31.29 55.26 Z" />
</g>
<g id="#8e8178ff">
<path fill="#8e8178" opacity="1.00" d=" M 16.76 57.07 C 19.56 57.72 22.26 58.72 24.72 60.22 C 25.52 62.74 26.50 65.20 27.42 67.69 C 26.01 66.68 24.35 66.16 22.64 65.97 C 21.13 64.73 19.61 63.51 18.05 62.34 C 17.55 60.60 17.15 58.83 16.76 57.07 Z" />
</g>
<g id="#7f746cff">
<path fill="#7f746c" opacity="1.00" d=" M 58.41 63.35 C 59.17 61.20 59.93 59.05 60.74 56.92 C 60.91 57.57 61.23 58.88 61.40 59.54 C 60.87 62.26 59.96 64.98 58.27 67.22 C 54.29 72.50 50.58 78.11 45.55 82.47 C 43.97 83.08 42.26 83.25 40.60 83.54 C 39.71 82.88 38.81 82.22 37.91 81.58 C 34.73 81.20 32.09 79.26 29.63 77.36 C 24.60 73.48 19.64 68.72 18.05 62.34 C 19.61 63.51 21.13 64.73 22.64 65.97 C 24.35 66.16 26.01 66.68 27.42 67.69 C 28.20 70.07 27.94 72.63 28.00 75.11 C 30.68 76.82 33.82 77.24 36.93 77.25 C 39.86 71.06 44.60 65.61 45.47 58.61 L 46.13 58.26 C 45.55 62.58 44.97 66.90 44.25 71.19 C 46.48 68.27 48.82 65.41 51.70 63.09 C 51.55 64.39 51.41 65.70 51.26 67.00 C 52.67 65.55 54.08 64.09 55.50 62.64 C 56.47 62.88 57.44 63.11 58.41 63.35 Z" />
</g>
<g id="#e6b36bff">
<path fill="#e6b36b" opacity="1.00" d=" M 60.74 65.62 C 61.40 63.48 62.10 61.35 62.86 59.24 C 63.71 66.77 63.24 74.58 59.66 81.40 L 59.61 81.51 L 59.22 81.94 C 56.51 84.57 55.67 88.38 54.81 91.91 C 54.56 91.87 54.04 91.79 53.78 91.76 C 53.14 91.79 51.85 91.86 51.21 91.89 C 50.44 91.56 49.67 91.23 48.90 90.89 C 48.22 88.72 47.98 86.46 47.72 84.21 L 48.55 85.02 L 49.06 85.54 C 49.07 83.97 49.09 82.39 49.12 80.81 C 50.64 79.72 51.97 78.40 52.85 76.74 C 55.14 72.80 57.94 69.20 60.74 65.62 Z" />
<path fill="#e6b36b" opacity="1.00" d=" M 27.12 77.46 C 30.11 79.45 32.95 81.64 35.96 83.58 C 35.80 86.01 35.25 88.38 34.89 90.78 C 32.86 90.23 30.83 89.68 28.80 89.14 L 28.09 88.95 C 27.97 85.11 28.54 81.13 27.12 77.46 M 32.27 83.40 C 31.44 84.09 31.37 86.60 32.79 86.47 C 33.63 85.77 33.72 83.25 32.27 83.40 Z" />
</g>
<g id="#967546ff">
<path fill="#967546" opacity="1.00" d=" M 67.05 61.36 C 70.37 61.44 65.57 64.38 67.05 61.36 Z" />
</g>
<g id="#c29355ff">
<path fill="#c29355" opacity="1.00" d=" M 65.97 81.18 C 67.66 81.51 69.36 81.81 71.07 82.10 L 72.15 82.29 C 71.66 86.88 70.61 91.44 72.05 95.99 C 70.77 95.99 69.49 96.00 68.21 96.01 C 68.00 91.02 67.37 85.99 65.97 81.18 Z" />
</g>
<g id="#393530ff">
<path fill="#393530" opacity="1.00" d=" M 54.81 91.91 C 55.67 88.38 56.51 84.57 59.22 81.94 C 58.67 83.52 57.99 85.06 57.20 86.54 C 57.09 87.02 56.86 87.98 56.75 88.46 C 55.77 90.40 56.28 92.76 55.09 94.62 C 55.09 95.55 55.11 96.48 55.14 97.40 C 56.18 99.82 56.11 102.53 57.10 104.97 C 53.69 104.95 50.28 104.98 46.87 104.95 C 47.00 102.91 47.48 100.93 48.18 99.02 C 47.32 98.99 45.60 98.92 44.74 98.88 C 44.93 97.47 45.46 96.22 46.34 95.13 C 46.46 96.02 46.69 97.81 46.81 98.71 C 47.30 97.55 47.72 96.37 48.03 95.16 C 47.79 94.59 47.33 93.45 47.10 92.88 C 46.91 89.98 46.81 87.01 47.72 84.21 C 47.98 86.46 48.22 88.72 48.90 90.89 C 49.23 94.24 49.04 97.62 49.00 100.99 C 51.01 100.99 53.03 101.00 55.04 101.01 C 54.03 98.05 54.00 94.91 54.81 91.91 M 48.19 101.54 C 48.13 102.16 48.00 103.41 47.94 104.03 C 50.39 103.56 54.70 105.29 55.28 101.79 C 52.93 101.56 50.55 101.32 48.19 101.54 Z" />
</g>
<g id="#bc9154ff">
<path fill="#bc9154" opacity="1.00" d=" M 32.27 83.40 C 33.72 83.25 33.63 85.77 32.79 86.47 C 31.37 86.60 31.44 84.09 32.27 83.40 Z" />
</g>
<g id="#c29455ff">
<path fill="#c29455" opacity="1.00" d=" M 28.80 89.14 C 30.83 89.68 32.86 90.23 34.89 90.78 C 34.86 94.22 35.24 97.66 36.12 100.99 L 35.50 100.99 C 33.69 100.97 31.89 101.00 30.09 101.03 C 30.07 98.36 30.04 95.70 29.96 93.04 C 29.55 91.74 29.17 90.44 28.80 89.14 M 32.18 91.40 C 31.27 92.59 31.50 93.27 32.88 93.44 C 33.79 92.25 33.56 91.57 32.18 91.40 Z" />
</g>
<g id="#967141ff">
<path fill="#967141" opacity="1.00" d=" M 32.18 91.40 C 33.56 91.57 33.79 92.25 32.88 93.44 C 31.50 93.27 31.27 92.59 32.18 91.40 Z" />
</g>
<g id="#c19255ff">
<path fill="#c19255" opacity="1.00" d=" M 48.90 90.89 C 49.67 91.23 50.44 91.56 51.21 91.89 C 51.47 93.68 53.71 93.56 53.78 91.76 C 54.04 91.79 54.56 91.87 54.81 91.91 C 54.00 94.91 54.03 98.05 55.04 101.01 C 53.03 101.00 51.01 100.99 49.00 100.99 C 49.04 97.62 49.23 94.24 48.90 90.89 Z" />
<path fill="#c19255" opacity="1.00" d=" M 47.10 92.88 C 47.33 93.45 47.79 94.59 48.03 95.16 C 47.79 94.59 47.33 93.45 47.10 92.88 Z" />
</g>
<g id="#916e3fff">
<path fill="#916e3f" opacity="1.00" d=" M 51.21 91.89 C 51.85 91.86 53.14 91.79 53.78 91.76 C 53.71 93.56 51.47 93.68 51.21 91.89 Z" />
</g>
<g id="#5f678bff">
<path fill="#5f678b" opacity="1.00" d=" M 68.21 96.01 C 69.49 96.00 70.77 95.99 72.05 95.99 C 72.03 96.75 72.00 98.27 71.98 99.03 C 70.34 99.00 68.71 98.97 67.07 98.93 C 67.45 97.96 67.83 96.99 68.21 96.01 Z" />
</g>
<g id="#697195ff">
<path fill="#697195" opacity="1.00" d=" M 30.09 101.03 C 31.89 101.00 33.69 100.97 35.50 100.99 C 35.56 101.57 35.68 102.74 35.75 103.33 C 33.52 103.98 31.18 103.92 28.88 103.99 C 29.28 103.00 29.69 102.01 30.09 101.03 Z" />
</g>
<g id="#6a7295ff">
<path fill="#6a7295" opacity="1.00" d=" M 48.19 101.54 C 50.55 101.32 52.93 101.56 55.28 101.79 C 54.70 105.29 50.39 103.56 47.94 104.03 C 48.00 103.41 48.13 102.16 48.19 101.54 Z" />
</g>
</svg>
