<?xml version="1.0" encoding="UTF-8" ?>
<!DOCTYPE svg PUBLIC "-//W3C//DTD SVG 1.1//EN" "http://www.w3.org/Graphics/SVG/1.1/DTD/svg11.dtd">
<svg width="120pt" height="120pt" viewBox="0 0 120 120" version="1.1" xmlns="http://www.w3.org/2000/svg">
<g id="#363636ff">
<path fill="#363636" opacity="1.00" d=" M 56.62 18.61 C 58.94 17.47 61.14 19.21 63.49 19.33 C 65.31 20.47 67.50 19.99 69.52 20.09 C 71.21 21.20 72.88 22.32 74.61 23.37 C 76.21 25.92 78.44 28.37 78.11 31.60 C 80.57 35.73 84.12 39.43 88.58 41.36 C 90.93 42.34 91.86 45.31 90.45 47.44 C 85.82 49.41 81.05 46.17 76.26 46.83 C 79.80 45.44 83.47 46.53 87.05 47.05 C 88.78 47.58 89.99 46.28 90.86 45.00 C 87.07 41.68 82.25 39.68 79.14 35.55 C 78.31 36.38 77.49 37.21 76.67 38.05 C 73.72 38.05 70.66 38.28 67.85 37.17 C 63.78 36.05 61.33 32.39 58.36 29.69 C 57.95 28.16 57.39 26.65 57.23 25.06 C 57.63 23.02 59.20 21.45 60.27 19.73 C 57.60 18.98 54.95 20.18 52.26 20.17 C 48.99 23.73 47.13 28.29 43.96 31.92 C 44.53 32.39 45.67 33.33 46.24 33.80 C 48.14 32.13 50.61 32.04 53.01 32.05 C 53.02 33.54 53.03 35.02 53.01 36.51 C 51.81 37.75 50.65 39.04 49.60 40.42 C 48.87 39.56 47.97 38.90 46.92 38.44 C 46.26 36.16 45.62 33.82 44.01 31.99 C 42.06 34.61 39.78 36.95 37.31 39.07 C 34.38 35.32 36.55 30.31 38.62 26.68 L 38.76 27.38 C 38.82 27.74 38.95 28.46 39.02 28.83 L 38.41 29.43 C 36.50 31.75 37.08 34.88 37.04 37.64 C 39.93 36.03 41.94 33.39 43.69 30.66 C 43.94 30.29 44.43 29.55 44.67 29.18 C 45.71 28.05 46.68 26.85 47.35 25.46 C 48.33 23.91 49.35 22.39 50.34 20.85 C 47.41 21.79 44.04 22.27 41.88 24.68 C 41.58 24.98 40.99 25.58 40.70 25.88 L 40.00 25.95 C 43.38 20.14 50.83 20.09 56.62 18.61 M 60.83 20.94 C 58.70 22.30 57.74 25.30 59.42 27.40 C 59.65 28.01 60.12 29.23 60.35 29.85 L 60.87 29.94 C 64.03 34.96 70.22 37.83 76.09 36.91 C 79.43 35.90 76.68 32.24 77.26 29.90 C 76.24 27.95 75.04 26.09 73.79 24.28 C 73.02 23.82 72.26 23.36 71.51 22.89 C 68.65 20.11 64.42 21.07 60.83 20.94 M 46.73 34.11 C 47.02 35.90 47.64 38.73 50.11 37.99 C 52.33 37.35 52.07 34.74 52.12 32.93 C 50.25 32.95 48.28 32.88 46.73 34.11 Z" />
<path fill="#363636" opacity="1.00" d=" M 47.76 49.98 C 52.05 48.87 55.99 46.81 60.09 45.21 C 65.55 44.99 70.74 48.03 76.26 46.83 L 77.39 47.90 C 76.51 47.94 74.77 48.01 73.89 48.04 C 73.95 48.67 74.06 49.92 74.11 50.54 C 77.95 58.43 82.71 65.90 88.63 72.40 C 90.63 77.66 95.85 81.87 95.06 87.94 C 94.30 87.99 92.76 88.10 92.00 88.15 L 92.01 87.17 C 92.62 87.14 93.84 87.08 94.45 87.05 C 93.08 79.78 87.00 74.92 82.86 69.18 L 81.67 69.00 L 80.46 68.81 L 79.39 68.64 C 79.66 68.17 80.18 67.23 80.44 66.76 C 80.46 66.73 80.49 66.67 80.51 66.64 L 80.40 66.50 C 76.58 63.67 74.62 59.15 73.21 54.76 L 73.63 54.79 L 73.54 54.39 L 73.05 54.27 C 72.80 53.94 72.29 53.27 72.04 52.93 C 74.21 52.53 72.85 49.94 71.24 49.89 C 71.30 50.49 71.44 51.68 71.51 52.27 C 71.37 53.03 71.23 53.78 71.10 54.53 C 70.96 55.12 70.70 56.30 70.57 56.89 C 70.15 56.34 69.32 55.24 68.91 54.69 L 68.73 54.10 C 69.56 52.53 69.31 51.48 68.01 50.96 C 66.60 51.34 66.03 52.32 66.30 53.90 L 66.05 53.94 C 65.42 54.03 64.16 54.21 63.53 54.30 L 63.33 54.94 C 62.38 58.20 63.55 61.52 64.00 64.75 C 64.42 67.07 64.90 69.38 65.41 71.68 C 66.47 69.54 67.22 67.23 67.13 64.81 C 66.08 61.69 65.20 58.53 64.92 55.24 C 66.78 55.41 66.56 57.79 67.07 59.11 C 67.82 62.43 69.08 66.45 67.10 69.52 C 66.87 73.24 66.70 77.08 68.30 80.55 C 68.65 81.52 68.99 82.51 69.32 83.50 C 69.66 84.51 69.99 85.52 70.32 86.54 C 70.66 87.52 71.00 88.51 71.31 89.51 C 71.66 90.51 72.00 91.52 72.35 92.52 C 73.62 95.52 72.80 98.89 72.99 102.05 C 71.43 102.01 69.86 102.06 68.30 101.87 C 67.46 100.85 66.81 99.70 66.11 98.58 C 65.95 96.52 66.57 94.18 65.16 92.43 C 64.52 90.17 66.51 86.04 63.19 85.55 C 63.59 85.12 64.38 84.25 64.77 83.82 C 65.08 84.34 65.70 85.38 66.00 85.90 C 66.52 90.98 66.55 96.40 69.09 100.98 C 69.86 100.97 71.40 100.94 72.17 100.93 C 72.11 98.46 72.27 95.93 71.47 93.56 C 68.73 85.11 65.57 76.77 63.62 68.08 L 62.20 67.23 C 61.84 65.80 61.79 64.31 61.67 62.85 C 61.82 58.91 61.58 54.97 61.80 51.03 C 60.96 51.73 60.13 52.41 59.28 53.09 C 58.57 53.64 57.87 54.21 57.18 54.78 C 56.89 54.50 56.32 53.92 56.03 53.63 C 54.85 52.99 53.65 52.39 52.48 51.74 L 51.21 50.56 C 49.69 54.15 48.96 58.01 47.67 61.68 C 47.20 62.74 46.70 63.79 46.22 64.84 C 46.90 67.64 47.17 70.51 47.13 73.39 C 46.88 73.88 46.38 74.87 46.13 75.36 C 45.86 77.89 46.02 80.45 46.01 82.99 L 45.02 82.95 C 44.90 78.21 45.21 73.48 45.79 68.78 C 44.99 70.97 44.17 73.16 43.20 75.29 C 42.73 75.76 41.79 76.72 41.32 77.20 C 41.16 77.50 40.84 78.09 40.68 78.39 L 40.08 79.50 C 40.05 80.12 39.99 81.35 39.96 81.96 L 38.79 82.01 C 39.65 77.63 42.38 73.98 43.79 69.79 C 45.88 64.97 46.13 59.65 47.81 54.71 C 47.09 53.81 46.37 52.92 45.63 52.05 C 45.88 51.96 46.38 51.78 46.63 51.69 C 45.82 50.97 45.02 50.26 44.22 49.53 L 44.66 49.53 C 45.44 49.64 46.98 49.87 47.76 49.98 M 57.72 48.64 C 56.29 47.90 54.80 48.00 54.76 49.98 C 56.66 49.93 58.70 50.36 60.45 49.40 C 62.16 49.05 62.68 47.37 63.23 45.96 C 60.98 45.87 58.46 46.10 57.72 48.64 Z" />
<path fill="#363636" opacity="1.00" d=" M 44.61 52.48 L 45.25 52.19 C 45.29 54.72 45.68 57.44 44.23 59.70 C 44.37 60.07 44.67 60.82 44.82 61.19 C 44.50 62.07 44.18 62.96 43.86 63.84 C 43.67 64.42 43.29 65.59 43.10 66.17 C 43.02 66.76 42.87 67.94 42.80 68.53 C 42.78 68.57 42.74 68.64 42.73 68.67 C 42.10 69.88 41.46 71.09 40.79 72.28 L 40.63 72.54 L 40.50 72.85 C 39.21 76.94 35.96 80.18 35.11 84.41 C 34.53 84.43 33.95 84.45 33.36 84.48 C 35.46 81.12 37.28 77.57 38.27 73.72 C 37.75 74.04 36.71 74.67 36.19 74.98 C 35.99 74.53 35.60 73.64 35.40 73.19 L 35.94 71.84 C 36.22 71.40 36.78 70.52 37.06 70.09 L 37.13 69.26 L 38.05 68.82 C 38.31 68.38 38.82 67.50 39.08 67.06 C 39.31 66.51 39.78 65.40 40.02 64.84 C 43.19 61.53 43.41 56.67 44.61 52.48 M 41.23 66.25 C 41.75 66.82 41.75 66.82 41.23 66.25 M 40.21 68.21 C 40.76 68.75 40.76 68.75 40.21 68.21 M 39.20 70.22 C 39.74 70.77 39.74 70.77 39.20 70.22 M 38.20 72.20 C 38.75 72.75 38.75 72.75 38.20 72.20 Z" />
</g>
<g id="#a8ddf7ff">
<path fill="#a8ddf7" opacity="1.00" d=" M 52.26 20.17 C 54.95 20.18 57.60 18.98 60.27 19.73 C 59.20 21.45 57.63 23.02 57.23 25.06 C 57.39 26.65 57.95 28.16 58.36 29.69 C 61.33 32.39 63.78 36.05 67.85 37.17 C 70.66 38.28 73.72 38.05 76.67 38.05 C 77.49 37.21 78.31 36.38 79.14 35.55 C 82.25 39.68 87.07 41.68 90.86 45.00 C 89.99 46.28 88.78 47.58 87.05 47.05 C 83.47 46.53 79.80 45.44 76.26 46.83 C 70.74 48.03 65.55 44.99 60.09 45.21 C 55.99 46.81 52.05 48.87 47.76 49.98 C 47.79 49.15 47.84 47.48 47.87 46.64 L 48.08 46.03 C 50.37 45.68 48.33 42.69 47.69 45.22 C 47.32 42.97 47.16 40.70 46.92 38.44 C 47.97 38.90 48.87 39.56 49.60 40.42 C 50.65 39.04 51.81 37.75 53.01 36.51 C 53.03 35.02 53.02 33.54 53.01 32.05 C 50.61 32.04 48.14 32.13 46.24 33.80 C 45.67 33.33 44.53 32.39 43.96 31.92 C 47.13 28.29 48.99 23.73 52.26 20.17 M 57.27 32.22 C 57.79 32.74 57.79 32.74 57.27 32.22 M 55.21 33.27 C 55.75 33.78 55.75 33.78 55.21 33.27 M 75.38 39.19 C 75.29 40.60 77.82 40.52 78.59 39.77 C 78.67 38.34 76.16 38.44 75.38 39.19 Z" />
</g>
<g id="#ec5e8fff">
<path fill="#ec5e8f" opacity="1.00" d=" M 41.88 24.68 C 44.04 22.27 47.41 21.79 50.34 20.85 C 49.35 22.39 48.33 23.91 47.35 25.46 C 44.77 24.39 43.80 27.20 44.67 29.18 C 44.43 29.55 43.94 30.29 43.69 30.66 C 43.59 28.86 43.53 27.05 43.36 25.26 C 42.99 25.11 42.25 24.82 41.88 24.68 Z" />
</g>
<g id="#d95682ff">
<path fill="#d95682" opacity="1.00" d=" M 60.83 20.94 C 64.42 21.07 68.65 20.11 71.51 22.89 C 70.71 22.99 69.11 23.21 68.31 23.32 C 69.88 25.23 72.49 27.90 70.28 30.35 C 68.47 32.63 65.57 30.88 63.36 30.40 C 64.75 29.58 66.12 28.72 67.49 27.88 C 67.30 27.26 66.92 26.02 66.73 25.40 C 66.37 25.27 65.64 25.01 65.28 24.89 C 63.58 24.50 61.86 24.21 60.14 23.93 C 59.96 24.80 59.60 26.53 59.42 27.40 C 57.74 25.30 58.70 22.30 60.83 20.94 Z" />
</g>
<g id="#c54e76ff">
<path fill="#c54e76" opacity="1.00" d=" M 68.31 23.32 C 69.11 23.21 70.71 22.99 71.51 22.89 C 72.26 23.36 73.02 23.82 73.79 24.28 C 75.04 26.09 76.24 27.95 77.26 29.90 C 76.68 32.24 79.43 35.90 76.09 36.91 C 70.22 37.83 64.03 34.96 60.87 29.94 C 61.49 30.05 62.73 30.29 63.36 30.40 C 65.57 30.88 68.47 32.63 70.28 30.35 C 72.49 27.90 69.88 25.23 68.31 23.32 Z" />
<path fill="#c54e76" opacity="1.00" d=" M 40.70 25.88 C 40.99 25.58 41.58 24.98 41.88 24.68 C 42.25 24.82 42.99 25.11 43.36 25.26 C 43.53 27.05 43.59 28.86 43.69 30.66 C 41.94 33.39 39.93 36.03 37.04 37.64 C 37.08 34.88 36.50 31.75 38.41 29.43 L 39.02 28.83 C 40.31 28.45 41.14 27.22 40.70 25.88 Z" />
</g>
<g id="#ff8ed8ff">
<path fill="#ff8ed8" opacity="1.00" d=" M 60.14 23.93 C 61.86 24.21 63.58 24.50 65.28 24.89 C 64.30 27.13 62.57 28.82 60.35 29.85 C 60.12 29.23 59.65 28.01 59.42 27.40 C 59.60 26.53 59.96 24.80 60.14 23.93 Z" />
</g>
<g id="#ff7cbbff">
<path fill="#ff7cbb" opacity="1.00" d=" M 44.67 29.18 C 43.80 27.20 44.77 24.39 47.35 25.46 C 46.68 26.85 45.71 28.05 44.67 29.18 Z" />
</g>
<g id="#fd679dff">
<path fill="#fd679d" opacity="1.00" d=" M 65.28 24.89 C 65.64 25.01 66.37 25.27 66.73 25.40 C 66.92 26.02 67.30 27.26 67.49 27.88 C 66.12 28.72 64.75 29.58 63.36 30.40 C 62.73 30.29 61.49 30.05 60.87 29.94 L 60.35 29.85 C 62.57 28.82 64.30 27.13 65.28 24.89 Z" />
</g>
<g id="#f05f90ff">
<path fill="#f05f90" opacity="1.00" d=" M 40.00 25.95 L 40.70 25.88 C 41.14 27.22 40.31 28.45 39.02 28.83 C 38.95 28.46 38.82 27.74 38.76 27.38 C 39.07 27.02 39.69 26.31 40.00 25.95 Z" />
</g>
<g id="#72a0b2ff">
<path fill="#72a0b2" opacity="1.00" d=" M 57.27 32.22 C 57.79 32.74 57.79 32.74 57.27 32.22 Z" />
</g>
<g id="#d95683ff">
<path fill="#d95683" opacity="1.00" d=" M 46.73 34.11 C 48.28 32.88 50.25 32.95 52.12 32.93 C 52.07 34.74 52.33 37.35 50.11 37.99 C 47.64 38.73 47.02 35.90 46.73 34.11 M 49.16 34.05 C 49.40 37.35 52.13 32.46 49.16 34.05 Z" />
</g>
<g id="#6491a4ff">
<path fill="#6491a4" opacity="1.00" d=" M 55.21 33.27 C 55.75 33.78 55.75 33.78 55.21 33.27 Z" />
</g>
<g id="#9cd1edff">
<path fill="#9cd1ed" opacity="1.00" d=" M 37.31 39.07 C 39.78 36.95 42.06 34.61 44.01 31.99 C 45.62 33.82 46.26 36.16 46.92 38.44 C 47.16 40.70 47.32 42.97 47.69 45.22 L 48.08 46.03 L 47.87 46.64 C 47.64 47.31 47.19 48.65 46.96 49.32 C 44.78 47.58 42.20 45.08 39.16 46.42 C 35.98 47.60 32.65 48.24 29.25 47.84 C 29.16 47.49 29.00 46.80 28.91 46.45 C 29.43 45.48 30.17 44.72 31.11 44.19 C 31.58 43.95 32.52 43.48 32.98 43.24 C 33.32 42.99 34.00 42.47 34.33 42.21 C 35.43 42.06 36.06 41.43 36.21 40.32 C 36.49 40.01 37.03 39.38 37.31 39.07 Z" />
</g>
<g id="#ff91ddff">
<path fill="#ff91dd" opacity="1.00" d=" M 49.16 34.05 C 52.13 32.46 49.40 37.35 49.16 34.05 Z" />
</g>
<g id="#7bb0caff">
<path fill="#7bb0ca" opacity="1.00" d=" M 75.38 39.19 C 76.16 38.44 78.67 38.34 78.59 39.77 C 77.82 40.52 75.29 40.60 75.38 39.19 Z" />
</g>
<g id="#061a23ff">
<path fill="#061a23" opacity="1.00" d=" M 34.33 42.21 C 33.95 40.58 34.58 39.95 36.21 40.32 C 36.06 41.43 35.43 42.06 34.33 42.21 Z" />
</g>
<g id="#031823ff">
<path fill="#031823" opacity="1.00" d=" M 31.19 43.30 L 32.15 42.82 L 32.98 43.24 C 32.52 43.48 31.58 43.95 31.11 44.19 L 31.19 43.30 Z" />
</g>
<g id="#608da1ff">
<path fill="#608da1" opacity="1.00" d=" M 47.69 45.22 C 48.33 42.69 50.37 45.68 48.08 46.03 L 47.69 45.22 Z" />
</g>
<g id="#25353eff">
<path fill="#25353e" opacity="1.00" d=" M 28.12 45.62 L 28.91 46.45 C 29.00 46.80 29.16 47.49 29.25 47.84 C 32.65 48.24 35.98 47.60 39.16 46.42 C 42.20 45.08 44.78 47.58 46.96 49.32 C 47.19 48.65 47.64 47.31 47.87 46.64 C 47.84 47.48 47.79 49.15 47.76 49.98 C 46.98 49.87 45.44 49.64 44.66 49.53 C 44.47 49.45 44.08 49.30 43.88 49.23 L 43.99 48.54 L 43.45 48.40 C 43.56 48.61 43.77 49.02 43.88 49.23 L 44.22 49.53 C 45.02 50.26 45.82 50.97 46.63 51.69 C 46.38 51.78 45.88 51.96 45.63 52.05 L 45.25 52.19 L 44.61 52.48 C 43.41 56.67 43.19 61.53 40.02 64.84 C 40.06 64.25 40.13 63.07 40.17 62.47 C 42.38 58.93 43.28 54.58 42.99 50.44 C 41.93 49.44 41.00 48.31 40.63 46.87 C 38.89 47.47 37.13 48.05 35.49 48.90 C 33.00 49.04 30.51 49.02 28.02 48.99 C 28.05 48.15 28.10 46.47 28.12 45.62 Z" />
</g>
<g id="#a0a3a5ff">
<path fill="#a0a3a5" opacity="1.00" d=" M 57.72 48.64 C 58.46 46.10 60.98 45.87 63.23 45.96 C 62.68 47.37 62.16 49.05 60.45 49.40 C 58.70 50.36 56.66 49.93 54.76 49.98 C 54.80 48.00 56.29 47.90 57.72 48.64 Z" />
</g>
<g id="#bbbec0ff">
<path fill="#bbbec0" opacity="1.00" d=" M 43.45 48.40 L 43.99 48.54 L 43.88 49.23 C 43.77 49.02 43.56 48.61 43.45 48.40 Z" />
</g>
<g id="#b6babbff">
<path fill="#b6babb" opacity="1.00" d=" M 43.88 49.23 C 44.08 49.30 44.47 49.45 44.66 49.53 L 44.22 49.53 L 43.88 49.23 Z" />
</g>
<g id="#807970ff">
<path fill="#807970" opacity="1.00" d=" M 71.24 49.89 C 72.85 49.94 74.21 52.53 72.04 52.93 L 71.51 52.27 C 71.44 51.68 71.30 50.49 71.24 49.89 Z" />
</g>
<g id="#acdef1ff">
<path fill="#acdef1" opacity="1.00" d=" M 47.67 61.68 C 48.96 58.01 49.69 54.15 51.21 50.56 L 52.48 51.74 C 52.00 56.26 51.78 61.78 48.22 65.03 C 48.08 64.19 47.81 62.52 47.67 61.68 Z" />
</g>
<g id="#c9bfafff">
<path fill="#c9bfaf" opacity="1.00" d=" M 61.80 51.03 C 61.58 54.97 61.82 58.91 61.67 62.85 C 61.06 59.55 60.89 56.10 59.28 53.09 C 60.13 52.41 60.96 51.73 61.80 51.03 Z" />
<path fill="#c9bfaf" opacity="1.00" d=" M 62.20 67.23 L 63.62 68.08 C 65.57 76.77 68.73 85.11 71.47 93.56 C 72.27 95.93 72.11 98.46 72.17 100.93 C 71.40 100.94 69.86 100.97 69.09 100.98 C 66.55 96.40 66.52 90.98 66.00 85.90 C 65.70 85.38 65.08 84.34 64.77 83.82 C 63.81 80.35 63.96 76.77 63.55 73.25 C 63.22 71.22 62.75 69.21 62.20 67.23 Z" />
<path fill="#c9bfaf" opacity="1.00" d=" M 77.89 73.75 C 80.35 76.50 82.72 79.34 85.16 82.11 C 86.74 84.77 88.05 87.61 88.51 90.70 C 87.05 89.94 85.13 89.42 84.56 87.66 C 82.61 82.90 80.29 78.30 77.89 73.75 Z" />
</g>
<g id="#20282bf6">
<path fill="#20282b" opacity="0.96" d=" M 66.30 53.90 C 66.03 52.32 66.60 51.34 68.01 50.96 C 67.58 52.12 67.82 53.17 68.73 54.10 L 68.91 54.69 C 70.51 61.55 73.63 68.14 77.89 73.75 C 80.29 78.30 82.61 82.90 84.56 87.66 C 85.13 89.42 87.05 89.94 88.51 90.70 C 88.05 87.61 86.74 84.77 85.16 82.11 L 84.82 80.74 C 85.44 81.12 86.67 81.90 87.29 82.29 C 86.72 77.07 82.83 73.25 80.46 68.81 L 81.67 69.00 C 86.42 74.26 88.73 81.02 92.01 87.17 L 92.00 88.15 C 91.01 87.41 90.03 86.66 89.04 85.92 C 89.55 84.55 88.50 82.99 87.08 82.84 C 86.89 84.12 87.59 85.80 89.04 85.92 C 89.00 87.62 89.00 89.32 88.99 91.02 C 87.79 91.01 86.59 91.00 85.39 90.99 C 84.62 90.20 83.84 89.41 83.07 88.64 C 83.02 88.10 82.93 87.04 82.88 86.51 C 82.58 85.97 81.99 84.87 81.69 84.33 C 79.27 83.86 78.95 81.45 78.16 79.52 C 78.07 78.48 77.98 77.44 77.90 76.39 C 74.30 71.53 72.12 65.85 69.24 60.57 C 68.52 58.40 68.44 55.71 66.47 54.23 L 66.05 53.94 L 66.30 53.90 Z" />
</g>
<g id="#978f84ff">
<path fill="#978f84" opacity="1.00" d=" M 68.01 50.96 C 69.31 51.48 69.56 52.53 68.73 54.10 C 67.82 53.17 67.58 52.12 68.01 50.96 Z" />
</g>
<g id="#bcb2a4ff">
<path fill="#bcb2a4" opacity="1.00" d=" M 45.25 52.19 L 45.63 52.05 C 46.37 52.92 47.09 53.81 47.81 54.71 C 46.13 59.65 45.88 64.97 43.79 69.79 C 42.38 73.98 39.65 77.63 38.79 82.01 C 38.53 82.53 38.00 83.56 37.73 84.07 C 36.14 85.06 35.62 86.92 35.75 88.70 C 35.73 89.09 35.69 89.87 35.67 90.25 L 35.10 90.88 C 33.10 92.67 33.23 95.55 32.69 97.97 C 32.46 99.30 32.00 100.57 31.60 101.85 C 30.30 101.47 28.44 101.99 27.59 100.68 C 27.43 98.01 27.00 95.08 28.61 92.73 L 29.44 91.81 C 30.76 89.95 31.88 87.95 33.07 86.00 C 32.77 85.52 32.16 84.56 31.86 84.08 C 33.52 81.15 34.97 78.12 36.19 74.98 C 36.71 74.67 37.75 74.04 38.27 73.72 C 37.28 77.57 35.46 81.12 33.36 84.48 C 33.95 84.45 34.53 84.43 35.11 84.41 C 35.96 80.18 39.21 76.94 40.50 72.85 L 40.63 72.57 L 40.79 72.28 C 41.46 71.09 42.10 69.88 42.73 68.67 L 42.80 68.54 L 42.80 68.53 C 42.87 67.94 43.02 66.76 43.10 66.17 C 43.29 65.59 43.67 64.42 43.86 63.84 C 44.18 62.96 44.50 62.07 44.82 61.19 C 44.67 60.82 44.37 60.07 44.23 59.70 C 45.68 57.44 45.29 54.72 45.25 52.19 Z" />
<path fill="#bcb2a4" opacity="1.00" d=" M 81.67 69.00 L 82.86 69.18 C 87.00 74.92 93.08 79.78 94.45 87.05 C 93.84 87.08 92.62 87.14 92.01 87.17 C 88.73 81.02 86.42 74.26 81.67 69.00 Z" />
<path fill="#bcb2a4" opacity="1.00" d=" M 34.64 73.38 L 35.40 73.19 C 35.60 73.64 35.99 74.53 36.19 74.98 C 35.80 74.58 35.03 73.78 34.64 73.38 Z" />
</g>
<g id="#9fd4f0ff">
<path fill="#9fd4f0" opacity="1.00" d=" M 52.48 51.74 C 53.65 52.39 54.85 52.99 56.03 53.63 C 55.74 54.78 55.46 55.93 55.11 57.06 C 54.11 59.36 53.41 61.76 52.92 64.22 L 52.75 64.52 C 52.61 64.75 52.34 65.22 52.20 65.45 L 51.42 66.62 C 50.43 72.59 52.53 78.42 53.10 84.32 C 50.67 80.95 48.26 77.44 47.13 73.39 C 47.17 70.51 46.90 67.64 46.22 64.84 C 46.70 63.79 47.20 62.74 47.67 61.68 C 47.81 62.52 48.08 64.19 48.22 65.03 C 51.78 61.78 52.00 56.26 52.48 51.74 Z" />
</g>
<g id="#051822e3">
<path fill="#051822" opacity="0.89" d=" M 71.10 54.53 C 71.23 53.78 71.37 53.03 71.51 52.27 L 72.04 52.93 C 72.29 53.27 72.80 53.94 73.05 54.27 L 73.21 54.76 C 74.62 59.15 76.58 63.67 80.40 66.50 L 80.44 66.76 C 80.18 67.23 79.66 68.17 79.39 68.64 L 79.16 69.03 C 76.01 64.46 73.73 59.39 71.10 54.53 Z" />
</g>
<g id="#41403dff">
<path fill="#41403d" opacity="1.00" d=" M 56.03 53.63 C 56.32 53.92 56.89 54.50 57.18 54.78 C 57.39 55.01 57.80 55.46 58.01 55.69 C 58.00 60.62 57.87 65.55 58.10 70.47 C 59.85 74.17 58.85 78.65 58.82 82.63 L 57.65 83.84 C 58.59 78.69 57.75 73.52 56.22 68.58 C 55.89 64.73 56.71 60.70 55.11 57.06 C 55.46 55.93 55.74 54.78 56.03 53.63 Z" />
</g>
<g id="#101e26ff">
<path fill="#101e26" opacity="1.00" d=" M 57.18 54.78 C 57.87 54.21 58.57 53.64 59.28 53.09 C 60.89 56.10 61.06 59.55 61.67 62.85 C 61.79 64.31 61.84 65.80 62.20 67.23 C 62.75 69.21 63.22 71.22 63.55 73.25 C 62.14 78.12 62.23 83.19 62.67 88.20 L 61.01 87.95 C 61.03 84.15 60.91 80.35 61.10 76.56 C 62.55 74.25 62.55 70.77 61.13 68.45 C 60.85 66.46 61.54 64.14 60.12 62.46 C 60.03 61.13 59.97 59.81 59.92 58.48 C 59.60 57.96 58.97 56.92 58.66 56.40 L 58.01 55.69 C 57.80 55.46 57.39 55.01 57.18 54.78 Z" />
</g>
<g id="#968e83ff">
<path fill="#968e83" opacity="1.00" d=" M 73.05 54.27 L 73.54 54.39 L 73.63 54.79 L 73.21 54.76 L 73.05 54.27 Z" />
</g>
<g id="#7ba5baff">
<path fill="#7ba5ba" opacity="1.00" d=" M 63.33 54.94 C 63.72 55.02 64.52 55.17 64.92 55.24 C 65.20 58.53 66.08 61.69 67.13 64.81 C 66.34 64.79 64.78 64.77 64.00 64.75 C 63.55 61.52 62.38 58.20 63.33 54.94 Z" />
</g>
<g id="#4c4944ff">
<path fill="#4c4944" opacity="1.00" d=" M 68.91 54.69 C 69.32 55.24 70.15 56.34 70.57 56.89 C 70.70 56.30 70.96 55.12 71.10 54.53 C 73.73 59.39 76.01 64.46 79.16 69.03 L 79.39 68.64 C 80.05 69.98 80.77 71.30 81.50 72.61 C 82.54 75.34 84.09 77.88 84.82 80.74 L 85.16 82.11 C 82.72 79.34 80.35 76.50 77.89 73.75 C 73.63 68.14 70.51 61.55 68.91 54.69 M 73.35 63.21 C 73.85 63.74 73.85 63.74 73.35 63.21 M 74.25 65.27 C 74.80 65.74 74.80 65.74 74.25 65.27 M 75.25 67.27 C 75.78 67.78 75.78 67.78 75.25 67.27 M 77.21 69.17 C 76.89 70.54 77.43 71.10 78.83 70.83 C 79.14 69.46 78.60 68.90 77.21 69.17 Z" />
</g>
<g id="#20313bff">
<path fill="#20313b" opacity="1.00" d=" M 52.92 64.22 C 53.41 61.76 54.11 59.36 55.11 57.06 C 56.71 60.70 55.89 64.73 56.22 68.58 C 56.49 72.49 55.04 76.23 55.00 80.11 C 54.77 81.89 56.65 82.73 57.65 83.84 L 58.01 84.17 C 56.57 84.04 55.15 83.72 53.95 82.87 C 53.96 83.72 53.99 85.42 54.00 86.27 C 52.83 86.12 51.95 85.56 51.35 84.58 C 49.30 81.69 47.71 78.52 46.13 75.36 C 46.38 74.87 46.88 73.88 47.13 73.39 C 48.26 77.44 50.67 80.95 53.10 84.32 C 52.53 78.42 50.43 72.59 51.42 66.62 L 52.20 65.45 C 51.39 70.21 52.71 74.90 53.41 79.57 C 55.23 73.40 55.26 66.95 54.99 60.58 C 54.30 61.79 53.63 63.02 52.92 64.22 Z" />
</g>
<g id="#061823ff">
<path fill="#061823" opacity="1.00" d=" M 73.35 63.21 C 73.85 63.74 73.85 63.74 73.35 63.21 Z" />
</g>
<g id="#081923ff">
<path fill="#081923" opacity="1.00" d=" M 43.10 66.17 C 43.29 65.59 43.67 64.42 43.86 63.84 C 43.67 64.42 43.29 65.59 43.10 66.17 Z" />
<path fill="#081923" opacity="1.00" d=" M 42.73 68.67 C 42.74 68.64 42.78 68.57 42.80 68.53 L 42.80 68.54 L 42.73 68.67 Z" />
</g>
<g id="#a4d9f4ff">
<path fill="#a4d9f4" opacity="1.00" d=" M 64.00 64.75 C 64.78 64.77 66.34 64.79 67.13 64.81 C 67.22 67.23 66.47 69.54 65.41 71.68 C 64.90 69.38 64.42 67.07 64.00 64.75 Z" />
</g>
<g id="#071823ff">
<path fill="#071823" opacity="1.00" d=" M 74.25 65.27 C 74.80 65.74 74.80 65.74 74.25 65.27 Z" />
</g>
<g id="#b9afa2ff">
<path fill="#b9afa2" opacity="1.00" d=" M 41.23 66.25 C 41.75 66.82 41.75 66.82 41.23 66.25 Z" />
<path fill="#b9afa2" opacity="1.00" d=" M 40.21 68.21 C 40.76 68.75 40.76 68.75 40.21 68.21 Z" />
<path fill="#b9afa2" opacity="1.00" d=" M 39.20 70.22 C 39.74 70.77 39.74 70.77 39.20 70.22 Z" />
<path fill="#b9afa2" opacity="1.00" d=" M 38.20 72.20 C 38.75 72.75 38.75 72.75 38.20 72.20 Z" />
</g>
<g id="#bab0a3ff">
<path fill="#bab0a3" opacity="1.00" d=" M 80.40 66.50 L 80.51 66.64 C 80.49 66.67 80.46 66.73 80.44 66.76 L 80.40 66.50 Z" />
<path fill="#bab0a3" opacity="1.00" d=" M 45.79 68.78 C 45.21 73.48 44.90 78.21 45.02 82.95 C 44.47 83.30 43.37 83.99 42.82 84.33 C 41.48 81.38 42.14 78.20 43.20 75.29 C 44.17 73.16 44.99 70.97 45.79 68.78 Z" />
<path fill="#bab0a3" opacity="1.00" d=" M 56.22 68.58 C 57.75 73.52 58.59 78.69 57.65 83.84 C 56.65 82.73 54.77 81.89 55.00 80.11 C 55.04 76.23 56.49 72.49 56.22 68.58 Z" />
</g>
<g id="#071923ff">
<path fill="#071923" opacity="1.00" d=" M 38.21 67.09 L 39.08 67.06 C 38.82 67.50 38.31 68.38 38.05 68.82 C 38.09 68.38 38.17 67.52 38.21 67.09 Z" />
</g>
<g id="#061822ff">
<path fill="#061822" opacity="1.00" d=" M 75.25 67.27 C 75.78 67.78 75.78 67.78 75.25 67.27 Z" />
<path fill="#061822" opacity="1.00" d=" M 36.18 70.09 L 37.06 70.09 C 36.78 70.52 36.22 71.40 35.94 71.84 C 36.00 71.41 36.12 70.53 36.18 70.09 Z" />
</g>
<g id="#756f67ff">
<path fill="#756f67" opacity="1.00" d=" M 77.21 69.17 C 78.60 68.90 79.14 69.46 78.83 70.83 C 77.43 71.10 76.89 70.54 77.21 69.17 Z" />
</g>
<g id="#00020317">
<path fill="#000203" opacity="0.09" d=" M 79.39 68.64 L 80.46 68.81 C 82.83 73.25 86.72 77.07 87.29 82.29 C 86.67 81.90 85.44 81.12 84.82 80.74 C 84.09 77.88 82.54 75.34 81.50 72.61 C 80.77 71.30 80.05 69.98 79.39 68.64 Z" />
</g>
<g id="#081922ff">
<path fill="#081922" opacity="1.00" d=" M 40.63 72.54 L 40.79 72.28 L 40.63 72.57 L 40.50 72.85 L 40.63 72.54 Z" />
</g>
<g id="#313536f1">
<path fill="#313536" opacity="0.95" d=" M 34.56 72.75 L 34.64 73.38 C 35.03 73.78 35.80 74.58 36.19 74.98 C 34.97 78.12 33.52 81.15 31.86 84.08 C 32.16 84.56 32.77 85.52 33.07 86.00 C 31.88 87.95 30.76 89.95 29.44 91.81 C 28.03 91.00 26.17 91.00 25.05 89.69 C 24.82 86.48 27.51 84.00 28.34 81.00 L 29.39 81.08 C 28.31 83.56 27.13 86.00 25.75 88.33 C 26.54 88.88 27.30 90.76 28.34 89.49 C 30.90 85.41 32.18 80.61 34.29 76.27 C 33.44 76.99 31.73 78.44 30.88 79.16 C 30.98 76.46 33.95 75.28 34.56 72.75 Z" />
</g>
<g id="#b0e1eeff">
<path fill="#b0e1ee" opacity="1.00" d=" M 63.55 73.25 C 63.96 76.77 63.81 80.35 64.77 83.82 C 64.38 84.25 63.59 85.12 63.19 85.55 C 63.00 86.43 62.82 87.31 62.67 88.20 C 62.23 83.19 62.14 78.12 63.55 73.25 Z" />
</g>
<g id="#162025ed">
<path fill="#162025" opacity="0.93" d=" M 41.32 77.20 C 41.79 76.72 42.73 75.76 43.20 75.29 C 42.14 78.20 41.48 81.38 42.82 84.33 C 43.37 83.99 44.47 83.30 45.02 82.95 C 45.01 83.50 45.00 84.60 44.99 85.14 C 44.34 85.07 43.04 84.94 42.38 84.87 C 40.08 83.58 41.25 80.49 40.68 78.39 C 40.84 78.09 41.16 77.50 41.32 77.20 Z" />
</g>
<g id="#bab0a2ff">
<path fill="#bab0a2" opacity="1.00" d=" M 30.88 79.16 C 31.73 78.44 33.44 76.99 34.29 76.27 C 32.18 80.61 30.90 85.41 28.34 89.49 C 27.30 90.76 26.54 88.88 25.75 88.33 C 27.13 86.00 28.31 83.56 29.39 81.08 C 29.72 80.31 30.22 79.67 30.88 79.16 Z" />
</g>
<g id="#55504aff">
<path fill="#55504a" opacity="1.00" d=" M 35.75 88.70 C 35.62 86.92 36.14 85.06 37.73 84.07 C 38.17 85.47 37.56 88.87 35.75 88.70 Z" />
</g>
<g id="#504b46ff">
<path fill="#504b46" opacity="1.00" d=" M 32.69 97.97 C 33.23 95.55 33.10 92.67 35.10 90.88 C 35.03 91.53 34.88 92.83 34.81 93.48 C 33.70 94.73 34.03 96.45 33.87 97.97 L 32.69 97.97 Z" />
</g>
</svg>
