<?xml version="1.0" encoding="UTF-8" ?>
<!DOCTYPE svg PUBLIC "-//W3C//DTD SVG 1.1//EN" "http://www.w3.org/Graphics/SVG/1.1/DTD/svg11.dtd">
<svg width="120pt" height="120pt" viewBox="0 0 120 120" version="1.1" xmlns="http://www.w3.org/2000/svg">
<g id="#303844f5">
<path fill="#303844" opacity="0.96" d=" M 54.10 30.43 C 57.80 27.38 62.33 24.69 67.31 25.07 C 68.55 25.91 70.04 26.02 71.47 26.25 C 74.44 28.11 77.32 30.25 78.97 33.43 C 78.90 36.81 79.30 40.23 78.80 43.59 L 77.78 44.54 L 78.06 42.68 C 77.57 43.11 76.59 43.96 76.11 44.39 C 71.73 42.22 69.52 37.65 68.77 33.02 C 68.42 33.18 67.72 33.50 67.37 33.66 C 67.59 32.90 68.04 31.40 68.26 30.64 L 68.60 30.04 C 69.13 29.08 69.67 28.12 70.21 27.16 C 67.66 26.59 65.01 25.63 62.43 26.66 C 61.93 26.76 60.94 26.98 60.44 27.08 C 58.31 28.40 56.37 30.03 55.05 32.18 L 54.96 30.55 C 53.95 31.83 52.97 33.13 52.00 34.43 C 52.10 35.66 52.20 36.89 52.31 38.12 C 52.37 39.33 52.28 40.57 52.64 41.74 C 52.93 42.56 53.23 43.37 53.54 44.19 L 53.70 45.32 C 53.98 47.56 54.09 49.82 54.24 52.08 C 55.48 52.04 56.72 52.00 57.96 51.96 C 58.81 53.36 59.66 54.75 60.51 56.15 C 61.63 54.80 62.62 53.28 64.01 52.18 C 66.61 51.94 69.23 52.11 71.83 52.16 C 74.04 54.22 76.46 57.48 79.85 56.83 C 80.95 55.27 78.50 54.25 77.88 53.00 C 76.95 53.10 75.08 53.31 74.15 53.41 C 75.07 51.29 76.01 49.17 76.91 47.04 C 77.11 48.82 76.96 50.59 75.97 52.13 C 76.63 52.09 77.93 52.02 78.59 51.99 C 79.81 53.28 81.08 54.53 82.16 55.93 C 81.38 58.41 78.74 58.30 76.65 57.91 C 75.59 56.79 74.44 57.01 73.36 57.88 L 72.93 56.72 C 72.48 55.47 72.06 54.20 71.64 52.94 C 69.85 52.99 68.06 53.15 66.31 53.49 C 65.94 53.35 65.19 53.05 64.82 52.91 C 64.44 53.25 63.70 53.92 63.32 54.25 C 62.20 55.36 61.11 56.52 60.01 57.65 C 59.31 56.71 58.63 55.75 57.97 54.78 L 57.84 54.32 C 56.79 53.57 55.71 53.47 54.59 54.03 C 52.05 52.22 53.69 48.78 52.27 46.35 C 52.11 45.45 51.95 44.54 51.79 43.63 C 50.36 39.35 50.18 33.51 54.10 30.43 M 70.90 27.56 C 69.80 29.54 69.04 31.72 70.20 33.89 L 69.91 34.07 C 71.49 37.61 72.93 41.91 77.11 43.10 C 79.03 39.03 78.89 33.73 75.40 30.54 C 73.89 29.56 72.39 28.56 70.90 27.56 Z" />
</g>
<g id="#9cd1edff">
<path fill="#9cd1ed" opacity="1.00" d=" M 62.43 26.66 C 65.01 25.63 67.66 26.59 70.21 27.16 C 69.67 28.12 69.13 29.08 68.60 30.04 C 67.72 29.19 66.84 28.35 65.96 27.51 C 65.05 28.33 64.14 29.15 63.22 29.98 C 64.12 30.85 65.02 31.73 65.93 32.60 C 66.51 32.11 67.67 31.13 68.26 30.64 C 68.04 31.40 67.59 32.90 67.37 33.66 C 67.72 33.50 68.42 33.18 68.77 33.02 C 69.52 37.65 71.73 42.22 76.11 44.39 C 76.59 43.96 77.57 43.11 78.06 42.68 L 77.78 44.54 C 77.61 45.85 77.42 47.16 77.21 48.46 L 76.91 47.04 C 76.86 46.55 76.76 45.58 76.71 45.09 C 75.15 47.50 73.54 49.86 71.83 52.16 C 69.23 52.11 66.61 51.94 64.01 52.18 C 62.62 53.28 61.63 54.80 60.51 56.15 C 59.66 54.75 58.81 53.36 57.96 51.96 C 56.44 49.39 54.95 46.81 53.54 44.19 C 53.23 43.37 52.93 42.56 52.64 41.74 C 53.22 38.54 54.09 35.42 55.01 32.31 L 55.05 32.18 C 56.37 30.03 58.31 28.40 60.44 27.08 C 60.94 26.98 61.93 26.76 62.43 26.66 M 59.23 39.76 C 58.73 40.36 57.73 41.56 57.22 42.16 C 57.31 44.07 57.15 46.88 59.83 46.83 C 60.64 46.37 61.45 45.90 62.25 45.42 C 62.37 42.98 61.56 40.76 59.23 39.76 M 63.19 43.44 C 62.29 44.61 62.52 45.31 63.89 45.52 C 64.80 44.35 64.57 43.65 63.19 43.44 M 58.30 49.21 C 58.82 49.71 58.82 49.71 58.30 49.21 Z" />
</g>
<g id="#b5eafeff">
<path fill="#b5eafe" opacity="1.00" d=" M 63.22 29.98 C 64.14 29.15 65.05 28.33 65.96 27.51 C 66.84 28.35 67.72 29.19 68.60 30.04 L 68.26 30.64 C 67.67 31.13 66.51 32.11 65.93 32.60 C 65.02 31.73 64.12 30.85 63.22 29.98 Z" />
</g>
<g id="#f96295ff">
<path fill="#f96295" opacity="1.00" d=" M 70.90 27.56 C 72.39 28.56 73.89 29.56 75.40 30.54 C 73.68 31.68 71.96 32.82 70.20 33.89 C 69.04 31.72 69.80 29.54 70.90 27.56 Z" />
<path fill="#f96295" opacity="1.00" d=" M 52.00 34.43 C 52.97 33.13 53.95 31.83 54.96 30.55 L 55.05 32.18 L 55.01 32.31 C 54.16 34.26 53.40 36.28 52.31 38.12 C 52.20 36.89 52.10 35.66 52.00 34.43 Z" />
</g>
<g id="#c44d75ff">
<path fill="#c44d75" opacity="1.00" d=" M 70.20 33.89 C 71.96 32.82 73.68 31.68 75.40 30.54 C 78.89 33.73 79.03 39.03 77.11 43.10 C 72.93 41.91 71.49 37.61 69.91 34.07 L 70.20 33.89 Z" />
<path fill="#c44d75" opacity="1.00" d=" M 59.23 39.76 C 61.82 41.24 62.98 45.42 59.18 45.98 C 57.78 45.20 57.65 43.53 57.22 42.16 C 57.73 41.56 58.73 40.36 59.23 39.76 Z" />
</g>
<g id="#74aac4ff">
<path fill="#74aac4" opacity="1.00" d=" M 63.19 43.44 C 64.57 43.65 64.80 44.35 63.89 45.52 C 62.52 45.31 62.29 44.61 63.19 43.44 Z" />
</g>
<g id="#84b2caff">
<path fill="#84b2ca" opacity="1.00" d=" M 53.70 45.32 L 53.54 44.19 C 54.95 46.81 56.44 49.39 57.96 51.96 C 56.72 52.00 55.48 52.04 54.24 52.08 C 54.09 49.82 53.98 47.56 53.70 45.32 Z" />
</g>
<g id="#9bd0edff">
<path fill="#9bd0ed" opacity="1.00" d=" M 71.83 52.16 C 73.54 49.86 75.15 47.50 76.71 45.09 C 76.76 45.58 76.86 46.55 76.91 47.04 C 76.01 49.17 75.07 51.29 74.15 53.41 C 75.08 53.31 76.95 53.10 77.88 53.00 C 78.50 54.25 80.95 55.27 79.85 56.83 C 76.46 57.48 74.04 54.22 71.83 52.16 Z" />
<path fill="#9bd0ed" opacity="1.00" d=" M 60.01 57.65 C 61.11 56.52 62.20 55.36 63.32 54.25 C 66.10 54.75 68.92 55.12 71.56 56.15 C 71.04 56.31 70.00 56.63 69.47 56.79 L 69.82 55.67 C 67.43 56.04 64.57 56.18 63.45 58.76 L 63.41 59.91 C 62.99 60.21 62.14 60.81 61.72 61.11 C 60.09 59.13 58.24 57.19 55.85 56.15 C 55.71 56.45 55.42 57.04 55.28 57.34 C 55.14 57.20 54.88 56.93 54.74 56.80 L 53.49 56.94 L 52.52 55.91 C 53.18 55.75 54.50 55.44 55.16 55.28 C 55.86 55.16 57.27 54.90 57.97 54.78 C 58.63 55.75 59.31 56.71 60.01 57.65 Z" />
</g>
<g id="#6897aeff">
<path fill="#6897ae" opacity="1.00" d=" M 58.30 49.21 C 58.82 49.71 58.82 49.71 58.30 49.21 Z" />
</g>
<g id="#c1cbd1ff">
<path fill="#c1cbd1" opacity="1.00" d=" M 54.59 54.03 C 55.71 53.47 56.79 53.57 57.84 54.32 L 57.97 54.78 C 57.27 54.90 55.86 55.16 55.16 55.28 L 54.55 54.73 L 54.59 54.03 Z" />
</g>
<g id="#b2c9d5ff">
<path fill="#b2c9d5" opacity="1.00" d=" M 63.32 54.25 C 63.70 53.92 64.44 53.25 64.82 52.91 C 65.19 53.05 65.94 53.35 66.31 53.49 C 68.06 53.15 69.85 52.99 71.64 52.94 C 72.06 54.20 72.48 55.47 72.93 56.72 C 72.59 56.58 71.90 56.29 71.56 56.15 C 68.92 55.12 66.10 54.75 63.32 54.25 Z" />
</g>
<g id="#1f2b32fa">
<path fill="#1f2b32" opacity="0.98" d=" M 52.45 55.84 L 52.52 55.91 L 53.49 56.94 L 54.74 56.80 C 54.88 56.93 55.14 57.20 55.28 57.34 C 55.42 57.04 55.71 56.45 55.85 56.15 C 58.24 57.19 60.09 59.13 61.72 61.11 L 62.44 62.29 C 61.25 61.88 60.08 61.43 58.92 60.94 C 58.96 62.29 59.00 63.65 59.03 65.00 L 58.20 65.00 C 58.30 63.04 58.08 61.08 57.70 59.15 C 56.81 65.26 56.15 71.42 54.46 77.38 C 54.45 77.42 54.42 77.51 54.41 77.56 C 54.29 77.94 54.04 78.70 53.92 79.08 C 52.91 80.22 51.87 81.33 50.76 82.37 C 50.94 80.81 51.89 79.60 52.88 78.46 C 52.95 77.98 53.11 77.03 53.18 76.55 C 53.63 75.56 54.04 74.56 54.43 73.55 C 55.03 71.63 55.05 69.60 55.21 67.61 C 56.36 64.95 56.34 61.65 55.85 58.97 C 54.19 58.92 52.53 59.01 50.87 59.07 C 51.41 58.00 51.93 56.92 52.45 55.84 Z" />
</g>
<g id="#404343ff">
<path fill="#404343" opacity="1.00" d=" M 63.45 58.76 C 64.57 56.18 67.43 56.04 69.82 55.67 L 69.47 56.79 C 70.00 56.63 71.04 56.31 71.56 56.15 C 71.90 56.29 72.59 56.58 72.93 56.72 L 73.36 57.88 C 72.73 57.88 71.46 57.90 70.83 57.90 C 71.36 59.74 71.89 61.59 72.37 63.44 C 72.83 65.09 73.04 66.80 73.23 68.50 C 73.60 69.49 73.98 70.49 74.34 71.48 C 74.89 73.44 75.35 75.43 75.80 77.41 L 74.04 77.33 C 71.80 71.68 71.11 65.62 69.66 59.76 L 69.01 59.11 C 68.71 58.83 68.10 58.26 67.80 57.98 C 66.55 59.05 64.99 59.01 63.45 58.76 Z" />
</g>
<g id="#222b2eff">
<path fill="#222b2e" opacity="1.00" d=" M 69.01 59.11 L 69.66 59.76 C 71.11 65.62 71.80 71.68 74.04 77.33 C 75.13 81.83 75.20 86.57 77.14 90.87 C 78.29 90.74 79.45 90.62 80.61 90.51 C 80.46 85.89 77.39 82.37 75.48 78.41 L 76.56 78.02 C 78.00 80.54 79.49 83.03 80.98 85.53 C 80.73 87.66 81.92 90.59 79.60 91.88 C 78.51 91.99 77.41 92.07 76.32 92.10 C 76.07 91.45 75.58 90.13 75.33 89.47 C 74.98 88.44 74.60 87.42 74.19 86.41 C 74.09 84.39 74.06 82.33 73.39 80.39 C 73.02 79.06 72.71 77.73 72.37 76.40 C 72.03 75.07 71.71 73.73 71.37 72.40 C 71.04 71.06 70.73 69.71 70.29 68.41 C 70.05 66.71 70.07 64.91 69.16 63.39 C 69.09 61.96 69.05 60.54 69.01 59.11 Z" />
</g>
<g id="#4f4b45ff">
<path fill="#4f4b45" opacity="1.00" d=" M 57.70 59.15 C 58.08 61.08 58.30 63.04 58.20 65.00 C 58.09 67.13 57.96 69.26 57.82 71.39 C 57.18 73.07 56.81 74.83 56.24 76.54 C 56.13 77.02 55.92 77.97 55.81 78.45 C 55.45 79.21 54.74 80.71 54.39 81.46 L 53.84 80.37 L 53.92 79.08 C 54.04 78.70 54.29 77.94 54.41 77.56 C 54.42 77.51 54.45 77.42 54.46 77.38 C 56.15 71.42 56.81 65.26 57.70 59.15 Z" />
</g>
<g id="#857e75ff">
<path fill="#857e75" opacity="1.00" d=" M 54.41 77.56 C 54.42 77.51 54.45 77.42 54.46 77.38 C 54.45 77.42 54.42 77.51 54.41 77.56 Z" />
</g>
<g id="#bdb3a5ff">
<path fill="#bdb3a5" opacity="1.00" d=" M 74.04 77.33 L 75.80 77.41 C 75.72 77.66 75.56 78.16 75.48 78.41 C 77.39 82.37 80.46 85.89 80.61 90.51 C 79.45 90.62 78.29 90.74 77.14 90.87 C 75.20 86.57 75.13 81.83 74.04 77.33 Z" />
</g>
<g id="#beb5a5ff">
<path fill="#beb5a5" opacity="1.00" d=" M 50.76 82.37 C 51.87 81.33 52.91 80.22 53.92 79.08 L 53.84 80.37 C 53.81 80.85 53.74 81.82 53.71 82.30 L 53.00 82.95 C 51.42 84.45 50.44 86.42 49.43 88.31 C 47.28 90.15 44.77 91.67 41.88 91.80 C 41.23 92.32 40.58 92.84 39.95 93.37 C 40.03 92.65 40.19 91.20 40.27 90.48 C 40.47 90.40 40.89 90.23 41.10 90.14 C 41.57 89.91 42.51 89.43 42.98 89.20 C 43.51 88.37 44.19 87.69 45.02 87.17 C 45.50 86.94 46.46 86.50 46.93 86.28 C 47.45 85.72 48.48 84.61 48.99 84.05 C 49.02 84.02 49.08 83.96 49.11 83.93 C 49.52 83.54 50.35 82.76 50.76 82.37 Z" />
</g>
<g id="#57524cff">
<path fill="#57524c" opacity="1.00" d=" M 49.43 88.31 C 50.44 86.42 51.42 84.45 53.00 82.95 C 52.33 85.88 51.06 88.93 48.43 90.62 C 48.68 90.04 49.18 88.89 49.43 88.31 Z" />
</g>
<g id="#948c82ff">
<path fill="#948c82" opacity="1.00" d=" M 48.99 84.05 C 49.02 84.02 49.08 83.96 49.11 83.93 C 49.08 83.96 49.02 84.02 48.99 84.05 Z" />
</g>
<g id="#061621ff">
<path fill="#061621" opacity="1.00" d=" M 45.15 86.27 L 46.13 85.82 L 46.93 86.28 C 46.46 86.50 45.50 86.94 45.02 87.17 L 45.15 86.27 Z" />
</g>
<g id="#b0a698ff">
<path fill="#b0a698" opacity="1.00" d=" M 41.88 91.80 C 44.77 91.67 47.28 90.15 49.43 88.31 C 49.18 88.89 48.68 90.04 48.43 90.62 C 48.17 91.05 47.88 91.44 47.54 91.81 C 45.09 93.03 42.47 93.81 39.81 94.39 L 39.95 93.37 C 40.58 92.84 41.23 92.32 41.88 91.80 Z" />
</g>
<g id="#071821ff">
<path fill="#071821" opacity="1.00" d=" M 41.19 89.24 L 42.16 88.76 L 42.98 89.20 C 42.51 89.43 41.57 89.91 41.10 90.14 L 41.19 89.24 Z" />
</g>
<g id="#393a38ff">
<path fill="#393a38" opacity="1.00" d=" M 37.75 93.87 C 38.58 92.73 39.40 91.59 40.27 90.48 C 40.19 91.20 40.03 92.65 39.95 93.37 L 39.81 94.39 C 42.47 93.81 45.09 93.03 47.54 91.81 C 46.32 93.01 44.98 94.07 43.60 95.08 C 41.58 95.06 39.51 95.00 37.75 93.87 Z" />
</g>
</svg>
