<?xml version="1.0" encoding="UTF-8" ?>
<!DOCTYPE svg PUBLIC "-//W3C//DTD SVG 1.1//EN" "http://www.w3.org/Graphics/SVG/1.1/DTD/svg11.dtd">
<svg width="128pt" height="120pt" viewBox="0 0 128 120" version="1.1" xmlns="http://www.w3.org/2000/svg">
<g id="#242123ff">
<path fill="#242123" opacity="1.00" d=" M 59.71 26.90 C 59.90 25.20 60.89 23.81 61.87 22.48 C 62.10 27.66 61.70 32.89 62.80 38.00 C 62.98 43.25 63.28 48.49 64.42 53.64 C 67.19 51.61 68.54 48.38 70.52 45.69 L 71.55 44.48 C 69.83 48.83 67.36 52.87 64.18 56.30 C 61.62 47.00 62.34 37.26 60.75 27.80 C 58.76 37.61 58.54 47.63 57.56 57.54 C 57.19 52.32 57.69 46.82 55.14 42.02 C 55.44 48.43 54.60 55.55 58.22 61.22 C 58.43 64.86 59.02 68.71 62.22 70.99 C 63.06 69.34 63.90 67.69 64.74 66.04 C 63.29 62.18 65.19 58.01 68.99 56.46 C 69.95 53.80 70.98 51.15 72.38 48.68 C 71.55 51.65 70.68 54.60 69.82 57.56 C 71.11 56.28 72.39 54.97 73.59 53.59 L 73.94 53.19 C 76.08 54.47 77.69 52.02 78.41 50.30 C 77.81 50.42 76.61 50.66 76.01 50.78 C 80.67 44.74 87.82 40.95 95.16 39.24 C 99.68 38.80 104.28 38.80 108.79 39.23 C 115.93 41.24 124.44 43.39 128.00 50.64 L 128.00 51.95 L 127.35 52.16 C 126.85 51.18 126.36 50.21 125.88 49.23 C 122.10 46.87 118.14 44.81 114.09 42.95 C 107.73 41.16 101.22 40.38 94.62 40.28 C 95.92 40.64 97.23 40.99 98.55 41.32 C 93.46 42.24 88.46 43.87 84.21 46.89 C 83.08 46.60 81.94 46.32 80.80 46.05 C 81.38 46.42 82.55 47.16 83.13 47.53 C 82.26 48.12 81.39 48.71 80.51 49.29 C 79.38 50.68 78.21 52.04 77.01 53.36 C 75.60 54.92 74.32 56.59 73.03 58.24 C 73.80 59.93 74.53 61.64 75.21 63.37 C 75.75 63.31 76.82 63.18 77.35 63.12 C 78.91 62.91 80.47 62.67 82.02 62.41 C 81.74 62.74 81.19 63.40 80.91 63.73 C 86.40 63.97 90.14 67.92 93.95 71.28 C 98.56 70.92 103.60 70.22 107.20 67.04 C 104.63 71.31 99.35 71.20 95.02 72.07 C 97.22 75.34 97.66 79.40 96.40 83.11 C 96.34 79.91 96.89 76.18 94.38 73.69 C 91.43 70.59 88.56 67.05 84.42 65.53 C 81.11 64.18 77.51 63.97 73.98 63.98 C 73.70 65.50 73.43 67.03 73.15 68.55 C 74.52 70.10 75.92 71.62 77.27 73.18 C 75.82 72.40 74.72 70.31 72.87 70.78 C 73.32 73.90 75.56 76.28 76.88 79.05 C 78.42 82.19 80.17 85.22 82.09 88.15 C 83.36 88.36 84.63 88.58 85.90 88.80 C 87.36 88.42 88.82 88.35 89.91 89.56 C 89.84 92.32 90.55 95.33 93.67 96.00 C 92.59 92.33 92.12 88.33 89.91 85.10 C 90.90 85.85 91.87 86.62 92.89 87.34 C 92.73 87.55 92.43 87.95 92.28 88.15 C 93.40 90.64 94.20 93.25 94.22 96.00 C 92.86 96.00 91.51 96.01 90.17 96.01 C 89.49 93.76 88.87 91.49 88.22 89.23 C 85.79 90.26 82.99 89.83 80.92 88.26 C 78.95 85.90 77.58 83.12 76.06 80.46 C 75.78 84.19 76.96 88.73 73.81 91.56 C 73.02 91.42 71.45 91.15 70.67 91.01 C 71.75 90.76 72.83 90.51 73.91 90.26 C 74.57 88.74 75.22 87.22 75.86 85.70 C 74.22 85.75 72.58 85.81 70.95 85.94 C 72.35 85.41 73.76 84.87 75.00 84.01 C 75.47 81.85 75.24 79.62 75.24 77.44 C 73.88 78.58 72.55 79.75 71.19 80.89 C 70.83 80.48 70.12 79.65 69.76 79.24 C 70.28 79.47 71.34 79.95 71.87 80.18 C 72.65 79.15 73.45 78.11 74.23 77.08 C 73.79 76.03 73.36 74.98 72.93 73.93 C 69.94 76.61 65.87 78.17 62.02 76.33 C 61.29 76.90 60.55 77.48 59.82 78.05 C 60.02 80.50 60.22 82.94 60.39 85.39 C 61.72 85.70 63.07 85.98 64.44 86.14 C 63.62 86.14 61.99 86.15 61.17 86.15 C 61.22 86.61 61.30 87.53 61.35 87.99 C 62.77 90.41 64.77 92.39 66.78 94.31 C 68.21 94.27 69.64 94.23 71.07 94.20 L 70.34 94.86 C 68.67 94.98 67.00 95.01 65.33 95.05 C 62.75 92.49 60.55 89.58 58.92 86.31 C 59.72 83.28 59.37 80.12 59.28 77.03 C 58.47 75.78 57.67 74.53 56.89 73.27 C 55.88 73.86 54.87 74.44 53.86 75.02 C 54.64 74.28 55.42 73.55 56.21 72.82 C 55.82 72.19 55.05 70.94 54.67 70.31 C 51.95 73.18 49.57 76.33 47.04 79.35 C 49.83 74.96 53.48 71.22 56.57 67.05 C 55.24 66.93 53.91 66.81 52.59 66.69 C 51.71 65.94 50.82 65.23 49.89 64.55 C 47.65 65.50 46.01 67.37 44.06 68.75 C 45.76 66.27 48.23 64.52 50.67 62.84 C 48.91 62.72 47.20 63.06 45.56 63.65 C 48.57 62.44 50.37 59.76 52.12 57.18 C 52.83 57.10 54.25 56.95 54.96 56.87 C 54.95 56.21 54.95 54.89 54.95 54.23 C 48.93 47.07 40.27 42.37 31.06 40.90 C 26.77 40.89 22.47 40.98 18.17 40.73 C 12.08 42.65 5.85 44.49 0.60 48.27 C 1.94 49.60 3.29 50.91 4.66 52.21 C 12.94 53.32 21.27 55.12 28.55 59.40 C 32.51 62.44 36.76 65.06 41.11 67.51 C 41.48 67.19 42.23 66.56 42.61 66.24 C 42.48 66.74 42.24 67.75 42.12 68.26 L 44.17 68.06 C 42.83 70.24 41.44 72.38 40.02 74.50 C 40.01 75.55 40.00 76.59 39.99 77.64 C 41.17 79.73 42.36 81.82 43.67 83.83 C 44.68 82.46 45.70 81.08 46.74 79.73 C 45.87 81.71 42.71 84.06 45.80 85.62 C 49.42 83.36 50.76 78.76 53.74 75.75 C 51.37 79.55 48.72 83.17 46.36 86.98 C 42.65 84.84 39.62 81.27 38.96 76.94 C 38.60 74.00 41.18 71.95 42.14 69.38 C 37.43 66.62 32.63 64.00 28.19 60.79 C 20.84 55.73 11.86 54.42 3.29 52.82 C 2.18 51.71 1.06 50.60 0.00 49.43 L 0.00 47.24 C 6.86 41.16 15.99 38.61 24.95 37.99 C 35.58 38.30 46.28 42.00 54.13 49.31 C 54.73 44.97 51.84 40.44 54.22 36.41 C 55.40 39.15 56.56 41.90 57.85 44.60 C 57.86 38.65 58.64 32.74 59.71 26.90 M 22.38 39.51 C 22.66 40.84 25.03 40.28 26.07 40.44 C 26.66 40.66 29.81 39.92 28.11 39.15 C 26.22 39.07 24.20 38.97 22.38 39.51 M 34.29 40.28 C 34.85 40.83 34.85 40.83 34.29 40.28 M 54.40 40.31 C 54.99 40.89 54.99 40.89 54.40 40.31 M 92.22 41.24 C 92.72 41.84 92.72 41.84 92.22 41.24 M 89.17 42.26 C 89.74 42.81 89.74 42.81 89.17 42.26 M 50.21 61.27 C 50.58 63.14 51.98 64.53 53.15 65.93 C 54.76 66.02 56.37 66.11 57.98 66.20 L 58.07 65.18 C 56.15 65.08 53.18 65.64 52.74 63.01 C 52.34 60.82 54.77 59.94 56.47 59.68 C 56.02 59.14 55.10 58.05 54.65 57.51 C 52.40 57.64 50.86 59.18 50.21 61.27 M 67.24 58.12 C 64.98 60.09 64.36 63.30 66.18 65.78 C 68.05 66.42 69.94 67.02 71.75 67.81 C 72.53 65.99 73.24 64.15 74.02 62.33 C 72.94 59.69 70.47 56.52 67.24 58.12 M 57.24 67.24 C 57.81 67.82 57.81 67.82 57.24 67.24 M 65.03 66.75 C 66.01 68.44 65.44 70.21 64.77 71.89 C 63.05 71.83 61.33 71.77 59.60 71.71 C 59.20 74.65 62.72 74.80 64.59 75.77 C 66.12 73.31 68.28 71.38 70.42 69.48 C 70.28 69.04 69.98 68.17 69.83 67.73 C 68.16 67.78 66.58 67.28 65.03 66.75 M 70.32 71.01 C 70.26 74.44 73.31 69.61 70.32 71.01 M 66.85 76.28 C 68.00 76.10 69.63 75.35 69.67 74.00 C 68.74 72.01 65.21 75.33 66.85 76.28 Z" />
<path fill="#242123" opacity="1.00" d=" M 72.22 43.10 C 73.36 40.52 75.07 38.24 77.24 36.45 C 76.32 40.03 75.02 43.52 73.31 46.80 C 73.04 45.88 72.50 44.02 72.22 43.10 Z" />
<path fill="#242123" opacity="1.00" d=" M 25.83 45.36 C 28.55 45.45 31.27 45.58 33.96 45.91 C 31.26 46.91 28.50 45.95 25.83 45.36 Z" />
<path fill="#242123" opacity="1.00" d=" M 94.05 47.40 C 98.31 45.85 102.82 46.83 107.23 46.37 C 105.63 46.77 104.02 47.10 102.41 47.40 C 99.72 46.50 96.85 46.60 94.30 47.85 L 94.05 47.40 Z" />
<path fill="#242123" opacity="1.00" d=" M 117.44 56.67 C 120.29 55.40 123.31 54.60 126.35 53.96 C 123.26 55.74 119.80 56.68 116.32 57.35 L 117.44 56.67 Z" />
<path fill="#242123" opacity="1.00" d=" M 114.40 58.63 C 114.46 58.59 114.58 58.49 114.64 58.44 C 114.58 58.49 114.46 58.59 114.40 58.63 Z" />
<path fill="#242123" opacity="1.00" d=" M 70.61 59.86 C 71.76 60.97 73.07 63.09 71.43 64.41 C 70.40 65.84 68.33 64.94 66.87 65.21 C 66.88 63.85 66.90 62.48 66.92 61.12 C 68.44 61.34 69.67 60.92 70.61 59.86 Z" />
<path fill="#242123" opacity="1.00" d=" M 76.28 61.22 C 76.79 61.80 76.79 61.80 76.28 61.22 Z" />
<path fill="#242123" opacity="1.00" d=" M 90.05 79.14 C 87.22 75.91 84.31 72.80 80.97 70.09 C 84.60 72.41 87.52 75.69 90.05 79.14 Z" />
<path fill="#242123" opacity="1.00" d=" M 80.95 73.03 C 83.78 75.28 85.95 78.22 88.02 81.15 C 85.64 78.46 83.35 75.70 80.95 73.03 Z" />
<path fill="#242123" opacity="1.00" d=" M 77.91 73.76 C 79.47 75.41 80.74 77.30 81.85 79.27 C 80.39 77.54 79.06 75.71 77.91 73.76 Z" />
<path fill="#242123" opacity="1.00" d=" M 49.82 87.69 C 52.50 86.82 55.43 87.42 58.19 87.47 C 55.65 88.20 52.97 88.04 50.36 88.02 C 49.95 89.07 49.54 90.13 49.15 91.20 C 49.33 90.02 49.55 88.85 49.82 87.69 Z" />
<path fill="#242123" opacity="1.00" d=" M 42.77 91.83 C 43.57 90.82 44.38 89.82 45.17 88.81 C 45.02 89.61 44.73 91.19 44.58 91.99 C 45.68 92.56 46.79 93.13 47.91 93.69 C 45.88 94.62 44.35 92.80 42.77 91.83 Z" />
</g>
<g id="#bdb5d9ff">
<path fill="#bdb5d9" opacity="1.00" d=" M 60.75 27.80 C 62.34 37.26 61.62 47.00 64.18 56.30 C 67.36 52.87 69.83 48.83 71.55 44.48 C 71.72 44.13 72.05 43.44 72.22 43.10 C 72.50 44.02 73.04 45.88 73.31 46.80 L 72.91 47.61 C 72.78 47.87 72.51 48.41 72.38 48.68 C 70.98 51.15 69.95 53.80 68.99 56.46 C 65.19 58.01 63.29 62.18 64.74 66.04 C 63.90 67.69 63.06 69.34 62.22 70.99 C 59.02 68.71 58.43 64.86 58.22 61.22 C 54.60 55.55 55.44 48.43 55.14 42.02 C 57.69 46.82 57.19 52.32 57.56 57.54 C 58.54 47.63 58.76 37.61 60.75 27.80 Z" />
<path fill="#bdb5d9" opacity="1.00" d=" M 22.38 39.51 C 24.20 38.97 26.22 39.07 28.11 39.15 C 29.81 39.92 26.66 40.66 26.07 40.44 C 25.03 40.28 22.66 40.84 22.38 39.51 Z" />
<path fill="#bdb5d9" opacity="1.00" d=" M 34.29 40.28 C 34.85 40.83 34.85 40.83 34.29 40.28 Z" />
<path fill="#bdb5d9" opacity="1.00" d=" M 54.40 40.31 C 54.99 40.89 54.99 40.89 54.40 40.31 Z" />
<path fill="#bdb5d9" opacity="1.00" d=" M 92.22 41.24 C 92.72 41.84 92.72 41.84 92.22 41.24 Z" />
<path fill="#bdb5d9" opacity="1.00" d=" M 89.17 42.26 C 89.74 42.81 89.74 42.81 89.17 42.26 Z" />
<path fill="#bdb5d9" opacity="1.00" d=" M 18.42 46.31 C 19.49 45.53 20.58 45.51 21.68 46.24 C 21.81 47.68 18.27 47.78 18.42 46.31 Z" />
<path fill="#bdb5d9" opacity="1.00" d=" M 36.30 46.28 C 36.82 46.77 36.82 46.77 36.30 46.28 Z" />
<path fill="#bdb5d9" opacity="1.00" d=" M 14.37 47.15 C 15.61 46.27 16.34 46.49 16.56 47.81 C 15.32 48.69 14.59 48.47 14.37 47.15 Z" />
<path fill="#bdb5d9" opacity="1.00" d=" M 26.24 47.24 C 26.74 47.75 26.74 47.75 26.24 47.24 Z" />
<path fill="#bdb5d9" opacity="1.00" d=" M 39.32 47.32 C 39.86 47.79 39.86 47.79 39.32 47.32 Z" />
<path fill="#bdb5d9" opacity="1.00" d=" M 110.30 47.06 C 113.33 45.60 110.37 50.38 110.30 47.06 Z" />
<path fill="#bdb5d9" opacity="1.00" d=" M 11.17 48.07 C 14.13 46.47 11.38 51.39 11.17 48.07 Z" />
<path fill="#bdb5d9" opacity="1.00" d=" M 23.26 48.29 C 23.77 48.80 23.77 48.80 23.26 48.29 Z" />
<path fill="#bdb5d9" opacity="1.00" d=" M 42.21 48.21 C 42.72 48.70 42.72 48.70 42.21 48.21 Z" />
<path fill="#bdb5d9" opacity="1.00" d=" M 91.26 48.13 C 94.22 46.53 91.47 51.45 91.26 48.13 Z" />
<path fill="#bdb5d9" opacity="1.00" d=" M 106.24 48.27 C 106.76 48.76 106.76 48.76 106.24 48.27 Z" />
<path fill="#bdb5d9" opacity="1.00" d=" M 114.36 48.24 C 114.86 48.75 114.86 48.75 114.36 48.24 Z" />
<path fill="#bdb5d9" opacity="1.00" d=" M 8.30 49.29 C 8.77 49.82 8.77 49.82 8.30 49.29 Z" />
<path fill="#bdb5d9" opacity="1.00" d=" M 21.24 49.20 C 21.73 49.73 21.73 49.73 21.24 49.20 Z" />
<path fill="#bdb5d9" opacity="1.00" d=" M 44.32 49.27 C 44.87 49.73 44.87 49.73 44.32 49.27 Z" />
<path fill="#bdb5d9" opacity="1.00" d=" M 89.31 49.30 C 89.78 49.83 89.78 49.83 89.31 49.30 Z" />
<path fill="#bdb5d9" opacity="1.00" d=" M 118.26 49.26 C 118.79 49.75 118.79 49.75 118.26 49.26 Z" />
<path fill="#bdb5d9" opacity="1.00" d=" M 19.23 50.22 C 19.74 50.71 19.74 50.71 19.23 50.22 Z" />
<path fill="#bdb5d9" opacity="1.00" d=" M 46.29 50.24 C 46.83 50.71 46.83 50.71 46.29 50.24 Z" />
<path fill="#bdb5d9" opacity="1.00" d=" M 87.32 50.34 C 87.82 50.84 87.82 50.84 87.32 50.34 Z" />
<path fill="#bdb5d9" opacity="1.00" d=" M 111.28 50.32 C 111.80 50.79 111.80 50.79 111.28 50.32 Z" />
<path fill="#bdb5d9" opacity="1.00" d=" M 17.23 51.30 C 17.75 51.80 17.75 51.80 17.23 51.30 Z" />
<path fill="#bdb5d9" opacity="1.00" d=" M 48.29 51.31 C 48.82 51.79 48.82 51.79 48.29 51.31 Z" />
<path fill="#bdb5d9" opacity="1.00" d=" M 123.16 51.32 C 123.71 51.77 123.71 51.77 123.16 51.32 Z" />
<path fill="#bdb5d9" opacity="1.00" d=" M 83.28 52.27 C 84.73 51.72 85.18 52.15 84.61 53.55 C 83.15 54.10 82.71 53.67 83.28 52.27 Z" />
<path fill="#bdb5d9" opacity="1.00" d=" M 114.31 52.18 C 114.81 52.68 114.81 52.68 114.31 52.18 Z" />
<path fill="#bdb5d9" opacity="1.00" d=" M 31.26 53.14 C 34.17 51.45 31.60 56.45 31.26 53.14 Z" />
<path fill="#bdb5d9" opacity="1.00" d=" M 42.26 53.27 C 42.74 53.80 42.74 53.80 42.26 53.27 Z" />
<path fill="#bdb5d9" opacity="1.00" d=" M 51.30 53.24 C 51.78 53.77 51.78 53.77 51.30 53.24 Z" />
<path fill="#bdb5d9" opacity="1.00" d=" M 27.19 54.08 C 30.16 52.51 27.37 57.40 27.19 54.08 Z" />
<path fill="#bdb5d9" opacity="1.00" d=" M 46.22 54.28 C 46.73 54.78 46.73 54.78 46.22 54.28 Z" />
<path fill="#bdb5d9" opacity="1.00" d=" M 73.03 58.24 C 74.32 56.59 75.60 54.92 77.01 53.36 C 77.63 54.64 78.26 55.91 78.89 57.18 C 78.75 57.68 78.46 58.67 78.31 59.17 C 79.03 59.07 80.47 58.86 81.19 58.76 C 79.92 60.22 78.64 61.67 77.35 63.12 C 76.82 63.18 75.75 63.31 75.21 63.37 C 74.53 61.64 73.80 59.93 73.03 58.24 M 76.28 61.22 C 76.79 61.80 76.79 61.80 76.28 61.22 Z" />
<path fill="#bdb5d9" opacity="1.00" d=" M 81.12 54.09 C 82.40 54.70 82.35 55.37 80.99 56.11 C 79.71 55.50 79.75 54.83 81.12 54.09 Z" />
<path fill="#bdb5d9" opacity="1.00" d=" M 92.28 54.33 C 93.85 53.48 96.01 53.61 97.59 54.40 C 96.73 55.60 93.00 55.74 92.28 54.33 Z" />
<path fill="#bdb5d9" opacity="1.00" d=" M 99.45 54.31 C 100.20 53.51 102.70 53.29 102.73 54.71 C 101.98 55.50 99.50 55.71 99.45 54.31 Z" />
<path fill="#bdb5d9" opacity="1.00" d=" M 118.26 54.30 C 118.74 54.82 118.74 54.82 118.26 54.30 Z" />
<path fill="#bdb5d9" opacity="1.00" d=" M 89.22 55.31 C 89.74 55.80 89.74 55.80 89.22 55.31 Z" />
<path fill="#bdb5d9" opacity="1.00" d=" M 107.26 55.27 C 107.74 55.80 107.74 55.80 107.26 55.27 Z" />
<path fill="#bdb5d9" opacity="1.00" d=" M 85.22 56.07 C 88.22 54.55 85.35 59.40 85.22 56.07 Z" />
<path fill="#bdb5d9" opacity="1.00" d=" M 110.25 56.24 C 110.73 56.76 110.73 56.76 110.25 56.24 Z" />
<path fill="#bdb5d9" opacity="1.00" d=" M 35.10 57.04 C 38.36 56.69 41.66 56.65 44.92 57.04 C 42.15 58.75 37.74 59.07 35.10 57.04 Z" />
<path fill="#bdb5d9" opacity="1.00" d=" M 83.31 57.23 C 83.78 57.77 83.78 57.77 83.31 57.23 Z" />
<path fill="#bdb5d9" opacity="1.00" d=" M 31.24 58.30 C 31.74 58.81 31.74 58.81 31.24 58.30 Z" />
<path fill="#bdb5d9" opacity="1.00" d=" M 47.28 58.10 C 50.26 56.53 47.46 61.42 47.28 58.10 Z" />
<path fill="#bdb5d9" opacity="1.00" d=" M 95.34 58.27 C 96.59 57.52 98.42 57.54 99.65 58.34 C 99.29 59.71 95.62 59.66 95.34 58.27 Z" />
<path fill="#bdb5d9" opacity="1.00" d=" M 89.25 59.10 C 92.24 57.53 89.45 62.41 89.25 59.10 Z" />
<path fill="#bdb5d9" opacity="1.00" d=" M 103.44 59.12 C 104.66 58.23 105.37 58.47 105.58 59.81 C 104.35 60.69 103.64 60.46 103.44 59.12 Z" />
<path fill="#bdb5d9" opacity="1.00" d=" M 85.25 60.14 C 88.20 58.54 85.48 63.46 85.25 60.14 Z" />
<path fill="#bdb5d9" opacity="1.00" d=" M 108.34 60.26 C 108.87 60.73 108.87 60.73 108.34 60.26 Z" />
<path fill="#bdb5d9" opacity="1.00" d=" M 83.08 61.59 C 84.16 60.88 85.78 61.45 86.58 62.36 C 86.37 63.96 82.59 63.24 83.08 61.59 Z" />
<path fill="#bdb5d9" opacity="1.00" d=" M 109.09 64.82 C 107.80 62.79 109.45 60.15 111.87 61.08 C 110.95 62.33 110.09 63.63 109.09 64.82 Z" />
<path fill="#bdb5d9" opacity="1.00" d=" M 88.23 62.28 C 88.71 62.80 88.71 62.80 88.23 62.28 Z" />
<path fill="#bdb5d9" opacity="1.00" d=" M 91.26 63.34 C 91.78 63.84 91.78 63.84 91.26 63.34 Z" />
<path fill="#bdb5d9" opacity="1.00" d=" M 94.18 64.33 C 94.66 64.85 94.66 64.85 94.18 64.33 Z" />
<path fill="#bdb5d9" opacity="1.00" d=" M 97.22 66.31 C 97.75 66.78 97.75 66.78 97.22 66.31 Z" />
<path fill="#bdb5d9" opacity="1.00" d=" M 57.24 67.24 C 57.81 67.82 57.81 67.82 57.24 67.24 Z" />
<path fill="#bdb5d9" opacity="1.00" d=" M 65.03 66.75 C 66.58 67.28 68.16 67.78 69.83 67.73 C 69.98 68.17 70.28 69.04 70.42 69.48 C 68.28 71.38 66.12 73.31 64.59 75.77 C 62.72 74.80 59.20 74.65 59.60 71.71 C 61.33 71.77 63.05 71.83 64.77 71.89 C 65.44 70.21 66.01 68.44 65.03 66.75 Z" />
<path fill="#bdb5d9" opacity="1.00" d=" M 75.24 67.14 C 76.68 66.72 77.13 67.20 76.61 68.58 C 75.18 69.00 74.73 68.52 75.24 67.14 Z" />
<path fill="#bdb5d9" opacity="1.00" d=" M 99.32 67.32 C 99.80 67.85 99.80 67.85 99.32 67.32 Z" />
<path fill="#bdb5d9" opacity="1.00" d=" M 79.26 69.27 C 79.77 69.78 79.77 69.78 79.26 69.27 Z" />
<path fill="#bdb5d9" opacity="1.00" d=" M 77.34 70.32 C 77.82 70.85 77.82 70.85 77.34 70.32 Z" />
<path fill="#bdb5d9" opacity="1.00" d=" M 70.32 71.01 C 73.31 69.61 70.26 74.44 70.32 71.01 Z" />
<path fill="#bdb5d9" opacity="1.00" d=" M 66.85 76.28 C 65.21 75.33 68.74 72.01 69.67 74.00 C 69.63 75.35 68.00 76.10 66.85 76.28 Z" />
<path fill="#bdb5d9" opacity="1.00" d=" M 57.37 77.25 C 58.94 77.61 57.74 81.12 56.23 80.70 C 55.57 79.55 56.32 77.91 57.37 77.25 Z" />
<path fill="#bdb5d9" opacity="1.00" d=" M 68.43 80.35 C 70.09 81.91 64.54 83.26 64.40 81.34 C 65.53 80.51 67.06 80.33 68.43 80.35 Z" />
<path fill="#bdb5d9" opacity="1.00" d=" M 82.25 80.30 C 82.76 80.80 82.76 80.80 82.25 80.30 Z" />
<path fill="#bdb5d9" opacity="1.00" d=" M 91.24 81.29 C 91.77 81.76 91.77 81.76 91.24 81.29 Z" />
<path fill="#bdb5d9" opacity="1.00" d=" M 55.32 82.27 C 56.92 82.60 55.74 86.15 54.23 85.69 C 53.57 84.56 54.26 82.91 55.32 82.27 Z" />
<path fill="#bdb5d9" opacity="1.00" d=" M 83.25 82.23 C 83.75 82.73 83.75 82.73 83.25 82.23 Z" />
<path fill="#bdb5d9" opacity="1.00" d=" M 88.35 82.13 C 89.75 81.81 90.26 82.34 89.87 83.72 C 88.47 84.04 87.96 83.51 88.35 82.13 Z" />
<path fill="#bdb5d9" opacity="1.00" d=" M 84.09 84.22 C 87.41 84.38 82.54 87.21 84.09 84.22 Z" />
<path fill="#bdb5d9" opacity="1.00" d=" M 68.08 85.20 C 71.64 84.80 68.16 89.19 67.17 86.21 C 67.40 85.96 67.85 85.45 68.08 85.20 Z" />
<path fill="#bdb5d9" opacity="1.00" d=" M 61.35 87.99 C 64.01 90.07 67.23 91.49 70.67 91.01 C 71.45 91.15 73.02 91.42 73.81 91.56 C 72.90 92.44 71.99 93.32 71.07 94.20 C 69.64 94.23 68.21 94.27 66.78 94.31 C 64.77 92.39 62.77 90.41 61.35 87.99 Z" />
</g>
<g id="#e3d8e6ff">
<path fill="#e3d8e6" opacity="1.00" d=" M 94.62 40.28 C 101.22 40.38 107.73 41.16 114.09 42.95 C 118.14 44.81 122.10 46.87 125.88 49.23 C 126.36 50.21 126.85 51.18 127.35 52.16 C 126.75 52.32 125.55 52.65 124.96 52.81 C 125.52 52.99 126.66 53.36 127.23 53.55 L 126.35 53.96 C 123.31 54.60 120.29 55.40 117.44 56.67 L 116.32 57.35 C 115.90 57.62 115.06 58.17 114.64 58.44 C 114.58 58.49 114.46 58.59 114.40 58.63 C 113.54 59.43 112.70 60.25 111.87 61.08 C 109.45 60.15 107.80 62.79 109.09 64.82 C 108.47 65.57 107.84 66.31 107.20 67.04 C 103.60 70.22 98.56 70.92 93.95 71.28 C 90.14 67.92 86.40 63.97 80.91 63.73 C 81.19 63.40 81.74 62.74 82.02 62.41 C 80.47 62.67 78.91 62.91 77.35 63.12 C 78.64 61.67 79.92 60.22 81.19 58.76 C 80.47 58.86 79.03 59.07 78.31 59.17 C 78.46 58.67 78.75 57.68 78.89 57.18 C 78.26 55.91 77.63 54.64 77.01 53.36 C 78.21 52.04 79.38 50.68 80.51 49.29 C 81.39 48.71 82.26 48.12 83.13 47.53 C 82.55 47.16 81.38 46.42 80.80 46.05 C 81.94 46.32 83.08 46.60 84.21 46.89 C 88.46 43.87 93.46 42.24 98.55 41.32 C 97.23 40.99 95.92 40.64 94.62 40.28 M 94.05 47.40 L 94.30 47.85 C 96.85 46.60 99.72 46.50 102.41 47.40 C 104.02 47.10 105.63 46.77 107.23 46.37 C 102.82 46.83 98.31 45.85 94.05 47.40 M 110.30 47.06 C 110.37 50.38 113.33 45.60 110.30 47.06 M 91.26 48.13 C 91.47 51.45 94.22 46.53 91.26 48.13 M 106.24 48.27 C 106.76 48.76 106.76 48.76 106.24 48.27 M 114.36 48.24 C 114.86 48.75 114.86 48.75 114.36 48.24 M 89.31 49.30 C 89.78 49.83 89.78 49.83 89.31 49.30 M 118.26 49.26 C 118.79 49.75 118.79 49.75 118.26 49.26 M 87.32 50.34 C 87.82 50.84 87.82 50.84 87.32 50.34 M 111.28 50.32 C 111.80 50.79 111.80 50.79 111.28 50.32 M 123.16 51.32 C 123.71 51.77 123.71 51.77 123.16 51.32 M 83.28 52.27 C 82.71 53.67 83.15 54.10 84.61 53.55 C 85.18 52.15 84.73 51.72 83.28 52.27 M 114.31 52.18 C 114.81 52.68 114.81 52.68 114.31 52.18 M 81.12 54.09 C 79.75 54.83 79.71 55.50 80.99 56.11 C 82.35 55.37 82.40 54.70 81.12 54.09 M 92.28 54.33 C 93.00 55.74 96.73 55.60 97.59 54.40 C 96.01 53.61 93.85 53.48 92.28 54.33 M 99.45 54.31 C 99.50 55.71 101.98 55.50 102.73 54.71 C 102.70 53.29 100.20 53.51 99.45 54.31 M 118.26 54.30 C 118.74 54.82 118.74 54.82 118.26 54.30 M 89.22 55.31 C 89.74 55.80 89.74 55.80 89.22 55.31 M 107.26 55.27 C 107.74 55.80 107.74 55.80 107.26 55.27 M 85.22 56.07 C 85.35 59.40 88.22 54.55 85.22 56.07 M 110.25 56.24 C 110.73 56.76 110.73 56.76 110.25 56.24 M 83.31 57.23 C 83.78 57.77 83.78 57.77 83.31 57.23 M 95.34 58.27 C 95.62 59.66 99.29 59.71 99.65 58.34 C 98.42 57.54 96.59 57.52 95.34 58.27 M 89.25 59.10 C 89.45 62.41 92.24 57.53 89.25 59.10 M 103.44 59.12 C 103.64 60.46 104.35 60.69 105.58 59.81 C 105.37 58.47 104.66 58.23 103.44 59.12 M 85.25 60.14 C 85.48 63.46 88.20 58.54 85.25 60.14 M 108.34 60.26 C 108.87 60.73 108.87 60.73 108.34 60.26 M 83.08 61.59 C 82.59 63.24 86.37 63.96 86.58 62.36 C 85.78 61.45 84.16 60.88 83.08 61.59 M 88.23 62.28 C 88.71 62.80 88.71 62.80 88.23 62.28 M 91.26 63.34 C 91.78 63.84 91.78 63.84 91.26 63.34 M 94.18 64.33 C 94.66 64.85 94.66 64.85 94.18 64.33 M 97.22 66.31 C 97.75 66.78 97.75 66.78 97.22 66.31 M 99.32 67.32 C 99.80 67.85 99.80 67.85 99.32 67.32 Z" />
<path fill="#e3d8e6" opacity="1.00" d=" M 0.60 48.27 C 5.85 44.49 12.08 42.65 18.17 40.73 C 22.47 40.98 26.77 40.89 31.06 40.90 C 40.27 42.37 48.93 47.07 54.95 54.23 C 54.95 54.89 54.95 56.21 54.96 56.87 C 54.25 56.95 52.83 57.10 52.12 57.18 C 50.37 59.76 48.57 62.44 45.56 63.65 C 47.20 63.06 48.91 62.72 50.67 62.84 C 48.23 64.52 45.76 66.27 44.06 68.75 C 46.01 67.37 47.65 65.50 49.89 64.55 C 50.82 65.23 51.71 65.94 52.59 66.69 C 53.91 66.81 55.24 66.93 56.57 67.05 C 53.48 71.22 49.83 74.96 47.04 79.35 C 49.57 76.33 51.95 73.18 54.67 70.31 C 55.05 70.94 55.82 72.19 56.21 72.82 C 55.42 73.55 54.64 74.28 53.86 75.02 C 54.87 74.44 55.88 73.86 56.89 73.27 C 57.67 74.53 58.47 75.78 59.28 77.03 C 59.37 80.12 59.72 83.28 58.92 86.31 L 58.19 87.47 C 55.43 87.42 52.50 86.82 49.82 87.69 C 49.55 88.85 49.33 90.02 49.15 91.20 L 49.03 91.72 C 48.75 92.21 48.19 93.20 47.91 93.69 C 46.79 93.13 45.68 92.56 44.58 91.99 C 44.73 91.19 45.02 89.61 45.17 88.81 L 45.44 88.41 C 45.67 88.05 46.13 87.34 46.36 86.98 C 48.72 83.17 51.37 79.55 53.74 75.75 C 50.76 78.76 49.42 83.36 45.80 85.62 C 42.71 84.06 45.87 81.71 46.74 79.73 C 45.70 81.08 44.68 82.46 43.67 83.83 C 42.36 81.82 41.17 79.73 39.99 77.64 C 40.00 76.59 40.01 75.55 40.02 74.50 C 41.44 72.38 42.83 70.24 44.17 68.06 L 42.12 68.26 C 42.24 67.75 42.48 66.74 42.61 66.24 C 42.23 66.56 41.48 67.19 41.11 67.51 C 36.76 65.06 32.51 62.44 28.55 59.40 C 21.27 55.12 12.94 53.32 4.66 52.21 C 3.29 50.91 1.94 49.60 0.60 48.27 M 25.83 45.36 C 28.50 45.95 31.26 46.91 33.96 45.91 C 31.27 45.58 28.55 45.45 25.83 45.36 M 18.42 46.31 C 18.27 47.78 21.81 47.68 21.68 46.24 C 20.58 45.51 19.49 45.53 18.42 46.31 M 36.30 46.28 C 36.82 46.77 36.82 46.77 36.30 46.28 M 14.37 47.15 C 14.59 48.47 15.32 48.69 16.56 47.81 C 16.34 46.49 15.61 46.27 14.37 47.15 M 26.24 47.24 C 26.74 47.75 26.74 47.75 26.24 47.24 M 39.32 47.32 C 39.86 47.79 39.86 47.79 39.32 47.32 M 11.17 48.07 C 11.38 51.39 14.13 46.47 11.17 48.07 M 23.26 48.29 C 23.77 48.80 23.77 48.80 23.26 48.29 M 42.21 48.21 C 42.72 48.70 42.72 48.70 42.21 48.21 M 8.30 49.29 C 8.77 49.82 8.77 49.82 8.30 49.29 M 21.24 49.20 C 21.73 49.73 21.73 49.73 21.24 49.20 M 44.32 49.27 C 44.87 49.73 44.87 49.73 44.32 49.27 M 19.23 50.22 C 19.74 50.71 19.74 50.71 19.23 50.22 M 46.29 50.24 C 46.83 50.71 46.83 50.71 46.29 50.24 M 17.23 51.30 C 17.75 51.80 17.75 51.80 17.23 51.30 M 48.29 51.31 C 48.82 51.79 48.82 51.79 48.29 51.31 M 31.26 53.14 C 31.60 56.45 34.17 51.45 31.26 53.14 M 42.26 53.27 C 42.74 53.80 42.74 53.80 42.26 53.27 M 51.30 53.24 C 51.78 53.77 51.78 53.77 51.30 53.24 M 27.19 54.08 C 27.37 57.40 30.16 52.51 27.19 54.08 M 46.22 54.28 C 46.73 54.78 46.73 54.78 46.22 54.28 M 35.10 57.04 C 37.74 59.07 42.15 58.75 44.92 57.04 C 41.66 56.65 38.36 56.69 35.10 57.04 M 31.24 58.30 C 31.74 58.81 31.74 58.81 31.24 58.30 M 47.28 58.10 C 47.46 61.42 50.26 56.53 47.28 58.10 M 57.37 77.25 C 56.32 77.91 55.57 79.55 56.23 80.70 C 57.74 81.12 58.94 77.61 57.37 77.25 M 55.32 82.27 C 54.26 82.91 53.57 84.56 54.23 85.69 C 55.74 86.15 56.92 82.60 55.32 82.27 Z" />
<path fill="#e3d8e6" opacity="1.00" d=" M 76.01 50.78 C 76.61 50.66 77.81 50.42 78.41 50.30 C 77.69 52.02 76.08 54.47 73.94 53.19 C 74.15 52.94 74.57 52.43 74.78 52.18 C 75.08 51.83 75.70 51.13 76.01 50.78 Z" />
<path fill="#e3d8e6" opacity="1.00" d=" M 50.21 61.27 C 50.86 59.18 52.40 57.64 54.65 57.51 C 55.10 58.05 56.02 59.14 56.47 59.68 C 54.77 59.94 52.34 60.82 52.74 63.01 C 53.18 65.64 56.15 65.08 58.07 65.18 L 57.98 66.20 C 56.37 66.11 54.76 66.02 53.15 65.93 C 51.98 64.53 50.58 63.14 50.21 61.27 Z" />
<path fill="#e3d8e6" opacity="1.00" d=" M 67.24 58.12 C 70.47 56.52 72.94 59.69 74.02 62.33 C 73.24 64.15 72.53 65.99 71.75 67.81 C 69.94 67.02 68.05 66.42 66.18 65.78 C 64.36 63.30 64.98 60.09 67.24 58.12 M 70.61 59.86 C 69.67 60.92 68.44 61.34 66.92 61.12 C 66.90 62.48 66.88 63.85 66.87 65.21 C 68.33 64.94 70.40 65.84 71.43 64.41 C 73.07 63.09 71.76 60.97 70.61 59.86 Z" />
<path fill="#e3d8e6" opacity="1.00" d=" M 73.98 63.98 C 77.51 63.97 81.11 64.18 84.42 65.53 C 88.56 67.05 91.43 70.59 94.38 73.69 C 96.89 76.18 96.34 79.91 96.40 83.11 L 96.25 83.77 C 95.11 84.94 93.98 86.13 92.89 87.34 C 91.87 86.62 90.90 85.85 89.91 85.10 C 92.12 88.33 92.59 92.33 93.67 96.00 C 90.55 95.33 89.84 92.32 89.91 89.56 C 88.82 88.35 87.36 88.42 85.90 88.80 C 84.63 88.58 83.36 88.36 82.09 88.15 C 80.17 85.22 78.42 82.19 76.88 79.05 C 75.56 76.28 73.32 73.90 72.87 70.78 C 74.72 70.31 75.82 72.40 77.27 73.18 C 75.92 71.62 74.52 70.10 73.15 68.55 C 73.43 67.03 73.70 65.50 73.98 63.98 M 75.24 67.14 C 74.73 68.52 75.18 69.00 76.61 68.58 C 77.13 67.20 76.68 66.72 75.24 67.14 M 79.26 69.27 C 79.77 69.78 79.77 69.78 79.26 69.27 M 77.34 70.32 C 77.82 70.85 77.82 70.85 77.34 70.32 M 90.05 79.14 C 87.52 75.69 84.60 72.41 80.97 70.09 C 84.31 72.80 87.22 75.91 90.05 79.14 M 80.95 73.03 C 83.35 75.70 85.64 78.46 88.02 81.15 C 85.95 78.22 83.78 75.28 80.95 73.03 M 77.91 73.76 C 79.06 75.71 80.39 77.54 81.85 79.27 C 80.74 77.30 79.47 75.41 77.91 73.76 M 82.25 80.30 C 82.76 80.80 82.76 80.80 82.25 80.30 M 91.24 81.29 C 91.77 81.76 91.77 81.76 91.24 81.29 M 83.25 82.23 C 83.75 82.73 83.75 82.73 83.25 82.23 M 88.35 82.13 C 87.96 83.51 88.47 84.04 89.87 83.72 C 90.26 82.34 89.75 81.81 88.35 82.13 M 84.09 84.22 C 82.54 87.21 87.41 84.38 84.09 84.22 Z" />
<path fill="#e3d8e6" opacity="1.00" d=" M 62.02 76.33 C 65.87 78.17 69.94 76.61 72.93 73.93 C 73.36 74.98 73.79 76.03 74.23 77.08 C 73.45 78.11 72.65 79.15 71.87 80.18 C 71.34 79.95 70.28 79.47 69.76 79.24 C 70.12 79.65 70.83 80.48 71.19 80.89 C 72.55 79.75 73.88 78.58 75.24 77.44 C 75.24 79.62 75.47 81.85 75.00 84.01 C 73.76 84.87 72.35 85.41 70.95 85.94 C 72.58 85.81 74.22 85.75 75.86 85.70 C 75.22 87.22 74.57 88.74 73.91 90.26 C 72.83 90.51 71.75 90.76 70.67 91.01 C 67.23 91.49 64.01 90.07 61.35 87.99 C 61.30 87.53 61.22 86.61 61.17 86.15 C 61.99 86.15 63.62 86.14 64.44 86.14 C 63.07 85.98 61.72 85.70 60.39 85.39 C 60.22 82.94 60.02 80.50 59.82 78.05 C 60.55 77.48 61.29 76.90 62.02 76.33 M 68.43 80.35 C 67.06 80.33 65.53 80.51 64.40 81.34 C 64.54 83.26 70.09 81.91 68.43 80.35 M 68.08 85.20 C 67.85 85.45 67.40 85.96 67.17 86.21 C 68.16 89.19 71.64 84.80 68.08 85.20 Z" />
</g>
</svg>
