<?xml version="1.0" encoding="UTF-8" ?>
<!DOCTYPE svg PUBLIC "-//W3C//DTD SVG 1.1//EN" "http://www.w3.org/Graphics/SVG/1.1/DTD/svg11.dtd">
<svg width="120pt" height="120pt" viewBox="0 0 120 120" version="1.1" xmlns="http://www.w3.org/2000/svg">
<g id="#24343cff">
<path fill="#24343c" opacity="1.00" d=" M 61.65 30.03 C 62.30 30.07 63.59 30.15 64.24 30.19 C 63.05 31.18 62.04 32.39 61.57 33.88 C 61.07 34.78 60.54 35.65 59.98 36.49 C 59.91 34.20 60.84 32.11 61.65 30.03 Z" />
</g>
<g id="#fafafaff">
<path fill="#fafafa" opacity="1.00" d=" M 64.24 30.19 L 64.83 30.24 C 65.39 32.20 63.41 33.88 61.57 33.88 C 62.04 32.39 63.05 31.18 64.24 30.19 Z" />
</g>
<g id="#5c5f61ff">
<path fill="#5c5f61" opacity="1.00" d=" M 64.83 30.24 C 65.28 30.39 66.18 30.70 66.63 30.86 C 65.77 32.86 64.36 34.59 62.27 35.36 C 61.82 36.39 61.34 37.41 60.86 38.42 C 60.34 39.20 59.82 39.98 59.30 40.76 L 58.94 39.66 C 59.04 39.10 59.26 37.97 59.36 37.41 L 59.98 36.49 C 60.54 35.65 61.07 34.78 61.57 33.88 C 63.41 33.88 65.39 32.20 64.83 30.24 Z" />
</g>
<g id="#958ad8ff">
<path fill="#958ad8" opacity="1.00" d=" M 41.85 41.83 C 39.71 41.66 38.92 40.16 39.94 38.43 C 41.33 38.47 42.73 38.50 44.12 38.53 L 43.51 39.98 C 42.34 39.58 41.16 39.18 39.99 38.80 C 40.61 39.81 41.23 40.82 41.85 41.83 Z" />
<path fill="#958ad8" opacity="1.00" d=" M 62.77 51.77 C 68.08 53.35 71.33 59.95 69.12 65.12 C 67.22 67.68 64.07 68.82 61.37 70.33 C 60.95 70.06 60.11 69.51 59.69 69.23 C 59.01 69.09 57.65 68.81 56.97 68.67 C 56.97 67.44 56.97 66.21 56.97 64.98 C 59.90 66.28 63.01 65.82 65.96 64.92 C 66.68 62.48 67.65 59.87 66.76 57.34 C 65.85 55.22 64.17 53.57 62.77 51.77 Z" />
</g>
<g id="#1d2635ff">
<path fill="#1d2635" opacity="1.00" d=" M 60.86 38.42 L 61.91 37.65 C 61.98 39.18 62.01 40.71 62.01 42.25 L 61.15 41.34 L 60.61 40.75 C 59.56 41.90 58.31 42.97 57.78 44.48 C 56.78 46.86 56.03 49.37 55.95 51.97 C 55.76 51.69 55.38 51.14 55.19 50.87 C 55.43 47.10 53.05 44.14 50.88 41.34 C 51.20 44.17 51.70 46.98 51.83 49.82 C 51.45 49.31 50.71 48.27 50.33 47.75 L 50.73 47.71 L 50.55 47.32 L 50.05 47.33 C 49.92 47.12 49.66 46.71 49.52 46.51 C 49.98 44.85 50.05 43.12 50.08 41.41 C 50.48 41.01 51.27 40.22 51.66 39.82 C 52.97 41.83 54.26 43.85 55.36 45.97 L 55.72 45.99 C 56.00 45.36 56.55 44.11 56.83 43.48 C 56.92 42.99 57.11 42.02 57.20 41.53 C 57.53 40.78 58.20 39.27 58.53 38.52 L 58.94 39.66 L 59.30 40.76 C 59.82 39.98 60.34 39.20 60.86 38.42 Z" />
</g>
<g id="#e3d4bbff">
<path fill="#e3d4bb" opacity="1.00" d=" M 39.99 38.80 C 41.16 39.18 42.34 39.58 43.51 39.98 C 43.77 40.06 44.28 40.24 44.54 40.33 C 44.21 40.45 43.56 40.69 43.24 40.81 L 42.96 41.12 L 42.04 42.15 L 41.85 41.83 C 41.23 40.82 40.61 39.81 39.99 38.80 Z" />
<path fill="#e3d4bb" opacity="1.00" d=" M 47.51 85.17 C 51.38 84.67 54.89 86.75 58.51 87.75 C 54.22 88.26 49.93 88.84 45.60 88.88 C 45.43 88.09 45.08 86.51 44.91 85.71 C 45.56 85.58 46.86 85.31 47.51 85.17 Z" />
</g>
<g id="#273239ff">
<path fill="#273239" opacity="1.00" d=" M 43.24 40.81 C 43.56 40.69 44.21 40.45 44.54 40.33 C 44.82 40.70 45.39 41.44 45.67 41.81 C 45.68 42.52 45.71 43.94 45.73 44.65 L 45.45 44.67 C 44.88 43.30 43.87 42.25 42.96 41.12 L 43.24 40.81 Z" />
</g>
<g id="#847bbfff">
<path fill="#847bbf" opacity="1.00" d=" M 57.78 44.48 C 58.31 42.97 59.56 41.90 60.61 40.75 L 61.15 41.34 L 60.81 42.32 C 60.12 44.20 60.08 46.21 59.97 48.17 C 61.14 47.97 62.31 47.77 63.47 47.57 C 65.11 50.08 68.01 48.53 70.22 48.01 C 69.44 49.01 68.65 50.01 67.87 51.02 C 70.15 51.01 72.44 51.00 74.73 51.00 C 74.59 52.58 74.46 54.16 74.33 55.73 C 75.88 56.49 77.43 57.25 78.98 58.02 C 78.81 60.39 78.60 62.77 78.26 65.13 C 78.41 65.56 78.72 66.43 78.87 66.87 C 78.59 67.82 78.32 68.78 78.06 69.74 C 77.65 71.01 77.33 72.33 76.64 73.49 C 73.14 76.64 69.86 80.13 65.62 82.32 C 63.89 82.58 62.02 82.43 60.43 83.26 C 60.20 84.02 59.74 85.54 59.51 86.30 L 59.50 86.33 C 59.26 86.25 58.78 86.09 58.54 86.02 C 57.67 84.73 57.00 83.05 55.29 82.75 C 51.68 81.63 48.41 79.68 45.56 77.22 C 46.40 77.16 48.09 77.05 48.94 77.00 C 48.90 73.94 49.14 70.88 49.90 67.91 C 51.03 67.99 52.15 68.06 53.28 68.12 C 54.17 68.89 55.03 69.69 55.87 70.52 C 55.61 70.89 55.08 71.63 54.82 72.00 C 55.38 72.00 56.51 72.00 57.07 72.00 C 56.76 72.50 56.14 73.50 55.83 74.00 C 56.38 74.00 57.47 74.00 58.01 74.00 C 57.71 74.55 57.09 75.66 56.78 76.22 C 58.55 75.91 60.74 76.38 62.00 74.77 C 62.26 73.25 61.83 71.76 61.37 70.33 C 64.07 68.82 67.22 67.68 69.12 65.12 C 71.33 59.95 68.08 53.35 62.77 51.77 C 60.73 51.92 58.64 52.12 56.83 53.16 C 57.20 50.27 57.46 47.38 57.78 44.48 Z" />
</g>
<g id="#464854ff">
<path fill="#464854" opacity="1.00" d=" M 45.67 41.81 C 47.60 42.75 48.37 44.84 49.52 46.51 C 49.66 46.71 49.92 47.12 50.05 47.33 L 50.33 47.75 C 50.71 48.27 51.45 49.31 51.83 49.82 C 51.83 50.42 51.85 51.61 51.86 52.20 C 50.60 51.67 49.35 51.13 48.10 50.59 C 48.20 49.46 48.28 48.32 48.34 47.18 C 48.13 47.01 47.73 46.67 47.53 46.50 C 47.08 46.04 46.18 45.11 45.73 44.65 C 45.71 43.94 45.68 42.52 45.67 41.81 Z" />
</g>
<g id="#8279baff">
<path fill="#8279ba" opacity="1.00" d=" M 50.88 41.34 C 53.05 44.14 55.43 47.10 55.19 50.87 C 53.86 51.76 52.55 52.68 51.25 53.64 C 49.58 53.37 47.91 53.11 46.24 52.84 C 43.85 55.48 40.67 58.11 40.75 62.02 C 40.23 64.12 42.06 65.53 43.11 67.07 C 43.73 67.08 44.97 67.08 45.59 67.09 C 46.02 67.94 46.46 68.80 46.90 69.66 C 45.94 70.11 44.99 70.57 44.04 71.03 C 43.92 71.96 43.68 73.81 43.56 74.74 C 42.10 72.39 40.85 69.92 39.69 67.41 C 39.36 63.88 40.90 60.12 38.88 56.90 C 39.07 56.81 39.45 56.64 39.64 56.56 C 40.16 56.33 41.19 55.86 41.71 55.62 C 42.22 54.43 42.68 53.21 43.14 52.00 C 44.75 52.00 46.36 52.00 47.97 52.00 L 48.10 50.59 C 49.35 51.13 50.60 51.67 51.86 52.20 C 51.85 51.61 51.83 50.42 51.83 49.82 C 51.70 46.98 51.20 44.17 50.88 41.34 Z" />
</g>
<g id="#23283cfb">
<path fill="#23283c" opacity="1.00" d=" M 59.97 48.17 C 60.08 46.21 60.12 44.20 60.81 42.32 C 60.91 43.99 61.01 45.66 61.11 47.33 C 62.88 46.55 64.62 45.71 66.34 44.84 C 65.86 45.98 65.38 47.13 64.91 48.28 C 67.03 47.75 69.16 47.24 71.31 46.85 C 70.86 47.93 70.40 49.01 69.92 50.09 C 72.06 50.03 74.20 50.02 76.34 50.07 C 76.01 50.69 75.34 51.91 75.01 52.52 C 75.97 54.74 77.95 56.04 79.86 57.35 C 80.04 58.72 80.04 60.11 80.11 61.50 C 80.99 62.53 81.87 63.59 82.36 64.87 C 81.78 64.92 80.62 65.02 80.04 65.06 C 80.00 65.67 79.91 66.87 79.86 67.47 C 77.81 69.74 80.36 73.58 77.88 75.46 C 77.90 73.55 77.93 71.64 78.06 69.74 C 78.32 68.78 78.59 67.82 78.87 66.87 C 78.72 66.43 78.41 65.56 78.26 65.13 C 78.60 62.77 78.81 60.39 78.98 58.02 C 77.43 57.25 75.88 56.49 74.33 55.73 C 74.46 54.16 74.59 52.58 74.73 51.00 C 72.44 51.00 70.15 51.01 67.87 51.02 C 68.65 50.01 69.44 49.01 70.22 48.01 C 68.01 48.53 65.11 50.08 63.47 47.57 C 62.31 47.77 61.14 47.97 59.97 48.17 Z" />
</g>
<g id="#696871ff">
<path fill="#696871" opacity="1.00" d=" M 55.95 51.97 C 56.03 49.37 56.78 46.86 57.78 44.48 C 57.46 47.38 57.20 50.27 56.83 53.16 L 55.95 51.97 Z" />
</g>
<g id="#121f2cff">
<path fill="#121f2c" opacity="1.00" d=" M 47.53 46.50 C 47.73 46.67 48.13 47.01 48.34 47.18 C 48.28 48.32 48.20 49.46 48.10 50.59 L 47.97 52.00 C 46.36 52.00 44.75 52.00 43.14 52.00 C 42.68 53.21 42.22 54.43 41.71 55.62 C 41.19 55.86 40.16 56.33 39.64 56.56 C 39.78 54.75 41.00 53.49 42.17 52.25 C 41.82 52.07 41.12 51.71 40.77 51.52 C 41.15 51.15 41.92 50.42 42.30 50.05 C 43.71 51.19 45.53 51.01 47.22 51.11 C 47.06 49.64 46.75 48.17 45.85 46.96 C 46.27 46.84 47.11 46.62 47.53 46.50 Z" />
</g>
<g id="#958ad7ff">
<path fill="#958ad7" opacity="1.00" d=" M 51.25 53.64 C 52.55 52.68 53.86 51.76 55.19 50.87 C 55.38 51.14 55.76 51.69 55.95 51.97 L 56.83 53.16 C 55.78 54.69 54.83 56.28 53.86 57.85 C 54.59 59.58 55.30 61.31 56.02 63.03 C 53.63 62.99 51.24 62.96 48.85 62.92 C 50.23 60.00 51.15 56.88 51.25 53.64 Z" />
</g>
<g id="#514258ff">
<path fill="#514258" opacity="1.00" d=" M 56.83 53.16 C 58.64 52.12 60.73 51.92 62.77 51.77 C 64.17 53.57 65.85 55.22 66.76 57.34 C 67.65 59.87 66.68 62.48 65.96 64.92 C 63.01 65.82 59.90 66.28 56.97 64.98 C 56.97 66.21 56.97 67.44 56.97 68.67 C 57.65 68.81 59.01 69.09 59.69 69.23 C 60.11 69.51 60.95 70.06 61.37 70.33 C 61.83 71.76 62.26 73.25 62.00 74.77 C 60.74 76.38 58.55 75.91 56.78 76.22 C 57.09 75.66 57.71 74.55 58.01 74.00 C 57.47 74.00 56.38 74.00 55.83 74.00 C 56.14 73.50 56.76 72.50 57.07 72.00 C 56.51 72.00 55.38 72.00 54.82 72.00 C 55.08 71.63 55.61 70.89 55.87 70.52 C 55.03 69.69 54.17 68.89 53.28 68.12 C 52.15 68.06 51.03 67.99 49.90 67.91 C 49.14 70.88 48.90 73.94 48.94 77.00 C 48.09 77.05 46.40 77.16 45.56 77.22 C 44.86 76.42 44.19 75.59 43.56 74.74 C 43.68 73.81 43.92 71.96 44.04 71.03 C 44.99 70.57 45.94 70.11 46.90 69.66 C 46.46 68.80 46.02 67.94 45.59 67.09 C 44.97 67.08 43.73 67.08 43.11 67.07 C 42.06 65.53 40.23 64.12 40.75 62.02 C 40.67 58.11 43.85 55.48 46.24 52.84 C 47.91 53.11 49.58 53.37 51.25 53.64 C 51.15 56.88 50.23 60.00 48.85 62.92 C 51.24 62.96 53.63 62.99 56.02 63.03 C 55.30 61.31 54.59 59.58 53.86 57.85 C 54.83 56.28 55.78 54.69 56.83 53.16 M 58.33 53.14 C 57.31 54.42 56.07 55.62 55.65 57.26 C 55.96 61.04 58.13 64.96 62.38 64.96 C 63.54 64.19 64.72 63.46 65.90 62.72 C 66.67 58.82 64.49 55.53 61.59 53.19 C 60.51 53.18 59.42 53.16 58.33 53.14 M 45.84 54.69 C 42.56 57.32 40.49 62.78 44.27 65.91 C 45.65 65.11 47.03 64.32 48.41 63.53 L 47.59 63.21 C 47.91 62.50 48.57 61.07 48.89 60.36 L 48.59 59.74 C 50.17 59.06 50.77 56.06 49.44 54.95 C 48.45 54.18 46.78 53.38 45.84 54.69 M 47.91 65.15 C 48.28 65.58 49.02 66.43 49.40 66.86 C 50.93 66.85 52.46 66.85 53.99 66.84 C 54.01 66.12 54.04 64.67 54.06 63.95 C 51.95 63.97 49.74 63.93 47.91 65.15 M 55.37 65.28 C 54.64 66.40 54.63 67.53 55.34 68.66 C 56.75 68.73 56.82 65.16 55.37 65.28 M 48.01 68.00 C 48.62 68.60 48.62 68.60 48.01 68.00 C 47.42 67.38 47.42 67.38 48.01 68.00 M 57.22 69.69 C 57.87 71.60 58.64 73.47 59.38 75.34 C 60.09 74.58 60.79 73.81 61.50 73.04 C 60.30 71.65 59.05 70.21 57.22 69.69 M 44.91 74.68 C 45.95 75.18 46.99 75.68 48.03 76.19 C 48.04 74.38 48.04 72.58 48.03 70.78 C 45.49 70.60 44.72 72.45 44.91 74.68 Z" />
</g>
<g id="#ff9ed2ff">
<path fill="#ff9ed2" opacity="1.00" d=" M 58.33 53.14 C 59.42 53.16 60.51 53.18 61.59 53.19 C 64.49 55.53 66.67 58.82 65.90 62.72 C 64.72 63.46 63.54 64.19 62.38 64.96 C 58.13 64.96 55.96 61.04 55.65 57.26 C 56.07 55.62 57.31 54.42 58.33 53.14 Z" />
</g>
<g id="#e383afff">
<path fill="#e383af" opacity="1.00" d=" M 45.84 54.69 C 46.78 53.38 48.45 54.18 49.44 54.95 L 48.84 55.15 C 47.92 55.45 46.99 55.71 46.10 56.08 C 45.29 58.05 45.42 60.23 45.24 62.32 C 46.02 62.61 46.80 62.91 47.59 63.21 L 48.41 63.53 C 47.03 64.32 45.65 65.11 44.27 65.91 C 40.49 62.78 42.56 57.32 45.84 54.69 Z" />
</g>
<g id="#fc97caff">
<path fill="#fc97ca" opacity="1.00" d=" M 46.10 56.08 C 46.99 55.71 47.92 55.45 48.84 55.15 C 48.18 56.56 47.63 58.32 48.59 59.74 L 48.89 60.36 C 48.57 61.07 47.91 62.50 47.59 63.21 C 46.80 62.91 46.02 62.61 45.24 62.32 C 45.42 60.23 45.29 58.05 46.10 56.08 Z" />
</g>
<g id="#ffb5edff">
<path fill="#ffb5ed" opacity="1.00" d=" M 49.44 54.95 C 50.77 56.06 50.17 59.06 48.59 59.74 C 47.63 58.32 48.18 56.56 48.84 55.15 L 49.44 54.95 Z" />
</g>
<g id="#343537ff">
<path fill="#343537" opacity="1.00" d=" M 38.75 56.61 L 38.88 56.90 C 40.90 60.12 39.36 63.88 39.69 67.41 C 39.60 68.55 39.47 69.69 39.34 70.83 C 40.61 72.96 41.65 75.22 42.51 77.55 C 43.03 77.78 44.05 78.23 44.56 78.46 C 45.43 79.88 46.18 81.40 47.33 82.61 C 50.85 84.34 54.86 84.69 58.54 86.02 C 58.78 86.09 59.26 86.25 59.50 86.33 L 59.51 86.30 C 63.43 85.59 66.90 83.63 70.57 82.18 C 71.16 83.41 71.99 84.50 72.90 85.51 C 72.97 87.00 73.00 88.50 73.04 90.00 C 69.52 89.44 63.27 92.01 62.71 86.73 C 62.01 87.49 61.30 88.25 60.60 89.01 C 57.89 89.22 54.83 88.26 52.43 89.89 C 49.75 90.05 47.08 90.00 44.40 89.99 C 43.96 89.47 43.09 88.44 42.65 87.92 C 43.40 87.18 44.15 86.45 44.91 85.71 C 45.08 86.51 45.43 88.09 45.60 88.88 C 49.93 88.84 54.22 88.26 58.51 87.75 C 54.89 86.75 51.38 84.67 47.51 85.17 C 45.75 83.44 44.50 81.33 43.68 79.01 C 43.07 79.00 41.86 78.96 41.26 78.94 C 41.11 77.69 40.75 76.50 40.18 75.38 C 40.15 74.80 40.07 73.65 40.04 73.07 C 39.50 73.02 38.42 72.91 37.88 72.86 C 38.02 71.27 38.01 69.59 39.03 68.26 C 38.33 67.68 37.64 67.10 36.94 66.53 C 37.74 65.38 38.52 64.22 39.32 63.08 L 37.94 63.02 C 38.72 61.82 39.10 60.46 39.30 59.06 C 38.66 59.04 37.39 59.00 36.76 58.98 C 37.26 58.39 38.25 57.20 38.75 56.61 M 63.94 86.70 C 64.49 89.68 68.06 89.07 70.28 89.18 C 70.28 88.54 70.29 87.27 70.30 86.64 C 70.53 87.30 70.99 88.63 71.22 89.29 C 73.25 88.14 72.10 85.03 69.96 85.03 C 67.85 85.03 65.26 84.62 63.94 86.70 Z" />
</g>
<g id="#ffbaceff">
<path fill="#ffbace" opacity="1.00" d=" M 47.91 65.15 C 49.74 63.93 51.95 63.97 54.06 63.95 C 54.04 64.67 54.01 66.12 53.99 66.84 C 52.46 66.85 50.93 66.85 49.40 66.86 C 49.02 66.43 48.28 65.58 47.91 65.15 Z" />
</g>
<g id="#cbcbcbff">
<path fill="#cbcbcb" opacity="1.00" d=" M 55.37 65.28 C 56.82 65.16 56.75 68.73 55.34 68.66 C 54.63 67.53 54.64 66.40 55.37 65.28 Z" />
</g>
<g id="#544e76ff">
<path fill="#544e76" opacity="1.00" d=" M 39.69 67.41 C 40.85 69.92 42.10 72.39 43.56 74.74 C 44.19 75.59 44.86 76.42 45.56 77.22 C 48.41 79.68 51.68 81.63 55.29 82.75 C 57.00 83.05 57.67 84.73 58.54 86.02 C 54.86 84.69 50.85 84.34 47.33 82.61 C 46.18 81.40 45.43 79.88 44.56 78.46 C 44.05 78.23 43.03 77.78 42.51 77.55 C 41.65 75.22 40.61 72.96 39.34 70.83 C 39.47 69.69 39.60 68.55 39.69 67.41 Z" />
</g>
<g id="#b5b6b6ff">
<path fill="#b5b6b6" opacity="1.00" d=" M 48.01 68.00 C 47.42 67.38 47.42 67.38 48.01 68.00 Z" />
</g>
<g id="#c1c1c1ff">
<path fill="#c1c1c1" opacity="1.00" d=" M 48.01 68.00 C 48.62 68.60 48.62 68.60 48.01 68.00 Z" />
</g>
<g id="#e4d4bbff">
<path fill="#e4d4bb" opacity="1.00" d=" M 57.22 69.69 C 59.05 70.21 60.30 71.65 61.50 73.04 C 60.79 73.81 60.09 74.58 59.38 75.34 C 58.64 73.47 57.87 71.60 57.22 69.69 Z" />
</g>
<g id="#5b5581ff">
<path fill="#5b5581" opacity="1.00" d=" M 76.64 73.49 C 77.33 72.33 77.65 71.01 78.06 69.74 C 77.93 71.64 77.90 73.55 77.88 75.46 C 77.87 75.80 77.86 76.49 77.86 76.84 L 76.97 76.93 C 75.75 77.04 74.54 77.16 73.33 77.28 C 73.15 78.70 72.97 80.11 72.80 81.53 L 72.78 81.71 C 72.23 81.83 71.12 82.06 70.57 82.18 C 66.90 83.63 63.43 85.59 59.51 86.30 C 59.74 85.54 60.20 84.02 60.43 83.26 C 62.02 82.43 63.89 82.58 65.62 82.32 C 69.86 80.13 73.14 76.64 76.64 73.49 Z" />
</g>
<g id="#e6d7bdff">
<path fill="#e6d7bd" opacity="1.00" d=" M 44.91 74.68 C 44.72 72.45 45.49 70.60 48.03 70.78 C 48.04 72.58 48.04 74.38 48.03 76.19 C 46.99 75.68 45.95 75.18 44.91 74.68 Z" />
</g>
<g id="#242435ff">
<path fill="#242435" opacity="1.00" d=" M 73.33 77.28 C 74.54 77.16 75.75 77.04 76.97 76.93 C 76.97 77.52 76.97 78.70 76.97 79.29 C 76.00 78.85 75.03 78.41 74.06 77.97 C 74.26 79.44 73.84 80.62 72.80 81.53 C 72.97 80.11 73.15 78.70 73.33 77.28 Z" />
</g>
<g id="#d7c8afff">
<path fill="#d7c8af" opacity="1.00" d=" M 63.94 86.70 C 65.26 84.62 67.85 85.03 69.96 85.03 C 72.10 85.03 73.25 88.14 71.22 89.29 C 70.99 88.63 70.53 87.30 70.30 86.64 C 70.29 87.27 70.28 88.54 70.28 89.18 C 68.06 89.07 64.49 89.68 63.94 86.70 Z" />
</g>
</svg>
