<?xml version="1.0" encoding="UTF-8" ?>
<!DOCTYPE svg PUBLIC "-//W3C//DTD SVG 1.1//EN" "http://www.w3.org/Graphics/SVG/1.1/DTD/svg11.dtd">
<svg width="120pt" height="120pt" viewBox="0 0 120 120" version="1.1" xmlns="http://www.w3.org/2000/svg">
<g id="#30272df1">
<path fill="#30272d" opacity="0.95" d=" M 51.24 18.19 C 52.94 19.13 55.12 19.50 56.70 18.09 C 57.27 19.79 58.76 18.39 59.77 18.23 C 60.41 18.87 61.03 19.53 61.63 20.21 C 61.93 19.85 62.51 19.11 62.81 18.75 L 63.16 20.28 C 64.11 19.42 65.06 18.56 66.03 17.72 C 66.01 18.32 65.98 19.51 65.97 20.11 C 65.74 20.22 65.29 20.46 65.06 20.58 C 60.83 21.44 56.68 19.01 52.43 20.34 C 52.38 20.79 52.28 21.69 52.23 22.14 L 52.11 23.06 C 47.84 22.70 43.62 23.56 39.54 24.76 C 37.30 25.33 35.04 25.78 32.80 26.34 L 32.36 26.45 L 32.02 26.74 C 27.69 28.20 24.01 30.96 20.19 33.38 C 25.00 33.75 29.84 33.22 34.63 32.75 C 36.13 33.12 37.66 33.07 38.99 32.20 C 38.70 32.65 38.10 33.56 37.80 34.01 C 34.42 34.17 30.94 33.55 27.64 34.50 L 27.54 34.51 C 25.64 34.41 23.79 34.86 21.92 35.14 C 20.38 34.98 18.79 34.00 17.31 34.98 C 19.78 36.06 22.40 36.82 25.11 36.83 L 24.98 38.06 C 21.80 38.40 18.89 36.88 15.75 36.85 C 17.45 31.57 23.45 30.44 27.34 27.34 C 34.96 24.50 43.03 22.17 51.20 21.96 C 50.87 20.74 49.23 18.84 51.24 18.19 Z" />
</g>
<g id="#fff09cff">
<path fill="#fff09c" opacity="1.00" d=" M 52.43 20.34 C 56.68 19.01 60.83 21.44 65.06 20.58 C 66.06 21.17 66.86 21.98 67.45 22.99 C 62.41 21.08 57.05 24.78 52.23 22.14 C 52.28 21.69 52.38 20.79 52.43 20.34 Z" />
</g>
<g id="#5c4036ff">
<path fill="#5c4036" opacity="1.00" d=" M 65.06 20.58 C 65.29 20.46 65.74 20.22 65.97 20.11 C 66.45 19.95 67.42 19.65 67.90 19.50 C 67.37 21.73 69.01 22.76 70.17 24.22 L 70.02 24.50 C 68.18 24.27 66.33 24.10 64.48 23.97 C 64.01 23.80 63.07 23.45 62.60 23.28 L 62.54 23.26 C 62.51 23.27 62.43 23.28 62.40 23.28 C 60.57 23.56 58.76 23.90 56.95 24.23 C 56.97 25.42 57.00 26.61 57.05 27.80 C 57.69 29.56 58.49 31.25 59.27 32.95 C 66.77 34.61 74.44 33.99 82.05 34.00 C 81.59 32.91 81.12 31.82 80.65 30.74 L 81.99 31.15 C 82.55 32.24 83.08 33.33 83.59 34.44 C 80.61 34.89 77.60 35.13 74.60 35.48 L 73.74 35.42 C 72.14 35.22 70.55 34.92 68.93 35.06 L 67.92 35.07 C 64.73 35.07 61.59 34.39 58.56 33.45 L 57.78 33.21 C 56.70 30.40 55.85 27.51 54.85 24.67 C 52.34 26.69 51.69 29.87 50.94 32.83 C 50.31 34.78 50.22 36.83 50.75 38.83 C 51.48 37.95 52.22 37.08 52.94 36.20 C 52.82 36.75 52.59 37.86 52.47 38.41 C 51.64 38.79 50.81 39.16 49.98 39.54 L 49.12 39.92 C 45.31 40.28 41.50 39.88 37.87 38.63 C 38.29 36.86 38.48 34.72 40.33 33.80 C 39.91 35.15 39.52 36.51 39.13 37.88 C 42.31 38.88 45.63 39.25 48.96 39.15 C 48.98 37.61 49.00 36.07 49.02 34.53 C 49.27 33.92 49.78 32.71 50.04 32.11 C 50.31 30.41 50.60 28.71 50.86 27.01 C 49.75 27.66 48.66 28.34 47.60 29.05 L 47.40 29.17 C 46.18 28.23 44.66 28.01 43.20 27.75 C 43.82 27.33 44.45 26.93 45.10 26.56 C 46.09 26.27 47.04 25.89 47.95 25.42 C 49.52 24.99 51.95 25.25 52.11 23.06 L 52.23 22.14 C 57.05 24.78 62.41 21.08 67.45 22.99 C 66.86 21.98 66.06 21.17 65.06 20.58 Z" />
</g>
<g id="#fb788fff">
<path fill="#fb788f" opacity="1.00" d=" M 39.54 24.76 C 43.62 23.56 47.84 22.70 52.11 23.06 C 51.95 25.25 49.52 24.99 47.95 25.42 C 46.07 24.86 44.03 24.48 42.16 25.28 C 43.02 25.97 44.00 26.40 45.10 26.56 C 44.45 26.93 43.82 27.33 43.20 27.75 C 41.80 29.24 40.49 30.81 38.99 32.20 C 37.66 33.07 36.13 33.12 34.63 32.75 C 29.84 33.22 25.00 33.75 20.19 33.38 C 24.01 30.96 27.69 28.20 32.02 26.74 C 31.57 27.36 30.67 28.58 30.22 29.20 C 33.70 28.68 37.23 27.58 39.54 24.76 Z" />
</g>
<g id="#fbeaedff">
<path fill="#fbeaed" opacity="1.00" d=" M 62.40 23.28 C 62.43 23.28 62.51 23.27 62.54 23.26 L 62.60 23.28 L 62.40 23.28 Z" />
</g>
<g id="#ff95aaff">
<path fill="#ff95aa" opacity="1.00" d=" M 56.95 24.23 C 58.76 23.90 60.57 23.56 62.40 23.28 L 62.60 23.28 C 63.07 23.45 64.01 23.80 64.48 23.97 C 66.82 25.07 69.45 24.98 71.97 25.12 C 73.26 26.19 74.78 26.91 76.24 27.72 C 76.17 28.23 76.03 29.24 75.96 29.75 C 74.96 29.20 73.97 28.64 72.97 28.09 C 72.43 28.56 71.90 29.03 71.36 29.51 C 71.08 29.19 70.51 28.57 70.22 28.26 C 69.21 28.51 68.19 28.76 67.17 29.02 C 67.14 28.24 67.07 26.67 67.03 25.89 C 64.16 25.64 61.54 26.65 59.14 28.12 L 58.35 27.51 C 58.02 27.58 57.37 27.73 57.05 27.80 C 57.00 26.61 56.97 25.42 56.95 24.23 Z" />
</g>
<g id="#fff4f8ff">
<path fill="#fff4f8" opacity="1.00" d=" M 64.48 23.97 C 66.33 24.10 68.18 24.27 70.02 24.50 L 70.17 24.22 C 72.69 24.34 75.22 24.43 77.73 24.67 C 79.42 26.08 81.66 25.47 83.67 25.72 C 85.42 26.36 86.95 27.58 88.84 27.77 L 88.26 28.14 C 87.91 28.01 87.21 27.77 86.86 27.64 C 86.22 27.66 84.93 27.71 84.28 27.73 C 83.70 27.04 83.12 26.36 82.55 25.68 C 81.61 25.81 79.74 26.09 78.81 26.23 C 76.64 25.24 74.35 24.23 71.97 25.12 C 69.45 24.98 66.82 25.07 64.48 23.97 Z" />
<path fill="#fff4f8" opacity="1.00" d=" M 59.14 28.12 C 61.54 26.65 64.16 25.64 67.03 25.89 C 67.07 26.67 67.14 28.24 67.17 29.02 C 64.52 29.90 61.26 30.43 59.14 28.12 Z" />
<path fill="#fff4f8" opacity="1.00" d=" M 92.26 30.74 C 92.74 31.10 93.69 31.82 94.17 32.19 L 93.86 32.99 C 92.41 32.84 91.88 32.09 92.26 30.74 Z" />
<path fill="#fff4f8" opacity="1.00" d=" M 88.82 98.87 C 89.09 98.62 89.63 98.12 89.90 97.87 C 91.12 98.11 92.78 99.55 91.81 100.86 C 90.44 101.77 89.07 100.10 88.82 98.87 Z" />
</g>
<g id="#ffe6ebff">
<path fill="#ffe6eb" opacity="1.00" d=" M 32.80 26.34 C 35.04 25.78 37.30 25.33 39.54 24.76 C 37.23 27.58 33.70 28.68 30.22 29.20 C 30.67 28.58 31.57 27.36 32.02 26.74 C 32.22 26.64 32.60 26.44 32.80 26.34 Z" />
</g>
<g id="#fcedf0ff">
<path fill="#fcedf0" opacity="1.00" d=" M 42.16 25.28 C 44.03 24.48 46.07 24.86 47.95 25.42 C 47.04 25.89 46.09 26.27 45.10 26.56 C 44.00 26.40 43.02 25.97 42.16 25.28 Z" />
</g>
<g id="#998524ff">
<path fill="#998524" opacity="1.00" d=" M 50.94 32.83 C 51.69 29.87 52.34 26.69 54.85 24.67 C 55.85 27.51 56.70 30.40 57.78 33.21 C 55.57 32.47 53.23 32.62 50.94 32.83 Z" />
</g>
<g id="#6a3c44ff">
<path fill="#6a3c44" opacity="1.00" d=" M 71.97 25.12 C 74.35 24.23 76.64 25.24 78.81 26.23 C 79.29 26.86 79.85 27.42 80.47 27.92 C 80.31 28.45 79.99 29.51 79.83 30.04 C 78.71 29.15 77.50 28.38 76.24 27.72 C 74.78 26.91 73.26 26.19 71.97 25.12 Z" />
</g>
<g id="#fd8499ff">
<path fill="#fd8499" opacity="1.00" d=" M 32.36 26.45 L 32.80 26.34 C 32.60 26.44 32.22 26.64 32.02 26.74 L 32.36 26.45 Z" />
</g>
<g id="#b6656eff">
<path fill="#b6656e" opacity="1.00" d=" M 78.81 26.23 C 79.74 26.09 81.61 25.81 82.55 25.68 C 83.12 26.36 83.70 27.04 84.28 27.73 C 84.93 27.71 86.22 27.66 86.86 27.64 C 87.21 27.77 87.91 28.01 88.26 28.14 C 89.60 29.00 90.91 29.90 92.26 30.74 C 89.13 31.07 86.33 29.27 83.37 28.54 C 82.96 28.28 82.16 27.75 81.76 27.48 C 81.44 27.59 80.79 27.81 80.47 27.92 C 79.85 27.42 79.29 26.86 78.81 26.23 Z" />
<path fill="#b6656e" opacity="1.00" d=" M 83.59 34.44 C 85.56 34.60 87.53 34.74 89.50 34.85 C 91.10 36.15 92.25 37.84 92.25 39.97 C 87.58 40.09 82.84 40.66 78.22 39.85 C 76.84 38.55 75.81 36.94 74.60 35.48 C 77.60 35.13 80.61 34.89 83.59 34.44 Z" />
<path fill="#b6656e" opacity="1.00" d=" M 60.73 73.18 C 61.27 72.80 62.35 72.02 62.88 71.64 C 64.11 71.90 64.81 72.62 64.97 73.81 C 63.60 74.24 61.75 74.43 60.73 73.18 Z" />
</g>
<g id="#b8656fff">
<path fill="#b8656f" opacity="1.00" d=" M 50.86 27.01 C 50.60 28.71 50.31 30.41 50.04 32.11 C 48.34 31.42 47.54 33.72 49.02 34.53 C 49.00 36.07 48.98 37.61 48.96 39.15 C 45.63 39.25 42.31 38.88 39.13 37.88 C 39.52 36.51 39.91 35.15 40.33 33.80 C 41.11 31.07 43.79 30.18 45.73 28.46 L 47.40 29.17 C 47.40 29.17 47.41 29.17 47.41 29.17 L 47.60 29.05 C 48.66 28.34 49.75 27.66 50.86 27.01 Z" />
</g>
<g id="#ff7d96ff">
<path fill="#ff7d96" opacity="1.00" d=" M 57.05 27.80 C 57.37 27.73 58.02 27.58 58.35 27.51 L 59.14 28.12 C 61.26 30.43 64.52 29.90 67.17 29.02 C 68.19 28.76 69.21 28.51 70.22 28.26 C 70.51 28.57 71.08 29.19 71.36 29.51 C 71.90 29.03 72.43 28.56 72.97 28.09 C 73.97 28.64 74.96 29.20 75.96 29.75 C 76.03 29.24 76.17 28.23 76.24 27.72 C 77.50 28.38 78.71 29.15 79.83 30.04 C 80.03 30.21 80.44 30.56 80.65 30.74 C 81.12 31.82 81.59 32.91 82.05 34.00 C 74.44 33.99 66.77 34.61 59.27 32.95 C 58.49 31.25 57.69 29.56 57.05 27.80 Z" />
<path fill="#ff7d96" opacity="1.00" d=" M 17.31 34.98 C 18.79 34.00 20.38 34.98 21.92 35.14 C 23.79 34.86 25.64 34.41 27.54 34.51 C 26.79 35.34 25.98 36.12 25.11 36.83 C 22.40 36.82 19.78 36.06 17.31 34.98 Z" />
</g>
<g id="#35242bfc">
<path fill="#35242b" opacity="1.00" d=" M 80.47 27.92 C 80.79 27.81 81.44 27.59 81.76 27.48 C 82.16 27.75 82.96 28.28 83.37 28.54 C 86.33 29.27 89.13 31.07 92.26 30.74 C 91.88 32.09 92.41 32.84 93.86 32.99 C 94.48 33.29 95.71 33.87 96.33 34.16 L 96.56 34.45 L 96.78 34.45 C 96.79 35.11 96.81 36.41 96.83 37.06 C 94.28 35.04 91.90 32.32 88.54 31.81 C 90.66 34.29 93.36 36.41 94.23 39.71 C 88.91 42.16 82.89 40.53 77.24 40.98 C 75.75 39.35 74.58 37.47 73.74 35.42 L 74.60 35.48 C 75.81 36.94 76.84 38.55 78.22 39.85 C 82.84 40.66 87.58 40.09 92.25 39.97 C 92.25 37.84 91.10 36.15 89.50 34.85 C 87.38 32.96 84.77 31.73 81.99 31.15 L 80.65 30.74 C 80.44 30.56 80.03 30.21 79.83 30.04 C 79.99 29.51 80.31 28.45 80.47 27.92 M 87.28 31.30 C 87.83 31.87 87.83 31.87 87.28 31.30 Z" />
</g>
<g id="#201e27e8">
<path fill="#201e27" opacity="0.91" d=" M 88.26 28.14 C 91.79 27.94 94.94 30.30 97.29 32.73 C 98.88 34.48 101.02 35.85 101.92 38.13 C 100.29 36.79 98.55 35.60 96.78 34.45 C 96.67 34.38 96.44 34.23 96.33 34.16 C 96.18 32.81 95.46 32.15 94.17 32.19 C 93.69 31.82 92.74 31.10 92.26 30.74 C 90.91 29.90 89.60 29.00 88.26 28.14 Z" />
</g>
<g id="#bab4acff">
<path fill="#bab4ac" opacity="1.00" d=" M 47.40 29.17 L 47.60 29.05 L 47.41 29.17 C 47.41 29.17 47.40 29.17 47.40 29.17 Z" />
</g>
<g id="#b09e99ff">
<path fill="#b09e99" opacity="1.00" d=" M 81.99 31.15 C 84.77 31.73 87.38 32.96 89.50 34.85 C 87.53 34.74 85.56 34.60 83.59 34.44 C 83.08 33.33 82.55 32.24 81.99 31.15 Z" />
</g>
<g id="#1a9bdbff">
<path fill="#1a9bdb" opacity="1.00" d=" M 87.28 31.30 C 87.83 31.87 87.83 31.87 87.28 31.30 Z" />
</g>
<g id="#bac0b5ff">
<path fill="#bac0b5" opacity="1.00" d=" M 49.02 34.53 C 47.54 33.72 48.34 31.42 50.04 32.11 C 49.78 32.71 49.27 33.92 49.02 34.53 Z" />
</g>
<g id="#c1a942ff">
<path fill="#c1a942" opacity="1.00" d=" M 50.94 32.83 C 53.23 32.62 55.57 32.47 57.78 33.21 L 58.56 33.45 C 61.59 34.39 64.73 35.07 67.92 35.07 C 67.77 38.45 68.22 42.02 66.54 45.11 C 66.01 44.79 64.96 44.15 64.44 43.83 C 64.76 41.66 65.10 39.10 62.77 37.94 C 62.12 38.99 61.48 40.03 60.84 41.08 C 60.48 40.47 59.76 39.25 59.40 38.65 L 59.34 38.54 L 59.24 38.50 C 58.66 38.30 57.51 37.88 56.93 37.67 C 57.78 37.13 58.62 36.57 59.44 36.00 C 58.01 35.98 56.57 35.96 55.14 35.95 C 54.69 37.02 54.25 38.10 53.82 39.18 L 54.73 38.81 C 54.15 39.60 53.57 40.40 53.00 41.21 C 53.21 41.70 53.63 42.68 53.84 43.17 C 52.57 43.57 51.30 43.98 50.05 44.42 C 50.04 42.79 50.02 41.17 49.98 39.54 C 50.81 39.16 51.64 38.79 52.47 38.41 C 52.59 37.86 52.82 36.75 52.94 36.20 C 52.22 37.08 51.48 37.95 50.75 38.83 C 50.22 36.83 50.31 34.78 50.94 32.83 Z" />
</g>
<g id="#b15f6eff">
<path fill="#b15f6e" opacity="1.00" d=" M 94.17 32.19 C 95.46 32.15 96.18 32.81 96.33 34.16 C 95.71 33.87 94.48 33.29 93.86 32.99 L 94.17 32.19 Z" />
</g>
<g id="#ee7389ff">
<path fill="#ee7389" opacity="1.00" d=" M 96.33 34.16 C 96.44 34.23 96.67 34.38 96.78 34.45 L 96.56 34.45 L 96.33 34.16 Z" />
</g>
<g id="#5a4e18ff">
<path fill="#5a4e18" opacity="1.00" d=" M 67.92 35.07 L 68.93 35.06 C 69.65 39.69 67.81 44.00 67.79 48.57 L 66.51 48.57 C 62.75 47.91 58.99 47.17 55.34 46.04 C 54.29 45.71 53.24 45.38 52.19 45.05 C 51.64 45.23 50.54 45.60 49.99 45.79 C 50.00 45.44 50.03 44.76 50.05 44.42 C 51.30 43.98 52.57 43.57 53.84 43.17 C 54.16 43.08 54.79 42.88 55.11 42.79 C 56.48 42.59 57.86 42.53 59.24 42.51 C 57.91 43.25 56.43 43.53 54.95 43.76 L 55.02 44.50 C 57.83 45.01 60.55 45.86 63.27 46.67 C 64.46 46.85 65.64 47.00 66.83 47.13 C 66.76 46.62 66.61 45.62 66.54 45.11 C 68.22 42.02 67.77 38.45 67.92 35.07 Z" />
</g>
<g id="#6b353eff">
<path fill="#6b353e" opacity="1.00" d=" M 96.78 34.45 C 98.55 35.60 100.29 36.79 101.92 38.13 L 102.41 38.95 C 101.83 38.92 100.67 38.85 100.09 38.82 C 99.83 37.65 99.15 37.07 98.06 37.08 L 96.83 37.06 C 96.81 36.41 96.79 35.11 96.78 34.45 Z" />
</g>
<g id="#9d8119ff">
<path fill="#9d8119" opacity="1.00" d=" M 55.14 35.95 C 56.57 35.96 58.01 35.98 59.44 36.00 C 58.62 36.57 57.78 37.13 56.93 37.67 C 56.38 37.95 55.28 38.52 54.73 38.81 L 53.82 39.18 C 54.25 38.10 54.69 37.02 55.14 35.95 Z" />
</g>
<g id="#021017aa">
<path fill="#021017" opacity="0.67" d=" M 98.06 37.08 C 99.15 37.07 99.83 37.65 100.09 38.82 C 98.51 39.27 97.83 38.69 98.06 37.08 Z" />
</g>
<g id="#dfc14bff">
<path fill="#dfc14b" opacity="1.00" d=" M 54.73 38.81 C 55.28 38.52 56.38 37.95 56.93 37.67 C 57.51 37.88 58.66 38.30 59.24 38.50 C 59.28 38.54 59.36 38.61 59.40 38.65 C 59.76 39.25 60.48 40.47 60.84 41.08 C 61.48 40.03 62.12 38.99 62.77 37.94 C 65.10 39.10 64.76 41.66 64.44 43.83 C 62.56 43.54 59.75 42.18 59.19 44.94 C 59.85 44.80 61.18 44.53 61.85 44.39 C 62.32 45.15 62.80 45.91 63.27 46.67 C 60.55 45.86 57.83 45.01 55.02 44.50 L 54.95 43.76 C 56.43 43.53 57.91 43.25 59.24 42.51 C 57.86 42.53 56.48 42.59 55.11 42.79 C 54.79 42.88 54.16 43.08 53.84 43.17 C 53.63 42.68 53.21 41.70 53.00 41.21 C 53.57 40.40 54.15 39.60 54.73 38.81 Z" />
</g>
<g id="#8f7107ff">
<path fill="#8f7107" opacity="1.00" d=" M 59.24 38.50 L 59.34 38.54 L 59.40 38.65 C 59.36 38.61 59.28 38.54 59.24 38.50 Z" />
</g>
<g id="#152e2ff7">
<path fill="#152e2f" opacity="0.97" d=" M 49.12 39.92 L 49.98 39.54 C 50.02 41.17 50.04 42.79 50.05 44.42 C 50.03 44.76 50.00 45.44 49.99 45.79 C 49.63 45.90 48.90 46.11 48.54 46.22 C 42.64 47.08 36.67 47.76 31.02 49.77 C 30.79 49.41 30.34 48.68 30.11 48.31 C 26.62 48.66 23.37 50.24 20.29 51.83 L 20.01 51.96 C 18.28 51.55 16.48 52.21 15.78 53.92 L 14.91 53.97 C 14.40 54.02 13.39 54.14 12.89 54.19 C 13.62 52.79 15.26 52.34 16.59 51.71 C 22.25 49.76 27.72 46.48 33.91 46.91 C 34.30 46.70 35.09 46.29 35.48 46.08 C 40.01 45.95 44.62 46.40 48.97 44.78 C 48.98 43.16 48.96 41.53 49.12 39.92 Z" />
</g>
<g id="#a48b28ff">
<path fill="#a48b28" opacity="1.00" d=" M 59.19 44.94 C 59.75 42.18 62.56 43.54 64.44 43.83 C 64.96 44.15 66.01 44.79 66.54 45.11 C 66.61 45.62 66.76 46.62 66.83 47.13 C 65.64 47.00 64.46 46.85 63.27 46.67 C 62.80 45.91 62.32 45.15 61.85 44.39 C 61.18 44.53 59.85 44.80 59.19 44.94 Z" />
</g>
<g id="#5eb173ff">
<path fill="#5eb173" opacity="1.00" d=" M 49.99 45.79 C 50.54 45.60 51.64 45.23 52.19 45.05 C 53.24 45.38 54.29 45.71 55.34 46.04 C 54.52 46.60 53.70 47.15 52.88 47.71 C 52.10 47.58 51.33 47.45 50.55 47.32 C 49.96 48.25 49.37 49.18 48.79 50.11 C 48.52 49.84 47.98 49.30 47.71 49.03 C 47.12 50.52 46.46 51.99 45.61 53.35 C 45.71 51.73 45.90 50.11 46.12 48.50 C 46.93 47.74 47.73 46.98 48.54 46.22 C 48.90 46.11 49.63 45.90 49.99 45.79 Z" />
</g>
<g id="#82d997ff">
<path fill="#82d997" opacity="1.00" d=" M 31.02 49.77 C 36.67 47.76 42.64 47.08 48.54 46.22 C 47.73 46.98 46.93 47.74 46.12 48.50 C 45.90 50.11 45.71 51.73 45.61 53.35 C 46.46 51.99 47.12 50.52 47.71 49.03 C 47.98 49.30 48.52 49.84 48.79 50.11 C 49.37 49.18 49.96 48.25 50.55 47.32 C 51.33 47.45 52.10 47.58 52.88 47.71 C 53.70 47.15 54.52 46.60 55.34 46.04 C 58.99 47.17 62.75 47.91 66.51 48.57 C 67.92 48.84 69.35 49.03 70.79 49.00 C 70.78 49.50 70.77 50.48 70.76 50.98 C 68.77 50.96 66.77 50.94 64.79 51.20 C 66.25 52.17 67.74 53.12 69.22 54.08 C 66.61 53.80 64.10 53.02 61.75 51.87 C 60.08 54.18 63.22 55.41 64.38 56.99 C 61.84 56.42 59.31 54.28 56.73 55.83 C 57.54 57.02 58.34 58.22 59.13 59.43 C 56.96 58.94 54.95 58.00 53.04 56.88 C 52.74 57.40 52.14 58.43 51.84 58.95 C 52.15 59.61 52.75 60.93 53.06 61.59 C 50.56 62.31 48.92 60.21 47.10 58.93 C 45.02 60.45 48.70 64.57 45.15 64.43 C 44.28 63.29 43.52 62.08 42.75 60.88 C 41.30 62.03 39.86 63.19 38.34 64.24 C 37.92 63.96 37.09 63.40 36.67 63.11 L 37.36 62.26 C 38.11 61.21 38.76 60.10 39.42 58.99 C 37.16 60.00 34.90 61.02 32.57 61.85 C 33.61 60.05 34.85 58.37 36.17 56.77 C 34.03 57.45 31.89 58.13 29.76 58.83 C 30.28 57.60 30.79 56.37 31.31 55.14 C 29.15 56.13 26.80 56.45 25.46 54.06 C 26.61 54.43 27.76 54.81 28.90 55.21 C 28.38 53.12 29.18 51.21 30.32 49.50 C 28.84 49.68 27.35 49.87 25.88 50.09 L 25.98 51.13 C 24.09 51.44 22.19 51.63 20.29 51.83 C 23.37 50.24 26.62 48.66 30.11 48.31 C 30.34 48.68 30.79 49.41 31.02 49.77 M 30.27 53.30 C 30.82 53.86 30.82 53.86 30.27 53.30 M 32.24 55.26 C 32.85 55.75 32.85 55.75 32.24 55.26 Z" />
<path fill="#82d997" opacity="1.00" d=" M 15.78 53.92 C 16.48 52.21 18.28 51.55 20.01 51.96 C 19.19 53.51 17.47 54.15 15.78 53.92 Z" />
</g>
<g id="#5e9badff">
<path fill="#5e9bad" opacity="1.00" d=" M 71.57 47.37 C 75.29 47.42 79.02 47.48 82.74 47.30 L 82.65 48.50 C 84.66 48.43 86.67 48.38 88.69 48.29 L 88.76 49.45 C 89.98 49.42 91.20 49.41 92.42 49.41 C 92.99 49.70 94.13 50.27 94.70 50.56 L 94.81 51.45 C 95.46 51.44 96.74 51.42 97.39 51.41 C 105.17 55.59 112.86 60.80 117.17 68.77 C 116.46 68.74 115.05 68.68 114.34 68.65 C 113.98 68.22 113.26 67.36 112.90 66.94 C 111.14 66.63 110.05 65.22 108.95 63.97 C 107.12 63.17 104.74 62.77 104.04 60.60 C 102.84 60.62 101.64 60.65 100.45 60.67 C 99.14 59.47 98.04 57.60 96.23 57.24 C 93.83 58.23 91.11 56.87 89.95 54.67 C 88.42 54.65 86.88 54.64 85.34 54.63 C 85.11 56.86 86.72 58.12 88.67 58.59 C 89.49 59.41 90.31 60.25 91.13 61.08 C 93.19 61.55 94.96 63.14 94.93 65.39 C 95.55 65.40 96.80 65.42 97.43 65.42 C 102.26 67.29 105.80 71.34 107.67 76.08 C 107.85 78.34 107.74 80.60 107.74 82.86 L 106.76 83.02 C 107.12 79.90 107.30 76.56 105.16 73.99 C 103.29 70.27 99.92 67.79 96.11 66.30 C 98.36 70.41 101.21 74.46 101.42 79.31 C 101.20 83.25 99.88 87.00 99.22 90.87 C 100.96 90.54 102.71 90.20 104.45 89.87 C 105.95 91.51 105.72 93.79 105.93 95.84 C 104.15 96.04 101.75 94.92 100.52 96.74 C 99.23 96.74 97.93 96.73 96.64 96.70 C 96.70 97.50 96.82 99.10 96.87 99.90 C 95.39 100.47 93.76 100.77 92.48 101.77 C 91.26 101.54 89.39 102.34 88.89 100.68 C 86.31 99.97 82.75 103.54 80.97 100.75 C 79.05 100.77 77.13 100.80 75.21 100.82 C 75.27 100.25 75.41 99.13 75.48 98.56 C 75.75 97.94 76.29 96.71 76.56 96.09 L 76.85 96.20 C 77.34 96.39 78.32 96.76 78.81 96.94 C 79.27 97.93 79.73 98.91 80.19 99.90 C 81.62 98.05 83.49 96.63 85.95 96.73 C 86.02 97.62 86.15 99.39 86.22 100.28 C 87.10 99.82 87.97 99.36 88.82 98.87 C 89.07 100.10 90.44 101.77 91.81 100.86 C 92.78 99.55 91.12 98.11 89.90 97.87 C 91.74 95.47 92.94 98.67 93.83 100.13 C 96.98 98.98 95.64 94.67 96.84 92.10 C 96.37 92.35 95.42 92.86 94.95 93.11 C 94.93 92.58 94.89 91.53 94.87 91.00 C 95.55 90.91 96.91 90.72 97.59 90.63 C 98.55 86.47 100.15 82.33 99.85 77.99 C 99.04 74.55 97.17 71.44 95.09 68.62 L 95.04 70.28 L 94.64 69.36 C 94.53 67.38 94.32 65.36 93.11 63.70 C 89.15 60.43 84.75 57.74 80.11 55.55 C 79.05 57.23 78.48 59.16 77.85 61.02 C 77.43 60.85 76.58 60.49 76.16 60.32 C 76.61 59.20 77.06 58.08 77.49 56.95 C 77.67 56.49 78.02 55.58 78.20 55.12 C 78.41 54.58 78.83 53.50 79.05 52.96 C 75.83 52.04 71.05 50.86 69.59 54.92 C 68.55 55.01 67.51 55.09 66.47 55.18 C 65.98 56.14 65.49 57.10 64.99 58.06 C 64.21 58.11 62.65 58.21 61.87 58.26 C 61.43 57.98 60.56 57.43 60.12 57.15 C 60.11 57.87 60.08 59.30 60.06 60.01 C 57.94 61.34 55.80 61.13 54.23 59.12 C 53.97 60.47 54.20 62.18 52.83 63.02 C 51.17 63.37 49.55 62.76 47.96 62.37 C 47.99 63.01 48.04 64.30 48.06 64.95 C 46.74 65.41 45.41 65.87 44.08 66.32 C 43.51 65.17 42.95 64.02 42.38 62.87 C 40.71 64.17 39.02 65.45 37.27 66.65 C 37.09 68.20 36.91 69.76 36.79 71.33 C 36.48 69.67 36.15 68.01 35.83 66.36 C 35.17 65.62 34.51 64.87 33.85 64.13 C 34.79 63.79 35.73 63.45 36.67 63.11 C 37.09 63.40 37.92 63.96 38.34 64.24 C 39.86 63.19 41.30 62.03 42.75 60.88 C 43.52 62.08 44.28 63.29 45.15 64.43 C 48.70 64.57 45.02 60.45 47.10 58.93 C 48.92 60.21 50.56 62.31 53.06 61.59 C 52.75 60.93 52.15 59.61 51.84 58.95 C 52.14 58.43 52.74 57.40 53.04 56.88 C 54.95 58.00 56.96 58.94 59.13 59.43 C 58.34 58.22 57.54 57.02 56.73 55.83 C 59.31 54.28 61.84 56.42 64.38 56.99 C 63.22 55.41 60.08 54.18 61.75 51.87 C 64.10 53.02 66.61 53.80 69.22 54.08 C 67.74 53.12 66.25 52.17 64.79 51.20 C 66.77 50.94 68.77 50.96 70.76 50.98 C 74.81 50.31 78.70 52.50 82.69 51.50 C 82.51 52.72 82.34 53.93 82.17 55.15 C 84.68 54.62 87.18 54.08 89.69 53.54 C 90.96 54.55 92.06 55.88 93.62 56.44 C 95.20 56.51 96.76 56.20 98.33 56.06 C 99.18 58.45 101.22 60.19 103.84 59.76 C 107.18 62.09 110.44 64.60 114.20 66.24 C 108.16 57.65 98.44 51.95 88.31 49.59 C 82.55 48.62 76.55 47.36 70.79 49.00 C 69.35 49.03 67.92 48.84 66.51 48.57 L 67.79 48.57 C 69.39 48.85 70.65 48.45 71.57 47.37 M 97.68 93.80 C 97.22 95.45 97.79 95.99 99.39 95.41 C 99.85 93.75 99.28 93.21 97.68 93.80 M 103.28 93.80 C 103.51 97.26 106.08 92.13 103.28 93.80 M 77.32 98.13 C 75.92 98.88 75.82 99.58 77.01 100.21 C 78.40 99.48 78.50 98.79 77.32 98.13 M 82.70 98.71 C 80.84 100.01 83.32 102.12 84.66 100.67 C 86.12 99.31 84.00 96.78 82.70 98.71 Z" />
</g>
<g id="#6eb181ff">
<path fill="#6eb181" opacity="1.00" d=" M 70.79 49.00 C 76.55 47.36 82.55 48.62 88.31 49.59 C 98.44 51.95 108.16 57.65 114.20 66.24 C 110.44 64.60 107.18 62.09 103.84 59.76 C 101.22 60.19 99.18 58.45 98.33 56.06 C 96.76 56.20 95.20 56.51 93.62 56.44 C 92.06 55.88 90.96 54.55 89.69 53.54 C 87.18 54.08 84.68 54.62 82.17 55.15 C 82.34 53.93 82.51 52.72 82.69 51.50 C 78.70 52.50 74.81 50.31 70.76 50.98 C 70.77 50.48 70.78 49.50 70.79 49.00 Z" />
</g>
<g id="#2e453cff">
<path fill="#2e453c" opacity="1.00" d=" M 25.88 50.09 C 27.35 49.87 28.84 49.68 30.32 49.50 C 29.18 51.21 28.38 53.12 28.90 55.21 C 27.76 54.81 26.61 54.43 25.46 54.06 C 26.80 56.45 29.15 56.13 31.31 55.14 C 30.79 56.37 30.28 57.60 29.76 58.83 C 31.89 58.13 34.03 57.45 36.17 56.77 C 34.85 58.37 33.61 60.05 32.57 61.85 C 34.90 61.02 37.16 60.00 39.42 58.99 C 38.76 60.10 38.11 61.21 37.36 62.26 C 37.17 61.92 36.80 61.25 36.61 60.91 C 35.39 61.67 34.18 62.42 32.97 63.18 C 32.51 62.86 31.59 62.22 31.13 61.90 C 31.76 60.79 32.38 59.68 32.99 58.56 C 31.73 59.32 30.50 60.12 29.29 60.96 C 28.60 59.43 27.85 57.93 26.98 56.49 C 27.18 58.02 27.42 59.54 27.69 61.05 C 27.02 61.04 25.67 61.03 24.99 61.02 C 25.74 59.90 26.06 58.61 26.26 57.30 C 25.59 56.91 24.26 56.15 23.59 55.76 C 23.00 56.89 22.40 58.01 21.78 59.12 C 20.10 59.10 18.42 58.94 17.05 57.86 C 17.50 57.15 17.96 56.45 18.44 55.75 C 18.72 56.34 19.30 57.51 19.59 58.10 C 22.17 57.44 23.42 54.63 25.21 52.86 C 20.91 52.80 17.17 55.06 13.15 56.19 C 9.15 57.44 4.93 59.71 3.59 63.98 C 6.89 63.23 10.47 62.28 12.34 59.18 C 13.66 59.64 14.98 60.11 16.30 60.59 C 15.01 60.81 13.71 60.99 12.41 61.17 C 9.60 63.73 5.91 65.52 2.03 65.03 C 2.07 64.37 2.16 63.06 2.20 62.40 C 4.44 58.48 8.45 56.34 12.14 54.02 L 12.89 54.19 C 13.78 55.48 14.45 55.41 14.91 53.97 L 15.78 53.92 C 17.47 54.15 19.19 53.51 20.01 51.96 L 20.29 51.83 C 22.19 51.63 24.09 51.44 25.98 51.13 C 24.89 53.43 28.94 53.09 27.44 51.14 C 27.05 50.87 26.27 50.35 25.88 50.09 Z" />
</g>
<g id="#91d9e3ff">
<path fill="#91d9e3" opacity="1.00" d=" M 25.88 50.09 C 26.27 50.35 27.05 50.87 27.44 51.14 C 28.94 53.09 24.89 53.43 25.98 51.13 Z" />
</g>
<g id="#90d8e2ff">
<path fill="#90d8e2" opacity="1.00" d=" M 69.59 54.92 C 71.05 50.86 75.83 52.04 79.05 52.96 C 78.83 53.50 78.41 54.58 78.20 55.12 C 77.63 54.94 76.48 54.58 75.91 54.40 C 73.76 56.03 71.43 57.42 68.89 58.36 C 70.09 59.16 71.29 59.97 72.40 60.89 C 75.02 63.61 77.16 67.12 77.01 71.02 C 75.82 76.03 71.59 80.58 66.07 80.00 C 65.83 79.44 65.34 78.32 65.10 77.76 L 64.79 77.03 L 65.81 76.87 C 68.64 76.39 69.32 73.41 70.15 71.14 C 70.57 70.02 71.05 68.92 71.41 67.78 C 68.82 64.12 65.78 60.55 61.87 58.26 C 62.65 58.21 64.21 58.11 64.99 58.06 C 65.49 57.10 65.98 56.14 66.47 55.18 C 67.51 55.09 68.55 55.01 69.59 54.92 Z" />
</g>
<g id="#638d79ff">
<path fill="#638d79" opacity="1.00" d=" M 13.15 56.19 C 17.17 55.06 20.91 52.80 25.21 52.86 C 23.42 54.63 22.17 57.44 19.59 58.10 C 19.30 57.51 18.72 56.34 18.44 55.75 C 17.96 56.45 17.50 57.15 17.05 57.86 C 16.86 58.55 16.49 59.91 16.30 60.59 C 14.98 60.11 13.66 59.64 12.34 59.18 C 10.47 62.28 6.89 63.23 3.59 63.98 C 4.93 59.71 9.15 57.44 13.15 56.19 Z" />
</g>
<g id="#283930ff">
<path fill="#283930" opacity="1.00" d=" M 30.27 53.30 C 30.82 53.86 30.82 53.86 30.27 53.30 Z" />
</g>
<g id="#689f7bff">
<path fill="#689f7b" opacity="1.00" d=" M 12.89 54.19 C 13.39 54.14 14.40 54.02 14.91 53.97 C 14.45 55.41 13.78 55.48 12.89 54.19 Z" />
</g>
<g id="#955861ff">
<path fill="#955861" opacity="1.00" d=" M 68.89 58.36 C 71.43 57.42 73.76 56.03 75.91 54.40 C 76.48 54.58 77.63 54.94 78.20 55.12 C 78.02 55.58 77.67 56.49 77.49 56.95 C 75.51 57.87 73.78 59.21 72.40 60.89 C 71.29 59.97 70.09 59.16 68.89 58.36 Z" />
</g>
<g id="#283931ff">
<path fill="#283931" opacity="1.00" d=" M 32.24 55.26 C 32.85 55.75 32.85 55.75 32.24 55.26 Z" />
</g>
<g id="#89cdd7ff">
<path fill="#89cdd7" opacity="1.00" d=" M 80.11 55.55 C 84.75 57.74 89.15 60.43 93.11 63.70 C 91.14 63.28 89.16 63.00 87.16 62.79 C 86.21 67.17 85.95 71.65 85.29 76.07 C 85.05 74.22 84.37 72.48 83.50 70.84 C 84.62 74.49 83.68 78.06 81.36 81.02 C 79.71 80.53 78.05 80.08 76.36 79.70 C 76.16 79.78 75.75 79.94 75.54 80.02 C 74.87 80.38 74.20 80.76 73.55 81.17 L 73.04 80.52 C 72.60 80.62 71.74 80.82 71.31 80.92 L 70.98 80.93 C 68.62 81.05 66.26 81.22 63.92 81.50 C 64.46 81.13 65.53 80.38 66.07 80.00 C 71.59 80.58 75.82 76.03 77.01 71.02 C 77.16 67.12 75.02 63.61 72.40 60.89 C 73.08 61.09 74.45 61.47 75.13 61.67 C 75.31 61.54 75.65 61.28 75.82 61.15 L 76.16 60.32 C 76.58 60.49 77.43 60.85 77.85 61.02 C 78.48 59.16 79.05 57.23 80.11 55.55 Z" />
</g>
<g id="#8aced7ff">
<path fill="#8aced7" opacity="1.00" d=" M 26.98 56.49 C 27.85 57.93 28.60 59.43 29.29 60.96 C 30.50 60.12 31.73 59.32 32.99 58.56 C 32.38 59.68 31.76 60.79 31.13 61.90 C 31.59 62.22 32.51 62.86 32.97 63.18 C 34.18 62.42 35.39 61.67 36.61 60.91 C 36.80 61.25 37.17 61.92 37.36 62.26 L 36.67 63.11 C 35.73 63.45 34.79 63.79 33.85 64.13 C 34.51 64.87 35.17 65.62 35.83 66.36 C 36.15 68.01 36.48 69.67 36.79 71.33 C 37.42 75.27 37.25 79.98 41.16 82.36 C 41.29 82.49 41.55 82.76 41.68 82.90 L 42.28 83.58 C 38.69 83.74 35.70 81.21 32.21 80.73 C 30.78 80.38 29.35 80.07 27.92 79.72 C 25.43 78.95 22.99 77.34 21.93 74.88 C 22.26 69.83 26.35 66.15 27.97 61.53 C 24.66 65.94 20.87 70.84 21.01 76.65 C 20.92 78.11 20.77 79.62 19.98 80.89 C 18.14 81.41 19.00 83.50 20.64 83.34 C 21.50 87.43 21.62 92.60 26.09 94.48 C 28.55 92.74 29.48 90.00 29.51 87.07 C 30.90 87.88 32.35 88.60 33.78 89.35 C 33.98 92.34 34.94 95.17 36.19 97.88 C 35.47 97.92 34.04 98.00 33.32 98.04 C 32.83 97.00 32.33 95.96 31.83 94.92 C 30.60 96.07 29.37 97.23 28.02 98.23 C 26.73 97.47 25.51 93.50 24.09 95.97 C 23.82 96.26 23.28 96.82 23.01 97.10 C 22.60 97.32 21.77 97.75 21.36 97.97 C 20.08 96.84 18.97 94.68 16.97 95.77 C 17.34 86.53 16.09 76.84 20.21 68.20 C 20.43 67.67 20.88 66.62 21.10 66.09 C 22.02 65.32 22.61 64.26 23.09 63.17 C 23.66 62.40 24.30 61.68 24.99 61.02 C 25.67 61.03 27.02 61.04 27.69 61.05 C 27.42 59.54 27.18 58.02 26.98 56.49 M 30.10 68.96 L 28.67 69.20 C 28.63 69.31 28.56 69.53 28.52 69.64 C 27.71 70.92 27.87 72.56 28.78 73.71 C 26.83 73.76 28.56 76.94 29.90 75.94 C 31.44 75.93 33.16 75.76 34.14 74.37 C 36.43 76.34 36.12 71.02 33.92 71.70 C 33.74 70.68 33.08 69.98 31.91 69.60 C 32.33 68.19 30.73 66.80 29.59 66.20 C 28.08 66.42 29.17 68.61 30.10 68.96 Z" />
</g>
<g id="#9ae6f1ff">
<path fill="#9ae6f1" opacity="1.00" d=" M 60.12 57.15 C 60.56 57.43 61.43 57.98 61.87 58.26 C 65.78 60.55 68.82 64.12 71.41 67.78 C 71.05 68.92 70.57 70.02 70.15 71.14 C 69.71 69.78 69.20 68.45 68.68 67.13 C 64.38 68.54 60.13 70.79 57.59 74.67 C 59.00 75.57 60.48 76.38 62.04 77.00 L 62.83 77.36 C 63.40 77.46 64.53 77.66 65.10 77.76 C 65.34 78.32 65.83 79.44 66.07 80.00 C 65.53 80.38 64.46 81.13 63.92 81.50 C 58.49 81.91 53.21 83.25 47.89 84.35 C 48.11 83.61 48.55 82.14 48.77 81.40 C 48.05 82.60 47.46 83.87 46.89 85.14 C 45.30 84.81 43.71 84.39 42.28 83.58 L 41.68 82.90 L 41.44 82.59 L 41.16 82.36 C 37.25 79.98 37.42 75.27 36.79 71.33 C 36.91 69.76 37.09 68.20 37.27 66.65 C 39.02 65.45 40.71 64.17 42.38 62.87 C 42.95 64.02 43.51 65.17 44.08 66.32 C 45.41 65.87 46.74 65.41 48.06 64.95 C 48.04 64.30 47.99 63.01 47.96 62.37 C 49.55 62.76 51.17 63.37 52.83 63.02 C 54.20 62.18 53.97 60.47 54.23 59.12 C 55.80 61.13 57.94 61.34 60.06 60.01 C 60.08 59.30 60.11 57.87 60.12 57.15 M 62.31 64.09 C 62.60 67.35 65.31 62.50 62.31 64.09 M 59.24 65.01 C 57.67 65.31 57.97 67.96 59.67 66.89 C 61.16 66.57 60.91 64.02 59.24 65.01 M 57.24 68.31 C 57.76 68.84 57.76 68.84 57.24 68.31 Z" />
</g>
<g id="#bf595eff">
<path fill="#bf595e" opacity="1.00" d=" M 72.40 60.89 C 73.78 59.21 75.51 57.87 77.49 56.95 C 77.06 58.08 76.61 59.20 76.16 60.32 L 75.82 61.15 C 75.65 61.28 75.31 61.54 75.13 61.67 C 74.45 61.47 73.08 61.09 72.40 60.89 Z" />
</g>
<g id="#6f4447ff">
<path fill="#6f4447" opacity="1.00" d=" M 75.13 61.67 C 75.31 61.54 75.65 61.28 75.82 61.15 C 75.65 61.28 75.31 61.54 75.13 61.67 Z" />
</g>
<g id="#4d3544ff">
<path fill="#4d3544" opacity="1.00" d=" M 21.01 76.65 C 20.87 70.84 24.66 65.94 27.97 61.53 C 26.35 66.15 22.26 69.83 21.93 74.88 C 22.99 77.34 25.43 78.95 27.92 79.72 C 27.89 80.54 27.84 82.18 27.81 83.01 C 28.15 83.53 28.82 84.59 29.16 85.11 C 29.59 84.82 30.47 84.23 30.91 83.94 C 30.52 82.84 30.13 81.74 29.75 80.64 C 30.36 80.66 31.60 80.70 32.21 80.73 C 35.70 81.21 38.69 83.74 42.28 83.58 C 43.71 84.39 45.30 84.81 46.89 85.14 C 47.46 83.87 48.05 82.60 48.77 81.40 C 48.55 82.14 48.11 83.61 47.89 84.35 C 53.21 83.25 58.49 81.91 63.92 81.50 C 66.26 81.22 68.62 81.05 70.98 80.93 C 70.86 82.09 70.74 83.24 70.62 84.40 C 66.53 84.96 63.17 87.74 59.04 88.12 C 49.71 89.62 39.37 90.19 31.08 84.91 C 33.55 87.28 35.45 90.10 37.26 92.99 C 39.13 93.28 41.03 93.14 42.91 93.09 C 41.42 90.96 38.86 90.93 36.53 90.80 L 36.42 89.57 C 46.92 90.96 57.93 92.63 68.25 89.36 C 73.02 87.99 76.85 84.65 80.19 81.12 C 78.63 80.78 77.09 80.41 75.54 80.02 C 75.75 79.94 76.16 79.78 76.36 79.70 C 78.05 80.08 79.71 80.53 81.36 81.02 C 83.68 78.06 84.62 74.49 83.50 70.84 C 84.37 72.48 85.05 74.22 85.29 76.07 L 85.17 76.79 C 83.38 80.49 81.50 84.20 80.30 88.15 C 79.65 90.15 79.57 92.43 78.21 94.13 C 78.19 93.31 78.13 91.66 78.10 90.84 C 70.90 94.30 62.83 95.22 54.93 94.95 C 50.29 94.62 45.62 92.20 41.09 93.91 C 39.37 94.03 37.64 93.98 35.91 93.96 C 36.52 95.11 37.36 96.30 36.94 97.68 C 35.66 99.00 33.71 99.32 32.02 99.81 C 30.59 99.23 29.11 98.90 27.57 99.00 C 24.17 101.71 19.97 97.90 16.09 98.93 C 16.56 88.62 14.57 77.60 19.36 68.07 L 20.21 68.20 C 16.09 76.84 17.34 86.53 16.97 95.77 C 18.97 94.68 20.08 96.84 21.36 97.97 C 21.77 97.75 22.60 97.32 23.01 97.10 C 22.56 98.76 24.58 99.78 25.80 98.74 C 26.89 97.55 25.10 96.33 24.09 95.97 C 25.51 93.50 26.73 97.47 28.02 98.23 C 29.37 97.23 30.60 96.07 31.83 94.92 C 32.33 95.96 32.83 97.00 33.32 98.04 C 34.04 98.00 35.47 97.92 36.19 97.88 C 34.94 95.17 33.98 92.34 33.78 89.35 C 32.35 88.60 30.90 87.88 29.51 87.07 C 26.52 83.69 25.00 79.15 21.01 76.65 M 69.15 82.22 C 67.54 85.24 72.36 82.59 69.15 82.22 M 33.89 83.32 C 37.98 88.29 45.06 88.26 50.94 88.15 C 54.74 88.38 58.38 85.83 62.15 87.07 L 62.19 85.89 L 60.30 86.05 C 60.92 85.67 62.18 84.91 62.81 84.53 L 63.01 86.23 L 64.38 85.98 C 64.04 85.52 63.35 84.61 63.01 84.16 C 63.56 83.95 64.67 83.52 65.22 83.31 C 60.65 82.91 55.82 83.22 51.56 84.83 C 50.21 85.14 48.43 84.59 47.55 86.00 C 42.74 86.59 38.56 83.23 33.89 83.32 M 78.09 84.08 C 77.81 84.36 77.25 84.91 76.97 85.18 L 76.97 85.82 C 75.61 86.60 74.24 87.34 72.85 88.05 L 72.92 88.82 C 71.39 89.35 69.85 89.83 68.30 90.30 C 67.17 91.16 65.69 90.97 64.38 91.22 C 64.02 91.40 63.32 91.76 62.97 91.94 C 57.65 92.12 52.32 91.51 47.01 92.10 L 46.99 93.04 C 51.06 92.75 54.91 94.48 58.98 94.21 C 65.74 93.94 72.38 92.38 78.66 89.88 C 79.35 87.30 80.33 84.82 81.19 82.30 C 80.02 82.66 78.98 83.25 78.09 84.08 M 17.28 97.13 C 17.41 100.39 20.41 95.63 17.28 97.13 M 30.26 97.15 C 30.42 100.40 33.38 95.62 30.26 97.15 Z" />
<path fill="#4d3544" opacity="1.00" d=" M 57.59 74.67 C 60.13 70.79 64.38 68.54 68.68 67.13 C 69.20 68.45 69.71 69.78 70.15 71.14 C 69.32 73.41 68.64 76.39 65.81 76.87 C 67.44 75.48 69.09 73.93 69.61 71.77 C 68.95 70.62 68.20 69.52 67.37 68.48 C 66.85 69.60 65.80 71.84 65.27 72.96 C 65.05 72.28 64.60 70.93 64.38 70.26 C 63.89 70.73 63.39 71.19 62.88 71.64 C 62.35 72.02 61.27 72.80 60.73 73.18 C 60.31 73.67 59.46 74.64 59.04 75.12 C 60.04 75.75 61.04 76.38 62.04 77.00 C 60.48 76.38 59.00 75.57 57.59 74.67 Z" />
<path fill="#4d3544" opacity="1.00" d=" M 30.10 68.96 C 30.55 69.12 31.46 69.44 31.91 69.60 C 33.08 69.98 33.74 70.68 33.92 71.70 L 33.57 72.34 C 32.57 72.57 31.58 72.78 30.58 72.98 C 30.43 71.64 30.27 70.30 30.10 68.96 Z" />
<path fill="#4d3544" opacity="1.00" d=" M 29.90 75.94 C 28.56 76.94 26.83 73.76 28.78 73.71 C 29.06 74.27 29.62 75.38 29.90 75.94 Z" />
<path fill="#4d3544" opacity="1.00" d=" M 97.68 93.80 C 99.28 93.21 99.85 93.75 99.39 95.41 C 97.79 95.99 97.22 95.45 97.68 93.80 Z" />
<path fill="#4d3544" opacity="1.00" d=" M 103.28 93.80 C 106.08 92.13 103.51 97.26 103.28 93.80 Z" />
</g>
<g id="#06121abf">
<path fill="#06121a" opacity="0.75" d=" M 21.10 66.09 C 19.83 64.92 21.54 62.18 23.09 63.17 C 22.61 64.26 22.02 65.32 21.10 66.09 Z" />
</g>
<g id="#99e5efff">
<path fill="#99e5ef" opacity="1.00" d=" M 87.16 62.79 C 89.16 63.00 91.14 63.28 93.11 63.70 C 94.32 65.36 94.53 67.38 94.64 69.36 L 95.04 70.28 C 97.48 74.02 96.17 78.51 95.89 82.62 C 94.94 82.42 93.98 82.21 93.02 82.00 C 93.75 83.46 95.59 84.88 94.55 86.64 C 93.15 89.78 91.97 94.35 87.98 94.89 C 84.72 94.60 83.92 90.73 83.92 88.05 C 83.53 84.61 85.68 81.79 87.46 79.09 C 86.70 78.32 85.93 77.55 85.17 76.79 L 85.29 76.07 C 85.95 71.65 86.21 67.17 87.16 62.79 M 91.13 83.26 C 89.60 86.29 94.40 83.49 91.13 83.26 Z" />
</g>
<g id="#6ca1abff">
<path fill="#6ca1ab" opacity="1.00" d=" M 62.31 64.09 C 65.31 62.50 62.60 67.35 62.31 64.09 Z" />
</g>
<g id="#6fa5afff">
<path fill="#6fa5af" opacity="1.00" d=" M 59.24 65.01 C 60.91 64.02 61.16 66.57 59.67 66.89 C 57.97 67.96 57.67 65.31 59.24 65.01 Z" />
</g>
<g id="#3e595fff">
<path fill="#3e595f" opacity="1.00" d=" M 30.10 68.96 C 29.17 68.61 28.08 66.42 29.59 66.20 C 30.73 66.80 32.33 68.19 31.91 69.60 C 31.46 69.44 30.55 69.12 30.10 68.96 Z" />
</g>
<g id="#97e2edff">
<path fill="#97e2ed" opacity="1.00" d=" M 96.11 66.30 C 99.92 67.79 103.29 70.27 105.16 73.99 C 104.40 75.96 103.91 78.11 102.55 79.77 C 102.27 79.66 101.70 79.43 101.42 79.31 C 101.21 74.46 98.36 70.41 96.11 66.30 Z" />
<path fill="#97e2ed" opacity="1.00" d=" M 21.01 76.65 C 25.00 79.15 26.52 83.69 29.51 87.07 C 29.48 90.00 28.55 92.74 26.09 94.48 C 21.62 92.60 21.50 87.43 20.64 83.34 C 20.48 82.73 20.14 81.50 19.98 80.89 C 20.77 79.62 20.92 78.11 21.01 76.65 Z" />
</g>
<g id="#608e98ff">
<path fill="#608e98" opacity="1.00" d=" M 57.24 68.31 C 57.76 68.84 57.76 68.84 57.24 68.31 Z" />
</g>
<g id="#344c54ff">
<path fill="#344c54" opacity="1.00" d=" M 28.52 69.64 C 28.56 69.53 28.63 69.31 28.67 69.20 C 28.63 69.31 28.56 69.53 28.52 69.64 Z" />
</g>
<g id="#f9f9f9ff">
<path fill="#f9f9f9" opacity="1.00" d=" M 28.67 69.20 L 30.10 68.96 C 30.27 70.30 30.43 71.64 30.58 72.98 C 31.58 72.78 32.57 72.57 33.57 72.34 C 33.71 72.85 33.99 73.86 34.14 74.37 C 33.16 75.76 31.44 75.93 29.90 75.94 C 29.62 75.38 29.06 74.27 28.78 73.71 C 27.87 72.56 27.71 70.92 28.52 69.64 C 28.56 69.53 28.63 69.31 28.67 69.20 Z" />
</g>
<g id="#8acfd8ff">
<path fill="#8acfd8" opacity="1.00" d=" M 95.09 68.62 C 97.17 71.44 99.04 74.55 99.85 77.99 C 100.15 82.33 98.55 86.47 97.59 90.63 C 96.91 90.72 95.55 90.91 94.87 91.00 C 94.89 91.53 94.93 92.58 94.95 93.11 C 95.42 92.86 96.37 92.35 96.84 92.10 C 95.64 94.67 96.98 98.98 93.83 100.13 C 92.94 98.67 91.74 95.47 89.90 97.87 C 89.63 98.12 89.09 98.62 88.82 98.87 C 87.97 99.36 87.10 99.82 86.22 100.28 C 86.15 99.39 86.02 97.62 85.95 96.73 C 83.49 96.63 81.62 98.05 80.19 99.90 C 79.73 98.91 79.27 97.93 78.81 96.94 C 78.32 96.76 77.34 96.39 76.85 96.20 L 77.69 95.87 L 77.30 94.86 L 78.21 94.13 C 79.57 92.43 79.65 90.15 80.30 88.15 C 81.50 84.20 83.38 80.49 85.17 76.79 C 85.93 77.55 86.70 78.32 87.46 79.09 C 85.68 81.79 83.53 84.61 83.92 88.05 C 83.92 90.73 84.72 94.60 87.98 94.89 C 91.97 94.35 93.15 89.78 94.55 86.64 C 95.59 84.88 93.75 83.46 93.02 82.00 C 93.98 82.21 94.94 82.42 95.89 82.62 C 96.17 78.51 97.48 74.02 95.04 70.28 L 95.09 68.62 Z" />
</g>
<g id="#ffffffff">
<path fill="#ffffff" opacity="1.00" d=" M 62.88 71.64 C 63.39 71.19 63.89 70.73 64.38 70.26 C 64.60 70.93 65.05 72.28 65.27 72.96 C 65.80 71.84 66.85 69.60 67.37 68.48 C 68.20 69.52 68.95 70.62 69.61 71.77 C 69.09 73.93 67.44 75.48 65.81 76.87 L 64.79 77.03 C 64.30 77.11 63.32 77.28 62.83 77.36 L 62.04 77.00 C 61.04 76.38 60.04 75.75 59.04 75.12 C 59.46 74.64 60.31 73.67 60.73 73.18 C 61.75 74.43 63.60 74.24 64.97 73.81 C 64.81 72.62 64.11 71.90 62.88 71.64 Z" />
<path fill="#ffffff" opacity="1.00" d=" M 17.28 97.13 C 20.41 95.63 17.41 100.39 17.28 97.13 Z" />
<path fill="#ffffff" opacity="1.00" d=" M 30.26 97.15 C 33.38 95.62 30.42 100.40 30.26 97.15 Z" />
<path fill="#ffffff" opacity="1.00" d=" M 77.32 98.13 C 78.50 98.79 78.40 99.48 77.01 100.21 C 75.82 99.58 75.92 98.88 77.32 98.13 Z" />
</g>
<g id="#87cad4ff">
<path fill="#87cad4" opacity="1.00" d=" M 105.16 73.99 C 107.30 76.56 107.12 79.90 106.76 83.02 C 106.68 84.26 106.64 85.50 106.64 86.74 L 105.37 86.66 C 105.46 87.40 105.65 88.88 105.74 89.63 L 104.45 89.87 C 102.71 90.20 100.96 90.54 99.22 90.87 C 99.88 87.00 101.20 83.25 101.42 79.31 C 101.70 79.43 102.27 79.66 102.55 79.77 C 103.91 78.11 104.40 75.96 105.16 73.99 Z" />
</g>
<g id="#45666fff">
<path fill="#45666f" opacity="1.00" d=" M 62.83 77.36 C 63.32 77.28 64.30 77.11 64.79 77.03 L 65.10 77.76 C 64.53 77.66 63.40 77.46 62.83 77.36 Z" />
</g>
<g id="#59909fff">
<path fill="#59909f" opacity="1.00" d=" M 27.92 79.72 C 29.35 80.07 30.78 80.38 32.21 80.73 C 31.60 80.70 30.36 80.66 29.75 80.64 C 30.13 81.74 30.52 82.84 30.91 83.94 C 30.47 84.23 29.59 84.82 29.16 85.11 C 28.82 84.59 28.15 83.53 27.81 83.01 C 27.84 82.18 27.89 80.54 27.92 79.72 Z" />
</g>
<g id="#3a5b62ff">
<path fill="#3a5b62" opacity="1.00" d=" M 71.31 80.92 C 71.74 80.82 72.60 80.62 73.04 80.52 L 73.55 81.17 C 72.99 81.10 71.87 80.98 71.31 80.92 Z" />
</g>
<g id="#5a95a6ff">
<path fill="#5a95a6" opacity="1.00" d=" M 73.55 81.17 C 74.20 80.76 74.87 80.38 75.54 80.02 C 77.09 80.41 78.63 80.78 80.19 81.12 C 76.85 84.65 73.02 87.99 68.25 89.36 C 57.93 92.63 46.92 90.96 36.42 89.57 L 36.53 90.80 C 38.86 90.93 41.42 90.96 42.91 93.09 C 41.03 93.14 39.13 93.28 37.26 92.99 C 35.45 90.10 33.55 87.28 31.08 84.91 C 39.37 90.19 49.71 89.62 59.04 88.12 C 63.17 87.74 66.53 84.96 70.62 84.40 C 70.74 83.24 70.86 82.09 70.98 80.93 L 71.31 80.92 C 71.87 80.98 72.99 81.10 73.55 81.17 Z" />
<path fill="#5a95a6" opacity="1.00" d=" M 78.09 84.08 C 78.98 83.25 80.02 82.66 81.19 82.30 C 80.33 84.82 79.35 87.30 78.66 89.88 C 72.38 92.38 65.74 93.94 58.98 94.21 C 54.91 94.48 51.06 92.75 46.99 93.04 L 47.01 92.10 C 52.32 91.51 57.65 92.12 62.97 91.94 C 63.32 91.76 64.02 91.40 64.38 91.22 C 65.69 90.97 67.17 91.16 68.30 90.30 C 69.85 89.83 71.39 89.35 72.92 88.82 L 72.85 88.05 C 74.24 87.34 75.61 86.60 76.97 85.82 L 76.97 85.18 C 77.25 84.91 77.81 84.36 78.09 84.08 Z" />
</g>
<g id="#608f96ff">
<path fill="#608f96" opacity="1.00" d=" M 20.64 83.34 C 19.00 83.50 18.14 81.41 19.98 80.89 C 20.14 81.50 20.48 82.73 20.64 83.34 Z" />
</g>
<g id="#324b4fff">
<path fill="#324b4f" opacity="1.00" d=" M 41.16 82.36 L 41.44 82.59 L 41.68 82.90 C 41.55 82.76 41.29 82.49 41.16 82.36 Z" />
</g>
<g id="#a7b9c5ff">
<path fill="#a7b9c5" opacity="1.00" d=" M 69.15 82.22 C 72.36 82.59 67.54 85.24 69.15 82.22 Z" />
</g>
<g id="#ffbfc7ff">
<path fill="#ffbfc7" opacity="1.00" d=" M 33.89 83.32 C 38.56 83.23 42.74 86.59 47.55 86.00 C 48.43 84.59 50.21 85.14 51.56 84.83 C 55.82 83.22 60.65 82.91 65.22 83.31 C 64.67 83.52 63.56 83.95 63.01 84.16 C 63.35 84.61 64.04 85.52 64.38 85.98 L 63.01 86.23 L 62.81 84.53 C 62.18 84.91 60.92 85.67 60.30 86.05 L 62.19 85.89 L 62.15 87.07 C 58.38 85.83 54.74 88.38 50.94 88.15 C 45.06 88.26 37.98 88.29 33.89 83.32 Z" />
</g>
<g id="#608d95ff">
<path fill="#608d95" opacity="1.00" d=" M 91.13 83.26 C 94.40 83.49 89.60 86.29 91.13 83.26 Z" />
</g>
<g id="#fdfdfdff">
<path fill="#fdfdfd" opacity="1.00" d=" M 24.09 95.97 C 25.10 96.33 26.89 97.55 25.80 98.74 C 24.58 99.78 22.56 98.76 23.01 97.10 C 23.28 96.82 23.82 96.26 24.09 95.97 Z" />
<path fill="#fdfdfd" opacity="1.00" d=" M 82.70 98.71 C 84.00 96.78 86.12 99.31 84.66 100.67 C 83.32 102.12 80.84 100.01 82.70 98.71 Z" />
</g>
</svg>
