<?xml version="1.0" encoding="UTF-8" ?>
<!DOCTYPE svg PUBLIC "-//W3C//DTD SVG 1.1//EN" "http://www.w3.org/Graphics/SVG/1.1/DTD/svg11.dtd">
<svg width="120pt" height="120pt" viewBox="0 0 120 120" version="1.1" xmlns="http://www.w3.org/2000/svg">
<g id="#071a22e8">
<path fill="#071a22" opacity="0.91" d=" M 55.38 19.89 C 56.95 18.53 59.11 19.09 61.00 18.96 C 65.55 19.16 70.13 18.71 74.66 19.16 L 75.60 20.21 L 74.92 20.30 C 68.84 19.90 62.74 20.10 56.66 20.11 C 55.25 20.68 53.79 21.15 52.32 21.54 C 50.03 20.97 47.62 20.80 45.35 21.58 C 44.01 22.00 42.67 22.39 41.34 22.80 C 40.11 22.94 38.87 23.08 37.64 23.23 C 37.09 23.38 35.97 23.68 35.42 23.83 C 32.00 24.34 28.79 25.67 25.63 27.02 C 28.39 23.07 33.63 23.80 37.47 22.12 C 38.78 22.02 40.09 21.95 41.40 21.86 C 45.77 19.77 50.66 19.93 55.38 19.89 Z" />
</g>
<g id="#a6db9cff">
<path fill="#a6db9c" opacity="1.00" d=" M 56.66 20.11 C 62.74 20.10 68.84 19.90 74.92 20.30 C 70.94 21.88 65.14 19.14 62.89 23.87 C 62.45 24.00 61.58 24.25 61.14 24.37 C 55.13 26.87 48.25 26.41 42.50 29.65 C 41.78 29.66 41.07 29.68 40.36 29.69 C 39.63 29.16 38.87 28.68 38.09 28.23 C 36.69 27.84 35.25 27.60 33.82 27.34 C 34.36 26.17 34.90 25.01 35.42 23.83 C 35.97 23.68 37.09 23.38 37.64 23.23 C 38.87 23.08 40.11 22.94 41.34 22.80 C 42.67 22.39 44.01 22.00 45.35 21.58 C 47.62 20.80 50.03 20.97 52.32 21.54 C 53.79 21.15 55.25 20.68 56.66 20.11 M 50.26 22.24 C 50.74 22.70 50.74 22.70 50.26 22.24 M 48.29 23.31 C 48.74 23.78 48.74 23.78 48.29 23.31 Z" />
</g>
<g id="#435b43ff">
<path fill="#435b43" opacity="1.00" d=" M 74.92 20.30 L 75.60 20.21 C 75.93 20.17 76.60 20.08 76.94 20.04 C 76.95 20.83 76.98 22.42 77.00 23.21 C 75.75 23.02 74.56 22.66 73.43 22.12 C 70.64 21.95 67.85 21.98 65.05 21.96 C 65.02 22.45 64.97 23.42 64.95 23.91 L 64.42 23.89 L 62.89 23.87 C 65.14 19.14 70.94 21.88 74.92 20.30 Z" />
</g>
<g id="#40553dff">
<path fill="#40553d" opacity="1.00" d=" M 50.26 22.24 C 50.74 22.70 50.74 22.70 50.26 22.24 Z" />
</g>
<g id="#445b40ff">
<path fill="#445b40" opacity="1.00" d=" M 48.29 23.31 C 48.74 23.78 48.74 23.78 48.29 23.31 Z" />
</g>
<g id="#5d7a57ff">
<path fill="#5d7a57" opacity="1.00" d=" M 25.63 27.02 C 28.79 25.67 32.00 24.34 35.42 23.83 C 34.90 25.01 34.36 26.17 33.82 27.34 C 35.25 27.60 36.69 27.84 38.09 28.23 C 36.66 28.29 35.22 28.37 33.80 28.48 C 33.24 27.49 32.68 26.50 32.13 25.50 C 31.46 25.84 30.13 26.52 29.47 26.85 C 28.19 26.92 26.91 26.98 25.63 27.02 Z" />
</g>
<g id="#655c4eff">
<path fill="#655c4e" opacity="1.00" d=" M 61.14 24.37 C 61.58 24.25 62.45 24.00 62.89 23.87 L 64.42 23.89 L 63.41 25.02 C 61.99 25.87 63.51 27.57 64.75 27.05 L 65.49 28.38 C 65.51 28.43 65.57 28.53 65.59 28.58 L 66.51 30.35 C 66.54 30.40 66.59 30.51 66.62 30.56 L 67.54 32.36 C 67.57 32.41 67.63 32.52 67.66 32.58 L 67.69 33.86 C 67.70 37.96 69.39 41.85 69.47 45.95 C 69.61 51.02 68.70 56.05 67.80 61.01 C 65.72 57.25 67.89 53.01 67.93 49.04 C 67.69 42.34 66.51 35.63 63.89 29.42 C 63.55 29.50 62.87 29.65 62.53 29.72 L 62.13 29.80 C 61.83 27.99 61.50 26.18 61.14 24.37 Z" />
</g>
<g id="#252525ff">
<path fill="#252525" opacity="1.00" d=" M 42.50 29.65 C 48.25 26.41 55.13 26.87 61.14 24.37 L 60.85 26.42 C 60.13 26.35 58.71 26.22 57.99 26.16 C 58.43 26.57 59.30 27.38 59.74 27.79 C 57.34 30.99 53.77 32.78 50.45 34.81 C 50.03 33.82 49.60 32.83 49.15 31.85 C 49.29 32.61 49.57 34.14 49.70 34.90 C 46.93 35.56 44.09 35.97 41.39 36.91 C 38.79 37.24 36.19 36.86 33.74 35.94 C 35.33 34.24 37.09 32.68 39.17 31.61 C 39.06 28.43 35.99 30.72 34.26 31.15 C 33.58 33.02 31.65 34.81 32.47 36.93 C 35.69 41.06 41.56 40.51 46.06 39.23 C 50.12 38.53 53.53 36.00 57.52 35.14 C 56.73 35.63 55.94 36.11 55.15 36.59 C 53.31 37.46 51.47 38.36 49.67 39.31 C 48.19 39.72 46.74 40.22 45.30 40.72 C 43.79 40.83 42.29 40.93 40.78 40.97 C 40.11 40.97 38.76 40.97 38.09 40.97 L 36.84 41.01 C 36.49 41.01 35.79 41.03 35.44 41.03 C 33.89 39.99 32.39 38.89 30.95 37.69 C 31.00 36.63 31.05 35.56 31.11 34.49 C 32.69 32.49 33.97 30.19 36.35 29.00 C 35.26 28.99 33.06 28.98 31.97 28.97 C 32.01 28.10 32.09 26.37 32.13 25.50 C 32.68 26.50 33.24 27.49 33.80 28.48 C 35.22 28.37 36.66 28.29 38.09 28.23 C 38.87 28.68 39.63 29.16 40.36 29.69 C 41.07 29.68 41.78 29.66 42.50 29.65 M 36.42 35.14 C 36.67 35.39 36.67 35.39 36.42 35.14 Z" />
<path fill="#252525" opacity="1.00" d=" M 62.53 29.72 C 62.87 29.65 63.55 29.50 63.89 29.42 C 66.51 35.63 67.69 42.34 67.93 49.04 C 67.89 53.01 65.72 57.25 67.80 61.01 C 68.70 56.05 69.61 51.02 69.47 45.95 C 69.39 41.85 67.70 37.96 67.69 33.86 C 69.19 35.37 69.03 37.49 69.18 39.45 C 70.99 44.12 69.61 49.51 69.92 54.46 C 68.22 56.43 69.61 59.30 68.36 61.49 C 68.12 62.53 67.71 63.49 67.14 64.37 C 67.52 65.27 67.85 66.18 68.14 67.11 C 69.01 66.48 69.98 66.12 71.04 66.05 C 69.24 67.63 67.39 69.18 65.88 71.06 C 64.81 71.69 63.72 72.28 62.62 72.86 C 60.24 73.69 58.98 75.87 57.83 77.94 C 60.62 78.89 63.50 80.33 66.53 79.60 C 69.85 79.17 73.18 78.69 76.42 77.83 C 75.47 79.08 73.76 79.14 72.49 79.89 C 70.50 79.99 68.51 80.02 66.52 80.12 C 65.53 81.18 64.16 81.10 62.90 80.78 C 61.06 80.34 59.21 79.95 57.42 79.36 C 56.99 77.90 57.86 76.51 58.32 75.18 C 60.90 72.14 65.71 71.61 66.79 67.29 C 65.63 57.28 63.05 47.53 61.27 37.63 C 61.25 35.95 61.26 34.28 61.31 32.60 C 60.06 33.47 58.81 34.34 57.52 35.14 L 57.42 34.58 C 59.32 33.35 60.93 31.72 62.13 29.80 C 61.22 37.93 64.12 45.77 65.53 53.67 C 68.20 49.70 66.06 45.27 65.96 40.99 C 65.88 38.02 64.58 35.30 63.74 32.50 C 63.43 31.81 62.83 30.42 62.53 29.72 Z" />
</g>
<g id="#ffd0d0ff">
<path fill="#ffd0d0" opacity="1.00" d=" M 61.14 24.37 C 61.50 26.18 61.83 27.99 62.13 29.80 C 60.93 31.72 59.32 33.35 57.42 34.58 L 57.52 35.14 C 53.53 36.00 50.12 38.53 46.06 39.23 C 41.56 40.51 35.69 41.06 32.47 36.93 C 31.65 34.81 33.58 33.02 34.26 31.15 C 35.99 30.72 39.06 28.43 39.17 31.61 C 37.09 32.68 35.33 34.24 33.74 35.94 C 36.19 36.86 38.79 37.24 41.39 36.91 C 44.09 35.97 46.93 35.56 49.70 34.90 C 49.57 34.14 49.29 32.61 49.15 31.85 C 49.60 32.83 50.03 33.82 50.45 34.81 C 53.77 32.78 57.34 30.99 59.74 27.79 C 59.30 27.38 58.43 26.57 57.99 26.16 C 58.71 26.22 60.13 26.35 60.85 26.42 L 61.14 24.37 Z" />
<path fill="#ffd0d0" opacity="1.00" d=" M 49.61 89.42 C 49.90 88.96 50.49 88.05 50.78 87.60 L 51.48 87.64 C 51.82 89.23 51.19 89.82 49.61 89.42 Z" />
</g>
<g id="#1c272bff">
<path fill="#1c272b" opacity="1.00" d=" M 64.75 27.05 C 63.51 27.57 61.99 25.87 63.41 25.02 C 63.75 25.53 64.42 26.54 64.75 27.05 Z" />
</g>
<g id="#041923ff">
<path fill="#041923" opacity="1.00" d=" M 65.49 28.38 C 65.51 28.43 65.57 28.53 65.59 28.58 C 65.57 28.53 65.51 28.43 65.49 28.38 Z" />
<path fill="#041923" opacity="1.00" d=" M 67.54 32.36 C 67.57 32.41 67.63 32.52 67.66 32.58 C 67.63 32.52 67.57 32.41 67.54 32.36 Z" />
</g>
<g id="#031823ff">
<path fill="#031823" opacity="1.00" d=" M 66.51 30.35 C 66.54 30.40 66.59 30.51 66.62 30.56 C 66.59 30.51 66.54 30.40 66.51 30.35 Z" />
</g>
<g id="#d0d058ff">
<path fill="#d0d058" opacity="1.00" d=" M 57.52 35.14 C 58.81 34.34 60.06 33.47 61.31 32.60 C 61.26 34.28 61.25 35.95 61.27 37.63 C 58.47 38.97 55.64 40.33 52.54 40.80 L 52.64 40.68 C 53.05 40.13 53.88 39.04 54.30 38.49 L 54.33 38.44 L 54.36 38.38 L 55.15 36.59 C 55.94 36.11 56.73 35.63 57.52 35.14 Z" />
</g>
<g id="#969696ff">
<path fill="#969696" opacity="1.00" d=" M 36.42 35.14 C 36.67 35.39 36.67 35.39 36.42 35.14 Z" />
</g>
<g id="#d0d9e5ff">
<path fill="#d0d9e5" opacity="1.00" d=" M 49.67 39.31 C 51.47 38.36 53.31 37.46 55.15 36.59 L 54.36 38.38 C 54.35 38.41 54.32 38.46 54.30 38.49 C 53.88 39.04 53.05 40.13 52.64 40.68 C 52.58 40.72 52.46 40.79 52.41 40.83 L 51.17 41.07 C 49.78 40.94 48.39 40.95 47.00 41.10 L 45.30 40.72 C 46.74 40.22 48.19 39.72 49.67 39.31 Z" />
</g>
<g id="#626247ff">
<path fill="#626247" opacity="1.00" d=" M 54.30 38.49 C 54.32 38.46 54.35 38.41 54.36 38.38 L 54.33 38.44 L 54.30 38.49 Z" />
</g>
<g id="#fffc6eff">
<path fill="#fffc6e" opacity="1.00" d=" M 52.54 40.80 C 55.64 40.33 58.47 38.97 61.27 37.63 C 63.05 47.53 65.63 57.28 66.79 67.29 C 65.71 71.61 60.90 72.14 58.32 75.18 C 56.39 77.11 53.62 77.74 50.97 77.31 C 49.68 77.05 48.38 76.91 47.07 76.87 C 43.10 76.43 39.33 74.11 37.43 70.55 C 35.63 67.31 35.50 63.46 35.79 59.85 C 35.98 58.02 36.98 56.39 37.95 54.87 C 40.45 51.82 39.26 47.62 39.94 44.02 C 42.61 43.27 45.37 42.92 48.10 42.42 C 49.35 42.47 50.38 42.01 51.17 41.07 L 52.41 40.83 L 52.54 40.80 M 46.22 44.53 C 45.15 48.49 44.61 52.60 44.50 56.70 C 45.15 59.15 46.49 62.40 49.60 61.92 C 50.27 62.49 50.93 63.06 51.58 63.64 C 52.14 63.38 53.24 62.88 53.79 62.62 C 53.90 61.05 54.07 59.47 53.97 57.89 C 54.38 58.31 55.20 59.16 55.61 59.59 C 59.97 55.65 60.40 49.43 60.98 43.95 C 61.04 42.70 61.05 39.90 59.11 40.31 C 54.99 42.22 50.68 43.65 46.22 44.53 M 42.99 67.93 C 42.99 68.65 42.99 70.10 43.00 70.83 C 43.46 71.13 44.40 71.74 44.86 72.05 C 45.67 70.71 46.48 69.37 47.26 68.02 C 45.84 67.98 44.41 67.95 42.99 67.93 Z" />
</g>
<g id="#555658ff">
<path fill="#555658" opacity="1.00" d=" M 52.41 40.83 C 52.46 40.79 52.58 40.72 52.64 40.68 L 52.54 40.80 L 52.41 40.83 Z" />
</g>
<g id="#ffff80ff">
<path fill="#ffff80" opacity="1.00" d=" M 46.22 44.53 C 50.68 43.65 54.99 42.22 59.11 40.31 C 61.05 39.90 61.04 42.70 60.98 43.95 C 60.40 49.43 59.97 55.65 55.61 59.59 C 55.20 59.16 54.38 58.31 53.97 57.89 C 51.50 55.82 49.48 59.72 49.60 61.92 C 46.49 62.40 45.15 59.15 44.50 56.70 C 44.61 52.60 45.15 48.49 46.22 44.53 M 56.58 52.38 C 57.70 53.43 59.78 51.68 58.85 50.43 C 57.78 49.65 55.59 51.17 56.58 52.38 Z" />
</g>
<g id="#192925f1">
<path fill="#192925" opacity="0.95" d=" M 36.84 41.01 L 38.09 40.97 C 38.54 41.32 39.46 42.00 39.92 42.35 C 38.59 43.98 39.20 46.15 39.04 48.07 C 39.02 50.42 37.87 52.56 37.42 54.83 C 36.81 54.87 36.19 54.91 35.58 54.97 C 38.44 50.88 38.87 45.54 36.84 41.01 Z" />
</g>
<g id="#d2dbe7ff">
<path fill="#d2dbe7" opacity="1.00" d=" M 38.09 40.97 C 38.76 40.97 40.11 40.97 40.78 40.97 C 40.57 41.31 40.13 42.00 39.92 42.35 C 39.46 42.00 38.54 41.32 38.09 40.97 Z" />
</g>
<g id="#cdcc57ff">
<path fill="#cdcc57" opacity="1.00" d=" M 40.78 40.97 C 42.29 40.93 43.79 40.83 45.30 40.72 L 47.00 41.10 C 47.27 41.43 47.82 42.09 48.10 42.42 C 45.37 42.92 42.61 43.27 39.94 44.02 C 39.26 47.62 40.45 51.82 37.95 54.87 L 37.42 54.83 C 37.87 52.56 39.02 50.42 39.04 48.07 C 39.20 46.15 38.59 43.98 39.92 42.35 C 40.13 42.00 40.57 41.31 40.78 40.97 Z" />
</g>
<g id="#606363ff">
<path fill="#606363" opacity="1.00" d=" M 47.00 41.10 C 48.39 40.95 49.78 40.94 51.17 41.07 C 50.38 42.01 49.35 42.47 48.10 42.42 C 47.82 42.09 47.27 41.43 47.00 41.10 Z" />
</g>
<g id="#d6e14eff">
<path fill="#d6e14e" opacity="1.00" d=" M 56.58 52.38 C 55.59 51.17 57.78 49.65 58.85 50.43 C 59.78 51.68 57.70 53.43 56.58 52.38 Z" />
</g>
<g id="#293728f6">
<path fill="#293728" opacity="0.96" d=" M 22.05 55.91 C 26.18 54.64 30.49 55.21 34.73 54.72 C 35.04 55.50 35.70 56.24 35.46 57.14 C 32.13 55.43 28.31 56.03 24.74 56.26 C 21.20 57.53 17.07 56.53 14.02 59.22 C 14.31 62.91 13.15 67.06 15.40 70.31 C 19.74 74.93 26.44 74.25 32.19 74.13 C 32.14 72.09 32.07 70.04 32.06 68.00 C 31.98 65.01 32.55 61.99 34.04 59.37 C 32.93 64.67 31.90 70.53 34.32 75.63 C 36.54 79.91 41.26 82.02 45.59 83.55 C 50.47 85.25 55.58 83.70 60.16 81.87 L 59.94 82.75 C 58.02 83.35 56.21 84.24 54.77 85.67 L 54.63 85.64 C 54.11 85.54 53.08 85.33 52.56 85.23 C 52.32 85.32 51.82 85.50 51.57 85.59 C 49.65 84.83 47.55 85.01 45.53 84.87 C 41.90 83.60 38.49 81.84 35.34 79.65 C 34.39 78.14 33.43 76.62 32.62 75.03 C 28.60 74.95 24.58 75.14 20.56 74.88 C 19.55 74.36 18.49 74.00 17.38 73.80 C 15.90 72.41 14.47 70.98 13.01 69.58 C 13.03 66.24 13.04 62.91 12.91 59.58 C 15.08 56.67 18.53 55.62 22.05 55.91 Z" />
</g>
<g id="#ade5a3ff">
<path fill="#ade5a3" opacity="1.00" d=" M 24.74 56.26 C 28.31 56.03 32.13 55.43 35.46 57.14 C 34.90 57.83 34.43 58.57 34.04 59.37 C 32.55 61.99 31.98 65.01 32.06 68.00 C 28.68 69.36 25.37 71.14 21.72 71.63 C 19.56 71.53 17.49 70.80 15.40 70.31 C 13.15 67.06 14.31 62.91 14.02 59.22 C 17.07 56.53 21.20 57.53 24.74 56.26 M 20.35 59.09 C 20.56 62.40 23.33 57.51 20.35 59.09 M 22.49 59.60 C 25.13 62.22 28.20 64.39 31.38 66.32 C 29.31 63.18 26.33 60.30 22.49 59.60 Z" />
</g>
<g id="#cad749ff">
<path fill="#cad749" opacity="1.00" d=" M 49.60 61.92 C 49.48 59.72 51.50 55.82 53.97 57.89 C 54.07 59.47 53.90 61.05 53.79 62.62 C 53.24 62.88 52.14 63.38 51.58 63.64 C 50.93 63.06 50.27 62.49 49.60 61.92 Z" />
</g>
<g id="#628b5aff">
<path fill="#628b5a" opacity="1.00" d=" M 20.35 59.09 C 23.33 57.51 20.56 62.40 20.35 59.09 Z" />
</g>
<g id="#7dac75ff">
<path fill="#7dac75" opacity="1.00" d=" M 22.49 59.60 C 26.33 60.30 29.31 63.18 31.38 66.32 C 28.20 64.39 25.13 62.22 22.49 59.60 Z" />
</g>
<g id="#bdbe50ff">
<path fill="#bdbe50" opacity="1.00" d=" M 34.04 59.37 L 35.85 58.78 L 35.79 59.85 C 35.50 63.46 35.63 67.31 37.43 70.55 C 39.33 74.11 43.10 76.43 47.07 76.87 C 46.87 79.47 50.51 79.79 50.97 77.31 C 53.62 77.74 56.39 77.11 58.32 75.18 C 57.86 76.51 56.99 77.90 57.42 79.36 C 59.21 79.95 61.06 80.34 62.90 80.78 C 62.21 81.05 60.84 81.60 60.16 81.87 C 55.58 83.70 50.47 85.25 45.59 83.55 C 41.26 82.02 36.54 79.91 34.32 75.63 C 31.90 70.53 32.93 64.67 34.04 59.37 M 36.06 74.26 C 34.49 77.23 39.38 74.47 36.06 74.26 Z" />
</g>
<g id="#122225ed">
<path fill="#122225" opacity="0.93" d=" M 71.83 65.38 C 75.29 61.49 81.56 59.68 86.53 61.67 C 89.53 62.64 92.54 63.60 95.52 64.67 C 96.54 65.00 97.56 65.37 98.55 65.80 C 99.05 65.88 100.03 66.05 100.53 66.14 C 102.29 67.12 104.25 67.85 105.67 69.37 L 104.85 69.49 C 98.29 66.62 91.44 64.52 84.64 62.32 C 80.03 60.77 75.88 63.62 71.83 65.38 Z" />
</g>
<g id="#a5da9cff">
<path fill="#a5da9c" opacity="1.00" d=" M 71.83 65.38 C 75.88 63.62 80.03 60.77 84.64 62.32 C 91.44 64.52 98.29 66.62 104.85 69.49 C 100.70 72.04 95.54 70.74 91.02 72.18 C 86.58 73.50 81.63 74.23 77.87 77.08 L 77.31 77.58 C 77.09 77.65 76.64 77.77 76.42 77.83 C 73.18 78.69 69.85 79.17 66.53 79.60 C 64.94 77.53 63.61 75.28 62.62 72.86 C 63.72 72.28 64.81 71.69 65.88 71.06 C 67.39 69.18 69.24 67.63 71.04 66.05 C 71.24 65.88 71.64 65.55 71.83 65.38 M 79.16 67.85 C 82.95 68.12 86.76 68.10 90.54 67.67 C 86.92 66.79 82.59 66.22 79.16 67.85 M 75.28 68.10 C 75.51 71.40 78.27 66.52 75.28 68.10 M 96.28 68.14 C 96.70 68.60 96.70 68.60 96.28 68.14 M 72.22 69.25 C 72.71 69.70 72.71 69.70 72.22 69.25 M 69.29 70.22 C 69.77 70.70 69.77 70.70 69.29 70.22 Z" />
</g>
<g id="#689160ff">
<path fill="#689160" opacity="1.00" d=" M 79.16 67.85 C 82.59 66.22 86.92 66.79 90.54 67.67 C 86.76 68.10 82.95 68.12 79.16 67.85 Z" />
</g>
<g id="#9ad48fff">
<path fill="#9ad48f" opacity="1.00" d=" M 21.72 71.63 C 25.37 71.14 28.68 69.36 32.06 68.00 C 32.07 70.04 32.14 72.09 32.19 74.13 C 26.44 74.25 19.74 74.93 15.40 70.31 C 17.49 70.80 19.56 71.53 21.72 71.63 Z" />
</g>
<g id="#bcc744ff">
<path fill="#bcc744" opacity="1.00" d=" M 42.99 67.93 C 44.41 67.95 45.84 67.98 47.26 68.02 C 46.48 69.37 45.67 70.71 44.86 72.05 C 44.40 71.74 43.46 71.13 43.00 70.83 C 42.99 70.10 42.99 68.65 42.99 67.93 Z" />
</g>
<g id="#5c8355ff">
<path fill="#5c8355" opacity="1.00" d=" M 75.28 68.10 C 78.27 66.52 75.51 71.40 75.28 68.10 Z" />
</g>
<g id="#4e684aff">
<path fill="#4e684a" opacity="1.00" d=" M 96.28 68.14 C 96.70 68.60 96.70 68.60 96.28 68.14 Z" />
</g>
<g id="#608557ff">
<path fill="#608557" opacity="1.00" d=" M 72.22 69.25 C 72.71 69.70 72.71 69.70 72.22 69.25 Z" />
</g>
<g id="#50694cff">
<path fill="#50694c" opacity="1.00" d=" M 104.85 69.49 L 105.67 69.37 C 106.58 69.86 106.80 71.09 107.34 71.92 C 103.74 72.40 99.69 70.97 96.40 72.84 C 94.39 73.02 92.22 72.62 90.40 73.73 C 89.06 73.93 87.69 74.07 86.44 74.64 C 85.45 74.98 84.45 75.31 83.45 75.64 C 82.39 75.92 81.38 76.32 80.43 76.84 C 79.79 76.90 78.51 77.02 77.87 77.08 C 81.63 74.23 86.58 73.50 91.02 72.18 C 95.54 70.74 100.70 72.04 104.85 69.49 Z" />
</g>
<g id="#719b6aff">
<path fill="#719b6a" opacity="1.00" d=" M 69.29 70.22 C 69.77 70.70 69.77 70.70 69.29 70.22 Z" />
</g>
<g id="#87ba7eff">
<path fill="#87ba7e" opacity="1.00" d=" M 57.83 77.94 C 58.98 75.87 60.24 73.69 62.62 72.86 C 63.61 75.28 64.94 77.53 66.53 79.60 C 63.50 80.33 60.62 78.89 57.83 77.94 Z" />
<path fill="#87ba7e" opacity="1.00" d=" M 52.56 85.23 C 53.08 85.33 54.11 85.54 54.63 85.64 C 53.79 86.84 52.75 87.50 51.48 87.64 L 50.78 87.60 C 50.49 88.05 49.90 88.96 49.61 89.42 L 49.35 90.36 C 48.83 89.87 47.79 88.88 47.27 88.38 L 47.10 88.21 C 49.15 88.83 50.09 86.46 51.57 85.59 C 51.82 85.50 52.32 85.32 52.56 85.23 Z" />
</g>
<g id="#8b9413ff">
<path fill="#8b9413" opacity="1.00" d=" M 36.06 74.26 C 39.38 74.47 34.49 77.23 36.06 74.26 Z" />
</g>
<g id="#aeb536ff">
<path fill="#aeb536" opacity="1.00" d=" M 47.07 76.87 C 48.38 76.91 49.68 77.05 50.97 77.31 C 50.51 79.79 46.87 79.47 47.07 76.87 Z" />
</g>
<g id="#595144ff">
<path fill="#595144" opacity="1.00" d=" M 47.27 88.38 C 47.79 88.88 48.83 89.87 49.35 90.36 C 46.06 92.32 43.21 95.21 39.52 96.37 L 38.66 95.95 C 39.76 94.92 40.85 93.88 41.96 92.85 C 42.23 92.66 42.75 92.26 43.01 92.06 C 43.48 91.83 44.40 91.36 44.86 91.13 C 45.58 90.14 46.39 89.22 47.27 88.38 Z" />
</g>
<g id="#0c1a22ff">
<path fill="#0c1a22" opacity="1.00" d=" M 43.12 91.17 L 44.06 90.69 L 44.86 91.13 C 44.40 91.36 43.48 91.83 43.01 92.06 L 43.12 91.17 Z" />
</g>
<g id="#283023f4">
<path fill="#283023" opacity="0.96" d=" M 21.66 96.41 C 25.34 93.73 30.10 92.93 34.55 92.98 C 35.32 93.76 36.10 94.53 36.89 95.30 C 38.41 94.16 40.12 93.31 41.96 92.85 C 40.85 93.88 39.76 94.92 38.66 95.95 L 39.52 96.37 L 40.44 96.84 C 39.06 96.94 37.69 97.02 36.31 97.10 C 36.01 97.65 35.43 98.76 35.13 99.31 C 35.16 98.77 35.21 97.70 35.23 97.16 C 35.26 96.63 35.31 95.57 35.34 95.03 C 33.25 93.64 30.71 93.85 28.43 94.60 C 26.64 95.10 24.88 95.68 23.16 96.37 C 25.33 97.33 27.45 98.40 29.57 99.49 C 30.69 99.83 31.84 100.01 33.02 100.03 L 32.99 101.05 C 31.84 101.01 30.69 100.96 29.54 100.89 C 28.59 100.33 27.57 99.95 26.48 99.75 C 24.90 98.60 23.28 97.51 21.66 96.41 Z" />
</g>
<g id="#ffff74ff">
<path fill="#ffff74" opacity="1.00" d=" M 28.43 94.60 C 30.71 93.85 33.25 93.64 35.34 95.03 C 35.31 95.57 35.26 96.63 35.23 97.16 C 33.38 98.02 31.47 98.75 29.57 99.49 C 27.45 98.40 25.33 97.33 23.16 96.37 C 24.88 95.68 26.64 95.10 28.43 94.60 Z" />
</g>
<g id="#b0af4bff">
<path fill="#b0af4b" opacity="1.00" d=" M 29.57 99.49 C 31.47 98.75 33.38 98.02 35.23 97.16 C 35.21 97.70 35.16 98.77 35.13 99.31 L 35.11 99.75 C 34.59 99.82 33.54 99.96 33.02 100.03 C 31.84 100.01 30.69 99.83 29.57 99.49 Z" />
</g>
</svg>
