<?xml version="1.0" encoding="UTF-8" ?>
<!DOCTYPE svg PUBLIC "-//W3C//DTD SVG 1.1//EN" "http://www.w3.org/Graphics/SVG/1.1/DTD/svg11.dtd">
<svg width="120pt" height="120pt" viewBox="0 0 120 120" version="1.1" xmlns="http://www.w3.org/2000/svg">
<g id="#4a7597ff">
<path fill="#4a7597" opacity="1.00" d=" M 49.78 30.95 C 56.99 28.45 65.93 28.18 72.14 33.17 C 79.96 32.81 87.66 34.94 94.60 38.46 C 97.83 40.08 100.25 42.87 102.62 45.52 C 103.08 47.93 102.52 50.38 102.13 52.76 L 101.49 52.70 C 92.44 52.22 83.41 51.51 74.40 50.47 C 75.54 52.02 76.44 54.10 78.58 54.40 C 85.29 56.09 92.28 54.92 99.04 54.16 C 97.37 54.79 95.73 55.70 93.90 55.73 C 87.79 55.92 81.68 55.57 75.57 55.65 C 76.25 58.59 76.83 61.55 77.35 64.53 C 80.25 65.49 83.36 66.17 85.78 68.16 C 85.81 69.38 85.84 70.60 85.85 71.82 C 82.11 74.27 78.56 70.56 74.74 71.55 C 74.25 70.19 73.80 68.81 73.29 67.45 C 76.40 68.97 79.53 70.46 82.65 71.95 C 83.61 71.22 84.60 70.52 85.60 69.83 C 82.52 67.69 79.16 66.03 75.66 64.69 C 75.32 61.26 74.92 57.84 74.56 54.41 C 63.94 53.15 53.13 52.72 42.57 54.69 C 42.01 57.79 41.48 60.89 40.93 64.00 C 37.62 65.25 34.21 66.23 30.81 67.18 C 33.36 65.30 36.54 64.76 39.36 63.44 C 41.15 60.29 41.21 56.32 41.45 52.74 C 33.73 52.43 25.18 54.21 18.36 49.64 C 15.86 48.17 16.27 45.23 16.10 42.76 L 16.43 43.51 C 17.54 45.88 18.42 48.88 21.13 49.89 C 27.66 52.58 34.90 51.61 41.78 51.78 C 42.25 50.66 42.71 49.53 43.15 48.40 C 37.84 48.12 32.44 48.12 27.25 46.81 C 24.15 46.26 23.57 42.76 22.50 40.33 C 24.13 42.06 25.48 44.18 27.59 45.39 C 30.29 46.39 33.22 46.57 36.07 46.75 C 44.73 47.06 53.38 46.68 62.04 46.81 C 69.13 46.90 75.89 49.34 82.89 50.11 C 88.80 50.98 94.79 50.90 100.74 50.76 C 101.31 49.48 101.88 48.21 102.46 46.94 C 95.57 37.55 83.43 34.24 72.32 33.77 C 74.94 36.70 76.20 40.44 76.12 44.35 C 74.85 41.32 74.86 37.06 71.49 35.46 C 62.95 30.92 52.85 31.30 43.54 32.58 C 37.12 33.40 31.03 35.66 25.01 37.94 C 21.77 39.15 19.11 41.41 16.43 43.51 C 18.68 41.11 20.83 38.37 24.02 37.17 C 32.31 34.02 40.92 31.70 49.78 30.95 M 54.12 30.29 C 57.19 31.56 60.56 31.33 63.80 31.14 C 60.78 29.63 57.36 29.90 54.12 30.29 M 63.80 31.14 C 64.05 32.80 67.22 33.22 68.60 32.57 C 68.44 30.69 65.23 30.61 63.80 31.14 Z" />
<path fill="#4a7597" opacity="1.00" d=" M 70.52 46.11 C 71.65 45.16 72.30 45.41 72.46 46.85 C 71.33 47.79 70.68 47.55 70.52 46.11 Z" />
<path fill="#4a7597" opacity="1.00" d=" M 59.17 57.21 L 60.02 56.75 L 60.86 57.23 L 60.83 58.05 C 60.41 58.04 59.59 58.03 59.18 58.02 L 59.17 57.21 Z" />
<path fill="#4a7597" opacity="1.00" d=" M 46.30 58.93 C 46.68 58.94 47.44 58.97 47.83 58.99 L 47.83 59.81 L 47.02 60.24 L 46.23 59.75 L 46.30 58.93 Z" />
<path fill="#4a7597" opacity="1.00" d=" M 59.17 58.94 C 59.58 58.94 60.40 58.96 60.81 58.96 L 60.82 59.78 L 59.97 60.24 L 59.13 59.75 L 59.17 58.94 Z" />
<path fill="#4a7597" opacity="1.00" d=" M 39.31 68.32 C 39.77 67.22 40.20 66.10 40.63 64.99 C 42.29 69.25 43.58 74.74 48.46 76.39 C 54.58 78.34 61.17 77.73 67.51 77.78 C 68.78 81.63 73.18 84.31 72.83 88.57 C 71.25 90.65 68.32 89.47 66.10 89.82 C 63.80 86.55 64.27 82.51 64.30 78.73 C 61.92 78.76 59.54 78.77 57.17 78.79 C 57.38 82.28 54.92 84.57 52.66 86.82 C 50.08 85.47 47.40 84.27 44.52 83.73 L 43.64 83.52 C 46.72 83.50 49.87 82.92 52.29 80.87 C 52.27 80.46 52.22 79.63 52.20 79.22 C 49.43 77.86 46.01 77.53 43.85 75.14 C 41.86 73.18 41.48 70.11 39.31 68.32 M 65.37 78.90 C 65.50 82.16 64.76 86.21 67.55 88.60 C 69.07 88.58 70.57 88.30 72.07 88.01 C 70.28 84.67 68.02 81.60 65.37 78.90 Z" />
<path fill="#4a7597" opacity="1.00" d=" M 28.56 68.39 L 29.18 68.70 C 31.57 70.14 34.32 70.74 37.09 70.47 C 34.96 71.51 32.61 71.89 30.25 71.92 C 29.69 70.74 29.14 69.56 28.56 68.39 Z" />
<path fill="#4a7597" opacity="1.00" d=" M 68.95 77.14 C 70.72 75.72 72.44 74.26 74.20 72.83 C 73.98 73.45 73.55 74.69 73.34 75.31 C 71.88 75.92 70.42 76.54 68.95 77.14 Z" />
<path fill="#4a7597" opacity="1.00" d=" M 40.56 85.30 L 41.18 85.59 C 43.80 86.90 46.57 87.88 49.46 88.39 L 50.45 88.61 C 47.69 88.75 44.92 88.77 42.16 88.79 C 41.64 87.62 41.12 86.45 40.56 85.30 Z" />
</g>
<g id="#da6d79ff">
<path fill="#da6d79" opacity="1.00" d=" M 54.12 30.29 C 57.36 29.90 60.78 29.63 63.80 31.14 C 60.56 31.33 57.19 31.56 54.12 30.29 Z" />
<path fill="#da6d79" opacity="1.00" d=" M 63.80 31.14 C 65.23 30.61 68.44 30.69 68.60 32.57 C 67.22 33.22 64.05 32.80 63.80 31.14 Z" />
<path fill="#da6d79" opacity="1.00" d=" M 43.54 32.58 C 52.85 31.30 62.95 30.92 71.49 35.46 C 74.86 37.06 74.85 41.32 76.12 44.35 C 76.20 40.44 74.94 36.70 72.32 33.77 C 83.43 34.24 95.57 37.55 102.46 46.94 C 101.88 48.21 101.31 49.48 100.74 50.76 C 94.79 50.90 88.80 50.98 82.89 50.11 C 75.89 49.34 69.13 46.90 62.04 46.81 C 53.38 46.68 44.73 47.06 36.07 46.75 C 33.22 46.57 30.29 46.39 27.59 45.39 C 25.48 44.18 24.13 42.06 22.50 40.33 C 23.57 42.76 24.15 46.26 27.25 46.81 C 32.44 48.12 37.84 48.12 43.15 48.40 C 42.71 49.53 42.25 50.66 41.78 51.78 C 34.90 51.61 27.66 52.58 21.13 49.89 C 18.42 48.88 17.54 45.88 16.43 43.51 C 19.11 41.41 21.77 39.15 25.01 37.94 C 31.03 35.66 37.12 33.40 43.54 32.58 M 70.52 46.11 C 70.68 47.55 71.33 47.79 72.46 46.85 C 72.30 45.41 71.65 45.16 70.52 46.11 Z" />
<path fill="#da6d79" opacity="1.00" d=" M 74.40 50.47 C 83.41 51.51 92.44 52.22 101.49 52.70 C 100.88 53.07 99.65 53.79 99.04 54.16 C 92.28 54.92 85.29 56.09 78.58 54.40 C 76.44 54.10 75.54 52.02 74.40 50.47 Z" />
<path fill="#da6d79" opacity="1.00" d=" M 46.30 58.93 C 44.76 56.73 49.66 56.94 47.83 58.99 C 47.44 58.97 46.68 58.94 46.30 58.93 Z" />
<path fill="#da6d79" opacity="1.00" d=" M 59.18 58.02 C 59.59 58.03 60.41 58.04 60.83 58.05 L 60.81 58.96 C 60.40 58.96 59.58 58.94 59.17 58.94 L 59.18 58.02 Z" />
</g>
<g id="#6890afff">
<path fill="#6890af" opacity="1.00" d=" M 42.57 54.69 C 53.13 52.72 63.94 53.15 74.56 54.41 C 74.92 57.84 75.32 61.26 75.66 64.69 C 79.16 66.03 82.52 67.69 85.60 69.83 C 84.60 70.52 83.61 71.22 82.65 71.95 C 79.53 70.46 76.40 68.97 73.29 67.45 C 73.80 68.81 74.25 70.19 74.74 71.55 L 74.98 72.21 L 74.20 72.83 C 72.44 74.26 70.72 75.72 68.95 77.14 C 68.59 77.30 67.87 77.62 67.51 77.78 C 61.17 77.73 54.58 78.34 48.46 76.39 C 43.58 74.74 42.29 69.25 40.63 64.99 C 40.20 66.10 39.77 67.22 39.31 68.32 C 38.75 68.86 37.64 69.93 37.09 70.47 C 34.32 70.74 31.57 70.14 29.18 68.70 C 29.59 68.32 30.40 67.56 30.81 67.18 C 34.21 66.23 37.62 65.25 40.93 64.00 C 41.48 60.89 42.01 57.79 42.57 54.69 M 46.30 58.93 L 46.23 59.75 L 47.02 60.24 L 47.83 59.81 L 47.83 58.99 C 49.66 56.94 44.76 56.73 46.30 58.93 M 59.17 57.21 L 59.18 58.02 L 59.17 58.94 L 59.13 59.75 L 59.97 60.24 L 60.82 59.78 L 60.81 58.96 L 60.83 58.05 L 60.86 57.23 L 60.02 56.75 L 59.17 57.21 Z" />
<path fill="#6890af" opacity="1.00" d=" M 65.37 78.90 C 68.02 81.60 70.28 84.67 72.07 88.01 C 70.57 88.30 69.07 88.58 67.55 88.60 C 64.76 86.21 65.50 82.16 65.37 78.90 Z" />
<path fill="#6890af" opacity="1.00" d=" M 44.52 83.73 C 47.40 84.27 50.08 85.47 52.66 86.82 C 51.86 87.21 50.26 88.00 49.46 88.39 C 46.57 87.88 43.80 86.90 41.18 85.59 C 42.02 85.12 43.69 84.19 44.52 83.73 Z" />
</g>
</svg>
