<?xml version="1.0" encoding="UTF-8" ?>
<!DOCTYPE svg PUBLIC "-//W3C//DTD SVG 1.1//EN" "http://www.w3.org/Graphics/SVG/1.1/DTD/svg11.dtd">
<svg width="120pt" height="120pt" viewBox="0 0 120 120" version="1.1" xmlns="http://www.w3.org/2000/svg">
<g id="#262529e1">
<path fill="#262529" opacity="0.88" d=" M 41.04 46.07 C 47.68 33.85 66.27 32.90 75.70 42.29 C 80.89 46.95 83.39 54.11 83.03 61.00 C 83.27 63.82 82.69 66.60 81.25 69.05 C 81.62 67.00 81.86 64.92 81.91 62.84 C 83.34 54.91 79.67 46.71 73.44 41.78 C 66.22 36.08 55.88 35.50 47.92 39.99 C 45.56 41.94 43.37 44.08 41.04 46.07 Z" />
</g>
<g id="#fda598ff">
<path fill="#fda598" opacity="1.00" d=" M 47.92 39.99 C 55.88 35.50 66.22 36.08 73.44 41.78 C 72.85 44.75 73.35 48.60 70.61 50.62 C 63.75 54.92 53.83 54.95 47.76 49.22 C 45.03 46.62 46.97 42.92 47.92 39.99 M 56.34 39.34 C 54.55 40.09 53.20 42.58 54.69 44.25 C 56.53 46.71 60.17 46.11 62.84 45.83 C 65.45 45.59 66.89 42.02 64.87 40.20 C 62.54 38.28 59.06 38.54 56.34 39.34 Z" />
</g>
<g id="#ffc7b8ff">
<path fill="#ffc7b8" opacity="1.00" d=" M 56.34 39.34 C 59.06 38.54 62.54 38.28 64.87 40.20 C 66.89 42.02 65.45 45.59 62.84 45.83 C 60.17 46.11 56.53 46.71 54.69 44.25 C 53.20 42.58 54.55 40.09 56.34 39.34 Z" />
</g>
<g id="#ed998dff">
<path fill="#ed998d" opacity="1.00" d=" M 41.04 46.07 C 43.37 44.08 45.56 41.94 47.92 39.99 C 46.97 42.92 45.03 46.62 47.76 49.22 C 53.83 54.95 63.75 54.92 70.61 50.62 C 73.35 48.60 72.85 44.75 73.44 41.78 C 79.67 46.71 83.34 54.91 81.91 62.84 L 80.76 63.30 C 69.23 68.61 56.45 72.02 43.68 70.44 C 42.90 69.01 42.08 67.61 41.03 66.35 L 41.88 66.07 C 42.73 65.96 44.44 65.73 45.29 65.62 C 45.12 65.26 44.80 64.55 44.63 64.19 C 43.57 61.65 41.28 59.96 39.36 58.08 L 39.17 58.80 C 39.03 59.54 38.76 61.03 38.63 61.77 C 38.20 61.85 37.35 62.00 36.92 62.08 C 36.46 56.81 38.01 51.76 40.13 47.00 C 40.36 46.77 40.81 46.30 41.04 46.07 M 63.22 55.30 C 63.76 55.86 63.76 55.86 63.22 55.30 M 61.34 56.54 L 61.41 57.12 C 61.00 57.23 60.16 57.46 59.74 57.57 L 60.27 56.78 C 56.88 58.47 53.13 60.61 51.72 64.35 L 52.72 63.95 C 52.57 66.11 54.42 66.07 55.96 65.47 C 56.71 66.78 59.92 66.73 59.78 64.92 C 60.30 64.87 61.35 64.79 61.87 64.75 C 62.30 64.78 63.16 64.85 63.59 64.88 L 63.81 64.07 C 63.84 62.38 64.17 60.63 63.65 58.99 C 63.69 58.55 63.77 57.67 63.81 57.24 L 62.99 56.96 L 62.03 57.04 C 61.86 56.91 61.52 56.66 61.34 56.54 M 49.18 60.44 C 48.32 61.50 49.23 64.05 50.73 63.74 C 51.33 62.68 50.60 60.24 49.18 60.44 M 47.06 61.29 C 45.50 64.27 50.39 61.47 47.06 61.29 M 46.18 64.24 C 46.75 64.80 46.75 64.80 46.18 64.24 Z" />
</g>
<g id="#252b34f5">
<path fill="#252b34" opacity="0.96" d=" M 36.15 55.96 C 36.61 52.72 37.59 49.25 40.13 47.00 C 38.01 51.76 36.46 56.81 36.92 62.08 C 36.69 65.48 38.33 68.67 41.35 70.30 C 40.75 70.21 39.53 70.03 38.92 69.94 C 43.73 80.22 56.36 84.96 67.02 81.90 C 65.50 83.57 62.77 83.07 60.73 83.72 C 52.19 83.83 43.18 79.88 38.86 72.20 C 35.49 67.47 35.96 61.45 36.15 55.96 Z" />
</g>
<g id="#53302dff">
<path fill="#53302d" opacity="1.00" d=" M 63.22 55.30 C 63.76 55.86 63.76 55.86 63.22 55.30 Z" />
</g>
<g id="#381e1cff">
<path fill="#381e1c" opacity="1.00" d=" M 61.34 56.54 C 61.52 56.66 61.86 56.91 62.03 57.04 L 61.41 57.12 L 61.34 56.54 Z" />
</g>
<g id="#65423fff">
<path fill="#65423f" opacity="1.00" d=" M 51.72 64.35 C 53.13 60.61 56.88 58.47 60.27 56.78 L 59.74 57.57 C 58.46 59.25 57.36 61.06 56.54 63.01 C 56.29 62.58 55.79 61.72 55.53 61.29 C 54.59 62.17 53.66 63.07 52.72 63.95 L 51.72 64.35 Z" />
</g>
<g id="#fcfcfcff">
<path fill="#fcfcfc" opacity="1.00" d=" M 61.41 57.12 L 62.03 57.04 L 62.99 56.96 C 63.15 57.47 63.48 58.48 63.65 58.99 C 64.17 60.63 63.84 62.38 63.81 64.07 C 63.32 64.24 62.35 64.58 61.87 64.75 C 61.35 64.79 60.30 64.87 59.78 64.92 C 58.48 64.81 57.16 64.94 55.96 65.47 C 54.42 66.07 52.57 66.11 52.72 63.95 C 53.66 63.07 54.59 62.17 55.53 61.29 C 55.79 61.72 56.29 62.58 56.54 63.01 C 57.36 61.06 58.46 59.25 59.74 57.57 C 60.16 57.46 61.00 57.23 61.41 57.12 Z" />
<path fill="#fcfcfc" opacity="1.00" d=" M 39.17 58.80 C 41.12 60.46 42.99 62.22 44.63 64.19 C 44.80 64.55 45.12 65.26 45.29 65.62 C 44.44 65.73 42.73 65.96 41.88 66.07 L 41.60 65.24 C 41.21 65.19 40.43 65.08 40.04 65.03 C 39.56 63.95 39.09 62.86 38.63 61.77 C 38.76 61.03 39.03 59.54 39.17 58.80 Z" />
</g>
<g id="#492824ff">
<path fill="#492824" opacity="1.00" d=" M 62.99 56.96 L 63.81 57.24 C 63.77 57.67 63.69 58.55 63.65 58.99 C 63.48 58.48 63.15 57.47 62.99 56.96 Z" />
</g>
<g id="#774742ff">
<path fill="#774742" opacity="1.00" d=" M 49.18 60.44 C 50.60 60.24 51.33 62.68 50.73 63.74 C 49.23 64.05 48.32 61.50 49.18 60.44 Z" />
</g>
<g id="#754741ff">
<path fill="#754741" opacity="1.00" d=" M 47.06 61.29 C 50.39 61.47 45.50 64.27 47.06 61.29 Z" />
</g>
<g id="#bc7974ff">
<path fill="#bc7974" opacity="1.00" d=" M 36.92 62.08 C 37.35 62.00 38.20 61.85 38.63 61.77 C 39.09 62.86 39.56 63.95 40.04 65.03 C 40.29 65.36 40.79 66.02 41.03 66.35 C 42.08 67.61 42.90 69.01 43.68 70.44 C 43.28 70.44 42.47 70.42 42.07 70.41 L 41.35 70.30 C 38.33 68.67 36.69 65.48 36.92 62.08 Z" />
</g>
<g id="#e1e5edff">
<path fill="#e1e5ed" opacity="1.00" d=" M 80.76 63.30 L 81.91 62.84 C 79.30 68.51 73.31 71.38 67.55 72.77 C 62.63 73.83 57.55 73.45 52.58 73.09 C 53.42 72.38 54.26 71.67 55.10 70.96 C 64.02 70.00 72.92 67.77 80.76 63.30 Z" />
</g>
<g id="#a4a7beff">
<path fill="#a4a7be" opacity="1.00" d=" M 81.91 62.84 C 81.86 64.92 81.62 67.00 81.25 69.05 C 80.92 69.54 80.25 70.53 79.91 71.02 C 79.66 71.48 79.15 72.40 78.89 72.86 C 78.65 73.16 78.16 73.76 77.92 74.06 C 77.65 74.51 77.12 75.42 76.86 75.87 L 76.74 76.73 L 75.86 76.88 C 75.40 77.14 74.49 77.66 74.04 77.92 L 73.64 78.83 L 72.64 78.82 C 71.25 78.71 69.60 79.36 69.07 80.73 L 68.69 81.53 C 68.28 81.62 67.44 81.81 67.02 81.90 C 56.36 84.96 43.73 80.22 38.92 69.94 C 39.53 70.03 40.75 70.21 41.35 70.30 L 42.07 70.41 C 46.37 71.09 50.76 71.01 55.10 70.96 C 54.26 71.67 53.42 72.38 52.58 73.09 C 57.55 73.45 62.63 73.83 67.55 72.77 C 73.31 71.38 79.30 68.51 81.91 62.84 Z" />
</g>
<g id="#432522ff">
<path fill="#432522" opacity="1.00" d=" M 46.18 64.24 C 46.75 64.80 46.75 64.80 46.18 64.24 Z" />
</g>
<g id="#6f433dff">
<path fill="#6f433d" opacity="1.00" d=" M 61.87 64.75 C 62.35 64.58 63.32 64.24 63.81 64.07 L 63.59 64.88 C 63.16 64.85 62.30 64.78 61.87 64.75 Z" />
</g>
<g id="#533633ff">
<path fill="#533633" opacity="1.00" d=" M 40.04 65.03 C 40.43 65.08 41.21 65.19 41.60 65.24 L 41.88 66.07 L 41.03 66.35 C 40.79 66.02 40.29 65.36 40.04 65.03 Z" />
</g>
<g id="#643e39ff">
<path fill="#643e39" opacity="1.00" d=" M 55.96 65.47 C 57.16 64.94 58.48 64.81 59.78 64.92 C 59.92 66.73 56.71 66.78 55.96 65.47 Z" />
</g>
<g id="#42434cff">
<path fill="#42434c" opacity="1.00" d=" M 78.89 72.86 C 79.15 72.40 79.66 71.48 79.91 71.02 L 80.31 71.85 L 79.79 72.79 L 78.89 72.86 Z" />
<path fill="#42434c" opacity="1.00" d=" M 76.86 75.87 C 77.12 75.42 77.65 74.51 77.92 74.06 L 78.30 74.88 L 77.76 75.81 L 76.86 75.87 Z" />
<path fill="#42434c" opacity="1.00" d=" M 74.04 77.92 C 74.49 77.66 75.40 77.14 75.86 76.88 L 75.77 77.75 C 75.34 77.79 74.47 77.88 74.04 77.92 Z" />
</g>
<g id="#565763ff">
<path fill="#565763" opacity="1.00" d=" M 69.07 80.73 C 69.60 79.36 71.25 78.71 72.64 78.82 C 73.13 80.36 70.21 81.62 69.07 80.73 Z" />
</g>
</svg>
