<?xml version="1.0" encoding="UTF-8" ?>
<!DOCTYPE svg PUBLIC "-//W3C//DTD SVG 1.1//EN" "http://www.w3.org/Graphics/SVG/1.1/DTD/svg11.dtd">
<svg width="120pt" height="120pt" viewBox="0 0 120 120" version="1.1" xmlns="http://www.w3.org/2000/svg">
<g id="#2a2521e9">
<path fill="#2a2521" opacity="0.91" d=" M 47.37 36.11 C 49.74 38.36 51.56 34.38 53.92 33.92 C 55.88 34.69 58.35 35.73 58.26 38.25 C 60.45 35.71 62.89 32.91 66.65 34.00 C 67.73 34.75 68.92 35.38 69.84 36.33 C 70.11 38.15 69.91 40.09 70.92 41.73 L 70.97 42.17 C 70.54 42.02 69.68 41.73 69.25 41.59 C 69.24 40.07 69.24 38.56 69.24 37.04 C 67.13 35.81 64.84 34.92 62.37 34.79 C 61.10 36.49 59.83 38.20 58.62 39.95 L 58.29 39.45 C 57.20 37.65 55.62 36.24 53.93 35.02 C 52.95 35.47 51.97 35.91 50.98 36.34 L 51.03 36.41 L 51.64 37.51 C 51.14 37.77 50.14 38.27 49.64 38.52 C 48.09 38.25 46.54 38.01 44.98 37.80 C 44.19 39.89 43.79 42.09 44.46 44.28 C 44.28 44.37 43.91 44.55 43.72 44.64 C 43.35 44.54 42.60 44.35 42.23 44.25 C 42.94 42.08 43.64 39.89 44.27 37.69 C 41.03 38.79 39.35 41.91 40.60 45.16 C 40.62 45.36 40.66 45.76 40.68 45.97 C 38.93 44.01 36.44 43.21 33.93 42.80 C 35.25 45.48 36.90 47.99 38.48 50.52 L 39.00 51.95 L 37.19 51.42 C 36.72 51.27 35.77 50.99 35.30 50.85 C 34.35 52.51 32.94 54.14 32.97 56.17 C 33.00 56.56 33.07 57.35 33.11 57.74 C 35.10 59.92 37.47 61.71 39.87 63.42 L 39.13 63.87 C 36.11 63.43 34.17 60.54 32.00 58.62 C 32.00 57.21 32.00 55.81 32.00 54.40 C 33.08 52.58 34.41 50.93 35.98 49.50 C 34.89 47.54 33.19 45.64 33.02 43.34 C 34.27 41.20 36.98 41.89 38.79 42.83 C 39.62 41.09 39.90 38.74 41.92 37.91 C 43.60 36.89 45.80 37.35 47.37 36.11 Z" />
</g>
<g id="#f59a59ff">
<path fill="#f59a59" opacity="1.00" d=" M 50.98 36.34 C 51.97 35.91 52.95 35.47 53.93 35.02 C 55.62 36.24 57.20 37.65 58.29 39.45 C 57.81 41.40 57.22 43.46 55.30 44.45 C 55.20 42.65 55.12 40.85 55.06 39.05 C 53.72 38.17 52.36 37.31 51.03 36.41 L 50.98 36.34 Z" />
</g>
<g id="#f79a59ff">
<path fill="#f79a59" opacity="1.00" d=" M 62.37 34.79 C 64.84 34.92 67.13 35.81 69.24 37.04 C 69.24 38.56 69.24 40.07 69.25 41.59 C 68.07 42.17 67.01 42.94 66.04 43.82 C 66.04 43.02 66.04 41.41 66.04 40.60 C 63.90 40.94 61.76 41.30 59.63 41.68 C 59.38 41.25 58.87 40.38 58.62 39.95 C 59.83 38.20 61.10 36.49 62.37 34.79 Z" />
</g>
<g id="#ba8663ff">
<path fill="#ba8663" opacity="1.00" d=" M 51.03 36.41 C 52.36 37.31 53.72 38.17 55.06 39.05 C 55.12 40.85 55.20 42.65 55.30 44.45 C 57.22 43.46 57.81 41.40 58.29 39.45 L 58.62 39.95 C 58.87 40.38 59.38 41.25 59.63 41.68 C 61.76 41.30 63.90 40.94 66.04 40.60 C 66.04 41.41 66.04 43.02 66.04 43.82 C 67.01 42.94 68.07 42.17 69.25 41.59 C 68.12 45.34 65.96 48.63 63.85 51.88 C 63.90 51.15 64.01 49.68 64.06 48.95 C 62.17 52.14 58.47 54.25 57.88 58.12 C 59.77 56.12 61.43 53.92 63.39 51.97 C 62.52 54.43 61.44 56.80 60.25 59.12 C 66.51 55.66 71.52 49.49 78.93 48.53 C 77.78 48.10 76.62 47.68 75.47 47.24 C 77.08 47.02 78.69 46.80 80.31 46.58 C 79.40 43.36 76.80 41.27 73.80 40.07 L 72.77 39.46 C 73.44 39.44 74.79 39.40 75.47 39.37 C 77.37 40.49 79.13 41.85 80.66 43.45 C 80.67 45.52 80.74 47.63 81.70 49.52 C 82.41 49.47 83.84 49.38 84.55 49.33 C 85.27 50.06 85.99 50.78 86.72 51.51 C 86.70 52.84 86.67 54.17 86.63 55.50 L 88.29 55.45 C 87.87 55.93 87.02 56.90 86.60 57.38 C 86.13 54.93 86.05 51.86 83.71 50.37 C 79.63 49.11 75.28 50.43 71.93 52.87 C 68.37 55.28 64.36 57.28 61.80 60.85 C 66.13 60.92 70.61 61.37 74.81 60.05 C 76.88 64.10 81.47 62.17 84.81 61.25 C 83.25 62.88 80.65 62.37 79.00 63.93 C 77.86 62.43 75.98 62.74 74.34 62.69 L 74.34 61.62 C 70.80 61.71 67.27 61.69 63.73 61.73 C 63.66 67.77 63.82 73.81 63.62 79.84 C 63.21 81.10 62.93 82.40 62.65 83.70 C 61.47 83.71 60.30 83.75 59.12 83.81 C 59.13 82.23 59.16 80.66 59.17 79.08 C 59.82 80.03 60.05 82.15 61.63 81.75 C 64.29 80.85 63.24 77.42 63.21 75.32 C 62.75 71.75 63.22 68.09 62.47 64.56 C 61.67 61.69 58.97 60.22 56.52 58.96 C 56.60 62.29 55.27 65.22 52.58 67.21 C 51.21 65.49 49.16 64.94 47.05 64.97 C 46.52 64.94 45.45 64.87 44.92 64.83 C 44.39 64.55 43.35 63.98 42.82 63.70 C 41.59 63.73 40.36 63.79 39.13 63.87 L 39.87 63.42 C 40.35 63.08 41.33 62.40 41.81 62.06 C 41.20 61.12 40.60 60.17 40.01 59.22 C 38.72 56.76 38.02 54.05 37.19 51.42 L 39.00 51.95 L 38.48 50.52 C 39.05 51.62 39.47 52.79 39.91 53.95 C 39.70 51.67 40.12 49.39 40.51 47.14 C 40.87 48.39 41.21 49.63 41.54 50.88 C 41.72 50.28 42.06 49.07 42.23 48.47 C 43.08 49.87 43.81 51.34 44.41 52.86 C 44.87 50.60 45.62 48.40 46.67 46.34 C 46.81 47.22 47.09 48.97 47.23 49.85 C 48.24 49.05 49.25 48.26 50.26 47.47 C 48.13 46.40 45.98 45.39 43.72 44.64 C 43.91 44.55 44.28 44.37 44.46 44.28 C 45.44 43.74 46.42 43.20 47.39 42.66 C 47.84 41.44 48.30 40.23 48.76 39.03 C 48.98 40.69 49.20 42.36 49.41 44.02 C 50.83 44.34 52.26 44.64 53.68 44.95 C 53.61 43.52 53.53 42.09 53.45 40.66 C 52.83 39.62 52.23 38.57 51.64 37.51 L 51.03 36.41 M 52.24 49.25 C 50.98 51.35 48.54 51.94 46.35 52.58 C 46.23 53.26 45.98 54.62 45.85 55.30 C 44.54 54.95 43.39 54.23 42.31 53.42 C 42.25 55.37 41.99 57.31 41.48 59.19 C 42.47 61.45 43.96 64.52 47.00 63.75 C 52.91 62.86 56.26 57.64 58.37 52.56 L 59.08 52.86 C 62.03 50.07 65.05 46.26 64.70 42.03 C 64.10 42.31 62.90 42.89 62.30 43.18 C 61.97 43.05 61.31 42.81 60.98 42.69 C 57.77 44.44 54.29 46.07 52.24 49.25 M 65.50 45.42 C 65.60 45.63 65.60 45.63 65.50 45.42 M 51.40 47.45 C 51.47 47.51 51.47 47.51 51.40 47.45 M 64.40 47.45 C 64.58 47.58 64.58 47.58 64.40 47.45 Z" />
</g>
<g id="#f89a59ff">
<path fill="#f89a59" opacity="1.00" d=" M 40.60 45.16 C 39.35 41.91 41.03 38.79 44.27 37.69 C 43.64 39.89 42.94 42.08 42.23 44.25 C 42.60 44.35 43.35 44.54 43.72 44.64 C 45.98 45.39 48.13 46.40 50.26 47.47 C 49.25 48.26 48.24 49.05 47.23 49.85 C 47.09 48.97 46.81 47.22 46.67 46.34 C 45.62 48.40 44.87 50.60 44.41 52.86 C 43.81 51.34 43.08 49.87 42.23 48.47 C 42.06 49.07 41.72 50.28 41.54 50.88 C 41.21 49.63 40.87 48.39 40.51 47.14 C 40.55 46.85 40.64 46.26 40.68 45.97 C 40.66 45.76 40.62 45.36 40.60 45.16 Z" />
</g>
<g id="#f49858ff">
<path fill="#f49858" opacity="1.00" d=" M 44.98 37.80 C 46.54 38.01 48.09 38.25 49.64 38.52 C 50.14 38.27 51.14 37.77 51.64 37.51 C 52.23 38.57 52.83 39.62 53.45 40.66 C 53.53 42.09 53.61 43.52 53.68 44.95 C 52.26 44.64 50.83 44.34 49.41 44.02 C 49.20 42.36 48.98 40.69 48.76 39.03 C 48.30 40.23 47.84 41.44 47.39 42.66 C 46.42 43.20 45.44 43.74 44.46 44.28 C 43.79 42.09 44.19 39.89 44.98 37.80 Z" />
</g>
<g id="#f39757ff">
<path fill="#f39757" opacity="1.00" d=" M 73.80 40.07 C 76.80 41.27 79.40 43.36 80.31 46.58 C 78.69 46.80 77.08 47.02 75.47 47.24 C 76.62 47.68 77.78 48.10 78.93 48.53 C 71.52 49.49 66.51 55.66 60.25 59.12 C 61.44 56.80 62.52 54.43 63.39 51.97 C 61.43 53.92 59.77 56.12 57.88 58.12 C 58.47 54.25 62.17 52.14 64.06 48.95 C 64.01 49.68 63.90 51.15 63.85 51.88 C 65.96 48.63 68.12 45.34 69.25 41.59 C 69.68 41.73 70.54 42.02 70.97 42.17 L 70.92 41.73 L 70.96 40.47 C 71.67 40.37 73.09 40.17 73.80 40.07 Z" />
</g>
<g id="#df9c77ff">
<path fill="#df9c77" opacity="1.00" d=" M 33.93 42.80 C 36.44 43.21 38.93 44.01 40.68 45.97 C 40.64 46.26 40.55 46.85 40.51 47.14 C 40.12 49.39 39.70 51.67 39.91 53.95 C 39.47 52.79 39.05 51.62 38.48 50.52 C 36.90 47.99 35.25 45.48 33.93 42.80 Z" />
</g>
<g id="#cf916fff">
<path fill="#cf916f" opacity="1.00" d=" M 52.24 49.25 C 54.29 46.07 57.77 44.44 60.98 42.69 C 60.75 43.75 60.52 44.81 60.30 45.87 C 58.21 46.61 56.60 48.20 55.99 50.35 C 55.72 50.53 55.20 50.89 54.93 51.07 C 56.08 51.55 57.23 52.06 58.37 52.56 C 56.26 57.64 52.91 62.86 47.00 63.75 C 43.96 64.52 42.47 61.45 41.48 59.19 C 41.99 57.31 42.25 55.37 42.31 53.42 C 43.39 54.23 44.54 54.95 45.85 55.30 C 45.98 54.62 46.23 53.26 46.35 52.58 C 48.54 51.94 50.98 51.35 52.24 49.25 M 50.22 52.34 C 49.85 53.40 49.50 54.46 49.16 55.53 L 49.63 55.87 C 49.42 56.36 49.01 57.33 48.80 57.82 C 49.66 57.88 51.37 58.00 52.23 58.06 C 51.92 57.41 51.30 56.10 50.99 55.44 C 52.09 55.49 53.18 55.72 54.25 55.98 C 53.79 55.04 53.33 54.09 52.88 53.13 C 51.99 52.87 51.10 52.60 50.22 52.34 M 43.29 60.10 C 42.94 61.48 43.47 62.01 44.87 61.71 C 45.22 60.33 44.69 59.79 43.29 60.10 Z" />
</g>
<g id="#a56749ff">
<path fill="#a56749" opacity="1.00" d=" M 60.98 42.69 C 61.31 42.81 61.97 43.05 62.30 43.18 C 62.90 42.89 64.10 42.31 64.70 42.03 C 65.05 46.26 62.03 50.07 59.08 52.86 L 58.37 52.56 C 57.23 52.06 56.08 51.55 54.93 51.07 C 55.20 50.89 55.72 50.53 55.99 50.35 C 57.93 49.72 59.68 48.45 60.22 46.37 L 60.30 45.87 C 60.52 44.81 60.75 43.75 60.98 42.69 Z" />
</g>
<g id="#ed9455ff">
<path fill="#ed9455" opacity="1.00" d=" M 71.93 52.87 C 75.28 50.43 79.63 49.11 83.71 50.37 C 86.05 51.86 86.13 54.93 86.60 57.38 C 86.66 58.00 86.77 59.26 86.83 59.89 L 86.79 59.81 C 86.51 59.20 85.95 57.96 85.67 57.35 C 81.94 57.72 78.09 58.04 74.81 60.05 C 70.61 61.37 66.13 60.92 61.80 60.85 C 64.36 57.28 68.37 55.28 71.93 52.87 Z" />
</g>
<g id="#ea9154ff">
<path fill="#ea9154" opacity="1.00" d=" M 35.30 50.85 C 35.77 50.99 36.72 51.27 37.19 51.42 C 38.02 54.05 38.72 56.76 40.01 59.22 C 37.60 58.37 35.21 57.43 32.97 56.17 C 32.94 54.14 34.35 52.51 35.30 50.85 Z" />
</g>
<g id="#725347ff">
<path fill="#725347" opacity="1.00" d=" M 50.22 52.34 C 51.10 52.60 51.99 52.87 52.88 53.13 C 53.33 54.09 53.79 55.04 54.25 55.98 C 53.18 55.72 52.09 55.49 50.99 55.44 C 51.30 56.10 51.92 57.41 52.23 58.06 C 51.37 58.00 49.66 57.88 48.80 57.82 C 49.01 57.33 49.42 56.36 49.63 55.87 L 49.84 55.40 L 49.44 55.09 L 49.16 55.53 C 49.50 54.46 49.85 53.40 50.22 52.34 Z" />
</g>
<g id="#f6f1eeff">
<path fill="#f6f1ee" opacity="1.00" d=" M 49.16 55.53 L 49.44 55.09 L 49.84 55.40 L 49.63 55.87 L 49.16 55.53 Z" />
</g>
<g id="#c6733cff">
<path fill="#c6733c" opacity="1.00" d=" M 32.97 56.17 C 35.21 57.43 37.60 58.37 40.01 59.22 C 40.60 60.17 41.20 61.12 41.81 62.06 C 41.33 62.40 40.35 63.08 39.87 63.42 C 37.47 61.71 35.10 59.92 33.11 57.74 C 33.07 57.35 33.00 56.56 32.97 56.17 Z" />
</g>
<g id="#c37039ff">
<path fill="#c37039" opacity="1.00" d=" M 74.81 60.05 C 78.09 58.04 81.94 57.72 85.67 57.35 C 85.95 57.96 86.51 59.20 86.79 59.81 C 86.30 60.17 85.31 60.89 84.81 61.25 C 81.47 62.17 76.88 64.10 74.81 60.05 Z" />
</g>
<g id="#d29470ff">
<path fill="#d29470" opacity="1.00" d=" M 56.52 58.96 C 58.97 60.22 61.67 61.69 62.47 64.56 C 63.22 68.09 62.75 71.75 63.21 75.32 C 61.80 74.79 60.31 74.32 59.21 73.23 C 59.46 71.32 59.75 69.42 59.93 67.51 C 57.70 73.18 58.24 80.58 52.57 84.32 C 52.62 83.05 52.67 81.78 52.72 80.50 L 52.74 80.03 L 52.25 80.03 L 52.24 80.52 L 51.55 80.54 C 51.42 78.64 51.27 76.75 51.13 74.86 C 51.55 75.27 52.40 76.09 52.83 76.50 C 52.88 75.55 52.97 73.66 53.02 72.71 C 53.17 72.48 53.48 72.02 53.63 71.79 C 53.26 70.26 52.90 68.74 52.58 67.21 C 55.27 65.22 56.60 62.29 56.52 58.96 Z" />
</g>
<g id="#392729ff">
<path fill="#392729" opacity="1.00" d=" M 43.29 60.10 C 44.69 59.79 45.22 60.33 44.87 61.71 C 43.47 62.01 42.94 61.48 43.29 60.10 Z" />
</g>
<g id="#d39471ff">
<path fill="#d39471" opacity="1.00" d=" M 44.92 64.83 C 45.45 64.87 46.52 64.94 47.05 64.97 C 47.02 65.58 46.98 66.79 46.95 67.40 C 46.84 68.52 46.73 69.64 46.61 70.76 C 46.59 71.01 46.56 71.52 46.54 71.78 C 48.48 73.53 51.03 75.29 49.63 78.24 C 48.14 78.05 46.66 77.84 45.18 77.65 C 45.18 74.14 44.66 70.68 44.13 67.22 C 44.33 66.62 44.72 65.43 44.92 64.83 Z" />
</g>
<g id="#d1c4a8ff">
<path fill="#d1c4a8" opacity="1.00" d=" M 47.05 64.97 C 49.16 64.94 51.21 65.49 52.58 67.21 C 50.71 67.40 48.83 67.54 46.95 67.40 C 46.98 66.79 47.02 65.58 47.05 64.97 Z" />
</g>
<g id="#3c2d26fc">
<path fill="#3c2d26" opacity="1.00" d=" M 42.97 66.96 L 44.13 67.22 C 44.66 70.68 45.18 74.14 45.18 77.65 C 45.21 79.67 45.17 81.70 45.08 83.72 C 46.07 83.65 47.05 83.58 48.04 83.52 C 48.60 81.77 49.11 80.00 49.63 78.24 C 51.03 75.29 48.48 73.53 46.54 71.78 C 46.56 71.52 46.59 71.01 46.61 70.76 C 48.25 71.90 49.93 72.99 51.72 73.88 C 52.05 73.59 52.70 73.00 53.02 72.71 C 52.97 73.66 52.88 75.55 52.83 76.50 C 52.40 76.09 51.55 75.27 51.13 74.86 C 51.27 76.75 51.42 78.64 51.55 80.54 L 52.24 80.52 L 52.72 80.50 C 52.67 81.78 52.62 83.05 52.57 84.32 C 58.24 80.58 57.70 73.18 59.93 67.51 C 59.75 69.42 59.46 71.32 59.21 73.23 C 59.00 75.17 59.01 77.13 59.17 79.08 C 59.16 80.66 59.13 82.23 59.12 83.81 L 58.15 84.08 C 58.20 82.50 57.94 80.99 57.40 79.55 C 56.99 81.43 56.41 83.26 55.80 85.08 C 53.83 85.10 51.86 84.89 50.01 84.20 C 47.73 85.16 45.25 85.07 42.83 84.99 C 44.76 80.96 44.00 76.36 43.96 72.04 C 43.76 71.64 43.36 70.82 43.16 70.42 C 43.08 69.27 43.02 68.11 42.97 66.96 Z" />
</g>
<g id="#f1e9ccff">
<path fill="#f1e9cc" opacity="1.00" d=" M 46.95 67.40 C 48.83 67.54 50.71 67.40 52.58 67.21 C 52.90 68.74 53.26 70.26 53.63 71.79 C 53.48 72.02 53.17 72.48 53.02 72.71 C 52.70 73.00 52.05 73.59 51.72 73.88 C 49.93 72.99 48.25 71.90 46.61 70.76 C 46.73 69.64 46.84 68.52 46.95 67.40 Z" />
</g>
<g id="#a57355ff">
<path fill="#a57355" opacity="1.00" d=" M 59.17 79.08 C 59.01 77.13 59.00 75.17 59.21 73.23 C 60.31 74.32 61.80 74.79 63.21 75.32 C 63.24 77.42 64.29 80.85 61.63 81.75 C 60.05 82.15 59.82 80.03 59.17 79.08 Z" />
</g>
<g id="#b26c4aff">
<path fill="#b26c4a" opacity="1.00" d=" M 45.18 77.65 C 46.66 77.84 48.14 78.05 49.63 78.24 C 49.11 80.00 48.60 81.77 48.04 83.52 C 47.05 83.58 46.07 83.65 45.08 83.72 C 45.17 81.70 45.21 79.67 45.18 77.65 Z" />
</g>
<g id="#412519ff">
<path fill="#412519" opacity="1.00" d=" M 52.25 80.03 L 52.74 80.03 L 52.72 80.50 L 52.24 80.52 L 52.25 80.03 Z" />
</g>
</svg>
