<?xml version="1.0" encoding="UTF-8" ?>
<!DOCTYPE svg PUBLIC "-//W3C//DTD SVG 1.1//EN" "http://www.w3.org/Graphics/SVG/1.1/DTD/svg11.dtd">
<svg width="120pt" height="120pt" viewBox="0 0 120 120" version="1.1" xmlns="http://www.w3.org/2000/svg">
<g id="#3d4449ff">
<path fill="#3d4449" opacity="1.00" d=" M 75.78 25.29 C 77.68 22.20 81.55 21.19 84.94 20.81 C 85.31 21.85 85.67 22.90 85.98 23.96 C 85.34 23.42 84.07 22.34 83.44 21.80 C 80.82 22.81 78.25 23.97 75.78 25.29 Z" />
<path fill="#3d4449" opacity="1.00" d=" M 40.97 23.22 C 41.83 22.71 42.70 22.22 43.56 21.72 C 44.17 23.31 44.79 24.90 45.40 26.48 C 45.80 28.12 46.04 29.78 46.27 31.44 C 46.78 33.17 47.20 34.93 47.69 36.67 C 43.78 41.51 45.29 47.89 45.00 53.59 C 45.26 53.27 45.79 52.62 46.05 52.30 C 46.26 52.09 46.66 51.68 46.87 51.48 C 47.56 49.72 47.18 47.82 46.88 46.03 C 46.76 45.31 46.53 43.87 46.42 43.16 C 46.50 43.09 46.67 42.97 46.76 42.91 C 47.49 44.49 48.24 46.06 49.00 47.63 C 49.96 47.47 50.92 47.30 51.88 47.12 C 49.08 48.24 49.22 51.19 49.19 53.69 L 48.95 54.10 C 48.37 51.34 46.42 54.26 45.15 54.53 C 52.86 56.74 60.71 54.93 68.53 54.76 C 67.41 55.85 66.29 56.93 65.20 58.05 C 63.86 56.49 62.16 55.33 60.03 56.13 C 55.49 57.29 50.83 56.86 46.27 56.08 C 53.75 62.20 64.85 60.90 72.46 55.69 C 69.26 59.73 63.75 60.27 59.50 62.74 C 56.54 61.43 53.36 60.76 50.24 59.98 C 49.42 63.56 48.20 67.04 46.68 70.38 C 45.77 71.65 46.76 72.94 47.38 74.05 C 46.47 78.36 49.60 82.05 52.42 84.90 C 54.49 85.47 56.32 83.93 58.07 83.08 L 58.70 82.60 C 58.68 82.92 58.63 83.57 58.61 83.89 C 56.86 84.82 55.10 85.76 53.37 86.73 C 56.96 88.32 60.78 89.29 64.44 90.71 C 65.20 92.22 66.39 93.33 67.97 93.92 C 69.77 93.00 71.63 92.18 73.50 91.40 C 71.01 91.41 68.52 91.49 66.05 91.28 C 69.55 89.70 72.53 87.23 74.15 83.66 C 72.41 83.84 70.68 84.04 68.96 84.23 C 66.77 83.11 64.35 83.33 61.99 83.45 C 61.85 83.29 61.56 82.97 61.42 82.81 C 66.64 83.04 71.56 81.14 76.65 80.43 C 77.74 79.50 78.82 78.57 79.90 77.64 C 79.75 75.66 80.88 73.30 79.62 71.58 C 77.16 70.43 73.86 70.28 72.37 67.63 C 71.03 65.11 70.59 62.23 70.04 59.47 L 70.89 58.87 C 71.34 60.86 71.77 62.85 72.12 64.86 L 72.45 65.25 C 74.99 70.68 81.29 70.24 86.33 69.99 C 85.39 69.01 84.45 68.03 83.50 67.05 C 83.94 66.68 84.81 65.96 85.25 65.59 C 85.42 65.46 85.75 65.18 85.92 65.04 C 86.92 65.40 88.94 66.14 89.95 66.51 C 89.25 65.98 87.84 64.92 87.13 64.39 C 87.12 63.86 87.08 62.79 87.06 62.25 C 84.10 60.27 81.06 58.40 77.92 56.71 C 76.44 56.87 74.97 57.02 73.49 57.20 C 73.24 56.82 72.72 56.07 72.46 55.69 C 72.96 52.40 73.26 49.07 73.08 45.74 C 71.14 44.46 69.52 42.79 68.12 40.95 C 68.13 38.93 68.03 36.92 67.95 34.91 C 64.63 33.67 60.87 31.23 57.32 32.99 C 56.01 32.99 54.69 32.97 53.39 32.82 L 52.43 32.48 C 54.62 32.12 56.93 32.19 58.95 31.16 C 59.57 31.19 60.82 31.26 61.44 31.29 C 63.99 32.04 66.67 32.59 68.89 34.15 C 69.35 32.45 69.83 30.65 71.40 29.62 C 71.10 30.36 70.48 31.85 70.18 32.59 C 70.06 33.04 69.83 33.94 69.72 34.39 C 68.25 37.08 68.93 40.20 70.87 42.46 C 71.62 42.99 72.39 43.50 73.16 44.01 C 74.25 43.62 75.34 43.22 76.43 42.80 C 75.64 43.70 74.83 44.59 74.02 45.47 C 74.00 46.99 73.99 48.52 73.98 50.04 C 74.52 50.10 75.59 50.21 76.13 50.26 C 76.07 50.88 75.96 52.11 75.91 52.73 C 78.26 55.13 80.90 57.24 83.89 58.79 C 83.95 57.40 83.99 56.02 84.03 54.63 C 84.53 55.76 84.98 56.94 85.61 58.02 C 85.79 58.40 86.14 59.16 86.31 59.55 C 88.31 62.41 90.80 65.22 90.10 68.99 C 89.67 69.00 88.79 69.01 88.36 69.01 C 88.05 69.65 87.42 70.94 87.11 71.59 C 87.04 72.57 86.97 73.54 86.90 74.52 C 86.61 75.04 86.04 76.07 85.76 76.59 C 85.21 77.54 84.66 78.50 84.10 79.45 C 87.98 85.27 89.10 92.22 90.20 98.99 C 85.78 98.94 81.36 99.10 76.95 98.97 C 75.83 99.08 74.98 98.26 74.05 97.81 C 75.82 96.33 74.32 94.49 73.90 92.83 C 72.76 93.56 71.61 94.27 70.48 95.02 C 68.28 95.04 65.95 95.20 64.00 93.97 C 64.04 93.28 64.11 91.89 64.14 91.20 C 62.59 90.99 61.04 90.78 59.53 90.37 C 57.62 89.59 55.58 88.39 53.78 90.12 C 53.73 89.70 53.64 88.84 53.59 88.42 C 50.61 85.39 48.64 81.48 45.44 78.68 C 46.66 76.05 44.41 73.49 43.80 70.98 C 39.16 71.31 34.57 70.78 30.05 69.77 C 30.09 68.60 30.13 67.43 30.16 66.26 C 31.81 64.70 33.45 63.12 35.31 61.81 C 34.84 62.47 33.91 63.80 33.44 64.46 C 33.20 64.82 32.72 65.53 32.48 65.89 C 33.39 65.96 35.20 66.11 36.11 66.18 C 35.97 66.62 35.68 67.50 35.53 67.95 C 35.36 68.46 35.03 69.49 34.86 70.01 C 38.47 70.01 42.12 70.29 45.72 69.77 C 46.31 68.92 46.83 68.02 47.27 67.07 C 47.86 65.42 48.34 63.73 48.77 62.03 C 48.96 61.24 49.14 60.46 49.31 59.67 C 48.00 58.82 46.71 57.95 45.44 57.04 C 45.04 57.07 44.23 57.13 43.82 57.16 L 42.97 57.22 C 45.10 53.55 43.78 49.11 44.11 45.08 C 43.60 45.03 42.58 44.93 42.08 44.88 C 41.69 38.42 43.07 31.68 41.34 25.40 C 41.25 24.85 41.06 23.76 40.97 23.22 M 43.53 25.18 C 43.13 31.52 42.84 37.89 43.21 44.24 C 44.16 41.47 46.25 38.94 46.17 35.92 C 45.28 32.34 44.16 28.82 43.53 25.18 M 76.64 55.88 C 76.73 54.50 75.32 53.29 74.54 52.24 C 72.76 53.09 74.79 56.81 76.64 55.88 M 31.27 66.67 C 31.27 67.15 31.25 68.10 31.24 68.58 C 32.34 69.01 33.67 68.21 34.67 67.73 C 34.48 66.65 32.15 66.03 31.27 66.67 M 86.00 67.00 C 86.64 67.61 86.64 67.61 86.00 67.00 C 85.38 66.38 85.38 66.38 86.00 67.00 M 88.27 67.25 C 88.88 67.85 88.88 67.85 88.27 67.25 M 80.86 71.00 C 80.97 72.92 81.09 74.85 81.19 76.78 C 81.61 77.16 82.47 77.90 82.89 78.28 C 82.89 75.85 82.95 73.43 83.08 71.01 C 82.53 71.00 81.41 71.00 80.86 71.00 M 84.01 71.38 C 84.04 73.12 84.07 74.87 84.15 76.62 C 86.01 74.86 86.28 72.27 86.94 69.93 C 86.21 70.29 84.74 71.01 84.01 71.38 M 73.85 86.32 L 73.15 85.53 C 73.10 86.90 73.06 88.27 73.03 89.65 C 73.48 90.04 74.38 90.83 74.83 91.23 C 75.35 93.37 75.81 95.53 76.44 97.64 C 80.53 98.56 84.85 97.85 89.03 97.99 C 88.26 95.76 87.94 93.43 87.97 91.07 L 87.39 91.38 C 87.09 86.59 84.46 82.39 81.69 78.62 C 77.88 79.36 75.18 82.86 73.85 86.32 Z" />
<path fill="#3d4449" opacity="1.00" d=" M 79.44 26.43 L 79.59 26.36 L 79.46 26.42 L 79.32 26.52 L 79.44 26.43 Z" />
<path fill="#3d4449" opacity="1.00" d=" M 72.17 29.21 C 71.85 27.49 72.54 26.82 74.25 27.18 C 73.87 28.18 73.17 28.86 72.17 29.21 Z" />
<path fill="#3d4449" opacity="1.00" d=" M 74.44 31.44 L 74.56 31.29 L 74.44 31.48 L 74.34 31.63 L 74.44 31.44 Z" />
<path fill="#3d4449" opacity="1.00" d=" M 73.19 33.93 L 73.46 33.86 C 73.34 33.99 73.09 34.27 72.97 34.40 L 73.19 33.93 Z" />
<path fill="#3d4449" opacity="1.00" d=" M 80.77 35.83 C 81.04 35.39 81.58 34.52 81.85 34.09 C 81.80 34.52 81.70 35.39 81.65 35.82 L 80.77 35.83 Z" />
<path fill="#3d4449" opacity="1.00" d=" M 72.47 35.53 C 72.52 35.42 72.61 35.20 72.66 35.08 C 72.61 35.20 72.52 35.42 72.47 35.53 Z" />
<path fill="#3d4449" opacity="1.00" d=" M 76.68 40.80 C 76.56 39.49 77.47 38.43 78.64 37.97 C 79.45 39.05 78.08 41.52 76.68 40.80 Z" />
<path fill="#3d4449" opacity="1.00" d=" M 61.69 47.00 C 62.11 45.57 62.54 44.15 63.00 42.73 C 63.69 43.21 65.07 44.18 65.76 44.67 C 64.83 44.47 63.91 44.24 63.00 43.99 C 63.00 44.42 63.00 45.29 63.00 45.72 C 62.99 48.15 62.96 50.57 63.00 52.99 C 61.90 52.85 60.80 52.67 59.70 52.49 C 59.42 50.40 59.13 48.32 58.84 46.23 C 59.48 45.81 60.77 44.98 61.41 44.56 C 61.13 45.17 60.57 46.39 60.29 47.00 L 61.69 47.00 Z" />
<path fill="#3d4449" opacity="1.00" d=" M 78.76 46.37 C 79.66 45.47 80.67 44.70 81.70 43.94 C 82.42 43.99 83.88 44.10 84.61 44.15 C 86.81 45.23 89.02 46.84 87.97 49.69 C 87.75 50.34 87.29 51.63 87.07 52.28 C 87.08 50.63 87.13 48.97 86.86 47.34 C 85.86 45.57 83.54 45.49 81.82 44.84 C 81.06 45.22 79.53 45.99 78.76 46.37 Z" />
<path fill="#3d4449" opacity="1.00" d=" M 55.18 54.24 C 55.77 54.75 55.77 54.75 55.18 54.24 Z" />
<path fill="#3d4449" opacity="1.00" d=" M 37.24 60.32 C 36.68 58.60 39.77 57.34 41.02 58.32 C 40.28 59.68 38.57 59.90 37.24 60.32 Z" />
<path fill="#3d4449" opacity="1.00" d=" M 38.16 90.65 C 39.98 87.43 39.75 82.82 43.24 80.77 C 41.52 84.00 40.39 87.49 39.37 90.99 C 39.15 92.48 39.02 93.97 38.89 95.47 L 38.39 94.94 C 38.01 93.54 38.18 92.08 38.16 90.65 Z" />
<path fill="#3d4449" opacity="1.00" d=" M 50.48 96.57 C 50.95 95.41 51.39 94.24 51.91 93.11 C 51.93 94.61 51.97 96.10 52.01 97.59 C 51.36 97.95 50.07 98.67 49.43 99.02 C 44.54 98.40 39.68 97.66 34.72 97.93 C 35.14 97.11 35.97 95.47 36.38 94.65 L 37.03 96.06 L 37.37 96.79 C 37.71 96.82 38.38 96.87 38.71 96.90 L 39.12 96.77 C 42.81 96.97 46.55 97.90 50.24 97.11 L 50.48 96.57 Z" />
</g>
<g id="#d5e8feff">
<path fill="#d5e8fe" opacity="1.00" d=" M 75.78 25.29 C 78.25 23.97 80.82 22.81 83.44 21.80 C 84.07 22.34 85.34 23.42 85.98 23.96 C 85.39 24.17 84.21 24.57 83.62 24.77 C 82.26 25.25 80.92 25.80 79.59 26.36 L 79.44 26.43 L 79.32 26.52 C 77.44 27.80 75.83 29.41 74.56 31.29 L 74.44 31.44 L 74.34 31.63 C 74.05 32.21 73.47 33.36 73.19 33.93 L 72.97 34.40 L 72.66 35.08 C 72.61 35.20 72.52 35.42 72.47 35.53 C 72.32 35.95 72.02 36.79 71.87 37.21 L 71.66 38.00 C 72.06 38.20 72.84 38.60 73.24 38.79 C 73.32 39.78 73.40 40.78 73.50 41.77 C 72.84 41.94 71.52 42.29 70.87 42.46 C 68.93 40.20 68.25 37.08 69.72 34.39 C 69.83 33.94 70.06 33.04 70.18 32.59 C 70.48 31.85 71.10 30.36 71.40 29.62 C 71.60 29.51 71.98 29.31 72.17 29.21 C 73.17 28.86 73.87 28.18 74.25 27.18 C 74.66 26.47 75.17 25.84 75.78 25.29 Z" />
<path fill="#d5e8fe" opacity="1.00" d=" M 43.53 25.18 C 44.16 28.82 45.28 32.34 46.17 35.92 C 46.25 38.94 44.16 41.47 43.21 44.24 C 42.84 37.89 43.13 31.52 43.53 25.18 Z" />
<path fill="#d5e8fe" opacity="1.00" d=" M 57.32 32.99 C 60.87 31.23 64.63 33.67 67.95 34.91 C 68.03 36.92 68.13 38.93 68.12 40.95 C 67.40 42.23 66.61 43.47 65.76 44.67 C 65.07 44.18 63.69 43.21 63.00 42.73 C 62.54 44.15 62.11 45.57 61.69 47.00 L 60.29 47.00 C 60.57 46.39 61.13 45.17 61.41 44.56 C 60.77 44.98 59.48 45.81 58.84 46.23 C 55.69 45.16 51.32 44.52 50.49 40.64 C 49.43 37.87 51.57 35.51 52.99 33.38 L 53.39 32.82 C 54.69 32.97 56.01 32.99 57.32 32.99 Z" />
<path fill="#d5e8fe" opacity="1.00" d=" M 81.82 44.84 C 83.54 45.49 85.86 45.57 86.86 47.34 C 87.13 48.97 87.08 50.63 87.07 52.28 C 87.29 51.63 87.75 50.34 87.97 49.69 L 88.33 48.73 C 88.52 50.42 88.97 52.33 87.67 53.74 C 87.65 55.27 87.85 56.98 86.20 57.73 L 85.61 58.02 C 84.98 56.94 84.53 55.76 84.03 54.63 C 83.99 56.02 83.95 57.40 83.89 58.79 C 80.90 57.24 78.26 55.13 75.91 52.73 C 75.96 52.11 76.07 50.88 76.13 50.26 C 77.06 49.00 77.81 47.62 78.76 46.37 C 79.53 45.99 81.06 45.22 81.82 44.84 M 85.25 52.31 C 85.77 52.80 85.77 52.80 85.25 52.31 Z" />
<path fill="#d5e8fe" opacity="1.00" d=" M 46.05 52.30 C 45.59 50.16 45.74 47.93 46.88 46.03 C 47.18 47.82 47.56 49.72 46.87 51.48 C 46.66 51.68 46.26 52.09 46.05 52.30 Z" />
<path fill="#d5e8fe" opacity="1.00" d=" M 63.00 45.72 C 63.60 45.74 64.79 45.78 65.38 45.80 C 65.02 47.77 65.25 49.79 65.26 51.78 C 64.70 52.08 63.57 52.69 63.00 52.99 C 62.96 50.57 62.99 48.15 63.00 45.72 Z" />
<path fill="#d5e8fe" opacity="1.00" d=" M 76.64 55.88 C 74.79 56.81 72.76 53.09 74.54 52.24 C 75.32 53.29 76.73 54.50 76.64 55.88 Z" />
<path fill="#d5e8fe" opacity="1.00" d=" M 43.82 57.16 C 44.23 57.13 45.04 57.07 45.44 57.04 C 46.71 57.95 48.00 58.82 49.31 59.67 C 49.14 60.46 48.96 61.24 48.77 62.03 C 43.50 62.01 38.76 65.36 33.44 64.46 C 33.91 63.80 34.84 62.47 35.31 61.81 C 35.81 61.11 36.45 60.61 37.24 60.32 C 38.57 59.90 40.28 59.68 41.02 58.32 L 41.43 57.64 C 42.03 57.52 43.23 57.28 43.82 57.16 Z" />
<path fill="#d5e8fe" opacity="1.00" d=" M 73.49 57.20 C 74.97 57.02 76.44 56.87 77.92 56.71 C 81.06 58.40 84.10 60.27 87.06 62.25 C 87.08 62.79 87.12 63.86 87.13 64.39 C 87.84 64.92 89.25 65.98 89.95 66.51 C 88.94 66.14 86.92 65.40 85.92 65.04 C 85.75 65.18 85.42 65.46 85.25 65.59 C 81.07 62.82 76.46 60.77 72.33 57.92 L 73.49 57.20 Z" />
<path fill="#d5e8fe" opacity="1.00" d=" M 86.00 67.00 C 85.38 66.38 85.38 66.38 86.00 67.00 Z" />
<path fill="#d5e8fe" opacity="1.00" d=" M 86.00 67.00 C 86.64 67.61 86.64 67.61 86.00 67.00 Z" />
<path fill="#d5e8fe" opacity="1.00" d=" M 88.27 67.25 C 88.88 67.85 88.88 67.85 88.27 67.25 Z" />
<path fill="#d5e8fe" opacity="1.00" d=" M 84.01 71.38 C 84.74 71.01 86.21 70.29 86.94 69.93 C 86.28 72.27 86.01 74.86 84.15 76.62 C 84.07 74.87 84.04 73.12 84.01 71.38 Z" />
</g>
<g id="#bbcdeeff">
<path fill="#bbcdee" opacity="1.00" d=" M 79.59 26.36 C 80.92 25.80 82.26 25.25 83.62 24.77 C 83.56 27.82 83.91 31.00 82.53 33.84 L 81.85 34.09 C 81.58 34.52 81.04 35.39 80.77 35.83 C 80.48 36.86 79.77 37.57 78.64 37.97 C 77.47 38.43 76.56 39.49 76.68 40.80 C 76.62 41.30 76.49 42.30 76.43 42.80 C 75.34 43.22 74.25 43.62 73.16 44.01 C 72.39 43.50 71.62 42.99 70.87 42.46 C 71.52 42.29 72.84 41.94 73.50 41.77 C 73.40 40.78 73.32 39.78 73.24 38.79 C 72.90 38.40 72.21 37.61 71.87 37.21 C 72.02 36.79 72.32 35.95 72.47 35.53 C 72.52 35.42 72.61 35.20 72.66 35.08 L 72.97 34.40 C 73.09 34.27 73.34 33.99 73.46 33.86 L 73.19 33.93 C 73.47 33.36 74.05 32.21 74.34 31.63 L 74.44 31.48 L 74.56 31.29 C 75.83 29.41 77.44 27.80 79.32 26.52 L 79.46 26.42 L 79.59 26.36 Z" />
<path fill="#bbcdee" opacity="1.00" d=" M 47.69 36.67 C 48.70 34.58 51.06 34.15 52.99 33.38 C 51.57 35.51 49.43 37.87 50.49 40.64 C 51.32 44.52 55.69 45.16 58.84 46.23 C 59.13 48.32 59.42 50.40 59.70 52.49 C 60.80 52.67 61.90 52.85 63.00 52.99 C 63.57 52.69 64.70 52.08 65.26 51.78 C 65.49 51.64 65.96 51.37 66.19 51.23 C 66.49 49.44 66.55 47.52 65.86 45.82 L 65.38 45.80 C 64.79 45.78 63.60 45.74 63.00 45.72 C 63.00 45.29 63.00 44.42 63.00 43.99 C 63.91 44.24 64.83 44.47 65.76 44.67 C 66.61 43.47 67.40 42.23 68.12 40.95 C 69.52 42.79 71.14 44.46 73.08 45.74 C 73.26 49.07 72.96 52.40 72.46 55.69 C 64.85 60.90 53.75 62.20 46.27 56.08 C 50.83 56.86 55.49 57.29 60.03 56.13 C 62.16 55.33 63.86 56.49 65.20 58.05 C 66.29 56.93 67.41 55.85 68.53 54.76 C 60.71 54.93 52.86 56.74 45.15 54.53 C 46.42 54.26 48.37 51.34 48.95 54.10 L 49.19 53.69 C 49.22 51.19 49.08 48.24 51.88 47.12 C 50.92 47.30 49.96 47.47 49.00 47.63 C 48.24 46.06 47.49 44.49 46.76 42.91 C 46.67 42.97 46.50 43.09 46.42 43.16 C 46.53 43.87 46.76 45.31 46.88 46.03 C 45.74 47.93 45.59 50.16 46.05 52.30 C 45.79 52.62 45.26 53.27 45.00 53.59 C 45.29 47.89 43.78 41.51 47.69 36.67 M 64.52 53.26 C 64.30 54.71 66.82 54.66 67.47 53.77 C 67.68 52.32 65.16 52.36 64.52 53.26 M 55.18 54.24 C 55.77 54.75 55.77 54.75 55.18 54.24 Z" />
<path fill="#bbcdee" opacity="1.00" d=" M 70.89 58.87 C 71.25 58.63 71.97 58.16 72.33 57.92 C 76.46 60.77 81.07 62.82 85.25 65.59 C 84.81 65.96 83.94 66.68 83.50 67.05 C 79.75 67.04 76.05 66.25 72.45 65.25 L 72.12 64.86 C 71.77 62.85 71.34 60.86 70.89 58.87 Z" />
<path fill="#bbcdee" opacity="1.00" d=" M 33.44 64.46 C 38.76 65.36 43.50 62.01 48.77 62.03 C 48.34 63.73 47.86 65.42 47.27 67.07 C 43.37 67.46 39.45 67.77 35.53 67.95 C 35.68 67.50 35.97 66.62 36.11 66.18 C 35.20 66.11 33.39 65.96 32.48 65.89 C 32.72 65.53 33.20 64.82 33.44 64.46 Z" />
<path fill="#bbcdee" opacity="1.00" d=" M 80.86 71.00 C 81.41 71.00 82.53 71.00 83.08 71.01 C 82.95 73.43 82.89 75.85 82.89 78.28 C 82.47 77.90 81.61 77.16 81.19 76.78 C 81.09 74.85 80.97 72.92 80.86 71.00 Z" />
<path fill="#bbcdee" opacity="1.00" d=" M 45.44 78.68 C 48.64 81.48 50.61 85.39 53.59 88.42 C 53.64 88.84 53.73 89.70 53.78 90.12 L 53.84 90.77 C 53.37 90.83 52.42 90.97 51.94 91.03 C 47.77 91.58 43.54 91.52 39.37 90.99 C 40.39 87.49 41.52 84.00 43.24 80.77 C 43.94 80.04 44.67 79.34 45.44 78.68 Z" />
<path fill="#bbcdee" opacity="1.00" d=" M 73.85 86.32 C 75.18 82.86 77.88 79.36 81.69 78.62 C 84.46 82.39 87.09 86.59 87.39 91.38 C 85.19 92.48 82.70 94.24 80.17 93.07 C 77.81 91.08 75.92 88.60 73.85 86.32 Z" />
<path fill="#bbcdee" opacity="1.00" d=" M 64.44 90.71 C 64.84 90.85 65.64 91.13 66.05 91.28 C 68.52 91.49 71.01 91.41 73.50 91.40 C 71.63 92.18 69.77 93.00 67.97 93.92 C 66.39 93.33 65.20 92.22 64.44 90.71 Z" />
<path fill="#bbcdee" opacity="1.00" d=" M 38.39 94.94 L 38.89 95.47 C 38.85 95.82 38.76 96.54 38.71 96.90 C 38.38 96.87 37.71 96.82 37.37 96.79 L 37.03 96.06 C 37.37 95.78 38.05 95.22 38.39 94.94 Z" />
<path fill="#bbcdee" opacity="1.00" d=" M 40.96 95.74 C 43.52 95.45 46.11 95.51 48.69 95.49 C 49.08 95.90 49.85 96.70 50.24 97.11 C 46.55 97.90 42.81 96.97 39.12 96.77 C 39.58 96.51 40.50 96.00 40.96 95.74 Z" />
</g>
<g id="#7fa9d7ff">
<path fill="#7fa9d7" opacity="1.00" d=" M 71.87 37.21 C 72.21 37.61 72.90 38.40 73.24 38.79 C 72.84 38.60 72.06 38.20 71.66 38.00 L 71.87 37.21 Z" />
<path fill="#7fa9d7" opacity="1.00" d=" M 85.25 52.31 C 85.77 52.80 85.77 52.80 85.25 52.31 Z" />
<path fill="#7fa9d7" opacity="1.00" d=" M 64.52 53.26 C 65.16 52.36 67.68 52.32 67.47 53.77 C 66.82 54.66 64.30 54.71 64.52 53.26 Z" />
<path fill="#7fa9d7" opacity="1.00" d=" M 72.45 65.25 C 76.05 66.25 79.75 67.04 83.50 67.05 C 84.45 68.03 85.39 69.01 86.33 69.99 C 81.29 70.24 74.99 70.68 72.45 65.25 Z" />
<path fill="#7fa9d7" opacity="1.00" d=" M 35.53 67.95 C 39.45 67.77 43.37 67.46 47.27 67.07 C 46.83 68.02 46.31 68.92 45.72 69.77 C 42.12 70.29 38.47 70.01 34.86 70.01 C 35.03 69.49 35.36 68.46 35.53 67.95 Z" />
<path fill="#7fa9d7" opacity="1.00" d=" M 73.15 85.53 L 73.85 86.32 C 75.92 88.60 77.81 91.08 80.17 93.07 C 82.70 94.24 85.19 92.48 87.39 91.38 L 87.97 91.07 C 87.94 93.43 88.26 95.76 89.03 97.99 C 84.85 97.85 80.53 98.56 76.44 97.64 C 75.81 95.53 75.35 93.37 74.83 91.23 C 74.38 90.83 73.48 90.04 73.03 89.65 C 73.06 88.27 73.10 86.90 73.15 85.53 Z" />
<path fill="#7fa9d7" opacity="1.00" d=" M 38.89 95.47 C 39.02 93.97 39.15 92.48 39.37 90.99 C 43.54 91.52 47.77 91.58 51.94 91.03 L 53.24 91.68 L 51.91 93.11 C 51.39 94.24 50.95 95.41 50.48 96.57 L 50.24 97.11 C 49.85 96.70 49.08 95.90 48.69 95.49 C 46.11 95.51 43.52 95.45 40.96 95.74 C 40.50 96.00 39.58 96.51 39.12 96.77 L 38.71 96.90 C 38.76 96.54 38.85 95.82 38.89 95.47 Z" />
</g>
<g id="#efe6c9ff">
<path fill="#efe6c9" opacity="1.00" d=" M 72.46 55.69 C 72.72 56.07 73.24 56.82 73.49 57.20 L 72.33 57.92 C 71.97 58.16 71.25 58.63 70.89 58.87 L 70.04 59.47 C 70.59 62.23 71.03 65.11 72.37 67.63 C 73.86 70.28 77.16 70.43 79.62 71.58 C 80.88 73.30 79.75 75.66 79.90 77.64 C 78.82 78.57 77.74 79.50 76.65 80.43 C 71.56 81.14 66.64 83.04 61.42 82.81 C 60.88 81.34 60.39 79.85 59.90 78.37 C 65.60 77.91 71.41 77.13 76.61 74.60 C 77.66 74.22 78.23 73.27 78.75 72.35 C 72.84 74.82 66.63 76.34 60.27 77.09 C 59.34 72.63 59.07 68.08 59.19 63.55 L 57.99 63.63 C 57.82 68.10 57.85 72.60 58.77 77.00 C 54.89 76.36 50.99 75.65 47.38 74.05 C 46.76 72.94 45.77 71.65 46.68 70.38 C 48.20 67.04 49.42 63.56 50.24 59.98 C 53.36 60.76 56.54 61.43 59.50 62.74 C 63.75 60.27 69.26 59.73 72.46 55.69 Z" />
<path fill="#efe6c9" opacity="1.00" d=" M 31.27 66.67 C 32.15 66.03 34.48 66.65 34.67 67.73 C 33.67 68.21 32.34 69.01 31.24 68.58 C 31.25 68.10 31.27 67.15 31.27 66.67 Z" />
<path fill="#efe6c9" opacity="1.00" d=" M 48.86 77.25 C 52.22 77.50 55.57 77.91 58.91 78.35 C 58.85 79.76 58.80 81.18 58.70 82.60 L 58.07 83.08 C 54.96 81.21 51.86 79.30 48.86 77.25 Z" />
<path fill="#efe6c9" opacity="1.00" d=" M 61.99 83.45 C 64.35 83.33 66.77 83.11 68.96 84.23 L 68.80 84.25 L 69.62 85.03 C 67.09 84.43 64.54 83.93 61.99 83.45 Z" />
</g>
<g id="#bbaa88ff">
<path fill="#bbaa88" opacity="1.00" d=" M 57.99 63.63 L 59.19 63.55 C 59.07 68.08 59.34 72.63 60.27 77.09 C 66.63 76.34 72.84 74.82 78.75 72.35 C 78.23 73.27 77.66 74.22 76.61 74.60 C 71.41 77.13 65.60 77.91 59.90 78.37 C 60.39 79.85 60.88 81.34 61.42 82.81 C 61.56 82.97 61.85 83.29 61.99 83.45 C 64.54 83.93 67.09 84.43 69.62 85.03 L 68.80 84.25 L 68.96 84.23 C 70.68 84.04 72.41 83.84 74.15 83.66 C 72.53 87.23 69.55 89.70 66.05 91.28 C 65.64 91.13 64.84 90.85 64.44 90.71 C 60.78 89.29 56.96 88.32 53.37 86.73 C 55.10 85.76 56.86 84.82 58.61 83.89 C 58.63 83.57 58.68 82.92 58.70 82.60 C 58.80 81.18 58.85 79.76 58.91 78.35 C 55.57 77.91 52.22 77.50 48.86 77.25 C 51.86 79.30 54.96 81.21 58.07 83.08 C 56.32 83.93 54.49 85.47 52.42 84.90 C 49.60 82.05 46.47 78.36 47.38 74.05 C 50.99 75.65 54.89 76.36 58.77 77.00 C 57.85 72.60 57.82 68.10 57.99 63.63 Z" />
</g>
</svg>
