<?xml version="1.0" encoding="UTF-8" ?>
<!DOCTYPE svg PUBLIC "-//W3C//DTD SVG 1.1//EN" "http://www.w3.org/Graphics/SVG/1.1/DTD/svg11.dtd">
<svg width="120pt" height="120pt" viewBox="0 0 120 120" version="1.1" xmlns="http://www.w3.org/2000/svg">
<g id="#3a3835ec">
<path fill="#3a3835" opacity="0.93" d=" M 55.69 41.56 C 57.62 38.28 58.47 34.47 60.71 31.36 C 62.22 35.01 62.91 38.93 64.39 42.58 C 66.06 44.62 69.32 44.97 70.38 47.60 C 72.72 51.01 71.95 55.23 72.01 59.10 L 70.83 58.73 C 71.92 53.39 70.48 46.19 64.37 44.77 C 59.77 45.25 54.28 42.96 50.46 46.43 C 47.48 49.08 47.00 53.33 46.94 57.10 C 48.26 55.47 49.57 53.83 51.04 52.34 C 50.26 53.81 49.43 55.26 48.61 56.72 C 51.34 59.19 54.76 60.35 58.39 59.32 C 58.14 57.70 57.97 56.07 57.60 54.47 C 55.99 53.13 53.76 52.96 51.82 52.33 C 54.19 52.24 56.56 52.51 58.90 52.84 C 58.89 55.18 58.87 57.53 58.77 59.88 C 54.79 61.65 50.81 60.11 47.25 58.16 C 48.84 60.22 50.53 62.19 52.27 64.12 L 52.00 65.10 C 49.58 63.14 46.81 61.04 46.08 57.83 C 45.63 54.63 45.88 51.24 47.69 48.47 C 49.29 45.10 53.30 44.16 55.69 41.56 M 55.79 43.87 C 58.31 43.96 60.83 43.98 63.36 43.99 C 62.35 40.47 61.26 36.98 60.40 33.42 C 59.01 36.97 57.47 40.45 55.79 43.87 Z" />
</g>
<g id="#fcfcfcff">
<path fill="#fcfcfc" opacity="1.00" d=" M 55.79 43.87 C 57.47 40.45 59.01 36.97 60.40 33.42 C 61.26 36.98 62.35 40.47 63.36 43.99 C 60.83 43.98 58.31 43.96 55.79 43.87 Z" />
</g>
<g id="#feda99ff">
<path fill="#feda99" opacity="1.00" d=" M 50.46 46.43 C 54.28 42.96 59.77 45.25 64.37 44.77 C 65.58 47.89 67.62 51.45 65.75 54.74 C 64.59 57.66 61.57 59.01 58.77 59.88 C 58.87 57.53 58.89 55.18 58.90 52.84 C 56.56 52.51 54.19 52.24 51.82 52.33 L 51.04 52.34 C 49.57 53.83 48.26 55.47 46.94 57.10 C 47.00 53.33 47.48 49.08 50.46 46.43 M 50.23 49.31 C 48.76 49.32 48.12 52.02 49.89 52.07 C 51.35 52.09 51.93 49.35 50.23 49.31 M 61.02 51.63 C 60.50 53.24 63.21 54.72 63.96 52.88 C 64.86 51.05 61.96 51.00 61.02 51.63 Z" />
</g>
<g id="#e5bf86ff">
<path fill="#e5bf86" opacity="1.00" d=" M 64.37 44.77 C 70.48 46.19 71.92 53.39 70.83 58.73 C 70.70 59.32 70.44 60.51 70.31 61.10 C 65.57 65.83 58.30 66.75 52.27 64.12 C 50.53 62.19 48.84 60.22 47.25 58.16 C 50.81 60.11 54.79 61.65 58.77 59.88 C 61.57 59.01 64.59 57.66 65.75 54.74 C 67.62 51.45 65.58 47.89 64.37 44.77 Z" />
</g>
<g id="#25201dff">
<path fill="#25201d" opacity="1.00" d=" M 50.23 49.31 C 51.93 49.35 51.35 52.09 49.89 52.07 C 48.12 52.02 48.76 49.32 50.23 49.31 Z" />
</g>
<g id="#130d0cff">
<path fill="#130d0c" opacity="1.00" d=" M 61.02 51.63 C 61.96 51.00 64.86 51.05 63.96 52.88 C 63.21 54.72 60.50 53.24 61.02 51.63 Z" />
</g>
<g id="#fca7d9ff">
<path fill="#fca7d9" opacity="1.00" d=" M 51.04 52.34 L 51.82 52.33 C 53.76 52.96 55.99 53.13 57.60 54.47 C 57.97 56.07 58.14 57.70 58.39 59.32 C 54.76 60.35 51.34 59.19 48.61 56.72 C 49.43 55.26 50.26 53.81 51.04 52.34 Z" />
</g>
<g id="#5c4d36ff">
<path fill="#5c4d36" opacity="1.00" d=" M 52.27 64.12 C 58.30 66.75 65.57 65.83 70.31 61.10 C 69.33 62.86 67.91 64.36 67.09 66.21 C 66.76 69.20 66.97 72.22 66.94 75.23 C 68.87 75.78 70.82 76.25 72.77 76.75 C 72.97 79.49 73.00 82.24 73.04 84.99 C 71.12 85.84 69.22 87.33 67.00 86.91 C 64.34 86.53 61.67 85.98 59.04 86.84 C 58.61 85.92 58.18 85.00 57.76 84.07 C 57.01 83.98 55.51 83.80 54.76 83.71 C 55.23 82.23 55.72 80.76 56.22 79.29 C 54.87 78.95 53.51 78.61 52.16 78.24 C 52.55 76.24 53.13 74.25 53.16 72.19 C 52.30 71.07 50.89 70.38 50.32 69.05 C 50.87 67.73 51.61 66.48 52.00 65.10 L 52.27 64.12 M 53.12 65.83 C 53.67 67.99 54.00 70.21 54.78 72.31 C 57.49 73.89 60.64 73.36 63.49 72.56 C 61.93 72.28 60.37 72.02 58.80 71.78 C 59.03 70.65 59.26 69.52 59.50 68.40 C 60.84 68.05 62.18 67.71 63.53 67.39 C 63.82 68.51 64.41 70.76 64.71 71.89 C 65.24 69.90 65.77 67.91 66.31 65.92 C 61.93 66.85 57.43 67.51 53.12 65.83 M 51.47 68.09 C 51.04 69.48 51.53 69.99 52.93 69.63 C 53.36 68.22 52.88 67.71 51.47 68.09 M 60.28 69.20 C 59.06 70.72 61.80 72.07 62.78 70.74 C 63.99 69.20 61.26 67.85 60.28 69.20 M 54.77 74.18 C 56.02 76.45 57.59 78.51 59.46 80.29 C 60.27 78.86 60.95 77.30 62.21 76.19 C 63.48 76.14 64.74 76.27 66.01 76.36 C 66.06 74.95 66.11 73.53 66.17 72.12 C 62.76 74.18 58.71 75.40 54.77 74.18 M 53.46 76.09 C 53.06 77.47 53.55 77.97 54.95 77.59 C 55.37 76.20 54.87 75.70 53.46 76.09 M 62.20 77.18 C 61.69 78.80 62.25 79.35 63.89 78.82 C 64.40 77.20 63.84 76.65 62.20 77.18 M 66.72 78.18 C 64.08 80.17 60.91 81.18 57.66 81.64 C 59.38 82.76 61.27 84.89 63.14 82.78 C 63.37 84.04 64.12 84.41 65.40 83.90 C 65.98 82.78 65.61 82.17 64.29 82.08 C 65.88 80.50 67.19 82.88 68.52 83.67 C 68.34 83.16 67.98 82.14 67.80 81.63 C 70.88 82.42 68.10 77.30 67.54 80.88 C 67.24 79.99 66.98 79.08 66.72 78.18 M 56.25 82.25 C 56.80 82.79 56.80 82.79 56.25 82.25 M 70.28 84.35 C 70.84 84.91 70.84 84.91 70.28 84.35 M 65.27 85.15 C 65.45 88.45 68.28 83.60 65.27 85.15 Z" />
</g>
<g id="#eac389ff">
<path fill="#eac389" opacity="1.00" d=" M 53.12 65.83 C 57.43 67.51 61.93 66.85 66.31 65.92 C 65.77 67.91 65.24 69.90 64.71 71.89 C 64.41 70.76 63.82 68.51 63.53 67.39 C 62.18 67.71 60.84 68.05 59.50 68.40 C 59.26 69.52 59.03 70.65 58.80 71.78 C 60.37 72.02 61.93 72.28 63.49 72.56 C 60.64 73.36 57.49 73.89 54.78 72.31 C 54.00 70.21 53.67 67.99 53.12 65.83 Z" />
</g>
<g id="#f5a0d0ff">
<path fill="#f5a0d0" opacity="1.00" d=" M 51.47 68.09 C 52.88 67.71 53.36 68.22 52.93 69.63 C 51.53 69.99 51.04 69.48 51.47 68.09 Z" />
</g>
<g id="#f6a0d1ff">
<path fill="#f6a0d1" opacity="1.00" d=" M 60.28 69.20 C 61.26 67.85 63.99 69.20 62.78 70.74 C 61.80 72.07 59.06 70.72 60.28 69.20 Z" />
</g>
<g id="#d8b27aff">
<path fill="#d8b27a" opacity="1.00" d=" M 54.77 74.18 C 58.71 75.40 62.76 74.18 66.17 72.12 C 66.11 73.53 66.06 74.95 66.01 76.36 C 64.74 76.27 63.48 76.14 62.21 76.19 C 60.95 77.30 60.27 78.86 59.46 80.29 C 57.59 78.51 56.02 76.45 54.77 74.18 Z" />
</g>
<g id="#f49eceff">
<path fill="#f49ece" opacity="1.00" d=" M 53.46 76.09 C 54.87 75.70 55.37 76.20 54.95 77.59 C 53.55 77.97 53.06 77.47 53.46 76.09 Z" />
</g>
<g id="#f39dccff">
<path fill="#f39dcc" opacity="1.00" d=" M 62.20 77.18 C 63.84 76.65 64.40 77.20 63.89 78.82 C 62.25 79.35 61.69 78.80 62.20 77.18 Z" />
</g>
<g id="#b58b53ff">
<path fill="#b58b53" opacity="1.00" d=" M 66.72 78.18 C 66.98 79.08 67.24 79.99 67.54 80.88 L 67.80 81.63 C 67.98 82.14 68.34 83.16 68.52 83.67 C 67.19 82.88 65.88 80.50 64.29 82.08 C 64.00 82.25 63.43 82.60 63.14 82.78 C 61.27 84.89 59.38 82.76 57.66 81.64 C 60.91 81.18 64.08 80.17 66.72 78.18 Z" />
</g>
<g id="#d8b37bff">
<path fill="#d8b37b" opacity="1.00" d=" M 67.54 80.88 C 68.10 77.30 70.88 82.42 67.80 81.63 L 67.54 80.88 Z" />
</g>
<g id="#e796c2ff">
<path fill="#e796c2" opacity="1.00" d=" M 56.25 82.25 C 56.80 82.79 56.80 82.79 56.25 82.25 Z" />
</g>
<g id="#e191bcff">
<path fill="#e191bc" opacity="1.00" d=" M 64.29 82.08 C 65.61 82.17 65.98 82.78 65.40 83.90 C 64.12 84.41 63.37 84.04 63.14 82.78 C 63.43 82.60 64.00 82.25 64.29 82.08 Z" />
</g>
<g id="#f09ccaff">
<path fill="#f09cca" opacity="1.00" d=" M 70.28 84.35 C 70.84 84.91 70.84 84.91 70.28 84.35 Z" />
</g>
<g id="#ec99c7ff">
<path fill="#ec99c7" opacity="1.00" d=" M 65.27 85.15 C 68.28 83.60 65.45 88.45 65.27 85.15 Z" />
</g>
</svg>
