<?xml version="1.0" encoding="UTF-8" ?>
<!DOCTYPE svg PUBLIC "-//W3C//DTD SVG 1.1//EN" "http://www.w3.org/Graphics/SVG/1.1/DTD/svg11.dtd">
<svg width="120pt" height="120pt" viewBox="0 0 120 120" version="1.1" xmlns="http://www.w3.org/2000/svg">
<g id="#2a302fff">
<path fill="#2a302f" opacity="1.00" d=" M 62.37 35.00 C 64.52 35.20 67.57 35.14 68.38 37.62 C 69.47 39.68 68.89 42.11 68.96 44.34 C 66.20 43.19 67.13 39.05 64.11 37.81 C 64.31 37.31 64.72 36.32 64.92 35.83 C 63.60 36.20 62.28 36.59 60.98 37.04 C 61.33 36.53 62.02 35.51 62.37 35.00 Z" />
</g>
<g id="#bfad92ff">
<path fill="#bfad92" opacity="1.00" d=" M 60.98 37.04 C 62.28 36.59 63.60 36.20 64.92 35.83 C 64.72 36.32 64.31 37.31 64.11 37.81 C 63.77 38.24 63.09 39.11 62.75 39.54 C 61.57 39.64 60.29 39.65 59.62 38.48 C 59.96 38.12 60.64 37.40 60.98 37.04 Z" />
</g>
<g id="#313d2af8">
<path fill="#313d2a" opacity="0.97" d=" M 51.93 44.91 C 53.81 42.02 57.28 40.91 59.62 38.48 C 60.29 39.65 61.57 39.64 62.75 39.54 C 64.30 42.46 67.34 44.29 68.59 47.38 C 70.87 52.34 69.55 57.90 70.01 63.14 C 76.27 61.89 83.73 60.56 89.15 64.84 C 93.37 68.69 94.36 74.79 93.89 80.24 C 90.50 79.76 88.54 76.45 85.23 75.74 C 79.00 73.35 71.55 77.11 65.93 72.78 C 66.09 71.27 66.18 69.76 66.34 68.26 C 70.02 61.90 70.45 53.53 67.12 46.95 C 64.63 43.70 61.27 39.86 56.67 41.07 C 58.16 41.71 59.69 42.24 61.22 42.79 C 58.00 42.80 54.59 42.83 51.93 44.91 M 69.40 64.93 C 67.99 67.00 66.94 69.29 66.83 71.83 C 72.01 75.89 78.91 73.76 84.94 74.09 C 88.03 75.15 90.65 77.14 93.22 79.10 C 93.55 72.61 90.54 65.06 83.68 63.31 C 78.90 62.66 73.79 62.63 69.40 64.93 Z" />
</g>
<g id="#fffe74ff">
<path fill="#fffe74" opacity="1.00" d=" M 56.67 41.07 C 61.27 39.86 64.63 43.70 67.12 46.95 C 70.45 53.53 70.02 61.90 66.34 68.26 C 64.98 69.61 63.56 70.90 62.14 72.19 C 61.43 67.59 58.57 63.66 54.91 60.91 C 56.62 61.17 58.31 61.51 59.99 61.89 C 62.34 59.91 62.02 56.79 62.04 54.02 C 59.73 53.55 56.98 53.36 55.15 55.18 C 54.00 56.92 54.64 59.02 54.91 60.91 C 53.27 60.46 51.61 60.12 49.95 59.77 C 50.67 58.27 51.40 56.77 52.12 55.27 C 51.11 53.88 50.09 52.49 49.08 51.10 C 49.84 49.43 50.52 47.73 51.21 46.03 C 51.39 45.75 51.75 45.19 51.93 44.91 C 54.59 42.83 58.00 42.80 61.22 42.79 C 59.69 42.24 58.16 41.71 56.67 41.07 Z" />
</g>
<g id="#4c4d3df4">
<path fill="#4c4d3d" opacity="0.96" d=" M 43.81 57.02 C 47.98 54.75 47.85 49.05 51.21 46.03 C 50.52 47.73 49.84 49.43 49.08 51.10 C 50.09 52.49 51.11 53.88 52.12 55.27 C 51.40 56.77 50.67 58.27 49.95 59.77 C 51.61 60.12 53.27 60.46 54.91 60.91 C 58.57 63.66 61.43 67.59 62.14 72.19 C 62.12 73.42 62.08 74.64 62.03 75.87 C 62.60 75.74 63.75 75.48 64.32 75.35 C 62.85 76.88 61.35 78.37 59.92 79.93 C 62.75 73.49 59.84 65.66 53.93 62.10 C 51.44 60.18 48.11 61.14 45.23 61.10 C 45.39 60.57 45.72 59.51 45.89 58.98 C 41.62 57.22 37.06 58.22 33.02 60.06 C 35.74 56.88 40.01 57.12 43.81 57.02 M 49.39 53.77 C 49.01 55.84 48.06 57.69 46.97 59.46 C 48.90 58.91 50.30 57.51 51.49 55.96 C 50.79 55.23 50.09 54.49 49.39 53.77 Z" />
</g>
<g id="#4c4949ff">
<path fill="#4c4949" opacity="1.00" d=" M 55.15 55.18 C 56.98 53.36 59.73 53.55 62.04 54.02 C 62.02 56.79 62.34 59.91 59.99 61.89 C 58.31 61.51 56.62 61.17 54.91 60.91 C 54.64 59.02 54.00 56.92 55.15 55.18 M 56.24 55.01 C 55.90 55.93 55.55 56.84 55.20 57.76 C 55.46 58.34 55.98 59.49 56.24 60.07 C 57.85 60.19 59.47 60.30 61.08 60.30 C 61.08 58.55 61.08 56.81 61.06 55.06 C 59.45 55.02 57.85 55.00 56.24 55.01 Z" />
<path fill="#4c4949" opacity="1.00" d=" M 43.93 69.05 C 44.49 66.36 46.75 63.24 49.86 64.00 C 54.69 65.27 57.45 70.25 58.09 74.90 C 57.60 76.42 56.72 77.77 55.95 79.15 C 53.61 78.93 50.98 79.51 48.93 78.07 C 45.87 76.15 44.57 72.43 43.93 69.05 M 48.34 69.67 C 49.74 73.19 53.25 74.93 56.82 75.41 C 55.95 70.99 53.62 66.29 48.92 65.04 C 46.11 64.91 47.48 68.29 48.34 69.67 Z" />
</g>
<g id="#f8f8f8ff">
<path fill="#f8f8f8" opacity="1.00" d=" M 49.39 53.77 C 50.09 54.49 50.79 55.23 51.49 55.96 C 50.30 57.51 48.90 58.91 46.97 59.46 C 48.06 57.69 49.01 55.84 49.39 53.77 Z" />
</g>
<g id="#f6f6f6ff">
<path fill="#f6f6f6" opacity="1.00" d=" M 56.24 55.01 C 57.85 55.00 59.45 55.02 61.06 55.06 C 61.08 56.81 61.08 58.55 61.08 60.30 C 59.47 60.30 57.85 60.19 56.24 60.07 C 55.98 59.49 55.46 58.34 55.20 57.76 C 55.55 56.84 55.90 55.93 56.24 55.01 M 56.96 56.03 C 56.96 56.77 56.95 58.25 56.94 59.00 C 57.71 59.00 59.24 59.00 60.00 59.00 C 60.00 58.25 59.99 56.75 59.99 56.00 C 59.23 56.00 57.72 56.02 56.96 56.03 Z" />
</g>
<g id="#3e3a39ff">
<path fill="#3e3a39" opacity="1.00" d=" M 56.96 56.03 C 57.72 56.02 59.23 56.00 59.99 56.00 C 59.99 56.75 60.00 58.25 60.00 59.00 C 59.24 59.00 57.71 59.00 56.94 59.00 C 56.95 58.25 56.96 56.77 56.96 56.03 Z" />
</g>
<g id="#ace3a2ff">
<path fill="#ace3a2" opacity="1.00" d=" M 33.02 60.06 C 37.06 58.22 41.62 57.22 45.89 58.98 C 45.72 59.51 45.39 60.57 45.23 61.10 C 44.21 62.12 43.15 63.11 42.22 64.22 C 40.93 65.71 40.15 67.67 38.60 68.92 C 34.67 68.60 30.88 66.28 26.91 68.00 C 28.36 66.04 29.68 64.00 31.08 62.01 C 31.66 61.29 32.30 60.64 33.02 60.06 Z" />
</g>
<g id="#feccccff">
<path fill="#fecccc" opacity="1.00" d=" M 45.23 61.10 C 48.11 61.14 51.44 60.18 53.93 62.10 C 59.84 65.66 62.75 73.49 59.92 79.93 C 59.72 80.23 59.31 80.84 59.10 81.15 C 54.97 83.63 49.75 83.09 46.21 79.79 C 42.37 75.79 39.37 69.63 42.22 64.22 C 43.15 63.11 44.21 62.12 45.23 61.10 M 43.93 69.05 C 44.57 72.43 45.87 76.15 48.93 78.07 C 50.98 79.51 53.61 78.93 55.95 79.15 C 56.72 77.77 57.60 76.42 58.09 74.90 C 57.45 70.25 54.69 65.27 49.86 64.00 C 46.75 63.24 44.49 66.36 43.93 69.05 Z" />
</g>
<g id="#2f3631ed">
<path fill="#2f3631" opacity="0.93" d=" M 24.71 70.14 C 26.22 67.06 27.99 63.76 31.08 62.01 C 29.68 64.00 28.36 66.04 26.91 68.00 C 30.88 66.28 34.67 68.60 38.60 68.92 C 40.15 67.67 40.93 65.71 42.22 64.22 C 39.37 69.63 42.37 75.79 46.21 79.79 C 49.75 83.09 54.97 83.63 59.10 81.15 C 56.95 84.05 53.02 84.75 49.85 83.14 C 43.82 81.72 41.44 75.41 39.71 70.17 C 36.62 70.17 33.57 69.53 30.90 67.90 C 28.85 68.68 26.82 69.52 24.71 70.14 Z" />
</g>
<g id="#b5f0abff">
<path fill="#b5f0ab" opacity="1.00" d=" M 69.40 64.93 C 73.79 62.63 78.90 62.66 83.68 63.31 C 90.54 65.06 93.55 72.61 93.22 79.10 C 90.65 77.14 88.03 75.15 84.94 74.09 C 80.52 72.55 75.56 72.79 71.39 70.51 C 69.13 69.58 69.76 66.85 69.40 64.93 Z" />
</g>
<g id="#985c77ff">
<path fill="#985c77" opacity="1.00" d=" M 48.34 69.67 C 47.48 68.29 46.11 64.91 48.92 65.04 C 53.62 66.29 55.95 70.99 56.82 75.41 C 53.25 74.93 49.74 73.19 48.34 69.67 Z" />
</g>
<g id="#8fc585ff">
<path fill="#8fc585" opacity="1.00" d=" M 66.83 71.83 C 66.94 69.29 67.99 67.00 69.40 64.93 C 69.76 66.85 69.13 69.58 71.39 70.51 C 75.56 72.79 80.52 72.55 84.94 74.09 C 78.91 73.76 72.01 75.89 66.83 71.83 Z" />
</g>
<g id="#b6b64dff">
<path fill="#b6b64d" opacity="1.00" d=" M 62.14 72.19 C 63.56 70.90 64.98 69.61 66.34 68.26 C 66.18 69.76 66.09 71.27 65.93 72.78 C 65.45 73.67 64.91 74.52 64.32 75.35 C 63.75 75.48 62.60 75.74 62.03 75.87 C 62.08 74.64 62.12 73.42 62.14 72.19 Z" />
</g>
</svg>
