<?xml version="1.0" encoding="UTF-8" ?>
<!DOCTYPE svg PUBLIC "-//W3C//DTD SVG 1.1//EN" "http://www.w3.org/Graphics/SVG/1.1/DTD/svg11.dtd">
<svg width="96pt" height="96pt" viewBox="0 0 96 96" version="1.1" xmlns="http://www.w3.org/2000/svg">
<g id="#d3bf46f9">
<path fill="#d3bf46" opacity="0.98" d=" M 65.00 14.00 C 66.54 14.00 68.09 14.00 69.64 14.00 C 70.06 14.51 70.91 15.52 71.33 16.03 C 71.89 16.03 73.01 16.03 73.57 16.03 C 74.37 16.84 75.18 17.65 76.00 18.44 C 75.98 18.95 75.94 19.98 75.92 20.49 C 73.76 21.83 75.80 23.50 76.97 24.47 C 76.97 24.99 76.98 26.04 76.98 26.56 C 75.82 27.67 74.69 28.80 73.58 29.95 C 73.05 29.97 72.00 30.01 71.47 30.03 C 70.97 30.45 69.97 31.30 69.47 31.73 L 68.40 31.91 C 69.85 28.50 74.95 28.96 75.90 25.16 C 75.38 24.02 74.18 23.47 73.20 22.81 C 72.71 22.57 71.74 22.08 71.26 21.84 C 72.44 20.94 74.09 20.42 74.68 18.95 C 74.00 17.12 72.04 17.29 70.46 17.05 C 69.38 14.92 67.31 14.07 65.00 14.63 L 65.00 14.00 Z" />
</g>
<g id="#f6ee94ff">
<path fill="#f6ee94" opacity="1.00" d=" M 53.36 15.02 C 53.91 15.03 55.03 15.04 55.59 15.05 C 56.99 16.76 60.92 18.96 57.64 21.01 C 57.34 21.05 56.75 21.12 56.45 21.16 C 53.77 20.71 48.64 22.43 48.94 18.05 L 48.81 17.05 C 49.53 17.05 50.95 17.07 51.67 17.08 C 52.09 16.56 52.94 15.53 53.36 15.02 Z" />
<path fill="#f6ee94" opacity="1.00" d=" M 62.51 17.37 C 63.14 16.28 63.97 15.37 65.00 14.63 C 67.31 14.07 69.38 14.92 70.46 17.05 C 72.04 17.29 74.00 17.12 74.68 18.95 C 74.09 20.42 72.44 20.94 71.26 21.84 C 71.74 22.08 72.71 22.57 73.20 22.81 C 73.56 23.92 73.92 25.03 74.28 26.14 C 72.75 26.58 71.17 26.80 69.59 26.82 C 69.53 24.54 69.03 22.31 67.87 20.33 C 65.39 20.94 62.72 20.46 62.51 17.37 Z" />
<path fill="#f6ee94" opacity="1.00" d=" M 59.06 25.88 C 58.95 23.93 58.71 21.59 60.98 20.80 C 61.68 20.89 63.08 21.07 63.78 21.16 C 65.46 22.01 64.62 24.20 64.85 25.68 C 63.17 25.74 61.48 25.80 59.79 25.85 L 59.06 25.88 Z" />
<path fill="#f6ee94" opacity="1.00" d=" M 20.95 22.41 L 22.10 21.78 C 22.81 21.69 24.22 21.50 24.93 21.40 C 25.68 23.06 27.67 24.67 26.88 26.67 C 25.46 28.49 23.11 29.09 21.10 30.04 C 22.15 31.01 23.21 31.97 24.16 33.03 C 23.48 34.95 21.15 35.04 19.59 35.88 C 17.85 34.16 18.13 31.71 18.20 29.47 C 17.04 29.90 15.88 30.32 14.72 30.75 C 12.46 29.13 12.29 26.51 12.82 24.00 L 12.94 22.87 L 14.48 22.69 C 17.09 22.94 18.60 24.98 19.95 26.99 C 20.26 25.67 20.57 24.36 20.84 23.03 L 20.95 22.41 Z" />
<path fill="#f6ee94" opacity="1.00" d=" M 12.00 47.45 C 13.58 46.53 15.41 42.35 17.27 44.93 C 18.88 47.22 21.77 47.40 24.28 47.91 L 25.27 48.09 L 25.07 48.26 C 22.13 49.00 20.66 51.57 18.72 53.59 C 17.01 53.32 15.39 52.68 13.78 52.06 C 11.76 51.31 11.96 49.20 12.00 47.45 Z" />
<path fill="#f6ee94" opacity="1.00" d=" M 79.47 52.44 C 78.17 50.25 80.96 48.54 81.86 46.74 C 82.67 47.31 83.48 47.88 84.30 48.45 C 85.64 48.25 86.99 48.05 88.34 47.89 C 89.22 48.65 90.27 49.43 90.11 50.75 C 86.57 51.17 82.99 53.74 79.47 52.44 Z" />
<path fill="#f6ee94" opacity="1.00" d=" M 73.00 62.43 C 72.50 60.75 73.62 59.43 75.05 58.76 C 76.51 58.93 78.03 58.98 79.41 59.57 C 80.28 60.71 79.65 62.26 79.78 63.58 C 78.22 63.77 76.67 63.96 75.11 64.14 C 77.53 65.82 79.67 68.45 78.24 71.53 C 76.74 70.17 75.28 68.78 73.82 67.38 C 72.62 67.91 71.50 68.78 70.17 68.91 C 68.86 68.38 67.64 67.66 66.40 67.00 C 67.21 65.36 67.07 62.74 69.18 62.15 C 70.51 62.14 71.78 62.62 73.07 62.91 L 73.00 62.43 Z" />
</g>
<g id="#eed56aff">
<path fill="#eed56a" opacity="1.00" d=" M 62.26 16.65 L 62.51 17.37 C 62.72 20.46 65.39 20.94 67.87 20.33 C 69.03 22.31 69.53 24.54 69.59 26.82 C 71.17 26.80 72.75 26.58 74.28 26.14 C 73.92 25.03 73.56 23.92 73.20 22.81 C 74.18 23.47 75.38 24.02 75.90 25.16 C 74.95 28.96 69.85 28.50 68.40 31.91 L 68.39 31.91 C 67.39 31.32 66.46 30.63 65.61 29.84 C 65.20 30.17 64.39 30.84 63.99 31.17 C 61.97 29.96 60.93 27.81 59.79 25.85 C 61.48 25.80 63.17 25.74 64.85 25.68 C 64.62 24.20 65.46 22.01 63.78 21.16 C 63.08 21.07 61.68 20.89 60.98 20.80 C 62.02 19.66 62.04 18.09 62.26 16.65 Z" />
<path fill="#eed56a" opacity="1.00" d=" M 13.67 22.43 C 15.09 21.81 16.54 21.13 18.11 21.10 C 17.94 22.74 19.38 25.05 20.84 23.03 C 20.57 24.36 20.26 25.67 19.95 26.99 C 18.60 24.98 17.09 22.94 14.48 22.69 L 13.67 22.43 Z" />
<path fill="#eed56a" opacity="1.00" d=" M 24.93 21.40 C 25.54 21.68 26.76 22.23 27.37 22.51 C 28.48 24.59 28.90 28.21 32.00 27.96 C 32.59 28.03 33.78 28.16 34.38 28.22 L 33.73 28.48 C 29.31 29.46 26.26 32.86 24.36 36.79 C 22.77 36.51 21.17 36.23 19.59 35.88 C 21.15 35.04 23.48 34.95 24.16 33.03 C 23.21 31.97 22.15 31.01 21.10 30.04 C 23.11 29.09 25.46 28.49 26.88 26.67 C 27.67 24.67 25.68 23.06 24.93 21.40 Z" />
<path fill="#eed56a" opacity="1.00" d=" M 78.19 47.18 C 79.99 46.67 83.52 44.48 84.24 47.27 C 85.62 45.11 87.12 46.35 88.34 47.89 C 86.99 48.05 85.64 48.25 84.30 48.45 C 83.48 47.88 82.67 47.31 81.86 46.74 C 80.96 48.54 78.17 50.25 79.47 52.44 C 82.99 53.74 86.57 51.17 90.11 50.75 C 90.15 52.49 88.85 53.60 87.71 54.70 C 86.36 54.93 85.46 55.98 84.51 56.86 C 83.48 56.88 82.45 56.89 81.42 56.90 C 80.01 55.36 78.53 53.89 76.95 52.52 C 76.66 51.11 78.99 49.46 77.13 48.53 C 77.40 48.20 77.93 47.52 78.19 47.18 Z" />
<path fill="#eed56a" opacity="1.00" d=" M 66.84 54.01 C 67.82 52.60 68.99 50.85 70.93 50.91 C 72.18 51.21 72.81 52.43 72.76 53.63 C 72.35 53.23 71.55 52.41 71.15 52.00 C 69.83 52.44 68.58 53.06 67.39 53.79 C 68.70 54.50 70.02 55.19 71.34 55.86 C 70.79 55.94 69.67 56.11 69.12 56.20 C 68.24 55.59 67.48 54.86 66.84 54.01 Z" />
<path fill="#eed56a" opacity="1.00" d=" M 74.99 57.99 C 76.81 58.00 78.62 58.03 80.44 58.05 C 81.58 59.18 82.73 60.31 83.89 61.42 C 83.89 62.47 83.90 63.52 83.90 64.58 C 82.51 65.91 81.13 67.25 79.72 68.56 C 80.73 69.25 81.16 70.25 81.01 71.57 C 79.33 73.17 77.58 74.72 75.55 75.87 C 74.52 75.87 73.49 75.86 72.46 75.86 C 70.52 74.81 68.64 73.55 67.76 71.44 C 66.96 69.23 63.92 70.39 62.87 68.38 C 64.04 67.90 65.22 67.45 66.40 67.00 C 67.64 67.66 68.86 68.38 70.17 68.91 C 71.50 68.78 72.62 67.91 73.82 67.38 C 75.28 68.78 76.74 70.17 78.24 71.53 C 79.67 68.45 77.53 65.82 75.11 64.14 C 76.67 63.96 78.22 63.77 79.78 63.58 C 79.65 62.26 80.28 60.71 79.41 59.57 C 78.03 58.98 76.51 58.93 75.05 58.76 L 74.99 57.99 Z" />
</g>
<g id="#e2cc57ff">
<path fill="#e2cc57" opacity="1.00" d=" M 47.99 17.99 L 48.94 18.05 C 48.64 22.43 53.77 20.71 56.45 21.16 C 55.62 21.71 54.80 22.27 53.98 22.82 C 52.95 23.30 51.89 23.68 50.80 23.98 C 49.78 23.29 48.92 22.41 48.00 21.60 C 48.00 20.40 47.99 19.19 47.99 17.99 Z" />
</g>
<g id="#cdbb36ff">
<path fill="#cdbb36" opacity="1.00" d=" M 18.11 21.10 C 19.19 21.23 20.14 21.66 20.95 22.41 L 20.84 23.03 C 19.38 25.05 17.94 22.74 18.11 21.10 Z" />
</g>
<g id="#b9a838df">
<path fill="#b9a838" opacity="0.87" d=" M 21.97 20.98 C 23.58 20.99 25.19 21.00 26.81 21.00 C 27.75 22.11 28.66 23.26 29.43 24.49 C 29.63 25.12 30.04 26.37 30.24 27.00 C 30.68 27.00 31.56 27.00 32.00 27.00 L 32.00 27.96 C 28.90 28.21 28.48 24.59 27.37 22.51 C 26.76 22.23 25.54 21.68 24.93 21.40 C 24.22 21.50 22.81 21.69 22.10 21.78 L 21.97 20.98 Z" />
</g>
<g id="#d3bf3fff">
<path fill="#d3bf3f" opacity="1.00" d=" M 56.45 21.16 C 56.75 21.12 57.34 21.05 57.64 21.01 C 57.97 22.38 55.39 24.94 54.11 23.46 L 53.98 22.82 C 54.80 22.27 55.62 21.71 56.45 21.16 Z" />
<path fill="#d3bf3f" opacity="1.00" d=" M 18.72 53.59 C 20.66 51.57 22.13 49.00 25.07 48.26 L 24.98 49.66 C 22.12 50.05 21.61 53.37 19.66 55.02 C 18.57 55.00 17.47 54.99 16.38 54.99 C 15.51 54.01 14.64 53.03 13.78 52.06 C 15.39 52.68 17.01 53.32 18.72 53.59 Z" />
</g>
<g id="#8b52acff">
<path fill="#8b52ac" opacity="1.00" d=" M 41.86 24.93 C 41.75 22.78 44.73 20.68 45.99 23.06 C 46.19 23.54 46.57 24.51 46.77 24.99 C 47.04 25.32 47.58 26.00 47.85 26.33 C 48.19 27.69 49.95 28.95 51.08 27.60 L 52.08 26.75 L 51.97 28.28 C 52.04 28.69 52.18 29.53 52.26 29.95 C 51.87 30.20 51.11 30.71 50.73 30.97 C 49.48 31.64 49.49 32.29 50.77 32.90 C 51.16 33.20 51.96 33.81 52.36 34.11 C 53.24 34.94 54.13 35.77 55.01 36.61 C 54.36 37.18 53.71 37.76 53.08 38.36 C 51.34 36.67 50.36 40.10 52.74 39.15 C 52.01 40.87 51.20 42.56 50.44 44.27 L 49.93 43.01 L 49.81 42.68 C 49.13 41.04 49.29 39.33 49.63 37.63 L 49.62 37.62 L 49.46 37.45 C 49.19 37.17 48.66 36.60 48.40 36.31 L 48.05 37.01 C 47.52 37.23 46.47 37.66 45.94 37.88 C 45.29 38.69 44.61 39.47 43.89 40.22 C 43.59 40.11 42.99 39.89 42.69 39.78 C 42.32 39.37 41.59 38.55 41.22 38.14 C 40.83 37.77 40.04 37.02 39.64 36.65 C 39.24 37.07 38.43 37.91 38.03 38.32 C 37.25 37.58 36.47 36.83 35.69 36.09 C 36.20 35.51 37.22 34.35 37.73 33.77 C 37.35 33.43 36.59 32.76 36.22 32.42 C 38.70 31.91 41.26 31.54 43.60 30.51 C 44.83 28.21 45.06 25.57 45.52 23.05 C 43.71 23.02 43.10 24.05 43.25 25.61 C 41.34 26.24 39.53 27.12 37.93 28.35 L 37.43 28.45 L 37.31 28.86 L 37.72 28.84 C 37.51 29.34 37.08 30.35 36.87 30.86 C 36.19 29.88 35.51 28.92 34.81 27.95 C 35.19 27.48 35.93 26.54 36.31 26.07 C 38.24 26.11 40.11 25.75 41.86 24.93 M 43.18 32.27 C 42.71 33.88 43.30 34.38 44.95 33.79 C 45.43 32.18 44.83 31.68 43.18 32.27 M 39.03 35.21 C 39.20 35.16 39.53 35.07 39.69 35.02 C 39.75 34.57 39.86 33.66 39.91 33.20 C 38.42 31.39 36.89 34.97 39.03 35.21 M 43.39 35.42 C 43.98 37.42 48.20 35.50 46.85 33.52 C 45.58 33.52 44.49 34.81 43.39 35.42 Z" />
<path fill="#8b52ac" opacity="1.00" d=" M 51.80 42.08 C 52.37 41.75 53.50 41.10 54.06 40.78 C 51.42 43.45 54.97 46.08 57.11 43.43 C 56.83 43.83 56.27 44.65 56.00 45.05 C 55.06 45.43 54.13 45.80 53.20 46.18 C 52.80 44.79 52.31 43.43 51.80 42.08 Z" />
<path fill="#8b52ac" opacity="1.00" d=" M 44.30 44.33 C 45.12 43.61 47.66 43.34 47.74 44.75 C 46.91 45.43 44.39 45.73 44.30 44.33 Z" />
<path fill="#8b52ac" opacity="1.00" d=" M 57.22 58.97 L 58.28 58.60 C 58.92 58.77 60.20 59.10 60.84 59.26 C 61.07 59.88 61.52 61.11 61.74 61.73 L 60.43 62.92 C 59.86 63.42 59.40 63.99 59.03 64.65 C 59.87 65.47 60.76 66.23 61.69 66.96 L 62.25 67.41 C 61.95 67.68 61.36 68.23 61.06 68.51 C 60.65 68.85 59.83 69.53 59.42 69.88 C 58.88 69.92 57.79 70.01 57.24 70.05 C 57.44 69.41 57.82 68.11 58.01 67.46 C 57.55 67.90 56.64 68.78 56.18 69.21 C 56.09 69.66 55.90 70.55 55.81 70.99 L 55.69 71.60 L 55.53 71.64 C 54.98 71.79 53.86 72.10 53.30 72.25 C 54.17 70.21 54.69 68.04 55.11 65.87 C 57.10 65.91 57.87 63.87 58.32 62.29 C 57.98 62.49 57.30 62.90 56.96 63.10 C 55.94 62.40 54.91 61.72 53.88 61.05 C 54.98 60.34 56.09 59.63 57.22 58.97 Z" />
</g>
<g id="#101010ff">
<path fill="#101010" opacity="1.00" d=" M 45.99 23.06 L 46.87 23.22 L 47.26 24.20 L 46.77 24.99 C 46.57 24.51 46.19 23.54 45.99 23.06 Z" />
<path fill="#101010" opacity="1.00" d=" M 37.43 28.45 L 37.93 28.35 L 37.72 28.84 L 37.31 28.86 L 37.43 28.45 Z" />
<path fill="#101010" opacity="1.00" d=" M 51.97 28.28 C 53.53 28.58 53.63 29.14 52.26 29.95 C 52.18 29.53 52.04 28.69 51.97 28.28 Z" />
<path fill="#101010" opacity="1.00" d=" M 50.77 32.90 C 49.49 32.29 49.48 31.64 50.73 30.97 C 50.74 31.45 50.76 32.42 50.77 32.90 Z" />
<path fill="#101010" opacity="1.00" d=" M 71.27 34.06 L 71.90 34.31 C 71.84 34.95 71.72 36.22 71.66 36.86 C 71.24 36.59 70.39 36.07 69.96 35.81 C 70.29 35.37 70.94 34.49 71.27 34.06 Z" />
<path fill="#101010" opacity="1.00" d=" M 39.03 35.21 L 39.69 35.02 C 39.53 35.07 39.20 35.16 39.03 35.21 Z" />
<path fill="#101010" opacity="1.00" d=" M 45.94 37.88 C 46.47 37.66 47.52 37.23 48.05 37.01 C 47.72 37.31 47.06 37.91 46.73 38.21 L 45.94 37.88 Z" />
<path fill="#101010" opacity="1.00" d=" M 49.46 37.45 L 49.62 37.62 L 49.63 37.63 C 49.59 37.59 49.50 37.50 49.46 37.45 Z" />
<path fill="#101010" opacity="1.00" d=" M 52.74 39.15 C 50.36 40.10 51.34 36.67 53.08 38.36 L 52.74 39.15 Z" />
</g>
<g id="#d7c346ff">
<path fill="#d7c346" opacity="1.00" d=" M 12.00 24.00 L 12.82 24.00 C 12.29 26.51 12.46 29.13 14.72 30.75 C 15.88 30.32 17.04 29.90 18.20 29.47 C 18.13 31.71 17.85 34.16 19.59 35.88 C 21.17 36.23 22.77 36.51 24.36 36.79 C 26.26 32.86 29.31 29.46 33.73 28.48 L 34.03 29.71 C 33.40 29.93 32.13 30.37 31.49 30.59 C 29.82 31.52 28.45 32.87 27.22 34.32 C 26.75 35.79 25.62 36.87 24.65 38.01 C 23.59 37.97 22.53 37.94 21.47 37.91 C 19.98 36.97 18.21 36.22 17.38 34.54 C 16.34 32.18 13.71 31.40 11.97 29.66 C 12.00 27.77 12.00 25.89 12.00 24.00 Z" />
</g>
<g id="#bd8bcdff">
<path fill="#bd8bcd" opacity="1.00" d=" M 43.25 25.61 C 43.10 24.05 43.71 23.02 45.52 23.05 C 45.06 25.57 44.83 28.21 43.60 30.51 C 41.26 31.54 38.70 31.91 36.22 32.42 C 36.38 32.03 36.71 31.25 36.87 30.86 C 37.08 30.35 37.51 29.34 37.72 28.84 L 37.93 28.35 C 39.53 27.12 41.34 26.24 43.25 25.61 Z" />
<path fill="#bd8bcd" opacity="1.00" d=" M 43.18 32.27 C 44.83 31.68 45.43 32.18 44.95 33.79 C 43.30 34.38 42.71 33.88 43.18 32.27 Z" />
<path fill="#bd8bcd" opacity="1.00" d=" M 39.03 35.21 C 36.89 34.97 38.42 31.39 39.91 33.20 C 39.86 33.66 39.75 34.57 39.69 35.02 L 39.03 35.21 Z" />
<path fill="#bd8bcd" opacity="1.00" d=" M 61.86 33.95 C 63.34 34.01 64.82 34.00 66.30 33.97 C 67.55 34.51 68.78 35.12 69.96 35.81 C 70.39 36.07 71.24 36.59 71.66 36.86 C 71.93 37.06 72.46 37.46 72.72 37.66 C 73.15 38.82 73.53 39.99 73.86 41.18 C 72.79 42.80 70.72 42.99 69.04 43.58 C 68.56 41.85 68.30 40.06 67.67 38.37 C 66.17 36.41 63.90 35.25 61.86 33.95 Z" />
<path fill="#bd8bcd" opacity="1.00" d=" M 33.00 42.91 C 36.81 41.60 40.80 40.94 44.79 40.52 C 46.54 41.03 48.43 41.40 49.81 42.68 L 49.93 43.01 L 49.67 44.16 C 49.48 44.63 49.09 45.59 48.90 46.06 C 48.53 47.33 48.25 48.62 47.96 49.91 C 48.56 50.74 49.15 51.56 49.75 52.39 C 46.70 53.60 50.28 54.96 51.35 56.10 L 50.65 56.72 C 49.41 57.07 48.17 57.41 46.92 57.70 C 46.58 57.78 45.92 57.92 45.58 58.00 C 42.97 56.71 40.11 56.00 37.20 56.61 C 37.04 58.74 38.51 60.14 40.32 60.96 C 42.65 62.04 45.44 62.47 47.75 61.09 L 48.64 60.60 C 49.14 60.02 50.14 58.86 50.63 58.28 C 52.51 60.27 51.55 62.32 49.91 64.05 C 48.62 63.53 47.22 63.61 45.89 63.90 C 43.78 63.65 41.59 64.15 40.07 65.70 L 39.13 66.41 C 35.98 66.22 32.92 65.48 29.93 64.52 C 29.97 66.32 30.01 68.12 29.97 69.92 L 28.84 69.97 C 28.72 69.78 28.49 69.39 28.37 69.20 C 27.98 67.69 27.60 66.18 27.19 64.68 C 27.70 64.58 28.70 64.39 29.21 64.29 C 29.85 64.15 31.12 63.86 31.76 63.71 L 32.01 63.29 C 32.99 61.93 33.52 60.36 33.56 58.70 C 31.03 59.63 27.73 59.72 26.14 62.22 C 25.81 62.73 25.15 63.74 24.83 64.25 C 24.69 63.68 24.40 62.52 24.26 61.94 C 24.17 61.26 24.00 59.90 23.92 59.22 C 25.21 58.62 26.51 58.01 27.80 57.40 C 27.13 56.45 26.46 55.50 25.78 54.55 C 26.06 54.10 26.63 53.20 26.91 52.74 C 28.56 51.07 27.56 50.02 25.67 49.33 C 26.30 48.73 26.93 48.13 27.58 47.56 C 27.96 48.02 28.72 48.94 29.09 49.40 C 27.96 52.76 30.31 56.15 33.91 55.94 C 37.71 54.83 41.27 51.13 41.31 47.07 C 39.45 42.88 33.82 42.91 30.92 45.96 L 31.31 44.79 C 31.55 43.86 32.11 43.24 33.00 42.91 M 44.30 44.33 C 44.39 45.73 46.91 45.43 47.74 44.75 C 47.66 43.34 45.12 43.61 44.30 44.33 M 42.62 48.90 C 43.63 48.12 44.03 47.13 43.82 45.93 C 42.45 45.40 40.89 48.75 42.62 48.90 Z" />
<path fill="#bd8bcd" opacity="1.00" d=" M 69.25 43.84 L 69.43 44.02 C 70.34 44.56 71.20 46.44 72.48 45.79 C 73.01 45.32 74.08 44.40 74.61 43.94 C 74.75 45.18 74.86 46.43 74.99 47.68 C 72.91 47.82 70.84 47.96 68.78 48.24 C 68.67 48.31 68.45 48.44 68.34 48.51 C 65.58 50.06 63.16 52.12 60.50 53.83 C 58.93 54.77 57.23 55.68 56.72 57.61 C 53.46 58.63 54.23 54.32 55.18 52.59 C 54.70 52.95 53.75 53.67 53.28 54.03 C 52.25 51.75 51.14 49.47 50.77 46.97 C 53.04 50.13 56.95 53.55 61.05 51.48 C 61.36 51.23 61.98 50.74 62.29 50.49 C 63.33 49.34 64.33 48.16 65.30 46.95 L 66.10 47.68 L 66.62 48.17 C 67.54 46.75 68.38 45.29 69.25 43.84 Z" />
<path fill="#bd8bcd" opacity="1.00" d=" M 32.16 75.14 C 31.11 73.54 33.58 72.92 34.32 74.21 C 33.78 74.44 32.70 74.91 32.16 75.14 Z" />
</g>
<g id="#2f2137ff">
<path fill="#2f2137" opacity="1.00" d=" M 47.85 26.33 C 49.20 25.96 50.28 26.39 51.08 27.60 C 49.95 28.95 48.19 27.69 47.85 26.33 Z" />
</g>
<g id="#4a2a59ff">
<path fill="#4a2a59" opacity="1.00" d=" M 56.63 32.12 C 60.12 31.62 63.33 33.75 66.87 33.11 L 66.30 33.97 C 64.82 34.00 63.34 34.01 61.86 33.95 C 61.42 33.79 60.55 33.47 60.12 33.31 C 59.28 33.01 58.43 32.73 57.59 32.45 L 56.63 32.12 Z" />
</g>
<g id="#8c55a0ff">
<path fill="#8c55a0" opacity="1.00" d=" M 66.87 33.11 C 67.25 32.81 68.01 32.21 68.39 31.91 L 68.40 31.91 L 69.47 31.73 C 69.92 32.31 70.82 33.47 71.27 34.06 C 70.94 34.49 70.29 35.37 69.96 35.81 C 68.78 35.12 67.55 34.51 66.30 33.97 L 66.87 33.11 Z" />
</g>
<g id="#693783ff">
<path fill="#693783" opacity="1.00" d=" M 43.39 35.42 C 44.49 34.81 45.58 33.52 46.85 33.52 C 48.20 35.50 43.98 37.42 43.39 35.42 Z" />
</g>
<g id="#7d508eff">
<path fill="#7d508e" opacity="1.00" d=" M 56.33 32.94 L 57.59 32.45 C 58.43 32.73 59.28 33.01 60.12 33.31 C 58.37 34.34 56.63 35.39 55.01 36.61 C 54.13 35.77 53.24 34.94 52.36 34.11 C 53.00 34.47 54.28 35.18 54.92 35.54 C 55.28 34.89 55.98 33.59 56.33 32.94 Z" />
</g>
<g id="#d5a4deff">
<path fill="#d5a4de" opacity="1.00" d=" M 55.01 36.61 C 56.63 35.39 58.37 34.34 60.12 33.31 C 60.55 33.47 61.42 33.79 61.86 33.95 C 63.90 35.25 66.17 36.41 67.67 38.37 C 68.30 40.06 68.56 41.85 69.04 43.58 L 69.25 43.84 C 68.38 45.29 67.54 46.75 66.62 48.17 L 66.10 47.68 C 65.98 46.08 65.88 44.47 65.79 42.86 C 65.05 43.81 64.32 44.75 63.60 45.70 C 61.28 46.43 58.96 47.15 56.63 47.86 C 58.04 49.14 59.50 50.36 61.05 51.48 C 56.95 53.55 53.04 50.13 50.77 46.97 C 50.68 46.30 50.52 44.95 50.44 44.27 C 51.20 42.56 52.01 40.87 52.74 39.15 L 53.08 38.36 C 53.71 37.76 54.36 37.18 55.01 36.61 M 55.00 40.11 C 55.25 43.28 58.16 38.61 55.00 40.11 M 51.80 42.08 C 52.31 43.43 52.80 44.79 53.20 46.18 C 54.13 45.80 55.06 45.43 56.00 45.05 C 56.27 44.65 56.83 43.83 57.11 43.43 C 54.97 46.08 51.42 43.45 54.06 40.78 C 53.50 41.10 52.37 41.75 51.80 42.08 Z" />
<path fill="#d5a4de" opacity="1.00" d=" M 30.92 45.96 C 33.82 42.91 39.45 42.88 41.31 47.07 C 41.27 51.13 37.71 54.83 33.91 55.94 C 30.31 56.15 27.96 52.76 29.09 49.40 C 29.70 48.25 30.33 47.11 30.92 45.96 Z" />
<path fill="#d5a4de" opacity="1.00" d=" M 26.14 62.22 C 27.73 59.72 31.03 59.63 33.56 58.70 C 33.39 59.21 33.05 60.24 32.88 60.76 C 30.66 61.36 28.42 61.93 26.14 62.22 Z" />
</g>
<g id="#6b3f81ff">
<path fill="#6b3f81" opacity="1.00" d=" M 41.22 38.14 C 41.59 38.55 42.32 39.37 42.69 39.78 C 42.99 39.89 43.59 40.11 43.89 40.22 L 44.79 40.52 C 40.80 40.94 36.81 41.60 33.00 42.91 L 33.02 42.25 C 33.61 42.01 34.81 41.51 35.40 41.26 C 36.58 41.20 37.62 40.82 38.52 40.10 C 39.20 40.07 40.58 40.02 41.26 40.00 C 41.25 39.53 41.23 38.60 41.22 38.14 Z" />
</g>
<g id="#3f264cf7">
<path fill="#3f264c" opacity="0.97" d=" M 72.72 37.66 C 74.35 39.53 75.89 41.48 77.51 43.35 C 75.93 43.43 75.77 43.95 77.02 44.90 C 75.96 46.44 75.82 48.25 75.94 50.06 L 75.04 49.65 C 74.75 49.52 74.17 49.26 73.88 49.13 L 73.38 49.01 C 71.85 48.73 70.31 48.49 68.78 48.24 C 70.84 47.96 72.91 47.82 74.99 47.68 C 74.86 46.43 74.75 45.18 74.61 43.94 C 73.38 41.97 71.75 43.06 71.76 45.06 C 71.18 44.80 70.02 44.28 69.43 44.02 L 69.25 43.84 L 69.04 43.58 C 70.72 42.99 72.79 42.80 73.86 41.18 C 73.53 39.99 73.15 38.82 72.72 37.66 Z" />
</g>
<g id="#62317bff">
<path fill="#62317b" opacity="1.00" d=" M 55.00 40.11 C 58.16 38.61 55.25 43.28 55.00 40.11 Z" />
<path fill="#62317b" opacity="1.00" d=" M 51.35 56.10 C 53.60 56.74 51.16 59.07 50.65 56.72 L 51.35 56.10 Z" />
<path fill="#62317b" opacity="1.00" d=" M 41.09 68.90 C 41.31 68.64 41.74 68.13 41.96 67.87 C 43.24 68.10 44.52 68.15 45.81 68.02 L 45.95 68.86 C 44.38 69.48 42.68 69.29 41.09 68.90 Z" />
</g>
<g id="#805195ff">
<path fill="#805195" opacity="1.00" d=" M 63.60 45.70 C 64.32 44.75 65.05 43.81 65.79 42.86 C 65.88 44.47 65.98 46.08 66.10 47.68 L 65.30 46.95 C 64.98 46.66 64.35 46.06 64.03 45.77 C 64.02 46.38 64.00 47.62 63.99 48.24 C 63.51 47.94 62.53 47.33 62.05 47.03 C 60.94 47.55 59.81 48.05 58.69 48.54 C 59.89 49.18 61.09 49.84 62.29 50.49 C 61.98 50.74 61.36 51.23 61.05 51.48 C 59.50 50.36 58.04 49.14 56.63 47.86 C 58.96 47.15 61.28 46.43 63.60 45.70 Z" />
</g>
<g id="#ebe4edff">
<path fill="#ebe4ed" opacity="1.00" d=" M 71.76 45.06 C 71.75 43.06 73.38 41.97 74.61 43.94 C 74.08 44.40 73.01 45.32 72.48 45.79 C 71.20 46.44 70.34 44.56 69.43 44.02 C 70.02 44.28 71.18 44.80 71.76 45.06 Z" />
</g>
<g id="#a46ab4ff">
<path fill="#a46ab4" opacity="1.00" d=" M 77.02 44.90 C 75.77 43.95 75.93 43.43 77.51 43.35 L 77.70 44.23 L 77.02 44.90 Z" />
<path fill="#a46ab4" opacity="1.00" d=" M 48.90 46.06 L 50.02 46.16 C 49.57 50.11 52.41 53.19 53.24 56.86 C 53.90 57.59 54.57 58.30 55.26 59.01 C 55.75 59.00 56.73 58.98 57.22 58.97 C 56.09 59.63 54.98 60.34 53.88 61.05 C 54.91 61.72 55.94 62.40 56.96 63.10 C 56.10 64.91 54.01 64.92 52.33 65.36 C 53.03 65.49 54.42 65.74 55.11 65.87 C 54.69 68.04 54.17 70.21 53.30 72.25 L 52.45 72.56 C 51.94 72.75 50.92 73.13 50.41 73.32 L 49.73 73.58 C 48.69 73.94 47.64 74.28 46.58 74.58 C 45.48 71.87 42.80 71.78 40.26 71.88 C 39.85 72.53 39.03 73.83 38.62 74.48 C 37.34 74.11 36.08 73.71 34.81 73.32 L 34.32 74.21 C 33.58 72.92 31.11 73.54 32.16 75.14 C 31.23 74.38 30.34 73.58 29.49 72.73 L 30.43 72.11 C 31.05 71.77 31.69 71.50 32.37 71.32 C 37.10 73.46 41.81 70.48 46.44 69.56 L 46.86 69.48 C 48.44 69.22 49.95 68.70 51.47 68.23 C 51.54 67.03 51.66 65.84 51.65 64.65 C 51.07 64.46 50.49 64.26 49.91 64.05 C 51.55 62.32 52.51 60.27 50.63 58.28 C 49.40 58.05 48.16 57.86 46.92 57.70 C 48.17 57.41 49.41 57.07 50.65 56.72 C 51.16 59.07 53.60 56.74 51.35 56.10 C 50.28 54.96 46.70 53.60 49.75 52.39 C 49.15 51.56 48.56 50.74 47.96 49.91 C 48.25 48.62 48.53 47.33 48.90 46.06 Z" />
<path fill="#a46ab4" opacity="1.00" d=" M 68.34 48.51 C 68.45 48.44 68.67 48.31 68.78 48.24 C 70.31 48.49 71.85 48.73 73.38 49.01 L 73.27 49.52 L 73.76 49.63 L 73.88 49.13 C 74.17 49.26 74.75 49.52 75.04 49.65 C 74.23 51.96 73.98 54.89 71.34 55.86 C 70.02 55.19 68.70 54.50 67.39 53.79 C 68.58 53.06 69.83 52.44 71.15 52.00 C 71.55 52.41 72.35 53.23 72.76 53.63 C 72.81 52.43 72.18 51.21 70.93 50.91 C 68.99 50.85 67.82 52.60 66.84 54.01 C 67.48 54.86 68.24 55.59 69.12 56.20 L 69.72 56.67 C 66.05 58.01 62.10 58.47 58.31 57.34 C 57.91 57.41 57.12 57.54 56.72 57.61 C 57.23 55.68 58.93 54.77 60.50 53.83 L 61.74 54.60 C 62.90 55.95 64.64 54.55 64.08 53.04 C 65.77 51.80 67.26 50.32 68.34 48.51 Z" />
</g>
<g id="#382540ff">
<path fill="#382540" opacity="1.00" d=" M 49.93 43.01 L 50.44 44.27 C 50.52 44.95 50.68 46.30 50.77 46.97 C 51.14 49.47 52.25 51.75 53.28 54.03 C 53.75 53.67 54.70 52.95 55.18 52.59 C 54.23 54.32 53.46 58.63 56.72 57.61 C 57.12 57.54 57.91 57.41 58.31 57.34 C 62.10 58.47 66.05 58.01 69.72 56.67 C 68.70 57.46 67.65 58.20 66.58 58.92 C 65.04 58.90 63.49 58.91 61.95 58.92 C 61.94 59.75 61.93 61.40 61.92 62.22 L 61.74 61.73 C 61.52 61.11 61.07 59.88 60.84 59.26 C 60.20 59.10 58.92 58.77 58.28 58.60 L 57.22 58.97 C 56.73 58.98 55.75 59.00 55.26 59.01 C 54.57 58.30 53.90 57.59 53.24 56.86 C 52.41 53.19 49.57 50.11 50.02 46.16 L 48.90 46.06 C 49.09 45.59 49.48 44.63 49.67 44.16 L 49.93 43.01 Z" />
</g>
<g id="#d5c143ff">
<path fill="#d5c143" opacity="1.00" d=" M 17.27 44.93 C 18.53 45.77 19.93 46.01 21.16 44.99 C 22.46 45.60 23.26 46.94 24.28 47.91 C 21.77 47.40 18.88 47.22 17.27 44.93 Z" />
</g>
<g id="#8650a0ff">
<path fill="#8650a0" opacity="1.00" d=" M 27.39 46.26 C 28.82 46.14 30.14 45.63 31.31 44.79 L 30.92 45.96 C 30.33 47.11 29.70 48.25 29.09 49.40 C 28.72 48.94 27.96 48.02 27.58 47.56 C 26.93 48.13 26.30 48.73 25.67 49.33 C 27.56 50.02 28.56 51.07 26.91 52.74 C 26.42 52.20 25.43 51.12 24.93 50.58 L 24.98 49.66 L 25.07 48.26 L 25.27 48.09 C 25.98 47.48 26.69 46.87 27.39 46.26 Z" />
</g>
<g id="#3b2f3fff">
<path fill="#3b2f3f" opacity="1.00" d=" M 42.62 48.90 C 40.89 48.75 42.45 45.40 43.82 45.93 C 44.03 47.13 43.63 48.12 42.62 48.90 Z" />
</g>
<g id="#e9e4eaff">
<path fill="#e9e4ea" opacity="1.00" d=" M 64.03 45.77 C 64.35 46.06 64.98 46.66 65.30 46.95 C 64.33 48.16 63.33 49.34 62.29 50.49 C 61.09 49.84 59.89 49.18 58.69 48.54 C 59.81 48.05 60.94 47.55 62.05 47.03 C 62.53 47.33 63.51 47.94 63.99 48.24 C 64.00 47.62 64.02 46.38 64.03 45.77 Z" />
</g>
<g id="#7c4992ff">
<path fill="#7c4992" opacity="1.00" d=" M 60.50 53.83 C 63.16 52.12 65.58 50.06 68.34 48.51 C 67.26 50.32 65.77 51.80 64.08 53.04 C 63.50 53.43 62.33 54.21 61.74 54.60 L 60.50 53.83 Z" />
</g>
<g id="#ffffffff">
<path fill="#ffffff" opacity="1.00" d=" M 73.38 49.01 L 73.88 49.13 L 73.76 49.63 L 73.27 49.52 L 73.38 49.01 Z" />
<path fill="#ffffff" opacity="1.00" d=" M 61.74 54.60 C 62.33 54.21 63.50 53.43 64.08 53.04 C 64.64 54.55 62.90 55.95 61.74 54.60 Z" />
</g>
<g id="#8e56a8ff">
<path fill="#8e56a8" opacity="1.00" d=" M 25.09 53.59 L 25.78 54.55 C 26.46 55.50 27.13 56.45 27.80 57.40 C 26.51 58.01 25.21 58.62 23.92 59.22 C 24.00 59.90 24.17 61.26 24.26 61.94 L 23.18 62.03 C 23.11 60.80 23.04 59.58 22.98 58.35 C 23.48 57.93 24.48 57.09 24.97 56.67 C 25.00 55.90 25.06 54.36 25.09 53.59 Z" />
</g>
<g id="#d3a2ddff">
<path fill="#d3a2dd" opacity="1.00" d=" M 37.20 56.61 C 40.11 56.00 42.97 56.71 45.58 58.00 C 43.35 58.55 41.11 59.12 38.88 59.65 C 38.46 58.89 37.62 57.37 37.20 56.61 Z" />
</g>
<g id="#79498eff">
<path fill="#79498e" opacity="1.00" d=" M 40.32 60.96 C 38.51 60.14 37.04 58.74 37.20 56.61 C 37.62 57.37 38.46 58.89 38.88 59.65 C 41.11 59.12 43.35 58.55 45.58 58.00 C 45.92 57.92 46.58 57.78 46.92 57.70 C 48.16 57.86 49.40 58.05 50.63 58.28 C 50.14 58.86 49.14 60.02 48.64 60.60 L 47.75 61.09 C 47.81 60.50 47.93 59.33 47.99 58.74 C 46.32 59.06 44.77 59.73 43.46 60.81 C 42.39 59.92 41.34 59.97 40.32 60.96 Z" />
</g>
<g id="#613f71f5">
<path fill="#613f71" opacity="0.96" d=" M 33.56 58.70 C 33.52 60.36 32.99 61.93 32.01 63.29 C 30.94 62.08 29.07 62.09 28.01 63.32 C 28.31 63.56 28.91 64.05 29.21 64.29 C 28.70 64.39 27.70 64.58 27.19 64.68 C 27.60 66.18 27.98 67.69 28.37 69.20 L 27.06 68.97 C 27.98 66.81 26.33 65.45 24.83 64.25 C 25.15 63.74 25.81 62.73 26.14 62.22 C 28.42 61.93 30.66 61.36 32.88 60.76 C 33.05 60.24 33.39 59.21 33.56 58.70 Z" />
</g>
<g id="#f1f1f1ff">
<path fill="#f1f1f1" opacity="1.00" d=" M 43.46 60.81 C 44.77 59.73 46.32 59.06 47.99 58.74 C 47.93 59.33 47.81 60.50 47.75 61.09 C 45.44 62.47 42.65 62.04 40.32 60.96 C 41.34 59.97 42.39 59.92 43.46 60.81 Z" />
</g>
<g id="#d1be3cff">
<path fill="#d1be3c" opacity="1.00" d=" M 68.44 60.95 C 70.12 60.99 72.03 60.69 73.00 62.43 L 73.07 62.91 C 71.78 62.62 70.51 62.14 69.18 62.15 C 67.07 62.74 67.21 65.36 66.40 67.00 C 65.22 67.45 64.04 67.90 62.87 68.38 L 63.04 67.30 C 65.09 67.12 66.43 65.43 66.14 63.40 C 66.91 62.59 67.68 61.77 68.44 60.95 Z" />
</g>
<g id="#f8f8f8ff">
<path fill="#f8f8f8" opacity="1.00" d=" M 28.01 63.32 C 29.07 62.09 30.94 62.08 32.01 63.29 L 31.76 63.71 C 31.12 63.86 29.85 64.15 29.21 64.29 C 28.91 64.05 28.31 63.56 28.01 63.32 Z" />
</g>
<g id="#251b2aff">
<path fill="#251b2a" opacity="1.00" d=" M 59.03 64.65 C 59.40 63.99 59.86 63.42 60.43 62.92 C 61.49 63.81 62.30 65.63 61.69 66.96 C 60.76 66.23 59.87 65.47 59.03 64.65 Z" />
</g>
<g id="#6f3e87ff">
<path fill="#6f3e87" opacity="1.00" d=" M 40.07 65.70 C 41.59 64.15 43.78 63.65 45.89 63.90 L 46.02 64.72 C 44.74 64.71 43.64 65.15 42.70 66.04 C 42.05 65.96 40.73 65.78 40.07 65.70 Z" />
</g>
<g id="#edededff">
<path fill="#ededed" opacity="1.00" d=" M 46.46 64.53 C 46.78 64.38 47.42 64.09 47.74 63.94 C 48.59 64.69 49.40 65.48 50.18 66.31 L 50.41 66.55 L 50.68 67.03 C 49.74 68.07 48.61 68.82 47.29 69.27 C 47.21 67.65 46.93 66.07 46.46 64.53 Z" />
</g>
<g id="#43264aff">
<path fill="#43264a" opacity="1.00" d=" M 29.93 64.52 C 32.92 65.48 35.98 66.22 39.13 66.41 C 38.25 66.74 37.36 67.06 36.47 67.35 C 35.30 66.91 34.14 66.46 32.99 65.99 C 33.00 66.50 33.01 67.50 33.02 68.00 L 32.00 68.00 C 32.00 67.50 32.00 66.50 32.00 66.00 L 31.00 66.00 C 31.00 67.47 31.01 68.94 31.03 70.41 C 31.83 69.84 32.64 69.29 33.45 68.74 C 35.49 70.32 38.19 68.99 40.50 69.02 C 37.80 69.84 35.12 70.68 32.37 71.32 C 31.69 71.50 31.05 71.77 30.43 72.11 C 30.04 71.58 29.24 70.51 28.84 69.97 L 29.97 69.92 C 30.01 68.12 29.97 66.32 29.93 64.52 Z" />
</g>
<g id="#efefefff">
<path fill="#efefef" opacity="1.00" d=" M 42.70 66.04 C 43.64 65.15 44.74 64.71 46.02 64.72 C 45.97 65.30 45.88 66.46 45.83 67.04 C 45.08 66.98 43.56 66.84 42.81 66.78 L 42.70 66.04 Z" />
</g>
<g id="#972319ff">
<path fill="#972319" opacity="1.00" d=" M 46.02 64.72 L 46.46 64.53 C 46.93 66.07 47.21 67.65 47.29 69.27 L 46.86 69.48 L 46.44 69.56 L 45.95 68.86 L 45.81 68.02 L 45.83 67.04 C 45.88 66.46 45.97 65.30 46.02 64.72 Z" />
</g>
<g id="#dfdae1ff">
<path fill="#dfdae1" opacity="1.00" d=" M 31.00 66.00 L 32.00 66.00 C 32.00 66.50 32.00 67.50 32.00 68.00 L 33.02 68.00 C 33.01 67.50 33.00 66.50 32.99 65.99 C 34.14 66.46 35.30 66.91 36.47 67.35 L 35.54 67.71 C 35.02 67.96 33.97 68.48 33.45 68.74 C 32.64 69.29 31.83 69.84 31.03 70.41 C 31.01 68.94 31.00 67.47 31.00 66.00 Z" />
</g>
<g id="#a42000ff">
<path fill="#a42000" opacity="1.00" d=" M 39.13 66.41 L 40.07 65.70 C 40.73 65.78 42.05 65.96 42.70 66.04 L 42.81 66.78 C 42.59 67.05 42.17 67.60 41.96 67.87 C 41.74 68.13 41.31 68.64 41.09 68.90 L 40.50 69.02 C 38.19 68.99 35.49 70.32 33.45 68.74 C 33.97 68.48 35.02 67.96 35.54 67.71 L 36.47 67.35 C 37.36 67.06 38.25 66.74 39.13 66.41 Z" />
<path fill="#a42000" opacity="1.00" d=" M 50.18 66.31 C 50.24 66.37 50.35 66.49 50.41 66.55 L 50.18 66.31 Z" />
</g>
<g id="#de6220ff">
<path fill="#de6220" opacity="1.00" d=" M 41.96 67.87 C 42.17 67.60 42.59 67.05 42.81 66.78 C 43.56 66.84 45.08 66.98 45.83 67.04 L 45.81 68.02 C 44.52 68.15 43.24 68.10 41.96 67.87 Z" />
</g>
<g id="#2b1f33ff">
<path fill="#2b1f33" opacity="1.00" d=" M 56.18 69.21 C 56.64 68.78 57.55 67.90 58.01 67.46 C 57.82 68.11 57.44 69.41 57.24 70.05 C 57.79 70.01 58.88 69.92 59.42 69.88 C 59.83 69.53 60.65 68.85 61.06 68.51 C 60.81 71.38 57.92 71.08 55.81 70.99 C 55.90 70.55 56.09 69.66 56.18 69.21 Z" />
</g>
<g id="#bc89ccff">
<path fill="#bc89cc" opacity="1.00" d=" M 40.50 69.02 L 41.09 68.90 C 42.68 69.29 44.38 69.48 45.95 68.86 L 46.44 69.56 C 41.81 70.48 37.10 73.46 32.37 71.32 C 35.12 70.68 37.80 69.84 40.50 69.02 Z" />
</g>
<g id="#cec55bff">
<path fill="#cec55b" opacity="1.00" d=" M 40.26 71.88 C 42.80 71.78 45.48 71.87 46.58 74.58 L 45.52 74.88 L 43.88 75.05 C 45.12 72.21 40.05 72.10 41.00 74.97 C 40.41 74.84 39.21 74.60 38.62 74.48 C 39.03 73.83 39.85 72.53 40.26 71.88 Z" />
</g>
<g id="#1f1824ff">
<path fill="#1f1824" opacity="1.00" d=" M 52.45 72.56 L 53.30 72.25 C 53.86 72.10 54.98 71.79 55.53 71.64 C 54.49 73.04 52.80 73.60 51.28 74.28 C 50.98 74.84 50.39 75.95 50.09 76.50 C 50.00 75.77 49.82 74.31 49.73 73.58 L 50.41 73.32 C 50.92 73.13 51.94 72.75 52.45 72.56 Z" />
</g>
<g id="#2e232eff">
<path fill="#2e232e" opacity="1.00" d=" M 34.81 73.32 C 36.08 73.71 37.34 74.11 38.62 74.48 C 39.21 74.60 40.41 74.84 41.00 74.97 C 41.72 74.99 43.16 75.03 43.88 75.05 L 45.52 74.88 C 45.10 75.42 44.25 76.50 43.83 77.05 C 44.86 76.99 46.92 76.87 47.95 76.81 L 47.98 77.99 C 46.82 77.97 45.67 77.95 44.52 77.93 C 43.53 77.31 42.54 76.69 41.54 76.07 C 41.06 76.01 40.08 75.88 39.59 75.81 C 38.41 74.86 36.94 74.95 35.53 75.01 C 34.51 75.78 33.35 76.15 32.03 76.14 L 32.16 75.14 C 32.70 74.91 33.78 74.44 34.32 74.21 L 34.81 73.32 Z" />
</g>
<g id="#ac75bcff">
<path fill="#ac75bc" opacity="1.00" d=" M 41.00 74.97 C 40.05 72.10 45.12 72.21 43.88 75.05 C 43.16 75.03 41.72 74.99 41.00 74.97 Z" />
</g>
<g id="#80499fff">
<path fill="#80499f" opacity="1.00" d=" M 46.58 74.58 C 47.64 74.28 48.69 73.94 49.73 73.58 C 49.82 74.31 50.00 75.77 50.09 76.50 C 49.56 76.58 48.49 76.73 47.95 76.81 C 46.92 76.87 44.86 76.99 43.83 77.05 C 44.25 76.50 45.10 75.42 45.52 74.88 L 46.58 74.58 Z" />
</g>
</svg>
