<?xml version="1.0" encoding="UTF-8" ?>
<!DOCTYPE svg PUBLIC "-//W3C//DTD SVG 1.1//EN" "http://www.w3.org/Graphics/SVG/1.1/DTD/svg11.dtd">
<svg width="120pt" height="120pt" viewBox="0 0 120 120" version="1.1" xmlns="http://www.w3.org/2000/svg">
<g id="#293845ff">
<path fill="#293845" opacity="1.00" d=" M 26.06 25.36 C 26.84 24.63 27.61 23.89 28.45 23.23 C 31.87 24.96 35.78 26.28 37.89 29.74 C 37.40 29.56 36.43 29.19 35.95 29.01 C 33.65 27.17 31.02 25.85 28.37 24.61 C 28.28 25.62 28.11 27.66 28.03 28.67 C 28.35 28.18 29.01 27.19 29.34 26.69 C 32.60 30.72 37.51 33.44 39.39 38.49 C 40.15 40.28 40.83 42.11 41.34 44.00 L 41.84 44.00 C 42.09 41.81 42.45 39.64 42.95 37.50 C 41.91 36.02 40.91 34.50 39.97 32.95 C 39.87 32.53 39.68 31.69 39.58 31.28 C 41.48 32.84 42.36 35.66 44.88 36.42 C 43.84 38.11 42.72 39.88 42.77 41.94 C 42.30 45.33 45.12 47.75 47.22 49.95 C 49.30 50.31 51.42 51.42 53.54 50.85 C 56.90 48.84 58.77 43.33 55.52 40.42 C 53.09 38.42 51.38 35.08 47.89 34.89 L 46.52 34.05 C 48.63 33.89 50.73 34.20 52.61 35.20 C 53.55 39.47 58.31 37.80 61.48 38.12 C 63.33 39.15 65.33 40.02 66.81 41.60 C 67.31 41.68 68.31 41.83 68.81 41.91 C 68.50 42.61 68.18 43.31 67.85 44.00 C 64.89 40.99 61.04 38.70 56.69 38.80 C 58.28 42.54 58.67 47.27 55.41 50.26 C 53.97 52.43 51.31 51.96 49.09 51.86 C 48.70 51.54 47.94 50.91 47.56 50.59 C 44.62 52.08 46.34 55.25 47.22 57.48 C 46.65 57.02 45.49 56.10 44.92 55.64 C 44.80 56.41 44.56 57.94 44.44 58.71 C 44.22 58.15 43.80 57.04 43.58 56.48 C 42.43 56.98 41.28 57.47 40.13 57.96 C 40.11 56.44 40.09 54.93 40.05 53.41 C 40.35 53.10 40.96 52.47 41.26 52.16 C 41.72 52.53 42.65 53.27 43.12 53.64 C 43.11 52.97 43.10 51.64 43.10 50.97 C 43.90 51.07 45.52 51.27 46.32 51.37 L 46.17 49.73 C 45.27 49.82 43.48 50.01 42.58 50.10 C 43.00 49.68 43.84 48.83 44.26 48.40 C 43.29 47.13 42.33 45.85 41.36 44.58 C 41.21 45.37 40.91 46.95 40.77 47.74 C 38.80 47.00 37.11 45.76 35.38 44.61 C 34.11 42.49 32.73 40.43 31.18 38.50 C 31.12 38.01 30.98 37.02 30.91 36.52 C 30.00 34.88 29.14 33.21 28.27 31.54 C 28.01 30.51 27.73 29.47 27.45 28.44 C 27.01 27.41 26.54 26.38 26.06 25.36 M 28.82 28.31 C 29.24 31.70 31.58 34.40 32.45 37.65 C 34.52 41.07 36.76 44.52 40.40 46.44 C 34.85 41.59 32.42 34.52 28.82 28.31 Z" />
<path fill="#293845" opacity="1.00" d=" M 87.48 28.23 C 89.41 28.05 91.27 27.51 93.09 26.88 C 92.75 28.46 93.65 30.74 91.72 31.60 C 91.92 30.76 92.31 29.10 92.51 28.26 C 90.15 28.85 87.78 29.43 85.47 30.21 C 83.81 30.93 82.12 31.58 80.44 32.24 C 78.17 33.44 75.91 34.66 73.85 36.20 C 75.56 32.84 79.50 32.06 82.46 30.22 C 82.97 30.15 84.00 30.01 84.51 29.93 C 85.49 29.36 86.48 28.79 87.48 28.23 Z" />
<path fill="#293845" opacity="1.00" d=" M 84.53 32.70 C 86.78 31.62 89.12 30.73 91.48 29.90 C 89.73 33.31 87.50 36.47 84.68 39.08 C 84.93 39.32 85.43 39.80 85.68 40.04 C 85.90 40.28 86.32 40.77 86.54 41.01 L 84.98 41.24 L 84.86 43.48 L 83.93 42.56 C 84.01 41.99 84.16 40.85 84.24 40.28 C 81.17 43.59 77.49 46.25 73.37 48.12 C 74.01 48.02 75.28 47.83 75.92 47.73 L 76.07 49.00 C 75.52 49.00 74.42 49.02 73.87 49.02 C 73.94 49.63 74.08 50.84 74.15 51.45 C 74.58 52.45 74.99 53.45 75.39 54.46 C 75.73 55.77 76.02 57.10 76.32 58.43 C 76.70 59.76 77.02 61.10 77.36 62.44 C 77.89 64.06 78.04 65.75 78.25 67.43 C 79.74 71.22 78.81 75.45 78.88 79.42 C 78.31 80.54 77.92 81.72 77.72 82.97 L 77.06 83.26 C 77.70 79.52 78.18 75.76 78.36 71.98 C 74.71 73.92 70.88 71.86 67.68 70.00 C 70.78 70.52 73.82 71.32 76.87 72.08 C 77.01 70.67 77.15 69.27 77.28 67.86 C 75.47 65.89 73.67 63.89 72.20 61.64 C 74.00 62.92 75.67 64.37 77.35 65.82 C 75.73 60.55 74.40 55.20 72.90 49.90 C 72.40 49.89 71.40 49.85 70.90 49.84 C 71.33 49.50 72.19 48.82 72.62 48.48 C 71.17 48.27 69.88 47.62 68.67 46.82 C 71.32 41.30 75.91 36.97 81.33 34.21 C 82.40 33.72 83.46 33.21 84.53 32.70 Z" />
<path fill="#293845" opacity="1.00" d=" M 69.25 41.16 C 68.32 39.33 70.99 35.90 72.93 37.28 L 72.71 37.57 C 71.63 38.83 70.59 40.15 69.25 41.16 Z" />
<path fill="#293845" opacity="1.00" d=" M 88.54 37.29 C 88.56 37.24 88.60 37.14 88.63 37.09 C 88.60 37.14 88.56 37.24 88.54 37.29 Z" />
<path fill="#293845" opacity="1.00" d=" M 49.18 40.34 C 50.40 39.59 51.67 39.42 52.98 39.81 C 52.68 41.26 50.22 41.27 49.10 40.75 L 49.18 40.34 Z" />
<path fill="#293845" opacity="1.00" d=" M 81.16 44.64 C 81.61 44.41 82.52 43.94 82.97 43.70 L 82.87 44.60 C 82.44 44.61 81.58 44.63 81.16 44.64 Z" />
<path fill="#293845" opacity="1.00" d=" M 77.18 47.49 C 77.21 47.48 77.25 47.47 77.28 47.46 C 77.25 47.47 77.21 47.48 77.18 47.49 Z" />
<path fill="#293845" opacity="1.00" d=" M 39.68 48.56 L 40.07 49.61 C 39.88 50.07 39.49 50.99 39.29 51.44 C 38.49 53.49 37.88 55.60 37.23 57.69 C 37.15 58.16 37.00 59.10 36.92 59.57 C 36.66 60.11 36.13 61.19 35.86 61.73 C 34.08 62.59 32.31 63.49 30.58 64.48 C 31.95 62.43 34.17 61.27 36.04 59.75 C 36.10 59.20 36.22 58.10 36.28 57.55 C 37.15 54.46 38.04 51.35 39.68 48.56 Z" />
<path fill="#293845" opacity="1.00" d=" M 55.12 53.41 C 55.98 52.51 56.80 51.59 57.60 50.64 C 58.04 51.10 58.90 52.02 59.33 52.48 C 58.62 53.09 57.92 53.70 57.23 54.33 C 57.94 54.41 59.34 54.56 60.05 54.64 C 61.24 53.86 59.91 52.40 60.00 51.38 C 61.31 52.31 62.60 53.27 63.88 54.23 C 63.90 55.81 63.92 57.40 63.97 58.98 C 62.08 60.02 60.08 60.89 57.95 61.32 C 59.26 60.21 60.74 59.39 62.38 58.87 C 61.22 58.70 60.06 58.53 58.90 58.36 C 58.43 58.74 57.48 59.52 57.01 59.91 L 56.85 59.44 C 56.15 57.46 56.27 55.22 55.12 53.41 Z" />
<path fill="#293845" opacity="1.00" d=" M 63.22 51.40 L 63.53 51.46 L 63.78 51.77 C 63.64 51.68 63.36 51.49 63.22 51.40 Z" />
<path fill="#293845" opacity="1.00" d=" M 65.18 53.15 L 65.52 53.44 L 65.61 53.86 C 65.51 53.68 65.29 53.32 65.18 53.15 Z" />
<path fill="#293845" opacity="1.00" d=" M 65.91 56.14 C 67.37 56.31 67.56 56.95 66.47 58.07 C 66.33 57.58 66.05 56.62 65.91 56.14 Z" />
<path fill="#293845" opacity="1.00" d=" M 42.51 58.25 C 42.76 58.53 42.76 58.53 42.51 58.25 Z" />
<path fill="#293845" opacity="1.00" d=" M 39.51 59.23 L 39.63 59.43 L 39.86 59.62 L 39.58 59.47 L 39.51 59.23 Z" />
<path fill="#293845" opacity="1.00" d=" M 44.24 59.25 C 44.84 59.85 44.84 59.85 44.24 59.25 Z" />
<path fill="#293845" opacity="1.00" d=" M 40.53 59.99 C 41.10 60.05 42.24 60.16 42.80 60.22 L 42.74 60.96 C 42.19 60.72 41.08 60.24 40.53 59.99 Z" />
<path fill="#293845" opacity="1.00" d=" M 47.23 61.24 C 47.85 61.82 47.85 61.82 47.23 61.24 Z" />
<path fill="#293845" opacity="1.00" d=" M 60.48 62.47 L 60.88 62.51 L 60.58 62.76 L 60.28 62.68 L 60.48 62.47 Z" />
<path fill="#293845" opacity="1.00" d=" M 36.00 69.75 C 36.23 68.08 36.47 66.41 36.73 64.75 C 36.74 68.85 35.88 72.94 36.29 77.03 C 37.73 81.26 39.84 86.12 44.40 87.72 C 51.60 90.75 60.22 91.54 67.44 88.22 C 67.84 88.43 68.64 88.85 69.03 89.06 C 70.14 88.56 71.25 88.07 72.35 87.56 C 71.95 88.20 71.14 89.47 70.73 90.11 C 71.30 90.10 72.44 90.09 73.01 90.08 C 73.00 91.61 73.00 93.14 73.00 94.68 C 72.37 94.99 71.10 95.61 70.47 95.92 C 68.09 95.98 65.71 95.98 63.32 96.03 C 62.25 94.73 61.00 93.47 60.74 91.71 L 61.65 92.46 C 62.75 93.38 63.82 94.33 64.89 95.29 C 67.99 95.31 72.45 95.55 72.62 91.32 C 69.54 89.99 65.81 88.89 62.92 91.25 C 61.08 91.25 59.25 91.03 57.42 90.91 C 56.97 91.43 56.09 92.46 55.64 92.97 C 55.14 93.02 54.12 93.12 53.62 93.17 C 51.20 94.61 48.28 93.81 45.62 94.13 C 42.44 95.84 38.58 94.80 35.11 94.94 C 32.96 94.91 32.98 92.22 32.87 90.68 L 33.60 91.66 C 35.17 94.81 39.12 94.34 42.02 94.01 C 46.88 93.08 51.77 92.43 56.66 91.69 C 54.50 91.35 52.33 91.14 50.16 90.90 C 45.86 88.73 41.04 89.26 36.42 88.77 L 35.46 88.29 C 37.44 88.09 39.44 88.06 41.43 88.05 C 38.45 85.47 36.96 81.82 35.13 78.44 C 35.07 75.85 35.07 73.25 35.03 70.66 C 34.39 70.97 33.11 71.60 32.47 71.92 C 30.26 71.99 28.05 72.01 25.84 71.99 C 26.16 69.89 26.48 67.45 28.72 66.50 C 28.24 67.44 27.28 69.32 26.80 70.26 C 29.71 72.01 33.01 70.46 36.00 69.75 Z" />
<path fill="#293845" opacity="1.00" d=" M 73.97 85.89 C 74.30 84.94 74.92 84.28 75.83 83.90 C 76.36 85.66 75.74 86.33 73.97 85.89 Z" />
</g>
<g id="#f4d7e1ff">
<path fill="#f4d7e1" opacity="1.00" d=" M 28.37 24.61 C 31.02 25.85 33.65 27.17 35.95 29.01 C 37.14 30.47 38.57 31.70 39.97 32.95 C 40.91 34.50 41.91 36.02 42.95 37.50 C 42.45 39.64 42.09 41.81 41.84 44.00 L 41.34 44.00 C 40.83 42.11 40.15 40.28 39.39 38.49 C 37.51 33.44 32.60 30.72 29.34 26.69 C 29.01 27.19 28.35 28.18 28.03 28.67 C 28.11 27.66 28.28 25.62 28.37 24.61 Z" />
<path fill="#f4d7e1" opacity="1.00" d=" M 28.82 28.31 C 32.42 34.52 34.85 41.59 40.40 46.44 C 36.76 44.52 34.52 41.07 32.45 37.65 C 31.58 34.40 29.24 31.70 28.82 28.31 Z" />
<path fill="#f4d7e1" opacity="1.00" d=" M 85.47 30.21 C 87.78 29.43 90.15 28.85 92.51 28.26 C 92.31 29.10 91.92 30.76 91.72 31.60 C 91.65 31.85 91.53 32.37 91.46 32.63 C 90.09 33.82 89.21 35.39 88.63 37.09 C 88.60 37.14 88.56 37.24 88.54 37.29 C 87.67 38.30 86.72 39.21 85.68 40.04 C 85.43 39.80 84.93 39.32 84.68 39.08 C 87.50 36.47 89.73 33.31 91.48 29.90 C 89.12 30.73 86.78 31.62 84.53 32.70 C 83.46 33.21 82.40 33.72 81.33 34.21 C 75.91 36.97 71.32 41.30 68.67 46.82 C 69.88 47.62 71.17 48.27 72.62 48.48 C 72.19 48.82 71.33 49.50 70.90 49.84 C 71.40 49.85 72.40 49.89 72.90 49.90 C 74.40 55.20 75.73 60.55 77.35 65.82 C 75.67 64.37 74.00 62.92 72.20 61.64 C 73.67 63.89 75.47 65.89 77.28 67.86 C 77.15 69.27 77.01 70.67 76.87 72.08 C 73.82 71.32 70.78 70.52 67.68 70.00 C 70.88 71.86 74.71 73.92 78.36 71.98 C 78.18 75.76 77.70 79.52 77.06 83.26 C 76.75 83.42 76.14 83.74 75.83 83.90 C 74.92 84.28 74.30 84.94 73.97 85.89 C 73.58 86.60 73.05 87.16 72.35 87.56 C 71.25 88.07 70.14 88.56 69.03 89.06 C 68.64 88.85 67.84 88.43 67.44 88.22 C 60.22 91.54 51.60 90.75 44.40 87.72 C 39.84 86.12 37.73 81.26 36.29 77.03 C 35.88 72.94 36.74 68.85 36.73 64.75 C 36.47 66.41 36.23 68.08 36.00 69.75 C 33.01 70.46 29.71 72.01 26.80 70.26 C 27.28 69.32 28.24 67.44 28.72 66.50 C 29.28 65.78 29.91 65.10 30.58 64.48 C 32.31 63.49 34.08 62.59 35.86 61.73 C 36.13 61.19 36.66 60.11 36.92 59.57 C 37.00 59.10 37.15 58.16 37.23 57.69 C 37.88 55.60 38.49 53.49 39.29 51.44 C 39.49 50.99 39.88 50.07 40.07 49.61 C 40.25 49.14 40.59 48.21 40.77 47.74 C 40.91 46.95 41.21 45.37 41.36 44.58 C 42.33 45.85 43.29 47.13 44.26 48.40 C 43.84 48.83 43.00 49.68 42.58 50.10 C 43.48 50.01 45.27 49.82 46.17 49.73 L 46.32 51.37 C 45.52 51.27 43.90 51.07 43.10 50.97 C 43.10 51.64 43.11 52.97 43.12 53.64 C 42.65 53.27 41.72 52.53 41.26 52.16 C 40.96 52.47 40.35 53.10 40.05 53.41 C 39.66 53.83 38.88 54.67 38.49 55.08 C 38.77 56.48 39.11 57.86 39.51 59.23 L 39.58 59.47 L 39.86 59.62 L 40.53 59.99 C 41.08 60.24 42.19 60.72 42.74 60.96 C 40.78 64.69 36.92 68.59 38.81 73.13 C 43.29 83.23 56.87 86.61 66.49 82.39 C 68.50 82.02 68.03 79.79 67.76 78.32 C 66.38 72.00 61.27 67.61 58.10 62.22 C 58.69 62.28 59.89 62.41 60.48 62.47 L 60.28 62.68 L 60.58 62.76 L 60.88 62.51 C 62.82 61.13 64.66 59.61 66.47 58.07 C 67.56 56.95 67.37 56.31 65.91 56.14 C 65.83 55.57 65.69 54.43 65.61 53.86 L 65.52 53.44 L 65.18 53.15 C 64.83 52.80 64.13 52.12 63.78 51.77 L 63.53 51.46 L 63.22 51.40 C 61.36 51.02 59.49 50.80 57.60 50.64 C 56.80 51.59 55.98 52.51 55.12 53.41 C 53.56 53.33 52.00 53.23 50.45 53.02 C 50.11 52.73 49.43 52.15 49.09 51.86 C 51.31 51.96 53.97 52.43 55.41 50.26 C 58.67 47.27 58.28 42.54 56.69 38.80 C 61.04 38.70 64.89 40.99 67.85 44.00 C 68.18 43.31 68.50 42.61 68.81 41.91 L 69.25 41.16 C 70.59 40.15 71.63 38.83 72.71 37.57 L 72.93 37.28 C 73.16 37.01 73.62 36.47 73.85 36.20 C 75.91 34.66 78.17 33.44 80.44 32.24 C 82.12 31.58 83.81 30.93 85.47 30.21 Z" />
<path fill="#f4d7e1" opacity="1.00" d=" M 47.89 34.89 C 51.38 35.08 53.09 38.42 55.52 40.42 C 58.77 43.33 56.90 48.84 53.54 50.85 C 51.42 51.42 49.30 50.31 47.22 49.95 C 45.12 47.75 42.30 45.33 42.77 41.94 C 42.72 39.88 43.84 38.11 44.88 36.42 L 45.37 35.62 C 46.00 35.44 47.26 35.07 47.89 34.89 M 49.18 40.34 L 49.10 40.75 C 50.22 41.27 52.68 41.26 52.98 39.81 C 51.67 39.42 50.40 39.59 49.18 40.34 Z" />
<path fill="#f4d7e1" opacity="1.00" d=" M 84.24 40.28 C 84.16 40.85 84.01 41.99 83.93 42.56 L 83.76 43.84 L 82.97 43.70 C 82.52 43.94 81.61 44.41 81.16 44.64 C 80.58 45.64 79.77 46.40 78.74 46.93 L 77.28 47.46 C 77.25 47.47 77.21 47.48 77.18 47.49 L 75.92 47.73 C 75.28 47.83 74.01 48.02 73.37 48.12 C 77.49 46.25 81.17 43.59 84.24 40.28 Z" />
<path fill="#f4d7e1" opacity="1.00" d=" M 49.52 62.16 C 50.71 61.24 51.39 61.47 51.58 62.85 C 50.39 63.77 49.71 63.54 49.52 62.16 Z" />
<path fill="#f4d7e1" opacity="1.00" d=" M 36.42 88.77 C 41.04 89.26 45.86 88.73 50.16 90.90 C 52.33 91.14 54.50 91.35 56.66 91.69 C 51.77 92.43 46.88 93.08 42.02 94.01 C 39.12 94.34 35.17 94.81 33.60 91.66 C 34.50 90.66 35.44 89.70 36.42 88.77 Z" />
<path fill="#f4d7e1" opacity="1.00" d=" M 62.92 91.25 C 65.81 88.89 69.54 89.99 72.62 91.32 C 72.45 95.55 67.99 95.31 64.89 95.29 C 63.82 94.33 62.75 93.38 61.65 92.46 C 61.97 92.16 62.60 91.55 62.92 91.25 Z" />
</g>
<g id="#f7f0f4ff">
<path fill="#f7f0f4" opacity="1.00" d=" M 47.22 57.48 C 46.34 55.25 44.62 52.08 47.56 50.59 C 47.94 50.91 48.70 51.54 49.09 51.86 C 49.43 52.15 50.11 52.73 50.45 53.02 C 52.00 53.23 53.56 53.33 55.12 53.41 C 56.27 55.22 56.15 57.46 56.85 59.44 L 57.01 59.91 C 55.60 60.67 56.58 62.98 58.10 62.22 C 61.27 67.61 66.38 72.00 67.76 78.32 C 68.03 79.79 68.50 82.02 66.49 82.39 C 56.87 86.61 43.29 83.23 38.81 73.13 C 36.92 68.59 40.78 64.69 42.74 60.96 L 42.80 60.22 C 42.24 60.16 41.10 60.05 40.53 59.99 L 39.86 59.62 L 39.63 59.43 L 39.51 59.23 C 39.11 57.86 38.77 56.48 38.49 55.08 C 38.88 54.67 39.66 53.83 40.05 53.41 C 40.09 54.93 40.11 56.44 40.13 57.96 C 41.28 57.47 42.43 56.98 43.58 56.48 C 43.80 57.04 44.22 58.15 44.44 58.71 C 44.56 57.94 44.80 56.41 44.92 55.64 C 45.49 56.10 46.65 57.02 47.22 57.48 M 42.51 58.25 C 42.76 58.53 42.76 58.53 42.51 58.25 M 44.24 59.25 C 44.84 59.85 44.84 59.85 44.24 59.25 M 47.23 61.24 C 47.85 61.82 47.85 61.82 47.23 61.24 M 49.52 62.16 C 49.71 63.54 50.39 63.77 51.58 62.85 C 51.39 61.47 50.71 61.24 49.52 62.16 Z" />
<path fill="#f7f0f4" opacity="1.00" d=" M 57.60 50.64 C 59.49 50.80 61.36 51.02 63.22 51.40 C 63.36 51.49 63.64 51.68 63.78 51.77 C 64.13 52.12 64.83 52.80 65.18 53.15 C 65.29 53.32 65.51 53.68 65.61 53.86 C 65.69 54.43 65.83 55.57 65.91 56.14 C 66.05 56.62 66.33 57.58 66.47 58.07 C 64.66 59.61 62.82 61.13 60.88 62.51 L 60.48 62.47 C 59.89 62.41 58.69 62.28 58.10 62.22 C 57.83 61.64 57.28 60.48 57.01 59.91 C 57.48 59.52 58.43 58.74 58.90 58.36 C 60.06 58.53 61.22 58.70 62.38 58.87 C 60.74 59.39 59.26 60.21 57.95 61.32 C 60.08 60.89 62.08 60.02 63.97 58.98 C 63.92 57.40 63.90 55.81 63.88 54.23 C 62.60 53.27 61.31 52.31 60.00 51.38 C 59.91 52.40 61.24 53.86 60.05 54.64 C 59.34 54.56 57.94 54.41 57.23 54.33 C 57.92 53.70 58.62 53.09 59.33 52.48 C 58.90 52.02 58.04 51.10 57.60 50.64 Z" />
</g>
</svg>
