<?xml version="1.0" encoding="UTF-8" ?>
<!DOCTYPE svg PUBLIC "-//W3C//DTD SVG 1.1//EN" "http://www.w3.org/Graphics/SVG/1.1/DTD/svg11.dtd">
<svg width="144pt" height="120pt" viewBox="0 0 144 120" version="1.1" xmlns="http://www.w3.org/2000/svg">
<g id="#1b1b1aff">
<path fill="#1b1b1a" opacity="1.00" d=" M 68.82 24.26 C 71.28 21.29 73.39 18.00 76.33 15.46 C 75.84 17.15 75.14 18.77 74.22 20.26 C 72.28 21.40 70.46 22.72 68.82 24.26 Z" />
<path fill="#1b1b1a" opacity="1.00" d=" M 58.25 30.23 C 57.79 26.38 55.64 22.02 58.40 18.56 C 60.13 22.21 61.89 25.85 63.63 29.50 C 65.36 28.03 66.97 26.42 68.46 24.71 C 67.36 27.24 65.43 29.23 63.48 31.12 C 61.58 27.75 60.19 24.11 57.93 20.95 C 58.18 24.45 59.04 27.88 59.12 31.40 C 56.43 31.05 53.75 30.63 51.08 30.10 L 50.52 28.89 C 53.10 29.31 55.67 29.83 58.25 30.23 Z" />
<path fill="#1b1b1a" opacity="1.00" d=" M 68.08 31.46 C 69.20 28.73 70.75 26.22 72.31 23.73 C 71.39 26.08 70.35 28.39 69.18 30.63 C 74.03 29.88 78.85 29.00 83.71 28.30 C 83.02 29.11 82.21 29.78 81.29 30.29 C 76.81 29.58 72.45 31.80 68.08 31.46 Z" />
<path fill="#1b1b1a" opacity="1.00" d=" M 25.35 27.92 C 25.07 26.52 25.61 26.01 26.96 26.38 C 27.26 27.81 26.73 28.32 25.35 27.92 Z" />
<path fill="#1b1b1a" opacity="1.00" d=" M 90.26 31.25 C 95.58 30.76 100.12 27.83 104.86 25.66 C 104.91 26.16 105.00 27.16 105.05 27.66 C 104.60 27.78 103.69 28.03 103.24 28.16 C 99.92 28.89 97.02 30.75 93.86 31.95 C 89.12 33.63 85.21 36.91 80.91 39.42 C 82.09 38.23 83.26 37.04 84.42 35.82 C 83.11 35.96 80.50 36.22 79.20 36.36 L 80.63 35.80 C 81.51 35.60 83.28 35.21 84.16 35.01 L 84.16 34.00 C 81.04 34.05 77.91 33.97 74.81 33.58 C 79.13 32.79 83.62 32.58 87.92 33.68 C 88.70 32.87 89.48 32.06 90.26 31.25 Z" />
<path fill="#1b1b1a" opacity="1.00" d=" M 26.56 28.47 C 27.18 28.12 28.42 27.42 29.04 27.07 C 36.04 27.89 42.85 29.95 49.78 31.24 C 50.20 31.73 51.06 32.70 51.49 33.19 C 51.73 32.82 52.21 32.07 52.44 31.70 C 53.42 32.28 54.40 32.85 55.38 33.41 C 52.64 33.93 49.85 34.08 47.08 34.28 C 50.09 35.55 53.19 36.61 56.18 37.93 C 54.98 39.96 53.52 41.83 51.89 43.55 C 52.37 42.77 53.33 41.21 53.81 40.42 C 47.10 35.37 39.31 31.52 30.94 30.31 C 29.47 29.72 28.01 29.11 26.56 28.47 Z" />
<path fill="#1b1b1a" opacity="1.00" d=" M 102.20 28.95 C 105.36 28.40 108.52 27.82 111.66 27.20 C 108.44 31.55 102.68 32.75 98.49 35.99 C 107.67 36.13 116.85 35.82 126.02 36.10 C 131.33 36.95 136.74 37.04 142.00 38.21 C 142.01 38.64 142.02 39.50 142.02 39.92 C 137.02 39.75 132.18 41.50 127.17 40.99 C 130.69 40.36 134.39 40.24 137.56 38.40 C 125.08 37.10 112.53 36.67 99.99 37.12 C 97.72 37.40 95.54 38.13 93.36 38.77 C 92.79 38.75 91.65 38.72 91.08 38.70 C 94.72 35.37 98.45 32.14 102.20 28.95 Z" />
<path fill="#1b1b1a" opacity="1.00" d=" M 33.49 31.36 C 38.52 33.39 44.09 35.39 47.48 39.88 C 46.56 39.36 45.64 38.83 44.73 38.28 C 39.56 36.99 34.37 35.58 28.98 35.96 C 21.37 34.55 13.54 35.02 5.96 36.45 C 18.29 39.06 31.22 40.50 42.58 46.33 C 39.65 47.78 36.72 49.21 33.70 50.44 C 34.34 49.81 35.63 48.55 36.27 47.93 C 31.24 46.26 25.94 45.69 20.87 44.18 C 18.16 43.40 15.37 42.98 12.56 42.78 C 14.18 41.59 15.81 40.42 17.43 39.23 C 11.57 38.77 5.88 37.06 0.00 36.86 L 0.00 35.01 C 8.03 35.52 15.93 32.94 23.96 34.20 C 28.99 35.27 34.14 34.89 39.23 35.36 C 37.20 34.21 35.07 33.13 33.49 31.36 Z" />
<path fill="#1b1b1a" opacity="1.00" d=" M 65.06 37.22 C 65.64 36.85 66.79 36.11 67.36 35.73 C 66.77 37.28 66.52 39.07 65.40 40.35 C 63.52 41.31 61.28 41.16 59.23 41.43 C 57.51 44.35 55.35 46.96 53.28 49.63 C 56.72 47.68 59.70 45.09 62.76 42.62 C 62.81 45.44 60.16 46.40 57.94 47.28 C 57.52 49.01 57.14 50.74 56.83 52.49 C 57.99 51.28 59.10 50.02 60.19 48.74 C 59.51 51.03 57.99 52.90 56.29 54.53 C 56.35 53.27 56.46 50.75 56.51 49.49 C 54.40 49.88 52.40 50.70 51.56 52.85 L 51.35 51.15 C 50.32 52.25 49.35 53.41 48.32 54.51 C 48.43 53.80 48.65 52.38 48.76 51.67 C 51.11 50.71 53.01 49.02 54.43 46.93 L 52.21 47.11 C 56.19 45.91 57.72 41.97 59.56 38.66 C 59.59 39.26 59.65 40.46 59.68 41.06 L 61.75 40.93 C 61.59 40.56 61.27 39.84 61.12 39.47 C 62.44 39.71 63.76 39.93 65.09 40.16 C 65.08 39.43 65.07 37.95 65.06 37.22 Z" />
<path fill="#1b1b1a" opacity="1.00" d=" M 71.87 38.09 C 73.27 37.75 74.67 37.44 76.08 37.11 C 75.27 37.64 74.46 38.18 73.66 38.73 C 75.55 40.80 77.90 41.21 80.36 39.87 C 79.40 40.62 78.44 41.38 77.47 42.12 C 79.10 44.39 80.77 46.63 82.34 48.95 C 78.15 47.82 73.95 46.71 69.68 45.93 C 70.49 48.36 71.27 50.81 72.00 53.27 C 68.61 52.11 66.16 49.50 63.55 47.19 C 62.30 47.33 61.28 48.19 60.19 48.74 C 60.88 47.89 61.56 47.04 62.25 46.19 C 62.83 46.21 64.01 46.27 64.60 46.30 C 66.46 48.31 68.44 50.22 70.63 51.88 C 69.89 49.76 69.01 47.70 68.10 45.66 C 72.12 44.74 75.96 46.60 79.81 47.47 C 77.94 43.74 74.79 40.96 71.87 38.09 Z" />
<path fill="#1b1b1a" opacity="1.00" d=" M 105.64 47.64 C 112.31 44.05 119.70 42.09 127.17 40.99 C 127.51 41.43 128.21 42.33 128.56 42.77 C 133.74 42.91 138.86 43.62 144.00 44.18 L 144.00 45.84 C 134.34 46.56 124.92 48.99 115.35 50.41 C 120.42 54.76 127.49 56.71 131.67 62.12 C 126.57 62.03 121.89 59.84 116.97 58.84 C 110.97 57.37 104.75 58.16 98.65 58.02 L 99.35 57.39 C 106.15 57.40 113.12 56.59 119.75 58.53 C 122.46 59.30 125.17 60.14 127.98 60.52 C 121.36 54.95 113.45 51.21 105.64 47.64 Z" />
<path fill="#1b1b1a" opacity="1.00" d=" M 47.93 48.15 C 49.05 46.59 50.16 45.02 51.30 43.48 C 50.84 44.69 50.36 45.89 49.86 47.10 C 50.45 47.10 51.62 47.11 52.21 47.11 C 50.78 47.45 49.36 47.80 47.93 48.15 Z" />
<path fill="#1b1b1a" opacity="1.00" d=" M 25.50 55.47 C 27.64 53.25 30.28 51.54 33.31 50.81 L 32.59 51.50 C 30.41 53.13 27.97 54.36 25.50 55.47 Z" />
<path fill="#1b1b1a" opacity="1.00" d=" M 61.25 52.79 C 62.30 55.83 63.36 58.92 63.55 62.16 C 64.24 62.56 64.93 62.96 65.62 63.36 C 67.44 66.34 69.32 69.28 71.10 72.29 L 70.35 72.99 C 69.52 72.05 68.68 71.12 67.86 70.18 C 66.83 70.53 65.79 70.87 64.76 71.21 C 65.32 70.68 66.45 69.62 67.01 69.09 C 66.24 67.46 65.42 65.85 64.61 64.24 C 63.51 64.22 62.40 64.20 61.29 64.18 C 60.30 66.87 59.47 69.63 59.06 72.48 C 57.85 73.23 56.66 73.99 55.49 74.77 C 54.58 75.09 53.68 75.41 52.78 75.73 C 52.57 74.50 52.37 73.26 52.19 72.03 C 50.63 70.97 49.05 69.95 47.42 69.03 C 47.31 71.17 48.26 72.49 50.28 72.98 C 49.63 74.11 48.96 75.22 48.28 76.33 C 50.51 78.91 52.44 81.74 53.95 84.80 C 53.50 86.85 53.27 88.94 53.16 91.04 C 57.07 87.72 54.24 82.83 54.24 78.63 L 54.74 78.05 C 55.66 82.24 56.88 86.67 54.97 90.79 C 53.68 91.31 52.38 91.79 51.09 92.33 C 51.71 89.94 52.19 87.53 52.75 85.14 C 50.10 81.26 47.33 77.40 43.76 74.30 C 42.07 73.96 40.37 73.54 38.86 72.66 C 39.44 72.54 40.59 72.31 41.17 72.19 C 43.46 72.63 45.45 73.89 47.31 75.24 C 46.85 74.28 46.39 73.32 45.93 72.36 C 44.53 71.76 43.15 71.14 41.77 70.50 C 43.75 70.78 45.73 71.04 47.71 71.30 C 46.41 68.48 43.37 68.94 40.81 68.89 C 41.04 69.43 41.49 70.52 41.72 71.06 C 40.76 71.03 38.82 70.98 37.85 70.95 C 37.97 71.40 38.22 72.29 38.34 72.73 C 37.63 72.82 36.20 72.99 35.48 73.07 C 37.25 71.26 39.27 69.73 41.31 68.24 C 42.70 67.99 44.11 67.83 45.51 67.59 C 47.36 68.43 48.40 66.59 49.53 65.53 L 48.97 67.14 L 48.25 69.07 C 48.82 68.86 49.94 68.43 50.50 68.22 C 51.24 69.31 52.01 70.38 52.78 71.44 C 52.90 72.20 53.13 73.71 53.24 74.46 C 54.86 73.91 56.38 73.11 57.75 72.08 C 58.47 68.15 60.15 64.51 61.88 60.94 C 58.89 62.80 55.94 64.74 52.84 66.42 C 55.60 63.63 58.97 61.56 62.45 59.78 C 62.08 57.44 61.66 55.11 61.25 52.79 M 48.02 73.23 C 46.43 76.22 51.36 73.32 48.02 73.23 Z" />
<path fill="#1b1b1a" opacity="1.00" d=" M 24.78 57.31 C 29.49 56.44 34.18 55.19 39.01 55.28 C 44.47 55.44 50.11 54.64 55.35 56.59 C 53.78 59.83 52.34 63.27 49.55 65.69 C 50.78 62.69 52.51 59.95 54.05 57.12 C 48.16 55.46 41.99 55.96 35.95 56.08 C 31.06 56.27 26.26 58.73 21.37 57.48 C 22.32 57.06 24.23 56.20 25.18 55.77 L 24.78 57.31 Z" />
<path fill="#1b1b1a" opacity="1.00" d=" M 77.07 62.66 C 77.74 61.12 78.43 59.58 79.13 58.04 C 87.79 59.41 95.92 63.17 103.29 67.81 C 104.92 68.83 106.74 69.50 108.54 70.19 C 105.38 65.99 101.35 62.57 97.01 59.64 C 97.55 59.09 98.10 58.56 98.65 58.02 C 101.28 60.83 104.00 63.55 106.74 66.25 C 109.24 68.75 112.18 71.01 113.56 74.39 C 109.56 73.06 106.15 70.52 102.46 68.55 C 95.19 64.00 87.20 60.71 78.87 58.69 C 78.70 63.31 81.06 67.93 79.17 72.43 C 80.73 72.28 82.29 72.11 83.85 71.93 C 84.17 72.58 84.83 73.90 85.15 74.55 C 87.07 74.27 88.99 74.04 90.92 73.82 L 90.85 75.12 C 87.03 74.66 83.07 75.82 81.58 79.73 C 81.37 77.26 83.40 75.62 84.70 73.80 C 84.03 73.65 82.70 73.34 82.04 73.19 C 80.92 73.79 79.64 75.85 78.44 73.66 C 78.23 74.97 78.08 76.27 77.97 77.60 C 76.69 73.92 72.70 72.19 71.33 68.61 C 70.56 65.39 73.78 63.37 75.73 61.40 C 76.06 61.72 76.74 62.35 77.07 62.66 M 72.40 67.61 C 73.43 69.94 75.44 71.63 77.02 73.56 C 78.94 71.15 80.16 67.67 78.07 64.97 C 76.85 61.23 71.40 64.55 72.40 67.61 Z" />
<path fill="#1b1b1a" opacity="1.00" d=" M 59.99 73.97 C 60.63 72.27 62.39 71.43 64.14 71.81 C 63.29 73.26 61.71 74.29 59.99 73.97 Z" />
<path fill="#1b1b1a" opacity="1.00" d=" M 72.50 74.76 C 74.56 76.33 76.67 78.00 77.99 80.27 C 78.01 84.59 77.14 89.17 79.79 92.99 C 79.78 90.26 79.53 87.54 79.76 84.82 C 81.41 82.18 84.05 80.32 85.64 77.62 C 86.64 80.32 88.35 82.65 90.16 84.86 C 93.38 88.81 95.27 93.67 96.29 98.62 C 93.11 97.20 91.64 93.83 89.16 91.57 C 89.06 92.54 88.88 94.49 88.78 95.46 C 87.43 94.58 86.10 93.67 84.76 92.77 C 85.19 96.40 85.97 99.99 86.11 103.65 C 81.68 101.55 81.32 95.97 78.35 92.49 C 77.89 94.33 78.40 98.33 75.49 97.99 C 74.23 96.45 74.16 94.33 73.56 92.51 C 71.35 96.47 71.73 102.42 67.11 104.56 C 66.96 100.92 66.96 97.29 67.08 93.66 C 65.99 95.17 64.76 96.59 63.16 97.59 C 63.08 96.00 63.02 94.40 62.97 92.80 C 62.53 93.11 61.64 93.71 61.20 94.02 C 62.62 90.12 65.02 86.67 67.93 83.74 C 68.12 89.96 67.84 96.19 68.12 102.41 C 68.54 101.99 69.37 101.14 69.79 100.72 C 71.63 95.24 72.70 89.50 75.00 84.17 C 75.59 84.50 76.76 85.17 77.35 85.50 C 78.21 81.03 74.61 78.15 72.50 74.76 M 83.82 80.78 C 83.76 85.16 88.70 87.61 90.92 91.06 C 94.08 89.02 90.82 88.43 89.11 87.92 C 89.37 87.58 89.88 86.90 90.13 86.56 C 87.71 84.92 87.21 80.22 83.82 80.78 M 80.89 83.74 C 80.86 87.11 80.48 90.49 80.85 93.85 C 81.68 96.36 83.16 98.58 84.62 100.76 C 84.58 94.99 83.57 89.28 82.15 83.71 L 80.89 83.74 M 63.20 91.25 C 63.75 91.75 63.75 91.75 63.20 91.25 Z" />
<path fill="#1b1b1a" opacity="1.00" d=" M 55.92 94.10 C 59.28 88.53 62.15 82.55 66.43 77.61 C 65.75 78.93 65.05 80.23 64.30 81.51 C 62.87 84.56 61.80 87.77 60.80 90.99 C 59.83 91.21 58.85 91.45 57.87 91.68 C 58.42 91.66 59.53 91.63 60.09 91.61 C 59.63 93.00 59.19 94.40 58.76 95.80 C 59.37 95.36 60.59 94.46 61.20 94.02 C 59.70 97.23 57.99 100.56 55.00 102.64 C 55.70 100.19 56.62 97.81 57.68 95.50 C 57.24 95.15 56.36 94.45 55.92 94.10 Z" />
</g>
<g id="#f0d372ff">
<path fill="#f0d372" opacity="1.00" d=" M 68.82 24.26 C 70.46 22.72 72.28 21.40 74.22 20.26 C 73.57 21.41 72.93 22.56 72.31 23.73 C 70.75 26.22 69.20 28.73 68.08 31.46 C 72.45 31.80 76.81 29.58 81.29 30.29 C 78.82 31.44 76.29 32.45 73.80 33.55 C 74.05 33.55 74.56 33.57 74.81 33.58 C 77.91 33.97 81.04 34.05 84.16 34.00 L 84.16 35.01 C 83.28 35.21 81.51 35.60 80.63 35.80 L 79.20 36.36 C 78.36 36.50 77.52 36.63 76.68 36.75 L 76.08 37.11 C 74.67 37.44 73.27 37.75 71.87 38.09 C 74.79 40.96 77.94 43.74 79.81 47.47 C 75.96 46.60 72.12 44.74 68.10 45.66 C 69.01 47.70 69.89 49.76 70.63 51.88 C 68.44 50.22 66.46 48.31 64.60 46.30 C 64.01 46.27 62.83 46.21 62.25 46.19 C 61.56 47.04 60.88 47.89 60.19 48.74 C 59.10 50.02 57.99 51.28 56.83 52.49 C 57.14 50.74 57.52 49.01 57.94 47.28 C 60.16 46.40 62.81 45.44 62.76 42.62 C 59.70 45.09 56.72 47.68 53.28 49.63 C 55.35 46.96 57.51 44.35 59.23 41.43 C 61.28 41.16 63.52 41.31 65.40 40.35 C 66.52 39.07 66.77 37.28 67.36 35.73 C 66.79 36.11 65.64 36.85 65.06 37.22 C 65.07 37.95 65.08 39.43 65.09 40.16 C 63.76 39.93 62.44 39.71 61.12 39.47 C 61.27 39.84 61.59 40.56 61.75 40.93 L 59.68 41.06 C 59.65 40.46 59.59 39.26 59.56 38.66 C 57.72 41.97 56.19 45.91 52.21 47.11 C 51.62 47.11 50.45 47.10 49.86 47.10 C 50.36 45.89 50.84 44.69 51.30 43.48 C 50.16 45.02 49.05 46.59 47.93 48.15 C 49.36 47.80 50.78 47.45 52.21 47.11 L 54.43 46.93 C 53.01 49.02 51.11 50.71 48.76 51.67 C 48.65 52.38 48.43 53.80 48.32 54.51 C 49.35 53.41 50.32 52.25 51.35 51.15 L 51.56 52.85 C 52.40 50.70 54.40 49.88 56.51 49.49 C 56.46 50.75 56.35 53.27 56.29 54.53 C 57.99 52.90 59.51 51.03 60.19 48.74 C 61.28 48.19 62.30 47.33 63.55 47.19 C 66.16 49.50 68.61 52.11 72.00 53.27 C 71.27 50.81 70.49 48.36 69.68 45.93 C 73.95 46.71 78.15 47.82 82.34 48.95 C 80.77 46.63 79.10 44.39 77.47 42.12 C 78.44 41.38 79.40 40.62 80.36 39.87 C 80.50 39.76 80.77 39.53 80.91 39.42 C 85.21 36.91 89.12 33.63 93.86 31.95 C 97.02 30.75 99.92 28.89 103.24 28.16 L 102.20 28.95 C 98.45 32.14 94.72 35.37 91.08 38.70 C 91.65 38.72 92.79 38.75 93.36 38.77 C 95.54 38.13 97.72 37.40 99.99 37.12 C 112.53 36.67 125.08 37.10 137.56 38.40 C 134.39 40.24 130.69 40.36 127.17 40.99 C 119.70 42.09 112.31 44.05 105.64 47.64 C 113.45 51.21 121.36 54.95 127.98 60.52 C 125.17 60.14 122.46 59.30 119.75 58.53 C 113.12 56.59 106.15 57.40 99.35 57.39 L 98.65 58.02 C 98.10 58.56 97.55 59.09 97.01 59.64 C 101.35 62.57 105.38 65.99 108.54 70.19 C 106.74 69.50 104.92 68.83 103.29 67.81 C 95.92 63.17 87.79 59.41 79.13 58.04 C 78.43 59.58 77.74 61.12 77.07 62.66 C 76.74 62.35 76.06 61.72 75.73 61.40 C 73.78 63.37 70.56 65.39 71.33 68.61 C 72.70 72.19 76.69 73.92 77.97 77.60 C 78.08 76.27 78.23 74.97 78.44 73.66 C 79.64 75.85 80.92 73.79 82.04 73.19 C 82.70 73.34 84.03 73.65 84.70 73.80 C 83.40 75.62 81.37 77.26 81.58 79.73 C 83.07 75.82 87.03 74.66 90.85 75.12 C 90.83 75.76 90.77 77.05 90.74 77.69 C 89.04 77.63 87.34 77.59 85.64 77.62 C 84.05 80.32 81.41 82.18 79.76 84.82 C 79.53 87.54 79.78 90.26 79.79 92.99 C 77.14 89.17 78.01 84.59 77.99 80.27 C 76.67 78.00 74.56 76.33 72.50 74.76 C 74.61 78.15 78.21 81.03 77.35 85.50 C 76.76 85.17 75.59 84.50 75.00 84.17 C 72.70 89.50 71.63 95.24 69.79 100.72 C 69.37 101.14 68.54 101.99 68.12 102.41 C 67.84 96.19 68.12 89.96 67.93 83.74 C 65.02 86.67 62.62 90.12 61.20 94.02 C 60.59 94.46 59.37 95.36 58.76 95.80 C 59.19 94.40 59.63 93.00 60.09 91.61 C 59.53 91.63 58.42 91.66 57.87 91.68 C 58.85 91.45 59.83 91.21 60.80 90.99 C 61.80 87.77 62.87 84.56 64.30 81.51 C 65.05 80.23 65.75 78.93 66.43 77.61 C 67.56 75.93 68.77 74.29 70.35 72.99 L 71.10 72.29 C 69.32 69.28 67.44 66.34 65.62 63.36 C 64.93 62.96 64.24 62.56 63.55 62.16 C 63.36 58.92 62.30 55.83 61.25 52.79 C 61.66 55.11 62.08 57.44 62.45 59.78 C 58.97 61.56 55.60 63.63 52.84 66.42 C 52.07 67.04 51.29 67.64 50.50 68.22 C 49.94 68.43 48.82 68.86 48.25 69.07 L 48.97 67.14 C 49.12 66.78 49.41 66.05 49.55 65.69 C 52.34 63.27 53.78 59.83 55.35 56.59 C 50.11 54.64 44.47 55.44 39.01 55.28 C 34.18 55.19 29.49 56.44 24.78 57.31 L 25.18 55.77 C 25.26 55.70 25.42 55.55 25.50 55.47 C 27.97 54.36 30.41 53.13 32.59 51.50 L 33.31 50.81 C 33.41 50.72 33.60 50.53 33.70 50.44 C 36.72 49.21 39.65 47.78 42.58 46.33 C 31.22 40.50 18.29 39.06 5.96 36.45 C 13.54 35.02 21.37 34.55 28.98 35.96 C 34.37 35.58 39.56 36.99 44.73 38.28 C 45.64 38.83 46.56 39.36 47.48 39.88 C 44.09 35.39 38.52 33.39 33.49 31.36 C 32.64 31.02 31.79 30.66 30.94 30.31 C 39.31 31.52 47.10 35.37 53.81 40.42 C 53.33 41.21 52.37 42.77 51.89 43.55 C 53.52 41.83 54.98 39.96 56.18 37.93 C 53.19 36.61 50.09 35.55 47.08 34.28 C 49.85 34.08 52.64 33.93 55.38 33.41 C 54.40 32.85 53.42 32.28 52.44 31.70 C 52.10 31.30 51.42 30.50 51.08 30.10 C 53.75 30.63 56.43 31.05 59.12 31.40 C 59.04 27.88 58.18 24.45 57.93 20.95 C 60.19 24.11 61.58 27.75 63.48 31.12 C 65.43 29.23 67.36 27.24 68.46 24.71 C 68.55 24.60 68.73 24.37 68.82 24.26 Z" />
<path fill="#f0d372" opacity="1.00" d=" M 72.40 67.61 C 71.40 64.55 76.85 61.23 78.07 64.97 C 80.16 67.67 78.94 71.15 77.02 73.56 C 75.44 71.63 73.43 69.94 72.40 67.61 Z" />
<path fill="#f0d372" opacity="1.00" d=" M 61.29 64.18 C 62.40 64.20 63.51 64.22 64.61 64.24 C 65.42 65.85 66.24 67.46 67.01 69.09 C 66.45 69.62 65.32 70.68 64.76 71.21 C 64.60 71.36 64.29 71.66 64.14 71.81 C 62.39 71.43 60.63 72.27 59.99 73.97 C 58.40 75.52 56.47 76.65 54.74 78.05 L 54.24 78.63 C 54.24 82.83 57.07 87.72 53.16 91.04 C 53.27 88.94 53.50 86.85 53.95 84.80 C 52.44 81.74 50.51 78.91 48.28 76.33 C 48.96 75.22 49.63 74.11 50.28 72.98 C 48.26 72.49 47.31 71.17 47.42 69.03 C 49.05 69.95 50.63 70.97 52.19 72.03 C 52.37 73.26 52.57 74.50 52.78 75.73 C 53.68 75.41 54.58 75.09 55.49 74.77 C 56.66 73.99 57.85 73.23 59.06 72.48 C 59.47 69.63 60.30 66.87 61.29 64.18 Z" />
<path fill="#f0d372" opacity="1.00" d=" M 40.81 68.89 C 43.37 68.94 46.41 68.48 47.71 71.30 C 45.73 71.04 43.75 70.78 41.77 70.50 C 43.15 71.14 44.53 71.76 45.93 72.36 C 46.39 73.32 46.85 74.28 47.31 75.24 C 45.45 73.89 43.46 72.63 41.17 72.19 C 40.59 72.31 39.44 72.54 38.86 72.66 C 38.73 72.68 38.47 72.71 38.34 72.73 C 38.22 72.29 37.97 71.40 37.85 70.95 C 38.82 70.98 40.76 71.03 41.72 71.06 C 41.49 70.52 41.04 69.43 40.81 68.89 Z" />
<path fill="#f0d372" opacity="1.00" d=" M 48.02 73.23 C 51.36 73.32 46.43 76.22 48.02 73.23 Z" />
<path fill="#f0d372" opacity="1.00" d=" M 83.82 80.78 C 87.21 80.22 87.71 84.92 90.13 86.56 C 89.88 86.90 89.37 87.58 89.11 87.92 C 90.82 88.43 94.08 89.02 90.92 91.06 C 88.70 87.61 83.76 85.16 83.82 80.78 Z" />
<path fill="#f0d372" opacity="1.00" d=" M 80.89 83.74 L 82.15 83.71 C 83.57 89.28 84.58 94.99 84.62 100.76 C 83.16 98.58 81.68 96.36 80.85 93.85 C 80.48 90.49 80.86 87.11 80.89 83.74 Z" />
<path fill="#f0d372" opacity="1.00" d=" M 63.20 91.25 C 63.75 91.75 63.75 91.75 63.20 91.25 Z" />
</g>
</svg>
