<?xml version="1.0" encoding="UTF-8" ?>
<!DOCTYPE svg PUBLIC "-//W3C//DTD SVG 1.1//EN" "http://www.w3.org/Graphics/SVG/1.1/DTD/svg11.dtd">
<svg width="120pt" height="120pt" viewBox="0 0 120 120" version="1.1" xmlns="http://www.w3.org/2000/svg">
<g id="#242424ff">
<path fill="#242424" opacity="1.00" d=" M 34.87 39.79 C 35.50 38.35 36.26 36.87 37.71 36.10 C 39.15 39.97 43.51 40.45 46.66 42.33 C 50.05 44.38 54.32 44.88 57.15 47.87 C 59.16 50.11 62.45 48.81 65.06 49.16 C 64.49 49.80 63.93 50.44 63.36 51.08 C 61.62 49.76 59.37 49.99 57.33 49.82 C 55.49 48.15 53.44 46.67 51.03 45.94 C 49.97 45.70 48.91 45.49 47.85 45.28 C 48.11 48.43 50.26 50.90 53.05 52.18 C 53.84 52.89 54.61 53.61 55.37 54.36 C 55.26 54.91 55.04 56.03 54.93 56.59 C 58.79 56.26 62.71 55.78 66.55 56.56 C 67.26 58.22 66.70 59.97 66.40 61.65 C 65.71 61.37 65.03 61.08 64.35 60.78 C 63.55 61.56 63.02 62.77 61.84 63.03 C 59.63 63.60 58.23 61.43 56.71 60.25 C 56.58 65.12 61.49 67.31 65.69 67.36 C 66.57 70.55 68.25 73.62 68.04 77.02 C 67.61 76.98 66.74 76.90 66.30 76.85 C 65.39 73.99 64.73 71.05 63.65 68.24 C 61.05 67.14 57.56 66.65 56.41 63.69 C 54.75 61.03 55.09 57.56 53.40 54.98 C 50.71 52.31 47.57 49.84 46.32 46.10 C 46.40 45.17 46.48 44.23 46.56 43.30 C 43.34 41.73 40.03 40.30 37.08 38.23 C 36.34 38.74 35.60 39.26 34.87 39.79 M 61.28 57.27 C 61.88 57.87 61.88 57.87 61.28 57.27 Z" />
<path fill="#242424" opacity="1.00" d=" M 25.34 57.89 C 24.16 56.62 25.23 53.06 27.12 53.49 C 26.97 55.10 26.60 56.77 25.34 57.89 Z" />
<path fill="#242424" opacity="1.00" d=" M 23.41 60.42 L 24.19 60.24 C 23.26 64.47 21.51 68.46 20.70 72.72 C 21.09 72.67 21.86 72.56 22.25 72.51 C 22.92 72.40 24.25 72.18 24.92 72.07 C 22.99 73.46 21.52 75.78 19.02 76.14 C 20.15 70.80 21.65 65.57 23.41 60.42 Z" />
</g>
<g id="#3c7390ff">
<path fill="#3c7390" opacity="1.00" d=" M 37.08 38.23 C 40.03 40.30 43.34 41.73 46.56 43.30 C 46.48 44.23 46.40 45.17 46.32 46.10 C 45.65 49.57 45.09 53.10 45.41 56.66 C 45.31 57.52 45.10 59.25 44.99 60.11 L 44.05 59.85 C 43.24 54.61 43.81 49.31 44.46 44.09 C 42.24 42.90 39.91 41.42 37.32 41.38 C 35.61 42.31 34.78 44.20 33.74 45.74 C 28.46 53.94 24.36 62.95 22.25 72.51 C 21.86 72.56 21.09 72.67 20.70 72.72 C 21.51 68.46 23.26 64.47 24.19 60.24 C 24.48 59.65 25.05 58.48 25.34 57.89 C 26.60 56.77 26.97 55.10 27.12 53.49 C 28.43 48.43 31.51 43.76 34.87 39.79 C 35.60 39.26 36.34 38.74 37.08 38.23 Z" />
<path fill="#3c7390" opacity="1.00" d=" M 56.71 60.25 C 58.23 61.43 59.63 63.60 61.84 63.03 C 63.02 62.77 63.55 61.56 64.35 60.78 C 65.03 61.08 65.71 61.37 66.40 61.65 C 67.43 61.79 68.46 61.90 69.49 61.97 C 69.45 62.85 69.38 63.72 69.29 64.59 C 68.70 66.14 67.25 67.01 65.69 67.36 C 61.49 67.31 56.58 65.12 56.71 60.25 Z" />
</g>
<g id="#3c728fff">
<path fill="#3c728f" opacity="1.00" d=" M 88.31 43.34 C 89.11 42.26 89.82 41.12 90.65 40.06 C 93.96 49.03 95.73 58.45 98.20 67.67 C 99.19 73.05 100.06 78.46 100.97 83.86 C 100.58 83.81 99.79 83.71 99.39 83.65 C 98.49 80.16 98.10 76.26 95.28 73.68 C 92.08 71.28 88.66 68.74 87.21 64.84 C 85.57 60.57 81.80 57.33 77.22 56.76 C 82.84 55.22 86.28 61.35 89.06 65.19 C 88.77 59.59 87.46 53.95 84.68 49.05 C 81.50 49.35 78.88 51.53 76.43 53.41 C 74.38 55.33 71.72 57.18 71.25 60.16 C 70.13 63.67 73.74 66.05 74.81 69.09 C 75.92 72.16 78.64 74.57 78.96 77.89 C 78.60 77.80 77.87 77.61 77.50 77.52 C 74.60 73.32 72.61 68.50 69.29 64.59 C 69.38 63.72 69.45 62.85 69.49 61.97 C 69.53 59.32 68.61 56.80 67.82 54.31 C 68.25 54.27 69.12 54.20 69.55 54.16 C 69.69 54.66 69.96 55.65 70.10 56.15 C 73.22 55.14 74.71 52.11 76.91 49.96 C 80.74 47.79 84.30 45.17 88.31 43.34 M 87.09 48.14 C 87.32 51.40 88.73 54.42 89.41 57.59 C 90.34 61.23 90.10 65.07 91.20 68.67 C 92.49 70.93 94.85 72.32 97.25 73.14 C 96.35 63.98 93.86 54.94 90.60 46.33 C 89.36 46.59 87.45 46.63 87.09 48.14 Z" />
</g>
<g id="#835475ff">
<path fill="#835475" opacity="1.00" d=" M 37.32 41.38 C 39.91 41.42 42.24 42.90 44.46 44.09 C 43.81 49.31 43.24 54.61 44.05 59.85 L 44.99 60.11 C 45.10 59.25 45.31 57.52 45.41 56.66 C 45.96 58.54 46.53 60.42 46.94 62.34 C 47.04 64.70 44.20 64.85 42.55 65.45 C 37.29 66.57 32.15 68.17 27.08 69.97 C 31.52 65.74 38.39 66.47 43.65 63.78 C 42.44 57.62 42.70 51.38 42.75 45.15 C 39.73 44.85 36.71 45.20 33.74 45.74 C 34.78 44.20 35.61 42.31 37.32 41.38 Z" />
</g>
<g id="#a5689eff">
<path fill="#a5689e" opacity="1.00" d=" M 33.74 45.74 C 36.71 45.20 39.73 44.85 42.75 45.15 C 42.70 51.38 42.44 57.62 43.65 63.78 C 38.39 66.47 31.52 65.74 27.08 69.97 C 26.41 70.72 25.69 71.42 24.92 72.07 C 24.25 72.18 22.92 72.40 22.25 72.51 C 24.36 62.95 28.46 53.94 33.74 45.74 Z" />
</g>
<g id="#a7689fff">
<path fill="#a7689f" opacity="1.00" d=" M 47.85 45.28 C 48.91 45.49 49.97 45.70 51.03 45.94 C 52.72 47.62 53.14 49.88 53.05 52.18 C 50.26 50.90 48.11 48.43 47.85 45.28 Z" />
</g>
<g id="#9d6395ff">
<path fill="#9d6395" opacity="1.00" d=" M 46.32 46.10 C 47.57 49.84 50.71 52.31 53.40 54.98 C 52.97 55.19 52.10 55.61 51.66 55.82 C 50.22 56.12 49.01 57.10 48.83 58.63 C 48.46 59.98 47.70 61.17 46.94 62.34 C 46.53 60.42 45.96 58.54 45.41 56.66 C 45.09 53.10 45.65 49.57 46.32 46.10 Z" />
<path fill="#9d6395" opacity="1.00" d=" M 87.09 48.14 C 87.45 46.63 89.36 46.59 90.60 46.33 C 93.86 54.94 96.35 63.98 97.25 73.14 C 94.85 72.32 92.49 70.93 91.20 68.67 C 90.10 65.07 90.34 61.23 89.41 57.59 C 88.73 54.42 87.32 51.40 87.09 48.14 Z" />
</g>
<g id="#865381ff">
<path fill="#865381" opacity="1.00" d=" M 51.03 45.94 C 53.44 46.67 55.49 48.15 57.33 49.82 C 56.67 51.34 55.98 52.83 55.37 54.36 C 54.61 53.61 53.84 52.89 53.05 52.18 C 53.14 49.88 52.72 47.62 51.03 45.94 Z" />
</g>
<g id="#162836ff">
<path fill="#162836" opacity="1.00" d=" M 65.85 48.52 C 67.31 45.46 71.14 46.13 73.91 46.11 C 74.03 47.98 74.05 49.86 73.84 51.72 C 73.43 52.05 72.62 52.71 72.21 53.04 C 72.54 51.14 72.82 49.15 71.96 47.34 C 69.93 47.76 67.89 48.13 65.85 48.52 Z" />
</g>
<g id="#84527eff">
<path fill="#84527e" opacity="1.00" d=" M 65.85 48.52 C 67.89 48.13 69.93 47.76 71.96 47.34 C 72.82 49.15 72.54 51.14 72.21 53.04 C 71.55 53.32 70.22 53.88 69.55 54.16 C 69.12 54.20 68.25 54.27 67.82 54.31 C 66.31 53.26 64.84 52.16 63.36 51.08 C 63.93 50.44 64.49 49.80 65.06 49.16 C 65.26 49.00 65.65 48.68 65.85 48.52 Z" />
</g>
<g id="#9a6291ff">
<path fill="#9a6291" opacity="1.00" d=" M 76.43 53.41 C 78.88 51.53 81.50 49.35 84.68 49.05 C 87.46 53.95 88.77 59.59 89.06 65.19 C 86.28 61.35 82.84 55.22 77.22 56.76 C 75.33 58.06 73.39 59.30 71.25 60.16 C 71.72 57.18 74.38 55.33 76.43 53.41 Z" />
</g>
<g id="#4c9ac3ff">
<path fill="#4c9ac3" opacity="1.00" d=" M 57.33 49.82 C 59.37 49.99 61.62 49.76 63.36 51.08 C 64.84 52.16 66.31 53.26 67.82 54.31 C 68.61 56.80 69.53 59.32 69.49 61.97 C 68.46 61.90 67.43 61.79 66.40 61.65 C 66.70 59.97 67.26 58.22 66.55 56.56 C 62.71 55.78 58.79 56.26 54.93 56.59 C 55.04 56.03 55.26 54.91 55.37 54.36 C 55.98 52.83 56.67 51.34 57.33 49.82 Z" />
</g>
<g id="#4b3047ff">
<path fill="#4b3047" opacity="1.00" d=" M 48.83 58.63 C 49.01 57.10 50.22 56.12 51.66 55.82 C 52.41 57.19 50.20 59.37 48.83 58.63 Z" />
</g>
<g id="#cecfddff">
<path fill="#cecfdd" opacity="1.00" d=" M 61.28 57.27 C 61.88 57.87 61.88 57.87 61.28 57.27 Z" />
</g>
</svg>
